<svg xmlns="http://www.w3.org/2000/svg" xmlns:xlink="http://www.w3.org/1999/xlink" width="600" height="544.593"><linearGradient id="a" x1="0" x2="1" y1="0" y2="0" gradientTransform="scale(40.57056 -40.57056)rotate(-55 -3.88 -6.686)" gradientUnits="userSpaceOnUse" spreadMethod="pad"><stop offset="0" style="stop-color:#8b723c"/><stop offset=".4" style="stop-color:#d2bb7b"/><stop offset=".5" style="stop-color:#ebd491"/><stop offset=".7" style="stop-color:#d2bb7b"/><stop offset="1" style="stop-color:#8b723c"/></linearGradient><linearGradient xlink:href="#a" id="b" x1="0" x2="1" y1="0" y2="0" gradientTransform="rotate(-55 528.093 102.371)scale(552.30549)" gradientUnits="userSpaceOnUse" spreadMethod="pad"/><path d="m299.973 544.593-41.699-114.816L15.315 472.06l121.773-79.83-15.533-2.763V222.444l-19.563-64.46L0 212.07 79.98 43.02h112.31l.79 2.545L299.973 0l106.933 45.564.804-2.545h112.31L600 212.07l-101.992-54.086-19.576 64.46v167.023l-15.52 2.764 121.773 79.83-242.973-42.284z"/><path d="m206.053 58.225 53.869 23.129v201.765l-16.908-12.347-63.167-211.009H90.502L36.58 173.735l75.514-40.05 26.165 86.254v155.602l43.128 7.65-89.345 58.552 177.138-30.794 30.794 84.662 30.834-84.662 177.084 30.794-89.277-58.551 43.127-7.651V219.939l26.152-86.255 75.459 40.05-53.868-113.97h-89.332l-63.18 211.008-16.962 12.347V81.354l53.923-23.13-93.96-40.036Z" style="fill:url(#b)"/></svg>