<svg xmlns="http://www.w3.org/2000/svg" width="600" height="320.58"><path d="M38.713 0C29.809 21.372 20.195 42.564 13.87 64.92 9.983 79.032 5.293 93.048 3.793 107.664c-1.032 9.192-2.341 18.337-3.793 27.48v57.131c1.872 7.644 3.096 15.47 4.176 23.305 1.776 13.5 6.18 26.388 9.42 39.6 7.308 22.272 15.18 44.532 26.064 65.4h520.776c8.16-16.416 15.048-33.42 21.144-50.676 3.84-13.452 9.048-26.58 11.244-40.5 3.612-14.808 4.692-30.096 7.176-45.144v-54.65c-2.772-12.384-3.935-25.03-7.031-37.367C587.389 60 573.516 30.144 561.419 0Zm21.822 18.861c3.212.018 6.425.099 9.64.075 157.68-.048 315.326 0 473.054-.047 1.644.048 3.288.189 4.968.275 4.464 10.74 9.43 21.288 13.319 32.256 3.516 12.048 8.676 23.676 10.644 36.144 2.952 10.404 4.26 21.133 6.276 31.729 1.776 12.984 1.453 26.16 2.293 39.191-.936 16.824-.133 33.84-3.649 50.436-4.596 32.208-16.452 62.724-28.644 92.676-165.612.086-331.26.086-496.92 0-2.904-7.32-5.82-14.676-9-21.948-4.872-14.76-11.436-29.052-14.34-44.484-2.496-11.1-5.304-22.164-6.756-33.516-1.74-16.728-1.739-33.6-1.643-50.435.192-16.584 1.032-33.325 4.5-49.633 3.048-16.788 8.82-32.952 13.883-49.176 3.468-11.388 9.648-21.708 12.744-33.24 3.21-.276 6.42-.32 9.631-.303m8.322 19.059c-1.68.048-3.372.276-5.064.42-6.648 16.356-12.42 33.095-17.436 50.015-3.228 16.788-6.889 33.613-8.113 50.725-.42 14.952-.517 29.856.096 44.76 1.176 10.824 2.484 21.755 4.644 32.531 1.776 6.84 2.34 14.113 5.34 20.629 8.904-8.532 14.256-19.967 18.612-31.271 8.292-19.164 13.261-39.602 22.261-58.454 1.368-2.856 4.08-5.663 7.547-5.244 5.352.612 10.32 2.952 15.096 5.244 2.628 1.404 6 3.146 6.24 6.518 1.116 6.804-3.935 12.288-6.191 18.336-3.192 8.292-7.825 15.983-9.889 24.695-2.34 8.724-5.951 17.723-4.031 26.951 1.224 6.24 7.92 8.354 12.611 11.534.42 4.836.372 9.707.096 14.53-10.176-1.775-20.531-1.822-30.803-1.03-8.808 1.224-17.952 2.818-25.68 7.546 2.616 8.772 6.035 17.341 9.743 25.645 4.74 1.356 9.793.468 14.677.648 151.26 0 302.484-.038 453.696 0 1.692-.132 4.128.049 4.5-2.1 5.628-14.351 11.628-28.645 15-43.693 1.872-7.176 3.983-14.242 5.53-21.466 1.453-6.744 1.693-13.742 2.725-20.534.936-6.84 2.016-13.69 1.92-20.626-.048-16.548.84-33.23-2.064-49.633-1.08-11.916-3.984-23.532-6.096-35.256-3.42-12.276-7.824-24.179-11.808-36.227-1.824-5.16-3.467-10.465-6.467-15.049-155.58-.24-311.16 0-466.692-.144M235.55 54.936c5.904.42 11.436 2.76 17.34 3.277 8.436.804 16.92.804 25.355.336 4.884-.24 9.385-2.437 14.113-3.145 4.224 1.968 7.92 4.872 11.856 7.26-.517 6.24-3.18 12.145-2.34 18.48 1.08 9.42 3.095 18.84 7.223 27.42 6.372 12.744 14.065 24.936 19.357 38.196 6.984 16.92 15.227 33.385 20.627 50.869 2.616 8.244 3.097 17.904 9.697 24.18 6.144 5.352 13.128 9.562 19.92 14.062 2.82 1.968 5.868 4.082 7.416 7.358-.432 4.644-2.87 8.723-5.017 12.707-10.692-1.176-20.82-5.436-31.596-6.096-16.692-2.244-33.983-2.388-50.207 2.58-5.904 1.824-10.873 5.532-16.117 8.58-4.368-4.404-8.819-8.856-12.383-13.92 8.16-8.016 19.403-13.74 23.951-24.805 3.384-9.468-1.92-18.887-5.244-27.515-6.468-17.904-16.403-34.213-24.047-51.565-1.5-2.712-2.676-6.13-5.676-7.547-4.08.564-7.97 4.272-12.181 2.532-4.368-2.808-7.596-7.02-10.836-10.967-2.664-3.048-3.984-7.585-2.196-11.389 2.484-3.792 6.277-6.612 8.81-10.404 3.24-4.74 6.37-9.564 8.53-14.904 1.128-2.388-.371-4.871-2.16-6.371-7.116-5.82-16.067-8.772-23.615-13.932 3-5.196 6.324-10.165 9.42-15.277m166.728 1.921c-.563 16.92.144 33.887-.984 50.807-.133 16.5.144 33.048-.096 49.596.288 2.904-2.197 4.74-4.021 6.469-6.708 5.82-13.176 11.915-18.852 18.707-1.356 1.776-3.18 3.048-5.195 3.984 1.5-30.564 1.584-61.176-.24-91.74-.048-1.632-1.176-3.372-3-3.276-7.26-.611-14.581.422-21.889-.275-.288-3.384-.288-6.757-.096-10.129 6.192-4.5 13.644-6.613 20.532-9.805v.002c11.34-4.68 22.225-10.452 33.841-14.34m80.391 1.442c4.223-.171 8.228 2.794 11.768 4.88 15.468 10.369 32.017 20.21 43.597 35.114 2.952 12.564 1.127 25.643.563 38.387.132 5.916-4.967 9.612-8.867 13.224-7.5 6.144-14.017 13.5-22.165 18.744-5.484 3.516-11.064 6.9-16.5 10.416-3.708 2.196-7.596 4.633-12 5.065-7.272-2.016-13.92-5.678-20.82-8.774-12.324-6.276-22.632-15.79-31.92-25.87-2.244-2.58-4.593-5.485-4.68-9.05-.431-6.66.132-13.27.745-19.87.611-7.129.323-14.353 1.175-21.47.096-4.031 3.84-6.43 6.791-8.53 11.724-7.225 22.873-15.241 34.55-22.55 4.871-3.095 9.468-6.706 14.808-9.046a8.4 8.4 0 0 1 2.955-.67M104.385 59.86c6.313.058 12.612 1.147 18.94 1.075 13.643.371 27.288-.048 40.872.888 1.128 9.288 6.048 17.485 11.772 24.71 10.224 13.775 16.967 29.95 28.775 42.562 1.644 1.452 3.336 3.373 5.676 3.517 3.792-1.32 6.937-4.176 10.969-4.836 4.788.336 7.692 4.691 10.74 7.787 3.048 3.744 7.679 7.776 6.13 13.116-1.871 5.352-7.067 9.049-7.823 14.869-1.128 9.324-.418 18.983 3.097 27.79 5.904 15.24 12.048 30.662 14.34 46.97-5.016 2.724-10.549 4.356-15.373 7.5-10.92 7.08-19.452 17.255-25.74 28.595-5.664-2.484-11.34-5.112-16.164-9-.936-2.064-.287-4.5-.287-6.709 1.32-14.436-1.68-28.871-5.905-42.6-4.176-13.223-7.871-26.675-13.691-39.335-7.452-17.484-15.517-35.148-27.889-49.824-2.484-2.16-5.58-7.128-9.228-4.272-4.596 4.224-4.692 11.724-9.66 15.66-6.324 1.788-11.951-2.484-17.387-5.064-3.756-2.016-9.24-4.632-8.065-9.84 2.628-10.452 8.245-19.92 10.873-30.42.24-3.288 1.739-8.532-2.341-9.984-5.58-2.772-12-2.856-17.532-5.532-2.292-1.176-2.53-4.128-1.03-6.048 2.76-4.032 5.626-8.291 9.61-11.207 2.11-.291 4.216-.387 6.32-.368m357.249 25.25c-1.775.024-3.497.319-4.973 1.327-8.964 9.468-11.869 23.857-8.629 36.373 2.76 9.336 9 17.484 17.065 22.92 9.468 6.564 20.435 11.676 32.1 12 3.803-.132 8.629-.602 10.597-4.454 8.16-13.548 8.867-32.53-1.309-45.226-9.564-12.336-24.288-20.257-39.564-22.645-1.686-.072-3.513-.319-5.287-.295"/></svg>