<svg xmlns="http://www.w3.org/2000/svg" width="151.972" height="171.84" viewBox="0 0 151.972 171.84"><path d="M60.546.01c1.46 15.05 2.52 30.46-.59 45.36-4.2 15.75-18.16 25.67-27.11 38.53-2.33 3.63-5.67 8.3-3.39 12.69 4.01 4.88 10.06 7.4 15.41 10.5 10.95 6.2 23.26 11.44 30.94 21.87 6.4-8.65 16.28-13.64 25.48-18.74 6.73-3.86 14.05-6.93 19.92-12.1 2.63-2.05 2.47-5.78 1.14-8.53-6.9-14.02-20.85-23.11-27.72-37.19-3.73-7.38-4.21-15.81-4.5-23.92-.38-9.51.32-19.02 1.29-28.48 6.58 17.18 10.2 36.57 23.42 50.25 9.52 10.54 22.87 17.02 31.23 28.68 4.51 6.05 7.32 13.97 5.17 21.47-2.31 8.24-8.84 14.39-15.51 19.33-15.53 11.22-34.5 17.82-47.44 32.45-5.29 5.52-9.04 12.32-11.11 19.66h-2.39c-2.77-10.66-9.87-19.51-18.17-26.47-13.03-10.91-29.29-16.95-42.66-27.38-6.01-4.8-11.72-10.85-13.47-18.58-1.6-7 .93-14.25 5.01-19.92 4.66-6.67 11.02-11.89 17.46-16.75 9.69-7.48 19.21-15.96 24.42-27.29 5.44-11.39 8.86-23.6 13.17-35.44"/></svg>