<svg xmlns="http://www.w3.org/2000/svg" width="200" height="96.5pt" viewBox="0 0 150 96.5"><g fill="#fff"><path d="M49.74.01C66.01 0 82.27-.01 98.54.02c-4.82 9.89-9.45 19.87-14.26 29.76 4.63 11.85 9.39 23.64 14.05 35.48-3.54.07-7.07.15-10.61.31 2.68 10.28 4.98 20.65 7.62 30.93H93.8C80.24 78.45 66.86 60.26 53.32 42.19c5.62.09 11.23.26 16.85.34C63.42 28.33 56.51 14.2 49.74.01m4.7 3.19c6.89 14.2 13.71 28.42 20.51 42.66-5.15-.06-10.3-.28-15.46-.3C69.69 59 79.62 72.65 89.77 86.13c-1.7-7.96-3.87-15.81-5.66-23.74 3.28-.09 6.57-.15 9.86-.26-4.22-10.83-8.58-21.6-12.83-32.41 4.18-8.86 8.46-17.66 12.64-26.52-13.11-.01-26.23-.02-39.34 0"/><path d="M108.31 4.38c9.64 4.18 18.03 11.03 24.5 19.28 9.73 12.45 15.03 27.87 17.19 43.4v.67c-3.15.64-6.71 1.33-8.67 4.17-3.45 4.79-2.43 11.07-1.55 16.51h-24.17c-.29-10.03-1.12-20.15-4.06-29.8-2.98-10.03-8.89-19.93-18.57-24.69 4.9-9.95 10.25-19.68 15.33-29.54m1.12 4.07c-4.11 8.05-8.44 15.99-12.52 24.05 3.44 2.17 6.42 5.01 8.92 8.21 9.6 12.65 11.79 29.08 12.48 44.5 6.03.01 12.07.01 18.1 0-.55-5.22-.52-11.06 2.79-15.45 1.8-2.55 4.73-3.89 7.64-4.7-1.61-10.38-4.82-20.55-9.89-29.77-6.24-11.38-15.7-21.26-27.52-26.84M11.82 32.26c6.9-11.71 17.23-21.73 29.88-26.99 5.05 9.88 10.29 19.67 15.29 29.58a31.9 31.9 0 0 0-13.35 12.56c-7.39 12.54-8.84 27.46-9.25 41.71-8.06.01-16.11.01-24.17 0 .82-5.39 1.87-11.59-1.45-16.39C6.82 69.81 3.2 69.08 0 68.4v-.45c1.65-12.49 5.41-24.8 11.82-35.69m17.76-16.12C14.4 28.18 6.06 46.96 3.16 65.76c2.96.83 5.94 2.22 7.72 4.83 3.21 4.39 3.24 10.14 2.71 15.32 6.03-.02 12.07.01 18.1-.02.35-8.27 1.15-16.55 3.24-24.58 2.77-10.84 8.22-21.85 18.1-27.83-4.01-8.07-8.42-15.93-12.37-24.03-4.15 1.32-7.63 4.13-11.08 6.69"/></g><path d="M54.44 3.2c13.11-.02 26.23-.01 39.34 0-4.18 8.86-8.46 17.66-12.64 26.52 4.25 10.81 8.61 21.58 12.83 32.41-3.29.11-6.58.17-9.86.26 1.79 7.93 3.96 15.78 5.66 23.74C79.62 72.65 69.69 59 59.49 45.56c5.16.02 10.31.24 15.46.3A7587 7587 0 0 0 54.44 3.2m54.99 5.25c11.82 5.58 21.28 15.46 27.52 26.84 5.07 9.22 8.28 19.39 9.89 29.77-2.91.81-5.84 2.15-7.64 4.7-3.31 4.39-3.34 10.23-2.79 15.45-6.03.01-12.07.01-18.1 0-.69-15.42-2.88-31.85-12.48-44.5-2.5-3.2-5.48-6.04-8.92-8.21 4.08-8.06 8.41-16 12.52-24.05m-79.85 7.69c3.45-2.56 6.93-5.37 11.08-6.69 3.95 8.1 8.36 15.96 12.37 24.03-9.88 5.98-15.33 16.99-18.1 27.83-2.09 8.03-2.89 16.31-3.24 24.58-6.03.03-12.07 0-18.1.02.53-5.18.5-10.93-2.71-15.32-1.78-2.61-4.76-4-7.72-4.83 2.9-18.8 11.24-37.58 26.42-49.62"/></svg>