<svg xmlns="http://www.w3.org/2000/svg" width="500" height="212.983" viewBox="0 0 500 212.983"><path d="M499.982 183.96c-.332-6.436-4.734-17.19-7.474-23.21-19.474-43.14-58.337-81.672-99.775-103.969-58.13-31.306-130.169-37.452-193.696-19.805-15.32 4.235-29.563 10.463-44.095 16.774-.207-.083-.249-.249-.249-.457-.166-.789 1.12-4.567 1.412-5.688 3.114-10.463 7.723-20.594 10.463-31.182 1.246-4.733 3.488-13.453-2.657-15.695-.623-.208-1.288-.374-1.91-.54-1.08-.29-3.363-.207-4.443 0-1.412.25-2.574.83-3.737 1.785-3.156 2.533-7.059 10.422-9.093 14.2-6.85 12.706-12.83 25.868-19.889 38.408-.456.124-1.287-1.412-1.494-1.744-6.602-11.75-10.173-26.366-17.19-37.909-3.239-5.356-7.723-8.968-14.283-6.187-6.062 2.533-3.156 10.962-2.076 15.945 2.823 13.494 6.892 26.74 8.76 40.441-12.912-5.771-25.12-12.913-37.867-19.017-2.2-1.038-4.36-2.159-6.602-3.114-5.397-2.366-15.902-6.477-18.725 1.412-3.073 8.636 8.387 14.782 14.075 18.892 4.65 3.322 9.301 6.685 13.951 10.007 6.644 4.816 14.242 9.882 20.512 15.03.706.581 2.283 1.869 2.74 2.533.125.166.208.25.166.498-.083.332-2.574 1.62-3.072 1.91-24.498 13.412-52.317 21.633-76.482 36.082-2.907 1.744-6.104 3.239-7.017 6.685-.166.581-.332 1.951-.166 2.574.083.415.166.664.249.997 1.91 8.47 13.536 5.397 19.515 3.861 21.674-5.647 42.642-13.91 64.108-20.096 1.246-.332 9.8-2.824 10.173-2.491-.955 4.318-2.45 8.511-3.903 12.664-6.602 19.307-14.782 38.116-20.47 57.755-1.453 5.066-5.065 15.654-.54 19.681 1.163 1.038 2.408 1.578 3.82 1.869.623.166 1.952.166 2.575 0 1.079-.25 2.158-.54 3.238-.997a79 79 0 0 0 1.329-.706c.415-.249.83-.498 1.204-.83.29-.25.789-.748 1.038-1.038 4.775-5.564 7.806-13.495 11.003-20.138 7.972-16.36 14.823-33.3 23.252-49.368.83-1.62 1.66-3.322 2.491-4.9.083-.083.25-.623.581-.581.25 0 .374.249.416.374 4.276 9.508 8.511 19.93 12.912 29.853 3.24 7.432 6.52 15.114 10.09 22.38 1.37 2.824 4.36 9.633 7.1 10.837 1.412.623 2.325 1.204 4.941 1.37h2.2c.167 0 2.243.042 3.904-1.204.249-.166.706-.581.872-.83 1.578-2.284 1.162-2.948 1.204-4.775v-1.869c0-.332-.166-1.743-.208-2.034-.622-4.401-2.076-9.176-3.28-13.494-3.197-11.419-7.224-22.546-10.546-33.965-1.121-3.82-2.45-7.806-2.99-11.709 0-.124-.332-.415-.166-.706.29-.082.374.125.498.208 1.288.581 2.658 1.204 3.903 1.868.374.167.665.374.872.499a183 183 0 0 1 6.27 3.404c.332.167.623.374.872.499 1.287.747 2.616 1.453 3.903 2.2.29.166.581.374.872.54a798 798 0 0 1 22.089 13.329c2.574 1.619 5.315 3.903 8.013 5.19.25.124 1.08.622 1.163.664.374.207.623.374.872.54 2.45 1.328 5.149 2.657 7.972 2.865.374.041 1.412.166 1.536.166.914 0 1.827.041 2.74 0 .084 0 1.039-.125 1.371-.166 3.197-.872 4.277-4.526 4.733-7.474v-1.703c-.664-3.985-2.74-6.145-5.605-8.76-11.958-10.962-26.698-20.429-39.528-30.518-2.283-1.786-6.02-4.402-7.93-6.353-.25-.25-.374-.498-.499-.79-.29-.622-.083-.663.498-.996.416-.249 1.745-.788 2.035-.872 19.722-5.646 40.524-8.428 60.58-12.996 5.023-1.162 10.463-2.2 15.279-3.985.623-.25 3.156-1.205 4.11-2.035.208-.208.665-.623.83-.872 1.953-2.491 1.994-6.27.831-9.218-1.951-4.9-6.934-4.525-11.376-4.567h-1.205c-.789 0-5.439.332-5.77.374-9.758.498-19.557 3.487-29.356 4.235-1.495.124-2.99.249-4.485 0-.083-.29.084-.332.25-.498 1.204-1.163 7.764-3.405 9.716-4.111 13.743-4.983 28.607-9.093 43.098-11.377l1.038-.166c.748-.124 1.454-.249 2.2-.332.416-.083 4.817-.706 4.942-.706 1.287-.166 2.616-.332 2.699-.332 1.162-.125 5.065-.54 8.18-.83 1.287-.125 12.123-.623 13.618-.706 2.824-.125 5.647 0 8.47 0 1.163 0 15.156.83 17.19 1.038.997.083 9.135.996 9.176 1.038.374 0 3.696.498 3.737.498.79.042 1.37.208 2.076.332.374.083.748.125 1.163.166.25.042.997.166 1.038.166 15.03 2.658 29.77 6.395 44.054 11.75.124.042 11.044 4.651 12.415 5.274.249.083 9.134 4.443 9.674 4.733.581.332 1.162.582 1.702.872.374.166 5.315 2.948 5.813 3.239.25.124.581.332.83.498a215 215 0 0 1 26.2 18.186c.208.166 8.886 7.682 9.176 7.972.416.374.873.706 1.37 1.204s.997 1.038 1.537 1.537a168 168 0 0 1 5.44 5.439c.539.581 1.12 1.121 1.702 1.702.456.499.83.997 1.204 1.37.29.291 9.3 10.796 10.006 11.71.042.083.498.622.54.705 5.232 6.81 10.131 13.993 14.49 21.467 5.73 9.965 10.298 20.553 15.696 30.725.623 1.204 1.37 2.7 2.283 3.737.333.374.582.83 1.204 1.163 1.08.706 1.578 1.038 2.907 1.162.332.042 1.703.125 1.785.125 1.537 0 2.74.124 4.152-.415 2.658-1.038 4.692-3.197 4.941-6.311.042-.54 0-1.288 0-1.869m-6.81.955c-1.204 2.657-4.11-2.74-4.733-3.778-4.194-6.976-7.183-14.948-11.003-22.173-30.975-58.212-87.194-96.702-152.258-107.082-49.908-7.93-95.872-2.325-142.043 17.646-5.107 2.2-16.94 7.059-20.553 10.713-3.695 3.736 2.74 2.657 4.775 2.574 15.487-.581 30.767-3.239 46.088-5.066 5.688-.705 12.041-1.702 17.688-1.91 1.37-.041 5.564-.207 6.56.623.748.623.872 1.786.042 2.408-1.329 1.08-8.47 2.7-10.546 3.239-24.58 6.394-50.573 8.802-74.697 16.65-.789.25-6.31 1.993-6.31 2.491 7.473 7.433 15.819 14.117 24.164 20.553 10.63 8.221 22.007 15.82 32.138 24.664 1.453 1.287 5.688 4.691 5.605 6.643-.042 1.536-1.453 1.287-2.533.996-5.273-1.536-14.366-7.681-19.39-10.712-8.969-5.356-17.73-11.003-26.657-16.36-7.847-4.691-15.778-9.217-23.708-13.784.913 7.141 2.74 14.159 4.65 21.134 3.322 12.083 7.391 23.999 11.045 36.04 1.412 4.692 5.398 15.861 4.858 20.262-.166 1.37-.79 2.99-2.284 1.62-1.12-1.038-2.865-5.024-3.612-6.56-10.38-21.716-30.269-68.676-30.269-68.676-.54 0-4.443 8.387-4.94 9.383-11.378 22.505-20.512 46.172-32.429 68.386-1.578 2.948-4.36 8.76-6.643 10.878-1.37 1.287-3.654 1.121-3.654-.913 0-1.495 1.038-4.568 1.536-6.146 7.059-22.462 16.692-44.8 24.498-67.139 2.408-6.851 4.94-13.743 6.643-20.802-28.608 6.436-55.804 17.771-83.997 25.618-2.74.748-7.225 2.284-9.84 2.575-1.495.124-4.402.083-2.782-2.118 1.287-1.785 10.795-6.103 13.37-7.39 20.677-10.049 42.06-18.602 62.862-28.4 3.986-1.91 8.595-3.862 12.373-6.021 1.869-1.08 3.363-1.661 1.37-3.737-13.245-11.045-27.486-20.72-41.313-30.975-4.401-3.239-10.09-7.058-14.075-10.63-3.28-2.947-3.032-4.982 1.827-3.487 5.314 1.578 11.21 5.688 16.193 8.304A881 881 0 0 0 98.848 73.1c1.992.914 4.317 2.076 6.435 2.74.457.166 2.948 1.08 2.948.125-1.287-5.98-2.491-12-3.779-18.02-2.615-12.041-5.895-24.082-8.22-36.123-.291-1.412-1.412-6.27-.748-7.267 1.08-1.494 3.28 1.703 3.82 2.492 3.612 5.314 6.81 12.747 9.342 18.684 4.65 10.795 8.429 22.588 13.494 33.092 1.246 2.492 2.243.83 3.405-.747 9.093-12 15.861-29.812 22.92-43.39 1.951-3.82 8.013-16.068 11.293-17.978.623-.332 1.578-.747 1.994.124.332.748-.748 4.236-1.038 5.274-4.65 17.314-12.083 34.13-16.526 51.444-.166.664-.996 3.613-.747 3.945 6.27-2.201 12-5.606 17.978-8.47 40.11-19.225 81.008-27.695 125.685-24.996 74.073 4.484 148.81 45.05 187.425 108.992 6.187 10.256 13.578 23.875 17.564 35.127.664 1.827 1.868 4.941 1.079 6.768" style="fill:#fff"/><path d="M493.172 184.915c-1.204 2.657-4.11-2.74-4.733-3.778-4.194-6.976-7.183-14.948-11.003-22.173-30.975-58.212-87.194-96.702-152.258-107.082-49.908-7.93-95.872-2.325-142.043 17.646-5.107 2.2-16.94 7.059-20.553 10.713-3.695 3.736 2.74 2.657 4.775 2.574 15.487-.581 30.767-3.239 46.088-5.066 5.688-.705 12.041-1.702 17.688-1.91 1.37-.041 5.564-.207 6.56.623.748.623.872 1.786.042 2.408-1.329 1.08-8.47 2.7-10.546 3.239-24.58 6.394-50.573 8.802-74.697 16.65-.789.25-6.31 1.993-6.31 2.491 7.473 7.433 15.819 14.117 24.164 20.553 10.63 8.221 22.007 15.82 32.138 24.664 1.453 1.287 5.688 4.691 5.605 6.643-.042 1.536-1.453 1.287-2.533.996-5.273-1.536-14.366-7.681-19.39-10.712-8.969-5.356-17.73-11.003-26.657-16.36-7.847-4.691-15.778-9.217-23.708-13.784.913 7.141 2.74 14.159 4.65 21.134 3.322 12.083 7.391 23.999 11.045 36.04 1.412 4.692 5.398 15.861 4.858 20.262-.166 1.37-.79 2.99-2.284 1.62-1.12-1.038-2.865-5.024-3.612-6.56-10.38-21.716-30.269-68.676-30.269-68.676-.54 0-4.443 8.387-4.94 9.383-11.378 22.505-20.512 46.172-32.429 68.386-1.578 2.948-4.36 8.76-6.643 10.878-1.37 1.287-3.654 1.121-3.654-.913 0-1.495 1.038-4.568 1.536-6.146 7.059-22.462 16.692-44.8 24.498-67.139 2.408-6.851 4.94-13.743 6.643-20.802-28.608 6.436-55.804 17.771-83.997 25.618-2.74.748-7.225 2.284-9.84 2.575-1.495.124-4.402.083-2.782-2.118 1.287-1.785 10.795-6.103 13.37-7.39 20.677-10.049 42.06-18.602 62.862-28.4 3.986-1.91 8.595-3.862 12.373-6.021 1.869-1.08 3.363-1.661 1.37-3.737-13.245-11.045-27.486-20.72-41.313-30.975-4.401-3.239-10.09-7.058-14.075-10.63-3.28-2.947-3.032-4.982 1.827-3.487 5.314 1.578 11.21 5.688 16.193 8.304A881 881 0 0 0 98.848 73.1c1.992.914 4.317 2.076 6.435 2.74.457.166 2.948 1.08 2.948.125-1.287-5.98-2.491-12-3.779-18.02-2.615-12.041-5.895-24.082-8.22-36.123-.291-1.412-1.412-6.27-.748-7.267 1.08-1.494 3.28 1.703 3.82 2.492 3.612 5.314 6.81 12.747 9.342 18.684 4.65 10.795 8.429 22.588 13.494 33.092 1.246 2.492 2.243.83 3.405-.747 9.093-12 15.861-29.812 22.92-43.39 1.951-3.82 8.013-16.068 11.293-17.978.623-.332 1.578-.747 1.994.124.332.748-.748 4.236-1.038 5.274-4.65 17.314-12.083 34.13-16.526 51.444-.166.664-.996 3.613-.747 3.945 6.27-2.201 12-5.606 17.978-8.47 40.11-19.225 81.008-27.695 125.685-24.996 74.073 4.484 148.81 45.05 187.425 108.992 6.187 10.256 13.578 23.875 17.564 35.127.664 1.827 1.868 4.941 1.079 6.768"/></svg>