<svg xmlns="http://www.w3.org/2000/svg" xmlns:xlink="http://www.w3.org/1999/xlink" width="143pt" height="200pt" viewBox="0 0 143 200"><defs><radialGradient xlink:href="#a" id="b" cx="0" cy="0" r="1" fx="0" fy="0" gradientTransform="matrix(71.5 0 0 -71.5 71.5 100)" gradientUnits="userSpaceOnUse" spreadMethod="pad"/></defs><path fill="url(#a)" d="M134 9v181H10V9Z" style="fill:url(#b)"/><radialGradient id="a" cx="0" cy="0" r="1" fx="0" fy="0" gradientTransform="matrix(71.5 0 0 -71.5 71.5 100)" gradientUnits="userSpaceOnUse" spreadMethod="pad"><stop offset="0" style="stop-color:#bf99c3"/><stop offset=".7" style="stop-color:#7b5190"/><stop offset="1" style="stop-color:#612c75"/></radialGradient><path d="M0 0h143v200H0Zm10 9v181h124V9Z" style="fill:#fff;fill-opacity:1"/><path d="M83.446 33.673q3.199-.752 7.718-.752c7.775 0 14.826 2.133 21.166 6.399 6.33 4.267 9.94 9.128 10.82 14.582q1.32 8.184 1.32 10.819c0 8.027-3.08 14.864-9.22 20.51-7.28 5.019-11.8 8.154-13.55 9.406q13.92 2.634 22.86 13.733c5.96 7.41 8.94 14.81 8.94 22.21 0 6.89-1.22 13.2-3.67 18.91-2.45 5.7-6.55 9.69-12.32 11.94-5.78 2.26-10.79 3.77-15.06 4.52a73.7 73.7 0 0 1-12.791 1.13c-5.393 0-10.286-.41-14.676-1.22-4.391-.82-9.817-2.07-16.276-3.77-6.46-1.69-12.387-2.54-17.781-2.54l-6.586.38-17.123 3.01a5.9 5.9 0 0 1-1.318-1.41c-.377-.57-.565-1.22-.565-1.98 0-.5.377-1.06 1.131-1.69l22.015-6.21q.753-.555 1.128-5.55c.251-3.32.376-7.75.377-13.27q0-17.685-1.318-40.26-1.318-22.578-2.917-30.577-1.6-7.998-13.925-9.69Q9.5 50.613 9.5 48.539q0-1.314 1.223-2.914 1.223-1.599 3.106-1.599 5.835 1.315 11.855 2.633 6.02 1.317 11.292 1.318 12.225 0 21.541-5.364t24.929-8.94M57.86 94.637c0 9.153-.06 16.713-.19 22.673-.126 5.96-.253 11.63-.379 17.03q0 8.28.755 12.42a16.4 16.4 0 0 0 3.388 7.43q2.633 3.3 8.277 4.8 5.645 1.5 12.61 1.5c8.154 0 14.52-1.13 19.099-3.38 4.58-2.26 7.9-5.99 9.97-11.2 2.07-5.2 3.1-12.2 3.1-20.98 0-7.9-3.76-14.18-11.28-18.81a6241 6241 0 0 1-27.665-12.046q9.595-1.694 17.875-7.243t8.28-16.466v-3.198q0-9.785-6.68-16.463-6.681-6.678-17.218-6.678l-4.324.373q-9.785 1.321-12.891 8.941t-3.106 21.165c0 2.259.06 5.646.189 10.161q.19 6.773.19 9.971" style="fill:#fff;fill-opacity:1"/></svg>