<?xml version="1.0" encoding="UTF-8" standalone="no"?>
<svg
   version="1.1"
   width="457.04129"
   height="346.73148"
   id="svg1"
   xmlns="http://www.w3.org/2000/svg"
   xmlns:svg="http://www.w3.org/2000/svg">
  <defs
     id="defs1" />
  <path
     d="m 230.66459,233.55946 c 24.36697,0 38.68896,-11.47066 38.68896,-11.47066 l 32.98629,124.64268 h 64.44896 l -41.52942,-31.5062 -15.76943,-144.75441 24.35609,-35.7941 51.56353,210.60727 h 71.63172 L 412.66053,318.07661 378.27034,20.0682 299.45585,95.99869 272.24842,0 239.29479,98.83915 H 217.79003 L 184.8364,0 157.62897,95.99869 78.814477,20.0682 44.424287,318.07661 0,345.28404 h 71.631717 l 51.563523,-210.60727 24.39963,35.7941 -15.76943,144.75441 -41.572953,31.5062 H 154.74498 L 187.68773,222.0888 c 0,0 14.32199,11.47066 38.68897,11.47066 z"
     id="path1" />
</svg>
