<svg xmlns="http://www.w3.org/2000/svg" width="525.422" height="573.836" viewBox="0 0 139.018 151.827"><g style="display:inline;opacity:1"><path d="M779.098 562.373c-33.31-29.595-65.673-76.171-84.725-110.23v-18.067h20.922c11.822-3.247 21.586-6.802 30.715-14.79-6.99-11.5-13.875-23.059-20.545-34.747l-54.815-45.652 55.569-45.356C731.902 281.77 737.972 270.46 745.8 260c-9.782-7.214-18.616-12.663-30.506-14.791-6.885-1.112-20.922 0-20.922 0v-98.781c37.65-21.854 70.113-38.21 111.305-50.504 39.548-11.41 83.43-17.092 127.683-18.125 44.254 1.033 88.135 6.716 127.684 18.125 41.192 12.294 73.655 28.65 111.305 50.504v98.781s-14.038-1.112-20.922 0c-11.89 2.128-20.725 7.577-30.506 14.791 7.829 10.459 13.899 21.77 19.582 33.531l55.568 45.356-54.814 45.652c-6.67 11.688-13.555 23.247-20.545 34.746 9.128 7.99 18.893 11.544 30.715 14.791h20.922v18.067c-19.052 34.059-51.416 80.635-84.725 110.23-45.617 40.53-69.178 64.546-154.264 89.262-85.085-24.716-108.647-48.732-154.263-89.262" style="display:inline;opacity:1;fill:#000;fill-opacity:1;stroke:none;stroke-width:1.00157;stroke-linecap:butt;stroke-linejoin:miter;stroke-miterlimit:4;stroke-dasharray:none;stroke-opacity:1" transform="matrix(.26458 0 0 .26458 -177.443 -20.584)"/><path d="M301.703 121.141c-3.707-.945-8.08-3.214-11.15-6.614 3.271-4.383 6.87-10.736 9.788-16.574l10.211-8.312-10.21-8.313c-3.047-6.262-5.626-10.59-9.79-16.574 3.912-3.423 7.398-5.478 12.757-6.357v-15.97c-17.793-9.68-34.29-14.646-56.357-14.646-22.068 0-38.564 4.966-56.357 14.647v15.97c5.359.878 8.845 2.933 12.756 6.356-4.163 5.984-6.742 10.312-9.788 16.574l-10.211 8.313 10.21 8.312c2.918 5.838 6.518 12.191 9.79 16.574-3.07 3.4-7.445 5.67-11.151 6.614 14.486 21.755 31.078 36.69 54.75 44.29 23.674-7.6 40.266-22.535 54.752-44.29" style="display:inline;opacity:1;fill:#fff;fill-opacity:1;stroke:none;stroke-width:.264583px;stroke-linecap:butt;stroke-linejoin:miter;stroke-opacity:1" transform="translate(-177.443 -20.584)"/><path d="M276.385 94.22c-3.036 10.225-7.413 16.913-16.342 23.379 2.545 7.188 6.912 13.079 13.222 17.773v-7.484c9.636-10.103 18.103-19.99 24.196-33.141l6.548-4.944-6.548-4.945c-6.093-13.15-14.56-23.038-24.196-33.141v-7.484c-6.31 4.695-10.677 10.585-13.222 17.774 8.929 6.466 13.306 13.153 16.342 23.378-14.433-.131-23.926-6.935-29.433-19.904-5.507 12.969-15 19.773-29.434 19.904 3.036-10.225 7.414-16.912 16.343-23.378-2.546-7.19-6.913-13.08-13.222-17.774v7.484c-9.637 10.103-18.104 19.99-24.196 33.141l-6.548 4.945 6.548 4.944c6.092 13.15 14.56 23.038 24.196 33.141v7.484c6.31-4.694 10.676-10.585 13.222-17.773-8.929-6.466-13.307-13.154-16.343-23.378 14.434.13 23.927 6.934 29.434 19.903 5.507-12.969 15-19.773 29.433-19.903" style="display:inline;opacity:1;fill:#000;fill-opacity:1;stroke:none;stroke-width:.264583px;stroke-linecap:butt;stroke-linejoin:miter;stroke-opacity:1" transform="translate(-177.443 -20.584)"/></g></svg>