<svg xmlns="http://www.w3.org/2000/svg" width="313.786" height="313.785"><g transform="translate(-.107 -.108)"><path d="M75.018 82.089.107 157l74.911 74.911 7.071 7.071 74.91 74.911L313.893 157 156.999.108l-74.91 74.91Z"/><linearGradient id="a" x1="-1575.785" x2="-1510.227" y1="1579.193" y2="1513.635" gradientTransform="rotate(-134.999 -1025.264 518.057)" gradientUnits="userSpaceOnUse"><stop offset="0" style="stop-color:#f6b91d"/><stop offset=".5" style="stop-color:#bf331c"/><stop offset="1" style="stop-color:#f6b91d"/></linearGradient><path d="M82.089 89.161 14.25 157l67.839 67.839 28.241-28.241L70.732 157l39.598-39.598Z" style="fill:url(#a)"/><linearGradient id="b" x1="99.171" x2="205.111" y1="-587.198" y2="-693.138" gradientTransform="rotate(45.001 -693.373 -283.063)" gradientUnits="userSpaceOnUse"><stop offset="0" style="stop-color:#f6b91d"/><stop offset=".5" style="stop-color:#bf331c"/><stop offset="1" style="stop-color:#f6b91d"/></linearGradient><path d="M224.838 82.089 156.999 14.25 89.16 82.089l28.241 28.242 39.598-39.598 39.598 39.598z" style="fill:url(#b)"/><linearGradient id="c" x1="249.278" x2="314.837" y1="-603.365" y2="-668.924" gradientTransform="rotate(45.001 -693.373 -283.063)" gradientUnits="userSpaceOnUse"><stop offset="0" style="stop-color:#f6b91d"/><stop offset=".5" style="stop-color:#bf331c"/><stop offset="1" style="stop-color:#f6b91d"/></linearGradient><path d="m203.668 196.598 28.241 28.241L299.75 157l-67.841-67.839-28.241 28.241L243.266 157Z" style="fill:url(#c)"/><linearGradient id="d" x1="233.111" x2="339.052" y1="-453.258" y2="-559.198" gradientTransform="rotate(45.001 -693.373 -283.063)" gradientUnits="userSpaceOnUse"><stop offset="0" style="stop-color:#f6b91d"/><stop offset=".5" style="stop-color:#bf331c"/><stop offset="1" style="stop-color:#f6b91d"/></linearGradient><path d="M117.401 203.669 89.16 231.911l67.839 67.839 67.839-67.839-28.241-28.242-39.598 39.598z" style="fill:url(#d)"/><linearGradient id="e" x1="163.11" x2="275.11" y1="-517.198" y2="-629.198" gradientTransform="rotate(45.001 -693.373 -283.063)" gradientUnits="userSpaceOnUse"><stop offset="0" style="stop-color:#f6b91d"/><stop offset=".5" style="stop-color:#bf331c"/><stop offset="1" style="stop-color:#f6b91d"/></linearGradient><path d="M156.999 229.125 229.123 157l-72.124-72.125L84.875 157Z" style="fill:url(#e)"/></g></svg>