<svg xmlns="http://www.w3.org/2000/svg" width="600" height="518.403"><radialGradient id="a" cx="0" cy="0" r="1" fx="0" fy="0" gradientTransform="matrix(19.05124 0 0 -19.05124 665.497 371.283)" gradientUnits="userSpaceOnUse" spreadMethod="pad"><stop offset="0" style="stop-color:#d9eaf3"/><stop offset=".663" style="stop-color:#99aebc"/><stop offset="1" style="stop-color:#536e78"/></radialGradient><path d="M487.973 301.426c9.966 20.71 13.361 27.747 22.019 45.71h-44.648c8.904-18.066 12.403-25.052 22.629-45.71m-139.114-83.022c1.66.855 3.28 1.309 5.055 2.682l5.52 4.459c16.045 13.102 37.416 29.717 70.97 41.148-7.996 15.293-12.403 23.652-23.536 44.803h-50.57c-1.879-23.276-5.223-64.697-7.439-93.092M221.941 283.1l2.126-4.51v-4.95c0-15.799-4.666-25.22-6.027-27.748 0 0-17.068-32.193-32.154-60.705 7.699.363 15.5.61 22.382.207 8.658-.506 18.624.714 27.23 2.23-1.31 24.857-4.9 93.403-6.377 121.047h-24.443c11.03-13.116 16.706-24.404 17.263-25.57m-110.368-92.898c9.967 20.71 13.362 27.747 22.071 45.71H88.997c8.903-18.067 12.403-25.052 22.576-45.71M274.028 25.778l-30.625 43.533v15.384C228.266 87.844 206.7 92.548 191.2 96.85c-9.007 2.476-19.946 1.011-28.797-1.218-1.983-6.636-5.418-14.075-11.742-20.697-6.688-6.999-18.844-15.293-38.841-15.293-19.687 0-31.792 8.203-38.362 15.033-13.57 14.023-14.736 32.4-14.736 38.272 0 .504.052 1.218.052 1.218 0 8.553 2.735 15.487 5.975 21.358-10.33 19.7-58.075 110.977-58.075 110.977C4.2 251.361 0 260.718 0 269.427c0 19.544 34.824 83.891 111.82 83.891 25.92 0 46.474-8.048 62.778-18.43.506 1.219 28.655 68.806 28.655 68.806h26.18v19.686h-39.387l-44.854 95.023H436.34l-39.593-95.023h-44.35v-19.686h30.43l.144-.454c13.426 26.373 47.395 62.014 106.622 62.014 78.525 0 107.634-69.764 108.787-72.706l1.62-4.044v-4.355c0-12.661-4.355-21.319-5.664-23.639 0 0-48.25-91.33-58.877-111.43 3.849-6.688 7.245-14.982 7.245-25.817 0-28.499-23.186-51.685-51.75-51.685-13.815 0-24.754 6.17-32.646 12.805-9.008-5.521-21.164-14.425-32.608-28.409-19.686-24.092-54.627-50.22-83.126-60.64V70.62L292.16 0z" style="fill:#fff"/><path d="m488.18 250.545-58.735 118.921H545.58zM111.82 139.32 53.097 258.243h116.084Zm292.418 225.233 58.774-111.884c-50.376-9.81-74.171-32.193-95.127-49.002-21.009-16.757-43.43-9.772-43.43-9.772l11.237 139.878h51.788l-19.595 47.59h-37.818v64.346h51.789l20.969 50.376H180.378l23.782-50.376h47.59v-64.346h-33.606l-20.97-50.376h53.163l8.398-160.887s-27.994-8.346-51.789-6.985c-23.742 1.374-60.134-4.2-60.134-4.2l51.736 97.914s3.137 5.612 3.137 16.81c0 0-26.931 57.348-89.866 57.348-62.92 0-89.554-53.15-89.554-61.56 0-4.55 4.212-12.598 4.212-12.598l64.386-123.12s-9.824-8.01-9.824-20.257c0-.104-1.36-31.493 30.78-31.493 32.154 0 30.78 30.78 30.78 30.78s29.368 12.61 54.576 5.573c25.168-6.985 68.545-15.332 68.545-15.332v-26.58l26.581-37.767 27.994 39.127v34.98c18.183 0 62.934 26.58 88.142 57.36 25.168 30.78 54.575 41.978 54.575 41.978s11.184-18.183 27.993-18.183c16.758 0 29.316 13.971 29.316 29.42 0 15.331-11.185 23.742-11.185 23.742l65.76 124.534s2.786 4.86 2.786 12.558c0 0-23.743 58.774-88.09 58.774-64.346 0-90.927-51.789-90.927-61.56 0-6.636 5.573-16.81 5.573-16.81" style="fill:#536e78"/><path d="M663.359 386.043v-2.309l-.41-.078c-.031-.004-3.347-.644-5.25-1.176a5.3 5.3 0 0 0-1.422-.183c-1.621 0-3.054.613-3.121.637l-.308.136.007.344c0 .008.024.836-.492 1.367-.308.324-.773.489-1.379.489-.597 0-1.058-.165-1.371-.489-.527-.543-.508-1.414-.508-1.441 0-.684.571-1.176.575-1.18l.308-.262-.183-.355-4.965-9.496c-.125-.246-.27-.609-.274-.731.063-.632 2.051-4.261 6.418-4.261 4.129 0 6.09 3.39 6.43 4.039-.016.621-.176.941-.184.945l-3.992 7.559-.465.879.985-.149c.019-.004 2.203-.336 3.926-.336.211 0 .418.004.605.016q.232.012.465.012c1.777 0 3.629-.547 3.707-.571l.379-.113-.024-.395-.648-12.414-.023-.476h-3.833l1.204-2.883h2.761v-5.969h-3.855l-1.363-2.883h15.625l-1.2 2.883h-4.164v5.969h3.078l1.102 2.668h-3.707l-.035.461-.871 10.797-.028.398.379.117c.043.016.45.133 1.047.133.703 0 1.754-.168 2.766-.972l.437-.36c1.532-1.242 3.266-2.652 6.684-3.32l.66-.129-.309-.594-4.543-8.644c-.156-.282-.371-.793-.371-1.055.028-.629 1.918-4.246 6.52-4.246 4.226 0 6.008 3.488 6.297 4.125-.02.387-.145.633-.153.641l-5.074 9.609-.195.375.336.258c.023.019.664.527.664 1.433 0 .856-.711 1.77-1.77 1.77-.992 0-1.722-1.153-1.73-1.168l-.219-.348-.383.149c-.097.035-2.422.937-4.422 3.386-1.918 2.34-5.253 4.243-6.414 4.243h-.504v3.043l-1.652 2.312zM646 372.391l4.535 9.175.453.918.446-.922 4.421-9.175.348-.719h-10.562zm29.035-8.582 4.535 9.171.457.918.442-.921 4.426-9.172.347-.719H674.68z" style="fill:url(#a)" transform="matrix(12.96007 0 0 -12.96007 -8324.928 5081.567)"/></svg>