<svg xmlns="http://www.w3.org/2000/svg" width="555.417" height="457.452"><path d="M465.915 211.91 407.18 330.832h116.135zM89.555 100.687 30.831 219.608h116.083ZM381.971 325.92l58.774-111.884c-50.376-9.811-74.17-32.193-95.127-49.002-21.008-16.758-43.429-9.772-43.429-9.772l11.236 139.878h51.789l-19.596 47.59h-37.817v64.346h51.788l20.97 50.376H158.113l23.782-50.376h47.589v-64.347h-33.605l-20.97-50.376h53.162l8.398-160.886s-27.993-8.346-51.788-6.986c-23.743 1.374-60.135-4.199-60.135-4.199l51.737 97.914s3.136 5.611 3.136 16.809c0 0-26.93 57.348-89.865 57.348C26.633 292.353 0 239.204 0 230.793c0-4.549 4.212-12.597 4.212-12.597l64.386-123.12s-9.824-8.01-9.824-20.257c0-.104-1.36-31.493 30.78-31.493 32.154 0 30.78 30.78 30.78 30.78s29.368 12.61 54.575 5.573c25.169-6.986 68.546-15.332 68.546-15.332V37.766L270.036 0l27.994 39.126v34.98c18.183 0 62.934 26.58 88.141 57.361 25.169 30.78 54.575 41.978 54.575 41.978s11.185-18.183 27.994-18.183c16.757 0 29.316 13.97 29.316 29.419 0 15.332-11.185 23.743-11.185 23.743l65.76 124.533s2.786 4.86 2.786 12.559c0 0-23.743 58.773-88.09 58.773S376.4 352.501 376.4 342.73c0-6.635 5.573-16.81 5.573-16.81"/></svg>