<svg xmlns="http://www.w3.org/2000/svg" width="600" height="581.339"><radialGradient id="a" cx="0" cy="0" r="1" fx="0" fy="0" gradientTransform="translate(303.583 290.632)scale(259.66596)" gradientUnits="userSpaceOnUse" spreadMethod="pad"><stop offset="0" style="stop-color:#bf99c3"/><stop offset=".663" style="stop-color:#7b5190"/><stop offset="1" style="stop-color:#612c75"/></radialGradient><path d="M7.209 142.33c-1.294 13.85-5.218 55.417-5.218 55.417C1.817 199.447 0 221.989 0 255.373c0 29.402 1.424 67.103 6.642 106.388C22.6 481.78 65.3 554.39 133.478 577.442c23.05 7.718 74.036 8.619 103.161-42.293l3.067-5.465c11.118-19.46 23.777-41.61 36.218-59.327 13.051-18.56 20.827-24.91 24.068-26.96 3.241 2.05 11.017 8.4 24.068 26.96 12.499 17.717 25.1 39.866 36.218 59.327l3.125 5.465c29.068 50.912 80.052 49.952 102.986 42.351 68.295-23.108 110.995-95.72 126.953-215.74 5.843-43.95 6.802-86.068 6.642-113.654l-4.49-119.002s-.902 1.017-.96 1.075c-1.25-1.875-7.558-11.35-7.558-11.35C583.793 114.002 506.241 0 302.143 0h-6.526C91.461 0 13.91 114.003 10.74 118.828Z" style="fill:#fff"/><path d="M465.997 383.329c40.418 0 56.943-15.551 57.452-33.21.742-23.617-26.916-50.301-64.036-50.301-58.644 0-101.344 69.326-101.344 69.326 22.6 8.618 66.376 14.185 78.86 14.185zm-295.734 0c12.5 0 56.319-5.567 78.86-14.185 0 0-42.685-69.326-101.343-69.326-37.12 0-64.778 26.684-64.036 50.301.567 17.659 17.033 33.21 57.452 33.21zm128.93-355.671c-191.541 0-261.768 106.445-261.768 106.445s21.277 48.936 100.021 53.194c0 0 63.876-63.876 163.912-63.876h2.267c100.037 0 163.898 63.876 163.898 63.876 78.686-4.258 99.978-53.194 99.978-53.194S497.274 27.658 305.733 27.658zm6.7 225.608c225.622 0 268.134-53.194 268.134-53.194s25.55 304.352-112.797 351.195c0 0-44.677 14.868-70.227-29.809-25.493-44.677-59.56-106.446-87.203-106.446h-.349c-27.643 0-61.71 61.77-87.26 106.446-25.537 44.677-70.228 29.809-70.228 29.809C7.616 504.424 33.166 200.072 33.166 200.072s42.57 53.194 268.192 53.194z" style="fill:#612c75"/><path d="M299.193 35.65c-164.188 0-237.7 80.678-252.35 99.136 6.642 10.784 29.809 40.07 87.595 44.284 13.517-12.266 75.01-63.6 166.92-63.6h2.268c91.854 0 153.404 51.334 166.848 63.6 57.86-4.214 80.968-33.5 87.61-44.284-14.65-18.458-88.118-99.135-252.35-99.135Zm6.7 225.624h-4.534c-166.63 0-235.55-29.126-261.158-45.477C37.425 277 34.867 505.223 148.463 543.651c.058 0 6.192 1.99 14.883 1.99 13.618 0 32.585-4.882 45.927-28.151l3.125-5.508c33.95-59.444 62.16-104.978 91.403-104.978 28.95 0 57.22 45.65 91.17 105.312l3.009 5.174c13.283 23.269 32.308 28.152 45.868 28.152 8.691 0 14.825-1.991 14.825-1.991 113.654-38.428 111.11-266.652 108.32-327.854-25.608 16.35-94.528 45.477-261.1 45.477m49.343 115.354-9.026-3.4 5.043-8.241c1.875-3.009 45.767-73.178 108.161-73.178 21.743 0 42.41 8.4 56.536 22.993 10.392 10.74 15.9 23.34 15.508 35.55-.29 9.65-5.9 40.985-65.46 40.985H436.93c-13.167 0-57.743-5.567-81.694-14.709m-279.5-26.277c-.392-12.208 5.116-24.809 15.508-35.55 14.127-14.591 34.736-22.992 56.536-22.992 62.394 0 106.344 70.17 108.16 73.178l5.044 8.24-9.025 3.401c-23.952 9.142-68.527 14.709-81.695 14.709h-29.068c-59.545 0-65.111-31.335-65.46-40.986" style="fill:url(#a);stroke-width:14.5338"/></svg>