<?xml version="1.0" encoding="UTF-8" standalone="no"?>
<!-- Generator: Adobe Illustrator 15.1.0, SVG Export Plug-In . SVG Version: 6.00 Build 0)  -->

<svg
   version="1.1"
   id="Layer_1"
   x="0px"
   y="0px"
   width="144"
   height="118.102"
   viewBox="0 0 144 118.102"
   enable-background="new 0 0 150 130"
   xml:space="preserve"
   xmlns="http://www.w3.org/2000/svg"
   xmlns:svg="http://www.w3.org/2000/svg"><defs
   id="defs2" />
<g
   id="Layer_1_1_"
   transform="translate(-3.402,-5.723)">
</g>
<g
   id="Layer_3"
   display="none"
   transform="translate(-3.402,-5.723)">
</g>
<g
   id="g2"
   transform="translate(-3.402,-5.723)">
	<path
   fill="#5d5e61"
   d="m 89.293,123.823 c -26.165,-10e-4 -51.614,-10.779 -69.822,-29.57 -1.063,-1.097 -1.647,-2.57 -1.606,-4.044 0.038,-1.382 0.606,-2.65 1.6,-3.569 l 6.497,-6.059 c 0.964,-0.891 2.21,-1.377 3.519,-1.377 1.138,0 2.255,0.376 3.17,1.051 1.677,-2.681 4.191,-5.565 7.923,-7.776 l -37.172,-9.604 57.007,10e-4 2.813,-7.73 C 64.65,51.222 64.058,50.616 61.209,47.71 59.478,45.942 57.323,43.743 55.396,40.289 52.329,34.789 52.03,29.52 52.603,25.434 50.089,25.282 48.006,23.383 47.691,20.898 l -1.086,-8.845 c -0.167,-1.331 0.212,-2.667 1.073,-3.751 0.917,-1.155 2.312,-1.906 3.828,-2.063 3.313,-0.343 6.678,-0.516 10.005,-0.516 26.164,0 51.614,10.778 69.823,29.57 1.06,1.093 1.646,2.566 1.605,4.04 -0.036,1.384 -0.604,2.652 -1.598,3.573 l -6.498,6.06 c -0.964,0.892 -2.209,1.377 -3.518,1.377 -1.14,0 -2.256,-0.375 -3.172,-1.052 -1.676,2.682 -4.191,5.566 -7.923,7.777 l 37.172,9.604 -57.009,-0.002 -2.813,7.729 c -1.429,3.925 -0.835,4.529 2.014,7.437 1.731,1.768 3.888,3.967 5.813,7.422 3.068,5.5 3.366,10.769 2.792,14.855 2.517,0.153 4.6,2.052 4.915,4.537 l 1.085,8.845 c 0.168,1.33 -0.212,2.668 -1.074,3.751 -0.917,1.154 -2.312,1.906 -3.828,2.063 -3.31,0.343 -6.675,0.516 -9.999,0.516 -0.003,-0.002 -0.004,-0.002 -0.005,-0.002 z"
   id="path1" />
	<path
   d="m 100.518,117.945 c -0.36,-2.942 -0.722,-5.888 -1.083,-8.831 -0.104,-0.813 -0.882,-1.384 -1.738,-1.296 -1.442,0.149 -2.882,0.255 -4.322,0.327 1.354,-3.617 2.68,-10.117 -1.205,-17.084 C 87.352,82.419 80.674,82.537 84.098,73.13 l 2.383,-6.547 -53.905,-0.001 22.214,5.739 c -2.496,0.263 -5.485,0.424 -9.129,1.813 -7.455,2.838 -10.616,8.67 -11.905,12.311 -1.056,-0.98 -2.092,-1.987 -3.1,-3.028 -0.599,-0.619 -1.563,-0.68 -2.164,-0.124 -2.169,2.022 -4.338,4.045 -6.508,6.068 -0.601,0.556 -0.539,1.599 0.152,2.312 19.954,20.594 48.26,30.896 76.783,27.946 0.986,-0.101 1.702,-0.86 1.599,-1.674 z M 56.935,92.839 c -7.974,6.369 -15.567,-0.108 -15.567,-0.108 1.765,-6.92 7.123,-10.871 15.077,-11.54 9.627,-0.809 12.8,-7.177 12.8,-7.177 -3.037,9.245 -5.133,13.09 -12.31,18.825 z m 26.567,15.227 c 0,0 -9.98,0.08 -11.994,-9.924 -1.813,-9.006 -0.946,-13.298 2.671,-22.333 0,0 -1.664,6.918 5.191,13.726 5.664,5.624 7.228,12.095 4.132,18.531 z M 117.05,43.099 c 1.056,0.981 2.091,1.989 3.101,3.029 0.599,0.618 1.562,0.681 2.163,0.124 2.17,-2.022 4.339,-4.045 6.508,-6.068 0.601,-0.556 0.54,-1.598 -0.151,-2.312 C 108.718,17.28 80.409,6.977 51.888,9.926 50.9,10.028 50.182,10.787 50.285,11.6 c 0.361,2.943 0.723,5.887 1.084,8.831 0.103,0.813 0.881,1.386 1.737,1.296 1.441,-0.15 2.883,-0.255 4.322,-0.328 -1.353,3.618 -2.679,10.118 1.206,17.084 4.819,8.642 11.496,8.525 8.072,17.931 l -2.383,6.548 h 53.906 L 96.015,57.223 c 2.495,-0.262 5.484,-0.424 9.129,-1.812 7.455,-2.839 10.616,-8.67 11.906,-12.312 z m -14.86,1.604 C 100.057,45.618 89.86,42.938 86.361,41.664 L 80.748,39.62 c -3.499,-1.272 -11.92,-5.37 -12.966,-7.442 -2.421,-4.801 -0.773,-7.105 -0.031,-9.142 0.117,-0.322 0.358,-0.823 0.683,-1.44 14.405,1.228 28.236,6.262 40.06,14.58 -0.149,0.682 -0.287,1.221 -0.403,1.543 -0.741,2.036 -0.96,4.862 -5.901,6.984 z"
   id="path2" />
</g>
</svg>
