<?xml version="1.0" encoding="UTF-8" standalone="no"?>
<!-- Generator: Adobe Illustrator 15.1.0, SVG Export Plug-In . SVG Version: 6.00 Build 0)  -->

<svg
   version="1.1"
   id="Layer_1"
   x="0px"
   y="0px"
   width="143.998"
   height="118.103"
   viewBox="0 0 143.998 118.103"
   enable-background="new 0 0 150 130"
   xml:space="preserve"
   xmlns="http://www.w3.org/2000/svg"
   xmlns:svg="http://www.w3.org/2000/svg"><defs
   id="defs15" />
<g
   id="Layer_1_1_"
   transform="translate(-2.729,-5.722)">
</g>
<g
   id="Layer_3"
   display="none"
   transform="translate(-2.729,-5.722)">
</g>
<g
   id="g15"
   transform="translate(-2.729,-5.722)">
	<path
   d="M 88.621,123.824 C 62.456,123.822 37.007,113.045 18.799,94.253 c -1.062,-1.097 -1.647,-2.57 -1.607,-4.044 0.039,-1.382 0.606,-2.65 1.6,-3.569 l 6.497,-6.059 c 0.964,-0.891 2.21,-1.377 3.519,-1.377 1.138,0 2.256,0.376 3.17,1.052 1.676,-2.682 4.191,-5.566 7.923,-7.777 l -37.172,-9.604 57.008,10e-4 2.813,-7.73 c 1.429,-3.924 0.836,-4.53 -2.013,-7.436 -1.731,-1.768 -3.887,-3.967 -5.813,-7.421 -3.067,-5.5 -3.366,-10.769 -2.793,-14.856 -2.513,-0.152 -4.597,-2.051 -4.913,-4.536 l -1.085,-8.845 c -0.168,-1.331 0.212,-2.667 1.072,-3.751 0.916,-1.154 2.312,-1.906 3.828,-2.063 3.312,-0.343 6.678,-0.516 10.005,-0.516 26.164,0 51.612,10.778 69.822,29.57 1.06,1.093 1.646,2.566 1.605,4.04 -0.036,1.384 -0.604,2.652 -1.598,3.573 l -6.499,6.06 c -0.964,0.892 -2.209,1.377 -3.518,1.377 -1.138,0 -2.256,-0.376 -3.171,-1.052 -1.676,2.682 -4.192,5.566 -7.924,7.777 l 37.172,9.604 -57.007,-0.002 -2.813,7.729 c -1.429,3.925 -0.835,4.529 2.015,7.437 1.73,1.768 3.887,3.967 5.813,7.423 3.066,5.499 3.364,10.768 2.79,14.854 2.517,0.153 4.6,2.052 4.915,4.537 l 1.085,8.845 c 0.168,1.33 -0.212,2.668 -1.074,3.752 -0.917,1.154 -2.312,1.906 -3.828,2.062 -3.309,0.343 -6.674,0.517 -9.998,0.517 -0.002,-0.001 -0.003,-0.001 -0.004,-0.001 z"
   id="path1" />
	<linearGradient
   id="SVGID_1_"
   gradientUnits="userSpaceOnUse"
   x1="35.331501"
   y1="50.433102"
   x2="114.1272"
   y2="79.112396">
		<stop
   offset="0"
   style="stop-color:#8D742F"
   id="stop1" />
		<stop
   offset="0.0689"
   style="stop-color:#967D38"
   id="stop2" />
		<stop
   offset="0.1809"
   style="stop-color:#AE954F"
   id="stop3" />
		<stop
   offset="0.2"
   style="stop-color:#B39A54"
   id="stop4" />
		<stop
   offset="0.2218"
   style="stop-color:#B9A059"
   id="stop5" />
		<stop
   offset="0.3022"
   style="stop-color:#CAB068"
   id="stop6" />
		<stop
   offset="0.3903"
   style="stop-color:#D4BA71"
   id="stop7" />
		<stop
   offset="0.5"
   style="stop-color:#D7BD74"
   id="stop8" />
		<stop
   offset="0.6097"
   style="stop-color:#D4BA71"
   id="stop9" />
		<stop
   offset="0.6978"
   style="stop-color:#CAB068"
   id="stop10" />
		<stop
   offset="0.7782"
   style="stop-color:#B9A059"
   id="stop11" />
		<stop
   offset="0.8"
   style="stop-color:#B39A54"
   id="stop12" />
		<stop
   offset="0.8571"
   style="stop-color:#A38A45"
   id="stop13" />
		<stop
   offset="0.938"
   style="stop-color:#937A35"
   id="stop14" />
		<stop
   offset="1"
   style="stop-color:#8D742F"
   id="stop15" />
	</linearGradient>
	<path
   fill="url(#SVGID_1_)"
   d="m 99.846,117.946 c -0.36,-2.943 -0.723,-5.888 -1.084,-8.832 -0.104,-0.813 -0.882,-1.384 -1.738,-1.295 -1.441,0.148 -2.881,0.255 -4.321,0.327 1.354,-3.618 2.68,-10.118 -1.205,-17.084 C 86.68,82.419 80.002,82.537 83.426,73.13 l 2.383,-6.547 -53.906,-0.001 22.214,5.739 c -2.496,0.263 -5.485,0.424 -9.128,1.813 -7.455,2.839 -10.617,8.67 -11.906,12.311 -1.057,-0.98 -2.091,-1.987 -3.1,-3.028 -0.599,-0.619 -1.563,-0.68 -2.164,-0.124 -2.169,2.022 -4.338,4.045 -6.508,6.068 -0.601,0.556 -0.539,1.599 0.152,2.312 19.954,20.594 48.261,30.896 76.783,27.946 0.986,-0.1 1.702,-0.86 1.6,-1.673 z M 56.263,92.839 C 48.288,99.208 40.696,92.731 40.696,92.731 42.46,85.812 47.818,81.86 55.772,81.192 c 9.627,-0.81 12.801,-7.178 12.801,-7.178 -3.038,9.245 -5.133,13.09 -12.31,18.825 z m 26.567,15.227 c 0,0 -9.98,0.081 -11.994,-9.924 -1.813,-9.005 -0.946,-13.298 2.671,-22.333 0,0 -1.664,6.918 5.191,13.727 5.664,5.624 7.228,12.095 4.132,18.53 z m 33.546,-64.967 c 1.056,0.981 2.091,1.989 3.102,3.029 0.599,0.618 1.562,0.681 2.164,0.124 2.169,-2.022 4.339,-4.045 6.506,-6.068 0.603,-0.556 0.54,-1.599 -0.149,-2.312 C 108.044,17.279 79.737,6.976 51.215,9.926 c -0.987,0.101 -1.705,0.86 -1.602,1.674 0.362,2.942 0.723,5.886 1.084,8.83 0.104,0.813 0.88,1.386 1.737,1.297 1.442,-0.15 2.883,-0.255 4.322,-0.328 -1.353,3.618 -2.679,10.117 1.206,17.084 4.818,8.642 11.497,8.525 8.073,17.931 l -2.383,6.548 h 53.904 L 95.345,57.223 c 2.494,-0.262 5.483,-0.424 9.127,-1.812 7.453,-2.839 10.614,-8.67 11.904,-12.312 z m -14.858,1.603 C 99.386,45.617 89.189,42.938 85.69,41.664 L 80.077,39.62 c -3.499,-1.272 -11.92,-5.37 -12.966,-7.442 -2.421,-4.801 -0.772,-7.105 -0.032,-9.143 0.117,-0.322 0.358,-0.823 0.683,-1.44 14.405,1.227 28.236,6.262 40.059,14.58 -0.147,0.682 -0.286,1.221 -0.402,1.543 -0.742,2.037 -0.962,4.863 -5.901,6.984 z"
   id="path15"
   style="fill:url(#SVGID_1_)" />
</g>
</svg>
