<?xml version="1.0" encoding="UTF-8" standalone="no"?>
<!-- Generator: Adobe Illustrator 15.1.0, SVG Export Plug-In . SVG Version: 6.00 Build 0)  -->

<svg
   version="1.1"
   id="Layer_1"
   x="0px"
   y="0px"
   width="143.998"
   height="118.103"
   viewBox="0 0 143.998 118.103"
   enable-background="new 0 0 150 130"
   xml:space="preserve"
   xmlns="http://www.w3.org/2000/svg"
   xmlns:svg="http://www.w3.org/2000/svg"><defs
   id="defs17" />
<g
   id="Layer_1_1_"
   transform="translate(-3.057,-5.723)">
</g>
<g
   id="Layer_3"
   display="none"
   transform="translate(-3.057,-5.723)">
</g>
<g
   id="g17"
   transform="translate(-3.057,-5.723)">
	<path
   fill="#ffffff"
   d="m 88.948,123.824 c -26.165,-0.002 -51.614,-10.78 -69.822,-29.571 -1.063,-1.097 -1.647,-2.57 -1.606,-4.044 0.038,-1.382 0.605,-2.65 1.599,-3.569 l 6.497,-6.059 c 0.964,-0.891 2.21,-1.377 3.52,-1.377 1.138,0 2.254,0.376 3.169,1.051 1.677,-2.681 4.191,-5.565 7.923,-7.776 l -37.171,-9.604 57.007,10e-4 2.814,-7.73 c 1.428,-3.924 0.835,-4.53 -2.014,-7.436 -1.731,-1.768 -3.887,-3.966 -5.813,-7.421 -3.067,-5.5 -3.366,-10.769 -2.794,-14.855 -2.513,-0.152 -4.596,-2.051 -4.912,-4.536 l -1.086,-8.845 c -0.167,-1.332 0.212,-2.667 1.073,-3.751 0.917,-1.154 2.312,-1.906 3.828,-2.063 3.312,-0.343 6.678,-0.516 10.005,-0.516 26.164,0 51.613,10.777 69.823,29.57 1.059,1.093 1.646,2.566 1.604,4.04 -0.035,1.384 -0.604,2.652 -1.598,3.573 l -6.498,6.06 c -0.964,0.892 -2.209,1.377 -3.518,1.377 -1.139,0 -2.256,-0.375 -3.171,-1.052 -1.677,2.682 -4.192,5.566 -7.924,7.777 l 37.172,9.604 -57.008,-0.002 -2.813,7.729 c -1.429,3.925 -0.835,4.529 2.014,7.437 1.731,1.768 3.888,3.967 5.813,7.422 3.067,5.5 3.365,10.769 2.791,14.855 2.517,0.153 4.6,2.052 4.915,4.537 l 1.085,8.845 c 0.169,1.33 -0.212,2.668 -1.074,3.752 -0.917,1.153 -2.312,1.905 -3.828,2.062 -3.309,0.343 -6.674,0.517 -9.998,0.517 -0.002,-0.002 -0.003,-0.002 -0.004,-0.002 z"
   id="path1" />
	<linearGradient
   id="SVGID_1_"
   gradientUnits="userSpaceOnUse"
   x1="35.659698"
   y1="50.433102"
   x2="114.4534"
   y2="79.111702">
		<stop
   offset="0"
   style="stop-color:#612C75"
   id="stop1" />
		<stop
   offset="0.0703"
   style="stop-color:#67357C"
   id="stop2" />
		<stop
   offset="0.1845"
   style="stop-color:#784D8D"
   id="stop3" />
		<stop
   offset="0.2"
   style="stop-color:#7B5190"
   id="stop4" />
		<stop
   offset="0.2344"
   style="stop-color:#8C639D"
   id="stop5" />
		<stop
   offset="0.2911"
   style="stop-color:#A37BAE"
   id="stop6" />
		<stop
   offset="0.3516"
   style="stop-color:#B38CBA"
   id="stop7" />
		<stop
   offset="0.4177"
   style="stop-color:#BC96C1"
   id="stop8" />
		<stop
   offset="0.5"
   style="stop-color:#BF99C3"
   id="stop9" />
		<stop
   offset="0.5823"
   style="stop-color:#BC96C1"
   id="stop10" />
		<stop
   offset="0.6484"
   style="stop-color:#B38CBA"
   id="stop11" />
		<stop
   offset="0.7089"
   style="stop-color:#A37BAE"
   id="stop12" />
		<stop
   offset="0.7656"
   style="stop-color:#8C639D"
   id="stop13" />
		<stop
   offset="0.8"
   style="stop-color:#7B5190"
   id="stop14" />
		<stop
   offset="0.8547"
   style="stop-color:#714285"
   id="stop15" />
		<stop
   offset="0.937"
   style="stop-color:#653279"
   id="stop16" />
		<stop
   offset="1"
   style="stop-color:#612C75"
   id="stop17" />
	</linearGradient>
	<path
   fill="url(#SVGID_1_)"
   d="m 100.172,117.945 c -0.359,-2.942 -0.722,-5.887 -1.083,-8.831 -0.104,-0.813 -0.882,-1.384 -1.738,-1.296 -1.441,0.149 -2.881,0.256 -4.321,0.327 1.354,-3.617 2.68,-10.117 -1.205,-17.084 C 87.007,82.419 80.329,82.537 83.753,73.13 l 2.383,-6.547 H 32.23 l 22.213,5.739 c -2.496,0.263 -5.484,0.424 -9.128,1.813 -7.454,2.838 -10.615,8.67 -11.905,12.311 -1.056,-0.98 -2.092,-1.987 -3.101,-3.028 -0.599,-0.619 -1.563,-0.68 -2.164,-0.124 -2.169,2.022 -4.338,4.045 -6.507,6.068 -0.602,0.556 -0.54,1.599 0.151,2.312 19.954,20.594 48.26,30.896 76.782,27.946 0.989,-0.102 1.704,-0.861 1.601,-1.675 z M 56.59,92.839 c -7.975,6.369 -15.567,-0.108 -15.567,-0.108 1.766,-6.92 7.122,-10.871 15.076,-11.539 9.627,-0.81 12.8,-7.178 12.8,-7.178 -3.036,9.245 -5.132,13.09 -12.309,18.825 z m 26.567,15.227 c 0,0 -9.98,0.08 -11.994,-9.924 -1.813,-9.006 -0.946,-13.298 2.671,-22.333 0,0 -1.664,6.918 5.191,13.726 5.664,5.625 7.228,12.095 4.132,18.531 z m 33.547,-64.967 c 1.056,0.981 2.091,1.989 3.102,3.029 0.598,0.618 1.562,0.681 2.163,0.124 2.17,-2.022 4.339,-4.045 6.507,-6.068 0.602,-0.556 0.54,-1.598 -0.15,-2.312 C 108.372,17.28 80.064,6.977 51.542,9.926 c -0.987,0.102 -1.705,0.861 -1.602,1.674 0.361,2.942 0.722,5.887 1.084,8.831 0.103,0.813 0.881,1.386 1.738,1.296 1.441,-0.15 2.882,-0.255 4.321,-0.328 -1.353,3.618 -2.679,10.118 1.207,17.084 4.819,8.642 11.496,8.525 8.072,17.931 l -2.383,6.548 53.905,10e-4 -22.213,-5.74 c 2.495,-0.262 5.483,-0.424 9.129,-1.812 7.453,-2.839 10.614,-8.67 11.904,-12.312 z m -14.859,1.604 C 99.713,45.618 89.516,42.938 86.017,41.664 L 80.404,39.62 c -3.499,-1.272 -11.92,-5.37 -12.966,-7.442 -2.421,-4.801 -0.772,-7.105 -0.032,-9.142 0.117,-0.322 0.358,-0.823 0.684,-1.44 14.405,1.228 28.236,6.262 40.059,14.58 -0.148,0.682 -0.287,1.221 -0.403,1.543 -0.741,2.036 -0.961,4.862 -5.901,6.984 z"
   id="path17"
   style="fill:url(#SVGID_1_)" />
</g>
</svg>
