<?xml version="1.0" encoding="UTF-8" standalone="no"?>
<!-- Generator: Adobe Illustrator 15.1.0, SVG Export Plug-In . SVG Version: 6.00 Build 0)  -->

<svg
   version="1.1"
   id="Layer_1"
   x="0px"
   y="0px"
   width="143.99899"
   height="118.104"
   viewBox="0 0 143.99899 118.104"
   enable-background="new 0 0 150 130"
   xml:space="preserve"
   xmlns="http://www.w3.org/2000/svg"
   xmlns:svg="http://www.w3.org/2000/svg"><defs
   id="defs17" />
<g
   id="Layer_1_1_"
   transform="translate(-3.011,-6.194)">
</g>
<g
   id="Layer_3"
   display="none"
   transform="translate(-3.011,-6.194)">
</g>
<g
   id="g17"
   transform="translate(-3.011,-6.194)">
	<path
   d="m 88.903,124.297 c -26.165,-10e-4 -51.614,-10.779 -69.822,-29.57 -1.063,-1.097 -1.647,-2.57 -1.606,-4.044 0.038,-1.382 0.605,-2.651 1.599,-3.57 l 6.497,-6.058 c 0.964,-0.891 2.21,-1.377 3.52,-1.377 1.138,0 2.254,0.375 3.169,1.05 1.677,-2.681 4.191,-5.564 7.923,-7.775 L 3.011,63.349 H 60.018 L 62.832,55.62 C 64.26,51.696 63.667,51.09 60.818,48.184 59.087,46.416 56.931,44.217 55.005,40.763 51.938,35.262 51.639,29.993 52.211,25.908 49.698,25.756 47.615,23.857 47.299,21.372 L 46.213,12.526 C 46.046,11.194 46.425,9.859 47.286,8.776 48.205,7.62 49.6,6.868 51.115,6.71 54.428,6.367 57.793,6.194 61.12,6.194 c 26.165,0 51.614,10.777 69.823,29.571 1.059,1.093 1.646,2.565 1.606,4.039 -0.037,1.384 -0.605,2.653 -1.6,3.574 l -6.498,6.06 c -0.962,0.891 -2.209,1.376 -3.518,1.376 -1.139,0 -2.256,-0.375 -3.171,-1.052 -1.677,2.683 -4.19,5.567 -7.924,7.778 l 37.172,9.604 -57.008,-0.002 -2.814,7.73 c -1.427,3.925 -0.834,4.528 2.014,7.437 1.733,1.767 3.888,3.966 5.813,7.421 3.068,5.5 3.366,10.769 2.794,14.856 2.515,0.153 4.598,2.051 4.913,4.537 l 1.085,8.845 c 0.169,1.329 -0.212,2.668 -1.072,3.751 -0.917,1.153 -2.313,1.905 -3.83,2.062 -3.31,0.343 -6.674,0.517 -9.998,0.517 -0.002,-0.001 -0.004,-0.001 -0.004,-0.001 z"
   id="path1" />
	<linearGradient
   id="SVGID_1_"
   gradientUnits="userSpaceOnUse"
   x1="35.6143"
   y1="50.9058"
   x2="114.4099"
   y2="79.584999">
		<stop
   offset="0"
   style="stop-color:#626E77"
   id="stop1" />
		<stop
   offset="0.0418"
   style="stop-color:#697780"
   id="stop2" />
		<stop
   offset="0.1099"
   style="stop-color:#7D8E98"
   id="stop3" />
		<stop
   offset="0.1954"
   style="stop-color:#9EB4C0"
   id="stop4" />
		<stop
   offset="0.2"
   style="stop-color:#A0B6C2"
   id="stop5" />
		<stop
   offset="0.2041"
   style="stop-color:#A1B7C3"
   id="stop6" />
		<stop
   offset="0.2896"
   style="stop-color:#ADC6D4"
   id="stop7" />
		<stop
   offset="0.3832"
   style="stop-color:#B5CEDE"
   id="stop8" />
		<stop
   offset="0.5"
   style="stop-color:#B7D1E1"
   id="stop9" />
		<stop
   offset="0.6168"
   style="stop-color:#B5CEDE"
   id="stop10" />
		<stop
   offset="0.7104"
   style="stop-color:#ADC6D4"
   id="stop11" />
		<stop
   offset="0.7959"
   style="stop-color:#A1B7C3"
   id="stop12" />
		<stop
   offset="0.8"
   style="stop-color:#A0B6C2"
   id="stop13" />
		<stop
   offset="0.8463"
   style="stop-color:#8B9DA8"
   id="stop14" />
		<stop
   offset="0.9062"
   style="stop-color:#74838D"
   id="stop15" />
		<stop
   offset="0.9594"
   style="stop-color:#67747D"
   id="stop16" />
		<stop
   offset="1"
   style="stop-color:#626E77"
   id="stop17" />
	</linearGradient>
	<path
   fill="url(#SVGID_1_)"
   d="m 100.129,118.419 c -0.361,-2.943 -0.724,-5.888 -1.085,-8.831 -0.102,-0.813 -0.882,-1.384 -1.738,-1.296 -1.44,0.148 -2.882,0.255 -4.32,0.326 1.352,-3.616 2.678,-10.117 -1.207,-17.083 C 86.962,82.893 80.283,83.01 83.707,73.604 l 2.383,-6.547 -53.904,-0.002 22.213,5.739 c -2.496,0.263 -5.484,0.424 -9.128,1.813 -7.454,2.838 -10.615,8.67 -11.905,12.311 -1.056,-0.98 -2.092,-1.987 -3.1,-3.029 -0.599,-0.619 -1.563,-0.679 -2.164,-0.124 -2.169,2.023 -4.338,4.046 -6.507,6.069 -0.602,0.555 -0.54,1.598 0.151,2.312 19.954,20.594 48.26,30.895 76.783,27.945 0.986,-0.101 1.701,-0.86 1.6,-1.672 z M 56.544,93.312 c -7.975,6.369 -15.567,-0.107 -15.567,-0.107 1.766,-6.921 7.123,-10.871 15.076,-11.54 9.628,-0.809 12.8,-7.178 12.8,-7.178 -3.035,9.244 -5.131,13.09 -12.309,18.825 z m 26.567,15.228 c 0,0 -9.98,0.08 -11.994,-9.925 -1.813,-9.006 -0.946,-13.297 2.671,-22.333 0,0 -1.663,6.919 5.193,13.727 5.663,5.624 7.228,12.094 4.13,18.531 z m 33.548,-64.967 c 1.058,0.981 2.091,1.988 3.102,3.028 0.6,0.619 1.562,0.681 2.163,0.124 2.17,-2.021 4.339,-4.044 6.509,-6.067 0.6,-0.557 0.54,-1.599 -0.152,-2.312 C 108.327,17.752 80.02,7.449 51.497,10.398 c -0.987,0.102 -1.705,0.861 -1.602,1.674 0.361,2.942 0.722,5.888 1.084,8.832 0.103,0.812 0.881,1.386 1.738,1.295 1.441,-0.15 2.882,-0.255 4.321,-0.328 -1.353,3.619 -2.679,10.118 1.207,17.085 4.819,8.642 11.496,8.524 8.072,17.931 l -2.383,6.548 h 53.907 l -22.216,-5.74 c 2.496,-0.262 5.486,-0.424 9.13,-1.811 7.455,-2.839 10.616,-8.67 11.904,-12.311 z m -14.857,1.603 C 99.668,46.091 89.47,43.411 85.971,42.136 l -5.613,-2.044 c -3.499,-1.271 -11.92,-5.37 -12.965,-7.442 -2.421,-4.8 -0.773,-7.104 -0.031,-9.142 0.116,-0.321 0.358,-0.823 0.683,-1.44 14.404,1.229 28.236,6.263 40.06,14.58 -0.148,0.683 -0.285,1.221 -0.403,1.543 -0.742,2.037 -0.962,4.863 -5.9,6.985 z"
   id="path17"
   style="fill:url(#SVGID_1_)" />
</g>
</svg>
