<svg xmlns="http://www.w3.org/2000/svg" width="299.998" height="297.599" viewBox="0 0 299.998 297.599"><path d="M299.89 244c-.42-5.76-1.14-10.26-1.74-10.86-.18-.18-13.99-.36-30.68-.42l-30.37-.12-6.3-6.3-6.3-6.31 4.5-5.1c22.21-24.85 35.89-54.26 41.24-88.54 1.74-11.1 1.86-33.85.3-45.32-2.77-19.57-9.67-41.24-17.95-56.12C249.35 19.09 236.98 0 236.5 0c-.18 0-30.07 21.37-66.33 47.48-36.31 26.11-66.63 47.9-67.41 48.44-1.38.9-1.68.66-17.17-14.77-10.32-10.32-16.14-15.72-16.92-15.72-1.62 0-3.24 1.8-3.24 3.6 0 1.08 3.96 5.46 15.66 17.16l15.67 15.67-35.6 48.86c-19.57 26.9-41.35 56.79-48.38 66.39C5.76 226.78 0 234.82 0 235c0 .9 10.2 7.62 19.81 12.97 30.61 17.1 51.26 22.75 83.13 22.75 19.21 0 32.6-1.92 49.52-7.03 23.95-7.2 43.1-18.06 64.71-36.55l2.64-2.22 6.85 6.84 6.84 6.78.12 28.57.18 28.52 4.5 1.08c6.06 1.44 18.13 1.08 24.49-.72 23.11-6.73 38.66-28.52 37.1-51.99M98.02 117.65c.72-2.16.72-2.4 1.74 35.35l.24 8.65-6-.36c-6.85-.42-8.77-.84-8.77-1.86 0-.66 10.93-36.38 12.79-41.78m-6.42 3.18c.12.06-2.46 8.58-5.65 18.91l-5.82 18.85-1.8-.36c-2.52-.54-10.62-4.45-10.38-5.05.3-.9 23.34-32.35 23.65-32.35M8.16 237.52c-1.14-.84.18-2.7 24.55-36.19 14.17-19.45 27.37-37.58 29.35-40.34 1.98-2.7 3.67-4.92 3.73-4.92.12 0 1.14.6 2.34 1.26 1.14.72 4.08 2.04 6.48 3 2.4.9 4.26 1.92 4.2 2.16-.24 1.2-29.59 95.8-29.77 96.04-.96.96-34.34-16.21-40.88-21.01m94.48 30.37-8.82-.36c-12.19-.54-24.73-2.52-34.88-5.58-4.74-1.44-5.04-1.62-4.68-2.94.66-2.64 29.29-94.84 29.59-95.32.18-.3 1.02-.36 1.92-.18.84.24 4.45.54 8.05.78l6.42.36v3.36c0 1.86.54 21.97 1.2 44.78.66 22.75 1.2 44.48 1.2 48.26zm165.49-150.72c-.42 6-2.7 19.39-4.68 27.19-1.44 5.52-5.1 17.05-5.82 18.19-.36.54-12.37-4.26-48.08-19.33-26.17-11.04-47.72-20.17-47.84-20.35-.18-.18.36-2.58 1.2-5.28.84-2.76 1.68-6.12 1.92-7.44.36-2.17.72-3.31 1.02-3.31.06 0 22.57 1.08 49.94 2.4 27.43 1.33 50.48 2.41 51.26 2.41h1.44zM123.11 104.8c2.76.18 12.55.66 21.73 1.08s16.87.96 17.05 1.2c.48.42-1.38 8.65-2.7 11.95-.6 1.62-1.2 2.22-1.86 2.04-1.08-.3-38.66-16.09-39.02-16.39-.12-.12 2.04-.06 4.8.12m38.12-18.91c.42-.06.84.3 1.02.78.54 1.45 1.2 12.19.84 13.69l-.36 1.38-21.31-1.02c-11.71-.54-21.85-1.08-22.51-1.2-1.08-.12 40.16-13.39 42.32-13.63m102.4-23.77c2.4 9.13 3.9 18.31 4.62 28.22.61 7.74.85 16.5.55 16.5-.13 0-22.57-1.08-50.01-2.4-27.37-1.32-50.42-2.4-51.14-2.4-1.32 0-1.38-.24-1.38-4.68 0-2.52-.3-6.36-.6-8.52-.3-2.11-.48-3.97-.36-4.03.48-.48 95.02-29.53 95.74-29.41.6.06 1.5 2.34 2.58 6.72m-65.91-26.23c21.85-15.72 39.74-28.63 39.86-28.63.1 0 2.6 3.7 5.58 8.16 3.01 4.57 7.27 12.07 9.55 16.69 4.14 8.52 7.62 17.47 7.08 18.07-.78.72-95.62 29.59-95.98 29.17-.18-.24-1.02-2.34-1.74-4.62-.78-2.34-1.98-5.58-2.7-7.2l-1.32-3zm-42.44 30.74c.06 0 .55.72 1.03 1.62 1.02 2.1 4.68 12.3 4.38 12.54-.3.3-42.64 13.33-43.39 13.33.82-.87 37.62-27.49 37.98-27.49m-22.87 49.46c10.51 4.38 20.17 8.46 21.49 9l2.29.96-1.93 3.42c-2.04 3.55-6.42 9.61-7.92 10.87-.66.54-4.02-2.52-17.65-16.21-9.18-9.24-16.44-16.69-16.08-16.51.36.24 9.24 4.03 19.8 8.47m-8.4 13.14 16.75 16.69-2.1 1.74c-2.58 2.16-11.95 7.81-12.91 7.81-.54 0-16.57-37.28-18.25-42.26-.12-.36 7.33 6.84 16.51 16.02m-19.87-10.92c.12.18 3.9 9.06 8.35 19.75l8.1 19.51-1.68.72c-1.8.78-13.39 3.24-13.69 2.94-.18-.18-1.32-34.52-1.38-40.22 0-1.62.12-2.82.3-2.7m51.26 141.3c-14.1 4.56-26.95 7.02-40.57 7.86l-6.67.42-.36-5.64c-.18-3.12-.72-22.15-1.26-42.26-.48-20.17-1.08-40.87-1.26-46.04l-.36-9.42 2.28-.36c1.32-.18 4.81-.96 7.75-1.74 3-.78 5.82-1.38 6.24-1.32.6.06 7.68 16.39 19.99 45.98 10.5 25.27 19.45 46.94 19.99 48.14l.9 2.22zm57.57-33.07c-5.1 4.74-13.93 11.28-22.33 16.62-6.36 3.97-20.11 11.05-22.63 11.65-1.5.36-1.68 0-21.49-47.72-10.98-26.47-19.93-48.14-19.81-48.26.12-.06 2.46-1.44 5.16-3.06 2.71-1.57 6.19-3.91 7.81-5.17 1.56-1.2 3-2.28 3.18-2.28.24 0 17.03 16.67 37.4 37.04l37.15 37.15zm-27.73-45.86c-20.35-20.29-36.98-37.16-36.98-37.4 0-.3 1.08-1.8 2.46-3.3 1.38-1.56 3.84-5.04 5.47-7.74l3-4.93 3.12 1.38c1.68.72 23.23 9.79 47.9 20.17 24.67 10.39 44.9 19.21 44.9 19.57 0 1.14-8.1 16.63-12.07 22.93-4.26 6.9-11.64 16.51-17.22 22.39l-3.67 3.84zm70.05 58.82c6.18 0 11.22.24 11.22.48 0 .84-4.44 7.69-6.72 10.39l-2.22 2.64-6.78-6.78-6.79-6.73zm-15.19 5.7 6 6.01c5.47 5.46 5.95 6.06 4.99 6.78-1.74 1.32-8.17 4.74-9.61 5.22l-1.38.36zm8.77 49.41c-1.98.12-4.81 0-6.19-.18l-2.58-.36v-26.96l1.98-.84c1.02-.42 2.04-.66 2.22-.54.18.18 2.11 6.67 4.27 14.47l4.02 14.23zm26.53-7.81c-2.1 1.32-5.34 3.12-7.21 3.96-3.66 1.63-10.62 3.61-11.1 3.19-.12-.18-2.16-7.15-4.5-15.43-3.42-12.25-4.08-15.25-3.42-15.67.78-.42 5.04-3.36 5.04-3.48.06 0 5.68 5.62 12.48 12.43l12.49 12.54zm10.98-10.08-2.4 2.7-12.12-12.07-12.13-12.12 2.04-2.4 1.98-2.4 2.76 1.08c1.5.6 8.11 3.12 14.71 5.7s12.25 4.92 12.61 5.22c.84.72-4.45 10.87-7.45 14.29m9.31-18.79c-.18.18-27.62-10.32-28.64-10.98-.3-.18.3-1.93 1.26-3.91l1.81-3.54h26.29l.42 4.92c.3 4.15-.42 12.79-1.14 13.51"/><path d="M295.69 257.93c-.18.18-27.62-10.32-28.64-10.98-.3-.18.3-1.93 1.26-3.91l1.81-3.54h26.29l.42 4.92c.3 4.15-.42 12.79-1.14 13.51m-1.86 4.5c-.36-.3-6.01-2.64-12.61-5.22s-13.21-5.1-14.71-5.7l-2.76-1.08-1.98 2.4-2.04 2.4 12.13 12.12 12.12 12.07 2.4-2.7c3-3.42 8.29-13.57 7.45-14.29m-27.14 9.37c-6.8-6.81-12.42-12.43-12.48-12.43 0 .12-4.26 3.06-5.04 3.48-.66.42 0 3.42 3.42 15.67 2.34 8.28 4.38 15.25 4.5 15.43.48.42 7.44-1.56 11.1-3.19 1.87-.84 5.11-2.64 7.21-3.96l3.78-2.46zm-18.12 8.4c-2.16-7.8-4.09-14.29-4.27-14.47-.18-.12-1.2.12-2.22.54l-1.98.84v26.96l2.58.36c1.38.18 4.21.3 6.19.18l3.72-.18zm11.22-230.02c-.78.72-95.62 29.59-95.98 29.17-.18-.24-1.02-2.34-1.74-4.62-.78-2.34-1.98-5.58-2.7-7.2l-1.32-3 39.67-28.64c21.85-15.72 39.74-28.63 39.86-28.63.1 0 2.6 3.7 5.58 8.16 3.01 4.57 7.27 12.07 9.55 16.69 4.14 8.52 7.62 17.47 7.08 18.07m8.46 40.16c-.72-9.91-2.22-19.09-4.62-28.22-1.08-4.38-1.98-6.66-2.58-6.72-.72-.12-95.26 28.93-95.74 29.41-.12.06.06 1.92.36 4.03.3 2.16.6 6 .6 8.52 0 4.44.06 4.68 1.38 4.68.72 0 23.77 1.08 51.14 2.4 27.44 1.32 49.88 2.4 50.01 2.4.3 0 .06-8.76-.55-16.5m-1.2 21.31c-.78 0-23.83-1.08-51.26-2.41-27.37-1.32-49.88-2.4-49.94-2.4-.3 0-.66 1.14-1.02 3.31-.24 1.32-1.08 4.68-1.92 7.44-.84 2.7-1.38 5.1-1.2 5.28.12.18 21.67 9.31 47.84 20.35 35.71 15.07 47.72 19.87 48.08 19.33.72-1.14 4.38-12.67 5.82-18.19 1.98-7.8 4.26-21.19 4.68-27.19l.36-5.52zm-56.84 37.21c-24.67-10.38-46.22-19.45-47.9-20.17l-3.12-1.38-3 4.93c-1.63 2.7-4.09 6.18-5.47 7.74-1.38 1.5-2.46 3-2.46 3.3 0 .24 16.63 17.11 36.98 37.4l36.91 36.91 3.67-3.84c5.58-5.88 12.96-15.49 17.22-22.39 3.97-6.3 12.07-21.79 12.07-22.93 0-.36-20.23-9.18-44.9-19.57m-29.95 36.5c-20.37-20.37-37.16-37.04-37.4-37.04-.18 0-1.62 1.08-3.18 2.28-1.62 1.26-5.1 3.6-7.81 5.17-2.7 1.62-5.04 3-5.16 3.06-.12.12 8.83 21.79 19.81 48.26 19.81 47.72 19.99 48.08 21.49 47.72 2.52-.6 16.27-7.68 22.63-11.65 8.4-5.34 17.23-11.88 22.33-16.62l4.44-4.03zm-19.09 69.87c-.54-1.2-9.49-22.87-19.99-48.14-12.31-29.59-19.39-45.92-19.99-45.98-.42-.06-3.24.54-6.24 1.32-2.94.78-6.43 1.56-7.75 1.74l-2.28.36.36 9.42c.18 5.17.78 25.87 1.26 46.04.54 20.11 1.08 39.14 1.26 42.26l.36 5.64 6.67-.42c13.62-.84 26.47-3.3 40.57-7.86l6.67-2.16zm-59.73-42.44c-.66-22.81-1.2-42.92-1.2-44.78v-3.36l-6.42-.36c-3.6-.24-7.21-.54-8.05-.78-.9-.18-1.74-.12-1.92.18-.3.48-28.93 92.68-29.59 95.32-.36 1.32-.06 1.5 4.68 2.94 10.15 3.06 22.69 5.04 34.88 5.58l8.82.36v-6.84c0-3.78-.54-25.51-1.2-48.26m-26.83-52.46c-2.4-.96-5.34-2.28-6.48-3-1.2-.66-2.22-1.26-2.34-1.26-.06 0-1.75 2.22-3.73 4.92-1.98 2.76-15.18 20.89-29.35 40.34-24.37 33.49-25.69 35.35-24.55 36.19 6.54 4.8 39.92 21.97 40.88 21.01.18-.24 29.53-94.84 29.77-96.04.06-.24-1.8-1.26-4.2-2.16" style="fill:red"/></svg>