<svg xmlns="http://www.w3.org/2000/svg" width="546.616" height="230.472"><path d="m427.971 90.205-11.786-1.008 13.766 32.455c-58.97-37.368-114.99-17.708-114.99-17.708-5.894-23.601 1.008-56.02 1.008-56.02 59.924-28.477 151.323 6.902 151.323 6.902-29.495 19.624-39.32 35.38-39.32 35.38m-76.041 38.783-14.35-7.337c6.865-5.893 14.747-4.912 14.747-4.912zm-47.777 7.374C282.542 123.605 178.348 69.537 73.22 78.39c0 0 42.244-14.748 77.632-20.632 0 0-7.845-12.758-51.107-33.399 0 0 96.312.98 196.565 61.913 0 0 0 16.69 5.893 30.467 5.893 13.73 14.747 9.788 14.747 9.788s13.73 10.843 25.545 14.748c0 0-16.728 7.873-38.34-4.913m143.478-9.835s-3.331-10.408-10.196-25.156c0 0 19.05-21.03 45.575-34.759zM522.766 0c-13.156 0-23.852 10.667-23.852 23.86 0 6.57 2.674 12.5 6.976 16.839l-4.7 7.984-14.497-.573c-6.754-2.61-14.6-5.681-14.6-5.681-3.969-1.517-97.468-37.072-161.833-6.467l-5.93 2.822-1.37 6.393c-.184.832-2.6 12.721-3.395 27.681-76.8-45.713-152.442-57.565-184.14-60.71-33.963-3.359-67.76-.074-67.76-.074 45.214 21.14 72.933 38.524 72.933 38.524S79.112 56.27 0 95.09l74.338-3.47c110.773-9.325 218.538 53.486 223.09 56.16 18.365 10.88 36.647 11.204 47.092 6.864 25.405-10.445 20.78-41.957 20.78-41.957 16.912 1.74 36.933 7.124 57.537 20.17l14.488 9.427-44.233 76.402 16.7 11.786 103.176-168.06-1.952-7.835 4.737-8.059c2.202.685 4.552 1.194 7.013 1.194 13.193 0 23.85-10.705 23.85-23.852 0-13.193-10.657-23.86-23.85-23.86"/></svg>