<svg xmlns="http://www.w3.org/2000/svg" width="49.038" height="49.998"><path fill="#fff" d="M24.521 0c-13.28 0-23.07.272-23.07.272L.208.306l-.16 1.233C-.138 2.946.23 4.246.9 5.217s1.58 1.637 2.49 2.121c.087.047.174.085.262.129-.085.051-.17.097-.254.149-1.565.992-3.12 2.759-3.037 5.213.081 2.341 1.407 4.288 3.297 5.44s4.307 1.65 6.961 1.607c2.738-.045 4.624-.937 5.646-2.271a4.46 4.46 0 0 0 .902-2.213c.033.234.054.47.054.701v14.614c0 1.72-.102 3.242-.284 4.564-.296-1.211-.934-2.348-1.938-3.213-1.292-1.113-3.126-1.73-5.333-1.694-2.279.037-4.655.882-6.492 2.617S.105 37.361.121 40.692c.017 3.459 1.874 6 4.254 7.415s5.23 1.897 7.756 1.891c5.125-.014 8.396-1.786 10.033-4.69s1.78-6.524 1.914-10.453c.164-4.82.318-9.124.441-12.677.123 3.553.277 7.856.441 12.677.134 3.929.276 7.548 1.913 10.453s4.91 4.677 10.033 4.69c2.526.007 5.376-.476 7.756-1.891s4.237-3.956 4.254-7.415c.017-3.331-1.215-5.977-3.053-7.711-1.837-1.735-4.213-2.58-6.492-2.617-2.207-.036-4.04.581-5.333 1.694-1.003.865-1.64 2.002-1.938 3.213-.182-1.322-.283-2.845-.283-4.564V16.093c0-.231.021-.467.054-.701.086.734.357 1.501.902 2.213 1.021 1.335 2.908 2.227 5.646 2.271 2.655.043 5.071-.455 6.961-1.607s3.216-3.1 3.297-5.44c.084-2.454-1.47-4.221-3.037-5.213-.084-.053-.169-.099-.254-.149.088-.044.175-.082.263-.129.91-.484 1.82-1.149 2.49-2.121.668-.971 1.036-2.271.852-3.678l-.16-1.233-1.244-.034C47.591.272 37.803 0 24.521 0"/><path d="M24.521 1.457c-13.262 0-23.029.271-23.029.271C.93 6.041 6.786 7.119 7.96 7.219c-1.768.654-6.27 1.835-6.142 5.56s3.877 5.722 8.778 5.642 5.458-2.989 5.028-4.387c-.429-1.397-2.086-2.35-3.335-2.338s-2.52.626-2.52 1.794 1.241 1.509 2.304 1.576c-.8-.89-.548-1.461.02-1.712.567-.25 1.403.143 1.36 1.18-.045 1.038-1.386 1.273-2.522 1.192s-2.882-.792-2.793-2.341c.09-1.549 2.05-2.907 5.524-2.858s5.016 2.957 5.016 5.567v14.614c0 7.741-1.76 12.13-5.96 12.08-4.2-.049-5.763-2.591-5.817-4.305s1.426-2.978 3.18-3.027 2.555.903 2.582 1.811c.027.906-.529 1.384-1.604 1.375s-1.676-1.232-.57-1.479c-.626-.494-1.126-.453-1.686.533s.898 3.368 3.502 3.288 3.555-2.013 3.354-4.538c-.2-2.525-2.106-4.688-5.969-4.624-3.863.063-8.142 2.899-8.112 8.864.03 5.964 5.9 7.869 10.55 7.856 9.654-.027 10.227-5.926 10.494-13.737s.564-15.628.615-18.022-.195-3.655 1.283-3.655 1.232 1.261 1.282 3.655.35 10.211.615 18.022c.267 7.812.84 13.71 10.495 13.737 4.65.013 10.52-1.893 10.55-7.856.028-5.965-4.25-8.802-8.113-8.864s-5.769 2.099-5.969 4.624.75 4.458 3.354 4.538 4.063-2.302 3.502-3.288-1.06-1.027-1.685-.533c1.105.246.504 1.47-.57 1.479-1.075.009-1.63-.469-1.605-1.375.027-.907.828-1.859 2.582-1.811 1.754.05 3.234 1.313 3.18 3.027s-1.616 4.256-5.816 4.305c-4.2.05-5.96-4.339-5.96-12.08V16.094c0-2.61 1.541-5.519 5.016-5.567s5.435 1.31 5.524 2.858-1.657 2.26-2.792 2.341c-1.136.081-2.477-.154-2.52-1.192-.045-1.037.791-1.43 1.358-1.18.567.251.82.822.02 1.712 1.063-.067 2.306-.408 2.305-1.576s-1.27-1.781-2.52-1.794c-1.25-.012-2.907.94-3.336 2.338-.429 1.397.127 4.307 5.028 4.387s8.65-1.917 8.778-5.642-4.374-4.905-6.142-5.56c1.174-.101 7.03-1.179 6.468-5.491.001 0-9.766-.271-23.028-.271"/></svg>