<svg xmlns="http://www.w3.org/2000/svg" width="49.038" height="49.998"><g transform="translate(-49.013 -176.877)"><path d="M73.534 176.877c-13.282 0-23.07.272-23.07.272l-1.243.034-.161 1.233c-.184 1.407.184 2.707.853 3.678s1.58 1.637 2.489 2.121c.088.047.175.085.263.129-.085.051-.17.097-.254.149-1.565.992-3.121 2.759-3.037 5.213.081 2.341 1.407 4.288 3.297 5.44s4.307 1.65 6.961 1.607c2.738-.045 4.624-.937 5.646-2.271a4.46 4.46 0 0 0 .902-2.213c.033.234.054.47.054.701v14.614c0 1.72-.102 3.242-.284 4.564-.296-1.211-.934-2.348-1.938-3.213-1.292-1.113-3.126-1.73-5.333-1.694-2.279.037-4.655.882-6.492 2.617s-3.069 4.38-3.053 7.711c.017 3.459 1.874 6 4.254 7.415s5.23 1.897 7.756 1.891c5.125-.014 8.396-1.786 10.033-4.69s1.779-6.524 1.914-10.453c.164-4.82.318-9.124.441-12.677.123 3.553.277 7.856.441 12.677.134 3.929.276 7.548 1.913 10.453s4.909 4.677 10.033 4.69c2.526.007 5.376-.476 7.756-1.891s4.237-3.956 4.254-7.415c.017-3.331-1.215-5.977-3.053-7.711-1.837-1.735-4.213-2.58-6.492-2.617-2.207-.036-4.041.581-5.333 1.694-1.003.865-1.641 2.002-1.938 3.213-.182-1.322-.283-2.845-.283-4.564V192.97c0-.231.021-.467.054-.701.086.734.357 1.501.902 2.213 1.021 1.335 2.908 2.227 5.646 2.271 2.655.043 5.071-.455 6.961-1.607s3.216-3.1 3.297-5.44c.084-2.454-1.471-4.221-3.037-5.213-.084-.053-.169-.099-.254-.149.088-.044.175-.082.263-.129.91-.484 1.82-1.149 2.489-2.121.669-.971 1.037-2.271.853-3.678l-.161-1.233-1.243-.034c.004 0-9.784-.272-23.066-.272"/><linearGradient id="a" x1="69.474" x2="149.529" y1="-732.807" y2="-760.672" gradientTransform="matrix(.8 0 0 -.8 -20.168 -398.869)" gradientUnits="userSpaceOnUse"><stop offset="0" style="stop-color:#bf331c"/><stop offset=".3" style="stop-color:#d3641c"/><stop offset=".5" style="stop-color:#f6b91d"/><stop offset=".7" style="stop-color:#d3641c"/><stop offset="1" style="stop-color:#bf331c"/></linearGradient><path fill="url(#a)" d="M73.534 178.334c-13.262 0-23.029.271-23.029.271-.562 4.313 5.294 5.391 6.468 5.491-1.768.654-6.27 1.835-6.142 5.56s3.877 5.722 8.778 5.642 5.458-2.989 5.028-4.387c-.429-1.397-2.086-2.35-3.335-2.338s-2.52.626-2.521 1.794 1.242 1.509 2.305 1.576c-.801-.89-.548-1.461.02-1.712.567-.25 1.403.143 1.359 1.18-.044 1.038-1.385 1.273-2.521 1.192s-2.882-.792-2.793-2.341c.09-1.549 2.049-2.907 5.524-2.858s5.016 2.957 5.016 5.567v14.614c0 7.741-1.76 12.13-5.961 12.08-4.2-.049-5.762-2.591-5.816-4.305s1.426-2.978 3.18-3.027 2.555.903 2.582 1.811c.027.906-.529 1.384-1.604 1.375s-1.676-1.232-.571-1.479c-.625-.494-1.125-.453-1.685.533s.898 3.368 3.502 3.288 3.555-2.013 3.354-4.538-2.106-4.688-5.969-4.624c-3.863.063-8.142 2.899-8.112 8.864.029 5.964 5.899 7.869 10.549 7.856 9.655-.027 10.228-5.926 10.495-13.737s.564-15.628.615-18.022-.195-3.655 1.283-3.655 1.232 1.261 1.282 3.655.349 10.211.615 18.022c.267 7.812.839 13.71 10.495 13.737 4.65.013 10.52-1.893 10.549-7.856.029-5.965-4.249-8.802-8.112-8.864s-5.769 2.099-5.969 4.624.75 4.458 3.354 4.538 4.063-2.302 3.502-3.288-1.06-1.027-1.685-.533c1.105.246.504 1.47-.571 1.479s-1.63-.469-1.604-1.375c.027-.907.828-1.859 2.582-1.811 1.754.05 3.234 1.313 3.18 3.027s-1.616 4.256-5.816 4.305c-4.201.05-5.961-4.339-5.961-12.08v-14.614c0-2.61 1.542-5.519 5.017-5.567s5.435 1.31 5.524 2.858-1.657 2.26-2.792 2.341c-1.136.081-2.477-.154-2.521-1.192-.044-1.037.792-1.43 1.359-1.18.567.251.82.822.02 1.712 1.063-.067 2.306-.408 2.305-1.576s-1.271-1.781-2.521-1.794c-1.249-.012-2.906.94-3.335 2.338-.429 1.397.127 4.307 5.028 4.387s8.65-1.917 8.778-5.642-4.374-4.905-6.142-5.56c1.174-.101 7.03-1.179 6.468-5.491.001 0-9.766-.271-23.028-.271" style="fill:url(#a)"/></g></svg>