<svg xmlns="http://www.w3.org/2000/svg" width="46.134" height="47.085"><path d="M23.068 0C9.806 0 .038.271.038.271c-.561 4.313 5.295 5.391 6.469 5.491-1.768.654-6.27 1.835-6.142 5.56s3.877 5.722 8.778 5.642c4.9-.08 5.458-2.989 5.028-4.387s-2.086-2.35-3.335-2.338-2.52.626-2.521 1.794 1.242 1.509 2.305 1.576c-.801-.89-.548-1.461.02-1.712.567-.25 1.403.143 1.359 1.18-.044 1.038-1.385 1.273-2.521 1.192s-2.882-.792-2.793-2.341c.09-1.549 2.049-2.907 5.524-2.858s5.016 2.957 5.016 5.567v14.614c0 7.741-1.76 12.13-5.961 12.08-4.2-.049-5.762-2.591-5.816-4.305s1.426-2.978 3.18-3.027 2.555.903 2.582 1.811c.027.906-.53 1.384-1.604 1.375s-1.676-1.232-.571-1.479c-.625-.494-1.125-.453-1.685.533s.898 3.368 3.502 3.288 3.555-2.013 3.354-4.538-2.106-4.688-5.97-4.624c-3.862.063-8.141 2.899-8.111 8.864.029 5.964 5.899 7.869 10.549 7.856 9.655-.027 10.228-5.926 10.495-13.737s.564-15.628.615-18.022c.05-2.394-.195-3.655 1.283-3.655s1.232 1.261 1.282 3.655.349 10.211.615 18.022c.267 7.812.839 13.71 10.495 13.737 4.65.013 10.52-1.893 10.549-7.856.029-5.965-4.25-8.802-8.112-8.864s-5.77 2.099-5.97 4.624.75 4.458 3.355 4.538 4.063-2.302 3.502-3.288-1.06-1.027-1.685-.533c1.105.246.504 1.47-.571 1.479s-1.63-.469-1.604-1.375c.027-.907.828-1.859 2.582-1.811 1.754.05 3.234 1.313 3.18 3.027s-1.616 4.256-5.816 4.305c-4.201.05-5.961-4.339-5.961-12.08V14.637c0-2.61 1.542-5.519 5.017-5.567s5.435 1.31 5.524 2.858-1.657 2.26-2.792 2.341c-1.136.081-2.477-.154-2.521-1.192-.044-1.037.792-1.43 1.359-1.18.567.251.82.822.02 1.712 1.063-.067 2.306-.408 2.305-1.576s-1.271-1.781-2.521-1.794c-1.25-.012-2.906.94-3.335 2.338-.43 1.397.127 4.307 5.028 4.387s8.65-1.917 8.778-5.642-4.374-4.905-6.142-5.56c1.174-.101 7.03-1.179 6.468-5.491 0 0-9.766-.271-23.028-.271"/></svg>