<?xml version="1.0" encoding="UTF-8" standalone="no"?>
<svg
   viewBox="0 0 943.92 947.54775"
   version="1.1"
   id="svg4"
   width="943.91998"
   height="947.54773"
   xmlns:xlink="http://www.w3.org/1999/xlink"
   xmlns="http://www.w3.org/2000/svg"
   xmlns:svg="http://www.w3.org/2000/svg">
  <defs
     id="defs8">
    <linearGradient
       x1="369"
       y1="195.89"
       x2="603"
       y2="195.89"
       id="g2"
       xlink:href="#g1"
       gradientUnits="userSpaceOnUse"
       gradientTransform="matrix(3.5769,0,0,3.5833,-1266.7,-187.5)" />
    <linearGradient
       id="g1">
      <stop
         id="s1"
         style="stop-color:#8b723c;stop-opacity:1"
         offset="0" />
      <stop
         id="s2"
         style="stop-color:#d2bb7b;stop-opacity:1"
         offset="0.1" />
      <stop
         id="s3"
         style="stop-color:#ebd491;stop-opacity:1"
         offset="0.5" />
      <stop
         id="s4"
         style="stop-color:#d2bb7b;stop-opacity:1"
         offset="0.9" />
      <stop
         id="s5"
         style="stop-color:#8b723c;stop-opacity:1"
         offset="1" />
    </linearGradient>
    <linearGradient
       xlink:href="#g1"
       id="linearGradient954"
       x1="53.125999"
       y1="481.73001"
       x2="890.15002"
       y2="481.73001"
       gradientUnits="userSpaceOnUse"
       gradientTransform="translate(-0.05,-22.593288)" />
  </defs>
  <path
     id="path3476"
     style="display:inline;opacity:1;fill:#000000;fill-opacity:1"
     d="m 83.609,0.0077115 c -14.723,0.08982 -30.867,0.80788 -48.728,2.2326 V 53.171712 c 0,0 -23.451,-2.798 -34.881,-2.438 V 800.98771 l 413.15,146.56 h 117.62 l 413.15,-146.56 V 50.733712 c -11.43,-0.36 -34.88,2.438 -34.88,2.438 V 2.2403115 C 766.15,-9.1566885 733.05,24.682712 659.74,67.458712 650.01,50.947712 621.08,1.6919115 559.67,0.9238915 588.01,78.426712 529.36,84.157712 471.96,84.257712 c -57.4,-0.1 -116.05,-5.831 -87.71,-83.3338205 C 322.84,1.6919115 293.91,50.947712 284.18,67.458712 220.03,30.029712 186.67,-0.5575785 83.609,0.0077115 Z" />
  <path
     d="m 53.136,19.200712 c 0,251.516998 0.102,511.036998 -0.06,762.556998 67.034,3.17 144.234,11.57 204.854,24.98 -182.036,-127.57 -168.7,-410.92 -129.33,-609.11 77.44,125.31 125.3,-85.5 146.65,-113.410998 -81.67,-57.971 -151.66,-73.717 -222.114,-65.016 z m 615.504,64.116 c 23.16,27.000998 64.83,236.960998 145.3,115.640998 75.14,378.81 -26.39,529.43 -128.18,607.93 36.91,-8.79 129.23,-22.77 204.34,-24.53 V 19.315712 c -81,-11.3269005 -159.5,26.642 -221.46,64.001 z M 160.93,282.05771 c -12.09,90.24 -28.17,311.2 63.75,424.43 -28.25,-310.78 118.67,-461.73 192.6,-530.13 -108.61,128.47 -186.04,324.93 -106.69,564.04 60.69,-244.42 191.78,-388.87 326.13,-484.86 -119.76,106.88 -235.28,271.05 -262.05,503.09 89.87,-139.73 219.57,-255.68 363.13,-315.43 -132.95,88.8 -245.4,210.6 -301.47,346.12 87.02,-94.36 200.51,-144.55 260.84,-147.97 -122.28,57.1 -199.11,153.29 -244.42,259.96 11.72,0 24.59,-0.1 36.32,-0.17 51.45,-143.08 356.99,-51.04 293.05,-619.2 -120.24,10.13 -126.19,-152.88 -175.82,-208.184998 -7.22,74.134998 -249.17,82.274998 -270.47,1.246 C 285.45,131.90771 284,291.62771 160.93,282.05771 Z"
     id="path2"
     style="display:inline;opacity:1;fill:url(#linearGradient954);fill-opacity:1" />
</svg>
