<?xml version="1.0" encoding="UTF-8" standalone="no"?>
<svg
   viewBox="0 0 837.024 884.33803"
   version="1.1"
   id="svg4"
   width="837.02399"
   height="884.33801"
   xmlns="http://www.w3.org/2000/svg"
   xmlns:svg="http://www.w3.org/2000/svg">
  <defs
     id="defs1" />
  <path
     d="M 0.06,2.231037 C 0.06,253.74804 0.162,513.26804 0,764.78804 c 67.034,3.17 144.234,11.57 204.854,24.98 -182.036,-127.57 -168.7,-410.92 -129.33,-609.11 77.44,125.31 125.3,-85.500003 146.65,-113.411003 -81.67,-57.971 -151.66,-73.717 -222.114,-65.016 z m 615.504,64.116 c 23.16,27.001 64.83,236.961003 145.3,115.641003 75.14,378.81 -26.39,529.43 -128.18,607.93 36.91,-8.79 129.23,-22.77 204.34,-24.53 V 2.346037 c -81,-11.3269 -159.5,26.642 -221.46,64.001 z M 107.854,265.08804 c -12.09,90.24 -28.17,311.2 63.75,424.43 -28.25,-310.78 118.67,-461.73 192.6,-530.13 -108.61,128.47 -186.04,324.93 -106.69,564.04 60.69,-244.42 191.78,-388.87 326.13,-484.86 -119.76,106.88 -235.28,271.05 -262.05,503.09 89.87,-139.73 219.57,-255.68 363.13,-315.43 -132.95,88.8 -245.4,210.6 -301.47,346.12 87.02,-94.36 200.51,-144.55 260.84,-147.97 -122.28,57.1 -199.11,153.29 -244.42,259.96 11.72,0 24.59,-0.1 36.32,-0.17 51.45,-143.08 356.99,-51.04 293.05,-619.2 -120.24,10.13 -126.19,-152.88 -175.82,-208.185003 -7.22,74.135003 -249.17,82.275003 -270.47,1.246 -50.38,56.909003 -51.83,216.629003 -174.9,207.059003 z"
     id="path2"
     style="display:inline;opacity:1;fill:#000000;fill-opacity:1" />
</svg>
