<svg xmlns="http://www.w3.org/2000/svg" width="327.648" height="300"><path fill="#fff" d="m182.361 299.979 145.287-5.871-57.67-75.099zM0 294.107 145.356 300l-87.633-80.951Zm172.478-1.205 118.189-111.76-55.91-37.659L184.37.001l-11.891.015ZM92.924 143.483l-55.86 37.695 118.187 111.708V0l-11.944.02z"/><path d="m268.458 236.744-53.985 49.914 89.544-3.611zm-209.249.021L23.653 283.02l89.594 3.64zm212.305-54.012-46.719-31.528-40.33-114.79.026 228.597zm-128.299 82.319.009-228.655-40.308 114.804-46.714 31.517z"/></svg>