<svg xmlns="http://www.w3.org/2000/svg" width="281.125" height="275.531"><path d="m140.563 0-21 63.25-39.25-49 4 66.5L38.563 60l21 49.25H14.874l33.563 33.5L0 161.125l56.625 21.813A86.8 86.8 0 0 0 76.5 218.875l-11.594 28.438c20.268 17.577 46.722 28.218 75.657 28.218s55.388-10.641 75.656-28.219l-11.594-28.437a86.8 86.8 0 0 0 19.875-35.937l56.625-21.813-48.437-18.375 33.562-33.5h-44.687l21-49.25-45.75 20.75 4-66.5-39.25 49z" style="fill:#000;fill-opacity:1;stroke:none"/><path d="M140.563 26.063 128.5 84.656a76 76 0 0 0-5.375 1.031L92.375 45.22l7.219 50.375a76 76 0 0 0-5.469 3.844L60.094 81l18.656 34.281c-1.596 2.203-3.11 4.473-4.469 6.844l-34.5-2.719 26.407 23.438a76 76 0 0 0-1.313 7.375l-36.75 11.75 37.219 10.875c2.879 16.976 11.359 32.053 23.469 43.25L77.656 244c8.18 6.137 17.31 11.07 27.094 14.625l11.938-51.125-24.126-29.25V150h41.5v15h-26v6h18.313l28.188 15h3.75l28.25-15.594-5.563 25.5-14.094 13.219 10.188 49.25A104.7 104.7 0 0 0 203.469 244l-11.156-27.906c12.109-11.197 20.59-26.274 23.468-43.25L253 161.969l-36.75-11.75a76 76 0 0 0-1.312-7.375l26.406-23.438-34.5 2.719c-1.358-2.371-2.873-4.641-4.469-6.844L221.031 81 187 99.438a76 76 0 0 0-5.469-3.844l7.219-50.375L158 85.688a76 76 0 0 0-5.375-1.032zm-10 87.937h16v45.5h-6v-16h-10zm-27 7.5h19.5v22h-19.5zm50 1h14v38h-14zm22 6h11v33h-11z" style="fill:#fff;fill-opacity:1;stroke:none"/></svg>