<svg xmlns="http://www.w3.org/2000/svg" xmlns:xlink="http://www.w3.org/1999/xlink" width="600" height="600"><radialGradient id="a" cx="0" cy="0" r="1" fx="0" fy="0" gradientTransform="matrix(20 0 0 -20 135.64 146.293)" gradientUnits="userSpaceOnUse" spreadMethod="pad"><stop offset="0" style="stop-color:#bf99c3"/><stop offset=".7" style="stop-color:#7b5190"/><stop offset="1" style="stop-color:#612c75"/></radialGradient><radialGradient xlink:href="#a" id="b" cx="0" cy="0" r="1" fx="0" fy="0" gradientTransform="matrix(300 0 0 300 299.994 300)" gradientUnits="userSpaceOnUse" spreadMethod="pad"/><path d="M0 300c0 165.405 134.58 300 300 300 165.465 0 300-134.595 300-300C600 134.535 465.465 0 300 0 134.58 0 0 134.535 0 300" style="fill:url(#b)"/><path d="M361.455 425.505c-21.795 15.825-46.395 28.89-58.125 54.795l-23.265-11.61c1.83-4.8 3-10.305 3.285-16.635.24-3.63-1.395-8.145-1.995-11.835-.69-3.87-1.395-7.8-2.1-11.73a848 848 0 0 0-4.575-23.25c-3.225-15-6.975-29.895-11.43-44.475-4.275-13.95-9.135-27.78-15.165-41.07-5.625-12.435-12.42-24.33-20.745-35.16-4.98-6.39-10.425-12.36-16.17-18.105-2.58-2.52-5.34-4.98-7.86-7.56-1.695-1.875-3.975-5.34-6.795-5.445-4.515-.18-6.915 4.86-8.37 8.37-1.995 4.755-3.87 9.15-6.51 13.65-2.64 4.515-6.15 2.4-10.425 1.59-5.1-.946-15.585-8.61-17.7-9.615-1.875-.99-7.5-1.995-8.61-3.93-1.11-1.92.706-4.8 2.055-8.19 1.395-3.285 12-31.995 13.23-37.395a66 66 0 0 0 1.53-9.075c.18-1.47 1.41-8.385.346-9.375-7.605-7.38-21.975-7.965-31.575-13.305 5.685-8.43 9.555-13.89 13.305-19.92 33.33-1.23 61.575 2.64 94.74 1.635 18.105 41.73 41.01 78.585 66.45 113.04 9.375-3.405 10.485-15.06 23.25-15 5.4.06 9.375 3.51 12.54 7.44 1.53 1.98 2.88 4.095 4.395 6.09 1.53 2.055 3.75 4.095 4.05 6.795.24 2.58-.585 6.735-1.995 8.91-24.9 38.955 4.8 91.29 14.235 130.365m188.145 5.16a261 261 0 0 1-10.08 17.64c-5.79-1.875-27.885-8.85-41.715-9.495-37.905-2.46-61.695 9.195-86.49 19.92l-11.595-14.94c1.41-1.935 2.865-3.81 4.455-5.565 9.075-10.2 22.44-16.995 27.54-30.525 4.92-13.125.285-27.315-4.92-39.555-5.565-13.125-11.61-26.01-17.115-39.075-6.855-16.29-13.83-32.52-23.85-47.115-1.755-2.58-2.985-5.985-5.505-7.905-3.93-2.94-6.975.99-10.305 2.685-8.205 4.05-15.825-4.56-21.165-10.02-2.805-2.925-6.03-6.675-6.855-10.83-.93-4.815 2.415-8.445 5.28-11.895 6.15-7.335 12.78-15.06 17.175-23.565 2.865-5.385 4.68-11.595 5.385-17.685-7.215-13.89-28.425-13.71-36.63-26.55.645-.99 1.245-2.055 1.83-3.045 2.16-3.93 4.215-8.385 7.845-11.19 4.515-3.51 9.675-.526 14.295 1.11 4.98 1.815 10.26 2.58 15.525 3.045 5.865.464 11.73 1.41 17.7 1.53 5.16.12 10.545-.06 15.765-.42 7.5-.466 18.69-4.68 22.845-4.56 5.4.224 5.745 2.16 10.605 5.205-.705 1.83-1.17 3.99-1.455 6.27-.706 5.34-.48 10.725-.24 16.005.18 5.685-.18 11.715.765 17.46.93 6.15 3.87 11.475 6.15 17.22 2.4 6.105 4.98 12.195 7.62 18.285 5.265 11.835 10.89 23.55 16.575 35.22 11.43 23.49 22.92 46.875 32.115 71.31 4.455 12.18 8.73 24.6 11.31 37.32 3.045 15.285 18.225 30.285 30.345 39.195 1.995 1.47 4.635 3.165 6.795 4.515m-392.52 11.43c3.75-1.23.646-9.315 1.65-13.245-8.085-4.695-15.825-9.735-19.92-18.285-1.124-2.34.346-8.49.525-11.01.345-3.63.75-7.275 1.35-10.785 1.05-6.675 2.565-13.185 4.44-19.695 3.525-12 8.325-23.55 13.125-35.145 2.88-6.855 10.56-27.96 11.895-31.53 1.065-2.745 2.64-5.97 1.23-9.075-1.11-2.46-3.39-3-5.625-4.05-2.46-1.23-12.48-6.39-15.225-7.26-2.175-.766-6.855-3.69-9.03-2.64-2.34 1.11-7.14 10.95-8.265 13.005-2.52 4.695-4.74 9.555-6.795 14.415-4.8 11.25-8.85 22.8-12.765 34.455-7.095 20.925-13.125 42.78-23.085 62.64-7.5 14.94-19.23 29.58-34.395 37.32 3.51 6.03 7.26 12.015 11.25 17.76 19.68-15.765 54.075-22.395 89.64-16.875m339.675 14.94h-.12c-3.045-.18-6.03-.3-8.91-.3-15.705 0-28.65 2.94-40.77 7.155-38.97 34.98-90.54 56.31-146.955 56.31-58.83 0-112.275-23.145-151.815-60.825-5.28-.584-10.56-.93-15.705-.93-22.62 0-42.78 5.73-54.27 15.285C129.78 539.475 209.94 581.715 300 581.715c94.335 0 177.885-46.395 228.975-117.6-10.14-3.105-24.135-6.675-32.1-7.08zM47.566 425.1h-.048c-18.705-37.68-29.25-80.16-29.25-125.1 0-155.565 126.165-281.715 281.73-281.715S581.713 144.435 581.713 300c0 40.665-8.61 79.215-24.09 114.075a57 57 0 0 1-4.035-2.685c-12.36-9.03-21.675-20.34-23.205-28.065-2.925-14.415-7.8-28.365-12.135-40.02-.525-1.35-1.05-2.7-1.515-3.99 2.28-12.765 3.45-25.89 3.45-39.315 0-121.47-98.79-220.26-220.185-220.26-121.41 0-220.2 98.79-220.2 220.26 0 20.925 2.925 41.19 8.385 60.3-4.11 12.48-8.385 24.315-13.95 35.385-6.855 13.71-16.65 24.435-26.67 29.415" style="fill:#fff;fill-opacity:1"/></svg>