<?xml version="1.0" encoding="UTF-8" standalone="no"?>
<!-- Generator: Adobe Illustrator 15.1.0, SVG Export Plug-In . SVG Version: 6.00 Build 0)  -->

<svg
   version="1.1"
   id="Layer_1"
   x="0px"
   y="0px"
   width="354.90302"
   height="484.99899"
   viewBox="0 0 354.90302 484.99899"
   enable-background="new 0 0 375 500"
   xml:space="preserve"
   xmlns="http://www.w3.org/2000/svg"
   xmlns:svg="http://www.w3.org/2000/svg"><defs
   id="defs17" />
<g
   id="g17"
   transform="translate(-10.005,-7.079)">
	<path
   fill="#ffffff"
   d="m 187.457,56.432 c 43.309,0 59.07,-49.353 59.07,-49.353 l 118.381,93.202 c 0,0 -7.54,178.814 -7.769,185.494 -0.559,15.715 -7.095,30.464 -11.291,40.731 -15.1,36.943 -72.239,116.75 -148.224,165.572 H 177.286 C 101.298,443.257 44.168,363.45 29.069,326.507 24.873,316.238 18.332,301.488 17.782,285.776 17.545,279.096 10.005,100.282 10.005,100.282 L 128.39,7.079 c 0,0 15.757,49.353 59.067,49.353 z"
   id="path1" />
	
		<linearGradient
   id="SVGID_1_"
   gradientUnits="userSpaceOnUse"
   x1="26.497101"
   y1="247.0918"
   x2="348.41599"
   y2="247.0918"
   gradientTransform="matrix(1,0,0,-1,0,501)">
		<stop
   offset="0"
   style="stop-color:#612C75"
   id="stop1" />
		<stop
   offset="0.0155"
   style="stop-color:#643078"
   id="stop2" />
		<stop
   offset="0.1297"
   style="stop-color:#754889"
   id="stop3" />
		<stop
   offset="0.2"
   style="stop-color:#7B5190"
   id="stop4" />
		<stop
   offset="0.2344"
   style="stop-color:#8C639D"
   id="stop5" />
		<stop
   offset="0.2911"
   style="stop-color:#A37BAE"
   id="stop6" />
		<stop
   offset="0.3516"
   style="stop-color:#B38CBA"
   id="stop7" />
		<stop
   offset="0.4177"
   style="stop-color:#BC96C1"
   id="stop8" />
		<stop
   offset="0.5"
   style="stop-color:#BF99C3"
   id="stop9" />
		<stop
   offset="0.5823"
   style="stop-color:#BC96C1"
   id="stop10" />
		<stop
   offset="0.6484"
   style="stop-color:#B38CBA"
   id="stop11" />
		<stop
   offset="0.7089"
   style="stop-color:#A37BAE"
   id="stop12" />
		<stop
   offset="0.7656"
   style="stop-color:#8C639D"
   id="stop13" />
		<stop
   offset="0.8"
   style="stop-color:#7B5190"
   id="stop14" />
		<stop
   offset="0.8703"
   style="stop-color:#754889"
   id="stop15" />
		<stop
   offset="0.9845"
   style="stop-color:#643078"
   id="stop16" />
		<stop
   offset="1"
   style="stop-color:#612C75"
   id="stop17" />
	</linearGradient>
	<path
   fill="url(#SVGID_1_)"
   d="M 182.07,476.496 C 94.71,417.264 43.851,329.907 40.858,312.555 c -1.994,-11.566 -1.199,-21.74 2.396,-30.521 8.374,26.324 24.728,56.249 49.063,89.754 26.041,34.727 51.887,59.109 77.539,73.138 h 35.201 c 25.651,-14.028 51.502,-38.411 77.533,-73.138 24.345,-33.505 40.694,-63.43 49.068,-89.754 v 0 c 3.59,8.781 4.396,18.955 2.396,30.521 -2.993,17.354 -53.852,104.709 -141.214,163.941 z m 5.387,-397.908 -14.958,44.285 -52.658,31.108 -46.672,-11.964 32.311,37.104 v 62.226 l -32.311,37.105 47.269,-12.58 51.46,31.715 15.559,49.067 15.559,-49.067 51.461,-31.715 47.27,12.58 -32.313,-37.105 v -62.226 l 32.313,-37.104 -46.682,11.964 -52.649,-31.108 z m 53.852,163.356 v -62.823 l -53.853,-32.917 -53.852,32.917 v 62.823 l 53.852,32.312 z M 26.497,127.06 c 37.517,50.944 39.847,96.612 6.991,136.995 l -1.009,1.221 z m 321.919,0 -5.986,138.215 -1.004,-1.221 c -32.861,-40.383 -30.531,-86.05 6.99,-136.994 z M 124.028,246.728 v -73.593 l 63.429,-38.298 63.419,38.298 v 73.593 l -63.419,38.895 z M 174.29,430.422 C 117.648,391.338 77.157,336.483 52.827,265.872 84.423,222.042 76.916,169.213 30.315,107.394 L 28.89,105.519 122.835,31.32 c 13.428,27.65 34.675,41.215 63.737,40.704 l 0.886,-0.009 0.886,0.009 c 29.063,0.512 50.313,-13.053 63.736,-40.704 l 93.939,74.199 -1.421,1.875 c -46.596,61.818 -54.106,114.647 -22.507,158.478 -24.345,70.608 -64.83,125.466 -121.468,164.55 z"
   id="path17"
   style="fill:url(#SVGID_1_)" />
</g>
</svg>
