<?xml version="1.0" encoding="UTF-8" standalone="no"?>
<!-- Generator: Adobe Illustrator 15.1.0, SVG Export Plug-In . SVG Version: 6.00 Build 0)  -->

<svg
   version="1.1"
   id="Layer_1"
   x="0px"
   y="0px"
   width="321.92801"
   height="445.17999"
   viewBox="0 0 321.92801 445.17999"
   enable-background="new 0 0 375 500"
   xml:space="preserve"
   xmlns="http://www.w3.org/2000/svg"
   xmlns:svg="http://www.w3.org/2000/svg"><defs
   id="defs11">
	
	
</defs>
<path
   id="path2"
   d="M 96.338,0 2.393,74.201 3.819,76.07 C 50.42,137.89 57.926,190.72 26.33,234.55 50.66,305.16 91.148,360.02 147.798,399.1 h 26.33 c 56.64,-39.08 97.13,-93.94 121.46,-164.55 -31.59,-43.83 -24.08,-96.66 22.51,-158.48 l 1.43,-1.869 L 225.588,0 c -13.43,27.651 -34.68,41.217 -63.74,40.705 h -0.89 -0.88 C 131.018,41.216 109.768,27.65 96.338,0 Z m 64.62,47.27 14.96,44.28 52.65,31.11 46.69,-11.96 -32.32,37.1 v 62.23 l 32.32,37.1 -47.28,-12.58 -51.46,31.72 -15.56,49.06 -15.56,-49.06 -51.46,-31.72 -47.266,12.58 32.315,-37.1 V 147.8 l -32.315,-37.1 46.676,11.96 52.65,-31.11 z M 0,95.74 5.983,233.96 6.992,232.74 C 39.848,192.35 37.517,146.68 0,95.74 Z m 321.928,0 c -37.52,50.94 -39.85,96.61 -6.99,136.99 l 1,1.22 z m -160.97,7.78 -63.43,38.29 v 73.6 l 63.43,38.89 63.43,-38.89 v -73.6 z m 0,11.36 53.85,32.92 v 62.82 l -53.85,32.32 -53.85,-32.32 V 147.8 Z m -144.2,135.83 c -3.595,8.78 -4.39,18.96 -2.396,30.53 2.993,17.35 53.851,104.7 141.216,163.94 h 10.77 c 87.36,-59.24 138.22,-146.59 141.22,-163.94 1.99,-11.57 1.19,-21.75 -2.41,-30.53 -8.37,26.33 -24.72,56.25 -49.06,89.76 -26.04,34.73 -51.88,59.11 -77.54,73.14 h -35.2 C 117.708,399.58 91.868,375.19 65.82,340.47 41.485,306.96 25.132,277.04 16.758,250.71 Z" />
</svg>
