<?xml version="1.0" encoding="UTF-8" standalone="no"?>
<svg
   width="1000"
   height="1000"
   viewBox="0 0 1000 1000"
   version="1.1"
   xml:space="preserve"
   style="clip-rule:evenodd;fill-rule:evenodd;stroke-linejoin:round;stroke-miterlimit:2"
   id="svg54"
   xmlns="http://www.w3.org/2000/svg"
   xmlns:svg="http://www.w3.org/2000/svg">
    <g
   transform="translate(-3557.7614,-0.657907)"
   id="g7">
        <g
   id="M"
   transform="translate(-66.5687,0.657907)">
            <rect
   x="3624.3301"
   y="0"
   width="1000"
   height="1000"
   style="fill:none"
   id="rect1" />
            <g
   transform="translate(3634.88)"
   id="g1">
                <path
   d="m 929.178,560.502 c 0,0 -75.429,334.319 -429.178,418.86 0,0 -326.007,-48.326 -428.569,-418.86 0,0 124.361,-27.197 127.426,-179.313 C 201.922,229.072 57.062,201.875 57.062,201.875 L 212.392,20.84 h 574.979 l 155.351,181.035 c 0,0 -141.542,34.707 -142.235,179.314 -0.692,144.607 128.691,179.313 128.691,179.313 z"
   id="path1" />
            </g>
            <g
   transform="translate(3634.88)"
   id="g2">
                <path
   d="M 133.678,184.941 224.784,78.827 c 0,0 51.734,69.105 85.645,158.897 33.91,89.791 71.557,297.061 18.221,510.511 0,0 -2.868,29.95 -24.407,88.413 0,0 -128.673,-91.613 -175.823,-249.37 0,0 77.369,-34.411 107.477,-132.607 0,0 51.453,-179.999 -102.219,-269.73 z"
   style="fill:url(#_Linear1)"
   id="path2" />
            </g>
            <g
   transform="matrix(-1,0,0,1,4633.74,0)"
   id="g3">
                <path
   d="M 133.678,184.941 224.784,78.827 c 0,0 51.734,69.105 85.645,158.897 33.91,89.791 71.557,297.061 18.221,510.511 0,0 -2.868,29.95 -24.407,88.413 0,0 -128.673,-91.613 -175.823,-249.37 0,0 77.369,-34.411 107.477,-132.607 0,0 51.453,-179.999 -102.219,-269.73 z"
   style="fill:url(#_Linear2)"
   id="path3" />
            </g>
            <g
   transform="translate(3634.88)"
   id="g4">
                <path
   d="m 267.608,66.979 h 464.359 c 0,0 -46.986,62.265 -77.648,149.045 -30.663,86.78 -27.77,528.204 -27.77,528.204 0,0 13.227,66.752 32.724,116.745 0,0 -68.455,45.808 -159.273,70.732 0,0 -78.381,-18.34 -159.762,-70.835 0,0 33.748,-103.934 32.932,-118.223 L 345.474,215.368 c 0,0 -26.873,-76.663 -77.866,-148.389 z"
   style="fill:url(#_Linear3)"
   id="path4" />
            </g>
            <g
   transform="translate(3634.88)"
   id="g5">
                <path
   d="m 102.341,391.289 c 0,0 244.91,-220.198 397.659,-224.377 0,0 98.635,-29.436 396.147,223.4 0,0 -152.21,55.047 -201.447,132.794 l 34.245,63.476 c 0,0 -74.006,-4.881 -55.512,38.273 0,0 21.058,26.91 47.006,-10.615 0,0 14.371,-31.936 16.367,-44.91 0,0 1.996,-10.18 20.959,-12.376 0,0 21.956,-1.796 25.349,26.747 3.393,28.543 9.927,52.037 -6.649,92.426 -16.576,40.389 -59.078,67.483 -106.717,71.966 0,0 -74.54,9.808 -117.695,-57.166 -43.156,-66.975 7.285,-142.916 7.285,-142.916 l -46.237,-28.023 c 0,0 79.304,-35.589 59.688,-100.602 -19.616,-65.013 -84.839,-54.924 -84.839,-54.924 0,0 -48.269,2.241 -62.56,60.249 -14.292,58.007 55.765,93.109 60.529,95.277 l -46.238,28.509 c 0,0 47.061,68.795 8.968,140.394 0,0 -21.511,40.98 -74.958,55.586 -53.447,14.607 -123.493,-6.823 -150.382,-69.049 -26.89,-62.226 1.328,-111.358 1.328,-111.358 0,0 29.213,-21.909 40.168,11.619 10.955,33.529 17.262,52.12 36.185,58.095 18.922,5.975 26.889,-13.279 26.889,-13.279 0,0 4.648,-25.229 -19.254,-31.537 -9.463,-2.497 -17.508,-2.631 -23.579,-2.853 -9.263,-0.338 -14.147,0.187 -14.147,0.187 l 33.312,-62.096 c 0,0 -52.691,-86.6 -201.87,-132.917 z"
   id="path5" />
            </g>
            <g
   transform="translate(3634.88)"
   id="g6">
                <path
   d="m 821.306,378.66 c 0,0 -127.681,60.322 -168.934,144.451 l 18.439,33.769 c 0,0 -47.096,20.425 -33.933,71.957 13.163,51.532 72.817,41.169 72.817,41.169 0,0 25.486,-7.001 40.049,-35.568 0,0 -1.12,33.328 -28.566,56.293 -27.447,22.965 -61.054,21.845 -61.054,21.845 0,0 -41.45,1.12 -71.697,-33.327 -30.247,-34.448 -10.362,-85.7 -10.362,-85.7 0,0 5.601,-22.405 33.607,-56.853 l -32.207,-19.885 c 0,0 58.877,-53.204 17.644,-133.03 0,0 -38.021,-73.938 -126.883,-51.455 -88.862,22.483 -82.438,116.163 -82.438,116.163 0,0 2.603,42.412 30.706,68.111 l -32.54,20.523 c 0,0 60.491,59.974 36.171,125.533 0,0 -25.73,55.689 -93.756,49.345 -68.026,-6.344 -78.6,-77.19 -78.6,-77.19 0,0 21.501,46.525 71.198,34.189 0,0 56.747,-9.516 40.886,-75.075 0,0 -4.934,-23.615 -34.894,-37.362 l 19.738,-33.484 c 0,0 -44.265,-85.137 -168.222,-144.255 0,0 196.451,-174.107 321.415,-174.96 124.964,-0.852 321.416,174.796 321.416,174.796 z"
   style="fill:#ffffff"
   id="path6" />
            </g>
        </g>
    </g>
    <defs
   id="defs54">
        <linearGradient
   id="_Linear1"
   x1="0"
   y1="0"
   x2="1"
   y2="0"
   gradientUnits="userSpaceOnUse"
   gradientTransform="matrix(-664.516,0,0,-664.516,355.298,372.44)"><stop
     offset="0"
     style="stop-color:rgb(187,44,38);stop-opacity:1"
     id="stop7" /><stop
     offset="0.04"
     style="stop-color:rgb(191,53,38);stop-opacity:1"
     id="stop8" /><stop
     offset="0.11"
     style="stop-color:rgb(203,77,37);stop-opacity:1"
     id="stop9" /><stop
     offset="0.19"
     style="stop-color:rgb(222,117,35);stop-opacity:1"
     id="stop10" /><stop
     offset="0.21"
     style="stop-color:rgb(225,122,35);stop-opacity:1"
     id="stop11" /><stop
     offset="0.29"
     style="stop-color:rgb(238,139,31);stop-opacity:1"
     id="stop12" /><stop
     offset="0.38"
     style="stop-color:rgb(245,149,30);stop-opacity:1"
     id="stop13" /><stop
     offset="0.5"
     style="stop-color:rgb(255,153,21);stop-opacity:1"
     id="stop14" /><stop
     offset="0.62"
     style="stop-color:rgb(245,149,30);stop-opacity:1"
     id="stop15" /><stop
     offset="0.71"
     style="stop-color:rgb(238,139,31);stop-opacity:1"
     id="stop16" /><stop
     offset="0.79"
     style="stop-color:rgb(225,122,35);stop-opacity:1"
     id="stop17" /><stop
     offset="0.8"
     style="stop-color:rgb(224,120,35);stop-opacity:1"
     id="stop18" /><stop
     offset="0.85"
     style="stop-color:rgb(211,93,36);stop-opacity:1"
     id="stop19" /><stop
     offset="0.91"
     style="stop-color:rgb(198,66,37);stop-opacity:1"
     id="stop20" /><stop
     offset="0.96"
     style="stop-color:rgb(190,50,38);stop-opacity:1"
     id="stop21" /><stop
     offset="1"
     style="stop-color:rgb(187,44,38);stop-opacity:1"
     id="stop22" /></linearGradient>
        <linearGradient
   id="_Linear2"
   x1="0"
   y1="0"
   x2="1"
   y2="0"
   gradientUnits="userSpaceOnUse"
   gradientTransform="matrix(-664.516,0,0,-664.516,355.298,372.44)"><stop
     offset="0"
     style="stop-color:rgb(187,44,38);stop-opacity:1"
     id="stop23" /><stop
     offset="0.04"
     style="stop-color:rgb(191,53,38);stop-opacity:1"
     id="stop24" /><stop
     offset="0.11"
     style="stop-color:rgb(203,77,37);stop-opacity:1"
     id="stop25" /><stop
     offset="0.19"
     style="stop-color:rgb(222,117,35);stop-opacity:1"
     id="stop26" /><stop
     offset="0.21"
     style="stop-color:rgb(225,122,35);stop-opacity:1"
     id="stop27" /><stop
     offset="0.29"
     style="stop-color:rgb(238,139,31);stop-opacity:1"
     id="stop28" /><stop
     offset="0.38"
     style="stop-color:rgb(245,149,30);stop-opacity:1"
     id="stop29" /><stop
     offset="0.5"
     style="stop-color:rgb(255,153,21);stop-opacity:1"
     id="stop30" /><stop
     offset="0.62"
     style="stop-color:rgb(245,149,30);stop-opacity:1"
     id="stop31" /><stop
     offset="0.71"
     style="stop-color:rgb(238,139,31);stop-opacity:1"
     id="stop32" /><stop
     offset="0.79"
     style="stop-color:rgb(225,122,35);stop-opacity:1"
     id="stop33" /><stop
     offset="0.8"
     style="stop-color:rgb(224,120,35);stop-opacity:1"
     id="stop34" /><stop
     offset="0.85"
     style="stop-color:rgb(211,93,36);stop-opacity:1"
     id="stop35" /><stop
     offset="0.91"
     style="stop-color:rgb(198,66,37);stop-opacity:1"
     id="stop36" /><stop
     offset="0.96"
     style="stop-color:rgb(190,50,38);stop-opacity:1"
     id="stop37" /><stop
     offset="1"
     style="stop-color:rgb(187,44,38);stop-opacity:1"
     id="stop38" /></linearGradient>
        <linearGradient
   id="_Linear3"
   x1="0"
   y1="0"
   x2="1"
   y2="0"
   gradientUnits="userSpaceOnUse"
   gradientTransform="matrix(0,993.774,-993.774,0,500,-27.0208)"><stop
     offset="0"
     style="stop-color:rgb(187,44,38);stop-opacity:1"
     id="stop39" /><stop
     offset="0.04"
     style="stop-color:rgb(191,53,38);stop-opacity:1"
     id="stop40" /><stop
     offset="0.11"
     style="stop-color:rgb(203,77,37);stop-opacity:1"
     id="stop41" /><stop
     offset="0.19"
     style="stop-color:rgb(222,117,35);stop-opacity:1"
     id="stop42" /><stop
     offset="0.21"
     style="stop-color:rgb(225,122,35);stop-opacity:1"
     id="stop43" /><stop
     offset="0.29"
     style="stop-color:rgb(238,139,31);stop-opacity:1"
     id="stop44" /><stop
     offset="0.38"
     style="stop-color:rgb(245,149,30);stop-opacity:1"
     id="stop45" /><stop
     offset="0.5"
     style="stop-color:rgb(255,153,21);stop-opacity:1"
     id="stop46" /><stop
     offset="0.62"
     style="stop-color:rgb(245,149,30);stop-opacity:1"
     id="stop47" /><stop
     offset="0.71"
     style="stop-color:rgb(238,139,31);stop-opacity:1"
     id="stop48" /><stop
     offset="0.79"
     style="stop-color:rgb(225,122,35);stop-opacity:1"
     id="stop49" /><stop
     offset="0.8"
     style="stop-color:rgb(224,120,35);stop-opacity:1"
     id="stop50" /><stop
     offset="0.85"
     style="stop-color:rgb(211,93,36);stop-opacity:1"
     id="stop51" /><stop
     offset="0.91"
     style="stop-color:rgb(198,66,37);stop-opacity:1"
     id="stop52" /><stop
     offset="0.96"
     style="stop-color:rgb(190,50,38);stop-opacity:1"
     id="stop53" /><stop
     offset="1"
     style="stop-color:rgb(187,44,38);stop-opacity:1"
     id="stop54" /></linearGradient>
    </defs>
</svg>
