<?xml version="1.0" encoding="UTF-8"?>
<svg id="Layer_2" xmlns="http://www.w3.org/2000/svg" xmlns:xlink="http://www.w3.org/1999/xlink" viewBox="0 0 595.28 595.28">
  <defs>
    <style>
      .cls-1 {
        fill: #fff;
      }

      .cls-1, .cls-2, .cls-3, .cls-4, .cls-5 {
        fill-rule: evenodd;
      }

      .cls-6 {
        fill: none;
      }

      .cls-2 {
        fill: url(#linear-gradient-3);
      }

      .cls-3 {
        fill: url(#linear-gradient-2);
      }

      .cls-5 {
        fill: url(#linear-gradient);
      }
    </style>
    <linearGradient id="linear-gradient" x1="0" y1="718.71" x2="1" y2="718.71" gradientTransform="translate(217.45 -284028.16) rotate(-180) scale(395.57 -395.57)" gradientUnits="userSpaceOnUse">
      <stop offset="0" stop-color="#612c75"/>
      <stop offset=".02" stop-color="#653179"/>
      <stop offset=".11" stop-color="#855693"/>
      <stop offset=".21" stop-color="#9e73a8"/>
      <stop offset=".31" stop-color="#b088b7"/>
      <stop offset=".41" stop-color="#bb94c0"/>
      <stop offset=".5" stop-color="#bf99c3"/>
      <stop offset=".59" stop-color="#bb94c0"/>
      <stop offset=".69" stop-color="#b088b7"/>
      <stop offset=".79" stop-color="#9e73a8"/>
      <stop offset=".89" stop-color="#855693"/>
      <stop offset=".98" stop-color="#653179"/>
      <stop offset="1" stop-color="#612c75"/>
    </linearGradient>
    <linearGradient id="linear-gradient-2" x2="1" gradientTransform="translate(389.7 -284028.16) scale(395.57)" xlink:href="#linear-gradient"/>
    <linearGradient id="linear-gradient-3" x1="0" y1="718.58" x2="1" y2="718.58" gradientTransform="translate(-424787.61 -15.6) rotate(90) scale(591.57 -591.57)" xlink:href="#linear-gradient"/>
  </defs>
  <g id="Layer_1-2" data-name="Layer_1">
    <g id="M">
      <rect class="cls-6" width="595.28" height="595.28"/>
      <path class="cls-4" d="M559.4,333.65s-44.9,199.01-255.48,249.34c0,0-194.06-28.77-255.12-249.34,0,0,74.03-16.19,75.85-106.74,1.82-90.55-84.41-106.74-84.41-106.74L132.71,12.41h342.27l92.48,107.77s-84.26,20.66-84.67,106.74c-.41,86.08,76.61,106.74,76.61,106.74Z"/>
      <path class="cls-5" d="M85.86,110.09l54.23-63.17s30.8,41.14,50.98,94.59c20.19,53.45,42.6,176.83,10.85,303.89,0,0-1.71,17.83-14.53,52.63,0,0-76.6-54.54-104.66-148.44,0,0,46.06-20.48,63.98-78.94,0,0,30.63-107.15-60.85-160.56Z"/>
      <path class="cls-3" d="M521.3,110.09l-54.23-63.17s-30.8,41.14-50.98,94.59c-20.19,53.45-42.6,176.83-10.85,303.89,0,0,1.71,17.83,14.53,52.63,0,0,76.6-54.54,104.66-148.44,0,0-46.06-20.48-63.98-78.94,0,0-30.63-107.15,60.85-160.56Z"/>
      <path class="cls-2" d="M165.58,39.87h276.42s-27.97,37.06-46.22,88.72c-18.25,51.66-16.53,314.43-16.53,314.43,0,0,7.87,39.74,19.48,69.5,0,0-40.75,27.27-94.81,42.11,0,0-46.66-10.92-95.1-42.17,0,0,20.09-61.87,19.6-70.38l-16.49-313.88s-16-45.64-46.35-88.33Z"/>
      <path class="cls-4" d="M67.2,232.92S212.99,101.85,303.92,99.36c0,0,58.72-17.52,235.82,132.98,0,0-90.61,32.77-119.92,79.05l20.39,37.79s-44.05-2.91-33.04,22.78c0,0,12.54,16.02,27.98-6.32,0,0,8.55-19.01,9.74-26.73,0,0,1.19-6.06,12.48-7.37,0,0,13.07-1.07,15.09,15.92,2.02,16.99,5.91,30.98-3.96,55.02-9.87,24.04-35.17,40.17-63.53,42.84,0,0-44.37,5.84-70.06-34.03-25.69-39.87,4.34-85.07,4.34-85.07l-27.52-16.68s47.21-21.19,35.53-59.89-50.5-32.69-50.5-32.69c0,0-28.73,1.33-37.24,35.86-8.51,34.53,33.2,55.43,36.03,56.72l-27.52,16.97s28.01,40.95,5.34,83.57c0,0-12.8,24.39-44.62,33.09-31.82,8.7-73.51-4.06-89.52-41.1-16.01-37.04.79-66.29.79-66.29,0,0,17.39-13.04,23.91,6.92,6.52,19.96,10.28,31.03,21.54,34.58,11.26,3.56,16.01-7.9,16.01-7.9,0,0,2.77-15.02-11.46-18.77-5.63-1.49-10.42-1.57-14.04-1.7-5.51-.2-8.42.11-8.42.11l19.83-36.96s-31.37-51.55-120.17-79.12Z"/>
      <path class="cls-1" d="M495.18,225.41s-76.01,35.91-100.56,85.99l10.98,20.1s-28.04,12.16-20.2,42.83c7.84,30.68,43.35,24.51,43.35,24.51,0,0,15.17-4.17,23.84-21.17,0,0-.67,19.84-17,33.51-16.34,13.67-36.34,13-36.34,13,0,0-24.67.67-42.68-19.84-18.01-20.51-6.17-51.02-6.17-51.02,0,0,3.33-13.34,20.01-33.84l-19.17-11.84s35.05-31.67,10.5-79.19c0,0-22.63-44.01-75.53-30.63s-49.07,69.15-49.07,69.15c0,0,1.55,25.25,18.28,40.54l-19.37,12.22s36.01,35.7,21.53,74.73c0,0-15.32,33.15-55.81,29.37s-46.79-45.95-46.79-45.95c0,0,12.8,27.7,42.38,20.35,0,0,33.78-5.66,24.34-44.69,0,0-2.94-14.06-20.77-22.24l11.75-19.93s-26.35-50.68-100.14-85.87c0,0,116.94-103.64,191.33-104.15,74.39-.51,191.33,104.05,191.33,104.05Z"/>
    </g>
  </g>
</svg>