<?xml version="1.0" encoding="UTF-8"?>
<svg id="Layer_2" xmlns="http://www.w3.org/2000/svg" viewBox="0 0 595.28 595.28">
  <defs>
    <style>
      .cls-1 {
        fill: none;
      }

      .cls-2 {
        fill-rule: evenodd;
      }
    </style>
  </defs>
  <g id="Layer_1-2" data-name="Layer_1">
    <g id="C">
      <rect class="cls-1" width="595.28" height="595.28"/>
      <g>
        <path d="M198.76,130.07c31.96-17.07,64.44-29.57,91.91-30.32,0,0,25.07-7.48,91.84,29.31,0-.03.02-.05.03-.08,18.25-51.66,46.22-88.72,46.22-88.72H152.33c30.35,42.7,46.35,88.33,46.35,88.33l.08,1.47Z"/>
        <path d="M452.32,174.08c9.18-23.19,26-46.23,55.74-63.59l-54.23-63.17s-30.48,40.72-50.67,93.77c14.69,8.98,31.03,19.85,49.16,33Z"/>
        <path d="M447.73,272.7c-16.63,11.29-31.93,24.52-41.16,39.08l20.39,37.79s-44.05-2.91-33.04,22.78c0,0,12.54,16.02,27.98-6.32,0,0,8.55-19.01,9.74-26.73,0,0,1.19-6.06,12.48-7.37,0,0,13.07-1.07,15.09,15.92s5.91,30.98-3.96,55.02c-9.84,23.97-35.02,40.07-63.28,42.81,0,.04.02.07.03.11,0,0,1.71,17.83,14.53,52.63,0,0,76.6-54.54,104.66-148.44,0,0-45.18-20.1-63.45-77.28Z"/>
        <path d="M128.45,174.33c15.32-10.92,32.08-22.12,49.38-32.42,0,0,0,0,0,0-20.19-53.45-50.98-94.59-50.98-94.59l-54.23,63.17c29.84,17.43,46.68,40.57,55.84,63.85Z"/>
        <path d="M321.66,411.68c-25.69-39.87,4.34-85.07,4.34-85.07l-27.52-16.68s47.21-21.19,35.53-59.89c-11.68-38.7-50.5-32.69-50.5-32.69,0,0-28.73,1.33-37.24,35.86-8.51,34.53,33.2,55.43,36.03,56.72l-27.52,16.97s28.01,40.95,5.34,83.57c0,0-12.8,24.39-44.62,33.09-.11.03-.23.06-.34.09-.95,11.86-19.57,69.2-19.57,69.2,48.44,31.25,95.1,42.17,95.1,42.17,54.06-14.84,94.81-42.1,94.81-42.1-11.18-28.67-18.9-66.59-19.45-69.33-14.25-3.57-31.62-12.09-44.38-31.89Z"/>
        <path d="M125.96,402.46c-16.01-37.04.79-66.29.79-66.29,0,0,17.39-13.04,23.91,6.92,6.52,19.96,10.28,31.03,21.54,34.58,11.26,3.56,16.01-7.9,16.01-7.9,0,0,2.77-15.02-11.46-18.77-5.63-1.49-10.42-1.57-14.04-1.7-5.51-.2-8.42.11-8.42.11l19.83-36.96s-11.68-19.2-40.97-40.43c-18.13,57.71-63.67,77.98-63.67,77.98,28.07,93.91,104.66,148.44,104.66,148.44,12.35-33.53,14.39-51.3,14.52-52.55-25.36-2.14-50.95-16.23-62.7-43.42Z"/>
      </g>
      <path class="cls-2" d="M481.94,225.8s-76.01,35.91-100.56,85.99l10.98,20.1s-28.04,12.16-20.2,42.83c7.84,30.68,43.35,24.51,43.35,24.51,0,0,15.17-4.17,23.84-21.17,0,0-.67,19.84-17,33.51-16.34,13.67-36.34,13-36.34,13,0,0-24.67.67-42.68-19.84-18.01-20.51-6.17-51.02-6.17-51.02,0,0,3.33-13.34,20.01-33.84l-19.17-11.84s35.05-31.67,10.5-79.19c0,0-22.63-44.01-75.53-30.63s-49.07,69.15-49.07,69.15c0,0,1.55,25.25,18.28,40.54l-19.37,12.22s36.01,35.7,21.53,74.73c0,0-15.32,33.15-55.81,29.37s-46.79-45.95-46.79-45.95c0,0,12.8,27.7,42.38,20.35,0,0,33.78-5.66,24.34-44.69,0,0-2.94-14.06-20.77-22.24l11.75-19.93s-26.35-50.68-100.14-85.87c0,0,116.94-103.64,191.33-104.15,74.39-.51,191.33,104.05,191.33,104.05Z"/>
    </g>
  </g>
</svg>