<?xml version="1.0" encoding="UTF-8" standalone="no"?>
<svg
   width="1000"
   height="1000"
   viewBox="0 0 1000 1000"
   version="1.1"
   xml:space="preserve"
   style="clip-rule:evenodd;fill-rule:evenodd;stroke-linejoin:round;stroke-miterlimit:2"
   id="svg3"
   xmlns="http://www.w3.org/2000/svg"
   xmlns:svg="http://www.w3.org/2000/svg"><defs
   id="defs3" />
    <g
   transform="translate(-4765.7614,-0.657907)"
   id="g3">
        <g
   id="WM"
   transform="translate(-66.5687,0.657907)">
            <rect
   x="4832.3301"
   y="0"
   width="1000"
   height="1000"
   style="fill:none"
   id="rect1" />
            <g
   transform="translate(4840.37)"
   id="g1">
                <path
   d="M 198.434,361.921 C 189.517,226.743 57.062,201.875 57.062,201.875 L 212.392,20.84 h 574.979 l 155.351,181.035 c 0,0 -128.685,31.554 -141.253,159.846 -10.403,-8.643 -24.458,-20.006 -41.092,-32.681 10.662,-50.413 38.829,-105.575 104.804,-144.099 L 774.075,78.827 c 0,0 -51.734,69.105 -85.645,158.897 -3.714,9.836 -7.474,21.082 -11.154,33.592 -10.244,-6.38 -20.723,-12.611 -31.326,-18.545 2.467,-15.372 5.243,-27.902 8.369,-36.747 30.662,-86.78 77.648,-149.045 77.648,-149.045 H 267.608 c 50.993,71.726 77.866,148.389 77.866,148.389 l 2.19,41.697 c -8.701,4.983 -17.304,10.143 -25.745,15.398 -3.787,-12.97 -7.662,-24.603 -11.49,-34.739 C 276.518,147.932 224.784,78.827 224.784,78.827 l -91.106,106.114 c 66.436,38.793 94.534,94.458 105.025,145.156 -16.264,12.334 -30.025,23.38 -40.269,31.824 z m 602.158,27.545 c 4.165,137.661 128.586,171.036 128.586,171.036 0,0 -75.429,334.319 -429.178,418.86 0,0 -326.007,-48.326 -428.569,-418.86 0,0 120.08,-26.26 127.158,-171.503 16.178,8.669 30.822,17.728 44.03,26.869 -2.397,23.673 -6.722,38.803 -6.722,38.803 -30.108,98.196 -107.477,132.607 -107.477,132.607 47.15,157.757 175.823,249.37 175.823,249.37 21.539,-58.463 24.407,-88.413 24.407,-88.413 2.985,-11.944 5.684,-23.868 8.115,-35.753 13.212,0.269 24.677,-1.857 34.538,-5.366 l 1.867,35.531 C 373.986,756.936 340.238,860.87 340.238,860.87 421.619,913.365 500,931.705 500,931.705 590.818,906.781 659.273,860.973 659.273,860.973 639.776,810.98 626.549,744.228 626.549,744.228 c 0,0 -0.094,-14.382 -0.069,-38.464 18.587,7.219 33.644,6.812 33.644,6.812 0,0 0.702,0.024 1.988,-0.006 2.426,11.856 5.12,23.751 8.097,35.665 0,0 2.868,29.95 24.407,88.413 0,0 128.673,-91.613 175.823,-249.37 0,0 -77.369,-34.411 -107.477,-132.607 0,0 -4.236,-14.819 -6.647,-38.073 16.948,-11.476 32.588,-20.671 44.277,-27.132 z M 645.016,578.444 c 1.379,25.284 3.783,51.138 7.396,77.342 -6.819,-6.207 -12.451,-14.881 -15.534,-26.949 -5.713,-22.366 -0.074,-38.873 8.138,-50.393 z m -298.731,78.508 c 3.732,-26.809 6.196,-53.255 7.59,-79.103 6.461,8.814 7.978,16.076 7.978,16.076 8.162,33.736 -2.903,52.632 -15.568,63.027 z"
   id="path1" />
            </g>
            <g
   transform="translate(4840.37)"
   id="g2">
                <path
   d="m 102.341,391.289 c 0,0 244.91,-220.198 397.659,-224.377 0,0 98.635,-29.436 396.147,223.4 0,0 -152.21,55.047 -201.447,132.794 l 34.245,63.476 c 0,0 -74.006,-4.881 -55.512,38.273 0,0 21.058,26.91 47.006,-10.615 0,0 14.371,-31.936 16.367,-44.91 0,0 1.996,-10.18 20.959,-12.376 0,0 21.956,-1.796 25.349,26.747 3.393,28.543 9.927,52.037 -6.649,92.426 -16.576,40.389 -59.078,67.483 -106.717,71.966 0,0 -74.54,9.808 -117.695,-57.166 -43.156,-66.975 7.285,-142.916 7.285,-142.916 l -46.237,-28.023 c 0,0 79.304,-35.589 59.688,-100.602 -19.616,-65.013 -84.839,-54.924 -84.839,-54.924 0,0 -48.269,2.241 -62.56,60.249 -14.292,58.007 55.765,93.109 60.529,95.277 l -46.238,28.509 c 0,0 47.061,68.795 8.968,140.394 0,0 -21.511,40.98 -74.958,55.586 -53.447,14.607 -123.493,-6.823 -150.382,-69.049 -26.89,-62.226 1.328,-111.358 1.328,-111.358 0,0 29.213,-21.909 40.168,11.619 10.955,33.529 17.262,52.12 36.185,58.095 18.922,5.975 26.889,-13.279 26.889,-13.279 0,0 4.648,-25.229 -19.254,-31.537 -9.463,-2.497 -17.508,-2.631 -23.579,-2.853 -9.263,-0.338 -14.147,0.187 -14.147,0.187 l 33.312,-62.096 c 0,0 -52.691,-86.6 -201.87,-132.917 z M 821.306,378.66 c 0,0 -196.452,-175.648 -321.416,-174.796 -124.964,0.853 -321.415,174.96 -321.415,174.96 123.957,59.118 168.222,144.255 168.222,144.255 l -19.738,33.484 c 29.96,13.747 34.894,37.362 34.894,37.362 15.861,65.559 -40.886,75.075 -40.886,75.075 -49.697,12.336 -71.198,-34.189 -71.198,-34.189 0,0 10.574,70.846 78.6,77.19 68.026,6.344 93.756,-49.345 93.756,-49.345 24.32,-65.559 -36.171,-125.533 -36.171,-125.533 l 32.54,-20.523 c -28.103,-25.699 -30.706,-68.111 -30.706,-68.111 0,0 -6.424,-93.68 82.438,-116.163 88.862,-22.483 126.883,51.455 126.883,51.455 41.233,79.826 -17.644,133.03 -17.644,133.03 l 32.207,19.885 c -28.006,34.448 -33.607,56.853 -33.607,56.853 0,0 -19.885,51.252 10.362,85.7 30.247,34.447 71.697,33.327 71.697,33.327 0,0 33.607,1.12 61.054,-21.845 27.446,-22.965 28.566,-56.293 28.566,-56.293 -14.563,28.567 -40.049,35.568 -40.049,35.568 0,0 -59.654,10.363 -72.817,-41.169 -13.163,-51.532 33.933,-71.957 33.933,-71.957 L 652.372,523.111 C 693.625,438.982 821.306,378.66 821.306,378.66 Z"
   id="path2" />
            </g>
        </g>
    </g>
</svg>
