<svg xmlns="http://www.w3.org/2000/svg" width="600" height="710.925"><path d="M25.321 26.269c4.69.13 6.046-.305 7.295-1.269 1.454-1.122 1.465-2.926 2.302-2.921.833.004 1.388 1.3 1.846 2.605.458.934 1.697 1.621 1.715 2.757.021 1.412-1.004 1.814-1.649 2.758-.687 1.002-.804 2.757-1.933 2.75-1.334-.008-.282-2.708-3.817-3.914-2.206-.753-5.517-.034-7.451.121-.521 1.563.738 2.975-.76 3.561.717 1.868 1.954 1.889 3.076 3.501-.688.776-1.086.927-2.272.733.106 5.286.106 10.756-2.779 13.049-1.281-.912-.738-2.323-1.237-3.734-.956-.5-2.207-1.312-2.932-2.02 1.411-1.368.065-2.475-.912-3.756.63-1.042 2.063-1.477 2.367-2.214-.326-.456-1.397-.775-1.477-2.128 1.338-.011 2.667-2.418 2.714-3.191.043-.717-.758-.314-.898-.945.198-1.379.654-1.684.117-2.768-.738-.26-4.364-.977-7.517.135-2.87 1.013-2.153 3.624-3.18 3.624-1.094 0-1.938-2.296-2.505-3.151-.589-.889-1.259-1.326-1.259-2.388 0-1.259 1.219-1.39 1.693-2.67.651-1.759 1.37-2.736 1.997-2.736 1.174 0 .29 1.998 3.083 3.518 1.237.673 2.915.66 5.775.673C5.65 21.21 12.664 4.232.006 8.792c-.195-2.931 4.786-5.265 8.793-2.91 7.057 4.147 5.168 12.745 9.943 13.179-.495-3.074.381-13.386 2.42-19.061 2.286 5.703 2.484 16.053 2.209 19.018C28.708 18.692 26.2 9.15 34.245 5.34c3.476-1.646 8.174.749 7.946 3.496-12.766-4.756-5.211 12.223-16.87 17.433" style="fill:#fff" transform="translate(-.006)scale(14.2185)"/><path d="M298.198 691.545c-1.052-3.44-1.493-7.777-2.033-13.65-.654-7.35-1.408-15.668-4.479-24.399a12.97 12.97 0 0 0-6.228-7.166c-8.843-4.62-20.574-11.844-29.93-19.067 11.062-20.417-3.938-39.2-13.92-51.343 2.958-2.602 6.442-5.033 9.868-7.407 7.579-5.29 15.427-10.75 18.968-19.338a13 13 0 0 0-1.436-12.47c-2.432-3.383-5.546-5.8-8.56-8.146-2.872-2.233-5.161-4.081-6.825-6.2 20.404-11.531 34.665-41.532 35.362-52.964.384-6.426-1.436-14.673-11.617-19.237.512-2.261 1.052-4.323 1.593-6.328 2.587-9.654 5.019-18.782-2.418-33.768a12.91 12.91 0 0 0-7.294-6.47c-8.104-2.858-30.513-7.393-56.191-7.393-21.826 0-41.788 3.128-59.306 9.313-30.854 10.891-38.404 33-42.925 46.21-.27.753-.54 1.578-.84 2.403-4.904-5.261-11.687-18.214-14.573-23.703-2.588-4.92-5.02-9.569-7.394-13.137-2.616-3.953-5.26-7.28-7.607-10.21-5.772-7.237-8.133-10.422-8.133-16.592 0-3.896 1.351-5.574 7.096-11.005 5.104-4.835 12.114-11.46 16.194-22.466 6.171-16.678 11.66-24.967 14.901-28.508.27.697.526 1.394.754 2.02 4.08 11.09 10.92 29.63 38.22 44.489 19.934 10.849 44.29 10.948 84.628 11.133l3.682.014c6.1 0 11.375-4.237 12.67-10.194 1.321-5.972-1.736-12.043-7.295-14.574-66.13-30.087-83.406-93.842-98.648-150.09-14.673-54.173-29.845-110.208-92.079-110.208-9.996 0-20.83 1.45-32.76 4.365a42 42 0 0 1 2.12-2.446c11.616-12.427 31.891-20.148 52.906-20.148a86.6 86.6 0 0 1 43.864 11.944c48.428 28.465 64.766 72.841 79.169 111.985 13.906 37.778 27.015 73.453 67.609 77.135.384.029.782.057 1.166.057a12.956 12.956 0 0 0 12.797-15.029c-5.432-33.769 1.905-143.024 21.953-224.453 19.493 79.61 21.47 189.05 18.157 224.695-.341 3.768.952 7.507 3.597 10.223a12.96 12.96 0 0 0 9.313 3.953c.256 0 .512-.015.782-.029 44.149-2.687 57.486-40.096 71.605-79.68 14.957-41.973 31.92-89.563 87.77-116.023 9-4.266 19.039-6.427 29.817-6.427 21.484 0 43.437 8.787 55.95 22.366.597.654 1.222 1.35 1.82 2.104-12.556-3.242-23.874-4.834-34.182-4.834-60.158 0-73.766 51.84-88.155 106.724-15.057 57.4-32.12 122.45-102.942 154.1-5.53 2.474-8.588 8.432-7.407 14.375a12.93 12.93 0 0 0 12.355 10.422c7.778.213 15.058.327 21.641.327 53.291 0 72.244-7.095 90.344-21.058 12.925-9.98 19.11-22.607 23.603-31.82.825-1.678 1.82-3.712 2.702-5.347 2.431 2.787 6.526 9.712 12.498 26.717.17.483.355.953.597 1.422 3.27 6.697 8.076 12.029 12.74 17.176 5.502 6.1 10.251 11.374 10.336 16.507.128 8.105-3.07 11.702-10.294 19.039-3.483 3.555-7.422 7.55-10.92 12.64-4.109 6.015-6.881 13.039-9.327 19.252-1.493 3.825-4.095 10.408-6.156 13.138-.612-1.465-1.28-3.299-1.835-4.82-4.976-13.721-13.308-36.684-49.537-49.054-10.849-3.697-23.716-5.488-39.343-5.488-17.53 0-35.36 2.246-51.1 4.223-7.608.952-14.788 1.862-20.731 2.346a12.96 12.96 0 0 0-11.276 8.83c-3.938 11.843-2.53 22.507-1.379 31.11.455 3.54 1.166 8.872.555 10.28-.015 0-.612.554-2.403 1.265-6.64 2.602-9.939 10.067-7.394 16.72 7.11 18.527 17.759 27.002 27.143 34.495 3.583 2.844 7.038 5.616 10.394 8.943-.938.228-1.905.242-3.043.242-2.19 0-5.09-.299-8.886-.91a13 13 0 0 0-2.076-.17c-3.1 0-6.128 1.108-8.503 3.17a12.92 12.92 0 0 0-4.465 10.067c1.195 58.85 2.645 130.867-25.394 165.83"/></svg>