<?xml version="1.0" encoding="UTF-8"?><svg id="Layer_2" xmlns="http://www.w3.org/2000/svg" width="207.41754" height="237.32235" xmlns:xlink="http://www.w3.org/1999/xlink" viewBox="0 0 207.41754 237.32235"><defs><style>.cls-1{fill:#fff;}.cls-2{fill:url(#radial-gradient);}</style><radialGradient id="radial-gradient" cx="103.62713" cy="120.3262" fx="-6.37297" fy="120.3262" r="110.9951" gradientTransform="translate(202.87351 15.64998) rotate(89.39768) scale(1 .83391)" gradientUnits="userSpaceOnUse"><stop offset=".43052" stop-color="#bf99c3"/><stop offset=".57065" stop-color="#bc96c0"/><stop offset=".6677" stop-color="#b48dba"/><stop offset=".75172" stop-color="#a77daf"/><stop offset=".82831" stop-color="#94679f"/><stop offset=".89917" stop-color="#7c4c8b"/><stop offset=".96273" stop-color="#612c75"/></radialGradient></defs><g id="Layer_2_copy_4"><path class="cls-2" d="M191.07634,115.9837c-7.65997-.52002-7.64996,7.26001-10.87,12.69-.77002,1.28998.17999,2.52997-2.48999,1.96997,2.34003-22.38,4-45.12-2.48999-67-7.54999-25.46997-28.60999-47.20001-55.51001-50.97998l11.5,62.98999h32.5l-60,68.45001-60-68.45001h32.5l11.5-62.98999c-44.94,7.27002-63.53998,52.95996-60.03998,94.52997l2.03998,23.45001c-2.21997.54999-3.63-3.59998-4.38-5.12-2.45001-4.98999-1.69-9.83997-8.77002-9.31-12.06995.90997-5.44,23.33002-2.60999,30.70001,4.03003,10.47998,12.12,22.33997,24.81,21.19,8.84003,24.67999,30.60999,49.77997,55.98999,58.01001,7.73004,2.5,10.20001,2.5,17.92004,0,20.59998-6.67999,40.12-25.95001,50.20996-44.79004,1.20001-2.25,5.17999-12.82001,5.79004-13.20996,1.64996-1.10004,6.83997,0,10.31-1.69,5.64996-2.73999,12.26001-13.70001,14.48999-19.51001,2.64996-6.89001,9.08002-30.15002-2.40002-30.92999ZM92.70635,151.65368l-2.97998-1c2.23999,11.52002-6.12,13.27002-15.52002,13.97998-16.75,1.26001-29.48999-7.51996-34.14996-23.5.38995-3.47998,18.14996-13.32001,22.64996-10.47998-2.01001-6.48999-10.67999-5.23999-15.97998-4.01001,1.94-2.62,8-3.78998,11.03998-3.53998,6.78003.57001,15.29999,7.20996,20.41998,11.58002,2.01001,1.70996,16.18005,15.07996,14.52002,16.96997ZM133.21636,164.63366c-9.40997-.70996-17.76001-2.45996-15.52002-13.97998l-2.98999,1c-1.65997-1.89001,12.52002-15.26001,14.52002-16.96997,5.13-4.37006,13.64001-11.01001,20.41998-11.58002,3.04999-.25,9.10999.91998,11.04999,3.53998-5.31-1.22998-13.96997-2.47998-15.98999,4.01001,4.51001-2.84003,22.27002,7,22.65002,10.47998-4.65002,15.98004-17.39001,24.76001-34.14001,23.5Z"/><path class="cls-1" d="M78.18633,134.68371c-5.12-4.37006-13.63995-11.01001-20.41998-11.58002-3.03998-.25-9.09998.91998-11.03998,3.53998,5.29999-1.22998,13.96997-2.47998,15.97998,4.01001-4.5-2.84003-22.26001,7-22.64996,10.47998,4.65997,15.98004,17.39996,24.76001,34.14996,23.5,9.40002-.70996,17.76001-2.45996,15.52002-13.97998l2.97998,1c1.66003-1.89001-12.51001-15.26001-14.52002-16.96997ZM84.44396,148.24761c-1.00061-1.60876-2.87909-3.65173-5.06744-5.6781,2.18958,2.02686,4.06866,4.07007,5.06744,5.6781ZM81.58232,159.12585c-.0694.02765-.1424.05225-.21301.07874.07062-.02649.14362-.05115.21301-.07874ZM81.03209,159.32916c-.12659.0434-.25726.08313-.38727.12341.13-.04028.26074-.08002.38727-.12341ZM80.45793,159.51208c-.13458.03979-.27301.07605-.41089.11279.13788-.0368.27631-.07306.41089-.11279ZM79.86198,159.67565c-.07581.01929-.15424.03613-.23096.05463.07672-.01849.15515-.03534.23096-.05463ZM63.77739,133.80053c-6.88324-.09387-13.414,4.43573-19.04095,7.88324l-.00006-.00006c5.62469-3.44769,12.15503-7.98175,19.04102-7.88318ZM144.70635,130.65368c2.02002-6.48999,10.67999-5.23999,15.98999-4.01001-1.94-2.62-8-3.78998-11.04999-3.53998-6.77997.57001-15.28998,7.20996-20.41998,11.58002-2,1.70996-16.17999,15.07996-14.52002,16.96997l2.98999-1c-2.23999,11.52002,6.11005,13.27002,15.52002,13.97998,16.75,1.26001,29.48999-7.51996,34.14001-23.5-.38-3.47998-18.14001-13.32001-22.65002-10.47998ZM147.66649,134.22729c1.5332.32507,3.04407.82666,4.52026,1.44611-1.47626-.6192-2.98706-1.12073-4.52026-1.44611ZM187.70635,106.65368c1.48999-26.96002-3.42999-59.15997-22.33997-79.65002C144.13634,4.01367,108.19634-6.1963,78.43633,3.87365,33.23637,19.18371,16.41637,61.59368,19.72636,106.65368c-27.46002-2.15002-20.65002,33.32001-12.72003,49.21002,2.81,5.63,9.14001,14.16998,14.38,17.62,3.23004,2.13,9.53003,3.01001,10.84003,4.15997.76001.66003,7.26001,14.66003,9.26001,17.73999,14.03998,21.57001,45.53998,48.37,73.01001,40.55005,24.76996-7.05005,45.25995-28.68005,57.39996-50.60004,1.06-1.90997,1.90002-6.46002,3.31-7.69,1.31-1.14996,7.60999-2.02997,10.84003-4.15997,10.13995-6.67999,18.44-23.86005,20.41998-35.58002,2.58002-15.33002,1.01001-32.92999-18.76001-31.25ZM114.83635,12.2337l12.38,68.41998-12.38055-68.41656c-7.1803-2.20068-15.03729-2.20648-22.23889,0l-13.38055,68.41656,13.38-68.41998c7.20001-2.20001,15.06-2.20001,22.23999,0ZM152.71636,80.65368l-49,56.42999-49-56.42999,49,56.42834,49-56.42834ZM193.47636,146.91369c-2.22998,5.81-8.84003,16.77002-14.48999,19.51001-3.47003,1.69-8.66003.58997-10.31,1.69-.61005.38995-4.59003,10.95996-5.79004,13.20996-10.08997,18.84003-29.60999,38.11005-50.20996,44.79004-7.72003,2.5-10.19,2.5-17.92004,0-25.38-8.23004-47.14996-33.33002-55.98999-58.01001-12.69,1.14996-20.77997-10.71002-24.81-21.19-2.83002-7.37-9.45996-29.79004,2.60999-30.70001,7.08002-.52997,6.32001,4.32001,8.77002,9.31.75,1.52002,2.16003,5.66998,4.38,5.12l-2.03998-23.45001c-3.5-41.57001,15.09998-87.25995,60.03998-94.52997l-11.5,62.98999h-32.5l60,68.45001,60-68.45001h-32.5l-11.5-62.98999c26.90002,3.77997,47.96002,25.51001,55.51001,50.97998,6.48999,21.88,4.83002,44.62,2.48999,67,2.66998.56,1.71997-.67999,2.48999-1.96997,3.22003-5.42999,3.21002-13.21002,10.87-12.69,11.48004.77997,5.04999,24.03998,2.40002,30.92999Z"/></g></svg>