<?xml version="1.0" encoding="UTF-8"?><svg id="Layer_2" xmlns="http://www.w3.org/2000/svg" width="207.41754" height="237.32235" viewBox="0 0 207.41754 237.32235"><g id="Layer_2_copy_7"><path d="M80.87328,144.00915c.05695.05688.11304.11371.16919.17047-.05627-.05682-.11218-.11346-.16919-.17047Z"/><path d="M82.33562,145.54357c.00751.0083.01569.01685.02313.02515-.00745-.0083-.01562-.01678-.02313-.02515Z"/><path d="M82.93871,146.23345c.04559.05383.08807.10632.13257.15967-.04456-.05341-.08691-.10583-.13257-.15967Z"/><path d="M81.5706,144.72234c.05341.05585.10767.11182.16022.16742-.05267-.05566-.10675-.11157-.16022-.16742Z"/><path d="M83.45659,146.86688c.05347.06763.10553.13464.15692.20135-.05145-.06677-.10339-.13367-.15692-.20135Z"/><path d="M47.96336,139.68652c.01379-.00848.02759-.01703.04144-.02551-.01385.00854-.02759.01703-.04144.02551Z"/><path d="M49.0949,138.9981c.0155-.00934.03113-.01868.04669-.02802-.01562.00934-.03113.01862-.04669.02802Z"/><path d="M83.93596,147.5006c.04248.05878.08673.11841.12738.17627-.04065-.05798-.08484-.11743-.12738-.17627Z"/><path d="M144.70635,130.65368c2.02002-6.48999,10.67999-5.23999,15.98999-4.01001-1.94-2.62-8-3.78998-11.04999-3.53998-6.77997.57001-15.28998,7.20996-20.41998,11.58002-2,1.70996-16.17999,15.07996-14.52002,16.96997l2.98999-1c-2.23999,11.52002,6.11005,13.27002,15.52002,13.97998,16.75,1.26001,29.48999-7.51996,34.14001-23.5-.38-3.47998-18.14001-13.32001-22.65002-10.47998ZM126.6649,159.20489c-6.68182-1.88409-5.92511-8.93433-2.40222-13.50482,2.28162-2.96014,14.42334-11.51807,18.24152-11.83923,2.0506-.17249,4.09302.0733,6.09552.59131.09174.02374.18378.04486.27533.06982.30414.0827.60657.17426.90857.26929.08734.02753.17493.0542.26208.0827.31665.10345.63159.21344.94556.32928.05731.02118.1145.0426.17175.06415.34302.12909.6842.26355,1.0235.40588.00006.00006.00018.00006.00024.00012-.00006-.00006-.00018-.00006-.00024-.00012,3.66827,1.53864,7.1156,3.80597,10.10376,5.96124-5.44263,15.53241-19.83508,22.02283-35.62537,17.57037Z"/><path d="M151.15569,135.26464c-.05243-.01971-.1048-.03931-.15723-.05872.05243.01941.10486.039.15723.05872Z"/><path d="M187.70635,106.65368c1.48999-26.96002-3.42999-59.15997-22.33997-79.65002C144.13634,4.01367,108.19634-6.1963,78.43633,3.87365,33.23637,19.18371,16.41637,61.59368,19.72636,106.65368c-27.46002-2.15002-20.65002,33.32001-12.72003,49.21002,2.81,5.63,9.14001,14.16998,14.38,17.62,3.23004,2.13,9.53003,3.01001,10.84003,4.15997.76001.66003,7.26001,14.66003,9.26001,17.73999,14.03998,21.57001,45.53998,48.37,73.01001,40.55005,24.76996-7.05005,45.25995-28.68005,57.39996-50.60004,1.06-1.90997,1.90002-6.46002,3.31-7.69,1.31-1.14996,7.60999-2.02997,10.84003-4.15997,10.13995-6.67999,18.44-23.86005,20.41998-35.58002,2.58002-15.33002,1.01001-32.92999-18.76001-31.25ZM114.83635,12.2337l12.38,68.41998h25.5l-49,56.42999-49-56.42999h24.5l13.38-68.41998c7.20001-2.20001,15.06-2.20001,22.23999,0ZM193.47636,146.91369c-2.22998,5.81-8.84003,16.77002-14.48999,19.51001-3.47003,1.69-8.66003.58997-10.31,1.69-.61005.38995-4.59003,10.95996-5.79004,13.20996-10.08997,18.84003-29.60999,38.11005-50.20996,44.79004-7.72003,2.5-10.19,2.5-17.92004,0-25.38-8.23004-47.14996-33.33002-55.98999-58.01001-12.69,1.14996-20.77997-10.71002-24.81-21.19-2.83002-7.37-9.45996-29.79004,2.60999-30.70001,7.08002-.52997,6.32001,4.32001,8.77002,9.31.75,1.52002,2.16003,5.66998,4.38,5.12l-2.03998-23.45001c-3.5-41.57001,15.09998-87.25995,60.03998-94.52997l-11.5,62.98999h-32.5l60,68.45001,60-68.45001h-32.5l-11.5-62.98999c26.90002,3.77997,47.96002,25.51001,55.51001,50.97998,6.48999,21.88,4.83002,44.62,2.48999,67,2.66998.56,1.71997-.67999,2.48999-1.96997,3.22003-5.42999,3.21002-13.21002,10.87-12.69,11.48004.77997,5.04999,24.03998,2.40002,30.92999Z"/><path d="M148.60765,134.45416c.08813.02283.17657.04315.26447.06708-.08795-.02399-.17639-.04419-.26447-.06708Z"/><path d="M78.18633,134.68371c-5.12-4.37006-13.63995-11.01001-20.41998-11.58002-3.03998-.25-9.09998.91998-11.03998,3.53998,5.29999-1.22998,13.96997-2.47998,15.97998,4.01001-4.5-2.84003-22.26001,7-22.64996,10.47998,4.65997,15.98004,17.39996,24.76001,34.14996,23.5,9.40002-.70996,17.76001-2.45996,15.52002-13.97998l2.97998,1c1.66003-1.89001-12.51001-15.26001-14.52002-16.96997ZM73.14903,160.53637c-13.77167.77948-23.15125-6.61896-28.41595-18.85052.00128-.00079.00269-.00165.00397-.00244-.00018.00012-.00043.00024-.00061.00037l-.00006-.00006c.06726-.04126.13629-.08435.20386-.12592.32275-.19849.64734-.39899.97583-.60309.3512-.2182.70544-.43854,1.06299-.66058.19983-.12421.40051-.24774.60223-.3725.19965-.12341.39935-.24622.60089-.36975.24347-.14941.48779-.29761.73389-.44653.14435-.08722.28912-.17365.43433-.26044.2818-.16864.5639-.33606.84894-.50244.07751-.04517.15576-.08923.23352-.13416,1.46997-.85114,2.98096-1.65436,4.52637-2.34174.01483-.00659.02966-.01343.04449-.01996.39069-.17316.78351-.3363,1.17841-.49261.01825-.0072.0365-.01434.05475-.02148,3.62695-1.42712,7.42346-2.09729,11.30054-1.01154,2.55133.71454,7.73993,4.4527,11.8396,8.24902l-.00049-.00049.00049.00049c.26343.24396.52185.48785.77533.73151.04175.04016.08191.07996.12335.12006.19672.19031.38989.38.57922.56915.07202.0719.14264.14331.2135.21497.15912.16101.31464.32098.46747.48035.07196.07501.14435.14996.21478.22449.16931.17926.33313.35681.49323.53308.04297.0473.0885.0954.1308.14252.19128.21307.37378.42279.54974.63013.06335.07465.12231.14734.18353.22113.11444.13794.22614.2746.33282.40924.06433.08124.12671.16144.18811.24133.10156.13214.19769.26178.29077.39008.05011.06909.10187.13892.14941.20679.48938.69867.84454,1.33405,1.02032,1.87213,3.03967,9.30493-4.4201,10.55377-11.94037,10.97943Z"/><path d="M80.15953,143.30859c.02997.02881.0589.0575.08868.08624-.02985-.02881-.05872-.05743-.08868-.08624Z"/><path d="M149.79265,134.79412c.08246.026.1651.05121.24738.07806-.08234-.02692-.16492-.052-.24738-.07806Z"/></g></svg>