<svg xmlns="http://www.w3.org/2000/svg" width="600" height="625.391"><path d="m516.448 417.26 27.783 52.095-36.71-7.52c5.315-14.165 8.317-29.065 8.927-44.575m-117.136 57.896c-14.54 17.167-37.023 26.876-49.234 31.207-4.94 1.766-9.772 3.174-14.54 4.58a25751 25751 0 0 0 45.325-47.576 3280 3280 0 0 1 20.638 4.221c-.61 2.565-1.22 5.066-2.189 7.568M61.992 311.413l113.665-52.58c26.438 48.249 84.646 74.625 133.865 96.857 6.91 3.127 13.445 6.051 19.73 9.037 44.044 20.591 68.043 45.45 73.171 75.61l-30.722-6.285-81.05 85.131c-2.502.125-5.129.375-7.568.375-8.74 0-17.042-.923-24.546-2.689-6.848-1.594-12.649-4.768-17.777-8.49l-12.524-113.836ZM326.876 96.982c8.177-1.704 15.995-2.627 23.39-2.627 23.39 0 39.947 8.552 49.093 25.407 2.69 4.83 7.395 16.682 11.554 27.126 1.157 2.924 2.251 5.675 3.299 8.365-15.025 3.048-26.391 5.315-31.207 6.285-6.785-7.083-31.942-33.521-59.975-62.961a132 132 0 0 1 3.846-1.595m139.306 207.223c-25.782-22.045-56.801-34.99-87.148-47.451-36.398-14.963-70.732-29.065-93.074-57.896-9.96-12.883-14.54-30.957-12.289-48.249 2.017-15.025 9.1-27.783 19.919-35.975 1.407-1.095 3.049-2.064 4.58-3.174l75.61 79.393 174.61-35.35zm25.469 9.475C503.565 292.12 600 117.635 600 117.635s-54.55 11.054-109.209 22.108c-2.314-33.099-6.285-88.258-6.285-88.258-.485-10.444-8.005-18.871-18.746-20.998-16.808-3.424-36.038-5.019-60.538-5.019-12.82 0-25.516.438-38.462.924-33.051 1.219-64.743 8.49-93.089 20.387A418069 418069 0 0 0 229.159 0l-6.786 56.676s-1.094 9.225-2.751 23.155c-14.103 12.461-25.47 26.689-33.584 42.323-16.495 22.78-24.797 49.281-24.797 78.784 0 11.914 1.595 22.78 4.394 32.911C105.722 261.523 0 310.444 0 310.444s180.91 90.51 203.143 101.626c.671 5.926 2.376 21.732 4.643 42.136-1.845-4.769-4.58-9.397-10.381-12.086l-16.495-8.927-1.767-.907-2.454-1.282h-4.707c-6.957 0-13.617 4.878-21.794 15.932-2.44 3.361-10.022 13.555-10.022 19.856v.546l.062.61 11.554 104.504c.173 3.236 1.83 9.396 10.491 12.883 8.38 3.299 17.714 6.097 27.861 8.427 9.71 2.189 20.763 3.424 33.396 3.846 1.845 16.854 3.065 27.783 3.065 27.783s11.054-11.601 26.985-28.393c12.164-.61 24.125-1.595 35.554-2.752 20.997-2.204 43.105-6.957 63.993-13.868 42.824-11.288 81.785-30.956 109.631-55.456 13.32-11.601 24.187-24.36 32.614-38.102a84816 84816 0 0 1 99.422 20.403S503.189 335.366 491.65 313.68" style="fill:#fff"/><path d="M469.966 167.776c2.439 0 3.611-1.157 3.611-3.612l-7.942-111.57c0-1.954-1.22-3.126-3.612-3.61-29.55-5.989-64.493-4.832-94.543-3.722-83.052 3.111-178.08 46.357-178.08 142.417 0 89.165 94.606 122.514 161.773 153.846 53.69 25.157 80.566 57.833 80.566 98.14 0 43.98-37.805 71.216-75.376 84.537-31.379 11.054-68.824 19.043-102.235 11.054-51.595-12.336-62.477-75.375-64.916-76.11l-17.23-9.272c-2.439 0-3.596 1.22-3.596 3.596l11.539 104.8c0 1.47 1.22 2.69 3.612 3.612 7.942 3.111 16.666 5.8 26.25 7.942 28.706 6.41 66.339 3.3 95.529.234 84.1-8.662 192.558-60.585 192.558-158.427 0-22.17-6.958-47.201-19.231-65.65-49.297-74.015-154.878-67.48-207.599-135.523-24.546-31.691-23.39-84.771 11.117-110.85 37.508-28.393 116.229-49.531 144.074 1.657 6.41 11.789 21.076 53.627 23.452 53.627zM240.76 508.38c5.128 3.72 10.929 6.895 17.777 8.49 7.504 1.766 15.744 2.688 24.609 2.688 2.376 0 5.003-.25 7.504-.375l81.051-85.131 30.722 6.285c-5.128-30.16-29.19-55.019-73.17-75.61-6.286-2.986-12.82-5.91-19.731-9.037-49.219-22.232-107.427-48.608-133.865-96.857l-113.728 52.58 166.307 83.13zm57.41-396.92c-1.531 1.11-3.173 2.08-4.58 3.174-10.866 8.192-17.902 20.95-19.919 35.975-2.251 17.292 2.33 35.366 12.289 48.249 22.28 28.83 56.676 42.933 93.074 57.896 30.347 12.46 61.366 25.406 87.148 47.451l82.208-148.702-174.61 35.35zm246.06 357.895-36.71-7.52c5.316-14.165 8.318-29.065 8.928-44.575z"/></svg>