<?xml version="1.0" encoding="UTF-8"?><svg id="Layer_2" xmlns="http://www.w3.org/2000/svg" width="112.04435" height="125.30846" viewBox="0 0 112.04435 125.30846"><g id="Layer_2-2"><path d="M23.61656,0c-3.67743,7.10477-7.32039,13.90808-9.29162,21.7468-1.412,5.61494-2.32466,11.77729-1.62733,17.53703l8.99768,6.22794c.34893-11.03144,5.40274-21.05355,11.86229-29.72763.19893-.26712-.00436-.59675.61784-.4521-.54733,3.72811-1.40326,7.4315-1.88454,11.1716-.72736,5.65249-1.26808,11.8134-.24476,17.42281l8.00617,6.31156,12.12427-7.12046v4.5513h7.68v-4.5513l12.12427,7.12046,8.00617-6.31156c1.03653-5.62501.47921-11.75763-.24476-17.42281-.47779-3.73871-1.31398-7.44922-1.88454-11.1716.62219-.14465.41891.18497.61784.4521,6.47617,8.6965,11.52206,18.65804,11.86229,29.72763l8.9982-6.22742c.71533-5.75261-.20992-11.93088-1.62763-17.53776-1.98398-7.8464-5.59413-14.6396-9.29183-21.74659h.48c3.6171,2.55033,6.98934,4.80036,9.96339,8.14104,8.63972,9.7048,12.30613,23.33603,10.79804,36.17566l-17.87942,13.05685.3017.41091,18.82759,8.51745c.33041.15497.57041.40543.68334.75521.1616.50051.31631,2.55141.35527,3.23854,1.25979,22.21923-9.71652,43.27305-28.79964,54.63566-.31872.18978-.49108.47031-.97026.3467,11.08452-15.00439,18.65253-33.21952,18.20071-52.17961l-5.95833-2.91256c.94596,10.16207-.76038,20.46981-6.1427,29.2038-3.55691,5.77186-8.64643,10.05368-13.53729,14.63228-.08292-.40532.11609-.69694.27832-1.03732,1.1527-2.41852,2.74656-4.69255,3.92414-7.1022,4.32785-8.85589,5.81517-19.30022,4.64106-29.07523-.10454-.87036-.48627-3.79105-.91295-4.35871l-9.6117-5.13714-6.05416,22.10481-11.0742,11.89273-10.89683-11.89595c-2.27512-7.16653-3.83084-14.57451-6.05239-21.75231-.08089-.26135.16812-.42844-.35905-.34593l-9.3534,5.27774c-2.27713,10.38141-1.24396,22.30817,3.18638,32.00992,1.29211,2.82953,3.27971,5.5718,4.57543,8.36848.1213.26181.46834.83046.14811,1.04995-4.79793-4.72378-9.83994-8.82028-13.42088-14.63113-3.90503-6.33676-6.06131-13.96375-6.39018-21.40889-.11525-2.60905.25597-5.19961.13146-7.79339l-5.89109,3.03344c-.2597,18.87258,7.09696,37.04626,18.24828,51.94107l-.36176.12276c-8.42763-5.73012-15.90888-11.90708-21.19091-20.7706C2.48066,94.74444-.60495,81.42997.09891,70.06838c.05291-.854.20832-3.10349.72942-3.58373l19.42751-8.75846-.49814-.81621L2.4796,44.45196C.488,30.01045,5.66813,13.81104,17.02368,4.31886,18.93188,2.72378,21.28476,1.67054,23.13656,0h.48ZM9.45656,19.4029c-1.33929,2.75143-2.86584,5.71679-3.12,8.86305-.39784.64227-.5295,1.59905-.65018,2.34525-.52709,3.25907-.89634,7.94183-.5636,11.20273.144,1.41127.46066.92562,1.21378,1.54317,1.01793.83468,2.06543,1.61042,3.12,2.39542,1.00682.74945,2.11164,1.41664,3.12,2.15588,1.66506,1.22067,3.37847,2.3806,5.04,3.59313,1.60482,1.17115,3.19437,2.41176,4.8,3.59313,1.26675.93204,2.48494,1.95621,3.84264,2.75717.06731.34577-.19317.40397-.41843.54077-.90042.54683-2.41903,1.02344-3.42421,1.49289-1.60752.75076-3.20282,1.66144-4.8,2.39542-1.61246.74101-3.3868,1.3964-5.04,2.15588-1.03875.4772-2.08219.96112-3.12,1.43725-1.04233.4782-2.08206.94973-3.12,1.43725-.98068.46063-2.04449.92452-3.093,1.22341-.831,8.19881.47311,16.43751,3.093,24.16804.85887,2.53427,1.6283,5.16442,3.12,7.4258.16167,1.1594,2.36998,4.16613,3.12,5.26992,1.27402,1.87496,2.55145,3.7062,4.07367,5.39602.26804.29755.79684.94559,1.20851.94965l-5.28218-12.57376c-.17992-1.92821-1.27681-4.51577-1.75844-6.50912-.51438-2.12892-.80487-4.31106-1.36156-6.42615-.10514-2.35243-.61448-4.7114-.72989-7.05662-.12541-2.54838.12751-5.13205-.0082-7.68422l.06133-.31383c.21141-.123.46123-.16039.67676-.27602,1.02683-.55091,2.08674-1.15242,3.12-1.67679,1.64502-.83485,3.38446-1.5617,5.04-2.39542,1.59443-.80295,3.2043-1.59496,4.8-2.39542,1.53163-.76832,3.03655-1.62859,4.56-2.39542,2.37047-1.19318,4.88184-2.17887,7.20255-3.47578.0866-.34998-.235-.38918-.40446-.55468-1.56124-1.52475-4.87991-3.45579-6.79809-4.83259-1.49302-1.07163-3.07471-2.05035-4.56-3.11405-1.61214-1.15454-3.1829-2.43034-4.8-3.59313-1.67291-1.20292-3.37785-2.37455-5.04-3.59313-.43343-.31776-2.53653-1.6471-2.65381-1.84309-.4249-.7101.04294-1.62619-.46619-2.22912v-6.46763c.37654-1.29073.33232-2.80561.51431-4.15774.76765-5.7035,2.52808-11.19483,4.5278-16.56052-.12303-.31836-.49353.28071-.5773.38204-1.92992,2.33465-3.15731,4.71483-4.46481,7.40094ZM101.37656,23.71466c.19197,2.98741,1.03376,5.97189,1.19759,8.98523.14556,2.6772.00773,5.39798-.3381,8.04608-.07526.27279-.62355.75296-.85949.93434-1.03068.79236-2.48127,1.5811-3.6,2.39542-1.28661.93653-2.55211,1.94955-3.84,2.8745-1.19782.86026-2.4346,1.79926-3.6,2.63496-1.45665,1.04456-3.07012,2.04692-4.56,3.11405-2.20375,1.57843-4.55006,3.03827-6.69383,4.6972-.3389.26225-1.22731.74502-1.22873,1.16916,2.63225,1.32234,5.28822,2.63151,7.92255,3.95486,1.49861.75283,3.06798,1.40806,4.56,2.15588,1.20156.60223,2.38981,1.30783,3.6,1.91634,1.27546.64133,2.56469,1.27472,3.84,1.91634,1.16859.58793,2.45677,1.07512,3.6,1.67679.58967.31034,1.14538.84653,1.88059.99632l.05707.31153c-.03138,3.52655.06643,7.03835-.25874,10.54841-.32093,3.46441-1.44436,7.09401-1.67893,10.42115-1.23192,3.73408-2.1856,7.58503-3.6,11.25847-1.04749,2.7205-2.43527,5.34889-3.60218,8.02246.46708-.05468,1.01568-.72763,1.32557-1.07236.78462-.8728,1.5603-1.93962,2.27661-2.87789.81718-1.0704,3.41921-4.38426,3.6-5.50947,1.81179-2.41703,2.80782-5.33226,3.84-8.14443,1.10581-3.01278,1.75256-5.22378,2.4-8.38397,1.16195-5.67156,1.81834-11.28749,1.21552-17.10101-.06916-.25984-.9178-.24453-1.21552-.38555-.80167-.37972-1.57596-.81529-2.4-1.19771-1.26858-.58872-2.5801-1.09609-3.84-1.67679-1.19767-.55202-2.39688-1.12504-3.6-1.67679-1.26466-.57997-2.61148-1.11582-3.84-1.67679-1.18331-.54032-2.40271-1.13164-3.6-1.67679-1.51697-.69071-2.96115-1.6258-4.56-2.15588v-.47908c1.62071-.80846,3.09368-2.0517,4.56-3.11405,1.20184-.87073,2.39877-1.76416,3.6-2.63496,1.29437-.93832,2.55318-1.93529,3.84-2.8745,1.20307-.87808,2.40122-1.7512,3.6-2.63496,1.23785-.91257,2.6173-1.67439,3.84-2.63496.4054-.31849,1.51127-.9612,1.63499-1.36232.34896-4.90597.0659-9.84106-1.07829-14.64265-.11944-.50123-.17409-1.10727-.5567-1.4816-.23934-2.78741-2.44093-6.87159-3.84-9.34214-.99319-1.75383-1.97278-3.44266-3.26481-5.00554-.08376-.10131-.45424-.70038-.57729-.38205l3.8421,12.09476.00002-.00003ZM26.97656,34.2545c-1.20775,3.60171-2.87843,9.02904-2.41504,12.83033.10503.86155,1.67155,1.68677,2.41504,2.26082,1.49016,1.15055,3.06555,2.21727,4.56,3.35359,1.67589,1.27428,3.36848,2.55312,5.04,3.83267.53746.41142,2.88339,2.06573,2.88255,2.51277-1.01556.39043-1.93134,1.07462-2.88255,1.55944-1.64245.83715-3.38589,1.5603-5.04,2.39542-1.53421.77458-3.03912,1.60462-4.56,2.39542-1.58511.82419-2.97277,1.48213-4.56,2.39542-.34896.20079-1.20797.22783-1.44062.65824-.16464.91843-.37905,1.89255-.47633,2.81815-.62644,5.96022.18259,11.92413,1.91696,17.60331,1.09275,3.57821,2.42421,7.1152,4.79766,10.06066-.54495-1.94448-1.05015-3.93978-1.36795-5.93825-1.30941-8.23423-.89218-14.94241,1.13029-22.80668,1.5909-.64019,3.05855-1.58388,4.56-2.39542,1.6922-.91465,3.39826-1.98486,5.04-2.8745,1.81585-.984,3.69898-1.87606,5.52-2.8745,1.57752-.86493,3.22713-1.65021,4.80255-2.51761.00135-.51562-4.08709-3.39474-4.80255-3.95002-1.79968-1.39677-3.76087-2.71207-5.52-4.07221-1.6451-1.27198-3.45572-2.57262-5.04-3.83267-.36022-.2865-2.11866-1.76434-2.22157-1.97466-.28682-.58614-.55579-2.69072-.62762-3.44579-.39781-4.18142.09507-8.57825.20676-12.78354l-1.07427,2.15798c-.37132.84276-.55385,1.76848-.84329,2.63165v-.00003ZM80.49656,47.66885c-2.21829,1.76149-4.67537,3.51561-6.96,5.26992-2.45227,1.88305-5.85852,3.92149-8.03522,5.99324-.18262.17382-.4332.28747-.36733.59174,2.76149,1.53396,5.62788,2.92241,8.40255,4.43395,2.3183,1.26293,4.65155,2.54986,6.96,3.83267,1.61029.89484,3.20799,1.84317,4.88848,2.61028l.39152.98285c.19322,3.14687,1.04274,6.28766,1.19755,9.46436.2936,6.02502-.6517,11.98966-1.9151,17.84224l2.91916-5.10743c1.12225-2.48161,1.74561-4.72136,2.35839-7.34756,1.36583-5.85356,1.98354-12.00417.65304-17.90825-.18316-.15968-.4571-.18026-.65304-.29694-1.46214-.87069-3.04915-1.60945-4.56-2.39542-1.74084-.90561-3.5268-1.75256-5.28-2.63496-2.29098-1.15306-4.68735-2.18334-6.96-3.35359-.29428-.15153-.60781-.48081-.96257-.6013-.00583-.4309.62868-.79405.96257-1.0755,2.07858-1.75211,4.74078-3.58159,6.96-5.26992,1.77951-1.35381,3.55014-2.70156,5.28-4.07221.60616-.48029,1.5612-.44695,1.69506-1.54215.37008-3.02779-.70566-7.55578-1.69506-10.43495-.09115-1.05989-.3952-1.78028-.71535-2.75932l-1.92221-4.42573.49194,8.01503c-.48551,2.08482.10493,6.66011-1.00089,8.36591-.10443.16109-1.79823,1.55682-2.13349,1.82304h0ZM48.57656,48.62702c-1.69205.93351-4.19252,2.37656-5.69665,3.5249-.12915.0986-.44137-.01349-.30492.42496.11075.35586,5.24939,3.92032,6.00157,4.43411.43347.29609.78762.75844,1.26275,1.01621l12.191.07546,7.4247-5.40784c.07698-.34392-.03275-.38771-.24841-.58454-1.40499-1.28236-4.56392-2.36974-6.11159-3.72123l-.11846,2.15432h-13.92l-.0024-2.15582c-.03483-.05063-.37332.18195-.4776.23949l.00002-.00002ZM70.65864,65.40064l-8.77274-4.54633-12.09671.12174-8.4145,4.42499,6.43268,22.67975,8.12213,8.67686,8.35023-8.62298s6.37891-22.73402,6.37891-22.73402Z"/></g></svg>