<?xml version="1.0" encoding="UTF-8" standalone="no"?>
<!-- Generator: Adobe Illustrator 15.1.0, SVG Export Plug-In . SVG Version: 6.00 Build 0)  -->

<svg
   version="1.1"
   id="Layer_1"
   x="0px"
   y="0px"
   width="150.00101"
   height="148.77295"
   viewBox="0 0 150.00101 148.77295"
   enable-background="new 0 0 150 149"
   xml:space="preserve"
   xmlns="http://www.w3.org/2000/svg"
   xmlns:svg="http://www.w3.org/2000/svg"><defs
   id="defs2" />
<g
   id="g2"
   transform="translate(-0.935,-0.33305324)">
	<g
   id="g1">
		<path
   fill="#818181"
   d="m 148.252,74.509 c -1.457,-9.059 -3.322,-18.075 -3.605,-19.083 -0.282,-1.006 -0.751,-1.441 -1.381,-1.646 -0.631,-0.207 -1.556,-0.047 -1.942,0.611 -0.386,0.658 -6.469,10.928 -6.469,10.928 l -15.343,-9.334 6.867,-16.431 c 0,0 10.957,4.733 11.657,5.039 0.702,0.305 1.541,-0.111 1.931,-0.647 0.39,-0.536 0.513,-1.165 0.149,-2.146 -0.363,-0.98 -4.154,-9.371 -8.3,-17.556 -4.145,-8.186 -9.612,-17.795 -9.612,-17.795 0,0 -10.828,-2.229 -19.894,-3.643 C 93.244,1.392 84.091,0.38 83.046,0.338 82.002,0.296 81.442,0.606 81.053,1.142 c -0.39,0.538 -0.524,1.465 -0.019,2.036 0.505,0.573 8.393,9.53 8.393,9.53 L 75.936,24.306 62.442,12.707 c 0,0 7.887,-8.958 8.394,-9.53 C 71.343,2.606 71.207,1.678 70.816,1.141 70.426,0.605 69.867,0.294 68.823,0.337 67.777,0.379 58.625,1.392 49.56,2.805 40.493,4.219 29.665,6.448 29.665,6.448 c 0,0 -5.468,9.609 -9.612,17.795 -4.144,8.186 -7.937,16.576 -8.3,17.556 -0.363,0.981 -0.24,1.61 0.15,2.146 0.391,0.536 1.23,0.952 1.931,0.647 0.7,-0.306 11.657,-5.039 11.657,-5.039 l 6.867,16.431 -15.341,9.334 c 0,0 -6.082,-10.27 -6.47,-10.928 -0.388,-0.658 -1.311,-0.817 -1.942,-0.611 -0.631,0.205 -1.1,0.64 -1.381,1.646 C 6.941,56.434 5.077,65.45 3.618,74.509 2.161,83.568 0.935,94.556 0.935,94.556 c 0,0 7.449,8.169 13.954,14.641 6.504,6.472 13.313,12.671 14.133,13.32 0.82,0.648 1.455,0.725 2.086,0.52 0.631,-0.205 1.285,-0.874 1.212,-1.636 -0.073,-0.761 -1.188,-12.644 -1.188,-12.644 l 18.154,-1.486 4.144,17.506 c 0,0 -11.646,2.61 -12.392,2.776 -0.747,0.165 -1.182,0.994 -1.182,1.658 0,0.663 0.269,1.243 1.14,1.823 0.87,0.58 8.87,5.141 17.035,9.325 8.165,4.187 18.236,8.747 18.236,8.747 0,0 10.072,-4.561 18.237,-8.747 8.164,-4.185 16.163,-8.745 17.033,-9.325 0.87,-0.58 1.14,-1.16 1.14,-1.823 0,-0.664 -0.435,-1.493 -1.181,-1.658 -0.747,-0.166 -12.393,-2.776 -12.393,-2.776 l 4.131,-17.453 17.505,1.434 c 0,0 -1.116,11.883 -1.189,12.644 -0.073,0.762 0.581,1.431 1.213,1.636 0.63,0.205 1.266,0.129 2.086,-0.52 0.82,-0.649 7.629,-6.849 14.133,-13.32 6.504,-6.471 13.954,-14.641 13.954,-14.641 0,0 -1.225,-10.99 -2.684,-20.048 z"
   id="path1" />
	</g>
	<path
   fill="#000000"
   d="m 143.096,75.339 c -0.607,-3.782 -1.271,-7.471 -1.857,-10.553 -0.895,1.51 -3.524,5.95 -4.34,7.327 l -18.439,4.765 -22.022,-13.395 9.883,-23.644 17.718,-6.986 7.819,3.378 c -1.339,-2.837 -2.969,-6.212 -4.699,-9.63 -2.926,-5.776 -6.498,-12.236 -8.33,-15.507 -3.676,-0.731 -10.927,-2.133 -17.322,-3.13 -3.785,-0.589 -7.498,-1.097 -10.609,-1.493 1.158,1.317 4.568,5.19 5.627,6.393 L 95.358,31.873 75.936,48.568 56.514,31.873 55.347,12.864 c 1.058,-1.203 4.468,-5.076 5.628,-6.393 -3.111,0.396 -6.825,0.904 -10.611,1.493 -6.396,0.998 -13.645,2.399 -17.321,3.13 -1.833,3.271 -5.405,9.731 -8.33,15.507 -1.73,3.417 -3.361,6.792 -4.699,9.63 l 7.818,-3.378 17.718,6.986 9.882,23.644 -22.02,13.396 -18.439,-4.765 C 14.157,70.737 11.528,66.297 10.634,64.787 10.048,67.869 9.384,71.558 8.775,75.34 7.746,81.73 6.84,89.058 6.398,92.78 c 2.545,2.754 7.585,8.148 12.175,12.715 2.716,2.701 5.42,5.295 7.706,7.444 L 25.482,104.46 37.6,89.768 l 25.945,-2.126 5.945,25.113 -10.23,16.065 -8.31,1.861 c 2.75,1.511 6.053,3.283 9.461,5.03 5.761,2.953 12.45,6.079 15.854,7.649 3.404,-1.57 10.093,-4.696 15.854,-7.649 3.408,-1.747 6.71,-3.52 9.461,-5.03 -1.713,-0.382 -6.748,-1.512 -8.311,-1.861 l -10.229,-16.065 5.933,-25.061 25.295,2.073 12.117,14.692 -0.797,8.479 c 2.286,-2.149 4.992,-4.743 7.708,-7.444 4.588,-4.566 9.63,-9.961 12.174,-12.715 -0.438,-3.721 -1.346,-11.049 -2.374,-17.44 z m -83.597,17.875 4.403,18.598 -5.958,9.358 -4.609,-19.472 -20.167,1.652 7.059,-8.56 z m 59.204,10.137 -19.516,-1.6 -4.597,19.419 -5.957,-9.358 4.391,-18.545 18.622,1.524 z m 11.326,-34.855 -10.74,2.774 -16.301,-9.917 7.299,-17.465 10.32,-4.069 -7.645,18.294 z M 32.583,71.27 21.843,68.496 38.908,58.113 31.262,39.819 41.583,43.888 48.882,61.355 Z M 60.911,18.278 75.935,31.194 90.958,18.278 90.278,29.351 75.936,41.682 61.592,29.351 Z"
   id="path2" />
</g>
</svg>
