<?xml version="1.0" encoding="UTF-8" standalone="no"?>
<!-- Generator: Adobe Illustrator 15.1.0, SVG Export Plug-In . SVG Version: 6.00 Build 0)  -->

<svg
   version="1.1"
   id="Layer_1"
   x="0px"
   y="0px"
   width="150.00101"
   height="148.77379"
   viewBox="0 0 150.00101 148.77379"
   enable-background="new 0 0 150 149"
   xml:space="preserve"
   xmlns="http://www.w3.org/2000/svg"
   xmlns:svg="http://www.w3.org/2000/svg"><defs
   id="defs2" />
<g
   id="g2"
   transform="translate(-0.602,-0.33221428)">
	<g
   id="g1">
		<path
   fill="#ffffff"
   d="m 147.919,74.509 c -1.457,-9.059 -3.323,-18.075 -3.604,-19.083 -0.283,-1.006 -0.752,-1.441 -1.383,-1.646 -0.63,-0.207 -1.555,-0.047 -1.942,0.611 -0.387,0.658 -6.469,10.928 -6.469,10.928 l -15.343,-9.334 6.868,-16.431 c 0,0 10.957,4.733 11.657,5.039 0.702,0.305 1.54,-0.111 1.931,-0.647 0.39,-0.536 0.513,-1.165 0.149,-2.146 -0.364,-0.98 -4.155,-9.371 -8.3,-17.556 -4.144,-8.186 -9.612,-17.795 -9.612,-17.795 0,0 -10.829,-2.229 -19.894,-3.643 C 92.91,1.391 83.759,0.379 82.715,0.336 81.669,0.294 81.111,0.604 80.72,1.14 c -0.39,0.538 -0.524,1.465 -0.018,2.036 0.505,0.573 8.394,9.53 8.394,9.53 L 75.602,24.306 62.108,12.707 c 0,0 7.888,-8.958 8.394,-9.53 C 71.009,2.606 70.874,1.678 70.483,1.141 70.093,0.605 69.534,0.294 68.49,0.337 67.444,0.379 58.293,1.392 49.227,2.805 40.161,4.219 29.332,6.448 29.332,6.448 c 0,0 -5.469,9.609 -9.612,17.795 -4.145,8.186 -7.937,16.576 -8.301,17.556 -0.363,0.981 -0.24,1.61 0.15,2.146 0.39,0.536 1.229,0.952 1.931,0.647 0.7,-0.306 11.657,-5.039 11.657,-5.039 l 6.867,16.431 -15.342,9.334 c 0,0 -6.082,-10.27 -6.469,-10.928 C 9.826,53.732 8.902,53.573 8.271,53.779 7.641,53.984 7.172,54.419 6.89,55.425 6.608,56.434 4.743,65.45 3.285,74.509 1.827,83.568 0.602,94.556 0.602,94.556 c 0,0 7.45,8.169 13.954,14.641 6.504,6.472 13.313,12.671 14.133,13.32 0.82,0.648 1.456,0.725 2.086,0.52 0.63,-0.205 1.286,-0.874 1.212,-1.636 -0.073,-0.761 -1.189,-12.644 -1.189,-12.644 l 18.154,-1.486 4.144,17.506 c 0,0 -11.646,2.61 -12.392,2.776 -0.746,0.165 -1.181,0.994 -1.181,1.658 0,0.663 0.269,1.243 1.14,1.823 0.87,0.58 8.87,5.141 17.035,9.325 8.164,4.187 18.236,8.747 18.236,8.747 0,0 10.072,-4.561 18.237,-8.747 8.165,-4.185 16.163,-8.745 17.034,-9.325 0.87,-0.58 1.139,-1.16 1.139,-1.823 0,-0.664 -0.434,-1.493 -1.181,-1.658 -0.746,-0.166 -12.393,-2.776 -12.393,-2.776 l 4.132,-17.453 17.504,1.434 c 0,0 -1.115,11.883 -1.188,12.644 -0.073,0.762 0.582,1.431 1.212,1.636 0.631,0.205 1.266,0.129 2.086,-0.52 0.82,-0.649 7.629,-6.849 14.133,-13.32 6.505,-6.472 13.954,-14.641 13.954,-14.641 0,0 -1.226,-10.99 -2.684,-20.048 z"
   id="path1" />
	</g>
	<path
   fill="#000000"
   d="m 142.763,75.339 c -0.607,-3.782 -1.272,-7.471 -1.858,-10.553 -0.894,1.51 -3.524,5.95 -4.339,7.327 l -18.439,4.765 -22.023,-13.395 9.884,-23.644 17.717,-6.986 7.818,3.378 c -1.339,-2.837 -2.968,-6.212 -4.699,-9.63 C 123.9,20.825 120.326,14.365 118.495,11.094 114.818,10.363 107.568,8.961 101.172,7.964 97.387,7.375 93.675,6.867 90.564,6.471 c 1.158,1.317 4.568,5.19 5.628,6.393 L 95.024,31.873 75.602,48.568 56.181,31.873 55.014,12.864 c 1.058,-1.203 4.469,-5.076 5.628,-6.393 -3.111,0.396 -6.825,0.904 -10.61,1.493 -6.396,0.998 -13.646,2.399 -17.322,3.13 -1.832,3.271 -5.405,9.731 -8.33,15.507 -1.73,3.417 -3.361,6.792 -4.699,9.63 L 27.499,32.853 45.217,39.839 55.1,63.483 33.08,76.879 14.64,72.114 C 13.824,70.737 11.195,66.297 10.3,64.787 9.714,67.869 9.05,71.558 8.442,75.34 7.413,81.73 6.506,89.058 6.064,92.78 c 2.545,2.754 7.586,8.148 12.175,12.715 2.716,2.701 5.421,5.295 7.707,7.444 l -0.797,-8.479 12.118,-14.692 25.945,-2.126 5.945,25.113 -10.229,16.065 -8.31,1.861 c 2.75,1.511 6.053,3.283 9.461,5.03 5.761,2.953 12.45,6.079 15.854,7.649 3.404,-1.57 10.092,-4.696 15.854,-7.649 3.407,-1.747 6.71,-3.52 9.46,-5.03 -1.711,-0.382 -6.747,-1.512 -8.309,-1.861 l -10.23,-16.065 5.933,-25.061 25.295,2.073 12.118,14.692 -0.797,8.479 c 2.287,-2.149 4.991,-4.743 7.707,-7.444 4.589,-4.566 9.63,-9.961 12.176,-12.715 -0.442,-3.721 -1.349,-11.049 -2.377,-17.44 z M 59.165,93.214 63.567,111.812 57.609,121.17 53,101.698 32.834,103.35 39.892,94.79 Z m 59.205,10.137 -19.516,-1.6 -4.597,19.419 -5.959,-9.358 4.392,-18.545 18.621,1.524 z m 11.325,-34.855 -10.74,2.774 -16.301,-9.917 7.301,-17.465 10.319,-4.069 -7.645,18.294 z M 32.249,71.27 21.509,68.496 38.574,58.113 30.928,39.819 41.249,43.888 48.548,61.355 Z M 60.578,18.278 75.602,31.194 90.625,18.278 89.945,29.351 75.602,41.682 61.258,29.351 Z"
   id="path2" />
</g>
</svg>
