<?xml version="1.0" encoding="UTF-8" standalone="no"?>
<!-- Generator: Adobe Illustrator 15.1.0, SVG Export Plug-In . SVG Version: 6.00 Build 0)  -->

<svg
   version="1.1"
   id="Layer_1"
   x="0px"
   y="0px"
   width="150.00101"
   height="148.77379"
   viewBox="0 0 150.00101 148.77379"
   enable-background="new 0 0 150 149"
   xml:space="preserve"
   xmlns="http://www.w3.org/2000/svg"
   xmlns:svg="http://www.w3.org/2000/svg"><defs
   id="defs7" />
<g
   id="g7"
   transform="translate(-0.102,-0.33221428)">
	<g
   id="g1">
		<path
   fill="#000000"
   d="m 147.42,74.509 c -1.458,-9.059 -3.324,-18.075 -3.605,-19.083 -0.282,-1.006 -0.751,-1.441 -1.383,-1.646 -0.63,-0.207 -1.554,-0.047 -1.942,0.611 -0.387,0.658 -6.469,10.928 -6.469,10.928 l -15.343,-9.334 6.869,-16.431 c 0,0 10.957,4.733 11.657,5.039 0.701,0.305 1.539,-0.111 1.931,-0.647 0.39,-0.536 0.513,-1.165 0.149,-2.146 -0.365,-0.98 -4.156,-9.371 -8.3,-17.556 -4.145,-8.186 -9.612,-17.795 -9.612,-17.795 0,0 -10.83,-2.229 -19.895,-3.643 C 92.41,1.391 83.259,0.379 82.215,0.336 81.169,0.294 80.611,0.604 80.22,1.14 c -0.39,0.538 -0.524,1.465 -0.018,2.036 0.505,0.573 8.394,9.53 8.394,9.53 L 75.102,24.306 61.609,12.707 c 0,0 7.888,-8.958 8.394,-9.53 C 70.51,2.606 70.374,1.678 69.984,1.141 69.594,0.605 69.035,0.294 67.992,0.337 66.946,0.379 57.794,1.392 48.728,2.805 39.661,4.219 28.833,6.448 28.833,6.448 c 0,0 -5.468,9.609 -9.612,17.795 -4.145,8.186 -7.937,16.576 -8.3,17.556 -0.363,0.981 -0.24,1.61 0.15,2.146 0.391,0.536 1.23,0.952 1.931,0.647 0.7,-0.306 11.657,-5.039 11.657,-5.039 l 6.867,16.431 -15.341,9.334 c 0,0 -6.082,-10.27 -6.469,-10.928 -0.388,-0.658 -1.311,-0.817 -1.942,-0.611 -0.631,0.205 -1.1,0.64 -1.381,1.646 -0.285,1.009 -2.15,10.025 -3.608,19.084 -1.458,9.059 -2.683,20.047 -2.683,20.047 0,0 7.45,8.169 13.955,14.641 6.504,6.472 13.313,12.671 14.133,13.32 0.82,0.648 1.455,0.725 2.086,0.52 0.63,-0.205 1.285,-0.874 1.212,-1.636 C 31.415,120.64 30.3,108.757 30.3,108.757 l 18.154,-1.486 4.144,17.506 c 0,0 -11.646,2.61 -12.392,2.776 -0.746,0.165 -1.181,0.994 -1.181,1.658 0,0.663 0.269,1.243 1.14,1.823 0.87,0.58 8.87,5.141 17.036,9.325 8.164,4.188 18.236,8.747 18.234,8.747 0,0 10.072,-4.56 18.237,-8.747 8.165,-4.185 16.163,-8.745 17.035,-9.325 0.87,-0.58 1.138,-1.16 1.138,-1.823 0,-0.664 -0.434,-1.493 -1.181,-1.658 -0.745,-0.166 -12.393,-2.776 -12.393,-2.776 l 4.133,-17.453 17.503,1.434 c 0,0 -1.114,11.883 -1.188,12.644 -0.073,0.762 0.581,1.431 1.211,1.636 0.632,0.205 1.266,0.129 2.086,-0.52 0.82,-0.649 7.629,-6.849 14.133,-13.32 6.506,-6.472 13.954,-14.641 13.954,-14.641 0,0 -1.226,-10.99 -2.683,-20.048 z"
   id="path1" />
	</g>
	<radialGradient
   id="SVGID_1_"
   cx="75.102501"
   cy="74.917"
   r="68.994301"
   gradientUnits="userSpaceOnUse">
		<stop
   offset="0"
   style="stop-color:#F79820"
   id="stop1" />
		<stop
   offset="0.65"
   style="stop-color:#E07826"
   id="stop2" />
		<stop
   offset="0.7257"
   style="stop-color:#DE7526"
   id="stop3" />
		<stop
   offset="0.8042"
   style="stop-color:#D76A27"
   id="stop4" />
		<stop
   offset="0.8839"
   style="stop-color:#CD5827"
   id="stop5" />
		<stop
   offset="0.964"
   style="stop-color:#C13E27"
   id="stop6" />
		<stop
   offset="1"
   style="stop-color:#BB2F27"
   id="stop7" />
	</radialGradient>
	<path
   fill="url(#SVGID_1_)"
   d="m 142.264,75.339 c -0.608,-3.782 -1.273,-7.471 -1.859,-10.553 -0.894,1.51 -3.524,5.95 -4.339,7.327 l -18.439,4.765 -22.023,-13.395 9.884,-23.644 17.718,-6.986 7.817,3.378 c -1.339,-2.837 -2.968,-6.212 -4.699,-9.63 C 123.4,20.825 119.826,14.365 117.995,11.094 114.318,10.363 107.069,8.961 100.672,7.964 96.887,7.375 93.175,6.867 90.064,6.471 c 1.158,1.317 4.568,5.19 5.628,6.393 L 94.524,31.873 75.102,48.568 55.681,31.873 54.514,12.864 c 1.059,-1.203 4.469,-5.076 5.629,-6.393 -3.111,0.396 -6.826,0.904 -10.612,1.493 -6.396,0.998 -13.645,2.399 -17.322,3.13 -1.833,3.271 -5.405,9.731 -8.33,15.507 -1.73,3.417 -3.361,6.792 -4.699,9.63 l 7.818,-3.378 17.718,6.986 9.883,23.644 L 32.579,76.879 14.14,72.114 C 13.324,70.737 10.695,66.297 9.8,64.787 9.214,67.869 8.55,71.558 7.941,75.34 6.913,81.73 6.006,89.058 5.564,92.78 c 2.545,2.754 7.585,8.148 12.175,12.715 2.716,2.701 5.421,5.295 7.707,7.444 l -0.797,-8.479 12.118,-14.692 25.945,-2.126 5.946,25.113 -10.229,16.065 -8.311,1.861 c 2.75,1.511 6.052,3.283 9.462,5.03 5.76,2.953 12.448,6.079 15.854,7.65 3.404,-1.571 10.091,-4.697 15.854,-7.65 3.407,-1.747 6.71,-3.52 9.46,-5.03 -1.711,-0.382 -6.747,-1.512 -8.309,-1.861 l -10.23,-16.065 5.933,-25.061 25.295,2.073 12.119,14.692 -0.797,8.479 c 2.286,-2.149 4.99,-4.743 7.706,-7.444 4.59,-4.566 9.63,-9.961 12.176,-12.715 -0.443,-3.721 -1.349,-11.049 -2.377,-17.44 z m -83.598,17.875 4.402,18.598 -5.958,9.358 -4.61,-19.472 -20.167,1.652 7.059,-8.56 z m 59.205,10.137 -19.517,-1.6 -4.597,19.419 -5.959,-9.358 4.392,-18.545 18.621,1.524 z m 11.324,-34.855 -10.74,2.774 -16.301,-9.917 7.301,-17.465 10.32,-4.069 -7.646,18.294 z M 31.749,71.27 21.009,68.496 38.074,58.113 30.428,39.819 40.749,43.888 48.048,61.355 Z M 60.078,18.278 75.101,31.194 90.124,18.278 89.444,29.351 75.102,41.682 60.758,29.351 Z"
   id="path7"
   style="fill:url(#SVGID_1_)" />
</g>
</svg>
