<?xml version="1.0" encoding="UTF-8" standalone="no"?>
<!-- Generator: Adobe Illustrator 15.1.0, SVG Export Plug-In . SVG Version: 6.00 Build 0)  -->

<svg
   version="1.1"
   id="Layer_1"
   x="0px"
   y="0px"
   width="150"
   height="148.77295"
   viewBox="0 0 150 148.77295"
   enable-background="new 0 0 150 149"
   xml:space="preserve"
   xmlns="http://www.w3.org/2000/svg"
   xmlns:svg="http://www.w3.org/2000/svg"><defs
   id="defs6" />
<g
   id="g6"
   transform="translate(-0.768,-0.33305324)">
	<g
   id="g1">
		<path
   fill="#000000"
   d="m 148.086,74.509 c -1.459,-9.059 -3.323,-18.075 -3.605,-19.083 -0.281,-1.006 -0.75,-1.441 -1.382,-1.646 -0.632,-0.207 -1.554,-0.047 -1.942,0.611 -0.388,0.658 -6.471,10.928 -6.471,10.928 l -15.341,-9.334 6.868,-16.431 c 0,0 10.957,4.733 11.658,5.039 0.699,0.305 1.537,-0.111 1.93,-0.647 0.391,-0.536 0.514,-1.165 0.15,-2.146 -0.365,-0.98 -4.156,-9.371 -8.301,-17.556 -4.145,-8.185 -9.611,-17.795 -9.611,-17.795 0,0 -10.83,-2.229 -19.896,-3.643 C 93.078,1.392 83.926,0.38 82.881,0.338 81.836,0.296 81.277,0.606 80.887,1.142 c -0.391,0.538 -0.525,1.465 -0.02,2.036 0.508,0.573 8.395,9.53 8.395,9.53 L 75.769,24.306 62.275,12.707 c 0,0 7.887,-8.958 8.394,-9.53 C 71.176,2.606 71.04,1.678 70.649,1.141 70.259,0.605 69.7,0.294 68.656,0.337 67.61,0.379 58.458,1.392 49.393,2.805 40.326,4.219 29.498,6.448 29.498,6.448 c 0,0 -5.468,9.609 -9.612,17.795 -4.144,8.186 -7.937,16.576 -8.3,17.556 -0.363,0.981 -0.24,1.61 0.15,2.146 0.391,0.536 1.23,0.952 1.931,0.647 0.7,-0.306 11.657,-5.039 11.657,-5.039 l 6.867,16.431 -15.341,9.334 c 0,0 -6.082,-10.27 -6.47,-10.928 C 9.992,53.732 9.07,53.573 8.438,53.78 7.807,53.985 7.338,54.42 7.057,55.426 6.774,56.434 4.91,65.45 3.451,74.509 1.994,83.568 0.768,94.556 0.768,94.556 c 0,0 7.449,8.169 13.954,14.641 6.504,6.472 13.313,12.671 14.133,13.32 0.82,0.648 1.455,0.725 2.086,0.52 0.631,-0.205 1.285,-0.874 1.212,-1.636 -0.073,-0.761 -1.188,-12.644 -1.188,-12.644 l 18.154,-1.486 4.144,17.506 c 0,0 -11.646,2.61 -12.392,2.776 -0.747,0.165 -1.182,0.994 -1.182,1.658 0,0.663 0.269,1.243 1.14,1.823 0.87,0.58 8.87,5.141 17.035,9.325 8.165,4.187 18.237,8.747 18.236,8.747 0,0 10.07,-4.561 18.236,-8.747 8.164,-4.185 16.164,-8.745 17.035,-9.325 0.871,-0.58 1.139,-1.16 1.139,-1.823 0,-0.664 -0.436,-1.493 -1.181,-1.658 -0.745,-0.166 -12.393,-2.776 -12.393,-2.776 l 4.132,-17.453 17.504,1.434 c 0,0 -1.115,11.883 -1.188,12.644 -0.074,0.762 0.58,1.431 1.211,1.636 0.631,0.205 1.266,0.129 2.086,-0.52 0.82,-0.649 7.629,-6.849 14.133,-13.32 6.506,-6.472 13.954,-14.641 13.954,-14.641 0,0 -1.225,-10.99 -2.682,-20.048 z"
   id="path1" />
	</g>
	<radialGradient
   id="SVGID_1_"
   cx="75.7686"
   cy="74.917"
   r="68.993896"
   gradientUnits="userSpaceOnUse">
		<stop
   offset="0"
   style="stop-color:#BF99C2"
   id="stop1" />
		<stop
   offset="0.65"
   style="stop-color:#7B5290"
   id="stop2" />
		<stop
   offset="0.7487"
   style="stop-color:#794F8E"
   id="stop3" />
		<stop
   offset="0.8509"
   style="stop-color:#724586"
   id="stop4" />
		<stop
   offset="0.9544"
   style="stop-color:#68357C"
   id="stop5" />
		<stop
   offset="1"
   style="stop-color:#622D76"
   id="stop6" />
	</radialGradient>
	<path
   fill="url(#SVGID_1_)"
   d="m 142.93,75.339 c -0.609,-3.782 -1.273,-7.471 -1.859,-10.553 -0.895,1.51 -3.523,5.95 -4.34,7.327 l -18.439,4.765 -22.02,-13.396 9.883,-23.644 17.719,-6.986 7.817,3.378 c -1.339,-2.837 -2.97,-6.212 -4.699,-9.63 -2.925,-5.776 -6.498,-12.236 -8.331,-15.507 C 114.985,10.362 107.737,8.96 101.34,7.963 97.555,7.374 93.841,6.866 90.73,6.47 c 1.16,1.317 4.57,5.19 5.629,6.393 L 95.193,31.872 75.769,48.568 56.347,31.873 55.18,12.864 c 1.058,-1.203 4.468,-5.076 5.628,-6.393 -3.111,0.396 -6.825,0.904 -10.611,1.493 -6.396,0.998 -13.645,2.399 -17.321,3.13 -1.833,3.271 -5.405,9.731 -8.33,15.507 -1.73,3.417 -3.361,6.792 -4.699,9.63 l 7.818,-3.378 17.718,6.986 9.882,23.644 -22.02,13.396 -18.439,-4.765 C 13.99,70.737 11.361,66.297 10.467,64.787 9.881,67.869 9.217,71.558 8.608,75.34 7.579,81.73 6.673,89.058 6.231,92.78 c 2.545,2.754 7.585,8.148 12.175,12.715 2.716,2.701 5.42,5.295 7.706,7.444 l -0.797,-8.479 12.118,-14.692 25.945,-2.126 5.945,25.113 -10.23,16.065 -8.31,1.861 c 2.75,1.511 6.053,3.283 9.461,5.03 5.761,2.953 12.45,6.079 15.855,7.649 3.405,-1.57 10.092,-4.696 15.853,-7.649 3.409,-1.747 6.713,-3.52 9.462,-5.03 -1.712,-0.382 -6.749,-1.512 -8.31,-1.861 l -10.229,-16.065 5.931,-25.061 25.297,2.073 12.119,14.692 -0.797,8.479 c 2.285,-2.149 4.988,-4.743 7.705,-7.444 4.59,-4.566 9.629,-9.961 12.176,-12.715 -0.443,-3.721 -1.347,-11.049 -2.376,-17.44 z m -83.598,17.875 4.403,18.598 -5.958,9.358 -4.609,-19.472 -20.168,1.653 7.059,-8.56 z m 59.205,10.137 -19.518,-1.6 -4.596,19.419 -5.958,-9.358 4.39,-18.545 18.623,1.524 z m 11.324,-34.855 -10.74,2.774 -16.301,-9.917 7.301,-17.465 10.32,-4.069 -7.646,18.294 z M 32.416,71.27 21.676,68.496 38.741,58.113 31.095,39.819 41.416,43.888 48.715,61.355 Z M 60.744,18.278 75.768,31.194 90.791,18.278 90.11,29.351 75.769,41.682 61.425,29.351 Z"
   id="path6"
   style="fill:url(#SVGID_1_)" />
</g>
</svg>
