<?xml version="1.0" encoding="UTF-8" standalone="no"?>
<!-- Generator: Adobe Illustrator 15.1.0, SVG Export Plug-In . SVG Version: 6.00 Build 0)  -->

<svg
   version="1.1"
   id="Layer_1"
   x="0px"
   y="0px"
   width="150.00101"
   height="147.64301"
   viewBox="0 0 150.00101 147.64301"
   enable-background="new 0 0 150 149"
   xml:space="preserve"
   xmlns="http://www.w3.org/2000/svg"
   xmlns:svg="http://www.w3.org/2000/svg"><defs
   id="defs1" />
<g
   id="g1"
   transform="translate(-0.602,-1.029)">
	<path
   fill="#000000"
   d="m 148.039,75.307 c -0.656,-4.079 -1.373,-8.057 -2.005,-11.381 -0.964,1.629 -3.802,6.417 -4.68,7.903 l -19.889,5.14 -23.75,-14.45 10.66,-25.501 19.109,-7.535 8.432,3.644 C 134.472,30.066 132.715,26.426 130.848,22.741 127.695,16.511 123.839,9.544 121.865,6.016 117.899,5.227 110.081,3.716 103.181,2.64 99.098,2.005 95.094,1.457 91.739,1.03 c 1.25,1.42 4.928,5.598 6.07,6.895 L 96.549,28.427 75.602,46.433 54.655,28.426 53.396,7.924 C 54.537,6.627 58.215,2.449 59.466,1.029 56.111,1.456 52.105,2.004 48.022,2.639 41.124,3.715 33.306,5.227 29.34,6.015 27.363,9.543 23.51,16.51 20.356,22.74 18.49,26.426 16.731,30.066 15.288,33.126 l 8.432,-3.644 19.11,7.535 10.659,25.501 -23.75,14.45 -19.888,-5.14 C 8.971,70.343 6.135,65.554 5.17,63.925 4.538,67.249 3.821,71.227 3.165,75.306 2.056,82.2 1.079,90.103 0.602,94.117 c 2.745,2.971 8.182,8.789 13.131,13.714 2.929,2.913 5.847,5.711 8.312,8.029 l -0.859,-9.145 13.07,-15.847 27.983,-2.293 6.412,27.086 -11.034,17.327 -8.962,2.008 c 2.966,1.629 6.528,3.541 10.205,5.426 6.214,3.186 13.428,6.557 17.1,8.25 3.672,-1.693 10.884,-5.064 17.1,-8.25 3.675,-1.885 7.237,-3.797 10.203,-5.426 -1.846,-0.412 -7.277,-1.63 -8.962,-2.008 l -11.034,-17.327 6.399,-27.028 27.281,2.235 13.071,15.847 -0.86,9.145 c 2.467,-2.318 5.383,-5.116 8.313,-8.029 4.95,-4.925 10.387,-10.743 13.132,-13.714 -0.477,-4.014 -1.456,-11.917 -2.564,-18.81 z m -90.165,19.278 4.748,20.059 -6.426,10.094 -4.971,-21.002 -21.75,1.782 7.613,-9.231 z m 63.855,10.933 -21.049,-1.725 -4.958,20.944 -6.427,-10.094 4.736,-20.002 20.084,1.645 z m 12.215,-37.593 -11.584,2.993 -17.581,-10.696 7.874,-18.837 11.131,-4.389 -8.246,19.731 z M 28.844,70.918 17.26,67.925 35.666,56.727 27.419,36.996 l 11.132,4.389 7.873,18.839 z m 30.553,-57.155 16.205,13.93 16.203,-13.93 -0.733,11.942 -15.469,13.3 -15.471,-13.3 z"
   id="path1" />
</g>
</svg>
