<svg xmlns="http://www.w3.org/2000/svg" width="599.999" height="562.67" data-name="Layer 2" viewBox="0 0 599.999 562.67"><defs><radialGradient id="a" cx="-656.54" cy="821.04" r="1" fx="-656.54" fy="821.04" gradientTransform="matrix(267.9 0 0 -267.9 176187.89 220238.17)" gradientUnits="userSpaceOnUse"><stop offset="0" stop-color="#bf99c3"/><stop offset=".16" stop-color="#ba93bf"/><stop offset=".37" stop-color="#ad84b4"/><stop offset=".6" stop-color="#976aa1"/><stop offset=".84" stop-color="#784788"/><stop offset="1" stop-color="#612c75"/></radialGradient></defs><g data-name="Layer 1"><path d="M302.47 562.67c-87.79 0-170.76-36.24-227.65-99.41-.72-.81-1.38-1.63-2.01-2.54-.88-.1-1.75-.26-2.64-.44-.72.13-1.45.25-2.16.38-3.99.53-7.51.79-10.93.79-12.75 0-24.36-4.24-33.57-12.25-10.07-8.79-15.41-20.63-15.41-34.19 0-5.09.72-9.92 2.13-14.44 1.51-4.86 3.9-9.44 7.1-13.53 3.17-4.05 7.16-7.63 11.96-10.59 2.36-1.44 4.71-2.64 7.03-3.61l-25.9-60.04c-2.45-5.84-2.86-12.15-1.35-17.99-5.56-5.02-9.04-12.4-9.08-20.59 0-6.09 1.82-11.81 5.31-16.71 2.42-3.3 5.87-6.21 9.61-7.88 3.61-1.63 6.09-5.47 10.18-12.15l.56-.88c6.88-17.36 12.31-32.37 17.02-47.19.41-1.25 1.04-2.7 1.63-3.9.35-.59.66-1.19 1.04-1.78.13-4.02 1.26-8.1 3.3-11.49.44-.69.85-1.45 1.29-2.23-6.41-4.08-10.55-11.31-10.55-19.35v-1.19c0-.69.03-1.41.1-2.11.81-8.57 5.37-14.07 7.31-16.42.31-.38.88-1 1.22-1.38 1.63-1.72 6.13-6.4 13.32-8.7.56-4.17 2.23-8.19 5.02-11.55C123.39 39.85 209.46 0 302.47 0s179.1 39.85 236.15 109.3c2.01 2.42 3.42 5.18 4.27 8.1.38.09.78.22 1.16.35 3.61-2.27 7.82-3.46 12.12-3.46 2.29 0 4.65.35 6.94 1.07l1 .31c13.29 4.02 22.86 17.08 22.92 31.74v.88c0 7.31-3.49 14.16-9.32 18.46a23.1 23.1 0 0 1-1.45 7.44v.1c4.77.19 9.2 1.7 13.09 4.33 7.1 4.99 11.02 13.09 10.61 21.48-.03.06-.03.12-.03.22-.31 5.65-2.36 9.58-3.23 11.3-1.95 3.74-5.06 7.23-8.67 9.39-3.36 2.04-6.85 4.12-10.46 6.06 2.11 1.58 3.92 3.49 5.4 5.72 3.2 4.84 4.43 10.71 3.52 16.42.66 2.52.97 5.09.97 7.72 0 3.3-.51 6.5-1.51 9.55.44 1.95.66 3.92.66 5.93 0 5.09-1.35 9.92-3.92 14.16a25.84 25.84 0 0 1 3.33 11.05c.47 7.22-2.04 14.03-7 19.34-1.73 1.82-3.71 3.46-5.91 4.77 1.7 3.42 2.55 7.15 2.55 10.89 0 6.82-2.77 13.88-8.73 18.94 13 3.36 21.92 13.43 21.92 26.06 0 1.38-.13 2.76-.32 4.08 6.5 6.53 10.05 15.29 10.05 25.12 0 10.55-3.86 19.75-11.08 26.62-3.14 2.95-8.01 6.47-14.98 8.63-2.01 6.44-5.77 10.43-8.32 12.5-3.46 2.83-9.51 6.25-18.56 6.25-4.65 0-8.75-.81-12.27-2.26-.84 1.7-1.98 3.23-3.23 4.68-56.93 63.17-139.89 99.41-227.67 99.41" style="fill:#fff;stroke-width:0" transform="translate(.01)"/><path d="M84.09 123.87h57.24c38.15-55.98 96.14-91.75 161.14-91.75s123.02 35.77 161.13 91.75h57.27C470.51 62.52 391.41 22.96 302.46 22.96c-88.96 0-168.02 39.56-218.38 100.91m412.71 22.86c-7.72 6.59-11.24 17.56-11.27 28.64.03 13.56 5.27 27.53 15.7 34.22 8.07 3.71 15.83 6.7 23.17 7.67 2.36.31 4.65.47 6.94.47 13.95 0 27.47-5.72 44.49-16.11l.35-.19.16-.35c.44-.82.69-1.32.72-2.14.03-.38-.19-1.07-.66-1.38-.51-.31-.92-.35-1.17-.35-.72.03-1.25.23-1.29.16h-.22l-.23.1c-.88.28-1.82.75-2.39.94-9.1 2.39-19.52 4.68-29.07 4.68-14.63-.1-26.72-5.02-30.42-23.46-.41-2.45-.69-4.9-.69-7.22 0-2.58.35-4.97 1.13-7.01 5.93-12.09 10.08-14.73 21.25-14.88 2.7 0 5.88.19 9.52.5 3.54 1.73 4.71 4.87 4.77 9.61 0 1.75-.23 3.71-.54 5.77l-.06.41.19.38c.76 1.38 2.11 1.7 3.3 1.73 1.54-.03 3.42-.63 4.21-2.57l.09-.23v-.22c.06-8.17 2.64-13.57 8.63-17.21l.69-.4v-.76c-.06-5.81-4.05-9.14-6.97-9.98l-.97-.35-.56.91c-2.42 3.77-4.46 4.93-7.19 4.99-.94 0-2.01-.19-3.17-.51-7.35-3.04-15.3-5.65-23.49-5.65-8.17 0-16.61 2.61-24.97 9.77m-29.12-8.93c-5.34 1.88-10.64 2.67-15.92 2.67-5.31 0-10.55-.79-15.73-1.98l-.31-.06-.28.06c-2.14.38-4.36 2.04-4.28 4.86 0 .38.03.85.13 1.32l.13.66.63.29c4.4 2.16 8.47 4.58 10.89 9.51.38 8.29 2.23 20.03 2.23 31.21 0 13.21-2.61 25.18-12.44 30.05l-.82.41.06.88c.13 3.39 1.95 5.91 4.77 6.13l.59.06.44-.38c7.6-6.41 15.63-10.18 24.61-10.18 2.95 0 6 .41 9.17 1.29l.41.09.4-.15c1.66-.44 2.73-2.04 2.61-3.46 0-.97-.26-1.91-.54-2.82l-.19-.57-.51-.25c-5.96-2.95-6.84-6.72-7.6-11.78-1.04-4.71-1.35-9.45-1.35-14.28-.03-8.73 1.13-17.77 1.6-26.5v-.22c-.06-.31-.1-.6-.1-.88 0-3.86 2.55-6.87 6.47-9.98l.88-.69-.5-1c-.56-1.19-1.51-3.8-4.77-4.36l-.38-.03-.35.1zm-311.56 6.31c-.03 1 .4 2.2 1.44 2.89 3.55 2.39 7.29 4.77 10.55 7.1 2.16 2.67 3.67 5.5 3.71 9.29 0 .38-.03.72-.06 1.1-3.26 5.02-6.28 10.14-10.11 13.98-1.07 1.34-2.36 2.01-2.77 4.14l-.03.13v.09c.09 2.77 2.1 4.77 3.83 6.35 1.22 1.03 2.57 2.67 5.18 2.76.31.06.63.13.97.13 1.57-.03 2.82-.94 3.99-2.32 2.95.03 5.06 1.5 6.97 4.68 8.07 12.97 15.17 28.29 20.85 46.78.75 3.77 1.38 7.41 1.38 10.49 0 3.23-.69 5.78-2.3 7.5-3.48 3.08-7.03 6.41-10.14 8.23l-.51.28-.15.53c-.26.95-.38 1.79-.38 2.61-.03 1.13.31 2.26 1.19 3.01.88.72 1.98.94 3.18.94h.72l.47-.03.35-.28c3.11-2.48 7.26-4.36 12.15-5.81 5.84-1.04 11.21-1.41 16.45-1.41 2.79 0 5.55.1 8.35.29 6.28.94 12.56 2.13 18.81 4.96.84.22 1.5.35 2.16.35 2.32 0 4.59-1.51 4.59-3.99 0-.79-.26-1.64-.69-2.42l-.1-.13-.13-.12c-8.04-8.3-17.93-11.12-21.13-20.98-7.38-29.23-21.41-60.13-32.43-79.79-1.32-5.49-1.35-11.37-1.78-17.36.03-.78.09-1.47.09-2.13-.03-1.54-.15-2.83-.84-3.96-.63-1.13-2.01-1.78-3.36-1.75-1.04 0-2.17.25-3.49.75-1.35.51-2.73.66-4.17.66-1.63 0-3.36-.25-5.15-.5-9.57-1.7-14.69-1.45-23.17-2.42-2.89.31-4.3 2.89-4.49 5.4m88.13-4.66c-1.57 1.19-3.2 2.7-3.23 5.06 0 .59.13 1.25.41 1.88l.15.35.29.23c9.36 6.97 21.66 10.61 34.28 13.97 3.87 1.19 8.29 14.98 11.9 29.6.69 7.38.94 13.85.94 19.81v.16l.03.15c.66 3.49 2.89 4.96 4.68 5.15l.31.06.35-.13c3.39-1.1 6.78-2.01 11.27-2.01 4.18 0 9.32.79 16.24 2.98l.12.03.16.03c.35.03.69.06 1 .06.84 0 1.73-.16 2.54-.79.82-.66 1.17-1.7 1.17-2.77 0-.37-.06-.78-.13-1.22l-.06-.28-.15-.25c-21.79-33.25-19.72-44.9-22.92-61.83v-.15l-.06-.13c-2.14-5.72-5.78-6.59-8.3-6.37h-.59c-6 .44-11.87.76-17.77.76-10.46 0-20.88-1.07-31.37-4.58l-.69-.23-.57.44zm91.9 14.82c-3.46 6.49-5.24 13.75-5.24 21.91 0 4.24.47 8.7 1.47 13.41 3.67 10.77 10.33 19.06 20.35 24.08 3.36 2.98 7.53 4.28 11.93 4.28 1.98 0 3.99-.29 6.06-.69l.15-.03.13-.1c4.77-2.29 11.81-3.74 17.9-4.2.63-.06 1.19-.1 1.72-.1 5.91.03 9.17 3.05 13.79 8.54l.13.16.19.12c1.04.67 2.11.98 3.14.98 1.29-.03 2.39-.47 3.36-.88l1.19-.47-.43-1.23c-1.48-4.17-2.2-7.81-2.2-11.02.06-8.22 4.36-13.75 12.53-17.99l.53-.31.16-.59c.15-.6.22-1.2.22-1.7.03-2.73-2.07-4.43-4.27-4.99l-.25-.1-.29.06c-6.15.72-12.31 1.19-18.49 1.19-3.59 0-7.16-.15-10.77-.5l-.25-.03-.29.09c-2.38.66-3.38 2.89-3.61 5l-.12 1.25 1.22.28c3.26.69 6.62 1.19 8.91 2.36.88 1.22 1.41 2.7 1.41 4.24 0 1.07-.25 2.14-.79 3.3-1.69 3.33-5.31 3.8-9.26 4.56-1.7.15-3.46.25-5.18.25-7.92 0-15.14-1.91-19.81-6.84-4.28-4.34-6.85-12-6.82-19.94 0-.69 0-1.32.06-1.98-.06-9.57 6.37-20.79 14.32-25.34 1.63-.26 3.67-.38 5.9-.38 4.05 0 8.73.47 12.78 1.78 7.13 2.14 11.05 2.27 11.15 9.86 0 1.25-.13 2.8-.41 4.58l-.09.66.47.51c.82.81 1.98 1.63 3.49 1.66 1.07 0 2.19-.51 3.17-1.35l.31-.31.1-.44c1.45-7 3.05-13.41 8.29-19.16l.47-.53-.16-.72c-.72-2.85-1.47-6.13-4.83-7.66l-.72-.35-.66.47c-3.08 2.26-7.69 5.34-12.65 5.31h-.94c-6.22-1.13-11.72-4.49-18.72-5.78-2.1-.1-4.02-.16-5.9-.16h-.47c-12.97 0-24.83 2.36-33.37 14.98M69.01 142.56c-1.82.25-3.18 1.54-4.43 2.82-1.2 1.48-2.14 2.52-2.29 4.08v1.19l1.19.19c8.1 1.25 12.88 3.58 12.97 11.55 0 .6-.03 1.2-.09 1.86-2.58 9.95-5.34 15.26-7.92 19.56l-.19.32v.37c.25 2.11 1.85 3.11 3.8 4.43 1.98 1.2 4.42 2.2 6.78 2.2 1.86.03 3.87-.79 4.84-2.77 1.22-1.54 2.19-3.26 3.13-5.18.79-1.85 1.23-3.2 1.61-3.95.5-.72.4-.59.91-.66.53-.03 1.88.35 4.02 1.35 21.23 9.64 39.5 79.51 40.95 97.71 0 2.83 1.63 5.47 4.3 5.59h.03c.91 0 1.82-.41 2.51-1.1 6.88-6.28 13.57-12.53 20.44-18.84 3.18-2.07 3.8-5.12 4.24-7.22l.09-.44-.15-.35c-2.39-6.09-5.02-12.4-8.42-18.75-2.2-4.49-3.01-8.26-3.01-11.78-.06-8.26 4.65-15.48 5.59-26.41v-.19l-.03-.19c-1.19-4.33-5.65-9.36-9.73-9.7-.88 0-1.85.38-2.48 1.17l-.13.19-.1.22c-2.32 6.72-4.73 8.51-5.46 8.33-.44.03-1.13-.35-1.89-1.41-5.27-8.67-12.4-21.95-19.09-33.09-3.36-5.56-6.62-10.59-9.51-14.29-2.98-3.64-5.31-6.15-8.2-6.31l-.03-.06s-.12 0-.28.06c-4.8.56-9.08.79-13.25.79-6.5 0-12.78-.57-20.44-1.29zm182.37 25.65c-2.19.44-4.05 2.73-4.81 6.85-2.51 11.77-14.19 20.28-14.38 32.59 0 .38.03.72.03 1.1.26 4.49 2.7 8.17 6.5 8.54 1.04.06 1.98.06 2.95.06 2.6 0 5.18-.12 8.29-.12 1.1 0 2.32 0 3.62.06 3.95.06 6.49-1.26 8.04-3.39 1.57-2.11 2.41-4.68 4.14-7.69 1.63-2.98 2.67-3.87 6.22-6.03l.5-.31.13-.6c.31-1.47.63-3.58.63-5.72-.03-2.95-.51-6.21-3.14-8.04-.88-.5-1.76-.69-2.54-.69-.82 0-1.54.13-2.23.26-3.05.97-5.43 3.23-7.79 5.14-2.23 1.79-4.49 3.59-5.91 5.15-.09.06-.22.06-.28.06-.06-2.67 6.16-12.72 8.07-17.18l-1.25-.53 1.29.43c.59-1.7.84-3.17.88-4.45 0-2.07-.88-3.77-2.16-4.68-1.32-.95-2.83-1.17-4.15-1.17-1 0-1.88.16-2.64.35M64.62 196.19l-.06.09-.03.13c-5.68 17.8-11.87 34.38-18.27 50.52-5.53 8.76-10.62 18.5-21.76 23.52l-.31.15-.23.31c-.72.97-1.04 2.11-1.04 3.21 0 2.23 1.38 4.58 3.95 4.65.41 0 .82-.06 1.23-.19l.25-.1.16-.13c7.09-5.49 16.45-9.04 29.29-9.04 2.98 0 6.16.19 9.52.63h.28c2.51-.31 3.42-2.73 3.39-4.58 0-1.91-.82-4.2-3.18-4.86l-.12-.06h-.06c-2.36-.28-4.02-.88-5.27-3.39a43.5 43.5 0 0 1-.54-6.82c0-13.38 5.9-28.95 16.33-46.78.38-.47.57-1.07.57-1.63-.23-2.32-2.14-3.61-4.21-4.96-2.13-1.26-4.65-2.23-6.78-2.27-1.09 0-2.44.31-3.1 1.61m231.71 43.91-.13 1.04h-16.14l-.15-1.04h-2.89l-.6 8.89h2.8c.19-1.35.63-2.32 1.29-2.95s1.6-.97 2.77-.97h.53v21.98h-2.48v3.26h13.56v-3.26h-2.45v-21.98h.51c1.19 0 2.14.35 2.8.97.69.66 1.09 1.63 1.32 2.95h2.73l-.6-8.89h-2.85zm75.71 1.89c-1.98.94-3.67 2.23-5.12 3.89-1.32 1.48-2.29 3.21-2.95 5.12-.72 1.88-1.07 3.99-1.07 6.15 0 4.15 1.17 7.51 3.46 10.02 2.26 2.48 5.27 3.76 9.04 3.76 1.76 0 3.42-.31 5.06-.94 1.57-.59 3.05-1.54 4.42-2.77l1.89 3.08h2.32v-13.5c0-.51.06-.98.25-1.41.19-.41.44-.85.82-1.26l-1.13-1.98c-.47.23-.97.31-1.47.44-.54.1-1.04.1-1.58.1h-9.54v3.17h4.83v9.36c-.22.1-.5.13-.78.19-.26 0-.57.03-.95.03-2.36 0-4.33-1.23-5.93-3.67-1.6-2.48-2.39-5.53-2.39-9.14 0-2.48.47-4.49 1.41-5.96.94-1.51 2.19-2.26 3.71-2.26.79 0 1.41.25 1.91.72.51.51.76 1.1.76 1.79 0 .22-.03.51-.13.79-.12.25-.28.5-.47.69l1.66 2.32 8.73-5.94-1.7-2.64-1.63 1.04c-1.07-.84-2.23-1.47-3.49-1.91-1.22-.44-2.51-.66-3.86-.66-2.11 0-4.15.44-6.09 1.38m61.89 2.23v2.67l1.48-.47v21.25h-1.48v2.64h10.33v-2.64h-1.44v-12.21c.59-.54 1.19-.98 1.78-1.26.63-.31 1.25-.43 1.86-.43.72 0 1.29.22 1.66.66.38.47.56 1.16.56 2.07v11.18h-1.45v2.64h10.36v-2.64h-1.47v-12.5c0-2.04-.54-3.61-1.58-4.73-1.03-1.17-2.44-1.73-4.27-1.73-1.1 0-2.23.31-3.45.91-1.26.59-2.58 1.5-4.02 2.8v-8.45l1.54-.51v-2.67l-10.43 3.42zm-131.09 0v2.67l1.45-.47v21.25h-1.45v2.64h10.3v-2.64h-1.41v-12.21a6 6 0 0 1 1.79-1.26c.63-.31 1.22-.43 1.82-.43.76 0 1.32.22 1.66.66q.57.705.57 2.07v11.18h-1.45v2.64h10.36v-2.64h-1.51v-12.5c0-2.04-.5-3.61-1.54-4.73-1-1.17-2.45-1.73-4.27-1.73-1.07 0-2.2.31-3.46.91-1.22.59-2.57 1.5-3.99 2.8v-8.45l1.5-.51v-2.67l-10.39 3.42zm203.06-1.04c-.94.79-1.41 1.63-1.41 2.6 0 .72.26 1.32.79 1.76.51.47 1.2.69 2.07.69 1.38 0 2.57-.38 3.58-1.1.97-.69 1.48-1.54 1.48-2.54 0-.76-.28-1.35-.88-1.82-.59-.47-1.41-.72-2.41-.72-1.2 0-2.27.37-3.21 1.13m-83.59 4.84c-1.2 1.07-2.73 1.88-4.59 2.44v2.42h1.95v12.15c0 2.07.38 3.58 1.29 4.52.81.92 2.19 1.38 4.08 1.38 1.16 0 2.29-.28 3.42-.84 1.17-.54 2.23-1.38 3.24-2.42l-1.1-1.63c-.31.22-.63.35-.91.44s-.54.15-.79.15c-.66 0-1.13-.22-1.38-.66-.28-.44-.41-1.19-.41-2.29v-10.8h2.58c.19 0 .35-.03.41-.12.09-.1.15-.35.22-.76l.44-2.48h-3.65v-5.11l-2.1-.47c-.6 1.63-1.48 2.98-2.7 4.08m137.65-1.95c-.51.5-1 1.57-1.48 3.13-.59-.19-1.19-.28-1.82-.38-.69-.09-1.38-.12-2.07-.12-2.83 0-5.22.78-7.1 2.39-1.88 1.6-2.83 3.58-2.83 5.96 0 1.91.63 3.58 1.92 5.02 1.29 1.38 3.05 2.36 5.24 2.82-.97.54-2.11.97-3.39 1.41-1.29.44-2.67.85-4.24 1.2l2.48 2.6c.47-.13.92-.19 1.32-.26.38-.03.76-.06 1.13-.06.35 0 .79.03 1.25.06.47.06 1.04.13 1.76.26-1.25.38-2.23.91-2.92 1.6-.66.69-.97 1.48-.97 2.45 0 1.29.59 2.29 1.75 2.98 1.2.75 2.86 1.07 4.97 1.07 2.48 0 4.55-.54 6.21-1.66 1.66-1.13 2.52-2.52 2.52-4.15 0-1.6-.79-2.86-2.36-3.8-1.58-.94-4.12-1.63-7.64-2.07 3.71-.94 6.41-2.19 8.2-3.76 1.76-1.58 2.64-3.49 2.64-5.84 0-1.85-.63-3.54-1.85-5.06-1.26-1.47-1.86-2.23-1.86-2.23 0-.19.06-.38.19-.51.15-.12.37-.19.59-.19.19 0 .35.03.56.13.22.06.51.22.82.4l.84-4.02c-.25-.06-.47-.12-.76-.12-.25-.06-.47-.06-.69-.06-1.09 0-1.95.25-2.44.79m-7.16 14.06c-.84-1.79-1.29-3.83-1.29-6.09 0-.88.19-1.57.51-2.04.37-.47.84-.76 1.44-.76 1.17 0 2.11.85 2.98 2.57.85 1.7 1.29 3.74 1.29 6.03 0 .95-.19 1.67-.56 2.17-.35.53-.88.79-1.54.79-1.04 0-1.98-.88-2.83-2.67m1.57 15.29c-.32-.41-.47-.97-.47-1.66 0-.51.1-.97.25-1.45.16-.43.38-.88.72-1.35.69.31 1.29.79 1.66 1.38.41.59.59 1.29.59 2.04 0 .51-.09.91-.38 1.2-.28.31-.63.43-1.09.43-.57 0-.97-.19-1.29-.59M395.6 254.93l2.48.97c.63-.88 1.35-1.5 2.14-1.98.78-.44 1.6-.66 2.44-.66.82 0 1.45.19 1.92.59.47.41.72.97.72 1.63l-.03 1.13c-.41-.03-.72-.06-1-.06h-.66c-3.55 0-6.22.63-7.98 1.92-1.75 1.29-2.64 3.23-2.64 5.8 0 1.98.6 3.55 1.86 4.77 1.22 1.25 2.79 1.88 4.77 1.88.94 0 1.88-.25 2.85-.66.94-.43 1.91-1.09 2.85-1.95l.57 1.98h8.26v-2.64h-1.47v-12.19c0-2.1-.63-3.73-1.92-4.96-1.32-1.22-3.1-1.82-5.37-1.82-.94 0-1.82.09-2.73.28-.88.19-1.72.47-2.54.84l.41-1.22-2.2-.82-2.72 7.13zm5.58 10.59c-.44-.57-.63-1.38-.63-2.48 0-1.2.31-2.19 1-2.89.63-.72 1.54-1.07 2.67-1.07h.35c.15.03.38.06.69.12l.03 4.46c0 .82-.23 1.48-.66 1.95-.44.51-1 .76-1.73.76-.76 0-1.35-.28-1.73-.84m97.6-16.06c-.53-.25-1.03-.43-1.5-.56-.47-.12-.88-.19-1.25-.19-.63 0-1.23.25-1.79.75-.59.57-1.48 1.73-2.64 3.59-.31-.92-.85-1.7-1.6-2.39-.72-.69-1.73-1.35-3.01-1.95l-4.49 5.46 1.54 1.73.75-.66c.26.16.44.35.54.56.09.19.15.57.15 1.13v10.74h-1.44v2.64h10.99v-2.64h-2.14v-8.91c0-1.04.25-1.82.72-2.39s1.13-.88 1.95-.88c.38 0 .85.1 1.41.26.5.12 1.19.38 2.01.69l2.45-7.13-2.2-.79-.44.94zm32 .16c-1.25.59-2.57 1.5-4.02 2.8l.22-3.71h-.31l-8.79 2.48v2.39l1.45-.22v14.32h-1.45v2.64h10.34v-2.64h-1.45v-12.21c.56-.54 1.19-.98 1.82-1.26.63-.31 1.22-.43 1.78-.43.76 0 1.32.22 1.7.66.41.47.56 1.16.56 2.07v11.18h-1.41v2.64h10.3v-2.64h-1.45v-12.5c0-2.04-.5-3.61-1.54-4.73-1.07-1.17-2.52-1.73-4.33-1.73-1.07 0-2.2.31-3.42.91m-18.78-.93-8.79 2.48v2.39l1.48-.22v14.32h-1.48v2.64h10.33v-2.64h-1.44v-15.26c0-.41.03-.92.06-1.45 0-.59.06-1.35.12-2.26zm-48.23 3.23c-2.01 2.14-2.98 4.81-2.98 7.97 0 3.21.91 5.84 2.73 7.92 1.82 2.03 4.14 3.1 7 3.1 2.11 0 4.02-.47 5.75-1.38 1.73-.94 3.3-2.36 4.74-4.24l-1.51-1.66c-.69.72-1.48 1.25-2.29 1.63-.85.35-1.73.54-2.67.54-1.17 0-2.2-.31-3.11-.95-.88-.63-1.66-1.6-2.26-2.79l8.07-3.39c.76-.31 1.54-.56 2.32-.82.79-.19 1.19-.38 1.19-.53 0-.44-.28-1.22-.81-2.36-.54-1.1-1.2-2.14-1.95-2.98-.92-1.1-1.95-1.91-3.14-2.48-1.2-.53-2.52-.81-3.92-.81-2.8 0-5.18 1.09-7.16 3.23m3.89 5.21c-.09-.56-.15-1.19-.15-1.82 0-1 .15-1.82.53-2.39.35-.56.85-.84 1.51-.84.72 0 1.44.37 2.1 1.19.67.79 1.23 1.88 1.7 3.39l-5.27 2.19c-.19-.53-.31-1.09-.41-1.73m-135.03-5.2c-1.98 2.14-2.98 4.81-2.98 7.97 0 3.21.92 5.84 2.73 7.92 1.82 2.03 4.15 3.1 7 3.1 2.11 0 4.02-.47 5.75-1.38 1.73-.94 3.3-2.36 4.74-4.24l-1.48-1.66c-.72.72-1.47 1.25-2.32 1.63-.81.35-1.72.54-2.67.54-1.13 0-2.16-.31-3.07-.95-.95-.63-1.67-1.6-2.3-2.79l8.07-3.39c.79-.31 1.54-.56 2.32-.82.79-.19 1.2-.38 1.2-.53 0-.44-.28-1.22-.82-2.36-.53-1.1-1.19-2.14-1.91-2.98a9.2 9.2 0 0 0-3.18-2.48c-1.19-.53-2.48-.81-3.92-.81-2.8 0-5.18 1.09-7.16 3.23m3.9 5.21c-.1-.56-.16-1.19-.16-1.82 0-1 .19-1.82.54-2.39.38-.56.84-.84 1.5-.84.76 0 1.48.37 2.14 1.19.66.79 1.22 1.88 1.66 3.39l-5.24 2.19c-.19-.53-.35-1.09-.44-1.73m7.29 39.29-40.19 82.52c-.69 1.38.19 3.05 2.14 3.05 2.44 0 3.51-.79 4.4-2.17l14.53-19.81c1.76-2.48 5.09-3.92 10.55-3.92h14.88c5.47 0 9.14 2.17 11.43 6.54l8.23 16.2c.91 1.95 5.11 4.02 10.39 4.02 9.26 0 14.19-5.12 12.08-9.57l-38.62-76.61c-.69-1.51-1.89-3.27-4.56-3.27-3.13 0-4.4 1.23-5.27 3.05m-9.25 50.65 9.26-19.78 9.83 19.44c1.25 2.6-1.73 5.21-5.59 5.21h-8.6c-3.17 0-6.15-2.39-4.9-4.86m-178.13-47.74v75.33c0 6.63 6.41 7.72 10.1 7.72 3.87 0 9.93-1.66 9.93-7.72v-35.98c0-2.73 2.04-5.12 6.06-5.12 3.71 0 6.41 2.95 8.07 5.22l29.83 39.47c1.35 2.04 3.51 3.71 7.06 3.71 3.36 0 6.41-1.79 6.41-3.93v-75.33c0-6.08-6.41-7.72-10.26-7.72-3.74 0-10.26 1.1-10.26 7.72v41.51c0 1.51-.85 3.05-3.05 3.05-1.51 0-3.71-.19-4.71-1.63l-34.19-46.5c-1.51-2.39-4.02-4.36-8.1-4.36-4.17 0-6.87 1.86-6.87 4.58m337.01-4.38c-4.52 0-7.31 1.76-7.31 4.36v78.03c0 2.42 3.49 4.59 7.31 4.59h64.15c4.14 0 8.32-1.79 8.32-4.36 0-2.7-4.33-4.36-8.67-4.36h-50.49v-26.72c0-4.24 4.02-6.95 13.87-8.04l25.84-2.83c2.95-.22 6.25-1.1 6.25-3.05s-3.48-2.82-6.59-2.82h-32.06c-4.71 0-7.31-2.39-7.31-5.43v-15.89c0-2.26-4.31-4.33-6.22-4.77h54.26c4.36 0 8.51-1.85 8.32-4.55-.15-2.6-4.14-4.15-8.32-4.15h-61.36zm-96.36 25.03v36.92c0 13.82 17.33 25.03 38.71 25.03 21.41 0 38.75-11.21 38.75-25.03v-13.46c0-2.96-1.86-5.65-6.75-5.65h-25.25c-3.39 0-6.06 1.75-6.41 3.92-.35 2.39 2.36 4.77 6.06 4.77h18.53c-2.19.09-6.75 2.38-6.75 6.31v4.11c0 9.02-4.2 16.3-18.18 16.3-13.97 0-18.68-7.28-18.68-16.3v-36.92c0-9.04 9.77-16.33 23.74-16.33 15.17 0 24.93 6.54 24.93 16.33v2.16c0 1.6 1.85 3.05 4.36 3.05 2.54 0 4.4-1.45 4.4-3.05v-2.16c0-13.82-17.34-25.03-38.75-25.03-21.38 0-38.71 11.21-38.71 25.03m-143.96-25.03c-3.58 0-6.66 1.86-6.85 4.15-.15 2.48 2.93 4.55 6.85 4.55h18.81c2.89 0 4.77 1.2 4.77 3.27v71.18c0 1.54 1.86 3.83 5.12 3.83 3.39 0 5.47-1.79 5.81-3.93l10.92-67.16c.69-4.58 4.08-7.19 10.59-7.19h8.88c3.92 0 7.16-1.85 7.16-4.33 0-2.51-3.59-4.36-7.51-4.36h-64.55zm-132.95 7.72v71.62c0 6.63 6.37 7.72 10.02 7.72 3.86 0 9.85-1.66 9.85-7.72v-71.62c0-6.08-6-7.72-9.85-7.72-3.64 0-10.02 1.1-10.02 7.72m-19.53-5.33-22.26 49.8c-.51 1.06-1.17 2.38-3.55 2.38-3.36 0-4.05-1.54-4.55-3.04l-19.25-46.73c-1.5-3.61-5.9-4.68-9.77-4.68-7.6 0-11.45 4.55-9.79 8.57l31.2 72.38c1.2 2.64 2.2 5.91 6.94 5.91 5.21 0 6.56-2.73 7.91-6.09l29.55-77.62c.69-1.86-.16-3.27-2.2-3.27-2.69 0-3.54.97-4.24 2.39m223.2 100.92c-4.87 4.15-7.29 9.83-7.29 17.08 0 6.94 2.17 12.56 6.5 16.86s10.18 6.46 17.43 6.46c7.16 0 12.93-2.19 17.39-6.56 4.49-4.36 6.69-9.7 6.69-16.04 0-6.82-2.29-12.5-6.87-17.11-4.56-4.58-10.05-6.88-16.42-6.88-6.82 0-12.6 2.04-17.43 6.19m8.29 28.72c-2.36-3.26-3.52-7.07-3.52-11.3 0-4.43 1.1-8.26 3.34-11.46 2.23-3.2 4.96-4.83 8.22-4.83 3.33 0 6.16 1.63 8.48 4.86s3.48 7.07 3.48 11.43c0 4.52-1.09 8.32-3.33 11.49-2.19 3.17-4.99 4.73-8.42 4.73-3.17 0-5.93-1.63-8.26-4.93m90.97-22.34c0 3.23.82 5.93 2.52 8.07 1.6 2.11 4.61 3.92 8.91 5.49 2.55.92 4.4 1.64 5.63 2.23 1.19.59 2.16 1.35 2.95 2.19.75.88 1.09 1.82 1.09 2.83 0 4.83-4.17 7.28-12.62 7.28h-4.52c-2.2.18-3.3.85-3.3 1.88 0 1.23 1.45 2.14 4.34 2.83s5.74 1 8.54 1c6.13 0 10.87-1.1 14.28-3.39 3.42-2.23 5.12-5.55 5.12-9.92 0-2.23-.38-4.21-1.13-5.88-.78-1.7-1.91-3.08-3.36-4.17-1.5-1.1-3.83-2.17-6.97-3.24-3.17-1.04-5.34-1.82-6.56-2.38-1.2-.57-2.14-1.33-2.83-2.27-.66-.94-.97-2.04-.97-3.33 0-4.14 4.81-6.21 14.41-6.21 2.77 0 4.15-.51 4.15-1.45 0-1.25-1.45-2.26-4.27-3.01-2.89-.72-5.68-1.1-8.42-1.1-11.33 0-16.99 4.18-16.99 12.53M48.26 393c-2.17.5-4.46 1.47-6.94 2.98-2.44 1.51-4.4 3.23-5.9 5.15-1.48 1.91-2.6 4.02-3.3 6.34-.72 2.29-1.1 4.8-1.1 7.53 0 6.88 2.54 12.5 7.56 16.93 5.06 4.4 11.21 6.59 18.5 6.59 2.36 0 4.9-.18 7.6-.59 2.69-.38 4.36-.85 5.08-1.45.69-.56 1.04-1.45 1.04-2.67 0-1.04-.35-1.54-1-1.54l-6.81.15c-4.24 0-7.48-.47-9.73-1.38-2.29-.94-4.21-2.16-5.75-3.71-1.57-1.5-2.8-3.17-3.67-5.06-.91-1.88-1.35-4.45-1.35-7.75 0-2.23.31-4.21.97-5.91.59-1.73 1.76-3.51 3.49-5.37 1.72-1.85 3.67-3.2 5.8-4.05 2.14-.78 4.61-1.19 7.51-1.19 1.13 0 2.85.13 5.21.41s3.61.4 3.8.4c.76 0 1.13-.43 1.13-1.32 0-1.7-1.35-2.98-4.05-3.92-2.67-.88-5.97-1.32-9.86-1.32-3.33 0-6.06.22-8.22.72m177.17.21c-.54.06-1.1.47-1.76 1.1-.66.66-1.25 1.45-1.82 2.36-.56.91-1.04 2.01-1.41 3.26l-2.26 8.01c-1.54 5.15-2.73 8.38-3.58 9.73-.44.69-.91 1.23-1.45 1.54-.5.38-1.07.53-1.66.53-.88 0-1.7-.41-2.42-1.22-.72-.85-1.66-3.08-2.85-6.66-1.19-3.59-2.42-7.72-3.71-12.44-.44-1.76-1.22-3.24-2.26-4.53s-1.92-1.88-2.6-1.88h-21.08l5.15 6.72v31.49l-5.15 6.69H197l-5.15-6.69v-8.42c0-2.89.25-5.47.81-7.72.54-2.26 1.26-3.39 2.07-3.39.92 0 2.01 1.41 3.33 4.3 1.26 2.86 2.48 6.09 3.62 9.73 1.09 3.64 1.91 6.25 2.48 7.89.56 1.63 1.13 2.76 1.7 3.45.56.66 1.2 1.17 1.82 1.41.66.25 2.01.41 4.05.41 1.41 0 2.41-.16 3.04-.41.6-.25 1.2-.76 1.7-1.47.54-.76 1-1.7 1.38-2.89 3.55-10.86 5.81-17.46 6.78-19.72.47-1.13.94-1.98 1.41-2.54.5-.6.97-.85 1.41-.85.94 0 1.75 1.2 2.41 3.55.69 2.32 1.04 4.9 1.04 7.63v12.34c0 .88.41 1.7 1.25 2.39.82.69 2.2 1 4.05 1 1.26 0 2.14-.1 2.7-.35.57-.22 1.07-.63 1.54-1.22.47-.6.72-1.26.72-1.99v-36.98c0-1.1-.44-2.07-1.29-2.92a4.35 4.35 0 0 0-2.89-1.38c-1.07-.03-2.92-.06-5.55-.06-3.52 0-5.53.06-6 .18m-81.4.28c-.82.25-1.54.72-2.17 1.37-.66.67-1.13 1.41-1.5 2.3l-13.85 35.32c-.59 1.51-.88 2.45-.88 2.83 0 1.75 1.66 2.64 4.99 2.64 3.2 0 5.52-1.41 6.97-4.27 1.07-2.14 2.16-3.52 3.3-4.18 1.1-.63 2.32-.97 3.67-.97h11.02c1.2 0 2.17.28 2.95.84.79.6 1.82 1.99 3.14 4.18 1.73 2.98 4.02 4.43 6.94 4.43 3.36 0 5.06-.94 5.06-2.86 0-.35-.31-1.19-.88-2.64l-14.26-35.23c-.43-.94-.97-1.72-1.54-2.36a5.65 5.65 0 0 0-2.04-1.37c-.79-.32-2.45-.47-5.02-.47-3.11 0-5.09.13-5.9.44m1.72 27.03c-1.25-.88-1.91-1.91-1.91-3.14 0-1.98.59-4.52 1.79-7.66 1.19-3.14 2.48-4.71 3.83-4.71s2.73 1.66 4.12 4.96q2.07 4.995 2.07 7.44c0 1.17-.66 2.17-1.95 3.08-1.32.88-2.64 1.32-3.9 1.32-1.41 0-2.76-.44-4.05-1.29m389.29-27.22 5.12 6.66v34.6c0 2.26 1.82 3.39 5.49 3.39 1.82 0 3.18-.35 4.02-1.04.88-.72 1.33-2.14 1.33-4.24l-.13-3.93c0-1.78.28-3.2.94-4.33.63-1.09 1.66-1.88 3.05-2.29 1.38-.41 3.33-.72 5.9-.94 4.71-.41 8.35-1.82 11-4.33 2.57-2.45 3.89-5.81 3.89-9.98 0-4.31-1.54-7.64-4.55-9.99-3.08-2.38-7.16-3.58-12.31-3.58h-23.74ZM552.37 413c-.91-1.13-1.37-3.13-1.37-5.93 0-4.99 1.82-7.48 5.39-7.48 2.01 0 3.77.72 5.37 2.23 1.58 1.44 2.36 3.2 2.36 5.18 0 2.11-.72 3.92-2.13 5.43-1.45 1.5-3.18 2.29-5.27 2.29-1.95 0-3.39-.59-4.34-1.73m-41.89-19.74 5.14 6.75v34.41c0 2.36 1.82 3.49 5.4 3.49 3.71 0 5.53-1.2 5.53-3.55V400l5.14-6.75h-21.22zm-17.12 3.98v8.01c0 1.63-.95 3.01-2.89 4.08-1.88 1.1-3.92 1.66-6.06 1.66-2.13 0-4.08-.53-5.87-1.54-1.79-1.04-2.67-2.39-2.67-4.08v-5.37l5.14-6.75h-21.25l5.18 6.75v31.21l-5.18 6.69h12.65c1.04 0 1.89-.31 2.48-.97.66-.66.97-1.51.97-2.58v-11.17c0-1.89.81-3.33 2.48-4.4 1.66-1.07 3.67-1.57 6.06-1.57 2.36 0 4.43.53 6.29 1.6 1.82 1.1 2.72 2.54 2.72 4.36v11.15c0 2.38 1.95 3.61 5.88 3.61 3.42 0 5.12-1.13 5.12-3.42v-37.24c0-2.67-1.98-4.02-5.94-4.02-3.42 0-5.11 1.35-5.11 3.99m-125.66-3.98 5.21 6.75v31.21l-5.14 6.69h20.44l-5.18-6.69v-8.48c0-4.83.22-7.72.69-8.67.47-.97 1.04-1.45 1.73-1.45 1.13 0 2.54 1.32 4.33 4.02s4.77 7.85 8.95 15.42c1.13 2.04 2.23 3.62 3.24 4.68 1.03 1.1 2.07 1.73 3.1 1.92 1.04.18 2.29.25 3.71.25 3.9 0 6.22-.38 7.07-1.17.79-.78 1.19-1.98 1.19-3.48v-37.24c0-1-.31-1.82-.94-2.42-.63-.59-1.88-.88-3.76-.88-2.14 0-3.55.28-4.28.81-.69.51-1.04 1.38-1.04 2.67v16.14c0 3.67-.78 5.53-2.29 5.53-.69 0-1.44-.35-2.29-1.07-.84-.72-2.57-3.46-5.27-8.26-2.67-4.77-4.65-8.36-5.88-10.71-1.22-2.38-2.36-3.89-3.45-4.55-1.07-.69-1.86-1.04-2.39-1.04h-17.74zm-75.93 0 5.15 6.75v34.41c0 2.36 1.82 3.49 5.43 3.49 3.67 0 5.49-1.2 5.49-3.55V400l5.18-6.75h-21.26zm-44.87 0 5.12 6.66v34.6c0 2.26 1.86 3.39 5.5 3.39 1.82 0 3.17-.35 4.05-1.04.84-.72 1.29-2.14 1.29-4.24l-.13-3.93c0-1.78.31-3.2.94-4.33.63-1.09 1.64-1.88 3.05-2.29 1.38-.41 3.36-.72 5.91-.94 4.68-.41 8.35-1.82 10.99-4.33 2.6-2.45 3.89-5.81 3.89-9.98 0-4.31-1.5-7.64-4.55-9.99-3.08-2.38-7.16-3.58-12.31-3.58h-23.74ZM264.29 413c-.95-1.13-1.38-3.13-1.38-5.93 0-4.99 1.78-7.48 5.4-7.48 1.98 0 3.76.72 5.34 2.23 1.57 1.44 2.39 3.2 2.39 5.18 0 2.11-.72 3.92-2.17 5.43-1.41 1.5-3.18 2.29-5.24 2.29-1.95 0-3.39-.59-4.33-1.73m-155.51-15.76v8.01c0 1.63-.97 3.01-2.86 4.08-1.95 1.1-3.95 1.66-6.08 1.66-2.14 0-4.08-.53-5.88-1.54-1.79-1.04-2.67-2.39-2.67-4.08v-5.37l5.15-6.75H75.19l5.18 6.75v31.21l-5.18 6.69h12.65c1 0 1.86-.31 2.52-.97.63-.66.94-1.51.94-2.58v-11.17c0-1.89.82-3.33 2.48-4.4 1.63-1.07 3.64-1.57 6.06-1.57 2.32 0 4.42.53 6.28 1.6 1.82 1.1 2.7 2.54 2.7 4.36v11.15c0 2.38 2.01 3.61 5.9 3.61 3.39 0 5.12-1.13 5.12-3.42v-37.24c0-2.67-1.98-4.02-5.96-4.02-3.39 0-5.09 1.35-5.09 3.99m348.35 50.72c-38.09 50.7-93.26 82.64-154.67 82.64-61.39 0-116.59-31.94-154.65-82.64H91.87c50.55 56.11 126.14 91.81 210.6 91.81 84.49 0 160.07-35.71 210.62-91.81z" style="fill:url(#a);stroke-width:0" transform="translate(.01)"/></g></svg>