<svg xmlns="http://www.w3.org/2000/svg" width="665.2" height="499.998"><defs><linearGradient id="a" x1="31.233" x2="48.736" y1="203.86" y2="236.77" gradientTransform="matrix(10 0 0 -10 -83.599 2390.5)" gradientUnits="userSpaceOnUse"><stop offset=".1" style="stop-color:#612c75"/><stop offset=".5" style="stop-color:#bf99c3"/><stop offset=".9" style="stop-color:#612c75"/></linearGradient></defs><path fill="#fff" d="M623.24 232.41c-2.68-1.7-5.22-3.32-7.76-4.88 12.88-8.4 23.36-16.69 32.04-25.29l17.68-17.51-22.34-10.92c-8.07-3.94-15.79-6.83-23.62-9.23 14.14-18.27 24.56-38.39 32.62-62.55l8.74-26.17-27.43 3.02c-41.2 4.55-67.85 15.04-87.31 22.7-10.32 4.06-18.52 7.29-23.82 7.47-.4 0-3.02-.5-8.84-5.74-5.66-5.07-11.7-12.29-17.54-19.26-4.05-4.83-8.23-9.83-12.37-14.21C428.62 12.12 371.17 0 332.6 0s-96.03 12.12-150.67 69.83c-4.13 4.38-8.32 9.38-12.37 14.21-5.84 6.98-11.88 14.19-17.54 19.27-5.81 5.21-8.48 5.69-8.84 5.73-5.3-.2-13.5-3.41-23.82-7.47-19.47-7.65-46.12-18.14-87.32-22.68L4.6 75.86l8.75 26.17c8.06 24.16 18.48 44.28 32.62 62.56-7.83 2.39-15.56 5.28-23.62 9.23L0 184.74l17.67 17.5c8.69 8.6 19.17 16.89 32.05 25.29-2.54 1.56-5.09 3.17-7.76 4.88-1.19.7-2.42 1.54-3.7 2.34l-25.9 16.38 27.15 14.21c20.46 10.71 37 17.16 56.8 21.43-.71 1.01-1.45 2.04-2.18 3.12L77.3 314.11l29.31 3.39c16.22 1.87 28.15 2.63 41.18 2.63 11.28 0 23.21-.6 40.02-1.55 2.11-.1 4.21-.2 6.23-.2 18.3 0 32.43 5.16 39.8 14.51 8.83 11.2 7.38 27.28 4.62 38.78l-1.71 7.11 3.81 6.24 33.19 54.3 21.84 35.72c2.7 4.42 5.63 8.24 8.73 11.48h56.54c3.1-3.24 6.04-7.06 8.73-11.48l4.48-7.32 17.32-28.34 33.18-54.3 3.82-6.24-1.71-7.11c-2.77-11.5-4.22-27.58 4.61-38.78 7.37-9.36 21.51-14.51 39.8-14.51 2.03 0 4.13 0 6.24.2 16.8 1 28.73 1.55 40.02 1.55 13.03 0 24.95-.8 41.18-2.63l29.31-3.39-16.82-24.23c-.7-1.07-1.46-2.11-2.19-3.12 19.79-4.28 36.34-10.71 56.81-21.43l27.14-14.21-25.9-16.38c-1.26-.8-2.49-1.57-3.68-2.33z" style="stroke-width:10"/><path fill="url(#a)" d="M207.44 232.92c-17.84-21.2-28.51-47.53-28.51-70.44 0-5.21.4-10.49 1.24-15.66l.6-3.72 2.45-2.85c16.01-18.56 40.62-33.48 71.16-43.13l29.51-9.33-13.63 27.79c-4.25 8.67-6.41 17.96-6.41 27.6 0 36.06 30.84 65.4 68.74 65.4s68.74-29.34 68.74-65.4c0-9.64-2.16-18.93-6.41-27.6L381.3 87.79l29.51 9.33c30.55 9.65 55.16 24.57 71.16 43.13l2.45 2.85.6 3.72c.8 5.18 1.24 10.45 1.24 15.66 0 22.91-10.66 49.24-28.51 70.44-14.65 17.38-40.74 39.11-83.63 48.01v146.51l31.9-52.21c-5.1-22.39-2.04-41.5 8.85-55.32 11.6-14.73 31.06-22.51 56.28-22.51 2.43 0 4.95 0 7.47.2 16.42 1 28.02 1.52 38.79 1.52 10.65 0 20.59-.6 33.21-1.88-5.73-7.89-10.73-13.54-19.09-20.43l-6.08-5.03 7.85-.8c32.75-3.44 51.79-8.64 77.55-21.6-10.65-6.77-18.74-11.78-33.77-17.4l-6.86-2.57 6.46-3.45c23.13-12.36 40-23.67 52.62-35.32-13.14-5.83-25.79-8.82-41.39-12.5l-1.95-.5-5.86-1.37 4.32-4.21c21.28-20.76 35.56-43.05 45.83-71.73-35.51 4.52-59.2 13.84-76.71 20.74-12.47 4.9-22.31 8.78-31.41 8.93-15.33 0-29.18-16.52-42.56-32.52-4.03-4.77-7.83-9.32-11.53-13.22-49.52-52.3-100.99-63.28-135.44-63.28s-85.92 10.98-135.44 63.28c-3.7 3.91-7.5 8.45-11.52 13.25-13.39 15.99-27.23 32.52-42.51 32.52-9.14-.16-18.98-4.03-31.46-8.94-17.51-6.89-41.21-16.22-76.71-20.74 10.27 28.68 24.54 50.98 45.83 71.74l4.31 4.2-5.86 1.39-1.96.5c-15.6 3.68-28.24 6.66-41.39 12.5 12.63 11.64 29.49 22.96 52.63 35.31l6.46 3.46-6.87 2.57c-15.03 5.63-23.11 10.63-33.77 17.4 25.77 12.96 44.79 18.15 77.56 21.6l7.85.8-6.08 5.02c-8.37 6.9-13.37 12.54-19.09 20.43 12.63 1.33 22.56 1.88 33.21 1.88 10.76 0 22.37-.6 38.78-1.52 2.53-.2 5.04-.2 7.47-.2 25.22 0 44.69 7.78 56.29 22.5 10.89 13.82 13.94 32.93 8.85 55.33l31.9 52.2V280.92c-42.9-8.89-68.99-30.62-83.64-48" style="fill:url(#a);stroke-width:10"/><path fill="#fff" d="M471.93 148.9c-14.32-16.6-37.12-30.3-65.12-39.14a75.6 75.6 0 0 1 7.76 33.43c0 43.44-36.71 78.64-81.98 78.64-45.28 0-81.99-35.21-81.99-78.64 0-11.95 2.79-23.28 7.77-33.43-28 8.84-50.8 22.54-65.12 39.14-.7 4.45-1.07 8.98-1.07 13.58 0 33.72 30.34 95.59 112.14 107.31v216.73c17.14 17.97 39.4 17.97 56.54 0V269.79C442.66 258.07 473 196.2 473 162.48c0-4.6-.4-9.13-1.07-13.58" style="stroke-width:10"/></svg>