<svg xmlns="http://www.w3.org/2000/svg" width="190.002" height="134.436" viewBox="80.735 111.276 190.002 134.436"><path d="M123.789 239.664c14.372-11.299 30.59-16.424 51.949-16.417 22.027.007 35.742 4.439 51.71 16.709 9.524 7.319 11.214 7.024 9.354-1.636-3.245-15.113-15.726-31.668-30.285-40.174-17.403-10.169-39.754-10.688-58.81-1.364-8.146 3.985-20.487 15.066-25.485 22.882-4.516 7.063-9.622 21.879-8.524 24.738.887 2.313 1.47 2.04 10.091-4.738"/><path d="M100.612 224.461c18.907-41.699 60.397-61.995 99.736-48.789 12.377 4.154 19.046 8.164 28.872 17.355 9.229 8.633 16.313 18.534 21.83 30.508 4.704 10.21 4.235 9.654 6.533 7.748 2.771-2.299 2.101-16.94-1.265-27.646-.379-1.207 2.35-5.728 6.896-11.422 4.138-5.185 7.523-9.791 7.523-10.236s-4.922-.475-10.938-.064l-10.938.747-5-8.262c-2.75-4.543-6.213-9.407-7.693-10.808l-2.694-2.547 4.247-12.611c2.336-6.936 4.11-12.736 3.943-12.889-.166-.153-5.928 2.261-12.803 5.364-11.456 5.171-12.813 5.512-16.25 4.083-2.063-.857-8.604-2.984-14.537-4.727l-10.787-3.167-5.387-12.92c-2.962-7.106-5.702-12.912-6.087-12.902s-2.898 5.494-5.582 12.188c-2.684 6.693-5.24 12.588-5.68 13.1s-4.712 1.974-9.495 3.25-10.882 3.251-13.554 4.391l-4.859 2.071-10.454-5.698c-5.75-3.134-10.454-5.04-10.454-4.235s.954 6.096 2.119 11.757l2.119 10.293-6.026 7.996c-3.314 4.398-6.938 9.897-8.053 12.221l-2.027 4.227-11.566-.813c-6.361-.447-11.566-.477-11.566-.064 0 .411 3.429 4.944 7.62 10.073l7.62 9.325-1.37 7.866c-1.524 8.753-1.821 21.17-.537 22.453 1.836 1.831 3.048.494 6.544-7.216"/></svg>