<?xml version="1.0" encoding="UTF-8" standalone="no"?>
<svg
   version="1.1"
   width="542.99353"
   height="727.74469"
   id="svg1"
   xmlns="http://www.w3.org/2000/svg"
   xmlns:svg="http://www.w3.org/2000/svg">
  <defs
     id="defs1" />
  <path
     d="m 278.32341,727.74472 c 143.75205,0 202.52403,-72.40567 202.52403,-72.40567 l -54.55437,-87.05944 c 0,0 -61.85183,47.19806 -145.83142,47.19806 -83.9796,0 -164.74204,-45.11868 -164.74204,-45.11868 l -48.276989,88.11875 c 0,0 67.128749,69.26698 210.880789,69.26698 m -40.92068,-336.86 C 187.6741,377.70222 156.64029,359.4782 118.77983,298.54836 84.136533,242.69928 104.67534,140.0837 104.67534,140.0837 c 0,0 -55.084024,44.13784 -55.084024,132.25659 0,88.11875 75.544364,187.28176 206.192374,187.28176 130.64801,0 176.25711,-113.32636 176.25711,-174.70738 0,-61.69489 -49.96404,-111.71778 -111.7374,-111.71778 -61.75374,0 -111.79624,50.02289 -111.79624,111.71778 0,39.92023 22.14738,80.44857 52.41614,94.71 7.80749,3.68796 12.94709,20.98999 -23.52057,11.26005 M 542.99352,271.57523 C 542.99352,421.54581 421.46733,543.072 271.49676,543.072 121.5458,543.072 0,421.54581 0,271.57523 0,121.62428 121.5458,0 271.49676,0 421.46733,0 542.99352,121.62428 542.99352,271.57523"
     id="path1" />
</svg>
