<?xml version="1.0" encoding="UTF-8" standalone="no"?>
<svg
   width="310.09375pt"
   height="310.09375pt"
   viewBox="0 0 310.09375 310.09375"
   version="1.1"
   id="svg4"
   xmlns="http://www.w3.org/2000/svg"
   xmlns:svg="http://www.w3.org/2000/svg">
  <defs
     id="defs4" />
  <g
     id="#808080ff"
     transform="translate(0.046875,0.046875)">
    <path
       fill="#808080"
       stroke="#808080"
       stroke-width="0.09375"
       d="m 88.25,0 h 217.2 c -0.12,19.85 -0.14,39.7 -0.15,59.56 -7.84,7.71 -15.97,15.13 -23.91,22.75 -2.91,14.44 -2.11,29.32 -0.03,43.81 4.14,28.2 12.99,55.38 20.56,82.77 3.45,12.71 6.98,25.5 8.08,38.68 v 5.21 c -1.53,17.13 -8.15,35.13 -22.61,45.48 -12.62,9.21 -28.74,10.65 -43.83,11.74 h -3.99 C 171.28,304.53 103.15,297.42 34.96,290.9 29.27,290.61 24.39,287.22 20.04,283.86 9.06,274.81 1.89,261.36 0,247.31 v -5.97 c 1.46,-16.25 11.68,-30.36 23.8,-40.6 17.08,0.4 34.16,1.19 51.24,1.66 1.69,0.11 3.14,-0.96 4.52,-1.78 6.14,-4.17 10.54,-10.39 14.06,-16.81 5.77,-10.8 9.15,-22.7 11.53,-34.66 4.36,-22.63 5.11,-45.79 4.64,-68.78 C 102.59,73.41 95.48,66.36 88.27,59.4 88.21,39.6 88.26,19.8 88.25,0 m 13.39,13.3 c 0.07,13.49 0.01,26.99 0.03,40.49 7.16,7.02 14.34,14.02 21.52,21.02 0.21,28.51 -0.59,57.23 -6.15,85.28 -2.88,13.31 -6.61,26.94 -14.8,38.06 -2.98,4.15 -7.1,7.23 -11.4,9.89 19.38,0.32 38.79,0.69 58.16,0.92 5.95,0.56 11.94,0.26 17.9,0.55 -0.09,-22.55 0.02,-45.09 -0.05,-67.64 7.2,-7.79 14.72,-15.29 21.89,-23.11 0.89,-0.99 1.9,-1.87 2.96,-2.67 7.68,8.72 16.06,16.79 23.89,25.37 0.46,1.48 0.18,3.07 0.26,4.59 -0.07,21.49 0.07,42.97 -0.07,64.46 8.8,0.53 17.62,0.97 26.31,2.47 10.1,1.75 20.46,4.62 28.5,11.27 6.73,5.52 10.95,14.01 11.2,22.73 0.66,12.56 -3.98,25.84 -13.89,33.94 -6.89,5.71 -16.1,7.76 -24.89,7.59 -8.58,-0.07 -17.27,-2.99 -23.62,-8.86 -7.09,-6.49 -12.35,-15.78 -11.95,-25.6 0.26,-7.59 5.04,-14.33 11.1,-18.58 9.2,-6.47 20.32,-10 31.47,-10.94 -9.75,-2.91 -19.94,-3.84 -30.07,-4.03 C 156.26,218.49 92.6,216.16 28.92,214.27 20.15,222.3 13.1,233.7 13.65,246 c 0.88,12.88 9.35,24.21 19.72,31.32 62.88,6.11 125.78,12.09 188.67,18.2 17.29,1.6 35.69,2.73 51.88,-4.74 10.88,-4.86 18.42,-15.44 20.99,-26.91 4.16,-17.39 -0.04,-35.37 -5.59,-51.95 -7.47,-21.64 -13.83,-43.67 -18.68,-66.04 -3.11,-15.07 -5.94,-30.47 -4.43,-45.9 0.41,-8.47 1.55,-16.9 3.6,-25.12 7.38,-6.93 14.66,-13.95 22.05,-20.86 -0.07,-13.59 -0.06,-27.18 -0.01,-40.76 -9.12,0.1 -18.25,0.03 -27.38,0.04 0.08,7.84 0.02,15.68 0.04,23.52 -8.78,-0.04 -17.56,-0.01 -26.35,-0.01 0.01,-7.84 -0.01,-15.67 0.01,-23.5 -9.29,-0.01 -18.58,0.03 -27.86,-0.03 0.08,7.85 0,15.69 0.04,23.54 -9.19,-0.17 -18.39,0.26 -27.56,-0.22 0.04,-2.53 0.1,-5.06 0.19,-7.58 -0.1,-5.26 -0.14,-10.51 -0.07,-15.77 -9.26,0.1 -18.51,0.09 -27.76,0.01 0.08,7.85 -0.01,15.7 0.05,23.55 -8.98,-0.02 -17.96,0 -26.93,-0.01 0.02,-7.83 -0.02,-15.67 0.02,-23.5 -8.88,0.03 -17.77,-0.01 -26.65,0.02 m 140.42,221.97 c 4.92,2.47 10.85,3.68 14.37,8.28 4,5.06 5.66,13.54 0.43,18.35 -4.43,3.82 -10.54,1.9 -15.79,2.32 -5.66,1.09 -10.99,3.46 -16.05,6.16 6.99,7.45 17.93,11.16 27.97,8.83 14.14,-3.61 23.33,-20.24 18.67,-34.12 -4.07,-11.46 -19.44,-16.22 -29.6,-9.82 m -23.32,14.32 c -1.19,4.35 -0.64,9.06 0.82,13.28 8.64,-6.27 18.94,-10.13 29.44,-11.77 -4.83,-5.23 -11.62,-9.56 -19.01,-8.95 -4.63,0.32 -9.76,2.71 -11.25,7.44 z"
       id="path1" />
  </g>
  <g
     id="g4"
     transform="translate(0.046875,0.046875)">
    <path
       stroke="#000000"
       stroke-width="0.09375"
       d="m 101.64,13.3 c 8.88,-0.03 17.77,0.01 26.65,-0.02 -0.04,7.83 0,15.67 -0.02,23.5 8.97,0.01 17.95,-0.01 26.93,0.01 -0.06,-7.85 0.03,-15.7 -0.05,-23.55 9.25,0.08 18.5,0.09 27.76,-0.01 -0.07,5.26 -0.03,10.51 0.07,15.77 -0.09,2.52 -0.15,5.05 -0.19,7.58 9.17,0.48 18.37,0.05 27.56,0.22 -0.04,-7.85 0.04,-15.69 -0.04,-23.54 9.28,0.06 18.57,0.02 27.86,0.03 -0.02,7.83 0,15.66 -0.01,23.5 8.79,0 17.57,-0.03 26.35,0.01 -0.02,-7.84 0.04,-15.68 -0.04,-23.52 9.13,-0.01 18.26,0.06 27.38,-0.04 -0.05,13.58 -0.06,27.17 0.01,40.76 -7.39,6.91 -14.67,13.93 -22.05,20.86 -2.05,8.22 -3.19,16.65 -3.6,25.12 -1.51,15.43 1.32,30.83 4.43,45.9 4.85,22.37 11.21,44.4 18.68,66.04 5.55,16.58 9.75,34.56 5.59,51.95 -2.57,11.47 -10.11,22.05 -20.99,26.91 -16.19,7.47 -34.59,6.34 -51.88,4.74 C 159.15,289.41 96.25,283.43 33.37,277.32 23,270.21 14.53,258.88 13.65,246 c -0.55,-12.3 6.5,-23.7 15.27,-31.73 63.68,1.89 127.34,4.22 191.02,6.23 10.13,0.19 20.32,1.12 30.07,4.03 -11.15,0.94 -22.27,4.47 -31.47,10.94 -6.06,4.25 -10.84,10.99 -11.1,18.58 -0.4,9.82 4.86,19.11 11.95,25.6 6.35,5.87 15.04,8.79 23.62,8.86 8.79,0.17 18,-1.88 24.89,-7.59 9.91,-8.1 14.55,-21.38 13.89,-33.94 -0.25,-8.72 -4.47,-17.21 -11.2,-22.73 -8.04,-6.65 -18.4,-9.52 -28.5,-11.27 -8.69,-1.5 -17.51,-1.94 -26.31,-2.47 0.14,-21.49 0,-42.97 0.07,-64.46 -0.08,-1.52 0.2,-3.11 -0.26,-4.59 -7.83,-8.58 -16.21,-16.65 -23.89,-25.37 -1.06,0.8 -2.07,1.68 -2.96,2.67 -7.17,7.82 -14.69,15.32 -21.89,23.11 0.07,22.55 -0.04,45.09 0.05,67.64 -5.96,-0.29 -11.95,0.01 -17.9,-0.55 -19.37,-0.23 -38.78,-0.6 -58.16,-0.92 4.3,-2.66 8.42,-5.74 11.4,-9.89 8.19,-11.12 11.92,-24.75 14.8,-38.06 5.56,-28.05 6.36,-56.77 6.15,-85.28 -7.18,-7 -14.36,-14 -21.52,-21.02 -0.02,-13.5 0.04,-27 -0.03,-40.49 z"
       id="path2" />
    <path
       stroke="#000000"
       stroke-width="0.09375"
       d="m 242.06,235.27 c 10.16,-6.4 25.53,-1.64 29.6,9.82 4.66,13.88 -4.53,30.51 -18.67,34.12 -10.04,2.33 -20.98,-1.38 -27.97,-8.83 5.06,-2.7 10.39,-5.07 16.05,-6.16 5.25,-0.42 11.36,1.5 15.79,-2.32 5.23,-4.81 3.57,-13.29 -0.43,-18.35 -3.52,-4.6 -9.45,-5.81 -14.37,-8.28 z"
       id="path3" />
    <path
       stroke="#000000"
       stroke-width="0.09375"
       d="m 218.74,249.59 c 1.49,-4.73 6.62,-7.12 11.25,-7.44 7.39,-0.61 14.18,3.72 19.01,8.95 -10.5,1.64 -20.8,5.5 -29.44,11.77 -1.46,-4.22 -2.01,-8.93 -0.82,-13.28 z"
       id="path4" />
  </g>
</svg>
