<?xml version="1.0" encoding="UTF-8" standalone="no"?>
<svg
   width="283.06613pt"
   height="283.55978pt"
   viewBox="0 0 283.06613 283.55978"
   version="1.1"
   id="svg3"
   xmlns="http://www.w3.org/2000/svg"
   xmlns:svg="http://www.w3.org/2000/svg">
  <defs
     id="defs3" />
  <path
     stroke="#000000"
     stroke-width="0.09375"
     d="m 88.06702,0.1173908 c 8.88,-0.03 17.77,0.01 26.65,-0.02 -0.04,7.83 0,15.6700002 -0.02,23.5000002 8.97,0.01 17.95,-0.01 26.93,0.01 -0.06,-7.85 0.03,-15.7000002 -0.05,-23.5500002 9.25,0.08 18.5,0.09 27.76,-0.01 -0.07,5.26 -0.03,10.5100002 0.07,15.7700002 -0.09,2.52 -0.15,5.05 -0.19,7.58 9.17,0.48 18.37,0.05 27.56,0.22 -0.04,-7.85 0.04,-15.6900002 -0.04,-23.5400002 9.28,0.06 18.57,0.02 27.86,0.03 -0.02,7.83 0,15.6600002 -0.01,23.5000002 8.79,0 17.57,-0.03 26.35,0.01 -0.02,-7.84 0.04,-15.6800002 -0.04,-23.5200002 9.13,-0.01 18.26,0.06 27.38,-0.04 -0.05,13.5800002 -0.06,27.1700002 0.01,40.7600002 -7.39,6.91 -14.67,13.93 -22.05,20.86 -2.05,8.22 -3.19,16.65 -3.6,25.12 -1.51,15.429999 1.32,30.829999 4.43,45.899999 4.85,22.37 11.21,44.4 18.68,66.04 5.55,16.58 9.75,34.56 5.59,51.95 -2.57,11.47 -10.11,22.05 -20.99,26.91 -16.19,7.47 -34.59,6.34 -51.88,4.74 -62.89,-6.11 -125.79,-12.09 -188.67,-18.2 -10.3700001,-7.11 -18.84000013,-18.44 -19.72000013,-31.32 -0.55,-12.3 6.50000003,-23.7 15.27000013,-31.73 63.68,1.89 127.34,4.22 191.02,6.23 10.13,0.19 20.32,1.12 30.07,4.03 -11.15,0.94 -22.27,4.47 -31.47,10.94 -6.06,4.25 -10.84,10.99 -11.1,18.58 -0.4,9.82 4.86,19.11 11.95,25.6 6.35,5.87 15.04,8.79 23.62,8.86 8.79,0.17 18,-1.88 24.89,-7.59 9.91,-8.1 14.55,-21.38 13.89,-33.94 -0.25,-8.72 -4.47,-17.21 -11.2,-22.73 -8.04,-6.65 -18.4,-9.52 -28.5,-11.27 -8.69,-1.5 -17.51,-1.94 -26.31,-2.47 0.14,-21.49 0,-42.97 0.07,-64.46 -0.08,-1.52 0.2,-3.11 -0.26,-4.59 -7.83,-8.58 -16.21,-16.65 -23.89,-25.37 -1.06,0.8 -2.07,1.68 -2.96,2.67 -7.17,7.82 -14.69,15.32 -21.89,23.11 0.07,22.55 -0.04,45.09 0.05,67.64 -5.96,-0.29 -11.95,0.01 -17.9,-0.55 -19.37,-0.23 -38.78,-0.6 -58.16,-0.92 4.3,-2.66 8.42,-5.74 11.4,-9.89 8.19,-11.12 11.92,-24.75 14.8,-38.06 5.56,-28.05 6.36,-56.769999 6.15,-85.279999 -7.18,-7 -14.36,-14 -21.52,-21.02 -0.02,-13.5 0.04,-27 -0.03,-40.4900002 z"
     id="path1" />
  <path
     stroke="#000000"
     stroke-width="0.09375"
     d="m 228.48702,222.08739 c 10.16,-6.4 25.53,-1.64 29.6,9.82 4.66,13.88 -4.53,30.51 -18.67,34.12 -10.04,2.33 -20.98,-1.38 -27.97,-8.83 5.06,-2.7 10.39,-5.07 16.05,-6.16 5.25,-0.42 11.36,1.5 15.79,-2.32 5.23,-4.81 3.57,-13.29 -0.43,-18.35 -3.52,-4.6 -9.45,-5.81 -14.37,-8.28 z"
     id="path2" />
  <path
     stroke="#000000"
     stroke-width="0.09375"
     d="m 205.16702,236.40739 c 1.49,-4.73 6.62,-7.12 11.25,-7.44 7.39,-0.61 14.18,3.72 19.01,8.95 -10.5,1.64 -20.8,5.5 -29.44,11.77 -1.46,-4.22 -2.01,-8.93 -0.82,-13.28 z"
     id="path3" />
</svg>
