<svg xmlns="http://www.w3.org/2000/svg" width="600" height="264.037" data-name="Layer 2" viewBox="0 0 600 264.037"><defs><linearGradient id="a" x1="-657.36" x2="-656.36" y1="672.95" y2="672.95" data-name="New Gradient Swatch 1" gradientTransform="rotate(210 112666.25 200416.385)scale(-472.09 472.09)" gradientUnits="userSpaceOnUse"><stop offset="0" stop-color="#612c75"/><stop offset=".3" stop-color="#7b5190"/><stop offset=".5" stop-color="#bf99c3"/><stop offset=".7" stop-color="#7b5190"/><stop offset="1" stop-color="#612c75"/></linearGradient></defs><g data-name="Layer 1"><path d="M548.67 153.1c-12.91 17.67-34.18 28.62-53.32 37.02-.43.18-.9.36-1.34.54l18.78-83.94c.94-4.07-.07-8.33-2.67-11.57-.25-.32-.54-.54-.79-.79 24.19 9.02 42.98 20.48 46.34 39.7.14.9.21 1.81.21 2.67 0 5.88-3.42 11.1-7.21 16.37m-365.1 57.73c-1.95-.62-4.11-1.41-6.42-2.28h58.98c16.09.07 32.74.11 46.09-5.08 10.02-3.9 18.06-9.63 24.66-17.34 13.41 22.06 43.73 22.13 66.98 22.13h1.45c14.21 0 28.87 0 41.24-3.9 4.01-1.22 7.79-2.99 11.36-5.15.51 1.37 1.15 2.7 2.09 3.86a13.57 13.57 0 0 0 10.38 5.11c-98.36 24.94-205.97 22.1-256.83 2.64zm-15.51-76.84s-5.73-4.65-8.69-7.02c.4-.15 2.34-.76 2.34-.76l16.33-5.2c-.76 3.42-3.03 13.67-3.96 17.81-1.98-1.62-3.97-3.18-6.03-4.84m-2.55 70.1c-6.78-2.52-13.85-4.76-20.58-5.81-.76-4.86-1.62-10.52-1.66-10.67-.04-.4-1.98-16.26-1.98-16.26s-1.55-12.79-1.87-15.65c8.94 4.54 17.92 9.52 27.33 14.96-2.02 8.91-4.58 20.22-4.58 20.22-.22.98-.32 1.98-.32 3v.9c0 3.61 1.4 6.85 3.67 9.3m203.53-47.87c-.04-.33-.07-.66-.07-1.02 0-7.02 6.53-12.9 10.67-13.95 4.55-1.15 8.7-1.05 10.97-.58.25 2.67 1.23 5.26 2.88 7.36-2.09 1.55-3.82 3.67-4.79 6.2.29-.76.65-1.12.65-1.12-3.06 3.28-16.01 5.08-20.3 3.1m112.84-70.8a777 777 0 0 1 14.82 4.58h-35.62c-6.46 0-12.05 4.47-13.45 10.78l-.43 1.91c-7.9-6.56-18-9.52-27.48-11.29-.57-.11-1.15-.18-1.73-.25-4.04-.18-39.66-2.13-53.11.07-19.69 3.24-34.18 10.02-44.64 20.91-4.14-7.42-10.46-13.34-18.72-16.91-12.18-5.22-27.58-5.09-42.51-4.98l-6.53.04h-21.77c67.85-18.97 179.6-26.14 251.16-4.86m117.77 60.96c-7.14-52.85-58.41-72.83-92.34-86.1-24.37-9.52-56.6-16.83-78.63-19.47-47.94-5.85-129.74-14.37-217.89 6.6-16.37 4.18-32.16 9.37-47.7 15.5.11-.18.51-1.04.54-1.08.4-.72 12.15-21.38 12.15-21.38 1.19-2.13 1.81-4.48 1.81-6.78 0-3.71-1.51-7.36-4.33-10.02a13.71 13.71 0 0 0-16.91-1.55c-5.95 3.82-9.59 10.02-12.54 15l-2.38 3.86s-19.54 27.37-19.9 27.88c-3.29-11.07-8.84-29.92-8.98-30.32-.11-.47-7.28-28.09-7.28-28.09C103.4 3.29 96.25-1.21 89.08.3c-6.45 1.4-10.93 7-10.93 13.37 0 .76.04 1.48.18 2.23l3.64 22.5c2.31 13.7 4.58 27.73 6.09 41.75-9.05-4.58-17.69-9.05-25.99-13.91L40.62 53.58c-.87-.5-1.62-.86-2.56-1.15l-1.19-.4c-6.42-2.12-13.35.79-16.45 6.75-1.04 1.98-1.51 4.14-1.51 6.28 0 4.28 1.98 8.44 5.59 11.1 0 0 18.14 13.56 18.39 13.73.25.21 21.92 17.23 24.59 19.33-14.64 4.5-57.08 17.59-57.08 17.59-.68.21-1.48.54-2.09.83l-.62.29C2.9 130.31.01 135.14.01 140.26c0 1.26.18 2.59.54 3.86 1.87 6.42 8.15 10.57 14.82 9.84 11.14-1.26 22.21-3.39 32.88-5.44 9.23-1.81 18.67-3.54 28.3-4.84-.32.68-1.44 3.03-1.44 3.03-7.93 17.02-15.47 33.1-24.3 48.57-1.19 2.1-1.84 4.47-1.84 6.85v.29c0 7.62 6.17 13.78 13.77 13.78h.3c4.54 0 8.8-2.24 11.35-5.99 0 0 26.79-39.01 27.01-39.3.04-.07 2.78-3.82 4.36-6.02 1.7 6.09 3.29 12.33 4.84 18.5l4.54 17.56-.04-.25c0 .07.07.36.11.43l-.07-.18c.36 1.41 5.3 21.6 5.62 23.04.9 6.75 6.6 11.97 13.6 11.97h.29c4.01 0 7.83-1.76 10.42-4.83.43-.51.79-1.02 1.15-1.59.22.15 4.18 1.73 4.18 1.73 15.15 6.56 30.62 11.33 47.78 16.49 87.87 25.51 236.85 21.3 321.04-14.39 25.21-10.67 50.91-23.91 68.01-48.03 4.07-5.73 14.85-20.95 12.43-38.98" style="fill:#fff;stroke-width:0" transform="translate(-.01 -.008)"/><path d="M229.86 127.25c12.33-.18 29.6-1.8 36.85 3.54 5.05 3.71 5.88 12.01 3.82 19.43-1.04 3.86-2.67 8.26-5.09 11.46-4.36 5.77-12.62 8.62-19.5 9.7-2.16.32-25.74.15-25.78.36 3.25-14.81 6.49-29.68 9.7-44.49m356.13 20.98c-5.88-43.73-46.7-61.11-82.65-75.14-26.46-10.31-63.55-18.3-89.75-20.67-33.77-3.15-114.58-12.58-199.4 8.31-29.82 7.61-55.57 17.78-79.83 30.07 5.7-11.83 11.39-23.62 17.09-35.37 4.11-7.28 8.25-14.54 12.37-21.82-4.65 3.04-7.94 10.78-11.18 15.33-12.01 16.8-23.98 33.6-35.95 50.37-.11.18-.21.4-.32.57-5.7-19.22-11.39-38.47-17.06-57.73-2.45-9.41-4.94-18.86-7.39-28.26 4.23 28.15 10.93 58.48 11.51 88.94-5.41-2.56-10.82-5.08-16.23-7.64-11-5.58-21.78-10.99-32.09-17.09-7.17-4.22-14.34-8.44-21.49-12.65-.32-.11-.61-.22-.9-.33 6.17 4.62 12.37 9.23 18.53 13.85 8.76 6.9 17.53 13.78 26.25 20.63 6.17 5.05 12.37 10.02 18.53 15.04-6.45 2.05-12.95 4.14-19.44 6.2-20.69 6.38-41.43 12.76-62.16 19.14-.18.11-.4.18-.58.29 27.4-3.03 54.34-11.82 85.13-12.08v.33c-12.22 24.95-22.75 50.07-36.24 73.62v.29h.3c9.05-13.12 18.06-26.32 27.11-39.48 6.28-8.61 12.58-17.27 18.86-25.93l1.19-.86c8.44 18.35 12.58 40.88 18.28 61.29 1.95 8.04 3.93 16.09 5.88 24.17v.54h.29c-1.65-10.85-3.31-21.77-5.01-32.7-1.37-11.25-2.73-22.57-4.11-33.86-.79-7.57-1.59-15.1-2.34-22.68 21.42 8.94 40.21 19.8 59.2 30.94-2.27 10.02-4.54 20.05-6.78 30.04v.9h55.38c16.84 0 34.11.62 46.26-4.14 15.06-5.88 23.54-16.08 29.45-31.23 3.25-8.25 7.14-21.85 4.43-33.56-2.05-8.77-7.53-14.79-15.03-18-11.08-4.72-27.84-3.82-43.6-3.82h-56.57c-4.33 19.48-8.66 38.91-12.98 58.35h-.3c-12.15-7.9-22.89-17.74-34.18-26.5-5.62-4.4-12.69-8.84-17.09-14.46 19.43-6.2 38.91-12.37 58.34-18.57 4.94-1.55 12.51-3.92 22.97-7.36-11.77 2.07-19.6 3.19-29.82 4.94-9.23 1.3-18.09 3.21-27.32 4.47v-.25c6.56-3.29 13.16-6.49 19.76-9.77 13.62-5.88 28.19-10.67 43.01-15.29 70.52-22 191.1-30.11 267.5-7.39 33.39 9.95 77.13 23.55 83.4 59.53 2.24 12.91-4.68 22.94-9.44 29.46-13.99 19.25-35.8 31.4-58.92 41.54-69.79 31.45-188.52 40.31-258.96 33.6-24.38-1.96-43.09-6.27-62.48-12.37-11.14-3.49-26.65-11.17-38.3-12.36 4.04 3.17 9.74 4.86 14.75 7.02 14.49 6.31 29.64 11 46.23 15.94 92.3 27.58 233.32 19.39 311.74-13.85 24.77-10.53 47.53-22.64 62.17-43.3 4.58-6.5 11.61-17.32 9.99-29.18m-124.91-44.51c-6.78 30.25-13.56 60.51-20.34 90.72h38.3c6.78-30.21 13.56-60.47 20.33-90.72zm-59.53 55.38c-4.83 12.77-42.76 17.92-45.97.61-2.85-15.61 9.7-29.06 20.62-31.84 12.44-3.14 29.43-1.29 28.01 11.8h43.31c.5-23.81-10.31-31.09-30.32-34.8 0 0-37.75-2.16-50.08-.15-27.16 4.51-42.37 15.43-49.83 39.96-1.73 5.73-4.25 13.91-2.92 22.06 4.26 26.76 28.56 27.69 59.49 27.69 13.92 0 27.84.15 38.62-3.2 15.25-4.8 24.8-17.81 30.64-32.13z" style="fill:#612c75;stroke-width:0" transform="translate(-.01 -.008)"/><path d="M215.08 64.3c-27.51 7.02-53.4 16.8-79.03 29.78l-9.74 4.94 4.73-9.84 5.47-11.29-16.84 23.58-4.69 6.74-2.16-7.25-7.75-26.18c1.08 9.23 1.84 18.61 2.02 27.99l.11 5.94-5.37-2.52-6.56-3.1-9.77-4.62-2.34-1.19c-2.52-1.3-5.05-2.57-7.53-3.86l4.18 3.31 18.57 15.04 5.34 4.29-6.56 2.1-9.7 3.06-9.77 3.1-9.13 2.81c9.81-1.48 19.87-2.52 30.4-2.63l5.99.25-2.64 5.37c-3.96 8.05-7.71 16.12-11.5 24.2-.61 1.29-1.22 2.63-1.84 3.96l7.64-10.46 9.41-12.98 1.01-.93.4-.33 4.22-3.1 1.91 4.12c3.42 7.5 6.17 15.65 8.58 24.01l-.32-2.67-1.15-11.32-1.15-11.36-.62-6.17 5.7 2.38c8.4 3.54 16.44 7.32 24.29 11.36-.86-.69-1.76-1.41-2.67-2.06-1.33-1.08-2.78-2.13-4.26-3.21-4.83-3.56-9.84-7.25-13.49-11.9l-3.24-4.18 5.05-1.62 31.95-10.13-6.17.82-22.28 2.7 20.37-10.09 19.68-9.7c14.03-6.06 29.14-10.99 43.38-15.43 42.43-13.2 101.14-21.09 157.05-21.09 15.62 0 30.62.61 44.82 1.8 0 0-2.22-.61-4.87-.9-27.02-2.99-112.7-13.51-199.14 8.44zm248.97 43.15-18.68 83.33h30.73l8.22-36.75 10.46-46.59h-30.72zm-96.31.94c-26.93 4.47-40.09 14.93-46.95 37.47-1.65 5.51-3.96 13.09-2.77 20.33 3.64 22.97 23.54 24.59 55.84 24.59h2.7c11.69 0 24.95 0 34.84-3.06 10.88-3.42 19.61-11.8 26.03-24.92h-33.64c-4.91 7.62-17.93 11.69-28.82 11.69-12.76 0-21.41-5.26-23.04-14.09-3.1-16.98 9.85-32.67 23.37-36.05 3.75-.94 7.72-1.49 11.5-1.49 7.93 0 14.24 2.21 17.81 6.17 1.74 1.95 2.82 4.29 3.18 6.96h35.99c-.58-18.93-9.81-24.23-26.8-27.4-.18 0-17.56-1.01-32.34-1.01-7.89 0-13.62.29-16.91.83m-108.52-.7-6.7.04h-53.62l-12.33 55.45-1.22 4.33-5.34 23.55h50.99l5.22.04h5.23c12.37 0 25.24-.29 34.47-3.9 13.2-5.16 21.38-13.88 27.37-29.13 2.7-6.89 6.85-20.16 4.26-31.41-1.7-7.17-6.13-12.51-12.88-15.42-7.36-3.14-18.2-3.57-28.81-3.57l-6.64.04zm-42.69 63.23 8.3-37.72 1.44-6.78.65-2.85 2.93-.04c1.98-.03 4.11-.1 6.34-.14 3.21-.11 6.56-.22 9.85-.22 11.65 0 18.5 1.38 22.89 4.62 5.92 4.29 7.94 13.52 5.2 23.41-1.48 5.34-3.42 9.63-5.73 12.69-5.7 7.61-16.15 10.2-21.86 11.1-1.29.21-6.02.25-15.76.25-4.83.04-9.23.04-10.13.11l-5.16.47 1.04-4.91zm356.31-39.83c2.59 14.89-5.66 26.18-10.06 32.23-15.36 21.09-39.16 33.46-60.43 42.8-58.55 29.57-163.52 35.91-163.52 35.91l-6.78.26c-46.4 2.7-90.5-2.31-90.5-2.31 27.69 4.94 58.59 7.46 91.26 7.46 67.9 0 134.99-11.24 179.6-30.14 22.86-9.7 46.04-21.53 60.62-42.08 3.2-4.58 10.85-15.36 9.29-26.5-1.84-13.81-7.28-24.77-15.32-33.93a48.5 48.5 0 0 1 5.84 16.3" style="fill:url(#a);stroke-width:0" transform="translate(-.01 -.008)"/></g></svg>