<svg xmlns="http://www.w3.org/2000/svg" width="1024" height="580.912"><path d="m250.32 212.16-48.03-48.76-17.46-.11c-15.35-.1-18.82-.52-28.65-3.55-6.15-1.9-15.56-5.52-20.91-8.05l-9.73-4.61 30.7-14.34c16.88-7.89 30.94-14.75 31.25-15.24.3-.49-2.16-2.27-5.48-3.95-15.36-7.78-46.24-33.979-49.42-41.919-3.31-8.27-2.7-9.488 2.65-5.293 2.58 2.016 6.05 4.385 7.73 5.264 5.51 2.897 23.39 2.907 54.33.03 18.97-1.763 35.24-2.598 44.4-2.276 12.98.456 15.22.886 21.78 4.189 4.02 2.024 8.46 5.268 9.86 7.207 5.51 7.622 1.98 24.578-10.43 50.068l-6.05 12.43 20.56 22.19c11.31 12.2 21.01 22.18 21.55 22.18s10.23-9.97 21.52-22.15l20.54-22.16-7.88-13.07c-8.7-14.45-15.1-29.42-16.29-38.075-1.48-10.81 5.4-19.544 18.28-23.201 8.44-2.395 36.02-1.757 62.38 1.441 12.69 1.54 29.81 2.844 38.04 2.898 15.36.1 19.17-.788 26.51-6.173 2.78-2.04 2.81-2.015 2.81 2.756 0 4.341-.88 5.66-8.96 13.423-10.55 10.143-31.3 25.841-39.93 30.211-3.35 1.7-5.84 3.49-5.54 3.98.31.49 14.37 7.35 31.25 15.24l30.7 14.34-9.73 4.61c-5.35 2.53-14.76 6.15-20.91 8.05-9.83 3.03-13.3 3.46-28.65 3.55l-17.47.11-48.02 48.6c-26.42 26.73-48.31 48.67-48.65 48.76-19.57-19.1-32.96-32.68-48.65-48.6M417.77 106.69v1.08z" style="fill:#fff" transform="translate(-370.62 -188.904)scale(2.9522)"/><path d="M550.792 511.387c20.045-20.754 83.547-85.377 141.086-143.565l104.596-105.777 18.274 5.963c22.26 7.292 61.2 5.048 102.471-5.845 59.9-15.824 64.89-9.95-58.276-68.403L750.33 142.185l38.26-1.83c35.84-1.712 39.914-2.746 63.798-15.942 28.813-15.942 60.431-39.539 79.237-59.186l12.694-13.255h-25.684c-14.111 0-62.085-4.248-106.574-9.441-90.87-10.599-164.497-12.81-189.236-5.683-20.754 5.975-37.169 22.032-37.169 36.36 0 23.75 23.736 76.948 57.745 129.29 11.012 16.976 19.278 32.711 18.363 34.984-2.42 5.964-146.458 160.659-149.617 160.659-2.303 0-99.224-102.884-137.278-145.72l-13.757-15.5 23.559-49.213c23.794-49.744 38.94-92.055 38.94-108.874 0-5.465-4.872-14.064-12.046-21.232-22.26-22.266-72.978-25.02-204.174-11.098-27.928 2.964-68.078 5.406-89.215 5.43l-38.438.029 10.834 11.39c18.245 19.224 68.492 55.48 92.552 66.787 21.02 9.89 25.566 10.628 57.656 9.565 19.16-.65 34.305-.295 33.626.797s-50.158 25.094-109.94 53.376l-108.7 51.428 21.285 8.03c48.653 18.303 107.254 24.444 136.067 14.288l15.057-5.314L368.906 405.7c77.408 78.882 141.766 143.417 143.065 143.417 1.269 0 18.746-16.975 38.821-37.729"/></svg>