<svg xmlns="http://www.w3.org/2000/svg" width="902.447" height="516.402"><path d="M495.024 478.673c20.046-20.754 83.548-85.377 141.087-143.565L740.707 229.33l18.274 5.964c22.26 7.292 61.2 5.048 102.471-5.845 59.9-15.824 64.89-9.95-58.276-68.403l-108.612-51.575 38.26-1.83c35.84-1.712 39.914-2.746 63.798-15.942 28.813-15.942 60.431-39.539 79.237-59.186l12.694-13.255H862.87c-14.112 0-62.085-4.248-106.574-9.441-90.87-10.599-164.497-12.81-189.236-5.683-20.754 5.975-37.169 22.032-37.169 36.359 0 23.75 23.736 76.95 57.745 129.292 11.012 16.975 19.278 32.71 18.363 34.983-2.42 5.964-146.459 160.659-149.617 160.659-2.303 0-99.224-102.884-137.278-145.72l-13.757-15.5 23.559-49.213c23.794-49.745 38.94-92.055 38.94-108.874 0-5.465-4.872-14.064-12.046-21.232C333.54 2.622 282.821-.132 151.625 13.79c-27.928 2.964-68.078 5.406-89.215 5.43l-38.438.029 10.834 11.39c18.245 19.224 68.491 55.48 92.552 66.787 21.02 9.89 25.566 10.628 57.656 9.565 19.16-.65 34.305-.295 33.626.797s-50.158 25.094-109.94 53.376L0 212.591l21.285 8.03c48.653 18.304 107.254 24.445 136.067 14.29l15.056-5.315L313.14 372.985c77.407 78.882 141.764 143.417 143.063 143.417 1.27 0 18.747-16.975 38.822-37.729"/></svg>