<svg xmlns="http://www.w3.org/2000/svg" width="599.995" height="544.593"><path d="m299.976 544.593-41.712-114.821-242.952 42.289 121.77-79.83-15.53-2.766v-167.02l-19.56-64.474L0 212.065 79.982 43.02h112.306l.795 2.537L299.976 0 406.9 45.556l.806-2.537h112.306l79.982 169.046-101.992-54.083-19.571 64.462v167.021l-15.52 2.766 121.76 79.83-242.974-42.289z" style="fill:gray;stroke-width:10.8908"/><path d="m299.972 18.187 93.96 40.037-53.923 23.13v201.71l16.963-12.293 63.18-211.01h89.332l53.868 113.973-75.46-40.05-26.15 86.254v155.548l-43.128 7.705 89.277 58.552-177.084-30.794-30.835 84.662-30.794-84.662L92.04 441.743l89.345-58.552-43.127-7.705V219.938l-26.166-86.255-75.46 40.05 53.87-113.971h89.345l63.166 211.01 16.963 12.292V81.354l-53.923-23.13z"/></svg>