<svg xmlns="http://www.w3.org/2000/svg" width="600" height="544.594"><linearGradient id="a" x1="0" x2="1" y1="0" y2="0" gradientTransform="rotate(-55 528.088 102.374)scale(552.307)" gradientUnits="userSpaceOnUse" spreadMethod="pad"><stop offset="0" style="stop-color:#612c75"/><stop offset=".4" style="stop-color:#7b5190"/><stop offset=".5" style="stop-color:#bf99c3"/><stop offset=".7" style="stop-color:#7b5190"/><stop offset="1" style="stop-color:#612c75"/></linearGradient><path fill="#fff" d="m299.973 544.594-41.698-114.816-242.96 42.283 121.773-79.83-15.533-2.763V222.444l-19.563-64.46L0 212.071 79.98 43.019h112.31l.79 2.545L299.973 0l106.934 45.564.803-2.545h112.31L600 212.07l-101.992-54.087-19.576 64.46v167.024l-15.52 2.764 121.773 79.829-242.974-42.283z"/><path d="m206.053 58.224 53.923 23.13v201.765l-16.962-12.347-63.167-211.01h-89.29L36.632 173.736l75.46-40.051 26.165 86.255V375.54l43.128 7.65-89.346 58.552L269.18 410.95l30.848 84.662 30.78-84.662 177.084 30.793-89.277-58.551 43.128-7.651V219.939l26.151-86.255 75.46 40.05L509.43 59.764h-89.278l-63.18 211.009-16.962 12.347V81.354l53.923-23.13-93.906-40.037Z" style="fill:url(#a);stroke-width:13.6135"/></svg>