<?xml version="1.0" encoding="UTF-8" standalone="no"?>
<svg
   version="1.1"
   width="600"
   height="600"
   id="svg2"
   xmlns="http://www.w3.org/2000/svg"
   xmlns:svg="http://www.w3.org/2000/svg">
  <defs
     id="defs2" />
  <path
     d="M 300,600 C 134.535,600 0,465.48 0,300 0,134.595 134.535,0 300,0 465.405,0 600,134.595 600,300 600,465.48 465.405,600 300,600"
     style="fill:#808080"
     id="path1" />
  <path
     d="M 300,64.17 C 169.74,64.17 64.155,169.755 64.155,300 64.155,430.26 169.74,535.845 300,535.845 430.245,535.845 535.845,430.26 535.845,300 535.845,169.755 430.245,64.17 300,64.17 M 576.915,300 C 576.915,452.985 452.925,576.915 300,576.915 147.075,576.915 23.085,452.985 23.085,300 23.085,147.075 147.075,23.085 300,23.085 452.925,23.085 576.915,147.075 576.915,300 M 265.89,437.52 v -98.49 l 85.32,-49.275 85.305,49.275 v 90.81 L 473.97,408.285 V 206.67 L 299.355,105.825 124.74,206.67 v 201.615 l 174.615,100.785 45.24,-26.085 z"
     id="path2" />
</svg>
