<?xml version="1.0" encoding="UTF-8" standalone="no"?>
<svg
   version="1.1"
   width="600"
   height="600"
   id="svg6"
   xmlns:xlink="http://www.w3.org/1999/xlink"
   xmlns="http://www.w3.org/2000/svg"
   xmlns:svg="http://www.w3.org/2000/svg">
  <defs
     id="defs6" />
  <linearGradient
     x1="0"
     y1="0"
     x2="1"
     y2="0"
     id="linearGradient412"
     gradientUnits="userSpaceOnUse"
     gradientTransform="matrix(31.981628,18.4646,18.4646,-31.981628,83.679199,362.86084)"
     spreadMethod="pad">
    <stop
       style="stop-color:#536e78"
       offset="0"
       id="stop1" />
    <stop
       style="stop-color:#99aebc"
       offset="0.3"
       id="stop2" />
    <stop
       style="stop-color:#d9eaf3"
       offset="0.5"
       id="stop3" />
    <stop
       style="stop-color:#99aebc"
       offset="0.7"
       id="stop4" />
    <stop
       style="stop-color:#536e78"
       offset="1"
       id="stop5" />
  </linearGradient>
  <linearGradient
     x1="0"
     y1="0"
     x2="1"
     y2="0"
     id="linearGradient2995"
     xlink:href="#linearGradient412"
     gradientUnits="userSpaceOnUse"
     gradientTransform="matrix(31.981628,18.4646,18.4646,-31.981628,83.679199,362.86084)"
     spreadMethod="pad" />
  <linearGradient
     x1="0"
     y1="0"
     x2="1"
     y2="0"
     id="linearGradient2998"
     xlink:href="#linearGradient412"
     gradientUnits="userSpaceOnUse"
     gradientTransform="matrix(479.72442,-276.969,276.969,479.72442,60.107984,438.4974)"
     spreadMethod="pad" />
  <path
     d="M 300,600 C 134.535,600 0,465.48 0,300 0,134.595 134.535,0 300,0 465.405,0 600,134.595 600,300 600,465.48 465.405,600 300,600"
     id="path5" />
  <path
     d="m 23.085,300 c 0,152.985 123.93,276.915 276.915,276.915 v 0 c 152.925,0 276.915,-123.93 276.915,-276.915 v 0 C 576.915,147.075 452.925,23.085 300,23.085 v 0 C 147.015,23.085 23.085,147.075 23.085,300 m 41.07,0 C 64.155,169.755 169.74,64.17 300,64.17 v 0 c 130.245,0 235.845,105.585 235.845,235.83 v 0 c 0,130.26 -105.6,235.845 -235.845,235.845 v 0 C 169.74,535.845 64.155,430.26 64.155,300 M 124.74,206.67 V 408.285 L 299.355,509.07 344.595,482.985 265.89,437.52 v -98.49 l 85.32,-49.215 85.305,49.215 v 90.81 L 473.97,408.285 V 206.67 L 299.355,105.885 Z"
     style="fill:url(#linearGradient2998)"
     id="path6" />
</svg>
