<?xml version="1.0" encoding="UTF-8" standalone="no"?>
<svg
   version="1.1"
   width="553.83002"
   height="553.83002"
   id="svg1"
   xmlns="http://www.w3.org/2000/svg"
   xmlns:svg="http://www.w3.org/2000/svg">
  <defs
     id="defs1" />
  <path
     d="m 276.915,41.085 c -130.26,0 -235.845,105.585 -235.845,235.83 0,130.26 105.585,235.845 235.845,235.845 130.245,0 235.845,-105.585 235.845,-235.845 0,-130.245 -105.6,-235.83 -235.845,-235.83 M 553.83,276.915 C 553.83,429.9 429.84,553.83 276.915,553.83 123.99,553.83 0,429.9 0,276.915 0,123.99 123.99,0 276.915,0 429.84,0 553.83,123.99 553.83,276.915 m -311.025,137.52 v -98.49 l 85.32,-49.275 85.305,49.275 v 90.81 L 450.885,385.2 V 183.585 L 276.27,82.74 101.655,183.585 V 385.2 L 276.27,485.985 321.51,459.9 Z"
     id="path1" />
</svg>
