<svg xmlns="http://www.w3.org/2000/svg" xmlns:xlink="http://www.w3.org/1999/xlink" width="600" height="639.141"><linearGradient id="a" x1="0" x2="1" y1="0" y2="0" gradientTransform="matrix(34.81738 0 0 -34.81738 215.584 260.363)" gradientUnits="userSpaceOnUse" spreadMethod="pad"><stop offset="0" style="stop-color:#bf331c"/><stop offset=".4" style="stop-color:#d3641c"/><stop offset=".5" style="stop-color:#f6b91d"/><stop offset=".7" style="stop-color:#d3641c"/><stop offset="1" style="stop-color:#bf331c"/></linearGradient><linearGradient xlink:href="#a" id="b" x1="0" x2="1" y1="0" y2="0" gradientTransform="translate(32.471 300.064)scale(535.07581)" gradientUnits="userSpaceOnUse" spreadMethod="pad"/><path d="M496.603 80.536C411.064 2.604 326.355 11.61 326.355 11.61s18.257 35.777 64.362 70.124c7.13 5.395 59.428 54.142 59.428 119.395 0 69.94-54.326 88.966-64.592 88.966 0 0-25.035-15.368-25.035-55.833 0-28.984 28.57-43.092 28.57-43.092s9.666-50.192-11.28-87.29c-19.395-34.455-47.073-65.5-55.356-73.29C314.168 22.783 300 8.675 300 8.675s-14.17 14.108-22.39 21.915c-8.346 7.79-35.963 38.835-55.34 73.29-20.964 37.098-11.359 87.29-11.359 87.29s28.646 14.108 28.646 43.092c0 40.465-25.096 55.833-25.096 55.833-10.204 0-64.53-19.026-64.53-88.966 0-65.253 52.282-114 59.428-119.395 46.043-34.347 64.346-70.124 64.346-70.124s-84.693-9.006-170.247 68.926c-62.979 57.323-97.31 131.29-97.31 216.105 0 164.485 126.248 242.047 149.116 255.08 22.867 13.14 92.807 50.484 92.807 50.484S191.1 515.22 186.967 494.32c0 0 58.23-3.95 88.428 70.97L300 623.397l24.681-58.106c30.183-74.92 88.366-70.97 88.366-70.97-4.087 20.9-61.118 107.884-61.118 107.884s70.001-37.345 92.87-50.484c22.805-13.033 149.054-90.595 149.054-255.08 0-84.816-34.27-158.782-97.25-216.105" style="stroke:#fff;stroke-width:12.2945"/><path d="M245.427 116.374c-13.678 25.327-9.713 59.428-9.713 59.428s30.183 19.502 30.183 58.46c0 54.572-34.148 81.897-52.635 81.897-18.488 0-89.688-21.5-89.688-115.03 0-93.592 85.784-155.894 85.784-155.894S32.502 108.09 32.502 296.64c0 162.748 137.406 232.442 137.406 232.442s-9.236-21.914-9.236-35.53c0-13.693 11.65-26.357 30.198-26.357 18.488 0 80.852 14.646 109.13 88.72 28.276-74.074 90.655-88.72 109.204-88.72 18.488 0 30.183 12.664 30.183 26.356 0 13.617-9.236 35.53-9.236 35.53s137.406-69.693 137.406-232.441c0-188.55-176.902-251.406-176.902-251.406s85.785 62.302 85.785 155.894c0 93.53-71.139 115.03-89.688 115.03-18.488 0-52.59-27.325-52.59-81.897 0-38.958 30.198-58.46 30.198-58.46s3.904-34.101-9.789-59.428c-13.63-25.403-54.51-72.168-54.51-72.168s-41.003 46.765-54.634 72.168" style="fill:url(#b)"/></svg>