<svg xmlns="http://www.w3.org/2000/svg" xmlns:xlink="http://www.w3.org/1999/xlink" width="600" height="627.582"><linearGradient id="a" x1="0" x2="1" y1="0" y2="0" gradientTransform="matrix(34.81738 0 0 -34.81738 82.334 260.363)" gradientUnits="userSpaceOnUse" spreadMethod="pad"><stop offset="0" style="stop-color:#536e78"/><stop offset=".4" style="stop-color:#99aebc"/><stop offset=".5" style="stop-color:#d9eaf3"/><stop offset=".7" style="stop-color:#99aebc"/><stop offset="1" style="stop-color:#536e78"/></linearGradient><linearGradient xlink:href="#a" id="b" x1="0" x2="1" y1="0" y2="0" gradientTransform="translate(26.876 297.485)scale(546.26928)" gradientUnits="userSpaceOnUse" spreadMethod="pad"/><path d="M500.716 73.364C413.388-6.197 326.908 2.997 326.908 2.997s18.639 36.525 65.707 71.591c7.28 5.507 60.672 55.274 60.672 121.892 0 71.403-55.463 90.827-65.943 90.827 0 0-25.559-15.69-25.559-57 0-29.59 29.167-43.994 29.167-43.994s9.87-51.242-11.516-89.116c-19.8-35.176-48.057-66.87-56.514-74.824C314.466 14.403 300 0 300 0s-14.466 14.403-22.86 22.373c-8.52 7.955-36.713 39.648-56.498 74.824-21.4 37.874-11.594 89.116-11.594 89.116s29.245 14.403 29.245 43.994c0 41.31-25.621 57-25.621 57-10.418 0-65.88-19.424-65.88-90.827 0-66.618 53.375-116.385 60.671-121.892 47.006-35.066 65.692-71.591 65.692-71.591S186.69-6.197 99.346 73.364C35.05 131.886 0 207.4 0 293.991 0 461.916 128.89 541.1 152.236 554.406c23.346 13.415 94.749 51.54 94.749 51.54s-58.161-88.803-62.382-110.14c0 0 59.448-4.033 90.278 72.454L300 627.582l25.197-59.322c30.815-76.487 90.215-72.454 90.215-72.454-4.173 21.337-62.397 110.14-62.397 110.14s71.466-38.125 94.812-51.54C471.11 541.101 600 461.916 600 293.991c0-86.59-34.988-162.105-99.284-220.627"/><path d="M244.286 109.952c-13.9 25.857-9.915 60.672-9.915 60.672s30.814 19.91 30.814 59.683c0 55.714-34.8 83.61-53.737 83.61-18.874 0-91.501-21.95-91.501-117.437 0-95.55 87.516-159.155 87.516-159.155S26.908 101.495 26.908 293.991c0 166.152 140.28 237.304 140.28 237.304s-9.492-22.373-9.492-36.274c0-13.98 11.955-26.907 30.892-26.907 18.875 0 82.543 14.952 111.412 90.575 28.869-75.623 92.553-90.575 111.427-90.575 18.938 0 30.877 12.928 30.877 26.907 0 13.901-9.43 36.274-9.43 36.274s140.281-71.152 140.281-237.304c0-192.495-180.602-256.666-180.602-256.666s87.579 63.606 87.579 159.155c0 95.487-72.627 117.437-91.564 117.437-18.875 0-53.69-27.896-53.69-83.61 0-39.773 30.83-59.683 30.83-59.683s3.922-34.815-9.994-60.672c-13.917-25.934-55.651-73.678-55.651-73.678s-41.86 47.744-55.777 73.678" style="fill:url(#b)"/></svg>