<svg xmlns="http://www.w3.org/2000/svg" width="546.31" height="522.351"><path d="M365.708.988s87.579 63.731 87.579 159.218-72.69 117.436-91.564 117.436c-18.875 0-53.753-27.896-53.753-83.61 0-39.772 30.893-59.682 30.893-59.682s3.922-34.815-9.994-60.672C314.952 47.743 273.218 0 273.218 0s-41.86 47.743-55.776 73.678c-13.964 25.857-9.979 60.672-9.979 60.672s30.877 19.91 30.877 59.683c0 55.713-34.862 83.61-53.737 83.61-18.874 0-91.564-21.95-91.564-117.437S180.62.988 180.62.988 0 65.221 0 257.717C0 423.869 140.343 495.02 140.343 495.02s-9.492-22.373-9.492-36.274c0-13.98 11.955-26.908 30.893-26.908 18.874 0 82.542 14.952 111.411 90.513 28.869-75.56 92.553-90.513 111.427-90.513 18.938 0 30.877 12.929 30.877 26.908 0 13.9-9.492 36.274-9.492 36.274S546.31 423.87 546.31 257.717C546.31 65.22 365.708.988 365.708.988"/></svg>