<?xml version="1.0" encoding="UTF-8"?><svg id="Layer_2" xmlns="http://www.w3.org/2000/svg" width="299.99755" height="297.59851" xmlns:xlink="http://www.w3.org/1999/xlink" viewBox="0 0 299.99755 297.59851"><defs><style>.cls-1{fill:#612c75;}.cls-2{fill:url(#radial-gradient);}</style><radialGradient id="radial-gradient" cx="105.07211" cy="102.90828" fx="105.07211" fy="102.90828" r="167.46826" gradientUnits="userSpaceOnUse"><stop offset="0" stop-color="#bf99c3"/><stop offset=".23254" stop-color="#bc95c0"/><stop offset=".4179" stop-color="#b38bb9"/><stop offset=".58701" stop-color="#a57bad"/><stop offset=".7464" stop-color="#90639c"/><stop offset=".89762" stop-color="#764586"/><stop offset="1" stop-color="#612c75"/></radialGradient></defs><g id="Layer_1_copy_6"><path d="M299.88995,244c-.41998-5.76001-1.13995-10.26001-1.73999-10.86005-.17999-.17999-13.98999-.35999-30.67999-.41998l-30.37-.12-6.29999-6.29999-6.29999-6.31,4.5-5.10004c22.20996-24.84998,35.88995-54.25995,41.23999-88.53998,1.73999-11.09998,1.85999-33.84998.29999-45.32001-2.77002-19.57001-9.66998-41.23999-17.95001-56.12-3.23999-5.82001-15.60999-24.90997-16.08997-24.90997-.17999,0-30.07001,21.37-66.33002,47.47998-36.31,26.10999-66.63,47.90002-67.41003,48.44-1.37994.89996-1.67999.65997-17.16998-14.77002-10.32001-10.32001-16.14001-15.71997-16.91998-15.71997-1.62,0-3.23999,1.79999-3.23999,3.59998,0,1.08002,3.95996,5.46002,15.65997,17.16003l15.66998,15.66998-35.59998,48.85999c-19.57001,26.90002-41.34998,56.78998-48.38,66.39001-7.02002,9.66998-12.77997,17.70996-12.77997,17.89001,0,.89996,10.19995,7.62,19.81,12.96997,30.60999,17.09998,51.26001,22.75,83.13,22.75,19.20996,0,32.59998-1.91998,49.51996-7.02997,23.95001-7.20001,43.10004-18.06,64.71002-36.55005l2.64001-2.21997,6.84998,6.83997,6.84003,6.78003.12,28.57001.17999,28.52002,4.5,1.07996c6.06,1.44,18.13,1.08002,24.48999-.71997,23.10999-6.73004,38.65997-28.52002,37.09998-51.98999ZM98.01996,117.64996c.72003-2.15997.72003-2.39996,1.73999,35.35004l.24005,8.64996-6-.35999c-6.85004-.41998-8.77002-.84003-8.77002-1.85999,0-.66003,10.92999-36.38,12.78998-41.78003ZM91.59998,120.82996c.12.06-2.46002,8.58002-5.65002,18.91003l-5.81995,18.84998-1.80005-.35999c-2.51996-.53998-10.62-4.45001-10.38-5.04999.30005-.90002,23.34003-32.35004,23.65002-32.35004ZM8.15997,237.51996c-1.14001-.83997.17999-2.70001,24.54999-36.19,14.17004-19.44995,27.37-37.57996,29.35004-40.33997,1.97998-2.70001,3.66998-4.92004,3.72998-4.92004.12,0,1.14001.60004,2.34003,1.26001,1.13995.72003,4.07996,2.04004,6.47998,3,2.39996.90002,4.26001,1.92004,4.20001,2.16003-.23999,1.20001-29.59003,95.79999-29.77002,96.03998-.96002.96002-34.34003-16.21002-40.88-21.01001ZM102.63995,267.88995l-8.81995-.35999c-12.19-.53998-24.73004-2.52002-34.88-5.58002-4.74005-1.44-5.04004-1.62-4.68005-2.94.66003-2.63995,29.29004-94.83997,29.59003-95.31995.17999-.30005,1.02002-.36005,1.91998-.18005.84003.24005,4.45001.54004,8.05005.78003l6.41998.35999v3.35999c0,1.86005.53998,21.97003,1.20001,44.78003.65997,22.75,1.19995,44.47998,1.19995,48.26001v6.83997ZM268.13,117.16998c-.42004,6-2.70001,19.39001-4.68005,27.19-1.44,5.52002-5.09998,17.04999-5.81995,18.19-.36005.53998-12.37006-4.26001-48.08002-19.33002-26.16998-11.03998-47.72003-20.16998-47.84003-20.34998-.17999-.17999.36005-2.58002,1.20001-5.28003.84003-2.76001,1.67999-6.12,1.91998-7.44.36005-2.16998.72003-3.31,1.02002-3.31.06,0,22.57001,1.08002,49.94,2.40002,27.42999,1.32996,50.47998,2.40997,51.26001,2.40997h1.44l-.35999,5.52002ZM123.10999,104.79999c2.76001.17999,12.54999.65997,21.72998,1.08002,9.17999.41998,16.87.95996,17.04999,1.19995.48004.42004-1.38,8.65002-2.69995,11.95001-.60004,1.62-1.20001,2.22003-1.86005,2.03998-1.07996-.29999-38.65997-16.08997-39.01996-16.38995-.12-.12,2.03998-.06,4.79999.12ZM161.22998,85.88995c.41998-.06.84003.30005,1.02002.78003.53998,1.45001,1.19995,12.19.83997,13.69l-.35999,1.38-21.31-1.02002c-11.71002-.53998-21.84998-1.08002-22.51001-1.20001-1.08002-.12,40.16003-13.38995,42.32001-13.63ZM263.63,62.12c2.39996,9.13,3.89996,18.31,4.62,28.21997.60999,7.73999.84998,16.5.54999,16.5-.13,0-22.57001-1.08002-50.01001-2.39996-27.37-1.32001-50.41998-2.40002-51.14001-2.40002-1.32001,0-1.38-.23999-1.38-4.67999,0-2.52002-.29999-6.35999-.59998-8.52002-.29999-2.10999-.47998-3.96997-.35999-4.02997.47998-.48004,95.01996-29.53003,95.73999-29.41003.59998.06,1.5,2.34003,2.58002,6.72003ZM197.71997,35.88995c21.85004-15.71997,39.73999-28.63,39.85999-28.63.10004,0,2.60004,3.70001,5.58002,8.16003,3.01001,4.57001,7.27002,12.07001,9.54999,16.69,4.14001,8.52002,7.62,17.46997,7.08002,18.07001-.78003.71997-95.62,29.58997-95.97998,29.16998-.17999-.23999-1.02002-2.34003-1.73999-4.62-.78003-2.34003-1.98004-5.58002-2.70001-7.20001l-1.32001-3,39.66998-28.64001ZM155.27997,66.63c.06,0,.54999.71997,1.03003,1.62,1.01996,2.09998,4.67999,12.29999,4.38,12.53998-.30005.29999-42.64001,13.33002-43.39001,13.33002.82001-.87,37.62-27.48999,37.97998-27.48999ZM132.40997,116.08997c10.51001,4.38,20.16998,8.46002,21.48999,9l2.29004.96002-1.93005,3.41998c-2.03998,3.54999-6.41998,9.60999-7.91998,10.87-.65997.54004-4.01996-2.52002-17.64996-16.20996-9.18005-9.24005-16.44-16.69-16.08002-16.51001.35999.23999,9.23999,4.02997,19.79999,8.46997ZM124.00995,129.22998l16.75,16.69-2.09998,1.73999c-2.58002,2.15997-11.95001,7.81-12.90997,7.81-.54004,0-16.57001-37.27997-18.25-42.26001-.12-.35999,7.32996,6.84003,16.50995,16.02002ZM104.13995,118.31c.12.17999,3.90002,9.06,8.35004,19.75l8.09998,19.50995-1.67999.72003c-1.79999.77997-13.39001,3.23999-13.69,2.94-.17999-.17999-1.32001-34.52002-1.38-40.22003,0-1.62.12-2.81995.29999-2.69995ZM155.39996,259.60999c-14.09998,4.56-26.95001,7.02002-40.57001,7.85999l-6.66998.41998-.35999-5.63995c-.17999-3.12-.72003-22.15002-1.26001-42.26001-.47998-20.17004-1.08002-40.87-1.26001-46.04004l-.35999-9.41998,2.27997-.35999c1.32001-.17999,4.81-.96002,7.75-1.73999,3-.78003,5.82001-1.38,6.24005-1.32001.59998.06,7.67999,16.39001,19.98999,45.97998,10.5,25.27002,19.45001,46.94,19.98999,48.14001l.90002,2.21997-6.67004,2.16003ZM212.96997,226.53998c-5.09998,4.73999-13.92999,11.27997-22.33002,16.62-6.35999,3.97003-20.10999,11.04999-22.63,11.65002-1.5.35999-1.67999,0-21.48999-47.72003-10.97998-26.46997-19.92999-48.14001-19.81-48.26001.12-.06,2.46002-1.44,5.16003-3.06,2.70996-1.57001,6.19-3.90997,7.81-5.16998,1.56-1.20001,3-2.28003,3.17999-2.28003.23999,0,17.02997,16.67004,37.39996,37.04004l37.15002,37.14996-4.44,4.03003ZM185.23999,180.67999c-20.35004-20.29004-36.98004-37.16003-36.98004-37.40002,0-.29999,1.08002-1.79999,2.46002-3.29999,1.38-1.56,3.84003-5.03998,5.47003-7.73999l3-4.92999,3.12,1.38c1.67999.71997,23.22998,9.78998,47.89996,20.16998,24.67004,10.39001,44.90002,19.20996,44.90002,19.57001,0,1.13995-8.10004,16.63-12.07001,22.92999-4.26001,6.89996-11.64001,16.51001-17.21997,22.39001l-3.67004,3.83997-36.90997-36.90997ZM255.28998,239.5c6.17999,0,11.21997.23999,11.21997.47998,0,.83997-4.43994,7.69-6.71997,10.39001l-2.21997,2.63995-6.78003-6.77997-6.78998-6.72998h11.28998ZM240.09998,245.19995l6,6.01001c5.47003,5.46002,5.95001,6.06,4.98999,6.78003-1.73999,1.32001-8.16998,4.73999-9.60999,5.21997l-1.38.35999v-18.37ZM248.87,294.60999c-1.98004.12-4.81,0-6.19-.17999l-2.58002-.36005v-26.95996l1.97998-.84003c1.02002-.41998,2.04004-.65997,2.22003-.53998.17999.17999,2.10999,6.66998,4.27002,14.46997l4.01996,14.23004-3.71997.17999ZM275.39996,286.79999c-2.09998,1.32001-5.33997,3.12-7.20996,3.95996-3.66003,1.63-10.62,3.61005-11.10004,3.19-.12-.17999-2.15997-7.14996-4.5-15.42999-3.41998-12.25-4.08002-15.25-3.41998-15.66998.77997-.41998,5.03998-3.35999,5.03998-3.47998.06,0,5.67999,5.62,12.48004,12.42999l12.48999,12.53998-3.78003,2.46002ZM286.38,276.71997l-2.40002,2.70001-12.12-12.07001-12.13-12.12,2.03998-2.40002,1.98004-2.39996,2.75995,1.07996c1.5.60004,8.11005,3.12006,14.71002,5.70001,6.60004,2.58002,12.25,4.92004,12.60999,5.22003.84003.71997-4.44995,10.87-7.44995,14.28998ZM295.69,257.92999c-.18005.17999-27.62-10.32001-28.64001-10.98004-.29999-.17999.29999-1.92999,1.26001-3.90997l1.81-3.53998h26.28998l.41998,4.91998c.30005,4.14996-.41998,12.78998-1.13995,13.51001Z"/><path class="cls-1" d="M295.69,257.92999c-.18005.17999-27.62-10.32001-28.64001-10.98004-.29999-.17999.29999-1.92999,1.26001-3.90997l1.81-3.53998h26.28998l.41998,4.91998c.30005,4.14996-.41998,12.78998-1.13995,13.51001ZM293.82996,262.42999c-.35999-.29999-6.00995-2.64001-12.60999-5.22003-6.59998-2.57996-13.21002-5.09998-14.71002-5.70001l-2.75995-1.07996-1.98004,2.39996-2.03998,2.40002,12.13,12.12,12.12,12.07001,2.40002-2.70001c3-3.41998,8.28998-13.57001,7.44995-14.28998ZM266.69,271.79999c-6.80005-6.81-12.42004-12.42999-12.48004-12.42999,0,.12-4.26001,3.06-5.03998,3.47998-.66003.41998,0,3.41998,3.41998,15.66998,2.34003,8.28003,4.38,15.25,4.5,15.42999.48004.42004,7.44-1.56,11.10004-3.19,1.87-.83997,5.10999-2.63995,7.20996-3.95996l3.78003-2.46002-12.48999-12.53998ZM248.57001,280.19995c-2.16003-7.79999-4.09003-14.28998-4.27002-14.46997-.17999-.12-1.20001.12-2.22003.53998l-1.97998.84003v26.95996l2.58002.36005c1.38.17999,4.20996.29999,6.19.17999l3.71997-.17999-4.01996-14.23004Z"/><path class="cls-2" d="M259.78998,50.17999c-.78003.71997-95.62,29.58997-95.97998,29.16998-.17999-.23999-1.02002-2.34003-1.73999-4.62-.78003-2.34003-1.98004-5.58002-2.70001-7.20001l-1.32001-3,39.66998-28.64001c21.85004-15.71997,39.73999-28.63,39.85999-28.63.10004,0,2.60004,3.70001,5.58002,8.16003,3.01001,4.57001,7.27002,12.07001,9.54999,16.69,4.14001,8.52002,7.62,17.46997,7.08002,18.07001ZM268.25,90.33997c-.72003-9.90997-2.22003-19.08997-4.62-28.21997-1.08002-4.38-1.98004-6.66003-2.58002-6.72003-.72003-.12-95.26001,28.92999-95.73999,29.41003-.12.06.06,1.91998.35999,4.02997.29999,2.16003.59998,6,.59998,8.52002,0,4.44.06,4.67999,1.38,4.67999.72003,0,23.77002,1.08002,51.14001,2.40002,27.44,1.31995,49.88,2.39996,50.01001,2.39996.29999,0,.06-8.76001-.54999-16.5ZM267.04999,111.64996c-.78003,0-23.83002-1.08002-51.26001-2.40997-27.37-1.32001-49.88-2.40002-49.94-2.40002-.29999,0-.65997,1.14001-1.02002,3.31-.23999,1.32001-1.07996,4.67999-1.91998,7.44-.83997,2.70001-1.38,5.10004-1.20001,5.28003.12.17999,21.67004,9.31,47.84003,20.34998,35.70996,15.07001,47.71997,19.87,48.08002,19.33002.71997-1.14001,4.37994-12.66998,5.81995-18.19,1.98004-7.79999,4.26001-21.19,4.68005-27.19l.35999-5.52002h-1.44ZM210.20996,148.85999c-24.66998-10.38-46.21997-19.45001-47.89996-20.16998l-3.12-1.38-3,4.92999c-1.63,2.70001-4.09003,6.17999-5.47003,7.73999-1.38,1.5-2.46002,3-2.46002,3.29999,0,.23999,16.63,17.10999,36.98004,37.40002l36.90997,36.90997,3.67004-3.83997c5.57996-5.88,12.95996-15.49005,17.21997-22.39001,3.96997-6.29999,12.07001-21.79004,12.07001-22.92999,0-.36005-20.22998-9.17999-44.90002-19.57001ZM180.25995,185.35999c-20.37-20.37-37.15997-37.04004-37.39996-37.04004-.17999,0-1.62,1.08002-3.17999,2.28003-1.62,1.26001-5.10004,3.59998-7.81,5.16998-2.70001,1.62-5.04004,3-5.16003,3.06-.12.12,8.83002,21.79004,19.81,48.26001,19.81,47.72003,19.98999,48.08002,21.48999,47.72003,2.52002-.60004,16.27002-7.67999,22.63-11.65002,8.40002-5.34003,17.23004-11.88,22.33002-16.62l4.44-4.03003-37.15002-37.14996ZM161.16998,255.22998c-.53998-1.20001-9.48999-22.87-19.98999-48.14001-12.31-29.58997-19.39001-45.91998-19.98999-45.97998-.42004-.06-3.24005.53998-6.24005,1.32001-2.94.77997-6.42999,1.56-7.75,1.73999l-2.27997.35999.35999,9.41998c.17999,5.17004.78003,25.87,1.26001,46.04004.53998,20.10999,1.08002,39.14001,1.26001,42.26001l.35999,5.63995,6.66998-.41998c13.62-.83997,26.47003-3.29999,40.57001-7.85999l6.67004-2.16003-.90002-2.21997ZM101.44,212.78998c-.66003-22.81-1.20001-42.91998-1.20001-44.78003v-3.35999l-6.41998-.35999c-3.60004-.23999-7.21002-.53998-8.05005-.78003-.89996-.17999-1.73999-.12-1.91998.18005-.29999.47998-28.92999,92.67999-29.59003,95.31995-.35999,1.32001-.06,1.5,4.68005,2.94,10.14996,3.06,22.69,5.04004,34.88,5.58002l8.81995.35999v-6.83997c0-3.78003-.53998-25.51001-1.19995-48.26001ZM74.60999,160.32996c-2.40002-.95996-5.34003-2.27997-6.47998-3-1.20001-.65997-2.22003-1.26001-2.34003-1.26001-.06,0-1.75,2.22003-3.72998,4.92004-1.98004,2.76001-15.17999,20.89001-29.35004,40.33997-24.37,33.48999-25.69,35.35004-24.54999,36.19,6.53998,4.79999,39.91998,21.97003,40.88,21.01001.17999-.23999,29.53003-94.83997,29.77002-96.03998.06-.23999-1.80005-1.26001-4.20001-2.16003Z"/></g></svg>