<svg xmlns="http://www.w3.org/2000/svg" width="600" height="327.142"><radialGradient id="a" cx="0" cy="0" r="1" fx="0" fy="0" gradientTransform="matrix(19.8009 0 0 -19.80089 401.297 483.72)" gradientUnits="userSpaceOnUse" spreadMethod="pad"><stop offset="0" style="stop-color:#bf99c3"/><stop offset=".663" style="stop-color:#7b5190"/><stop offset="1" style="stop-color:#612c75"/></radialGradient><path d="M39.295 100.701c36.425 34.342 88.167 45.164 111.087 48.153 11.04 14.913 40.614 31.702 117.742 31.702 11.421 0 20.749 9.294 20.749 20.749 0 11.422-9.328 20.76-20.75 20.76l-29.781.164-2.651.807c-11.247 3.546-30.251 18.328-30.251 51.393 0 32.771 18.622 47.902 29.575 51.698l2.978 1.015h277.636l2.978-1.015c10.953-3.796 29.575-18.927 29.575-51.698 0-33.065-19.004-47.847-30.251-51.393l-19.015-.97c-10.69 0-19.341-8.695-19.341-19.353 0-10.648 8.65-19.342 19.341-19.342h101.04L600 0H203.65l-13.417 17.17H0s3.24 49.56 39.295 83.532" style="fill:#fff"/><path d="M446.89 229.603c0-10.309-8.4-18.709-18.708-18.709-10.31 0-18.666 8.4-18.666 18.71 0 10.308 8.357 18.665 18.666 18.665s18.709-8.357 18.709-18.666m-88.255 0c0-10.309-8.356-18.709-18.665-18.709-10.31 0-18.71 8.4-18.71 18.71 0 10.308 8.4 18.665 18.71 18.665 10.309 0 18.665-8.357 18.665-18.666m222.611-64.898h-82.33c-21 0-38.052 16.996-38.052 38.007s17.051 38.018 38.051 38.018l13.473.12s17.127 5.367 17.127 33.578c0 28.167-17.007 34.015-17.007 34.015H241.113s-17.008-5.848-17.008-34.015c0-28.21 17.128-33.578 17.128-33.578l26.89-.12c21.775 0 39.415-17.694 39.415-39.425 0-21.775-17.64-39.415-39.414-39.415-103.375 0-105.382-30.556-105.382-30.556S43.385 124.69 23.356 35.836H199.31l13.462-17.127h368.564z" style="fill:#612c75"/><path d="m393.27 496.449-1.067-1.359-.168-.211h-15.68c2.161-7.008 11.993-7.649 12.094-7.652l.438-.063.078-.422c.004-.027.523-2.312 9.113-2.312a4.17 4.17 0 0 0 4.164-4.168 4.167 4.167 0 0 0-4.16-4.164l-2.359-.008c-.254-.125-1.133-.684-1.133-2.531 0-1.84.871-2.434 1.133-2.571h24.64c.258.137 1.125.731 1.125 2.571 0 1.847-.879 2.406-1.133 2.531l-1.121.008a4.043 4.043 0 0 0-4.035 4.035 4.043 4.043 0 0 0 4.035 4.035h7l.004 12.281zm17.218-18.781a2.267 2.267 0 0 0 2.266 2.262 2.265 2.265 0 0 0 2.258-2.262 2.265 2.265 0 0 0-2.258-2.262 2.267 2.267 0 0 0-2.266 2.262m-8.086 0a2.264 2.264 0 0 0 2.262 2.262 2.266 2.266 0 0 0 2.262-2.262 2.266 2.266 0 0 0-2.262-2.262 2.264 2.264 0 0 0-2.262 2.262" style="fill:url(#a)" transform="matrix(10.9091 0 0 -10.9091 -4074.546 5440.527)"/></svg>