<svg xmlns="http://www.w3.org/2000/svg" width="314.666" height="174.213"><path d="m108.379 0-4.975 10.377H4.871c-1.08 0-1.911.886-2.654 1.67-.955 1.006-2.204 2.142-2.205 3.53L0 30.854c7.444 27.783 82.72 45.221 82.72 45.221s4.862 15.336 57.13 15.336c12.363 0 22.379 9.965 22.379 22.268 0 12.277-10.016 22.275-22.38 22.275l-21.714.068s-9.725 3.032-9.725 18.971c0 15.914 9.656 19.219 9.656 19.219h156.172s12.783-4.555 12.783-19.219c-.135-6.919-.983-19.039-16.125-19.039 0 0-23.017.016-23.017-21.48 0-21.24 23.017-21.473 23.017-21.473h43.77V0Zm76.873 115.58a13.03 13.03 0 0 1 13.031 13.031 13.03 13.03 0 0 1-13.031 13.032 13.03 13.03 0 0 1-13.031-13.032 13.03 13.03 0 0 1 13.03-13.03m39.088 0a13.03 13.03 0 0 1 13.031 13.031 13.03 13.03 0 0 1-13.031 13.032 13.03 13.03 0 0 1-13.031-13.032 13.03 13.03 0 0 1 13.03-13.03"/></svg>