<?xml version="1.0" encoding="UTF-8" standalone="no"?>
<svg
   version="1.1"
   width="600"
   height="470.98535"
   id="svg5"
   xmlns="http://www.w3.org/2000/svg"
   xmlns:svg="http://www.w3.org/2000/svg">
  <defs
     id="defs5" />
  <radialGradient
     cx="0"
     cy="0"
     r="1"
     fx="0"
     fy="0"
     id="radialGradient500"
     gradientUnits="userSpaceOnUse"
     gradientTransform="matrix(19.1427,0,0,-19.142685,483,371.19287)"
     spreadMethod="pad">
    <stop
       style="stop-color:#f6b91d"
       offset="0"
       id="stop1" />
    <stop
       style="stop-color:#d3641c"
       offset="0.7"
       id="stop2" />
    <stop
       style="stop-color:#bf331c"
       offset="1"
       id="stop3" />
  </radialGradient>
  <path
     d="M 442.05507,470.98534 H 157.90961 L 129.52097,376.78827 0,99.16596 192.1267,159.97017 299.98234,0 407.83798,159.97017 600,99.16596 470.44371,376.78827 Z"
     style="fill:#ffffff"
     id="path3" />
  <path
     d="m 333.13971,261.8914 c 0,35.70069 -14.84782,64.67806 -33.15737,64.67806 -18.30956,0 -33.11027,-28.97737 -33.11027,-64.67806 0,-35.68892 14.80071,-64.61919 33.11027,-64.61919 18.30955,0 33.15737,28.93027 33.15737,64.61919 m -180.7053,116.05079 h 295.09586 l -20.87642,72.67303 H 173.31083 Z M 200.49846,184.02575 38.090939,132.60592 142.49661,356.37106 H 457.46806 L 561.87374,132.60592 399.46622,184.02575 300.02944,36.47781 Z"
     style="fill:#bf331c"
     id="path4" />
  <g
     transform="matrix(11.774634,0,0,-11.774634,-5387.1656,4616.7631)"
     id="g5">
    <path
       d="m 475.012,376.16 -0.231,-0.344 -0.394,0.125 -12.602,3.989 8.192,-17.551 h 26.05 l 8.188,17.551 -12.602,-3.989 -0.39,-0.125 -0.231,0.344 -7.988,11.852 z m 4.625,-6.312 c 0,3.386 1.476,6.043 3.363,6.043 v 0 c 1.887,0 3.363,-2.657 3.363,-6.043 v 0 c 0,-3.387 -1.476,-6.036 -3.363,-6.036 v 0 c -1.887,0 -3.363,2.649 -3.363,6.036 m -8.438,-10.403 1.457,-5.07 h 20.692 l 1.457,5.07 z"
       style="fill:url(#radialGradient500)"
       id="path5" />
  </g>
</svg>
