<svg xmlns="http://www.w3.org/2000/svg" width="1021.175" height="856.511"><radialGradient id="a" cx="510.588" cy="428.256" r="510.588" fx="510.588" fy="428.256" gradientTransform="matrix(1 0 0 .83875 0 69.056)" gradientUnits="userSpaceOnUse" spreadMethod="pad"><stop offset="0" style="stop-color:#ebd491"/><stop offset=".7" style="stop-color:#d2bb7b"/><stop offset="1" style="stop-color:#8b723c"/></radialGradient><path d="M729.463 0s53.955 5.852 53.955 61.631l200.224 55.779s50.02 19.287 34.572 84.756l-165.49 617.832s-34.665 46.252-75.065 34.644l-267.006-73.429-267.075 73.428c-40.4 11.61-75.066-34.642-75.066-34.642L2.929 202.167c-15.355-65.469 34.666-84.756 34.666-84.756l200.224-55.779c0-55.779 53.859-61.631 53.859-61.631h437.784zm-167.22 742.358c-374.83 76.102-187.414 38.051 0 0"/><path d="M729.463 0s53.955 5.852 53.955 61.631l200.224 55.779s50.02 19.287 34.572 84.756l-165.49 617.832s-34.665 46.252-75.065 34.644l-267.006-73.429-267.075 73.428c-40.4 11.61-75.066-34.642-75.066-34.642L2.929 202.167c-15.355-65.469 34.666-84.756 34.666-84.756l200.224-55.779c0-55.779 53.859-61.631 53.859-61.631h437.784zm-1.732 23.15H293.41c-2.457.445-10.227 2.178-17.46 7.045-10.322 6.835-15.075 16.807-15.075 31.437v17.555s-212.42 59.267-215.51 60.087c-5.593 2.551-22.235 12.616-22.235 39.207 0 5.407.749 11.445 2.294 18.304.282 1.007 161.463 602.641 164.13 612.332 7.023 8.052 27.972 28.977 47.729 23.407l273.37-75.255 273.302 75.255c19.756 5.571 40.612-15.355 47.727-23.407 2.669-9.69 163.85-611.325 164.132-612.332 1.545-6.859 2.294-12.897 2.294-18.304 0-26.592-16.736-36.656-22.236-39.207-3.091-.821-215.603-60.087-215.603-60.087l-.002-17.555c.002-14.63-4.751-24.602-14.98-31.437-7.232-4.867-15.004-6.6-17.554-7.045zm-471.443 87.871v594.12s5.033 38.598 35.93 38.598h166.775l-223.28 61.537s-12.805 6.391-19.29-7.677L52.2 188.007s-6.484-19.217 8.965-24.32l195.12-52.666Zm508.754-1.289 194.935 52.666c15.449 5.127 9.035 24.322 9.035 24.322L804.716 796.311c-6.32 14.092-19.193 7.678-19.193 7.678l-223.28-61.631h166.845c30.734 0 35.953-38.482 35.953-38.482V109.732Zm-39.136-57.697c8.965 0 10.228 11.517 10.228 11.517v639.037c0 10.252-10.228 12.803-10.228 12.803h-429.85c-9.035 0-9.035-12.803-9.035-12.803V63.55c0-7.677 9.035-11.515 9.035-11.515zm-241.03 83.371c-5.773.667-11.574 1.06-17.371 1.457q-13.677.911-33.007.911-29.541 0-45.406-1.277t-18.784-1.277q-2.188 0-4.011 1.277t-1.824 4.924q0 3.282 1.824 3.83 1.823.546 4.376.911 3.282.365 10.576 0t12.766.365q7.66.729 10.576 4.559 2.918 3.83 3.282 15.5 0 2.188.183 7.112t.365 14.041q.183 9.119.365 23.159.183 14.042.183 34.831 0 18.964-1.096 41.213-1.094 22.246-2.917 42.487-1.824 20.243-4.195 35.377-2.371 15.136-4.56 19.512-1.822 2.918-10.94 4.741-9.117 1.824-24.436 1.824-2.553 0-4.011 1.64-1.46 1.642-1.46 3.101 0 1.823 1.278 3.83 1.277 2.005 3.099 2.005l5.835-.73q3.647-.364 10.395-.911 6.746-.546 14.406-.729t15.683-.365 14.589-.183h2.188q17.142 0 28.812.365 11.672.365 19.33.911 7.66.548 12.035.911c1.853.145 3.709.309 5.567.346-7.84 8.525-13.054 19.299-18.043 29.606q-11.706 26.428-11.706 62.966 0 26.25 8.515 48.067 8.513 21.816 24.83 37.425 16.319 15.607 40.086 24.475 23.767 8.87 54.629 8.87 7.805 0 18.092-.532t20.574-1.418q10.288-.886 19.333-1.42t14.367-.532q6.386 0 8.337 5.499t2.66 10.465q.709 3.191 3.37 3.369t6.209-1.241q-1.775-6.031-2.483-14.899-.71-8.868-.71-18.092 0-11.351 1.773-20.219 1.065-4.611 2.128-8.515 0-1.773-1.951-2.836-1.951-1.065-3.37-1.065-.354 0-1.42 1.065-2.127 4.966-7.626 11.351-5.497 6.385-14.367 12.239-8.868 5.852-21.64 9.933-12.77 4.079-29.442 4.079-17.381 0-30.684-5.321t-22.881-14.367q-9.576-9.045-15.962-20.574t-10.29-23.945q-3.9-12.416-5.496-24.832t-1.597-23.057q6.03-.355 20.753-.71t38.844-.355q12.769 0 23.767.355 10.996.355 19.688 1.951 8.69 1.596 14.189 4.789t6.917 8.868q.71 2.483 4.079 3.903 3.37 1.418 4.079-2.128.002-8.87 1.42-17.027 1.418-8.16 3.548-14.899 2.128-6.74 3.9-11.884 1.774-5.144 2.484-8.337-1.065-1.418-3.726-1.773t-4.08 1.773q-2.837 2.838-9.577 5.321t-15.962 4.434-20.221 3.016q-10.996 1.063-22.35 1.063-4.965.355-14.898.177-9.931-.177-20.574-.531t-19.688-1.065q-9.045-.71-11.884-1.418 1.065-18.802 6.74-36.361 5.676-17.56 15.254-31.217t22.702-21.994q13.126-8.337 29.088-8.337 14.19 0 25.542 3.726 11.35 3.724 19.51 9.4t13.125 11.884q4.966 6.207 6.74 11.174 1.419 4.966 5.143 5.144 3.726.177 4.436-2.661 1.418-10.641 3.369-19.156 1.95-8.513 3.726-13.126 4.256-15.252 9.755-26.073 5.497-10.819 13.657-17.205 4.966-3.546 2.483-5.675t-8.515-3.903q-4.965 0-8.513 6.564-3.546 6.562-6.207 14.189t-4.436 14.012q-1.773 6.385-3.546 6.03-2.838-.708-9.578-1.596-6.74-.886-15.61-1.773-8.868-.887-18.8-1.42-9.933-.531-18.446-.531-28.378 0-54.275 7.98-25.895 7.982-45.761 25.009l-4.838 4.403-.017.017-.381-.399q-1.094-.729-5.106-.729-4.741 0-10.394-.365-5.654-.364-11.124-1.277-5.472-.911-9.482-1.823-4.012-.911-5.472-2.005-2.188-1.824-3.282-14.225-1.094-12.399-1.642-29.36-.546-16.957-.364-35.376.18-18.418.546-32.278.365-18.234 1.459-39.753t2.37-40.119q1.278-18.599 2.918-31.183 1.642-12.582 3.466-13.312l4.376-1.094q2.918-.729 6.383-1.094t7.112-.729 6.566-.365q8.388-.729 8.388-6.929 0-2.918-2.372-3.466c-3.241-.55-1.6-.365-4.922-.546l-1.411.184z" style="fill:url(#a)"/></svg>