<svg xmlns="http://www.w3.org/2000/svg" xmlns:xlink="http://www.w3.org/1999/xlink" width="648.726" height="487.713"><defs><linearGradient id="a"><stop offset="0" style="stop-color:#a72029"/><stop offset=".15" style="stop-color:#d86c23"/><stop offset=".3" style="stop-color:#f49925"/><stop offset=".7" style="stop-color:#f49925"/><stop offset=".85" style="stop-color:#d86c23"/><stop offset="1" style="stop-color:#a72029"/></linearGradient><linearGradient xlink:href="#a" id="b" x1="639.416" x2="1226.584" y1="336.783" y2="336.783" gradientTransform="translate(-608.637 -140.293)" gradientUnits="userSpaceOnUse"/></defs><path d="M182.361 0c-70 25.75-97.653 86.986-108.33 114.389C60.27 149.71 58 167.693 0 193.693c14.5 11 64.127 48.477 67.96 53.977 1.918 2.75 2.56 4.417 3.24 9.52.678 5.102.853 13.227 1.189 24.917.667 23.235.77 28.098 9.845 46.579 7.254 14.77 29.2 47.638 78.95 69.888-20.557-38.063-18.792-93.363-10.237-101.918 7.235-7.234 32.563 4.977 49.004 11.254 5.367 2.05 47.229 16.572 49.62 18.615 3.371 2.882 18.263 32.137 17.449 35.176-.773 2.882-7.588 12.65-10.303 14.43-2.762 1.81-49.797 8.449-53.115 9.54-9.952 3.276-25.362 34.056-25.48 46.866 89.6-10.139 113.94 25.077 146.241 55.176 32.302-30.1 56.642-65.315 146.242-55.176-.118-12.81-15.528-43.59-25.48-46.865-3.318-1.092-50.354-7.73-53.115-9.541-2.715-1.78-9.53-11.548-10.303-14.43-.814-3.04 14.078-32.294 17.45-35.176 2.39-2.043 44.252-16.566 49.618-18.615 16.441-6.277 41.77-18.488 49.004-11.254 8.556 8.555 10.321 63.855-10.236 101.918 49.75-22.25 71.696-55.118 78.95-69.888 9.075-18.48 9.178-23.344 9.845-46.579.336-11.69.51-19.815 1.19-24.918.678-5.102 1.32-6.77 3.238-9.52 3.834-5.499 53.46-42.976 67.96-53.976-58-26-60.269-43.982-74.03-79.304C564.018 86.986 536.365 25.75 466.365 0c30.25 60 22.107 105.408 11.19 127.578-7.081-8.334-15.453-15.538-27.835-19.234-6.418 31.615-23.612 50.117-38.963 53.781l-5.666-7.055 10.724-52.527s-37.606-58.382-41.529-61.691C370.88 37.977 350.01 29.91 350.01 29.91v63.332c1.094 7.223.721 13.52-2.65 17.922-7.524-1.604-15.273-2.566-22.997-2.566-7.723 0-15.472.962-22.996 2.566-3.372-4.403-3.744-10.699-2.65-17.922V29.91s-20.87 8.067-24.278 10.942c-3.922 3.31-41.529 61.691-41.529 61.691l10.725 52.527-5.666 7.055c-15.352-3.664-32.545-22.166-38.963-53.781-12.382 3.696-20.754 10.9-27.836 19.234C160.254 105.408 152.11 60 182.36 0" style="fill:#000"/><path d="M151.39 34.385c-38.58 30.585-51.541 59.194-61.983 85.994-10.495 26.934-17.585 52.571-58.627 76.111 59.101 44.034 56.776 38.9 58.104 85.145.904 31.472 7.128 47.888 41.193 80.14-6.146-89.529 8.525-94.95 75.76-69.279 8.234 3.144 46.791 15.571 54.2 21.07 8.631 6.408 24.306 44.313 24.306 49 0 5.337-15.276 26.136-17.912 28.163-2.674 2.054-49.524 7.67-55.051 9.837-4.461 1.75-10.043 11.701-8.404 13.713 57.135-.772 92.492 21.486 121.388 50.028 28.897-28.542 64.253-50.8 121.389-50.028 1.638-2.012-3.943-11.963-8.404-13.713-5.528-2.168-52.378-7.783-55.051-9.837-2.636-2.027-17.912-22.826-17.912-28.163 0-4.687 15.675-42.592 24.306-49 7.408-5.499 45.966-17.926 54.2-21.07 67.234-25.671 81.906-20.25 75.76 69.28 34.064-32.253 40.29-48.67 41.193-80.141 1.328-46.245-.998-41.111 58.103-85.145-41.042-23.54-48.133-49.177-58.627-76.111-10.441-26.8-23.402-55.41-61.984-85.994 12.672 52.705 5.71 92.574-18.385 121.24l-19.092-23.717c-16.39 37.795-35.451 41.388-54.093 50.352l-18.403-22.912 11.125-54-31.625-46v44.5l-8.482 27.65c-10.86-4.172-22.385-6.4-34.018-6.4s-23.158 2.228-34.017 6.4l-8.483-27.65v-44.5l-31.625 46 11.125 54-18.402 22.912c-18.642-8.964-37.704-12.557-54.094-50.352l-19.092 23.717c-24.094-28.666-31.056-68.535-18.384-121.24m136.385 164.478c5.758.365 12.904 6.551 19.409 20.158-4.877 15.946 1.264 51.418 5.343 78.499-23.533-28.325-36.017-63.692-36.017-79.791 0-12.216 4.74-19.279 11.265-18.866m73.176 0c6.525-.413 11.266 6.65 11.266 18.866 0 16.1-12.485 51.466-36.018 79.79 4.08-27.08 10.22-62.552 5.344-78.498 6.504-13.607 13.651-19.793 19.408-20.158" style="fill:url(#b)"/></svg>