<?xml version="1.0" encoding="UTF-8" standalone="no"?>
<svg
   width="600.09375pt"
   height="804.60376pt"
   viewBox="0 0 600.09375 804.60376"
   version="1.1"
   id="svg15"
   xmlns="http://www.w3.org/2000/svg"
   xmlns:svg="http://www.w3.org/2000/svg">
  <defs
     id="defs15" />
  <g
     id="g6"
     transform="translate(0.046875,0.046875)">
    <path
       fill="#ffffff"
       stroke="#ffffff"
       stroke-width="0.09375"
       d="m 298.27,0 h 4.21 c 36.7,0.49 73.39,7.31 107.5,20.97 48.27,18.97 91.31,50.88 123.78,91.29 25.77,31.96 44.91,69.26 55.66,108.89 7.02,25.4 10.32,51.75 10.58,78.07 v 3.31 c -0.52,62.21 -20.82,124.14 -57.85,174.19 14.79,-0.06 29.59,0 44.38,-0.03 0.11,109.27 0.02,218.55 0.04,327.82 -191.05,-0.02 -382.09,-0.02 -573.14,0 0.03,-109.27 -0.07,-218.55 0.04,-327.82 14.79,0.04 29.59,-0.03 44.38,0.03 C 33.37,443.51 15.99,405.09 7.12,364.8 2.52,344.38 0.39,323.47 0,302.57 v -3.39 C 0.24,281 1.74,262.81 5.14,244.95 14.51,193.97 37.66,145.67 71.24,106.22 100.6,71.57 137.87,43.61 179.48,25.36 216.76,8.79 257.5,0.38 298.27,0 M 210.8,32.8 c -44.44,14.69 -84.98,40.89 -116.84,75.17 -27.98,29.9 -49.28,66.01 -61.91,104.97 -13.08,40.19 -16.84,83.35 -11.11,125.22 3.97,30.2 13.23,59.6 26.59,86.94 8.96,-4.86 16.1,-12.42 21.69,-20.85 8.5,-13.61 13.71,-28.92 18.97,-43.99 -9.92,-35.48 -11.16,-73.44 -2.84,-109.37 8.06,-35.53 25.27,-68.91 49.38,-96.21 25.5,-29.08 58.8,-51.31 95.51,-63.53 55.03,-18.63 117.42,-14.12 169.13,12.37 47.61,24.05 85.94,65.94 105.43,115.61 14.3,35.91 18.76,75.66 12.76,113.83 -0.18,2.63 -1.31,5.4 -0.22,7.95 4.87,13.5 9.83,27.02 12.7,41.12 0.98,5.5 4.35,10.04 7.65,14.38 5.71,6.84 12.53,12.72 19.92,17.7 C 582.57,357.97 588.32,293.59 573.85,233.9 564.31,193.88 545.66,156.11 519.94,124.03 491.9,89.01 455.44,60.72 414.4,42.57 350.92,14.09 276.73,10.6 210.8,32.8 m 132.71,128.78 c -4.95,3.6 -7.11,9.6 -10.23,14.63 9.08,12.93 28.48,12.53 36.53,26.52 -1.14,7.6 -3.51,15.05 -7.58,21.59 -5.36,9.05 -12.96,16.47 -18.89,25.1 -2.4,3.76 -1.31,8.65 1.22,12.05 3.69,4.9 8.02,9.36 12.89,13.1 2.91,2.23 6.73,3.83 10.43,2.86 3.63,-0.86 6.24,-4.22 10.08,-4.43 4.62,1.36 6.11,6.58 8.64,10.15 7.61,11.43 13.56,23.83 18.9,36.45 6.08,13.63 12.01,27.33 18.02,40.99 3.41,7.77 6.89,15.58 8.75,23.9 2.8,10.13 1.82,21.68 -4.42,30.39 -8.05,10.88 -20.23,17.83 -28.1,28.87 3.88,5 7.74,10.01 11.64,15 13.25,-5.7 26.44,-11.78 40.44,-15.48 18.27,-4.92 37.59,-6.09 56.28,-3.13 10.69,1.85 21.04,5.13 31.43,8.18 3.39,-5.87 6.7,-11.78 10.09,-17.64 -7.68,-4.87 -14.9,-10.56 -21.07,-17.26 -7.08,-7.04 -13.23,-15.49 -15.77,-25.28 -5.42,-24.47 -14.9,-47.82 -25.12,-70.62 -15.97,-34.43 -33.46,-68.21 -47.29,-103.58 -2.15,-5.75 -2.16,-11.96 -2.39,-18 0.02,-9.37 -1.13,-18.96 1.63,-28.08 -3.22,-2.22 -6.37,-5.32 -10.57,-5.1 -5.15,0.27 -10.02,2.07 -15.02,3.13 -7.85,1.95 -15.99,1.48 -23.99,1.67 -12.12,-0.89 -24.54,-1.37 -36.07,-5.63 -3.29,-1.18 -7.27,-2.54 -10.46,-0.35 m -199.82,4.66 c -4.33,6.69 -8.8,13.27 -13.19,19.91 5.62,2.64 11.55,4.44 17.47,6.24 5.02,1.87 10.91,3.26 14.29,7.7 0.22,9.47 -2.02,18.91 -5.38,27.75 -3.65,11.19 -7.91,22.17 -12.12,33.14 -0.97,2.58 1.82,4.02 3.82,4.64 8.53,2.36 14.75,9.6 23.46,11.56 2.75,0.54 6.46,2.07 8.58,-0.58 3.42,-4.51 5.31,-9.97 7.65,-15.08 1.59,-3.61 3.96,-8.19 8.58,-8.01 4.14,1.31 6.2,5.62 9.47,8.22 18.79,17.38 34.05,38.64 43.6,62.45 15.23,35.65 23.84,73.7 30.65,111.74 0.82,5.37 2.54,10.61 2.7,16.07 -0.19,5.71 -1.46,11.29 -3.21,16.7 7.75,3.87 15.5,7.74 23.25,11.62 6.81,-14.29 17.93,-26.12 30.76,-35.22 8.94,-6.82 18.21,-13.2 27.43,-19.63 -6.5,-24.54 -16.67,-48.02 -21.73,-72.96 -3.01,-15.59 -3.67,-32.31 2.36,-47.29 2.01,-5.86 6.74,-10.78 6.95,-17.21 0.6,-3.09 -1.57,-5.57 -3.31,-7.82 -3.25,-4.1 -5.89,-8.86 -10.3,-11.87 -5.08,-3.53 -12.41,-2.88 -17.11,1.01 -4.57,3.74 -7.67,9.26 -13.31,11.66 -6.21,-8.82 -12.48,-17.59 -18.64,-26.43 -5.24,-8.15 -10.37,-16.36 -15.58,-24.52 -12.24,-19.93 -22.84,-40.82 -32.37,-62.17 -31.61,0.69 -63.16,-2.64 -94.77,-1.62 m -2.26,113.23 c -2.57,2.19 -4.05,5.31 -5.67,8.2 -14.75,27.38 -23.03,57.52 -33.09,86.78 -4.7,13.1 -9.79,26.18 -17.08,38.09 -7.4,11.64 -17.01,22.26 -29.4,28.68 3.75,5.92 7.5,11.86 11.25,17.78 5.41,-4 11.19,-7.45 17.39,-10.06 22.15,-8.97 46.76,-10.29 70.25,-7.06 1.41,0.34 3.38,0.09 3.6,-1.67 0.54,-3.8 -0.25,-7.63 -0.04,-11.44 -7.93,-4.57 -16.11,-10.08 -19.94,-18.75 -0.85,-4.65 0.77,-9.32 1.07,-13.96 2.04,-21.15 9.84,-41.12 17.9,-60.58 4.28,-11.1 8.39,-22.26 12.6,-33.38 0.88,-2.55 2.14,-5.26 1.33,-8 -0.47,-2.19 -2.61,-3.34 -4.47,-4.22 -6.55,-3.04 -13.02,-6.27 -19.61,-9.23 -1.92,-0.74 -3.99,-1.83 -6.09,-1.18 m 305.69,184.47 c -6.98,5 -13.05,11.22 -20.35,15.8 -21.36,15.21 -45.53,26.51 -70.9,33.12 -49.87,13.16 -104.59,8.49 -150.93,-14.47 -7.16,-2.99 -13.66,-7.26 -20.37,-11.1 -6.05,-3.38 -11.41,-7.8 -17.11,-11.71 -6.99,-4.76 -12.73,-11.11 -19.5,-16.11 -7.3,-0.61 -14.63,-1.2 -21.95,-0.79 -16.75,0.95 -34.27,4.54 -47.8,15.06 27.34,34.59 62.63,62.98 102.68,81.52 66.19,31.28 144.79,34.87 213.64,10.07 53.79,-18.92 101.12,-55.01 134.44,-101.2 -10.22,-2.68 -20.36,-6.04 -30.95,-6.93 -17.18,-1.32 -34.71,0.76 -50.9,6.74 M 30.27,493.53 c -0.03,98.05 0.01,196.09 -0.02,294.13 179.72,0.03 359.45,-0.1 539.17,0.07 0.21,-0.37 0.63,-1.12 0.83,-1.49 -0.42,-2.23 -0.56,-4.5 -0.62,-6.75 l 0.65,0.03 c 0,-1.01 0.01,-3.04 0.01,-4.06 l -0.78,0.01 c 0.27,-1.49 0.54,-2.98 0.8,-4.45 -0.26,-1.51 -0.52,-3.01 -0.79,-4.5 l 1.02,-0.09 c -0.2,-0.61 -0.6,-1.83 -0.8,-2.43 0.1,-1.35 0.25,-2.68 0.44,-4 -0.7,-4.29 -0.58,-8.69 -0.07,-12.99 -0.7,-4.95 -0.22,-9.95 -0.36,-14.93 -0.02,-79.51 0.02,-159.03 -0.03,-238.55 -13.57,0.05 -27.15,-0.03 -40.72,0.04 -28.33,33.32 -63.84,60.59 -103.6,78.86 -42.16,19.61 -88.99,28.93 -135.44,27.31 -43.04,-1.32 -85.75,-12.16 -124.2,-31.56 C 129.56,550.06 97.22,524.4 71,493.57 57.42,493.5 43.85,493.58 30.27,493.53 Z"
       id="path1" />
    <path
       fill="#ffffff"
       stroke="#ffffff"
       stroke-width="0.09375"
       d="m 35.84,780 c 6.96,-52.7 13.91,-105.4 20.88,-158.1 19.83,0 39.66,-0.01 59.49,0 7.84,52.7 15.67,105.4 23.51,158.1 -14.03,0 -28.05,-0.01 -42.07,0 -0.7,-9.47 -1.37,-18.95 -2.05,-28.42 -4.92,0 -9.83,0 -14.75,0 -0.83,9.47 -1.62,18.95 -2.44,28.42 -14.19,0 -28.38,0 -42.57,0 m 44.52,-56.45 c 4.69,0.01 9.37,0 14.06,0 C 91.9,701.6 90,679.58 88.18,657.56 85.1,679.5 82.19,701.47 80.36,723.55 Z"
       id="path2" />
    <path
       fill="#ffffff"
       stroke="#ffffff"
       stroke-width="0.09375"
       d="m 153.2,621.9 c 17.6,0.11 35.21,-0.34 52.8,0.53 6.29,0.45 12.74,0.61 18.77,2.66 7.9,2.64 14.16,9.26 16.94,17.04 3.24,9.25 3.44,19.24 3.1,28.94 -0.43,6.29 -0.89,12.98 -4.29,18.48 -4.1,5.73 -11.61,7.07 -18.13,7.93 4.88,1.4 9.9,2.86 14.01,5.96 2.63,2.11 4.56,4.97 6.12,7.93 2.52,4.79 2.07,10.35 2.36,15.58 0.25,17.68 0.06,35.37 0.12,53.05 -12.73,0 -25.45,0 -38.18,0 0,-16.67 -0.01,-33.34 0.01,-50.01 -0.17,-5.74 0.27,-11.7 -1.57,-17.23 -1.81,-4.14 -7.2,-3.67 -10.93,-4.13 -0.04,23.79 -0.01,47.58 -0.02,71.37 -13.7,0 -27.4,0 -41.1,0 0,-52.7 0,-105.4 -0.01,-158.1 m 41.12,26.97 c -0.01,11.76 -0.01,23.53 0,35.3 3.64,-0.43 8.39,0.09 10.78,-3.3 2.14,-4.63 1.56,-9.92 1.73,-14.87 -0.17,-4.6 0.58,-9.69 -1.94,-13.79 -2.49,-3.17 -6.96,-2.99 -10.57,-3.34 z"
       id="path3" />
    <path
       fill="#ffffff"
       stroke="#ffffff"
       stroke-width="0.09375"
       d="m 267.2,621.9 c 22.85,-0.01 45.7,0 68.55,0 0.01,10.54 0.01,21.09 0.01,31.63 -9.15,0 -18.3,0 -27.44,0 -0.01,10 -0.01,19.99 -0.01,29.99 8.57,-0.01 17.13,0 25.69,0 0,10.02 0,20.05 0,30.07 -8.56,0 -17.12,0 -25.68,0 -0.01,11.59 -0.02,23.18 0,34.77 10.05,-0.01 20.11,0 30.17,0 0,10.55 0,21.09 0,31.64 -23.77,0 -47.53,0 -71.29,0 0.01,-52.7 0.01,-105.4 0,-158.1 z"
       id="path4" />
    <path
       fill="#ffffff"
       stroke="#ffffff"
       stroke-width="0.09375"
       d="m 356.2,621.9 c 11.46,0 22.92,-0.01 34.38,0 7.68,23.68 15.29,47.38 23.03,71.03 0.05,-23.68 0,-47.35 0.02,-71.03 11.46,-0.01 22.91,0 34.37,0 0,52.7 0,105.4 0,158.1 -12.01,0 -24.03,0 -36.04,0 -7.14,-23.9 -14.17,-47.84 -21.37,-71.73 -0.04,23.91 0,47.82 -0.02,71.73 -11.45,0 -22.91,0 -34.36,0 0,-52.7 0,-105.4 -0.01,-158.1 z"
       id="path5" />
    <path
       fill="#ffffff"
       stroke="#ffffff"
       stroke-width="0.09375"
       d="m 460.84,780 c 6.96,-52.7 13.91,-105.4 20.88,-158.1 19.83,0 39.66,-0.01 59.49,0 7.84,52.7 15.67,105.4 23.51,158.1 -14.03,0 -28.05,0 -42.07,0 -0.7,-9.47 -1.37,-18.95 -2.05,-28.42 -4.92,0 -9.84,0 -14.75,0 -0.83,9.47 -1.62,18.95 -2.44,28.42 -14.2,0 -28.39,0 -42.57,0 m 44.52,-56.45 c 4.68,0.01 9.37,0 14.06,0 -2.52,-21.97 -4.43,-44 -6.24,-66.04 -3.07,21.95 -5.99,43.94 -7.82,66.04 z"
       id="path6" />
  </g>
  <g
     id="g15"
     transform="translate(0.046875,0.046875)">
    <path
       stroke="#000000"
       stroke-width="0.09375"
       d="m 210.8,32.8 c 65.93,-22.2 140.12,-18.71 203.6,9.77 41.04,18.15 77.5,46.44 105.54,81.46 25.72,32.08 44.37,69.85 53.91,109.87 14.47,59.69 8.72,124.07 -16.24,180.21 -7.39,-4.98 -14.21,-10.86 -19.92,-17.7 -3.3,-4.34 -6.67,-8.88 -7.65,-14.38 -2.87,-14.1 -7.83,-27.62 -12.7,-41.12 -1.09,-2.55 0.04,-5.32 0.22,-7.95 6,-38.17 1.54,-77.92 -12.76,-113.83 -19.49,-49.67 -57.82,-91.56 -105.43,-115.61 -51.71,-26.49 -114.1,-31 -169.13,-12.37 -36.71,12.22 -70.01,34.45 -95.51,63.53 -24.11,27.3 -41.32,60.68 -49.38,96.21 -8.32,35.93 -7.08,73.89 2.84,109.37 -5.26,15.07 -10.47,30.38 -18.97,43.99 -5.59,8.43 -12.73,15.99 -21.69,20.85 C 34.17,397.76 24.91,368.36 20.94,338.16 15.21,296.29 18.97,253.13 32.05,212.94 44.68,173.98 65.98,137.87 93.96,107.97 125.82,73.69 166.36,47.49 210.8,32.8 Z"
       id="path7" />
    <path
       stroke="#000000"
       stroke-width="0.09375"
       d="m 343.51,161.58 c 3.19,-2.19 7.17,-0.83 10.46,0.35 11.53,4.26 23.95,4.74 36.07,5.63 8,-0.19 16.14,0.28 23.99,-1.67 5,-1.06 9.87,-2.86 15.02,-3.13 4.2,-0.22 7.35,2.88 10.57,5.1 -2.76,9.12 -1.61,18.71 -1.63,28.08 0.23,6.04 0.24,12.25 2.39,18 13.83,35.37 31.32,69.15 47.29,103.58 10.22,22.8 19.7,46.15 25.12,70.62 2.54,9.79 8.69,18.24 15.77,25.28 6.17,6.7 13.39,12.39 21.07,17.26 -3.39,5.86 -6.7,11.77 -10.09,17.64 -10.39,-3.05 -20.74,-6.33 -31.43,-8.18 -18.69,-2.96 -38.01,-1.79 -56.28,3.13 -14,3.7 -27.19,9.78 -40.44,15.48 -3.9,-4.99 -7.76,-10 -11.64,-15 7.87,-11.04 20.05,-17.99 28.1,-28.87 6.24,-8.71 7.22,-20.26 4.42,-30.39 -1.86,-8.32 -5.34,-16.13 -8.75,-23.9 -6.01,-13.66 -11.94,-27.36 -18.02,-40.99 -5.34,-12.62 -11.29,-25.02 -18.9,-36.45 -2.53,-3.57 -4.02,-8.79 -8.64,-10.15 -3.84,0.21 -6.45,3.57 -10.08,4.43 -3.7,0.97 -7.52,-0.63 -10.43,-2.86 -4.87,-3.74 -9.2,-8.2 -12.89,-13.1 -2.53,-3.4 -3.62,-8.29 -1.22,-12.05 5.93,-8.63 13.53,-16.05 18.89,-25.1 4.07,-6.54 6.44,-13.99 7.58,-21.59 -8.05,-13.99 -27.45,-13.59 -36.53,-26.52 3.12,-5.03 5.28,-11.03 10.23,-14.63 z"
       id="path8" />
    <path
       stroke="#000000"
       stroke-width="0.09375"
       d="m 143.69,166.24 c 31.61,-1.02 63.16,2.31 94.77,1.62 9.53,21.35 20.13,42.24 32.37,62.17 5.21,8.16 10.34,16.37 15.58,24.52 6.16,8.84 12.43,17.61 18.64,26.43 5.64,-2.4 8.74,-7.92 13.31,-11.66 4.7,-3.89 12.03,-4.54 17.11,-1.01 4.41,3.01 7.05,7.77 10.3,11.87 1.74,2.25 3.91,4.73 3.31,7.82 -0.21,6.43 -4.94,11.35 -6.95,17.21 -6.03,14.98 -5.37,31.7 -2.36,47.29 5.06,24.94 15.23,48.42 21.73,72.96 -9.22,6.43 -18.49,12.81 -27.43,19.63 -12.83,9.1 -23.95,20.93 -30.76,35.22 -7.75,-3.88 -15.5,-7.75 -23.25,-11.62 1.75,-5.41 3.02,-10.99 3.21,-16.7 -0.16,-5.46 -1.88,-10.7 -2.7,-16.07 -6.81,-38.04 -15.42,-76.09 -30.65,-111.74 -9.55,-23.81 -24.81,-45.07 -43.6,-62.45 -3.27,-2.6 -5.33,-6.91 -9.47,-8.22 -4.62,-0.18 -6.99,4.4 -8.58,8.01 -2.34,5.11 -4.23,10.57 -7.65,15.08 -2.12,2.65 -5.83,1.12 -8.58,0.58 -8.71,-1.96 -14.93,-9.2 -23.46,-11.56 -2,-0.62 -4.79,-2.06 -3.82,-4.64 4.21,-10.97 8.47,-21.95 12.12,-33.14 3.36,-8.84 5.6,-18.28 5.38,-27.75 -3.38,-4.44 -9.27,-5.83 -14.29,-7.7 -5.92,-1.8 -11.85,-3.6 -17.47,-6.24 4.39,-6.64 8.86,-13.22 13.19,-19.91 z"
       id="path9" />
    <path
       stroke="#000000"
       stroke-width="0.09375"
       d="m 141.43,279.47 c 2.1,-0.65 4.17,0.44 6.09,1.18 6.59,2.96 13.06,6.19 19.61,9.23 1.86,0.88 4,2.03 4.47,4.22 0.81,2.74 -0.45,5.45 -1.33,8 -4.21,11.12 -8.32,22.28 -12.6,33.38 -8.06,19.46 -15.86,39.43 -17.9,60.58 -0.3,4.64 -1.92,9.31 -1.07,13.96 3.83,8.67 12.01,14.18 19.94,18.75 -0.21,3.81 0.58,7.64 0.04,11.44 -0.22,1.76 -2.19,2.01 -3.6,1.67 -23.49,-3.23 -48.1,-1.91 -70.25,7.06 -6.2,2.61 -11.98,6.06 -17.39,10.06 -3.75,-5.92 -7.5,-11.86 -11.25,-17.78 12.39,-6.42 22,-17.04 29.4,-28.68 7.29,-11.91 12.38,-24.99 17.08,-38.09 10.06,-29.26 18.34,-59.4 33.09,-86.78 1.62,-2.89 3.1,-6.01 5.67,-8.2 z"
       id="path10" />
    <path
       stroke="#000000"
       stroke-width="0.09375"
       d="m 447.12,463.94 c 16.19,-5.98 33.72,-8.06 50.9,-6.74 10.59,0.89 20.73,4.25 30.95,6.93 -33.32,46.19 -80.65,82.28 -134.44,101.2 -68.85,24.8 -147.45,21.21 -213.64,-10.07 -40.05,-18.54 -75.34,-46.93 -102.68,-81.52 13.53,-10.52 31.05,-14.11 47.8,-15.06 7.32,-0.41 14.65,0.18 21.95,0.79 6.77,5 12.51,11.35 19.5,16.11 5.7,3.91 11.06,8.33 17.11,11.71 6.71,3.84 13.21,8.11 20.37,11.1 46.34,22.96 101.06,27.63 150.93,14.47 25.37,-6.61 49.54,-17.91 70.9,-33.12 7.3,-4.58 13.37,-10.8 20.35,-15.8 z"
       id="path11" />
    <path
       stroke="#000000"
       stroke-width="0.09375"
       d="m 30.27,493.53 c 13.58,0.05 27.15,-0.03 40.73,0.04 26.22,30.83 58.56,56.49 94.76,74.61 38.45,19.4 81.16,30.24 124.2,31.56 46.45,1.62 93.28,-7.7 135.44,-27.31 39.76,-18.27 75.27,-45.54 103.6,-78.86 13.57,-0.07 27.15,0.01 40.72,-0.04 0.05,79.52 0.01,159.04 0.03,238.55 0.14,4.98 -0.34,9.98 0.36,14.93 -0.51,4.3 -0.63,8.7 0.07,12.99 -0.19,1.32 -0.34,2.65 -0.44,4 0.2,0.6 0.6,1.82 0.8,2.43 l -1.02,0.09 c 0.27,1.49 0.53,2.99 0.79,4.5 -0.26,1.47 -0.53,2.96 -0.8,4.45 l 0.78,-0.01 c 0,1.02 -0.01,3.05 -0.01,4.06 l -0.65,-0.03 c 0.06,2.25 0.2,4.52 0.62,6.75 -0.2,0.37 -0.62,1.12 -0.83,1.49 C 389.7,787.56 209.97,787.69 30.25,787.66 30.28,689.62 30.24,591.58 30.27,493.53 M 35.84,780 c 14.19,0 28.38,0 42.57,0 0.82,-9.47 1.61,-18.95 2.44,-28.42 4.92,0 9.83,0 14.75,0 0.68,9.47 1.35,18.95 2.05,28.42 14.02,-0.01 28.04,0 42.07,0 -7.84,-52.7 -15.67,-105.4 -23.51,-158.1 -19.83,-0.01 -39.66,0 -59.49,0 C 49.75,674.6 42.8,727.3 35.84,780 M 153.2,621.9 c 0.01,52.7 0.01,105.4 0.01,158.1 13.7,0 27.4,0 41.1,0 0.01,-23.79 -0.02,-47.58 0.02,-71.37 3.73,0.46 9.12,-0.01 10.93,4.13 1.84,5.53 1.4,11.49 1.57,17.23 -0.02,16.67 -0.01,33.34 -0.01,50.01 12.73,0 25.45,0 38.18,0 -0.06,-17.68 0.13,-35.37 -0.12,-53.05 -0.29,-5.23 0.16,-10.79 -2.36,-15.58 -1.56,-2.96 -3.49,-5.82 -6.12,-7.93 -4.11,-3.1 -9.13,-4.56 -14.01,-5.96 6.52,-0.86 14.03,-2.2 18.13,-7.93 3.4,-5.5 3.86,-12.19 4.29,-18.48 0.34,-9.7 0.14,-19.69 -3.1,-28.94 -2.78,-7.78 -9.04,-14.4 -16.94,-17.04 -6.03,-2.05 -12.48,-2.21 -18.77,-2.66 -17.59,-0.87 -35.2,-0.42 -52.8,-0.53 m 114,0 c 0.01,52.7 0.01,105.4 0,158.1 23.76,0 47.52,0 71.29,0 0,-10.55 0,-21.09 0,-31.64 -10.06,0 -20.12,-0.01 -30.17,0 -0.02,-11.59 -0.01,-23.18 0,-34.77 8.56,0 17.12,0 25.68,0 0,-10.02 0,-20.05 0,-30.07 -8.56,0 -17.12,-0.01 -25.69,0 0,-10 0,-19.99 0.01,-29.99 9.14,0 18.29,0 27.44,0 0,-10.54 0,-21.09 -0.01,-31.63 -22.85,0 -45.7,-0.01 -68.55,0 m 89,0 c 0.01,52.7 0.01,105.4 0.01,158.1 11.45,0 22.91,0 34.36,0 0.02,-23.91 -0.02,-47.82 0.02,-71.73 7.2,23.89 14.23,47.83 21.37,71.73 12.01,0 24.03,0 36.04,0 0,-52.7 0,-105.4 0,-158.1 -11.46,0 -22.91,-0.01 -34.37,0 -0.02,23.68 0.03,47.35 -0.02,71.03 -7.74,-23.65 -15.35,-47.35 -23.03,-71.03 -11.46,-0.01 -22.92,0 -34.38,0 M 460.84,780 c 14.18,0 28.37,0 42.57,0 0.82,-9.47 1.61,-18.95 2.44,-28.42 4.91,0 9.83,0 14.75,0 0.68,9.47 1.35,18.95 2.05,28.42 14.02,0 28.04,0 42.07,0 -7.84,-52.7 -15.67,-105.4 -23.51,-158.1 -19.83,-0.01 -39.66,0 -59.49,0 -6.97,52.7 -13.92,105.4 -20.88,158.1 z"
       id="path12" />
    <path
       stroke="#000000"
       stroke-width="0.09375"
       d="m 194.32,648.87 c 3.61,0.35 8.08,0.17 10.57,3.34 2.52,4.1 1.77,9.19 1.94,13.79 -0.17,4.95 0.41,10.24 -1.73,14.87 -2.39,3.39 -7.14,2.87 -10.78,3.3 -0.01,-11.77 -0.01,-23.54 0,-35.3 z"
       id="path13" />
    <path
       stroke="#000000"
       stroke-width="0.09375"
       d="m 80.36,723.55 c 1.83,-22.08 4.74,-44.05 7.82,-65.99 1.82,22.02 3.72,44.04 6.24,65.99 -4.69,0 -9.37,0.01 -14.06,0 z"
       id="path14" />
    <path
       stroke="#000000"
       stroke-width="0.09375"
       d="m 505.36,723.55 c 1.83,-22.1 4.75,-44.09 7.82,-66.04 1.81,22.04 3.72,44.07 6.24,66.04 -4.69,0 -9.38,0.01 -14.06,0 z"
       id="path15" />
  </g>
</svg>
