<svg xmlns="http://www.w3.org/2000/svg" width="287.021" height="286.861" viewBox="0 0 269.083 268.933"><path d="M135.027 0S48.89 99.497 47.855 100.89c3.11 2.041 87.791 54.887 87.791 54.887s82.305-50.587 87.686-54.027C222.346 100.645 135.027 0 135.027 0m-6.945 26.561V137.5c-1.728-1.036-57.75-36.479-58.702-37.106.833-1.086 58.49-73.848 58.702-73.832M231.707 139.5c-4.33 2.54-93.268 55.93-96.637 57.92-1.728-.938-93.41-55.678-95.528-56.847a.26.26 0 0 0-.129.033C38.671 141.097 0 185.429 0 185.429l134.822 83.503 134.26-82.146s-34.069-43.457-37.375-47.287m-189.439 19.5 85.81 51.5.003 19.75c0 10.863.002 18.69.002 19.814-1.003-.6-108.034-66.395-108.034-66.395z"/></svg>