<?xml version="1.0" encoding="UTF-8" standalone="no"?>
<svg
   version="1.1"
   x="0px"
   y="0px"
   width="600"
   height="253.013"
   viewBox="-0.5 8.329 600 253.01301"
   id="svg5"
   xmlns="http://www.w3.org/2000/svg"
   xmlns:svg="http://www.w3.org/2000/svg">
  <defs
     id="defs5" />
  <path
     d="m 599.5,41.482 c 0,-18.293 -14.823,-33.153 -33.107,-33.153 -18.256,0 -33.106,14.86 -33.106,33.153 0,5.386 1.295,10.586 3.72,15.249 l -4.775,-0.222 -13.222,-5.126 c -5.247,-1.953 -52.521,-19.45 -102.801,-19.45 -25.483,0 -47.782,4.487 -66.325,13.269 l -5.922,2.822 -4.127,1.98 -0.935,4.45 -1.379,6.395 c -0.037,0.11 -1.222,5.782 -2.276,14.425 -71.6,-39.436 -139.877,-51.215 -175.334,-54.722 -10.447,-1.018 -21.902,-1.555 -34.052,-1.555 -23.493,0 -69.175,4.737 -69.175,4.737 C 95.898,39.927 139.34,64.54 139.34,64.54 59.395,89.154 -0.5,124.028 -0.5,124.028 c 0,0 106.012,-6.468 141.219,-6.468 99.211,0 191.74,53.565 195.58,55.842 15.036,8.893 28.48,10.733 37.188,10.733 6.69,0 12.973,-1.119 18.183,-3.285 19.116,-7.846 25.52,-25.732 26.676,-39.834 15.139,2.896 29.638,8.717 43.082,17.211 l 7.088,4.663 -44.063,76.115 31.7,22.337 110.415,-179.776 -1.804,-7.014 c 0.546,0 1.082,0.037 1.628,0.037 C 584.677,74.59 599.5,59.692 599.5,41.482 Z M 491.226,144.146 c 0,0 -3.33,-10.409 -10.195,-25.156 0,0 19.05,-21.029 45.574,-34.759 z"
     id="path1" />
  <linearGradient
     id="SVGID_1_"
     gradientUnits="userSpaceOnUse"
     x1="112.0908"
     y1="231.41479"
     x2="555.73102"
     y2="-24.7209">
    <stop
       offset="0.15"
       style="stop-color:#BF331C"
       id="stop1" />
    <stop
       offset="0.35"
       style="stop-color:#F6B91D"
       id="stop2" />
    <stop
       offset="0.5"
       style="stop-color:#D3641C"
       id="stop3" />
    <stop
       offset="0.65"
       style="stop-color:#F6B91D"
       id="stop4" />
    <stop
       offset="0.85"
       style="stop-color:#BF331C"
       id="stop5" />
  </linearGradient>
  <path
     fill="url(#SVGID_1_)"
     d="m 566.393,17.619 c -13.157,0 -23.854,10.669 -23.854,23.863 0,6.57 2.674,12.501 6.977,16.841 l -4.701,7.985 -14.499,-0.574 c -6.755,-2.609 -14.602,-5.681 -14.602,-5.681 -3.941,-1.518 -97.479,-37.077 -161.853,-6.468 l -5.932,2.822 -1.369,6.394 c -0.148,0.833 -2.6,12.723 -3.396,27.685 C 266.354,44.804 190.702,32.914 159.002,29.768 125.034,26.409 91.233,29.694 91.233,29.694 c 45.219,21.144 72.941,38.529 72.941,38.529 0,0 -41.49,5.672 -120.613,44.498 l 74.348,-3.47 c 110.786,-9.327 218.564,53.491 223.117,56.165 18.367,10.882 36.688,11.205 47.098,6.866 25.408,-10.447 20.782,-41.963 20.782,-41.963 16.914,1.703 36.975,7.125 57.544,20.172 l 14.49,9.429 -44.238,76.411 16.702,11.788 103.227,-168.079 -1.989,-7.838 4.737,-8.059 c 2.239,0.685 4.553,1.193 7.014,1.193 13.195,0 23.854,-10.706 23.854,-23.854 0,-13.194 -10.659,-23.863 -23.854,-23.863 z m -75.167,126.527 c 0,0 -3.33,-10.409 -10.195,-25.156 0,0 19.05,-21.029 45.574,-34.759 z"
     id="path5"
     style="fill:url(#SVGID_1_)" />
</svg>
