<?xml version="1.0" encoding="UTF-8" standalone="no"?>
<svg
   version="1.1"
   x="0px"
   y="0px"
   width="600"
   height="252.98"
   viewBox="619.5 8.329 600 252.98"
   id="svg5"
   xmlns="http://www.w3.org/2000/svg"
   xmlns:svg="http://www.w3.org/2000/svg">
  <defs
     id="defs5" />
  <path
     fill="#ffffff"
     d="m 1219.5,41.478 c 0,-18.291 -14.858,-33.149 -33.14,-33.149 -18.254,0 -33.104,14.858 -33.104,33.149 0,5.384 1.295,10.584 3.72,15.247 l -4.774,-0.223 -13.221,-5.125 c -5.246,-1.952 -52.514,-19.447 -102.788,-19.447 -25.479,0 -47.776,4.486 -66.317,13.268 l -5.921,2.821 -4.126,1.979 -0.935,4.45 -1.379,6.394 c -0.037,0.111 -1.221,5.782 -2.275,14.424 C 883.648,35.834 815.38,24.057 779.927,20.55 769.482,19.532 758.028,18.996 745.88,18.996 c -23.49,0 -69.167,4.736 -69.167,4.736 39.21,16.191 82.646,40.801 82.646,40.801 -79.973,24.609 -139.859,59.48 -139.859,59.48 0,0 106.035,-6.468 141.238,-6.468 99.198,0 191.717,53.559 195.557,55.835 15.034,8.892 28.477,10.731 37.183,10.731 6.689,0 12.972,-1.119 18.18,-3.283 19.114,-7.846 25.517,-25.73 26.674,-39.83 15.136,2.896 29.633,8.716 43.076,17.209 l 7.087,4.662 -44.058,76.106 31.697,22.334 110.402,-179.754 -1.805,-7.014 c 0.546,0 1.082,0.037 1.629,0.037 18.282,0.003 33.14,-14.892 33.14,-33.1 z m -108.274,102.668 c 0,0 -3.33,-10.409 -10.195,-25.156 0,0 19.05,-21.029 45.574,-34.759 z"
     id="path1" />
  <linearGradient
     id="SVGID_1_"
     gradientUnits="userSpaceOnUse"
     x1="732.11328"
     y1="231.38651"
     x2="1175.6989"
     y2="-24.7178">
    <stop
       offset="0.15"
       style="stop-color:#612C75"
       id="stop1" />
    <stop
       offset="0.35"
       style="stop-color:#BF99C3"
       id="stop2" />
    <stop
       offset="0.5"
       style="stop-color:#7B5190"
       id="stop3" />
    <stop
       offset="0.65"
       style="stop-color:#BF99C3"
       id="stop4" />
    <stop
       offset="0.85"
       style="stop-color:#612C75"
       id="stop5" />
  </linearGradient>
  <path
     fill="url(#SVGID_1_)"
     d="m 1186.36,17.618 c -13.156,0 -23.852,10.667 -23.852,23.86 0,6.569 2.674,12.499 6.976,16.839 l -4.7,7.984 -14.497,-0.574 c -6.754,-2.609 -14.6,-5.681 -14.6,-5.681 -3.941,-1.518 -97.468,-37.072 -161.833,-6.467 l -5.931,2.821 -1.369,6.394 c -0.147,0.833 -2.6,12.722 -3.396,27.681 -76.8,-45.676 -152.442,-57.564 -184.14,-60.71 -33.963,-3.358 -67.76,-0.074 -67.76,-0.074 45.214,21.141 72.895,38.524 72.895,38.524 0,0 -41.447,5.672 -120.561,44.492 l 74.339,-3.469 c 110.735,-9.326 218.538,53.484 223.09,56.158 18.364,10.88 36.684,11.204 47.092,6.864 25.405,-10.445 20.779,-41.956 20.779,-41.956 16.912,1.702 36.971,7.124 57.537,20.169 l 14.488,9.428 -44.232,76.401 16.699,11.786 103.216,-168.058 -1.989,-7.836 4.736,-8.059 c 2.239,0.686 4.552,1.193 7.014,1.193 13.192,0 23.851,-10.704 23.851,-23.851 -10e-4,-13.192 -10.659,-23.859 -23.852,-23.859 z m -75.134,126.528 c 0,0 -3.33,-10.409 -10.195,-25.156 0,0 19.05,-21.029 45.574,-34.759 z"
     id="path5"
     style="fill:url(#SVGID_1_)" />
</svg>
