<?xml version="1.0" encoding="UTF-8" standalone="no"?>
<svg
   version="1.1"
   width="546.61694"
   height="230.47247"
   id="svg1"
   xmlns="http://www.w3.org/2000/svg"
   xmlns:svg="http://www.w3.org/2000/svg">
  <defs
     id="defs1" />
  <path
     d="m 427.97138,90.20539 -11.78683,-1.00845 13.76672,32.45544 C 370.98007,84.28421 314.96021,103.94436 314.96021,103.94436 309.0668,80.34293 315.96866,47.9245 315.96866,47.9245 375.8928,19.44735 467.29167,54.82637 467.29167,54.82637 437.79683,74.44951 427.97138,90.20539 427.97138,90.20539 m -76.04084,38.78369 -14.34958,-7.3367 c 6.86486,-5.89342 14.74741,-4.91273 14.74741,-4.91273 l -0.39746,12.24943 z m -47.77647,7.37371 c -21.61229,-12.75828 -125.80645,-66.826 -230.935045,-57.972 0,0 42.243875,-14.74742 77.632135,-20.63159 0,0 -7.84555,-12.75828 -51.107125,-33.39912 0,0 96.311595,0.98069 196.564475,61.91328 0,0 0,16.69031 5.89342,30.46629 5.89342,13.72972 14.74743,9.78844 14.74743,9.78844 0,0 13.72972,10.84315 25.54431,14.74743 0,0 -16.72731,7.87331 -38.3396,-4.91273 m 143.47746,-9.8347 c 0,0 -3.33066,-10.40831 -10.19553,-25.15574 0,0 19.04953,-21.02942 45.57454,-34.75914 z M 522.76568,0 c -13.15611,0 -23.85123,10.66736 -23.85123,23.86048 0,6.5688 2.67378,12.49923 6.97588,16.83834 l -4.69993,7.98433 -14.49763,-0.57361 c -6.75383,-2.60902 -14.59939,-5.68063 -14.59939,-5.68063 -3.96903,-1.5173 -97.46807,-37.0721 -161.8331,-6.46703 l -5.93043,2.82181 -1.36926,6.39302 c -0.18503,0.83266 -2.59976,12.72127 -3.39542,27.68149 C 222.76569,27.14488 147.12267,15.29328 115.42589,12.14766 81.462405,8.78924 47.665454,12.07366 47.665454,12.07366 92.879175,33.2141 120.59767,50.5983 120.59767,50.5983 c 0,0 -41.485225,5.67138 -120.59767,44.49208 l 74.338495,-3.46944 c 110.772215,-9.32585 218.537585,53.48486 223.089495,56.15864 18.36489,10.88015 36.64651,11.20397 47.09184,6.86486 25.40553,-10.44532 20.77963,-41.95707 20.77963,-41.95707 16.91235,1.73934 36.93331,7.12391 57.53716,20.169 l 14.48837,9.42762 -44.23302,76.40165 16.69956,11.78684 103.17645,-168.05958 -1.95213,-7.83631 4.73694,-8.05835 c 2.20193,0.68464 4.55191,1.19349 7.01289,1.19349 13.19311,0 23.85123,-10.70437 23.85123,-23.85123 C 546.61691,10.66738 535.95879,2e-5 522.76568,2e-5"
     id="path1" />
</svg>
