<svg xmlns="http://www.w3.org/2000/svg" width="1013.507" height="1023.995"><path d="M43.796 8.481A24.8 24.8 0 0 0 29.622 0l-2.551 1.105 1.232 1.967a6.22 6.22 0 0 1 2.64 5.078 6.17 6.17 0 0 1-1.817 4.388 6.16 6.16 0 0 1-4.388 1.817 6.17 6.17 0 0 1-4.388-1.817 6.16 6.16 0 0 1-1.817-4.388c0-2.016.987-3.914 2.641-5.077l1.232-1.968L19.854 0C14.329 1.106 9.296 4.119 5.681 8.481A24.78 24.78 0 0 0 0 24.256v.01l1.799 2.294 1.426-1.517a6.19 6.19 0 0 1 5.506-3.346 6.21 6.21 0 0 1 6.205 6.206 6.2 6.2 0 0 1-2.151 4.695l-1.253 1.083 1.042 1.286L23.411 48.35l1.327 1.64 1.328-1.64 10.838-13.384 1.041-1.286-1.252-1.082a6.2 6.2 0 0 1-2.152-4.696 6.213 6.213 0 0 1 6.205-6.205 6.19 6.19 0 0 1 5.507 3.346l1.426 1.516 1.799-2.294v-.01a24.77 24.77 0 0 0-5.682-15.774" style="fill:#fff" transform="scale(20.484)"/><path d="M834.641 402.285c-93.448 0-169.464 76.037-169.464 169.485 0 46.847 19.378 91.461 53.443 123.457L506.733 956.869 294.888 695.227c34.044-32.017 53.422-76.61 53.422-123.457 0-93.469-76.016-169.485-169.464-169.485-54.119 0-104.018 25.482-135.707 67.966C54.55 271.044 193.512 100.167 385.673 48.424c-30.726 31.402-48.404 73.906-48.404 118.52 0 45.27 17.616 87.816 49.633 119.852 32.016 32.017 74.582 49.633 119.852 49.633s87.835-17.616 119.852-49.633c32.016-32.016 49.653-74.582 49.653-119.851 0-44.615-17.698-87.119-48.404-118.52 192.14 51.721 331.103 222.62 342.534 421.826-31.73-42.484-81.609-67.966-135.748-67.966"/></svg>