<svg xmlns="http://www.w3.org/2000/svg" width="1013.507" height="1023.995"><g transform="scale(20.484)"><path d="M43.796 8.481A24.8 24.8 0 0 0 29.622 0l-2.551 1.105 1.232 1.967a6.22 6.22 0 0 1 2.64 5.078 6.17 6.17 0 0 1-1.817 4.388 6.16 6.16 0 0 1-4.388 1.817 6.17 6.17 0 0 1-4.388-1.817 6.16 6.16 0 0 1-1.817-4.388c0-2.016.987-3.914 2.641-5.077l1.232-1.968L19.854 0C14.329 1.106 9.296 4.119 5.681 8.481A24.78 24.78 0 0 0 0 24.256v.01l1.799 2.294 1.426-1.517a6.19 6.19 0 0 1 5.506-3.346 6.213 6.213 0 0 1 6.206 6.206 6.2 6.2 0 0 1-2.152 4.695l-1.253 1.083 1.042 1.286L23.411 48.35l1.327 1.64 1.328-1.64 10.838-13.384 1.041-1.286-1.252-1.082a6.2 6.2 0 0 1-2.152-4.696 6.213 6.213 0 0 1 6.205-6.205 6.19 6.19 0 0 1 5.507 3.346l1.426 1.516 1.799-2.294v-.01a24.77 24.77 0 0 0-5.682-15.774"/><linearGradient id="a" x1="13.262" x2="54.128" y1="98.415" y2="113.29" gradientTransform="matrix(1 0 0 -1 -8.36 129.05)" gradientUnits="userSpaceOnUse"><stop offset="0" style="stop-color:#bf331c"/><stop offset=".3" style="stop-color:#d3641c"/><stop offset=".5" style="stop-color:#f6b91d"/><stop offset=".7" style="stop-color:#d3641c"/><stop offset="1" style="stop-color:#bf331c"/></linearGradient><path fill="url(#a)" d="M40.746 19.639c-4.562 0-8.273 3.712-8.273 8.274 0 2.287.946 4.465 2.609 6.027L24.738 46.713 14.396 33.94a8.27 8.27 0 0 0 2.609-6.027c0-4.563-3.712-8.274-8.274-8.274a8.24 8.24 0 0 0-6.625 3.318C2.663 13.232 9.447 4.89 18.828 2.364a8.28 8.28 0 0 0-2.363 5.786c0 2.21.86 4.287 2.424 5.851a8.22 8.22 0 0 0 5.85 2.423 8.22 8.22 0 0 0 5.851-2.423 8.22 8.22 0 0 0 2.424-5.851 8.29 8.29 0 0 0-2.363-5.786c9.38 2.525 16.164 10.868 16.722 20.593a8.25 8.25 0 0 0-6.627-3.318" style="fill:url(#a)"/></g></svg>