<?xml version="1.0" encoding="UTF-8" standalone="no"?>
<svg
   version="1.1"
   viewBox="0 0 69.410973 74.475302"
   height="74.475304mm"
   width="69.410973mm"
   id="svg6"
   xmlns:xlink="http://www.w3.org/1999/xlink"
   xmlns="http://www.w3.org/2000/svg"
   xmlns:svg="http://www.w3.org/2000/svg">
  <defs
     id="defs6" />
  <linearGradient
     id="linearGradient2260">
    <stop
       offset="0"
       style="stop-color:#8b723c"
       id="stop1" />
    <stop
       offset="0.25"
       style="stop-color:#d2bb7b"
       id="stop2" />
    <stop
       offset="0.5"
       style="stop-color:#ebd491"
       id="stop3" />
    <stop
       offset="0.75"
       style="stop-color:#d2bb7b"
       id="stop4" />
    <stop
       offset="1"
       style="stop-color:#8b723c"
       id="stop5" />
  </linearGradient>
  <linearGradient
     gradientTransform="matrix(0.26458333,0,0,0.26458333,-93.920685,-10.763942)"
     gradientUnits="userSpaceOnUse"
     y2="183.07713"
     x2="608.32422"
     y1="183.07713"
     x1="363.54492"
     id="linearGradient2262"
     xlink:href="#linearGradient2260" />
  <path
     d="m 47.886513,70.231123 -1.98076,-3.541903 c 9.98995,-4.576234 16.8374,-12.696045 20.05665,-24.04298 -1.09227,0.09549 -2.15603,0.210883 -3.2153,0.247523 -2.44446,-8e-6 -4.42608,-1.981628 -4.42609,-4.426085 10e-6,-2.444456 1.98163,-4.426079 4.42609,-4.426087 1.42971,0.0014 2.73855,0.741566 3.78503,1.873829 l 1.88801,1.884598 c 0.67799,-1.172721 0.90199,-3.003653 0.95159,-3.850621 0.27601,-4.710285 -0.93359,-9.716658 -2.70089,-13.895027 -1.7673,-4.178369 -4.32463,-7.941227 -7.48472,-11.101318 C 56.026043,5.792961 52.263173,3.23563 48.084823,1.468336 46.584183,0.853344 45.219703,0.387357 43.767663,0 v 8.363996 l -5.25113,7.805118 -0.13332,10.433655 c -0.0131,1.024671 -2.338336,1.618669 -3.67773,1.618669 -1.339394,0 -3.66463,-0.593998 -3.67773,-1.618668 L 30.894433,16.169114 25.643303,8.363996 V 0 c -1.45203,0.387357 -2.81651,0.853344 -4.31715,1.468336 -4.17836,1.767294 -7.94122,4.324625 -11.10131,7.484716 -3.1600904,3.160091 -5.7174174,6.922949 -7.4847174,11.101318 -1.76730301,4.178368 -2.97689601,9.184743 -2.70088801,13.895027 0.04963,0.846969 0.273598,2.677901 0.951592,3.850622 L 2.8788386,35.915421 c 1.04648,-1.132263 2.355321,-1.872398 3.785034,-1.87383 2.44445,8e-6 4.4260704,1.981632 4.4260804,4.426088 -10e-6,2.444456 -1.9816304,4.426077 -4.4260804,4.426085 -1.059276,-0.03664 -2.123033,-0.15203 -3.21531,-0.247523 3.21925,11.346934 10.0667104,19.466745 20.0566604,24.042978 l -1.98076,3.541903 c 2.92781,3.404293 8.565197,4.244183 13.18102,4.244184 4.615826,10e-7 10.25322,-0.83989 13.18103,-4.244183 z"
     id="path5" />
  <path
     d="m 45.941898,2.9775959 v 5.9567423 l -4.973339,7.1985268 c 7.73585,2.582717 11.209652,7.837965 12.589412,13.209529 -2.816979,-5.046571 -6.623613,-9.680831 -13.042614,-10.848433 0,0 0.05568,5.479645 0,8.218621 -0.01974,0.970438 -1.214197,3.541903 -5.809983,3.541903 -4.595783,0 -5.79025,-2.571465 -5.80998,-3.541903 -0.05568,-2.738975 0,-8.218621 0,-8.218621 C 22.476393,19.661564 18.669758,24.295823 15.852779,29.342394 17.232538,23.97083 20.70634,18.715582 28.442192,16.132865 L 23.468851,8.9343382 V 2.9781127 C 12.687723,7.8478427 2.6076141,15.486326 2.2670451,33.472892 c 1.1965118,-1.076955 2.7485804,-1.674101 4.3583903,-1.6769 3.6073186,-1.22e-4 6.5317316,2.924064 6.5319006,6.531385 1.19e-4,3.60752 -2.924381,6.532023 -6.5319006,6.531901 -0.082399,-0.0026 -0.1647515,-0.0072 -0.2470134,-0.01291 2.9056221,7.585811 7.920826,14.658475 16.847033,19.484597 -1.208688,-8.222522 -5.797266,-12.389075 -9.303307,-17.014981 5.116771,2.125313 15.085935,14.798672 10.395747,22.470464 0.489839,0.630087 6.83743,2.58589 10.387479,2.585887 3.55005,0 9.897642,-1.9558 10.387481,-2.585887 -4.690189,-7.671792 5.278974,-20.345151 10.395746,-22.470464 -3.506041,4.625906 -8.09462,8.792459 -9.303308,17.014981 8.926208,-4.826122 13.941412,-11.898789 16.847034,-19.484597 -0.08226,0.0057 -0.164613,0.01032 -0.247012,0.01291 -3.60752,1.19e-4 -6.53202,-2.924384 -6.531901,-6.531901 1.69e-4,-3.607324 2.924582,-6.531507 6.531901,-6.531385 1.609809,0.0028 3.161876,0.599945 4.358388,1.6769 C 66.803134,15.486325 56.723025,7.8473265 45.941898,2.9775959 Z M 23.154659,34.371028 c 3.29901,-0.0105 6.953553,1.358834 7.810375,2.951242 0.291952,0.542613 -0.736931,3.360346 -0.962732,4.373893 -0.830159,-0.910021 -2.407872,-1.070665 -2.877343,-0.965316 -0.47982,0.107667 -2.586107,0.738896 -3.873149,0.533818 -1.119977,-0.178459 -2.300983,-0.645459 -3.059244,-1.4888 -0.968341,-1.076976 -2.264696,-3.408185 -1.476396,-4.086056 1.079881,-0.928605 2.710429,-1.31328 4.438489,-1.318781 z m 23.101431,0 c 1.72806,0.0055 3.358608,0.390173 4.438489,1.318781 0.788299,0.677868 -0.508053,3.00908 -1.476396,4.086056 -0.758259,0.843341 -1.939267,1.309825 -3.059245,1.488281 -1.287042,0.205081 -3.393326,-0.425632 -3.873148,-0.533299 -0.469472,-0.105349 -2.047185,0.0553 -2.877344,0.965316 -0.225801,-1.01355 -1.254681,-3.83128 -0.962731,-4.373893 0.856821,-1.592405 4.511365,-2.961743 7.810375,-2.951242 z M 30.161465,49.994364 c 0.508783,0.01492 1.091793,0.213852 1.226799,0.275953 0.17317,0.07966 0.564393,0.426236 1.377693,0.911055 0.35464,0.211405 0.559247,0.487257 0.877467,0.67541 0.41157,0.243335 0.697185,0.264584 1.06195,0.264584 0.364768,0 0.65038,-0.02125 1.06195,-0.264584 0.31822,-0.188153 0.522828,-0.463489 0.877467,-0.674894 0.8133,-0.484819 1.204524,-0.831395 1.377694,-0.911055 0.135008,-0.0621 0.718015,-0.261033 1.226798,-0.275953 v -5.29e-4 c 0.169596,-0.005 0.330748,0.01116 0.464572,0.05891 0.15599,0.05564 0.32118,0.152754 0.450101,0.278021 0.128918,0.125262 0.221353,0.278143 0.232545,0.443384 0.01408,0.208631 -0.07769,0.412117 -0.218591,0.58911 -0.140909,0.176991 -0.330899,0.327417 -0.513149,0.429948 -0.746572,0.420026 -1.739016,-0.03936 -2.562116,0.197922 -0.415139,0.119679 -0.736008,0.471027 -1.147218,0.60358 -0.346728,0.111768 -0.829921,0.161745 -1.250053,0.161745 -0.420132,0 -0.903324,-0.04998 -1.250053,-0.161745 -0.41121,-0.132553 -0.732078,-0.483901 -1.147215,-0.60358 -0.8231,-0.237289 -1.815547,0.222104 -2.562119,-0.197922 -0.18225,-0.102531 -0.372237,-0.252957 -0.513146,-0.429948 -0.140898,-0.176993 -0.232672,-0.380479 -0.218591,-0.58911 0.01119,-0.165241 0.103624,-0.318122 0.232543,-0.443384 0.12892,-0.125267 0.294113,-0.22238 0.450101,-0.278021 0.133826,-0.04774 0.294976,-0.06388 0.464571,-0.05891 z m 4.543909,8.551931 c 2.083504,0 4.979578,0.171996 6.202207,0.653709 l -1.731677,2.442745 c -1.568082,0.247732 -2.975999,0.340031 -4.47053,0.340029 -1.49453,0 -2.902447,-0.0923 -4.470527,-0.340029 l -1.731676,-2.442745 c 1.222629,-0.481713 4.118699,-0.653709 6.202203,-0.653709 z"
     style="fill:url(#linearGradient2262);stroke-width:0.264583"
     id="path6" />
</svg>
