<?xml version="1.0" encoding="UTF-8" standalone="no"?>
<svg
   version="1.1"
   viewBox="0 0 64.876656 69.394728"
   height="69.39473mm"
   width="64.876656mm"
   id="svg1"
   xmlns="http://www.w3.org/2000/svg"
   xmlns:svg="http://www.w3.org/2000/svg">
  <defs
     id="defs1" />
  <path
     d="m 43.674852,0 v 5.9567423 l -4.973338,7.1985267 c 7.73585,2.582717 11.209652,7.837965 12.589412,13.20953 -2.816979,-5.046572 -6.623614,-9.680832 -13.042614,-10.848433 0,-10e-7 0.05568,5.479644 0,8.21862 -0.01974,0.970439 -1.214197,3.541903 -5.809983,3.541903 -4.595783,0 -5.79025,-2.571464 -5.80998,-3.541903 -0.05568,-2.738975 0,-8.21862 0,-8.21862 -6.419002,1.167602 -10.225636,5.801861 -13.042615,10.848433 1.379759,-5.371565 4.853561,-10.626813 12.589413,-13.20953 L 21.201806,5.9567423 V 5.1673124e-4 C 10.420678,4.8702467 0.34056899,12.50873 0,30.495296 c 1.1965119,-1.076954 2.7485804,-1.674101 4.3583903,-1.6769 3.6073186,-1.22e-4 6.5317317,2.924064 6.5319007,6.531385 1.19e-4,3.60752 -2.9243813,6.532023 -6.5319007,6.531901 -0.082399,-0.0026 -0.1647515,-0.0072 -0.2470134,-0.01291 2.9056221,7.58581 7.9208261,14.658474 16.8470331,19.484596 -1.208688,-8.222522 -5.797266,-12.389075 -9.303308,-17.014981 5.116772,2.125313 15.085936,14.798672 10.395748,22.470464 0.489839,0.630087 6.83743,2.58589 10.387479,2.585887 3.55005,0 9.897642,-1.9558 10.387481,-2.585887 -4.690189,-7.671792 5.278974,-20.345151 10.395746,-22.470464 -3.506041,4.625906 -8.09462,8.792459 -9.303308,17.014981 8.926208,-4.826122 13.941412,-11.898789 16.847034,-19.484596 -0.08226,0.0057 -0.164613,0.01032 -0.247012,0.01291 -3.60752,1.19e-4 -6.53202,-2.924384 -6.531901,-6.531901 1.69e-4,-3.607324 2.924582,-6.531507 6.531901,-6.531385 1.609809,0.0028 3.161876,0.599946 4.358388,1.6769 C 64.536089,12.508729 54.45598,4.8697305 43.674852,0 Z M 20.887614,31.393432 c 3.29901,-0.0105 6.953553,1.358834 7.810375,2.951242 0.291952,0.542613 -0.736931,3.360346 -0.962732,4.373893 -0.830159,-0.910021 -2.407872,-1.070665 -2.877343,-0.965316 -0.47982,0.107667 -2.586107,0.738896 -3.873149,0.533818 -1.119978,-0.178459 -2.300983,-0.645459 -3.059244,-1.4888 -0.968341,-1.076976 -2.264696,-3.408185 -1.476396,-4.086055 1.079881,-0.928606 2.710429,-1.313281 4.438489,-1.318782 z m 23.101431,0 c 1.72806,0.0055 3.358608,0.390173 4.438489,1.318782 0.788299,0.677867 -0.508053,3.009079 -1.476396,4.086055 -0.758259,0.843341 -1.939267,1.309825 -3.059245,1.488281 -1.287042,0.205082 -3.393326,-0.425632 -3.873148,-0.533299 -0.469472,-0.105349 -2.047185,0.0553 -2.877344,0.965316 -0.225801,-1.01355 -1.254681,-3.83128 -0.962731,-4.373893 0.856821,-1.592405 4.511365,-2.961743 7.810375,-2.951242 z M 27.89442,47.016768 c 0.508783,0.01492 1.091793,0.213852 1.226799,0.275953 0.17317,0.07966 0.564393,0.426236 1.377693,0.911055 0.35464,0.211405 0.559247,0.487257 0.877467,0.67541 0.41157,0.243335 0.697185,0.264584 1.06195,0.264584 0.364768,0 0.65038,-0.02125 1.06195,-0.264584 0.31822,-0.188153 0.522828,-0.463489 0.877467,-0.674894 0.8133,-0.484819 1.204524,-0.831394 1.377693,-0.911055 0.135009,-0.0621 0.718016,-0.261033 1.226799,-0.275953 v -5.29e-4 c 0.169596,-0.005 0.330748,0.01117 0.464572,0.05891 0.15599,0.05564 0.32118,0.152754 0.450101,0.278021 0.128918,0.125262 0.221353,0.278143 0.232545,0.443384 0.01408,0.208631 -0.07769,0.412117 -0.218591,0.58911 -0.140909,0.176991 -0.330899,0.327417 -0.513149,0.429948 -0.746572,0.420026 -1.739016,-0.03936 -2.562116,0.197922 -0.41514,0.119679 -0.736008,0.471027 -1.147218,0.60358 -0.346728,0.111768 -0.829921,0.161746 -1.250053,0.161746 -0.420132,0 -0.903324,-0.04998 -1.250053,-0.161746 -0.41121,-0.132553 -0.732078,-0.483901 -1.147215,-0.60358 -0.8231,-0.237289 -1.815547,0.222104 -2.562119,-0.197922 -0.18225,-0.102531 -0.372237,-0.252957 -0.513146,-0.429948 -0.140899,-0.176993 -0.232672,-0.380479 -0.218591,-0.58911 0.01119,-0.165241 0.103624,-0.318122 0.232543,-0.443384 0.12892,-0.125267 0.294113,-0.22238 0.450101,-0.278021 0.133826,-0.04774 0.294976,-0.06388 0.464571,-0.05891 z m 4.543909,8.551932 c 2.083504,0 4.979577,0.171995 6.202206,0.653708 l -1.731676,2.442745 c -1.568082,0.247732 -2.975999,0.340032 -4.47053,0.340029 -1.494531,0 -2.902447,-0.0923 -4.470527,-0.340029 l -1.731677,-2.442745 c 1.222629,-0.481713 4.1187,-0.653708 6.202204,-0.653708 z"
     id="path1"
     style="stroke-width:0.264583" />
</svg>
