<svg xmlns="http://www.w3.org/2000/svg" width="327.648" height="300"><path fill="#fff" d="m182.361 299.979 145.287-5.871-57.67-75.099zM0 294.107 145.356 300l-87.633-80.951Zm172.478-1.205 118.189-111.76-55.91-37.659L184.37.001l-11.891.015ZM92.924 143.483l-55.86 37.695 118.187 111.708V0l-11.944.02z"/><path d="m304.017 283.047-35.559-46.303-53.985 49.914zM113.247 286.66l-54.038-49.895-35.556 46.255zM184.465 36.435l.026 228.597 87.023-82.279-46.719-31.528zM102.916 151.221l-46.714 31.517 87.013 82.334.009-228.655z"/></svg>