<svg xmlns="http://www.w3.org/2000/svg" width="327.648" height="300"><path d="m182.361 299.979 145.287-5.871-57.67-75.099zM0 294.107 145.355 300l-87.633-80.951Zm172.478-1.205 118.189-111.76-55.91-37.659L184.37.001l-11.891.015ZM92.924 143.483l-55.86 37.695L155.25 292.886V0l-11.943.02z"/><g transform="translate(-.176)"><linearGradient id="a" x1="-944.469" x2="-917.091" y1="-347.937" y2="-347.937" gradientTransform="scale(6.4867 -6.4867)rotate(43.433 -833.41 1028.85)" gradientUnits="userSpaceOnUse"><stop offset=".2" style="stop-color:#8b723c"/><stop offset=".5" style="stop-color:#ebd491"/><stop offset=".8" style="stop-color:#8b723c"/></linearGradient><path fill="url(#a)" d="m304.193 283.047-35.559-46.303-53.985 49.914z" style="fill:url(#a)"/><linearGradient id="b" x1="-835.803" x2="-808.428" y1="-154.653" y2="-154.653" gradientTransform="scale(7.1676 -7.1676)rotate(-36.417 -230.619 -1369.56)" gradientUnits="userSpaceOnUse"><stop offset=".2" style="stop-color:#8b723c"/><stop offset=".5" style="stop-color:#ebd491"/><stop offset=".8" style="stop-color:#8b723c"/></linearGradient><path fill="url(#b)" d="m113.424 286.66-54.039-49.895-35.557 46.255z" style="fill:url(#b)"/><linearGradient id="c" x1="-855.051" x2="-827.692" y1="-121.132" y2="-121.132" gradientTransform="scale(7.7807 -7.7807)rotate(-40.417 -265.08 -1244.28)" gradientUnits="userSpaceOnUse"><stop offset=".2" style="stop-color:#8b723c"/><stop offset=".5" style="stop-color:#ebd491"/><stop offset=".8" style="stop-color:#8b723c"/></linearGradient><path fill="url(#c)" d="m184.641 36.435.026 228.597 87.023-82.279-46.719-31.528z" style="fill:url(#c)"/><linearGradient id="d" x1="-732.263" x2="-704.894" y1="-117.219" y2="-117.219" gradientTransform="scale(4.172 -4.172)rotate(-38.866 -235.86 -1138.55)" gradientUnits="userSpaceOnUse"><stop offset=".2" style="stop-color:#8b723c"/><stop offset=".5" style="stop-color:#ebd491"/><stop offset=".8" style="stop-color:#8b723c"/></linearGradient><path fill="url(#d)" d="m103.092 151.221-46.713 31.517 87.012 82.334.009-228.655z" style="fill:url(#d)"/></g></svg>