<?xml version="1.0" encoding="UTF-8" standalone="no"?>
<svg
   version="1.1"
   width="600"
   height="431.49213"
   id="svg2"
   xmlns="http://www.w3.org/2000/svg"
   xmlns:svg="http://www.w3.org/2000/svg">
  <defs
     id="defs2" />
  <path
     d="M 398.20211,206.94385 V 305.119 h -44.65939 c 12.29752,-27.04374 22.99851,-50.56004 44.65939,-98.17515 M 279.75764,126.37356 C 269.21846,148.6709 264.83881,157.89403 252.23926,184.57101 240.233,157.80773 236.01517,148.4983 226.06928,126.37356 Z M 0,4.3e-4 v 126.41628 h 62.07008 c 10.45288,22.41599 59.83711,128.22855 82.8464,177.61277 H 21.19702 V 431.49213 H 599.99999 V 305.16215 c 0,0 -39.94534,-0.0777 -52.74986,-0.11909 V 126.41628 h 52.74986 L 600,0 H 0 Z"
     style="fill:#808080"
     id="path1" />
  <path
     d="M 322.69106,99.157223 H 183.93412 L 251.64596,249.54287 Z M 311.23496,332.34613 H 425.42924 V 99.200372 h -8.09047 z M 79.39447,99.200372 H 27.22712 V 27.22756 H 572.78366 V 99.200372 H 520.02301 V 332.17353 l 52.76065,0.1726 v 71.92966 H 48.41336 V 331.24582 H 187.6881 Z"
     id="path2" />
</svg>
