<?xml version="1.0" encoding="UTF-8" standalone="no"?>
<svg
   version="1.1"
   width="600"
   height="431.49213"
   id="svg17"
   xmlns="http://www.w3.org/2000/svg"
   xmlns:svg="http://www.w3.org/2000/svg">
  <defs
     id="defs21" />
  <radialGradient
     cx="0"
     cy="0"
     r="1"
     fx="0"
     fy="0"
     id="radialGradient802"
     gradientUnits="userSpaceOnUse"
     gradientTransform="matrix(21.145584,0,0,-21.145584,481.18359,259.30273)"
     spreadMethod="pad">
    <stop
       style="stop-color:#bf99c3"
       offset="0"
       id="stop2" />
    <stop
       style="stop-color:#7b5190"
       offset="0.7"
       id="stop4" />
    <stop
       style="stop-color:#612c75"
       offset="1"
       id="stop6" />
  </radialGradient>
  <path
     d="M 398.20211,206.94385 V 305.119 h -44.67018 c 12.30831,-27.04374 22.96615,-50.56004 44.67018,-98.17515 M 279.75764,126.37356 C 269.21846,148.6709 264.83881,157.89403 252.23926,184.57101 240.233,157.80773 236.01517,148.4983 226.02614,126.37356 Z M 0,4.3e-4 v 126.41628 h 62.07008 c 10.45288,22.41599 59.83711,128.22855 82.87877,177.61277 H 21.19702 V 431.49213 H 599.99999 V 305.16215 c 0,0 -39.94534,-0.0777 -52.76064,-0.11909 V 126.41628 h 52.76064 L 600,0 H 0 Z"
     id="path9"
     style="fill:#ffffff;fill-opacity:1" />
  <path
     d="M 322.69106,99.157223 H 183.93412 L 251.64596,249.54287 Z M 311.23496,332.34613 H 425.41845 V 99.200372 h -8.09047 z M 79.38368,99.200372 H 27.21633 V 27.22756 H 572.78366 V 99.200372 H 520.02301 V 332.17353 l 52.76065,0.1726 v 71.92966 H 48.41336 v -73.02997 h 139.26395 z"
     style="fill:#612c75"
     id="path11" />
  <g
     transform="matrix(10.787293,0,0,-10.787293,-4890.6887,3012.9451)"
     id="g15">
    <path
       d="m 456.496,276.18 v -5.473 h 4.238 0.383 l 0.164,-0.348 10.039,-21.507 0.399,-0.856 h -0.946 -12.308 v -5.57 h 47.406 v 5.472 l -4.293,0.012 h -0.598 v 0.602 21.597 0.598 h 0.602 4.289 v 5.473 z m 19.66,-20.254 -6.277,13.941 -0.383,0.848 h 0.93 12.863 0.945 l -0.402,-0.856 -6.586,-13.941 -0.555,-1.18 z m 5.524,-7.18 9.836,21.609 0.16,0.352 h 0.386 0.75 0.602 v -0.598 -21.613 -0.601 h -0.602 -10.585 -0.934 z"
       style="fill:url(#radialGradient802)"
       id="path13" />
  </g>
</svg>
