<?xml version="1.0" encoding="UTF-8"?><svg id="Layer_2" xmlns="http://www.w3.org/2000/svg" width="163.74006" height="216.40826" viewBox="0 0 163.74006 216.40826"><g id="WM"><path d="M160.47805,83.58832c-1.67999-5.07001-4.13-9.84003-7.63-14.01001-2.16003-2.58002-4.48004-4.92004-6.91998-7.04999-9.46002-8.28003-20.83002-13.33002-32.96002-16.42004-7.12-1.81-14.51001-2.95001-21.91003-3.65997l.47003-16.44,11.77997-14.60004c2.19574-11.23315-.63043-11.3429-2.38666-11.40826l-40.15234.06537c-1.59143.09149-4.44971.36127-2.22095,11.3429.03479.17157,11.77997,14.60004,11.77997,14.60004l.10004,16.45001v.00995c-28.42004,1.29004-59.53003,14.89001-67.91003,42.98004-1.07001,3.58997-1.78998,7.40997-2.06,11.47998-.21002,3.13-.37,6.06-.42999,8.84003-.29999,13.26996,1.69,23.13,11.70001,34.63,3.29999,3.78998,6.96997,7.31995,10.92999,10.51996.07001.04999.13.11005.20001.16003,12.09998,9.73999,26.88995,16.39996,42.22998,18.17999.25,1.94.45001,3.89001.62,5.84998.14001,1.58002.23999,3.17004.34003,4.76001.26996,4.32001.42999,8.66003.65997,12.96002l14.97998,23.57996,4.76001-7.19,10.59003-16.38997.64996-16.46.26001-6.72998c2.12-.26001,4.21002-.58002,6.26001-.97003,10.09998-1.90997,19.29999-5.44,27.87-10.69,3.59003-2.19995,7.07001-4.69995,10.45001-7.51996,9.59998-8.01001,18.29999-17.70001,20.42999-30.26001.20001-1.16003.35999-2.34003.44-3.54999.22998-3.35004.35999-6.80005.34003-10.28003-.05005-7.71002-.88-15.56-3.26001-22.77997ZM144.13802,72.54828c4.34003,6.07001,5.53003,11.32001,4.46002,16.04999-1.33002,5.89001-6.17999,10.95001-12.84003,15.75-6.73999-5.16998-13.34998-11.19-21-15.06995-1.63-.83002-3.29999-1.57001-5.03998-2.17004.91998-1.34998,4.56-7.17999,5.69-8.78998l-9.46002-12.02002-4.28998-5.44-2.66998-4.21997-4.12006-6.48999c16.73004,1.65997,39.02002,8.09998,49.27002,22.39996ZM125.50801,107.2583c-10.32001,6.72998-19.06,8.5-25.56,9.09998-.08997.01001-.19.02002-.28998.03003.01001-.40002.5-11.54004,1.07001-16.92004.09998-.88995,2.97998-4.94995,3.56-5.12,2.47998-.75,19.89996,11.93005,21.21997,12.91003ZM15.93801,80.27832c4.32001-19.22003,33.54004-28.35004,50.66003-30.13.12.10999-.19.76996-.73999,1.69995-1.66003,2.82001-5.5,8.23004-6.06,9.01001-.85004,1.20001-1.74005,2.38-2.63,3.54999-3.44,4.56-7.08002,8.98004-10.63,13.44.98999,1.75,3.14996,5.53003,4.64001,8.22003.19995.35999.38995.71002.56,1.02997-5.96002,3.19-11.44,6.48004-17.47003,10.58002-1.03998.71002-2.39001,1.76001-3.91998,2.98999-.81.64001-1.66003,1.34003-2.54999,2.06-7.13-6.29999-14.23004-11.87-11.86005-22.44995ZM56.78804,93.88831c.27997.02997,2.65997,3.32001,3.57996,4.85999.22003.34998.35004.60999.36005.71002.63995,5.32996,1.07001,10.39996,1.07001,15.48999-4.68005-1.25-9.30005-2.75-13.79004-4.57001-3.14001-1.27002-6.21997-2.69-9.20001-4.31,2.17004-2.22003,4.58002-4.14001,7.12006-5.89001,3.43994-2.37,7.12994-4.39001,10.85999-6.28998ZM11.48806,129.11829c-1.86005-3-3.10004-6.27002-3.90002-9.67999-1.87-8.09003-1.17999-17.02002.02002-25.35999.31-2.21002.66998-4.38,1.01996-6.48999.5,1.25995.76001,1.91998,1.02002,2.60999.12.31.23999.63.38,1.01996,1.77002,4.66003,4.83002,8.80005,8.70001,12.45001,10.56,9.97003,27.16998,16.28003,40.23999,19.53003,1.28998.33002,2.56.62,3.77997.89001l1.66003,26.35999.75,12.01996c-20.41998-1.91998-42.90002-15.90997-53.66998-33.34998ZM93.92806,97.4483l-1.78003,38.73999-2.46997,53.85999-2.23004,3.63-5.76001,9.41003c-.19995-.23004-.75995-1.02002-1.48999-2.10004-2.40997-3.56-6.75-10.32001-6.87-10.94-.47998-8.79999-.97998-17.59998-1.48999-26.39996-.97003-16.64001-2.02002-33.27002-3.16998-49.89001-.40002-5.72998-.80005-11.45001-1.22003-17.17999l-2.45996-3.47003-10.21002-14.39996c.08002-.11005.15997-.22003.23999-.34003,2.04999-3.02002,4.40002-5.83997,6.60999-8.73999.52002-.67999,1.04004-1.35999,1.53003-2.04999.75-1.04999,2.02997-2.79004,3.51001-4.84003,4-5.53998,9.44995-13.39001,9.92999-16.44.01001-.08997.02997-.17999.02997-.26001.13-2.06.20001-4.06.23999-6.02997v-.13c.07001-3.65002.02002-7.20001-.07996-10.75v-.15002c-.02002-.75-.04999-1.5-.07001-2.25-.04999-1.66998-.10004-3.33997-.16003-5.03998l-3.12994-3.98999-8.49005-10.77002c-.60999-.71002-.75995-1.70001-.28998-2.28998v-.01001s.01001,0,.01001-.01001c.15997-.19.38-.33002.67999-.40997.17999-.05005.38-.07001.59998-.06,1.60004.03998,5.66003-.01001,10.34003-.06.28998,0,.58997-.01001.89001-.01001,1.22998-.01001,2.48999-.02002,3.76001-.03003,1.57996.02002,3.14996.03003,4.64996.04004,4.67999.04999,8.73999.09998,10.34003.06.21997,0,.41998.01996.59998.06,1.22003.32001,1.22003,1.77997.40002,2.71997l-11.62,14.76001c-.08002,2.46997-.16003,4.88-.23004,7.28998-.09998,3.65002-.37,7.29004-.29999,11.03003h.01001c-.01001.44-.03003.87-.03003,1.29999.01001,1.59003.03003,3.17999.08002,4.72998.03998,1.11005.78998,2.77002,1.83002,4.61005.52997.92999,1.13,1.90997,1.77002,2.88,1.81995,2.78998,3.85999,5.53998,4.88995,7.04999,1.41003,2.06,2.89001,4.06,4.40002,6.04999,2.85999,3.76001,5.79999,7.45001,8.56,11.27002.19.26996.38.52997.57001.79999l-12.91998,18.75ZM157.16805,113.76831c-.15002,2.69995-.48004,5.07001-.98999,7.26996-1.23004,5.25-3.58002,9.46002-7.45001,14.51001-6.39001,8.32001-15.59003,15.23999-25.70001,20.09003-4.13,1.97998-8.40002,3.58997-12.70001,4.82996-4.21002,1.21002-8.45001,2.07001-12.58997,2.48004l.60999-13.85004,1.03998-23.62c5.79004-1.22998,12.12-2.88995,18.39001-5.07001,10.42999-3.62994,20.70001-8.73999,28.17999-15.87.01001-.00995.03003-.02997.03998-.03998.11005-.10999.22003-.21997.33002-.32001,1.10999-1.08997,2.16998-2.21997,3.14001-3.39996.25-.30005.45001-.57001.66998-.86005,1.16998-1.51001,1.96002-2.83997,2.62-4.22998.69-1.46002,1.27002-3,2.03003-4.95001.07996-.20996.13-.45001.20996-.65997.11005-.29004.28003-.53003.71002-.57001.34998,2.06.65002,4.14996.89001,6.23999.51996,4.5.76996,9.04999.70996,13.59003-.00995,1.47998-.04999,2.95996-.13995,4.42999ZM80.7303,60.71692l-.0011.00146-.00006-.00012-12.04999,16.06006.00024.00067-.00012.00012,12.13495,33.84869.00238-.00671.00256.0072,11.94-33.84003-5.86597-7.83588-6.1629-8.23547ZM78.92379,86.37402c-1.60596-3.93854-3.22241-7.99615-3.22241-7.99615,0,0,2.8786-3.71466,4.51489-5.85278.22675-.29523.43073-.56134.59961-.78247,2.59778,2.94391,2.81329,3.16943,5.39923,6.47473l-5.3985,12.72485c-.55084-1.29926-1.22119-2.92365-1.89282-4.56818Z"/></g></svg>