<?xml version="1.0" encoding="UTF-8" standalone="no"?>
<!-- Created with Inkscape (http://www.inkscape.org/) -->

<svg
   width="23.639841mm"
   height="15.507237mm"
   viewBox="0 0 23.639841 15.507237"
   version="1.1"
   id="svg1"
   inkscape:version="1.3.2 (091e20ef0f, 2023-11-25, custom)"
   sodipodi:docname="C.svg"
   xmlns:inkscape="http://www.inkscape.org/namespaces/inkscape"
   xmlns:sodipodi="http://sodipodi.sourceforge.net/DTD/sodipodi-0.dtd"
   xmlns="http://www.w3.org/2000/svg"
   xmlns:svg="http://www.w3.org/2000/svg">
  <sodipodi:namedview
     id="namedview1"
     pagecolor="#ffffff"
     bordercolor="#666666"
     borderopacity="1.0"
     inkscape:showpageshadow="2"
     inkscape:pageopacity="0.0"
     inkscape:pagecheckerboard="0"
     inkscape:deskcolor="#d1d1d1"
     inkscape:document-units="mm"
     inkscape:zoom="1.8457408"
     inkscape:cx="46.051971"
     inkscape:cy="-90.478579"
     inkscape:window-width="847"
     inkscape:window-height="1412"
     inkscape:window-x="3627"
     inkscape:window-y="0"
     inkscape:window-maximized="1"
     inkscape:current-layer="layer1" />
  <defs
     id="defs1" />
  <g
     inkscape:label="Layer 1"
     inkscape:groupmode="layer"
     id="layer1"
     transform="translate(-81.491704,-130.96875)">
    <path
       d="m 104.11203,133.31931 c 0.37147,0 0.71332,0.20188 0.8927,0.52731 0.17939,0.32518 0.16775,0.72205 -0.0304,1.03611 -2.7e-4,8e-4 -8e-4,0.001 -10e-4,0.002 -3.00567,4.73366 -6.989235,8.55371 -11.248233,11.4591 -0.258233,0.17621 -0.598487,0.17621 -0.856721,0 -4.259262,-2.90565 -8.214254,-6.72544 -11.218333,-11.4591 -2.64e-4,-8e-4 -5.29e-4,-10e-4 -0.0011,-0.002 -0.198173,-0.31406 -0.209815,-0.7112 -0.03043,-1.03637 0.179387,-0.32517 0.521494,-0.52705 0.892704,-0.52705 z"
       style="clip-rule:evenodd;fill:#ffffff;fill-rule:evenodd;stroke-width:0.264583;stroke-linejoin:round;stroke-miterlimit:2"
       id="path1" />
    <path
       d="m 104.11203,134.07946 c 0.0945,0 0.1815,0.0513 0.22701,0.13414 0.0458,0.0828 0.0429,0.18362 -0.008,0.26353 -2.94799,4.64317 -6.856942,8.38861 -11.034713,11.2387 -4.177771,-2.85009 -8.05815,-6.59553 -11.004815,-11.2387 -0.05027,-0.0799 -0.05318,-0.18071 -0.0077,-0.26353 0.04577,-0.0828 0.132557,-0.13414 0.227013,-0.13414 z"
       id="path2"
       style="clip-rule:evenodd;fill-rule:evenodd;stroke-width:0.264583;stroke-linejoin:round;stroke-miterlimit:2" />
    <path
       d="m 93.296657,130.96875 c 2.818341,0 5.371571,0.70009 7.328433,2.72865 0.70934,0.73528 1.25835,2.03729 1.25835,4.08808 0,0 0.0286,1.63142 -0.45772,2.50348 -1.431136,2.56593 -4.335997,4.29075 -8.129063,4.29075 -3.793067,0 -6.697927,-1.72482 -8.129058,-4.29075 -0.486305,-0.87206 -0.45773,-2.50348 -0.45773,-2.50348 0,-2.05079 0.549011,-3.3528 1.258359,-4.08808 1.956858,-2.02856 4.509823,-2.72865 7.328429,-2.72865 z m 4.849812,6.91436 c -1.834356,-1.65656 -3.3655,-2.20795 -4.849812,-2.20795 -1.510771,0 -3.100917,0.42228 -4.982104,2.13651 1.73011,0.95435 3.977481,1.32107 4.982104,1.32107 0.979223,0 3.139016,-0.34846 4.849812,-1.24963 z"
       style="clip-rule:evenodd;fill:#ffffff;fill-rule:evenodd;stroke-width:0.264583;stroke-linejoin:round;stroke-miterlimit:2"
       id="path3" />
    <path
       d="m 93.296657,139.75239 c 1.854729,0 7.702813,-1.17687 7.702813,-4.76832 0.59717,1.40255 0.65485,3.64252 0.24818,4.63444 -0.97472,2.37755 -4.081462,4.45929 -7.950993,4.45929 -3.869531,0 -6.976269,-2.08174 -7.950994,-4.45929 -0.406664,-0.99192 -0.348985,-3.23189 0.248179,-4.63444 0,3.59145 5.848086,4.76832 7.702815,4.76832 z"
       id="path4"
       style="clip-rule:evenodd;fill-rule:evenodd;stroke-width:0.264583;stroke-linejoin:round;stroke-miterlimit:2" />
    <path
       d="m 93.296657,135.05551 c -1.709738,0 -3.522133,0.48233 -5.68325,2.56407 -0.611981,-0.47175 -1.53961,-1.17157 -1.53961,-2.20742 0,-1.03584 0.827352,-2.02326 1.573212,-2.47702 1.192212,-0.72496 2.655623,-1.46342 5.649648,-1.46342 2.994025,0 4.479131,0.89932 5.671079,1.62455 0.746125,0.45376 1.573214,1.44092 1.573214,2.47676 0,1.03584 -0.979224,1.74069 -1.591206,2.21245 -2.161116,-2.08201 -3.94335,-2.72997 -5.653087,-2.72997 z"
       id="path5"
       style="clip-rule:evenodd;fill-rule:evenodd;stroke-width:0.264583;stroke-linejoin:round;stroke-miterlimit:2" />
    <path
       d="m 94.540199,143.773 c -0.05397,-0.054 -0.05503,-0.0503 0.04842,-0.20611 0.193411,-0.29157 0.268288,-0.72734 0.198702,-1.15888 -0.04577,-0.28363 -0.04604,-0.2839 -0.141287,-0.19367 -0.04498,0.0426 -0.128588,0.1008 -0.186267,0.12911 -0.405606,0.20003 -0.849048,0.11007 -1.015471,-0.20584 -0.185473,-0.35216 0.01773,-0.75142 0.446088,-0.87577 0.120121,-0.0349 0.155839,-0.0357 0.250296,-0.006 0.08202,0.0262 0.112183,0.0503 0.118533,0.0952 0.01429,0.10081 -0.03625,0.13467 -0.176477,0.11801 -0.15531,-0.0183 -0.278342,0.0354 -0.406665,0.17753 -0.07514,0.0831 -0.09207,0.1225 -0.09207,0.21299 2.65e-4,0.28707 0.2667,0.43709 0.614363,0.34608 0.192617,-0.0505 0.329935,-0.13838 0.427831,-0.27358 0.0635,-0.0873 0.07673,-0.13494 0.08837,-0.31962 0.02275,-0.36116 0.09869,-0.5334 0.221721,-0.50112 0.07937,0.0206 0.09022,0.072 0.03916,0.18521 -0.06032,0.13441 -0.059,0.69241 0.0024,0.99721 0.113507,0.56145 0.0056,1.16496 -0.259291,1.45071 -0.07408,0.0796 -0.119857,0.0871 -0.178329,0.0286 z m -3.011753,-1.3298 c -0.08625,-0.0376 -0.122502,-0.0955 -0.09869,-0.15795 0.02223,-0.0579 0.104775,-0.0736 0.208227,-0.0394 0.12991,0.0429 0.248708,0.0132 0.344223,-0.086 0.102923,-0.10636 0.137319,-0.19711 0.137319,-0.36089 0,-0.18838 -0.05477,-0.23363 -0.280988,-0.23363 -0.188912,2.7e-4 -0.314854,0.0273 -0.505089,0.10822 -0.09313,0.0397 -0.126736,0.0712 -0.152665,0.14314 -0.112448,0.31035 -0.475456,0.4617 -0.762,0.31723 -0.10451,-0.0526 -0.116681,-0.0683 -0.116681,-0.14975 0,-0.11642 0.05186,-0.12885 0.212196,-0.0513 0.104245,0.0503 0.132027,0.054 0.219339,0.0278 0.136525,-0.041 0.253471,-0.18018 0.275696,-0.32861 0.05027,-0.33549 -0.140758,-0.44106 -0.595842,-0.32941 -0.325173,0.0796 -0.350837,0.0947 -0.420952,0.24739 -0.07435,0.16192 -0.18706,0.29924 -0.271462,0.33126 -0.146844,0.0558 -0.229659,-0.11483 -0.09763,-0.20135 0.08758,-0.0574 0.180446,-0.21987 0.260615,-0.45535 0.08228,-0.24209 0.08334,-0.29025 0.0063,-0.28363 -0.115887,0.01 -0.149754,-0.004 -0.165894,-0.0688 -0.02646,-0.10557 0.02752,-0.14367 0.202936,-0.14367 0.131498,0 0.1651,0.0103 0.221985,0.0672 0.06932,0.0693 0.06879,0.0624 0.01693,0.28813 l -0.01243,0.0548 0.178594,-0.0466 c 0.207169,-0.054 0.459316,-0.0627 0.586846,-0.0201 0.123295,0.0413 0.254529,0.1725 0.289718,0.28998 0.01641,0.0545 0.03413,0.099 0.03942,0.099 0.0053,0 0.08281,-0.0251 0.172244,-0.0558 0.213783,-0.0733 0.594254,-0.082 0.715963,-0.0161 0.135731,0.0733 0.205316,0.21352 0.204258,0.41169 -0.0016,0.27728 -0.137583,0.51673 -0.357717,0.62997 -0.1143,0.0587 -0.334698,0.0648 -0.454819,0.0127 z m 4.069027,-0.23706 c -0.02037,-0.0246 -0.0254,-0.0661 -0.01349,-0.11113 0.04233,-0.16245 0.04233,-0.3646 5.29e-4,-0.59796 -0.02434,-0.13494 -0.04842,-0.24553 -0.05345,-0.24553 -0.005,0 -0.05186,0.0251 -0.104246,0.0561 l -0.09498,0.0561 -0.0545,-0.0545 c -0.05133,-0.0513 -0.05186,-0.058 -0.01111,-0.12012 0.02381,-0.0362 0.09604,-0.0968 0.160602,-0.13468 0.161661,-0.0947 0.24765,-0.0675 0.29845,0.0945 0.02011,0.0635 0.03916,0.11906 0.04233,0.1233 0.0034,0.004 0.08599,-0.0754 0.183885,-0.17675 0.177535,-0.18415 0.429948,-0.34131 0.545571,-0.34025 0.08043,0.001 0.255323,0.0878 0.321469,0.15981 0.173566,0.18865 0.228864,0.55774 0.116416,0.77496 -0.09631,0.18574 -0.354541,0.33682 -0.540544,0.31565 -0.06641,-0.007 -0.07911,-0.0212 -0.08599,-0.0929 -0.0071,-0.0736 0.0011,-0.0863 0.06535,-0.10054 0.177535,-0.0394 0.245533,-0.0725 0.318029,-0.15505 0.103188,-0.11747 0.121444,-0.21669 0.0717,-0.38814 -0.127264,-0.43709 -0.443177,-0.34925 -0.902494,0.25083 -0.02434,0.032 -0.03387,0.11562 -0.03043,0.27014 0.0053,0.24685 -0.02884,0.38973 -0.102923,0.42915 -0.06588,0.0354 -0.09208,0.0328 -0.130175,-0.013 z m 1.710796,-0.54452 c -0.02725,-0.0712 0,-0.13414 0.07408,-0.1696 0.05609,-0.0267 0.0717,-0.0524 0.0717,-0.11879 0,-0.15822 -0.159279,-0.67099 -0.208227,-0.67099 -0.01058,0 -0.04101,0.0243 -0.06747,0.0537 -0.06482,0.0714 -0.178858,0.0595 -0.190236,-0.0196 -0.01746,-0.1225 0.199232,-0.31088 0.335492,-0.29157 0.04683,0.007 0.08017,0.041 0.120121,0.12409 l 0.05503,0.11483 0.117211,-0.18018 c 0.274902,-0.42307 0.540808,-0.57044 0.773377,-0.42862 0.0471,0.0286 0.08943,0.0521 0.09419,0.0521 0.0048,0 0.04657,-0.0746 0.09287,-0.16616 0.105569,-0.2077 0.284956,-0.41487 0.436034,-0.5035 0.156633,-0.0918 0.264318,-0.0714 0.414072,0.0783 0.133086,0.13308 0.197644,0.30374 0.197644,0.52255 v 0.15716 l 0.07964,-0.0762 c 0.04366,-0.0418 0.09948,-0.13335 0.124089,-0.20346 0.0508,-0.14447 0.109802,-0.19077 0.188644,-0.1487 0.12621,0.0675 10e-4,0.36724 -0.247381,0.59399 -0.26379,0.24051 -1.104106,0.74242 -1.862667,1.11231 -0.391054,0.19076 -0.570177,0.2413 -0.598223,0.16827 z m 0.712788,-0.46619 c 0.25691,-0.13679 0.313002,-0.17833 0.377296,-0.27967 0.05715,-0.0902 0.07541,-0.15055 0.07541,-0.2495 0,-0.17515 -0.08467,-0.3474 -0.197115,-0.40111 -0.08017,-0.0381 -0.09181,-0.0376 -0.173302,0.0101 -0.111125,0.0648 -0.296862,0.29527 -0.411956,0.51091 l -0.08969,0.16774 0.0344,0.20109 c 0.01905,0.11059 0.04551,0.20108 0.059,0.20108 0.01323,0 0.160073,-0.0722 0.325967,-0.1606 z m 1.0541,-0.58658 c 0.20955,-0.13203 0.339989,-0.3347 0.339725,-0.52679 -2.65e-4,-0.22278 -0.125413,-0.45191 -0.246856,-0.45191 -0.09499,0 -0.315119,0.25559 -0.434711,0.50483 -0.08996,0.18706 -0.101071,0.2286 -0.07752,0.28998 0.01482,0.0394 0.02725,0.14817 0.02725,0.24183 v 0.17013 l 0.150284,-0.0852 c 0.08255,-0.0468 0.191558,-0.11112 0.241828,-0.14287 z m -10.263452,0.8964 c -0.320675,-0.13096 -1.018646,-0.57414 -1.647296,-1.04642 -0.533929,-0.40058 -0.612246,-0.48128 -0.565944,-0.58262 0.03387,-0.0743 0.121179,-0.0831 0.191823,-0.019 0.04604,0.0415 0.05397,0.0384 0.153988,-0.0587 0.09498,-0.0929 0.381,-0.5043 0.359568,-0.51779 -0.0048,-0.003 -0.04286,-0.0167 -0.0844,-0.0307 -0.09922,-0.0328 -0.143139,-0.10081 -0.104775,-0.16219 0.04154,-0.0661 0.148167,-0.0699 0.284163,-0.01 0.165894,0.0736 0.19341,0.15398 0.105833,0.31035 -0.03625,0.0648 -0.06588,0.12039 -0.06588,0.12356 0,0.003 0.103187,0.0132 0.228865,0.022 0.187325,0.013 0.259556,0.0315 0.398727,0.10187 0.140229,0.0709 0.180445,0.10663 0.228864,0.20267 0.03466,0.0685 0.05874,0.16457 0.05874,0.2323 v 0.11536 l 0.103452,-0.0164 c 0.288396,-0.0463 0.723635,0.0984 0.81571,0.27093 0.136261,0.25585 -0.02805,0.66463 -0.328612,0.81756 l -0.0762,0.0386 0.09975,0.0331 c 0.05821,0.0191 0.161395,0.0273 0.248179,0.0193 0.172773,-0.0156 0.236008,0.0109 0.236008,0.0992 0,0.16166 -0.315119,0.1897 -0.640556,0.0569 z m -0.0061,-0.42545 c 0.09737,-0.0233 0.275167,-0.22992 0.296863,-0.34501 0.03069,-0.16378 -0.0095,-0.22146 -0.199496,-0.28787 -0.13679,-0.0481 -0.211931,-0.0577 -0.38735,-0.0505 l -0.217487,0.009 -0.09631,0.10768 c -0.05292,0.0593 -0.135202,0.13071 -0.183091,0.15849 l -0.08705,0.0508 0.217752,0.14287 c 0.319616,0.20955 0.441854,0.26379 0.544512,0.24051 0.0217,-0.005 0.0717,-0.0167 0.111654,-0.0262 z m -0.86651,-0.62759 c 0.08334,-0.0431 0.205052,-0.26194 0.205581,-0.36962 7.94e-4,-0.20399 -0.175154,-0.30004 -0.581818,-0.31671 -0.275961,-0.0114 -0.285486,-0.0101 -0.327819,0.0505 -0.02408,0.0341 -0.08096,0.10372 -0.126736,0.15452 l -0.08334,0.0921 0.261143,0.19553 c 0.143405,0.10742 0.280723,0.20346 0.3048,0.21325 0.08043,0.0326 0.267759,0.022 0.348192,-0.0196 z m 7.049294,0.4953 c -0.0725,-0.0722 0.120914,-0.47836 0.34237,-0.71887 0.165894,-0.18045 0.276225,-0.22728 0.428096,-0.18177 0.199496,0.0598 0.256117,0.26935 0.140229,0.51832 -0.06641,0.14208 -0.08758,0.15557 -0.172772,0.11007 -0.06165,-0.0331 -0.06324,-0.0812 -0.0082,-0.22596 0.05186,-0.13573 0.0344,-0.19156 -0.05953,-0.19156 -0.100541,0 -0.249502,0.1704 -0.401373,0.45853 -0.09816,0.18626 -0.136789,0.236 -0.18706,0.24235 -0.03466,0.004 -0.07144,-7.9e-4 -0.08176,-0.0111 z m -3.873765,-0.0508 c -0.09128,-0.0913 -0.06985,-0.11641 0.318294,-0.37306 0.316971,-0.20929 0.405606,-0.23125 0.420158,-0.10345 0.0069,0.0593 -0.01402,0.0868 -0.129381,0.16986 -0.177271,0.12753 -0.524669,0.34766 -0.54901,0.34766 -0.01058,0 -0.03731,-0.0185 -0.06006,-0.041 z m 6.811433,-1.10834 c -0.02963,-0.0294 -0.05371,-0.0717 -0.05371,-0.0939 0,-0.0466 0.114035,-0.16881 0.157427,-0.16881 0.07091,0 0.130175,0.0577 0.130175,0.12674 0,0.14711 -0.141023,0.22913 -0.233892,0.13599 z m -9.2583,-0.21034 c -0.068,-0.0683 -0.06668,-0.17013 0.0032,-0.21881 0.07012,-0.0492 0.153723,-0.0212 0.204788,0.0688 0.08599,0.15081 -0.08414,0.27358 -0.207963,0.15002 z m 9.709944,-0.0947 c -0.03995,-0.0611 -0.04075,-0.0754 -0.0061,-0.13679 0.04895,-0.0873 0.16166,-0.13071 0.218281,-0.0836 0.09393,0.0778 0.0095,0.28893 -0.115623,0.28893 -0.02831,0 -0.0717,-0.0307 -0.09657,-0.0685 z m -0.380471,-0.1823 c -0.04339,-0.0952 0.01852,-0.20346 0.123032,-0.21564 0.133614,-0.0153 0.191822,0.13124 0.09207,0.23099 -0.07541,0.0754 -0.177007,0.0683 -0.215107,-0.0154 z m 0.267229,-3.76476 c -0.179652,-0.12303 -0.609864,-0.3929 -0.955939,-0.60007 -0.594783,-0.35613 -0.769144,-0.48313 -0.864129,-0.62786 -0.04974,-0.0759 -0.02778,-0.16033 0.04789,-0.18441 0.04471,-0.014 0.07805,0.009 0.170921,0.11641 0.0635,0.0738 0.123296,0.13415 0.132821,0.13415 0.0095,0 0.01323,-0.0825 0.0085,-0.18336 -0.01826,-0.38946 0.22225,-0.61621 0.509323,-0.48022 0.128852,0.0611 0.3302,0.25003 0.425979,0.39926 l 0.08228,0.12832 0.101865,-0.04 c 0.186796,-0.0733 0.358246,0.002 0.537898,0.23733 0.05106,0.0669 0.12065,0.18151 0.154516,0.25506 l 0.06191,0.13335 0.04445,-0.068 c 0.068,-0.10371 0.19341,-0.0942 0.296069,0.0228 0.07937,0.0905 0.129645,0.24632 0.09657,0.2995 -0.03201,0.0521 -0.139964,0.0294 -0.195527,-0.0413 -0.03016,-0.0384 -0.05874,-0.0648 -0.06376,-0.059 -0.0053,0.006 -0.05794,0.0998 -0.117475,0.20902 -0.112713,0.2069 -0.135202,0.3347 -0.06879,0.38999 0.0672,0.0556 -0.225425,0.0818 -0.405342,-0.041 z m 0.208492,-0.3167 c 0.06324,-0.14261 0.05212,-0.19791 -0.09737,-0.48604 -0.109537,-0.2114 -0.243152,-0.33946 -0.341047,-0.32809 -0.09419,0.0111 -0.168275,0.14579 -0.168275,0.30533 0,0.14182 0.04604,0.24607 0.153987,0.34846 0.08281,0.0788 0.351631,0.27702 0.380471,0.28046 0.01005,0.001 0.0426,-0.0529 0.07223,-0.12012 z m -0.8636,-0.90011 c -0.108214,-0.2122 -0.337873,-0.41567 -0.469371,-0.41567 -0.105304,0 -0.162454,0.23839 -0.100541,0.42096 0.05292,0.15557 0.122237,0.22569 0.356129,0.36009 l 0.228335,0.13124 0.02011,-0.19474 c 0.01746,-0.17065 0.01323,-0.20822 -0.03466,-0.30188 z m -9.823979,1.32265 c -0.03228,-0.023 -0.05874,-0.058 -0.05874,-0.0775 0,-0.0606 0.07805,-0.11826 0.159808,-0.11826 0.07144,0 0.232304,-0.0635 0.232304,-0.0916 0,-0.007 -0.04419,-0.0344 -0.09816,-0.0622 -0.328084,-0.16827 -0.403754,-0.59769 -0.138642,-0.78634 0.138906,-0.099 0.313267,-0.16087 0.496094,-0.17621 l 0.179387,-0.0151 0.01402,-0.10531 c 0.03598,-0.26908 0.343165,-0.43815 0.731838,-0.40296 l 0.152929,0.014 -0.0172,-0.10134 c -0.02222,-0.13176 -7.94e-4,-0.19315 0.08043,-0.23019 0.08229,-0.0373 0.259556,-0.0392 0.326761,-0.003 0.110066,0.0587 0.0418,0.18204 -0.100542,0.18204 -0.08572,0 -0.08784,0.002 -0.07064,0.0849 0.0098,0.0468 0.06059,0.17303 0.113242,0.28072 0.09499,0.19473 0.09604,0.19579 0.200025,0.19606 0.09842,5.3e-4 0.104775,0.005 0.104775,0.0781 0,0.0717 -0.02275,0.0902 -0.305858,0.24844 -0.42254,0.23601 -1.191419,0.71808 -1.404144,0.88001 -0.214577,0.16351 -0.298186,0.20769 -0.434181,0.22992 -0.07567,0.0124 -0.12118,0.006 -0.163513,-0.0243 z m 0.561975,-0.50747 c 0.0463,-0.0132 0.184415,-0.091 0.306917,-0.17251 0.207168,-0.13785 0.264583,-0.19553 0.193675,-0.19553 -0.01588,0 -0.08255,-0.0545 -0.148167,-0.12091 l -0.119062,-0.12092 -0.165894,0.0172 c -0.425186,0.0434 -0.596106,0.24633 -0.397934,0.47202 0.04445,0.0508 0.118005,0.10318 0.163248,0.11615 0.04551,0.0132 0.08255,0.0251 0.08255,0.0262 2.65e-4,0.001 0.0381,-0.008 0.08467,-0.0217 z m 1.06971,-0.64585 c 0.127265,-0.0664 0.241036,-0.12965 0.252942,-0.1405 0.01191,-0.0108 -0.0085,-0.0796 -0.04551,-0.15266 -0.07144,-0.14129 -0.05133,-0.13097 -0.350309,-0.17701 -0.132291,-0.0204 -0.369622,0.0384 -0.440266,0.10875 -0.157163,0.15716 0.01349,0.48233 0.253471,0.48233 0.06615,0 0.173831,-0.0394 0.32967,-0.12091 z m 2.854325,0.30956 c -0.203729,-0.22542 -0.316706,-0.58182 -0.360362,-1.1348 -0.02725,-0.34237 -0.0852,-0.55694 -0.184679,-0.68368 -0.06085,-0.077 -0.06615,-0.15584 -0.01349,-0.1995 0.09737,-0.081 0.232569,0.0709 0.3302,0.37095 0.05159,0.15875 0.07012,0.18441 0.186002,0.25876 0.102394,0.0656 0.164836,0.0849 0.306388,0.095 0.216429,0.0156 0.343958,-0.0222 0.433123,-0.12806 0.138641,-0.16484 0.04895,-0.37068 -0.192617,-0.44318 -0.08811,-0.0265 -0.128852,-0.0265 -0.199761,-0.001 -0.191822,0.0696 -0.278341,-0.10742 -0.09895,-0.20187 0.08625,-0.0453 0.321204,-0.0352 0.439738,0.0188 0.121708,0.0553 0.291835,0.23363 0.316441,0.33126 0.05741,0.22887 -0.06959,0.47625 -0.298714,0.58208 -0.226748,0.10451 -0.468313,0.0939 -0.77179,-0.0341 -0.04524,-0.019 -0.0471,-0.009 -0.03043,0.15981 0.03836,0.38629 0.147638,0.69691 0.314325,0.89509 0.08705,0.10345 0.0799,0.19711 -0.01587,0.20822 -0.0508,0.006 -0.09022,-0.0172 -0.159544,-0.0937 z m 3.8227,-0.47625 c -0.05556,-0.0556 -0.06482,-0.12091 -0.0553,-0.39238 l 0.0058,-0.16986 -0.143668,-0.15954 c -0.0844,-0.0937 -0.20373,-0.19077 -0.288925,-0.23522 -0.137055,-0.0717 -0.14949,-0.0736 -0.217223,-0.036 -0.21643,0.12065 -0.08837,0.57441 0.161925,0.57441 0.106098,0 0.195527,0.0865 0.155575,0.15028 -0.05318,0.0841 -0.106363,0.0984 -0.237596,0.0632 -0.06853,-0.0183 -0.161661,-0.0614 -0.20664,-0.0958 -0.106098,-0.081 -0.193675,-0.26908 -0.193675,-0.41593 0,-0.10503 -0.01138,-0.12541 -0.124354,-0.22516 -0.154781,-0.13652 -0.287073,-0.20505 -0.434181,-0.22542 -0.09948,-0.0135 -0.119592,-0.008 -0.156898,0.0455 -0.09102,0.13017 -0.01905,0.41592 0.123825,0.49239 0.03678,0.0198 0.110067,0.0429 0.162983,0.0516 0.113771,0.0185 0.168011,0.0844 0.125148,0.15293 -0.06773,0.10795 -0.352425,0.0484 -0.501121,-0.10504 -0.199495,-0.20585 -0.217752,-0.57917 -0.03784,-0.78422 0.124619,-0.14209 0.429154,-0.0961 0.729192,0.11059 0.163247,0.11245 0.191558,0.12383 0.220397,0.0892 0.05583,-0.0675 0.173038,-0.11457 0.284692,-0.11457 0.140494,0 0.322792,0.0947 0.507471,0.26353 0.08176,0.0746 0.151077,0.13097 0.153987,0.12567 0.0032,-0.006 0.02381,-0.0455 0.04577,-0.0886 0.05424,-0.1061 0.156369,-0.11642 0.282575,-0.0288 0.116417,0.081 0.168805,0.15981 0.148167,0.22437 -0.02355,0.0743 -0.09022,0.0852 -0.18415,0.0296 l -0.08546,-0.0503 -0.03334,0.12171 c -0.01852,0.0669 -0.0344,0.23706 -0.03572,0.37809 -0.0016,0.19605 -0.01138,0.26193 -0.04101,0.28072 -0.05556,0.0349 -0.0717,0.0317 -0.13044,-0.027 z m -8.114241,-0.16087 c -0.06668,-0.0373 -0.05397,-0.14155 0.02487,-0.20346 0.08811,-0.0693 0.156633,-0.0688 0.194204,10e-4 0.0545,0.10213 -0.116152,0.25956 -0.219075,0.20214 z m 2.397389,-0.023 c -0.107156,-0.0331 -0.26035,-0.20453 -0.295539,-0.33073 -0.07038,-0.25374 0.0087,-0.49901 0.194204,-0.60272 0.147108,-0.0823 0.448733,-0.081 0.710406,0.003 0.05265,0.0169 0.05556,0.0114 0.0426,-0.0844 -0.02408,-0.18097 0.102658,-0.25135 0.336021,-0.18653 0.117475,0.0325 0.162983,0.0839 0.1397,0.15743 -0.01535,0.0484 -0.03387,0.0548 -0.135731,0.0466 l -0.118004,-0.009 0.01534,0.13123 c 0.02355,0.20055 0.08916,0.39476 0.162984,0.48233 0.07064,0.0839 0.06826,0.16696 -0.0056,0.19527 -0.09472,0.0365 -0.22225,-0.10213 -0.289189,-0.31406 -0.04233,-0.13494 -0.05001,-0.14314 -0.189971,-0.19659 -0.0799,-0.0304 -0.230187,-0.0614 -0.33364,-0.0688 -0.18415,-0.0127 -0.190235,-0.0111 -0.271197,0.0699 -0.07646,0.0762 -0.08202,0.0939 -0.07038,0.21458 0.02302,0.23971 0.180182,0.35374 0.375444,0.27199 0.05239,-0.022 0.116946,-0.0397 0.143404,-0.0397 0.05794,0 0.108479,0.0841 0.08599,0.14288 -0.03863,0.10054 -0.328877,0.16933 -0.496888,0.11774 z m -1.925108,-0.28893 c -0.11086,-0.0646 -0.01693,-0.23336 0.12991,-0.23336 0.134673,0 0.135467,0.127 0.0013,0.22093 -0.0672,0.0474 -0.07091,0.0476 -0.131233,0.0124 z m -0.379148,-0.0937 c -0.0598,-0.0241 -0.03757,-0.15822 0.03625,-0.21617 0.08255,-0.0648 0.122767,-0.068 0.177535,-0.013 0.05741,0.0572 0.05212,0.0825 -0.03519,0.16986 -0.07435,0.0744 -0.110861,0.0865 -0.178594,0.0593 z m 9.917113,-0.013 c -0.127265,-0.0693 -0.155575,-0.18891 -0.05609,-0.23442 0.130969,-0.0595 0.312208,0.12171 0.225689,0.22569 -0.03784,0.0458 -0.09684,0.0487 -0.169597,0.009 z m -2.677319,-0.87788 c -0.04233,-0.04 -0.161131,-0.17119 -0.26379,-0.2921 -0.143404,-0.16907 -0.184679,-0.23548 -0.178594,-0.28761 0.0056,-0.0484 0.0254,-0.0706 0.06879,-0.0767 0.07567,-0.0106 0.119856,0.0281 0.361421,0.31698 0.201612,0.2413 0.235479,0.33337 0.140758,0.38417 -0.04207,0.0225 -0.06562,0.0143 -0.128587,-0.0447 z m -4.644496,-0.0852 c -0.0889,-0.0585 -0.169862,-0.19262 -0.169862,-0.28152 0,-0.0328 0.0381,-0.10107 0.08493,-0.15213 0.196056,-0.21326 0.538691,-0.16246 0.920221,0.13705 0.12356,0.0968 0.147108,0.12833 0.140229,0.1868 -0.01296,0.11403 -0.116152,0.10636 -0.274902,-0.0201 -0.242359,-0.19288 -0.500857,-0.26432 -0.623623,-0.17224 -0.04895,0.0365 -0.04657,0.0421 0.06191,0.14234 0.0979,0.0905 0.109009,0.11139 0.08414,0.15796 -0.03625,0.0677 -0.121709,0.0685 -0.223044,0.002 z"
       style="clip-rule:evenodd;fill:#ffffff;fill-rule:nonzero;stroke-width:0.264583;stroke-linejoin:round;stroke-miterlimit:2"
       id="path6" />
  </g>
</svg>
