<?xml version="1.0" encoding="UTF-8" standalone="no"?>
<!-- Created with Inkscape (http://www.inkscape.org/) -->

<svg
   width="23.639877mm"
   height="15.507096mm"
   viewBox="0 0 23.639877 15.507096"
   version="1.1"
   id="svg1"
   inkscape:version="1.3.2 (091e20ef0f, 2023-11-25, custom)"
   sodipodi:docname="M.svg"
   xmlns:inkscape="http://www.inkscape.org/namespaces/inkscape"
   xmlns:sodipodi="http://sodipodi.sourceforge.net/DTD/sodipodi-0.dtd"
   xmlns="http://www.w3.org/2000/svg"
   xmlns:svg="http://www.w3.org/2000/svg"
   xmlns:serif="http://www.serif.com/">
  <sodipodi:namedview
     id="namedview1"
     pagecolor="#ffffff"
     bordercolor="#666666"
     borderopacity="1.0"
     inkscape:showpageshadow="2"
     inkscape:pageopacity="0.0"
     inkscape:pagecheckerboard="0"
     inkscape:deskcolor="#d1d1d1"
     inkscape:document-units="mm"
     inkscape:zoom="0.2102413"
     inkscape:cx="152.20606"
     inkscape:cy="57.077272"
     inkscape:window-width="1274"
     inkscape:window-height="349"
     inkscape:window-x="1920"
     inkscape:window-y="1063"
     inkscape:window-maximized="1"
     inkscape:current-layer="layer1" />
  <defs
     id="defs1">
    <linearGradient
       id="_Linear1"
       x1="0"
       y1="0"
       x2="1"
       y2="0"
       gradientUnits="userSpaceOnUse"
       gradientTransform="matrix(7.15198,-7.16675,7.16675,7.15198,13.9625,74.1929)">
      <stop
         offset="0"
         style="stop-color:#bb2c26;stop-opacity:1"
         id="stop6" />
      <stop
         offset="0.04"
         style="stop-color:#bf3526;stop-opacity:1"
         id="stop7" />
      <stop
         offset="0.11"
         style="stop-color:#cb4d25;stop-opacity:1"
         id="stop8" />
      <stop
         offset="0.19"
         style="stop-color:#de7523;stop-opacity:1"
         id="stop9" />
      <stop
         offset="0.21"
         style="stop-color:#e17a23;stop-opacity:1"
         id="stop10" />
      <stop
         offset="0.29"
         style="stop-color:#ee8b1f;stop-opacity:1"
         id="stop11" />
      <stop
         offset="0.38"
         style="stop-color:#f5951e;stop-opacity:1"
         id="stop12" />
      <stop
         offset="0.5"
         style="stop-color:#ff9915;stop-opacity:1"
         id="stop13" />
      <stop
         offset="0.62"
         style="stop-color:#f5951e;stop-opacity:1"
         id="stop14" />
      <stop
         offset="0.71"
         style="stop-color:#ee8b1f;stop-opacity:1"
         id="stop15" />
      <stop
         offset="0.79"
         style="stop-color:#e17a23;stop-opacity:1"
         id="stop16" />
      <stop
         offset="0.8"
         style="stop-color:#e07823;stop-opacity:1"
         id="stop17" />
      <stop
         offset="0.85"
         style="stop-color:#d35d24;stop-opacity:1"
         id="stop18" />
      <stop
         offset="0.91"
         style="stop-color:#c64225;stop-opacity:1"
         id="stop19" />
      <stop
         offset="0.96"
         style="stop-color:#be3226;stop-opacity:1"
         id="stop20" />
      <stop
         offset="1"
         style="stop-color:#bb2c26;stop-opacity:1"
         id="stop21" />
    </linearGradient>
    <linearGradient
       id="_Linear2"
       x1="0"
       y1="0"
       x2="1"
       y2="0"
       gradientUnits="userSpaceOnUse"
       gradientTransform="matrix(64.8794,-31.3462,31.3462,64.8794,17.7015,64.1223)">
      <stop
         offset="0"
         style="stop-color:#bb2c26;stop-opacity:1"
         id="stop22" />
      <stop
         offset="0.04"
         style="stop-color:#bf3526;stop-opacity:1"
         id="stop23" />
      <stop
         offset="0.11"
         style="stop-color:#cb4d25;stop-opacity:1"
         id="stop24" />
      <stop
         offset="0.19"
         style="stop-color:#de7523;stop-opacity:1"
         id="stop25" />
      <stop
         offset="0.21"
         style="stop-color:#e17a23;stop-opacity:1"
         id="stop26" />
      <stop
         offset="0.29"
         style="stop-color:#ee8b1f;stop-opacity:1"
         id="stop27" />
      <stop
         offset="0.38"
         style="stop-color:#f5951e;stop-opacity:1"
         id="stop28" />
      <stop
         offset="0.5"
         style="stop-color:#ff9915;stop-opacity:1"
         id="stop29" />
      <stop
         offset="0.62"
         style="stop-color:#f5951e;stop-opacity:1"
         id="stop30" />
      <stop
         offset="0.71"
         style="stop-color:#ee8b1f;stop-opacity:1"
         id="stop31" />
      <stop
         offset="0.79"
         style="stop-color:#e17a23;stop-opacity:1"
         id="stop32" />
      <stop
         offset="0.8"
         style="stop-color:#e07823;stop-opacity:1"
         id="stop33" />
      <stop
         offset="0.85"
         style="stop-color:#d35d24;stop-opacity:1"
         id="stop34" />
      <stop
         offset="0.91"
         style="stop-color:#c64225;stop-opacity:1"
         id="stop35" />
      <stop
         offset="0.96"
         style="stop-color:#be3226;stop-opacity:1"
         id="stop36" />
      <stop
         offset="1"
         style="stop-color:#bb2c26;stop-opacity:1"
         id="stop37" />
    </linearGradient>
    <linearGradient
       id="_Linear3"
       x1="0"
       y1="0"
       x2="1"
       y2="0"
       gradientUnits="userSpaceOnUse"
       gradientTransform="matrix(52.7388,-32.2924,32.2924,52.7388,19.6413,58.3188)">
      <stop
         offset="0"
         style="stop-color:#bb2c26;stop-opacity:1"
         id="stop38" />
      <stop
         offset="0.04"
         style="stop-color:#bf3526;stop-opacity:1"
         id="stop39" />
      <stop
         offset="0.11"
         style="stop-color:#cb4d25;stop-opacity:1"
         id="stop40" />
      <stop
         offset="0.19"
         style="stop-color:#de7523;stop-opacity:1"
         id="stop41" />
      <stop
         offset="0.21"
         style="stop-color:#e17a23;stop-opacity:1"
         id="stop42" />
      <stop
         offset="0.29"
         style="stop-color:#ee8b1f;stop-opacity:1"
         id="stop43" />
      <stop
         offset="0.38"
         style="stop-color:#f5951e;stop-opacity:1"
         id="stop44" />
      <stop
         offset="0.5"
         style="stop-color:#ff9915;stop-opacity:1"
         id="stop45" />
      <stop
         offset="0.62"
         style="stop-color:#f5951e;stop-opacity:1"
         id="stop46" />
      <stop
         offset="0.85"
         style="stop-color:#d35d24;stop-opacity:1"
         id="stop47" />
      <stop
         offset="0.91"
         style="stop-color:#c64225;stop-opacity:1"
         id="stop48" />
      <stop
         offset="0.96"
         style="stop-color:#be3226;stop-opacity:1"
         id="stop49" />
      <stop
         offset="1"
         style="stop-color:#bb2c26;stop-opacity:1"
         id="stop50" />
    </linearGradient>
  </defs>
  <g
     inkscape:label="Layer 1"
     inkscape:groupmode="layer"
     id="layer1"
     transform="translate(-63.764583,-133.08541)">
    <g
       id="Mythic1"
       serif:id="Mythic"
       style="clip-rule:evenodd;fill-rule:evenodd;stroke-linejoin:round;stroke-miterlimit:2"
       transform="matrix(0.26458333,0,0,0.26458333,63.663323,128.96241)">
      <path
         d="m 85.877,24.467 c 1.404,0 2.696,0.763 3.374,1.993 0.678,1.229 0.634,2.729 -0.115,3.916 -10e-4,0.003 -0.003,0.005 -0.004,0.007 -11.36,17.891 -26.416,32.329 -42.513,43.31 -0.976,0.666 -2.262,0.666 -3.238,0 C 27.283,62.711 12.335,48.274 0.981,30.383 0.98,30.38 0.979,30.378 0.977,30.376 0.228,29.189 0.184,27.688 0.862,26.459 1.54,25.23 2.833,24.467 4.236,24.467 Z"
         id="path1" />
      <path
         d="m 85.877,27.34 c 0.357,0 0.686,0.194 0.858,0.507 0.173,0.313 0.162,0.694 -0.029,0.996 C 75.564,46.392 60.79,60.548 45,71.32 29.21,60.548 14.544,46.392 3.407,28.843 3.217,28.541 3.206,28.16 3.378,27.847 3.551,27.534 3.879,27.34 4.236,27.34 Z"
         style="fill:url(#_Linear1)"
         id="path2" />
      <path
         d="m 45,15.583 c 10.652,0 20.302,2.646 27.698,10.313 2.681,2.779 4.756,7.7 4.756,15.451 0,0 0.108,6.166 -1.73,9.462 C 70.315,60.507 59.336,67.026 45,67.026 c -14.336,0 -25.315,-6.519 -30.724,-16.217 -1.838,-3.296 -1.73,-9.462 -1.73,-9.462 0,-7.751 2.075,-12.672 4.756,-15.451 C 24.698,18.229 34.348,15.583 45,15.583 Z M 63.33,41.716 C 56.397,35.455 50.61,33.371 45,33.371 c -5.71,0 -11.72,1.596 -18.83,8.075 6.539,3.607 15.033,4.993 18.83,4.993 3.701,0 11.864,-1.317 18.33,-4.723 z"
         id="path3" />
      <path
         d="m 45,48.781 c 7.01,0 29.113,-4.448 29.113,-18.022 2.257,5.301 2.475,13.767 0.938,17.516 C 71.367,57.261 59.625,65.129 45,65.129 30.375,65.129 18.633,57.261 14.949,48.275 13.412,44.526 13.63,36.06 15.887,30.759 15.887,44.333 37.99,48.781 45,48.781 Z"
         style="fill:url(#_Linear2)"
         id="path4" />
      <path
         d="m 45,31.029 c -6.462,0 -13.312,1.823 -21.48,9.691 -2.313,-1.783 -5.819,-4.428 -5.819,-8.343 0,-3.915 3.127,-7.647 5.946,-9.362 4.506,-2.74 10.037,-5.531 21.353,-5.531 11.316,0 16.929,3.399 21.434,6.14 2.82,1.715 5.946,5.446 5.946,9.361 0,3.915 -3.701,6.579 -6.014,8.362 C 58.198,33.478 51.462,31.029 45,31.029 Z"
         style="fill:url(#_Linear3)"
         id="path5" />
      <path
         d="m 49.7,63.977 c -0.204,-0.204 -0.208,-0.19 0.183,-0.779 0.731,-1.102 1.014,-2.749 0.751,-4.38 -0.173,-1.072 -0.174,-1.073 -0.534,-0.732 -0.17,0.161 -0.486,0.381 -0.704,0.488 -1.533,0.756 -3.209,0.416 -3.838,-0.778 -0.701,-1.331 0.067,-2.84 1.686,-3.31 0.454,-0.132 0.589,-0.135 0.946,-0.023 0.31,0.099 0.424,0.19 0.448,0.36 0.054,0.381 -0.137,0.509 -0.667,0.446 -0.587,-0.069 -1.052,0.134 -1.537,0.671 -0.284,0.314 -0.348,0.463 -0.348,0.805 0.001,1.085 1.008,1.652 2.322,1.308 0.728,-0.191 1.247,-0.523 1.617,-1.034 0.24,-0.33 0.29,-0.51 0.334,-1.208 0.086,-1.365 0.373,-2.016 0.838,-1.894 0.301,0.078 0.341,0.272 0.148,0.7 -0.228,0.508 -0.223,2.617 0.009,3.769 0.429,2.122 0.021,4.403 -0.98,5.483 -0.28,0.301 -0.453,0.329 -0.674,0.108 z M 38.317,58.951 c -0.326,-0.142 -0.463,-0.361 -0.373,-0.597 0.084,-0.219 0.396,-0.278 0.787,-0.149 0.491,0.162 0.94,0.05 1.301,-0.325 0.389,-0.402 0.519,-0.745 0.519,-1.364 0,-0.712 -0.207,-0.883 -1.062,-0.883 -0.714,10e-4 -1.19,0.103 -1.909,0.409 -0.352,0.15 -0.479,0.269 -0.577,0.541 -0.425,1.173 -1.797,1.745 -2.88,1.199 -0.395,-0.199 -0.441,-0.258 -0.441,-0.566 0,-0.44 0.196,-0.487 0.802,-0.194 0.394,0.19 0.499,0.204 0.829,0.105 0.516,-0.155 0.958,-0.681 1.042,-1.242 0.19,-1.268 -0.532,-1.667 -2.252,-1.245 -1.229,0.301 -1.326,0.358 -1.591,0.935 -0.281,0.612 -0.707,1.131 -1.026,1.252 -0.555,0.211 -0.868,-0.434 -0.369,-0.761 0.331,-0.217 0.682,-0.831 0.985,-1.721 0.311,-0.915 0.315,-1.097 0.024,-1.072 -0.438,0.037 -0.566,-0.016 -0.627,-0.26 -0.1,-0.399 0.104,-0.543 0.767,-0.543 0.497,0 0.624,0.039 0.839,0.254 0.262,0.262 0.26,0.236 0.064,1.089 l -0.047,0.207 0.675,-0.176 c 0.783,-0.204 1.736,-0.237 2.218,-0.076 0.466,0.156 0.962,0.652 1.095,1.096 0.062,0.206 0.129,0.374 0.149,0.374 0.02,0 0.313,-0.095 0.651,-0.211 0.808,-0.277 2.246,-0.31 2.706,-0.061 0.513,0.277 0.776,0.807 0.772,1.556 -0.006,1.048 -0.52,1.953 -1.352,2.381 -0.432,0.222 -1.264,0.245 -1.719,0.048 z m 15.379,-0.896 c -0.077,-0.093 -0.096,-0.25 -0.051,-0.42 0.16,-0.614 0.16,-1.378 0.002,-2.26 -0.092,-0.51 -0.183,-0.928 -0.202,-0.928 -0.019,0 -0.196,0.095 -0.394,0.212 l -0.359,0.212 -0.206,-0.206 c -0.194,-0.194 -0.196,-0.219 -0.042,-0.454 0.09,-0.137 0.363,-0.366 0.607,-0.509 0.611,-0.358 0.936,-0.255 1.128,0.357 0.076,0.24 0.148,0.45 0.16,0.466 0.013,0.015 0.325,-0.285 0.695,-0.668 0.671,-0.696 1.625,-1.29 2.062,-1.286 0.304,0.004 0.965,0.332 1.215,0.604 0.656,0.713 0.865,2.108 0.44,2.929 -0.364,0.702 -1.34,1.273 -2.043,1.193 -0.251,-0.028 -0.299,-0.08 -0.325,-0.351 -0.027,-0.278 0.004,-0.326 0.247,-0.38 0.671,-0.149 0.928,-0.274 1.202,-0.586 0.39,-0.444 0.459,-0.819 0.271,-1.467 -0.481,-1.652 -1.674,-1.32 -3.411,0.948 -0.092,0.121 -0.128,0.437 -0.115,1.021 0.02,0.933 -0.109,1.473 -0.389,1.622 -0.249,0.134 -0.348,0.124 -0.492,-0.049 z m 6.466,-2.058 c -0.103,-0.269 0,-0.507 0.28,-0.641 0.212,-0.101 0.271,-0.198 0.271,-0.449 0,-0.598 -0.602,-2.536 -0.787,-2.536 -0.04,0 -0.155,0.092 -0.255,0.203 -0.245,0.27 -0.676,0.225 -0.719,-0.074 -0.066,-0.463 0.753,-1.175 1.268,-1.102 0.177,0.025 0.303,0.155 0.454,0.469 l 0.208,0.434 0.443,-0.681 c 1.039,-1.599 2.044,-2.156 2.923,-1.62 0.178,0.108 0.338,0.197 0.356,0.197 0.018,0 0.176,-0.282 0.351,-0.628 0.399,-0.785 1.077,-1.568 1.648,-1.903 0.592,-0.347 0.999,-0.27 1.565,0.296 0.503,0.503 0.747,1.148 0.747,1.975 v 0.594 l 0.301,-0.288 c 0.165,-0.158 0.376,-0.504 0.469,-0.769 0.192,-0.546 0.415,-0.721 0.713,-0.562 0.477,0.255 0.005,1.388 -0.935,2.245 -0.997,0.909 -4.173,2.806 -7.04,4.204 -1.478,0.721 -2.155,0.912 -2.261,0.636 z m 2.694,-1.762 c 0.971,-0.517 1.183,-0.674 1.426,-1.057 0.216,-0.341 0.285,-0.569 0.285,-0.943 0,-0.662 -0.32,-1.313 -0.745,-1.516 -0.303,-0.144 -0.347,-0.142 -0.655,0.038 -0.42,0.245 -1.122,1.116 -1.557,1.931 l -0.339,0.634 0.13,0.76 c 0.072,0.418 0.172,0.76 0.223,0.76 0.05,0 0.605,-0.273 1.232,-0.607 z m 3.984,-2.217 c 0.792,-0.499 1.285,-1.265 1.284,-1.991 -10e-4,-0.842 -0.474,-1.708 -0.933,-1.708 -0.359,0 -1.191,0.966 -1.643,1.908 -0.34,0.707 -0.382,0.864 -0.293,1.096 0.056,0.149 0.103,0.56 0.103,0.914 v 0.643 l 0.568,-0.322 c 0.312,-0.177 0.724,-0.42 0.914,-0.54 z m -38.791,3.388 c -1.212,-0.495 -3.85,-2.17 -6.226,-3.955 -2.018,-1.514 -2.314,-1.819 -2.139,-2.202 0.128,-0.281 0.458,-0.314 0.725,-0.072 0.174,0.157 0.204,0.145 0.582,-0.222 0.359,-0.351 1.44,-1.906 1.359,-1.957 -0.018,-0.011 -0.162,-0.063 -0.319,-0.116 -0.375,-0.124 -0.541,-0.381 -0.396,-0.613 0.157,-0.25 0.56,-0.264 1.074,-0.037 0.627,0.278 0.731,0.582 0.4,1.173 -0.137,0.245 -0.249,0.455 -0.249,0.467 0,0.013 0.39,0.05 0.865,0.083 0.708,0.049 0.981,0.119 1.507,0.385 0.53,0.268 0.682,0.403 0.865,0.766 0.131,0.259 0.222,0.622 0.222,0.878 v 0.436 l 0.391,-0.062 c 1.09,-0.175 2.735,0.372 3.083,1.024 0.515,0.967 -0.106,2.512 -1.242,3.09 l -0.288,0.146 0.377,0.125 c 0.22,0.072 0.61,0.103 0.938,0.073 0.653,-0.059 0.892,0.041 0.892,0.375 0,0.611 -1.191,0.717 -2.421,0.215 z m -0.023,-1.608 c 0.368,-0.088 1.04,-0.869 1.122,-1.304 0.116,-0.619 -0.036,-0.837 -0.754,-1.088 -0.517,-0.182 -0.801,-0.218 -1.464,-0.191 l -0.822,0.035 -0.364,0.407 c -0.2,0.224 -0.511,0.494 -0.692,0.599 l -0.329,0.192 0.823,0.54 c 1.208,0.792 1.67,0.997 2.058,0.909 0.082,-0.019 0.271,-0.063 0.422,-0.099 z m -3.275,-2.372 c 0.315,-0.163 0.775,-0.99 0.777,-1.397 0.003,-0.771 -0.662,-1.134 -2.199,-1.197 -1.043,-0.043 -1.079,-0.038 -1.239,0.191 -0.091,0.129 -0.306,0.392 -0.479,0.584 l -0.315,0.348 0.987,0.739 c 0.542,0.406 1.061,0.769 1.152,0.806 0.304,0.123 1.012,0.083 1.316,-0.074 z m 26.643,1.872 c -0.274,-0.273 0.457,-1.808 1.294,-2.717 0.627,-0.682 1.044,-0.859 1.618,-0.687 0.754,0.226 0.968,1.018 0.53,1.959 -0.251,0.537 -0.331,0.588 -0.653,0.416 -0.233,-0.125 -0.239,-0.307 -0.031,-0.854 0.196,-0.513 0.13,-0.724 -0.225,-0.724 -0.379,0 -0.943,0.644 -1.517,1.733 -0.371,0.704 -0.517,0.892 -0.707,0.916 -0.131,0.016 -0.27,-0.003 -0.309,-0.042 z M 36.753,53.106 c -0.345,-0.345 -0.264,-0.44 1.203,-1.41 1.198,-0.791 1.533,-0.874 1.588,-0.391 0.026,0.224 -0.053,0.328 -0.489,0.642 -0.67,0.482 -1.983,1.314 -2.075,1.314 -0.04,0 -0.141,-0.07 -0.227,-0.155 z m 25.744,-4.189 c -0.112,-0.111 -0.203,-0.271 -0.203,-0.355 0,-0.176 0.431,-0.638 0.595,-0.638 0.268,0 0.492,0.218 0.492,0.479 0,0.556 -0.533,0.866 -0.884,0.514 z M 27.505,48.122 c -0.257,-0.258 -0.252,-0.643 0.012,-0.827 0.265,-0.186 0.581,-0.08 0.774,0.26 0.325,0.57 -0.318,1.034 -0.786,0.567 z m 36.699,-0.358 c -0.151,-0.231 -0.154,-0.285 -0.023,-0.517 0.185,-0.33 0.611,-0.494 0.825,-0.316 0.355,0.294 0.036,1.092 -0.437,1.092 -0.107,0 -0.271,-0.116 -0.365,-0.259 z m -1.438,-0.689 c -0.164,-0.36 0.07,-0.769 0.465,-0.815 0.505,-0.058 0.725,0.496 0.348,0.873 -0.285,0.285 -0.669,0.258 -0.813,-0.058 z m 1.01,-14.229 c -0.679,-0.465 -2.305,-1.485 -3.613,-2.268 -2.248,-1.346 -2.907,-1.826 -3.266,-2.373 -0.188,-0.287 -0.105,-0.606 0.181,-0.697 0.169,-0.053 0.295,0.033 0.647,0.44 0.239,0.279 0.465,0.507 0.501,0.507 0.036,0 0.05,-0.312 0.032,-0.693 -0.069,-1.472 0.84,-2.329 1.925,-1.815 0.487,0.231 1.248,0.945 1.61,1.509 l 0.311,0.485 0.385,-0.151 c 0.706,-0.277 1.354,0.009 2.033,0.897 0.193,0.253 0.456,0.686 0.584,0.964 l 0.234,0.504 0.168,-0.257 c 0.257,-0.392 0.731,-0.356 1.119,0.086 0.3,0.342 0.49,0.931 0.365,1.132 -0.121,0.197 -0.529,0.111 -0.739,-0.156 -0.114,-0.145 -0.222,-0.245 -0.241,-0.223 -0.02,0.022 -0.219,0.377 -0.444,0.79 -0.426,0.782 -0.511,1.265 -0.26,1.474 0.254,0.21 -0.852,0.309 -1.532,-0.155 z m 0.788,-1.197 c 0.239,-0.539 0.197,-0.748 -0.368,-1.837 -0.414,-0.799 -0.919,-1.283 -1.289,-1.24 -0.356,0.042 -0.636,0.551 -0.636,1.154 0,0.536 0.174,0.93 0.582,1.317 0.313,0.298 1.329,1.047 1.438,1.06 0.038,0.004 0.161,-0.2 0.273,-0.454 z M 61.3,28.247 c -0.409,-0.802 -1.277,-1.571 -1.774,-1.571 -0.398,0 -0.614,0.901 -0.38,1.591 0.2,0.588 0.462,0.853 1.346,1.361 l 0.863,0.496 0.076,-0.736 c 0.066,-0.645 0.05,-0.787 -0.131,-1.141 z m -37.13,4.999 c -0.122,-0.087 -0.222,-0.219 -0.222,-0.293 0,-0.229 0.295,-0.447 0.604,-0.447 0.27,0 0.878,-0.24 0.878,-0.346 0,-0.025 -0.167,-0.13 -0.371,-0.235 -1.24,-0.636 -1.526,-2.259 -0.524,-2.972 0.525,-0.374 1.184,-0.608 1.875,-0.666 l 0.678,-0.057 0.053,-0.398 c 0.136,-1.017 1.297,-1.656 2.766,-1.523 l 0.578,0.053 -0.065,-0.383 c -0.084,-0.498 -0.003,-0.73 0.304,-0.87 0.311,-0.141 0.981,-0.148 1.235,-0.011 0.416,0.222 0.158,0.688 -0.38,0.688 -0.324,0 -0.332,0.009 -0.267,0.321 0.037,0.177 0.229,0.654 0.428,1.061 0.359,0.736 0.363,0.74 0.756,0.741 0.372,0.002 0.396,0.019 0.396,0.295 0,0.271 -0.086,0.341 -1.156,0.939 -1.597,0.892 -4.503,2.714 -5.307,3.326 -0.811,0.618 -1.127,0.785 -1.641,0.869 -0.286,0.047 -0.458,0.021 -0.618,-0.092 z m 2.124,-1.918 c 0.175,-0.05 0.697,-0.344 1.16,-0.652 0.783,-0.521 1,-0.739 0.732,-0.739 -0.06,0 -0.312,-0.206 -0.56,-0.457 l -0.45,-0.457 -0.627,0.065 c -1.607,0.164 -2.253,0.931 -1.504,1.784 0.168,0.192 0.446,0.39 0.617,0.439 0.172,0.05 0.312,0.095 0.312,0.099 0.001,0.005 0.144,-0.032 0.32,-0.082 z m 4.043,-2.441 c 0.481,-0.251 0.911,-0.49 0.956,-0.531 0.045,-0.041 -0.032,-0.301 -0.172,-0.577 -0.27,-0.534 -0.194,-0.495 -1.324,-0.669 -0.5,-0.077 -1.397,0.145 -1.664,0.411 -0.594,0.594 0.051,1.823 0.958,1.823 0.25,0 0.657,-0.149 1.246,-0.457 z m 10.788,1.17 c -0.77,-0.852 -1.197,-2.199 -1.362,-4.289 -0.103,-1.294 -0.322,-2.105 -0.698,-2.584 -0.23,-0.291 -0.25,-0.589 -0.051,-0.754 0.368,-0.306 0.879,0.268 1.248,1.402 0.195,0.6 0.265,0.697 0.703,0.978 0.387,0.248 0.623,0.321 1.158,0.359 0.818,0.059 1.3,-0.084 1.637,-0.484 0.524,-0.623 0.185,-1.401 -0.728,-1.675 -0.333,-0.1 -0.487,-0.1 -0.754,-0.004 -0.726,0.263 -1.053,-0.406 -0.374,-0.763 0.325,-0.171 1.213,-0.133 1.661,0.071 0.46,0.209 1.103,0.883 1.196,1.252 0.217,0.865 -0.263,1.8 -1.129,2.2 -0.857,0.395 -1.77,0.355 -2.917,-0.129 -0.171,-0.072 -0.178,-0.033 -0.115,0.604 0.145,1.46 0.558,2.634 1.188,3.383 0.329,0.391 0.302,0.745 -0.06,0.787 -0.192,0.023 -0.341,-0.065 -0.603,-0.354 z m 14.448,-1.8 c -0.21,-0.21 -0.245,-0.457 -0.209,-1.483 l 0.022,-0.642 -0.543,-0.603 c -0.319,-0.354 -0.77,-0.721 -1.092,-0.889 -0.518,-0.271 -0.565,-0.278 -0.821,-0.136 -0.818,0.456 -0.334,2.171 0.612,2.171 0.401,0 0.739,0.327 0.588,0.568 -0.201,0.318 -0.402,0.372 -0.898,0.239 -0.259,-0.069 -0.611,-0.232 -0.781,-0.362 -0.401,-0.306 -0.732,-1.017 -0.732,-1.572 0,-0.397 -0.043,-0.474 -0.47,-0.851 -0.585,-0.516 -1.085,-0.775 -1.641,-0.852 -0.376,-0.051 -0.452,-0.029 -0.593,0.172 -0.344,0.492 -0.072,1.572 0.468,1.861 0.139,0.075 0.417,0.162 0.616,0.195 0.43,0.07 0.635,0.319 0.473,0.578 -0.256,0.408 -1.332,0.183 -1.894,-0.397 -0.754,-0.778 -0.823,-2.189 -0.143,-2.964 0.471,-0.537 1.622,-0.363 2.756,0.418 0.617,0.425 0.724,0.468 0.833,0.337 0.211,-0.255 0.654,-0.433 1.076,-0.433 0.531,0 1.22,0.358 1.918,0.996 0.309,0.282 0.571,0.495 0.582,0.475 0.012,-0.021 0.09,-0.172 0.173,-0.335 0.205,-0.401 0.591,-0.44 1.068,-0.109 0.44,0.306 0.638,0.604 0.56,0.848 -0.089,0.281 -0.341,0.322 -0.696,0.112 l -0.323,-0.19 -0.126,0.46 c -0.07,0.253 -0.13,0.896 -0.135,1.429 -0.006,0.741 -0.043,0.99 -0.155,1.061 -0.21,0.132 -0.271,0.12 -0.493,-0.102 z M 24.905,27.649 c -0.252,-0.141 -0.204,-0.535 0.094,-0.769 0.333,-0.262 0.592,-0.26 0.734,0.005 0.206,0.386 -0.439,0.981 -0.828,0.764 z m 9.061,-0.087 c -0.405,-0.125 -0.984,-0.773 -1.117,-1.25 -0.266,-0.959 0.033,-1.886 0.735,-2.278 0.555,-0.311 1.695,-0.306 2.684,0.011 0.199,0.064 0.21,0.043 0.161,-0.319 -0.091,-0.684 0.388,-0.95 1.27,-0.705 0.444,0.123 0.616,0.317 0.528,0.595 -0.058,0.183 -0.128,0.207 -0.513,0.176 l -0.446,-0.035 0.058,0.496 c 0.089,0.758 0.337,1.492 0.616,1.823 0.267,0.317 0.258,0.631 -0.021,0.738 -0.358,0.138 -0.84,-0.386 -1.093,-1.187 -0.16,-0.51 -0.189,-0.541 -0.718,-0.743 -0.302,-0.115 -0.87,-0.232 -1.261,-0.26 -0.696,-0.048 -0.719,-0.042 -1.025,0.264 -0.289,0.288 -0.31,0.355 -0.266,0.811 0.087,0.906 0.681,1.337 1.419,1.028 0.198,-0.083 0.442,-0.15 0.542,-0.15 0.219,0 0.41,0.318 0.325,0.54 -0.146,0.38 -1.243,0.64 -1.878,0.445 z M 26.69,26.47 c -0.419,-0.244 -0.064,-0.882 0.491,-0.882 0.509,0 0.512,0.48 0.005,0.835 -0.254,0.179 -0.268,0.18 -0.496,0.047 z m -1.433,-0.354 c -0.226,-0.091 -0.142,-0.598 0.137,-0.817 0.312,-0.245 0.464,-0.257 0.671,-0.049 0.217,0.216 0.197,0.312 -0.133,0.642 -0.281,0.281 -0.419,0.327 -0.675,0.224 z m 37.482,-0.049 c -0.48,-0.262 -0.588,-0.714 -0.212,-0.886 0.495,-0.225 1.18,0.46 0.853,0.853 -0.143,0.173 -0.366,0.184 -0.641,0.033 z M 52.62,22.749 c -0.16,-0.151 -0.609,-0.647 -0.997,-1.104 -0.542,-0.639 -0.698,-0.89 -0.675,-1.087 0.021,-0.183 0.096,-0.267 0.26,-0.29 0.286,-0.04 0.453,0.106 1.366,1.198 0.762,0.912 0.89,1.26 0.532,1.452 -0.158,0.085 -0.248,0.054 -0.486,-0.169 z M 35.066,22.427 c -0.336,-0.221 -0.642,-0.728 -0.642,-1.064 0,-0.124 0.144,-0.382 0.321,-0.575 0.741,-0.806 2.036,-0.614 3.478,0.518 0.467,0.366 0.556,0.485 0.53,0.706 -0.049,0.431 -0.438,0.402 -1.039,-0.076 -0.916,-0.729 -1.893,-0.999 -2.357,-0.651 -0.185,0.138 -0.176,0.159 0.234,0.538 0.37,0.342 0.412,0.421 0.318,0.597 -0.137,0.256 -0.46,0.259 -0.843,0.007 z"
         style="fill-rule:nonzero"
         id="path6" />
    </g>
  </g>
</svg>
