<?xml version="1.0" encoding="UTF-8" standalone="no"?>
<!-- Created with Inkscape (http://www.inkscape.org/) -->

<svg
   width="23.639919mm"
   height="15.507145mm"
   viewBox="0 0 23.639919 15.507145"
   version="1.1"
   id="svg1"
   inkscape:version="1.3.2 (091e20ef0f, 2023-11-25, custom)"
   sodipodi:docname="R.svg"
   xmlns:inkscape="http://www.inkscape.org/namespaces/inkscape"
   xmlns:sodipodi="http://sodipodi.sourceforge.net/DTD/sodipodi-0.dtd"
   xmlns="http://www.w3.org/2000/svg"
   xmlns:svg="http://www.w3.org/2000/svg">
  <sodipodi:namedview
     id="namedview1"
     pagecolor="#ffffff"
     bordercolor="#666666"
     borderopacity="1.0"
     inkscape:showpageshadow="2"
     inkscape:pageopacity="0.0"
     inkscape:pagecheckerboard="0"
     inkscape:deskcolor="#d1d1d1"
     inkscape:document-units="mm"
     inkscape:zoom="0.2102413"
     inkscape:cx="256.84772"
     inkscape:cy="399.5409"
     inkscape:window-width="2554"
     inkscape:window-height="230"
     inkscape:window-x="1920"
     inkscape:window-y="710"
     inkscape:window-maximized="1"
     inkscape:current-layer="layer1" />
  <defs
     id="defs1">
    <linearGradient
       id="_Linear1"
       x1="0"
       y1="0"
       x2="1"
       y2="0"
       gradientUnits="userSpaceOnUse"
       gradientTransform="matrix(1.8922947,-1.8962026,1.8962026,1.8922947,39.576212,58.10512)">
      <stop
         offset="0"
         style="stop-color:#8d742f;stop-opacity:1"
         id="stop6" />
      <stop
         offset="0.07"
         style="stop-color:#967d38;stop-opacity:1"
         id="stop7" />
      <stop
         offset="0.18"
         style="stop-color:#ae954f;stop-opacity:1"
         id="stop8" />
      <stop
         offset="0.2"
         style="stop-color:#b39a54;stop-opacity:1"
         id="stop9" />
      <stop
         offset="0.22"
         style="stop-color:#b9a059;stop-opacity:1"
         id="stop10" />
      <stop
         offset="0.3"
         style="stop-color:#cab068;stop-opacity:1"
         id="stop11" />
      <stop
         offset="0.39"
         style="stop-color:#d4ba71;stop-opacity:1"
         id="stop12" />
      <stop
         offset="0.5"
         style="stop-color:#d7bd74;stop-opacity:1"
         id="stop13" />
      <stop
         offset="0.61"
         style="stop-color:#d4ba71;stop-opacity:1"
         id="stop14" />
      <stop
         offset="0.7"
         style="stop-color:#cab068;stop-opacity:1"
         id="stop15" />
      <stop
         offset="0.78"
         style="stop-color:#b9a059;stop-opacity:1"
         id="stop16" />
      <stop
         offset="0.8"
         style="stop-color:#b39a54;stop-opacity:1"
         id="stop17" />
      <stop
         offset="0.86"
         style="stop-color:#a38a45;stop-opacity:1"
         id="stop18" />
      <stop
         offset="0.94"
         style="stop-color:#937a35;stop-opacity:1"
         id="stop19" />
      <stop
         offset="1"
         style="stop-color:#8d742f;stop-opacity:1"
         id="stop20" />
    </linearGradient>
    <linearGradient
       id="_Linear2"
       x1="0"
       y1="0"
       x2="1"
       y2="0"
       gradientUnits="userSpaceOnUse"
       gradientTransform="matrix(17.166008,-8.293682,8.293682,17.166008,40.565489,55.440607)">
      <stop
         offset="0"
         style="stop-color:#8d742f;stop-opacity:1"
         id="stop21" />
      <stop
         offset="0.07"
         style="stop-color:#967d38;stop-opacity:1"
         id="stop22" />
      <stop
         offset="0.18"
         style="stop-color:#ae954f;stop-opacity:1"
         id="stop23" />
      <stop
         offset="0.2"
         style="stop-color:#b39a54;stop-opacity:1"
         id="stop24" />
      <stop
         offset="0.22"
         style="stop-color:#b9a059;stop-opacity:1"
         id="stop25" />
      <stop
         offset="0.3"
         style="stop-color:#cab068;stop-opacity:1"
         id="stop26" />
      <stop
         offset="0.39"
         style="stop-color:#d4ba71;stop-opacity:1"
         id="stop27" />
      <stop
         offset="0.5"
         style="stop-color:#d7bd74;stop-opacity:1"
         id="stop28" />
      <stop
         offset="0.61"
         style="stop-color:#d4ba71;stop-opacity:1"
         id="stop29" />
      <stop
         offset="0.7"
         style="stop-color:#cab068;stop-opacity:1"
         id="stop30" />
      <stop
         offset="0.78"
         style="stop-color:#b9a059;stop-opacity:1"
         id="stop31" />
      <stop
         offset="0.8"
         style="stop-color:#b39a54;stop-opacity:1"
         id="stop32" />
      <stop
         offset="0.86"
         style="stop-color:#a38a45;stop-opacity:1"
         id="stop33" />
      <stop
         offset="0.94"
         style="stop-color:#937a35;stop-opacity:1"
         id="stop34" />
      <stop
         offset="1"
         style="stop-color:#8d742f;stop-opacity:1"
         id="stop35" />
    </linearGradient>
    <linearGradient
       id="_Linear3"
       x1="0"
       y1="0"
       x2="1"
       y2="0"
       gradientUnits="userSpaceOnUse"
       gradientTransform="matrix(13.953807,-8.5440307,8.5440307,13.953807,41.078728,53.905097)">
      <stop
         offset="0"
         style="stop-color:#8d742f;stop-opacity:1"
         id="stop36" />
      <stop
         offset="0.07"
         style="stop-color:#967d38;stop-opacity:1"
         id="stop37" />
      <stop
         offset="0.18"
         style="stop-color:#ae954f;stop-opacity:1"
         id="stop38" />
      <stop
         offset="0.2"
         style="stop-color:#b39a54;stop-opacity:1"
         id="stop39" />
      <stop
         offset="0.22"
         style="stop-color:#b9a059;stop-opacity:1"
         id="stop40" />
      <stop
         offset="0.3"
         style="stop-color:#cab068;stop-opacity:1"
         id="stop41" />
      <stop
         offset="0.39"
         style="stop-color:#d4ba71;stop-opacity:1"
         id="stop42" />
      <stop
         offset="0.5"
         style="stop-color:#d7bd74;stop-opacity:1"
         id="stop43" />
      <stop
         offset="0.61"
         style="stop-color:#d4ba71;stop-opacity:1"
         id="stop44" />
      <stop
         offset="0.7"
         style="stop-color:#cab068;stop-opacity:1"
         id="stop45" />
      <stop
         offset="0.78"
         style="stop-color:#b9a059;stop-opacity:1"
         id="stop46" />
      <stop
         offset="0.8"
         style="stop-color:#b39a54;stop-opacity:1"
         id="stop47" />
      <stop
         offset="0.86"
         style="stop-color:#a38a45;stop-opacity:1"
         id="stop48" />
      <stop
         offset="0.94"
         style="stop-color:#937a35;stop-opacity:1"
         id="stop49" />
      <stop
         offset="1"
         style="stop-color:#8d742f;stop-opacity:1"
         id="stop50" />
    </linearGradient>
  </defs>
  <g
     inkscape:label="Layer 1"
     inkscape:groupmode="layer"
     id="layer1"
     transform="translate(-35.98329,-42.597917)">
    <path
       d="m 58.603696,44.948475 c 0.37121,0 0.713316,0.201877 0.892704,0.527315 0.179387,0.325173 0.167746,0.722048 -0.03043,1.036108 -5.29e-4,7.94e-4 -7.94e-4,0.0013 -0.0013,0.0019 -3.005402,4.733661 -6.988969,8.553715 -11.247967,11.459104 -0.258498,0.176213 -0.598487,0.176213 -0.856721,0 C 43.1007,55.0672 39.145708,51.247411 36.141629,46.51375 c -2.64e-4,-7.93e-4 -7.94e-4,-0.0013 -0.0011,-0.0019 -0.198173,-0.31406 -0.209815,-0.7112 -0.03043,-1.036373 0.179387,-0.325173 0.521229,-0.52705 0.892704,-0.52705 z"
       id="path1"
       style="clip-rule:evenodd;fill-rule:evenodd;stroke-width:0.264583;stroke-linejoin:round;stroke-miterlimit:2" />
    <path
       d="m 58.603696,45.708623 c 0.09446,0 0.181504,0.05133 0.227012,0.134144 0.04577,0.08281 0.0426,0.183621 -0.0077,0.263525 -2.948252,4.643173 -6.857206,8.388614 -11.034712,11.238706 -4.177771,-2.850092 -8.058415,-6.595533 -11.004815,-11.238706 -0.05053,-0.0799 -0.05344,-0.18071 -0.0077,-0.263525 0.04551,-0.08282 0.132557,-0.134144 0.227013,-0.134144 z"
       style="clip-rule:evenodd;fill:url(#_Linear1);fill-rule:evenodd;stroke-width:0.264583;stroke-linejoin:round;stroke-miterlimit:2"
       id="path2" />
    <path
       d="m 47.788323,42.597917 c 2.818341,0 5.371571,0.700088 7.328429,2.728648 0.709348,0.735277 1.258358,2.037292 1.258358,4.088077 0,0 0.02858,1.631421 -0.457994,2.503487 -1.431131,2.56593 -4.335727,4.290748 -8.128793,4.290748 -3.793067,0 -6.697927,-1.724818 -8.129058,-4.290748 -0.486569,-0.872066 -0.45773,-2.503487 -0.45773,-2.503487 0,-2.050785 0.548746,-3.3528 1.258094,-4.088077 1.957123,-2.02856 4.510088,-2.728648 7.328694,-2.728648 z m 4.849812,6.914356 c -1.834356,-1.656556 -3.3655,-2.207948 -4.849812,-2.207948 -1.510771,0 -3.100917,0.422275 -4.982369,2.136511 1.730111,0.954352 3.977746,1.321064 4.982369,1.321064 0.978958,0 3.139016,-0.348456 4.849812,-1.249627 z"
       id="path3"
       style="clip-rule:evenodd;fill-rule:evenodd;stroke-width:0.264583;stroke-linejoin:round;stroke-miterlimit:2" />
    <path
       d="m 47.788323,51.381554 c 1.854464,0 7.70255,-1.176866 7.70255,-4.76832 0.597164,1.402556 0.654843,3.642518 0.248179,4.634441 -0.974725,2.377546 -4.081198,4.459288 -7.950729,4.459288 -3.869796,0 -6.976269,-2.081742 -7.950994,-4.459288 -0.406664,-0.991923 -0.348985,-3.231885 0.248179,-4.634441 0,3.591454 5.848086,4.76832 7.702815,4.76832 z"
       style="clip-rule:evenodd;fill:url(#_Linear2);fill-rule:evenodd;stroke-width:0.264583;stroke-linejoin:round;stroke-miterlimit:2"
       id="path4" />
    <path
       d="m 47.788323,46.684671 c -1.710002,0 -3.522133,0.482336 -5.68325,2.564077 -0.611981,-0.471752 -1.53961,-1.171575 -1.53961,-2.207419 0,-1.035843 0.827087,-2.023268 1.573212,-2.477029 1.192212,-0.724958 2.655623,-1.46341 5.649648,-1.46341 2.994025,0 4.478866,0.899319 5.671079,1.624542 0.746125,0.45376 1.573212,1.44092 1.573212,2.476764 0,1.035844 -0.979222,1.740694 -1.591204,2.212446 -2.161116,-2.082006 -3.94335,-2.729971 -5.653087,-2.729971 z"
       style="clip-rule:evenodd;fill:url(#_Linear3);fill-rule:evenodd;stroke-width:0.264583;stroke-linejoin:round;stroke-miterlimit:2"
       id="path5" />
    <path
       d="m 49.031865,55.402163 c -0.05424,-0.05398 -0.05503,-0.05027 0.04842,-0.206111 0.193411,-0.291571 0.268288,-0.727339 0.198438,-1.158875 -0.04551,-0.283633 -0.04604,-0.283898 -0.141288,-0.193675 -0.04471,0.0426 -0.128323,0.100807 -0.186002,0.129117 -0.405606,0.200025 -0.849048,0.110067 -1.015471,-0.205846 -0.185737,-0.35216 0.01773,-0.751417 0.446088,-0.875771 0.119856,-0.03493 0.155839,-0.03572 0.250031,-0.0061 0.08229,0.02619 0.112448,0.05027 0.118798,0.09525 0.01429,0.100806 -0.03651,0.134673 -0.176477,0.118004 -0.15531,-0.01826 -0.278342,0.03545 -0.406929,0.177535 -0.07488,0.08308 -0.09208,0.122503 -0.09181,0.21299 2.65e-4,0.287073 0.2667,0.437092 0.614363,0.346075 0.192617,-0.05054 0.329935,-0.138377 0.427831,-0.273579 0.0635,-0.08731 0.07646,-0.134938 0.08811,-0.319617 0.02275,-0.361156 0.09895,-0.5334 0.221986,-0.501121 0.07937,0.02064 0.09022,0.07197 0.03916,0.185209 -0.06059,0.134408 -0.05927,0.692414 0.0024,0.997214 0.113507,0.561446 0.0056,1.164961 -0.259291,1.450711 -0.07408,0.07964 -0.119857,0.08705 -0.178329,0.02858 z m -3.011753,-1.329796 c -0.08652,-0.03757 -0.122502,-0.09551 -0.09869,-0.157956 0.02223,-0.05794 0.104775,-0.07355 0.207962,-0.03942 0.129911,0.04286 0.248973,0.01323 0.344488,-0.08599 0.102658,-0.106362 0.137319,-0.197114 0.137319,-0.360892 0,-0.188383 -0.05477,-0.233627 -0.281252,-0.233627 -0.188913,2.65e-4 -0.31459,0.02725 -0.50509,0.108215 -0.09287,0.03969 -0.126735,0.07117 -0.152665,0.14314 -0.112183,0.310356 -0.475456,0.461697 -0.761735,0.317235 -0.10451,-0.05265 -0.116681,-0.06826 -0.116681,-0.149754 0,-0.116417 0.05186,-0.128852 0.212196,-0.05133 0.103981,0.05027 0.132027,0.05398 0.219075,0.02778 0.136789,-0.04101 0.253735,-0.180181 0.27596,-0.328613 0.05027,-0.335491 -0.140758,-0.44106 -0.595842,-0.329406 -0.325173,0.07964 -0.350837,0.09472 -0.420952,0.247386 -0.07461,0.161925 -0.18706,0.299243 -0.271727,0.331258 -0.146844,0.05583 -0.229394,-0.114829 -0.09763,-0.201348 0.08784,-0.05741 0.18071,-0.219869 0.260879,-0.455348 0.08228,-0.242094 0.08334,-0.290248 0.0061,-0.283633 -0.115622,0.0098 -0.149489,-0.0042 -0.165629,-0.06879 -0.02646,-0.105569 0.02725,-0.143669 0.202936,-0.143669 0.131233,0 0.164835,0.01032 0.221985,0.0672 0.06906,0.06932 0.06879,0.06244 0.01693,0.288132 l -0.0127,0.05477 0.178859,-0.04657 c 0.206904,-0.05398 0.459052,-0.06271 0.586581,-0.02011 0.12356,0.04127 0.254794,0.172509 0.289983,0.289984 0.01614,0.0545 0.03387,0.09895 0.03942,0.09895 0.0053,0 0.08281,-0.02514 0.172244,-0.05583 0.213783,-0.07329 0.59399,-0.08202 0.715698,-0.01614 0.135996,0.07329 0.205317,0.213519 0.204258,0.411692 -0.0013,0.277283 -0.137318,0.516731 -0.357452,0.629973 -0.1143,0.05874 -0.334698,0.06482 -0.454819,0.0127 z M 50.089139,53.8353 c -0.02037,-0.02461 -0.0254,-0.06615 -0.01376,-0.111125 0.04233,-0.162454 0.0426,-0.364596 5.29e-4,-0.597958 -0.02408,-0.134938 -0.04815,-0.245533 -0.05318,-0.245533 -0.005,0 -0.05212,0.02513 -0.104246,0.05609 l -0.09499,0.05609 -0.0545,-0.0545 c -0.05159,-0.05133 -0.05212,-0.05794 -0.01111,-0.120121 0.02355,-0.03625 0.09604,-0.09684 0.160602,-0.134673 0.161396,-0.09472 0.247386,-0.06747 0.29845,0.09446 0.01984,0.0635 0.03889,0.119063 0.04233,0.123296 0.0032,0.004 0.08599,-0.07541 0.183885,-0.176742 0.177535,-0.18415 0.429948,-0.341312 0.545571,-0.340254 0.08043,0.0011 0.255323,0.08784 0.321469,0.159809 0.173302,0.188647 0.228864,0.557741 0.116416,0.774964 -0.09631,0.185738 -0.354806,0.336815 -0.540544,0.315648 -0.06641,-0.0074 -0.07911,-0.02117 -0.08625,-0.09287 -0.0071,-0.07355 0.0011,-0.08625 0.06535,-0.100541 0.1778,-0.03942 0.245798,-0.0725 0.318294,-0.155046 0.102923,-0.117475 0.121444,-0.216694 0.07144,-0.388144 -0.127,-0.437092 -0.442913,-0.34925 -0.90223,0.250825 -0.02461,0.03201 -0.03387,0.115623 -0.03043,0.27014 0.0053,0.246856 -0.02884,0.389731 -0.102923,0.429154 -0.06614,0.03545 -0.09234,0.03281 -0.130175,-0.01297 z m 1.710796,-0.544512 c -0.02725,-0.07117 0,-0.134144 0.07408,-0.169598 0.05609,-0.02672 0.07144,-0.05239 0.07144,-0.118798 0,-0.158221 -0.159014,-0.670983 -0.208227,-0.670983 -0.01032,0 -0.04075,0.02434 -0.06747,0.05371 -0.06456,0.07144 -0.178858,0.05953 -0.189971,-0.01958 -0.01746,-0.122502 0.199232,-0.310886 0.335228,-0.291571 0.0471,0.0066 0.08043,0.04101 0.120385,0.12409 l 0.05503,0.114829 0.117211,-0.180182 c 0.274902,-0.423068 0.540808,-0.570441 0.773377,-0.428624 0.0471,0.02857 0.08943,0.05212 0.09419,0.05212 0.0045,0 0.0463,-0.07461 0.09287,-0.166158 0.105304,-0.207698 0.284692,-0.414867 0.436034,-0.503502 0.156633,-0.09181 0.264054,-0.07144 0.413808,0.07832 0.13335,0.133085 0.197908,0.303741 0.197908,0.522552 v 0.157162 l 0.07937,-0.0762 c 0.04392,-0.0418 0.09975,-0.13335 0.124354,-0.203464 0.0508,-0.144463 0.109802,-0.190765 0.188648,-0.148696 0.125942,0.06747 0.0013,0.367241 -0.247385,0.593989 -0.26379,0.240507 -1.104106,0.742421 -1.862667,1.112309 -0.391054,0.190764 -0.570177,0.2413 -0.598223,0.168275 z m 0.712788,-0.466196 c 0.25691,-0.13679 0.312737,-0.178329 0.377031,-0.279665 0.05741,-0.09022 0.07567,-0.150548 0.07567,-0.249502 0,-0.175154 -0.08493,-0.347398 -0.197115,-0.401108 -0.08017,-0.0381 -0.09208,-0.03757 -0.173302,0.01005 -0.111125,0.06482 -0.297127,0.295275 -0.412221,0.51091 l -0.08943,0.167746 0.0344,0.201084 c 0.01878,0.110595 0.04524,0.201083 0.05874,0.201083 0.01349,0 0.160337,-0.07223 0.326231,-0.160602 z m 1.0541,-0.586581 c 0.209285,-0.132027 0.339989,-0.334698 0.339725,-0.526786 -2.65e-4,-0.222779 -0.125413,-0.451908 -0.246856,-0.451908 -0.09525,0 -0.315384,0.255587 -0.434975,0.504825 -0.08969,0.18706 -0.100807,0.2286 -0.07752,0.289983 0.01508,0.03942 0.02725,0.148167 0.02725,0.241829 v 0.170127 l 0.150548,-0.0852 c 0.08255,-0.04683 0.191293,-0.111125 0.241829,-0.142875 z m -10.263452,0.896408 c -0.320675,-0.130969 -1.018646,-0.574146 -1.647561,-1.046427 -0.533664,-0.400579 -0.611981,-0.481277 -0.565679,-0.582613 0.03387,-0.07435 0.120915,-0.08308 0.191823,-0.01905 0.04577,0.04154 0.05398,0.03836 0.153723,-0.05874 0.09525,-0.09287 0.381265,-0.504296 0.359833,-0.51779 -0.005,-0.0029 -0.04286,-0.01667 -0.08467,-0.03069 -0.09895,-0.03281 -0.142875,-0.100807 -0.104511,-0.16219 0.04154,-0.06615 0.147902,-0.06985 0.284163,-0.0098 0.165894,0.07355 0.193146,0.153987 0.105833,0.310356 -0.03625,0.06482 -0.06588,0.120385 -0.06588,0.12356 0,0.0034 0.102923,0.01323 0.228865,0.02196 0.187325,0.01296 0.259556,0.03148 0.398727,0.101864 0.139964,0.07091 0.180181,0.106627 0.228864,0.202671 0.0344,0.06853 0.05874,0.164571 0.05874,0.232304 v 0.115358 l 0.103187,-0.0164 c 0.288661,-0.0463 0.7239,0.09842 0.815711,0.270934 0.136525,0.255852 -0.02778,0.664633 -0.328348,0.817562 l -0.07646,0.03863 0.09975,0.03307 c 0.05847,0.01905 0.16166,0.02725 0.248179,0.01931 0.173038,-0.01561 0.236273,0.01085 0.236273,0.09922 0,0.16166 -0.315119,0.189706 -0.640556,0.05689 z m -0.0063,-0.42545 c 0.09763,-0.02328 0.275166,-0.229923 0.296862,-0.345017 0.03069,-0.163777 -0.0093,-0.221456 -0.199231,-0.287866 -0.137054,-0.04815 -0.211931,-0.05768 -0.38735,-0.05054 l -0.217752,0.0093 -0.09604,0.107685 c -0.05292,0.05927 -0.135466,0.130704 -0.183356,0.158485 l -0.08678,0.0508 0.217752,0.142875 c 0.319616,0.20955 0.441854,0.26379 0.544512,0.240507 0.02143,-0.005 0.0717,-0.01667 0.11139,-0.02619 z M 42.43051,52.081377 c 0.08361,-0.04313 0.205317,-0.261937 0.205846,-0.369623 7.94e-4,-0.203993 -0.175418,-0.300037 -0.581818,-0.316706 -0.276225,-0.01138 -0.285486,-0.01005 -0.327819,0.05054 -0.02408,0.03413 -0.08096,0.103716 -0.126736,0.154516 l -0.08334,0.09208 0.260879,0.195527 c 0.143669,0.107421 0.280987,0.203465 0.305064,0.213254 0.08043,0.03254 0.267759,0.02196 0.347927,-0.01958 z m 7.049559,0.4953 c -0.0725,-0.07223 0.12065,-0.478366 0.342106,-0.718873 0.166158,-0.180445 0.276225,-0.227277 0.42836,-0.181768 0.199232,0.05979 0.255852,0.269345 0.139965,0.518318 -0.06615,0.142082 -0.08731,0.155575 -0.172508,0.110067 -0.06165,-0.03307 -0.0635,-0.08123 -0.0082,-0.225954 0.05186,-0.135731 0.0344,-0.191558 -0.0598,-0.191558 -0.100277,0 -0.249238,0.170391 -0.401373,0.458522 -0.09816,0.186267 -0.136525,0.236009 -0.186796,0.242359 -0.03466,0.0042 -0.0717,-7.94e-4 -0.08176,-0.01111 z m -3.873765,-0.0508 c -0.09128,-0.09128 -0.06985,-0.116416 0.318029,-0.373062 0.316971,-0.209286 0.405607,-0.231246 0.420423,-0.103452 0.0069,0.05927 -0.01402,0.08678 -0.129646,0.169862 -0.177006,0.127529 -0.524668,0.347663 -0.54901,0.347663 -0.01032,0 -0.03731,-0.01852 -0.0598,-0.04101 z m 6.811169,-1.108339 c -0.02937,-0.02937 -0.05371,-0.0717 -0.05371,-0.09393 0,-0.04657 0.1143,-0.168804 0.157427,-0.168804 0.07117,0 0.13044,0.05768 0.13044,0.126735 0,0.147108 -0.141023,0.229129 -0.234156,0.135996 z m -9.258036,-0.210344 c -0.06826,-0.06826 -0.06667,-0.170127 0.0032,-0.21881 0.07011,-0.04921 0.153723,-0.02117 0.204788,0.06879 0.08599,0.150813 -0.08414,0.273579 -0.207963,0.150019 z m 9.709944,-0.09472 c -0.03995,-0.06112 -0.04075,-0.07541 -0.0063,-0.136789 0.04921,-0.08731 0.161925,-0.130705 0.218281,-0.08361 0.09393,0.07779 0.0098,0.288925 -0.115358,0.288925 -0.02858,0 -0.07197,-0.03069 -0.09657,-0.06853 z m -0.380735,-0.182298 c -0.04313,-0.09525 0.01852,-0.203464 0.123296,-0.215635 0.13335,-0.01535 0.191822,0.131233 0.09181,0.230981 -0.07541,0.07541 -0.177006,0.06826 -0.215106,-0.01535 z m 0.267493,-3.764756 c -0.179916,-0.123031 -0.609864,-0.392906 -0.955939,-0.600075 -0.594783,-0.356129 -0.769408,-0.483129 -0.864129,-0.627856 -0.04974,-0.07594 -0.02778,-0.160338 0.04789,-0.184415 0.04471,-0.01402 0.07805,0.0087 0.170921,0.116417 0.0635,0.07382 0.123296,0.134144 0.132821,0.134144 0.0093,0 0.01323,-0.08255 0.0085,-0.183357 -0.01852,-0.389466 0.221985,-0.616214 0.509058,-0.480218 0.128852,0.06112 0.330465,0.250031 0.426244,0.399256 l 0.08228,0.128323 0.1016,-0.03995 c 0.187061,-0.07329 0.358511,0.0024 0.538163,0.237331 0.05106,0.06694 0.120385,0.181504 0.154516,0.255058 l 0.06165,0.13335 0.04472,-0.068 c 0.068,-0.103716 0.19341,-0.09419 0.296069,0.02275 0.07937,0.09049 0.129645,0.246327 0.09657,0.299508 -0.03228,0.05212 -0.139964,0.02937 -0.195791,-0.04127 -0.0299,-0.03836 -0.05847,-0.06482 -0.06377,-0.059 -0.005,0.0058 -0.05794,0.09975 -0.11721,0.209021 -0.112713,0.206904 -0.135467,0.334698 -0.06879,0.389995 0.0672,0.05556 -0.225689,0.08176 -0.405342,-0.04101 z m 0.208492,-0.316706 c 0.06324,-0.142611 0.05212,-0.197909 -0.09737,-0.48604 -0.109802,-0.211402 -0.243152,-0.33946 -0.341312,-0.328083 -0.09393,0.01111 -0.16801,0.145785 -0.16801,0.305329 0,0.141817 0.04604,0.246063 0.153987,0.348456 0.08281,0.07885 0.351631,0.277019 0.380206,0.280459 0.01005,0.0011 0.04286,-0.05292 0.0725,-0.120121 z m -0.8636,-0.900113 c -0.108214,-0.212196 -0.338137,-0.41566 -0.469371,-0.41566 -0.105568,0 -0.162454,0.238389 -0.100541,0.420952 0.05292,0.155575 0.122237,0.22569 0.356129,0.360098 l 0.228335,0.131233 0.02011,-0.194733 c 0.01746,-0.170656 0.01323,-0.208227 -0.03466,-0.30189 z m -9.823979,1.322652 c -0.03254,-0.02302 -0.059,-0.05794 -0.059,-0.07752 0,-0.06059 0.07805,-0.118268 0.160073,-0.118268 0.07117,0 0.232304,-0.0635 0.232304,-0.09155 0,-0.0066 -0.04418,-0.0344 -0.09816,-0.06218 -0.328084,-0.168275 -0.403754,-0.597694 -0.138907,-0.786342 0.138907,-0.09895 0.313532,-0.160867 0.496359,-0.176212 l 0.179123,-0.01508 0.01429,-0.105304 c 0.03598,-0.269081 0.343165,-0.43815 0.731838,-0.40296 l 0.152664,0.01402 -0.01693,-0.101336 c -0.02222,-0.131762 -7.94e-4,-0.193146 0.08043,-0.230187 0.08202,-0.03731 0.259292,-0.03916 0.326761,-0.0029 0.109802,0.05874 0.0418,0.182034 -0.100542,0.182034 -0.08599,0 -0.08784,0.0024 -0.07064,0.08493 0.0095,0.04683 0.06059,0.173037 0.112977,0.280723 0.09525,0.194733 0.09631,0.195792 0.20029,0.196056 0.09842,5.29e-4 0.10451,0.005 0.10451,0.07805 0,0.0717 -0.02275,0.09022 -0.305858,0.248444 -0.422275,0.236008 -1.191154,0.718079 -1.404144,0.880004 -0.214577,0.163513 -0.297921,0.207698 -0.434181,0.229923 -0.07541,0.01243 -0.120915,0.0056 -0.163248,-0.02434 z m 0.56171,-0.50747 c 0.04657,-0.01323 0.18468,-0.09102 0.307182,-0.172509 0.207168,-0.137848 0.264318,-0.195527 0.193675,-0.195527 -0.01588,0 -0.08255,-0.0545 -0.148167,-0.120914 l -0.119062,-0.120915 -0.165894,0.0172 c -0.425186,0.04339 -0.596106,0.246327 -0.398198,0.472017 0.04471,0.0508 0.118269,0.103187 0.163512,0.116152 0.04524,0.01323 0.08255,0.02513 0.08255,0.02619 0,0.0013 0.0381,-0.0085 0.0844,-0.0217 z m 1.069975,-0.645848 c 0.127265,-0.06641 0.241036,-0.129646 0.252942,-0.140494 0.01191,-0.01085 -0.0085,-0.07964 -0.04551,-0.152665 -0.0717,-0.141287 -0.05133,-0.130968 -0.350309,-0.177006 -0.132556,-0.02037 -0.369887,0.03837 -0.440266,0.108744 -0.157163,0.157162 0.01349,0.482335 0.253206,0.482335 0.06641,0 0.174096,-0.03942 0.329935,-0.120914 z m 2.854325,0.309562 c -0.203729,-0.225425 -0.31697,-0.581819 -0.360627,-1.134798 -0.02699,-0.342371 -0.08493,-0.556948 -0.184679,-0.683683 -0.06059,-0.07699 -0.06588,-0.15584 -0.01323,-0.199496 0.09737,-0.08096 0.232569,0.07091 0.3302,0.370946 0.05159,0.15875 0.07012,0.184415 0.185738,0.258762 0.102393,0.06562 0.164835,0.08493 0.306652,0.09499 0.216429,0.01561 0.343693,-0.02223 0.433123,-0.128058 0.138377,-0.164836 0.04895,-0.370682 -0.192617,-0.443178 -0.08811,-0.02646 -0.128852,-0.02646 -0.199761,-0.0011 -0.191822,0.06959 -0.278606,-0.107421 -0.09895,-0.201877 0.08599,-0.04524 0.321204,-0.03519 0.439738,0.01879 0.121708,0.0553 0.291835,0.233628 0.316441,0.331259 0.05741,0.228864 -0.06959,0.47625 -0.298714,0.582083 -0.227013,0.10451 -0.468313,0.09393 -0.772054,-0.03413 -0.04498,-0.01905 -0.0471,-0.0087 -0.03016,0.159808 0.03836,0.386292 0.147373,0.696913 0.314061,0.895086 0.08705,0.103452 0.08017,0.197114 -0.01561,0.208227 -0.0508,0.0061 -0.09049,-0.0172 -0.159544,-0.09366 z m 3.8227,-0.47625 c -0.05556,-0.05556 -0.06482,-0.120914 -0.0553,-0.392377 l 0.0058,-0.169862 -0.143933,-0.159544 c -0.0844,-0.09366 -0.203465,-0.190765 -0.288925,-0.235215 -0.13679,-0.0717 -0.149225,-0.07355 -0.217223,-0.03598 -0.216165,0.12065 -0.08811,0.57441 0.16219,0.57441 0.106098,0 0.195527,0.08652 0.15531,0.150284 -0.05292,0.08414 -0.106362,0.09843 -0.237331,0.06324 -0.06879,-0.01826 -0.161661,-0.06138 -0.206904,-0.09578 -0.105834,-0.08096 -0.193411,-0.269081 -0.193411,-0.415925 0,-0.10504 -0.01138,-0.125413 -0.124354,-0.22516 -0.154781,-0.136525 -0.287073,-0.205053 -0.434181,-0.225425 -0.09948,-0.01349 -0.119592,-0.0077 -0.157163,0.04551 -0.09102,0.130175 -0.01905,0.415925 0.12409,0.492389 0.03678,0.01984 0.110067,0.04286 0.162983,0.05159 0.113771,0.01852 0.167746,0.0844 0.125148,0.152929 -0.06773,0.10795 -0.352425,0.04842 -0.501385,-0.105039 -0.199496,-0.205846 -0.217488,-0.579173 -0.03784,-0.784225 0.124619,-0.142081 0.429419,-0.09604 0.729192,0.110596 0.163512,0.112448 0.191823,0.123825 0.220398,0.08916 0.05609,-0.06747 0.173302,-0.114564 0.284692,-0.114564 0.140493,0 0.323056,0.09472 0.507735,0.263525 0.08149,0.07461 0.150812,0.130968 0.153987,0.125677 0.0032,-0.0056 0.02355,-0.04551 0.04577,-0.08864 0.05398,-0.106098 0.156369,-0.116416 0.282575,-0.02884 0.116417,0.08096 0.16854,0.159808 0.148167,0.224366 -0.02355,0.07435 -0.09022,0.0852 -0.18415,0.02963 l -0.08573,-0.05027 -0.03334,0.121708 c -0.01826,0.06694 -0.0344,0.237067 -0.03545,0.37809 -0.0019,0.196056 -0.01138,0.261937 -0.04101,0.280723 -0.05556,0.03493 -0.0717,0.03175 -0.13044,-0.02699 z M 42.471521,45.79038 c -0.06668,-0.03731 -0.05398,-0.141552 0.02461,-0.203464 0.08837,-0.06932 0.156898,-0.06879 0.194469,0.0013 0.0545,0.102129 -0.116152,0.259556 -0.219075,0.202141 z m 2.397125,-0.02302 c -0.106892,-0.03307 -0.26035,-0.204523 -0.295275,-0.330729 -0.07038,-0.253736 0.0087,-0.499005 0.194204,-0.602721 0.147108,-0.08229 0.448733,-0.08096 0.710142,0.0029 0.05292,0.01693 0.05556,0.01138 0.04286,-0.0844 -0.02434,-0.180975 0.102658,-0.251354 0.336021,-0.186531 0.117475,0.03254 0.162983,0.08387 0.1397,0.157427 -0.01535,0.04842 -0.03387,0.05477 -0.135731,0.04657 l -0.118004,-0.0093 0.01535,0.131234 c 0.02355,0.200554 0.08916,0.394758 0.162719,0.482335 0.07064,0.08387 0.06853,0.166952 -0.0053,0.195262 -0.09472,0.03651 -0.22225,-0.102129 -0.289189,-0.31406 -0.0426,-0.134938 -0.05027,-0.14314 -0.189971,-0.196585 -0.08017,-0.03043 -0.230187,-0.06138 -0.333904,-0.06879 -0.183886,-0.0127 -0.189971,-0.01111 -0.271198,0.06985 -0.0762,0.0762 -0.08202,0.09393 -0.07038,0.214577 0.02302,0.239712 0.180446,0.353748 0.375708,0.271992 0.05239,-0.02196 0.116946,-0.03969 0.143404,-0.03969 0.05794,0 0.108479,0.08414 0.08599,0.142875 -0.03863,0.100542 -0.328877,0.169333 -0.497152,0.11774 z m -1.924844,-0.288925 c -0.11086,-0.06456 -0.01693,-0.233363 0.12991,-0.233363 0.134673,0 0.135467,0.127 0.0013,0.220927 -0.06747,0.04736 -0.07091,0.04762 -0.131233,0.01244 z m -0.379148,-0.09366 c -0.06006,-0.02408 -0.03757,-0.158221 0.03625,-0.216164 0.08228,-0.06482 0.122767,-0.068 0.177535,-0.01296 0.05742,0.05715 0.05212,0.08255 -0.03545,0.169863 -0.07408,0.07435 -0.11086,0.08652 -0.178329,0.05927 z m 9.916848,-0.01296 c -0.127,-0.06932 -0.155575,-0.188913 -0.05583,-0.234421 0.130969,-0.05953 0.311944,0.121708 0.225689,0.225689 -0.03784,0.04577 -0.09684,0.04868 -0.169862,0.0087 z m -2.677054,-0.877888 c -0.0426,-0.03995 -0.161131,-0.171185 -0.26379,-0.2921 -0.143669,-0.169069 -0.184679,-0.235479 -0.178594,-0.287602 0.0056,-0.04842 0.0254,-0.07064 0.06879,-0.07673 0.07567,-0.01058 0.119856,0.02805 0.361421,0.316971 0.201612,0.2413 0.235479,0.333375 0.140758,0.384175 -0.04207,0.02249 -0.06562,0.01429 -0.128587,-0.04471 z m -4.644496,-0.0852 c -0.0889,-0.05847 -0.170127,-0.192616 -0.170127,-0.281516 0,-0.03281 0.03836,-0.101071 0.08493,-0.152136 0.196056,-0.213254 0.538956,-0.162454 0.920221,0.137054 0.123825,0.09684 0.147373,0.128323 0.140494,0.186796 -0.01323,0.114036 -0.116152,0.106363 -0.274902,-0.02011 -0.242623,-0.192881 -0.500857,-0.264319 -0.623888,-0.172244 -0.04868,0.03651 -0.0463,0.04207 0.06218,0.142346 0.0979,0.09049 0.109009,0.11139 0.08414,0.157956 -0.03625,0.06773 -0.121973,0.06853 -0.223044,0.0019 z"
       style="clip-rule:evenodd;fill-rule:nonzero;stroke-width:0.264583;stroke-linejoin:round;stroke-miterlimit:2"
       id="path6" />
  </g>
</svg>
