<?xml version="1.0" encoding="UTF-8" standalone="no"?>
<!DOCTYPE svg PUBLIC "-//W3C//DTD SVG 1.1//EN" "http://www.w3.org/Graphics/SVG/1.1/DTD/svg11.dtd">
<svg width="100%" height="100%" viewBox="0 0 90 90" version="1.1" xmlns="http://www.w3.org/2000/svg" xmlns:xlink="http://www.w3.org/1999/xlink" xml:space="preserve" xmlns:serif="http://www.serif.com/" style="fill-rule:evenodd;clip-rule:evenodd;stroke-linejoin:round;stroke-miterlimit:2;">
    <rect id="Mythic" x="0" y="0" width="90" height="90" style="fill:none;"/>
    <g id="Mythic1" serif:id="Mythic">
        <path d="M85.877,24.467C87.281,24.467 88.573,25.23 89.251,26.46C89.929,27.689 89.885,29.189 89.136,30.376C89.135,30.379 89.133,30.381 89.132,30.383C77.772,48.274 62.716,62.712 46.619,73.693C45.643,74.359 44.357,74.359 43.381,73.693C27.283,62.711 12.335,48.274 0.981,30.383C0.98,30.38 0.979,30.378 0.977,30.376C0.228,29.189 0.184,27.688 0.862,26.459C1.54,25.23 2.833,24.467 4.236,24.467L85.877,24.467Z"/>
        <path d="M85.877,27.34C86.234,27.34 86.563,27.534 86.735,27.847C86.908,28.16 86.897,28.541 86.706,28.843C75.564,46.392 60.79,60.548 45,71.32C29.21,60.548 14.544,46.392 3.407,28.843C3.217,28.541 3.206,28.16 3.378,27.847C3.551,27.534 3.879,27.34 4.236,27.34L85.877,27.34Z" style="fill:rgb(101,50,122);"/>
        <path d="M45,15.583C55.652,15.583 65.302,18.229 72.698,25.896C75.379,28.675 77.454,33.596 77.454,41.347C77.454,41.347 77.562,47.513 75.724,50.809C70.315,60.507 59.336,67.026 45,67.026C30.664,67.026 19.685,60.507 14.276,50.809C12.438,47.513 12.546,41.347 12.546,41.347C12.546,33.596 14.621,28.675 17.302,25.896C24.698,18.229 34.348,15.583 45,15.583ZM63.33,41.716C56.397,35.455 50.61,33.371 45,33.371C39.29,33.371 33.28,34.967 26.17,41.446C32.709,45.053 41.203,46.439 45,46.439C48.701,46.439 56.864,45.122 63.33,41.716Z"/>
        <path d="M45,48.781C52.01,48.781 74.113,44.333 74.113,30.759C76.37,36.06 76.588,44.526 75.051,48.275C71.367,57.261 59.625,65.129 45,65.129C30.375,65.129 18.633,57.261 14.949,48.275C13.412,44.526 13.63,36.06 15.887,30.759C15.887,44.333 37.99,48.781 45,48.781Z" style="fill:url(#_Linear1);"/>
        <path d="M45,31.029C38.538,31.029 31.688,32.852 23.52,40.72C21.207,38.937 17.701,36.292 17.701,32.377C17.701,28.462 20.828,24.73 23.647,23.015C28.153,20.275 33.684,17.484 45,17.484C56.316,17.484 61.929,20.883 66.434,23.624C69.254,25.339 72.38,29.07 72.38,32.985C72.38,36.9 68.679,39.564 66.366,41.347C58.198,33.478 51.462,31.029 45,31.029Z" style="fill:url(#_Linear2);"/>
        <path d="M49.7,63.977C49.496,63.773 49.492,63.787 49.883,63.198C50.614,62.096 50.897,60.449 50.634,58.818C50.461,57.746 50.46,57.745 50.1,58.086C49.93,58.247 49.614,58.467 49.396,58.574C47.863,59.33 46.187,58.99 45.558,57.796C44.857,56.465 45.625,54.956 47.244,54.486C47.698,54.354 47.833,54.351 48.19,54.463C48.5,54.562 48.614,54.653 48.638,54.823C48.692,55.204 48.501,55.332 47.971,55.269C47.384,55.2 46.919,55.403 46.434,55.94C46.15,56.254 46.086,56.403 46.086,56.745C46.087,57.83 47.094,58.397 48.408,58.053C49.136,57.862 49.655,57.53 50.025,57.019C50.265,56.689 50.315,56.509 50.359,55.811C50.445,54.446 50.732,53.795 51.197,53.917C51.498,53.995 51.538,54.189 51.345,54.617C51.117,55.125 51.122,57.234 51.354,58.386C51.783,60.508 51.375,62.789 50.374,63.869C50.094,64.17 49.921,64.198 49.7,63.977ZM38.317,58.951C37.991,58.809 37.854,58.59 37.944,58.354C38.028,58.135 38.34,58.076 38.731,58.205C39.222,58.367 39.671,58.255 40.032,57.88C40.421,57.478 40.551,57.135 40.551,56.516C40.551,55.804 40.344,55.633 39.489,55.633C38.775,55.634 38.299,55.736 37.58,56.042C37.228,56.192 37.101,56.311 37.003,56.583C36.578,57.756 35.206,58.328 34.123,57.782C33.728,57.583 33.682,57.524 33.682,57.216C33.682,56.776 33.878,56.729 34.484,57.022C34.878,57.212 34.983,57.226 35.313,57.127C35.829,56.972 36.271,56.446 36.355,55.885C36.545,54.617 35.823,54.218 34.103,54.64C32.874,54.941 32.777,54.998 32.512,55.575C32.231,56.187 31.805,56.706 31.486,56.827C30.931,57.038 30.618,56.393 31.117,56.066C31.448,55.849 31.799,55.235 32.102,54.345C32.413,53.43 32.417,53.248 32.126,53.273C31.688,53.31 31.56,53.257 31.499,53.013C31.399,52.614 31.603,52.47 32.266,52.47C32.763,52.47 32.89,52.509 33.105,52.724C33.367,52.986 33.365,52.96 33.169,53.813L33.122,54.02L33.797,53.844C34.58,53.64 35.533,53.607 36.015,53.768C36.481,53.924 36.977,54.42 37.11,54.864C37.172,55.07 37.239,55.238 37.259,55.238C37.279,55.238 37.572,55.143 37.91,55.027C38.718,54.75 40.156,54.717 40.616,54.966C41.129,55.243 41.392,55.773 41.388,56.522C41.382,57.57 40.868,58.475 40.036,58.903C39.604,59.125 38.772,59.148 38.317,58.951ZM53.696,58.055C53.619,57.962 53.6,57.805 53.645,57.635C53.805,57.021 53.805,56.257 53.647,55.375C53.555,54.865 53.464,54.447 53.445,54.447C53.426,54.447 53.249,54.542 53.051,54.659L52.692,54.871L52.486,54.665C52.292,54.471 52.29,54.446 52.444,54.211C52.534,54.074 52.807,53.845 53.051,53.702C53.662,53.344 53.987,53.447 54.179,54.059C54.255,54.299 54.327,54.509 54.339,54.525C54.352,54.54 54.664,54.24 55.034,53.857C55.705,53.161 56.659,52.567 57.096,52.571C57.4,52.575 58.061,52.903 58.311,53.175C58.967,53.888 59.176,55.283 58.751,56.104C58.387,56.806 57.411,57.377 56.708,57.297C56.457,57.269 56.409,57.217 56.383,56.946C56.356,56.668 56.387,56.62 56.63,56.566C57.301,56.417 57.558,56.292 57.832,55.98C58.222,55.536 58.291,55.161 58.103,54.513C57.622,52.861 56.429,53.193 54.692,55.461C54.6,55.582 54.564,55.898 54.577,56.482C54.597,57.415 54.468,57.955 54.188,58.104C53.939,58.238 53.84,58.228 53.696,58.055ZM60.162,55.997C60.059,55.728 60.162,55.49 60.442,55.356C60.654,55.255 60.713,55.158 60.713,54.907C60.713,54.309 60.111,52.371 59.926,52.371C59.886,52.371 59.771,52.463 59.671,52.574C59.426,52.844 58.995,52.799 58.952,52.5C58.886,52.037 59.705,51.325 60.22,51.398C60.397,51.423 60.523,51.553 60.674,51.867L60.882,52.301L61.325,51.62C62.364,50.021 63.369,49.464 64.248,50C64.426,50.108 64.586,50.197 64.604,50.197C64.622,50.197 64.78,49.915 64.955,49.569C65.354,48.784 66.032,48.001 66.603,47.666C67.195,47.319 67.602,47.396 68.168,47.962C68.671,48.465 68.915,49.11 68.915,49.937L68.915,50.531L69.216,50.243C69.381,50.085 69.592,49.739 69.685,49.474C69.877,48.928 70.1,48.753 70.398,48.912C70.875,49.167 70.403,50.3 69.463,51.157C68.466,52.066 65.29,53.963 62.423,55.361C60.945,56.082 60.268,56.273 60.162,55.997ZM62.856,54.235C63.827,53.718 64.039,53.561 64.282,53.178C64.498,52.837 64.567,52.609 64.567,52.235C64.567,51.573 64.247,50.922 63.822,50.719C63.519,50.575 63.475,50.577 63.167,50.757C62.747,51.002 62.045,51.873 61.61,52.688L61.271,53.322L61.401,54.082C61.473,54.5 61.573,54.842 61.624,54.842C61.674,54.842 62.229,54.569 62.856,54.235ZM66.84,52.018C67.632,51.519 68.125,50.753 68.124,50.027C68.123,49.185 67.65,48.319 67.191,48.319C66.832,48.319 66,49.285 65.548,50.227C65.208,50.934 65.166,51.091 65.255,51.323C65.311,51.472 65.358,51.883 65.358,52.237L65.358,52.88L65.926,52.558C66.238,52.381 66.65,52.138 66.84,52.018ZM28.049,55.406C26.837,54.911 24.199,53.236 21.823,51.451C19.805,49.937 19.509,49.632 19.684,49.249C19.812,48.968 20.142,48.935 20.409,49.177C20.583,49.334 20.613,49.322 20.991,48.955C21.35,48.604 22.431,47.049 22.35,46.998C22.332,46.987 22.188,46.935 22.031,46.882C21.656,46.758 21.49,46.501 21.635,46.269C21.792,46.019 22.195,46.005 22.709,46.232C23.336,46.51 23.44,46.814 23.109,47.405C22.972,47.65 22.86,47.86 22.86,47.872C22.86,47.885 23.25,47.922 23.725,47.955C24.433,48.004 24.706,48.074 25.232,48.34C25.762,48.608 25.914,48.743 26.097,49.106C26.228,49.365 26.319,49.728 26.319,49.984L26.319,50.42L26.71,50.358C27.8,50.183 29.445,50.73 29.793,51.382C30.308,52.349 29.687,53.894 28.551,54.472L28.263,54.618L28.64,54.743C28.86,54.815 29.25,54.846 29.578,54.816C30.231,54.757 30.47,54.857 30.47,55.191C30.47,55.802 29.279,55.908 28.049,55.406ZM28.026,53.798C28.394,53.71 29.066,52.929 29.148,52.494C29.264,51.875 29.112,51.657 28.394,51.406C27.877,51.224 27.593,51.188 26.93,51.215L26.108,51.25L25.744,51.657C25.544,51.881 25.233,52.151 25.052,52.256L24.723,52.448L25.546,52.988C26.754,53.78 27.216,53.985 27.604,53.897C27.686,53.878 27.875,53.834 28.026,53.798ZM24.751,51.426C25.066,51.263 25.526,50.436 25.528,50.029C25.531,49.258 24.866,48.895 23.329,48.832C22.286,48.789 22.25,48.794 22.09,49.023C21.999,49.152 21.784,49.415 21.611,49.607L21.296,49.955L22.283,50.694C22.825,51.1 23.344,51.463 23.435,51.5C23.739,51.623 24.447,51.583 24.751,51.426ZM51.394,53.298C51.12,53.025 51.851,51.49 52.688,50.581C53.315,49.899 53.732,49.722 54.306,49.894C55.06,50.12 55.274,50.912 54.836,51.853C54.585,52.39 54.505,52.441 54.183,52.269C53.95,52.144 53.944,51.962 54.152,51.415C54.348,50.902 54.282,50.691 53.927,50.691C53.548,50.691 52.984,51.335 52.41,52.424C52.039,53.128 51.893,53.316 51.703,53.34C51.572,53.356 51.433,53.337 51.394,53.298ZM36.753,53.106C36.408,52.761 36.489,52.666 37.956,51.696C39.154,50.905 39.489,50.822 39.544,51.305C39.57,51.529 39.491,51.633 39.055,51.947C38.385,52.429 37.072,53.261 36.98,53.261C36.94,53.261 36.839,53.191 36.753,53.106ZM62.497,48.917C62.385,48.806 62.294,48.646 62.294,48.562C62.294,48.386 62.725,47.924 62.889,47.924C63.157,47.924 63.381,48.142 63.381,48.403C63.381,48.959 62.848,49.269 62.497,48.917ZM27.505,48.122C27.248,47.864 27.253,47.479 27.517,47.295C27.782,47.109 28.098,47.215 28.291,47.555C28.616,48.125 27.973,48.589 27.505,48.122ZM64.204,47.764C64.053,47.533 64.05,47.479 64.181,47.247C64.366,46.917 64.792,46.753 65.006,46.931C65.361,47.225 65.042,48.023 64.569,48.023C64.462,48.023 64.298,47.907 64.204,47.764ZM62.766,47.075C62.602,46.715 62.836,46.306 63.231,46.26C63.736,46.202 63.956,46.756 63.579,47.133C63.294,47.418 62.91,47.391 62.766,47.075ZM63.776,32.846C63.097,32.381 61.471,31.361 60.163,30.578C57.915,29.232 57.256,28.752 56.897,28.205C56.709,27.918 56.792,27.599 57.078,27.508C57.247,27.455 57.373,27.541 57.725,27.948C57.964,28.227 58.19,28.455 58.226,28.455C58.262,28.455 58.276,28.143 58.258,27.762C58.189,26.29 59.098,25.433 60.183,25.947C60.67,26.178 61.431,26.892 61.793,27.456L62.104,27.941L62.489,27.79C63.195,27.513 63.843,27.799 64.522,28.687C64.715,28.94 64.978,29.373 65.106,29.651L65.34,30.155L65.508,29.898C65.765,29.506 66.239,29.542 66.627,29.984C66.927,30.326 67.117,30.915 66.992,31.116C66.871,31.313 66.463,31.227 66.253,30.96C66.139,30.815 66.031,30.715 66.012,30.737C65.992,30.759 65.793,31.114 65.568,31.527C65.142,32.309 65.057,32.792 65.308,33.001C65.562,33.211 64.456,33.31 63.776,32.846ZM64.564,31.649C64.803,31.11 64.761,30.901 64.196,29.812C63.782,29.013 63.277,28.529 62.907,28.572C62.551,28.614 62.271,29.123 62.271,29.726C62.271,30.262 62.445,30.656 62.853,31.043C63.166,31.341 64.182,32.09 64.291,32.103C64.329,32.107 64.452,31.903 64.564,31.649ZM61.3,28.247C60.891,27.445 60.023,26.676 59.526,26.676C59.128,26.676 58.912,27.577 59.146,28.267C59.346,28.855 59.608,29.12 60.492,29.628L61.355,30.124L61.431,29.388C61.497,28.743 61.481,28.601 61.3,28.247ZM24.17,33.246C24.048,33.159 23.948,33.027 23.948,32.953C23.948,32.724 24.243,32.506 24.552,32.506C24.822,32.506 25.43,32.266 25.43,32.16C25.43,32.135 25.263,32.03 25.059,31.925C23.819,31.289 23.533,29.666 24.535,28.953C25.06,28.579 25.719,28.345 26.41,28.287L27.088,28.23L27.141,27.832C27.277,26.815 28.438,26.176 29.907,26.309L30.485,26.362L30.42,25.979C30.336,25.481 30.417,25.249 30.724,25.109C31.035,24.968 31.705,24.961 31.959,25.098C32.375,25.32 32.117,25.786 31.579,25.786C31.255,25.786 31.247,25.795 31.312,26.107C31.349,26.284 31.541,26.761 31.74,27.168C32.099,27.904 32.103,27.908 32.496,27.909C32.868,27.911 32.892,27.928 32.892,28.204C32.892,28.475 32.806,28.545 31.736,29.143C30.139,30.035 27.233,31.857 26.429,32.469C25.618,33.087 25.302,33.254 24.788,33.338C24.502,33.385 24.33,33.359 24.17,33.246ZM26.294,31.328C26.469,31.278 26.991,30.984 27.454,30.676C28.237,30.155 28.454,29.937 28.186,29.937C28.126,29.937 27.874,29.731 27.626,29.48L27.176,29.023L26.549,29.088C24.942,29.252 24.296,30.019 25.045,30.872C25.213,31.064 25.491,31.262 25.662,31.311C25.834,31.361 25.974,31.406 25.974,31.41C25.975,31.415 26.118,31.378 26.294,31.328ZM30.337,28.887C30.818,28.636 31.248,28.397 31.293,28.356C31.338,28.315 31.261,28.055 31.121,27.779C30.851,27.245 30.927,27.284 29.797,27.11C29.297,27.033 28.4,27.255 28.133,27.521C27.539,28.115 28.184,29.344 29.091,29.344C29.341,29.344 29.748,29.195 30.337,28.887ZM41.125,30.057C40.355,29.205 39.928,27.858 39.763,25.768C39.66,24.474 39.441,23.663 39.065,23.184C38.835,22.893 38.815,22.595 39.014,22.43C39.382,22.124 39.893,22.698 40.262,23.832C40.457,24.432 40.527,24.529 40.965,24.81C41.352,25.058 41.588,25.131 42.123,25.169C42.941,25.228 43.423,25.085 43.76,24.685C44.284,24.062 43.945,23.284 43.032,23.01C42.699,22.91 42.545,22.91 42.278,23.006C41.552,23.269 41.225,22.6 41.904,22.243C42.229,22.072 43.117,22.11 43.565,22.314C44.025,22.523 44.668,23.197 44.761,23.566C44.978,24.431 44.498,25.366 43.632,25.766C42.775,26.161 41.862,26.121 40.715,25.637C40.544,25.565 40.537,25.604 40.6,26.241C40.745,27.701 41.158,28.875 41.788,29.624C42.117,30.015 42.09,30.369 41.728,30.411C41.536,30.434 41.387,30.346 41.125,30.057ZM55.573,28.257C55.363,28.047 55.328,27.8 55.364,26.774L55.386,26.132L54.843,25.529C54.524,25.175 54.073,24.808 53.751,24.64C53.233,24.369 53.186,24.362 52.93,24.504C52.112,24.96 52.596,26.675 53.542,26.675C53.943,26.675 54.281,27.002 54.13,27.243C53.929,27.561 53.728,27.615 53.232,27.482C52.973,27.413 52.621,27.25 52.451,27.12C52.05,26.814 51.719,26.103 51.719,25.548C51.719,25.151 51.676,25.074 51.249,24.697C50.664,24.181 50.164,23.922 49.608,23.845C49.232,23.794 49.156,23.816 49.015,24.017C48.671,24.509 48.943,25.589 49.483,25.878C49.622,25.953 49.9,26.04 50.099,26.073C50.529,26.143 50.734,26.392 50.572,26.651C50.316,27.059 49.24,26.834 48.678,26.254C47.924,25.476 47.855,24.065 48.535,23.29C49.006,22.753 50.157,22.927 51.291,23.708C51.908,24.133 52.015,24.176 52.124,24.045C52.335,23.79 52.778,23.612 53.2,23.612C53.731,23.612 54.42,23.97 55.118,24.608C55.427,24.89 55.689,25.103 55.7,25.083C55.712,25.062 55.79,24.911 55.873,24.748C56.078,24.347 56.464,24.308 56.941,24.639C57.381,24.945 57.579,25.243 57.501,25.487C57.412,25.768 57.16,25.809 56.805,25.599L56.482,25.409L56.356,25.869C56.286,26.122 56.226,26.765 56.221,27.298C56.215,28.039 56.178,28.288 56.066,28.359C55.856,28.491 55.795,28.479 55.573,28.257ZM24.905,27.649C24.653,27.508 24.701,27.114 24.999,26.88C25.332,26.618 25.591,26.62 25.733,26.885C25.939,27.271 25.294,27.866 24.905,27.649ZM33.966,27.562C33.561,27.437 32.982,26.789 32.849,26.312C32.583,25.353 32.882,24.426 33.584,24.034C34.139,23.723 35.279,23.728 36.268,24.045C36.467,24.109 36.478,24.088 36.429,23.726C36.338,23.042 36.817,22.776 37.699,23.021C38.143,23.144 38.315,23.338 38.227,23.616C38.169,23.799 38.099,23.823 37.714,23.792L37.268,23.757L37.326,24.253C37.415,25.011 37.663,25.745 37.942,26.076C38.209,26.393 38.2,26.707 37.921,26.814C37.563,26.952 37.081,26.428 36.828,25.627C36.668,25.117 36.639,25.086 36.11,24.884C35.808,24.769 35.24,24.652 34.849,24.624C34.153,24.576 34.13,24.582 33.824,24.888C33.535,25.176 33.514,25.243 33.558,25.699C33.645,26.605 34.239,27.036 34.977,26.727C35.175,26.644 35.419,26.577 35.519,26.577C35.738,26.577 35.929,26.895 35.844,27.117C35.698,27.497 34.601,27.757 33.966,27.562ZM26.69,26.47C26.271,26.226 26.626,25.588 27.181,25.588C27.69,25.588 27.693,26.068 27.186,26.423C26.932,26.602 26.918,26.603 26.69,26.47ZM25.257,26.116C25.031,26.025 25.115,25.518 25.394,25.299C25.706,25.054 25.858,25.042 26.065,25.25C26.282,25.466 26.262,25.562 25.932,25.892C25.651,26.173 25.513,26.219 25.257,26.116ZM62.739,26.067C62.259,25.805 62.151,25.353 62.527,25.181C63.022,24.956 63.707,25.641 63.38,26.034C63.237,26.207 63.014,26.218 62.739,26.067ZM52.62,22.749C52.46,22.598 52.011,22.102 51.623,21.645C51.081,21.006 50.925,20.755 50.948,20.558C50.969,20.375 51.044,20.291 51.208,20.268C51.494,20.228 51.661,20.374 52.574,21.466C53.336,22.378 53.464,22.726 53.106,22.918C52.948,23.003 52.858,22.972 52.62,22.749ZM35.066,22.427C34.73,22.206 34.424,21.699 34.424,21.363C34.424,21.239 34.568,20.981 34.745,20.788C35.486,19.982 36.781,20.174 38.223,21.306C38.69,21.672 38.779,21.791 38.753,22.012C38.704,22.443 38.315,22.414 37.714,21.936C36.798,21.207 35.821,20.937 35.357,21.285C35.172,21.423 35.181,21.444 35.591,21.823C35.961,22.165 36.003,22.244 35.909,22.42C35.772,22.676 35.449,22.679 35.066,22.427Z" style="fill-rule:nonzero;"/>
    </g>
    <defs>
        <linearGradient id="_Linear1" x1="0" y1="0" x2="1" y2="0" gradientUnits="userSpaceOnUse" gradientTransform="matrix(64.8794,-31.3462,31.3462,64.8794,17.7015,64.1223)"><stop offset="0" style="stop-color:rgb(97,44,117);stop-opacity:1"/><stop offset="0.3" style="stop-color:rgb(123,81,144);stop-opacity:1"/><stop offset="0.5" style="stop-color:rgb(191,153,195);stop-opacity:1"/><stop offset="0.7" style="stop-color:rgb(123,81,144);stop-opacity:1"/><stop offset="1" style="stop-color:rgb(97,44,117);stop-opacity:1"/></linearGradient>
        <linearGradient id="_Linear2" x1="0" y1="0" x2="1" y2="0" gradientUnits="userSpaceOnUse" gradientTransform="matrix(52.7388,-32.2924,32.2924,52.7388,19.6413,58.3188)"><stop offset="0" style="stop-color:rgb(97,44,117);stop-opacity:1"/><stop offset="0.3" style="stop-color:rgb(123,81,144);stop-opacity:1"/><stop offset="0.5" style="stop-color:rgb(191,153,195);stop-opacity:1"/><stop offset="0.7" style="stop-color:rgb(123,81,144);stop-opacity:1"/><stop offset="1" style="stop-color:rgb(97,44,117);stop-opacity:1"/></linearGradient>
    </defs>
</svg>
