<?xml version="1.0" encoding="UTF-8" standalone="no"?>
<!-- Created with Inkscape (http://www.inkscape.org/) -->

<svg
   width="23.639311mm"
   height="15.507145mm"
   viewBox="0 0 23.639311 15.507145"
   version="1.1"
   id="svg1"
   inkscape:version="1.3.2 (091e20ef0f, 2023-11-25, custom)"
   sodipodi:docname="U.svg"
   xmlns:inkscape="http://www.inkscape.org/namespaces/inkscape"
   xmlns:sodipodi="http://sodipodi.sourceforge.net/DTD/sodipodi-0.dtd"
   xmlns="http://www.w3.org/2000/svg"
   xmlns:svg="http://www.w3.org/2000/svg">
  <sodipodi:namedview
     id="namedview1"
     pagecolor="#ffffff"
     bordercolor="#666666"
     borderopacity="1.0"
     inkscape:showpageshadow="2"
     inkscape:pageopacity="0.0"
     inkscape:pagecheckerboard="0"
     inkscape:deskcolor="#d1d1d1"
     inkscape:document-units="mm"
     inkscape:zoom="0.2102413"
     inkscape:cx="-95.128787"
     inkscape:cy="280.62992"
     inkscape:window-width="2554"
     inkscape:window-height="278"
     inkscape:window-x="1920"
     inkscape:window-y="850"
     inkscape:window-maximized="1"
     inkscape:current-layer="layer1" />
  <defs
     id="defs1">
    <linearGradient
       id="_Linear1"
       x1="0"
       y1="0"
       x2="1"
       y2="0"
       gradientUnits="userSpaceOnUse"
       gradientTransform="matrix(1.8922947,-1.8962026,1.8962026,1.8922947,132.70949,89.590536)">
      <stop
         offset="0"
         style="stop-color:#626e77;stop-opacity:1"
         id="stop6" />
      <stop
         offset="0.04"
         style="stop-color:#697780;stop-opacity:1"
         id="stop7" />
      <stop
         offset="0.11"
         style="stop-color:#7d8e98;stop-opacity:1"
         id="stop8" />
      <stop
         offset="0.2"
         style="stop-color:#9eb4c0;stop-opacity:1"
         id="stop9" />
      <stop
         offset="0.2"
         style="stop-color:#a0b6c2;stop-opacity:1"
         id="stop10" />
      <stop
         offset="0.2"
         style="stop-color:#a1b7c3;stop-opacity:1"
         id="stop11" />
      <stop
         offset="0.29"
         style="stop-color:#adc6d4;stop-opacity:1"
         id="stop12" />
      <stop
         offset="0.38"
         style="stop-color:#b5cede;stop-opacity:1"
         id="stop13" />
      <stop
         offset="0.5"
         style="stop-color:#b7d1e1;stop-opacity:1"
         id="stop14" />
      <stop
         offset="0.62"
         style="stop-color:#b5cede;stop-opacity:1"
         id="stop15" />
      <stop
         offset="0.71"
         style="stop-color:#adc6d4;stop-opacity:1"
         id="stop16" />
      <stop
         offset="0.8"
         style="stop-color:#a1b7c3;stop-opacity:1"
         id="stop17" />
      <stop
         offset="0.8"
         style="stop-color:#a0b6c2;stop-opacity:1"
         id="stop18" />
      <stop
         offset="0.85"
         style="stop-color:#8b9da8;stop-opacity:1"
         id="stop19" />
      <stop
         offset="0.91"
         style="stop-color:#74838d;stop-opacity:1"
         id="stop20" />
      <stop
         offset="0.96"
         style="stop-color:#67747d;stop-opacity:1"
         id="stop21" />
      <stop
         offset="1"
         style="stop-color:#626e77;stop-opacity:1"
         id="stop22" />
    </linearGradient>
    <linearGradient
       id="_Linear2"
       x1="0"
       y1="0"
       x2="1"
       y2="0"
       gradientUnits="userSpaceOnUse"
       gradientTransform="matrix(17.166008,-8.293682,8.293682,17.166008,133.69877,86.926023)">
      <stop
         offset="0"
         style="stop-color:#626e77;stop-opacity:1"
         id="stop23" />
      <stop
         offset="0.04"
         style="stop-color:#697780;stop-opacity:1"
         id="stop24" />
      <stop
         offset="0.11"
         style="stop-color:#7d8e98;stop-opacity:1"
         id="stop25" />
      <stop
         offset="0.2"
         style="stop-color:#9eb4c0;stop-opacity:1"
         id="stop26" />
      <stop
         offset="0.2"
         style="stop-color:#a0b6c2;stop-opacity:1"
         id="stop27" />
      <stop
         offset="0.2"
         style="stop-color:#a1b7c3;stop-opacity:1"
         id="stop28" />
      <stop
         offset="0.29"
         style="stop-color:#adc6d4;stop-opacity:1"
         id="stop29" />
      <stop
         offset="0.38"
         style="stop-color:#b5cede;stop-opacity:1"
         id="stop30" />
      <stop
         offset="0.5"
         style="stop-color:#b7d1e1;stop-opacity:1"
         id="stop31" />
      <stop
         offset="0.62"
         style="stop-color:#b5cede;stop-opacity:1"
         id="stop32" />
      <stop
         offset="0.71"
         style="stop-color:#adc6d4;stop-opacity:1"
         id="stop33" />
      <stop
         offset="0.8"
         style="stop-color:#a1b7c3;stop-opacity:1"
         id="stop34" />
      <stop
         offset="0.8"
         style="stop-color:#a0b6c2;stop-opacity:1"
         id="stop35" />
      <stop
         offset="0.85"
         style="stop-color:#8b9da8;stop-opacity:1"
         id="stop36" />
      <stop
         offset="0.91"
         style="stop-color:#74838d;stop-opacity:1"
         id="stop37" />
      <stop
         offset="0.96"
         style="stop-color:#67747d;stop-opacity:1"
         id="stop38" />
      <stop
         offset="1"
         style="stop-color:#626e77;stop-opacity:1"
         id="stop39" />
    </linearGradient>
    <linearGradient
       id="_Linear3"
       x1="0"
       y1="0"
       x2="1"
       y2="0"
       gradientUnits="userSpaceOnUse"
       gradientTransform="matrix(13.953807,-8.5440307,8.5440307,13.953807,134.21201,85.390513)">
      <stop
         offset="0"
         style="stop-color:#626e77;stop-opacity:1"
         id="stop40" />
      <stop
         offset="0.04"
         style="stop-color:#697780;stop-opacity:1"
         id="stop41" />
      <stop
         offset="0.11"
         style="stop-color:#7d8e98;stop-opacity:1"
         id="stop42" />
      <stop
         offset="0.2"
         style="stop-color:#9eb4c0;stop-opacity:1"
         id="stop43" />
      <stop
         offset="0.2"
         style="stop-color:#a0b6c2;stop-opacity:1"
         id="stop44" />
      <stop
         offset="0.2"
         style="stop-color:#a1b7c3;stop-opacity:1"
         id="stop45" />
      <stop
         offset="0.29"
         style="stop-color:#adc6d4;stop-opacity:1"
         id="stop46" />
      <stop
         offset="0.38"
         style="stop-color:#b5cede;stop-opacity:1"
         id="stop47" />
      <stop
         offset="0.5"
         style="stop-color:#b7d1e1;stop-opacity:1"
         id="stop48" />
      <stop
         offset="0.62"
         style="stop-color:#b5cede;stop-opacity:1"
         id="stop49" />
      <stop
         offset="0.71"
         style="stop-color:#adc6d4;stop-opacity:1"
         id="stop50" />
      <stop
         offset="0.8"
         style="stop-color:#a1b7c3;stop-opacity:1"
         id="stop51" />
      <stop
         offset="0.8"
         style="stop-color:#a0b6c2;stop-opacity:1"
         id="stop52" />
      <stop
         offset="0.85"
         style="stop-color:#8b9da8;stop-opacity:1"
         id="stop53" />
      <stop
         offset="0.91"
         style="stop-color:#74838d;stop-opacity:1"
         id="stop54" />
      <stop
         offset="0.96"
         style="stop-color:#67747d;stop-opacity:1"
         id="stop55" />
      <stop
         offset="1"
         style="stop-color:#626e77;stop-opacity:1"
         id="stop56" />
    </linearGradient>
  </defs>
  <g
     inkscape:label="Layer 1"
     inkscape:groupmode="layer"
     id="layer1"
     transform="translate(-129.11703,-74.083333)">
    <path
       d="m 151.73679,76.433891 c 0.37148,0 0.71358,0.201877 0.89297,0.527315 0.17912,0.325173 0.16748,0.722048 -0.0307,1.036108 -2.6e-4,7.94e-4 -7.9e-4,0.0013 -0.001,0.0019 -3.00567,4.733661 -6.98897,8.553715 -11.24823,11.459104 -0.25823,0.176213 -0.59822,0.176213 -0.85672,0 -4.25926,-2.905654 -8.21399,-6.725443 -11.21807,-11.459104 -5.3e-4,-7.93e-4 -7.9e-4,-0.0013 -10e-4,-0.0019 -0.19791,-0.31406 -0.20955,-0.7112 -0.0302,-1.036373 0.17938,-0.325173 0.52122,-0.52705 0.8927,-0.52705 z"
       id="path1"
       style="clip-rule:evenodd;fill-rule:evenodd;stroke-width:0.264583;stroke-linejoin:round;stroke-miterlimit:2" />
    <path
       d="m 151.73679,77.194039 c 0.0947,0 0.18151,0.05133 0.22728,0.134144 0.0455,0.08282 0.0426,0.183621 -0.008,0.263525 -2.94799,4.643173 -6.85694,8.388614 -11.03471,11.238706 -4.17751,-2.850092 -8.05815,-6.595533 -11.00455,-11.238706 -0.0505,-0.0799 -0.0534,-0.18071 -0.008,-0.263525 0.0458,-0.08281 0.13282,-0.134144 0.22728,-0.134144 z"
       style="clip-rule:evenodd;fill:url(#_Linear1);fill-rule:evenodd;stroke-width:0.264583;stroke-linejoin:round;stroke-miterlimit:2"
       id="path2" />
    <path
       d="m 140.92142,74.083333 c 2.81861,0 5.37157,0.700088 7.32869,2.728648 0.70935,0.735277 1.2581,2.037292 1.2581,4.088077 0,0 0.0288,1.631421 -0.45773,2.503487 -1.43113,2.56593 -4.33599,4.290748 -8.12906,4.290748 -3.79307,0 -6.69766,-1.724818 -8.12879,-4.290748 -0.48657,-0.872066 -0.458,-2.503487 -0.458,-2.503487 0,-2.050785 0.54901,-3.3528 1.25836,-4.088077 1.95686,-2.02856 4.51009,-2.728648 7.32843,-2.728648 z m 4.84981,6.914356 c -1.83409,-1.656556 -3.3655,-2.207948 -4.84981,-2.207948 -1.51077,0 -3.10065,0.422275 -4.9821,2.136511 1.73011,0.954352 3.97774,1.321064 4.9821,1.321064 0.97922,0 3.13928,-0.348456 4.84981,-1.249627 z"
       id="path3"
       style="clip-rule:evenodd;fill-rule:evenodd;stroke-width:0.264583;stroke-linejoin:round;stroke-miterlimit:2" />
    <path
       d="m 140.92142,82.86697 c 1.85473,0 7.70281,-1.176866 7.70281,-4.76832 0.59717,1.402556 0.65485,3.642518 0.24818,4.634441 -0.97472,2.377546 -4.08119,4.459288 -7.95099,4.459288 -3.86953,0 -6.976,-2.081742 -7.95073,-4.459288 -0.40666,-0.991923 -0.34898,-3.231885 0.24818,-4.634441 0,3.591454 5.84809,4.76832 7.70255,4.76832 z"
       style="clip-rule:evenodd;fill:url(#_Linear2);fill-rule:evenodd;stroke-width:0.264583;stroke-linejoin:round;stroke-miterlimit:2"
       id="path4" />
    <path
       d="m 140.92142,78.170087 c -1.70974,0 -3.52187,0.482336 -5.68325,2.564077 -0.61172,-0.471752 -1.53935,-1.171575 -1.53935,-2.207419 0,-1.035843 0.82709,-2.023268 1.57295,-2.477029 1.19221,-0.724958 2.65562,-1.46341 5.64965,-1.46341 2.99402,0 4.47913,0.899319 5.67134,1.624542 0.74586,0.45376 1.57295,1.44092 1.57295,2.476764 0,1.035844 -0.97922,1.740694 -1.5912,2.212446 -2.16112,-2.082006 -3.94309,-2.729971 -5.65309,-2.729971 z"
       style="clip-rule:evenodd;fill:url(#_Linear3);fill-rule:evenodd;stroke-width:0.264583;stroke-linejoin:round;stroke-miterlimit:2"
       id="path5" />
    <path
       d="m 142.16496,86.887579 c -0.054,-0.05398 -0.0548,-0.05027 0.0484,-0.206111 0.19368,-0.291571 0.26829,-0.727339 0.1987,-1.158875 -0.0458,-0.283633 -0.046,-0.283898 -0.14129,-0.193675 -0.0447,0.0426 -0.12858,0.100807 -0.186,0.129117 -0.40587,0.200025 -0.84905,0.110067 -1.01573,-0.205846 -0.18548,-0.35216 0.0177,-0.751417 0.44635,-0.875771 0.11986,-0.03493 0.15584,-0.03572 0.25003,-0.0061 0.082,0.02619 0.11218,0.05027 0.11853,0.09525 0.0143,0.100806 -0.0362,0.134673 -0.17621,0.118004 -0.15557,-0.01826 -0.27834,0.03545 -0.40693,0.177535 -0.0749,0.08308 -0.0921,0.122503 -0.0921,0.21299 2.6e-4,0.287073 0.26696,0.437092 0.61436,0.346075 0.19288,-0.05054 0.3302,-0.138377 0.4281,-0.273579 0.0632,-0.08731 0.0765,-0.134938 0.0881,-0.319617 0.0228,-0.361156 0.099,-0.5334 0.22172,-0.501121 0.0796,0.02064 0.0905,0.07197 0.0394,0.185209 -0.0606,0.134408 -0.0593,0.692414 0.002,0.997214 0.11324,0.561446 0.005,1.164961 -0.25956,1.450711 -0.0738,0.07964 -0.11986,0.08705 -0.17833,0.02858 z m -3.01149,-1.329796 c -0.0865,-0.03757 -0.12276,-0.09552 -0.0987,-0.157956 0.0222,-0.05794 0.10478,-0.07355 0.20797,-0.03942 0.12991,0.04286 0.24871,0.01323 0.34448,-0.08599 0.10266,-0.106362 0.13706,-0.197114 0.13706,-0.360892 0,-0.188383 -0.0545,-0.233627 -0.28099,-0.233627 -0.18891,2.65e-4 -0.31485,0.02725 -0.50509,0.108215 -0.0929,0.03969 -0.12673,0.07117 -0.15266,0.14314 -0.11219,0.310356 -0.47546,0.461697 -0.76174,0.317235 -0.10477,-0.05265 -0.11668,-0.06826 -0.11668,-0.149754 0,-0.116417 0.0519,-0.128852 0.21193,-0.05133 0.10425,0.05027 0.13229,0.05397 0.21934,0.02778 0.13679,-0.04101 0.25347,-0.180181 0.2757,-0.328613 0.0505,-0.335491 -0.1405,-0.44106 -0.59584,-0.329406 -0.32491,0.07964 -0.35084,0.09472 -0.42096,0.247386 -0.0743,0.161925 -0.18679,0.299243 -0.27146,0.331258 -0.14684,0.05583 -0.22966,-0.114829 -0.0976,-0.201348 0.0876,-0.05742 0.18071,-0.219869 0.26061,-0.455348 0.0826,-0.242094 0.0836,-0.290248 0.006,-0.283633 -0.11588,0.0098 -0.14949,-0.0042 -0.16589,-0.06879 -0.0265,-0.105569 0.0275,-0.143669 0.20294,-0.143669 0.13149,0 0.1651,0.01032 0.22198,0.0672 0.0693,0.06932 0.0691,0.06244 0.0172,0.288132 l -0.0127,0.05477 0.17886,-0.04657 c 0.2069,-0.05398 0.45905,-0.06271 0.58658,-0.02011 0.12356,0.04127 0.25453,0.172509 0.28998,0.289984 0.0161,0.0545 0.0339,0.09895 0.0392,0.09895 0.006,0 0.0831,-0.02513 0.17251,-0.05583 0.21378,-0.07329 0.59399,-0.08202 0.7157,-0.01614 0.13573,0.07329 0.20531,0.213519 0.20425,0.411692 -0.001,0.277283 -0.13731,0.516731 -0.35771,0.629973 -0.11404,0.05874 -0.33444,0.06482 -0.45456,0.0127 z m 4.06877,-0.237067 c -0.0201,-0.02461 -0.0254,-0.06615 -0.0135,-0.111125 0.0423,-0.162454 0.0426,-0.364596 5.3e-4,-0.597958 -0.0243,-0.134938 -0.0484,-0.245533 -0.0534,-0.245533 -0.005,0 -0.0519,0.02513 -0.10425,0.05609 l -0.095,0.05609 -0.0542,-0.0545 c -0.0516,-0.05133 -0.0521,-0.05794 -0.0114,-0.120121 0.0238,-0.03625 0.096,-0.09684 0.16086,-0.134673 0.1614,-0.09472 0.24739,-0.06747 0.29819,0.09446 0.0201,0.0635 0.0392,0.119063 0.0423,0.123296 0.003,0.004 0.0863,-0.07541 0.18389,-0.176742 0.1778,-0.18415 0.43021,-0.341312 0.54583,-0.340254 0.0802,0.0011 0.25506,0.08784 0.32121,0.159809 0.17357,0.188647 0.22913,0.557741 0.11642,0.774964 -0.096,0.185738 -0.35455,0.336815 -0.54055,0.315648 -0.0664,-0.0074 -0.0791,-0.02117 -0.086,-0.09287 -0.007,-0.07355 0.001,-0.08625 0.0654,-0.100541 0.1778,-0.03942 0.2458,-0.0725 0.31803,-0.155046 0.10319,-0.117475 0.12145,-0.216694 0.0717,-0.388144 -0.127,-0.437092 -0.44292,-0.34925 -0.9025,0.250825 -0.0243,0.03202 -0.0339,0.115623 -0.0304,0.27014 0.006,0.246856 -0.0288,0.389731 -0.10265,0.429154 -0.0661,0.03545 -0.0923,0.03281 -0.13044,-0.01296 z m 1.71106,-0.544512 c -0.0275,-0.07117 0,-0.134144 0.0738,-0.169598 0.0564,-0.02672 0.0717,-0.05239 0.0717,-0.118798 0,-0.158221 -0.15902,-0.670983 -0.20823,-0.670983 -0.0106,0 -0.0408,0.02434 -0.0675,0.05371 -0.0646,0.07144 -0.17886,0.05953 -0.19023,-0.01958 -0.0172,-0.122502 0.19923,-0.310886 0.33549,-0.291571 0.0468,0.0066 0.0804,0.04101 0.12012,0.12409 l 0.0553,0.114829 0.11694,-0.180182 c 0.2749,-0.423068 0.54108,-0.570441 0.77338,-0.428624 0.0471,0.02857 0.0897,0.05212 0.0942,0.05212 0.005,0 0.0466,-0.07461 0.0929,-0.166158 0.10557,-0.207698 0.28496,-0.414867 0.4363,-0.503502 0.15663,-0.09181 0.26405,-0.07144 0.41381,0.07832 0.13335,0.133085 0.1979,0.303741 0.1979,0.522552 v 0.157162 l 0.0794,-0.0762 c 0.0437,-0.0418 0.0995,-0.13335 0.12435,-0.203464 0.0505,-0.144463 0.10954,-0.190765 0.18839,-0.148696 0.1262,0.06747 0.001,0.367241 -0.24712,0.593989 -0.26379,0.240507 -1.10437,0.742421 -1.86267,1.112309 -0.39105,0.190764 -0.57044,0.2413 -0.59822,0.168275 z m 0.71252,-0.466196 c 0.25717,-0.13679 0.313,-0.178329 0.3773,-0.279665 0.0572,-0.09022 0.0754,-0.150548 0.0754,-0.249502 0,-0.175154 -0.0847,-0.347398 -0.19711,-0.401108 -0.0799,-0.0381 -0.0918,-0.03757 -0.17304,0.01005 -0.11139,0.06482 -0.29713,0.295275 -0.41222,0.51091 l -0.0897,0.167746 0.0344,0.201084 c 0.019,0.110595 0.0455,0.201083 0.059,0.201083 0.0135,0 0.16008,-0.07223 0.32597,-0.160602 z m 1.0541,-0.586581 c 0.20955,-0.132027 0.34025,-0.334698 0.33999,-0.526786 -5.3e-4,-0.222779 -0.12568,-0.451908 -0.24686,-0.451908 -0.0952,0 -0.31538,0.255587 -0.43497,0.504825 -0.0897,0.18706 -0.10081,0.2286 -0.0775,0.289983 0.0151,0.03942 0.0272,0.148167 0.0272,0.241829 v 0.170127 l 0.15028,-0.08519 c 0.0828,-0.04683 0.19156,-0.111125 0.24183,-0.142875 z m -10.26345,0.896408 c -0.32068,-0.130969 -1.01838,-0.574146 -1.6473,-1.046427 -0.53393,-0.400579 -0.61198,-0.481277 -0.56594,-0.582613 0.0339,-0.07435 0.12118,-0.08308 0.19182,-0.01905 0.046,0.04154 0.0542,0.03836 0.15399,-0.05874 0.0952,-0.09287 0.381,-0.504296 0.35957,-0.51779 -0.005,-0.0029 -0.0429,-0.01667 -0.0844,-0.03069 -0.0992,-0.03281 -0.14314,-0.100807 -0.10452,-0.16219 0.0413,-0.06615 0.14791,-0.06985 0.2839,-0.0098 0.1659,0.07355 0.19341,0.153987 0.1061,0.310356 -0.0363,0.06482 -0.0659,0.120385 -0.0659,0.12356 0,0.0034 0.10292,0.01323 0.2286,0.02196 0.18732,0.01296 0.25982,0.03149 0.39899,0.101864 0.13997,0.07091 0.18018,0.106627 0.2286,0.202671 0.0347,0.06853 0.059,0.164571 0.059,0.232304 v 0.115358 l 0.10319,-0.0164 c 0.28866,-0.0463 0.72364,0.09843 0.81571,0.270934 0.13653,0.255852 -0.0278,0.664633 -0.32861,0.817562 l -0.0762,0.03863 0.0998,0.03307 c 0.0582,0.01905 0.16139,0.02725 0.24818,0.01931 0.17303,-0.01561 0.23627,0.01085 0.23627,0.09922 0,0.16166 -0.31512,0.189706 -0.64082,0.05688 z m -0.006,-0.42545 c 0.0976,-0.02328 0.27517,-0.229923 0.29686,-0.345017 0.0307,-0.163777 -0.009,-0.221456 -0.19949,-0.287866 -0.13679,-0.04816 -0.21167,-0.05768 -0.38735,-0.05054 l -0.21749,0.0093 -0.0963,0.107685 c -0.0529,0.05927 -0.1352,0.130704 -0.18309,0.158485 l -0.0871,0.0508 0.21776,0.142875 c 0.31988,0.20955 0.44211,0.26379 0.54477,0.240507 0.0214,-0.005 0.0717,-0.01667 0.11139,-0.02619 z m -0.86651,-0.627592 c 0.0833,-0.04313 0.20505,-0.261937 0.20558,-0.369623 0.001,-0.203993 -0.17515,-0.300037 -0.58182,-0.316706 -0.27596,-0.01138 -0.28548,-0.01005 -0.32781,0.05054 -0.0238,0.03413 -0.081,0.103716 -0.12674,0.154516 l -0.0831,0.09208 0.26088,0.195527 c 0.14367,0.107421 0.28072,0.203465 0.30506,0.213254 0.0804,0.03254 0.26776,0.02196 0.34793,-0.01958 z m 7.0493,0.4953 c -0.0722,-0.07223 0.12091,-0.478366 0.34237,-0.718873 0.16615,-0.180445 0.27622,-0.227277 0.42809,-0.181768 0.1995,0.0598 0.25612,0.269345 0.14023,0.518318 -0.0661,0.142082 -0.0873,0.155575 -0.17251,0.110067 -0.0619,-0.03307 -0.0635,-0.08123 -0.008,-0.225954 0.0519,-0.135731 0.0344,-0.191558 -0.0598,-0.191558 -0.10028,0 -0.24924,0.170391 -0.40138,0.458522 -0.0982,0.186267 -0.13652,0.236009 -0.18679,0.242359 -0.0349,0.0042 -0.0717,-7.94e-4 -0.082,-0.01111 z m -3.87377,-0.0508 c -0.0913,-0.09128 -0.0699,-0.116416 0.31829,-0.373062 0.31698,-0.209286 0.40561,-0.231246 0.42043,-0.103452 0.007,0.05927 -0.0143,0.08678 -0.12965,0.169862 -0.177,0.127529 -0.52467,0.347663 -0.54901,0.347663 -0.0103,0 -0.0373,-0.01852 -0.0601,-0.04101 z m 6.81143,-1.108339 c -0.0296,-0.02937 -0.0537,-0.0717 -0.0537,-0.09393 0,-0.04657 0.11404,-0.168804 0.15743,-0.168804 0.0709,0 0.13018,0.05768 0.13018,0.126735 0,0.147108 -0.14103,0.229129 -0.2339,0.135996 z M 136.2928,82.69261 c -0.0683,-0.06826 -0.0669,-0.170127 0.003,-0.21881 0.0701,-0.04921 0.15372,-0.02117 0.20505,0.06879 0.0857,0.150813 -0.0844,0.273579 -0.20796,0.150019 z m 9.70994,-0.09472 c -0.0402,-0.06112 -0.0407,-0.07541 -0.006,-0.136789 0.049,-0.08731 0.16166,-0.130705 0.21828,-0.08361 0.0939,0.07779 0.01,0.288925 -0.11535,0.288925 -0.0286,0 -0.072,-0.03069 -0.0966,-0.06853 z m -0.38073,-0.182298 c -0.0434,-0.09525 0.0185,-0.203464 0.12303,-0.215635 0.13361,-0.01535 0.19182,0.131233 0.0921,0.230981 -0.0754,0.07541 -0.177,0.06826 -0.2151,-0.01535 z m 0.26749,-3.764756 c -0.17992,-0.123031 -0.61013,-0.392906 -0.95594,-0.600075 -0.59478,-0.356129 -0.76941,-0.483129 -0.86439,-0.627856 -0.0497,-0.07594 -0.0278,-0.160338 0.0481,-0.184415 0.0447,-0.01402 0.078,0.0087 0.17092,0.116417 0.0635,0.07382 0.12303,0.134144 0.13256,0.134144 0.01,0 0.0135,-0.08255 0.009,-0.183357 -0.0185,-0.389466 0.22199,-0.616214 0.50906,-0.480218 0.12885,0.06112 0.33046,0.250031 0.42624,0.399256 l 0.0823,0.128323 0.1016,-0.03995 c 0.18706,-0.07329 0.35851,0.0024 0.5379,0.237331 0.0511,0.06694 0.12065,0.181504 0.15451,0.255058 l 0.0619,0.13335 0.0447,-0.068 c 0.0677,-0.103716 0.19341,-0.09419 0.29607,0.02276 0.0791,0.09049 0.12938,0.246327 0.0966,0.299508 -0.0323,0.05212 -0.14023,0.02937 -0.19579,-0.04127 -0.0299,-0.03836 -0.0587,-0.06482 -0.0638,-0.059 -0.005,0.0058 -0.0579,0.09975 -0.11721,0.209021 -0.11297,0.206904 -0.13546,0.334698 -0.0691,0.389995 0.0672,0.05556 -0.22543,0.08176 -0.40508,-0.04101 z m 0.20849,-0.316706 c 0.063,-0.142611 0.0521,-0.197909 -0.0974,-0.48604 -0.10981,-0.211402 -0.24316,-0.33946 -0.34132,-0.328083 -0.0939,0.01111 -0.16827,0.145785 -0.16827,0.305329 0,0.141817 0.046,0.246063 0.15425,0.348456 0.0828,0.07885 0.35163,0.277019 0.38021,0.280459 0.0101,0.0011 0.0426,-0.05292 0.0725,-0.120121 z m -0.8636,-0.900113 c -0.10821,-0.212196 -0.33813,-0.41566 -0.46937,-0.41566 -0.10557,0 -0.16245,0.238389 -0.10054,0.420952 0.0526,0.155575 0.12197,0.22569 0.35586,0.360098 l 0.22834,0.131233 0.0201,-0.194733 c 0.0177,-0.170656 0.0132,-0.208227 -0.0344,-0.30189 z m -9.82424,1.322652 c -0.0323,-0.02302 -0.0587,-0.05794 -0.0587,-0.07752 0,-0.06059 0.0781,-0.118268 0.16007,-0.118268 0.0712,0 0.23204,-0.0635 0.23204,-0.09155 0,-0.0066 -0.0439,-0.0344 -0.0979,-0.06218 -0.32809,-0.168275 -0.40402,-0.597694 -0.13891,-0.786342 0.13891,-0.09895 0.31327,-0.160867 0.49636,-0.176212 l 0.17912,-0.01508 0.014,-0.105304 c 0.0362,-0.269081 0.34316,-0.43815 0.73183,-0.40296 l 0.15293,0.01402 -0.0172,-0.101336 c -0.0222,-0.131762 -7.9e-4,-0.193146 0.0804,-0.230187 0.0823,-0.03731 0.25955,-0.03916 0.32702,-0.0029 0.10981,0.05874 0.0418,0.182034 -0.10054,0.182034 -0.086,0 -0.0881,0.0024 -0.0709,0.08493 0.01,0.04683 0.0606,0.173037 0.11324,0.280723 0.0952,0.194733 0.096,0.195792 0.20029,0.196056 0.0984,5.29e-4 0.10451,0.005 0.10451,0.07805 0,0.0717 -0.0228,0.09022 -0.30585,0.248444 -0.42228,0.236008 -1.19142,0.718079 -1.40415,0.880004 -0.21457,0.163513 -0.29818,0.207698 -0.43418,0.229923 -0.0754,0.01244 -0.12091,0.0056 -0.16351,-0.02434 z m 0.56197,-0.50747 c 0.0463,-0.01323 0.18468,-0.09102 0.30719,-0.172509 0.20716,-0.137848 0.26431,-0.195527 0.19367,-0.195527 -0.0161,0 -0.0828,-0.0545 -0.14817,-0.120914 l -0.11932,-0.120915 -0.1659,0.0172 c -0.42492,0.04339 -0.5961,0.246327 -0.39793,0.472017 0.0447,0.0508 0.11827,0.103187 0.16351,0.116152 0.0453,0.01323 0.0823,0.02514 0.0825,0.02619 0,0.0013 0.0381,-0.0085 0.0844,-0.02169 z m 1.06998,-0.645848 c 0.127,-0.06641 0.24103,-0.129646 0.25294,-0.140494 0.0119,-0.01085 -0.009,-0.07964 -0.0458,-0.152665 -0.0714,-0.141287 -0.0511,-0.130968 -0.35031,-0.177006 -0.13229,-0.02037 -0.36962,0.03836 -0.44,0.108744 -0.15743,0.157162 0.0132,0.482335 0.2532,0.482335 0.0664,0 0.1741,-0.03942 0.32994,-0.120914 z m 2.85432,0.309562 c -0.20373,-0.225425 -0.31697,-0.581819 -0.36062,-1.134798 -0.027,-0.342371 -0.0849,-0.556948 -0.18468,-0.683683 -0.0606,-0.07699 -0.0659,-0.15584 -0.0132,-0.199496 0.0974,-0.08096 0.23257,0.07091 0.3302,0.370946 0.0516,0.15875 0.0701,0.184415 0.18574,0.258762 0.10239,0.06562 0.16483,0.08493 0.30665,0.09499 0.21616,0.01561 0.34369,-0.02223 0.43286,-0.128058 0.13864,-0.164836 0.0492,-0.370682 -0.19262,-0.443178 -0.0881,-0.02646 -0.12859,-0.02646 -0.1995,-0.0011 -0.19208,0.06959 -0.2786,-0.107421 -0.099,-0.201877 0.086,-0.04524 0.3212,-0.03519 0.43974,0.01879 0.12144,0.0553 0.29183,0.233628 0.31617,0.331259 0.0577,0.228864 -0.0693,0.47625 -0.29845,0.582083 -0.22701,0.10451 -0.46831,0.09393 -0.77205,-0.03413 -0.0452,-0.01905 -0.0471,-0.0087 -0.0304,0.159808 0.0386,0.386292 0.14764,0.696913 0.31433,0.895086 0.087,0.103452 0.0799,0.197114 -0.0156,0.208227 -0.0511,0.0061 -0.0905,-0.0172 -0.15955,-0.09366 z m 3.8227,-0.47625 c -0.0556,-0.05556 -0.0648,-0.120914 -0.0556,-0.392377 l 0.006,-0.169862 -0.14367,-0.159544 c -0.0844,-0.09366 -0.20373,-0.190765 -0.28892,-0.235215 -0.13679,-0.0717 -0.14949,-0.07355 -0.21722,-0.03598 -0.21643,0.12065 -0.0884,0.57441 0.16219,0.57441 0.10609,0 0.19552,0.08652 0.15531,0.150284 -0.0532,0.08414 -0.10637,0.09843 -0.2376,0.06324 -0.0685,-0.01826 -0.16166,-0.06138 -0.20664,-0.09578 -0.1061,-0.08096 -0.19367,-0.269081 -0.19367,-0.415925 0,-0.10504 -0.0111,-0.125413 -0.12409,-0.22516 -0.15505,-0.136525 -0.28708,-0.205053 -0.43445,-0.225425 -0.0995,-0.01349 -0.11959,-0.0077 -0.1569,0.04551 -0.091,0.130175 -0.019,0.415925 0.12409,0.492389 0.0368,0.01984 0.11007,0.04286 0.16272,0.05159 0.11404,0.01852 0.16801,0.0844 0.12515,0.152929 -0.0677,0.10795 -0.35243,0.04842 -0.50112,-0.105039 -0.1995,-0.205846 -0.21749,-0.579173 -0.0378,-0.784225 0.12462,-0.142081 0.42942,-0.09604 0.72919,0.110596 0.16325,0.112448 0.19156,0.123825 0.2204,0.08916 0.0561,-0.06747 0.17304,-0.114564 0.28469,-0.114564 0.1405,0 0.32279,0.09472 0.50774,0.263525 0.0815,0.07461 0.15081,0.130968 0.15399,0.125677 0.003,-0.0056 0.0235,-0.04551 0.0455,-0.08864 0.0542,-0.106098 0.15637,-0.116416 0.28258,-0.02884 0.11668,0.08096 0.1688,0.159808 0.14843,0.224366 -0.0238,0.07435 -0.0905,0.0852 -0.18441,0.02963 l -0.0855,-0.05027 -0.0333,0.121708 c -0.0183,0.06694 -0.0344,0.237067 -0.0357,0.37809 -0.002,0.196056 -0.0111,0.261937 -0.041,0.280723 -0.0553,0.03493 -0.0717,0.03175 -0.13018,-0.02699 z m -8.11424,-0.160867 c -0.0667,-0.03731 -0.0542,-0.141552 0.0246,-0.203464 0.0881,-0.06932 0.15663,-0.06879 0.1942,0.0013 0.0548,0.102129 -0.11615,0.259556 -0.21881,0.202141 z m 2.39713,-0.02302 c -0.10716,-0.03307 -0.26035,-0.204523 -0.29528,-0.330729 -0.0704,-0.253736 0.008,-0.499005 0.19421,-0.602721 0.14684,-0.08229 0.44873,-0.08096 0.71014,0.0029 0.0526,0.01693 0.0556,0.01138 0.0429,-0.0844 -0.0243,-0.180975 0.10239,-0.251354 0.33576,-0.186531 0.11774,0.03254 0.16324,0.08387 0.1397,0.157427 -0.0154,0.04842 -0.0336,0.05477 -0.13573,0.04657 l -0.11801,-0.0093 0.0153,0.131234 c 0.0238,0.200554 0.0892,0.394758 0.16298,0.482335 0.0706,0.08387 0.0683,0.166952 -0.006,0.195262 -0.0947,0.03651 -0.22225,-0.102129 -0.28892,-0.31406 -0.0426,-0.134938 -0.0503,-0.14314 -0.18997,-0.196585 -0.0802,-0.03043 -0.23045,-0.06138 -0.33391,-0.06879 -0.18415,-0.0127 -0.18997,-0.01111 -0.27119,0.06985 -0.0762,0.0762 -0.082,0.09393 -0.0704,0.214577 0.023,0.239712 0.18018,0.353748 0.37544,0.271992 0.0524,-0.02196 0.11695,-0.03969 0.14367,-0.03969 0.0577,0 0.10848,0.08414 0.086,0.142875 -0.0386,0.100542 -0.32888,0.169333 -0.49715,0.11774 z m -1.92511,-0.288925 c -0.11086,-0.06456 -0.0167,-0.233363 0.13017,-0.233363 0.13468,0 0.13521,0.127 0.001,0.220927 -0.0675,0.04736 -0.0709,0.04763 -0.1315,0.01244 z m -0.37915,-0.09366 c -0.0598,-0.02408 -0.0373,-0.158221 0.0362,-0.216164 0.0825,-0.06482 0.12303,-0.068 0.1778,-0.01297 0.0572,0.05715 0.0521,0.08255 -0.0355,0.169863 -0.0743,0.07435 -0.11086,0.08652 -0.17859,0.05927 z m 9.91711,-0.01296 c -0.127,-0.06932 -0.15557,-0.188913 -0.0558,-0.234421 0.1307,-0.05953 0.31194,0.121708 0.22542,0.225689 -0.0378,0.04577 -0.0966,0.04868 -0.1696,0.0087 z m -2.67732,-0.877888 c -0.0423,-0.03995 -0.16113,-0.171185 -0.26352,-0.2921 -0.14367,-0.169069 -0.18494,-0.235479 -0.17886,-0.287602 0.006,-0.04842 0.0257,-0.07064 0.0691,-0.07673 0.0754,-0.01058 0.11959,0.02805 0.36115,0.316971 0.20188,0.2413 0.23548,0.333375 0.14076,0.384175 -0.0418,0.02249 -0.0656,0.01429 -0.12859,-0.04471 z m -4.64449,-0.0852 c -0.0889,-0.05847 -0.16986,-0.192616 -0.16986,-0.281516 0,-0.03281 0.0381,-0.101071 0.0849,-0.152136 0.19605,-0.213254 0.53895,-0.162454 0.92022,0.137054 0.12356,0.09684 0.14711,0.128323 0.14049,0.186796 -0.0132,0.114036 -0.11615,0.106363 -0.27516,-0.02011 -0.24236,-0.192881 -0.50086,-0.264319 -0.62363,-0.172244 -0.0489,0.03651 -0.0466,0.04207 0.0622,0.142346 0.0979,0.09049 0.10901,0.11139 0.0839,0.157956 -0.0362,0.06773 -0.12171,0.06853 -0.22304,0.0019 z"
       style="clip-rule:evenodd;fill-rule:nonzero;stroke-width:0.264583;stroke-linejoin:round;stroke-miterlimit:2"
       id="path6" />
  </g>
</svg>
