<?xml version="1.0" encoding="UTF-8" standalone="no"?>
<!-- Created with Inkscape (http://www.inkscape.org/) -->

<svg
   width="22.119444mm"
   height="14.24411mm"
   viewBox="0 0 22.119444 14.24411"
   version="1.1"
   id="svg1"
   inkscape:version="1.3.2 (091e20ef0f, 2023-11-25, custom)"
   sodipodi:docname="WM.svg"
   xmlns:inkscape="http://www.inkscape.org/namespaces/inkscape"
   xmlns:sodipodi="http://sodipodi.sourceforge.net/DTD/sodipodi-0.dtd"
   xmlns="http://www.w3.org/2000/svg"
   xmlns:svg="http://www.w3.org/2000/svg">
  <sodipodi:namedview
     id="namedview1"
     pagecolor="#ffffff"
     bordercolor="#666666"
     borderopacity="1.0"
     inkscape:showpageshadow="2"
     inkscape:pageopacity="0.0"
     inkscape:pagecheckerboard="0"
     inkscape:deskcolor="#d1d1d1"
     inkscape:document-units="mm"
     inkscape:zoom="0.2102413"
     inkscape:cx="95.128787"
     inkscape:cy="95.128787"
     inkscape:window-width="2554"
     inkscape:window-height="349"
     inkscape:window-x="1920"
     inkscape:window-y="1063"
     inkscape:window-maximized="1"
     inkscape:current-layer="layer1" />
  <defs
     id="defs1" />
  <g
     inkscape:label="Layer 1"
     inkscape:groupmode="layer"
     id="layer1"
     transform="translate(-79.639578,-123.82499)">
    <path
       d="m 82.097049,130.19722 c -0.859102,-1.06415 -1.668462,-2.18652 -2.417498,-3.36682 -0.05027,-0.0799 -0.05345,-0.18071 -0.0077,-0.26353 0.04551,-0.0828 0.132557,-0.13414 0.227013,-0.13414 h 3.140869 c -0.549804,0.77364 -0.942182,1.9722 -0.942182,3.70602 0,0 -5.29e-4,0.0206 -5.29e-4,0.0585 z m 16.231658,-3.76449 h 3.171033 c 0.0944,0 0.1815,0.0513 0.22701,0.13414 0.0458,0.0828 0.0426,0.18362 -0.008,0.26353 -0.75671,1.19168 -1.57639,2.3241 -2.447662,3.39725 2.64e-4,-0.0572 -2.65e-4,-0.0889 -2.65e-4,-0.0889 0,-1.73382 -0.392377,-2.93238 -0.942446,-3.70602 z m -5.885656,10.37008 c -0.579702,0.44 -1.166548,0.86227 -1.758685,1.26629 -0.592138,-0.40402 -1.178454,-0.82603 -1.756833,-1.26603 0.560916,0.0855 1.147497,0.12991 1.756833,0.12991 0.609864,0 1.196975,-0.0444 1.758685,-0.13017 z m 3.091127,-6.56643 c -1.710796,0.90117 -3.870854,1.24963 -4.849812,1.24963 -1.004623,0 -3.252258,-0.36672 -4.982369,-1.32107 1.881452,-1.71423 3.471598,-2.13651 4.982369,-2.13651 1.484312,0 3.015456,0.55139 4.849812,2.20795 z"
       id="path1"
       style="clip-rule:evenodd;fill-rule:evenodd;stroke-width:0.264583;stroke-linejoin:round;stroke-miterlimit:2" />
    <path
       d="m 90.684366,132.10566 c 1.854464,0 7.70255,-1.17687 7.70255,-4.76832 0.597164,1.40255 0.654843,3.64252 0.248179,4.63444 -0.974725,2.37755 -4.081198,4.45929 -7.950729,4.45929 -3.869796,0 -6.976269,-2.08174 -7.950994,-4.45929 -0.406664,-0.99192 -0.348985,-3.23189 0.248179,-4.63444 0,3.59145 5.848086,4.76832 7.702815,4.76832 z m 1.691746,1.19512 c 0.01005,0.0103 0.04709,0.0153 0.08176,0.0111 0.05027,-0.006 0.08863,-0.0561 0.186796,-0.24235 0.152135,-0.28813 0.301096,-0.45853 0.401373,-0.45853 0.09419,0 0.111654,0.0558 0.0598,0.19156 -0.0553,0.14473 -0.05345,0.19288 0.0082,0.22596 0.08519,0.0455 0.106362,0.032 0.172508,-0.11007 0.115887,-0.24897 0.05927,-0.45852 -0.139965,-0.51832 -0.152135,-0.0455 -0.262202,0.001 -0.42836,0.18177 -0.221456,0.24051 -0.414602,0.64664 -0.342106,0.71887 z m -3.873765,-0.0508 c 0.02249,0.0225 0.04948,0.041 0.0598,0.041 0.02434,0 0.372004,-0.22013 0.54901,-0.34766 0.115623,-0.0831 0.136525,-0.1106 0.129646,-0.16986 -0.01482,-0.1278 -0.103187,-0.10584 -0.420423,0.10345 -0.387879,0.25665 -0.40931,0.28178 -0.318029,0.37306 z m 7.263077,-1.4134 c 0.02461,0.0378 0.068,0.0685 0.09657,0.0685 0.125148,0 0.209285,-0.21114 0.115358,-0.28893 -0.05636,-0.0471 -0.169068,-0.004 -0.218281,0.0836 -0.0344,0.0614 -0.0336,0.0757 0.0063,0.13679 z m -6.849269,2.95989 c 0.120121,0.0521 0.340519,0.046 0.454819,-0.0127 0.220134,-0.11324 0.356129,-0.35269 0.357452,-0.62997 0.0011,-0.19817 -0.06826,-0.3384 -0.204258,-0.41169 -0.121708,-0.0659 -0.501915,-0.0572 -0.715698,0.0161 -0.08943,0.0307 -0.166952,0.0558 -0.172244,0.0558 -0.0056,0 -0.02328,-0.0444 -0.03942,-0.0989 -0.03519,-0.11748 -0.166423,-0.24871 -0.289718,-0.28998 -0.127794,-0.0426 -0.379942,-0.0339 -0.586846,0.0201 l -0.178859,0.0466 0.0127,-0.0548 c 0.05186,-0.22569 0.05212,-0.21881 -0.01693,-0.28813 -0.05715,-0.0569 -0.09075,-0.0672 -0.221985,-0.0672 -0.175684,0 -0.229394,0.0381 -0.202936,0.14367 0.01614,0.0645 0.05001,0.0786 0.165629,0.0688 0.07726,-0.007 0.0762,0.0415 -0.0061,0.28363 -0.08017,0.23548 -0.173037,0.39793 -0.260879,0.45535 -0.131763,0.0865 -0.04921,0.25717 0.09763,0.20135 0.08467,-0.032 0.197115,-0.16934 0.271727,-0.33126 0.07011,-0.15267 0.09578,-0.16775 0.420952,-0.24739 0.455084,-0.11165 0.646113,-0.006 0.595842,0.32941 -0.02222,0.14843 -0.139171,0.2876 -0.27596,0.32861 -0.08705,0.0262 -0.115094,0.0225 -0.219075,-0.0278 -0.160338,-0.0775 -0.212196,-0.0651 -0.212196,0.0513 0,0.0815 0.01217,0.0971 0.116681,0.14975 0.286279,0.14447 0.649552,-0.007 0.761735,-0.31723 0.02619,-0.072 0.0598,-0.10345 0.152665,-0.14314 0.1905,-0.081 0.316177,-0.10795 0.50509,-0.10822 0.226483,0 0.281252,0.0453 0.281252,0.23363 0,0.16378 -0.03466,0.25453 -0.137319,0.36089 -0.09552,0.0992 -0.214577,0.12886 -0.344488,0.086 -0.103187,-0.0341 -0.185737,-0.0185 -0.207962,0.0394 -0.02381,0.0624 0.01244,0.12038 0.09869,0.15795 z m 4.069027,-0.23706 c 0.03784,0.0458 0.06403,0.0484 0.130175,0.013 0.07408,-0.0394 0.108215,-0.1823 0.102923,-0.42915 -0.0034,-0.15452 0.0058,-0.23813 0.03043,-0.27014 0.459317,-0.60008 0.77523,-0.68792 0.90223,-0.25083 0.05001,0.17145 0.03149,0.27067 -0.07144,0.38814 -0.0725,0.0825 -0.140494,0.11563 -0.318294,0.15505 -0.06429,0.0143 -0.07223,0.027 -0.06535,0.10054 0.0071,0.0717 0.01984,0.0855 0.08625,0.0929 0.185738,0.0212 0.444236,-0.12991 0.540544,-0.31565 0.112448,-0.21722 0.05689,-0.58631 -0.116416,-0.77496 -0.06615,-0.072 -0.241036,-0.15875 -0.321469,-0.15981 -0.115623,-0.001 -0.368036,0.1561 -0.545571,0.34025 -0.0979,0.10134 -0.18071,0.18071 -0.183885,0.17675 -0.0034,-0.004 -0.02249,-0.0598 -0.04233,-0.1233 -0.05106,-0.16192 -0.137054,-0.18918 -0.29845,-0.0945 -0.06456,0.0378 -0.137054,0.0984 -0.160602,0.13468 -0.04101,0.0622 -0.04048,0.0688 0.01111,0.12012 l 0.0545,0.0545 0.09498,-0.0561 c 0.05212,-0.031 0.09922,-0.0561 0.104246,-0.0561 0.005,0 0.0291,0.11059 0.05318,0.24553 0.04207,0.23336 0.0418,0.43551 -5.29e-4,0.59796 -0.01164,0.045 -0.0066,0.0865 0.01376,0.11113 z m 1.710796,-0.54452 c 0.02805,0.073 0.207169,0.0225 0.598223,-0.16827 0.758561,-0.36989 1.598877,-0.8718 1.862667,-1.11231 0.248708,-0.22675 0.373327,-0.52652 0.247385,-0.59399 -0.07885,-0.0421 -0.137848,0.004 -0.188648,0.1487 -0.02461,0.0701 -0.08043,0.16166 -0.124354,0.20346 l -0.07937,0.0762 v -0.15716 c 0,-0.21881 -0.06456,-0.38947 -0.197908,-0.52255 -0.149754,-0.14976 -0.257175,-0.17013 -0.413808,-0.0783 -0.151342,0.0886 -0.33073,0.2958 -0.436034,0.5035 -0.04657,0.0915 -0.08837,0.16616 -0.09287,0.16616 -0.0048,0 -0.04709,-0.0236 -0.09419,-0.0521 -0.232569,-0.14182 -0.498475,0.006 -0.773377,0.42862 l -0.117211,0.18018 -0.05503,-0.11483 c -0.03995,-0.0831 -0.07329,-0.11747 -0.120385,-0.12409 -0.135996,-0.0193 -0.35269,0.16907 -0.335228,0.29157 0.01111,0.0791 0.125413,0.091 0.189971,0.0196 0.02672,-0.0294 0.05715,-0.0537 0.06747,-0.0537 0.04921,0 0.208227,0.51277 0.208227,0.67099 0,0.0664 -0.01535,0.0921 -0.07144,0.11879 -0.07408,0.0355 -0.101336,0.0984 -0.07408,0.1696 z m 1.766888,-1.05277 c -0.05054,0.0317 -0.159279,0.096 -0.241829,0.14287 l -0.150548,0.0852 v -0.17013 c 0,-0.0937 -0.01217,-0.20241 -0.02725,-0.24183 -0.02328,-0.0614 -0.01217,-0.10292 0.07752,-0.28998 0.119856,-0.24924 0.339725,-0.50483 0.434975,-0.50483 0.121443,0 0.246591,0.22913 0.246856,0.45191 2.64e-4,0.19209 -0.13044,0.39476 -0.339724,0.52679 z m -1.0541,0.58658 c -0.165894,0.0884 -0.312738,0.1606 -0.326231,0.1606 -0.01349,0 -0.03995,-0.0905 -0.05874,-0.20108 l -0.0344,-0.20109 0.08943,-0.16774 c 0.115094,-0.21564 0.301096,-0.44609 0.412221,-0.51091 0.08123,-0.0476 0.09313,-0.0482 0.173302,-0.0101 0.112184,0.0537 0.197115,0.22596 0.197115,0.40111 0,0.099 -0.01826,0.15928 -0.07567,0.2495 -0.06429,0.10134 -0.120121,0.14288 -0.377031,0.27967 z m -0.09525,-1.40706 c 0.09313,0.0931 0.234156,0.0111 0.234156,-0.13599 0,-0.0691 -0.05927,-0.12674 -0.130175,-0.12674 -0.04339,0 -0.157427,0.12224 -0.157427,0.16881 0,0.0222 0.02408,0.0645 0.05345,0.0939 z M 86.05548,131.9313 c 0.123825,0.12356 0.293953,7.9e-4 0.207963,-0.15002 -0.05106,-0.09 -0.134673,-0.118 -0.204788,-0.0688 -0.06985,0.0487 -0.07144,0.15055 -0.0032,0.21881 z m 9.329209,-0.27702 c 0.0381,0.0836 0.1397,0.0908 0.215106,0.0154 0.100012,-0.0998 0.04154,-0.24633 -0.09181,-0.23099 -0.104775,0.0122 -0.166423,0.12039 -0.123296,0.21564 z m -9.185275,2.20424 c 0.325437,0.13282 0.640556,0.10478 0.640556,-0.0569 0,-0.0884 -0.06323,-0.11483 -0.236273,-0.0992 -0.08652,0.008 -0.189706,-2.6e-4 -0.248179,-0.0193 l -0.09975,-0.0331 0.07646,-0.0386 c 0.300566,-0.15293 0.464873,-0.56171 0.328348,-0.81756 -0.09181,-0.17251 -0.52705,-0.31723 -0.815711,-0.27093 l -0.103187,0.0164 v -0.11536 c 0,-0.0677 -0.02434,-0.16377 -0.05874,-0.2323 -0.04842,-0.096 -0.0889,-0.13176 -0.228864,-0.20267 -0.139171,-0.0704 -0.211402,-0.0889 -0.398727,-0.10187 -0.125942,-0.009 -0.228865,-0.0185 -0.228865,-0.022 0,-0.003 0.02963,-0.0587 0.06588,-0.12356 0.08731,-0.15637 0.06006,-0.2368 -0.105833,-0.31035 -0.136261,-0.0601 -0.242623,-0.0564 -0.284163,0.01 -0.03836,0.0614 0.0056,0.12938 0.104511,0.16219 0.0418,0.014 0.07964,0.0278 0.08467,0.0307 0.02143,0.0135 -0.264583,0.42492 -0.359568,0.51779 -0.100013,0.0971 -0.108215,0.10027 -0.153988,0.0587 -0.07091,-0.064 -0.157956,-0.0553 -0.191823,0.019 -0.0463,0.10134 0.03202,0.18204 0.565679,0.58262 0.628915,0.47228 1.326886,0.91546 1.647561,1.04642 z m -0.0063,-0.42545 c -0.03969,0.01 -0.08996,0.0212 -0.11139,0.0262 -0.102658,0.0233 -0.224896,-0.031 -0.544512,-0.24051 l -0.217752,-0.14287 0.08678,-0.0508 c 0.04789,-0.0278 0.13044,-0.0992 0.183356,-0.15849 l 0.09604,-0.10768 0.217752,-0.009 c 0.175419,-0.007 0.250296,0.002 0.38735,0.0505 0.189971,0.0664 0.229923,0.12409 0.199231,0.28787 -0.02143,0.11509 -0.199231,0.32173 -0.296862,0.34501 z m -0.866511,-0.62759 c -0.08017,0.0415 -0.267493,0.0521 -0.347927,0.0196 -0.02408,-0.01 -0.161395,-0.10583 -0.3048,-0.21325 l -0.261143,-0.19553 0.08334,-0.0921 c 0.04577,-0.0508 0.102659,-0.12039 0.126736,-0.15452 0.04233,-0.0606 0.05186,-0.0619 0.327819,-0.0505 0.4064,0.0167 0.582612,0.11272 0.581818,0.31671 -5.29e-4,0.10768 -0.122237,0.3265 -0.205846,0.36962 z m 6.601355,3.32079 c 0.05847,0.0585 0.104245,0.0511 0.178329,-0.0286 0.264848,-0.28575 0.372798,-0.88926 0.259291,-1.45071 -0.06165,-0.3048 -0.06297,-0.8628 -0.0024,-0.99721 0.05107,-0.11324 0.04022,-0.16457 -0.03916,-0.18521 -0.123032,-0.0323 -0.199232,0.13996 -0.221986,0.50112 -0.01164,0.18468 -0.02461,0.2323 -0.08811,0.31962 -0.0979,0.1352 -0.235214,0.22304 -0.427831,0.27358 -0.347663,0.091 -0.614098,-0.059 -0.614363,-0.34608 -2.64e-4,-0.0905 0.01693,-0.12991 0.09207,-0.21299 0.128323,-0.14208 0.251355,-0.19579 0.406665,-0.17753 0.139965,0.0167 0.190765,-0.0172 0.176477,-0.11801 -0.0063,-0.045 -0.03651,-0.0691 -0.118798,-0.0953 -0.09419,-0.0296 -0.130175,-0.0288 -0.250031,0.006 -0.428361,0.12435 -0.631825,0.52361 -0.446088,0.87577 0.166423,0.31591 0.609865,0.40587 1.015471,0.20584 0.05768,-0.0283 0.141288,-0.0865 0.186267,-0.12911 0.09498,-0.0902 0.09551,-0.09 0.141287,0.19367 0.06959,0.43154 -0.0053,0.86731 -0.198702,1.15888 -0.103452,0.15584 -0.102658,0.15213 -0.04842,0.20611 z"
       id="path2"
       style="clip-rule:evenodd;fill-rule:evenodd;stroke-width:0.264583;stroke-linejoin:round;stroke-miterlimit:2" />
    <path
       d="m 90.684366,127.40878 c -1.710002,0 -3.522133,0.48233 -5.68325,2.56407 -0.611981,-0.47175 -1.53961,-1.17157 -1.53961,-2.20742 0,-1.03584 0.827087,-2.02326 1.573212,-2.47702 1.192212,-0.72496 2.655623,-1.46342 5.649648,-1.46342 2.994025,0 4.478866,0.89932 5.671079,1.62455 0.746125,0.45376 1.573212,1.44092 1.573212,2.47676 0,1.03584 -0.979222,1.74069 -1.591204,2.21245 -2.161116,-2.08201 -3.94335,-2.72997 -5.653087,-2.72997 z m 4.967816,0.48074 c 0.179653,0.12277 0.472546,0.0966 0.405342,0.041 -0.06668,-0.0553 -0.04392,-0.18309 0.06879,-0.38999 0.05953,-0.10927 0.112183,-0.2032 0.11721,-0.20902 0.0053,-0.006 0.03387,0.0206 0.06403,0.059 0.05556,0.0706 0.163248,0.0934 0.195527,0.0413 0.03307,-0.0532 -0.0172,-0.20902 -0.09657,-0.2995 -0.102659,-0.11695 -0.228071,-0.12647 -0.296069,-0.0228 l -0.04471,0.068 -0.06165,-0.13335 c -0.03413,-0.0735 -0.103452,-0.18812 -0.154516,-0.25506 -0.179652,-0.23495 -0.351102,-0.31062 -0.538163,-0.23733 l -0.1016,0.04 -0.08228,-0.12832 c -0.09578,-0.14923 -0.297392,-0.33814 -0.426244,-0.39926 -0.286808,-0.13599 -0.527579,0.0908 -0.509058,0.48022 0.0048,0.10081 0.0011,0.18336 -0.0085,0.18336 -0.0095,0 -0.06932,-0.0603 -0.132821,-0.13415 -0.09287,-0.10768 -0.126206,-0.13043 -0.170921,-0.11641 -0.07567,0.0241 -0.09763,0.10848 -0.04789,0.18441 0.09472,0.14473 0.269346,0.27173 0.864129,0.62786 0.346075,0.20717 0.776287,0.47704 0.955939,0.60007 z m -0.655108,-1.21681 c 0.04789,0.0937 0.05212,0.13123 0.03466,0.30188 l -0.02011,0.19474 -0.228335,-0.13124 c -0.233892,-0.1344 -0.303213,-0.20452 -0.356129,-0.36009 -0.06191,-0.18257 -0.005,-0.42096 0.100541,-0.42096 0.131234,0 0.361157,0.20347 0.469371,0.41567 z m 0.8636,0.90011 c -0.02963,0.0672 -0.06244,0.12118 -0.0725,0.12012 -0.02858,-0.003 -0.297391,-0.20161 -0.380206,-0.28046 -0.10795,-0.10239 -0.153987,-0.20664 -0.153987,-0.34846 0,-0.15954 0.07408,-0.29421 0.16801,-0.30533 0.09816,-0.0114 0.23151,0.11669 0.341312,0.32809 0.14949,0.28813 0.160603,0.34343 0.09737,0.48604 z m -10.687579,0.42254 c 0.04233,0.0299 0.08784,0.0368 0.163248,0.0243 0.13626,-0.0222 0.219869,-0.0664 0.434181,-0.22992 0.21299,-0.16193 0.981869,-0.644 1.404144,-0.88001 0.283104,-0.15822 0.305858,-0.17674 0.305858,-0.24844 0,-0.073 -0.0061,-0.0775 -0.10451,-0.0781 -0.103981,-2.7e-4 -0.10504,-0.001 -0.200025,-0.19606 -0.05265,-0.10769 -0.103717,-0.23389 -0.113242,-0.28072 -0.0172,-0.0825 -0.01535,-0.0849 0.07064,-0.0849 0.142346,0 0.210344,-0.1233 0.100542,-0.18204 -0.06747,-0.0362 -0.24474,-0.0344 -0.326761,0.003 -0.08123,0.037 -0.102658,0.0984 -0.08043,0.23019 l 0.01693,0.10134 -0.152664,-0.014 c -0.388673,-0.0352 -0.695855,0.13388 -0.731838,0.40296 l -0.01429,0.10531 -0.179123,0.0151 c -0.182827,0.0153 -0.357188,0.0773 -0.496359,0.17621 -0.264847,0.18865 -0.189177,0.61807 0.138907,0.78634 0.05397,0.0278 0.09816,0.0556 0.09816,0.0622 0,0.028 -0.160867,0.0915 -0.232304,0.0915 -0.08202,0 -0.160073,0.0577 -0.160073,0.11826 0,0.0196 0.02646,0.0545 0.059,0.0775 z m 0.56171,-0.50747 c -0.0463,0.0132 -0.0844,0.023 -0.0844,0.0217 0,-0.001 -0.03731,-0.013 -0.08255,-0.0262 -0.04524,-0.013 -0.118798,-0.0653 -0.163512,-0.11615 -0.197908,-0.22569 -0.02699,-0.42863 0.398198,-0.47202 l 0.165894,-0.0172 0.119062,0.12092 c 0.06562,0.0664 0.132292,0.12091 0.148167,0.12091 0.07064,0 0.01349,0.0577 -0.193675,0.19553 -0.122502,0.0815 -0.260615,0.15928 -0.307182,0.17251 z m 1.069975,-0.64585 c -0.155839,0.0815 -0.263525,0.12091 -0.329935,0.12091 -0.239712,0 -0.410369,-0.32517 -0.253206,-0.48233 0.07064,-0.0704 0.30771,-0.12912 0.440266,-0.10875 0.29898,0.046 0.278607,0.0357 0.350309,0.17701 0.03704,0.073 0.05741,0.14182 0.04551,0.15266 -0.01191,0.0109 -0.125677,0.0741 -0.252942,0.1405 z m 6.677025,-0.16669 c 0.05874,0.0587 0.07488,0.0619 0.13044,0.027 0.02963,-0.0188 0.03916,-0.0847 0.04101,-0.28072 0.0013,-0.14103 0.0172,-0.31115 0.03545,-0.37809 l 0.03334,-0.12171 0.08572,0.0503 c 0.09393,0.0556 0.160602,0.0447 0.18415,-0.0296 0.02037,-0.0646 -0.03175,-0.14341 -0.148167,-0.22437 -0.126206,-0.0876 -0.2286,-0.0773 -0.282575,0.0288 -0.02222,0.0431 -0.0426,0.0831 -0.04577,0.0886 -0.0032,0.005 -0.07249,-0.0511 -0.153987,-0.12567 -0.184679,-0.16881 -0.367242,-0.26353 -0.507735,-0.26353 -0.11139,0 -0.2286,0.0471 -0.284692,0.11457 -0.02858,0.0347 -0.05689,0.0233 -0.220398,-0.0892 -0.299773,-0.20664 -0.604573,-0.25268 -0.729192,-0.11059 -0.179652,0.20505 -0.16166,0.57837 0.03784,0.78422 0.14896,0.15346 0.433652,0.21299 0.501385,0.10504 0.0426,-0.0685 -0.01138,-0.13441 -0.125148,-0.15293 -0.05292,-0.009 -0.126206,-0.0318 -0.162983,-0.0516 -0.14314,-0.0765 -0.215106,-0.36222 -0.12409,-0.49239 0.03757,-0.0532 0.05768,-0.059 0.157163,-0.0455 0.147108,0.0204 0.2794,0.0889 0.434181,0.22542 0.112977,0.0998 0.124354,0.12013 0.124354,0.22516 0,0.14685 0.08758,0.33497 0.193411,0.41593 0.04524,0.0344 0.138112,0.0775 0.206904,0.0958 0.130969,0.0352 0.184414,0.0209 0.237331,-0.0632 0.04022,-0.0638 -0.04921,-0.15028 -0.15531,-0.15028 -0.250296,0 -0.378355,-0.45376 -0.16219,-0.57441 0.068,-0.0376 0.08043,-0.0357 0.217223,0.036 0.08546,0.0444 0.204523,0.14156 0.288925,0.23522 l 0.143933,0.15954 -0.0058,0.16986 c -0.0095,0.27147 -2.64e-4,0.33682 0.0553,0.39238 z m -8.021108,-0.56647 c 0.06747,0.0272 0.104246,0.0151 0.178329,-0.0593 0.08758,-0.0873 0.09287,-0.11271 0.03545,-0.16986 -0.05477,-0.055 -0.09525,-0.0519 -0.177535,0.013 -0.07382,0.058 -0.09631,0.19209 -0.03625,0.21617 z m 2.304256,0.38259 c 0.168011,0.0516 0.458259,-0.0172 0.496888,-0.11774 0.02249,-0.0587 -0.02805,-0.14288 -0.08599,-0.14288 -0.02646,0 -0.09102,0.0177 -0.143404,0.0397 -0.195262,0.0817 -0.352689,-0.0323 -0.375708,-0.27199 -0.01164,-0.12065 -0.0058,-0.13838 0.07038,-0.21458 0.08123,-0.081 0.08731,-0.0825 0.271198,-0.0699 0.103717,0.007 0.253735,0.0384 0.333904,0.0688 0.1397,0.0534 0.147373,0.0617 0.189971,0.19659 0.06694,0.21193 0.194469,0.35057 0.289189,0.31406 0.07382,-0.0283 0.07594,-0.11139 0.0053,-0.19527 -0.07355,-0.0876 -0.139171,-0.28178 -0.162719,-0.48233 l -0.01534,-0.13123 0.118004,0.009 c 0.101864,0.008 0.120385,0.002 0.135731,-0.0466 0.02328,-0.0735 -0.02222,-0.12488 -0.1397,-0.15743 -0.233363,-0.0648 -0.360363,0.006 -0.336021,0.18653 0.0127,0.0958 0.01005,0.10134 -0.04286,0.0844 -0.261409,-0.0839 -0.563034,-0.0852 -0.710142,-0.003 -0.185473,0.10371 -0.264583,0.34898 -0.194204,0.60272 0.03493,0.1262 0.188383,0.29765 0.295539,0.33073 z m 4.935538,-1.27344 c 0.06297,0.059 0.08652,0.0672 0.128587,0.0447 0.09472,-0.0508 0.06085,-0.14287 -0.140758,-0.38417 -0.241565,-0.28893 -0.28575,-0.32756 -0.361421,-0.31698 -0.04339,0.006 -0.06323,0.0283 -0.06879,0.0767 -0.0061,0.0521 0.03519,0.11854 0.178594,0.28761 0.102659,0.12091 0.221192,0.25214 0.26379,0.2921 z m -7.332927,1.29645 c 0.102923,0.0574 0.273579,-0.10001 0.219075,-0.20214 -0.03757,-0.0701 -0.106098,-0.0706 -0.194469,-0.001 -0.07858,0.0619 -0.09128,0.16616 -0.02461,0.20346 z m 0.472281,-0.31194 c 0.06033,0.0352 0.06377,0.0349 0.131233,-0.0124 0.134144,-0.0939 0.13335,-0.22093 -0.0013,-0.22093 -0.146843,0 -0.24077,0.1688 -0.12991,0.23336 z m 3.81926,0.94906 c 0.06906,0.0765 0.108744,0.0998 0.159544,0.0937 0.09578,-0.0111 0.102659,-0.10477 0.01561,-0.20822 -0.166688,-0.19818 -0.275696,-0.5088 -0.314061,-0.89509 -0.01693,-0.16854 -0.01482,-0.17886 0.03016,-0.15981 0.303741,0.12806 0.545041,0.13864 0.772054,0.0341 0.229129,-0.10583 0.356129,-0.35321 0.298714,-0.58208 -0.02461,-0.0976 -0.194733,-0.27596 -0.316441,-0.33126 -0.118534,-0.054 -0.353748,-0.064 -0.439738,-0.0188 -0.179652,0.0945 -0.09287,0.27146 0.09895,0.20187 0.07091,-0.0254 0.111655,-0.0254 0.199761,10e-4 0.241564,0.0725 0.330994,0.27834 0.192617,0.44318 -0.08917,0.10583 -0.216694,0.14367 -0.433123,0.12806 -0.141817,-0.0101 -0.203994,-0.0294 -0.306652,-0.095 -0.115623,-0.0743 -0.134144,-0.10001 -0.185738,-0.25876 -0.09763,-0.30004 -0.232833,-0.45191 -0.3302,-0.37095 -0.05265,0.0437 -0.04736,0.12251 0.01323,0.1995 0.09975,0.12674 0.157692,0.34131 0.184679,0.68368 0.04366,0.55298 0.156898,0.90911 0.360627,1.1348 z m -1.60311,-2.01877 c 0.101071,0.0667 0.186796,0.0659 0.223044,-0.002 0.02487,-0.0466 0.01376,-0.0675 -0.08414,-0.15796 -0.108479,-0.10028 -0.11086,-0.10583 -0.06218,-0.14234 0.123031,-0.0921 0.381265,-0.0206 0.623888,0.17224 0.15875,0.12647 0.261673,0.13414 0.274902,0.0201 0.0069,-0.0585 -0.01667,-0.09 -0.140494,-0.1868 -0.381265,-0.29951 -0.724165,-0.35031 -0.920221,-0.13705 -0.04657,0.0511 -0.08493,0.11933 -0.08493,0.15213 0,0.0889 0.08123,0.22305 0.170127,0.28152 z m 7.32155,0.96308 c 0.07303,0.04 0.132027,0.037 0.169862,-0.009 0.08625,-0.10398 -0.09472,-0.28522 -0.225689,-0.22569 -0.09975,0.0455 -0.07117,0.1651 0.05583,0.23442 z"
       id="path3"
       style="clip-rule:evenodd;fill-rule:evenodd;stroke-width:0.264583;stroke-linejoin:round;stroke-miterlimit:2" />
  </g>
</svg>
