<?xml version="1.0" encoding="UTF-8" standalone="no"?>
<svg
   width="90"
   height="90"
   viewBox="0 0 90 90"
   version="1.1"
   xml:space="preserve"
   style="clip-rule:evenodd;fill-rule:evenodd;stroke-linejoin:round;stroke-miterlimit:2"
   id="svg3"
   xmlns="http://www.w3.org/2000/svg"
   xmlns:svg="http://www.w3.org/2000/svg"><defs
     id="defs3" /><rect
     id="WM"
     x="0"
     y="0"
     width="90"
     height="90"
     style="fill:none" /><path
     d="M 12.544,41.568 C 9.297,37.546 6.238,33.304 3.407,28.843 3.217,28.541 3.205,28.16 3.378,27.847 3.55,27.534 3.879,27.34 4.236,27.34 h 11.871 c -2.078,2.924 -3.561,7.454 -3.561,14.007 0,0 -0.002,0.078 -0.002,0.221 z M 73.892,27.34 h 11.985 c 0.357,0 0.686,0.194 0.858,0.507 0.173,0.313 0.161,0.694 -0.029,0.996 -2.86,4.504 -5.958,8.784 -9.251,12.84 0.001,-0.216 -0.001,-0.336 -0.001,-0.336 0,-6.553 -1.483,-11.083 -3.562,-14.007 z M 51.647,66.534 c -2.191,1.663 -4.409,3.259 -6.647,4.786 -2.238,-1.527 -4.454,-3.122 -6.64,-4.785 2.12,0.323 4.337,0.491 6.64,0.491 2.305,0 4.524,-0.168 6.647,-0.492 z M 63.33,41.716 C 56.864,45.122 48.7,46.439 45,46.439 41.203,46.439 32.708,45.053 26.169,41.446 33.28,34.967 39.29,33.371 45,33.371 c 5.61,0 11.397,2.084 18.33,8.345 z"
     id="path1" /><path
     d="m 45,48.781 c 7.009,0 29.112,-4.448 29.112,-18.022 2.257,5.301 2.475,13.767 0.938,17.516 C 71.366,57.261 59.625,65.129 45,65.129 30.374,65.129 18.633,57.261 14.949,48.275 13.412,44.526 13.63,36.06 15.887,30.759 15.887,44.333 37.99,48.781 45,48.781 Z m 6.394,4.517 c 0.038,0.039 0.178,0.058 0.309,0.042 0.19,-0.024 0.335,-0.212 0.706,-0.916 0.575,-1.089 1.138,-1.733 1.517,-1.733 0.356,0 0.422,0.211 0.226,0.724 -0.209,0.547 -0.202,0.729 0.031,0.854 0.322,0.172 0.402,0.121 0.652,-0.416 0.438,-0.941 0.224,-1.733 -0.529,-1.959 -0.575,-0.172 -0.991,0.005 -1.619,0.687 -0.837,0.909 -1.567,2.444 -1.293,2.717 z M 36.753,53.106 c 0.085,0.085 0.187,0.155 0.226,0.155 0.092,0 1.406,-0.832 2.075,-1.314 0.437,-0.314 0.516,-0.418 0.49,-0.642 -0.056,-0.483 -0.39,-0.4 -1.589,0.391 -1.466,0.97 -1.547,1.065 -1.202,1.41 z m 27.451,-5.342 c 0.093,0.143 0.257,0.259 0.365,0.259 0.473,0 0.791,-0.798 0.436,-1.092 -0.213,-0.178 -0.639,-0.014 -0.825,0.316 -0.13,0.232 -0.127,0.286 0.024,0.517 z M 38.317,58.951 c 0.454,0.197 1.287,0.174 1.719,-0.048 0.832,-0.428 1.346,-1.333 1.351,-2.381 0.004,-0.749 -0.258,-1.279 -0.772,-1.556 -0.46,-0.249 -1.897,-0.216 -2.705,0.061 -0.338,0.116 -0.631,0.211 -0.651,0.211 -0.021,0 -0.088,-0.168 -0.149,-0.374 -0.133,-0.444 -0.629,-0.94 -1.095,-1.096 -0.483,-0.161 -1.436,-0.128 -2.218,0.076 l -0.676,0.176 0.048,-0.207 c 0.196,-0.853 0.197,-0.827 -0.064,-1.089 -0.216,-0.215 -0.343,-0.254 -0.839,-0.254 -0.664,0 -0.867,0.144 -0.767,0.543 0.061,0.244 0.189,0.297 0.626,0.26 0.292,-0.025 0.288,0.157 -0.023,1.072 -0.303,0.89 -0.654,1.504 -0.986,1.721 -0.498,0.327 -0.186,0.972 0.369,0.761 0.32,-0.121 0.745,-0.64 1.027,-1.252 0.265,-0.577 0.362,-0.634 1.591,-0.935 1.72,-0.422 2.442,-0.023 2.252,1.245 -0.084,0.561 -0.526,1.087 -1.043,1.242 -0.329,0.099 -0.435,0.085 -0.828,-0.105 -0.606,-0.293 -0.802,-0.246 -0.802,0.194 0,0.308 0.046,0.367 0.441,0.566 1.082,0.546 2.455,-0.026 2.879,-1.199 0.099,-0.272 0.226,-0.391 0.577,-0.541 0.72,-0.306 1.195,-0.408 1.909,-0.409 0.856,0 1.063,0.171 1.063,0.883 0,0.619 -0.131,0.962 -0.519,1.364 -0.361,0.375 -0.811,0.487 -1.302,0.325 -0.39,-0.129 -0.702,-0.07 -0.786,0.149 -0.09,0.236 0.047,0.455 0.373,0.597 z m 15.379,-0.896 c 0.143,0.173 0.242,0.183 0.492,0.049 0.28,-0.149 0.409,-0.689 0.389,-1.622 -0.013,-0.584 0.022,-0.9 0.115,-1.021 1.736,-2.268 2.93,-2.6 3.41,-0.948 0.189,0.648 0.119,1.023 -0.27,1.467 -0.274,0.312 -0.531,0.437 -1.203,0.586 -0.243,0.054 -0.273,0.102 -0.247,0.38 0.027,0.271 0.075,0.323 0.326,0.351 0.702,0.08 1.679,-0.491 2.043,-1.193 0.425,-0.821 0.215,-2.216 -0.44,-2.929 -0.25,-0.272 -0.911,-0.6 -1.215,-0.604 -0.437,-0.004 -1.391,0.59 -2.062,1.286 -0.37,0.383 -0.683,0.683 -0.695,0.668 -0.013,-0.016 -0.085,-0.226 -0.16,-0.466 -0.193,-0.612 -0.518,-0.715 -1.128,-0.357 -0.244,0.143 -0.518,0.372 -0.607,0.509 -0.155,0.235 -0.153,0.26 0.042,0.454 l 0.206,0.206 0.359,-0.212 c 0.197,-0.117 0.375,-0.212 0.394,-0.212 0.019,0 0.11,0.418 0.201,0.928 0.159,0.882 0.158,1.646 -0.002,2.26 -0.044,0.17 -0.025,0.327 0.052,0.42 z m 6.466,-2.058 c 0.106,0.276 0.783,0.085 2.261,-0.636 2.867,-1.398 6.043,-3.295 7.04,-4.204 0.94,-0.857 1.411,-1.99 0.935,-2.245 -0.298,-0.159 -0.521,0.016 -0.713,0.562 -0.093,0.265 -0.304,0.611 -0.47,0.769 l -0.3,0.288 v -0.594 c 0,-0.827 -0.244,-1.472 -0.748,-1.975 -0.566,-0.566 -0.972,-0.643 -1.564,-0.296 -0.572,0.335 -1.25,1.118 -1.648,1.903 -0.176,0.346 -0.334,0.628 -0.351,0.628 -0.018,0 -0.178,-0.089 -0.356,-0.197 -0.879,-0.536 -1.884,0.021 -2.923,1.62 l -0.443,0.681 -0.208,-0.434 c -0.151,-0.314 -0.277,-0.444 -0.455,-0.469 -0.514,-0.073 -1.333,0.639 -1.267,1.102 0.042,0.299 0.474,0.344 0.718,0.074 0.101,-0.111 0.216,-0.203 0.255,-0.203 0.186,0 0.787,1.938 0.787,2.536 0,0.251 -0.058,0.348 -0.27,0.449 -0.28,0.134 -0.383,0.372 -0.28,0.641 z m 6.678,-3.979 c -0.191,0.12 -0.602,0.363 -0.914,0.54 l -0.569,0.322 v -0.643 c 0,-0.354 -0.046,-0.765 -0.103,-0.914 -0.088,-0.232 -0.046,-0.389 0.293,-1.096 0.453,-0.942 1.284,-1.908 1.644,-1.908 0.459,0 0.932,0.866 0.933,1.708 0.001,0.726 -0.493,1.492 -1.284,1.991 z m -3.984,2.217 c -0.627,0.334 -1.182,0.607 -1.233,0.607 -0.051,0 -0.151,-0.342 -0.222,-0.76 l -0.13,-0.76 0.338,-0.634 c 0.435,-0.815 1.138,-1.686 1.558,-1.931 0.307,-0.18 0.352,-0.182 0.655,-0.038 0.424,0.203 0.745,0.854 0.745,1.516 0,0.374 -0.069,0.602 -0.286,0.943 -0.243,0.383 -0.454,0.54 -1.425,1.057 z m -0.36,-5.318 c 0.352,0.352 0.885,0.042 0.885,-0.514 0,-0.261 -0.224,-0.479 -0.492,-0.479 -0.164,0 -0.595,0.462 -0.595,0.638 0,0.084 0.091,0.244 0.202,0.355 z M 27.505,48.122 c 0.468,0.467 1.111,0.003 0.786,-0.567 -0.193,-0.34 -0.509,-0.446 -0.774,-0.26 -0.264,0.184 -0.27,0.569 -0.012,0.827 z m 35.26,-1.047 c 0.144,0.316 0.528,0.343 0.813,0.058 0.378,-0.377 0.157,-0.931 -0.347,-0.873 -0.396,0.046 -0.629,0.455 -0.466,0.815 z m -34.716,8.331 c 1.23,0.502 2.421,0.396 2.421,-0.215 0,-0.334 -0.239,-0.434 -0.893,-0.375 -0.327,0.03 -0.717,-0.001 -0.938,-0.073 l -0.377,-0.125 0.289,-0.146 c 1.136,-0.578 1.757,-2.123 1.241,-3.09 C 29.445,50.73 27.8,50.183 26.709,50.358 l -0.39,0.062 v -0.436 c 0,-0.256 -0.092,-0.619 -0.222,-0.878 -0.183,-0.363 -0.336,-0.498 -0.865,-0.766 -0.526,-0.266 -0.799,-0.336 -1.507,-0.385 -0.476,-0.033 -0.865,-0.07 -0.865,-0.083 0,-0.012 0.112,-0.222 0.249,-0.467 0.33,-0.591 0.227,-0.895 -0.4,-1.173 -0.515,-0.227 -0.917,-0.213 -1.074,0.037 -0.145,0.232 0.021,0.489 0.395,0.613 0.158,0.053 0.301,0.105 0.32,0.116 0.081,0.051 -1,1.606 -1.359,1.957 -0.378,0.367 -0.409,0.379 -0.582,0.222 -0.268,-0.242 -0.597,-0.209 -0.725,0.072 -0.175,0.383 0.121,0.688 2.138,2.202 2.377,1.785 5.015,3.46 6.227,3.955 z m -0.024,-1.608 c -0.15,0.036 -0.34,0.08 -0.421,0.099 -0.388,0.088 -0.85,-0.117 -2.058,-0.909 l -0.823,-0.54 0.328,-0.192 c 0.181,-0.105 0.493,-0.375 0.693,-0.599 l 0.363,-0.407 0.823,-0.035 c 0.663,-0.027 0.946,0.009 1.464,0.191 0.718,0.251 0.869,0.469 0.753,1.088 -0.081,0.435 -0.753,1.216 -1.122,1.304 z M 24.75,51.426 c -0.303,0.157 -1.011,0.197 -1.315,0.074 -0.091,-0.037 -0.61,-0.4 -1.152,-0.806 l -0.987,-0.739 0.315,-0.348 c 0.173,-0.192 0.388,-0.455 0.479,-0.584 0.16,-0.229 0.196,-0.234 1.239,-0.191 1.536,0.063 2.202,0.426 2.199,1.197 -0.002,0.407 -0.462,1.234 -0.778,1.397 z M 49.7,63.977 c 0.221,0.221 0.394,0.193 0.674,-0.108 1.001,-1.08 1.409,-3.361 0.98,-5.483 -0.233,-1.152 -0.238,-3.261 -0.009,-3.769 0.193,-0.428 0.152,-0.622 -0.148,-0.7 -0.465,-0.122 -0.753,0.529 -0.839,1.894 -0.044,0.698 -0.093,0.878 -0.333,1.208 -0.37,0.511 -0.889,0.843 -1.617,1.034 -1.314,0.344 -2.321,-0.223 -2.322,-1.308 -10e-4,-0.342 0.064,-0.491 0.348,-0.805 0.485,-0.537 0.95,-0.74 1.537,-0.671 0.529,0.063 0.721,-0.065 0.667,-0.446 -0.024,-0.17 -0.138,-0.261 -0.449,-0.36 -0.356,-0.112 -0.492,-0.109 -0.945,0.023 -1.619,0.47 -2.388,1.979 -1.686,3.31 0.629,1.194 2.305,1.534 3.838,0.778 0.218,-0.107 0.534,-0.327 0.704,-0.488 0.359,-0.341 0.361,-0.34 0.534,0.732 0.263,1.631 -0.02,3.278 -0.751,4.38 -0.391,0.589 -0.388,0.575 -0.183,0.779 z"
     id="path2" /><path
     d="m 45,31.029 c -6.463,0 -13.312,1.823 -21.48,9.691 -2.313,-1.783 -5.819,-4.428 -5.819,-8.343 0,-3.915 3.126,-7.647 5.946,-9.362 4.506,-2.74 10.037,-5.531 21.353,-5.531 11.316,0 16.928,3.399 21.434,6.14 2.82,1.715 5.946,5.446 5.946,9.361 0,3.915 -3.701,6.579 -6.014,8.362 C 58.198,33.478 51.462,31.029 45,31.029 Z m 18.776,1.817 c 0.679,0.464 1.786,0.365 1.532,0.155 -0.252,-0.209 -0.166,-0.692 0.26,-1.474 0.225,-0.413 0.424,-0.768 0.443,-0.79 0.02,-0.022 0.128,0.078 0.242,0.223 0.21,0.267 0.617,0.353 0.739,0.156 0.125,-0.201 -0.065,-0.79 -0.365,-1.132 -0.388,-0.442 -0.862,-0.478 -1.119,-0.086 l -0.169,0.257 -0.233,-0.504 C 64.977,29.373 64.715,28.94 64.522,28.687 63.843,27.799 63.195,27.513 62.488,27.79 l -0.384,0.151 -0.311,-0.485 c -0.362,-0.564 -1.124,-1.278 -1.611,-1.509 -1.084,-0.514 -1.994,0.343 -1.924,1.815 0.018,0.381 0.004,0.693 -0.032,0.693 -0.036,0 -0.262,-0.228 -0.502,-0.507 -0.351,-0.407 -0.477,-0.493 -0.646,-0.44 -0.286,0.091 -0.369,0.41 -0.181,0.697 0.358,0.547 1.018,1.027 3.266,2.373 1.308,0.783 2.934,1.803 3.613,2.268 z M 61.3,28.247 c 0.181,0.354 0.197,0.496 0.131,1.141 l -0.076,0.736 -0.863,-0.496 c -0.884,-0.508 -1.146,-0.773 -1.346,-1.361 -0.234,-0.69 -0.019,-1.591 0.38,-1.591 0.496,0 1.365,0.769 1.774,1.571 z m 3.264,3.402 c -0.112,0.254 -0.236,0.458 -0.274,0.454 -0.108,-0.013 -1.124,-0.762 -1.437,-1.06 -0.408,-0.387 -0.582,-0.781 -0.582,-1.317 0,-0.603 0.28,-1.112 0.635,-1.154 0.371,-0.043 0.875,0.441 1.29,1.24 0.565,1.089 0.607,1.298 0.368,1.837 z M 24.17,33.246 c 0.16,0.113 0.332,0.139 0.617,0.092 0.515,-0.084 0.831,-0.251 1.641,-0.869 0.805,-0.612 3.711,-2.434 5.307,-3.326 1.07,-0.598 1.156,-0.668 1.156,-0.939 0,-0.276 -0.023,-0.293 -0.395,-0.295 -0.393,-10e-4 -0.397,-0.005 -0.756,-0.741 -0.199,-0.407 -0.392,-0.884 -0.428,-1.061 -0.065,-0.312 -0.058,-0.321 0.267,-0.321 0.538,0 0.795,-0.466 0.38,-0.688 -0.255,-0.137 -0.925,-0.13 -1.235,0.011 -0.307,0.14 -0.388,0.372 -0.304,0.87 l 0.064,0.383 -0.577,-0.053 c -1.469,-0.133 -2.63,0.506 -2.766,1.523 l -0.054,0.398 -0.677,0.057 c -0.691,0.058 -1.35,0.292 -1.876,0.666 -1.001,0.713 -0.715,2.336 0.525,2.972 0.204,0.105 0.371,0.21 0.371,0.235 0,0.106 -0.608,0.346 -0.878,0.346 -0.31,0 -0.605,0.218 -0.605,0.447 0,0.074 0.1,0.206 0.223,0.293 z m 2.123,-1.918 c -0.175,0.05 -0.319,0.087 -0.319,0.082 0,-0.004 -0.141,-0.049 -0.312,-0.099 -0.171,-0.049 -0.449,-0.247 -0.618,-0.439 -0.748,-0.853 -0.102,-1.62 1.505,-1.784 l 0.627,-0.065 0.45,0.457 c 0.248,0.251 0.5,0.457 0.56,0.457 0.267,0 0.051,0.218 -0.732,0.739 -0.463,0.308 -0.985,0.602 -1.161,0.652 z m 4.044,-2.441 c -0.589,0.308 -0.996,0.457 -1.247,0.457 -0.906,0 -1.551,-1.229 -0.957,-1.823 0.267,-0.266 1.163,-0.488 1.664,-0.411 1.13,0.174 1.053,0.135 1.324,0.669 0.14,0.276 0.217,0.536 0.172,0.577 -0.045,0.041 -0.475,0.28 -0.956,0.531 z m 25.236,-0.63 c 0.222,0.222 0.283,0.234 0.493,0.102 0.112,-0.071 0.148,-0.32 0.155,-1.061 0.005,-0.533 0.065,-1.176 0.134,-1.429 l 0.126,-0.46 0.324,0.19 c 0.355,0.21 0.607,0.169 0.696,-0.112 0.077,-0.244 -0.12,-0.542 -0.56,-0.848 -0.477,-0.331 -0.864,-0.292 -1.068,0.109 -0.084,0.163 -0.161,0.314 -0.173,0.335 -0.012,0.02 -0.274,-0.193 -0.582,-0.475 -0.698,-0.638 -1.388,-0.996 -1.919,-0.996 -0.421,0 -0.864,0.178 -1.076,0.433 -0.108,0.131 -0.215,0.088 -0.833,-0.337 -1.133,-0.781 -2.285,-0.955 -2.756,-0.418 -0.679,0.775 -0.611,2.186 0.143,2.964 0.563,0.58 1.639,0.805 1.895,0.397 0.161,-0.259 -0.043,-0.508 -0.473,-0.578 -0.2,-0.033 -0.477,-0.12 -0.616,-0.195 -0.541,-0.289 -0.813,-1.369 -0.469,-1.861 0.142,-0.201 0.218,-0.223 0.594,-0.172 0.556,0.077 1.056,0.336 1.641,0.852 0.427,0.377 0.47,0.454 0.47,0.851 0,0.555 0.331,1.266 0.731,1.572 0.171,0.13 0.522,0.293 0.782,0.362 0.495,0.133 0.697,0.079 0.897,-0.239 0.152,-0.241 -0.186,-0.568 -0.587,-0.568 -0.946,0 -1.43,-1.715 -0.613,-2.171 0.257,-0.142 0.304,-0.135 0.821,0.136 0.323,0.168 0.773,0.535 1.092,0.889 l 0.544,0.603 -0.022,0.642 c -0.036,1.026 -10e-4,1.273 0.209,1.483 z M 25.257,26.116 c 0.255,0.103 0.394,0.057 0.674,-0.224 0.331,-0.33 0.351,-0.426 0.134,-0.642 -0.207,-0.208 -0.36,-0.196 -0.671,0.049 -0.279,0.219 -0.364,0.726 -0.137,0.817 z m 8.709,1.446 c 0.635,0.195 1.732,-0.065 1.878,-0.445 0.085,-0.222 -0.106,-0.54 -0.325,-0.54 -0.1,0 -0.344,0.067 -0.542,0.15 -0.738,0.309 -1.333,-0.122 -1.42,-1.028 -0.044,-0.456 -0.022,-0.523 0.266,-0.811 0.307,-0.306 0.33,-0.312 1.025,-0.264 0.392,0.028 0.959,0.145 1.262,0.26 0.528,0.202 0.557,0.233 0.718,0.743 0.253,0.801 0.735,1.325 1.093,1.187 0.279,-0.107 0.287,-0.421 0.02,-0.738 -0.278,-0.331 -0.526,-1.065 -0.615,-1.823 l -0.058,-0.496 0.446,0.035 c 0.385,0.031 0.455,0.007 0.513,-0.176 0.088,-0.278 -0.084,-0.472 -0.528,-0.595 -0.882,-0.245 -1.362,0.021 -1.27,0.705 0.048,0.362 0.038,0.383 -0.162,0.319 -0.988,-0.317 -2.128,-0.322 -2.684,-0.011 -0.701,0.392 -1,1.319 -0.734,2.278 0.132,0.477 0.712,1.125 1.117,1.25 z M 52.62,22.749 c 0.238,0.223 0.327,0.254 0.486,0.169 0.358,-0.192 0.23,-0.54 -0.532,-1.452 -0.913,-1.092 -1.08,-1.238 -1.366,-1.198 -0.164,0.023 -0.239,0.107 -0.26,0.29 -0.023,0.197 0.133,0.448 0.675,1.087 0.388,0.457 0.836,0.953 0.997,1.104 z m -27.715,4.9 c 0.389,0.217 1.034,-0.378 0.828,-0.764 -0.142,-0.265 -0.401,-0.267 -0.735,-0.005 -0.297,0.234 -0.345,0.628 -0.093,0.769 z M 26.69,26.47 c 0.228,0.133 0.241,0.132 0.496,-0.047 0.507,-0.355 0.504,-0.835 -0.005,-0.835 -0.555,0 -0.91,0.638 -0.491,0.882 z m 14.435,3.587 c 0.261,0.289 0.411,0.377 0.603,0.354 0.362,-0.042 0.388,-0.396 0.059,-0.787 -0.63,-0.749 -1.042,-1.923 -1.187,-3.383 -0.064,-0.637 -0.056,-0.676 0.114,-0.604 1.148,0.484 2.06,0.524 2.918,0.129 0.866,-0.4 1.346,-1.335 1.129,-2.2 -0.093,-0.369 -0.736,-1.043 -1.196,-1.252 -0.448,-0.204 -1.337,-0.242 -1.662,-0.071 -0.679,0.357 -0.351,1.026 0.374,0.763 0.268,-0.096 0.422,-0.096 0.755,0.004 0.913,0.274 1.251,1.052 0.728,1.675 -0.337,0.4 -0.819,0.543 -1.637,0.484 -0.536,-0.038 -0.771,-0.111 -1.159,-0.359 -0.437,-0.281 -0.507,-0.378 -0.702,-0.978 -0.369,-1.134 -0.88,-1.708 -1.248,-1.402 -0.199,0.165 -0.179,0.463 0.05,0.754 0.377,0.479 0.596,1.29 0.698,2.584 0.165,2.09 0.593,3.436 1.363,4.289 z m -6.059,-7.63 c 0.382,0.252 0.706,0.249 0.843,-0.007 0.094,-0.176 0.052,-0.255 -0.318,-0.597 -0.41,-0.379 -0.419,-0.4 -0.235,-0.538 0.465,-0.348 1.441,-0.078 2.358,0.651 0.6,0.478 0.989,0.507 1.039,0.076 0.026,-0.221 -0.063,-0.34 -0.531,-0.706 -1.441,-1.132 -2.737,-1.324 -3.478,-0.518 -0.176,0.193 -0.321,0.451 -0.321,0.575 0,0.336 0.307,0.843 0.643,1.064 z m 27.672,3.64 c 0.276,0.151 0.499,0.14 0.642,-0.033 0.326,-0.393 -0.358,-1.078 -0.853,-0.853 -0.377,0.172 -0.269,0.624 0.211,0.886 z"
     id="path3" /></svg>
