<?xml version="1.0" encoding="UTF-8" standalone="no"?>
<svg
   version="1.1"
   width="600"
   height="320.58008"
   id="svg1"
   xmlns="http://www.w3.org/2000/svg"
   xmlns:svg="http://www.w3.org/2000/svg">
  <defs
     id="defs1" />
  <path
     d="M 38.724609,0 C 29.820609,21.372 20.207922,42.563927 13.919922,64.919922 9.9839219,78.983922 5.3406875,93.047776 3.8046875,107.67578 2.7726875,116.85578 1.452,126.00053 0,135.14453 v 57.08399 c 1.92,7.692 3.0969062,15.51556 4.1289062,23.35156 1.824,13.5 6.2267968,26.38733 9.4667968,39.61133 7.356,22.25999 15.228453,44.53266 26.064453,65.38867 H 560.48438 c 8.11199,-16.404 14.9997,-33.41979 21.0957,-50.67578 3.84,-13.452 9.04814,-26.58 11.24414,-40.5 3.612,-14.808 4.69178,-30.14453 7.17578,-45.14453 v -54.64844 c -2.76,-12.384 -3.93525,-25.03118 -7.03125,-37.367189 C 587.38875,60.000141 573.51592,30.144 561.41992,0 Z m 21.810547,18.863281 c 3.201,0.01656 6.401891,0.09627 9.587891,0.07227 157.728003,-0.048 315.421283,0.0011 473.113283,-0.04687 1.632,0.04801 3.27562,0.144234 5.01562,0.240234 4.404,10.776 9.37177,21.323021 13.25977,32.291016 3.516,12.048 8.67653,23.676531 10.64453,36.144531 2.904,10.404 4.25939,21.144518 6.27539,31.728518 1.78848,12.984 1.45204,26.1114 2.35156,39.19141 -0.984,16.824 -0.19103,33.83954 -3.70703,50.43554 -4.596,32.208 -16.50053,62.72378 -28.64453,92.67578 -165.612,0.096 -331.30792,0.096 -496.919921,0 -2.904,-7.368 -5.808,-14.67554 -9,-21.93554 -4.872,-14.77199 -11.435844,-29.11238 -14.339844,-44.48438 -2.484,-11.112 -5.303859,-22.1745 -6.755859,-33.5625 -1.72848,-16.692 -1.728184,-33.56439 -1.595704,-50.40039 0.144,-16.632 0.996,-33.32481 4.5,-49.63281 3,-16.788008 8.771938,-32.951784 13.835938,-49.175784 3.42,-11.388005 9.695016,-21.744506 12.791016,-33.228516 3.186,-0.282235 6.38689,-0.329061 9.58789,-0.3125 z m 8.316406,19.056641 c -1.68,0.048 -3.371624,0.241395 -5.015624,0.421875 -6.696001,16.319995 -12.467547,33.095625 -17.435547,50.015625 -3.324,16.788008 -6.936438,33.610658 -8.148438,50.722658 -0.38112,14.904 -0.514062,29.85772 0.08594,44.76172 1.176,10.83601 2.484531,21.75525 4.644531,32.53125 1.836,6.84 2.386719,14.11095 5.386719,20.62695 8.916,-8.532 14.160453,-19.96748 18.564453,-31.27148 8.304,-19.164 13.224609,-39.6 22.224609,-58.5 1.404,-2.808 4.127703,-5.6638 7.595703,-5.19532 5.340002,0.56399 10.307982,2.95214 15.083982,5.24414 2.628,1.41599 6.04824,3.14281 6.24023,6.4668 1.12801,6.852 -3.9354,12.33594 -6.1914,18.33594 -3.18,8.34 -7.82467,16.03213 -9.88867,24.74414 -2.340001,8.72399 -5.951251,17.72429 -4.031251,26.9043 1.224,6.28799 7.967321,8.40007 12.611321,11.58007 0.41953,4.83599 0.41923,9.70921 0.0957,14.53321 -10.176,-1.824 -20.531859,-1.82521 -30.755859,-1.03321 -8.856,1.22399 -17.952516,2.82083 -25.728516,7.54883 2.664,8.772 6.048141,17.30258 9.744141,25.64258 4.74,1.35553 9.851781,0.46817 14.675781,0.66016 151.260003,-0.048 302.485263,-0.048 453.697263,0 1.692,-0.144 4.12772,0.0487 4.51172,-2.11133 5.616,-14.33999 11.616,-28.6434 15,-43.69141 1.872,-7.212 3.98353,-14.24474 5.51953,-21.46875 1.464,-6.792 1.69261,-13.72724 2.72461,-20.53125 0.936,-6.83999 2.01592,-13.68006 1.91992,-20.66406 h -0.002 c -0.048,-16.5 0.83955,-33.19366 -2.06445,-49.59766 -1.08,-11.904 -3.93571,-23.53185 -6.09571,-35.255856 -3.42,-12.276 -7.82459,-24.178563 -11.80859,-36.226563 -1.824,-5.16 -3.46763,-10.501656 -6.51563,-15.097656 -155.532,-0.192 -311.06453,0.0483 -466.644526,-0.0957 z M 484.03125,54.144531 c 0,0 10.07941,4.25961 15.19141,9.59961 4.032,4.224 13.2132,9.192 16.0332,12 2.76,2.772 10.58437,12.804609 15.98437,19.224609 0,0 1.2116,9.98339 -0.41992,28.77539 0,0 -28.368,27.98333 -36,39.61133 0,0 10.4046,1.17657 14.8086,0.37305 4.404,-0.792 11.6277,-2.76068 19.5957,-2.38868 0,0 5.19561,-7.96693 9.59961,-13.21093 l 8.01562,9.22851 c 0,0 -15.60022,27.19171 -16.82422,43.5957 0,0 -12.37071,-1.22421 -14.38671,1.17579 0,0 0.37095,-6.75615 -0.37305,-11.16016 0,0 -18.80402,-1.59641 -34.41602,-0.41992 -15.6,1.176 -33.22889,1.59659 -49.21289,2.80859 0,0 10.40422,-9.61251 16.82422,-15.22851 6.372,-5.58 12.372,-12.00038 18,-15.98438 5.58,-3.984 8.77269,-6.80437 12.80469,-9.98437 3.984,-3.192 15.9828,-17.62666 25.9668,-25.22266 0,0 1.59774,-8.38934 -0.80274,-16.77734 -2.388,-8.436 -8.80897,-12.431629 -18.79297,-20.015629 -9.984,-7.596 -23.20695,-7.596015 -29.62695,-4.416015 0,0 -3.56534,13.22362 1.22266,20.015624 -0.004,0.002 -10.78935,6.38505 -24.80274,17.20703 0,0 0.80487,-12.41933 2.40039,-21.61133 1.632,-9.180001 0.41992,-13.210934 0.41992,-13.210934 0,0 3.59835,-5.581062 10.40235,-10.789062 6.792,-5.196 12.61304,-8.387328 15.37304,-9.611328 2.808,-1.212 8.62763,-7.211985 23.01563,-13.583985 z m -248.48437,0.791016 c 5.95199,0.41952 11.43584,2.773344 17.33984,3.277344 8.436,0.80448 16.93119,0.803589 25.36719,0.287109 4.872,-0.192 9.32443,-2.387703 14.14843,-3.095703 4.176,1.968 7.88432,4.823484 11.82032,7.271484 -0.51648,6.228 -3.19352,12.131922 -2.35352,18.419922 1.128,9.42 3.09661,18.888745 7.22461,27.468747 6.372,12.744 14.06347,24.88732 19.35547,38.19532 7.032,16.884 15.1929,33.33714 20.6289,50.86914 2.676,8.244 3.09615,17.90368 9.74415,24.17968 6.096,5.35201 13.12876,9.56446 19.88476,14.06446 2.808,1.96801 5.85434,4.07947 7.40235,7.35547 -0.41952,4.64401 -2.80763,8.72303 -5.01563,12.70703 -10.692,-1.176 -20.7717,-5.43571 -31.5957,-6.09571 -16.68,-2.244 -33.98332,-2.38793 -50.19532,2.58008 -5.868,1.788 -10.8369,5.53208 -16.1289,8.58008 -4.356,-4.452 -8.7711,-8.85592 -12.3711,-13.91992 8.148,-8.064 19.35518,-13.73956 23.95118,-24.85156 3.372,-9.42 -1.93186,-18.83991 -5.25586,-27.50391 -6.468,-17.868 -16.404,-34.17563 -24,-51.51563 -1.548,-2.724 -2.67578,-6.14482 -5.67578,-7.54882 -4.116,0.552 -8.00452,4.2612 -12.22852,2.5332 -4.356,-2.82 -7.59622,-7.03247 -10.82422,-10.98047 -2.676,-3.084 -3.98303,-7.58468 -2.20703,-11.38867 2.484,-3.84 6.27464,-6.6123 8.80664,-10.4043 3.24,-4.72799 6.43208,-9.564295 8.58008,-14.904295 1.08,-2.388 -0.41979,-4.871094 -2.19531,-6.371094 -7.176,-5.82 -16.07978,-8.77164 -23.67579,-13.93164 3.04801,-5.196 6.37275,-10.213344 9.46876,-15.277344 z M 416.85547,56.4375 c -0.51552,16.92 0.19245,33.886636 -0.93555,50.80664 -0.18048,16.548 0.75463,38.35239 0.51367,54.90039 0.24,2.904 -1.72732,6.64866 -3.61132,8.38867 -6.696,5.80799 -12.324,10.40331 -18,17.19532 -1.356,1.78799 -7.16369,6.70852 -9.17969,7.64453 1.5,-30.564 2.19557,-67.08054 0.37109,-97.644534 -0.048,-1.632 1.03299,-4.871391 -0.79101,-4.775391 -7.32,-0.61248 -18.70875,1.080402 -25.96875,0.419922 -0.288,-3.372 -0.61116,-8.244906 -0.43164,-11.628906 6.192,-4.5 17.35223,-7.774797 24.24023,-10.966797 11.292,-4.68 22.17697,-10.451844 33.79297,-14.339844 z m -312.4668,3.402344 c 6.32475,0.06188 12.6426,1.133656 18.9336,1.097656 13.644,0.37152 27.28876,-0.04928 40.88476,0.886719 1.116,9.288 6.04777,17.484984 11.75977,24.708984 10.224,13.776007 16.96906,29.952467 28.78906,42.564457 1.632,1.452 3.32406,3.37079 5.66406,3.46679 3.804,-1.27201 6.98363,-4.12794 11.01563,-4.83593 4.692,0.384 7.6434,4.73993 10.6914,7.83593 3.048,3.744 7.72853,7.77691 6.14453,13.12891 -1.884,5.34001 -7.07993,9.03548 -7.83593,14.85547 -1.08,9.32401 -0.41982,18.98498 3.0957,27.79297 5.904,15.24 12.04784,30.65879 14.33984,46.96679 -4.968,2.724 -10.54709,4.36801 -15.37109,7.5 -10.92,7.08 -19.45252,17.25571 -25.72852,28.59571 -5.676,-2.484 -11.35178,-5.112 -16.17578,-9 -0.936,-2.064 -0.24106,-4.49932 -0.28906,-6.69532 1.272,-14.448 -1.6803,-28.88331 -5.9043,-42.61132 -4.164,-13.224 -7.87168,-26.67595 -13.67968,-39.33594 -7.416,-17.532 -15.51557,-35.14823 -27.85157,-49.82422 -2.532,-2.208 -5.56739,-7.12777 -9.27539,-4.25977 -4.596,4.212 -4.64528,11.71048 -9.61328,15.64649 -6.372,1.78799 -11.99954,-2.48334 -17.43554,-5.11133 -3.744,-1.96801 -9.192458,-4.58302 -8.064458,-9.79101 2.579998,-10.452 8.255918,-19.92187 10.919918,-30.42188 0.192,-3.276 1.69328,-8.530422 -2.38672,-9.982422 -5.53199,-2.772 -12.001198,-2.905203 -17.533198,-5.533203 -2.292,-1.176 -2.48325,-4.126875 -1.03125,-6.046875 2.772,-4.032 5.627328,-8.292141 9.611328,-11.244141 2.109,-0.282 4.21792,-0.37414 6.32617,-0.353515 z"
     id="path1" />
</svg>
