<?xml version="1.0" encoding="UTF-8" standalone="no"?>
<svg
   version="1.1"
   id="Layer_1"
   x="0px"
   y="0px"
   width="365.06595"
   height="500"
   xmlns="http://www.w3.org/2000/svg"
   xmlns:svg="http://www.w3.org/2000/svg">
  <defs
     id="defs22">
    <linearGradient
       id="path3765_3_"
       gradientUnits="userSpaceOnUse"
       x1="11.123"
       y1="649.34003"
       x2="44.799"
       y2="658.35999"
       gradientTransform="matrix(10,0,0,-10,-83.598893,6790.5)">
      <stop
         offset="0"
         style="stop-color:#8b723c"
         id="stop4" />
      <stop
         offset="0.4"
         style="stop-color:#d2bb7b"
         id="stop6" />
      <stop
         offset="0.5"
         style="stop-color:#ebd491"
         id="stop8" />
      <stop
         offset="0.6"
         style="stop-color:#d2bb7b"
         id="stop10" />
      <stop
         offset="1"
         style="stop-color:#8b723c"
         id="stop12" />
    </linearGradient>
  </defs>
  <path
     d="m 171.33011,0 -16.22,2.76 -1.24,0.22 V 2.91 C 79.884107,14.6 24.904107,70.61 6.5338069,137.23 c -18.1096999,65.65 0.35,142.65 68.9003001,196.3 31.986003,63.51 58.436003,102.85 90.206003,166.47 l 5.69,-211.07 v -0.9 -7.28 c 3.66,0.4 7.36,0.7 11.13,0.7 14.26,0 27.86,-3.12 40.09,-8.73 -59.28,57.23 -57.73,127.48 -26.41,171.49 16.35,22.97 39.46,40.54 64.97,40.45 36.44,-0.1 69.66,-9 96.77,-60.22 -20.09,13.33 -54.13,34.93 -77.71,20.21 -45.63,-28.51 -35.71,-82.75 6.19,-108.85 74.79,-46.58 89.37,-131.9 72.25,-197.76 -17.12,-65.87 -71.41,-121.1 -147.7,-135.06 h -0.2 l -0.16,-0.07 -1.38,-0.22 -16.15,-2.54 v 16.37 1.38 60.17 0.8 9.46 c -3.48,-0.38 -6.98,-0.58 -10.56,-0.58 -3.77,0 -7.47,0.23 -11.13,0.65 z"
     id="path2"
     style="stroke-width:10" />
  <path
     fill="url(#path3765_3_)"
     d="m 157.36011,16.52 -1.31,0.21 C 87.814107,27.52 37.004107,79.26 19.994107,140.94 c -16.9703001,61.54 -0.17,132.99 66.43,183.57 0,0 0.1,0 0.1,0 l 68.386003,136.13 2.19,4.37 v -4.87 l 0.3,-171.27 v -0.9 l -0.9,-0.2 c -51.09,-13.39 -79.066003,-56.49 -80.326003,-100.76 -1.26,-44.27 24.166003,-89.68 80.396003,-107.83 l 0.8,-0.21 V 78.07 17.9 16.52 Z m 49.62,0 v 1.38 60.17 0.8 l 0.7,0.29 c 72.41,26.49 90.61,85.88 81.05,129.95 -6.85,31.57 -30.2,50.41 -48.83,66.5 -63.43,54.8 -61.26,120.02 -32.45,160.51 14.4,20.24 35.41,34.34 58.21,37.91 22.71,3.55 47.14,-3.51 68.17,-25.1 0,0 0,0 0,0 0,0 0.2,-0.1 0.2,-0.2 l 6.9,-7.13 -8.36,5.39 c 0,0 -0.2,0.1 -0.2,0.2 -32.74,20.85 -68.99,8.44 -85.93,-18.12 -16.86,-26.68 -14.53,-67.57 31.17,-104.18 64.96,-52.04 83.24,-122.58 67.44,-183.35 -15.76,-60.79 -65.63,-111.8 -136.68,-124.81 z m -24.52,96.33 c -39.62,0 -71.74,32.05 -71.74,71.67 0,39.62 32.12,71.74 71.74,71.74 39.62,0 71.74,-32.12 71.74,-71.74 0,-39.62 -32.12,-71.67 -71.74,-71.67 z"
     id="path15"
     style="fill:url(#path3765_3_);stroke-width:10" />
</svg>
