<svg xmlns="http://www.w3.org/2000/svg" width="600" height="280.2"><radialGradient id="a" cx="0" cy="0" r="1" fx="0" fy="0" gradientTransform="matrix(19.4656 0 0 -19.4656 401.002 257.407)" gradientUnits="userSpaceOnUse" spreadMethod="pad"><stop offset="0" style="stop-color:#d9eaf3"/><stop offset=".663" style="stop-color:#99aebc"/><stop offset="1" style="stop-color:#536e78"/></radialGradient><path d="M417.767 106.69c.037.36.037.72.037 1.08 0-.361-.037-.72-.037-1.08" style="fill:#fff"/><path d="m300.074 280.2-8.298-4.541c-26.788-14.714-50.585-34.293-62.372-44.603l-64.08 21.341-15.896 5.308-5.557-15.831-9.083-25.892-5.557-15.757 15.61-5.88 58.956-22.173c-.073-1.55-.147-3.101-.212-4.541l-39.416-15.148c-5.843 4.108-12.83 6.277-20.446 6.277-15.646 0-29.021-9.092-31.55-10.93L42.507 95.078 0 62.88l53.326 1.588c2.926.074 71.539 2.123 93.573 4.255 19.938 1.948 30.073 13.699 33.895 25.459l22.098 8.215-.461-50.843L201.849 0l7.394 9.73s26.464 39.267 43.163 55.273c3.314 3.212 6.268 5.483 8.29 6.277 5.408-2.234 16.984-15.61 24.553-28.523l14.714-24.988 14.788 24.988c7.606 12.914 19.181 26.29 24.553 28.523 1.911-.72 4.616-2.778 7.717-5.658 17.05-16.007 44.133-56.364 44.133-56.364L398.188 0l-.582 51.554-.47 50.843 22.107-8.215c3.822-11.76 13.957-23.511 33.895-25.459 22.034-2.132 90.647-4.181 93.573-4.255L600 62.88l-42.508 32.197-69.267 52.542c-2.89 2.049-16.265 11.141-31.911 11.141-7.616 0-14.576-2.206-20.446-6.277l-39.453 15.11c-.066 1.478-.1 3.029-.212 4.58l58.984 22.172 15.619 5.88-5.557 15.757-9.083 25.892-5.557 15.83-15.896-5.307-64.08-21.341c-11.787 10.31-35.584 29.889-62.372 44.603z" style="fill:#fff"/><path d="M299.964 260.732c-35.696-19.615-66.49-49.006-66.49-49.006l-73.523 24.48-9.083-25.883 70.708-26.612c-.72-9.083-1.403-27.979-1.403-27.979L159.95 132.62c-12.581 19.578-37.827 1.403-37.827 1.403L52.828 81.489s70.708 2.123 92.41 4.219c21.71 2.086 20.307 20.981 20.307 20.981l54.628 20.299-.73-75.61s23.807 37.136 41.327 37.136c17.492 0 39.194-37.136 39.194-37.136h.074s21.701 37.136 39.23 37.136c17.484 0 41.29-37.136 41.29-37.136l-.692 75.61 54.59-20.299s-1.365-18.895 20.345-20.981c21.665-2.096 92.41-4.219 92.41-4.219l-69.305 52.533s-25.237 18.175-37.819-1.403l-60.221 23.113s-.72 18.896-1.403 27.979l70.708 26.612-9.084 25.883-73.523-24.48s-30.793 29.391-66.526 49.006z" style="fill:#536e78"/><path d="M396.75 264.441c-1.426 0-3.047 1.778-4.012 3.039l.063-6.753.008-.653-.618.227-5.914 2.199-.312.117.023.332c.008.168.043 1.621-1.797 1.801-1.695.164-6.242.328-8.57.402l6.371-4.824c.012-.008 1.059-.746 2.078-.746.59 0 1.043.254 1.379.777l.199.305.34-.133 6.524-2.5.277-.105.012-.297c0-.004.074-2.035.148-3.016l.031-.336-.32-.121-7.25-2.726.695-1.973 7.543 2.516.258.082.196-.184c.035-.035 3.218-3.055 6.898-5.125 3.68 2.07 6.871 5.09 6.902 5.125l.2.184.253-.082 7.543-2.516.692 1.973-7.25 2.726-.313.121.024.336c.078.981.148 3.012.148 3.016l.016.297.273.105 6.524 2.5.343.133.2-.305c.336-.523.785-.777 1.379-.777 1.019 0 2.066.738 2.07.742l6.379 4.828c-2.328-.074-6.875-.238-8.571-.402-1.839-.18-1.804-1.633-1.796-1.801l.019-.336-.312-.113-5.914-2.199-.614-.227.004.653.067 6.753c-.969-1.261-2.586-3.039-4.012-3.039-1.672 0-3.469 2.43-4.254 3.629-.785-1.199-2.578-3.629-4.25-3.629" style="fill:url(#a)" transform="matrix(9.23077 0 0 -9.23077 -3401.54 2533.663)"/></svg>