<svg xmlns="http://www.w3.org/2000/svg" xmlns:xlink="http://www.w3.org/1999/xlink" width="600" height="576"><linearGradient id="c" x1="0" x2="1" y1="0" y2="0" gradientTransform="rotate(-144.974 150.58 61.904)scale(208.20808 -208.20808)" gradientUnits="userSpaceOnUse" spreadMethod="pad"><stop offset="0" style="stop-color:#bf331c"/><stop offset=".468" style="stop-color:#f6b91d"/><stop offset="1" style="stop-color:#bf331c"/></linearGradient><linearGradient id="a" x1="0" x2="1" y1="0" y2="0" gradientTransform="rotate(-144.974 148.794 67.56)scale(208.20808 -208.20808)" gradientUnits="userSpaceOnUse" spreadMethod="pad"><stop offset="0" style="stop-color:#bf331c"/><stop offset=".468" style="stop-color:#f6b91d"/><stop offset="1" style="stop-color:#bf331c"/></linearGradient><linearGradient xlink:href="#a" id="d" x1="0" x2="1" y1="0" y2="0" gradientTransform="rotate(144.974 206.712 152.876)scale(416.41614)" gradientUnits="userSpaceOnUse" spreadMethod="pad"/><linearGradient xlink:href="#c" id="e" x1="0" x2="1" y1="0" y2="0" gradientTransform="rotate(144.974 210.282 164.19)scale(416.41614)" gradientUnits="userSpaceOnUse" spreadMethod="pad"/><path d="M378.148 202.988 253.91 366.852l59.242 37.906V535.71l-91.294-162.694 124.236-163.864-59.238-37.91V40.288Zm168.894 26.246c-33.016.003-59.776 26.796-59.776 59.848 0 33.054 26.764 59.852 59.776 59.852L331.534 535.71V394.676l-50.936-32.59L400.082 204.5 307.894 40.288ZM52.964 346.766c33.012 0 59.774-26.798 59.774-59.848 0-33.058-26.762-59.852-59.778-59.852L268.472 40.288V181.32l50.932 32.594-119.482 157.59 92.186 164.206zM286.728.11 3.638 245.472H52.96c22.824 0 41.396 18.594 41.396 41.446S75.788 328.36 52.964 328.36H0l313.152 247.436V576l.12-.106L596.364 330.53h-49.322c-22.824 0-41.394-18.592-41.394-41.448 0-22.852 18.57-41.442 41.394-41.442l52.958-.008L286.856.206V0Z"/><path d="M52.962 227.066c33.013 0 59.776 26.793 59.776 59.852 0 33.05-26.763 59.848-59.776 59.848L292.109 535.71l-92.187-164.206 119.482-157.59-50.933-32.592V40.29Z" style="fill:url(#d);stroke-width:1.6"/><path d="M52.96 227.067c33.016 0 59.778 26.792 59.778 59.851 0 33.05-26.762 59.848-59.774 59.848L292.108 535.71 199.92 371.504l119.484-157.59-50.932-32.592V40.288Z" style="fill:none;stroke:#000;stroke-width:12;stroke-miterlimit:100"/><path d="M400.082 204.5 280.597 362.086l50.936 32.592V535.71l215.51-186.776c-33.012 0-59.777-26.798-59.777-59.852 0-33.05 26.762-59.842 59.776-59.848L307.895 40.29Z" style="fill:url(#e);stroke-width:1.6"/><path d="M547.042 348.934c-33.011 0-59.778-26.796-59.778-59.852 0-33.05 26.762-59.844 59.778-59.848L307.895 40.29l92.187 164.21-119.485 157.586 50.938 32.59v141.036Z" style="fill:none;stroke:#000;stroke-width:12;stroke-miterlimit:100"/></svg>