<svg xmlns="http://www.w3.org/2000/svg" xmlns:xlink="http://www.w3.org/1999/xlink" width="600" height="576"><linearGradient id="a" x1="0" x2="1" y1="0" y2="0" gradientTransform="scale(-208.20808 208.20808)rotate(-35.026 .942 2.292)" gradientUnits="userSpaceOnUse" spreadMethod="pad"><stop offset="0" style="stop-color:#8b723c"/><stop offset=".468" style="stop-color:#ebd491"/><stop offset="1" style="stop-color:#8b723c"/></linearGradient><linearGradient id="b" x1="0" x2="1" y1="0" y2="0" gradientTransform="scale(-208.20808 208.20808)rotate(-35.026 1.028 2.265)" gradientUnits="userSpaceOnUse" spreadMethod="pad"><stop offset="0" style="stop-color:#8b723c"/><stop offset=".468" style="stop-color:#ebd491"/><stop offset="1" style="stop-color:#8b723c"/></linearGradient><linearGradient xlink:href="#a" id="d" x1="0" x2="1" y1="0" y2="0" gradientTransform="rotate(144.974 210.29 164.222)scale(416.41615)" gradientUnits="userSpaceOnUse" spreadMethod="pad"/><linearGradient xlink:href="#b" id="c" x1="0" x2="1" y1="0" y2="0" gradientTransform="rotate(144.974 206.742 152.921)scale(416.41615)" gradientUnits="userSpaceOnUse" spreadMethod="pad"/><path d="M378.148 202.988 253.91 366.852l59.242 37.906V535.71l-91.294-162.694 124.236-163.864-59.238-37.91V40.288Zm168.894 26.246c-33.016.004-59.776 26.796-59.776 59.848 0 33.054 26.764 59.852 59.776 59.852L331.534 535.71V394.676l-50.936-32.59L400.082 204.5 307.894 40.288ZM52.964 346.766c33.012 0 59.774-26.798 59.774-59.848 0-33.058-26.762-59.852-59.778-59.852L268.472 40.288V181.32l50.932 32.594-119.482 157.59 92.186 164.206zM286.728.11 3.638 245.472H52.96c22.824 0 41.396 18.594 41.396 41.446S75.788 328.36 52.964 328.36H0l313.152 247.436V576l.12-.106L596.364 330.53h-49.322c-22.824 0-41.394-18.592-41.394-41.448 0-22.852 18.57-41.442 41.394-41.442l52.958-.008L286.856.206V0Z"/><path d="M52.962 227.066c33.014 0 59.776 26.794 59.776 59.852 0 33.05-26.762 59.848-59.774 59.848L292.11 535.71l-92.188-164.206 119.482-157.59-50.932-32.592V40.29Z" style="fill:url(#c);stroke-width:2"/><path d="M400.082 204.5 280.598 362.086l50.936 32.59V535.71l215.51-186.776c-33.012 0-59.778-26.798-59.778-59.852 0-33.05 26.762-59.842 59.778-59.848L307.896 40.29Z" style="fill:url(#d);stroke-width:2"/></svg>