<svg xmlns="http://www.w3.org/2000/svg" xml:space="preserve" width="149.998" height="110.092"><path fill="#5e5f62" d="M59.308 22.954 73.978.182a54.7 54.7 0 0 1 17.276 3.45l-7.427 19.02c-8.027-2.941-16.765-2.74-24.519.302M40.501 82.379l4.199-5.997c-4.962-6.358-7.479-14.208-7.294-22.1L21.027 75.807a54.6 54.6 0 0 0 10.627 16.701l3.01-12.737zm11.634 1.056a35 35 0 0 1-4.881-4.146l-5.454 7.79-4.522-2.023-2.463 10.59a55 55 0 0 0 5.617 4.503 55 55 0 0 0 14.703 7.317l-.33-22.344a35 35 0 0 1-2.67-1.687M95.227 5.307l-7.493 19.061a34.39 34.39 0 0 1 14.77 14.573l8.874-.532 8.584-10.102a54.75 54.75 0 0 0-16.47-18.216 55 55 0 0 0-8.265-4.784M59.154 87.223l.308 21.439c16.467 3.839 34.03-.13 47.271-10.951L88.927 85.243c-8.995 5.058-19.973 5.899-29.773 1.98m45.027-44.624a34.7 34.7 0 0 1 1.947 17.764l17.869 12.512c4.623-13.525 3.709-28.226-2.181-40.928l-8.61 10.111zM49.943 74.387l.559-18.015 14.229 9.963 7.565 3.004 47.647 33.363 30.055 7.061-16.913-25.827-47.647-33.364-5.409-6.082-14.23-9.964 16.737-6.687-28.444-3.456L69.654.202c-4.681.2-9.321.993-13.801 2.362l-13.102 20.79-5.671-1.432-.305-.078L15.306 6.812 12.997 0 .278 4.926 0 18.564l7.19-.16 21.468 15.032.177.261 3.286 4.839-15.048 19.49a55.3 55.3 0 0 0 2.496 13.707L36.968 48.84Z"/><path d="m86.976 5.713-4.993 12.725a38.1 38.1 0 0 0-15.309-.959l8.921-13.862c3.827.264 7.645.961 11.381 2.096m-47.588 72.64 1.213-1.733a38.1 38.1 0 0 1-5.819-13.594L24.808 76.15a51.5 51.5 0 0 0 5.243 9.137l2.374-10.046zm10.777 7.935a38 38 0 0 1-2.522-1.938l-4.729 6.754-3.396-1.519-1.126 4.764a51.837 51.837 0 0 0 13.453 8.34l-.222-15.435c-.492-.311-.978-.63-1.458-.966M96.873 9.889l-5.03 12.817c.658.403 1.311.821 1.951 1.271a37.9 37.9 0 0 1 10.826 11.636l5.189-.333 6.15-7.223a51.45 51.45 0 0 0-14.363-15.223 52 52 0 0 0-4.723-2.945M62.43 91.954l.202 13.973c13.349 2.448 27.263-.471 38.53-8.184l-12.227-8.562a38.17 38.17 0 0 1-26.505 2.773m58.321-53.786-5.977 7.018-5.992.383a38.3 38.3 0 0 1 1.023 13.436l12.291 8.606a51.8 51.8 0 0 0-1.345-29.443m-65.981.862 7.542-3.013 15.56 10.895 5.409 6.083 47.449 33.224 12.156 18.563-21.602-5.075-47.448-33.223-7.565-3.003-15.56-10.896.251-8.117 4.831.974a6.04 6.04 0 1 0 9.058-2.674 6.04 6.04 0 0 0-7.514.47zm20.564 11.078a6.04 6.04 0 1 0-6.929 9.895 6.04 6.04 0 1 0 6.929-9.895M49.846 30.963l3.174 5.199 16.628-6.643-17.505-2.128ZM41.72 42.604 39.139 46l7.975 15.701.555-17.897zm10.228-1.497-6.061-9.928L63.216 4.252a52 52 0 0 0-5.362 1.213L44.228 27.05l-5.304-1.34-2.125 4.788-3.773 3.635 3.074 4.525-15.623 20.187c.133 1.83.368 3.65.694 5.454l19.376-25.492ZM12.166 7.583l-1.14-3.364-7.57 2.932-.166 8.117 3.551-.079Zm50.837 37.822a2.82 2.82 0 1 1-3.235 4.618 2.82 2.82 0 0 1 3.235-4.618M10.042 16.467 30.99 31.135l.2.294 2.921-2.813 1.645-3.706-.344-.088-20.95-14.669zm59.519 36.972a2.82 2.82 0 1 0 4.619 3.234 2.82 2.82 0 0 0-4.619-3.234"/></svg>