<svg xmlns="http://www.w3.org/2000/svg" xml:space="preserve" width="150" height="110.092"><g transform="translate(-3.189 -1.523)"><path d="m62.498 24.478 14.67-22.772a54.7 54.7 0 0 1 17.275 3.45l-7.426 19.02c-8.027-2.942-16.766-2.74-24.519.302M43.691 83.902l4.199-5.997c-4.962-6.358-7.479-14.208-7.294-22.1L24.217 77.33a54.6 54.6 0 0 0 10.627 16.701l3.01-12.737zm11.633 1.056a35 35 0 0 1-4.881-4.146l-5.454 7.79-4.522-2.023-2.462 10.591a55 55 0 0 0 5.617 4.503 55 55 0 0 0 14.703 7.317l-.33-22.344a35 35 0 0 1-2.671-1.688M98.416 6.83l-7.492 19.061a34.403 34.403 0 0 1 14.77 14.573l8.873-.532 8.584-10.102a54.7 54.7 0 0 0-16.47-18.216 55 55 0 0 0-8.265-4.784M62.344 88.746l.308 21.439c16.466 3.839 34.03-.13 47.271-10.951L92.117 86.767c-8.996 5.057-19.974 5.898-29.773 1.979m45.026-44.624a34.7 34.7 0 0 1 1.948 17.764l17.869 12.512c4.622-13.525 3.709-28.226-2.182-40.928l-8.609 10.111zM53.133 75.91l.559-18.015 14.229 9.963 7.565 3.004 47.648 33.363 30.055 7.061-16.914-25.827-47.648-33.363-5.409-6.082-14.23-9.964 16.736-6.687-28.443-3.456L72.844 1.726c-4.681.2-9.321.993-13.801 2.362L45.941 24.877l-5.672-1.432-.305-.078L18.495 8.335l-2.309-6.812L3.467 6.449l-.278 13.638 7.19-.16 21.468 15.032.177.261 3.286 4.839-15.048 19.49a55.3 55.3 0 0 0 2.496 13.707l17.399-22.893Z"/><linearGradient id="a" x1="43.088" x2="109.472" y1="97.142" y2="18.029" gradientUnits="userSpaceOnUse"><stop offset="0" style="stop-color:#8e752f"/><stop offset=".01" style="stop-color:#957b34"/><stop offset=".041" style="stop-color:#a58b44"/><stop offset=".071" style="stop-color:#af964f"/><stop offset=".1" style="stop-color:#b39953"/><stop offset=".137" style="stop-color:#b9a059"/><stop offset=".242" style="stop-color:#c9af68"/><stop offset=".357" style="stop-color:#d4b971"/><stop offset=".5" style="stop-color:#d7bd74"/><stop offset=".643" style="stop-color:#d4b971"/><stop offset=".758" style="stop-color:#c9af68"/><stop offset=".863" style="stop-color:#b9a059"/><stop offset=".9" style="stop-color:#b39953"/><stop offset=".928" style="stop-color:#ae944e"/><stop offset=".964" style="stop-color:#a08740"/><stop offset="1" style="stop-color:#8e752f"/></linearGradient><path fill="url(#a)" d="m90.165 7.236-4.993 12.725a38.1 38.1 0 0 0-15.308-.959L78.785 5.14c3.826.264 7.645.962 11.38 2.096m-47.588 72.64 1.213-1.733a38.1 38.1 0 0 1-5.819-13.594l-9.974 13.124a51.5 51.5 0 0 0 5.243 9.137l2.374-10.046zm10.777 7.936a38 38 0 0 1-2.522-1.938l-4.729 6.754-3.396-1.519-1.126 4.764a51.837 51.837 0 0 0 13.453 8.34l-.222-15.435a39 39 0 0 1-1.458-.966m46.709-76.4-5.029 12.817c.658.403 1.311.821 1.951 1.271a37.9 37.9 0 0 1 10.826 11.636l5.188-.333 6.15-7.223a51.5 51.5 0 0 0-14.362-15.223 52 52 0 0 0-4.724-2.945M65.619 93.478l.202 13.973c13.349 2.448 27.263-.471 38.53-8.184l-12.227-8.562a38.18 38.18 0 0 1-26.505 2.773m58.322-53.787-5.978 7.018-5.991.383a38.3 38.3 0 0 1 1.023 13.436l12.29 8.606a51.8 51.8 0 0 0-1.344-29.443m-65.982.863 7.542-3.013L81.06 48.436l5.41 6.083 47.449 33.224 12.156 18.563-21.602-5.075-47.447-33.224-7.565-3.003-15.56-10.896.251-8.117 4.831.974a6.04 6.04 0 1 0 9.058-2.674 6.04 6.04 0 0 0-7.514.47zm20.564 11.077a6.04 6.04 0 1 0 1.484 8.412 6.04 6.04 0 0 0-1.484-8.412M53.035 32.486l3.174 5.199 16.628-6.643-17.505-2.128ZM44.91 44.127l-2.581 3.396 7.975 15.701.555-17.897zm10.228-1.497-6.061-9.928L66.405 5.775a52 52 0 0 0-5.362 1.213L47.417 28.573l-5.304-1.34-2.125 4.788-3.773 3.635 3.074 4.525-15.622 20.187c.133 1.83.368 3.65.694 5.454L43.736 40.33ZM15.355 9.106l-1.14-3.364-7.57 2.932-.166 8.117 3.551-.079Z" style="fill:url(#a)"/><path fill="#8e752f" d="M66.193 46.929a2.82 2.82 0 1 1-3.235 4.618 2.82 2.82 0 0 1 3.235-4.618M13.231 17.99l20.948 14.668.2.294 2.921-2.813 1.645-3.706-.345-.088-20.949-14.668ZM72.75 54.962a2.82 2.82 0 1 0 4.619 3.234 2.82 2.82 0 0 0-4.619-3.234"/></g></svg>