<svg xmlns="http://www.w3.org/2000/svg" xml:space="preserve" width="150.001" height="110.843"><path d="m89.922 2.253-5.364 13.673a40.9 40.9 0 0 0-16.449-1.03L77.696 0a55.2 55.2 0 0 1 12.226 2.253M38.788 80.305l1.304-1.862a40.9 40.9 0 0 1-6.253-14.606c-3.387 4.455-7.29 9.593-10.717 14.102a55.2 55.2 0 0 0 5.634 9.817l2.55-10.794zm11.581 8.528a41 41 0 0 1-2.71-2.082l-5.082 7.257-3.648-1.632-1.21 5.119a55.667 55.667 0 0 0 14.455 8.961l-.239-16.585a41 41 0 0 1-1.566-1.038M100.557 6.74l-5.405 13.772c.708.434 1.409.883 2.098 1.365a40.7 40.7 0 0 1 11.633 12.503l5.575-.358 6.608-7.761a55.25 55.25 0 0 0-15.433-16.356 56 56 0 0 0-5.076-3.165m-37.01 88.181.217 15.014c14.343 2.631 29.294-.506 41.401-8.793l-13.138-9.2c-8.761 4.351-18.905 5.459-28.48 2.979m62.669-57.794-6.423 7.54-6.438.412a41.2 41.2 0 0 1 1.1 14.437l13.206 9.247a55.66 55.66 0 0 0-1.445-31.636m-70.899.926 8.104-3.237 16.72 11.706 5.813 6.536 50.984 35.699 13.063 19.947-23.211-5.453-50.984-35.7-8.129-3.227-16.721-11.706.271-8.722 5.19 1.046a6.49 6.49 0 1 0 9.733-2.874 6.49 6.49 0 0 0-8.074.505zm22.097 11.903a6.49 6.49 0 0 0-9.04 1.594 6.49 6.49 0 0 0 1.594 9.039 6.49 6.49 0 0 0 9.04-1.594 6.49 6.49 0 0 0-1.594-9.039M50.026 29.385l3.41 5.587 17.868-7.138-18.809-2.286zm-8.731 12.507-2.773 3.649 8.569 16.872.596-19.231zm10.99-1.608-6.512-10.667L64.392.683a56 56 0 0 0-5.762 1.303L43.989 25.179l-5.7-1.439-2.283 5.146-4.054 3.905 3.303 4.862-16.786 21.691c.143 1.966.396 3.922.746 5.86l20.82-27.392ZM9.538 4.262 8.313.647.178 3.797 0 12.519l3.816-.085Zm54.626 40.641a3.03 3.03 0 1 1-3.476 4.963 3.03 3.03 0 0 1 3.476-4.963M7.256 13.808l22.508 15.761.215.316 3.139-3.023 1.767-3.982-.37-.095-22.51-15.761zM71.21 53.535a3.029 3.029 0 1 0 4.962 3.475 3.029 3.029 0 0 0-4.962-3.475"/></svg>