<svg xmlns="http://www.w3.org/2000/svg" xmlns:xlink="http://www.w3.org/1999/xlink" width="600" height="562.674"><radialGradient id="a" cx="0" cy="0" r="1" fx="0" fy="0" gradientTransform="matrix(33.32854 0 0 -33.32854 396.249 271.51)" gradientUnits="userSpaceOnUse" spreadMethod="pad"><stop offset="0" style="stop-color:#d7bd74"/><stop offset=".691" style="stop-color:#b39a54"/><stop offset="1" style="stop-color:#8d742f"/></radialGradient><radialGradient xlink:href="#a" id="b" cx="0" cy="0" r="1" fx="0" fy="0" gradientTransform="translate(299.977 281.347)scale(267.90124)" gradientUnits="userSpaceOnUse" spreadMethod="pad"/><path d="M302.47 562.674c-87.794 0-170.756-36.237-227.65-99.409a26 26 0 0 1-2.01-2.54 28 28 0 0 1-2.637-.442c-.723.129-1.446.25-2.162.378-3.987.53-7.508.788-10.932.788-12.748 0-24.364-4.245-33.567-12.25-10.072-8.794-15.41-20.627-15.41-34.195 0-5.088.716-9.92 2.13-14.445a42.2 42.2 0 0 1 7.098-13.528c3.167-4.051 7.162-7.628 11.961-10.586a52 52 0 0 1 7.034-3.61l-25.9-60.037c-2.451-5.835-2.861-12.145-1.35-17.99C3.513 289.786.032 282.407 0 274.216c0-6.093 1.817-11.808 5.305-16.711 2.42-3.296 5.868-6.214 9.606-7.878 3.609-1.632 6.093-5.466 10.176-12.154l.563-.876c6.88-17.362 12.306-32.37 17.017-47.192.41-1.254 1.037-2.7 1.631-3.899.346-.594.66-1.19 1.037-1.784.129-4.02 1.262-8.103 3.296-11.495.442-.69.852-1.447 1.294-2.226-6.406-4.084-10.554-11.31-10.554-19.348v-1.19c0-.691.032-1.415.097-2.106.811-8.569 5.369-14.067 7.314-16.422.313-.377.876-1.005 1.222-1.382 1.632-1.72 6.125-6.399 13.32-8.698.562-4.172 2.226-8.19 5.023-11.55C123.394 39.844 209.46 0 302.47 0c93.034 0 179.1 39.845 236.154 109.303 2.01 2.42 3.417 5.177 4.269 8.103.377.089.78.217 1.157.346 3.61-2.267 7.821-3.457 12.122-3.457 2.29 0 4.646.346 6.937 1.07l1.004.313c13.288 4.019 22.861 17.08 22.925 31.742v.885a22.93 22.93 0 0 1-9.324 18.455 23.3 23.3 0 0 1-1.447 7.444v.096c4.775.185 9.204 1.696 13.094 4.333 7.098 4.992 11.02 13.094 10.61 21.478-.031.064-.031.12-.031.217-.314 5.65-2.356 9.581-3.232 11.301-1.945 3.738-5.056 7.227-8.665 9.389-3.36 2.042-6.848 4.115-10.458 6.06a23 23 0 0 1 5.402 5.716c3.2 4.839 4.43 10.707 3.52 16.422.66 2.516.973 5.088.973 7.725 0 3.295-.506 6.502-1.51 9.549a26.7 26.7 0 0 1 .658 5.932c0 5.088-1.35 9.92-3.922 14.163a25.84 25.84 0 0 1 3.328 11.053c.473 7.218-2.042 14.035-7.002 19.34-1.728 1.816-3.705 3.456-5.908 4.775a24.5 24.5 0 0 1 2.548 10.891c0 6.817-2.765 13.882-8.73 18.938 12.999 3.36 21.921 13.432 21.921 26.06 0 1.383-.129 2.757-.322 4.083 6.503 6.528 10.048 15.29 10.048 25.12 0 10.546-3.858 19.75-11.076 26.622-3.143 2.95-8.015 6.471-14.984 8.633-2.01 6.439-5.771 10.426-8.32 12.5-3.456 2.83-9.508 6.245-18.56 6.245-4.645 0-8.753-.811-12.274-2.258-.844 1.696-1.977 3.231-3.231 4.678-56.927 63.172-139.889 99.408-227.674 99.408"/><path d="M84.088 123.869h57.24C179.477 67.89 237.472 32.12 302.469 32.12s123.017 35.77 161.134 91.748h57.272C470.515 62.52 391.42 22.957 302.469 22.957c-88.958 0-168.022 39.564-218.381 100.912m412.705 22.86c-7.725 6.592-11.238 17.556-11.27 28.64.032 13.56 5.273 27.531 15.699 34.219 8.07 3.705 15.827 6.696 23.174 7.668a52 52 0 0 0 6.937.467c13.946 0 27.474-5.716 44.491-16.109l.345-.185.161-.346c.442-.82.691-1.318.724-2.138.032-.378-.193-1.07-.66-1.383-.506-.314-.916-.346-1.165-.346-.724.032-1.254.225-1.286.16h-.217l-.225.097c-.876.281-1.817.748-2.387.94-9.1 2.388-19.525 4.68-29.074 4.68-14.63-.097-26.72-5.025-30.425-23.456-.41-2.452-.691-4.896-.691-7.219 0-2.58.345-4.967 1.133-7.009 5.932-12.09 10.08-14.726 21.253-14.879 2.7 0 5.876.186 9.517.499 3.545 1.728 4.71 4.87 4.775 9.613 0 1.753-.225 3.706-.538 5.772l-.065.41.193.378c.756 1.382 2.106 1.696 3.296 1.728 1.535-.032 3.424-.627 4.212-2.572l.088-.226v-.216c.064-8.167 2.637-13.569 8.633-17.21l.691-.402v-.756c-.057-5.811-4.05-9.139-6.969-9.983l-.972-.345-.563.908c-2.42 3.77-4.461 4.927-7.194 4.992-.94 0-2.01-.185-3.167-.507-7.347-3.038-15.297-5.65-23.488-5.65-8.167 0-16.615 2.612-24.966 9.766m-29.139-8.947c-5.337 1.881-10.642 2.669-15.916 2.669-5.305 0-10.554-.788-15.73-1.978l-.313-.064-.281.064c-2.139.378-4.365 2.042-4.277 4.863 0 .378.032.853.129 1.319l.128.659.627.29c4.397 2.162 8.473 4.581 10.892 9.508.378 8.288 2.235 20.032 2.235 31.213 0 13.215-2.613 25.183-12.435 30.046l-.82.41.064.877c.129 3.392 1.945 5.908 4.775 6.125l.595.064.441-.377c7.597-6.407 15.635-10.176 24.613-10.176 2.95 0 5.997.41 9.172 1.294l.41.088.401-.153c1.664-.442 2.733-2.041 2.613-3.456 0-.973-.257-1.913-.539-2.822l-.185-.57-.506-.25c-5.965-2.95-6.84-6.72-7.596-11.775-1.037-4.71-1.35-9.453-1.35-14.284-.033-8.73 1.133-17.773 1.599-26.502v-.218a4.4 4.4 0 0 1-.097-.884c0-3.858 2.548-6.872 6.471-9.983l.876-.691-.498-1.005c-.563-1.19-1.511-3.802-4.775-4.365l-.377-.032Zm-311.568 6.31c-.033 1.005.402 2.203 1.439 2.886 3.552 2.387 7.29 4.774 10.554 7.097 2.162 2.67 3.673 5.499 3.705 9.293 0 .377-.032.723-.064 1.1-3.264 5.025-6.278 10.145-10.112 13.98-1.07 1.342-2.355 2.009-2.765 4.139l-.026.129v.088c.088 2.766 2.098 4.775 3.826 6.35 1.222 1.03 2.572 2.67 5.185 2.758.314.064.627.128.973.128 1.567-.032 2.82-.94 3.986-2.323 2.95.032 5.056 1.503 6.97 4.678 8.07 12.966 15.168 28.287 20.85 46.783.748 3.77 1.383 7.41 1.383 10.49 0 3.23-.691 5.779-2.299 7.5-3.48 3.078-7.033 6.406-10.136 8.23l-.507.282-.153.53c-.257.949-.377 1.793-.377 2.613-.032 1.125.313 2.259 1.19 3.014.884.724 1.977.94 3.175.94h.723l.466-.031.346-.282c3.111-2.483 7.259-4.364 12.154-5.811 5.836-1.037 11.205-1.415 16.454-1.415 2.79 0 5.555.097 8.352.29 6.278.94 12.555 2.13 18.81 4.96.843.216 1.502.344 2.161.344 2.324 0 4.59-1.51 4.59-3.987 0-.787-.257-1.64-.691-2.419l-.096-.129-.13-.12c-8.037-8.296-17.924-11.117-21.132-20.98-7.379-29.235-21.413-60.126-32.434-79.787-1.318-5.49-1.35-11.366-1.784-17.363.026-.78.089-1.47.089-2.13-.033-1.543-.153-2.83-.844-3.963-.627-1.125-2.01-1.784-3.36-1.752-1.037 0-2.17.249-3.489.747-1.35.507-2.733.66-4.172.66-1.632 0-3.36-.25-5.152-.499-9.574-1.696-14.694-1.447-23.174-2.42-2.886.314-4.3 2.894-4.486 5.402m88.131-4.646c-1.567 1.19-3.2 2.701-3.231 5.056 0 .595.128 1.254.41 1.881l.152.346.29.225c9.356 6.969 21.663 10.61 34.283 13.97 3.866 1.19 8.287 14.975 11.904 29.605.692 7.379.94 13.85.94 19.814v.16l.033.154c.659 3.488 2.886 4.96 4.678 5.152l.313.064.346-.128c3.392-1.101 6.784-2.01 11.27-2.01 4.179 0 9.323.788 16.236 2.982l.12.033.161.032c.346.032.692.064 1.005.064.844 0 1.728-.16 2.54-.788.82-.659 1.166-1.696 1.166-2.765 0-.37-.065-.78-.129-1.222l-.064-.28-.153-.25c-21.792-33.253-19.718-44.9-22.925-61.83v-.152l-.058-.129c-2.138-5.715-5.78-6.591-8.295-6.374h-.595c-5.997.442-11.873.755-17.773.755-10.457 0-20.883-1.069-31.365-4.581l-.691-.225-.571.442zm91.909 14.823c-3.457 6.495-5.241 13.753-5.241 21.912 0 4.244.466 8.697 1.47 13.408 3.674 10.77 10.33 19.058 20.354 24.082 3.36 2.982 7.531 4.276 11.928 4.276 1.978 0 3.987-.29 6.061-.691l.153-.032.129-.097c4.774-2.29 11.808-3.737 17.9-4.204.628-.064 1.19-.096 1.72-.096 5.909.032 9.173 3.046 13.786 8.536l.129.161.185.121c1.037.667 2.106.98 3.143.98 1.286-.031 2.388-.474 3.36-.883l1.19-.467-.434-1.23c-1.48-4.171-2.203-7.813-2.203-11.02.065-8.223 4.365-13.753 12.532-17.99l.53-.313.161-.594a7 7 0 0 0 .217-1.696c.032-2.733-2.074-4.43-4.268-4.992l-.25-.097-.289.065c-6.149.723-12.306 1.19-18.488 1.19-3.585 0-7.162-.154-10.77-.5l-.25-.031-.29.088c-2.379.66-3.384 2.894-3.609 5l-.12 1.254 1.221.28c3.264.692 6.624 1.19 8.915 2.356.884 1.222 1.414 2.7 1.414 4.236 0 1.07-.249 2.138-.788 3.296-1.688 3.327-5.305 3.802-9.26 4.557a58 58 0 0 1-5.176.25c-7.918 0-15.136-1.914-19.814-6.841-4.277-4.341-6.849-12.001-6.817-19.943 0-.691 0-1.318.065-1.977-.065-9.574 6.374-20.787 14.316-25.337 1.631-.257 3.673-.377 5.9-.377 4.051 0 8.73.466 12.78 1.784 7.13 2.138 11.053 2.267 11.15 9.863 0 1.254-.13 2.797-.41 4.582l-.089.659.466.507c.82.811 1.978 1.631 3.489 1.664 1.069 0 2.194-.507 3.167-1.35l.313-.314.097-.442c1.446-7.002 3.046-13.408 8.287-19.155l.474-.531-.16-.723c-.716-2.854-1.471-6.126-4.831-7.66l-.724-.346-.659.474c-3.078 2.26-7.692 5.338-12.652 5.306h-.94c-6.222-1.134-11.72-4.494-18.721-5.78-2.098-.096-4.02-.16-5.9-.16h-.474c-12.966 0-24.83 2.355-33.375 14.983M69.015 142.558c-1.825.249-3.175 1.535-4.43 2.821-1.197 1.48-2.137 2.516-2.29 4.084v1.19l1.19.192c8.102 1.254 12.877 3.577 12.965 11.551 0 .603-.025 1.198-.088 1.857-2.58 9.951-5.338 15.257-7.918 19.557l-.185.322v.37c.249 2.105 1.849 3.11 3.802 4.428 1.977 1.198 4.42 2.203 6.776 2.203 1.857.032 3.866-.788 4.839-2.765 1.222-1.544 2.194-3.264 3.135-5.185.788-1.849 1.23-3.2 1.608-3.955.498-.723.401-.595.908-.659.53-.032 1.88.345 4.019 1.35 21.229 9.638 39.5 79.506 40.947 97.713 0 2.83 1.631 5.466 4.3 5.594h.032c.908 0 1.817-.41 2.508-1.1 6.88-6.279 13.569-12.532 20.441-18.842 3.175-2.074 3.802-5.12 4.244-7.219l.089-.441-.153-.346c-2.387-6.093-5.024-12.403-8.416-18.745-2.202-4.494-3.014-8.256-3.014-11.776-.065-8.256 4.646-15.482 5.586-26.406v-.185l-.032-.193c-1.19-4.333-5.65-9.356-9.734-9.702-.876 0-1.849.377-2.476 1.165l-.129.186-.096.216c-2.323 6.72-4.735 8.513-5.458 8.328-.442.032-1.133-.346-1.889-1.415-5.273-8.665-12.403-21.952-19.09-33.093-3.36-5.562-6.624-10.586-9.51-14.292-2.982-3.641-5.305-6.15-8.199-6.31l-.032-.064c-.032 0-.121 0-.281.064a112 112 0 0 1-13.247.788c-6.503 0-12.78-.571-20.441-1.286zm182.362 25.65c-2.194.442-4.05 2.733-4.806 6.848-2.508 11.768-14.188 20.28-14.38 32.587 0 .378.032.724.032 1.101.257 4.494 2.7 8.167 6.502 8.545 1.037.058 1.978.058 2.95.058 2.605 0 5.185-.12 8.288-.12 1.101 0 2.323 0 3.617.064 3.955.058 6.495-1.262 8.038-3.392 1.568-2.106 2.412-4.678 4.14-7.693 1.632-2.982 2.669-3.866 6.221-6.028l.499-.314.128-.603c.314-1.47.627-3.577.627-5.715-.032-2.95-.506-6.213-3.143-8.038a5.14 5.14 0 0 0-2.54-.691c-.82 0-1.543.128-2.226.257-3.047.973-5.434 3.231-7.79 5.144-2.234 1.793-4.493 3.585-5.907 5.153-.088.064-.217.064-.281.064-.065-2.668 6.157-12.716 8.07-17.177l-1.254-.531 1.286.434c.595-1.696.844-3.167.876-4.453 0-2.074-.876-3.77-2.162-4.678-1.318-.949-2.83-1.166-4.148-1.166-1.004 0-1.88.16-2.636.346m-186.76 27.981-.064.088-.032.129c-5.683 17.804-11.872 34.38-18.27 50.52-5.531 8.761-10.62 18.496-21.76 23.52l-.313.152-.225.314c-.724.972-1.037 2.106-1.037 3.207 0 2.227 1.382 4.582 3.954 4.646q.615-.002 1.23-.185l.25-.097.16-.128c7.09-5.49 16.446-9.043 29.291-9.043 2.982 0 6.157.193 9.517.627h.281c2.509-.314 3.425-2.733 3.393-4.582 0-1.913-.82-4.204-3.175-4.863l-.12-.064h-.065c-2.355-.282-4.02-.885-5.273-3.392a44 44 0 0 1-.54-6.817c0-13.375 5.9-28.945 16.326-46.782.378-.475.571-1.07.571-1.632-.225-2.323-2.138-3.609-4.212-4.96-2.13-1.261-4.646-2.234-6.784-2.266-1.093 0-2.443.313-3.103 1.607m231.725 43.921-.128 1.037h-16.14l-.154-1.037h-2.886l-.602 8.89h2.797c.185-1.35.627-2.323 1.286-2.95.66-.627 1.6-.972 2.765-.972h.53v21.976h-2.475v3.264h13.56v-3.264h-2.451V245.08h.507c1.19 0 2.138.346 2.797.972.691.66 1.093 1.632 1.318 2.95h2.733l-.602-8.89h-2.854zm75.704 1.89a15.5 15.5 0 0 0-5.12 3.89c-1.318 1.479-2.291 3.207-2.95 5.12-.724 1.88-1.07 3.987-1.07 6.15 0 4.147 1.166 7.507 3.457 10.023 2.259 2.476 5.273 3.762 9.043 3.762 1.76 0 3.424-.314 5.056-.94 1.568-.596 3.047-1.536 4.421-2.766l1.89 3.079h2.322v-13.496c0-.507.064-.981.249-1.415.193-.41.442-.852.82-1.262l-1.133-1.978c-.467.225-.973.314-1.471.443-.54.096-1.037.096-1.576.096h-9.541v3.167h4.83v9.357c-.216.096-.498.128-.779.193-.257 0-.571.032-.949.032-2.355 0-4.332-1.23-5.932-3.673-1.6-2.484-2.387-5.53-2.387-9.14 0-2.484.474-4.493 1.415-5.964.94-1.511 2.194-2.259 3.705-2.259.788 0 1.415.249 1.913.715q.757.759.756 1.793c0 .217-.032.507-.129.788-.12.249-.28.498-.466.691l1.664 2.323 8.73-5.94-1.697-2.637-1.631 1.037a12 12 0 0 0-3.489-1.913 11.3 11.3 0 0 0-3.858-.659c-2.106 0-4.148.442-6.093 1.383m61.886 2.226v2.669l1.479-.466v21.253h-1.48v2.636h10.33v-2.636h-1.439v-12.21c.595-.54 1.19-.981 1.785-1.262a4.1 4.1 0 0 1 1.856-.435c.716 0 1.287.217 1.664.66q.565.701.563 2.065v11.182h-1.447v2.636h10.361v-2.636h-1.47v-12.5c0-2.042-.54-3.609-1.576-4.734-1.029-1.166-2.444-1.729-4.268-1.729-1.102 0-2.227.314-3.449.909-1.262.595-2.58 1.503-4.019 2.797v-8.448l1.535-.507v-2.668zm-131.095 0v2.669l1.447-.466v21.253h-1.447v2.636h10.305v-2.636h-1.415v-12.21a6 6 0 0 1 1.793-1.262 3.96 3.96 0 0 1 1.816-.435c.756 0 1.319.217 1.664.66.378.466.571 1.157.571 2.065v11.182h-1.447v2.636h10.362v-2.636h-1.511v-12.5c0-2.042-.499-3.609-1.536-4.734-1.005-1.166-2.451-1.729-4.268-1.729-1.07 0-2.203.314-3.457.909-1.221.595-2.572 1.503-3.986 2.797v-8.448l1.503-.507v-2.668zm203.06-1.037c-.94.788-1.414 1.632-1.414 2.605 0 .723.257 1.318.788 1.76.507.474 1.198.691 2.074.691 1.382 0 2.572-.377 3.577-1.101.972-.691 1.479-1.535 1.479-2.54 0-.756-.281-1.35-.884-1.825-.595-.466-1.407-.715-2.412-.715-1.198 0-2.267.37-3.207 1.125m-83.581 4.84c-1.198 1.068-2.733 1.88-4.59 2.443v2.42h1.953v12.153c0 2.074.378 3.577 1.286 4.517.812.917 2.195 1.383 4.084 1.383 1.157 0 2.29-.281 3.416-.844 1.165-.539 2.235-1.383 3.24-2.42l-1.102-1.631a3.6 3.6 0 0 1-.908.442c-.281.088-.54.153-.788.153-.66 0-1.133-.216-1.383-.659-.281-.442-.41-1.19-.41-2.29v-10.804h2.58c.186 0 .346-.032.41-.121.089-.096.153-.345.217-.756l.442-2.483h-3.65v-5.113l-2.097-.474c-.603 1.632-1.48 2.982-2.7 4.083m137.653-1.945c-.507.498-1.005 1.567-1.479 3.135-.595-.185-1.19-.281-1.817-.378a16 16 0 0 0-2.073-.12c-2.83 0-5.217.78-7.098 2.387-1.881 1.6-2.83 3.577-2.83 5.964 0 1.913.635 3.577 1.922 5.024 1.286 1.383 3.046 2.355 5.24 2.821-.972.54-2.106.973-3.392 1.415a38 38 0 0 1-4.236 1.198l2.476 2.604c.475-.128.916-.193 1.318-.257.378-.026.756-.058 1.134-.058.345 0 .787.032 1.254.058.474.064 1.037.129 1.76.257q-1.881.565-2.918 1.6c-.659.691-.973 1.479-.973 2.451 0 1.287.595 2.291 1.753 2.983 1.197.747 2.861 1.069 4.967 1.069 2.476 0 4.55-.539 6.214-1.664 1.664-1.134 2.516-2.516 2.516-4.148 0-1.6-.788-2.862-2.355-3.802-1.576-.94-4.116-1.632-7.637-2.074 3.706-.94 6.407-2.194 8.2-3.762 1.76-1.575 2.636-3.488 2.636-5.843 0-1.85-.627-3.545-1.849-5.057-1.262-1.47-1.857-2.226-1.857-2.226 0-.193.065-.378.193-.507a.97.97 0 0 1 .595-.185c.185 0 .346.032.563.129.216.057.506.216.82.402l.844-4.02c-.25-.057-.467-.12-.756-.12-.249-.064-.466-.064-.691-.064-1.093 0-1.946.25-2.444.788m-7.194 14.034c-.844-1.792-1.286-3.834-1.286-6.093 0-.884.185-1.567.507-2.041.37-.475.844-.756 1.438-.756 1.166 0 2.106.852 2.983 2.572.852 1.696 1.286 3.738 1.286 6.029q.001 1.422-.563 2.17c-.346.53-.876.788-1.535.788-1.037 0-1.978-.884-2.83-2.669m1.576 15.289c-.322-.41-.474-.973-.474-1.664 0-.507.096-.973.249-1.447a5.4 5.4 0 0 1 .723-1.35c.691.313 1.286.787 1.664 1.382.41.595.595 1.286.595 2.042 0 .507-.089.908-.378 1.198-.281.313-.627.434-1.093.434-.571 0-.973-.185-1.287-.595m-158.754-20.473 2.476.972a7.1 7.1 0 0 1 2.138-1.977 4.9 4.9 0 0 1 2.444-.66c.82 0 1.447.194 1.92.596.467.41.724.972.724 1.631l-.032 1.134c-.41-.032-.723-.065-1.005-.065h-.659c-3.553 0-6.221.627-7.982 1.922-1.752 1.286-2.636 3.23-2.636 5.803 0 1.978.602 3.553 1.856 4.775 1.222 1.254 2.79 1.88 4.775 1.88.94 0 1.881-.248 2.854-.658.94-.434 1.913-1.094 2.853-1.946l.571 1.978h8.256v-2.637h-1.471v-12.186c0-2.098-.635-3.73-1.922-4.96-1.318-1.221-3.102-1.816-5.37-1.816-.94 0-1.816.089-2.732.281q-1.312.277-2.54.844l.41-1.222-2.202-.82zm5.587 10.586c-.443-.571-.627-1.383-.627-2.484 0-1.198.313-2.194 1.004-2.886.627-.723 1.536-1.069 2.67-1.069h.344c.153.033.378.065.692.121l.032 4.461c0 .82-.225 1.48-.66 1.946-.441.506-1.004.755-1.727.755-.756 0-1.35-.28-1.729-.844m97.584-16.052a9 9 0 0 0-1.503-.563c-.475-.12-.876-.185-1.254-.185-.627 0-1.23.249-1.793.748-.594.57-1.479 1.728-2.636 3.585-.314-.917-.852-1.696-1.6-2.388-.723-.69-1.728-1.35-3.014-1.945l-4.493 5.458 1.543 1.728.748-.659c.257.16.441.346.538.563.088.193.153.57.153 1.133v10.74h-1.439v2.636h10.988v-2.637h-2.138v-8.914c0-1.037.249-1.825.723-2.387.474-.572 1.134-.885 1.946-.885.378 0 .852.097 1.414.258.499.12 1.19.377 2.01.69l2.452-7.13-2.203-.787zm32 .16c-1.254.596-2.572 1.504-4.019 2.798l.217-3.706h-.314l-8.794 2.476v2.388l1.447-.217v14.316h-1.447v2.636h10.337v-2.636h-1.447v-12.21c.563-.539 1.19-.98 1.825-1.262a3.9 3.9 0 0 1 1.785-.434q1.13-.002 1.696.659c.41.466.562 1.157.562 2.066v11.18h-1.406v2.637h10.296v-2.636h-1.446v-12.5c0-2.041-.499-3.609-1.536-4.734-1.069-1.166-2.516-1.728-4.332-1.728-1.07 0-2.203.313-3.425.908m-18.777-.908-8.794 2.475v2.388l1.48-.217v14.316h-1.48v2.637h10.33v-2.637h-1.44v-15.256c0-.41.033-.917.065-1.447 0-.595.058-1.35.12-2.259zm-48.229 3.231c-2.01 2.138-2.982 4.807-2.982 7.974 0 3.207.908 5.844 2.733 7.918 1.817 2.033 4.14 3.102 7.001 3.102 2.106 0 4.02-.466 5.747-1.382 1.729-.94 3.296-2.355 4.743-4.236l-1.511-1.664a7.6 7.6 0 0 1-2.291 1.631 7 7 0 0 1-2.669.54q-1.748.002-3.11-.95c-.877-.626-1.664-1.599-2.26-2.788l8.071-3.393c.756-.313 1.535-.562 2.323-.82.788-.185 1.19-.378 1.19-.53 0-.442-.282-1.222-.812-2.355-.539-1.101-1.198-2.138-1.945-2.982-.917-1.102-1.954-1.913-3.143-2.484a9.6 9.6 0 0 0-3.923-.812c-2.797 0-5.185 1.093-7.162 3.231m3.89 5.21a12 12 0 0 1-.152-1.818c0-1.004.153-1.824.53-2.387.346-.563.853-.844 1.512-.844.723 0 1.439.37 2.098 1.19.667.788 1.23 1.88 1.696 3.392l-5.273 2.194a9.6 9.6 0 0 1-.41-1.728m-135.018-5.209c-1.977 2.139-2.982 4.807-2.982 7.974 0 3.207.916 5.844 2.733 7.918 1.825 2.034 4.148 3.103 7.001 3.103 2.106 0 4.02-.467 5.747-1.383 1.729-.94 3.296-2.355 4.743-4.236l-1.48-1.664c-.714.723-1.47 1.254-2.322 1.632a6.8 6.8 0 0 1-2.669.539c-1.125 0-2.162-.314-3.07-.949-.949-.627-1.672-1.6-2.3-2.79l8.071-3.391a40 40 0 0 1 2.323-.82c.788-.185 1.198-.378 1.198-.53 0-.442-.281-1.222-.82-2.356-.53-1.101-1.19-2.138-1.913-2.982a9.2 9.2 0 0 0-3.175-2.484c-1.19-.53-2.476-.812-3.923-.812-2.797 0-5.177 1.094-7.162 3.232m3.899 5.208a11 11 0 0 1-.161-1.816c0-1.005.193-1.825.539-2.388.377-.562.844-.844 1.503-.844.755 0 1.479.37 2.138 1.19.66.788 1.222 1.881 1.664 3.392l-5.241 2.195a9 9 0 0 1-.442-1.729m7.282 39.283-40.19 82.52c-.692 1.383.192 3.047 2.137 3.047 2.444 0 3.513-.788 4.397-2.17l14.533-19.815c1.76-2.476 5.088-3.922 10.554-3.922h14.88c5.465 0 9.139 2.17 11.43 6.535l8.23 16.197c.909 1.945 5.113 4.019 10.394 4.019 9.26 0 14.187-5.12 12.081-9.574l-38.615-76.612c-.691-1.511-1.89-3.271-4.558-3.271-3.135 0-4.397 1.23-5.273 3.046m-9.26 50.68 9.26-19.781 9.83 19.436c1.255 2.605-1.727 5.209-5.594 5.209h-8.6c-3.168 0-6.15-2.387-4.896-4.863m-178.126-47.73v75.325c0 6.632 6.406 7.725 10.104 7.725 3.866 0 9.927-1.664 9.927-7.725v-35.979c0-2.733 2.042-5.12 6.06-5.12 3.706 0 6.407 2.95 8.071 5.217l29.83 39.467c1.35 2.042 3.512 3.706 7.057 3.706 3.36 0 6.407-1.793 6.407-3.931v-75.326c0-6.085-6.407-7.725-10.265-7.725-3.738 0-10.265 1.102-10.265 7.725v41.51c0 1.51-.852 3.046-3.046 3.046-1.511 0-3.706-.185-4.71-1.632l-34.195-46.5c-1.511-2.388-4.02-4.366-8.103-4.366-4.171 0-6.872 1.857-6.872 4.582m337.033-4.365c-4.517 0-7.315 1.76-7.315 4.365v78.027c0 2.42 3.489 4.59 7.315 4.59h64.153c4.14 0 8.32-1.793 8.32-4.365 0-2.7-4.333-4.365-8.666-4.365h-50.488v-26.719c0-4.244 4.02-6.945 13.874-8.038l25.843-2.83c2.95-.217 6.246-1.1 6.246-3.046s-3.48-2.821-6.591-2.821h-32.057c-4.71 0-7.315-2.388-7.315-5.434V308.5c0-2.258-4.308-4.332-6.221-4.774h54.258c4.364 0 8.512-1.85 8.32-4.55-.154-2.604-4.14-4.148-8.32-4.148zM397.1 320.06v36.92c0 13.817 17.33 25.03 38.712 25.03 21.414 0 38.752-11.213 38.752-25.03v-13.464c0-2.958-1.856-5.651-6.752-5.651h-25.248c-3.392 0-6.06 1.752-6.406 3.923-.345 2.387 2.355 4.774 6.06 4.774h18.529c-2.195.089-6.752 2.38-6.752 6.31v4.108c0 9.019-4.204 16.301-18.183 16.301-13.97 0-18.68-7.282-18.68-16.301v-36.92c0-9.043 9.766-16.333 23.736-16.333 15.168 0 24.935 6.535 24.935 16.333v2.163c0 1.6 1.849 3.046 4.364 3.046 2.54 0 4.397-1.447 4.397-3.046v-2.163c0-13.817-17.338-25.03-38.752-25.03-21.381 0-38.712 11.213-38.712 25.03m-143.964-25.03c-3.577 0-6.655 1.856-6.848 4.147-.153 2.484 2.926 4.55 6.848 4.55h18.81c2.885 0 4.766 1.197 4.766 3.271v71.178c0 1.544 1.857 3.835 5.12 3.835 3.393 0 5.467-1.793 5.812-3.931l10.924-67.16c.691-4.58 4.084-7.193 10.586-7.193h8.883c3.922 0 7.162-1.85 7.162-4.333 0-2.508-3.585-4.365-7.508-4.365zm-132.943 7.724v71.62c0 6.632 6.374 7.725 10.015 7.725 3.858 0 9.855-1.664 9.855-7.725v-71.62c0-6.085-5.997-7.725-9.855-7.725-3.641 0-10.015 1.102-10.015 7.725m-19.533-5.337L78.402 347.22c-.506 1.061-1.166 2.38-3.553 2.38-3.36 0-4.051-1.536-4.55-3.039l-19.251-46.726c-1.503-3.609-5.9-4.678-9.766-4.678-7.597 0-11.455 4.55-9.79 8.569l31.203 72.376c1.198 2.636 2.203 5.908 6.945 5.908 5.21 0 6.56-2.733 7.91-6.093l29.548-77.617c.692-1.857-.16-3.272-2.202-3.272-2.693 0-3.545.973-4.236 2.388m223.188 100.92c-4.87 4.147-7.29 9.83-7.29 17.08 0 6.937 2.17 12.556 6.502 16.865 4.333 4.3 10.177 6.462 17.427 6.462 7.162 0 12.934-2.194 17.395-6.559 4.493-4.365 6.688-9.702 6.688-16.044 0-6.817-2.291-12.5-6.873-17.113-4.558-4.582-10.048-6.881-16.422-6.881-6.816 0-12.596 2.042-17.427 6.19m8.288 28.728c-2.356-3.264-3.521-7.066-3.521-11.302 0-4.429 1.101-8.255 3.336-11.462 2.226-3.2 4.96-4.831 8.223-4.831 3.328 0 6.157 1.631 8.48 4.863 2.323 3.231 3.48 7.065 3.48 11.43 0 4.517-1.093 8.32-3.327 11.495-2.195 3.167-4.992 4.734-8.416 4.734-3.167 0-5.932-1.632-8.255-4.927m90.96-22.354c0 3.23.82 5.932 2.516 8.07 1.6 2.106 4.614 3.923 8.914 5.49 2.548.916 4.397 1.64 5.627 2.235 1.19.594 2.162 1.35 2.95 2.194.747.884 1.093 1.825 1.093 2.83 0 4.83-4.172 7.282-12.62 7.282h-4.517c-2.203.185-3.304.852-3.304 1.881 0 1.23 1.447 2.138 4.34 2.83a36.5 36.5 0 0 0 8.537 1.004c6.125 0 10.868-1.101 14.284-3.392 3.424-2.227 5.12-5.554 5.12-9.92 0-2.234-.377-4.211-1.133-5.875a10.8 10.8 0 0 0-3.36-4.172c-1.503-1.101-3.826-2.17-6.97-3.24-3.166-1.036-5.337-1.816-6.558-2.378-1.198-.572-2.138-1.327-2.83-2.267-.659-.94-.972-2.042-.972-3.328q.002-6.212 14.412-6.214c2.765 0 4.148-.506 4.148-1.446 0-1.254-1.447-2.26-4.268-3.015-2.894-.723-5.683-1.101-8.416-1.101-11.334 0-16.993 4.18-16.993 12.532M48.259 392.999c-2.17.498-4.461 1.47-6.945 2.982-2.444 1.511-4.397 3.231-5.9 5.153-1.48 1.913-2.605 4.019-3.296 6.342-.723 2.29-1.101 4.798-1.101 7.531 0 6.881 2.54 12.5 7.564 16.929 5.056 4.397 11.213 6.591 18.496 6.591 2.355 0 4.903-.184 7.604-.595 2.693-.378 4.365-.852 5.08-1.447.691-.562 1.037-1.446 1.037-2.668 0-1.037-.346-1.535-1.005-1.535l-6.808.152c-4.244 0-7.476-.466-9.735-1.383-2.29-.94-4.212-2.162-5.747-3.705-1.567-1.503-2.797-3.167-3.673-5.056-.909-1.881-1.35-4.453-1.35-7.75 0-2.234.312-4.211.972-5.907.595-1.728 1.76-3.513 3.488-5.37 1.72-1.848 3.674-3.199 5.804-4.05 2.138-.78 4.614-1.19 7.508-1.19 1.125 0 2.853.128 5.208.409 2.356.282 3.61.402 3.803.402.755 0 1.133-.434 1.133-1.318 0-1.696-1.35-2.982-4.051-3.923-2.669-.876-5.973-1.318-9.863-1.318-3.328 0-6.061.217-8.223.723m177.186.185c-.54.064-1.102.474-1.76 1.101-.66.66-1.255 1.447-1.825 2.355-.563.909-1.037 2.01-1.415 3.264l-2.259 8.006c-1.535 5.152-2.733 8.384-3.577 9.734-.442.691-.908 1.23-1.447 1.543-.498.378-1.069.53-1.664.53-.876 0-1.696-.41-2.42-1.221-.715-.852-1.663-3.079-2.853-6.656-1.19-3.585-2.42-7.724-3.705-12.435a11.6 11.6 0 0 0-2.259-4.525c-1.037-1.286-1.921-1.881-2.604-1.881H176.58l5.153 6.72v31.493l-5.153 6.688h20.417l-5.152-6.688v-8.416c0-2.885.249-5.465.812-7.724.539-2.259 1.262-3.392 2.074-3.392.916 0 2.01 1.414 3.328 4.3 1.262 2.862 2.483 6.093 3.617 9.734 1.093 3.642 1.913 6.254 2.475 7.886s1.134 2.757 1.697 3.448c.562.66 1.197 1.166 1.824 1.415.66.25 2.01.41 4.051.41 1.407 0 2.412-.16 3.039-.41.602-.249 1.198-.756 1.696-1.471.539-.756 1.005-1.696 1.383-2.894 3.552-10.86 5.811-17.459 6.784-19.718.474-1.133.94-1.977 1.414-2.54.499-.602.973-.852 1.415-.852.94 0 1.753 1.198 2.412 3.553.69 2.323 1.037 4.896 1.037 7.628v12.34c0 .875.41 1.695 1.254 2.386.82.692 2.202 1.005 4.05 1.005 1.263 0 2.139-.096 2.702-.346.57-.216 1.069-.627 1.543-1.222.466-.602.723-1.262.723-1.985v-36.984c0-1.1-.441-2.074-1.294-2.918-.812-.852-1.784-1.294-2.885-1.382a195 195 0 0 0-5.555-.064c-3.52 0-5.53.064-5.996.184m-81.42.257c-.82.25-1.543.716-2.17 1.375-.659.667-1.125 1.415-1.503 2.299l-13.85 35.32c-.594 1.51-.876 2.451-.876 2.83 0 1.751 1.664 2.636 4.992 2.636 3.2 0 5.522-1.415 6.97-4.269 1.068-2.138 2.161-3.52 3.295-4.18a7.3 7.3 0 0 1 3.673-.972h11.02c1.198 0 2.171.281 2.95.844.788.602 1.825 1.985 3.144 4.18 1.728 2.982 4.019 4.429 6.937 4.429 3.36 0 5.056-.94 5.056-2.862 0-.346-.314-1.19-.877-2.636l-14.26-35.232a9.6 9.6 0 0 0-1.535-2.355 5.7 5.7 0 0 0-2.041-1.374c-.788-.322-2.452-.475-5.024-.475-3.111 0-5.088.129-5.9.442m1.72 27.033c-1.254-.876-1.913-1.913-1.913-3.143 0-1.978.595-4.518 1.792-7.66 1.19-3.143 2.476-4.71 3.827-4.71s2.733 1.663 4.115 4.959c1.383 3.327 2.074 5.811 2.074 7.443 0 1.166-.66 2.17-1.945 3.079-1.319.876-2.637 1.318-3.899 1.318-1.406 0-2.757-.443-4.051-1.286m389.29-27.226 5.12 6.656v34.604c0 2.26 1.817 3.393 5.49 3.393 1.825 0 3.175-.346 4.02-1.037q1.325-1.087 1.325-4.236l-.128-3.931c0-1.785.28-3.2.94-4.333.627-1.093 1.664-1.88 3.047-2.29 1.382-.41 3.328-.724 5.9-.941 4.71-.41 8.352-1.825 10.996-4.333 2.572-2.451 3.89-5.811 3.89-9.983 0-4.309-1.535-7.636-4.549-9.992-3.079-2.379-7.162-3.577-12.315-3.577zm17.33 19.75c-.908-1.125-1.374-3.135-1.374-5.932 0-4.992 1.816-7.475 5.393-7.475 2.01 0 3.77.723 5.37 2.234 1.575 1.439 2.355 3.2 2.355 5.177 0 2.106-.716 3.922-2.13 5.434-1.447 1.503-3.175 2.29-5.273 2.29-1.954 0-3.392-.594-4.341-1.728m-41.879-19.75 5.144 6.753v34.411c0 2.355 1.825 3.489 5.402 3.489 3.706 0 5.53-1.198 5.53-3.553v-34.347l5.145-6.753zm-17.113 3.987v8.006c0 1.632-.949 3.015-2.894 4.084-1.881 1.101-3.923 1.664-6.06 1.664-2.13 0-4.076-.53-5.869-1.536-1.792-1.036-2.668-2.387-2.668-4.083v-5.37l5.144-6.752h-21.253l5.177 6.753v31.212l-5.177 6.688h12.652c1.037 0 1.89-.314 2.484-.973.66-.66.973-1.511.973-2.58v-11.173c0-1.89.811-3.328 2.475-4.397s3.674-1.568 6.061-1.568c2.355 0 4.43.53 6.286 1.6 1.817 1.101 2.725 2.54 2.725 4.365v11.149c0 2.379 1.953 3.609 5.876 3.609 3.424 0 5.12-1.134 5.12-3.425v-37.24c0-2.67-1.977-4.02-5.94-4.02-3.416 0-5.112 1.35-5.112 3.987m-125.661-3.987L372.92 400v31.212l-5.144 6.688h20.441l-5.185-6.688v-8.48c0-4.831.217-7.725.692-8.666.474-.972 1.037-1.447 1.728-1.447 1.125 0 2.54 1.319 4.333 4.02 1.792 2.7 4.774 7.853 8.946 15.417 1.133 2.042 2.227 3.617 3.24 4.678 1.028 1.101 2.065 1.728 3.102 1.921 1.037.185 2.291.25 3.706.25 3.898 0 6.221-.38 7.065-1.166.788-.78 1.19-1.978 1.19-3.481v-37.241c0-1.005-.313-1.825-.94-2.42-.627-.594-1.881-.876-3.762-.876-2.139 0-3.553.282-4.277.812-.691.507-1.037 1.383-1.037 2.669v16.14c0 3.674-.78 5.53-2.29 5.53-.692 0-1.44-.345-2.291-1.068-.844-.724-2.573-3.457-5.273-8.255-2.67-4.775-4.646-8.36-5.876-10.715-1.222-2.38-2.356-3.89-3.449-4.55-1.069-.691-1.857-1.037-2.387-1.037zm-75.93 0 5.153 6.753v34.411c0 2.355 1.825 3.489 5.434 3.489 3.674 0 5.49-1.198 5.49-3.553v-34.347l5.185-6.753zm-44.868 0 5.12 6.656v34.604c0 2.26 1.857 3.393 5.498 3.393q2.725 0 4.051-1.037c.844-.724 1.286-2.138 1.286-4.236l-.128-3.931c0-1.785.313-3.2.94-4.333.627-1.093 1.64-1.88 3.047-2.29 1.382-.41 3.36-.724 5.908-.941 4.678-.41 8.352-1.825 10.988-4.333 2.604-2.451 3.89-5.811 3.89-9.983 0-4.309-1.503-7.636-4.549-9.992-3.079-2.379-7.162-3.577-12.307-3.577zm17.37 19.75c-.948-1.125-1.382-3.135-1.382-5.932 0-4.992 1.784-7.475 5.401-7.475 1.978 0 3.762.723 5.338 2.234 1.567 1.439 2.387 3.2 2.387 5.177 0 2.106-.723 3.922-2.17 5.434-1.415 1.503-3.175 2.29-5.241 2.29-1.953 0-3.392-.594-4.333-1.728m-155.49-15.763v8.006c0 1.632-.973 3.015-2.862 4.084-1.945 1.101-3.955 1.664-6.085 1.664-2.138 0-4.084-.53-5.876-1.536-1.793-1.036-2.669-2.387-2.669-4.083v-5.37l5.153-6.752H75.195L80.379 400v31.212l-5.184 6.688h12.652c1.005 0 1.857-.314 2.516-.973.627-.66.94-1.511.94-2.58v-11.173c0-1.89.82-3.328 2.484-4.397 1.632-1.07 3.641-1.568 6.06-1.568 2.324 0 4.422.53 6.279 1.6 1.816 1.101 2.7 2.54 2.7 4.365v11.149c0 2.379 2.01 3.609 5.9 3.609 3.393 0 5.12-1.134 5.12-3.425v-37.24c0-2.67-1.976-4.02-5.963-4.02-3.393 0-5.089 1.35-5.089 3.987m348.344 50.713c-38.093 50.705-93.26 82.641-154.671 82.641-61.388 0-116.586-31.936-154.647-82.64H91.866c50.552 56.106 126.135 91.812 210.6 91.812 84.49 0 160.073-35.706 210.625-91.813z" style="fill:url(#b)"/></svg>