<svg xmlns="http://www.w3.org/2000/svg" xmlns:xlink="http://www.w3.org/1999/xlink" width="602.003" height="561.573"><radialGradient id="a" cx="0" cy="0" r="1" fx="0" fy="0" gradientTransform="matrix(33.32854 0 0 -33.32854 396.249 271.51)" gradientUnits="userSpaceOnUse" spreadMethod="pad"><stop offset="0" style="stop-color:#d7bd74"/><stop offset=".691" style="stop-color:#b39a54"/><stop offset="1" style="stop-color:#8d742f"/></radialGradient><radialGradient xlink:href="#a" id="b" cx="0" cy="0" r="1" fx="0" fy="0" gradientTransform="translate(300.99 280.774)scale(290.07209)" gradientUnits="userSpaceOnUse" spreadMethod="pad"/><path d="M67.234 110.263h61.977c41.306-60.61 104.102-99.341 174.477-99.341 70.376 0 133.197 38.73 174.47 99.34h62.01C485.643 43.839 400 1 303.689 1c-96.32 0-181.927 42.838-236.454 109.263m446.86 24.752c-8.365 7.137-12.168 19.008-12.203 31.01.035 14.683 5.71 29.81 16.998 37.05 8.738 4.013 17.137 7.25 25.092 8.304 2.55.34 5.03.505 7.511.505 15.1 0 29.748-6.188 48.173-17.442l.374-.2.174-.374c.479-.888.749-1.428.784-2.315.035-.41-.21-1.158-.714-1.497-.549-.34-.992-.374-1.262-.374-.783.034-1.358.243-1.392.174h-.235l-.244.104c-.948.304-1.967.81-2.585 1.019-9.852 2.584-21.14 5.065-31.48 5.065-15.84-.105-28.93-5.44-32.942-25.397-.444-2.654-.749-5.3-.749-7.815 0-2.794.374-5.38 1.227-7.59 6.423-13.09 10.914-15.944 23.012-16.11 2.924 0 6.362.2 10.305.54 3.838 1.871 5.1 5.274 5.17 10.41 0 1.896-.244 4.011-.583 6.248l-.07.444.21.41c.817 1.496 2.28 1.836 3.568 1.87 1.662-.034 3.707-.678 4.56-2.785l.096-.243v-.235c.07-8.843 2.854-14.691 9.347-18.634l.749-.435v-.818c-.063-6.293-4.387-9.896-7.546-10.81l-1.053-.374-.61.984c-2.62 4.081-4.83 5.335-7.79 5.404-1.017 0-2.175-.2-3.428-.548-7.955-3.29-16.563-6.118-25.432-6.118-8.842 0-17.99 2.829-27.032 10.575m-31.55-9.687c-5.78 2.036-11.524 2.89-17.233 2.89-5.744 0-11.428-.854-17.033-2.142l-.339-.07-.304.07c-2.315.409-4.726 2.21-4.63 5.266 0 .41.035.922.139 1.427l.14.714.678.313c4.76 2.341 9.173 4.961 11.793 10.296.409 8.973 2.42 21.69 2.42 33.796 0 14.308-2.829 27.267-13.464 32.533l-.888.444.07.949c.139 3.673 2.106 6.397 5.17 6.632l.643.07.479-.41c8.224-6.937 16.928-11.018 26.65-11.018 3.194 0 6.492.444 9.93 1.4l.444.096.435-.165c1.801-.479 2.959-2.21 2.828-3.742 0-1.053-.278-2.072-.583-3.055l-.2-.618-.549-.27c-6.457-3.194-7.406-7.276-8.224-12.75-1.123-5.1-1.462-10.236-1.462-15.466-.035-9.452 1.227-19.244 1.732-28.696v-.235a4.7 4.7 0 0 1-.105-.957c0-4.178 2.76-7.442 7.006-10.81l.949-.748-.54-1.088c-.609-1.288-1.636-4.117-5.17-4.726l-.408-.035zm-337.353 6.832c-.035 1.088.435 2.385 1.557 3.124 3.847 2.585 7.894 5.17 11.428 7.686 2.341 2.889 3.978 5.953 4.012 10.06 0 .41-.034.784-.07 1.193-3.533 5.44-6.797 10.984-10.948 15.135-1.158 1.454-2.55 2.176-2.994 4.483l-.028.139v.096c.096 2.994 2.272 5.17 4.143 6.876 1.323 1.114 2.785 2.89 5.613 2.985.34.07.68.14 1.054.14 1.697-.036 3.054-1.02 4.316-2.516 3.195.035 5.475 1.627 7.546 5.065 8.739 14.039 16.424 30.628 22.577 50.654.81 4.082 1.497 8.025 1.497 11.358 0 3.499-.749 6.258-2.49 8.12-3.768 3.334-7.615 6.937-10.974 8.913l-.548.304-.166.574c-.278 1.027-.41 1.941-.41 2.829-.034 1.218.34 2.446 1.289 3.264.957.783 2.14 1.018 3.438 1.018h.783l.505-.035.374-.304c3.368-2.69 7.859-4.726 13.16-6.293 6.318-1.122 12.132-1.531 17.815-1.531 3.02 0 6.014.104 9.043.313 6.797 1.018 13.595 2.306 20.366 5.37.914.235 1.628.374 2.341.374 2.515 0 4.97-1.636 4.97-4.316 0-.853-.279-1.776-.749-2.62l-.104-.14-.14-.13c-8.703-8.982-19.408-12.037-22.88-22.716-7.99-31.655-23.187-65.102-35.119-86.39-1.427-5.945-1.462-12.307-1.932-18.8.028-.844.096-1.592.096-2.306-.035-1.671-.166-3.064-.914-4.29-.679-1.22-2.176-1.933-3.638-1.898-1.123 0-2.35.27-3.777.81-1.462.548-2.96.713-4.517.713-1.767 0-3.638-.27-5.58-.54-10.365-1.836-15.909-1.566-25.091-2.62-3.125.34-4.656 3.134-4.857 5.85m95.425-5.031c-1.697 1.288-3.464 2.924-3.5 5.474 0 .644.14 1.358.444 2.037l.166.374.313.243c10.131 7.546 23.456 11.489 37.12 15.127 4.187 1.288 8.974 16.214 12.89 32.055a227 227 0 0 1 1.019 21.453v.175l.034.165c.714 3.777 3.125 5.37 5.066 5.578l.34.07.373-.14c3.673-1.192 7.346-2.175 12.203-2.175 4.525 0 10.096.853 17.58 3.229l.131.035.175.034c.373.035.748.07 1.087.07.914 0 1.872-.174 2.75-.853.888-.714 1.263-1.836 1.263-2.994 0-.4-.07-.844-.14-1.323l-.07-.304-.165-.27c-23.595-36.005-21.35-48.617-24.822-66.946v-.166l-.063-.14c-2.315-6.187-6.257-7.136-8.982-6.9h-.644c-6.492.478-12.855.817-19.243.817-11.323 0-22.611-1.157-33.96-4.96l-.75-.244-.617.479zm99.515 16.049c-3.743 7.032-5.675 14.891-5.675 23.725 0 4.596.505 9.417 1.593 14.518 3.977 11.662 11.184 20.635 22.037 26.075 3.638 3.229 8.155 4.63 12.916 4.63 2.14 0 4.316-.313 6.562-.748l.166-.035.139-.105c5.17-2.48 12.785-4.047 19.382-4.551.68-.07 1.289-.105 1.863-.105 6.397.035 9.93 3.299 14.926 9.243l.14.174.2.13c1.123.723 2.28 1.062 3.403 1.062 1.393-.035 2.585-.514 3.638-.957l1.288-.505-.47-1.332c-1.601-4.517-2.384-8.46-2.384-11.932.07-8.904 4.725-14.891 13.568-19.478l.575-.34.174-.643a7.6 7.6 0 0 0 .234-1.837c.035-2.959-2.245-4.795-4.621-5.405l-.27-.104-.313.07c-6.658.783-13.325 1.288-20.018 1.288-3.882 0-7.755-.166-11.662-.54l-.27-.035-.313.096c-2.576.714-3.664 3.134-3.908 5.414l-.131 1.358 1.323.304c3.534.748 7.172 1.288 9.652 2.55.957 1.323 1.532 2.924 1.532 4.587 0 1.157-.27 2.315-.853 3.568-1.828 3.603-5.744 4.117-10.026 4.935a63 63 0 0 1-5.605.27c-8.573 0-16.389-2.072-21.454-7.407-4.63-4.7-7.416-12.994-7.38-21.593 0-.749 0-1.428.069-2.141-.07-10.366 6.902-22.507 15.5-27.434 1.767-.278 3.978-.409 6.389-.409 4.386 0 9.452.505 13.838 1.932 7.72 2.315 11.967 2.455 12.072 10.68 0 1.357-.14 3.028-.444 4.96l-.095.714.505.549c.888.879 2.14 1.766 3.777 1.801 1.158 0 2.376-.548 3.43-1.462l.338-.34.105-.478c1.566-7.58 3.298-14.517 8.973-20.74l.514-.575-.174-.783c-.775-3.09-1.593-6.632-5.231-8.294l-.783-.374-.714.513c-3.333 2.445-8.33 5.779-13.7 5.744h-1.017c-6.737-1.227-12.69-4.865-20.27-6.258-2.272-.104-4.352-.174-6.389-.174h-.514c-14.038 0-26.885 2.55-36.136 16.223M50.914 130.5c-1.976.269-3.438 1.662-4.795 3.054-1.297 1.602-2.316 2.725-2.481 4.422v1.288l1.288.209c8.773 1.357 13.943 3.873 14.039 12.507 0 .652-.028 1.296-.096 2.01-2.793 10.775-5.779 16.52-8.573 21.175l-.2.349v.4c.27 2.28 2.002 3.368 4.117 4.796 2.14 1.296 4.787 2.384 7.337 2.384 2.01.035 4.186-.853 5.24-2.994 1.322-1.67 2.375-3.533 3.393-5.613.853-2.002 1.332-3.464 1.741-4.283.54-.783.435-.644.984-.713.574-.035 2.036.374 4.351 1.462 22.986 10.435 42.769 86.085 44.336 105.799 0 3.063 1.766 5.918 4.656 6.057h.035c.983 0 1.967-.443 2.715-1.192 7.45-6.797 14.691-13.569 22.133-20.4 3.438-2.246 4.117-5.545 4.595-7.817l.096-.479-.165-.374c-2.585-6.597-5.44-13.429-9.113-20.296-2.385-4.865-3.264-8.938-3.264-12.75-.07-8.939 5.031-16.763 6.05-28.591v-.2l-.035-.21c-1.289-4.69-6.119-10.13-10.54-10.505-.949 0-2.002.41-2.681 1.262l-.14.201-.104.235c-2.515 7.276-5.126 9.217-5.91 9.016-.478.035-1.226-.374-2.045-1.531-5.709-9.383-13.429-23.77-20.67-35.832-3.638-6.023-7.172-11.463-10.296-15.475-3.23-3.943-5.745-6.658-8.878-6.832l-.035-.07c-.034 0-.13 0-.305.07-5.196.609-9.826.853-14.343.853-7.04 0-13.838-.619-22.133-1.393zm197.454 27.772c-2.376.48-4.386 2.96-5.204 7.415-2.716 12.742-15.362 21.96-15.57 35.284 0 .41.034.783.034 1.192.279 4.866 2.925 8.843 7.041 9.252 1.123.063 2.141.063 3.194.063 2.82 0 5.614-.131 8.974-.131 1.192 0 2.515 0 3.916.07 4.282.062 7.033-1.367 8.704-3.673 1.697-2.28 2.61-5.066 4.482-8.33 1.767-3.228 2.89-4.186 6.736-6.527l.54-.34.14-.651c.339-1.593.678-3.874.678-6.189-.035-3.194-.548-6.727-3.403-8.703a5.56 5.56 0 0 0-2.75-.749c-.888 0-1.671.14-2.411.279-3.299 1.053-5.884 3.499-8.434 5.57-2.42 1.941-4.865 3.882-6.397 5.579-.096.07-.234.07-.304.07-.07-2.89 6.667-13.77 8.738-18.6l-1.358-.574 1.393.47c.644-1.836.914-3.43.949-4.822 0-2.245-.949-4.082-2.342-5.065-1.427-1.027-3.063-1.262-4.49-1.262-1.088 0-2.037.174-2.855.374M46.154 188.57l-.07.097-.035.139c-6.153 19.278-12.855 37.224-19.783 54.7-5.988 9.487-11.497 20.027-23.56 25.467l-.34.166-.243.339C1.339 270.53 1 271.758 1 272.95c0 2.411 1.497 4.961 4.282 5.031.444 0 .888-.07 1.332-.2l.27-.105.173-.14c7.677-5.944 17.807-9.79 31.715-9.79 3.23 0 6.667.208 10.305.678h.305c2.715-.339 3.707-2.959 3.672-4.96 0-2.072-.887-4.553-3.437-5.266l-.13-.07h-.07c-2.55-.304-4.352-.957-5.71-3.673a48 48 0 0 1-.583-7.38c0-14.483 6.388-31.341 17.676-50.654a2.87 2.87 0 0 0 .618-1.767c-.244-2.515-2.315-3.908-4.56-5.37-2.307-1.366-5.031-2.42-7.346-2.454-1.184 0-2.646.34-3.36 1.74m250.902 47.556-.139 1.123H279.44l-.165-1.123h-3.125l-.652 9.626h3.028c.201-1.462.68-2.515 1.393-3.194.714-.68 1.732-1.053 2.994-1.053h.574V265.3h-2.68v3.533h14.682V265.3h-2.654v-23.795h.549c1.288 0 2.315.374 3.028 1.053.749.713 1.184 1.767 1.428 3.194h2.959l-.653-9.626h-3.09zm81.97 2.045a16.8 16.8 0 0 0-5.545 4.213c-1.427 1.601-2.48 3.472-3.194 5.544-.783 2.036-1.158 4.317-1.158 6.658 0 4.49 1.262 8.129 3.743 10.853 2.445 2.68 5.71 4.073 9.791 4.073 1.906 0 3.708-.339 5.475-1.018 1.697-.644 3.298-1.662 4.786-2.994l2.046 3.333h2.515V254.22c0-.548.07-1.061.27-1.531.208-.444.478-.923.887-1.367l-1.227-2.141c-.505.244-1.053.34-1.593.478-.582.105-1.122.105-1.706.105h-10.33v3.429h5.23v10.13c-.234.105-.54.14-.844.21-.278 0-.618.034-1.027.034-2.55 0-4.691-1.331-6.423-3.977-1.732-2.69-2.585-5.988-2.585-9.896 0-2.69.513-4.865 1.532-6.458 1.018-1.636 2.376-2.445 4.012-2.445.853 0 1.532.27 2.071.774.55.549.819 1.193.819 1.941 0 .235-.035.548-.14.853-.13.27-.304.54-.504.748l1.801 2.516 9.452-6.432-1.836-2.855-1.767 1.123a13 13 0 0 0-3.777-2.071 12.2 12.2 0 0 0-4.178-.714c-2.28 0-4.491.478-6.597 1.497m67.007 2.41v2.89l1.602-.505v23.012h-1.602v2.855h11.184v-2.855h-1.558v-13.22c.644-.583 1.288-1.062 1.932-1.367a4.44 4.44 0 0 1 2.011-.47c.775 0 1.393.235 1.802.714.409.505.609 1.253.609 2.237v12.106h-1.567v2.855h11.219v-2.855h-1.593v-13.534c0-2.21-.583-3.907-1.706-5.126-1.114-1.262-2.646-1.871-4.621-1.871-1.193 0-2.411.339-3.734.983-1.366.644-2.794 1.628-4.352 3.03v-9.148l1.663-.549v-2.89zm-141.944 0v2.89l1.567-.505v23.012h-1.567v2.855h11.158v-2.855h-1.532v-13.22a6.5 6.5 0 0 1 1.941-1.367 4.3 4.3 0 0 1 1.967-.47c.818 0 1.428.235 1.802.714q.616.76.618 2.237v12.106h-1.567v2.855h11.22v-2.855h-1.637v-13.534c0-2.21-.54-3.907-1.662-5.126-1.088-1.262-2.655-1.871-4.622-1.871-1.158 0-2.385.339-3.742.983-1.323.644-2.786 1.628-4.317 3.03v-9.148l1.627-.549v-2.89zm219.866-1.122c-1.018.853-1.532 1.767-1.532 2.82 0 .783.279 1.427.853 1.906.549.514 1.297.748 2.246.748 1.497 0 2.785-.408 3.873-1.192 1.053-.748 1.601-1.662 1.601-2.75 0-.818-.304-1.462-.957-1.976-.644-.505-1.523-.775-2.611-.775-1.297 0-2.455.4-3.473 1.219m-90.498 5.24c-1.297 1.157-2.96 2.036-4.97 2.645v2.62h2.115v13.16c0 2.245.41 3.873 1.393 4.89.879.993 2.376 1.498 4.421 1.498 1.253 0 2.48-.304 3.699-.914 1.262-.583 2.42-1.497 3.507-2.62l-1.192-1.767a4 4 0 0 1-.983.479c-.305.096-.584.166-.853.166-.714 0-1.227-.235-1.497-.714-.305-.48-.445-1.288-.445-2.48v-11.698h2.794c.2 0 .374-.035.445-.13.095-.105.165-.376.234-.819l.478-2.69h-3.95v-5.535l-2.272-.513c-.653 1.767-1.602 3.23-2.925 4.421m149.046-2.106c-.548.54-1.088 1.697-1.601 3.395-.644-.201-1.288-.305-1.967-.41a18 18 0 0 0-2.246-.13c-3.063 0-5.648.844-7.685 2.585-2.036 1.732-3.063 3.873-3.063 6.458 0 2.071.687 3.873 2.08 5.44 1.392 1.496 3.298 2.55 5.674 3.054-1.053.584-2.28 1.053-3.673 1.532-1.392.48-2.889.923-4.586 1.297l2.68 2.82c.514-.14.993-.21 1.428-.279.41-.028.818-.062 1.227-.062.374 0 .853.034 1.358.062.514.07 1.122.14 1.906.279-1.358.409-2.411.983-3.16 1.732-.713.748-1.053 1.601-1.053 2.654 0 1.393.644 2.48 1.898 3.23 1.296.809 3.098 1.157 5.378 1.157 2.681 0 4.927-.584 6.728-1.802 1.802-1.227 2.724-2.724 2.724-4.49 0-1.733-.853-3.1-2.55-4.117-1.706-1.019-4.456-1.767-8.268-2.246 4.012-1.018 6.937-2.376 8.877-4.073 1.906-1.706 2.855-3.777 2.855-6.327 0-2.002-.679-3.839-2.002-5.475a84 84 0 0 1-2.01-2.41c0-.21.07-.41.209-.55.165-.13.4-.2.644-.2.2 0 .374.035.609.14.235.062.548.234.888.434l.914-4.351c-.27-.063-.505-.131-.818-.131-.27-.07-.505-.07-.749-.07-1.184 0-2.106.27-2.646.853m-7.79 15.196c-.913-1.94-1.392-4.151-1.392-6.597 0-.957.2-1.697.549-2.21.4-.514.914-.819 1.558-.819 1.262 0 2.28.923 3.229 2.785.922 1.837 1.392 4.048 1.392 6.528 0 1.027-.2 1.81-.61 2.35-.374.574-.948.853-1.661.853-1.123 0-2.141-.958-3.064-2.89m1.706 16.554c-.348-.443-.513-1.053-.513-1.801 0-.548.104-1.053.27-1.567a6 6 0 0 1 .782-1.462c.749.34 1.393.853 1.802 1.497.444.644.644 1.392.644 2.21 0 .55-.096.984-.41 1.297-.304.34-.678.47-1.183.47-.618 0-1.053-.2-1.392-.644m-171.893-22.167 2.68 1.053a7.6 7.6 0 0 1 2.316-2.141 5.3 5.3 0 0 1 2.646-.714c.887 0 1.566.209 2.08.644.505.444.783 1.053.783 1.767l-.035 1.227c-.444-.035-.783-.07-1.088-.07h-.713c-3.847 0-6.737.68-8.643 2.08-1.897 1.393-2.855 3.5-2.855 6.284 0 2.141.653 3.847 2.01 5.17 1.324 1.358 3.021 2.037 5.17 2.037 1.02 0 2.037-.27 3.09-.714 1.019-.47 2.072-1.183 3.09-2.106l.618 2.141h8.939v-2.855h-1.593v-13.194c0-2.272-.687-4.038-2.08-5.37-1.427-1.323-3.36-1.967-5.814-1.967-1.018 0-1.967.095-2.959.304q-1.421.3-2.75.914l.443-1.323-2.384-.888zm6.049 11.462c-.478-.618-.679-1.497-.679-2.69 0-1.296.34-2.375 1.088-3.124.679-.783 1.662-1.157 2.89-1.157h.373c.166.034.41.07.749.13l.035 4.83c0 .889-.244 1.602-.714 2.107-.478.549-1.088.818-1.871.818-.818 0-1.462-.304-1.871-.914m105.659-17.38c-.574-.27-1.114-.47-1.628-.61-.513-.13-.948-.2-1.357-.2-.68 0-1.332.27-1.941.81-.644.618-1.602 1.87-2.855 3.881-.34-.992-.922-1.836-1.732-2.585-.783-.748-1.871-1.462-3.264-2.106l-4.865 5.91 1.671 1.87.81-.713c.278.174.478.374.582.61.097.208.166.618.166 1.226v11.628h-1.558v2.855h11.898v-2.855h-2.315v-9.652c0-1.123.27-1.976.783-2.585.513-.618 1.227-.957 2.106-.957.41 0 .923.104 1.532.278.54.13 1.288.41 2.176.749l2.654-7.72-2.384-.853zm34.648.174c-1.357.644-2.785 1.627-4.351 3.029l.234-4.013h-.34l-9.521 2.68v2.586l1.567-.235v15.5H536.9v2.856h11.193v-2.855h-1.567v-13.22c.61-.583 1.288-1.062 1.976-1.367a4.26 4.26 0 0 1 1.932-.47c.818 0 1.427.235 1.836.714.444.505.61 1.253.61 2.236v12.107h-1.524v2.855h11.15v-2.855h-1.567v-13.534c0-2.21-.54-3.908-1.663-5.126-1.157-1.262-2.724-1.871-4.69-1.871-1.158 0-2.385.339-3.708.983m-20.332-.983-9.521 2.68v2.585l1.601-.235v15.501h-1.601v2.855h11.184v-2.855h-1.558V249.46c0-.443.035-.992.07-1.566 0-.644.062-1.463.13-2.446h-.304zm-52.22 3.498c-2.176 2.315-3.229 5.205-3.229 8.634 0 3.473.983 6.327 2.96 8.573 1.966 2.202 4.481 3.36 7.58 3.36 2.28 0 4.352-.505 6.223-1.497 1.871-1.019 3.568-2.55 5.135-4.587l-1.636-1.802a8.2 8.2 0 0 1-2.48 1.767 7.6 7.6 0 0 1-2.89.583q-1.893.002-3.369-1.027c-.948-.678-1.801-1.732-2.445-3.02l8.738-3.672c.818-.34 1.662-.61 2.515-.888.853-.2 1.288-.409 1.288-.575 0-.478-.305-1.323-.879-2.55-.583-1.192-1.297-2.315-2.106-3.229-.992-1.192-2.115-2.071-3.403-2.69a10.4 10.4 0 0 0-4.247-.878c-3.03 0-5.614 1.184-7.755 3.499m4.212 5.64a13 13 0 0 1-.165-1.967c0-1.088.165-1.976.575-2.585q.563-.915 1.636-.914c.783 0 1.558.4 2.272 1.288.722.853 1.331 2.036 1.836 3.673l-5.71 2.376c-.2-.575-.338-1.184-.444-1.872m-146.19-5.64c-2.142 2.316-3.23 5.205-3.23 8.634 0 3.473.992 6.328 2.96 8.573 1.975 2.202 4.49 3.36 7.58 3.36 2.28 0 4.352-.505 6.223-1.497 1.871-1.018 3.568-2.55 5.135-4.587l-1.601-1.801c-.775.783-1.593 1.357-2.516 1.766a7.4 7.4 0 0 1-2.89.584c-1.218 0-2.34-.34-3.324-1.027-1.027-.68-1.81-1.732-2.49-3.02l8.74-3.673c.852-.34 1.67-.61 2.514-.888.853-.2 1.297-.409 1.297-.574 0-.479-.305-1.323-.888-2.55-.574-1.193-1.288-2.315-2.071-3.23a10 10 0 0 0-3.438-2.689c-1.288-.574-2.68-.879-4.247-.879-3.029 0-5.605 1.184-7.755 3.499m4.221 5.64a12 12 0 0 1-.174-1.967c0-1.088.21-1.976.583-2.585.41-.61.914-.914 1.628-.914.818 0 1.601.4 2.315 1.288.713.853 1.323 2.037 1.801 3.673l-5.674 2.376a9.6 9.6 0 0 1-.48-1.871m7.886 42.533-43.517 89.35c-.749 1.497.209 3.298 2.315 3.298 2.646 0 3.803-.853 4.76-2.35l15.736-21.454c1.907-2.68 5.51-4.247 11.428-4.247h16.11c5.918 0 9.896 2.35 12.376 7.076l8.913 17.537c.983 2.107 5.535 4.352 11.253 4.352 10.026 0 15.362-5.544 13.081-10.366l-41.81-82.952c-.75-1.636-2.046-3.542-4.936-3.542-3.394 0-4.76 1.331-5.71 3.298m-10.025 54.875 10.026-21.419 10.644 21.045c1.358 2.82-1.871 5.64-6.057 5.64h-9.313c-3.43 0-6.658-2.585-5.3-5.266m-192.868-51.68v81.56c0 7.18 6.937 8.363 10.94 8.363 4.186 0 10.749-1.801 10.749-8.364v-38.956c0-2.96 2.21-5.544 6.562-5.544 4.012 0 6.937 3.194 8.738 5.648l32.299 42.734c1.462 2.21 3.803 4.012 7.641 4.012 3.638 0 6.937-1.94 6.937-4.256v-81.56c0-6.588-6.937-8.363-11.114-8.363-4.047 0-11.115 1.192-11.115 8.364v44.944c0 1.636-.922 3.299-3.298 3.299-1.636 0-4.012-.2-5.1-1.767l-37.025-50.35c-1.636-2.584-4.351-4.725-8.773-4.725-4.517 0-7.441 2.01-7.441 4.96m364.925-4.725c-4.89 0-7.92 1.906-7.92 4.726v84.484c0 2.62 3.778 4.97 7.92 4.97h69.462c4.483 0 9.008-1.942 9.008-4.727 0-2.924-4.69-4.726-9.382-4.726h-54.666v-28.93c0-4.595 4.352-7.52 15.022-8.703l27.982-3.064c3.194-.234 6.762-1.192 6.762-3.298 0-2.107-3.768-3.055-7.137-3.055h-34.709c-5.1 0-7.92-2.585-7.92-5.884v-17.206c0-2.446-4.665-4.692-6.736-5.17h58.748c4.726 0 9.216-2.002 9.008-4.926-.166-2.82-4.483-4.491-9.008-4.491zM406.15 322.69v39.975c0 14.961 18.764 27.102 41.916 27.102 23.185 0 41.959-12.141 41.959-27.102v-14.578c0-3.203-2.01-6.119-7.311-6.119h-27.338c-3.672 0-6.562 1.897-6.936 4.247-.374 2.585 2.55 5.17 6.562 5.17h20.061c-2.376.096-7.31 2.576-7.31 6.832v4.448c0 9.765-4.552 17.65-19.687 17.65-15.127 0-20.227-7.885-20.227-17.65V322.69c0-9.791 10.574-17.685 25.701-17.685 16.423 0 26.998 7.076 26.998 17.685v2.341c0 1.732 2.002 3.299 4.726 3.299 2.75 0 4.76-1.567 4.76-3.299v-2.34c0-14.962-18.773-27.103-41.958-27.103-23.152 0-41.916 12.14-41.916 27.102m-155.88-27.102c-3.873 0-7.207 2.01-7.416 4.49-.165 2.69 3.168 4.927 7.416 4.927h20.366c3.124 0 5.16 1.297 5.16 3.542v77.069c0 1.67 2.011 4.151 5.545 4.151 3.673 0 5.918-1.94 6.292-4.256l11.828-72.717c.749-4.96 4.422-7.79 11.463-7.79h9.617c4.247 0 7.755-2.001 7.755-4.69 0-2.716-3.882-4.726-8.13-4.726zm-143.946 8.364v77.547c0 7.18 6.902 8.364 10.844 8.364 4.178 0 10.67-1.802 10.67-8.364v-77.547c0-6.589-6.492-8.364-10.67-8.364-3.942 0-10.844 1.192-10.844 8.364m-21.15-5.78-24.1 53.927c-.548 1.149-1.261 2.576-3.846 2.576-3.638 0-4.387-1.662-4.926-3.29l-20.845-50.593c-1.627-3.908-6.388-5.065-10.575-5.065-8.224 0-12.402 4.926-10.6 9.278l33.786 78.365c1.297 2.855 2.385 6.397 7.52 6.397 5.64 0 7.102-2.959 8.564-6.597l31.994-84.04c.749-2.01-.174-3.542-2.385-3.542-2.915 0-3.838 1.053-4.586 2.585m241.659 109.27c-5.275 4.492-7.894 10.645-7.894 18.496 0 7.51 2.35 13.594 7.04 18.26 4.692 4.656 11.02 6.997 18.87 6.997 7.754 0 14.003-2.376 18.834-7.102 4.865-4.726 7.241-10.505 7.241-17.372 0-7.38-2.48-13.534-7.441-18.53-4.935-4.96-10.88-7.45-17.781-7.45-7.38 0-13.639 2.211-18.87 6.702m8.974 31.106c-2.55-3.534-3.812-7.65-3.812-12.237 0-4.796 1.192-8.938 3.612-12.411 2.41-3.464 5.37-5.23 8.903-5.23 3.603 0 6.667 1.766 9.182 5.265s3.769 7.65 3.769 12.376c0 4.891-1.184 9.008-3.603 12.446-2.376 3.429-5.405 5.126-9.113 5.126-3.429 0-6.423-1.767-8.938-5.335m98.488-24.204c0 3.499.887 6.423 2.724 8.738 1.732 2.28 4.996 4.247 9.652 5.944 2.759.993 4.76 1.776 6.092 2.42a11.2 11.2 0 0 1 3.194 2.376c.81.957 1.184 1.976 1.184 3.064 0 5.23-4.517 7.885-13.664 7.885h-4.892c-2.384.2-3.577.922-3.577 2.036 0 1.332 1.567 2.316 4.7 3.064a39.6 39.6 0 0 0 9.243 1.088c6.632 0 11.767-1.192 15.466-3.673 3.708-2.41 5.544-6.014 5.544-10.74 0-2.42-.408-4.56-1.227-6.362a11.7 11.7 0 0 0-3.638-4.517c-1.627-1.192-4.143-2.35-7.546-3.508-3.429-1.122-5.779-1.967-7.102-2.576-1.297-.618-2.315-1.436-3.063-2.454-.714-1.018-1.053-2.21-1.053-3.603q.002-6.726 15.605-6.728c2.994 0 4.49-.549 4.49-1.567 0-1.357-1.566-2.445-4.62-3.264-3.134-.783-6.154-1.192-9.113-1.192-12.272 0-18.4 4.526-18.4 13.569M28.439 401.665c-2.35.54-4.83 1.593-7.52 3.229-2.646 1.636-4.76 3.499-6.388 5.579-1.601 2.071-2.82 4.351-3.568 6.867-.784 2.48-1.193 5.196-1.193 8.155 0 7.45 2.75 13.534 8.19 18.33 5.475 4.76 12.141 7.136 20.027 7.136 2.55 0 5.309-.2 8.233-.644 2.916-.409 4.726-.923 5.5-1.567.75-.609 1.123-1.566 1.123-2.89 0-1.122-.374-1.662-1.088-1.662l-7.371.166c-4.596 0-8.094-.505-10.54-1.497-2.48-1.018-4.56-2.341-6.223-4.012-1.697-1.628-3.029-3.43-3.978-5.475-.983-2.036-1.462-4.821-1.462-8.39 0-2.42.34-4.56 1.053-6.397.644-1.87 1.906-3.803 3.778-5.814 1.862-2.001 3.977-3.464 6.284-4.386 2.315-.844 4.995-1.288 8.129-1.288 1.218 0 3.09.14 5.64.444s3.907.435 4.116.435c.818 0 1.227-.47 1.227-1.427 0-1.837-1.462-3.23-4.386-4.247-2.89-.95-6.467-1.428-10.68-1.428-3.603 0-6.562.235-8.903.784m191.85.2c-.584.07-1.193.514-1.907 1.192-.713.714-1.357 1.567-1.975 2.55-.61.984-1.123 2.176-1.532 3.534l-2.446 8.669c-1.662 5.579-2.959 9.077-3.873 10.54-.478.748-.983 1.331-1.566 1.67-.54.41-1.158.575-1.802.575-.949 0-1.836-.444-2.62-1.323-.774-.922-1.801-3.333-3.09-7.206-1.288-3.882-2.62-8.364-4.012-13.464a12.6 12.6 0 0 0-2.445-4.9c-1.123-1.393-2.08-2.037-2.82-2.037h-22.82l5.578 7.276v34.1l-5.579 7.241h22.107l-5.579-7.241v-9.113c0-3.124.27-5.918.88-8.364.583-2.445 1.366-3.672 2.245-3.672.992 0 2.176 1.531 3.603 4.656 1.366 3.098 2.69 6.597 3.916 10.54 1.184 3.942 2.072 6.771 2.681 8.538.61 1.767 1.227 2.985 1.836 3.734.61.713 1.297 1.262 1.976 1.531.714.27 2.176.445 4.387.445 1.523 0 2.61-.174 3.29-.445.652-.27 1.296-.818 1.836-1.592.583-.818 1.088-1.837 1.497-3.134 3.847-11.758 6.293-18.903 7.346-21.349.513-1.227 1.018-2.141 1.531-2.75.54-.653 1.054-.923 1.532-.923 1.019 0 1.898 1.297 2.611 3.847.749 2.515 1.123 5.3 1.123 8.26v13.36c0 .948.444 1.836 1.358 2.584.888.749 2.385 1.088 4.386 1.088 1.367 0 2.315-.104 2.925-.374.617-.235 1.157-.679 1.67-1.323.505-.652.784-1.366.784-2.15v-40.044c0-1.192-.478-2.245-1.401-3.16-.88-.922-1.932-1.4-3.125-1.496-1.157-.035-3.16-.07-6.014-.07-3.812 0-5.988.07-6.493.2m-88.156.28c-.888.269-1.672.774-2.35 1.488-.714.722-1.219 1.531-1.628 2.489l-14.996 38.243c-.644 1.636-.949 2.654-.949 3.063 0 1.898 1.802 2.855 5.405 2.855 3.464 0 5.98-1.532 7.546-4.622 1.158-2.315 2.341-3.812 3.568-4.525a7.9 7.9 0 0 1 3.978-1.054h11.932c1.297 0 2.35.305 3.194.914.853.653 1.976 2.15 3.404 4.526 1.87 3.23 4.351 4.796 7.51 4.796 3.639 0 5.475-1.019 5.475-3.099 0-.374-.34-1.288-.949-2.854l-15.44-38.147a10.4 10.4 0 0 0-1.662-2.55 6.2 6.2 0 0 0-2.21-1.489c-.853-.348-2.655-.514-5.44-.514-3.368 0-5.51.14-6.388.48m1.862 29.269c-1.358-.949-2.071-2.072-2.071-3.403 0-2.141.644-4.891 1.94-8.295 1.289-3.403 2.681-5.1 4.143-5.1 1.463 0 2.96 1.802 4.456 5.37q2.246 5.408 2.246 8.06c0 1.262-.714 2.35-2.106 3.333-1.428.949-2.855 1.427-4.221 1.427-1.524 0-2.986-.479-4.387-1.392M555.5 401.936l5.545 7.207v37.468c0 2.446 1.967 3.673 5.944 3.673 1.976 0 3.438-.374 4.352-1.123.957-.783 1.436-2.315 1.436-4.587l-.14-4.256c0-1.932.305-3.463 1.019-4.69.679-1.184 1.801-2.037 3.298-2.481s3.604-.783 6.389-1.018c5.1-.444 9.043-1.976 11.906-4.692 2.785-2.654 4.212-6.292 4.212-10.81 0-4.664-1.662-8.267-4.926-10.818-3.333-2.576-7.754-3.873-13.333-3.873zm18.765 21.385c-.983-1.219-1.488-3.395-1.488-6.423 0-5.405 1.967-8.095 5.84-8.095 2.176 0 4.082.784 5.814 2.42 1.705 1.558 2.55 3.464 2.55 5.605 0 2.28-.775 4.247-2.307 5.883-1.566 1.628-3.438 2.48-5.71 2.48-2.114 0-3.672-.643-4.699-1.87m-45.345-21.385 5.57 7.311v37.26c0 2.55 1.976 3.777 5.85 3.777 4.011 0 5.987-1.297 5.987-3.847v-37.19l5.57-7.31zm-18.53 4.317v8.669c0 1.767-1.026 3.264-3.133 4.421-2.036 1.193-4.247 1.802-6.562 1.802a12.77 12.77 0 0 1-6.353-1.662c-1.941-1.123-2.89-2.585-2.89-4.422v-5.814l5.57-7.31H474.01l5.605 7.31v33.796l-5.605 7.24h13.7c1.122 0 2.045-.338 2.689-1.052.714-.714 1.053-1.636 1.053-2.794v-12.098c0-2.045.88-3.603 2.68-4.76 1.802-1.158 3.978-1.698 6.563-1.698 2.55 0 4.796.575 6.806 1.732 1.967 1.193 2.95 2.75 2.95 4.726v12.072c0 2.576 2.116 3.908 6.363 3.908 3.707 0 5.544-1.227 5.544-3.708v-40.323c0-2.89-2.141-4.352-6.432-4.352-3.699 0-5.535 1.463-5.535 4.317m-136.06-4.317 5.639 7.311v33.796l-5.57 7.24h22.133l-5.614-7.24v-9.182c0-5.231.235-8.364.748-9.383.514-1.053 1.123-1.566 1.872-1.566 1.218 0 2.75 1.427 4.69 4.351 1.942 2.925 5.17 8.504 9.688 16.694 1.227 2.21 2.41 3.916 3.507 5.065 1.114 1.192 2.237 1.871 3.36 2.08 1.122.2 2.48.27 4.012.27 4.221 0 6.736-.41 7.65-1.263.853-.844 1.288-2.14 1.288-3.768v-40.323c0-1.088-.339-1.976-1.018-2.62s-2.037-.948-4.073-.948c-2.315 0-3.847.304-4.63.879-.749.548-1.123 1.497-1.123 2.89v17.476c0 3.977-.844 5.988-2.48 5.988-.75 0-1.559-.374-2.481-1.158-.914-.783-2.785-3.742-5.71-8.938-2.89-5.17-5.03-9.052-6.362-11.602-1.323-2.576-2.55-4.212-3.733-4.926-1.158-.749-2.011-1.123-2.585-1.123zm-82.213 0 5.579 7.311v37.26c0 2.55 1.975 3.777 5.883 3.777 3.978 0 5.945-1.297 5.945-3.847v-37.19l5.613-7.31zm-48.583 0 5.544 7.207v37.468c0 2.446 2.01 3.673 5.953 3.673q2.951 0 4.387-1.123c.914-.783 1.393-2.315 1.393-4.587l-.14-4.256c0-1.932.34-3.463 1.019-4.69.678-1.184 1.775-2.037 3.298-2.481 1.497-.444 3.638-.783 6.397-1.018 5.066-.444 9.043-1.976 11.898-4.692 2.82-2.654 4.212-6.292 4.212-10.81 0-4.664-1.627-8.267-4.926-10.818-3.333-2.576-7.755-3.873-13.325-3.873zm18.808 21.385c-1.027-1.219-1.497-3.395-1.497-6.423 0-5.405 1.932-8.095 5.849-8.095 2.141 0 4.073.784 5.78 2.42 1.696 1.558 2.584 3.464 2.584 5.605 0 2.28-.783 4.247-2.35 5.883-1.532 1.628-3.438 2.481-5.675 2.481-2.114 0-3.672-.644-4.69-1.871m-168.36-17.068v8.669c0 1.767-1.053 3.264-3.098 4.421-2.106 1.193-4.282 1.802-6.588 1.802-2.316 0-4.422-.575-6.363-1.663-1.94-1.122-2.89-2.584-2.89-4.42v-5.815l5.58-7.31h-23.02l5.613 7.31v33.796l-5.614 7.24h13.7c1.087 0 2.01-.338 2.724-1.052.678-.714 1.018-1.636 1.018-2.794v-12.098c0-2.045.888-3.603 2.69-4.76 1.766-1.158 3.942-1.698 6.562-1.698 2.515 0 4.786.575 6.797 1.732 1.967 1.193 2.924 2.75 2.924 4.726v12.072c0 2.576 2.176 3.908 6.389 3.908 3.672 0 5.544-1.227 5.544-3.708v-40.323c0-2.89-2.141-4.352-6.458-4.352-3.673 0-5.51 1.463-5.51 4.317m377.172 54.91c-41.246 54.901-100.977 89.48-167.471 89.48-66.468 0-126.235-34.579-167.445-89.48H75.654c54.736 60.75 136.574 99.41 228.03 99.41 91.481 0 173.32-38.66 228.055-99.41z" style="fill:url(#b);stroke:#000;stroke-width:2"/></svg>