<svg xmlns="http://www.w3.org/2000/svg" width="528.709" height="516.26"><path d="M185.189 258.16c0 43.623 35.52 79.07 79.129 79.07 21.185 0 41.045-8.222 55.998-23.13 14.91-14.97 23.145-34.814 23.145-55.94 0-43.683-35.52-79.13-79.143-79.13-43.609 0-79.13 35.447-79.13 79.13M284 57.603v14.954l145.838 105.78 11.86-4.08c1.783 5.627 10.637 33.428 16.457 51.961-.751.338-15.146 6.615-15.146 6.615l-45.626 133.743s11.565 15.94 12.89 17.723a43559 43559 0 0 0-64.337 50.71c-.294-.457-10.534-13.76-10.534-13.76h-162.53s-3.33 5.303-5.863 9.148a41057 41057 0 0 1-60.772-50.297c2.814-4.316 13.642-20.773 13.642-20.773l-34.474-128.1s-15.602-5.981-15.94-6.1a28050 28050 0 0 0 13.524-48.867c3.565 1.046 11.285 3.285 11.285 3.285L236.355 71.232s.295-13.289.295-13.628zm-75.504-28.772c-.106 6.202-.633 27.903-.633 27.903L88.396 147.842s-20.655-6.055-25.325-7.426c-8.398 30.261-20.655 74.415-28.36 102.142 5.922 2.313 26.695 10.312 26.695 10.312l27.33 101.45s-13.923 21.185-20.774 31.483c24.235 20.021 76.433 63.306 105.721 87.526 2.534-3.904 14.969-23.307 14.969-23.307h132.534s14.497 18.828 19.683 25.62a230812 230812 0 0 1 108.933-85.817c-5.628-7.764-20.317-28.08-20.317-28.08l36.729-107.608s19.727-8.633 27.21-11.977c-8.735-27.683-23.468-73.958-33.147-104.675-4.774 1.664-25.606 8.736-25.606 8.736L312.788 57.884V28.832zM180.356 0h161.205v43.152l97.942 71.026 39.307-13.422 49.899 157.403-39.366 17.267-27.8 81.545 27.8 38.378L335.86 516.26l-28.832-37.45H204.356l-24 37.45L29.702 391.505l27.845-42.194-20.14-74.871L0 260.059l43.167-155.443 39.365 11.506 96.911-73.884Z"/></svg>