<svg xmlns="http://www.w3.org/2000/svg" width="326.664" height="294.19" viewBox="0 0 244.998 220.642"><path d="M105.554.02c2.62-.01 5.25-.02 7.88-.02.01 31.57.03 63.14-.01 94.71 5.84-.14 11.67-.11 17.51 0 .02-31.57 0-63.14.01-94.7q3.975-.015 7.95 0c3.01 32.21 5.99 64.42 9.01 96.63 18.77 3.26 35.84 12.76 50.4 24.78 12.06-3.53 24.11-7.13 36.17-10.65-3.65 12.7-7.29 25.41-10.94 38.11 14.19 21.02 21.67 46.38 21.46 71.72-38.02.08-76.03.02-114.05.03-.02-30.78.01-61.56-.01-92.34-5.83-.21-11.67-.21-17.5.06.01 30.76.01 61.52 0 92.29-37.81-.03-75.62.04-113.43-.04-.19-24.98 7.05-49.97 20.88-70.8-3.72-13.11-7.46-26.2-11.16-39.31 12.31 3.64 24.61 7.35 36.92 10.98 14.32-11.84 31.06-21.28 49.51-24.66 3.15-32.26 6.27-64.53 9.4-96.79m-44.79 147.86c11.03 9.04 22.12 18.02 33.18 27.04.82-14.92 1.66-29.83 2.47-44.75-12.47 4.5-25.31 9.15-35.65 17.71m86.72-18.08c.8 15.08 1.6 30.16 2.43 45.23 11.34-9.14 22.67-18.3 33.99-27.47-10.58-8.65-23.67-13.35-36.42-17.76m23.93 67.21c14.57 1.64 29.11 3.48 43.67 5.18-4.01-13.69-9.51-27.09-17.24-39.12-8.79 11.32-17.84 22.46-26.43 33.94m-141.42 4.84c14.21-1.63 28.41-3.26 42.61-4.94-8.63-11.07-17.26-22.14-25.92-33.18-7.43 11.77-12.73 24.81-16.69 38.12"/></svg>