<?xml version="1.0" encoding="UTF-8" standalone="no"?>
<svg
   version="1.1"
   width="548.41144"
   height="483.97763"
   id="svg1"
   xmlns="http://www.w3.org/2000/svg"
   xmlns:svg="http://www.w3.org/2000/svg">
  <defs
     id="defs1" />
  <path
     d="m 434.97085,357.39142 13.24626,15.14439 52.95792,-64.29249 -0.94907,-28.33642 z M 92.683144,193.8401 56.727075,187.22375 147.49853,361.20124 c 0,0 32.14624,18.89999 28.39065,-18.91354 z M 372.53581,122.93126 344.19939,94.5406 327.19754,363.11294 c 0,0 3.71492,35.90184 32.09201,28.37709 z M 104.01771,404.73629 0,211.84525 28.390654,136.16396 109.685,153.16581 191.03357,296.90875 198.55832,92.68314 295.05129,0 l 111.54246,104.01771 -11.3888,219.37 68.15655,-75.62706 66.14995,-5.72152 5.72152,70.01401 -51.11402,68.04809 18.91354,3.76915 c 0,0 45.37895,28.39066 45.37895,52.95793 0,24.6215 -26.42473,26.53319 -26.42473,26.53319 0,0 -71.91214,11.28034 -105.97008,1.85746 -34.00371,-9.43644 -81.29435,-5.66728 -136.16397,11.33457 -54.81538,17.05608 -88.81909,1.89813 -128.58498,-17.00185 -39.72522,-18.91355 -138.02142,-7.57898 -138.02142,-7.57898 0,0 -15.144394,-34.00371 86.96163,-34.00371 0,0 5.66728,-11.37524 3.80982,-13.2327"
     id="path1" />
</svg>
