<svg xmlns="http://www.w3.org/2000/svg" width="600" height="608"><path d="m42.886 597.06 4.456-14.211c11.322-36.102 17.062-74.49 17.062-114.088 0-65.194-16.558-129.406-46.622-180.794l-4.166-7.12L256.212 27.273v197.882l-6.38 2.926c-42.676 19.584-70.25 62.524-70.25 109.396 0 66.356 54.018 120.344 120.418 120.344 66.398 0 120.42-53.988 120.42-120.344 0-46.874-27.576-89.814-70.252-109.396l-6.378-2.926V27.273l242.596 253.574-4.166 7.12c-30.068 51.388-46.624 115.6-46.624 180.794 0 39.594 5.74 77.982 17.06 114.088l4.458 14.212z"/><path d="M332.842 0v232.168l12.758 5.854c38.802 17.806 63.872 56.844 63.872 99.454 0 60.324-49.108 109.402-109.472 109.402S190.528 397.8 190.528 337.476c0-42.61 25.072-81.648 63.872-99.454l12.758-5.854V0L229.44 39.426 11.408 267.324 0 279.248l8.332 14.24c29.098 49.74 45.126 111.986 45.126 175.272 0 38.492-5.574 75.778-16.562 110.816L27.982 608h544.032l-8.91-28.424c-10.99-35.042-16.56-72.328-16.56-110.816 0-63.286 16.024-125.532 45.126-175.272l8.33-14.24-11.408-11.924-218.03-227.898Zm21.894 54.546 218.032 227.9c-29.928 51.156-48.12 115.892-48.12 186.314 0 41.652 6.262 81.316 17.564 117.36H57.79c11.302-36.044 17.562-75.708 17.562-117.36 0-70.422-18.192-135.158-48.12-186.314l218.032-227.9v163.592c-45.214 20.748-76.63 66.362-76.63 119.338 0 72.508 58.814 131.284 131.366 131.284s131.368-58.776 131.368-131.284c0-52.976-31.418-98.592-76.632-119.338z" style="fill:gray"/></svg>