<svg xmlns="http://www.w3.org/2000/svg" xmlns:xlink="http://www.w3.org/1999/xlink" width="599.998" height="608"><linearGradient id="a" x1="0" x2="1" y1="0" y2="0" gradientTransform="matrix(286.38379 0 0 -286.38379 6.809 143.834)" gradientUnits="userSpaceOnUse" spreadMethod="pad"><stop offset="0" style="stop-color:#bf331c"/><stop offset=".3" style="stop-color:#d3641c"/><stop offset=".5" style="stop-color:#f6b91d"/><stop offset=".7" style="stop-color:#d3641c"/><stop offset="1" style="stop-color:#bf331c"/></linearGradient><linearGradient xlink:href="#a" id="b" x1="0" x2="1" y1="0" y2="0" gradientTransform="translate(13.618 320.332)scale(572.76758)" gradientUnits="userSpaceOnUse" spreadMethod="pad"/><path d="M332.84 0v232.168l12.76 5.854c38.8 17.806 63.872 56.844 63.872 99.454 0 60.324-49.108 109.402-109.472 109.402S190.528 397.8 190.528 337.476c0-42.61 25.072-81.648 63.87-99.454l12.76-5.854V0l-37.72 39.426-218.03 227.898L0 279.248l8.332 14.24c29.098 49.74 45.126 111.986 45.126 175.272 0 38.492-5.574 75.778-16.562 110.816L27.98 608h544.032l-8.91-28.424c-10.99-35.042-16.56-72.328-16.56-110.816 0-63.286 16.024-125.532 45.126-175.272l8.33-14.24-11.408-11.924L370.56 39.426Zm21.896 54.546 218.032 227.9c-29.928 51.156-48.12 115.892-48.12 186.314 0 41.652 6.26 81.316 17.564 117.36H57.79c11.3-36.044 17.56-75.708 17.56-117.36 0-70.422-18.19-135.158-48.12-186.314l218.034-227.9v163.592c-45.214 20.748-76.63 66.362-76.63 119.338 0 72.508 58.816 131.284 131.366 131.284s131.368-58.776 131.368-131.284c0-52.976-31.42-98.592-76.632-119.338z" style="fill:#fff;stroke-width:2"/><path d="M354.736 218.138c45.214 20.746 76.63 66.362 76.63 119.338 0 72.508-58.812 131.284-131.366 131.284-72.55 0-131.368-58.776-131.368-131.284 0-52.976 31.418-98.59 76.632-119.338V54.546L27.23 282.444C57.16 333.6 75.352 398.338 75.352 468.76c0 41.652-6.26 81.316-17.562 117.36h484.42c-11.3-36.044-17.562-75.708-17.562-117.36 0-70.422 18.192-135.16 48.12-186.316L354.736 54.546Z" style="fill:url(#b);stroke-width:2"/><path d="M431.368 337.476c0 72.508-58.814 131.284-131.368 131.284-72.55 0-131.366-58.776-131.366-131.284 0-52.976 31.418-98.59 76.63-119.338V54.546l-218.032 227.9C57.16 333.6 75.352 398.338 75.352 468.76c0 41.652-6.26 81.316-17.562 117.36h484.42c-11.3-36.044-17.56-75.708-17.56-117.36 0-70.42 18.19-135.16 48.118-186.316L354.738 54.546V218.14c45.212 20.746 76.63 66.362 76.63 119.34z" style="fill:none;stroke:#000;stroke-width:15;stroke-miterlimit:4"/></svg>