<svg xmlns="http://www.w3.org/2000/svg" id="Layer_2" width="494.606" height="608.564" viewBox="0 0 494.606 608.564"><defs><style>.cls-1{fill:#fe0000}</style></defs><g id="Layer_1_copy"><path d="m332.165 551.536-8.688 23.804c-47.992 19.34-104.83 19.34-152.82 0l-8.69-23.802c-7.016-1.509-19.762 4.995-25.885 2.37-1.15-.494-10.258-8.386-12.03-9.963-28.241-25.15-50.814-57.6-67.48-91.419l6.37-21.494c-.548-2.322-17.238-7.895-20.337-11.64-2.662-3.214-7.596-17.01-9.285-21.715-8.586-23.917-13.545-49.24-14.227-74.727l16.902-18.882-16.723-17.343c.79-29.99 7.414-65.704 20.94-92.65 5.233-10.422 14.263-9.461 22.73-16.246l-6.125-22.094c19.347-38.926 45.747-75.185 80.777-101.293l24.36 2.864 8.118-23.37c47.903-20.016 105.31-19.71 153.405-.415l10.26 23.768c6.75 1.095 18.383-4.88 24.314-2.335 1.151.493 10.259 8.385 12.03 9.962 28.244 25.152 50.846 57.57 67.484 91.421l-6.374 21.492c.55 2.322 17.239 7.895 20.338 11.639 2.661 3.215 7.596 17.011 9.285 21.715 8.586 23.918 13.545 49.24 14.227 74.728l-16.902 18.882c.408 2.305 14.917 13.361 16.41 16.656 1.553 3.428-.915 23.273-1.625 28.339-1.772 12.651-14.18 63.944-22.894 71.106-3.148 2.588-17.265 7.509-18.54 9.53l5.827 22.702c-16.738 33.594-39.126 65.786-67.236 90.819-1.771 1.577-10.879 9.469-12.03 9.962-6.12 2.625-18.87-3.876-25.886-2.371M315.813 47.68c-41.639-18.522-95.252-18.369-137.043-.31l-9.33 25.975-27.339-4.437c-23.348 24.107-49.672 50.746-65.206 80.85-1.303 2.525-5.756 11.031-5.756 13.172 0 3.8 10.31 20.381 8.86 22.42l-25.375 12.137c-7.295 17.047-13.339 35.352-16.267 53.734-1.353 8.5-4.576 32.145-.296 38.716 1.86 2.857 14.305 12.759 13.934 14.856-3.509 5.233-14.1 11.711-15.497 17.568-1.958 8.203.453 26.446 1.86 35.279 1.362 8.554 3.773 18.46 6.211 26.788 1.593 5.44 6.912 22.495 9.61 26.39 2.892 4.173 20.724 9.575 25.82 12.692 1.451 2.035-8.86 18.624-8.86 22.42 0 2.141 4.453 10.648 5.756 13.173 11.187 21.68 31.79 46.626 48.658 64.341 2.987 3.138 13.291 14.488 15.968 16.052 1.18.69 1.403.897 2.895.894 4.703-.007 22.16-5.711 25.024-4.874l8.88 25.665c41.676 18.478 95.814 18.475 137.495.002l8.879-25.667c2.864-.837 20.321 4.867 25.024 4.874 1.491.003 1.716-.205 2.895-.894 2.677-1.564 12.98-12.914 15.968-16.052 21.636-22.724 42.012-48.535 54.415-77.515l-8.86-22.419c5.095-3.117 22.927-8.519 25.818-12.692 2.699-3.895 8.018-20.95 9.61-26.39 2.44-8.329 4.85-18.234 6.212-26.788 1.354-8.5 4.577-32.145.297-38.716-1.86-2.857-14.305-12.759-13.934-14.856 4.82-6.643 14.95-11.557 15.927-20.138 1.884-16.536-3.931-44.06-8.735-60.264-1.77-5.973-6.13-20.14-9.041-24.959-2.952-4.884-20.59-10.055-26.155-13.356l8.758-23.175c-15.774-36.116-43.465-65.676-70.86-93.268l-28 4.11z" class="cls-1"/><path d="M455.217 169.286c7.284 2.77 10.13 3.822 13.706 10.789 8.483 16.528 15.937 39.945 19.833 58.166 3.121 14.597 7.282 40.355 5.363 54.742-.609 4.569-6.918 7.465-8.872 11.958.007 1.12 6.914 6.262 7.874 7.935 3.361 5.859-.887 39.23-2.345 47.764-3.219 18.84-9.691 40.202-17.241 57.758-1.51 3.51-5.348 13.329-7.443 15.557-2.102 2.236-11.554 5.335-11.795 6.938 2.567 7.277 4.827 9.64 1.94 17.213-13.28 34.847-48.648 79.897-77.155 103.84-2.983 2.504-14.432 12.133-17.084 13.001-3.35 1.097-14.436-2.935-15.99-2.044-4.286 6.51-2.446 13.864-9.888 18.08-41.398 23.45-136.734 23.432-178.106 0-7.439-4.213-5.607-11.578-9.888-18.08-1.552-.891-12.64 3.14-15.99 2.044-3.716-1.216-21.122-16.37-25.083-20.003-18.797-17.233-36.953-39.916-50.402-61.598-4.1-6.612-20.278-34.55-20.53-40.503-.165-3.9 3.692-8.437 3.012-12.75-.216-.92-7.808-3.6-9.416-4.812-4.183-3.152-11.205-21.702-13.397-27.603C5.31 378.028-1.081 345.912.272 314.135l8.552-9.19-8.735-11.037c-.91-31.366 5.202-62.661 15.96-91.995 2.017-5.498 8.455-22.7 11.556-26.445 2.503-3.023 7.855-4.498 11.312-6.182 1.204-4.859-3.214-9.302-2.669-14.088.448-3.924 10.102-21.807 12.647-26.44 14.681-26.734 36.551-55.368 59.158-75.841 3.745-3.392 20.656-17.881 24.083-19.003 3.35-1.097 14.436 2.935 15.99 2.044 3.512-4.71 3.053-12.708 7.426-16.542 2.168-1.9 9.177-4.527 12.249-5.752 45.551-18.16 113.007-18.276 158.535-.002 3.082 1.237 10.071 3.847 12.246 5.754 4.373 3.834 3.914 11.832 7.426 16.542 1.554.891 12.64-3.141 15.99-2.044 3.427 1.122 20.338 15.611 24.083 19.003 22.765 20.617 44.796 49.51 59.507 76.492 2.491 4.569 11.856 21.92 12.298 25.789.545 4.786-3.873 9.23-2.669 14.088m-123.052 382.25c7.015-1.505 19.766 4.996 25.886 2.371 1.151-.493 10.259-8.385 12.03-9.962 28.11-25.033 50.498-57.225 67.236-90.819l-5.826-22.703c1.274-2.02 15.39-6.941 18.54-9.53 8.712-7.16 21.12-58.454 22.893-71.105.71-5.066 3.178-24.91 1.625-28.339-1.493-3.295-16.002-14.351-16.41-16.656l16.902-18.882c-.682-25.487-5.64-50.81-14.227-74.728-1.689-4.704-6.624-18.5-9.285-21.715-3.099-3.744-19.789-9.317-20.338-11.64l6.374-21.49c-16.638-33.852-39.24-66.27-67.484-91.422-1.771-1.577-10.879-9.469-12.03-9.962-5.931-2.544-17.564 3.43-24.313 2.335l-10.261-23.768c-48.095-19.294-105.502-19.6-153.405.414l-8.119 23.37-24.359-2.863c-35.03 26.108-61.43 62.367-80.777 101.293l6.125 22.094c-8.467 6.785-17.497 5.823-22.73 16.247-13.526 26.945-20.15 62.659-20.94 92.65l16.723 17.342-16.902 18.882c.682 25.487 5.64 50.81 14.227 74.727 1.689 4.705 6.623 18.501 9.285 21.716 3.099 3.744 19.789 9.317 20.337 11.64l-6.37 21.493c16.666 33.819 39.239 66.268 67.48 91.419 1.772 1.577 10.88 9.469 12.03 9.962 6.123 2.626 18.87-3.878 25.885-2.369l8.69 23.802c47.99 19.34 104.828 19.34 152.82 0zM315.813 47.68l8.22 25.337 28-4.109c27.395 27.592 55.086 57.152 70.86 93.268l-8.758 23.175c5.564 3.301 23.203 8.472 26.155 13.357 2.911 4.817 7.27 18.985 9.041 24.958 4.804 16.205 10.619 43.728 8.735 60.264-.978 8.58-11.107 13.495-15.927 20.138-.371 2.097 12.073 12 13.934 14.856 4.28 6.57 1.057 30.217-.297 38.716-1.362 8.554-3.773 18.46-6.211 26.788-1.593 5.44-6.912 22.495-9.61 26.39-2.892 4.173-20.724 9.575-25.82 12.692l8.86 22.42c-12.402 28.979-32.778 54.79-54.414 77.514-2.987 3.138-13.291 14.488-15.968 16.052-1.18.69-1.404.897-2.895.894-4.703-.007-22.16-5.71-25.024-4.874l-8.88 25.667c-41.68 18.473-95.818 18.476-137.493-.002l-8.88-25.665c-2.865-.837-20.322 4.867-25.025 4.874-1.492.003-1.716-.205-2.895-.894-2.677-1.564-12.98-12.914-15.968-16.052-16.868-17.715-37.471-42.662-48.658-64.341-1.303-2.525-5.756-11.032-5.756-13.173 0-3.796 10.311-20.384 8.86-22.42-5.096-3.117-22.928-8.519-25.82-12.692-2.698-3.895-8.017-20.95-9.61-26.39-2.438-8.329-4.85-18.234-6.212-26.788-1.406-8.833-3.817-27.076-1.86-35.279 1.399-5.857 11.99-12.335 15.498-17.568.371-2.097-12.073-12-13.934-14.856-4.28-6.57-1.057-30.217.296-38.716 2.928-18.382 8.972-36.687 16.267-53.734l25.375-12.136c1.45-2.04-8.86-18.622-8.86-22.42 0-2.141 4.453-10.648 5.756-13.173 15.534-30.104 41.858-56.743 65.207-80.85l27.338 4.437 9.33-25.974c41.791-18.06 95.404-18.213 137.043.309m-84.95.047c-8.882.649-33.022 4.415-40.087 8.913-3.856 2.455-6.824 19.025-8.522 24.06l19.3 35.744 90.525.499 19.82-36.225-7.343-23.277c-22.504-9.692-49.366-11.491-73.693-9.714m-87.997 143.498 46.85-68.288-19.662-35.994-22.537-4.101c-23.998 23.768-46.837 49.666-62.079 80.088l8.638 18.992zm208.402 0 48.79-9.303 8.638-18.992c-15.316-30.393-38.077-56.311-62.079-80.088l-22.56 4.08-19.64 36.015zm-25.311 47.09 14.688-38.914-48.242-68.807-91.342.33-47.75 69.143 15.367 38.427zM65.337 206.7c-5.565 13.028-10.16 26.717-12.806 40.693-1.208 6.379-5.064 30.349-2.946 35.018.936 2.063 14.662 14.55 17.004 14.997l45.487-.47 43.853-52.229-14.94-38.702-1.634-1.365-47.801-9.297zm363.46 0-26.217-11.355-47.8 9.297-1.636 1.365-14.934 38.7 43.848 52.232 46.304.286c1.052-.313 15.734-13.815 16.187-14.814 2.054-4.523-1.767-28.754-2.945-35.018-2.629-13.977-7.256-27.664-12.807-40.693M326.86 251.647l-159.087-.235-42.16 50.079-1.339 3.284 43.499 52.674H326.36l42.15-50.067 1.538-3.478zM65.337 402.16l26.217 11.355 47.8-9.297 1.636-1.365 14.936-38.7-43.85-52.232-46.304-.286c-1.052.313-15.734 13.815-16.187 14.814-2.048 4.51 1.761 28.771 2.945 35.018 2.645 13.954 7.337 27.663 12.807 40.693m379.513-75.523-16.488-15.002-46.867.723-43.288 51.795 15.332 39.306 49.041 10.056 26.217-11.355c10.235-23.667 16.299-49.64 16.053-75.523m-118.893 43.909-157.28-.18-15.366 38.428 47.75 69.143 91.342.33 48.242-68.807zm-183.091 47.09-48.79 9.303c-2.351 7.093-9.838 15.576-6.904 22.894 7.282 18.16 35.238 51.04 49.381 65.611 1.979 2.04 9.987 10.721 11.786 10.752l22.223-4.77 19.155-35.503zm208.402 0-46.85 68.288 19.131 35.524 22.246 4.748c1.801-.03 8.893-7.804 10.786-9.752 20.28-20.863 38.764-44.626 52.115-70.513l-8.638-18.992zm-58.36 74.958h-91.682l-18.99 35.549 6.92 22.698c24.139 11.308 55.982 12.7 82.283 9.461 6.133-.755 28.425-5.098 32.575-8.425 1.61-1.29 8.193-21.828 7.885-23.734z"/><path d="m326.86 251.647 43.19 52.257-1.54 3.478-42.149 50.067H167.773l-43.499-52.674 1.34-3.284 42.159-50.079zm-158.182 118.72-15.367 38.427 47.75 69.143 91.342.33 48.242-68.807-14.688-38.914zM340.645 199.4l-48.242-68.807-91.342.33-47.75 69.143 15.367 38.427 157.279-.18zM52.53 247.394c-1.208 6.379-5.064 30.349-2.946 35.018.936 2.063 14.662 14.55 17.004 14.997l45.487-.47 43.853-52.229-14.94-38.702-1.634-1.365-47.801-9.297-26.217 11.355c-5.565 13.028-10.16 26.717-12.806 40.693m39.023 166.12 47.8-9.296 1.636-1.365 14.936-38.7-43.85-52.232-46.304-.286c-1.052.313-15.734 13.815-16.187 14.814-2.048 4.51 1.761 28.771 2.945 35.018 2.645 13.954 7.337 27.663 12.807 40.693zM402.58 195.347l-47.8 9.297-1.636 1.365-14.934 38.7 43.848 52.232 46.304.286c1.052-.313 15.734-13.815 16.187-14.814 2.054-4.523-1.767-28.754-2.945-35.018-2.629-13.977-7.256-27.664-12.807-40.693zm25.782 116.29-46.867.722-43.288 51.795 15.332 39.306 49.041 10.056 26.217-11.355c10.235-23.667 16.299-49.64 16.053-75.523zM190.776 56.64c-3.856 2.455-6.824 19.025-8.522 24.06l19.3 35.744 90.525.499 19.82-36.225-7.343-23.277c-22.504-9.692-49.366-11.491-73.693-9.714-8.882.649-33.022 4.415-40.087 8.913m10.45 435.954-18.99 35.549 6.92 22.698c24.139 11.308 55.982 12.7 82.283 9.461 6.133-.755 28.425-5.098 32.575-8.425 1.61-1.29 8.193-21.828 7.885-23.734l-18.991-35.549zm103.192-6.67 19.131 35.524 22.246 4.748c1.801-.03 8.893-7.804 10.786-9.752 20.28-20.863 38.764-44.626 52.115-70.513l-8.638-18.992-48.79-9.303zM94.076 426.939c-2.351 7.093-9.838 15.576-6.904 22.894 7.282 18.16 35.238 51.04 49.381 65.611 1.979 2.039 9.987 10.721 11.786 10.752l22.223-4.77 19.155-35.503-46.851-68.287zm95.64-304.002-19.662-35.994-22.537-4.101c-23.998 23.768-46.837 49.666-62.079 80.088l8.638 18.992 48.79 9.303zm210.342 58.985 8.638-18.992c-15.316-30.393-38.077-56.311-62.079-80.088l-22.56 4.08-19.64 36.015 46.851 68.288z" class="cls-1"/></g></svg>