<svg xmlns="http://www.w3.org/2000/svg" width="494.606" height="608.564" viewBox="0 0 494.606 608.564"><path d="M455.217 169.286c7.284 2.77 10.13 3.822 13.706 10.789 8.483 16.528 15.937 39.945 19.833 58.166 3.121 14.597 7.282 40.355 5.363 54.742-.609 4.569-6.918 7.465-8.872 11.958.007 1.12 6.914 6.262 7.874 7.935 3.362 5.858-.887 39.23-2.345 47.764-3.219 18.84-9.69 40.202-17.24 57.758-1.51 3.51-5.349 13.329-7.444 15.557-2.102 2.236-11.554 5.335-11.795 6.938 2.567 7.276 4.827 9.64 1.94 17.213-13.28 34.847-48.648 79.897-77.155 103.839-2.983 2.505-14.432 12.134-17.084 13.002-3.35 1.097-14.436-2.935-15.99-2.044-4.286 6.51-2.446 13.864-9.888 18.08-41.398 23.45-136.734 23.432-178.106 0-7.439-4.213-5.607-11.578-9.888-18.08-1.552-.891-12.64 3.14-15.99 2.044-3.716-1.216-21.122-16.37-25.083-20.003-18.797-17.233-36.953-39.916-50.402-61.598-4.1-6.612-20.278-34.55-20.53-40.503-.165-3.9 3.692-8.437 3.012-12.75-.216-.92-7.808-3.6-9.416-4.812-4.183-3.152-11.205-21.702-13.397-27.603-11.01-29.65-17.4-61.766-16.048-93.543l8.552-9.19L.09 293.908c-.91-31.367 5.202-62.661 15.96-91.995 2.017-5.498 8.455-22.701 11.556-26.445 2.503-3.023 7.855-4.498 11.312-6.182 1.204-4.86-3.214-9.302-2.669-14.088.448-3.924 10.102-21.807 12.647-26.44 14.681-26.734 36.551-55.368 59.158-75.841 3.745-3.392 20.656-17.881 24.083-19.003 3.35-1.097 14.436 2.935 15.99 2.044 3.512-4.71 3.053-12.708 7.426-16.542 2.168-1.9 9.177-4.527 12.25-5.752 45.55-18.16 113.006-18.276 158.534-.002 3.082 1.237 10.071 3.847 12.246 5.754 4.373 3.834 3.914 11.832 7.426 16.542 1.554.89 12.64-3.141 15.99-2.044 3.427 1.122 20.338 15.61 24.083 19.003 22.765 20.617 44.796 49.51 59.507 76.492 2.492 4.569 11.856 21.92 12.298 25.789.545 4.786-3.873 9.23-2.669 14.088m-123.052 382.25c7.015-1.505 19.766 4.996 25.886 2.37 1.151-.493 10.26-8.384 12.03-9.961 28.11-25.033 50.498-57.225 67.236-90.82l-5.826-22.702c1.274-2.02 15.39-6.941 18.54-9.53 8.712-7.16 21.12-58.454 22.893-71.105.71-5.066 3.178-24.91 1.625-28.34-1.493-3.294-16.002-14.35-16.41-16.655l16.902-18.882c-.682-25.487-5.64-50.81-14.227-74.728-1.689-4.704-6.624-18.5-9.285-21.715-3.099-3.744-19.789-9.317-20.338-11.64l6.374-21.49c-16.638-33.852-39.24-66.27-67.484-91.422-1.77-1.577-10.879-9.47-12.03-9.962-5.93-2.544-17.564 3.43-24.313 2.335l-10.26-23.768c-48.096-19.294-105.503-19.6-153.406.414l-8.119 23.37-24.359-2.863c-35.03 26.108-61.43 62.367-80.777 101.293l6.125 22.094c-8.467 6.785-17.497 5.824-22.73 16.247-13.526 26.945-20.15 62.659-20.94 92.65l16.723 17.342-16.902 18.882c.682 25.487 5.64 50.81 14.227 74.727 1.69 4.705 6.623 18.5 9.285 21.716 3.1 3.744 19.79 9.317 20.337 11.639l-6.37 21.494c16.666 33.819 39.24 66.268 67.48 91.419 1.772 1.577 10.88 9.469 12.03 9.962 6.123 2.626 18.87-3.878 25.885-2.37l8.69 23.803c47.99 19.34 104.828 19.34 152.82 0zM315.813 47.68l8.22 25.337 28-4.11c27.395 27.593 55.086 57.153 70.86 93.269l-8.758 23.175c5.564 3.3 23.203 8.47 26.155 13.356 2.911 4.818 7.27 18.986 9.041 24.96 4.804 16.204 10.62 43.727 8.735 60.262-.978 8.582-11.107 13.496-15.927 20.139-.37 2.097 12.073 12 13.934 14.856 4.28 6.57 1.057 30.217-.296 38.716-1.363 8.554-3.774 18.46-6.212 26.788-1.593 5.44-6.912 22.495-9.61 26.39-2.892 4.173-20.724 9.575-25.82 12.692l8.861 22.419c-12.403 28.98-32.779 54.79-54.415 77.515-2.987 3.138-13.29 14.488-15.968 16.052-1.18.69-1.404.897-2.895.894-4.703-.007-22.16-5.711-25.024-4.875l-8.88 25.668c-41.68 18.473-95.818 18.476-137.493-.002l-8.88-25.665c-2.865-.837-20.322 4.867-25.025 4.874-1.492.003-1.716-.205-2.895-.894-2.677-1.564-12.98-12.914-15.968-16.052-16.868-17.715-37.47-42.662-48.658-64.341-1.303-2.525-5.756-11.032-5.756-13.173 0-3.796 10.311-20.385 8.86-22.42-5.096-3.117-22.928-8.52-25.82-12.692-2.698-3.895-8.017-20.95-9.61-26.39-2.438-8.33-4.85-18.234-6.212-26.788-1.406-8.833-3.817-27.076-1.86-35.28 1.4-5.856 11.99-12.334 15.498-17.567.371-2.097-12.073-12-13.934-14.856-4.28-6.57-1.057-30.217.296-38.716 2.928-18.382 8.972-36.687 16.267-53.734L80 185.35c1.45-2.04-8.86-18.622-8.86-22.42 0-2.142 4.453-10.648 5.756-13.173 15.534-30.104 41.858-56.743 65.207-80.85l27.338 4.437 9.33-25.974c41.791-18.06 95.404-18.213 137.043.309m-84.95.047c-8.882.649-33.022 4.414-40.087 8.913-3.856 2.455-6.824 19.025-8.522 24.06l19.3 35.744 90.525.499 19.82-36.225-7.343-23.277c-22.504-9.692-49.366-11.491-73.693-9.714m-87.997 143.498 46.85-68.288-19.662-35.994-22.537-4.101c-23.998 23.768-46.837 49.666-62.079 80.088l8.638 18.992zm208.402 0 48.79-9.303 8.638-18.992c-15.316-30.393-38.077-56.311-62.079-80.088l-22.56 4.08-19.64 36.015zm-25.31 47.09 14.687-38.914-48.242-68.807-91.342.33-47.75 69.143 15.367 38.427zM65.337 206.7c-5.566 13.028-10.16 26.717-12.807 40.693-1.208 6.379-5.064 30.349-2.946 35.018.936 2.063 14.662 14.55 17.004 14.997l45.487-.47 43.853-52.23-14.94-38.701-1.634-1.365-47.8-9.297zm363.46 0-26.218-11.355-47.8 9.297-1.636 1.365-14.934 38.7 43.848 52.232 46.304.286c1.052-.313 15.734-13.815 16.187-14.814 2.054-4.523-1.767-28.754-2.945-35.018-2.629-13.977-7.256-27.664-12.807-40.693M326.86 251.647l-159.087-.235-42.16 50.079-1.339 3.284 43.5 52.674H326.36l42.15-50.067 1.538-3.478zM65.337 402.16l26.217 11.355 47.8-9.297 1.636-1.365 14.936-38.7-43.85-52.232-46.304-.286c-1.052.313-15.734 13.815-16.187 14.814-2.048 4.51 1.761 28.77 2.945 35.018 2.645 13.954 7.337 27.663 12.807 40.693m379.513-75.523-16.488-15.002-46.867.723-43.288 51.795 15.332 39.306 49.041 10.056 26.217-11.355c10.234-23.667 16.3-49.64 16.053-75.523m-118.893 43.909-157.28-.18-15.366 38.428 47.75 69.143 91.342.33 48.242-68.807zm-183.09 47.09-48.79 9.303c-2.352 7.093-9.839 15.576-6.905 22.894 7.282 18.16 35.238 51.04 49.381 65.61 1.98 2.04 9.987 10.722 11.786 10.753l22.223-4.77 19.155-35.503zm208.401 0-46.85 68.288 19.131 35.524 22.246 4.748c1.801-.03 8.893-7.804 10.786-9.752 20.28-20.863 38.764-44.626 52.115-70.513l-8.638-18.992zm-58.36 74.958h-91.682l-18.99 35.549 6.92 22.698c24.14 11.308 55.982 12.7 82.283 9.46 6.133-.754 28.425-5.097 32.575-8.424 1.61-1.29 8.193-21.83 7.885-23.734z"/></svg>