<?xml version="1.0" encoding="UTF-8" standalone="no"?>
<svg
   version="1.1"
   id="Layer_1"
   x="0px"
   y="0px"
   width="253.70621"
   height="300"
   xmlns="http://www.w3.org/2000/svg"
   xmlns:svg="http://www.w3.org/2000/svg">
  <defs
     id="defs6" />
  <g
     id="g6"
     transform="translate(-0.14732921)">
    <path
       d="m 253.822,64.546 c -0.371,-5.081 -2.725,-9.814 -6.593,-13.167 -3.445,-2.959 -7.949,-4.621 -12.569,-4.626 -4.214,-0.016 -8.301,1.349 -11.687,3.701 l -4.074,3.758 -16.387,18.506 -20.233,-10.935 C 174.533,57.649 162.687,51.494 148.098,45.703 145.652,42.45 140.345,31.923 136,21.87 L 126.705,0 117.651,21.949 C 113.389,31.94 108.223,42.443 105.697,45.696 91.16,51.474 79.259,57.608 71.618,61.704 L 51.516,72.736 31.091,50.43 c -3.46,-2.373 -7.554,-3.699 -11.699,-3.669 -4.678,0.007 -9.188,1.62 -12.636,4.628 -3.85,3.367 -6.24,8.058 -6.57,13.145 -0.337,5.383 1.54,10.724 5.185,14.819 0,0 9.532,10.601 15.722,17.519 l -9.906,10.813 8.066,29.163 c 6.172,21.075 10.848,35.982 13.883,44.569 3.119,8.399 7.688,17.068 13.986,26.249 -2.109,1.309 -9.094,5.463 -9.094,5.463 l 0.912,6.508 c 0.564,4.519 2.087,17.468 1.538,23.647 -1.042,12.99 -8.477,24.886 -8.514,25.008 L 12.207,299.85 45.041,282.421 c 1.018,-0.529 18.118,-9.686 41.166,-26.557 17.817,19.783 33.023,34.705 33.548,35.372 l 6.986,6.78 7.057,-6.742 c 0.648,-0.639 16.083,-15.584 34.047,-35.42 23.035,16.876 40.09,26.031 41.117,26.552 L 242.183,300 222.029,268.287 c -0.02,-0.112 -7.385,-12.031 -8.454,-25.057 -0.507,-5.525 0.679,-17.374 1.51,-23.601 l 0.905,-6.477 -5.628,-3.392 c -0.056,0.01 -1.303,-0.764 -3.332,-1.985 5.863,-8.87 10.308,-17.49 13.539,-26.365 2.89,-7.821 15.881,-51.224 15.881,-51.224 l 6.378,-22.529 -9.854,-10.776 c 6.089,-6.923 15.676,-17.56 15.676,-17.56 3.662,-4.099 5.469,-9.447 5.172,-14.775 z"
       id="path1" />
    <path
       fill="#8b723c"
       d="m 95.608,249.115 c 9.14,-7.066 18.99,-15.119 29.04,-24.365 l 2.377,-2.252 2.504,2.277 0.001,-0.001 c 9.975,9.224 19.789,17.281 28.97,24.331 -14.826,16.269 -27.914,29.222 -31.652,32.883 -3.691,-3.678 -16.568,-16.634 -31.24,-32.873 z M 30.66,134.646 c 5.006,17.305 9.996,33.609 13.274,42.83 2.674,7.083 6.659,14.895 12.718,23.871 7.807,-5.18 18.354,-12.473 29.435,-21.003 C 69.957,162.495 45.538,133.166 40.519,127.12 Z m 179.166,42.777 c 3.333,-9.178 8.358,-25.596 13.383,-42.899 l -9.646,-7.412 c -5.039,6.049 -29.537,35.38 -45.625,53.225 11.142,8.551 21.727,15.912 29.547,21.011 5.901,-8.889 9.747,-16.813 12.341,-23.925 z m -82.814,-33.469 c 12.553,-12.477 41.586,-42.049 47.716,-48.296 L 156.823,80.987 174.481,70.635 c -8.929,-4.721 -19.551,-9.937 -32.05,-14.882 -2.005,-0.903 -3.459,-3.039 -5.322,-5.887 -3.804,-6.05 -8.091,-15.364 -10.256,-20.249 -1.142,2.601 -8.382,17.413 -10.149,20.252 -1.843,2.844 -3.263,4.973 -5.26,5.874 -12.455,4.915 -23.079,10.14 -31.996,14.813 L 97.234,80.972 79.248,95.691 c 6.148,6.248 35.237,35.79 47.764,48.263 z"
       id="path2" />
    <path
       style="fill:url(#SVGID_3_)"
       id="SVGID_1_"
       d="m 133.425,214.383 3.062,2.803 c 39.481,36.484 77.208,56.44 77.208,56.44 0,0 -8.74,-13.775 -10.066,-29.568 -0.762,-8.641 1.596,-25.78 1.596,-25.78 0,0 -21.737,-12.84 -45.355,-31.309 -8.593,9.299 -17.587,18.664 -26.445,27.414 m 93.345,-154.12 -0.019,0.186 -22.063,24.82 -18.121,-9.902 -11.976,7.015 15.181,12.473 c 0,0 -57.591,58.753 -70.745,71.021 -30.687,28.972 -70.241,52.44 -70.241,52.44 0,0 2.427,17.056 1.673,25.732 -1.347,15.851 -10.103,29.564 -10.103,29.564 0,0 37.776,-19.941 77.25,-56.375 31.864,-29.245 67.308,-71.344 83.004,-90.485 l 11.326,-13.702 15.602,11.932 4.193,-14.713 -12.174,-13.35 c 9.512,-10.75 21.588,-24.157 21.637,-24.165 3.757,-4.238 3.557,-10.344 -0.43,-13.783 -1.788,-1.505 -3.905,-2.24 -6.14,-2.26 l -1.606,0.116 c -2.33,0.411 -4.528,1.56 -6.248,3.436 M 13.266,58.971 c -4.011,3.456 -4.223,9.57 -0.503,13.765 0.113,-0.02 12.269,13.515 21.7,24.188 l -12.21,13.38 4.231,14.701 15.55,-11.995 11.428,13.727 c 8.996,10.919 24.276,29.218 41.694,48.38 6.095,-4.88 22.869,-20.176 25.698,-23.009 C 108.062,139.563 64.271,94.88 64.271,94.88 L 64.221,94.889 79.508,82.426 67.44,75.38 49.246,85.26 27.312,60.403 27.263,60.412 27.243,60.298 C 25.132,57.987 22.166,56.754 19.359,56.72 l -1.619,0.105 c -1.59,0.281 -3.151,1.021 -4.474,2.146" />
    <linearGradient
       id="SVGID_3_"
       gradientUnits="userSpaceOnUse"
       x1="-557.32751"
       y1="509.17249"
       x2="-539.82501"
       y2="509.17249"
       gradientTransform="matrix(11.6547,12.0684,-12.0684,11.6547,12669.047,835.9197)">
      <stop
         style="stop-color:#8b723c"
         offset="0"
         id="stop2" />
      <stop
         style="stop-color:#d2bb7b"
         offset="0.3"
         id="stop3" />
      <stop
         style="stop-color:#ebd491"
         offset="0.5"
         id="stop4" />
      <stop
         style="stop-color:#d2bb7b"
         offset="0.7"
         id="stop5" />
      <stop
         style="stop-color:#8b723c"
         offset="1"
         id="stop6" />
    </linearGradient>
  </g>
</svg>
