<?xml version="1.0" encoding="UTF-8" standalone="no"?>
<svg
   version="1.1"
   id="Layer_1"
   x="0px"
   y="0px"
   width="233.77863"
   height="252.371"
   xmlns="http://www.w3.org/2000/svg"
   xmlns:svg="http://www.w3.org/2000/svg">
  <defs
     id="defs2" />
  <path
     d="m 85.498823,219.498 c 9.14,-7.066 18.989997,-15.119 29.039997,-24.365 l 2.377,-2.252 2.504,2.277 0.001,-10e-4 c 9.975,9.224 19.789,17.281 28.97,24.331 -14.826,16.269 -27.914,29.222 -31.652,32.883 -3.691,-3.678 -16.568,-16.634 -31.239997,-32.873 z m -64.948,-114.469 c 5.006,17.305 9.996,33.609 13.274,42.83 2.674,7.083 6.659,14.895 12.718,23.871 7.807,-5.18 18.354,-12.473 29.435,-21.003 -16.13,-17.849 -40.549,-47.178 -45.568,-53.224 z m 179.165997,42.777 c 3.333,-9.178 8.358,-25.596 13.383,-42.899 l -9.646,-7.412 c -5.039,6.049 -29.537,35.38 -45.625,53.225 11.142,8.551 21.727,15.912 29.547,21.011 5.901,-8.889 9.747,-16.813 12.341,-23.925 z m -82.814,-33.469 c 12.553,-12.477 41.586,-42.049 47.716,-48.296 l -17.905,-14.671 17.658,-10.352 c -8.929,-4.721 -19.551,-9.937 -32.05,-14.882 -2.005,-0.903 -3.459,-3.039 -5.322,-5.887 -3.804,-6.05 -8.091,-15.364 -10.256,-20.249 -1.142,2.601 -8.382,17.413 -10.149,20.252 -1.843,2.844 -3.263,4.973 -5.26,5.874 -12.454997,4.915 -23.078997,10.14 -31.995997,14.813 l 17.786,10.416 -17.986,14.719 c 6.148,6.248 35.236997,35.79 47.763997,48.263 z"
     id="path1" />
  <path
     d="m 123.31582,184.766 3.062,2.803 c 39.481,36.484 77.208,56.44 77.208,56.44 0,0 -8.74,-13.775 -10.066,-29.568 -0.762,-8.641 1.596,-25.78 1.596,-25.78 0,0 -21.737,-12.84 -45.355,-31.309 -8.593,9.299 -17.587,18.664 -26.445,27.414 m 93.345,-154.12 -0.019,0.186 -22.063,24.82 -18.121,-9.902 -11.976,7.015 15.181,12.473 c 0,0 -57.591,58.753 -70.745,71.021 -30.686997,28.972 -70.240997,52.44 -70.240997,52.44 0,0 2.427,17.056 1.673,25.732 -1.347,15.851 -10.103,29.564 -10.103,29.564 0,0 37.776,-19.941 77.249997,-56.375 31.864,-29.245 67.308,-71.344 83.004,-90.485 l 11.326,-13.702 15.602,11.932 4.193,-14.713 -12.174,-13.35 c 9.512,-10.75 21.588,-24.157 21.637,-24.165 3.757,-4.238 3.557,-10.344 -0.43,-13.783 -1.788,-1.505 -3.905,-2.24 -6.14,-2.26 l -1.606,0.116 c -2.33,0.411 -4.528,1.56 -6.248,3.436 M 3.1568227,29.354 c -4.01099997,3.456 -4.223,9.57 -0.503,13.765 0.113,-0.02 12.2690003,13.515 21.7000003,24.188 l -12.21,13.38 4.231,14.701 15.55,-11.995 11.428,13.727 c 8.996,10.919 24.276,29.218 41.694,48.38 6.095,-4.88 22.868997,-20.176 25.697997,-23.009 C 97.952823,109.946 54.161823,65.263 54.161823,65.263 l -0.05,0.009 15.287,-12.463 -12.068,-7.046 -18.194,9.88 -21.934,-24.857 -0.049,0.009 -0.02,-0.114 c -2.111,-2.311 -5.077,-3.544 -7.8840003,-3.578 l -1.619,0.105 c -1.59,0.281 -3.151,1.021 -4.474,2.146"
     id="path2" />
</svg>
