<svg xmlns="http://www.w3.org/2000/svg" xmlns:xlink="http://www.w3.org/1999/xlink" width="600" height="608"><linearGradient id="a" x1="0" x2="1" y1="0" y2="0" gradientTransform="matrix(286.38379 0 0 -286.38379 6.809 143.834)" gradientUnits="userSpaceOnUse" spreadMethod="pad"><stop offset="0" style="stop-color:#bf331c"/><stop offset=".3" style="stop-color:#d3641c"/><stop offset=".5" style="stop-color:#f6b91d"/><stop offset=".7" style="stop-color:#d3641c"/><stop offset="1" style="stop-color:#bf331c"/></linearGradient><linearGradient xlink:href="#a" id="b" x1="0" x2="1" y1="0" y2="0" gradientTransform="matrix(286.38379 0 0 -286.38379 6.809 143.834)" gradientUnits="userSpaceOnUse" spreadMethod="pad"/><path d="M166.42 304V187.916l6.38-2.927c19.4-8.903 31.936-28.422 31.936-49.727 0-30.162-24.554-54.701-54.736-54.701S95.264 105.1 95.264 135.262c0 21.305 12.536 40.824 31.935 49.727l6.38 2.927V304l-18.86-19.713L5.704 170.338 0 164.376l4.166-7.12c14.549-24.87 22.563-55.993 22.563-87.636 0-19.246-2.787-37.889-8.281-55.408L13.99 0h272.016l-4.455 14.212c-5.495 17.521-8.28 36.164-8.28 55.408 0 31.643 8.012 62.766 22.563 87.636l4.165 7.12-5.704 5.962L185.28 284.287zm10.948-27.273 109.016-113.95c-14.964-25.578-24.06-57.946-24.06-93.157 0-20.826 3.13-40.658 8.782-58.68H28.895c5.65 18.022 8.78 37.854 8.78 58.68 0 35.211-9.095 67.579-24.06 93.157l109.017 113.95v-81.796c-22.607-10.374-38.315-33.181-38.315-59.669 0-36.254 29.408-65.642 65.683-65.642s65.684 29.388 65.684 65.642c0 26.488-15.71 49.296-38.316 59.669z" style="fill:#fff" transform="matrix(2 0 0 -2 0 608)"/><path d="M177.368 194.931c22.607-10.373 38.315-33.181 38.315-59.669 0-36.254-29.406-65.642-65.683-65.642-36.275 0-65.684 29.388-65.684 65.642 0 26.488 15.709 49.295 38.316 59.669v81.796L13.615 162.778C28.58 137.2 37.676 104.831 37.676 69.62c0-20.826-3.13-40.658-8.781-58.68h242.21c-5.65 18.022-8.781 37.854-8.781 58.68 0 35.211 9.096 67.58 24.06 93.158L177.368 276.727Z" style="fill:url(#b)" transform="matrix(2 0 0 -2 0 608)"/><path d="M215.684 135.262c0-36.254-29.407-65.642-65.684-65.642-36.275 0-65.683 29.388-65.683 65.642 0 26.488 15.709 49.295 38.315 59.669v81.796L13.616 162.777c14.964-25.577 24.06-57.946 24.06-93.157 0-20.826-3.13-40.658-8.781-58.68h242.21c-5.65 18.022-8.78 37.854-8.78 58.68 0 35.21 9.095 67.58 24.059 93.158L177.369 276.727V194.93c22.606-10.373 38.315-33.181 38.315-59.67z" style="fill:none;stroke:#000;stroke-width:7.5;stroke-miterlimit:4" transform="matrix(2 0 0 -2 0 608)"/></svg>