<svg xmlns="http://www.w3.org/2000/svg" xmlns:xlink="http://www.w3.org/1999/xlink" width="600" height="608"><linearGradient id="a" x1="0" x2="1" y1="0" y2="0" gradientTransform="matrix(286.38379 0 0 -286.38379 6.809 147.917)" gradientUnits="userSpaceOnUse" spreadMethod="pad"><stop offset="0" style="stop-color:#8b723c"/><stop offset=".3" style="stop-color:#d2bb7b"/><stop offset=".5" style="stop-color:#ebd491"/><stop offset=".7" style="stop-color:#d2bb7b"/><stop offset="1" style="stop-color:#8b723c"/></linearGradient><linearGradient xlink:href="#a" id="b" x1="0" x2="1" y1="0" y2="0" gradientTransform="translate(13.617 312.166)scale(572.76758)" gradientUnits="userSpaceOnUse" spreadMethod="pad"/><path d="m343.79 225.154 6.378 2.928c42.676 19.582 70.252 62.52 70.252 109.394 0 66.356-54.022 120.344-120.42 120.344s-120.418-53.988-120.418-120.344c0-46.872 27.574-89.812 70.25-109.396l6.378-2.926V27.274L13.618 280.846l4.162 7.12c30.068 51.39 46.624 115.6 46.624 180.794 0 39.6-5.74 77.986-17.062 114.086l-4.456 14.216h514.226l-4.456-14.216c-11.32-36.104-17.06-74.49-17.06-114.086 0-65.194 16.556-129.404 46.622-180.794l4.166-7.12L343.79 27.274z" style="fill:url(#b)"/><path d="M332.842 0v232.168l12.758 5.854c38.802 17.806 63.872 56.844 63.872 99.454 0 60.324-49.108 109.402-109.472 109.402S190.528 397.8 190.528 337.476c0-42.61 25.072-81.648 63.87-99.454l12.76-5.854V0L229.44 39.426 11.406 267.324 0 279.248l8.332 14.24c29.098 49.74 45.126 111.986 45.126 175.272 0 38.492-5.574 75.778-16.562 110.816L27.982 608h544.032l-8.91-28.424c-10.99-35.042-16.56-72.328-16.56-110.816 0-63.286 16.024-125.532 45.126-175.272l8.33-14.24-11.408-11.924-218.03-227.898Zm21.894 54.546 218.032 227.9c-29.928 51.156-48.12 115.892-48.12 186.314 0 41.652 6.262 81.316 17.564 117.36H57.79c11.302-36.044 17.562-75.708 17.562-117.36 0-70.422-18.192-135.158-48.122-186.314l218.034-227.9v163.592c-45.214 20.748-76.63 66.362-76.63 119.338 0 72.508 58.816 131.284 131.366 131.284 72.552 0 131.368-58.776 131.368-131.284 0-52.976-31.418-98.592-76.632-119.338z"/></svg>