<?xml version="1.0" encoding="UTF-8" standalone="no"?>
<!DOCTYPE svg PUBLIC "-//W3C//DTD SVG 1.1//EN" "http://www.w3.org/Graphics/SVG/1.1/DTD/svg11.dtd">
<svg width="100%" height="100%" viewBox="0 0 145 69" version="1.1" xmlns="http://www.w3.org/2000/svg" xmlns:xlink="http://www.w3.org/1999/xlink" xml:space="preserve" xmlns:serif="http://www.serif.com/" style="fill-rule:evenodd;clip-rule:evenodd;stroke-linejoin:round;stroke-miterlimit:2;">
    <path d="M114.19,6.983C109.578,2.505 103.396,-0.001 96.968,0C87.882,0.018 79.51,5.044 75.223,13.056L65.529,3.362L0,68.89L16.688,68.887L38.159,47.415L51.738,60.994L60.084,52.648L53.295,45.859L60.084,39.069L53.295,32.28L65.525,20.05L70.758,25.283L63.972,32.068L70.761,38.857L63.76,45.859L72.102,54.201L79.103,47.2L84.336,52.432L77.335,59.434L86.792,68.89L103.9,68.89L94.235,59.225L101.024,52.436L94.235,45.647L99.468,40.414L111.49,52.436L104.7,59.225L113.043,67.568L119.832,60.778L127.944,68.89L144.632,68.887L116.057,40.312C119.672,35.917 121.66,30.406 121.684,24.716C121.685,18.038 118.98,11.636 114.19,6.983Z" style="fill-rule:nonzero;"/>
    <path d="M112.549,8.675C108.377,4.622 102.784,2.353 96.968,2.353C88.491,2.364 80.72,7.195 76.958,14.792L92.682,30.515L99.471,23.726L114.416,38.671C117.592,34.712 119.327,29.788 119.335,24.713C119.333,18.672 116.883,12.882 112.549,8.675Z" style="fill:rgb(99,46,119);fill-rule:nonzero;"/>
    <path d="M107.812,59.223L114.6,52.435L99.468,37.303L91.124,45.647L97.913,52.435L91.124,59.223L98.379,66.478L87.49,66.478L80.447,59.435L87.448,52.435L79.104,44.091L72.103,51.091L66.871,45.859L73.871,38.858L67.083,32.07L73.871,25.282L65.527,16.938L50.183,32.282L56.971,39.071L50.183,45.859L56.971,52.647L51.739,57.88L38.162,44.303L15.987,66.478L5.522,66.478L65.527,6.473L92.68,33.626L99.468,26.838L139.109,66.478L128.644,66.478L119.833,57.668L113.045,64.456L107.812,59.223Z" style="fill:url(#_Linear1);fill-rule:nonzero;"/>
    <defs>
        <linearGradient id="_Linear1" x1="0" y1="0" x2="1" y2="0" gradientUnits="userSpaceOnUse" gradientTransform="matrix(133.587,7.07107e-06,-7.07107e-06,133.587,5.52201,66.478)"><stop offset="0" style="stop-color:rgb(97,44,117);stop-opacity:1"/><stop offset="0.3" style="stop-color:rgb(123,81,144);stop-opacity:1"/><stop offset="0.5" style="stop-color:rgb(191,153,195);stop-opacity:1"/><stop offset="0.7" style="stop-color:rgb(123,81,144);stop-opacity:1"/><stop offset="1" style="stop-color:rgb(97,44,117);stop-opacity:1"/></linearGradient>
    </defs>
</svg>
