<?xml version="1.0" encoding="UTF-8" standalone="no"?>
<svg
   width="144.632"
   height="68.889999"
   viewBox="0 0 144.632 68.889999"
   version="1.1"
   xml:space="preserve"
   style="clip-rule:evenodd;fill-rule:evenodd;stroke-linejoin:round;stroke-miterlimit:2"
   id="svg7"
   xmlns="http://www.w3.org/2000/svg"
   xmlns:svg="http://www.w3.org/2000/svg">
    <path
   d="M 114.19,6.9830003 C 109.578,2.5050003 103.396,-9.9970083e-4 96.968,2.9916659e-7 87.882,0.0180003 79.51,5.0440003 75.223,13.056 L 65.529,3.3620003 0,68.89 16.688,68.887 38.159,47.415 l 13.579,13.579 8.346,-8.346 -6.789,-6.789 6.789,-6.79 -6.789,-6.789 12.23,-12.23 5.233,5.233 -6.786,6.785 6.789,6.789 -7.001,7.002 8.342,8.342 7.001,-7.001 5.233,5.232 -7.001,7.002 9.457,9.456 H 103.9 l -9.665,-9.665 6.789,-6.789 -6.789,-6.789 5.233,-5.233 12.022,12.022 -6.79,6.789 8.343,8.343 6.789,-6.79 8.112,8.112 16.688,-0.003 -28.575,-28.575 c 3.615,-4.395 5.603,-9.906 5.627,-15.596 0.001,-6.678 -2.704,-13.08 -7.494,-17.7329997 z"
   style="fill-rule:nonzero"
   id="path1" />
    <path
   d="m 112.549,8.6750003 c -4.172,-4.053 -9.765,-6.322 -15.581,-6.322 -8.477,0.011 -16.248,4.842 -20.01,12.4389997 l 15.724,15.723 6.789,-6.789 14.945,14.945 c 3.176,-3.959 4.911,-8.883 4.919,-13.958 -0.002,-6.041 -2.452,-11.831 -6.786,-16.0379997 z"
   style="fill:#632e77;fill-rule:nonzero"
   id="path2" />
    <path
   d="m 107.812,59.223 6.788,-6.788 -15.132,-15.132 -8.344,8.344 6.789,6.788 -6.789,6.788 7.255,7.255 H 87.49 l -7.043,-7.043 7.001,-7 -8.344,-8.344 -7.001,7 -5.232,-5.232 7,-7.001 -6.788,-6.788 6.788,-6.788 -8.344,-8.344 -15.344,15.344 6.788,6.789 -6.788,6.788 6.788,6.788 L 51.739,57.88 38.162,44.303 15.987,66.478 H 5.522 L 65.527,6.4730003 92.68,33.626 l 6.788,-6.788 39.641,39.64 h -10.465 l -8.811,-8.81 -6.788,6.788 z"
   style="fill:url(#_Linear1);fill-rule:nonzero"
   id="path3" />
    <defs
   id="defs7">
        <linearGradient
   id="_Linear1"
   x1="0"
   y1="0"
   x2="1"
   y2="0"
   gradientUnits="userSpaceOnUse"
   gradientTransform="matrix(133.587,7.07107e-6,-7.07107e-6,133.587,5.52201,66.478)"><stop
     offset="0"
     style="stop-color:rgb(97,44,117);stop-opacity:1"
     id="stop3" /><stop
     offset="0.3"
     style="stop-color:rgb(123,81,144);stop-opacity:1"
     id="stop4" /><stop
     offset="0.5"
     style="stop-color:rgb(191,153,195);stop-opacity:1"
     id="stop5" /><stop
     offset="0.7"
     style="stop-color:rgb(123,81,144);stop-opacity:1"
     id="stop6" /><stop
     offset="1"
     style="stop-color:rgb(97,44,117);stop-opacity:1"
     id="stop7" /></linearGradient>
    </defs>
</svg>
