<svg xmlns="http://www.w3.org/2000/svg" xml:space="preserve" width="149.801" height="68" style="clip-rule:evenodd;fill-rule:evenodd;stroke-linejoin:round;stroke-miterlimit:2" viewBox="0 0 149.801 68"><path d="M142 1.4c.3.4 7.9 11.2 7.8 32.7 0 21.3-7.6 32-7.9 32.5l-1 1.4H54.1c-1.5 0-2.9-1-3.3-2.5s.2-3.1 1.5-3.9c.2-.1 4.9-3.2 3.3-6.9L49 39.8s-.1.1-.2.1c-6.3 2.8-15.6 8.9-15.6 13.2 0 6 2.4 8.2 2.8 8.5 1.4.8 1.9 2.3 1.5 3.8s-1.8 2.5-3.4 2.5H3.5c-1.9 0-3.5-1.6-3.5-3.5v-.6q0-1.65 1.2-2.7c0-.1 4.2-3.6 6.6-9l18.3-40.8c.1-.4.1-.6 0-.9-.6-1.5-3.2-3.1-4.5-3.7-1.5-.7-2.3-2.3-2-3.9S21.4 0 23 0h118zm-3.2 2.8H73.4c-2.1 0-4.4 1.3-5.6 3.2-.6.9-1.1 2.2-.4 3.7.1.3 14.2 32 18.7 41.8 4.7 10.4 16.8 10.8 18.1 10.8h34.7c1.2-1.8 6.9-11.8 6.9-29.7-.1-18-5.8-28-7-29.8m-30.5 36.6.2-.1 2.6-5.7h.2v11.2H87.5l-.1-.2c2.4-2.9 4.6-5.6 6.6-8.3q3-3.9 5.1-7.5t3.3-6.6q1.2-3.15 1.2-5.7c0-2-.5-3.4-1.4-4.3s-2-1.4-3.3-1.4c-.8 0-1.6.2-2.2.5s-1.1.8-1.5 1.3-.7 1.2-.9 1.9-.3 1.4-.3 2.2c0 .5 0 1 .1 1.4q.15.75.3 1.2l-.2.2-5.8-7.3c1.2-1.2 2.8-2.2 4.6-3s3.8-1.2 6.1-1.2q2.4 0 4.5.6c1.4.4 2.7 1 3.8 1.8s2 1.7 2.6 2.9c.7 1.2 1 2.5 1 4.1q0 2.7-1.2 5.1-1.2 2.25-3.3 4.8c-1.4 1.6-3.1 3.4-5 5.4-1.9 1.9-4 4.2-6.2 6.9h13zm28.4-.8v7.2c-6.6-.1-7.7 1.1-7.7 1.1l.1-9.1h-11.8l-3.8-3.4 22.6-27.4.3-.3v27.5h5.2zm-18.4-4.4h10.8V21.7L118.3 35ZM56.4 63.5l31.9.1c-2-1.5-4.8-4.3-6.8-8.8L62.4 12c-1.6-3.5-.2-6.2 1.6-7.8H25.8c1.6 1 3.4 2.6 4.1 4.7.6 1.4.5 2.8-.1 4.2L11.6 53.9c-2.1 4.8-5.4 8.2-6.9 9.7h27.5C30.8 62 29 58.7 29 53c0-6.8 10.1-13 15.2-15.7H29.7l11.5-25.7 18.4 41.1c2.2 4.9-1 8.8-3.2 10.8"/></svg>