<svg xmlns="http://www.w3.org/2000/svg" width="600" height="574.108"><path d="M371.534 233.848c0-6.387 8.195-24.772 16.046-24.772 8.97 0 14.626 13.678 14.683 13.793 0 0 7.908 20.065 12.329 31.274-7.176 10.937-14.18 21.644-14.41 22.032h-.947c-18.329 0-27.701-35.15-27.701-42.327M401.2 36.671c-46.259 94.24-93.077 106.698-93.58 106.799l-21.801 5.382 3.473 22.433c.947 5.267 2.024 22.261-5.497 31.332-4.708 5.554-13.29 8.41-25.562 8.41-15.817 0-27.141-4.147-29.495-10.764-1.45-4.09.344-8.296 1.406-9.186l37.949-17.783-32.451-24.27c-3.703-2.526-92.46-61.329-192.815-1.737L0 172.692l46.747 17.424c.789.287 83.662 31.734 113.027 95.546l8.468 18.328 19.635-5.382c5.712-1.565 24.27-4.378 34.073 3.143 6.344 4.823 9.545 14.683 9.545 29.38 0 21.687-5.727 29.71-8.526 30.212-4.88.848-14.912-5.095-18.17-14.022L190 306.229l-26.524 34.705c-2.569 3.373-62.176 83.59-2.01 194.106l21.3 39.068 20.74-39.413c.402-.789 41.608-78.208 101.933-114.032l14.74-8.798-3.703-16.994c-1.277-5.669-3.129-24.17 4.55-33.7 4.377-5.44 12.673-8.18 24.73-8.18 24.04 0 36.269 10.147 37.718 20.236.618 4.091-.387 9.473-8.51 11.827l-49.963 14.812 43.848 28.088c3.76 2.412 92.675 58.086 188.939-2.813L600 398.46l-47.32-16.031c-.504-.173-48.599-16.822-82.916-58.258-19.29-23.266-26.567-43.446-26.625-43.675l-12.17-34.303c6.501-8.97 12.945-17.941 12.945-17.941 22.147-31.174 29.61-62.793 29.61-91.226 0-56.564-29.437-100.584-31.289-103.267L419.2 0Z" style="fill:#fff"/><path d="M451.435 339.37c39.413 47.536 93.623 65.649 93.623 65.649-84.537 53.492-163.32 2.913-163.32 2.913 42.786-12.673 33.026-78.767-35.982-78.767-69.022 0-52.545 70.974-52.545 70.974-67.056 39.857-110.831 123.519-110.831 123.519-53.493-98.23 0-168.257 0-168.257 12.673 35.035 72.94 52.531 72.94-24.27 0-76.816-73.902-55.459-73.902-55.459C147.388 201.785 55 167.754 55 167.754c88.527-52.53 167.237.948 167.237.948-25.29 7.793-32.064 66.165 35.997 66.165 68.06 0 54.44-68.074 54.44-68.074s56.391-10.707 109.884-119.644c0 0 59.32 86.575 1.966 167.252 0 0-10.707-29.165-36.944-29.165-26.25 0-39.872 34.044-39.872 48.612 0 14.583 13.621 66.166 51.527 66.166 0 0 13.563 1.895 21.414-11.668 0 0 8.08 23.667 30.786 51.023"/></svg>