<svg xmlns="http://www.w3.org/2000/svg" width="600" height="574.108"><linearGradient id="a" x1="0" x2="1" y1="0" y2="0" gradientTransform="rotate(10 -1347.858 361.894)scale(523.81758)" gradientUnits="userSpaceOnUse" spreadMethod="pad"><stop offset="0" style="stop-color:#536e78"/><stop offset=".3" style="stop-color:#99aebc"/><stop offset=".5" style="stop-color:#d9eaf3"/><stop offset=".7" style="stop-color:#99aebc"/><stop offset="1" style="stop-color:#536e78"/></linearGradient><path d="M371.477 233.848c.057-6.387 8.253-24.772 16.104-24.772 8.97 0 14.625 13.678 14.683 13.793 0 0 7.908 20.065 12.328 31.274-7.176 10.937-14.18 21.644-14.453 22.032h-.904c-18.386 0-27.701-35.15-27.759-42.327m29.725-197.177c-46.259 94.24-93.135 106.698-93.58 106.799l-21.801 5.382 3.473 22.433c.947 5.267 2.024 22.261-5.497 31.332-4.708 5.554-13.29 8.41-25.562 8.41-15.817 0-27.141-4.147-29.495-10.764-1.45-4.09.344-8.296 1.406-9.186l37.892-17.783-32.394-24.27c-3.76-2.526-92.46-61.329-192.815-1.737L0 172.692l46.704 17.424c.832.287 83.705 31.734 113.07 95.546l8.468 18.328 19.635-5.382c5.712-1.565 24.27-4.378 34.073 3.143 6.344 4.823 9.545 14.683 9.545 29.38 0 21.687-5.727 29.71-8.526 30.212-4.88.848-14.97-5.095-18.17-14.022L190 306.229l-26.524 34.705c-2.569 3.373-62.176 83.59-2.01 194.106l21.3 39.068 20.74-39.413c.402-.789 41.608-78.208 101.875-114.032l14.798-8.798-3.703-16.994c-1.277-5.669-3.129-24.17 4.55-33.7 4.377-5.44 12.673-8.18 24.73-8.18 24.04 0 36.269 10.147 37.718 20.236.56 4.091-.387 9.473-8.51 11.827l-49.963 14.812 43.848 28.088c3.76 2.412 92.675 58.086 188.939-2.813L600 398.46l-47.32-16.031c-.504-.173-48.656-16.822-82.916-58.258-19.29-23.266-26.567-43.446-26.625-43.675l-12.17-34.303c6.501-8.97 12.945-17.941 12.945-17.941 22.147-31.174 29.61-62.793 29.61-91.226 0-56.564-29.437-100.584-31.289-103.267L419.2 0Z"/><path d="M312.676 166.79s13.62 68.075-54.44 68.075-61.286-58.372-35.996-66.166c0 0-78.71-53.478-167.238-.947 0 0 92.388 34.03 126.419 107.918 0 0 73.902-21.414 73.902 55.459 0 76.8-60.267 59.305-72.94 24.27 0 0-53.493 70.027 0 168.257 0 0 43.775-83.662 110.83-123.52 0 0-16.476-70.974 52.546-70.974 69.008 0 78.768 66.094 35.925 78.768 0 0 78.84 50.579 163.377-2.914 0 0-54.21-18.055-93.68-65.592-22.649-27.413-30.73-51.08-30.73-51.08-7.85 13.562-21.414 11.668-21.414 11.668-37.905 0-51.583-51.526-51.583-66.166 0-14.568 13.678-48.613 39.929-48.613 26.237 0 36.944 29.165 36.944 29.165 57.353-80.676-1.967-167.252-1.967-167.252C369.068 156.083 312.676 166.79 312.676 166.79" style="fill:url(#a);stroke-width:14.3527"/></svg>