<svg xmlns="http://www.w3.org/2000/svg" width="490.058" height="476.51"><path d="M396.436 292.22c39.412 47.537 93.622 65.65 93.622 65.65-84.537 53.493-163.319 2.914-163.319 2.914 42.785-12.674 33.026-78.768-35.982-78.768-69.022 0-52.545 70.974-52.545 70.974-67.056 39.858-110.832 123.52-110.832 123.52-53.492-98.23 0-168.257 0-168.257 12.674 35.035 72.94 52.53 72.94-24.27 0-76.816-73.901-55.46-73.901-55.46C92.389 154.637 0 120.607 0 120.607c88.527-52.531 167.238.947 167.238.947-25.29 7.793-32.064 66.166 35.996 66.166s54.44-68.075 54.44-68.075S314.066 108.937 367.558 0c0 0 59.32 86.575 1.966 167.252 0 0-10.707-29.165-36.943-29.165-26.251 0-39.872 34.045-39.872 48.613 0 14.582 13.62 66.166 51.526 66.166 0 0 13.563 1.894 21.414-11.669 0 0 8.08 23.668 30.787 51.024"/></svg>