<svg xmlns="http://www.w3.org/2000/svg" xml:space="preserve" width="150" height="149.233"><g transform="translate(-2.996 -3.087)"><path d="m77.996 152.32 3.48-5.423c18.116-28.224 39.525-31.547 43.634-31.927l1.905-.176c7.119 12.517 11.314 24.514 12.344 28.763 0 0 12.248-18.657 12.248-51.288 0-19.763-4.252-32.459-4.252-32.459s-1.953 14.994-9.918 28.45c-.33-1.904-.025-16.463-.025-16.463 2.252-22.715 10.799-29.431 10.885-29.496l4.699-3.294-4.671-3.373c-.13-.096-13.032-9.673-22.92-18.063l-3.335-2.829-2.639 3.487c-.098.119-3.329 4.028-10.337 4.028-.601 0-1.192-.02-1.78-.049L102.98 22C91.775 10.69 82.88 5.409 77.996 3.087 73.111 5.409 64.217 10.691 53.012 22l-4.334.208c-.588.029-1.18.049-1.78.049-7.008 0-10.239-3.909-10.337-4.028l-2.639-3.487-3.335 2.829c-9.888 8.39-22.79 17.967-22.92 18.063l-4.671 3.373 4.699 3.294c.086.065 8.633 6.781 10.885 29.496 0 0 .305 14.559-.025 16.463-7.965-13.456-9.918-28.45-9.918-28.45S4.385 72.507 4.385 92.27c0 32.631 12.248 51.288 12.248 51.288 1.029-4.249 5.225-16.246 12.344-28.763l1.905.176c4.108.38 25.518 3.703 43.634 31.927z"/><linearGradient id="a" x1="10.13" x2="145.862" y1="82.695" y2="82.695" gradientUnits="userSpaceOnUse"><stop offset="0" style="stop-color:#626e77"/><stop offset=".004" style="stop-color:#647079"/><stop offset=".068" style="stop-color:#8496a1"/><stop offset=".119" style="stop-color:#99adb9"/><stop offset=".15" style="stop-color:#a0b6c2"/><stop offset=".155" style="stop-color:#a1b7c3"/><stop offset=".255" style="stop-color:#adc6d4"/><stop offset=".364" style="stop-color:#b5cede"/><stop offset=".5" style="stop-color:#b7d1e1"/><stop offset=".636" style="stop-color:#b5cede"/><stop offset=".746" style="stop-color:#adc6d4"/><stop offset=".845" style="stop-color:#a1b7c3"/><stop offset=".85" style="stop-color:#a0b6c2"/><stop offset=".881" style="stop-color:#99adb9"/><stop offset=".932" style="stop-color:#8496a1"/><stop offset=".997" style="stop-color:#647079"/><stop offset="1" style="stop-color:#626e77"/></linearGradient><path fill="url(#a)" d="M48.876 26.342a121.1 121.1 0 0 0-26.18 45.049C20.18 46 10.13 38.958 10.13 38.958s13.022-9.652 23.133-18.231c0 0 4.29 5.669 13.635 5.669.666 0 1.325-.022 1.978-.054m-7.448 70.556c-3.915 4.46-7.31 9.3-10.166 13.954 2.502.231 12.609 1.654 24.544 10.024-.19-13.082-9.824-20.977-14.378-23.978m17.935 18.344c1.875-4.89 3.275-10.34 3.275-15.734 0-8.446-4.195-13.194-6.48-15.158-4.346 2.544-8.313 5.828-11.898 9.493 4.676 3.222 12.84 10.282 15.103 21.399m47.753-88.9a121.1 121.1 0 0 1 26.18 45.049c2.517-25.391 12.566-32.433 12.566-32.433s-13.022-9.652-23.133-18.231c0 0-4.29 5.669-13.635 5.669-.666 0-1.324-.022-1.978-.054m-6.929 94.535c11.935-8.37 22.042-9.793 24.544-10.024-2.856-4.654-6.251-9.494-10.166-13.954-4.555 3-14.189 10.895-14.378 23.978m11.545-27.034c-3.585-3.665-7.553-6.949-11.898-9.493-2.285 1.964-6.48 6.712-6.48 15.158 0 5.395 1.4 10.845 3.275 15.734 2.264-11.117 10.428-18.177 15.103-21.399m-22.514 5.665c0-8.755 3.801-14.251 6.718-17.182-3.25-1.481-6.689-2.525-10.313-3.018 4.46-2.622 7.464-7.458 7.464-13.005 0-8.335-6.756-15.091-15.09-15.091s-15.09 6.756-15.09 15.091c0 5.547 3.002 10.383 7.463 13.005-3.623.492-7.063 1.536-10.313 3.018 2.917 2.931 6.718 8.427 6.718 17.182 0 8.979-3.382 17.863-6.795 24.545 5.952 4.868 12.176 11.512 18.017 20.61 5.841-9.099 12.064-15.742 18.017-20.61-3.414-6.682-6.796-15.567-6.796-24.545" style="fill:url(#a)"/><path fill="#fff" d="M75.928 9.323v37.869c-9.632 1.035-17.158 9.209-17.158 19.111 0 1.354.15 2.672.418 3.948-2.415-3.43-6.241-10.757-5.281-21.874 0 0-7.58 17.77 4.924 29.95-28.146 12.406-42.572 53.772-42.572 53.772C6.3 108.662 9.363 78.942 9.363 78.942c4.597 14.706 12.256 17.004 12.256 17.004 6.447-55.201 44.92-81.081 54.309-86.623m4.136 0v37.869c9.632 1.035 17.158 9.209 17.158 19.111 0 1.354-.15 2.672-.418 3.948 2.415-3.43 6.241-10.757 5.281-21.874 0 0 7.58 17.77-4.924 29.95 28.146 12.406 42.572 53.772 42.572 53.772 9.958-23.438 6.895-53.158 6.895-53.158-4.597 14.706-12.256 17.004-12.256 17.004-6.446-55.2-44.919-81.08-54.308-86.622"/></g></svg>