<svg xmlns="http://www.w3.org/2000/svg" xml:space="preserve" width="150" height="146.943"><path d="M43.384 18.478A131.4 131.4 0 0 0 14.96 67.389C12.227 39.822 1.316 32.176 1.316 32.176s14.139-10.48 25.116-19.794c0 0 4.658 6.155 14.804 6.155a45 45 0 0 0 2.148-.059m-8.087 76.606c-4.251 4.842-7.937 10.097-11.038 15.15 2.716.251 13.69 1.796 26.648 10.884-.205-14.204-10.665-22.776-15.61-26.034M54.77 115c2.036-5.309 3.556-11.227 3.556-17.083 0-9.171-4.555-14.326-7.036-16.458-4.718 2.762-9.026 6.328-12.918 10.307C43.448 95.265 52.312 102.93 54.77 115m51.847-96.522a131.4 131.4 0 0 1 28.425 48.911c2.732-27.567 13.644-35.213 13.644-35.213s-14.14-10.48-25.115-19.794c0 0-4.658 6.155-14.805 6.155a45 45 0 0 1-2.15-.059m-7.523 102.641c12.958-9.088 23.932-10.633 26.648-10.884-3.102-5.054-6.787-10.309-11.037-15.15-4.945 3.257-15.405 11.829-15.611 26.034m12.536-29.353c-3.893-3.979-8.2-7.545-12.92-10.307-2.48 2.132-7.034 7.287-7.034 16.458 0 5.856 1.52 11.774 3.556 17.083 2.457-12.07 11.32-19.735 16.398-23.234m-24.446 6.151c0-9.506 4.127-15.473 7.294-18.655-3.53-1.608-7.264-2.741-11.197-3.276 4.842-2.847 8.104-8.098 8.104-14.119 0-9.05-7.336-16.385-16.384-16.385s-16.384 7.335-16.384 16.385c0 6.021 3.259 11.272 8.103 14.119-3.934.535-7.67 1.668-11.197 3.276 3.167 3.183 7.294 9.149 7.294 18.655 0 9.748-3.672 19.395-7.378 26.649 6.463 5.285 13.22 12.498 19.562 22.377 6.342-9.879 13.099-17.092 19.562-22.377-3.707-7.254-7.38-16.901-7.38-26.649M72.754 0v41.116c-10.457 1.124-18.628 9.999-18.628 20.75 0 1.47.163 2.9.454 4.286-2.622-3.724-6.776-11.679-5.734-23.75 0 0-8.23 19.293 5.346 32.518-30.56 13.47-46.223 58.383-46.223 58.383C-2.843 107.855.483 75.587.483 75.587 5.473 91.554 13.79 94.049 13.79 94.049 20.79 34.116 62.56 6.018 72.755 0m4.492 0v41.116c10.458 1.124 18.63 9.999 18.63 20.75 0 1.47-.163 2.9-.454 4.286 2.623-3.724 6.777-11.679 5.734-23.75 0 0 8.23 19.293-5.346 32.518 30.56 13.47 46.223 58.383 46.223 58.383 10.812-25.448 7.485-57.716 7.485-57.716-4.991 15.967-13.307 18.462-13.307 18.462C129.21 34.116 87.44 6.018 77.246 0"/></svg>