<svg xmlns="http://www.w3.org/2000/svg" xml:space="preserve" width="150" height="72.835"><path fill="#fff" d="M138.081 11.194s2.354-3.814 2.387-3.875c.574-1.104 1.669-2.547 1.048-3.625-.541-.941-1.69-.889-2.935-.889H86.795C83.589.963 79.581 0 75 0s-8.591.961-11.794 2.805H11.419c-1.244 0-2.396-.053-2.937.889-.621 1.077.476 2.521 1.049 3.625.031.061 2.387 3.875 2.387 3.875H0l3.533 5.482c.55.853 13.675 21.086 32.559 38.869l1.027.97h16.335a539 539 0 0 0 3.411 3.067l1.012.898s2.282 2.003 3.078 2.691C72.142 72.835 73.66 72.835 75 72.835s2.858 0 14.044-9.664c.798-.688 3.078-2.691 3.078-2.691l1.013-.898c1.079-.963 2.222-1.99 3.41-3.067h16.336l1.026-.97c18.885-17.783 32.01-38.017 32.56-38.869L150 11.194z"/><path d="M72.851 33.786s-1.915 4.104-7.421 4.104c-4.308 0-4.583-3.112-4.583-4.343s1.162-3.111 2.564-3.111 5.508 2.565 9.44 3.35m65.478-11.649c3.299-4.519 5.147-7.387 5.147-7.387h-50.81c.155.951.245 1.937.245 2.963 0 6.226-1.641 5.813-1.641 10.736 0 3.285 1.301 3.831 1.572 4.721.275.889 0 3.692-1.23 6.019-1.229 2.323-2.871 3.282-4.033 3.282-1.164 0-1.713-.615-2.189-.615-.479 0-1.572.615-1.572 2.188s1.094 1.642 1.094 2.806v2.323c0 .549-1.024 2.6-3.418 2.6v-.887c0-.379.272-.688.272-1.164 0-.479-.582-.854-.991-.854s-.994.343-.994 1.196c0 .548.445.924.207 1.47-.238.548-2.975.479-3.487.515s-.82-.308-.82-.854.142-2.358-.679-2.358-.68 1.812-.68 2.358-.307.89-.82.854-3.25.033-3.488-.515c-.24-.546.205-.922.205-1.47 0-.854-.581-1.196-.991-1.196-.409 0-.991.376-.991.854s.273.785.273 1.164v.887c-2.394 0-3.421-2.051-3.421-2.6V46.85c0-1.164 1.096-1.23 1.096-2.806 0-1.572-1.096-2.188-1.574-2.188-.479 0-1.025.615-2.188.615s-2.804-.959-4.035-3.282c-1.232-2.325-1.506-5.129-1.232-6.019s1.573-1.437 1.573-4.721c0-4.923-1.641-4.512-1.641-10.736 0-1.026.091-2.013.246-2.963H6.524s1.849 2.869 5.146 7.387h15.955q1.23 1.475 2.435 2.888H13.811a251 251 0 0 0 5.778 7.386h16.946q1.345 1.492 2.633 2.889H21.975c2 2.387 4.164 4.871 6.464 7.384h17.754a266 266 0 0 0 2.875 2.889h-17.94a188 188 0 0 0 7.404 7.388h16.296a518 518 0 0 0 4.403 3.967h31.537a518 518 0 0 0 4.403-3.967h16.298a187 187 0 0 0 7.403-7.388h-17.94q1.353-1.338 2.875-2.889h17.754a225 225 0 0 0 6.464-7.384h-17.193a353 353 0 0 0 2.634-2.889h16.944a247 247 0 0 0 5.779-7.386h-16.248q1.204-1.411 2.437-2.888zm-51.741 8.299c-1.403 0-5.509 2.564-9.438 3.35 0 0 1.914 4.104 7.42 4.104 4.31 0 4.584-3.112 4.584-4.343s-1.165-3.111-2.566-3.111M75 36.819c-.615 0-1.544 1.458-2.093 2.758-.547 1.299-1.664 3.146-.455 3.146.843 0 1.476-1.438 2.548-1.438 1.071 0 1.704 1.438 2.547 1.438 1.21 0 .094-1.848-.455-3.146-.548-1.3-1.478-2.758-2.092-2.758m16.663-25.625h42.174c2.09-3.119 2.982-4.834 2.982-4.834H88.234a13.5 13.5 0 0 1 3.429 4.834M75 69.282c.721 0 3.946-2.082 11.719-8.8H63.281c7.773 6.718 10.998 8.8 11.719 8.8M61.766 6.36H13.18s.893 1.715 2.981 4.834h42.174a13.5 13.5 0 0 1 3.431-4.834"/></svg>