<svg xmlns="http://www.w3.org/2000/svg" xml:space="preserve" width="149.999" height="72.833"><g transform="translate(-5.014 -2.726)"><path d="M143.094 13.919s2.354-3.815 2.389-3.876c.572-1.103 1.668-2.547 1.048-3.624-.541-.941-1.692-.889-2.937-.889H91.808c-3.205-1.842-7.214-2.804-11.794-2.804s-8.592.962-11.795 2.804H16.433c-1.245 0-2.396-.052-2.937.889-.621 1.077.476 2.521 1.049 3.624.031.061 2.387 3.876 2.387 3.876H5.014l3.533 5.482c.55.853 13.675 21.086 32.559 38.869l1.027.969h16.335a461 461 0 0 0 3.411 3.065l1.011.901s2.282 2.001 3.078 2.69c11.186 9.664 12.704 9.664 14.045 9.664s2.859 0 14.043-9.664c.798-.689 3.08-2.69 3.08-2.69l1.011-.901a519 519 0 0 0 3.411-3.065h16.335l1.027-.969c18.886-17.783 32.011-38.016 32.561-38.869l3.532-5.482z"/><linearGradient id="a" x1="11.537" x2="148.491" y1="38.562" y2="38.562" gradientUnits="userSpaceOnUse"><stop offset="0" style="stop-color:#8d742f"/><stop offset=".134" style="stop-color:#9f8641"/><stop offset=".25" style="stop-color:#b39a54"/><stop offset=".265" style="stop-color:#b69d57"/><stop offset=".41" style="stop-color:#ceb46c"/><stop offset=".5" style="stop-color:#d7bd74"/><stop offset=".59" style="stop-color:#ceb46c"/><stop offset=".735" style="stop-color:#b69d57"/><stop offset=".75" style="stop-color:#b39a54"/><stop offset=".866" style="stop-color:#9f8641"/><stop offset="1" style="stop-color:#8d742f"/></linearGradient><path fill="url(#a)" d="M143.342 24.862c3.299-4.519 5.149-7.388 5.149-7.388H99.77q.207 1.434.208 2.964c0 3.614-.525 5.258-.99 6.708-.362 1.135-.651 2.033-.651 4.029 0 1.706.393 2.259.771 2.795.24.338.538.756.71 1.322.468 1.513.072 4.843-1.378 7.581-1.428 2.698-3.668 4.375-5.848 4.375h-.615v4.649c0 3.335-2.668 4.412-7.462 4.8-1.913.155-2.523.121-4.501.121s-2.588.034-4.501-.121c-4.794-.388-7.462-1.465-7.462-4.8v-4.649h-.615c-2.18 0-4.42-1.677-5.847-4.375-1.451-2.738-1.846-6.068-1.38-7.581.174-.565.471-.984.712-1.322.379-.536.772-1.089.772-2.795 0-1.996-.29-2.894-.651-4.029-.465-1.45-.991-3.094-.991-6.708q.001-1.53.209-2.964H11.54s1.849 2.869 5.146 7.388h15.955q1.23 1.474 2.435 2.887H18.825a255 255 0 0 0 5.778 7.386h16.946q1.345 1.492 2.633 2.888H26.988a228 228 0 0 0 6.464 7.385h17.753a266 266 0 0 0 2.875 2.888H36.14a188 188 0 0 0 7.404 7.387h16.297a501 501 0 0 0 4.403 3.967h31.537a474 474 0 0 0 4.403-3.967h16.298a187 187 0 0 0 7.403-7.387h-17.939q1.352-1.337 2.874-2.888h17.754a227 227 0 0 0 6.464-7.385h-17.193q1.288-1.397 2.633-2.888h16.944a250 250 0 0 0 5.78-7.386h-16.248q1.205-1.412 2.436-2.887z" style="fill:url(#a)"/><path fill="#8d742f" d="M68.295 63.206h23.437c-7.771 6.716-10.998 8.8-11.718 8.8-.723 0-3.947-2.084-11.719-8.8m70.557-49.287c2.088-3.12 2.98-4.834 2.98-4.834H96.099a15.7 15.7 0 0 1 2.792 4.834zM18.194 9.085s.893 1.714 2.981 4.834h39.96a15.7 15.7 0 0 1 2.792-4.834z"/><path fill="#fff" d="M96.626 41.913c-1.23 2.324-2.871 3.283-4.034 3.283s-1.711-.615-2.188-.615c-.479 0-1.573.615-1.573 2.188s1.094 1.641 1.094 2.804v2.324c0 .549-1.025 2.6-3.419 2.6v-.888c0-.378.274-.687.274-1.163 0-.479-.583-.855-.993-.855s-.992.342-.992 1.196c0 .548.444.924.207 1.47-.24.548-2.975.479-3.488.514s-.82-.307-.82-.854.142-2.359-.679-2.359c-.82 0-.679 1.812-.679 2.359s-.307.889-.82.854c-.514-.034-3.25.034-3.488-.514-.239-.546.205-.922.205-1.47 0-.854-.581-1.196-.991-1.196s-.993.376-.993.855c0 .477.274.785.274 1.163v.888c-2.394 0-3.421-2.051-3.421-2.6v-2.324c0-1.163 1.096-1.23 1.096-2.804s-1.096-2.188-1.573-2.188c-.479 0-1.025.615-2.189.615-1.163 0-2.804-.959-4.034-3.283-1.232-2.325-1.506-5.129-1.232-6.018s1.573-1.436 1.573-4.72c0-4.923-1.641-4.512-1.641-10.736 0-9.301 6.388-15.662 17.912-15.662s17.913 6.361 17.913 15.662c0 6.225-1.641 5.813-1.641 10.736 0 3.285 1.299 3.831 1.571 4.72.276.889-.001 3.693-1.231 6.018m-28.2-8.753c-1.403 0-2.564 1.88-2.564 3.111s.274 4.342 4.583 4.342c5.506 0 7.42-4.103 7.42-4.103-3.933-.785-8.036-3.35-9.439-3.35m13.736 3.35s1.915 4.103 7.419 4.103c4.311 0 4.584-3.112 4.584-4.342s-1.163-3.111-2.564-3.111c-1.403 0-5.508 2.565-9.439 3.35m-4.241 5.791c-.548 1.299-1.665 3.146-.455 3.146.843 0 1.475-1.438 2.547-1.438s1.705 1.438 2.547 1.438c1.21 0 .093-1.848-.455-3.146-.548-1.3-1.477-2.758-2.092-2.758s-1.544 1.458-2.092 2.758"/></g></svg>