<svg xmlns="http://www.w3.org/2000/svg" xml:space="preserve" width="150.001" height="72.835"><g transform="translate(-4.648 -2.726)"><path d="M142.73 13.919s2.354-3.815 2.385-3.876c.575-1.103 1.668-2.547 1.048-3.624-.541-.941-1.688-.889-2.934-.889H91.443c-3.205-1.842-7.214-2.804-11.795-2.804s-8.591.962-11.794 2.804H16.067c-1.244 0-2.396-.052-2.937.889-.621 1.077.476 2.521 1.049 3.624.031.061 2.387 3.876 2.387 3.876H4.648l3.533 5.482c.55.853 13.675 21.086 32.559 38.87l1.027.969h16.335a509 509 0 0 0 3.411 3.066l1.012.901s2.282 2 3.078 2.689c11.187 9.665 12.706 9.665 14.046 9.665 1.341 0 2.857 0 14.042-9.665.8-.689 3.082-2.689 3.082-2.689l1.01-.901c1.078-.96 2.223-1.989 3.412-3.066h16.334l1.026-.969c18.885-17.783 32.01-38.017 32.562-38.87l3.532-5.482z"/><linearGradient id="a" x1="11.171" x2="148.124" y1="38.562" y2="38.562" gradientUnits="userSpaceOnUse"><stop offset="0" style="stop-color:#626e77"/><stop offset=".074" style="stop-color:#718089"/><stop offset=".224" style="stop-color:#99adb9"/><stop offset=".25" style="stop-color:#a0b6c2"/><stop offset=".4" style="stop-color:#b0c9d8"/><stop offset=".5" style="stop-color:#b7d1e1"/><stop offset=".6" style="stop-color:#b0c9d8"/><stop offset=".75" style="stop-color:#a0b6c2"/><stop offset=".776" style="stop-color:#99adb9"/><stop offset=".925" style="stop-color:#718089"/><stop offset="1" style="stop-color:#626e77"/></linearGradient><path fill="url(#a)" d="M142.979 24.862c3.298-4.519 5.146-7.388 5.146-7.388h-48.72q.207 1.435.207 2.964c0 3.614-.524 5.258-.989 6.707-.362 1.136-.651 2.034-.651 4.029 0 1.706.393 2.259.771 2.795.238.337.538.756.71 1.322.466 1.513.073 4.843-1.378 7.581-1.428 2.698-3.668 4.375-5.85 4.375h-.613v4.65c0 3.334-2.668 4.411-7.462 4.799-1.913.155-2.523.121-4.502.121s-2.589.034-4.502-.121c-4.794-.388-7.462-1.465-7.462-4.799v-4.65h-.615c-2.18 0-4.42-1.677-5.847-4.375-1.451-2.738-1.846-6.068-1.381-7.581.174-.565.471-.984.712-1.322.379-.536.772-1.089.772-2.795 0-1.996-.29-2.894-.651-4.029-.465-1.449-.991-3.093-.991-6.707q0-1.53.208-2.964h-48.72s1.849 2.87 5.146 7.388h15.955q1.23 1.474 2.435 2.887H18.459a251 251 0 0 0 5.778 7.386h16.946q1.345 1.492 2.633 2.888H26.623c2 2.387 4.164 4.87 6.464 7.385H50.84a266 266 0 0 0 2.875 2.888h-17.94a188 188 0 0 0 7.404 7.387h16.297a501 501 0 0 0 4.403 3.967h31.538a462 462 0 0 0 4.402-3.967h16.299a188 188 0 0 0 7.403-7.387h-17.939a286 286 0 0 0 2.874-2.888h17.754a227 227 0 0 0 6.463-7.385H115.48q1.288-1.397 2.634-2.888h16.943a248 248 0 0 0 5.78-7.386H124.59q1.204-1.412 2.434-2.887z" style="fill:url(#a)"/><path fill="#626e77" d="M67.929 63.207h23.438c-7.771 6.716-10.998 8.799-11.719 8.799-.723 0-3.946-2.083-11.719-8.799m70.554-49.288c2.093-3.119 2.985-4.834 2.985-4.834H95.734a15.8 15.8 0 0 1 2.792 4.834zM17.828 9.085s.893 1.715 2.981 4.834H60.77a15.7 15.7 0 0 1 2.792-4.834z"/><path fill="#fff" d="M96.262 41.913c-1.23 2.324-2.871 3.283-4.036 3.283-1.161 0-1.709-.615-2.188-.615s-1.571.615-1.571 2.188 1.092 1.641 1.092 2.804v2.325c0 .548-1.023 2.599-3.419 2.599v-.888c0-.378.276-.686.276-1.163 0-.479-.583-.855-.993-.855s-.992.342-.992 1.196c0 .548.444.924.206 1.47-.241.549-2.974.479-3.487.514-.514.035-.82-.307-.82-.854s.141-2.359-.68-2.359-.679 1.812-.679 2.359-.307.89-.82.854c-.514-.034-3.251.035-3.489-.514-.24-.546.205-.922.205-1.47 0-.854-.581-1.196-.991-1.196s-.992.376-.992.855c0 .478.274.785.274 1.163v.888c-2.394 0-3.421-2.051-3.421-2.599v-2.325c0-1.163 1.096-1.23 1.096-2.804s-1.096-2.188-1.574-2.188c-.479 0-1.025.615-2.188.615s-2.804-.959-4.035-3.283c-1.232-2.325-1.506-5.129-1.232-6.018s1.573-1.436 1.573-4.72c0-4.924-1.641-4.512-1.641-10.736 0-9.301 6.389-15.662 17.913-15.662 11.522 0 17.913 6.361 17.913 15.662 0 6.225-1.641 5.813-1.641 10.736 0 3.285 1.299 3.831 1.571 4.72.277.889 0 3.693-1.23 6.018M68.06 33.16c-1.403 0-2.564 1.88-2.564 3.11s.274 4.343 4.583 4.343c5.506 0 7.421-4.103 7.421-4.103-3.934-.785-8.037-3.35-9.44-3.35m13.736 3.35s1.917 4.103 7.421 4.103c4.309 0 4.584-3.112 4.584-4.343s-1.165-3.11-2.564-3.11c-1.403 0-5.508 2.565-9.441 3.35m-4.24 5.791c-.548 1.3-1.665 3.146-.455 3.146.842 0 1.476-1.437 2.547-1.437s1.703 1.437 2.548 1.437c1.209 0 .093-1.847-.455-3.146s-1.479-2.758-2.093-2.758c-.616 0-1.544 1.458-2.092 2.758"/></g></svg>