<svg xmlns="http://www.w3.org/2000/svg" width="600" height="555.874"><path d="M378.04 555.874c-63.412 0-118.402-22.04-159.008-63.842-36.313-37.285-59.382-89.454-65.08-146.778-1.139-11.618 5.962-22.416 17.038-26.113 2.557-.876 5.156-1.25 7.768-1.25 8.575 0 16.83 4.447 21.443 12.215.486.862 52.975 87.397 133.535 87.397 101.725 0 104.657-96.902 104.657-107.964 0-14.342-4.016-140.011-142.276-140.011-56.949 0-108.52 23.29-153.185 69.331-40.064 41.19-72.694 100.1-91.97 165.72-3.14 10.7-12.854 17.913-23.874 17.913-.541 0-1.084-.055-1.626-.055a24.9 24.9 0 0 1-23.027-21.054c-1.028-6.684-23.722-164.594 92.887-288.249C164.097 40.231 257.957 0 359.626 0c46.805 0 93.484 8.686 134.952 25.14 8.144 3.196 14.12 10.31 15.579 18.885 1.417 8.575-1.515 17.093-8.088 22.805-3.85 3.53-11.66 13.355-11.66 21.332 0 11.284 6.615 18.455 20.401 32.185.876.93 89.19 92.456 89.19 206.938 0 53.086-22.193 110.3-59.381 153.074-42.344 48.694-100.1 75.515-162.58 75.515" style="fill:gray"/><path d="M27.088 397.575s-23.291-151.073 86.37-267.348C223.047 13.952 379.177 6.24 485.406 48.264c0 0-19.915 17.746-19.915 39.898 0 22.096 13.3 35.395 27.683 49.778 14.383 14.44 81.908 96.347 81.908 189.345 0 93.04-76.377 203.728-197.044 203.728-120.68 0-189.344-87.453-199.28-188.205 0 0 58.672 99.612 154.977 99.612s129.519-76.377 129.519-132.881c0-56.408-30.99-164.928-167.138-164.928-136.203 0-230.27 120.68-269.029 252.964"/></svg>