<svg xmlns="http://www.w3.org/2000/svg" xmlns:xlink="http://www.w3.org/1999/xlink" width="600" height="555.874"><radialGradient id="a" cx="0" cy="0" r="1" fx="0" fy="0" gradientTransform="matrix(19.0165 0 0 -19.0165 100.447 151.333)" gradientUnits="userSpaceOnUse" spreadMethod="pad"><stop offset="0" style="stop-color:#bf99c3"/><stop offset=".663" style="stop-color:#7b5190"/><stop offset="1" style="stop-color:#612c75"/></radialGradient><radialGradient xlink:href="#a" id="b" cx="0" cy="0" r="1" fx="0" fy="0" gradientTransform="translate(300.054 277.979)scale(264.26955)" gradientUnits="userSpaceOnUse" spreadMethod="pad"/><path fill="#fff" d="M378.04 555.874c-63.412 0-118.402-22.04-159.008-63.842-36.313-37.285-59.382-89.454-65.08-146.778-1.139-11.618 5.962-22.416 17.038-26.113 2.557-.876 5.156-1.25 7.768-1.25 8.575 0 16.83 4.447 21.443 12.215.486.862 52.975 87.397 133.535 87.397 101.725 0 104.657-96.902 104.657-107.964 0-14.342-4.016-140.011-142.276-140.011-56.949 0-108.52 23.29-153.185 69.331-40.064 41.19-72.694 100.1-91.97 165.72-3.14 10.7-12.854 17.913-23.874 17.913-.541 0-1.084-.055-1.626-.055a24.9 24.9 0 0 1-23.027-21.054c-1.028-6.684-23.722-164.594 92.887-288.249C164.097 40.231 257.957 0 359.626 0c46.805 0 93.484 8.686 134.952 25.14 8.144 3.196 14.12 10.31 15.579 18.885 1.417 8.575-1.515 17.093-8.088 22.805-3.85 3.53-11.66 13.355-11.66 21.332 0 11.284 6.615 18.455 20.401 32.185.876.931 89.19 92.456 89.19 206.938 0 53.086-22.193 110.3-59.381 153.074-42.344 48.694-100.1 75.515-162.58 75.515"/><path d="M113.401 130.227C3.853 246.502 27.088 397.575 27.088 397.575c38.758-132.284 132.826-252.964 269.03-252.964s167.137 108.52 167.137 164.928c0 56.504-33.158 132.881-129.519 132.881-96.305 0-154.978-99.668-154.978-99.668 9.937 100.752 78.601 188.26 199.281 188.26 120.667 0 197.044-110.743 197.044-203.727 0-92.998-67.525-174.906-81.908-189.29-14.383-14.438-27.683-27.682-27.683-49.833 0-22.152 19.914-39.898 19.914-39.898-37.187-14.717-80.504-23.291-125.78-23.291-84.076 0-174.948 29.697-246.225 105.254" style="fill:url(#b)"/></svg>