<?xml version="1.0" encoding="UTF-8" standalone="no"?>
<svg
   version="1.1"
   viewBox="0 0 95.809044 41.248576"
   height="41.248577"
   width="95.809044"
   id="svg4"
   xmlns:xlink="http://www.w3.org/1999/xlink"
   xmlns="http://www.w3.org/2000/svg"
   xmlns:svg="http://www.w3.org/2000/svg">
  <defs
     id="defs4" />
  <linearGradient
     id="linearGradient8179">
    <stop
       offset="0"
       style="stop-color:#d2a300"
       id="stop1" />
    <stop
       style="stop-color:#b5271c"
       offset="0.42973638"
       id="stop2" />
    <stop
       offset="1"
       style="stop-color:#a21a12"
       id="stop3" />
  </linearGradient>
  <linearGradient
     gradientTransform="matrix(1.0267461,0,0,1.0267461,-1.2563325,31.064343)"
     spreadMethod="reflect"
     gradientUnits="userSpaceOnUse"
     y2="24.33419"
     x2="29.193537"
     y1="47.024551"
     x1="27.129902"
     id="linearGradient8185"
     xlink:href="#linearGradient8179" />
  <g
     transform="translate(-1.9302379,-57.326859)"
     id="layer6">
    <path
       d="M 20.135302,80.389509 4.2212222,85.802241 C 2.2242829,86.481444 1.1478788,83.289621 2.6006439,82.625908 L 18.771713,74.990204 8.8560761,67.586941 C 7.5660608,66.623783 9.3849471,64.38779 10.800771,65.091249 l 10.177231,5.056205 -2.268809,-9.496589 c -0.404433,-1.692842 2.636898,-2.323999 3.370803,-0.583409 L 25.742503,68.753757 31.058,58.317233 c 1.061163,-2.083506 3.736464,-0.493897 3.143921,1.231639 l -2.949451,8.589064 c 0,0 10.865134,-5.672023 22.493627,-5.672023 17.909194,0 39.24079,10.740038 43.911437,29.889979 0.631653,2.589816 -2.581925,2.684714 -3.299744,0.933421 -8.865407,-21.629329 -27.883432,-25.44308 -40.190342,-25.44308 -6.518145,0 -14.671319,3.521739 -14.671319,3.521739 l 7.832477,-0.604698 c 1.541746,-0.119029 2.81926,2.610093 0.453763,3.143921 l -15.654787,3.532861 10.079997,7.811188 c 1.899628,1.472059 0.528103,4.033629 -1.685401,2.771188 l -10.598583,-6.044755 3.079099,12.02469 c 0.508531,1.985952 -2.238595,2.565363 -2.981864,0.810289 L 24.997037,82.950023 17.898904,97.535228 c -0.936454,1.924222 -3.80945,1.029375 -2.981864,-1.45852 z"
       style="stroke-width:1px"
       id="path3" />
    <path
       d="M 21.755881,78.898577 4.5777495,84.603013 C 3.1478293,85.077854 2.9581942,83.6107 3.8322834,83.209315 L 20.91318,75.365716 9.9904811,67.230413 c -0.936099,-0.697214 -0.10687,-1.320705 0.7454669,-0.907523 l 11.700575,5.672023 -2.722571,-10.98752 c -0.292304,-1.179652 1.061322,-1.118215 1.426109,-0.291706 l 4.634854,10.501349 6.019058,-11.879654 c 0.52717,-1.040461 1.763735,-0.807844 1.307584,0.528079 l -3.599313,10.541285 c 0,0 9.740095,-6.917089 25.054142,-6.871251 13.159656,0.03939 35.434892,7.255748 42.459154,28.878705 0.36518,1.124161 -1.101612,1.724682 -1.62058,0.421351 C 88.817213,76.316291 74.336217,66.963255 54.686032,67.100766 43.155859,67.181455 33.235918,73.028003 33.235918,73.028003 l 13.636471,-1.352187 c 1.722686,-0.170821 1.275744,1.228241 0.320858,1.443861 l -17.051318,3.850298 11.688404,9.052784 c 0.801835,0.621029 0.167498,1.729673 -0.637785,1.268379 L 27.895922,79.674352 32.31918,93.92962 c 0.286058,0.921907 -1.023362,1.641235 -1.60429,0.275022 L 24.916524,80.56817 17.238848,96.886099 c -0.458331,0.974126 -1.83523,0.689606 -1.398024,-0.59588 z"
       style="fill:url(#linearGradient8185);stroke-width:1px"
       id="path4" />
  </g>
</svg>
