<svg xmlns="http://www.w3.org/2000/svg" xml:space="preserve" width="150" height="137.231"><path fill="#5e5f62" d="M127.522 21.769V10.401L99.384 0S94.415 18.375 75 18.375 50.616 0 50.616 0L22.477 10.401v11.368L0 30.047s7.46 13.85 9.707 22.65c2.774 10.862 3.583 24.268 3.583 24.268l18.028 6.549v9.861l43.683 43.856 43.683-43.856v-9.861l18.027-6.549s.809-13.405 3.582-24.268c2.248-8.801 9.707-22.65 9.707-22.65z"/><path d="M31.317 50.241v27.002l-12.453-4.524c-.454-4.942-1.47-13.741-3.446-21.48-1.435-5.62-4.701-12.892-7.162-17.952l14.221-5.237v16.269zm96.205-22.191v16.269l-8.84 5.923v27.002l12.453-4.523c.455-4.942 1.471-13.741 3.447-21.48 1.434-5.62 4.701-12.892 7.16-17.952zM37.211 90.94 75 128.88l37.79-37.94V54.189L96.495 65.106v28.438L75 115.277 53.505 93.544V65.106L37.211 54.189z"/><path d="m75 29.004 21.495 21.733v7.275l25.135-16.839V14.506L102.65 7.49c-4.135 7.716-12.873 16.778-27.649 16.778S51.486 15.205 47.353 7.49l-18.981 7.016v26.668l25.135 16.839v-7.275z"/><path fill="#fff" d="M59.399 53.159v37.963L75 106.895l15.601-15.773V53.159L75 37.385z"/></svg>