<svg xmlns="http://www.w3.org/2000/svg" xml:space="preserve" width="150" height="137.231"><path fill="#fff" d="M127.522 21.769V10.4L99.383 0S94.414 18.374 75 18.374C55.585 18.374 50.616 0 50.616 0l-28.14 10.4v11.369L0 30.046s7.461 13.851 9.707 22.65c2.773 10.863 3.582 24.268 3.582 24.268l18.028 6.55v9.86L75 137.231l43.682-43.857v-9.86l18.027-6.55s.811-13.404 3.584-24.268c2.246-8.8 9.707-22.65 9.707-22.65z"/><path d="M22.476 44.318V28.05l-14.22 5.236c2.46 5.062 5.726 12.332 7.161 17.953 1.976 7.738 2.992 16.537 3.446 21.479l12.453 4.524V50.241ZM127.522 28.05v16.269l-8.84 5.923v27.001l12.453-4.524c.455-4.942 1.471-13.741 3.447-21.479 1.434-5.621 4.701-12.892 7.162-17.953zM53.505 65.106 37.211 54.189V90.94L75 128.88l37.789-37.94V54.189L96.494 65.106v28.438L75 115.276 53.505 93.544z"/><path d="m75 29.003 21.495 21.734v7.275l25.135-16.84V14.505l-18.98-7.016c-4.135 7.717-12.873 16.779-27.649 16.779S51.487 15.205 47.353 7.489l-18.981 7.016v26.668l25.135 16.84v-7.275z"/><path d="M56.625 92.261V52.018L75 33.44l18.374 18.578V92.26L75 110.838zM75 106.895l15.6-15.774V53.159L75 37.385 59.398 53.159v37.962z"/></svg>