<svg xmlns="http://www.w3.org/2000/svg" xml:space="preserve" width="149.999" height="137.231"><g transform="translate(-2.8 -3.676)"><path d="M130.322 25.445V14.077l-28.14-10.401s-4.969 18.375-24.383 18.375c-19.415 0-24.385-18.375-24.385-18.375L25.276 14.077v11.368L2.8 33.723s7.46 13.85 9.707 22.65c2.773 10.862 3.582 24.268 3.582 24.268l18.027 6.549v9.861L77.8 140.907l43.683-43.856V87.19l18.027-6.549s.809-13.405 3.582-24.268c2.247-8.801 9.707-22.65 9.707-22.65z"/><linearGradient id="a" x1="11.056" x2="144.543" y1="56.322" y2="56.322" gradientUnits="userSpaceOnUse"><stop offset="0" style="stop-color:#bb2f27"/><stop offset=".03" style="stop-color:#be3527"/><stop offset=".07" style="stop-color:#c64427"/><stop offset=".114" style="stop-color:#d35e27"/><stop offset=".15" style="stop-color:#e07826"/><stop offset=".159" style="stop-color:#e07a26"/><stop offset=".258" style="stop-color:#ed8b22"/><stop offset=".365" style="stop-color:#f59621"/><stop offset=".5" style="stop-color:#f79820"/><stop offset=".634" style="stop-color:#f59621"/><stop offset=".742" style="stop-color:#ed8b22"/><stop offset=".841" style="stop-color:#e07a26"/><stop offset=".85" style="stop-color:#e07826"/><stop offset=".86" style="stop-color:#db6f27"/><stop offset=".896" style="stop-color:#ce5328"/><stop offset=".931" style="stop-color:#c33f27"/><stop offset=".966" style="stop-color:#bd3326"/><stop offset="1" style="stop-color:#bb2f27"/></linearGradient><path fill="url(#a)" d="M34.116 53.917v27.002l-12.453-4.523c-.453-4.942-1.471-13.741-3.445-21.48-1.436-5.62-4.701-12.892-7.162-17.952l14.221-5.237v16.269zm96.206-22.191v16.269l-8.84 5.923V80.92l12.453-4.523c.454-4.942 1.47-13.741 3.446-21.48 1.435-5.62 4.701-12.892 7.161-17.952z" style="fill:url(#a)"/><linearGradient id="b" x1="77.8" x2="77.8" y1="132.556" y2="57.866" gradientUnits="userSpaceOnUse"><stop offset="0" style="stop-color:#f79820"/><stop offset=".1" style="stop-color:#eb8924"/><stop offset=".2" style="stop-color:#e07826"/><stop offset=".45" style="stop-color:#e07826"/><stop offset=".509" style="stop-color:#db7026"/><stop offset=".605" style="stop-color:#cf5c27"/><stop offset=".725" style="stop-color:#bf3827"/><stop offset=".75" style="stop-color:#bb2f27"/><stop offset="1" style="stop-color:#bb2f27"/></linearGradient><path fill="url(#b)" d="m40.011 94.616 37.789 37.94 37.789-37.94V57.865L99.294 68.782V97.22L77.8 118.953 56.305 97.22V68.782L40.011 57.865z" style="fill:url(#b)"/><linearGradient id="c" x1="31.17" x2="124.429" y1="36.427" y2="36.427" gradientUnits="userSpaceOnUse"><stop offset="0" style="stop-color:#bb2f27"/><stop offset=".025" style="stop-color:#bf3827"/><stop offset=".145" style="stop-color:#cf5c27"/><stop offset=".241" style="stop-color:#db7026"/><stop offset=".3" style="stop-color:#e07826"/><stop offset=".324" style="stop-color:#e58025"/><stop offset=".375" style="stop-color:#ee8d23"/><stop offset=".431" style="stop-color:#f49621"/><stop offset=".5" style="stop-color:#f79820"/><stop offset=".569" style="stop-color:#f49621"/><stop offset=".625" style="stop-color:#ee8d23"/><stop offset=".676" style="stop-color:#e58025"/><stop offset=".7" style="stop-color:#e07826"/><stop offset=".759" style="stop-color:#db7026"/><stop offset=".855" style="stop-color:#cf5c27"/><stop offset=".975" style="stop-color:#bf3827"/><stop offset="1" style="stop-color:#bb2f27"/></linearGradient><path fill="url(#c)" d="m77.8 32.68 21.494 21.733v7.275l25.135-16.839V18.182l-18.98-7.016c-4.135 7.716-12.873 16.778-27.648 16.778-14.777 0-23.516-9.063-27.648-16.778L31.17 18.182V44.85l25.135 16.839v-7.275z" style="fill:url(#c)"/><path fill="#fff" d="M62.198 56.835v37.963L77.8 110.571l15.6-15.773V56.835L77.8 41.061z"/></g></svg>