<svg xmlns="http://www.w3.org/2000/svg" xml:space="preserve" width="150" height="137.231"><g transform="translate(-2.453 -3.676)"><path d="M129.976 25.445V14.077l-28.14-10.401s-4.969 18.375-24.383 18.375S53.069 3.676 53.069 3.676L24.93 14.077v11.368L2.453 33.723s7.46 13.85 9.707 22.65c2.774 10.862 3.583 24.268 3.583 24.268l18.028 6.549v9.861l43.683 43.856 43.683-43.856V87.19l18.027-6.549s.809-13.405 3.582-24.268c2.247-8.801 9.707-22.65 9.707-22.65z"/><linearGradient id="a" x1="10.709" x2="144.196" y1="56.322" y2="56.322" gradientUnits="userSpaceOnUse"><stop offset="0" style="stop-color:#626f78"/><stop offset=".004" style="stop-color:#64717a"/><stop offset=".068" style="stop-color:#8496a1"/><stop offset=".119" style="stop-color:#99adb9"/><stop offset=".15" style="stop-color:#a0b7c2"/><stop offset=".155" style="stop-color:#a2b8c3"/><stop offset=".255" style="stop-color:#aec7d4"/><stop offset=".364" style="stop-color:#b5cddd"/><stop offset=".5" style="stop-color:#b7d1e1"/><stop offset=".636" style="stop-color:#b5cddd"/><stop offset=".746" style="stop-color:#aec7d4"/><stop offset=".845" style="stop-color:#a2b8c3"/><stop offset=".85" style="stop-color:#a0b7c2"/><stop offset=".881" style="stop-color:#99adb9"/><stop offset=".932" style="stop-color:#8496a1"/><stop offset=".997" style="stop-color:#64717a"/><stop offset="1" style="stop-color:#626f78"/></linearGradient><path fill="url(#a)" d="M33.77 53.917v27.002l-12.454-4.523c-.454-4.942-1.47-13.741-3.446-21.48-1.435-5.62-4.701-12.892-7.162-17.952l14.221-5.237v16.269zm96.206-22.191v16.269l-8.84 5.923V80.92l12.453-4.523c.454-4.942 1.47-13.741 3.446-21.48 1.435-5.62 4.701-12.892 7.161-17.952z" style="fill:url(#a)"/><linearGradient id="b" x1="77.453" x2="77.453" y1="132.556" y2="57.866" gradientUnits="userSpaceOnUse"><stop offset="0" style="stop-color:#b7d1e1"/><stop offset=".135" style="stop-color:#a8c0cd"/><stop offset=".2" style="stop-color:#a0b7c2"/><stop offset=".45" style="stop-color:#a0b7c2"/><stop offset=".513" style="stop-color:#97abb7"/><stop offset=".615" style="stop-color:#82929d"/><stop offset=".744" style="stop-color:#647079"/><stop offset=".75" style="stop-color:#626f78"/><stop offset="1" style="stop-color:#626f78"/></linearGradient><path fill="url(#b)" d="M55.958 68.782 39.664 57.865v36.751l37.789 37.94 37.789-37.94V57.865L98.947 68.782V97.22l-21.494 21.733L55.958 97.22z" style="fill:url(#b)"/><linearGradient id="c" x1="30.823" x2="124.082" y1="36.427" y2="36.427" gradientUnits="userSpaceOnUse"><stop offset="0" style="stop-color:#626f78"/><stop offset=".006" style="stop-color:#647079"/><stop offset=".135" style="stop-color:#82929d"/><stop offset=".237" style="stop-color:#97abb7"/><stop offset=".3" style="stop-color:#a0b7c2"/><stop offset=".356" style="stop-color:#acc5d2"/><stop offset=".42" style="stop-color:#b5cedd"/><stop offset=".5" style="stop-color:#b7d1e1"/><stop offset=".58" style="stop-color:#b5cedd"/><stop offset=".644" style="stop-color:#acc5d2"/><stop offset=".7" style="stop-color:#a0b7c2"/><stop offset=".763" style="stop-color:#97abb7"/><stop offset=".865" style="stop-color:#82929d"/><stop offset=".994" style="stop-color:#647079"/><stop offset="1" style="stop-color:#626f78"/></linearGradient><path fill="url(#c)" d="m77.453 32.68 21.495 21.733v7.275l25.135-16.839V18.182l-18.98-7.016c-4.135 7.716-12.873 16.778-27.649 16.778s-23.515-9.063-27.648-16.778l-18.981 7.016V44.85L55.96 61.689v-7.275z" style="fill:url(#c)"/><path fill="#fff" d="M93.054 56.835 77.453 41.061 61.852 56.835v37.963l15.601 15.773 15.601-15.773z"/></g></svg>