<svg xmlns="http://www.w3.org/2000/svg" xml:space="preserve" width="150" height="136.405"><path d="M25.913 48.039v30.342l-13.994-5.083c-.51-5.554-1.652-15.44-3.872-24.138C6.435 42.846 2.764 34.674 0 28.987l15.98-5.885v18.281ZM134.02 23.103v18.281l-9.934 6.655v30.342l13.994-5.083c.51-5.554 1.651-15.44 3.873-24.138 1.611-6.314 5.282-14.486 8.047-20.173zM50.846 64.743l-18.31-12.267v41.297L75 136.405l42.463-42.632V52.476l-18.31 12.267v31.955L75 121.12 50.846 96.698z"/><path d="m75 24.175 24.154 24.422v8.175l28.243-18.922V7.883L106.069 0C101.423 8.67 91.604 18.854 75 18.854S48.576 8.67 43.932 0l-21.33 7.883V37.85l28.244 18.922v-8.175z"/><path d="M92.53 51.319 75 33.592 57.469 51.319v42.658L75 111.701l17.53-17.724z"/></svg>