<?xml version="1.0" encoding="UTF-8" standalone="no"?>
<svg
   width="40.428001pt"
   height="20.187pt"
   viewBox="0 0 40.428 20.187"
   version="1.1"
   id="svg15"
   xmlns="http://www.w3.org/2000/svg"
   xmlns:svg="http://www.w3.org/2000/svg"><defs
   id="defs19" />



  
      /&gt;
  <path
   style="color:#000000;fill:#ffffff;fill-opacity:1;stroke-miterlimit:3;-inkscape-stroke:none"
   d="M 0,0 V 20.187 H 4.0254 V 0 Z"
   id="path2254" />
<path
   d="M 1,1.0001 H 3.025 V 19.187 H 1 Z"
   style="stroke-width:1.09375"
   id="path4" />
<path
   style="color:#000000;fill:#ffffff;fill-opacity:1;stroke-linecap:square;stroke-miterlimit:3;-inkscape-stroke:none"
   d="m 6,0 v 20.187 h 4.025 V 6.9746 l 7.649,13.2124 h 4.351 V 0 H 18 V 11.527 L 11.326,0 Z"
   id="path2248" />
<path
   d="m 7,1.0001 h 3.75 L 19,15.25 V 1.0001 c 2.025,0 0.02,-2.1e-4 2.025,0 V 19.187 H 18.25 L 9.025,3.2501 V 19.187 H 7 Z"
   style="display:inline;stroke-width:2"
   id="path8" />
<path
   style="color:#000000;display:inline;fill:#ffffff;fill-opacity:1;stroke-miterlimit:3;-inkscape-stroke:none"
   d="m 21.611,0 6.951,20.187 h 4.915 L 40.428,0 H 36.18 L 31.02,14.672 25.857,0 Z"
   id="path2242" />
<path
   d="m 23.013,1.0001 c 2.137,0 0,0 2.137,0 L 31.019,17.685 36.888,1.0001 h 2.137 L 32.763,19.187 h -3.488 z"
   style="display:inline;stroke-width:2;stroke-miterlimit:3.8;stroke-dasharray:none"
   id="path12" />
</svg>
