<?xml version="1.0" encoding="UTF-8" standalone="no"?>
<!-- Generator: Adobe Illustrator 15.1.0, SVG Export Plug-In . SVG Version: 6.00 Build 0)  -->

<svg
   version="1.1"
   id="Layer_1"
   x="0px"
   y="0px"
   width="381.92099"
   height="333.66699"
   viewBox="0 0 381.92099 333.66699"
   enable-background="new 0 0 400 350"
   xml:space="preserve"
   xmlns="http://www.w3.org/2000/svg"
   xmlns:svg="http://www.w3.org/2000/svg"><defs
   id="defs2" />
<g
   id="Layer_1_1_"
   transform="translate(-9.039,-8.444)">
</g>
<g
   id="Layer_2"
   transform="translate(-9.039,-8.444)">
	<path
   fill="#ffffff"
   d="m 200,342.111 c -30.37,0 -58.003,-13.956 -85.988,-29.503 C 98.681,304.089 88.169,294.52 79.721,286.831 74.755,282.31 67.954,276.119 65.543,276.119 c -5.981,0 -10.621,5.466 -10.621,17.839 0,4.641 0.619,10.208 0.619,10.208 0,0 -46.502,-16.395 -46.502,-65.578 0,-32.835 34.006,-51.484 35.454,-52.262 l 1.581,-0.85 c -1.748,-10.374 -2.802,-22.179 -2.802,-35.564 0,-62.111 27.459,-96.454 50.496,-114.326 27.615,-21.425 58.51,-27.142 72.412,-27.142 15.291,0 26.649,3.487 33.82,6.661 7.17,-3.174 18.528,-6.661 33.82,-6.661 13.901,0 44.796,5.717 72.411,27.142 23.037,17.873 50.496,52.215 50.496,114.326 0,13.385 -1.054,25.19 -2.801,35.564 l 1.58,0.85 c 1.448,0.777 35.454,19.427 35.454,52.262 0,49.184 -46.503,65.578 -46.503,65.578 0,0 0.619,-5.567 0.619,-10.208 0,-12.373 -4.641,-17.839 -10.621,-17.839 -2.411,0 -9.213,6.19 -14.178,10.712 -8.447,7.689 -18.96,17.259 -34.291,25.777 -27.982,15.547 -55.616,29.503 -85.986,29.503 z"
   id="path1" />
	<path
   d="m 128.647,55.463 c -40.419,0 -59.392,40.832 -59.392,71.353 0,30.521 15.26,46.606 15.26,46.606 0,0 -10.724,9.486 -10.724,28.459 0,18.972 14.023,38.356 14.023,38.356 0,0 -29.694,-21.859 -29.694,-90.324 0,-104.76 83.314,-126.62 108.061,-126.62 22.272,0 33.82,8.661 33.82,8.661 0,0 11.547,-8.661 33.818,-8.661 24.747,0 108.062,21.86 108.062,126.62 0,68.465 -29.696,90.325 -29.696,90.325 0,0 14.022,-19.385 14.022,-38.356 0,-18.973 -10.724,-28.459 -10.724,-28.459 0,0 15.262,-16.086 15.262,-46.606 0,-30.52 -18.974,-71.353 -59.393,-71.353 -40.42,0 -63.516,20.623 -71.352,32.583 -7.836,-11.962 -30.933,-32.584 -71.353,-32.584 z m 219.832,143.943 c 0,0 -22.685,62.692 -101.461,88.263 0,0 69.702,-38.358 69.702,-81.665 0,-15.672 -8.661,-24.747 -8.661,-24.747 0,0 -9.073,9.075 -18.972,13.611 0,0 30.521,-26.396 30.521,-65.578 0,-39.182 -23.51,-61.454 -47.432,-61.454 -23.921,0 -53.204,9.074 -72.176,40.831 -18.973,-31.757 -48.255,-40.831 -72.177,-40.831 -23.922,0 -47.431,22.272 -47.431,61.454 0,39.182 30.521,65.578 30.521,65.578 -9.898,-4.536 -18.972,-13.611 -18.972,-13.611 0,0 -8.662,9.075 -8.662,24.747 0,43.307 69.703,81.665 69.703,81.665 -78.777,-25.57 -101.461,-88.263 -101.461,-88.263 0,0 -27.633,14.847 -27.633,39.182 0,24.334 18.56,40.42 18.56,40.42 0,0 7.836,-17.736 23.097,-17.736 15.26,0 25.984,21.858 55.68,38.357 29.696,16.498 53.205,27.635 78.776,27.635 25.572,0 49.08,-11.137 78.775,-27.635 29.696,-16.499 40.419,-38.357 55.681,-38.357 15.26,0 23.096,17.736 23.096,17.736 0,0 18.56,-16.086 18.56,-40.42 -0.002,-24.335 -27.634,-39.182 -27.634,-39.182 z m -180.34,-29.181 c -1.392,-3.248 -4.176,-5.568 -8.352,-5.568 -4.176,0 -4.021,1.083 -10.981,1.083 -25.52,0 -27.221,-22.736 -27.221,-25.21 0,-2.474 1.392,-4.794 0.154,-7.27 -1.237,-2.475 -3.712,-3.866 -3.712,-3.866 0,0 8.971,-2.166 17.941,-2.166 29.077,0 35.882,8.042 35.882,21.653 0.001,13.611 -3.711,21.344 -3.711,21.344 z M 200,293.855 c 0,0 -23.921,-29.078 -23.715,-63.929 0,0 3.918,3.505 7.011,3.505 5.775,0 7.218,-15.879 16.704,-15.879 9.485,0 10.93,15.879 16.704,15.879 3.093,0 7.011,-3.505 7.011,-3.505 C 223.921,264.777 200,293.855 200,293.855 Z m 31.86,-123.63 c 0,0 -3.712,-7.733 -3.712,-21.344 0,-13.611 6.805,-21.653 35.882,-21.653 8.971,0 17.941,2.166 17.941,2.166 0,0 -2.475,1.392 -3.712,3.866 -1.237,2.475 0.155,4.795 0.155,7.27 0,2.475 -1.702,25.21 -27.222,25.21 -6.96,0 -6.806,-1.083 -10.981,-1.083 -4.175,0 -6.959,2.32 -8.351,5.568 z"
   id="path2" />
</g>
</svg>
