<svg xmlns="http://www.w3.org/2000/svg" width="196.368" height="215.749" viewBox="0 0 196.368 215.749"><defs><linearGradient id="a" x1="-7.069" x2="202.74" y1="27.889" y2="162.456" gradientUnits="userSpaceOnUse"><stop offset=".104" stop-color="#b7281b"/><stop offset=".12" stop-color="#bb3018"/><stop offset=".197" stop-color="#cf550f"/><stop offset=".274" stop-color="#df7208"/><stop offset=".351" stop-color="#ea8603"/><stop offset=".426" stop-color="#f19201"/><stop offset=".5" stop-color="#f49700"/><stop offset=".577" stop-color="#f29300"/><stop offset=".641" stop-color="#ec8903"/><stop offset=".7" stop-color="#e37807"/><stop offset=".756" stop-color="#d5600d"/><stop offset=".81" stop-color="#c44114"/><stop offset=".845" stop-color="#b7281b"/></linearGradient></defs><path d="M63.285 11.028c1.116 5.525 5.118 10.03 9.896 12.764l49.431.173c4.712-2.349 7.995-6.084 9.903-10.956.171-.438.375-2.152.871-1.96l38.956 19.909c-.961 12.746 3.285 27.227 14.671 34.169-11.11 22.714-19.116 47.266-20.522 72.731l-34.157 35.37 14.982-11.864 5.602 10.27c-19.222 10.361-36.926 23.246-54.79 35.727-17.79-12.504-35.497-25.265-54.633-35.689l-.006-.729 5.534-9.579 14.148 11.742.354-.354-33.677-34.894c-1.535-25.355-9.199-50.065-20.71-72.53 6.742-4.295 11.117-10.93 13.273-18.576.924-3.274 1.707-7.515 1.797-10.91.027-1.036-.428-4.556-.001-5.037zm-5.103 33.856L36.037 66.528l16.284 62.521c14.27 13.127 28.245 26.606 42.609 39.627.441.4 2.707 2.56 2.885 2.642.184.084.337.173.546.086l45.582-42.19 16.16-62.867-22.142-21.507z" style="fill:url(#a)"/><path d="M69.999 0c.056 3.432-.824 7.098.233 10.436.841 2.653 2.933 5.019 5.22 6.528h45.434c2.255-1.471 4.256-3.774 5.16-6.35 1.172-3.342.221-7.152.294-10.614l.89.187 52.094 26.542c.587.66-.202 4.405-.252 5.508-.38 8.26 1.988 18.618 8.158 24.469 2.623 2.488 5.97 3.914 9.132 5.544.032.354-.07.66-.207.98-1.505 3.513-4.062 7.39-5.772 11.01-9.93 21.016-15.896 43.706-17.412 66.983l-19.745 16.216 9.451 17.113c-22.993 11.116-43.422 26.713-64.321 41.197-.587-.475-15.331-10.659-22.047-15.264-13.68-9.381-27.636-18.792-42.647-25.933l9.45-17.113L23.37 141.22c-.568-3.751-.655-7.584-1.108-11.36C19.428 106.215 11.392 83.447 0 62.673l.026-.545c4.867-2.02 9.013-4.53 12.01-8.967 3.943-5.838 5.552-13.925 5.231-20.923-.05-1.103-.84-4.848-.252-5.508zm-6.714 11.028L24.207 30.805c-.427.48.028 4 0 5.036-.089 3.396-.872 7.637-1.796 10.911C20.255 54.4 15.88 61.033 9.137 65.33c11.512 22.464 19.176 47.174 20.711 72.53l33.677 34.893-.354.354-14.148-11.742-5.534 9.58.006.728c19.136 10.424 36.843 23.185 54.633 35.689 17.864-12.481 35.568-25.366 54.79-35.727l-5.602-10.27-14.982 11.865 34.157-35.37c1.406-25.466 9.413-50.018 20.522-72.732-11.386-6.942-15.632-21.423-14.671-34.17L133.386 11.05c-.496-.193-.7 1.521-.871 1.959-1.908 4.872-5.19 8.607-9.903 10.956l-49.431-.173c-4.778-2.733-8.78-7.239-9.896-12.764m-5.103 33.856 79.779-.044 22.142 21.507-16.16 62.867-45.582 42.19c-.209.087-.362-.002-.546-.086-.178-.082-2.444-2.242-2.885-2.642-14.364-13.02-28.34-26.5-42.609-39.627L36.037 66.53Zm-11.916 41.43c3.05 11.823 5.936 23.694 9.11 35.485.462 1.717.74 3.512 1.43 5.162 8.26 7.75 16.913 15.266 25.181 22.89.035.032.03.376.25.58 5.28 4.867 10.603 9.78 15.933 14.533 5.33-4.753 10.652-9.666 15.932-14.533.22-.204.215-.548.25-.58 8.27-7.623 16.935-15.126 25.18-22.89.69-1.65.969-3.445 1.431-5.162 3.174-11.79 6.057-23.663 9.11-35.485 1.524-5.9 3.322-11.756 4.743-17.69l-.175-1.145-18.402-17.8c-7.294-.1-14.595-.035-21.887-.049-10.785-.02-21.58-.02-32.365 0-7.292.014-14.593-.052-21.887.05l-18.402 17.8-.175 1.144c1.447 5.928 3.22 11.788 4.743 17.69M60.1 49.679l-18.402 17.8-.175 1.145c1.447 5.928 3.22 11.788 4.743 17.69H79.59v35.485H55.376c.462 1.717.74 3.512 1.43 5.162 8.26 7.75 16.913 15.266 25.181 22.89v-25.655h32.365v25.655c8.27-7.623 16.935-15.126 25.18-22.89.69-1.65.969-3.445 1.431-5.162h-24.214V86.314h33.324c1.524-5.9 3.322-11.756 4.743-17.69l-.175-1.145-18.402-17.8c-7.294-.1-14.595-.035-21.887-.049v34.286H81.987V49.63c-7.292.014-14.593-.052-21.887.05"/><path d="M114.352 49.63v34.286H81.987V49.63c10.785-.02 21.58-.02 32.365 0m-32.115 100.8c5.28 4.868 10.603 9.78 15.933 14.534 5.33-4.753 10.652-9.666 15.932-14.533.22-.204.215-.548.25-.58v-25.655H81.987v25.655c.035.032.03.376.25.58M55.376 121.8H79.59V86.314H46.266c3.05 11.823 5.936 23.694 9.11 35.485m61.373-35.485v35.485h24.214c3.174-11.79 6.057-23.663 9.11-35.485z" style="fill:#fff"/></svg>