<svg xmlns="http://www.w3.org/2000/svg" width="196.368" height="215.749" viewBox="0 0 196.368 215.749"><path d="M58.182 44.884 36.037 66.528l16.284 62.521c14.27 13.127 28.245 26.607 42.609 39.627.441.4 2.707 2.56 2.885 2.642.184.084.337.173.546.086l45.582-42.19 16.16-62.867-22.142-21.507zm23.805 4.746c10.785-.02 21.58-.02 32.365 0v34.286H81.987Zm0 0q-2.734.004-5.47 0-2.736-.005-5.473-.008l5.473.007q2.736.005 5.47.001M46.266 86.314H79.59v35.485H55.376c-3.174-11.79-6.06-23.662-9.11-35.485m68.086 63.537c-.035.032-.03.376-.25.58-5.28 4.867-10.602 9.78-15.933 14.533-5.33-4.753-10.652-9.666-15.932-14.533-.22-.204-.215-.548-.25-.58-6.201-5.718-12.618-11.375-18.924-17.116 6.306 5.74 12.723 11.398 18.924 17.116v-25.655h32.365zm0 0c4.135-3.811 8.368-7.593 12.599-11.392-4.23 3.8-8.464 7.58-12.6 11.392m35.721-63.537c-3.053 11.822-5.936 23.694-9.11 35.485h-24.214V86.314Zm4.743-17.69-.175-1.145-18.402-17.8 18.402 17.8zm32.414-11.918c-6.17-5.85-8.537-16.209-8.158-24.469.05-1.103.84-4.848.252-5.508L127.23.187 126.34 0c-.073 3.462.878 7.272-.295 10.615-.903 2.575-2.904 4.878-5.159 6.349H75.453c-2.288-1.51-4.38-3.875-5.22-6.528-1.058-3.338-.178-7.004-.234-10.436L17.015 26.73c-.587.66.202 4.404.252 5.507.321 6.998-1.288 15.085-5.23 20.923-2.998 4.438-7.144 6.947-12.01 8.967L0 62.672c11.392 20.774 19.428 43.542 22.262 67.189.453 3.775.54 7.608 1.108 11.359l19.743 16.219-9.451 17.113c15.011 7.14 28.967 16.552 42.647 25.933 6.716 4.605 21.46 14.789 22.047 15.264 20.899-14.484 41.328-30.081 64.321-41.197l-9.45-17.113 19.744-16.216c1.516-23.277 7.482-45.967 17.412-66.983 1.71-3.62 4.267-7.497 5.772-11.01.137-.32.24-.626.207-.98-3.163-1.63-6.509-3.056-9.132-5.544m-20.74 81.152-34.156 35.37 14.982-11.864 5.602 10.27c-19.222 10.361-36.926 23.246-54.79 35.727-17.79-12.504-35.497-25.265-54.633-35.689l-.006-.729 5.534-9.579 14.148 11.742.354-.354-33.677-34.894c-1.535-25.355-9.199-50.065-20.71-72.53 6.742-4.295 11.117-10.93 13.273-18.576.924-3.274 1.707-7.515 1.797-10.91.027-1.036-.428-4.556-.001-5.037l39.078-19.777c1.116 5.525 5.118 10.03 9.896 12.764l49.431.173c4.712-2.349 7.995-6.084 9.903-10.956.171-.438.375-2.152.871-1.96l38.956 19.909c-.961 12.746 3.285 27.227 14.671 34.169-11.11 22.713-19.116 47.266-20.522 72.731"/></svg>