<svg xmlns="http://www.w3.org/2000/svg" width="600" height="725.907"><linearGradient id="a" x1="0" x2="1" y1="0" y2="0" gradientTransform="matrix(0 35.83203 35.83203 0 401 465.805)" gradientUnits="userSpaceOnUse" spreadMethod="pad"><stop offset="0" style="stop-color:#536e78"/><stop offset=".3" style="stop-color:#99aebc"/><stop offset=".5" style="stop-color:#d9eaf3"/><stop offset=".7" style="stop-color:#99aebc"/><stop offset="1" style="stop-color:#536e78"/></linearGradient><path d="M215.431 478.082s1.978-.853 3.194-1.27c2.396 7.295 6.37 19.346 6.37 19.346H374.93s4.047-12.05 6.442-19.346c1.217.49 6.243 2.54 7.314 2.976 3.902 2.759 9.419 6.806 9.419 6.806 13.538 9.709 18.583 16.296 20.144 18.71 0 0 2.468 3.757 3.175 4.9-12.25 12.177-32.32 30.615-56.058 47.347-14.899-13.683-35.878-24.59-64.17-24.59h-2.196c-28.42 0-49.47 10.907-64.37 24.59-23.737-16.732-43.808-35.17-56.003-47.347.726-1.144 3.194-4.973 3.194-4.973 1.488-2.34 6.533-8.928 20.07-18.637l9.347-6.733c.997-.508 4.192-1.779 4.192-1.779M60.668 0s24.118 72.954 25.098 76.002C80.594 84.586 73.37 96.42 73.37 96.42c-1.29 2.123-26.659 44.734-45.732 108.523-1.198-1.561-6.243-7.786-6.243-7.786s-6.442 50.96-9.128 72.664c-.073.199-.29 1.542-.29 1.542l.072.073-1.851 14.464c-2.268 18.22-3.394 36.367-3.394 54.025-1.144-.926-6.805-5.68-6.805-5.68s5.462 42.048 9.001 69.76c.073 1.778.218 4.391.218 4.391s.346.363.418.363c.999 7.44 2.759 21.469 2.759 21.469 10.217 78.979 30.85 126.834 31.685 128.812l4.12 9.364 8.293 6.098c3.267 2.323 71.883 51.521 151.062 74.986 3.121 15.88 9.364 34.318 23.682 49.634 11.343 12.268 31.904 26.786 65.078 26.786h7.295c33.247 0 53.808-14.518 65.15-26.786 14.32-15.316 20.562-33.755 23.683-49.561 79.179-23.538 147.795-72.736 151.062-75.059l8.22-6.025 4.12-9.437c.907-1.978 21.541-49.833 31.758-128.812 0 0 1.833-14.59 2.977-22.884l.273-.29s.145-2.124.145-3.267c3.611-27.712 9.001-69.47 9.001-69.47s-5.662 4.683-6.805 5.68c0-17.657-1.126-35.805-3.394-54.025 0 0-1.343-10.562-1.851-14.536l.073-.073s-.218-.98-.218-1.125c-2.686-21.342-9.147-73.153-9.147-73.153s-5.027 6.297-6.297 7.858c-19.073-63.79-44.39-106.4-45.732-108.523 0 0-7.223-11.833-12.395-20.417C515.214 72.954 539.387 0 539.387 0H60.669Z"/><path d="m390.695 501.637 7.68-23.168h5.25l7.68 23.168zm14.817-21.957s.453-.133 1.066-.434l8.067 10.074c-.911 4.692-2.934 8.008-2.934 8.008zm-18.157 9.64 8.067-10.074c.613.305 1.066.434 1.066.434l-6.199 17.648s-2.023-3.316-2.934-8.008m20.27-10.718c.539-.391 1.227-.957 1.637-1.586l5.718 5.226q.096 1.272.098 2.692a23 23 0 0 1-.176 2.773zm-20.703 6.332q.002-1.42.098-2.692l5.718-5.226c.41.632 1.098 1.195 1.637 1.586l-7.273 9.105c-.114-.891-.18-1.82-.18-2.773m22.812-8.879c.114-.336.196-.7.223-1.09 0 0-2.66-3.016-5.895-4.766 0 0-.707 2.071-2.996 2.071h-.132c-2.293 0-2.996-2.071-2.996-2.071-3.239 1.754-5.899 4.766-5.899 4.766.031.39.113.758.227 1.09l-5.047 4.23c.527-4.109 1.59-6.531 1.59-6.531s4.445-3.234 9.027-4.176c0 0-.274-3.773 2.961-3.773h.406c3.235 0 2.961 3.769 2.961 3.769 4.582.946 9.027 4.18 9.027 4.18s1.059 2.422 1.59 6.531z" style="fill:url(#a)" transform="matrix(18.14768 0 0 -18.14768 -6977.22 9141.403)"/></svg>