<svg xmlns="http://www.w3.org/2000/svg" xmlns:xlink="http://www.w3.org/1999/xlink" width="600.002" height="264.338"><linearGradient id="c" x1="0" x2="1" y1="0" y2="0" gradientTransform="matrix(20.23085 -9.4338 -9.4338 -20.23083 420.796 398.79)" gradientUnits="userSpaceOnUse" spreadMethod="pad"><stop offset="0" style="stop-color:#fff"/><stop offset=".3" style="stop-color:#d9d9d9"/><stop offset=".5" style="stop-color:#b2b2b2"/><stop offset=".8" style="stop-color:#737373"/><stop offset="1" style="stop-color:#4d4d4d"/></linearGradient><linearGradient id="b" x1="0" x2="1" y1="0" y2="0" gradientTransform="matrix(34.59459 -16.13171 -16.13171 -34.59457 377.494 394.363)" gradientUnits="userSpaceOnUse" spreadMethod="pad"><stop offset="0" style="stop-color:#fff"/><stop offset=".25" style="stop-color:#d9d9d9"/><stop offset=".4" style="stop-color:#b2b2b2"/><stop offset=".7" style="stop-color:#737373"/><stop offset="1" style="stop-color:#4d4d4d"/></linearGradient><linearGradient id="a" x1="0" x2="1" y1="0" y2="0" gradientTransform="matrix(-26.28987 -7.04436 -7.04436 26.28989 361.154 402.19)" gradientUnits="userSpaceOnUse" spreadMethod="pad"><stop offset="0" style="stop-color:#fff"/><stop offset=".3" style="stop-color:#d9d9d9"/><stop offset=".45" style="stop-color:#b2b2b2"/><stop offset=".7" style="stop-color:#737373"/><stop offset="1" style="stop-color:#4d4d4d"/></linearGradient><linearGradient xlink:href="#a" id="d" x1="0" x2="1" y1="0" y2="0" gradientTransform="matrix(-99.27712 26.60126 -26.60126 -99.2772 185.241 60.514)" gradientUnits="userSpaceOnUse" spreadMethod="pad"/><linearGradient xlink:href="#b" id="e" x1="0" x2="1" y1="0" y2="0" gradientTransform="matrix(130.63782 60.91737 -60.91737 130.63774 246.945 90.07)" gradientUnits="userSpaceOnUse" spreadMethod="pad"/><linearGradient xlink:href="#c" id="f" x1="0" x2="1" y1="0" y2="0" gradientTransform="matrix(76.39675 35.62439 -35.62439 76.39667 410.464 73.353)" gradientUnits="userSpaceOnUse" spreadMethod="pad"/><path d="M444.912 264.337a9.8 9.8 0 0 1-5.635-1.786l-17.733-12.507a9.86 9.86 0 0 1-2.843-12.967l42.275-73.06-7.568-4.912c-14.293-9.086-29.666-15.192-45.7-18.277-1.24 14.927-8.036 33.925-28.337 42.29-5.513 2.288-12.182 3.466-19.308 3.466-9.203 0-23.511-1.975-39.443-11.385-4.101-2.42-102.004-59.287-207.648-59.287-7.923 0-15.815.325-23.428.974l-79.256 3.705c-.163 0-.325.015-.472.015-4.468 0-8.391-3.04-9.513-7.375a9.88 9.88 0 0 1 5.208-11.288c48.793-23.941 84.33-36.183 105.984-42.35-13.172-7.285-32.038-17.227-55.228-28.069a9.795 9.795 0 0 1-5.517-10.562 9.816 9.816 0 0 1 8.72-8.112c.676-.06 16.43-1.578 37.732-1.578 12.877 0 25.018.574 36.124 1.665 37.645 3.701 110.115 16.212 186.127 58.06 1.137-9.248 2.466-15.313 2.48-15.384l1.402-6.684c.62-2.995 2.64-5.532 5.38-6.843l6.3-2.98c19.663-9.368 43.37-14.088 70.423-14.088 55.213 0 106.989 19.855 109.157 20.712l13.983 5.381 5.09.193c-2.583-4.943-3.938-10.456-3.938-16.196C529.73 15.755 545.5 0 564.882 0c19.365 0 35.12 15.755 35.12 35.108 0 19.398-15.755 35.153-35.12 35.153-.577 0-1.15-.015-1.73-.03l.874 3.481c.634 2.564.234 5.28-1.152 7.508L453.306 259.647a9.74 9.74 0 0 1-6.42 4.471 8.3 8.3 0 0 1-1.975.22" style="fill:#fff"/><path d="M485.106 144.177s-3.523-11.095-10.827-26.728c0 0 20.21-22.318 48.4-36.924zM564.868 9.811c-13.972 0-25.316 11.328-25.316 25.327 0 6.963 2.832 13.288 7.394 17.877l-4.974 8.45-15.4-.603c-7.155-2.757-15.516-5.99-15.516-5.99-4.191-1.62-103.48-39.382-171.82-6.902l-6.283 2.994-1.461 6.801c-.178.884-2.776 13.542-3.6 29.383-81.56-48.487-161.88-61.11-195.541-64.445-36.048-3.558-71.922-.076-71.922-.076 47.996 22.424 77.413 40.92 77.413 40.92S93.807 69.58 9.816 110.78l78.92-3.7c117.592-9.898 232.046 56.82 236.869 59.653 19.485 11.532 38.929 11.872 50.02 7.3 26.95-11.092 22.068-44.58 22.068-44.58 17.953 1.832 39.224 7.538 61.085 21.404l15.37 10.019-46.95 81.129 17.729 12.525 109.57-178.427-2.095-8.35 5.015-8.542c2.36.737 4.838 1.254 7.45 1.254 14 0 25.328-11.344 25.328-25.327 0-13.999-11.33-25.327-25.327-25.327"/><path d="M332.76 154.607C309.81 141.05 199.19 83.655 87.555 93.035c0 0 44.858-15.637 82.412-21.89 0 0-8.334-13.557-54.238-35.478 0 0 102.254 1.05 208.683 65.733 0 0 0 17.73 6.269 32.362 6.253 14.588 15.637 10.415 15.637 10.415s14.618 11.491 27.14 15.649c0 0-17.744 8.35-40.696-5.219" style="fill:#fff"/><path d="M169.967 71.144c-37.555 6.254-82.413 21.891-82.413 21.891 36.746-3.085 73.387 1.061 106.81 8.512l-13.435-57.1c-39.3-8.513-65.2-8.78-65.2-8.78 45.903 21.92 54.238 35.477 54.238 35.477" style="fill:url(#d);stroke-width:3.77625"/><path d="M236.304 112.906c48.015 15.278 84.376 34.575 96.457 41.7 22.952 13.569 40.696 5.22 40.696 5.22-12.522-4.158-27.14-15.65-27.14-15.65s-9.384 4.174-15.637-10.414c-6.269-14.633-6.269-32.347-6.269-32.347a457 457 0 0 0-65.038-32.707Z" style="fill:url(#e);stroke-width:3.77625"/><path d="m383.502 146.771-15.267-7.817c7.303-6.253 15.652-5.192 15.652-5.192z" style="fill:#4d4d4d"/><path d="m464.235 105.572-12.507-1.046 14.602 34.428c-62.617-39.65-122.093-18.764-122.093-18.764-6.27-25.059 1.046-59.506 1.046-59.506 63.652-30.251 160.683 7.319 160.683 7.319-31.286 20.87-41.731 37.57-41.731 37.57" style="fill:#fff"/><path d="M409.082 76.733c-7.363 13.897-16.358 38.235-16.358 38.235 21.109 1.253 47.067 7.2 73.606 23.986l-14.602-34.428 12.507 1.046s10.445-16.698 41.73-37.57c0 0-34.843-13.496-76.468-17.79 0 0-13.04 12.613-20.415 26.521" style="fill:url(#f);stroke-width:3.77625"/></svg>