<svg xmlns="http://www.w3.org/2000/svg" width="600" height="253.013"><radialGradient id="a" cx="0" cy="0" r="1" fx="0" fy="0" gradientTransform="translate(324.633 123.747)scale(201.40036)" gradientUnits="userSpaceOnUse" spreadMethod="pad"><stop offset="0" style="stop-color:#f6b91d"/><stop offset=".7" style="stop-color:#d3641c"/><stop offset="1" style="stop-color:#bf331c"/></radialGradient><path d="M139.84 56.212S96.398 31.599 57.183 15.406c0 0 45.682-4.737 69.176-4.737 12.149 0 23.604.536 34.05 1.554 35.458 3.507 103.736 15.286 175.335 54.722 1.055-8.642 2.24-14.314 2.276-14.425l1.38-6.394.934-4.45 4.127-1.98 5.921-2.823c18.543-8.781 40.843-13.269 66.326-13.269 50.28 0 97.554 17.498 102.8 19.45l13.223 5.126 4.774.222a33 33 0 0 1-3.72-15.249C533.786 14.86 548.638 0 566.894 0 585.177 0 600 14.86 600 33.153c0 18.21-14.823 33.108-33.107 33.108-.546 0-1.083-.037-1.629-.037l1.805 7.013-110.416 179.776-31.7-22.336 44.062-76.115-7.088-4.664c-13.444-8.494-27.944-14.314-43.082-17.21-1.156 14.101-7.56 31.987-26.676 39.834-5.21 2.165-11.492 3.285-18.182 3.285-8.707 0-22.152-1.842-37.188-10.734-3.84-2.276-96.37-55.842-195.58-55.842C106.01 109.231 0 115.7 0 115.7s59.895-34.874 139.84-59.487" style="fill:#fff"/><path d="M491.75 135.834s-3.295-10.41-10.197-25.16c0 0 19.052-20.994 45.58-34.763zM566.892 9.29c-13.158 0-23.854 10.669-23.854 23.863 0 6.57 2.674 12.501 6.976 16.84l-4.7 7.986-14.5-.574a4086 4086 0 0 1-14.6-5.68c-3.942-1.518-97.48-37.078-161.854-6.469l-5.93 2.822-1.37 6.394c-.148.833-2.6 12.723-3.396 27.685-76.81-45.682-152.462-57.572-184.162-60.718-33.968-3.359-67.769-.074-67.769-.074 45.22 21.143 72.941 38.53 72.941 38.53s-41.49 5.672-120.612 44.497l74.347-3.47c110.786-9.327 218.565 53.492 223.117 56.166 18.368 10.881 36.688 11.205 47.098 6.866 25.409-10.447 20.782-41.963 20.782-41.963 16.915 1.703 36.975 7.125 57.544 20.172l14.49 9.429-44.238 76.41 16.702 11.789L557.13 71.71l-1.99-7.838 4.738-8.059c2.24.685 4.553 1.194 7.014 1.194 13.195 0 23.854-10.706 23.854-23.855 0-13.194-10.66-23.863-23.854-23.863" style="fill:#bf331c"/><path d="M546.76 33.114c0 5.386 2.1 10.438 5.894 14.24l2.017 2.018-1.48 2.461-4.664 8.023-1.12 1.878-2.202-.065-14.527-.583-.62-.037-.573-.213-14.602-5.681c-4.95-1.878-49.883-18.57-98.137-18.57-23.567 0-44.025 4.006-60.792 11.991l-4.266 2.064-.98 4.626a194 194 0 0 0-3.322 27.074l-.324 6.144-5.274-3.146C265.053 39.693 188.494 28.016 159.143 25.12a342 342 0 0 0-32.922-1.518c-7.624 0-14.536.222-20.097.51 37.372 18.181 60.255 32.496 60.505 32.635l8.605 5.422-10.086 1.415c-.36.028-36.077 5.275-102.939 36.254l55.879-2.61c7.55-.61 15.36-.934 23.17-.934 103.3 0 198.143 55.259 202.15 57.609 9.724 5.783 20.568 8.966 30.506 8.966 5.062 0 9.651-.833 13.306-2.35 22.374-9.18 18.682-36.827 18.543-37.984l-.694-4.737 4.7.509c20.968 2.128 40.88 9.142 59.21 20.745l14.453 9.429 2.97 1.915-1.739 3.044-42.545 73.478 10.743 7.588L553.154 71.098l-1.583-6.357-.398-1.49.787-1.258 4.7-8.06 1.518-2.535 2.785.87c2.202.685 4.09 1.009 5.931 1.009 11.132 0 20.135-9.031 20.135-20.163 0-11.103-9.003-20.134-20.135-20.134a20.17 20.17 0 0 0-20.134 20.134m-58.516 103.837c-.037-.074-3.368-10.41-10.049-24.76l-1.018-2.203 1.629-1.841c.796-.87 19.81-21.615 46.663-35.569l11.427-5.922-6.542 11.095-35.392 59.96-4.229 7.16z" style="fill:url(#a);stroke-width:9.25298"/><path d="M348.291 145.67c-21.652-12.76-125.859-66.835-231-57.98 0 0 42.249-14.749 77.641-20.634 0 0-7.846-12.76-51.113-33.403 0 0 96.324.98 196.589 61.921 0 0 0 16.692 5.894 30.47 5.894 13.731 14.75 9.79 14.75 9.79s13.73 10.844 25.547 14.749c0 0-16.693 7.874-38.308-4.913" style="fill:#bf331c"/><path d="M373.302 149.278c-7.735 0-15.545-2.276-23.17-6.791-4.052-2.388-99.867-58.303-205.878-59.423 14.888-4.414 34.014-9.466 51.29-12.362l5.421-.907-2.859-4.654c-.323-.51-6.68-10.447-36.216-26.5 32.136 3.432 102.69 15.618 174.872 59.024.213 5.099 1.194 18.33 6.144 29.823 4.7 10.946 11.53 12.574 15.175 12.574.796 0 1.554-.074 2.174-.176 2.563 1.916 8.134 5.885 14.417 9.355-.435.037-.861.037-1.37.037" style="fill:#fff"/><path d="m396.074 138.295-14.389-7.338c6.866-5.894 14.75-4.913 14.75-4.913zm76.013-38.788-11.788-1.01 13.768 32.46c-58.95-37.372-115.005-17.71-115.005-17.71-5.894-23.604 1.008-56.027 1.008-56.027 59.932-28.48 151.342 6.903 151.342 6.903-29.461 19.626-39.325 35.384-39.325 35.384" style="fill:#bf331c"/><path d="M466.304 122.14c-21.726-11.64-45.802-17.748-70.193-17.748-16.091 0-28.305 2.6-34.264 4.192-3.507-18.867.25-42.222 1.48-48.8 14.676-6.607 32.599-9.938 53.242-9.938 36.466 0 72.247 10.52 86.747 15.36-20.098 14.277-29.749 25.991-33.043 30.433l-9.65-.824-6.108-.509 2.388 5.635z" style="fill:#fff"/></svg>