<svg xmlns="http://www.w3.org/2000/svg" width="600" height="252.982"><radialGradient id="a" cx="0" cy="0" r="1" fx="0" fy="0" gradientTransform="matrix(201.3967 0 0 201.39661 324.626 123.727)" gradientUnits="userSpaceOnUse" spreadMethod="pad"><stop offset="0" style="stop-color:#bf99c3"/><stop offset=".663" style="stop-color:#7b5190"/><stop offset="1" style="stop-color:#612c75"/></radialGradient><path d="M139.86 56.205s-43.437-24.61-82.647-40.8c0 0 45.677-4.738 69.167-4.738 12.148 0 23.602.537 34.047 1.555 35.453 3.506 103.722 15.284 175.313 54.715 1.055-8.641 2.239-14.313 2.276-14.424l1.378-6.393.935-4.45 4.126-1.98 5.921-2.821c18.54-8.78 40.838-13.268 66.317-13.268 50.275 0 97.542 17.496 102.788 19.448l13.221 5.125 4.774.222a33 33 0 0 1-3.72-15.247C533.757 14.86 548.607 0 566.86 0 585.142 0 600 14.858 600 33.15c0 18.207-14.858 33.102-33.14 33.102-.546 0-1.083-.037-1.628-.037l1.804 7.013-110.402 179.754-31.697-22.334 44.057-76.105-7.087-4.663c-13.443-8.493-27.94-14.313-43.076-17.209-1.157 14.1-7.56 31.984-26.673 39.83-5.21 2.164-11.491 3.284-18.18 3.284-8.706 0-22.15-1.841-37.183-10.732-3.84-2.276-96.358-55.835-195.556-55.835C106.035 109.218 0 115.685 0 115.685s59.887-34.87 139.86-59.48" style="fill:#fff"/><path d="M491.726 135.817s-3.294-10.408-10.196-25.156c0 0 19.05-20.992 45.575-34.759zM566.86 9.289c-13.156 0-23.851 10.667-23.851 23.86 0 6.57 2.673 12.5 6.976 16.839l-4.7 7.984-14.498-.574c-6.754-2.609-14.6-5.68-14.6-5.68-3.94-1.518-97.467-37.072-161.832-6.467l-5.93 2.822-1.37 6.393c-.148.832-2.6 12.72-3.396 27.681-76.8-45.676-152.442-57.565-184.139-60.71-33.963-3.359-67.76-.075-67.76-.075 45.213 21.14 72.895 38.525 72.895 38.525s-41.448 5.672-120.56 44.492l74.338-3.47c110.735-9.325 218.537 53.486 223.09 56.16 18.364 10.88 36.683 11.203 47.091 6.864 25.406-10.445 20.78-41.957 20.78-41.957 16.912 1.703 36.97 7.124 57.537 20.17l14.488 9.427-44.233 76.401 16.7 11.787 103.213-168.06-1.989-7.836 4.737-8.058c2.239.685 4.552 1.194 7.013 1.194 13.193 0 23.851-10.705 23.851-23.852 0-13.193-10.658-23.86-23.851-23.86" style="fill:#612c75"/><path d="M546.689 33.151c0 5.348 2.1 10.4 5.93 14.202l1.99 2.017-1.453 2.46-4.663 8.022-1.12 1.915-2.239-.102-14.488-.582-.62-.037-.537-.213-14.636-5.644c-1.952-.795-48.933-18.605-98.162-18.605-23.527 0-43.983 4.006-60.747 11.99l-4.265 2.063-.981 4.59c-.028.147-2.526 12.036-3.322 27.107l-.323 6.106-5.274-3.145c-76.762-45.64-153.312-57.278-182.622-60.174a342 342 0 0 0-32.88-1.48c-7.661 0-14.572.221-20.133.471 37.405 18.217 60.248 32.493 60.498 32.631l8.604 5.422-10.047 1.416c-.361.064-36.11 5.273-102.964 36.248l55.872-2.609a268 268 0 0 1 23.166-.934c103.824 0 198.156 55.289 202.097 57.639 9.752 5.745 20.595 8.928 30.568 8.928 5.024 0 9.613-.833 13.305-2.35 22.333-9.178 18.679-36.823 18.503-37.979l-.694-4.7 4.7.472c21.002 2.165 40.875 9.14 59.203 20.743l14.488 9.427 2.933 1.915-1.776 3.044-42.503 73.469 10.704 7.586L553.12 71.093l-1.582-6.328-.398-1.48.758-1.296 4.728-8.058 1.517-2.535 2.785.87c2.202.684 4.09 1.008 5.93 1.008 11.13 0 20.16-9.03 20.16-20.123a20.17 20.17 0 0 0-20.16-20.169 20.197 20.197 0 0 0-20.168 20.17m-58.472 103.786c-.037-.074-3.368-10.408-10.047-24.72l-1.018-2.24 1.628-1.804c.796-.87 19.808-21.686 46.62-35.564l11.463-5.93-6.54 11.102-35.426 59.915-4.154 7.124z" style="fill:url(#a);stroke-width:9.25183"/><path d="M348.285 145.652c-21.649-12.759-125.843-66.826-230.972-57.972 0 0 42.244-14.748 77.632-20.632 0 0-7.882-12.758-51.107-33.4 0 0 96.312.982 196.565 61.914 0 0 0 16.69 5.893 30.466 5.894 13.73 14.748 9.789 14.748 9.789s13.73 10.843 25.544 14.747c0 0-16.69 7.874-38.303-4.912" style="fill:#612c75"/><path d="M373.293 149.26c-7.734 0-15.506-2.276-23.13-6.791-4.089-2.387-99.966-58.296-205.927-59.452 14.886-4.376 34.01-9.428 51.32-12.324l5.459-.906-2.933-4.691c-.287-.472-6.68-10.408-36.175-26.423 32.132 3.395 102.64 15.617 174.85 59.017.177 5.098 1.222 18.291 6.144 29.782 4.7 10.945 11.528 12.573 15.173 12.573.795 0 1.517-.074 2.137-.176 2.563 1.915 8.132 5.884 14.488 9.39z" style="fill:#fff"/><path d="m396.062 138.278-14.387-7.337c6.865-5.893 14.748-4.913 14.748-4.913zm76.004-38.784-11.787-1.008 13.767 32.455c-58.944-37.368-114.992-17.708-114.992-17.708-5.893-23.601 1.009-56.02 1.009-56.02 59.924-28.477 151.323 6.902 151.323 6.902-29.458 19.623-39.32 35.38-39.32 35.38" style="fill:#612c75"/><path d="M466.283 122.124c-21.723-11.639-45.796-17.745-70.147-17.745-16.126 0-28.339 2.6-34.26 4.191-3.506-18.864.25-42.216 1.444-48.794 14.71-6.606 32.594-9.973 53.272-9.973 36.424 0 72.2 10.556 86.736 15.358-20.095 14.312-29.782 25.988-33.076 30.466l-9.65-.823-6.106-.51 2.387 5.635z" style="fill:#fff"/></svg>