<svg xmlns="http://www.w3.org/2000/svg" width="229.987" height="101.811" viewBox="0 0 60.851 26.937"><path d="M55.28 4.253c-.677-1.605.106-3.683 1.866-4.11 2.004-.723 4.199 1.42 3.606 3.45-.23 1.26-1.411 1.973-2.565 2.255-3.926 6.364-7.807 12.756-11.705 19.138-.487.713-.797 1.7-1.725 1.951-.903.007-1.683-.995-1.154-1.824 1.747-3.16 3.595-6.269 5.398-9.4-4.212-3.07-9.818-4.563-14.902-3.02 2.075.57 4.53 1.174 5.617 3.241-.9 1.958-3.433 1.665-5.2 1.56-4.95-.77-8.682-4.46-13.184-6.347-4.24-1.972-9.094-2.113-13.645-1.369-2.674.444-5.263 1.316-7.687 2.526C3.323 7.99 8.516 5.59 13.712 4.394c-3.189-1.523-6.78-1.788-10.262-1.78C8.505.788 14.044.023 19.364.98c4.882 1.01 9.42 3.4 13.279 6.523.148-1.394.292-2.79.635-4.153 7.048-2.903 15.024-1.513 22.002.903m-5.119 4.64c.06 1.44.163 2.875.22 4.314 1.259-1.99 2.373-4.068 3.58-6.089-1.274.58-2.526 1.203-3.8 1.774"/></svg>