<svg xmlns="http://www.w3.org/2000/svg" id="Layer_2" width="216" height="216" viewBox="0 0 216 216"><defs><style>.cls-1{fill:#fff}</style></defs><g id="Layer_1-2"><path d="m115.458 0 10.364 1.274c44.548 7.155 80.598 42.651 88.663 87.002L216 98.88v18.24l-1.515 10.604c-8.17 45.071-45.175 80.8-90.549 87.276l-8.478 1H100.82l-11.562-1.516C42.78 206.377 6.349 167.942.788 121.05l-.75-8.729c.089-2.87-.12-5.774 0-8.64C2.311 49.429 46.12 2.938 100.82 0zM105.09 6.55C29.584 9.02-17.262 90.148 19.194 156.882c35.97 65.845 129.483 70.715 172.286 9.035 44.899-64.7 1.945-153.6-76.145-159.194z" class="cls-1"/><path d="m105.09 6.55 10.245.172c78.09 5.594 121.044 94.493 76.145 159.194-42.803 61.68-136.317 56.81-172.286-9.035-36.456-66.734 10.39-147.86 85.896-150.33M107.06 18c-15.16.28-30.044 4.275-43.212 11.663l4.497 9.237c14.335 2.775 29.255-2.98 38.714-13.82zm2.159 0v7.08c9.528 10.876 24.23 16.442 38.637 13.924l4.77-9.129C139.572 22.173 124.374 18.353 109.22 18m-2.16 40.68V28.56c-1.631 1.099-2.907 2.622-4.445 3.833-6.083 4.79-14.353 8.275-22.073 9.124-3.606.397-7.078.164-10.678.126l11.953 23.805c.61 1.096 2.462 1.424 3.635 1.644 8.216 1.542 16.61-1.796 21.608-8.412m2.16-30.12v30.12c5.71 7.549 15.781 10.712 24.795 7.579l12.638-24.737c-5.547.49-10.957.298-16.367-1.032-5.885-1.446-12.157-4.527-16.86-8.337-1.198-.97-2.366-2.378-3.485-3.235-.241-.185-.302-.462-.721-.358m-47.275 2.4C47.84 39.145 36.198 51.535 28.699 66.004l4.574 3.112c1.669-2.523 2.456-5.727 4.916-7.676l2.185 5.502C52.73 63.14 62.534 52.613 66.462 40.38zm116.619 30.48 4.442 7.676 4.621-3.232c-6.032-11.354-14.502-21.414-24.681-29.26-.899-.691-8.192-5.967-8.61-5.664l-4.502 9.438c3.983 12.206 13.729 22.701 26.071 26.544.296-.462 2.376-5.698 2.659-5.502M68.183 43.2c-.547-.102-.381.035-.532.307-.787 1.422-1.372 3.395-2.22 4.978-5.088 9.51-13.452 16.485-23.402 20.52 3.144 4.626 8.493 7.707 13.278 10.476 1.286.744 5.948 3.62 7.015 3.784 1.012.155 2.194-.16 3.183-.387 7.348-1.69 12.936-8.007 14.869-15.144zm80.386 0-.535.31L135.9 67.74c1.784 5.97 5.721 11.352 11.482 13.972 1.621.737 5.116 1.882 6.82 1.556.903-.172 7.168-3.97 8.45-4.747 4.372-2.65 8.837-5.402 11.836-9.638-11.8-4.152-21.677-13.903-25.918-25.682m-41.51 19.2c-.419-.105-.48.173-.721.359-1.18.903-2.172 2.071-3.524 2.955-5.62 3.677-12.49 4.745-19.033 3.288l14.277 28.201c3.327.907 6.892-.89 9.001-3.483zm2.16 0v31.32c2.154 2.52 5.665 4.425 9.002 3.483l14.276-28.2c-5.968 1.36-12.344.523-17.68-2.482zm-80.386 49.2c-.072-2.005-.691-3.928-.929-5.91-1.137-9.494.197-19.482 2.73-28.65.293-1.063 1.87-4.997 1.809-5.64-.023-.25-.111-.314-.252-.478-.303-.352-4.334-2.828-4.665-2.774-6.682 13.383-9.809 28.452-9.25 43.452zm158.612 0h10.558c.605-14.99-2.467-30.125-9.251-43.453-.835.328-4.864 2.651-4.92 3.256-.04.423 1.331 3.846 1.573 4.678 2.785 9.6 4.193 19.863 2.969 29.848-.232 1.896-.815 3.756-.929 5.671M82.1 70.56c-.624-.114-.37.093-.497.341-2.102 4.082-3.217 6.778-6.935 9.862-2.932 2.432-5.14 2.912-8.509 4.21-.25.096-.578.1-.612.464a105.7 105.7 0 0 1 18.72 13.08c1.978 1.73 3.805 3.774 5.834 5.37 1.377-.466 6.086-4.809 5.87-6.045zm52.552 0-14.284 27.342c-.208 1.097 4.668 5.804 5.822 5.987.79.125 1.011-.805 1.5-1.295 4.832-4.836 10.631-9.415 16.343-13.174 2.16-1.42 4.432-2.74 6.698-3.983-.033-.363-.362-.368-.612-.464-1.503-.58-3.088-.895-4.59-1.65-4.945-2.488-9.176-7.546-10.877-12.763M40.221 89.096c-.265.087-.315.3-.352.543-.624 4.181-.466 11.612.307 15.776 2.913 15.681 18.789 23.298 33.414 17.95 4.249-1.555 9.272-4.358 11.58-8.325.084-.99-5.697-6.784-6.78-7.766-10.517-9.547-24.367-15.303-38.17-18.178m136.184-.055c-11.522 2.305-22.871 6.676-32.468 13.484-3.871 2.746-8.252 6.437-11.196 10.16-1.375 1.739-2.243 1.883-.72 3.83 6.792 8.685 22.342 10.741 31.83 5.686 13.104-6.983 13.598-19.776 12.554-33.16M107.06 110.64V96.96c-2.202 1.768-4.86 2.655-7.68 2.762l5.764 11.638zm2.16-13.68v13.68l1.916.72 5.765-11.637c-2.798-.085-5.444-1.1-7.681-2.763m-11.761 3.6c-.336-.076-.395.05-.603.234-.891.783-1.834 2.198-2.88 3.12-.696.613-1.63 1.378-2.513 1.69 1.242 2.005 6.611 7.245 6.918 9.293.162 1.09-3.24 4.406-3.798 5.58l8.29-4.304.788-2.83zm24.239 19.918c.254-.226-3.96-4.595-3.81-5.583.095-.62 2.443-3.74 2.995-4.47 1.232-1.63 2.653-3.112 3.93-4.706-2.212-1.395-4.003-3.12-5.635-5.154-.881 1.809-6.586 11.528-6.483 12.738.064.76.75 1.877.661 2.801zm-14.223-7.622c-3.538.727-2.443 6.66 1.758 5.357 2.755-.855 2.167-6.164-1.758-5.357m-78.04.904H18.514c.685 14.476 5.352 28.772 12.87 41.06l6.043-3.304c1.551-5.976 1.596-12.278.412-18.325-1.03-5.26-2.328-6.533-4.729-10.87-1.516-2.74-2.49-5.675-3.678-8.561m157.291 0c-.928 3.11-2.21 6.214-3.798 9.041-2.139 3.806-3.279 5.044-4.284 9.635-1.383 6.31-1.367 12.98.292 19.235l5.757 3.139c.467.004 1.07-1.3 1.355-1.768 5.586-9.207 9.727-21.812 11.202-32.476.257-1.857.658-4.503.655-6.316 0-.28-.016-.31-.26-.49zm-88.787 18 6.376-12.955-.543-.46-12.068 6.576c2.732 1.649 4.436 4.308 6.235 6.838m26.637-7.196c-1.793-.399-11.215-6.43-12.066-6.212-.215.055-.573.388-.614.602l6.565 12.564 3.114-4.081c.752-.965 2.002-1.58 2.849-2.377.202-.19.219-.165.152-.496m-8.158 8.155-6.237-12.138c-.466-.509-2.775.477-3.736-.264l-6.583 12.4 8.278-.737zm-30.957 22.8 10.952-21.239c-1.4-3.43-3.783-6.381-7.028-8.24-2.03 1.317-3.769 3.066-5.765 4.475-3.114 2.2-6.738 4.215-10.334 5.504-2.463.883-5.209 1.112-7.257 2.822 8.265 3.266 14.555 9.411 19.432 16.678m64.791-17.036c-2.302-1.177-4.832-1.59-7.258-2.464-6.036-2.175-11.064-5.92-15.937-9.978-3.306 1.745-5.755 4.813-7.19 8.239l10.952 21.24c1.468-1.521 2.492-3.489 3.844-5.153 3.506-4.317 8.146-7.908 13.105-10.413.378-.19 2.918-.896 2.484-1.47m-88.305-.24c-4.526-.169-8.802-.611-13.08-2.159-3.396-1.228-6.538-3.136-9.232-5.524 1.384 6.553 1.617 13.066.48 19.68zm114.7-7.442-4.637 3.16c-5.526 3.143-10.796 3.967-17.083 4.278-.27.013-.658-.155-.593.238l21.833 11.522c-1.112-6.455-.866-12.808.48-19.198m-48.71 23.757-9.95-18.967c-2.881-1.535-17.886-1.72-19.678.016l-9.965 18.95c12.56-4.895 27.046-4.929 39.593 0M71.788 180.96l12.194-22.74c.145-.68-1.803-3.361-2.305-4.073-4.459-6.318-10.89-11.607-18.414-13.757l-20.636 11.049c-.225.316.29.406.473.492 2.073.98 4.273 1.646 6.375 2.744 10.326 5.392 19.065 14.979 22.313 26.285m102.218-29.517c-6.47-3.02-12.566-7.062-18.95-10.208-2.537-1.25-2.925-.744-5.446.323-7.216 3.054-13.685 9.563-17.304 16.442l12.184 22.96c3.477-11.73 12.455-21.308 23.272-26.767zm-134.678 1.714-6.647 3.68c8.515 13.396 20.728 24.142 34.778 31.464.25.12.483.15.73-.007.196-.126 2.05-3.824 2.113-4.155.233-1.22-1.491-5.395-2.074-6.7-4.532-10.155-13.745-18.633-24.04-22.756-.914-.365-4.133-1.66-4.86-1.526m90.463 4.827c-10.38-5.314-23.48-6.204-34.731-3.306-2.048.528-7.694 2.284-8.837 3.882l-12.038 23.118c21.93-7.39 45.985-7.398 67.908 0zm18.32 30.4c.378.274 4.915-2.382 5.661-2.823 10.874-6.415 21.274-15.889 28.35-26.365.295-.437 1.609-2.13 1.378-2.483l-6.206-3.417c-1.172-.376-4.417 1.106-5.678 1.632-12.297 5.126-22.332 15.763-25.694 28.796zm-1.939 1.213-2.411-4.665c-22.378-8.916-48.677-8.81-71.109-.105l-2.55 4.649c17.895 8.535 38.51 10.592 57.879 6.29 6.277-1.395 12.34-3.556 18.191-6.17"/><path d="m129.791 157.984 12.302 23.694c-21.923-7.398-45.979-7.39-67.908 0l12.038-23.118c1.143-1.598 6.789-3.354 8.837-3.882 11.251-2.898 24.351-2.008 34.731 3.306" class="cls-1"/><path d="M146.172 189.597c-5.852 2.613-11.914 4.774-18.191 6.168-19.37 4.303-39.984 2.246-57.88-6.29l2.551-4.648c22.432-8.705 48.731-8.811 71.109.105zM40.22 89.096c13.803 2.875 27.653 8.63 38.17 18.178 1.083.982 6.864 6.776 6.78 7.766-2.308 3.967-7.331 6.77-11.58 8.324-14.625 5.35-30.501-2.268-33.414-17.95-.773-4.163-.931-11.594-.307-15.775.037-.244.087-.456.352-.543m136.184-.056c1.044 13.385.55 26.178-12.555 33.161-9.487 5.055-25.037 2.999-31.83-5.687-1.522-1.946-.654-2.09.72-3.828 2.945-3.724 7.326-7.415 11.197-10.162 9.597-6.807 20.946-11.178 32.468-13.483M109.219 28.56c.419-.104.48.173.721.358 1.119.857 2.287 2.265 3.485 3.235 4.703 3.81 10.975 6.891 16.86 8.337 5.41 1.33 10.82 1.523 16.367 1.032L134.014 66.26c-9.014 3.133-19.085-.03-24.795-7.579zm-2.159 30.12c-4.999 6.616-13.393 9.954-21.609 8.412-1.173-.22-3.025-.548-3.635-1.644L69.863 41.643c3.6.038 7.072.27 10.678-.126 7.72-.849 15.99-4.334 22.073-9.124 1.538-1.21 2.814-2.734 4.445-3.833zm41.509-15.48c4.24 11.78 14.118 21.53 25.918 25.683-2.999 4.236-7.464 6.988-11.836 9.638-1.282.777-7.547 4.575-8.45 4.747-1.704.326-5.199-.819-6.82-1.556-5.76-2.62-9.698-8.002-11.482-13.973l12.135-24.23zm-80.386 0 12.19 24.534c-1.932 7.137-7.52 13.453-14.868 15.144-.989.228-2.17.542-3.183.387-1.067-.163-5.73-3.04-7.015-3.784-4.785-2.77-10.134-5.85-13.278-10.476 9.95-4.035 18.314-11.01 23.403-20.52.847-1.583 1.432-3.556 2.22-4.978.15-.272-.016-.409.53-.306m105.824 108.242-6.244 2.75c-10.816 5.46-19.795 15.037-23.272 26.767L132.307 158c3.618-6.88 10.087-13.388 17.303-16.442 2.521-1.067 2.909-1.574 5.446-.323 6.384 3.146 12.48 7.188 18.95 10.208M71.788 180.96c-3.248-11.306-11.987-20.893-22.313-26.285-2.102-1.098-4.302-1.764-6.375-2.744-.183-.086-.698-.176-.473-.492l20.636-11.05c7.524 2.15 13.955 7.44 18.414 13.758.502.712 2.45 3.392 2.305 4.074z" class="cls-1"/><path d="m61.944 30.96 4.518 9.42C62.534 52.612 52.73 63.14 40.374 66.941l-2.185-5.502c-2.46 1.95-3.247 5.153-4.916 7.676l-4.574-3.112c7.5-14.469 19.142-26.86 33.245-35.044M178.563 61.44c-.283-.196-2.363 5.04-2.659 5.502-12.342-3.843-22.088-14.338-26.071-26.544l4.501-9.438c.42-.303 7.712 4.973 8.61 5.665 10.18 7.845 18.65 17.905 24.682 29.259l-4.62 3.232zM109.219 18c15.154.353 30.352 4.173 43.408 11.875l-4.77 9.129c-14.407 2.518-29.11-3.048-38.638-13.924zm-2.159 0v7.08C97.6 35.919 82.68 41.675 68.344 38.9l-4.497-9.237C77.016 22.275 91.901 18.28 107.06 18M39.328 153.157c.727-.134 3.946 1.16 4.86 1.526 10.295 4.123 19.508 12.601 24.04 22.755.583 1.306 2.307 5.482 2.074 6.701-.063.331-1.917 4.029-2.113 4.155-.247.158-.48.128-.73.007-14.05-7.322-26.263-18.068-34.778-31.463zm108.783 35.227-2.189-4.66c3.362-13.033 13.397-23.67 25.694-28.796 1.26-.526 4.506-2.009 5.678-1.632l6.206 3.417c.23.352-1.083 2.046-1.378 2.483-7.076 10.476-17.476 19.95-28.35 26.365-.746.44-5.283 3.097-5.66 2.823M29.433 113.76c1.188 2.886 2.162 5.821 3.678 8.561 2.4 4.337 3.7 5.61 4.73 10.87 1.183 6.047 1.138 12.35-.413 18.325l-6.043 3.304c-7.518-12.288-12.185-26.584-12.87-41.06zm157.292 0h10.918c.245.18.261.21.261.49.003 1.813-.398 4.46-.655 6.316-1.475 10.664-5.616 23.27-11.202 32.476-.285.469-.888 1.772-1.355 1.768l-5.757-3.139c-1.66-6.255-1.675-12.925-.292-19.235 1.005-4.59 2.145-5.83 4.284-9.635 1.589-2.827 2.87-5.931 3.798-9.041m-58.789 40.798c-12.547-4.93-27.033-4.896-39.593 0l9.965-18.951c1.792-1.736 16.797-1.551 19.678-.016zM109.219 62.4l5.598 4.121c5.337 3.005 11.712 3.843 17.68 2.481l-14.276 28.201c-3.337.942-6.848-.964-9.002-3.483zm-2.159 0v31.32c-2.11 2.592-5.675 4.39-9.002 3.483l-14.277-28.2c6.543 1.456 13.412.388 19.033-3.289 1.352-.884 2.343-2.052 3.524-2.955.242-.186.302-.464.721-.359m27.593 8.16c1.701 5.217 5.932 10.275 10.878 12.763 1.501.755 3.086 1.07 4.59 1.65.25.096.578.1.611.464-2.266 1.244-4.539 2.562-6.698 3.983-5.712 3.759-11.51 8.338-16.343 13.174-.489.49-.71 1.42-1.5 1.295-1.154-.183-6.03-4.89-5.822-5.987zm-52.552 0 13.87 27.282c.217 1.236-4.492 5.579-5.869 6.044-2.029-1.595-3.856-3.639-5.834-5.37a105.7 105.7 0 0 0-18.72-13.08c.034-.362.362-.367.612-.463 3.368-1.298 5.577-1.778 8.509-4.21 3.718-3.084 4.833-5.78 6.935-9.862.127-.248-.127-.455.497-.34m68.151 67.922c.434.575-2.106 1.28-2.484 1.471-4.959 2.505-9.6 6.096-13.105 10.413-1.352 1.664-2.376 3.632-3.844 5.152l-10.952-21.239c1.435-3.426 3.884-6.494 7.19-8.24 4.873 4.06 9.9 7.804 15.937 9.98 2.426.874 4.956 1.286 7.258 2.463M85.46 155.52c-4.877-7.267-11.167-13.413-19.432-16.679 2.048-1.71 4.794-1.939 7.257-2.822 3.596-1.29 7.22-3.304 10.334-5.503 1.996-1.41 3.735-3.16 5.765-4.475 3.245 1.858 5.627 4.809 7.028 8.239zM28.833 111.6H18.275c-.558-15 2.57-30.07 9.25-43.452.332-.054 4.363 2.422 4.666 2.774.141.164.229.229.252.478.06.643-1.516 4.577-1.81 5.64-2.532 9.168-3.866 19.156-2.729 28.65.238 1.982.857 3.905.93 5.91m158.611 0c.114-1.915.697-3.775.929-5.67 1.224-9.986-.184-20.249-2.97-29.85-.24-.831-1.612-4.254-1.572-4.677.056-.605 4.085-2.928 4.92-3.256 6.784 13.328 9.856 28.463 9.251 43.453zM61.946 138.242 40.114 150.24c1.137-6.614.904-13.127-.48-19.68 2.694 2.388 5.836 4.296 9.231 5.524 4.28 1.548 8.555 1.99 13.081 2.158m114.7-7.441c-1.346 6.39-1.592 12.743-.48 19.198l-21.833-11.522c-.065-.393.323-.225.593-.238 6.287-.31 11.557-1.135 17.083-4.278zm-60.229 1.918-8.278-.739-8.278.738 6.583-12.401c.961.74 3.27-.245 3.736.264zM97.458 100.56l6.202 12.783-.787 2.83-8.291 4.305c.558-1.175 3.96-4.491 3.798-5.58-.307-2.049-5.676-7.29-6.918-9.294.883-.312 1.817-1.077 2.513-1.69 1.046-.922 1.989-2.336 2.88-3.12.208-.184.267-.31.603-.233m24.239 19.917-8.342-4.374c.089-.924-.597-2.04-.661-2.801-.103-1.21 5.602-10.929 6.483-12.738 1.632 2.034 3.423 3.76 5.635 5.154-1.277 1.594-2.698 3.075-3.93 4.706-.552.73-2.9 3.85-2.994 4.47-.151.988 4.063 5.357 3.809 5.583m2.878 4.086c.067.331.05.305-.152.496-.847.797-2.097 1.412-2.85 2.377l-3.113 4.081-6.564-12.564c.04-.214.398-.547.613-.602.85-.218 10.273 5.813 12.066 6.212m-26.637 7.196c-1.799-2.531-3.503-5.19-6.235-6.839l12.068-6.576.543.46zm11.281-34.8c2.237 1.663 4.883 2.678 7.681 2.763l-5.765 11.637-1.916-.72zm-2.159 13.68-1.917.72-5.765-11.638c2.821-.107 5.48-.994 7.681-2.762zm.414 2.216c3.925-.807 4.513 4.502 1.758 5.357-4.201 1.302-5.296-4.63-1.758-5.357" class="cls-1"/></g></svg>