<svg xmlns="http://www.w3.org/2000/svg" width="229.999" height="230.175" viewBox="0 0 229.999 230.175"><path d="M222.01 100.035c-6.5-47.48-44.55-85.54-92.04-92.04l-9.68-.99h-10.56c-54.56 2.53-99.27 46.85-102.72 101.28-.01.17-.01 1.53-.01 3.32-.01 6.48.41 12.96 1.23 19.39l.3 2.29c7.63 45.58 44.44 81.57 90.08 88.48l6.64.87c.72.09 1.45.16 2.18.19l6.65.33c.55.02 1.11.02 1.66 0l3.71-.12c.56-.02 1.11-.06 1.66-.12l10.29-1.15c46.89-7.06 84.17-44.79 90.61-91.79l.99-9.45v-10.8zm-56.95-66.85c14.89 8.61 26.94 21.77 35.12 36.86.05.34-.47.62-.7.8-1.26.98-2.87 1.71-4.18 2.64-.92-1.3-3.55-7.44-4.82-7.92-.37-.14-.63.85-.77 1.15-.51 1.14-.94 2.54-1.51 3.65-.13.26-.5.51-.5.94-11.79-3.73-22.8-14.24-26.86-26.02-.37-1.05-.96-2.15-.48-3.24 1.76-2.44 2.68-5.99 4.32-8.4.11-.16.14-.39.38-.46m22.9 126.7-9.84-5.28-13.2-7.2.35-.25c.74.24 1.55-.18 2.05-.23 6.2-.63 12.14-1.09 17.28-5.04l4.08-2.64c-1.9 6.7-1.75 13.8-.72 20.64m-56.19 28.65c-.39-.06-.79-.12-1.17-.17-.44-.06-.88-.11-1.31-.15l-8.87-.72c-.11-.01-.22-.01-.34-.02h-.02c-.04 0-.09-.01-.13-.01-2.02-.04-4.03-.04-6.04.02-1.48.03-2.95.09-4.42.18-.92.04-1.83.11-2.75.19-.11 0-.22.01-.34.02-1.12.09-2.25.2-3.37.33-6.92.77-13.72 2.16-20.35 4.26-.8.25-1.54.63-2.45 1.02-.14.06-.43-.12-.72-.24 2.02-3.22 3.52-6.72 5.28-10.08 2.61-4.99 5.41-9.9 7.9-14.95.68-.43 1.45-.79 2.18-1.13 2.88-1.34 6.01-2.23 9.12-2.88 7.36-1.55 15.39-1.69 22.8-.24 2.57.5 6.49 1.6 8.87 2.64 1.98.86 2.74 1.28 3.84 3.12 2.29 3.81 4.63 8.7 6.72 12.72 1.65 3.16 3.86 6.96 5.28 10.08.09.18.32.88.24.96-.37-.1-.84-.14-1.2-.24-.4-.11-.81-.23-1.23-.35-.7-.2-1.42-.41-2.15-.62-4.86-1.42-10.32-2.99-15.37-3.74m-54.56 3.86c0 .01-.01.01-.02.02-.06.11-.1.19-.12.21-.01-.03-.01-.07-.02-.11-.06-.22-.16-.54-.2-.71-.34-1.32-1.07-2.98-1.64-4.24-5.49-12.21-16.82-22.01-29.56-26 2.46-1.71 5.26-3.11 7.92-4.56 4.19-2.29 8.67-4.94 12.96-6.96.42-.2.74-.69 1.28-.66 1.63.64 3.64 1.12 5.2 1.86.64.3 1.72 1.03 2.4 1.44 3.44 2.07 6.72 4.9 9.36 7.92.73.84 1.5 1.74 2.16 2.64.52.71 3.11 4.5 3 5.06-2.44 4.51-4.7 9.12-7.08 13.66-.25.48-.5.96-.76 1.43-.2.37-.4.76-.62 1.15-.13.25-.27.5-.4.75-.94 1.78-1.96 3.67-2.74 5.09-.11.2-.22.41-.33.61-.35.64-.63 1.13-.79 1.4m-34.44-53.15 2.16 1.44c5.51 4.56 12.04 5.71 18.96 6.24.04 0 .27.22.58.25.67.06 1.38-.06 2.06-.01l-1.2.96c-4.48 1.99-8.66 4.63-12.96 6.96-3.02 1.63-6.13 3.12-9.12 4.8a53.9 53.9 0 0 0-.48-20.64m74.16-98.4c0-3.43-.11-6.89.11-10.32 10.33 10.37 24.85 15.47 39.48 13.68l-3.36 6.96c-3.2 5.5-5.68 11.42-8.64 17.04-.4.77-.98 1.48-1.26 2.34-1 .35-2.01.58-3.06.78-2.16.43-4 .61-6.24.48-3.78-.21-7.86-1.54-11.03-3.6-1.37-.88-3.22-2.41-4.32-3.6-.55-.59-1.14-1.22-1.58-1.91-.21-1.03-.08-2.09-.1-3.13-.16-6.22-.02-12.5 0-18.72m-20.88 120.72c.81-1.52 1.6-3.04 2.4-4.56 2.24-4.26 4.7-8.42 6.69-12.81.34-.37 1.68-.29 2.19-.39 5.05-.95 10.27-1.04 15.36-.24.78.12 2.98.26 3.47.72 1.98 4.28 4.43 8.32 6.6 12.48.79 1.51 1.64 3.05 2.4 4.56.5.96.83 2.17 1.44 3.12-1.82-.66-3.65-1.16-5.52-1.68-10.7-2.99-21-2.83-31.67.24-1.61.46-3.19 1-4.8 1.44.5-.95.93-1.94 1.44-2.88m-1.92-.96c-.8 1.53-2.02 3.1-2.64 4.8-.64-.3-.59-.53-.96-.72-.31-.55-.62-1.15-.96-1.68-.51-.8-1.11-1.43-1.68-2.16-3.89-5.03-7.83-8.31-13.44-11.28-.8-.43-1.41-.61-2.16-.96-.23-.1-1.44-.76-1.44-.84.31-.44.76-.59 1.2-.84.98-.56 2.06-.84 3.12-1.2 1.71-.58 3.3-.98 5.04-1.68 2.54-1.03 3.71-1.75 6-3.12 2.96-1.78 4.73-3.13 7.44-5.28 1.76-1.4 1.57-2.03 3.68-.44 1.77 1.35 4.65 4.61 5.44 6.68.13.34.2.72.24 1.08l-6.48 13.08c-1.18 1.17-1.65 3.12-2.4 4.56m40.55-5.04-6.37-12.24c-.14-.54.33-1.88.61-2.4.97-1.78 4.25-5.36 6.02-6.34 1.14-.63.99-.32 1.9.34 2.63 1.91 4.56 3.71 7.44 5.52 2.08 1.3 3.51 2.11 5.76 3.12 1.83.82 3.17 1.28 5.04 1.92 1.22.42 2.41.69 3.6 1.2.49.21.95.5 1.44.72l.48.36c-.01.08-1.22.75-1.44.84-2.1.93-3.08 1.41-5.04 2.64-3.73 2.35-6.43 4.58-9.36 7.92-1.2 1.37-2.27 2.85-3.36 4.32-.45.62-.8 1.33-1.32 1.92l-.6-.48c-.7-1.64-1.57-3.22-2.4-4.8-.79-1.52-1.6-3.04-2.4-4.56m-4.32-26.88-9.32-5.08c.28-1.04-.48-2.2-.51-2.98-.03-.68 3.78-8 4.43-9.23.42-.8 1.78-3.63 2.17-4.06.2-.22.25-.33.59-.25.27.68.94 1.52 1.44 2.05 1.28 1.33 2.94 2.28 4.1 3.59l-7.39 9.84zm-1.58-24.72c2.35-4.13 4.24-8.49 6.38-12.72 2.14-4.22 4.29-8.53 6.48-12.72.58-1.1 1.34-2.42 2.16-3.36 2.15 6.21 7.26 11.85 13.38 14.35.45.18.93.17 1.26.29.42.15 2.58.95 2.64 1.08-.52.23-.96.54-1.44.84-1.52.96-3.05 1.9-4.56 2.88-1.72 1.12-3.36 2.17-5.04 3.36-2.74 1.95-5.13 3.79-7.68 6-2.51 2.18-4.84 4.56-7.31 6.72-.78.02-4.18-3.08-4.81-3.84-.6-.72-1.68-1.96-1.46-2.88m17.78 23.29c-.94-.61-4.83-3.56-4.92-4.46-.09-.8 2.77-3.92 3.48-4.67 10.63-11.24 27.07-18.7 42.12-21.6.01.88.06 9.99 0 11.28-.89 21.61-23.19 30.83-40.68 19.45m38.29-51.96c-1.18 1.33-3.15 3.13-4.57 4.19-3.57 2.68-8.51 5.28-12.48 7.44-1 .55-2.78 1.93-3.84 1.92-.29 0-1.58-.18-1.92-.24-1.21-.23-3.9-1.14-5.04-1.68-4.4-2.09-8.62-6.84-10.56-11.28-.28-.66-1.22-3.15-1.19-3.7.02-.31.97-2.29 1.19-2.78 2.56-5.48 5.83-11.37 8.64-16.8.92-1.77 2.06-4.37 3.07-5.93.15-.23-.03-.43.53-.31 4.54 12.62 15.02 22.61 27.49 27.36.1.13-1.12 1.58-1.32 1.81m-67.92 8.27q-.03-6.72 0-13.44c0-1.28-.01-2.56 0-3.84.76.59 1.42 1.3 2.16 1.92 5.44 4.6 11.68 6.38 18.71 5.76 1.3-.12 2.56-.12 3.84-.48-.77 1.29-1.26 2.74-1.92 4.08-2.01 4.08-4.16 8.19-6.24 12.24-2.34 4.56-4.92 9.01-7.07 13.68-3.43.97-7.26-.8-9.44-3.53-.1-5.46-.03-10.93-.04-16.39m0 19.68c2.2 1.9 5.05 2.73 7.92 3l-6.36 12.36-1.56-.72zm3.35 22.67 12.96 6.97c-2.85 1.89-4.63 4.7-6.71 7.32l-6.62-12.96c-.24-.54-.09-.99.37-1.33m4.33 15.49c-3.93-.52-7.92-.95-11.89-.73-1.95.11-3.93.65-5.88.61l6.77-13.04c.68-.09 1.28.22 2 .22.96.01 1.93-.73 2.48.38zm-20.16-1.2c-1.28-3.02-3.81-5.22-6.24-7.32l12.84-7.05.49 1.17zm1.91-33.96c2.88-.16 5.59-1.09 7.93-2.76v14.28l-1.57.81zm4.51 14.36-.9 3.16-8.88 4.68 4.27-6.08-7.39-10c1.35-.61 2.91-1.82 3.97-2.87.34-.34 1.86-2.7 2.26-2.41zm-14.65-9.95c-2.67-2.69-5.43-5.22-8.33-7.65-2.41-2.01-4.86-3.97-7.44-5.76-1.73-1.19-3.51-2.25-5.28-3.36-1.53-.96-3.03-1.93-4.56-2.88.08-.72.21-.2.48-.48 6.14-1.56 11.56-5.89 14.68-11.36.36-.64 1.73-3.87 2-4 .47.98 1.05 1.92 1.56 2.88 2.47 4.66 4.81 9.45 7.2 14.16 2.05 4.06 4.05 8.15 6.19 12.16-.31 1.51-5.39 6.58-6.5 6.29m-8.09-40.18c-.21-.18-1.42-2.49-1.68-2.99-2.94-5.61-5.83-11.37-8.64-17.04-.81-1.63-2.12-3.96-2.75-5.53-.1-.25-.19-.43-.13-.71 14.55 1.8 29.11-3.35 39.36-13.68l-.23 32.54c-.38.52-.78 1.06-1.21 1.54-.99 1.09-2.84 2.54-4.08 3.36-3.88 2.55-8.06 3.82-12.72 3.84-2.16.01-3.91-.15-6-.72-.57-.16-1.48-.24-1.92-.61m-12.24-18.83c2.9 5.65 5.82 11.35 8.64 17.04.51 1.03 1.03 2.07 1.56 3.1.03.17-.49 2.11-.6 2.42-1.98 5.48-7.18 11.39-12.72 13.44-.98.36-4.07 1.14-5.04 1.2-1.01.06-.97-.15-1.68-.48-1.2-.55-2.45-1.28-3.6-1.92-3.91-2.19-9.07-5.11-12.48-7.92-1.19-.98-3-2.66-3.96-3.84-.18-.21-.86-1.01-.73-1.2 12.65-4.86 22.54-14.81 27.61-27.36 1.02 1.82 2.05 3.67 3 5.52m12 68.27c2.26 2.57 2.7 2.64 0 5.05-8.14 7.29-20.96 9.44-30.73 4.32-9.09-4.76-12.24-11.81-13.19-21.72-.28-2.86-.3-5.07 0-7.92.11-1.02.15-1.96.24-3.12 16.03 3.13 32.78 11 43.68 23.39m60.23 61.57c-2.26-4.29-4.18-8.81-6.72-12.96.71-2.68 3.08-4.75 4.32-7.2 1.75-1.25 3.67-3.96 5.64-5.52 1.31-1.03 3.49-2.53 4.92-3.36 2.22-1.28 4.72-2.21 7.13-3.06l.55.18c4.33 2.31 8.66 4.61 12.96 6.96 2.6 1.42 5.93 2.95 8.33 4.5.24.15.43-.02.31.54-12.55 4.09-23.62 13.61-29.24 25.59-.6 1.28-.96 2.63-1.48 3.93-.13.35-.29.74-.48 1.2-.45.1-.51-.17-.72-.48-1.73-2.57-3.99-7.42-5.52-10.32m-31.2-161.87v-.02c.02-.13.03-.23.04-.27 0-.01 0-.02.01-.02.05-.04.53-.02 1.37.06h.01c.45.04 1 .1 1.63.17.02 0 .04 0 .06.01 6.74.81 22.95 3.38 32.02 6.92.34.13.69.27 1.03.42 2.07.88 8.72 3.8 9.67 5.32l-4.32 8.64-.49.57c-.35.19-.75.25-1.13.33-13.47 2.69-28.18-3.41-37.73-12.66-.07-.07-.15-.14-.23-.22-.55-.51-1.45-1.34-1.74-1.94v-.01c-.02-.05-.04-.1-.05-.14l-.03-.12c-.03-.12-.05-.23-.08-.36-.32-1.79-.16-5.58-.04-6.68m-1.98 106.37c-3.03-.62-3.01-5.28 0-5.89 4.7-.95 5 6.92 0 5.89m-.78-25.86c-2.2 2.77-5.69 4.04-9.2 3.56-1.87-4.37-4.35-8.46-6.51-12.68-2.4-4.68-4.91-9.44-7.2-14.16-.52-1.06-1-2.26-1.44-3.36.63.15 1.29.15 1.92.24 8.02 1.12 14.67-.46 20.88-5.76.61-.52.91-.89 1.44-1.44.39.25.23.91.24 1.32.13 10.75 0 21.53-.13 32.28m-45.07-68.51c11.95-6.45 36.35-11.05 43.31-12.13h.02c.08-.01.16-.02.24-.04.08-.01.16-.03.24-.04.74-.1 1.21-.16 1.35-.16.01-.01.03 0 .04 0l-.01 7.55c-.08.44-1.5 1.86-1.91 2.29-6.74 7.05-17.35 11.94-27.03 12.93-3.99.29-7.96.19-11.92-.45-.07-.03-.76-1.2-.89-1.44-1.44-2.66-2.39-5.63-4.08-8.16.21-.12.42-.24.64-.35m-3.04 1.55c.39.15.56.45.77.79 1.25 2.11 2.81 5.34 3.79 7.61.17.4.42.77.6 1.18-3.79 13.15-14.35 24.17-27.33 28.54l-1.59-2.36c.01-.89-.88-2.53-1.32-3.36-.64.01-4.69 6.68-4.68 7.92-.21.15-3.95-2.32-4.4-2.68-.34-.27-.65-.41-.64-.92 8.05-14.92 20.29-27.93 34.8-36.72m-36.24 39.36 5.04 3 .24.46a83.4 83.4 0 0 0-5.28 27.5c-.04 2-.14 4.09 0 6.12.23 3.1 1 6.17 1.44 9.24-1.36.01-2.72-.01-4.08 0-1.01.01-6.82.17-7.09-.22-.63-15.85 2.78-31.9 9.73-46.1m1.08 86.89c-6.1-11.87-9.82-24.8-10.68-38.17h11.76c1.01 2.93 2.07 5.84 3.56 8.56 2.17 3.96 3.62 5.36 4.77 10.11 1.51 6.21 1.68 12.49.55 18.77-.17.94-.33 1.89-.55 2.81l-6.41 3.43c-1.04-1.73-2.08-3.71-3-5.51m42.12 41.27c-15.09-7.51-28.44-19.52-37.68-33.6l6.89-4.04c.23-.06 1.47.12 1.75.2 12.62 3.57 24.96 14.99 29.76 27.12.68 1.74 1.29 3.55 1.67 5.39zm83.03 1.19c-25.42 11.73-55.21 11.74-80.63.01.34-1 1.61-4.36 2.22-4.98.57-.56 4.43-1.64 5.46-1.98 20.26-6.71 44.23-6.84 64.55-.24 1.24.4 5.08 1.49 5.89 2.15.23.19 2.04 3.57 2.27 4.09.07.15.29.87.24.95m11.02-6.13c-1.16.73-7.92 4.86-8.7 4.67-.24-.07-.28-.29-.4-.45-.25-.37-2.12-3.95-2.13-4.19-.06-1.09 1.62-5.15 2.13-6.37 4.75-11.35 16.07-21.88 27.84-25.68.48-.16 2.78-.69 3.13-.61.72.15 5.62 2.92 6.47 3.49.17.11.38.16.45.39-7.15 11.45-17.36 21.5-28.79 28.75m33.75-37.05c-.4.78-3.25 6.08-3.6 6.16-.15.03-.44-.17-.61-.17l-5.53-3.23c-.64-1.5-.74-3.12-.95-4.69-.81-6-.54-11.51.98-17.38 1.32-5.09 3.91-7.55 5.95-12.05.88-1.96 1.58-4.03 2.19-6.09H211c-.8 12.95-4.32 25.91-10.19 37.45m10.44-40.68c-.03.27.01.54-.23.73-.35.23-7.1.11-8.18.1-.96-.01-1.92.01-2.88 0 .36-2.24.96-4.46 1.2-6.72.78-7.39.11-16-1.31-23.29-.85-4.37-2.2-8.64-3.65-12.84l4.48-3.23c.29-.19.48-.28.65-.43l.19.43c4.22 8.92 7.31 18.43 8.72 28.24.67 4.67 1.56 12.45 1.01 17.01"/><path d="M228.945 99.06c-6.92-50.558-47.438-91.085-98.006-98.006L120.632 0h-11.245C51.291 2.694 3.683 49.886.01 107.844c-.01.181-.01 1.63-.01 3.536-.01 6.9.436 13.8 1.31 20.646l.32 2.439c8.123 48.534 47.32 86.857 95.917 94.214l7.07.927c.767.096 1.544.17 2.321.202l7.081.352c.586.02 1.182.02 1.768 0l3.95-.128a24 24 0 0 0 1.768-.128l10.957-1.225c49.93-7.517 89.625-47.693 96.483-97.739L230 120.878v-11.5zM223 120.525l-.99 9.45c-6.44 47-43.72 84.73-90.61 91.79l-10.29 1.15c-.55.06-1.1.1-1.66.12l-3.71.12c-.55.02-1.11.02-1.66 0l-6.65-.33c-.73-.03-1.46-.1-2.18-.19l-6.64-.87c-45.64-6.91-82.45-42.9-90.08-88.48l-.3-2.29c-.82-6.43-1.24-12.91-1.23-19.39 0-1.79 0-3.15.01-3.32 3.45-54.43 48.16-98.75 102.72-101.28h10.56l9.68.99c47.49 6.5 85.54 44.56 92.04 92.04l.99 9.69zm-108.06 5.46c-3.03-.62-3.01-5.28 0-5.89 4.7-.95 5 6.92 0 5.89m-8.58-19.74 6.36 12.33 1.57-.81v-14.28c-2.34 1.67-5.05 2.6-7.93 2.76m10.57-3v14.64l1.56.72 6.36-12.36c-2.87-.27-5.72-1.1-7.92-3m16.33 9.48c-1.16-1.31-2.82-2.26-4.1-3.59-.5-.53-1.17-1.37-1.44-2.05-.34-.08-.39.03-.59.25-.39.43-1.75 3.26-2.17 4.06-.65 1.23-4.46 8.55-4.43 9.23.03.78.79 1.94.51 2.98l9.32 5.08-4.49-6.12zm-12.98 13.19c-.46.34-.61.79-.37 1.33l6.62 12.96c2.08-2.62 3.86-5.43 6.71-7.32zm64.97 35.11c-2.4-1.55-5.73-3.08-8.33-4.5-4.3-2.35-8.63-4.65-12.96-6.96l-.55-.18c-2.41.85-4.91 1.78-7.13 3.06-1.43.83-3.61 2.33-4.92 3.36-1.97 1.56-3.89 4.27-5.64 5.52-1.24 2.45-3.61 4.52-4.32 7.2 2.54 4.15 4.46 8.67 6.72 12.96 1.53 2.9 3.79 7.75 5.52 10.32.21.31.27.58.72.48-.04-.49.35-.85.48-1.2.52-1.3.88-2.65 1.48-3.93 5.62-11.98 16.69-21.5 29.24-25.59.12-.56-.07-.39-.31-.54m-26.81-71.22c-.33-.12-.81-.11-1.26-.29-6.12-2.5-11.23-8.14-13.38-14.35-.82.94-1.58 2.26-2.16 3.36-2.19 4.19-4.34 8.5-6.48 12.72-2.14 4.23-4.03 8.59-6.38 12.72-.22.92.86 2.16 1.46 2.88.63.76 4.03 3.86 4.81 3.84 2.47-2.16 4.8-4.54 7.31-6.72 2.55-2.21 4.94-4.05 7.68-6 1.68-1.19 3.32-2.24 5.04-3.36 1.51-.98 3.04-1.92 4.56-2.88.48-.3.92-.61 1.44-.84-.06-.13-2.22-.93-2.64-1.08m-20.64-15.84c-7.03.62-13.27-1.16-18.71-5.76-.74-.62-1.4-1.33-2.16-1.92-.01 1.28 0 2.56 0 3.84q-.03 6.72 0 13.44c.01 5.46-.06 10.93.04 16.39 2.18 2.73 6.01 4.5 9.44 3.53 2.15-4.67 4.73-9.12 7.07-13.68 2.08-4.05 4.23-8.16 6.24-12.24.66-1.34 1.15-2.79 1.92-4.08-1.28.36-2.54.36-3.84.48m-107.99 29.52a83.4 83.4 0 0 1 5.28-27.5l-.24-.46-5.04-3c-6.95 14.2-10.36 30.25-9.73 46.1.27.39 6.08.23 7.09.22 1.36-.01 2.72.01 4.08 0-.44-3.07-1.21-6.14-1.44-9.24-.14-2.03-.04-4.12 0-6.12m84.48-35.64c-.01-.41.15-1.07-.24-1.32-.53.55-.83.92-1.44 1.44-6.21 5.3-12.86 6.88-20.88 5.76-.63-.09-1.29-.09-1.92-.24.44 1.1.92 2.3 1.44 3.36 2.29 4.72 4.8 9.48 7.2 14.16 2.16 4.22 4.64 8.31 6.51 12.68 3.51.48 7-.79 9.2-3.56.13-10.75.26-21.53.13-32.28m-29.76.84c-2.82-5.69-5.74-11.39-8.64-17.04-.95-1.85-1.98-3.7-3-5.52-5.07 12.55-14.96 22.5-27.61 27.36-.13.19.55.99.73 1.2.96 1.18 2.77 2.86 3.96 3.84 3.41 2.81 8.57 5.73 12.48 7.92 1.15.64 2.4 1.37 3.6 1.92.71.33.67.54 1.68.48.97-.06 4.06-.84 5.04-1.2 5.54-2.05 10.74-7.96 12.72-13.44.11-.31.63-2.25.6-2.42-.53-1.03-1.05-2.07-1.56-3.1m12 23.52c-2.39-4.71-4.73-9.5-7.2-14.16-.51-.96-1.09-1.9-1.56-2.88-.27.13-1.64 3.36-2 4-3.12 5.47-8.54 9.8-14.68 11.36-.27.28-.4-.24-.48.48 1.53.95 3.03 1.92 4.56 2.88 1.77 1.11 3.55 2.17 5.28 3.36 2.58 1.79 5.03 3.75 7.44 5.76 2.9 2.43 5.66 4.96 8.33 7.65 1.11.29 6.19-4.78 6.5-6.29-2.14-4.01-4.14-8.1-6.19-12.16m7.67 14.88c-.4-.29-1.92 2.07-2.26 2.41-1.06 1.05-2.62 2.26-3.97 2.87l7.39 10-4.27 6.08 8.88-4.68.9-3.16zm6.85 18.75-12.84 7.05c2.43 2.1 4.96 4.3 6.24 7.32l7.09-13.2zm7.04 3.01c-.55-1.11-1.52-.37-2.48-.38-.72 0-1.32-.31-2-.22l-6.77 13.04c1.95.04 3.93-.5 5.88-.61 3.97-.22 7.96.21 11.89.73zm42.03 18.56c-.49-.22-.95-.51-1.44-.72-1.19-.51-2.38-.78-3.6-1.2-1.87-.64-3.21-1.1-5.04-1.92-2.25-1.01-3.68-1.82-5.76-3.12-2.88-1.81-4.81-3.61-7.44-5.52-.91-.66-.76-.97-1.9-.34-1.77.98-5.05 4.56-6.02 6.34-.28.52-.75 1.86-.61 2.4l6.37 12.24c.8 1.52 1.61 3.04 2.4 4.56.83 1.58 1.7 3.16 2.4 4.8l.6.48c.52-.59.87-1.3 1.32-1.92 1.09-1.47 2.16-2.95 3.36-4.32 2.93-3.34 5.63-5.57 9.36-7.92 1.96-1.23 2.94-1.71 5.04-2.64.22-.09 1.43-.76 1.44-.84zm-57.35-5.52c-.79-2.07-3.67-5.33-5.44-6.68-2.11-1.59-1.92-.96-3.68.44-2.71 2.15-4.48 3.5-7.44 5.28-2.29 1.37-3.46 2.09-6 3.12-1.74.7-3.33 1.1-5.04 1.68-1.06.36-2.14.64-3.12 1.2-.44.25-.89.4-1.2.84 0 .08 1.21.74 1.44.84.75.35 1.36.53 2.16.96 5.61 2.97 9.55 6.25 13.44 11.28.57.73 1.17 1.36 1.68 2.16.34.53.65 1.13.96 1.68.37.19.32.42.96.72.62-1.7 1.84-3.27 2.64-4.8.75-1.44 1.22-3.39 2.4-4.56l6.48-13.08c-.04-.36-.11-.74-.24-1.08m32.39 19.44c-.76-1.51-1.61-3.05-2.4-4.56-2.17-4.16-4.62-8.2-6.6-12.48-.49-.46-2.69-.6-3.47-.72-5.09-.8-10.31-.71-15.36.24-.51.1-1.85.02-2.19.39-1.99 4.39-4.45 8.55-6.69 12.81-.8 1.52-1.59 3.04-2.4 4.56-.51.94-.94 1.93-1.44 2.88 1.61-.44 3.19-.98 4.8-1.44 10.67-3.07 20.97-3.23 31.67-.24 1.87.52 3.7 1.02 5.52 1.68-.61-.95-.94-2.16-1.44-3.12m16.32 31.2c-1.42-3.12-3.63-6.92-5.28-10.08-2.09-4.02-4.43-8.91-6.72-12.72-1.1-1.84-1.86-2.26-3.84-3.12-2.38-1.04-6.3-2.14-8.87-2.64-7.41-1.45-15.44-1.31-22.8.24-3.11.65-6.24 1.54-9.12 2.88-.73.34-1.5.7-2.18 1.13-2.49 5.05-5.29 9.96-7.9 14.95-1.76 3.36-3.26 6.86-5.28 10.08.29.12.58.18.72.24.64-.56 1.65-.77 2.45-1.02 6.63-2.1 13.43-3.49 20.35-4.26 5.71-.64 11.41-.85 17.17-.73l7.44.58c6.4.31 16.55 3.39 22.9 5.19.36.1.83.14 1.2.24.08-.08-.15-.78-.24-.96m-64.55-29.28c-.66-.9-1.43-1.8-2.16-2.64-2.64-3.02-5.92-5.85-9.36-7.92-.68-.41-1.76-1.14-2.4-1.44-1.56-.74-3.57-1.22-5.2-1.86-.54-.03-.86.46-1.28.66-4.29 2.02-8.77 4.67-12.96 6.96-2.66 1.45-5.46 2.85-7.92 4.56 12.74 3.99 24.07 13.79 29.56 26 .57 1.26 1.3 2.92 1.64 4.24.05.2-.04.49 0 .72.23.09.45-.24.48-.24 1.78-3.46 3.71-6.87 5.52-10.32 2.38-4.54 4.64-9.15 7.08-13.66.11-.56-2.48-4.35-3-5.06m-22.46-16.07c-.31-.03-.54-.25-.58-.25-6.92-.53-13.45-1.68-18.96-6.24l-2.16-1.44c1.49 6.76 1.65 13.81.48 20.64 2.99-1.68 6.1-3.17 9.12-4.8 4.3-2.33 8.48-4.97 12.96-6.96l1.2-.96c-.68-.05-1.39.07-2.06.01m-24.17-7.26c-1.15-4.75-2.6-6.15-4.77-10.11-1.49-2.72-2.55-5.63-3.56-8.56H20.21c.86 13.37 4.58 26.3 10.68 38.17.92 1.8 1.96 3.78 3 5.51l6.41-3.43c.22-.92.38-1.87.55-2.81 1.13-6.28.96-12.56-.55-18.77m33.43 50.45c-4.8-12.13-17.14-23.55-29.76-27.12-.28-.08-1.52-.26-1.75-.2l-6.89 4.04c9.24 14.08 22.59 26.09 37.68 33.6l2.39-4.93c-.38-1.84-.99-3.65-1.67-5.39m82.07 10.56c-.23-.52-2.04-3.9-2.27-4.09-.81-.66-4.65-1.75-5.89-2.15-20.32-6.6-44.29-6.47-64.55.24-1.03.34-4.89 1.42-5.46 1.98-.61.62-1.88 3.98-2.22 4.98 25.42 11.73 55.21 11.72 80.63-.01.05-.08-.17-.8-.24-.95m39.6-34.32c-.85-.57-5.75-3.34-6.47-3.49-.35-.08-2.65.45-3.13.61-11.77 3.8-23.09 14.33-27.84 25.68-.51 1.22-2.19 5.28-2.13 6.37.01.24 1.88 3.82 2.13 4.19.12.16.16.38.4.45.78.19 7.54-3.94 8.7-4.67 11.43-7.25 21.64-17.3 28.79-28.75-.07-.23-.28-.28-.45-.39m-6.72-27.36-4.08 2.64c-5.14 3.95-11.08 4.41-17.28 5.04-.5.05-1.31.47-2.05.23l-.35.25 13.2 7.2 9.84 5.28c-1.03-6.84-1.18-13.94.72-20.64m10.56-18c-.61 2.06-1.31 4.13-2.19 6.09-2.04 4.5-4.63 6.96-5.95 12.05-1.52 5.87-1.79 11.38-.98 17.38.21 1.57.31 3.19.95 4.69l5.53 3.23c.17 0 .46.2.61.17.35-.08 3.2-5.38 3.6-6.16 5.87-11.54 9.39-24.5 10.19-37.45zm11-20.24c-1.41-9.81-4.5-19.32-8.72-28.24l-.24-.23c-.16.15-.37.23-.6.23l-4.48 3.23c1.45 4.2 2.8 8.47 3.65 12.84 1.42 7.29 2.09 15.9 1.31 23.29-.24 2.26-.84 4.48-1.2 6.72.96.01 1.92-.01 2.88 0 1.08.01 7.83.13 8.18-.1.24-.19.2-.46.23-.73.55-4.56-.34-12.34-1.01-17.01m-51.56-54.88c-.56-.12-.38.08-.53.31-1.01 1.56-2.15 4.16-3.07 5.93-2.81 5.43-6.08 11.32-8.64 16.8-.22.49-1.17 2.47-1.19 2.78-.03.55.91 3.04 1.19 3.7 1.94 4.44 6.16 9.19 10.56 11.28 1.14.54 3.83 1.45 5.04 1.68.34.06 1.63.24 1.92.24 1.06.01 2.84-1.37 3.84-1.92 3.97-2.16 8.91-4.76 12.48-7.44 1.42-1.06 3.39-2.86 4.57-4.19.2-.23 1.42-1.68 1.32-1.81-12.47-4.75-22.95-14.74-27.49-27.36m6.38-12.94c-.24.07-.27.3-.38.46-1.64 2.41-2.56 5.96-4.32 8.4-.48 1.09.11 2.19.48 3.24 4.06 11.78 15.07 22.29 26.86 26.02 0-.43.37-.68.5-.94.57-1.11 1-2.51 1.51-3.65.14-.3.4-1.29.77-1.15 1.27.48 3.9 6.62 4.82 7.92 1.31-.93 2.92-1.66 4.18-2.64.23-.18.75-.46.7-.8-8.18-15.09-20.23-28.25-35.12-36.86m-48.02-2.66c-.22 3.43-.11 6.89-.11 10.32-.02 6.22-.16 12.5 0 18.72.02 1.04-.11 2.1.1 3.13.44.69 1.03 1.32 1.58 1.91 1.1 1.19 2.95 2.72 4.32 3.6 3.17 2.06 7.25 3.39 11.03 3.6 2.24.13 4.08-.05 6.24-.48 1.05-.2 2.06-.43 3.06-.78.28-.86.86-1.57 1.26-2.34 2.96-5.62 5.44-11.54 8.64-17.04l3.36-6.96c-14.63 1.79-29.15-3.31-39.48-13.68m36.05-3.64c-11.15-4.74-22.03-6.87-34.12-7.4-.51-.03-1.64-.49-2-.18-.11.09-.02.4-.04.42.3 2.02-.62 6.22.48 7.8.41.6 1.16 1.06 1.68 1.56 9.55 9.25 24.26 15.35 37.73 12.66.38-.08.78-.14 1.13-.33l.49-.57 4.32-8.64c-.95-1.52-7.6-4.44-9.67-5.32m-40.83-7.39c-15.82.31-30.24 4.77-43.81 12.47 1.69 2.53 2.64 5.5 4.08 8.16.13.24.82 1.41.89 1.44 3.96.64 7.93.74 11.92.45 9.68-.99 20.29-5.88 27.03-12.93.41-.43 1.83-1.85 1.91-2.29l.01-7.55c-.54-.15-1.41.24-2.03.25m-41.65 22.07c-.98-2.27-2.54-5.5-3.79-7.61-.21-.34-.38-.64-.77-.79-14.51 8.79-26.75 21.8-34.8 36.72-.01.51.3.65.64.92.45.36 4.19 2.83 4.4 2.68 0-1.26 4.04-7.91 4.68-7.92.44.83 1.33 2.47 1.32 3.36l1.59 2.36c12.98-4.37 23.54-15.39 27.33-28.54-.18-.41-.43-.78-.6-1.18m4.32 2.64c-.06.28.03.46.13.71.63 1.57 1.94 3.9 2.75 5.53 2.81 5.67 5.7 11.43 8.64 17.04.26.5 1.47 2.81 1.68 2.99.44.37 1.35.45 1.92.61 2.09.57 3.84.73 6 .72 4.66-.02 8.84-1.29 12.72-3.84 1.24-.82 3.09-2.27 4.08-3.36.43-.48.83-1.02 1.21-1.54l.23-32.54c-10.25 10.33-24.81 15.48-39.36 13.68m112.31 63.6c-.89 21.61-23.19 30.83-40.68 19.45-.94-.61-4.83-3.56-4.92-4.46-.09-.8 2.77-3.92 3.48-4.67 10.63-11.24 27.07-18.7 42.12-21.6.01.88.06 9.99 0 11.28m-99.35 12.11c-10.9-12.39-27.65-20.26-43.68-23.39-.09 1.16-.13 2.1-.24 3.12-.3 2.85-.28 5.06 0 7.92.95 9.91 4.1 16.96 13.19 21.72 9.77 5.12 22.59 2.97 30.73-4.32 2.7-2.41 2.26-2.48 0-5.05" style="fill:#fff"/></svg>