<svg xmlns="http://www.w3.org/2000/svg" width="229.999" height="230.175" viewBox="0 0 229.999 230.175"><defs><radialGradient id="a" cx="115.714" cy="117.061" r="95.725" fx="115.714" fy="117.061" gradientTransform="matrix(1 0 0 -1 0 232)" gradientUnits="userSpaceOnUse"><stop offset=".512" stop-color="#be98c2"/><stop offset=".594" stop-color="#ba93be"/><stop offset=".682" stop-color="#ae86b5"/><stop offset=".774" stop-color="#9c71a6"/><stop offset=".868" stop-color="#815290"/><stop offset=".962" stop-color="#602c75"/><stop offset=".963" stop-color="#602c75"/></radialGradient></defs><path d="M222.01 100.035c-6.5-47.48-44.55-85.54-92.04-92.04l-9.68-.99h-10.56c-54.56 2.53-99.27 46.85-102.72 101.28-.01.17-.01 1.53-.01 3.32-.01 6.48.41 12.96 1.23 19.39l.3 2.29c7.63 45.58 44.44 81.57 90.08 88.48l6.64.87c.72.09 1.45.16 2.18.19l6.65.33c.55.02 1.11.02 1.66 0l3.71-.12c.56-.02 1.11-.06 1.66-.12l10.29-1.15c46.89-7.06 84.17-44.79 90.61-91.79l.99-9.45v-10.8zm-56.95-66.85c14.89 8.61 26.94 21.77 35.12 36.86.05.34-.47.62-.7.8-1.26.98-2.87 1.71-4.18 2.64-.92-1.3-3.55-7.44-4.82-7.92-.37-.14-.63.85-.77 1.15-.51 1.14-.94 2.54-1.51 3.65-.13.26-.5.51-.5.94-11.79-3.73-22.8-14.24-26.86-26.02-.37-1.05-.96-2.15-.48-3.24 1.76-2.44 2.68-5.99 4.32-8.4.11-.16.14-.39.38-.46m22.9 126.7-9.84-5.28-13.2-7.2.35-.25c.74.24 1.55-.18 2.05-.23 6.2-.63 12.14-1.09 17.28-5.04l4.08-2.64c-1.9 6.7-1.75 13.8-.72 20.64m-56.19 28.65c-.39-.06-.79-.12-1.17-.17-.44-.06-.88-.11-1.31-.15l-8.87-.72c-.11-.01-.22-.01-.34-.02h-.02c-.04 0-.09-.01-.13-.01-2.02-.04-4.03-.04-6.04.02-1.48.03-2.95.09-4.42.18-.92.04-1.83.11-2.75.19-.11 0-.22.01-.34.02-1.12.09-2.25.2-3.37.33-6.92.77-13.72 2.16-20.35 4.26-.8.25-1.54.63-2.45 1.02-.14.06-.43-.12-.72-.24 2.02-3.22 3.52-6.72 5.28-10.08 2.61-4.99 5.41-9.9 7.9-14.95.68-.43 1.45-.79 2.18-1.13 2.88-1.34 6.01-2.23 9.12-2.88 7.36-1.55 15.39-1.69 22.8-.24 2.57.5 6.49 1.6 8.87 2.64 1.98.86 2.74 1.28 3.84 3.12 2.29 3.81 4.63 8.7 6.72 12.72 1.65 3.16 3.86 6.96 5.28 10.08.09.18.32.88.24.96-.37-.1-.84-.14-1.2-.24-.4-.11-.81-.23-1.23-.35-.7-.2-1.42-.41-2.15-.62-4.86-1.42-10.32-2.99-15.37-3.74m-54.56 3.86c0 .01-.01.01-.02.02-.06.11-.1.19-.12.21-.01-.03-.01-.07-.02-.11-.06-.22-.16-.54-.2-.71-.34-1.32-1.07-2.98-1.64-4.24-5.49-12.21-16.82-22.01-29.56-26 2.46-1.71 5.26-3.11 7.92-4.56 4.19-2.29 8.67-4.94 12.96-6.96.42-.2.74-.69 1.28-.66 1.63.64 3.64 1.12 5.2 1.86.64.3 1.72 1.03 2.4 1.44 3.44 2.07 6.72 4.9 9.36 7.92.73.84 1.5 1.74 2.16 2.64.52.71 3.11 4.5 3 5.06-2.44 4.51-4.7 9.12-7.08 13.66-.25.48-.5.96-.76 1.43-.2.37-.4.76-.62 1.15-.13.25-.27.5-.4.75-.94 1.78-1.96 3.67-2.74 5.09-.11.2-.22.41-.33.61-.35.64-.63 1.13-.79 1.4m-34.44-53.15 2.16 1.44c5.51 4.56 12.04 5.71 18.96 6.24.04 0 .27.22.58.25.67.06 1.38-.06 2.06-.01l-1.2.96c-4.48 1.99-8.66 4.63-12.96 6.96-3.02 1.63-6.13 3.12-9.12 4.8a53.9 53.9 0 0 0-.48-20.64m74.16-98.4c0-3.43-.11-6.89.11-10.32 10.33 10.37 24.85 15.47 39.48 13.68l-3.36 6.96c-3.2 5.5-5.68 11.42-8.64 17.04-.4.77-.98 1.48-1.26 2.34-1 .35-2.01.58-3.06.78-2.16.43-4 .61-6.24.48-3.78-.21-7.86-1.54-11.03-3.6-1.37-.88-3.22-2.41-4.32-3.6-.55-.59-1.14-1.22-1.58-1.91-.21-1.03-.08-2.09-.1-3.13-.16-6.22-.02-12.5 0-18.72m-20.88 120.72c.81-1.52 1.6-3.04 2.4-4.56 2.24-4.26 4.7-8.42 6.69-12.81.34-.37 1.68-.29 2.19-.39 5.05-.95 10.27-1.04 15.36-.24.78.12 2.98.26 3.47.72 1.98 4.28 4.43 8.32 6.6 12.48.79 1.51 1.64 3.05 2.4 4.56.5.96.83 2.17 1.44 3.12-1.82-.66-3.65-1.16-5.52-1.68-10.7-2.99-21-2.83-31.67.24-1.61.46-3.19 1-4.8 1.44.5-.95.93-1.94 1.44-2.88m-1.92-.96c-.8 1.53-2.02 3.1-2.64 4.8-.64-.3-.59-.53-.96-.72-.31-.55-.62-1.15-.96-1.68-.51-.8-1.11-1.43-1.68-2.16-3.89-5.03-7.83-8.31-13.44-11.28-.8-.43-1.41-.61-2.16-.96-.23-.1-1.44-.76-1.44-.84.31-.44.76-.59 1.2-.84.98-.56 2.06-.84 3.12-1.2 1.71-.58 3.3-.98 5.04-1.68 2.54-1.03 3.71-1.75 6-3.12 2.96-1.78 4.73-3.13 7.44-5.28 1.76-1.4 1.57-2.03 3.68-.44 1.77 1.35 4.65 4.61 5.44 6.68.13.34.2.72.24 1.08l-6.48 13.08c-1.18 1.17-1.65 3.12-2.4 4.56m40.55-5.04-6.37-12.24c-.14-.54.33-1.88.61-2.4.97-1.78 4.25-5.36 6.02-6.34 1.14-.63.99-.32 1.9.34 2.63 1.91 4.56 3.71 7.44 5.52 2.08 1.3 3.51 2.11 5.76 3.12 1.83.82 3.17 1.28 5.04 1.92 1.22.42 2.41.69 3.6 1.2.49.21.95.5 1.44.72l.48.36c-.01.08-1.22.75-1.44.84-2.1.93-3.08 1.41-5.04 2.64-3.73 2.35-6.43 4.58-9.36 7.92-1.2 1.37-2.27 2.85-3.36 4.32-.45.62-.8 1.33-1.32 1.92l-.6-.48c-.7-1.64-1.57-3.22-2.4-4.8-.79-1.52-1.6-3.04-2.4-4.56m-4.32-26.88-9.32-5.08c.28-1.04-.48-2.2-.51-2.98-.03-.68 3.78-8 4.43-9.23.42-.8 1.78-3.63 2.17-4.06.2-.22.25-.33.59-.25.27.68.94 1.52 1.44 2.05 1.28 1.33 2.94 2.28 4.1 3.59l-7.39 9.84zm-1.58-24.72c2.35-4.13 4.24-8.49 6.38-12.72 2.14-4.22 4.29-8.53 6.48-12.72.58-1.1 1.34-2.42 2.16-3.36 2.15 6.21 7.26 11.85 13.38 14.35.45.18.93.17 1.26.29.42.15 2.58.95 2.64 1.08-.52.23-.96.54-1.44.84-1.52.96-3.05 1.9-4.56 2.88-1.72 1.12-3.36 2.17-5.04 3.36-2.74 1.95-5.13 3.79-7.68 6-2.51 2.18-4.84 4.56-7.31 6.72-.78.02-4.18-3.08-4.81-3.84-.6-.72-1.68-1.96-1.46-2.88m17.78 23.29c-.94-.61-4.83-3.56-4.92-4.46-.09-.8 2.77-3.92 3.48-4.67 10.63-11.24 27.07-18.7 42.12-21.6.01.88.06 9.99 0 11.28-.89 21.61-23.19 30.83-40.68 19.45m38.29-51.96c-1.18 1.33-3.15 3.13-4.57 4.19-3.57 2.68-8.51 5.28-12.48 7.44-1 .55-2.78 1.93-3.84 1.92-.29 0-1.58-.18-1.92-.24-1.21-.23-3.9-1.14-5.04-1.68-4.4-2.09-8.62-6.84-10.56-11.28-.28-.66-1.22-3.15-1.19-3.7.02-.31.97-2.29 1.19-2.78 2.56-5.48 5.83-11.37 8.64-16.8.92-1.77 2.06-4.37 3.07-5.93.15-.23-.03-.43.53-.31 4.54 12.62 15.02 22.61 27.49 27.36.1.13-1.12 1.58-1.32 1.81m-67.92 8.27q-.03-6.72 0-13.44c0-1.28-.01-2.56 0-3.84.76.59 1.42 1.3 2.16 1.92 5.44 4.6 11.68 6.38 18.71 5.76 1.3-.12 2.56-.12 3.84-.48-.77 1.29-1.26 2.74-1.92 4.08-2.01 4.08-4.16 8.19-6.24 12.24-2.34 4.56-4.92 9.01-7.07 13.68-3.43.97-7.26-.8-9.44-3.53-.1-5.46-.03-10.93-.04-16.39m0 19.68c2.2 1.9 5.05 2.73 7.92 3l-6.36 12.36-1.56-.72zm3.35 22.67 12.96 6.97c-2.85 1.89-4.63 4.7-6.71 7.32l-6.62-12.96c-.24-.54-.09-.99.37-1.33m4.33 15.49c-3.93-.52-7.92-.95-11.89-.73-1.95.11-3.93.65-5.88.61l6.77-13.04c.68-.09 1.28.22 2 .22.96.01 1.93-.73 2.48.38zm-20.16-1.2c-1.28-3.02-3.81-5.22-6.24-7.32l12.84-7.05.49 1.17zm1.91-33.96c2.88-.16 5.59-1.09 7.93-2.76v14.28l-1.57.81zm4.51 14.36-.9 3.16-8.88 4.68 4.27-6.08-7.39-10c1.35-.61 2.91-1.82 3.97-2.87.34-.34 1.86-2.7 2.26-2.41zm-14.65-9.95c-2.67-2.69-5.43-5.22-8.33-7.65-2.41-2.01-4.86-3.97-7.44-5.76-1.73-1.19-3.51-2.25-5.28-3.36-1.53-.96-3.03-1.93-4.56-2.88.08-.72.21-.2.48-.48 6.14-1.56 11.56-5.89 14.68-11.36.36-.64 1.73-3.87 2-4 .47.98 1.05 1.92 1.56 2.88 2.47 4.66 4.81 9.45 7.2 14.16 2.05 4.06 4.05 8.15 6.19 12.16-.31 1.51-5.39 6.58-6.5 6.29m-8.09-40.18c-.21-.18-1.42-2.49-1.68-2.99-2.94-5.61-5.83-11.37-8.64-17.04-.81-1.63-2.12-3.96-2.75-5.53-.1-.25-.19-.43-.13-.71 14.55 1.8 29.11-3.35 39.36-13.68l-.23 32.54c-.38.52-.78 1.06-1.21 1.54-.99 1.09-2.84 2.54-4.08 3.36-3.88 2.55-8.06 3.82-12.72 3.84-2.16.01-3.91-.15-6-.72-.57-.16-1.48-.24-1.92-.61m-12.24-18.83c2.9 5.65 5.82 11.35 8.64 17.04.51 1.03 1.03 2.07 1.56 3.1.03.17-.49 2.11-.6 2.42-1.98 5.48-7.18 11.39-12.72 13.44-.98.36-4.07 1.14-5.04 1.2-1.01.06-.97-.15-1.68-.48-1.2-.55-2.45-1.28-3.6-1.92-3.91-2.19-9.07-5.11-12.48-7.92-1.19-.98-3-2.66-3.96-3.84-.18-.21-.86-1.01-.73-1.2 12.65-4.86 22.54-14.81 27.61-27.36 1.02 1.82 2.05 3.67 3 5.52m12 68.27c2.26 2.57 2.7 2.64 0 5.05-8.14 7.29-20.96 9.44-30.73 4.32-9.09-4.76-12.24-11.81-13.19-21.72-.28-2.86-.3-5.07 0-7.92.11-1.02.15-1.96.24-3.12 16.03 3.13 32.78 11 43.68 23.39m60.23 61.57c-2.26-4.29-4.18-8.81-6.72-12.96.71-2.68 3.08-4.75 4.32-7.2 1.75-1.25 3.67-3.96 5.64-5.52 1.31-1.03 3.49-2.53 4.92-3.36 2.22-1.28 4.72-2.21 7.13-3.06l.55.18c4.33 2.31 8.66 4.61 12.96 6.96 2.6 1.42 5.93 2.95 8.33 4.5.24.15.43-.02.31.54-12.55 4.09-23.62 13.61-29.24 25.59-.6 1.28-.96 2.63-1.48 3.93-.13.35-.29.74-.48 1.2-.45.1-.51-.17-.72-.48-1.73-2.57-3.99-7.42-5.52-10.32m-31.2-161.87v-.02c.02-.13.03-.23.04-.27 0-.01 0-.02.01-.02.05-.04.53-.02 1.37.06h.01c.45.04 1 .1 1.63.17.02 0 .04 0 .06.01 6.74.81 22.95 3.38 32.02 6.92.34.13.69.27 1.03.42 2.07.88 8.72 3.8 9.67 5.32l-4.32 8.64-.49.57c-.35.19-.75.25-1.13.33-13.47 2.69-28.18-3.41-37.73-12.66-.07-.07-.15-.14-.23-.22-.55-.51-1.45-1.34-1.74-1.94v-.01c-.02-.05-.04-.1-.05-.14l-.03-.12c-.03-.12-.05-.23-.08-.36-.32-1.79-.16-5.58-.04-6.68m-1.98 106.37c-3.03-.62-3.01-5.28 0-5.89 4.7-.95 5 6.92 0 5.89m-.78-25.86c-2.2 2.77-5.69 4.04-9.2 3.56-1.87-4.37-4.35-8.46-6.51-12.68-2.4-4.68-4.91-9.44-7.2-14.16-.52-1.06-1-2.26-1.44-3.36.63.15 1.29.15 1.92.24 8.02 1.12 14.67-.46 20.88-5.76.61-.52.91-.89 1.44-1.44.39.25.23.91.24 1.32.13 10.75 0 21.53-.13 32.28m-45.07-68.51c11.95-6.45 36.35-11.05 43.31-12.13h.02c.08-.01.16-.02.24-.04.08-.01.16-.03.24-.04.74-.1 1.21-.16 1.35-.16.01-.01.03 0 .04 0l-.01 7.55c-.08.44-1.5 1.86-1.91 2.29-6.74 7.05-17.35 11.94-27.03 12.93-3.99.29-7.96.19-11.92-.45-.07-.03-.76-1.2-.89-1.44-1.44-2.66-2.39-5.63-4.08-8.16.21-.12.42-.24.64-.35m-3.04 1.55c.39.15.56.45.77.79 1.25 2.11 2.81 5.34 3.79 7.61.17.4.42.77.6 1.18-3.79 13.15-14.35 24.17-27.33 28.54l-1.59-2.36c.01-.89-.88-2.53-1.32-3.36-.64.01-4.69 6.68-4.68 7.92-.21.15-3.95-2.32-4.4-2.68-.34-.27-.65-.41-.64-.92 8.05-14.92 20.29-27.93 34.8-36.72m-36.24 39.36 5.04 3 .24.46a83.4 83.4 0 0 0-5.28 27.5c-.04 2-.14 4.09 0 6.12.23 3.1 1 6.17 1.44 9.24-1.36.01-2.72-.01-4.08 0-1.01.01-6.82.17-7.09-.22-.63-15.85 2.78-31.9 9.73-46.1m1.08 86.89c-6.1-11.87-9.82-24.8-10.68-38.17h11.76c1.01 2.93 2.07 5.84 3.56 8.56 2.17 3.96 3.62 5.36 4.77 10.11 1.51 6.21 1.68 12.49.55 18.77-.17.94-.33 1.89-.55 2.81l-6.41 3.43c-1.04-1.73-2.08-3.71-3-5.51m42.12 41.27c-15.09-7.51-28.44-19.52-37.68-33.6l6.89-4.04c.23-.06 1.47.12 1.75.2 12.62 3.57 24.96 14.99 29.76 27.12.68 1.74 1.29 3.55 1.67 5.39zm83.03 1.19c-25.42 11.73-55.21 11.74-80.63.01.34-1 1.61-4.36 2.22-4.98.57-.56 4.43-1.64 5.46-1.98 20.26-6.71 44.23-6.84 64.55-.24 1.24.4 5.08 1.49 5.89 2.15.23.19 2.04 3.57 2.27 4.09.07.15.29.87.24.95m11.02-6.13c-1.16.73-7.92 4.86-8.7 4.67-.24-.07-.28-.29-.4-.45-.25-.37-2.12-3.95-2.13-4.19-.06-1.09 1.62-5.15 2.13-6.37 4.75-11.35 16.07-21.88 27.84-25.68.48-.16 2.78-.69 3.13-.61.72.15 5.62 2.92 6.47 3.49.17.11.38.16.45.39-7.15 11.45-17.36 21.5-28.79 28.75m33.75-37.05c-.4.78-3.25 6.08-3.6 6.16-.15.03-.44-.17-.61-.17l-5.53-3.23c-.64-1.5-.74-3.12-.95-4.69-.81-6-.54-11.51.98-17.38 1.32-5.09 3.91-7.55 5.95-12.05.88-1.96 1.58-4.03 2.19-6.09H211c-.8 12.95-4.32 25.91-10.19 37.45m10.44-40.68c-.03.27.01.54-.23.73-.35.23-7.1.11-8.18.1-.96-.01-1.92.01-2.88 0 .36-2.24.96-4.46 1.2-6.72.78-7.39.11-16-1.31-23.29-.85-4.37-2.2-8.64-3.65-12.84l4.48-3.23c.29-.19.48-.28.65-.43l.19.43c4.22 8.92 7.31 18.43 8.72 28.24.67 4.67 1.56 12.45 1.01 17.01"/><path d="M228.945 99.06c-6.92-50.558-47.438-91.085-98.006-98.006L120.632 0h-11.245C51.291 2.694 3.683 49.886.01 107.844c-.01.181-.01 1.63-.01 3.536-.01 6.9.436 13.8 1.31 20.646l.32 2.439c8.123 48.534 47.32 86.857 95.917 94.214l7.07.927c.767.096 1.544.17 2.321.202l7.081.352c.586.02 1.182.02 1.768 0l3.95-.128a24 24 0 0 0 1.768-.128l10.957-1.225c49.93-7.517 89.625-47.693 96.483-97.739L230 120.878v-11.5zM223 120.525l-.99 9.45c-6.44 47-43.72 84.73-90.61 91.79l-10.29 1.15c-.55.06-1.1.1-1.66.12l-3.71.12c-.55.02-1.11.02-1.66 0l-6.65-.33c-.73-.03-1.46-.1-2.18-.19l-6.64-.87c-45.64-6.91-82.45-42.9-90.08-88.48l-.3-2.29c-.82-6.43-1.24-12.91-1.23-19.39 0-1.79 0-3.15.01-3.32 3.45-54.43 48.16-98.75 102.72-101.28h10.56l9.68.99c47.49 6.5 85.54 44.56 92.04 92.04l.99 9.69zm-35.76-12.72c-.89 21.61-23.19 30.83-40.68 19.45-.94-.61-4.83-3.56-4.92-4.46-.09-.8 2.77-3.92 3.48-4.67 10.63-11.24 27.07-18.7 42.12-21.6.01.88.06 9.99 0 11.28m-99.35 12.11c-10.9-12.39-27.65-20.26-43.68-23.39-.09 1.16-.13 2.1-.24 3.12-.3 2.85-.28 5.06 0 7.92.95 9.91 4.1 16.96 13.19 21.72 9.77 5.12 22.59 2.97 30.73-4.32 2.7-2.41 2.26-2.48 0-5.05" style="fill:#fff"/><path d="M155.803 200.925c.068.155.29.868.235.946-25.416 11.732-55.212 11.748-80.63.014.34-1 1.611-4.359 2.224-4.975.565-.569 4.426-1.644 5.454-1.985 20.267-6.709 44.233-6.843 64.557-.24 1.231.4 5.077 1.49 5.888 2.152.226.184 2.042 3.572 2.272 4.088m5.035-155.635c4.057 11.772 15.076 22.282 26.863 26.018-.007-.436.366-.682.5-.943.57-1.11.998-2.509 1.512-3.647.136-.3.395-1.289.764-1.15 1.275.476 3.904 6.614 4.82 7.915 1.312-.93 2.925-1.655 4.183-2.638.227-.177.748-.457.698-.8-8.18-15.088-20.23-28.25-35.114-36.86-.242.069-.272.298-.382.46-1.64 2.413-2.563 5.96-4.32 8.4-.487 1.095.111 2.186.476 3.245M31.888 70.807c.45.356 4.192 2.833 4.398 2.678-.006-1.24 4.042-7.907 4.683-7.915.44.824 1.333 2.461 1.32 3.355l1.59 2.356c12.981-4.364 23.538-15.385 27.327-28.539-.175-.404-.425-.773-.599-1.177-.978-2.269-2.54-5.5-3.793-7.608-.2-.34-.378-.638-.767-.792-14.51 8.792-26.75 21.796-34.798 36.72-.006.514.3.655.638.922m85.517-43.281c.414.596 1.167 1.062 1.68 1.56 9.56 9.245 24.267 15.35 37.734 12.655.383-.077.777-.138 1.128-.32l.496-.576 4.32-8.64c-.957-1.522-7.604-4.44-9.677-5.322-11.148-4.743-22.024-6.865-34.118-7.4-.509-.023-1.64-.488-1.996-.177-.107.094-.023.404-.046.42.3 2.022-.613 6.223.48 7.8m-43.98 14.038c3.96.638 7.923.744 11.911.45 9.69-.992 20.295-5.878 27.03-12.929.415-.434 1.832-1.854 1.914-2.285l.006-7.555c-.537-.15-1.41.238-2.03.25-15.813.315-30.23 4.772-43.808 12.47 1.693 2.53 2.647 5.505 4.08 8.16.128.238.817 1.409.896 1.44M195.4 166.605c-.848-.575-5.75-3.337-6.474-3.493-.35-.075-2.645.458-3.125.613-11.768 3.8-23.09 14.326-27.838 25.68-.51 1.218-2.198 5.276-2.138 6.372.013.235 1.88 3.822 2.137 4.188.115.164.16.381.401.449.771.19 7.54-3.934 8.7-4.67 11.426-7.247 21.64-17.299 28.782-28.75-.066-.23-.277-.275-.445-.389m-151.432-3.36c-.278-.078-1.523-.263-1.745-.205l-6.894 4.045c9.244 14.076 22.59 26.086 37.678 33.6l2.39-4.932c-.383-1.837-.983-3.65-1.67-5.388-4.796-12.13-17.14-23.554-29.759-27.12m-3.12-4.56c1.131-6.282.96-12.558-.55-18.77-1.153-4.748-2.594-6.148-4.77-10.109-1.494-2.717-2.554-5.634-3.559-8.56H20.21c.861 13.37 4.58 26.295 10.675 38.164.925 1.802 1.962 3.79 3.005 5.515l6.415-3.425c.22-.928.376-1.876.545-2.815m156.198-31.354c-2.037 4.509-4.628 6.96-5.947 12.052-1.52 5.87-1.787 11.384-.978 17.382.21 1.566.307 3.188.947 4.693l5.532 3.227c.172-.002.46.202.607.168.35-.08 3.198-5.376 3.598-6.163 5.87-11.535 9.398-24.492 10.195-37.445h-11.76c-.614 2.06-1.308 4.126-2.194 6.086m13.194-26.326c-1.415-9.81-4.506-19.318-8.726-28.238l-.23-.233a.9.9 0 0 1-.604.231L196.195 76c1.457 4.197 2.802 8.462 3.654 12.837 1.42 7.287 2.088 15.897 1.311 23.29-.237 2.262-.84 4.478-1.199 6.718.957.01 1.922-.01 2.88.001 1.08.012 7.83.134 8.174-.105.248-.188.205-.46.236-.723.55-4.56-.337-12.34-1.01-17.012m-183.07 17.84c1.356-.009 2.721.008 4.08 0-.442-3.071-1.215-6.137-1.44-9.242-.146-2.025-.044-4.117-.002-6.118a83.4 83.4 0 0 1 5.275-27.495l-.23-.464-5.045-3c-6.948 14.196-10.357 30.254-9.735 46.094.276.396 6.081.232 7.095.225m89.862-56.147c.435.69 1.024 1.315 1.573 1.907 1.103 1.192 2.952 2.715 4.32 3.6 3.175 2.056 7.254 3.386 11.04 3.6 2.233.127 4.07-.054 6.24-.48 1.04-.204 2.057-.43 3.057-.78.273-.855.86-1.573 1.261-2.34 2.952-5.621 5.435-11.541 8.64-17.04l3.358-6.958c-14.634 1.786-29.147-3.316-39.477-13.68-.223 3.425-.112 6.884-.12 10.318-.013 6.222-.16 12.503 0 18.72.027 1.04-.11 2.103.108 3.133m-20.986 9.107c4.66-.017 8.848-1.285 12.72-3.84 1.244-.82 3.096-2.265 4.08-3.36.43-.479.83-1.022 1.217-1.541l.222-32.539c-10.246 10.332-24.805 15.476-39.356 13.68-.058.283.032.462.13.708.632 1.574 1.937 3.896 2.75 5.531 2.814 5.672 5.702 11.433 8.64 17.04.26.498 1.47 2.813 1.684 2.994.437.366 1.343.45 1.914.606 2.094.573 3.838.728 6 .72m67.916 17.04c1.057.008 2.84-1.375 3.84-1.92 3.964-2.16 8.912-4.757 12.48-7.44 1.416-1.065 3.39-2.864 4.565-4.193.2-.226 1.42-1.675 1.318-1.808-12.46-4.747-22.945-14.741-27.486-27.358-.56-.121-.384.075-.534.308-1.009 1.561-2.146 4.165-3.062 5.931-2.816 5.427-6.082 11.32-8.64 16.8-.229.49-1.174 2.472-1.193 2.775-.036.552.906 3.048 1.193 3.705 1.937 4.44 6.16 9.195 10.56 11.28 1.135.538 3.824 1.451 5.04 1.68.34.065 1.623.238 1.92.24M45.283 73.483c-.137.195.55.996.722 1.206.967 1.178 2.77 2.852 3.963 3.836 3.41 2.812 8.57 5.734 12.48 7.92 1.153.645 2.404 1.372 3.6 1.92.708.325.673.542 1.68.48.97-.06 4.065-.84 5.04-1.2 5.545-2.054 10.737-7.961 12.72-13.44.11-.31.626-2.251.597-2.423a324 324 0 0 1-1.559-3.097c-2.82-5.69-5.733-11.39-8.64-17.04a165 165 0 0 0-2.999-5.515c-5.07 12.544-14.956 22.49-27.605 27.353M154.36 192.285c-.045-.49.345-.85.483-1.2.512-1.298.872-2.645 1.473-3.926 5.626-11.986 16.692-21.505 29.244-25.597.122-.56-.076-.384-.308-.535-2.404-1.555-5.734-3.083-8.33-4.502-4.3-2.35-8.638-4.652-12.96-6.96l-.55-.175c-2.415.846-4.91 1.771-7.129 3.055-1.434.83-3.615 2.33-4.92 3.36-1.977 1.557-3.893 4.27-5.64 5.52-1.239 2.452-3.615 4.522-4.32 7.2 2.537 4.153 4.46 8.672 6.72 12.96 1.53 2.902 3.788 7.752 5.52 10.32.208.308.267.578.717.48m-77.033 0c1.783-3.464 3.711-6.87 5.52-10.32 2.38-4.54 4.638-9.153 7.085-13.66.105-.557-2.485-4.347-3.006-5.06-.66-.903-1.424-1.796-2.16-2.64-2.633-3.019-5.92-5.845-9.36-7.92-.68-.411-1.762-1.136-2.4-1.44-1.56-.744-3.57-1.219-5.2-1.861-.536-.025-.858.463-1.279.661-4.288 2.019-8.767 4.667-12.959 6.96-2.656 1.453-5.46 2.847-7.92 4.558 12.74 3.992 24.073 13.792 29.561 26 .567 1.26 1.303 2.926 1.638 4.242.05.196-.035.494.002.72.23.09.451-.24.478-.24m-24.959-37.2c4.303-2.325 8.485-4.969 12.96-6.96l1.198-.957c-.677-.052-1.383.067-2.058.007-.309-.027-.543-.247-.58-.25-6.917-.53-13.446-1.679-18.96-6.24l-2.158-1.439a53.8 53.8 0 0 1 .481 20.64c2.991-1.678 6.102-3.171 9.117-4.8m132.233-13.2c-5.146 3.947-11.086 4.408-17.279 5.04-.5.051-1.315.469-2.056.235l-.344.245 13.2 7.2 9.838 5.28c-1.035-6.838-1.183-13.938.72-20.637zM82.663 192.461c6.627-2.1 13.427-3.484 20.342-4.256 5.71-.637 11.414-.853 17.171-.731l7.438.582c6.403.305 16.557 3.384 22.91 5.19.354.1.822.143 1.197.238.078-.08-.156-.78-.238-.959-1.427-3.123-3.632-6.916-5.28-10.08-2.092-4.018-4.433-8.908-6.72-12.72-1.103-1.839-1.863-2.26-3.84-3.12-2.387-1.038-6.306-2.138-8.879-2.64-7.406-1.445-15.435-1.31-22.799.24-3.107.655-6.236 1.536-9.12 2.88-.729.34-1.493.698-2.173 1.13-2.497 5.052-5.295 9.961-7.906 14.95-1.756 3.357-3.258 6.864-5.28 10.08.291.12.581.179.72.24.64-.559 1.651-.768 2.457-1.024m43.744-88.972c2.148-4.67 4.736-9.12 7.077-13.684 2.078-4.053 4.224-8.162 6.24-12.24.66-1.335 1.15-2.79 1.92-4.077-1.284.354-2.543.362-3.84.477-7.03.625-13.276-1.156-18.72-5.76-.738-.625-1.395-1.326-2.157-1.92-.008 1.278.003 2.563-.002 3.84-.02 4.476-.01 8.964 0 13.44.013 5.46-.05 10.93.05 16.391 2.173 2.73 6.01 4.5 9.432 3.533m32.035-13.684c-.33-.121-.81-.108-1.262-.293-6.119-2.5-11.227-8.133-13.38-14.346-.818.94-1.58 2.257-2.157 3.36-2.192 4.19-4.342 8.5-6.48 12.72-2.14 4.226-4.038 8.589-6.38 12.72-.227.924.86 2.162 1.458 2.882.632.76 4.023 3.855 4.81 3.833 2.465-2.16 4.803-4.534 7.312-6.716 2.545-2.212 4.936-4.048 7.68-6 1.68-1.195 3.315-2.243 5.04-3.36 1.51-.978 3.041-1.916 4.56-2.88.476-.302.918-.608 1.438-.839-.06-.131-2.219-.926-2.639-1.08m-44.397-23.28c-.525.547-.83.918-1.44 1.44-6.2 5.303-12.859 6.878-20.879 5.76-.627-.087-1.29-.089-1.919-.239.444 1.104.922 2.294 1.44 3.36 2.293 4.724 4.8 9.478 7.2 14.16 2.161 4.219 4.64 8.307 6.516 12.68 3.507.477 6.997-.787 9.197-3.565.125-10.75.262-21.526.13-32.28-.006-.405.153-1.066-.245-1.316m-24.719 11.52c-.51-.964-1.085-1.897-1.559-2.879-.268.127-1.637 3.364-2 4-3.118 5.47-8.54 9.798-14.68 11.36-.268.28-.395-.24-.48.48 1.532.948 3.035 1.924 4.56 2.88 1.773 1.11 3.555 2.17 5.28 3.36 2.587 1.785 5.035 3.744 7.44 5.76a120 120 0 0 1 8.328 7.654c1.11.283 6.191-4.788 6.506-6.293-2.139-4.017-4.14-8.104-6.195-12.162-2.385-4.71-4.727-9.499-7.2-14.16m50.157 86.88.598.48c.515-.586.863-1.297 1.322-1.92 1.083-1.468 2.158-2.945 3.36-4.32 2.925-3.343 5.621-5.567 9.36-7.92 1.953-1.23 2.935-1.713 5.04-2.64.214-.094 1.43-.758 1.435-.842l-.476-.358c-.488-.216-.949-.51-1.44-.72-1.188-.51-2.38-.78-3.6-1.2-1.869-.643-3.214-1.101-5.04-1.92-2.254-1.011-3.683-1.82-5.759-3.12-2.887-1.809-4.814-3.607-7.44-5.52-.91-.664-.76-.972-1.9-.34-1.778.985-5.056 4.558-6.019 6.34-.28.52-.753 1.858-.62 2.4l6.38 12.24c.792 1.521 1.61 3.037 2.4 4.56.82 1.581 1.691 3.164 2.4 4.8m-36.47-21.959a5 5 0 0 0-.248-1.08c-.786-2.066-3.662-5.332-5.44-6.68-2.1-1.593-1.912-.963-3.68.44-2.704 2.146-4.474 3.496-7.439 5.28-2.285 1.374-3.456 2.09-6 3.12-1.736.702-3.33 1.102-5.04 1.68-1.053.355-2.14.644-3.119 1.2-.433.245-.892.397-1.195.84 0 .082 1.21.735 1.435.84.753.348 1.357.534 2.16.96 5.616 2.973 9.554 6.254 13.44 11.28.567.734 1.168 1.36 1.68 2.16.34.533.648 1.125.96 1.68.373.186.32.42.96.72.623-1.703 1.838-3.274 2.64-4.8.755-1.442 1.223-3.39 2.4-4.56zm28.07 19.8c1.868.52 3.697 1.02 5.52 1.677-.61-.943-.948-2.156-1.44-3.118-.768-1.506-1.614-3.053-2.4-4.56-2.17-4.165-4.626-8.202-6.6-12.478-.489-.46-2.694-.598-3.479-.722a45.3 45.3 0 0 0-15.359.24c-.507.096-1.846.018-2.18.395-1.996 4.39-4.46 8.547-6.699 12.805-.797 1.516-1.59 3.045-2.4 4.56-.504.943-.942 1.932-1.44 2.878 1.616-.434 3.19-.974 4.8-1.438 10.67-3.073 20.97-3.229 31.678-.24m-15.478-34.298c-.714-.006-1.318-.312-1.997-.223l-6.765 13.038c1.95.041 3.93-.502 5.872-.608 3.98-.216 7.962.205 11.89.728l-6.518-12.56c-.55-1.11-1.523-.367-2.482-.375m13.553-19.336c-.5-.523-1.165-1.367-1.438-2.045-.344-.077-.389.033-.586.248-.395.428-1.75 3.264-2.175 4.065-.65 1.226-4.455 8.543-4.427 9.222.032.782.785 1.941.51 2.987l9.32 5.076-4.497-6.118 7.393-9.845c-1.159-1.31-2.82-2.256-4.1-3.59m-27.223.363c-1.057 1.046-2.614 2.257-3.968 2.875l7.39 9.993-4.27 6.08 8.883-4.673.9-3.165-6.668-13.52c-.4-.29-1.92 2.066-2.267 2.41m24.592 30.71c2.081-2.622 3.865-5.433 6.712-7.32l-12.959-6.972c-.46.34-.613.797-.37 1.336zm-28.317-7.32c2.43 2.1 4.96 4.295 6.238 7.32l7.096-13.197-.495-1.174zm26.637-26.637c-2.868-.268-5.715-1.1-7.922-3.003v14.64l1.56.716zm-10.562 11.517v-14.28c-2.338 1.671-5.044 2.598-7.922 2.763l6.357 12.324zm.654 8.224c5 1.028 4.705-6.844.002-5.89-3.013.61-3.028 5.269-.002 5.89" style="fill:url(#a)"/></svg>