<svg xmlns="http://www.w3.org/2000/svg" width="216" height="216" viewBox="0 0 216 216"><defs><radialGradient id="a" cx="108.145" cy="110.028" r="89.953" fx="108.145" fy="110.028" gradientTransform="matrix(1 0 0 -1 0 218)" gradientUnits="userSpaceOnUse"><stop offset=".587" stop-color="#be98c2"/><stop offset=".664" stop-color="#a87fb0"/><stop offset=".865" stop-color="#744385"/><stop offset=".961" stop-color="#602c75"/></radialGradient></defs><path d="m115.458 0 10.364 1.274c44.548 7.155 80.598 42.651 88.663 87.002L216 98.88v18.24l-1.515 10.604c-8.17 45.071-45.175 80.8-90.549 87.276l-8.478 1H100.82l-11.562-1.516C42.78 206.377 6.349 167.942.788 121.05l-.75-8.729c.089-2.87-.12-5.774 0-8.64C2.311 49.429 46.12 2.938 100.82 0zM105.09 6.55C29.584 9.02-17.262 90.148 19.194 156.882c35.97 65.845 129.483 70.715 172.286 9.035 44.899-64.7 1.945-153.6-76.145-159.194z" style="fill:#602c75"/><path d="m105.09 6.55 10.245.172c78.09 5.594 121.044 94.493 76.145 159.194-42.803 61.68-136.317 56.81-172.286-9.035-36.456-66.734 10.39-147.86 85.896-150.33M107.06 18c-15.16.28-30.044 4.275-43.212 11.663l4.497 9.237c14.335 2.775 29.255-2.98 38.714-13.82zm2.159 0v7.08c9.528 10.876 24.23 16.442 38.637 13.924l4.77-9.129C139.572 22.173 124.374 18.353 109.22 18m-2.16 40.68V28.56c-1.631 1.099-2.907 2.622-4.445 3.833-6.083 4.79-14.353 8.275-22.073 9.124-3.606.397-7.078.164-10.678.126l11.953 23.805c.61 1.096 2.462 1.424 3.635 1.644 8.216 1.542 16.61-1.796 21.608-8.412m2.16-30.12v30.12c5.71 7.549 15.781 10.712 24.795 7.579l12.638-24.737c-5.547.49-10.957.298-16.367-1.032-5.885-1.446-12.157-4.527-16.86-8.337-1.198-.97-2.366-2.378-3.485-3.235-.241-.185-.302-.462-.721-.358m-47.275 2.4C47.84 39.145 36.198 51.535 28.699 66.004l4.574 3.112c1.669-2.523 2.456-5.727 4.916-7.676l2.185 5.502C52.73 63.14 62.534 52.613 66.462 40.38zm116.619 30.48 4.442 7.676 4.621-3.232c-6.032-11.354-14.502-21.414-24.681-29.26-.899-.691-8.192-5.967-8.61-5.664l-4.502 9.438c3.983 12.206 13.729 22.701 26.071 26.544.296-.462 2.376-5.698 2.659-5.502M68.183 43.2c-.547-.102-.381.035-.532.307-.787 1.422-1.372 3.395-2.22 4.978-5.088 9.51-13.452 16.485-23.402 20.52 3.144 4.626 8.493 7.707 13.278 10.476 1.286.744 5.948 3.62 7.015 3.784 1.012.155 2.194-.16 3.183-.387 7.348-1.69 12.936-8.007 14.869-15.144zm80.386 0-.535.31L135.9 67.74c1.784 5.97 5.721 11.352 11.482 13.972 1.621.737 5.116 1.882 6.82 1.556.903-.172 7.168-3.97 8.45-4.747 4.372-2.65 8.837-5.402 11.836-9.638-11.8-4.152-21.677-13.903-25.918-25.682m-41.51 19.2c-.419-.105-.48.173-.721.359-1.18.903-2.172 2.071-3.524 2.955-5.62 3.677-12.49 4.745-19.033 3.288l14.277 28.201c3.327.907 6.892-.89 9.001-3.483zm2.16 0v31.32c2.154 2.52 5.665 4.425 9.002 3.483l14.276-28.2c-5.968 1.36-12.344.523-17.68-2.482zm-80.386 49.2c-.072-2.005-.691-3.928-.929-5.91-1.137-9.494.197-19.482 2.73-28.65.293-1.063 1.87-4.997 1.809-5.64-.023-.25-.111-.314-.252-.478-.303-.352-4.334-2.828-4.665-2.774-6.682 13.383-9.809 28.452-9.25 43.452zm158.612 0h10.558c.605-14.99-2.467-30.125-9.251-43.453-.835.328-4.864 2.651-4.92 3.256-.04.423 1.331 3.846 1.573 4.678 2.785 9.6 4.193 19.863 2.969 29.848-.232 1.896-.815 3.756-.929 5.671M82.1 70.56c-.624-.114-.37.093-.497.341-2.102 4.082-3.217 6.778-6.935 9.862-2.932 2.432-5.14 2.912-8.509 4.21-.25.096-.578.1-.612.464a105.7 105.7 0 0 1 18.72 13.08c1.978 1.73 3.805 3.774 5.834 5.37 1.377-.466 6.086-4.809 5.87-6.045zm52.552 0-14.284 27.342c-.208 1.097 4.668 5.804 5.822 5.987.79.125 1.011-.805 1.5-1.295 4.832-4.836 10.631-9.415 16.343-13.174 2.16-1.42 4.432-2.74 6.698-3.983-.033-.363-.362-.368-.612-.464-1.503-.58-3.088-.895-4.59-1.65-4.945-2.488-9.176-7.546-10.877-12.763M40.221 89.096c-.265.087-.315.3-.352.543-.624 4.181-.466 11.612.307 15.776 2.913 15.681 18.789 23.298 33.414 17.95 4.249-1.555 9.272-4.358 11.58-8.325.084-.99-5.697-6.784-6.78-7.766-10.517-9.547-24.367-15.303-38.17-18.178m136.184-.055c-11.522 2.305-22.871 6.676-32.468 13.484-3.871 2.746-8.252 6.437-11.196 10.16-1.375 1.739-2.243 1.883-.72 3.83 6.792 8.685 22.342 10.741 31.83 5.686 13.104-6.983 13.598-19.776 12.554-33.16M107.06 110.64V96.96c-2.202 1.768-4.86 2.655-7.68 2.762l5.764 11.638zm2.16-13.68v13.68l1.916.72 5.765-11.637c-2.798-.085-5.444-1.1-7.681-2.763m-11.761 3.6c-.336-.076-.395.05-.603.234-.891.783-1.834 2.198-2.88 3.12-.696.613-1.63 1.378-2.513 1.69 1.242 2.005 6.611 7.245 6.918 9.293.162 1.09-3.24 4.406-3.798 5.58l8.29-4.304.788-2.83zm24.239 19.918c.254-.226-3.96-4.595-3.81-5.583.095-.62 2.443-3.74 2.995-4.47 1.232-1.63 2.653-3.112 3.93-4.706-2.212-1.395-4.003-3.12-5.635-5.154-.881 1.809-6.586 11.528-6.483 12.738.064.76.75 1.877.661 2.801zm-14.223-7.622c-3.538.727-2.443 6.66 1.758 5.357 2.755-.855 2.167-6.164-1.758-5.357m-78.04.904H18.514c.685 14.476 5.352 28.772 12.87 41.06l6.043-3.304c1.551-5.976 1.596-12.278.412-18.325-1.03-5.26-2.328-6.533-4.729-10.87-1.516-2.74-2.49-5.675-3.678-8.561m157.291 0c-.928 3.11-2.21 6.214-3.798 9.041-2.139 3.806-3.279 5.044-4.284 9.635-1.383 6.31-1.367 12.98.292 19.235l5.757 3.139c.467.004 1.07-1.3 1.355-1.768 5.586-9.207 9.727-21.812 11.202-32.476.257-1.857.658-4.503.655-6.316 0-.28-.016-.31-.26-.49zm-88.787 18 6.376-12.955-.543-.46-12.068 6.576c2.732 1.649 4.436 4.308 6.235 6.838m26.637-7.196c-1.793-.399-11.215-6.43-12.066-6.212-.215.055-.573.388-.614.602l6.565 12.564 3.114-4.081c.752-.965 2.002-1.58 2.849-2.377.202-.19.219-.165.152-.496m-8.158 8.155-6.237-12.138c-.466-.509-2.775.477-3.736-.264l-6.583 12.4 8.278-.737zm-30.957 22.8 10.952-21.239c-1.4-3.43-3.783-6.381-7.028-8.24-2.03 1.317-3.769 3.066-5.765 4.475-3.114 2.2-6.738 4.215-10.334 5.504-2.463.883-5.209 1.112-7.257 2.822 8.265 3.266 14.555 9.411 19.432 16.678m64.791-17.036c-2.302-1.177-4.832-1.59-7.258-2.464-6.036-2.175-11.064-5.92-15.937-9.978-3.306 1.745-5.755 4.813-7.19 8.239l10.952 21.24c1.468-1.521 2.492-3.489 3.844-5.153 3.506-4.317 8.146-7.908 13.105-10.413.378-.19 2.918-.896 2.484-1.47m-88.305-.24c-4.526-.169-8.802-.611-13.08-2.159-3.396-1.228-6.538-3.136-9.232-5.524 1.384 6.553 1.617 13.066.48 19.68zm114.7-7.442-4.637 3.16c-5.526 3.143-10.796 3.967-17.083 4.278-.27.013-.658-.155-.593.238l21.833 11.522c-1.112-6.455-.866-12.808.48-19.198m-48.71 23.757-9.95-18.967c-2.881-1.535-17.886-1.72-19.678.016l-9.965 18.95c12.56-4.895 27.046-4.929 39.593 0M71.788 180.96l12.194-22.74c.145-.68-1.803-3.361-2.305-4.073-4.459-6.318-10.89-11.607-18.414-13.757l-20.636 11.049c-.225.316.29.406.473.492 2.073.98 4.273 1.646 6.375 2.744 10.326 5.392 19.065 14.979 22.313 26.285m102.218-29.517c-6.47-3.02-12.566-7.062-18.95-10.208-2.537-1.25-2.925-.744-5.446.323-7.216 3.054-13.685 9.563-17.304 16.442l12.184 22.96c3.477-11.73 12.455-21.308 23.272-26.767zm-134.678 1.714-6.647 3.68c8.515 13.396 20.728 24.142 34.778 31.464.25.12.483.15.73-.007.196-.126 2.05-3.824 2.113-4.155.233-1.22-1.491-5.395-2.074-6.7-4.532-10.155-13.745-18.633-24.04-22.756-.914-.365-4.133-1.66-4.86-1.526m90.463 4.827c-10.38-5.314-23.48-6.204-34.731-3.306-2.048.528-7.694 2.284-8.837 3.882l-12.038 23.118c21.93-7.39 45.985-7.398 67.908 0zm18.32 30.4c.378.274 4.915-2.382 5.661-2.823 10.874-6.415 21.274-15.889 28.35-26.365.295-.437 1.609-2.13 1.378-2.483l-6.206-3.417c-1.172-.376-4.417 1.106-5.678 1.632-12.297 5.126-22.332 15.763-25.694 28.796zm-1.939 1.213-2.411-4.665c-22.378-8.916-48.677-8.81-71.109-.105l-2.55 4.649c17.895 8.535 38.51 10.592 57.879 6.29 6.277-1.395 12.34-3.556 18.191-6.17" style="fill:#fff"/><path d="m129.791 157.984 12.302 23.694c-21.923-7.398-45.979-7.39-67.908 0l12.038-23.118c1.143-1.598 6.789-3.354 8.837-3.882 11.251-2.898 24.351-2.008 34.731 3.306m13.97 26.948c-22.378-8.916-48.677-8.81-71.109-.105l-2.55 4.649c17.895 8.535 38.51 10.592 57.879 6.29 6.277-1.395 12.34-3.556 18.191-6.17zM39.869 89.64c-.624 4.181-.466 11.612.307 15.776 2.913 15.681 18.789 23.298 33.414 17.95 4.249-1.555 9.272-4.358 11.58-8.325.084-.99-5.697-6.784-6.78-7.766-10.517-9.547-24.367-15.303-38.17-18.178-.264.087-.314.3-.35.543m104.068 12.886c-3.871 2.746-8.252 6.437-11.196 10.16-1.375 1.739-2.243 1.883-.72 3.83 6.792 8.685 22.342 10.741 31.83 5.686 13.104-6.983 13.598-19.776 12.554-33.16-11.522 2.305-22.871 6.676-32.468 13.484M109.22 58.68c5.71 7.549 15.781 10.712 24.795 7.579l12.638-24.737c-5.547.49-10.957.298-16.367-1.032-5.885-1.446-12.157-4.527-16.86-8.337-1.198-.97-2.366-2.378-3.485-3.235-.241-.185-.302-.462-.721-.358zm-2.16-30.12c-1.631 1.099-2.907 2.622-4.445 3.833-6.083 4.79-14.353 8.275-22.073 9.124-3.606.397-7.078.164-10.678.126l11.953 23.805c.61 1.096 2.462 1.424 3.635 1.644 8.216 1.542 16.61-1.796 21.608-8.412zm40.975 14.95L135.9 67.74c1.784 5.97 5.721 11.352 11.482 13.972 1.621.737 5.116 1.882 6.82 1.556.903-.172 7.168-3.97 8.45-4.747 4.372-2.65 8.837-5.402 11.836-9.638-11.8-4.152-21.677-13.903-25.918-25.682zm-80.383-.003c-.787 1.422-1.372 3.395-2.22 4.978-5.088 9.51-13.452 16.485-23.402 20.52 3.144 4.626 8.493 7.707 13.278 10.476 1.286.744 5.948 3.62 7.015 3.784 1.012.155 2.194-.16 3.183-.387 7.348-1.69 12.936-8.007 14.869-15.144L68.182 43.2c-.546-.103-.38.034-.53.306m87.405 97.728c-2.537-1.25-2.925-.744-5.446.323-7.216 3.054-13.685 9.563-17.304 16.442l12.184 22.96c3.477-11.73 12.455-21.308 23.272-26.767l6.244-2.75c-6.47-3.02-12.566-7.062-18.95-10.208M83.982 158.22c.145-.682-1.803-3.362-2.305-4.074-4.459-6.318-10.89-11.607-18.414-13.757l-20.636 11.049c-.225.316.29.406.473.492 2.073.98 4.273 1.646 6.375 2.744 10.326 5.392 19.065 14.979 22.313 26.285zM28.7 66.004l4.574 3.112c1.669-2.523 2.456-5.727 4.916-7.676l2.185 5.502C52.73 63.14 62.534 52.613 66.462 40.38l-4.518-9.419C47.84 39.145 36.199 51.535 28.699 66.004m154.306 3.112 4.621-3.232c-6.032-11.354-14.502-21.414-24.681-29.26-.899-.691-8.192-5.967-8.61-5.664l-4.502 9.438c3.983 12.206 13.729 22.701 26.071 26.544.296-.462 2.376-5.698 2.659-5.502zM109.22 25.08c9.528 10.876 24.23 16.442 38.637 13.924l4.77-9.129C139.572 22.173 124.374 18.353 109.22 18zm-45.37 4.583 4.496 9.237c14.334 2.775 29.254-2.98 38.713-13.82V18c-15.158.28-30.043 4.275-43.21 11.663M32.68 156.838c8.515 13.395 20.728 24.14 34.778 31.463.25.12.483.15.73-.007.196-.126 2.05-3.824 2.113-4.155.233-1.22-1.491-5.395-2.074-6.7-4.532-10.155-13.745-18.633-24.04-22.756-.914-.365-4.133-1.66-4.86-1.526zm121.091 28.723c10.874-6.415 21.274-15.888 28.35-26.365.295-.437 1.609-2.13 1.378-2.483l-6.206-3.417c-1.172-.376-4.417 1.106-5.678 1.632-12.297 5.126-22.332 15.763-25.694 28.796l2.19 4.66c.377.274 4.914-2.382 5.66-2.823M18.515 113.76c.685 14.476 5.352 28.772 12.87 41.06l6.043-3.304c1.551-5.976 1.596-12.278.412-18.325-1.03-5.26-2.328-6.533-4.729-10.87-1.516-2.74-2.49-5.675-3.678-8.561zm164.412 9.041c-2.139 3.806-3.279 5.044-4.284 9.635-1.383 6.31-1.367 12.98.292 19.235l5.757 3.139c.467.004 1.07-1.3 1.355-1.768 5.586-9.207 9.727-21.812 11.202-32.476.257-1.857.658-4.503.655-6.316 0-.28-.016-.31-.26-.49h-10.919c-.928 3.11-2.21 6.214-3.798 9.041m-64.941 12.79c-2.881-1.535-17.886-1.72-19.678.016l-9.965 18.95c12.56-4.895 27.046-4.929 39.593 0zm-8.767-41.871c2.154 2.52 5.665 4.425 9.002 3.483l14.276-28.2c-5.968 1.36-12.344.523-17.68-2.482l-5.598-4.121zm-2.881-30.961c-1.18.903-2.172 2.071-3.524 2.955-5.62 3.677-12.49 4.745-19.033 3.288l14.277 28.201c3.327.907 6.892-.89 9.001-3.483V62.4c-.419-.105-.48.173-.721.359m14.03 35.143c-.208 1.097 4.668 5.804 5.822 5.987.79.125 1.011-.805 1.5-1.295 4.832-4.836 10.631-9.415 16.343-13.174 2.16-1.42 4.432-2.74 6.698-3.983-.033-.363-.362-.368-.612-.464-1.503-.58-3.088-.895-4.59-1.65-4.945-2.488-9.176-7.546-10.877-12.763zm-38.765-27c-2.102 4.081-3.217 6.777-6.935 9.861-2.932 2.432-5.14 2.912-8.509 4.21-.25.096-.578.1-.612.464a105.7 105.7 0 0 1 18.72 13.08c1.978 1.73 3.805 3.774 5.834 5.37 1.377-.466 6.086-4.809 5.87-6.045L82.1 70.56c-.625-.115-.37.092-.498.34m61.39 65.117c-6.036-2.175-11.064-5.92-15.937-9.978-3.306 1.745-5.755 4.813-7.19 8.239l10.952 21.24c1.468-1.521 2.492-3.489 3.844-5.153 3.506-4.317 8.146-7.908 13.105-10.413.378-.19 2.918-.896 2.484-1.47-2.302-1.178-4.832-1.59-7.257-2.465m-46.58-1.739c-1.402-3.43-3.784-6.381-7.03-8.24-2.03 1.317-3.768 3.066-5.764 4.475-3.114 2.2-6.738 4.215-10.334 5.504-2.463.883-5.209 1.112-7.257 2.822 8.265 3.266 14.555 9.412 19.432 16.678zm-68.509-28.59c-1.137-9.494.197-19.482 2.73-28.65.293-1.063 1.87-4.997 1.809-5.64-.023-.25-.111-.314-.252-.478-.303-.352-4.334-2.828-4.665-2.774-6.682 13.383-9.809 28.452-9.25 43.452h10.557c-.072-2.005-.691-3.928-.929-5.91m170.1 5.91c.604-14.99-2.468-30.125-9.252-43.453-.835.328-4.864 2.651-4.92 3.256-.04.423 1.331 3.846 1.573 4.678 2.785 9.6 4.193 19.863 2.969 29.848-.232 1.896-.815 3.756-.929 5.671zm-149.14 24.486c-3.395-1.228-6.537-3.136-9.231-5.524 1.384 6.553 1.617 13.066.48 19.68l21.832-11.998c-4.526-.168-8.802-.61-13.08-2.158m123.144-2.123c-5.526 3.143-10.796 3.967-17.083 4.278-.27.013-.658-.155-.593.238l21.833 11.522c-1.112-6.455-.866-12.808.48-19.198zm-61.83-13.38c-.465-.509-2.774.477-3.735-.264l-6.583 12.4 8.278-.737 8.278.739zm-13.324-19.787c-.891.783-1.834 2.198-2.88 3.12-.696.613-1.63 1.378-2.513 1.69 1.242 2.005 6.611 7.245 6.918 9.293.162 1.09-3.24 4.406-3.798 5.58l8.29-4.304.788-2.83-6.202-12.782c-.336-.077-.395.049-.603.233m21.033 14.1c.094-.619 2.442-3.74 2.994-4.47 1.232-1.63 2.653-3.111 3.93-4.705-2.212-1.395-4.003-3.12-5.635-5.154-.881 1.809-6.586 11.528-6.483 12.738.064.76.75 1.877.661 2.801l8.342 4.374c.254-.226-3.96-4.595-3.81-5.583m-5.38 3.458c-.214.055-.572.388-.612.602l6.564 12.564 3.114-4.081c.752-.965 2.002-1.58 2.849-2.377.202-.19.219-.165.152-.496-1.793-.399-11.215-6.43-12.066-6.212m-8.194.453-.543-.46-12.068 6.576c2.732 1.649 4.436 4.308 6.235 6.838zm4.905-8.165 1.916.72 5.765-11.637c-2.798-.085-5.444-1.1-7.681-2.763zm-2.16-13.68c-2.202 1.768-4.86 2.655-7.68 2.762l5.764 11.638 1.916-.72zm2.173 21.252c2.755-.854 2.167-6.163-1.758-5.356-3.538.727-2.443 6.66 1.758 5.356" style="fill:url(#a)"/></svg>