<svg xmlns="http://www.w3.org/2000/svg" width="216" height="216" viewBox="0 0 216 216"><defs><radialGradient id="a" cx="108.714" cy="110.067" r="95.725" fx="108.714" fy="110.067" gradientTransform="matrix(1 0 0 -1 0 218)" gradientUnits="userSpaceOnUse"><stop offset=".512" stop-color="#b6d1e1"/><stop offset=".595" stop-color="#b2ccdc"/><stop offset=".684" stop-color="#a8c0cf"/><stop offset=".777" stop-color="#96acba"/><stop offset=".871" stop-color="#7e909b"/><stop offset=".963" stop-color="#616e77"/></radialGradient></defs><path d="M179.282 85.2c1.26-.249 2.595-.331 3.838-.72.518 6.764 1.224 13.453.172 20.21-.265 1.702-.981 3.597-1.13 5.23-2.868 8.376-9.459 14.606-17.76 17.52a44 44 0 0 1-5.039 1.44c-.34.075-.85-.071-1.2 0l-4.56.24c-1.737-.314-3.552-.354-5.28-.72-1.93-.409-4.17-1.169-6-1.92-2.403-.988-5.88-2.952-7.919-4.56-1.593-1.257-5.273-4.917-5.044-7.074.054-.502 3.58-4.718 4.201-5.41 1.112-1.237 2.754-2.97 3.963-4.076 2.143-1.959 5.768-4.857 8.16-6.48 1.463-.993 3.987-2.495 5.52-3.36a104 104 0 0 1 5.04-2.64c.763-.372 1.828-.836 2.639-1.2.701-.314 1.458-.668 2.16-.96 1.15-.48 2.645-1.01 3.84-1.44 4.535-1.632 9.672-3.146 14.399-4.08m.96 15.6c.397-.25.24-.91.244-1.317a261 261 0 0 0 0-6.006c-.005-.407.154-1.068-.244-1.317-.013-.878.01-1.763 0-2.64-15.054 2.904-31.49 10.358-42.121 21.597-.709.748-3.568 3.873-3.484 4.674.095.898 3.984 3.846 4.92 4.456 17.491 11.385 39.793 2.166 40.685-19.447M36.97 85.44c4.885.985 9.806 2.078 14.399 4.08l3.6 1.2 1.68.72c.807.776 2.268 1.026 3.12 1.44a100 100 0 0 1 5.039 2.64c1.69.958 3.632 2.243 5.28 3.36 2.669 1.81 5.514 4.09 7.92 6.24 1.418 1.268 8.498 8.361 8.643 9.726.23 2.157-3.45 5.817-5.044 7.074-2.036 1.607-5.517 3.574-7.92 4.56-1.513.621-4.208 1.586-5.76 1.92-1.517.327-3.96.625-5.519.72a27 27 0 0 1-3.36 0c-.616-.043-1.802-.148-2.4-.24-1.531-.237-3.554-.913-5.04-1.44-8.647-3.069-15.372-9.603-17.998-18.48-.493-3.623-1.546-7.185-1.45-10.91l.027-5.011.705-8.559c1.343.33 2.724.687 4.077.96m0 7.2c-.301 2.849-.276 5.057 0 7.92.954 9.913 4.1 16.962 13.194 21.725 9.765 5.114 22.586 2.967 30.726-4.322 2.696-2.414 2.264-2.48.003-5.05C69.987 100.519 53.236 92.649 37.21 89.52c.17 1.095-.133 2.1-.24 3.121" style="fill:#1f1e1e"/><path d="M180.242 100.8c-.892 21.613-23.194 30.832-40.685 19.447-.936-.61-4.825-3.557-4.92-4.456-.084-.801 2.775-3.926 3.484-4.674 10.631-11.24 27.067-18.693 42.12-21.598.011.878-.012 1.763 0 2.641.041 2.815.116 5.841 0 8.64m.244-1.317a261 261 0 0 0 0-6.006c-.005-.407.154-1.068-.244-1.317.04 2.815.115 5.841 0 8.64.397-.25.24-.91.244-1.317M36.97 100.56v-7.92c.107-1.02.41-2.026.24-3.12 16.026 3.128 32.777 10.998 43.683 23.394 2.26 2.568 2.693 2.635-.003 5.049-8.14 7.289-20.961 9.436-30.726 4.322-9.095-4.763-12.24-11.812-13.195-21.725m0-7.92c-.301 2.849-.276 5.057 0 7.92z" style="fill:#fff"/><path d="M112.085 216h-1.44v-.24c.386-.06 1.23-.11 1.44.24m-6.48 0h-.24zm5.04-.24c-.112.018-.211.126-.24.24h.24zM102.727 0C48.17 2.526 3.456 46.853.011 101.28c-.035.553.025 1.125 0 1.68.353.164.242.645.24.96 0 .265.066.601-.24.72v6.72c.306.12.24.454.24.72s.066.6-.24.72v1.68l1.516 11.804c7.628 45.575 44.446 81.567 90.08 88.476l11.119 1.24h7.68c.028-.114.127-.222.24-.24.385-.06 1.228-.11 1.44.24h1.2l11.119-1.24c46.883-7.056 84.163-44.793 90.601-91.794l.994-9.446v-10.8l-.994-9.686C208.509 45.55 170.46 7.493 122.97.994L113.285 0zm2.53 12.49c.62-.012 1.493-.401 2.03-.25.08.023.198.42.418.47.261.059 2.13.071 2.222.01.023-.015-.061-.326.046-.419.356-.31 1.487.154 1.996.176 12.094.536 22.97 2.658 34.118 7.4 2.073.883 8.72 3.8 9.677 5.323.064.102-.02.345.237.593.29.28 1.25.679 1.683.847.11-.162.14-.391.381-.46 14.885 8.61 26.934 21.772 35.115 36.86.05.342-.47.623-.698.8l.768 1.878c.126.102.288.042.432.042a.9.9 0 0 0 .603-.232l.231.233c4.22 8.921 7.311 18.429 8.726 28.239.673 4.672 1.56 12.45 1.011 17.012-.032.264.012.535-.236.723-.343.24-7.095.117-8.175.105l-.24 2.16c2.356-.006 4.724-.029 7.083-.004.406.004 1.068-.153 1.317.244-.797 12.953-4.325 25.91-10.195 37.445-.4.786-3.249 6.084-3.598 6.163-.148.034-.435-.17-.607-.168-.704.008-1.197 1.268-1.2 1.92.168.113.378.16.445.389-7.143 11.451-17.356 21.503-28.783 28.75-1.16.736-7.928 4.86-8.699 4.67-.24-.068-.286-.286-.4-.449l-2.16.96c.068.154.29.868.234.946-25.415 11.732-55.21 11.747-80.63.014-.609-.28-1.7-.851-2.4-1.2-15.088-7.514-28.434-19.524-37.678-33.6-.474-.721-.99-1.416-1.44-2.16-1.043-1.725-2.08-3.714-3.005-5.515-6.095-11.87-9.814-24.794-10.674-38.165.249-.398.91-.24 1.316-.244 1.96-.024 3.927.002 5.883.004l-.24-2.16c-1.014.007-6.82.17-7.095-.225-.622-15.84 2.787-31.898 9.735-46.095.445-.91.964-1.756 1.44-2.64 8.048-14.924 20.289-27.928 34.798-36.72.706-.427 1.642-.77 2.4-1.2 13.577-7.698 27.995-12.156 43.807-12.47M.25 103.92H.01v-.96c.353.164.242.645.24.96m0 8.16H.01v-.72c.306.12.24.454.24.72m-.24-7.44v-.72h.24c0 .265.066.601-.24.72m0 8.16v-.72h.24c0 .266.066.6-.24.72m112.074-90.72c9.559 9.246 24.267 15.35 37.734 12.655.383-.076.777-.137 1.128-.32l.496-.575 1.92 1.2c-.487 1.094.111 2.186.476 3.244 4.057 11.773 15.076 22.282 26.863 26.019-.007-.436.366-.682.5-.943 7.69 12.163 11.937 26.508 12.48 40.93.017.462-.247.964.48.83-.238 2.262-.84 4.478-1.2 6.719.957.01 1.922-.01 2.88.001l-.24 2.16c-1.06.003-2.457-.204-3.36.24-.615 2.06-1.31 4.126-2.195 6.086-2.037 4.509-4.628 6.96-5.947 12.052-1.52 5.87-1.787 11.383-.978 17.382l-4.32 6.96c-11.768 3.8-23.09 14.326-27.839 25.68l-3.12 1.68c.513-1.299.873-2.645 1.474-3.926 5.626-11.986 16.692-21.505 29.244-25.597.122-.56-.076-.384-.308-.535-2.404-1.555-5.734-3.083-8.33-4.502-.005-.756.562-1.534 1.2-1.92l9.838 5.279c-1.035-6.837-1.184-13.938.72-20.637l-4.079 2.638c-.427-.16-.04-.75.061-1.017 3.284-8.723 3.672-14.872 4.499-23.943.149-1.633.865-3.528 1.13-5.23 1.052-6.756.346-13.446-.172-20.21-1.243.389-2.578.471-3.838.72-.623.032-.614-.34-.794-.767-1.683-4.004-2.924-8.198-5.206-11.953 1.417-1.065 3.39-2.864 4.566-4.194.2-.226 1.42-1.674 1.318-1.808-12.461-4.746-22.945-14.74-27.486-27.357-.56-.122-.384.075-.534.308-1.01 1.561-2.146 4.165-3.062 5.931l-1.92-1.2 3.358-6.959c-14.634 1.787-29.147-3.315-39.478-13.68-.222 3.426-.11 6.885-.118 10.319l-2.4-.24c-.01-3.012.17-6.264.002-9.242-.017-.288.138-.835-.242-.838C97.039 33.853 82.48 38.997 67.929 37.201c-.058.282.032.461.13.707.632 1.575 1.937 3.897 2.749 5.532-.433.597-1.206 1.065-1.92 1.2a165 165 0 0 0-3-5.515c-5.07 12.543-14.956 22.49-27.605 27.353-.136.195.55.996.723 1.206.967 1.178 2.77 2.851 3.963 3.836l-6 13.92c-1.353-.273-2.734-.63-4.077-.96l-.704 8.559-.029 5.01c-.095 3.726.958 7.288 1.45 10.911 1.22 8.972 1.365 14.8 4.26 23.702.09.275.492.857.06 1.018l-2.158-1.439a53.8 53.8 0 0 1 .481 20.639c2.991-1.678 6.102-3.17 9.117-4.8l1.2 1.92c-2.656 1.453-5.46 2.846-7.92 4.557 12.74 3.992 24.073 13.793 29.561 26 .567 1.26 1.303 2.927 1.638 4.243l-3.12-1.44c-4.796-12.13-17.14-23.554-29.759-27.12-.977-1.502-1.868-3.299-3.12-4.56 1.131-6.282.96-12.558-.55-18.77-1.153-4.748-2.594-6.149-4.77-10.109-1.494-2.718-2.554-5.634-3.559-8.561-1.362-.444-3.105-.238-4.56-.24l-.24-2.16c1.357-.01 2.723.008 4.08-.001-.44-3.07-1.213-6.136-1.437-9.241-.147-2.025-.045-4.118-.003-6.118.732-3.134 1.16-6.334 1.938-9.462 2.133-8.578 5.772-16.91 10.409-24.402.137-.217.129-.451.133-.696l1.59 2.356C49.861 59.91 60.418 48.89 64.207 35.737c-.176-.404-.425-.773-.599-1.177.525-.623 1.99-.666 1.92-1.44.128.238.817 1.408.896 1.439 3.96.637 7.924.744 11.912.45 9.689-.992 20.295-5.879 27.03-12.929l3.49-.01c.986.023 2.29.665 3.23.01m80.396 41.76.768 1.878c.126.102.288.042.432.042l-4.485 3.233c1.457 4.198 2.802 8.463 3.654 12.838 1.42 7.287 2.087 15.897 1.311 23.289-.726.134-.462-.368-.48-.83-.542-14.422-4.789-28.767-12.48-40.93.572-1.11 1-2.51 1.513-3.647.136-.301.395-1.289.764-1.15 1.275.475 3.904 6.614 4.819 7.915 1.313-.93 2.926-1.656 4.184-2.638M35.29 61.92c-.004.245.004.479-.133.696-4.637 7.491-8.276 15.824-10.41 24.402-.778 3.128-1.205 6.328-1.937 9.462a83.4 83.4 0 0 1 5.275-27.495l-.23-.465-5.045-3c.445-.91.964-1.756 1.44-2.64-.006.514.3.655.638.922.45.356 4.193 2.832 4.399 2.678-.007-1.24 4.042-7.907 4.683-7.915.439.824 1.333 2.46 1.32 3.355M150.963 182.4c-.509 1.218-2.197 5.276-2.137 6.372.013.235 1.88 3.822 2.137 4.188l-2.16.96c-.229-.516-2.045-3.905-2.27-4.089-.812-.662-4.658-1.75-5.89-2.151.626-.854 1.93-1.069 2.88-1.44.356.1.824.144 1.2.239.077-.08-.157-.78-.24-.959l2.16-.72c.208.308.268.577.718.48-.045-.49.345-.85.483-1.2zm-81.115 2.4c.05.196-.035.493.001.719.232.09.452-.239.479-.239.893-.002 1.548.706 2.16.96.29.12.58.178.72.24.93.412 2.208.72 2.88 1.44-1.03.34-4.89 1.416-5.455 1.985-.613.616-1.884 3.974-2.225 4.975-.609-.28-1.7-.851-2.4-1.2l2.39-4.932c-.383-1.838-.983-3.65-1.67-5.388zM189.6 157.68c-.703.008-1.197 1.268-1.2 1.92-.848-.575-5.75-3.337-6.474-3.493-.35-.075-2.645.458-3.125.613l4.32-6.96c.21 1.565.307 3.188.947 4.693zM107.286 12.24c.08.023.198.42.418.47.261.059 2.13.071 2.222.01.3 2.023-.613 6.224.48 7.8.413.597 1.166 1.063 1.68 1.56-.94.655-2.244.013-3.23-.01l-3.49.01c.415-.434 1.832-1.855 1.914-2.285zm-70.317 144c-.278-.079-1.523-.263-1.745-.205l-6.894 4.045c-.474-.721-.99-1.416-1.44-2.16l6.414-3.425c.22-.928.377-1.876.546-2.815 1.251 1.261 2.142 3.058 3.12 4.56M65.528 33.12c.07.774-1.395.817-1.92 1.44-.978-2.269-2.54-5.5-3.793-7.608-.201-.34-.378-.638-.767-.792.706-.427 1.642-.77 2.4-1.2 1.693 2.53 2.647 5.505 4.08 8.16m92.155-6.48c-1.64 2.413-2.563 5.96-4.32 8.4l-1.92-1.2 4.32-8.64c.064.102-.02.345.237.593.29.28 1.25.679 1.683.847M195.601 114c2.356-.006 4.724-.029 7.083-.004.406.004 1.068-.153 1.317.244h-11.76c.904-.444 2.3-.237 3.36-.24m-175.19 0c1.454.002 3.197-.204 4.56.24H13.21c.25-.398.91-.24 1.316-.244 1.96-.024 3.927.002 5.883.004M177.6 134.88c-5.146 3.947-11.086 4.408-17.28 5.04l-1.918-.119c2.59-3.795 4.512-8.018 5.999-12.361 8.3-2.914 14.89-9.144 17.759-17.52-.827 9.07-1.215 15.22-4.499 23.943-.1.266-.488.857-.061 1.017m-125.993-7.44c1.299 4.351 3.54 8.208 5.764 12.116.496.872-.242.208-.485.364-6.916-.53-13.445-1.68-18.959-6.24.432-.161.03-.743-.06-1.018-2.895-8.902-3.04-14.73-4.26-23.702 2.627 8.877 9.352 15.411 18 18.48m3.84-48-4.08 10.08c-4.593-2.002-9.514-3.095-14.4-4.08l6-13.92c3.41 2.812 8.57 5.734 12.48 7.92M179.28 85.2c-4.727.934-9.864 2.448-14.4 4.08l-4.08-9.36c3.965-2.16 8.913-4.757 12.48-7.44 2.282 3.755 3.523 7.95 5.206 11.953.18.426.17.799.794.767M79.447 60.48l-1.92 1.2c-2.82-5.69-5.733-11.39-8.64-17.04.715-.135 1.488-.603 1.92-1.2 2.816 5.672 5.704 11.433 8.64 17.04m30.479-26.64c-.014 6.222-.16 12.503 0 18.72l-2.402.001c-.012-6.317.021-12.644.002-18.961zm38.158 11.52c-2.816 5.427-6.082 11.32-8.64 16.8l-1.92-.96c2.951-5.622 5.435-11.542 8.64-17.04zm23.038 102.24c-.637.386-1.204 1.164-1.2 1.92-4.299-2.35-8.637-4.652-12.959-6.96l.96-2.16zm-112.794-6.48 1.2 1.92c-4.288 2.019-8.767 4.667-12.96 6.96l-1.199-1.92c4.303-2.326 8.485-4.97 12.96-6.96M107.526 33.6c.02 6.317-.014 12.644-.002 18.961l2.402-.001c.026 1.04-.11 2.103.107 3.133.435.69 1.024 1.314 1.572 1.907-1.718.401-4.041.401-5.76 0 .431-.48.832-1.022 1.22-1.541l.22-32.539c.38.003.226.55.243.838.169 2.978-.012 6.23-.002 9.242m-11.52 147.6c1.227.33 2.7.589 3.963.717 4.357.442 9.312.572 13.674.24 2.188-.165 4.793-.862 6.842-.957 6.494-.301 16.687 3.235 23.039 5.04-.95.371-2.255.586-2.88 1.44-20.324-6.603-44.29-6.47-64.557.24-.67-.72-1.948-1.028-2.88-1.44.64-.559 1.651-.769 2.456-1.024 6.628-2.1 13.428-3.484 20.343-4.256m50.638 3.6-2.16.72c-1.427-3.123-3.632-6.916-5.28-10.08l1.92-.96c1.53 2.902 3.788 7.752 5.52 10.32m-68.877-8.64c-1.756 3.357-3.258 6.863-5.28 10.08-.61-.254-1.266-.962-2.16-.96 1.784-3.464 3.712-6.87 5.52-10.32.63.392 1.539.535 1.92 1.2m55.437-111.84 6.24 4.32c1.937 4.44 6.16 9.195 10.56 11.28-.454.09.135.661.242.838.409.674.83 1.346 1.197 2.042-.33-.121-.81-.108-1.263-.293-6.118-2.5-11.226-8.134-13.379-14.346-.818.94-1.58 2.257-2.157 3.359l-1.92-.96c.66-1.335 1.15-2.79 1.92-4.078-1.284.354-2.542.363-3.84.478-.98-1.062-2.65-1.379-3.84-2.16 2.235.127 4.072-.055 6.24-.48m-17.279-3.12c3.176 2.056 7.255 3.385 11.04 3.6 1.189.781 2.859 1.098 3.84 2.16-7.031.624-13.276-1.156-18.72-5.76 1.273-.294 2.742.634 3.84 0m-4.32-3.6c1.104 1.192 2.953 2.715 4.32 3.6-1.098.634-2.567-.294-3.84 0-.738-.625-1.395-1.326-2.157-1.92-.008 1.277.003 2.563-.002 3.84h-2.4c-.012-1.277.01-2.562-.002-3.839-.442-.13-.363.12-.478.239-.525.547-.83.918-1.44 1.44-1.241-.14-2.684.7-3.84 0 1.245-.821 3.097-2.265 4.08-3.36 1.718.401 4.041.401 5.76 0m27.839 4.56c-.229.49-1.174 2.472-1.194 2.775-.035.552.907 3.047 1.194 3.705l-6.24-4.32c1.041-.204 2.059-.43 3.06-.78.272-.856.858-1.574 1.26-2.34zM89.047 64.8c-1.427.63-2.765 1.632-4.32 1.92-.627-.087-1.29-.089-1.919-.239.444 1.104.922 2.294 1.439 3.359l-1.92 1.2c-.511-.964-1.085-1.897-1.559-2.879-.269.127-1.637 3.364-2 4-3.118 5.47-8.541 9.798-14.68 11.359.63-.657 1.173-2.071 1.68-2.88 5.546-2.054 10.738-7.961 12.72-13.44 1.343-.753 2.613-1.636 3.927-2.444.313-.192.768-.082.632-.676 2.094.573 3.838.728 6 .72m16.559-3.84c-6.201 5.303-12.859 6.878-20.88 5.76 1.556-.288 2.894-1.29 4.32-1.92 4.66-.017 8.849-1.286 12.72-3.84 1.156.7 2.599-.14 3.84 0m-22.559 3.12c.136.594-.319.484-.632.676-1.314.808-2.584 1.691-3.928 2.444.112-.31.628-2.251.599-2.423a325 325 0 0 1-1.559-3.097l1.92-1.2c.261.498 1.471 2.813 1.686 2.994.437.366 1.343.45 1.914.606m81.836 25.2c-1.195.43-2.69.96-3.84 1.44l-4.08-8.88c1.057.008 2.84-1.375 3.84-1.92zm-9.84-7.68c-.464.242-.189.785-.054 1.133 1.12 2.902 3.173 5.77 3.894 8.947-.811.363-1.876.828-2.64 1.2l-3.6-8.16c.477-.302.92-.608 1.44-.839-.06-.132-2.22-.926-2.64-1.081-.366-.696-.788-1.368-1.197-2.042-.107-.177-.696-.747-.243-.838 1.136.538 3.825 1.45 5.04 1.68m1.92.24 4.08 8.88c-.702.292-1.459.646-2.16.96-.72-3.177-2.774-6.045-3.894-8.947-.135-.348-.41-.89.054-1.133.34.064 1.624.238 1.92.24m-97.915-.48-4.08 9.36-3.6-1.2 4.08-10.08c1.154.645 2.405 1.372 3.6 1.92m6.72-.72c-.507.809-1.05 2.223-1.68 2.88-.269.28-.395-.24-.48.48-.148 1.256-.997 2.285-1.482 3.438-.758 1.8-1.286 3.866-2.358 5.442-.85-.414-2.312-.664-3.12-1.44l4.08-9.6c.97-.06 4.066-.84 5.04-1.2m-5.04 1.2-4.08 9.6-1.68-.72 4.08-9.36c.71.325.674.542 1.68.48m103.675 45.6c-1.487 4.343-3.408 8.566-5.999 12.361l1.919.119c-.5.051-1.315.468-2.056.235l-.344.245-.96 2.16-.551-.175c-2.414.846-4.91 1.77-7.128 3.055l.965-1.554 1.914-2.286c.215-.095 1.432-.759 1.436-.842l-.476-.358c2.33-3.69 4.77-7.37 6.24-11.52a44 44 0 0 0 5.04-1.44m-23.279 47.04-1.92.96c-2.092-4.018-4.434-8.909-6.72-12.72l.033-.442 1.887-.758c2.537 4.153 4.458 8.672 6.72 12.96m11.04-32.88-1.915 2.286-.965 1.554c-1.434.83-3.615 2.33-4.921 3.36-1.976 1.556-3.893 4.27-5.639 5.52-1.094.783-3.029 1.815-4.32 2.16 1.083-1.468 2.158-2.945 3.36-4.32 3.495-2.035 6.65-4.909 9.36-7.92 1.953-1.23 2.935-1.713 5.04-2.64m-13.44 12.72c-1.239 2.452-3.615 4.522-4.32 7.2l-1.887.758-.033.442c-1.103-1.839-1.863-2.26-3.84-3.12l3.84-1.68.598.479c.515-.585.863-1.296 1.322-1.919 1.291-.345 3.226-1.377 4.32-2.16m-82.076-25.44c2.144 5.64 5.51 10.749 9.36 15.36-1.561-.745-3.572-1.22-5.202-1.862-.535-.024-.857.464-1.278.662l-1.2-1.92 1.199-.958c-.677-.051-1.383.067-2.058.008-.309-.028-.543-.247-.58-.25.242-.156.98.508.484-.364-2.223-3.908-4.465-7.765-5.764-12.116 1.485.527 3.508 1.203 5.04 1.44m26.879 28.8c.374.187.32.421.96.72.72.336 1.875.656 2.704 1.028.356.16.785.034.656.652-.73.34-1.494.698-2.174 1.13-2.497 5.052-5.295 9.961-7.906 14.95-.381-.665-1.29-.808-1.92-1.2 2.38-4.54 4.639-9.153 7.086-13.661.105-.556-2.485-4.346-3.006-5.059.134-.469.736-.013.968.113.89.483 1.734.88 2.632 1.327m-24.479-28.56c1.282 3.92 3.748 7.378 6 10.8-.433.246-.892.397-1.195.84 0 .083 1.21.736 1.435.84l3.12 4.08c-.682-.411-1.763-1.136-2.4-1.44-3.85-4.611-7.216-9.72-9.36-15.36.598.092 1.784.197 2.4.24m8.4 13.44c3.628 4.515 8.327 8.52 13.44 11.28.567.735 1.168 1.362 1.679 2.16l-4.8-2.4c-2.633-3.02-5.92-5.845-9.36-7.92l-3.12-4.08c.754.349 1.358.535 2.16.96M82.567 156c.342.534.648 1.126.96 1.68-.898-.447-1.743-.844-2.632-1.327-.232-.126-.834-.582-.968-.113-.66-.903-1.424-1.796-2.16-2.64zm24.723-95.163c.133 10.752-.005 21.528-.129 32.279-2.2 2.778-5.69 4.041-9.197 3.565-1.877-4.374-4.355-8.462-6.517-12.681l-1.92 1.2c2.054 4.058 4.056 8.145 6.195 12.162-.315 1.505-5.397 6.576-6.506 6.292A120 120 0 0 0 80.887 96l-2.88 9.12c1.42 1.268 8.499 8.361 8.644 9.726.23 2.157-3.45 5.817-5.044 7.074l5.04 6.72c1.767-1.402 1.577-2.032 3.679-.44 1.778 1.348 4.654 4.615 5.44 6.68 1.258.294 2.547.716 3.756 1.163.439.162.839.07.804.757a45.3 45.3 0 0 1 15.36-.24l6.239-2.64c.963-1.782 4.24-5.355 6.018-6.34 1.141-.633.99-.324 1.902.34 1.46-1.668 2.495-3.66 3.768-5.45.247-.345.37-.44.791-.55-1.593-1.257-5.273-4.917-5.044-7.074.054-.502 3.58-4.718 4.201-5.41 1.112-1.237 2.754-2.97 3.963-4.076l-2.16-8.4c-2.51 2.181-4.847 4.556-7.313 6.716-.786.022-4.177-3.073-4.81-3.833-.598-.72-1.684-1.958-1.456-2.882 2.34-4.131 4.238-8.494 6.38-12.721-.55-.348-1.704-.786-1.68-1.44-2.34 4.563-4.929 9.014-7.077 13.683-3.424.968-7.259-.802-9.433-3.532-.1-5.462-.036-10.93-.05-16.391l-2.4.001c-.03-4.476.043-8.965 0-13.441-.011-1.277.01-2.562 0-3.839-.443-.13-.365.12-.48.239.399.25.24.91.245 1.317m10.557 38.405-6.36 12.354-1.561-.716V96.24c2.207 1.903 5.054 2.735 7.921 3.002m-12.126 12.325-6.357-12.325c2.878-.165 5.584-1.09 7.922-2.762v14.28zm-1.85 2.033-.9 3.165-8.884 4.673 4.271-6.08-7.39-9.994c1.354-.617 2.91-1.829 3.968-2.874.348-.344 1.868-2.7 2.267-2.41zm18.288-11.474c1.279 1.334 2.94 2.28 4.1 3.59l-7.394 9.846 4.498 6.118-9.32-5.077c.275-1.045-.478-2.204-.51-2.986-.028-.679 3.777-7.997 4.427-9.222.425-.801 1.78-3.638 2.174-4.066.198-.214.242-.324.587-.248.273.68.937 1.523 1.438 2.045m-14.219 16.858c-3.026-.622-3.011-5.28.002-5.89 4.703-.954 4.999 6.917-.002 5.89m-16.729 6.896 12.84-7.05.494 1.172-7.096 13.197c-1.279-3.024-3.81-5.22-6.238-7.32m21.7-5.636c-.243-.54-.09-.995.37-1.337l12.959 6.973c-2.847 1.887-4.63 4.698-6.712 7.32zm-7.195 13.426c-1.943.106-3.922.649-5.872.608l6.765-13.038c.679-.09 1.283.217 1.997.223.96.008 1.932-.736 2.482.376l6.517 12.559c-3.927-.523-7.91-.944-11.89-.728m39.968-34.79c-2.392 1.623-6.017 4.521-8.16 6.48l-2.16-8.4c2.545-2.212 4.936-4.048 7.68-6zm-3.36 27.6-5.04 6.96c-2.887-1.809-4.814-3.607-7.44-5.52 1.46-1.668 2.496-3.66 3.77-5.45.246-.345.37-.44.79-.55 2.038 1.608 5.516 3.572 7.92 4.56m6 1.92-5.28 8.16c-2.256-1.012-3.684-1.82-5.76-3.12l5.04-6.96c1.828.751 4.07 1.511 6 1.92m5.28.72-5.52 9.36c-1.87-.643-3.215-1.101-5.04-1.92l5.28-8.16c1.727.366 3.542.406 5.28.72m-2.4-33.6c-1.533.865-4.057 2.367-5.52 3.36l-2.64-7.92c1.68-1.195 3.315-2.243 5.04-3.36 1.313 2.511 2.44 5.156 3.12 7.92m5.04-2.64a104 104 0 0 0-5.04 2.64c-.68-2.764-1.807-5.409-3.12-7.92 1.51-.978 3.04-1.916 4.56-2.88zm1.919 36c-.212.043-.571.317-.905.29-1.232 3.384-3.163 6.418-5.111 9.414-.231.356-.577.55-.464 1.096-1.189-.51-2.381-.78-3.6-1.2l5.52-9.36zm1.2 0c-1.47 4.15-3.91 7.83-6.24 11.52-.488-.217-.949-.51-1.44-.72-.113-.546.233-.74.464-1.096 1.948-2.996 3.879-6.03 5.111-9.414.334.027.693-.247.905-.29.35-.071.86.075 1.2 0M73.448 90.24c2.587 1.786 5.034 3.745 7.44 5.76l-2.88 9.12c-2.406-2.15-5.251-4.43-7.92-6.24zm13.199 38.4c-2.706 2.147-4.475 3.497-7.44 5.28l-5.52-7.44c2.403-.986 5.884-2.953 7.92-4.56zm-12.96-2.16 5.52 7.44c-2.285 1.375-3.456 2.09-6 3.12l-5.28-8.64c1.552-.334 4.247-1.299 5.76-1.92m-.24-36.24-3.36 8.64c-1.647-1.117-3.588-2.402-5.279-3.36l3.36-8.64c1.773 1.11 3.555 2.17 5.28 3.36m-5.52 38.16 5.28 8.64c-1.736.703-3.33 1.103-5.04 1.68l-5.759-9.6c1.558-.095 4.002-.393 5.52-.72M63.609 84c1.532.949 3.035 1.925 4.56 2.88l-3.36 8.64a100 100 0 0 0-5.04-2.64c1.072-1.576 1.6-3.643 2.358-5.442.485-1.153 1.334-2.182 1.482-3.438m-1.2 45.12 5.76 9.6c-1.055.356-2.142.644-3.12 1.2-2.252-3.422-4.718-6.88-6-10.8a27 27 0 0 0 3.36 0m58.077 52.08c-2.049.095-4.654.792-6.842.958-4.362.33-9.317.201-13.674-.24a26.4 26.4 0 0 1-3.963-.718c5.71-.637 11.414-.853 17.17-.731zm3.6-25.44-4.32 1.2c-7.406-1.446-15.435-1.311-22.799.24-1.364-.63-3.07-1.082-4.56-1.2 10.671-3.073 20.97-3.229 31.679-.24m8.4 2.16-3.84 1.68c-2.388-1.038-6.307-2.138-8.88-2.64l4.32-1.2c1.867.521 3.696 1.022 5.52 1.678-.611-.944-.95-2.156-1.44-3.118.381-.665 1.29-.808 1.92-1.2.82 1.58 1.691 3.163 2.4 4.8m-43.438-3.36c-.504.943-.942 1.932-1.44 2.878 1.616-.435 3.189-.974 4.8-1.438 1.49.118 3.195.57 4.56 1.2-3.108.654-6.237 1.535-9.12 2.88.129-.618-.3-.491-.656-.652-.829-.372-1.984-.692-2.704-1.028.624-1.702 1.839-3.273 2.64-4.8zm45.597-83.04c-2.192 4.19-4.342 8.502-6.48 12.72-.549-.348-1.703-.786-1.68-1.44 2.08-4.053 4.225-8.163 6.24-12.24zm-24.718-8.4c-.02 4.476-.011 8.964 0 13.44l-2.402.001c-.029-4.476.044-8.965.002-13.441zM91.446 84l-1.92 1.2c-2.384-4.71-4.726-9.499-7.199-14.16l1.92-1.2c2.294 4.725 4.8 9.478 7.2 14.16m55.678 60.24c-2.711 3.011-5.865 5.885-9.36 7.92 2.924-3.343 5.621-5.568 9.36-7.92m-66.237 9.6c-5.112-2.76-9.811-6.765-13.44-11.28 5.617 2.974 9.555 6.255 13.44 11.28m41.038-19.92c-.28.52-.754 1.857-.62 2.4l6.38 12.24c-.608.241-2.02.5-1.92 1.2-2.171-4.165-4.627-8.203-6.601-12.478-.489-.46-2.694-.598-3.479-.722zm-21.599 2.88c-.507.095-1.846.018-2.181.395-1.995 4.39-4.46 8.547-6.698 12.805l-1.92-.96 6.487-13.08a5 5 0 0 0-.248-1.08c1.258.294 2.547.716 3.756 1.163.439.162.839.07.804.757m27.359 11.76c.792 1.52 1.609 3.036 2.4 4.56-.63.392-1.539.535-1.92 1.2-.77-1.507-1.615-3.053-2.4-4.56-.1-.7 1.312-.959 1.92-1.2M91.447 150c-.797 1.515-1.591 3.045-2.4 4.56l-1.92-.96c.756-1.441 1.224-3.389 2.4-4.56z"/><path d="M148.804 193.92c.068.154.29.868.234.946-25.415 11.732-55.21 11.747-80.63.014.341-1 1.612-4.359 2.225-4.975.565-.569 4.426-1.644 5.454-1.985 20.267-6.71 44.233-6.843 64.557-.24 1.231.4 5.077 1.49 5.888 2.151.226.185 2.042 3.573 2.272 4.089m5.035-155.636c4.057 11.773 15.076 22.282 26.863 26.019-.007-.436.366-.682.5-.943.57-1.11.998-2.51 1.512-3.647.136-.301.395-1.289.764-1.15 1.275.475 3.904 6.614 4.819 7.915 1.313-.93 2.926-1.656 4.184-2.638.227-.177.747-.457.698-.8-8.18-15.088-20.23-28.25-35.115-36.86-.241.069-.27.298-.381.46-1.64 2.413-2.563 5.96-4.32 8.4-.487 1.094.11 2.186.476 3.244M24.888 63.802c.45.356 4.193 2.832 4.399 2.678-.007-1.24 4.042-7.907 4.683-7.915.439.824 1.333 2.46 1.32 3.355l1.59 2.356C49.861 59.91 60.418 48.89 64.207 35.737c-.176-.404-.425-.773-.599-1.177-.978-2.269-2.54-5.5-3.793-7.608-.201-.34-.378-.638-.767-.792-14.51 8.792-26.75 21.795-34.798 36.72-.006.514.3.655.638.922m85.517-43.282c.414.597 1.167 1.063 1.68 1.56 9.558 9.246 24.267 15.351 37.734 12.655.383-.076.777-.137 1.128-.32l.496-.575 4.32-8.64c-.957-1.523-7.604-4.44-9.677-5.322-11.148-4.743-22.024-6.865-34.118-7.4-.509-.023-1.64-.488-1.996-.177-.107.093-.023.404-.046.419.3 2.023-.613 6.224.48 7.8M66.425 34.56c3.96.637 7.923.744 11.911.45 9.689-.992 20.294-5.879 27.03-12.929.415-.434 1.832-1.855 1.914-2.285l.006-7.555c-.537-.151-1.41.238-2.03.25-15.813.314-30.231 4.772-43.808 12.47 1.693 2.53 2.647 5.505 4.08 8.16.128.238.817 1.408.896 1.439M188.4 159.6c-.848-.575-5.75-3.337-6.474-3.493-.35-.075-2.645.458-3.125.613-11.768 3.8-23.09 14.326-27.839 25.68-.509 1.218-2.197 5.276-2.137 6.372.013.235 1.88 3.822 2.137 4.188.115.163.16.38.401.449.771.19 7.54-3.934 8.699-4.67 11.427-7.247 21.64-17.299 28.783-28.75-.066-.23-.277-.276-.445-.389m-151.43-3.36c-.278-.079-1.523-.263-1.745-.205l-6.894 4.045c9.244 14.076 22.59 26.085 37.678 33.6l2.39-4.932c-.383-1.838-.983-3.65-1.67-5.388-4.796-12.13-17.14-23.554-29.759-27.12m-3.12-4.56c1.131-6.282.96-12.558-.55-18.77-1.153-4.748-2.594-6.149-4.77-10.109-1.494-2.718-2.554-5.634-3.559-8.561H13.21c.861 13.371 4.58 26.295 10.675 38.165.925 1.801 1.962 3.79 3.005 5.515l6.414-3.425c.22-.928.377-1.876.546-2.815m156.198-31.354c-2.037 4.509-4.628 6.96-5.947 12.052-1.52 5.87-1.787 11.383-.978 17.382.21 1.565.307 3.188.947 4.693l5.532 3.227c.172-.002.459.202.607.168.349-.08 3.198-5.377 3.598-6.163 5.87-11.535 9.398-24.492 10.195-37.445h-11.76c-.614 2.06-1.308 4.126-2.194 6.086M203.241 94c-1.415-9.81-4.506-19.318-8.726-28.239l-.231-.233a.9.9 0 0 1-.603.232l-4.485 3.233c1.457 4.198 2.801 8.463 3.654 12.838 1.42 7.287 2.087 15.897 1.311 23.289-.237 2.262-.84 4.479-1.199 6.719.957.01 1.922-.01 2.88.001 1.079.012 7.83.134 8.174-.105.248-.188.204-.46.236-.723.55-4.561-.337-12.34-1.011-17.012M20.17 111.84c1.356-.01 2.722.008 4.08-.001-.441-3.07-1.214-6.136-1.439-9.241-.146-2.025-.044-4.118-.002-6.118a83.4 83.4 0 0 1 5.275-27.495l-.23-.465-5.045-3c-6.948 14.197-10.357 30.255-9.735 46.095.276.396 6.081.232 7.095.225m89.862-56.147c.435.69 1.024 1.314 1.572 1.907 1.104 1.192 2.953 2.715 4.32 3.6 3.176 2.056 7.255 3.385 11.04 3.6 2.234.127 4.07-.055 6.24-.48 1.04-.204 2.058-.43 3.058-.78.273-.856.859-1.574 1.261-2.34 2.952-5.622 5.435-11.542 8.64-17.04l3.358-6.959c-14.634 1.787-29.147-3.315-39.478-13.68-.222 3.426-.11 6.885-.118 10.319-.015 6.222-.16 12.503 0 18.72.026 1.04-.11 2.103.107 3.133M89.047 64.8c4.659-.017 8.848-1.286 12.719-3.84 1.245-.821 3.097-2.265 4.08-3.36.43-.48.83-1.022 1.218-1.541l.222-32.539C97.039 33.853 82.48 38.997 67.929 37.201c-.058.282.032.461.13.707.632 1.575 1.937 3.897 2.749 5.532 2.815 5.672 5.703 11.433 8.64 17.04.26.498 1.47 2.813 1.685 2.994.437.366 1.343.45 1.914.606 2.094.573 3.838.728 6 .72m67.916 17.04c1.057.008 2.84-1.375 3.84-1.92 3.964-2.16 8.912-4.757 12.48-7.44 1.415-1.065 3.39-2.864 4.565-4.194.2-.226 1.42-1.674 1.318-1.808-12.462-4.746-22.945-14.74-27.486-27.357-.56-.121-.384.075-.534.308-1.01 1.561-2.146 4.165-3.062 5.931-2.816 5.427-6.082 11.32-8.64 16.8-.229.49-1.174 2.472-1.194 2.775-.035.552.907 3.047 1.194 3.705 1.937 4.44 6.159 9.195 10.56 11.28 1.135.538 3.824 1.45 5.04 1.68.34.064 1.623.238 1.92.24M38.283 66.478c-.136.195.55.996.723 1.206.967 1.178 2.77 2.851 3.963 3.836 3.41 2.812 8.57 5.734 12.48 7.92 1.153.645 2.404 1.372 3.6 1.92.708.325.673.541 1.68.48.97-.06 4.065-.84 5.039-1.2 5.546-2.054 10.738-7.961 12.72-13.44.111-.31.627-2.251.598-2.423a324 324 0 0 1-1.559-3.097c-2.82-5.69-5.733-11.39-8.64-17.04a165 165 0 0 0-3-5.515c-5.068 12.544-14.955 22.49-27.604 27.353M147.361 185.28c-.045-.49.345-.85.483-1.2.512-1.299.872-2.645 1.473-3.926 5.626-11.986 16.692-21.506 29.244-25.597.122-.56-.076-.384-.308-.535-2.404-1.555-5.734-3.083-8.33-4.502-4.3-2.35-8.638-4.652-12.96-6.96l-.551-.175c-2.414.846-4.91 1.771-7.128 3.055-1.434.83-3.615 2.33-4.921 3.36-1.976 1.556-3.893 4.27-5.639 5.52-1.239 2.452-3.615 4.522-4.32 7.2 2.537 4.153 4.459 8.672 6.72 12.96 1.53 2.902 3.788 7.752 5.52 10.32.207.308.267.577.717.48m-77.033 0c1.783-3.464 3.711-6.87 5.52-10.32 2.38-4.54 4.638-9.153 7.085-13.661.105-.556-2.485-4.346-3.006-5.059-.66-.903-1.424-1.796-2.16-2.64-2.633-3.02-5.92-5.845-9.36-7.92-.681-.411-1.762-1.136-2.4-1.44-1.56-.745-3.57-1.22-5.201-1.862-.535-.024-.857.464-1.278.662-4.288 2.019-8.767 4.667-12.96 6.96-2.655 1.453-5.459 2.846-7.918 4.557 12.74 3.992 24.072 13.793 29.56 26 .567 1.26 1.303 2.927 1.638 4.243.05.196-.035.493.001.719.232.09.452-.239.479-.239m-24.959-37.2c4.303-2.326 8.485-4.97 12.96-6.96l1.198-.958c-.677-.051-1.383.067-2.058.008-.309-.028-.543-.247-.58-.25-6.917-.53-13.446-1.68-18.96-6.24l-2.158-1.439a53.8 53.8 0 0 1 .48 20.639c2.992-1.678 6.103-3.17 9.118-4.8m132.233-13.2c-5.146 3.947-11.086 4.408-17.28 5.04-.5.051-1.314.468-2.055.235l-.344.245 13.2 7.2 9.838 5.279c-1.035-6.837-1.184-13.938.72-20.637zM75.663 185.456c6.628-2.1 13.428-3.484 20.343-4.256 5.71-.637 11.414-.853 17.17-.731l7.309.731c6.494-.301 16.687 3.235 23.039 5.04.355.1.823.144 1.198.239.078-.08-.156-.78-.238-.959-1.427-3.123-3.632-6.916-5.28-10.08-2.092-4.018-4.434-8.909-6.72-12.72-1.103-1.839-1.863-2.26-3.84-3.12-2.387-1.038-6.306-2.138-8.879-2.64-7.406-1.446-15.435-1.311-22.799.24-3.107.654-6.236 1.535-9.12 2.88-.729.34-1.493.698-2.173 1.13-2.498 5.052-5.295 9.961-7.906 14.95-1.756 3.357-3.258 6.863-5.28 10.08.29.12.581.178.72.24.64-.559 1.651-.769 2.456-1.024m43.745-88.973c2.148-4.67 4.736-9.12 7.077-13.683 2.078-4.053 4.224-8.163 6.24-12.24.66-1.335 1.15-2.79 1.92-4.078-1.285.354-2.543.363-3.84.478-7.031.624-13.276-1.156-18.72-5.76-.738-.625-1.395-1.326-2.157-1.92-.008 1.277.003 2.563-.002 3.84-.02 4.476-.011 8.964 0 13.44.013 5.46-.051 10.93.049 16.39 2.174 2.73 6.01 4.5 9.433 3.533M151.443 82.8c-.33-.121-.81-.108-1.263-.293-6.118-2.5-11.226-8.134-13.379-14.346-.818.94-1.58 2.257-2.157 3.359-2.192 4.19-4.342 8.501-6.48 12.72-2.141 4.227-4.038 8.59-6.38 12.721-.227.924.86 2.162 1.458 2.882.632.76 4.023 3.855 4.809 3.833 2.466-2.16 4.804-4.535 7.313-6.716 2.545-2.212 4.936-4.048 7.68-6 1.68-1.195 3.315-2.243 5.04-3.36 1.51-.978 3.04-1.916 4.56-2.88.476-.302.918-.608 1.438-.839-.06-.132-2.219-.926-2.639-1.081m-44.397-23.28c-.525.547-.83.918-1.44 1.44-6.201 5.303-12.859 6.878-20.88 5.76-.626-.087-1.29-.089-1.918-.239.444 1.104.922 2.294 1.439 3.359 2.294 4.725 4.8 9.478 7.2 14.16 2.162 4.22 4.64 8.307 6.517 12.68 3.506.477 6.997-.786 9.197-3.564.124-10.75.262-21.527.129-32.28-.005-.405.154-1.066-.244-1.316M82.327 71.04c-.512-.964-1.085-1.897-1.559-2.879-.268.127-1.637 3.364-2 4-3.118 5.47-8.541 9.798-14.68 11.359-.269.28-.395-.24-.48.48 1.532.949 3.035 1.925 4.56 2.88 1.773 1.11 3.555 2.17 5.28 3.36 2.587 1.786 5.034 3.745 7.44 5.76a120 120 0 0 1 8.328 7.654c1.11.284 6.191-4.787 6.506-6.292-2.139-4.017-4.141-8.104-6.195-12.162-2.385-4.71-4.727-9.499-7.2-14.16m50.157 86.88.598.479c.515-.586.863-1.297 1.322-1.919 1.083-1.468 2.158-2.945 3.36-4.32 2.924-3.343 5.621-5.568 9.36-7.92 1.953-1.23 2.935-1.713 5.04-2.64.214-.095 1.43-.759 1.435-.842l-.476-.358c-.488-.217-.949-.51-1.44-.72-1.189-.51-2.381-.78-3.6-1.2-1.87-.643-3.214-1.101-5.04-1.92-2.255-1.012-3.683-1.82-5.759-3.12-2.887-1.809-4.814-3.607-7.44-5.52-.911-.664-.76-.973-1.901-.34-1.777.985-5.055 4.558-6.018 6.34-.281.52-.754 1.857-.62 2.4l6.38 12.24c.792 1.52 1.609 3.036 2.4 4.56.82 1.58 1.691 3.163 2.4 4.8m-36.47-21.96a5 5 0 0 0-.248-1.08c-.786-2.065-3.662-5.332-5.44-6.68-2.102-1.592-1.912-.962-3.68.44-2.705 2.147-4.474 3.497-7.439 5.28-2.285 1.375-3.456 2.09-6 3.12-1.736.703-3.33 1.103-5.04 1.68-1.054.356-2.141.644-3.119 1.2-.433.246-.892.397-1.195.84 0 .083 1.21.736 1.435.84.753.349 1.357.535 2.16.96 5.616 2.974 9.554 6.255 13.44 11.28.567.735 1.168 1.362 1.679 2.16.342.534.648 1.126.96 1.68.374.187.32.421.96.72.624-1.702 1.839-3.273 2.64-4.8.756-1.441 1.224-3.389 2.4-4.56zm28.07 19.8c1.868.521 3.697 1.022 5.52 1.678-.61-.944-.949-2.156-1.44-3.118-.768-1.507-1.614-3.053-2.4-4.56-2.17-4.165-4.626-8.203-6.6-12.478-.489-.46-2.694-.598-3.479-.722a45.3 45.3 0 0 0-15.359.24c-.507.095-1.846.018-2.181.395-1.995 4.39-4.46 8.547-6.698 12.805-.797 1.515-1.591 3.045-2.4 4.56-.504.943-.942 1.932-1.44 2.878 1.616-.435 3.189-.974 4.8-1.438 10.67-3.073 20.97-3.229 31.678-.24m-15.478-34.297c-.714-.006-1.318-.312-1.997-.223l-6.765 13.038c1.95.04 3.93-.502 5.872-.608 3.979-.216 7.962.205 11.89.728l-6.518-12.56c-.55-1.11-1.523-.367-2.482-.375m13.553-19.337c-.501-.522-1.165-1.366-1.438-2.045-.345-.076-.389.034-.587.248-.394.428-1.75 3.265-2.174 4.066-.65 1.225-4.455 8.543-4.427 9.222.032.781.785 1.941.51 2.986l9.32 5.077-4.498-6.118 7.394-9.846c-1.159-1.31-2.821-2.255-4.1-3.59m-27.223.364c-1.057 1.045-2.614 2.257-3.968 2.874l7.39 9.994-4.272 6.08 8.884-4.673.9-3.165-6.667-13.52c-.4-.29-1.92 2.066-2.267 2.41m24.592 30.71c2.081-2.622 3.865-5.433 6.712-7.32l-12.959-6.973c-.46.342-.613.798-.37 1.337zm-28.317-7.32c2.429 2.1 4.96 4.295 6.238 7.32l7.096-13.198-.495-1.173zm26.637-26.638c-2.868-.267-5.715-1.099-7.922-3.002v14.64l1.56.716zm-10.562 11.518V96.48c-2.338 1.671-5.044 2.597-7.922 2.762l6.357 12.325zm.654 8.224c5 1.027 4.705-6.844.002-5.89-3.013.61-3.028 5.268-.002 5.89" style="fill:url(#a)"/></svg>