<svg xmlns="http://www.w3.org/2000/svg" width="203.107" height="202.812" viewBox="0 0 203.107 202.812"><path d="m98.507 0 10.246.172c78.089 5.594 121.043 94.493 76.144 159.193-42.802 61.68-136.317 56.81-172.286-9.034C-23.845 83.596 23 2.47 98.507 0m1.97 11.45c-15.16.28-30.044 4.274-43.212 11.663l4.497 9.236c14.335 2.775 29.256-2.98 38.714-13.82zm2.159 0v7.08c9.528 10.875 24.23 16.441 38.637 13.923l4.77-9.128c-13.055-7.703-28.253-11.523-43.407-11.876m-2.16 40.68V22.01c-1.63 1.098-2.907 2.621-4.445 3.833-6.083 4.789-14.353 8.275-22.073 9.123-3.606.397-7.078.164-10.678.126l11.953 23.805c.61 1.096 2.462 1.424 3.635 1.645 8.216 1.542 16.61-1.796 21.608-8.413m2.16-30.12v30.12c5.71 7.548 15.781 10.712 24.795 7.578l12.638-24.736c-5.547.49-10.957.297-16.367-1.032-5.885-1.447-12.157-4.527-16.86-8.337-1.198-.97-2.366-2.379-3.485-3.235-.241-.185-.302-.463-.721-.359m-47.275 2.4c-14.103 8.184-25.745 20.575-33.245 35.043l4.574 3.112c1.669-2.523 2.456-5.726 4.916-7.675l2.185 5.502c12.356-3.803 22.16-14.33 26.088-26.563zM171.98 54.89l4.442 7.675 4.621-3.232c-6.032-11.353-14.502-21.414-24.681-29.259-.898-.692-8.192-5.968-8.61-5.664l-4.502 9.438c3.983 12.206 13.729 22.7 26.071 26.544.296-.463 2.376-5.699 2.659-5.503M61.6 36.65c-.547-.102-.381.034-.532.306-.787 1.422-1.372 3.395-2.22 4.979-5.088 9.51-13.452 16.484-23.402 20.52 3.145 4.625 8.493 7.706 13.278 10.476 1.286.744 5.948 3.62 7.015 3.783 1.012.155 2.194-.16 3.183-.387 7.348-1.69 12.937-8.007 14.869-15.144zm80.386 0-.535.309-12.135 24.23c1.784 5.97 5.721 11.353 11.482 13.972 1.621.737 5.116 1.882 6.82 1.557.903-.173 7.168-3.97 8.45-4.747 4.372-2.65 8.838-5.403 11.836-9.639-11.8-4.152-21.677-13.902-25.918-25.682m-41.51 19.2c-.419-.105-.48.173-.721.358-1.18.904-2.172 2.071-3.524 2.956-5.62 3.676-12.49 4.744-19.033 3.288l14.277 28.2c3.327.908 6.892-.89 9.001-3.483zm2.16 0v31.32c2.154 2.519 5.665 4.424 9.002 3.483l14.276-28.201c-5.968 1.361-12.343.524-17.68-2.481zm-80.386 49.2c-.072-2.006-.691-3.928-.929-5.911-1.137-9.494.197-19.481 2.73-28.65.293-1.062 1.87-4.997 1.81-5.64-.024-.25-.112-.314-.252-.477-.304-.353-4.335-2.829-4.666-2.775-6.682 13.383-9.809 28.452-9.25 43.452zm158.612 0h10.558c.605-14.99-2.466-30.126-9.251-43.453-.835.328-4.864 2.65-4.92 3.256-.04.422 1.331 3.845 1.573 4.677 2.785 9.6 4.193 19.864 2.97 29.849-.233 1.895-.816 3.756-.93 5.67M75.517 64.01c-.624-.114-.37.093-.497.34-2.102 4.083-3.217 6.778-6.935 9.862-2.932 2.432-5.14 2.913-8.509 4.21-.25.096-.578.101-.612.464a105.7 105.7 0 0 1 18.72 13.08c1.978 1.73 3.805 3.774 5.834 5.37 1.377-.466 6.086-4.809 5.87-6.045zm52.552-.001-14.284 27.343c-.208 1.097 4.668 5.804 5.822 5.987.79.125 1.011-.806 1.5-1.295 4.832-4.837 10.631-9.416 16.343-13.174 2.16-1.421 4.432-2.74 6.698-3.984-.033-.363-.362-.368-.612-.464-1.503-.579-3.088-.895-4.59-1.65-4.945-2.488-9.176-7.545-10.877-12.763M33.638 82.546c-.265.087-.315.298-.352.542-.624 4.182-.466 11.612.307 15.776 2.913 15.681 18.789 23.298 33.414 17.95 4.249-1.554 9.272-4.358 11.58-8.325.084-.99-5.697-6.784-6.78-7.766-10.517-9.547-24.367-15.302-38.17-18.177m136.184-.056c-11.522 2.305-22.871 6.676-32.468 13.484-3.871 2.746-8.252 6.438-11.196 10.161-1.375 1.738-2.243 1.883-.72 3.829 6.792 8.685 22.342 10.742 31.83 5.686 13.104-6.982 13.598-19.776 12.554-33.16m-69.346 21.6V90.41c-2.202 1.768-4.86 2.655-7.68 2.762l5.764 11.637zm2.16-13.68v13.68l1.916.72 5.765-11.638c-2.798-.085-5.444-1.1-7.681-2.763m-11.761 3.6c-.336-.077-.394.05-.603.233-.891.784-1.834 2.198-2.88 3.12-.696.613-1.63 1.378-2.513 1.69 1.243 2.005 6.611 7.246 6.918 9.294.163 1.089-3.24 4.405-3.798 5.58l8.291-4.305.787-2.83zm24.239 19.917c.254-.226-3.96-4.595-3.81-5.583.095-.62 2.443-3.74 2.995-4.47 1.233-1.63 2.653-3.112 3.93-4.705-2.212-1.396-4.003-3.12-5.635-5.155-.881 1.81-6.585 11.528-6.483 12.738.064.76.75 1.877.661 2.801zm-14.223-7.622c-3.538.728-2.443 6.66 1.759 5.357 2.754-.854 2.166-6.164-1.76-5.357m-78.04.904H11.931c.685 14.476 5.352 28.773 12.87 41.06l6.043-3.304c1.551-5.975 1.596-12.278.413-18.324-1.03-5.261-2.33-6.534-4.73-10.87-1.516-2.74-2.49-5.676-3.678-8.562m157.291 0c-.928 3.11-2.21 6.214-3.798 9.041-2.138 3.806-3.279 5.045-4.284 9.635-1.382 6.31-1.367 12.98.293 19.235l5.756 3.139c.467.004 1.07-1.299 1.355-1.768 5.586-9.206 9.727-21.811 11.202-32.476.257-1.856.658-4.503.656-6.316 0-.28-.017-.31-.262-.49zm-88.787 18 6.376-12.955-.543-.46-12.068 6.577c2.732 1.648 4.436 4.307 6.235 6.838m26.637-7.196c-1.792-.398-11.215-6.43-12.066-6.212-.215.055-.573.389-.613.603l6.564 12.564 3.114-4.082c.752-.965 2.002-1.58 2.849-2.376.203-.191.219-.166.152-.497m-8.158 8.155-6.237-12.138c-.465-.508-2.775.477-3.735-.264l-6.584 12.4 8.278-.737zm-30.957 22.8L89.83 127.73c-1.4-3.43-3.783-6.381-7.028-8.239-2.03 1.316-3.769 3.065-5.765 4.475-3.114 2.2-6.737 4.214-10.334 5.504-2.463.883-5.208 1.111-7.257 2.821 8.265 3.266 14.555 9.412 19.432 16.679m64.791-17.035c-2.302-1.178-4.832-1.59-7.257-2.464-6.037-2.175-11.065-5.92-15.938-9.979-3.306 1.745-5.755 4.814-7.19 8.24l10.952 21.239c1.469-1.52 2.492-3.488 3.844-5.152 3.506-4.318 8.146-7.909 13.105-10.413.378-.191 2.918-.897 2.484-1.471m-88.305-.241c-4.525-.169-8.802-.61-13.08-2.158-3.396-1.228-6.538-3.137-9.232-5.525 1.384 6.553 1.617 13.066.48 19.68zm114.7-7.441-4.637 3.16c-5.526 3.143-10.796 3.967-17.083 4.277-.27.013-.658-.154-.593.238l21.833 11.522c-1.112-6.454-.866-12.807.48-19.197m-48.71 23.756-9.95-18.966c-2.881-1.536-17.886-1.72-19.678.015l-9.965 18.951c12.56-4.895 27.046-4.93 39.593 0m-56.148 26.402L77.4 151.67c.145-.681-1.803-3.362-2.305-4.074-4.459-6.318-10.89-11.607-18.414-13.757l-20.636 11.05c-.225.315.29.405.473.491 2.073.98 4.273 1.647 6.375 2.744 10.326 5.392 19.066 14.98 22.313 26.285m102.218-29.517c-6.47-3.02-12.566-7.061-18.95-10.208-2.537-1.25-2.924-.743-5.446.324-7.216 3.053-13.685 9.562-17.303 16.441l12.183 22.96c3.477-11.73 12.456-21.307 23.272-26.766zm-134.678 1.714-6.647 3.681c8.515 13.396 20.728 24.14 34.778 31.464.25.12.483.15.73-.008.196-.126 2.05-3.824 2.113-4.154.233-1.22-1.491-5.396-2.074-6.701-4.532-10.154-13.744-18.632-24.04-22.755-.914-.366-4.133-1.66-4.86-1.527m90.463 4.828c-10.38-5.315-23.48-6.204-34.731-3.306-2.048.527-7.694 2.283-8.837 3.881l-12.038 23.118c21.93-7.389 45.985-7.398 67.908 0zm18.32 30.399c.378.274 4.915-2.382 5.661-2.822 10.874-6.415 21.274-15.89 28.35-26.366.295-.437 1.609-2.13 1.379-2.483l-6.206-3.417c-1.173-.376-4.418 1.106-5.68 1.632-12.296 5.127-22.331 15.763-25.693 28.796zm-1.938 1.213-2.412-4.664c-22.378-8.917-48.677-8.81-71.108-.106l-2.552 4.649c17.896 8.535 38.51 10.592 57.88 6.29 6.277-1.395 12.34-3.556 18.191-6.169"/></svg>