<svg xmlns="http://www.w3.org/2000/svg" width="915.24" height="1047.83" data-name="Layer 2"><defs><linearGradient id="a" x1="-496.78" x2="-495.78" y1="1063.87" y2="1063.87" gradientTransform="scale(964.45 -964.45)rotate(-37.55 -1813.563 -198.99)" gradientUnits="userSpaceOnUse"><stop offset="0" stop-color="#8d742f"/><stop offset=".07" stop-color="#967d38"/><stop offset=".18" stop-color="#ae954f"/><stop offset=".2" stop-color="#b39a54"/><stop offset=".22" stop-color="#b9a059"/><stop offset=".3" stop-color="#cab068"/><stop offset=".39" stop-color="#d4ba71"/><stop offset=".5" stop-color="#d7bd74"/><stop offset=".61" stop-color="#d4ba71"/><stop offset=".7" stop-color="#cab068"/><stop offset=".78" stop-color="#b9a059"/><stop offset=".8" stop-color="#b39a54"/><stop offset=".86" stop-color="#a38a45"/><stop offset=".94" stop-color="#937a35"/><stop offset="1" stop-color="#8d742f"/></linearGradient></defs><g data-name="Layer 1"><path d="M359.8 142.18V74.61L457.62 0l97.81 74.6v67.57l359.81 117.18-14 148.39-31.26-9.94-44.45 432.49 31.14-6.62-10.18 133.93-388.87 90.23L68.74 957.6 58.56 823.67l31.14 6.62L45.25 397.8l-31.26 9.94L0 259.36Z" style="fill-rule:evenodd;stroke-width:0"/><path d="M457.62 222.3 51.29 351.37l-5.86-62.18 412.19-134.26 412.19 134.26-5.87 62.18zm0-103.81-55.39 18.78V95.61l55.39-42.24 55.39 42.24v41.66zm0 885.79-348.94-80.96-3.52-46.34 352.45 74.95 352.45-74.95-3.53 46.34-348.92 80.96zm-16.16-739.79v650.72L133.8 844.34 85.58 375.2l355.87-110.71zM272.38 509.22l129.85-19.74V334.12l-134.26 38.1 4.4 137zM233.89 381.9l-101.22 28.73 10.32 118.27 94.28-14.34Zm239.88-117.41L829.65 375.2l-48.23 469.14-307.66 70.87V264.49Zm63.3 268.98 1.44 106.93 80.27-1.92 1.92-98.52zm105.78-24.25 4.4-137-134.24-38.1v155.36zm38.5-127.32-3.38 132.66 94.27 14.34 10.33-118.27z" style="fill-rule:evenodd;stroke-width:0;fill:url(#a)"/></g></svg>