<svg xmlns="http://www.w3.org/2000/svg" width="915.24" height="1047.83" data-name="Layer 2"><defs><linearGradient id="a" x1="-497.16" x2="-496.16" y1="1063.87" y2="1063.87" gradientTransform="scale(964.45 -964.45)rotate(-37.55 -1813.754 -199.555)" gradientUnits="userSpaceOnUse"><stop offset="0" stop-color="#626e77"/><stop offset=".04" stop-color="#697780"/><stop offset=".11" stop-color="#7d8e98"/><stop offset=".2" stop-color="#9eb4c0"/><stop offset=".2" stop-color="#a0b6c2"/><stop offset=".2" stop-color="#a1b7c3"/><stop offset=".29" stop-color="#adc6d4"/><stop offset=".38" stop-color="#b5cede"/><stop offset=".5" stop-color="#b7d1e1"/><stop offset=".62" stop-color="#b5cede"/><stop offset=".71" stop-color="#adc6d4"/><stop offset=".8" stop-color="#a1b7c3"/><stop offset=".8" stop-color="#a0b6c2"/><stop offset=".85" stop-color="#8b9da8"/><stop offset=".91" stop-color="#74838d"/><stop offset=".96" stop-color="#67747d"/><stop offset="1" stop-color="#626e77"/></linearGradient></defs><g data-name="Layer 1"><path d="M359.81 142.18V74.61L457.62 0l97.82 74.6v67.57l359.8 117.18-13.99 148.39-31.26-9.94-44.45 432.49 31.14-6.62L846.5 957.6l-388.88 90.23L68.75 957.6 58.57 823.67l31.14 6.62L45.26 397.8 14 407.74 0 259.36Z" style="fill-rule:evenodd;stroke-width:0"/><path d="M457.62 222.3 51.3 351.37l-5.87-62.18 412.19-134.26 412.19 134.26-5.86 62.18zm0-103.81-55.39 18.78V95.61l55.39-42.24 55.39 42.24v41.66zm0 885.79L108.7 923.32l-3.53-46.34 352.45 74.95 352.45-74.95-3.52 46.34-348.94 80.96zm-16.15-739.79v650.72l-307.66-70.87L85.58 375.2l355.88-110.71zM272.39 509.22l129.84-19.74V334.12l-134.24 38.1zm-38.5-127.32-101.22 28.73L143 528.9l94.27-14.34Zm239.89-117.41L829.65 375.2l-48.22 469.14-307.66 70.87V264.49Zm169.08 244.73 4.4-137L513 334.12v155.36l129.85 19.74zm-105.78 24.25 1.44 106.93 80.27-1.92 1.92-98.52zM681.35 381.9l-3.38 132.66 94.28 14.34 10.32-118.27z" style="fill-rule:evenodd;stroke-width:0;fill:url(#a)"/></g></svg>