<svg xmlns="http://www.w3.org/2000/svg" width="824.38" height="950.92" data-name="Layer 2"><path d="M412.19 168.94 5.86 298.01 0 235.82l412.19-134.25 412.19 134.26-5.87 62.18zm0-103.82L356.8 83.9V42.24L412.19 0l55.39 42.24V83.9Zm0 885.8L63.25 869.96l-3.52-46.34 352.45 74.95 352.45-74.95-3.53 46.34-348.92 80.96zm-16.17-739.79v650.72L88.36 790.98 40.14 321.84l355.87-110.71zM188.46 328.54 87.24 357.27l10.32 118.27 94.28-14.34Zm38.48 127.32 129.85-19.74V280.76l-134.26 38.1 4.4 137zm201.4-244.73 355.88 110.71-48.23 469.14-307.66 70.87V211.13zm207.58 117.41-3.38 132.66 94.27 14.34 10.33-118.27zM491.64 480.11l1.44 106.93 80.27-1.92 1.92-98.52zm105.78-24.25 4.4-137-134.24-38.1v155.36z" data-name="Layer 1" style="fill-rule:evenodd;stroke-width:0"/></svg>