<svg xmlns="http://www.w3.org/2000/svg" xml:space="preserve" width="272.798" height="314.999" viewBox="37 0 272.798 314.999"><g transform="translate(-26.297 -18.653)"><path fill="#fff" d="m199.696 18.653 136.399 78.752v157.498l-136.399 78.749-136.399-78.749V97.405z"/><path d="m199.696 26.751 129.384 74.704v149.399l-129.384 74.701-129.384-74.701V101.455z"/><linearGradient id="a" x1="95.135" x2="304.258" y1="263.891" y2="88.416" gradientUnits="userSpaceOnUse"><stop offset="0" style="stop-color:#bb2c26"/><stop offset=".01" style="stop-color:#bd2f26"/><stop offset=".137" style="stop-color:#d05724"/><stop offset=".238" style="stop-color:#dc6f23"/><stop offset=".3" style="stop-color:#e07823"/><stop offset=".305" style="stop-color:#e17a23"/><stop offset=".362" style="stop-color:#ee8b1f"/><stop offset=".423" style="stop-color:#f5951e"/><stop offset=".5" style="stop-color:#f7981d"/><stop offset=".577" style="stop-color:#f5951e"/><stop offset=".638" style="stop-color:#ee8b1f"/><stop offset=".695" style="stop-color:#e17a23"/><stop offset=".7" style="stop-color:#e07823"/><stop offset=".762" style="stop-color:#dc6f23"/><stop offset=".863" style="stop-color:#d05724"/><stop offset=".99" style="stop-color:#bd2f26"/><stop offset="1" style="stop-color:#bb2c26"/></linearGradient><path fill="url(#a)" d="m79.664 245.453 120.032 69.301 120.033-69.301v-138.6L199.696 37.552 79.664 106.853z" style="fill:url(#a)"/><path d="M181.005 116.54c-8.01-25.896 5.403-47.69 5.403-47.69s-1.49 13.969 8.384 26.824c9.872 12.855 32.601 31.111 45.269 44.527 12.666 13.411 20.677 25.706 20.677 25.706-.744-19.003-39.121-51.23-43.777-55.701s-8.57-7.824-8.57-17.513c0-9.685 5.031-17.14 5.031-17.14-.187 3.542.371 14.532 9.127 26.084 8.755 11.55 39.495 38.933 49.369 48.622 9.871 9.687 11.673 27.137 11.673 30.366s-.745 8.694-.745 8.694c12.666-.126 9.688 12.666 9.688 12.666 11.675-5.341 15.025-16.145 15.025-16.145 5.592 37.259-22.727 50.672-22.727 50.672 4.597-23.971-20.986-24.715-24.219-24.715-3.228 0-8.566.87-8.566.87 9.437-14.903-10.555-20.866-27.819-20.866-17.266 0-23.846 6.831-23.846 6.831 16.142-1.367 22.107 3.478 22.107 3.478s-7.452 5.961-7.452 13.785c0 11.552 13.786 8.445 13.786 8.445s-4.97 3.476-4.97 8.446c0 10.557 14.035 6.953 14.035 6.953-6.585 11.551 2.856 14.158 9.313 14.158s12.979-3.785 12.979-3.785c-16.579 37.256-72.219 30.115-72.219 30.115 25.956-7.949 24.838-24.339 24.838-24.339-4.098 5.339-11.425 3.353-11.425 3.353s6.332-5.216 6.332-14.782c0-14.281-15.399-33.161-41.855-33.161-5.216 0-15.146 1.494-15.146 1.494 13.659-22.606 40.734-29.437 40.734-29.437-6.585-6.581-21.736-7.325-21.736-7.325 14.78-11.054 40.985-12.669 40.985-12.669-44.46-9.438-66.194 19.249-66.194 19.249 11.177-.371 17.634 3.353 17.634 3.353-27.323 6.334-44.089 26.33-44.089 26.33s3.727-19.996-4.842-29.435c-8.57-9.438-25.46-7.079-25.46-7.079 23.596-23.72 40.859-21.485 40.859-31.298 0-14.033-17.759-21.856-17.759-21.856 18.381-4.97 31.546 1.988 31.546 1.988-9.689-8.696-7.949-33.038-7.949-33.038 18.504 24.841 26.659 24.533 45.205 35.27 18.88 10.931 26.579 22.853 26.579 22.853-1.426-15.087-25.213-33.158-25.213-33.158m65.079 65.948c4.845 3.973 12.791 2.232 12.791 2.232-2.234-12.416-14.406-22.105-18.504-24.839-4.098-2.73-6.457-1.863-6.457-1.863-3.726 8.943 7.325 20.498 12.17 24.47"/></g></svg>