<svg xmlns="http://www.w3.org/2000/svg" width="218.674" height="300"><path fill="#fff" d="M218.674 58.892 124.852 0 16.379 57.954 0 174.688l34.581 21.698c0 20.207 1.325 41.077 6.037 59.813l.718 2.907L112.115 300l67.469-51.678-1.656-4.785c-.185-.294-5.705-17.778-5.411-51.972l29.777-15.938z"/><path d="M118.189 44.132c-39.42-.019-75.952 32.022-81.455 71.352-2.779 19.747 2.466 38.39 14.649 52.451 12.036 13.84 29.52 21.532 49.101 21.495 39.421 0 75.935-31.967 81.418-71.296 2.761-19.766-2.429-38.39-14.612-52.451-12.109-13.932-29.519-21.569-49.101-21.551m44.721 71.37c-4.27 30.183-32.243 54.752-62.426 54.733-13.95.036-26.207-5.282-34.599-14.889-8.502-9.828-12.128-23.079-10.122-37.268 4.233-30.182 32.207-54.751 62.425-54.77 13.914 0 26.171 5.355 34.6 14.962 8.466 9.792 12.073 23.006 10.122 37.232"/><path d="m53.518 249.905 57.53 33.237 52.12-39.899c-1.841-6.994-4.38-22.122-4.748-44.169L93.822 233.6l-45.034-28.269c.387 15.312 1.528 30.661 4.73 44.574M29.299 66.99 15.201 167.622l79.173 49.745 95-50.739 14.134-100.669-79.247-49.745z"/><path fill="#fff" d="M118.189 44.132c-39.42-.019-75.952 32.022-81.455 71.352-2.779 19.747 2.466 38.39 14.649 52.451 12.036 13.84 29.52 21.532 49.101 21.495 39.421 0 75.935-31.967 81.418-71.296 2.761-19.766-2.429-38.39-14.612-52.451-12.109-13.932-29.519-21.569-49.101-21.551m44.721 71.37c-4.27 30.183-32.243 54.752-62.426 54.733-13.95.036-26.207-5.282-34.599-14.889-8.502-9.828-12.128-23.079-10.122-37.268 4.233-30.182 32.207-54.751 62.425-54.77 13.914 0 26.171 5.355 34.6 14.962 8.466 9.792 12.073 23.006 10.122 37.232"/></svg>