<svg xmlns="http://www.w3.org/2000/svg" width="565.339" height="550.986"><path d="M244.67 0C119.944 29.6 75.4 143.327 55.969 152.912c-17.957 8.857-28.947-5.467-52.955-24.86-18.852 86.74 55.674 142.344 86.724 175.589 35.147 37.63 56.963 52.918 45.387 61.738-10.664 8.125-25.53-10.128-34.74-20.27-8.544 89.849 101.044 171.18 182.285 205.877C363.91 516.29 473.5 434.958 464.955 345.11c-9.211 10.142-24.076 28.395-34.74 20.27-11.576-8.82 10.24-24.107 45.387-61.738 31.05-33.245 105.576-88.85 86.724-175.588-24.008 19.392-34.998 33.716-52.955 24.86C489.94 143.326 445.396 29.6 320.67 0v73.982c0 21.093-16.932 38.081-38 38.18-21.068-.099-38-17.087-38-38.18z" style="fill:gray"/><path d="M224.504 28.234C135.18 61.118 101.68 129.68 95.338 139.561c-18.666 29.084-38.165 44.827-72.975 29.33 1.648 71.957 142.607 153.617 136.852 194.03-1.026 7.202-6.25 11.592-13.05 14.308 23.71-5.805 42.177-25.233 36.005-71.014 51.777 70.085 29.846 134.088 10.219 165.656 24.985 22.297 54.52 41 90.28 56.317 35.76-15.317 65.297-34.02 90.282-56.317-19.627-31.568-41.558-95.571 10.219-165.656-6.172 45.781 12.295 65.209 36.006 71.014-6.8-2.716-12.026-7.106-13.051-14.307-5.755-40.414 135.204-122.074 136.852-194.031-34.81 15.497-54.31-.246-72.975-29.33-6.342-9.882-39.843-78.443-129.166-111.327v49c0 30.936-24.904 55.84-55.84 55.84h-4.652c-30.936 0-55.84-24.904-55.84-55.84zm-40.334 76.23c6.918 26.216 14.259 33.62 25.75 44.75-18.805 9.577-55.175 30.683-89.75 87.75 5.07-68.668 31.088-103.778 64-132.5m197 0c32.912 28.722 58.93 63.832 64 132.5-34.575-57.067-70.945-78.173-89.75-87.75 11.49-11.13 18.832-18.534 25.75-44.75m-98.5 81.944c22.895 14.48 38.36 28.596 52.267 43.535-26.05 40.375-41.26 78.83-52.267 115.078-11.007-36.249-26.218-74.703-52.268-115.078 13.907-14.94 29.373-29.055 52.268-43.535"/></svg>