<svg xmlns="http://www.w3.org/2000/svg" xmlns:xlink="http://www.w3.org/1999/xlink" width="565.339" height="550.986"><linearGradient id="a"><stop offset="0" style="stop-color:#536e78"/><stop offset=".2" style="stop-color:#829ba5"/><stop offset=".5" style="stop-color:#d9eaf3"/><stop offset=".8" style="stop-color:#829ba5"/><stop offset="1" style="stop-color:#536e78"/></linearGradient><linearGradient xlink:href="#a" id="b" x1="672.693" x2="1193.307" y1="260.566" y2="260.566" gradientTransform="translate(-650.33 -91.676)" gradientUnits="userSpaceOnUse"/><path d="M244.67 0C119.944 29.6 75.4 143.327 55.969 152.912c-17.957 8.857-28.947-5.467-52.955-24.86-18.852 86.74 55.674 142.344 86.724 175.589 35.147 37.63 56.963 52.918 45.387 61.738-10.664 8.125-25.53-10.128-34.74-20.27-8.544 89.849 101.044 171.18 182.285 205.877C363.91 516.29 473.5 434.958 464.955 345.11c-9.211 10.142-24.076 28.395-34.74 20.27-11.576-8.82 10.24-24.107 45.387-61.738 31.05-33.245 105.576-88.85 86.724-175.588-24.008 19.392-34.998 33.716-52.955 24.86C489.94 143.326 445.396 29.6 320.67 0v73.982c0 21.093-16.932 38.081-38 38.18-21.068-.099-38-17.087-38-38.18z"/><path d="m185.92 70.215-111.5 124.5 37.25 90.25 86-12 85 146 85-146 86 12 37.25-90.25-111.5-124.5-96.75 89.75z"/><path d="M184.17 104.465c-32.912 28.721-58.93 63.831-64 132.5 34.575-57.068 70.945-78.174 89.75-87.75-11.491-11.131-18.832-18.535-25.75-44.75m197 0c-6.918 26.215-14.26 33.619-25.75 44.75 18.805 9.576 55.175 30.682 89.75 87.75-5.07-68.669-31.088-103.779-64-132.5m-98.5 81.943c-22.895 14.48-38.36 28.596-52.268 43.535 26.05 40.375 41.26 78.83 52.268 115.078 11.007-36.249 26.218-74.703 52.268-115.078-13.907-14.94-29.373-29.055-52.268-43.535m-93 150.307c-7.01 41.021-34.448 53.545-64.225 50.396 16.977 30.021 36.667 56.28 60.68 78.99 20.76-36.478 28.72-90.95 3.545-129.386m186 0c-25.176 38.435-17.216 92.908 3.545 129.387 24.013-22.711 43.703-48.97 60.68-78.99-29.777 3.148-57.214-9.376-64.225-50.397" style="fill:#fff"/><path d="M224.504 28.234C135.18 61.118 101.68 129.68 95.338 139.561c-18.666 29.084-38.165 44.827-72.975 29.33 1.648 71.957 142.607 153.617 136.852 194.03-1.026 7.202-6.25 11.592-13.05 14.308 23.71-5.805 42.177-25.233 36.005-71.014 51.777 70.085 29.846 134.088 10.219 165.656 24.985 22.297 54.52 41 90.28 56.316 35.76-15.316 65.297-34.02 90.282-56.316-19.627-31.568-41.558-95.571 10.219-165.656-6.172 45.781 12.296 65.209 36.006 71.014-6.8-2.716-12.025-7.106-13.051-14.307-5.755-40.414 135.204-122.074 136.852-194.031-34.81 15.497-54.31-.246-72.975-29.33-6.342-9.882-39.843-78.443-129.166-111.327v49c0 30.936-24.904 55.84-55.84 55.84h-4.652c-30.936 0-55.84-24.904-55.84-55.84zm-33.584 58.73c4.168 36.466 22.009 52.37 33.5 63.5-14.305 7.327-79.425 40.933-112.75 122-7.864-91.613 26.434-145.165 79.25-185.5m183.5 0c52.816 40.335 87.114 93.887 79.25 185.5-33.325-81.067-98.445-114.673-112.75-122 11.49-11.13 29.332-27.034 33.5-63.5m-91.75 87.78c29.982 17.972 46.22 35.946 62.904 53.918-36.45 51.177-49.407 101.415-62.904 151.674-13.497-50.26-26.455-100.497-62.904-151.674 16.683-17.972 32.922-35.946 62.904-53.918" style="fill:url(#b)"/></svg>