<svg xmlns="http://www.w3.org/2000/svg" width="520.613" height="499.953"><path d="M202.14 0C112.818 32.884 79.317 101.445 72.976 111.326 54.309 140.411 34.809 156.153 0 140.656c1.647 71.958 142.607 153.618 136.852 194.032-1.026 7.2-6.25 11.59-13.051 14.306 23.71-5.804 42.178-25.232 36.006-71.014 51.776 70.085 29.846 134.088 10.218 165.657 24.986 22.296 54.521 41 90.282 56.316 35.76-15.316 65.295-34.02 90.28-56.316-19.626-31.569-41.557-95.572 10.22-165.657-6.172 45.782 12.295 65.21 36.006 71.014-6.801-2.715-12.026-7.106-13.051-14.307-5.755-40.413 135.204-122.073 136.851-194.03-34.81 15.496-54.309-.246-72.974-29.33C441.297 101.444 407.796 32.883 318.473 0v49c0 30.936-24.905 55.84-55.84 55.84h-4.653c-30.935 0-55.84-24.904-55.84-55.84zm-40.333 76.23c6.917 26.215 14.259 33.62 25.75 44.75-18.805 9.576-55.175 30.683-89.75 87.75 5.069-68.668 31.088-103.778 64-132.5m197 0c32.911 28.722 58.93 63.832 64 132.5-34.575-57.067-70.945-78.174-89.75-87.75 11.49-11.13 18.832-18.535 25.75-44.75m-98.5 81.944c22.894 14.48 38.36 28.595 52.267 43.535-26.049 40.374-41.26 78.829-52.267 115.078-11.008-36.25-26.219-74.704-52.268-115.078 13.907-14.94 29.373-29.055 52.268-43.535"/></svg>