<svg xmlns="http://www.w3.org/2000/svg" width="600" height="691.635"><path d="M424.715 376.882c-1.556 19.92-5.464 39.252-11.879 56.803-7.366 20.127-20.006 42.347-35.396 57.477-27.562 27.165-64.1 41.483-96.193 49.246 1.764-27.286 3.32-50.854 5.205-80.924h59.31l36.14-138.869c-36.814-14.991-78.625-32.49-93.012-38.37V164.663c30.866 10.254 56.872 24.104 76.861 42.001 44.37 39.857 63.633 108.141 58.964 170.218M52.808 2.278 7.626 6.462s88.36 252.284 99.962 285.588c-23.897 9.112-32.076 24.104-34.652 34.514l-10.998 44.041h15.269c-.484 1.418-26.958 80.856-26.958 80.856h54.106a35732 35732 0 0 0-19.453 108.124c-16.34-.33-26.353-1.47-26.543-1.47l-32.49-3.856-6.485 32.076L0 683.34l38.353 4.322C50.785 689.08 345.416 720.62 503.34 579.59 567.51 522.235 600 445.374 600 350.945c0-95.916-32.768-174.403-97.334-233.298C347.993-23.313 64.843 1.206 52.808 2.277" style="fill:#fff"/><path d="m55.783 33.68-5.067.483 61.333 175.268s22.773-99.081 24.122-104.822c16.479 0 41.811.208 69.772 2.767.329 5.879 12.899 464.641 12.899 464.641l20.802-2.023s9.25-143.26 9.735-150.09h65.985l9.925-37.42H249.24v-37.747h74.094l-74.094-35.88V113.462c59.777 10.929 107.934 32.284 142.984 63.754 47.62 42.762 71.811 104.493 71.811 183.585 0 66.815-19.798 120.246-58.843 158.598-43.09 42.416-102.331 59.034-144.47 65.518-23.984 3.648-44.993 4.461-58.498 4.6 0 0-14.525-.467-19.99-.674v-427.5S158.53 309.81 157.372 315.55c-47.812.673-53.362 16.824-53.83 18.64l-1.763 8.179h51.685l-5.81 40.116h-41.206l-12.433 37.42h48.088c-1.608 8.645-29.776 165.013-30.796 170.892-33.77 1.28-56.388-1.349-56.665-1.418l-3.648-.397-.743 3.58-12.623 63.286 4.254.536c.744.069 73.818 8.11 164.062-.139 83.484-7.625 199.182-31.263 276.389-100.239 57.148-50.993 86.198-120.02 86.198-205.06 0-86.666-29.326-157.32-87.132-209.99-75.6-68.906-187.303-94.427-267.761-103.696-86.925-9.925-157.18-3.648-157.855-3.58"/></svg>