<svg xmlns="http://www.w3.org/2000/svg" xmlns:xlink="http://www.w3.org/1999/xlink" width="600" height="691.635"><radialGradient id="a" cx="0" cy="0" r="1" fx="0" fy="0" gradientTransform="matrix(16.3508 0 0 -16.3508 482.664 370.132)" gradientUnits="userSpaceOnUse" spreadMethod="pad"><stop offset="0" style="stop-color:#ebd491"/><stop offset=".7" style="stop-color:#d2bb7b"/><stop offset="1" style="stop-color:#8b723c"/></radialGradient><radialGradient xlink:href="#a" id="b" cx="0" cy="0" r="1" fx="0" fy="0" gradientTransform="translate(303.814 345.821)scale(282.73091)" gradientUnits="userSpaceOnUse" spreadMethod="pad"/><path d="M424.715 376.882c-1.556 19.92-5.464 39.252-11.879 56.803-7.366 20.127-20.058 42.347-35.396 57.477-27.562 27.165-64.1 41.483-96.193 49.246 1.764-27.286 3.32-50.854 5.205-80.924h59.31l36.14-138.869c-36.814-14.991-78.625-32.49-93.012-38.37V164.663c30.866 10.254 56.872 24.104 76.861 42.001 44.37 39.857 63.633 108.141 58.964 170.218M52.808 2.278 7.626 6.462s88.29 252.284 99.962 285.588c-23.897 9.112-32.076 24.104-34.652 34.514l-10.998 44.041h15.269c-.484 1.418-26.958 80.856-26.958 80.856h54.106a35732 35732 0 0 0-19.453 108.124c-16.34-.33-26.353-1.47-26.543-1.47l-32.49-3.856-6.485 32.076L0 683.34l38.3 4.322c12.485 1.418 307.116 32.958 465.04-108.072C567.51 522.235 600 445.374 600 350.945c0-95.916-32.768-174.403-97.334-233.298C347.993-23.313 64.843 1.206 52.808 2.277" style="fill:#fff"/><path d="m55.783 33.68-5.067.483 61.402 175.268s22.635-99.081 23.984-104.822c16.548 0 41.88.208 69.84 2.767.33 5.879 12.9 464.641 12.9 464.641l20.802-2.023s9.25-143.26 9.666-150.09h66.054l9.925-37.42H249.24v-37.747h74.094l-74.094-35.88V113.462c59.777 10.929 107.934 32.284 142.984 63.754 47.69 42.762 71.811 104.493 71.811 183.585 0 66.815-19.798 120.246-58.843 158.598-43.021 42.416-102.4 59.034-144.47 65.518-23.915 3.648-44.993 4.461-58.498 4.6 0 0-14.525-.467-19.99-.674v-427.5S158.53 309.81 157.372 315.55c-47.812.673-53.362 16.824-53.83 18.64l-1.815 8.179h51.737l-5.81 40.116h-41.137l-12.502 37.42h48.036c-1.556 8.645-29.724 165.013-30.744 170.892-33.77 1.28-56.457-1.349-56.665-1.418l-3.648-.397-.674 3.58-12.692 63.286 4.254.536c.744.069 73.818 8.11 164.062-.139 83.484-7.625 199.182-31.263 276.458-100.239 57.08-50.993 86.06-120.02 86.06-205.06 0-86.666-29.257-157.32-87.063-209.99-75.6-68.906-187.373-94.427-267.761-103.696-86.925-9.925-157.18-3.648-157.855-3.58" style="fill:#8b723c"/><path d="m61.402 41.045 49.091 140.425c6.9-29.845 17.17-74.838 18.104-78.694l1.418-6 6.156.07c13.228 0 40.722.069 70.446 2.835l6.623.536.466 6.623c.346 5.602 10.946 392.57 12.71 456.6l5.862-.535c1.832-28.237 8.853-137.59 9.25-143.537l.554-7.228h67.264l5.81-21.874h-73.679v-53.31h47.811l-43.437-21.061-4.374-2.092V104.142l9.182 1.608c61.333 11.292 110.7 33.373 146.701 65.657C446.814 215.725 471.8 279.41 471.8 360.8c0 69.045-20.542 124.292-61.125 164.149-44.457 43.765-105.444 60.987-148.812 67.679-19.038 2.905-39.58 4.513-59.915 4.651l-20.058-.674-7.418-.277V259.144c-4.807 29.862-8.992 55.523-9.459 57.961l-1.348 6.139-6.225.069c-30.33.484-42.278 7.504-45.529 11.291h50.526l-1.28 8.905-5.81 40.065-1.002 6.692h-42.226l-7.298 21.874h46.619l-1.695 9.182c-1.556 8.645-29.793 164.944-30.796 170.823l-1.159 6.156-6.208.26c-6.76.276-13.107.345-18.917.345-15.666 0-29.24-.813-35.465-1.349l-10.323 51.46c10.462 1.02 38.163 3.182 75.374 3.182 28.307 0 56.198-1.21 83.017-3.718 82.273-7.487 196.208-30.658 271.927-98.268 55.402-49.523 83.553-116.597 83.553-199.268 0-84.366-28.496-153.117-84.625-204.248-74.025-67.49-184.138-92.614-263.368-101.657-32.283-3.718-65.846-5.62-99.755-5.62-24.986 0-43.367 1.09-51.598 1.625" style="fill:url(#b)"/></svg>