<svg xmlns="http://www.w3.org/2000/svg" width="77.685" height="48.425"><path d="M20.511 1.146C15.62-.88 10.271-.128 6.22 2.676l12.236 5.068 1.225 9.302-7.444 5.711L0 17.69c.883 4.848 4.133 9.162 9.025 11.188 5.596 2.318 11.793.999 15.96-2.868l26.557 11a13.12 13.12 0 0 0 7.992 10.414c6.697 2.774 14.375-.407 17.149-7.104s-.407-14.374-7.103-17.148a13.13 13.13 0 0 0-13.569 2.16L29.77 14.46c-.213-5.682-3.661-10.997-9.258-13.315m43.415 26.145c1.305.513 1.862 1.696 1.862 1.696 3.204 1.191 7.191 4.39 6.578 7.826-.156.874.88.851.325 2.191s-1.272.592-1.78 1.32c-1.995 2.863-7.077 2.305-10.185.882 0 0-1.402.505-2.774-.242-2.885-1.57-1.166-7.068-1.166-7.068-1.057-.492-1.453-.733-.976-1.884s.927-1.042 2.023-.642c0 0 2.672-5.104 5.821-4.174q.141.043.272.095"/></svg>