<?xml version="1.0" encoding="UTF-8" standalone="no"?>
<svg
   id="Layer_2"
   data-name="Layer 2"
   viewBox="0 0 724.25183 795.99001"
   version="1.1"
   width="724.25183"
   height="795.98999"
   xmlns="http://www.w3.org/2000/svg"
   xmlns:svg="http://www.w3.org/2000/svg">
  <defs
     id="defs7">
    <style
       id="style1">
      .cls-1, .cls-2, .cls-3 {
        stroke-width: 0px;
      }

      .cls-2 {
        fill: url(#radial-gradient);
      }

      .cls-3 {
        fill: #626e77;
      }
    </style>
    <radialGradient
       id="radial-gradient"
       cx="362.07999"
       cy="392.73999"
       fx="362.07999"
       fy="247.73"
       r="355.04999"
       gradientTransform="matrix(-1,0,0,-0.91,724.16,749.37)"
       gradientUnits="userSpaceOnUse">
      <stop
         offset="0"
         stop-color="#c7e1f1"
         id="stop1" />
      <stop
         offset=".41"
         stop-color="#c7e1f1"
         id="stop2" />
      <stop
         offset=".46"
         stop-color="#c7e1f1"
         id="stop3" />
      <stop
         offset=".52"
         stop-color="#bfd8e8"
         id="stop4" />
      <stop
         offset=".62"
         stop-color="#abc1cf"
         id="stop5" />
      <stop
         offset=".75"
         stop-color="#8a9ca8"
         id="stop6" />
      <stop
         offset=".88"
         stop-color="#626e77"
         id="stop7" />
    </radialGradient>
  </defs>
  <g
     id="Layer_1-2"
     data-name="Layer 1"
     transform="translate(0.01,0.01)">
    <g
       id="g10">
      <path
         class="cls-1"
         d="m 361.33,795.98 c -2.62,-4.08 -6.47,-7.02 -9.82,-10.4 -13.95,-14.09 -28.02,-28.07 -42.04,-42.1 -1.16,-1.16 -2.26,-2.39 -3.57,-3.78 1.61,-1.52 2.94,-2.99 4.49,-4.18 14.6,-11.23 20.42,-26.99 23,-44.42 1.52,-10.24 2.25,-20.54 1.78,-30.89 -0.47,-10.31 -1.11,-20.62 -3.04,-30.79 -36.09,-23.78 -95.24,-28.29 -144.19,22.32 -1.99,-1.62 -4.08,-3.18 -6.01,-4.91 -16.84,-15.03 -37.18,-21.29 -59.06,-23.91 -20.58,-2.46 -40.85,-0.37 -61.03,3.66 -1.93,0.39 -3.92,0.51 -6.74,0.86 2.65,-4.87 4.7,-9.31 7.33,-13.38 16.29,-25.26 17.09,-52.43 10.41,-80.64 -3.49,-14.74 -9.01,-28.68 -16.39,-42.38 4.66,-2.07 9,-4.03 13.36,-5.95 7.33,-3.23 14.13,-7.31 20.46,-12.26 27.85,-21.74 18.27,-58.15 -3.47,-72.35 C 73.82,392 59.42,388.1 44.32,385.91 31.94,384.12 19.46,385.46 6.2,384.7 c 5.08,-6.48 9.66,-12.51 14.44,-18.38 12.89,-15.8 18.92,-34.08 19.77,-54.24 1.33,-31.65 -6.88,-61.17 -20.49,-89.36 -6.54,-13.53 -13.69,-26.77 -19.93,-40.74 10.84,7.22 21.8,14.25 32.48,21.7 15.58,10.87 32.33,18.96 51.13,22.32 33.04,5.92 64.87,1.41 95.69,-11.39 4.87,-2.03 9.7,-4.16 15.1,-6.48 -0.93,8.46 -1.91,16.2 -2.59,23.96 -1.26,14.39 -0.38,28.61 4.4,42.36 5.72,16.45 15.69,22.07 32.8,18.74 0.49,-0.1 1,-0.1 1.49,-0.2 22.89,-4.65 31.33,-17.72 26.19,-40.55 -4.3,-19.13 -13.38,-36.02 -24.41,-51.99 -3.01,-4.37 -6.17,-8.64 -9.62,-13.47 4.72,-1.28 9.03,-2.32 13.26,-3.61 61.27,-18.79 99.47,-59.17 113.39,-121.9 4.25,-19.14 7.54,-38.48 11.3,-57.73 0.24,-1.25 0.72,-2.45 1.97,-3.75 1.57,7.89 3.06,15.79 4.72,23.66 4.42,20.94 6.57,42.47 14.36,62.57 20.25,52.2 58.29,84.49 112.09,98.75 2.39,0.63 4.77,1.29 7.58,2.06 -3.71,5.21 -7.28,9.96 -10.59,14.89 -10.72,15.96 -19.77,32.73 -23.57,51.81 -4.41,22.12 3.71,34.31 25.76,39.17 5.08,1.12 10.24,1.75 15.37,0.92 8.02,-1.3 13.4,-6.24 16.99,-13.31 4.68,-9.22 6.31,-19.2 7.06,-29.36 1.05,-14.19 -0.89,-28.22 -2.73,-43.17 5.61,2.45 10.6,4.76 15.68,6.83 35.05,14.26 70.91,18.46 107.79,8.11 11.25,-3.16 21.73,-8.16 31.48,-14.65 13.1,-8.73 26.19,-17.46 39.68,-26.45 0.06,2.62 -1.35,4.16 -2.18,5.86 -9.72,19.77 -21.21,38.7 -28.2,59.78 -6.58,19.84 -10.98,40.06 -10.49,61.06 0.51,21.88 6.55,41.88 20.89,58.94 4.55,5.42 8.77,11.11 13.79,17.49 -9.65,0 -18.25,-0.28 -26.82,0.06 -16.25,0.64 -31.94,3.89 -46.63,11.17 -16.89,8.38 -26.27,22.1 -28.06,40.73 -1.09,11.37 3.24,21.18 10.73,29.62 8.02,9.04 18.23,14.86 29.18,19.55 3.62,1.55 7.21,3.17 11.19,4.93 -11.75,21.59 -18.57,44.23 -20.39,68.42 -1.9,25.27 8.52,46.54 22.34,68.21 -9.61,-1.55 -17.67,-3.08 -25.79,-4.12 -26.8,-3.44 -53.11,-1.91 -78.43,8.5 -11.09,4.56 -20.33,11.89 -29.31,20.07 -23.29,-24.41 -51.06,-39.01 -84.92,-39.9 -21.31,-0.56 -40.92,5.85 -59.2,16.99 -3.02,18.25 -3.71,36.49 -2.15,54.81 0.61,7.14 2,14.14 3.85,21.06 3.87,14.48 12.61,25.48 25.94,35.1 -19.39,18.91 -38.32,37.36 -57.24,55.82 h -1 z m -8.73,-214.9 c 3.06,-114.9 6.13,-229.81 9.13,-342.54 3.16,26.18 0.24,54.7 2.61,83.08 0.83,9.89 0.27,19.85 0.73,29.81 1.58,34.11 2.2,68.27 3.12,102.41 1.12,41.64 2.18,83.27 3.31,124.91 0.02,0.81 -0.59,2.06 1.3,2.48 22.6,-41.34 50.86,-78.8 82.63,-113.52 47.69,-52.14 93.63,-95.82 100.68,-97.05 -0.1,1.53 -1.38,2.23 -2.28,3.14 -6.31,6.32 -12.39,12.85 -18.67,19.19 -14.86,15.02 -28.93,30.85 -42.55,47.04 -28.57,33.95 -55.52,69.09 -77.9,107.5 -7.22,12.39 -13.74,25.19 -20.35,37.92 -2.8,5.39 -4.99,11.09 -7.85,17.55 54.29,-26.27 104.29,-19.3 151.11,15.35 26.86,-17.18 56.39,-22.08 88.04,-21.85 -7.57,-32.35 -2.82,-63.01 8,-93.01 -3.19,-2.08 -5.84,-3.77 -8.45,-5.53 -13.41,-9.06 -23.87,-20.56 -29.74,-35.89 -11.78,-30.74 1.66,-72.75 40.51,-90.22 10.82,-4.87 22.27,-7.42 33.98,-10.52 -17.82,-38.09 -13.62,-76.7 -2.4,-116.22 -36.86,12.46 -73.02,11.19 -108.78,1.5 -1.5,2 -1.15,3.55 -1.24,5.01 -0.69,10.99 -2.44,21.74 -6.16,32.17 -5.95,16.66 -16.51,28.83 -33.88,33.59 -15.77,4.32 -31.16,1.26 -45.74,-5.32 -19.97,-9.02 -30.35,-24.64 -30.59,-46.78 -0.19,-18.13 5.58,-34.68 13.24,-50.74 2.12,-4.44 4.43,-8.79 6.75,-13.38 -44.8,-19.62 -78.45,-50.29 -99.16,-95.55 -20.59,45.26 -54.24,75.96 -98.35,95.24 -0.05,0.86 -0.19,1.24 -0.06,1.5 0.87,1.79 1.77,3.57 2.69,5.33 7.14,13.63 13.07,27.7 15.67,42.98 3.57,21.02 0.15,39.95 -17.32,54.15 -9.82,7.99 -21.57,11.64 -33.91,13.59 -36.21,5.72 -54.83,-17.89 -61.32,-45.2 -2.06,-8.69 -2.82,-17.61 -3.51,-26.7 -36.62,10.22 -72.82,10.85 -109.45,-1.26 11.44,39.36 15.38,77.79 -2.23,116.03 1.97,0.56 3.51,1.12 5.09,1.43 12.83,2.5 24.83,7.19 36.32,13.36 40.8,21.91 53.06,83.73 10.05,116.55 -4.98,3.8 -10.36,7.11 -15.36,11.22 11.15,30.11 15.23,60.69 8.01,92.73 31.64,-0.23 61.5,4.77 88.15,21.77 47.26,-34.5 97.1,-41.65 150.99,-15.32 -10.68,-26.12 -23.69,-49.71 -38.29,-72.44 -35.98,-56 -79.05,-106.21 -125.76,-153.42 -3.19,-3.23 -6.43,-6.4 -9.65,-9.6 0.47,-0.42 0.93,-0.83 1.4,-1.25 72.02,63 138.27,131.07 187.44,214.82 z m 29.45,158.02 c -5.72,-5.87 -8.71,-13.22 -11.08,-20.89 -2.36,-7.62 -4.11,-15.37 -5.28,-23.26 -1.13,-7.64 -2.25,-15.27 -3.37,-22.91 -4.36,23.41 -5.08,47.56 -20.15,67.59 6.66,6.5 13.41,13.07 19.92,19.42 6.27,-6.27 12.93,-12.92 19.97,-19.95 z"
         id="path7" />
      <g
         id="g9">
        <path
           class="cls-2"
           d="m 635.97,371.83 c 10.82,-4.87 22.27,-7.42 33.98,-10.52 -17.82,-38.09 -13.62,-76.7 -2.4,-116.22 -36.86,12.46 -73.02,11.19 -108.78,1.5 -1.5,2 -1.15,3.55 -1.24,5.01 -0.69,10.99 -2.44,21.74 -6.16,32.17 -5.95,16.66 -16.51,28.83 -33.88,33.59 -15.77,4.32 -31.16,1.26 -45.74,-5.32 -19.97,-9.02 -30.35,-24.64 -30.59,-46.78 -0.19,-18.13 5.58,-34.68 13.24,-50.74 2.12,-4.44 4.43,-8.79 6.75,-13.38 -44.8,-19.62 -78.45,-50.29 -99.16,-95.55 -20.59,45.26 -54.24,75.96 -98.35,95.24 -0.05,0.86 -0.19,1.24 -0.06,1.5 0.87,1.79 1.77,3.57 2.69,5.33 7.14,13.63 13.07,27.7 15.67,42.98 3.57,21.02 0.15,39.95 -17.32,54.15 -9.82,7.99 -21.57,11.64 -33.91,13.59 -36.21,5.72 -54.83,-17.89 -61.32,-45.2 -2.06,-8.69 -2.82,-17.61 -3.51,-26.7 -36.62,10.22 -72.82,10.85 -109.45,-1.26 11.44,39.36 15.38,77.79 -2.23,116.03 1.97,0.56 3.51,1.12 5.09,1.43 12.83,2.5 24.83,7.19 36.32,13.36 40.8,21.91 53.06,83.73 10.05,116.55 -4.98,3.8 -10.36,7.11 -15.36,11.22 11.15,30.11 15.23,60.69 8.01,92.73 31.64,-0.23 61.5,4.77 88.15,21.77 47.26,-34.5 97.1,-41.65 150.99,-15.32 -10.68,-26.12 -23.69,-49.71 -38.29,-72.44 -35.98,-56 -79.05,-106.21 -125.76,-153.42 -3.19,-3.23 -6.43,-6.4 -9.65,-9.6 0.47,-0.42 0.93,-0.83 1.4,-1.25 72.02,63 138.27,131.07 187.44,214.82 3.06,-114.9 6.13,-229.81 9.13,-342.54 3.16,26.18 0.24,54.7 2.61,83.08 0.83,9.89 0.27,19.85 0.73,29.81 1.58,34.11 2.2,68.27 3.12,102.41 1.12,41.64 2.18,83.27 3.31,124.91 0.02,0.81 -0.59,2.06 1.3,2.48 22.6,-41.34 50.86,-78.8 82.63,-113.52 47.69,-52.14 93.63,-95.82 100.68,-97.05 -0.1,1.53 -1.38,2.23 -2.28,3.14 -6.31,6.32 -12.39,12.85 -18.67,19.19 -14.86,15.02 -28.93,30.85 -42.55,47.04 -28.57,33.95 -55.52,69.09 -77.9,107.5 -7.22,12.39 -13.74,25.19 -20.35,37.92 -2.8,5.39 -4.99,11.09 -7.85,17.55 54.29,-26.27 104.29,-19.3 151.11,15.35 26.86,-17.18 56.39,-22.08 88.04,-21.85 -7.57,-32.35 -2.82,-63.01 8,-93.01 -3.19,-2.08 -5.84,-3.77 -8.45,-5.53 -13.41,-9.06 -23.87,-20.56 -29.74,-35.89 -11.78,-30.74 1.66,-72.75 40.51,-90.22 z"
           id="path8"
           style="fill:url(#radial-gradient)" />
        <path
           class="cls-3"
           d="m 365.69,694.94 c -1.13,-7.64 -2.25,-15.27 -3.37,-22.91 -4.36,23.41 -5.08,47.56 -20.15,67.59 6.66,6.5 13.41,13.07 19.92,19.42 6.27,-6.27 12.93,-12.92 19.97,-19.95 -5.72,-5.87 -8.71,-13.22 -11.08,-20.89 -2.36,-7.62 -4.11,-15.37 -5.28,-23.26 z"
           id="path9" />
      </g>
    </g>
  </g>
</svg>
