<?xml version="1.0" encoding="UTF-8" standalone="no"?>
<svg
   id="Layer_2"
   data-name="Layer 2"
   viewBox="0 0 572.38757 237.31348"
   version="1.1"
   width="572.38757"
   height="237.31348"
   xmlns="http://www.w3.org/2000/svg"
   xmlns:svg="http://www.w3.org/2000/svg">
  <defs
     id="defs1">
    <style
       id="style1">
      .cls-1 {
        stroke-width: 0px;
      }
    </style>
  </defs>
  <g
     id="Layer_1-2"
     data-name="Layer 1">
    <g
       id="g2">
      <path
         class="cls-1"
         d="m 216.02,113.36 c 12.33,-0.18 29.6,-1.8 36.85,3.54 5.05,3.71 5.88,12.01 3.82,19.43 -1.04,3.86 -2.67,8.26 -5.09,11.46 -4.36,5.77 -12.62,8.62 -19.5,9.7 -2.16,0.32 -25.74,0.15 -25.78,0.36 3.25,-14.81 6.49,-29.68 9.7,-44.49 m 356.12,20.98 C 566.26,90.61 525.44,73.23 489.49,59.2 463.03,48.89 425.94,40.9 399.74,38.53 365.97,35.38 285.16,25.95 200.34,46.84 c -29.82,7.61 -55.57,17.78 -79.83,30.07 5.7,-11.83 11.39,-23.62 17.09,-35.37 4.11,-7.28 8.25,-14.54 12.37,-21.82 -4.65,3.04 -7.94,10.78 -11.18,15.33 -12.01,16.8 -23.98,33.6 -35.95,50.37 -0.11,0.18 -0.21,0.4 -0.32,0.57 C 96.82,66.77 91.13,47.52 85.46,28.26 83.01,18.85 80.52,9.4 78.07,0 82.3,28.15 89,58.48 89.58,88.94 84.17,86.38 78.76,83.86 73.35,81.3 62.35,75.72 51.57,70.31 41.26,64.21 34.09,59.99 26.92,55.77 19.77,51.56 c -0.32,-0.11 -0.61,-0.22 -0.9,-0.33 6.17,4.62 12.37,9.23 18.53,13.85 8.76,6.9 17.53,13.78 26.25,20.63 6.17,5.05 12.37,10.02 18.53,15.04 -6.45,2.05 -12.95,4.14 -19.44,6.2 -20.69,6.38 -41.43,12.76 -62.16,19.14 -0.18,0.11 -0.4,0.18 -0.58,0.29 27.4,-3.03 54.34,-11.82 85.13,-12.08 v 0.33 C 72.91,139.58 62.38,164.7 48.89,188.25 v 0.29 h 0.3 c 9.05,-13.12 18.06,-26.32 27.11,-39.48 6.28,-8.61 12.58,-17.27 18.86,-25.93 0.4,-0.29 0.79,-0.57 1.19,-0.86 8.44,18.35 12.58,40.88 18.28,61.29 1.95,8.04 3.93,16.09 5.88,24.17 v 0.54 h 0.29 c -1.65,-10.85 -3.31,-21.77 -5.01,-32.7 -1.37,-11.25 -2.73,-22.57 -4.11,-33.86 -0.79,-7.57 -1.59,-15.1 -2.34,-22.68 21.42,8.94 40.21,19.8 59.2,30.94 -2.27,10.02 -4.54,20.05 -6.78,30.04 v 0.9 h 55.38 c 16.84,0 34.11,0.62 46.26,-4.14 15.06,-5.88 23.54,-16.08 29.45,-31.23 3.25,-8.25 7.14,-21.85 4.43,-33.56 -2.05,-8.77 -7.53,-14.79 -15.03,-18 -11.08,-4.72 -27.84,-3.82 -43.6,-3.82 h -56.57 c -4.33,19.48 -8.66,38.91 -12.98,58.35 h -0.3 c -12.15,-7.9 -22.89,-17.74 -34.18,-26.5 -5.62,-4.4 -12.69,-8.84 -17.09,-14.46 19.43,-6.2 38.91,-12.37 58.34,-18.57 4.94,-1.55 12.51,-3.92 22.97,-7.36 -11.77,2.07 -19.6,3.19 -29.82,4.94 -9.23,1.3 -18.09,3.21 -27.32,4.47 v -0.25 c 6.56,-3.29 13.16,-6.49 19.76,-9.77 13.62,-5.88 28.19,-10.67 43.01,-15.29 70.52,-22 191.1,-30.11 267.5,-7.39 33.39,9.95 77.13,23.55 83.4,59.53 2.24,12.91 -4.68,22.94 -9.44,29.46 -13.99,19.25 -35.8,31.4 -58.92,41.54 -69.79,31.45 -188.52,40.31 -258.96,33.6 -24.38,-1.96 -43.09,-6.27 -62.48,-12.37 -11.14,-3.49 -26.65,-11.17 -38.3,-12.36 4.04,3.17 9.74,4.86 14.75,7.02 14.49,6.31 29.64,11 46.23,15.94 92.3,27.58 233.32,19.39 311.74,-13.85 24.77,-10.53 47.53,-22.64 62.17,-43.3 4.58,-6.5 11.61,-17.32 9.99,-29.18 M 447.25,89.85 c -6.78,30.25 -13.56,60.51 -20.34,90.72 h 38.3 c 6.78,-30.21 13.56,-60.47 20.33,-90.72 z m -59.54,55.38 c -4.83,12.77 -42.76,17.92 -45.97,0.61 -2.85,-15.61 9.7,-29.06 20.62,-31.84 12.44,-3.14 29.43,-1.29 28.01,11.8 h 43.31 c 0.5,-23.81 -10.31,-31.09 -30.32,-34.8 0,0 -37.75,-2.16 -50.08,-0.15 -27.16,4.51 -42.37,15.43 -49.83,39.96 -1.73,5.73 -4.25,13.91 -2.92,22.06 4.26,26.76 28.56,27.69 59.49,27.69 13.92,0 27.84,0.15 38.62,-3.2 15.25,-4.8 24.8,-17.81 30.64,-32.13 z"
         id="path1" />
      <path
         class="cls-1"
         d="m 201.23,50.41 v 0 c -27.51,7.02 -53.4,16.8 -79.03,29.78 v 0 l -9.74,4.94 4.73,-9.84 5.47,-11.29 -16.84,23.58 -4.69,6.74 -2.16,-7.25 -7.75,-26.18 c 1.08,9.23 1.84,18.61 2.02,27.99 v 0 l 0.11,5.94 -5.37,-2.52 -6.56,-3.1 -9.77,-4.62 -2.34,-1.19 c -2.52,-1.3 -5.05,-2.57 -7.53,-3.86 v 0 l 4.18,3.31 18.57,15.04 5.34,4.29 -6.56,2.1 -9.7,3.06 -9.77,3.1 -9.13,2.81 c 9.81,-1.48 19.87,-2.52 30.4,-2.63 v 0 l 5.99,0.25 -2.64,5.37 c -3.96,8.05 -7.71,16.12 -11.5,24.2 v 0 c -0.61,1.29 -1.22,2.63 -1.84,3.96 v 0 l 7.64,-10.46 9.41,-12.98 1.01,-0.93 0.4,-0.33 4.22,-3.1 1.91,4.12 c 3.42,7.5 6.17,15.65 8.58,24.01 v 0 l -0.32,-2.67 -1.15,-11.32 -1.15,-11.36 -0.62,-6.17 5.7,2.38 c 8.4,3.54 16.44,7.32 24.29,11.36 v 0 c -0.86,-0.69 -1.76,-1.41 -2.67,-2.06 v 0 c -1.33,-1.08 -2.78,-2.13 -4.26,-3.21 v 0 c -4.83,-3.56 -9.84,-7.25 -13.49,-11.9 v 0 l -3.24,-4.18 5.05,-1.62 31.95,-10.13 -6.17,0.82 -22.28,2.7 20.37,-10.09 19.68,-9.7 c 14.03,-6.06 29.14,-10.99 43.38,-15.43 v 0 C 245.79,48.94 304.5,41.05 360.41,41.05 v 0 c 15.62,0 30.62,0.61 44.82,1.8 v 0 c 0,0 -2.22,-0.61 -4.87,-0.9 -27.02,-2.99 -112.7,-13.51 -199.14,8.44 z m 248.97,43.15 -18.68,83.33 h 30.73 l 8.22,-36.75 10.46,-46.59 c 0,0 -30.72,0 -30.72,0 z m -96.31,0.94 c -26.93,4.47 -40.09,14.93 -46.95,37.47 v 0 c -1.65,5.51 -3.96,13.09 -2.77,20.33 v 0 c 3.64,22.97 23.54,24.59 55.84,24.59 h 2.7 c 11.69,0 24.95,0 34.84,-3.06 v 0 c 10.88,-3.42 19.61,-11.8 26.03,-24.92 h -33.64 c -4.91,7.62 -17.93,11.69 -28.82,11.69 v 0 c -12.76,0 -21.41,-5.26 -23.04,-14.09 v 0 c -3.1,-16.98 9.85,-32.67 23.37,-36.05 v 0 c 3.75,-0.94 7.72,-1.49 11.5,-1.49 v 0 c 7.93,0 14.24,2.21 17.81,6.17 v 0 c 1.74,1.95 2.82,4.29 3.18,6.96 h 35.99 c -0.58,-18.93 -9.81,-24.23 -26.8,-27.4 v 0 c -0.18,0 -17.56,-1.01 -32.34,-1.01 v 0 c -7.89,0 -13.62,0.29 -16.91,0.83 m -108.52,-0.7 -6.7,0.04 h -53.62 l -12.33,55.45 -1.22,4.33 -5.34,23.55 h 50.99 l 5.22,0.04 h 5.23 c 12.37,0 25.24,-0.29 34.47,-3.9 v 0 c 13.2,-5.16 21.38,-13.88 27.37,-29.13 v 0 c 2.7,-6.89 6.85,-20.16 4.26,-31.41 v 0 c -1.7,-7.17 -6.13,-12.51 -12.88,-15.42 v 0 C 273.45,94.23 262.61,93.8 252,93.8 v 0 l -6.64,0.04 v 0 z m -42.69,63.23 8.3,-37.72 1.44,-6.78 0.65,-2.85 2.93,-0.04 c 1.98,-0.03 4.11,-0.1 6.34,-0.14 v 0 c 3.21,-0.11 6.56,-0.22 9.85,-0.22 v 0 c 11.65,0 18.5,1.38 22.89,4.62 v 0 c 5.92,4.29 7.94,13.52 5.2,23.41 v 0 c -1.48,5.34 -3.42,9.63 -5.73,12.69 v 0 c -5.7,7.61 -16.15,10.2 -21.86,11.1 v 0 c -1.29,0.21 -6.02,0.25 -15.76,0.25 v 0 c -4.83,0.04 -9.23,0.04 -10.13,0.11 v 0 l -5.16,0.47 1.04,-4.91 v 0 z m 356.31,-39.83 c 2.59,14.89 -5.66,26.18 -10.06,32.23 v 0 c -15.36,21.09 -39.16,33.46 -60.43,42.8 v 0 c -58.55,29.57 -163.52,35.91 -163.52,35.91 l -6.78,0.26 c -46.4,2.7 -90.5,-2.31 -90.5,-2.31 27.69,4.94 58.59,7.46 91.26,7.46 v 0 c 67.9,0 134.99,-11.24 179.6,-30.14 v 0 c 22.86,-9.7 46.04,-21.53 60.62,-42.08 v 0 c 3.2,-4.58 10.85,-15.36 9.29,-26.5 v 0 c -1.84,-13.81 -7.28,-24.77 -15.32,-33.93 v 0 c 2.82,4.91 4.84,10.31 5.84,16.3"
         id="path2" />
    </g>
  </g>
</svg>
