<svg xmlns="http://www.w3.org/2000/svg" xml:space="preserve" width="258.8" height="298.8" viewBox="0 0 258.8 298.8"><g transform="translate(-33.3 -26.8)"><path d="m162.7 26.8 129.4 74.7v149.4l-129.4 74.7-129.4-74.7V101.5Z"/><linearGradient id="a" x1="58.135" x2="267.258" y1="88.109" y2="263.584" gradientTransform="matrix(1 0 0 -1 0 352)" gradientUnits="userSpaceOnUse"><stop offset="0" style="stop-color:#bb2c26"/><stop offset=".01" style="stop-color:#bd2f26"/><stop offset=".137" style="stop-color:#d05724"/><stop offset=".238" style="stop-color:#dc6f23"/><stop offset=".3" style="stop-color:#e07823"/><stop offset=".305" style="stop-color:#e17a23"/><stop offset=".362" style="stop-color:#ee8b1f"/><stop offset=".423" style="stop-color:#f5951e"/><stop offset=".5" style="stop-color:#f7981d"/><stop offset=".577" style="stop-color:#f5951e"/><stop offset=".638" style="stop-color:#ee8b1f"/><stop offset=".695" style="stop-color:#e17a23"/><stop offset=".7" style="stop-color:#e07823"/><stop offset=".762" style="stop-color:#dc6f23"/><stop offset=".863" style="stop-color:#d05724"/><stop offset=".99" style="stop-color:#bd2f26"/><stop offset="1" style="stop-color:#bb2c26"/></linearGradient><path d="m42.7 245.5 120 69.3 120-69.3V106.9l-120-69.3-120 69.3z" style="fill:url(#a)"/><path d="M144 116.5c-8-25.9 5.4-47.7 5.4-47.7s-1.5 14 8.4 26.8c9.9 12.9 32.6 31.1 45.3 44.5s20.7 25.7 20.7 25.7c-.7-19-39.1-51.2-43.8-55.7s-8.6-7.8-8.6-17.5 5-17.1 5-17.1c-.2 3.5.4 14.5 9.1 26.1 8.8 11.6 39.5 38.9 49.4 48.6s11.7 27.1 11.7 30.4c0 3.2-.7 8.7-.7 8.7 12.7-.1 9.7 12.7 9.7 12.7 11.7-5.3 15-16.1 15-16.1 5.6 37.3-22.7 50.7-22.7 50.7 4.6-24-21-24.7-24.2-24.7s-8.6.9-8.6.9c9.4-14.9-10.6-20.9-27.8-20.9-17.3 0-23.8 6.8-23.8 6.8 16.1-1.4 22.1 3.5 22.1 3.5s-7.5 6-7.5 13.8c0 11.6 13.8 8.4 13.8 8.4s-5 3.5-5 8.4c0 10.6 14 7 14 7-6.6 11.6 2.9 14.2 9.3 14.2s13-3.8 13-3.8c-16.6 37.3-72.2 30.1-72.2 30.1 26-7.9 24.8-24.3 24.8-24.3-4.1 5.3-11.4 3.4-11.4 3.4s6.3-5.2 6.3-14.8c0-14.3-15.4-33.2-41.9-33.2-5.2 0-15.1 1.5-15.1 1.5 13.7-22.6 40.7-29.4 40.7-29.4-6.6-6.6-21.7-7.3-21.7-7.3 14.8-11.1 41-12.7 41-12.7-44.5-9.4-66.2 19.2-66.2 19.2 11.2-.4 17.6 3.4 17.6 3.4-27.3 6.2-44.1 26.2-44.1 26.2s3.7-20-4.8-29.4c-8.6-9.4-25.5-7.1-25.5-7.1 23.6-23.7 40.9-21.5 40.9-31.3 0-14-17.8-21.9-17.8-21.9 18.4-5 31.5 2 31.5 2-9.7-8.7-7.9-33-7.9-33 18.5 24.8 26.7 24.5 45.2 35.3 18.9 10.9 26.6 22.9 26.6 22.9-1.4-15.2-25.2-33.3-25.2-33.3m65.1 66c4.8 4 12.8 2.2 12.8 2.2-2.2-12.4-14.4-22.1-18.5-24.8s-6.5-1.9-6.5-1.9c-3.7 9 7.3 20.5 12.2 24.5"/></g></svg>