<svg xmlns="http://www.w3.org/2000/svg" xml:space="preserve" width="272.799" height="314.999" viewBox="37 0 272.799 314.999"><g transform="translate(-27.229 -18.653)"><path d="m200.628 18.653 136.4 78.752v157.498l-136.4 78.749-136.399-78.749V97.405Z"/><linearGradient id="a" x1="92.355" x2="308.903" y1="267.007" y2="85.302" gradientUnits="userSpaceOnUse"><stop offset="0" style="stop-color:#626e77"/><stop offset=".007" style="stop-color:#647079"/><stop offset=".135" style="stop-color:#8496a1"/><stop offset=".237" style="stop-color:#99adb9"/><stop offset=".3" style="stop-color:#a0b6c2"/><stop offset=".303" style="stop-color:#a1b7c3"/><stop offset=".36" style="stop-color:#adc6d4"/><stop offset=".422" style="stop-color:#b5cede"/><stop offset=".5" style="stop-color:#b7d1e1"/><stop offset=".578" style="stop-color:#b5cede"/><stop offset=".64" style="stop-color:#adc6d4"/><stop offset=".697" style="stop-color:#a1b7c3"/><stop offset=".7" style="stop-color:#a0b6c2"/><stop offset=".763" style="stop-color:#99adb9"/><stop offset=".865" style="stop-color:#8496a1"/><stop offset=".993" style="stop-color:#647079"/><stop offset="1" style="stop-color:#626e77"/></linearGradient><path fill="url(#a)" d="m76.334 247.914 124.294 71.761 124.295-71.761v-143.52L200.628 32.631 76.334 104.394Z" style="fill:url(#a)"/><path d="M181.275 114.424c-8.294-26.815 5.594-49.383 5.594-49.383s-1.543 14.465 8.681 27.777c10.226 13.312 33.761 32.215 46.876 46.106 13.118 13.889 21.415 26.619 21.415 26.619-.773-19.677-40.513-53.048-45.336-57.678-4.821-4.629-8.871-8.103-8.871-18.135 0-10.03 5.206-17.747 5.206-17.747-.193 3.667.388 15.047 9.453 27.009s40.896 40.315 51.119 50.348c10.226 10.033 12.092 28.102 12.092 31.444 0 3.344-.773 9.004-.773 9.004 13.118-.13 10.032 13.115 10.032 13.115 12.087-5.53 15.561-16.719 15.561-16.719 5.788 38.583-23.536 52.472-23.536 52.472 4.76-24.822-21.731-25.593-25.077-25.593s-8.873.901-8.873.901c9.774-15.433-10.931-21.606-28.809-21.606-17.875 0-24.691 7.072-24.691 7.072 16.719-1.414 22.893 3.604 22.893 3.604s-7.716 6.171-7.716 14.273c0 11.962 14.274 8.746 14.274 8.746s-5.145 3.599-5.145 8.744c0 10.933 14.534 7.201 14.534 7.201-6.819 11.96 2.955 14.66 9.642 14.66 6.689 0 13.439-3.921 13.439-3.921-17.166 38.581-74.781 31.187-74.781 31.187 26.877-8.232 25.719-25.204 25.719-25.204-4.242 5.528-11.832 3.471-11.832 3.471s6.56-5.4 6.56-15.305c0-14.789-15.947-34.339-43.34-34.339-5.401 0-15.688 1.547-15.688 1.547 14.146-23.408 42.181-30.482 42.181-30.482-6.816-6.814-22.505-7.585-22.505-7.585 15.304-11.446 42.44-13.118 42.44-13.118-46.042-9.775-68.547 19.932-68.547 19.932 11.575-.386 18.262 3.471 18.262 3.471-28.293 6.559-45.655 27.267-45.655 27.267s3.859-20.708-5.015-30.479c-8.874-9.775-26.363-7.332-26.363-7.332 24.434-24.562 42.31-22.247 42.31-32.407 0-14.532-18.391-22.634-18.391-22.634 19.034-5.145 32.666 2.059 32.666 2.059-10.031-9.003-8.23-34.211-8.23-34.211 19.163 25.723 27.604 25.406 46.812 36.523 19.548 11.318 27.522 23.663 27.522 23.663-1.482-15.625-26.109-34.337-26.109-34.337m67.391 68.289c5.012 4.114 13.245 2.313 13.245 2.313-2.317-12.858-14.92-22.89-19.161-25.72-4.247-2.828-6.689-1.929-6.689-1.929-3.859 9.258 7.587 21.222 12.605 25.336"/></g></svg>