<svg xmlns="http://www.w3.org/2000/svg" id="Layer_2" width="189.473" height="248.366" viewBox="0 0 189.473 248.366"><defs><style>.cls-1{fill:#fff}</style></defs><g id="TRC_Rarities"><g id="C"><path d="M0 54.871C11.433 125.5 43.79 191.864 94.881 233.132c49.957-39.31 86.396-112.043 94.592-178.335C144.344 38.79 95.668 23.04 95.668 23.04S28.7 43.84 0 54.87" class="cls-1"/><path d="M94.76 222.504C72.216 204.687 22.48 144.788 9.052 59.983 31.204 50.425 94.76 31.839 94.76 31.839s60.542 19.171 85.054 27.787c-8.122 73.043-54.22 138.165-85.054 162.878"/><path d="M25.077 244.317C31.845 111.915 64.48 35.695 97.955 0c53.012 77.256 68.086 153.207 75.293 248.366-14.524-31.5-43.278-101.695-56.354-100.756-8.829.634-40.817 23.67-91.817 96.707" class="cls-1"/><path d="M36.175 214.463C41.882 100.61 79.643 35.78 97.935 14.561c17.123 30.293 53.484 89.232 62.264 184.5-12.366-23.524-27.983-57.868-41.024-59.075-19.392 2.25-54.317 34.819-83 74.477"/></g></g></svg>