<svg xmlns="http://www.w3.org/2000/svg" viewBox="0 0 189.5 248.4"><path d="M0 54.9c11.4 70.6 43.8 137 94.9 178.3 50-39.3 86.4-112 94.6-178.3-45.1-16-93.8-31.8-93.8-31.8S28.7 43.9 0 54.9"/><path d="M94.8 222.5C72.2 204.7 22.5 144.8 9.1 60c22.2-9.6 85.7-28.1 85.7-28.1s60.5 19.2 85.1 27.8c-8.1 73-54.2 138.2-85.1 162.9Z" style="fill:red"/><path d="M25.1 244.3C31.8 111.9 64.5 35.7 98 0c53 77.3 68.1 153.2 75.3 248.4-14.5-31.5-43.3-101.7-56.4-100.8-8.8.6-40.8 23.7-91.8 96.7"/><path d="M36.2 214.5C41.9 100.6 79.6 35.8 97.9 14.6c17.1 30.3 53.5 89.2 62.3 184.5-12.4-23.5-28-57.9-41-59.1-19.4 2.2-54.3 34.8-83 74.5" style="fill:#fff"/></svg>