<svg xmlns="http://www.w3.org/2000/svg" width="189.473" height="248.366" viewBox="0 0 189.473 248.366"><path d="M160.38 149.06c14.984-30.046 25.212-62.872 29.093-94.263-26.612-9.44-54.444-18.784-72.813-24.867A407 407 0 0 0 97.955 0c-7.249 7.73-14.458 17.363-21.374 29.052C54.558 36.054 18.95 47.59 0 54.872c5.902 36.462 17.409 71.766 34.166 103.088-4.303 25.655-7.453 54.36-9.089 86.357 12.963-18.564 24.695-33.891 35.133-46.448 10.374 13.094 21.929 24.97 34.671 35.263 17.61-13.857 33.522-31.882 47.125-52.3 11.424 22.276 23.405 50.536 31.242 67.534-2.682-35.41-6.458-68.158-12.868-99.305m19.434-89.434c-3.032 27.27-11.366 53.426-22.215 76.797-7.723-33.16-18.771-64.626-35.078-95.716 19.246 6.189 43.759 14.162 57.293 18.919m-170.762.357c13.31-5.743 41.566-14.744 62.003-21.016-13.727 26.096-25.95 60.91-34.525 105.792-12.07-24.058-22.387-52.62-27.478-84.776m27.123 154.48c.808-16.128 2.261-31.27 4.21-45.447a485 485 0 0 1 1.057-7.26c.303-1.983.613-3.953.935-5.896 9.387-56.646 26.627-96.488 41.06-120.653q.852-1.429 1.693-2.785l.083-.134a186 186 0 0 1 3.239-5.044l.148-.221c.515-.771 1.025-1.524 1.527-2.25 2.847-4.114 5.485-7.517 7.809-10.212 1.923 3.402 4.098 7.186 6.44 11.32q.7 1.236 1.418 2.516l.126.224q2.195 3.902 4.547 8.218c13.825 25.41 31.112 61.7 41.774 110.539.41 1.88.808 3.785 1.197 5.704l.159.78q.595 2.958 1.158 5.973a429 429 0 0 1 5.444 39.226c-4.81-9.152-10.115-19.938-15.567-29.777l-.108-.195c-8.529-15.366-17.415-28.369-25.35-29.103-14.746 1.71-38.476 20.965-61.613 47.529q-.003 0-.004.004a360 360 0 0 0-2.793 3.245l-.001.001a386 386 0 0 0-18.588 23.698m58.585 8.041c-7.485-5.916-17.97-16.484-29.126-31.05 27.509-31.949 45.073-43.4 51.26-43.844 5.11-.367 12.615 10.13 20.729 24.936-14.359 22.145-29.947 39.606-42.863 49.958"/></svg>