<svg xmlns="http://www.w3.org/2000/svg" width="600" height="640.324"><path d="M0 250.88c0 69.602 47.224 136.756 75.046 165.459 22.507 23.132 56.397 45.527 90.67 59.838 24.572 10.325 66.226 43.894 79.784 59.278 39.284 44.279 54.54 104.87 54.54 104.87s17-61.904 54.524-104.87c13.446-15.432 55.212-48.953 79.72-59.278 34.337-14.311 68.227-36.706 90.67-59.838C552.856 387.636 600 320.482 600 250.879c0-93.615-60.59-127.697-60.59-127.697s-24.077 42.534-70.484 42.534c-21.26 0-44.583-7.94-69.22-23.708-50.265-32.016-71.844-75.35-77.911-88.845C310.109 27.022 299.976 0 299.976 0s-8.388 25.885-22.075 53.9c-6.884 14.134-28.206 56.652-77.543 88.108-24.701 15.768-47.96 23.708-69.22 23.708-38.21 0-70.531-42.534-70.531-42.534S0 158.576 0 250.88" style="fill:gray"/><path d="M114.186 185.47c-22.764-3.874-41.637-15.624-55.772-32.208 0 0-37.14 32.592-37.14 97.617 0 26.27 7.557 52.09 18.122 75.094 52.475-36.883 79.24-87.292 74.79-140.503m273.45-25.95C320.482 116.38 300.04 55.837 300.04 55.837s-20.458 60.543-87.676 103.685c79.976 92.607 69.603 249.694.817 320.098 20.57 14.44 40.26 31.584 49.016 42.71 14.584 18.57 26.526 35.137 37.844 64.352 11.253-29.215 23.195-45.783 37.827-64.352 8.884-11.318 29.07-28.767 50.025-43.398-69.731-69.908-80.537-226.355-.256-319.41m62.224 25.709c-8.565-1.44-17.577-3.954-26.894-7.508-74.79 68.21-70.036 219.92 1.073 279.822.688-.305 1.377-.625 2.065-.929 28.575-11.942 61.087-31.84 83.659-55.1 8.756-8.996 21.082-23.884 32.896-42.517-74.598-49.833-103.924-102.868-92.799-173.768m91.727-31.968c-14.055 16.584-32.945 28.27-55.645 32.208-4.882 53.771 21.387 103.172 74.79 140.327 10.502-22.956 18.01-48.713 18.01-74.918 0-65.025-37.155-97.617-37.155-97.617m-367.37 303.465c-.064 0-.177-.05-.305-.115-28.527-11.942-61.04-31.84-83.61-55.1-8.95-9.188-21.628-24.572-33.698-43.766 73.35-49.529 104.485-102.18 93.6-172.52 8.564-1.44 17.577-3.953 26.893-7.507 74.342 67.906 67.475 218.67-2.881 279.005"/></svg>