<svg xmlns="http://www.w3.org/2000/svg" xmlns:xlink="http://www.w3.org/1999/xlink" width="600" height="640.393"><linearGradient id="a" x1="0" x2="1" y1="0" y2="0" gradientTransform="matrix(34.82617 0 0 -34.82617 412.477 34.814)" gradientUnits="userSpaceOnUse" spreadMethod="pad"><stop offset="0" style="stop-color:#8b723c"/><stop offset=".1" style="stop-color:#ebd491"/><stop offset=".2" style="stop-color:#8b723c"/><stop offset=".3" style="stop-color:#ebd491"/><stop offset=".4" style="stop-color:#8b723c"/><stop offset=".5" style="stop-color:#ebd491"/><stop offset=".6" style="stop-color:#8b723c"/><stop offset=".7" style="stop-color:#ebd491"/><stop offset=".8" style="stop-color:#8b723c"/><stop offset=".9" style="stop-color:#ebd491"/><stop offset="1" style="stop-color:#8b723c"/></linearGradient><linearGradient xlink:href="#a" id="b" x1="0" x2="1" y1="0" y2="0" gradientTransform="translate(21.206 321.294)scale(557.56072)" gradientUnits="userSpaceOnUse" spreadMethod="pad"/><path d="M0 250.906c0 69.61 47.1 136.772 74.99 165.477 22.51 23.135 56.403 45.532 90.68 59.845 24.575 10.326 66.168 43.899 79.793 59.284 39.288 44.284 54.545 104.88 54.545 104.88s17.002-61.91 54.53-104.88c13.448-15.433 55.217-48.958 79.792-59.284 34.277-14.313 68.17-36.71 90.68-59.845C552.851 387.678 600 320.517 600 250.906c0-93.626-60.597-127.71-60.597-127.71s-24.079 42.538-70.491 42.538c-21.261 0-44.588-7.941-69.227-23.71-50.27-32.02-71.852-75.36-77.856-88.855C310.08 27.025 299.944 0 299.944 0s-8.39 25.888-22.078 53.905c-6.884 14.137-28.209 56.659-77.551 88.118-24.64 15.77-47.966 23.71-69.227 23.71-38.215 0-70.539-42.537-70.539-42.537S0 158.593 0 250.906"/><path d="M212.322 159.538c79.921 92.617 69.61 249.721.88 320.132 20.51 14.441 40.201 31.588 48.959 42.714 14.633 18.572 26.592 35.142 37.847 64.36 11.255-29.218 23.198-45.788 37.831-64.36 8.886-11.319 29.074-28.77 50.03-43.402-69.738-69.915-80.545-226.38-.255-319.444-67.161-43.147-87.606-103.696-87.606-103.696s-20.525 60.55-87.686 103.696M485.93 185.49c-4.883 53.777 21.39 103.183 74.798 140.342 10.502-22.958 18.075-48.718 18.075-74.926 0-65.032-37.223-97.628-37.223-97.628-14.056 16.586-32.948 28.273-55.65 32.212M21.213 250.906c0 26.272 7.62 52.096 18.123 75.102 52.48-36.887 79.249-87.302 74.798-140.518-22.766-3.875-41.642-15.626-55.714-32.212 0 0-37.207 32.596-37.207 97.628M424.02 457.593c.688-.305 1.44-.625 2.065-.929 28.578-11.943 61.094-31.843 83.668-55.106 8.693-8.997 21.085-23.886 32.9-42.522-74.67-49.838-103.936-102.879-92.81-173.786-8.564-1.441-17.578-3.955-26.896-7.509-74.797 68.218-70.043 219.943 1.073 279.852M150.092 185.25c11.015 70.283-20.188 123.003-93.545 172.537 12.071 19.196 24.75 34.582 33.7 43.771 22.574 23.263 55.09 43.163 83.62 55.106.128.064.176.112.304.112 70.363-60.342 77.231-211.122 2.882-279.036-9.318 3.555-18.332 6.068-26.96 7.509" style="fill:url(#b)"/></svg>