<svg xmlns="http://www.w3.org/2000/svg" width="557.468" height="530.845"><path d="M92.911 129.634C70.148 125.76 51.274 114.01 37.14 97.425c0 0-37.139 32.593-37.139 97.618 0 26.27 7.556 52.09 18.121 75.094 52.475-36.883 79.24-87.292 74.79-140.503m273.45-25.95C299.209 60.544 278.766 0 278.766 0s-20.458 60.543-87.676 103.685c79.976 92.606 69.603 249.694.817 320.098 20.57 14.439 40.26 31.584 49.017 42.71 14.583 18.569 26.525 35.137 37.843 64.352 11.254-29.215 23.196-45.783 37.827-64.353 8.885-11.317 29.07-28.766 50.025-43.398-69.73-69.907-80.536-226.354-.256-319.41m62.224 25.71c-8.565-1.441-17.577-3.954-26.894-7.508-74.79 68.21-70.035 219.92 1.073 279.822.688-.305 1.377-.625 2.065-.929 28.575-11.942 61.087-31.84 83.659-55.1 8.756-8.996 21.082-23.884 32.896-42.517-74.597-49.834-103.924-102.869-92.799-173.768m91.727-31.969c-14.055 16.585-32.945 28.27-55.644 32.209-4.883 53.77 21.387 103.172 74.79 140.327 10.5-22.956 18.009-48.713 18.009-74.918 0-65.025-37.155-97.618-37.155-97.618m-367.37 303.466c-.064 0-.177-.051-.305-.115-28.526-11.942-61.039-31.84-83.61-55.1-8.949-9.189-21.627-24.573-33.697-43.766 73.349-49.53 104.484-102.18 93.599-172.52 8.564-1.44 17.577-3.954 26.894-7.507 74.341 67.906 67.474 218.67-2.882 279.005"/></svg>