<?xml version="1.0" encoding="UTF-8" standalone="no"?>
<svg
   version="1.1"
   width="600"
   height="946.07379"
   id="svg6"
   xmlns="http://www.w3.org/2000/svg"
   xmlns:svg="http://www.w3.org/2000/svg">
  <defs
     id="defs6" />
  <linearGradient
     x1="0"
     y1="0"
     x2="1"
     y2="0"
     id="linearGradient428"
     gradientUnits="userSpaceOnUse"
     gradientTransform="matrix(22.042969,0,0,-22.042969,208.22852,259.32031)"
     spreadMethod="pad">
    <stop
       style="stop-color:#bf331c"
       offset="0"
       id="stop1" />
    <stop
       style="stop-color:#d3641c"
       offset="0.3"
       id="stop2" />
    <stop
       style="stop-color:#f6b91d"
       offset="0.5"
       id="stop3" />
    <stop
       style="stop-color:#d3641c"
       offset="0.7"
       id="stop4" />
    <stop
       style="stop-color:#bf331c"
       offset="1"
       id="stop5" />
  </linearGradient>
  <path
     d="m 257.21854,462.13339 c 0,-18.37748 14.97162,-33.25449 33.27815,-33.25449 18.37748,0 33.3491,14.87701 33.3491,33.25449 0,18.40114 -14.97162,33.37276 -33.3491,33.37276 -18.30653,0 -33.27815,-14.97162 -33.27815,-33.37276 M 471.00757,364.12015 V 318.28287 H 401.63671 C 395.1561,293.25922 326.06906,31.97729 324.76821,25.96972 323.46831,19.96215 310.71902,0 288.7228,0 h -0.17029 c -17.73889,0.0946 -33.27815,13.22138 -37.32261,29.30463 -3.97351,16.15421 -60.8089,242.9754 -72.16178,288.97824 h -47.11448 v 49.52697 H 0 V 946.07379 H 600 V 364.12015 H 471.00284 Z"
     id="path5" />
  <g
     transform="matrix(23.651845,0,0,-23.651845,-4885.6623,6606.0785)"
     id="g6">
    <path
       d="m 215.438,264.184 h -1.629 v -6.434 h -2.633 v 4.34 h -2.946 v -21.121 h 22.04 v 21.277 h -3.204 v -2.25 h -2.246 v 4.188 h -2.558 l -3.489,13.488 z m 0.531,-4.418 c 0,1.589 1.289,2.879 2.879,2.879 v 0 c 1.593,0 2.882,-1.29 2.882,-2.879 v 0 c 0,-1.594 -1.289,-2.883 -2.882,-2.883 v 0 c -1.59,0 -2.879,1.289 -2.879,2.883"
       style="fill:url(#linearGradient428)"
       id="path6" />
  </g>
</svg>
