<svg xmlns="http://www.w3.org/2000/svg" width="633.77" height="499.999"><defs><linearGradient id="a" x1="45.977" x2="45.977" y1="2.349" y2="48.281" gradientTransform="translate(0 -1.57)scale(9.9998)" gradientUnits="userSpaceOnUse"><stop offset="0" style="stop-color:#8b723c"/><stop offset=".3" style="stop-color:#d2bb7b"/><stop offset=".5" style="stop-color:#ebd491"/><stop offset=".7" style="stop-color:#d2bb7b"/><stop offset="1" style="stop-color:#8b723c"/></linearGradient><linearGradient id="b" x1="22.654" x2="22.654" y1="466.75" y2="511.76" gradientTransform="matrix(9.9998 0 0 -9.9998 -83.597 5148.8)" gradientUnits="userSpaceOnUse"><stop offset="0" style="stop-color:#8b723c"/><stop offset=".3" style="stop-color:#d2bb7b"/><stop offset=".5" style="stop-color:#ebd491"/><stop offset=".7" style="stop-color:#d2bb7b"/><stop offset="1" style="stop-color:#8b723c"/></linearGradient></defs><path d="M361.3 0c59.29 107.27 50.14 178.16 30.11 206.67l-40.37-100.94c-18.95-44.781-20.93-42.241-31.71-42.241h-17.97c23.54 126.261 18.17 213.001 1.07 314.321l121.1-78.65c-11.14 46.25-49.81 86.08-117.52 81.66V499.1c157.61 10.02 292.72-162.01 216.39-339.9 14.7-28.08 52.83-18.54 111.37 1.73C600.24 62.449 489.49 12.79 361.3 0M7.54 14.53 0 232.06l100.74-104.69C2.54 229.32 41.139 502.59 284.51 499.98v-119.1c-119.87 7.11-148.04-125.05-92.87-183.82v.3l52.75 41.21V82.399L166.32 14.53Z" style="stroke-width:9.99983"/><path fill="url(#a)" d="M391.77 21.92c40.14 86.64 49.1 170.53-5.3 215.87L321.99 83.639c16.86 88.301 15.04 180.901 4.67 255.741l126.59-82.8c-11.59 74.53-48.19 139.55-130.5 141.84v82.8c165.86.7 247.81-193.38 181.29-319.95 9.13-38.88 50.09-42.28 93.49-31.28-34.01-59.571-123.41-95.911-205.76-108.07" style="fill:url(#a);stroke-width:9.99983"/><path fill="url(#b)" d="M23.18 31.359 18.41 187.61l75.738-80.08h7.822l22.23 17.07C17.66 238.62 62.429 468.84 267.49 481.51v-82.8c-109.17-1.19-165.84-144.75-77.94-223.93l37.87 29.09V89.028l-67.2-57.669z" style="fill:url(#b);stroke-width:9.99983"/></svg>