<svg xmlns="http://www.w3.org/2000/svg" width="579.13" height="459.6" viewBox="0 0 579.13 459.6"><path d="M373.37 0c40.14 86.64 49.1 170.54-5.3 215.88L303.59 61.72c16.86 88.31 15.04 180.91 4.67 255.75l126.59-82.8c-11.59 74.53-48.19 139.55-130.5 141.85v82.8c165.86.68 247.81-193.38 181.29-319.94 9.14-38.89 50.1-42.29 93.49-31.29C545.12 48.5 455.72 12.17 373.37 0M4.77 9.45 0 165.71l75.74-80.09h7.82l22.23 17.08C-.75 216.71 44.02 446.94 249.08 459.6v-82.79c-109.17-1.2-165.84-144.76-77.94-223.94l37.87 29.09V67.11l-67.2-57.67H4.77Z" style="stroke-width:10"/></svg>