<svg xmlns="http://www.w3.org/2000/svg" xmlns:xlink="http://www.w3.org/1999/xlink" width="600" height="510.334"><radialGradient id="a" cx="0" cy="0" r="1" fx="0" fy="0" gradientTransform="matrix(17.57053 0 0 -17.57053 397.944 483.675)" gradientUnits="userSpaceOnUse" spreadMethod="pad"><stop offset="0" style="stop-color:#bf99c3"/><stop offset=".7" style="stop-color:#7b5190"/><stop offset="1" style="stop-color:#612c75"/></radialGradient><radialGradient xlink:href="#a" id="b" cx="0" cy="0" r="1" fx="0" fy="0" gradientTransform="translate(391.516 615.818)scale(224.15673)" gradientUnits="userSpaceOnUse" spreadMethod="pad"/><path d="M510.782 360.052H271.029l-1.148.154c-16.19 1.747-38.617 13.408-46.093 37.928-20.335 5.677-96.932 27.007-96.932 27.007l-.995.395c-13.153 5.04-34.432 22.135-34.432 53.276 0 5.626.702 11.66 2.245 18.141L185.12 838.41l2.539 3.342c10.308 13.804 35.53 34.981 64.285 26.715 0 0 128.915-35.428 139.53-38.375 10.665 2.947 139.784 38.477 139.784 38.477 28.564 8.164 53.722-13.013 64.094-26.817l2.487-3.342 91.293-340.805c1.595-6.685 2.297-12.86 2.297-18.588 0-31.447-21.178-48.44-34.331-53.48l-.944-.395-96.983-27.007c-7.476-24.52-29.904-36.18-46.042-37.928l-1.148-.154z" style="fill:#fff" transform="translate(-91.429 -360.052)"/><path d="M272.177 381.83s-29.355 3.138-29.355 33.54l-109.14 30.451s-27.25 10.462-18.882 46.144l90.247 336.787s18.894 25.107 40.914 18.83l145.512-40.02 145.577 40.02c22.02 6.277 40.913-18.83 40.913-18.83l90.196-336.787c8.42-35.682-18.894-46.144-18.894-46.144L540.188 415.37c0-30.401-29.355-33.54-29.355-33.54z" style="fill:#612c75" transform="translate(-91.429 -360.052)"/><path d="M273.122 394.396c-1.34.243-5.576 1.186-9.518 3.84-5.626 3.725-8.228 9.16-8.228 17.133v9.568s-115.762 32.302-117.459 32.749c-3.036 1.441-12.107 6.876-12.107 21.369 0 2.947.396 6.238 1.25 9.976.153.6 88.002 328.456 89.405 333.738 3.879 4.388 15.297 15.793 26.013 12.757l149.046-41.015 148.957 41.015c10.768 3.036 22.173-8.369 26.013-12.757 1.442-5.282 89.303-333.138 89.405-333.738.893-3.738 1.301-7.03 1.301-9.976 0-14.493-9.122-19.928-12.12-21.37-1.684-.446-117.458-32.748-117.458-32.748v-9.568c0-7.973-2.641-13.408-8.216-17.133-3.942-2.654-8.178-3.598-9.568-3.84z" style="fill:#fff" transform="translate(-91.429 -360.052)"/><path d="M530.122 441.586V765.41s-2.794 21.024-19.544 21.024h-90.949l121.707 33.54s6.966 3.495 10.461-4.185l89.545-332.245s3.496-10.46-4.873-13.255zm-383.58 29.406c-8.37 2.781-4.887 13.306-4.887 13.306l89.507 332.143c3.483 7.718 10.512 4.235 10.512 4.235l121.643-33.54H272.42c-16.79 0-19.583-21.037-19.583-21.037V442.34Zm127.97-60.853h234.33c4.874 0 5.576 6.276 5.576 6.276V764.76c0 5.537-5.575 6.927-5.575 6.927h-234.33c-4.874 0-4.874-6.927-4.874-6.927V416.415c0-4.184 4.873-6.276 4.873-6.276" style="fill:#612c75" transform="translate(-91.429 -360.052)"/><path d="M275.813 415.267c-.6.409-1.046.957-1.046 1.2v348.191c0 .855.243 1.952-.204 1.952h233.425c.6-.306 1.352-.854 1.352-1.9l.051-347.644c-.102-.702-.497-1.646-.548-1.799zM535.2 766.1c-1.2 8.828-7.82 25.425-24.673 25.425h-53.263l86.254 23.87c.153.102.804.293 1.454.293.446 0 1.288 0 1.888-1.238l89.61-332.5c.19-.549 1.734-5.677-1.353-6.723L535.25 448.31zM148.136 475.827c-3.343 1.136-1.786 6.277-1.544 7.119l89.2 331.403c.907 2.04 1.8 2.04 2.246 2.04.65 0 1.25-.203 2.246-.65l85.258-23.525H272.42c-16.79 0-23.461-16.585-24.66-26.064V449.01z" style="fill:url(#b)" transform="translate(-91.429 -360.052)"/><path d="M398.263 603.014q-.419.3-1.375.434-.955.135-1 .328-.045.195-.045.613 0 1.343.687 4.973t.897 4.107q.269 1.972.866 5.018.597 3.047 1.06 3.36.464.315 1.449.315t.866 1.045q-.597.12-.926.12-.3 0-1.195-.135t-2.838-.134q-1.792 0-2.344.15-.553.147-.613.089-.298-.3-.298-.508 0-.299 1.15-.553t1.389-.672q-.39-2.659-.792-5.361-.403-2.704-.672-2.823-.27-.12-4.361.463-4.092.582-4.421 1a81 81 0 0 0-.836 3.196q-.42 1.732-.419 3.167 0 .418.06.881t.658.463l1.374-.12q.299.09.299.389v.478l-5.706.388a9 9 0 0 1-.09-.867q0-.148.165-.119.164.03.433.09.298 0 .582-.21.285-.208 1.075-3.18.793-2.972 1.21-4.496 0-.06-.045.18-.045.238-.045.268l2.928-10.903q-.867-.3-1.733-.627-4.24-.21-4.241-1.224 2.389.148 4.988.283t3.764.134q1.763 0 4.062-.269 2.301-.269 2.748-.269 1.106 0 1.285.538zm-11.769 9.021q.09.09.956.09 1.464 0 3.39-.134a82 82 0 0 0 3.51-.314q0-1.494-.807-4.465-.806-2.973-.956-3.107t-.448-.135h-.537a81 81 0 0 0-3.018.06q-.716 2.659-1.418 5.317t-.672 2.688z" style="fill:#fff;stroke:#612c75;stroke-width:1.25;stroke-opacity:.462745" transform="matrix(10.20603 0 0 10.20603 -3694.933 -6023.782)"/><path stroke="none" d="M398.263 603.014q-.419.3-1.375.434-.955.135-1 .328-.045.195-.045.613 0 1.343.687 4.973t.897 4.107q.269 1.972.866 5.018.597 3.047 1.06 3.36.464.315 1.449.315t.866 1.045q-.597.12-.926.12-.3 0-1.195-.135t-2.838-.134q-1.792 0-2.344.15-.553.147-.613.089-.298-.3-.298-.508 0-.299 1.15-.553t1.389-.672q-.39-2.659-.792-5.361-.403-2.704-.672-2.823-.27-.12-4.361.463-4.092.582-4.421 1a81 81 0 0 0-.836 3.196q-.42 1.732-.419 3.167 0 .418.06.881t.658.463l1.374-.12q.299.09.299.389v.478l-5.706.388a9 9 0 0 1-.09-.867q0-.148.165-.119.164.03.433.09.298 0 .582-.21.285-.208 1.075-3.18.793-2.972 1.21-4.496 0-.06-.045.18-.045.238-.045.268l2.928-10.903q-.867-.3-1.733-.627-4.24-.21-4.241-1.224 2.389.148 4.988.283t3.764.134q1.763 0 4.062-.269 2.301-.269 2.748-.269 1.106 0 1.285.538zm-11.769 9.021q.09.09.956.09 1.464 0 3.39-.134a82 82 0 0 0 3.51-.314q0-1.494-.807-4.465-.806-2.973-.956-3.107t-.448-.135h-.537a81 81 0 0 0-3.018.06q-.716 2.659-1.418 5.317t-.672 2.688z" style="fill:#fff;stroke:#612c75;stroke-width:1.25;stroke-opacity:0" transform="matrix(10.20603 0 0 10.20603 -3694.933 -6023.782)"/></svg>