<svg xmlns="http://www.w3.org/2000/svg" xmlns:xlink="http://www.w3.org/1999/xlink" width="600" height="510.334"><radialGradient id="a" cx="0" cy="0" r="1" fx="0" fy="0" gradientTransform="matrix(17.57053 0 0 -17.57053 397.944 483.675)" gradientUnits="userSpaceOnUse" spreadMethod="pad"><stop offset="0" style="stop-color:#d9eaf3"/><stop offset=".7" style="stop-color:#99aebc"/><stop offset="1" style="stop-color:#536e78"/></radialGradient><radialGradient xlink:href="#a" id="b" cx="0" cy="0" r="1" fx="0" fy="0" gradientTransform="translate(300.087 255.766)scale(224.15673)" gradientUnits="userSpaceOnUse" spreadMethod="pad"/><path d="M419.353 0H179.601l-1.148.153c-16.19 1.748-38.618 13.408-46.093 37.928-20.336 5.677-96.932 27.008-96.932 27.008l-.995.395C21.28 70.524 0 87.618 0 118.759c0 5.627.702 11.66 2.245 18.142l91.446 341.455 2.54 3.343c10.307 13.803 35.529 34.981 64.284 26.714 0 0 128.915-35.428 139.53-38.375 10.665 2.947 139.784 38.477 139.784 38.477 28.564 8.165 53.722-13.013 64.094-26.816l2.488-3.343 91.293-340.805c1.594-6.685 2.296-12.86 2.296-18.587 0-31.448-21.178-48.44-34.33-53.48l-.945-.395-96.982-27.008C460.267 13.561 437.839 1.901 421.7.153L420.552 0z"/><path d="M180.749 21.777s-29.355 3.138-29.355 33.54L42.253 85.769s-27.25 10.461-18.881 46.144l90.247 336.786s18.894 25.107 40.913 18.83l145.513-40.02 145.576 40.02c22.02 6.277 40.913-18.83 40.913-18.83l90.196-336.786c8.42-35.683-18.894-46.144-18.894-46.144L448.76 55.317c0-30.402-29.355-33.54-29.355-33.54z" style="fill:#536e78"/><path d="M181.693 34.343c-1.34.243-5.575 1.187-9.517 3.84-5.626 3.726-8.229 9.16-8.229 17.134v9.568S48.185 97.187 46.488 97.633c-3.036 1.442-12.106 6.877-12.106 21.37 0 2.946.396 6.238 1.25 9.976.153.6 88.001 328.455 89.405 333.737 3.878 4.389 15.296 15.794 26.012 12.758l149.047-41.016 148.957 41.016c10.767 3.036 22.172-8.37 26.012-12.758 1.442-5.282 89.303-333.138 89.405-333.737.893-3.738 1.302-7.03 1.302-9.977 0-14.492-9.122-19.927-12.12-21.369-1.684-.447-117.459-32.748-117.459-32.748v-9.568c0-7.974-2.64-13.408-8.216-17.134-3.942-2.653-8.177-3.597-9.568-3.84z"/><path d="M438.694 81.533v323.825s-2.794 21.025-19.545 21.025h-90.948l121.707 33.54s6.965 3.495 10.46-4.185l89.546-332.245s3.495-10.461-4.873-13.255zM55.113 110.94c-8.37 2.78-4.887 13.306-4.887 13.306l89.507 332.142c3.483 7.719 10.513 4.236 10.513 4.236l121.643-33.54H180.99c-16.789 0-19.583-21.037-19.583-21.037V82.287Zm127.97-60.854h234.331c4.873 0 5.575 6.277 5.575 6.277v348.345c0 5.536-5.575 6.927-5.575 6.927h-234.33c-4.874 0-4.874-6.927-4.874-6.927V56.363c0-4.185 4.873-6.277 4.873-6.277" style="fill:#536e78"/><path d="M184.385 55.215c-.6.408-1.046.956-1.046 1.199v348.192c0 .855.243 1.952-.204 1.952h233.424c.6-.307 1.353-.855 1.353-1.901l.05-347.643c-.101-.703-.496-1.646-.547-1.8zM443.77 406.047c-1.2 8.828-7.82 25.426-24.673 25.426h-53.263l86.254 23.87c.153.101.804.292 1.454.292.446 0 1.289 0 1.889-1.237l89.608-332.5c.192-.55 1.736-5.677-1.352-6.723l-99.866-26.919zM56.707 115.775c-3.342 1.135-1.786 6.277-1.543 7.119l89.2 331.402c.907 2.042 1.8 2.042 2.246 2.042.65 0 1.25-.205 2.245-.652l85.259-23.525H180.99c-16.789 0-23.46-16.584-24.66-26.063V88.958z" style="fill:url(#b)"/><path d="M398.263 603.014q-.419.3-1.375.434-.955.135-1 .328-.045.195-.045.613 0 1.343.687 4.973t.897 4.107q.269 1.972.866 5.018.597 3.047 1.06 3.36.464.315 1.449.315t.866 1.045q-.597.12-.926.12-.3 0-1.195-.135t-2.838-.134q-1.792 0-2.344.15-.553.147-.613.089-.298-.3-.298-.508 0-.299 1.15-.553t1.389-.672q-.39-2.659-.792-5.361-.403-2.704-.672-2.823-.27-.12-4.361.463-4.092.582-4.421 1a81 81 0 0 0-.836 3.196q-.42 1.732-.419 3.167 0 .418.06.881t.658.463l1.374-.12q.299.09.299.389v.478l-5.706.388a9 9 0 0 1-.09-.867q0-.148.165-.119.164.03.433.09.298 0 .582-.21.285-.208 1.075-3.18.793-2.972 1.21-4.496 0-.06-.045.18-.045.238-.045.268l2.928-10.903q-.867-.3-1.733-.627-4.24-.21-4.241-1.224 2.389.148 4.988.283t3.764.134q1.763 0 4.062-.269 2.301-.269 2.748-.269 1.106 0 1.285.538zm-11.769 9.021q.09.09.956.09 1.464 0 3.39-.134a82 82 0 0 0 3.51-.314q0-1.494-.807-4.465-.806-2.973-.956-3.107t-.448-.135h-.537a81 81 0 0 0-3.018.06q-.716 2.659-1.418 5.317t-.672 2.688z" style="fill:#fff;stroke:#536e78;stroke-width:1.25;stroke-opacity:.462745" transform="matrix(10.20603 0 0 10.20603 -3694.934 -6023.782)"/><path stroke="none" d="M398.263 603.014q-.419.3-1.375.434-.955.135-1 .328-.045.195-.045.613 0 1.343.687 4.973t.897 4.107q.269 1.972.866 5.018.597 3.047 1.06 3.36.464.315 1.449.315t.866 1.045q-.597.12-.926.12-.3 0-1.195-.135t-2.838-.134q-1.792 0-2.344.15-.553.147-.613.089-.298-.3-.298-.508 0-.299 1.15-.553t1.389-.672q-.39-2.659-.792-5.361-.403-2.704-.672-2.823-.27-.12-4.361.463-4.092.582-4.421 1a81 81 0 0 0-.836 3.196q-.42 1.732-.419 3.167 0 .418.06.881t.658.463l1.374-.12q.299.09.299.389v.478l-5.706.388a9 9 0 0 1-.09-.867q0-.148.165-.119.164.03.433.09.298 0 .582-.21.285-.208 1.075-3.18.793-2.972 1.21-4.496 0-.06-.045.18-.045.238-.045.268l2.928-10.903q-.867-.3-1.733-.627-4.24-.21-4.241-1.224 2.389.148 4.988.283t3.764.134q1.763 0 4.062-.269 2.301-.269 2.748-.269 1.106 0 1.285.538zm-11.769 9.021q.09.09.956.09 1.464 0 3.39-.134a82 82 0 0 0 3.51-.314q0-1.494-.807-4.465-.806-2.973-.956-3.107t-.448-.135h-.537a81 81 0 0 0-3.018.06q-.716 2.659-1.418 5.317t-.672 2.688z" style="stroke:#536e78;stroke-width:1.25;stroke-opacity:0" transform="matrix(10.20603 0 0 10.20603 -3694.934 -6023.782)"/></svg>