<svg xmlns="http://www.w3.org/2000/svg" width="85.918" height="55.842"><path d="M31.076 4.197c-3.045 6.236-2.552 12.02.287 16.244 3.185 4.739 8.895 7.586 14.69 7.586s11.503-2.847 14.687-7.586c2.84-4.224 3.333-10.008.287-16.244 3.967 1.173 8.13 2.93 11.836 5.75.209 7.771-2.14 13.614-6.617 17.59-4.573 4.062-11.438 6.234-20.193 6.234S30.43 31.6 25.857 27.537c-4.476-3.976-6.825-9.819-6.617-17.59 3.707-2.82 7.87-4.577 11.836-5.75M10.947 24.473c1.026 3.343 3.172 7.688 7.602 11.529 5.382 4.667 14.007 8.428 27.504 8.428 13.496 0 22.122-3.761 27.504-8.428 4.43-3.841 6.576-8.186 7.601-11.53 4.72 6.04 7.42 11.49 7.854 20.032-12.934 1.893-21.002 12.303-23.973 15.535H27.064c-2.97-3.232-11.037-13.642-23.97-15.535.434-8.541 3.133-13.991 7.853-20.031" style="fill:#000" transform="translate(-3.094 -4.197)"/></svg>