<svg xmlns="http://www.w3.org/2000/svg" xml:space="preserve" width="354.899" height="485.001"><path fill="#fff" d="M177.449 49.353c43.32 0 59.08-49.353 59.08-49.353l118.37 93.201s-7.54 178.82-7.77 185.49c-.55 15.72-7.09 30.47-11.29 40.74-15.1 36.94-72.23 116.75-148.22 165.57h-20.34c-75.99-48.82-133.115-128.63-148.215-165.57-4.196-10.27-10.737-25.02-11.287-40.73C7.54 272.021 0 93.201 0 93.201L118.389 0s15.75 49.353 59.06 49.353"/><path d="M172.069 469.421c-87.363-59.24-138.222-146.59-141.215-163.94-1.994-11.57-1.199-21.75 2.396-30.53q12.56 39.495 49.063 89.76c26.046 34.72 51.886 59.11 77.536 73.14h35.2c25.66-14.03 51.5-38.41 77.54-73.14 24.34-33.51 40.69-63.43 49.06-89.76 3.6 8.78 4.4 18.96 2.41 30.53-3 17.35-53.86 104.7-141.22 163.94zm5.38-397.912-14.96 44.282-52.65 31.11-46.675-11.96 32.315 37.1v62.23l-32.315 37.1 47.265-12.58 51.46 31.72 15.56 49.06 15.56-49.06 51.46-31.72 47.28 12.58-32.32-37.1v-62.23l32.32-37.1-46.69 11.96-52.65-31.11zm53.85 163.352v-62.82l-53.85-32.92-53.85 32.92v62.82l53.85 32.32zM16.493 119.981c37.517 50.94 39.847 96.61 6.991 137l-1.009 1.22zm321.926 0-5.99 138.21-1-1.22c-32.86-40.38-30.53-86.05 6.99-136.99m-224.4 119.67v-73.6l63.43-38.29 63.43 38.29v73.6l-63.43 38.89zm50.27 183.69c-56.65-39.08-97.137-93.94-121.467-164.55 31.596-43.83 24.089-96.66-22.512-158.48l-1.425-1.87 93.944-74.2c13.43 27.65 34.68 41.215 63.74 40.704h1.77c29.06.512 50.31-13.053 63.74-40.704l93.94 74.2-1.43 1.87c-46.59 61.82-54.1 114.65-22.51 158.48-24.33 70.61-64.82 125.47-121.46 164.55z"/></svg>