<svg xmlns="http://www.w3.org/2000/svg" xml:space="preserve" width="354.903" height="484.999"><g transform="translate(-10.005 -7.079)"><path fill="#fff" d="M187.457 56.432c43.309 0 59.07-49.353 59.07-49.353l118.381 93.202s-7.54 178.814-7.769 185.494c-.559 15.715-7.095 30.464-11.291 40.731-15.1 36.943-72.239 116.75-148.224 165.572h-20.338C101.298 443.257 44.168 363.45 29.069 326.507c-4.196-10.269-10.737-25.019-11.287-40.731-.237-6.68-7.777-185.494-7.777-185.494L128.39 7.079s15.757 49.353 59.067 49.353"/><linearGradient id="a" x1="26.497" x2="348.416" y1="247.092" y2="247.092" gradientTransform="matrix(1 0 0 -1 0 501)" gradientUnits="userSpaceOnUse"><stop offset="0" style="stop-color:#612c75"/><stop offset=".015" style="stop-color:#643078"/><stop offset=".13" style="stop-color:#754889"/><stop offset=".2" style="stop-color:#7b5190"/><stop offset=".234" style="stop-color:#8c639d"/><stop offset=".291" style="stop-color:#a37bae"/><stop offset=".352" style="stop-color:#b38cba"/><stop offset=".418" style="stop-color:#bc96c1"/><stop offset=".5" style="stop-color:#bf99c3"/><stop offset=".582" style="stop-color:#bc96c1"/><stop offset=".648" style="stop-color:#b38cba"/><stop offset=".709" style="stop-color:#a37bae"/><stop offset=".766" style="stop-color:#8c639d"/><stop offset=".8" style="stop-color:#7b5190"/><stop offset=".87" style="stop-color:#754889"/><stop offset=".985" style="stop-color:#643078"/><stop offset="1" style="stop-color:#612c75"/></linearGradient><path fill="url(#a)" d="M182.07 476.496C94.71 417.264 43.851 329.907 40.858 312.555c-1.994-11.566-1.199-21.74 2.396-30.521 8.374 26.324 24.728 56.249 49.063 89.754q39.061 52.092 77.539 73.138h35.201c25.651-14.028 51.502-38.411 77.533-73.138 24.345-33.505 40.694-63.43 49.068-89.754 3.59 8.781 4.396 18.955 2.396 30.521-2.993 17.354-53.852 104.709-141.214 163.941zm5.387-397.908-14.958 44.285-52.658 31.108-46.672-11.964 32.311 37.104v62.226l-32.311 37.105 47.269-12.58 51.46 31.715 15.559 49.067 15.559-49.067 51.461-31.715 47.27 12.58-32.313-37.105v-62.226l32.313-37.104-46.682 11.964-52.649-31.108zm53.852 163.356v-62.823l-53.853-32.917-53.852 32.917v62.823l53.852 32.312zM26.497 127.06c37.517 50.944 39.847 96.612 6.991 136.995l-1.009 1.221zm321.919 0-5.986 138.215-1.004-1.221q-49.292-60.576 6.99-136.994M124.028 246.728v-73.593l63.429-38.298 63.419 38.298v73.593l-63.419 38.895zm50.262 183.694c-56.642-39.084-97.133-93.939-121.463-164.55 31.596-43.83 24.089-96.659-22.512-158.478l-1.425-1.875 93.945-74.199c13.428 27.65 34.675 41.215 63.737 40.704l.886-.009.886.009c29.063.512 50.313-13.053 63.736-40.704l93.939 74.199-1.421 1.875c-46.596 61.818-54.106 114.647-22.507 158.478-24.345 70.608-64.83 125.466-121.468 164.55z" style="fill:url(#a)"/></g></svg>