<svg xmlns="http://www.w3.org/2000/svg" width="1080.36" height="635.88" data-name="Layer 2" viewBox="0 0 1080.36 635.88"><defs><linearGradient id="a" x1="-419.63" x2="-418.63" y1="859.88" y2="859.88" gradientTransform="matrix(1008.69 0 0 -524.42 423311.13 451238.69)" gradientUnits="userSpaceOnUse"><stop offset="0" stop-color="#bb2c26"/><stop offset=".04" stop-color="#bf3526"/><stop offset=".11" stop-color="#cb4d25"/><stop offset=".19" stop-color="#de7523"/><stop offset=".21" stop-color="#e17a23"/><stop offset=".29" stop-color="#ee8b1f"/><stop offset=".38" stop-color="#f5951e"/><stop offset=".5" stop-color="#ff9915"/><stop offset=".62" stop-color="#f5951e"/><stop offset=".71" stop-color="#ee8b1f"/><stop offset=".79" stop-color="#e17a23"/><stop offset=".8" stop-color="#e07823"/><stop offset=".85" stop-color="#d35d24"/><stop offset=".91" stop-color="#c64225"/><stop offset=".96" stop-color="#be3226"/><stop offset="1" stop-color="#bb2c26"/></linearGradient></defs><g data-name="Layer 1"><path d="m540 474.74-26.39-54.88c-20.93-43.5-48.97-81.52-84.24-113.98l-22.8-20.99L428.51 263c31.99-31.93 60.5-71.29 85.75-117.84L540 97.7v-.68l.18.35.19-.35v.68l25.74 47.46c25.25 46.55 53.76 85.91 85.75 117.84l21.94 21.89-22.8 20.99c-35.27 32.46-63.31 70.48-84.24 113.98l-26.39 54.88v.77l-.19-.38-.18.38zM258.54 11.76c82.44 28.12 149.99 66.34 204.47 108.42l19.56 15.12-11.3 21.97c-24.73 48.06-56.92 90.25-96.66 126.5 64.26 59.66 112.64 123.29 140.72 191.65l2.23 5.42v155.03l-50.68-50.57c-81.31-81.11-175.45-132.97-282.23-156.07l-28.8-6.24 6.01-28.86c24.24-116.22 42.25-235.84 57.61-357.97L224.03 0ZM107.32 89.11c18.76 2.08 36.95 7.63 54.76 15.35l22 9.53-66.14 332.46c111.86 12.2 217.94 81.44 277.15 147.16C281.64 544.75 152.21 523.67.01 542.12L79.58 86.03l27.73 3.08Zm714.51-77.35L856.33 0l4.56 36.17c15.36 122.14 33.37 241.75 57.61 357.97l6.01 28.86-28.8 6.24c-106.78 23.1-200.92 74.96-282.23 156.07l-50.68 50.57V480.85l2.23-5.42c28.08-68.36 76.46-131.99 140.72-191.65-39.76-36.25-71.93-78.44-96.66-126.5l-11.3-21.97 19.56-15.12c54.48-42.08 122.03-80.3 204.47-108.42Zm151.23 77.35 27.73-3.08 79.58 456.08c-152.2-18.44-281.63 2.63-395.08 51.49 59.21-65.71 165.29-134.95 277.15-147.16L896.3 113.98l22-9.53c17.81-7.72 36-13.27 54.76-15.35z" style="fill-rule:evenodd;stroke-width:0" transform="translate(-.01)"/><path d="M540.37 406.99c-22.57-46.92-52.84-87.94-90.89-122.95 33.88-33.82 64.15-75.42 90.89-124.7 26.74 49.28 57.01 90.89 90.89 124.7-38.05 35.02-68.32 76.03-90.89 122.95M248.95 39.88c78.98 26.93 143.71 63.49 195.9 103.81-28.13 54.65-66.58 101.2-115.54 139.48 73.3 62.92 128.41 130.21 158.54 203.56v77.57c-85.52-85.32-184.61-139.78-296.92-164.08 24.4-116.99 42.54-237.4 58.01-360.34Zm-144.9 78.75c15.84 1.75 31.16 6.55 46.21 13.08L82.24 473.55c77.4 2.9 143.51 25.58 202.31 61.04-77.75-24.73-159.92-35.54-248.53-26.16Zm727.74-78.75c15.47 122.94 33.61 243.35 58.01 360.34-112.31 24.3-211.39 78.76-296.92 164.08v-77.57c30.13-73.34 85.25-140.64 158.54-203.56-48.96-38.28-87.41-84.83-115.54-139.48 52.19-40.32 116.92-76.88 195.9-103.81Zm144.9 78.75 68.03 389.81c-88.61-9.38-170.78 1.43-248.53 26.16 58.8-35.46 124.91-58.14 202.31-61.04l-68.02-341.84c15.05-6.53 30.37-11.33 46.21-13.08z" style="fill:url(#a);fill-rule:evenodd;stroke-width:0" transform="translate(-.01)"/></g></svg>