<svg xmlns="http://www.w3.org/2000/svg" width="1008.69" height="524.42" data-name="Layer 2" viewBox="0 0 1008.69 524.42"><path d="M504.35 367.12c-22.57-46.92-52.84-87.94-90.89-122.95 33.88-33.82 64.15-75.42 90.89-124.7 26.72 49.28 57 90.89 90.88 124.7-38.04 35.02-68.3 76.03-90.88 122.95M212.93 0c78.97 26.93 143.7 63.49 195.9 103.81-28.13 54.65-66.58 101.2-115.54 139.48 73.28 62.92 128.41 130.21 158.54 203.56v77.57c-85.52-85.32-184.61-139.78-296.92-164.08C179.32 243.35 197.46 122.94 212.93 0M68.02 78.76c15.84 1.75 31.18 6.55 46.22 13.08L46.21 433.68c77.41 2.9 143.52 25.58 202.32 61.04C170.78 469.99 88.59 459.18 0 468.56ZM795.77 0c15.46 122.94 33.61 243.35 58.01 360.34-112.32 24.3-211.39 78.76-296.92 164.08v-77.57c30.12-73.34 85.25-140.64 158.53-203.56-48.95-38.28-87.41-84.83-115.52-139.48C652.06 63.49 716.78 26.93 795.77 0m144.9 78.76 68.02 389.81c-88.6-9.38-170.77 1.43-248.53 26.16 58.81-35.46 124.91-58.14 202.32-61.04L894.46 91.85c15.04-6.53 30.37-11.33 46.21-13.08z" data-name="Layer 1" style="fill-rule:evenodd;stroke-width:0"/></svg>