<svg xmlns="http://www.w3.org/2000/svg" xmlns:xlink="http://www.w3.org/1999/xlink" width="600" height="600"><linearGradient id="a" x1="0" x2="1" y1="0" y2="0" gradientTransform="rotate(162 334.37 244.625)scale(-39.4463 39.4463)" gradientUnits="userSpaceOnUse" spreadMethod="pad"><stop offset="0" style="stop-color:#8b723c"/><stop offset=".3" style="stop-color:#d2bb7b"/><stop offset=".5" style="stop-color:#ebd491"/><stop offset=".7" style="stop-color:#d2bb7b"/><stop offset="1" style="stop-color:#8b723c"/></linearGradient><linearGradient xlink:href="#a" id="b" x1="0" x2="1" y1="0" y2="0" gradientTransform="matrix(561.4155 182.84363 -182.41495 562.73483 35.268 242.735)" gradientUnits="userSpaceOnUse" spreadMethod="pad"/><path d="M485.49 224.13C475.492 98.85 370.62 0 243.178 0 109.079 0 0 109.335 0 243.75c0 103.59 64.888 192.315 156.023 227.52C96.223 547.74 84.297 600 84.297 600H600V199.395s-43.144-1.695-114.51 24.735"/><path d="M45.194 243.69c0 90.18 59.979 166.29 142.106 190.44 29.63-32.76 67.521-68.565 115.738-105.705 51.03-39.315 97.63-66.57 138.08-85.605-.523-109.17-88.966-197.52-198-197.52-109.243 0-197.924 88.83-197.924 198.39m277.193 122.82c-133.86 104.64-174.729 188.205-174.729 188.205h407.163V247.68s-98.558 14.115-232.434 118.83" style="fill:url(#b)"/></svg>