<svg xmlns="http://www.w3.org/2000/svg" xmlns:xlink="http://www.w3.org/1999/xlink" width="600" height="600"><linearGradient id="a" x1="0" x2="1" y1="0" y2="0" gradientTransform="rotate(162 293.163 238.098)scale(-39.44532 39.44532)" gradientUnits="userSpaceOnUse" spreadMethod="pad"><stop offset="0" style="stop-color:#612c75"/><stop offset=".3" style="stop-color:#7b5190"/><stop offset=".5" style="stop-color:#bf99c3"/><stop offset=".7" style="stop-color:#7b5190"/><stop offset="1" style="stop-color:#612c75"/></linearGradient><linearGradient xlink:href="#a" id="b" x1="0" x2="1" y1="0" y2="0" gradientTransform="matrix(561.40158 182.83906 -182.41039 562.72087 35.312 242.735)" gradientUnits="userSpaceOnUse" spreadMethod="pad"/><path fill="#fff" d="M485.549 224.13C475.493 98.85 370.619 0 243.179 0 109.079 0 0 109.335 0 243.75c0 103.59 64.888 192.315 156.023 227.52C96.283 547.74 84.357 600 84.357 600H600V199.395s-43.144-1.695-114.451 24.735"/><path d="M45.254 243.69c0 90.18 59.979 166.29 142.106 190.44 29.57-32.76 67.461-68.565 115.738-105.705 50.97-39.315 97.63-66.57 138.02-85.605-.523-109.17-88.92-197.52-197.94-197.52-109.303 0-197.924 88.83-197.924 198.39m277.133 122.82c-133.86 104.64-174.729 188.205-174.729 188.205h407.163V247.68s-98.558 14.115-232.434 118.83" style="fill:url(#b)"/></svg>