<?xml version="1.0" encoding="UTF-8" standalone="no"?>
<svg
   version="1.1"
   id="Layer_1"
   x="0px"
   y="0px"
   width="66.714897"
   height="47.505859"
   viewBox="0 0 66.714894 47.505859"
   xmlns="http://www.w3.org/2000/svg"
   xmlns:svg="http://www.w3.org/2000/svg">
  <defs
     id="defs1" />
  <path
     d="m 17.834143,0 c -4.5,0 -7.568219,1.3925781 -9.949219,4.5175781 C 2.6659239,11.361578 1.0617521,22.795781 0.30875213,30.800781 c -0.45,4.788 -1.39070313,14.758078 5.65429687,16.580078 0.329,0.082 0.6979374,0.125 1.0859374,0.125 4.0319996,0 11.1596246,-4.917328 15.2656246,-9.486328 0.029,-0.03 3.001469,-2.953125 11.105469,-2.953125 8.086,0 10.930219,2.904828 10.949219,2.923828 4.115,4.578 11.136828,9.515625 15.298828,9.515625 0.388,0 0.753031,-0.042 1.082031,-0.125 7.047,-1.825 6.107297,-11.792078 5.654297,-16.580078 -0.753,-8.002 -2.353266,-19.434203 -7.572266,-26.2832029 C 56.450189,1.3925781 53.381064,0 48.879064,0 45.812064,-9.9999984e-8 42.37958,0.4403281 39.98258,3.6113281 H 26.728674 C 24.332674,0.4403281 20.902143,0 17.834143,0 Z m 34.708984,5.8535156 c 3.737461,-0.030419 2.902106,5.0297384 -0.289063,4.2910154 -2.1094,-0.4989998 -2.073277,-4.2836654 0.289063,-4.2910154 z M 13.533361,9.0058592 c 2.204,0 3.998047,1.7920938 3.998047,3.9960938 0,2.203 -1.794047,3.998047 -3.998047,3.998047 -2.203,0 -3.9960938,-1.795047 -3.9960938,-3.998047 0,-2.204 1.7930938,-3.9960938 3.9960938,-3.9960938 z M 47.63883,10.814453 c 0.788829,-0.01717 1.528416,0.474105 1.929687,1.134765 1.196639,1.725358 -1.059398,3.939835 -2.828124,3.025391 -2.056045,-0.827304 -1.294283,-4.234706 0.898437,-4.160156 z m 10.236328,0.154297 c 0.863444,-0.02303 1.675742,0.535082 2.115235,1.251953 1.250215,2.044224 -2.206533,4.459272 -3.609376,2.386719 -1.347816,-1.253909 -0.232558,-3.597132 1.494141,-3.638672 z m -5.085937,5.042968 c 0.655776,-0.06477 1.239528,0.349589 1.648437,0.822266 1.714344,1.453641 -0.434533,4.617987 -2.371094,3.521484 -2.147213,-0.767972 -1.49934,-4.26988 0.722657,-4.34375 z m -29.691407,3.466797 c 2.958,0 5.365235,2.408235 5.365235,5.365235 0,2.957 -2.407235,5.363281 -5.365235,5.363281 -2.959,0 -5.365234,-2.406281 -5.365234,-5.363281 0,-2.957 2.406234,-5.365235 5.365234,-5.365235 z m 19.427735,0.910157 c 2.369,0 4.298828,1.930734 4.298828,4.302734 0,2.372 -1.930828,4.302734 -4.298828,4.302734 -2.373,0 -4.300782,-1.930734 -4.300782,-4.302734 10e-7,-2.371 1.927782,-4.302734 4.300782,-4.302734 z"
     id="path1" />
</svg>
