<?xml version="1.0" encoding="UTF-8" standalone="no"?>
<svg
   width="162.85472pt"
   height="154.75452pt"
   viewBox="0 0 217.13963 206.33936"
   version="1.1"
   id="svg1"
   xmlns="http://www.w3.org/2000/svg"
   xmlns:svg="http://www.w3.org/2000/svg">
  <defs
     id="defs1" />
  <path
     d="m 58.599606,0 c 1.820003,11.210001 5.01912,22.339531 8.099123,33.269531 27.929996,-0.23 56.071341,0.529258 83.881341,-0.260742 3.03999,-10.75 5.46954,-21.679023 8.28954,-32.499023 -16.61,0.86 -33.67953,5.388945 -50.51952,7.168945 C 91.740095,5.368711 75.169615,2.630001 58.599606,0 Z M 186.13915,19.63916 c -9.94,5.59 -19.50912,11.929609 -29.09913,18.099609 7.87,26.74 17.16947,53.160242 25.70948,79.740241 11.46999,0.14 22.94013,-1.31002 34.39013,-2.02002 -7.57,-15.27 -15.6399,-30.319239 -22.8999,-45.719248 C 191.19972,53.099746 189.06915,36.28916 186.13915,19.63916 Z M 30.919921,19.879394 c -2.68,16.760001 -5.230644,33.55 -8.160644,50.250003 C 15.389276,85.379401 6.849999,100.14987 0,115.60986 c 11.399999,0.63 22.79996,1.98983 34.20996,2.06983 8.68,-26.529999 17.239274,-53.110433 25.759274,-79.690432 -9.529995,-6.25 -19.199313,-12.379864 -29.049313,-18.109864 z M 118.67579,43.378418 C 102.28145,43.340328 85.835255,43.597656 69.479001,43.628906 60.469004,68.028909 52.879199,93.580001 44.679199,118.5 c 20.98,15.74 42.360446,31.00951 63.710451,46.24951 21.48998,-15.07 42.64029,-30.72976 63.82029,-46.25977 -7.90999,-24.899999 -15.96986,-49.780348 -24.10985,-74.610346 -9.76875,-0.34875 -19.58771,-0.478125 -29.4243,-0.500976 z M 36.489257,125.36865 c -8.79,7.2 -18.219882,14.32118 -26.129883,22.20117 14.82,8.05001 30.07,15.28989 45,23.12989 12.290002,11.62999 23.959721,23.94964 36.219731,35.63965 4.65999,-10.25001 8.919885,-20.82995 12.629875,-31.43994 -22.049995,-16.91 -45.009726,-33.30077 -67.719723,-49.53077 z m 143.900383,0.3208 c -22.89001,15.95 -45.40086,32.60016 -67.88086,49.16016 4.04001,10.49 8.15051,21.01976 12.77051,31.25977 12.35,-11.43 23.68981,-23.96013 36.04979,-35.37012 14.80001,-8.04 30.10091,-15.16994 44.92091,-23.18994 -8.07,-7.78 -16.98034,-15.02987 -25.86035,-21.85987 z"
     id="path1" />
</svg>
