<?xml version="1.0" encoding="UTF-8" standalone="no"?>
<svg
   version="1.1"
   x="0px"
   y="0px"
   width="897.03436"
   height="896.9975"
   id="svg2"
   xmlns="http://www.w3.org/2000/svg"
   xmlns:svg="http://www.w3.org/2000/svg">
  <defs
     id="defs2" />
  <path
     fill="#808080"
     d="m 813.22748,411.32141 c -6.372,-78.866 -40.577,-154.232 -93.27,-212.961 0.193,0.125 0.39,0.248 0.583,0.373 -15.12,-17.244 -31.949,-32.702 -50.092,-46.347 -10.752,-8.282 -21.967,-15.968 -33.608,-22.976 0.203,0.327 0.414,0.652 0.62,0.979 -101.454,-59.626996 -232.563,-69.086996 -340.473,-20.051 -101.97,45.244 -180.912,139.135 -206.446003,247.891 -11.067,41.047 -8.806,84.031 -7.835,126.049 6.373,78.866 40.577003,154.232 93.271003,212.962 -0.194,-0.125 -0.39,-0.248 -0.583,-0.373 15.119,17.244 31.95,32.702 50.092,46.348 10.752,8.282 21.967,15.968 33.608,22.976 -0.204,-0.326 -0.414,-0.653 -0.621,-0.979 101.456,59.627 232.565,69.087 340.474,20.05 101.971,-45.244 180.912,-139.135 206.446,-247.892 11.065,-41.047 8.805,-84.032 7.834,-126.049 z"
     id="path1" />
  <path
     d="m 373.28348,5.9994144 c 95.199,-14.961 196.078,-2.402 281.84,42.8789996 114.16,57.437996 200.559,166.960996 229.598,291.437996 23.441,101.281 13.84,210.961 -32.48,304.563 -60.398,125.598 -182.637,219.438 -319.918,244.48 -115.359,21.277 -239.281,-2 -336.48,-68.563 -72.641,-50.32 -131.840003,-121.117 -164.160003,-203.68 -52,-130.641 -39.8400003,-285.68 35.359,-404.957 C 133.44348,103.83841 247.84148,26.475414 373.28348,5.9994144 Z m -74.801,107.6789956 c -100.961,44.797 -179.121,137.758 -204.402003,245.438 -10.957,40.641 -8.719,83.199 -7.758,124.801 9.199,113.84 76.961003,220.32 174.641003,279.121 -12.16,-19.52 -31.359,-38.242 -28.723,-63.281 1.203,-33.52 36.961,-52.16 66.961,-53.52 55.441,-6.398 104.402,26.32 145.281,59.762 -34.961,-106.242 -157.359,-174.16 -266.082,-155.121 47.922,-37.52 107.762,-59.52 168.883,-60 80.078,-0.563 157.117,29.281 224.719,70.559 -71.68,-113.68 -200.801,-181.52 -330.242,-205.918 24.563,-13.84 54.16,-11.359 81.441,-14.082 144.801,1.039 279.922,63.441 402.801,134.723 -80,-137.523 -222.082,-226.961 -370.48,-274.883 141.281,-14.078 282.48,34.402 399.359,111.602 -49.199,-74.16 -120.559,-132.082 -200.879,-169.68 59.281,-1.199 115.039,26.559 163.84,58 -101.36,-115.602996 -279.923,-150.883996 -419.36,-87.521 z"
     id="path2" />
</svg>
