<?xml version="1.0" encoding="UTF-8" standalone="no"?>
<svg
   version="1.1"
   id="Layer_1"
   x="0px"
   y="0px"
   width="42.092999"
   height="49.999001"
   xmlns="http://www.w3.org/2000/svg"
   xmlns:svg="http://www.w3.org/2000/svg">
  <defs
     id="defs5" />
  <g
     id="g5">
    <path
       fill="#ffffff"
       d="M 21.146,0 C 13.749,3.921 6.844,10.431 0,17.271 c 0.408,6.059 4.002,11.494 7.265,16.995 -0.609,0.974 -1.512,1.802 -2.58,2.546 0.962,4.505 4.255,6.815 9.559,7.234 3.724,3.508 5.254,4.554 6.903,5.953 2.319,-1.964 4.592,-3.983 6.882,-5.981 5.981,-0.268 8.387,-3.843 9.523,-7.091 C 36.84,36.363 34.888,35.072 34.828,34.266 38.28,29.245 41.457,24.052 42.093,17.271 35.69,11.072 29.429,4.766 21.146,0 Z"
       id="path1" />
    <linearGradient
       id="path3809_4_"
       gradientUnits="userSpaceOnUse"
       x1="4.7860999"
       y1="34.351601"
       x2="38.468102"
       y2="14.9053">
      <stop
         offset="0"
         style="stop-color:#612c75"
         id="stop1" />
      <stop
         offset="0.25"
         style="stop-color:#7b5190"
         id="stop2" />
      <stop
         offset="0.5"
         style="stop-color:#bf99c3"
         id="stop3" />
      <stop
         offset="0.75"
         style="stop-color:#7b5190"
         id="stop4" />
      <stop
         offset="1"
         style="stop-color:#612c75"
         id="stop5" />
    </linearGradient>
    <path
       fill="url(#path3809_4_)"
       d="M 21.146,2.164 21.091,2.201 15.133,6.21 15.117,6.219 v 0.02 36.134 0.016 l 0.011,0.011 5.959,5.199 0.06,0.051 0.06,-0.051 5.959,-5.199 0.011,-0.011 V 42.373 6.238 6.218 L 27.161,6.21 21.201,2.201 Z m -8.693,5.661 -0.06,0.058 -10.496,10.023 -0.013,0.013 0.002,0.018 c 1.135,6.807 4.011,10.511 5.754,13.107 0.872,1.298 1.458,2.318 1.411,3.307 -0.046,0.987 -0.723,1.959 -2.401,3.165 l -0.026,0.02 0.018,0.026 c 1.855,3.061 3.929,4.068 5.77,4.386 l 0.042,0.007 V 41.913 7.907 7.825 Z m 17.187,0 v 0.082 34.005 0.042 l 0.042,-0.007 c 1.841,-0.317 3.914,-1.325 5.77,-4.386 l 0.018,-0.026 -0.026,-0.02 c -1.679,-1.206 -2.355,-2.178 -2.401,-3.165 -0.047,-0.988 0.539,-2.009 1.411,-3.307 1.743,-2.597 4.619,-6.301 5.754,-13.107 L 40.21,17.918 40.197,17.905 29.699,7.883 Z"
       id="path5"
       style="fill:url(#path3809_4_)" />
  </g>
</svg>
