<svg xmlns="http://www.w3.org/2000/svg" xmlns:xlink="http://www.w3.org/1999/xlink" width="600" height="602.67"><linearGradient xlink:href="#a" id="c" x1="-940.209" x2="-433.459" y1="604.564" y2="218.85" gradientTransform="translate(976.12 -56.086)" gradientUnits="userSpaceOnUse"/><linearGradient id="a" x1="1.923" x2="45.693" y1="25.039" y2="25.039" gradientUnits="userSpaceOnUse"><stop offset="0" style="stop-color:#536e78"/><stop offset=".3" style="stop-color:#99aebc"/><stop offset=".5" style="stop-color:#d9eaf3"/><stop offset=".7" style="stop-color:#99aebc"/><stop offset="1" style="stop-color:#536e78"/></linearGradient>/&gt;<path d="M174.22 0v54.211l3.875 5.548 59.604 85.67v235.439h-38.9c-73.864-45.317-74.86-156.865-6.446-204.63l17.543-12.243-12.026-17.636-48.6-71.413-12.491-18.349-18.008 12.956C50.166 118.898 4.525 190.494.308 267.922c-3.943 72.399 29.895 147.93 108.638 209.186l-61.03 91.963L25.63 602.67h548.738l-22.285-33.599-61.03-91.963c78.727-61.213 112.585-136.528 108.639-208.721-4.221-77.208-49.888-148.519-118.464-197.842l-17.884-12.894-12.522 18.164-48.601 70.421-12.212 17.698 17.637 12.305c68.414 47.765 67.417 159.312-6.447 204.63H362.3v-235.44l59.604-85.67 3.874-5.548V0H195.856z"/><path d="M195.858 21.635v25.788l63.478 91.25v263.831h-66.454c-92.3-51.13-95.863-186.067-12.894-243.994l-48.601-71.413C2.902 179.511-34.38 351.707 138.33 471.933L65.925 581.036h468.15l-72.403-109.103C634.38 351.707 597.1 180.503 468.614 88.089l-48.601 70.421c82.97 57.926 79.407 192.863-12.894 243.994h-66.453V138.672l63.478-91.25V21.634Z" style="fill:url(#c)"/></svg>