<?xml version="1.0" encoding="UTF-8" standalone="no"?>
<svg
   version="1.1"
   x="0px"
   y="0px"
   width="64.431664"
   height="49.607403"
   viewBox="0 0 64.43166 49.607403"
   id="svg5"
   xmlns="http://www.w3.org/2000/svg"
   xmlns:svg="http://www.w3.org/2000/svg">
  <defs
     id="defs5" />
  <path
     d="m 0,0 0.0585938,2.6367187 c 0.0182357,0.8038379 0.1334198,2.0080111 0.9746094,3.1328125 1.5811419,2.3698549 3.2202416,4.0528315 3.8554687,5.7285158 l 0.021484,0.05859 0.025391,0.05859 c 0.7030562,1.608177 0.8043554,3.663482 0.7636719,5.970703 -0.082344,2.393307 -1.5364634,5.618256 -0.8203125,9.673828 0.6251376,3.550872 3.0155825,5.988147 5.0820315,7.808594 l 0.0039,0.0039 0.0039,0.0039 c 5.8128532,5.075414 12.3389812,9.124798 18.9570312,12.72461 1.106799,0.602161 3.320313,1.80664 3.320313,1.80664 0,0 2.213698,-1.204141 3.320313,-1.80664 6.618051,-3.599811 13.144178,-7.649196 18.957031,-12.72461 l 0.0059,-0.0039 0.0039,-0.0039 c 2.066449,-1.820447 4.456895,-4.257721 5.082032,-7.808594 v -0.0039 c 0.71528,-4.058375 -0.743061,-7.28634 -0.822266,-9.679688 -0.04019,-2.302996 0.06167,-4.355175 0.763672,-5.960937 l 0.02539,-0.05859 0.02344,-0.05859 c 0.636447,-1.678902 2.275072,-3.362623 3.857422,-5.7363283 0.835818,-1.1225292 0.950557,-2.3230397 0.96875,-3.125 V 0.00391225 L 43.474635,0.02930288 37.08401,4.5234435 l 0.5,1.7597656 c 0.52676,1.8485206 0.337705,3.8699379 -0.609375,5.2558599 l -0.02148,0.03125 -0.02148,0.0332 c -0.588897,0.920546 -1.755718,1.63784 -2.996094,1.833984 -1.63035,0.232817 -1.628554,0.241567 -3.380859,0 -1.240116,-0.196102 -2.402506,-0.912211 -2.992188,-1.833984 l -0.02148,-0.0332 -0.02148,-0.03125 C 26.571851,10.152285 26.379836,8.1305112 26.90625,6.2832031 L 27.408203,4.5234375 21.017578,0.02929688 Z"
     id="path1" />
  <linearGradient
     id="path3355_4_"
     gradientUnits="userSpaceOnUse"
     x1="27.3613"
     y1="634.41107"
     x2="62.553799"
     y2="581.91248"
     gradientTransform="matrix(1,0,0,-1,-9.3794312,625.08009)">
    <stop
       offset="0"
       style="stop-color:#8b723c"
       id="stop1" />
    <stop
       offset="0.4"
       style="stop-color:#d2bb7b"
       id="stop2" />
    <stop
       offset="0.5"
       style="stop-color:#ebd491"
       id="stop3" />
    <stop
       offset="0.6"
       style="stop-color:#d2bb7b"
       id="stop4" />
    <stop
       offset="1"
       style="stop-color:#8b723c"
       id="stop5" />
  </linearGradient>
  <path
     fill="url(#path3355_4_)"
     d="m 2.6334688,2.578784 c 0.013242,0.5837134 0.1025011,1.1740925 0.4628906,1.6528349 1.395176,2.1185476 3.2867538,3.9458208 4.1992187,6.3528391 0.9720165,2.2234 1.0214874,4.685525 0.9785157,7.069591 -0.099237,3.069555 -1.4048729,6.068013 -0.859375,9.157175 0.4562093,2.597224 2.327265,4.633302 4.2480472,6.325423 5.603838,4.892916 11.964791,8.850574 18.49414,12.402137 l -0.0039,-29.557153 C 28.245344,15.679968 26.437967,14.624348 25.393234,12.991253 23.918657,10.833414 23.72946,8.0365564 24.430344,5.5769952 L 20.201828,2.602284 Z m 59.2246092,0 -17.566406,0.023499 -4.230469,2.9747112 c 0.700884,2.4595612 0.51364,5.2564188 -0.960937,7.4142588 -1.044733,1.633095 -2.854063,2.688715 -4.761719,2.990378 l -0.002,29.557152 c 6.529349,-3.551562 12.890302,-7.509221 18.49414,-12.402137 1.920782,-1.692121 3.791838,-3.728199 4.248047,-6.325422 0.545498,-3.089163 -0.760138,-6.087621 -0.859375,-9.157176 -0.04297,-2.384065 0.0065,-4.84619 0.978516,-7.06959 C 58.11034,8.1774387 59.999964,6.3501655 61.39514,4.2316179 61.755529,3.7528755 61.844789,3.1624964 61.858031,2.578783 Z"
     id="path5"
     style="fill:url(#path3355_4_)" />
</svg>
