<?xml version="1.0" encoding="UTF-8" standalone="no"?>
<svg
   version="1.1"
   x="0px"
   y="0px"
   width="59.224609"
   height="42.959999"
   viewBox="0 0 59.224606 42.959999"
   id="svg1"
   xmlns="http://www.w3.org/2000/svg"
   xmlns:svg="http://www.w3.org/2000/svg">
  <defs
     id="defs1" />
  <path
     d="m 0,1e-6 C 0.013242,0.5837144 0.1025011,1.1740935 0.4628906,1.6528359 1.8580666,3.7713835 3.7496444,5.5986567 4.6621093,8.0056746 5.6341258,10.229075 5.6835967,12.6912 5.640625,15.075266 5.541388,18.144821 4.2357521,21.143279 4.78125,24.232441 c 0.4562093,2.597224 2.327265,4.633302 4.248047,6.325423 5.603838,4.892916 11.964791,8.850574 18.49414,12.402137 l -0.0039,-29.557153 C 25.611875,13.101185 23.804498,12.045565 22.759765,10.41247 21.285188,8.2546306 21.095991,5.4577734 21.796875,2.9982122 L 17.568359,0.023501 Z m 59.224609,0 L 41.658203,0.0235 37.427734,2.9982112 c 0.700884,2.4595612 0.51364,5.2564184 -0.960937,7.4142588 -1.044733,1.633095 -2.854063,2.688715 -4.761719,2.990378 L 31.703078,42.96 C 38.232427,39.408438 44.59338,35.450779 50.197218,30.557863 52.118,28.865742 53.989056,26.829664 54.445265,24.232441 54.990763,21.143278 53.685127,18.14482 53.58589,15.075265 53.54292,12.6912 53.59239,10.229075 54.564406,8.0056746 55.476871,5.5986557 57.366495,3.7713825 58.761671,1.6528349 59.12206,1.1740925 59.21132,0.5837134 59.224562,0 Z"
     id="path1" />
</svg>
