<?xml version="1.0" encoding="UTF-8" standalone="no"?>
<svg
   id="Layer_2"
   data-name="Layer 2"
   viewBox="0 0 1080.35 635.88"
   version="1.1"
   width="1080.35"
   height="635.88"
   xmlns="http://www.w3.org/2000/svg"
   xmlns:svg="http://www.w3.org/2000/svg">
  <defs
     id="defs15">
    <style
       id="style1">
      .cls-1, .cls-2 {
        fill-rule: evenodd;
        stroke-width: 0px;
      }

      .cls-2 {
        fill: url(#linear-gradient);
      }
    </style>
    <linearGradient
       id="linear-gradient"
       x1="-414.01999"
       y1="859.88"
       x2="-413.01999"
       y2="859.88"
       gradientTransform="matrix(1008.69,0,0,-524.42,417658.38,451238.69)"
       gradientUnits="userSpaceOnUse">
      <stop
         offset="0"
         stop-color="#8d742f"
         id="stop1" />
      <stop
         offset=".07"
         stop-color="#967d38"
         id="stop2" />
      <stop
         offset=".18"
         stop-color="#ae954f"
         id="stop3" />
      <stop
         offset=".2"
         stop-color="#b39a54"
         id="stop4" />
      <stop
         offset=".22"
         stop-color="#b9a059"
         id="stop5" />
      <stop
         offset=".3"
         stop-color="#cab068"
         id="stop6" />
      <stop
         offset=".39"
         stop-color="#d4ba71"
         id="stop7" />
      <stop
         offset=".5"
         stop-color="#d7bd74"
         id="stop8" />
      <stop
         offset=".61"
         stop-color="#d4ba71"
         id="stop9" />
      <stop
         offset=".7"
         stop-color="#cab068"
         id="stop10" />
      <stop
         offset=".78"
         stop-color="#b9a059"
         id="stop11" />
      <stop
         offset=".8"
         stop-color="#b39a54"
         id="stop12" />
      <stop
         offset=".86"
         stop-color="#a38a45"
         id="stop13" />
      <stop
         offset=".94"
         stop-color="#937a35"
         id="stop14" />
      <stop
         offset="1"
         stop-color="#8d742f"
         id="stop15" />
    </linearGradient>
  </defs>
  <g
     id="Layer_1-2"
     data-name="Layer 1"
     transform="translate(-0.01)">
    <g
       id="g16">
      <path
         class="cls-1"
         d="M 540,474.74 513.6,419.86 C 492.68,376.36 464.64,338.34 429.37,305.88 L 406.57,284.89 428.49,263 c 32,-31.93 60.52,-71.29 85.76,-117.84 L 539.99,97.7 v -0.68 l 0.18,0.35 0.19,-0.35 v 0.68 l 25.73,47.46 c 25.25,46.55 53.77,85.91 85.76,117.84 l 21.94,21.89 -22.81,20.99 c -35.27,32.46 -63.3,70.48 -84.23,113.98 l -26.39,54.88 v 0.77 l -0.19,-0.38 -0.18,0.38 v -0.77 0 z M 258.53,11.76 c 82.45,28.12 150,66.34 204.48,108.42 l 19.56,15.12 -11.32,21.97 c -24.72,48.06 -56.9,90.25 -96.65,126.5 64.25,59.66 112.64,123.29 140.72,191.65 l 2.23,5.42 V 635.87 L 466.86,585.3 C 385.56,504.19 291.42,452.33 184.64,429.23 l -28.81,-6.24 6.02,-28.86 C 186.08,277.91 204.1,158.29 219.46,36.16 L 224.03,0 Z M 107.32,89.11 c 18.76,2.08 36.95,7.63 54.76,15.35 l 22,9.53 -66.16,332.46 c 111.86,12.2 217.96,81.44 277.15,147.16 C 281.63,544.75 152.2,523.67 0.01,542.12 l 79.57,-456.09 27.73,3.08 v 0 z M 821.83,11.76 856.33,0 l 4.55,36.17 c 15.37,122.14 33.38,241.75 57.62,357.97 l 6.01,28.86 -28.81,6.24 C 788.92,452.34 694.78,504.2 613.48,585.31 L 562.8,635.88 V 480.85 l 2.22,-5.42 C 593.11,407.07 641.5,343.44 705.76,283.78 666,247.53 633.82,205.34 609.1,157.28 l -11.3,-21.97 19.56,-15.12 C 671.84,78.11 739.38,39.89 821.83,11.77 v 0 z m 151.21,77.35 27.74,-3.08 79.58,456.08 c -152.2,-18.44 -281.64,2.63 -395.08,51.49 59.2,-65.71 165.29,-134.95 277.15,-147.16 l -66.16,-332.46 22,-9.53 c 17.82,-7.72 36.01,-13.27 54.76,-15.35 z"
         id="path15" />
      <path
         class="cls-2"
         d="m 540.37,406.99 c -22.57,-46.92 -52.84,-87.94 -90.89,-122.95 33.88,-33.82 64.15,-75.42 90.89,-124.7 26.72,49.28 57,90.89 90.88,124.7 -38.04,35.02 -68.3,76.03 -90.88,122.95 z M 248.95,39.88 c 78.97,26.93 143.7,63.49 195.89,103.81 -28.12,54.65 -66.56,101.2 -115.52,139.48 73.28,62.92 128.41,130.21 158.54,203.56 V 564.3 C 402.34,478.98 303.25,424.52 190.94,400.22 215.34,283.23 233.48,162.82 248.95,39.88 Z m -144.91,78.75 c 15.84,1.75 31.18,6.55 46.22,13.08 L 82.23,473.55 c 77.41,2.9 143.52,25.58 202.32,61.04 C 206.8,509.86 124.61,499.05 36.02,508.43 Z M 831.79,39.88 C 847.25,162.82 865.4,283.23 889.8,400.22 777.48,424.52 678.41,478.98 592.88,564.3 V 486.73 C 623,413.39 678.13,346.09 751.41,283.17 702.46,244.89 664,198.34 635.89,143.69 688.08,103.37 752.81,66.81 831.79,39.88 Z m 144.9,78.75 68.02,389.81 c -88.6,-9.38 -170.77,1.43 -248.53,26.16 58.81,-35.46 124.91,-58.14 202.32,-61.04 L 930.48,131.72 c 15.04,-6.53 30.37,-11.33 46.21,-13.08 v 0 z"
         id="path16"
         style="fill:url(#linear-gradient)" />
    </g>
  </g>
</svg>
