<?xml version="1.0" encoding="UTF-8"?>
<svg id="Layer_2" data-name="Layer 2" xmlns="http://www.w3.org/2000/svg" xmlns:xlink="http://www.w3.org/1999/xlink" viewBox="0 0 1080.37 635.88">
  <defs>
    <style>
      .cls-1, .cls-2 {
        fill-rule: evenodd;
        stroke-width: 0px;
      }

      .cls-2 {
        fill: url(#linear-gradient);
      }
    </style>
    <linearGradient id="linear-gradient" x1="-414.02" y1="859.88" x2="-413.02" y2="859.88" gradientTransform="translate(417658.38 451238.69) scale(1008.69 -524.42)" gradientUnits="userSpaceOnUse">
      <stop offset="0" stop-color="#8d742f"/>
      <stop offset=".07" stop-color="#967d38"/>
      <stop offset=".18" stop-color="#ae954f"/>
      <stop offset=".2" stop-color="#b39a54"/>
      <stop offset=".22" stop-color="#b9a059"/>
      <stop offset=".3" stop-color="#cab068"/>
      <stop offset=".39" stop-color="#d4ba71"/>
      <stop offset=".5" stop-color="#d7bd74"/>
      <stop offset=".61" stop-color="#d4ba71"/>
      <stop offset=".7" stop-color="#cab068"/>
      <stop offset=".78" stop-color="#b9a059"/>
      <stop offset=".8" stop-color="#b39a54"/>
      <stop offset=".86" stop-color="#a38a45"/>
      <stop offset=".94" stop-color="#937a35"/>
      <stop offset="1" stop-color="#8d742f"/>
    </linearGradient>
  </defs>
  <g id="Layer_1-2" data-name="Layer 1">
    <g>
      <path class="cls-1" d="M540,474.74l-26.4-54.88c-20.92-43.5-48.96-81.52-84.23-113.98l-22.8-20.99,21.92-21.89c32-31.93,60.52-71.29,85.76-117.84l25.74-47.46v-.68l.18.35.19-.35v.68l25.73,47.46c25.25,46.55,53.77,85.91,85.76,117.84l21.94,21.89-22.81,20.99c-35.27,32.46-63.3,70.48-84.23,113.98l-26.39,54.88v.77l-.19-.38-.18.38v-.77h0ZM258.53,11.76c82.45,28.12,150,66.34,204.48,108.42l19.56,15.12-11.32,21.97c-24.72,48.06-56.9,90.25-96.65,126.5,64.25,59.66,112.64,123.29,140.72,191.65l2.23,5.42v155.03l-50.69-50.57c-81.3-81.11-175.44-132.97-282.22-156.07l-28.81-6.24,6.02-28.86c24.23-116.22,42.25-235.84,57.61-357.97L224.03,0l34.5,11.76h0ZM107.32,89.11c18.76,2.08,36.95,7.63,54.76,15.35l22,9.53-66.16,332.46c111.86,12.2,217.96,81.44,277.15,147.16-113.44-48.86-242.87-69.94-395.06-51.49L79.58,86.03l27.73,3.08h0ZM821.83,11.76l34.5-11.76,4.55,36.17c15.37,122.14,33.38,241.75,57.62,357.97l6.01,28.86-28.81,6.24c-106.78,23.1-200.92,74.96-282.22,156.07l-50.68,50.57v-155.03l2.22-5.42c28.09-68.36,76.48-131.99,140.74-191.65-39.76-36.25-71.94-78.44-96.66-126.5l-11.3-21.97,19.56-15.12c54.48-42.08,122.02-80.3,204.47-108.42h0ZM973.04,89.11l27.74-3.08,79.58,456.08c-152.2-18.44-281.64,2.63-395.08,51.49,59.2-65.71,165.29-134.95,277.15-147.16l-66.16-332.46,22-9.53c17.82-7.72,36.01-13.27,54.76-15.35Z"/>
      <path class="cls-2" d="M540.37,406.99c-22.57-46.92-52.84-87.94-90.89-122.95,33.88-33.82,64.15-75.42,90.89-124.7,26.72,49.28,57,90.89,90.88,124.7-38.04,35.02-68.3,76.03-90.88,122.95h0ZM248.95,39.88c78.97,26.93,143.7,63.49,195.89,103.81-28.12,54.65-66.56,101.2-115.52,139.48,73.28,62.92,128.41,130.21,158.54,203.56v77.57c-85.52-85.32-184.61-139.78-296.92-164.08,24.4-116.99,42.54-237.4,58.01-360.34h0ZM104.04,118.63c15.84,1.75,31.18,6.55,46.22,13.08l-68.03,341.84c77.41,2.9,143.52,25.58,202.32,61.04-77.75-24.73-159.94-35.54-248.53-26.16L104.04,118.63h0ZM831.79,39.88c15.46,122.94,33.61,243.35,58.01,360.34-112.32,24.3-211.39,78.76-296.92,164.08v-77.57c30.12-73.34,85.25-140.64,158.53-203.56-48.95-38.28-87.41-84.83-115.52-139.48,52.19-40.32,116.92-76.88,195.9-103.81h0ZM976.69,118.63l68.02,389.81c-88.6-9.38-170.77,1.43-248.53,26.16,58.81-35.46,124.91-58.14,202.32-61.04l-68.02-341.84c15.04-6.53,30.37-11.33,46.21-13.08h0Z"/>
    </g>
  </g>
</svg>