<?xml version="1.0" encoding="UTF-8" standalone="no"?>
<svg
   id="Layer_2"
   data-name="Layer 2"
   viewBox="0 0 1008.69 524.42001"
   version="1.1"
   width="1008.69"
   height="524.41998"
   xmlns="http://www.w3.org/2000/svg"
   xmlns:svg="http://www.w3.org/2000/svg">
  <defs
     id="defs1">
    <style
       id="style1">
      .cls-1 {
        fill-rule: evenodd;
        stroke-width: 0px;
      }
    </style>
  </defs>
  <g
     id="Layer_1-2"
     data-name="Layer 1">
    <path
       class="cls-1"
       d="m 504.35,367.12 c -22.57,-46.92 -52.84,-87.94 -90.89,-122.95 33.88,-33.82 64.15,-75.42 90.89,-124.7 26.72,49.28 57,90.89 90.88,124.7 -38.04,35.02 -68.3,76.03 -90.88,122.95 z M 212.93,0 c 78.97,26.93 143.7,63.49 195.9,103.81 -28.13,54.65 -66.58,101.2 -115.54,139.48 73.28,62.92 128.41,130.21 158.54,203.56 v 77.57 C 366.31,439.1 267.22,384.64 154.91,360.34 179.32,243.35 197.46,122.94 212.93,0 Z M 68.02,78.76 c 15.84,1.75 31.18,6.55 46.22,13.08 L 46.21,433.68 c 77.41,2.9 143.52,25.58 202.32,61.04 C 170.78,469.99 88.59,459.18 0,468.56 Z M 795.77,0 c 15.46,122.94 33.61,243.35 58.01,360.34 -112.32,24.3 -211.39,78.76 -296.92,164.08 V 446.85 C 586.98,373.51 642.11,306.21 715.39,243.29 666.44,205.01 627.98,158.46 599.87,103.81 652.06,63.49 716.78,26.93 795.77,0 Z m 144.9,78.76 68.02,389.81 c -88.6,-9.38 -170.77,1.43 -248.53,26.16 58.81,-35.46 124.91,-58.14 202.32,-61.04 L 894.46,91.85 c 15.04,-6.53 30.37,-11.33 46.21,-13.08 v 0 z"
       id="path1" />
  </g>
</svg>
