<svg xmlns="http://www.w3.org/2000/svg" xml:space="preserve" width="150" height="127.134"><g transform="translate(-4.734 -2.296)"><path d="M60.814 112.452a50 50 0 0 1-4.962-1.44l-12.628 11.914L20.46 104.71l8.967-15.118a50 50 0 0 1-2.42-4.506L9.56 84.579 6.344 55.601l17.474-4.463a50 50 0 0 1 1.729-5.395L4.734 2.316l31.327 25.449 9.151-11.435 15.486 9.185a51 51 0 0 1 4.129-2.313l.514-17.692L94.32 2.296l4.336 16.975q2.519.592 4.961 1.441l12.629-11.915 22.764 18.217-8.967 15.117a50 50 0 0 1 2.42 4.505l17.447.508 3.216 28.978-17.474 4.463a50 50 0 0 1-1.729 5.396l20.811 43.428-31.326-25.45-9.15 11.436-15.486-9.185a51 51 0 0 1-4.129 2.312l-.515 17.693-28.979 3.215z"/><linearGradient id="a" x1="34.073" x2="125.398" y1="111.524" y2="20.2" gradientUnits="userSpaceOnUse"><stop offset="0" style="stop-color:#bb2c26"/><stop offset=".059" style="stop-color:#c43e25"/><stop offset=".177" style="stop-color:#db6e23"/><stop offset=".2" style="stop-color:#e07823"/><stop offset=".383" style="stop-color:#f18f1f"/><stop offset=".5" style="stop-color:#f7981d"/><stop offset=".617" style="stop-color:#f18f1f"/><stop offset=".8" style="stop-color:#e07823"/><stop offset=".823" style="stop-color:#db6e23"/><stop offset=".941" style="stop-color:#c43e25"/><stop offset="1" style="stop-color:#bb2c26"/></linearGradient><path fill="url(#a)" d="m80.963 63.792-11.037-8.966c3.97-5.186 10.22-8.532 17.254-8.532 11.996 0 21.721 9.724 21.721 21.721a21.63 21.63 0 0 1-5.279 14.185l-11.04-8.97a7.48 7.48 0 0 0 2.113-5.216 7.515 7.515 0 0 0-13.732-4.222m-8.672 7.433a7.517 7.517 0 0 1-7.517-7.516c0-2.028.808-3.865 2.113-5.217l-11.039-8.968a21.63 21.63 0 0 0-5.278 14.185c0 11.996 9.725 21.721 21.721 21.721 7.033 0 13.283-3.348 17.254-8.532l-11.037-8.966a7.51 7.51 0 0 1-6.217 3.293m56.809 14.9a45.2 45.2 0 0 0 2.855-9.149l16.363-4.179-2.369-21.355-16.405-.477a45.5 45.5 0 0 0-4.687-8.739l8.402-14.164-16.777-13.425-11.848 11.179a45.4 45.4 0 0 0-9.57-2.777L90.996 7.103l-21.355 2.37-.482 16.582a45.6 45.6 0 0 0-8.326 4.669L46.261 22.08l-6.556 8.193 24.07 19.556C69.2 42.858 77.663 38.37 87.18 38.37c16.372 0 29.645 13.271 29.645 29.645a29.5 29.5 0 0 1-7.051 19.182l32.49 26.396zM17.206 18.132l32.491 26.395a29.52 29.52 0 0 0-7.051 19.183c0 16.373 13.271 29.645 29.645 29.645 9.516 0 17.979-4.489 23.403-11.46l24.071 19.555-6.557 8.193L98.639 101a45.7 45.7 0 0 1-8.327 4.669l-.482 16.582-21.354 2.369-4.07-15.935a45.3 45.3 0 0 1-9.569-2.779l-11.849 11.18-16.775-13.424 8.401-14.165a45.6 45.6 0 0 1-4.687-8.738l-16.405-.478-2.369-21.354 16.364-4.18a45.4 45.4 0 0 1 2.854-9.148z" style="fill:url(#a)"/></g></svg>