<svg xmlns="http://www.w3.org/2000/svg" xml:space="preserve" width="150" height="128.513"><path d="m76.343 61.994-12.07-9.805c4.341-5.671 11.175-9.331 18.868-9.331 13.118 0 23.753 10.633 23.753 23.752a23.65 23.65 0 0 1-5.773 15.512l-12.072-9.807a8.18 8.18 0 0 0 2.311-5.704 8.217 8.217 0 0 0-8.219-8.218 8.2 8.2 0 0 0-6.798 3.601m-9.483 8.128a8.22 8.22 0 0 1-8.22-8.219c0-2.218.883-4.227 2.311-5.705l-12.072-9.807a23.66 23.66 0 0 0-5.772 15.512c0 13.118 10.634 23.753 23.753 23.753 7.691 0 14.525-3.661 18.868-9.331l-12.07-9.805a8.21 8.21 0 0 1-6.798 3.602m62.123 16.294a49.5 49.5 0 0 0 3.123-10.005L150 71.841l-2.59-23.353-17.94-.521a50 50 0 0 0-5.125-9.557l9.188-15.489-18.347-14.682-12.957 12.225a49.6 49.6 0 0 0-10.465-3.037L87.315 0 63.961 2.592l-.528 18.133a50 50 0 0 0-9.105 5.105l-15.935-9.452-7.169 8.96 26.322 21.385C63.478 39.1 72.733 34.192 83.14 34.192c17.904 0 32.418 14.513 32.418 32.417a32.28 32.28 0 0 1-7.71 20.977l35.529 28.865zM6.621 12.062l35.531 28.863a32.28 32.28 0 0 0-7.71 20.978c0 17.904 14.513 32.418 32.418 32.418 10.405 0 19.66-4.909 25.593-12.532l26.323 21.384-7.17 8.96-15.934-9.45a50 50 0 0 1-9.106 5.106l-.527 18.133-23.353 2.591-4.451-17.425a49.5 49.5 0 0 1-10.465-3.04l-12.957 12.226-18.345-14.68 9.188-15.49a49.8 49.8 0 0 1-5.125-9.556l-17.94-.523L0 56.673l17.895-4.571a49.6 49.6 0 0 1 3.121-10.004z"/></svg>