<svg xmlns="http://www.w3.org/2000/svg" xmlns:xlink="http://www.w3.org/1999/xlink" width="600" height="589.331"><linearGradient id="a" x1="0" x2="1" y1="0" y2="0" gradientTransform="matrix(-29.6732 17.13184 17.13184 29.67322 233.182 22.624)" gradientUnits="userSpaceOnUse" spreadMethod="pad"><stop offset="0" style="stop-color:#bf331c"/><stop offset=".3" style="stop-color:#d3641c"/><stop offset=".5" style="stop-color:#f6b91d"/><stop offset=".7" style="stop-color:#d3641c"/><stop offset="1" style="stop-color:#bf331c"/></linearGradient><linearGradient xlink:href="#a" id="b" x1="0" x2="1" y1="0" y2="0" gradientTransform="matrix(-437.18375 -252.40823 252.40823 -437.18399 554.937 442.882)" gradientUnits="userSpaceOnUse" spreadMethod="pad"/><path d="M599.96 331.558c-.34-25.43-4.479-72.856-26.991-105.947-27.787-40.973-66.006-46.395-66.006-46.395s10.594 41.209 2.991 66.992c-5.702 19.463-18.136 35.625-28.833 45.408a130.7 130.7 0 0 1-26.593 18.947l-11.39-9.326c-10.475-8.516-17.267-18.02-20.095-28.2-3.212-11.462-1.724-24.413 3.639-31.426 3.108-4.037 8.737-7.823 14.777-11.86 5.643-3.801 12.037-8.06 17.842-13.584 19.11-18.181 29.423-48.163 26.83-78.322-2.078-24.576-12.553-48.458-31.883-72.915-20.317-25.725-44.775-44.613-70.735-54.676C366.01 3.462 346.563 0 325.788 0c-55.883 0-82.418 22.159-82.418 22.159s31.662 2.475 66.654 26.358c14.954 10.195 27.507 22.394 35.05 37.363 6.497 12.995 8.737 25.371 5.982 33.15-3.109 8.62-14.792 17.606-29.703 22.837-9.031 3.167-18.652 4.67-28.715 6.276-11.05 1.724-22.453 3.566-33.901 7.661-18.019 6.439-35.743 18.58-52.775 36.141-1.208-11.344-.515-22.969 2.137-33.96 3.212-13.407 10.298-26.24 18.24-39.19 22.335-36.318 50.535-60.319 50.535-60.319s-43.405-3.86-85.984 24.973c-21.702 14.734-41.96 31.088-58.358 50.315-28.038 32.796-46.395 72.104-53.07 113.711-8.633 54.336 3.11 109.174 31.485 146.758a160 160 0 0 0 15.19 17.15c-1.03.059-2.018.059-2.99.059-.93 0-1.842 0-2.756-.06-13.009-.457-26.534-4.316-40.177-11.565C25.023 370.233 1.42 316.132 1.42 316.132s-13.01 69.939 39.721 139.922c19.33 25.724 38.955 46.896 61.114 60.878 28.317 17.842 60.892 25.783 82.875 30.395 23.543 4.95 40.752 8.177 47.883 9.43 11.344 9.266 24.06 16.869 37.805 22.335a146 146 0 0 0 53.762 10.24c13.864 0 27.802-1.945 41.21-6.041 11.506-3.448 22.497-8.34 32.736-14.439 13.585-1.62 55.663-8.87 99.568-38.16 38.277-25.547 68.377-60.376 83.92-99.449 12.937-32.752 18.52-63.485 17.946-99.685"/><path d="M300.064 21.525c25.842 10.535 49.15 29.07 62.44 55.545 7.882 15.543 12.258 33.783 6.968 48.575-5.878 16.34-23.602 28.377-41.606 34.697-21.305 7.426-42.948 6.851-62.514 13.88-18.24 6.555-34.638 19.727-48.575 34.696-.796.928-1.665 1.842-2.476 2.77.413 1.37.929 2.696 1.444 4.022 12.14 31.426 41.548 53.526 73.033 63.191a172 172 0 0 0 6.851 1.9c47.589-8.692 96.577 4.612 133.115 36.26l2.019-.634c-12.376-10.019-22.277-22.793-26.594-38.1-4.597-16.458-2.696-35.906 6.97-48.576 8.75-11.507 23.823-17.489 34.637-27.802 16.06-15.249 22.734-39.986 20.848-62.44-2.019-23.308-13.304-44.14-27.743-62.44-16.752-21.186-37.88-39.028-62.454-48.575-15.942-6.158-33.312-8.913-50.639-8.913-8.692 0-17.326.677-25.724 1.944M147.427 146.478c-25.09 29.29-42.358 65.092-48.56 104.047-7.323 45.761.574 95.943 27.727 131.863 10.711 14.144 24.413 26.122 39.25 35.905a160.5 160.5 0 0 1 29.938-75.17 160.2 160.2 0 0 1 62.896-50.815c-.059-.059-.177-.059-.22-.117-26.992-13.408-50.256-35.272-62.455-62.44-10.638-23.588-12.995-51.11-6.954-76.363 6.38-26.652 22.1-50.77 41.665-69.35-31.485 14.557-60.612 35.847-83.287 62.44m381.636 104.047c-4.773 21.363-18.24 40.398-34.711 55.544-13.923 12.833-30.041 22.793-47.309 29.585 23.942 28.715 37.01 64.915 37.01 102.263 0 33.96-10.755 67.052-30.851 94.44 11.86-5.067 23.367-11.05 34.255-18.121 33.783-21.938 61.924-53.924 76.303-90.183 11.978-30.1 17.15-58.24 16.634-92.2-.457-32.119-6.276-69.984-23.544-95.192-7.366-10.652-17.252-19.979-27.787-27.743 2.638 13.643 3.11 28.082 0 41.607m-226.126 71.25c-26.756 4.73-51.567 18.078-70.042 38.041-18.181 19.566-29.806 44.716-32.693 71.31-3.05 27.978 3.462 56.693 18.534 80.517 14.041 22.1 34.992 39.588 59.346 49.268 26.004 10.298 55.309 11.742 82.123 3.683 24.973-7.543 47.486-23.028 63.368-43.743 16.575-21.702 25.783-48.752 25.783-75.965 0-46.336-26.593-89.843-67.743-111.015-17.725-9.208-37.526-13.938-57.387-13.938-7.13 0-14.202.634-21.29 1.842M57.187 444.886c15.145 21.688 33.562 41.607 55.544 55.471 22.734 14.395 49.327 22.277 76.319 27.802 1.37.236 2.696.515 4.08.81-17.09-24.693-26.932-53.644-28.317-83.626a210 210 0 0 1-24-15.824c-7.013 1.209-14.159 1.724-21.113 1.43-16.929-.634-33.562-5.864-48.635-13.864-19.109-10.078-35.743-24.576-48.575-41.607 7.941 24.634 19.742 47.883 34.697 69.408" style="fill:url(#b)"/></svg>