<svg xmlns="http://www.w3.org/2000/svg" width="299.998" height="286.01"><path fill="gray" d="M128.79 31.102c-6.738 12.638-11.13 25.241-13.099 37.366-9.787-.014-14.938.657-14.938.657-1.766.076-42.32 2.379-73.405 39.29C-1.214 142.354-.342 176.403.145 182.879l1.36 18.832s29.67-26.949 63.715-28.358c39.193.018 71.06 28.569 78.72 65.732 3.391 16.785 1.174 46.925 1.174 46.925s18.504-11.792 27.427-31.083c7.721-16.587 9.954-23.594 11.902-35.372 11.182 1.2 14.822-.031 14.822-.031 1.646-.1 42.321-2.379 73.383-39.37 28.44-33.765 27.64-67.861 27.238-74.332l-1.346-18.779-14.928 11.485c-14.182 10.889-31.078 16.721-48.89 16.702-41.2.009-74.085-31.501-79.482-71.54-2.02-15.277.205-43.69.205-43.69s-18.457 15.777-26.656 31.102"/><path d="M35.063 114.93C8.8 146.126 9.861 177.175 10.203 182.158c15.182-11.809 34.304-18.861 55.032-18.857 49.702-.019 90.032 40.328 90.038 90.09.01 4.053-.336 8.058-.82 12.072l.027-.007c14.628-21.387 31.837-57.7 12.228-92.994-15.514-28.055-30.102-18.475-51.23-46.529-16.598-21.838-14.313-46.751-14.313-46.751s-5.604.254-14.175 2.55c-13.545 3.631-34.426 12.374-51.927 33.198m98.204 1.304c15.507 28.028 30.035 18.436 51.215 46.475 16.546 21.852 14.28 46.731 14.28 46.731s37.562-1.728 66.21-35.774c26.243-31.163 25.187-62.298 24.853-67.142-15.316 11.731-34.37 18.822-55.134 18.799-49.589.016-89.97-40.316-89.964-90.026.004-4.113.301-8.191.825-12.159-14.68 21.402-31.86 57.708-12.285 93.096"/></svg>