<?xml version="1.0" encoding="UTF-8" standalone="no"?>
<svg
   version="1.1"
   x="0px"
   y="0px"
   width="897.03436"
   height="896.9975"
   id="svg10"
   xmlns="http://www.w3.org/2000/svg"
   xmlns:svg="http://www.w3.org/2000/svg">
  <defs
     id="defs10" />
  <linearGradient
     id="SVGID_1_"
     gradientUnits="userSpaceOnUse"
     x1="195.6636"
     y1="654.85791"
     x2="790.41272"
     y2="311.4794"
     gradientTransform="translate(-0.00152352,-5.8564714e-4)">
    <stop
       offset="0.05"
       style="stop-color:#BF331C"
       id="stop1" />
    <stop
       offset="0.1444"
       style="stop-color:#CE4E1C"
       id="stop2" />
    <stop
       offset="0.3"
       style="stop-color:#E4761D"
       id="stop3" />
    <stop
       offset="0.424"
       style="stop-color:#F18E1D"
       id="stop4" />
    <stop
       offset="0.5"
       style="stop-color:#F6971D"
       id="stop5" />
    <stop
       offset="0.576"
       style="stop-color:#F18E1D"
       id="stop6" />
    <stop
       offset="0.7"
       style="stop-color:#E4761D"
       id="stop7" />
    <stop
       offset="0.8556"
       style="stop-color:#CE4E1C"
       id="stop8" />
    <stop
       offset="0.95"
       style="stop-color:#BF331C"
       id="stop9" />
  </linearGradient>
  <path
     d="m 373.28348,5.9994144 c 95.199,-14.961 196.078,-2.402 281.84,42.8789996 114.16,57.437996 200.559,166.960996 229.598,291.437996 23.441,101.281 13.84,210.961 -32.48,304.563 -60.398,125.598 -182.637,219.438 -319.918,244.48 -115.359,21.277 -239.281,-2 -336.48,-68.563 -72.641,-50.32 -131.840003,-121.117 -164.160003,-203.68 -52,-130.641 -39.8400005,-285.68 35.359,-404.957 C 133.44348,103.83841 247.84148,26.475414 373.28348,5.9994144 Z"
     id="path9" />
  <path
     fill="url(#SVGID_1_)"
     d="m 809.61148,411.68241 c -6.31,-78.085 -40.176,-152.705 -92.347,-210.853 0.191,0.123 0.386,0.245 0.577,0.369 -48.801,-31.441 -104.559,-59.199 -163.84,-58 80.32,37.598 151.68,95.52 200.879,169.68 -116.879,-77.199 -258.078,-125.68 -399.359,-111.602 148.398,47.922 290.48,137.359 370.48,274.883 -122.879,-71.281 -258,-133.684 -402.801,-134.723 -27.281,2.723 -56.879,0.242 -81.441,14.082 129.441,24.398 258.563,92.238 330.242,205.918 -67.602,-41.277 -144.641,-71.121 -224.719,-70.559 -61.121,0.48 -120.961,22.48 -168.883,60 108.724,-19.039 231.122,48.879 266.083,155.122 -40.879,-33.441 -89.84,-66.16 -145.281,-59.762 -30,1.359 -65.758,20 -66.961,53.52 -2.593,24.624 15.928,43.141 28.108,62.313 100.451,59.036 230.262,68.402 337.103,19.852 100.961,-44.797 179.121,-137.758 204.402,-245.438 10.957,-40.642 8.719,-83.2 7.758,-124.802 z"
     id="path10"
     style="fill:url(#SVGID_1_)" />
</svg>
