<?xml version="1.0" encoding="UTF-8" standalone="no"?>
<svg
   version="1.1"
   x="0px"
   y="0px"
   width="897.0332"
   height="896.99597"
   id="svg1"
   xmlns="http://www.w3.org/2000/svg"
   xmlns:svg="http://www.w3.org/2000/svg">
  <defs
     id="defs1" />
  <path
     d="M 445.42162,0.0199469 C 421.23682,0.23891564 397.0827,2.2582125 373.28295,5.9984625 247.84095,26.474463 133.44371,103.83762 67.042716,212.15862 c -75.199,119.277 -87.359375,274.31603 -35.359375,404.95703 32.32,82.563 91.519149,153.35968 164.160149,203.67969 97.199,66.56299 221.11952,89.8395 336.47852,68.5625 137.281,-25.042 259.51997,-118.88052 319.91797,-244.47852 46.32,-93.602 55.92147,-203.28345 32.48047,-304.56445 C 855.68145,215.83787 769.28279,106.31537 655.12279,48.877369 590.80129,14.916619 517.97601,-0.63695935 445.42162,0.0199469 Z M 559.54857,143.16838 c 56.98331,0.56555 110.58172,27.35908 157.7207,57.66797 -0.002,-0.002 -0.004,-0.005 -0.006,-0.008 0.19101,0.123 0.38713,0.24514 0.57813,0.36914 -0.1889,-0.12171 -0.38315,-0.23974 -0.57227,-0.36133 52.16732,58.14695 86.03206,132.76395 92.3418,210.8457 0.961,41.602 3.19919,84.15879 -7.75781,124.80079 -25.281,107.67999 -103.44134,200.64245 -204.40235,245.43945 -106.84099,48.55 -236.65251,39.18248 -337.10351,-19.85352 -12.18,-19.172 -30.70042,-37.6885 -28.10742,-62.3125 1.203,-33.52 36.96093,-52.16053 66.96093,-53.51953 55.44115,-6.39781 104.40239,26.32091 145.2814,59.76191 -34.96101,-106.243 -157.35999,-174.16009 -266.08399,-155.12109 47.922,-37.52 107.76181,-59.52 168.88281,-60 80.078,-0.562 157.11871,29.28159 224.72071,70.55859 -71.679,-113.68 -200.80119,-181.51997 -330.24219,-205.91797 24.562,-13.84 54.15845,-11.35903 81.43945,-14.08203 144.801,1.039 279.92374,63.44166 402.80274,134.72266 -80,-137.524 -222.08247,-226.96082 -370.48047,-274.88282 141.281,-14.078 282.48037,34.40257 399.35937,111.60157 -49.199,-74.16 -120.5589,-132.08169 -200.8789,-169.67969 1.85253,-0.0375 3.70133,-0.0476 5.54687,-0.0293 z"
     id="path1" />
</svg>
