<svg xmlns="http://www.w3.org/2000/svg" xml:space="preserve" width="540.001" height="604.055" viewBox="0 0 540.001 604.055"><g transform="translate(-5.143 -3.358)"><path d="M266.314 604.063c-92.549-35.087-132.683-89.635-134.346-91.941l-6.321-8.754 2.076-10.606c16.986-86.768-99.153-141.315-100.33-141.858l-11.606-5.339-2.433-12.541c-15.47-79.742-4.421-137.387-3.943-139.794l.69-3.504 1.652-3.162C102.535 12.189 244.328 3.358 271.833 3.358c1.407 0 2.519.018 3.315.047.79-.029 1.899-.047 3.304-.047 27.507 0 169.301 8.831 260.086 183.205l1.646 3.162.69 3.504c.483 2.407 11.526 60.052-3.94 139.794l-2.437 12.541-11.604 5.339c-1.133.525-117.225 55.563-100.33 141.858l2.077 10.606-6.324 8.754c-1.663 2.307-41.794 56.854-134.343 91.941l-8.825 3.351z"/><linearGradient id="a" x1="30.057" x2="520.229" y1="303.174" y2="303.174" gradientUnits="userSpaceOnUse"><stop offset="0" style="stop-color:#612c75"/><stop offset=".015" style="stop-color:#643078"/><stop offset=".13" style="stop-color:#754889"/><stop offset=".2" style="stop-color:#7b5190"/><stop offset=".234" style="stop-color:#8c639d"/><stop offset=".291" style="stop-color:#a37bae"/><stop offset=".352" style="stop-color:#b38cba"/><stop offset=".418" style="stop-color:#bc96c1"/><stop offset=".5" style="stop-color:#bf99c3"/><stop offset=".582" style="stop-color:#bc96c1"/><stop offset=".648" style="stop-color:#b38cba"/><stop offset=".709" style="stop-color:#a37bae"/><stop offset=".766" style="stop-color:#8c639d"/><stop offset=".8" style="stop-color:#7b5190"/><stop offset=".87" style="stop-color:#754889"/><stop offset=".985" style="stop-color:#643078"/><stop offset="1" style="stop-color:#612c75"/></linearGradient><path fill="url(#a)" d="M194.677 181.407c-13.093-13.391-47.791-52.206-63.453-101.934 45.49-33.966 89.488-45.493 116.608-49.333-17.591 27.176-40.181 70.026-40.181 110.741 0 13.09 1.967 24.174 5.386 33.5zm-78.522 132.397a429 429 0 0 0-55.368 27.2c37.638 23.318 106.792 77.825 91.381 156.547 0 0 33.179 45.924 111.576 78.657-1.2-20.299-5.058-55.764-17.287-95.104-24.064-77.412-67.885-133.647-130.302-167.3m147.666-53.988v-44.525c-14.308-2.159-28.185-8.441-38.57-20.121l-36.045 13.786-5.413-4.932c-2.321-2.118-49.507-45.693-72.221-108.47-24.201 21.614-48.191 50.141-69.682 87.789 8.792 10.642 28.029 28.94 65.555 45.292 0 0-38.113 1.392-76.014-11.822-1.985 21.992-3.141 61.704 6.182 110.417 99.658-62.299 192.322-67.803 226.208-67.414M145.11 303.303c53.958 34.61 94.517 87.447 118.711 154.801v-174.42c-19.862-.107-64.254 2.058-118.711 19.619M275.147 32.269c-16.104 22.982-43.72 68.287-43.72 108.612 0 44.325 27.56 51.51 43.72 51.51 16.151 0 43.712-7.185 43.712-51.51 0-40.325-27.619-85.63-43.712-108.612v-.006h-.006zm80.462 149.138c13.09-13.391 47.794-52.206 63.455-101.934-45.492-33.966-89.493-45.493-116.61-49.333 17.591 27.176 40.184 70.026 40.184 110.741 0 13.09-1.971 24.174-5.386 33.5zm-51.781 299.697c-12.234 39.34-16.086 74.805-17.284 95.104 78.392-32.733 111.573-78.657 111.573-78.657-15.408-78.722 53.746-133.229 91.388-156.547a429.5 429.5 0 0 0-55.374-27.2c-62.417 33.653-106.24 89.888-130.303 167.3m208.848-153.875c9.32-48.713 8.164-88.425 6.176-110.417-37.9 13.214-76.008 11.822-76.008 11.822 37.523-16.352 56.76-34.651 65.555-45.292-21.495-37.647-45.486-66.175-69.685-87.789-22.711 62.777-69.896 106.353-72.221 108.47l-5.409 4.932-36.049-13.786c-10.388 11.68-24.263 17.962-38.573 20.121v44.525c33.89-.388 126.557 5.116 226.214 67.414m-226.214-43.545v174.421c24.197-67.354 64.759-120.191 118.711-154.801-54.453-17.562-98.844-19.727-118.711-19.62" style="fill:url(#a)"/></g></svg>