<svg xmlns="http://www.w3.org/2000/svg" xml:space="preserve" width="539.996" height="604.056" viewBox="0 0 539.996 604.056"><g transform="translate(-5.254 -3.357)"><path d="M266.425 604.063c-92.549-35.087-132.683-89.635-134.346-91.941l-6.321-8.754 2.076-10.606c16.986-86.768-99.153-141.315-100.33-141.858l-11.606-5.339-2.433-12.541c-15.47-79.742-4.421-137.387-3.943-139.794l.69-3.504 1.652-3.162C102.646 12.189 244.439 3.358 271.943 3.358c1.407 0 2.519.018 3.315.047a94 94 0 0 1 3.3-.047c27.513 0 169.301 8.831 260.086 183.205l1.652 3.162.684 3.504c.484 2.407 11.527 60.052-3.94 139.794l-2.43 12.541-11.609 5.339c-1.133.525-117.225 55.563-100.33 141.858l2.076 10.606-6.323 8.754c-1.664 2.307-41.788 56.854-134.344 91.941l-8.822 3.351z"/><linearGradient id="a" x1="30.168" x2="520.339" y1="303.174" y2="303.174" gradientUnits="userSpaceOnUse"><stop offset="0" style="stop-color:#626e77"/><stop offset=".052" style="stop-color:#697780"/><stop offset=".137" style="stop-color:#7d8e98"/><stop offset=".244" style="stop-color:#9eb4c0"/><stop offset=".25" style="stop-color:#a0b6c2"/><stop offset=".253" style="stop-color:#a1b7c3"/><stop offset=".325" style="stop-color:#adc6d4"/><stop offset=".403" style="stop-color:#b5cede"/><stop offset=".5" style="stop-color:#b7d1e1"/><stop offset=".597" style="stop-color:#b5cede"/><stop offset=".675" style="stop-color:#adc6d4"/><stop offset=".747" style="stop-color:#a1b7c3"/><stop offset=".75" style="stop-color:#a0b6c2"/><stop offset=".808" style="stop-color:#8b9da8"/><stop offset=".883" style="stop-color:#74838d"/><stop offset=".949" style="stop-color:#67747d"/><stop offset="1" style="stop-color:#626e77"/></linearGradient><path fill="url(#a)" d="M194.788 181.407c-13.093-13.391-47.791-52.206-63.452-101.934 45.49-33.966 89.487-45.493 116.608-49.333-17.591 27.176-40.181 70.026-40.181 110.741 0 13.09 1.967 24.174 5.386 33.5zm-78.522 132.397a429 429 0 0 0-55.368 27.2c37.639 23.318 106.792 77.825 91.381 156.547 0 0 33.179 45.924 111.576 78.657-1.201-20.299-5.059-55.764-17.287-95.104-24.064-77.412-67.884-133.647-130.302-167.3m147.667-53.988v-44.525c-14.308-2.159-28.186-8.441-38.571-20.121l-36.045 13.786-5.413-4.932c-2.321-2.118-49.507-45.693-72.221-108.47-24.2 21.614-48.191 50.141-69.682 87.789 8.792 10.642 28.029 28.94 65.556 45.292 0 0-38.113 1.392-76.014-11.822-1.985 21.992-3.142 61.704 6.182 110.417 99.657-62.299 192.321-67.803 226.208-67.414m-118.712 43.487c53.958 34.61 94.517 87.447 118.711 154.801v-174.42c-19.861-.107-64.254 2.058-118.711 19.619M275.258 32.269c-16.104 22.982-43.72 68.287-43.72 108.612 0 44.325 27.56 51.51 43.72 51.51 16.149 0 43.708-7.185 43.708-51.51.001-40.325-27.618-85.63-43.708-108.612v-.006h-.006zm80.46 149.138c13.096-13.391 47.793-52.206 63.461-101.934-45.493-33.967-89.499-45.494-116.612-49.333 17.591 27.176 40.185 70.026 40.185 110.741 0 13.09-1.971 24.174-5.392 33.5zm-51.781 299.697c-12.234 39.34-16.081 74.805-17.284 95.104 78.397-32.733 111.573-78.657 111.573-78.657-15.408-78.722 53.751-133.229 91.387-156.547a430 430 0 0 0-55.367-27.2c-62.425 33.653-106.242 89.888-130.309 167.3m208.846-153.875c9.321-48.713 8.165-88.425 6.183-110.417-37.907 13.214-76.015 11.822-76.015 11.822 37.529-16.352 56.761-34.651 65.562-45.292-21.496-37.647-45.493-66.175-69.69-87.789-22.711 62.777-69.891 106.353-72.215 108.47l-5.416 4.932-36.042-13.786c-10.395 11.68-24.269 17.962-38.58 20.121v44.525c33.895-.388 126.556 5.116 226.213 67.414m-226.214-43.545v174.421c24.198-67.354 64.76-120.191 118.711-154.801-54.447-17.562-98.842-19.727-118.711-19.62" style="fill:url(#a)"/></g></svg>