<?xml version="1.0" encoding="UTF-8" standalone="no"?>
<svg
   version="1.1"
   id="Layer_1"
   x="0px"
   y="0px"
   width="363.04999"
   height="425"
   viewBox="0 0 363.05 425"
   enable-background="new 0 0 375 460"
   xml:space="preserve"
   xmlns:xlink="http://www.w3.org/1999/xlink"
   xmlns="http://www.w3.org/2000/svg"
   xmlns:svg="http://www.w3.org/2000/svg"><defs
   id="defs17"><linearGradient
     xlink:href="#SVGID_1_"
     id="linearGradient876"
     x1="12.132"
     y1="213.3"
     x2="350.91"
     y2="213.3"
     gradientUnits="userSpaceOnUse" /></defs>

<path
   id="path2"
   d="M 104.59,0 97.389,3.7578 C 52.997,26.922 19.561,57.895 3.582,74.295 L 0,77.975 l 1.0176,25.315 7.4922,6.97 c 25.8422,23.99 37.2652,35.39 37.2652,54.29 0,17.73 -8.081,24.94 -21.48,36.9 -3.474,3.09 -7.057,6.29 -10.795,9.96 l -6.0156,5.88 3.5216,7.64 c 44.501,96.51 82.473,167.24 166.354,198.51 l 4.16,1.56 4.17,-1.56 c 83.87,-31.27 121.85,-102 166.34,-198.51 l 3.53,-7.64 -6.01,-5.88 c -3.74,-3.67 -7.33,-6.87 -10.8,-9.96 -13.39,-11.96 -21.49,-19.17 -21.49,-36.9 0,-18.9 11.43,-30.3 37.27,-54.29 l 7.49,-6.97 1.03,-25.315 -3.59,-3.68 C 343.48,57.895 310.04,26.922 265.66,3.7578 L 258.46,0 207.21,44.395 h -51.37 z m 123.24,43.189 c 0,0 -34.82,91.021 -141.266,149.721 0,0 72.756,-80.9 80.926,-136.578 h 44.16 z m 77.59,12.436 c 0,0 14.76,22.716 9.45,62.175 0,0 -77.59,137.28 -239.251,175.08 0,0 66.981,-45.78 117.881,-98.98 55.22,-57.7 54.89,-98.319 62.18,-112.908 7.3,-14.591 49.74,-25.367 49.74,-25.367 z m 3.32,128.015 c 4.75,11.8 14,19.48 24.46,28.87 -20.02,30.39 -50.96,59.08 -92.44,72.91 0,0 41.48,-37.95 67.98,-101.78 z" />




</svg>
