<svg xmlns="http://www.w3.org/2000/svg" id="Layer_2" width="268.1" height="161.2" data-name="Layer 2" version="1.1"><defs id="defs1"><style id="style1">.cls-1{stroke-width:0}</style></defs><g id="svg8" transform="translate(.01)"><path id="path913" d="M70.79 6.21C23.98 10.28 1.5 51.78 0 67.48c24.7-22.7 47.81-18.71 78.52-18.88l21.8-22.83C86.4 29.71 62.13 24.44 70.8 6.21Zm126.5 0c8.67 18.23-15.6 23.5-29.52 19.56l21.8 22.83c30.71.17 53.81-3.82 78.52 18.88-1.5-15.71-23.98-57.2-70.79-61.27ZM0 93.71c1.5 15.71 23.98 57.2 70.79 61.27-8.67-18.23 15.6-23.5 29.52-19.56l-21.8-22.83c-30.71-.17-53.81 3.82-78.52-18.88Zm268.08 0c-24.7 22.7-47.81 18.71-78.52 18.88l-21.8 22.83c13.92-3.94 38.19 1.33 29.52 19.56 46.81-4.07 69.29-45.56 70.79-61.27z" class="cls-1"/><path id="path867" d="M134.04 0 63.82 73.71 48.71 80.6l15.11 6.89 70.22 73.71 70.22-73.71 15.11-6.89-15.11-6.89zm0 39 41.56 41.6-41.56 41.6-41.56-41.6z" class="cls-1"/></g></svg>