<svg xmlns="http://www.w3.org/2000/svg" width="248.004" height="224.261" viewBox="0 0 248.004 224.261"><path d="M34.592 41.48 20.165 56.033 0 36.885 36.265 3.532l24.47 20.294 41.914-20.294 44.514 29.675L197.2 0l38.798 35.186-2.93 145.725 14.936 19.294-19.625 22.177-25.042-24.533 12.518-14.888 1.076-135.838-27.256-23.864-37.058 27.602-.538 127.458 13.673 19.836-25.149 26.106-29.467-29.844 16.542-16.942 1.45-130.352L98.95 23.26 67.187 50.861l1.25 120.343 16.34 21.344-33.344 31.713-26.785-36.597 14.89-19.968.643-116.835z"/></svg>