<svg xmlns="http://www.w3.org/2000/svg" width="195.33" height="195.33" viewBox="0 0 195.33 195.33"><path d="M97.666 0A97.665 97.665 0 0 0 0 97.666a97.665 97.665 0 0 0 97.666 97.664 97.665 97.665 0 0 0 97.664-97.664A97.665 97.665 0 0 0 97.666 0m-28.67 41.396a13.14 13.14 0 0 1 13.137 13.137 13.14 13.14 0 0 1-13.137 13.139 13.14 13.14 0 0 1-13.139-13.139 13.14 13.14 0 0 1 13.14-13.137m63.955 0a13.14 13.14 0 0 1 13.139 13.137 13.14 13.14 0 0 1-13.139 13.139 13.14 13.14 0 0 1-13.137-13.139 13.14 13.14 0 0 1 13.137-13.137m-34.79 48.336a68.91 68.91 0 0 1 67.59 55.569h-8.8a60.36 60.36 0 0 0-58.79-47.016 60.36 60.36 0 0 0-58.812 47.016h-8.733a68.91 68.91 0 0 1 67.545-55.569"/></svg>