<svg xmlns="http://www.w3.org/2000/svg" width="600" height="510.317"><radialGradient id="a" cx="0" cy="0" r="1" fx="0" fy="0" gradientTransform="translate(300.065 255.74)scale(224.15892)" gradientUnits="userSpaceOnUse" spreadMethod="pad"><stop offset="0" style="stop-color:#d9eaf3"/><stop offset=".7" style="stop-color:#99aebc"/><stop offset="1" style="stop-color:#536e78"/></radialGradient><path d="M419.353 0H179.55l-1.148.153c-16.139 1.748-38.567 13.408-46.042 37.877L35.428 65.09l-.995.344C21.28 70.523 0 87.567 0 118.759c0 5.576.701 11.61 2.194 18.142l91.497 341.404 2.488 3.394c10.372 13.804 35.53 34.93 64.285 26.765 0 0 128.98-35.491 139.593-38.426l139.785 38.477c28.5 8.114 53.722-13.012 64.03-26.816l2.539-3.394L597.717 137.5c1.543-6.685 2.283-12.86 2.283-18.587 0-31.397-21.177-48.39-34.33-53.48l-.996-.344-96.931-27.059C460.267 13.561 437.839 1.9 421.65.153L420.5 0Z"/><path d="M180.749 21.726s-29.406 3.19-29.406 33.59L42.266 85.719S14.952 96.23 23.372 131.913l90.247 336.735s18.843 25.21 40.862 18.882l145.576-40.02 145.513 40.02c22.02 6.327 40.913-18.882 40.913-18.882l90.247-336.735c8.37-35.683-18.88-46.195-18.88-46.195L448.76 55.317c0-30.402-29.407-33.59-29.407-33.59z" style="fill:#536e78"/><path d="M181.693 34.343c-1.39.243-5.575 1.187-9.568 3.828-5.575 3.738-8.165 9.172-8.165 17.146v9.568L46.501 97.634c-3.049 1.39-12.12 6.876-12.12 21.368 0 2.947.358 6.239 1.25 9.926.154.6 87.964 328.507 89.406 333.788 3.89 4.338 15.245 15.794 26.012 12.707l149.008-41.016 148.996 41.016c10.716 3.087 22.134-8.37 26.012-12.707 1.404-5.281 89.252-333.189 89.405-333.788.907-3.687 1.25-6.979 1.25-9.926 0-14.492-9.07-19.978-12.106-21.368-1.646-.46-117.459-32.75-117.459-32.75v-9.567c0-7.974-2.64-13.408-8.178-17.146-3.993-2.641-8.228-3.585-9.568-3.828z"/><path d="M438.694 81.533v323.825s-2.794 20.974-19.583 20.974h-90.898l121.644 33.59s7.029 3.483 10.512-4.235l89.507-332.194s3.483-10.461-4.886-13.255zM55.074 110.94c-8.381 2.78-4.886 13.255-4.886 13.255l89.545 332.244c3.496 7.668 10.474 4.185 10.474 4.185l121.695-33.59h-90.898c-16.802 0-19.596-20.987-19.596-20.987V82.235Zm128.022-60.854h234.267c4.937 0 5.575 6.277 5.575 6.277v348.294c0 5.575-5.575 6.978-5.575 6.978H183.096c-4.886 0-4.886-6.978-4.886-6.978V56.363c0-4.185 4.886-6.277 4.886-6.277" style="fill:#536e78"/><path d="M184.385 55.164c-.6.459-1.148.956-1.148 1.199v348.243c.05.803.357 1.939-.14 1.939H416.52c.638-.243 1.34-.842 1.34-1.888l.05-347.695c-.101-.701-.497-1.645-.548-1.798zM443.72 405.996c-1.148 8.828-7.82 25.426-24.61 25.426h-53.377l86.318 23.87c.14.101.79.293 1.39.293.498 0 1.391 0 1.99-1.2l89.61-332.436c.191-.6 1.696-5.779-1.404-6.774l-99.866-26.97zM56.707 115.762c-3.33 1.097-1.786 6.29-1.594 7.131l89.264 331.403c.893 1.99 1.735 1.99 2.233 1.99.6 0 1.25-.204 2.245-.6l85.412-23.575h-53.263c-16.853 0-23.474-16.585-24.673-26.064V88.907z" style="fill:url(#a)"/><path stroke="none" d="M43.8-92.654q24.56 0 41.022 14.573 16.464 14.574 16.464 37.782 0 21.051-6.75 28.068-6.75 7.016-31.036 23.48 8.096 14.578 20.108 31.444a2505 2505 0 0 0 24.958 34.41q5.938 9.174 15.52 9.845t9.583 4.452q0 1.08-.811 2.293-.811 1.215-1.083 1.759H91.568q-1.623-.271-6.21-3.105-4.588-2.833-19.293-25.774-14.704-22.94-27.66-39.133Q25.45 11.25 3.05 11.25q-1.614 0-1.886 23.073Q.891 57.394.891 63.876v9.718q0 9.982 4.32 12.815t15.652 2.833h20.78q4.043 0 4.043 3.508 0 5.667-4.851 5.667h-2.701l-23.48-2.158h-40.48l-31.848 2.973q-4.85 0-4.85-5.13 0-4.053 14.165-4.724 14.166-.672 17.674-2.022 3.51-1.35 3.509-34.277v-70.977q0-12.954-2.294-28.607-2.295-15.651-4.99-18.485-2.699-2.833-20.512-4.451-17.814-1.62-17.814-5.67 0-4.852 4.052-4.852 8.367 1.615 22.94 4.044 14.574 2.43 24.827 2.43h15.648q8.912-7.56 20.648-13.363 11.736-5.802 28.47-5.802zM.084-48.124v21.052q0 14.034 7.824 22.265t26.174 8.232q15.112 0 25.37-9.447Q69.709-15.467 69.71-31.66q0-19.155-10.526-31.708-10.525-12.55-31.032-12.55-12.955 0-20.511 6.073Q.084-63.77.084-48.123z" style="stroke:#536e78;stroke-width:12.7575;stroke-opacity:0" transform="translate(270.606 230.158)"/></svg>