<svg xmlns="http://www.w3.org/2000/svg" width="600" height="429.723"><path d="M525.924 131.85h-28.91c-.463-.215-16.535-8.057-16.535-8.057l-8.143-26.44-.172.086v-.043l-16.696 9.186c-.085.043-9.153 4.995-21.991 8.938-.333.086-.967.215-2.138.215-4.115 0-10.25-1.558-17.34-3.363-11.41-2.976-25.72-6.628-42.76-6.628-20.562 0-42.597 3.738-56.273 6.542-8.402-17.5-21.616-32.391-47.766-32.391-11.162 0-23.453 2.428-39.61 5.834a33 33 0 0 1-3.278.462c-5.2.376-9.69-1.053-13.558-3.61-14.181-9.82-20.058-35.464-20.187-35.797h-.043c-.034-.172-6.79-22.12-8.852-41.513-1.042-9.604-11.249-3.148-11.249-3.148-4.523 19.607-10.195 44.242-10.238 44.36h-.086l-7.757 33.702-16.287-14.02-8.939 37.817-10.614 3.782-1.139 3.395-10.743 3.814-.58 2.148a3364 3364 0 0 0-12.087 4.32s-2.267 9.486-2.482 10.367H71.508L0 406.518h237.57a35.8 35.8 0 0 0 4.91 6.585c10.249 11.045 27.578 16.62 51.46 16.62 35.293 0 51.322-11.205 58.542-20.939H600z" style="fill:gray"/><path d="M337.248 373.91s6.832 24.926-41.846 24.926c-48.722 0-40.793-27.192-40.793-27.192H49.645l60.142-233.627 5.662-2.02-59.175 231.661s47.003-9.991 70.38-13.43c23.421-3.48 129.094-19.939 174.42 20.81 0 0 30.544-15.813 95.09-15.813s114.408 11.29 144.994 7.885l-56.231-214.783 7.929 3.395 56.242 218.189zM120.402 130.927l6.295-2.267-52.546 222.422s65.31-14.643 118.608-13.977c53.287.634 81.919 16.244 81.919 16.244s-44.199-13.01-89.063-11.034c-44.854 1.923-91.234 10.819-121.777 17.953zm11.033-6.8 6.93-2.514-49.603 214.192s38.354-4.32 52.665-6.5c14.9-2.267 82.51-16.244 142.984 21.444 0 0-57.875-23.42-111.796-18.22-53.975 5.21-76.053 9.786-92.33 13.01zm17.254-17.501 11.625 9.647-41.76 198.883s23.13 1.01 54.77-5.5c31.016-6.372 83.262 7.219 118.511 40.33 0 0-53.588-40.202-128.964-29.125-29.201 4.243-65.675 7.767-65.675 7.767.043-.086 51.493-222.002 51.493-222.002m27.783-33.402s8.476 33.402 42.179 35.378c33.691 2.01 71.637-25.73 80.156 32.016l-2.31 203.835c0-1.3-6.09-5.253-6.929-5.962-6.339-4.953-13.128-9.444-20.1-13.516-20.693-12.204-43.942-22.948-68.2-24.677-14.139-1-28.116 1.181-41.921 3.91-19.972 3.857-32.735 2.89-32.735 2.89zm130.264 63.913.505-.129c.376-.086 34.701-8.853 63.998-8.853 14.225 0 26.44 3.148 37.183 5.877 12 3.105 22.368 5.748 31.64 2.89 6.543-2.009 13.182-4.609 18.715-6.962l60.85 217.931s-158.54-27.191-212.934 13.558zm171.143 9.443 56.479 216.588s-26.053 0-86.657-7.391c-60.604-7.338-127.407 4.577-127.407 4.577s59.465-28.911 206.683-6.253L468.22 142.046zm36.882 4.19-20.186-.117-11.249-4.996-1.085-3.782-14.611-6.876-4.652-14.772s-10.152 5.662-24.892 10.196c-14.73 4.534-36.26-9.068-66.846-9.068-30.555 0-65.675 9.068-65.675 9.068-14.697-40.793-31.693-38.526-74.753-29.459-43.006 9.057-55.479-50.956-55.479-50.956l-13.59 58.885-16.416-14.138-4.985 21.143-11.42 3.985-1.054 3.363-10.281 3.696-.795 2.804-11.324 4.534-3.115 13.139H83.595l-63.451 243.49h228.803s-1.719 23.205 45.026 23.205c46.712 0 48.98-20.939 48.98-20.939h236.731z"/></svg>