<?xml version="1.0" encoding="UTF-8"?><svg id="Layer_2" xmlns="http://www.w3.org/2000/svg" width="216.22369" height="196.0668" xmlns:xlink="http://www.w3.org/1999/xlink" viewBox="0 0 216.22369 196.0668"><defs><style>.cls-1{fill:url(#linear-gradient-2);}.cls-2{fill:url(#linear-gradient);}</style><linearGradient id="linear-gradient" x1="7.37368" y1="98.23867" x2="86.94531" y2="98.23867" gradientUnits="userSpaceOnUse"><stop offset=".01805" stop-color="#4d6773"/><stop offset=".02823" stop-color="#526d79"/><stop offset=".09465" stop-color="#75909c"/><stop offset=".16484" stop-color="#91aeba"/><stop offset=".23892" stop-color="#a7c5d1"/><stop offset=".31861" stop-color="#b6d5e1"/><stop offset=".40789" stop-color="#c0deea"/><stop offset=".52661" stop-color="#c3e2ee"/><stop offset=".61846" stop-color="#bfdeea"/><stop offset=".69926" stop-color="#b5d3df"/><stop offset=".77594" stop-color="#a4c1cd"/><stop offset=".85006" stop-color="#8ba8b4"/><stop offset=".92166" stop-color="#6c8793"/><stop offset=".9811" stop-color="#4d6773"/></linearGradient><linearGradient id="linear-gradient-2" x1="12.35463" y1="98.18558" x2="214.94119" y2="98.18558" gradientUnits="userSpaceOnUse"><stop offset=".17648" stop-color="#4d6773"/><stop offset=".1959" stop-color="#607b87"/><stop offset=".23224" stop-color="#7e9aa6"/><stop offset=".27187" stop-color="#97b4c0"/><stop offset=".31536" stop-color="#abc8d4"/><stop offset=".36471" stop-color="#b8d7e3"/><stop offset=".42489" stop-color="#c0dfeb"/><stop offset=".52661" stop-color="#c3e2ee"/><stop offset=".64141" stop-color="#c0dfeb"/><stop offset=".71314" stop-color="#b8d6e2"/><stop offset=".77305" stop-color="#aac8d4"/><stop offset=".82648" stop-color="#96b3bf"/><stop offset=".87559" stop-color="#7c98a4"/><stop offset=".92088" stop-color="#5d7884"/><stop offset=".94159" stop-color="#4d6773"/></linearGradient></defs><g id="Layer_1-2"><path d="M55.70473,173.20143c-10.16846-8.67703-18.81286-19.39819-24.61216-31.48241C10.19454,134.33848-2.76988,113.37174.50386,91.23926c2.45979-16.62963,14.58181-30.87023,30.34896-36.41599C53.61483,7.73945,110.49874-13.09083,158.61558,8.57581c58.05752,26.14285,76.06741,100.61552,36.27178,150.69591-33.86118,42.61224-97.51503,49.48583-139.18263,13.92971ZM111.46532,188.16499c-.89877-15.89505,12.73682-26.19826,25.89416-31.75993,15.22059-6.43382,25.97758-11.07381,37.04018-24.09103,18.83086-22.15803,15.32858-53.68092-2.87689-75.03748-3.11341-3.6523-6.63373-6.67499-9.56837-10.56868-6.90215-9.1578-11.30855-20.2259-8.87965-31.85792-11.92128-5.22076-25.4542-7.90832-38.49514-6.94995,1.68623,5.95912,6.65753,11.87898,11.26561,15.94337,2.73104,2.40882,5.92428,4.224,8.40067,6.94196,8.01881,8.80107,9.31809,20.75719,5.74581,31.87044,19.1108,29.34167,11.5319,68.44257-16.94417,88.54807-24.97597,17.63425-58.86253,15.32171-81.34556-5.22954-.16703.18614,1.46307,2.57002,1.71982,2.95235,15.08906,22.46881,40.93065,37.44506,68.04353,39.23834ZM108.58768,8.37766c-24.67154,2.2908-47.90284,15.80709-62.67209,35.49895-1.09897,1.46526-2.41218,3.24434-3.3572,4.79345-.16611.27229-.98695,1.50872-.85643,1.65821,15.89909-14.42498,37.62075-20.24673,58.69031-15.41764,12.04434,2.76053,22.90073,9.26479,31.68722,17.8148.37681-7.86946-2.37174-15.89829-7.54603-21.81732-2.68277-3.0689-6.23893-5.43111-9.00002-8.50011-3.48472-3.87332-6.67419-8.65267-6.94577-14.03035ZM116.97905,188.64201c42.46307.92885,80.39121-29.52649,89.49861-70.75808,4.64614-21.0343,2.23664-39.66531-6.82276-59.01184-8.42669-17.99535-23.14648-32.68392-40.84348-41.62268-.11927,6.94797,1.93975,14.20525,5.44347,20.20652,4.53599,7.76937,11.48046,11.31535,17.09708,17.90307,20.63009,24.19698,24.29304,63.15116.48236,86.54629-11.60019,11.39775-22.89242,14.85764-37.65005,20.12523-12.3385,4.40411-24.59461,12.94656-27.20524,26.61148ZM51.28956,144.05302c16.63734,12.3002,37.4796,15.30665,56.7406,7.23712,45.68781-19.14124,47.11172-83.98143,2.32128-105.24273-19.60986-9.30849-41.78788-6.62144-59.06069,6.20229-.05923.32544.4302.36401.65975.41166,6.47984,1.34519,10.92863,2.15211,16.84495,5.45256,28.69047,16.00514,31.67944,56.3105,5.6188,76.34405-7.6225,5.85963-13.34054,7.22546-22.50789,9.13685-.28704.05985-.57024.11112-.6168.45819ZM84.85046,99.70817c.65281-7.51701-1.69186-15.65497-5.6517-22.03215-16.40296-26.41633-55.81915-23.73361-68.46729,4.61258-11.31373,25.35558,7.35511,54.72493,35.16086,54.83315,20.78556.0809,32.75589-23.79567,24.78178-41.81289-7.56774-17.09904-32.89245-20.16325-40.59782-1.34846-4.29013,10.47556-.35044,20.42738,7.06706,28.16345-1.42191-.01317-3.24321-1.04538-4.47512-1.75793-13.01169-7.52603-14.28429-23.55759-6.79657-35.64368,13.38619-21.60695,45.48412-14.50886,55.83567,6.26662l3.14314,8.71931Z"/><path class="cls-2" d="M84.85046,99.70817l-3.14314-8.71931c-10.35156-20.77548-42.44949-27.87357-55.83567-6.26662-7.48771,12.08609-6.21512,28.11765,6.79657,35.64368,1.23191.71255,3.05321,1.74476,4.47512,1.75793-7.41749-7.73607-11.35719-17.68789-7.06706-28.16345,7.70536-18.8148,33.03008-15.75058,40.59782,1.34846,7.97411,18.01722-3.99622,41.89379-24.78178,41.81289-27.80575-.10822-46.47458-29.47757-35.16086-54.83315,12.64814-28.34619,52.06433-31.02891,68.46729-4.61258,3.95984,6.37717,6.30451,14.51513,5.6517,22.03215Z"/><path class="cls-1" d="M111.46532,188.16499c-27.11289-1.79328-52.95447-16.76952-68.04353-39.23834-.25675-.38233-1.88685-2.76621-1.71982-2.95235,22.48303,20.55125,56.3696,22.86378,81.34556,5.22954,28.47608-20.10549,36.05497-59.2064,16.94417-88.54807,3.57228-11.11325,2.27301-23.06937-5.74581-31.87044-2.47639-2.71796-5.66963-4.53315-8.40067-6.94196-4.60807-4.06439-9.57938-9.98425-11.26561-15.94337,13.04094-.95837,26.57386,1.7292,38.49514,6.94995-2.4289,11.63201,1.9775,22.70012,8.87965,31.85792,2.93464,3.89369,6.45495,6.91638,9.56837,10.56868,18.20547,21.35656,21.70775,52.87945,2.87689,75.03748-11.0626,13.01722-21.81959,17.65721-37.04018,24.09103-13.15734,5.56168-26.79293,15.86488-25.89416,31.75993ZM206.47766,117.88393c4.64614-21.0343,2.23664-39.66531-6.82276-59.01184-8.42669-17.99535-23.14648-32.68392-40.84348-41.62268-.11927,6.94797,1.93975,14.20525,5.44347,20.20652,4.53599,7.76937,11.48046,11.31535,17.09708,17.90307,20.63009,24.19698,24.29304,63.15116.48236,86.54629-11.60019,11.39775-22.89242,14.85764-37.65005,20.12523-12.3385,4.40411-24.59461,12.94656-27.20524,26.61148,42.46307.92885,80.39121-29.52649,89.49861-70.75808ZM45.9156,43.8766c-1.09897,1.46526-2.41218,3.24434-3.3572,4.79345-.16611.27229-.98695,1.50872-.85643,1.65821,15.89909-14.42498,37.62075-20.24673,58.69031-15.41764,12.04434,2.76053,22.90073,9.26479,31.68722,17.8148.37681-7.86946-2.37174-15.89829-7.54603-21.81732-2.68277-3.0689-6.23893-5.43111-9.00002-8.50011-3.48472-3.87332-6.67419-8.65267-6.94577-14.03035-24.67154,2.2908-47.90284,15.80709-62.67209,35.49895Z"/></g></svg>