<?xml version="1.0" encoding="UTF-8"?><svg id="Layer_2" xmlns="http://www.w3.org/2000/svg" width="216.2237" height="196.06679" viewBox="0 0 216.2237 196.06679"><g id="Layer_2-2"><path d="M55.70473,173.20143c-10.16846-8.67703-18.81286-19.39819-24.61216-31.48241C10.19454,134.33848-2.76988,113.37174.50386,91.23926c2.45979-16.62963,14.58181-30.87023,30.34896-36.41599C53.61483,7.73945,110.49874-13.09083,158.61559,8.57581c58.05753,26.14285,76.06741,100.61552,36.27177,150.6959-33.86118,42.61224-97.51503,49.48582-139.18263,13.9297v.00002ZM111.46532,188.16499c-.89877-15.89505,12.73682-26.19826,25.89417-31.75993,15.2206-6.43382,25.97758-11.07381,37.04018-24.09103,18.83086-22.15803,15.32858-53.68092-2.87689-75.03748-3.1134-3.6523-6.63373-6.67499-9.56837-10.56868-6.90215-9.1578-11.30855-20.2259-8.87965-31.85792-11.92128-5.22076-25.4542-7.90832-38.49514-6.94995,1.68623,5.95912,6.65753,11.87898,11.26561,15.94337,2.73104,2.40882,5.92428,4.224,8.40067,6.94196,8.01881,8.80107,9.31808,20.75719,5.7458,31.87044,19.11079,29.34167,11.53191,68.44257-16.94417,88.54807-24.97597,17.63425-58.86253,15.32172-81.34556-5.22954-.16703.18614,1.46307,2.57002,1.71982,2.95235,15.08906,22.46881,40.93065,37.44507,68.04353,39.23834v.00002ZM108.58768,8.37766c-24.67154,2.2908-47.90284,15.80709-62.67209,35.49895-1.09897,1.46526-2.41218,3.24434-3.3572,4.79345-.16611.27229-.98695,1.50872-.85643,1.65821,15.89909-14.42498,37.62075-20.24673,58.69032-15.41764,12.04434,2.76053,22.90073,9.26479,31.68723,17.8148.37682-7.86946-2.37173-15.89829-7.54603-21.81732-2.68277-3.0689-6.23893-5.43111-9.00002-8.50011-3.48472-3.87332-6.67419-8.65267-6.94577-14.03034ZM116.97905,188.64201c42.46307.92885,80.39122-29.52649,89.49861-70.75808,4.64613-21.0343,2.23663-39.66531-6.82275-59.01184-8.4267-17.99535-23.14648-32.68392-40.84348-41.62268-.11926,6.94797,1.93974,14.20525,5.44347,20.20652,4.536,7.76937,11.48045,11.31535,17.09708,17.90307,20.6301,24.19698,24.29305,63.15116.48236,86.54629-11.60019,11.39775-22.89243,14.85764-37.65005,20.12523-12.3385,4.40411-24.59461,12.94656-27.20524,26.61148v.00002ZM51.28956,144.05302c16.63734,12.3002,37.4796,15.30666,56.7406,7.23712,45.68781-19.14124,47.11172-83.98143,2.32128-105.24273-19.60986-9.30849-41.78788-6.62144-59.06069,6.20229-.05923.32544.4302.36401.65975.41166,6.47984,1.34519,10.92863,2.15211,16.84495,5.45256,28.69047,16.00514,31.67944,56.3105,5.6188,76.34405-7.6225,5.85963-13.34054,7.22546-22.50789,9.13686-.28704.05984-.57024.11111-.6168.45819ZM84.85046,99.70817c.65281-7.51701-1.69186-15.65497-5.6517-22.03215-16.40296-26.41633-55.81915-23.73361-68.46729,4.61258-11.31373,25.35558,7.35511,54.72492,35.16086,54.83315,20.78556.0809,32.75589-23.79567,24.78178-41.81289-7.56774-17.09904-32.89245-20.16325-40.59782-1.34846-4.29013,10.47556-.35044,20.42738,7.06706,28.16345-1.42191-.01317-3.24321-1.04538-4.47512-1.75793-13.01169-7.52603-14.28429-23.55759-6.79657-35.64368,13.38619-21.60695,45.48412-14.50886,55.83567,6.26662,0,0,3.14314,8.71931,3.14314,8.71931Z"/></g></svg>