<svg xmlns="http://www.w3.org/2000/svg" width="896.875" height="896.328" data-name="Layer 2" viewBox="0 0 896.875 896.328"><defs><linearGradient id="a" x1="-501.6" x2="-500.6" y1="966.26" y2="966.26" gradientTransform="matrix(995.68 0 0 -999.64 499383.53 966355.16)" gradientUnits="userSpaceOnUse"><stop offset="0" stop-color="#626e77"/><stop offset=".04" stop-color="#697780"/><stop offset=".11" stop-color="#7d8e98"/><stop offset=".2" stop-color="#9eb4c0"/><stop offset=".2" stop-color="#a0b6c2"/><stop offset=".2" stop-color="#a1b7c3"/><stop offset=".29" stop-color="#adc6d4"/><stop offset=".38" stop-color="#b5cede"/><stop offset=".5" stop-color="#b7d1e1"/><stop offset=".62" stop-color="#b5cede"/><stop offset=".71" stop-color="#adc6d4"/><stop offset=".8" stop-color="#a1b7c3"/><stop offset=".8" stop-color="#a0b6c2"/><stop offset=".85" stop-color="#8b9da8"/><stop offset=".91" stop-color="#74838d"/><stop offset=".96" stop-color="#67747d"/><stop offset="1" stop-color="#626e77"/></linearGradient></defs><g data-name="Layer 1"><path d="M500.92 197.4c-7.16-9.19-15.26-18.35-24.36-27.46-78.43-78.42-334.9-84.22-334.9-84.22 23.4-20.7 51.13-33.13 96.68-50.12C389.58-20.84 539.56-9.41 638.48 64.41c24.11 18 45.35 39.67 62.96 65.05l60.3 25.64c84.32 35.87 121.39 110.6 131.87 189.02 9.86 73.78-4.24 150.26-20.57 194.88-2.27 6.2-4.66 12.26-7.15 18.2l3.06 4.79c13.26 20.72 17.83 46.7 14.83 73.43-4.02 35.96-21.85 73.06-45.02 96.86-94.58 97.19-277.84 181.36-464.3 160.97C227.53 877.2 13.1 780.35 3.77 528.67L0 427.4l57.98 83.12c54.16 77.63 97.54 95.44 158.81 95.44 160.99 0 231.22-156.36 254.98-227.32 14.45-43.14 15.9-105.2-3.29-136.44-19.18-31.25-39.54-44.99-39.54-44.99 23.29-9.05 47.35-8.17 71.98.18zm-258.75-36.88c28.86 64.78 68.59 121.19 121.9 167.17L389.93 350l-25.62 22.61c-50.58 44.6-91.8 97.73-121.63 161.18l-27.02 57.46-26.94-57.49c-30.18-64.42-73.85-116.41-128.34-158.4L28.7 350.95l32.45-23.38c54.06-38.94 96.32-94.03 126.28-166.33l26.54-64.06 28.21 63.34z" style="fill-rule:evenodd;stroke-width:0" transform="translate(0 .005)"/><path d="M214.96 172.66c30.67 68.84 73 128.74 129.64 177.6-53.6 47.28-97.26 103.6-128.89 170.87-32.27-68.87-78.89-124.49-137.14-169.37 58.27-41.98 104.1-101.16 136.39-179.1m33.81-109.14c234.18-87.37 465.5-5.2 478.48 241.64 0 212.82-132.04 344.16-359.46 391.92 193.03-17.27 351.04-124.63 411.16-312.58 20.71-64.76 18.6-138.3-28.86-201.96 147.08 62.54 125.26 263.51 94.98 346.22-45.54 124.4-141.95 191.64-226.02 226.02 126.08-9.14 207.53-107.56 224.82-176.72 24.35 38.06 5.17 100.94-26.46 133.44-89.56 92.03-263.16 171.44-439.7 152.14C241.79 848.78 42.19 760.4 33.55 527.57c62.21 89.17 112.88 108.2 183.25 108.2 177.32 0 257.06-169.51 283.24-247.66 16.55-49.42 20.18-92.24-3.61-156.29 43.14 34.09 60.73 78.12 68.53 162.3 24.62-73.68 16.03-161.9-67.32-245.26-64.38-64.37-157.86-87.77-248.86-85.36Z" style="fill:url(#a);fill-rule:evenodd;stroke-width:0" transform="translate(0 .005)"/></g></svg>