<svg xmlns="http://www.w3.org/2000/svg" xmlns:xlink="http://www.w3.org/1999/xlink" width="600" height="818.749"><linearGradient id="a" x1="0" x2="1" y1="0" y2="0" gradientTransform="scale(25.4961 -25.4961)rotate(10 43.724 105.148)" gradientUnits="userSpaceOnUse" spreadMethod="pad"><stop offset="0" style="stop-color:#bf331c"/><stop offset=".3" style="stop-color:#d3641c"/><stop offset=".5" style="stop-color:#f6b91d"/><stop offset=".7" style="stop-color:#d3641c"/><stop offset="1" style="stop-color:#bf331c"/></linearGradient><linearGradient xlink:href="#a" id="b" x1="0" x2="1" y1="0" y2="0" gradientTransform="rotate(10 -2139.227 443.525)scale(521.87273)" gradientUnits="userSpaceOnUse" spreadMethod="pad"/><path d="M353.086 196.684c-.551 5.363-.962 10.562-.962 15.597 0 53.485 15.76 92.273 27.182 120.582 1.679 4.155 3.214 7.9 4.647 11.503a2055 2055 0 0 1 14.47 38.788c6.469-15.126 10.788-29.024 10.788-38.788 0-46.771-56.125-147.682-56.125-147.682m153.126 33.917C566.247 277.126 600 337.898 600 411.217c0 82.039-29.188 137.284-50.455 177.668-5.2 9.825-9.682 18.381-12.957 25.812-2.395 5.444-5.035 11.687-8.003 18.4-26.139 61.325-52.216 118.494-82.428 145.513-44.847 40.14-94.115 40.14-110.347 40.14-11.503 0-30.376-.41-50.455-.8-19.732-.491-40.12-.88-52.196-.88-34.715 0-68.775-21.266-93.48-58.376-9.518-14.226-14.636-27.735-19.098-39.566-4.728-12.547-8.474-22.31-16.948-33.507-1.207-1.515-2.558-3.193-4.012-5.036C72.357 645.4 0 551.858 0 450.312 0 300.87 101.873 232.914 101.873 232.914c7.819 39.648 20.55 71.088 20.55 71.088 2.477-96.285 44.847-169.748 123.284-223.887C341.97 13.673 442.8 0 442.8 0c-71.804 94.75-84.843 171.016-84.843 171.016s89.797 14.328 148.255 59.585"/><path d="M335.893 806.427c-11.586 0-30.294-.388-50.292-.797l-5.752-.148c-17.91-.327-35.738-.655-46.689-.655-30.478 0-60.771-19.26-83.246-52.85-8.638-12.957-13.346-25.504-17.583-36.537-5.117-13.509-9.272-24.542-18.954-37.253l-2.067-2.64-2.006-2.559c-26.466-34.223-96.981-125.37-96.981-222.68 0-106.744 54.918-170.463 81.875-195.25 7.512 30.539 16.314 52.44 16.784 53.566L133.13 363.4l1.515-59.012c2.395-90.983 41.02-161.027 118.023-214.205 61.57-42.37 125.535-62.839 161.826-71.886-46.3 68.447-62.369 123.549-66.994 143.138l-4.086 18.398-2.485 15.498c-.716 5.752-1.023 11.442-1.023 16.948 0 55.654 16.068 95.712 27.98 124.9l3.828 9.661.8 2.088c3.602 9.109 8.8 22.946 14.327 38.38l10.542 29.413 12.322-28.697c7.84-18.238 11.83-32.935 11.83-43.66 0-49.412-55.326-149.36-57.742-153.68l-3.827-6.877c17.582 3.357 90.267 19.036 138.716 56.535 59.012 45.665 88.998 103.223 88.998 170.873 0 78.988-28.308 132.637-48.94 171.896-5.425 10.153-9.989 18.954-13.346 26.712l-4.564 10.398-3.521 7.983c-25.647 60.055-51.008 115.873-79.296 141.213-41.347 37.008-87.156 37.008-102.118 37.008"/><path d="M158.163 313.356c0 91.31 66.83 213.55 66.83 213.55-22.863-26.138-58.684-65.152-88.036-104.35C107.625 383.38 84.762 303.51 84.762 303.51s-48.859 52.216-48.859 146.72c0 94.586 74.916 185.897 96.183 213.571 21.185 27.735 21.185 50.517 37.498 74.997 16.232 24.542 39.096 42.453 63.576 42.453h2.702L163.034 561.13l140.17 26.057-86.357-295.037 211.871 376.604-159.738-22.781 66.278 136.874h.553c22.863 0 55.49-3.193 86.44-31.03 30.948-27.654 63.555-110.818 81.465-151.592 17.992-40.692 60.383-96.1 60.383-189.008 0-149.995-158.162-190.769-158.162-190.769s39.177 74.916 39.177 123.836c0 48.94-57.087 130.406-57.087 130.406-3.275-26.056-26.057-87.954-37.5-117.285-11.441-29.434-34.223-76.676-34.223-145.124 0-68.53 47.262-148.398 47.262-148.398-167.905 55.409-205.403 158.162-205.403 249.473" style="fill:url(#b)"/></svg>