<svg xmlns="http://www.w3.org/2000/svg" width="528.195" height="718.964"><path d="M370.034 156.483s39.095 74.998 39.095 124c0 48.859-57.005 130.406-57.005 130.406-3.275-26.138-26.057-88.097-37.5-117.45-11.441-29.27-34.223-76.593-34.223-145.04C280.401 79.95 327.663 0 327.663 0 159.758 55.409 122.26 158.162 122.26 249.473c0 91.23 66.83 213.55 66.83 213.55-22.782-26.138-58.684-65.234-88.036-104.35C71.722 319.579 48.86 239.71 48.86 239.71S0 291.843 0 386.347c0 94.586 74.997 185.897 96.183 213.571 21.185 27.817 21.185 50.599 37.498 74.998 16.232 24.46 39.096 42.37 63.576 42.37.881 0 1.842 0 2.702.082l-72.828-220.121 140.17 26.139-86.357-295.119 211.871 376.605-159.656-22.864 66.196 136.956h.552c22.864 0 55.409-3.275 86.44-30.948 31.03-27.736 63.555-110.9 81.465-151.592 17.992-40.855 60.383-96.264 60.383-189.172 0-149.995-158.162-190.769-158.162-190.769"/></svg>