<svg xmlns="http://www.w3.org/2000/svg" width="475.88" height="499.638" viewBox="0 0 125.91 132.196"><g style="display:inline;opacity:1"><path d="M845.723 124.828c-76.793 51.499-137.063 114.384-150.358 212.5 34.23 21.574 64.013 32.744 66.428 65v35.715l-47.143 45 146.786 141.428h57.857V408.043l-31.742-31.473 31.742-30.672V199.471Zm175.17 0-73.57 74.643v146.427l31.741 30.672-31.742 31.473v216.428h57.856l146.787-141.428-47.143-45v-35.715c2.415-32.256 32.198-43.426 66.428-65-13.294-98.116-73.564-161.001-150.357-212.5" style="display:inline;fill:#fff;fill-opacity:1;stroke:none;stroke-width:.999999px;stroke-linecap:butt;stroke-linejoin:miter;stroke-opacity:1" transform="translate(-183.98 -33.027)scale(.26458)"/><path d="M843.19 149.697c-58.944 37.46-114.265 100.245-127.135 177.358.026.015 33.462 19.817 45.427 31.78 11.97 11.97 19.373 28.506 19.373 46.77 0 17.86.219 26.017.229 26.381l28.295-28.295-27.162-27.162 27.638-27.638-56.494-56.496 97.979-97.979 49.467 49.465v-37.135zm180.236 0-57.617 57.05v37.134l49.466-49.465 97.979 97.979-56.494 56.496 27.638 27.638-27.162 27.162 28.295 28.295c.01-.364.229-8.52.229-26.38 0-18.265 7.403-34.801 19.373-46.77 11.965-11.964 45.401-31.766 45.427-31.781-12.87-77.113-68.19-139.898-127.134-177.358m-171.807 57.526-85.039 85.04 56.797 56.798-27.592 27.59 27.592 27.59-56.797 56.796 85.04 85.04 49.187-49.188v-79.682l-40.84-40.84 40.84-40.84V256.41Zm163.377 0L965.81 256.41v79.117l40.84 40.84-40.84 40.84v79.682l49.187 49.187 85.04-85.039-56.798-56.797 27.592-27.59-27.592-27.59 56.797-56.796zm-163.4 45.568 39.685 39.686-39.685 39.685-39.684-39.685zm163.422 0 39.683 39.686-39.683 39.685-39.686-39.685zM851.596 421.293l39.685 39.686-39.685 39.685-39.684-39.685zm163.422 0 39.683 39.686-39.683 39.685-39.686-39.685zm-255.94 46.28-15.752 16.312 101.418 97.937 23.738 22.924h32.325v-93.818l-49.188 49.19-66.814-66.815.002-.002zm348.457 0-25.728 25.728v.002l-66.815 66.814-49.187-49.19v93.82h32.324l23.738-22.925 101.418-97.937z" style="display:inline;opacity:1;fill:#000;fill-opacity:1;stroke:none;stroke-width:1.8413;stroke-linecap:square" transform="translate(-183.98 -33.027)scale(.26458)"/><path d="m851.264 265.418-26.727 26.727 26.727 26.724 26.724-26.724zm164.088 0-26.725 26.727 26.725 26.724 26.726-26.724zM851.264 434.41l-26.727 26.725 26.727 26.724 26.724-26.724zm164.088 0-26.725 26.725 26.725 26.724 26.726-26.724z" style="fill:#fff;fill-opacity:1;stroke:none;stroke-width:.757209;stroke-linecap:square" transform="translate(-183.98 -33.027)scale(.26458)"/></g></svg>