<svg xmlns="http://www.w3.org/2000/svg" xml:space="preserve" width="356.91" height="374.726" style="clip-rule:evenodd;fill-rule:evenodd;stroke-linejoin:round;stroke-miterlimit:2" viewBox="0 0 356.91 374.726"><path d="M112.767 0C55.173 38.624 9.972 85.787 0 159.373c25.672 16.18 48.01 24.557 49.82 48.75v26.786l-35.355 33.75 110.089 106.068h43.39V212.409l-23.806-23.606 23.807-23.002V55.98Zm131.377 0-55.178 55.981v109.82l23.807 23.002-23.807 23.606v162.318h43.39l110.09-106.068-35.356-33.75v-26.786c1.81-24.193 24.148-32.57 49.82-48.75C346.938 85.787 301.738 38.623 244.144 0" style="fill-rule:nonzero;stroke-width:.26458"/><path d="M110.867 16.723c-44.206 28.094-85.698 75.183-95.35 133.016.022.012 25.099 14.863 34.07 23.835 8.978 8.977 14.531 21.378 14.531 35.078 0 13.396.164 19.513.172 19.785l21.22-21.222-20.37-20.37 20.727-20.73-42.37-42.37 73.484-73.483 37.1 37.098V59.509Zm135.177 0L202.83 59.509v27.85l37.102-37.097 73.482 73.482-42.37 42.372 20.73 20.73-20.373 20.37 21.222 21.221c.005-.272.17-6.39.17-19.785 0-13.7 5.553-26.1 14.53-35.078 8.974-8.972 34.051-23.824 34.07-23.835-9.652-57.833-51.143-104.922-95.35-133.016M117.19 59.866l-63.78 63.78 42.598 42.597-20.693 20.692 20.693 20.693-42.597 42.598 63.78 63.777 36.89-36.89V217.35l-30.63-30.627 30.63-30.63V96.756Zm122.53 0-36.89 36.89v59.338l30.63 30.63-30.63 30.627v59.761l36.89 36.89 63.78-63.776-42.598-42.598 20.693-20.693-20.693-20.692 42.598-42.597zM117.172 94.042l29.765 29.764-29.765 29.764-29.763-29.764Zm122.567 0 29.76 29.764-29.76 29.764-29.766-29.764zM117.172 220.418l29.765 29.763-29.765 29.762-29.763-29.762zm122.567 0 29.76 29.763-29.76 29.762-29.766-29.762zM47.786 255.126 35.972 267.36l76.062 73.452 17.803 17.193h24.244v-70.363l-36.89 36.89-50.112-50.108.003-.003zm261.339 0-19.296 19.295v.003l-50.112 50.11-36.89-36.891v70.362h24.243l17.804-17.192 76.064-73.453z" style="fill:url(#a);fill-rule:nonzero;stroke-width:.26458"/><path d="M116.923 105.441 96.88 125.486l20.044 20.043 20.045-20.043zm123.064 0-20.042 20.045 20.042 20.043 20.045-20.043zM116.923 232.184 96.88 252.226l20.044 20.045 20.045-20.045zm123.064 0-20.042 20.042 20.042 20.045 20.045-20.045z" style="fill:#fff;fill-rule:nonzero;stroke-width:.26458"/><defs><radialGradient id="a" cx="0" cy="0" r="1" gradientTransform="matrix(162.93762 0 0 170.64114 178.457 187.364)" gradientUnits="userSpaceOnUse"><stop offset="0" style="stop-color:#612c75;stop-opacity:1"/><stop offset="0" style="stop-color:#bf99c3;stop-opacity:1"/><stop offset=".7" style="stop-color:#7b5190;stop-opacity:1"/><stop offset="1" style="stop-color:#612c75;stop-opacity:1"/></radialGradient></defs></svg>