<svg xmlns="http://www.w3.org/2000/svg" xml:space="preserve" width="356.914" height="374.731" style="clip-rule:evenodd;fill-rule:evenodd;stroke-linejoin:round;stroke-miterlimit:2" viewBox="0 0 356.914 374.731"><path d="m112.767 0 55.179 55.982v109.82l-23.807 23.003 23.807 23.606v162.32h-43.392L14.464 268.66l35.356-33.75v-26.786c-1.81-24.193-24.148-32.57-49.82-48.75C9.971 85.788 55.172 38.624 112.766 0m-64.98 255.128-11.815 12.235 76.062 73.453 17.804 17.193h24.244v-70.363l-36.891 36.89-50.112-50.109.003-.003zm69.405-195.262-63.78 63.781 42.597 42.598-20.693 20.692 20.693 20.693-42.597 42.598 63.78 63.778 36.89-36.89v-59.762l-30.63-30.628 30.63-30.631V96.757Zm-.019 34.177 29.766 29.764-29.766 29.764-29.763-29.764zm-.248 11.4-20.045 20.044 20.045 20.043 20.045-20.043zm.248 114.975 29.766 29.765-29.766 29.763-29.763-29.763zm-.248 11.768L96.879 252.23l20.045 20.044 20.045-20.044zm-6.057-215.464C66.661 44.817 25.169 91.906 15.517 149.74c.021.012 25.098 14.863 34.07 23.836 8.978 8.977 14.531 21.378 14.531 35.078 0 13.394.164 19.51.172 19.786l21.22-21.222-20.37-20.37 20.727-20.73-42.37-42.373 73.485-73.483 37.1 37.098V59.509ZM244.146 0c57.594 38.624 102.796 85.788 112.768 159.375-25.673 16.18-48.012 24.557-49.821 48.75v26.787l35.356 33.75-110.09 106.068h-43.392V212.411l23.807-23.606-23.807-23.002V55.982Zm1.9 16.722L202.831 59.51v27.85l37.103-37.098 73.482 73.483-42.37 42.372 20.73 20.73-20.373 20.37 21.222 21.223c.006-.275.17-6.392.17-19.786 0-13.7 5.553-26.1 14.53-35.078 8.975-8.973 34.052-23.824 34.07-23.836-9.651-57.834-51.143-104.923-95.35-133.018m63.081 238.406-19.296 19.296-50.112 50.112-36.89-36.89v70.363h24.243l17.804-17.193 76.065-73.453zM239.722 59.866l-36.89 36.891v59.338l30.63 30.63-30.63 30.629v59.761l36.89 36.891 63.78-63.778-42.598-42.598 20.694-20.693-20.694-20.692 42.598-42.598zm.018 34.177 29.76 29.764-29.76 29.764-29.765-29.764zm.25 11.4-20.043 20.044 20.042 20.043 20.045-20.043zm-.25 114.975 29.76 29.765-29.76 29.763-29.765-29.763zm.25 11.768-20.043 20.043 20.042 20.044 20.045-20.044z"/></svg>