<svg xmlns="http://www.w3.org/2000/svg" width="566.966" height="72.519"><path d="M170.735 23.665C116.33 23.665 100.327 0 100.327 0S58.639 29.388 0 29.388v5.101h79.512c1.038-7.212 9.507-13.973 19.823-13.973 11.054 0 21.461 7.754 21.461 15.415 0 7.743-10.407 15.496-21.461 15.496-10.004 0-18.254-6.392-19.696-13.338H0v5.053c58.639 0 100.327 29.377 100.327 29.377s16.004-23.654 70.408-23.654zm13.696 12.393c0-21.727 10.235-24.427 10.235-24.427l306.496 7.35c17.388 0 65.804-1.8 65.804 14.827 0 16.58-47.054 17.354-65.804 18.115L194.666 60.9s-10.235-3.115-10.235-24.842"/></svg>