<svg xmlns="http://www.w3.org/2000/svg" xml:space="preserve" width="150" height="150" viewBox="0 0 150 150"><path d="M75 150c-41.355 0-75-33.645-75-75S33.645 0 75 0s75 33.645 75 75-33.645 75-75 75"/><path fill="#fff" d="M73.057 36.21C52.54 37.227 36.161 54.236 36.161 75s16.379 37.773 36.896 38.79A9041 9041 0 0 1 72.992 75c0-15.389.017-28.176.065-38.79M113.839 75c0-20.764-16.379-37.773-36.896-38.79.048 10.614.065 23.401.065 38.79s-.018 28.176-.065 38.79c20.517-1.016 36.896-18.026 36.896-38.79"/><path fill="#fff" d="M32.143 75c0-22.986 18.191-41.798 40.933-42.809.068-12.447.186-21.592.374-28.135C35.026 4.888 4.018 36.381 4.018 75s31.008 70.112 69.432 70.943c-.188-6.541-.305-15.688-.374-28.135C50.334 116.798 32.143 97.986 32.143 75m113.839 0c0-38.619-31.009-70.112-69.433-70.943.188 6.543.306 15.688.374 28.135 22.742 1.011 40.934 19.822 40.934 42.809s-18.191 41.798-40.934 42.809c-.068 12.447-.186 21.594-.374 28.135 38.425-.833 69.433-32.326 69.433-70.945"/><path d="M67.67 43.71C53.469 47.037 42.857 59.799 42.857 75s10.612 27.963 24.813 31.29c-.027-9.318-.037-19.783-.037-31.29s.01-21.972.037-31.29M107.143 75c0-15.201-10.611-27.963-24.813-31.29.027 9.318.037 19.783.037 31.29s-.01 21.972-.037 31.29c14.201-3.327 24.813-16.088 24.813-31.29"/><path d="M25.446 75c0-24.864 18.409-45.504 42.313-49.02.042-5.634.1-10.596.174-14.87C35.799 14.641 10.714 41.941 10.714 75s25.085 60.358 57.219 63.89c-.075-4.274-.132-9.236-.174-14.87C43.855 120.504 25.446 99.864 25.446 75m113.84 0c0-33.059-25.086-60.358-57.22-63.89.075 4.274.132 9.236.175 14.87 23.903 3.516 42.313 24.155 42.313 49.02s-18.409 45.504-42.313 49.02c-.043 5.634-.1 10.596-.175 14.87 32.134-3.532 57.22-30.831 57.22-63.89"/></svg>