<svg xmlns="http://www.w3.org/2000/svg" xml:space="preserve" width="150" height="149.86" viewBox="0 0 150 149.86"><g transform="translate(-2.861 -2.234)"><path d="M32.578 77.164c0-23.613 18.173-43.054 41.265-45.095.21-14.547.594-24.026 1.248-29.835-40.076 1.465-72.23 34.503-72.23 74.93s32.154 73.465 72.23 74.93c-.654-5.809-1.038-15.288-1.248-29.835-23.093-2.041-41.265-21.482-41.265-45.095m120.283 0c0-40.427-32.154-73.465-72.229-74.93.654 5.809 1.038 15.288 1.248 29.835 23.092 2.041 41.265 21.481 41.265 45.095s-18.173 43.054-41.265 45.095c-.21 14.547-.594 24.026-1.248 29.835 40.075-1.465 72.229-34.503 72.229-74.93"/><path d="M73.743 40.607c-18.355 2.056-32.675 17.661-32.675 36.557s14.32 34.501 32.675 36.557c-.093-10.083-.127-22.154-.127-36.557s.034-26.474.127-36.557m40.91 36.557c0-18.896-14.319-34.501-32.674-36.557.093 10.083.127 22.154.127 36.557s-.034 26.474-.127 36.557c18.355-2.056 32.674-17.661 32.674-36.557"/><linearGradient id="a" x1="8.521" x2="147.201" y1="77.164" y2="77.164" gradientUnits="userSpaceOnUse"><stop offset="0" style="stop-color:#8d742f"/><stop offset=".077" style="stop-color:#937a35"/><stop offset=".179" style="stop-color:#a38a45"/><stop offset=".25" style="stop-color:#b39a54"/><stop offset=".268" style="stop-color:#b9a059"/><stop offset=".335" style="stop-color:#cab068"/><stop offset=".409" style="stop-color:#d4ba71"/><stop offset=".5" style="stop-color:#d7bd74"/><stop offset=".591" style="stop-color:#d4ba71"/><stop offset=".665" style="stop-color:#cab068"/><stop offset=".732" style="stop-color:#b9a059"/><stop offset=".75" style="stop-color:#b39a54"/><stop offset=".753" style="stop-color:#b29953"/><stop offset=".837" style="stop-color:#9e853f"/><stop offset=".92" style="stop-color:#917833"/><stop offset="1" style="stop-color:#8d742f"/></linearGradient><path fill="url(#a)" d="M68.758 143.239q.066 1.349.137 2.665c-34.012-4.414-60.374-33.547-60.374-68.74s26.362-64.326 60.374-68.74q-.07 1.316-.137 2.665c-.212 4.272-.375 9.458-.498 16.051-23.515 4.505-41.343 25.216-41.343 50.024s17.828 45.52 41.343 50.024c.123 6.593.286 11.779.498 16.051m78.443-66.075c0-35.193-26.362-64.326-60.374-68.74q.07 1.316.137 2.665c.212 4.272.375 9.458.498 16.051 23.515 4.505 41.343 25.216 41.343 50.024s-17.828 45.52-41.343 50.024c-.123 6.593-.286 11.778-.498 16.051q-.066 1.349-.137 2.665c34.012-4.414 60.374-33.547 60.374-68.74m-38.208 0c0-13.757-8.927-25.422-21.301-29.539.051 8.293.074 18.017.074 29.539s-.023 21.246-.074 29.539c12.374-4.117 21.301-15.782 21.301-29.539M68.03 47.625c-12.374 4.117-21.301 15.782-21.301 29.539s8.927 25.422 21.301 29.539c-.051-8.293-.074-18.017-.074-29.539s.023-21.246.074-29.539" style="fill:url(#a)"/></g></svg>