<svg xmlns="http://www.w3.org/2000/svg" xml:space="preserve" width="150" height="149.86" viewBox="0 0 150 149.86"><g transform="translate(-2.75 -2.567)"><path d="M73.731 122.592c.21 14.547.594 24.026 1.248 29.835-40.075-1.465-72.229-34.503-72.229-74.93S34.904 4.032 74.979 2.567c-.654 5.809-1.038 15.288-1.248 29.835-23.091 2.041-41.264 21.482-41.264 45.095s18.173 43.054 41.264 45.095m79.019-45.095c0-40.427-32.154-73.465-72.229-74.93.654 5.809 1.038 15.288 1.248 29.835 23.092 2.041 41.265 21.481 41.265 45.095s-18.173 43.054-41.265 45.095c-.21 14.547-.594 24.026-1.248 29.835 40.075-1.465 72.229-34.503 72.229-74.93M73.632 40.94c-18.354 2.056-32.675 17.661-32.675 36.557s14.32 34.501 32.675 36.557c-.093-10.083-.127-22.154-.127-36.557s.034-26.474.127-36.557m40.911 36.557c0-18.896-14.32-34.501-32.675-36.557.093 10.083.127 22.154.127 36.557s-.034 26.474-.127 36.557c18.355-2.056 32.675-17.661 32.675-36.557"/><linearGradient id="a" x1="8.41" x2="147.09" y1="77.497" y2="77.497" gradientUnits="userSpaceOnUse"><stop offset="0" style="stop-color:#612c75"/><stop offset=".079" style="stop-color:#653279"/><stop offset=".182" style="stop-color:#714285"/><stop offset=".25" style="stop-color:#7b5190"/><stop offset=".279" style="stop-color:#8c639d"/><stop offset=".326" style="stop-color:#a37bae"/><stop offset=".376" style="stop-color:#b38cba"/><stop offset=".431" style="stop-color:#bc96c1"/><stop offset=".5" style="stop-color:#bf99c3"/><stop offset=".569" style="stop-color:#bc96c1"/><stop offset=".624" style="stop-color:#b38cba"/><stop offset=".674" style="stop-color:#a37bae"/><stop offset=".721" style="stop-color:#8c639d"/><stop offset=".75" style="stop-color:#7b5190"/><stop offset=".835" style="stop-color:#6d3d81"/><stop offset=".919" style="stop-color:#643078"/><stop offset="1" style="stop-color:#612c75"/></linearGradient><path fill="url(#a)" d="M68.647 143.572q.066 1.349.137 2.665C34.772 141.823 8.41 112.69 8.41 77.497s26.362-64.326 60.374-68.74q-.07 1.316-.137 2.665c-.212 4.272-.375 9.458-.498 16.051-23.515 4.505-41.343 25.216-41.343 50.024s17.828 45.52 41.343 50.024c.123 6.593.287 11.779.498 16.051m78.443-66.075c0-35.193-26.362-64.326-60.374-68.74q.07 1.316.137 2.665c.212 4.272.375 9.458.498 16.051 23.515 4.505 41.343 25.216 41.343 50.024s-17.828 45.52-41.343 50.024c-.123 6.593-.286 11.778-.498 16.051q-.066 1.349-.137 2.665c34.012-4.414 60.374-33.547 60.374-68.74m-38.208 0c0-13.757-8.927-25.422-21.301-29.539.051 8.293.074 18.017.074 29.539s-.023 21.246-.074 29.539c12.374-4.117 21.301-15.782 21.301-29.539M67.919 47.958C55.545 52.075 46.618 63.74 46.618 77.497s8.927 25.422 21.301 29.539c-.051-8.293-.074-18.017-.074-29.539s.023-21.246.074-29.539" style="fill:url(#a)"/></g></svg>