<svg xmlns="http://www.w3.org/2000/svg" xml:space="preserve" width="150.001" height="149.86" viewBox="0 0 150.001 149.86"><g transform="translate(-2.972 -2.234)"><path d="M32.689 77.164c0-23.613 18.173-43.054 41.265-45.095.21-14.547.594-24.026 1.248-29.835-40.076 1.465-72.23 34.503-72.23 74.93s32.154 73.465 72.229 74.93c-.654-5.809-1.038-15.288-1.248-29.835-23.091-2.041-41.264-21.482-41.264-45.095m120.284 0c0-40.427-32.154-73.465-72.23-74.93.654 5.809 1.039 15.288 1.248 29.835 23.092 2.041 41.266 21.481 41.266 45.095s-18.174 43.054-41.266 45.095c-.209 14.547-.594 24.026-1.248 29.835 40.075-1.465 72.23-34.503 72.23-74.93"/><path d="M73.854 40.607C55.5 42.663 41.179 58.269 41.179 77.164s14.32 34.501 32.675 36.557c-.093-10.083-.127-22.154-.127-36.557s.034-26.474.127-36.557m40.91 36.557c0-18.896-14.318-34.501-32.674-36.557.094 10.083.127 22.154.127 36.557s-.033 26.474-.127 36.557c18.355-2.056 32.674-17.661 32.674-36.557"/><linearGradient id="a" x1="8.632" x2="147.313" y1="77.164" y2="77.164" gradientUnits="userSpaceOnUse"><stop offset="0" style="stop-color:#626e77"/><stop offset=".051" style="stop-color:#67747d"/><stop offset=".117" style="stop-color:#74838d"/><stop offset=".192" style="stop-color:#8b9da8"/><stop offset=".25" style="stop-color:#a0b6c2"/><stop offset=".253" style="stop-color:#a1b7c3"/><stop offset=".325" style="stop-color:#adc6d4"/><stop offset=".403" style="stop-color:#b5cede"/><stop offset=".5" style="stop-color:#b7d1e1"/><stop offset=".597" style="stop-color:#b5cede"/><stop offset=".675" style="stop-color:#adc6d4"/><stop offset=".747" style="stop-color:#a1b7c3"/><stop offset=".75" style="stop-color:#a0b6c2"/><stop offset=".766" style="stop-color:#99adb9"/><stop offset=".825" style="stop-color:#81929c"/><stop offset=".885" style="stop-color:#707e88"/><stop offset=".944" style="stop-color:#65727b"/><stop offset="1" style="stop-color:#626e77"/></linearGradient><path fill="url(#a)" d="M68.87 143.239q.066 1.349.137 2.665c-34.012-4.414-60.374-33.547-60.374-68.74s26.362-64.326 60.374-68.74q-.07 1.316-.137 2.665c-.212 4.272-.375 9.458-.498 16.051-23.515 4.505-41.343 25.216-41.343 50.024s17.828 45.52 41.343 50.024c.123 6.593.286 11.779.498 16.051m78.443-66.075c0-35.193-26.363-64.326-60.375-68.74q.071 1.316.137 2.665c.213 4.272.375 9.458.498 16.051 23.516 4.505 41.344 25.216 41.344 50.024s-17.828 45.52-41.344 50.024c-.123 6.593-.285 11.778-.498 16.051q-.066 1.349-.137 2.665c34.011-4.414 60.375-33.547 60.375-68.74m-38.209 0c0-13.757-8.926-25.422-21.301-29.539.051 8.293.074 18.017.074 29.539s-.023 21.246-.074 29.539c12.375-4.117 21.301-15.782 21.301-29.539M68.141 47.625C55.767 51.742 46.84 63.407 46.84 77.164s8.927 25.422 21.301 29.539c-.051-8.293-.074-18.017-.074-29.539s.023-21.246.074-29.539" style="fill:url(#a)"/></g></svg>