<svg xmlns="http://www.w3.org/2000/svg" xml:space="preserve" width="150" height="149.86" viewBox="0 0 150 149.86"><path d="M70.981 120.025c.21 14.547.594 24.026 1.248 29.835C32.154 148.395 0 115.357 0 74.93S32.153 1.465 72.229 0c-.654 5.809-1.038 15.288-1.248 29.835-23.092 2.041-41.265 21.481-41.265 45.095s18.173 43.054 41.265 45.095M150 74.93C150 34.503 117.846 1.465 77.77 0c.654 5.809 1.039 15.288 1.248 29.835 23.092 2.041 41.266 21.481 41.266 45.095s-18.174 43.054-41.266 45.095c-.209 14.547-.594 24.026-1.248 29.835 40.075-1.465 72.23-34.503 72.23-74.93M70.881 38.373C52.527 40.429 38.206 56.035 38.206 74.93s14.32 34.501 32.675 36.557c-.093-10.083-.127-22.154-.127-36.557s.034-26.474.127-36.557m40.91 36.557c0-18.896-14.318-34.501-32.674-36.557.094 10.083.127 22.154.127 36.557s-.033 26.474-.127 36.557c18.355-2.056 32.674-17.661 32.674-36.557"/></svg>