<svg xmlns="http://www.w3.org/2000/svg" width="600" height="612.026"><path d="M53.001 612.026 0 490.585l99.27-110.333 51.044-80.803 18.1-132.03 26.011 50.447 34.182-132.993 18.652 82.486L319.218 9.93 298.96 192.696 501.448 0 471.26 98.735 600 15.73 481.374 209.374l16.662 34.656-32.146 34.61 14.398 24.328-22.951 43.638 138.67 164.956-207.753-58.57-30.724 31.427 26.057 37.242-58.28 14.581 3.351 23.915-23.731 11.889-27.312 29.76-42.796-42.735v-5.677l-49.36 36.997z" style="fill:gray"/><path d="M229.74 390.29c-27.603 0-38.252-28.567-38.252-28.567l66.282-51.762c15.3 36.997-.412 80.328-28.03 80.328m300.703 79.013L429.78 349.528l24.206-45.902-16.555-28.03 33.125-35.682-15.254-31.917 72.632-118.519-96.9 62.458 22.952-75.188-184.74 175.896 11.414-103.218-40.7 89.172-12.791-56.061-25.46 99.393-20.38-39.506-8.906 65.027-54.807 86.663-90.488 100.648 24.206 53.552 8.905-31.856 26.776 7.65v-14.045l19.126 5.08 5.08-20.38 21.635 11.475 6.395-29.286 34.427 25.46-25.522 1.316v17.81l-28.03-2.57 8.904 17.87-26.715-11.475-2.57 22.951-31.856-3.825-8.905 25.46 7.65 16.617 109.614-17.871 81.522-61.203v42.077l19.065 19.126 14.107-15.3 12.669-6.396-3.825-28.031 45.902-11.476-17.871-25.46 53.552-54.807z"/></svg>