<svg xmlns="http://www.w3.org/2000/svg" width="600" height="612.026"><radialGradient id="a" cx="0" cy="0" r="1" fx="0" fy="0" gradientTransform="matrix(15.49326 0 0 -15.49326 746.191 257.065)" gradientUnits="userSpaceOnUse" spreadMethod="pad"><stop offset="0" style="stop-color:#f6b91d"/><stop offset=".7" style="stop-color:#d3641c"/><stop offset="1" style="stop-color:#bf331c"/></radialGradient><path d="M53.001 612.026 0 490.585l99.27-110.333 51.044-80.803 18.1-132.03 26.011 50.447 34.182-132.993 18.652 82.486L319.218 9.93 298.96 192.696 501.448 0 471.26 98.735 600 15.73 481.374 209.374l16.662 34.656-32.146 34.61 14.398 24.328-22.951 43.638 138.67 164.956-207.753-58.57-30.724 31.427 26.057 37.242-58.28 14.581 3.351 23.915-23.731 11.889-27.312 29.76-42.796-42.735v-5.677l-49.36 36.997z" style="fill:#fff"/><path d="M229.74 390.29c-27.603 0-38.252-28.567-38.252-28.567l66.282-51.762c15.3 36.997-.412 80.328-28.03 80.328m300.703 79.013L429.78 349.528l24.206-45.902-16.555-28.03 33.125-35.682-15.254-31.917 72.632-118.519-96.9 62.458 22.952-75.188-184.74 175.896 11.414-103.218-40.7 89.172-12.791-56.061-25.46 99.393-20.38-39.506-8.906 65.027-54.807 86.663-90.488 100.648 24.206 53.552 8.905-31.856 26.776 7.65v-14.045l19.126 5.08 5.08-20.38 21.635 11.475 6.395-29.286 34.427 25.46-25.522 1.316v17.81l-28.03-2.57 8.904 17.87-26.715-11.475-2.57 22.951-31.856-3.825-8.905 25.46 7.65 16.617 109.614-17.871 81.522-61.203v42.077l19.065 19.126 14.107-15.3 12.669-6.396-3.825-28.031 45.902-11.476-17.871-25.46 53.552-54.807z" style="fill:#bf331c"/><path d="m746.332 262.43-.988-.95.148 1.364.406 3.652-1.375-3-.613-1.344-.324 1.446-.375 1.644-1.156-4.496-.325-1.269-.601 1.168-.606 1.175-.371-2.679-.015-.11-.059-.09-3.629-5.73-5.695-6.336.879-1.949.215.758.132.484.485-.141 1.113-.316v.906l.625-.168.758-.203.215.84.152.621.567-.301.832-.441.277 1.269.164.758.621-.461 2.246-1.664 1.121-.832-1.39-.07-1.192-.063v-1.238l-.543.055-.937.086.179-.367.61-1.219-1.254.535-1.129.484-.094-.828-.054-.504-.5.063-1.688.203-.383-1.094.258-.558 6.668 1.085 5.231 3.926.796.602v-3.543l.739-.735.562.614.063.07.082.039.511.258-.199 1.48-.058.442.433.109 2.293.574-.75 1.071-.238.34.293.293 3.496 3.582.203.214.289-.082 8.176-2.308-5.527 6.586-.219.258.156.296 1.453 2.754-.937 1.59-.192.32.254.274 1.934 2.086-.856 1.777-.117.242.145.235 3.601 5.875-4.488-2.895-1.148-.738.402 1.305.941 3.097zm-5.894-6.942-.129.34.289.227 4.332 3.383.519.402.25-.606c.664-1.601.547-3.515-.289-4.765-.508-.758-1.215-1.176-2.004-1.176-2.125 0-2.937 2.102-2.968 2.195" style="fill:url(#a)" transform="matrix(15.30066 0 0 -15.30066 -11144.862 4273.489)"/></svg>