<svg xmlns="http://www.w3.org/2000/svg" width="600" height="612.026"><radialGradient id="a" cx="0" cy="0" r="1" fx="0" fy="0" gradientTransform="matrix(15.49081 0 0 -15.49081 663.692 257.067)" gradientUnits="userSpaceOnUse" spreadMethod="pad"><stop offset="0" style="stop-color:#bf99c3"/><stop offset=".663" style="stop-color:#7b5190"/><stop offset="1" style="stop-color:#612c75"/></radialGradient><path d="M53.001 612.026 0 490.585l99.27-110.333 51.044-80.803 18.1-132.03 26.011 50.447 34.182-132.993 18.652 82.486L319.218 9.93 298.96 192.696 501.448 0 471.26 98.735 600 15.73 481.374 209.374l16.662 34.656-32.146 34.61 14.398 24.328-22.951 43.638 138.67 164.956-207.753-58.57-30.724 31.427 26.057 37.242-58.28 14.581 3.351 23.915-23.731 11.889-27.312 29.76-42.796-42.735v-5.677l-49.36 36.997z" style="fill:#fff"/><path d="M229.74 390.29c-27.603 0-38.252-28.567-38.252-28.567l66.282-51.762c15.3 36.997-.414 80.328-28.03 80.328m300.703 79.013L429.78 349.528l24.206-45.902-16.555-28.03 33.125-35.682-15.254-31.917 72.632-118.519-96.9 62.458 22.952-75.188-184.74 175.896 11.414-103.218-40.7 89.172-12.791-56.061-25.46 99.393-20.38-39.506-8.906 65.027-54.807 86.663-90.488 100.648 24.206 53.552 8.905-31.856 26.776 7.65v-14.045l19.126 5.08 5.08-20.38 21.635 11.475 6.395-29.286 34.427 25.46-25.522 1.316v17.81l-28.03-2.57 8.904 17.87-26.715-11.475-2.57 22.951-31.856-3.825-8.905 25.46 7.65 16.617 109.614-17.871 81.522-61.203v42.077l19.065 19.126 14.107-15.3 12.669-6.396-3.825-28.031 45.902-11.476-17.871-25.46 53.552-54.807z" style="fill:#612c75"/><path d="m663.832 262.426-.992-.946.148 1.364.407 3.652-1.368-3-.617-1.344-.324 1.442-.375 1.648-1.152-4.492-.329-1.273-.601 1.168-.606 1.175-.371-2.683-.011-.106-.059-.093-3.637-5.727-5.691-6.34.879-1.945.211.758.136.48.485-.137 1.109-.316v.906l.633-.168.758-.203.211.84.152.621.567-.301.832-.441.281 1.273.164.758.617-.465 2.25-1.668 1.121-.828-1.394-.07-1.188-.059v-1.238l-.551.047-.937.086.183-.36.61-1.218-1.254.535-1.129.48-.09-.828-.058-.5-.5.059-1.688.203-.383-1.098.258-.551 6.664 1.086 5.238 3.922.801.598v-3.539l.731-.735.562.614.067.066.078.043.511.258-.203 1.476-.054.446.429.109 2.293.574-.746 1.067-.238.344.289.293 3.5 3.582.207.214.285-.082 8.18-2.308-5.531 6.586-.219.258.156.296 1.453 2.754-.941 1.59-.188.32.254.278 1.93 2.082-.852 1.777-.117.242.145.235 3.601 5.875-4.488-2.895-1.148-.738.402 1.305.941 3.093zm-5.894-6.942-.126.344.29.227 4.328 3.383.519.402.25-.606c.664-1.601.547-3.519-.289-4.765-.508-.758-1.219-1.176-2.004-1.176-2.125 0-2.933 2.102-2.968 2.191" style="fill:url(#a)" transform="matrix(15.30066 0 0 -15.30066 -9882.557 4273.489)"/></svg>