<svg xmlns="http://www.w3.org/2000/svg" width="503.315" height="509.818"><path d="M202.611 313.541c-27.602 0-38.251-28.566-38.251-28.566l66.282-51.762c15.3 36.997-.412 80.328-28.03 80.328m300.703 79.013L402.652 272.78l24.206-45.902-16.556-28.03 33.126-35.682-15.254-31.917L500.806 12.73l-96.9 62.457L426.859 0l-184.74 175.896 11.414-103.218-40.7 89.172-12.791-56.061-25.46 99.393-20.381-39.506-8.905 65.027-54.807 86.663L0 418.014l24.206 53.552 8.905-31.856 26.776 7.65v-14.045l19.126 5.08 5.08-20.381 21.635 11.475 6.395-29.285 34.427 25.46-25.522 1.316v17.81l-28.03-2.57 8.904 17.87-26.715-11.475-2.57 22.951-31.856-3.825-8.905 25.46 7.65 16.617 109.614-17.871 81.522-61.203v42.077l19.065 19.126 14.107-15.3 12.669-6.397-3.825-28.03 45.902-11.476-17.871-25.46 53.552-54.807z"/></svg>