<svg xmlns="http://www.w3.org/2000/svg" xml:space="preserve" width="237.094" height="175.001" viewBox="17.138 -0.294 237.094 175.001"><path fill="#fff" d="M74.557 171.692a5.076 5.076 0 0 1-4.868-5.079l-.065-.002c-31.438-1.285-53.496-20.78-52.45-46.353 1.396-34.139 40.732-71.285 97.88-92.438a5.1 5.1 0 0 1 1.97-.31l.938-22.937a5.076 5.076 0 0 1 5.28-4.863l73.572 3.01a5.075 5.075 0 0 1 4.867 5.077l.064.003c31.438 1.286 53.498 20.78 52.452 46.353-1.397 34.14-40.733 71.285-97.884 92.436a5 5 0 0 1-1.97.311l-.938 22.937a5.07 5.07 0 0 1-5.274 4.865zm82.207-80.133c12.847.408 23.866-13.669 24.593-31.48.698-17.033-8.738-31.694-20.963-33.306-13.761-1.814-25.195 14.65-25.883 31.39l18.354.75a5.074 5.074 0 0 1 4.864 5.278l-1.121 27.352zm-42.158-8.706c-12.85-.409-23.867 13.666-24.595 31.476-.697 17.036 8.74 31.696 20.964 33.31 13.762 1.813 25.199-14.65 25.883-31.39l-18.354-.75a5.077 5.077 0 0 1-4.864-5.28l1.119-27.349q-.079-.009-.153-.017"/><path d="m120.872 57.605 2.16-52.822 73.572 3.01c-41.595.205-56.932 23.074-56.932 23.074l.014-.004c-5.886 6.624-9.855 17.573-10.245 27.094zm71.969 55.854 3.449-84.354c3.792-1.425 8.007-2.14 12.426-1.958 15.654.64 27.893 12.275 27.332 25.987-.334 8.206-5.166 15.317-12.37 19.528-.748.438-2.004.21-2.334-.664-.36-.94.447-2.318 1.24-2.957 2.188-1.762 8.038-7.437 8.394-16.115.436-10.653-9.637-20.184-22.47-20.708a27 27 0 0 0-7.291.685l-3.305 80.767a5.08 5.08 0 0 1-5.277 4.863l-37.066-1.518-1.014 24.816c53.288-19.723 93.207-54.604 94.57-87.883.88-21.536-17.766-39.855-47.585-41.075-24.828-1.015-40.596 8.856-40.596 8.856 14.983 1.628 26.304 18.53 25.486 38.56-.846 20.68-14.317 36.978-30.028 36.335 0 0-3.416-.354-5.045-.813l1.302-31.826-74.128-3.033-3.452 84.358c-3.791 1.424-8.007 2.137-12.423 1.957-15.656-.64-27.893-12.275-27.333-25.987.335-8.203 5.167-15.318 12.37-19.529.748-.437 2.003-.209 2.335.664.358.94-.448 2.317-1.241 2.958-2.191 1.761-8.04 7.438-8.394 16.114-.436 10.652 9.634 20.182 22.469 20.705a26.9 26.9 0 0 0 7.294-.684l3.303-80.764a5.073 5.073 0 0 1 5.277-4.864l37.065 1.516 1.015-24.816c-53.286 19.723-93.21 54.604-94.571 87.884-.881 21.538 17.766 39.858 47.586 41.077 24.827 1.017 40.595-8.857 40.595-8.857-14.987-1.627-26.306-18.53-25.487-38.557.845-20.68 14.315-36.98 30.028-36.338 0 0 3.413.355 5.044.814l-1.303 31.826zm-50.912 3c-.391 9.52-4.36 20.47-10.245 27.092l.014-.005s-15.336 22.87-56.932 23.074l73.573 3.012 2.16-52.823z"/></svg>