<?xml version="1.0" encoding="UTF-8" standalone="no"?>
<svg
   version="1.1"
   width="600"
   height="544.59369"
   id="svg6"
   xmlns="http://www.w3.org/2000/svg"
   xmlns:svg="http://www.w3.org/2000/svg">
  <defs
     id="defs6" />
  <linearGradient
     x1="0"
     y1="0"
     x2="1"
     y2="0"
     id="linearGradient592"
     gradientUnits="userSpaceOnUse"
     gradientTransform="matrix(23.270309,33.23346,33.23346,-23.270309,88.066406,244.63379)"
     spreadMethod="pad">
    <stop
       style="stop-color:#612c75"
       offset="0"
       id="stop1" />
    <stop
       style="stop-color:#7b5190"
       offset="0.39999399"
       id="stop2" />
    <stop
       style="stop-color:#bf99c3"
       offset="0.5"
       id="stop3" />
    <stop
       style="stop-color:#7b5190"
       offset="0.69999701"
       id="stop4" />
    <stop
       style="stop-color:#612c75"
       offset="1"
       id="stop5" />
  </linearGradient>
  <path
     d="M 299.97305,544.59368 258.27495,429.77758 15.315166,472.06105 137.08775,392.2316 121.55477,389.46807 V 222.44427 L 101.9922,157.98444 0,212.0708 79.979199,43.0186 H 192.29041 L 193.08,45.56432 299.97305,0 406.90694,45.56432 407.70959,43.0186 H 520.0208 L 600,212.0708 498.0078,157.98444 478.43162,222.44427 v 167.0238 l -15.51937,2.76353 121.77258,79.82945 -242.9734,-42.28347 -41.73893,114.8161 z"
     fill="#ffffff"
     id="path5" />
  <g
     transform="matrix(13.613481,0,0,-13.613481,-1057.5496,3806.5606)"
     id="g6">
    <path
       d="m 92.82,275.34 3.961,-1.699 V 258.82 l -1.246,0.907 -4.64,15.5 h -6.559 l -3.961,-8.372 5.543,2.942 1.922,-6.336 v -11.43 l 3.168,-0.562 -6.563,-4.301 13.012,2.262 2.266,-6.219 2.261,6.219 13.008,-2.262 -6.558,4.301 3.168,0.562 v 11.43 l 1.921,6.336 5.543,-2.942 -3.961,8.372 h -6.558 l -4.641,-15.5 -1.246,-0.907 v 14.821 l 3.961,1.699 -6.898,2.941 z"
       style="fill:url(#linearGradient592)"
       id="path6" />
  </g>
</svg>
