<svg xmlns="http://www.w3.org/2000/svg" width="253.706" height="300"><path fill="#fff" d="M253.675 64.546a19.26 19.26 0 0 0-6.593-13.167c-3.445-2.959-7.95-4.621-12.57-4.626-4.213-.016-8.3 1.349-11.686 3.701l-4.074 3.758-16.387 18.506-20.233-10.935c-7.746-4.134-19.592-10.289-34.181-16.08-2.446-3.253-7.753-13.78-12.098-23.833L126.558 0l-9.054 21.949c-4.262 9.991-9.428 20.494-11.954 23.747-14.537 5.778-26.438 11.912-34.08 16.008L51.37 72.736 30.944 50.43c-3.46-2.373-7.554-3.699-11.7-3.669-4.677.007-9.187 1.62-12.635 4.628-3.85 3.367-6.24 8.058-6.57 13.145-.337 5.383 1.54 10.724 5.185 14.819 0 0 9.532 10.601 15.722 17.519l-9.906 10.813 8.066 29.163c6.172 21.075 10.848 35.982 13.883 44.569 3.119 8.399 7.688 17.068 13.986 26.249-2.11 1.309-9.094 5.463-9.094 5.463l.912 6.508c.564 4.519 2.087 17.468 1.538 23.647-1.042 12.99-8.477 24.886-8.514 25.008L12.06 299.85l32.834-17.429c1.018-.529 18.118-9.686 41.166-26.557 17.817 19.783 33.023 34.705 33.548 35.372l6.986 6.78 7.057-6.742c.648-.639 16.083-15.584 34.047-35.42 23.035 16.876 40.09 26.031 41.117 26.552L242.035 300l-20.153-31.713c-.02-.112-7.385-12.031-8.454-25.057-.507-5.525.679-17.374 1.51-23.601l.905-6.477-5.628-3.392c-.056.01-1.303-.764-3.332-1.985 5.863-8.87 10.308-17.49 13.539-26.365 2.89-7.821 15.88-51.224 15.88-51.224l6.379-22.529-9.854-10.776c6.089-6.923 15.676-17.56 15.676-17.56a20.5 20.5 0 0 0 5.172-14.775"/><path d="M95.46 249.115c9.14-7.066 18.99-15.119 29.04-24.365l2.378-2.252 2.504 2.277v-.001c9.976 9.224 19.79 17.281 28.97 24.331-14.825 16.269-27.913 29.222-31.651 32.883-3.691-3.678-16.568-16.634-31.24-32.873M30.514 134.646c5.006 17.305 9.996 33.609 13.274 42.83 2.674 7.083 6.659 14.895 12.718 23.871 7.807-5.18 18.354-12.473 29.435-21.003-16.13-17.849-40.55-47.178-45.568-53.224Zm179.166 42.777c3.333-9.178 8.358-25.596 13.383-42.899l-9.646-7.412c-5.04 6.049-29.537 35.38-45.625 53.225 11.142 8.551 21.727 15.912 29.547 21.011 5.9-8.889 9.747-16.813 12.34-23.925m-82.814-33.469c12.553-12.477 41.586-42.049 47.716-48.296l-17.905-14.671 17.658-10.352c-8.93-4.721-19.551-9.937-32.05-14.882-2.005-.903-3.46-3.039-5.322-5.887-3.804-6.05-8.091-15.364-10.256-20.249-1.142 2.601-8.382 17.413-10.15 20.252-1.842 2.844-3.262 4.973-5.26 5.874-12.454 4.915-23.078 10.14-31.995 14.813l17.786 10.416L79.1 95.691c6.148 6.248 35.237 35.79 47.764 48.263"/><path d="m133.278 214.383 3.062 2.803c39.48 36.484 77.208 56.44 77.208 56.44s-8.74-13.775-10.066-29.568c-.762-8.641 1.596-25.78 1.596-25.78s-21.737-12.84-45.355-31.309c-8.593 9.299-17.587 18.664-26.445 27.414m93.345-154.12-.02.186-22.062 24.82-18.121-9.902-11.976 7.015 15.18 12.473s-57.59 58.753-70.744 71.021c-30.687 28.972-70.241 52.44-70.241 52.44s2.427 17.056 1.673 25.732c-1.347 15.851-10.103 29.564-10.103 29.564s37.776-19.941 77.25-56.375c31.864-29.245 67.308-71.344 83.004-90.485l11.326-13.702 15.602 11.932 4.193-14.713-12.174-13.35c9.512-10.75 21.588-24.157 21.637-24.165 3.757-4.238 3.557-10.344-.43-13.783-1.788-1.505-3.905-2.24-6.14-2.26l-1.606.116a11.04 11.04 0 0 0-6.248 3.436M13.119 58.971c-4.011 3.456-4.223 9.57-.503 13.765.113-.02 12.269 13.515 21.7 24.188l-12.21 13.38 4.23 14.701 15.55-11.995 11.429 13.727c8.996 10.919 24.276 29.218 41.694 48.38 6.095-4.88 22.869-20.176 25.698-23.009-12.792-12.545-56.583-57.228-56.583-57.228l-.05.009L79.36 82.426 67.293 75.38l-18.194 9.88-21.934-24.857-.05.009-.02-.114c-2.11-2.311-5.076-3.544-7.883-3.578l-1.62.105c-1.59.281-3.15 1.021-4.473 2.146"/></svg>