<svg xmlns="http://www.w3.org/2000/svg" xml:space="preserve" width="3000" height="3000" style="clip-rule:evenodd;fill-rule:evenodd;stroke-linecap:round;stroke-linejoin:round;stroke-miterlimit:1.5"><path d="M2138.44 0h1000v1000h-1000z" style="fill:none" transform="matrix(3 0 0 3 -6415.32 0)"/><circle cx="593.062" cy="655.292" r="466.5" style="stroke:#000;stroke-width:1.08px" transform="matrix(2.7736 0 0 2.79987 -79.93 -151.945)"/><circle cx="593.062" cy="655.292" r="466.5" style="fill:url(#a);stroke:#000;stroke-width:1.16px" transform="matrix(2.58876 0 0 2.60579 26.857 -25.485)"/><path d="M2304.675 2031.156s-81.126 138.21-178.773 223.842c0 0 69.105 159.243-184.782 336.513-253.89 177.27-405.62 177.27-579.885 42.063 0 0-503.27-63.057-655.002-504.771 0 0-32.085-85.95-36.522-123.219 0 0-42.219-140.427-26.193-371.673 0 0 3.435-138.519 41.211-282.759 37.776-144.237 43.5-178.581 68.685-226.659-36.555 6.45-151.737-201.849-105.318-362.886 0 0-3.435-29.148 33.198-117.294 0 0-22.896-170.568 61.818-289.62 0 0 25.182-78.243 215.211-190.029 0 0-18.315 111.441-10.302 182.415 0 0 10.302 96.159 76.698 82.422 0 0 72.12-5.724 177.438-162.555 0 0 66.396-89.289 219.792-101.883 0 0 85.857 10.305 119.055 33.198 0 0 115.617-190.029 272.448-187.737 0 0 161.412-4.581 261.006 176.292 0 0 164.844-19.461 275.883 70.974 0 0 98.448 67.539 139.66 199.185 0 0 198.041 81.279 238.11 287.334 0 0 30.908 137.37-12.595 336.555-43.5 199.188-121.34 394.941-201.474 515.139 0 0 99.411 202.533 13.737 310.227-86.223 108.387-216.819 131.211-223.104 124.926"/><path d="M277.17 273.13s-36.504 71.913-35.774 71.913c0 0-22.633-17.522-18.982-79.214 0 0 .607-30.786 13.748-47.578 0 0-9.261-31.103 4.565-62.022 0 0 3.265-16.131 21.509-36.872 0 0 9.026 46.666 36.296 51.66 0 0 21.779 13.52 53.772-9.411 33.223-23.813 46.09-53.003 54.347-55.884 0 0 15.364-18.436 40.329-18.628 0 0 28.614-3.072 52.235 24.774 0 0 20.741-42.441 47.627-62.414 0 0 19.396-19.204 43.209-13.827 0 0 29.657.452 61.261 59.533 0 0 59.445-12.742 91.137 17.025 0 0 25.74 11.006 38.99 64.334 0 0 46.09 14.726 61.262 48.91 0 0 11.138 11.714 15.363 49.738 0 0 2.689 54.594-8.258 90.836s-18.052 58.903-18.052 58.903-23.224-40.521-73.168-79.889c0 0 31.291-22.469 37.052-53.004 0 0 10.37-47.982-51.275-60.877 0 0-28.422-5.981-65.102.356-36.68 6.338-34.183 6.53-34.183 6.53s-25.35-42.427-79.89-75.281c0 0-28.038 30.905-49.354 33.593 0 0-21.873 6.146-29.17.192l-17.668-5.761-13.827-5.569s-25.734-8.258-41.097-8.642c0 0-29.382-4.993-55.116 31.303 0 0-11.715 19.012-37.64 45.706 0 0-16.084 18.394-44.146 19.567" style="fill:url(#b)" transform="matrix(3 0 0 3 69 0)"/><path d="M435.39 208.04s33.68 15.095 53.488 17.486 37.079-2.333 37.079-2.333 12.594-1.078 42.259-24.161c0 0 27.336 18.663 39.038 35.6s7.853 8.315 24.944 36.492c0 0 46.038-15.397 81.913-13.704 35.876 1.694 42.651 7.853 42.651 7.853s10.316 6.159 10.932 14.011c0 0 2.926 10.163-4.157 20.017s-10.47 12.78-10.47 12.78l-13.396 12.01-34.49 22.172 16.783 9.392s26.945 16.013 48.502 37.569c21.556 21.557 22.788 24.79 22.788 24.79l14.781 21.556 10.778 17.707-5.851 12.01s-30.002-36.411-87.764-77.602c0 0 32.62 41.8 39.24 53.194 5.263 9.057 18.477 29.871 18.477 29.871s9.085 15.244 11.086 23.558c0 0-50.832-42.475-64.515-44.344 0 0 34.007 41.529 44.527 58.843s26.081 45.806 27.396 60.928 5.362 29.137-7.671 45.149c-7.671 9.424-15.561 16.437-38.135 24.546-22.574 8.11-29.807 5.699-29.807 5.699s-24.25 45.393-55.01 74.516c-5.74 5.435-14.465 19.726-32.656 35.944s-68.106 56.709-68.106 56.709 55.226-14.056 73.561-28.736c0 0 5.61 10.839-6.105 24.229s-33.625 32.712-55.839 44.884-49.144 22.213-68.467 21.605-30.278-1.217-32.712-5.63c0 0 39.558-20.388 52.339-33.168 0 0-36.409 16.659-79.27 11.411-7.455-.913-54.123-9.973-77.152-18.991 3.466.867-26.046-8.958-38.613-18.709s-33.368-15.6-64.569-56.769c-31.202-41.168-41.819-80.51-46.585-111.804-4.767-31.295-7.801-95.481-.867-135.299 6.933-39.817 20.367-95.286 25.134-106.337 4.767-11.05 25.785-77.452 43.335-102.487 0 0 26.435-7.701 41.819-22.435s19.284-17.984 31.634-33.584 11.484-16.901 11.484-16.901l7.367-9.317 6.934-6.717s13.24-12.639 41.938-3.503" style="fill:#fff" transform="matrix(3 0 0 3 69 0)"/><ellipse cx="339.273" cy="402.844" rx="21.107" ry="34.525" transform="matrix(3.13848 .2841 -.30723 3.39414 106.682 -208.628)"/><path d="M934.476 1081.377s-2.859-30.864 64.011-86.871c66.867-56.01 101.73-48.579 101.73-48.579s30.291-8.001 39.435 22.287c9.144 30.291-11.43 54.297-11.43 54.297l-24.576 23.43-26.289 10.86-17.718 2.859s-92.016 3.999-109.73 28.575c0 0-16.639 4.119-15.433-6.858M1240.287 1522.299s44.508 52.554 89.556 82.047l-74.004 77.757s-54.699-45.582-82.587-94.917c-27.885-49.335-22.52-45.045-22.52-45.045s-10.075-23.556-3.754-45.048c2.68-9.114 82.173-82.962 131.751-145.269 49.575-62.31 67.09-135.432 80.793-165.864 13.707-30.435 13.326-28.149 19.42-31.197 6.09-3.045 10.241 9.084 10.073 11.733-.165 2.646 7.215 65.757-5.913 105.711-13.128 39.957-17.694 53.655-45.093 108.45-27.396 54.795-71.013 114.9-97.722 141.642M1727.98 974.589s-8.64-38.616 57.413-121.437c0 0 95.02 48.777 144.306 160.053s17.784 131.601 17.784 131.601-50.84-78.114-114.846-115.86c-64.005-37.746-76.386-45.255-104.658-54.357M1605.207 1254.822s29.35-56.577 115.041-67.77c12.561-1.641 41.844-1.671 41.844-1.671s74.205 3.984 97.947 37.941c23.742 33.954 23.742 49.14 23.742 62.391s.828 37.269-9.663 53.28c-10.488 16.011-16.125 16.17-23.589 16.485-2.676.111-7.539-2.904-9.98-5.625-3.202-3.573-6.223-7.101-6.229-7.104-1.125-.624-21.489-24.186-21.489-24.186s-21.807-29.538-45.273-36.717c0 0-46.656-20.151-78.405-22.911-31.746-2.763-39.243-4.083-83.946-4.113"/><path d="m1756.986 1899.006-.105 120.954 95.568-204.963-194.16-175.767-33.723 42.408 29.124 65.403s-259.8 213.411-703.443 28.773l5.217-73.284-108.366 120.576s35.715 125.025 73.872 170.94c0 0 23.2 26.685 33.273-6.891 0 0-.153-20.067-4.73-27.393l8.774.072s20.052 45.507 172.218 97.677 309.072 1.185 309.072 1.185 169.452-41.619 317.41-159.69"/><path d="m539.693 595.441 17.982 21.242s-56.496 55.572-151.327 58.942c-88.87 3.158-113.91-58.644-116.484-60.179 0 0-2.604-2.491 2.874-.189s26.093 11.371 42.291 14.061c16.199 2.689 32.397 7.426 45.906 7.875s44.522.799 44.522.799 25.276-.823 61.604-14.343c36.327-13.519 52.632-28.208 52.632-28.208" style="fill:#fff" transform="matrix(3 0 0 3 69 0)"/><defs><linearGradient id="a" x1="0" x2="1" y1="0" y2="0" gradientTransform="translate(126.562 655.292)scale(1057.6)" gradientUnits="userSpaceOnUse"><stop offset="0" style="stop-color:#626e77;stop-opacity:1"/><stop offset=".04" style="stop-color:#697780;stop-opacity:1"/><stop offset=".11" style="stop-color:#7d8e98;stop-opacity:1"/><stop offset=".2" style="stop-color:#9eb4c0;stop-opacity:1"/><stop offset=".2" style="stop-color:#a1b7c3;stop-opacity:1"/><stop offset=".29" style="stop-color:#adc6d4;stop-opacity:1"/><stop offset=".38" style="stop-color:#b5cede;stop-opacity:1"/><stop offset=".5" style="stop-color:#b7d1e1;stop-opacity:1"/><stop offset=".62" style="stop-color:#b5cede;stop-opacity:1"/><stop offset=".71" style="stop-color:#adc6d4;stop-opacity:1"/><stop offset=".8" style="stop-color:#a1b7c3;stop-opacity:1"/><stop offset=".8" style="stop-color:#a0b6c2;stop-opacity:1"/><stop offset=".85" style="stop-color:#8b9da8;stop-opacity:1"/><stop offset=".91" style="stop-color:#74838d;stop-opacity:1"/><stop offset=".96" style="stop-color:#67747d;stop-opacity:1"/><stop offset="1" style="stop-color:#626e77;stop-opacity:1"/></linearGradient><linearGradient id="b" x1="0" x2="1" y1="0" y2="0" gradientTransform="matrix(889.545 0 0 545.503 .461 220.053)" gradientUnits="userSpaceOnUse"><stop offset="0" style="stop-color:#626e77;stop-opacity:1"/><stop offset=".04" style="stop-color:#697780;stop-opacity:1"/><stop offset=".11" style="stop-color:#7d8e98;stop-opacity:1"/><stop offset=".2" style="stop-color:#9eb4c0;stop-opacity:1"/><stop offset=".2" style="stop-color:#a1b7c3;stop-opacity:1"/><stop offset=".29" style="stop-color:#adc6d4;stop-opacity:1"/><stop offset=".38" style="stop-color:#b5cede;stop-opacity:1"/><stop offset=".5" style="stop-color:#b7d1e1;stop-opacity:1"/><stop offset=".62" style="stop-color:#b5cede;stop-opacity:1"/><stop offset=".71" style="stop-color:#adc6d4;stop-opacity:1"/><stop offset=".8" style="stop-color:#a1b7c3;stop-opacity:1"/><stop offset=".8" style="stop-color:#a0b6c2;stop-opacity:1"/><stop offset=".85" style="stop-color:#8b9da8;stop-opacity:1"/><stop offset=".91" style="stop-color:#74838d;stop-opacity:1"/><stop offset=".96" style="stop-color:#67747d;stop-opacity:1"/><stop offset="1" style="stop-color:#626e77;stop-opacity:1"/></linearGradient></defs></svg>