<?xml version="1.0" encoding="UTF-8" standalone="no"?>
<svg
   version="1.1"
   width="600"
   height="547.44525"
   id="svg6"
   xmlns:xlink="http://www.w3.org/1999/xlink"
   xmlns="http://www.w3.org/2000/svg"
   xmlns:svg="http://www.w3.org/2000/svg">
  <defs
     id="defs6" />
  <linearGradient
     x1="0"
     y1="0"
     x2="1"
     y2="0"
     id="linearGradient476"
     gradientUnits="userSpaceOnUse"
     gradientTransform="matrix(40.109695,-13.032425,-13.032425,-40.109695,199.5874,260.8457)"
     spreadMethod="pad">
    <stop
       style="stop-color:#bf331c"
       offset="0"
       id="stop1" />
    <stop
       style="stop-color:#d3641c"
       offset="0.3"
       id="stop2" />
    <stop
       style="stop-color:#f6b91d"
       offset="0.5"
       id="stop3" />
    <stop
       style="stop-color:#d3641c"
       offset="0.7"
       id="stop4" />
    <stop
       style="stop-color:#bf331c"
       offset="1"
       id="stop5" />
  </linearGradient>
  <linearGradient
     x1="0"
     y1="0"
     x2="1"
     y2="0"
     id="linearGradient2995"
     xlink:href="#linearGradient476"
     gradientUnits="userSpaceOnUse"
     gradientTransform="matrix(40.109695,-13.032425,-13.032425,-40.109695,199.5874,260.8457)"
     spreadMethod="pad" />
  <linearGradient
     x1="0"
     y1="0"
     x2="1"
     y2="0"
     id="linearGradient2998"
     xlink:href="#linearGradient476"
     gradientUnits="userSpaceOnUse"
     gradientTransform="matrix(548.94656,178.36348,-178.36348,548.94656,45.730839,228.78148)"
     spreadMethod="pad" />
  <path
     d="m 561.55566,212.7646 c -8.92336,0 -21.74727,2.24453 -37.04836,6.63778 C 521.72901,97.93796 422.08029,0 299.97263,0 177.91971,0 78.270985,97.93796 75.492701,219.40238 60.205292,215.00913 47.312956,212.7646 38.444343,212.7646 H 0 V 547.44526 H 600 V 212.7646 Z"
     id="path5" />
  <path
     d="m 113.86861,224.58942 c 0,2.83303 0.0547,5.66606 0.16424,8.44434 v 0 c 44.21989,18.39416 96.50091,49.18796 136.64233,91.73814 v 0 c 18.66789,19.77646 35.1323,39.51186 49.29745,59.0146 v 0 c 14.16514,-19.50274 30.62956,-39.23814 49.35219,-59.0146 v 0 c 40.14142,-42.55018 92.42244,-73.34398 136.64233,-91.73814 v 0 c 0.10949,-2.77828 0.16424,-5.61131 0.16424,-8.44434 v 0 c 0,-102.81022 -83.34854,-186.15876 -186.15876,-186.15876 v 0 c -102.81022,0 -186.10402,83.34854 -186.10402,186.15876 m 263.36223,126.54197 c -40.15511,42.55018 -63.57208,78.58577 -77.25821,105.36953 v 0 C 286.34124,429.71716 262.86953,393.68157 222.7281,351.13139 v 0 C 158.34854,282.90603 62.285584,251.26369 38.444343,251.26369 v 0 257.73723 H 561.55566 V 251.26369 c -23.89599,0 -119.9042,31.64234 -184.32482,99.8677"
     style="fill:url(#linearGradient2998)"
     id="path6" />
</svg>
