<?xml version="1.0" encoding="UTF-8" standalone="no"?>
<svg
   version="1.1"
   width="523.16608"
   height="470.57025"
   id="svg1"
   xmlns="http://www.w3.org/2000/svg"
   xmlns:svg="http://www.w3.org/2000/svg">
  <defs
     id="defs1" />
  <path
     d="M 338.84124,312.70073 C 298.68613,355.25091 275.26916,391.23175 261.58303,418.07026 247.8969,391.23175 224.47993,355.25091 184.32482,312.70073 119.95894,244.53011 23.895985,212.77829 0,212.77829 V 470.57026 H 523.16606 V 212.77829 c -23.89599,0 -119.95894,31.75182 -184.32482,99.92244 M 75.643251,194.6031 c -0.10949,-2.83303 -0.16424,-5.61131 -0.16424,-8.44434 C 75.479011,83.34854 158.77281,0 261.58303,0 c 102.81022,0 186.15876,83.34854 186.15876,186.15876 0,2.83303 -0.10949,5.61131 -0.21898,8.44434 -44.16515,18.39416 -96.44617,49.18796 -136.64234,91.73814 -18.66788,19.77646 -35.1323,39.51186 -49.29744,59.0146 C 247.41788,325.8531 230.95347,306.1177 212.28558,286.34124 172.14416,243.79106 119.80839,212.99726 75.643251,194.6031"
     id="path1" />
</svg>
