<?xml version="1.0" encoding="UTF-8" standalone="no"?>
<svg
   version="1.1"
   id="Layer_1"
   x="0px"
   y="0px"
   width="300"
   height="227.718"
   xmlns="http://www.w3.org/2000/svg"
   xmlns:svg="http://www.w3.org/2000/svg">
  <defs
     id="defs1" />
  <g
     id="g1"
     transform="translate(0,-36.141)">
    <polygon
       fill="#ffffff"
       points="246.917,103.671 200.065,70.299 189.562,50.632 181.822,36.141 173.428,50.263 150,89.679 126.572,50.263 118.178,36.141 110.438,50.632 99.934,70.299 53.082,103.671 41.834,108.342 19.765,117.507 0,125.715 19.512,134.508 38.19,142.925 40.005,143.743 41.996,143.743 51.442,143.743 93.863,210.637 94.488,211.623 95.338,212.422 122.832,238.294 143.652,257.886 150,263.859 156.348,257.886 177.168,238.294 204.662,212.422 205.512,211.623 206.137,210.637 248.558,143.743 258.004,143.743 259.995,143.743 261.81,142.925 280.488,134.508 300,125.715 280.235,117.507 258.166,108.342 "
       id="polygon1" />
    <path
       d="m 276.683,126.062 -18.679,8.417 h -14.54 l -45.15,71.197 -27.494,25.872 7.436,-65.794 41.87,-69.792 22.27,15.863 12.216,5.073 z m -140.775,30.032 5.491,9.153 0.738,6.527 7.863,69.576 7.864,-69.577 0.738,-6.527 5.491,-9.153 32.55,-54.257 L 220.127,95.96 192.92,76.581 181.391,54.995 150,107.809 118.609,54.997 107.08,76.583 79.873,95.961 l 23.484,5.876 z m -56.035,-60.133 -22.27,15.863 -12.216,5.073 -22.069,9.165 18.679,8.417 h 14.54 l 45.15,71.197 27.494,25.872 -7.436,-65.794 z"
       id="path1" />
  </g>
</svg>
