<?xml version="1.0" encoding="UTF-8" standalone="no"?>
<svg
   version="1.1"
   id="Layer_1"
   x="0px"
   y="0px"
   width="300"
   height="227.718"
   xmlns="http://www.w3.org/2000/svg"
   xmlns:svg="http://www.w3.org/2000/svg">
  <defs
     id="defs5" />
  <polygon
     points="246.917,103.671 200.065,70.299 189.562,50.632 181.822,36.141 173.428,50.263 150,89.679 126.572,50.263 118.178,36.141 110.438,50.632 99.934,70.299 53.082,103.671 41.834,108.342 19.765,117.507 0,125.715 19.512,134.508 38.19,142.925 40.005,143.743 41.996,143.743 51.442,143.743 93.863,210.637 94.488,211.623 95.338,212.422 122.832,238.294 143.652,257.886 150,263.859 156.348,257.886 177.168,238.294 204.662,212.422 205.512,211.623 206.137,210.637 248.558,143.743 258.004,143.743 259.995,143.743 261.81,142.925 280.488,134.508 300,125.715 280.235,117.507 258.166,108.342 "
     id="polygon1"
     transform="translate(0,-36.141)" />
  <linearGradient
     id="SVGID_1_"
     gradientUnits="userSpaceOnUse"
     x1="96.958801"
     y1="73.6437"
     x2="202.89529"
     y2="179.58009"
     gradientTransform="translate(0,-36.141)">
    <stop
       style="stop-color:#536e78"
       offset="0"
       id="stop1" />
    <stop
       style="stop-color:#99aebc"
       offset="0.3"
       id="stop2" />
    <stop
       style="stop-color:#d9eaf3"
       offset="0.5"
       id="stop3" />
    <stop
       style="stop-color:#99aebc"
       offset="0.7"
       id="stop4" />
    <stop
       style="stop-color:#536e78"
       offset="1"
       id="stop5" />
  </linearGradient>
  <path
     fill="url(#SVGID_1_)"
     d="m 276.683,89.921 -18.679,8.417 h -14.54 l -45.15,71.197 -27.494,25.872 7.436,-65.794 41.87,-69.792 22.27,15.863 12.216,5.073 z m -140.775,30.032 5.491,9.153 0.738,6.527 7.863,69.576 7.864,-69.577 0.738,-6.527 5.491,-9.153 32.55,-54.257 23.484,-5.876 L 192.92,40.44 181.391,18.854 150,71.668 118.609,18.856 107.08,40.442 79.873,59.82 103.357,65.696 Z M 79.873,59.82 57.603,75.683 45.387,80.756 23.318,89.921 41.997,98.338 h 14.54 l 45.15,71.197 27.494,25.872 -7.436,-65.794 z"
     id="path5"
     style="fill:url(#SVGID_1_)" />
</svg>
