<?xml version="1.0" encoding="UTF-8" standalone="no"?>
<svg
   version="1.1"
   id="Layer_1"
   x="0px"
   y="0px"
   width="253.36501"
   height="186.355"
   xmlns="http://www.w3.org/2000/svg"
   xmlns:svg="http://www.w3.org/2000/svg">
  <defs
     id="defs1" />
  <path
     d="m 253.365,71.067 -18.679,8.417 h -14.54 l -45.15,71.197 -27.494,25.872 7.436,-65.794 41.87,-69.792 22.27,15.863 12.216,5.073 z m -140.775,30.032 5.491,9.153 0.738,6.527 7.863,69.576 7.864,-69.577 0.738,-6.527 5.491,-9.153 32.55,-54.257 23.484,-5.876 L 169.602,21.586 158.073,0 126.682,52.814 95.291,0.002 83.762,21.588 56.555,40.966 80.039,46.842 Z M 56.555,40.966 34.285,56.829 22.069,61.902 0,71.067 18.679,79.484 h 14.54 l 45.15,71.197 27.494,25.872 -7.436,-65.794 z"
     id="path1" />
</svg>
