<svg xmlns="http://www.w3.org/2000/svg" width="600" height="311.555"><path d="M455.431 226.777c0-11.085-9.032-20.118-20.118-20.118s-20.071 9.033-20.071 20.118c0 11.086 8.986 20.071 20.071 20.071s20.118-8.985 20.118-20.07m-94.9 0c0-11.086-8.986-20.119-20.072-20.119s-20.071 9.033-20.071 20.118c0 11.086 8.986 20.071 20.071 20.071s20.071-8.985 20.071-20.07m239.376-69.787h-88.531c-22.582 0-40.87 18.277-40.87 40.87s18.288 40.881 40.87 40.881l14.44.13s18.464 5.771 18.464 36.107c0 30.289-18.288 36.576-18.288 36.576H234.156s-18.288-6.287-18.288-36.576c0-30.336 18.417-36.107 18.417-36.107l28.916-.13c23.414 0 42.383-19.027 42.383-42.394 0-23.415-18.969-42.383-42.383-42.383-111.16 0-113.318-32.858-113.318-32.858S21.537 113.963 0 18.417h189.204L203.68 0H600Z"/></svg>