<svg xmlns="http://www.w3.org/2000/svg" width="600" height="650.583"><radialGradient id="a" cx="0" cy="0" r="1" fx="0" fy="0" gradientTransform="translate(299.837 325.307)scale(258.02927)" gradientUnits="userSpaceOnUse" spreadMethod="pad"><stop offset="0" style="stop-color:#d9eaf3"/><stop offset=".663" style="stop-color:#99aebc"/><stop offset="1" style="stop-color:#536e78"/></radialGradient><path d="M542.066 0H0s241.48 533.494 242.44 535.592c-9.092 12.199-14.622 26.934-14.622 42.955 0 19.241 7.498 37.343 21.095 50.94 13.597 13.598 31.716 21.096 50.957 21.096 19.257 0 37.36-7.498 50.892-21.095 13.662-13.598 21.16-31.7 21.16-50.941 0-16.964-6.36-32.415-16.525-44.988C355.787 532.664 600 0 600 0Z" style="fill:#fff"/><path d="M286.842 546.197c-12.768 5.156-21.843 17.663-21.843 32.35 0 19.241 15.565 34.871 34.87 34.871 19.258 0 34.823-15.63 34.823-34.871a34.82 34.82 0 0 0-21.794-32.35v-31.44h10.23L542.066 37.165H57.69l216.14 477.592h13.011z" style="fill:#536e78"/><path d="M472.615 43.719H67.79l210.22 464.483h15.386v42.386l-4.131 1.643a28.3 28.3 0 0 0-17.793 26.316 28.463 28.463 0 0 0 28.397 28.398c15.63 0 28.333-12.768 28.333-28.398 0-11.63-6.977-21.925-17.712-26.316l-4.131-1.643v-42.386h12.573L531.9 43.72Z" style="fill:url(#a);stroke-width:16.2646"/><path d="M313.857 445.812H285.9l-1.66-3.806L121.156 84.56l-4.262-9.206h116.52V96.01l-6.23.243c-11.173.39-14.605 2.667-15.435 4.57-2.797 5.856 4.067 21.86 7.368 29.553l1.92 4.44c.7 1.594 59.707 133.744 78.964 176.634 18.997-43.02 77.452-175.235 78.151-176.813 1.139-2.732 2.603-5.725 4.131-8.831 3.546-7.124 7.238-14.427 6.474-21.095-.195-1.968-.83-7.889-16.135-8.458l-6.294-.243V75.353H482.78l-4.245 9.158-162.97 357.43z" style="fill:#536e78"/><path d="M300 327.455s84.12-190.084 84.185-190.215c4.132-10.295 12.329-21.534 11.044-33.228-1.204-11.255-12.768-13.923-22.364-14.232v-7.937h99.75l-162.954 357.43H290.16L127.059 81.844h99.88v7.937c-6.863.196-17.793 1.139-21.095 8.263-4.635 9.775 5.205 29.731 9.092 39.197.052.066 85.064 190.215 85.064 190.215" style="fill:#fff"/></svg>