<?xml version="1.0" encoding="UTF-8"?><svg id="Layer_2" xmlns="http://www.w3.org/2000/svg" width="300" height="223" viewBox="0 0 300 223"><defs><style>.cls-1{fill:#fff;}.cls-2{stroke:#231f20;stroke-miterlimit:10;}</style></defs><g id="Layer_1_copy_2"><path class="cls-1" d="M300,0v223H0V0h300ZM147,6H6v211h141V6ZM294,6h-141v211h141V6ZM25,29v165h30v-73l13.66358,73.04127,16.28734-.09434,12.04908-68.94693v69h31V29h-39l-12.50006,80.01014-12.49994-80.01014H25ZM164,144v60h119v-60h-119ZM240,18v114h43V18h-43ZM164,18v51h65V18h-65ZM164,81v51h65v-51h-65Z"/><path class="cls-2" d="M147,6v211H6V6h141ZM64,29H25v165h30v-73l13.66358,73.04127,16.28734-.09434,12.04908-68.94693v69h31V29h-39l-12.50006,80.01014-12.49994-80.01014ZM294,6v211h-141V6h141ZM229,18h-65v51h65V18ZM283,18h-43v114h43V18ZM229,81h-65v51h65v-51ZM283,144h-119v60h119v-60Z"/></g></svg>