<?xml version="1.0" encoding="UTF-8"?><svg id="Layer_2" xmlns="http://www.w3.org/2000/svg" width="300" height="223" xmlns:xlink="http://www.w3.org/1999/xlink" viewBox="0 0 300 223"><defs><style>.cls-1{fill:url(#linear-gradient);}</style><linearGradient id="linear-gradient" x1="-12.94319" y1="-7.00189" x2="309.75537" y2="227.68352" gradientUnits="userSpaceOnUse"><stop offset=".08003" stop-color="#4d6773"/><stop offset=".12171" stop-color="#627d89"/><stop offset=".19929" stop-color="#85a1ad"/><stop offset=".27746" stop-color="#a0bdc9"/><stop offset=".35547" stop-color="#b3d1dd"/><stop offset=".43329" stop-color="#bfdde9"/><stop offset=".51078" stop-color="#c3e2ee"/><stop offset=".56703" stop-color="#bcdbe7"/><stop offset=".64841" stop-color="#a9c7d3"/><stop offset=".74507" stop-color="#8ba8b4"/><stop offset=".85259" stop-color="#627c88"/><stop offset=".90084" stop-color="#4d6773"/></linearGradient></defs><g id="Layer_1_copy_4"><path d="M300,0v223H0V0h300ZM147,6H6v211h141V6ZM294,6h-141v211h141V6ZM25,29v165h30v-73l13.66358,73.04127,16.28734-.09434,12.04908-68.94693v69h31V29h-39l-12.50006,80.01014-12.49994-80.01014H25ZM164,144v60h119v-60h-119ZM240,18v114h43V18h-43ZM164,18v51h65V18h-65ZM164,81v51h65v-51h-65Z"/><path class="cls-1" d="M147,6v211H6V6h141ZM64,29H25v165h30v-73l13.66358,73.04127,16.28734-.09434,12.04908-68.94693v69h31V29h-39l-12.50006,80.01014-12.49994-80.01014ZM294,6v211h-141V6h141ZM229,18h-65v51h65V18ZM283,18h-43v114h43V18ZM229,81h-65v51h65v-51ZM283,144h-119v60h119v-60Z"/></g></svg>