<svg xmlns="http://www.w3.org/2000/svg" xml:space="preserve" width="163.357" height="80.338"><path d="m146.8 5.2-1-1.4h-118c-1.6 0-3.1 1.2-3.4 2.8s.5 3.2 2 3.9c1.3.6 3.9 2.2 4.5 3.7.1.3.1.5 0 .9L12.6 55.9c-2.4 5.4-6.6 8.9-6.6 9q-1.2 1.05-1.2 2.7v.6c0 1.9 1.6 3.5 3.5 3.5h30.6c1.6 0 3-1 3.4-2.5s-.1-3-1.5-3.8c-.4-.3-2.8-2.5-2.8-8.5 0-4.3 9.3-10.4 15.6-13.2.1 0 .2-.1.2-.1l6.6 14.9c1.6 3.7-3.1 6.8-3.3 6.9-1.3.8-1.9 2.4-1.5 3.9s1.8 2.5 3.3 2.5h86.8l1-1.4c.3-.5 7.9-11.2 7.9-32.5.1-21.5-7.5-32.3-7.8-32.7" style="fill:#fff" transform="translate(1.093 1.815)"/><path d="M61.2 67.3c2.2-2 5.4-5.9 3.2-10.8L46 15.4 34.5 41.1H49c-5.1 2.7-15.2 8.9-15.2 15.7 0 5.7 1.8 9 3.2 10.6H9.5c1.5-1.5 4.8-4.9 6.9-9.7l18.2-40.8c.6-1.4.7-2.8.1-4.2C34 10.6 32.2 9 30.6 8h38.2c-1.8 1.6-3.2 4.3-1.6 7.8l19.1 42.8c2 4.5 4.8 7.3 6.8 8.8z" style="fill:#000" transform="translate(1.093 1.815)"/><path d="M124.193 41.216h10.8v-13.9l-10.8 13.3z"/><path d="M144.693 9.816h-65.4c-2.1 0-4.4 1.3-5.6 3.2-.6.9-1.1 2.2-.4 3.7.1.3 14.2 32 18.7 41.8 4.7 10.4 16.8 10.8 18.1 10.8h34.7c1.2-1.8 6.9-11.8 6.9-29.7-.1-18-5.8-28-7-29.8m-30.5 36.6.2-.1 2.6-5.7h.2v11.2h-23.8l-.1-.2c2.4-2.9 4.6-5.6 6.6-8.3q3-3.9 5.1-7.5t3.3-6.6q1.2-3.15 1.2-5.7c0-2-.5-3.4-1.4-4.3s-2-1.4-3.3-1.4c-.8 0-1.6.2-2.2.5s-1.1.8-1.5 1.3-.7 1.2-.9 1.9-.3 1.4-.3 2.2c0 .5 0 1 .1 1.4q.15.75.3 1.2l-.2.2-5.8-7.3c1.2-1.2 2.8-2.2 4.6-3s3.8-1.2 6.1-1.2q2.4 0 4.5.6c1.4.4 2.7 1 3.8 1.8s2 1.7 2.6 2.9c.7 1.2 1 2.5 1 4.1q0 2.7-1.2 5.1-1.2 2.25-3.3 4.8c-1.4 1.6-3.1 3.4-5 5.4-1.9 1.9-4 4.2-6.2 6.9h13zm28.4-.8v7.2c-6.6-.1-7.7 1.1-7.7 1.1l.1-9.1h-11.8l-3.8-3.4 22.6-27.4.3-.3v27.5h5.2z"/></svg>