<svg xmlns="http://www.w3.org/2000/svg" width="600" height="451.998"><path d="M-242.132 170.322c18.57 0 35.463-7.159 48.095-18.856a21.1 21.1 0 0 0 4.66-7.543c1.815-5.082 1.576-10.357-.267-14.79-10.352 18.293-29.972 30.648-52.488 30.648-33.294 0-60.284-26.993-60.284-60.294 0-13.983 4.772-26.844 12.759-37.072a71 71 0 0 1-9.251-5.277c-8.821 11.815-14.046 26.471-14.046 42.35 0 39.12 31.708 70.834 70.822 70.834m1.03 55.678C-311.184 226-368 169.175-368 99.077c0-37.54 16.299-73.638 42.2-99.077h257.667c4.529 189.94-106.721 226-172.968 226" style="fill:#fff" transform="matrix(2 0 0 -2 735.998 451.999)"/><path d="M253.8 91.741c25.707 0 50.017 5.96 71.653 16.544a123.5 123.5 0 0 0 1.784-20.804c0-21.31-5.436-41.25-14.878-58.335-18.706-4.864-38.332-7.458-58.56-7.458-128.195 0-232.117 103.94-232.117 232.157 0 50.904 16.392 97.972 44.166 136.233 9.842-22.9 24.738-43.1 43.258-59.251-11.874-22.642-18.624-48.394-18.624-75.736 0-90.214 73.12-163.35 163.317-163.35"/><path d="M371.386 45.105c4.872 13.112 7.574 27.402 7.574 42.376 0 18.978-4.322 36.858-11.932 52.615a67 67 0 0 1 9.176 16.79c11.976 32.03-2.116 66.906-31.474 77.958-7.774-45.824-47.63-80.73-95.66-80.73-53.6 0-97.053 43.46-97.053 97.072 0 36.864 20.544 68.926 50.802 85.368-50.18 6.1-91.708 43.666-102.28 93.763h477.494c-2.35-213.339-67.777-330.978-206.647-385.212"/></svg>