<svg xmlns="http://www.w3.org/2000/svg" width="600" height="452"><linearGradient id="a" x1="0" x2="1" y1="0" y2="0" gradientTransform="matrix(192.77832 0 0 -152.77832 10.84 123.059)" gradientUnits="userSpaceOnUse" spreadMethod="pad"><stop offset="0" style="stop-color:#8b723c"/><stop offset="0" style="stop-color:#536e78"/><stop offset=".3" style="stop-color:#99aebc"/><stop offset=".5" style="stop-color:#d9eaf3"/><stop offset=".7" style="stop-color:#99aebc"/><stop offset="1" style="stop-color:#536e78"/></linearGradient><linearGradient id="b" x1="0" x2="1" y1="0" y2="0" gradientTransform="matrix(288.74805 0 0 -238.74805 50.27 107.145)" gradientUnits="userSpaceOnUse" spreadMethod="pad"><stop offset="0" style="stop-color:#8b723c"/><stop offset="0" style="stop-color:#536e78"/><stop offset=".3" style="stop-color:#99aebc"/><stop offset=".5" style="stop-color:#d9eaf3"/><stop offset=".7" style="stop-color:#99aebc"/><stop offset="1" style="stop-color:#536e78"/></linearGradient><path d="M251.734 111.356c37.14 0 70.928 14.318 96.192 37.712 3.984 4.134 7.222 9.22 9.322 15.086 3.626 10.164 3.148 20.714-.538 29.582-20.702-36.588-59.944-61.298-104.976-61.298-66.586 0-120.566 53.986-120.566 120.588 0 27.966 9.542 53.688 25.518 74.144a142 142 0 0 0-18.502 10.554c-17.644-23.63-28.092-52.942-28.092-84.698 0-78.242 63.416-141.67 141.642-141.67M253.796 0C113.628 0 0 113.65 0 253.846 0 328.928 32.598 401.122 84.398 452h515.334C608.79 72.122 386.29 0 253.796 0"/><path d="M10.84 99.077c0-25.452 8.197-48.985 22.084-68.117 4.921 11.45 12.369 21.55 21.629 29.626a81.3 81.3 0 0 0-9.313 37.869c0 45.107 36.561 81.675 81.66 81.675 12.854 0 25.009-2.981 35.826-8.272a62 62 0 0 1 .893 10.401c0 10.655-2.718 20.625-7.439 29.169a116.2 116.2 0 0 1-29.281 3.729c-64.097 0-116.059-51.971-116.059-116.08" style="fill:url(#a)" transform="matrix(2 0 0 -2 0 452)"/><path d="M189.481 182.259c0-9.488-2.161-18.428-5.967-26.307a33.5 33.5 0 0 0 4.589-8.395c5.987-16.016-1.059-33.453-15.738-38.979-3.887 22.912-23.815 40.365-47.83 40.365-26.8 0-48.527-21.731-48.527-48.536 0-18.432 10.272-34.464 25.402-42.685-25.091-3.049-45.854-21.833-51.14-46.882h238.748c-1.176 106.671-33.89 165.491-103.325 192.608a60.8 60.8 0 0 0 3.788-21.189" style="fill:url(#b)" transform="matrix(2 0 0 -2 0 452)"/></svg>