<svg xmlns="http://www.w3.org/2000/svg" xml:space="preserve" width="381.921" height="333.667" viewBox="0 0 381.921 333.667"><path fill="gray" d="M190.961 333.667c-30.37 0-58.003-13.956-85.988-29.503-15.331-8.519-25.843-18.088-34.291-25.777-4.966-4.521-11.767-10.712-14.178-10.712-5.981 0-10.621 5.466-10.621 17.839 0 4.641.619 10.208.619 10.208S0 279.327 0 230.144c0-32.835 34.006-51.484 35.454-52.262l1.581-.85c-1.748-10.374-2.802-22.179-2.802-35.564 0-62.111 27.459-96.454 50.496-114.326C112.344 5.717 143.239 0 157.141 0c15.291 0 26.649 3.487 33.82 6.661C198.131 3.487 209.489 0 224.781 0c13.901 0 44.796 5.717 72.411 27.142 23.037 17.873 50.496 52.215 50.496 114.326 0 13.385-1.054 25.19-2.801 35.564l1.58.85c1.448.777 35.454 19.427 35.454 52.262 0 49.184-46.503 65.578-46.503 65.578s.619-5.567.619-10.208c0-12.373-4.641-17.839-10.621-17.839-2.411 0-9.213 6.19-14.178 10.712-8.447 7.689-18.96 17.259-34.291 25.777-27.982 15.547-55.616 29.503-85.986 29.503"/><path d="M119.608 47.019c-40.419 0-59.392 40.832-59.392 71.353s15.26 46.606 15.26 46.606-10.724 9.486-10.724 28.459 14.023 38.356 14.023 38.356-29.694-21.859-29.694-90.324c0-104.76 83.314-126.62 108.061-126.62 22.272 0 33.82 8.661 33.82 8.661s11.547-8.661 33.818-8.661c24.747 0 108.062 21.86 108.062 126.62 0 68.465-29.696 90.325-29.696 90.325s14.022-19.385 14.022-38.356c0-18.973-10.724-28.459-10.724-28.459s15.262-16.086 15.262-46.606-18.974-71.353-59.393-71.353c-40.42 0-63.516 20.623-71.352 32.583-7.836-11.962-30.933-32.584-71.353-32.584M339.44 190.962s-22.685 62.692-101.461 88.263c0 0 69.702-38.358 69.702-81.665 0-15.672-8.661-24.747-8.661-24.747s-9.073 9.075-18.972 13.611c0 0 30.521-26.396 30.521-65.578s-23.51-61.454-47.432-61.454c-23.921 0-53.204 9.074-72.176 40.831-18.973-31.757-48.255-40.831-72.177-40.831s-47.431 22.272-47.431 61.454 30.521 65.578 30.521 65.578c-9.898-4.536-18.972-13.611-18.972-13.611s-8.662 9.075-8.662 24.747c0 43.307 69.703 81.665 69.703 81.665-78.777-25.57-101.461-88.263-101.461-88.263s-27.633 14.847-27.633 39.182c0 24.334 18.56 40.42 18.56 40.42s7.836-17.736 23.097-17.736c15.26 0 25.984 21.858 55.68 38.357s53.205 27.635 78.776 27.635c25.572 0 49.08-11.137 78.775-27.635s40.419-38.357 55.681-38.357c15.26 0 23.096 17.736 23.096 17.736s18.56-16.086 18.56-40.42c-.002-24.335-27.634-39.182-27.634-39.182M159.1 161.781c-1.392-3.248-4.176-5.568-8.352-5.568s-4.021 1.083-10.981 1.083c-25.52 0-27.221-22.736-27.221-25.21s1.392-4.794.154-7.27-3.712-3.866-3.712-3.866 8.971-2.166 17.941-2.166c29.077 0 35.882 8.042 35.882 21.653.001 13.611-3.711 21.344-3.711 21.344m31.861 123.63s-23.921-29.078-23.715-63.929c0 0 3.918 3.505 7.011 3.505 5.775 0 7.218-15.879 16.704-15.879 9.485 0 10.93 15.879 16.704 15.879 3.093 0 7.011-3.505 7.011-3.505.206 34.851-23.715 63.929-23.715 63.929m31.86-123.63s-3.712-7.733-3.712-21.344 6.805-21.653 35.882-21.653c8.971 0 17.941 2.166 17.941 2.166s-2.475 1.392-3.712 3.866.155 4.795.155 7.27-1.702 25.21-27.222 25.21c-6.96 0-6.806-1.083-10.981-1.083s-6.959 2.32-8.351 5.568"/></svg>