<svg xmlns="http://www.w3.org/2000/svg" xml:space="preserve" width="381.921" height="333.666" viewBox="0 0 381.921 333.666"><g transform="translate(-9.039 -8.444)"><path d="M200 342.11c-30.37 0-58-13.96-85.99-29.5-15.329-8.52-25.841-18.09-34.289-25.78-4.966-4.52-11.767-10.71-14.178-10.71-5.981 0-10.621 5.47-10.621 17.84 0 4.64.619 10.21.619 10.21s-46.502-16.4-46.502-65.58c0-32.84 34.006-51.49 35.454-52.26l1.581-.85c-1.748-10.38-2.802-22.18-2.802-35.57 0-62.109 27.459-96.452 50.496-114.324C121.38 14.161 152.28 8.444 166.18 8.444c15.29 0 26.65 3.487 33.82 6.661 7.17-3.174 18.53-6.661 33.82-6.661 13.9 0 44.8 5.717 72.41 27.142 23.04 17.873 50.5 52.215 50.5 114.324 0 13.39-1.06 25.19-2.8 35.57l1.58.85c1.44.77 35.45 19.42 35.45 52.26 0 49.18-46.5 65.58-46.5 65.58s.62-5.57.62-10.21c0-12.38-4.65-17.84-10.62-17.84-2.42 0-9.22 6.19-14.18 10.71-8.45 7.69-18.96 17.26-34.29 25.78-27.99 15.54-55.62 29.5-85.99 29.5" style="fill:#fff;fill-opacity:1"/><radialGradient id="a" cx="200" cy="175.28" r="164.49" gradientUnits="userSpaceOnUse"><stop offset="0" style="stop-color:#bf99c3"/><stop offset=".7" style="stop-color:#7b5190"/><stop offset="1" style="stop-color:#612c75"/></radialGradient><path fill="url(#a)" d="M128.65 55.463c-40.422 0-59.395 40.832-59.395 71.357 0 30.52 15.26 46.6 15.26 46.6s-10.724 9.49-10.724 28.46 14.023 38.36 14.023 38.36-29.694-21.86-29.694-90.33c0-104.757 83.31-126.617 108.06-126.617 22.27 0 33.82 8.661 33.82 8.661s11.55-8.661 33.82-8.661c24.75 0 108.06 21.86 108.06 126.617 0 68.47-29.7 90.33-29.7 90.33s14.03-19.39 14.03-38.36-10.73-28.46-10.73-28.46 15.27-16.08 15.27-46.6c0-30.523-18.98-71.356-59.4-71.356S207.84 76.087 200 88.047c-7.84-11.962-30.93-32.584-71.35-32.584M348.48 199.41s-22.69 62.69-101.46 88.26c0 0 69.7-38.36 69.7-81.67 0-15.67-8.66-24.74-8.66-24.74s-9.07 9.07-18.97 13.61c0 0 30.52-26.4 30.52-65.58 0-39.182-23.51-61.454-47.43-61.454-23.93 0-53.21 9.074-72.18 40.834-18.97-31.76-48.25-40.834-72.18-40.834-23.92 0-47.428 22.272-47.428 61.454 0 39.18 30.518 65.58 30.518 65.58-9.9-4.54-18.969-13.61-18.969-13.61s-8.662 9.07-8.662 24.74c0 43.31 69.701 81.67 69.701 81.67-78.775-25.57-101.459-88.26-101.459-88.26s-27.633 14.84-27.633 39.18c0 24.33 18.56 40.42 18.56 40.42s7.836-17.74 23.097-17.74c15.26 0 25.984 21.86 55.675 38.36 29.7 16.5 53.21 27.63 78.78 27.63s49.08-11.13 78.78-27.63c29.69-16.5 40.41-38.36 55.68-38.36 15.26 0 23.09 17.74 23.09 17.74s18.56-16.09 18.56-40.42c0-24.34-27.63-39.18-27.63-39.18m-180.34-29.19c-1.39-3.24-4.18-5.56-8.35-5.56-4.18 0-4.02 1.08-10.98 1.08-25.52 0-27.22-22.74-27.22-25.21s1.39-4.79.15-7.27-3.71-3.87-3.71-3.87 8.97-2.16 17.94-2.16c29.07 0 35.88 8.04 35.88 21.65s-3.71 21.34-3.71 21.34M200 293.86s-23.92-29.08-23.72-63.93c0 0 3.92 3.5 7.02 3.5 5.77 0 7.21-15.88 16.7-15.88s10.93 15.88 16.7 15.88c3.1 0 7.01-3.5 7.01-3.5.21 34.85-23.71 63.93-23.71 63.93m31.86-123.64s-3.71-7.73-3.71-21.34 6.8-21.65 35.88-21.65c8.97 0 17.94 2.16 17.94 2.16s-2.47 1.4-3.71 3.87c-1.24 2.48.15 4.8.15 7.27 0 2.48-1.7 25.21-27.22 25.21-6.96 0-6.8-1.08-10.98-1.08-4.17 0-6.96 2.32-8.35 5.56" style="fill:url(#a)"/></g></svg>