<svg xmlns="http://www.w3.org/2000/svg" width="107.594" height="94.989" viewBox="0 0 107.594 94.989"><path d="M44.925 6.99c13.182 5.52 27.27 9.72 41.669 10.329 1.333.056 2.831.24 4.17.108.648-.063 1.642-.726 2.362-.97 5.443-1.845 10.198.576 12.08 5.88.349.982.322 1.043.849 1.962 3.99 6.96-.19 15.193-7.828 16.82-.392.083-.897.048-1.298.16-.726.202-1.535.87-2.366.913.206 1.4.503 2.796.62 4.211.222 2.691.048 5.536-.448 8.187-1.129 6.034-4.29 11.646-8.607 15.954a10.5 10.5 0 0 1 2.395 3.744c.48 1.29.616 1.603 1.265 2.793 3.445 6.314-.465 14.696-7.429 16.232-1.37.303-1.87.417-3.18.88-3.407 1.201-6.494 1.168-9.494-.973-.488-.349-.806-.79-1.394-1.104-2.651-1.416-6.884-2.756-9.804-3.832-10.335-3.81-21.287-7.265-32.101-9.436-1.19-.238-5.826-1.247-6.687-1.023-.299.078-.708.4-1.04.521-3.88 1.42-8.066 1.002-10.822-2.29-.434-.519-.982-1.729-1.302-2.029-.318-.299-1.577-.768-2.108-1.119-8.955-5.91-3.23-19.987 7.42-19.278.542.036 1.54.356 1.964.315.316-.03 1.047-.523 1.418-.672 4.709-1.89 9.453-.868 12.126 3.585 3.298-3.04 5.963-6.76 7.55-10.974 2.395-6.36 2.317-13.474.31-19.93-3.856 1.59-8.212.932-10.928-2.344-.407-.491-.959-1.692-1.258-1.968-.215-.2-.88-.374-1.21-.56-10.132-5.725-4.413-20.69 6.784-19.787.468.037 1.401.358 1.764.31.262-.034 1.724-.85 2.219-1.015 5.585-1.864 10.724.803 12.339 6.4m-4.504-.911c-1.514-2.654-4.639-2.916-7.254-1.787-4.741 2.048-8.148 8.395-7.412 13.48.34 2.349 1.62 4.606 4.065 5.199.301.073 2.171.385 2.166.018-4.265-3.175-4.1-9.158-1.082-13.154 2.185-2.895 5.882-4.653 9.517-3.756M27.824 4.936c-6.605-.218-10.446 8.528-4.737 12.59-.368-4.69 1.6-9.199 4.737-12.59M83.94 35.424c-1.272-5.093.653-10.567 4.163-14.308 0-.267-1.912-.135-2.241-.152-12.014-.627-25.028-3.841-36.229-8.119-3.163-1.208-6.165-2.954-9.214-4.11-5.598-2.122-11.036 5.302-8.487 10.356 1.464 2.906 4.207 2.57 6.962 3.03C54.398 24.72 69.357 29.74 83.94 35.425m6.715 3.538c.588.08 1.32-.058 1.926 0-6.664-5.01-2.719-15.79 4.974-17.141 1.19-.21 2.179-.106 3.355.074-3.097-4.455-8.43-1.94-11.297 1.353-2.782 3.195-4.629 8.755-2.672 12.767.636 1.304 2.239 2.748 3.714 2.947m8.05-14.748c-4.971.175-8.72 6.956-5.98 11.223 2.83 4.413 8.788 1.412 10.495-2.544 1.603-3.716.211-8.846-4.514-8.68M28.658 60.709c12.27 4.988 25.266 8.957 38.574 9.99 2.161.167 5.177.412 7.292.214.525-.05.552-.244.945-.409 2.112-.89 4.091-1.468 6.419-.964 7.517-6.546 11.354-16.534 9.1-26.435-.07-.308-.331-1.656-.557-1.733-.405-.138-1.052-.152-1.549-.325-.743-.258-1.56-.773-2.179-1.256-1.07-.833-1.141-.936-2.453-1.502-11.073-4.781-24.082-8.972-35.83-11.743-3.29-.776-6.627-1.512-9.976-1.943.688 1.638 1.132 3.43 1.425 5.183 1.255 7.523.378 15.411-3.49 22.045-2.006 3.443-4.705 6.308-7.721 8.878m-4.79-2.289c.122-.12-.795-1.075-.935-1.197-2.662-2.32-6.466-1.007-8.853 1.04-3.556 3.05-5.959 8.637-4.527 13.269.814 2.632 3.16 4.426 5.986 3.849l-1.406-1.246c-5.445-6.691 1.319-17.631 9.735-15.715M11.27 57.277C4.7 57.109.874 65.76 6.533 69.867c-.01-.94-.045-1.89.065-2.848.483-4.207 2.09-6.268 4.516-9.43.08-.104.202-.132.155-.312m60.282 16.13c-1.746-.163-3.509-.167-5.257-.314-11.57-.978-25.141-4.438-35.834-8.93-4.467-1.878-8.805-5.733-13.209-1.377-2.97 2.94-3.828 9.732.997 11.085 1.85.519 4.659.66 6.68 1.024 14.51 2.618 28.715 7.557 42.405 12.872.125.001-.248-1.715-.263-1.923-.344-4.73 1.424-8.94 4.48-12.438m2.55 17.896c.588.08 1.32-.058 1.927 0-5.92-4.502-3.426-13.765 2.918-16.49 1.66-.712 3.659-1.062 5.41-.471-.647-1.48-2.513-2.45-4.106-2.502-7.286-.239-13.738 11.926-9.113 17.64.63.778 1.964 1.689 2.965 1.823m7.944-14.744c-4.892.341-8.79 7.26-5.791 11.344 4.232 5.767 13.265-1.551 10.651-8.252-.794-2.038-2.656-3.246-4.86-3.092"/><path d="M82.045 76.559c2.204-.154 4.066 1.054 4.86 3.092 2.614 6.7-6.419 14.02-10.651 8.253-2.999-4.086.9-11.003 5.79-11.345m-14.814-5.86c2.161.167 5.177.412 7.292.214.525-.05.552-.244.945-.409 2.112-.89 4.091-1.468 6.419-.964 7.517-6.546 11.354-16.534 9.1-26.435-.07-.308-.331-1.656-.557-1.733-.405-.138-1.052-.152-1.549-.325-.743-.258-1.56-.773-2.179-1.256-1.07-.833-1.141-.936-2.453-1.502-11.073-4.781-24.082-8.972-35.83-11.743-3.29-.776-6.627-1.512-9.976-1.943.688 1.638 1.132 3.43 1.425 5.183 1.255 7.523.378 15.411-3.49 22.045-2.006 3.443-4.705 6.308-7.721 8.878 12.27 4.988 25.266 8.957 38.574 9.99m16.71-35.275c-14.583-5.685-29.542-10.705-45.046-13.302-2.755-.462-5.498-.125-6.962-3.03-2.549-5.055 2.889-12.48 8.487-10.357 3.049 1.156 6.051 2.902 9.214 4.11 11.201 4.278 24.215 7.492 36.229 8.12.329.016 2.241-.116 2.24.151-3.509 3.741-5.434 9.215-4.162 14.308M71.55 73.406c-3.056 3.499-4.824 7.709-4.48 12.438.015.208.388 1.924.263 1.923-13.69-5.315-27.895-10.254-42.405-12.872-2.021-.365-4.83-.505-6.68-1.024-4.825-1.353-3.968-8.145-.997-11.085 4.404-4.356 8.742-.5 13.21 1.376 10.692 4.493 24.262 7.953 35.833 8.93 1.748.148 3.51.152 5.257.314m21.174-37.969c2.832 4.413 8.789 1.412 10.496-2.544 1.603-3.716.211-8.846-4.514-8.68-4.972.176-8.72 6.957-5.982 11.224M40.421 6.08c-3.635-.897-7.332.86-9.517 3.756-3.017 3.996-3.183 9.979 1.082 13.154.005.367-1.865.055-2.166-.018-2.445-.593-3.724-2.85-4.065-5.199-.736-5.085 2.67-11.432 7.412-13.48 2.615-1.129 5.74-.867 7.254 1.787m35.607 85.224c-5.92-4.502-3.426-13.765 2.918-16.49 1.66-.712 3.659-1.062 5.41-.471-.647-1.48-2.513-2.45-4.106-2.502-7.286-.239-13.738 11.926-9.113 17.64.63.778 1.964 1.689 2.965 1.823.587.08 1.32-.058 1.926 0M92.58 38.962c-6.664-5.01-2.719-15.79 4.974-17.141 1.19-.21 2.179-.106 3.355.074-3.097-4.455-8.43-1.94-11.297 1.353-2.782 3.195-4.629 8.755-2.672 12.767.636 1.304 2.239 2.748 3.714 2.947.588.08 1.32-.058 1.926 0m-69.65 18.26c-2.66-2.32-6.465-1.006-8.852 1.042-3.556 3.05-5.959 8.636-4.527 13.268.814 2.632 3.16 4.426 5.985 3.85l-1.405-1.247c-5.445-6.691 1.319-17.631 9.735-15.715.122-.12-.795-1.075-.935-1.197m.156-39.697c-.368-4.688 1.601-9.198 4.737-12.589-6.605-.218-10.446 8.528-4.737 12.59M6.533 69.867c-.01-.94-.045-1.89.065-2.848.483-4.207 2.09-6.268 4.516-9.43.08-.104.202-.132.155-.312C4.7 57.109.874 65.76 6.533 69.867" style="fill:red"/></svg>