<svg xmlns="http://www.w3.org/2000/svg" xmlns:xlink="http://www.w3.org/1999/xlink" width="600" height="758.605"><linearGradient id="a" x1="0" x2="1" y1="0" y2="0" gradientTransform="rotate(120 99.693 313.262)scale(-32.67188 32.67188)" gradientUnits="userSpaceOnUse" spreadMethod="pad"><stop offset="0" style="stop-color:#8b723c"/><stop offset=".4" style="stop-color:#d2bb7b"/><stop offset=".5" style="stop-color:#ebd491"/><stop offset=".7" style="stop-color:#d2bb7b"/><stop offset="1" style="stop-color:#8b723c"/></linearGradient><linearGradient xlink:href="#a" id="b" x1="0" x2="1" y1="0" y2="0" gradientTransform="rotate(60 -75.646 192.784)scale(619.6266)" gradientUnits="userSpaceOnUse" spreadMethod="pad"/><path d="M401.244 176.092 351.08 323.963c-.228-.152-.437-.21-.663-.285-3.698-116.237-12.669-205.734-26.665-266.176L300.863 0l-22.968 57.426c-13.996 60.518-22.966 150.015-26.608 266.252a1.9 1.9 0 0 0-.663.285h-.076l-49.783-148.61C83.864 216.316 0 327.68 0 458.577c0 165.717 134.311 300.028 299.972 300.028C465.689 758.606 600 624.296 600 458.578c0-130.158-82.897-240.914-198.755-282.486"/><path d="M274.253 341.45c-55.188 12.364-94.37 61.408-94.37 117.943 0 56.516 39.182 105.484 94.37 117.944 1.555 59.475 4.457 111.857 8.61 157.202 11.986.74 23.916.74 35.845 0 4.229-45.345 7.036-97.727 8.667-157.202 55.112-12.46 94.39-61.428 94.39-117.944 0-56.535-39.278-105.579-94.39-117.944-3.262-123.634-12.138-216.544-26.514-278.693-14.451 62.15-23.346 155.06-26.608 278.693m54.6 117.944c0-28.827-.284-56.307-.739-82.612 79.578 26.305 79.578 138.844 0 165.205.455-26.285.74-53.785.74-82.593m-55.34-82.612c-.437 26.305-.74 53.785-.74 82.612 0 28.808.303 56.308.74 82.593-79.56-26.361-79.56-138.9 0-165.205m96.608-35.692c16.291 9.558 29.34 21.184 40.529 36.223 26-39.94 52.002-79.862 77.927-119.803-22.151-20.653-46.085-36.583-73.641-49.1-14.964 44.226-29.851 88.453-44.815 132.68m-257.072-83.58c26 39.94 51.945 79.863 77.946 119.803 11.266-15.04 24.219-26.665 40.51-36.223l-44.815-132.68c-27.556 12.517-51.49 28.447-73.641 49.1m310.554 140.835c37.266 74.97-.816 165.51-80.374 191.435-.152 4.286-.304 8.667-.36 12.972-.532 14.148-1.044 28.296-1.784 42.444-1.043 21.544-2.294 43.107-4.001 64.67-.512 7.7-1.195 15.4-1.859 23.12C549.04 706.091 650.75 455.24 515.983 287c-30.743 37.115-61.56 74.23-92.38 111.344m-157.125 334.64c-.74-7.719-1.328-15.418-1.916-23.118a2315 2315 0 0 1-4.002-64.671c-.663-14.148-1.27-28.296-1.706-42.444a372 372 0 0 1-.456-12.972c-79.634-25.926-117.64-116.465-80.374-191.435-30.818-37.114-61.636-74.23-92.379-111.344-134.747 168.24-33.037 419.092 180.833 445.984" style="fill:url(#b)"/></svg>