<svg xmlns="http://www.w3.org/2000/svg" width="453.5" height="394.532"><filter id="a" width="1.074" height="1.085" x="-.037" y="-.043"><feGaussianBlur stdDeviation="7"/></filter><filter id="b" width="1.075" height="1.083" x="-.037" y="-.042"><feGaussianBlur stdDeviation="4"/></filter><g filter="url(#a)" transform="translate(-23.25 -46.893)"><path fill="#fbd500" d="M322.99 200.688 390.982 92.25l28.141-44.881-40.139 34.569-123.422 106.295-50.529-94.612-24.955-46.728 10.043 52.013 16.139 83.574-126.841-56.027-48.457-21.404 39.976 34.759 110.464 96.05-109.603 47.847-48.549 21.194 52.643-5.912L177.01 287.63l-67.993 108.438-28.141 44.881 40.14-34.57 123.422-106.294 50.529 94.613 24.955 46.727-10.044-52.013-16.138-83.575 126.84 56.028 48.457 21.404-39.975-34.759-110.464-96.05 109.603-47.847 48.549-21.194-52.643 5.912z"/></g><path fill="#fff" d="M229.962 153.922 174.726 50.496l19.038 98.587L52.937 86.878l120.016 104.355L51.75 244.144l117.598-13.208-76.803 122.489L223.537 240.61l55.236 103.426-19.037-98.587 140.827 62.205-120.016-104.355 121.203-52.911-117.598 13.208 76.802-122.489z"/><g filter="url(#b)" transform="translate(-23.25 -46.893)"><path fill="#fbd500" d="m308.295 218.439-16.481 1.851 8.81-14.051 48.661-77.607-90.852 78.245-7.571 6.52-4.707-8.813-30.28-56.699 8.994 46.574 2.898 15.013-13.986-6.178-92.369-40.801 80.04 69.596 9.551 8.305-11.6 5.063-72.653 31.717 64.955-7.295 16.48-1.851-8.81 14.051-48.661 77.607 90.853-78.245 7.57-6.52 4.707 8.813 30.281 56.699-8.994-46.574-2.899-15.013 13.986 6.178 92.37 40.801-80.04-69.596-9.551-8.305 11.6-5.063 72.653-31.717z"/></g><g transform="translate(-23.25 -46.893)"><path fill="#fff" d="m289.562 150.632-7.74-14.491-8.394 14.122L250 189.679l-23.428-39.416-8.394-14.122-7.74 14.491-10.504 19.667-46.852 33.372-11.248 4.671-22.069 9.165L100 225.715l19.512 8.793 18.678 8.417 1.815.818h11.437l42.421 66.894.625.986.85.799 27.494 25.872 20.82 19.592 6.348 5.973 6.348-5.973 20.82-19.592 27.494-25.872.85-.799.625-.986 42.421-66.894h11.437l1.815-.818 18.678-8.417L400 225.715l-19.765-8.208-22.069-9.165-11.249-4.671-46.852-33.372z"/><linearGradient id="c" x1="186.347" x2="313.653" y1="163.032" y2="290.338" gradientUnits="userSpaceOnUse"><stop offset="0" style="stop-color:#a82129"/><stop offset=".072" style="stop-color:#ab2c29"/><stop offset=".189" style="stop-color:#b6432a"/><stop offset=".337" style="stop-color:#ca6228"/><stop offset=".5" style="stop-color:#e88d1f"/><stop offset="1" style="stop-color:#a82129"/></linearGradient><path fill="url(#c)" d="m376.683 226.062-18.679 8.417h-14.54l-45.15 71.197-27.494 25.872 7.436-65.794 41.87-69.792 22.27 15.863 12.216 5.073zm-140.775 30.032 5.491 9.153.738 6.527L250 341.35l7.864-69.577.738-6.527 5.491-9.153 32.55-54.257 23.484-5.876-27.207-19.379-11.529-21.586L250 207.809l-31.391-52.812-11.529 21.586-27.207 19.379 23.484 5.876zm-56.035-60.133-22.27 15.863-12.216 5.073-22.069 9.165 18.679 8.417h14.54l45.15 71.197 27.494 25.872-7.436-65.794z" style="fill:url(#c)"/></g></svg>