<svg xmlns="http://www.w3.org/2000/svg" width="300" height="227.718"><path d="m246.917 67.53-46.852-33.372-10.503-19.667L181.822 0l-8.394 14.122L150 53.538l-23.428-39.416L118.178 0l-7.74 14.491-10.504 19.667L53.082 67.53l-11.248 4.671-22.069 9.165L0 89.574l19.512 8.793 18.678 8.417 1.815.818h11.437l42.421 66.894.625.986.85.799 27.494 25.872 20.82 19.592 6.348 5.973 6.348-5.973 20.82-19.592 27.494-25.872.85-.799.625-.986 42.421-66.894h11.437l1.815-.818 18.678-8.417L300 89.574l-19.765-8.208-22.069-9.165z"/><linearGradient id="a" x1="92.632" x2="207.177" y1="69.316" y2="183.862" gradientTransform="translate(0 -36.141)" gradientUnits="userSpaceOnUse"><stop offset="0" style="stop-color:#8b723c"/><stop offset=".3" style="stop-color:#d2bb7b"/><stop offset=".5" style="stop-color:#ebd491"/><stop offset=".7" style="stop-color:#d2bb7b"/><stop offset="1" style="stop-color:#8b723c"/></linearGradient><path fill="url(#a)" d="m276.683 89.921-18.679 8.417h-14.54l-45.15 71.197-27.494 25.872 7.436-65.794 41.87-69.792 22.27 15.863 12.216 5.073zm-140.775 30.032 5.491 9.153.738 6.527L150 205.209l7.864-69.577.738-6.527 5.491-9.153 32.55-54.257 23.484-5.876L192.92 40.44l-11.529-21.586L150 71.668l-31.391-52.812-11.529 21.586L79.873 59.82l23.484 5.876ZM79.873 59.82l-22.27 15.863-12.216 5.073-22.069 9.165 18.679 8.417h14.54l45.15 71.197 27.494 25.872-7.436-65.794z" style="fill:url(#a)"/></svg>