<svg xmlns="http://www.w3.org/2000/svg" width="188.309" height="266.928" viewBox="0 0 188.309 266.928"><path d="M109.06 0 14.1 50.775 0 151.406l79.174 49.746 95-50.738 14.135-100.67zm-6.072 27.918c19.582-.018 36.993 7.619 49.102 21.55 12.183 14.062 17.372 32.686 14.611 52.452-5.483 39.329-41.997 71.295-81.418 71.295-19.58.037-37.063-7.654-49.1-21.494-12.182-14.061-17.429-32.704-14.65-52.451 5.503-39.33 42.035-71.371 81.455-71.352m0 19.176c-30.218.019-58.192 24.587-62.425 54.77-2.007 14.188 1.62 27.439 10.123 37.267 8.392 9.607 20.647 14.925 34.597 14.889 30.183.019 58.156-24.55 62.426-54.733 1.951-14.226-1.655-27.44-10.121-37.232-8.43-9.607-20.686-14.961-34.6-14.961m40.23 135.765-64.597 34.526-45.033-28.27c.387 15.312 1.528 30.661 4.73 44.574l57.53 33.239 52.119-39.9c-1.841-6.995-4.38-22.122-4.748-44.169"/></svg>