<svg xmlns="http://www.w3.org/2000/svg" width="394.056" height="280.024" viewBox="0 0 295.542 210.018"><path fill="#fff" d="M74.785 31.531c25.38-21.13 58.66-31.4 91.43-31.53 31.49-.11 63.48 9.08 88.64 28.34 17.14 12.93 30.85 30.9 37.04 51.6 6.43 21.31 4.29 45.04-5.88 64.84-11.14 22.43-30.96 39.67-53.28 50.5-31.03 15.02-67.21 18.41-100.74 10.85-26.25-5.96-51.3-19.14-69.35-39.35-11.79-13.17-20.28-29.48-23.27-46.98-11.4.9-22.92 5.05-31.06 13.31-2.74 3-5.53 5.96-8.28 8.95-.07-24.56-.01-49.11-.03-73.67 4.82 4.48 8.88 9.84 14.5 13.39 7.4 4.83 16.06 7.75 24.88 8.33 3.96-23.09 17.48-43.81 35.4-58.58m74.01-21.67c-26.37 3.18-52.21 13.7-71.99 31.64-16.39 14.71-27.99 35.27-29.78 57.43-13.43.78-27.18-2.73-38.3-10.38.06 10.9.03 21.8.01 32.7 11.07-7.8 24.92-10.9 38.32-10.2 1.53 19.3 10.51 37.52 23.71 51.51 19.66 20.91 47.22 33.36 75.43 37.26 32.45 4.54 66.79-1.61 94.67-19.16 18.5-11.62 34.12-28.74 41.41-49.56 6.1-16.95 5.99-36.02-.26-52.91-7.41-20.47-22.83-37.32-41.09-48.8-27.15-17.11-60.44-23.39-92.13-19.53"/><path fill="#fff" d="M155.055 15.901c19.38-1.89 39.88.43 56.95 10.37 13.62 7.82 23.95 20.66 29.81 35.12 7.03 17.26 8.74 36.29 7.24 54.74-1.88 20.84-9.85 41.76-25.05 56.52-12 11.73-28.13 18.76-44.71 20.73-17.92 2.01-36.75-.02-52.85-8.55-15.62-8.15-27.75-22.25-34.45-38.46-4.75-11.18-7.11-23.26-7.8-35.36 21.63-.01 43.27 0 64.9 0 1.83 5.34 4.92 10.6 10.13 13.23 6.58 3.95 15.45 1.72 20.26-3.97 8.02-8.84 7.44-24.01-1.49-32.01-4.93-4.64-12.87-6.02-18.79-2.47-5.2 2.63-8.28 7.89-10.11 13.22h-64.94c.88-21.8 7.02-44.54 22.39-60.68 12.42-13.53 30.47-20.71 48.51-22.43m-39.8 26.22c-13.22 12.42-19.63 30.44-21.59 48.13 16.5.02 33 .01 49.5.01 3.94-7.62 11.25-13.75 19.9-14.94 9.55-1.63 19.5 3.1 24.95 10.97 9.18 12.53 7.5 31.84-4.26 42.17-6.78 6.19-17.05 8.31-25.64 4.95-6.56-2.36-11.73-7.56-14.95-13.65-16.43-.02-32.87.03-49.3-.02 1.85 13.56 6.51 26.91 14.6 38.04 10.2 14.28 26.41 23.75 43.69 26.39 16.68 2.55 34.48 1.17 49.69-6.57 12.75-6.23 23.03-16.99 29.32-29.65 9.53-18.6 11.22-40.31 8.46-60.76-2.49-18.05-10.01-36.27-24.45-47.99-14.93-12.3-35.11-16.03-53.99-14.98-16.65.75-33.8 6.03-45.93 17.9"/><path d="M148.795 9.861c31.69-3.86 64.98 2.42 92.13 19.53 18.26 11.48 33.68 28.33 41.09 48.8 6.25 16.89 6.36 35.96.26 52.91-7.29 20.82-22.91 37.94-41.41 49.56-27.88 17.55-62.22 23.7-94.67 19.16-28.21-3.9-55.77-16.35-75.43-37.26-13.2-13.99-22.18-32.21-23.71-51.51-13.4-.7-27.25 2.4-38.32 10.2.02-10.9.05-21.8-.01-32.7 11.12 7.65 24.87 11.16 38.3 10.38 1.79-22.16 13.39-42.72 29.78-57.43 19.78-17.94 45.62-28.46 71.99-31.64m6.26 6.04c-18.04 1.72-36.09 8.9-48.51 22.43-15.37 16.14-21.51 38.88-22.39 60.68h64.94c1.83-5.33 4.91-10.59 10.11-13.22 5.92-3.55 13.86-2.17 18.79 2.47 8.93 8 9.51 23.17 1.49 32.01-4.81 5.69-13.68 7.92-20.26 3.97-5.21-2.63-8.3-7.89-10.13-13.23-21.63 0-43.27-.01-64.9 0 .69 12.1 3.05 24.18 7.8 35.36 6.7 16.21 18.83 30.31 34.45 38.46 16.1 8.53 34.93 10.56 52.85 8.55 16.58-1.97 32.71-9 44.71-20.73 15.2-14.76 23.17-35.68 25.05-56.52 1.5-18.45-.21-37.48-7.24-54.74-5.86-14.46-16.19-27.3-29.81-35.12-17.07-9.94-37.57-12.26-56.95-10.37"/></svg>