<svg xmlns="http://www.w3.org/2000/svg" width="394.057" height="280.024" viewBox="0 0 295.543 210.018"><linearGradient id="a" x1="0" x2="325" y1="280.024" y2="280.024" gradientUnits="userSpaceOnUse" spreadMethod="pad"><stop offset="0" style="stop-color:#612c75"/><stop offset=".2" style="stop-color:#7b5190"/><stop offset=".5" style="stop-color:#bf99c3"/><stop offset=".8" style="stop-color:#7b5190"/><stop offset="1" style="stop-color:#612c75"/></linearGradient><path d="M148.795 9.86c31.69-3.86 64.98 2.42 92.13 19.53 18.26 11.48 33.68 28.33 41.09 48.8 6.25 16.89 6.36 35.96.26 52.91-7.29 20.82-22.91 37.94-41.41 49.56-27.88 17.55-62.22 23.7-94.67 19.16-28.21-3.9-55.77-16.35-75.43-37.26-13.2-13.99-22.18-32.21-23.71-51.51-13.4-.7-27.25 2.4-38.32 10.2.02-10.9.05-21.8-.01-32.7 11.12 7.65 24.87 11.16 38.3 10.38 1.79-22.16 13.39-42.72 29.78-57.43 19.78-17.94 45.62-28.46 71.99-31.64m6.26 6.04c-18.04 1.72-36.09 8.9-48.51 22.43-15.37 16.14-21.51 38.88-22.39 60.68h64.94c1.83-5.33 4.91-10.59 10.11-13.22 5.92-3.55 13.86-2.17 18.79 2.47 8.93 8 9.51 23.17 1.49 32.01-4.81 5.69-13.68 7.92-20.26 3.97-5.21-2.63-8.3-7.89-10.13-13.23-21.63 0-43.27-.01-64.9 0 .69 12.1 3.05 24.18 7.8 35.36 6.7 16.21 18.83 30.31 34.45 38.46 16.1 8.53 34.93 10.56 52.85 8.55 16.58-1.97 32.71-9 44.71-20.73 15.2-14.76 23.17-35.68 25.05-56.52 1.5-18.45-.21-37.48-7.24-54.74-5.86-14.46-16.19-27.3-29.81-35.12-17.07-9.94-37.57-12.26-56.95-10.37" style="fill:url(#a)"/><path d="M166.215.001c-32.77.13-66.05 10.4-91.43 31.53-17.92 14.77-31.44 35.49-35.4 58.58-8.82-.58-17.48-3.5-24.88-8.33-5.62-3.55-9.68-8.91-14.5-13.39.02 24.56-.04 49.11.03 73.67 2.75-2.99 5.54-5.951 8.28-8.951 8.14-8.26 19.66-12.41 31.06-13.31 2.99 17.5 11.48 33.81 23.27 46.98 18.05 20.21 43.1 33.39 69.35 39.35 33.53 7.56 69.71 4.17 100.74-10.85 22.32-10.83 42.14-28.07 53.28-50.5 10.17-19.8 12.31-43.53 5.88-64.84-6.19-20.7-19.9-38.67-37.04-51.6C229.695 9.08 197.705-.11 166.215 0m.524 8.763c26.014-.027 52.126 6.724 74.185 20.626 18.26 11.48 33.68 28.33 41.09 48.8 6.25 16.89 6.362 35.96.262 52.91-7.29 20.82-22.912 37.94-41.412 49.56-27.88 17.55-62.22 23.7-94.67 19.16-28.21-3.9-55.769-16.35-75.429-37.26-13.2-13.99-22.18-32.21-23.71-51.51-13.4-.7-27.25 2.4-38.32 10.2.02-10.9.05-21.8-.01-32.7 11.12 7.65 24.87 11.16 38.3 10.38 1.79-22.16 13.39-42.72 29.78-57.43 19.78-17.94 45.62-28.46 71.99-31.64a150 150 0 0 1 17.944-1.096m-.694 6.54c-3.683.036-7.356.242-10.99.596-18.04 1.72-36.09 8.9-48.51 22.43-15.37 16.14-21.51 38.88-22.39 60.68h64.94c1.83-5.33 4.91-10.59 10.11-13.22 5.92-3.55 13.86-2.17 18.79 2.47 8.93 8 9.51 23.17 1.49 32.01-4.81 5.69-13.68 7.92-20.26 3.97-5.21-2.63-8.3-7.89-10.13-13.23-21.63 0-43.27-.01-64.9 0 .69 12.1 3.05 24.18 7.8 35.36 6.7 16.21 18.83 30.31 34.45 38.46 16.1 8.53 34.93 10.56 52.85 8.55 16.58-1.97 32.71-9 44.71-20.73 15.2-14.76 23.17-35.68 25.05-56.52 1.5-18.45-.21-37.48-7.24-54.74-5.86-14.46-16.19-27.3-29.81-35.12-13.869-8.076-30.003-11.121-45.96-10.966m2.269 8.754c16.714.179 33.798 4.38 46.861 15.142 14.44 11.72 21.96 29.94 24.45 47.99 2.76 20.45 1.07 42.16-8.46 60.76-6.29 12.66-16.57 23.42-29.32 29.65-15.21 7.74-33.01 9.12-49.69 6.57-17.28-2.64-33.49-12.11-43.69-26.39-8.09-11.13-12.75-24.48-14.6-38.04 16.43.05 32.87 0 49.3.02 3.22 6.09 8.39 11.29 14.95 13.65 8.59 3.36 18.86 1.24 25.64-4.95 11.76-10.33 13.44-29.64 4.26-42.17-5.45-7.87-15.4-12.6-24.95-10.97-8.65 1.19-15.96 7.32-19.9 14.94-16.5 0-33 .01-49.5-.01 1.96-17.69 8.37-35.71 21.59-48.13 12.13-11.87 29.28-17.15 45.93-17.9 2.36-.13 4.74-.187 7.129-.162" style="fill:#fff"/></svg>