<svg xmlns="http://www.w3.org/2000/svg" width="58.788" height="50" viewBox="0 0 58.788 50"><path d="M41.087 0H17.593l-.111.013c-1.584.171-3.78 1.314-4.513 3.713-1.995.558-9.5 2.65-9.5 2.65l-.094.036C2.083 6.906 0 8.578 0 11.635c0 .547.067 1.14.217 1.776l8.962 33.454.246.331c1.015 1.352 3.481 3.426 6.299 2.621 0 0 12.633-3.477 13.676-3.762 1.043.285 13.694 3.767 13.694 3.767 2.797.8 5.264-1.273 6.278-2.626l.246-.328 8.947-33.396a8 8 0 0 0 .223-1.82c0-3.08-2.075-4.746-3.363-5.24l-.095-.036s-7.508-2.093-9.501-2.65c-.732-2.398-2.93-3.542-4.513-3.714L41.202 0Z" style="fill:#fff"/><path d="M17.708 2.131s-2.88.309-2.88 3.289L4.139 8.4s-2.674 1.027-1.852 4.523l8.842 32.994s1.85 2.469 4.007 1.851l14.266-3.922 14.258 3.922c2.155.618 4.008-1.851 4.008-1.851l8.842-32.994c.82-3.495-1.852-4.523-1.852-4.523l-10.69-2.98c0-2.98-2.881-3.289-2.881-3.289z"/><path d="M17.803 3.362a2.7 2.7 0 0 0-.938.377c-.548.367-.805.899-.805 1.681v.937S4.715 9.521 4.552 9.565c-.294.139-1.186.674-1.186 2.095 0 .288.036.61.122.974.016.059 8.62 32.186 8.763 32.703.379.427 1.493 1.547 2.547 1.248l14.6-4.021 14.6 4.021c1.053.299 2.168-.821 2.549-1.248.137-.518 8.747-32.645 8.762-32.703a4.3 4.3 0 0 0 .123-.974c0-1.421-.892-1.956-1.189-2.095-.163-.044-11.509-3.209-11.509-3.209V5.42c0-.781-.256-1.313-.802-1.681a2.6 2.6 0 0 0-.938-.377Z" style="fill:#fff"/><path d="M17.939 4.905h22.957c.479 0 .547.616.547.616v34.128c0 .549-.547.684-.547.684H17.939c-.479 0-.479-.684-.479-.684V5.521c-.001-.411.479-.616.479-.616M5.397 10.868c-.822.272-.479 1.302-.479 1.302l8.77 32.55c.346.752 1.03.411 1.03.411l11.924-3.289h-8.906c-1.65 0-1.921-2.057-1.921-2.057V8.059Zm37.585-2.88v31.729s-.274 2.056-1.919 2.056h-8.906l11.922 3.29s.686.343 1.027-.411L53.878 12.1s.343-1.028-.48-1.301z"/><path d="M25.331 10.011c-1.518 1.161-2.152 2.587-2.888 4.239l-.324.738 1.936.85.371-.574c.618-.957 1.768-2.738 4.253-2.738 2.121 0 2.877 1.484 2.877 2.874 0 2.202-1.771 3.808-2.813 4.41-.758.413-1.604.69-2.397.927l-.728.215.418 1.799.612.024c1.712.069 3.189.128 4.739 1.392 1.238.983 1.811 2.18 1.811 3.771 0 3.217-2.589 5.553-6.16 5.553-2.211 0-3.682-.848-4.561-1.355l-.632-.366-1.215 1.69.558.48c.969.828 3.23 2.764 7.137 2.764 5.445 0 9.552-3.968 9.552-9.232a8.21 8.21 0 0 0-3.297-6.651 10 10 0 0 0-1.222-.702c.914-.72 1.793-1.647 2.333-3.206.265-.756.4-1.555.4-2.37 0-3.392-2.757-5.947-6.411-5.947-1.647-.001-3.15.49-4.349 1.415" style="fill:#fff"/></svg>