<svg xmlns="http://www.w3.org/2000/svg" xmlns:xlink="http://www.w3.org/1999/xlink" width="58.787" height="50"><defs><radialGradient xlink:href="#a" id="b" cx="130.74" cy="182.428" r="1.25" gradientTransform="matrix(17.571 0 0 -17.571 -2267.833 3230.49)" gradientUnits="userSpaceOnUse"/><radialGradient xlink:href="#a" id="c" cx="130.74" cy="182.428" r="1.25" gradientTransform="matrix(17.571 0 0 -17.571 -2267.833 3230.49)" gradientUnits="userSpaceOnUse"/></defs><path d="M41.089 0H17.595l-.113.013c-1.584.171-3.78 1.314-4.513 3.713-1.992.558-9.5 2.65-9.5 2.65l-.094.036C2.082 6.906 0 8.578 0 11.635c0 .547.066 1.14.217 1.776L9.18 46.865l.246.331c1.013 1.352 3.481 3.426 6.297 2.621 0 0 12.636-3.477 13.677-3.762 1.043.285 13.695 3.767 13.695 3.767 2.797.8 5.263-1.273 6.276-2.626l.249-.328 8.943-33.396a8 8 0 0 0 .224-1.82c0-3.08-2.075-4.746-3.364-5.24l-.094-.036-9.501-2.65c-.732-2.398-2.93-3.542-4.513-3.714L41.201 0Z"/><path fill="url(#a)" d="M17.707 2.131s-2.878.309-2.878 3.289L4.141 8.4s-2.674 1.027-1.852 4.523l8.841 32.994s1.851 2.469 4.008 1.851L29.4 43.847l14.26 3.922c2.155.618 4.006-1.851 4.006-1.851l8.844-32.994c.82-3.496-1.851-4.524-1.851-4.524L43.968 5.42c0-2.98-2.879-3.289-2.879-3.289z" style="fill:url(#b)"/><path d="M17.803 3.362a2.6 2.6 0 0 0-.936.377c-.549.367-.804.899-.804 1.681v.937S4.718 9.521 4.554 9.565c-.297.139-1.188.674-1.188 2.095 0 .288.035.61.122.974.017.059 8.621 32.186 8.763 32.703.379.427 1.495 1.547 2.548 1.248l14.6-4.021 14.6 4.021c1.053.299 2.167-.821 2.549-1.248l8.763-32.703q.123-.543.121-.974c0-1.421-.892-1.956-1.188-2.095-.164-.044-11.51-3.208-11.51-3.208V5.42c0-.781-.256-1.313-.802-1.681a2.7 2.7 0 0 0-.937-.377Z"/><path fill="url(#a)" d="M17.939 4.905h22.957c.48 0 .547.616.547.616v34.128c0 .549-.547.684-.547.684H17.939c-.481 0-.481-.684-.481-.684V5.521c0-.411.481-.616.481-.616M5.397 10.868c-.823.272-.479 1.302-.479 1.302l8.771 32.55c.345.752 1.03.411 1.03.411l11.925-3.289h-8.909c-1.648 0-1.919-2.057-1.919-2.057V8.059Zm37.586-2.88v31.729s-.275 2.056-1.921 2.056h-8.906l11.921 3.29s.687.343 1.029-.411L53.88 12.1s.341-1.028-.48-1.301z" style="fill:url(#c)"/><radialGradient id="a" cx="130.74" cy="182.428" r="1.25" gradientTransform="matrix(17.571 0 0 -17.571 -2267.833 3230.49)" gradientUnits="userSpaceOnUse"><stop offset="0" style="stop-color:#ebd491"/><stop offset=".7" style="stop-color:#d2bb7b"/><stop offset="1" style="stop-color:#8b723c"/></radialGradient><path fill="#8b723c" d="M25.332 10.011c-1.519 1.161-2.153 2.587-2.887 4.239l-.327.738 1.938.85.371-.574c.617-.957 1.766-2.738 4.253-2.738 2.119 0 2.874 1.484 2.874 2.874 0 2.202-1.768 3.808-2.811 4.41-.76.413-1.604.69-2.399.927l-.726.215.417 1.799.613.024c1.711.069 3.188.128 4.738 1.392 1.238.983 1.81 2.18 1.81 3.771 0 3.217-2.591 5.553-6.16 5.553-2.212 0-3.682-.848-4.561-1.355l-.63-.366-1.215 1.692.56.48c.965.828 3.228 2.764 7.134 2.764 5.445 0 9.552-3.968 9.552-9.232a8.22 8.22 0 0 0-3.296-6.651 10 10 0 0 0-1.223-.702c.914-.72 1.794-1.647 2.334-3.206.266-.756.4-1.555.4-2.37 0-3.392-2.757-5.947-6.411-5.947-1.645-.003-3.149.488-4.348 1.413"/><path d="M28.323 36.205c-3.718 0-5.88-1.854-6.804-2.645l-.212-.184.68-.95.241.139c.856.496 2.452 1.424 4.811 1.424 3.858 0 6.657-2.544 6.657-6.053 0-1.756-.637-3.078-2.002-4.161-1.67-1.367-3.3-1.434-5.024-1.501l-.234-.007-.222-.971.271-.08c.83-.247 1.706-.535 2.497-.97 1.145-.659 3.068-2.414 3.068-4.849 0-1.557-.881-3.375-3.371-3.375-2.749 0-4.046 2-4.668 2.96l-.145.226-1.091-.475.127-.282c.704-1.587 1.313-2.958 2.732-4.044 1.112-.861 2.512-1.314 4.045-1.314 3.371 0 5.911 2.344 5.911 5.449 0 .756-.125 1.496-.373 2.203-.533 1.549-1.44 2.406-2.171 2.979l-.621.491.713.353c.462.229.831.438 1.156.664a7.7 7.7 0 0 1 3.082 6.241c.002 4.977-3.892 8.732-9.053 8.732"/></svg>