<svg xmlns="http://www.w3.org/2000/svg" width="600" height="826.592"><path d="M21.246 69.998c-3.72 12.42-5.746 25.42-5.746 37.53 0 27.364 10.747 51.999 31 71.281l3.473 3.327 12.916 62.146-4.67 5.662C20.192 296.672 0 351.75 0 409.224c0 128.59 97.279 236.532 226.22 250.979l7.026.806 31.641 46.19.227 2.088 3.472 23.023c.248 3.39.413 6.862.413 10.334 0 29.698-9.196 61.504-17.36 83.948 21.473-6.365 50.055-16.554 69.585-30.36 20.523-14.445 41.107-36.476 54.995-58.92l2.645-4.361 4.692-1.86c43.752-17.753 82.337-43.194 114.804-75.558C563.833 589.977 600 502.949 600 410.506c0-191.168-155.58-346.728-346.749-346.728-44.082 0-88.061 8.887-130.615 26.392l-9.527 3.968-6.138-6.304-13.165-13C71.776 48.755 57.97 21.225 49.662 0 40.3 19.055 29.077 44.33 21.245 69.999" style="fill:#fff"/><path d="m334.886 658.033-19.468-32.303c93.497-26.95 161.863-113.089 161.863-215.225 0-123.753-100.255-224.029-224.03-224.029-41.085 0-79.67 11.16-112.778 30.443l-7.42-37.697c36.002-18.724 76.943-29.388 120.199-29.388 143.78 0 260.692 116.892 260.692 260.671 0 115.218-75.165 213.22-179.058 247.528m-226.22-190.198c-26.391-66.196-17.504-163.97 94.22-208.446 22.61-9.052 67.25-18.331 107.53-16.389l29.223 73.14-9.362 3.72c-31.413-55.717-83.886-59.913-126.915-42.718-47.782 19.055-77.005 80.415-45.446 159.693 30.587 76.777 97.279 131.173 159.445 106.393 26.887-10.726 61.752-45.446 70.556-113.337l22.445 46.893c-25.359 46.108-59.252 72.913-97.693 88.165-124.311 49.56-186.229-52.639-204.003-97.114M253.252 94.86c-49.56 0-97.444 11.388-140.618 32.943 0 0-37.634-14.219-58.3-57.722 0 0-28.583 63.034 24.055 96.225l17.774 85.333c-40.28 40.363-65.08 96.06-65.08 157.585 0 122.307 98.333 221.673 220.309 223.368l42.388 61.856c12.606 40.114 1.137 80.228 1.137 80.228 34.39-12.668 62.394-66.113 62.394-66.113 44.247-15.417 84.858-40.755 119.082-75 59.665-59.645 92.526-138.84 92.526-223.058 0-174.056-141.61-315.645-315.666-315.645"/></svg>