<svg xmlns="http://www.w3.org/2000/svg" width="633.78" height="499.999"><path d="M361.31 0c59.29 107.27 50.14 178.17 30.11 206.68l-40.37-100.95c-18.95-44.78-20.93-42.24-31.71-42.24h-17.97c23.54 126.27 18.17 213.01 1.07 314.33l121.1-78.65c-11.14 46.25-49.81 86.08-117.52 81.66v118.28c157.61 10.02 292.72-162.01 216.39-339.89 14.7-28.09 52.83-18.54 111.37 1.72C600.25 62.45 489.5 12.78 361.31 0M7.54 14.52 0 232.06l100.74-104.69c-98.2 101.96-59.6 375.22 183.77 372.61v-119.1c-119.87 7.11-148.04-125.05-92.87-183.82v.3l52.75 41.21V82.39l-78.08-67.87Z" style="fill:#fff;stroke-width:10"/><path d="M391.78 21.91c40.14 86.64 49.1 170.54-5.3 215.88L322 83.63c16.86 88.31 15.04 180.91 4.67 255.75l126.59-82.8c-11.59 74.53-48.19 139.55-130.5 141.85v82.8c165.86.68 247.81-193.38 181.29-319.94 9.14-38.89 50.1-42.29 93.49-31.29-34.01-59.59-123.41-95.92-205.76-108.09M23.18 31.36l-4.77 156.26 75.74-80.09h7.82l22.23 17.08C17.66 238.62 62.43 468.85 267.49 481.51v-82.79c-109.17-1.2-165.84-144.76-77.94-223.94l37.87 29.09V89.02l-67.2-57.67H23.18Z" style="stroke-width:10"/></svg>