<svg xmlns="http://www.w3.org/2000/svg" width="633.78" height="500.009"><defs><linearGradient id="a" x1="45.977" x2="45.977" y1="2.507" y2="48.438" gradientTransform="matrix(10 0 0 10 0 -3.15)" gradientUnits="userSpaceOnUse"><stop offset="0" style="stop-color:#bf331c"/><stop offset=".3" style="stop-color:#d3641c"/><stop offset=".5" style="stop-color:#f6b91d"/><stop offset=".7" style="stop-color:#d3641c"/><stop offset="1" style="stop-color:#bf331c"/></linearGradient><linearGradient id="b" x1="22.654" x2="22.654" y1="466.59" y2="511.6" gradientTransform="matrix(10 0 0 -10 -83.599 5147.4)" gradientUnits="userSpaceOnUse"><stop offset="0" style="stop-color:#bf331c"/><stop offset=".3" style="stop-color:#d3641c"/><stop offset=".5" style="stop-color:#f6b91d"/><stop offset=".7" style="stop-color:#d3641c"/><stop offset="1" style="stop-color:#bf331c"/></linearGradient></defs><path d="M361.31 0c59.29 107.28 50.14 178.18 30.11 206.68l-40.37-100.95c-18.95-44.78-20.93-42.24-31.71-42.24h-17.97c23.54 126.28 18.17 213.01 1.07 314.33l121.1-78.64c-11.14 46.25-49.81 86.07-117.52 81.65v118.28c157.61 10.02 292.72-162.01 216.39-339.9 14.7-28.08 52.83-18.54 111.37 1.73C600.25 62.45 489.5 12.79 361.31 0M7.54 14.53 0 232.06l100.74-104.69C2.54 229.34 41.14 502.6 284.51 499.99V380.88C164.64 388 136.47 255.83 191.64 197.06v.31l52.75 41.21V82.4l-78.08-67.87Z" style="stroke-width:10"/><path fill="url(#a)" d="M391.78 21.92c40.14 86.64 49.1 170.54-5.3 215.89L322 83.64c16.86 88.31 15.04 180.92 4.67 255.75l126.59-82.8c-11.59 74.53-48.19 139.55-130.5 141.85v82.81c165.86.69 247.81-193.38 181.29-319.95 9.13-38.88 50.09-42.28 93.49-31.28-34.01-59.61-123.41-95.94-205.76-108.1" style="fill:url(#a);stroke-width:10"/><path fill="url(#b)" d="m23.18 31.36-4.77 156.26 75.74-80.09h7.82l22.23 17.08C17.66 238.63 62.43 468.86 267.49 481.52v-82.8c-109.17-1.18-165.84-144.75-77.94-223.92l37.87 29.09V89.03l-67.2-57.67z" style="fill:url(#b);stroke-width:10"/></svg>