<svg xmlns="http://www.w3.org/2000/svg" width="536.971" height="467.705"><path d="M455.435 101.583h-64.786c-2.29-4.977-3.933-8.605-3.933-8.605H150.255s-1.744 3.78-3.933 8.605H81.587L70.055 87.11l22.822-23.369h351.217l22.822 23.369zm-53.7 45.388 19.194 20.237H116.042l19.143-20.237zm-47.437 184.404v-84.718l9.597-12.83h29.083l9.597 12.83.051 53.992zm-110.021 57.238V246.657l9.597-12.83h29.083l9.597 12.83.051 105.655zm-109.983 57.225V246.657l9.597-12.83h29.032l9.648 12.83.051 162.83zM0 0l29.987 69.317L61.451 91.59l14.268 18.583h66.682l-14.471 31.922-18.838 19.945L89.3 214.188v253.517h21.676l27.887-14.51 46.636-35.053h20.835l42.563-22.173 46.585-35.002h20.632l42.804-22.325 46.19-29.389h10.399l32.164-16.75v-78.265l-19.741-52.146-18.889-19.945-14.472-31.973h66.224L475.52 91.59l31.463-22.185L536.971 0Z"/></svg>