<svg xmlns="http://www.w3.org/2000/svg" xmlns:xlink="http://www.w3.org/1999/xlink" width="366.799" height="366.793" viewBox="0 0 275.099 275.096"><linearGradient id="a"><stop offset="0" style="stop-color:#536e78"/><stop offset=".3" style="stop-color:#99aebc"/><stop offset=".5" style="stop-color:#d9eaf3"/><stop offset=".7" style="stop-color:#99aebc"/><stop offset="1" style="stop-color:#536e78"/></linearGradient><linearGradient xlink:href="#a" id="b" x1="22.31" x2="276.69" y1="149.505" y2="149.505" gradientTransform="translate(-11.95 -11.949)" gradientUnits="userSpaceOnUse"/><path d="M125.18 9.281c.46-4.55 4.14-8.57 8.73-9.1 2.74-.23 5.52-.28 8.25.08 4.32.74 7.73 4.56 8.21 8.88 1.97 13.6 3.89 27.2 5.84 40.8a92 92 0 0 1 28.46 11.3c8.16-2.39 16.37-4.63 24.46-7.21 6.82-1.79 13.85 5.11 12.19 11.96-2.27 8.29-4.82 16.5-7.18 24.76a91.6 91.6 0 0 1 11.28 28.5c13.49 2 26.98 3.94 40.47 5.95 4.51.47 8.48 4.13 9.02 8.68.24 2.74.29 5.52-.07 8.26-.73 4.34-4.56 7.75-8.9 8.24-13.55 1.96-27.11 3.87-40.66 5.81a92.1 92.1 0 0 1-11.46 28.4c2.41 8.18 4.76 16.39 7.26 24.55 1.74 6.81-5.08 13.88-11.95 12.35-8.52-2.23-16.91-4.93-25.38-7.36-8.6 5.09-18.03 8.73-27.8 10.79-2.03 13.74-3.94 27.49-6.01 41.22-.54 4.85-4.93 8.86-9.82 8.89-3.52.03-7.38.48-10.49-1.51-2.74-1.6-4.42-4.57-4.83-7.67-2-13.71-3.89-27.44-5.89-41.15-9.59-2.14-18.84-5.8-27.26-10.87-8.56 2.42-17.05 5.1-25.64 7.41-6.92 1.83-14.01-5.25-12.24-12.17 2.29-8.65 5.04-17.17 7.48-25.77-5-8.45-8.62-17.7-10.7-27.29-13.88-2.06-27.77-3.98-41.64-6.07-4.82-.56-8.81-4.94-8.84-9.81-.04-3.54-.49-7.43 1.54-10.55 1.65-2.8 4.73-4.44 7.9-4.82 13.67-1.97 27.35-3.88 41.03-5.86 2.05-9.63 5.7-18.9 10.7-27.38-2.4-8.52-5.06-16.97-7.3-25.53-1.75-6.89 5.18-13.98 12.1-12.24 8.32 2.7 16.76 5.02 25.14 7.5a92.4 92.4 0 0 1 28.02-11.21c2-13.58 3.96-27.18 5.98-40.76"/><path d="M135.44 10.361h4.69c2.32 16.18 4.63 32.37 6.94 48.55a80 80 0 0 1 35.92 13.56c9.38-2.72 18.77-5.4 28.15-8.17-2.78 9.36-5.49 18.73-8.24 28.09 7.34 10.67 12.04 23.11 13.55 35.98l48.29 7.08c0 1.56-.01 3.12 0 4.68-16.13 2.32-32.26 4.6-48.38 6.92-1.59 12.84-6.37 25.23-13.79 35.82 2.78 9.51 5.55 19.03 8.37 28.53-9.59-2.85-19.18-5.66-28.77-8.49a79.9 79.9 0 0 1-35.34 13.01c-2.37 16.27-4.72 32.55-7.08 48.82-1.56 0-3.13 0-4.68.01-2.35-16.32-4.66-32.63-6.99-48.94-12.44-1.6-24.46-6.15-34.83-13.21-9.82 2.86-19.63 5.75-29.45 8.61 2.88-9.84 5.8-19.66 8.68-29.49-7-10.39-11.47-22.42-13-34.85-16.37-2.38-32.75-4.75-49.12-7.12v-4.69c16.37-2.36 32.75-4.64 49.12-7.03 1.49-12.44 5.97-24.48 12.96-34.88-2.79-9.71-5.61-19.41-8.42-29.1 9.6 2.83 19.21 5.63 28.83 8.44 10.53-7.3 22.81-11.89 35.5-13.57 2.32-16.19 4.74-32.37 7.09-48.56m-11.86 67.25c-8.58 2.07-16.72 6-23.64 11.48-2.08 1.34-2.14 4.67-.02 6.01 6.28 4.78 12.65 9.46 19 14.16 2.02 1.97 5.78.65 6.07-2.15 1.35-8.34 2.5-16.71 3.71-25.07.88-2.95-2.36-5.62-5.12-4.43m24.92 0c-1.62.75-2.29 2.66-1.91 4.34 1.18 8.37 2.3 16.76 3.62 25.1.23 2.85 4.04 4.2 6.07 2.21 6.37-4.65 12.7-9.34 19.03-14.04 2.18-1.21 2.75-4.53.63-6.08-7.47-5.96-16.44-10.24-25.87-11.91-.39.09-1.17.28-1.57.38m-57.96 21.11c-6.32 6.63-10.09 15.49-12.39 24.29-1.26 2.57.78 6.14 3.8 5.57 8.37-1.12 16.74-2.29 25.09-3.58 2.56-.18 4.18-3.48 2.61-5.55-4.55-6.44-9.34-12.7-14-19.06-1.04-1.67-3.28-2.77-5.11-1.67m90.87-.28c-4.91 5.46-8.84 11.77-13.42 17.53-1.33 2.05-3.95 4.17-2.8 6.89.81 2.03 3.17 2.26 5.04 2.54 7.96 1.06 15.88 2.43 23.85 3.41 2.47.44 4.67-2.25 3.9-4.6-1.92-8.94-5.95-17.44-11.6-24.62-1.06-1.56-3.34-2.21-4.97-1.15m-102.04 48.58c-1.28.89-1.84 2.61-1.36 4.09 1.91 8.63 5.8 16.82 11.23 23.79 1.45 2.34 5.04 2.05 6.34-.3 4.69-6.33 9.5-12.59 14.07-19.01 1.73-2.31-.33-5.64-3.06-5.66-8.51-1.18-16.99-2.67-25.53-3.57-.42.16-1.26.49-1.69.66m105.24.77c-5.54.85-11.12 1.47-16.65 2.43-2.86.23-4.2 4.06-2.2 6.1 4.66 6.38 9.38 12.73 14.11 19.05 1.21 2.11 4.48 2.54 5.97.5 5.79-7.04 9.82-15.5 11.95-24.36.75-2.06-.51-4.6-2.74-4.97-3.51-.02-6.96.84-10.44 1.25m-65.2 17.59c-6.41 4.52-12.65 9.31-18.97 13.97-2.15 1.16-2.88 4.38-.87 6.02 7.06 5.8 15.57 9.86 24.47 11.91 2.48.82 5.14-1.68 4.55-4.21-1.17-8.35-2.29-16.72-3.59-25.05-.16-2.57-3.5-4.32-5.59-2.64m32 .23c-1.47 1.06-1.45 3.02-1.77 4.62-1.02 7.64-2.26 15.25-3.26 22.89-.71 2.62 2.01 5.27 4.6 4.37 8.8-1.89 17.18-5.78 24.31-11.27 2.28-1.38 2.17-4.93-.11-6.25-6.3-4.75-12.63-9.45-18.97-14.13-1.32-1.13-3.43-1.44-4.8-.23" style="fill:url(#b)"/></svg>