<?xml version="1.0" encoding="UTF-8" standalone="no"?>
<svg
   viewBox="0 0 1023.9881 962.79"
   version="1.1"
   width="1023.9881"
   height="962.78998"
   id="svg2"
   xmlns="http://www.w3.org/2000/svg"
   xmlns:svg="http://www.w3.org/2000/svg">
  <defs
     id="defs2" />
  <path
     d="m 20.898074,665.13 c 13.262,48.09 41.66,49.52 41.66,49.52 l 30.5,-184.82 57.891996,-21.38 14.14,-98.87 84.88,-19.34 104.34,-284.06 220.98,-103.9293956 c 16.86,-6.938 42.79,1.8903 50.22,30.3113996 l 62.14,255.687996 c 0,0 50.32,21.92 94.7,49.86 l 116.33,294.39 c 45.34,53.66 53.18,65.98 84.89,125.58 15.09,-14.49 25.03003,-38.44 33.63003,-55.91 19.5,18.96 17.5,254.62 -298.23003,260.62 -331.94,-13.02 -328.61,-217.8 -597.25,-158.52 C 17.604074,820.6 -30.879926,729.36 20.898074,665.13 Z M 570.77007,604.58 c -81.26,-13.76 -134.56,80.4 -68.33,167.48 41.97,-46.19 115.67,-95.02 201.22,-47.37 -55.02,9.82 -94.45,109.47 17.6,144.67 83.71,16.9 145.27,-6.42 201.69,-55.66 l -109.94,-175.32 -77.33,-234.55 -73.16,-28.78 -7.97,201.89 -63.73,-222.95 4.54,-86.17 -54,-208.413996 -146.07,72.263996 -132.32,345.77 -13.03,-33.93 -47.9,8.07 -10.55,95.37 -51.89,17.92 -17.71,145.52 c 44.82,-22.26 77.22,-62.1 103.69,-86.37 166.34,-158.37 327.06,-80.47 345.19,-19.44 z"
     id="path1" />
  <path
     d="m 570.77007,604.58 c -81.26,-13.76 -134.56,80.4 -68.33,167.48 41.97,-46.19 115.67,-95.02 201.22,-47.37 -55.02,9.82 -94.45,109.47 17.6,144.67 83.71,16.9 145.27,-6.42 201.69,-55.66 l -109.94,-175.32 -77.33,-234.55 -73.16,-28.78 -7.97,201.89 -63.73,-222.95 4.54,-86.17 -54,-208.413996 -146.07,72.263996 -132.32,345.77 -13.03,-33.93 -47.9,8.07 -10.55,95.37 -51.89,17.92 -17.71,145.52 c 44.82,-22.26 77.23,-62.1 103.69,-86.37 166.34,-158.37 327.06,-80.47 345.19,-19.44 z"
     style="fill:#ffffff"
     id="path2" />
</svg>
