<svg xmlns="http://www.w3.org/2000/svg" width="399.146" height="413.434"><g transform="translate(-.427 -.283)"><path d="M253.402 144.628c12.275 10.692 18.651 26.998 17.955 45.91-.743 20.19-9.322 40.688-24.156 57.717-17.969 20.626-42.697 32.939-66.149 32.939-13.866 0-26.193-4.354-35.649-12.592-12.275-10.693-18.652-26.998-17.956-45.911.743-20.189 9.322-40.687 24.157-57.715 17.967-20.626 42.696-32.94 66.15-32.94 13.865 0 26.192 4.354 35.648 12.592m139.315-9.461L244.736 6.256 237.88.283l-8.641 2.834L47.032 62.886l-9.055 2.971-1.701 9.376L2.05 263.912l-1.623 8.947 6.856 5.974 147.98 128.911 6.856 5.973 8.64-2.834 182.208-59.768 9.055-2.971 1.701-9.377 34.227-188.681 1.623-8.947z"/><radialGradient id="a" cx="200" cy="207" r="194.324" gradientUnits="userSpaceOnUse"><stop offset="0" style="stop-color:#ebd491"/><stop offset=".7" style="stop-color:#d2bb7b"/><stop offset="1" style="stop-color:#8b723c"/></radialGradient><path d="m52.02 78.089-34.227 188.68 147.98 128.911 182.207-59.768 34.227-188.681L234.227 18.32Zm207.246 180.676c-21.818 25.045-51.156 38.43-78.214 38.43-17.129 0-33.343-5.363-46.159-16.527-33.061-28.801-30.982-85.303 4.646-126.2 21.816-25.045 51.155-38.431 78.215-38.431 17.128 0 33.342 5.363 46.158 16.527 33.061 28.8 30.981 85.302-4.646 126.201" style="fill:url(#a)"/><path d="M369.265 12.695c-3.585-3.123-8.133-4.774-13.149-4.774h-.01c-8.336.003-18.2 4.714-32.983 15.75-11.348 8.473-25.389 20.557-41.732 35.916-33.055 31.065-73.332 73.512-113.411 119.52-42.775 49.104-80.947 97.164-107.483 135.33-13.186 18.963-22.894 34.63-28.856 46.565-3.463 6.933-5.684 12.644-6.787 17.458-2.945 12.852 2.422 19.829 5.883 22.845 3.586 3.124 8.135 4.775 13.153 4.775 8.339 0 18.205-4.709 32.99-15.747 11.348-8.472 25.389-20.556 41.733-35.917 33.052-31.063 73.328-73.51 113.41-119.521 42.775-49.104 80.948-97.165 107.485-135.331 13.185-18.963 22.894-34.63 28.855-46.565 3.464-6.934 5.684-12.645 6.786-17.459 2.945-12.852-2.422-19.829-5.884-22.845"/><radialGradient id="b" cx="200" cy="207" r="179.914" gradientUnits="userSpaceOnUse"><stop offset="0" style="stop-color:#ebd491"/><stop offset=".7" style="stop-color:#d2bb7b"/><stop offset="1" style="stop-color:#8b723c"/></radialGradient><path d="M356.113 23.921c-17.809.007-93.544 70.963-176.07 165.695C92.365 290.265 30.223 379.639 41.244 389.24c.647.564 1.531.84 2.644.84 17.808 0 93.545-70.963 176.069-165.694 87.68-100.648 149.822-190.023 138.799-199.625-.648-.565-1.531-.841-2.643-.84" style="fill:url(#b)"/></g></svg>