<svg xmlns="http://www.w3.org/2000/svg" width="378.006" height="388.589"><path d="M212.954 215.75c42.74-47.708 81.067-94.279 107.923-131.134 13.193-18.105 22.951-32.96 29.005-44.152 6.328-11.7 11.171-23.434 3.822-30.018-1.416-1.269-3.892-2.782-7.64-2.782-4.263 0-15.586 0-68.003 48.604-32.687 30.31-72.821 71.708-113.01 116.568-42.739 47.708-81.067 94.279-107.923 131.134-13.193 18.104-22.951 32.96-29.005 44.152-6.328 11.699-11.171 23.434-3.821 30.019 1.416 1.269 3.891 2.781 7.638 2.781 4.262 0 15.582 0 67.999-48.603 32.692-30.311 72.828-71.71 113.015-116.569m-105.053 6.144-.573-3.735c-3.982-25.971 5.021-54.181 24.083-75.46 18.374-20.51 43.518-32.273 68.984-32.273 1.126 0 2.265.024 3.384.071l3.775.161 63.495-70.877L226.644 0 37.441 58.517 0 252.991l44.407 39.78zM333.599 95.816l-63.494 70.876.573 3.735c3.982 25.974-5.021 54.183-24.083 75.461-18.372 20.509-43.517 32.273-68.987 32.274h-.006c-1.122 0-2.258-.024-3.375-.071l-3.775-.16-63.495 70.875 44.405 39.783 189.203-58.519 37.441-194.474z"/><path d="M338.614 27.289c-7.881 4.81-23.105 15.984-50.977 41.924-32.086 29.862-71.389 70.455-110.668 114.301-39.276 43.842-75.32 87.355-101.491 122.524-22.73 30.544-32.168 46.898-36.087 55.26 7.882-4.811 23.104-15.983 50.975-41.922 32.09-29.866 71.394-70.459 110.67-114.302 39.276-43.842 75.32-87.355 101.491-122.524 22.73-30.544 32.169-46.9 36.087-55.261M119.493 132.023c21.405-23.894 50.894-37.597 80.902-37.597h.219l47.842-53.404-25.739-23.059L51.338 70.966 17.424 247.119l25.741 23.06 47.843-53.406c-3.31-29.56 7.183-60.97 28.485-84.75m215.348-13.614-47.843 53.405c3.311 29.562-7.184 60.973-28.485 84.751-21.403 23.893-50.892 37.597-80.904 37.598h-.217l-47.842 53.403 25.739 23.061 171.379-53.005 33.914-176.153z"/></svg>