<svg xmlns="http://www.w3.org/2000/svg" width="600" height="353.622"><path d="M124.939 39.018c-5.123 4.616-7.819 11.068-7.819 17.631 0 .757.213 1.514.286 2.271C20.556 87.295 0 140.843 0 181.08c0 40.818 21.203 97.865 122.123 137.926 64.477 25.56 137.603 34.616 180.619 34.616 167.381 0 261.129-95.917 265.061-99.988 4.32-4.55 6.6-10.496 6.6-16.45 0-4.218-1.126-8.436-3.434-12.258-.176-.323-.461-.572-.72-.895 1.662-1.376 3.397-2.705 4.911-4.154 16.255-15.794 24.84-35.548 24.84-57.074C600 50.483 422.815 0 296.972 0 171.923 0 129.378 35.012 124.938 39.018" style="fill:#fff"/><path d="M550.597 237.185s-98.76 28.052-185.335 28.052c-86.603 0-234.157-43.91-234.157-112.172 0-68.327 137.815-61.007 137.815-61.007s74.456 2.124 85.274 36.49c12.12 38.51-26.75 51.304-26.75 51.304s97.569 1.228 97.569-49.975c0-51.23-119.53-65.87-160.994-65.87-41.474 0-240.222 4.9-240.222 117.073 0 110.483 192.693 148.772 278.945 148.772 159.12 0 247.855-92.667 247.855-92.667M295.385 45.572a218 218 0 0 0-8.188-.139c-103.661 0-146.354 11.253-146.354 11.253s36.6-32.89 156.13-32.89c119.492 0 279.23 47.53 279.23 139.007S364.007 248.15 364.007 248.15s-109.33-6.424-163.127-39.018c-84.452-51.268 2.594-90.535 2.594-90.535 28.994-13.524 67.865-8.225 67.865-8.225s-42.692 19.505-42.692 45.11c0 25.598 81.738 39.047 130.523 39.047 47.99 0 112.246-15.683 117.009-44.926 14.28-87.905-180.794-104.031-180.794-104.031"/></svg>