<svg xmlns="http://www.w3.org/2000/svg" width="600" height="353.622"><radialGradient id="a" cx="0" cy="0" r="1" fx="0" fy="0" gradientTransform="matrix(23.61414 0 0 -23.61412 483 483.72)" gradientUnits="userSpaceOnUse" spreadMethod="pad"><stop offset="0" style="stop-color:#ebd491"/><stop offset=".7" style="stop-color:#d2bb7b"/><stop offset="1" style="stop-color:#8b723c"/></radialGradient><path d="M124.939 39.018c-5.123 4.616-7.819 11.068-7.819 17.631 0 .757.213 1.514.286 2.271C20.556 87.295 0 140.843 0 181.08c0 40.818 21.203 97.865 122.123 137.926 64.477 25.56 137.603 34.616 180.619 34.616 167.381 0 261.129-95.917 265.061-99.988 4.32-4.55 6.6-10.496 6.6-16.45 0-4.218-1.126-8.436-3.434-12.258-.176-.323-.461-.572-.72-.895 1.662-1.376 3.397-2.705 4.911-4.154 16.255-15.794 24.84-35.548 24.84-57.074C600 50.483 422.815 0 296.972 0 171.923 0 129.378 35.012 124.938 39.018" style="fill:#fff"/><path d="M550.597 237.185s-98.76 28.052-185.335 28.052c-86.603 0-234.157-43.91-234.157-112.172 0-68.327 137.815-61.007 137.815-61.007s74.456 2.124 85.274 36.49c12.12 38.51-26.75 51.304-26.75 51.304s97.569 1.228 97.569-49.975c0-51.23-119.53-65.87-160.994-65.87-41.474 0-240.222 4.9-240.222 117.073 0 110.483 192.693 148.772 278.945 148.772 159.12 0 247.855-92.667 247.855-92.667M295.385 45.572a218 218 0 0 0-8.188-.139c-103.661 0-146.354 11.253-146.354 11.253s36.6-32.89 156.13-32.89c119.492 0 279.23 47.53 279.23 139.007S364.007 248.15 364.007 248.15s-109.33-6.424-163.127-39.018c-84.452-51.268 2.594-90.535 2.594-90.535 28.994-13.524 67.865-8.225 67.865-8.225s-42.692 19.505-42.692 45.11c0 25.598 81.738 39.047 130.523 39.047 47.99 0 112.246-15.683 117.009-44.926 14.28-87.905-180.794-104.031-180.794-104.031" style="fill:#8b723c"/><path d="M469.645 497.969c2.582.297 6.492.582 11.968.582q.45.001.934-.016c.586-.047 14.34-1.246 18.812-6.965 1.168-1.496 1.61-3.179 1.317-4.996-.602-3.707-8.117-5.371-13.27-5.371-4.613 0-14.734 1.215-14.734 4.828 0 1.883 1.738 3.442 3.164 4.399-1.406-.008-3.391-.18-5.043-.953-1.051-.469-3.797-2.141-3.922-4.184-.09-1.481 1.156-3.016 3.703-4.559 5.629-3.418 17.281-4.136 17.379-4.144.004 0 .317-.008.863-.008 3.59 0 21.508.418 21.508 8.656 0 9.438-17.222 14.461-29.652 14.461-6.324 0-10.473-.867-13.027-1.73m-15.969-14.711c0-10.965 19.293-15.52 29.621-15.52 12.508 0 21.012 5.438 24.558 8.235-3.742-.895-11.125-2.434-17.789-2.434-8.812 0-25.964 4.504-25.964 12.758 0 6.523 10.003 7.23 14.3 7.23.786 0 1.262-.027 1.246-.027.348-.008 8.508-.285 9.793-4.371.727-2.301-.054-3.949-1.144-5.008 2.926.313 7.648 1.328 7.648 4.684 0 4.925-12.527 6.535-16.843 6.535-4.247 0-25.426-.582-25.426-12.082" style="fill:url(#a)" transform="matrix(9.23077 0 0 -9.23077 -4158.461 4641.923)"/></svg>