<?xml version="1.0" encoding="UTF-8" standalone="no"?>
<svg
   width="390.26801"
   height="326.785"
   viewBox="0 0 390.26801 326.785"
   version="1.1"
   xml:space="preserve"
   style="clip-rule:evenodd;fill-rule:evenodd;stroke-linejoin:round;stroke-miterlimit:2"
   id="svg5"
   xmlns="http://www.w3.org/2000/svg"
   xmlns:svg="http://www.w3.org/2000/svg"
   xmlns:serif="http://www.serif.com/">
    <g
   id="Layer-2"
   serif:id="Layer 2"
   transform="translate(-505.249,-107.546)">
        <path
   id="path847"
   d="m 851.589,187.367 22.5,161.25 21.428,20.223 c -6.708,23.069 -15.246,30.681 -38.571,36.027 l -11.92,29.33 -19.286,-24.776 c -23.349,-3.368 -36.854,-5.174 -47.009,-24.375 l 8.17,-14.197 c -52.214,5.203 -74.534,2.334 -79.665,-18.988 -0.877,-4.605 -1.786,-11.515 -1.786,-11.515 -27.121,-2.868 -50.477,0.505 -76.183,6.932 l -0.067,4.018 20.96,17.41 c -5.914,23.92 -17.882,30.037 -39.643,37.233 l -10.714,28.392 -18.75,-25.178 c -24.993,0.271 -34.406,-3.674 -48.08,-24.107 L 548.24,361.608 525.473,198.751 505.249,181.474 c 3.325,-27.171 13.492,-35.591 35.247,-37.719 l 12.7,-36.209 22.941,31.326 c 23.008,-0.911 32.834,1.285 43.422,25.492 20.516,-6.05 61.422,-10.968 87.119,-0.97 9.456,2.906 11.8,20.712 13.929,32.411 15.101,-0.142 28.735,-0.479 43.124,-2.947 l -14.039,-12.331 c 4.53,-25.697 12.911,-33.41 35.223,-36.83 l 12.913,-35.678 23.509,31.326 c 22.06,-2.544 31.347,-0.336 44.004,25.411 z"
   style="fill-rule:nonzero" />
        <path
   id="path881"
   d="m 514.61,177.661 c 5.831,-19.877 12.033,-23.966 32.956,-25.191 l 8.902,-24.054 13.826,19.698 c 21.566,-0.701 30.035,-4.003 38.639,16.478 -0.5,1.35 -1.476,3.287 -2.841,4.356 -9.242,2.666 -43.745,22.621 -40.632,27.217 1.078,1.077 2.166,1.315 3.518,0.692 20.562,-15.069 47.206,-22.659 69.88,-27.151 10.476,-1.24 45.959,-5.174 64.208,2.841 4.176,3.882 4.537,8.67 5.983,13.316 4.781,15.364 7.675,39.479 8.696,47.482 0.459,0.388 1.341,0.483 1.799,0.095 1.922,-5.835 -1.154,-17.146 2.191,-24.707 0.751,-1.699 2.086,-3.33 3.777,-4.099 31.798,0.373 53.07,-2.167 75.76,-14.899 1.303,-0.785 3.057,-1.343 3.646,-2.746 0.234,-0.558 0.137,-1.324 -0.237,-1.8 -0.324,-0.412 -0.947,-0.507 -1.468,-0.568 -11.186,2.589 -17.3,3.652 -27.605,5.54 l -15.91,-12.69 c 6.792,-22.214 11.108,-22.36 32.767,-25.001 l 9.091,-24.054 13.827,20.266 c 21.594,-0.596 28.271,-4.862 38.827,15.72 l -13.637,21.214 24.623,171.031 18.94,15.72 c -5.171,17.001 -18.957,20.225 -35.418,25.002 l -6.819,17.425 -10.985,-14.395 c -21.449,-0.573 -28.465,1.471 -41.48,-15.341 l 10.607,-16.857 c 7.799,-4.631 22.491,-12.249 24.649,-16.079 0.266,-0.693 0.315,-1.606 -0.095,-2.226 -2.515,-2.26 -6.126,1.047 -8.332,2.507 -15.763,8.468 -27.59,10.125 -50.504,12.01 -11.57,0.827 -41.855,3.032 -47.919,-9.66 -2.119,-3.799 5.714,-10.825 7.765,-11.08 1.018,-14.689 -0.441,-38.111 -2.203,-56.927 -0.203,-1.536 -0.045,-2.934 -1.689,-2.929 -1.801,0.006 -1.545,1.009 -1.823,3.318 -0.375,4.102 -2.739,26.9 -4.941,36.784 -2.202,9.883 -6.645,8.577 -6.645,8.577 -32.932,-5.673 -63.893,-0.774 -92.339,9.767 -4.996,1.922 -25.469,8.957 -26.583,12.33 -0.229,0.815 0.374,1.83 1.079,2.298 0.835,0.555 2.015,0.276 3.007,0.122 9.026,-3.267 16.95,-5.357 26.205,-7.319 v 4.8 l 19.943,17.683 c -6.499,18.978 -17.351,19.571 -36.555,25.948 l -5.682,16.857 -11.365,-14.773 c -17.263,-0.459 -33.674,0.478 -41.479,-15.531 l 14.016,-20.456 -24.812,-171.41 z"
   style="fill:url(#_Linear1);fill-rule:nonzero" />
    </g>
    <defs
   id="defs5">
        <linearGradient
   id="_Linear1"
   x1="0"
   y1="0"
   x2="1"
   y2="0"
   gradientUnits="userSpaceOnUse"
   gradientTransform="matrix(301.341,-45.4569,45.4569,301.341,547.945,289.124)"><stop
     offset="0"
     style="stop-color:rgb(97,44,117);stop-opacity:1"
     id="stop1" /><stop
     offset="0.3"
     style="stop-color:rgb(123,81,144);stop-opacity:1"
     id="stop2" /><stop
     offset="0.5"
     style="stop-color:rgb(191,153,195);stop-opacity:1"
     id="stop3" /><stop
     offset="0.7"
     style="stop-color:rgb(123,81,144);stop-opacity:1"
     id="stop4" /><stop
     offset="1"
     style="stop-color:rgb(97,44,117);stop-opacity:1"
     id="stop5" /></linearGradient>
    </defs>
</svg>
