<?xml version="1.0" encoding="UTF-8" standalone="no"?>
<!DOCTYPE svg PUBLIC "-//W3C//DTD SVG 1.1//EN" "http://www.w3.org/Graphics/SVG/1.1/DTD/svg11.dtd">
<svg width="100%" height="100%" viewBox="0 0 391 327" version="1.1" xmlns="http://www.w3.org/2000/svg" xmlns:xlink="http://www.w3.org/1999/xlink" xml:space="preserve" xmlns:serif="http://www.serif.com/" style="fill-rule:evenodd;clip-rule:evenodd;stroke-linejoin:round;stroke-miterlimit:2;">
    <g id="Layer-2" serif:id="Layer 2" transform="matrix(1,0,0,1,-505.249,-107.546)">
        <path id="path847" d="M851.589,187.367L874.089,348.617L895.517,368.84C888.809,391.909 880.271,399.521 856.946,404.867L845.026,434.197L825.74,409.421C802.391,406.053 788.886,404.247 778.731,385.046L786.901,370.849C734.687,376.052 712.367,373.183 707.236,351.861C706.359,347.256 705.45,340.346 705.45,340.346C678.329,337.478 654.973,340.851 629.267,347.278L629.2,351.296L650.16,368.706C644.246,392.626 632.278,398.743 610.517,405.939L599.803,434.331L581.053,409.153C556.06,409.424 546.647,405.479 532.973,385.046L548.24,361.608L525.473,198.751L505.249,181.474C508.574,154.303 518.741,145.883 540.496,143.755L553.196,107.546L576.137,138.872C599.145,137.961 608.971,140.157 619.559,164.364C640.075,158.314 680.981,153.396 706.678,163.394C716.134,166.3 718.478,184.106 720.607,195.805C735.708,195.663 749.342,195.326 763.731,192.858L749.692,180.527C754.222,154.83 762.603,147.117 784.915,143.697L797.828,108.019L821.337,139.345C843.397,136.801 852.684,139.009 865.341,164.756L851.589,187.367Z" style="fill-rule:nonzero;"/>
        <path id="path881" d="M514.61,177.661C520.441,157.784 526.643,153.695 547.566,152.47L556.468,128.416L570.294,148.114C591.86,147.413 600.329,144.111 608.933,164.592C608.433,165.942 607.457,167.879 606.092,168.948C596.85,171.614 562.347,191.569 565.46,196.165C566.538,197.242 567.626,197.48 568.978,196.857C589.54,181.788 616.184,174.198 638.858,169.706C649.334,168.466 684.817,164.532 703.066,172.547C707.242,176.429 707.603,181.217 709.049,185.863C713.83,201.227 716.724,225.342 717.745,233.345C718.204,233.733 719.086,233.828 719.544,233.44C721.466,227.605 718.39,216.294 721.735,208.733C722.486,207.034 723.821,205.403 725.512,204.634C757.31,205.007 778.582,202.467 801.272,189.735C802.575,188.95 804.329,188.392 804.918,186.989C805.152,186.431 805.055,185.665 804.681,185.189C804.357,184.777 803.734,184.682 803.213,184.621C792.027,187.21 785.913,188.273 775.608,190.161L759.698,177.471C766.49,155.257 770.806,155.111 792.465,152.47L801.556,128.416L815.383,148.682C836.977,148.086 843.654,143.82 854.21,164.402L840.573,185.616L865.196,356.647L884.136,372.367C878.965,389.368 865.179,392.592 848.718,397.369L841.899,414.794L830.914,400.399C809.465,399.826 802.449,401.87 789.434,385.058L800.041,368.201C807.84,363.57 822.532,355.952 824.69,352.122C824.956,351.429 825.005,350.516 824.595,349.896C822.08,347.636 818.469,350.943 816.263,352.403C800.5,360.871 788.673,362.528 765.759,364.413C754.189,365.24 723.904,367.445 717.84,354.753C715.721,350.954 723.554,343.928 725.605,343.673C726.623,328.984 725.164,305.562 723.402,286.746C723.199,285.21 723.357,283.812 721.713,283.817C719.912,283.823 720.168,284.826 719.89,287.135C719.515,291.237 717.151,314.035 714.949,323.919C712.747,333.802 708.304,332.496 708.304,332.496C675.372,326.823 644.411,331.722 615.965,342.263C610.969,344.185 590.496,351.22 589.382,354.593C589.153,355.408 589.756,356.423 590.461,356.891C591.296,357.446 592.476,357.167 593.468,357.013C602.494,353.746 610.418,351.656 619.673,349.694L619.673,354.494L639.616,372.177C633.117,391.155 622.265,391.748 603.061,398.125L597.379,414.982L586.014,400.209C568.751,399.75 552.34,400.687 544.535,384.678L558.551,364.222L533.739,192.812L514.61,177.661Z" style="fill:url(#_Linear1);fill-rule:nonzero;"/>
    </g>
    <defs>
        <linearGradient id="_Linear1" x1="0" y1="0" x2="1" y2="0" gradientUnits="userSpaceOnUse" gradientTransform="matrix(301.341,-45.4569,45.4569,301.341,547.945,289.124)"><stop offset="0" style="stop-color:rgb(97,44,117);stop-opacity:1"/><stop offset="0.3" style="stop-color:rgb(123,81,144);stop-opacity:1"/><stop offset="0.5" style="stop-color:rgb(191,153,195);stop-opacity:1"/><stop offset="0.7" style="stop-color:rgb(123,81,144);stop-opacity:1"/><stop offset="1" style="stop-color:rgb(97,44,117);stop-opacity:1"/></linearGradient>
    </defs>
</svg>
