<?xml version="1.0" encoding="UTF-8" standalone="no"?>
<svg
   version="1.1"
   width="600"
   height="320.00391"
   id="svg1"
   xmlns="http://www.w3.org/2000/svg"
   xmlns:svg="http://www.w3.org/2000/svg">
  <defs
     id="defs1" />
  <path
     d="M 39.865234,0 C 14.508164,47.098103 0,101.73573 0,160.00195 0,218.26817 14.508164,272.90581 39.865234,320.00391 H 560.13477 C 585.49184,272.90581 600,218.26817 600,160.00195 600,101.73573 585.48544,47.098103 560.13477,0 Z m 11.929688,19.001953 h 12.257812 471.902346 12.25586 l 5.04883,11.162109 c 18.4066,40.685235 27.73828,84.371798 27.73828,129.837888 0,46.27249 -9.66466,90.67605 -28.73047,131.96289 l -5.09375,11.03907 H 535.01953 64.980469 52.826172 l -5.09375,-11.03907 C 28.673019,250.678 19.001953,206.27444 19.001953,160.00195 c 0,-45.46609 9.331684,-89.153194 27.738281,-129.832028 z M 64.052734,37.998047 C 47.367755,74.888041 38.003906,116.27668 38.003906,160.00195 c 0,27.19341 3.629368,53.47434 10.382813,78.33399 9.118539,-9.13897 15.800939,-20.92578 21.566406,-36.93164 6.534469,-18.11219 10.968732,-35.58422 19.199219,-52.25 2.080023,-4.21124 7.129496,-7.53278 12.601566,-4.90235 3.85924,1.85602 7.69391,3.97929 11.91797,5.91211 4.44164,2.03522 5.3628,5.88787 3.33398,10.63672 -5.86246,13.68974 -13.13883,26.79149 -17.830079,40.86524 -4.665649,14.00335 -5.337268,30.33654 11.162109,34.67578 v 12.99804 c -27.045709,-3.27247 -44.559702,-0.26326 -56.335937,7.28125 3.21707,9.37067 6.882761,18.51096 10.978516,27.38282 H 535.01953 c 17.26098,-37.3892 26.98242,-79.47669 26.98242,-124.00196 0,-43.73167 -9.36189,-85.113909 -26.04687,-122.003903 z M 499.53125,48.78125 527.55078,64.25 c -6.29127,19.289805 -2.02881,42.02368 -2.5664,79.08008 l 15.29687,-0.006 5.27344,-4.66602 5.54883,7.16797 c 0,0 -6.64937,13.31837 -11.00782,20.11524 -8.60169,-2.24002 -9.73423,-1.79858 -15.65429,-1.29297 -1.35042,11.23212 2.02734,44.52539 2.02734,44.52539 0,0 -14.34765,-1.61832 -32.05664,8.05859 1.33121,-11.43692 3.47396,-40.807 2.00195,-52.98633 -10.00971,0.46721 -34.23304,1.89311 -57.11328,4.86914 L 427.25,160.41211 c 0.67841,0.85761 68.62681,-62.158332 72.28125,-111.63086 z m -262.4082,5.587891 c 15.87217,7.788883 46.37373,7.622482 54.04101,0 3.28963,3.385636 7.75079,6.335883 13.49805,8.787109 -3.96164,8.576091 -5.69537,23.986878 2.00391,39.83984 17.16499,35.33478 27.50111,56.16045 38.51562,83.96875 3.36004,8.48009 4.72985,21.79183 7.48828,28.3711 5.20966,12.44173 20.07713,15.54078 34.33008,28.32812 -2.63683,4.51205 -4.75566,9.17631 -6.33008,14.00196 -40.67243,-13.01774 -74.11334,-13.99059 -96.16797,4 -4.82566,-4.07684 -9.36907,-8.35698 -13.66992,-12.82422 5.11365,-5.22246 11.44384,-9.65151 18.00391,-15.00196 9.3953,-7.66089 11.57126,-19.08484 3.16797,-35.67382 -9.61291,-18.9698 -17.55026,-39.53992 -28.16797,-59.82813 -2.88004,-5.51046 -7.85918,-3.80879 -12.83203,1.16406 -6.01607,-3.10403 -11.97475,-7.69947 -15.83399,-15.00195 -1.76002,-3.34084 -2.20121,-7.52512 0.66602,-10.00195 5.49766,-4.74885 10.33694,-11.11059 15.34179,-19.072269 2.57283,-4.083243 2.48965,-7.764754 -1.43359,-11.15039 C 243.86887,79.200137 235.93291,74.323986 226,70.119141 c 3.72484,-4.518448 7.43661,-9.426732 11.12305,-15.75 z m 178.13281,1.791015 V 165.75586 l -27.41797,27.41016 V 93.837891 H 360.00391 V 82.335938 c 20.67862,-7.577681 39.61018,-16.038074 55.25195,-26.175782 z M 97,60.5 l 66.66211,2.501953 c 6.83527,19.334607 25.33132,46.835717 47.00195,72.499997 2.14402,-1.53602 3.70603,-3.55227 5.49805,-5.33789 3.03363,-3.01443 6.70122,-2.52178 9.49805,-0.16015 3.97444,3.34723 7.81394,7.76364 11.33398,13.3125 1.83682,2.89923 1.79842,5.91351 0,8.18554 -6.57927,8.32649 -10.53447,19.30282 -4,40.33985 6.48967,14.93776 11.46195,30.1887 15.33398,45.66406 -18.88659,9.2097 -32.81274,21.0944 -40.83203,36.16016 -6.80327,-1.70242 -12.98509,-4.56163 -18.50195,-8.66407 3.83364,-6.32967 3.96166,-16.58988 0.83203,-29.16601 -11.30252,-45.42769 -29.383,-83.44349 -48.5,-110.67578 -3.00803,-4.27525 -7.24484,-5.31285 -9.66406,-0.5 -1.28642,2.56643 -3.85884,7.6991 -4.99805,10.33593 -1.54881,3.58404 -4.58279,5.58213 -9.49804,3.66211 -3.66724,-1.42722 -10.73347,-4.97968 -14.00391,-7.16211 -4.876853,-3.24483 -5.318006,-7.9361 -3.333985,-12.16015 3.488035,-7.43048 6.874275,-15.0413 10.003905,-23.175784 C 115.57929,81.247997 103.75134,79.341113 87.667969,77.337891 88.999183,71.001824 92.500752,65.24885 97,60.5 Z m 400.09961,43.4375 c 0,0 -17.46657,27.61028 -30.25391,40.19922 4.05765,1.42081 30.25391,-0.20508 30.25391,-0.20508 0,0 1.01122,-22.32995 0,-39.99414 z"
     id="path1" />
</svg>
