<svg xmlns="http://www.w3.org/2000/svg" xmlns:xlink="http://www.w3.org/1999/xlink" width="374" height="254.125"><linearGradient id="a"><stop offset="0" style="stop-color:#612c75"/><stop offset=".1" style="stop-color:#7b5190"/><stop offset=".5" style="stop-color:#bf99c3"/><stop offset=".9" style="stop-color:#7b5190"/><stop offset="1" style="stop-color:#612c75"/></linearGradient><linearGradient xlink:href="#a" id="b" x1="314.035" x2="657.969" y1="233.906" y2="233.906" gradientTransform="translate(-299 -58)" gradientUnits="userSpaceOnUse"/><path d="m187 0-23.937 46.375c-10.923 1.682-26.226 19.33-29.063 31-6.872 3.99-19.909 16.025-20.125 36.563L91.531 62.75 58.5 139.531l-4.781 3.813L31.78 88.375 0 169.031v85.094h63.281v-38.281c0-8.53 3.133-16.14 7.063-20.969l21.187 27.469 34.156-43.094c6.58 3.558 13.846 11.315 16.438 18.906-22.157 11.395-26.156 55.969-26.156 55.969H258.03s-4-44.574-26.156-55.969c2.592-7.591 9.858-15.348 16.438-18.906l34.156 43.094 21.187-27.469c3.93 4.83 7.063 12.439 7.063 20.969v38.281H374v-85.094l-31.781-80.656-21.938 54.969-4.781-3.813-33.031-76.781-22.344 51.188C259.909 93.4 246.872 81.364 240 77.375c-2.837-11.67-18.14-29.318-29.062-31zm0 110.938c12.74 0 23.063 10.322 23.063 23.062S199.74 157.063 187 157.063 163.938 146.74 163.938 134 174.26 110.938 187 110.938" style="fill:#fff"/><path d="m187 32.25-13.719 26.188c-7.272.287-25.36 12.929-26.812 29.687-6.46.278-17.813 11.057-17.813 25.531v31.875c-7.028-2.955-13.779-4.703-20.219-5.437l-16.906-39.25-16.562 39.25v6.312c-10.347 5.526-19.234 14.177-26.469 24.844l-16.406-41.844-17.063 42.438v67.719h33.594V217.5c0-23.626 12.103-38.025 26.344-41.594l16.562 22.25 16.906-22.25v-17.125c29.834 3.11 45.654 22.168 51.563 45.875-23.8 8.575-25.937 34.906-25.937 34.906h105.875S237.8 213.232 214 204.657c5.91-23.707 21.729-42.765 51.563-45.875v17.125l16.906 22.25 16.562-22.25c14.241 3.569 26.344 17.968 26.344 41.594v22.063h33.594v-67.72l-17.063-42.437L325.5 171.25c-7.235-10.667-16.122-19.318-26.469-24.844v-6.312l-16.562-39.25-16.906 39.25c-6.44.734-13.19 2.482-20.22 5.437v-31.875c0-14.474-11.353-25.253-17.812-25.531-1.451-16.758-19.54-29.4-26.812-29.687zm0 70.875c17.058 0 30.875 13.817 30.875 30.875S204.058 164.875 187 164.875 156.125 151.058 156.125 134s13.817-30.875 30.875-30.875" style="fill:url(#b)"/></svg>