<?xml version="1.0" encoding="UTF-8" standalone="no"?>
<!-- Generator: Adobe Illustrator 15.1.0, SVG Export Plug-In . SVG Version: 6.00 Build 0)  -->

<svg
   version="1.1"
   id="Layer_1"
   x="0px"
   y="0px"
   width="138.80701"
   height="150"
   viewBox="0 0 138.80701 150"
   enable-background="new 0 0 150 156"
   xml:space="preserve"
   xmlns="http://www.w3.org/2000/svg"
   xmlns:svg="http://www.w3.org/2000/svg"><defs
   id="defs7" />
<g
   id="g7"
   transform="translate(-5.338,-2.643)">
	<polygon
   fill="#ffffff"
   points="5.338,38.309 38.454,22.451 50.338,2.643 99.143,2.643 111.025,22.451 144.145,38.309 139.417,69.258 139.417,95.229 74.74,152.643 10.064,95.229 10.064,69.258 "
   id="polygon1" />
	<polygon
   points="12.152,41.911 42.805,27.232 53.844,8.836 95.637,8.836 106.676,27.232 137.328,41.911 133.223,68.788 133.223,92.445 74.74,144.363 16.257,92.445 16.257,68.788 "
   id="polygon2" />
	<path
   fill="#ffffff"
   d="M 101.837,32.545 91.738,15.716 H 57.741 l -10.098,16.829 -27.92,13.369 3.414,22.352 v 21.089 l 51.604,45.81 51.603,-45.81 V 68.266 l 3.414,-22.352 z M 59.688,19.156 H 89.792 L 98.473,33.621 74.744,65.591 51.024,33.602 Z M 76.462,71.021 121.465,89.084 76.46,129.037 Z M 73.021,129.037 28.016,89.084 73.022,71.021 Z M 48.486,35.955 72.031,67.712 26.576,85.955 v -17.95 l -3.068,-20.09 z m 74.416,32.05 v 17.948 l -45.45,-18.241 23.563,-31.746 24.957,11.949 z"
   id="path2" />
	<path
   fill="#ffffff"
   d="m 74.74,46.921 c -5.209,0 -9.446,-4.237 -9.446,-9.446 0,-5.207 4.237,-9.444 9.446,-9.444 5.209,0 9.445,4.237 9.445,9.444 0.003,5.209 -4.236,9.446 -9.445,9.446 z"
   id="path3" />
	<path
   fill="#ffffff"
   d="m 42.918,69.971 c -5.208,0 -9.445,-4.236 -9.445,-9.445 0,-5.209 4.237,-9.445 9.445,-9.445 5.209,0 9.445,4.236 9.445,9.445 0,5.206 -4.236,9.445 -9.445,9.445 z"
   id="path4" />
	<path
   fill="#ffffff"
   d="m 57.023,104.545 c -5.209,0 -9.447,-4.236 -9.447,-9.445 0,-5.209 4.238,-9.447 9.447,-9.447 5.207,0 9.444,4.238 9.444,9.447 0.002,5.209 -4.235,9.445 -9.444,9.445 z"
   id="path5" />
	<path
   fill="#ffffff"
   d="m 106.563,69.971 c -5.209,0 -9.444,-4.236 -9.444,-9.445 0,-5.209 4.235,-9.445 9.444,-9.445 5.209,0 9.446,4.236 9.446,9.445 0,5.206 -4.238,9.445 -9.446,9.445 z"
   id="path6" />
	<path
   fill="#ffffff"
   d="m 92.457,104.545 c -5.209,0 -9.445,-4.236 -9.445,-9.445 0,-5.209 4.236,-9.447 9.445,-9.447 5.209,0 9.447,4.238 9.447,9.447 0,5.209 -4.238,9.445 -9.447,9.445 z"
   id="path7" />
</g>
</svg>
