<?xml version="1.0" encoding="UTF-8" standalone="no"?>
<!-- Generator: Adobe Illustrator 15.1.0, SVG Export Plug-In . SVG Version: 6.00 Build 0)  -->

<svg
   version="1.1"
   id="Layer_1"
   x="0px"
   y="0px"
   width="138.804"
   height="150"
   viewBox="0 0 138.804 150"
   enable-background="new 0 0 150 156"
   xml:space="preserve"
   xmlns="http://www.w3.org/2000/svg"
   xmlns:svg="http://www.w3.org/2000/svg"><defs
   id="defs27" />
<g
   id="g27"
   transform="translate(-5.513,-2.696)">
	<polygon
   points="5.513,38.362 38.629,22.505 50.513,2.696 99.317,2.696 111.201,22.505 144.317,38.362 139.592,69.312 139.592,95.283 74.915,152.696 10.238,95.283 10.238,69.312 "
   id="polygon1" />
	<linearGradient
   id="SVGID_1_"
   gradientUnits="userSpaceOnUse"
   x1="12.3271"
   y1="76.653297"
   x2="137.5029"
   y2="76.653297">
		<stop
   offset="0"
   style="stop-color:#612C75"
   id="stop1" />
		<stop
   offset="0.0703"
   style="stop-color:#67357C"
   id="stop2" />
		<stop
   offset="0.1845"
   style="stop-color:#784D8D"
   id="stop3" />
		<stop
   offset="0.2"
   style="stop-color:#7B5190"
   id="stop4" />
		<stop
   offset="0.2344"
   style="stop-color:#8C639D"
   id="stop5" />
		<stop
   offset="0.2911"
   style="stop-color:#A37BAE"
   id="stop6" />
		<stop
   offset="0.3516"
   style="stop-color:#B38CBA"
   id="stop7" />
		<stop
   offset="0.4177"
   style="stop-color:#BC96C1"
   id="stop8" />
		<stop
   offset="0.5"
   style="stop-color:#BF99C3"
   id="stop9" />
		<stop
   offset="0.5823"
   style="stop-color:#BC96C1"
   id="stop10" />
		<stop
   offset="0.6484"
   style="stop-color:#B38CBA"
   id="stop11" />
		<stop
   offset="0.7089"
   style="stop-color:#A37BAE"
   id="stop12" />
		<stop
   offset="0.7656"
   style="stop-color:#8C639D"
   id="stop13" />
		<stop
   offset="0.8"
   style="stop-color:#7B5190"
   id="stop14" />
		<stop
   offset="0.8547"
   style="stop-color:#714285"
   id="stop15" />
		<stop
   offset="0.937"
   style="stop-color:#653279"
   id="stop16" />
		<stop
   offset="1"
   style="stop-color:#612C75"
   id="stop17" />
	</linearGradient>
	<polygon
   fill="url(#SVGID_1_)"
   points="12.327,41.965 42.979,27.286 54.02,8.889 95.811,8.889 106.851,27.286 137.503,41.965 133.398,68.842 133.398,92.5 74.915,144.417 16.432,92.5 16.432,68.842 "
   id="polygon17"
   style="fill:url(#SVGID_1_)" />
	<path
   d="M 102.012,32.598 91.914,15.77 H 57.916 l -10.098,16.828 -27.92,13.37 3.414,22.351 v 21.09 l 51.603,45.809 51.603,-45.809 v -21.09 l 3.414,-22.351 z M 59.862,19.21 h 30.104 l 8.681,14.464 -23.73,31.97 -23.72,-31.99 z M 76.637,71.075 121.64,89.138 76.635,129.091 Z M 73.195,129.091 28.19,89.138 73.195,71.075 Z M 48.66,36.009 72.206,67.766 26.752,86.009 v -17.95 l -3.068,-20.09 z m 74.418,32.05 V 86.007 L 77.627,67.766 101.191,36.02 126.146,47.969 Z"
   id="path17" />
	<path
   d="m 74.915,48.796 c -6.213,0 -11.267,-5.055 -11.267,-11.268 0,-6.211 5.054,-11.266 11.267,-11.266 6.213,0 11.267,5.054 11.267,11.266 0,6.213 -5.054,11.268 -11.267,11.268 z"
   id="path18" />
	<path
   fill="#ffffff"
   d="m 74.915,45.355 c -4.315,0 -7.827,-3.512 -7.827,-7.827 0,-4.315 3.512,-7.826 7.827,-7.826 4.315,0 7.827,3.511 7.827,7.826 0,4.316 -3.512,7.827 -7.827,7.827 z"
   id="path19" />
	<path
   d="m 43.093,71.845 c -6.213,0 -11.266,-5.054 -11.266,-11.266 0,-6.213 5.053,-11.268 11.266,-11.268 6.213,0 11.267,5.055 11.267,11.268 -10e-4,6.212 -5.054,11.266 -11.267,11.266 z"
   id="path20" />
	<path
   fill="#ffffff"
   d="m 43.093,68.404 c -4.315,0 -7.827,-3.511 -7.827,-7.825 0,-4.315 3.512,-7.827 7.827,-7.827 4.315,0 7.827,3.512 7.827,7.827 0,4.315 -3.512,7.825 -7.827,7.825 z"
   id="path21" />
	<path
   d="m 57.198,106.42 c -6.214,0 -11.267,-5.055 -11.267,-11.268 0,-6.213 5.053,-11.267 11.267,-11.267 6.212,0 11.267,5.054 11.267,11.267 0,6.213 -5.055,11.268 -11.267,11.268 z"
   id="path22" />
	<path
   fill="#ffffff"
   d="m 57.198,102.979 c -4.315,0 -7.827,-3.512 -7.827,-7.827 0,-4.314 3.512,-7.826 7.827,-7.826 4.314,0 7.826,3.512 7.826,7.826 0,4.316 -3.511,7.827 -7.826,7.827 z"
   id="path23" />
	<path
   d="m 106.737,71.845 c 6.213,0 11.267,-5.054 11.267,-11.266 0,-6.213 -5.054,-11.268 -11.267,-11.268 -6.213,0 -11.267,5.055 -11.267,11.268 0.001,6.212 5.054,11.266 11.267,11.266 z"
   id="path24" />
	<path
   fill="#ffffff"
   d="m 106.737,68.404 c 4.315,0 7.827,-3.511 7.827,-7.825 0,-4.315 -3.512,-7.827 -7.827,-7.827 -4.315,0 -7.827,3.512 -7.827,7.827 0,4.315 3.512,7.825 7.827,7.825 z"
   id="path25" />
	<path
   d="m 92.632,106.42 c 6.214,0 11.267,-5.055 11.267,-11.268 0,-6.213 -5.053,-11.267 -11.267,-11.267 -6.212,0 -11.267,5.054 -11.267,11.267 0,6.213 5.055,11.268 11.267,11.268 z"
   id="path26" />
	<path
   fill="#ffffff"
   d="m 92.632,102.979 c 4.315,0 7.827,-3.512 7.827,-7.827 0,-4.314 -3.512,-7.826 -7.827,-7.826 -4.314,0 -7.826,3.512 -7.826,7.826 0,4.316 3.511,7.827 7.826,7.827 z"
   id="path27" />
</g>
</svg>
