<?xml version="1.0" encoding="UTF-8" standalone="no"?>
<!-- Generator: Adobe Illustrator 15.1.0, SVG Export Plug-In . SVG Version: 6.00 Build 0)  -->

<svg
   version="1.1"
   id="Layer_1"
   x="0px"
   y="0px"
   width="138.806"
   height="150"
   viewBox="0 0 138.806 150"
   enable-background="new 0 0 150 156"
   xml:space="preserve"
   xmlns="http://www.w3.org/2000/svg"
   xmlns:svg="http://www.w3.org/2000/svg"><defs
   id="defs1" />
<path
   d="M 4.727,92.587 V 66.616 L 0,35.666 33.117,19.809 45.001,0 h 48.804 l 11.885,19.809 33.116,15.857 -4.726,30.949 V 92.587 L 69.403,150 Z m 64.676,49.134 58.483,-51.917 V 66.146 L 131.99,39.269 101.338,24.59 90.299,6.193 H 48.507 L 37.468,24.59 6.815,39.269 10.919,66.146 v 23.658 z m 55.016,-98.449 -3.414,22.351 v 21.09 L 69.403,132.522 17.8,86.712 V 65.622 L 14.386,43.272 42.306,29.902 52.404,13.074 H 86.402 L 96.5,29.902 Z m -78.735,-12.313 23.72,31.99 23.73,-31.97 -8.68,-14.464 H 54.35 Z M 71.122,126.395 116.127,86.442 71.124,68.379 Z M 67.683,68.379 22.678,86.442 67.683,126.395 Z M 18.172,45.273 21.24,65.363 v 17.95 L 66.695,65.07 43.149,33.313 Z m 102.463,0 L 95.679,33.324 72.115,65.07 117.566,83.311 V 65.363 Z M 69.403,46.1 c -6.213,0 -11.266,-5.055 -11.266,-11.268 0,-6.211 5.053,-11.266 11.266,-11.266 6.213,0 11.266,5.054 11.266,11.266 0,6.213 -5.053,11.268 -11.266,11.268 z M 77.23,34.832 c 0,-4.315 -3.512,-7.826 -7.827,-7.826 -4.315,0 -7.827,3.511 -7.827,7.826 0,4.315 3.512,7.827 7.827,7.827 4.315,0 7.827,-3.511 7.827,-7.827 z M 37.581,69.149 c -6.213,0 -11.266,-5.054 -11.266,-11.266 0,-6.213 5.053,-11.268 11.266,-11.268 6.213,0 11.266,5.055 11.266,11.268 0,6.212 -5.053,11.266 -11.266,11.266 z m 7.826,-11.266 c 0,-4.315 -3.512,-7.827 -7.827,-7.827 -4.315,0 -7.827,3.512 -7.827,7.827 0,4.314 3.512,7.825 7.827,7.825 4.315,0 7.827,-3.51 7.827,-7.825 z m 17.545,34.573 c 0,6.213 -5.054,11.268 -11.266,11.268 -6.213,0 -11.267,-5.055 -11.267,-11.268 0,-6.213 5.054,-11.267 11.267,-11.267 6.212,0.001 11.266,5.054 11.266,11.267 z m -3.44,0 c 0,-4.314 -3.512,-7.826 -7.826,-7.826 -4.316,0 -7.828,3.512 -7.828,7.826 0,4.315 3.512,7.827 7.828,7.827 4.315,0 7.826,-3.511 7.826,-7.827 z m 52.979,-34.573 c 0,6.212 -5.053,11.266 -11.266,11.266 -6.213,0 -11.267,-5.054 -11.267,-11.266 0,-6.213 5.054,-11.268 11.267,-11.268 6.213,0 11.266,5.055 11.266,11.268 z m -3.439,0 c 0,-4.315 -3.512,-7.827 -7.826,-7.827 -4.315,0 -7.827,3.512 -7.827,7.827 0,4.314 3.512,7.825 7.827,7.825 4.314,0 7.826,-3.51 7.826,-7.825 z M 98.387,92.456 c 0,6.213 -5.054,11.268 -11.267,11.268 -6.213,0 -11.267,-5.055 -11.267,-11.268 0,-6.213 5.054,-11.267 11.267,-11.267 6.213,0 11.267,5.054 11.267,11.267 z m -3.439,0 c 0,-4.314 -3.512,-7.826 -7.827,-7.826 -4.314,0 -7.826,3.512 -7.826,7.826 0,4.315 3.512,7.827 7.826,7.827 4.315,0 7.827,-3.511 7.827,-7.827 z"
   id="path1" />
</svg>
