<?xml version="1.0" encoding="UTF-8" standalone="no"?>
<svg
   version="1.1"
   width="600"
   height="507.63568"
   id="svg2"
   xmlns="http://www.w3.org/2000/svg"
   xmlns:svg="http://www.w3.org/2000/svg">
  <defs
     id="defs2" />
  <path
     d="M 355.64956,253.81785 C 506.25238,202.01362 600,0 600,0 H 0 C 0,0 93.74762,202.01362 244.4012,253.81785 93.74762,305.62207 0,507.63569 0,507.63569 h 600 c 0,0 -93.74762,-202.01362 -244.35044,-253.81784"
     style="fill:#ffffff"
     id="path1" />
  <path
     d="m 317.2723,274.09789 v 199.72926 h 222.29367 c 0,0 -79.60997,-156.16142 -222.29367,-199.72926 M 60.484792,473.82715 H 282.7277 V 274.09789 C 140.05669,317.66573 60.484792,473.82715 60.484792,473.82715 M 539.56597,33.80854 H 317.2723 V 233.5378 C 459.956,190.02073 539.56597,33.80854 539.56597,33.80854 m -479.081178,0 H 282.7277 V 233.5378 C 140.05669,190.02073 60.484792,33.80854 60.484792,33.80854"
     id="path2" />
</svg>
