<?xml version="1.0" encoding="UTF-8" standalone="no"?>
<svg
   version="1.1"
   width="600"
   height="507.63568"
   id="svg8"
   xmlns:xlink="http://www.w3.org/1999/xlink"
   xmlns="http://www.w3.org/2000/svg"
   xmlns:svg="http://www.w3.org/2000/svg">
  <defs
     id="defs8" />
  <linearGradient
     x1="0"
     y1="0"
     x2="1"
     y2="0"
     id="linearGradient664"
     gradientUnits="userSpaceOnUse"
     gradientTransform="matrix(36.210907,-36.210907,-36.210907,-36.210907,647.59961,164.64648)"
     spreadMethod="pad">
    <stop
       style="stop-color:#612c75"
       offset="0"
       id="stop1" />
    <stop
       style="stop-color:#bf99c3"
       offset="0.25"
       id="stop2" />
    <stop
       style="stop-color:#7b5190"
       offset="0.39999399"
       id="stop3" />
    <stop
       style="stop-color:#612c75"
       offset="0.5"
       id="stop4" />
    <stop
       style="stop-color:#7b5190"
       offset="0.69999701"
       id="stop5" />
    <stop
       style="stop-color:#bf99c3"
       offset="0.75"
       id="stop6" />
    <stop
       style="stop-color:#612c75"
       offset="1"
       id="stop7" />
  </linearGradient>
  <linearGradient
     x1="0"
     y1="0"
     x2="1"
     y2="0"
     id="linearGradient2997"
     xlink:href="#linearGradient664"
     gradientUnits="userSpaceOnUse"
     gradientTransform="matrix(36.210907,-36.210907,-36.210907,-36.210907,647.59961,164.64648)"
     spreadMethod="pad" />
  <linearGradient
     x1="0"
     y1="0"
     x2="1"
     y2="0"
     id="linearGradient3000"
     xlink:href="#linearGradient664"
     gradientUnits="userSpaceOnUse"
     gradientTransform="matrix(459.54872,459.54872,-459.54872,459.54872,70.226448,24.06853)"
     spreadMethod="pad" />
  <path
     d="M 355.64956,253.81785 C 506.25238,202.01362 600,0 600,0 H 0 C 0,0 93.74762,202.01362 244.4012,253.81785 93.74762,305.62207 0,507.63569 0,507.63569 h 600 c 0,0 -93.74762,-202.01362 -244.35044,-253.81784"
     fill="#ffffff"
     id="path7" />
  <path
     d="M 317.2723,33.80854 V 233.5378 C 459.956,190.02073 539.56597,33.80854 539.56597,33.80854 v 0 z m -256.838271,0 c 0,0 79.622661,156.21219 222.293671,199.72926 v 0 V 33.80854 Z M 317.2723,473.87792 h 222.29367 c 0,0 -79.60997,-156.21219 -222.29367,-199.78003 v 0 z m -256.838271,0 H 282.7277 V 274.09789 C 140.05669,317.66573 60.434029,473.87792 60.434029,473.87792"
     style="fill:url(#linearGradient3000)"
     id="path8" />
</svg>
