<svg xmlns="http://www.w3.org/2000/svg" xmlns:xlink="http://www.w3.org/1999/xlink" width="941.44" height="1023.935" viewBox="0 0 941.44 1023.935"><filter id="b" width="1.112" height="1.129" x="-.056" y="-.065" color-interpolation-filters="sRGB"><feGaussianBlur stdDeviation="7.242"/></filter><filter id="i" width="1.26" height="1.231" x="-.13" y="-.116" color-interpolation-filters="sRGB"><feBlend in2="BackgroundImage" mode="color-burn"/><feGaussianBlur stdDeviation="40.079"/></filter><linearGradient id="a"><stop offset="0" stop-color="#d9eaf3"/><stop offset=".35" stop-color="#99aebc"/><stop offset=".5" stop-color="#fff" stop-opacity=".5"/><stop offset=".65" stop-color="#99aebc"/><stop offset="1" stop-color="#d9eaf3"/></linearGradient><linearGradient xlink:href="#a" id="c" x1="226.16" x2="372.4" y1="117.19" y2="117.17" gradientTransform="translate(988.68 1043.341)scale(-1.7308)" gradientUnits="userSpaceOnUse"/><linearGradient xlink:href="#a" id="d" x1="226.16" x2="372.4" y1="117.19" y2="117.17" gradientTransform="rotate(240 488.823 535.336)scale(1.7308)" gradientUnits="userSpaceOnUse"/><linearGradient xlink:href="#a" id="e" x1="226.16" x2="372.4" y1="117.19" y2="117.17" gradientTransform="rotate(-60 477.66 562.591)scale(1.7308)" gradientUnits="userSpaceOnUse"/><radialGradient id="g" cx="273.73" cy="284.31" r="213.83" gradientTransform="matrix(.71394 0 0 .7139 275.21 309.001)" gradientUnits="userSpaceOnUse"><stop offset="0" style="stop-stop-opacity:.6"/><stop offset=".75" stop-color="#536f78" stop-opacity=".6"/><stop offset="1" stop-color="#536e78" stop-opacity="0"/></radialGradient><path d="m381.83 19.941-97.64 169.14-195.32.05L0 343.021l97.632 169.03L0 681.251l88.87 153.88h195.32l97.64 169.06h177.73l97.64-169.17h195.32l88.87-153.93-97.58-168.93 97.63-169.19-88.87-153.89H657.25l-97.69-169.14Z"/><path fill="#fff" fill-opacity=".25" d="m393.05 377.511-77.56 134.46 77.56 134.47h155.23l77.61-134.47-77.61-134.41z" filter="url(#b)"/><path fill="url(#c)" d="M490.8 927.791c26.11-30.28 41-128.74 41-128.96l39.33 80.71 26.12-39.33-50.14-113.54 1.19-80.59-77.62-134.47-77.62 134.47 1.19 80.59-50.14 113.54 26.18 39.33 39.33-80.71s14.83 98.46 40.93 128.74h40.25Zm-40.25-831.57c-26.1 30.277-40.99 128.73-40.99 129.47l-39.32-80.7-26.13 39.32 50.14 113.54-1.19 80.6 77.62 134.46 77.62-134.46-1.19-80.6 50.14-113.54-26.18-39.32-39.32 80.7s-14.84-98.45-40.95-128.73c-.54-.03-40.25 0-40.25 0z" style="fill:url(#c)"/><path fill="url(#d)" d="M120.69 737.331c39.26 7.47 131.99-28.86 131.99-28.86l-50.23 74.41 47.11 2.96 73.26-100.19 70.4-39.26 77.63-134.46H315.59l-69.2 41.33L123 566.601l-20.97 42.34 89.55-6.3s-77.84 62.09-91.01 99.83c.24.48 20.12 34.85 20.12 34.85zm699.98-450.6c-39.27-7.47-131.98 28.86-131.98 28.86l50.22-74.41-47.11-2.6-73.26 100.2-70.39 39.27-77.65 134.45h155.27l69.19-41.33 123.4-13.34 20.97-42.33-89.56 6.29s77.86-62.08 91.02-99.82c-.24-.49-20.12-34.85-20.12-34.85z" style="fill:url(#d)"/><path fill="url(#e)" d="M100.57 321.531c13.17 37.74 90.98 99.86 90.98 99.86l-89.54-5.87 20.99 42.28 123.39 13.34 69.2 41.33h155.26l-77.63-134.44-70.4-39.27-73.26-100.2-47.14 3.01 50.23 74.41s-92.7-36.38-131.96-28.91c-.3.46-20.12 34.86-20.12 34.86zm740.22 380.95c-13.16-37.74-90.99-99.87-90.99-99.87l89.56 6.29-21-42.29-123.4-13.34-69.19-41.33H470.5l77.65 134.46 70.39 39.26 73.26 100.19 47.14-3.01-50.23-74.41s92.69 36.38 131.96 28.91c.3-.45 20.12-34.85 20.12-34.85z" style="fill:url(#e)"/><path fill="url(#g)" d="M450.54 96.205c-26.1 30.276-41 128.74-41 128.74l-39.3-80.71-26.14 39.32 50.14 113.52-1.19 80.44-70.26-39.15-73.23-100.23-47.16 3.02 50.24 74.43s-92.7-36.4-131.97-28.94c-.3.45-20.12 34.89-20.12 34.89 13.16 37.75 90.98 99.85 90.98 99.85l-89.52-6.28 20.99 42.25 123.36 13.36 69.13 41.26-69.13 41.26L123 566.605l-20.99 42.3 89.57-6.27s-77.87 62.1-91.03 99.83c.24.49 20.12 34.85 20.12 34.85 39.27 7.47 131.97-28.89 131.97-28.89l-50.19 74.42 47.11 2.98 73.23-100.23 70.26-39.15 1.19 80.43-50.14 113.52 26.19 39.33 39.32-80.71s14.83 98.46 40.93 128.73h40.25c26.1-30.27 41-128.73 41-128.73l39.32 80.71 26.12-39.33-50.14-113.52 1.19-80.43 70.2 39.15 73.3 100.23 47.12-3.03-50.2-74.42s92.65 36.41 131.91 28.94c.31-.45 20.13-34.85 20.13-34.85-13.18-37.73-90.97-99.9-90.97-99.9l89.56 6.34-20.99-42.3-123.42-13.37-69.03-41.26 69.03-41.21 123.42-13.36 20.94-42.3-89.51 6.28s77.79-62.05 90.97-99.8c-.25-.48-20.13-34.89-20.13-34.89-39.26-7.46-131.98 28.89-131.98 28.89l50.27-74.43-47.12-2.97-73.3 100.23-70.2 39.15-1.19-80.49 50.14-113.52-26.17-39.32-39.32 80.71s-14.85-98.46-40.95-128.74c-.54-.035-40.25 0-40.25 0" filter="url(#i)" style="fill:url(#g)"/></svg>