<?xml version="1.0" encoding="UTF-8"?><svg id="Layer_2" xmlns="http://www.w3.org/2000/svg" width="119.99469" height="132.91503" viewBox="0 0 119.99469 132.91503"><g id="Layer_2-2"><path d="M70.65595,26.24098c-2.40978,2.37007-5.30521,3.88967-8.72824,4.2248l-.01334,2.86569c4.97339.15834,9.98113.69461,14.88694,1.55072,2.11802.36961,7.25284,1.92834,8.92664,1.74687,4.44709-.48214,7.2737-7.49681,8.9524-10.96824,7.37206,6.18556,14.57758,16.65355,9.52394,26.44537,5.54044,10.41714,6.85404,22.71968,4.40197,34.19751,3.2971,3.01477,7.34343,4.8081,11.3837,6.59301.10453.35824-1.55148,2.41685-1.92153,2.85231-.76446.89959-1.72442,1.64333-2.50662,2.52957l-4.20493,3.22646,7.19849,6.58999c-13.49008,3.86717-23.68588,14.30826-36.31738,19.93493-12.45763,5.54922-25.96288,6.50182-38.99094,2.18291-15.12732-5.01483-26.38254-17.31019-41.57078-22.11811-.22166-.30452,1.03447-1.41491,1.313-1.68097,1.70249-1.62625,3.72336-3.02126,5.3912-4.68172.19791-.19703.34331-.21364.25375-.57978-3.50091-1.86184-6.65919-4.80148-8.6342-8.25857,4.02655-1.80077,8.12766-3.52952,11.38487-6.5901-.33849-2.27298-.8705-4.54537-1.06688-6.84529-.78844-9.23393,1.18449-19.14192,5.46154-27.36314-5.04366-9.82732,2.43611-20.11369,9.47697-26.6214.24052.32418.20198.2934.38952.5772.73002,1.1047,1.33421,3.39419,2.14841,4.8041,1.25495,2.17314,3.77923,5.48245,6.46883,5.77394,1.67408.18143,6.80843-1.37722,8.92664-1.74687,4.9058-.85611,9.91355-1.39237,14.88694-1.55072l-.01334-2.86569c-14.23779-1.70062-18.36705-20.64683-5.96875-28.1497,15.24395-9.22493,31.4572,11.24143,18.5612,23.9249v.00003ZM58.98186,5.8397c-12.58356,1.36971-10.61786,20.59236,2.30772,19.0774,12.14164-1.42308,10.24126-20.44335-2.30772-19.0774ZM101.27617,99.95279c1.2515-.35933,9.37572-4.49759,9.35474-5.15529-2.95461-2.01615-6.01621-3.96422-8.34151-6.73904,3.64076-12.13675,1.78967-25.62506-4.77491-36.39531-.00108-.40771,1.33614-1.80855,1.64698-2.35113,2.59523-4.53008.03376-10.17495-3.04587-13.81983-1.41109,1.56792-2.6412,3.25627-4.36069,4.5073-5.51713,4.01403-9.96921,1.42491-15.91361.3944-10.823-1.87626-20.66137-1.90706-31.49013-.03868-7.24074,1.24931-11.74316,4.18048-17.93092-1.89735-.41168-.40437-2.34909-2.96601-2.54464-2.96566-3.10152,3.70938-5.68342,9.35865-2.95675,13.97047.34354.58105,1.63077,1.76773,1.52445,2.33853-6.56763,10.67198-8.35396,24.18939-4.7228,36.23761-2.33043,2.78367-5.39755,4.73809-8.36022,6.75869,2.74957,2.34723,6.2062,3.585,9.35412,5.27101-1.90281,1.86019-4.25406,3.52875-6.12463,5.38691-.22772.22621-.80527.5766-.34902.83911,10.39699,5.15748,19.20875,13.12309,30.00242,17.49189,10.84399,4.38916,22.17767,4.68816,33.23702.85088,11.83447-4.10622,21.15816-12.81892,32.27025-18.34277.45626-.26253-.1213-.61288-.34902-.83911-1.89743-1.88506-4.30731-3.50445-6.12526-5.50263v-.00002ZM58.25819,79.88271c16.09329-2.32641,16.34579,28.52906,1.84539,28.70149-13.68582.16275-14.33751-26.89566-1.84539-28.70149ZM58.97195,83.47258c-4.18871.71317-6.26815,7.42171-6.17634,11.08041.08609,3.43114,2.3206,9.47375,6.17634,10.13189,5.65206.96477,8.33632-6.60158,8.22362-11.08041-.10753-4.27325-2.98607-11.02364-8.22361-10.1319ZM29.14643,84.60363c5.04631-.32808,11.02381,1.6561,15.37027,4.05905l1.79976-2.98261c.02551-.3168-.181-.40306-.38997-.55955-.80006-.59916-3.62385-1.62363-4.70578-2.01038-5.61432-2.00691-11.65199-3.01212-17.45913-1.12308l.97525,3.32172c1.4971.00325,2.91915-.60825,4.4096-.70515ZM78.4162,83.23567c-1.00509.37167-3.61244,1.33021-4.35143,1.88488-.95162.71426.85783,2.78284,1.40967,3.54171,5.75387-3.05962,12.98742-5.39557,19.44774-3.12189l1.30743-3.5533c-5.9089-1.91552-12.12418-.85523-17.8134,1.2486Z"/></g></svg>