<?xml version="1.0" encoding="UTF-8" standalone="no"?>
<svg
   version="1.1"
   width="600"
   height="236.28923"
   id="svg2"
   xmlns="http://www.w3.org/2000/svg"
   xmlns:svg="http://www.w3.org/2000/svg">
  <defs
     id="defs2" />
  <path
     d="m 146.75077,37.28308 c 0,0 -8.07692,18 -12.86769,28.67077 H 105.36 V 87.08308 C 89.815385,91.66154 0,118.08923 0,118.08923 l 52.107692,15.43385 c 0,0 37.707693,11.06769 53.252308,15.64615 v 21.16615 h 28.52308 c 4.79077,10.68 29.64,65.95385 29.64,65.95385 0,0 18.78461,-56.32615 22.64307,-67.86462 h 3.53539 c 5.65846,18.13847 19.93846,29.86154 29.20615,34.47693 l 23.11385,11.57538 v -45.50769 c 19.71692,-3.49846 30.53538,-13.44923 35.76923,-23.4 h 172.60615 c 5.04923,6.6 13.01539,11.42769 23.1877,11.42769 h 112.71692 l 4.79077,-6.37846 C 592.56923,148.63384 600,137.85231 600,120.07385 v -3.89539 c 0,-17.74154 -7.43077,-28.56 -8.90769,-30.53538 l -4.79077,-6.3877 H 473.58462 c -10.17231,0 -18.13847,4.83693 -23.1877,11.43693 H 277.79077 C 272.55692,80.76923 261.73846,70.81846 242.02154,67.28308 V 21.78461 L 218.90769,33.36 C 209.64,37.97538 195.36,49.72615 189.70154,67.86461 h -3.53539 C 182.30769,56.32615 163.52308,0 163.52308,0 Z"
     style="fill:#ffffff"
     id="path1" />
  <path
     d="m 584.03077,116.17846 c 0,-13.30154 -5.70462,-20.94461 -5.70462,-20.94461 H 473.58462 c -11.43693,0 -13.31077,11.42769 -13.31077,11.42769 H 266.03077 c 0,0 0,-24.77539 -39.98769,-24.77539 V 47.63077 c 0,0 -22.81846,11.43692 -22.81846,36.16615 h -28.56 L 161.32615,43.80923 144.19385,81.88615 H 121.33846 V 99.05538 L 56.612308,118.08923 V 118.2 l 64.726152,19.00615 v 17.16 h 22.85539 l 17.1323,38.07693 13.33847,-39.9877 h 28.56 c 0,24.73846 22.81846,36.16616 22.81846,36.16616 v -34.25539 c 39.98769,0 39.98769,-24.77538 39.98769,-24.77538 h 194.24308 c 0,0 1.87384,11.43692 13.31077,11.43692 h 104.74153 c 0,0 5.70462,-7.61538 5.70462,-20.95384 z"
     id="path2" />
</svg>
