<?xml version="1.0" encoding="UTF-8" standalone="no"?>
<svg
   version="1.1"
   width="600"
   height="236.28923"
   id="svg5"
   xmlns:xlink="http://www.w3.org/1999/xlink"
   xmlns="http://www.w3.org/2000/svg"
   xmlns:svg="http://www.w3.org/2000/svg">
  <defs
     id="defs5" />
  <radialGradient
     cx="0"
     cy="0"
     r="1"
     fx="0"
     fy="0"
     id="radialGradient348"
     gradientUnits="userSpaceOnUse"
     gradientTransform="matrix(20.170029,0,0,-20.170029,138.34473,370.13184)"
     spreadMethod="pad">
    <stop
       style="stop-color:#d9eaf3"
       offset="0"
       id="stop1" />
    <stop
       style="stop-color:#99aebc"
       offset="0.66291797"
       id="stop2" />
    <stop
       style="stop-color:#536e78"
       offset="1"
       id="stop3" />
  </radialGradient>
  <radialGradient
     cx="0"
     cy="0"
     r="1"
     fx="0"
     fy="0"
     id="radialGradient2995"
     xlink:href="#radialGradient348"
     gradientUnits="userSpaceOnUse"
     gradientTransform="matrix(20.170029,0,0,-20.170029,138.34473,370.13184)"
     spreadMethod="pad" />
  <radialGradient
     cx="0"
     cy="0"
     r="1"
     fx="0"
     fy="0"
     id="radialGradient2998"
     xlink:href="#radialGradient348"
     gradientUnits="userSpaceOnUse"
     gradientTransform="matrix(186.18488,0,0,186.18488,324.9575,118.13686)"
     spreadMethod="pad" />
  <path
     d="m 146.75077,37.28308 c 0,0 -8.07692,18 -12.86769,28.67077 H 105.36 V 87.08308 C 89.852308,91.66154 0,118.08923 0,118.08923 l 52.098462,15.43385 c 0,0 37.753846,11.06769 53.261538,15.64615 v 21.16615 h 28.52308 c 4.79077,10.68 29.66769,65.95385 29.66769,65.95385 0,0 18.75692,-56.32615 22.61538,-67.86462 h 3.52616 c 5.66769,18.13847 19.94769,29.86154 29.24307,34.47693 l 23.07693,11.57538 v -45.50769 c 19.76307,-3.49846 30.54461,-13.44923 35.76923,-23.4 h 172.61538 c 5.04,6.6 13.01539,11.42769 23.21539,11.42769 h 112.68 l 4.8,-6.37846 C 592.56923,148.63384 600,137.85231 600,120.07385 v -3.89539 c 0,-17.74154 -7.43077,-28.56 -8.90769,-30.53538 l -4.8,-6.3877 h -112.68 c -10.2,0 -18.17539,4.83693 -23.21539,11.43693 H 277.78154 C 272.55692,80.76923 261.77538,70.81846 242.01231,67.28308 V 21.78461 L 218.93538,33.36 C 209.64,37.97538 195.36,49.72615 189.69231,67.86461 h -3.52616 C 182.30769,56.32615 163.55077,0 163.55077,0 Z"
     style="fill:#ffffff"
     id="path3" />
  <path
     d="m 584.02154,116.17846 c 0,-13.30154 -5.69539,-20.94461 -5.69539,-20.94461 H 473.61231 c -11.46462,0 -13.33846,11.42769 -13.33846,11.42769 H 266.03077 c 0,0 0,-24.77539 -39.98769,-24.77539 V 47.63077 c 0,0 -22.8277,11.43692 -22.8277,36.16615 h -28.56 L 161.31692,43.80923 144.19385,81.88615 H 121.32923 V 99.05538 L 56.603077,118.08923 V 118.2 l 64.726153,19.00615 v 17.16 h 22.86462 l 17.12307,38.07693 13.33846,-39.9877 h 28.56 c 0,24.73846 22.8277,36.16616 22.8277,36.16616 v -34.25539 c 39.98769,0 39.98769,-24.77538 39.98769,-24.77538 h 194.24308 c 0,0 1.87384,11.43692 13.33846,11.43692 h 104.71384 c 0,0 5.69539,-7.61538 5.69539,-20.95384 z"
     style="fill:#536e78"
     id="path4" />
  <path
     d="m 147.54462,83.4 -0.96924,2.20615 h -2.38153 -19.14462 v 13.44923 2.77847 l -2.67692,0.79384 -52.781541,15.49846 52.781541,15.54462 2.67692,0.79384 v 2.77847 13.4123 h 19.14462 2.38153 l 0.96924,2.19693 13.26461,29.45538 10.32,-31.00615 0.85846,-2.55693 h 2.66769 28.56 3.72 v 3.71077 c 0,15.07385 9.25847,24.66462 15.42462,29.39077 v 0 -27.48 -3.71077 h 3.72 c 35.51077,0 36.26769,-20.23384 36.30462,-21.10154 v 0 l 0.0369,-3.63692 h 3.64615 194.20616 l 3.06461,0.0369 0.57231,3.02769 c 0.14769,0.8677 1.73538,8.36308 9.70154,8.36308 v 0 h 102.61846 c 1.44923,-2.66769 4.08,-8.61231 4.08,-17.27077 v 0 -3.89538 c 0,-8.61231 -2.63077,-14.60308 -4.08,-17.23385 v 0 H 473.61229 c -7.96616,0 -9.55385,7.50462 -9.70154,8.36308 v 0 l -0.57231,3.06461 h -3.06461 -194.20616 l -3.64615,-0.0369 -0.0369,-3.63692 C 262.34772,105.83077 261.59077,85.60615 226.08,85.60615 v 0 h -3.72 v -3.72 -27.47077 c -6.16615,4.72616 -15.42462,14.35385 -15.42462,29.38154 v 0 3.72 h -3.72 -28.56 -2.66769 l -0.85846,-2.56615 -10.32,-31.00616 z"
     style="fill:url(#radialGradient2998)"
     id="path5" />
</svg>
