<?xml version="1.0" encoding="UTF-8" standalone="no"?>
<svg
   version="1.1"
   width="527.41846"
   height="148.63385"
   id="svg1"
   xmlns="http://www.w3.org/2000/svg"
   xmlns:svg="http://www.w3.org/2000/svg">
  <defs
     id="defs1" />
  <path
     d="m 527.41846,72.36923 c 0,-13.30154 -5.70462,-20.94461 -5.70462,-20.94461 H 416.97231 c -11.43693,0 -13.31077,11.42769 -13.31077,11.42769 H 209.41846 c 0,0 0,-24.77539 -39.98769,-24.77539 V 3.82154 c 0,0 -22.81846,11.43692 -22.81846,36.16615 h -28.56 L 104.71384,0 87.581542,38.07692 H 64.726152 V 55.24615 L 0,74.28 v 0.11077 l 64.726152,19.00615 v 17.16 h 22.85539 l 17.132298,38.07693 13.33847,-39.9877 h 28.56 c 0,24.73846 22.81846,36.16616 22.81846,36.16616 v -34.25539 c 39.98769,0 39.98769,-24.77538 39.98769,-24.77538 h 194.24308 c 0,0 1.87384,11.43692 13.31077,11.43692 h 104.74153 c 0,0 5.70462,-7.61538 5.70462,-20.95384 z"
     id="path1" />
</svg>
