<svg xmlns="http://www.w3.org/2000/svg" width="517.223" height="500" viewBox="0 0 517.223 500"><path d="M175.718 0c-2.88 53.879-3.553 107.316-42.908 154.264C95.75 99.679 48.736 93.94 0 93.631c43.57 30.085 122.712 91.115 42.854 249.661 11.709 51.418 43.052 91.446 83.985 118.176 38.572 26.454 84.637 38.814 130.536 38.527h.74c45.954.276 92.086-12.107 130.69-38.638 40.856-26.73 72.133-66.713 83.831-118.065-79.869-158.546 1.016-219.576 44.587-249.66-48.736.308-97.472 6.047-134.52 60.632C343.357 107.316 342.662 53.879 339.771 0c-19.612 26.94-70.445 138.957-22.514 208.297 40.922 59.21 5.518 123.032-58.349 125.537l-1.17.055-1.147-.055c-63.867-2.505-99.282-66.328-58.36-125.537C246.162 138.957 195.33 26.94 175.718 0" style="stroke-width:11.0362"/></svg>