<?xml version="1.0" encoding="UTF-8" standalone="no"?>
<!-- Generator: Adobe Illustrator 15.1.0, SVG Export Plug-In . SVG Version: 6.00 Build 0)  -->

<svg
   version="1.1"
   id="Layer_1"
   x="0px"
   y="0px"
   width="330.18799"
   height="395.38"
   viewBox="0 0 330.18798 395.38"
   enable-background="new 0 0 375 460"
   xml:space="preserve"
   xmlns="http://www.w3.org/2000/svg"
   xmlns:svg="http://www.w3.org/2000/svg"><defs
   id="defs11">
	
	
</defs>
<path
   id="path2"
   d="M 126.598,0 C 116.408,6.022 94.538,21.339 67.207,33.619 39.871,45.898 19.273,51.52 15.162,54.312 11.052,57.105 11.649,58.82 12.264,64.424 16.912,106.69 18.395,137.82 0,152.55 c 0,0 16.418,25.54 49.771,47.04 0,0 4.199,46.93 -21.275,52.36 14.549,21.24 46.283,56.34 65.162,78.69 18.87,22.36 53.26,54.98 59.2,58.98 5.93,4 8.51,5.76 12.24,5.76 3.72,0 6.3,-1.76 12.24,-5.76 5.93,-4 40.32,-36.62 59.19,-58.98 18.88,-22.35 50.61,-57.45 65.16,-78.69 -25.47,-5.43 -21.27,-52.36 -21.27,-52.36 33.35,-21.5 49.77,-47.04 49.77,-47.04 -18.4,-14.73 -16.91,-45.86 -12.27,-88.126 0.62,-5.605 1.22,-7.319 -2.9,-10.112 -4.11,-2.792 -24.7,-8.413 -52.04,-20.693 -27.34,-12.28 -49.2,-27.598 -59.39,-33.619 8.39,26.156 0.98,41.473 -38.49,79.58 C 125.618,41.474 118.208,26.157 126.598,0 Z m -38.69,91.46 c 8.84,0 35.04,7.44 52.87,31.54 -20.1,9.73 -10.22,65.9 11.42,180.52 C 103.468,255.15 75.607,200.89 69.129,182.41 57.517,149.29 61.47,91.46 87.908,91.46 Z m 154.37,0 c 26.44,0 30.39,57.83 18.78,90.95 -6.48,18.48 -34.34,72.73 -83.06,121.1 21.63,-114.61 31.51,-170.78 11.41,-180.51 17.83,-24.1 44.03,-31.54 52.87,-31.54 z" />
</svg>
