<?xml version="1.0" encoding="UTF-8" standalone="no"?>
<svg
   width="980.69867pt"
   height="846pt"
   viewBox="-50 -50 1079.0636 946"
   version="1.1"
   id="svg6"
   xmlns="http://www.w3.org/2000/svg"
   xmlns:svg="http://www.w3.org/2000/svg">
  <defs
     id="defs6" />
  <path
     fill="#ffffff"
     d="m 108.84802,48.51 c 125.82,-0.05 251.64,0.03 377.46,-0.03 5.3,-0.72 10.65,-0.44 15.98,-0.48 122.46,0 244.92,0.01 367.38,0 1.39,6.49 3.73,12.73 5.66,19.07 5.95,18.48 11.07,37.21 16.14,55.94 12.18,43.45 22.29,87.47 30.95,131.76 1.65,9.2 2.95,18.47 4.74,27.65 2.38,15.02 4.67,30.06 6.52,45.16 0.29,3 0.48,6.02 1,8.99 0.28,3.01 0.48,6.03 1,9.01 0.29,3 0.47,6.02 1.01,9 0.4,3.99 0.35,8.05 1.04,12 0.39,5.66 0.31,11.39 1.01,17 0.12,14.94 0.12,29.9 0,44.84 -1.11,6.07 0.08,12.34 -0.61,18.47 -0.5,3.15 -0.26,6.35 -0.39,9.53 -1.05,3.3 0.17,6.86 -0.85,10.16 0.02,5.97 -0.91,11.88 -1.2,17.84 -0.59,2.34 -0.23,4.8 -0.79,7.16 -0.09,1.61 -0.11,3.22 -0.17,4.84 -0.62,2.96 -0.75,5.99 -1.05,9 -0.29,1.71 -0.47,3.44 -0.74,5.16 -0.26,3.01 -0.54,6.02 -1.03,9.01 -0.08,0.93 -0.15,1.87 -0.2,2.82 -7.55,51 -17.99,101.54 -29.7,151.73 -6.23,27.18 -13.58,54.1 -21.54,80.82 -3.97,14.13 -9.09,27.91 -13.06,42.04 -121.04,-0.01 -242.09,0.01 -363.13,-0.01 -7.3,0.83 -14.65,0.42 -21.98,0.51 -124.24,0.05 -248.48,-0.09 -372.72,0.07 -2.81,-8.39 -6.25,-16.56 -9.14,-24.92 C 75.018019,696.87 55.868019,618.82 46.108019,539.44 c -0.69,-4.6 -1.17,-9.22 -1.42,-13.86 -0.46,-2.03 -0.29,-4.14 -0.76,-6.16 -0.29,-3.67 -0.42,-7.37 -1,-11 -0.82,-10.18 -1.42,-20.36 -1.72,-30.56 -0.88,-5.89 0.07,-11.87 -0.87,-17.76 -0.07,-14.03 -0.02,-28.06 -0.03,-42.09 0.78,-5.78 0.36,-11.62 0.57,-17.43 1.19,-4.63 -0.32,-9.53 0.85,-14.16 0.02,-6.97 1.14,-13.87 1.16,-20.83 3.39,-40.87 8.59,-81.71 16.31,-122.02 0.05,-0.53 0.17,-1.59 0.22,-2.12 1.15,-4.58 1.63,-9.3 2.78,-13.88 0.05,-0.53 0.17,-1.6 0.22,-2.13 3.82,-18.26 7.45,-36.57 11.9,-54.69 5.85,-25.69 12.92,-51.09 20.14,-76.42 4.48,-15.38 9.650001,-30.53 14.390001,-45.82 m 52.64,54.96 c -7.99,18.96 -16.14,37.9 -22.33,57.55 -13.78,42 -24.07,85.09 -32,128.56 -2.73,13.51 -4.61,27.18 -6.49,40.83 -0.53,3.31 -0.730001,6.67 -0.980001,10.02 -1.73,13.27 -2.59,26.63 -2.94,40 -1.01,6.1 -0.16,12.39 -0.44,18.56 0.43,6.98 -1.16,13.92 -0.27,20.88 0.69,5.04 -0.11,10.15 0.47,15.19 0.65,4.76 0.08,9.58 0.38,14.36 0.65,4.94 0.83,9.99 1,15 0.94,2.98 -0.11,6.18 0.84,9.16 0.05,4.01 0.31,8.03 0.96,12 0.29,3.33 0.390001,6.7 1.030001,9.99 0.07,1.28 0.11,2.56 0.19,3.85 0.36,2.03 0.39,4.12 0.76,6.16 1.74,15.31 3.87,30.57 6.25,45.79 2.92,17.72 5.72,35.46 9.28,53.06 0.06,0.53 0.17,1.6 0.22,2.13 4.58,23.26 9.41,46.48 15.01,69.53 4.9,21.52 11.16,42.69 17.26,63.9 225.98,0.03 451.96,0 677.95,0.01 6.39,-20.73 13.19,-41.37 18.29,-62.48 7.24,-28.12 13.76,-56.44 18.53,-85.09 3.26,-18.2 6.24,-36.48 8.48,-54.84 1.13,-8.32 2.37,-16.63 2.99,-25.01 0.46,-2.03 0.29,-4.14 0.76,-6.16 0.51,-7.02 1.21,-14.03 2.04,-21 0.1,-7.3 1.05,-14.55 1.15,-21.84 1.12,-7.09 0.58,-14.36 1.41,-21.49 0.02,-13.04 1.32,-26.02 1,-39.08 0.78,-9.67 0.77,-19.42 0,-29.09 -0.22,-4.49 0.54,-9.08 -0.4,-13.5 -0.81,-14.03 -1.71,-28.12 -3.96,-42.02 -0.56,-5.63 -1.54,-11.2 -2.23,-16.81 -8.53,-51.01 -19.46,-101.7 -34.96,-151.07 -4.73,-15.57 -10.8,-30.68 -16.18,-46.03 -19.43,0.01 -38.87,0.03 -58.3,-0.01 -5.64,-0.75 -11.33,-0.42 -16.99,-0.48 -58.98,0 -117.96,0 -176.93,0 -7,-0.85 -14.06,-0.39 -21.09,-0.5 -129.92,-0.02 -259.84,0.04 -389.76,-0.03 z"
     id="path1" />
  <path
     fill="#ffffff"
     d="m 301.73802,176.51 c 64.53,-0.04 129.06,0.01 193.59,-0.02 8.12,0.81 16.28,0.29 24.4,1.1 38.13,3.1 76.27,13.77 108.49,34.86 18.25,11.6 34.25,26.5 48.04,43.11 25.18,32.02 40.9,70.9 47.88,110.88 0.17,1.06 0.37,2.11 0.58,3.17 0.05,0.44 0.14,1.32 0.18,1.76 1.22,7.7 2.09,15.47 2.82,23.21 0.53,13.13 1.86,26.3 0.57,39.44 0.36,6.49 -0.62,12.92 -0.55,19.41 -0.65,2.95 -0.74,5.99 -1.07,8.99 -0.43,2.03 -0.31,4.12 -0.72,6.16 -0.28,3.01 -0.54,6.03 -1.04,9.02 -0.05,0.45 -0.14,1.33 -0.19,1.78 -0.21,1.05 -0.41,2.11 -0.58,3.18 -1.99,9.22 -3.11,18.65 -5.97,27.67 -2.28,7.54 -3.97,15.3 -7.07,22.57 -3.24,7.69 -5.79,15.71 -10.02,22.94 -2.82,4.76 -4.73,10.01 -7.84,14.61 -4.17,6.27 -8.29,12.59 -12.8,18.62 -6.07,7 -11.77,14.33 -18.51,20.7 -18.18,17.43 -39.72,31.35 -63.09,40.72 -19.83,8.24 -40.91,13.1 -62.13,16.02 -0.93,0.06 -1.86,0.12 -2.78,0.19 -2.06,0.36 -4.16,0.36 -6.2,0.78 -8.94,0.72 -17.87,1.29 -26.84,1.2 -1.14,0.32 -2.3,0.47 -3.49,0.44 -65.19,-0.05 -130.38,-0.01 -195.57,-0.02 -0.02,-0.7 -0.06,-2.1 -0.08,-2.81 13.09,-7.98 26.19,-15.97 39.47,-23.62 0.22,-127.69 0.02,-255.39 0.1,-383.08 28.85,0.01 57.71,0.01 86.56,0 -0.06,-0.78 -0.19,-2.35 -0.25,-3.14 -42.04,-25.31 -83.66,-51.31 -125.65,-76.71 -0.06,-0.78 -0.18,-2.35 -0.24,-3.13 m 145.07,45.99 c 0,133.5 0,267 0,400.5 20.65,-0.15 41.33,0.43 61.94,-0.57 2.31,-0.51 4.68,-0.73 6.99,-1.27 14.36,-1.97 28.17,-7.47 40.04,-15.78 14.48,-10.34 25.93,-24.72 33.29,-40.88 10.89,-22.94 16.02,-48.08 19.63,-73.07 0.54,-8.3 2.05,-16.53 2.19,-24.86 0.67,-5.6 0.83,-11.32 0.99,-16.99 1.22,-8.82 -0.34,-17.86 0.86,-26.72 -0.94,-8.62 -0.1,-17.31 -0.53,-25.94 -0.48,-3.1 -0.41,-6.23 -0.47,-9.34 -0.88,-7.32 -0.61,-14.83 -1.81,-22.16 -0.69,-10.57 -2.51,-21.01 -4.07,-31.48 -3.83,-19.93 -8.98,-39.89 -18.58,-57.9 -7.72,-14.77 -18.6,-28.17 -32.69,-37.25 -14.2,-9.7 -31.27,-14.27 -48.24,-15.77 -19.82,-0.97 -39.69,-0.35 -59.54,-0.52 z"
     id="path2" />
  <path
     stroke="#ffffff"
     stroke-width="100"
     d="M 74.478019,0 H 904.59802 c 6.38,19.67 12.93,39.28 19.07,59.02 12.17,40.14 22.53,80.81 32.07,121.64 8.73,39.66 16.93,79.47 23.01,119.62 4.68,29.03 7.21,58.35 8.58,87.7 -0.03,7.69 -0.01,15.38 -0.04,23.07 -0.05,1.54 0.29,3 0.32,4.38 l -0.3,1.84 c -0.94,2.86 0.32,6.53 0,9.75 -0.49,51.33 -6.96,102.49 -16.49,152.91 -12.23,67.81 -28.59,134.83 -47.9,200.96 -6.42,21.81 -13.7,43.35 -20.27,65.11 H 76.618019 c -6.86,-18.01 -14.16,-35.87 -20.43,-54.1 -26.67,-78.54 -45.61,-159.66 -57.2399999,-241.76 -1.42,-12.09 -2.6,-24.2 -3.96,-36.3 -1,-12.37 -1.57,-24.78 -2.47,-37.16 -0.55,-5.26 0.16,-10.56 -0.48,-15.81 -0.8,-8.42 0.5,-16.94 -0.73,-25.32 v -3.02 c 1.14,-6.02 -0.02,-12.17 0.81,-18.22 1.57,-72.74 12.47,-144.98 27.1899999,-216.14 8.67,-42.85 19.83,-85.16 31.99,-127.13 7.07,-23.89 15.21,-47.45 23.18,-71.04 m 34.370001,48.51 c -4.74,15.29 -9.910001,30.44 -14.390001,45.82 -7.22,25.33 -14.29,50.73 -20.14,76.42 -4.45,18.12 -8.08,36.43 -11.9,54.69 -0.05,0.53 -0.17,1.6 -0.22,2.13 -1.15,4.58 -1.63,9.3 -2.78,13.88 -0.05,0.53 -0.17,1.59 -0.22,2.12 -7.72,40.31 -12.92,81.15 -16.31,122.02 -0.02,6.96 -1.14,13.86 -1.16,20.83 -1.17,4.63 0.34,9.53 -0.85,14.16 -0.21,5.81 0.21,11.65 -0.57,17.43 0.01,14.03 -0.04,28.06 0.03,42.09 0.94,5.89 -0.01,11.87 0.87,17.76 0.3,10.2 0.9,20.38 1.72,30.56 0.58,3.63 0.71,7.33 1,11 0.47,2.02 0.3,4.13 0.76,6.16 0.25,4.64 0.73,9.26 1.42,13.86 9.76,79.38 28.91,157.43 54.330001,233.21 2.89,8.36 6.33,16.53 9.14,24.92 124.24,-0.16 248.48,-0.02 372.72,-0.07 7.33,-0.09 14.68,0.32 21.98,-0.51 121.04,0.02 242.09,0 363.13,0.01 3.97,-14.13 9.09,-27.91 13.06,-42.04 7.96,-26.72 15.31,-53.64 21.54,-80.82 11.71,-50.19 22.15,-100.73 29.7,-151.73 0.05,-0.95 0.12,-1.89 0.2,-2.82 0.49,-2.99 0.77,-6 1.03,-9.01 0.27,-1.72 0.45,-3.45 0.74,-5.16 0.3,-3.01 0.43,-6.04 1.05,-9 0.06,-1.62 0.08,-3.23 0.17,-4.84 0.56,-2.36 0.2,-4.82 0.79,-7.16 0.29,-5.96 1.22,-11.87 1.2,-17.84 1.02,-3.3 -0.2,-6.86 0.85,-10.16 0.13,-3.18 -0.11,-6.38 0.39,-9.53 0.69,-6.13 -0.5,-12.4 0.61,-18.47 0.12,-14.94 0.12,-29.9 0,-44.84 -0.7,-5.61 -0.62,-11.34 -1.01,-17 -0.69,-3.95 -0.64,-8.01 -1.04,-12 -0.54,-2.98 -0.72,-6 -1.01,-9 -0.52,-2.98 -0.72,-6 -1,-9.01 -0.52,-2.97 -0.71,-5.99 -1,-8.99 -1.85,-15.1 -4.14,-30.14 -6.52,-45.16 -1.79,-9.18 -3.09,-18.45 -4.74,-27.65 -8.66,-44.29 -18.77,-88.31 -30.95,-131.76 -5.07,-18.73 -10.19,-37.46 -16.14,-55.94 -1.93,-6.34 -4.27,-12.58 -5.66,-19.07 -122.46,0.01 -244.92,0 -367.38,0 -5.33,0.04 -10.68,-0.24 -15.98,0.48 -125.82,0.06 -251.64,-0.02 -377.46,0.03 z"
     id="path3" />
  <path
     d="M 74.478019,0 H 904.59802 c 6.38,19.67 12.93,39.28 19.07,59.02 12.17,40.14 22.53,80.81 32.07,121.64 8.73,39.66 16.93,79.47 23.01,119.62 4.68,29.03 7.21,58.35 8.58,87.7 -0.03,7.69 -0.01,15.38 -0.04,23.07 -0.05,1.54 0.29,3 0.32,4.38 l -0.3,1.84 c -0.94,2.86 0.32,6.53 0,9.75 -0.49,51.33 -6.96,102.49 -16.49,152.91 -12.23,67.81 -28.59,134.83 -47.9,200.96 -6.42,21.81 -13.7,43.35 -20.27,65.11 H 76.618019 c -6.86,-18.01 -14.16,-35.87 -20.43,-54.1 -26.67,-78.54 -45.61,-159.66 -57.2399999,-241.76 -1.42,-12.09 -2.6,-24.2 -3.96,-36.3 -1,-12.37 -1.57,-24.78 -2.47,-37.16 -0.55,-5.26 0.16,-10.56 -0.48,-15.81 -0.8,-8.42 0.5,-16.94 -0.73,-25.32 v -3.02 c 1.14,-6.02 -0.02,-12.17 0.81,-18.22 1.57,-72.74 12.47,-144.98 27.1899999,-216.14 8.67,-42.85 19.83,-85.16 31.99,-127.13 7.07,-23.89 15.21,-47.45 23.18,-71.04 m 34.370001,48.51 c -4.74,15.29 -9.910001,30.44 -14.390001,45.82 -7.22,25.33 -14.29,50.73 -20.14,76.42 -4.45,18.12 -8.08,36.43 -11.9,54.69 -0.05,0.53 -0.17,1.6 -0.22,2.13 -1.15,4.58 -1.63,9.3 -2.78,13.88 -0.05,0.53 -0.17,1.59 -0.22,2.12 -7.72,40.31 -12.92,81.15 -16.31,122.02 -0.02,6.96 -1.14,13.86 -1.16,20.83 -1.17,4.63 0.34,9.53 -0.85,14.16 -0.21,5.81 0.21,11.65 -0.57,17.43 0.01,14.03 -0.04,28.06 0.03,42.09 0.94,5.89 -0.01,11.87 0.87,17.76 0.3,10.2 0.9,20.38 1.72,30.56 0.58,3.63 0.71,7.33 1,11 0.47,2.02 0.3,4.13 0.76,6.16 0.25,4.64 0.73,9.26 1.42,13.86 9.76,79.38 28.91,157.43 54.330001,233.21 2.89,8.36 6.33,16.53 9.14,24.92 124.24,-0.16 248.48,-0.02 372.72,-0.07 7.33,-0.09 14.68,0.32 21.98,-0.51 121.04,0.02 242.09,0 363.13,0.01 3.97,-14.13 9.09,-27.91 13.06,-42.04 7.96,-26.72 15.31,-53.64 21.54,-80.82 11.71,-50.19 22.15,-100.73 29.7,-151.73 0.05,-0.95 0.12,-1.89 0.2,-2.82 0.49,-2.99 0.77,-6 1.03,-9.01 0.27,-1.72 0.45,-3.45 0.74,-5.16 0.3,-3.01 0.43,-6.04 1.05,-9 0.06,-1.62 0.08,-3.23 0.17,-4.84 0.56,-2.36 0.2,-4.82 0.79,-7.16 0.29,-5.96 1.22,-11.87 1.2,-17.84 1.02,-3.3 -0.2,-6.86 0.85,-10.16 0.13,-3.18 -0.11,-6.38 0.39,-9.53 0.69,-6.13 -0.5,-12.4 0.61,-18.47 0.12,-14.94 0.12,-29.9 0,-44.84 -0.7,-5.61 -0.62,-11.34 -1.01,-17 -0.69,-3.95 -0.64,-8.01 -1.04,-12 -0.54,-2.98 -0.72,-6 -1.01,-9 -0.52,-2.98 -0.72,-6 -1,-9.01 -0.52,-2.97 -0.71,-5.99 -1,-8.99 -1.85,-15.1 -4.14,-30.14 -6.52,-45.16 -1.79,-9.18 -3.09,-18.45 -4.74,-27.65 -8.66,-44.29 -18.77,-88.31 -30.95,-131.76 -5.07,-18.73 -10.19,-37.46 -16.14,-55.94 -1.93,-6.34 -4.27,-12.58 -5.66,-19.07 -122.46,0.01 -244.92,0 -367.38,0 -5.33,0.04 -10.68,-0.24 -15.98,0.48 -125.82,0.06 -251.64,-0.02 -377.46,0.03 z"
     id="path4" />
  <path
     d="m 161.48802,103.47 c 129.92,0.07 259.84,0.01 389.76,0.03 7.03,0.11 14.09,-0.35 21.09,0.5 58.97,0 117.95,0 176.93,0 5.66,0.06 11.35,-0.27 16.99,0.48 19.43,0.04 38.87,0.02 58.3,0.01 5.38,15.35 11.45,30.46 16.18,46.03 15.5,49.37 26.43,100.06 34.96,151.07 0.69,5.61 1.67,11.18 2.23,16.81 2.25,13.9 3.15,27.99 3.96,42.02 0.94,4.42 0.18,9.01 0.4,13.5 0.77,9.67 0.78,19.42 0,29.09 0.32,13.06 -0.98,26.04 -1,39.08 -0.83,7.13 -0.29,14.4 -1.41,21.49 -0.1,7.29 -1.05,14.54 -1.15,21.84 -0.83,6.97 -1.53,13.98 -2.04,21 -0.47,2.02 -0.3,4.13 -0.76,6.16 -0.62,8.38 -1.86,16.69 -2.99,25.01 -2.24,18.36 -5.22,36.64 -8.48,54.84 -4.77,28.65 -11.29,56.97 -18.53,85.09 -5.1,21.11 -11.9,41.75 -18.29,62.48 -225.99,-0.01 -451.97,0.02 -677.95,-0.01 -6.1,-21.21 -12.36,-42.38 -17.26,-63.9 -5.6,-23.05 -10.43,-46.27 -15.01,-69.53 -0.05,-0.53 -0.16,-1.6 -0.22,-2.13 -3.56,-17.6 -6.36,-35.34 -9.28,-53.06 -2.38,-15.22 -4.51,-30.48 -6.25,-45.79 -0.37,-2.04 -0.4,-4.13 -0.76,-6.16 -0.08,-1.29 -0.12,-2.57 -0.19,-3.85 -0.64,-3.29 -0.740001,-6.66 -1.030001,-9.99 -0.65,-3.97 -0.91,-7.99 -0.96,-12 -0.95,-2.98 0.1,-6.18 -0.84,-9.16 -0.17,-5.01 -0.35,-10.06 -1,-15 -0.3,-4.78 0.27,-9.6 -0.38,-14.36 -0.58,-5.04 0.22,-10.15 -0.47,-15.19 -0.89,-6.96 0.7,-13.9 0.27,-20.88 0.28,-6.17 -0.57,-12.46 0.44,-18.56 0.35,-13.37 1.21,-26.73 2.94,-40 0.25,-3.35 0.450001,-6.71 0.980001,-10.02 1.88,-13.65 3.76,-27.32 6.49,-40.83 7.93,-43.47 18.22,-86.56 32,-128.56 6.19,-19.65 14.34,-38.59 22.33,-57.55 m 140.25,73.04 c 0.06,0.78 0.18,2.35 0.24,3.13 41.99,25.4 83.61,51.4 125.65,76.71 0.06,0.79 0.19,2.36 0.25,3.14 -28.85,0.01 -57.71,0.01 -86.56,0 -0.08,127.69 0.12,255.39 -0.1,383.08 -13.28,7.65 -26.38,15.64 -39.47,23.62 0.02,0.71 0.06,2.11 0.08,2.81 65.19,0.01 130.38,-0.03 195.57,0.02 1.19,0.03 2.35,-0.12 3.49,-0.44 8.97,0.09 17.9,-0.48 26.84,-1.2 2.04,-0.42 4.14,-0.42 6.2,-0.78 0.92,-0.07 1.85,-0.13 2.78,-0.19 21.22,-2.92 42.3,-7.78 62.13,-16.02 23.37,-9.37 44.91,-23.29 63.09,-40.72 6.74,-6.37 12.44,-13.7 18.51,-20.7 4.51,-6.03 8.63,-12.35 12.8,-18.62 3.11,-4.6 5.02,-9.85 7.84,-14.61 4.23,-7.23 6.78,-15.25 10.02,-22.94 3.1,-7.27 4.79,-15.03 7.07,-22.57 2.86,-9.02 3.98,-18.45 5.97,-27.67 0.17,-1.07 0.37,-2.13 0.58,-3.18 0.05,-0.45 0.14,-1.33 0.19,-1.78 0.5,-2.99 0.76,-6.01 1.04,-9.02 0.41,-2.04 0.29,-4.13 0.72,-6.16 0.33,-3 0.42,-6.04 1.07,-8.99 -0.07,-6.49 0.91,-12.92 0.55,-19.41 1.29,-13.14 -0.04,-26.31 -0.57,-39.44 -0.73,-7.74 -1.6,-15.51 -2.82,-23.21 -0.04,-0.44 -0.13,-1.32 -0.18,-1.76 -0.21,-1.06 -0.41,-2.11 -0.58,-3.17 -6.98,-39.98 -22.7,-78.86 -47.88,-110.88 -13.79,-16.61 -29.79,-31.51 -48.04,-43.11 -32.22,-21.09 -70.36,-31.76 -108.49,-34.86 -8.12,-0.81 -16.28,-0.29 -24.4,-1.1 -64.53,0.03 -129.06,-0.02 -193.59,0.02 z"
     id="path5" />
  <path
     d="m 446.80802,222.5 c 19.85,0.17 39.72,-0.45 59.54,0.52 16.97,1.5 34.04,6.07 48.24,15.77 14.09,9.08 24.97,22.48 32.69,37.25 9.6,18.01 14.75,37.97 18.58,57.9 1.56,10.47 3.38,20.91 4.07,31.48 1.2,7.33 0.93,14.84 1.81,22.16 0.06,3.11 -0.01,6.24 0.47,9.34 0.43,8.63 -0.41,17.32 0.53,25.94 -1.2,8.86 0.36,17.9 -0.86,26.72 -0.16,5.67 -0.32,11.39 -0.99,16.99 -0.14,8.33 -1.65,16.56 -2.19,24.86 -3.61,24.99 -8.74,50.13 -19.63,73.07 -7.36,16.16 -18.81,30.54 -33.29,40.88 -11.87,8.31 -25.68,13.81 -40.04,15.78 -2.31,0.54 -4.68,0.76 -6.99,1.27 -20.61,1 -41.29,0.42 -61.94,0.57 0,-133.5 0,-267 0,-400.5 z"
     id="path6" />
</svg>
