<?xml version="1.0" encoding="UTF-8" standalone="no"?>
<svg
   version="1.1"
   id="Layer_1"
   x="0px"
   y="0px"
   width="58.786999"
   height="50.000313"
   xmlns:xlink="http://www.w3.org/1999/xlink"
   xmlns="http://www.w3.org/2000/svg"
   xmlns:svg="http://www.w3.org/2000/svg">
  <defs
     id="defs7">
    <radialGradient
       xlink:href="#SVGID_8_"
       id="radialGradient7"
       gradientUnits="userSpaceOnUse"
       gradientTransform="matrix(17.571,0,0,-17.571,-2267.8333,3230.4902)"
       cx="130.7402"
       cy="182.4277"
       r="1.2499" />
    <radialGradient
       xlink:href="#SVGID_8_"
       id="radialGradient8"
       gradientUnits="userSpaceOnUse"
       gradientTransform="matrix(17.571,0,0,-17.571,-2267.8333,3230.4902)"
       cx="130.7402"
       cy="182.4277"
       r="1.2499" />
  </defs>
  <path
     d="M 41.089,0 H 17.595 l -0.113,0.013 c -1.584,0.171 -3.78,1.314 -4.513,3.713 -1.992,0.558 -9.5,2.65 -9.5,2.65 L 3.375,6.412 C 2.082,6.906 0,8.578 0,11.635 c 0,0.547 0.066,1.14 0.217,1.776 l 8.963,33.454 0.246,0.331 c 1.013,1.352 3.481,3.426 6.297,2.621 0,0 12.636,-3.477 13.677,-3.762 1.043,0.285 13.695,3.767 13.695,3.767 2.797,0.8 5.263,-1.273 6.276,-2.626 l 0.249,-0.328 8.943,-33.396 c 0.155,-0.654 0.224,-1.261 0.224,-1.82 0,-3.08 -2.075,-4.746 -3.364,-5.24 L 55.329,6.376 c 0,0 -7.507,-2.093 -9.501,-2.65 C 45.096,1.328 42.898,0.184 41.315,0.012 L 41.201,0 Z"
     id="path1" />
  <path
     fill="url(#SVGID_8_)"
     d="m 17.707,2.131 c 0,0 -2.878,0.309 -2.878,3.289 L 4.141,8.4 c 0,0 -2.674,1.027 -1.852,4.523 l 8.841,32.994 c 0,0 1.851,2.469 4.008,1.851 L 29.4,43.847 43.66,47.769 c 2.155,0.618 4.006,-1.851 4.006,-1.851 L 56.51,12.924 C 57.33,9.428 54.659,8.4 54.659,8.4 L 43.968,5.42 c 0,-2.98 -2.879,-3.289 -2.879,-3.289 z"
     id="path2"
     style="fill:url(#radialGradient7)" />
  <path
     d="M 17.803,3.362 C 17.668,3.387 17.256,3.48 16.867,3.739 16.318,4.106 16.063,4.638 16.063,5.42 v 0.937 c 0,0 -11.345,3.164 -11.509,3.208 -0.297,0.139 -1.188,0.674 -1.188,2.095 0,0.288 0.035,0.61 0.122,0.974 0.017,0.059 8.621,32.186 8.763,32.703 0.379,0.427 1.495,1.547 2.548,1.248 l 14.6,-4.021 14.6,4.021 c 1.053,0.299 2.167,-0.821 2.549,-1.248 0.139,-0.518 8.748,-32.645 8.763,-32.703 0.083,-0.363 0.121,-0.686 0.121,-0.974 0,-1.421 -0.892,-1.956 -1.188,-2.095 C 54.08,9.521 42.734,6.357 42.734,6.357 V 5.42 C 42.734,4.639 42.478,4.107 41.932,3.739 41.542,3.48 41.13,3.387 40.995,3.362 Z"
     id="path3" />
  <path
     fill="url(#SVGID_8_)"
     d="m 17.939,4.905 h 22.957 c 0.48,0 0.547,0.616 0.547,0.616 v 34.128 c 0,0.549 -0.547,0.684 -0.547,0.684 H 17.939 c -0.481,0 -0.481,-0.684 -0.481,-0.684 V 5.521 c 0,-0.411 0.481,-0.616 0.481,-0.616 M 5.397,10.868 C 4.574,11.14 4.918,12.17 4.918,12.17 l 8.771,32.55 c 0.345,0.752 1.03,0.411 1.03,0.411 l 11.925,-3.289 h -8.909 c -1.648,0 -1.919,-2.057 -1.919,-2.057 V 8.059 Z m 37.586,-2.88 v 31.729 c 0,0 -0.275,2.056 -1.921,2.056 h -8.906 l 11.921,3.29 c 0,0 0.687,0.343 1.029,-0.411 L 53.88,12.1 c 0,0 0.341,-1.028 -0.48,-1.301 z"
     id="path4"
     style="fill:url(#radialGradient8)" />
  <radialGradient
     id="SVGID_8_"
     cx="130.7402"
     cy="182.4277"
     r="1.2499"
     gradientTransform="matrix(17.571,0,0,-17.571,-2267.8333,3230.4902)"
     gradientUnits="userSpaceOnUse">
    <stop
       style="stop-color:#f6b91d"
       offset="0"
       id="stop4" />
    <stop
       style="stop-color:#d3641c"
       offset="0.7"
       id="stop5" />
    <stop
       style="stop-color:#bf331c"
       offset="1"
       id="stop6" />
  </radialGradient>
  <path
     fill="#bf331c"
     d="m 25.332,10.011 c -1.519,1.161 -2.153,2.587 -2.887,4.239 l -0.327,0.738 1.938,0.85 0.371,-0.574 c 0.617,-0.957 1.766,-2.738 4.253,-2.738 2.119,0 2.874,1.484 2.874,2.874 0,2.202 -1.768,3.808 -2.811,4.41 -0.76,0.413 -1.604,0.69 -2.399,0.927 l -0.726,0.215 0.417,1.799 0.613,0.024 c 1.711,0.069 3.188,0.128 4.738,1.392 1.238,0.983 1.81,2.18 1.81,3.771 0,3.217 -2.591,5.553 -6.16,5.553 -2.212,0 -3.682,-0.848 -4.561,-1.355 l -0.63,-0.366 -1.215,1.692 0.56,0.48 c 0.965,0.828 3.228,2.764 7.134,2.764 5.445,0 9.552,-3.968 9.552,-9.232 0,-3.947 -2.521,-6.089 -3.296,-6.651 -0.393,-0.27 -0.806,-0.497 -1.223,-0.702 0.914,-0.72 1.794,-1.647 2.334,-3.206 0.266,-0.756 0.4,-1.555 0.4,-2.37 0,-3.392 -2.757,-5.947 -6.411,-5.947 -1.645,-0.003 -3.149,0.488 -4.348,1.413"
     id="path6" />
  <path
     d="m 28.323,36.205 c -3.718,0 -5.88,-1.854 -6.804,-2.645 l -0.212,-0.184 0.68,-0.95 0.241,0.139 c 0.856,0.496 2.452,1.424 4.811,1.424 3.858,0 6.657,-2.544 6.657,-6.053 0,-1.756 -0.637,-3.078 -2.002,-4.161 -1.67,-1.367 -3.3,-1.434 -5.024,-1.501 l -0.234,-0.007 -0.222,-0.971 0.271,-0.08 c 0.83,-0.247 1.706,-0.535 2.497,-0.97 1.145,-0.659 3.068,-2.414 3.068,-4.849 0,-1.557 -0.881,-3.375 -3.371,-3.375 -2.749,0 -4.046,2 -4.668,2.96 l -0.145,0.226 -1.091,-0.475 0.127,-0.282 c 0.704,-1.587 1.313,-2.958 2.732,-4.044 1.112,-0.861 2.512,-1.314 4.045,-1.314 3.371,0 5.911,2.344 5.911,5.449 0,0.756 -0.125,1.496 -0.373,2.203 -0.533,1.549 -1.44,2.406 -2.171,2.979 l -0.621,0.491 0.713,0.353 c 0.462,0.229 0.831,0.438 1.156,0.664 0.715,0.52 3.082,2.522 3.082,6.241 0.002,4.977 -3.892,8.732 -9.053,8.732"
     id="path7" />
</svg>
