<?xml version="1.0" encoding="UTF-8" standalone="no"?>
<svg
   version="1.1"
   width="600"
   height="927.82312"
   id="svg7"
   xmlns:xlink="http://www.w3.org/1999/xlink"
   xmlns="http://www.w3.org/2000/svg"
   xmlns:svg="http://www.w3.org/2000/svg">
  <defs
     id="defs7" />
  <linearGradient
     x1="0"
     y1="0"
     x2="1"
     y2="0"
     id="linearGradient510"
     gradientUnits="userSpaceOnUse"
     gradientTransform="matrix(22.892578,0,0,-22.892578,747.27344,371.94775)"
     spreadMethod="pad">
    <stop
       style="stop-color:#bf331c"
       offset="0"
       id="stop1" />
    <stop
       style="stop-color:#d3641c"
       offset="0.39999399"
       id="stop2" />
    <stop
       style="stop-color:#f6b91d"
       offset="0.5"
       id="stop3" />
    <stop
       style="stop-color:#d3641c"
       offset="0.69999701"
       id="stop4" />
    <stop
       style="stop-color:#bf331c"
       offset="1"
       id="stop5" />
  </linearGradient>
  <linearGradient
     x1="0"
     y1="0"
     x2="1"
     y2="0"
     id="linearGradient2997"
     xlink:href="#linearGradient510"
     gradientUnits="userSpaceOnUse"
     gradientTransform="matrix(22.892578,0,0,-22.892578,747.27344,371.94775)"
     spreadMethod="pad" />
  <linearGradient
     x1="0"
     y1="0"
     x2="1"
     y2="0"
     id="linearGradient3000"
     xlink:href="#linearGradient510"
     gradientUnits="userSpaceOnUse"
     gradientTransform="matrix(531.00656,0,0,531.00656,34.525225,463.94054)"
     spreadMethod="pad" />
  <path
     d="M 222.44559,927.8231 V 714.51657 C 165.26849,701.20231 113.44957,673.29803 74.10987,634.16709 26.373371,586.68574 0,525.61179 0,462.19508 0,398.84796 26.373371,337.774 74.10987,290.29266 c 39.3397,-39.13094 91.15862,-67.12801 148.33572,-80.44227 V 133.46736 L 377.55441,0 v 209.85039 c 57.1771,13.31426 109.112,41.31133 148.4285,80.44227 C 573.74261,337.774 600,398.84796 600,462.19508 c 0,63.41671 -26.25739,124.49066 -74.01709,171.97201 -39.3165,39.13094 -91.2514,67.03522 -148.4285,80.34948 v 79.93196 z"
     style="fill:#ffffff"
     id="path5" />
  <path
     d="M 233.67225,903.25898 V 705.4703 C 102.66363,679.09692 11.319442,579.51831 11.319442,462.19508 c 0,-117.25364 91.344188,-216.83226 222.352808,-243.20563 V 138.61678 L 366.42054,24.54093 v 194.44852 c 131.00862,26.37337 222.26002,125.95199 222.26002,243.20563 0,117.32323 -91.2514,216.90184 -222.26002,243.27522 v 83.80562 z"
     id="path6" />
  <path
     d="m 256.86782,149.30994 v 89.25658 C 130.75347,256.14877 34.515019,349.55736 34.515019,462.19508 v 0 c 0,112.70731 96.238451,206.1159 222.352801,223.69815 v 0 166.79939 l 86.26436,-74.10987 v -92.68952 c 126.13755,-17.58225 222.3528,-110.99084 222.3528,-223.69815 v 0 c 0,-112.63772 -96.21525,-206.04631 -222.3528,-223.62856 v 0 -163.36645 z m 86.26436,195.0748 c 59.79819,15.49465 103.2899,62.4425 103.2899,117.81034 v 0 c 0,55.43743 -43.49171,102.38528 -103.2899,117.87992 v 0 z M 153.57792,462.19508 c 0,-55.36784 43.49171,-102.31569 103.2899,-117.81034 v 0 V 580.075 C 197.06963,564.58036 153.57792,517.63251 153.57792,462.19508"
     style="fill:url(#linearGradient3000)"
     id="path7" />
</svg>
