<svg xmlns="http://www.w3.org/2000/svg" xmlns:xlink="http://www.w3.org/1999/xlink" width="943.92" height="947.548"><defs><linearGradient id="a"><stop offset="0" style="stop-color:#612c75;stop-opacity:1"/><stop offset=".1" style="stop-color:#7b5190;stop-opacity:1"/><stop offset=".5" style="stop-color:#bf99c3;stop-opacity:1"/><stop offset=".9" style="stop-color:#7b5190;stop-opacity:1"/><stop offset="1" style="stop-color:#612c75;stop-opacity:1"/></linearGradient><linearGradient xlink:href="#a" id="b" x1="53.126" x2="890.15" y1="481.73" y2="481.73" gradientTransform="translate(-.05 -22.593)" gradientUnits="userSpaceOnUse"/></defs><path d="M83.609.008C68.886.098 52.742.816 34.881 2.24v50.932S11.43 50.374 0 50.734v750.254l413.15 146.56h117.62l413.15-146.56V50.734c-11.43-.36-34.88 2.438-34.88 2.438V2.24C766.15-9.157 733.05 24.683 659.74 67.46 650.01 50.948 621.08 1.692 559.67.924c28.34 77.503-30.31 83.234-87.71 83.334-57.4-.1-116.05-5.831-87.71-83.334-61.41.768-90.34 50.024-100.07 66.535C220.03 30.029 186.67-.558 83.609.008" style="display:inline;opacity:1;fill:#fffffe;fill-opacity:1"/><path d="M53.136 19.2c0 251.518.102 511.038-.06 762.558 67.034 3.17 144.234 11.57 204.854 24.98-182.036-127.57-168.7-410.92-129.33-609.11 77.44 125.31 125.3-85.5 146.65-113.411C193.58 26.246 123.59 10.5 53.136 19.2M668.64 83.318c23.16 27 64.83 236.96 145.3 115.64 75.14 378.81-26.39 529.43-128.18 607.93 36.91-8.79 129.23-22.77 204.34-24.53V19.317c-81-11.327-159.5 26.642-221.46 64m-507.71 198.74c-12.09 90.24-28.17 311.2 63.75 424.43-28.25-310.78 118.67-461.73 192.6-530.13-108.61 128.47-186.04 324.93-106.69 564.04 60.69-244.42 191.78-388.87 326.13-484.86-119.76 106.88-235.28 271.05-262.05 503.09 89.87-139.73 219.57-255.68 363.13-315.43-132.95 88.8-245.4 210.6-301.47 346.12 87.02-94.36 200.51-144.55 260.84-147.97-122.28 57.1-199.11 153.29-244.42 259.96 11.72 0 24.59-.1 36.32-.17 51.45-143.08 356.99-51.04 293.05-619.2-120.24 10.13-126.19-152.88-175.82-208.184-7.22 74.135-249.17 82.275-270.47 1.246-50.38 56.909-51.83 216.629-174.9 207.059" style="display:inline;opacity:1;fill:url(#b);fill-opacity:1"/></svg>