<svg xmlns="http://www.w3.org/2000/svg" width="837.024" height="884.338"><path d="M.06 2.231c0 251.517.102 511.037-.06 762.557 67.034 3.17 144.234 11.57 204.854 24.98-182.036-127.57-168.7-410.92-129.33-609.11 77.44 125.31 125.3-85.5 146.65-113.411C140.504 9.276 70.514-6.47.06 2.231m615.504 64.116c23.16 27.001 64.83 236.961 145.3 115.641 75.14 378.81-26.39 529.43-128.18 607.93 36.91-8.79 129.23-22.77 204.34-24.53V2.346c-81-11.327-159.5 26.642-221.46 64.001m-507.71 198.741c-12.09 90.24-28.17 311.2 63.75 424.43-28.25-310.78 118.67-461.73 192.6-530.13-108.61 128.47-186.04 324.93-106.69 564.04 60.69-244.42 191.78-388.87 326.13-484.86-119.76 106.88-235.28 271.05-262.05 503.09 89.87-139.73 219.57-255.68 363.13-315.43-132.95 88.8-245.4 210.6-301.47 346.12 87.02-94.36 200.51-144.55 260.84-147.97-122.28 57.1-199.11 153.29-244.42 259.96 11.72 0 24.59-.1 36.32-.17 51.45-143.08 356.99-51.04 293.05-619.2-120.24 10.13-126.19-152.88-175.82-208.185-7.22 74.135-249.17 82.275-270.47 1.246-50.38 56.909-51.83 216.629-174.9 207.059" style="display:inline;opacity:1;fill:#000;fill-opacity:1"/></svg>