<?xml version="1.0" encoding="UTF-8" standalone="no"?>
<svg
   version="1.1"
   width="550.06512"
   height="506.07394"
   id="svg1"
   xmlns="http://www.w3.org/2000/svg"
   xmlns:svg="http://www.w3.org/2000/svg">
  <defs
     id="defs1" />
  <path
     d="m 2.0703045,372.63631 c 0,0 -23.2911345,-151.07275 86.3689775,-267.34777 C 198.02991,-10.98647 354.16111,-18.69923 460.3887,23.32487 c 0,0 -19.9142,17.74629 -19.9142,39.89788 0,22.09601 13.2993,35.3953 27.68255,49.77855 14.38324,14.43884 81.90808,96.34692 81.90808,189.3447 0,93.03947 -76.37713,203.72795 -197.04356,203.72795 -120.68032,0 -189.3447,-87.45293 -199.28095,-188.20516 0,0 58.67254,99.61268 154.97777,99.61268 96.30523,0 129.51872,-76.37713 129.51872,-132.88176 0,-56.40735 -30.99,-164.92792 -167.13752,-164.92792 -136.20311,0 -230.270947,120.68032 -269.0292855,252.96452"
     id="path1" />
</svg>
