<svg xmlns="http://www.w3.org/2000/svg" xml:space="preserve" width="990.842" height="932.813" style="clip-rule:evenodd;fill-rule:evenodd;stroke-linejoin:round;stroke-miterlimit:2" viewBox="0 0 990.842 932.813"><ellipse cx="526.594" cy="466.406" rx="464.248" ry="466.406" style="fill:#feffff;stroke-width:1.25466"/><path d="M526.278 43C758.861 43 947.69 231.828 947.69 464.412s-188.83 421.41-421.412 421.41c-232.583 0-421.411-188.827-421.411-421.41S293.695 43 526.277 43m.62 47.735c-207.266 0-375.54 167.996-375.54 374.92s168.274 374.92 375.54 374.92c207.269 0 375.543-167.996 375.543-374.92S734.166 90.735 526.898 90.735"/><ellipse cx="526.905" cy="466.245" rx="355.264" ry="355.29" style="stroke-width:.976865"/><path d="M55.693 197.335H470.3v537.928H54.809S15.47 662.41.884 594.261h79.562S61.439 540.26 62.765 458.928s19.007-121.553 19.007-121.553H0s22.542-88.69 55.693-140.04m70.05 139.566c-46.064 152.901.476 258.247.476 258.247H235.15c12.207-2.859 14.475-17.629 14.475-17.629v-54.318s-27.159-12.388-30.017-56.307 28.588-56.14 28.588-56.14V350.72c-3.812-9.529-13.046-13.818-13.046-13.818z" style="fill:#feffff"/><path d="M369.404 403.936s24.468-69.302 95.663-96.417c0 0-6.465-52.22-6.13-80.672H75.993s-30.461 56.906-34.813 80.338h193.97s32.985-.712 44.7 40.503v237.064s-6.111 38.158-42.086 42.39h-196.8s12.344 43.85 34.44 77.9h385.069s-5.606-36.97 7.296-79.904c0 0-66.254-18.808-98.753-97.533-32.5-78.726.388-123.67.388-123.67"/><path d="M465.067 309.577s.153 1.39-6.966-82.514c0 0 1.687-67.632 69.238-70.683 67.551-3.05 68.06 74.242 68.06 74.242s-3.56 57.97-8.136 76.277c-4.577 18.306-9.662 33.053-9.662 33.053l-27.968 65.09h-54.362s-29.34-77.53-30.204-95.465M465.067 622.651s.153-1.39-6.966 82.514c0 0 1.687 67.632 69.238 70.683s68.06-74.242 68.06-74.242-3.56-57.97-8.136-76.277c-4.577-18.306-9.662-33.053-9.662-33.053l-27.968-65.089h-54.362s-29.34 77.53-30.204 95.464M683.466 404.56s-1.39.152 82.514-6.967c0 0 67.632 1.687 70.683 69.238s-74.242 68.06-74.242 68.06-57.97-3.56-76.277-8.136c-18.306-4.577-33.053-9.662-33.053-9.662l-65.089-27.968v-54.362s77.53-29.34 95.464-30.204M370.772 405.211s1.39.153-82.514-6.966c0 0-67.632 1.687-70.683 69.238s74.242 68.06 74.242 68.06 57.97-3.56 76.277-8.136c18.306-4.577 33.053-9.662 33.053-9.662l65.089-27.968v-54.362s-77.53-29.34-95.464-30.204" style="fill:#feffff"/><ellipse cx="527.204" cy="466.895" rx="170.334" ry="168.441" style="fill:#feffff;stroke-width:.924701"/><path d="M544.568 374.815s15.765-73.608 18.884-132.52-36.458-53.714-36.458-53.714-39.435-5.198-37.01 53.02c2.427 58.22 18.076 123.408 19.435 133.438 0 0 15.92-7.012 35.15-.224m.586 181.85s15.764 73.607 18.883 132.52c3.12 58.911-36.458 53.713-36.458 53.713s-39.435 5.198-37.009-53.02 18.075-123.408 19.434-133.438c0 0 15.921 7.012 35.15.224"/><path d="M433.639 446.91s-73.608-15.764-132.52-18.883-53.714 36.458-53.714 36.458-5.198 39.435 53.021 37.01c58.219-2.427 123.407-18.076 133.437-19.435 0 0-7.012-15.92-.224-35.15" style="fill:url(#a)"/><path d="M436.063 447.95s-73.608-15.765-132.52-18.884-53.714 36.458-53.714 36.458-5.198 39.435 53.021 37.01c58.218-2.427 123.407-18.076 133.437-19.435 0 0-7.012-15.92-.224-35.15m182.474 0s73.608-15.764 132.52-18.883 53.714 36.458 53.714 36.458 5.198 39.435-53.021 37.01c-58.218-2.427-123.407-18.076-133.437-19.435 0 0 7.012-15.92.224-35.15"/><circle cx="527.34" cy="466.257" r="93.475" style="fill:#feffff;stroke-width:1.11791"/><ellipse cx="526.791" cy="465.769" rx="61.725" ry="61.834" style="stroke-width:1.09602"/><defs><linearGradient id="a" x1="0" x2="1" y1="0" y2="0" gradientTransform="matrix(904.397 600.073 -534.653 805.8 53.173 156.29)" gradientUnits="userSpaceOnUse"><stop offset="0" style="stop-color:#bb2c26;stop-opacity:1"/><stop offset=".04" style="stop-color:#bf3526;stop-opacity:1"/><stop offset=".11" style="stop-color:#cb4d25;stop-opacity:1"/><stop offset=".19" style="stop-color:#de7523;stop-opacity:1"/><stop offset=".21" style="stop-color:#e17a23;stop-opacity:1"/><stop offset=".29" style="stop-color:#ee8b1f;stop-opacity:1"/><stop offset=".38" style="stop-color:#f5951e;stop-opacity:1"/><stop offset=".5" style="stop-color:#ff9915;stop-opacity:1"/><stop offset=".62" style="stop-color:#f5951e;stop-opacity:1"/><stop offset=".71" style="stop-color:#ee8b1f;stop-opacity:1"/><stop offset=".79" style="stop-color:#e17a23;stop-opacity:1"/><stop offset=".8" style="stop-color:#e07823;stop-opacity:1"/><stop offset=".85" style="stop-color:#d35d24;stop-opacity:1"/><stop offset=".91" style="stop-color:#c64225;stop-opacity:1"/><stop offset=".96" style="stop-color:#be3226;stop-opacity:1"/><stop offset="1" style="stop-color:#bb2c26;stop-opacity:1"/></linearGradient></defs></svg>