<svg xmlns="http://www.w3.org/2000/svg" xml:space="preserve" width="990.84" height="932.813" style="clip-rule:evenodd;fill-rule:evenodd;stroke-linejoin:round;stroke-miterlimit:2" viewBox="0 0 990.84 932.813"><ellipse cx="526.592" cy="466.406" rx="464.248" ry="466.406" style="stroke-width:1.25466"/><path d="M526.278 43C758.861 43 947.69 231.826 947.69 464.41S758.861 885.822 526.278 885.822s-421.411-188.828-421.411-421.41c0-232.585 188.828-421.413 421.411-421.413m.621 47.735c-207.267 0-375.541 167.996-375.541 374.92s168.274 374.92 375.541 374.92c207.268 0 375.542-167.996 375.542-374.92S734.167 90.734 526.899 90.734" style="fill:url(#a)"/><ellipse cx="526.903" cy="466.245" rx="355.264" ry="355.29" style="fill:url(#b);stroke-width:.976865"/><path d="M55.693 197.334H470.3v537.93H54.809S15.469 662.407.884 594.26h79.562s-19.007-54.002-17.682-135.333 19.007-121.553 19.007-121.553H0s22.542-88.69 55.693-140.04m70.05 139.566c-46.064 152.901.476 258.247.476 258.247h108.93c12.208-2.859 14.476-17.629 14.476-17.629V523.2s-27.16-12.388-30.017-56.307c-2.86-43.919 28.588-56.14 28.588-56.14v-60.035c-3.812-9.529-13.046-13.818-13.046-13.818z"/><path d="M369.404 403.935s24.468-69.302 95.663-96.417c0 0-6.465-52.219-6.13-80.672H75.993s-30.461 56.906-34.813 80.338h193.97s32.985-.712 44.701 40.503v237.064s-6.112 38.158-42.087 42.39h-196.8s12.344 43.85 34.441 77.9h385.068s-5.606-36.97 7.296-79.904c0 0-66.254-18.808-98.753-97.533-32.499-78.726.388-123.669.388-123.669" style="fill:url(#c)"/><path d="M465.067 309.576s.153 1.39-6.966-82.514c0 0 1.687-67.632 69.238-70.683 67.55-3.05 68.06 74.242 68.06 74.242s-3.56 57.97-8.136 76.277c-4.577 18.306-9.662 33.053-9.662 33.053l-27.968 65.09h-54.362s-29.34-77.53-30.204-95.465m0 313.075s.153-1.39-6.966 82.514c0 0 1.687 67.632 69.238 70.683 67.55 3.051 68.06-74.242 68.06-74.242s-3.56-57.97-8.136-76.277c-4.577-18.306-9.662-33.053-9.662-33.053l-27.968-65.089h-54.362s-29.34 77.53-30.204 95.464M683.463 404.56s-1.39.153 82.514-6.966c0 0 67.632 1.687 70.683 69.238 3.05 67.551-74.242 68.06-74.242 68.06s-57.97-3.56-76.277-8.136c-18.306-4.577-33.053-9.662-33.053-9.662l-65.09-27.968v-54.362s77.53-29.34 95.465-30.204m-312.694.651s1.39.153-82.514-6.966c0 0-67.632 1.687-70.683 69.238s74.242 68.06 74.242 68.06 57.97-3.56 76.277-8.136c18.306-4.577 33.053-9.662 33.053-9.662l65.089-27.968v-54.362s-77.53-29.34-95.464-30.204"/><ellipse cx="527.201" cy="466.895" rx="170.334" ry="168.441" style="stroke-width:.924701"/><path d="M544.569 374.814s15.764-73.608 18.883-132.52-36.458-53.714-36.458-53.714-39.435-5.198-37.009 53.021 18.075 123.407 19.434 133.437c0 0 15.921-7.012 35.15-.224" style="fill:url(#d)"/><path d="M545.149 556.664s15.764 73.608 18.883 132.52-36.458 53.714-36.458 53.714-39.435 5.198-37.009-53.02c2.426-58.22 18.075-123.408 19.434-133.438 0 0 15.921 7.012 35.15.224" style="fill:url(#e)"/><path d="M433.636 446.915s-73.608-15.764-132.52-18.883-53.714 36.458-53.714 36.458-5.198 39.435 53.021 37.01c58.219-2.427 123.407-18.076 133.437-19.435 0 0-7.012-15.92-.224-35.15" style="fill:url(#f)"/><path d="M436.056 447.955s-73.608-15.764-132.52-18.883-53.714 36.458-53.714 36.458-5.198 39.435 53.021 37.01c58.219-2.427 123.407-18.076 133.437-19.435 0 0-7.012-15.92-.224-35.15" style="fill:url(#g)"/><path d="M618.535 447.955s73.608-15.764 132.52-18.883 53.714 36.458 53.714 36.458 5.198 39.435-53.021 37.01c-58.219-2.427-123.407-18.076-133.437-19.435 0 0 7.012-15.92.224-35.15" style="fill:url(#h)"/><circle cx="527.34" cy="466.256" r="93.475" style="stroke-width:1.11791"/><ellipse cx="526.786" cy="465.769" rx="61.725" ry="61.834" style="fill:url(#i);stroke-width:1.09602"/><defs><linearGradient id="a" x1="0" x2="1" y1="0" y2="0" gradientTransform="matrix(904.397 600.073 -534.653 805.8 53.175 156.291)" gradientUnits="userSpaceOnUse"><stop offset="0" style="stop-color:#8d742f;stop-opacity:1"/><stop offset=".07" style="stop-color:#967d38;stop-opacity:1"/><stop offset=".18" style="stop-color:#ae954f;stop-opacity:1"/><stop offset=".2" style="stop-color:#b39a54;stop-opacity:1"/><stop offset=".22" style="stop-color:#b9a059;stop-opacity:1"/><stop offset=".3" style="stop-color:#cab068;stop-opacity:1"/><stop offset=".39" style="stop-color:#d4ba71;stop-opacity:1"/><stop offset=".5" style="stop-color:#d7bd74;stop-opacity:1"/><stop offset=".61" style="stop-color:#d4ba71;stop-opacity:1"/><stop offset=".7" style="stop-color:#cab068;stop-opacity:1"/><stop offset=".78" style="stop-color:#b9a059;stop-opacity:1"/><stop offset=".8" style="stop-color:#b39a54;stop-opacity:1"/><stop offset=".86" style="stop-color:#a38a45;stop-opacity:1"/><stop offset=".94" style="stop-color:#937a35;stop-opacity:1"/><stop offset="1" style="stop-color:#8d742f;stop-opacity:1"/></linearGradient><linearGradient id="b" x1="0" x2="1" y1="0" y2="0" gradientTransform="matrix(904.40099 600.07548 -534.65618 805.8028 53.173 156.293)" gradientUnits="userSpaceOnUse"><stop offset="0" style="stop-color:#8d742f;stop-opacity:1"/><stop offset=".07" style="stop-color:#967d38;stop-opacity:1"/><stop offset=".18" style="stop-color:#ae954f;stop-opacity:1"/><stop offset=".2" style="stop-color:#b39a54;stop-opacity:1"/><stop offset=".22" style="stop-color:#b9a059;stop-opacity:1"/><stop offset=".3" style="stop-color:#cab068;stop-opacity:1"/><stop offset=".39" style="stop-color:#d4ba71;stop-opacity:1"/><stop offset=".5" style="stop-color:#d7bd74;stop-opacity:1"/><stop offset=".61" style="stop-color:#d4ba71;stop-opacity:1"/><stop offset=".7" style="stop-color:#cab068;stop-opacity:1"/><stop offset=".78" style="stop-color:#b9a059;stop-opacity:1"/><stop offset=".8" style="stop-color:#b39a54;stop-opacity:1"/><stop offset=".86" style="stop-color:#a38a45;stop-opacity:1"/><stop offset=".94" style="stop-color:#937a35;stop-opacity:1"/><stop offset="1" style="stop-color:#8d742f;stop-opacity:1"/></linearGradient><linearGradient id="c" x1="0" x2="1" y1="0" y2="0" gradientTransform="matrix(904.397 600.073 -534.653 805.8 53.175 156.291)" gradientUnits="userSpaceOnUse"><stop offset="0" style="stop-color:#8d742f;stop-opacity:1"/><stop offset=".07" style="stop-color:#967d38;stop-opacity:1"/><stop offset=".18" style="stop-color:#ae954f;stop-opacity:1"/><stop offset=".2" style="stop-color:#b39a54;stop-opacity:1"/><stop offset=".22" style="stop-color:#b9a059;stop-opacity:1"/><stop offset=".3" style="stop-color:#cab068;stop-opacity:1"/><stop offset=".39" style="stop-color:#d4ba71;stop-opacity:1"/><stop offset=".5" style="stop-color:#d7bd74;stop-opacity:1"/><stop offset=".61" style="stop-color:#d4ba71;stop-opacity:1"/><stop offset=".7" style="stop-color:#cab068;stop-opacity:1"/><stop offset=".78" style="stop-color:#b9a059;stop-opacity:1"/><stop offset=".8" style="stop-color:#b39a54;stop-opacity:1"/><stop offset=".86" style="stop-color:#a38a45;stop-opacity:1"/><stop offset=".94" style="stop-color:#937a35;stop-opacity:1"/><stop offset="1" style="stop-color:#8d742f;stop-opacity:1"/></linearGradient><linearGradient id="d" x1="0" x2="1" y1="0" y2="0" gradientTransform="matrix(904.397 600.073 -534.653 805.8 53.175 156.291)" gradientUnits="userSpaceOnUse"><stop offset="0" style="stop-color:#8d742f;stop-opacity:1"/><stop offset=".07" style="stop-color:#967d38;stop-opacity:1"/><stop offset=".18" style="stop-color:#ae954f;stop-opacity:1"/><stop offset=".2" style="stop-color:#b39a54;stop-opacity:1"/><stop offset=".22" style="stop-color:#b9a059;stop-opacity:1"/><stop offset=".3" style="stop-color:#cab068;stop-opacity:1"/><stop offset=".39" style="stop-color:#d4ba71;stop-opacity:1"/><stop offset=".5" style="stop-color:#d7bd74;stop-opacity:1"/><stop offset=".61" style="stop-color:#d4ba71;stop-opacity:1"/><stop offset=".7" style="stop-color:#cab068;stop-opacity:1"/><stop offset=".78" style="stop-color:#b9a059;stop-opacity:1"/><stop offset=".8" style="stop-color:#b39a54;stop-opacity:1"/><stop offset=".86" style="stop-color:#a38a45;stop-opacity:1"/><stop offset=".94" style="stop-color:#937a35;stop-opacity:1"/><stop offset="1" style="stop-color:#8d742f;stop-opacity:1"/></linearGradient><linearGradient id="e" x1="0" x2="1" y1="0" y2="0" gradientTransform="matrix(904.397 600.073 -534.653 805.8 53.168 156.291)" gradientUnits="userSpaceOnUse"><stop offset="0" style="stop-color:#8d742f;stop-opacity:1"/><stop offset=".07" style="stop-color:#967d38;stop-opacity:1"/><stop offset=".18" style="stop-color:#ae954f;stop-opacity:1"/><stop offset=".2" style="stop-color:#b39a54;stop-opacity:1"/><stop offset=".22" style="stop-color:#b9a059;stop-opacity:1"/><stop offset=".3" style="stop-color:#cab068;stop-opacity:1"/><stop offset=".39" style="stop-color:#d4ba71;stop-opacity:1"/><stop offset=".5" style="stop-color:#d7bd74;stop-opacity:1"/><stop offset=".61" style="stop-color:#d4ba71;stop-opacity:1"/><stop offset=".7" style="stop-color:#cab068;stop-opacity:1"/><stop offset=".78" style="stop-color:#b9a059;stop-opacity:1"/><stop offset=".8" style="stop-color:#b39a54;stop-opacity:1"/><stop offset=".86" style="stop-color:#a38a45;stop-opacity:1"/><stop offset=".94" style="stop-color:#937a35;stop-opacity:1"/><stop offset="1" style="stop-color:#8d742f;stop-opacity:1"/></linearGradient><linearGradient id="f" x1="0" x2="1" y1="0" y2="0" gradientTransform="matrix(904.397 600.073 -534.653 805.8 53.17 156.294)" gradientUnits="userSpaceOnUse"><stop offset="0" style="stop-color:#8d742f;stop-opacity:1"/><stop offset=".07" style="stop-color:#967d38;stop-opacity:1"/><stop offset=".18" style="stop-color:#ae954f;stop-opacity:1"/><stop offset=".2" style="stop-color:#b39a54;stop-opacity:1"/><stop offset=".22" style="stop-color:#b9a059;stop-opacity:1"/><stop offset=".3" style="stop-color:#cab068;stop-opacity:1"/><stop offset=".39" style="stop-color:#d4ba71;stop-opacity:1"/><stop offset=".5" style="stop-color:#d7bd74;stop-opacity:1"/><stop offset=".61" style="stop-color:#d4ba71;stop-opacity:1"/><stop offset=".7" style="stop-color:#cab068;stop-opacity:1"/><stop offset=".78" style="stop-color:#b9a059;stop-opacity:1"/><stop offset=".8" style="stop-color:#b39a54;stop-opacity:1"/><stop offset=".86" style="stop-color:#a38a45;stop-opacity:1"/><stop offset=".94" style="stop-color:#937a35;stop-opacity:1"/><stop offset="1" style="stop-color:#8d742f;stop-opacity:1"/></linearGradient><linearGradient id="g" x1="0" x2="1" y1="0" y2="0" gradientTransform="matrix(904.397 600.073 -534.653 805.8 53.167 156.293)" gradientUnits="userSpaceOnUse"><stop offset="0" style="stop-color:#8d742f;stop-opacity:1"/><stop offset=".07" style="stop-color:#967d38;stop-opacity:1"/><stop offset=".18" style="stop-color:#ae954f;stop-opacity:1"/><stop offset=".2" style="stop-color:#b39a54;stop-opacity:1"/><stop offset=".22" style="stop-color:#b9a059;stop-opacity:1"/><stop offset=".3" style="stop-color:#cab068;stop-opacity:1"/><stop offset=".39" style="stop-color:#d4ba71;stop-opacity:1"/><stop offset=".5" style="stop-color:#d7bd74;stop-opacity:1"/><stop offset=".61" style="stop-color:#d4ba71;stop-opacity:1"/><stop offset=".7" style="stop-color:#cab068;stop-opacity:1"/><stop offset=".78" style="stop-color:#b9a059;stop-opacity:1"/><stop offset=".8" style="stop-color:#b39a54;stop-opacity:1"/><stop offset=".86" style="stop-color:#a38a45;stop-opacity:1"/><stop offset=".94" style="stop-color:#937a35;stop-opacity:1"/><stop offset="1" style="stop-color:#8d742f;stop-opacity:1"/></linearGradient><linearGradient id="h" x1="0" x2="1" y1="0" y2="0" gradientTransform="matrix(904.397 600.073 -534.653 805.8 53.169 156.293)" gradientUnits="userSpaceOnUse"><stop offset="0" style="stop-color:#8d742f;stop-opacity:1"/><stop offset=".07" style="stop-color:#967d38;stop-opacity:1"/><stop offset=".18" style="stop-color:#ae954f;stop-opacity:1"/><stop offset=".2" style="stop-color:#b39a54;stop-opacity:1"/><stop offset=".22" style="stop-color:#b9a059;stop-opacity:1"/><stop offset=".3" style="stop-color:#cab068;stop-opacity:1"/><stop offset=".39" style="stop-color:#d4ba71;stop-opacity:1"/><stop offset=".5" style="stop-color:#d7bd74;stop-opacity:1"/><stop offset=".61" style="stop-color:#d4ba71;stop-opacity:1"/><stop offset=".7" style="stop-color:#cab068;stop-opacity:1"/><stop offset=".78" style="stop-color:#b9a059;stop-opacity:1"/><stop offset=".8" style="stop-color:#b39a54;stop-opacity:1"/><stop offset=".86" style="stop-color:#a38a45;stop-opacity:1"/><stop offset=".94" style="stop-color:#937a35;stop-opacity:1"/><stop offset="1" style="stop-color:#8d742f;stop-opacity:1"/></linearGradient><linearGradient id="i" x1="0" x2="1" y1="0" y2="0" gradientTransform="matrix(904.39413 600.07108 -534.65159 805.7973 53.17 156.29)" gradientUnits="userSpaceOnUse"><stop offset="0" style="stop-color:#8d742f;stop-opacity:1"/><stop offset=".07" style="stop-color:#967d38;stop-opacity:1"/><stop offset=".18" style="stop-color:#ae954f;stop-opacity:1"/><stop offset=".2" style="stop-color:#b39a54;stop-opacity:1"/><stop offset=".22" style="stop-color:#b9a059;stop-opacity:1"/><stop offset=".3" style="stop-color:#cab068;stop-opacity:1"/><stop offset=".39" style="stop-color:#d4ba71;stop-opacity:1"/><stop offset=".5" style="stop-color:#d7bd74;stop-opacity:1"/><stop offset=".61" style="stop-color:#d4ba71;stop-opacity:1"/><stop offset=".7" style="stop-color:#cab068;stop-opacity:1"/><stop offset=".78" style="stop-color:#b9a059;stop-opacity:1"/><stop offset=".8" style="stop-color:#b39a54;stop-opacity:1"/><stop offset=".86" style="stop-color:#a38a45;stop-opacity:1"/><stop offset=".94" style="stop-color:#937a35;stop-opacity:1"/><stop offset="1" style="stop-color:#8d742f;stop-opacity:1"/></linearGradient></defs></svg>