<svg xmlns="http://www.w3.org/2000/svg" width="236.737" height="236.77"><path d="M2.196 138.565q-3.764-18.294-1.076-36.592 2.686-18.294 10.493-34.708 7.8-16.41 20.314-30.134a115.8 115.8 0 0 1 28.655-22.87 1592 1592 0 0 1 14.395 19.507c4.75 6.55 9.505 13.049 14.26 19.507a3996 3996 0 0 1 14.26 19.506c4.75 6.55 9.552 13.049 14.395 19.507a626 626 0 0 0 14.663-19.641l14.26-19.911a9964 9964 0 0 0 14.126-19.775 983 983 0 0 1 14.26-19.507q19.909 10.764 33.9 28.251c9.325 11.662 16.367 24.484 21.122 38.476q7.126 20.988 6.457 43.317-.674 22.337-10.358 42.781a92.1 92.1 0 0 1-15.336 25.021A193 193 0 0 1 190 212.286a665 665 0 0 0-10.493-16.547 2343 2343 0 0 1-10.763-16.547 226.5 226.5 0 0 0 17.488-24.08c5.382-8.518 8.518-17.893 9.417-28.117 1.434-9.147.808-18.068-1.883-26.771a579 579 0 0 0-8.61-25.695 503 503 0 0 0-15.067 19.103 1109 1109 0 0 0-14.395 19.641 1349 1349 0 0 0-13.99 19.911 2673 2673 0 0 1-13.856 19.91 1781 1781 0 0 0 22.466 35.246 1034 1034 0 0 1 22.197 35.516q-12.916 5.922-24.888 9.416-11.975 3.5-29.73 3.498-13.723.002-27.175-3.498-13.455-3.494-26.368-9.416a907 907 0 0 1 22.332-35.516 1200 1200 0 0 0 22.6-35.516c-4.666-6.457-9.374-12.957-14.124-19.508a3996 3996 0 0 0-14.26-19.506 2749 2749 0 0 0-14.395-19.372 784 784 0 0 0-14.798-19.103q-7 12.917-9.283 26.906-2.29 13.993 0 27.847 2.284 13.861 8.745 26.504c4.305 8.432 9.862 16.143 16.682 23.139a1290 1290 0 0 0-10.763 16.412 1331 1331 0 0 1-10.762 16.412 160 160 0 0 1-15.605-15.605 137 137 0 0 1-13.05-17.623 120 120 0 0 1-9.82-19.506 95 95 0 0 1-5.653-21.256M117.89 0h-6.727A133 133 0 0 0 87.35 3.767a145 145 0 0 0-22.735 7.803l53.273 39.013 52.196-37.937 1.346-1.076a169 169 0 0 0-22.87-7.938Q136.989.542 124.615 0Z"/></svg>