<?xml version="1.0" encoding="UTF-8"?><svg id="Layer_2" xmlns="http://www.w3.org/2000/svg" width="216" height="193.43633" xmlns:xlink="http://www.w3.org/1999/xlink" viewBox="0 0 216 193.43633"><defs><style>.cls-1{fill:#fff;}.cls-2{fill:url(#radial-gradient);}</style><radialGradient id="radial-gradient" cx="108.0334" cy="94.83877" fx="108.0334" fy="94.83877" r="107.66433" gradientTransform="translate(0 12.85963) scale(1 .86441)" gradientUnits="userSpaceOnUse"><stop offset="0" stop-color="#bf99c3"/><stop offset=".24953" stop-color="#bc96c1"/><stop offset=".40433" stop-color="#b58dbb"/><stop offset=".5333" stop-color="#a87fb0"/><stop offset=".64807" stop-color="#966aa1"/><stop offset=".75341" stop-color="#7f508e"/><stop offset=".85057" stop-color="#632f77"/><stop offset=".86091" stop-color="#602c75"/></radialGradient></defs><g id="Layer_1-2"><path class="cls-1" d="M.0668,69.59759c.03476-.85785.46381-2.17615.24247-3.23742l1.07596-13.3214c2.53449,5.32825,4.23851,11.08047,6.90794,16.36991,1.55041,3.0721,3.46135,5.95363,5.32822,8.82776l2.82939-10.3698c7.65887-23.53598,24.0533-40.02104,45.51175-51.43418,2.69911-1.43558,6.68467-3.69615,9.43316-4.72386.29926-.1119.54697-.25598.88874-.1886-3.06451,5.30921-7.06027,10.26067-8.52406,16.31319-1.08603,4.49053-1.26028,8.68576-.51735,13.24864.22212,1.36423.5922,2.72297,1.00272,4.03458,8.87591-18.57779,25.61514-34.18669,46.23887-40.86686,7.64309-2.47565,15.69602-3.63612,23.70065-4.24956l-10.79191,15.23792c.13816.23381.25999.22497.46204.28251,1.99376.56777,5.05682.69446,7.25531,1.11273,48.00225,9.13262,82.38242,40.53252,84.88931,91.12443v16.56l-1.31842,16.07882c-3.04887-6.34021-5.0222-13.19223-8.47745-19.35991l-3.87719-5.83744c-4.15011,21.92183-17.13158,41.13428-35.19632,53.95403-7.19508,5.10604-15.11482,9.06431-23.10713,12.76328-.08266-.3612.13348-.52562.28482-.79272,2.26761-4.00215,5.27671-7.70652,6.91782-12.03997,2.06838-5.46168,2.67627-12.02728,1.40837-17.74013-.07605-.34267-.70328-3.13816-1.17162-2.78538-6.04516,13.18124-16.30478,24.77155-28.57439,32.49911-12.17448,7.66764-26.42171,11.57199-40.76586,12.37906-.27752-.24143,1.7349-2.5788,1.90912-2.82249,2.34584-3.28137,4.7979-6.60284,7.02006-9.96311.40625-.61432,1.17305-1.56723,1.42827-2.17619.10911-.26035.33394-.23954-.04079-.52263-30.59422-3.81134-61.19251-18.41009-77.98192-45.10933-7.5928-12.0744-11.86396-25.72226-13.64093-39.87485l-.74963-7.77014c.15613-5.18429-.20987-10.42035,0-15.6ZM120.02967,8.64003c-19.61098,3.63884-37.24954,16.23482-47.02535,33.5952l9.19546-4.83925c32.26427-13.95739,69.23969.42334,84.65829,31.55875,7.93719,16.02791,10.31317,44.66742-15.27429,42.63902-9.2716-.73499-22.72114-10.20669-24.48989-19.66267-1.46419-7.82779,4.29353-11.32333,11.41002-11.05588-3.81447-4.71197-9.96817-6.8114-15.926-5.96856-4.98241.70485-9.56435,3.13479-13.46863,6.19902-9.59497-15.65136-27.52162-23.66247-45.6641-22.82723-6.13569-9.37774-8.72473-20.58485-6.03707-31.63931-.16046-.16573-3.51984,2.16931-3.91335,2.44297-17.44834,12.13459-31.58226,33.14327-33.96334,54.58615-.32527,2.92919-.11083,5.84602-.51337,8.72873-4.83911-3.5224-9.02567-7.80402-12.47087-12.7193.0957,19.17644,5.05821,38.47493,16.35696,54.07552,18.13895,25.04508,51.09209,37.52069,81.29038,38.56682l-8.15505,12.7175c17.10263-3.66869,32.25597-12.97962,42.6606-27.04374.47167-.63756,4.41944-6.25458,4.12133-6.55495-1.77522.70731-3.33843,1.89846-5.03203,2.76397-32.67529,16.69862-71.58824,3.22784-88.1831-28.92-5.85488-11.34217-10.85035-33.43759,2.7838-41.14572,11.21985-6.3432,26.10314.77295,33.04975,10.34109,6.63814,9.14325,4.64316,18.33648-7.8758,18.0807-.33915.30116,1.97994,2.16239,2.28276,2.39407,8.65265,6.6196,19.3027,3.76651,27.10775-2.63128,4.37594,6.76184,10.02573,12.56308,17.14873,16.44111,5.98586,3.25893,14.42327,5.90914,21.24105,6.35238,1.36099.08848,6.51273-.27824,7.21192.22585.5885.42429,3.05418,5.1251,3.50468,6.09424,3.68134,7.91939,4.62648,16.84748,2.59776,25.36087.16861.17273,2.5931-1.47834,2.9541-1.72253,13.01899-8.80615,23.83492-21.85634,29.78726-36.44352,3.54834-8.69577,5.84866-18.13095,5.40715-27.59124.1659-.1892,1.09898.55918,1.31236.72477,4.3815,3.40022,8.14998,7.5147,11.40005,11.99396-.07636-21.6964-6.46829-43.0407-20.74787-59.52325-15.89208-18.34383-42.39874-29.56639-66.25346-32.36604-3.46114-.40621-6.94416-.4195-10.40634-.75273l7.91773-12.47547ZM140.96045,48.87149c-13.80665-9.40164-29.32735-12.67857-45.9284-8.95927-8.73689,1.95741-17.59118,6.15164-24.1867,12.16341,5.09552.12401,10.0889,1.67045,15.03342,2.80767,17.59178-7.91637,40.18939-8.47292,54.3046,6.31193l-6.02704-3.44865c-10.67233-5.2955-23.91826-4.50952-34.51126.20735-1.08717.4841-2.09489,1.14454-3.22013,1.54726l-.14715.49276c5.68535,2.95622,10.39269,7.57039,14.5125,12.44044,9.49074-5.40532,20.54244-5.70451,29.36836,1.14801,3.83125,2.97462,6.01429,6.31103,8.8067,10.23705l.80657,1.73487,2.16664,3.96206c-5.68829-.77464-11.39271-3.19162-17.16843-1.93378-3.54523,1.14063-.39505,5.71822.89912,7.53058,8.92795,12.50277,31.10445,16.3725,30.43607-4.52557-.53724-16.79768-11.97951-32.75116-25.14487-41.71612ZM63.88711,103.91999c3.59179.51007,7.10623,1.67747,10.70739,2.12684,4.73626.59101,10.84523.85127,7.14764-5.70985-7.79094-13.82446-32.41202-19.56025-31.78063,2.51055.48421,16.92595,12.88822,34.39633,26.90184,43.16975,19.1429,11.98467,43.20487,11.97999,62.34008,0,2.07698-1.30034,3.96136-2.86128,6.01661-4.18429l-.12124-.47862c-5.06293-.00502-9.98194-1.53265-14.86751-2.79461-15.35755,6.94483-34.50006,8.5428-49.14515-1.80658-1.03789-.73345-3.19842-2.23676-3.95084-2.91153-.25619-.22976-.6623-1.04822-1.01195-1.3617,1.69436.7326,3.16179,1.90892,4.79329,2.76278,12.45698,6.51946,26.94864,4.87381,39.11192-1.44402-5.57931-3.28646-10.47772-7.56204-14.56037-12.57334-2.37094.85873-4.58314,2.05501-7.03228,2.73178-13.09138,3.61752-23.01016-1.81447-29.99532-12.47451-1.60867-2.45498-2.93018-5.11648-4.55349-7.56265Z"/><path class="cls-2" d="M120.02967,8.64003l-7.91773,12.47547c3.46218.33323,6.9452.34652,10.40634.75273,23.85472,2.79965,50.36138,14.02222,66.25346,32.36604,14.27958,16.48255,20.67151,37.82685,20.74787,59.52325-3.25007-4.47926-7.01855-8.59374-11.40005-11.99396-.21338-.16559-1.14645-.91397-1.31236-.72477.44151,9.46029-1.85882,18.89547-5.40715,27.59124-5.95235,14.58718-16.76827,27.63737-29.78726,36.44352-.361.24418-2.78548,1.89526-2.9541,1.72253,2.02872-8.51339,1.08358-17.44148-2.59776-25.36087-.4505-.96913-2.91617-5.66995-3.50468-6.09424-.69919-.50408-5.85093-.13737-7.21192-.22585-6.81778-.44324-15.25519-3.09345-21.24105-6.35238-7.123-3.87803-12.77279-9.67926-17.14873-16.44111-7.80505,6.39779-18.4551,9.25088-27.10775,2.63128-.30283-.23167-2.62192-2.09291-2.28276-2.39407,12.51896.25578,14.51394-8.93745,7.8758-18.0807-6.94661-9.56814-21.8299-16.68429-33.04975-10.34109-13.63415,7.70814-8.63868,29.80355-2.7838,41.14572,16.59486,32.14784,55.50782,45.61862,88.1831,28.92,1.6936-.86551,3.25681-2.05666,5.03203-2.76397.29811.30036-3.64966,5.91738-4.12133,6.55495-10.40463,14.06412-25.55797,23.37505-42.6606,27.04374l8.15505-12.7175c-30.19829-1.04613-63.15143-13.52174-81.29038-38.56682-11.29875-15.60059-16.26126-34.89908-16.35696-54.07552,3.4452,4.91528,7.63175,9.1969,12.47087,12.7193.40253-2.88271.1881-5.79954.51337-8.72873,2.38109-21.44288,16.515-42.45156,33.96334-54.58615.39351-.27367,3.75289-2.6087,3.91335-2.44297-2.68766,11.05446-.09863,22.26157,6.03707,31.63931,18.14248-.83525,36.06913,7.17587,45.6641,22.82723,3.90427-3.06423,8.48622-5.49417,13.46863-6.19902,5.95782-.84284,12.11153,1.2566,15.926,5.96856-7.11649-.26744-12.87421,3.22809-11.41002,11.05588,1.76874,9.45598,15.21828,18.92768,24.48989,19.66267,25.58746,2.02841,23.21148-26.61111,15.27429-42.63902-15.41859-31.13541-52.39401-45.51614-84.65829-31.55875l-9.19546,4.83925c9.7758-17.36037,27.41437-29.95636,47.02535-33.5952Z"/></g></svg>