<?xml version="1.0" encoding="UTF-8" standalone="no"?>
<svg
   version="1.1"
   viewBox="0 0 1024 973.82"
   id="svg6"
   width="1024"
   height="973.82001"
   xmlns="http://www.w3.org/2000/svg"
   xmlns:svg="http://www.w3.org/2000/svg">
  <defs
     id="defs5">
    <linearGradient
       id="a"
       x1="36.279999"
       x2="468.38"
       y1="34.419998"
       y2="445.51001"
       gradientTransform="scale(2.0291)"
       gradientUnits="userSpaceOnUse">
      <stop
         stop-color="#536e78"
         offset="0"
         id="stop1" />
      <stop
         stop-color="#99aebc"
         offset=".25"
         id="stop2" />
      <stop
         stop-color="#d9eaf3"
         offset=".5"
         id="stop3" />
      <stop
         stop-color="#99aebc"
         offset=".75"
         id="stop4" />
      <stop
         stop-color="#536e78"
         offset="1"
         id="stop5" />
    </linearGradient>
  </defs>
  <path
     d="M 663.43,0.20879 360.77,0 291.66,186.03 93.498,194.52 0,482.23 155.5,605.32 102.39,795.97 347.16,973.82 512.1,864.31 677.05,973.82 921.79,795.97 868.69,605.32 1024,482.23 930.7,194.53 732.52,186.03 Z"
     fill="#ffffff"
     stroke-width="23.025"
     id="path5" />
  <path
     d="M 612.4,736.38 950.38,466.43 884.4,262.73 755.04,256.62 771.34,474.85 619.48,70.01 405.15,69.841 l -45.58,121.3 212.49,52.05 -431.92,19.46 -66.525,203.84 101.04,80.55 115.13,-186.37 -114.67,417.06 173.29,126.25 107.93,-71.3 -141.77,-167 361.3,238.14 173.51,-125.97 -34.44,-124.75 z"
     stroke-width="23.026"
     id="path6" />
</svg>
