<svg xmlns="http://www.w3.org/2000/svg" xml:space="preserve" width="361.7" height="429.998" viewBox="0 0 361.7 429.998"><path fill="gray" d="M180.85 85.708c23.13-23.257 29.76-35.061 29.76-46.341C210.61 19.437 199.9 0 199.9 0s17.79 7.744 34.42 18.104c11.55 7.203 28.89 18.297 49.28 27.458 15.35 6.898 28.36 11.581 37.86 15.001 9.25 3.331 13.12 4.76 15.98 6.705 9.72 6.601 8.78 14.653 8.17 19.98l-.15 1.24c-3.38 30.8-6.05 56.78 2.93 71.76 4.11 6.86 13.31 12.49 13.31 12.49s-19.82 32.32-53.96 56.15c-3.58 40.24 30.35 36.29 30.35 36.29-8.9 22.56-71.85 90.09-76.75 95.88-19.12 22.66-54.32 56.23-61.67 61.2-6.67 4.49-11.48 7.74-18.82 7.74s-12.16-3.25-18.83-7.74c-7.35-4.97-42.55-38.54-61.67-61.2-4.9-5.79-67.849-73.32-76.743-95.88 0 0 33.929 3.95 30.343-36.29C19.818 205.058 0 172.738 0 172.738s9.193-5.63 13.308-12.49c8.981-14.98 6.308-40.96 2.922-71.76l-.141-1.24c-.62-5.326-1.554-13.378 8.165-19.979 2.862-1.945 6.732-3.374 15.981-6.705 9.5-3.42 22.511-8.103 37.865-15.001 20.39-9.161 37.72-20.255 49.28-27.458C144.01 7.744 161.79.001 161.79.001s-10.71 19.437-10.71 39.367c0 11.278 6.63 23.083 29.77 46.34"/><path fill="#fff" d="M161.63 314.128c-44.42-47.22-68.04-96.04-73.019-110.26-8.222-23.45-8.616-62.09 3.164-78.7 3.335-4.71 7.225-6.99 11.885-6.99 8.19 0 30.7 6.8 47.13 26.67-16.73 14.59-9.14 62.93 10.84 169.28"/><path d="M180.85 418.138c-3.73 0-6.31-1.75-12.24-5.75-5.94-4.01-40.33-36.63-59.2-58.98-18.879-22.35-50.611-57.45-65.161-78.69 25.474-5.43 21.273-52.37 21.273-52.37-33.352-21.49-49.77-47.03-49.77-47.03 18.394-14.73 16.912-45.86 12.264-88.13-.616-5.606-1.212-7.32 2.899-10.115 4.111-2.791 24.708-8.416 52.044-20.691 27.331-12.283 49.201-27.601 59.391-33.623-8.39 26.157-.98 41.475 38.5 79.589 39.47-38.114 46.88-53.432 38.5-79.589 10.18 6.022 32.04 21.34 59.38 33.623 27.34 12.275 47.93 17.9 52.05 20.691 4.11 2.794 3.51 4.509 2.89 10.115-4.64 42.27-6.13 73.4 12.27 88.13 0 0-16.42 25.54-49.77 47.03 0 0-4.2 46.94 21.27 52.37-14.55 21.24-46.28 56.34-65.16 78.69-18.87 22.35-53.26 54.97-59.19 58.98-5.94 4-8.52 5.75-12.24 5.75m-6.66-80.09-2.36-12.5c-19.04-100.86-31.62-167.5-13.58-176.22l4.29-2.08-2.83-3.83c-18.53-25.05-45.76-33.15-56.05-33.15-7.21 0-13.545 3.57-18.336 10.33-13.521 19.06-13.051 60.56-4.175 85.89 5.47 15.6 32.641 71.6 84.011 122.6zm13.31 0 9.03-8.96c51.37-51 78.54-107 84.01-122.61 8.88-25.32 9.35-66.82-4.17-85.89-4.8-6.75-11.13-10.32-18.34-10.32-10.28 0-37.52 8.1-56.04 33.15l-2.84 3.83 4.29 2.08c18.04 8.72 5.46 75.36-13.58 176.22z"/><path fill="#fff" d="M200.06 314.128c19.98-106.35 27.57-154.69 10.84-169.28 16.44-19.87 38.94-26.67 47.13-26.67 4.67 0 8.55 2.29 11.89 6.99 11.78 16.61 11.38 55.25 3.16 78.7-4.98 14.22-28.6 63.04-73.02 110.26"/></svg>