<svg xmlns="http://www.w3.org/2000/svg" xml:space="preserve" width="361.7" height="430.004" viewBox="0 0 361.7 430.004"><path fill="#fff" d="M180.85 85.714c23.13-23.267 29.76-35.071 29.76-46.351C210.61 19.434 199.9 0 199.9 0s17.79 7.742 34.42 18.104c11.55 7.203 28.89 18.298 49.28 27.456 15.35 6.898 28.36 11.581 37.86 15.001 9.25 3.329 13.12 4.758 15.98 6.703 9.72 6.601 8.78 14.656 8.17 19.98l-.15 1.24c-3.38 30.8-6.05 56.78 2.93 71.76 4.11 6.86 13.31 12.49 13.31 12.49s-19.82 32.32-53.96 56.15c-3.58 40.24 30.35 36.29 30.35 36.29-8.9 22.56-71.85 90.09-76.74 95.89-19.13 22.65-54.33 56.23-61.68 61.19-6.67 4.5-11.48 7.75-18.82 7.75s-12.16-3.25-18.82-7.75c-7.35-4.96-42.56-38.54-61.68-61.19-4.89-5.8-67.849-73.33-76.743-95.89 0 0 33.93 3.95 30.344-36.29C19.818 205.054 0 172.734 0 172.734s9.193-5.63 13.308-12.49c8.98-14.98 6.307-40.96 2.922-71.76l-.141-1.24c-.62-5.324-1.554-13.378 8.165-19.979 2.862-1.945 6.732-3.374 15.981-6.703 9.5-3.42 22.511-8.103 37.865-15.001 20.39-9.158 37.72-20.252 49.28-27.456C144.01 7.742 161.79.001 161.79.001s-10.71 19.434-10.71 39.363c0 11.278 6.63 23.083 29.77 46.35"/><path d="M180.85 418.144c-3.73 0-6.31-1.76-12.24-5.76-5.94-4-40.33-36.62-59.2-58.98-18.879-22.35-50.612-57.45-65.161-78.69 25.474-5.43 21.274-52.36 21.274-52.36-33.353-21.5-49.771-47.04-49.771-47.04 18.395-14.73 16.912-45.86 12.264-88.13-.615-5.604-1.211-7.319 2.899-10.112 4.111-2.792 24.708-8.415 52.044-20.694 27.331-12.28 49.201-27.597 59.391-33.619-8.39 26.157-.98 41.475 38.5 79.585 39.47-38.111 46.88-53.429 38.49-79.585 10.19 6.021 32.05 21.339 59.39 33.619s47.93 17.902 52.04 20.694c4.12 2.793 3.52 4.507 2.9 10.112-4.64 42.27-6.13 73.4 12.27 88.13 0 0-16.42 25.54-49.77 47.04 0 0-4.2 46.93 21.27 52.36-14.55 21.24-46.28 56.34-65.16 78.69-18.87 22.36-53.26 54.98-59.19 58.98-5.94 4-8.52 5.76-12.24 5.76m-95.969-212.97c6.478 18.48 34.339 72.74 83.069 121.11-21.64-114.62-31.52-170.79-11.42-180.52-17.83-24.1-44.03-31.54-52.87-31.54-26.438 0-30.391 57.83-18.779 90.95m173.149-90.95c-8.84 0-35.04 7.44-52.87 31.54 20.1 9.73 10.22 65.9-11.41 180.51 48.72-48.37 76.58-102.62 83.06-121.1 11.61-33.12 7.66-90.95-18.78-90.95"/></svg>