<svg xmlns="http://www.w3.org/2000/svg" xml:space="preserve" width="361.697" height="430.004" viewBox="0 0 361.697 430.004"><g transform="translate(-6.473 -14.516)"><path d="M187.32 100.23c23.13-23.268 29.76-35.072 29.76-46.351 0-19.929-10.7-39.363-10.7-39.363s17.78 7.742 34.41 18.104c11.55 7.204 28.89 18.298 49.27 27.457 15.36 6.898 28.37 11.581 37.87 15.001 9.25 3.329 13.12 4.757 15.98 6.703 9.72 6.601 8.79 14.655 8.17 19.989l-.14 1.23c-3.39 30.8-6.06 56.78 2.92 71.76 4.11 6.86 13.31 12.49 13.31 12.49s-19.82 32.32-53.95 56.15c-3.59 40.24 30.34 36.29 30.34 36.29-8.89 22.56-71.85 90.09-76.74 95.89-19.13 22.65-54.32 56.23-61.67 61.19-6.68 4.5-11.49 7.75-18.83 7.75s-12.15-3.25-18.82-7.75c-7.35-4.96-42.55-38.54-61.68-61.19-4.89-5.8-67.845-73.33-76.739-95.89 0 0 33.93 3.95 30.344-36.29-34.133-23.83-53.952-56.15-53.952-56.15s9.193-5.63 13.308-12.49c8.98-14.98 6.308-40.96 2.922-71.76l-.141-1.24c-.62-5.324-1.554-13.378 8.164-19.979 2.863-1.946 6.732-3.374 15.981-6.703 9.5-3.421 22.513-8.103 37.865-15.001 20.388-9.159 37.718-20.253 49.278-27.457 16.63-10.362 34.42-18.104 34.42-18.104s-10.71 19.434-10.71 39.363c0 11.279 6.63 23.083 29.76 46.351"/><path fill="#fff" d="M168.1 328.64c-44.42-47.22-68.03-96.04-73.015-110.26-8.222-23.45-8.617-62.09 3.165-78.7 3.33-4.7 7.22-6.99 11.88-6.99 8.19 0 30.7 6.8 47.14 26.68-16.74 14.58-9.15 62.92 10.83 169.27"/><linearGradient id="a" x1="22.227" x2="352.41" y1="234.97" y2="234.97" gradientUnits="userSpaceOnUse"><stop offset="0" style="stop-color:#8d742f"/><stop offset=".134" style="stop-color:#9f8641"/><stop offset=".25" style="stop-color:#b39a54"/><stop offset=".265" style="stop-color:#b69d57"/><stop offset=".41" style="stop-color:#ceb46c"/><stop offset=".5" style="stop-color:#d7bd74"/><stop offset=".59" style="stop-color:#ceb46c"/><stop offset=".735" style="stop-color:#b69d57"/><stop offset=".75" style="stop-color:#b39a54"/><stop offset=".866" style="stop-color:#9f8641"/><stop offset="1" style="stop-color:#8d742f"/></linearGradient><path fill="url(#a)" d="M187.32 432.66c-3.72 0-6.31-1.76-12.24-5.76s-40.33-36.62-59.2-58.98c-18.873-22.35-50.608-57.45-65.158-78.69 25.474-5.43 21.274-52.36 21.274-52.36-33.353-21.5-49.77-47.04-49.77-47.04C40.62 175.1 39.138 143.97 34.49 101.7c-.615-5.604-1.211-7.318 2.899-10.111s24.706-8.416 52.043-20.695c27.338-12.28 49.198-27.597 59.388-33.619-8.39 26.158-.98 41.475 38.5 79.595 39.47-38.12 46.89-53.437 38.5-79.595 10.18 6.022 32.05 21.339 59.38 33.619 27.34 12.279 47.94 17.902 52.05 20.695s3.51 4.507 2.9 10.111c-4.65 42.27-6.13 73.4 12.26 88.13 0 0-16.42 25.54-49.77 47.04 0 0-4.2 46.93 21.27 52.36-14.55 21.24-46.28 56.34-65.15 78.69-18.88 22.36-53.27 54.98-59.2 58.98s-8.52 5.76-12.24 5.76m-6.66-80.1-2.36-12.5c-19.04-100.86-31.61-167.49-13.58-176.22l4.29-2.08-2.83-3.83c-18.53-25.04-45.76-33.15-56.05-33.15-7.2 0-13.54 3.57-18.334 10.33-13.519 19.07-13.048 60.57-4.173 85.89 5.47 15.6 32.647 71.61 84.007 122.6zm13.32 0 9.03-8.96c51.36-50.99 78.54-107 84.01-122.6 8.88-25.32 9.34-66.82-4.18-85.89-4.79-6.76-11.13-10.33-18.33-10.33-10.29 0-37.53 8.11-56.05 33.15l-2.83 3.83 4.29 2.08c18.03 8.73 5.45 75.36-13.58 176.22z" style="fill:url(#a)"/><path fill="#fff" d="M206.53 328.64c19.99-106.35 27.58-154.69 10.84-169.27 16.44-19.88 38.94-26.68 47.14-26.68 4.66 0 8.55 2.29 11.88 6.99 11.78 16.61 11.39 55.25 3.16 78.7-4.98 14.22-28.59 63.04-73.02 110.26"/></g></svg>