<svg xmlns="http://www.w3.org/2000/svg" xml:space="preserve" width="361.7" height="430" viewBox="0 0 361.7 430"><g transform="translate(-7.14 -15.18)"><path d="M187.99 100.89c23.13-23.259 29.76-35.063 29.76-46.343 0-19.93-10.71-39.367-10.71-39.367s17.79 7.744 34.42 18.104c11.55 7.203 28.89 18.297 49.28 27.458 15.35 6.898 28.36 11.581 37.86 15.001 9.25 3.331 13.12 4.76 15.98 6.705 9.72 6.601 8.78 14.653 8.17 19.982l-.15 1.23c-3.38 30.81-6.05 56.79 2.93 71.77 4.11 6.86 13.31 12.49 13.31 12.49s-19.82 32.32-53.96 56.15c-3.58 40.24 30.35 36.28 30.35 36.28-8.9 22.57-71.85 90.1-76.75 95.89-19.12 22.65-54.32 56.23-61.67 61.2-6.67 4.49-11.48 7.74-18.82 7.74s-12.16-3.25-18.83-7.74c-7.35-4.97-42.55-38.55-61.67-61.2-4.9-5.79-67.849-73.32-76.743-95.89 0 0 33.929 3.96 30.343-36.28-34.132-23.83-53.95-56.15-53.95-56.15s9.193-5.63 13.308-12.49c8.981-14.98 6.308-40.96 2.922-71.77l-.141-1.23c-.62-5.328-1.554-13.38 8.165-19.981 2.862-1.945 6.732-3.374 15.981-6.705 9.5-3.42 22.511-8.103 37.865-15.001 20.39-9.161 37.72-20.255 49.28-27.458 16.63-10.361 34.41-18.104 34.41-18.104s-10.71 19.437-10.71 39.367c0 11.279 6.63 23.083 29.77 46.342" style="fill:#fff;fill-opacity:1"/><path fill="#fff" d="M168.77 329.31c-44.42-47.22-68.04-96.04-73.019-110.26-8.222-23.45-8.616-62.09 3.164-78.71 3.335-4.7 7.225-6.98 11.885-6.98 8.19 0 30.7 6.8 47.13 26.67-16.73 14.59-9.14 62.93 10.84 169.28"/><linearGradient id="a" x1="22.893" x2="353.08" y1="235.63" y2="235.63" gradientUnits="userSpaceOnUse"><stop offset="0" style="stop-color:#612c75"/><stop offset=".137" style="stop-color:#6e3e82"/><stop offset=".25" style="stop-color:#7b5190"/><stop offset=".358" style="stop-color:#a078ab"/><stop offset=".446" style="stop-color:#b790bd"/><stop offset=".5" style="stop-color:#bf99c3"/><stop offset=".554" style="stop-color:#b790bd"/><stop offset=".641" style="stop-color:#a078ab"/><stop offset=".75" style="stop-color:#7b5190"/><stop offset=".863" style="stop-color:#6e3e82"/><stop offset="1" style="stop-color:#612c75"/></linearGradient><path fill="url(#a)" d="M187.99 433.32c-3.73 0-6.31-1.75-12.24-5.75-5.94-4.01-40.33-36.63-59.2-58.98-18.879-22.36-50.611-57.45-65.161-78.69 25.474-5.43 21.273-52.37 21.273-52.37-33.352-21.49-49.77-47.03-49.77-47.03 18.394-14.73 16.912-45.86 12.264-88.13-.616-5.607-1.212-7.321 2.899-10.116 4.111-2.791 24.708-8.416 52.044-20.691C117.43 59.28 139.3 43.962 149.49 37.94c-8.39 26.157-.98 41.475 38.5 79.59 39.47-38.115 46.88-53.433 38.5-79.59 10.18 6.022 32.04 21.34 59.38 33.623 27.34 12.275 47.93 17.9 52.05 20.691 4.11 2.794 3.51 4.509 2.89 10.116-4.64 42.27-6.13 73.4 12.27 88.13 0 0-16.42 25.54-49.77 47.03 0 0-4.2 46.94 21.27 52.37-14.55 21.24-46.28 56.33-65.16 78.69-18.87 22.35-53.26 54.97-59.19 58.98-5.94 4-8.52 5.75-12.24 5.75m-6.66-80.09-2.36-12.5c-19.04-100.86-31.62-167.5-13.58-176.22l4.29-2.08-2.83-3.84c-18.53-25.04-45.76-33.14-56.05-33.14-7.21 0-13.545 3.57-18.336 10.32-13.521 19.07-13.051 60.57-4.175 85.89 5.47 15.61 32.641 71.61 84.011 122.6zm13.31 0 9.03-8.97c51.37-50.99 78.54-106.99 84.01-122.6 8.88-25.32 9.35-66.82-4.17-85.89-4.8-6.75-11.13-10.32-18.34-10.32-10.28 0-37.52 8.1-56.04 33.14l-2.84 3.84 4.29 2.08c18.04 8.72 5.46 75.36-13.58 176.22z" style="fill:url(#a)"/><path fill="#fff" d="M207.2 329.31c19.98-106.35 27.57-154.69 10.84-169.28 16.44-19.87 38.94-26.67 47.13-26.67 4.67 0 8.55 2.28 11.89 6.98 11.78 16.62 11.38 55.26 3.16 78.71-4.98 14.21-28.6 63.04-73.02 110.26"/></g></svg>