<svg xmlns="http://www.w3.org/2000/svg" xml:space="preserve" width="357.487" height="424.994" viewBox="0 0 357.487 424.994"><g transform="translate(-9.243 -17.016)"><path d="M187.99 101.73c22.86-22.993 29.41-34.661 29.41-45.809 0-19.697-10.58-38.905-10.58-38.905s17.58 7.652 34.02 17.894c11.42 7.12 28.55 18.085 48.7 27.137 15.18 6.818 28.04 11.446 37.42 14.827 9.15 3.291 12.97 4.702 15.8 6.625 9.61 6.524 8.68 14.485 8.07 19.751l-.14 1.22c-3.35 30.44-5.99 56.13 2.89 70.93 4.07 6.78 13.15 12.34 13.15 12.34s-19.58 31.95-53.32 55.5c-3.55 39.77 29.99 35.86 29.99 35.86-8.79 22.31-71.01 89.05-75.85 94.78-18.9 22.39-53.7 55.57-60.96 60.48-6.59 4.44-11.35 7.65-18.6 7.65-7.26 0-12.02-3.21-18.61-7.65-7.26-4.91-42.05-38.09-60.96-60.48-4.83-5.73-67.055-72.47-75.845-94.78 0 0 33.535 3.91 29.991-35.86-33.735-23.55-53.323-55.5-53.323-55.5s9.086-5.56 13.153-12.34c8.876-14.8 6.234-40.49 2.888-70.93l-.139-1.22c-.613-5.266-1.536-13.227 8.069-19.751 2.829-1.923 6.654-3.334 15.795-6.625 9.39-3.381 22.25-8.009 37.425-14.827C106.59 52.995 123.72 42.03 135.14 34.91c16.43-10.242 34.01-17.894 34.01-17.894s-10.58 19.208-10.58 38.905c0 11.148 6.55 22.816 29.42 45.809"/><path fill="#fff" d="M169 327.49c-43.91-46.67-67.25-94.93-72.176-108.98-8.126-23.18-8.516-61.37 3.127-77.79 3.299-4.65 7.139-6.91 11.749-6.91 8.09 0 30.34 6.73 46.58 26.37-16.54 14.42-9.04 62.19 10.72 167.31"/><linearGradient id="a" x1="24.813" x2="351.16" y1="234.9" y2="234.9" gradientUnits="userSpaceOnUse"><stop offset="0" style="stop-color:#626e77"/><stop offset=".074" style="stop-color:#718089"/><stop offset=".224" style="stop-color:#99adb9"/><stop offset=".25" style="stop-color:#a0b6c2"/><stop offset=".4" style="stop-color:#b0c9d8"/><stop offset=".5" style="stop-color:#b7d1e1"/><stop offset=".6" style="stop-color:#b0c9d8"/><stop offset=".75" style="stop-color:#a0b6c2"/><stop offset=".776" style="stop-color:#99adb9"/><stop offset=".925" style="stop-color:#718089"/><stop offset="1" style="stop-color:#626e77"/></linearGradient><path fill="url(#a)" d="M187.99 430.3c-3.68 0-6.24-1.74-12.1-5.69-5.87-3.96-39.86-36.2-58.51-58.29-18.658-22.1-50.023-56.79-64.402-77.78 25.177-5.36 21.026-51.76 21.026-51.76-32.965-21.24-49.191-46.49-49.191-46.49 18.18-14.56 16.715-45.32 12.121-87.1-.608-5.542-1.198-7.236 2.866-9.997 4.063-2.76 24.42-8.317 51.438-20.454 27.022-12.137 48.632-27.276 58.692-33.228-8.29 25.853-.96 40.992 38.06 78.669 39.01-37.677 46.34-52.816 38.05-78.669 10.06 5.952 31.67 21.091 58.69 33.228s47.38 17.694 51.44 20.454 3.47 4.455 2.87 9.997c-4.6 41.78-6.06 72.55 12.12 87.1 0 0-16.23 25.25-49.19 46.49 0 0-4.15 46.4 21.02 51.76-14.38 20.99-45.74 55.68-64.4 77.78-18.65 22.09-52.64 54.33-58.5 58.29-5.87 3.95-8.43 5.69-12.1 5.69m-6.58-79.17-2.34-12.35c-18.81-99.69-31.24-165.55-13.42-174.17l4.24-2.06-2.8-3.79C148.79 134.01 121.86 126 111.7 126c-7.12 0-13.388 3.53-18.123 10.21-13.363 18.84-12.9 59.86-4.126 84.89 5.406 15.42 32.269 70.78 83.039 121.18zm13.15 0 8.93-8.85c50.77-50.4 77.63-105.76 83.03-121.18 8.77-25.03 9.24-66.05-4.12-84.89-4.74-6.68-11.01-10.21-18.12-10.21-10.17 0-37.09 8.01-55.4 32.76l-2.8 3.79 4.24 2.06c17.82 8.62 5.39 74.48-13.42 174.17z" style="fill:url(#a)"/><path fill="#fff" d="M206.98 327.49c19.75-105.12 27.25-152.9 10.71-167.31 16.25-19.64 38.49-26.37 46.59-26.37 4.6 0 8.44 2.27 11.74 6.91 11.64 16.42 11.26 54.61 3.13 77.79-4.93 14.05-28.27 62.31-72.17 108.98"/></g></svg>