<svg xmlns="http://www.w3.org/2000/svg" width="32.001" height="26.305" viewBox="0 0 32.001 26.305"><path fill="#444" d="M15.55 7.068a5.4 5.4 0 0 1 .944.004c1.079.131 2.04.905 2.423 1.92.195.486.233 1.023.172 1.54a3.06 3.06 0 0 1-1.613 2.265 3.3 3.3 0 0 1-2.82.061 3.03 3.03 0 0 1-1.643-1.907 3.04 3.04 0 0 1 .269-2.361 3 3 0 0 1 2.269-1.521zm-7.851 5.235c.658 4.112 4.086 7.202 8.26 7.315 4.118-.032 7.715-3.214 8.313-7.276.079.685.059.372.076.938 0 4.054-3.734 7.507-8.354 7.507S7.62 17.334 7.62 13.28c.017-.579-.004-.253.08-.976zM3.828 0c-.125.003-.251 0-.376.009-.257.019-.343.04-.563.082-.502.107-.971.245-1.4.515-.46.29-.87.663-1.142 1.127-.164.28-.33.64-.34.972-.011.402-.025.817.103 1.204.097.369.442.61.778.744.296.059.61.055.904-.013.474-.129.685-.687.609-1.136-.042-.334-.314-.592-.331-.933-.05-.488.319-.952.785-1.067.553-.128 1.16-.141 1.68.115.82.376 1.367 1.163 1.702 1.976.49 1.236.587 2.638.204 3.916-.141.49-.396.935-.583 1.407-1.193 2.875-1.374 6.171-.41 9.138.706 2.23 2.055 4.259 3.873 5.736a11.16 11.16 0 0 0 6.145 2.496c1.248.085 2.498-.151 3.68-.535a11.5 11.5 0 0 0 3.788-2.162 12.3 12.3 0 0 0 3.7-5.767c.944-3.124.643-6.584-.756-9.525a5.1 5.1 0 0 1-.53-2.256c-.042-1.188.255-2.407.938-3.39.377-.544.916-.995 1.563-1.17.405-.109.833-.07 1.24.005.48.087.869.538.867 1.027-.011.302-.21.546-.303.822-.081.386-.053.849.256 1.134.262.236.639.227.969.217.34-.002.629-.224.859-.453.258-.365.262-.836.264-1.266.005-.286-.02-.58-.151-.84-.297-.615-.74-1.187-1.352-1.513-.464-.245-.956-.454-1.476-.541-.535-.095-1.076-.013-1.614-.004-1.104.101-2.004.869-2.668 1.704-.455.597-.93 1.226-1.076 1.98-.145.776-.23 1.563-.283 2.35-.02 1.102.308 2.171.395 3.264.042.867-.005 1.746-.267 2.578a22 22 0 0 1-.984 2.474c-.412.835-1.102 1.498-1.85 2.037a8.33 8.33 0 0 1-4.48 1.565c-1.882.031-3.744-.667-5.213-1.829-.613-.488-1.156-1.082-1.5-1.791a22 22 0 0 1-.778-1.884 7 7 0 0 1-.4-3.725c.132-.982.386-1.958.312-2.955A19 19 0 0 0 8.335 3.7c-.132-.627-.502-1.162-.872-1.671C7 1.409 6.459.829 5.782.444 5.376.22 4.904.115 4.442.053 4.098.012 4.302.032 3.83.002z"/></svg>