<svg xmlns="http://www.w3.org/2000/svg" width="18.25" height="28.514" viewBox="0 0 18.25 28.514"><path fill="#444" d="m9.402.001.175.008a4.14 4.14 0 0 1 2.594 1.147c.783.751 1.259 1.827 1.245 2.916.047 1.429-.741 2.854-1.975 3.576-.265.152-.539.306-.845.351.589.111 1.186.199 1.761.377 1.631.471 3.179 1.334 4.311 2.615.814.903 1.385 2.042 1.548 3.251.048 1.401.031 1.552.03 1.699v12.573h-3.763v-1.282h.003c.002-5.858.003-2.725-.002-9.399-.014-.419.036-.845-.052-1.258-.123-.594-.571-1.096-1.13-1.322q-.156-.044-.309-.092c-.321-.033-.649-.025-.955.086-.545.218-.987.692-1.127 1.267-.086.369-.087.75-.083 1.126-.006 3.607-.001 7.214-.004 10.82a943 943 0 0 0-3.364-.001c-.001-3.711.004-7.421-.004-11.132a2.8 2.8 0 0 0-.14-1.012 1.9 1.9 0 0 0-.898-.998l-.38-.139a2.3 2.3 0 0 0-.809.002c-.11.037-.22.075-.331.105a1.91 1.91 0 0 0-1.094 1.722c-.012 3.816-.006 7.633-.004 11.449-1.279.002-2.521 0-3.799-.006L0 28.206c.008-2.596.008-5.191.008-7.787.011-1.788-.021-3.577.024-5.364.093-1.039.176-1.586.381-2.096q.102-.245.211-.488c.498-1.017 1.279-1.872 2.175-2.554a9.5 9.5 0 0 1 2.946-1.479l.04-.019q.84-.246 1.706-.38.256-.008.512-.026c-1.042-.304-1.913-1.092-2.387-2.06A4.124 4.124 0 0 1 6.939.744C7.704.209 8.484.019 9.404 0Z"/></svg>