<svg xmlns="http://www.w3.org/2000/svg" xml:space="preserve" width="437.277" height="446.864" style="clip-rule:evenodd;fill-rule:evenodd;stroke-linejoin:round;stroke-miterlimit:2" viewBox="0 0 437.277 446.864"><path d="M205.9 446.636c-1.496-.264-7.078-1.035-12.407-1.715-21.614-2.757-48.687-11.86-71.225-23.95-19.058-10.22-22.462-14.01-9.216-10.258 42.28 11.98 98.544-5.155 143.483-43.697 24.494-21.007 38.18-41.135 44.347-65.217 8.899-34.756 5.501-58.34-11.792-81.85-6.647-9.036-13.972-14.875-27.162-21.648-9.068-4.658-10.485-5.732-8.837-6.673 1.158-.664 4.697-.815 8.628-.374 21.38 2.401 39.123 12.033 56.751 30.81 19.31 20.567 33.098 48.627 37.463 76.24 1.66 10.514 1.407 31.574-.493 40.696-8.514 40.892-33.917 75.342-68.586 93.003-19.092 9.726-37.65 14.14-61.938 14.721-8.964.218-17.521.177-19.015-.088m-89.107-81.685c-11.089-.856-16.091-2.002-28.868-6.607-45.42-16.37-75.169-51.254-85.404-100.145-3.084-14.74-3.398-46.688-.62-62.995a233.486 238.584 0 0 1 23.26-69.914c10.001-19.474 13.71-22.952 10.038-9.414-9.918 36.543.345 83.306 27.615 125.836 21.855 34.078 48.583 57.22 75.156 65.06 35.353 10.43 60.248 7.164 83.917-11.017 8.843-6.792 14.557-14.277 21.186-27.755 4.666-9.48 5.594-10.742 6.573-8.951 1.694 3.094-.868 20.553-4.31 29.357-5.19 13.28-11.227 22.313-23.138 34.607-12.836 13.251-23.503 21.029-39.56 28.844-21.797 10.608-43.128 14.85-65.845 13.094m283.901-26.232c.293-1.677 1.38-6.798 2.415-11.381 4.316-19.055 1.858-47.62-6.157-71.62-14.277-42.737-47.286-86.425-79.127-104.718-14.767-8.483-39.85-14.124-58.99-13.267-20.321.91-35.901 7.982-50.782 23.05-6.74 6.82-9.333 10.537-14.339 20.54-5.544 11.086-6.179 11.936-6.853 9.19-1.192-4.85 1.321-20.046 4.866-29.441 13.042-34.557 51.706-64.834 94.676-74.14 25.86-5.6 51.792-1.735 78.452 11.695 51.438 25.911 78.243 80.455 71.355 145.2-3.37 31.69-16.079 68.903-32.596 95.45-2.122 3.411-3.563 3.14-2.92-.558m-230.113-83.237c-18.999-2.684-37.684-13.54-54.213-31.494-18.45-20.044-31.083-45.51-36.03-72.645-2.741-15.036-1.762-38.781 2.153-52.187 11.7-40.059 35.282-69.082 69.525-85.572 45.33-21.828 106.187-17.123 161.42 12.483 19.055 10.214 22.464 14.01 9.216 10.255-29.83-8.451-65.126-3.01-101.57 15.656-36.267 18.576-68.48 49.042-80.5 76.133-4.032 9.09-8.221 25.617-9.767 38.563-2.696 22.534 2.476 42.3 15.799 60.411 6.644 9.03 13.972 14.876 27.134 21.637 7.867 4.041 10.356 5.8 9.235 6.524-1.544 1.001-6.349 1.09-12.402.236" style="fill-rule:nonzero;stroke-width:3.11374"/></svg>