<?xml version="1.0" encoding="UTF-8" standalone="no"?>
<!-- Generator: Adobe Illustrator 15.1.0, SVG Export Plug-In . SVG Version: 6.00 Build 0)  -->

<svg
   version="1.1"
   id="Layer_1"
   x="0px"
   y="0px"
   width="150.00127"
   height="106.512"
   viewBox="0 0 150.00127 106.512"
   enable-background="new 0 0 160 112"
   xml:space="preserve"
   xmlns="http://www.w3.org/2000/svg"
   xmlns:svg="http://www.w3.org/2000/svg"><defs
   id="defs11" />
<g
   id="Layer_1_1_"
   transform="translate(-4.5204009,-2.869)">
</g>
<g
   id="Layer_3"
   display="none"
   transform="translate(-4.5204009,-2.869)">
</g>
<g
   id="g11"
   transform="translate(-4.5204009,-2.869)">
	<path
   d="m 25.462,90.555 1.78,-4.565 C 26.555,85.743 25.928,85.506 25.364,85.287 18.363,82.559 12.238,77.733 8.56,72.05 4.138,65.215 3.328,57.68 6.221,50.26 12.741,33.531 40.203,16.227 74.878,16.227 c 1.495,0 3.016,0.031 4.519,0.095 l 0.623,0.026 5.254,-13.479 48.305,18.827 -1.779,4.564 c 0.687,0.248 1.314,0.484 1.878,0.704 7.001,2.729 13.126,7.555 16.804,13.238 4.423,6.834 5.231,14.369 2.34,21.788 -6.52,16.729 -33.982,34.033 -68.654,34.033 -1.497,0 -3.018,-0.031 -4.521,-0.095 l -0.623,-0.026 -5.254,13.479 z m 88.664,-18.949 c 11.608,-5.282 17.924,-12.37 19.4,-16.159 1.048,-2.688 0.821,-5.064 -0.694,-7.266 -1.256,-1.82 -3.396,-3.45 -5.727,-4.358 -0.622,-0.243 -1.25,-0.476 -1.879,-0.699 z M 44.915,40.644 c -11.608,5.282 -17.924,12.37 -19.4,16.159 -1.048,2.688 -0.821,5.064 0.694,7.266 1.256,1.82 3.396,3.45 5.727,4.358 0.622,0.243 1.25,0.476 1.879,0.699 z"
   id="path1" />
	<linearGradient
   id="SVGID_1_"
   gradientUnits="userSpaceOnUse"
   x1="7.8799"
   y1="56.1255"
   x2="151.1611"
   y2="56.1255">
		<stop
   offset="0"
   style="stop-color:#BB2C26"
   id="stop1" />
		<stop
   offset="0.0737"
   style="stop-color:#C43E25"
   id="stop2" />
		<stop
   offset="0.2216"
   style="stop-color:#DB6E23"
   id="stop3" />
		<stop
   offset="0.25"
   style="stop-color:#E07823"
   id="stop4" />
		<stop
   offset="0.4023"
   style="stop-color:#F18F1F"
   id="stop5" />
		<stop
   offset="0.5"
   style="stop-color:#F7981D"
   id="stop6" />
		<stop
   offset="0.5977"
   style="stop-color:#F18F1F"
   id="stop7" />
		<stop
   offset="0.75"
   style="stop-color:#E07823"
   id="stop8" />
		<stop
   offset="0.7784"
   style="stop-color:#DB6E23"
   id="stop9" />
		<stop
   offset="0.9263"
   style="stop-color:#C43E25"
   id="stop10" />
		<stop
   offset="1"
   style="stop-color:#BB2C26"
   id="stop11" />
	</linearGradient>
	<path
   fill="url(#SVGID_1_)"
   d="m 73.955,72.833 c -3.807,9.08 -11.7,14.442 -17.881,12.035 -6.33,-2.469 -8.465,-12.152 -4.771,-21.63 3.308,-8.489 10.171,-13.935 16.115,-13.205 l -6.853,17.58 z m 2.661,1.037 C 72.299,84.417 65.465,88.632 56.426,90.183 48.336,91.574 39.401,89.415 30.587,86.614 l -0.796,2.039 42.076,16.399 11.176,-28.678 z m 5.809,-35.49 c 4.317,-10.547 11.151,-14.762 20.19,-16.313 8.09,-1.391 17.025,0.768 25.838,3.569 L 129.249,23.597 87.174,7.198 75.998,35.875 Z m 23.91,44.012 16.923,-43.425 c 1.684,0.503 3.378,1.085 5.063,1.741 5.02,1.956 11.578,7.599 8.321,15.954 -2.222,5.699 -10.952,14.178 -24.835,19.543 l -3.851,9.878 -13.991,-5.452 c -3.112,0.386 -6.367,0.603 -9.762,0.621 l -4.418,11.336 c 36.478,1.536 63.9,-16.365 69.92,-31.812 5.395,-13.84 -5.063,-25.95 -17.242,-30.697 -7.502,-2.925 -17.701,-5.475 -26.932,-4.623 6.732,3.854 8.904,14.227 4.863,24.592 C 106.063,61.16 96.468,67.449 88.552,64.364 88.311,64.27 88.073,64.169 87.842,64.06 L 94.78,46.256 52.706,29.858 35.783,73.283 C 34.099,72.78 32.406,72.198 30.72,71.542 25.701,69.586 19.142,63.944 22.399,55.588 24.621,49.889 33.35,41.41 47.234,36.045 l 3.851,-9.878 13.991,5.453 c 3.112,-0.387 6.368,-0.604 9.762,-0.622 l 4.418,-11.336 c -36.477,-1.535 -63.9,16.364 -69.92,31.812 -5.395,13.84 5.063,25.951 17.242,30.697 7.503,2.925 17.701,5.475 26.932,4.623 C 46.778,82.94 44.606,72.567 48.647,62.202 52.978,51.09 62.573,44.801 70.489,47.886 c 0.241,0.094 0.479,0.195 0.71,0.304 l -6.939,17.802 42.075,16.4 m -7.86,-37.755 -6.853,17.58 c 5.944,0.729 12.808,-4.716 16.115,-13.205 3.694,-9.478 1.56,-19.161 -4.771,-21.629 -6.181,-2.408 -14.074,2.954 -17.881,12.034 z M 64.26,65.992"
   id="path11"
   style="fill:url(#SVGID_1_)" />
</g>
</svg>
