<?xml version="1.0" encoding="UTF-8" standalone="no"?>
<!-- Generator: Adobe Illustrator 15.1.0, SVG Export Plug-In . SVG Version: 6.00 Build 0)  -->

<svg
   version="1.1"
   id="Layer_1"
   x="0px"
   y="0px"
   width="150.00078"
   height="106.512"
   viewBox="0 0 150.00078 106.512"
   enable-background="new 0 0 160 112"
   xml:space="preserve"
   xmlns="http://www.w3.org/2000/svg"
   xmlns:svg="http://www.w3.org/2000/svg"><defs
   id="defs11" />
<g
   id="Layer_1_1_"
   transform="translate(-5.0758959,-2.869)">
</g>
<g
   id="Layer_3"
   display="none"
   transform="translate(-5.0758959,-2.869)">
</g>
<g
   id="g11"
   transform="translate(-5.0758959,-2.869)">
	<path
   d="m 26.018,90.555 1.78,-4.565 C 27.111,85.743 26.483,85.506 25.92,85.287 18.919,82.559 12.794,77.733 9.116,72.05 4.693,65.215 3.884,57.68 6.776,50.26 13.296,33.531 40.759,16.227 75.433,16.227 c 1.495,0 3.016,0.031 4.519,0.095 l 0.623,0.026 5.254,-13.479 48.305,18.827 -1.779,4.564 c 0.687,0.248 1.314,0.484 1.878,0.704 7.001,2.729 13.126,7.555 16.804,13.238 4.423,6.834 5.231,14.369 2.34,21.788 -6.52,16.729 -33.982,34.033 -68.654,34.033 -1.497,0 -3.018,-0.031 -4.521,-0.095 l -0.623,-0.026 -5.254,13.479 z m 88.664,-18.949 c 11.608,-5.282 17.924,-12.37 19.4,-16.159 1.048,-2.688 0.821,-5.064 -0.694,-7.266 -1.256,-1.82 -3.396,-3.45 -5.727,-4.358 -0.622,-0.243 -1.25,-0.476 -1.879,-0.699 z M 45.471,40.644 c -11.609,5.282 -17.924,12.37 -19.4,16.159 -1.048,2.688 -0.821,5.064 0.695,7.266 1.255,1.82 3.396,3.45 5.726,4.358 0.623,0.243 1.25,0.476 1.88,0.699 z"
   id="path1" />
	<linearGradient
   id="SVGID_1_"
   gradientUnits="userSpaceOnUse"
   x1="8.4355001"
   y1="56.1255"
   x2="151.7168"
   y2="56.1255">
		<stop
   offset="0"
   style="stop-color:#8D742F"
   id="stop1" />
		<stop
   offset="0.1336"
   style="stop-color:#9F8641"
   id="stop2" />
		<stop
   offset="0.25"
   style="stop-color:#B39A54"
   id="stop3" />
		<stop
   offset="0.2646"
   style="stop-color:#B69D57"
   id="stop4" />
		<stop
   offset="0.4104"
   style="stop-color:#CEB46C"
   id="stop5" />
		<stop
   offset="0.5"
   style="stop-color:#D7BD74"
   id="stop6" />
		<stop
   offset="0.5896"
   style="stop-color:#CEB46C"
   id="stop7" />
		<stop
   offset="0.7354"
   style="stop-color:#B69D57"
   id="stop8" />
		<stop
   offset="0.75"
   style="stop-color:#B39A54"
   id="stop9" />
		<stop
   offset="0.8664"
   style="stop-color:#9F8641"
   id="stop10" />
		<stop
   offset="1"
   style="stop-color:#8D742F"
   id="stop11" />
	</linearGradient>
	<path
   fill="url(#SVGID_1_)"
   d="M 74.511,72.833 C 70.704,81.913 62.811,87.275 56.63,84.868 50.3,82.399 48.165,72.716 51.859,63.238 55.167,54.749 62.03,49.303 67.974,50.033 l -6.853,17.58 z m 2.661,1.037 C 72.855,84.417 66.021,88.632 56.982,90.183 48.892,91.574 39.957,89.415 31.143,86.614 L 30.348,88.653 72.424,105.052 83.6,76.374 Z M 82.98,38.38 c 4.317,-10.547 11.151,-14.762 20.19,-16.313 8.09,-1.391 17.025,0.768 25.838,3.569 L 129.804,23.597 87.729,7.198 76.554,35.875 Z m 23.911,44.012 16.923,-43.425 c 1.684,0.503 3.378,1.085 5.063,1.741 5.02,1.956 11.578,7.599 8.321,15.954 -2.222,5.699 -10.952,14.178 -24.835,19.543 l -3.851,9.878 -13.991,-5.452 c -3.112,0.386 -6.367,0.603 -9.762,0.621 l -4.418,11.336 c 36.478,1.536 63.9,-16.365 69.92,-31.812 5.395,-13.84 -5.063,-25.95 -17.242,-30.697 -7.502,-2.925 -17.701,-5.475 -26.932,-4.623 6.732,3.854 8.904,14.227 4.863,24.592 C 106.619,61.16 97.024,67.449 89.108,64.364 88.867,64.27 88.629,64.169 88.398,64.06 L 95.336,46.256 53.262,29.858 36.338,73.283 C 34.655,72.78 32.961,72.198 31.276,71.542 26.257,69.586 19.697,63.944 22.954,55.588 25.176,49.889 33.905,41.41 47.789,36.045 l 3.851,-9.878 13.991,5.453 c 3.112,-0.387 6.368,-0.604 9.762,-0.622 l 4.418,-11.336 c -36.477,-1.535 -63.9,16.364 -69.92,31.812 -5.395,13.84 5.063,25.951 17.243,30.697 7.502,2.925 17.701,5.475 26.931,4.623 C 47.333,82.94 45.161,72.567 49.201,62.202 53.533,51.09 63.127,44.801 71.043,47.886 c 0.241,0.094 0.479,0.195 0.71,0.304 l -6.938,17.803 42.076,16.399 M 99.03,44.637 92.177,62.217 c 5.944,0.729 12.808,-4.716 16.115,-13.205 3.694,-9.478 1.56,-19.161 -4.771,-21.629 C 97.34,24.975 89.447,30.337 85.64,39.417 Z M 64.815,65.992"
   id="path11"
   style="fill:url(#SVGID_1_)" />
</g>
</svg>
