<?xml version="1.0" encoding="UTF-8" standalone="no"?>
<!-- Generator: Adobe Illustrator 15.1.0, SVG Export Plug-In . SVG Version: 6.00 Build 0)  -->

<svg
   version="1.1"
   id="Layer_1"
   x="0px"
   y="0px"
   width="150.00078"
   height="106.512"
   viewBox="0 0 150.00078 106.512"
   enable-background="new 0 0 160 112"
   xml:space="preserve"
   xmlns="http://www.w3.org/2000/svg"
   xmlns:svg="http://www.w3.org/2000/svg"><defs
   id="defs11" />
<g
   id="Layer_1_1_"
   transform="translate(-4.5198959,-2.74)">
</g>
<g
   id="Layer_3"
   display="none"
   transform="translate(-4.5198959,-2.74)">
</g>
<g
   id="g11"
   transform="translate(-4.5198959,-2.74)">
	<path
   d="m 25.462,90.427 1.78,-4.565 C 26.555,85.615 25.928,85.378 25.364,85.159 18.363,82.431 12.238,77.605 8.56,71.922 4.137,65.088 3.328,57.553 6.22,50.133 12.74,33.404 40.202,16.1 74.877,16.1 c 1.495,0 3.016,0.031 4.519,0.095 l 0.623,0.026 5.254,-13.481 48.305,18.827 -1.779,4.564 c 0.687,0.248 1.314,0.484 1.878,0.704 7.001,2.729 13.126,7.555 16.804,13.238 4.423,6.834 5.231,14.369 2.34,21.788 -6.52,16.729 -33.982,34.033 -68.654,34.033 -1.497,0 -3.018,-0.031 -4.521,-0.095 l -0.623,-0.026 -5.254,13.479 z m 88.664,-18.948 c 11.608,-5.282 17.924,-12.37 19.4,-16.159 1.048,-2.688 0.821,-5.064 -0.694,-7.266 -1.256,-1.82 -3.396,-3.45 -5.727,-4.358 -0.622,-0.243 -1.25,-0.476 -1.879,-0.699 z M 44.915,40.516 c -11.608,5.282 -17.924,12.37 -19.4,16.159 -1.048,2.688 -0.821,5.064 0.694,7.266 1.256,1.82 3.396,3.45 5.727,4.358 0.622,0.243 1.25,0.476 1.879,0.699 z"
   id="path1" />
	<linearGradient
   id="SVGID_1_"
   gradientUnits="userSpaceOnUse"
   x1="7.8799"
   y1="55.997601"
   x2="151.1611"
   y2="55.997601">
		<stop
   offset="0"
   style="stop-color:#612C75"
   id="stop1" />
		<stop
   offset="0.1367"
   style="stop-color:#6E3E82"
   id="stop2" />
		<stop
   offset="0.25"
   style="stop-color:#7B5190"
   id="stop3" />
		<stop
   offset="0.3585"
   style="stop-color:#A078AB"
   id="stop4" />
		<stop
   offset="0.4462"
   style="stop-color:#B790BD"
   id="stop5" />
		<stop
   offset="0.5"
   style="stop-color:#BF99C3"
   id="stop6" />
		<stop
   offset="0.5538"
   style="stop-color:#B790BD"
   id="stop7" />
		<stop
   offset="0.6415"
   style="stop-color:#A078AB"
   id="stop8" />
		<stop
   offset="0.75"
   style="stop-color:#7B5190"
   id="stop9" />
		<stop
   offset="0.8633"
   style="stop-color:#6E3E82"
   id="stop10" />
		<stop
   offset="1"
   style="stop-color:#612C75"
   id="stop11" />
	</linearGradient>
	<path
   fill="url(#SVGID_1_)"
   d="M 73.955,72.705 C 70.148,81.785 62.255,87.147 56.074,84.74 49.744,82.271 47.609,72.588 51.303,63.11 54.611,54.621 61.474,49.175 67.418,49.905 l -6.853,17.58 z m 2.661,1.037 C 72.299,84.289 65.465,88.504 56.426,90.055 48.336,91.446 39.401,89.287 30.587,86.486 l -0.796,2.039 42.076,16.399 11.176,-28.678 z m 5.809,-35.49 c 4.317,-10.547 11.151,-14.762 20.19,-16.313 8.09,-1.391 17.025,0.768 25.838,3.569 L 129.249,23.469 87.174,7.07 75.998,35.747 Z m 23.91,44.012 16.923,-43.425 c 1.684,0.503 3.378,1.085 5.063,1.741 5.02,1.956 11.578,7.599 8.321,15.954 -2.222,5.699 -10.952,14.178 -24.835,19.543 l -3.851,9.878 -13.991,-5.452 c -3.112,0.386 -6.367,0.603 -9.762,0.621 L 79.785,92.46 c 36.478,1.536 63.9,-16.365 69.92,-31.812 5.395,-13.84 -5.063,-25.95 -17.242,-30.697 -7.502,-2.925 -17.701,-5.475 -26.932,-4.623 6.732,3.854 8.904,14.227 4.863,24.592 -4.331,11.112 -13.926,17.401 -21.842,14.316 -0.241,-0.094 -0.479,-0.195 -0.71,-0.304 L 94.78,46.128 52.706,29.73 35.783,73.155 C 34.099,72.652 32.406,72.07 30.72,71.414 25.701,69.458 19.142,63.816 22.399,55.46 24.621,49.761 33.35,41.282 47.234,35.917 l 3.851,-9.878 13.991,5.453 c 3.112,-0.387 6.368,-0.604 9.762,-0.622 l 4.418,-11.336 c -36.477,-1.535 -63.9,16.364 -69.92,31.812 -5.395,13.84 5.063,25.951 17.242,30.697 7.503,2.925 17.701,5.475 26.932,4.623 -6.732,-3.854 -8.904,-14.227 -4.863,-24.592 4.331,-11.112 13.926,-17.401 21.842,-14.316 0.241,0.094 0.479,0.195 0.71,0.304 l -6.939,17.802 42.075,16.4 m -7.86,-37.755 -6.853,17.58 c 5.944,0.729 12.808,-4.716 16.115,-13.205 3.694,-9.478 1.56,-19.161 -4.771,-21.629 -6.181,-2.408 -14.074,2.954 -17.881,12.034 z M 64.26,65.864"
   id="path11"
   style="fill:url(#SVGID_1_)" />
</g>
</svg>
