<?xml version="1.0" encoding="UTF-8" standalone="no"?>
<!-- Generator: Adobe Illustrator 15.1.0, SVG Export Plug-In . SVG Version: 6.00 Build 0)  -->

<svg
   version="1.1"
   id="Layer_1"
   x="0px"
   y="0px"
   width="150.00011"
   height="102.445"
   viewBox="0 0 150.00011 102.445"
   enable-background="new 0 0 160 112"
   xml:space="preserve"
   xmlns="http://www.w3.org/2000/svg"
   xmlns:svg="http://www.w3.org/2000/svg"><defs
   id="defs1" />
<g
   id="Layer_1_1_"
   transform="translate(-4.6321335,-4.775)">
</g>
<g
   id="Layer_3"
   display="none"
   transform="translate(-4.6321335,-4.775)">
</g>
<g
   id="g1"
   transform="translate(-4.6321335,-4.775)">
	<path
   d="m 73.806,73.488 c -3.986,9.506 -12.25,15.12 -18.72,12.6 C 48.46,83.504 46.224,73.366 50.092,63.444 53.555,54.556 60.74,48.855 66.963,49.619 l -7.174,18.405 z m 2.785,1.086 C 72.071,85.616 64.917,90.028 55.453,91.652 46.984,93.108 37.63,90.849 28.403,87.916 L 27.57,90.051 71.618,107.22 83.32,77.196 Z M 82.672,37.42 c 4.521,-11.042 11.674,-15.454 21.139,-17.079 8.469,-1.455 17.822,0.804 27.049,3.737 L 131.693,21.943 87.645,4.775 75.944,34.798 Z m 25.031,46.075 17.718,-45.461 c 1.762,0.526 3.536,1.136 5.299,1.823 5.255,2.048 12.122,7.955 8.712,16.702 -2.326,5.966 -11.465,14.843 -26,20.459 L 109.4,87.36 94.754,81.652 c -3.259,0.403 -6.666,0.631 -10.221,0.65 L 79.909,94.17 c 38.189,1.608 66.897,-17.133 73.199,-33.304 5.648,-14.488 -5.301,-27.167 -18.051,-32.137 -7.854,-3.062 -18.53,-5.731 -28.195,-4.84 7.049,4.034 9.322,14.894 5.093,25.745 -4.534,11.634 -14.579,18.218 -22.866,14.988 -0.253,-0.099 -0.501,-0.205 -0.744,-0.318 L 95.609,45.665 51.56,28.499 33.843,73.96 C 32.082,73.434 30.308,72.824 28.544,72.137 23.29,70.089 16.422,64.183 19.832,55.435 c 2.326,-5.966 11.465,-14.843 26,-20.459 l 4.031,-10.342 14.648,5.709 c 3.258,-0.404 6.666,-0.632 10.219,-0.651 L 79.355,17.825 C 41.167,16.217 12.458,34.956 6.156,51.128 c -5.647,14.488 5.301,27.168 18.051,32.137 7.854,3.062 18.531,5.731 28.195,4.84 C 45.353,84.071 43.08,73.211 47.31,62.36 51.845,50.726 61.889,44.142 70.176,47.372 c 0.253,0.099 0.501,0.205 0.744,0.318 l -7.264,18.638 44.047,17.167 M 99.475,43.97 92.301,62.375 c 6.223,0.764 13.408,-4.938 16.871,-13.825 3.867,-9.922 1.633,-20.06 -4.994,-22.643 C 97.707,23.386 89.443,29 85.458,38.506 Z M 63.656,66.327"
   id="path1" />
</g>
</svg>
