<svg xmlns="http://www.w3.org/2000/svg" xml:space="preserve" width="150" height="150" viewBox="0 0 150 150"><path fill="#5d5e61" d="m36.615 87.658-22.084 31.727c-19.375-26.328-19.375-62.443 0-88.769l22.082 31.726L23.956 75zM75 23.956l12.66 12.658 31.726-22.083c-26.328-19.375-62.444-19.375-88.77 0l31.727 22.083zm0 102.086-12.657-12.656-31.727 22.084c26.326 19.373 62.441 19.373 88.767 0l-31.727-22.085zm60.47-95.426-22.083 31.727L126.043 75l-12.658 12.657 22.084 31.727c19.375-26.326 19.375-62.44 0-88.767m12.945 117.798-42.77-61.446L117.615 75l-11.97-11.968 42.77-61.446-61.446 42.77L75 32.386l-11.97 11.97L1.586 1.585l42.77 61.444L32.386 75l11.97 11.97-42.77 61.443 61.446-42.769L75 117.612l11.97-11.969zM75 83.896 66.102 75 75 66.103 83.897 75z"/><path d="m28.873 88.345-14.139 20.312c-11.63-20.845-11.63-46.47 0-67.314l14.138 20.312L15.527 75zm106.393-47-14.139 20.31L134.471 75l-13.344 13.345 14.14 20.313c11.628-20.847 11.628-46.47 0-67.314M75 15.526l13.346 13.347 20.313-14.14c-20.848-11.632-46.47-11.632-67.317 0l20.313 14.14zm0 118.943-13.346-13.344-20.312 14.14c20.845 11.63 46.468 11.63 67.314 0l-20.313-14.14zM109.183 75l-11.28 11.28 26.618 38.24-38.24-26.617L75 109.183 63.72 97.904 25.48 124.52l26.615-38.239-11.282-11.28L52.095 63.72 25.478 25.48l38.24 26.617L75 40.816l11.282 11.281 38.24-26.618-26.617 38.24zM75 57.672 57.673 75 75 92.326 92.327 75z"/></svg>