<svg xmlns="http://www.w3.org/2000/svg" xml:space="preserve" width="150" height="150" viewBox="0 0 150 150"><g transform="translate(-2.14 -2.834)"><path d="m38.755 90.492-22.084 31.727c-19.374-26.327-19.374-62.442 0-88.769l22.083 31.726-12.657 12.658ZM77.14 26.79l12.658 12.658 31.727-22.083c-26.327-19.375-62.442-19.375-88.768 0l31.727 22.083zm0 102.086L64.483 116.22l-31.727 22.084c26.326 19.373 62.441 19.373 88.767 0l-31.728-22.085Zm60.47-95.426-22.084 31.727 12.656 12.656-12.657 12.657 22.085 31.727c19.373-26.325 19.374-62.441 0-88.767m12.944 117.798-42.77-61.446 11.97-11.969-11.968-11.968 42.77-61.446-61.446 42.77L77.14 35.22 65.171 47.188 3.727 4.42l42.769 61.445-11.97 11.969 11.97 11.97-42.77 61.444 61.445-42.769 11.969 11.967 11.969-11.969ZM77.14 86.73l-8.897-8.896 8.897-8.897 8.897 8.896z"/><linearGradient id="a" x1="27.62" x2="126.662" y1="127.355" y2="28.313" gradientUnits="userSpaceOnUse"><stop offset="0" style="stop-color:#bb2c26"/><stop offset=".03" style="stop-color:#be3226"/><stop offset=".07" style="stop-color:#c64225"/><stop offset=".114" style="stop-color:#d35d24"/><stop offset=".15" style="stop-color:#e07823"/><stop offset=".159" style="stop-color:#e17a23"/><stop offset=".258" style="stop-color:#ee8b1f"/><stop offset=".365" style="stop-color:#f5951e"/><stop offset=".5" style="stop-color:#f7981d"/><stop offset=".634" style="stop-color:#f5951e"/><stop offset=".742" style="stop-color:#ee8b1f"/><stop offset=".841" style="stop-color:#e17a23"/><stop offset=".85" style="stop-color:#e07823"/><stop offset=".86" style="stop-color:#db6e23"/><stop offset=".896" style="stop-color:#cd5125"/><stop offset=".931" style="stop-color:#c33d25"/><stop offset=".966" style="stop-color:#bd3026"/><stop offset="1" style="stop-color:#bb2c26"/></linearGradient><path fill="url(#a)" d="m31.014 91.18-14.138 20.312C5.243 90.646 5.244 65.021 16.874 44.177l14.139 20.312-13.346 13.345Zm106.392-47.002-14.138 20.311 13.344 13.345-13.346 13.345 14.14 20.313c11.63-20.846 11.63-46.471 0-67.314M77.14 18.361l13.347 13.347 20.312-14.14c-20.846-11.632-46.469-11.632-67.315 0l20.313 14.139zm0 118.944-13.344-13.344L43.483 138.1c20.846 11.63 46.469 11.63 67.314 0l-20.313-14.14Zm34.185-59.472-11.281 11.281 26.617 38.24-38.24-26.617-11.281 11.28-11.28-11.279-38.24 26.616 26.617-38.239-11.282-11.281 11.28-11.281-26.615-38.24L65.858 54.93 77.14 43.648 88.423 54.93l38.238-26.618-26.616 38.24ZM77.14 60.507 59.813 77.834 77.14 95.16l17.326-17.327Z" style="fill:url(#a)"/></g></svg>