<svg xmlns="http://www.w3.org/2000/svg" xml:space="preserve" width="149.999" height="150" viewBox="0 0 149.999 150"><g transform="translate(-2.727 -2.834)"><path d="m39.341 90.492-22.084 31.727c-19.374-26.327-19.374-62.442 0-88.769L39.34 65.176 26.683 77.834ZM77.725 26.79l12.658 12.658 31.727-22.083c-26.326-19.375-62.441-19.375-88.767 0l31.726 22.083zm0 102.086L65.068 116.22l-31.726 22.084c26.325 19.373 62.44 19.373 88.767 0L90.38 116.219Zm60.47-95.426-22.084 31.727 12.656 12.656-12.656 12.657 22.084 31.727c19.373-26.325 19.375-62.441 0-88.767m12.944 117.798-42.77-61.446 11.971-11.969-11.969-11.968 42.77-61.446-61.446 42.77-11.97-11.969-11.969 11.968L4.313 4.42 47.08 65.865 35.112 77.834l11.97 11.97-42.77 61.444 61.444-42.769 11.969 11.967 11.969-11.969zM77.725 86.73l-8.896-8.896 8.896-8.897 8.898 8.896z"/><linearGradient id="a" x1="28.206" x2="127.247" y1="127.355" y2="28.313" gradientUnits="userSpaceOnUse"><stop offset="0" style="stop-color:#8d742f"/><stop offset=".046" style="stop-color:#937a35"/><stop offset=".107" style="stop-color:#a38a45"/><stop offset=".15" style="stop-color:#b39a54"/><stop offset=".175" style="stop-color:#b9a059"/><stop offset=".269" style="stop-color:#cab068"/><stop offset=".372" style="stop-color:#d4ba71"/><stop offset=".5" style="stop-color:#d7bd74"/><stop offset=".628" style="stop-color:#d4ba71"/><stop offset=".731" style="stop-color:#cab068"/><stop offset=".825" style="stop-color:#b9a059"/><stop offset=".85" style="stop-color:#b39a54"/><stop offset=".852" style="stop-color:#b29953"/><stop offset=".902" style="stop-color:#9e853f"/><stop offset=".952" style="stop-color:#917833"/><stop offset="1" style="stop-color:#8d742f"/></linearGradient><path fill="url(#a)" d="m31.6 91.18-14.138 20.312C5.829 90.646 5.83 65.021 17.46 44.177l14.139 20.312-13.346 13.345Zm106.392-47.002-14.139 20.311 13.344 13.345-13.346 13.345 14.141 20.313c11.629-20.846 11.629-46.471 0-67.314M77.725 18.361l13.348 13.347 20.311-14.14c-20.846-11.632-46.469-11.632-67.314 0l20.313 14.139zm0 118.944-13.344-13.344L44.068 138.1c20.846 11.63 46.469 11.63 67.314 0L91.07 123.96Zm34.185-59.472-11.281 11.281 26.617 38.24-38.24-26.617-11.281 11.28-11.279-11.279-38.239 26.616 26.616-38.239-11.282-11.281L54.82 66.553l-26.614-38.24L66.443 54.93l11.281-11.281 11.283 11.282 38.238-26.618-26.615 38.24ZM77.725 60.507 60.398 77.834 77.725 95.16l17.326-17.327Z" style="fill:url(#a)"/></g></svg>