<svg xmlns="http://www.w3.org/2000/svg" xml:space="preserve" width="149.999" height="150" viewBox="0 0 149.999 150"><g transform="translate(-2.727 -2.51)"><path fill="#fff" d="m39.341 90.168-22.084 31.727c-19.374-26.327-19.374-62.442 0-88.769L39.34 64.852 26.683 77.51Zm38.384-63.702 12.658 12.658 31.727-22.083c-26.326-19.375-62.441-19.375-88.767 0l31.726 22.083zm0 102.086-12.656-12.656-31.726 22.084c26.325 19.373 62.44 19.373 88.767 0l-31.729-22.085Zm60.47-95.426-22.084 31.727 12.656 12.656-12.656 12.657 22.084 31.727c19.373-26.326 19.375-62.441 0-88.767m12.944 117.798-42.77-61.446 11.971-11.969-11.969-11.968 42.77-61.446-61.446 42.77-11.971-11.97-11.968 11.969L4.313 4.096 47.08 65.541 35.112 77.51l11.97 11.97-42.77 61.444 61.444-42.769 11.969 11.967 11.969-11.969ZM77.725 86.406l-8.896-8.896 8.896-8.897 8.898 8.896z"/><linearGradient id="a" x1="28.206" x2="127.247" y1="127.03" y2="27.989" gradientUnits="userSpaceOnUse"><stop offset="0" style="stop-color:#612c75"/><stop offset=".012" style="stop-color:#643078"/><stop offset=".097" style="stop-color:#754889"/><stop offset=".15" style="stop-color:#7b5190"/><stop offset=".19" style="stop-color:#8c639d"/><stop offset=".256" style="stop-color:#a37bae"/><stop offset=".327" style="stop-color:#b38cba"/><stop offset=".404" style="stop-color:#bc96c1"/><stop offset=".5" style="stop-color:#bf99c3"/><stop offset=".596" style="stop-color:#bc96c1"/><stop offset=".673" style="stop-color:#b38cba"/><stop offset=".744" style="stop-color:#a37bae"/><stop offset=".81" style="stop-color:#8c639d"/><stop offset=".85" style="stop-color:#7b5190"/><stop offset=".903" style="stop-color:#754889"/><stop offset=".988" style="stop-color:#643078"/><stop offset="1" style="stop-color:#612c75"/></linearGradient><path fill="url(#a)" d="m31.6 90.855-14.138 20.312C5.829 90.322 5.83 64.697 17.46 43.853l14.139 20.312L18.253 77.51Zm106.392-47.001-14.139 20.311 13.344 13.345-13.346 13.345 14.141 20.313c11.629-20.847 11.629-46.471 0-67.314M77.725 18.037l13.348 13.347 20.311-14.14c-20.846-11.632-46.469-11.632-67.314 0l20.313 14.139zm0 118.943-13.344-13.344-20.313 14.139c20.846 11.63 46.469 11.63 67.314 0l-20.313-14.14Zm34.185-59.471L100.629 88.79l26.617 38.24-38.24-26.617-11.281 11.28-11.279-11.279-38.24 26.616 26.616-38.239L43.541 77.51 54.82 66.229l-26.614-38.24 38.237 26.617 11.281-11.281 11.283 11.282 38.238-26.618-26.615 38.24ZM77.725 60.183 60.398 77.51l17.326 17.326L95.05 77.509Z" style="fill:url(#a)"/></g></svg>