<svg xmlns="http://www.w3.org/2000/svg" xml:space="preserve" width="150" height="150" viewBox="0 0 150 150"><path d="m75 23.956 12.657 12.658 31.727-22.083c-26.328-19.375-62.443-19.375-88.77 0l31.727 22.083zm-33.66-9.222c20.847-11.632 46.47-11.632 67.316 0l-20.313 14.14L75 15.527 61.654 28.873zm-4.725 72.924L23.956 75l12.657-12.658L14.53 30.616c-19.374 26.326-19.374 62.441.001 88.77zm-21.88-46.315 14.137 20.311L15.527 75l13.346 13.346-14.139 20.312c-11.63-20.846-11.63-46.47 0-67.315"/><path d="m117.613 75-11.969-11.97 42.77-61.446-61.445 42.77L75 32.385l-11.97 11.97L1.585 1.585l42.77 61.445L32.385 75l11.97 11.97-42.77 61.443 61.445-42.769 11.968 11.967 11.97-11.969 61.445 42.771-42.77-61.446zm6.908 49.52-38.24-26.617L75 109.183 63.72 97.904 25.48 124.52l26.616-38.239-11.282-11.28L52.096 63.72 25.48 25.48l38.24 26.617L75 40.816l11.28 11.28 38.24-26.618-26.617 38.24L109.183 75l-11.28 11.28z"/><path d="M113.386 62.343 126.042 75l-12.658 12.657 22.084 31.727c19.375-26.325 19.375-62.44.001-88.767zm21.88 46.313-14.14-20.313 13.345-13.345-13.345-13.345 14.14-20.31c11.63 20.844 11.63 46.468 0 67.313M57.672 75l17.326 17.326L92.325 75 75 57.673zm17.326 8.896L66.101 75l8.9-8.897L83.894 75zm0 42.146-12.656-12.656-31.727 22.084c26.326 19.373 62.441 19.373 88.767 0l-31.727-22.085zm33.658 9.223c-20.846 11.63-46.469 11.63-67.313 0l20.312-14.139L75 134.47l13.345-13.345z"/></svg>