<?xml version="1.0" encoding="UTF-8" standalone="no"?>
<!DOCTYPE svg PUBLIC "-//W3C//DTD SVG 1.1//EN" "http://www.w3.org/Graphics/SVG/1.1/DTD/svg11.dtd">
<svg width="100%" height="100%" viewBox="0 0 613 491" version="1.1" xmlns="http://www.w3.org/2000/svg" xmlns:xlink="http://www.w3.org/1999/xlink" xml:space="preserve" xmlns:serif="http://www.serif.com/" style="fill-rule:evenodd;clip-rule:evenodd;stroke-linejoin:round;stroke-miterlimit:2;">
    <path d="M18.646,0C23.049,47.376 31.951,80.261 40.166,96.006C24.238,96.436 9.123,99.04 0,100.443C5.119,129.375 29.215,168.931 38.51,181.693C33.397,183.347 28.631,185.101 24.5,186.693C40,218.943 58.875,236.318 79.75,248.568C72.25,253.693 54.719,266.865 46.594,283.74C64.594,296.365 90.313,308.662 118.188,313.787C107.563,322.662 96.531,345.834 96.531,345.834C128.281,353.959 142.625,351.756 158,349.256L150.719,373.928C166.094,373.803 197.063,367.225 206.313,362.725C205.688,370.6 215.156,386.146 218.531,389.646C210.906,397.271 198.521,430.664 195.896,442.289C209.527,443.625 223.792,444.376 235.762,443.059C234.793,459.232 239.054,468.925 243.877,478.576C255.434,476.019 264.004,472.466 272.512,468.893C278.92,482.23 292.084,490.693 306.5,490.693C320.916,490.693 334.08,482.23 340.488,468.893C348.996,472.466 357.566,476.019 369.123,478.576C373.946,468.925 378.207,459.232 377.238,443.059C389.209,444.376 403.473,443.625 417.104,442.289C414.479,430.664 402.094,397.271 394.469,389.646C397.844,386.146 407.313,370.6 406.688,362.725C415.938,367.225 446.906,373.803 462.281,373.928L455,349.256C470.375,351.756 484.719,353.959 516.469,345.834C516.469,345.834 505.438,322.662 494.813,313.787C522.688,308.662 548.406,296.365 566.406,283.74C558.281,266.865 540.75,253.693 533.25,248.568C554.125,236.318 573,218.943 588.5,186.693C584.369,185.101 579.603,183.347 574.49,181.693C583.785,168.931 607.881,129.375 613,100.443C603.877,99.04 588.762,96.436 572.834,96.006C581.049,80.261 589.951,47.376 594.354,0C594.354,0 549.217,1.409 543.266,4.615C492.685,31.863 462.618,64.083 442.045,83.988C421.423,103.942 402.197,127.676 372.197,131.051C372.197,131.051 387.158,146.639 389.658,150.389C391.908,158.639 389.363,188.516 387.613,208.266L379.606,224.783L368.295,190.805L376.018,183.568C369.018,175.568 332,149.535 306.5,149.535C281,149.535 243.982,175.568 236.982,183.568L244.705,190.805L233.395,224.783L225.387,208.266C223.637,188.516 221.092,158.639 223.342,150.389C225.842,146.639 240.803,131.051 240.803,131.051C210.803,127.676 191.577,103.942 170.955,83.988C150.382,64.083 120.315,31.863 69.734,4.615C63.783,1.409 18.646,0 18.646,0Z" style="fill-rule:nonzero;"/>
    <path d="M34.621,11.373C33.474,11.351 32.514,11.35 31.801,11.375C34.474,56.645 45.892,85.357 53.992,96.266C73.249,97.598 91.529,103.502 99.75,119.943C80.25,114.193 86.5,103.443 13.25,108.443C16.825,125.523 40.188,163.415 49.746,178.441C57.596,176.477 65.778,175.121 73.502,175.195C83.649,175.293 93,177.85 99.75,184.693C73.532,179.97 60.692,183.508 39.748,192.135C45.135,203.012 62.572,231.535 103.875,248.662L106.75,251.131C83.681,252.545 61.523,277.852 62.125,280.1C62.789,282.577 100.442,302.864 138.449,303.836L140.406,305.967C135.457,308.884 112.568,335.614 113.672,337.525C114.929,339.702 153.325,341.995 175.688,335.897L176.828,336.893C173.646,339.721 164.863,359.346 165.969,360.451C167.146,361.629 201.361,357.516 214.619,346.025L216.051,346.836C215.432,351.609 217.967,372.62 220.93,373.789C223.819,374.93 252.842,353.192 256.908,338.607C258.808,338.184 259.481,337.585 259.74,336.928C260.717,343.93 262.412,346.269 263.809,350.541C230.044,378.649 209.28,429.73 210.576,431.658C212.108,433.937 241.49,432.167 247.5,429.869L249.07,431.084C245.535,432.321 246.744,462.626 249.932,465.004C252.598,466.993 269.379,458.102 279.26,450.619C280.758,469.225 290.074,478.455 306.5,478.455C322.926,478.455 332.242,469.225 333.74,450.619C343.621,458.102 360.402,466.993 363.068,465.004C366.256,462.626 367.465,432.321 363.93,431.084L365.5,429.869C371.51,432.167 400.892,433.937 402.424,431.658C403.72,429.73 382.956,378.649 349.191,350.541C350.588,346.269 352.283,343.93 353.26,336.928C353.519,337.585 354.192,338.184 356.092,338.607C360.158,353.192 389.181,374.929 392.07,373.789C395.033,372.62 397.568,351.609 396.949,346.836L398.381,346.025C411.639,357.516 445.854,361.629 447.031,360.451C448.137,359.346 439.354,339.721 436.172,336.893L437.312,335.896C459.675,341.995 498.071,339.702 499.328,337.525C500.431,335.614 477.543,308.884 472.594,305.967L474.551,303.836C512.558,302.864 550.211,282.577 550.875,280.1C551.477,277.852 529.319,252.545 506.25,251.131L509.125,248.662C550.428,231.535 567.865,203.012 573.252,192.135C552.308,183.508 539.468,179.969 513.25,184.693C520,177.85 529.351,175.293 539.498,175.195C547.222,175.121 555.404,176.477 563.254,178.441C572.812,163.414 596.175,125.523 599.75,108.443C526.5,103.443 532.75,114.193 513.25,119.943C521.471,103.502 539.751,97.598 559.008,96.266C567.108,85.357 578.526,56.645 581.199,11.375C580.486,11.35 579.526,11.351 578.379,11.373C570.352,11.527 553.204,12.758 548.064,14.135C542.503,15.625 483.773,53.34 450.297,92.221C434.515,110.551 404.654,134.316 393.25,137.068C393.25,137.068 400.018,145.924 401.25,151.193C402.745,157.586 398.636,209.284 397.713,212.728C396.786,216.189 385.868,242.811 357.75,267.193L354.713,265.836C355.499,263.87 372.643,236.621 372.643,236.621C366.744,219.514 351.849,190.29 360.107,183.801C360.107,183.801 326.36,160.193 306.5,160.193C286.64,160.193 252.893,183.801 252.893,183.801C261.151,190.29 246.256,219.514 240.357,236.621C240.357,236.621 257.501,263.87 258.287,265.836L255.25,267.193C227.132,242.811 216.214,216.189 215.287,212.728C214.364,209.284 210.255,157.586 211.75,151.193C212.982,145.924 219.75,137.068 219.75,137.068C208.346,134.315 178.485,110.551 162.703,92.221C129.227,53.34 70.497,15.625 64.936,14.135C59.796,12.758 42.648,11.527 34.621,11.373L34.621,11.373ZM168.119,151.184C168.714,151.22 169.067,151.866 169.033,153.381C169.033,153.381 167.241,208.868 167.771,210.848C168.251,212.636 176.334,231.446 188.264,246.316C196.214,256.226 211.601,273.251 210.463,274.496C208.889,276.218 196.265,272.451 192.244,268.18C181.907,257.199 159.919,221.455 158.324,220.047C154.525,216.692 143.465,205.859 143.465,205.859C143.465,205.859 158.414,212.64 158.414,200.34L158.414,164.4C158.414,162.358 165.542,151.027 168.119,151.184ZM444.881,151.184C447.458,151.027 454.586,162.358 454.586,164.4L454.586,200.34C454.586,212.64 469.535,205.859 469.535,205.859C469.535,205.859 458.475,216.692 454.676,220.047C453.081,221.455 431.093,257.199 420.756,268.18C416.735,272.451 404.111,276.218 402.537,274.496C401.399,273.251 416.786,256.226 424.736,246.316C436.666,231.446 444.749,212.636 445.229,210.848C445.759,208.868 443.967,153.381 443.967,153.381C443.934,151.866 444.286,151.22 444.881,151.184ZM306.5,226.199L316.047,242.105L324.178,242.105L306.5,292.205L288.822,242.105L296.953,242.105L306.5,226.199Z" style="fill:url(#_Radial1);fill-rule:nonzero;"/>
    <path d="M34.621,11.373C33.474,11.351 32.514,11.35 31.801,11.375C34.474,56.645 45.892,85.357 53.992,96.266C73.249,97.598 91.529,103.502 99.75,119.943C80.25,114.193 86.5,103.443 13.25,108.443C16.825,125.523 40.188,163.415 49.746,178.441C57.596,176.477 65.778,175.121 73.502,175.195C83.649,175.293 93,177.85 99.75,184.693C73.532,179.97 60.692,183.508 39.748,192.135C45.135,203.012 62.572,231.535 103.875,248.662L106.75,251.131C83.681,252.545 61.523,277.852 62.125,280.1C62.789,282.577 100.442,302.864 138.449,303.836L140.406,305.967C135.457,308.884 112.568,335.614 113.672,337.525C114.929,339.702 153.325,341.995 175.688,335.897L176.828,336.893C173.646,339.721 164.863,359.346 165.969,360.451C167.146,361.629 201.361,357.516 214.619,346.025L216.051,346.836C215.432,351.609 217.967,372.62 220.93,373.789C223.819,374.93 252.842,353.192 256.908,338.607C258.808,338.184 259.481,337.585 259.74,336.928C260.717,343.93 262.412,346.269 263.809,350.541C230.044,378.649 209.28,429.73 210.576,431.658C212.108,433.937 241.49,432.167 247.5,429.869L249.07,431.084C245.535,432.321 246.744,462.626 249.932,465.004C252.598,466.993 269.379,458.102 279.26,450.619C280.758,469.225 290.074,478.455 306.5,478.455C322.926,478.455 332.242,469.225 333.74,450.619C343.621,458.102 360.402,466.993 363.068,465.004C366.256,462.626 367.465,432.321 363.93,431.084L365.5,429.869C371.51,432.167 400.892,433.937 402.424,431.658C403.72,429.73 382.956,378.649 349.191,350.541C350.588,346.269 352.283,343.93 353.26,336.928C353.519,337.585 354.192,338.184 356.092,338.607C360.158,353.192 389.181,374.929 392.07,373.789C395.033,372.62 397.568,351.609 396.949,346.836L398.381,346.025C411.639,357.516 445.854,361.629 447.031,360.451C448.137,359.346 439.354,339.721 436.172,336.893L437.312,335.896C459.675,341.995 498.071,339.702 499.328,337.525C500.431,335.614 477.543,308.884 472.594,305.967L474.551,303.836C512.558,302.864 550.211,282.577 550.875,280.1C551.477,277.852 529.319,252.545 506.25,251.131L509.125,248.662C550.428,231.535 567.865,203.012 573.252,192.135C552.308,183.508 539.468,179.969 513.25,184.693C520,177.85 529.351,175.293 539.498,175.195C547.222,175.121 555.404,176.477 563.254,178.441C572.812,163.414 596.175,125.523 599.75,108.443C526.5,103.443 532.75,114.193 513.25,119.943C521.471,103.502 539.751,97.598 559.008,96.266C567.108,85.357 578.526,56.645 581.199,11.375C580.486,11.35 579.526,11.351 578.379,11.373C570.352,11.527 553.204,12.758 548.064,14.135C542.503,15.625 483.773,53.34 450.297,92.221C434.515,110.551 404.654,134.316 393.25,137.068C393.25,137.068 400.018,145.924 401.25,151.193C402.745,157.586 398.636,209.284 397.713,212.728C396.786,216.189 385.868,242.811 357.75,267.193L354.713,265.836C355.499,263.87 372.643,236.621 372.643,236.621C366.744,219.514 351.849,190.29 360.107,183.801C360.107,183.801 326.36,160.193 306.5,160.193C286.64,160.193 252.893,183.801 252.893,183.801C261.151,190.29 246.256,219.514 240.357,236.621C240.357,236.621 257.501,263.87 258.287,265.836L255.25,267.193C227.132,242.811 216.214,216.189 215.287,212.728C214.364,209.284 210.255,157.586 211.75,151.193C212.982,145.924 219.75,137.068 219.75,137.068C208.346,134.315 178.485,110.551 162.703,92.221C129.227,53.34 70.497,15.625 64.936,14.135C59.796,12.758 42.648,11.527 34.621,11.373L34.621,11.373ZM168.119,151.184C168.714,151.22 169.067,151.866 169.033,153.381C169.033,153.381 167.241,208.868 167.771,210.848C168.251,212.636 176.334,231.446 188.264,246.316C196.214,256.226 211.601,273.251 210.463,274.496C208.889,276.218 196.265,272.451 192.244,268.18C181.907,257.199 159.919,221.455 158.324,220.047C154.525,216.692 143.465,205.859 143.465,205.859C143.465,205.859 158.414,212.64 158.414,200.34L158.414,164.4C158.414,162.358 165.542,151.027 168.119,151.184ZM444.881,151.184C447.458,151.027 454.586,162.358 454.586,164.4L454.586,200.34C454.586,212.64 469.535,205.859 469.535,205.859C469.535,205.859 458.475,216.692 454.676,220.047C453.081,221.455 431.093,257.199 420.756,268.18C416.735,272.451 404.111,276.218 402.537,274.496C401.399,273.251 416.786,256.226 424.736,246.316C436.666,231.446 444.749,212.636 445.229,210.848C445.759,208.868 443.967,153.381 443.967,153.381C443.934,151.866 444.286,151.22 444.881,151.184ZM306.5,226.199L316.047,242.105L324.178,242.105L306.5,292.205L288.822,242.105L296.953,242.105L306.5,226.199Z" style="fill:url(#_Radial2);fill-rule:nonzero;"/>
    <defs>
        <radialGradient id="_Radial1" cx="0" cy="0" r="1" gradientUnits="userSpaceOnUse" gradientTransform="matrix(-2.89563e-05,349.998,-348.892,-9.90283e-05,306.5,226.199)"><stop offset="0" style="stop-color:rgb(250,163,37);stop-opacity:1"/><stop offset="0.5" style="stop-color:rgb(224,126,37);stop-opacity:1"/><stop offset="1" style="stop-color:rgb(187,52,38);stop-opacity:1"/></radialGradient>
        <radialGradient id="_Radial2" cx="0" cy="0" r="1" gradientUnits="userSpaceOnUse" gradientTransform="matrix(-2.89563e-05,349.998,-348.892,-9.90283e-05,306.5,226.199)"><stop offset="0" style="stop-color:rgb(97,44,117);stop-opacity:1"/><stop offset="0" style="stop-color:rgb(191,153,195);stop-opacity:1"/><stop offset="0.5" style="stop-color:rgb(123,81,144);stop-opacity:1"/><stop offset="1" style="stop-color:rgb(97,44,117);stop-opacity:1"/></radialGradient>
    </defs>
</svg>
