<svg xmlns="http://www.w3.org/2000/svg" width="600" height="744.028"><path d="M297.823.074c-22.673.521-96.701 14.527-167.177 72.001C71.052 120.695 0 213.547 0 380.221c0 163.103 54.703 252.55 100.552 298.827 51.224 51.653 102.597 63.147 108.345 64.3 14.154 2.846 28.55-3.478 36.176-15.754 3.404-5.598 5.153-11.922 5.153-18.172 0-7.477-2.474-15.047-7.329-21.297-5.375-6.9-12.425-16.405-20.274-27.75 4.93-6.027 7.85-13.653 7.85-21.726 0-.873-.075-1.804-.15-2.678-.371-5.17-.65-12.797-.65-21.874 0-21.073 1.73-50.052 8.426-74.176h123.802c6.696 24.124 8.5 53.103 8.5 74.176 0 9.077-.354 16.778-.725 21.874-.074.875-.148 1.804-.148 2.678 0 8.073 2.92 15.699 7.774 21.725a622 622 0 0 1-20.2 27.826c-4.854 6.175-7.253 13.745-7.253 21.297 0 6.25 1.674 12.499 5.078 18.097 7.626 12.35 22.022 18.6 36.177 15.755 5.673-1.154 57.12-12.648 108.344-64.3C545.353 632.771 600 543.323 600 380.294c0-167.995-72.075-261.05-132.45-309.67C395.827 13.02 321 0 300.428 0h-1.73c-.298 0-.595 0-.875.074" style="fill:#fff"/><path d="M294.624 505.325h-80.65c-24.626 51.02-18.097 133.324-18.097 133.324s-57.605-77.376-57.605-167.902 64.226-181.052 64.226-181.052c14.824-6.547 64.151-8.221 64.151-8.221s-37.85-80.65-106.95-59.204c-69.173 21.353-90.526 98.729-90.526 98.729 29.649-18.098 93.8-21.428 93.8-21.428s-59.297 69.174-59.297 167.903c0 98.747 111.972 241.948 111.972 241.948s-181.07-36.177-181.07-329.201c0-290.42 226.398-344.676 264.045-345.625h1.804c34.596 0 264.994 52.675 264.994 345.7 0 292.95-181.07 329.2-181.07 329.2s111.971-143.2 111.971-242.022c0-98.73-59.297-167.903-59.297-167.903s64.152 3.33 93.8 21.428c0 0-21.353-77.376-90.526-98.73-69.099-21.445-106.95 59.205-106.95 59.205s49.327 1.674 64.151 8.22c0 0 64.226 90.601 64.226 181.128s-57.604 167.827-57.604 167.827 6.529-82.305-18.098-133.324h-80.65z"/></svg>