<svg xmlns="http://www.w3.org/2000/svg" xml:space="preserve" width="149.998" height="67.824" viewBox="0 0 149.998 67.824"><path fill="#fff" d="M142.091 1.445 141.054 0H23.027a3.47 3.47 0 0 0-1.39 6.651c1.291.565 3.945 2.243 4.523 3.738.111.291.143.538-.041.947L7.873 52.167c-2.396 5.361-6.59 8.939-6.625 8.969A3.47 3.47 0 0 0 0 63.802v.552a3.47 3.47 0 0 0 3.471 3.47h30.6c1.57 0 3.037-.996 3.443-2.512.402-1.499-.148-3.025-1.477-3.82-.369-.307-2.756-2.539-2.756-8.494 0-4.26 9.314-10.416 15.609-13.234q.12-.056.236-.117l6.648 14.879c1.643 3.676-3.148 6.756-3.338 6.876a3.47 3.47 0 0 0-1.516 3.9 3.466 3.466 0 0 0 3.336 2.522h86.797l1.037-1.443c.324-.451 7.908-11.248 7.908-32.469.002-21.223-7.582-32.018-7.907-32.467"/><path d="M56.437 63.603c2.195-1.977 5.375-5.91 3.189-10.801l-18.398-41.17L29.74 37.343h14.52c-5.133 2.706-15.199 8.877-15.199 15.652 0 5.676 1.824 8.955 3.174 10.606H4.805c1.535-1.469 4.784-4.932 6.921-9.713l18.246-40.831c.621-1.388.662-2.801.125-4.19-.775-2.009-2.631-3.599-4.203-4.646h38.152c-1.752 1.646-3.189 4.348-1.633 7.83l19.125 42.8c2 4.479 4.85 7.254 6.799 8.753zM138.871 4.22H73.453c-2.053 0-4.404 1.332-5.598 3.166-.561.867-1.094 2.208-.438 3.68.141.316 14.221 31.951 18.66 41.754 4.693 10.364 16.771 10.771 18.127 10.783h34.668c1.172-1.841 6.908-11.795 6.908-29.691.001-17.896-5.737-27.849-6.909-29.692M87.515 46.114a215 215 0 0 0 6.648-8.258c2.01-2.63 3.721-5.132 5.141-7.508q2.129-3.556 3.326-6.646c.795-2.062 1.191-3.954 1.191-5.688 0-1.974-.463-3.419-1.398-4.337-.939-.917-2.045-1.377-3.326-1.377q-1.25 0-2.182.494a4.24 4.24 0 0 0-1.504 1.298c-.385.536-.668 1.162-.859 1.872a8.5 8.5 0 0 0-.287 2.206c0 .487.033.96.105 1.429q.103.7.314 1.222l-.158.151-5.764-7.269q1.867-1.82 4.594-3.039 2.726-1.219 6.053-1.218 2.337 0 4.492.597 2.157.593 3.818 1.766a8.9 8.9 0 0 1 2.65 2.908c.654 1.158.984 2.52.984 4.075q.001 2.756-1.223 5.063-1.216 2.315-3.322 4.78-2.102 2.467-4.986 5.376-2.881 2.909-6.205 6.856h12.777l.156-.056 2.596-5.658h.207V46.32H87.617Zm37.137-33.813c-.799 0-1.479.172-2.051.521a4.3 4.3 0 0 0-1.402 1.352 6 6 0 0 0-.807 1.918 9.4 9.4 0 0 0-.258 2.182l-.158.055-4.152-4.518a12.2 12.2 0 0 1 4.23-3.222q2.469-1.141 5.48-1.141 2.235 0 4.207.546 1.973.545 3.428 1.605a7.85 7.85 0 0 1 2.313 2.676q.855 1.61.855 3.74-.001 1.77-.598 3.195a10 10 0 0 1-1.531 2.545 9 9 0 0 1-2.129 1.867 9.8 9.8 0 0 1-2.389 1.117v.211q1.66.412 3.115 1.141a9.4 9.4 0 0 1 2.52 1.818 7.75 7.75 0 0 1 1.66 2.596c.396 1.006.6 2.146.6 3.427q.001 5.041-3.221 7.977-3.219 2.935-9.143 2.934-3.27 0-5.791-1.091-2.517-1.09-4.18-2.75l4.469-5.509.15.052q.001 1.245.289 2.416a6 6 0 0 0 .91 2.05 4.8 4.8 0 0 0 1.584 1.429q.957.546 2.256.546 2.392 0 3.635-1.712c.834-1.146 1.248-2.789 1.248-4.937 0-1.074-.102-2.101-.309-3.09q-.31-1.479-1.014-2.596a5.25 5.25 0 0 0-1.896-1.791q-1.195-.678-2.961-.677l-2.803-2.651v-.207h1.297c1.143 0 2.141-.24 2.984-.727a6.1 6.1 0 0 0 2.08-1.923 9.3 9.3 0 0 0 1.223-2.672 11.2 11.2 0 0 0 .414-2.988q.001-2.96-1.172-4.337-1.162-1.376-2.982-1.377"/></svg>