<svg xmlns="http://www.w3.org/2000/svg" xml:space="preserve" width="149.999" height="67.824" style="clip-rule:evenodd;fill-rule:evenodd;stroke-linejoin:round;stroke-miterlimit:2" viewBox="0 0 149.999 67.824"><path d="M142.092 1.445 141.055 0H23.028a3.47 3.47 0 0 0-1.391 6.651c1.292.565 3.945 2.243 4.523 3.738.112.291.143.538-.041.947L7.873 52.167c-2.396 5.361-6.59 8.939-6.625 8.969A3.47 3.47 0 0 0 0 63.802v.552a3.47 3.47 0 0 0 3.471 3.47h30.6c1.57 0 3.037-.996 3.444-2.512.401-1.499-.149-3.025-1.478-3.82-.369-.307-2.756-2.539-2.756-8.494 0-4.26 9.314-10.416 15.61-13.234q.12-.056.235-.117l6.648 14.879c1.643 3.676-3.148 6.756-3.337 6.876a3.466 3.466 0 0 0-1.517 3.9 3.466 3.466 0 0 0 3.337 2.522h86.797l1.037-1.443c.324-.451 7.908-11.248 7.908-32.469.001-21.223-7.582-32.018-7.907-32.467" style="fill-rule:nonzero"/><path d="M56.437 63.603c2.195-1.977 5.376-5.91 3.189-10.801l-18.397-41.17L29.74 37.343h14.521c-5.134 2.706-15.2 8.877-15.2 15.652 0 5.676 1.825 8.955 3.175 10.606H4.805c1.535-1.469 4.784-4.932 6.921-9.713l18.246-40.832c.621-1.388.663-2.801.125-4.19-.775-2.009-2.63-3.599-4.202-4.646h38.151c-1.752 1.646-3.188 4.348-1.633 7.83l19.126 42.8c2 4.479 4.849 7.254 6.799 8.753z" style="fill:#632e77;fill-rule:nonzero"/><path d="M138.872 4.22H73.453c-2.053 0-4.404 1.332-5.597 3.166-.562.867-1.095 2.208-.438 3.68.141.316 14.222 31.951 18.661 41.754 4.692 10.364 16.771 10.771 18.127 10.783h34.668c1.172-1.841 6.908-11.795 6.908-29.691s-5.739-27.849-6.91-29.692M87.516 46.114a216 216 0 0 0 6.648-8.258q3.012-3.945 5.14-7.508 2.13-3.555 3.327-6.646c.794-2.062 1.19-3.954 1.19-5.688q.002-2.96-1.397-4.337-1.407-1.376-3.327-1.377-1.249 0-2.181.494a4.25 4.25 0 0 0-1.505 1.298c-.385.536-.668 1.162-.858 1.872a8.5 8.5 0 0 0-.287 2.206c0 .487.033.96.105 1.429q.103.7.313 1.222l-.157.151-5.764-7.269q1.867-1.82 4.594-3.039 2.724-1.219 6.052-1.218c1.557 0 3.058.199 4.493.597q2.157.593 3.817 1.766a8.86 8.86 0 0 1 2.65 2.908c.654 1.158.984 2.52.984 4.075q.002 2.756-1.222 5.063-1.217 2.315-3.322 4.78-2.102 2.467-4.987 5.376-2.88 2.909-6.205 6.856h12.777l.157-.056 2.596-5.658h.206V46.32H87.618Zm37.136-33.813q-1.195-.001-2.05.521a4.3 4.3 0 0 0-1.402 1.352 6 6 0 0 0-.807 1.918 9.3 9.3 0 0 0-.259 2.182l-.157.055-4.153-4.518a12.2 12.2 0 0 1 4.23-3.222q2.469-1.141 5.481-1.141 2.234 0 4.206.546c1.314.363 2.46.899 3.429 1.605a7.9 7.9 0 0 1 2.313 2.676q.854 1.61.855 3.74-.001 1.77-.599 3.195a9.9 9.9 0 0 1-1.531 2.545 9 9 0 0 1-2.129 1.867 9.8 9.8 0 0 1-2.389 1.117v.211q1.661.411 3.115 1.141a9.4 9.4 0 0 1 2.52 1.818 7.7 7.7 0 0 1 1.66 2.596c.397 1.006.601 2.146.601 3.427q0 5.042-3.221 7.977t-9.143 2.934q-3.272 0-5.791-1.091t-4.18-2.75l4.468-5.509.151.052q.002 1.245.288 2.416a6 6 0 0 0 .91 2.05q.618.882 1.584 1.429.957.546 2.257.546 2.392 0 3.635-1.712 1.248-1.717 1.247-4.937c0-1.074-.102-2.101-.309-3.09q-.31-1.479-1.014-2.596a5.24 5.24 0 0 0-1.896-1.791q-1.195-.678-2.962-.677l-2.802-2.651v-.207h1.297c1.142 0 2.14-.24 2.984-.727a6.1 6.1 0 0 0 2.079-1.923 9.2 9.2 0 0 0 1.223-2.672 11 11 0 0 0 .414-2.988q.001-2.96-1.171-4.337-1.162-1.376-2.982-1.377" style="fill:url(#a);fill-rule:nonzero"/><defs><linearGradient id="a" x1="0" x2="1" y1="0" y2="0" gradientTransform="rotate(-25 142.063 -163.268)scale(68.5895)" gradientUnits="userSpaceOnUse"><stop offset="0" style="stop-color:#612c75;stop-opacity:1"/><stop offset=".3" style="stop-color:#7b5190;stop-opacity:1"/><stop offset=".5" style="stop-color:#bf99c3;stop-opacity:1"/><stop offset=".7" style="stop-color:#7b5190;stop-opacity:1"/><stop offset="1" style="stop-color:#612c75;stop-opacity:1"/></linearGradient></defs></svg>