<?xml version="1.0" encoding="UTF-8" standalone="no"?>
<svg
   id="Layer_2"
   data-name="Layer 2"
   viewBox="0 0 725.00999 1039.9"
   version="1.1"
   width="725.01001"
   height="1039.9"
   xmlns="http://www.w3.org/2000/svg"
   xmlns:svg="http://www.w3.org/2000/svg">
  <defs
     id="defs1">
    <style
       id="style1">
      .cls-1, .cls-2 {
        stroke-width: 0px;
      }

      .cls-2 {
        fill: #fff;
      }
    </style>
  </defs>
  <g
     id="Layer_1-2"
     data-name="Layer 1">
    <path
       class="cls-2"
       d="M 385.22,0 374.26,16.32 14.18,551.98 0,573.21 312.65,1039.9 h 140.6 L 725.01,550.1 Z"
       id="path1" />
    <path
       class="cls-1"
       d="m 317.17,168.11 43.99,85.27 1.68,105.49 114.32,183.11 c 15.07,43.74 12.17,88.73 -8.51,134.96 47.1,-72.5 62.82,-123.14 47.15,-151.96 -15.67,-28.85 -51.36,-87.3 -107.11,-175.42 l 0.41,-98.2 36.08,-83.29 235.7,383.06 -235.7,427.12 -40.76,-70.1 0.46,-112.55 -123.3,-169.84 c -20.68,-35.03 -17.24,-76.3 10.39,-123.7 -56.26,56.41 -72.54,103.54 -48.86,141.28 L 356.47,805.02 355.75,907.69 317.22,978.25 45.84,573.2 317.17,168.04 Z"
       id="path2" />
  </g>
</svg>
