<?xml version="1.0" encoding="UTF-8"?>
<svg id="Layer_2" data-name="Layer 2" xmlns="http://www.w3.org/2000/svg" viewBox="0 0 725.02 1039.9">
  <defs>
    <style>
      .cls-1, .cls-2 {
        stroke-width: 0px;
      }

      .cls-2 {
        fill: #fff;
      }
    </style>
  </defs>
  <g id="Layer_1-2" data-name="Layer 1">
    <path class="cls-2" d="M385.22,0l-10.96,16.32L14.18,551.98l-14.18,21.23,312.65,466.69h140.6l271.76-489.8L385.22,0h0Z"/>
    <path class="cls-1" d="M317.17,168.11l43.99,85.27,1.68,105.49,114.32,183.11c15.07,43.74,12.17,88.73-8.51,134.96,47.1-72.5,62.82-123.14,47.15-151.96-15.67-28.85-51.36-87.3-107.11-175.42l.41-98.2,36.08-83.29,235.7,383.06-235.7,427.12-40.76-70.1.46-112.55-123.3-169.84c-20.68-35.03-17.24-76.3,10.39-123.7-56.26,56.41-72.54,103.54-48.86,141.28l113.36,161.68-.72,102.67-38.53,70.56L45.84,573.2,317.17,168.04v.07h0Z"/>
  </g>
</svg>