<?xml version="1.0" encoding="UTF-8" standalone="no"?>
<svg
   id="Layer_2"
   data-name="Layer 2"
   viewBox="0 0 725.00999 1039.9"
   version="1.1"
   width="725.01001"
   height="1039.9"
   xmlns="http://www.w3.org/2000/svg"
   xmlns:svg="http://www.w3.org/2000/svg">
  <defs
     id="defs15">
    <style
       id="style1">
      .cls-1 {
        fill: url(#linear-gradient);
      }

      .cls-1, .cls-2 {
        stroke-width: 0px;
      }

      .cls-2 {
        fill: url(#linear-gradient-2);
      }
    </style>
    <linearGradient
       id="linear-gradient"
       x1="-597.48999"
       y1="519.95001"
       x2="-596.48999"
       y2="519.95001"
       gradientTransform="matrix(0,0,0,0,0.01,1039.92)"
       gradientUnits="userSpaceOnUse">
      <stop
         offset="0"
         stop-color="#000"
         id="stop1" />
      <stop
         offset="1"
         stop-color="#000"
         id="stop2" />
    </linearGradient>
    <linearGradient
       id="linear-gradient-2"
       x1="-597.48999"
       y1="1060.02"
       x2="-596.48999"
       y2="1060.02"
       gradientTransform="matrix(496.70849,-370.10026,-370.10026,-496.70849,689226.61,306128.43)"
       gradientUnits="userSpaceOnUse">
      <stop
         offset="0"
         stop-color="#612c75"
         id="stop3" />
      <stop
         offset=".01"
         stop-color="#653179"
         id="stop4" />
      <stop
         offset=".11"
         stop-color="#855693"
         id="stop5" />
      <stop
         offset=".21"
         stop-color="#9e73a8"
         id="stop6" />
      <stop
         offset=".31"
         stop-color="#b088b7"
         id="stop7" />
      <stop
         offset=".41"
         stop-color="#bb94c0"
         id="stop8" />
      <stop
         offset=".5"
         stop-color="#bf99c3"
         id="stop9" />
      <stop
         offset=".59"
         stop-color="#bb94c0"
         id="stop10" />
      <stop
         offset=".69"
         stop-color="#b088b7"
         id="stop11" />
      <stop
         offset=".79"
         stop-color="#9e73a8"
         id="stop12" />
      <stop
         offset=".89"
         stop-color="#855693"
         id="stop13" />
      <stop
         offset=".99"
         stop-color="#653179"
         id="stop14" />
      <stop
         offset="1"
         stop-color="#612c75"
         id="stop15" />
    </linearGradient>
  </defs>
  <g
     id="Layer_1-2"
     data-name="Layer 1">
    <g
       id="Mythic1">
      <path
         class="cls-1"
         d="M 385.22,0 374.26,16.32 14.18,551.98 0,573.21 312.65,1039.9 h 140.6 L 725.01,550.1 Z"
         id="path15"
         style="fill:url(#linear-gradient)" />
      <path
         class="cls-2"
         d="m 317.17,168.11 43.99,85.27 1.68,105.49 114.32,183.11 c 15.07,43.74 12.17,88.73 -8.51,134.96 47.1,-72.5 62.82,-123.14 47.15,-151.96 -15.67,-28.85 -51.36,-87.3 -107.11,-175.42 l 0.41,-98.2 36.08,-83.29 235.7,383.06 -235.7,427.12 -40.76,-70.1 0.46,-112.55 -123.3,-169.84 c -20.68,-35.03 -17.24,-76.3 10.39,-123.7 -56.26,56.41 -72.54,103.54 -48.86,141.28 L 356.47,805.02 355.75,907.69 317.22,978.25 45.84,573.2 317.17,168.04 Z"
         id="path16"
         style="fill:url(#linear-gradient-2)" />
    </g>
  </g>
</svg>
