<?xml version="1.0" encoding="UTF-8"?>
<svg id="Layer_2" data-name="Layer 2" xmlns="http://www.w3.org/2000/svg" xmlns:xlink="http://www.w3.org/1999/xlink" viewBox="0 0 725.02 1039.9">
  <defs>
    <style>
      .cls-1 {
        fill: url(#linear-gradient);
      }

      .cls-1, .cls-2 {
        stroke-width: 0px;
      }

      .cls-2 {
        fill: url(#linear-gradient-2);
      }
    </style>
    <linearGradient id="linear-gradient" x1="-592.27" y1="519.95" x2="-591.27" y2="519.95" gradientTransform="matrix(0,0,0,0,.02,1039.92)" gradientUnits="userSpaceOnUse">
      <stop offset="0" stop-color="#000"/>
      <stop offset="1" stop-color="#000"/>
    </linearGradient>
    <linearGradient id="linear-gradient-2" x1="-592.27" y1="1060.02" x2="-591.27" y2="1060.02" gradientTransform="translate(686633.82 308060.46) rotate(-36.69) scale(619.43 -619.43)" gradientUnits="userSpaceOnUse">
      <stop offset="0" stop-color="#626e77"/>
      <stop offset=".04" stop-color="#697780"/>
      <stop offset=".11" stop-color="#7d8e98"/>
      <stop offset=".2" stop-color="#9eb4c0"/>
      <stop offset=".2" stop-color="#a0b6c2"/>
      <stop offset=".2" stop-color="#a1b7c3"/>
      <stop offset=".29" stop-color="#adc6d4"/>
      <stop offset=".38" stop-color="#b5cede"/>
      <stop offset=".5" stop-color="#b7d1e1"/>
      <stop offset=".62" stop-color="#b5cede"/>
      <stop offset=".71" stop-color="#adc6d4"/>
      <stop offset=".8" stop-color="#a1b7c3"/>
      <stop offset=".8" stop-color="#a0b6c2"/>
      <stop offset=".85" stop-color="#8b9da8"/>
      <stop offset=".91" stop-color="#74838d"/>
      <stop offset=".96" stop-color="#67747d"/>
      <stop offset="1" stop-color="#626e77"/>
    </linearGradient>
  </defs>
  <g id="Layer_1-2" data-name="Layer 1">
    <path class="cls-1" d="M385.24,0l-10.97,16.32L14.2,551.98l-14.2,21.23,312.65,466.69h140.6l271.76-489.8L385.24,0h0Z"/>
    <path class="cls-2" d="M317.17,168.11l44,85.27,1.67,105.49,114.34,183.11c15.06,43.74,12.17,88.73-8.51,134.96,47.09-72.5,62.81-123.14,47.14-151.96-15.67-28.85-51.36-87.3-107.11-175.42l.41-98.2,36.1-83.29,235.69,383.06-235.69,427.12-40.78-70.1.46-112.55-123.29-169.84c-20.68-35.03-17.24-76.3,10.39-123.7-56.27,56.41-72.55,103.54-48.88,141.28l113.36,161.68-.71,102.67-38.53,70.56L45.84,573.2,317.17,168.04v.07h0Z"/>
  </g>
</svg>