<?xml version="1.0" encoding="UTF-8"?>
<svg id="Layer_2" data-name="Layer 2" xmlns="http://www.w3.org/2000/svg" xmlns:xlink="http://www.w3.org/1999/xlink" viewBox="0 0 725.02 1039.9">
  <defs>
    <style>
      .cls-1 {
        fill: url(#linear-gradient);
        fill-rule: evenodd;
        stroke-width: 0px;
      }
    </style>
    <linearGradient id="linear-gradient" x1="-592.44" y1="519.95" x2="-591.44" y2="519.95" gradientTransform="matrix(0,0,0,0,-5216.28,24.19)" gradientUnits="userSpaceOnUse">
      <stop offset="0" stop-color="#000"/>
      <stop offset="1" stop-color="#000"/>
    </linearGradient>
  </defs>
  <g id="Layer_1-2" data-name="Layer 1">
    <path class="cls-1" d="M385.22,0l339.79,550.09-271.78,489.8h-140.59L0,573.2l14.18-21.23L374.27,16.32,385.22,0h0ZM317.17,168.11v-.07L45.84,573.2l271.38,405.06,38.53-70.56.71-102.67-113.36-161.68c-23.66-37.74-7.39-84.86,48.88-141.28-27.64,47.4-31.07,88.67-10.39,123.7l123.3,169.84-.46,112.55,40.76,70.1,235.69-427.12-235.69-383.06-36.1,83.29-.41,98.2c55.76,88.12,91.45,146.57,107.12,175.42,15.67,28.81-.06,79.45-47.15,151.96,20.68-46.24,23.57-91.22,8.51-134.96l-114.32-183.11-1.68-105.49-43.99-85.27h0Z"/>
  </g>
</svg>