<svg xmlns="http://www.w3.org/2000/svg" width="558.643" height="526.475"><path d="M321.791.182A246.263 249.433 0 0 0 248.646 8.5 246.263 249.433 0 0 0 66.436 251.4C38.368 266.865 14.664 282.6 0 311.194c25.99 5.185 38.315 11.554 53.387 22.13 15.61 11.604 26.25 18.546 44.629 23.12-28.128 26.785-14.962 38.004-74.952 55.246 19.565 12.28 37.108 22.822 58.657 21.102-10.107 12.852-23.156 18.583-36.145 30.078 22.623 10.058 49.55 17.524 78.35 14.992 43.284 38.065 91.596 25.17 123.935-6.828 8.795 35.463 30.56 47.247 57.012 55.441.996-10.776-3.529-25.969 4.022-33.412 13.132 10.05 28.475 19.283 47.171 23.354 50.65 5.746 70.739-8.224 98.512-31.413-19.328-2.524-32.052-5.217-39.377-8.943a246.263 249.433 0 0 0 135.057-291.187A246.263 249.433 0 0 0 321.79.182" style="fill:#fff"/><path d="M312.385 11.46c-129.759 0-234.95 106.543-234.95 237.972.028 3.831.152 7.66.362 11.483-28.19 8.309-48.504 23.719-55.957 45.732 43.123 11.833 39.502 21.489 62.248 31.809 38.856 17.629 37.764-.641 64.156 7.921-68.6 14.074-43.312 53.303-96.346 66.98 28.461 9.715 42.37 7.018 57.157-3.52-1.938 21.813-17.775 34.414-33.883 48.67 41.366 11.857 54.015 4.18 72.867-3.157 20.815-8.1 29.634-29.496 50.287-37.174-13.29 45.793-32.202 47.739-55.916 58.42 22.457 10.55 57.854 11.558 74.522-.373 16.392-11.733 29.884-32.26 46.45-34.951-2.716 6.82-19.365 44.292 28.975 65.678.053-9.187-2.374-16.877 16.473-29.823 28.116 23.588 64.705 44.006 120.701 13.827-13.331-3.02-25.502-9.511-35.943-18.36 92.008-34.296 153.686-123.195 153.746-223.162 0-131.429-105.19-237.972-234.95-237.973m0 17.187c120.386 0 217.979 98.85 217.978 220.785-.093 67.674-30.484 132.104-83.377 173.356-43.336 33.799-106.238-2.348-88.384-53.153 12.088-48.228 67.635-87.684 87.21-60.343 4.935-27.217 6.408-54.667-21.017-89.786-1.784 13.192 1.468 18.944-17.969 37.432-1.026-9.56-1.3-14.842-10.385-27.984-4.034 26.81-12.645 30.178-20.681 40.093 1.389-12.41-1.117-20.68-8.082-27.982-3.772 26.603-30.319 34.955-41.399 24.566-8.514-7.983-8.682-26.599-4.27-37.164 2.435-5.828 21.345-14.831 29.833 2.385 12.132-8.763 18.57-21.283 12.894-45.512 15.152 5.147 17.937 15.241 22.287 25.338 8.49-12.604 9.362-24.59 7.885-37.812 11.375 5.046 13.933 14.5 17.108 23.646 3.543-13.796 7.806-27.301-3.27-47.037 15.668-14.56-21.702-63.014-24.754-62.697s-81.493 51.737-103.777 83.46c-14.413-.376-29.356-1.766-47.13.378-36.107 20.047-48.25 34.916-70.169 54.506-10.226 15.977-8.375 21.793-12.273 29.191-20.214-1.319-39.16-.408-56.043 2.64a224 224 0 0 1-.194-7.52c0-121.937 97.592-220.786 217.979-220.786m-39.191 163.596c3.45-.326-14.82 15.029-23.054 18.752-14.226-4.822-33.319 2.77-35.322 5.114-2.242-3 9.909-17.948 15.898-19.602 15.379 5.358 42.478-4.264 42.478-4.264m84.212 127.351c-63.097 76.713-27.546 122.26 14.319 166.512-20.293-.581-39.693-6.444-59.8-32.35-15.7 3.977-21.478 13.466-29.118 21.92-11.376-25.455 1.37-39.946 9.722-56.435-31.11-4.24-53.447 2.604-66.644 20.992 4.93-24.954 17.588-41.076 35.709-50.955-2.732-5.24-15.171-4.656-31.998-1.438 27.861-34.848 88.461-64.59 127.81-68.246" style="fill:#000"/></svg>