<svg xmlns="http://www.w3.org/2000/svg" xml:space="preserve" width="1000" height="709.607" style="clip-rule:evenodd;fill-rule:evenodd;stroke-linejoin:round;stroke-miterlimit:2" viewBox="0 0 1000 709.607"><path d="M500 600.081s-61.24-11.198-124.72 94.02l-46.04-20.304s-6.31 2.856-9.21 29.537c0 0-30.05-33.899-39.26-53.285 0 0-112.58-63.594-199.74-121.697 0 0 33.44-143.801-44.82-223.393 0 0 0-14.046 16.72-50.163 0 0-18.92-7.357-52.93-8.026 0 0 60.29-62.871 95.07-71.566 0 0 54.18-95.057 210.02-175.204 0 0-63.69 105.51-26.37 140.571 46.32 43.52 158.79 55.517 220.87 55.992v-.011l.23.013.18.001c61.99-.425 174.86-12.379 221.28-55.995C758.6 105.51 694.91 0 694.91 0c155.84 80.147 210.02 175.204 210.02 175.204 34.78 8.695 95.07 71.566 95.07 71.566-34.02.669-52.93 8.026-52.93 8.026 16.72 36.117 16.72 50.163 16.72 50.163-78.26 79.592-44.82 223.393-44.82 223.393-87.16 58.103-199.74 121.697-199.74 121.697-9.21 19.386-39.26 53.285-39.26 53.285-2.9-26.681-9.2-29.537-9.2-29.537l-46.05 20.304C561.24 588.883 500 600.081 500 600.081" style="fill:#fff"/><path d="M193.59 507.485S251.16 255.557 3.11 243.399c0 0 56.53-87.811 154.53-85.392s197.05 89.46 203.94 93.781 32.31 28.396 111.77 38.273c0 0 7.65-28.493 26.65-38.273 0 0 14.37 4.118 26.95 38.346 0 0 75.95-2.425 122.73-45.06 46.79-42.634 134.35-86.769 196.12-87.067 61.78-.297 104.08 29.756 154.2 82.875 0 0-242.14 1.077-191.58 266.987 0 0-71.63-45.488-90-39.372 0 0 67.56 123.544-37.39 241.11 0 0-19.02-66.66-27.55-72.774 0 0-9.18-27.52-54.44-62.682S515.76 503.06 500 470.191c0 0-42.65 68.797-93.81 98.609 0 0-32.8 23.696-58.38 61.917-25.59 38.22-26.9 78.89-26.9 78.89s-106.92-99.53-38.7-240.181c0 0-35.55-1.088-88.62 38.059"/><path d="M314.67 573.473s-44.17-64.143-1.58-108.833c0 0 8.31-10.14 75.7-.756 0 0 82.5 11.472 73.53-79.072 0 0 62.53 75.27-74.49 163.483 0 0-25.38-6.916-73.16 25.178M686.88 573.473s44.17-64.143 1.58-108.833c0 0-8.31-10.14-75.7-.756 0 0-82.5 11.472-73.53-79.072 0 0-62.53 75.27 74.49 163.483 0 0 25.38-6.916 73.16 25.178" style="fill:#fff"/><path d="M281.04 540.631s8.67 43.705 30.17 58.273c0 0 18.04-21.505 62.09-31.564 0 0-55.5 46.814-61.05 86.368 0 0-41.62-34.535-31.21-113.077M718.29 540.631s-8.67 43.705-30.17 58.273c0 0-18.04-21.505-62.09-31.564 0 0 55.5 46.814 61.05 86.368 0 0 41.62-34.535 31.21-113.077" style="fill:#feffff"/><path d="M366 660.328s123.34-202.002 268.06-.272l28.47-15.115s-2.33-33.651-90.82-98.624c0 0-35.69-19.865-71.52-79.987 0 0-17.45 35.663-68.13 80.214 0 0-73.51 44.588-93.55 99.683zm134.009-394.371c-2.474.685-20.715 6.777-30.423 39.771 0 0-87.354-6.095-138.071-55.139-43.916-42.477-99.426-58.863-100.558-65.632l-.2-44.9s49.608 83.713 268.975 82.125v-.004l.277.001h.289v.003c219.367 1.588 268.963-82.125 268.963-82.125l-.2 44.9c-1.12 6.77-56.63 23.155-100.557 65.632-50.706 49.044-138.071 55.14-138.071 55.14-9.697-32.995-27.938-39.087-30.424-39.773M80.428 252.992s155.176 43.17 115.54 248.972c0 0 40.285-29.532 91.948-37.118 0 0-39.74 59.574-17.705 147.029 0 0-47.562-21.461-156.423-99.31 0 0 22.858-145.33-48.737-222.208z"/><path d="M234.79 182.323s-23.35-17.653-95.1-17.083c0 0 24.49-44.986 105.35-98.514 0 0-15.38 49.541-10.25 115.597m684.702 70.032s-155.729 43.324-115.951 249.859c0 0-40.43-29.637-92.277-37.25 0 0 39.881 59.786 17.769 147.553 0 0 47.731-21.538 156.98-99.665 0 0-22.94-145.846 48.91-222.999zM765.21 182.323s23.35-17.653 95.1-17.083c0 0-24.49-44.986-105.35-98.514 0 0 15.38 49.541 10.25 115.597"/><path d="M221.13 459.806s25.55-187.077-163.1-230.845c0 0 89.04-107.155 278.45 41.504 0 0 31.69 36.976 123 48.295 0 0-17.36 38.485-12.83 57.351 3.44 5.831 2.51 52.84-34.88 63.292 0 0-32.33-7.812-63.65-7.812-31.33 0-97.7 8.113-126.99 28.215m13.76-140.714c3.62 54.626 158.5 102.451 184.27 85.191-30.47-5.774-54.85-46.83-54.85-46.83-24.69-42.018-33.97-48.742-33.97-48.742-54.98-49.636-144.1-57.036-144.1-57.036 50.9 26.306 47 42.667 48.65 67.417M779.62 459.806s-25.55-187.077 163.1-230.845c0 0-89.04-107.155-278.45 41.504 0 0-31.69 36.976-123 48.295 0 0 17.36 38.485 12.83 57.351-3.44 5.831-2.51 52.84 34.88 63.292 0 0 32.33-7.812 63.65-7.812 31.33 0 97.7 8.113 126.99 28.215m-13.76-140.714c-3.62 54.626-158.5 102.451-184.27 85.191 30.47-5.774 54.85-46.83 54.85-46.83 24.69-42.018 33.97-48.742 33.97-48.742 54.98-49.636 144.1-57.036 144.1-57.036-50.9 26.306-47 42.667-48.65 67.417" style="fill:#fff"/><path d="M247.63 288.267s36.85 4.873 67.61 36.852 24.06 38.374 48.12 59.693c0 0-107.51-18.793-115.73-96.545" style="fill:#fff"/><path d="M752.86 288.267s-36.85 4.873-67.61 36.852-24.06 38.374-48.12 59.693c0 0 107.51-18.793 115.73-96.545" style="fill:#feffff"/><path d="M500 440.833s-4.3-45.916-32.95-83.892c0 0 1.69-36.938 32.95-76.297 0 0 21.25 18.296 33.33 76.295 0 0-24.55 27.517-33.33 83.894" style="fill:#fff"/></svg>