<svg xmlns="http://www.w3.org/2000/svg" xmlns:xlink="http://www.w3.org/1999/xlink" id="Layer_2" width="595.28" height="595.28" viewBox="0 0 595.28 595.28"><defs id="defs13"><linearGradient id="Timeshifted_2" x1="201.51" x2="394.39" y1="423.64" y2="423.64" data-name="Timeshifted 2" gradientUnits="userSpaceOnUse"><stop id="stop1" offset="0" stop-color="#612c75"/><stop id="stop2" offset="0" stop-color="#653179"/><stop id="stop3" offset=".11" stop-color="#855693"/><stop id="stop4" offset=".21" stop-color="#9e73a8"/><stop id="stop5" offset=".31" stop-color="#b088b7"/><stop id="stop6" offset=".41" stop-color="#bb94c0"/><stop id="stop7" offset=".5" stop-color="#bf99c3"/><stop id="stop8" offset=".59" stop-color="#bb94c0"/><stop id="stop9" offset=".69" stop-color="#b088b7"/><stop id="stop10" offset=".79" stop-color="#9e73a8"/><stop id="stop11" offset=".89" stop-color="#855693"/><stop id="stop12" offset=".99" stop-color="#653179"/><stop id="stop13" offset="1" stop-color="#612c75"/></linearGradient><linearGradient xlink:href="#Timeshifted_2" id="Timeshifted_2-2" x1="0" x2="1" y1="718.58" y2="718.58" data-name="Timeshifted 2" gradientTransform="matrix(288.91 0 0 -81.72 153.06 58945.61)"/><linearGradient xlink:href="#Timeshifted_2" id="Timeshifted_2-3" x1="0" x2="1" y1="718.64" y2="718.64" data-name="Timeshifted 2" gradientTransform="rotate(181.98 -2643.886 153577.931)scale(-426.93 426.93)"/><linearGradient xlink:href="#Timeshifted_2" id="Timeshifted_2-4" x1="0" x2="1" y1="718.64" y2="718.64" data-name="Timeshifted 2" gradientTransform="rotate(212.79 -24543.094 83644.073)scale(-232.64 232.64)"/><linearGradient xlink:href="#Timeshifted_2" id="Timeshifted_2-5" x1="0" x2="1" y1="718.64" y2="718.64" data-name="Timeshifted 2" gradientTransform="rotate(178.02 2941.52 153583.074)scale(426.93)"/><linearGradient xlink:href="#Timeshifted_2" id="Timeshifted_2-6" x1="0" x2="1" y1="718.64" y2="718.64" data-name="Timeshifted 2" gradientTransform="rotate(147.21 24840.734 83731.645)scale(232.64)"/><linearGradient xlink:href="#Timeshifted_2" id="linearGradient25" x1="201.51" x2="394.39" y1="423.64" y2="423.64" gradientUnits="userSpaceOnUse"/><style id="style13">.cls-2,.cls-9{fill-rule:evenodd}.cls-2{fill:#fff}.cls-9{fill:#612c75}</style></defs><g id="Layer_1-2" data-name="Layer_1"><g id="R"><path id="path13" d="M0 0h595.28v595.28H0Z" style="fill:none"/><path id="path14" d="M297.64 445.51s-36.45-6.67-74.24 55.97l-27.41-12.09s-3.76 1.7-5.48 17.58c0 0-17.89-20.18-23.37-31.72 0 0-67.02-37.86-118.9-72.44 0 0 19.91-85.6-26.68-132.98 0 0 0-8.36 9.95-29.86 0 0-11.26-4.38-31.51-4.78 0 0 35.89-37.43 56.59-42.6 0 0 32.25-56.59 125.02-104.29 0 0-37.91 62.81-15.7 83.68 27.57 25.91 94.52 33.05 131.48 33.33s.14 0 .14 0h.11c36.9-.25 104.09-7.37 131.72-33.33 22.22-20.87-15.7-83.68-15.7-83.68 92.77 47.71 125.02 104.29 125.02 104.29 20.7 5.18 56.59 42.6 56.59 42.6-20.25.4-31.51 4.78-31.51 4.78 9.95 21.5 9.95 29.86 9.95 29.86-46.59 47.38-26.68 132.98-26.68 132.98-51.88 34.59-118.9 72.44-118.9 72.44-5.48 11.54-23.37 31.72-23.37 31.72-1.73-15.88-5.48-17.58-5.48-17.58l-27.41 12.09c-37.79-62.63-74.24-55.97-74.24-55.97z" style="fill-rule:evenodd"/><path id="path15" d="M187.32 429.67s-26.29-38.18-.94-64.79c0 0 4.95-6.04 45.06-.45 0 0 49.11 6.83 43.77-47.07 0 0 37.22 44.81-44.34 97.32 0 0-15.11-4.12-43.55 14.99m221.57 0s26.29-38.18.94-64.79c0 0-4.95-6.04-45.06-.45 0 0-49.11 6.83-43.77-47.07 0 0-37.22 44.81 44.34 97.32 0 0 15.11-4.12 43.55 14.99" class="cls-2"/><path id="path16" d="M167.3 410.12s5.16 26.02 17.96 34.69c0 0 10.74-12.8 36.96-18.79 0 0-33.04 27.87-36.34 51.41 0 0-24.78-20.56-18.58-67.31m260.29 0s-5.16 26.02-17.96 34.69c0 0-10.74-12.8-36.96-18.79 0 0 33.04 27.87 36.34 51.41 0 0 24.78-20.56 18.58-67.31" class="cls-9"/><path id="path17" d="M217.87 481.38s73.42-120.25 159.57-.16l16.95-9s-1.39-20.03-54.06-58.71c0 0-21.25-11.83-42.57-47.61 0 0-10.39 21.23-40.56 47.75 0 0-43.76 26.54-55.69 59.34z" style="fill:url(#linearGradient25);fill-rule:evenodd"/><path id="path18" d="M298.11 242.97c-1.33.34-11.11 3.34-16.32 19.62 0 0-46.87-3.01-74.08-27.2-23.56-20.95-53.34-29.04-53.95-32.37l-.11-22.15s26.61 41.29 144.31 40.51.1 0 .15 0h.15c117.69.79 144.3-40.51 144.3-40.51l-.11 22.15c-.6 3.34-30.38 11.42-53.95 32.37-27.2 24.19-74.08 27.2-74.08 27.2-5.2-16.28-14.99-19.28-16.32-19.62z" style="fill:url(#Timeshifted_2-2);fill-rule:evenodd"/><path id="path19" d="M48.65 243.72s89.63 24.94 66.74 143.81c0 0 23.27-17.06 53.11-21.44 0 0-22.95 34.41-10.23 84.92 0 0-27.47-12.4-90.35-57.36 0 0 13.2-83.94-28.15-128.35z" style="fill:url(#Timeshifted_2-3);fill-rule:evenodd"/><path id="path20" d="M139.76 196.83s-13.9-10.51-56.61-10.17c0 0 14.58-26.78 62.71-58.64 0 0-9.16 29.49-6.1 68.81" style="fill:url(#Timeshifted_2-4);fill-rule:evenodd"/><path id="path21" d="M546.63 243.72S457 268.66 479.89 387.53c0 0-23.27-17.06-53.11-21.44 0 0 22.95 34.41 10.23 84.92 0 0 27.47-12.4 90.35-57.36 0 0-13.2-83.94 28.15-128.35z" style="fill:url(#Timeshifted_2-5);fill-rule:evenodd"/><path id="path22" d="M455.51 196.83s13.9-10.51 56.61-10.17c0 0-14.58-26.78-62.71-58.64 0 0 9.16 29.49 6.1 68.81" style="fill:url(#Timeshifted_2-6);fill-rule:evenodd"/><path id="path23" d="M131.63 362.01s15.21-111.36-97.09-137.42c0 0 53-63.79 165.75 24.71 0 0 18.86 22.01 73.22 28.75 0 0-10.33 22.91-7.64 34.14 2.05 3.47 1.49 31.45-20.76 37.68 0 0-19.25-4.65-37.89-4.65s-58.16 4.83-75.59 16.8zm8.19-83.76c2.15 32.52 94.35 60.99 109.69 50.71-18.14-3.44-32.65-27.88-32.65-27.88-14.7-25.01-20.22-29.01-20.22-29.01-32.73-29.55-85.78-33.95-85.78-33.95 30.3 15.66 27.98 25.4 28.96 40.13m324.27 83.76s-15.21-111.36 97.09-137.42c0 0-53-63.79-165.75 24.71 0 0-18.86 22.01-73.22 28.75 0 0 10.33 22.91 7.64 34.14-2.05 3.47-1.49 31.45 20.76 37.68 0 0 19.25-4.65 37.89-4.65s58.16 4.83 75.59 16.8zm-8.19-83.76c-2.15 32.52-94.35 60.99-109.69 50.71 18.14-3.44 32.65-27.88 32.65-27.88 14.7-25.01 20.22-29.01 20.22-29.01 32.73-29.55 85.78-33.95 85.78-33.95-30.3 15.66-27.98 25.4-28.96 40.13" class="cls-2"/><path id="path24" d="M147.41 259.9s21.94 2.9 40.25 21.94 14.32 22.84 28.64 35.53c0 0-64-11.19-68.89-57.47m300.75 0s-21.94 2.9-40.25 21.94-14.32 22.84-28.64 35.53c0 0 64-11.19 68.89-57.47" class="cls-9"/><path id="path25" d="M297.64 350.72s-2.56-27.33-19.61-49.94c0 0 1.01-21.99 19.61-45.42 0 0 12.65 10.89 19.84 45.42 0 0-14.61 16.38-19.84 49.94" class="cls-2"/></g></g></svg>