<svg xmlns="http://www.w3.org/2000/svg" xml:space="preserve" width="884.7" height="593.602" style="clip-rule:evenodd;fill-rule:evenodd;stroke-linejoin:round;stroke-miterlimit:2" viewBox="0 0 884.7 593.602"><path d="M256.64 506.747s-44.17-64.143-1.58-108.833c0 0 8.31-10.14 75.7-.756 0 0 82.5 11.472 73.53-79.072 0 0 62.53 75.27-74.49 163.483 0 0-25.38-6.916-73.16 25.178m372.22 0s44.17-64.143 1.58-108.833c0 0-8.31-10.14-75.7-.756 0 0-82.5 11.472-73.53-79.072 0 0-62.53 75.27 74.49 163.483 0 0 25.38-6.916 73.16 25.178"/><path d="M223.01 473.905s8.67 43.705 30.17 58.273c0 0 18.04-21.505 62.09-31.564 0 0-55.5 46.814-61.05 86.368 0 0-41.62-34.535-31.21-113.077m437.26 0s-8.67 43.705-30.17 58.273c0 0-18.04-21.505-62.09-31.564 0 0 55.5 46.814 61.05 86.368 0 0 41.62-34.535 31.21-113.077m-352.3 119.697s123.34-202.002 268.06-.272l28.47-15.115s-2.33-33.651-90.82-98.624c0 0-35.69-19.865-71.52-79.987 0 0-17.45 35.663-68.13 80.214 0 0-73.51 44.588-93.55 99.683zm134.79-400.489c-2.23.568-18.67 5.616-27.42 32.957 0 0-78.73-5.051-124.44-45.691-39.58-35.199-89.61-48.777-90.63-54.386l-.18-37.207s44.71 69.369 242.42 68.053v-.003l.25.001.26-.001v.003c197.71 1.316 242.41-68.053 242.41-68.053l-.18 37.207c-1.01 5.609-51.04 19.187-90.63 54.386-45.7 40.64-124.44 45.691-124.44 45.691-8.74-27.341-25.18-32.389-27.42-32.957m-419.07 1.256s150.57 41.889 112.11 241.582c0 0 39.09-28.655 89.22-36.016 0 0-38.56 57.806-17.18 142.665 0 0-46.15-20.824-151.78-96.363 0 0 22.18-141.015-47.29-215.612zm153.07-78.772s-23.35-17.653-95.1-17.083c0 0 24.49-44.986 105.35-98.514 0 0-15.38 49.541-10.25 115.597m683.49 78.772s-150.57 41.889-112.11 241.582c0 0-39.09-28.655-89.22-36.016 0 0 38.56 57.806 17.18 142.665 0 0 46.15-20.824 151.78-96.363 0 0-22.18-141.015 47.29-215.612zm-153.07-78.772s23.35-17.653 95.1-17.083c0 0-24.49-44.986-105.35-98.514 0 0 15.38 49.541 10.25 115.597"/><path d="M163.1 393.08S188.65 206.003 0 162.235c0 0 89.04-107.155 278.45 41.504 0 0 31.69 36.976 123 48.295 0 0-17.36 38.485-12.83 57.351 3.44 5.831 2.51 52.84-34.88 63.292 0 0-32.33-7.812-63.65-7.812-31.33 0-97.7 8.113-126.99 28.215m13.76-140.714c3.62 54.626 158.5 102.451 184.27 85.191-30.47-5.774-54.85-46.83-54.85-46.83-24.69-42.018-33.97-48.742-33.97-48.742-54.98-49.636-144.1-57.036-144.1-57.036 50.9 26.306 47 42.667 48.65 67.417M721.6 393.08s-25.55-187.077 163.1-230.845c0 0-89.04-107.155-278.45 41.504 0 0-31.69 36.976-123 48.295 0 0 17.36 38.485 12.83 57.351-3.44 5.831-2.51 52.84 34.88 63.292 0 0 32.33-7.812 63.65-7.812 31.33 0 97.7 8.113 126.99 28.215m-13.76-140.714c-3.62 54.626-158.5 102.451-184.27 85.191 30.47-5.774 54.85-46.83 54.85-46.83 24.69-42.018 33.97-48.742 33.97-48.742 54.98-49.636 144.1-57.036 144.1-57.036-50.9 26.306-47 42.667-48.65 67.417"/><path d="M189.6 221.541s36.85 4.873 67.61 36.852 24.06 38.374 48.12 59.693c0 0-107.51-18.793-115.73-96.545m505.23 0s-36.85 4.873-67.61 36.852-24.06 38.374-48.12 59.693c0 0 107.51-18.793 115.73-96.545M441.97 374.107s-4.3-45.916-32.95-83.892c0 0 1.69-36.938 32.95-76.297 0 0 21.25 18.296 33.33 76.295 0 0-24.55 27.517-33.33 83.894"/></svg>