<?xml version="1.0" encoding="UTF-8" standalone="no"?>
<!-- Generator: Adobe Illustrator 15.1.0, SVG Export Plug-In . SVG Version: 6.00 Build 0)  -->

<svg
   version="1.1"
   id="Layer_1"
   x="0px"
   y="0px"
   width="340"
   height="340"
   viewBox="0 0 340 340"
   enable-background="new 0 0 350 350"
   xml:space="preserve"
   xmlns="http://www.w3.org/2000/svg"
   xmlns:svg="http://www.w3.org/2000/svg"><defs
   id="defs5" />
<g
   id="Layer_1_1_"
   transform="translate(-4.626,-5.005)">
</g>
<g
   id="g5"
   transform="translate(-4.626,-5.005)">
	<path
   d="m 344.626,175.005 c 0,93.892 -76.114,170 -170.001,170 -93.888,0 -169.999,-76.108 -169.999,-170 0,-93.885 76.11,-170 169.999,-170 93.887,0.001 170.001,76.116 170.001,170 z"
   id="path1" />
	
		<radialGradient
   id="SVGID_1_"
   cx="405.625"
   cy="175.9912"
   r="155.67191"
   gradientTransform="matrix(1,0,0,-1,-231,351)"
   gradientUnits="userSpaceOnUse">
		<stop
   offset="0"
   style="stop-color:#BF99C3"
   id="stop1" />
		<stop
   offset="0.65"
   style="stop-color:#7B5190"
   id="stop2" />
		<stop
   offset="0.7638"
   style="stop-color:#784D8D"
   id="stop3" />
		<stop
   offset="0.8817"
   style="stop-color:#6F4084"
   id="stop4" />
		<stop
   offset="1"
   style="stop-color:#612C75"
   id="stop5" />
	</radialGradient>
	<path
   fill="url(#SVGID_1_)"
   d="m 330.296,175.005 c 0,85.983 -69.698,155.677 -155.671,155.677 -85.976,0 -155.671,-69.692 -155.671,-155.677 0,-85.969 69.696,-155.669 155.671,-155.669 85.973,0 155.671,69.7 155.671,155.669 z M 174.625,37.445 c -75.975,0 -137.563,61.592 -137.563,137.561 0,75.98 61.588,137.567 137.563,137.567 75.971,0 137.563,-61.587 137.563,-137.567 0,-75.969 -61.592,-137.561 -137.563,-137.561 z m 0,8.055 c -71.525,0 -129.508,57.986 -129.508,129.505 0,71.533 57.982,129.513 129.508,129.513 71.521,0 129.507,-57.979 129.507,-129.513 C 304.132,103.486 246.146,45.5 174.625,45.5 Z m -0.004,10.812 13.249,39.219 46.63,27.545 41.337,-10.592 -28.62,32.858 v 55.104 l 28.62,32.864 -41.862,-11.145 -45.575,28.084 -13.78,43.457 -13.774,-43.457 -45.572,-28.082 -41.862,11.144 28.614,-32.865 v -55.104 l -28.614,-32.858 41.331,10.592 46.633,-27.545 z m 0.007,185.458 56.166,-34.438 v -65.17 l -56.166,-33.92 -56.173,33.92 v 65.17 z"
   id="path5"
   style="fill:url(#SVGID_1_)" />
</g>
</svg>
