<?xml version="1.0" encoding="UTF-8" standalone="no"?>
<!-- Generator: Adobe Illustrator 15.1.0, SVG Export Plug-In . SVG Version: 6.00 Build 0)  -->

<svg
   version="1.1"
   id="Layer_1"
   x="0px"
   y="0px"
   width="340"
   height="340.004"
   viewBox="0 0 340 340.004"
   enable-background="new 0 0 350 350"
   xml:space="preserve"
   xmlns="http://www.w3.org/2000/svg"
   xmlns:svg="http://www.w3.org/2000/svg"><defs
   id="defs1" />
<g
   id="Layer_1_1_"
   transform="translate(-4.625,-5.006)">
</g>
<g
   id="g1"
   transform="translate(-4.625,-5.006)">
	<path
   d="m 344.625,175.004 c 0,93.898 -76.113,170.006 -170,170.006 -93.89,0 -170,-76.107 -170,-170.006 0,-93.882 76.111,-169.998 170,-169.998 93.887,10e-4 170,76.117 170,169.998 z m -170,-150.222 C 91.657,24.782 24.4,92.044 24.4,175.005 c 0,82.974 67.257,150.23 150.225,150.23 82.964,0 150.225,-67.256 150.225,-150.23 0,-82.961 -67.261,-150.223 -150.225,-150.223 z m 0,8.797 c -78.108,0 -141.429,63.323 -141.429,141.425 0,78.118 63.319,141.434 141.429,141.434 78.104,0 141.428,-63.315 141.428,-141.434 0,-78.102 -63.324,-141.425 -141.428,-141.425 z m -0.004,11.807 14.468,42.829 50.923,30.081 45.142,-11.567 -31.255,35.882 v 60.177 l 31.255,35.889 -45.716,-12.17 -49.77,30.668 -15.048,47.457 -15.042,-47.457 -49.767,-30.667 -45.715,12.169 31.248,-35.89 v -60.176 l -31.248,-35.882 45.135,11.567 50.925,-30.081 z m 0.007,202.529 61.335,-37.607 v -71.169 l -61.335,-37.042 -61.344,37.042 v 71.169 z"
   id="path1" />
</g>
</svg>
