<?xml version="1.0" encoding="UTF-8" standalone="no"?>
<svg
   viewBox="0 0 412.46 259.01786"
   version="1.1"
   id="svg4"
   width="412.45999"
   height="259.01785"
   xmlns:xlink="http://www.w3.org/1999/xlink"
   xmlns="http://www.w3.org/2000/svg"
   xmlns:svg="http://www.w3.org/2000/svg">
  <defs
     id="defs8">
    <linearGradient
       id="g1">
      <stop
         id="s1"
         style="stop-color:#bf99c3;stop-opacity:1"
         offset="0.4" />
      <stop
         id="s2"
         style="stop-color:#7b5190;stop-opacity:1"
         offset="0.7" />
      <stop
         id="s3"
         style="stop-color:#612c75;stop-opacity:1"
         offset="1" />
    </linearGradient>
    <linearGradient
       id="g2">
      <stop
         id="gs1"
         style="stop-color:#612c75;stop-opacity:1"
         offset="0" />
      <stop
         id="gs2"
         style="stop-color:#7b5190;stop-opacity:1"
         offset="0.3" />
      <stop
         id="gs3"
         style="stop-color:#bf99c3;stop-opacity:1"
         offset=".6" />
    </linearGradient>
    <linearGradient
       xlink:href="#g1"
       id="linearGradient887"
       x1="57.400002"
       y1="60.834"
       x2="112.01"
       y2="60.834"
       gradientUnits="userSpaceOnUse"
       gradientTransform="translate(0,0.0025)" />
    <linearGradient
       xlink:href="#g1"
       id="linearGradient913"
       x1="11.891"
       y1="127.72"
       x2="87.051003"
       y2="127.72"
       gradientUnits="userSpaceOnUse"
       gradientTransform="translate(0,0.0025)" />
    <linearGradient
       xlink:href="#g1"
       id="linearGradient939"
       x1="57.41"
       y1="194.61"
       x2="174.17999"
       y2="194.61"
       gradientUnits="userSpaceOnUse"
       gradientTransform="translate(0,0.0025)" />
    <linearGradient
       xlink:href="#g2"
       id="linearGradient847"
       x1="299.89001"
       y1="60.807999"
       x2="354.51001"
       y2="60.807999"
       gradientUnits="userSpaceOnUse"
       gradientTransform="translate(0,0.0025)" />
    <linearGradient
       xlink:href="#g2"
       id="linearGradient855"
       x1="324.87"
       y1="127.73"
       x2="400.01001"
       y2="127.73"
       gradientUnits="userSpaceOnUse"
       gradientTransform="translate(0,0.0025)" />
    <linearGradient
       xlink:href="#g2"
       id="linearGradient863"
       x1="237.52"
       y1="194.61"
       x2="354.45999"
       y2="194.61"
       gradientUnits="userSpaceOnUse"
       gradientTransform="translate(0,0.0025)" />
  </defs>
  <g
     id="g13066"
     style="fill:#ffffff;fill-opacity:1"
     transform="translate(190.1,135.5825)">
    <path
       style="fill:#ffffff;fill-opacity:1"
       d="m 9.24,122.36 c -1.79,-0.51 -5.4547,-2.91 -7.17,-4.81 l -2.74,-3.04 -3.475,2.88 c -5.6744,4.69 -15.223,4.07 -20.625,-1.09 l -3.75,-3.58 -10.495,-0.39 c -19.703,-0.73 -31.963,-6.26 -36.78,-17.731 l -1.485,-4.105 h -44.18 L -144.09,37.99 h -21.15 L -190.1,-7.776 -165.31,-54 h 21.44 l 22.44,-52.49 h 85.96 l 2.955,-4.29 c 22.7808,-33.07 74.581,-33.07 97.29,0 l 2.955,4.3 h 85.96 l 22.44,52.49 h 21.43 L 222.36,-7.766 197.5,38 h -21.14 l -22.65,52.503 h -44.17 c -1.31,0 -1.48,4.107 -1.48,4.107 -3.71,12.28 -13.835,17.68 -36.785,17.73 -7.55,0 -11.365,0.44 -12.245,2.09 -3.59,6.7 -16.353,8.16 -22.625,2.97 l -3.475,-2.88 -2.74,3.04 c -4.32,5.5 -12.78,7.2 -20.95,4.84 z"
       id="path2079" />
    <path
       style="fill:#ffffff;fill-opacity:1"
       d="m 23.02,122.36 c 1.79,-0.51 5.455,-2.9 7.17,-4.8 l 2.74,-3.04 3.475,2.88 c 5.674,4.69 15.223,4.06 20.625,-1.1 l 3.75,-3.58 10.495,-0.38 c 19.704,-0.72 32.545,-6.03 36.785,-17.73 l 1.48,-4.104 h 44.17 l 22.65,-52.503 h 21.14 l 24.86,-45.766 -24.8,-46.224 H 176.13 L 153.69,-106.47 H 67.73 l -2.955,-4.28 c -22.797,-33.06 -74.5501,-33.06 -97.29,0 l -2.955,4.29 h -85.96 L -143.87,-54 h -21.44 l -24.79,46.224 24.86,45.766 h 21.15 l 22.63,52.504 h 44.18 c 1.31,0 1.485,4.105 1.485,4.105 3.7,12.281 13.83,17.681 36.78,17.731 7.55,0 11.365,0.43 12.245,2.08 3.59,6.7 16.353,8.17 22.625,2.98 l 3.475,-2.88 2.74,3.04 c 4.32,5.5 12.78,7.19 20.95,4.83 z"
       id="path7863" />
  </g>
  <path
     style="display:inline;fill:url(#linearGradient863);fill-opacity:1;stroke-width:11.7725"
     d="m 252.26,173.4925 c -3.83,0.14 -7.45,0.92 -10.26,3.78 v 0 c -4.45,5.22 -3.64,12.53 -4.31,18.81 -0.8,6.04 1.13,13.2 7.34,16.14 8.06,2.52 16.71,2.71 25.13,3.17 22.04,0.59 44.09,0.23 66.11,0.32 6.03,-14.04 12.13,-28.06 18.19,-42.1 h -29.85 c -6.29,8.28 -15.89,14.62 -26.85,15.52 -13.35,1.43 -26.53,-5.24 -34.04,-15.48 -3.62,0.25 -7.66,-0.28 -11.48,-0.15 z"
     id="path846" />
  <path
     style="display:inline;fill:url(#linearGradient939);fill-opacity:1;stroke-width:11.7725"
     d="m 157.57,173.4525 c -3.23,0 -6.51,0.29 -9.43,0.18 -7.51,10.21 -20.69,16.9 -34.05,15.47 -10.94,-0.91 -20.569,-7.24 -26.801,-15.52 H 57.43 57.41 c 6.08,14.03 12.11,28.06 18.17,42.08 28.45,-0.54 57.08,1.53 85.36,-2 a 13.995,13.187 0 0 0 13.24,-12.83 c -0.15,-7.33 0.27,-15.12 -2.96,-21.93 -3.08,-4.7 -8.28,-5.47 -13.65,-5.47 z"
     id="path844" />
  <path
     style="display:inline;fill:url(#linearGradient855);fill-opacity:1;stroke-width:11.7725"
     d="m 325.62,92.5125 a 38.399,36.18 0 0 1 -0.75,37.27 c 6.63,9.75 8.7,22.01 5.2,33.17 h 51.04 c 6.26,-11.73 12.61,-23.45 18.9,-35.17 -6.3,-11.76 -12.66,-23.48 -18.91,-35.231 -18.49,-0.04 -36.99,0.06 -55.48,-0.04 z"
     id="path842" />
  <path
     style="display:inline;fill:url(#linearGradient913);fill-opacity:1;stroke-width:11.7725"
     d="m 86.27,92.5045 c -18.49,0.08 -36.959,-10e-4 -55.469,0.04 v 0 c -6.28,11.771 -12.67,23.491 -18.91,35.301 6.38,11.67 12.57,23.41 18.91,35.09 H 81.84 a 42.862,40.384 0 0 1 5.211,-33.163 38.422,36.201 0 0 1 -0.781,-37.268 z"
     id="path840" />
  <path
     style="display:inline;fill:url(#linearGradient887);fill-opacity:1;stroke-width:11.7725"
     d="m 112.01,39.6905 c -12.134,0.203 -24.271,0 -36.401,0.134 v -0.02 C 69.52,53.8875 63.49,67.9315 57.4,81.9825 h 39.412 c -2.715,-15.341 2.705,-31.913 15.198,-42.292 z"
     id="path838" />
  <path
     style="display:inline;fill:url(#linearGradient847);fill-opacity:1;stroke-width:11.7725"
     d="m 299.89,39.6505 v 0.03 c 12.5,10.369 17.89,26.937 15.2,42.291 h 39.42 c -6.08,-14.065 -12.19,-28.11 -18.23,-42.176 -12.11,-0.145 -24.27,0.116 -36.39,-0.145 z"
     id="path836" />
  <path
     id="path832"
     style="display:inline;fill:#bf99c3;fill-opacity:1;stroke-width:11.7725"
     d="m 206.99,10.4695 a 46.488,43.799 0 0 0 -25.64,6.615 v 0.031 c -10.88,6.3 -18.66,16.7 -22.31,28.153 -5.78,-3.288 -12.32,-5.686 -19.17,-5.414 -12.87,0.029 -24.81,8.119 -29.88,19.109 -4.49,9.113 -4.18,19.821 -0.11,28.994 -6.49,1.885 -12.54,5.771 -15.597,11.633 -5.913,10.182 -2.02,23.692 8.027,30.192 -7.967,5.83 -12.94,15.34 -11.648,24.92 0.995,12.72 12.798,24.21 26.618,24.08 10.82,0.32 20.35,-6.75 24.78,-15.73 7.33,0.14 14.69,-0.26 22.06,0.14 8.06,1.35 15.57,6.86 18,14.38 2.31,6.98 2.4,14.37 2.63,21.62 0.43,10.4 -6.7,21.66 -17.94,23.99 -14.18,3.18 -28.87,2.69 -43.32,3.18 2.79,5.29 8.01,9.45 14.39,10.15 9.36,1.01 18.83,-0.18 28.22,0.63 5.13,0.84 4.13,8.83 9.72,8.73 3.68,0.43 4.51,-3.44 6.26,-5.59 1.69,-3.48 6.56,-3.89 10.08,-3.04 4.24,1.05 5.14,5.63 7.5,8.56 2.02,3.17 6.77,3.08 10.11,2.1 4.69,-2.34 4.5,-9.4 10.07,-10.69 3.47,-0.8 8.23,-0.39 9.93,3.03 1.79,2.18 2.65,6.12 6.36,5.61 5.52,0.02 4.53,-7.76 9.56,-8.71 9.39,-0.85 18.88,0.37 28.27,-0.64 6.38,-0.67 11.62,-4.85 14.41,-10.16 -14.04,-0.43 -28.27,-0.08 -42.09,-2.91 -6.94,-1.03 -12.7,-5.63 -15.91,-11.4 -4.66,-7.65 -3.14,-16.82 -2.53,-25.2 0.63,-7.37 3.11,-15.39 10.04,-19.64 9.14,-6.76 21.3,-3.36 31.93,-4.17 4.45,8.99 14.02,16.09 24.87,15.74 13.8,0.09 25.55,-11.4 26.54,-24.09 1.31,-9.6 -3.71,-19.09 -11.64,-24.91 7.49,-5.11 12.06,-13.96 10.55,-22.69 -1.13,-9.183 -8.8,-16.737 -18.15,-19.115 6.77,-14.228 2.55,-32.567 -10.96,-41.92 -10.82,-8.105 -26.87,-8.106 -38.15,-0.793 -4.28,-13.53 -14.5,-25.56 -28.43,-31.17 a 46.488,43.799 0 0 0 -17.45,-3.605 z m -14.26,74.24 v 33.473 a 87.516,82.456 0 0 0 -23.04,-21.405 h 0.03 a 60.316,56.829 0 0 1 23.01,-12.068 z m 26.47,0.012 h 0.04 a 60.837,57.32 0 0 1 23,12.047 87.747,82.674 0 0 0 -23.04,21.424 z m 34.66,26.631 a 71.728,67.581 0 0 1 6.6,20.63 c -11.11,-0.66 -22.47,0.98 -32.21,6.27 6,-10.79 14.3,-20.7 25.61,-26.9 z m -95.84,0.01 0.01,0.01 c 11.31,6.18 19.68,16.08 25.62,26.9 -9.74,-5.3 -21.12,-6.91 -32.23,-6.3 a 72.723,68.517 0 0 1 6.6,-20.61 z" />
</svg>
