<?xml version="1.0" encoding="UTF-8" standalone="no"?>
<svg
   viewBox="0 0 388.119 238.04652"
   version="1.1"
   id="svg4"
   width="388.11899"
   height="238.04651"
   xmlns="http://www.w3.org/2000/svg"
   xmlns:svg="http://www.w3.org/2000/svg">
  <defs
     id="defs1" />
  <path
     style="display:inline;fill:#000000;fill-opacity:1;stroke-width:11.7725"
     d="m 240.369,163.03427 c -3.83,0.14 -7.45,0.92 -10.26,3.78 v 0 c -4.45,5.22 -3.64,12.53 -4.31,18.81 -0.8,6.04 1.13,13.2 7.34,16.14 8.06,2.52 16.71,2.71 25.13,3.17 22.04,0.59 44.09,0.23 66.11,0.32 6.03,-14.04 12.13,-28.06 18.19,-42.1 h -29.85 c -6.29,8.28 -15.89,14.62 -26.85,15.52 -13.35,1.43 -26.53,-5.24 -34.04,-15.48 -3.62,0.25 -7.66,-0.28 -11.48,-0.15 z"
     id="path846" />
  <path
     style="display:inline;fill:#000000;fill-opacity:1;stroke-width:11.7725"
     d="m 145.679,162.99427 c -3.23,0 -6.51,0.29 -9.43,0.18 -7.51,10.21 -20.69,16.9 -34.05,15.47 -10.94,-0.91 -20.569,-7.24 -26.801,-15.52 h -29.859 -0.02 c 6.08,14.03 12.11,28.06 18.17,42.08 28.45,-0.54 57.08,1.53 85.36,-2 a 13.995,13.187 0 0 0 13.24,-12.83 c -0.15,-7.33 0.27,-15.12 -2.96,-21.93 -3.08,-4.7 -8.28,-5.47 -13.65,-5.47 z"
     id="path844" />
  <path
     style="display:inline;fill:#000000;fill-opacity:1;stroke-width:11.7725"
     d="m 313.729,82.054271 a 38.399,36.18 0 0 1 -0.75,37.269999 c 6.63,9.75 8.7,22.01 5.2,33.17 h 51.04 c 6.26,-11.73 12.61,-23.45 18.9,-35.17 -6.3,-11.76 -12.66,-23.479999 -18.91,-35.230999 -18.49,-0.04 -36.99,0.06 -55.48,-0.04 z"
     id="path842" />
  <path
     style="display:inline;fill:#000000;fill-opacity:1;stroke-width:11.7725"
     d="m 74.379,82.046271 c -18.49,0.08 -36.959,-0.001 -55.469,0.04 v 0 C 12.63,93.857271 6.24,105.57727 0,117.38727 c 6.38,11.67 12.57,23.41 18.91,35.09 h 51.039 a 42.862,40.384 0 0 1 5.211,-33.163 38.422,36.201 0 0 1 -0.781,-37.267999 z"
     id="path840" />
  <path
     style="display:inline;fill:#000000;fill-opacity:1;stroke-width:11.7725"
     d="m 100.119,29.232271 c -12.134,0.203 -24.271,0 -36.401,0.134 v -0.02 c -6.089,14.083 -12.119,28.127 -18.209,42.178 h 39.412 c -2.715,-15.341 2.705,-31.913 15.198,-42.292 z"
     id="path838" />
  <path
     style="display:inline;fill:#000000;fill-opacity:1;stroke-width:11.7725"
     d="m 287.999,29.192271 v 0.03 c 12.5,10.369 17.89,26.937 15.2,42.291 h 39.42 c -6.08,-14.065 -12.19,-28.11 -18.23,-42.176 -12.11,-0.145 -24.27,0.116 -36.39,-0.145 z"
     id="path836" />
  <path
     id="path832"
     style="display:inline;fill:#000000;fill-opacity:1;stroke-width:11.7725"
     d="m 195.099,0.01127073 a 46.488,43.799 0 0 0 -25.64,6.61499997 v 0.031 c -10.88,6.3000003 -18.66,16.7000003 -22.31,28.1530003 -5.78,-3.288 -12.32,-5.686 -19.17,-5.414 -12.87,0.029 -24.81,8.119 -29.88,19.109 -4.49,9.113 -4.18,19.821 -0.11,28.994 -6.49,1.885 -12.54,5.771 -15.597,11.633 -5.913,10.182 -2.02,23.691999 8.027,30.191999 -7.967,5.83 -12.94,15.34 -11.648,24.92 0.995,12.72 12.798,24.21 26.618,24.08 10.82,0.32 20.35,-6.75 24.78,-15.73 7.33,0.14 14.69,-0.26 22.06,0.14 8.06,1.35 15.57,6.86 18,14.38 2.31,6.98 2.4,14.37 2.63,21.62 0.43,10.4 -6.7,21.66 -17.94,23.99 -14.18,3.18 -28.87,2.69 -43.32,3.18 2.79,5.29 8.01,9.45 14.39,10.15 9.36,1.01 18.83,-0.18 28.22,0.63 5.13,0.84 4.13,8.83 9.72,8.73 3.68,0.43 4.51,-3.44 6.26,-5.59 1.69,-3.48 6.56,-3.89 10.08,-3.04 4.24,1.05 5.14,5.63 7.5,8.56 2.02,3.17 6.77,3.08 10.11,2.1 4.69,-2.34 4.5,-9.4 10.07,-10.69 3.47,-0.8 8.23,-0.39 9.93,3.03 1.79,2.18 2.65,6.12 6.36,5.61 5.52,0.02 4.53,-7.76 9.56,-8.71 9.39,-0.85 18.88,0.37 28.27,-0.64 6.38,-0.67 11.62,-4.85 14.41,-10.16 -14.04,-0.43 -28.27,-0.08 -42.09,-2.91 -6.94,-1.03 -12.7,-5.63 -15.91,-11.4 -4.66,-7.65 -3.14,-16.82 -2.53,-25.2 0.63,-7.37 3.11,-15.39 10.04,-19.64 9.14,-6.76 21.3,-3.36 31.93,-4.17 4.45,8.99 14.02,16.09 24.87,15.74 13.8,0.09 25.55,-11.4 26.54,-24.09 1.31,-9.6 -3.71,-19.09 -11.64,-24.91 7.49,-5.11 12.06,-13.96 10.55,-22.689999 -1.13,-9.183 -8.8,-16.737 -18.15,-19.115 6.77,-14.228 2.55,-32.567 -10.96,-41.92 -10.82,-8.105 -26.87,-8.106 -38.15,-0.793 -4.28,-13.53 -14.5,-25.5600003 -28.43,-31.1700003 A 46.488,43.799 0 0 0 195.099,0.01127073 Z M 180.839,74.251271 v 33.472999 a 87.516,82.456 0 0 0 -23.04,-21.404999 h 0.03 a 60.316,56.829 0 0 1 23.01,-12.068 z m 26.47,0.012 h 0.04 a 60.837,57.32 0 0 1 23,12.047 87.747,82.674 0 0 0 -23.04,21.423999 z m 34.66,26.630999 a 71.728,67.581 0 0 1 6.6,20.63 c -11.11,-0.66 -22.47,0.98 -32.21,6.27 6,-10.79 14.3,-20.7 25.61,-26.9 z m -95.84,0.01 0.01,0.01 c 11.31,6.18 19.68,16.08 25.62,26.9 -9.74,-5.3 -21.12,-6.91 -32.23,-6.3 a 72.723,68.517 0 0 1 6.6,-20.61 z" />
</svg>
