<svg xmlns="http://www.w3.org/2000/svg" xml:space="preserve" width="1000" height="1000" style="clip-rule:evenodd;fill-rule:evenodd;stroke-linejoin:round;stroke-miterlimit:2"><path d="M3207.44 0h1000v1000h-1000z" style="fill:none" transform="translate(-3207.44)"/><circle cx="500" cy="500" r="417.145" style="fill:#fff" transform="rotate(180 500 500)"/><path d="m257.329 839.839-47.191 63.707S313.405 999.71 500 998.675c188.024-1.044 292.333-97.926 291.045-94.062l-47.32-65.836s53.835-37.719 93.611-93.611l63.779 46.977S993.72 684.326 994.546 500c.818-182.74-92.506-290.398-92.506-293.204l-64.586 47.538s-23.938-39.543-93.046-93.873l45.637-66.066S669.908 4.665 500 2.122C330.135-.42 209.93 91.874 209.93 95.728l47.213 64.355s-64.507 45.92-93.48 94.027l-64.507-48.107S5.371 314.329 5.371 500s93.424 291.738 93.424 291.738l63.921-47.765s30.477 51.245 94.613 95.866" style="fill:#fff"/><circle cx="500" cy="500" r="417.145" transform="matrix(.92568 0 0 .92568 37.16 37.157)"/><path d="m345.601 730.487-93.178 129.802 488.87-9.838-84.954-118.499z" style="fill:#fff"/><path d="M258.654 895.017 363.068 753.16s10.9 7.616 25.594 12.145l95.584 198.364s-121.104 1.218-225.592-68.65M742.638 894.565 637.171 753.163s-11.01 7.592-25.852 12.106l-96.073 198.405s121.85.535 227.392-69.109"/><path d="m753.139 133.928-499.917 7.728 95.097 131.619 302.201 1.324z" style="fill:#fff"/><path d="m738.947 104.725-103.1 141.808s-10.482-7.415-24.992-11.911L516.827 36.779s118.947-1.416 222.12 67.946M262.717 104.725l102.216 141.808s10.762-8.331 25.272-12.827l93.658-196.925s-117.972-1.418-221.146 67.944"/><path d="m738.142 336.776 110.231-80.637-13.079 480.014-116.852-89.259Z" style="fill:#fff" transform="rotate(-1.578 933.174 537.103)"/><path d="M891.974 254.228 751.755 360.781s8.171 11.868 12.667 26.743l194.89 96.943S961.335 360 891.973 254.228M891.423 741.84 750.166 638.535s7.46-10.63 11.995-25.193l197.352-96.17s1.905 121.12-68.09 224.668"/><path d="m267.463 657.948-1.292-318.221-123.942-91.463-22.188 264.353 43.39 222.178z" style="fill:#fff"/><path d="m108.673 742.827 140.83-103.983s-7.56-10.763-12.057-25.272L40.76 517.973s-1.448 121.68 67.914 224.854M108.673 256.328l140.082 105.579s-7.562 11.168-12.058 25.884L40.771 484.104s-1.46-123.135 67.902-227.776"/><path d="M388.422 767.44c-68.315-29.37-123.105-84.83-152.167-154.015L5.233 500.385l230.452-112.761c29.005-70.049 84.332-126.185 153.411-155.672L499.692 5.925 610.02 231.403c69.89 29.423 125.852 86.07 154.966 156.85l229.166 112.132L764.42 612.794c-29.175 69.916-84.601 125.888-153.728 155.2l-111 226.851z" style="fill:#fff" transform="translate(.31 -.385)"/><path d="M407.379 743.154c-67.311-26.453-120.971-80.742-147.19-148.893L67.547 500l192.195-94.043c26.126-68.894 80.246-123.77 148.213-150.29L500.006 67.54l91.842 187.699c68.663 26.423 123.335 81.736 149.525 151.258L932.466 500l-191.538 93.72c-26.285 68.779-80.496 123.507-148.505 149.867L500.006 932.46Z"/><circle cx="500" cy="500" r="417.145" style="fill:#fff" transform="matrix(.45972 0 0 .46585 270.588 266.601)"/><circle cx="500" cy="500" r="417.145" transform="matrix(.3902 0 0 .3954 305.348 301.824)"/><circle cx="500" cy="500" r="417.145" style="fill:#fff" transform="matrix(.26888 0 0 .27246 366.01 363.295)"/><circle cx="500" cy="500" r="417.145" transform="matrix(.201 0 0 .20367 399.953 397.689)"/></svg>