<svg xmlns="http://www.w3.org/2000/svg" xml:space="preserve" width="1000" height="1000" style="clip-rule:evenodd;fill-rule:evenodd;stroke-linejoin:round;stroke-miterlimit:2"><path d="M0 0h1000v1000H0z" style="fill:none"/><circle cx="500" cy="500" r="417.145" transform="rotate(180 500 500)"/><path d="m257.329 839.839-47.191 63.707S313.405 999.71 500 998.675c188.024-1.044 292.333-97.926 291.045-94.062l-47.32-65.836s53.835-37.719 93.611-93.611l63.779 46.977S993.72 684.326 994.546 500c.818-182.74-92.506-290.398-92.506-293.204l-64.586 47.538s-23.938-39.543-93.046-93.873l45.637-66.066S669.908 4.665 500 2.122C330.135-.42 209.93 91.874 209.93 95.728l47.213 64.355s-64.507 45.92-93.48 94.027l-64.507-48.107S5.371 314.329 5.371 500s93.424 291.738 93.424 291.738l63.921-47.765s30.477 51.245 94.613 95.866"/><circle cx="500" cy="500" r="417.145" style="fill:#66337a" transform="matrix(.92568 0 0 .92568 37.157 37.157)"/><path d="m345.601 730.487-93.178 129.802 488.87-9.838-84.954-118.499z"/><path d="m259.907 894.84 103.101-140.83s10.763 7.561 25.272 12.057l94.382 196.926s-119.581 1.209-222.755-68.153" style="fill:url(#a)" transform="matrix(1.01274 0 0 1.0073 -4.565 -6.355)"/><path d="m259.907 894.84 103.101-140.83s10.763 7.561 25.272 12.057l93.918 197.603s-119.117.532-222.291-68.83" style="fill:url(#b)" transform="matrix(-1.02295 0 0 1.00406 1008.51 -3.908)"/><path d="m753.139 133.928-499.917 7.728 95.097 131.619 302.201 1.324z"/><path d="M257.378 894.278 360.479 752.47s10.481 7.415 24.991 11.911l94.028 197.843s-118.947 1.416-222.12-67.946" style="fill:url(#c)" transform="rotate(180 498.163 499.502)"/><path d="M262.717 894.278 364.933 752.47s10.762 8.331 25.272 12.827l93.658 196.925s-117.972 1.418-221.146-67.944" style="fill:url(#d)" transform="matrix(1 0 0 -1 0 999.003)"/><path d="m732.697 342.274 107.968-83.643.148 480.193-119.267-86.007Z"/><path d="m258.665 896.467 103.936-140.219s11.576 8.171 26.086 12.667l94.562 194.889s-121.41 2.025-224.584-67.337" style="fill:url(#e)" transform="matrix(0 1.02518 1 0 -4.498 -10.95)"/><path d="m257.021 896.537 102.932-139.981s10.592 7.392 25.102 11.887l95.824 195.568s-120.684 1.888-223.858-67.474" style="fill:url(#f)" transform="matrix(0 -1.00362 1.00912 0 -13.295 999.791)"/><path d="m267.463 657.948-1.292-318.221-123.942-91.463-22.188 264.353 43.39 222.178z"/><path d="m259.025 894.84 103.983-140.83s10.763 7.561 25.272 12.057l95.599 196.687s-121.68 1.448-224.854-67.914" style="fill:url(#g)" transform="scale(1 -1)rotate(90 1002.679 .826)"/><path d="m255.665 894.84 104.099-140.082s11.012 7.562 25.522 12.058l94.963 195.926s-121.41 1.46-224.584-67.902" style="fill:url(#h)" transform="matrix(0 1.01421 -1 0 1003.505 -2.97)"/><path d="M388.73 767.055c-68.315-29.37-123.105-84.83-152.167-154.015L5.54 500l230.452-112.76c29.005-70.05 84.332-126.186 153.41-155.673L500 5.54l110.328 225.478c69.89 29.423 125.852 86.07 154.966 156.85L994.46 500 764.728 612.41C735.553 682.324 680.127 738.296 611 767.61L500 994.46z"/><path d="M393.785 778.399c-76.961-30.246-138.314-92.318-168.292-170.24L5.233 500.385 224.982 392.86c29.872-78.771 91.751-141.514 169.462-171.836L499.692 5.925l105.009 214.608c78.507 30.211 141.017 93.455 170.961 172.943l218.49 106.909-218.998 107.156C745.1 686.18 683.117 748.754 605.358 778.894L499.692 994.845Z" style="fill:#fff" transform="translate(62.964 62.358)scale(.87461)"/><circle cx="500" cy="500" r="417.145" transform="matrix(.45972 0 0 .46585 270.588 266.601)"/><circle cx="500" cy="500" r="417.145" style="fill:#846699" transform="matrix(.3902 0 0 .3954 305.348 301.824)"/><circle cx="500" cy="500" r="417.145" transform="matrix(.26888 0 0 .27246 366.01 363.295)"/><circle cx="500" cy="500" r="417.145" style="fill:#fff" transform="matrix(.201 0 0 .20367 399.953 397.689)"/><defs><linearGradient id="a" x1="0" x2="1" y1="0" y2="0" gradientTransform="translate(112.557 858.502)scale(767.512)" gradientUnits="userSpaceOnUse"><stop offset="0" style="stop-color:#612c75;stop-opacity:1"/><stop offset=".3" style="stop-color:#7b5190;stop-opacity:1"/><stop offset=".5" style="stop-color:#bf99c3;stop-opacity:1"/><stop offset=".7" style="stop-color:#7b5190;stop-opacity:1"/><stop offset="1" style="stop-color:#612c75;stop-opacity:1"/></linearGradient><linearGradient id="b" x1="0" x2="1" y1="0" y2="0" gradientTransform="rotate(180 439.456 429.42)scale(759.855)" gradientUnits="userSpaceOnUse"><stop offset="0" style="stop-color:#612c75;stop-opacity:1"/><stop offset=".3" style="stop-color:#7b5190;stop-opacity:1"/><stop offset=".5" style="stop-color:#bf99c3;stop-opacity:1"/><stop offset=".7" style="stop-color:#7b5190;stop-opacity:1"/><stop offset="1" style="stop-color:#612c75;stop-opacity:1"/></linearGradient><linearGradient id="c" x1="0" x2="1" y1="0" y2="0" gradientTransform="rotate(180 436.915 428.674)scale(756.675)" gradientUnits="userSpaceOnUse"><stop offset="0" style="stop-color:#612c75;stop-opacity:1"/><stop offset=".3" style="stop-color:#7b5190;stop-opacity:1"/><stop offset=".5" style="stop-color:#bf99c3;stop-opacity:1"/><stop offset=".7" style="stop-color:#7b5190;stop-opacity:1"/><stop offset="1" style="stop-color:#612c75;stop-opacity:1"/></linearGradient><linearGradient id="d" x1="0" x2="1" y1="0" y2="0" gradientTransform="translate(122.495 857.348)scale(756.675)" gradientUnits="userSpaceOnUse"><stop offset="0" style="stop-color:#612c75;stop-opacity:1"/><stop offset=".3" style="stop-color:#7b5190;stop-opacity:1"/><stop offset=".5" style="stop-color:#bf99c3;stop-opacity:1"/><stop offset=".7" style="stop-color:#7b5190;stop-opacity:1"/><stop offset="1" style="stop-color:#612c75;stop-opacity:1"/></linearGradient><linearGradient id="e" x1="0" x2="1" y1="0" y2="0" gradientTransform="matrix(0 -1000 1000 0 498.407 1004.5)" gradientUnits="userSpaceOnUse"><stop offset="0" style="stop-color:#612c75;stop-opacity:1"/><stop offset=".3" style="stop-color:#7b5190;stop-opacity:1"/><stop offset=".5" style="stop-color:#bf99c3;stop-opacity:1"/><stop offset=".7" style="stop-color:#7b5190;stop-opacity:1"/><stop offset="1" style="stop-color:#612c75;stop-opacity:1"/></linearGradient><linearGradient id="f" x1="0" x2="1" y1="0" y2="0" gradientTransform="rotate(-90 751.057 253.073)scale(990.96)" gradientUnits="userSpaceOnUse"><stop offset="0" style="stop-color:#612c75;stop-opacity:1"/><stop offset=".3" style="stop-color:#7b5190;stop-opacity:1"/><stop offset=".5" style="stop-color:#bf99c3;stop-opacity:1"/><stop offset=".7" style="stop-color:#7b5190;stop-opacity:1"/><stop offset="1" style="stop-color:#612c75;stop-opacity:1"/></linearGradient><linearGradient id="g" x1="0" x2="1" y1="0" y2="0" gradientTransform="matrix(0 1000 -1000 0 501.857 3.505)" gradientUnits="userSpaceOnUse"><stop offset="0" style="stop-color:#612c75;stop-opacity:1"/><stop offset=".3" style="stop-color:#7b5190;stop-opacity:1"/><stop offset=".5" style="stop-color:#bf99c3;stop-opacity:1"/><stop offset=".7" style="stop-color:#7b5190;stop-opacity:1"/><stop offset="1" style="stop-color:#612c75;stop-opacity:1"/></linearGradient><linearGradient id="h" x1="0" x2="1" y1="0" y2="0" gradientTransform="rotate(90 246.21 249.715)scale(1000)" gradientUnits="userSpaceOnUse"><stop offset="0" style="stop-color:#612c75;stop-opacity:1"/><stop offset=".3" style="stop-color:#7b5190;stop-opacity:1"/><stop offset=".5" style="stop-color:#bf99c3;stop-opacity:1"/><stop offset=".7" style="stop-color:#7b5190;stop-opacity:1"/><stop offset="1" style="stop-color:#612c75;stop-opacity:1"/></linearGradient></defs></svg>