<svg xmlns="http://www.w3.org/2000/svg" xml:space="preserve" width="1000" height="1000" style="clip-rule:evenodd;fill-rule:evenodd;stroke-linejoin:round;stroke-miterlimit:2"><path d="M4276.44 0h1000v1000h-1000z" style="fill:none" transform="translate(-4276.44)"/><path d="M500.76 664.645c-90.14 0-163.323-74.158-163.323-165.5 0-91.343 73.182-165.5 163.324-165.5 90.14 0 163.324 74.157 163.324 165.5 0 91.342-73.184 165.5-163.324 165.5m0-360.487c-106.202 0-192.423 87.371-192.423 194.987 0 107.615 86.221 194.986 192.423 194.986 106.2 0 192.422-87.371 192.422-194.986 0-107.616-86.222-194.987-192.422-194.987"/><path d="M500.76 584.394c-46.432 0-84.127-38.2-84.127-85.249 0-47.05 37.695-85.248 84.128-85.248 46.43 0 84.128 38.197 84.128 85.248 0 47.05-37.697 85.249-84.128 85.249m0-199.29c-62.113 0-112.543 51.1-112.543 114.041s50.43 114.04 112.543 114.04 112.54-51.1 112.54-114.04-50.427-114.042-112.54-114.042"/><path d="m0 348.754-101.705-74.379s5.37-7.655 8.637-18.139l142.092-69.244S50.397 274.2 0 348.754m-125.058 51.763-42.582-55.922c22.46-14.462 41.534-32.658 56.938-54.901l55.564 41.247s-26.886 40.381-69.92 69.576m-145.791 107.958 69.173-142.851c10.686-3.251 18.613-8.717 18.613-8.717l75.936 101.809c-75.989 50.143-163.722 49.759-163.722 49.759m-77.668-158.772c-48.463-19.046-87.098-58.134-105.976-107.203l-138.702-67.868 138.38-67.71c18.811-49.604 57.778-89.114 106.713-108.209l66.278-135.452 66.126 135.143c49.437 19.025 88.801 58.851 107.657 108.906l137.588 67.322-137.907 67.479c-18.926 49.521-57.958 88.925-106.925 107.904l-66.539 135.988zm-107.077 109.342 75.179-102.138s7.848 5.484 18.428 8.745l68.82 142.822s-87.195.876-162.427-49.429m-55.664-123.622 55.497-43.135c14.684 22.315 33.069 41.207 55.464 56.39l-40.693 55.97s-40.646-26.483-70.268-69.225m-52.327 14.048c-49.941-74.285-48.898-161.895-48.898-161.895l141.614 68.832c3.237 10.446 8.681 18.195 8.681 18.195zm0-350.283 100.858 76.016s-5.444 8.041-8.681 18.637l-141.067 69.344s-1.051-88.657 48.89-163.997m123.535-56.103 42.355 56.094c-22.517 14.371-41.665 32.49-57.159 54.67l-55.396-41.47s27.049-40.273 70.2-69.294m146.607-101.97-67.434 141.786c-10.447 3.237-18.196 9.235-18.196 9.235l-73.595-102.101c74.285-49.941 159.225-48.92 159.225-48.92m183.661 48.92L-184.015-7.864s-7.547-5.339-17.994-8.576l-67.7-142.447s85.641-1.019 159.927 48.922m55.171 125.056-55.565 43.046c-14.649-22.338-33.003-41.26-55.373-56.478l40.782-55.905s40.604 26.548 70.156 69.337M.393-2.329c49.941 76.156 48.483 165.772 48.483 165.772l-140.32-69.799c-3.237-10.709-9.121-19.254-9.121-19.254zm7.252-34.146L-38.857-2.247s-17.236-28.471-66.994-67.589l32.859-47.567s-86.498-64.606-208.832-66.437c-122.303-1.83-208.851 64.622-208.851 67.397l33.994 46.335s-46.445 33.062-67.306 67.699l-46.445-34.637s-67.525 77.995-67.525 211.678 67.265 210.052 67.265 210.052l46.023-34.391s21.943 36.896 68.122 69.023l-33.978 45.87s74.352 69.238 208.701 68.492c132.606-.736 207.368-67.669 209.502-67.794l-34.021-47.332s38.762-27.158 67.4-67.4l45.921 33.823s66.676-77.628 67.271-210.343C74.838 43.06 7.645-34.454 7.645-36.475" style="fill-rule:nonzero" transform="matrix(1.39712 0 0 1.38889 892.803 257.456)"/></svg>