<svg xmlns="http://www.w3.org/2000/svg" width="600" height="503.249"><linearGradient id="a" x1="0" x2="1" y1="0" y2="0" gradientTransform="scale(41.70214 -41.70214)rotate(45 7.142 3.948)" gradientUnits="userSpaceOnUse" spreadMethod="pad"><stop offset="0" style="stop-color:#8b723c"/><stop offset=".3" style="stop-color:#d2bb7b"/><stop offset=".5" style="stop-color:#ebd491"/><stop offset=".7" style="stop-color:#d2bb7b"/><stop offset="1" style="stop-color:#8b723c"/></linearGradient><path fill="#fff" d="M171.384 0s-31.646 3.383-31.646 36.158L22.077 68.988S-7.301 80.264 1.722 118.733l97.292 363.023s20.369 27.176 44.107 20.41l156.886-43.2 156.927 43.2c23.738 6.766 44.107-20.41 44.107-20.41l97.237-363.023c9.023-38.469-20.355-49.747-20.355-49.747l-117.606-32.83C460.317 3.384 428.616 0 428.616 0Z"/><path d="M172.402 13.547c-1.444.262-6.01 1.28-10.26 4.126-6.065 4.03-8.857 9.889-8.857 18.485v10.315S28.472 81.283 26.643 81.778c-3.273 1.5-13.052 7.468-13.052 23.037 0 3.177.44 6.726 1.348 10.7.165.702 94.871 354.152 96.384 359.846 4.181 4.731 16.49 16.972 28.043 13.699l160.64-44.218 160.628 44.218c11.608 3.273 23.862-8.968 28.043-13.699 1.568-5.694 96.22-359.144 96.384-359.846.963-3.974 1.348-7.523 1.348-10.7 0-15.569-9.779-21.538-13.01-23.037-1.816-.495-126.684-35.305-126.684-35.305V36.158c0-8.596-2.792-14.455-8.802-18.485-4.305-2.847-8.816-3.865-10.315-4.126z"/><path d="M209.219 162.586s-.383-.164-.383-.492v-27.301s0-.551.383-.551h18.367s.437.113.437.551v27.301s-.054.492-.437.492zm20.035-27.848s-.219-1.644-1.535-1.644h-7.125l9.535-2.633s.551-.273.824.328l7.02 26.043s.269.82-.387 1.039l-8.332 2.25zm-30.066 23.078c-.661-.218-.383-1.039-.383-1.039l7.015-26.039c.274-.605.821-.332.821-.332l9.539 2.629h-7.125c-1.317 0-1.535 1.649-1.535 1.649v25.382z" style="fill:url(#a)" transform="matrix(13.75349 0 0 -13.75349 -2703.576 2266.643)"/><path d="M319.454 197.06c33.256-16.972 49.911-36.31 49.911-57.916 0-12.076-4.304-22.02-12.955-29.763-8.596-7.784-19.063-11.649-31.372-11.649-12.887 0-23.587 4.085-32.128 12.24-8.541 8.17-12.791 17.358-12.791 27.508 0 7.042 1.994 13.808 6.079 20.314 4.03 6.45 13.644 18.003 28.841 34.493zm-21.277 29.02c-22.35 9.724-39.06 20.3-50.186 31.647-11.168 11.387-16.752 23.793-16.752 37.23 0 14.4 5.584 26.27 16.807 35.773 11.126 9.407 24.605 14.139 40.408 14.139 15.472 0 28.304-4.677 38.578-14.029 10.26-9.352 15.418-20.41 15.418-33.146 0-18.594-14.785-42.498-44.273-71.614m-12.57-13.644c-24.454-23.972-36.64-45.51-36.64-64.586 0-17.99 7.785-33.352 23.478-45.978 15.637-12.68 34.108-19.021 55.385-19.021 20.74 0 37.657 5.584 50.819 16.655 13.162 11.168 19.722 25.197 19.722 42.279 0 13.643-4.73 25.567-14.18 35.828-9.462 10.26-26.915 21.221-52.386 32.83 28.8 29.28 43.2 53.83 43.2 73.759 0 19.668-7.84 37.176-23.588 52.552-15.748 15.308-37.286 22.996-64.628 22.996-26.86 0-47.765-7.207-62.757-21.607-15.032-14.4-22.5-29.817-22.5-46.253 0-16.064 7.413-31.055 22.294-45.015 14.881-13.918 35.511-25.416 61.78-34.439"/></svg>