<svg xmlns="http://www.w3.org/2000/svg" width="600" height="503.207"><linearGradient id="a" x1="0" x2="1" y1="0" y2="0" gradientTransform="scale(41.70117 -41.70117)rotate(45 6.139 1.526)" gradientUnits="userSpaceOnUse" spreadMethod="pad"><stop offset="0" style="stop-color:#612c75"/><stop offset=".3" style="stop-color:#7b5190"/><stop offset=".5" style="stop-color:#bf99c3"/><stop offset=".7" style="stop-color:#7b5190"/><stop offset="1" style="stop-color:#612c75"/></linearGradient><path fill="#612c75" d="M171.388 0S139.74 3.342 139.74 36.158L22.081 68.987S-7.31 80.265 1.726 118.733l97.291 363.02s20.355 27.178 44.107 20.356l156.927-43.145 156.87 43.145c23.753 6.822 44.108-20.355 44.108-20.355l97.25-363.021c9.022-38.468-20.369-49.746-20.369-49.746l-117.605-32.83C460.305 3.343 428.617 0 428.617 0Z"/><path fill="#fff" d="M172.405 13.547c-1.458.262-6.024 1.28-10.26 4.126-6.079 4.03-8.87 9.889-8.87 18.485v10.315S28.475 81.283 26.646 81.778c-3.218 1.499-13.052 7.413-13.052 23.037 0 3.177.426 6.725 1.348 10.7.152.702 94.87 354.15 96.37 359.843 4.195 4.732 16.504 16.972 28.098 13.699l160.64-44.217 160.64 44.217c11.552 3.273 23.793-8.967 27.987-13.699 1.554-5.693 96.219-359.142 96.44-359.843.907-3.975 1.333-7.523 1.333-10.7 0-15.624-9.834-21.538-13.052-23.037-1.829-.495-126.682-35.305-126.682-35.305V36.158c0-8.596-2.792-14.455-8.816-18.485-4.291-2.847-8.802-3.865-10.315-4.126z"/><path d="M125.535 162.586s-.383-.164-.383-.492v-27.301s0-.551.383-.551h18.367s.438.113.438.551v27.301s-.055.492-.438.492zm20.035-27.848s-.215-1.644-1.535-1.644h-7.125l9.539-2.633s.547-.273.821.328l7.019 26.043s.273.82-.387 1.039l-8.332 2.25zm-30.066 23.078c-.656-.218-.383-1.039-.383-1.039l7.016-26.039c.273-.605.824-.332.824-.332l9.539 2.629h-7.129c-1.316 0-1.531 1.649-1.531 1.649v25.382z" style="fill:url(#a)" transform="matrix(13.7534 0 0 -13.7534 -1552.628 2266.628)"/><path fill="#fff" d="M319.443 197.059c33.256-16.972 49.91-36.31 49.91-57.916 0-12.075-4.29-22.02-12.886-29.762-8.65-7.785-19.076-11.65-31.44-11.65-12.887 0-23.574 4.085-32.114 12.241-8.555 8.17-12.791 17.357-12.791 27.507 0 7.042 2.035 13.808 6.065 20.314 4.085 6.45 13.698 18.003 28.91 34.493zm-21.277 29.02c-22.294 9.723-39.004 20.3-50.172 31.646-11.182 11.388-16.71 23.793-16.71 37.23 0 14.4 5.583 26.27 16.765 35.773 11.168 9.407 24.66 14.138 40.394 14.138 15.472 0 28.373-4.676 38.633-14.028s15.362-20.41 15.362-33.146c0-18.594-14.77-42.498-44.272-71.614m-12.515-13.643c-24.44-23.972-36.694-45.51-36.694-64.586 0-17.99 7.84-33.352 23.477-45.978 15.692-12.68 34.122-19.02 55.398-19.02 20.727 0 37.712 5.583 50.874 16.655 13.107 11.168 19.654 25.196 19.654 42.278 0 13.643-4.718 25.567-14.125 35.827-9.449 10.26-26.915 21.222-52.428 32.83 28.786 29.28 43.186 53.83 43.186 73.76 0 19.666-7.84 37.175-23.587 52.55-15.734 15.308-37.286 22.996-64.627 22.996-26.806 0-47.752-7.206-62.743-21.606-14.992-14.4-22.515-29.817-22.515-46.253 0-16.064 7.468-31.055 22.35-45.015 14.88-13.918 35.456-25.416 61.78-34.438"/></svg>