<svg xmlns="http://www.w3.org/2000/svg" width="600" height="503.249"><linearGradient id="a" x1="0" x2="1" y1="0" y2="0" gradientTransform="scale(41.70117 -41.70117)rotate(45 6.139 1.526)" gradientUnits="userSpaceOnUse" spreadMethod="pad"><stop offset="0" style="stop-color:#536e78"/><stop offset=".3" style="stop-color:#99aebc"/><stop offset=".5" style="stop-color:#d9eaf3"/><stop offset=".7" style="stop-color:#99aebc"/><stop offset="1" style="stop-color:#536e78"/></linearGradient><path fill="#fff" d="M171.384 0s-31.646 3.383-31.646 36.158L22.077 68.988S-7.301 80.264 1.722 118.733l97.292 363.023s20.369 27.176 44.107 20.41l156.886-43.2 156.927 43.2c23.738 6.766 44.107-20.41 44.107-20.41l97.237-363.023c9.023-38.469-20.355-49.747-20.355-49.747l-117.606-32.83C460.317 3.384 428.616 0 428.616 0Z"/><path d="M172.402 13.547c-1.444.262-6.01 1.28-10.26 4.126-6.065 4.03-8.857 9.889-8.857 18.485v10.315S28.472 81.283 26.643 81.778c-3.273 1.5-13.052 7.468-13.052 23.037 0 3.177.44 6.726 1.348 10.7.165.702 94.871 354.152 96.384 359.846 4.181 4.731 16.49 16.972 28.043 13.699l160.64-44.218 160.628 44.218c11.608 3.273 23.862-8.968 28.043-13.699 1.568-5.694 96.22-359.144 96.384-359.846.963-3.974 1.348-7.523 1.348-10.7 0-15.569-9.779-21.538-13.01-23.037-1.816-.495-126.684-35.305-126.684-35.305V36.158c0-8.596-2.792-14.455-8.802-18.485-4.305-2.847-8.816-3.865-10.315-4.126z"/><path d="M125.535 162.586s-.383-.164-.383-.492v-27.301s0-.551.383-.551h18.367s.438.113.438.551v27.301s-.055.492-.438.492zm20.035-27.848s-.215-1.644-1.535-1.644h-7.125l9.539-2.633s.547-.273.821.328l7.019 26.043s.273.82-.387 1.039l-8.332 2.25zm-30.066 23.078c-.656-.218-.383-1.039-.383-1.039l7.016-26.039c.273-.605.824-.332.824-.332l9.539 2.629h-7.129c-1.316 0-1.531 1.649-1.531 1.649v25.382z" style="fill:url(#a)" transform="matrix(13.7534 0 0 -13.7534 -1552.628 2266.628)"/><path d="M319.443 197.059c33.256-16.972 49.91-36.31 49.91-57.916 0-12.075-4.29-22.02-12.886-29.762-8.65-7.785-19.076-11.65-31.44-11.65-12.887 0-23.574 4.085-32.114 12.241-8.555 8.17-12.791 17.357-12.791 27.507 0 7.042 2.035 13.808 6.065 20.314 4.085 6.45 13.698 18.003 28.91 34.493zm-21.277 29.02c-22.294 9.723-39.004 20.3-50.172 31.646-11.182 11.388-16.71 23.793-16.71 37.23 0 14.4 5.583 26.27 16.765 35.773 11.168 9.407 24.66 14.138 40.394 14.138 15.472 0 28.373-4.676 38.633-14.028s15.362-20.41 15.362-33.146c0-18.594-14.77-42.498-44.272-71.614m-12.515-13.643c-24.44-23.972-36.694-45.51-36.694-64.586 0-17.99 7.84-33.352 23.477-45.978 15.692-12.68 34.122-19.02 55.398-19.02 20.727 0 37.712 5.583 50.874 16.655 13.107 11.168 19.654 25.196 19.654 42.278 0 13.643-4.718 25.567-14.125 35.827-9.449 10.26-26.915 21.222-52.428 32.83 28.786 29.28 43.186 53.83 43.186 73.76 0 19.666-7.84 37.175-23.587 52.55-15.734 15.308-37.286 22.996-64.627 22.996-26.806 0-47.752-7.206-62.743-21.606-14.992-14.4-22.515-29.817-22.515-46.253 0-16.064 7.468-31.055 22.35-45.015 14.88-13.918 35.456-25.416 61.78-34.438"/></svg>