<svg xmlns="http://www.w3.org/2000/svg" width="600" height="503.196"><path d="M171.376 0S139.73 3.341 139.73 36.156L22.14 68.986S-7.304 80.263 1.718 118.73l97.29 363.014s20.367 27.175 44.105 20.354l156.937-43.143 156.868 43.143c23.737 6.821 44.107-20.354 44.107-20.354l97.234-363.014c9.077-38.467-20.3-49.744-20.3-49.744l-117.602-32.83C460.357 3.341 428.656 0 428.656 0Zm1.018 13.547h255.244c1.444.261 6.01 1.278 10.315 4.125 5.955 4.03 8.802 9.889 8.802 18.484v10.317s124.81 34.807 126.64 35.302c3.272 1.5 13.05 7.414 13.05 23.037 0 3.177-.426 6.725-1.348 10.7-.165.701-94.87 354.144-96.437 359.838-4.126 4.73-16.434 16.97-27.987 13.697L300.05 444.83l-160.636 44.217c-11.553 3.273-23.904-8.966-28.043-13.697-1.568-5.694-96.216-359.137-96.381-359.838-.963-3.975-1.403-7.523-1.403-10.7 0-15.623 9.833-21.538 13.065-23.037 1.815-.495 126.625-35.302 126.625-35.302V36.156c0-8.595 2.847-14.454 8.857-18.484 4.305-2.847 8.816-3.864 10.26-4.125m1.568 16.97s-5.322 2.257-5.322 6.768v375.473s0 7.578 5.322 7.578H426.51s6.067-1.554 6.067-7.578V37.285s-.8-6.767-6.067-6.767zM449.505 64.42v349.096s-3.012 22.609-21.11 22.609h-98.046l131.19 36.21s7.577 3.757 11.277-4.509l96.547-358.172s3.754-11.279-5.268-14.29zm-298.923.756L35.935 96.12c-9.022 2.998-5.213 14.29-5.213 14.29l96.438 358.171c3.823 8.266 11.332 4.512 11.332 4.512l131.205-36.158h-98.004c-18.154 0-21.111-22.678-21.111-22.678zM327.818 82.85c20.74 0 37.711 5.583 50.873 16.654 13.107 11.167 19.72 25.196 19.72 42.277 0 13.643-4.73 25.567-14.179 35.826-9.462 10.26-26.914 21.22-52.44 32.829 28.8 29.28 43.2 53.83 43.2 73.757 0 19.667-7.855 37.175-23.588 52.551-15.692 15.307-37.284 22.996-64.625 22.996-26.819 0-47.765-7.206-62.756-21.605s-22.514-29.817-22.514-46.252c0-16.064 7.47-31.054 22.35-45.014 14.895-13.918 35.522-25.417 61.79-34.44-24.452-23.971-36.692-45.508-36.692-64.583 0-17.99 7.839-33.352 23.476-45.977 15.679-12.68 34.109-19.02 55.385-19.02m-2.793 14.88c-12.845 0-23.587 4.085-32.072 12.24-8.596 8.17-12.79 17.357-12.79 27.507 0 7.041 1.994 13.807 6.024 20.312 4.085 6.45 13.697 18.002 28.895 34.492l4.36 4.774c33.256-16.972 49.91-36.308 49.91-57.914 0-12.076-4.306-22.02-12.901-29.762-8.596-7.784-19.076-11.649-31.426-11.649m-26.86 128.344c-22.293 9.724-39.002 20.298-50.128 31.645-11.168 11.387-16.752 23.793-16.752 37.23 0 14.4 5.584 26.268 16.752 35.772 11.18 9.407 24.659 14.138 40.406 14.138 15.472 0 28.36-4.677 38.619-14.029s15.416-20.41 15.416-33.144c0-18.595-14.77-42.496-44.312-71.612"/></svg>