<svg xmlns="http://www.w3.org/2000/svg" id="Ebene_2" width="997.76" height="724.94" data-name="Ebene 2" version="1.1"><defs id="defs15"><radialGradient id="Unbenannter_Verlauf_24" cx="499.88" cy="500.12" r="403.74" data-name="Unbenannter Verlauf 24" fx="499.88" fy="500.12" gradientTransform="matrix(.71825 -.69579 .57055 .58896 -144.3 416.93)" gradientUnits="userSpaceOnUse"><stop id="stop1" offset="0" stop-color="#8e752f"/><stop id="stop2" offset=".04" stop-color="#967d38"/><stop id="stop3" offset=".11" stop-color="#af964f"/><stop id="stop4" offset=".19" stop-color="#b49b54"/><stop id="stop5" offset=".21" stop-color="#b9a059"/><stop id="stop6" offset=".29" stop-color="#cab068"/><stop id="stop7" offset=".38" stop-color="#d4ba71"/><stop id="stop8" offset=".5" stop-color="#d7bd74"/><stop id="stop9" offset=".62" stop-color="#d4ba71"/><stop id="stop10" offset=".71" stop-color="#cab068"/><stop id="stop11" offset=".79" stop-color="#b9a059"/><stop id="stop12" offset=".8" stop-color="#b49b54"/><stop id="stop13" offset=".85" stop-color="#a38a45"/><stop id="stop14" offset=".91" stop-color="#947b35"/><stop id="stop15" offset=".96" stop-color="#8e752f"/></radialGradient><style id="style1">.cls-2,.cls-3,.cls-4{stroke-width:0}.cls-2{fill:#e2c47d}.cls-3{fill:#817341}.cls-4{fill:#000}</style></defs><path id="path15" d="m732.23 445.94 265.53-83.69-265.64-83.5a246 246 0 0 0-16-35.4l40.36-40.65c-27.56-41.33-59.87-74.95-99.91-100.34l-41.39 41.6a246 246 0 0 0-28.33-12.82v-15.33L498.91 0l-88.03 115.81v15.71a245 245 0 0 0-29.21 13.43l-42.32-42.51C298.02 130 264.4 163.58 239.01 203.63l42.21 42.32a245 245 0 0 0-14.47 32.46L0 362.25l266.66 84.05c4.12 11.45 9.06 22.5 14.76 33.09l-42.2 42.41c28.14 42.41 60.97 77.11 100.34 100.84l42.24-42.54c9.35 5.06 19.08 9.53 29.11 13.38v15.67l87.99 115.79 87.98-115.79v-15.29c9.81-3.71 19.32-8.02 28.48-12.9l41.52 41.63c42.41-28.14 76.27-61.42 100-100.79l-40.47-40.65c6.15-11.23 11.46-23 15.83-35.2z" style="stroke-width:0;fill:url(#Unbenannter_Verlauf_24)"/><path id="path16" d="M499.01 217.01 35.64 362.44l463.24 145.94 463.24-145.87ZM108.07 362.44l390.98-123.03 390.76 123.1-390.87 122.16Z" class="cls-4"/><ellipse id="ellipse16" cx="498.88" cy="362.38" class="cls-4" rx="236.19" ry="237.51"/><path id="path17" d="m498.92 17.78-77.09 102.86v484.58l77.06 101.32 77.05-101.32v-485.1L498.92 17.77Zm0 652.49-54.6-72.31v-4.35c6.17 2.12 53.97 13.29 109.2.14v4.22zm54.6-538.94c-6.17-2.12-53.97-13.31-109.2-.17v-4.22l54.61-72.28 54.59 72.32z" class="cls-4"/><path id="path18" d="M498.88 147.19c-118.89 0-215.28 96.38-215.28 215.28s96.38 215.28 215.28 215.28 215.28-96.38 215.28-215.28-96.38-215.28-215.28-215.28m0 394.65c-99.08 0-179.4-80.32-179.4-179.4s80.32-179.4 179.4-179.4 179.4 80.32 179.4 179.4-80.32 179.4-179.4 179.4" class="cls-3"/><path id="path19" d="M254.11 201.3c28.43-41.01 50.92-60.36 84.86-84.35l404.69 406.6c-26.12 38.97-46.14 57.48-84.79 84.72.09-.09-404.68-407.06-404.77-406.97Z" class="cls-4"/><path id="path20" d="M338.57 608.48c-41.01-28.43-60.36-50.92-84.35-84.86l404.63-406.67c38.97 26.12 57.45 46.11 84.69 84.76-.09-.09-405.06 406.68-404.97 406.77" class="cls-4"/><path id="path21" d="M336.92 584.95c-28.43-19.71-41.54-36.11-58.98-59.55l382.87-384.98c26.39 18.07 38.63 33.01 59.02 59.8-.06-.06-382.97 384.68-382.91 384.74z" class="cls-2"/><path id="path22" d="M720.06 525.21c-17.61 25.39-32.44 38.93-59.57 59.8L277.7 199.6c17.63-24.58 31.68-37.89 59.12-60.01z" class="cls-2"/><ellipse id="ellipse22" cx="498.88" cy="362.47" class="cls-4" rx="179.4" ry="180.4"/><path id="path23" d="M360.44 341.89c94.83-95.17 187.58-94.17 276.89 1.09-15.59-79.37-77.44-121.03-138.73-121.39-77.16 4.25-125.94 51.95-138.16 120.3" class="cls-2"/><path id="path24" d="M637.39 383.56c-94.85 95.15-187.71 94.01-277.01-1.26 15.57 79.37 76.87 120.5 138.15 120.86 77.16-4.24 126.62-51.25 138.86-119.61z" class="cls-2"/><circle id="circle24" cx="498.88" cy="362.38" r="69.04" class="cls-3"/><circle id="circle25" cx="498.88" cy="362.38" r="45.24" class="cls-4"/><circle id="circle26" cx="498.88" cy="362.38" r="33.07" class="cls-2"/></svg>