<svg xmlns="http://www.w3.org/2000/svg" xml:space="preserve" width="997.77" height="724.93" style="clip-rule:evenodd;fill-rule:evenodd;stroke-linejoin:round;stroke-miterlimit:2"><path d="m732.24 445.94 265.53-83.69-265.64-83.5a246 246 0 0 0-16-35.4l40.36-40.65c-27.56-41.33-59.87-74.95-99.91-100.34l-41.39 41.6a246 246 0 0 0-28.33-12.82v-15.33L498.92 0l-88.03 115.81v15.71a245 245 0 0 0-29.21 13.43l-42.32-42.51c-41.33 27.56-74.95 61.14-100.34 101.19l42.21 42.32a245 245 0 0 0-14.47 32.46L0 362.24l266.66 84.05c4.12 11.45 9.06 22.5 14.76 33.09l-42.2 42.41c28.14 42.41 60.97 77.11 100.34 100.84l42.24-42.54c9.35 5.06 19.08 9.53 29.11 13.38v15.67l87.99 115.79 87.98-115.79v-15.29c9.81-3.71 19.32-8.02 28.48-12.9l41.52 41.63c42.41-28.14 76.27-61.42 100-100.79l-40.47-40.65c6.15-11.23 11.46-23 15.83-35.2" style="fill:url(#a);fill-rule:nonzero"/><path d="M498.98 217 35.6 362.43l463.24 145.94L962.08 362.5 498.97 217ZM108.03 362.43 499.01 239.4l390.76 123.1L498.9 484.66Z" style="fill:#1d1d1b;fill-rule:nonzero"/><ellipse cx="498.55" cy="362.37" rx="236.19" ry="237.51" style="fill:#1d1d1b"/><path d="m498.9 17.78-77.09 102.86v484.58l77.06 101.32 77.05-101.32v-485.1L498.9 17.77Zm0 652.49-54.6-72.31v-4.35c6.17 2.12 53.97 13.29 109.2.14v4.22zm54.6-538.94c-6.17-2.12-53.97-13.31-109.2-.17v-4.22l54.61-72.28 54.59 72.32z" style="fill:#1d1d1b;fill-rule:nonzero"/><path d="M498.89 147.18c-118.89 0-215.28 96.38-215.28 215.28s96.38 215.28 215.28 215.28 215.28-96.38 215.28-215.28-96.38-215.28-215.28-215.28m0 394.65c-99.08 0-179.4-80.32-179.4-179.4s80.32-179.4 179.4-179.4 179.4 80.32 179.4 179.4-80.32 179.4-179.4 179.4" style="fill:#66337a;fill-rule:nonzero"/><path d="M253.13 201.29c28.43-41.01 50.92-60.36 84.86-84.35l404.69 406.6c-26.12 38.97-46.14 57.48-84.79 84.72.09-.09-404.68-407.06-404.77-406.97z" style="fill:#1d1d1b;fill-rule:nonzero"/><path d="M337.45 608.47c-41.01-28.43-60.36-50.92-84.35-84.86l404.63-406.67c38.97 26.12 57.45 46.11 84.69 84.76-.09-.09-405.06 406.68-404.97 406.77" style="fill:#1d1d1b;fill-rule:nonzero"/><path d="M335.84 584.94c-28.43-19.71-41.54-36.11-58.98-59.55l382.87-384.98c26.39 18.07 38.63 33.01 59.02 59.8-.06-.06-382.97 384.68-382.91 384.74z" style="fill:#a780b1;fill-rule:nonzero"/><path d="M719.09 525.21c-17.61 25.39-32.44 38.93-59.57 59.8L276.73 199.6c17.63-24.58 31.68-37.89 59.12-60.01z" style="fill:#a780b1;fill-rule:nonzero"/><ellipse cx="498.89" cy="362.46" rx="179.4" ry="180.4" style="fill:#1d1d1b"/><path d="M360.75 341.89c94.83-95.17 187.58-94.17 276.89 1.09-15.59-79.37-77.44-121.03-138.73-121.39-77.16 4.25-125.94 51.95-138.16 120.3M637.01 383.56C542.16 478.71 449.3 477.57 360 382.3c15.57 79.37 76.87 120.5 138.15 120.86 77.16-4.24 126.62-51.25 138.86-119.61z" style="fill:#a780b1;fill-rule:nonzero"/><circle cx="499.2" cy="362.37" r="69.04" style="fill:#66337a"/><circle cx="499.2" cy="362.37" r="45.24" style="fill:#1d1d1b"/><circle cx="499.2" cy="362.37" r="33.07" style="fill:#a780b1"/><defs><radialGradient id="a" cx="0" cy="0" r="1" gradientTransform="matrix(312.78 -305.611 250.601 256.48 500.087 363.668)" gradientUnits="userSpaceOnUse"><stop offset="0" style="stop-color:#612c75;stop-opacity:1"/><stop offset=".3" style="stop-color:#7b5190;stop-opacity:1"/><stop offset=".5" style="stop-color:#bf99c3;stop-opacity:1"/><stop offset=".7" style="stop-color:#7b5190;stop-opacity:1"/><stop offset="1" style="stop-color:#612c75;stop-opacity:1"/></radialGradient></defs></svg>