<svg xmlns="http://www.w3.org/2000/svg" xml:space="preserve" width="540" height="601.579"><path d="M181.354 166.645c-14.424-14.752-52.648-57.513-69.902-112.296C161.565 16.929 210.035 4.231 239.913 0c-19.379 29.939-44.265 77.145-44.265 121.999 0 14.42 2.167 26.631 5.933 36.905zM94.85 312.5a473 473 0 0 0-60.996 29.965c41.464 25.689 117.648 85.736 100.67 172.461 0 0 36.551 50.592 122.918 86.652-1.323-22.361-5.573-61.432-19.044-104.771-26.51-85.281-74.785-147.232-143.548-184.307m162.678-59.475v-49.052c-15.763-2.378-31.05-9.3-42.49-22.167l-39.71 15.188-5.964-5.433c-2.557-2.333-54.54-50.338-79.563-119.497-26.66 23.811-53.09 55.238-76.765 96.712 9.687 11.724 30.878 31.882 72.22 49.896 0 0-41.988 1.534-83.742-13.023-2.187 24.227-3.46 67.976 6.811 121.642 109.788-68.632 211.871-74.695 249.203-74.266M126.75 300.933c59.443 38.127 104.125 96.335 130.78 170.537V279.318c-21.882-.117-70.788 2.268-130.78 21.615M270.005 2.347C252.265 27.665 221.84 77.575 221.84 122c0 48.831 30.362 56.746 48.165 56.746 17.793 0 48.155-7.915 48.155-56.746 0-44.425-30.427-94.335-48.155-119.653V2.34H270zm88.641 164.298c14.421-14.752 52.652-57.513 69.906-112.296C378.435 16.929 329.962 4.231 300.087 0c19.38 29.939 44.27 77.145 44.27 121.999 0 14.42-2.172 26.631-5.935 36.905zm-57.045 330.163c-13.478 43.339-17.722 82.409-19.04 104.771 86.36-36.061 122.914-86.652 122.914-86.652-16.974-86.725 59.21-146.771 100.677-172.461a473 473 0 0 0-61.002-29.965c-68.763 37.074-117.04 99.025-143.549 184.307M531.68 327.291c10.268-53.666 8.994-97.415 6.804-121.642-41.754 14.557-83.734 13.023-83.734 13.023 41.337-18.014 62.53-38.173 72.22-49.896-23.682-41.474-50.112-72.901-76.77-96.712-25.02 69.158-77.002 117.164-79.563 119.497l-5.959 5.433-39.713-15.188c-11.444 12.867-26.729 19.789-42.495 22.167v49.052c37.335-.429 139.422 5.634 249.21 74.266m-249.21-47.973v192.151c26.657-74.201 71.342-132.409 130.778-170.537-59.988-19.346-108.89-21.731-130.778-21.614"/></svg>