<?xml version="1.0" encoding="UTF-8" standalone="no"?>
<!-- Generator: Adobe Illustrator 15.1.0, SVG Export Plug-In . SVG Version: 6.00 Build 0)  -->

<svg
   version="1.1"
   id="Layer_1"
   x="0px"
   y="0px"
   width="134.03"
   height="150"
   viewBox="0 0 134.03 150"
   enable-background="new 0 0 140 156"
   xml:space="preserve"
   xmlns="http://www.w3.org/2000/svg"
   xmlns:svg="http://www.w3.org/2000/svg"><defs
   id="defs4" />
<g
   id="g4"
   transform="translate(-3.221,-2.958)">
	<g
   id="g1">
		<path
   fill="#5d5e61"
   d="m 124.078,42.378 c -0.358,0 -1.388,-0.03 -2.733,-0.254 -0.63,-1.19 -1.004,-2.779 -1.004,-4.897 0,-6.466 4.344,-10.405 4.344,-10.405 -3.869,-3.14 -8.047,-6.029 -11.958,-8.519 2.086,-2.931 4.359,-4.721 4.359,-4.721 L 96.932,2.958 c 0,0 -7.402,8.004 -26.696,8.004 -19.294,0 -26.697,-8.004 -26.697,-8.004 L 23.386,13.582 c 0,0 2.273,1.79 4.359,4.721 -3.911,2.489 -8.089,5.379 -11.958,8.519 0,0 4.343,3.939 4.343,10.405 0,2.118 -0.374,3.707 -1.003,4.897 -1.347,0.224 -2.375,0.254 -2.734,0.254 -6.516,0 -13.172,-3.575 -13.172,-3.575 l 16.554,64.486 3.206,0.458 c 0.52,0.074 1.086,0.208 1.686,0.384 1.806,7.787 2.77,12.327 2.77,12.327 23.704,10.506 42.798,36.5 42.798,36.5 0,0 19.094,-25.994 42.798,-36.5 0,0 0.964,-4.54 2.77,-12.327 0.601,-0.176 1.167,-0.31 1.687,-0.384 l 3.207,-0.458 16.554,-64.486 c 0,0 -6.657,3.575 -13.173,3.575 z"
   id="path1" />
	</g>
	<path
   d="m 62.554,107.135 3.738,19.938 C 57.224,119.186 34.793,100.538 23.667,98.948 L 10.131,46.218 c 0,0 3.031,1.01 6.263,1.01 4.95,0 19.597,-2.626 19.597,-19.395 0,-7.273 -4.95,-12.829 -4.95,-12.829 L 42.961,8.74 c 0,0 7.658,6.23 23.976,6.994 l -4.303,18.641 c -16.863,3.519 -29.573,18.495 -29.573,36.39 10e-4,17.864 12.669,32.821 29.493,36.37 z M 91.247,70.764 c 0,-8.722 -5.345,-16.216 -12.931,-19.391 V 90.154 C 85.902,86.98 91.247,79.486 91.247,70.764 Z m -42.023,0 c 0,8.723 5.345,16.217 12.93,19.391 V 51.373 c -7.585,3.175 -12.93,10.669 -12.93,19.391 z m 81.117,-24.547 c 0,0 -3.03,1.01 -6.263,1.01 -4.95,0 -19.598,-2.626 -19.598,-19.395 0,-7.273 4.95,-12.829 4.95,-12.829 L 97.51,8.739 c 0,0 -7.659,6.23 -23.976,6.994 l 4.303,18.641 c 16.863,3.519 29.572,18.495 29.572,36.39 0,17.865 -12.668,32.822 -29.492,36.371 l -3.738,19.938 c 9.068,-7.887 31.499,-26.535 42.625,-28.125 z"
   id="path2" />
	<g
   id="g3">
		<path
   fill="#ffffff"
   d="m 104.178,70.764 c 0,-17.096 -12.649,-31.198 -29.094,-33.557 V 36.822 L 70.236,15.81 65.387,36.822 v 0.385 c -16.444,2.358 -29.093,16.461 -29.093,33.557 0,17.096 12.649,31.198 29.093,33.557 v 0.385 l 4.849,25.86 4.848,-25.86 v -0.385 c 16.444,-2.359 29.094,-16.462 29.094,-33.557 z m -58.186,0 c 0,-11.708 8.342,-21.502 19.396,-23.755 v 47.51 C 54.333,92.266 45.992,82.473 45.992,70.764 Z M 75.084,94.519 V 47.009 C 86.139,49.262 94.48,59.056 94.48,70.764 94.479,82.473 86.139,92.266 75.084,94.519 Z"
   id="path3" />
	</g>
</g>
</svg>
