<?xml version="1.0" encoding="UTF-8" standalone="no"?>
<!-- Generator: Adobe Illustrator 15.1.0, SVG Export Plug-In . SVG Version: 6.00 Build 0)  -->

<svg
   version="1.1"
   id="Layer_1"
   x="0px"
   y="0px"
   width="127.25"
   height="150"
   viewBox="0 0 127.25 150"
   enable-background="new 0 0 140 156"
   xml:space="preserve"
   xmlns="http://www.w3.org/2000/svg"
   xmlns:svg="http://www.w3.org/2000/svg"><defs
   id="defs2" />
<g
   id="Layer_1_1_"
   transform="translate(-6.611,-2.604)">
</g>
<g
   id="Layer_3"
   display="none"
   transform="translate(-6.611,-2.604)">
</g>
<g
   id="g2"
   transform="translate(-6.611,-2.604)">
	<path
   fill="#ffffff"
   d="m 70.237,152.604 c 22.695,-31.724 44.632,-39.181 44.632,-39.181 0,0 1.57,-9.302 5.119,-23.022 l 13.873,-54.033 c 0,0 -7.801,2.85 -10.047,3.188 0,0 -1.426,-1.798 -1.426,-4.461 0,-6.012 6.641,-10.046 6.641,-10.046 l -4.28,-3.475 c -3.147,-2.554 -6.79,-5.172 -10.838,-7.787 L 114.889,12.689 95.695,2.604 c 0,0 -8.472,7.753 -25.458,7.753 -16.986,0 -25.459,-7.753 -25.459,-7.753 l -19.193,10.086 0.978,1.098 c -4.048,2.615 -7.691,5.232 -10.838,7.787 l -4.282,3.475 c 0,0 6.641,4.034 6.641,10.046 0,2.663 -1.425,4.461 -1.425,4.461 C 14.413,39.218 6.611,36.369 6.611,36.369 L 20.486,90.4 c 3.549,13.722 5.119,23.022 5.119,23.022 0,0 21.937,7.459 44.632,39.182 z"
   id="path1" />
	<path
   d="m 107.376,26.204 c 0,-4.369 2.731,-8.05 3.354,-8.833 3.621,2.316 7.465,4.98 11.035,7.878 0,0 -4.111,3.728 -4.111,9.847 0,1.921 0.33,3.373 0.884,4.482 -4.067,-0.701 -11.162,-3.358 -11.162,-13.374 z m -74.279,0 c 0,-4.335 -2.736,-8.049 -3.355,-8.833 -3.621,2.315 -7.465,4.98 -11.035,7.878 0,0 4.11,3.728 4.11,9.847 0,1.921 -0.332,3.373 -0.883,4.482 4.068,-0.701 11.163,-3.357 11.163,-13.374 z m 37.14,103.089 -3.266,-3.115 C 58.216,117.829 36.564,101.495 27.15,98.583 c 1.683,7.262 2.582,11.494 2.582,11.494 22.433,9.942 40.502,34.542 40.502,34.542 0,0 18.071,-24.6 40.504,-34.542 0,0 0.898,-4.232 2.58,-11.493 -9.416,2.914 -31.063,19.246 -39.815,27.594 z M 65.647,98.592 C 50.084,96.36 38.114,83.014 38.114,66.835 c 0,-16.179 11.971,-29.526 27.533,-31.758 v -0.364 l 3.66,-19.636 C 53.974,14.813 44.425,8.135 44.425,8.135 l -11.28,5.928 c 0,0 4.684,5.258 4.684,12.141 0,15.87 -13.862,18.355 -18.547,18.355 -3.059,0 -5.927,-0.956 -5.927,-0.956 l 12.811,49.903 c 10.079,1.44 33.952,19.975 42.944,28.199 L 65.648,98.956 Z M 93.182,66.833 c 0,-11.08 -7.896,-20.349 -18.356,-22.481 v 44.962 c 10.46,-2.132 18.354,-11.4 18.356,-22.481 z m 33.935,-23.23 c 0,0 -2.867,0.956 -5.928,0.956 -4.685,0 -18.545,-2.485 -18.545,-18.355 0,-6.883 4.684,-12.141 4.684,-12.141 L 96.047,8.135 c 0,0 -9.531,6.668 -24.845,6.942 l 3.622,19.636 v 0.364 c 15.563,2.232 27.533,15.578 27.533,31.757 0,16.178 -11.973,29.525 -27.533,31.758 v 0.364 l -3.463,22.752 c 8.988,-8.226 32.867,-26.763 42.945,-28.202 z m -79.825,23.23 c 0,11.081 7.894,20.349 18.356,22.481 V 44.352 C 55.187,46.485 47.292,55.753 47.292,66.833 Z"
   id="path2" />
</g>
</svg>
