<?xml version="1.0" encoding="UTF-8" standalone="no"?>
<!-- Generator: Adobe Illustrator 15.1.0, SVG Export Plug-In . SVG Version: 6.00 Build 0)  -->

<svg
   version="1.1"
   id="Layer_1"
   x="0px"
   y="0px"
   width="134.03101"
   height="150"
   viewBox="0 0 134.03101 150"
   enable-background="new 0 0 140 156"
   xml:space="preserve"
   xmlns="http://www.w3.org/2000/svg"
   xmlns:svg="http://www.w3.org/2000/svg"><defs
   id="defs20" />
<g
   id="Layer_1_1_"
   transform="translate(-3.003,-3.417)">
</g>
<g
   id="Layer_3"
   display="none"
   transform="translate(-3.003,-3.417)">
</g>
<g
   id="g20"
   transform="translate(-3.003,-3.417)">
	<g
   id="g1">
		<path
   d="m 123.858,42.837 c -0.358,0 -1.388,-0.03 -2.733,-0.254 -0.63,-1.19 -1.004,-2.779 -1.004,-4.897 0,-6.466 4.344,-10.405 4.344,-10.405 -3.869,-3.14 -8.047,-6.029 -11.958,-8.519 2.087,-2.931 4.359,-4.721 4.359,-4.721 L 96.714,3.417 c 0,0 -7.403,8.004 -26.697,8.004 C 50.723,11.421 43.32,3.417 43.32,3.417 L 23.167,14.041 c 0,0 2.273,1.79 4.359,4.721 -3.911,2.489 -8.089,5.379 -11.958,8.519 0,0 4.344,3.939 4.344,10.405 0,2.118 -0.374,3.707 -1.003,4.897 -1.347,0.224 -2.376,0.254 -2.734,0.254 -6.516,0 -13.172,-3.575 -13.172,-3.575 l 16.555,64.486 3.205,0.458 c 0.52,0.074 1.086,0.208 1.687,0.384 1.806,7.787 2.77,12.327 2.77,12.327 23.704,10.506 42.798,36.5 42.798,36.5 0,0 19.094,-25.994 42.798,-36.5 0,0 0.965,-4.54 2.771,-12.327 0.6,-0.176 1.166,-0.31 1.686,-0.384 l 3.207,-0.458 16.554,-64.486 c -0.003,0 -6.66,3.575 -13.176,3.575 z"
   id="path1" />
	</g>
	<linearGradient
   id="SVGID_1_"
   gradientUnits="userSpaceOnUse"
   x1="9.9120998"
   y1="68.3647"
   x2="130.12109"
   y2="68.3647">
		<stop
   offset="0"
   style="stop-color:#BB2C26"
   id="stop1" />
		<stop
   offset="0.0504"
   style="stop-color:#BE3226"
   id="stop2" />
		<stop
   offset="0.1163"
   style="stop-color:#C64225"
   id="stop3" />
		<stop
   offset="0.1905"
   style="stop-color:#D35D24"
   id="stop4" />
		<stop
   offset="0.25"
   style="stop-color:#E07823"
   id="stop5" />
		<stop
   offset="0.2566"
   style="stop-color:#E17A23"
   id="stop6" />
		<stop
   offset="0.327"
   style="stop-color:#EE8B1F"
   id="stop7" />
		<stop
   offset="0.404"
   style="stop-color:#F5951E"
   id="stop8" />
		<stop
   offset="0.5"
   style="stop-color:#F7981D"
   id="stop9" />
		<stop
   offset="0.596"
   style="stop-color:#F5951E"
   id="stop10" />
		<stop
   offset="0.673"
   style="stop-color:#EE8B1F"
   id="stop11" />
		<stop
   offset="0.7434"
   style="stop-color:#E17A23"
   id="stop12" />
		<stop
   offset="0.75"
   style="stop-color:#E07823"
   id="stop13" />
		<stop
   offset="0.7672"
   style="stop-color:#DB6E23"
   id="stop14" />
		<stop
   offset="0.8266"
   style="stop-color:#CD5125"
   id="stop15" />
		<stop
   offset="0.8857"
   style="stop-color:#C33D25"
   id="stop16" />
		<stop
   offset="0.9439"
   style="stop-color:#BD3026"
   id="stop17" />
		<stop
   offset="1"
   style="stop-color:#BB2C26"
   id="stop18" />
	</linearGradient>
	<path
   fill="url(#SVGID_1_)"
   d="m 62.335,107.594 3.737,19.938 C 57.005,119.645 34.574,100.997 23.448,99.407 L 9.912,46.676 c 0,0 3.03,1.01 6.263,1.01 4.95,0 19.598,-2.626 19.598,-19.395 0,-7.273 -4.95,-12.829 -4.95,-12.829 l 11.92,-6.264 c 0,0 7.658,6.23 23.976,6.994 l -4.303,18.641 c -16.863,3.519 -29.572,18.495 -29.572,36.39 -10e-4,17.865 12.667,32.822 29.491,36.371 z M 91.028,71.223 c 0,-8.722 -5.345,-16.216 -12.931,-19.391 v 38.781 c 7.587,-3.174 12.931,-10.668 12.931,-19.39 z m -42.023,0 c 0,8.723 5.345,16.217 12.931,19.391 V 51.832 C 54.35,55.007 49.005,62.501 49.005,71.223 Z m 81.116,-24.547 c 0,0 -3.03,1.01 -6.263,1.01 -4.95,0 -19.597,-2.626 -19.597,-19.395 0,-7.273 4.949,-12.829 4.949,-12.829 L 97.29,9.198 c 0,0 -7.658,6.23 -23.976,6.994 l 4.303,18.641 c 16.863,3.519 29.572,18.495 29.572,36.39 0,17.865 -12.668,32.822 -29.491,36.371 l -3.738,19.938 c 9.068,-7.887 31.498,-26.535 42.624,-28.125 z"
   id="path18"
   style="fill:url(#SVGID_1_)" />
	<g
   id="g19">
		<path
   fill="#ffffff"
   d="M 103.958,71.223 C 103.958,54.127 91.31,40.025 74.865,37.666 V 37.281 L 70.017,16.27 65.168,37.282 v 0.385 c -16.443,2.358 -29.093,16.461 -29.093,33.557 0,17.096 12.649,31.198 29.093,33.557 v 0.385 l 4.849,25.86 4.849,-25.86 v -0.385 c 16.444,-2.36 29.092,-16.463 29.092,-33.558 z m -58.186,0 c 0,-11.708 8.342,-21.502 19.396,-23.755 v 47.51 C 54.114,92.725 45.772,82.932 45.772,71.223 Z m 29.093,23.755 v -47.51 c 11.054,2.253 19.396,12.047 19.396,23.755 0,11.709 -8.342,21.502 -19.396,23.755 z"
   id="path19" />
	</g>
</g>
</svg>
