<?xml version="1.0" encoding="UTF-8" standalone="no"?>
<!-- Generator: Adobe Illustrator 15.1.0, SVG Export Plug-In . SVG Version: 6.00 Build 0)  -->

<svg
   version="1.1"
   id="Layer_1"
   x="0px"
   y="0px"
   width="134.03"
   height="150"
   viewBox="0 0 134.03 150"
   enable-background="new 0 0 140 156"
   xml:space="preserve"
   xmlns="http://www.w3.org/2000/svg"
   xmlns:svg="http://www.w3.org/2000/svg"><defs
   id="defs18" />
<g
   id="Layer_1_1_"
   transform="translate(-3.221,-3.417)">
</g>
<g
   id="Layer_3"
   display="none"
   transform="translate(-3.221,-3.417)">
</g>
<g
   id="g18"
   transform="translate(-3.221,-3.417)">
	<g
   id="g1">
		<path
   d="m 124.078,42.837 c -0.358,0 -1.388,-0.03 -2.733,-0.254 -0.63,-1.19 -1.004,-2.779 -1.004,-4.897 0,-6.466 4.344,-10.405 4.344,-10.405 -3.869,-3.14 -8.047,-6.029 -11.958,-8.519 2.086,-2.931 4.359,-4.721 4.359,-4.721 L 96.932,3.417 c 0,0 -7.402,8.004 -26.696,8.004 -19.294,0 -26.697,-8.004 -26.697,-8.004 L 23.386,14.041 c 0,0 2.273,1.79 4.359,4.721 -3.911,2.489 -8.089,5.379 -11.958,8.519 0,0 4.343,3.939 4.343,10.405 0,2.118 -0.374,3.707 -1.003,4.897 -1.347,0.224 -2.375,0.254 -2.734,0.254 -6.516,0 -13.172,-3.575 -13.172,-3.575 l 16.554,64.486 3.206,0.458 c 0.52,0.074 1.086,0.208 1.686,0.384 1.806,7.787 2.77,12.327 2.77,12.327 23.704,10.506 42.798,36.5 42.798,36.5 0,0 19.094,-25.994 42.798,-36.5 0,0 0.964,-4.54 2.77,-12.327 0.601,-0.176 1.167,-0.31 1.687,-0.384 l 3.207,-0.458 16.554,-64.486 c 0,0 -6.657,3.575 -13.173,3.575 z"
   id="path1" />
	</g>
	<linearGradient
   id="SVGID_1_"
   gradientUnits="userSpaceOnUse"
   x1="10.1309"
   y1="68.3647"
   x2="130.34081"
   y2="68.3647">
		<stop
   offset="0"
   style="stop-color:#8D742F"
   id="stop1" />
		<stop
   offset="0.0775"
   style="stop-color:#937A35"
   id="stop2" />
		<stop
   offset="0.1787"
   style="stop-color:#A38A45"
   id="stop3" />
		<stop
   offset="0.25"
   style="stop-color:#B39A54"
   id="stop4" />
		<stop
   offset="0.2682"
   style="stop-color:#B9A059"
   id="stop5" />
		<stop
   offset="0.3351"
   style="stop-color:#CAB068"
   id="stop6" />
		<stop
   offset="0.4086"
   style="stop-color:#D4BA71"
   id="stop7" />
		<stop
   offset="0.5"
   style="stop-color:#D7BD74"
   id="stop8" />
		<stop
   offset="0.5914"
   style="stop-color:#D4BA71"
   id="stop9" />
		<stop
   offset="0.6649"
   style="stop-color:#CAB068"
   id="stop10" />
		<stop
   offset="0.7318"
   style="stop-color:#B9A059"
   id="stop11" />
		<stop
   offset="0.75"
   style="stop-color:#B39A54"
   id="stop12" />
		<stop
   offset="0.7526"
   style="stop-color:#B29953"
   id="stop13" />
		<stop
   offset="0.8368"
   style="stop-color:#9E853F"
   id="stop14" />
		<stop
   offset="0.9198"
   style="stop-color:#917833"
   id="stop15" />
		<stop
   offset="1"
   style="stop-color:#8D742F"
   id="stop16" />
	</linearGradient>
	<path
   fill="url(#SVGID_1_)"
   d="m 62.554,107.594 3.738,19.938 C 57.224,119.645 34.793,100.997 23.667,99.407 L 10.131,46.677 c 0,0 3.031,1.01 6.263,1.01 4.95,0 19.597,-2.626 19.597,-19.395 0,-7.273 -4.95,-12.829 -4.95,-12.829 l 11.92,-6.264 c 0,0 7.658,6.23 23.976,6.994 l -4.303,18.641 c -16.863,3.519 -29.573,18.495 -29.573,36.39 10e-4,17.864 12.669,32.821 29.493,36.37 z M 91.247,71.223 c 0,-8.722 -5.345,-16.216 -12.931,-19.391 v 38.781 c 7.586,-3.174 12.931,-10.668 12.931,-19.39 z m -42.023,0 c 0,8.723 5.345,16.217 12.93,19.391 V 51.832 c -7.585,3.175 -12.93,10.669 -12.93,19.391 z m 81.117,-24.547 c 0,0 -3.03,1.01 -6.263,1.01 -4.95,0 -19.598,-2.626 -19.598,-19.395 0,-7.273 4.95,-12.829 4.95,-12.829 L 97.51,9.198 c 0,0 -7.659,6.23 -23.976,6.994 l 4.303,18.641 c 16.863,3.519 29.572,18.495 29.572,36.39 0,17.865 -12.668,32.822 -29.492,36.371 l -3.738,19.938 c 9.068,-7.887 31.499,-26.535 42.625,-28.125 z"
   id="path16"
   style="fill:url(#SVGID_1_)" />
	<g
   id="g17">
		<path
   fill="#ffffff"
   d="m 104.178,71.223 c 0,-17.096 -12.649,-31.198 -29.094,-33.557 V 37.281 L 70.236,16.27 65.387,37.282 v 0.385 c -16.444,2.358 -29.093,16.461 -29.093,33.557 0,17.096 12.649,31.198 29.093,33.557 v 0.385 l 4.849,25.86 4.848,-25.86 v -0.385 c 16.444,-2.36 29.094,-16.463 29.094,-33.558 z m -58.186,0 c 0,-11.708 8.342,-21.502 19.396,-23.755 v 47.51 C 54.333,92.725 45.992,82.932 45.992,71.223 Z M 75.084,94.978 V 47.468 C 86.139,49.721 94.48,59.515 94.48,71.223 94.479,82.932 86.139,92.725 75.084,94.978 Z"
   id="path17" />
	</g>
</g>
</svg>
