<?xml version="1.0" encoding="UTF-8" standalone="no"?>
<!-- Generator: Adobe Illustrator 15.1.0, SVG Export Plug-In . SVG Version: 6.00 Build 0)  -->

<svg
   version="1.1"
   id="Layer_1"
   x="0px"
   y="0px"
   width="134.03101"
   height="150"
   viewBox="0 0 134.03101 150"
   enable-background="new 0 0 140 156"
   xml:space="preserve"
   xmlns="http://www.w3.org/2000/svg"
   xmlns:svg="http://www.w3.org/2000/svg"><defs
   id="defs20" />
<g
   id="Layer_1_1_"
   transform="translate(-3.441,-3.417)">
</g>
<g
   id="Layer_3"
   display="none"
   transform="translate(-3.441,-3.417)">
</g>
<g
   id="g20"
   transform="translate(-3.441,-3.417)">
	<g
   id="g1">
		<path
   d="m 124.297,42.837 c -0.358,0 -1.387,-0.03 -2.734,-0.254 -0.629,-1.19 -1.004,-2.779 -1.004,-4.897 0,-6.466 4.344,-10.405 4.344,-10.405 -3.868,-3.14 -8.046,-6.029 -11.957,-8.519 2.086,-2.931 4.359,-4.721 4.359,-4.721 L 97.152,3.417 c 0,0 -7.403,8.004 -26.697,8.004 -19.294,0 -26.697,-8.004 -26.697,-8.004 L 23.605,14.041 c 0,0 2.273,1.79 4.359,4.721 -3.911,2.489 -8.089,5.379 -11.958,8.519 0,0 4.344,3.939 4.344,10.405 0,2.118 -0.375,3.707 -1.004,4.897 -1.347,0.224 -2.375,0.254 -2.734,0.254 -6.516,0 -13.171,-3.575 -13.171,-3.575 l 16.554,64.486 3.206,0.458 c 0.519,0.074 1.086,0.208 1.686,0.384 1.806,7.787 2.77,12.327 2.77,12.327 23.704,10.506 42.798,36.5 42.798,36.5 0,0 19.094,-25.994 42.798,-36.5 0,0 0.964,-4.54 2.771,-12.327 0.6,-0.176 1.166,-0.31 1.686,-0.384 l 3.207,-0.458 16.555,-64.486 c -0.001,0 -6.659,3.575 -13.175,3.575 z"
   id="path1" />
	</g>
	<linearGradient
   id="SVGID_1_"
   gradientUnits="userSpaceOnUse"
   x1="10.3501"
   y1="68.3647"
   x2="130.5605"
   y2="68.3647">
		<stop
   offset="0"
   style="stop-color:#626E77"
   id="stop1" />
		<stop
   offset="0.0508"
   style="stop-color:#67747D"
   id="stop2" />
		<stop
   offset="0.1173"
   style="stop-color:#74838D"
   id="stop3" />
		<stop
   offset="0.1921"
   style="stop-color:#8B9DA8"
   id="stop4" />
		<stop
   offset="0.25"
   style="stop-color:#A0B6C2"
   id="stop5" />
		<stop
   offset="0.2534"
   style="stop-color:#A1B7C3"
   id="stop6" />
		<stop
   offset="0.3247"
   style="stop-color:#ADC6D4"
   id="stop7" />
		<stop
   offset="0.4027"
   style="stop-color:#B5CEDE"
   id="stop8" />
		<stop
   offset="0.5"
   style="stop-color:#B7D1E1"
   id="stop9" />
		<stop
   offset="0.5973"
   style="stop-color:#B5CEDE"
   id="stop10" />
		<stop
   offset="0.6753"
   style="stop-color:#ADC6D4"
   id="stop11" />
		<stop
   offset="0.7466"
   style="stop-color:#A1B7C3"
   id="stop12" />
		<stop
   offset="0.75"
   style="stop-color:#A0B6C2"
   id="stop13" />
		<stop
   offset="0.7657"
   style="stop-color:#99ADB9"
   id="stop14" />
		<stop
   offset="0.8254"
   style="stop-color:#81929C"
   id="stop15" />
		<stop
   offset="0.8849"
   style="stop-color:#707E88"
   id="stop16" />
		<stop
   offset="0.9435"
   style="stop-color:#65727B"
   id="stop17" />
		<stop
   offset="1"
   style="stop-color:#626E77"
   id="stop18" />
	</linearGradient>
	<path
   fill="url(#SVGID_1_)"
   d="m 62.773,107.594 3.738,19.938 C 57.443,119.645 35.013,100.997 23.886,99.407 L 10.35,46.676 c 0,0 3.031,1.01 6.263,1.01 4.95,0 19.597,-2.626 19.597,-19.395 0,-7.273 -4.95,-12.829 -4.95,-12.829 L 43.18,9.198 c 0,0 7.658,6.23 23.976,6.994 L 62.853,34.833 C 45.99,38.352 33.28,53.328 33.28,71.223 c 10e-4,17.865 12.669,32.822 29.493,36.371 z M 91.467,71.223 c 0,-8.722 -5.345,-16.216 -12.931,-19.391 v 38.781 c 7.586,-3.174 12.931,-10.668 12.931,-19.39 z m -42.023,0 c 0,8.723 5.344,16.217 12.93,19.391 V 51.832 c -7.586,3.175 -12.93,10.669 -12.93,19.391 z m 81.117,-24.547 c 0,0 -3.031,1.01 -6.264,1.01 -4.949,0 -19.598,-2.626 -19.598,-19.395 0,-7.273 4.95,-12.829 4.95,-12.829 L 97.729,9.198 c 0,0 -7.658,6.23 -23.976,6.994 l 4.303,18.641 c 16.863,3.519 29.572,18.495 29.572,36.39 0,17.865 -12.668,32.822 -29.492,36.371 l -3.737,19.938 c 9.067,-7.887 31.498,-26.535 42.624,-28.125 z"
   id="path18"
   style="fill:url(#SVGID_1_)" />
	<g
   id="g19">
		<path
   fill="#ffffff"
   d="m 104.396,71.223 c 0,-17.096 -12.648,-31.198 -29.093,-33.557 V 37.281 L 70.455,16.27 65.606,37.282 v 0.385 c -16.444,2.358 -29.093,16.461 -29.093,33.557 0,17.096 12.649,31.198 29.093,33.557 v 0.385 l 4.849,25.86 4.849,-25.86 v -0.385 c 16.444,-2.36 29.092,-16.463 29.092,-33.558 z m -58.185,0 c 0,-11.708 8.342,-21.502 19.396,-23.755 v 47.51 C 54.553,92.725 46.211,82.932 46.211,71.223 Z M 75.304,94.978 V 47.468 C 86.358,49.721 94.7,59.515 94.7,71.223 94.699,82.932 86.357,92.725 75.304,94.978 Z"
   id="path19" />
	</g>
</g>
</svg>
