<?xml version="1.0" encoding="UTF-8" standalone="no"?>
<!-- Generator: Adobe Illustrator 15.1.0, SVG Export Plug-In . SVG Version: 6.00 Build 0)  -->

<svg
   version="1.1"
   id="Layer_1"
   x="0px"
   y="0px"
   width="134.03101"
   height="150"
   viewBox="0 0 134.03101 150"
   enable-background="new 0 0 140 156"
   xml:space="preserve"
   xmlns="http://www.w3.org/2000/svg"
   xmlns:svg="http://www.w3.org/2000/svg"><defs
   id="defs1" />
<g
   id="g1"
   transform="translate(-3.441,-2.958)">
	<path
   d="m 124.297,42.378 c -0.358,0 -1.387,-0.03 -2.734,-0.254 -0.629,-1.19 -1.004,-2.779 -1.004,-4.897 0,-6.466 4.344,-10.405 4.344,-10.405 -3.868,-3.14 -8.046,-6.029 -11.957,-8.519 2.086,-2.931 4.359,-4.721 4.359,-4.721 L 97.152,2.958 c 0,0 -7.403,8.004 -26.697,8.004 -19.294,0 -26.697,-8.004 -26.697,-8.004 L 23.605,13.582 c 0,0 2.273,1.79 4.359,4.721 -3.911,2.489 -8.089,5.379 -11.958,8.519 0,0 4.344,3.939 4.344,10.405 0,2.118 -0.375,3.707 -1.004,4.897 -1.347,0.224 -2.375,0.254 -2.734,0.254 -6.516,0 -13.171,-3.575 -13.171,-3.575 l 16.554,64.486 3.206,0.458 c 0.519,0.074 1.086,0.208 1.686,0.384 1.806,7.787 2.77,12.327 2.77,12.327 23.704,10.506 42.798,36.5 42.798,36.5 0,0 19.094,-25.994 42.798,-36.5 0,0 0.964,-4.54 2.771,-12.327 0.6,-0.176 1.166,-0.31 1.686,-0.384 l 3.207,-0.458 16.555,-64.486 c -0.001,0 -6.659,3.575 -13.175,3.575 z M 33.281,70.764 c 0,17.865 12.668,32.822 29.492,36.371 l 3.738,19.938 C 57.443,119.186 35.013,100.538 23.886,98.948 L 10.35,46.217 c 0,0 3.031,1.01 6.263,1.01 4.95,0 19.597,-2.626 19.597,-19.395 0,-7.273 -4.95,-12.829 -4.95,-12.829 L 43.18,8.739 c 0,0 7.658,6.23 23.976,6.994 L 62.853,34.374 C 45.99,37.893 33.281,52.869 33.281,70.764 Z M 62.374,51.373 V 90.154 C 54.789,86.98 49.444,79.486 49.444,70.763 c 0,-8.721 5.344,-16.215 12.93,-19.39 z m 54.649,47.574 c -11.126,1.59 -33.557,20.238 -42.624,28.125 l 3.737,-19.938 c 16.824,-3.549 29.492,-18.506 29.492,-36.371 0,-17.895 -12.709,-32.871 -29.572,-36.39 L 73.753,15.732 C 90.07,14.968 97.729,8.738 97.729,8.738 l 11.92,6.264 c 0,0 -4.95,5.556 -4.95,12.829 0,16.769 14.648,19.395 19.598,19.395 3.232,0 6.264,-1.01 6.264,-1.01 z M 78.536,90.154 V 51.373 c 7.586,3.175 12.931,10.669 12.931,19.391 0,8.722 -5.345,16.216 -12.931,19.39 z"
   id="path1" />
</g>
</svg>
