<svg xmlns="http://www.w3.org/2000/svg" width="220.44" height="228.41"><path d="M22.92 11.95c47.07-.33 82.38 20.38 87.3 19.8 5.25.62 45.07-22.98 96.87-19.44v175.61c-61.53-1.84-84.19 16.61-96.87 29.83-12.68-13.22-35.34-31.67-96.88-29.83V12.31q4.86-.33 9.57-.36z" style="display:inline;opacity:1;fill:gray;fill-opacity:1;stroke-width:7.63158"/><path d="M19.55 6.777c-3.71 0-7.54.103-11.5.223v12.21L0 18.24V194.2l95.49 34.21h29.46l95.49-34.21V18.24l-8.05.97V7C149 4.28 119.09 27.5 110.22 23.94 101.91 27.28 75.1 7.08 19.55 6.777m3.37 5.173c47.07-.33 82.38 20.38 87.3 19.8 5.25.62 45.07-22.98 96.87-19.44v175.61c-61.53-1.84-84.19 16.61-96.87 29.83-12.68-13.22-35.34-31.67-96.88-29.83V12.31q4.86-.33 9.57-.36z" style="display:inline;opacity:1;fill:#000;fill-opacity:1;stroke-width:7.63158"/><path d="M134.93 59.636c7.68-7.415 12.17-16.976 10.29-28.726 30.98 68.22-46.7 74.14-46.7 127.65-7.76-6.95-12.34-15.99-13.8-26.11-8.11 13.35-6.67 34.44-.6 47.71-49.45-26.39-54.58-85.721-16.27-114.27-7.2 9.126-4.97 27.138 10.4 26.814C102.52 92.191 112.26 33.2 83.67 0c23.8 10.28 46.69 31.79 51.26 59.636M174.72 77.271c35.4 93.629-71.08 84.119-63.31 151.139-41.22-94.07 52.65-87.55 63.31-151.139" style="display:inline;opacity:1;fill:#000;fill-opacity:1;stroke-width:7.63158"/></svg>