<svg xmlns="http://www.w3.org/2000/svg" xmlns:xlink="http://www.w3.org/1999/xlink" width="600.001" height="655.093"><linearGradient id="a" x1="0" x2="1" y1="0" y2="0" gradientTransform="scale(31.74586 -31.74586)rotate(-35 2.178 -11.398)" gradientUnits="userSpaceOnUse" spreadMethod="pad"><stop offset="0" style="stop-color:#bf331c"/><stop offset=".3" style="stop-color:#d3641c"/><stop offset=".5" style="stop-color:#f6b91d"/><stop offset=".7" style="stop-color:#d3641c"/><stop offset="1" style="stop-color:#bf331c"/></linearGradient><linearGradient xlink:href="#a" id="b" x1="0" x2="1" y1="0" y2="0" gradientTransform="rotate(-35 799.625 100.343)scale(519.91254)" gradientUnits="userSpaceOnUse" spreadMethod="pad"/><path d="m300.033 655.093-6.78-4.864L45.349 473.993l-3.39-2.375-1.147-4.094L.884 321.094 0 317.769l1.015-3.275L41.32 186.865l1.212-3.766 3.21-2.244 247.51-175.99L300.033 0l6.846 4.864 247.446 175.99 3.21 2.245 1.212 3.766 40.239 127.629 1.015 3.275-.884 3.325-39.928 146.43-1.081 4.094-3.39 2.375-247.904 176.236z" style="fill:#fff"/><path d="m547.87 464.396 39.913-146.38-40.305-127.564L300.033 14.396 52.588 190.452 12.283 318.015l39.846 146.38 247.904 176.303Z"/><path d="M245.463 160.842v333.426l54.57 109.073 54.569-109.073V160.842l-54.57-109.09zm151.556-12.103v357.615l-36.406 61.219 90.976-67.802V155.339L360.613 87.52Zm-248.542 6.6v344.432l90.976 67.802-36.407-61.219V148.74l36.407-61.219ZM494.006 476.04l36.325-24.255 36.407-133.328-36.407-115.214-36.325-24.239ZM69.718 203.243l-36.39 115.214 36.39 133.328 36.342 24.255V179.004Z" style="fill:url(#b)"/></svg>