<svg xmlns="http://www.w3.org/2000/svg" xmlns:xlink="http://www.w3.org/1999/xlink" width="600" height="652.919"><linearGradient id="a" x1="0" x2="1" y1="0" y2="0" gradientTransform="rotate(35 36.318 255.42)scale(33.20557 -33.20557)" gradientUnits="userSpaceOnUse" spreadMethod="pad"><stop offset="0" style="stop-color:#8b723c"/><stop offset=".3" style="stop-color:#d2bb7b"/><stop offset=".5" style="stop-color:#ebd491"/><stop offset=".7" style="stop-color:#d2bb7b"/><stop offset="1" style="stop-color:#8b723c"/></linearGradient><linearGradient xlink:href="#a" id="b" x1="0" x2="1" y1="0" y2="0" gradientTransform="rotate(-35 803.165 117.255)scale(542.0137)" gradientUnits="userSpaceOnUse" spreadMethod="pad"/><path d="M558.36 469.155 600 316.519l-42.015-133.081L300 0 42.015 183.438 0 316.518l41.575 152.637L300 652.919Z"/><path d="M243.13 152.652v347.566L300 613.956l56.87-113.738V152.652L300 38.898Zm157.926-12.633v372.816l-37.87 63.823 94.82-70.711v-359.04l-94.82-70.711zm-259.062 6.888v359.04l94.82 70.711-37.935-63.823V140.02l37.935-63.823zm360.199 334.376 37.934-25.317 37.87-139.006-37.87-120.056-37.934-25.252zM59.873 196.904 21.938 316.96l37.935 139.006 37.869 25.317v-309.63z" style="fill:url(#b)"/></svg>