<svg xmlns="http://www.w3.org/2000/svg" width="600" height="612.026"><radialGradient id="a" cx="0" cy="0" r="1" fx="0" fy="0" gradientTransform="translate(272.369 340.194)scale(237.01962)" gradientUnits="userSpaceOnUse" spreadMethod="pad"><stop offset="0" style="stop-color:#d9eaf3"/><stop offset=".663" style="stop-color:#99aebc"/><stop offset="1" style="stop-color:#536e78"/></radialGradient><path d="M53.001 612.026 0 490.585l99.27-110.333 51.044-80.803 18.1-132.03 26.011 50.447 34.182-132.993 18.652 82.486L319.218 9.93 298.96 192.696 501.448 0 471.26 98.735 600 15.73 481.374 209.374l16.662 34.656-32.146 34.61 14.398 24.328-22.951 43.638 138.67 164.956-207.753-58.57-30.724 31.427 26.057 37.242-58.28 14.581 3.351 23.915-23.731 11.889-27.312 29.76-42.796-42.735v-5.677l-49.36 36.997z" style="fill:#fff"/><path d="M229.74 390.29c-27.603 0-38.252-28.567-38.252-28.567l66.282-51.762c15.3 36.997-.414 80.328-28.03 80.328m300.703 79.013L429.78 349.528l24.206-45.902-16.555-28.03 33.125-35.682-15.254-31.917 72.632-118.519-96.9 62.458 22.952-75.188-184.74 175.896 11.414-103.218-40.7 89.172-12.791-56.061-25.46 99.393-20.38-39.506-8.906 65.027-54.807 86.663-90.488 100.648 24.206 53.552 8.905-31.856 26.776 7.65v-14.045l19.126 5.08 5.08-20.38 21.635 11.475 6.395-29.286 34.427 25.46-25.522 1.316v17.81l-28.03-2.57 8.904 17.87-26.715-11.475-2.57 22.951-31.856-3.825-8.905 25.46 7.65 16.617 109.614-17.871 81.522-61.203v42.077l19.065 19.126 14.107-15.3 12.669-6.396-3.825-28.031 45.902-11.476-17.871-25.46 53.552-54.807z" style="fill:#536e78"/><path d="m274.51 258.198-15.178 14.474 2.265-20.87 6.227-55.878-20.931 45.902-9.44 20.564-4.958-22.063-5.738-25.216-17.626 68.73-5.034 19.479-9.196-17.872-9.272-17.978-5.676 41.052-.169 1.622-.902 1.423-55.649 87.627L36.157 496.2l13.45 29.76 3.228-11.598 2.08-7.345 7.421 2.097 16.969 4.835v-13.863l9.685 2.57 11.598 3.107 3.229-12.853 2.325-9.502 8.676 4.606 12.73 6.748 4.3-19.478 2.509-11.598 9.44 7.115 34.427 25.521 17.152 12.67-21.33 1.07-18.177.903v18.942l-8.43-.719-14.337-1.316 2.8 5.508 9.333 18.637-19.187-8.186-17.274-7.345-1.377 12.67-.888 7.65-7.65-.903-25.827-3.106-5.86 16.8 3.947 8.43 101.964-16.616 80.145-60.009 12.255-9.15v54.15l11.185 11.245 8.6-9.394 1.024-1.01 1.194-.658 7.818-3.948-3.106-22.584-.826-6.824 6.564-1.667 35.084-8.783-11.414-16.326-3.641-5.263 4.421-4.483L375.94 421.9l3.167-3.275 4.36 1.255 125.16 35.314-84.628-100.77-3.35-3.948 2.386-4.529 22.232-42.138-14.398-24.328-2.876-4.896 3.886-4.254 29.53-31.856-13.036-27.189-1.79-3.703 2.219-3.595 55.097-89.892-68.67 44.296-17.564 11.292 6.15-19.968 14.398-47.325zM184.33 364.415l-1.928-5.263 4.437-3.473 66.221-51.763 7.941-6.15 3.825 9.272c10.16 24.496 8.37 53.843-4.421 72.907-7.773 11.598-18.652 17.994-30.663 17.994-32.514 0-44.877-32.162-45.412-33.524" style="fill:url(#a);stroke-width:15.3007"/></svg>