<svg xmlns="http://www.w3.org/2000/svg" xml:space="preserve" width="369.481" height="304.12"><path d="M172.398 175.844c-7.056 3.372-20.575 10.173-29.637 22.861-18.099 25.369-21.249 48.542-22.869 58.394-3.939 23.963-9.202 47.021-25.118 47.021H14.991a14.96 14.96 0 0 1-13.74-9.029c-2.377-5.378-1.316-11.743 2.754-16.135 37.577-40.771 46.951-79.979 47.042-80.374 1.106-4.836 1.883-16.464-10.859-22.738-4.835-2.376-8-7.17-7.594-12.54.033-.478 3.532-46.873 6.316-72.978a12.635 12.635 0 0 1 12.561-11.291h1.217c5.316 0 9.901 3.297 11.755 8.001 1.205-12.364 1.46-20.225 1.464-20.394.206-6.83 5.797-12.261 12.627-12.261h1.563c5.16 0 9.633 3.104 11.586 7.594l.222-4.35c.761-15.147 1.361-27.108 14.382-27.108 0 0 4.84-30.517 21.442-30.517H237.51c5.01 0 9.654 2.488 12.435 6.653 2.697 3.894 3.313 9.095 1.521 13.737l-2.516 6.447c-.502 1.34-1.012 3.487-1.012 4.313 0 4.634 0 7.985 2.097 12.894 1.99 4.716 26.29 59.813 45.813 104.079l5.781 13.084c14.703 33.329 27.383 62.094 29.464 66.888 5.781 13.281 15.723 31.307 26.25 42.03l7.844 7.993c4.293 4.407 5.477 10.838 3.051 16.43-2.113 5.345-7.565 9.046-13.74 9.046H229.993a14.96 14.96 0 0 1-12.524-6.776c-2.895-4.556-3.215-9.967-.979-14.646l3.133-6.669c1.151-2.541 4.367-11.003 4.367-17.417 0-4.26-1.176-11.907-6.8-24.095-.782-1.694-20.995-47.729-27.245-61.823 0 0-9.835-.016-17.548 3.676"/><linearGradient id="a" x1="368.96" x2="60.535" y1="316.796" y2="124.07" gradientTransform="translate(-15.206 -22.575)" gradientUnits="userSpaceOnUse"><stop offset="0" style="stop-color:#626e77"/><stop offset=".079" style="stop-color:#65727b"/><stop offset=".161" style="stop-color:#707e88"/><stop offset=".244" style="stop-color:#81929c"/><stop offset=".328" style="stop-color:#99adb9"/><stop offset=".35" style="stop-color:#a0b6c2"/><stop offset=".397" style="stop-color:#a7becb"/><stop offset=".512" style="stop-color:#b3ccdb"/><stop offset=".6" style="stop-color:#b7d1e1"/><stop offset=".601" style="stop-color:#b6d0e0"/><stop offset=".63" style="stop-color:#aac1cf"/><stop offset=".661" style="stop-color:#a2b9c5"/><stop offset=".7" style="stop-color:#a0b6c2"/><stop offset=".705" style="stop-color:#9db3be"/><stop offset=".745" style="stop-color:#889aa4"/><stop offset=".789" style="stop-color:#778690"/><stop offset=".839" style="stop-color:#6b7882"/><stop offset=".899" style="stop-color:#64707a"/><stop offset="1" style="stop-color:#626e77"/></linearGradient><path fill="url(#a)" d="M229.994 290.963a2.38 2.38 0 0 1-1.974-1.086 2.37 2.37 0 0 1-.132-2.27l3.142-6.693c.065-.115 5.592-12.138 5.592-22.828 0-8.06-2.68-17.943-7.96-29.391-3.372-7.302-72.2-162.735-75.523-170.893-3.717-9.169-12.187-26.273-19.062-33.148l-8.01-8.001a2.37 2.37 0 0 1-.51-2.574 2.35 2.35 0 0 1 2.171-1.447H237.51c.773 0 1.497.387 1.925 1.028.444.641.526 1.455.246 2.179l-2.499 6.406c-.017.041-1.875 4.885-1.875 8.906 0 5.197 0 10.567 3.108 17.853 2.121 5.016 28.14 64.006 49.044 111.406l2.614 5.904c14.688 33.288 27.352 62.021 29.424 66.806 3.026 6.941 14.045 30.805 28.831 45.854l7.845 7.993c.658.675.855 1.678.477 2.55a2.31 2.31 0 0 1-2.154 1.447h-124.5zm-215.003.526a2.34 2.34 0 0 1-2.146-1.415 2.34 2.34 0 0 1 .42-2.532c40.441-43.88 50.013-85.753 50.103-86.181a2.35 2.35 0 0 1 1.72-1.76 2.3 2.3 0 0 1 .583-.082c.658 0 1.316.296 1.76.806 1.233 1.397 30.056 35.015 29.686 88.828a2.346 2.346 0 0 1-2.343 2.336zm91.295-31.429c1.805 0 .42-32.581 26.196-68.698 9.31-13.025 22.812-21.907 34.916-27.12 0 0-3.503-46.363-6.283-72.575h-1.233s-1.694 31.886-9.013 58.365c0 0-2.006-.74-5.378-1.776-10.329-42.646-11.447-81.243-11.447-81.243h-1.563c-2.45 41.968-6.529 66.26-8.487 76.062-2.195-.378-4.44-.708-6.702-.97-.925-4.885-2.656-14.736-4.548-28.914-2.792-20.937-3.67-35.619-4.358-48.521-.707-12.911-.884-21.521-2.1-21.521-1.226 0-1.395 8.61-2.098 21.521-.699 12.902-1.57 27.585-4.367 48.521-1.887 14.177-3.61 24.029-4.543 28.914-2.26.263-4.498.592-6.702.97-1.958-9.802-6.024-34.094-8.482-76.062h-1.563s-1.123 38.596-11.439 81.243c-3.372 1.036-5.386 1.776-5.386 1.776-7.33-26.479-9.02-58.365-9.02-58.365h-1.218c-2.796 26.212-6.283 72.575-6.283 72.575 12.101 5.213 25.604 14.095 34.908 27.12 25.782 36.117 24.39 68.698 26.193 68.698" style="fill:url(#a)"/></svg>