<svg xmlns="http://www.w3.org/2000/svg" width="600" height="600"><radialGradient id="a" cx="0" cy="0" r="1" fx="0" fy="0" gradientTransform="translate(300 300.015)scale(269.57145)" gradientUnits="userSpaceOnUse" spreadMethod="pad"><stop offset="0" style="stop-color:#f6b91d"/><stop offset=".7" style="stop-color:#d3641c"/><stop offset="1" style="stop-color:#bf331c"/></radialGradient><path d="M0 300c0 165.42 134.595 300 300 300s300-134.58 300-300C600 134.595 465.405 0 300 0S0 134.595 0 300" style="fill:#fff"/><path d="M91.755 321.51c.464 2.4.12 4.575.06 7.32-.12 6.45.704 13.065 1.695 19.455 4.17 26.55 16.59 48.51 35.52 67.44 9.54 9.495 19.92 18.165 30.585 26.43 5.325 4.095 10.71 8.145 16.17 12.18 2.685 1.995 6.975 8.145 8.31 1.59 1.184-6.15 1.066-10.38 4.515-16.005 7.44-12.06 29.715 0 30.645 11.145.946 11.13 4.635 42.705 30.585 45.525 26.025 2.745 36.21 6.495 45.525 10.185 6.855 2.76 17.055.586 24.09-.164 9.96-1.066 19.8-2.52 29.64-4.23 3.105-.525 6.75-.465 8.145-3.855 1.41-3.405-1.05-7.215-3.33-9.495-5.565-5.505-14.235-7.92-21.27-10.785-5.865-2.4-11.835-4.8-17.82-6.795-7.2-2.4-14.64-3.51-19.98-9.495-7.905-8.73-9.015-21.39-8.55-32.7.464-12.24 1.935-24.9 8.145-35.73 4.275-7.44 7.62-15.42 11.13-23.265 2.055-4.515 9.615-21.33 4.635-25.425-4.755-3.99-15.48 2.865-16.71 7.845-2.745 11.13-23.19 11.13-23.19 11.13s-34.35-.93-49.23 5.565c-14.82 6.51-55.665-1.815-69.6-21.33-.886-1.335-6.21-.81-7.74-1.755-5.445-3.285-6.09-18.93-.586-22.38 7.44-4.635 0-34.335-26.895-34.335-8.79 0-18.81 1.35-25.665 7.44-4.86 4.275-5.325 9.375-2.985 15.12.99 2.64 2.64 4.98 3.69 7.68.18.585.346 1.11.465 1.695m101.55-191.61s-56.085 13.71-51.45 55.44c0 0-29.355 9.54-37.74 36.435-8.31 26.955 1.875 34.395 13.02 34.395 11.19 0 20.445-4.62 20.445-4.62s16.695-3.69 25.95 2.745c9.315 6.51 49.23 5.565 58.545-7.44 9.255-13.005 30.585 0 39.9 22.335 9.255 22.26 38.025 29.7 47.34 2.745 0 0 8.325-35.265 0-82.62 0 0-28.77-26.01-66.855-32.46-38.085-6.495-43.59-9.315-49.155-26.955m226.395 119.775c0-58.485-61.23-77.985-61.23-77.985s-13.935-2.76-13.935-13.95c0 0-23.79.345-37.68-7.095 0 0-12.42-3.105-12.42-11.415 0-8.385-62.235-24.855-40.365-42.96 0 0 161.535-37.5 244.98 127.86 0 0-34.755-18.105-34.755 30.645 0 33.69 22.56 43.995 41.31 42.12 0 0 33.75 117.195-130.425 179.235 0 0-11.835-3.45-6.975-14.64 4.86-11.07-6.975-11.07-6.975-11.07s-16.695 1.335-16.695-22.335 6.27-25.725 6.27-25.725l25.08-19.5s5.565-4.875.69-11.13c-4.92-6.27-17.4-20.925-17.4-28.545 0-5.565 3.285-10.02 6.975-12.075 0 0 53.55 8.205 53.55-81.435M300 537.84C168.87 537.84 62.175 431.13 62.175 300S168.87 62.175 300 62.175 537.825 168.87 537.825 300 431.13 537.84 300 537.84m0-514.86C147.015 22.98 22.905 147.015 22.905 300c0 153.045 124.11 277.095 277.095 277.095S577.095 453.045 577.095 300c0-152.985-124.11-277.02-277.095-277.02" style="fill:#bf331c"/><path d="M30.405 300.06c0 148.59 120.945 269.535 269.595 269.535 148.59 0 269.595-120.945 269.595-269.535C569.595 151.41 448.59 30.48 300 30.48c-148.65 0-269.595 120.93-269.595 269.58m24.27 0C54.675 164.775 164.7 54.675 300 54.675s245.325 110.1 245.325 245.385C545.325 435.3 435.3 545.34 300 545.34S54.675 435.3 54.675 300.06M257.64 103.185c-.525.585-.645 1.005-.705 1.11.285 4.335 17.865 13.425 24.555 16.875 12.705 6.57 20.445 10.56 20.445 18.06 0 1.11 3.57 3.33 6.735 4.155l.945.225.75.42c11.25 6.03 31.41 6.27 33.645 6.27h8.025v7.44c0 4.86 7.905 6.615 8.73 6.855.645.18 66.435 21.855 66.435 85.08 0 34.455-7.665 59.535-22.845 74.58a49.2 49.2 0 0 1-34.74 14.535h-1.23a6.6 6.6 0 0 0-1.77 4.335q.21 4.26 13.605 21.15l2.22 2.82c6.795 8.67 2.76 17.58-1.935 21.675l-25.08 19.515-.525.405c-.705 1.17-2.865 5.925-2.865 19.395 0 4.515.765 10.5 4.215 13.245a7.95 7.95 0 0 0 5.04 1.59c1.53 0 9.375.285 13.47 6.555 1.935 2.925 3.465 7.86.36 15.06-.525 1.11-.705 2.055-.525 2.52a3 3 0 0 0 .93.93c133.89-51.96 128.205-140.085 124.11-163.35-20.16-.705-42.84-14.07-42.84-49.86 0-36.27 18.93-41.145 27.945-41.43C428.325 115.26 341.835 100.14 293.97 100.14c-18.225 0-31.59 2.175-36.33 3.045m-108.345 81.33.645 6.03-5.745 1.935c-.225.06-25.83 8.79-32.865 31.59-4.635 14.88-2.28 20.325-1.005 22.02 1.245 1.71 3.585 2.58 6.81 2.58 9.135 0 16.98-3.855 17.1-3.855l.825-.42.87-.225c.24 0 5.64-1.185 12.195-1.185 8.145 0 14.82 1.77 19.74 5.16 1.41 1.005 7.275 2.58 16.875 2.58 16.41 0 28.305-4.215 31.185-8.205 3.855-5.385 9.48-8.31 15.99-8.31 13.65 0 29.175 13.47 36.915 32.04 3.81 9.09 11.895 15.48 19.68 15.48 7.86 0 11.79-6.63 13.485-11.49.06-.36 7.5-33.105.345-76.935-6.795-5.565-31.11-23.97-61.11-29.07-34.515-5.91-45.645-9.315-52.56-25.005-13.245 4.68-42.36 18.15-39.375 45.285M95.565 302.58c-1.635 1.47-2.64 2.76-.99 6.735q.6 1.575 1.455 3.045 1.245 2.355 2.235 4.695c.345.93.585 1.875.87 2.985a22.5 22.5 0 0 1 .24 6.735l-.12 2.175c-.06 6.45.885 13.065 1.695 18.165 3.75 23.91 14.655 44.595 33.345 63.285 8.085 8.085 17.64 16.29 29.88 25.83q6.945 5.295 13.89 10.5c.645-3.345 1.695-6.81 4.155-10.725 3.405-5.52 9.09-8.625 15.945-8.625 12.075 0 27.48 10.32 28.59 23.1 1.995 24.135 10.08 37.14 23.91 38.67 26.13 2.745 36.975 6.435 47.52 10.665q1.995.795 5.745.81c3.45 0 7.2-.525 10.545-.99l4.215-.525a450 450 0 0 0 29.175-4.11l1.185-.165a1.5 1.5 0 0 0-.42-.48c-3.285-3.225-8.73-5.325-14.055-7.32l-4.755-1.875c-5.745-2.34-11.535-4.68-17.4-6.615l-3.99-1.23c-6.255-1.875-13.41-3.99-19.155-10.32-10.305-11.31-10.89-27.075-10.425-38.025.405-12.3 1.875-26.61 9.075-39.09 3.225-5.85 5.985-11.94 8.73-18.045l2.175-4.8c3.51-7.905 4.86-12.54 5.325-15.12-1.455.825-3.045 1.935-3.39 2.58-4.05 16.35-27.78 16.815-30.645 16.815l-4.275-.06c-19.05 0-34.635 1.875-41.73 5.04-4.275 1.815-9.78 2.82-16.395 2.82-20.1 0-47.52-8.625-60.705-24.615-.18 0-.24-.06-.36-.06-2.16-.18-4.56-.345-6.855-1.695-7.38-4.515-7.965-15.06-8.025-18.165 0-7.905 2.7-14.115 6.39-15.99.465-1.245.285-6.39-3.345-11.895-2.865-4.35-8.49-9.615-18.57-9.615-9.72 0-16.53 1.815-20.685 5.505" style="fill:url(#a);stroke-width:15"/></svg>