<svg xmlns="http://www.w3.org/2000/svg" width="600" height="600"><radialGradient id="a" cx="0" cy="0" r="1" fx="0" fy="0" gradientTransform="translate(300.015 300.015)scale(269.568)" gradientUnits="userSpaceOnUse" spreadMethod="pad"><stop offset="0" style="stop-color:#d9eaf3"/><stop offset=".663" style="stop-color:#99aebc"/><stop offset="1" style="stop-color:#536e78"/></radialGradient><path d="M0 300c0 165.42 134.595 300 300 300s300-134.58 300-300C600 134.595 465.405 0 300 0S0 134.595 0 300" style="fill:#fff"/><path d="M91.755 321.51c.524 2.4.12 4.575.06 7.32-.12 6.45.704 13.065 1.755 19.455 4.11 26.55 16.53 48.51 35.46 67.44 9.54 9.495 19.98 18.165 30.585 26.43 5.325 4.095 10.71 8.145 16.17 12.18 2.745 1.995 7.035 8.145 8.31 1.59 1.23-6.15 1.066-10.38 4.515-16.005 7.44-12.06 29.715 0 30.645 11.145.946 11.13 4.635 42.705 30.645 45.525 25.965 2.745 36.21 6.495 45.465 10.185 6.855 2.76 17.055.586 24.15-.164 9.9-1.066 19.74-2.52 29.58-4.23 3.105-.525 6.75-.465 8.145-3.855 1.41-3.405-1.05-7.215-3.33-9.495-5.565-5.505-14.235-7.92-21.21-10.785-5.925-2.4-11.835-4.8-17.88-6.795-7.2-2.4-14.58-3.51-19.98-9.495-7.905-8.73-8.955-21.39-8.55-32.7.464-12.24 1.935-24.9 8.145-35.73 4.275-7.44 7.62-15.42 11.13-23.265 2.055-4.515 9.675-21.33 4.635-25.425-4.755-3.99-15.42 2.865-16.71 7.845-2.745 11.13-23.145 11.13-23.145 11.13s-34.395-.93-49.215 5.565c-14.88 6.51-55.725-1.815-69.6-21.33-.946-1.335-6.21-.81-7.8-1.755-5.445-3.285-6.09-18.93-.586-22.38 7.44-4.635 0-34.335-26.895-34.335-8.79 0-18.81 1.35-25.665 7.44-4.86 4.275-5.325 9.375-2.985 15.12 1.05 2.64 2.64 4.98 3.69 7.68.18.585.346 1.11.465 1.695m101.55-191.61s-56.085 13.71-51.45 55.44c0 0-29.355 9.54-37.68 36.435-8.37 26.955 1.815 34.395 12.96 34.395 11.19 0 20.445-4.62 20.445-4.62s16.695-3.69 26.01 2.745c9.255 6.51 49.17 5.565 58.485-7.44 9.255-13.005 30.585 0 39.9 22.335 9.255 22.26 38.025 29.7 47.34 2.745 0 0 8.325-35.265 0-82.62 0 0-28.77-26.01-66.855-32.46-38.085-6.495-43.59-9.315-49.155-26.955m226.395 119.775c0-58.485-61.23-77.985-61.23-77.985s-13.875-2.76-13.875-13.95c0 0-23.79.345-37.74-7.095 0 0-12.42-3.105-12.42-11.415 0-8.385-62.175-24.855-40.365-42.96 0 0 161.535-37.5 244.98 127.86 0 0-34.755-18.105-34.755 30.645 0 33.69 22.56 43.995 41.31 42.12 0 0 33.75 117.195-130.425 179.235 0 0-11.835-3.45-6.915-14.64 4.86-11.07-6.975-11.07-6.975-11.07s-16.695 1.335-16.695-22.335 6.27-25.725 6.27-25.725l25.02-19.5s5.565-4.875.69-11.13c-4.92-6.27-17.4-20.925-17.4-28.545 0-5.565 3.345-10.02 7.035-12.075 0 0 53.49 8.205 53.49-81.435M300 537.84C168.87 537.84 62.175 431.13 62.175 300S168.87 62.175 300 62.175 537.825 168.87 537.825 300 431.13 537.84 300 537.84m0-514.86C147.015 22.98 22.905 147.015 22.905 300c0 153.045 124.11 277.095 277.095 277.095 153.045 0 277.095-124.05 277.095-277.095 0-152.985-124.05-277.02-277.095-277.02" style="fill:#536e78"/><path d="M30.405 300c0 148.65 120.945 269.595 269.595 269.595S569.595 448.65 569.595 300 448.65 30.48 300 30.48 30.405 151.35 30.405 300m24.27 0C54.675 164.775 164.7 54.675 300 54.675S545.325 164.775 545.325 300c0 135.3-110.025 245.4-245.325 245.4S54.675 435.3 54.675 300M257.64 103.245a3 3 0 0 0-.705.99c.285 4.395 17.925 13.545 24.555 16.935 12.765 6.57 20.505 10.56 20.505 18.06 0 1.11 3.57 3.33 6.735 4.215l.885.165.75.48c11.25 5.97 31.41 6.15 33.705 6.15h8.025v7.56c0 4.8 7.785 6.495 8.67 6.735.645.24 66.435 21.855 66.435 85.14 0 34.515-7.665 59.58-22.785 74.58a49.5 49.5 0 0 1-34.8 14.595q-.63.015-1.23-.06a6.6 6.6 0 0 0-1.71 4.395c.06 2.82 4.695 9.96 13.71 21.27l2.115 2.7c6.735 8.67 2.7 17.52-2.055 21.615l-25.02 19.515-.465.345c-.705 1.125-2.865 5.745-2.865 19.515 0 4.455.705 10.44 4.215 13.185a7.5 7.5 0 0 0 4.68 1.53h.3c1.53 0 9.435.345 13.53 6.615 1.875 2.865 3.465 7.86.3 15-.525 1.17-.705 2.175-.465 2.58a3 3 0 0 0 .87.93c133.95-51.96 128.145-140.145 124.05-163.35-20.1-.765-42.78-14.07-42.78-49.86 0-36.33 18.99-41.145 27.945-41.43C428.325 115.26 341.835 100.14 293.97 100.14c-18.285 0-31.65 2.22-36.33 3.105m-108.345 81.27.645 6.03-5.805 1.935c-.225.12-25.71 8.85-32.805 31.53-4.635 14.88-2.235 20.385-1.005 22.08 1.245 1.71 3.585 2.58 6.81 2.58 9.195 0 17.04-3.81 17.1-3.855l.885-.42.81-.165c.24-.06 5.64-1.29 12.255-1.29 8.145 0 14.76 1.755 19.68 5.265 1.41.945 7.275 2.52 16.875 2.52 16.47 0 28.365-4.215 31.185-8.205 3.855-5.325 9.54-8.31 15.99-8.31 13.65 0 29.235 13.47 37.035 32.04 3.75 9.09 11.775 15.48 19.56 15.48 7.86 0 11.79-6.69 13.545-11.55.06-.3 7.5-33.105.285-76.875-6.795-5.565-31.11-23.97-61.11-29.07-34.515-5.85-45.645-9.315-52.56-25.005-13.245 4.68-42.36 18.21-39.375 45.285M95.565 302.58c-1.575 1.47-2.64 2.76-.99 6.735.405 1.065.93 2.055 1.455 3.045q1.23 2.28 2.295 4.815c.345.99.585 1.815.81 2.865.54 2.64.42 4.8.24 6.735l-.06 2.175a102 102 0 0 0 1.695 18.225c3.69 23.85 14.595 44.58 33.345 63.225 10.14 10.185 21.33 19.155 29.82 25.77 4.635 3.645 9.255 7.095 13.89 10.56.645-3.285 1.755-6.81 4.155-10.725a18.15 18.15 0 0 1 15.945-8.625c12.075 0 27.54 10.32 28.59 23.04 2.055 24.195 10.14 37.2 23.97 38.67 25.95 2.805 36.855 6.495 47.46 10.725q2.025.795 5.805.81c3.51 0 7.2-.525 10.485-.93l4.215-.525c9.78-1.065 19.515-2.52 29.175-4.17l1.23-.165q-.225-.195-.465-.48c-3.285-3.225-8.79-5.325-14.175-7.38l-4.86-1.875c-5.625-2.34-11.37-4.68-17.175-6.555l-4.035-1.23c-6.27-1.875-13.425-3.99-19.05-10.32-10.365-11.31-10.95-27.135-10.545-38.025.525-12.3 1.935-26.61 9.135-39.135 3.225-5.685 5.925-11.67 8.73-18l2.055-4.68c3.57-7.92 4.92-12.54 5.385-15.18-1.395.825-2.925 1.935-3.27 2.58-4.11 16.35-27.78 16.755-30.645 16.755l-4.335-.06c-18.99 0-34.575 1.875-41.73 4.98q-6.405 2.82-16.335 2.82c-20.16.06-47.64-8.565-60.765-24.555q-.18-.075-.36-.06c-2.22-.18-4.62-.405-6.855-1.695-7.38-4.515-7.965-15.06-8.025-18.165 0-7.905 2.7-14.07 6.39-15.99.525-1.245.285-6.39-3.285-11.85-2.925-4.395-8.49-9.66-18.63-9.66-9.72 0-16.47 1.815-20.685 5.505" style="fill:url(#a);stroke-width:15"/></svg>