<?xml version="1.0" encoding="UTF-8" standalone="no"?>
<svg
   version="1.1"
   id="Layer_1"
   x="0px"
   y="0px"
   width="89.579002"
   height="35"
   xmlns="http://www.w3.org/2000/svg"
   xmlns:svg="http://www.w3.org/2000/svg">
  <defs
     id="defs1" />
  <path
     fill="#808080"
     d="M 70.786,35 67.45,20.993 64.15,35 H 50.903 L 48.802,21.752 C 47.404,30.335 41.514,35 31.868,35 H 0 V 0 h 31.868 c 3.651,0 10.71,0.847 14.572,6.855 L 45.354,0 H 58.445 L 59.29,10.709 61.483,0 H 73.45 L 75.643,10.708 76.488,0 H 89.579 L 84.03,35 Z M 31.868,25.902 c 1.403,0 5.041,-1.506 5.041,-8.386 0,-6.906 -3.638,-8.418 -5.04,-8.418 h -5.36 v 16.804 z"
     id="path1" />
  <path
     id="SVGID_2_"
     d="M 14.245,33.523 H 1.476 V 1.477 h 12.77 z M 16.294,1.477 v 32.048 c 0,0 4.283,0 15.574,0 9.263,0 15.783,-4.549 15.783,-16.008 0,-14.074 -10.304,-16.04 -15.783,-16.04 -11.27,0 -15.574,0 -15.574,0 z m 8.739,25.9 V 7.623 c 0,0 0,0 6.835,0 1.681,0 6.516,1.599 6.516,9.894 0,8.303 -4.835,9.86 -6.517,9.86 z m 27.13,6.146 h 10.819 l 4.46,-18.934 4.508,18.934 H 82.77 L 87.852,1.476 h -10 L 76.295,21.228 72.247,1.477 H 62.688 L 58.639,21.23 57.081,1.477 h -9.998 z" />
</svg>
