<?xml version="1.0" encoding="UTF-8" standalone="no"?>
<svg
   version="1.1"
   id="Layer_1"
   x="0px"
   y="0px"
   width="89.579002"
   height="35"
   xmlns="http://www.w3.org/2000/svg"
   xmlns:svg="http://www.w3.org/2000/svg">
  <defs
     id="defs5" />
  <path
     d="M 70.786,35 67.45,20.993 64.15,35 H 50.903 L 48.802,21.752 C 47.404,30.335 41.514,35 31.868,35 H 0 V 0 h 31.868 c 3.651,0 10.71,0.847 14.572,6.855 L 45.354,0 H 58.445 L 59.29,10.709 61.483,0 H 73.45 L 75.643,10.708 76.488,0 H 89.579 L 84.03,35 Z M 31.868,25.902 c 1.403,0 5.041,-1.506 5.041,-8.386 0,-6.906 -3.638,-8.418 -5.04,-8.418 h -5.36 v 16.804 z"
     id="path1" />
  <g
     id="g5"
     transform="translate(0,-7.5)">
    <path
       style="fill:url(#SVGID_5_)"
       id="SVGID_2_"
       d="M 14.245,41.023 H 1.476 V 8.977 h 12.77 z M 16.294,8.977 v 32.048 c 0,0 4.283,0 15.574,0 9.263,0 15.783,-4.549 15.783,-16.008 0,-14.074 -10.304,-16.04 -15.783,-16.04 -11.27,0 -15.574,0 -15.574,0 z m 8.739,25.9 V 15.123 c 0,0 0,0 6.835,0 1.681,0 6.516,1.599 6.516,9.894 0,8.303 -4.835,9.86 -6.517,9.86 z m 27.13,6.146 h 10.819 l 4.46,-18.934 4.508,18.934 H 82.77 L 87.852,8.976 h -10 L 76.295,28.728 72.247,8.977 H 62.688 L 58.639,28.73 57.081,8.977 h -9.998 z" />
    <linearGradient
       id="SVGID_5_"
       gradientUnits="userSpaceOnUse"
       x1="-3.2583001"
       y1="-66.653297"
       x2="63.419201"
       y2="-66.653297"
       gradientTransform="matrix(0.3911,-1.0089,-1.1206,-0.4344,-44.3259,26.3985)">
      <stop
         style="stop-color:#bf331c"
         offset="0"
         id="stop1" />
      <stop
         style="stop-color:#d3641c"
         offset="0.3"
         id="stop2" />
      <stop
         style="stop-color:#f6b91d"
         offset="0.5"
         id="stop3" />
      <stop
         style="stop-color:#d3641c"
         offset="0.7"
         id="stop4" />
      <stop
         style="stop-color:#bf331c"
         offset="1"
         id="stop5" />
    </linearGradient>
  </g>
</svg>
