<?xml version="1.0" encoding="UTF-8" standalone="no"?>
<svg
   version="1.1"
   id="Layer_1"
   x="0px"
   y="0px"
   width="86.375999"
   height="32.049"
   xmlns="http://www.w3.org/2000/svg"
   xmlns:svg="http://www.w3.org/2000/svg">
  <defs
     id="defs1" />
  <path
     id="SVGID_2_"
     d="M 12.769,32.047 H 0 V 10e-4 H 12.77 Z M 14.818,10e-4 v 32.048 c 0,0 4.283,0 15.574,0 9.263,0 15.783,-4.549 15.783,-16.008 0,-14.074 -10.304,-16.04 -15.783,-16.04 -11.27,0 -15.574,0 -15.574,0 z m 8.739,25.9 V 6.147 c 0,0 0,0 6.835,0 1.681,0 6.516,1.599 6.516,9.894 0,8.303 -4.835,9.86 -6.517,9.86 z m 27.13,6.146 h 10.819 l 4.46,-18.934 4.508,18.934 h 10.82 L 86.376,0 h -10 L 74.819,19.752 70.771,10e-4 H 61.212 L 57.163,19.754 55.605,10e-4 h -9.998 z" />
</svg>
