<svg xmlns="http://www.w3.org/2000/svg" width="600" height="488.699"><path fill="#fff" d="M561.478 17.752c-.573.293-58.033 25.73-243.628 25.73H282.2c-185.645 0-243.104-25.437-243.678-25.73L.39.195 0 42.053v25.913c0 19.426 13.647 31.826 27.831 36.652.904 3.531 2.102 6.732 3.763 9.689v88.332h76.03C103.47 247.404 88.05 414.771 86.768 428.43c-5.778 8.687-8.16 18.326-8.16 27.098 0 5.022.672 9.689 1.856 13.696l5.584 19.475h96.738l16.09-58.888s-5.925-2.957-11.509-5.78c2.431-28.344 15.797-183.212 18.998-220.573h22.138c-.039 1.857-.806 26.768-.806 26.768h144.606s-.77-24.96-.806-26.768h22.138c3.2 37.36 16.567 192.23 18.998 220.574-5.584 2.822-11.46 5.779-11.46 5.779l16.041 58.888h96.592l5.68-19.28c1.052-3.579 1.81-8.307 1.81-13.597 0-8.455-2.053-18.375-8.064-27.392-1.234-13.66-16.702-181.026-20.856-225.791h76.03v-88.283c1.661-3.006 2.907-6.207 3.811-9.738C586.353 99.792 600 87.392 600 67.966V0Z"/><path d="M317.85 70.397h-35.7c-198.534 0-255.235-28.345-255.235-28.345v25.914c0 9.737 11.313 12.168 11.313 12.168h14.613v14.6c0 11.314 12.168 14.563 12.168 14.563h78.595l-3.237 31.595H58.509v34.832h78.608L112.828 439.12c-10.556 8.919-6.5 22.713-6.5 22.713h55.944l4.814-17.85-8.112-4.056 22.712-263.397h74.551l-.806 26.78h89.138l-.806-26.78h74.551l22.663 263.397-8.063 4.056 4.814 17.85h55.943s4.057-13.794-6.5-22.713l-24.288-263.396h78.608v-34.832h-81.858l-3.237-31.595h78.595s12.168-3.25 12.168-14.563v-14.6h14.564s11.362-2.431 11.362-12.168V42.052S516.384 70.397 317.85 70.397m22.663 38.082h74.551l2.431 31.594h-74.538zm-155.577 0h74.55l-2.443 31.594h-74.538z"/></svg>