<svg xmlns="http://www.w3.org/2000/svg" width="600" height="488.699"><radialGradient id="a" cx="0" cy="0" r="1" fx="0" fy="0" gradientTransform="matrix(19.93517 0 0 -19.93517 219.25 371.474)" gradientUnits="userSpaceOnUse" spreadMethod="pad"><stop offset="0" style="stop-color:#bf99c3"/><stop offset=".7" style="stop-color:#7b5190"/><stop offset="1" style="stop-color:#612c75"/></radialGradient><path d="M561.478 17.752c-.573.293-58.033 25.73-243.628 25.73H282.2c-185.645 0-243.104-25.437-243.678-25.73L.39.195 0 42.053v25.913c0 19.426 13.647 31.826 27.831 36.652.904 3.531 2.102 6.732 3.763 9.689v88.332h76.03C103.47 247.404 88.05 414.771 86.768 428.43c-5.778 8.687-8.16 18.326-8.16 27.098 0 5.022.672 9.689 1.856 13.696l5.584 19.475h96.738l16.09-58.888s-5.925-2.957-11.509-5.78c2.431-28.344 15.797-183.212 18.998-220.573h22.138c-.039 1.857-.806 26.768-.806 26.768h144.606s-.77-24.96-.806-26.768h22.138c3.2 37.36 16.567 192.23 18.998 220.574-5.584 2.822-11.46 5.779-11.46 5.779l16.041 58.888h96.592l5.68-19.28c1.052-3.579 1.81-8.307 1.81-13.597 0-8.455-2.053-18.375-8.064-27.392-1.234-13.66-16.702-181.026-20.856-225.791h76.03v-88.283c1.661-3.006 2.907-6.207 3.811-9.738C586.353 99.792 600 87.392 600 67.966V0Z" style="fill:#fff;fill-opacity:1"/><path d="M220.711 386.332h-2.922c-16.25 0-20.891 2.32-20.891 2.32v-2.121c0-.797.926-.996.926-.996h1.196v-1.195c0-.926.996-1.192.996-1.192h6.433l-.265-2.586h-6.7v-2.851h6.434l-1.988-21.559c-.864-.73-.532-1.859-.532-1.859h4.579l.394 1.461-.664.332 1.859 21.559h6.102l-.066-2.192h7.296l-.066 2.192h6.102l1.855-21.559-.66-.332.394-1.461h4.579s.332 1.129-.532 1.859l-1.988 21.559h6.434v2.851h-6.7l-.265 2.586h6.433s.996.266.996 1.192v1.195h1.192s.93.199.93.996v2.121s-4.641-2.32-20.891-2.32m1.855-3.117h6.102l.199-2.586h-6.101zm-12.734 0h6.102l-.2-2.586h-6.101z" style="fill:url(#a)" transform="matrix(12.21747 0 0 -12.21747 -2378.68 4790.397)"/></svg>