<svg xmlns="http://www.w3.org/2000/svg" width="546.17" height="419.78"><path d="M290.935 28.344h-35.7C56.701 28.344 0 0 0 0v25.913c0 9.738 11.313 12.169 11.313 12.169h14.612v14.6c0 11.313 12.17 14.563 12.17 14.563h78.594l-3.238 31.594H31.594v34.832h78.608L85.913 397.068c-10.556 8.919-6.5 22.712-6.5 22.712h55.944l4.814-17.85-8.112-4.056 22.712-263.396h74.55l-.805 26.78h89.138l-.806-26.78h74.55l22.664 263.396L406 401.93l4.813 17.85h55.944s4.056-13.793-6.5-22.712L435.969 133.67h78.607V98.84h-81.857l-3.237-31.594h78.595s12.168-3.25 12.168-14.563v-14.6h14.564s11.362-2.431 11.362-12.169V0s-56.701 28.344-255.235 28.344m22.663 38.082h74.551l2.431 31.595h-74.538zm-155.577 0h74.55l-2.443 31.595H155.59z"/></svg>