<svg xmlns="http://www.w3.org/2000/svg" width="600" height="454.468"><path d="m147.305 196.648 59.91 43.981a256 256 0 0 1 46.697-12.952l30.574-75.01.352-.84c-49.571 2.306-95.109 16.462-132.432 41.322-1.727 1.147-3.465 2.306-5.102 3.5m201.318 32.267a271 271 0 0 1 42.959 12.6l60.717-44.56c-37.335-26.406-83.395-42.073-135.102-45.005l.306.716zM497.03 454.468c-12.6 0-20.633-9.68-31.779-23.087-23.428-28.222-67.147-80.907-168.198-80.907-100.835 0-141.806 51.89-163.813 79.76-10.703 13.486-18.384 23.257-31.245 23.257-18.292 0-27.836-17.452-30.45-32.313l-.272-1.556v-1.557c0-46.946 19.667-91.552 55.57-126.66l-11.01-67.864c-21.348 22.065-37.936 48.333-48.946 77.85-2.579 6.83-3.42 11.942-4.17 16.418-1.465 8.704-4.533 26.769-29.074 26.769-22.099 0-32.847-22.11-33.642-43.947v-.614c0-82.952 27.7-158.132 77.93-211.748C132.125 30.529 208.908 0 299.972 0c91.12 0 167.903 30.529 222.087 88.269C572.3 141.885 600 217.065 600 300.017v.614l-.045.67c-1.466 20.11-11.237 43.63-33.915 43.63-25.473 0-28.575-21.702-29.78-29.916-.567-4.26-1.238-8.703-3.01-13.316-11.543-29.87-28.234-55.922-49.173-77.532l-11.192 68.965c36.085 35.244 55.832 79.487 55.832 125.695v2.215l-.535 2.136c-3.851 15.134-14.066 31.29-31.154 31.29" style="fill:#fff"/><path d="m453.764 299.699 15.043-92.757-74.783 54.9c-18.417-8.078-38.084-13.884-58.229-17.168l-34.8-85.258-34.392 84.327a238.7 238.7 0 0 0-61.91 17.167l-73.499-53.968 14.736 90.984c-34.574 30.757-56.808 72.34-56.808 120.14 0 0 3.056 17.576 12.872 17.576 16.816 0 48.504-103.006 195.013-103.006 146.588 0 183.207 103.983 200.022 103.983 9.317 0 13.85-17.838 13.85-17.838 0-47.094-22.462-88.28-57.115-119.082m128.433.273s-2 27.12-16.157 27.12c-15.395 0-9.01-13.316-16.19-31.824C512.39 198.25 421.054 133.67 299.268 133.67S86.054 198.91 50.196 295.132c-8.703 23.348-1.681 31.596-16.554 31.596-14.827 0-15.85-26.756-15.85-26.756 0-155.826 101.018-282.18 282.226-282.18 181.173 0 282.179 126.354 282.179 282.18"/></svg>