<svg xmlns="http://www.w3.org/2000/svg" width="600" height="650.583"><radialGradient id="a" cx="0" cy="0" r="1" fx="0" fy="0" gradientTransform="matrix(15.8638 0 0 -15.8638 482.992 372.093)" gradientUnits="userSpaceOnUse" spreadMethod="pad"><stop offset="0" style="stop-color:#ebd491"/><stop offset=".7" style="stop-color:#d2bb7b"/><stop offset="1" style="stop-color:#8b723c"/></radialGradient><path d="M542.066 0H0s241.545 533.494 242.44 535.592c-9.092 12.199-14.622 26.934-14.622 42.955 0 19.241 7.498 37.343 21.095 50.94 13.597 13.598 31.716 21.096 50.957 21.096 19.257 0 37.36-7.498 50.957-21.095 13.597-13.598 21.095-31.7 21.095-50.941 0-16.964-6.36-32.415-16.525-44.988C355.853 532.664 600 0 600 0Z" style="fill:#fff"/><path d="M286.842 546.197c-12.768 5.156-21.843 17.663-21.843 32.35 0 19.241 15.63 34.871 34.87 34.871 19.258 0 34.888-15.63 34.888-34.871 0-14.622-9.026-27.194-21.86-32.35v-31.44h10.231L542.066 37.165H57.69l216.14 477.592h13.011z" style="fill:#8b723c"/><path d="M493.617 389.406h-24.894l12.925-28.558h.946v-2.606l-.254-.101a1.747 1.747 0 0 1 .652-3.364c.961 0 1.742.785 1.742 1.746a1.74 1.74 0 0 1-1.093 1.618l-.25.101v2.606h.773l13.098 28.558z" style="fill:url(#a)" transform="matrix(16.26457 0 0 -16.26457 -7555.788 6377.24)"/><path d="M313.857 445.812h-27.893l-1.79-3.806-163.02-357.495-4.195-9.157h116.519v20.705l-6.294.195c-11.24.39-14.606 2.732-15.5 4.57-2.733 5.855 4.196 21.99 7.562 29.748l1.79 4.18c.7 1.659 59.707 133.678 78.964 176.698 78.395-177.267 78.395-177.267 78.72-177.837.57-1.772 2.099-4.765 3.611-7.872 3.497-7.058 7.19-14.426 6.49-21.03-.569-5.22-6.034-8.132-16.2-8.457l-6.229-.244V75.354h116.389l-4.196 9.157-163.02 357.496z" style="fill:#8b723c"/><path d="M300 327.455s84.12-190.084 84.185-190.215c4.132-10.295 12.329-21.534 11.044-33.228-1.204-11.255-12.768-13.923-22.364-14.232v-7.937h99.816l-163.02 357.43H290.16L127.059 81.844h99.88v7.937c-6.863.196-17.728 1.139-21.095 8.263-4.57 9.775 5.27 29.731 9.141 39.197 0 .066 85.015 190.215 85.015 190.215" style="fill:#fff"/></svg>