<svg xmlns="http://www.w3.org/2000/svg" width="484.375" height="576.254"><path d="m0 0 216.139 477.594h13.011v31.44c-12.832 5.155-21.843 17.662-21.843 32.349 0 19.24 15.565 34.87 34.87 34.87 19.258 0 34.823-15.63 34.823-34.87 0-14.622-9.025-27.194-21.793-32.35v-31.44h10.164L484.375 0h-69.451zm69.367 44.68h99.881v7.937c-6.864.195-17.794 1.138-21.096 8.262-4.635 9.775 5.205 29.731 9.092 39.197 0 .065 85.065 190.215 85.065 190.215s84.056-190.085 84.12-190.215c4.197-10.295 12.393-21.534 11.108-33.228-1.203-11.255-12.767-13.922-22.363-14.23V44.68h99.75L251.97 402.11h-19.502z"/></svg>