<svg xmlns="http://www.w3.org/2000/svg" xml:space="preserve" width="150.001" height="107.365"><g transform="translate(-4.833 -3.334)"><path d="M154.834 60.769s-1.331-7.441-4.937-15.715c-3.753-8.608-9.704-14.684-9.704-14.684s-14.008 5.968-25.277 17.872l-2.009-1.339c5.523-7.046 10.684-11.4 13.446-13.478l3.51-2.641-2.537-3.585C116.746 12.254 98.992 3.334 79.833 3.334s-36.913 8.92-47.492 23.864l-2.539 3.585 3.511 2.641c2.762 2.077 7.922 6.432 13.446 13.478l-2.009 1.339C33.482 36.337 19.474 30.369 19.474 30.369s-5.951 6.076-9.704 14.684c-3.606 8.274-4.937 15.715-4.937 15.715s6.605-.408 12.947.826c-7.346 9.883-7.664 23.719-7.664 23.719s9.339-1.589 16.02-1.589c23.238 0 38.671 11.04 42.405 13.876 6.269 4.761 11.293 13.099 11.293 13.099s5.025-8.338 11.292-13.099c3.732-2.836 19.168-13.876 42.405-13.876 6.681 0 16.019 1.589 16.019 1.589s-.316-13.836-7.663-23.719c6.341-1.234 12.947-.825 12.947-.825"/><linearGradient id="a" x1="79.834" x2="79.834" y1="76.564" y2="35.993" gradientUnits="userSpaceOnUse"><stop offset="0" style="stop-color:#f7981d"/><stop offset=".155" style="stop-color:#ea8620"/><stop offset=".25" style="stop-color:#e07823"/><stop offset=".5" style="stop-color:#e07823"/><stop offset=".552" style="stop-color:#dc6f23"/><stop offset=".636" style="stop-color:#d05724"/><stop offset=".742" style="stop-color:#bd2f26"/><stop offset=".75" style="stop-color:#bb2c26"/><stop offset="1" style="stop-color:#bb2c26"/></linearGradient><path fill="url(#a)" d="m42.503 52.464 16.852 24.101c-3.333-2.76-12.609-10.021-24.301-14.618-14.696-5.777-24.494-5.699-24.494-5.699 2.826-11.682 10.08-20.255 10.08-20.255s10.888 5.388 21.863 16.471m96.524-16.472s7.254 8.573 10.08 20.255c0 0-9.798-.078-24.494 5.699-11.691 4.597-20.968 11.858-24.303 14.618l16.854-24.101c10.974-11.082 21.863-16.471 21.863-16.471" style="fill:url(#a)"/><linearGradient id="b" x1="15.333" x2="71.606" y1="77.172" y2="77.172" gradientUnits="userSpaceOnUse"><stop offset="0" style="stop-color:#bb2c26"/><stop offset=".052" style="stop-color:#bf3526"/><stop offset=".136" style="stop-color:#cb4d25"/><stop offset=".242" style="stop-color:#de7523"/><stop offset=".25" style="stop-color:#e07823"/><stop offset=".257" style="stop-color:#e17a23"/><stop offset=".327" style="stop-color:#ee8b1f"/><stop offset=".404" style="stop-color:#f5951e"/><stop offset=".5" style="stop-color:#f7981d"/><stop offset=".596" style="stop-color:#f5951e"/><stop offset=".673" style="stop-color:#ee8b1f"/><stop offset=".743" style="stop-color:#e17a23"/><stop offset=".75" style="stop-color:#e07823"/><stop offset=".809" style="stop-color:#d35d24"/><stop offset=".884" style="stop-color:#c64225"/><stop offset=".95" style="stop-color:#be3226"/><stop offset="1" style="stop-color:#bb2c26"/></linearGradient><path fill="url(#b)" d="M51.921 72.821c-4.58-3.196-10.601-6.792-17.419-9.472a94 94 0 0 0-9.886-3.28c-7.968 9.089-9.283 19.761-9.283 19.761s3.517-.629 10.803-.629c29.204 0 45.47 15.074 45.47 15.074s-6.783-12.451-19.685-21.454" style="fill:url(#b)"/><linearGradient id="c" x1="88.061" x2="144.334" y1="77.172" y2="77.172" gradientUnits="userSpaceOnUse"><stop offset="0" style="stop-color:#bb2c26"/><stop offset=".052" style="stop-color:#bf3526"/><stop offset=".136" style="stop-color:#cb4d25"/><stop offset=".242" style="stop-color:#de7523"/><stop offset=".25" style="stop-color:#e07823"/><stop offset=".257" style="stop-color:#e17a23"/><stop offset=".327" style="stop-color:#ee8b1f"/><stop offset=".404" style="stop-color:#f5951e"/><stop offset=".5" style="stop-color:#f7981d"/><stop offset=".596" style="stop-color:#f5951e"/><stop offset=".673" style="stop-color:#ee8b1f"/><stop offset=".743" style="stop-color:#e17a23"/><stop offset=".75" style="stop-color:#e07823"/><stop offset=".809" style="stop-color:#d35d24"/><stop offset=".884" style="stop-color:#c64225"/><stop offset=".95" style="stop-color:#be3226"/><stop offset="1" style="stop-color:#bb2c26"/></linearGradient><path fill="url(#c)" d="M88.061 94.275s16.267-15.074 45.471-15.074c7.285 0 10.803.629 10.803.629s-1.313-10.672-9.282-19.761a94 94 0 0 0-9.888 3.28c-6.817 2.68-12.839 6.275-17.417 9.472-12.904 9.003-19.687 21.454-19.687 21.454" style="fill:url(#c)"/><linearGradient id="d" x1="36.032" x2="123.635" y1="27.024" y2="27.024" gradientUnits="userSpaceOnUse"><stop offset="0" style="stop-color:#bb2c26"/><stop offset=".079" style="stop-color:#bd3026"/><stop offset=".16" style="stop-color:#c33d25"/><stop offset=".243" style="stop-color:#cd5125"/><stop offset=".326" style="stop-color:#db6e23"/><stop offset=".35" style="stop-color:#e07823"/><stop offset=".381" style="stop-color:#e78221"/><stop offset=".448" style="stop-color:#f3921e"/><stop offset=".5" style="stop-color:#f7981d"/><stop offset=".552" style="stop-color:#f3921e"/><stop offset=".619" style="stop-color:#e78221"/><stop offset=".65" style="stop-color:#e07823"/><stop offset=".733" style="stop-color:#d35d24"/><stop offset=".837" style="stop-color:#c64225"/><stop offset=".929" style="stop-color:#be3226"/><stop offset="1" style="stop-color:#bb2c26"/></linearGradient><path fill="url(#d)" d="M66.212 9.521a56.3 56.3 0 0 1 13.621-1.664c4.712 0 9.278.581 13.621 1.664-2.185 5.067-5.01 14.531-2.267 25.611l-11.354-7.573-11.354 7.573c2.743-11.08-.083-20.544-2.267-25.611m-1.829.492c-11.751 3.363-21.739 10.458-28.351 19.799 3.378 2.541 9.521 7.801 15.866 16.379l14.183-9.459c3.614-11.68.517-21.708-1.698-26.719m29.202 26.718 14.183 9.459c6.346-8.579 12.489-13.839 15.867-16.379-6.613-9.341-16.6-16.436-28.353-19.799-2.214 5.01-5.311 15.04-1.697 26.719" style="fill:url(#d)"/><linearGradient id="e" x1="45.416" x2="114.252" y1="59.895" y2="59.895" gradientUnits="userSpaceOnUse"><stop offset="0" style="stop-color:#f7981d"/><stop offset=".048" style="stop-color:#f28f1e"/><stop offset=".126" style="stop-color:#e57720"/><stop offset=".224" style="stop-color:#cf4f23"/><stop offset=".3" style="stop-color:#bb2c26"/><stop offset=".318" style="stop-color:#bb2c26"/><stop offset=".5" style="stop-color:#bb2c26"/><stop offset=".682" style="stop-color:#bb2c26"/><stop offset=".7" style="stop-color:#bb2c26"/><stop offset=".738" style="stop-color:#c74124"/><stop offset=".816" style="stop-color:#dc6721"/><stop offset=".888" style="stop-color:#eb821f"/><stop offset=".951" style="stop-color:#f4921d"/><stop offset="1" style="stop-color:#f7981d"/></linearGradient><path fill="url(#e)" d="M96.446 78.43V41.358l17.806 11.874zm-51.03-25.198L63.221 78.43V41.358Z" style="fill:url(#e)"/><path fill="#f7981d" d="M94.938 80.563V40.351L79.833 30.278 64.729 40.351v40.212l15.104 21.375z"/></g></svg>