<svg xmlns="http://www.w3.org/2000/svg" xml:space="preserve" width="150.001" height="107.365"><g transform="translate(-4.944 -3.334)"><path d="M154.945 60.769s-1.331-7.441-4.937-15.715c-3.753-8.608-9.704-14.684-9.704-14.684s-14.008 5.968-25.277 17.872l-2.009-1.339c5.523-7.046 10.684-11.4 13.446-13.478l3.51-2.641-2.537-3.585C116.857 12.254 99.104 3.334 79.945 3.334s-36.913 8.92-47.492 23.864l-2.539 3.585 3.511 2.641c2.762 2.077 7.922 6.432 13.446 13.478l-2.009 1.339C33.594 36.337 19.585 30.369 19.585 30.369s-5.951 6.076-9.704 14.684c-3.606 8.274-4.937 15.715-4.937 15.715s6.605-.408 12.947.826c-7.346 9.883-7.664 23.719-7.664 23.719s9.339-1.589 16.02-1.589c23.238 0 38.671 11.04 42.405 13.876 6.269 4.761 11.293 13.099 11.293 13.099s5.025-8.338 11.292-13.099c3.732-2.836 19.168-13.876 42.405-13.876 6.681 0 16.019 1.589 16.019 1.589s-.316-13.836-7.663-23.719c6.341-1.234 12.947-.825 12.947-.825"/><linearGradient id="a" x1="79.945" x2="79.945" y1="76.564" y2="35.993" gradientUnits="userSpaceOnUse"><stop offset="0" style="stop-color:#d7bd74"/><stop offset=".14" style="stop-color:#c5ab64"/><stop offset=".25" style="stop-color:#b39a54"/><stop offset=".5" style="stop-color:#b39a54"/><stop offset=".586" style="stop-color:#aa914b"/><stop offset=".726" style="stop-color:#927934"/><stop offset=".75" style="stop-color:#8d742f"/><stop offset="1" style="stop-color:#8d742f"/></linearGradient><path fill="url(#a)" d="m42.614 52.464 16.852 24.101c-3.333-2.76-12.609-10.021-24.301-14.618-14.696-5.777-24.494-5.699-24.494-5.699 2.826-11.682 10.08-20.255 10.08-20.255s10.889 5.388 21.863 16.471m96.525-16.472s7.254 8.573 10.08 20.255c0 0-9.798-.078-24.494 5.699-11.691 4.597-20.968 11.858-24.303 14.618l16.854-24.101c10.973-11.082 21.863-16.471 21.863-16.471" style="fill:url(#a)"/><linearGradient id="b" x1="15.444" x2="71.717" y1="77.172" y2="77.172" gradientUnits="userSpaceOnUse"><stop offset="0" style="stop-color:#8d742f"/><stop offset=".086" style="stop-color:#967d38"/><stop offset=".226" style="stop-color:#ae954f"/><stop offset=".25" style="stop-color:#b39a54"/><stop offset=".268" style="stop-color:#b9a059"/><stop offset=".335" style="stop-color:#cab068"/><stop offset=".409" style="stop-color:#d4ba71"/><stop offset=".5" style="stop-color:#d7bd74"/><stop offset=".591" style="stop-color:#d4ba71"/><stop offset=".665" style="stop-color:#cab068"/><stop offset=".732" style="stop-color:#b9a059"/><stop offset=".75" style="stop-color:#b39a54"/><stop offset=".821" style="stop-color:#a38a45"/><stop offset=".922" style="stop-color:#937a35"/><stop offset="1" style="stop-color:#8d742f"/></linearGradient><path fill="url(#b)" d="M52.032 72.821c-4.58-3.196-10.601-6.792-17.419-9.472a94 94 0 0 0-9.886-3.28c-7.968 9.089-9.283 19.761-9.283 19.761s3.517-.629 10.803-.629c29.204 0 45.47 15.074 45.47 15.074s-6.783-12.451-19.685-21.454" style="fill:url(#b)"/><linearGradient id="c" x1="88.172" x2="144.445" y1="77.172" y2="77.172" gradientUnits="userSpaceOnUse"><stop offset="0" style="stop-color:#8d742f"/><stop offset=".086" style="stop-color:#967d38"/><stop offset=".226" style="stop-color:#ae954f"/><stop offset=".25" style="stop-color:#b39a54"/><stop offset=".268" style="stop-color:#b9a059"/><stop offset=".335" style="stop-color:#cab068"/><stop offset=".409" style="stop-color:#d4ba71"/><stop offset=".5" style="stop-color:#d7bd74"/><stop offset=".591" style="stop-color:#d4ba71"/><stop offset=".665" style="stop-color:#cab068"/><stop offset=".732" style="stop-color:#b9a059"/><stop offset=".75" style="stop-color:#b39a54"/><stop offset=".821" style="stop-color:#a38a45"/><stop offset=".922" style="stop-color:#937a35"/><stop offset="1" style="stop-color:#8d742f"/></linearGradient><path fill="url(#c)" d="M88.172 94.275s16.267-15.074 45.471-15.074c7.285 0 10.803.629 10.803.629s-1.313-10.672-9.282-19.761a94 94 0 0 0-9.888 3.28c-6.817 2.68-12.839 6.275-17.417 9.472-12.904 9.003-19.687 21.454-19.687 21.454" style="fill:url(#c)"/><linearGradient id="d" x1="36.144" x2="123.746" y1="27.024" y2="27.024" gradientUnits="userSpaceOnUse"><stop offset="0" style="stop-color:#8d742f"/><stop offset=".112" style="stop-color:#917833"/><stop offset=".229" style="stop-color:#9e853f"/><stop offset=".346" style="stop-color:#b29953"/><stop offset=".35" style="stop-color:#b39a54"/><stop offset=".389" style="stop-color:#c1a760"/><stop offset=".452" style="stop-color:#d1b76f"/><stop offset=".5" style="stop-color:#d7bd74"/><stop offset=".548" style="stop-color:#d1b76f"/><stop offset=".611" style="stop-color:#c1a760"/><stop offset=".65" style="stop-color:#b39a54"/><stop offset=".75" style="stop-color:#a38a45"/><stop offset=".891" style="stop-color:#937a35"/><stop offset="1" style="stop-color:#8d742f"/></linearGradient><path fill="url(#d)" d="M66.324 9.521a56.3 56.3 0 0 1 13.621-1.664c4.712 0 9.278.581 13.621 1.664-2.185 5.067-5.01 14.531-2.267 25.611l-11.354-7.573-11.355 7.573c2.743-11.08-.082-20.544-2.266-25.611m-1.829.492c-11.751 3.363-21.739 10.458-28.351 19.799 3.378 2.541 9.521 7.801 15.866 16.379l14.183-9.459c3.614-11.68.516-21.708-1.698-26.719m29.201 26.718 14.183 9.459c6.346-8.579 12.489-13.839 15.867-16.379-6.613-9.341-16.6-16.436-28.353-19.799-2.213 5.01-5.311 15.04-1.697 26.719" style="fill:url(#d)"/><linearGradient id="e" x1="45.527" x2="114.363" y1="59.895" y2="59.895" gradientUnits="userSpaceOnUse"><stop offset="0" style="stop-color:#d7bd74"/><stop offset=".063" style="stop-color:#ceb46c"/><stop offset=".166" style="stop-color:#b69c55"/><stop offset=".296" style="stop-color:#8e7530"/><stop offset=".3" style="stop-color:#8d742f"/><stop offset=".318" style="stop-color:#8d742f"/><stop offset=".5" style="stop-color:#8d742f"/><stop offset=".682" style="stop-color:#8d742f"/><stop offset=".7" style="stop-color:#8d742f"/><stop offset=".767" style="stop-color:#a68d46"/><stop offset=".858" style="stop-color:#c1a75f"/><stop offset=".939" style="stop-color:#d1b76f"/><stop offset="1" style="stop-color:#d7bd74"/></linearGradient><path fill="url(#e)" d="M96.558 78.43V41.358l17.806 11.874zM45.527 53.232 63.333 78.43V41.358Z" style="fill:url(#e)"/><path fill="#d7bd74" d="M95.05 80.563V40.351L79.945 30.278 64.84 40.351v40.212l15.105 21.375z"/></g></svg>