<svg xmlns="http://www.w3.org/2000/svg" xml:space="preserve" width="150.002" height="107.365"><g transform="translate(-5.055 -3.334)"><path d="M155.057 60.769s-1.33-7.441-4.937-15.715c-3.754-8.608-9.705-14.684-9.705-14.684s-14.007 5.968-25.277 17.872l-2.009-1.339c5.525-7.046 10.685-11.4 13.447-13.478l3.512-2.641-2.54-3.585C116.969 12.254 99.215 3.334 80.056 3.334s-36.912 8.92-47.492 23.864l-2.539 3.585 3.511 2.641c2.762 2.077 7.922 6.432 13.446 13.478l-2.009 1.339C33.705 36.337 19.696 30.369 19.696 30.369s-5.951 6.076-9.704 14.684c-3.606 8.274-4.937 15.715-4.937 15.715s6.605-.408 12.947.826c-7.346 9.883-7.664 23.719-7.664 23.719s9.339-1.589 16.02-1.589c23.238 0 38.671 11.04 42.405 13.876 6.268 4.761 11.292 13.099 11.292 13.099s5.024-8.338 11.293-13.099c3.734-2.836 19.168-13.876 42.406-13.876 6.68 0 16.019 1.589 16.019 1.589s-.318-13.836-7.664-23.719c6.341-1.234 12.948-.825 12.948-.825"/><linearGradient id="a" x1="80.056" x2="80.056" y1="76.564" y2="35.993" gradientUnits="userSpaceOnUse"><stop offset="0" style="stop-color:#b7d1e1"/><stop offset=".159" style="stop-color:#a9c1cf"/><stop offset=".25" style="stop-color:#a0b6c2"/><stop offset=".5" style="stop-color:#a0b6c2"/><stop offset=".552" style="stop-color:#99adb9"/><stop offset=".637" style="stop-color:#8496a1"/><stop offset=".744" style="stop-color:#647079"/><stop offset=".75" style="stop-color:#626e77"/><stop offset="1" style="stop-color:#626e77"/></linearGradient><path fill="url(#a)" d="m42.726 52.464 16.852 24.101c-3.333-2.76-12.609-10.021-24.301-14.618-14.696-5.777-24.494-5.699-24.494-5.699 2.826-11.682 10.08-20.255 10.08-20.255s10.888 5.388 21.863 16.471m96.524-16.472s7.254 8.573 10.079 20.255c0 0-9.797-.078-24.492 5.699-11.693 4.597-20.968 11.858-24.302 14.618l16.851-24.101c10.975-11.082 21.864-16.471 21.864-16.471" style="fill:url(#a)"/><linearGradient id="b" x1="15.556" x2="71.829" y1="77.172" y2="77.172" gradientUnits="userSpaceOnUse"><stop offset="0" style="stop-color:#626e77"/><stop offset=".052" style="stop-color:#697780"/><stop offset=".137" style="stop-color:#7d8e98"/><stop offset=".244" style="stop-color:#9eb4c0"/><stop offset=".25" style="stop-color:#a0b6c2"/><stop offset=".253" style="stop-color:#a1b7c3"/><stop offset=".325" style="stop-color:#adc6d4"/><stop offset=".403" style="stop-color:#b5cede"/><stop offset=".5" style="stop-color:#b7d1e1"/><stop offset=".597" style="stop-color:#b5cede"/><stop offset=".675" style="stop-color:#adc6d4"/><stop offset=".747" style="stop-color:#a1b7c3"/><stop offset=".75" style="stop-color:#a0b6c2"/><stop offset=".808" style="stop-color:#8b9da8"/><stop offset=".883" style="stop-color:#74838d"/><stop offset=".949" style="stop-color:#67747d"/><stop offset="1" style="stop-color:#626e77"/></linearGradient><path fill="url(#b)" d="M52.144 72.821c-4.58-3.196-10.601-6.792-17.419-9.472a94 94 0 0 0-9.886-3.28c-7.968 9.089-9.283 19.761-9.283 19.761s3.517-.629 10.803-.629c29.204 0 45.47 15.074 45.47 15.074s-6.784-12.451-19.685-21.454" style="fill:url(#b)"/><linearGradient id="c" x1="88.284" x2="144.557" y1="77.172" y2="77.172" gradientUnits="userSpaceOnUse"><stop offset="0" style="stop-color:#626e77"/><stop offset=".052" style="stop-color:#697780"/><stop offset=".137" style="stop-color:#7d8e98"/><stop offset=".244" style="stop-color:#9eb4c0"/><stop offset=".25" style="stop-color:#a0b6c2"/><stop offset=".253" style="stop-color:#a1b7c3"/><stop offset=".325" style="stop-color:#adc6d4"/><stop offset=".403" style="stop-color:#b5cede"/><stop offset=".5" style="stop-color:#b7d1e1"/><stop offset=".597" style="stop-color:#b5cede"/><stop offset=".675" style="stop-color:#adc6d4"/><stop offset=".747" style="stop-color:#a1b7c3"/><stop offset=".75" style="stop-color:#a0b6c2"/><stop offset=".808" style="stop-color:#8b9da8"/><stop offset=".883" style="stop-color:#74838d"/><stop offset=".949" style="stop-color:#67747d"/><stop offset="1" style="stop-color:#626e77"/></linearGradient><path fill="url(#c)" d="M88.284 94.275s16.267-15.074 45.471-15.074c7.285 0 10.802.629 10.802.629s-1.314-10.672-9.283-19.761a94 94 0 0 0-9.886 3.28c-6.819 2.68-12.84 6.275-17.419 9.472-12.904 9.003-19.685 21.454-19.685 21.454" style="fill:url(#c)"/><linearGradient id="d" x1="36.255" x2="123.857" y1="27.024" y2="27.024" gradientUnits="userSpaceOnUse"><stop offset="0" style="stop-color:#626e77"/><stop offset=".079" style="stop-color:#65727b"/><stop offset=".161" style="stop-color:#707e88"/><stop offset=".244" style="stop-color:#81929c"/><stop offset=".328" style="stop-color:#99adb9"/><stop offset=".35" style="stop-color:#a0b6c2"/><stop offset=".378" style="stop-color:#a7becb"/><stop offset=".447" style="stop-color:#b3ccdb"/><stop offset=".5" style="stop-color:#b7d1e1"/><stop offset=".553" style="stop-color:#b3ccdb"/><stop offset=".622" style="stop-color:#a7becb"/><stop offset=".65" style="stop-color:#a0b6c2"/><stop offset=".731" style="stop-color:#8b9da8"/><stop offset=".836" style="stop-color:#74838d"/><stop offset=".929" style="stop-color:#67747d"/><stop offset="1" style="stop-color:#626e77"/></linearGradient><path fill="url(#d)" d="M66.435 9.521a56.3 56.3 0 0 1 13.621-1.664c4.712 0 9.277.581 13.62 1.664-2.184 5.067-5.01 14.531-2.266 25.611l-11.354-7.573-11.354 7.573c2.743-11.08-.083-20.544-2.267-25.611m-1.829.492c-11.751 3.363-21.739 10.458-28.351 19.799 3.378 2.541 9.521 7.801 15.866 16.379l14.183-9.459c3.614-11.68.516-21.708-1.698-26.719m29.202 26.718 14.184 9.459c6.345-8.579 12.488-13.839 15.866-16.379-6.612-9.341-16.6-16.436-28.352-19.799-2.214 5.01-5.313 15.04-1.698 26.719" style="fill:url(#d)"/><linearGradient id="e" x1="45.639" x2="114.474" y1="59.895" y2="59.895" gradientUnits="userSpaceOnUse"><stop offset="0" style="stop-color:#b7d1e1"/><stop offset=".049" style="stop-color:#b0c9d8"/><stop offset=".128" style="stop-color:#9cb2c0"/><stop offset=".227" style="stop-color:#7d8d98"/><stop offset=".3" style="stop-color:#626e77"/><stop offset=".318" style="stop-color:#626e77"/><stop offset=".5" style="stop-color:#626e77"/><stop offset=".682" style="stop-color:#626e77"/><stop offset=".7" style="stop-color:#626e77"/><stop offset=".735" style="stop-color:#72808a"/><stop offset=".814" style="stop-color:#90a3b0"/><stop offset=".886" style="stop-color:#a5bccb"/><stop offset=".951" style="stop-color:#b2ccdb"/><stop offset="1" style="stop-color:#b7d1e1"/></linearGradient><path fill="url(#e)" d="M96.668 78.43V41.358l17.806 11.874zM45.639 53.232 63.444 78.43V41.358Z" style="fill:url(#e)"/><path fill="#b7d1e1" d="M95.16 80.563V40.351L80.056 30.278 64.952 40.351v40.212l15.104 21.375z"/></g></svg>