<svg xmlns="http://www.w3.org/2000/svg" xmlns:xlink="http://www.w3.org/1999/xlink" width="600" height="600"><linearGradient id="a" x1="0" x2="1" y1="0" y2="0" gradientTransform="scale(36.9292 -36.9292)rotate(-30 -16.295 -12.527)" gradientUnits="userSpaceOnUse" spreadMethod="pad"><stop offset="0" style="stop-color:#8b723c"/><stop offset=".3" style="stop-color:#d2bb7b"/><stop offset=".5" style="stop-color:#ebd491"/><stop offset=".7" style="stop-color:#d2bb7b"/><stop offset="1" style="stop-color:#8b723c"/></linearGradient><linearGradient xlink:href="#a" id="b" x1="0" x2="1" y1="0" y2="0" gradientTransform="rotate(-30 848.08 106.91)scale(553.93803)" gradientUnits="userSpaceOnUse" spreadMethod="pad"/><path d="M300 600C134.535 600 0 465.48 0 300 0 134.595 134.535 0 300 0c165.405 0 300 134.595 300 300 0 165.48-134.595 300-300 300"/><path d="M23.085 300c0 152.985 123.99 276.915 276.915 276.915S576.915 452.985 576.915 300c0-152.925-123.99-276.915-276.915-276.915S23.085 147.075 23.085 300m41.07 0C64.155 169.755 169.74 64.17 300 64.17c130.245 0 235.845 105.585 235.845 235.83 0 130.26-105.6 235.845-235.845 235.845C169.74 535.845 64.155 430.26 64.155 300m60.585-93.33v201.615L299.355 509.07l45.24-26.085-78.705-45.465v-98.49l85.32-49.215 85.305 49.215v90.81l37.455-21.555V206.67L299.355 105.885Z" style="fill:url(#b)"/></svg>