<?xml version="1.0" encoding="UTF-8" standalone="no"?>
<svg
   version="1.1"
   id="Layer_1"
   x="0px"
   y="0px"
   width="313.785"
   height="313.78299"
   xmlns="http://www.w3.org/2000/svg"
   xmlns:svg="http://www.w3.org/2000/svg">
  <defs
     id="defs4" />
  <g
     id="g4"
     transform="translate(-0.107,-0.108)">
    <path
       style="fill:#808080"
       d="m 313.817,156.925 c -0.02,-1.829 -0.751,-3.579 -2.047,-4.875 L 161.949,2.23 C 160.601,0.882 158.841,0.202 157.074,0.183 L 157,0.108 156.926,0.182 c -1.767,0.019 -3.528,0.699 -4.876,2.047 L 2.229,152.05 c -1.295,1.296 -2.026,3.046 -2.046,4.876 L 0.107,157 l 0.075,0.074 c 0.02,1.83 0.751,3.58 2.046,4.876 L 152.05,311.771 c 1.348,1.347 3.109,2.027 4.876,2.046 l 0.074,0.074 0.074,-0.074 c 1.767,-0.019 3.527,-0.699 4.875,-2.046 L 311.77,161.95 c 1.296,-1.296 2.027,-3.046 2.047,-4.875 L 313.892,157 Z"
       id="path1" />
    <polygon
       points="82.089,89.161 14.249,157 82.089,224.84 110.33,196.598 70.732,157 110.33,117.402 "
       id="polygon1" />
    <polygon
       points="224.839,82.089 157,14.25 89.16,82.089 117.401,110.331 157,70.733 196.598,110.331 "
       id="polygon2" />
    <polygon
       points="299.75,157 231.91,89.161 203.668,117.402 243.266,157 203.668,196.598 231.91,224.839 "
       id="polygon3" />
    <polygon
       points="157,299.75 224.839,231.911 196.598,203.669 157,243.267 117.401,203.669 89.16,231.911 "
       id="polygon4" />
    <rect
       x="106"
       y="106"
       transform="matrix(0.7071,-0.7071,0.7071,0.7071,-65.0317,157.0001)"
       width="102"
       height="102"
       id="rect4" />
  </g>
</svg>
