<svg xmlns="http://www.w3.org/2000/svg" xml:space="preserve" width="997.566" height="996.507" style="clip-rule:evenodd;fill-rule:evenodd;stroke-linejoin:round;stroke-miterlimit:2" viewBox="0 0 997.566 996.507"><ellipse cx="498.783" cy="498.253" rx="498.783" ry="498.253" style="stroke-width:.97928"/><ellipse cx="497.096" cy="499.147" rx="464.197" ry="464.548" style="fill:url(#a);stroke-width:.912205"/><path d="M239.094 783.28c-.076-.158.172-.882 6.078-3.785 7.052-3.466 19.962-2.45 19.962-2.45l8.87-7.722c-.96-12.084 17.668-18.161 17.668-18.321 0 .16 16.55-.9 16.55-.9s2.31-.087 9.354-9.142 13.164-11.235 13.164-11.235 7.21-.923 3.605-3.69-.922-12.157-.922-12.157c5.785-7.043 11.57-7.798 11.57-7.798s26.244-5.534 53.829 7.379 31.358 30.1 31.358 30.1l-17.524-9.642s-3.69-3.102-17.02-6.372c-13.332-3.27-19.788-1.258-25.405 0-5.618 1.257-5.534 3.773-5.534 3.773l1.76 1.928c2.768 2.515 0 5.45 0 5.45l-7.21 5.953s-1.258 3.27.168 4.528 3.857-.42 3.857-.42l10.816-4.946 6.54-4.444s9.558-4.528 18.613-2.18 18.485 13.53 18.485 13.53c13.605 16.116 14.53 21.135 14.53 21.135 7.397 27.872-3.701 33.919-3.701 33.919-5.97-34.579-28.782-43.606-28.782-43.606-10.453 3.038-15.546-1.251-15.546-1.251-4.467 9.113-17.868 8.319-17.868 8.319-17.6 27.706-40.83 5.897-40.83 5.897l-1.286 5.88c-2.738 5.154-9.412 7.032-9.412 7.032l-9.02.644s-8.213 7.087-11.112 8.375-6.442 0-6.442 0l-3.711-1.343c-8.677 8.22-16.4 10.197-16.4 10.197-2.283 1.594-7.286.025-7.286.025-7.224 28.453-31.492 11.599-31.492 11.599-26.696 15.456-62.935 6.346-62.935 6.346C20.46 741.921 31.603 506.654 32.899 508.983c1.295 2.329 8.519 6.82 9.517 13.973s6.32.666 6.32.666l8.152-15.471v-19.629c-.332-1.33 2.662-9.149 8.817-6.321s11.31 13.641 12.809 16.171 6.154 10.445 10.313 15.102c4.159 4.658 3.66-.998 3.66-6.82s.332-5.822-3.161-14.472 2.329-12.809 6.488-11.811c4.158.998 15.304 15.637 16.135 18.777.83 3.14 5.324 3.514 6.155 0 .83-3.514-3.493-9.96-3.493-9.96s-7.153-14.473-9.315-18.299 4.657-9.315 8.317-7.319 10.48 7.985 12.476 12.476 4.325 2.163 4.325 2.163 5.822-5.656 9.315-12.643c3.494-6.986.832-14.472.832-14.472s-2.162-4.491-7.32-17.649c-4.673-11.924 14.806-10.978 14.806-10.978 4.99-.5 11.977 10.646 11.977 10.646 1.33 3.493 8.484 2.828 7.153-4.824s-5.822-13.641-5.822-13.641c-5.157-10.147-8.318-16.302-8.318-16.302-3.493-5.323 3.826-9.315 13.807-6.155 9.98 3.161 16.252 12.29 16.252 12.29s4.454 2.818 7.09 2.545-3.636-10.181-3.636-10.181-7.908-11.907-10.725-21.613c-2.818-9.707 4.363-8.363 8.089-7.727 3.727.637 11.272 8.726 11.272 8.726 7.726 2.364 2.908-4.181 2.908-4.181s-8-4.726-6.817-9.089-6.726-12.181-6.726-12.181c-14.635-13.634-10.09-20.475-10.09-20.475 2.454-8.635 10.18-6.544 18.36-4.181s17.544 9.181 19.18 9.908c1.637.727 6.999 1.272 6.999 1.272.273.637 9.636.728 6.363-7.271s-6.181-2.182-7.726-18.089-6-16.179-13.362-21.542-8.271-9.908-4.454-14.18 12.18-4.381 21.997-2.927 24.906 13.725 24.906 13.725h12.18c5.18 4.273 15.089 2.818 15.089 2.818 7.454-1.181 6.18-8.817 6.18-8.817-13.088-5.363-12.405-8.616-12.405-8.616v-9.96l-13.176-8.235c-21.803-5.882-11.45-16-11.45-16l17.41-10.587c14.902-4.157 26.125 9.423 26.125 9.423s10.663 11.878 25.177 15.629 7.743-4.063 7.743-4.063l-6.702-6.702v-15.694s-.486-.486-10.972-9.653-8.195-15.139-2.361-21.806 16.806 6.389 16.806 6.389l5.069 2.014c10.556.833 23.195 5.625 25.556 9.514 2.36 3.889 8.165 1.915 9.863.218 1.697-1.697 7.542-2.263 10.937-2.263s7.354-4.337 7.354-4.337c12.822-12.634 23.005-9.335 23.005-9.335h20.64c16.606-16.337 28.006-13.106 28.006-13.106s12.747 1.257 19.21-.269c6.462-1.526 9.155-4.309 9.155-4.309l12.657-11.489c13.195-12.029 23.518-1.975 23.518-1.975l20.107 19.838s15.439-.09 23.069 1.885c7.63 1.974 11.579 9.155 11.579 9.155 2.244 1.347 2.334 8.438 2.334 8.438 6.283 4.398 3.86 11.31 3.86 11.31-5.117 7.72-1.347 6.104-1.347 6.104 30.16-7.271 37.252 20.915 37.252 20.915l7.989 8.797c8.976 2.064 12.002 8.117 12.002 8.117l11.262 11.287c8.719-6.477 34.156 25.9 34.156 25.9l47.083 26.905 38.863 24.663 19.36 16.069c47.266 16.484 42.648 19.462 60.983 29.554s18.502 19.007 18.502 19.007c13.793 9.419 15.138 21.698 15.138 21.698 18.839 15.979 25.732 30.79 25.732 30.79 9.166 14.695 6.334 27.911 6.334 27.911-.105 0-11.93 25.113-28.147 47.61-16.22 22.496-28.147 3.348-28.671 3.348-.523 0 0-9.417 0-9.417L838 525.752c.628-7.952-2.197-4.499-2.197-4.499s-.42 4.081-7.953 4.709-6.906-7.743-6.906-7.743c1.256-8.267-1.674-5.965-1.674-5.965-6.487 22.393-15.591 9.104-15.591 9.104-3.034-8.58-4.5-5.651-4.5-5.651-5.545 7.22-14.543 3.139-13.602-2.511s-1.988-5.232-1.988-5.232c-4.813 1.151-10.15 5.651-10.15 5.651h-33.274c-21.346-9.836-30.45-10.673-30.45-10.673-7.323-4.5-26.995-7.115-26.995-7.115s-4.185-2.93-20.195-7.639-33.797-17.893-33.797-17.893c-24.276-3.976-25.027-8.894-25.027-8.894-13.165-27.1-37.67-12.765-37.67-12.765-31.877-3.041-27.31-9.104-41.435-8.999-13.462.1-31.914 14.858-31.914 14.858 15.067 6.488 26.263 19.881 26.263 19.881s10.673 11.719 12.766 14.335 3.348 11.406 3.348 11.406l8.267 22.496c2.825 14.022-11.615 9.522-11.615 9.522s-7.115-4.394-9.313-8.58c-2.197-4.185-3.662-.314-3.662-.314l-.857 2.761c-7.111 9.92-3.504 10.519-3.504 10.519 6.313 6.312 6.313 9.586 6.313 9.586l1.169 13.561 2.104 14.262c4.442-.468 9.586 17.536 17.068 27.122s18.938 16.6 18.938 16.6l11.69 11.457 12.359 12.576c8.544 11.856 32.432 32.432 38.709 36.965s24.237 13.95 34.176 16.914 31.386 12.031 31.386 12.031c31.909 22.668 0 29.642 0 29.642-12.206 4.708-29.642 4.185-29.642 4.185s-4.708 4.534-38.012.698-45.336-18.832-45.336-18.832c-2.441-4.533-19.877-18.483-19.877-18.483-14.647-8.892-25.458-23.191-25.458-23.191-11.16-17.262-43.592-34.873-59.982-40.801s-41.5-22.145-67.654-36.792c-26.155-14.646-44.638-35.222-45.86-39.232-1.22-4.011-15.343-55.449-18.481-46.033s-2.79 16.391-2.79 16.391c.174 9.59-4.534 10.113-4.534 10.113v8.021c-3.662 2.441-12.903 35.396-12.903 35.396 2.79-19.006 5.928-85.265 3.487-70.618-2.255 13.53-6.147 22.299-6.727 23.557.105-.744.222-4.441-.422-21.814-.872-23.539-4.533-9.939-4.533-9.939 1.395 5.754-6.103 60.331-6.103 60.331-3.14 10.462-13.601 39.93-13.601 39.93s7.672-102.179-4.882-61.853-39.381 89.571-39.381 89.571c5.379-14.217 12.168-53.667 12.168-53.667-.513-8.325-3.203-2.951-3.203-2.951-5.251 8.32-11.271 27.666-11.271 27.666v22.927l-1.793-6.532c-.384-4.099-4.611-2.736-4.611-2.736-17.932 11.739-38.297 68.909-38.297 68.909s-.128-9.606.897-18.572 8.453-28.562 12.936-40.602 16.523-29.331 16.523-29.331c1.665-2.05 1.024-8.838 1.024-8.838-7.813-11.784-11.271-21.006-11.271-21.006-1.537-8.069-3.202-4.355-3.202-4.355-5.508 22.286-7.557 52.386-7.557 52.386l-2.177 7.301c-14.602 7.556-29.075 65.194-29.075 65.194l.512-22.415.384-9.222.769-10.759s4.867-21.261 4.995-31.508-2.562-32.661-4.483-37.272-4.355-.897-4.355-.897 1.922 14.858 0 26.898-7.557 10.63-7.557 10.63c-27.922-1.024-23.695 33.046-23.695 33.046 9.478 6.148 21.774 35.095 21.774 35.095-17.163-13.961-24.464-12.552-24.464-12.552-4.611 3.074-2.946 36.503-2.946 36.503l4.996 12.937 6.148 1.537 15.37 14.601c1.409-9.478 8.453-18.7 8.453-18.7 18.316-25.488 22.159-.256 22.159-.256l2.56 2.177 3.972 1.537 4.227 1.025 3.074.769 4.354.896 3.459-.384c6.66-2.562 17.89-1.229 17.89-1.229 3.97-12.655 22.085-10.256 22.085-10.256 7.527-7.528 15.385-7.197 15.385-7.197-.083-5.211 13.73-11.586 13.73-11.586-11.993-17.954.993-31.514.993-31.514-7.858-1.406-10.505-14.558-7.444-24.483 3.06-9.926 12.903-10.174 12.903-10.174-.91-3.061-.33-6.039-.33-6.039 5.21-6.948 19.436-9.383 19.436-9.383 42.859-8.007 58.872 18.368 58.872 18.368-44.43-10.048-50.058 6.839-50.058 6.839-12.155.935-9.378 3.581-9.378 3.581 2.725 5.364-1.362 5.62-1.788 10.217s6.699 3.902 6.699 3.902c.749-8.232 13.347-13.548 13.347-13.548 57.126-13.055 72.494 32.968 72.494 32.968-27.871-23.076-54.964-16.713-54.964-16.713-9.895 10.976-14.634 12.223-14.634 12.223-2.08 2.328-3.91 2.744-3.91 2.744-4.24 14.053-6.983 14.468-6.983 14.468-2.578 3.576-9.397 1.913-9.397 1.913-1.496 1.33-1.496 4.074-1.496 4.074 4.49 2.246 2.66 20.373 2.66 20.373 2.495 8.731-6.236 11.514-6.236 11.514.25 20.079-21.702 13.637-21.702 13.637-3.493 4.158-14.386 1.309-14.386 1.309-10.643 16.276-26.692 3.326-26.692 3.326-7.483 11.309-24.613 6.735-24.613 6.735l-8.897 10.062-.25 21.619s-10.835 13.251 1.63-1.81c12.09-14.606 26.852-.828 27.734.019.014.031.04.04.04.04zM87.03 649.634c.24.331.367.526.367.526s-.132-.186-.367-.526c-1.194-1.647-5.205-6.641-10.468-7.487-6.32-1.015-1.241 12.415-1.241 12.415l1.693 3.611 39.16 39.162v-40.742c-3.16-14.446-8.237-8.69-8.237-8.69s-20.88-22.684-24.942-27.199c-4.063-4.514-6.207.79-6.207.79s-3.273 2.37-1.13 8.69c1.895 5.581 9.597 16.883 11.372 19.45M608.778 322.01l-.021 19.746s2.196 1.136 2.797 3.941c.6 2.805 3.906 4.006 3.906 4.006s2.204.501 2.604 4.206c1.097 10.141-8.313 14.423-8.313 14.423s-7.311 3.506-9.114 12.921 10.817 15.224 10.817 15.224c9.915 1.302 8.413 13.22 8.413 13.22 15.725 4.608 17.127 16.226 17.127 16.226 2.905.801 9.715 7.011 18.329 7.412s22.836-13.622 22.836-13.622 11.118-8.914 15.725-16.326c4.607-7.411 6.91-14.022 3.806-25.84-3.105-11.819-27.143-30.048-27.143-30.048l-15.694-15.366c-5.934-11.519-7.33-11.17-10.472-18.5s-14.66-16.755-14.66-16.755-10.821-3.839-15.358-.349-9.076 4.538-9.076 13.613c0 9.076 3.49 11.868 3.49 11.868M111.186 591.774l.823 33.593s1.318 2.47.329 5.435c0 0 3.129 3.622 5.27 3.458 2.14-.165 5.27-3.458 5.27-3.458s4.117-9.058 5.599-15.809c1.482-6.752-1.153-18.773-1.153-18.773s-1.318-7.904-8.893-9.222-7.245 3.788-7.245 4.776m428.592-286.635c3.683 8.594-12.28 14.242-12.28 14.242-1.226-.982-25.537 14.734-20.135 29.222s16.453 18.418 16.453 18.418 11.05 9.086 21.364 4.174c10.314-4.911 13.997-13.506 13.997-13.506 3.684-11.05 8.84-15.716 8.84-15.716l11.296-16.207c6.63-15.716 2.7-19.891 1.228-32.169s-8.595-27.012-12.524-36.343c-3.93-9.331-11.541-18.663-27.012-13.261s-21.118 21.61-16.944 34.134c4.175 12.524 15.717 27.012 15.717 27.012M236.865 549.448s0 8.039-.915 12.417a1619 1619 0 0 1-2.222 10.391l.13 11.96s.13 5.104 3.922 6.862c3.79 1.757 8.365-10.333 10.456-15.235s.066-13.658.066-13.658-.915-3.529 1.699-5.294c0 0 3.855-9.214-4.575-12.155s-8.561 4.712-8.561 4.712m-150.217 53.03s7.575 8.069 12.186 15.479c0 0 3.623 1.976 4.776 0 0 0 2.14-1.153 2.635-4.94s1.646-13.174-8.234-18.279c0 0-12.351-3.788-11.363 7.74M689.47 436.854s15.767 8.934 18.657 9.065 31.928.132 33.504.263c1.577.132 16.555-2.365 11.957-16.029-4.6-13.665-21.548-25.096-32.98-23.125-11.43 1.971-21.284 3.285-32.452 12.614-11.168 9.328 1.314 17.212 1.314 17.212"/><path d="M545.358 541.422s-6.512 11.701-13.428 13.428c0 0-6.567 2.497 1.127 7.323 0 0 1.259 2.411 9.652-10.389 0 0 1.24-2.328 2.649-10.362m-13.07-5.935s-10.492 10.142-8.394 12.8 2.238 3.007 2.238 3.007.98 1.679 3.847-4.686c0 0 .07-4.686 2.309-11.121m22.689 14.073s-3.477 10.177-11.195 13.994c-7.718 3.816-8.226 6.445-8.226 6.445s-2.206 3.138.593 4.834c2.799 1.697 5.767-.678 5.767-.678s2.29-1.357 8.227-8.736c5.937-7.378 4.834-15.859 4.834-15.859m12.07 15.383s-6.176 12.131-16.321 14.557-9.042 9.924-9.042 9.924.33 5.735 8.932-.22 16.43-24.261 16.43-24.261m17.424 7.499s-11.862 20.708-28.23 28.892c-.662.331-7.72 4.411 5.734 8.381s22.496-37.273 22.496-37.273m16.43 9.484s-15.678 25.379-28.34 35.288c-2.536 1.985 2.647 7.939 4.853 7.278s12.494-15.403 23.488-42.566m11.876 22.791s-5.198 10.916-25.584 28.672c-3.418 2.977 10.256 11.358 14.446 5.183s9.925-25.805 11.138-33.855m22.386 7.389S610.737 643.31 600.9 650.04c0 0 3.495 9.704 13.64 6.948 10.146-2.757 20.622-44.882 20.622-44.882m10.696 6.175s-19.298 38.713-27.827 44c-3.38 2.095 6.103 7.168 6.103 7.168s7.394-2.025 11.028-14.716c3.634-12.692 7.093-17.141 10.696-36.452m26.557-21.471s-4.59 21.711-9.991 27.733c-5.401 6.021-12.827 16.244-12.827 16.244s-6.886 9.49-9.046 14.351c-2.16 4.86-.945 8.506-.945 8.506s3.645 4.32 9.316.27c5.67-4.05 8.1-7.696 8.1-7.696l5.132-8.641 3.645-7.696s3.24-.936 6.616-43.071m.629 57.559s-1.414 4.798-13.358 11.278c-11.943 6.48-11 4.594-11 4.594s-11.472 5.186-11 8.486 4.243 4.243 4.243 4.243l8.8 1.257s1.894.472 5.11-3.929c3.219-4.4 12.333-9.743 17.205-25.929m31.43-26.715s-11.001 26.715-20.587 33.001c-4.055 2.659-5.713 7.233-8.91 10.774-4.362 4.829-9.694 8.682-10.42 11.855-1.256 5.5 2.93 7.344 3.744 7.994s4.429 1.435 10.086-2.808 8.643-10.843 8.643-10.843 11.315-13.81 17.444-49.973m5.216 26.049s-10.935 17.947-12.837 20.562c-1.901 2.614-12.098 13.426-12.454 17.529-.357 4.102 2.352 6.717 2.352 6.717s3.446 1.783 7.369-4.16 12.36-21.75 15.57-40.648m12.955 15.602s-8.082 11.497-14.144 19.579-8.44 13.312-8.44 13.312-3.445 11.885 7.608 7.25c0 0 6.418-2.566 14.976-40.141m-112.432-191.32s-.53-7.854 4.317-7.37c2.105.211 1.263 2.843 1.263 2.843s-2.842 3.895-5.58 4.527m5.746 10.423s4.047-6.228 4.677-12.844c.21-2.211 5.159-3.369 5.053 1.158s-6.931 9.685-9.73 11.686m4.866 10.633s7.004-9.381 9.497-18.029c.842-2.922 6.948-2.606 4.948 3.29-2.001 5.895-11.834 14.528-14.445 14.739m9.497 10.001s4.722-2.699 12.107-20.634c1.474-3.58 5.264-1.474 5.264 2.948s-8.107 15.791-17.371 17.686m5.348 20.53s11.4-15.753 17.392-31.754c1.474-3.936 7.79-8.748 8 .554.212 9.302-15.306 24.252-25.392 31.2m10.759 22.003s19.594-30.249 23.162-50.428c.947-5.359 10.633-2.622 10.633 2.116s-12.423 35.691-33.795 48.312m16.222.735s14.282-15.183 25.68-41.844c1.415-3.306 7.356-5.796 13.666.825 2.238 2.348-.707 9.298-3.416 11.89s-11.427 14.553-35.93 29.129m23.207 6.801s14.104-14.793 25.917-43.587c1.885-4.594 14.018-3.77 13.312 2.709s-18.613 28.288-39.23 40.878m25.682 2.341s9.18-22.634 21.323-41.938c4.123-6.554 12.84.161 12.722 2.281-.117 2.121 3.335.113-34.045 39.657m14.3 9.87s2.44-2.266 8.366-15.338S747.8 529.72 747.8 529.72s5.606-9.146 4.53 4.826c-.696 9.063-6.707 16.209-6.707 16.209l-7.932 8.356s-9.064 11.34-11.852 12.211m15.892 1.529s10.413-10.725 12.62-23.8c.556-3.294.242-19.806 7.928-24.512s8.94.471 9.882 5.804c.94 5.333-13.02 40.312-30.43 42.508m17.568-3.922s3.339-8.894 6.587-12.339c3.45-3.66 6.588-10.719 8.94-18.718 2.354-7.999 7.06-10.196 9.569-8.471 2.51 1.726.157 8.314-1.568 11.608s-5.804 11.293-8.784 13.96-15.372 14.431-14.744 13.96m4.246 8.816s10.743-8.356 18.17-23.476c7.429-15.12 9.948-19.894 9.948-19.894s5.836-12.865 14.987-2.388c0 0 6.366 7.295-5.57 20.16s-12.468 11.274-12.468 11.274-22.945 14.589-25.067 14.324m35.173-9.863s10.527-16.062 11.72-23.55c1.195-7.489 9.768-10.744 9.768-10.744s7.706-2.279 5.1 8.031c-2.604 10.309-19.642 21.813-26.588 26.263m14.797-1.966s9.782-9.863 11.192-12.809c1.41-2.947 5.7-12.682 11.887-16.264 0 0 8.277-1.346 1.922 8.953-3.147 5.101-7.132 7.977-7.132 7.977s-15.916 14.314-17.87 12.143m-7.204 16.553s13.722-7.567 28.049-23.912c0 0 9.576-13.883 12.684-9.192 3.107 4.692 5.114 6.946 2.924 11.638-.853 1.827-9.566 7.981-9.566 7.981s-22.73 12.713-34.091 13.485"/><defs><linearGradient id="a" x1="0" x2="1" y1="0" y2="0" gradientTransform="matrix(712.00856 800.12201 -800.73345 712.54733 166.059 101.055)" gradientUnits="userSpaceOnUse"><stop offset="0" style="stop-color:#bb2c26;stop-opacity:1"/><stop offset=".04" style="stop-color:#bf3526;stop-opacity:1"/><stop offset=".11" style="stop-color:#cb4d25;stop-opacity:1"/><stop offset=".19" style="stop-color:#de7523;stop-opacity:1"/><stop offset=".21" style="stop-color:#e17a23;stop-opacity:1"/><stop offset=".29" style="stop-color:#ee8b1f;stop-opacity:1"/><stop offset=".38" style="stop-color:#f5951e;stop-opacity:1"/><stop offset=".5" style="stop-color:#ff9915;stop-opacity:1"/><stop offset=".62" style="stop-color:#f5951e;stop-opacity:1"/><stop offset=".71" style="stop-color:#ee8b1f;stop-opacity:1"/><stop offset=".79" style="stop-color:#e17a23;stop-opacity:1"/><stop offset=".8" style="stop-color:#e07823;stop-opacity:1"/><stop offset=".85" style="stop-color:#d35d24;stop-opacity:1"/><stop offset=".91" style="stop-color:#c64225;stop-opacity:1"/><stop offset=".96" style="stop-color:#be3226;stop-opacity:1"/><stop offset="1" style="stop-color:#bb2c26;stop-opacity:1"/></linearGradient></defs></svg>