<svg xmlns="http://www.w3.org/2000/svg" id="Layer_2" width="1080" height="1080" data-name="Layer 2" viewBox="0 0 1080 1080"><defs id="defs9"><linearGradient id="linear-gradient" x1="-420" x2="-419" y1="1079.98" y2="1079.98" gradientTransform="rotate(228.34 -37449.967 734148.975)scale(-1156.74 1157.62)" gradientUnits="userSpaceOnUse"><stop id="stop1" offset="0" stop-color="#612c75"/><stop id="stop2" offset=".07" stop-color="#713e82"/><stop id="stop3" offset=".26" stop-color="#9b6fa5"/><stop id="stop4" offset=".41" stop-color="#b58dba"/><stop id="stop5" offset=".49" stop-color="#bf99c3"/><stop id="stop6" offset=".57" stop-color="#b790bc"/><stop id="stop7" offset=".69" stop-color="#a277ab"/><stop id="stop8" offset=".85" stop-color="#80508f"/><stop id="stop9" offset=".98" stop-color="#612c75"/></linearGradient><style id="style1">.cls-2{stroke-width:0;fill-rule:evenodd}</style></defs><g id="Layer_1-2" data-name="Layer 1"><path id="M" d="M0 0h1080v1080H0Z" style="fill:none;stroke-width:0"/><g id="M1"><g id="_-" data-name="-"><ellipse id="ellipse9" cx="540.02" cy="539.87" rx="538.68" ry="538.12" style="stroke-width:0"/></g><ellipse id="ellipse10" cx="538.2" cy="540.84" rx="501.33" ry="501.71" style="fill:url(#linear-gradient);stroke-width:0"/><path id="path10" d="M259.56 847.7c-.08-.17.19-.95 6.56-4.09 7.62-3.74 21.56-2.65 21.56-2.65l9.58-8.34c-1.04-13.05 19.08-19.61 19.08-19.79 0 .17 17.87-.97 17.87-.97s2.5-.09 10.1-9.87 14.22-12.13 14.22-12.13 7.79-1 3.89-3.99c-3.89-2.99-1-13.13-1-13.13 6.25-7.61 12.5-8.42 12.5-8.42s28.34-5.98 58.14 7.97c29.79 13.95 33.87 32.51 33.87 32.51L447 794.39s-3.98-3.35-18.38-6.88-21.37-1.36-27.44 0-5.98 4.07-5.98 4.07l1.9 2.08c2.99 2.72 0 5.89 0 5.89l-7.79 6.43s-1.36 3.53.18 4.89 4.17-.45 4.17-.45l11.68-5.34 7.06-4.8s10.32-4.89 20.1-2.35c9.78 2.53 19.96 14.61 19.96 14.61 14.69 17.41 15.69 22.83 15.69 22.83 7.99 30.1-4 36.63-4 36.63-6.45-37.35-31.08-47.09-31.08-47.09-11.29 3.28-16.79-1.35-16.79-1.35-4.82 9.84-19.3 8.98-19.3 8.98-19.01 29.92-44.1 6.37-44.1 6.37l-1.39 6.35c-2.96 5.57-10.16 7.59-10.16 7.59l-9.74.7s-8.87 7.65-12 9.05c-3.13 1.39-6.96 0-6.96 0l-4.01-1.45c-9.37 8.88-17.71 11.01-17.71 11.01-2.47 1.72-7.87.03-7.87.03-7.8 30.73-34.01 12.53-34.01 12.53-28.83 16.69-67.97 6.85-67.97 6.85C23.44 803.03 35.47 548.94 36.87 551.46s9.2 7.37 10.28 15.09c1.08 7.73 6.83.72 6.83.72l8.8-16.71v-21.2c-.36-1.44 2.87-9.88 9.52-6.83s12.22 14.73 13.83 17.46c1.62 2.73 6.65 11.28 11.14 16.31s3.95-1.08 3.95-7.37.36-6.29-3.41-15.63 2.52-13.83 7.01-12.76c4.49 1.08 16.53 16.89 17.43 20.28s5.75 3.8 6.65 0-3.77-10.76-3.77-10.76-7.73-15.63-10.06-19.76c-2.34-4.13 5.03-10.06 8.98-7.9s11.32 8.62 13.47 13.47c2.16 4.85 4.67 2.34 4.67 2.34s6.29-6.11 10.06-13.65.9-15.63.9-15.63-2.33-4.85-7.9-19.06c-5.05-12.88 15.99-11.86 15.99-11.86 5.39-.54 12.94 11.5 12.94 11.5 1.44 3.77 9.16 3.05 7.73-5.21-1.44-8.26-6.29-14.73-6.29-14.73-5.57-10.96-8.98-17.61-8.98-17.61-3.77-5.75 4.13-10.06 14.91-6.65s17.55 13.27 17.55 13.27 4.81 3.04 7.66 2.75-3.93-11-3.93-11-8.54-12.86-11.58-23.34 4.71-9.03 8.74-8.35c4.03.69 12.17 9.42 12.17 9.42 8.34 2.55 3.14-4.52 3.14-4.52s-8.64-5.1-7.36-9.82c1.28-4.71-7.26-13.16-7.26-13.16-15.81-14.72-10.9-22.11-10.9-22.11 2.65-9.33 11-7.07 19.83-4.52 8.84 2.55 18.95 9.92 20.71 10.7 1.77.79 7.56 1.37 7.56 1.37.29.69 10.41.79 6.87-7.85-3.53-8.64-6.68-2.36-8.34-19.54-1.67-17.18-6.48-17.47-14.43-23.27-7.95-5.79-8.93-10.7-4.81-15.31s13.15-4.73 23.76-3.16 26.9 14.82 26.9 14.82h13.15c5.6 4.61 16.3 3.04 16.3 3.04 8.05-1.28 6.68-9.52 6.68-9.52-14.14-5.79-13.4-9.31-13.4-9.31v-10.76l-14.23-8.89c-23.55-6.35-12.37-17.28-12.37-17.28l18.8-11.43c16.09-4.49 28.21 10.18 28.21 10.18s11.52 12.83 27.19 16.88c15.68 4.05 8.36-4.39 8.36-4.39l-7.24-7.24v-16.95s-.52-.52-11.85-10.43c-11.32-9.9-8.85-16.35-2.55-23.55s18.15 6.9 18.15 6.9l5.47 2.18c11.4.9 25.05 6.08 27.6 10.28s8.82 2.07 10.65.24 8.15-2.44 11.81-2.44 7.94-4.68 7.94-4.68c13.85-13.64 24.85-10.08 24.85-10.08h22.29c17.93-17.64 30.25-14.15 30.25-14.15s13.77 1.36 20.75-.29 9.89-4.65 9.89-4.65l13.67-12.41c14.25-12.99 25.4-2.13 25.4-2.13l21.72 21.43s16.67-.1 24.91 2.04c8.24 2.13 12.51 9.89 12.51 9.89 2.42 1.45 2.52 9.11 2.52 9.11 6.79 4.75 4.17 12.21 4.17 12.21-5.53 8.34-1.45 6.59-1.45 6.59 32.57-7.85 40.23 22.59 40.23 22.59l8.63 9.5c9.69 2.23 12.96 8.77 12.96 8.77l12.16 12.19c9.42-7 36.89 27.97 36.89 27.97l50.85 29.06 41.97 26.64 20.91 17.35c51.05 17.8 46.06 21.02 65.86 31.92s19.98 20.53 19.98 20.53c14.9 10.17 16.35 23.43 16.35 23.43 20.35 17.26 27.79 33.25 27.79 33.25 9.9 15.87 6.84 30.14 6.84 30.14-.11 0-12.88 27.12-30.4 51.42s-30.4 3.62-30.96 3.62 0-10.17 0-10.17l-11.64-10.74c.68-8.59-2.37-4.86-2.37-4.86s-.45 4.41-8.59 5.09-7.46-8.36-7.46-8.36c1.36-8.93-1.81-6.44-1.81-6.44-7.01 24.18-16.84 9.83-16.84 9.83-3.28-9.27-4.86-6.1-4.86-6.1-5.99 7.8-15.71 3.39-14.69-2.71s-2.15-5.65-2.15-5.65c-5.2 1.24-10.96 6.1-10.96 6.1h-35.94c-23.05-10.62-32.88-11.53-32.88-11.53-7.91-4.86-29.16-7.68-29.16-7.68s-4.52-3.16-21.81-8.25-36.5-19.32-36.5-19.32c-26.22-4.29-27.03-9.61-27.03-9.61-14.22-29.27-40.68-13.79-40.68-13.79-34.43-3.28-29.49-9.83-44.75-9.72-14.54.11-34.47 16.05-34.47 16.05 16.27 7.01 28.36 21.47 28.36 21.47s11.53 12.66 13.79 15.48 3.62 12.32 3.62 12.32l8.93 24.3c3.05 15.14-12.54 10.28-12.54 10.28s-7.68-4.75-10.06-9.27c-2.37-4.52-3.95-.34-3.95-.34l-.93 2.98c-7.68 10.71-3.78 11.36-3.78 11.36 6.82 6.82 6.82 10.35 6.82 10.35l1.26 14.65 2.27 15.4c4.8-.51 10.35 18.94 18.43 29.29s20.45 17.93 20.45 17.93l12.63 12.37 13.35 13.58c9.23 12.8 35.03 35.03 41.81 39.92 6.78 4.9 26.18 15.07 36.91 18.27s33.9 12.99 33.9 12.99c34.46 24.48 0 32.01 0 32.01-13.18 5.08-32.01 4.52-32.01 4.52s-5.08 4.9-41.05.75-48.96-20.34-48.96-20.34c-2.64-4.9-21.47-19.96-21.47-19.96-15.82-9.6-27.49-25.05-27.49-25.05-12.05-18.64-47.08-37.66-64.78-44.07-17.7-6.4-44.82-23.92-73.07-39.74s-48.21-38.04-49.53-42.37-16.57-59.88-19.96-49.72c-3.39 10.17-3.01 17.7-3.01 17.7.19 10.36-4.9 10.92-4.9 10.92v8.66c-3.95 2.64-13.94 38.23-13.94 38.23 3.01-20.53 6.4-92.09 3.77-76.27-2.44 14.61-6.64 24.08-7.27 25.44.11-.8.24-4.8-.46-23.56-.94-25.42-4.9-10.73-4.9-10.73 1.51 6.21-6.59 65.16-6.59 65.16-3.39 11.3-14.69 43.12-14.69 43.12s8.29-110.35-5.27-66.8-42.53 96.74-42.53 96.74c5.81-15.35 13.14-57.96 13.14-57.96-.55-8.99-3.46-3.19-3.46-3.19-5.67 8.99-12.17 29.88-12.17 29.88v24.76l-1.94-7.05c-.41-4.43-4.98-2.95-4.98-2.95-19.37 12.68-41.36 74.42-41.36 74.42s-.14-10.37.97-20.06c1.11-9.68 9.13-30.85 13.97-43.85s17.84-31.68 17.84-31.68c1.8-2.21 1.11-9.55 1.11-9.55-8.44-12.73-12.17-22.69-12.17-22.69-1.66-8.71-3.46-4.7-3.46-4.7-5.95 24.07-8.16 56.58-8.16 56.58l-2.35 7.89c-15.77 8.16-31.4 70.41-31.4 70.41l.55-24.21.41-9.96.83-11.62s5.26-22.96 5.39-34.03c.14-11.07-2.77-35.27-4.84-40.25s-4.7-.97-4.7-.97 2.08 16.05 0 29.05c-2.07 13-8.16 11.48-8.16 11.48-30.16-1.11-25.59 35.69-25.59 35.69 10.24 6.64 23.52 37.9 23.52 37.9-18.54-15.08-26.42-13.56-26.42-13.56-4.98 3.32-3.18 39.42-3.18 39.42l5.4 13.97 6.64 1.66 16.6 15.77c1.52-10.24 9.13-20.2 9.13-20.2 19.78-27.53 23.93-.28 23.93-.28l2.77 2.35 4.29 1.66 4.57 1.11 3.32.83 4.7.97 3.74-.41c7.19-2.77 19.32-1.33 19.32-1.33 4.29-13.67 23.85-11.08 23.85-11.08 8.13-8.13 16.62-7.77 16.62-7.77-.09-5.63 14.83-12.51 14.83-12.51-12.95-19.39 1.07-34.04 1.07-34.04-8.49-1.52-11.35-15.72-8.04-26.44 3.3-10.72 13.94-10.99 13.94-10.99-.98-3.31-.36-6.52-.36-6.52 5.63-7.5 20.99-10.13 20.99-10.13 46.29-8.65 63.58 19.84 63.58 19.84-47.98-10.85-54.06 7.39-54.06 7.39-13.13 1.01-10.13 3.87-10.13 3.87 2.94 5.79-1.47 6.07-1.93 11.03-.46 4.97 7.23 4.21 7.23 4.21.81-8.89 14.41-14.63 14.41-14.63 61.7-14.1 78.29 35.61 78.29 35.61-30.1-24.92-59.36-18.05-59.36-18.05-10.69 11.85-15.8 13.2-15.8 13.2-2.25 2.51-4.22 2.96-4.22 2.96-4.58 15.18-7.54 15.63-7.54 15.63-2.78 3.86-10.15 2.07-10.15 2.07-1.62 1.44-1.62 4.4-1.62 4.4 4.85 2.43 2.87 22 2.87 22 2.69 9.43-6.74 12.44-6.74 12.44.27 21.69-23.44 14.73-23.44 14.73-3.77 4.49-15.54 1.41-15.54 1.41-11.49 17.58-28.83 3.59-28.83 3.59-8.08 12.21-26.58 7.27-26.58 7.27l-9.61 10.87-.27 23.35s-11.7 14.31 1.76-1.95c13.06-15.77 29-.89 29.95.02.02.03.04.04.04.04s-.02-.01-.04-.04zM95.33 703.36c.26.36.4.57.4.57zm0 0c-1.29-1.78-5.62-7.17-11.31-8.09-6.83-1.1-1.34 13.41-1.34 13.41l1.83 3.9 42.29 42.29v-44c-3.41-15.6-8.9-9.39-8.9-9.39s-22.55-24.5-26.94-29.37c-4.39-4.88-6.7.85-6.7.85s-3.53 2.56-1.22 9.39c2.05 6.03 10.36 18.23 12.28 21.01zm563.49-353.83-.02 21.33s2.37 1.23 3.02 4.26 4.22 4.33 4.22 4.33 2.38.54 2.81 4.54c1.18 10.95-8.98 15.58-8.98 15.58s-7.9 3.79-9.84 13.95c-1.95 10.17 11.68 16.44 11.68 16.44 10.71 1.41 9.09 14.28 9.09 14.28 16.98 4.98 18.5 17.52 18.5 17.52 3.14.87 10.49 7.57 19.8 8 9.3.43 24.66-14.71 24.66-14.71s12.01-9.63 16.98-17.63c4.98-8 7.46-15.14 4.11-27.91-3.35-12.76-29.31-32.45-29.31-32.45l-16.95-16.6c-6.41-12.44-7.92-12.06-11.31-19.98s-15.83-18.1-15.83-18.1-11.69-4.15-16.59-.38-9.8 4.9-9.8 14.7 3.77 12.82 3.77 12.82zm-537.4 291.34.89 36.28s1.42 2.67.36 5.87c0 0 3.38 3.91 5.69 3.73s5.69-3.73 5.69-3.73 4.45-9.78 6.05-17.07-1.25-20.27-1.25-20.27-1.42-8.54-9.6-9.96-7.82 4.09-7.82 5.16zM584.3 331.31c3.98 9.28-13.26 15.38-13.26 15.38-1.33-1.06-27.58 15.91-21.75 31.56 5.84 15.65 17.77 19.89 17.77 19.89s11.93 9.81 23.07 4.51 15.12-14.59 15.12-14.59c3.98-11.93 9.55-16.97 9.55-16.97l12.2-17.5c7.16-16.97 2.92-21.48 1.33-34.74s-9.28-29.17-13.53-39.25c-4.24-10.08-12.46-20.16-29.17-14.32s-22.81 23.34-18.3 36.86c4.51 13.53 16.97 29.17 16.97 29.17M257.15 595.16s0 8.68-.99 13.41-2.4 11.22-2.4 11.22l.14 12.92s.14 5.51 4.23 7.41 9.03-11.16 11.29-16.45.07-14.75.07-14.75-.99-3.81 1.83-5.72c0 0 4.16-9.95-4.94-13.13s-9.25 5.09-9.25 5.09zM94.92 652.43s8.18 8.71 13.16 16.72c0 0 3.91 2.13 5.16 0 0 0 2.31-1.25 2.85-5.34.53-4.09 1.78-14.23-8.89-19.74 0 0-13.34-4.09-12.27 8.36zm651.05-178.87s17.03 9.65 20.15 9.79 34.48.14 36.18.28 17.88-2.55 12.91-17.31-23.27-27.1-35.62-24.98c-12.35 2.13-22.99 3.55-35.05 13.62s1.42 18.59 1.42 18.59z" class="cls-2"/><g id="Teeth"><path id="path11" d="M590.33 586.49s-7.03 12.64-14.5 14.5c0 0-7.09 2.7 1.22 7.91 0 0 1.36 2.6 10.42-11.22 0 0 1.34-2.51 2.86-11.19" class="cls-2"/><path id="path12" d="M576.21 580.08s-11.33 10.95-9.07 13.82c2.27 2.87 2.42 3.25 2.42 3.25s1.06 1.81 4.15-5.06c0 0 .08-5.06 2.49-12.01z" class="cls-2"/><path id="path13" d="M600.72 595.28s-3.76 10.99-12.09 15.11c-8.34 4.12-8.88 6.96-8.88 6.96s-2.38 3.39.64 5.22 6.23-.73 6.23-.73 2.47-1.47 8.89-9.43c6.41-7.97 5.22-17.13 5.22-17.13z" class="cls-2"/><path id="path14" d="M613.75 611.9s-6.67 13.1-17.63 15.72-9.77 10.72-9.77 10.72.36 6.19 9.65-.24 17.75-26.2 17.75-26.2" class="cls-2"/><path id="path15" d="M632.57 620s-12.81 22.36-30.49 31.2c-.72.36-8.34 4.76 6.19 9.05s24.3-40.25 24.3-40.25" class="cls-2"/><path id="path16" d="M650.31 630.24s-16.93 27.41-30.61 38.11c-2.74 2.14 2.86 8.57 5.24 7.86s13.49-16.64 25.37-45.97" class="cls-2"/><path id="path17" d="M663.14 654.85s-5.61 11.79-27.63 30.97c-3.69 3.22 11.08 12.27 15.6 5.6 4.53-6.67 10.72-27.87 12.03-36.56z" class="cls-2"/><path id="path18" d="M687.32 662.83s-26.38 33.7-37 40.97c0 0 3.77 10.48 14.73 7.5s22.27-48.47 22.27-48.47" class="cls-2"/><path id="path19" d="M698.87 669.5s-20.84 41.81-30.05 47.52c-3.65 2.26 6.59 7.74 6.59 7.74s7.99-2.19 11.91-15.89c3.92-13.71 7.66-18.51 11.55-39.37" class="cls-2"/><path id="path20" d="M727.55 646.31s-4.96 23.45-10.79 29.95-13.85 17.54-13.85 17.54-7.44 10.25-9.77 15.5-1.02 9.19-1.02 9.19 3.94 4.67 10.06.29 8.75-8.31 8.75-8.31l5.54-9.33 3.94-8.31s3.5-1.01 7.15-46.52z" class="cls-2"/><path id="path21" d="M728.23 708.48s-1.53 5.18-14.43 12.18-11.88 4.96-11.88 4.96-12.39 5.6-11.88 9.16 4.58 4.58 4.58 4.58l9.5 1.36s2.05.51 5.52-4.24c3.48-4.75 13.32-10.52 18.58-28z" class="cls-2"/><path id="path22" d="M762.17 679.62s-11.88 28.85-22.23 35.64c-4.38 2.87-6.17 7.81-9.62 11.64-4.71 5.22-10.47 9.38-11.25 12.8-1.36 5.94 3.16 7.93 4.04 8.63s4.78 1.55 10.89-3.03 9.33-11.71 9.33-11.71 12.22-14.91 18.84-53.97" class="cls-2"/><path id="path23" d="M767.81 707.76s-11.81 19.38-13.86 22.21c-2.05 2.82-13.07 14.5-13.45 18.93-.39 4.43 2.54 7.25 2.54 7.25s3.72 1.93 7.96-4.49 13.35-23.49 16.82-43.9z" class="cls-2"/><path id="path24" d="M781.8 724.61s-8.73 12.42-15.28 21.15-9.11 14.38-9.11 14.38-3.72 12.84 8.22 7.83c0 0 6.93-2.77 16.17-43.35z" class="cls-2"/><path id="path25" d="M660.37 517.98s-.57-8.48 4.66-7.96c2.27.23 1.36 3.07 1.36 3.07s-3.07 4.21-6.03 4.89z" class="cls-2"/><path id="path26" d="M666.58 529.24s4.37-6.73 5.05-13.87c.23-2.39 5.57-3.64 5.46 1.25s-7.49 10.46-10.51 12.62" class="cls-2"/><path id="path27" d="M671.83 540.72s7.56-10.13 10.26-19.47c.91-3.16 7.5-2.81 5.34 3.55-2.16 6.37-12.78 15.69-15.6 15.92" class="cls-2"/><path id="path28" d="M682.09 551.52s5.1-2.91 13.08-22.28c1.59-3.87 5.69-1.59 5.69 3.18s-8.76 17.05-18.76 19.1z" class="cls-2"/><path id="path29" d="M687.86 573.7s12.31-17.01 18.78-34.29c1.59-4.25 8.41-9.45 8.64.6s-16.53 26.19-27.42 33.7z" class="cls-2"/><path id="path30" d="M699.48 597.46s21.16-32.67 25.01-54.46c1.02-5.79 11.48-2.83 11.48 2.29s-13.42 38.55-36.5 52.18z" class="cls-2"/><path id="path31" d="M717 598.25s15.42-16.4 27.74-45.19c1.53-3.57 7.94-6.26 14.76.89 2.42 2.54-.76 10.04-3.69 12.84s-12.34 15.72-38.8 31.46z" class="cls-2"/><path id="path32" d="M742.07 605.6s15.23-15.98 27.99-47.07c2.04-4.96 15.14-4.07 14.38 2.93s-20.1 30.55-42.37 44.15z" class="cls-2"/><path id="path33" d="M769.8 608.13s9.91-24.44 23.03-45.29c4.45-7.08 13.87.17 13.74 2.46s3.6.12-36.77 42.83" class="cls-2"/><path id="path34" d="M785.25 618.79s2.64-2.45 9.04-16.57 14.68-28.37 14.68-28.37 6.05-9.88 4.89 5.21c-.75 9.79-7.24 17.51-7.24 17.51l-8.57 9.02s-9.79 12.25-12.8 13.19z" class="cls-2"/><path id="path35" d="M802.41 620.44s11.25-11.58 13.63-25.7c.6-3.56.26-21.39 8.56-26.47s9.66.51 10.67 6.27c1.02 5.76-14.06 43.54-32.86 45.91z" class="cls-2"/><path id="path36" d="M821.38 616.2s3.61-9.61 7.11-13.33c3.73-3.95 7.12-11.58 9.66-20.22s7.62-11.01 10.33-9.15.17 8.98-1.69 12.54-6.27 12.2-9.49 15.08-16.6 15.59-15.92 15.08" class="cls-2"/><path id="path37" d="M825.97 625.72s11.6-9.02 19.62-25.35 10.74-21.49 10.74-21.49 6.3-13.89 16.19-2.58c0 0 6.88 7.88-6.02 21.77-12.89 13.89-13.47 12.18-13.47 12.18s-24.78 15.76-27.07 15.47z" class="cls-2"/><path id="path38" d="M863.96 615.07s11.37-17.35 12.66-25.43c1.29-8.09 10.55-11.6 10.55-11.6s8.32-2.46 5.51 8.67-21.21 23.56-28.72 28.36" class="cls-2"/><path id="path39" d="M879.94 612.95s10.56-10.65 12.09-13.83c1.52-3.18 6.16-13.7 12.84-17.57 0 0 8.94-1.45 2.08 9.67-3.4 5.51-7.7 8.62-7.7 8.62s-17.19 15.46-19.3 13.11z" class="cls-2"/><path id="path40" d="M872.16 630.82s14.82-8.17 30.29-25.82c0 0 10.34-14.99 13.7-9.93 3.36 5.07 5.52 7.5 3.16 12.57-.92 1.97-10.33 8.62-10.33 8.62s-24.55 13.73-36.82 14.56" class="cls-2"/></g></g></g></svg>