<?xml version="1.0" encoding="UTF-8" standalone="no"?>
<!-- Generator: Adobe Illustrator 15.1.0, SVG Export Plug-In . SVG Version: 6.00 Build 0)  -->

<svg
   version="1.1"
   id="Layer_1"
   x="0px"
   y="0px"
   width="539.99969"
   height="604.05499"
   viewBox="0 0 539.99969 604.05499"
   enable-background="new 0 0 550 610"
   xml:space="preserve"
   xmlns="http://www.w3.org/2000/svg"
   xmlns:svg="http://www.w3.org/2000/svg"><defs
   id="defs2" />
<g
   id="g2"
   transform="translate(-5.0449739,-3.853)">
	<path
   fill="#ffffff"
   d="M 266.216,604.559 C 173.667,569.472 133.533,514.924 131.87,512.619 l -6.321,-8.754 2.077,-10.606 C 144.612,406.489 28.473,351.944 27.295,351.401 l -11.606,-5.34 -2.433,-12.54 C -2.214,253.779 8.835,196.133 9.312,193.727 l 0.69,-3.504 1.652,-3.162 C 102.437,12.683 244.23,3.853 271.734,3.853 c 1.406,0 2.52,0.017 3.314,0.047 0.791,-0.03 1.899,-0.047 3.303,-0.047 27.509,0 169.304,8.831 260.089,183.205 l 1.646,3.162 0.69,3.504 c 0.482,2.407 11.525,60.052 -3.941,139.794 l -2.436,12.54 -11.604,5.34 c -1.133,0.524 -117.226,55.563 -100.331,141.858 l 2.077,10.606 -6.324,8.754 c -1.663,2.307 -41.794,56.854 -134.344,91.94 l -8.824,3.352 z"
   id="path1" />
	<path
   d="M 194.579,181.901 C 181.485,168.51 146.787,129.695 131.126,79.967 176.617,46 220.614,34.473 247.735,30.634 c -17.591,27.177 -40.181,70.027 -40.181,110.742 0,13.09 1.967,24.174 5.385,33.5 z m -78.522,132.397 c -17.871,7.231 -36.47,16.17 -55.368,27.201 37.638,23.319 106.792,77.825 91.381,156.548 0,0 33.179,45.924 111.577,78.657 C 262.447,556.405 258.589,520.94 246.36,481.6 222.295,404.188 178.475,347.953 116.057,314.298 Z m 147.667,-53.987 v -44.525 c -14.308,-2.159 -28.186,-8.441 -38.571,-20.121 l -36.045,13.786 -5.412,-4.931 c -2.322,-2.118 -49.507,-45.693 -72.221,-108.471 -24.201,21.614 -48.192,50.141 -69.682,87.789 8.792,10.642 28.029,28.94 65.556,45.292 0,0 -38.113,1.393 -76.016,-11.822 -1.985,21.991 -3.141,61.704 6.182,110.417 99.656,-62.299 192.322,-67.803 226.209,-67.414 z m -118.711,43.488 c 53.958,34.608 94.516,87.446 118.711,154.801 V 284.18 c -19.863,-0.107 -64.255,2.056 -118.711,19.619 z M 275.049,32.763 c -16.104,22.983 -43.72,68.287 -43.72,108.612 0,44.325 27.56,51.51 43.72,51.51 16.151,0 43.712,-7.185 43.712,-51.51 0,-40.325 -27.618,-85.629 -43.712,-108.612 v -0.006 c 0,0 0,0 -0.006,0 v 0 z m 80.462,149.138 C 368.601,168.51 403.305,129.695 418.966,79.967 373.474,46 329.474,34.473 302.356,30.634 c 17.59,27.177 40.184,70.027 40.184,110.742 0,13.09 -1.971,24.174 -5.386,33.5 z m -51.78,299.7 c -12.235,39.341 -16.089,74.806 -17.284,95.104 78.392,-32.733 111.571,-78.657 111.571,-78.657 -15.406,-78.723 53.747,-133.229 91.389,-156.548 -18.9,-11.031 -37.506,-19.969 -55.374,-27.201 -62.417,33.654 -106.241,89.889 -130.302,167.302 z M 512.579,327.725 c 9.32,-48.713 8.164,-88.426 6.177,-110.417 -37.901,13.214 -76.009,11.822 -76.009,11.822 37.522,-16.353 56.76,-34.651 65.555,-45.292 -21.495,-37.647 -45.485,-66.175 -69.685,-87.789 -22.712,62.777 -69.897,106.353 -72.223,108.471 l -5.408,4.931 -36.049,-13.786 c -10.389,11.68 -24.264,17.962 -38.573,20.121 v 44.525 c 33.888,-0.389 126.556,5.115 226.215,67.414 z M 286.364,284.18 V 458.6 C 310.562,391.246 351.123,338.409 405.075,303.799 350.622,286.236 306.231,284.073 286.364,284.18 Z"
   id="path2" />
</g>
</svg>
