<?xml version="1.0" encoding="UTF-8" standalone="no"?>
<!-- Generator: Adobe Illustrator 15.1.0, SVG Export Plug-In . SVG Version: 6.00 Build 0)  -->

<svg
   version="1.1"
   id="Layer_1"
   x="0px"
   y="0px"
   width="539.99982"
   height="604.052"
   viewBox="0 0 539.99982 604.052"
   enable-background="new 0 0 550 610"
   xml:space="preserve"
   xmlns="http://www.w3.org/2000/svg"
   xmlns:svg="http://www.w3.org/2000/svg"><defs
   id="defs17" />
<g
   id="g17"
   transform="translate(-5.0318347,-3.36)">
	<path
   d="M 266.202,604.061 C 173.653,568.975 133.523,514.427 131.859,512.121 l -6.324,-8.754 2.077,-10.606 C 144.601,405.993 28.46,351.446 27.282,350.904 L 15.676,345.565 13.242,333.024 C -2.227,253.28 8.822,195.636 9.3,193.229 l 0.69,-3.504 1.651,-3.162 C 102.424,12.19 244.217,3.36 271.723,3.36 c 1.404,0 2.513,0.018 3.315,0.047 0.791,-0.029 1.899,-0.047 3.303,-0.047 27.501,0 169.3,8.831 260.085,183.204 l 1.64,3.162 0.696,3.504 c 0.483,2.407 11.526,60.051 -3.94,139.793 l -2.442,12.541 -11.598,5.339 c -1.133,0.524 -117.224,55.562 -100.329,141.857 l 2.076,10.606 -6.323,8.754 c -1.664,2.307 -41.8,56.854 -134.343,91.94 l -8.825,3.352 z"
   id="path1" />
	<linearGradient
   id="SVGID_1_"
   gradientUnits="userSpaceOnUse"
   x1="29.946301"
   y1="303.1738"
   x2="520.11719"
   y2="303.1738">
		<stop
   offset="0"
   style="stop-color:#BB2C26"
   id="stop1" />
		<stop
   offset="0.0517"
   style="stop-color:#BF3526"
   id="stop2" />
		<stop
   offset="0.136"
   style="stop-color:#CB4D25"
   id="stop3" />
		<stop
   offset="0.2418"
   style="stop-color:#DE7523"
   id="stop4" />
		<stop
   offset="0.25"
   style="stop-color:#E07823"
   id="stop5" />
		<stop
   offset="0.2566"
   style="stop-color:#E17A23"
   id="stop6" />
		<stop
   offset="0.327"
   style="stop-color:#EE8B1F"
   id="stop7" />
		<stop
   offset="0.404"
   style="stop-color:#F5951E"
   id="stop8" />
		<stop
   offset="0.5"
   style="stop-color:#F7981D"
   id="stop9" />
		<stop
   offset="0.596"
   style="stop-color:#F5951E"
   id="stop10" />
		<stop
   offset="0.673"
   style="stop-color:#EE8B1F"
   id="stop11" />
		<stop
   offset="0.7434"
   style="stop-color:#E17A23"
   id="stop12" />
		<stop
   offset="0.75"
   style="stop-color:#E07823"
   id="stop13" />
		<stop
   offset="0.8095"
   style="stop-color:#D35D24"
   id="stop14" />
		<stop
   offset="0.8837"
   style="stop-color:#C64225"
   id="stop15" />
		<stop
   offset="0.9496"
   style="stop-color:#BE3226"
   id="stop16" />
		<stop
   offset="1"
   style="stop-color:#BB2C26"
   id="stop17" />
	</linearGradient>
	<path
   fill="url(#SVGID_1_)"
   d="M 194.565,181.408 C 181.47,168.017 146.772,129.202 131.116,79.474 176.603,45.508 220.603,33.981 247.72,30.141 c -17.591,27.176 -40.178,70.026 -40.178,110.741 0,13.09 1.964,24.174 5.38,33.5 z m -78.521,132.396 c -17.868,7.231 -36.47,16.169 -55.368,27.2 37.641,23.318 106.789,77.824 91.38,156.546 0,0 33.176,45.923 111.573,78.656 -1.197,-20.298 -5.055,-55.763 -17.284,-95.103 C 222.278,403.691 178.461,347.457 116.044,313.804 Z m 147.668,-53.988 v -44.525 c -14.311,-2.159 -28.185,-8.441 -38.573,-20.121 l -36.048,13.786 -5.409,-4.932 c -2.318,-2.118 -49.51,-45.693 -72.221,-108.47 -24.201,21.614 -48.191,50.141 -69.682,87.788 8.792,10.642 28.029,28.94 65.552,45.292 0,0 -38.11,1.392 -76.011,-11.822 -1.985,21.991 -3.141,61.703 6.182,110.417 99.655,-62.298 192.321,-67.802 226.21,-67.413 z m -118.71,43.487 c 53.952,34.609 94.513,87.446 118.71,154.8 v -174.42 c -19.867,-0.106 -64.256,2.059 -118.71,19.62 z M 275.039,32.271 c -16.104,22.982 -43.723,68.286 -43.723,108.611 0,44.325 27.56,51.51 43.723,51.51 16.151,0 43.711,-7.185 43.711,-51.51 0,-40.325 -27.619,-85.629 -43.711,-108.611 v -0.006 c 0,0 0,0 -0.012,0 v 0 z M 355.5,181.408 c 13.084,-13.391 47.793,-52.206 63.449,-101.934 -45.493,-33.966 -89.487,-45.493 -116.61,-49.333 17.591,27.176 40.184,70.026 40.184,110.741 0,13.09 -1.971,24.174 -5.38,33.5 z m -51.781,299.696 c -12.234,39.34 -16.092,74.805 -17.283,95.103 78.385,-32.733 111.572,-78.656 111.572,-78.656 -15.408,-78.722 53.739,-133.228 91.387,-156.546 -18.9,-11.031 -37.506,-19.969 -55.38,-27.2 -62.411,33.652 -106.24,89.886 -130.296,167.299 z M 512.565,327.229 c 9.32,-48.713 8.164,-88.425 6.17,-110.417 -37.895,13.214 -76.002,11.822 -76.002,11.822 37.518,-16.352 56.76,-34.65 65.55,-45.292 -21.496,-37.647 -45.481,-66.174 -69.679,-87.788 -22.711,62.777 -69.902,106.352 -72.227,108.47 l -5.403,4.932 -36.054,-13.786 c -10.382,11.68 -24.257,17.962 -38.567,20.121 v 44.525 c 33.883,-0.389 126.555,5.115 226.212,67.413 z M 286.353,283.684 v 174.42 c 24.197,-67.354 64.759,-120.191 118.711,-154.8 -54.46,-17.562 -98.843,-19.727 -118.711,-19.62 z"
   id="path17"
   style="fill:url(#SVGID_1_)" />
</g>
</svg>
