<?xml version="1.0" encoding="UTF-8" standalone="no"?>
<!-- Generator: Adobe Illustrator 15.1.0, SVG Export Plug-In . SVG Version: 6.00 Build 0)  -->

<svg
   version="1.1"
   id="Layer_1"
   x="0px"
   y="0px"
   width="540.00061"
   height="604.05499"
   viewBox="0 0 540.00061 604.05499"
   enable-background="new 0 0 550 610"
   xml:space="preserve"
   xmlns="http://www.w3.org/2000/svg"
   xmlns:svg="http://www.w3.org/2000/svg"><defs
   id="defs15" />
<g
   id="g15"
   transform="translate(-5.1430419,-3.358)">
	<path
   d="M 266.314,604.063 C 173.765,568.976 133.631,514.428 131.968,512.122 l -6.321,-8.754 2.076,-10.606 C 144.709,405.994 28.57,351.447 27.393,350.904 L 15.787,345.565 13.354,333.024 C -2.116,253.282 8.933,195.637 9.411,193.23 l 0.69,-3.504 1.652,-3.162 C 102.535,12.189 244.328,3.358 271.833,3.358 c 1.407,0 2.519,0.018 3.315,0.047 0.79,-0.029 1.899,-0.047 3.304,-0.047 27.507,0 169.301,8.831 260.086,183.205 l 1.646,3.162 0.69,3.504 c 0.483,2.407 11.526,60.052 -3.94,139.794 l -2.437,12.541 -11.604,5.339 c -1.133,0.525 -117.225,55.563 -100.33,141.858 l 2.077,10.606 -6.324,8.754 c -1.663,2.307 -41.794,56.854 -134.343,91.941 l -8.825,3.351 z"
   id="path1" />
	<linearGradient
   id="SVGID_1_"
   gradientUnits="userSpaceOnUse"
   x1="30.056601"
   y1="303.1738"
   x2="520.22852"
   y2="303.1738">
		<stop
   offset="0"
   style="stop-color:#8D742F"
   id="stop1" />
		<stop
   offset="0.0861"
   style="stop-color:#967D38"
   id="stop2" />
		<stop
   offset="0.2262"
   style="stop-color:#AE954F"
   id="stop3" />
		<stop
   offset="0.25"
   style="stop-color:#B39A54"
   id="stop4" />
		<stop
   offset="0.2682"
   style="stop-color:#B9A059"
   id="stop5" />
		<stop
   offset="0.3351"
   style="stop-color:#CAB068"
   id="stop6" />
		<stop
   offset="0.4086"
   style="stop-color:#D4BA71"
   id="stop7" />
		<stop
   offset="0.5"
   style="stop-color:#D7BD74"
   id="stop8" />
		<stop
   offset="0.5914"
   style="stop-color:#D4BA71"
   id="stop9" />
		<stop
   offset="0.6649"
   style="stop-color:#CAB068"
   id="stop10" />
		<stop
   offset="0.7318"
   style="stop-color:#B9A059"
   id="stop11" />
		<stop
   offset="0.75"
   style="stop-color:#B39A54"
   id="stop12" />
		<stop
   offset="0.8213"
   style="stop-color:#A38A45"
   id="stop13" />
		<stop
   offset="0.9225"
   style="stop-color:#937A35"
   id="stop14" />
		<stop
   offset="1"
   style="stop-color:#8D742F"
   id="stop15" />
	</linearGradient>
	<path
   fill="url(#SVGID_1_)"
   d="M 194.677,181.407 C 181.584,168.016 146.886,129.201 131.224,79.473 176.714,45.507 220.712,33.98 247.832,30.14 c -17.591,27.176 -40.181,70.026 -40.181,110.741 0,13.09 1.967,24.174 5.386,33.5 z m -78.522,132.397 c -17.871,7.232 -36.47,16.169 -55.368,27.2 37.638,23.318 106.792,77.825 91.381,156.547 0,0 33.179,45.924 111.576,78.657 -1.2,-20.299 -5.058,-55.764 -17.287,-95.104 -24.064,-77.412 -67.885,-133.647 -130.302,-167.3 z m 147.666,-53.988 v -44.525 c -14.308,-2.159 -28.185,-8.441 -38.57,-20.121 l -36.045,13.786 -5.413,-4.932 c -2.321,-2.118 -49.507,-45.693 -72.221,-108.47 -24.201,21.614 -48.191,50.141 -69.682,87.789 8.792,10.642 28.029,28.94 65.555,45.292 0,0 -38.113,1.392 -76.014,-11.822 -1.985,21.992 -3.141,61.704 6.182,110.417 99.658,-62.299 192.322,-67.803 226.208,-67.414 z M 145.11,303.303 c 53.958,34.61 94.517,87.447 118.711,154.801 v -174.42 c -19.862,-0.107 -64.254,2.058 -118.711,19.619 z M 275.147,32.269 c -16.104,22.982 -43.72,68.287 -43.72,108.612 0,44.325 27.56,51.51 43.72,51.51 16.151,0 43.712,-7.185 43.712,-51.51 0,-40.325 -27.619,-85.63 -43.712,-108.612 v -0.006 c 0,0 0,0 -0.006,0 v 0 z m 80.462,149.138 C 368.699,168.016 403.403,129.201 419.064,79.473 373.572,45.507 329.571,33.98 302.454,30.14 c 17.591,27.176 40.184,70.026 40.184,110.741 0,13.09 -1.971,24.174 -5.386,33.5 z m -51.781,299.697 c -12.234,39.34 -16.086,74.805 -17.284,95.104 78.392,-32.733 111.573,-78.657 111.573,-78.657 -15.408,-78.722 53.746,-133.229 91.388,-156.547 -18.9,-11.031 -37.506,-19.968 -55.374,-27.2 -62.417,33.653 -106.24,89.888 -130.303,167.3 z M 512.676,327.229 c 9.32,-48.713 8.164,-88.425 6.176,-110.417 -37.9,13.214 -76.008,11.822 -76.008,11.822 37.523,-16.352 56.76,-34.651 65.555,-45.292 -21.495,-37.647 -45.486,-66.175 -69.685,-87.789 -22.711,62.777 -69.896,106.353 -72.221,108.47 l -5.409,4.932 -36.049,-13.786 c -10.388,11.68 -24.263,17.962 -38.573,20.121 v 44.525 c 33.89,-0.388 126.557,5.116 226.214,67.414 z M 286.462,283.684 V 458.105 C 310.659,390.751 351.221,337.914 405.173,303.304 350.72,285.742 306.329,283.577 286.462,283.684 Z"
   id="path15"
   style="fill:url(#SVGID_1_)" />
</g>
</svg>
