<?xml version="1.0" encoding="UTF-8" standalone="no"?>
<!-- Generator: Adobe Illustrator 15.1.0, SVG Export Plug-In . SVG Version: 6.00 Build 0)  -->

<svg
   version="1.1"
   id="Layer_1"
   x="0px"
   y="0px"
   width="539.99634"
   height="604.05499"
   viewBox="0 0 539.99634 604.05499"
   enable-background="new 0 0 550 610"
   xml:space="preserve"
   xmlns="http://www.w3.org/2000/svg"
   xmlns:svg="http://www.w3.org/2000/svg"><defs
   id="defs17" />
<g
   id="g17"
   transform="translate(-5.2540419,-3.358)">
	<path
   d="M 266.425,604.063 C 173.876,568.976 133.742,514.428 132.079,512.122 l -6.321,-8.754 2.076,-10.606 C 144.82,405.994 28.681,351.447 27.504,350.904 L 15.898,345.565 13.465,333.024 C -2.005,253.282 9.044,195.637 9.522,193.23 l 0.69,-3.504 1.652,-3.162 C 102.646,12.189 244.439,3.358 271.943,3.358 c 1.407,0 2.519,0.018 3.315,0.047 0.791,-0.029 1.897,-0.047 3.3,-0.047 27.513,0 169.301,8.831 260.086,183.205 l 1.652,3.162 0.684,3.504 c 0.484,2.407 11.527,60.052 -3.94,139.794 l -2.43,12.541 -11.609,5.339 c -1.133,0.525 -117.225,55.563 -100.33,141.858 l 2.076,10.606 -6.323,8.754 c -1.664,2.307 -41.788,56.854 -134.344,91.941 l -8.822,3.351 z"
   id="path1" />
	<linearGradient
   id="SVGID_1_"
   gradientUnits="userSpaceOnUse"
   x1="30.1675"
   y1="303.1738"
   x2="520.33893"
   y2="303.1738">
		<stop
   offset="0"
   style="stop-color:#626E77"
   id="stop1" />
		<stop
   offset="0.0522"
   style="stop-color:#697780"
   id="stop2" />
		<stop
   offset="0.1373"
   style="stop-color:#7D8E98"
   id="stop3" />
		<stop
   offset="0.2442"
   style="stop-color:#9EB4C0"
   id="stop4" />
		<stop
   offset="0.25"
   style="stop-color:#A0B6C2"
   id="stop5" />
		<stop
   offset="0.2534"
   style="stop-color:#A1B7C3"
   id="stop6" />
		<stop
   offset="0.3247"
   style="stop-color:#ADC6D4"
   id="stop7" />
		<stop
   offset="0.4027"
   style="stop-color:#B5CEDE"
   id="stop8" />
		<stop
   offset="0.5"
   style="stop-color:#B7D1E1"
   id="stop9" />
		<stop
   offset="0.5973"
   style="stop-color:#B5CEDE"
   id="stop10" />
		<stop
   offset="0.6753"
   style="stop-color:#ADC6D4"
   id="stop11" />
		<stop
   offset="0.7466"
   style="stop-color:#A1B7C3"
   id="stop12" />
		<stop
   offset="0.75"
   style="stop-color:#A0B6C2"
   id="stop13" />
		<stop
   offset="0.8079"
   style="stop-color:#8B9DA8"
   id="stop14" />
		<stop
   offset="0.8827"
   style="stop-color:#74838D"
   id="stop15" />
		<stop
   offset="0.9492"
   style="stop-color:#67747D"
   id="stop16" />
		<stop
   offset="1"
   style="stop-color:#626E77"
   id="stop17" />
	</linearGradient>
	<path
   fill="url(#SVGID_1_)"
   d="M 194.788,181.407 C 181.695,168.016 146.997,129.201 131.336,79.473 176.826,45.507 220.823,33.98 247.944,30.14 c -17.591,27.176 -40.181,70.026 -40.181,110.741 0,13.09 1.967,24.174 5.386,33.5 z m -78.522,132.397 c -17.871,7.232 -36.47,16.169 -55.368,27.2 37.639,23.318 106.792,77.825 91.381,156.547 0,0 33.179,45.924 111.576,78.657 -1.201,-20.299 -5.059,-55.764 -17.287,-95.104 -24.064,-77.412 -67.884,-133.647 -130.302,-167.3 z m 147.667,-53.988 v -44.525 c -14.308,-2.159 -28.186,-8.441 -38.571,-20.121 l -36.045,13.786 -5.413,-4.932 c -2.321,-2.118 -49.507,-45.693 -72.221,-108.47 -24.2,21.614 -48.191,50.141 -69.682,87.789 8.792,10.642 28.029,28.94 65.556,45.292 0,0 -38.113,1.392 -76.014,-11.822 -1.985,21.992 -3.142,61.704 6.182,110.417 99.657,-62.299 192.321,-67.803 226.208,-67.414 z m -118.712,43.487 c 53.958,34.61 94.517,87.447 118.711,154.801 v -174.42 c -19.861,-0.107 -64.254,2.058 -118.711,19.619 z M 275.258,32.269 c -16.104,22.982 -43.72,68.287 -43.72,108.612 0,44.325 27.56,51.51 43.72,51.51 16.149,0 43.708,-7.185 43.708,-51.51 10e-4,-40.325 -27.618,-85.63 -43.708,-108.612 v -0.006 c 0,0 0,0 -0.006,0 v 0 z m 80.46,149.138 C 368.814,168.016 403.511,129.201 419.179,79.473 373.686,45.506 329.68,33.979 302.567,30.14 c 17.591,27.176 40.185,70.026 40.185,110.741 0,13.09 -1.971,24.174 -5.392,33.5 z m -51.781,299.697 c -12.234,39.34 -16.081,74.805 -17.284,95.104 78.397,-32.733 111.573,-78.657 111.573,-78.657 -15.408,-78.722 53.751,-133.229 91.387,-156.547 -18.9,-11.031 -37.506,-19.968 -55.367,-27.2 -62.425,33.653 -106.242,89.888 -130.309,167.3 z M 512.783,327.229 c 9.321,-48.713 8.165,-88.425 6.183,-110.417 -37.907,13.214 -76.015,11.822 -76.015,11.822 37.529,-16.352 56.761,-34.651 65.562,-45.292 -21.496,-37.647 -45.493,-66.175 -69.69,-87.789 -22.711,62.777 -69.891,106.353 -72.215,108.47 l -5.416,4.932 -36.042,-13.786 c -10.395,11.68 -24.269,17.962 -38.58,20.121 v 44.525 c 33.895,-0.388 126.556,5.116 226.213,67.414 z M 286.569,283.684 v 174.421 c 24.198,-67.354 64.76,-120.191 118.711,-154.801 -54.447,-17.562 -98.842,-19.727 -118.711,-19.62 z"
   id="path17"
   style="fill:url(#SVGID_1_)" />
</g>
</svg>
