<svg xmlns="http://www.w3.org/2000/svg" width="600" height="510.361"><path d="M419.338 0H179.565l-1.148.153c-16.191 1.748-38.57 13.41-46.046 37.932-20.389 5.626-96.991 27.01-96.991 27.01l-.944.345C21.23 70.53 0 87.576 0 118.77c0 5.576.65 11.61 2.194 18.143L93.7 478.36l2.488 3.38c10.322 13.806 35.533 34.934 64.291 26.768 0 0 128.926-35.481 139.592-38.429 10.615 2.948 139.758 38.48 139.758 38.48 28.554 8.115 53.714-13.013 64.087-26.818l2.488-3.343 91.351-340.834c1.557-6.737 2.246-12.912 2.246-18.59 0-31.45-21.18-48.444-34.333-53.534l-.945-.345s-76.602-21.384-96.99-27.01C460.254 13.562 437.824 1.9 421.684.153L420.537 0Z" style="fill:#fff"/><path d="M180.713 21.728s-29.357 3.19-29.357 33.593L42.218 85.725s-27.265 10.513-18.895 46.2l90.254 336.763s18.896 25.211 40.917 18.883l145.576-40.024 145.538 40.024c22.021 6.328 40.917-18.883 40.917-18.883l90.203-336.764c8.421-35.686-18.844-46.199-18.844-46.199L448.746 55.321c0-30.403-29.408-33.593-29.408-33.593z"/><path d="M181.657 34.346c-1.34.243-5.575 1.187-9.518 3.84-5.626 3.726-8.216 9.161-8.216 17.135v9.57S48.138 97.194 46.454 97.64c-3.05 1.391-12.12 6.878-12.12 21.371 0 2.948.408 6.24 1.25 9.978.153.549 88.009 328.483 89.463 333.765 3.828 4.39 15.247 15.796 26.015 12.76l149.008-41.02 148.97 41.02c10.768 3.036 22.136-8.37 26.015-12.76 1.454-5.282 89.31-333.217 89.463-333.765.842-3.739 1.25-7.03 1.25-9.978 0-14.493-9.122-19.98-12.12-21.37-1.684-.447-117.52-32.752-117.52-32.752v-9.569c0-7.974-2.59-13.409-8.165-17.134-3.943-2.654-8.179-3.598-9.57-3.84z" style="fill:#fff"/><path d="M438.73 81.54v323.853s-2.844 20.975-19.596 20.975H328.19l121.705 33.593s7.017 3.496 10.462-4.185l89.553-332.272s3.495-10.463-4.925-13.257zM55.067 110.95c-8.42 2.781-4.886 13.256-4.886 13.256l89.514 332.273c3.534 7.668 10.513 4.185 10.513 4.185l121.705-33.542h-90.905c-16.842 0-19.585-21.04-19.585-21.04V82.243ZM183.1 50.09h234.3c4.886 0 5.575 6.278 5.575 6.278V404.69c0 5.588-5.575 6.979-5.575 6.979h-234.3c-4.925 0-4.925-6.98-4.925-6.98V56.369c0-4.185 4.925-6.278 4.925-6.278"/></svg>