<svg xmlns="http://www.w3.org/2000/svg" width="600" height="429.723"><radialGradient id="a" cx="0" cy="0" r="1" fx="0" fy="0" gradientTransform="matrix(21.29529 0 0 -21.29529 665.493 369.625)" gradientUnits="userSpaceOnUse" spreadMethod="pad"><stop offset="0" style="stop-color:#d9eaf3"/><stop offset=".663" style="stop-color:#99aebc"/><stop offset="1" style="stop-color:#536e78"/></radialGradient><path d="M525.924 131.85h-28.91c-.463-.215-16.535-8.057-16.535-8.057l-8.143-26.44-.172.086v-.043l-16.696 9.186c-.085.043-9.153 4.995-21.991 8.938-.333.086-.967.215-2.138.215-4.115 0-10.25-1.558-17.34-3.363-11.41-2.976-25.72-6.628-42.76-6.628-20.562 0-42.597 3.738-56.273 6.542-8.402-17.5-21.616-32.391-47.766-32.391-11.162 0-23.453 2.428-39.61 5.834a33 33 0 0 1-3.278.462c-5.2.376-9.69-1.053-13.558-3.61-14.181-9.82-20.058-35.464-20.187-35.797h-.043c-.034-.172-6.79-22.12-8.852-41.513-1.042-9.604-11.249-3.148-11.249-3.148-4.523 19.607-10.195 44.242-10.238 44.36h-.086l-7.757 33.702-16.287-14.02-8.939 37.817-10.614 3.782-1.139 3.395-10.743 3.814-.58 2.148a3364 3364 0 0 0-12.087 4.32s-2.267 9.486-2.482 10.367H71.508L0 406.518h237.57a35.8 35.8 0 0 0 4.91 6.585c10.249 11.045 27.578 16.62 51.46 16.62 35.293 0 51.322-11.205 58.542-20.939H600z" style="fill:#fff"/><path d="M337.248 373.91s6.832 24.926-41.846 24.926c-48.722 0-40.793-27.192-40.793-27.192H49.645l60.142-233.627 5.662-2.02-59.175 231.661s47.003-9.991 70.38-13.43c23.421-3.48 129.094-19.939 174.42 20.81 0 0 30.544-15.813 95.09-15.813s114.408 11.29 144.994 7.885l-56.231-214.783 7.929 3.395 56.242 218.189zM120.402 130.927l6.295-2.267-52.546 222.422s65.31-14.643 118.608-13.977c53.287.634 81.919 16.244 81.919 16.244s-44.199-13.01-89.063-11.034c-44.854 1.923-91.234 10.819-121.777 17.953zm11.033-6.8 6.93-2.514-49.603 214.192s38.354-4.32 52.665-6.5c14.9-2.267 82.51-16.244 142.984 21.444 0 0-57.875-23.42-111.796-18.22-53.975 5.21-76.053 9.786-92.33 13.01zm17.254-17.501 11.625 9.647-41.76 198.883s23.13 1.01 54.77-5.5c31.016-6.372 83.262 7.219 118.511 40.33 0 0-53.588-40.202-128.964-29.125-29.201 4.243-65.675 7.767-65.675 7.767.043-.086 51.493-222.002 51.493-222.002m27.783-33.402s8.476 33.402 42.179 35.378c33.691 2.01 71.637-25.73 80.156 32.016l-2.31 203.835c0-1.3-6.09-5.253-6.929-5.962-6.339-4.953-13.128-9.444-20.1-13.516-20.693-12.204-43.942-22.948-68.2-24.677-14.139-1-28.116 1.181-41.921 3.91-19.972 3.857-32.735 2.89-32.735 2.89zm130.264 63.913.505-.129c.376-.086 34.701-8.853 63.998-8.853 14.225 0 26.44 3.148 37.183 5.877 12 3.105 22.368 5.748 31.64 2.89 6.543-2.009 13.182-4.609 18.715-6.962l60.85 217.931s-158.54-27.191-212.934 13.558zm171.143 9.443 56.479 216.588s-26.053 0-86.657-7.391c-60.604-7.338-127.407 4.577-127.407 4.577s59.465-28.911 206.683-6.253L468.22 142.046zm36.882 4.19-20.186-.117-11.249-4.996-1.085-3.782-14.611-6.876-4.652-14.772s-10.152 5.662-24.892 10.196c-14.73 4.534-36.26-9.068-66.846-9.068-30.555 0-65.675 9.068-65.675 9.068-14.697-40.793-31.693-38.526-74.753-29.459-43.006 9.057-55.479-50.956-55.479-50.956l-13.59 58.885-16.416-14.138-4.985 21.143-11.42 3.985-1.054 3.363-10.281 3.696-.795 2.804-11.324 4.534-3.115 13.139H83.595l-63.451 243.49h228.803s-1.719 23.205 45.026 23.205c46.712 0 48.98-20.939 48.98-20.939h236.731z" style="fill:#536e78"/><path d="M654.297 385.352c.027-.122.777-2.903 3.648-3.071q.158-.007.321-.008c.699 0 1.425.122 2.132.243.692.117 1.348.226 1.973.226 1.914 0 2.938-1.14 3.317-3.742l-.211-18.973-.032-.757.379-.364v20.422l.055.242.223.063c.027.008 3.25.832 6.031.832 1.355 0 2.512-.293 3.539-.559.742-.191 1.445-.371 2.058-.371q.398-.001.719.098c.508.156 1.067.363 1.711.64l.317.133.089-.332.196-.683.082-.039-.024.082-.324 1.039a14.4 14.4 0 0 0-2.055-.805 2.3 2.3 0 0 0-.711-.102c-.609 0-1.277.172-2.05.372-1.024.261-2.18.558-3.547.558-2.77 0-6.004-.824-6.039-.832l-.262-.07-.094.258c-.926 2.562-1.875 3.05-3.293 3.05-.867 0-1.968-.218-3.32-.504a4.5 4.5 0 0 0-.863-.089c-2.09-.004-3.317 1.671-3.981 3.093zm-1.371-3.461-.114-.485-.374.324-1.157.993-.011-.047.343-.281 1.078-.895.137-.113-.035-.18-2.309-11 3.09 14.496zm-2.094-.832-.082-.356-4.523-19.519h.031l.074.378c.004.004.004.016 4.523 19.504zm-3.727-2.989h-1.515l-5.75-22.062h20.906l.316-.004-.015-.316c0-.016-.016-.438.398-.872.422-.445 1.371-.972 3.496-.972 3.973 0 4.258 1.672 4.258 1.687l.039.266h21.907l-5.883 21.965-1.539.008.019-.098 5.235-20.309.097-.375h-19.773a1.83 1.83 0 0 0-.379-1.093c-.621-.813-1.914-1.227-3.852-1.227-1.863 0-3.121.418-3.742 1.242a2.02 2.02 0 0 0-.394 1.285h-19.125l.097.379 5.282 20.496zm5.364-14.586a14.4 14.4 0 0 0-2.723-.285c-.266 0-.406.012-.406.012l-.32.023-.036-.183c.688 0 2.457.058 4.668.511a7.6 7.6 0 0 0 1.582.149c2.528 0 6.59-1.039 9.711-3.977l.301-.281-.34.461c-.054.074-.344.277-.441.348a1 1 0 0 0-.121.086c-.528.414-1.125.816-1.832 1.238-2.383 1.406-4.364 2.121-6.223 2.258a9 9 0 0 1-.641.019c-1.078 0-2.164-.183-3.179-.379m15.343-4.441c1.09.387 3.836 1.148 8.672 1.195h-.437c-3.57 0-6.332-.402-8.235-1.195m-2.074-.918-1.965.582a8.2 8.2 0 0 0 1.875-1.168c.164.07.438.184.817.313l-.25.187-.176-.031-.215-.16v.121l-.512-.09.512.25v.199l-.215.164-1.671.676a8 8 0 0 1-.34.129zm1.707.133-.718-.129.207-.125c.492.144 1.105.305 1.847.449-.828-.109-1.328-.195-1.336-.195" style="fill:url(#a)" transform="matrix(10.74345 0 0 -10.74345 -6849.785 4212.426)"/></svg>