<svg xmlns="http://www.w3.org/2000/svg" xmlns:xlink="http://www.w3.org/1999/xlink" width="600" height="631.301"><linearGradient xlink:href="#a" id="b" x1="358.236" x2="233.506" y1="-1069.931" y2="-1023.563" gradientTransform="translate(-459.38 2828.047)scale(2.50684)" gradientUnits="userSpaceOnUse"/><linearGradient id="a" x1="0" x2="1" y1="0" y2="0" gradientTransform="matrix(31.8955 0 0 -31.8955 466.736 146.398)" gradientUnits="userSpaceOnUse" spreadMethod="pad"><stop offset="0" style="stop-color:#536e78"/><stop offset=".3" style="stop-color:#99aebc"/><stop offset=".5" style="stop-color:#d9eaf3"/><stop offset=".7" style="stop-color:#99aebc"/><stop offset="1" style="stop-color:#536e78"/></linearGradient><path d="M582.913 293.613a274.754 276.527 0 1 1-549.508 0 274.754 276.527 0 1 1 549.508 0z" style="stroke:#000;stroke-width:34.1731;stroke-miterlimit:4"/><path d="M582.913 293.613a274.754 276.527 0 1 1-549.508 0 274.754 276.527 0 1 1 549.508 0z" style="fill:url(#b);stroke:#000;stroke-width:21.3403;stroke-miterlimit:4"/><path d="M64.853 161.95C24.336 211.54 0 275 0 344.111c0 158.452 127.92 287.19 285.467 287.19s285.389-128.738 285.389-287.19l-15.772 69.378-33.462 54.7-53.578 49.325-60.514 33.447-50.942 16.32-59.026 2.013-50.862-6.467-58.856-23.637-63.16-38.182L74.927 441.3 46.5 374.02l-12.487-74.152 4.568-62.485z" style="stroke-width:8.51293"/><path d="m105.88 242.387 25.242 10.098c16.955-47.77 54.485-72.024 82.563-61.694 19.324 7.108 43.559 35.14 26.295 73.053-12.63 27.74-87.62 99.937-135.047 150.508l.316 20.825 181.43.315 21.771-78.882h-24.61c-6.886 23.535-19.265 31.278-32.815 35.654l-88.98-.946c38.538-46.326 83.78-69.242 112.645-104.756 28.883-35.538 20.693-92.41-5.049-116.43-56.396-52.625-140.6-10.51-163.76 72.256z" style="stroke:#000;stroke-width:2.52424px"/><path d="M423.335 144.02c-69.816-1.27-100.82 93.885-97.904 152.161 3.051 60.98 26.973 143.165 101.028 143.238 69.217.068 99.851-94.002 100.135-147.254.464-87.136-40.302-147.002-103.259-148.146m.446 28.226c39.353-.225 51.52 74.47 53.168 121.705 1.556 44.62-5.656 122.81-50.044 119.474-39.07-2.936-50.887-72.395-51.383-118.582-.421-39.208 1.031-122.328 48.26-122.597" style="stroke-width:8.027"/></svg>