<svg xmlns="http://www.w3.org/2000/svg" xml:space="preserve" width="970.39" height="928.77" style="clip-rule:evenodd;fill-rule:evenodd;stroke-linejoin:round;stroke-miterlimit:2" viewBox="0 0 970.39 928.77"><path d="M0 355.377s232.45-84.213 295.66-85.263c0 0 84.18-126.352 188.78-270.114 0 0 161.49 201.655 172.77 255.92 0 0 300.95 91.012 313.18 99.008 0 0-157.61 236.665-189.17 242.189 0 0 8.49 317.456 6.18 329.779 0 0-250.32-67.007-291.14-106.287 0 0-161.7 62.53-310.9 108.161 0 0-7.95-272.587 12.23-310.359 0 0-183.55-235.792-197.59-263.034"/><path d="M209.62 579.087 54.61 372.092s205.42-75.795 279.63-71.639c0 0 156.74-10.268 201.86 138.335 0 0-8.04-151.183-198.85-169.191L485.2 58.203S606.12 217.398 632.22 282.38s20.77 131.562 13.32 151.27c0 0-11.82 64.703-75.5 105.609 0 0 143.73-57.273 100.05-242.811L916 373.594S777.36 567.556 732.13 594.482c0 0-119.12 103.249-245.87 6.895 0 0 99.45 123.651 261.4 21.084l3.59 260.016s-125.49-39.457-205.86-73.056c-80.38-33.598-124.94-93.347-139.43-126.286-14.5-32.94-24.34-92.523-2.9-141.93 0 0-86.15 132.083 59.2 256.074l-243.33 83.585s-4.27-99.814 6.37-230.07 112.66-219.081 205.04-208.422c0 0-139.44-43.291-220.72 136.715" style="fill:url(#a)"/><defs><radialGradient id="a" cx="0" cy="0" r="1" gradientTransform="scale(449.86839)rotate(.504 -125.251 123.034)" gradientUnits="userSpaceOnUse"><stop offset="0" style="stop-color:#626e77;stop-opacity:1"/><stop offset="0" style="stop-color:#b5cede;stop-opacity:1"/><stop offset=".5" style="stop-color:#b7d1e1;stop-opacity:1"/><stop offset=".62" style="stop-color:#b5cede;stop-opacity:1"/><stop offset=".71" style="stop-color:#adc6d4;stop-opacity:1"/><stop offset=".8" style="stop-color:#a1b7c3;stop-opacity:1"/><stop offset=".8" style="stop-color:#a0b6c2;stop-opacity:1"/><stop offset=".85" style="stop-color:#8b9da8;stop-opacity:1"/><stop offset=".91" style="stop-color:#74838d;stop-opacity:1"/><stop offset=".96" style="stop-color:#67747d;stop-opacity:1"/><stop offset="1" style="stop-color:#626e77;stop-opacity:1"/></radialGradient></defs></svg>