<?xml version="1.0" encoding="UTF-8" standalone="no"?>
<svg
   version="1.1"
   id="Layer_1"
   width="167.51506"
   height="130"
   viewBox="98.014 74.5 167.51505 130"
   xmlns="http://www.w3.org/2000/svg"
   xmlns:svg="http://www.w3.org/2000/svg">
  <defs
     id="defs4" />
  <path
     d="m 222.554,74.5 h 0.33 c 1.951,1.72 4.34,2.78 6.59,4.03 12.42,6.76 22.631,17.439 28.861,30.13 7.299,14.66 9.129,31.939 5.1,47.81 -4.08,16.46 -14.43,31.271 -28.541,40.7 -3.789,2.77 -8.32,4.36 -11.969,7.33 h -0.34 c -1.111,-10.4 -3.441,-20.92 -9.42,-29.689 -3.141,6.369 -8.432,11.699 -14.971,14.539 -7.689,3.351 -16.359,3.381 -24.55,2.32 3.29,3.59 6.72,7.03 9.96,10.67 -7.21,-0.609 -14.66,-0.22 -21.58,-2.689 -14.96,-5.021 -27.43,-15.58 -37.27,-27.681 -8.851,-10.88 -17.9,-21.579 -26.74,-32.47 9.039,-11.05 18.189,-22 27.22,-33.05 9.74,-11.86 22.069,-22.15 36.78,-27.101 6.939,-2.47 14.41,-2.09 21.639,-2.68 -3.289,3.59 -6.699,7.07 -10.009,10.65 7.729,-0.971 15.829,-1.021 23.2,1.779 7.119,2.69 12.99,8.25 16.289,15.09 6.02,-8.749 8.35,-19.288 9.421,-29.688 m -97.309,40.73 c 10.51,-7.92 23.629,-13.221 36.969,-11.83 6.461,0.67 13.681,2.99 16.931,9.109 2.88,4.58 2.63,11.521 -2.091,14.79 -3.85,2.98 -11.239,2.351 -12.649,-2.909 -0.22,-4.711 5.7,-6.32 9.31,-4.49 -1.479,-4.211 -4.979,-7.521 -9.369,-8.53 -8.5,-2.431 -17.11,0.97 -24.7,4.63 -12.91,6.38 -24.75,14.71 -36.12,23.5 8.26,6.42 16.8,12.5 25.779,17.87 7.801,4.521 15.881,9.04 24.82,10.75 7.45,1.36 17.03,-0.97 19.59,-9.011 -3.459,1.541 -8.449,0.621 -9.359,-3.549 0.109,-5.141 6.93,-6.841 10.891,-4.86 5.84,2.28 7.238,10.02 4.279,15.09 -3.07,6.569 -10.6,9.16 -17.34,9.819 -13.34,1.351 -26.54,-3.89 -36.98,-11.939 10.73,15.54 26.4,29.17 45.4,32.8 -1.301,-2.38 -3.641,-4.899 -2.689,-7.819 0.84,-2.08 3.229,-2.74 5.27,-2.311 5.311,0.74 10.74,1.13 16.07,0.23 7.559,-1.07 14.84,-5.65 18.299,-12.58 -3.34,-1.7 -6.549,-4.21 -7.74,-7.91 -1.58,-4.59 0.73,-9.7 4.49,-12.48 3.961,-3.149 9.211,-3.729 14.1,-3.76 -4.789,2.08 -9.35,4.91 -12.43,9.221 11.131,9.27 18.65,22.699 20.66,37.049 13.26,-7.159 23.85,-19.1 29.301,-33.149 5.42,-13.79 5.84,-29.47 1.219,-43.54 -5.029,-15.46 -16.17,-28.859 -30.539,-36.49 -1.99,14.301 -9.471,27.721 -20.59,36.93 2.939,4.4 7.539,7.23 12.35,9.201 -4.689,0.129 -9.66,-0.471 -13.561,-3.28 -3.889,-2.63 -6.469,-7.62 -5.17,-12.32 1.041,-3.93 4.381,-6.67 7.881,-8.42 -2.051,-4.479 -6.01,-7.86 -10.311,-10.11 -7.699,-3.88 -16.66,-3.26 -24.949,-2.21 -2.41,0.46 -4.95,-1.7 -4.59,-4.2 0.39,-2.229 1.82,-4.069 2.92,-5.989 -18.983,3.627 -34.582,17.227 -45.352,32.697 z"
     id="path1" />
  <path
     d="m 231.105,93.09 c 10.539,8.561 17.74,20.98 20.68,34.18 4.76,21.311 -3.76,44.86 -20.65,58.561 1.281,-4.2 3.93,-7.77 5.76,-11.721 6.602,-13.459 9.891,-28.819 7.801,-43.779 -1.41,-11.04 -5.359,-21.67 -10.93,-31.28 -1.091,-1.881 -1.992,-3.881 -2.661,-5.961 z"
     id="path2" />
  <linearGradient
     id="SVGID_1_"
     gradientUnits="userSpaceOnUse"
     x1="221.375"
     y1="199.1748"
     x2="156.6011"
     y2="86.983101"
     gradientTransform="translate(10e-4)">
    <stop
       offset="0.1"
       style="stop-color:#6D7984"
       id="stop2" />
    <stop
       offset="0.5"
       style="stop-color:#B4CDDD"
       id="stop3" />
    <stop
       offset="0.9"
       style="stop-color:#6D7984"
       id="stop4" />
  </linearGradient>
  <path
     fill="url(#SVGID_1_)"
     d="m 125.245,115.23 c 10.77,-15.471 26.369,-29.07 45.35,-32.7 -1.1,1.92 -2.53,3.76 -2.92,5.989 -0.36,2.5 2.18,4.66 4.59,4.2 8.289,-1.05 17.25,-1.67 24.949,2.21 4.301,2.25 8.26,5.631 10.311,10.11 -3.5,1.75 -6.84,4.49 -7.881,8.42 -1.299,4.7 1.281,9.69 5.17,12.32 3.9,2.81 8.871,3.409 13.561,3.28 -4.811,-1.971 -9.41,-4.801 -12.35,-9.201 11.119,-9.209 18.6,-22.629 20.59,-36.93 14.369,7.631 25.51,21.03 30.539,36.49 4.621,14.07 4.201,29.75 -1.219,43.54 -5.451,14.05 -16.041,25.99 -29.301,33.149 -2.01,-14.35 -9.529,-27.779 -20.66,-37.049 3.08,-4.311 7.641,-7.141 12.43,-9.221 -4.889,0.03 -10.139,0.61 -14.1,3.76 -3.76,2.78 -6.07,7.891 -4.49,12.48 1.191,3.7 4.4,6.21 7.74,7.91 -3.459,6.93 -10.74,11.51 -18.299,12.58 -5.33,0.899 -10.76,0.51 -16.07,-0.23 -2.04,-0.43 -4.43,0.23 -5.27,2.311 -0.951,2.92 1.389,5.439 2.689,7.819 -19,-3.63 -34.67,-17.26 -45.4,-32.8 10.44,8.05 23.641,13.29 36.98,11.939 6.74,-0.659 14.27,-3.25 17.34,-9.819 2.959,-5.07 1.561,-12.81 -4.279,-15.09 -3.961,-1.98 -10.781,-0.28 -10.891,4.86 0.91,4.17 5.9,5.09 9.359,3.549 -2.56,8.041 -12.14,10.371 -19.59,9.011 -8.939,-1.71 -17.02,-6.229 -24.82,-10.75 -8.979,-5.37 -17.52,-11.45 -25.779,-17.87 11.37,-8.79 23.21,-17.12 36.12,-23.5 7.59,-3.66 16.2,-7.061 24.7,-4.63 4.39,1.01 7.89,4.319 9.369,8.53 -3.609,-1.83 -9.529,-0.221 -9.31,4.49 1.41,5.26 8.8,5.89 12.649,2.909 4.721,-3.27 4.971,-10.21 2.091,-14.79 -3.25,-6.119 -10.47,-8.439 -16.931,-9.109 -13.338,-1.387 -26.457,3.914 -36.967,11.833 m 105.86,-22.14 c 0.67,2.08 1.57,4.08 2.66,5.96 5.57,9.61 9.52,20.24 10.93,31.28 2.09,14.96 -1.199,30.32 -7.801,43.779 -1.83,3.951 -4.479,7.521 -5.76,11.721 16.891,-13.7 25.41,-37.25 20.65,-58.561 -2.939,-13.199 -10.14,-25.619 -20.679,-34.179 z"
     id="path4"
     style="fill:url(#SVGID_1_)" />
</svg>
