<svg xmlns="http://www.w3.org/2000/svg" width="600" height="431.493"><path d="M246.468 305.119h-44.713V206.9c21.704 47.659 32.405 71.132 44.713 98.219M373.931 126.33a42955 42955 0 0 1-26.203 58.197c-12.567-26.633-16.946-35.9-27.475-58.197zM0 0v126.416h52.76v178.627c-12.815.043-52.76.12-52.76.12v126.33h578.803V303.985H455.051c23.042-49.384 72.437-155.153 82.879-177.57H600V0Z" style="fill:#fff"/><path d="m348.31 249.5 67.756-150.386h-138.8zM182.673 99.2h-8.09v233.146h114.194zm229.65 232.002h139.265v73.073H27.227v-71.93l52.707-.172V99.2H27.227V27.227h545.557V99.2h-52.168z"/></svg>