<svg xmlns="http://www.w3.org/2000/svg" xmlns:xlink="http://www.w3.org/1999/xlink" id="Layer_2" width="1031.05" height="1080.01" data-name="Layer 2" viewBox="0 0 1031.05 1080.01"><defs id="defs15"><linearGradient id="linear-gradient" x1="-438.86" x2="-437.86" y1="1079.93" y2="1079.93" gradientTransform="matrix(916.64 0 0 -1035.08 402336.14 1118399.2)" gradientUnits="userSpaceOnUse"><stop id="stop1" offset="0" stop-color="#8d742f"/><stop id="stop2" offset=".07" stop-color="#967d38"/><stop id="stop3" offset=".18" stop-color="#ae954f"/><stop id="stop4" offset=".2" stop-color="#b39a54"/><stop id="stop5" offset=".22" stop-color="#b9a059"/><stop id="stop6" offset=".3" stop-color="#cab068"/><stop id="stop7" offset=".39" stop-color="#d4ba71"/><stop id="stop8" offset=".5" stop-color="#d7bd74"/><stop id="stop9" offset=".61" stop-color="#d4ba71"/><stop id="stop10" offset=".7" stop-color="#cab068"/><stop id="stop11" offset=".78" stop-color="#b9a059"/><stop id="stop12" offset=".8" stop-color="#b39a54"/><stop id="stop13" offset=".86" stop-color="#a38a45"/><stop id="stop14" offset=".94" stop-color="#937a35"/><stop id="stop15" offset="1" stop-color="#8d742f"/></linearGradient><linearGradient xlink:href="#linear-gradient" id="linear-gradient-2" y1="1080.21" y2="1080.21" gradientTransform="matrix(1482.79 0 0 -1482.79 650497.42 1601896)"/><linearGradient xlink:href="#linear-gradient" id="linearGradient19" x1="-438.86" x2="-437.86" y1="1079.93" y2="1079.93" gradientTransform="matrix(916.64 0 0 -1035.08 402336.14 1118399.2)" gradientUnits="userSpaceOnUse"/><style id="style1">.cls-1{fill-rule:evenodd;stroke-width:0}</style></defs><g id="Layer_1-2" data-name="Layer 1"><path id="path15" d="M515.53 215.26c50.82-89.94 101.22-95.36 170.28-117.92C736.47 80.79 836.54 35.79 858.43.01c50.76 36.91 108.59 64.1 172.62 82.75-67.26 229.76-87.19 461.12-57.2 694.13-148.28 110.93-299.66 215.03-458.32 303.12C356.87 991.92 205.49 887.82 57.2 776.89 87.2 543.88 67.26 312.52 0 82.75 64.04 64.1 121.86 36.91 172.62 0c21.89 35.78 121.96 80.78 172.62 97.33 69.07 22.56 119.46 27.98 170.29 117.92z" class="cls-1"/><path id="path16" d="M515.53 1035.07c-101.64-56.42-199.86-122.42-296.09-193.99 19.14-211.24 11.95-426.64-26.83-647.03 47.9 16.81 100.16 36.1 179.34 63.68 34.92 46.62 78.34 82.81 143.58 82.81s108.65-36.19 143.57-82.81c79.18-27.59 131.45-46.87 179.35-63.68-38.78 220.39-45.98 435.79-26.84 647.03-96.23 71.57-194.45 137.57-296.08 193.99M185.51 815.56c-25.37-19.3-50.62-38.95-75.76-58.88 12-213.16-5.21-413.04-43.13-603.5 32.4 9.6 60 18.38 86.99 27.47 39.88 216.25 48.82 427.63 31.9 634.92zm660.03 0c-16.91-207.29-7.98-418.67 31.91-634.92 26.99-9.08 54.58-17.87 86.99-27.47-37.92 190.46-55.14 390.35-43.14 603.5-25.14 19.93-50.39 39.59-75.76 58.88z" style="fill:url(#linearGradient19);fill-rule:evenodd;stroke-width:0"/><path id="path17" d="M515.5 303.01c-52.7-.01-98.22-31.08-119.21-75.88L57.2 97.18c36.25-15.08 75.07-38.17 111.32-61.63 21.48 19.14 107.52 73.07 179.22 91.14 98.3 24.79 156.58 83.72 167.78 163.94 11.2-80.22 69.47-139.15 167.77-163.94 71.7-18.07 157.74-72 179.22-91.14 36.25 23.46 75.07 46.55 111.32 61.63L634.75 227.14c-20.99 44.8-66.49 75.86-119.21 75.88h-.06z" style="fill:url(#linear-gradient-2);fill-rule:evenodd;stroke-width:0"/><path id="path18" d="M551.59 441.48c42.53 78.41 90.59 144.68 144.48 198.47l30.29 30.24-31.49 28.99c-59.62 54.86-107 119.12-142.37 192.64l-36.97 76.87-36.97-76.87c-35.36-73.51-82.76-137.77-142.37-192.64l-31.5-28.99 30.3-30.24c53.89-53.78 101.94-120.06 144.47-198.47l36.07-66.5z" class="cls-1"/><path id="path19" d="M515.53 461.04c44.57 82.19 95.06 151.57 151.55 207.95-63.44 58.4-113.92 126.79-151.55 205.04-37.64-78.25-88.1-146.64-151.56-205.04 56.48-56.38 106.98-125.76 151.56-207.95" style="fill:#fff;fill-rule:evenodd;stroke-width:0"/></g></svg>