<svg xmlns="http://www.w3.org/2000/svg" width="44.917" height="50.001" viewBox="0 0 44.917 50.001"><path d="M20.805 49.971c-1.593-.252-3.599-1.063-5.01-2.026-1.395-.953-3.05-2.828-3.81-4.315-.302-.59-.304-.59-1.473-.359l-2.205.436c-.757.148-2.194.425-3.193.612-.999.188-2.033.39-2.298.45-.265.061-.508.083-.542.05s.042-.296.167-.583.386-.895.58-1.349.418-.975.498-1.156c.327-.748 1.41-3.341 1.874-4.487.313-.771.36-.649-.5-1.294-1.57-1.176-3.233-3.551-4.055-5.79-.644-1.756-.845-2.982-.838-5.113.005-1.698.042-2.077.305-3.189.8-3.385 2.484-6.08 4.946-7.918.575-.429.6-.498.363-1.029a87 87 0 0 1-.507-1.187 99 99 0 0 0-.492-1.156c-.08-.181-.3-.703-.489-1.157-.403-.972-.733-1.744-1.203-2.817-.365-.832-.41-1.037-.226-1.037.063 0 .67.095 1.35.211.678.116 2.075.341 3.104.501 1.03.159 2.444.387 3.144.505s1.327.215 1.394.215.301-.325.52-.723A12.44 12.44 0 0 1 19.705.31c.99-.279 1.271-.31 2.807-.31 1.525 0 1.82.032 2.765.301 2.3.651 4.172 1.778 5.806 3.494.566.595 1.517 1.927 1.945 2.726.368.686.326.68 2.118.313.712-.146 1.99-.397 2.836-.56a809 809 0 0 0 2.863-.553c1.948-.38 2.037-.392 2.037-.266 0 .111-.623 1.681-.946 2.384-.09.195-.232.542-.316.771s-.334.836-.555 1.351a27 27 0 0 0-.495 1.212c-.05.151-.273.696-.495 1.211-.67 1.558-.673 1.567-.432 1.7.497.272 2.365 2.278 2.931 3.146 1.088 1.666 1.57 2.807 2.046 4.844.26 1.113.296 1.495.297 3.139 0 1.567-.042 2.069-.264 3.084-.7 3.211-2.31 5.925-4.616 7.783-.464.375-.86.693-.882.708-.05.035.662 1.811 1.143 2.851.16.347.692 1.596 1.197 2.808.164.394.345.802.402.906.058.105.198.438.313.739l.21.549-.512-.063a39 39 0 0 1-1.392-.219 85 85 0 0 0-2.037-.319 67 67 0 0 1-2.037-.328c-.796-.146-3.169-.494-3.367-.494-.044 0-.24.284-.437.631-1.594 2.825-4.342 4.976-7.428 5.813-.892.242-1.384.305-2.588.331-.817.016-1.635.007-1.817-.022" style="fill:gray"/><path d="M20.391 47.712c-2.999-.656-5.7-2.938-7.128-6.018-.26-.563-.516-.93-.646-.931-.118-.001-1.72.286-3.56.638s-3.377.606-3.417.567.435-1.28 1.054-2.759l1.126-2.688 1.74 1.136c.957.624 3.227 2.116 5.045 3.314s4.371 2.876 5.673 3.729l2.367 1.552 7.061-4.81c3.883-2.646 7.106-4.764 7.162-4.707.107.108 2.304 5.179 2.265 5.227-.012.016-1.539-.216-3.392-.514s-3.493-.542-3.645-.543c-.2 0-.36.197-.592.733-.814 1.882-2.632 3.973-4.3 4.947-1.972 1.153-4.66 1.598-6.813 1.127m-4.717-8.513-6.92-4.56V16.023l6.74-4.644 6.741-4.644 6.998 4.533 6.998 4.533v18.685l-6.61 4.52c-3.637 2.485-6.705 4.571-6.818 4.635-.152.087-2.11-1.135-7.129-4.442m9.606-1.819c3.573-.914 6.732-3.785 8.127-7.388.565-1.459.825-2.919.825-4.632 0-3.573-1.157-6.506-3.512-8.902-2.479-2.522-5.252-3.628-8.738-3.483-2.549.106-4.735.963-6.81 2.67-2.007 1.65-3.59 4.325-4.147 7.009-.299 1.44-.299 3.932 0 5.372 1.033 4.976 4.94 8.807 9.774 9.583 1.006.161 3.443.036 4.481-.229m-4.476-3.177c-2.427-.513-4.729-2.326-5.833-4.594-.775-1.593-1.026-2.665-1.015-4.339.036-5.32 4.013-9.266 9.052-8.978 2.998.171 5.715 2.013 7.078 4.798.76 1.553.98 2.502.98 4.249 0 1.749-.219 2.692-.987 4.27-.45.923-.807 1.406-1.686 2.285-1.302 1.301-2.553 1.986-4.243 2.323-1.288.258-2.078.255-3.346-.014m-14.08.502c-.042 0-.702-.512-1.332-1.137-1.362-1.352-2.257-2.801-2.828-4.579-1.466-4.571-.348-9.439 2.9-12.637.52-.511 1.228-.93 1.304-.93zM38.31 15.593c.008-.02.327.213.71.517 1.556 1.24 3.052 3.77 3.637 6.148.411 1.673.411 4.331 0 5.869-.617 2.309-1.376 3.729-2.829 5.292-.656.706-1.383 1.145-1.383 1.145M7.992 13.396c-.12-.286-.657-1.56-1.195-2.83s-.942-2.344-.9-2.387c.066-.065 5.944.797 6.793.998.236.055.33-.04.515-.527.468-1.225 1.516-2.792 2.56-3.825 1.211-1.202 2.382-1.929 3.937-2.445.958-.317 1.328-.366 2.824-.366s1.866.049 2.823.366a10.2 10.2 0 0 1 3.734 2.209c.986.903 2.24 2.694 2.731 3.902.18.442.41.82.512.841s1.792-.273 3.755-.653c1.963-.381 3.581-.676 3.595-.657.037.052-2.336 5.72-2.438 5.82-.047.048-3.443-2.088-7.544-4.747-4.385-2.842-7.525-4.794-7.623-4.736-.263.155-12.927 8.867-13.417 9.23l-.444.329z"/></svg>