<svg xmlns="http://www.w3.org/2000/svg" xmlns:xlink="http://www.w3.org/1999/xlink" width="601.344" height="386.94"><radialGradient id="a" cx="0" cy="0" r="1" fx="0" fy="0" gradientTransform="matrix(119.08626 0 0 -119.08626 150 94.813)" gradientUnits="userSpaceOnUse" spreadMethod="pad"><stop offset="0" style="stop-color:#f6b91d"/><stop offset=".7" style="stop-color:#d3641c"/><stop offset="1" style="stop-color:#bf331c"/></radialGradient><radialGradient xlink:href="#a" id="b" cx="0" cy="0" r="1" fx="0" fy="0" gradientTransform="translate(300.672 197.944)scale(237.38045)" gradientUnits="userSpaceOnUse" spreadMethod="pad"/><path d="M236.895 121.823h-82.856L16.685 376.972h113.159c.801-13.345 3.434-26.527 7.447-38.388 13.34-33.602 36.793-60.546 70.258-77.41 12.683-2.808 73.959-4.47 73.959-4.47l19.2-190.483 19.144 190.62s63.958 2.123 73.94 4.333c33.523 16.894 56.945 43.876 70.257 77.41 4.018 11.878 6.643 25.06 7.445 38.388h113.164L447.306 121.823H364.45L300.672 18.92Z" style="fill:url(#b)"/><path d="M472.474 335.493c-14.195-35.62-39.37-64.568-75.646-82.831-6.536-1.452-14.733-2.456-22.593-3.124l72.783-109.323 122.623 227.788h-89.926c-1.283-11.245-3.685-21.84-7.241-32.51m-122.63-87.091h-24.591L300.67 66.222l-24.58 182.18h-24.592l-78.303-117.608h68.693l58.782-94.847 58.784 94.847 68.69.002zm-145.332 4.26c-35.954 18.1-61.334 46.915-75.646 82.831-3.542 10.629-5.956 21.22-7.244 32.51h-89.92l122.623-227.788 72.777 109.313c-7.632.64-15.811 1.627-22.59 3.134m248.152-139.806-83.223-.002-68.77-110.962-68.77 110.962h-83.223L1.668 385.943h136.878c0-15.484 2.545-30.36 7.17-44.268 12.572-31.292 34.895-56.893 64.87-71.986 9.753-2.169 31.616-3.347 40.283-3.347h32.858l16.944-125.581 16.943 125.581h32.857c8.667 0 30.53 1.178 40.283 3.347 29.974 15.093 52.298 40.694 64.87 71.986a140 140 0 0 1 7.168 44.268h136.883z" style="stroke:#fff;stroke-width:1.99335;stroke-opacity:0"/><path d="M464.048 338.585c-13.311-33.535-36.733-60.517-70.257-77.41-9.55-2.115-23.625-3.092-33.337-3.528l88.449-132.851 135.755 252.176H471.492c-.8-13.327-3.425-26.51-7.444-38.387m-144.125-81.213-19.251-142.7-19.252 142.7c-17.617.002-31.742.006-32.322.014l-90.253-135.562h78.05l63.777-102.905 63.777 102.905 78.05.002-90.254 135.56c-.584-.008-14.706-.012-32.322-.015m-112.375 3.804c-33.464 16.863-56.918 43.81-70.257 77.41-4.013 11.86-6.646 25.042-7.447 38.387H16.685L152.44 124.794l88.449 132.852c-9.712.437-23.79 1.413-33.34 3.528m245.115-148.318-83.222-.002-68.77-110.962L231.9 112.854h-83.222L1.669 385.943h136.876c0-15.485 2.545-30.361 7.172-44.269 12.57-31.29 34.895-56.892 64.87-71.986 9.76-2.168 31.638-3.346 40.283-3.346h36.378l13.424-99.492 13.423 99.492h36.374c8.638 0 30.519 1.176 40.284 3.346 29.976 15.094 52.3 40.697 64.87 71.986a140 140 0 0 1 7.168 44.269h136.883Z" style="fill:#fff;stroke:#fff;stroke-width:1.99335"/></svg>