<?xml version="1.0" encoding="UTF-8" standalone="no"?>
<!-- Generator: Adobe Illustrator 15.1.0, SVG Export Plug-In . SVG Version: 6.00 Build 0)  -->

<svg
   version="1.1"
   id="Layer_1"
   x="0px"
   y="0px"
   width="150"
   height="149.86"
   viewBox="0 0 150 149.86"
   enable-background="new 0 0 155 155"
   xml:space="preserve"
   xmlns="http://www.w3.org/2000/svg"
   xmlns:svg="http://www.w3.org/2000/svg"><defs
   id="defs2" />
<g
   id="g2"
   transform="translate(-2.861,-2.567)">
	<path
   fill="#5d5e61"
   d="m 73.843,122.592 c 0.21,14.547 0.594,24.026 1.248,29.835 C 35.015,150.962 2.861,117.924 2.861,77.497 2.861,37.07 35.015,4.032 75.091,2.567 74.437,8.376 74.053,17.855 73.843,32.402 50.75,34.443 32.578,53.884 32.578,77.497 c 0,23.613 18.172,43.054 41.265,45.095 z m 79.018,-45.095 c 0,-40.427 -32.154,-73.465 -72.229,-74.93 0.654,5.809 1.038,15.288 1.248,29.835 23.092,2.041 41.265,21.481 41.265,45.095 0,23.614 -18.173,43.054 -41.265,45.095 -0.21,14.547 -0.594,24.026 -1.248,29.835 40.075,-1.465 72.229,-34.503 72.229,-74.93 z M 73.743,40.94 c -18.355,2.056 -32.675,17.661 -32.675,36.557 0,18.896 14.32,34.501 32.675,36.557 C 73.65,103.971 73.616,91.9 73.616,77.497 c 0,-14.403 0.034,-26.474 0.127,-36.557 z m 40.91,36.557 c 0,-18.896 -14.319,-34.501 -32.674,-36.557 0.093,10.083 0.127,22.154 0.127,36.557 0,14.403 -0.034,26.474 -0.127,36.557 18.355,-2.056 32.674,-17.661 32.674,-36.557 z"
   id="path1" />
	<path
   d="m 68.758,143.572 c 0.044,0.9 0.09,1.787 0.137,2.665 C 34.883,141.823 8.521,112.69 8.521,77.497 c 0,-35.193 26.362,-64.326 60.374,-68.74 -0.047,0.878 -0.093,1.765 -0.137,2.665 -0.212,4.272 -0.375,9.458 -0.498,16.051 -23.515,4.505 -41.343,25.216 -41.343,50.024 0,24.808 17.828,45.52 41.343,50.024 0.123,6.593 0.286,11.779 0.498,16.051 z m 78.443,-66.075 c 0,-35.193 -26.362,-64.326 -60.374,-68.74 0.047,0.878 0.093,1.765 0.137,2.665 0.212,4.272 0.375,9.458 0.498,16.051 23.515,4.505 41.343,25.216 41.343,50.024 0,24.808 -17.828,45.52 -41.343,50.024 -0.123,6.593 -0.286,11.778 -0.498,16.051 -0.044,0.9 -0.09,1.787 -0.137,2.665 34.012,-4.414 60.374,-33.547 60.374,-68.74 z m -38.208,0 c 0,-13.757 -8.927,-25.422 -21.301,-29.539 0.051,8.293 0.074,18.017 0.074,29.539 0,11.522 -0.023,21.246 -0.074,29.539 12.374,-4.117 21.301,-15.782 21.301,-29.539 z M 68.03,47.958 C 55.656,52.075 46.729,63.74 46.729,77.497 c 0,13.757 8.927,25.422 21.301,29.539 -0.051,-8.293 -0.074,-18.017 -0.074,-29.539 0,-11.522 0.023,-21.246 0.074,-29.539 z"
   id="path2" />
</g>
</svg>
