<?xml version="1.0" encoding="UTF-8" standalone="no"?>
<!-- Generator: Adobe Illustrator 15.1.0, SVG Export Plug-In . SVG Version: 6.00 Build 0)  -->

<svg
   version="1.1"
   id="Layer_1"
   x="0px"
   y="0px"
   width="150"
   height="149.86"
   viewBox="0 0 150 149.86"
   enable-background="new 0 0 155 155"
   xml:space="preserve"
   xmlns="http://www.w3.org/2000/svg"
   xmlns:svg="http://www.w3.org/2000/svg"><defs
   id="defs21" />
<g
   id="g21"
   transform="translate(-2.75,-2.234)">
	<path
   d="M 32.467,77.164 C 32.467,53.551 50.64,34.11 73.732,32.069 73.942,17.522 74.326,8.043 74.98,2.234 34.904,3.699 2.75,36.737 2.75,77.164 c 0,40.427 32.154,73.465 72.229,74.93 -0.654,-5.809 -1.038,-15.288 -1.248,-29.835 C 50.64,120.218 32.467,100.777 32.467,77.164 Z"
   id="path1" />
	<path
   d="m 152.75,77.164 c 0,-40.427 -32.154,-73.465 -72.229,-74.93 0.654,5.809 1.038,15.288 1.248,29.835 23.092,2.041 41.265,21.481 41.265,45.095 0,23.614 -18.173,43.054 -41.265,45.095 -0.21,14.547 -0.594,24.026 -1.248,29.835 40.075,-1.465 72.229,-34.503 72.229,-74.93 z"
   id="path2" />
	<path
   d="m 73.632,40.607 c -18.354,2.056 -32.675,17.661 -32.675,36.557 0,18.896 14.32,34.501 32.675,36.557 -0.093,-10.083 -0.127,-22.154 -0.127,-36.557 0,-14.403 0.034,-26.474 0.127,-36.557 z"
   id="path3" />
	<path
   d="m 114.543,77.164 c 0,-18.896 -14.32,-34.501 -32.675,-36.557 0.093,10.083 0.127,22.154 0.127,36.557 0,14.403 -0.034,26.474 -0.127,36.557 18.355,-2.056 32.675,-17.661 32.675,-36.557 z"
   id="path4" />
	<linearGradient
   id="SVGID_1_"
   gradientUnits="userSpaceOnUse"
   x1="8.4102001"
   y1="77.164101"
   x2="147.0898"
   y2="77.164101">
		<stop
   offset="0"
   style="stop-color:#BB2C26"
   id="stop4" />
		<stop
   offset="0.0504"
   style="stop-color:#BE3226"
   id="stop5" />
		<stop
   offset="0.1163"
   style="stop-color:#C64225"
   id="stop6" />
		<stop
   offset="0.1905"
   style="stop-color:#D35D24"
   id="stop7" />
		<stop
   offset="0.25"
   style="stop-color:#E07823"
   id="stop8" />
		<stop
   offset="0.2566"
   style="stop-color:#E17A23"
   id="stop9" />
		<stop
   offset="0.327"
   style="stop-color:#EE8B1F"
   id="stop10" />
		<stop
   offset="0.404"
   style="stop-color:#F5951E"
   id="stop11" />
		<stop
   offset="0.5"
   style="stop-color:#F7981D"
   id="stop12" />
		<stop
   offset="0.596"
   style="stop-color:#F5951E"
   id="stop13" />
		<stop
   offset="0.673"
   style="stop-color:#EE8B1F"
   id="stop14" />
		<stop
   offset="0.7434"
   style="stop-color:#E17A23"
   id="stop15" />
		<stop
   offset="0.75"
   style="stop-color:#E07823"
   id="stop16" />
		<stop
   offset="0.7672"
   style="stop-color:#DB6E23"
   id="stop17" />
		<stop
   offset="0.8266"
   style="stop-color:#CD5125"
   id="stop18" />
		<stop
   offset="0.8857"
   style="stop-color:#C33D25"
   id="stop19" />
		<stop
   offset="0.9439"
   style="stop-color:#BD3026"
   id="stop20" />
		<stop
   offset="1"
   style="stop-color:#BB2C26"
   id="stop21" />
	</linearGradient>
	<path
   fill="url(#SVGID_1_)"
   d="m 68.647,143.239 c 0.044,0.9 0.09,1.787 0.137,2.665 C 34.772,141.49 8.41,112.357 8.41,77.164 c 0,-35.193 26.362,-64.326 60.374,-68.74 -0.047,0.878 -0.093,1.765 -0.137,2.665 -0.212,4.272 -0.375,9.458 -0.498,16.051 -23.515,4.505 -41.343,25.216 -41.343,50.024 0,24.808 17.828,45.52 41.343,50.024 0.123,6.593 0.287,11.779 0.498,16.051 z M 147.09,77.164 c 0,-35.193 -26.362,-64.326 -60.374,-68.74 0.047,0.878 0.093,1.765 0.137,2.665 0.212,4.272 0.375,9.458 0.498,16.051 23.515,4.505 41.343,25.216 41.343,50.024 0,24.808 -17.828,45.52 -41.343,50.024 -0.123,6.593 -0.286,11.778 -0.498,16.051 -0.044,0.9 -0.09,1.787 -0.137,2.665 34.012,-4.414 60.374,-33.547 60.374,-68.74 z m -38.208,0 c 0,-13.757 -8.927,-25.422 -21.301,-29.539 0.051,8.293 0.074,18.017 0.074,29.539 0,11.522 -0.023,21.246 -0.074,29.539 12.374,-4.117 21.301,-15.782 21.301,-29.539 z M 67.919,47.625 c -12.374,4.117 -21.301,15.782 -21.301,29.539 0,13.757 8.927,25.422 21.301,29.539 -0.051,-8.293 -0.074,-18.017 -0.074,-29.539 0,-11.522 0.023,-21.246 0.074,-29.539 z"
   id="path21"
   style="fill:url(#SVGID_1_)" />
</g>
</svg>
