<?xml version="1.0" encoding="UTF-8" standalone="no"?>
<!-- Generator: Adobe Illustrator 15.1.0, SVG Export Plug-In . SVG Version: 6.00 Build 0)  -->

<svg
   version="1.1"
   id="Layer_1"
   x="0px"
   y="0px"
   width="150"
   height="149.86"
   viewBox="0 0 150 149.86"
   enable-background="new 0 0 155 155"
   xml:space="preserve"
   xmlns="http://www.w3.org/2000/svg"
   xmlns:svg="http://www.w3.org/2000/svg"><defs
   id="defs19" />
<g
   id="g19"
   transform="translate(-2.861,-2.234)">
	<path
   d="m 32.578,77.164 c 0,-23.613 18.173,-43.054 41.265,-45.095 0.21,-14.547 0.594,-24.026 1.248,-29.835 -40.076,1.465 -72.23,34.503 -72.23,74.93 0,40.427 32.154,73.465 72.23,74.93 -0.654,-5.809 -1.038,-15.288 -1.248,-29.835 C 50.75,120.218 32.578,100.777 32.578,77.164 Z"
   id="path1" />
	<path
   d="m 152.861,77.164 c 0,-40.427 -32.154,-73.465 -72.229,-74.93 0.654,5.809 1.038,15.288 1.248,29.835 23.092,2.041 41.265,21.481 41.265,45.095 0,23.614 -18.173,43.054 -41.265,45.095 -0.21,14.547 -0.594,24.026 -1.248,29.835 40.075,-1.465 72.229,-34.503 72.229,-74.93 z"
   id="path2" />
	<path
   d="m 73.743,40.607 c -18.355,2.056 -32.675,17.661 -32.675,36.557 0,18.896 14.32,34.501 32.675,36.557 -0.093,-10.083 -0.127,-22.154 -0.127,-36.557 0,-14.403 0.034,-26.474 0.127,-36.557 z"
   id="path3" />
	<path
   d="m 114.653,77.164 c 0,-18.896 -14.319,-34.501 -32.674,-36.557 0.093,10.083 0.127,22.154 0.127,36.557 0,14.403 -0.034,26.474 -0.127,36.557 18.355,-2.056 32.674,-17.661 32.674,-36.557 z"
   id="path4" />
	<linearGradient
   id="SVGID_1_"
   gradientUnits="userSpaceOnUse"
   x1="8.5209999"
   y1="77.164101"
   x2="147.2012"
   y2="77.164101">
		<stop
   offset="0"
   style="stop-color:#8D742F"
   id="stop4" />
		<stop
   offset="0.0775"
   style="stop-color:#937A35"
   id="stop5" />
		<stop
   offset="0.1787"
   style="stop-color:#A38A45"
   id="stop6" />
		<stop
   offset="0.25"
   style="stop-color:#B39A54"
   id="stop7" />
		<stop
   offset="0.2682"
   style="stop-color:#B9A059"
   id="stop8" />
		<stop
   offset="0.3351"
   style="stop-color:#CAB068"
   id="stop9" />
		<stop
   offset="0.4086"
   style="stop-color:#D4BA71"
   id="stop10" />
		<stop
   offset="0.5"
   style="stop-color:#D7BD74"
   id="stop11" />
		<stop
   offset="0.5914"
   style="stop-color:#D4BA71"
   id="stop12" />
		<stop
   offset="0.6649"
   style="stop-color:#CAB068"
   id="stop13" />
		<stop
   offset="0.7318"
   style="stop-color:#B9A059"
   id="stop14" />
		<stop
   offset="0.75"
   style="stop-color:#B39A54"
   id="stop15" />
		<stop
   offset="0.7526"
   style="stop-color:#B29953"
   id="stop16" />
		<stop
   offset="0.8368"
   style="stop-color:#9E853F"
   id="stop17" />
		<stop
   offset="0.9198"
   style="stop-color:#917833"
   id="stop18" />
		<stop
   offset="1"
   style="stop-color:#8D742F"
   id="stop19" />
	</linearGradient>
	<path
   fill="url(#SVGID_1_)"
   d="m 68.758,143.239 c 0.044,0.9 0.09,1.787 0.137,2.665 C 34.883,141.49 8.521,112.357 8.521,77.164 c 0,-35.193 26.362,-64.326 60.374,-68.74 -0.047,0.878 -0.093,1.765 -0.137,2.665 -0.212,4.272 -0.375,9.458 -0.498,16.051 -23.515,4.505 -41.343,25.216 -41.343,50.024 0,24.808 17.828,45.52 41.343,50.024 0.123,6.593 0.286,11.779 0.498,16.051 z m 78.443,-66.075 c 0,-35.193 -26.362,-64.326 -60.374,-68.74 0.047,0.878 0.093,1.765 0.137,2.665 0.212,4.272 0.375,9.458 0.498,16.051 23.515,4.505 41.343,25.216 41.343,50.024 0,24.808 -17.828,45.52 -41.343,50.024 -0.123,6.593 -0.286,11.778 -0.498,16.051 -0.044,0.9 -0.09,1.787 -0.137,2.665 34.012,-4.414 60.374,-33.547 60.374,-68.74 z m -38.208,0 c 0,-13.757 -8.927,-25.422 -21.301,-29.539 0.051,8.293 0.074,18.017 0.074,29.539 0,11.522 -0.023,21.246 -0.074,29.539 12.374,-4.117 21.301,-15.782 21.301,-29.539 z M 68.03,47.625 c -12.374,4.117 -21.301,15.782 -21.301,29.539 0,13.757 8.927,25.422 21.301,29.539 -0.051,-8.293 -0.074,-18.017 -0.074,-29.539 0,-11.522 0.023,-21.246 0.074,-29.539 z"
   id="path19"
   style="fill:url(#SVGID_1_)" />
</g>
</svg>
