<?xml version="1.0" encoding="UTF-8" standalone="no"?>
<!-- Generator: Adobe Illustrator 15.1.0, SVG Export Plug-In . SVG Version: 6.00 Build 0)  -->

<svg
   version="1.1"
   id="Layer_1"
   x="0px"
   y="0px"
   width="150"
   height="149.86"
   viewBox="0 0 150 149.86"
   enable-background="new 0 0 155 155"
   xml:space="preserve"
   xmlns="http://www.w3.org/2000/svg"
   xmlns:svg="http://www.w3.org/2000/svg"><defs
   id="defs17" />
<g
   id="g17"
   transform="translate(-2.75,-2.567)">
	<path
   d="m 73.731,122.592 c 0.21,14.547 0.594,24.026 1.248,29.835 C 34.904,150.962 2.75,117.924 2.75,77.497 2.75,37.07 34.904,4.032 74.979,2.567 74.325,8.376 73.941,17.855 73.731,32.402 50.64,34.443 32.467,53.884 32.467,77.497 c 0,23.613 18.173,43.054 41.264,45.095 z M 152.75,77.497 c 0,-40.427 -32.154,-73.465 -72.229,-74.93 0.654,5.809 1.038,15.288 1.248,29.835 23.092,2.041 41.265,21.481 41.265,45.095 0,23.614 -18.173,43.054 -41.265,45.095 -0.21,14.547 -0.594,24.026 -1.248,29.835 40.075,-1.465 72.229,-34.503 72.229,-74.93 z M 73.632,40.94 c -18.354,2.056 -32.675,17.661 -32.675,36.557 0,18.896 14.32,34.501 32.675,36.557 -0.093,-10.083 -0.127,-22.154 -0.127,-36.557 0,-14.403 0.034,-26.474 0.127,-36.557 z m 40.911,36.557 c 0,-18.896 -14.32,-34.501 -32.675,-36.557 0.093,10.083 0.127,22.154 0.127,36.557 0,14.403 -0.034,26.474 -0.127,36.557 18.355,-2.056 32.675,-17.661 32.675,-36.557 z"
   id="path1" />
	<linearGradient
   id="SVGID_1_"
   gradientUnits="userSpaceOnUse"
   x1="8.4102001"
   y1="77.497101"
   x2="147.0898"
   y2="77.497101">
		<stop
   offset="0"
   style="stop-color:#612C75"
   id="stop1" />
		<stop
   offset="0.0788"
   style="stop-color:#653279"
   id="stop2" />
		<stop
   offset="0.1817"
   style="stop-color:#714285"
   id="stop3" />
		<stop
   offset="0.25"
   style="stop-color:#7B5190"
   id="stop4" />
		<stop
   offset="0.2786"
   style="stop-color:#8C639D"
   id="stop5" />
		<stop
   offset="0.3259"
   style="stop-color:#A37BAE"
   id="stop6" />
		<stop
   offset="0.3763"
   style="stop-color:#B38CBA"
   id="stop7" />
		<stop
   offset="0.4314"
   style="stop-color:#BC96C1"
   id="stop8" />
		<stop
   offset="0.5"
   style="stop-color:#BF99C3"
   id="stop9" />
		<stop
   offset="0.5686"
   style="stop-color:#BC96C1"
   id="stop10" />
		<stop
   offset="0.6237"
   style="stop-color:#B38CBA"
   id="stop11" />
		<stop
   offset="0.6741"
   style="stop-color:#A37BAE"
   id="stop12" />
		<stop
   offset="0.7214"
   style="stop-color:#8C639D"
   id="stop13" />
		<stop
   offset="0.75"
   style="stop-color:#7B5190"
   id="stop14" />
		<stop
   offset="0.8345"
   style="stop-color:#6D3D81"
   id="stop15" />
		<stop
   offset="0.9187"
   style="stop-color:#643078"
   id="stop16" />
		<stop
   offset="1"
   style="stop-color:#612C75"
   id="stop17" />
	</linearGradient>
	<path
   fill="url(#SVGID_1_)"
   d="m 68.647,143.572 c 0.044,0.9 0.09,1.787 0.137,2.665 C 34.772,141.823 8.41,112.69 8.41,77.497 c 0,-35.193 26.362,-64.326 60.374,-68.74 -0.047,0.878 -0.093,1.765 -0.137,2.665 -0.212,4.272 -0.375,9.458 -0.498,16.051 -23.515,4.505 -41.343,25.216 -41.343,50.024 0,24.808 17.828,45.52 41.343,50.024 0.123,6.593 0.287,11.779 0.498,16.051 z M 147.09,77.497 c 0,-35.193 -26.362,-64.326 -60.374,-68.74 0.047,0.878 0.093,1.765 0.137,2.665 0.212,4.272 0.375,9.458 0.498,16.051 23.515,4.505 41.343,25.216 41.343,50.024 0,24.808 -17.828,45.52 -41.343,50.024 -0.123,6.593 -0.286,11.778 -0.498,16.051 -0.044,0.9 -0.09,1.787 -0.137,2.665 34.012,-4.414 60.374,-33.547 60.374,-68.74 z m -38.208,0 c 0,-13.757 -8.927,-25.422 -21.301,-29.539 0.051,8.293 0.074,18.017 0.074,29.539 0,11.522 -0.023,21.246 -0.074,29.539 12.374,-4.117 21.301,-15.782 21.301,-29.539 z M 67.919,47.958 C 55.545,52.075 46.618,63.74 46.618,77.497 c 0,13.757 8.927,25.422 21.301,29.539 -0.051,-8.293 -0.074,-18.017 -0.074,-29.539 0,-11.522 0.023,-21.246 0.074,-29.539 z"
   id="path17"
   style="fill:url(#SVGID_1_)" />
</g>
</svg>
