<?xml version="1.0" encoding="UTF-8" standalone="no"?>
<!-- Generator: Adobe Illustrator 15.1.0, SVG Export Plug-In . SVG Version: 6.00 Build 0)  -->

<svg
   version="1.1"
   id="Layer_1"
   x="0px"
   y="0px"
   width="150.00101"
   height="149.86"
   viewBox="0 0 150.00101 149.86"
   enable-background="new 0 0 155 155"
   xml:space="preserve"
   xmlns="http://www.w3.org/2000/svg"
   xmlns:svg="http://www.w3.org/2000/svg"><defs
   id="defs21" />
<g
   id="g21"
   transform="translate(-2.972,-2.234)">
	<path
   d="m 32.689,77.164 c 0,-23.613 18.173,-43.054 41.265,-45.095 0.21,-14.547 0.594,-24.026 1.248,-29.835 -40.076,1.465 -72.23,34.503 -72.23,74.93 0,40.427 32.154,73.465 72.229,74.93 -0.654,-5.809 -1.038,-15.288 -1.248,-29.835 C 50.862,120.218 32.689,100.777 32.689,77.164 Z"
   id="path1" />
	<path
   d="m 152.973,77.164 c 0,-40.427 -32.154,-73.465 -72.23,-74.93 0.654,5.809 1.039,15.288 1.248,29.835 23.092,2.041 41.266,21.481 41.266,45.095 0,23.614 -18.174,43.054 -41.266,45.095 -0.209,14.547 -0.594,24.026 -1.248,29.835 40.075,-1.465 72.23,-34.503 72.23,-74.93 z"
   id="path2" />
	<path
   d="M 73.854,40.607 C 55.5,42.663 41.179,58.269 41.179,77.164 c 0,18.895 14.32,34.501 32.675,36.557 -0.093,-10.083 -0.127,-22.154 -0.127,-36.557 0,-14.403 0.034,-26.474 0.127,-36.557 z"
   id="path3" />
	<path
   d="m 114.764,77.164 c 0,-18.896 -14.318,-34.501 -32.674,-36.557 0.094,10.083 0.127,22.154 0.127,36.557 0,14.403 -0.033,26.474 -0.127,36.557 18.355,-2.056 32.674,-17.661 32.674,-36.557 z"
   id="path4" />
	<linearGradient
   id="SVGID_1_"
   gradientUnits="userSpaceOnUse"
   x1="8.6323004"
   y1="77.164101"
   x2="147.3125"
   y2="77.164101">
		<stop
   offset="0"
   style="stop-color:#626E77"
   id="stop4" />
		<stop
   offset="0.0508"
   style="stop-color:#67747D"
   id="stop5" />
		<stop
   offset="0.1173"
   style="stop-color:#74838D"
   id="stop6" />
		<stop
   offset="0.1921"
   style="stop-color:#8B9DA8"
   id="stop7" />
		<stop
   offset="0.25"
   style="stop-color:#A0B6C2"
   id="stop8" />
		<stop
   offset="0.2534"
   style="stop-color:#A1B7C3"
   id="stop9" />
		<stop
   offset="0.3247"
   style="stop-color:#ADC6D4"
   id="stop10" />
		<stop
   offset="0.4027"
   style="stop-color:#B5CEDE"
   id="stop11" />
		<stop
   offset="0.5"
   style="stop-color:#B7D1E1"
   id="stop12" />
		<stop
   offset="0.5973"
   style="stop-color:#B5CEDE"
   id="stop13" />
		<stop
   offset="0.6753"
   style="stop-color:#ADC6D4"
   id="stop14" />
		<stop
   offset="0.7466"
   style="stop-color:#A1B7C3"
   id="stop15" />
		<stop
   offset="0.75"
   style="stop-color:#A0B6C2"
   id="stop16" />
		<stop
   offset="0.7657"
   style="stop-color:#99ADB9"
   id="stop17" />
		<stop
   offset="0.8254"
   style="stop-color:#81929C"
   id="stop18" />
		<stop
   offset="0.8849"
   style="stop-color:#707E88"
   id="stop19" />
		<stop
   offset="0.9435"
   style="stop-color:#65727B"
   id="stop20" />
		<stop
   offset="1"
   style="stop-color:#626E77"
   id="stop21" />
	</linearGradient>
	<path
   fill="url(#SVGID_1_)"
   d="m 68.87,143.239 c 0.044,0.9 0.09,1.787 0.137,2.665 C 34.995,141.49 8.633,112.357 8.633,77.164 c 0,-35.193 26.362,-64.326 60.374,-68.74 -0.047,0.878 -0.093,1.765 -0.137,2.665 -0.212,4.272 -0.375,9.458 -0.498,16.051 -23.515,4.505 -41.343,25.216 -41.343,50.024 0,24.808 17.828,45.52 41.343,50.024 0.123,6.593 0.286,11.779 0.498,16.051 z m 78.443,-66.075 c 0,-35.193 -26.363,-64.326 -60.375,-68.74 0.047,0.878 0.094,1.765 0.137,2.665 0.213,4.272 0.375,9.458 0.498,16.051 23.516,4.505 41.344,25.216 41.344,50.024 0,24.808 -17.828,45.52 -41.344,50.024 -0.123,6.593 -0.285,11.778 -0.498,16.051 -0.043,0.9 -0.09,1.787 -0.137,2.665 34.011,-4.414 60.375,-33.547 60.375,-68.74 z m -38.209,0 c 0,-13.757 -8.926,-25.422 -21.301,-29.539 0.051,8.293 0.074,18.017 0.074,29.539 0,11.522 -0.023,21.246 -0.074,29.539 12.375,-4.117 21.301,-15.782 21.301,-29.539 z M 68.141,47.625 C 55.767,51.742 46.84,63.407 46.84,77.164 c 0,13.757 8.927,25.422 21.301,29.539 -0.051,-8.293 -0.074,-18.017 -0.074,-29.539 0,-11.522 0.023,-21.246 0.074,-29.539 z"
   id="path21"
   style="fill:url(#SVGID_1_)" />
</g>
</svg>
