<?xml version="1.0" encoding="UTF-8" standalone="no"?>
<!-- Generator: Adobe Illustrator 15.1.0, SVG Export Plug-In . SVG Version: 6.00 Build 0)  -->

<svg
   version="1.1"
   id="Layer_1"
   x="0px"
   y="0px"
   width="150"
   height="149.86"
   viewBox="0 0 150 149.86"
   enable-background="new 0 0 155 155"
   xml:space="preserve"
   xmlns="http://www.w3.org/2000/svg"
   xmlns:svg="http://www.w3.org/2000/svg"><defs
   id="defs1" />
<g
   id="g1"
   transform="translate(-2.973,-2.567)">
	<path
   d="m 73.954,122.592 c 0.21,14.547 0.594,24.026 1.248,29.835 C 35.127,150.962 2.973,117.924 2.973,77.497 2.973,37.07 35.126,4.032 75.202,2.567 74.548,8.376 74.164,17.855 73.954,32.402 50.862,34.443 32.689,53.883 32.689,77.497 c 0,23.614 18.173,43.054 41.265,45.095 z m 79.019,-45.095 c 0,-40.427 -32.154,-73.465 -72.23,-74.93 0.654,5.809 1.039,15.288 1.248,29.835 23.092,2.041 41.266,21.481 41.266,45.095 0,23.614 -18.174,43.054 -41.266,45.095 -0.209,14.547 -0.594,24.026 -1.248,29.835 40.075,-1.465 72.23,-34.503 72.23,-74.93 z M 73.854,40.94 C 55.5,42.996 41.179,58.602 41.179,77.497 c 0,18.895 14.32,34.501 32.675,36.557 -0.093,-10.083 -0.127,-22.154 -0.127,-36.557 0,-14.403 0.034,-26.474 0.127,-36.557 z m 40.91,36.557 c 0,-18.896 -14.318,-34.501 -32.674,-36.557 0.094,10.083 0.127,22.154 0.127,36.557 0,14.403 -0.033,26.474 -0.127,36.557 18.355,-2.056 32.674,-17.661 32.674,-36.557 z"
   id="path1" />
</g>
</svg>
