<svg xmlns="http://www.w3.org/2000/svg" xml:space="preserve" width="1000" height="1000" style="clip-rule:evenodd;fill-rule:evenodd;stroke-linejoin:round;stroke-miterlimit:2"><path d="M.945-1.89h1000v1000H.945z" style="fill:none" transform="translate(-.945 1.89)"/><path d="M929.178 560.502S853.749 894.821 500 979.362c0 0-326.007-48.326-428.569-418.86 0 0 124.361-27.197 127.426-179.313 3.065-152.117-141.795-179.314-141.795-179.314L212.392 20.84h574.979l155.351 181.035S801.18 236.582 800.487 381.189c-.692 144.607 128.691 179.313 128.691 179.313" style="fill:#fff" transform="translate(-11.705 .658)"/><path d="M121.973 185.599 213.08 79.485s51.734 69.105 85.645 158.897c33.91 89.79 71.557 297.06 18.221 510.51 0 0-2.868 29.95-24.407 88.414 0 0-128.673-91.613-175.823-249.37 0 0 77.37-34.411 107.477-132.607 0 0 51.453-180-102.219-269.73M853.476 185.599 762.37 79.485s-51.734 69.105-85.645 158.897c-33.91 89.79-71.557 297.06-18.221 510.51 0 0 2.868 29.95 24.407 88.414 0 0 128.673-91.613 175.823-249.37 0 0-77.369-34.411-107.477-132.607 0 0-51.453-180 102.219-269.73"/><path d="M255.903 67.637h464.36s-46.987 62.265-77.649 149.045c-30.663 86.78-27.77 528.204-27.77 528.204s13.227 66.752 32.724 116.745c0 0-68.455 45.808-159.273 70.732 0 0-78.38-18.34-159.762-70.835 0 0 33.748-103.934 32.932-118.223l-27.696-527.28s-26.873-76.662-77.866-148.388"/><path d="M102.341 391.289S347.251 171.091 500 166.912c0 0 98.635-29.436 396.147 223.4 0 0-152.21 55.047-201.447 132.794l34.245 63.476s-74.006-4.881-55.512 38.273c0 0 21.058 26.91 47.006-10.615 0 0 14.371-31.936 16.367-44.91 0 0 1.996-10.18 20.959-12.376 0 0 21.956-1.796 25.349 26.747s9.927 52.037-6.649 92.426-59.078 67.483-106.717 71.966c0 0-74.54 9.808-117.695-57.166-43.156-66.975 7.285-142.916 7.285-142.916l-46.237-28.023s79.304-35.589 59.688-100.602-84.839-54.924-84.839-54.924-48.269 2.241-62.56 60.249c-14.292 58.007 55.765 93.109 60.529 95.277l-46.238 28.509s47.061 68.795 8.968 140.394c0 0-21.511 40.98-74.958 55.586s-123.493-6.823-150.382-69.049 1.328-111.358 1.328-111.358 29.213-21.909 40.168 11.619c10.955 33.529 17.262 52.12 36.185 58.095 18.922 5.975 26.889-13.279 26.889-13.279s4.648-25.229-19.254-31.537c-9.463-2.497-17.508-2.631-23.579-2.853-9.263-.338-14.147.187-14.147.187l33.312-62.096s-52.691-86.6-201.87-132.917" style="fill:#fff" transform="translate(-11.705 .658)"/><path d="M809.601 379.318s-127.68 60.322-168.934 144.45l18.44 33.77s-47.097 20.425-33.934 71.957 72.817 41.169 72.817 41.169 25.486-7.001 40.05-35.568c0 0-1.12 33.328-28.567 56.293s-61.054 21.845-61.054 21.845-41.45 1.12-71.697-33.327c-30.247-34.448-10.362-85.7-10.362-85.7s5.601-22.405 33.607-56.853l-32.207-19.885s58.877-53.204 17.644-133.03c0 0-38.02-73.938-126.883-51.455-88.862 22.483-82.438 116.163-82.438 116.163s2.603 42.412 30.706 68.11l-32.54 20.524s60.491 59.974 36.171 125.533c0 0-25.73 55.689-93.756 49.345s-78.6-77.19-78.6-77.19 21.501 46.525 71.198 34.189c0 0 56.747-9.516 40.886-75.075 0 0-4.934-23.615-34.894-37.362l19.738-33.484S290.727 438.6 166.77 379.482c0 0 196.451-174.107 321.415-174.96 124.964-.852 321.416 174.796 321.416 174.796"/></svg>