<svg xmlns="http://www.w3.org/2000/svg" xml:space="preserve" style="fill-rule:evenodd;clip-rule:evenodd;stroke-linejoin:round;stroke-miterlimit:2" viewBox="0 0 1000 1000"><path d="M2416.33 0h1000v1000h-1000z" style="fill:none" transform="translate(-2416.333)"/><path d="M932.305 561.16s-75.43 334.319-429.178 418.86c0 0-326.007-48.326-428.57-418.86 0 0 124.362-27.197 127.427-179.313C205.049 229.73 60.189 202.533 60.189 202.533l155.33-181.035h574.979l155.35 181.035S804.308 237.24 803.615 381.847c-.692 144.607 128.69 179.313 128.69 179.313"/><path d="m133.678 184.941 91.106-106.114s51.734 69.105 85.645 158.897 71.557 297.061 18.221 510.511c0 0-2.868 29.95-24.407 88.413 0 0-128.673-91.613-175.823-249.37 0 0 77.369-34.411 107.477-132.607 0 0 51.453-179.999-102.219-269.73" style="fill:url(#a)" transform="translate(3.127 .658)"/><path d="m133.678 184.941 91.106-106.114s51.734 69.105 85.645 158.897 71.557 297.061 18.221 510.511c0 0-2.868 29.95-24.407 88.413 0 0-128.673-91.613-175.823-249.37 0 0 77.369-34.411 107.477-132.607 0 0 51.453-179.999-102.219-269.73" style="fill:url(#b)" transform="matrix(-1 0 0 1 1001.987 .658)"/><path d="M267.608 66.979h464.359s-46.986 62.265-77.648 149.045c-30.663 86.78-27.77 528.204-27.77 528.204s13.227 66.752 32.724 116.745c0 0-68.455 45.808-159.273 70.732 0 0-78.381-18.34-159.762-70.835 0 0 33.748-103.934 32.932-118.223l-27.696-527.279s-26.873-76.663-77.866-148.389" style="fill:url(#c)" transform="translate(3.127 .658)"/><path d="M105.468 391.947s244.91-220.198 397.659-224.377c0 0 98.635-29.436 396.147 223.4 0 0-152.21 55.047-201.447 132.794l34.245 63.476s-74.006-4.881-55.512 38.273c0 0 21.058 26.91 47.006-10.615 0 0 14.37-31.936 16.367-44.91 0 0 1.996-10.18 20.959-12.376 0 0 21.956-1.796 25.349 26.747s9.927 52.037-6.65 92.426c-16.575 40.389-59.077 67.483-106.716 71.966 0 0-74.54 9.808-117.695-57.166-43.156-66.975 7.285-142.916 7.285-142.916l-46.237-28.023s79.304-35.59 59.688-100.602c-19.616-65.013-84.84-54.924-84.84-54.924s-48.268 2.24-62.56 60.249c-14.291 58.007 55.766 93.109 60.53 95.277l-46.238 28.509s47.06 68.795 8.968 140.394c0 0-21.511 40.98-74.958 55.586s-123.493-6.823-150.382-69.05c-26.89-62.225 1.328-111.357 1.328-111.357s29.213-21.91 40.168 11.619 17.262 52.12 36.185 58.095c18.922 5.975 26.889-13.28 26.889-13.28s4.648-25.228-19.254-31.536c-9.463-2.497-17.508-2.631-23.58-2.853-9.262-.338-14.146.187-14.146.187l33.312-62.096s-52.691-86.6-201.87-132.917"/><path d="M821.306 378.66s-127.681 60.322-168.934 144.451l18.439 33.769s-47.096 20.425-33.933 71.957 72.817 41.169 72.817 41.169 25.486-7.001 40.049-35.568c0 0-1.12 33.328-28.566 56.293-27.447 22.965-61.054 21.845-61.054 21.845s-41.45 1.12-71.697-33.327c-30.247-34.448-10.362-85.7-10.362-85.7s5.601-22.405 33.607-56.853l-32.207-19.885s58.877-53.204 17.644-133.03c0 0-38.021-73.938-126.883-51.455s-82.438 116.163-82.438 116.163 2.603 42.412 30.706 68.111l-32.54 20.523s60.491 59.974 36.171 125.533c0 0-25.73 55.689-93.756 49.345s-78.6-77.19-78.6-77.19S271.27 681.336 320.967 669c0 0 56.747-9.516 40.886-75.075 0 0-4.934-23.615-34.894-37.362l19.738-33.484s-44.265-85.137-168.222-144.255c0 0 196.451-174.107 321.415-174.96 124.964-.852 321.416 174.796 321.416 174.796" style="fill:#fff" transform="translate(3.127 .658)"/><defs><linearGradient id="a" x1="0" x2="1" y1="0" y2="0" gradientTransform="rotate(180 177.649 186.22)scale(664.516)" gradientUnits="userSpaceOnUse"><stop offset="0" style="stop-color:#8d742f;stop-opacity:1"/><stop offset=".07" style="stop-color:#967d38;stop-opacity:1"/><stop offset=".18" style="stop-color:#ae954f;stop-opacity:1"/><stop offset=".2" style="stop-color:#b39a54;stop-opacity:1"/><stop offset=".22" style="stop-color:#b9a059;stop-opacity:1"/><stop offset=".3" style="stop-color:#cab068;stop-opacity:1"/><stop offset=".39" style="stop-color:#d4ba71;stop-opacity:1"/><stop offset=".5" style="stop-color:#d7bd74;stop-opacity:1"/><stop offset=".61" style="stop-color:#d4ba71;stop-opacity:1"/><stop offset=".7" style="stop-color:#cab068;stop-opacity:1"/><stop offset=".78" style="stop-color:#b9a059;stop-opacity:1"/><stop offset=".8" style="stop-color:#b39a54;stop-opacity:1"/><stop offset=".86" style="stop-color:#a38a45;stop-opacity:1"/><stop offset=".94" style="stop-color:#937a35;stop-opacity:1"/><stop offset="1" style="stop-color:#8d742f;stop-opacity:1"/></linearGradient><linearGradient id="b" x1="0" x2="1" y1="0" y2="0" gradientTransform="rotate(180 177.649 186.22)scale(664.516)" gradientUnits="userSpaceOnUse"><stop offset="0" style="stop-color:#8d742f;stop-opacity:1"/><stop offset=".07" style="stop-color:#967d38;stop-opacity:1"/><stop offset=".18" style="stop-color:#ae954f;stop-opacity:1"/><stop offset=".2" style="stop-color:#b39a54;stop-opacity:1"/><stop offset=".22" style="stop-color:#b9a059;stop-opacity:1"/><stop offset=".3" style="stop-color:#cab068;stop-opacity:1"/><stop offset=".39" style="stop-color:#d4ba71;stop-opacity:1"/><stop offset=".5" style="stop-color:#d7bd74;stop-opacity:1"/><stop offset=".61" style="stop-color:#d4ba71;stop-opacity:1"/><stop offset=".7" style="stop-color:#cab068;stop-opacity:1"/><stop offset=".78" style="stop-color:#b9a059;stop-opacity:1"/><stop offset=".8" style="stop-color:#b39a54;stop-opacity:1"/><stop offset=".86" style="stop-color:#a38a45;stop-opacity:1"/><stop offset=".94" style="stop-color:#937a35;stop-opacity:1"/><stop offset="1" style="stop-color:#8d742f;stop-opacity:1"/></linearGradient><linearGradient id="c" x1="0" x2="1" y1="0" y2="0" gradientTransform="rotate(90 263.51 236.49)scale(993.774)" gradientUnits="userSpaceOnUse"><stop offset="0" style="stop-color:#8d742f;stop-opacity:1"/><stop offset=".07" style="stop-color:#967d38;stop-opacity:1"/><stop offset=".18" style="stop-color:#ae954f;stop-opacity:1"/><stop offset=".2" style="stop-color:#b39a54;stop-opacity:1"/><stop offset=".22" style="stop-color:#b9a059;stop-opacity:1"/><stop offset=".3" style="stop-color:#cab068;stop-opacity:1"/><stop offset=".39" style="stop-color:#d4ba71;stop-opacity:1"/><stop offset=".5" style="stop-color:#d7bd74;stop-opacity:1"/><stop offset=".61" style="stop-color:#d4ba71;stop-opacity:1"/><stop offset=".7" style="stop-color:#cab068;stop-opacity:1"/><stop offset=".78" style="stop-color:#b9a059;stop-opacity:1"/><stop offset=".8" style="stop-color:#b39a54;stop-opacity:1"/><stop offset=".86" style="stop-color:#a38a45;stop-opacity:1"/><stop offset=".94" style="stop-color:#937a35;stop-opacity:1"/><stop offset="1" style="stop-color:#8d742f;stop-opacity:1"/></linearGradient></defs></svg>