<svg xmlns="http://www.w3.org/2000/svg" xml:space="preserve" width="1000" height="1000" style="clip-rule:evenodd;fill-rule:evenodd;stroke-linejoin:round;stroke-miterlimit:2"><path d="M4832.33 0h1000v1000h-1000z" style="fill:none" transform="translate(-4832.33)"/><path d="M206.474 361.921C197.557 226.743 65.102 201.875 65.102 201.875L220.432 20.84H795.41l155.35 181.035S822.078 233.429 809.51 361.721a1257 1257 0 0 0-41.092-32.681c10.662-50.413 38.829-105.575 104.804-144.099L782.115 78.827s-51.734 69.105-85.645 158.897c-3.714 9.836-7.474 21.082-11.154 33.592-10.244-6.38-20.723-12.611-31.326-18.545 2.467-15.372 5.243-27.902 8.369-36.747 30.662-86.78 77.648-149.045 77.648-149.045h-464.36c50.994 71.726 77.867 148.389 77.867 148.389l2.19 41.697a818 818 0 0 0-25.745 15.398c-3.787-12.97-7.662-24.603-11.49-34.739-33.911-89.792-85.645-158.897-85.645-158.897l-91.106 106.114c66.436 38.793 94.534 94.458 105.025 145.156a1276 1276 0 0 0-40.27 31.824m602.158 27.545c4.165 137.661 128.586 171.036 128.586 171.036s-75.43 334.319-429.178 418.86c0 0-326.007-48.326-428.57-418.86 0 0 120.08-26.26 127.159-171.503 16.178 8.669 30.822 17.728 44.03 26.869-2.397 23.673-6.722 38.803-6.722 38.803-30.108 98.196-107.477 132.607-107.477 132.607 47.15 157.757 175.823 249.37 175.823 249.37 21.539-58.463 24.407-88.413 24.407-88.413a850 850 0 0 0 8.115-35.753c13.212.269 24.677-1.857 34.538-5.366l1.867 35.531c.816 14.289-32.932 118.223-32.932 118.223 81.38 52.495 159.762 70.835 159.762 70.835 90.818-24.924 159.273-70.732 159.273-70.732-19.497-49.993-32.724-116.745-32.724-116.745s-.094-14.382-.07-38.464c18.588 7.219 33.645 6.812 33.645 6.812s.702.024 1.988-.006a850 850 0 0 0 8.097 35.665s2.868 29.95 24.407 88.413c0 0 128.673-91.613 175.823-249.37 0 0-77.37-34.411-107.477-132.607 0 0-4.236-14.819-6.647-38.073 16.948-11.476 32.588-20.671 44.277-27.132M653.056 578.444c1.379 25.284 3.783 51.138 7.396 77.342-6.82-6.207-12.451-14.881-15.534-26.949-5.713-22.366-.074-38.873 8.138-50.393m-298.731 78.508c3.732-26.809 6.196-53.255 7.59-79.103 6.46 8.814 7.978 16.076 7.978 16.076 8.162 33.736-2.903 52.632-15.568 63.027"/><path d="M110.38 391.289s244.91-220.198 397.66-224.377c0 0 98.635-29.436 396.147 223.4 0 0-152.21 55.047-201.447 132.794l34.245 63.476s-74.006-4.881-55.512 38.273c0 0 21.058 26.91 47.006-10.615 0 0 14.37-31.936 16.367-44.91 0 0 1.996-10.18 20.959-12.376 0 0 21.956-1.796 25.349 26.747s9.927 52.037-6.65 92.426c-16.575 40.389-59.077 67.483-106.716 71.966 0 0-74.54 9.808-117.695-57.166-43.156-66.975 7.285-142.916 7.285-142.916l-46.237-28.023s79.304-35.589 59.688-100.602-84.84-54.924-84.84-54.924-48.268 2.241-62.56 60.249c-14.291 58.007 55.766 93.109 60.53 95.277l-46.238 28.509s47.06 68.795 8.968 140.394c0 0-21.511 40.98-74.958 55.586s-123.493-6.823-150.382-69.049 1.328-111.358 1.328-111.358 29.213-21.909 40.168 11.619c10.955 33.529 17.262 52.12 36.185 58.095 18.922 5.975 26.889-13.279 26.889-13.279s4.648-25.229-19.254-31.537c-9.463-2.497-17.508-2.631-23.58-2.853-9.262-.338-14.146.187-14.146.187l33.312-62.096s-52.691-86.6-201.87-132.917m718.966-12.629S632.894 203.012 507.93 203.864s-321.415 174.96-321.415 174.96c123.957 59.118 168.222 144.255 168.222 144.255l-19.738 33.484c29.96 13.747 34.894 37.362 34.894 37.362C385.753 659.484 329.007 669 329.007 669c-49.697 12.336-71.198-34.189-71.198-34.189s10.574 70.846 78.6 77.19 93.756-49.345 93.756-49.345c24.32-65.559-36.171-125.533-36.171-125.533l32.54-20.523c-28.103-25.699-30.706-68.111-30.706-68.111s-6.424-93.68 82.438-116.163 126.883 51.455 126.883 51.455c41.233 79.826-17.644 133.03-17.644 133.03l32.207 19.885c-28.006 34.448-33.607 56.853-33.607 56.853s-19.885 51.252 10.362 85.7 71.697 33.327 71.697 33.327 33.607 1.12 61.054-21.845c27.446-22.965 28.566-56.293 28.566-56.293-14.563 28.567-40.05 35.568-40.05 35.568s-59.653 10.363-72.816-41.169 33.933-71.957 33.933-71.957l-18.44-33.769c41.254-84.129 168.935-144.451 168.935-144.451"/></svg>