<svg xmlns="http://www.w3.org/2000/svg" xml:space="preserve" style="fill-rule:evenodd;clip-rule:evenodd;stroke-linejoin:round;stroke-miterlimit:2" viewBox="0 0 1000 1000"><path d="M.945-1.89h1000v1000H.945z" style="fill:none" transform="translate(-.945 1.89)"/><circle cx="522.565" cy="494.184" r="370.879" style="fill:#feffff" transform="matrix(1.25175 0 0 1.25757 -124.155 -126.362)"/><path d="M529.65 71.703c232.583 0 421.412 188.828 421.412 421.412s-188.83 421.41-421.412 421.41c-232.583 0-421.411-188.827-421.411-421.41S297.067 71.703 529.649 71.703m.62 47.735c-207.266 0-375.54 167.996-375.54 374.92s168.274 374.92 375.54 374.92c207.269 0 375.543-167.996 375.543-374.92s-168.274-374.92-375.542-374.92"/><circle cx="700.871" cy="622.372" r="363.691" transform="matrix(.97683 0 0 .9769 -154.355 -113.048)"/><path d="M60.422 232.606h414.607v537.928H59.538S20.199 697.68 5.613 629.532h79.562S66.168 575.53 67.494 494.199s19.007-121.553 19.007-121.553H4.729s22.542-88.69 55.693-140.04m70.05 139.566c-46.064 152.901.476 258.247.476 258.247h108.931c12.207-2.859 14.475-17.629 14.475-17.629v-54.318s-27.159-12.388-30.017-56.307 28.588-56.14 28.588-56.14V385.99c-3.812-9.529-13.046-13.818-13.046-13.818z" style="fill:#feffff" transform="translate(-1.357 -6.568)"/><path d="M372.776 432.639s24.468-69.302 95.663-96.417c0 0-6.465-52.22-6.13-80.672H79.365s-30.461 56.906-34.813 80.338h193.97s32.985-.712 44.7 40.503v237.064s-6.111 38.158-42.086 42.39h-196.8s12.344 43.849 34.44 77.9h385.069s-5.606-36.97 7.296-79.904c0 0-66.254-18.808-98.753-97.533-32.5-78.726.388-123.67.388-123.67"/><path d="M469.796 344.848s.153 1.39-6.966-82.514c0 0 1.687-67.632 69.238-70.683s68.06 74.242 68.06 74.242-3.56 57.97-8.136 76.277c-4.577 18.306-9.662 33.053-9.662 33.053l-27.968 65.089H500s-29.34-77.53-30.204-95.464" style="fill:#feffff" transform="translate(-1.357 -6.568)"/><path d="M469.796 344.848s.153 1.39-6.966-82.514c0 0 1.687-67.632 69.238-70.683s68.06 74.242 68.06 74.242-3.56 57.97-8.136 76.277c-4.577 18.306-9.662 33.053-9.662 33.053l-27.968 65.089H500s-29.34-77.53-30.204-95.464" style="fill:#feffff" transform="matrix(1 0 0 -1 -1.357 996.202)"/><path d="M469.796 344.848s.153 1.39-6.966-82.514c0 0 1.687-67.632 69.238-70.683s68.06 74.242 68.06 74.242-3.56 57.97-8.136 76.277c-4.577 18.306-9.662 33.053-9.662 33.053l-27.968 65.089H500s-29.34-77.53-30.204-95.464" style="fill:#feffff" transform="rotate(90 534.11 497.576)"/><path d="M469.796 344.848s.153 1.39-6.966-82.514c0 0 1.687-67.632 69.238-70.683s68.06 74.242 68.06 74.242-3.56 57.97-8.136 76.277c-4.577 18.306-9.662 33.053-9.662 33.053l-27.968 65.089H500s-29.34-77.53-30.204-95.464" style="fill:#feffff" transform="matrix(0 1 1 0 29.296 -35.882)"/><circle cx="604.132" cy="556.252" r="183.178" style="fill:#feffff" transform="matrix(.92988 0 0 .91955 -31.194 -15.904)"/><path d="M547.94 403.518s15.765-73.608 18.884-132.52-36.458-53.714-36.458-53.714-39.435-5.198-37.01 53.02c2.427 58.219 18.076 123.408 19.435 133.438 0 0 15.92-7.012 35.15-.224M548.527 585.367s15.764 73.608 18.883 132.52c3.12 58.912-36.458 53.714-36.458 53.714s-39.435 5.198-37.009-53.02 18.075-123.408 19.434-133.438c0 0 15.921 7.012 35.15.224"/><path d="M549.298 410.086s15.764-73.608 18.883-132.52-36.458-53.714-36.458-53.714-39.435-5.198-37.009 53.021 18.075 123.407 19.434 133.437c0 0 15.921-7.012 35.15-.224" style="fill:url(#a)" transform="rotate(-90 525.918 498.993)"/><path d="M439.435 476.652s-73.608-15.764-132.52-18.883-53.714 36.458-53.714 36.458-5.198 39.435 53.021 37.01c58.218-2.427 123.407-18.076 133.437-19.435 0 0-7.012-15.92-.224-35.15M621.909 476.652s73.608-15.764 132.52-18.883 53.714 36.458 53.714 36.458 5.198 39.435-53.021 37.01c-58.218-2.427-123.407-18.076-133.437-19.435 0 0 7.012-15.92.224-35.15"/><circle cx="549.158" cy="495.062" r="83.616" style="fill:#feffff" transform="translate(-83.197 -58.475)scale(1.11791)"/><circle cx="543.87" cy="510.008" r="56.367" transform="matrix(1.09505 0 0 1.09699 -65.402 -65.002)"/><defs><linearGradient id="a" x1="0" x2="1" y1="0" y2="0" gradientTransform="matrix(-600.073 904.397 -805.8 -534.653 839.919 29.62)" gradientUnits="userSpaceOnUse"><stop offset="0" style="stop-color:#bb2c26;stop-opacity:1"/><stop offset=".04" style="stop-color:#bf3526;stop-opacity:1"/><stop offset=".11" style="stop-color:#cb4d25;stop-opacity:1"/><stop offset=".19" style="stop-color:#de7523;stop-opacity:1"/><stop offset=".21" style="stop-color:#e17a23;stop-opacity:1"/><stop offset=".29" style="stop-color:#ee8b1f;stop-opacity:1"/><stop offset=".38" style="stop-color:#f5951e;stop-opacity:1"/><stop offset=".5" style="stop-color:#ff9915;stop-opacity:1"/><stop offset=".62" style="stop-color:#f5951e;stop-opacity:1"/><stop offset=".71" style="stop-color:#ee8b1f;stop-opacity:1"/><stop offset=".79" style="stop-color:#e17a23;stop-opacity:1"/><stop offset=".8" style="stop-color:#e07823;stop-opacity:1"/><stop offset=".85" style="stop-color:#d35d24;stop-opacity:1"/><stop offset=".91" style="stop-color:#c64225;stop-opacity:1"/><stop offset=".96" style="stop-color:#be3226;stop-opacity:1"/><stop offset="1" style="stop-color:#bb2c26;stop-opacity:1"/></linearGradient></defs></svg>