<svg xmlns="http://www.w3.org/2000/svg" xml:space="preserve" width="1000" height="1000" style="clip-rule:evenodd;fill-rule:evenodd;stroke-linejoin:round;stroke-miterlimit:2"><path d="M1208.33 0h1000v1000h-1000z" style="fill:none" transform="translate(-1208.33)"/><circle cx="522.565" cy="494.184" r="370.879" transform="matrix(1.25175 0 0 1.25757 -120.17 -126.198)"/><path d="M531.007 78.271c232.583 0 421.412 188.828 421.412 421.412S763.59 921.094 531.007 921.094 109.596 732.266 109.596 499.683c0-232.584 188.828-421.412 421.411-421.412m.621 47.735c-207.267 0-375.541 167.996-375.541 374.92s168.274 374.92 375.541 374.92c207.268 0 375.542-167.996 375.542-374.92s-168.274-374.92-375.542-374.92" style="fill:url(#a)" transform="translate(2.63 -6.405)"/><circle cx="700.871" cy="622.372" r="363.691" style="fill:url(#b)" transform="matrix(.97683 0 0 .9769 -150.37 -112.884)"/><path d="M63.052 226.201H477.66V764.13H62.17s-39.34-72.854-53.926-141.002h79.562s-19.007-54.002-17.68-135.333c1.325-81.33 19.006-121.553 19.006-121.553H7.36s22.542-88.69 55.693-140.04m70.05 139.566c-46.064 152.901.476 258.247.476 258.247H242.51c12.207-2.859 14.475-17.629 14.475-17.629v-54.318s-27.159-12.388-30.017-56.307 28.588-56.14 28.588-56.14v-60.035c-3.812-9.529-13.046-13.818-13.046-13.818z"/><path d="M374.133 439.207s24.468-69.302 95.663-96.417c0 0-6.465-52.219-6.13-80.672H80.722s-30.461 56.906-34.813 80.338h193.97s32.985-.712 44.701 40.503v237.064s-6.112 38.158-42.087 42.39h-196.8s12.344 43.849 34.441 77.9h385.068s-5.606-36.97 7.296-79.904c0 0-66.254-18.808-98.753-97.533-32.499-78.726.388-123.669.388-123.669" style="fill:url(#c)" transform="translate(2.63 -6.405)"/><path d="M472.426 338.443s.153 1.39-6.966-82.514c0 0 1.687-67.632 69.238-70.683 67.551-3.05 68.06 74.242 68.06 74.242s-3.56 57.97-8.136 76.277c-4.577 18.306-9.662 33.053-9.662 33.053l-27.968 65.09H502.63s-29.34-77.53-30.204-95.465M472.426 651.518s.153-1.39-6.966 82.514c0 0 1.687 67.632 69.238 70.683s68.06-74.242 68.06-74.242-3.56-57.97-8.136-76.277c-4.577-18.306-9.662-33.053-9.662-33.053l-27.968-65.089H502.63s-29.34 77.53-30.204 95.464M690.822 433.426s-1.39.153 82.514-6.966c0 0 67.632 1.687 70.683 69.238s-74.242 68.06-74.242 68.06-57.97-3.56-76.277-8.136c-18.306-4.577-33.053-9.662-33.053-9.662l-65.089-27.968V463.63s77.53-29.34 95.464-30.204M378.128 434.077s1.39.153-82.514-6.966c0 0-67.632 1.687-70.683 69.238-3.05 67.551 74.242 68.06 74.242 68.06s57.97-3.56 76.277-8.136c18.306-4.577 33.053-9.662 33.053-9.662l65.09-27.968v-54.362s-77.53-29.34-95.465-30.204"/><circle cx="604.132" cy="556.252" r="183.178" transform="matrix(.92988 0 0 .91955 -27.21 -15.74)"/><path d="M549.298 410.086s15.764-73.608 18.883-132.52-36.458-53.714-36.458-53.714-39.435-5.198-37.009 53.021 18.075 123.407 19.434 133.437c0 0 15.921-7.012 35.15-.224" style="fill:url(#d)" transform="translate(2.63 -6.405)"/><path d="M549.298 410.086s15.764-73.608 18.883-132.52-36.458-53.714-36.458-53.714-39.435-5.198-37.009 53.021 18.075 123.407 19.434 133.437c0 0 15.921-7.012 35.15-.224" style="fill:url(#e)" transform="matrix(1 0 0 -1 3.21 995.617)"/><path d="M549.298 410.086s15.764-73.608 18.883-132.52-36.458-53.714-36.458-53.714-39.435-5.198-37.009 53.021 18.075 123.407 19.434 133.437c0 0 15.921-7.012 35.15-.224" style="fill:url(#f)" transform="rotate(-90 527.995 497.085)"/><path d="M549.298 410.086s15.764-73.608 18.883-132.52-36.458-53.714-36.458-53.714-39.435-5.198-37.009 53.021 18.075 123.407 19.434 133.437c0 0 15.921-7.012 35.15-.224" style="fill:url(#g)" transform="rotate(-90 529.725 496.395)"/><path d="M549.298 410.086s15.764-73.608 18.883-132.52-36.458-53.714-36.458-53.714-39.435-5.198-37.009 53.021 18.075 123.407 19.434 133.437c0 0 15.921-7.012 35.15-.224" style="fill:url(#h)" transform="matrix(0 -1 -1 0 1035.98 1026.12)"/><circle cx="549.158" cy="495.062" r="83.616" transform="translate(-79.21 -58.312)scale(1.11791)"/><circle cx="543.87" cy="510.008" r="56.367" style="fill:url(#i)" transform="matrix(1.09505 0 0 1.09699 -61.42 -64.838)"/><defs><linearGradient id="a" x1="0" x2="1" y1="0" y2="0" gradientTransform="matrix(904.397 600.073 -534.653 805.8 57.904 191.563)" gradientUnits="userSpaceOnUse"><stop offset="0" style="stop-color:#626e77;stop-opacity:1"/><stop offset=".04" style="stop-color:#697780;stop-opacity:1"/><stop offset=".11" style="stop-color:#7d8e98;stop-opacity:1"/><stop offset=".2" style="stop-color:#9eb4c0;stop-opacity:1"/><stop offset=".2" style="stop-color:#a1b7c3;stop-opacity:1"/><stop offset=".29" style="stop-color:#adc6d4;stop-opacity:1"/><stop offset=".38" style="stop-color:#b5cede;stop-opacity:1"/><stop offset=".5" style="stop-color:#b7d1e1;stop-opacity:1"/><stop offset=".62" style="stop-color:#b5cede;stop-opacity:1"/><stop offset=".71" style="stop-color:#adc6d4;stop-opacity:1"/><stop offset=".8" style="stop-color:#a1b7c3;stop-opacity:1"/><stop offset=".8" style="stop-color:#a0b6c2;stop-opacity:1"/><stop offset=".85" style="stop-color:#8b9da8;stop-opacity:1"/><stop offset=".91" style="stop-color:#74838d;stop-opacity:1"/><stop offset=".96" style="stop-color:#67747d;stop-opacity:1"/><stop offset="1" style="stop-color:#626e77;stop-opacity:1"/></linearGradient><linearGradient id="b" x1="0" x2="1" y1="0" y2="0" gradientTransform="matrix(925.853 614.265 -547.338 824.857 215.905 305.091)" gradientUnits="userSpaceOnUse"><stop offset="0" style="stop-color:#626e77;stop-opacity:1"/><stop offset=".04" style="stop-color:#697780;stop-opacity:1"/><stop offset=".11" style="stop-color:#7d8e98;stop-opacity:1"/><stop offset=".2" style="stop-color:#9eb4c0;stop-opacity:1"/><stop offset=".2" style="stop-color:#a1b7c3;stop-opacity:1"/><stop offset=".29" style="stop-color:#adc6d4;stop-opacity:1"/><stop offset=".38" style="stop-color:#b5cede;stop-opacity:1"/><stop offset=".5" style="stop-color:#b7d1e1;stop-opacity:1"/><stop offset=".62" style="stop-color:#b5cede;stop-opacity:1"/><stop offset=".71" style="stop-color:#adc6d4;stop-opacity:1"/><stop offset=".8" style="stop-color:#a1b7c3;stop-opacity:1"/><stop offset=".8" style="stop-color:#a0b6c2;stop-opacity:1"/><stop offset=".85" style="stop-color:#8b9da8;stop-opacity:1"/><stop offset=".91" style="stop-color:#74838d;stop-opacity:1"/><stop offset=".96" style="stop-color:#67747d;stop-opacity:1"/><stop offset="1" style="stop-color:#626e77;stop-opacity:1"/></linearGradient><linearGradient id="c" x1="0" x2="1" y1="0" y2="0" gradientTransform="matrix(904.397 600.073 -534.653 805.8 57.904 191.563)" gradientUnits="userSpaceOnUse"><stop offset="0" style="stop-color:#626e77;stop-opacity:1"/><stop offset=".04" style="stop-color:#697780;stop-opacity:1"/><stop offset=".11" style="stop-color:#7d8e98;stop-opacity:1"/><stop offset=".2" style="stop-color:#9eb4c0;stop-opacity:1"/><stop offset=".2" style="stop-color:#a1b7c3;stop-opacity:1"/><stop offset=".29" style="stop-color:#adc6d4;stop-opacity:1"/><stop offset=".38" style="stop-color:#b5cede;stop-opacity:1"/><stop offset=".5" style="stop-color:#b7d1e1;stop-opacity:1"/><stop offset=".62" style="stop-color:#b5cede;stop-opacity:1"/><stop offset=".71" style="stop-color:#adc6d4;stop-opacity:1"/><stop offset=".8" style="stop-color:#a1b7c3;stop-opacity:1"/><stop offset=".8" style="stop-color:#a0b6c2;stop-opacity:1"/><stop offset=".85" style="stop-color:#8b9da8;stop-opacity:1"/><stop offset=".91" style="stop-color:#74838d;stop-opacity:1"/><stop offset=".96" style="stop-color:#67747d;stop-opacity:1"/><stop offset="1" style="stop-color:#626e77;stop-opacity:1"/></linearGradient><linearGradient id="d" x1="0" x2="1" y1="0" y2="0" gradientTransform="matrix(904.397 600.073 -534.653 805.8 57.904 191.563)" gradientUnits="userSpaceOnUse"><stop offset="0" style="stop-color:#626e77;stop-opacity:1"/><stop offset=".04" style="stop-color:#697780;stop-opacity:1"/><stop offset=".11" style="stop-color:#7d8e98;stop-opacity:1"/><stop offset=".2" style="stop-color:#9eb4c0;stop-opacity:1"/><stop offset=".2" style="stop-color:#a1b7c3;stop-opacity:1"/><stop offset=".29" style="stop-color:#adc6d4;stop-opacity:1"/><stop offset=".38" style="stop-color:#b5cede;stop-opacity:1"/><stop offset=".5" style="stop-color:#b7d1e1;stop-opacity:1"/><stop offset=".62" style="stop-color:#b5cede;stop-opacity:1"/><stop offset=".71" style="stop-color:#adc6d4;stop-opacity:1"/><stop offset=".8" style="stop-color:#a1b7c3;stop-opacity:1"/><stop offset=".8" style="stop-color:#a0b6c2;stop-opacity:1"/><stop offset=".85" style="stop-color:#8b9da8;stop-opacity:1"/><stop offset=".91" style="stop-color:#74838d;stop-opacity:1"/><stop offset=".96" style="stop-color:#67747d;stop-opacity:1"/><stop offset="1" style="stop-color:#626e77;stop-opacity:1"/></linearGradient><linearGradient id="e" x1="0" x2="1" y1="0" y2="0" gradientTransform="matrix(904.397 -600.073 -534.653 -805.8 57.317 810.459)" gradientUnits="userSpaceOnUse"><stop offset="0" style="stop-color:#626e77;stop-opacity:1"/><stop offset=".04" style="stop-color:#697780;stop-opacity:1"/><stop offset=".11" style="stop-color:#7d8e98;stop-opacity:1"/><stop offset=".2" style="stop-color:#9eb4c0;stop-opacity:1"/><stop offset=".2" style="stop-color:#a1b7c3;stop-opacity:1"/><stop offset=".29" style="stop-color:#adc6d4;stop-opacity:1"/><stop offset=".38" style="stop-color:#b5cede;stop-opacity:1"/><stop offset=".5" style="stop-color:#b7d1e1;stop-opacity:1"/><stop offset=".62" style="stop-color:#b5cede;stop-opacity:1"/><stop offset=".71" style="stop-color:#adc6d4;stop-opacity:1"/><stop offset=".8" style="stop-color:#a1b7c3;stop-opacity:1"/><stop offset=".8" style="stop-color:#a0b6c2;stop-opacity:1"/><stop offset=".85" style="stop-color:#8b9da8;stop-opacity:1"/><stop offset=".91" style="stop-color:#74838d;stop-opacity:1"/><stop offset=".96" style="stop-color:#67747d;stop-opacity:1"/><stop offset="1" style="stop-color:#626e77;stop-opacity:1"/></linearGradient><linearGradient id="f" x1="0" x2="1" y1="0" y2="0" gradientTransform="matrix(-600.073 904.397 -805.8 -534.653 839.919 29.62)" gradientUnits="userSpaceOnUse"><stop offset="0" style="stop-color:#626e77;stop-opacity:1"/><stop offset=".04" style="stop-color:#697780;stop-opacity:1"/><stop offset=".11" style="stop-color:#7d8e98;stop-opacity:1"/><stop offset=".2" style="stop-color:#9eb4c0;stop-opacity:1"/><stop offset=".2" style="stop-color:#a1b7c3;stop-opacity:1"/><stop offset=".29" style="stop-color:#adc6d4;stop-opacity:1"/><stop offset=".38" style="stop-color:#b5cede;stop-opacity:1"/><stop offset=".5" style="stop-color:#b7d1e1;stop-opacity:1"/><stop offset=".62" style="stop-color:#b5cede;stop-opacity:1"/><stop offset=".71" style="stop-color:#adc6d4;stop-opacity:1"/><stop offset=".8" style="stop-color:#a1b7c3;stop-opacity:1"/><stop offset=".8" style="stop-color:#a0b6c2;stop-opacity:1"/><stop offset=".85" style="stop-color:#8b9da8;stop-opacity:1"/><stop offset=".91" style="stop-color:#74838d;stop-opacity:1"/><stop offset=".96" style="stop-color:#67747d;stop-opacity:1"/><stop offset="1" style="stop-color:#626e77;stop-opacity:1"/></linearGradient><linearGradient id="g" x1="0" x2="1" y1="0" y2="0" gradientTransform="matrix(-600.073 904.397 -805.8 -534.653 840.96 27.197)" gradientUnits="userSpaceOnUse"><stop offset="0" style="stop-color:#626e77;stop-opacity:1"/><stop offset=".04" style="stop-color:#697780;stop-opacity:1"/><stop offset=".11" style="stop-color:#7d8e98;stop-opacity:1"/><stop offset=".2" style="stop-color:#9eb4c0;stop-opacity:1"/><stop offset=".2" style="stop-color:#a1b7c3;stop-opacity:1"/><stop offset=".29" style="stop-color:#adc6d4;stop-opacity:1"/><stop offset=".38" style="stop-color:#b5cede;stop-opacity:1"/><stop offset=".5" style="stop-color:#b7d1e1;stop-opacity:1"/><stop offset=".62" style="stop-color:#b5cede;stop-opacity:1"/><stop offset=".71" style="stop-color:#adc6d4;stop-opacity:1"/><stop offset=".8" style="stop-color:#a1b7c3;stop-opacity:1"/><stop offset=".8" style="stop-color:#a0b6c2;stop-opacity:1"/><stop offset=".85" style="stop-color:#8b9da8;stop-opacity:1"/><stop offset=".91" style="stop-color:#74838d;stop-opacity:1"/><stop offset=".96" style="stop-color:#67747d;stop-opacity:1"/><stop offset="1" style="stop-color:#626e77;stop-opacity:1"/></linearGradient><linearGradient id="h" x1="0" x2="1" y1="0" y2="0" gradientTransform="matrix(-600.073 -904.397 -805.8 534.653 840.96 975.452)" gradientUnits="userSpaceOnUse"><stop offset="0" style="stop-color:#626e77;stop-opacity:1"/><stop offset=".04" style="stop-color:#697780;stop-opacity:1"/><stop offset=".11" style="stop-color:#7d8e98;stop-opacity:1"/><stop offset=".2" style="stop-color:#9eb4c0;stop-opacity:1"/><stop offset=".2" style="stop-color:#a1b7c3;stop-opacity:1"/><stop offset=".29" style="stop-color:#adc6d4;stop-opacity:1"/><stop offset=".38" style="stop-color:#b5cede;stop-opacity:1"/><stop offset=".5" style="stop-color:#b7d1e1;stop-opacity:1"/><stop offset=".62" style="stop-color:#b5cede;stop-opacity:1"/><stop offset=".71" style="stop-color:#adc6d4;stop-opacity:1"/><stop offset=".8" style="stop-color:#a1b7c3;stop-opacity:1"/><stop offset=".8" style="stop-color:#a0b6c2;stop-opacity:1"/><stop offset=".85" style="stop-color:#8b9da8;stop-opacity:1"/><stop offset=".91" style="stop-color:#74838d;stop-opacity:1"/><stop offset=".96" style="stop-color:#67747d;stop-opacity:1"/><stop offset="1" style="stop-color:#626e77;stop-opacity:1"/></linearGradient><linearGradient id="i" x1="0" x2="1" y1="0" y2="0" gradientTransform="matrix(825.893 547.016 -488.244 734.553 111.363 227.892)" gradientUnits="userSpaceOnUse"><stop offset="0" style="stop-color:#626e77;stop-opacity:1"/><stop offset=".04" style="stop-color:#697780;stop-opacity:1"/><stop offset=".11" style="stop-color:#7d8e98;stop-opacity:1"/><stop offset=".2" style="stop-color:#9eb4c0;stop-opacity:1"/><stop offset=".2" style="stop-color:#a1b7c3;stop-opacity:1"/><stop offset=".29" style="stop-color:#adc6d4;stop-opacity:1"/><stop offset=".38" style="stop-color:#b5cede;stop-opacity:1"/><stop offset=".5" style="stop-color:#b7d1e1;stop-opacity:1"/><stop offset=".62" style="stop-color:#b5cede;stop-opacity:1"/><stop offset=".71" style="stop-color:#adc6d4;stop-opacity:1"/><stop offset=".8" style="stop-color:#a1b7c3;stop-opacity:1"/><stop offset=".8" style="stop-color:#a0b6c2;stop-opacity:1"/><stop offset=".85" style="stop-color:#8b9da8;stop-opacity:1"/><stop offset=".91" style="stop-color:#74838d;stop-opacity:1"/><stop offset=".96" style="stop-color:#67747d;stop-opacity:1"/><stop offset="1" style="stop-color:#626e77;stop-opacity:1"/></linearGradient></defs></svg>