<svg xmlns="http://www.w3.org/2000/svg" xml:space="preserve" style="fill-rule:evenodd;clip-rule:evenodd;stroke-linejoin:round;stroke-miterlimit:2" viewBox="0 0 1000 1000"><path d="M4832.33 0h1000v1000h-1000z" style="fill:none" transform="translate(-4832.333)"/><path d="M56.319 226.038h414.607v537.928H55.435S16.095 691.112 1.51 622.964h79.562S62.065 568.962 63.39 487.63s19.007-121.553 19.007-121.553H.626s22.542-88.69 55.693-140.04m224.158 336.399v51.018s-6.112 38.158-42.087 42.39H41.59s12.344 43.849 34.44 77.9H461.1s-5.606-36.97 7.296-79.904c0 0-66-18.736-98.566-97.081a70 70 0 0 0 2.89-.65c18.307-4.577 33.054-9.662 33.054-9.662l65.089-27.968v-54.362s-77.53-29.34-95.464-30.204c-.025 0-.446-.03-5.904-.487.343-.524.536-.788.536-.788s24.468-69.302 95.663-96.417c0 0-6.465-52.22-6.13-80.672H76.619s-30.461 56.906-34.813 80.338h193.97s32.985-.712 44.7 40.503v52.235c-19.676 4.14-56.056 18.43-58.275 67.56-.382 8.443.492 15.838 2.313 22.316-2.135-6.454-3.703-14.037-4.28-22.905-2.86-43.92 28.588-56.14 28.588-56.14v-60.035c-3.812-9.53-13.046-13.818-13.046-13.818H126.369c-46.064 152.9.476 258.247.476 258.247h108.93c12.208-2.86 14.476-17.63 14.476-17.63v-54.317s-7.986-3.643-15.752-13.98c12.609 15.537 32.209 21.904 45.978 24.513"/><path d="M94.588 653.835c-17.872-49.554-27.62-103.005-27.62-158.725 0-55.908 9.813-109.532 27.802-159.227h45.077c-19.58 48.595-30.358 101.664-30.358 157.232 0 56.9 11.302 111.182 31.78 160.72zm97.013 0c-22.845-48.403-35.62-102.463-35.62-159.477 0-56.62 12.6-110.328 35.15-158.475h22.69c-24.03 47.865-37.559 101.897-37.559 159.063 0 57.098 13.497 111.067 37.47 158.89zm77.348 80.333c64.993 71.298 158.597 116.067 262.574 116.067 196.074 0 355.262-159.2 355.262-355.289S727.597 139.658 531.523 139.658c-103.892 0-197.427 44.695-262.415 115.892h-27.011c68.905-83.12 173.014-136.113 289.425-136.113 207.266 0 375.54 167.997 375.54 374.92 0 206.925-168.274 374.922-375.54 374.922-115.943 0-219.683-52.567-288.593-135.111zm-83.664 0c76.207 109.007 202.643 180.36 345.614 180.36 232.583 0 421.41-188.829 421.41-421.413 0-232.583-188.827-421.411-421.41-421.411-144.489 0-272.092 72.876-348.026 183.846h-49.984C214.07 119.695 362.15 28.704 531.217 28.704c256.225 0 464.248 208.989 464.248 466.406S787.442 961.516 531.217 961.516c-169.276 0-317.512-91.215-398.628-227.348z"/><path d="M476.88 401.742s-21.51-105.75-14.16-146.622 20.28-66.595 68.65-72.126 65.77 39.428 68.65 71.445-19.6 147.303-19.6 147.303h-29.97s23.33-127.548 17.8-147.303c-5.54-19.755-6.42-37.677-36.29-39.275s-36.19 27.695-37.46 39.956 9.63 117.493 19.17 146.622zM476.88 587.393s-21.51 105.75-14.16 146.622 20.28 66.595 68.65 72.126 65.77-39.428 68.65-71.445-19.6-147.303-19.6-147.303h-29.97s23.33 127.548 17.8 147.303c-5.54 19.755-6.42 37.677-36.29 39.275s-36.19-27.695-37.46-39.956 9.63-117.493 19.17-146.622zM625.435 440.2s105.75-21.51 146.622-14.16 66.595 20.28 72.126 68.65c5.53 48.37-39.428 65.77-71.445 68.65s-147.303-19.6-147.303-19.6v-29.97s127.548 23.33 147.303 17.8c19.755-5.54 37.677-6.42 39.275-36.29s-27.695-36.19-39.956-37.46-117.493 9.63-146.622 19.17zM435.609 441.15s-105.75-21.51-146.622-14.16-66.595 20.28-72.126 68.65 39.428 65.77 71.445 68.65 147.303-19.6 147.303-19.6v-29.97s-127.548 23.33-147.303 17.8c-19.755-5.54-37.677-6.42-39.275-36.29s27.695-36.19 39.956-37.46 117.493 9.63 146.622 19.17z"/><path d="M699.434 525.761c-12.573 68.654-67.284 122.88-136.645 135.496-5.656-40.546-13.01-74.89-13.01-74.89-19.23 6.789-35.151-.224-35.151-.224-.906 6.684-8.156 37.857-13.61 75.14-69.18-12.52-123.813-66.425-136.656-134.772 20.826-2.993 61.46-9.432 74.124-15.734l-.023-.009.023-.003s-7.013-15.92-.224-35.15c0 0-33.58-7.192-73.533-12.822 13.48-67.419 67.698-120.43 136.195-132.866 5.389 35.799 12.238 65.331 13.117 71.815 0 0 15.921-7.013 35.15-.224 0 0 6.981-32.596 12.57-71.765 69.288 12.167 124.151 65.817 137.361 134.023-40.14 5.637-73.959 12.88-73.959 12.88 6.788 19.23-.224 35.15-.224 35.15q.465.064 1.084.167c9.702 2.58 70.929 13.352 73.41 13.788m-168.02-93.122c-34.066 0-61.725 27.707-61.725 61.834s27.659 61.835 61.725 61.835 61.726-27.708 61.726-61.835-27.659-61.834-61.726-61.834"/><path d="M531.966 401.483c51.591 0 93.476 41.886 93.476 93.476s-41.885 93.476-93.476 93.476-93.475-41.885-93.475-93.476 41.884-93.476 93.475-93.476m-.547 31.156c-34.067 0-61.724 27.708-61.724 61.835s27.657 61.835 61.724 61.835 61.726-27.707 61.726-61.835-27.659-61.835-61.726-61.835M370.82 559.044s-2.06-4.252-1.69-4.665 4.5.66 4.5.66z"/><path d="M435 477.737s2.43.768 2.8 1.108c.38.341 1.85-3.789 1.85-3.789l-4.61-.192z"/><path d="m5508.83 495.518 35.84 25.89M5544.67 521.408l-13.16 4.367" style="fill:none" transform="translate(-4832)"/></svg>