<svg xmlns="http://www.w3.org/2000/svg" width="53.904" height="26.916" viewBox="0 0 40.428 20.187">/&gt;<path d="M0 0v20.187h4.025V0Z" style="color:#000;fill:#fff;fill-opacity:1;stroke-miterlimit:3;-inkscape-stroke:none"/><path d="M1 1h2.025v18.187H1Z" style="stroke-width:1.09375"/><path d="M6 0v20.187h4.025V6.975l7.649 13.212h4.351V0H18v11.527L11.326 0Z" style="color:#000;fill:#fff;fill-opacity:1;stroke-linecap:square;stroke-miterlimit:3;-inkscape-stroke:none"/><path d="M7 1h3.75L19 15.25V1h2.025v18.187H18.25L9.025 3.25v15.937H7Z" style="display:inline;stroke-width:2"/><path d="m21.611 0 6.951 20.187h4.915L40.428 0H36.18l-5.16 14.672L25.857 0Z" style="color:#000;display:inline;fill:#fff;fill-opacity:1;stroke-miterlimit:3;-inkscape-stroke:none"/><path d="M23.013 1h2.137l5.869 16.685L36.888 1h2.137l-6.262 18.187h-3.488z" style="display:inline;stroke-width:2;stroke-miterlimit:3.8;stroke-dasharray:none"/></svg>