<?xml version="1.0" encoding="UTF-8" standalone="no"?>
<svg
   version="1.1"
   width="555.08832"
   height="463.79691"
   id="svg1"
   xmlns="http://www.w3.org/2000/svg"
   xmlns:svg="http://www.w3.org/2000/svg">
  <defs
     id="defs1" />
  <path
     d="M 299.26601,0 V 463.7969 L 469.8142,296.19922 c 0,0 -103.20971,-37.35375 -103.20971,-97.25056 v -88.23914 c 0,0 152.61259,49.34474 152.61259,210.92513 0,35.94389 -14.99964,79.31493 -14.99964,79.31493 0,0 50.87086,-37.35374 50.87086,-142.10411 C 555.0883,143.64477 462.37252,0 299.26601,0 M 0,204.96596 C 0,100.21559 50.870861,62.80371 50.870861,62.80371 c 0,0 -14.926964,43.42918 -14.926964,79.31494 0,161.58038 152.612583,210.96872 152.612583,210.96872 v -88.28274 c 0,-59.83867 -103.282382,-97.25055 -103.282382,-97.25055 L 255.88043,0 V 463.7969 C 92.773918,463.7969 0,320.16666 0,204.96596"
     id="path1" />
</svg>
