<svg xmlns="http://www.w3.org/2000/svg" width="82.017" height="52.168"><linearGradient id="a" x1="-642.321" x2="629.77" y1="-140" y2="-140" gradientTransform="rotate(22.5 -69.585 116.567)scale(.0625)" gradientUnits="userSpaceOnUse"><stop offset="0" style="stop-color:#612c75"/><stop offset=".3" style="stop-color:#7b5190"/><stop offset=".5" style="stop-color:#bf99c3"/><stop offset=".7" style="stop-color:#7b5190"/><stop offset="1" style="stop-color:#612c75"/></linearGradient><path fill="#fff" d="M23.69 1.287C18.202-.987 12.173-.146 7.614 3.007l-2.83 1.957 3.18 1.317L19.2 10.936l.943 7.155-5.726 4.393L3.179 17.83 0 16.513l.617 3.384C1.611 25.35 5.28 30.21 10.77 32.482c5.88 2.436 12.372 1.3 17.026-2.427l24.54 10.165c.98 4.694 4.194 8.84 8.943 10.808 7.634 3.162 16.437-.485 19.599-8.118s-.485-16.437-8.118-19.598c-4.996-2.07-10.492-1.233-14.579 1.74l-24.167-10.01c-.656-5.925-4.443-11.32-10.322-13.755M65.704 30.91c.56.22.85.748.85.748l.326.693.717.265c1.326.494 2.945 1.49 4.021 2.613 1.077 1.124 1.53 2.2 1.364 3.127-.101.57.02 1.24.212 1.648.017.036.027.047.043.08-.034.01-.049.011-.086.025-.425.153-.984.54-1.315 1.015-.538.772-1.62 1.214-3.176 1.247s-3.404-.407-4.69-.996l-.695-.32-.72.26s-.654.196-1.244-.126c-.25-.135-.378-.295-.516-.71s-.2-1.043-.172-1.682c.056-1.278.416-2.468.416-2.468l.36-1.15.558-1.066s.587-1.096 1.45-2.04c.433-.47.922-.872 1.312-1.067.39-.196.595-.218.867-.138q.02.005.118.042"/><path d="M22.973 3.02C18.081.992 12.733 1.744 8.681 4.548l12.236 5.068 1.225 9.302-7.444 5.711-12.236-5.068c.883 4.848 4.133 9.162 9.025 11.188 5.596 2.318 11.793 1 15.96-2.868l26.557 11a13.12 13.12 0 0 0 7.992 10.414c6.697 2.774 14.375-.407 17.149-7.104s-.407-14.374-7.104-17.148a13.13 13.13 0 0 0-13.568 2.16l-26.242-10.87c-.213-5.682-3.661-10.997-9.258-13.315m43.415 26.145c1.305.512 1.862 1.695 1.862 1.695 3.204 1.191 7.191 4.39 6.578 7.826-.156.874.88.851.325 2.191s-1.272.592-1.78 1.32c-1.995 2.863-7.077 2.305-10.185.882 0 0-1.402.505-2.774-.242-2.885-1.57-1.166-7.068-1.166-7.068-1.057-.492-1.453-.733-.976-1.884s.926-1.042 2.023-.642c0 0 2.672-5.104 5.821-4.174q.141.043.272.096" style="fill:url(#a)"/></svg>