<svg xmlns="http://www.w3.org/2000/svg" xmlns:xlink="http://www.w3.org/1999/xlink" width="600" height="709.264"><radialGradient id="a" cx="0" cy="0" r="1" fx="0" fy="0" gradientTransform="matrix(15.43984 0 0 -15.43984 748 259.299)" gradientUnits="userSpaceOnUse" spreadMethod="pad"><stop offset="0" style="stop-color:#f6b91d"/><stop offset=".7" style="stop-color:#d3641c"/><stop offset="1" style="stop-color:#bf331c"/></radialGradient><radialGradient xlink:href="#a" id="b" cx="0" cy="0" r="1" fx="0" fy="0" gradientTransform="translate(300.036 354.719)scale(273.75594)" gradientUnits="userSpaceOnUse" spreadMethod="pad"/><path d="m48.547 96.896-.071.976c-.194 4.007-.338 8.103-.338 12.11 0 63.795 27.571 131.117 83.05 157.358-4.645 3.476-9.22 6.933-13.51 10.532-11.153 9.291-25.426 22.163-36.987 39.557-12.464 18.688-17.66 39.468-17.66 59.911 0 25.071 8.033 49.38 19.806 69.043C42.323 469.858 0 513.777 0 585.603c0 66.56 37.411 96.471 59.699 108.386 41.152 22.022 98.35 18.28 123.918 1.17l16.206-12.73c5.744-5 14.326-12.411 17.66-11.986l9.006.958c25.55 2.978 51.862 5.957 80.48 3.404 22.5-2.074 41.754-6.862 58.652-14.752l17.66-9.557c2.215-1.312 5-2.836 7.41-4.166 6.579 5.886 16.082 14.273 30.55 19.255 18.564 6.312 39.681 4.362 58.6-3.6 13.421 9.416 27.907 13.795 43.687 10.39 29.788-6.293 54.309-26.17 67.323-54.574 6.1-13.44 9.149-27.978 9.149-42.393 0-16.756-4.078-33.44-12.323-48.263-26.808-48.35-83.12-66.01-133.67-69.822 17.589-7.678 33.723-18.972 43.564-35.656 6.223-10.674 9.344-22.163 9.344-33.954 0-14.326-4.575-28.936-13.777-42.66-32.482-48.759-89.556-45.709-117.056-44.255-7.961.425-16.614.976-25.763 1.808 4.362-1.454 8.582-3.599 13.014-4.574l24.876-5.124c67.873-13.298 170.514-33.387 170.514-116.153 0-31.507-13.918-60.815-39.06-82.553-34.362-29.645-87.057-43.422-137.553-36.01-50.426 7.41-63.245 3.102-97.518-8.245-18.422-6.241-38.44-9.291-59.362-9.15.071 0-17.11 2.5-23.475 3.405-2.766-2.854-16.205-16.915-16.205-16.915C170.585 15.585 147.252 0 117.323 0 88.316 0 52.855 16.844 48.546 96.897" style="fill:#fff"/><path d="M139.416 471.932s-93.351 22.039-93.351 113.67 96.755 81.436 111.985 71.259c15.302-10.177 33.937-35.674 64.486-32.27 26.738 2.98 53.263 6.791 80.195 4.291 14.894-1.312 29.858-4.29 43.44-10.603 20-9.344 37.394-27.003 61.01-16.684 11.011 4.84 17.518 16.49 28.954 20.355 12.465 4.237 28.05-.622 37.465-9.202 20.496-18.635 23.972 18.067 40.372 14.61 34.15-7.27 49.947-47.997 33.387-77.908-26.312-47.518-109.22-51.95-155.55-43.848-27.854 4.911-57.837 11.082-84.432 20.638-66.206 23.688-225.639 32.199-167.961-54.308m49.326-380.018c10.798 1.738 25.213-4.982 36.844-4.982 15.018-.142 30.124 1.933 44.468 6.72 40.71 13.564 61.01 18.617 118.706 10.177 57.695-8.528 123.83 20.355 123.83 72.926s-106.862 64.485-159.433 76.33c-52.571 11.914-103.475 50.904-123.83 79.716-20.372 28.812-8.528 47.517 52.57 28.812 31.153-9.486 64.203-13.085 96.685-14.823 27.358-1.454 58.936-2.145 76.241 23.83 28.883 43.35-54.645 57.748-79.645 55.745-30.957-2.483-62.057-1.313-92.872 2.429-29.858 3.599-55.763 14.68-84.362 22.996-29.29 8.653-55.887.763-73.067-24.521-15.993-23.475-22.784-58.865-5.816-84.291 7.624-11.418 17.66-20.993 28.12-29.716 21.543-17.997 46.26-32.34 71.206-45.16 10.869-5.603 21.88-10.869 32.961-16.064 4.717-2.216 46.826-14.397 34.291-26.525-7.553-7.269-35.745 2.288-44.397 3.387-23.9 2.926-50.78 7.145-74.663 2.092-55.905-11.72-74.805-82.216-72.11-130.567.69-12.607 2.429-54.291 22.854-54.291 14.894 0 28.476 8.582 39.823 17.447 9.504 7.482 17.465 24.592 29.858 27.979.62.141 1.17.212 1.738.354" style="fill:#bf331c"/><path d="M103.334 100.921c-2.287 41.135 13.369 110.532 65.036 121.401 6.861 1.454 14.414 2.145 23.067 2.145 13.847 0 28.12-1.79 41.968-3.528l6.72-.833c1.932-.195 4.911-.958 8.386-1.791 8.298-1.95 18.564-4.362 27.217-4.362 7.198 0 12.464 1.72 16.063 5.195 5.55 5.39 5.337 11.153 4.717 14.06-2.287 10.798-16.206 17.802-37.82 25.55-1.666.62-2.978 1.046-3.528 1.312-11.01 5.195-21.968 10.39-32.766 15.94-30.053 15.443-51.524 29.078-69.539 44.042-8.244 6.933-18.759 16.277-26.454 27.837-15.23 22.855-7.695 54.646 5.745 74.398 10.745 15.709 25.833 24.024 43.706 24.024 6.24 0 12.819-1.028 19.61-2.978 8.227-2.43 16.276-5.054 24.166-7.678 19.45-6.383 39.61-13.032 61.578-15.656 20.692-2.5 40.922-3.812 60.32-3.812 11.63 0 23.191.408 34.343 1.383 1.33.071 2.784.142 4.309.142 23.883 0 62.18-9.29 70.284-24.38 1.737-3.19 3.262-8.457-2.979-17.8-9.557-14.345-24.93-20.426-51.312-20.426-5.816 0-11.56.266-17.18.55-39.345 2.074-68.494 6.506-94.469 14.467-17.11 5.266-31.436 7.908-42.518 7.908-17.872 0-25.283-7.074-28.333-13.032-3.458-6.649-4.858-18.564 8.386-37.322 22.022-31.17 74.717-70.922 129.167-83.263 7.748-1.72 16.685-3.528 26.383-5.39 50.213-9.84 126.117-24.734 126.117-62.27 0-41.063-48.138-65.514-94.61-65.514-6.436 0-12.872.408-19.042 1.312-19.734 2.908-35.178 4.291-48.76 4.291-27.765 0-47.375-5.886-74.042-14.822-12.535-4.15-26.17-6.224-41.613-6.224-4.096 0-9.15 1.17-14.486 2.34-6.082 1.454-12.394 2.926-18.617 2.926-1.809 0-3.546-.142-5.266-.425l-2.092-.408-.479-.071c-10.532-2.908-17.73-11.844-24.096-19.805-3.191-3.883-6.17-7.624-8.936-9.77C142.465 63.314 130.143 55 117.323 55c-2.695 0-11.702 3.245-13.989 45.922M54.93 585.531c0 62.199 48.9 68.9 69.876 68.9 15.656 0 25.975-3.386 28.333-4.91 3.387-2.288 6.915-5.408 10.798-8.724 12.464-10.745 29.432-25.354 53.05-25.354 2.092 0 4.308.141 6.524.425l8.99.958c17.039 2.02 34.77 4.024 51.95 4.024 5.816 0 11.631-.212 17.518-.833 16.152-1.383 29.38-4.645 40.46-9.77 4.433-2.074 8.724-4.627 13.015-7.127 11.436-6.65 23.21-13.51 37.323-13.51 6.028 0 12.056 1.311 18.014 3.882 6.507 2.837 11.507 7.412 15.94 11.365 4.29 3.866 7.96 7.27 12.322 8.724 2.075.691 4.362 1.028 6.915 1.028 7.482 0 16.01-3.244 21.685-8.44 5.62-5.124 11.081-7.624 16.63-7.624 9.753 0 15.71 7.34 20.568 13.37 1.862 2.357 5.39 6.719 7.34 6.719 12.607-2.624 23.068-11.294 28.67-23.617 6.1-13.44 5.604-28.812-1.24-41.206-14.752-26.666-55.142-42.606-107.98-42.606-13.368 0-26.595 1.117-38.226 3.12-24.309 4.22-55.62 10.39-83.05 20.302-28.12 10.035-68.847 16.543-103.759 16.543-31.152 0-71.117-5.125-84.273-29.646-5.124-9.752-5.478-21.046-1.046-33.723-25.62 11.702-66.347 39.415-66.347 97.73" style="fill:url(#b)"/></svg>