<?xml version="1.0" encoding="UTF-8" standalone="no"?>
<svg
   version="1.1"
   x="0px"
   y="0px"
   width="563.35797"
   height="728.99103"
   viewBox="0 0 563.35799 728.99104"
   id="svg7"
   xmlns="http://www.w3.org/2000/svg"
   xmlns:svg="http://www.w3.org/2000/svg">
  <defs
     id="defs7" />
  <path
     fill="#ffffff"
     d="M 162.9,24.61 C 200.2,8.96 240.53,0.87 280.93,0 c 53.92,0.8 107.81,14.86 154.549,41.95 29.65,17.09 56.36,39.23 78.74,65.11 10.18,11.94 19.78,24.51 27.19,38.38 -9.39,9.93 -18.81,19.81 -28.2,29.73 19.67,18.77 34.65,42.06 45.96,66.67 -8.35,5.88 -16.739,11.7 -25.1,17.57 14.86,20.91 25,45.38 28.399,70.85 -7.99,4.59 -16,9.16 -23.96,13.79 8.87,19.76 14.44,40.82 18.62,62.029 2.85,14.891 5.141,29.921 6.23,45.061 -27.99,13.63 -54.351,31.341 -75.461,54.38 -22.21,24.091 -38.14,54.171 -44.359,86.421 -2.109,11.339 -3.38,22.949 -2.391,34.489 -16.77,27.17 -39.56,50.62 -66.34,68.02 -19.41,12.671 -40.8,22.291 -63.1,28.61 -10.05,2.7 -20.279,5.28 -30.69,5.931 -18.38,-2.091 -36.3,-7.351 -53.44,-14.2 -43.31,-17.29 -80.93,-48.55 -105.35,-88.341 1.31,-17.199 -1.62,-34.5 -6.45,-50.97 -10.01,-33.46 -30.51,-63.31 -56.84,-86.069 C 41.23,473.92 21.09,461.44 0,451.109 1.47,432.21 4.5,413.46 8.58,394.96 c 3.91,-17.42 9,-34.63 16.29,-50.95 -8,-4.57 -15.97,-9.17 -23.95,-13.76 3.4,-25.46 13.541,-49.93 28.39,-70.84 -8.35,-5.87 -16.74,-11.69 -25.1,-17.56 11.319,-24.61 26.29,-47.91 45.959,-66.68 -9.38,-9.93 -18.81,-19.8 -28.19,-29.72 5.49,-10.42 12.38,-20.02 19.64,-29.26 C 73.5,76.12 115.65,44.33 162.9,24.61 Z m -12.68,52.27 c -30.09,18.01 -57,41.82 -77.19,70.59 40.84,38.22 73.38,84.92 96.77,135.64 10.37,-16.09 23.66,-30.37 39.4,-41.31 21.15,-14.84 46.8,-23.39 72.7,-23.26 26.31,-0.04 52.331,8.89 73.63,24.22 14.83,10.58 27.45,24.14 37.409,39.37 23.991,-50.29 57.2,-96.11 97.431,-134.65 -11.91,-17.2 -26.53,-32.41 -42.46,-45.91 C 409.75,69.35 362.2,48.59 312.72,42.07 298.83,40.32 284.79,39 270.801,40.09 228.46,42.61 186.67,55.13 150.22,76.88 Z m -88.2,142.59 c -3.36,4.35 -6.62,8.97 -8.03,14.36 24.1,29.83 46.64,60.89 68.36,92.49 -20.42,-15.96 -40.71,-32.08 -61.25,-47.89 -8.25,8.75 -14.1,19.59 -17.73,31.02 26.75,14.81 52.68,31.14 77.42,49.12 21.65,15.89 42.6,33.03 60.44,53.2 -2.71,-13.69 -6.15,-27.229 -10.12,-40.609 C 152.5,309.1 123.01,249.491 79.92,200.721 73.53,206.55 67.38,212.68 62.02,219.47 Z m 356.02,83.16 c -15.98,34.89 -28.28,71.52 -35.891,109.149 16.61,-18.81 35.971,-34.959 56.021,-49.95 26.05,-19.29 53.49,-36.67 81.84,-52.37 -3.62,-11.44 -9.479,-22.25 -17.71,-31.03 -20.55,15.79 -40.85,31.92 -61.26,47.9 10.399,-15.09 20.98,-30.06 31.75,-44.89 11.77,-16.24 24.23,-31.96 36.641,-47.71 -1.65,-5.67 -5.11,-10.55 -8.741,-15.12 -5.21,-6.45 -11.109,-12.3 -17.22,-17.89 -26.9,30.341 -48.48,65.151 -65.43,101.911 z m -180.17,-38.1 c -23.75,13.01 -41.35,35.55 -50.95,60.63 14.44,40.93 24.16,83.669 27.48,126.99 8.91,11.591 17.15,23.73 24.41,36.44 17.64,30.739 31.52,63.53 42.88,97.07 5.68,-16.94 12.13,-33.61 19.28,-49.98 12.99,-29.37 28.04,-58.14 48.061,-83.39 1.72,-44.11 11.689,-87.66 26.65,-129.1 -5.261,-12.99 -12.57,-25.2 -21.86,-35.71 -14.49,-16.51 -34.171,-28.84 -55.9,-32.88 -20.371,-3.95 -41.961,-0.12 -60.051,9.93 z M 35.96,431.82 c 22.5,14.449 43.62,31.17 62.13,50.489 23.05,24.08 42.17,52.48 52.79,84.24 5.44,16.59 9.04,34.029 8.31,51.561 25.23,33.859 63.91,55.979 104.45,66.119 -0.18,-39.369 -7.32,-78.67 -20.9,-115.609 -22.56,-61.71 -62.3,-116.24 -110.76,-160.221 -22.42,-20.279 -46.54,-38.79 -72.57,-54.2 -11.72,24.481 -18.63,51 -23.45,77.621 z m 395.6,-23.55 c -47.95,43.47 -87.36,97.25 -110.09,158.12 -14.109,37.59 -21.53,77.67 -21.729,117.82 14.409,-3.45 28.38,-8.67 41.67,-15.2 24.2,-11.95 46.44,-28.76 62.5,-50.62 0.12,-11 0.93,-22.199 3.42,-33.02 7,-32.521 23.43,-62.41 44.49,-87.921 21.36,-25.89 47.489,-47.529 75.63,-65.67 -4.9,-26.6 -11.74,-53.109 -23.471,-77.58 C 478,369.57 453.939,388.05 431.56,408.27 Z"
     id="path1" />
  <path
     d="m 169.8,283.11 c 10.37,-16.09 23.66,-30.37 39.4,-41.31 21.15,-14.84 46.8,-23.39 72.7,-23.26 26.31,-0.04 52.331,8.89 73.63,24.22 14.83,10.58 27.45,24.14 37.409,39.37 23.991,-50.29 57.2,-96.11 97.431,-134.65 -11.91,-17.2 -26.53,-32.41 -42.46,-45.91 C 409.75,69.35 362.2,48.59 312.72,42.07 298.83,40.32 284.79,39 270.801,40.09 c -42.34,2.52 -84.13,15.04 -120.58,36.79 -30.09,18.01 -57,41.82 -77.19,70.59 40.839,38.22 73.379,84.92 96.769,135.64 z"
     id="path2" />
  <path
     d="m 43.37,309.45 c 26.75,14.81 52.68,31.14 77.42,49.12 21.65,15.89 42.6,33.03 60.44,53.2 -2.71,-13.69 -6.15,-27.229 -10.12,-40.609 -18.61,-62.061 -48.1,-121.67 -91.19,-170.44 -6.39,5.83 -12.54,11.96 -17.9,18.75 -3.36,4.35 -6.62,8.97 -8.03,14.36 24.1,29.83 46.64,60.89 68.36,92.49 C 101.93,310.361 81.64,294.241 61.1,278.431 52.85,287.18 47,298.02 43.37,309.45 Z"
     id="path3" />
  <path
     d="m 483.47,200.72 c -26.899,30.34 -48.479,65.15 -65.43,101.91 -15.98,34.89 -28.28,71.52 -35.891,109.149 16.61,-18.81 35.971,-34.959 56.021,-49.95 26.05,-19.29 53.49,-36.67 81.84,-52.37 -3.62,-11.44 -9.479,-22.25 -17.71,-31.03 -20.55,15.79 -40.85,31.92 -61.26,47.9 10.399,-15.09 20.98,-30.06 31.75,-44.89 11.77,-16.24 24.23,-31.96 36.641,-47.71 -1.65,-5.67 -5.11,-10.55 -8.741,-15.12 -5.211,-6.449 -11.11,-12.299 -17.22,-17.889 z"
     id="path4" />
  <path
     d="m 349.03,452.29 c 1.72,-44.11 11.689,-87.66 26.65,-129.1 -5.261,-12.99 -12.57,-25.2 -21.86,-35.71 -14.49,-16.51 -34.171,-28.84 -55.9,-32.88 -20.37,-3.95 -41.96,-0.12 -60.05,9.93 -23.75,13.01 -41.35,35.55 -50.95,60.63 14.44,40.93 24.16,83.669 27.48,126.99 8.91,11.591 17.15,23.73 24.41,36.44 17.64,30.739 31.52,63.53 42.88,97.07 5.68,-16.94 12.13,-33.61 19.28,-49.98 12.99,-29.37 28.04,-58.14 48.06,-83.39 z"
     id="path5" />
  <path
     d="m 131.98,408.399 c -22.42,-20.279 -46.54,-38.79 -72.57,-54.2 -11.72,24.48 -18.63,51 -23.45,77.621 22.5,14.449 43.62,31.17 62.13,50.489 23.05,24.08 42.17,52.48 52.79,84.24 5.44,16.59 9.04,34.029 8.31,51.561 25.23,33.859 63.91,55.979 104.45,66.119 -0.18,-39.369 -7.32,-78.67 -20.9,-115.609 -22.56,-61.71 -62.3,-116.24 -110.76,-160.221 z"
     id="path6" />
  <path
     d="m 503.979,354.2 c -25.979,15.371 -50.04,33.85 -72.42,54.07 -47.949,43.47 -87.359,97.25 -110.089,158.12 -14.109,37.59 -21.53,77.67 -21.729,117.82 14.409,-3.45 28.38,-8.67 41.67,-15.2 24.2,-11.95 46.44,-28.76 62.5,-50.62 0.12,-11 0.93,-22.199 3.42,-33.02 7,-32.521 23.43,-62.41 44.49,-87.921 21.36,-25.89 47.489,-47.529 75.63,-65.67 C 522.55,405.18 515.71,378.67 503.979,354.2 Z"
     id="path7" />
</svg>
