<?xml version="1.0" encoding="UTF-8" standalone="no"?>
<svg
   version="1.1"
   x="0px"
   y="0px"
   width="491.491"
   height="644.53558"
   viewBox="0 0 491.49101 644.53559"
   id="svg6"
   xmlns="http://www.w3.org/2000/svg"
   xmlns:svg="http://www.w3.org/2000/svg">
  <defs
     id="defs6" />
  <path
     d="m 133.84,243.41659 c 10.37,-16.09 23.66,-30.37 39.4,-41.31 21.15,-14.84 46.8,-23.39 72.7,-23.26 26.31,-0.04 52.331,8.89 73.63,24.22 14.83,10.58 27.45,24.14 37.409,39.37 23.991,-50.29 57.2,-96.11 97.431,-134.65 C 442.5,90.586593 427.88,75.376593 411.95,61.876593 373.79,29.656593 326.24,8.8965925 276.76,2.3765925 262.87,0.62659251 248.83,-0.69340749 234.841,0.39659251 192.501,2.9165925 150.711,15.436593 114.261,37.186593 c -30.09,18.01 -57,41.82 -77.19,70.589997 40.839,38.22 73.379,84.92 96.769,135.64 z"
     id="path1" />
  <path
     d="m 7.41,269.75659 c 26.75,14.81 52.68,31.14 77.42,49.12 21.65,15.89 42.6,33.03 60.44,53.2 -2.71,-13.69 -6.15,-27.229 -10.12,-40.609 -18.61,-62.061 -48.1,-121.67 -91.19,-170.44 -6.39,5.83 -12.54,11.96 -17.9,18.75 -3.36,4.35 -6.62,8.97 -8.03,14.36 24.1,29.83 46.64,60.89 68.36,92.49 -20.42,-15.96 -40.71,-32.08 -61.25,-47.89 -8.25,8.749 -14.1,19.589 -17.73,31.019 z"
     id="path2" />
  <path
     d="m 447.51,161.02659 c -26.899,30.34 -48.479,65.15 -65.43,101.91 -15.98,34.89 -28.28,71.52 -35.891,109.149 16.61,-18.81 35.971,-34.959 56.021,-49.95 26.05,-19.29 53.49,-36.67 81.84,-52.37 -3.62,-11.44 -9.479,-22.25 -17.71,-31.03 -20.55,15.79 -40.85,31.92 -61.26,47.9 10.399,-15.09 20.98,-30.06 31.75,-44.89 11.77,-16.24 24.23,-31.96 36.641,-47.71 -1.65,-5.67 -5.11,-10.55 -8.741,-15.12 -5.211,-6.449 -11.11,-12.299 -17.22,-17.889 z"
     id="path3" />
  <path
     d="m 313.07,412.59659 c 1.72,-44.11 11.689,-87.66 26.65,-129.1 -5.261,-12.99 -12.57,-25.2 -21.86,-35.71 -14.49,-16.51 -34.171,-28.84 -55.9,-32.88 -20.37,-3.95 -41.96,-0.12 -60.05,9.93 -23.75,13.01 -41.35,35.55 -50.95,60.63 14.44,40.93 24.16,83.669 27.48,126.99 8.91,11.591 17.15,23.73 24.41,36.44 17.64,30.739 31.52,63.53 42.88,97.07 5.68,-16.94 12.13,-33.61 19.28,-49.98 12.99,-29.37 28.04,-58.14 48.06,-83.39 z"
     id="path4" />
  <path
     d="m 96.02,368.70559 c -22.42,-20.279 -46.54,-38.79 -72.57,-54.2 -11.72,24.48 -18.63,51 -23.45,77.621 22.5,14.449 43.62,31.17 62.13,50.489 23.05,24.08 42.17,52.48 52.79,84.24 5.44,16.59 9.04,34.029 8.31,51.561 25.23,33.859 63.91,55.979 104.45,66.119 -0.18,-39.369 -7.32,-78.67 -20.9,-115.609 -22.56,-61.71 -62.3,-116.24 -110.76,-160.221 z"
     id="path5" />
  <path
     d="m 468.019,314.50659 c -25.979,15.371 -50.04,33.85 -72.42,54.07 -47.949,43.47 -87.359,97.25 -110.089,158.12 -14.109,37.59 -21.53,77.67 -21.729,117.82 14.409,-3.45 28.38,-8.67 41.67,-15.2 24.2,-11.95 46.44,-28.76 62.5,-50.62 0.12,-11 0.93,-22.199 3.42,-33.02 7,-32.521 23.43,-62.41 44.49,-87.921 21.36,-25.89 47.489,-47.529 75.63,-65.67 -4.901,-26.599 -11.741,-53.109 -23.472,-77.579 z"
     id="path6" />
</svg>
