<svg xmlns="http://www.w3.org/2000/svg" xmlns:xlink="http://www.w3.org/1999/xlink" width="600" height="826.705"><radialGradient id="a" cx="0" cy="0" r="1" fx="0" fy="0" gradientTransform="matrix(14.49825 0 0 -14.49825 218.165 481.74)" gradientUnits="userSpaceOnUse" spreadMethod="pad"><stop offset="0" style="stop-color:#ebd491"/><stop offset=".7" style="stop-color:#d2bb7b"/><stop offset="1" style="stop-color:#8b723c"/></radialGradient><radialGradient xlink:href="#a" id="b" cx="0" cy="0" r="1" fx="0" fy="0" gradientTransform="translate(299.98 424.818)scale(299.67434)" gradientUnits="userSpaceOnUse" spreadMethod="pad"/><path d="M21.248 70.007c-3.803 12.423-5.828 25.424-5.828 37.537 0 27.366 10.748 52.005 31.004 71.29l3.555 3.327 12.836 62.154-4.588 5.663C20.112 296.713 0 351.799 0 409.28c0 128.607 97.21 236.565 226.25 251.013l7.028.807 31.646 46.196.226 2.088 3.41 23.026c.229 3.39.394 6.862.394 10.335 0 29.702-9.198 61.513-17.362 83.96 21.475-6.366 50.062-16.556 69.594-30.364 20.525-14.448 41.112-36.482 55.003-58.929l2.645-4.361 4.775-1.86c43.758-17.756 82.348-43.2 114.737-75.569C563.911 590.058 600 503.018 600 410.562c0-191.194-155.519-346.775-346.714-346.775-44.15 0-88.073 8.888-130.632 26.395l-9.529 3.968-6.221-6.304L93.82 74.845C71.703 48.76 57.896 21.228 49.587 0c-9.364 19.057-20.505 44.337-28.339 70.008" style="fill:#fff"/><path d="m334.911 658.122-19.45-32.306c93.51-26.954 161.802-113.105 161.802-215.255 0-123.77-100.268-224.06-223.977-224.06-41.174 0-79.681 11.162-112.794 30.447l-7.42-37.701c36.006-18.727 76.87-29.393 120.214-29.393 143.717 0 260.645 116.908 260.645 260.707 0 115.234-75.175 213.25-179.02 247.561M108.6 467.9c-26.313-66.205-17.446-163.993 94.315-208.474 22.592-9.054 67.26-18.334 107.545-16.392l29.144 73.15-9.363 3.721c-31.335-55.725-83.816-59.921-126.933-42.724-47.788 19.057-77.015 80.426-45.453 159.715 30.674 76.788 97.293 131.19 159.467 106.407 26.974-10.727 61.844-45.452 70.567-113.352l22.447 46.9c-25.362 46.113-59.177 72.922-97.623 88.176-124.328 49.566-186.337-52.646-204.113-97.127M253.286 94.873c-49.648 0-97.457 11.39-140.636 32.948 0 0-37.722-14.221-58.31-57.73 0 0-28.648 63.042 24.06 96.237l17.693 85.345C55.87 292.041 31.005 347.746 31.005 409.28c0 122.323 98.429 221.703 220.421 223.398l42.394 61.864c12.608 40.12 1.136 80.24 1.136 80.24 34.394-12.67 62.34-66.122 62.34-66.122 44.315-15.42 84.931-40.76 119.078-75.01 59.756-59.653 92.62-138.86 92.62-223.089 0-174.08-141.628-315.688-315.708-315.688" style="fill:#8b723c"/><path d="m82.761 159.3 2.998 1.943.723 3.39 17.673 85.345.888 4.361-3.059 3.142c-40.45 40.616-62.65 94.46-62.65 151.798 0 117.074 95.102 213.56 212.175 215.09l4.279.082 2.439 3.555 42.372 61.927.724.971.33 1.199c8 25.444 6.946 50.64 4.775 66.866 24.37-18.086 43.345-53.7 43.593-54.092l1.447-2.915 3.08-1.054c43.757-15.254 82.823-39.872 116.018-73.067 58.124-58.123 90.1-135.325 90.1-217.28 0-169.554-137.909-307.462-307.38-307.462-48.284 0-94.295 10.831-137.019 32.142l-3.224 1.612-3.308-1.282c-1.446-.578-31.087-12.03-53.12-44.894-4.052 19.057-4.197 49.483 26.146 68.623m49.587 59.26-7.441-37.701-1.116-6.057 5.395-2.831c38.115-19.864 81.066-30.426 124.1-30.426 148.244 0 268.955 120.71 268.955 269.016 0 116.267-74.287 218.892-184.746 255.395l-6.284 2.087-3.39-5.725-19.47-32.286-5.478-9.219 10.335-2.976c91.711-26.499 155.746-111.679 155.746-207.276 0-118.934-96.734-215.73-215.668-215.73-38.26 0-75.899 10.087-108.68 29.227L134.6 229.95zM100.93 470.875c-30.756-77.18-12.112-174.969 98.822-219.12 20.835-8.33 60.81-17.28 99.649-17.28 3.782 0 7.668.083 11.389.31l5.312.166 1.943 5.002 29.227 73.088 3.08 7.751-7.69 3.06-9.363 3.72-6.697 2.666-3.555-6.304c-22.117-39.169-53.287-47.395-75.486-47.395-13.415 0-27.222 2.831-41.174 8.309-22.365 8.97-39.334 27.532-47.726 52.253-9.446 28.173-7.11 61.596 6.862 96.713 25.672 64.118 74.039 107.317 120.546 107.317 9.611 0 19.14-1.86 28.172-5.498 26.334-10.5 57.338-44.088 65.482-106.738l3.555-27.78 12.113 25.279 22.364 46.9 1.86 3.803-2.025 3.72c-24.287 44.233-57.648 74.266-101.798 91.877-23.11 9.198-45.536 13.89-66.619 13.89-97.21 0-140.492-96.32-148.243-115.709" style="fill:url(#b)"/></svg>