<svg xmlns="http://www.w3.org/2000/svg" xmlns:xlink="http://www.w3.org/1999/xlink" width="600" height="826.62"><radialGradient id="a" cx="0" cy="0" r="1" fx="0" fy="0" gradientTransform="matrix(14.49852 0 0 -14.49852 135.642 481.739)" gradientUnits="userSpaceOnUse" spreadMethod="pad"><stop offset="0" style="stop-color:#d9eaf3"/><stop offset=".663" style="stop-color:#99aebc"/><stop offset="1" style="stop-color:#536e78"/></radialGradient><radialGradient xlink:href="#a" id="b" cx="0" cy="0" r="1" fx="0" fy="0" gradientTransform="translate(300.023 424.805)scale(299.64906)" gradientUnits="userSpaceOnUse" spreadMethod="pad"/><path d="M21.308 70c-3.782 12.421-5.807 25.421-5.807 37.533 0 27.363 10.747 52 31.001 71.282l3.555 3.327L62.89 244.29l-4.691 5.663C20.192 296.682 0 351.76 0 409.238c0 128.593 97.282 236.54 226.206 250.986l7.11.807 31.56 46.192.247 2.088 3.473 23.023c.33 3.39.413 6.862.413 10.334 0 29.7-9.218 61.507-17.36 83.952 21.473-6.366 50.056-16.555 69.587-30.36 20.502-14.447 41.087-36.48 54.976-58.924l2.666-4.36 4.691-1.861c43.754-17.753 82.423-43.195 114.788-75.56C563.914 589.996 600 502.964 600 410.52c0-191.175-155.565-346.74-346.657-346.74-44.167 0-88.085 8.887-130.702 26.393l-9.527 3.968-6.139-6.304-13.082-13C71.778 48.755 57.973 21.226 49.643 0 40.281 19.055 29.06 44.332 21.308 70.001" style="fill:#fff"/><path d="m334.877 658.054-19.366-32.303c93.397-26.95 161.786-113.093 161.786-215.232 0-123.757-100.28-224.036-223.954-224.036-41.17 0-79.694 11.16-112.866 30.443l-7.357-37.698c35.94-18.725 76.862-29.389 120.223-29.389 143.702 0 260.597 116.896 260.597 260.68 0 115.222-75.168 213.227-179.063 247.535M108.67 467.851c-26.413-66.198-17.443-163.977 94.203-208.453 22.693-9.053 67.252-18.332 107.616-16.39l29.162 73.143-9.383 3.72c-31.312-55.72-83.787-59.915-126.9-42.72-47.803 19.056-77.027 80.418-45.447 159.698 30.588 76.78 97.282 131.177 159.43 106.397 26.97-10.726 61.857-45.448 70.58-113.34l22.423 46.894c-25.338 46.11-59.253 72.915-97.592 88.168-124.336 49.56-186.339-52.64-204.092-97.117M253.343 94.863c-49.664 0-97.53 11.388-140.725 32.944 0 0-37.615-14.219-58.283-57.724 0 0-28.583 63.036 24.057 96.228l17.754 85.336c-40.199 40.364-65.062 96.063-65.062 157.59 0 122.311 98.336 221.68 220.316 223.376l42.39 61.858c12.669 40.115 1.198 80.231 1.198 80.231 34.329-12.67 62.333-66.115 62.333-66.115 44.332-15.418 84.923-40.757 119.087-75.003 59.647-59.647 92.508-138.845 92.508-223.065 0-174.062-141.593-315.656-315.573-315.656" style="fill:#536e78"/><path d="m82.836 159.284 2.976 1.942.723 3.39 17.692 85.336.888 4.361-3.141 3.142c-40.385 40.611-62.582 94.45-62.582 151.782 0 117.061 95.113 213.537 212.174 215.067l4.278.082 2.335 3.555 42.472 61.92.723.972.331 1.198c7.978 25.442 6.944 50.636 4.67 66.86 24.471-18.002 43.444-53.694 43.671-54.087l1.468-2.914 3.059-1.054c43.753-15.253 82.753-39.868 116.027-73.06 58.118-58.117 90.09-135.31 90.09-217.257 0-169.537-137.894-307.43-307.43-307.43-48.031 0-94.14 10.83-136.922 32.138l-3.224 1.529-3.39-1.199c-1.467-.578-31.001-12.028-53.136-44.89-3.865 19.056-4.113 49.478 26.248 68.617m49.478 59.254-7.337-37.698-1.22-6.056 5.498-2.831C167.84 151.78 209.59 141.53 253.26 141.53c148.31 0 269.01 120.699 269.01 268.989 0 116.255-74.28 218.869-184.81 255.368l-6.221 2.087-3.39-5.642-19.448-32.365-5.58-9.218 10.417-2.976c91.722-26.496 155.73-111.667 155.73-207.254 0-119.004-96.704-215.708-215.708-215.708-38.193 0-75.808 10.086-108.587 29.307l-10.086 5.807zm-31.312 252.371c-15.335-38.504-17.112-81.533-4.856-118.115 15.273-45.2 51.028-80.17 103.668-101.064 20.833-8.412 60.949-17.278 99.783-17.278 3.803 0 7.502.082 11.222.227l5.415.248 1.943 5.001 29.141 73.143 3.06 7.688-7.751 3.059-9.28 3.72-6.696 2.666-3.555-6.303c-22.114-39.165-53.198-47.391-75.499-47.391-13.392 0-27.198 2.831-41.17 8.308-22.362 8.97-39.31 27.53-47.7 52.248-9.528 28.17-7.11 61.59 6.862 96.703 25.586 64.194 74.03 107.306 120.533 107.306 9.61 0 19.138-1.86 28.17-5.497 26.31-10.5 57.393-44.084 65.392-106.727l3.637-27.778 12.029 25.277 22.445 46.833 1.86 3.864-2.108 3.72c-24.305 44.23-57.56 74.26-101.726 91.868-23.086 9.197-45.53 13.888-66.59 13.888-97.221 0-140.478-96.31-148.229-115.614" style="fill:url(#b)"/></svg>