<svg xmlns="http://www.w3.org/2000/svg" width="520.512" height="295.502"><path d="M453.11 295.502c24.056-24.878 31.875-42.084 23.909-54.481-4.976-7.717-16.044-13.635-27.296-16.487-20.124-5.04-40.893-.424-60.361 7.505-31.478 12.84-59.53 34.33-80.337 60.906-4.726-15.111-12.914-28.92-24.13-40.967-9.48-10.164-21.194-19.071-33.998-21.527-12.766-2.446-26.65 1.514-39.628 5.622-7.902 2.455-15.434 5.012-22.791 8.446 1.8-4.514 3.065-9.055 4.181-13.846 2.271-10.136 3.72-21.5-.212-30.26-5.77-12.729-23.004-19.938-38.66-21.055-13.19-.979-25.237 2.381-36.166 8.15 6.101-6.202 10.892-13.347 15-21.313 4.292-8.188 7.939-17.272 6.822-26.032-1.302-10.532-9.342-20.659-18.896-26.031-12.01-6.785-26.465-6.065-40.173-4.985-7.791.62-15.36 1.302-22.856 3 7.062-6.027 12.831-13.31 17.77-21.425 4.55-7.348 8.335-15.425 8.409-23.936.101-10.061-5.012-20.705-12.693-27.259-8.732-7.43-20.77-9.526-32.345-11.474C25.533 25.856 12.951 23.835 0 24.093 31.736 9.158 67.21.074 102.408.001c30.795-.074 61.367 6.821 90.251 18.388 56.65 22.754 106.848 63.647 143.661 105.399 10.671-10.238 20.982-18.49 32.022-24.629 9.26-5.114 19.035-8.834 29.493-9.914 17.918-1.874 37.893 3.785 57.472 15.075-54.48 13.735-81.703 48.536-85.201 70.46 14.603-2.991 31.477-2.927 49.902-2.235 33.647 1.219 72.481 4.394 90.833 31.515 8.224 12.148 12.332 29.133 7.79 42.435-3.969 11.649-14.566 20.483-25.274 28.09-12.84 9.166-25.782 16.486-40.247 20.917"/></svg>