<svg xmlns="http://www.w3.org/2000/svg" id="Layer_2" width="1061.16" height="600.22" data-name="Layer 2" version="1.1" viewBox="0 0 1061.16 600.22"><defs id="defs1"><style id="style1">.cls-1{stroke-width:0}</style></defs><g id="Layer_1-2" data-name="Layer 1"><g id="g1"><path id="p1" d="m390.09 0-17.86 33.48H20.48s-3.84 11.65 18.91 32.13l107.09 96.4L0 394.57h113.29L433.06 558.3l39.53 41.92h115.98l39.53-41.92 319.77-163.73h113.29L914.69 162.01l107.09-96.4c22.74-20.48 18.91-32.13 18.91-32.13H688.94L671.07 0Z" style="fill:#fff;stroke-width:0"/><path id="p2" d="M406.53 23.91 249.6 313.11c-3.52 6.49-2.97 11.66.9 15.77l233.16 247.43h93.86l233.16-247.43c3.87-4.1 4.42-9.28.9-15.77L654.63 23.91Zm124.05 23.17c6.99 0 2.15 116.28 30.04 234.73 6.98.48 13.92 1.06 20.77 1.87 19.48-65.79 19.15-178.3 25.71-178.3s2.69 121.63 34.6 190.04c4.17 1.14 8.31 2.33 12.41 3.59 24.69-42.35 23.82-132.2 29.52-132.2 6.05 0 10.48 113.26 21.52 174.19-77.26 21.59-151.46 96.57-174.57 206.33C507.47 437.57 433.27 362.6 356.01 341c11.04-60.93 15.47-174.19 21.52-174.19 5.7 0 4.83 89.84 29.52 132.2 4.09-1.26 8.24-2.45 12.41-3.59 31.91-68.4 27.99-190.04 34.6-190.04s6.22 112.51 25.71 178.3c6.85-.81 13.8-1.39 20.77-1.87 27.89-118.45 23.05-234.73 30.04-234.73" class="cls-1"/><path id="p3" d="M76.3 57.39c-5.6 0-2.36 5.69-1.79 6.2l104.7 93.64L50.59 362.44c-3.62 5.77-2.7 8.22 3.89 8.22h66.88l245.11 125.62c4.5 2.31 9.65 1.63 3.96-4.41L215.52 327.61l144-270.22Z" class="cls-1"/><g id="u1"><path id="p3-2" d="M984.86 57.39c5.6 0 2.36 5.69 1.79 6.2l-104.7 93.64 128.61 205.21c3.62 5.77 2.7 8.22-3.89 8.22h-66.88L694.68 496.28c-4.5 2.31-9.65 1.63-3.96-4.41l154.91-164.26L701.64 57.39h283.23z" class="cls-1" data-name="p3"/></g></g></g></svg>