<svg xmlns="http://www.w3.org/2000/svg" xmlns:xlink="http://www.w3.org/1999/xlink" width="443.75" height="251"><defs><linearGradient id="a"><stop offset="0" style="stop-color:#a72029;stop-opacity:1"/><stop offset=".05" style="stop-color:#c34f25;stop-opacity:1"/><stop offset=".5" style="stop-color:#f69932;stop-opacity:1"/><stop offset=".95" style="stop-color:#c34f25;stop-opacity:1"/><stop offset="1" style="stop-color:#a72029;stop-opacity:1"/></linearGradient><linearGradient id="b"><stop offset="0" style="stop-color:#a72029;stop-opacity:1"/><stop offset=".3" style="stop-color:#c34f25;stop-opacity:1"/><stop offset="1" style="stop-color:#f69932;stop-opacity:1"/></linearGradient><linearGradient xlink:href="#a" id="c" x1="367.518" x2="604.482" y1="125.75" y2="125.75" gradientTransform="translate(-264.125 -60)" gradientUnits="userSpaceOnUse"/><linearGradient xlink:href="#b" id="d" x1="284.405" x2="420.081" y1="125.75" y2="125.75" gradientTransform="translate(-264.125 -60)" gradientUnits="userSpaceOnUse"/></defs><path d="m163.125 0-7.469 14H8.563s-1.605 4.872 7.906 13.438L61.25 67.75 0 165h47.375l133.719 68.469L197.625 251h48.5l16.531-17.531L396.375 165h47.375L382.5 67.75l44.781-40.312C436.792 18.871 435.187 14 435.187 14H288.095l-7.469-14Z" style="fill:#000;fill-opacity:1;stroke:none"/><path d="m170 10-65.625 120.938c-1.472 2.712-1.243 4.877.375 6.593L202.25 241h39.25L339 137.531c1.618-1.716 1.847-3.881.375-6.594L273.75 10Zm51.875 9.688c2.922 0 .901 48.624 12.563 98.156 2.917.2 5.822.443 8.687.781 8.148-27.513 8.01-74.562 10.75-74.562 2.766 0 1.124 50.863 14.469 79.468 1.742.475 3.477.974 5.187 1.5 10.325-17.711 9.96-55.281 12.344-55.281 2.53 0 4.382 47.363 9 72.844-32.307 9.03-63.337 40.382-73 86.281-9.663-45.9-40.693-77.251-73-86.281 4.618-25.48 6.47-72.844 9-72.844 2.384 0 2.02 37.57 12.344 55.281 1.71-.526 3.445-1.025 5.187-1.5 13.345-28.605 11.703-79.468 14.469-79.468 2.74 0 2.602 47.049 10.75 74.562 2.865-.338 5.77-.58 8.688-.781 11.66-49.532 9.64-98.156 12.562-98.156" style="fill:url(#c);fill-opacity:1;stroke:none"/><path id="e" d="M31.906 24c-2.34 0-.988 2.38-.75 2.594L74.938 65.75l-53.782 85.813c-1.512 2.412-1.128 3.437 1.625 3.437H50.75l102.5 52.531c1.883.965 4.037.681 1.656-1.844L90.125 137l60.219-113Z" style="fill:url(#d);fill-opacity:1;stroke:none"/><use xlink:href="#e" width="972" height="417" transform="matrix(-1 0 0 1 443.75 0)"/></svg>