<svg xmlns="http://www.w3.org/2000/svg" xmlns:xlink="http://www.w3.org/1999/xlink" width="1061.16" height="600.22" data-name="Layer 2" viewBox="0 0 1061.16 600.22"><defs><linearGradient id="b" x1="511.37" x2="1078.04" y1="147.95" y2="147.95" gradientTransform="matrix(1 0 0 -1 -264.12 448.07)" gradientUnits="userSpaceOnUse"><stop offset="0" stop-color="#612c75"/><stop offset=".1" stop-color="#7b498b"/><stop offset=".18" stop-color="#8c5c99"/><stop offset=".22" stop-color="#9567a1"/><stop offset=".33" stop-color="#ac82b3"/><stop offset=".43" stop-color="#ba93bf"/><stop offset=".5" stop-color="#bf99c3"/><stop offset=".57" stop-color="#ba93bf"/><stop offset=".67" stop-color="#ac82b3"/><stop offset=".78" stop-color="#9567a1"/><stop offset=".82" stop-color="#8c5c99"/><stop offset=".9" stop-color="#7b498b"/><stop offset="1" stop-color="#612c75"/></linearGradient><linearGradient id="a" x1="312.62" x2="637.07" y1="170.62" y2="170.62" data-name="New Gradient Swatch 13" gradientTransform="matrix(1 0 0 -1 -264.12 448.07)" gradientUnits="userSpaceOnUse"><stop offset="0" stop-color="#612c75"/><stop offset=".09" stop-color="#6f3c80"/><stop offset=".34" stop-color="#91649d"/><stop offset=".57" stop-color="#aa81b1"/><stop offset=".76" stop-color="#b992be"/><stop offset=".91" stop-color="#bf99c3"/></linearGradient><linearGradient xlink:href="#a" id="d" x1="-13361.63" x2="-13037.18" data-name="New Gradient Swatch 13" gradientTransform="rotate(180 -6174.48 224.035)"/><linearGradient xlink:href="#a" id="c" x1="312.62" x2="637.07" y1="170.62" y2="170.62" gradientTransform="matrix(1 0 0 -1 -264.12 448.07)" gradientUnits="userSpaceOnUse"/></defs><g data-name="Layer 1"><path d="m390.09 0-17.86 33.48H20.48s-3.84 11.65 18.91 32.13l107.09 96.4L0 394.57h113.29L433.06 558.3l39.53 41.92h115.98l39.53-41.92 319.77-163.73h113.29L914.69 162.01l107.09-96.4c22.74-20.48 18.91-32.13 18.91-32.13H688.94L671.07 0Z" style="stroke-width:0"/><path d="M406.53 23.91 249.6 313.11c-3.52 6.49-2.97 11.66.9 15.77l233.16 247.43h93.86l233.16-247.43c3.87-4.1 4.42-9.28.9-15.77L654.63 23.91Zm124.05 23.17c6.99 0 2.15 116.28 30.04 234.73 6.98.48 13.92 1.06 20.77 1.87 19.48-65.79 19.15-178.3 25.71-178.3s2.69 121.63 34.6 190.04c4.17 1.14 8.31 2.33 12.41 3.59 24.69-42.35 23.82-132.2 29.52-132.2 6.05 0 10.48 113.26 21.52 174.19-77.26 21.59-151.46 96.57-174.57 206.33C507.47 437.57 433.27 362.6 356.01 341c11.04-60.93 15.47-174.19 21.52-174.19 5.7 0 4.83 89.84 29.52 132.2 4.09-1.26 8.24-2.45 12.41-3.59 31.91-68.4 27.99-190.04 34.6-190.04s6.22 112.51 25.71 178.3c6.85-.81 13.8-1.39 20.77-1.87 27.89-118.45 23.05-234.73 30.04-234.73" style="fill:url(#b);stroke-width:0"/><path d="M76.3 57.39c-5.6 0-2.36 5.69-1.79 6.2l104.7 93.64L50.59 362.44c-3.62 5.77-2.7 8.22 3.89 8.22h66.88l245.11 125.62c4.5 2.31 9.65 1.63 3.96-4.41L215.52 327.61l144-270.22Z" style="fill:url(#c);stroke-width:0"/><path d="M984.86 57.39c5.6 0 2.36 5.69 1.79 6.2l-104.7 93.64 128.61 205.21c3.62 5.77 2.7 8.22-3.89 8.22h-66.88L694.68 496.28c-4.5 2.31-9.65 1.63-3.96-4.41l154.91-164.26L701.64 57.39h283.23z" data-name="p3" style="fill:url(#d);stroke-width:0"/></g></svg>