<svg xmlns="http://www.w3.org/2000/svg" width="600" height="470.985"><path d="M442.055 470.985H157.91l-28.389-94.197L0 99.166l192.127 60.804L299.982 0l107.856 159.97L600 99.166 470.444 376.788Z" style="fill:gray"/><path d="M333.14 261.891c0 35.701-14.848 64.678-33.158 64.678s-33.11-28.977-33.11-64.678c0-35.689 14.8-64.619 33.11-64.619s33.158 28.93 33.158 64.62m-180.706 116.05H447.53l-20.876 72.673H173.31Zm48.064-193.916-162.407-51.42L142.497 356.37h314.971l104.406-223.765-162.408 51.42L300.03 36.478Z"/></svg>