<svg xmlns="http://www.w3.org/2000/svg" width="600" height="470.985"><radialGradient id="a" cx="0" cy="0" r="1" fx="0" fy="0" gradientTransform="matrix(19.1427 0 0 -19.14269 483 371.193)" gradientUnits="userSpaceOnUse" spreadMethod="pad"><stop offset="0" style="stop-color:#ebd491"/><stop offset=".7" style="stop-color:#d2bb7b"/><stop offset="1" style="stop-color:#8b723c"/></radialGradient><path d="M442.055 470.985H157.91l-28.389-94.197L0 99.166l192.127 60.804L299.982 0l107.856 159.97L600 99.166 470.444 376.788Z" style="fill:#fff"/><path d="M333.14 261.891c0 35.701-14.848 64.678-33.158 64.678s-33.11-28.977-33.11-64.678c0-35.689 14.8-64.619 33.11-64.619s33.158 28.93 33.158 64.62m-180.706 116.05H447.53l-20.876 72.673H173.31Zm48.064-193.916-162.407-51.42L142.497 356.37h314.971l104.406-223.765-162.408 51.42L300.03 36.478Z" style="fill:#8b723c"/><path d="m475.012 376.16-.231-.344-.394.125-12.602 3.989 8.192-17.551h26.05l8.188 17.551-12.602-3.989-.39-.125-.231.344-7.988 11.852zm4.625-6.312c0 3.386 1.476 6.043 3.363 6.043s3.363-2.657 3.363-6.043-1.476-6.036-3.363-6.036-3.363 2.649-3.363 6.036m-8.438-10.403 1.457-5.07h20.692l1.457 5.07z" style="fill:url(#a)" transform="matrix(11.77463 0 0 -11.77463 -5387.166 4616.763)"/></svg>