<svg xmlns="http://www.w3.org/2000/svg" width="600" height="471.013"><radialGradient id="a" cx="0" cy="0" r="1" fx="0" fy="0" gradientTransform="matrix(19.14151 0 0 -19.14151 401 371.193)" gradientUnits="userSpaceOnUse" spreadMethod="pad"><stop offset="0" style="stop-color:#d9eaf3"/><stop offset=".663" style="stop-color:#99aebc"/><stop offset="1" style="stop-color:#536e78"/></radialGradient><path d="M442.081 471.013H157.92l-28.39-94.203L0 99.172l192.138 60.808L300 0l107.862 159.98L600 99.172 470.471 376.81Z" style="fill:#fff"/><path d="M333.16 261.907c0 35.703-14.85 64.682-33.16 64.682s-33.16-28.98-33.16-64.682c0-35.691 14.85-64.623 33.16-64.623s33.16 28.932 33.16 64.623M152.442 377.964h295.114l-20.878 72.678H173.321Zm48.067-193.927L38.093 132.614l104.412 223.778h314.99l104.412-223.778-162.417 51.423L300 36.48Z" style="fill:#536e78"/><path d="m393.008 376.16-.231-.344-.39.125-12.602 3.989 8.192-17.551h26.046l8.188 17.551-12.598-3.989-.39-.125-.231.344-7.988 11.852zm4.625-6.308c0 3.386 1.48 6.039 3.367 6.039s3.367-2.653 3.367-6.039c0-3.387-1.48-6.04-3.367-6.04s-3.367 2.653-3.367 6.04m-8.434-10.407 1.453-5.066h20.692l1.457 5.066z" style="fill:url(#a)" transform="matrix(11.77533 0 0 -11.77533 -4421.906 4617.035)"/></svg>