<svg xmlns="http://www.w3.org/2000/svg" xml:space="preserve" width="653.803" height="1000" style="clip-rule:evenodd;fill-rule:evenodd;stroke-linejoin:round;stroke-miterlimit:2" viewBox="0 0 653.803 1000"><g transform="translate(-173.81 1.89)"><clipPath id="a"><path d="M.945-1.89h1000v1000H.945z"/></clipPath><g clip-path="url(#a)"><path d="m3993.12 377.039-196.26-237.004S3912.61.176 4116.12 0c203.52-.176 332.52 103.824 334.52 272.824s-126 281-254 333l-45 105 127 129L4115.29 1000l-161.8-161.721 127.18-127.312-90.52-195.12s156.14-42.216 180.13-167.789c24-125.572-17.59-219.951-71.98-208.753-54.39 11.197-104.78 44.79-59.99 191.957z" style="fill:#fff" transform="translate(-3623.05 -1.89)"/><path d="m492.04 728.183 108.97 108.033-109.67 108.967-107.37-107.194ZM371.91 318.55 224.43 142.999S323.22 34.862 492.49 35.57s301.95 84.435 295.57 234.147c-6.39 149.71-68.83 222.793-244.08 307.228l-51.49 121.738-75.5-164.06s183.32-53.492 174.18-253.397c0 0 10.78-176.48-110.22-183.48S348.05 248.754 371.91 318.55"/></g></g></svg>