<svg xmlns="http://www.w3.org/2000/svg" xml:space="preserve" width="653.803" height="1000" style="clip-rule:evenodd;fill-rule:evenodd;stroke-linejoin:round;stroke-miterlimit:2" viewBox="0 0 653.803 1000"><g transform="translate(-3797.193)"><clipPath id="a"><path d="M3624.33 0h1000v1000h-1000z"/></clipPath><g clip-path="url(#a)"><path d="m3993.453 377.039-196.26-237.004S3912.943.176 4116.453 0c203.52-.176 332.52 103.824 334.52 272.824s-126 281-254 333l-45 105 127 129L4115.623 1000l-161.8-161.721 127.18-127.312-90.52-195.12s156.14-42.216 180.13-167.789c24-125.572-17.59-219.951-71.98-208.753-54.39 11.197-104.78 44.79-59.99 191.957z"/><path d="m4115.09 730.073 108.97 108.033-109.67 108.967-107.37-107.194Z" style="fill:url(#b)" transform="translate(.333)"/><path d="m3994.96 320.44-147.48-175.551s98.79-108.137 268.06-107.428 301.95 84.435 295.57 234.147c-6.39 149.711-68.83 222.793-244.08 307.228l-51.49 121.738-75.5-164.059s183.32-53.493 174.18-253.398c0 0 10.78-176.479-110.22-183.479s-132.9 151.005-109.04 220.802" style="fill:url(#c)" transform="translate(.333)"/></g></g><defs><linearGradient id="b" x1="0" x2="1" y1="0" y2="0" gradientTransform="rotate(207.654 2242.404 -94.388)scale(628.118)" gradientUnits="userSpaceOnUse"><stop offset="0" style="stop-color:#bb2c26;stop-opacity:1"/><stop offset=".04" style="stop-color:#bf3526;stop-opacity:1"/><stop offset=".11" style="stop-color:#cb4d25;stop-opacity:1"/><stop offset=".19" style="stop-color:#de7523;stop-opacity:1"/><stop offset=".21" style="stop-color:#e17a23;stop-opacity:1"/><stop offset=".29" style="stop-color:#ee8b1f;stop-opacity:1"/><stop offset=".38" style="stop-color:#f5951e;stop-opacity:1"/><stop offset=".5" style="stop-color:#ff9915;stop-opacity:1"/><stop offset=".62" style="stop-color:#f5951e;stop-opacity:1"/><stop offset=".71" style="stop-color:#ee8b1f;stop-opacity:1"/><stop offset=".79" style="stop-color:#e17a23;stop-opacity:1"/><stop offset=".8" style="stop-color:#e07823;stop-opacity:1"/><stop offset=".85" style="stop-color:#d35d24;stop-opacity:1"/><stop offset=".91" style="stop-color:#c64225;stop-opacity:1"/><stop offset=".96" style="stop-color:#be3226;stop-opacity:1"/><stop offset="1" style="stop-color:#bb2c26;stop-opacity:1"/></linearGradient><linearGradient id="c" x1="0" x2="1" y1="0" y2="0" gradientTransform="rotate(35.217 2141.363 6175.082)scale(821.411)" gradientUnits="userSpaceOnUse"><stop offset="0" style="stop-color:#bb2c26;stop-opacity:1"/><stop offset=".04" style="stop-color:#bf3526;stop-opacity:1"/><stop offset=".11" style="stop-color:#cb4d25;stop-opacity:1"/><stop offset=".19" style="stop-color:#de7523;stop-opacity:1"/><stop offset=".21" style="stop-color:#e17a23;stop-opacity:1"/><stop offset=".29" style="stop-color:#ee8b1f;stop-opacity:1"/><stop offset=".38" style="stop-color:#f5951e;stop-opacity:1"/><stop offset=".5" style="stop-color:#ff9915;stop-opacity:1"/><stop offset=".62" style="stop-color:#f5951e;stop-opacity:1"/><stop offset=".71" style="stop-color:#ee8b1f;stop-opacity:1"/><stop offset=".79" style="stop-color:#e17a23;stop-opacity:1"/><stop offset=".8" style="stop-color:#e07823;stop-opacity:1"/><stop offset=".85" style="stop-color:#d35d24;stop-opacity:1"/><stop offset=".91" style="stop-color:#c64225;stop-opacity:1"/><stop offset=".96" style="stop-color:#be3226;stop-opacity:1"/><stop offset="1" style="stop-color:#bb2c26;stop-opacity:1"/></linearGradient></defs></svg>