<svg xmlns="http://www.w3.org/2000/svg" xml:space="preserve" width="653.803" height="1000" style="clip-rule:evenodd;fill-rule:evenodd;stroke-linejoin:round;stroke-miterlimit:2" viewBox="0 0 653.803 1000"><g transform="translate(-2589.19)"><clipPath id="a"><path d="M2416.33 0h1000v1000h-1000z"/></clipPath><g clip-path="url(#a)"><path d="m2785.45 377.039-196.26-237.004S2704.94.176 2908.45 0c203.52-.176 332.52 103.824 334.52 272.824s-126 281-254 333l-45 105 127 129L2907.62 1000l-161.8-161.721L2873 710.967l-90.52-195.12s156.14-42.216 180.13-167.789c24-125.572-17.59-219.951-71.98-208.753-54.39 11.197-104.78 44.79-59.99 191.957z"/><path d="m4115.09 730.073 108.97 108.033-109.67 108.967-107.37-107.194Z" style="fill:url(#b)" transform="translate(-1207.67)"/><path d="m3994.96 320.44-147.48-175.551s98.79-108.137 268.06-107.428 301.95 84.435 295.57 234.147c-6.39 149.711-68.83 222.793-244.08 307.228l-51.49 121.738-75.5-164.059s183.32-53.493 174.18-253.398c0 0 10.78-176.479-110.22-183.479s-132.9 151.005-109.04 220.802" style="fill:url(#c)" transform="translate(-1207.67)"/></g></g><defs><linearGradient id="b" x1="0" x2="1" y1="0" y2="0" gradientTransform="rotate(207.654 2242.404 -94.388)scale(628.118)" gradientUnits="userSpaceOnUse"><stop offset="0" style="stop-color:#8d742f;stop-opacity:1"/><stop offset=".07" style="stop-color:#967d38;stop-opacity:1"/><stop offset=".18" style="stop-color:#ae954f;stop-opacity:1"/><stop offset=".2" style="stop-color:#b39a54;stop-opacity:1"/><stop offset=".22" style="stop-color:#b9a059;stop-opacity:1"/><stop offset=".3" style="stop-color:#cab068;stop-opacity:1"/><stop offset=".39" style="stop-color:#d4ba71;stop-opacity:1"/><stop offset=".5" style="stop-color:#d7bd74;stop-opacity:1"/><stop offset=".61" style="stop-color:#d4ba71;stop-opacity:1"/><stop offset=".7" style="stop-color:#cab068;stop-opacity:1"/><stop offset=".78" style="stop-color:#b9a059;stop-opacity:1"/><stop offset=".8" style="stop-color:#b39a54;stop-opacity:1"/><stop offset=".86" style="stop-color:#a38a45;stop-opacity:1"/><stop offset=".94" style="stop-color:#937a35;stop-opacity:1"/><stop offset="1" style="stop-color:#8d742f;stop-opacity:1"/></linearGradient><linearGradient id="c" x1="0" x2="1" y1="0" y2="0" gradientTransform="rotate(35.217 2141.363 6175.082)scale(821.411)" gradientUnits="userSpaceOnUse"><stop offset="0" style="stop-color:#8d742f;stop-opacity:1"/><stop offset=".07" style="stop-color:#967d38;stop-opacity:1"/><stop offset=".18" style="stop-color:#ae954f;stop-opacity:1"/><stop offset=".2" style="stop-color:#b39a54;stop-opacity:1"/><stop offset=".22" style="stop-color:#b9a059;stop-opacity:1"/><stop offset=".3" style="stop-color:#cab068;stop-opacity:1"/><stop offset=".39" style="stop-color:#d4ba71;stop-opacity:1"/><stop offset=".5" style="stop-color:#d7bd74;stop-opacity:1"/><stop offset=".61" style="stop-color:#d4ba71;stop-opacity:1"/><stop offset=".7" style="stop-color:#cab068;stop-opacity:1"/><stop offset=".78" style="stop-color:#b9a059;stop-opacity:1"/><stop offset=".8" style="stop-color:#b39a54;stop-opacity:1"/><stop offset=".86" style="stop-color:#a38a45;stop-opacity:1"/><stop offset=".94" style="stop-color:#937a35;stop-opacity:1"/><stop offset="1" style="stop-color:#8d742f;stop-opacity:1"/></linearGradient></defs></svg>