<?xml version="1.0" encoding="UTF-8" standalone="no"?>
<svg
   version="1.1"
   width="95.171997"
   height="110.813"
   id="svg3"
   xmlns="http://www.w3.org/2000/svg"
   xmlns:svg="http://www.w3.org/2000/svg">
  <defs
     id="defs3" />
  <path
     d="M 95.172,21.592 92.047,20.42 C 88.591,19.118 82.799,16.223 79.027,12.888 V 11.784 3.575 0 H 75.452 59.051 54.497 l 1.081,4.423 c 0.167,0.683 0.248,1.324 0.248,1.96 0,4.544 -3.697,8.241 -8.241,8.241 -4.544,0 -8.241,-3.697 -8.241,-8.241 0,-0.636 0.081,-1.277 0.248,-1.96 L 40.672,0 H 36.119 19.715 16.139 v 3.575 8.209 1.106 c -3.771,3.334 -9.563,6.229 -13.02,7.531 L 0,21.596 0.951,24.79 C 8.58,50.36 7.947,61.643 7.939,61.753 l -0.084,1.271 0.737,1.055 c 5.89,8.27 11.79,14.94 17.623,19.936 -0.039,1.252 -0.083,2.479 -0.136,3.653 l -0.069,1.573 1.113,1.114 17.932,17.93 2.528,2.528 2.527,-2.528 17.932,-17.931 1.113,-1.113 -0.069,-1.573 c -0.002,-0.045 -0.061,-1.384 -0.12,-3.666 5.828,-4.994 11.723,-11.66 17.608,-19.923 l 0.751,-1.054 -0.099,-1.29 c -0.006,-0.093 -0.64,-11.376 6.99,-36.946 z"
     id="path1" />
  <linearGradient
     id="SVGID_1_"
     gradientUnits="userSpaceOnUse"
     x1="80.099602"
     y1="73.931198"
     x2="15.0727"
     y2="8.9042997">
    <stop
       offset="0"
       style="stop-color:#8b723c"
       id="stop1" />
    <stop
       offset="0.5"
       style="stop-color:#ebd491"
       id="stop2" />
    <stop
       offset="1"
       style="stop-color:#8b723c"
       id="stop3" />
  </linearGradient>
  <path
     fill="url(#SVGID_1_)"
     d="m 18.322,16.409 c 6.613,9.625 8.39,40.775 8.008,63.587 -4.426,-4.116 -9.409,-9.704 -14.823,-17.306 0,0 0.864,-11.449 -7.129,-38.237 0,0 8.311,-3.12 13.944,-8.044 m 72.472,8.044 c 0,0 -8.318,-3.122 -13.95,-8.049 -2.643,3.893 -6.271,13.797 -7.564,38.998 -0.482,9.378 -0.493,18.353 -0.405,24.563 4.418,-4.112 9.39,-9.692 14.791,-17.275 -10e-4,0 -0.865,-11.449 7.128,-38.237 M 46.373,105.23 V 18.804 C 40.42,18.194 35.77,13.182 35.77,7.068 35.77,6.099 35.901,5.162 36.121,4.26 H 19.716 v 8.209 c 12.746,12.746 9.938,76.042 9.938,76.042 z M 75.454,12.469 V 4.26 H 59.053 c 0.221,0.902 0.351,1.839 0.351,2.808 0,6.113 -4.648,11.124 -10.601,11.735 v 86.423 L 65.517,88.511 c 0,0 -2.809,-63.296 9.937,-76.042"
     id="path3"
     style="fill:url(#SVGID_1_)" />
</svg>
