<?xml version="1.0" encoding="UTF-8" standalone="no"?>
<svg
   version="1.1"
   width="86.416"
   height="100.97"
   id="svg1"
   xmlns="http://www.w3.org/2000/svg"
   xmlns:svg="http://www.w3.org/2000/svg">
  <defs
     id="defs1" />
  <path
     d="m 13.944,12.149 c 6.614,9.625 8.39,40.775 8.008,63.587 C 17.526,71.62 12.543,66.032 7.129,58.43 c 0,0 0.864,-11.449 -7.129,-38.237 0,0 8.312,-3.12 13.944,-8.044 m 72.472,8.044 c 0,0 -8.318,-3.122 -13.95,-8.049 -2.643,3.893 -6.271,13.797 -7.564,38.998 -0.482,9.378 -0.493,18.353 -0.405,24.563 4.418,-4.112 9.39,-9.692 14.791,-17.275 -10e-4,0 -0.865,-11.449 7.128,-38.237 M 41.995,100.97 V 14.544 C 36.042,13.934 31.392,8.922 31.392,2.808 31.392,1.839 31.522,0.902 31.742,0 H 15.338 v 8.209 c 12.746,12.746 9.938,76.042 9.938,76.042 z M 71.076,8.209 V 0 H 54.675 c 0.221,0.902 0.351,1.839 0.351,2.808 0,6.113 -4.648,11.124 -10.601,11.735 v 86.423 L 61.139,84.251 c 0,10e-4 -2.809,-63.296 9.937,-76.042"
     id="path1" />
</svg>
