<svg xmlns="http://www.w3.org/2000/svg" width="201.727" height="215.843" viewBox="0 0 201.727 215.843"><defs><linearGradient id="a" x1="165.516" x2="36.213" y1="166.196" y2="36.894" gradientTransform="translate(.001)" gradientUnits="userSpaceOnUse"><stop offset="0"/><stop offset=".5"/></linearGradient></defs><path d="m100.37 215.843-16.082-15.444c-15.13-2.725-29.517-8.51-42.01-17.443-34.654-24.78-49.907-68.163-38.59-109.463.474-1.734 3.903-10.378 3.903-10.96V29.09h22.415C51.956 7.257 83.277-3.15 114.12.836c21.601 2.791 42.25 12.874 57.57 28.254h22.655v34.162c0 .183 1.246 2.758 1.443 3.353 6.554 19.794 7.997 39.233 2.756 59.58-9.88 38.362-42.063 67.684-81.134 74.214l-16.08 15.444zM40.674 32.447h15.942l27.45 27.21v36.08l-15.35-14.753c-16.277 24.033-1.037 56.96 27.726 60.272 28.624 3.295 51.513-25.644 40.13-52.595-1.118-2.645-2.653-5.077-4.084-7.548l-14.86 14.623v-36.08l27.09-27.21h16.302c-1.183-1.332-2.61-2.506-4.02-3.586C124.047 3.628 78.34 3.328 45.255 28.516c-1.556 1.185-3.26 2.52-4.58 3.93m45.55 158.823v-23.733c-1.507-.728-3.336-.977-4.979-1.495-43.539-13.738-60.488-64.102-34.293-101.786.346-.498 2.278-2.783 2.328-2.969.09-.332-.04-.441-.2-.682-.217-.323-3.94-4.05-4.197-4.198-.235-.135-.43-.27-.72-.24l-16.745.062-11.678 11.577c-21.392 52.383 11.792 112.747 67.082 123.27.658.126 3.211.84 3.402.195m29.487.36c27.27-4.367 51.56-21.372 65.01-45.388 13.248-23.657 15.657-53.25 5.23-78.433l-11.674-11.58-16.745-.061c-.29-.03-.486.104-.72.239-.257.148-3.98 3.874-4.196 4.197-.15.223-.314.383-.199.68 14.434 17.608 18.766 41.68 11.18 63.28-6.515 18.552-21.446 33.654-39.916 40.395-2.63.96-5.416 1.56-7.97 2.578z" style="fill:#fff"/><path d="M40.675 32.447c1.32-1.41 3.024-2.746 4.58-3.931 33.084-25.188 78.792-24.888 111.746.344 1.41 1.08 2.837 2.254 4.02 3.587h-16.3l-27.09 27.21v36.08l14.86-14.624c1.43 2.47 2.965 4.903 4.082 7.548 11.384 26.95-11.505 55.89-40.129 52.595-28.763-3.312-44.003-36.24-27.726-60.272l15.35 14.752v-36.08l-27.45-27.21zm45.55 135.09c-1.507-.728-3.336-.977-4.979-1.495-43.539-13.738-60.488-64.102-34.293-101.786.346-.498 2.278-2.783 2.328-2.969.09-.332-.04-.441-.2-.682-.217-.323-3.94-4.05-4.197-4.198-.235-.135-.43-.27-.72-.24l-16.745.062-11.678 11.576c-21.392 52.383 11.792 112.747 67.082 123.27.658.126 3.211.84 3.402.195zm94.496-21.295c13.25-23.657 15.658-53.25 5.232-78.433l-11.675-11.58-16.745-.061c-.29-.03-.486.104-.72.239-.257.148-3.98 3.874-4.196 4.197-.15.223-.314.383-.199.68 14.434 17.608 18.766 41.68 11.18 63.28-6.515 18.552-21.446 33.654-39.916 40.395-2.63.96-5.416 1.56-7.97 2.578v24.093c27.27-4.367 51.56-21.372 65.01-45.388" style="fill:url(#a)"/></svg>