<svg xmlns="http://www.w3.org/2000/svg" width="201.726" height="215.843" viewBox="0 0 201.726 215.843"><defs><linearGradient id="a" x1="165.516" x2="36.213" y1="166.196" y2="36.894" gradientUnits="userSpaceOnUse"><stop offset="0" stop-color="#5d7985"/><stop offset=".5" stop-color="#c4e3ef"/><stop offset=".585" stop-color="#bedde9"/><stop offset=".691" stop-color="#afceda"/><stop offset=".807" stop-color="#97b4c0"/><stop offset=".931" stop-color="#75919d"/><stop offset="1" stop-color="#5f7b87"/></linearGradient></defs><path d="m100.368 215.843-16.081-15.444c-15.131-2.725-29.517-8.51-42.01-17.443C7.623 158.176-7.63 114.793 3.686 73.493c.475-1.734 3.904-10.378 3.904-10.96V29.09h22.415C51.954 7.257 83.276-3.15 114.118.836c21.601 2.791 42.25 12.874 57.57 28.254h22.655v34.162c0 .183 1.246 2.758 1.443 3.353 6.554 19.794 7.997 39.233 2.756 59.58-9.881 38.362-42.063 67.684-81.134 74.214l-16.081 15.444zM40.674 32.447h15.942l27.45 27.21v36.08l-15.35-14.753c-16.277 24.033-1.037 56.96 27.726 60.272 28.624 3.295 51.513-25.644 40.13-52.595-1.118-2.645-2.653-5.077-4.084-7.548l-14.86 14.623v-36.08l27.09-27.21h16.302c-1.183-1.332-2.61-2.506-4.02-3.586-32.954-25.232-78.662-25.532-111.746-.344-1.556 1.185-3.261 2.52-4.58 3.93m45.55 158.823v-23.733c-1.507-.728-3.336-.977-4.979-1.495-43.539-13.738-60.488-64.102-34.293-101.786.346-.498 2.278-2.783 2.328-2.969.089-.332-.04-.441-.201-.682-.216-.323-3.94-4.05-4.196-4.198-.235-.135-.43-.27-.72-.24l-16.745.062L15.74 67.805c-21.392 52.383 11.792 112.747 67.082 123.27.658.126 3.211.84 3.402.195m29.487.36c27.27-4.367 51.559-21.372 65.01-45.388 13.248-23.657 15.657-53.25 5.23-78.433l-11.674-11.58-16.745-.061c-.29-.03-.486.104-.72.239-.257.148-3.98 3.874-4.196 4.197-.15.223-.314.383-.199.68 14.434 17.608 18.766 41.68 11.18 63.28-6.515 18.552-21.446 33.654-39.916 40.395-2.631.96-5.416 1.56-7.97 2.578z"/><path d="M40.674 32.447c1.319-1.41 3.024-2.746 4.58-3.931C78.338 3.328 124.046 3.628 157 28.86c1.41 1.08 2.837 2.254 4.02 3.587h-16.3l-27.09 27.21v36.08l14.859-14.624c1.43 2.47 2.966 4.903 4.083 7.548 11.384 26.95-11.505 55.89-40.129 52.595-28.763-3.312-44.003-36.24-27.726-60.272l15.35 14.752v-36.08l-27.45-27.21zm45.55 135.09c-1.507-.728-3.336-.977-4.979-1.495-43.539-13.738-60.488-64.102-34.293-101.786.346-.498 2.278-2.783 2.328-2.969.089-.332-.04-.441-.201-.682-.216-.323-3.94-4.05-4.196-4.198-.235-.135-.43-.27-.72-.24l-16.745.062L15.74 67.805c-21.392 52.383 11.792 112.747 67.082 123.27.658.126 3.211.84 3.402.195zm94.496-21.295c13.249-23.657 15.658-53.25 5.232-78.433l-11.675-11.58-16.745-.061c-.29-.03-.486.104-.72.239-.257.148-3.98 3.874-4.196 4.197-.15.223-.314.383-.199.68 14.434 17.608 18.766 41.68 11.18 63.28-6.515 18.552-21.446 33.654-39.916 40.395-2.631.96-5.416 1.56-7.97 2.578v24.093c27.27-4.367 51.559-21.372 65.01-45.388" style="fill:url(#a)"/></svg>