<svg xmlns="http://www.w3.org/2000/svg" xmlns:xlink="http://www.w3.org/1999/xlink" width="600" height="843.995" viewBox="0 0 600 843.995"><linearGradient id="c" x1="89.139" x2="210.696" y1="199.076" y2="199.076" gradientUnits="userSpaceOnUse"><stop offset=".1" style="stop-color:#f6b91d"/><stop offset=".5" style="stop-color:#bf331c"/><stop offset=".9" style="stop-color:#f6b91d"/></linearGradient><linearGradient id="b" x1="8.037" x2="138.442" y1="226.023" y2="226.023" gradientUnits="userSpaceOnUse"><stop offset=".1" style="stop-color:#f6b91d"/><stop offset=".5" style="stop-color:#bf331c"/><stop offset=".9" style="stop-color:#f6b91d"/></linearGradient><linearGradient id="a" x1="161.558" x2="291.963" y1="226.023" y2="226.023" gradientUnits="userSpaceOnUse"><stop offset=".1" style="stop-color:#f6b91d"/><stop offset=".5" style="stop-color:#bf331c"/><stop offset=".9" style="stop-color:#f6b91d"/></linearGradient><linearGradient xlink:href="#a" id="f" x1="161.558" x2="291.963" y1="226.023" y2="226.023" gradientTransform="translate(0 .001)scale(1.99999)" gradientUnits="userSpaceOnUse"/><linearGradient xlink:href="#b" id="e" x1="8.037" x2="138.442" y1="226.023" y2="226.023" gradientTransform="translate(0 .001)scale(1.99999)" gradientUnits="userSpaceOnUse"/><linearGradient xlink:href="#c" id="d" x1="89.139" x2="210.696" y1="199.076" y2="199.076" gradientTransform="translate(0 .001)scale(1.99999)" gradientUnits="userSpaceOnUse"/><path d="M299.998 780.238c-2.714 0-5.432-.684-7.876-2.062l-105.647-59.348a16.07 16.07 0 0 1-8.2-14.004V91.481c0-5.804 3.134-11.16 8.2-14.002l105.647-59.35a16.06 16.06 0 0 1 7.876-2.06c2.716 0 5.432.685 7.876 2.06l105.32 59.164a16.06 16.06 0 0 1 8.197 14.002v613.718c0 5.804-3.132 11.16-8.198 14l-105.32 59.164a16 16 0 0 1-7.875 2.062" style="fill:url(#d)"/><path d="M260.812 827.93c-1.202 0-2.418-.133-3.63-.415l-228.66-52.93a16.06 16.06 0 0 1-12.448-15.647V152.041a16.05 16.05 0 0 1 8.198-14.002l106.487-59.824a16.06 16.06 0 0 1 7.876-2.062 16.065 16.065 0 0 1 16.076 16.064v639.118l114.205 66.656c6.864 4.008 9.766 12.422 6.832 19.8-2.476 6.228-8.474 10.137-14.936 10.137" style="fill:url(#e)"/><path d="M339.184 827.93c-6.46 0-12.458-3.91-14.932-10.136-2.934-7.378-.032-15.792 6.832-19.8l114.205-66.656V92.218c0-5.708 3.03-10.984 7.958-13.866a16.08 16.08 0 0 1 15.994-.136l106.487 59.822a16.06 16.06 0 0 1 8.198 14.002v606.896c0 7.476-5.16 13.964-12.448 15.648l-228.664 52.931c-1.21.28-2.43.414-3.63.414" style="fill:url(#f)"/><path d="M583.602 124.036 477.115 64.213a32.14 32.14 0 0 0-15.752-4.122 32.1 32.1 0 0 0-16.234 4.398 32.1 32.1 0 0 0-11.538 11.555 32.1 32.1 0 0 0-12.524-12.755L315.75 4.123a32.15 32.15 0 0 0-31.504 0L178.6 63.475a32.1 32.1 0 0 0-12.316 12.373 32.1 32.1 0 0 0-27.648-15.757 32.16 32.16 0 0 0-15.752 4.122l-106.49 59.823A32.12 32.12 0 0 0 0 152.042v606.896c0 14.95 10.318 27.926 24.892 31.296l228.66 52.93c2.428.561 4.864.831 7.268.831 12.922 0 24.918-7.824 29.864-20.273 4.068-10.234 2.514-21.458-3.39-30.05A32.2 32.2 0 0 0 300 796.304c4.33 0 8.65-.89 12.706-2.632-5.904 8.594-7.458 19.816-3.39 30.05 4.946 12.45 16.944 20.273 29.864 20.273 2.404 0 4.838-.27 7.268-.832l228.66-52.93C589.682 786.863 600 773.887 600 758.94V152.041a32.13 32.13 0 0 0-16.398-28.006M32.146 758.938V152.041L138.633 92.22v648.336l122.173 71.308zm162.205-54.114V91.481l105.647-59.35 105.317 59.164v613.718l-105.317 59.164zm373.5 54.114L339.19 811.864l122.173-71.308V92.218l106.487 59.823Z" style="fill:#fff"/><path d="M299.998 777.226c-2.206 0-4.412-.558-6.4-1.676l-105.647-59.349a13.06 13.06 0 0 1-6.66-11.378V91.481c0-4.716 2.546-9.066 6.66-11.378l105.647-59.352a13.06 13.06 0 0 1 12.8 0l105.315 59.163a13.05 13.05 0 0 1 6.662 11.378v613.72c0 4.713-2.546 9.065-6.662 11.375l-105.315 59.164a13.05 13.05 0 0 1-6.4 1.676m-92.587-80.038 92.587 52.012 92.257-51.824V98.928l-92.257-51.827-92.587 52.015z"/><path d="M260.812 824.918c-.976 0-1.966-.11-2.954-.34L29.2 771.651a13.06 13.06 0 0 1-10.114-12.714V152.041c0-4.716 2.546-9.066 6.66-11.376l106.487-59.822a13.06 13.06 0 0 1 19.458 11.378v640.844l115.7 67.532a13.05 13.05 0 0 1 5.551 16.09c-2.006 5.054-6.882 8.23-12.13 8.23M45.208 748.561l134.647 31.168-47.806-27.902a13.05 13.05 0 0 1-6.472-11.274V114.528l-80.37 45.148zm293.976 76.357a13.051 13.051 0 0 1-6.58-24.324l115.699-67.532V92.218c0-4.636 2.46-8.924 6.464-11.266a13.07 13.07 0 0 1 12.994-.112l106.487 59.822a13.05 13.05 0 0 1 6.66 11.376v606.896c0 6.07-4.194 11.344-10.114 12.714l-228.658 52.925c-.986.234-1.976.344-2.952.344m135.237-710.39v626.026c0 4.64-2.462 8.93-6.472 11.274l-47.806 27.902 134.647-31.168V159.676z"/></svg>