<svg xmlns="http://www.w3.org/2000/svg" xmlns:xlink="http://www.w3.org/1999/xlink" width="600" height="843.994" viewBox="0 0 600 843.994"><linearGradient id="c" x1="89.139" x2="210.696" y1="199.076" y2="199.076" gradientUnits="userSpaceOnUse"><stop offset=".1" style="stop-color:#bf99c3"/><stop offset=".5" style="stop-color:#612c75"/><stop offset=".9" style="stop-color:#bf99c3"/></linearGradient><linearGradient id="b" x1="8.037" x2="138.442" y1="226.023" y2="226.023" gradientUnits="userSpaceOnUse"><stop offset=".1" style="stop-color:#bf99c3"/><stop offset=".5" style="stop-color:#612c75"/><stop offset=".9" style="stop-color:#bf99c3"/></linearGradient><linearGradient id="a" x1="161.558" x2="291.963" y1="226.023" y2="226.023" gradientUnits="userSpaceOnUse"><stop offset=".1" style="stop-color:#bf99c3"/><stop offset=".5" style="stop-color:#612c75"/><stop offset=".9" style="stop-color:#bf99c3"/></linearGradient><linearGradient xlink:href="#a" id="f" x1="161.558" x2="291.963" y1="226.023" y2="226.023" gradientTransform="scale(1.99999)" gradientUnits="userSpaceOnUse"/><linearGradient xlink:href="#b" id="e" x1="8.037" x2="138.442" y1="226.023" y2="226.023" gradientTransform="scale(1.99999)" gradientUnits="userSpaceOnUse"/><linearGradient xlink:href="#c" id="d" x1="89.139" x2="210.696" y1="199.076" y2="199.076" gradientTransform="scale(1.99999)" gradientUnits="userSpaceOnUse"/><path d="M299.998 780.237c-2.714 0-5.432-.684-7.876-2.062l-105.647-59.348a16.07 16.07 0 0 1-8.2-14.004V91.477a16.06 16.06 0 0 1 8.2-14.002l105.647-59.35a16.04 16.04 0 0 1 7.876-2.061c2.716 0 5.432.686 7.876 2.062l105.32 59.163a16.06 16.06 0 0 1 8.197 14.002V705.01c0 5.804-3.132 11.16-8.198 14l-105.32 59.164a16 16 0 0 1-7.875 2.064" style="fill:url(#d)"/><path d="M260.812 827.928c-1.202 0-2.418-.132-3.63-.414l-228.66-52.93a16.06 16.06 0 0 1-12.448-15.647V152.04c0-5.806 3.132-11.16 8.198-14.002l106.487-59.82a16.06 16.06 0 0 1 7.876-2.062 16.065 16.065 0 0 1 16.076 16.064v639.114l114.205 66.656c6.864 4.008 9.766 12.422 6.832 19.8-2.476 6.227-8.474 10.137-14.936 10.137" style="fill:url(#e)"/><path d="M339.184 827.928c-6.46 0-12.458-3.91-14.932-10.135-2.934-7.378-.032-15.792 6.832-19.8l114.205-66.656V92.217a16.065 16.065 0 0 1 16.076-16.064c2.712 0 5.428.684 7.876 2.062l106.487 59.82a16.06 16.06 0 0 1 8.198 14.002v606.896c0 7.476-5.16 13.964-12.448 15.648l-228.664 52.933c-1.21.28-2.43.414-3.63.414" style="fill:url(#f)"/><path fill="#fff" d="M583.602 124.037 477.115 64.214a32.14 32.14 0 0 0-15.752-4.122 32.13 32.13 0 0 0-27.772 15.951 32.1 32.1 0 0 0-12.524-12.755L315.75 4.122A32.13 32.13 0 0 0 299.998 0a32.1 32.1 0 0 0-15.752 4.122L178.6 63.472a32.1 32.1 0 0 0-12.316 12.375 32.1 32.1 0 0 0-11.414-11.36 32.17 32.17 0 0 0-31.986-.273l-106.49 59.823A32.12 32.12 0 0 0 0 152.041v606.896c0 14.95 10.318 27.926 24.892 31.296l228.66 52.93c2.428.561 4.864.831 7.268.831 12.922 0 24.918-7.824 29.864-20.273 4.068-10.234 2.514-21.458-3.39-30.05A32.2 32.2 0 0 0 300 796.303c4.33 0 8.65-.89 12.706-2.632-5.904 8.594-7.458 19.816-3.39 30.05 4.946 12.45 16.944 20.273 29.864 20.273 2.404 0 4.838-.27 7.268-.832l228.66-52.93c14.574-3.37 24.892-16.346 24.892-31.294V152.04a32.13 32.13 0 0 0-16.398-28.004m-551.456 634.9V152.04l106.487-59.822v648.336l122.173 71.308zm162.205-54.114V91.477l105.647-59.35 105.317 59.164V705.01l-105.317 59.166zm373.5 54.114L339.19 811.863l122.173-71.308V92.217L567.85 152.04Z"/></svg>