<svg xmlns="http://www.w3.org/2000/svg" xml:space="preserve" width="368.597" height="304.125" viewBox="0 0 368.597 304.125"><g transform="translate(-15.31 -22.573)"><path fill="#fff" d="M32.179 326.697a16.83 16.83 0 0 1-15.452-10.155c-2.693-6.083-1.484-13.213 3.09-18.152 36.524-39.623 45.82-77.948 45.909-78.338.949-4.145 1.922-14.422-9.612-20.1-5.694-2.798-9.084-8.452-8.638-14.389.024-.39 3.488-46.339 6.229-72.04.795-7.41 7-12.994 14.454-12.994h1.2c3.845 0 7.406 1.48 10.05 4.015.746-8.801.917-14.138.917-14.191.235-7.945 6.627-14.142 14.535-14.142h1.541c3.634 0 7.041 1.351 9.652 3.667.689-13.59 1.769-26.106 14.43-27.136 1.331-6.639 7.154-30.169 22.898-30.169h108.284c5.63 0 10.861 2.798 13.992 7.487 3.082 4.445 3.723 10.232 1.712 15.448l-2.49 6.367c-.446 1.196-.852 3.038-.852 3.5 0 4.485 0 7.45 1.897 11.903 1.89 4.465 24.649 56.085 42.94 97.561l7.941 17.982c14.511 32.883 27.018 61.256 29.07 65.984 5.629 12.938 15.281 30.458 25.469 40.832l7.738 7.884c4.817 4.939 6.156 12.191 3.431 18.485-2.393 6.051-8.614 10.171-15.46 10.171h-122.8c-5.686 0-10.95-2.854-14.089-7.624-3.212-5.054-3.618-11.21-1.104-16.481l3.106-6.619c1.038-2.279 4.088-10.334 4.088-16.238 0-4.007-1.127-11.227-6.513-22.89-.365-.787-22.833-51.863-26.321-59.739-2.822.146-9.604.763-15.086 3.383-9.052 4.331-20.464 10.723-28.438 21.884-16.831 23.587-20.318 45.114-21.989 55.464l-.203 1.266c-4.007 24.35-9.376 48.115-26.832 48.115H32.179Z"/><path d="M32.179 322.545a12.67 12.67 0 0 1-11.64-7.649c-2.036-4.599-1.119-9.96 2.328-13.684 37.4-40.58 46.81-79.83 46.899-80.22.917-3.99 2.774-17.576-11.818-24.755-4.161-2.061-6.651-6.116-6.334-10.366.032-.405 3.496-46.343 6.229-71.909a10.353 10.353 0 0 1 10.317-9.279h1.2c4.291 0 8.087 2.583 9.668 6.578l3.164 8.01.835-8.573c1.135-11.708 1.452-19.771 1.452-20.314.17-5.589 4.729-10.018 10.382-10.018h1.541c4.137 0 7.868 2.45 9.515 6.242l3.512 8.091.697-13.1c.811-16.279 1.72-24.771 12.102-24.771h1.768l.284-1.752c.041-.28 4.688-28.349 19.102-28.349h108.284c4.242 0 8.185 2.109 10.537 5.637 2.304 3.322 2.79 7.775 1.289 11.652l-2.474 6.351c-.552 1.456-1.144 3.853-1.144 5.009 0 4.64 0 8.302 2.238 13.533 1.891 4.481 23.701 53.956 42.957 97.606l7.94 17.978c14.495 32.866 27.003 61.239 29.055 65.969 5.783 13.277 15.728 31.301 26.313 42.089l7.738 7.884c3.625 3.715 4.647 9.182 2.587 13.919-1.824 4.606-6.497 7.673-11.647 7.673H244.254a12.68 12.68 0 0 1-10.617-5.743c-2.441-3.853-2.75-8.387-.828-12.41l3.091-6.586c1.266-2.79 4.51-11.404 4.51-18.071 0-4.421-1.2-12.28-6.902-24.642-.357-.779-27.399-62.181-27.399-62.181h-1.355c-.413 0-10.276.041-18.201 3.828-9.506 4.543-21.511 11.291-30.027 23.215-17.407 24.39-20.992 46.558-22.711 57.216l-.211 1.257c-3.544 21.593-8.524 44.637-22.727 44.637H32.179Z"/><linearGradient id="a" x1="366.324" x2="62.103" y1="314.857" y2="124.759" gradientUnits="userSpaceOnUse"><stop offset="0" style="stop-color:#bb2c26"/><stop offset=".079" style="stop-color:#bd3026"/><stop offset=".16" style="stop-color:#c33d25"/><stop offset=".243" style="stop-color:#cd5125"/><stop offset=".326" style="stop-color:#db6e23"/><stop offset=".35" style="stop-color:#e07823"/><stop offset=".401" style="stop-color:#e78221"/><stop offset=".514" style="stop-color:#f3921e"/><stop offset=".6" style="stop-color:#f7981d"/><stop offset=".603" style="stop-color:#f6961d"/><stop offset=".631" style="stop-color:#e98521"/><stop offset=".662" style="stop-color:#e27b22"/><stop offset=".7" style="stop-color:#e07823"/><stop offset=".706" style="stop-color:#de7323"/><stop offset=".746" style="stop-color:#d15924"/><stop offset=".79" style="stop-color:#c74525"/><stop offset=".839" style="stop-color:#c03726"/><stop offset=".9" style="stop-color:#bc2f26"/><stop offset="1" style="stop-color:#bb2c26"/></linearGradient><path fill="url(#a)" d="M244.254 311.643a2.34 2.34 0 0 1-1.947-1.07 2.34 2.34 0 0 1-.129-2.238l3.098-6.603c.065-.114 5.516-11.973 5.516-22.517 0-7.949-2.644-17.699-7.852-28.989-3.325-7.203-71.216-160.516-74.493-168.563-3.666-9.044-12.021-25.915-18.802-32.696l-7.9-7.892a2.34 2.34 0 0 1-.503-2.539 2.32 2.32 0 0 1 2.141-1.428h108.284a2.28 2.28 0 0 1 1.898 1.014c.438.632.52 1.436.243 2.149l-2.466 6.318c-.016.041-1.85 4.818-1.85 8.785 0 5.126 0 10.423 3.066 17.609 2.093 4.948 27.757 63.129 48.375 109.886l2.579 5.824c14.487 32.834 26.979 61.174 29.022 65.895 2.984 6.846 13.854 30.385 28.438 45.229l7.738 7.884c.648.665.843 1.654.47 2.515a2.28 2.28 0 0 1-2.125 1.427zm-212.075.519a2.29 2.29 0 0 1-2.109-1.396 2.32 2.32 0 0 1 .406-2.498c39.891-43.281 49.332-84.583 49.429-85.005a2.33 2.33 0 0 1 1.687-1.735 2.3 2.3 0 0 1 .584-.081 2.33 2.33 0 0 1 1.735.795c1.217 1.379 29.638 34.537 29.282 87.616a2.316 2.316 0 0 1-2.32 2.304zm90.05-31.001c1.784 0 .422-32.137 25.842-67.761 9.182-12.848 22.5-21.608 34.44-26.75 0 0-3.456-45.727-6.197-71.585h-1.216s-1.671 31.455-8.89 57.565c0 0-1.979-.722-5.305-1.744-10.188-42.072-11.291-80.138-11.291-80.138h-1.541c-2.417 41.399-6.44 65.352-8.371 75.028-2.166-.373-4.38-.698-6.61-.957-.917-4.826-2.62-14.543-4.485-28.527-2.758-20.651-3.618-35.129-4.299-47.856-.698-12.734-.876-21.227-2.077-21.227s-1.371 8.493-2.06 21.227c-.698 12.727-1.558 27.205-4.315 47.856-1.857 13.983-3.553 23.701-4.477 28.527-2.231.259-4.437.584-6.611.957-1.931-9.677-5.945-33.629-8.363-75.028h-1.541s-1.111 38.066-11.291 80.138c-3.326 1.022-5.305 1.744-5.305 1.744-7.235-26.11-8.906-57.565-8.906-57.565h-1.2c-2.758 25.858-6.197 71.585-6.197 71.585 11.94 5.142 25.258 13.902 34.44 26.75 25.421 35.624 24.05 67.761 25.826 67.761" style="fill:url(#a)"/></g></svg>