<svg xmlns="http://www.w3.org/2000/svg" width="600" height="625.39"><path d="M222.373 56.676s-16.057 134.787-18.996 159.772C180.363 227.079 0 310.444 0 310.444s180.91 90.51 203.143 101.626c2.689 24.296 23.452 213.32 23.452 213.32S363.57 481.505 380.863 463.369c24.484 5.003 213.93 43.855 213.93 43.855s-91.604-171.857-103.142-193.48C503.565 292.183 600 117.636 600 117.636s-192.573 39.024-216.995 43.902C365.713 143.465 229.159 0 229.159 0Z" style="fill:#fff"/><path d="M249.062 59.912 373.78 190.854l174.61-35.35-87.336 157.989 83.177 155.925-172.53-35.365-124.719 131.003-18.746-170.513-166.307-83.13 166.307-76.891Z"/></svg>