<svg xmlns="http://www.w3.org/2000/svg" xmlns:xlink="http://www.w3.org/1999/xlink" width="600" height="625.423"><radialGradient id="a" cx="0" cy="0" r="1" fx="0" fy="0" gradientTransform="matrix(14.76833 0 0 -14.76833 135.553 146.531)" gradientUnits="userSpaceOnUse" spreadMethod="pad"><stop offset="0" style="stop-color:#d9eaf3"/><stop offset=".663" style="stop-color:#99aebc"/><stop offset="1" style="stop-color:#536e78"/></radialGradient><radialGradient xlink:href="#a" id="b" cx="0" cy="0" r="1" fx="0" fy="0" gradientTransform="translate(306.695 312.41)scale(230.91143)" gradientUnits="userSpaceOnUse" spreadMethod="pad"/><path d="M222.37 56.679s-16.058 134.794-18.998 159.78C180.356 227.091 0 310.46 0 310.46s180.966 90.515 203.138 101.632c2.689 24.297 23.453 213.331 23.453 213.331S363.574 481.53 380.93 463.392c24.36 5.003 213.879 43.858 213.879 43.858S503.2 335.383 491.661 313.76C503.575 292.197 600 117.641 600 117.641s-192.568 39.027-216.99 43.905A1388582 1388582 0 0 1 229.154 0Z" style="fill:#fff"/><path d="m249.06 59.916 124.724 130.948 174.619-35.352-87.278 157.997 83.119 155.934-172.54-35.368-124.724 131.01-18.685-170.521L61.917 311.43l166.378-76.896Z" style="fill:#536e78"/><path d="m236.05 235.456-.547 4.331-3.971 1.83L80.007 311.68l151.775 75.848 3.784 1.954.484 4.285 16.793 153.729L366.03 428.634l2.986-3.112 4.269.923 156.184 32.006-75.317-141.283-1.954-3.784 2.017-3.659 79.163-143.16L375.3 198.573l-4.206.782-3.002-3.112L254.86 77.334Z" style="fill:url(#b)"/></svg>