<svg xmlns="http://www.w3.org/2000/svg" width="600" height="744.028"><radialGradient id="a" cx="0" cy="0" r="1" fx="0" fy="0" gradientTransform="matrix(15.68388 0 0 -15.68388 665.501 483.978)" gradientUnits="userSpaceOnUse" spreadMethod="pad"><stop offset="0" style="stop-color:#d9eaf3"/><stop offset=".663" style="stop-color:#99aebc"/><stop offset="1" style="stop-color:#536e78"/></radialGradient><path d="M297.823.074c-22.673.521-96.701 14.527-167.177 72.001C71.052 120.695 0 213.547 0 380.221c0 163.103 54.703 252.55 100.552 298.827 51.224 51.653 102.597 63.147 108.345 64.3 14.154 2.846 28.55-3.478 36.176-15.754 3.404-5.598 5.153-11.922 5.153-18.172 0-7.477-2.474-15.047-7.329-21.297-5.375-6.9-12.425-16.405-20.274-27.75 4.93-6.027 7.85-13.653 7.85-21.726 0-.873-.075-1.804-.15-2.678-.371-5.17-.65-12.797-.65-21.874 0-21.073 1.73-50.052 8.426-74.176h123.802c6.696 24.124 8.5 53.103 8.5 74.176 0 9.077-.354 16.778-.725 21.874-.074.875-.148 1.804-.148 2.678 0 8.073 2.92 15.699 7.774 21.725-7.774 11.346-14.824 20.85-20.2 27.826-4.854 6.175-7.253 13.745-7.253 21.297 0 6.25 1.674 12.499 5.078 18.097 7.626 12.35 22.022 18.6 36.177 15.755 5.673-1.154 57.12-12.648 108.344-64.3C545.353 632.771 600 543.323 600 380.294c0-167.995-72.075-261.05-132.45-309.67C395.827 13.02 321 0 300.428 0h-1.73c-.298 0-.595 0-.875.074" style="fill:#fff"/><path d="M294.624 505.325h-80.65c-24.626 51.02-18.097 133.324-18.097 133.324s-57.605-77.376-57.605-167.902 64.226-181.052 64.226-181.052c14.824-6.547 64.151-8.221 64.151-8.221s-37.85-80.65-106.95-59.204c-69.173 21.353-90.526 98.729-90.526 98.729 29.649-18.098 93.8-21.428 93.8-21.428s-59.297 69.174-59.297 167.903c0 98.747 111.972 241.948 111.972 241.948s-181.07-36.177-181.07-329.201c0-290.42 226.398-344.676 264.045-345.625h1.804c34.596 0 264.994 52.675 264.994 345.7 0 292.95-181.07 329.2-181.07 329.2s111.971-143.2 111.971-242.022c0-98.73-59.297-167.903-59.297-167.903s64.152 3.33 93.8 21.428c0 0-21.353-77.376-90.526-98.73-69.099-21.445-106.95 59.205-106.95 59.205s49.327 1.674 64.151 8.22c0 0 64.226 90.601 64.226 181.128s-57.604 167.827-57.604 167.827 6.529-82.305-18.098-133.324h-80.65z" style="fill:#536e78"/><path d="M651.73 483.277c0-11.562 5.239-15.457 7.872-16.683-1.731 2.461-5.153 7.855-5.153 11.996 0 3.922 1.653 6.976 2.621 8.426-1.105-.125-2.785-.411-3.718-.977l-1.082-.66.335 1.219c.051.179 1.27 4.437 5.204 5.656.464.141.929.215 1.382.215 3.211 0 4.899-3.516 4.969-3.664l.32-.692-.753-.023c-.926-.031-2.516-.152-3.145-.356-.516-.765-3.277-5.089-3.277-9.32 0-2.922 1.175-5.609 2.058-7.211.032 1.582.239 3.863 1.063 5.567l.136.281h9.876l.136-.281c.824-1.704 1.031-3.985 1.063-5.567.883 1.598 2.058 4.285 2.058 7.207 0 4.235-2.761 8.559-3.281 9.324-.629.204-2.219.325-3.141.356l-.757.023.324.692c.07.148 1.758 3.664 4.969 3.664.453 0 .921-.074 1.382-.215 3.934-1.219 5.153-5.477 5.204-5.656l.335-1.219-1.078.66c-.933.566-2.617.852-3.722.977.965-1.45 2.621-4.504 2.621-8.426 0-4.141-3.426-9.535-5.153-12 2.633 1.23 7.875 5.121 7.875 16.687 0 14.942-11.488 18.086-13.835 18.086-2.719-.066-13.708-3.504-13.708-18.086" style="fill:url(#a)" transform="matrix(18.6 0 0 -18.6 -12078.295 9369.244)"/></svg>