<svg xmlns="http://www.w3.org/2000/svg" width="530.844" height="674.901"><path d="M260.046 470.729h-80.65c-24.625 51.02-18.097 133.324-18.097 133.324s-57.604-77.376-57.604-167.902S167.92 255.1 167.92 255.1c14.824-6.547 64.151-8.221 64.151-8.221s-37.85-80.65-106.95-59.204c-69.173 21.353-90.526 98.729-90.526 98.729 29.648-18.098 93.8-21.428 93.8-21.428S69.099 334.15 69.099 432.878c0 98.747 111.972 241.948 111.972 241.948S0 638.65 0 345.625C0 55.205 226.4.949 264.045 0h1.805c34.596 0 264.994 52.675 264.994 345.7 0 292.95-181.071 329.2-181.071 329.2s111.972-143.2 111.972-242.022c0-98.73-59.297-167.903-59.297-167.903s64.151 3.33 93.8 21.428c0 0-21.353-77.376-90.526-98.73-69.1-21.445-106.95 59.205-106.95 59.205s49.327 1.674 64.151 8.22c0 0 64.226 90.601 64.226 181.128s-57.604 167.827-57.604 167.827 6.528-82.305-18.098-133.324h-80.65z"/></svg>