<svg xmlns="http://www.w3.org/2000/svg" width="600" height="320.003"><path d="M39.866 0C14.509 47.098 0 101.735 0 160.002c0 58.266 14.509 112.903 39.866 160.001h520.268C585.491 272.905 600 218.268 600 160.002S585.485 47.098 560.134 0z"/><path d="M83.742 6.32c2.607 5.764 4.07 12.23 4.07 19.063 0 6.957-1.519 13.533-4.216 19.375H10.153C7.456 38.916 5.938 32.34 5.938 25.383c0-6.832 1.463-13.299 4.07-19.063zm1.915-2.968H8.093l-.79 1.745c-2.876 6.356-4.334 13.182-4.334 20.286 0 7.23 1.511 14.168 4.489 20.619l.796 1.725h77.241l.796-1.725c2.979-6.451 4.489-13.389 4.489-20.619 0-7.104-1.458-13.93-4.334-20.287z" style="fill:gray" transform="matrix(6.40007 0 0 6.40007 0 -2.451)"/><path d="M6.563 38.508c1.957-1.534 3.268-3.605 4.367-6.656 1.021-2.83 1.714-5.56 3-8.164.325-.658 1.114-1.177 1.969-.766.603.29 1.202.622 1.862.924.694.318.838.92.521 1.662-.916 2.139-2.053 4.186-2.786 6.385-.729 2.188-.834 4.74 1.744 5.418v2.031c-4.81-.582-7.691.107-9.516 1.666Zm7.135-26.041c2.513.313 4.361.611 3.463 2.941a55 55 0 0 1-1.563 3.621c-.31.66-.241 1.393.521 1.9.511.341 1.615.896 2.188 1.119.768.3 1.242-.012 1.484-.572.178-.412.58-1.214.781-1.615.378-.752 1.04-.59 1.51.078 2.987 4.255 5.812 10.195 7.578 17.293.489 1.965.469 3.568-.13 4.557a8.1 8.1 0 0 0 2.891 1.354c1.253-2.354 3.429-4.211 6.38-5.65-.605-2.418-1.382-4.801-2.396-7.135-1.021-3.287-.403-5.002.625-6.303.281-.355.287-.826 0-1.279-.55-.867-1.15-1.557-1.771-2.08-.437-.369-1.01-.446-1.484.025-.28.279-.524.594-.859.834-3.386-4.01-6.276-8.307-7.344-11.328l-10.416-.391c-.703.742-1.25 1.641-1.458 2.631m25.324 1.084c.613.529.626 1.104.224 1.742-.782 1.244-1.538 2.238-2.397 2.98-.448.387-.379 1.041-.104 1.563.603 1.141 1.534 1.859 2.474 2.344.777-.777 1.555-1.043 2.005-.182 1.659 3.17 2.899 6.384 4.401 9.348 1.313 2.592.973 4.377-.495 5.574-1.025.836-2.014 1.528-2.813 2.344a29 29 0 0 0 2.136 2.004c3.446-2.811 8.671-2.659 15.026-.625a11.2 11.2 0 0 1 .989-2.188c-2.227-1.998-4.55-2.482-5.364-4.426-.431-1.028-.645-3.108-1.17-4.433-1.721-4.345-3.336-7.599-6.018-13.12-1.203-2.477-.932-4.885-.313-6.225-.898-.383-1.595-.844-2.109-1.373-1.198 1.191-5.964 1.217-8.444 0a18 18 0 0 1-1.738 2.461c1.552.657 2.792 1.419 3.71 2.212m17.228 1.494h4.349v15.52l4.284-4.283V9.158c-2.444 1.584-5.402 2.906-8.633 4.09zm21.801-7.04 4.378 2.417c-.983 3.014-.317 6.566-.401 12.356l2.39-.001.824-.729.867 1.12s-1.039 2.081-1.72 3.143c-1.344-.35-1.521-.281-2.446-.202-.211 1.755.317 6.957.317 6.957s-2.242-.253-5.009 1.259c.208-1.787.543-6.376.313-8.279-1.564.073-5.349.296-8.924.761l-1.883-1.36c.106.134 10.723-9.712 11.294-17.442m-.38 14.867s.158-3.489 0-6.249c0 0-2.729 4.314-4.727 6.281.634.222 4.727-.032 4.727-.032" style="fill:gray" transform="matrix(6.40007 0 0 6.40007 0 -2.451)"/></svg>