<svg xmlns="http://www.w3.org/2000/svg" width="600" height="320.003"><g transform="scale(6.40007)"><linearGradient id="a" x1="3.837" x2="89.913" y1="45.069" y2="4.931" gradientUnits="userSpaceOnUse"><stop offset="0" style="stop-color:#8b723c"/><stop offset=".5" style="stop-color:#ebd491"/><stop offset="1" style="stop-color:#8b723c"/></linearGradient><path d="M6.229 0C2.267 7.359 0 15.896 0 25s2.267 17.641 6.229 25H87.52c3.962-7.359 6.229-15.896 6.229-25S91.482 7.359 87.521 0z" style="fill:url(#a)"/></g><path d="M535.955 38.004c16.684 36.89 26.048 78.272 26.048 122.004 0 44.525-9.722 86.612-26.983 124.001H64.98c-17.261-37.395-26.976-79.482-26.976-124.007 0-43.726 9.363-85.115 26.048-122.005h471.903m12.256-18.995H51.796L46.74 30.17c-18.407 40.679-27.738 84.366-27.738 129.832 0 46.272 9.67 90.676 28.73 131.963l5.094 11.04h494.348l5.094-11.04c19.072-41.287 28.737-85.69 28.737-131.963 0-45.466-9.332-89.153-27.738-129.838z"/><path d="M42.004 244.003c12.525-9.818 20.915-23.073 27.949-42.6 6.534-18.111 10.97-35.584 19.2-52.25 2.08-4.21 7.13-7.532 12.602-4.902 3.859 1.856 7.693 3.981 11.917 5.914 4.441 2.035 5.363 5.888 3.334 10.637-5.862 13.69-13.14 26.79-17.83 40.864-4.666 14.004-5.338 30.336 11.161 34.676v12.998c-30.784-3.725-49.223.685-60.903 10.663zM87.668 77.338c16.084 2.004 27.91 3.91 22.164 18.823-3.13 8.135-6.516 15.744-10.004 23.175-1.984 4.224-1.542 8.915 3.335 12.16 3.27 2.182 10.336 5.734 14.003 7.161 4.915 1.92 7.949-.076 9.498-3.66 1.139-2.637 3.712-7.77 4.998-10.336 2.42-4.813 6.656-3.777 9.664.499 19.117 27.232 37.198 65.248 48.5 110.676 3.13 12.576 3.002 22.836-.832 29.165 5.517 4.103 11.7 6.964 18.503 8.666 8.019-15.066 21.945-26.95 40.832-36.16-3.872-15.476-8.845-30.727-15.335-45.665-6.534-21.037-2.579-32.013 4-40.34 1.799-2.272 1.837-5.286 0-8.185-3.52-5.55-7.36-9.965-11.334-13.312-2.797-2.362-6.464-2.855-9.498.16-1.792 1.785-3.353 3.801-5.497 5.337-21.671-25.664-40.167-53.165-47.002-72.5L96.999 60.5c-4.499 4.749-8 10.502-9.33 16.838m162.075 6.938c3.924 3.386 4.007 7.066 1.434 11.149-5.005 7.962-9.843 14.323-15.34 19.072-2.868 2.477-2.427 6.663-.666 10.004 3.859 7.302 9.817 11.897 15.833 15.001 4.973-4.973 9.952-6.675 12.832-1.165 10.618 20.289 18.554 40.859 28.167 59.828 8.403 16.59 6.227 28.013-3.168 35.674-6.56 5.35-12.89 9.78-18.003 15.002a182 182 0 0 0 13.67 12.826c22.055-17.99 55.495-17.018 96.168-4 1.574-4.826 3.693-9.492 6.33-14.004-14.254-12.787-29.121-15.885-34.33-28.326-2.76-6.58-4.129-19.892-7.489-28.372-11.014-27.808-21.35-48.634-38.515-83.969-7.7-15.853-5.965-31.264-2.004-39.84-5.747-2.451-10.208-5.402-13.497-8.787-7.668 7.622-38.17 7.788-54.042 0-3.687 6.323-7.399 11.232-11.124 15.75 9.933 4.205 17.87 9.082 23.744 14.157m110.26 9.562h27.835v99.329l27.418-27.412V56.161c-15.642 10.137-34.574 18.598-55.252 26.176zM499.533 48.78l28.02 15.47c-6.292 19.29-2.03 42.022-2.567 79.079l15.296-.007 5.274-4.666 5.548 7.169s-6.65 13.318-11.008 20.115c-8.601-2.24-9.734-1.798-15.654-1.293-1.35 11.232 2.029 44.525 2.029 44.525s-14.35-1.619-32.058 8.058c1.33-11.437 3.475-40.807 2.003-52.986-10.01.467-34.234 1.894-57.114 4.87l-12.052-8.704c.679.858 68.628-62.15 72.283-111.63m-2.432 95.15s1.01-22.33 0-39.994c0 0-17.466 27.61-30.253 40.199 4.057 1.42 30.253-.205 30.253-.205"/></svg>