<svg xmlns="http://www.w3.org/2000/svg" width="600" height="320.004"><path d="M39.865 0C14.508 47.098 0 101.736 0 160.002s14.508 112.904 39.865 160.002h520.27C585.492 272.906 600 218.268 600 160.002S585.485 47.098 560.135 0Zm11.93 19.002H548.21l5.049 11.162c18.406 40.685 27.738 84.372 27.738 129.838 0 46.272-9.665 90.676-28.73 131.963l-5.094 11.039H52.826l-5.094-11.04c-19.059-41.286-28.73-85.69-28.73-131.962 0-45.466 9.332-89.153 27.738-129.832zm12.258 18.996c-16.685 36.89-26.05 78.279-26.05 122.004 0 27.193 3.63 53.474 10.384 78.334 9.118-9.139 15.8-20.926 21.566-36.932 6.535-18.112 10.969-35.584 19.2-52.25 2.08-4.21 7.129-7.532 12.6-4.902 3.86 1.856 7.695 3.98 11.919 5.912 4.442 2.035 5.363 5.888 3.334 10.637-5.863 13.69-13.139 26.791-17.83 40.865-4.666 14.003-5.337 30.337 11.162 34.676v12.998c-27.046-3.273-44.56-.263-56.336 7.281a290 290 0 0 0 10.978 27.383h470.04c17.26-37.39 26.982-79.477 26.982-124.002 0-43.732-9.362-85.114-26.047-122.004zM499.53 48.781l28.02 15.469c-6.291 19.29-2.029 42.024-2.567 79.08l15.297-.006 5.274-4.666 5.549 7.168s-6.65 13.318-11.008 20.115c-8.602-2.24-9.735-1.798-15.655-1.293-1.35 11.232 2.028 44.526 2.028 44.526s-14.348-1.619-32.057 8.058c1.331-11.437 3.474-40.807 2.002-52.986-10.01.467-34.233 1.893-57.113 4.87l-12.051-8.704c.678.858 68.627-62.158 72.281-111.63M237.123 54.37c15.872 7.789 46.374 7.623 54.041 0 3.29 3.386 7.75 6.336 13.498 8.787-3.962 8.576-5.695 23.987 2.004 39.84 17.165 35.335 27.501 56.16 38.516 83.969 3.36 8.48 4.73 21.792 7.488 28.37 5.21 12.443 20.077 15.542 34.33 28.33-2.637 4.511-4.756 9.175-6.33 14.001-40.673-13.018-74.113-13.99-96.168 4a182 182 0 0 1-13.67-12.824c5.114-5.223 11.444-9.652 18.004-15.002 9.395-7.661 11.571-19.085 3.168-35.674-9.613-18.97-17.55-39.54-28.168-59.828-2.88-5.51-7.86-3.809-12.832 1.164-6.016-3.104-11.975-7.7-15.834-15.002-1.76-3.34-2.201-7.525.666-10.002 5.498-4.749 10.337-11.11 15.342-19.072 2.573-4.083 2.49-7.765-1.434-11.15C243.87 79.2 235.933 74.323 226 70.118c3.725-4.518 7.437-9.427 11.123-15.75m178.133 1.791v109.596l-27.418 27.41V93.838h-27.834V82.336c20.679-7.578 39.61-16.038 55.252-26.176M97 60.5l66.662 2.502c6.835 19.335 25.331 46.836 47.002 72.5 2.144-1.536 3.706-3.552 5.498-5.338 3.034-3.014 6.701-2.522 9.498-.16 3.975 3.347 7.814 7.764 11.334 13.312 1.837 2.9 1.799 5.914 0 8.186-6.58 8.326-10.534 19.303-4 40.34 6.49 14.938 11.462 30.189 15.334 45.664-18.886 9.21-32.813 21.094-40.832 36.16-6.803-1.702-12.985-4.562-18.502-8.664 3.834-6.33 3.962-16.59.832-29.166-11.302-45.428-29.383-83.444-48.5-110.676-3.008-4.275-7.245-5.313-9.664-.5-1.286 2.567-3.859 7.7-4.998 10.336-1.549 3.584-4.583 5.582-9.498 3.662-3.667-1.427-10.733-4.98-14.004-7.162-4.877-3.245-5.318-7.936-3.334-12.16 3.488-7.43 6.874-15.041 10.004-23.176 5.747-14.912-6.08-16.819-22.164-18.822C88.999 71.002 92.501 65.248 97 60.5m400.1 43.438s-17.467 27.61-30.254 40.199c4.057 1.42 30.254-.205 30.254-.205s1.01-22.33 0-39.994"/></svg>