<svg xmlns="http://www.w3.org/2000/svg" width="375.079" height="500"><path d="m176.02 0-16.67 2.84-1.27.22v-.07C82.072 15.01 25.581 72.541 6.71 140.98c-18.6 67.45.36 146.56 70.792 201.68C110.37 407.9 133.96 434.65 166.6 500l9.42-203.17v-8.38c3.76.4 7.56.7 11.44.7 14.64 0 28.62-3.2 41.19-8.97-60.9 58.79-59.32 130.97-27.13 176.18 16.79 23.6 40.55 41.65 66.76 41.56 37.43-.1 67.39-6.87 98.22-58.31-20.63 13.7-54.42 32.32-78.63 17.19-46.89-29.29-36.69-85.01 6.35-111.83 76.84-47.85 91.82-135.52 74.22-203.18-17.6-67.639-73.38-124.38-151.76-138.72h-.2l-.18-.08-1.42-.22L198.29.15v90.602c-3.57-.39-7.17-.6-10.84-.6-3.87 0-7.68.23-11.44.67V0Z" style="fill:gray;stroke-width:10.0002"/><path d="m161.67 16.97-1.35.23C90.212 28.281 38.011 81.432 20.541 144.79c-17.44 63.23-.17 136.65 68.241 188.6h.1l70.258 139.85 2.24 4.49v-5.01l.3-175.96v-.9l-.9-.2c-52.52-13.77-81.258-58.06-82.548-103.54S103.06 99.982 160.83 81.342l.8-.22V16.97zm50.97 0v64.062l.7.3c74.41 27.208 93.1 88.228 83.28 133.508-7.03 32.43-31.02 51.79-50.16 68.33-65.18 56.3-62.94 123.31-33.35 164.9 14.8 20.79 36.38 35.28 59.81 38.95 23.33 3.65 48.43-3.6 70.04-25.79 0 0 .2-.1.2-.2l7.1-7.33-8.59 5.53s-.2.1-.2.2c-33.65 21.42-70.89 8.67-88.28-18.61-17.32-27.41-14.91-69.43 32.04-107.04 66.74-53.46 85.52-125.95 69.29-188.38-16.23-62.428-67.44-114.839-140.46-128.2Zm-25.19 98.97c-40.7 0-73.7 32.92-73.7 73.63s33 73.72 73.7 73.72 73.71-33.01 73.71-73.72-33.01-73.63-73.71-73.63" style="stroke-width:10.0002"/></svg>