<svg xmlns="http://www.w3.org/2000/svg" width="361.21" height="500"><defs><linearGradient id="a" x1="4.07" x2="34.882" y1="28.541" y2="20.285" gradientTransform="translate(-.37)scale(10)" gradientUnits="userSpaceOnUse"><stop offset="0" style="stop-color:#bf331c"/><stop offset=".4" style="stop-color:#d3641c"/><stop offset=".5" style="stop-color:#f6b91d"/><stop offset=".6" style="stop-color:#d3641c"/><stop offset="1" style="stop-color:#bf331c"/></linearGradient></defs><path fill="#fff" d="m166.6 0-15.77 2.69-1.2.21v-.07C77.68 14.2 24.22 68.66 6.35 133.44c-17.6 63.84.34 138.72 67 190.89 31.11 61.75 58.98 113.8 89.87 175.67l3.38-219.04v-7.97c3.56.4 7.16.6 10.83.6 13.86 0 27.09-3.03 38.98-8.49-57.65 55.65-56.14 123.96-25.68 166.76 15.9 22.33 38.79 34.82 63.18 39.34 38.04 7.05 80.74-12.37 107.3-74.09-19.52 12.97-65.85 49.49-88.77 35.18-44.38-27.72-34.74-80.47 6.02-105.84 72.73-45.29 86.9-128.26 70.25-192.3C332.08 70.18 279.28 16.48 205.1 2.9h-.2l-.16-.07-1.35-.21L187.68.14V85.9c-3.38-.37-6.78-.57-10.25-.57-3.66 0-7.27.22-10.83.64z" style="stroke-width:10"/><path d="M177.43 253.63c-40.92 0-74.2-33.29-74.2-74.2 0-40.87 33.28-74.13 74.2-74.13s74.2 33.26 74.2 74.13c0 40.91-33.28 74.2-74.2 74.2m91.82 212.61c-3.84 0-7.72-.3-11.56-.9-22.89-3.58-44.59-17.68-59.53-38.67-29.42-41.34-30.86-107.48 32.27-162.01.9-.7 1.71-1.46 2.57-2.21 17.55-15.1 37.44-32.22 43.48-60.04 9.35-43.1-10.54-97.31-76.01-121.25l-.84-.34-2.79-1.12V10.87l6.58 1.04c33.91 6.21 64.63 21.55 88.87 44.38 23.15 21.82 39.61 49.55 47.57 80.21 8.14 31.3 6.95 64.11-3.43 94.87-11.37 33.66-32.79 63.27-63.67 88.01-43.96 35.21-43.93 72.36-29.25 95.4 10.13 15.89 27.85 25.77 46.24 25.77 10.79 0 21.29-3.2 31.19-9.51h.1l28.8-19.24-21.58 27.55-.3.3c-.2.2-.4.3-.6.5-16.86 17.11-36.96 26.15-58.16 26.15zm-112.07 4.81-10.53-21.06-66.06-131.48c-31.14-23.86-52.52-53.07-63.54-86.83-10.04-30.76-10.69-63.89-1.88-95.81 8.55-31.05 25.4-59.06 48.7-81 24.38-22.96 54.54-37.82 87.19-42.98l6.41-1.07v69.34l-3.96 1.07c-56.88 18.4-76.04 63.96-75.01 100.48 1.29 45.4 30.65 82.26 74.8 93.9l4.16 1.04v4.31l-.3 166.56z" style="stroke-width:10"/><path fill="url(#a)" d="m87.16 312.37.46.4 60.7 120.83.3-150.05c-23.46-6.77-43.17-20.12-57.23-38.8-13.39-17.8-21.12-40.11-21.77-62.8-.66-23.39 5.87-45.73 18.91-64.6 13.83-20.01 34.55-35.14 60.05-43.84v-52.2C89.14 32.3 40.38 77.79 23.72 138.23 5.74 203.42 29.28 268.37 86.69 312zM205.71 73.63c31.96 12.18 55.96 32.22 69.5 58.06 11.71 22.33 15.23 48.12 9.92 72.59-6.66 30.72-28.67 49.67-46.36 64.89-.9.7-1.71 1.47-2.55 2.2-58.91 50.89-57.94 112.08-30.85 150.15 13.57 19.06 33.13 31.84 53.68 35.05 3.38.5 6.81.8 10.19.8 11.78 0 23.21-3.2 33.84-9.38-4.38.9-8.83 1.43-13.34 1.43-21.4 0-41.98-11.45-53.72-29.87-9.44-14.81-12.4-32.7-8.33-50.36 4.64-20.13 18.3-39.74 39.5-56.73 56.61-45.34 80.56-110.28 64.07-173.72C315.7 78.84 267.78 34.19 205.71 21.4zm-28.28 40.54c-36.03 0-65.32 29.27-65.32 65.25 0 36.02 29.3 65.33 65.32 65.33s65.32-29.31 65.32-65.33c0-35.97-29.3-65.25-65.32-65.25" style="fill:url(#a);stroke-width:10"/></svg>