<svg xmlns="http://www.w3.org/2000/svg" width="365.077" height="500"><defs><linearGradient id="a" x1="11.124" x2="44.8" y1="649.34" y2="658.36" gradientTransform="matrix(10 0 0 -10 -83.6 6790.5)" gradientUnits="userSpaceOnUse"><stop offset="0" style="stop-color:#612c75"/><stop offset=".4" style="stop-color:#7b5190"/><stop offset=".5" style="stop-color:#bf99c3"/><stop offset=".6" style="stop-color:#7b5190"/><stop offset="1" style="stop-color:#612c75"/></linearGradient></defs><path fill="#fff" d="m171.34 0-16.23 2.76-1.24.22v-.07C79.89 14.6 24.91 70.61 6.53 137.23c-18.1 65.65.35 142.65 68.91 196.3 31.99 63.51 58.44 102.85 90.2 166.47l5.7-211.07v-8.18c3.66.4 7.36.7 11.13.7 14.26 0 27.86-3.12 40.09-8.73-59.28 57.23-57.73 127.48-26.41 171.49 16.35 22.97 39.46 40.54 64.97 40.45 36.44-.1 69.65-9 96.77-60.22-20.08 13.33-54.13 34.93-77.7 20.21-45.64-28.51-35.72-82.75 6.18-108.85 74.8-46.58 89.37-131.9 72.25-197.76C341.5 72.17 287.2 16.94 210.92 2.98h-.1l-.27-.07-1.38-.22L193.02.15v88.18c-3.48-.38-6.98-.58-10.55-.58-3.77 0-7.47.23-11.13.65z" style="stroke-width:10"/><path fill="url(#a)" d="m157.37 16.52-1.31.21C87.82 27.52 37 79.26 20 140.94c-16.97 61.54-.16 132.99 66.43 183.57h.1l68.39 136.13 2.18 4.37v-4.87l.3-171.27v-.9l-.9-.2c-51.1-13.39-79.08-56.49-80.34-100.76s24.17-89.68 80.4-107.83l.8-.21V16.52Zm49.62 0v62.35l.7.29c72.42 26.49 90.61 85.88 81.05 129.95-6.85 31.57-30.19 50.41-48.82 66.5-63.43 54.8-61.26 120.02-32.45 160.51 14.4 20.24 35.41 34.34 58.21 37.91 22.71 3.55 47.14-3.51 68.18-25.1l.2-.2 6.91-7.13-8.37 5.39-.2.2c-32.75 20.85-69 8.44-85.93-18.12-16.86-26.68-14.53-67.57 31.17-104.18 64.96-52.04 83.25-122.58 67.45-183.35S279.43 29.76 208.37 16.75zm-24.52 96.33c-39.62 0-71.74 32.05-71.74 71.67s32.12 71.74 71.74 71.74 71.74-32.12 71.74-71.74-32.12-71.67-71.74-71.67" style="fill:url(#a);stroke-width:10"/></svg>