<svg xmlns="http://www.w3.org/2000/svg" width="367.13" height="499.996"><path d="m156.56 0-1.43.244C80.692 12.008 25.271 68.438 6.723 135.7c-18.516 67.14-.18 145.08 72.451 200.23h.106l74.6 148.48 2.38 4.77v-5.32l.31-186.82v-.95l-.95-.22c-55.761-14.62-86.278-61.63-87.647-109.91-1.37-48.29 26.362-97.827 87.697-117.618l.85-.233V0Zm54.12 0v68.013l.74.319C290.41 97.221 310.26 162 299.83 210.08c-7.46 34.43-32.93 54.97-53.26 72.53-69.19 59.78-66.81 130.92-35.39 175.08 15.71 22.07 38.61 37.46 63.49 41.35 24.77 3.88 51.42-3.82 74.36-27.38 0 0 .21-.1.21-.21l7.54-7.78-9.12 5.87s-.21.1-.21.21c-35.73 22.74-75.27 9.21-93.73-19.76-18.38-29.1-15.83-73.71 34.02-113.64 70.86-56.76 90.79-133.72 73.56-200C344.07 70.073 289.7 14.429 212.19.244Zm-26.75 105.07c-43.21 0-78.24 34.96-78.24 78.18s35.03 78.26 78.24 78.26c43.22 0 78.25-35.04 78.25-78.26s-35.03-78.18-78.25-78.18" style="stroke-width:10.6171"/></svg>