<svg xmlns="http://www.w3.org/2000/svg" width="600" height="596.51"><radialGradient id="a" cx="0" cy="0" r="1" fx="0" fy="0" gradientTransform="matrix(17.80936 0 0 -17.80936 665.505 372.1)" gradientUnits="userSpaceOnUse" spreadMethod="pad"><stop offset="0" style="stop-color:#bf99c3"/><stop offset=".663" style="stop-color:#7b5190"/><stop offset="1" style="stop-color:#612c75"/></radialGradient><path fill="#fff" d="m600 175.583-46.185 8.962c-.06.06-6.83 1.343-16.777 1.343-18.88 0-45.439-4.49-64.557-25.8-24.457-27.38-61.396-73.52-61.396-73.52h-33.837a68 68 0 0 0-7.576-16.254c-9.678-15.092-21.668-21.37-30.466-26.038-2.163-1.163-4.37-2.326-6.472-3.669-2.506-1.864-5.757-10.662-6.577-17.477C324.531 9.902 313.287 0 300 0c-13.347.06-24.531 10.021-26.097 23.19-.821 6.814-4.072 15.553-6.413 17.358-2.147 1.402-4.37 2.565-6.576 3.728-8.74 4.668-20.804 10.946-30.467 26.097-3.55 5.414-5.935 10.946-7.576 16.196h-33.837s-36.88 46.14-61.41 73.52c-19.044 21.31-45.604 25.799-64.543 25.799-9.962 0-16.717-1.283-16.777-1.343L0 175.523l36.178 96.516h95.994v188.855h-20.386l-7.456 13.869c-1.805 3.385-10.902 21.206-10.902 38.385 0 17.254 9.32 35.194 11.245 38.624l7.456 13.69h12.348l18.7 31.048h313.75l18.7-31.048h12.348l7.457-13.69c1.923-3.43 11.244-21.37 11.244-38.624 0-17.18-9.022-34.94-10.827-38.326l-7.396-13.928h-20.505V272.039H564z"/><path d="M664.277 387.895c-.695-.45-1.41-.614-1.961-1.469-.57-.887-.441-1.899-.441-1.899h-2.969s-1.953-2.449-3.652-4.343c-2.774-3.098-7.113-2.196-7.113-2.196l.89-2.375h6.977v-16.187h-2.074s-.524-.977-.524-1.742c0-.762.535-1.743.535-1.743h.782l1.253-2.086h19.047l1.254 2.086h.781s.536.981.536 1.743c0 .765-.52 1.742-.52 1.742H675v16.187h6.98l.891 2.375s-4.344-.902-7.117 2.196c-1.695 1.894-3.652 4.343-3.652 4.343h-2.969s.129 1.012-.442 1.899c-.55.855-1.265 1.019-1.957 1.469-1.043.671-1.234 2.449-1.234 2.449s-.184-1.778-1.223-2.449m1.844-13.09h5.957v-6.961h-5.957zm-7.191 0h5.957v-6.961h-5.957zm7.191-8.047h5.957v-6.961h-5.957zm-7.191 0h5.957v-6.961h-5.957z" style="fill:url(#a)" transform="matrix(14.91276 0 0 -14.91276 -9624.442 5847.204)"/></svg>