<svg xmlns="http://www.w3.org/2000/svg" width="517.92" height="544.152"><path d="M268.131 455.54h88.836V351.732H268.13zm0-120.063h88.836V231.73H268.13zm-18.342 16.255h-88.895V455.54h88.895zm0-120.003h-88.895v103.748h88.895zm27.424-195.208c10.38 6.711 21.042 9.157 29.244 21.907 8.515 13.287 6.592 28.32 6.592 28.32h44.276s29.184 36.52 54.461 64.766c41.353 46.2 106.134 32.748 106.134 32.748l-13.287 35.418H400.542v241.393h30.989s7.754 14.57 7.754 25.918c0 11.423-7.993 26.053-7.993 26.053h-11.647l-18.7 31.108H116.9l-18.686-31.108H86.554s-7.979-14.63-7.979-26.053c0-11.349 7.815-25.918 7.815-25.918h30.929V219.68H13.272L0 184.262s64.706 13.451 106.074-32.748c25.337-28.245 54.462-64.766 54.462-64.766h44.276s-1.924-15.033 6.576-28.32c8.217-12.75 18.88-15.196 29.244-21.907C256.127 26.515 258.871 0 258.871 0s2.848 26.515 18.342 36.521"/></svg>