<svg xmlns="http://www.w3.org/2000/svg" width="298.726" height="253.7"><path fill="gray" d="m228.602 169.224 33.462-15.655 36.662-17.152H225.81A115 115 0 0 0 228 114c0-30.451-11.858-59.078-33.39-80.61S144.45 0 114 0 54.922 11.858 33.39 33.39 0 83.55 0 114s11.858 59.078 33.39 80.61S83.55 228 114 228c24.707 0 48.213-7.807 67.703-22.254l1.383 9.914 5.306 38.04 12.146-36.437 7.348-22.045 25.6 12.754 29.055 14.475-17.453-27.37z"/><path d="m187.875 102.542-15.06-71.273c15.087 10.745 27.106 25.515 34.498 42.742zM101 199.417l47.375-41.25-93-16.375 97.75-5.25-66.25-75 79.875 44.25-2.692-80.104C149.285 17.296 132.204 12.5 114 12.5 57.943 12.5 12.5 57.943 12.5 114S57.943 215.5 114 215.5c20.022 0 38.688-5.8 54.414-15.807l1.086-26.151zm113.922-74.567c.379-3.565.578-7.184.578-10.85 0-8.844-1.134-17.424-3.26-25.603l-17.366 44.02zm43.328 20.567h-75.875l9.625 69 10.625-31.875 34.875 17.375-22-34.5z"/></svg>