<svg xmlns="http://www.w3.org/2000/svg" width="245.75" height="203"><path d="m175.375 90.042-15.06-71.273c15.087 10.745 27.106 25.515 34.498 42.742zM88.5 186.917l47.375-41.25-93-16.375 97.75-5.25-66.25-75 79.875 44.25-2.692-80.104C136.785 4.796 119.704 0 101.5 0 45.443 0 0 45.443 0 101.5S45.443 203 101.5 203c20.022 0 38.688-5.8 54.414-15.807L157 161.042Zm113.922-74.567c.379-3.565.578-7.184.578-10.85 0-8.844-1.134-17.424-3.26-25.603l-17.366 44.02zm43.328 20.567h-75.875l9.625 69 10.625-31.875L225 187.417l-22-34.5z"/></svg>