<svg xmlns="http://www.w3.org/2000/svg" width="600" height="946.074"><linearGradient id="a" x1="0" x2="1" y1="0" y2="0" gradientTransform="translate(39.34 472.68)scale(521.35702)" gradientUnits="userSpaceOnUse" spreadMethod="pad"><stop offset="0" style="stop-color:#8b723c"/><stop offset=".3" style="stop-color:#d2bb7b"/><stop offset=".5" style="stop-color:#ebd491"/><stop offset=".7" style="stop-color:#d2bb7b"/><stop offset="1" style="stop-color:#8b723c"/></linearGradient><path d="M257.219 462.133c0-18.377 14.971-33.254 33.278-33.254 18.377 0 33.349 14.877 33.349 33.254 0 18.402-14.972 33.373-33.35 33.373-18.306 0-33.277-14.971-33.277-33.373m213.789-98.013v-45.837h-69.371c-6.48-25.024-75.568-286.306-76.869-292.313C323.468 19.962 310.72 0 288.723 0h-.17c-17.74.095-33.279 13.221-37.323 29.305-3.974 16.154-60.809 242.975-72.162 288.978h-47.114v49.527H0v578.264h600V364.12H471.003Z"/><path d="M209.845 357.638h-38.529v152.176h-62.275v-102.65H39.363v499.551H560.65v-503.24h-75.781v53.217h-53.122v-99.054h-60.502l-82.52-319.016Zm12.56 104.494a68.13 68.13 0 0 1 136.258 0 68.13 68.13 0 1 1-136.259 0" style="fill:url(#a);stroke-width:23.6518"/></svg>