<svg xmlns="http://www.w3.org/2000/svg" width="600" height="679.579"><radialGradient id="a" cx="0" cy="0" r="1" fx="0" fy="0" gradientTransform="matrix(16.71236 0 0 -16.71236 665.514 146.512)" gradientUnits="userSpaceOnUse" spreadMethod="pad"><stop offset="0" style="stop-color:#d9eaf3"/><stop offset=".663" style="stop-color:#99aebc"/><stop offset="1" style="stop-color:#536e78"/></radialGradient><path d="M307.306 679.58c-211.7 0-287.777-61.684-290.875-64.26L0 601.515l10.842-18.417L200.1 261.01V102.121c-28.603-11.565-35.236-28.602-35.236-41.885C164.865 20.253 211.415 0 303.283 0c33.013 0 133.569 0 133.569 60.236 0 13.08-6.179 29.78-32.492 41.43v159.53l185.253 326.38L600 605.79l-16.044 13.552c-2.963 2.425-73.973 60.236-276.65 60.236" style="fill:#fff"/><path d="M187.29 586.06c-26.7-2.036-58.334-16.834-58.334-16.834l97.778-180.455Zm191.818-318.148V83.586c21.178-5.472 32.491-13.552 32.491-23.35 0-18.148-25.774-34.983-108.384-34.983-82.592 0-113.097 16.835-113.097 34.983 0 9.798 12.559 17.946 35.236 23.4v184.276L32.609 595.926s69.714 58.4 274.765 58.4c195.757 0 260.27-54.326 260.27-54.326Z" style="fill:#536e78"/><path d="M659.523 163.117c0-.125.301-.527 1.668-.855l.422-.106v-11.527l-.074-.129-11.184-19.039c1.262-.789 5.786-3.082 15.579-3.082 9.296 0 13.535 2.105 14.738 2.844l-10.953 19.285-.071.129v11.519l.411.106c1.203.312 1.519.683 1.519.855 0 .703-1.543 1.531-5.887 1.531-4.879 0-6.168-1.003-6.168-1.531m-.761-31.781c-1.664.129-3.571 1.012-3.653 1.047l-.527.25.277.512 5.805 10.718 1.738 3.211-.718-3.582-2.34-11.719-.098-.476z" style="fill:url(#a)" transform="matrix(16.83502 0 0 -16.83502 -10903.704 2806.313)"/></svg>