<?xml version="1.0" encoding="UTF-8" standalone="no"?>
<svg
   id="Layer_2"
   data-name="Layer 2"
   viewBox="0 0 1326.96 600.01001"
   version="1.1"
   width="1326.96"
   height="600.01001"
   xmlns="http://www.w3.org/2000/svg"
   xmlns:svg="http://www.w3.org/2000/svg">
  <defs
     id="defs1">
    <style
       id="style1">
      .cls-1, .cls-2 {
        stroke-width: 0px;
      }

      .cls-2 {
        fill: #fff;
      }
    </style>
  </defs>
  <g
     id="Layer_1-2"
     data-name="Layer 1"
     transform="translate(-0.01)">
    <g
       id="g3">
      <path
         class="cls-2"
         d="M 1257.01,12.78 1247.83,0 H 203.71 c -14.53,0 -27.06,10.17 -30.05,24.4 -2.96,14.22 4.43,28.57 17.73,34.42 11.43,5 34.91,19.85 40.02,33.07 0.99,2.58 1.26,4.77 -0.36,8.4 L 69.65,461.51 c -21.2,47.43 -58.3,79.09 -58.61,79.33 -7.01,5.84 -11.03,14.47 -11.03,23.59 v 4.87 c 0,16.96 13.73,30.7 30.69,30.7 h 270.7 c 13.89,0 26.86,-8.81 30.47,-22.21 3.56,-13.27 -1.33,-26.77 -13.07,-33.8 -3.25,-2.72 -24.39,-22.48 -24.39,-75.16 0,-37.67 82.4,-92.14 138.11,-117.08 0.71,-0.32 1.39,-0.66 2.07,-1.02 l 58.82,131.62 c 14.53,32.51 -27.86,59.77 -29.52,60.83 -11.7,7.19 -17.18,21.29 -13.42,34.51 3.73,13.19 15.78,22.32 29.51,22.32 h 767.85 l 9.18,-12.78 c 2.88,-3.98 69.96,-99.5 69.96,-287.22 0,-187.75 -67.09,-283.25 -69.96,-287.23 z"
         id="path1" />
      <path
         class="cls-1"
         d="m 499.27,562.66 c 19.42,-17.48 47.56,-52.29 28.21,-95.54 L 364.72,102.91 263.08,330.36 h 128.47 c -45.41,23.95 -134.47,78.53 -134.47,138.48 0,50.2 16.14,79.23 28.09,93.83 H 42.5 c 13.58,-13 42.32,-43.63 61.22,-85.93 L 265.13,115.53 c 5.49,-12.29 5.86,-24.78 1.1,-37.09 -6.86,-17.77 -23.27,-31.83 -37.18,-41.1 h 337.52 c -15.5,14.57 -28.21,38.46 -14.44,69.28 l 169.19,378.63 c 17.7,39.63 42.89,64.17 60.15,77.43 H 499.26 Z"
         id="path2" />
      <path
         class="cls-1"
         d="M 1228.52,37.33 H 649.77 c -18.14,0 -38.96,11.79 -49.5,28.02 -4.98,7.67 -9.69,19.53 -3.89,32.55 1.25,2.8 125.82,282.65 165.08,369.37 41.52,91.68 148.38,95.27 160.36,95.39 h 306.69 c 10.35,-16.29 61.11,-104.34 61.11,-262.66 0,-158.33 -50.76,-246.37 -61.11,-262.67 z m -286.06,313.63 20.79,-47.64 c 0,0 10.24,-2.7 12.09,0 V 410.33 H 763.1 l -4.16,-8.99 C 860.39,286.09 899.09,204.26 899.09,172.45 c 0,-31.81 -7.8,-52 -34.89,-52 -27.09,0 -34.78,30.74 -34.78,41.34 0,10.6 0.43,16.87 5.88,25.06 l -10.45,12.09 -56.28,-72.93 c 24.06,-20.59 53.84,-41.9 97.67,-41.9 49.84,0 109.11,29 109.09,79.26 0,50.24 -3.35,55.49 -126.21,187.59 h 93.33 z m 244.18,0 20.8,-47.64 c 0,0 10.21,-2.7 12.09,0 v 107.01 h -212.26 l -4.14,-8.99 c 101.45,-115.25 140.15,-197.08 140.15,-228.89 0,-31.81 -7.81,-52 -34.89,-52 -27.08,0 -34.78,30.74 -34.78,41.34 0,10.6 0.43,16.87 5.88,25.06 l -10.44,12.09 -56.28,-72.93 c 24.06,-20.59 53.84,-41.9 97.67,-41.9 49.84,0 109.11,29 109.09,79.26 -0.03,50.24 -3.36,55.49 -126.23,187.59 z"
         id="path3" />
    </g>
  </g>
</svg>
