<?xml version="1.0" encoding="UTF-8" standalone="no"?>
<svg
   id="Layer_2"
   data-name="Layer 2"
   viewBox="0 0 1326.97 600"
   version="1.1"
   width="1326.97"
   height="600"
   xmlns="http://www.w3.org/2000/svg"
   xmlns:svg="http://www.w3.org/2000/svg">
  <defs
     id="defs16">
    <style
       id="style1">
      .cls-1 {
        fill: url(#linear-gradient);
      }

      .cls-1, .cls-2, .cls-3 {
        stroke-width: 0px;
      }

      .cls-3 {
        fill: #8d742f;
      }
    </style>
    <linearGradient
       id="linear-gradient"
       x1="728.13"
       y1="205.56"
       x2="1278.08"
       y2="462"
       gradientTransform="matrix(1,0,0,-1,0,601.37)"
       gradientUnits="userSpaceOnUse">
      <stop
         offset="0"
         stop-color="#8d742f"
         id="stop1" />
      <stop
         offset=".05"
         stop-color="#937a35"
         id="stop2" />
      <stop
         offset=".11"
         stop-color="#a38a45"
         id="stop3" />
      <stop
         offset=".15"
         stop-color="#b39a54"
         id="stop4" />
      <stop
         offset=".18"
         stop-color="#b9a059"
         id="stop5" />
      <stop
         offset=".27"
         stop-color="#cab068"
         id="stop6" />
      <stop
         offset=".37"
         stop-color="#d4ba71"
         id="stop7" />
      <stop
         offset=".5"
         stop-color="#d7bd74"
         id="stop8" />
      <stop
         offset=".63"
         stop-color="#d4ba71"
         id="stop9" />
      <stop
         offset=".73"
         stop-color="#cab068"
         id="stop10" />
      <stop
         offset=".82"
         stop-color="#b9a059"
         id="stop11" />
      <stop
         offset=".85"
         stop-color="#b39a54"
         id="stop12" />
      <stop
         offset=".85"
         stop-color="#b29953"
         id="stop13" />
      <stop
         offset=".9"
         stop-color="#9e853f"
         id="stop14" />
      <stop
         offset=".95"
         stop-color="#917833"
         id="stop15" />
      <stop
         offset="1"
         stop-color="#8d742f"
         id="stop16" />
    </linearGradient>
  </defs>
  <g
     id="Layer_1-2"
     data-name="Layer 1"
     transform="translate(-0.01)">
    <g
       id="g18">
      <path
         class="cls-2"
         d="M 1257.02,12.78 1247.83,0 H 203.71 c -14.53,0 -27.06,10.17 -30.05,24.4 -2.96,14.22 4.43,28.57 17.73,34.42 11.43,5 34.91,19.85 40.02,33.07 0.99,2.58 1.26,4.77 -0.36,8.4 L 69.65,461.51 c -21.2,47.43 -58.3,79.09 -58.61,79.33 -7.01,5.84 -11.03,14.48 -11.03,23.59 v 4.87 c 0,16.96 13.73,30.7 30.69,30.7 h 270.7 c 13.88,0 26.86,-8.81 30.47,-22.21 3.56,-13.27 -1.32,-26.77 -13.06,-33.8 -3.25,-2.72 -24.39,-22.48 -24.39,-75.16 0,-37.67 82.4,-92.14 138.11,-117.08 0.7,-0.32 1.39,-0.66 2.07,-1.02 l 58.81,131.62 c 14.54,32.51 -27.86,59.77 -29.52,60.83 -11.69,7.19 -17.18,21.29 -13.41,34.51 3.73,13.19 15.78,22.31 29.51,22.31 h 767.85 l 9.19,-12.78 c 2.86,-3.98 69.95,-99.5 69.95,-287.22 0,-187.74 -67.09,-283.25 -69.95,-287.23 z"
         id="path16" />
      <path
         class="cls-3"
         d="m 499.26,562.66 c 19.42,-17.48 47.56,-52.29 28.22,-95.54 L 364.72,102.91 263.07,330.36 h 128.47 c -45.41,23.95 -134.46,78.53 -134.46,138.48 0,50.2 16.13,79.23 28.08,93.83 H 42.5 c 13.58,-13 42.32,-43.63 61.22,-85.93 L 265.13,115.53 c 5.49,-12.29 5.87,-24.78 1.1,-37.09 -6.87,-17.77 -23.27,-31.83 -37.18,-41.1 H 566.57 C 551.06,51.9 538.36,75.8 552.12,106.62 l 169.2,378.63 c 17.7,39.63 42.89,64.17 60.14,77.43 H 499.25 Z"
         id="path17" />
      <path
         class="cls-1"
         d="M 1228.54,37.33 H 649.78 c -18.14,0 -38.95,11.79 -49.5,28.02 -4.98,7.67 -9.69,19.53 -3.89,32.55 1.24,2.8 125.8,282.65 165.08,369.37 41.51,91.68 148.38,95.27 160.36,95.39 h 306.71 c 10.34,-16.29 61.11,-104.34 61.11,-262.66 0,-158.33 -50.77,-246.37 -61.11,-262.67 z m -286.08,313.63 20.78,-47.64 c 0,0 10.24,-2.7 12.09,0 V 410.33 H 763.08 l -4.15,-8.99 C 860.37,286.09 899.07,204.27 899.07,172.45 c 0,-31.82 -7.78,-52 -34.86,-52 -27.08,0 -34.78,30.74 -34.78,41.34 0,10.6 0.41,16.87 5.88,25.06 l -10.47,12.09 -56.27,-72.93 c 24.05,-20.59 53.83,-41.9 97.66,-41.9 49.84,0 109.12,29 109.1,79.25 0,50.24 -3.36,55.49 -126.21,187.59 h 93.33 z m 244.17,0 20.81,-47.64 c 0,0 10.21,-2.7 12.09,0 v 107.01 h -212.26 l -4.13,-8.99 c 101.44,-115.25 140.13,-197.08 140.13,-228.89 0,-31.81 -7.8,-52 -34.86,-52 -27.06,0 -34.78,30.74 -34.78,41.34 0,10.6 0.41,16.87 5.88,25.06 l -10.47,12.09 -56.27,-72.93 c 24.05,-20.59 53.83,-41.9 97.66,-41.9 49.84,0 109.13,29 109.1,79.26 -0.01,50.24 -3.36,55.49 -126.23,187.59 z"
         id="path18"
         style="fill:url(#linear-gradient)" />
    </g>
  </g>
</svg>
