<?xml version="1.0" encoding="UTF-8"?>
<svg id="Layer_2" data-name="Layer 2" xmlns="http://www.w3.org/2000/svg" xmlns:xlink="http://www.w3.org/1999/xlink" viewBox="0 0 1326.97 600">
  <defs>
    <style>
      .cls-1 {
        fill: url(#linear-gradient);
      }

      .cls-1, .cls-2, .cls-3 {
        stroke-width: 0px;
      }

      .cls-3 {
        fill: #8d742f;
      }
    </style>
    <linearGradient id="linear-gradient" x1="728.13" y1="205.56" x2="1278.08" y2="462" gradientTransform="translate(0 601.37) scale(1 -1)" gradientUnits="userSpaceOnUse">
      <stop offset="0" stop-color="#8d742f"/>
      <stop offset=".05" stop-color="#937a35"/>
      <stop offset=".11" stop-color="#a38a45"/>
      <stop offset=".15" stop-color="#b39a54"/>
      <stop offset=".18" stop-color="#b9a059"/>
      <stop offset=".27" stop-color="#cab068"/>
      <stop offset=".37" stop-color="#d4ba71"/>
      <stop offset=".5" stop-color="#d7bd74"/>
      <stop offset=".63" stop-color="#d4ba71"/>
      <stop offset=".73" stop-color="#cab068"/>
      <stop offset=".82" stop-color="#b9a059"/>
      <stop offset=".85" stop-color="#b39a54"/>
      <stop offset=".85" stop-color="#b29953"/>
      <stop offset=".9" stop-color="#9e853f"/>
      <stop offset=".95" stop-color="#917833"/>
      <stop offset="1" stop-color="#8d742f"/>
    </linearGradient>
  </defs>
  <g id="Layer_1-2" data-name="Layer 1">
    <g>
      <path class="cls-2" d="M1257.02,12.78l-9.19-12.78H203.71c-14.53,0-27.06,10.17-30.05,24.4-2.96,14.22,4.43,28.57,17.73,34.42,11.43,5,34.91,19.85,40.02,33.07.99,2.58,1.26,4.77-.36,8.4L69.65,461.51c-21.2,47.43-58.3,79.09-58.61,79.33-7.01,5.84-11.03,14.48-11.03,23.59v4.87c0,16.96,13.73,30.7,30.69,30.7h270.7c13.88,0,26.86-8.81,30.47-22.21,3.56-13.27-1.32-26.77-13.06-33.8-3.25-2.72-24.39-22.48-24.39-75.16,0-37.67,82.4-92.14,138.11-117.08.7-.32,1.39-.66,2.07-1.02l58.81,131.62c14.54,32.51-27.86,59.77-29.52,60.83-11.69,7.19-17.18,21.29-13.41,34.51,3.73,13.19,15.78,22.31,29.51,22.31h767.85l9.19-12.78c2.86-3.98,69.95-99.5,69.95-287.22,0-187.74-67.09-283.25-69.95-287.23Z"/>
      <path class="cls-3" d="M499.26,562.66c19.42-17.48,47.56-52.29,28.22-95.54L364.72,102.91l-101.65,227.45h128.47c-45.41,23.95-134.46,78.53-134.46,138.48,0,50.2,16.13,79.23,28.08,93.83H42.5c13.58-13,42.32-43.63,61.22-85.93L265.13,115.53c5.49-12.29,5.87-24.78,1.1-37.09-6.87-17.77-23.27-31.83-37.18-41.1h337.52c-15.51,14.56-28.21,38.46-14.45,69.28l169.2,378.63c17.7,39.63,42.89,64.17,60.14,77.43h-282.21Z"/>
      <path class="cls-1" d="M1228.54,37.33h-578.76c-18.14,0-38.95,11.79-49.5,28.02-4.98,7.67-9.69,19.53-3.89,32.55,1.24,2.8,125.8,282.65,165.08,369.37,41.51,91.68,148.38,95.27,160.36,95.39h306.71c10.34-16.29,61.11-104.34,61.11-262.66,0-158.33-50.77-246.37-61.11-262.67ZM942.46,350.96l20.78-47.64s10.24-2.7,12.09,0v107.01h-212.25l-4.15-8.99c101.44-115.25,140.14-197.07,140.14-228.89s-7.78-52-34.86-52-34.78,30.74-34.78,41.34.41,16.87,5.88,25.06l-10.47,12.09-56.27-72.93c24.05-20.59,53.83-41.9,97.66-41.9,49.84,0,109.12,29,109.1,79.25,0,50.24-3.36,55.49-126.21,187.59h93.33ZM1186.63,350.96l20.81-47.64s10.21-2.7,12.09,0v107.01h-212.26l-4.13-8.99c101.44-115.25,140.13-197.08,140.13-228.89s-7.8-52-34.86-52-34.78,30.74-34.78,41.34.41,16.87,5.88,25.06l-10.47,12.09-56.27-72.93c24.05-20.59,53.83-41.9,97.66-41.9,49.84,0,109.13,29,109.1,79.26-.01,50.24-3.36,55.49-126.23,187.59h93.33Z"/>
    </g>
  </g>
</svg>