<?xml version="1.0" encoding="UTF-8"?>
<svg id="Layer_2" data-name="Layer 2" xmlns="http://www.w3.org/2000/svg" xmlns:xlink="http://www.w3.org/1999/xlink" viewBox="0 0 1326.97 600">
  <defs>
    <style>
      .cls-1 {
        fill: url(#linear-gradient);
      }

      .cls-1, .cls-2, .cls-3 {
        stroke-width: 0px;
      }

      .cls-3 {
        fill: #612c75;
      }
    </style>
    <linearGradient id="linear-gradient" x1="728.13" y1="205.56" x2="1278.08" y2="462" gradientTransform="translate(0 601.37) scale(1 -1)" gradientUnits="userSpaceOnUse">
      <stop offset="0" stop-color="#612c75"/>
      <stop offset=".01" stop-color="#653179"/>
      <stop offset=".11" stop-color="#855693"/>
      <stop offset=".21" stop-color="#9e73a8"/>
      <stop offset=".31" stop-color="#b088b7"/>
      <stop offset=".41" stop-color="#bb94c0"/>
      <stop offset=".5" stop-color="#bf99c3"/>
      <stop offset=".59" stop-color="#bb94c0"/>
      <stop offset=".69" stop-color="#b088b7"/>
      <stop offset=".79" stop-color="#9e73a8"/>
      <stop offset=".89" stop-color="#855693"/>
      <stop offset=".99" stop-color="#653179"/>
      <stop offset="1" stop-color="#612c75"/>
    </linearGradient>
  </defs>
  <g id="Layer_1-2" data-name="Layer 1">
    <g>
      <path class="cls-2" d="M1257.02,12.78l-9.19-12.78H203.71c-14.53,0-27.06,10.17-30.05,24.4-2.97,14.22,4.42,28.57,17.74,34.42,11.43,5,34.91,19.85,40.02,33.07.99,2.58,1.26,4.77-.36,8.4L69.64,461.51c-21.2,47.43-58.29,79.09-58.6,79.33-7.02,5.84-11.04,14.48-11.04,23.59v4.87c0,16.96,13.74,30.7,30.69,30.7h270.71c13.89,0,26.86-8.81,30.48-22.21,3.55-13.27-1.33-26.77-13.08-33.8-3.25-2.72-24.39-22.48-24.39-75.16,0-37.67,82.4-92.14,138.1-117.08.71-.32,1.4-.66,2.07-1.02l58.83,131.62c14.51,32.51-27.86,59.77-29.52,60.83-11.7,7.19-17.18,21.29-13.42,34.51,3.73,13.19,15.78,22.31,29.52,22.31h767.84l9.19-12.78c2.86-3.98,69.95-99.5,69.95-287.22,0-187.74-67.09-283.25-69.96-287.23Z"/>
      <path class="cls-3" d="M499.27,562.66c19.41-17.48,47.56-52.29,28.2-95.54L364.72,102.91l-101.64,227.45h128.46c-45.41,23.95-134.47,78.53-134.47,138.48,0,50.2,16.15,79.23,28.09,93.83H42.5c13.58-13,42.32-43.63,61.22-85.93L265.13,115.53c5.49-12.29,5.86-24.78,1.1-37.09-6.86-17.77-23.26-31.83-37.18-41.1h337.52c-15.5,14.56-28.22,38.46-14.45,69.28l169.2,378.63c17.7,39.63,42.89,64.17,60.14,77.43h-282.2Z"/>
      <path class="cls-1" d="M1228.53,37.33h-578.76c-18.14,0-38.95,11.79-49.5,28.02-4.98,7.67-9.69,19.53-3.89,32.55,1.24,2.8,125.8,282.65,165.08,369.37,41.51,91.68,148.38,95.27,160.36,95.39h306.71c10.34-16.29,61.11-104.34,61.11-262.66,0-158.33-50.77-246.37-61.11-262.67ZM942.46,350.96l20.78-47.64s10.24-2.7,12.09,0v107.01h-212.25l-4.15-8.99c101.44-115.25,140.14-197.07,140.14-228.89s-7.78-52-34.86-52-34.78,30.74-34.78,41.34.41,16.87,5.88,25.06l-10.47,12.09-56.27-72.93c24.05-20.59,53.83-41.9,97.66-41.9,49.84,0,109.12,29,109.1,79.25,0,50.24-3.36,55.49-126.21,187.59h93.33ZM1186.63,350.96l20.81-47.64s10.21-2.7,12.09,0v107.01h-212.26l-4.13-8.99c101.44-115.25,140.13-197.08,140.13-228.89s-7.8-52-34.86-52-34.78,30.74-34.78,41.34.41,16.87,5.88,25.06l-10.47,12.09-56.27-72.93c24.05-20.59,53.83-41.9,97.66-41.9,49.84,0,109.13,29,109.1,79.26-.01,50.24-3.36,55.49-126.23,187.59h93.33Z"/>
    </g>
  </g>
</svg>