<?xml version="1.0" encoding="UTF-8"?>
<svg id="Layer_2" data-name="Layer 2" xmlns="http://www.w3.org/2000/svg" xmlns:xlink="http://www.w3.org/1999/xlink" viewBox="0 0 1326.97 600">
  <defs>
    <style>
      .cls-1 {
        fill: url(#linear-gradient);
      }

      .cls-1, .cls-2, .cls-3 {
        stroke-width: 0px;
      }

      .cls-3 {
        fill: #626e77;
      }
    </style>
    <linearGradient id="linear-gradient" x1="728.13" y1="205.56" x2="1278.07" y2="462" gradientTransform="translate(0 601.37) scale(1 -1)" gradientUnits="userSpaceOnUse">
      <stop offset="0" stop-color="#626e77"/>
      <stop offset="0" stop-color="#647079"/>
      <stop offset=".07" stop-color="#8496a1"/>
      <stop offset=".12" stop-color="#99adb9"/>
      <stop offset=".15" stop-color="#a0b6c2"/>
      <stop offset=".15" stop-color="#a1b7c3"/>
      <stop offset=".25" stop-color="#adc6d4"/>
      <stop offset=".36" stop-color="#b5cede"/>
      <stop offset=".5" stop-color="#b7d1e1"/>
      <stop offset=".64" stop-color="#b5cede"/>
      <stop offset=".75" stop-color="#adc6d4"/>
      <stop offset=".85" stop-color="#a1b7c3"/>
      <stop offset=".85" stop-color="#a0b6c2"/>
      <stop offset=".88" stop-color="#99adb9"/>
      <stop offset=".93" stop-color="#8496a1"/>
      <stop offset="1" stop-color="#647079"/>
      <stop offset="1" stop-color="#626e77"/>
    </linearGradient>
  </defs>
  <g id="Layer_1-2" data-name="Layer 1">
    <g>
      <path class="cls-2" d="M1257.01,12.78l-9.18-12.78H203.71c-14.53,0-27.06,10.17-30.05,24.4-2.96,14.22,4.43,28.57,17.73,34.42,11.43,5,34.91,19.85,40.02,33.07.99,2.58,1.26,4.77-.36,8.4L69.65,461.51c-21.2,47.43-58.3,79.09-58.61,79.33-7.01,5.84-11.03,14.48-11.03,23.59v4.87c0,16.96,13.73,30.7,30.69,30.7h270.7c13.89,0,26.86-8.81,30.47-22.21,3.56-13.27-1.33-26.77-13.07-33.8-3.25-2.72-24.39-22.48-24.39-75.16,0-37.67,82.4-92.14,138.11-117.08.71-.32,1.39-.66,2.07-1.02l58.82,131.62c14.53,32.51-27.86,59.77-29.52,60.83-11.7,7.19-17.18,21.29-13.42,34.51,3.73,13.19,15.78,22.31,29.51,22.31h767.85l9.18-12.78c2.88-3.98,69.96-99.5,69.96-287.22S1259.88,16.76,1257.01,12.78Z"/>
      <path class="cls-3" d="M499.27,562.66c19.42-17.48,47.56-52.29,28.21-95.54L364.72,102.91l-101.64,227.45h128.47c-45.41,23.95-134.47,78.53-134.47,138.48,0,50.2,16.14,79.23,28.09,93.83H42.5c13.58-13,42.32-43.63,61.22-85.93L265.13,115.53c5.49-12.29,5.86-24.78,1.1-37.09-6.86-17.77-23.27-31.83-37.18-41.1h337.52c-15.5,14.56-28.21,38.46-14.44,69.28l169.19,378.63c17.7,39.63,42.89,64.17,60.15,77.43h-282.21Z"/>
      <path class="cls-1" d="M1228.52,37.33h-578.75c-18.14,0-38.96,11.79-49.5,28.02-4.98,7.67-9.69,19.53-3.89,32.55,1.25,2.8,125.82,282.65,165.08,369.37,41.52,91.68,148.38,95.27,160.36,95.39h306.69c10.35-16.29,61.11-104.34,61.11-262.66,0-158.33-50.76-246.37-61.11-262.67ZM942.46,350.96l20.78-47.64s10.24-2.7,12.09,0v107.01h-212.24l-4.16-8.99c101.45-115.25,140.15-197.08,140.15-228.89s-7.8-52-34.89-52-34.78,30.74-34.78,41.34.43,16.87,5.88,25.06l-10.45,12.09-56.28-72.93c24.06-20.59,53.84-41.9,97.67-41.9,49.84,0,109.11,29,109.09,79.26,0,50.24-3.36,55.49-126.21,187.59h93.33ZM1186.64,350.96l20.8-47.64s10.21-2.7,12.09,0v107.01h-212.26l-4.13-8.99c101.45-115.25,140.15-197.08,140.15-228.89s-7.81-52-34.89-52-34.78,30.74-34.78,41.34.43,16.87,5.88,25.06l-10.44,12.09-56.28-72.93c24.06-20.59,53.84-41.9,97.67-41.9,49.84,0,109.11,29,109.09,79.26-.03,50.24-3.36,55.49-126.23,187.59h93.34Z"/>
    </g>
  </g>
</svg>