<?xml version="1.0" encoding="UTF-8" standalone="no"?>
<svg
   id="Layer_2"
   data-name="Layer 2"
   viewBox="0 0 600 600"
   version="1.1"
   width="600"
   height="600"
   xmlns="http://www.w3.org/2000/svg"
   xmlns:svg="http://www.w3.org/2000/svg">
  <defs
     id="defs1">
    <style
       id="style1">
      .cls-1 {
        stroke-width: 0px;
      }
    </style>
  </defs>
  <g
     id="Layer_1-2"
     data-name="Layer 1">
    <path
       class="cls-1"
       d="M 300,0 C 134.58,0 0,134.58 0,300 0,465.42 134.58,600 300,600 465.42,600 600,465.43 600,300 600,134.57 465.42,0 300,0 Z M 18.75,300 C 18.75,186.9 85.61,89.57 181.87,44.92 l 3.1,3.43 c 5.59,6.2 9.51,12.44 11.65,18.56 0.23,0.66 0.32,1.31 0.51,1.97 C 108.71,108.39 46.88,197.06 46.88,300 c 0,37.23 8.18,72.56 22.68,104.43 l -13.95,34.5 C 32.25,397.93 18.76,350.56 18.76,300 Z m 358.07,257.23 -20.55,18.2 c -18.2,3.72 -36.97,5.82 -56.27,5.82 -21,0 -41.4,-2.45 -61.08,-6.82 l -9.99,-13.75 c -3.6,-4.96 -8.05,-12.52 -12.35,-21.79 26.14,9.16 54.19,14.24 83.42,14.24 33.71,0 65.85,-6.75 95.29,-18.77 -5.51,9.24 -12.1,17.24 -18.46,22.87 z m 9.32,10.52 c 23.68,-20.97 45.99,-64.06 31.43,-100.06 L 278.49,123.73 191.63,338.54 h 109.78 c -38.8,22.61 -114.9,74.17 -114.9,130.78 0,46.81 20.69,85.37 31.04,99.62 C 154.13,549.53 100.29,508.28 64.68,453.99 L 208.95,97.29 c 4.7,-11.6 5.01,-23.4 0.94,-35.02 -3.07,-8.8 -8.41,-16.6 -14.48,-23.33 32.34,-12.97 67.62,-20.18 104.6,-20.18 39.56,0 77.19,8.2 111.34,22.94 -1.23,9.39 -0.24,19.92 4.46,31.55 L 555.7,417.15 C 523.02,488.34 461.55,543.53 386.15,567.76 Z M 546.45,357.14 c 4.28,-18.38 6.68,-37.47 6.68,-57.14 0,-89.24 -46.51,-167.71 -116.48,-212.79 l -7.82,-19.24 c -2.77,-6.84 -3.98,-13.36 -3.84,-19.8 92.56,46.03 156.25,141.43 156.25,251.83 0,34.72 -6.42,67.9 -17.93,98.59 l -16.87,-41.45 z"
       id="path1" />
  </g>
</svg>
