<?xml version="1.0" encoding="UTF-8"?>
<svg id="Layer_2" data-name="Layer 2" xmlns="http://www.w3.org/2000/svg" viewBox="0 0 600 600">
  <defs>
    <style>
      .cls-1 {
        stroke-width: 0px;
      }
    </style>
  </defs>
  <g id="Layer_1-2" data-name="Layer 1">
    <path class="cls-1" d="M300,0C134.58,0,0,134.58,0,300s134.58,300,300,300,300-134.57,300-300S465.42,0,300,0ZM18.75,300c0-113.1,66.86-210.43,163.12-255.08l3.1,3.43c5.59,6.2,9.51,12.44,11.65,18.56.23.66.32,1.31.51,1.97C108.71,108.39,46.88,197.06,46.88,300c0,37.23,8.18,72.56,22.68,104.43l-13.95,34.5c-23.36-41-36.85-88.37-36.85-138.93ZM376.82,557.23l-20.55,18.2c-18.2,3.72-36.97,5.82-56.27,5.82-21,0-41.4-2.45-61.08-6.82l-9.99-13.75c-3.6-4.96-8.05-12.52-12.35-21.79,26.14,9.16,54.19,14.24,83.42,14.24,33.71,0,65.85-6.75,95.29-18.77-5.51,9.24-12.1,17.24-18.46,22.87ZM386.14,567.75c23.68-20.97,45.99-64.06,31.43-100.06L278.49,123.73l-86.86,214.81h109.78c-38.8,22.61-114.9,74.17-114.9,130.78,0,46.81,20.69,85.37,31.04,99.62-63.42-19.41-117.26-60.66-152.87-114.95L208.95,97.29c4.7-11.6,5.01-23.4.94-35.02-3.07-8.8-8.41-16.6-14.48-23.33,32.34-12.97,67.62-20.18,104.6-20.18,39.56,0,77.19,8.2,111.34,22.94-1.23,9.39-.24,19.92,4.46,31.55l139.89,343.9c-32.68,71.19-94.15,126.38-169.55,150.61ZM546.45,357.14c4.28-18.38,6.68-37.47,6.68-57.14,0-89.24-46.51-167.71-116.48-212.79l-7.82-19.24c-2.77-6.84-3.98-13.36-3.84-19.8,92.56,46.03,156.25,141.43,156.25,251.83,0,34.72-6.42,67.9-17.93,98.59l-16.87-41.45Z"/>
  </g>
</svg>