<?xml version="1.0" encoding="UTF-8" standalone="no"?>
<svg
   width="434.99689"
   height="500.75"
   viewBox="0 0 434.99689 500.75"
   version="1.1"
   xml:space="preserve"
   style="clip-rule:evenodd;fill-rule:evenodd;stroke-linejoin:round;stroke-miterlimit:2"
   id="svg7"
   xmlns="http://www.w3.org/2000/svg"
   xmlns:svg="http://www.w3.org/2000/svg">
    <path
   d="m 217.4987,0 c -34.384,0.015 -65.349,17.126 -78.381,43.313 -21.053,-5.572 -33.526,-15.682 -48.932003,-29.563 -20.708,13.384 -32.571,36.941 -32.812,53.5 -13.408,-4.621 -18.393,-9.79 -35.258,-23.248 -30.4889995,41.948 -32.523,105.455 13.383,131.394 v 12.229 c -9.823,0.713 -19,15.923 -19,26.9 v 62.418 c 66.287,104.553 120.601003,175.305 201.000003,223.807 80.398,-48.502 134.712,-119.254 201,-223.807 v -62.418 c 0,-10.977 -9.178,-26.187 -19,-26.9 v -12.229 c 45.905,-25.939 43.872,-89.446 13.382,-131.394 -16.865,13.458 -21.85,18.627 -35.257,23.248 -0.242,-16.559 -12.105,-40.116 -32.813,-53.5 -15.405,13.881 -27.879,23.991 -48.931,29.563 C 282.8467,17.126 251.8817,0.015 217.4987,0 Z"
   style="fill-rule:nonzero"
   id="path1" />
    <path
   d="m 217.4987,104.875 c -10.407,45.924 -33.834,54.375 -43.993,54.375 H 57.851697 c -1.996,0 -3.603,1.607 -3.603,3.604 v 26.292 c 0,1.997 1.607,3.604 3.603,3.604 H 167.5807 c 21.786,0 40.317,1.637 49.918,62.75 9.6,-61.113 28.131,-62.75 49.918,-62.75 h 109.728 c 1.997,0 3.604,-1.607 3.604,-3.604 v -26.292 c 0,-1.997 -1.607,-3.604 -3.604,-3.604 h -115.654 c -10.159,0 -33.586,-8.451 -43.992,-54.375 z"
   style="fill:#ffffff;fill-rule:nonzero"
   id="path2" />
    <path
   d="m 217.4987,19.371 c -29.421,0.001 -55.493,15.481 -63.715,37.83 -0.828,2.327 -1.452,4.697 -1.867,7.092 -21.551,-3.132 -43.045,-8.135 -61.246003,-23.838 -14.638,8.2 -15.372,36.613 -15.172,48.295 -22.217,-0.997 -33.299,-5.732 -47.432,-15.01 -15.261,30.33 -11.645,68.553 16.182,84.01 3.028,-7.287 11.541,-10 17.125,-10 H 174.7487 c 7.029,0 23.595,0 42.75,-75.875 19.154,75.875 35.72,75.875 42.75,75.875 h 113.375 c 5.583,0 14.097,2.713 17.125,10 27.826,-15.457 31.442,-53.68 16.181,-84.01 -14.133,9.278 -25.214,14.013 -47.431,15.01 0.199,-11.682 -0.534,-40.095 -15.172,-48.295 -18.202,15.703 -39.696,20.706 -61.246,23.838 -0.416,-2.395 -1.039,-4.765 -1.868,-7.092 -8.222,-22.349 -34.294,-37.829 -63.714,-37.83 z M 47.705697,203.734 c -6.66,0 -12.022,5.362 -12.022,12.022 v 55.508 c 9.684,16.064 19.661,32.263 30.322,48.431 4.804,-0.21 13.243,-2.292 13.243,-13.32 V 269.75 c 0,-6.786 5.463,-12.25 12.25,-12.25 6.786,0 12.250003,5.464 12.250003,12.25 v 102.301 c 12.092,15.159 25.277,30.114 39.857,44.734 6.474,-0.151 12.143,-6.635 12.143,-13.982 v -76.178 c 0,-6.856 5.519,-12.375 12.375,-12.375 6.855,0 12.375,5.519 12.375,12.375 v 123.734 c 11.513,9.468 23.805,18.727 37,27.733 13.195,-9.006 25.486,-18.265 37,-27.733 V 326.625 c 0,-6.856 5.519,-12.375 12.375,-12.375 6.855,0 12.375,5.519 12.375,12.375 v 76.178 c 0,7.347 5.668,13.831 12.142,13.982 14.58,-14.62 27.765,-29.575 39.858,-44.734 V 269.75 c 0,-6.786 5.463,-12.25 12.25,-12.25 6.786,0 12.25,5.464 12.25,12.25 v 36.625 c 0,11.028 8.439,13.11 13.242,13.32 10.662,-16.168 20.639,-32.367 30.322,-48.431 v -55.508 c 0,-6.66 -5.362,-12.022 -12.021,-12.022 h -128.428 c -18.979,1.408 -24.67,22.254 -27.707,35.676 -9.006,39.801 -11.734,101.003 -13.658,121.656 -1.924,-20.653 -4.653,-81.855 -13.659,-121.656 -3.037,-13.422 -8.727,-34.268 -27.707,-35.676 z"
   style="fill:url(#_Linear1);fill-rule:nonzero"
   id="path3" />
    <defs
   id="defs7">
        <linearGradient
   id="_Linear1"
   x1="0"
   y1="0"
   x2="1"
   y2="0"
   gradientUnits="userSpaceOnUse"
   gradientTransform="matrix(396.719,0,0,396.719,19.138797,248.731)"><stop
     offset="0"
     style="stop-color:rgb(97,44,117);stop-opacity:1"
     id="stop3" /><stop
     offset="0.3"
     style="stop-color:rgb(123,81,144);stop-opacity:1"
     id="stop4" /><stop
     offset="0.5"
     style="stop-color:rgb(191,153,195);stop-opacity:1"
     id="stop5" /><stop
     offset="0.7"
     style="stop-color:rgb(123,81,144);stop-opacity:1"
     id="stop6" /><stop
     offset="1"
     style="stop-color:rgb(97,44,117);stop-opacity:1"
     id="stop7" /></linearGradient>
    </defs>
</svg>
