<?xml version="1.0" encoding="UTF-8" standalone="no"?>
<svg
   width="1355.4628"
   height="612.85718"
   version="1.1"
   id="svg6"
   xmlns:xlink="http://www.w3.org/1999/xlink"
   xmlns="http://www.w3.org/2000/svg"
   xmlns:svg="http://www.w3.org/2000/svg">
  <defs
     id="defs6" />
  <linearGradient
     id="g1">
    <stop
       offset="0"
       style="stop-color:#a72029"
       id="stop1" />
    <stop
       offset="0.15"
       style="stop-color:#c34f25"
       id="stop2" />
    <stop
       offset="0.5"
       style="stop-color:#eda54d"
       id="stop3" />
    <stop
       offset="0.85"
       style="stop-color:#c34f25"
       id="stop4" />
    <stop
       offset="1"
       style="stop-color:#a72029"
       id="stop5" />
  </linearGradient>
  <linearGradient
     gradientTransform="translate(300.81986,-415.21932)"
     gradientUnits="userSpaceOnUse"
     xlink:href="#g1"
     id="g2"
     y2="1028.0765"
     x2="981.07141"
     y1="415.21933"
     x1="-230.81985" />
  <path
     d="m 70,0 h 1211.8913 c 0,0 73.5715,160.35086 73.5715,306.42786 0,146.077 -73.5715,306.42932 -73.5715,306.42932 H 70 c 0,0 -70,-160.35232 -70,-306.42932 C 0,160.35086 70,0 70,0 Z"
     id="path5" />
  <path
     d="m 94.257812,35.71875 c 0,0 -58.78125,124.64175 -58.78125,270.71875 0,146.077 58.78125,270 58.78125,270 H 1260.1016 c 0,0 60.7187,-123.923 60.7187,-270 0,-146.077 -60.7187,-270.71875 -60.7187,-270.71875 z M 915.75781,88.712891 c 47.9389,0 104.98509,27.917059 104.97069,76.261719 -0.014,48.34465 -3.2482,53.39729 -121.4492,180.49609 h 89.80468 l 19.99802,-45.83789 c 0,0 9.843,-2.5992 11.6465,0 V 402.60156 H 816.5 l -3.98633,-8.66601 C 910.12136,283.06077 947.3418,204.32158 947.3418,173.7168 c 0,-30.60478 -7.49156,-50.03711 -33.54883,-50.03711 -26.05726,0 -33.45117,29.58822 -33.45117,39.77148 0,10.18325 0.39978,16.24405 5.64648,24.12891 l -10.06055,11.625 -54.14257,-70.17188 c 23.14021,-19.82435 51.79722,-40.320309 93.97265,-40.320309 z m 239.49219,0 c 65.5838,0 118.75,57.461839 118.75,159.318359 0,101.85652 -53.1662,159.32031 -118.75,159.32031 -65.5838,0 -118.75,-57.46379 -118.75,-159.32031 0,-101.85652 53.1662,-159.318359 118.75,-159.318359 z M 234.66406,93.21875 h 165.1875 c 5.03381,1e-5 9.51012,2.45745 11.3125,6.90625 0.005,0.0129 0.0261,0.0183 0.0312,0.0312 L 481.13281,274.75 c 2.89749,7.23305 5.10538,7.30417 8.21875,0.25 l 0.125,-0.25 48.90625,-112.8125 c 0.53114,-1.22511 1.05551,-2.43227 1.5625,-3.65625 6.37142,-15.38212 9.15764,-31.11983 -33.75,-58.4375 0.0614,-0.004 0.12606,0.004 0.1875,0 -3.81566,-2.82178 -7.13975,-6.625 4.15625,-6.625 h 190.8125 c 7.41778,0 7.91852,2.82931 0.6875,7.34375 0.007,0.012 0.0242,0.0194 0.0312,0.0312 l -2.21875,1.375 c -25.95395,16.20344 -28.94155,34.19486 -13.6875,71.9375 l 100.8438,249.5313 c 0.0855,0.21146 0.16416,0.41483 0.25,0.625 9.74528,23.86009 22.00916,39.5434 50.5,70.53125 0.7831,0.85168 1.48826,1.60109 2.125,2.3125 4.45721,4.9799 4.99493,6.6475 -2.8125,6.65625 h -205.9375 -1.4375 c -7.01362,-0.20644 -9.78889,-2.09317 1.0625,-9.28125 31.42943,-23.6768 28.59755,-46.92285 12.125,-87.96875 l -0.125,-0.28125 -58.46875,-145.4375 -0.78125,-1.90625 c -3.89963,-8.75552 -6.92214,-8.2812 -11.25,1.375 -0.0823,0.18362 -0.16674,0.34097 -0.25,0.53125 L 457.78906,521.875 c -0.15118,0.10037 -0.21251,0.21119 -0.15625,0.3125 -5.94732,13.60325 -7.7966,13.78903 -13.15625,0.625 -0.088,-0.21601 -0.16013,-0.40178 -0.25,-0.625 0.0833,-0.13038 0.0119,-0.2778 -0.15625,-0.40625 l -105.15625,-261.1875 -0.3125,-0.71875 c -4.18525,-10.03096 -7.29359,-9.88469 -11.875,0.46875 -0.0394,0.089 -0.0854,0.15946 -0.125,0.25 L 263.57031,404.625 c -0.0419,0.0957 -0.0836,0.18564 -0.125,0.28125 -13.73203,31.72751 0.66941,56.28003 46.125,90.84375 -0.0213,0.0294 -0.0416,0.0645 -0.0625,0.0937 5.73296,4.11562 7.98378,7.71875 -2.46875,7.71875 h -183.1875 c -6.73778,0 -7.14587,-0.95646 -1.40625,-6.96875 26.14219,-27.40999 46.20534,-50.61806 59,-79.5 l 99.21875,-224.0312 c -0.008,-0.004 -0.0233,0.004 -0.0312,0 1.12493,-2.5402 2.22808,-4.96418 3.25,-7.3125 15.32881,-35.22472 17.53011,-50.023 -38.90625,-78.96875 l -10.96875,-5.625 c -0.0433,-0.0222 -0.0821,-0.0402 -0.125,-0.0625 -6.96565,-3.61933 -7.78404,-7.875 0.78125,-7.875 z M 1155.25,123.67969 c -33.8744,0 -42.5098,33.45624 -42.5098,124.35156 0,90.89532 8.6354,124.35352 42.5098,124.35352 33.8744,0 42.5098,-33.4582 42.5098,-124.35352 0,-90.89532 -8.6354,-124.35156 -42.5098,-124.35156 z"
     style="fill:url(#g2)"
     id="path6" />
</svg>
