<?xml version="1.0" encoding="UTF-8" standalone="no"?>
<svg
   version="1.1"
   width="575.11414"
   height="385.99719"
   id="svg1"
   xmlns="http://www.w3.org/2000/svg"
   xmlns:svg="http://www.w3.org/2000/svg">
  <defs
     id="defs1" />
  <path
     d="m 434.93447,312.74608 c 0,0 -21.90866,-14.18109 -65.67834,-20.69416 0,0 -18.22944,37.67337 -81.66928,37.80434 -63.48748,-0.13145 -81.72882,-37.80434 -81.72882,-37.80434 -43.75778,6.51307 -65.61881,20.69416 -65.61881,20.69416 0,0 55.75991,73.25112 147.34763,73.25112 91.52817,0 147.34762,-73.25112 147.34762,-73.25112 m 140.17968,-12.14502 c 0,62.93976 -116.69932,79.82372 -170.23264,83.02667 0,0 91.67106,-40.45958 91.67106,-76.78746 0,-32.79155 -110.50774,-62.23726 -211.15659,-63.48748 -100.60122,1.25022 -206.786766,30.69593 -206.786766,63.48748 0,36.32788 91.623436,76.78746 91.623436,76.78746 C 116.69932,380.42478 0,363.54082 0,300.60106 0,211.29947 142.88255,155.58719 285.39598,155.58719 c 142.60869,0 289.71817,55.71228 289.71817,145.01387 m -83.4434,-142.78729 c 0,0 6.19157,-96.6005 -90.45656,-157.81377 0,0 35.43487,47.91328 43.43629,135.67889 0,0 24.83775,10.59712 47.02027,22.13488 M 130.46367,135.67889 C 138.4651,47.91328 173.91187,0 173.91187,0 77.299457,61.21327 83.491034,157.81377 83.491034,157.81377 105.67355,146.27601 130.46367,135.67889 130.46367,135.67889"
     id="path1" />
</svg>
