<svg xmlns="http://www.w3.org/2000/svg" width="95.006" height="101.365" viewBox="0 0 95.006 101.365"><filter id="a" width="1.027" height="1.04" x="-.013" y="-.012" style="color-interpolation-filters:sRGB"><feFlood flood-color="#000" flood-opacity=".5" result="flood"/><feComposite in="flood" in2="SourceGraphic" operator="out" result="composite1"/><feGaussianBlur in="composite1" result="blur" stdDeviation=".5"/><feOffset dy="1.5" result="offset"/><feComposite in="offset" in2="SourceGraphic" operator="atop" result="composite2"/></filter><filter id="b" width="1.068" height="1.13" x="-.034" y="-.04" style="color-interpolation-filters:sRGB"><feFlood flood-color="#000" flood-opacity=".5" result="flood"/><feComposite in="flood" in2="SourceGraphic" operator="in" result="composite1"/><feGaussianBlur in="composite1" result="blur" stdDeviation=".5"/><feOffset dy="1.5" result="offset"/><feComposite in="SourceGraphic" in2="offset" result="composite2"/></filter><path d="M47.503 1.2 3.026 18.3v80.365l20.115-.123c9.598-.005 16.127-.641 20.565-4.028a13.5 13.5 0 0 0 2.037-1.91c.302-.343.59-.743.832-1.058.34-.46.662-.997.928-1.424.307.54.624.981.941 1.441.277.39.556.717.82 1.045.316.367.671.708.963 1.002.354.336.75.64 1.072.904 4.438 3.387 10.967 4.023 20.565 4.028l20.115.123V18.3Z" style="fill:#d2c5b2;filter:url(#a)"/><path d="M54.477 60.664q0 2.217.23 3.363.267 1.109.878 1.835.65.688 1.835 1.108 1.185.382 2.98.611 1.797.191 4.74.268v3.478H32.16v-3.478q4.241-.191 6.037-.497 1.835-.344 2.79-.994t1.376-1.834q.458-1.185.458-3.86v-27.63q0-1.567-.61-2.255-.574-.688-1.606-.688-.956 0-2.714.88-1.72.878-5.694 3.592l-2.33-4.051L49.814 18.55h4.892q-.23 3.669-.23 10.166z" style="fill:#fff;filter:url(#b)"/><path d="M91.98 68.667c-26.619 0-53.528-1.747-88.954 12.203v17.795C31.961 80.438 57.31 72.008 91.98 68.667" style="fill:#fff;filter:url(#b)"/></svg>