<svg xmlns="http://www.w3.org/2000/svg" width="94.903" height="101.365" viewBox="0 0 94.903 101.365"><filter id="a" width="1.027" height="1.04" x="-.013" y="-.012" style="color-interpolation-filters:sRGB"><feFlood flood-color="#000" flood-opacity=".5" result="flood"/><feComposite in="flood" in2="SourceGraphic" operator="out" result="composite1"/><feGaussianBlur in="composite1" result="blur" stdDeviation=".5"/><feOffset dy="1.5" result="offset"/><feComposite in="offset" in2="SourceGraphic" operator="atop" result="composite2"/></filter><filter id="b" width="1.067" height="1.13" x="-.033" y="-.04" style="color-interpolation-filters:sRGB"><feFlood flood-color="#000" flood-opacity=".5" result="flood"/><feComposite in="flood" in2="SourceGraphic" operator="in" result="composite1"/><feGaussianBlur in="composite1" result="blur" stdDeviation=".5"/><feOffset dy="1.5" result="offset"/><feComposite in="SourceGraphic" in2="offset" result="composite2"/></filter><path d="M47.452 1.2 2.975 18.3v80.365l20.115-.123c9.598-.005 16.127-.641 20.565-4.028a13.5 13.5 0 0 0 2.037-1.91c.302-.343.59-.743.832-1.058.34-.46.662-.997.928-1.424.307.54.624.981.94 1.441.278.39.557.717.82 1.045.317.367.672.708.964 1.002.354.336.749.64 1.072.904 4.438 3.387 10.967 4.023 20.565 4.028l20.115.123V18.3Z" style="fill:#d2c5b2;filter:url(#a)"/><path d="M53.299 60.55q2.484 0 3.707-.345 1.223-.382 1.91-1.26.727-.918 1.185-2.714h4.395l-.88 13.681H28.612V67.39q1.605-3.669 4.624-7.987 3.058-4.318 7.414-9.44 4.128-4.853 6.268-7.987 2.178-3.133 3.248-5.923t1.07-5.77q0-4.205-1.872-6.574-1.873-2.408-5.121-2.408-3.058 0-5.083 2.179-1.987 2.14-2.904 6.802h-6.88v-9.019q4.663-1.872 7.3-2.598 2.637-.765 5.197-1.147 2.599-.382 5.618-.382 5.618 0 9.172 1.529 3.554 1.49 5.12 4.089 1.606 2.56 1.606 6 0 3.019-1.146 5.617-1.11 2.599-3.9 5.924-2.75 3.325-9.323 9.516-2.943 2.866-5.503 5.809-2.56 2.904-3.784 4.547v.382z" style="fill:#fff;filter:url(#b)"/><path d="M91.929 68.667c-26.62 0-53.528-1.747-88.954 12.203v17.795C31.91 80.438 57.258 72.008 91.929 68.667" style="fill:#fff;filter:url(#b)"/></svg>