<svg xmlns="http://www.w3.org/2000/svg" width="95.033" height="101.365" viewBox="0 0 95.033 101.365"><filter id="a" width="1.027" height="1.04" x="-.013" y="-.012" style="color-interpolation-filters:sRGB"><feFlood flood-color="#000" flood-opacity=".5" result="flood"/><feComposite in="flood" in2="SourceGraphic" operator="out" result="composite1"/><feGaussianBlur in="composite1" result="blur" stdDeviation=".5"/><feOffset dy="1.5" result="offset"/><feComposite in="offset" in2="SourceGraphic" operator="atop" result="composite2"/></filter><filter id="b" width="1.068" height="1.13" x="-.034" y="-.04" style="color-interpolation-filters:sRGB"><feFlood flood-color="#000" flood-opacity=".5" result="flood"/><feComposite in="flood" in2="SourceGraphic" operator="in" result="composite1"/><feGaussianBlur in="composite1" result="blur" stdDeviation=".5"/><feOffset dy="1.5" result="offset"/><feComposite in="SourceGraphic" in2="offset" result="composite2"/></filter><path d="M47.516 1.2 3.04 18.3v80.365l20.115-.123c9.598-.005 16.127-.641 20.565-4.028a13.5 13.5 0 0 0 2.037-1.91c.302-.343.59-.743.832-1.058.34-.46.662-.997.928-1.424.307.54.624.981.941 1.441.277.39.556.717.82 1.045.316.367.671.708.963 1.002.354.336.75.64 1.072.904 4.438 3.387 10.967 4.023 20.565 4.028l20.115.123V18.3Z" style="fill:#d2c5b2;filter:url(#a)"/><path d="M30.682 31.735v-9.058q9.668-4.127 17.54-4.127 4.701 0 8.294 1.3 3.63 1.299 5.58 3.821 1.986 2.484 1.986 6.038 0 3.249-1.299 5.733-1.3 2.445-3.669 4.28-2.33 1.834-6.076 3.592v.344q3.325.573 6.038 2.217 2.752 1.643 4.357 4.394 1.643 2.752 1.643 6.383 0 4.433-2.178 7.91-2.14 3.44-6.535 5.427-4.395 1.949-10.662 1.949-4.319 0-8.484-.764-4.166-.803-7.262-2.217v-9.592h6.88q1.108 4.357 3.133 6.344 2.026 1.949 5.312 1.949 8.102 0 8.102-10.013 0-5.388-2.866-8.025-2.828-2.637-8.637-2.637h-3.02v-4.357q6.65-.267 10.09-3.095 3.44-2.866 3.44-8.255 0-4.242-1.72-6.382-1.72-2.178-5.007-2.178-1.872 0-3.477.84-1.567.803-2.828 2.867-1.223 2.025-1.797 5.312z" style="fill:#fff;filter:url(#b)"/><path d="M91.993 68.667c-26.619 0-53.528-1.747-88.954 12.203v17.795c28.935-18.227 54.283-26.657 88.954-29.998" style="fill:#fff;filter:url(#b)"/></svg>