<svg xmlns="http://www.w3.org/2000/svg" width="94.037" height="101.365" viewBox="0 0 94.037 101.365"><filter id="a" width="1.027" height="1.04" x="-.013" y="-.012" style="color-interpolation-filters:sRGB"><feFlood flood-color="#000" flood-opacity=".5" result="flood"/><feComposite in="flood" in2="SourceGraphic" operator="out" result="composite1"/><feGaussianBlur in="composite1" result="blur" stdDeviation=".5"/><feOffset dy="1.5" result="offset"/><feComposite in="offset" in2="SourceGraphic" operator="atop" result="composite2"/></filter><filter id="b" width="1.057" height="1.13" x="-.029" y="-.04" style="color-interpolation-filters:sRGB"><feFlood flood-color="#000" flood-opacity=".5" result="flood"/><feComposite in="flood" in2="SourceGraphic" operator="in" result="composite1"/><feGaussianBlur in="composite1" result="blur" stdDeviation=".5"/><feOffset dy="1.5" result="offset"/><feComposite in="SourceGraphic" in2="offset" result="composite2"/></filter><path d="M47.019 1.2 2.542 18.3v80.365l20.115-.123c9.598-.005 16.127-.641 20.565-4.028a13.5 13.5 0 0 0 2.037-1.91c.302-.343.59-.743.832-1.058.34-.46.662-.997.928-1.424.307.54.624.981.94 1.441.278.39.557.717.82 1.045.317.367.672.708.964 1.002.354.336.749.64 1.072.904 4.438 3.387 10.967 4.023 20.565 4.028l20.115.123V18.3Z" style="fill:#d2c5b2;filter:url(#a)"/><path d="M40.917 66.541q1.376-.382 2.179-.802.84-.459 1.26-1.185.42-.764.536-1.949.114-1.185.114-2.98V53.93H24.523v-4.127L47.72 16.63h8.598v32.484h1.185q1.873 0 2.637-.23.764-.267 1.3-.955.573-.688 1.07-2.446h4.012l-.458 8.446h-9.746v5.694q0 2.026.192 3.249.19 1.184.65 1.91.458.688 1.26 1.07.803.345 2.026.688v2.523h-19.53zm-8.98-17.426h13.07v-8.752q0-5.503.382-11.58h-.383l-13.07 19.682z" style="fill:#fff;filter:url(#b)"/><path d="M91.496 68.667c-26.62 0-53.528-1.747-88.954 12.203v17.795c28.935-18.227 54.283-26.657 88.954-29.998" style="fill:#fff;filter:url(#b)"/></svg>