<svg xmlns="http://www.w3.org/2000/svg" width="95.013" height="101.365" viewBox="0 0 95.013 101.365"><filter id="a" width="1.027" height="1.04" x="-.013" y="-.012" style="color-interpolation-filters:sRGB"><feFlood flood-color="#000" flood-opacity=".5" result="flood"/><feComposite in="flood" in2="SourceGraphic" operator="out" result="composite1"/><feGaussianBlur in="composite1" result="blur" stdDeviation=".5"/><feOffset dy="1.5" result="offset"/><feComposite in="offset" in2="SourceGraphic" operator="atop" result="composite2"/></filter><filter id="b" width="1.068" height="1.13" x="-.034" y="-.04" style="color-interpolation-filters:sRGB"><feFlood flood-color="#000" flood-opacity=".5" result="flood"/><feComposite in="flood" in2="SourceGraphic" operator="in" result="composite1"/><feGaussianBlur in="composite1" result="blur" stdDeviation=".5"/><feOffset dy="1.5" result="offset"/><feComposite in="SourceGraphic" in2="offset" result="composite2"/></filter><path d="M47.507 1.2 3.03 18.3v80.365l20.115-.123c9.598-.005 16.127-.641 20.565-4.028a13.5 13.5 0 0 0 2.037-1.91c.302-.343.59-.743.832-1.058.34-.46.662-.997.928-1.424.307.54.624.981.94 1.441.278.39.557.717.82 1.045.317.367.672.708.964 1.002.354.336.749.64 1.072.904 4.438 3.387 10.967 4.023 20.565 4.028l20.115.123V18.3Z" style="fill:#d2c5b2;filter:url(#a)"/><path d="M31.093 68.957v-9.554h6.917q.955 4.166 3.057 6.23 2.102 2.025 5.427 2.025 4.166 0 6.153-2.56 1.987-2.6 1.987-7.988 0-5.312-2.56-8.102t-7.414-2.79q-1.873 0-4.051.345-2.14.343-3.822.84l-3.44-2.14V19.162h22.586q1.414 0 2.064-.192.65-.19 1.07-.65.42-.458.917-1.68h4.204l-.764 12.19H39.959v13.758q2.293-.688 4.662-.994 2.408-.344 5.886-.344 4.739 0 8.293 1.758 3.592 1.758 5.54 5.121 1.988 3.325 1.988 7.835 0 5.274-2.37 8.866-2.37 3.554-6.84 5.35-4.471 1.758-10.7 1.758-4.013 0-8.18-.803-4.164-.802-7.145-2.178" style="fill:#fff;filter:url(#b)"/><path d="M91.984 68.667c-26.62 0-53.528-1.747-88.954 12.203v17.795c28.935-18.227 54.283-26.657 88.954-29.998" style="fill:#fff;filter:url(#b)"/></svg>