<svg xmlns="http://www.w3.org/2000/svg" width="94.485" height="101.365" viewBox="0 0 94.485 101.365"><filter id="a" width="1.027" height="1.04" x="-.013" y="-.012" style="color-interpolation-filters:sRGB"><feFlood flood-color="#000" flood-opacity=".5" result="flood"/><feComposite in="flood" in2="SourceGraphic" operator="out" result="composite1"/><feGaussianBlur in="composite1" result="blur" stdDeviation=".5"/><feOffset dy="1.5" result="offset"/><feComposite in="offset" in2="SourceGraphic" operator="atop" result="composite2"/></filter><filter id="b" width="1.062" height="1.13" x="-.031" y="-.04" style="color-interpolation-filters:sRGB"><feFlood flood-color="#000" flood-opacity=".5" result="flood"/><feComposite in="flood" in2="SourceGraphic" operator="in" result="composite1"/><feGaussianBlur in="composite1" result="blur" stdDeviation=".5"/><feOffset dy="1.5" result="offset"/><feComposite in="SourceGraphic" in2="offset" result="composite2"/></filter><path d="M47.243 1.2 2.766 18.3v80.365l20.115-.123c9.598-.005 16.127-.641 20.565-4.028a13.5 13.5 0 0 0 2.037-1.91c.302-.343.59-.743.832-1.058.34-.46.662-.997.928-1.424.307.54.624.981.94 1.441.278.39.557.717.82 1.045.317.367.672.708.964 1.002.354.336.749.64 1.072.904 4.438 3.387 10.967 4.023 20.565 4.028l20.115.123V18.3Z" style="fill:#d2c5b2;filter:url(#a)"/><path d="M59.622 19.187v2.37q-8.37.19-13.567 5.197-5.198 4.968-6.917 14.254l.382.153q2.98-2.063 6-3.019 3.019-.955 6.61-.955 4.396 0 7.53 1.949 3.172 1.91 4.777 5.427 1.605 3.515 1.605 8.178 0 5.083-2.14 8.98-2.14 3.86-6.612 6.039-4.433 2.178-10.891 2.178-5.924 0-10.204-2.37-4.242-2.369-6.497-6.993T27.444 49.34q0-8.943 3.745-16.166 3.783-7.223 10.7-11.618 6.917-4.394 15.669-5.006zm-12 23.274q-1.873 0-3.516.573-1.643.535-2.905 1.49-1.26.917-1.72 1.529-.42.573-.61 1.681-.192 1.109-.192 3.899 0 6.993 1.95 10.509 1.948 3.516 5.96 3.516 2.294 0 3.823-.88 1.566-.878 2.522-2.445.955-1.605 1.376-3.822.42-2.254.42-4.968 0-5.465-1.834-8.254-1.797-2.828-5.274-2.828" style="fill:#fff;filter:url(#b)"/><path d="M91.72 68.667c-26.62 0-53.528-1.747-88.954 12.203v17.795C31.7 80.438 57.049 72.008 91.72 68.667" style="fill:#fff;filter:url(#b)"/></svg>