<svg xmlns="http://www.w3.org/2000/svg" width="94.631" height="101.365" viewBox="0 0 94.631 101.365"><filter id="a" width="1.027" height="1.04" x="-.013" y="-.012" style="color-interpolation-filters:sRGB"><feFlood flood-color="#000" flood-opacity=".5" result="flood"/><feComposite in="flood" in2="SourceGraphic" operator="out" result="composite1"/><feGaussianBlur in="composite1" result="blur" stdDeviation=".5"/><feOffset dy="1.5" result="offset"/><feComposite in="offset" in2="SourceGraphic" operator="atop" result="composite2"/></filter><filter id="b" width="1.064" height="1.13" x="-.032" y="-.04" style="color-interpolation-filters:sRGB"><feFlood flood-color="#000" flood-opacity=".5" result="flood"/><feComposite in="flood" in2="SourceGraphic" operator="in" result="composite1"/><feGaussianBlur in="composite1" result="blur" stdDeviation=".5"/><feOffset dy="1.5" result="offset"/><feComposite in="SourceGraphic" in2="offset" result="composite2"/></filter><path d="M47.316 1.2 2.839 18.3v80.365l20.115-.123c9.598-.005 16.127-.641 20.565-4.028a13.5 13.5 0 0 0 2.037-1.91c.302-.343.59-.743.832-1.058.34-.46.662-.997.928-1.424.307.54.624.981.94 1.441.278.39.557.717.82 1.045.317.367.672.708.964 1.002.354.336.749.64 1.072.904 4.438 3.387 10.967 4.023 20.565 4.028l20.115.123V18.3Z" style="fill:#d2c5b2;filter:url(#a)"/><path d="M67.322 21.684 46.112 71.44h-7.834v-2.637l19.184-38.866v-.573H40.456q-1.682 0-2.713.268-1.032.267-1.682.879-.65.573-1.07 1.528-.382.956-.84 2.981h-4.434l.994-15.86h36.61z" style="fill:#fff;filter:url(#b)"/><path d="M91.793 68.667c-26.62 0-53.528-1.747-88.954 12.203v17.795c28.935-18.227 54.283-26.657 88.954-29.998" style="fill:#fff;filter:url(#b)"/></svg>