<svg xmlns="http://www.w3.org/2000/svg" width="94.42" height="101.365" viewBox="0 0 94.42 101.365"><filter id="a" width="1.027" height="1.04" x="-.013" y="-.012" style="color-interpolation-filters:sRGB"><feFlood flood-color="#000" flood-opacity=".5" result="flood"/><feComposite in="flood" in2="SourceGraphic" operator="out" result="composite1"/><feGaussianBlur in="composite1" result="blur" stdDeviation=".5"/><feOffset dy="1.5" result="offset"/><feComposite in="offset" in2="SourceGraphic" operator="atop" result="composite2"/></filter><filter id="b" width="1.061" height="1.13" x="-.031" y="-.04" style="color-interpolation-filters:sRGB"><feFlood flood-color="#000" flood-opacity=".5" result="flood"/><feComposite in="flood" in2="SourceGraphic" operator="in" result="composite1"/><feGaussianBlur in="composite1" result="blur" stdDeviation=".5"/><feOffset dy="1.5" result="offset"/><feComposite in="SourceGraphic" in2="offset" result="composite2"/></filter><path d="M47.21 1.2 2.733 18.3v80.365l20.115-.123c9.598-.005 16.127-.641 20.565-4.028a13.5 13.5 0 0 0 2.037-1.91c.302-.343.59-.743.832-1.058.34-.46.662-.997.928-1.424.307.54.624.981.941 1.441.277.39.556.717.82 1.045.316.367.671.708.963 1.002.354.336.75.64 1.072.904 4.438 3.387 10.967 4.023 20.565 4.028l20.115.123V18.3Z" style="fill:#d2c5b2;filter:url(#a)"/><path d="m57.681 43.773.076.497q4.433 1.72 6.688 4.968 2.293 3.248 2.293 7.758t-2.407 7.91q-2.408 3.363-6.956 5.236-4.51 1.834-10.586 1.834-5.77 0-10.089-1.681-4.28-1.72-6.65-4.968-2.369-3.287-2.369-7.72 0-3.248 1.185-5.694 1.223-2.484 3.172-4.128 1.987-1.643 4.777-2.904l-.076-.497q-8.446-3.669-8.446-12.19 0-3.899 2.407-6.994 2.446-3.134 6.918-4.892 4.47-1.758 9.974-1.758 9.286 0 14.025 3.401 4.74 3.402 4.74 9.63 0 4.128-2.18 7.224-2.14 3.095-6.496 4.968M39.758 31.888q0 5.006 1.95 7.681 1.986 2.637 5.77 2.637 3.706 0 5.541-2.484 1.872-2.522 1.872-7.147 0-4.738-1.949-7.222-1.91-2.523-5.54-2.523-3.785 0-5.734 2.293-1.91 2.293-1.91 6.765M39.3 56.69q0 5.465 1.987 8.216 2.026 2.752 6 2.752 2.484 0 4.204-1.147 1.758-1.146 2.675-3.516.956-2.369.956-5.656 0-3.363-.956-5.808-.955-2.484-2.75-3.822-1.798-1.338-4.205-1.338-2.866 0-4.624 1.376-1.758 1.338-2.523 3.63-.764 2.294-.764 5.313" style="fill:#fff;filter:url(#b)"/><path d="M91.687 68.667c-26.619 0-53.528-1.747-88.954 12.203v17.795c28.935-18.227 54.283-26.657 88.954-29.998" style="fill:#fff;filter:url(#b)"/></svg>