<svg xmlns="http://www.w3.org/2000/svg" width="94.485" height="101.365" viewBox="0 0 94.485 101.365"><filter id="a" width="1.027" height="1.04" x="-.013" y="-.012" style="color-interpolation-filters:sRGB"><feFlood flood-color="#000" flood-opacity=".5" result="flood"/><feComposite in="flood" in2="SourceGraphic" operator="out" result="composite1"/><feGaussianBlur in="composite1" result="blur" stdDeviation=".5"/><feOffset dy="1.5" result="offset"/><feComposite in="offset" in2="SourceGraphic" operator="atop" result="composite2"/></filter><filter id="b" width="1.062" height="1.13" x="-.031" y="-.04" style="color-interpolation-filters:sRGB"><feFlood flood-color="#000" flood-opacity=".5" result="flood"/><feComposite in="flood" in2="SourceGraphic" operator="in" result="composite1"/><feGaussianBlur in="composite1" result="blur" stdDeviation=".5"/><feOffset dy="1.5" result="offset"/><feComposite in="SourceGraphic" in2="offset" result="composite2"/></filter><path d="M47.243 1.2 2.766 18.3v80.365l20.115-.123c9.598-.005 16.127-.641 20.565-4.028a13.5 13.5 0 0 0 2.037-1.91c.302-.343.59-.743.832-1.058.34-.46.662-.997.928-1.424.307.54.624.981.94 1.441.278.39.557.717.82 1.045.317.367.672.708.964 1.002.354.336.749.64 1.072.904 4.438 3.387 10.967 4.023 20.565 4.028l20.115.123V18.3Z" style="fill:#d2c5b2;filter:url(#a)"/><path d="M36.848 69.433v-2.751q2.484-.038 4.357-.459 2.216-.458 4.165-1.452 1.987-1.032 3.478-2.522 1.834-1.797 3.057-4.09 1.223-2.33 1.91-5.082.727-2.752 1.07-5.733l-.381-.153q-2.943 2.026-5.81 2.943-2.827.917-6.801.917-4.51 0-7.682-1.91-3.134-1.95-4.7-5.389-1.567-3.478-1.567-8.102 0-5.083 2.369-9.057 2.408-4.013 6.879-6.153 4.47-2.14 10.586-2.14 6.153 0 10.356 2.56 4.242 2.523 6.306 7.376 2.102 4.854 2.102 11.733 0 9.592-3.248 16.47-3.25 6.88-9.478 10.74-6.191 3.86-14.98 4.509zm9.478-23.617q1.414 0 2.637-.268 1.222-.267 2.292-.802 1.109-.574 2.026-1.338.955-.802 1.26-1.3.307-.496.498-1.451.23-.956.23-2.6 0-7.49-2.026-11.464-1.988-4.013-5.847-4.013-2.255 0-3.822.88-1.53.878-2.522 2.483-.956 1.605-1.376 3.86-.42 2.217-.42 4.892 0 11.12 7.07 11.12" style="fill:#fff;filter:url(#b)"/><path d="M91.72 68.667c-26.62 0-53.528-1.747-88.954 12.203v17.795C31.7 80.438 57.049 72.008 91.72 68.667" style="fill:#fff;filter:url(#b)"/></svg>