<svg xmlns="http://www.w3.org/2000/svg" width="88.953" height="97.346" viewBox="0 0 88.953 97.346"><path d="M44.477 0 0 17.1v62.57c35.426-13.95 62.335-12.203 88.953-12.203V17.1Zm44.476 67.467C54.495 70.787 29.243 79.145.527 97.14c25.562.031 37.94 2.19 43.95-8.22 6.054 10.487 18.534 8.216 44.476 8.216zM34.92 17.654h17.943l-.043.07-4.394 7.122V50.65c4.768-2.079 6.932-4.292 7.742-6.63.815-2.35.27-4.832-.387-7.436-.656-2.604-1.423-5.326-1.027-8.148.395-2.823 1.957-5.739 5.934-8.727l.066-.05.006.08c.524 6.514 1.71 11.82 4.097 14.917l4.903-6.93.064-.087.02.105c3.027 15.673-.106 26.342-6.168 32.817-5.15 5.5-12.409 7.972-19.787 7.918-7.378.052-14.635-2.418-19.784-7.918-6.062-6.476-9.194-17.144-6.167-32.817l.021-.105.062.088 4.905 6.93c2.385-3.098 3.573-8.405 4.097-14.919l.006-.08.065.051c3.978 2.988 5.54 5.904 5.935 8.727.395 2.822-.37 5.544-1.027 8.148s-1.205 5.088-.39 7.436c.81 2.338 2.977 4.552 7.745 6.63V24.846l-4.394-7.121z" style="fill:#f9fced"/></svg>