<svg xmlns="http://www.w3.org/2000/svg" width="388" height="328.414" viewBox="816 0 388 328.414"><path fill="none" d="m816.002 110.774 10.978-2.771 50.723 123.873 8.66.635 7.658-11.057-4.541-7.289c-23.619-37.916-27.021-86.312-9.061-128.889 13.213-31.324 41.21-59.772 72.268-73.431C972.31 3.216 987.86-.008 1009.831 0c22.827.008 40.806 3.977 60.413 13.334 27.563 13.155 53.565 39.119 66.477 66.372 20.229 42.701 18.146 93.452-5.438 132.573-2.998 4.975-5.566 9.211-5.566 9.211l8.396 11 9.192-.613 48.918-125.227 11.777 1.946v219.818l-167.85-59.65-20.588-164.135 8.719-2.531 47.033 53.885c3.297-.877 2.957-24.186-.504-34.605-5.486-16.511-17.121-30.051-32.49-37.808-10.137-5.118-16.773-6.623-28.991-6.573-9.312.038-12.228.466-18.99 2.787-19.918 6.836-34.073 20.804-41.312 40.761-2.34 6.453-2.661 8.836-2.68 19.834-.012 7.285.438 13.27 1.073 14.346l46.62-52.151 8.902 3.034-20.616 163.969L816 328.414Zm9.328 203.021 147.131-51.82 20.407-143.025-48.873 58.15s-2.814-6.617-5.096-13.158c-2.5-7.168-2.881-9.469-3.062-22.547-.024-16.25 1.53-21.131 7.815-33.843 12.867-26.023 41.254-42.569 70.14-40.886 27.272 1.589 50.813 16.964 62.94 41.963 7.229 14.902 9.398 31.487 5.629 47.529-1.655 8.02-6.008 20.122-7.266 20.122l-49.34-57.09 19.818 143.165 147.911 51.23s-.027-185.227-.045-186.633c-.357 1.104-43.275 115.698-43.275 115.698h-21.32l-16.469-20.865s2.201-3.086 5.845-8.09c15.512-23.457 21.94-44.49 21.975-72.314.024-21.686-3.203-36.734-12-55.937-11.357-24.794-35.299-49.41-60.359-62.06-28.939-14.608-66.357-17.431-97.505-7.356-49.823 16.112-84.908 59.399-90.661 111.851-3.215 29.308 4.577 60.861 21.46 86.041 1.625 2.424 1.675 2.502 5.271 7.881l-14.594 20.852h-21.094l-45.468-115.522Z"/><g><linearGradient id="a" x1="929.236" x2="1127.743" y1="290.369" y2="117.234" gradientUnits="userSpaceOnUse"><stop offset=".2" style="stop-color:#8b723c"/><stop offset=".5" style="stop-color:#ebd491"/><stop offset=".8" style="stop-color:#8b723c"/></linearGradient><path fill="url(#a)" stroke="#000" stroke-miterlimit="10" stroke-width="7" d="m825.358 127.222 45.355 115.426h21.094l14.596-20.852-5.115-7.646c-9.088-13.588-16.008-29.99-19.627-46.518-2.533-11.569-3.002-34.532-.961-46.959 8.574-52.161 46.354-93.541 97.172-106.432 60.82-15.429 124.04 14.903 150.518 72.215 8.543 18.492 12.316 37.675 11.576 58.839-.926 26.409-7.266 46.425-21.639 68.313l-5.95 8.174 16.469 20.865h21.32l43.12-115.333s.012 185.343 0 186.5c-.631-.178-147.711-51.461-147.711-51.461l-19.818-143.165 49.457 57.137c1.723-1.064 6.92-17.417 8.1-25.481 3.713-25.393-7.611-52.938-28.178-68.52-42.277-32.037-102.381-12.003-117.058 39.018-1.836 6.381-2.278 10.33-2.239 19.955.053 12.602 1.255 18.854 5.754 29.901l2.403 5.898 48.872-58.148-20.407 143.025-147.101 51.843z" style="fill:url(#a)"/></g></svg>