<svg xmlns="http://www.w3.org/2000/svg" xmlns:xlink="http://www.w3.org/1999/xlink" width="469" height="232"><defs><linearGradient id="a"><stop offset="0" style="stop-color:#487686;stop-opacity:1"/><stop offset=".2" style="stop-color:#d9eaf3;stop-opacity:1"/><stop offset=".4" style="stop-color:#d2f4ff;stop-opacity:1"/><stop offset=".6" style="stop-color:#d2f4ff;stop-opacity:1"/><stop offset=".8" style="stop-color:#d9eaf3;stop-opacity:1"/><stop offset="1" style="stop-color:#487686;stop-opacity:1"/></linearGradient><linearGradient xlink:href="#a" id="b" x1="-131" x2="131" y1="286" y2="548" gradientTransform="translate(234.5 -301)" gradientUnits="userSpaceOnUse"/></defs><path d="M116 0C51.935 0 0 51.935 0 116s51.935 116 116 116c51.5 0 118.5-67 118.5-67s67 67 118.5 67c64.065 0 116-51.935 116-116S417.065 0 353 0c-51.5 0-118.5 67-118.5 67S167.5 0 116 0" style="fill:#000;fill-opacity:1;stroke:none"/><path d="M353 12c-52.5 0-118.5 74-118.5 74l-61.156 61c-9.454 9.43-4.844 24.594-4.844 24.594-5.594 1.938-15.875 4.854-24.187 12.906s-28.407 17.888-47.5 21.094c-19.094 3.205-41.97-6-41.97-6C72.216 212.846 92.508 221 116 221c52.5 0 118.5-74 118.5-74l61.156-61c9.454-9.43 4.844-24.594 4.844-24.594 5.594-1.938 15.875-4.854 24.188-12.906s28.406-17.888 47.5-21.094c19.093-3.205 41.968 6 41.968 6C396.786 20.154 376.493 12 353 12m-247.219 4.813c-19.46.589-42.623 6.404-63.094 26.875-20.47 20.47-21.313 51.908-11.812 70s28.469 24.03 28.469 24.03S44.97 99.594 74.062 70.5c29.729-29.729 79.782-22.531 79.782-22.531s-14.397-32.176-48.063-31.156M409.656 95.28s14.374 38.126-14.719 67.219c-29.728 29.729-79.78 22.531-79.78 22.531s14.396 32.176 48.062 31.156c19.46-.589 42.623-6.404 63.094-26.875 20.47-20.47 21.313-51.908 11.812-70s-28.469-24.03-28.469-24.03" style="fill:#487686;fill-opacity:1;stroke:none"/><path d="M172.906 31.875c1.282 6.779-.277 18.993-10.875 23.156-5.268 2.07-10.567-.354-18.656.594 5.139 3.52 14.336 8.511 20.125 26.375-18.63-14.441-37.262-27.945-79.906-9.687 25.189.148 48.162 26.637 24 57.75-24.162 31.112-62.807 12.33-76.188-1.75S18.25 92.125 18.25 92.125s-11.279 25.892-2.875 51.531c8.14 24.838 34.77 49.449 66 50.063 1.007.02 2.015 0 3.031-.031 32.531-.99 45.284-15.602 54.813-22.938s15.844-7.406 15.844-7.406c-.965-6.85.444-13.682 3.125-20.531-7.992 4.184-13.881 1.037-20.532-5.157s-2.356-19.78 7.531-21.531 14.89-1.416 19.875 17.938l15.188-7.813c-.977.342-4.878 1.218-4.562-6.25.36-8.534 7.654-23.018 11.28-22.969 3.628.05 6.52 8.999 5.407 14.813 4.356-8.173 9.195-16.075 17.156-22.188l9.875-13.687c2.638-3.657 2.968-5.862.125-8.469-2.844-2.61-6.048-5.41-9.531-8.375-2.805 4.399-7.897 11.881-9.312 10.656-1.68-1.452 3.789-7.676 3.718-15.312-3.68-3.007-7.6-6.09-11.719-9.157-1.34 5.073-3.96 13.823-5.656 12.594-1.857-1.345.595-9.664-.062-16.75a252 252 0 0 0-14.063-9.281m214.719 6.406c-1.007-.02-2.015 0-3.031.031-32.531.99-45.284 15.602-54.813 22.938s-15.844 7.406-15.844 7.406c.965 6.85-.444 13.682-3.125 20.531 7.992-4.184 13.881-1.037 20.532 5.157s2.356 19.78-7.531 21.531-14.89 1.416-19.875-17.938l-15.188 7.813c.977-.342 4.878-1.218 4.563 6.25-.36 8.534-7.655 23.018-11.282 22.969-3.627-.05-6.52-8.999-5.406-14.813-4.356 8.173-9.195 16.075-17.156 22.188l-9.875 13.687c-2.638 3.657-2.968 5.862-.125 8.469 2.844 2.61 6.048 5.41 9.531 8.375 2.805-4.399 7.897-11.881 9.313-10.656 1.678 1.452-3.79 7.676-3.72 15.312 3.68 3.007 7.601 6.09 11.72 9.156 1.34-5.072 3.96-13.822 5.656-12.593 1.857 1.345-.595 9.664.062 16.75a252 252 0 0 0 14.063 9.281c-1.282-6.779.277-18.993 10.875-23.156 5.268-2.07 10.567.354 18.656-.594-5.139-3.52-14.336-8.511-20.125-26.375 18.63 14.441 37.262 27.945 79.906 9.688-25.189-.149-48.162-26.638-24-57.75 24.162-31.113 62.807-12.33 76.188 1.75s13.156 36.187 13.156 36.187 11.279-25.892 2.875-51.531c-8.14-24.838-34.77-49.449-66-50.063" style="fill:url(#b);fill-opacity:1;stroke:none"/></svg>