<?xml version="1.0" encoding="UTF-8" standalone="no"?>
<svg
   id="Layer_2"
   data-name="Layer 2"
   viewBox="0 0 942.28003 491.10001"
   version="1.1"
   width="942.28003"
   height="491.10001"
   xmlns="http://www.w3.org/2000/svg"
   xmlns:svg="http://www.w3.org/2000/svg">
  <defs
     id="defs1">
    <style
       id="style1">
      .cls-1, .cls-2 {
        stroke-width: 0px;
      }

      .cls-2 {
        fill: #fff;
      }
    </style>
  </defs>
  <g
     id="Layer_1-2"
     data-name="Layer 1"
     transform="translate(-0.02)">
    <g
       id="g2">
      <path
         class="cls-1"
         d="m 767.01,478.09 c -21.72,0 -44.65,-1.24 -68.14,-3.68 -23.56,-2.45 -46.01,-6.08 -66.75,-10.78 L 622,461.33 V 341.14 h 66.61 l 2.17,10.33 c 4.69,22.31 12.33,38.88 22.71,49.27 9.67,9.68 24.72,14.58 44.71,14.58 10.55,0 20.04,-1.77 28.23,-5.25 7.46,-3.17 13.3,-8.18 17.88,-15.32 4.58,-7.15 6.9,-16.59 6.9,-28.04 0,-11.45 -1.96,-20.27 -5.83,-27.92 -3.96,-7.83 -10.62,-15.54 -19.8,-22.92 -9.93,-7.98 -24.18,-16.69 -42.35,-25.88 -16.7,-8.35 -32.08,-17.19 -45.66,-26.25 -14.08,-9.38 -26.3,-19.91 -36.33,-31.3 -1.75,-2.01 -3.41,-4 -4.98,-5.98 -14.25,22.59 -35.02,39.89 -61.74,51.44 -25.98,11.23 -58.58,16.92 -96.88,16.92 -14.79,0 -27.87,-0.21 -39.09,-0.62 v 86.84 c 0,16.11 0.77,23.54 1.41,26.94 0.9,4.77 2.21,7.3 3.15,8.59 1.24,1.71 3.27,3.26 6.02,4.61 2.44,1.2 7.59,3.01 18.24,4.82 l 10.82,1.84 v 44.7 H 13 v -36.2 l 1.09,-2.49 c 9,-20.57 22.11,-43.16 38.99,-67.14 16.6,-23.6 37.05,-49.71 60.78,-77.6 21.96,-25.82 38.87,-47.29 50.25,-63.82 11.05,-16.04 19.39,-31.31 24.79,-45.38 5.2,-13.54 7.83,-27.74 7.83,-42.21 0,-19.68 -4.18,-34.99 -12.44,-45.52 -7.71,-9.84 -17.68,-14.42 -31.36,-14.42 -12.89,0 -23.23,4.38 -31.6,13.38 -9.14,9.84 -16.04,26.34 -20.51,49.06 l -2.06,10.49 H 19.21 V 55.68 L 27.36,52.4 C 52.91,42.14 73.3,34.83 87.95,30.69 c 14.74,-4.17 29.55,-7.36 43.99,-9.5 14.53,-2.15 30.47,-3.25 47.37,-3.25 32.03,0 58.8,4.47 79.57,13.29 15.15,6.43 27.55,14.67 37.06,24.59 V 17.95 h 203.33 c 57.68,0 101.93,10.33 131.53,30.71 8.67,6.03 16.22,13.02 22.44,20.7 14.07,-18.05 33.67,-32 58.34,-41.5 C 737.17,18 767.03,13 800.33,13 c 19.07,0 37.55,1.03 54.95,3.07 17.36,2.04 37.4,5.66 59.56,10.77 l 10.08,2.33 v 114.49 h -66.3 l -2.4,-9.96 c -3.63,-15.08 -8.2,-27.03 -13.58,-35.52 -4.94,-7.78 -10.8,-13.3 -17.94,-16.87 -7.36,-3.68 -17.14,-5.54 -29.08,-5.54 -10.06,0 -19.07,1.74 -26.78,5.17 -7.17,3.19 -12.65,7.76 -16.74,13.97 -4.06,6.17 -6.03,13.65 -6.03,22.87 0,9.96 1.87,18.54 5.56,25.5 3.81,7.2 10.58,14.54 20.13,21.84 10.45,7.98 26.08,17.35 46.46,27.84 26.62,13.85 47.94,27.7 63.42,41.21 16.09,14.04 28.18,29.67 35.94,46.46 7.78,16.84 11.73,36.5 11.73,58.41 0,28.14 -6.7,53.05 -19.92,74.03 -13.28,21.09 -32.76,37.46 -57.89,48.64 -24.41,10.86 -52.83,16.37 -84.49,16.37 z m -441,-60.52 c 0.42,-0.51 0.79,-1.06 1.11,-1.65 1.48,-2.76 2.47,-6.63 2.95,-11.49 0.61,-6.14 0.92,-14.11 0.92,-23.68 v -40.68 z m -99.52,-47.04 c 15.11,0 22.7,-1.31 26.41,-2.41 4.02,-1.19 7.02,-3.1 9.16,-5.82 1.84,-2.34 4.57,-7.2 7.08,-17.06 l 2.5,-9.78 H 331 V 110.08 c 0,-9.45 -0.26,-17.44 -0.78,-23.75 -0.49,-6.02 -1.74,-9.38 -2.7,-11.14 -1.1,-2.01 -2.87,-3.68 -5.41,-5.09 -2.53,-1.41 -7.42,-3.57 -16.34,-5.82 l -3.35,-0.84 c 1.5,2 2.91,4.06 4.21,6.18 9.82,15.98 14.81,34.72 14.81,55.69 0,18.06 -3.44,35.15 -10.23,50.8 -6.57,15.14 -17.87,32.39 -33.59,51.25 -15.26,18.31 -41.12,44.67 -76.88,78.35 -15.59,15.19 -30.36,30.73 -43.9,46.2 -6.01,6.86 -11.34,13.08 -15.98,18.63 h 85.65 z M 473.72,232.11 c 19.84,0 35.53,-2.61 46.62,-7.75 10.15,-4.7 17.48,-11.98 22.4,-22.24 5.35,-11.15 8.06,-26.9 8.06,-46.82 0,-19.92 -2.71,-35.28 -8.04,-46.31 -4.9,-10.14 -11.78,-17.11 -21.02,-21.29 -10.26,-4.65 -23.99,-7 -40.83,-7 -8.56,0 -16.04,0.07 -22.38,0.2 v 151.21 h 15.17 z"
         id="path1" />
      <path
         class="cls-2"
         d="m 800.33,26 c 18.65,0 36.46,1 53.43,2.99 16.97,1.99 36.36,5.5 58.15,10.53 v 91.15 h -43.06 c -3.98,-16.55 -9.06,-29.7 -15.25,-39.44 -6.18,-9.74 -13.88,-16.92 -23.1,-21.53 -9.22,-4.61 -20.85,-6.92 -34.89,-6.92 -11.94,0 -22.63,2.1 -32.06,6.29 -9.43,4.19 -16.87,10.43 -22.32,18.7 -5.45,8.28 -8.17,18.28 -8.17,30.02 0,11.74 2.36,22.68 7.07,31.59 4.71,8.91 12.62,17.6 23.73,26.09 11.11,8.49 27.24,18.18 48.4,29.07 25.77,13.41 46.05,26.56 60.82,39.44 14.77,12.89 25.67,26.93 32.69,42.12 7.02,15.19 10.53,32.84 10.53,52.96 0,25.77 -5.97,48.14 -17.91,67.11 -11.94,18.96 -29.34,33.53 -52.18,43.69 -22.84,10.16 -49.24,15.24 -79.2,15.24 -21.37,0 -43.64,-1.2 -66.79,-3.61 -23.15,-2.41 -44.89,-5.92 -65.22,-10.53 v -96.81 h 43.06 c 5.24,24.94 13.99,43.53 26.24,55.79 12.26,12.26 30.22,18.39 53.9,18.39 12.36,0 23.47,-2.1 33.32,-6.29 9.85,-4.19 17.76,-10.95 23.73,-20.27 5.97,-9.32 8.96,-21.01 8.96,-35.05 0,-12.99 -2.41,-24.25 -7.23,-33.79 -4.82,-9.53 -12.57,-18.6 -23.26,-27.19 -10.69,-8.59 -25.56,-17.71 -44.63,-27.34 -16.34,-8.17 -31.12,-16.66 -44.32,-25.46 -13.2,-8.8 -24.46,-18.49 -33.79,-29.07 -6.27,-7.18 -11.94,-14.97 -16.29,-23.47 -6,13.87 -2.79,7.6 -9.33,18.96 -12.89,20.51 -31.56,36.06 -56.02,46.63 -24.46,10.57 -55.03,15.86 -91.72,15.86 -21.18,0 -38.55,-0.42 -52.09,-1.26 v 100.48 c 0,13.82 0.55,23.6 1.64,29.36 1.09,5.76 2.89,10.36 5.41,13.82 2.51,3.45 6.11,6.33 10.81,8.64 4.69,2.3 11.96,4.29 21.78,5.96 v 20.72 H 26 c 0,0 0,-20.48 0,-20.48 8.69,-19.86 21.26,-41.49 37.71,-64.87 16.45,-23.38 36.47,-48.93 60.05,-76.66 22.35,-26.28 39.36,-47.9 51.06,-64.87 11.69,-16.97 20.43,-33 26.22,-48.11 5.79,-15.1 8.69,-30.72 8.69,-46.86 0,-22.76 -5.07,-40.61 -15.21,-53.54 -10.14,-12.93 -24,-19.4 -41.59,-19.4 -16.55,0 -30.26,5.84 -41.12,17.53 C 100.95,94 93.03,112.47 88.07,137.71 H 32.2 V 64.46 c 25.24,-10.14 45,-17.23 59.28,-21.26 14.28,-4.03 28.4,-7.09 42.36,-9.16 13.97,-2.07 29.12,-3.1 45.47,-3.1 30.42,0 55.24,4.09 74.49,12.26 19.24,8.17 33.16,19.24 41.75,33.21 8.59,13.97 12.88,30.26 12.88,48.88 0,16.35 -3.05,31.55 -9.16,45.62 -6.1,14.07 -16.66,30.1 -31.66,48.11 -15,18 -40.3,43.76 -75.89,77.28 -15.93,15.52 -30.83,31.19 -44.69,47.02 -13.86,15.83 -24.1,28.19 -30.73,37.09 v 3.1 h 110.18 c 13.45,0 23.48,-0.98 30.1,-2.95 6.62,-1.96 11.85,-5.38 15.67,-10.24 3.83,-4.86 6.98,-12.16 9.47,-21.88 h 35.69 l -5.76,89.63 c 5.69,-1.4 11.14,-3.54 16.44,-5.99 4.7,-2.41 8.19,-5.76 10.48,-10.05 2.29,-4.29 3.77,-9.73 4.42,-16.33 0.66,-6.59 0.98,-14.92 0.98,-24.96 V 110.08 c 0,-9.84 -0.27,-18.11 -0.82,-24.81 -0.55,-6.7 -1.97,-12.14 -4.26,-16.33 -2.29,-4.19 -5.79,-7.59 -10.48,-10.21 -4.69,-2.62 -11.19,-4.97 -19.49,-7.07 V 30.94 h 190.33 c 55.25,0 96.64,9.47 124.16,28.42 12.59,8.76 23.28,20.27 29.86,34.21 1.99,-4.47 4.75,-8.54 7.49,-12.57 12.78,-18.02 31.27,-31.69 55.48,-41.02 24.2,-9.32 52.23,-13.99 84.08,-13.99 m -354.78,219.1 h 28.17 c 21.84,0 39.2,-2.98 52.09,-8.95 12.89,-5.97 22.44,-15.44 28.66,-28.42 6.22,-12.98 9.34,-30.46 9.34,-52.44 0,-21.98 -3.11,-39.09 -9.34,-51.97 -6.22,-12.87 -15.34,-22.03 -27.35,-27.48 -12.01,-5.44 -27.41,-8.16 -46.19,-8.16 -15.29,0 -27.08,0.21 -35.38,0.63 V 245.08 M 26,459.56 v 0 M 800.33,0 c -34.91,0 -66.34,5.29 -93.42,15.73 -21.54,8.3 -39.6,19.79 -53.92,34.26 -4.51,-4.29 -9.43,-8.29 -14.71,-11.96 l -0.05,-0.04 -0.05,-0.04 C 621.77,26.65 601.37,18.16 577.56,12.71 555.06,7.56 528.73,4.95 499.28,4.95 H 282.95 V 28.99 C 277.12,25.41 270.79,22.18 263.98,19.28 241.28,9.64 213.59,4.95 179.33,4.95 c -17.54,0 -34.12,1.14 -49.28,3.39 -15,2.22 -30.35,5.54 -45.62,9.85 -15.31,4.33 -35.56,11.57 -61.9,22.15 L 6.22,46.89 v 116.82 h 103.25 l 4.13,-20.98 c 4.98,-25.29 12.14,-37.19 17.28,-42.72 5.93,-6.39 12.74,-9.23 22.07,-9.23 9.33,0 15.94,2.82 21.13,9.44 6.41,8.18 9.67,20.8 9.67,37.5 0,12.87 -2.34,25.5 -6.97,37.55 -5.03,13.12 -12.89,27.47 -23.36,42.67 -11.14,16.17 -27.78,37.29 -49.45,62.78 -23.99,28.2 -44.69,54.62 -61.51,78.54 C 25.09,383.95 11.54,407.3 2.2,428.67 l -2.18,4.98 v 51.92 H 485.2 c 0,0 26,0 26,0 V 416.9 l -21.64,-3.68 c -10.5,-1.79 -14.09,-3.38 -14.7,-3.68 -0.62,-0.3 -1.01,-0.55 -1.24,-0.71 -0.2,-0.48 -0.55,-1.5 -0.88,-3.25 -0.36,-1.87 -1.18,-8.01 -1.18,-24.51 V 307.6 c 8,0.16 16.71,0.25 26.09,0.25 40.09,0 74.42,-6.05 102.04,-17.99 23.47,-10.15 42.78,-24.42 57.59,-42.56 9.56,9.84 20.66,18.99 33.09,27.28 14.01,9.34 29.85,18.45 47.05,27.05 17.34,8.77 30.81,16.97 40.03,24.38 7.73,6.21 13.23,12.49 16.34,18.65 2.94,5.82 4.43,13.24 4.43,22.06 0,8.82 -1.63,16 -4.85,21.03 -3.16,4.93 -6.97,8.22 -12.01,10.37 -6.57,2.8 -14.35,4.21 -23.14,4.21 -16.42,0 -28.37,-3.62 -35.52,-10.77 -8.57,-8.57 -15.03,-22.96 -19.19,-42.75 l -4.34,-20.65 H 609 v 143.57 l 20.25,4.59 c 21.24,4.82 44.21,8.53 68.28,11.03 23.94,2.49 47.31,3.75 69.48,3.75 33.49,0 63.69,-5.88 89.77,-17.49 27.52,-12.25 48.92,-30.28 63.61,-53.59 14.54,-23.09 21.91,-50.33 21.91,-80.96 0,-23.82 -4.35,-45.3 -12.93,-63.87 -8.53,-18.46 -21.72,-35.56 -39.2,-50.81 C 873.68,210 852.12,195.96 824.26,181.46 l -0.05,-0.03 -0.05,-0.03 c -19.7,-10.14 -34.68,-19.1 -44.52,-26.62 -7.94,-6.06 -13.65,-12.15 -16.54,-17.59 -2.69,-5.08 -4.05,-11.61 -4.05,-19.42 0,-6.6 1.27,-11.74 3.89,-15.72 2.72,-4.13 6.26,-7.06 11.16,-9.24 6.04,-2.68 13.27,-4.05 21.5,-4.05 9.76,0 17.81,1.44 23.26,4.17 4.96,2.48 9.14,6.47 12.77,12.2 4.62,7.28 8.63,17.91 11.92,31.6 l 4.79,19.92 h 89.55 V 18.83 L 917.74,14.18 C 895.12,8.96 874.61,5.25 856.78,3.16 838.88,1.06 819.89,0 800.32,0 V 0 Z M 471.55,93.72 c 2.96,-0.02 6.09,-0.03 9.38,-0.03 14.97,0 26.9,1.97 35.46,5.85 6.44,2.92 11.1,7.72 14.68,15.11 3.08,6.36 6.74,18.58 6.74,40.65 0,22.07 -3.69,34.74 -6.78,41.19 -3.61,7.53 -8.74,12.64 -16.15,16.07 -6.44,2.98 -18.82,6.54 -41.16,6.54 h -2.17 z M 209.72,315.09 c 36.6,-34.48 62.08,-60.46 77.87,-79.41 13.22,-15.86 23.24,-30.29 30.4,-43.78 v 130.56 h -56.45 l -5,19.57 c -2.3,9 -4.46,11.93 -4.7,12.23 -0.15,0.2 -0.63,0.8 -2.64,1.39 -1.9,0.56 -7.91,1.88 -22.71,1.88 h -57.31 c 12.59,-14.22 26.21,-28.48 40.53,-42.44 v 0 z"
         id="path2" />
    </g>
  </g>
</svg>
