<?xml version="1.0" encoding="utf-8"?>
<!-- Generator: Adobe Illustrator 28.0.0, SVG Export Plug-In . SVG Version: 6.00 Build 0)  -->
<svg version="1.1" id="Layer_2_00000063606532263272293110000008870020078833697419_"
	 xmlns="http://www.w3.org/2000/svg" xmlns:xlink="http://www.w3.org/1999/xlink" x="0px" y="0px" viewBox="0 0 942.3 491.1"
	 style="enable-background:new 0 0 942.3 491.1;" xml:space="preserve">
<style type="text/css">
	.st0{fill:url(#SVGID_1_);}
</style>
<g id="Layer_1-2">
	<g>
		
			<linearGradient id="SVGID_1_" gradientUnits="userSpaceOnUse" x1="146.5" y1="565.61" x2="772.3892" y2="-60.2792" gradientTransform="matrix(1 0 0 -1 0 494)">
			<stop  offset="0" style="stop-color:#8D742F"/>
			<stop  offset="0.5" style="stop-color:#D7BD74"/>
			<stop  offset="1" style="stop-color:#8D742F"/>
		</linearGradient>
		<path class="st0" d="M767,478.1c-21.7,0-44.7-1.2-68.1-3.7c-23.6-2.5-46-6.1-66.8-10.8l-10.1-2.3V341.1h66.6l2.2,10.3
			c4.7,22.3,12.3,38.9,22.7,49.3c9.7,9.7,24.7,14.6,44.7,14.6c10.5,0,20-1.8,28.2-5.2c7.5-3.2,13.3-8.2,17.9-15.3
			c4.6-7.1,6.9-16.6,6.9-28s-2-20.3-5.8-27.9c-4-7.8-10.6-15.5-19.8-22.9c-9.9-8-24.2-16.7-42.3-25.9c-16.7-8.4-32.1-17.2-45.7-26.2
			c-14.1-9.4-26.3-19.9-36.3-31.3c-1.8-2-3.4-4-5-6c-14.2,22.6-35,39.9-61.7,51.4c-26,11.2-58.6,16.9-96.9,16.9
			c-14.8,0-27.9-0.2-39.1-0.6V381c0,16.1,0.8,23.5,1.4,26.9c0.9,4.8,2.2,7.3,3.1,8.6c1.2,1.7,3.3,3.3,6,4.6c2.4,1.2,7.6,3,18.2,4.8
			l10.8,1.8v44.7H13v-36.2l1.1-2.5c9-20.6,22.1-43.2,39-67.1c16.6-23.6,37.1-49.7,60.8-77.6c21.9-25.8,38.9-47.3,50.2-63.8
			c11.1-16,19.4-31.3,24.8-45.4c5.2-13.5,7.8-27.7,7.8-42.2c0-19.7-4.2-35-12.4-45.5c-7.7-9.8-17.7-14.4-31.4-14.4
			c-12.9,0-23.2,4.4-31.6,13.4c-9.1,9.8-16,26.3-20.5,49.1l-2.1,10.5H19.2v-95l8.1-3.3c25.5-10.3,45.9-17.6,60.6-21.7
			c14.7-4.2,29.5-7.4,44-9.5c14.5-2.1,30.5-3.2,47.4-3.2c32,0,58.8,4.5,79.6,13.3c15.1,6.4,27.5,14.7,37.1,24.6V18h203.3
			c57.7,0,101.9,10.3,131.5,30.7c8.7,6,16.2,13,22.4,20.7c14.1-18,33.7-32,58.3-41.5C737.2,18,767,13,800.3,13c19.1,0,37.5,1,55,3.1
			c17.4,2,37.4,5.7,59.6,10.8l10.1,2.3v114.5h-66.3l-2.4-10c-3.6-15.1-8.2-27-13.6-35.5c-4.9-7.8-10.8-13.3-17.9-16.9
			c-7.3-3.7-17.1-5.5-29.1-5.5c-10.1,0-19.1,1.7-26.8,5.2c-7.2,3.2-12.7,7.8-16.7,14c-4.1,6.2-6,13.7-6,22.9c0,10,1.9,18.5,5.6,25.5
			c3.8,7.2,10.6,14.5,20.1,21.8c10.5,8,26.1,17.4,46.5,27.8c26.6,13.9,47.9,27.7,63.4,41.2c16.1,14,28.2,29.7,35.9,46.5
			c7.8,16.8,11.7,36.5,11.7,58.4c0,28.1-6.7,53-19.9,74c-13.3,21.1-32.8,37.5-57.9,48.6C827.1,472.6,798.7,478.1,767,478.1
			L767,478.1z M326,417.6c0.4-0.5,0.8-1.1,1.1-1.6c1.5-2.8,2.5-6.6,3-11.5c0.6-6.1,0.9-14.1,0.9-23.7v-40.7L326,417.6L326,417.6z
			 M226.5,370.5c15.1,0,22.7-1.3,26.4-2.4c4-1.2,7-3.1,9.2-5.8c1.8-2.3,4.6-7.2,7.1-17.1l2.5-9.8H331V110.1c0-9.4-0.3-17.4-0.8-23.8
			c-0.5-6-1.7-9.4-2.7-11.1c-1.1-2-2.9-3.7-5.4-5.1c-2.5-1.4-7.4-3.6-16.3-5.8l-3.4-0.8c1.5,2,2.9,4.1,4.2,6.2
			c9.8,16,14.8,34.7,14.8,55.7c0,18.1-3.4,35.1-10.2,50.8c-6.6,15.1-17.9,32.4-33.6,51.2c-15.2,18.3-41.1,44.7-76.9,78.3
			c-15.6,15.2-30.4,30.7-43.9,46.2c-6,6.9-11.4,13.1-16,18.6H226.5L226.5,370.5z M473.7,232.1c19.8,0,35.5-2.6,46.6-7.8
			c10.2-4.7,17.5-12,22.4-22.2c5.3-11.1,8.1-26.9,8.1-46.8s-2.7-35.3-8-46.3c-4.9-10.1-11.8-17.1-21-21.3c-10.3-4.7-24-7-40.8-7
			c-8.6,0-16,0.1-22.4,0.2v151.2L473.7,232.1L473.7,232.1z"/>
		<path d="M800.3,26c18.7,0,36.5,1,53.4,3s36.4,5.5,58.2,10.5v91.1h-43.1c-4-16.6-9.1-29.7-15.2-39.4c-6.2-9.7-13.9-16.9-23.1-21.5
			s-20.8-6.9-34.9-6.9c-11.9,0-22.6,2.1-32.1,6.3s-16.9,10.4-22.3,18.7c-5.5,8.3-8.2,18.3-8.2,30s2.4,22.7,7.1,31.6
			s12.6,17.6,23.7,26.1c11.1,8.5,27.2,18.2,48.4,29.1c25.8,13.4,46,26.6,60.8,39.4c14.8,12.9,25.7,26.9,32.7,42.1s10.5,32.8,10.5,53
			c0,25.8-6,48.1-17.9,67.1c-11.9,19-29.3,33.5-52.2,43.7C823.4,460,797,465.1,767,465.1c-21.4,0-43.6-1.2-66.8-3.6
			c-23.2-2.4-44.9-5.9-65.2-10.5v-96.8h43.1c5.2,24.9,14,43.5,26.2,55.8s30.2,18.4,53.9,18.4c12.4,0,23.5-2.1,33.3-6.3
			c9.8-4.2,17.8-11,23.7-20.3c6-9.3,9-21,9-35c0-13-2.4-24.2-7.2-33.8c-4.8-9.5-12.6-18.6-23.3-27.2s-25.6-17.7-44.6-27.3
			c-16.3-8.2-31.1-16.7-44.3-25.5c-13.2-8.8-24.5-18.5-33.8-29.1c-6.3-7.2-11.9-15-16.3-23.5c-6,13.9-2.8,7.6-9.3,19
			c-12.9,20.5-31.6,36.1-56,46.6s-55,15.9-91.7,15.9c-21.2,0-38.5-0.4-52.1-1.3v100.5c0,13.8,0.5,23.6,1.6,29.4
			c1.1,5.8,2.9,10.4,5.4,13.8c2.5,3.5,6.1,6.3,10.8,8.6c4.7,2.3,12,4.3,21.8,6v20.7H26v-20.5c8.7-19.9,21.3-41.5,37.7-64.9
			s36.5-48.9,60-76.7c22.4-26.3,39.4-47.9,51.1-64.9c11.7-17,20.4-33,26.2-48.1c5.8-15.1,8.7-30.7,8.7-46.9
			c0-22.8-5.1-40.6-15.2-53.5s-24-19.4-41.6-19.4c-16.6,0-30.3,5.8-41.1,17.5S93,112.5,88.1,137.7H32.2V64.5
			c25.2-10.1,45-17.2,59.3-21.3s28.4-7.1,42.4-9.2c14-2.1,29.1-3.1,45.5-3.1c30.4,0,55.2,4.1,74.5,12.3
			c19.2,8.2,33.2,19.2,41.8,33.2s12.9,30.3,12.9,48.9c0,16.4-3,31.6-9.2,45.6c-6.1,14.1-16.7,30.1-31.7,48.1
			c-15,18-40.3,43.8-75.9,77.3c-15.9,15.5-30.8,31.2-44.7,47s-24.1,28.2-30.7,37.1v3.1h110.2c13.4,0,23.5-1,30.1-3
			c6.6-2,11.9-5.4,15.7-10.2c3.8-4.9,7-12.2,9.5-21.9h35.7l-5.8,89.6c5.7-1.4,11.1-3.5,16.4-6c4.7-2.4,8.2-5.8,10.5-10
			c2.3-4.3,3.8-9.7,4.4-16.3c0.7-6.6,1-14.9,1-25V110.1c0-9.8-0.3-18.1-0.8-24.8c-0.5-6.7-2-12.1-4.3-16.3s-5.8-7.6-10.5-10.2
			s-11.2-5-19.5-7.1V30.9h190.3c55.2,0,96.6,9.5,124.2,28.4c12.6,8.8,23.3,20.3,29.9,34.2c2-4.5,4.8-8.5,7.5-12.6
			c12.8-18,31.3-31.7,55.5-41C740.4,30.7,768.5,26,800.3,26 M445.5,245.1h28.2c21.8,0,39.2-3,52.1-8.9s22.4-15.4,28.7-28.4
			s9.3-30.5,9.3-52.4s-3.1-39.1-9.3-52c-6.2-12.9-15.3-22-27.3-27.5c-12-5.4-27.4-8.2-46.2-8.2c-15.3,0-27.1,0.2-35.4,0.6
			L445.5,245.1 M26,459.6L26,459.6 M800.3,0c-34.9,0-66.3,5.3-93.4,15.7C685.4,24,667.3,35.5,653,50c-4.5-4.3-9.4-8.3-14.7-12l0,0
			l0,0c-16.4-11.3-36.8-19.8-60.6-25.2c-22.5-5.2-48.8-7.8-78.3-7.8H282.9v24c-5.8-3.6-12.2-6.8-19-9.7
			c-22.7-9.6-50.4-14.3-84.6-14.3c-17.5,0-34.1,1.1-49.3,3.4c-15,2.2-30.3,5.5-45.6,9.8c-15.3,4.3-35.6,11.6-61.9,22.1L6.2,46.9
			v116.8h103.2l4.1-21c5-25.3,12.1-37.2,17.3-42.7c5.9-6.4,12.7-9.2,22.1-9.2s15.9,2.8,21.1,9.4c6.4,8.2,9.7,20.8,9.7,37.5
			c0,12.9-2.3,25.5-7,37.6c-5,13.1-12.9,27.5-23.4,42.7c-11.1,16.2-27.8,37.3-49.4,62.8c-24,28.2-44.7,54.6-61.5,78.5
			c-17.4,24.7-30.9,48-40.3,69.4l-2.2,5v51.9h485.2h26v-68.7l-21.6-3.7c-10.5-1.8-14.1-3.4-14.7-3.7c-0.6-0.3-1-0.5-1.2-0.7
			c-0.2-0.5-0.5-1.5-0.9-3.2c-0.4-1.9-1.2-8-1.2-24.5v-73.5c8,0.2,16.7,0.2,26.1,0.2c40.1,0,74.4-6,102-18
			c23.5-10.1,42.8-24.4,57.6-42.6c9.6,9.8,20.7,19,33.1,27.3c14,9.4,29.9,18.5,47.1,27.1c17.3,8.8,30.8,17,40,24.4
			c7.7,6.2,13.2,12.5,16.3,18.6c2.9,5.8,4.4,13.2,4.4,22.1s-1.6,16-4.8,21c-3.2,4.9-7,8.2-12,10.4c-6.6,2.8-14.3,4.2-23.1,4.2
			c-16.4,0-28.4-3.6-35.5-10.8c-8.6-8.6-15-23-19.2-42.8l-4.3-20.6H609v143.6l20.2,4.6c21.2,4.8,44.2,8.5,68.3,11
			c23.9,2.5,47.3,3.8,69.5,3.8c33.5,0,63.7-5.9,89.8-17.5c27.5-12.2,48.9-30.3,63.6-53.6c14.5-23.1,21.9-50.3,21.9-81
			c0-23.8-4.3-45.3-12.9-63.9c-8.5-18.5-21.7-35.6-39.2-50.8c-16.5-14.4-38-28.4-65.9-42.9l0,0l0,0c-19.7-10.1-34.7-19.1-44.5-26.6
			c-7.9-6.1-13.7-12.1-16.5-17.6c-2.7-5.1-4-11.6-4-19.4c0-6.6,1.3-11.7,3.9-15.7c2.7-4.1,6.3-7.1,11.2-9.2c6-2.7,13.3-4.1,21.5-4.1
			c9.8,0,17.8,1.4,23.3,4.2c5,2.5,9.1,6.5,12.8,12.2c4.6,7.3,8.6,17.9,11.9,31.6l4.8,19.9h89.5V18.8l-20.2-4.6
			c-22.6-5.2-43.1-8.9-61-11C838.9,1.1,819.9,0,800.3,0L800.3,0L800.3,0z M471.6,93.7c3,0,6.1,0,9.4,0c15,0,26.9,2,35.5,5.8
			c6.4,2.9,11.1,7.7,14.7,15.1c3.1,6.4,6.7,18.6,6.7,40.7s-3.7,34.8-6.8,41.2c-3.6,7.5-8.7,12.6-16.2,16.1c-6.4,3-18.8,6.5-41.2,6.5
			h-2.2L471.6,93.7L471.6,93.7L471.6,93.7z M209.7,315.1c36.6-34.5,62.1-60.5,77.9-79.4c13.2-15.9,23.2-30.3,30.4-43.8v130.6h-56.5
			l-5,19.6c-2.3,9-4.5,11.9-4.7,12.2c-0.1,0.2-0.6,0.8-2.6,1.4c-1.9,0.6-7.9,1.9-22.7,1.9h-57.3
			C181.8,343.3,195.4,329.1,209.7,315.1L209.7,315.1L209.7,315.1z"/>
	</g>
</g>
</svg>
