<?xml version="1.0" encoding="UTF-8" standalone="no"?>
<!-- Generator: Adobe Illustrator 28.0.0, SVG Export Plug-In . SVG Version: 6.00 Build 0)  -->

<svg
   version="1.1"
   id="Layer_2_00000118386408681434284040000012633696514821955005_"
   x="0px"
   y="0px"
   viewBox="0 0 942.40004 490.89999"
   xml:space="preserve"
   width="942.40002"
   height="490.89999"
   xmlns="http://www.w3.org/2000/svg"
   xmlns:svg="http://www.w3.org/2000/svg"><defs
   id="defs4" />
<style
   type="text/css"
   id="style1">
	.st0{fill:url(#SVGID_1_);}
</style>
<g
   id="Layer_1-2"
   transform="translate(0.1)">
	<g
   id="g4">
		
			<linearGradient
   id="SVGID_1_"
   gradientUnits="userSpaceOnUse"
   x1="146.49001"
   y1="565.59998"
   x2="772.36652"
   y2="-60.276402"
   gradientTransform="matrix(1,0,0,-1,0,494)">
			<stop
   offset="0"
   style="stop-color:#626E77"
   id="stop1" />
			<stop
   offset="0.5"
   style="stop-color:#B7D1E1"
   id="stop2" />
			<stop
   offset="1"
   style="stop-color:#626E77"
   id="stop3" />
		</linearGradient>
		<path
   class="st0"
   d="m 767,478.1 c -21.7,0 -44.6,-1.2 -68.1,-3.7 -23.6,-2.5 -46,-6.1 -66.8,-10.8 L 622,461.3 V 341.1 h 66.6 l 2.2,10.3 c 4.7,22.3 12.3,38.9 22.7,49.3 9.7,9.7 24.7,14.6 44.7,14.6 10.5,0 20,-1.8 28.2,-5.2 7.5,-3.2 13.3,-8.2 17.9,-15.3 4.6,-7.1 6.9,-16.6 6.9,-28 0,-11.4 -2,-20.3 -5.8,-27.9 -4,-7.8 -10.6,-15.5 -19.8,-22.9 -9.9,-8 -24.2,-16.7 -42.3,-25.9 -16.7,-8.4 -32.1,-17.2 -45.7,-26.2 -14.1,-9.4 -26.3,-19.9 -36.3,-31.3 -1.8,-2 -3.4,-4 -5,-6 -14.2,22.6 -35,39.9 -61.7,51.4 -26,11.2 -58.6,16.9 -96.9,16.9 -14.8,0 -27.9,-0.2 -39.1,-0.6 v 86.8 c 0,16.1 0.8,23.5 1.4,26.9 0.9,4.8 2.2,7.3 3.1,8.6 1.2,1.7 3.3,3.3 6,4.6 2.4,1.2 7.6,3 18.2,4.8 l 10.8,1.8 v 44.7 H 13 v -36.2 l 1.1,-2.5 c 9,-20.6 22.1,-43.2 39,-67.1 16.6,-23.6 37.1,-49.7 60.8,-77.6 22,-25.8 38.9,-47.3 50.2,-63.8 11.1,-16 19.4,-31.3 24.8,-45.4 5.2,-13.5 7.8,-27.7 7.8,-42.2 0,-19.7 -4.2,-35 -12.4,-45.5 -7.7,-9.8 -17.7,-14.4 -31.4,-14.4 -12.9,0 -23.2,4.4 -31.6,13.4 -9.1,9.8 -16,26.3 -20.5,49.1 l -2.1,10.5 H 19.2 v -95 l 8.1,-3.3 C 52.8,42.2 73.2,34.9 87.9,30.8 c 14.7,-4.2 29.5,-7.4 44,-9.5 14.5,-2.1 30.5,-3.2 47.4,-3.2 32,0 58.8,4.5 79.6,13.3 15.1,6.4 27.5,14.7 37,24.6 V 18 h 203.3 c 57.7,0 101.9,10.3 131.5,30.7 8.7,6 16.2,13 22.4,20.7 14.1,-18 33.7,-32 58.3,-41.5 C 737.2,18 767,13 800.3,13 c 19.1,0 37.5,1 55,3.1 17.4,2 37.4,5.7 59.6,10.8 l 10.1,2.3 v 114.5 h -66.3 l -2.4,-10 c -3.6,-15.1 -8.2,-27 -13.6,-35.5 -4.9,-7.8 -10.8,-13.3 -17.9,-16.9 -7.4,-3.7 -17.1,-5.5 -29.1,-5.5 -10.1,0 -19.1,1.7 -26.8,5.2 -7.2,3.2 -12.7,7.8 -16.7,14 -4.1,6.2 -6,13.7 -6,22.9 0,10 1.9,18.5 5.6,25.5 3.8,7.2 10.6,14.5 20.1,21.8 10.4,8 26.1,17.4 46.5,27.9 26.6,13.9 47.9,27.7 63.4,41.2 16.1,14 28.2,29.7 35.9,46.5 7.8,16.8 11.7,36.5 11.7,58.4 0,28.1 -6.7,53 -19.9,74 -13.3,21.1 -32.8,37.5 -57.9,48.6 -24.5,10.8 -53,16.3 -84.6,16.3 z M 326,417.6 c 0.4,-0.5 0.8,-1.1 1.1,-1.6 1.5,-2.8 2.5,-6.6 3,-11.5 0.6,-6.1 0.9,-14.1 0.9,-23.7 v -40.7 z m -99.5,-47.1 c 15.1,0 22.7,-1.3 26.4,-2.4 4,-1.2 7,-3.1 9.2,-5.8 1.8,-2.3 4.6,-7.2 7.1,-17.1 l 2.5,-9.8 H 331 V 110.1 c 0,-9.4 -0.3,-17.4 -0.8,-23.8 -0.5,-6 -1.7,-9.4 -2.7,-11.1 -1.1,-2 -2.9,-3.7 -5.4,-5.1 -2.5,-1.4 -7.4,-3.6 -16.3,-5.8 l -3.4,-0.8 c 1.5,2 2.9,4.1 4.2,6.2 9.8,16 14.8,34.7 14.8,55.7 0,18.1 -3.4,35.2 -10.2,50.8 -6.6,15.1 -17.9,32.4 -33.6,51.2 -15.3,18.3 -41.1,44.7 -76.9,78.4 -15.6,15.2 -30.4,30.7 -43.9,46.2 -6,6.9 -11.3,13.1 -16,18.6 z M 473.7,232.1 c 19.8,0 35.5,-2.6 46.6,-7.8 10.2,-4.7 17.5,-12 22.4,-22.2 5.3,-11.1 8.1,-26.9 8.1,-46.8 0,-19.9 -2.7,-35.3 -8,-46.3 -4.9,-10.1 -11.8,-17.1 -21,-21.3 -10.3,-4.7 -24,-7 -40.8,-7 -8.6,0 -16,0.1 -22.4,0.2 v 151.2 z"
   id="path3"
   style="fill:url(#SVGID_1_)" />
		<path
   d="m 800.3,26 c 18.7,0 36.5,1 53.4,3 16.9,2 36.4,5.5 58.2,10.5 v 91.1 h -43.1 c -4,-16.6 -9.1,-29.7 -15.2,-39.4 -6.2,-9.7 -13.9,-16.9 -23.1,-21.5 -9.2,-4.6 -20.8,-6.9 -34.9,-6.9 -11.9,0 -22.6,2.1 -32.1,6.3 -9.4,4.2 -16.9,10.4 -22.3,18.7 -5.5,8.3 -8.2,18.3 -8.2,30 0,11.7 2.4,22.7 7.1,31.6 4.7,8.9 12.6,17.6 23.7,26.1 11.1,8.5 27.2,18.2 48.4,29.1 25.8,13.4 46,26.6 60.8,39.4 14.8,12.9 25.7,26.9 32.7,42.1 7,15.2 10.5,32.8 10.5,53 0,25.8 -6,48.1 -17.9,67.1 -11.9,19 -29.3,33.5 -52.2,43.7 -22.7,10.1 -49.1,15.2 -79.1,15.2 -21.4,0 -43.6,-1.2 -66.8,-3.6 C 677,459.1 655.3,455.6 635,451 v -96.8 h 43.1 c 5.2,24.9 14,43.5 26.2,55.8 12.3,12.3 30.2,18.4 53.9,18.4 12.4,0 23.5,-2.1 33.3,-6.3 9.8,-4.2 17.8,-11 23.7,-20.3 6,-9.3 9,-21 9,-35 0,-13 -2.4,-24.2 -7.2,-33.8 -4.8,-9.5 -12.6,-18.6 -23.3,-27.2 C 783,297.2 768.1,288.1 749.1,278.5 732.8,270.3 718,261.8 704.8,253 691.6,244.2 680.3,234.5 671,223.9 c -6.3,-7.2 -11.9,-15 -16.3,-23.5 -6,13.9 -2.8,7.6 -9.3,19 -12.9,20.5 -31.6,36.1 -56,46.6 -24.4,10.5 -55,15.9 -91.7,15.9 -21.2,0 -38.5,-0.4 -52.1,-1.3 v 100.5 c 0,13.8 0.5,23.6 1.6,29.4 1.1,5.8 2.9,10.4 5.4,13.8 2.5,3.5 6.1,6.3 10.8,8.6 4.7,2.3 12,4.3 21.8,6 v 20.7 H 26 v -20.5 c 8.7,-19.9 21.3,-41.5 37.7,-64.9 16.4,-23.4 36.5,-48.9 60,-76.7 22.4,-26.3 39.4,-47.9 51.1,-64.9 11.7,-17 20.4,-33 26.2,-48.1 5.8,-15.1 8.7,-30.7 8.7,-46.9 0,-22.8 -5.1,-40.6 -15.2,-53.5 -10.1,-12.9 -24,-19.4 -41.6,-19.4 -16.6,0 -30.3,5.8 -41.1,17.5 C 101,93.9 93,112.5 88.1,137.7 H 32.2 V 64.5 c 25.2,-10.1 45,-17.2 59.3,-21.3 14.3,-4.1 28.4,-7.1 42.4,-9.2 14,-2.1 29.1,-3.1 45.5,-3.1 30.4,0 55.2,4.1 74.5,12.3 19.2,8.2 33.2,19.2 41.7,33.2 8.6,14 12.9,30.3 12.9,48.9 0,16.4 -3,31.6 -9.2,45.6 -6.1,14.1 -16.7,30.1 -31.7,48.1 -15,18 -40.3,43.8 -75.9,77.3 -15.9,15.5 -30.8,31.2 -44.7,47 -13.9,15.8 -24.1,28.2 -30.7,37.1 v 3.1 h 110.2 c 13.4,0 23.5,-1 30.1,-3 6.6,-2 11.9,-5.4 15.7,-10.2 3.8,-4.9 7,-12.2 9.5,-21.9 h 35.7 l -5.8,89.6 c 5.7,-1.4 11.1,-3.5 16.4,-6 4.7,-2.4 8.2,-5.8 10.5,-10 2.3,-4.3 3.8,-9.7 4.4,-16.3 0.7,-6.6 1,-14.9 1,-25 V 110.1 c 0,-9.8 -0.3,-18.1 -0.8,-24.8 -0.5,-6.7 -2,-12.1 -4.3,-16.3 -2.3,-4.2 -5.8,-7.6 -10.5,-10.2 -4.7,-2.6 -11.2,-5 -19.5,-7.1 V 30.9 h 190.3 c 55.2,0 96.6,9.5 124.2,28.4 12.6,8.8 23.3,20.3 29.9,34.2 2,-4.5 4.8,-8.5 7.5,-12.6 12.8,-18 31.3,-31.7 55.5,-41 24.1,-9.2 52.2,-13.9 84,-13.9 M 445.5,245.1 h 28.2 c 21.8,0 39.2,-3 52.1,-8.9 12.9,-5.9 22.4,-15.4 28.7,-28.4 6.3,-13 9.3,-30.5 9.3,-52.4 0,-21.9 -3.1,-39.1 -9.3,-52 -6.2,-12.9 -15.3,-22 -27.3,-27.5 -12,-5.4 -27.4,-8.2 -46.2,-8.2 -15.3,0 -27.1,0.2 -35.4,0.6 l -0.1,176.8 M 26,459.6 v 0 M 800.3,0 C 765.4,0 734,5.3 706.9,15.7 685.4,24 667.3,35.5 653,50 648.5,45.7 643.6,41.7 638.3,38 v 0 0 C 621.9,26.7 601.5,18.2 577.7,12.8 555.2,7.6 528.9,5 499.4,5 H 282.9 v 24 c -5.8,-3.6 -12.2,-6.8 -19,-9.7 C 241.2,9.7 213.5,5 179.3,5 161.8,5 145.2,6.1 130,8.4 115,10.6 99.7,13.9 84.4,18.3 69.1,22.6 48.8,29.9 22.5,40.5 L 6.2,46.9 v 116.8 h 103.2 l 4.1,-21 c 5,-25.3 12.1,-37.2 17.3,-42.7 5.9,-6.4 12.7,-9.2 22.1,-9.2 9.4,0 15.9,2.8 21.1,9.4 6.4,8.2 9.7,20.8 9.7,37.5 0,12.9 -2.3,25.5 -7,37.6 -5,13.1 -12.9,27.5 -23.4,42.7 -11.1,16.2 -27.8,37.3 -49.4,62.8 C 79.9,309 59.2,335.4 42.4,359.3 25,384 11.5,407.3 2.1,428.7 l -2.2,5 v 51.9 h 485.2 26 v -68.7 l -21.6,-3.7 c -10.5,-1.8 -14.1,-3.4 -14.7,-3.7 -0.6,-0.3 -1,-0.5 -1.2,-0.7 -0.2,-0.5 -0.5,-1.5 -0.9,-3.2 -0.4,-1.9 -1.2,-8 -1.2,-24.5 v -73.5 c 8,0.2 16.7,0.2 26.1,0.2 40.1,0 74.4,-6 102,-18 23.5,-10.1 42.8,-24.4 57.6,-42.6 9.6,9.8 20.7,19 33.1,27.3 14,9.3 29.8,18.5 47,27 17.3,8.8 30.8,17 40,24.4 7.7,6.2 13.2,12.5 16.3,18.6 2.9,5.8 4.4,13.2 4.4,22.1 0,8.9 -1.6,16 -4.8,21 -3.2,4.9 -7,8.2 -12,10.4 -6.6,2.8 -14.3,4.2 -23.1,4.2 -16.4,0 -28.4,-3.6 -35.5,-10.8 -8.6,-8.6 -15,-23 -19.2,-42.8 l -4.3,-20.7 H 609 v 143.6 l 20.2,4.6 c 21.2,4.8 44.2,8.5 68.3,11 23.9,2.5 47.3,3.8 69.5,3.8 33.5,0 63.7,-5.9 89.8,-17.5 27.5,-12.2 48.9,-30.3 63.6,-53.6 14.5,-23.1 21.9,-50.3 21.9,-81 0,-23.8 -4.3,-45.3 -12.9,-63.9 -8.5,-18.5 -21.7,-35.6 -39.2,-50.8 -16.5,-14.4 -38,-28.4 -65.9,-42.9 v 0 0 c -19.7,-10.1 -34.7,-19.1 -44.5,-26.6 -7.9,-6.1 -13.7,-12.1 -16.5,-17.6 -2.7,-5.1 -4,-11.6 -4,-19.4 0,-6.6 1.3,-11.7 3.9,-15.7 2.7,-4.1 6.3,-7.1 11.2,-9.2 6,-2.7 13.3,-4.1 21.5,-4.1 9.8,0 17.8,1.4 23.3,4.2 5,2.5 9.1,6.5 12.8,12.2 4.6,7.3 8.6,17.9 11.9,31.6 l 4.8,19.9 h 89.5 V 18.8 L 918,14.2 C 895.4,9 874.9,5.3 857,3.2 838.9,1.1 819.9,0 800.3,0 Z M 471.6,93.7 c 3,0 6.1,0 9.4,0 15,0 26.9,2 35.5,5.8 6.4,2.9 11.1,7.7 14.7,15.1 3.1,6.4 6.7,18.6 6.7,40.7 0,22.1 -3.7,34.7 -6.8,41.2 -3.6,7.5 -8.7,12.6 -16.2,16.1 -6.4,3 -18.8,6.5 -41.2,6.5 h -2.2 L 471.6,93.7 Z M 209.7,315.1 c 36.6,-34.5 62.1,-60.5 77.9,-79.4 13.2,-15.9 23.2,-30.3 30.4,-43.8 v 130.6 h -56.5 l -5,19.6 c -2.3,9 -4.5,11.9 -4.7,12.2 -0.1,0.2 -0.6,0.8 -2.6,1.4 -1.9,0.6 -7.9,1.9 -22.7,1.9 h -57.3 c 12.6,-14.3 26.2,-28.5 40.5,-42.5 z"
   id="path4" />
	</g>
</g>
</svg>
