<?xml version="1.0" encoding="UTF-8" standalone="no"?>
<svg
   id="Layer_2"
   data-name="Layer 2"
   viewBox="0 0 890.28998 439.10001"
   version="1.1"
   width="890.28998"
   height="439.10001"
   xmlns="http://www.w3.org/2000/svg"
   xmlns:svg="http://www.w3.org/2000/svg">
  <defs
     id="defs1">
    <style
       id="style1">
      .cls-1 {
        stroke-width: 0px;
      }
    </style>
  </defs>
  <g
     id="Layer_1-2"
     data-name="Layer 1">
    <path
       class="cls-1"
       d="m 0,433.56 v -20.48 c 8.69,-19.86 21.26,-41.49 37.71,-64.87 16.45,-23.38 36.47,-48.93 60.05,-76.66 22.35,-26.28 39.36,-47.9 51.06,-64.87 11.69,-16.97 20.43,-33 26.22,-48.11 5.79,-15.1 8.69,-30.72 8.69,-46.86 0,-22.76 -5.07,-40.61 -15.21,-53.54 -10.14,-12.93 -24,-19.4 -41.59,-19.4 -16.55,0 -30.26,5.84 -41.12,17.53 C 74.95,67.99 67.03,86.46 62.07,111.7 H 6.21 V 38.47 c 25.24,-10.14 45,-17.23 59.28,-21.26 14.28,-4.03 28.4,-7.09 42.36,-9.16 13.97,-2.07 29.12,-3.1 45.47,-3.1 30.42,0 55.24,4.09 74.49,12.26 19.24,8.17 33.16,19.24 41.74,33.21 8.59,13.97 12.88,30.26 12.88,48.88 0,16.35 -3.05,31.55 -9.16,45.62 -6.1,14.07 -16.66,30.1 -31.66,48.11 -15,18 -40.3,43.76 -75.89,77.28 -15.93,15.52 -30.83,31.19 -44.69,47.02 -13.86,15.83 -24.1,28.19 -30.73,37.09 v 3.1 h 110.18 c 13.45,0 23.48,-0.98 30.1,-2.95 6.62,-1.96 11.85,-5.38 15.67,-10.24 3.83,-4.86 6.98,-12.16 9.47,-21.88 h 35.69 l -5.76,89.63 c 5.69,-1.4 11.14,-3.54 16.44,-5.99 4.69,-2.41 8.19,-5.76 10.48,-10.05 2.29,-4.29 3.77,-9.73 4.42,-16.33 0.66,-6.59 0.98,-14.92 0.98,-24.96 V 84.08 c 0,-9.84 -0.27,-18.11 -0.82,-24.81 -0.55,-6.7 -1.97,-12.14 -4.26,-16.33 -2.29,-4.19 -5.79,-7.59 -10.48,-10.21 -4.69,-2.62 -11.19,-4.97 -19.49,-7.07 V 4.95 h 190.33 c 55.25,0 96.64,9.47 124.16,28.42 12.59,8.76 23.28,20.27 29.86,34.21 1.99,-4.47 4.75,-8.54 7.49,-12.57 C 647.54,36.99 666.03,23.32 690.24,13.99 714.44,4.67 742.47,0 774.32,0 c 18.65,0 36.46,1 53.43,2.99 16.97,1.99 36.36,5.5 58.15,10.53 v 91.15 h -43.06 c -3.98,-16.55 -9.06,-29.7 -15.25,-39.44 -6.18,-9.74 -13.88,-16.92 -23.1,-21.53 -9.22,-4.61 -20.85,-6.92 -34.89,-6.92 -11.94,0 -22.63,2.1 -32.06,6.29 -9.43,4.19 -16.87,10.43 -22.32,18.7 -5.45,8.28 -8.17,18.28 -8.17,30.02 0,11.74 2.36,22.68 7.07,31.59 4.71,8.91 12.62,17.6 23.73,26.09 11.11,8.49 27.24,18.18 48.4,29.07 25.77,13.41 46.05,26.56 60.82,39.44 14.77,12.89 25.67,26.93 32.69,42.12 7.02,15.19 10.53,32.84 10.53,52.96 0,25.77 -5.97,48.14 -17.91,67.11 -11.94,18.96 -29.34,33.52 -52.18,43.69 -22.84,10.16 -49.24,15.24 -79.2,15.24 -21.37,0 -43.64,-1.2 -66.79,-3.61 -23.15,-2.41 -44.89,-5.92 -65.22,-10.53 v -96.81 h 43.06 c 5.24,24.94 13.99,43.53 26.24,55.79 12.26,12.26 30.22,18.39 53.9,18.39 12.36,0 23.47,-2.1 33.32,-6.29 9.85,-4.19 17.76,-10.95 23.73,-20.27 5.97,-9.32 8.96,-21.01 8.96,-35.05 0,-12.99 -2.41,-24.25 -7.23,-33.79 -4.82,-9.53 -12.57,-18.6 -23.26,-27.19 -10.69,-8.59 -25.56,-17.71 -44.63,-27.34 -16.34,-8.17 -31.12,-16.66 -44.32,-25.46 -13.2,-8.8 -24.46,-18.49 -33.79,-29.07 -6.27,-7.18 -11.94,-14.97 -16.29,-23.47 -6,13.87 -2.79,7.6 -9.33,18.96 -12.89,20.51 -31.56,36.06 -56.02,46.63 -24.46,10.57 -55.03,15.86 -91.72,15.86 -21.18,0 -38.55,-0.42 -52.09,-1.26 v 100.48 c 0,13.82 0.55,23.6 1.64,29.36 1.09,5.76 2.89,10.36 5.41,13.82 2.51,3.45 6.11,6.33 10.81,8.64 4.69,2.3 11.96,4.29 21.78,5.96 v 20.72 H 0 Z M 454.93,41.69 c -15.29,0 -27.08,0.21 -35.38,0.63 V 219.1 h 28.17 c 21.84,0 39.2,-2.98 52.09,-8.95 12.89,-5.97 22.44,-15.44 28.66,-28.42 6.22,-12.98 9.34,-30.46 9.34,-52.44 0,-21.77 -3.11,-39.09 -9.34,-51.97 C 522.25,64.45 513.13,55.29 501.12,49.84 489.11,44.4 473.71,41.68 454.93,41.68 v 0 z"
       id="path1" />
  </g>
</svg>
