<svg xmlns="http://www.w3.org/2000/svg" width="600" height="363.102"><path d="M172.57 0h-66.924s-3.277 35.917-4.357 47.603a36777 36777 0 0 1-32.206-25.385l-55.81 62.41s20.512 27.258 27.185 36.166c-.258.794-.544 1.588-.793 2.381C28.957 125.372 0 131.363 0 131.363v80.945s35.557 2.815 47.308 3.72c.074.175.147.323.249.498-5.77 8.982-21.924 34.256-21.924 34.256l65.197 60.941s21.342-21.489 29.244-29.427a25459 25459 0 0 1 12.184 37.643l85.819-1.043 1.006-16.514c.074-.905 1.015-16.726 1.486-28.699 9.73 5.013 35.437 18.176 35.437 18.176s22.283-24.49 32.418-35.631c3.213.221 25.819 2.021 37.57 2.926.073.175.184.36.258.535-5.77 8.945-21.923 34.219-21.923 34.219l65.225 60.941s21.314-21.452 29.206-29.427c3.498 10.744 12.194 37.68 12.194 37.68l85.809-1.043 1.015-16.551c.037-.868 1.007-16.726 1.44-28.662 9.776 4.976 35.484 18.167 35.484 18.167l53.649-59.022-26.677-33.102C572.058 239.788 600 231.462 600 231.462l-5.372-86.576s-30.72.536-41.391.72a106 106 0 0 0-1.699-3.212c6.453-9.59 24.813-36.923 24.813-36.923l-65.41-54.342s-22.68 23.225-30.756 31.45c-2.382-.794-4.8-1.514-7.293-2.17-1.837-10.163-6.812-37.246-6.812-37.246H384.34s-3.286 35.88-4.366 47.594c-8.584-6.738-32.16-25.385-32.16-25.385s-22.43 25.062-32.603 36.388c-1.292.037-30 .499-40.67.683-.536-1.08-1.118-2.123-1.69-3.175 6.452-9.628 24.803-36.96 24.803-36.96l-65.41-54.296s-22.68 23.216-30.756 31.44a179 179 0 0 0-7.283-2.206C192.369 27.12 187.394 0 187.394 0h-14.825z" style="fill:gray"/><path d="M418.736 203.04c0 11.142 9.055 20.197 20.197 20.197s20.187-9.055 20.187-20.197-9.046-20.188-20.187-20.188-20.197 9.047-20.197 20.188m20.197-54.443c30 0 54.443 24.406 54.443 54.443 0 30-24.443 54.452-54.443 54.452-30.037 0-54.453-24.452-54.453-54.452 0-30.037 24.416-54.443 54.453-54.443m0-17.778c-39.914 0-72.259 32.344-72.259 72.221 0 39.886 32.345 72.23 72.259 72.23 39.877 0 72.258-32.344 72.258-72.23 0-39.877-32.381-72.221-72.258-72.221m138.997 32.169 3.424 55.45-35.298 10.531c-1.366 5.585-3.139 11.031-5.336 16.265l24.194 30.037-34.218 37.68-33.24-17.022c-5.123 3.139-18.859 13.699-16.154 8.225 1.292-2.64-1.302 40.274-1.302 40.274l-56.141.683-11.788-36.452c-5.557-1.44-10.93-3.351-16.117-5.631l-26.87 27.046-41.751-39.046 19.652-30.692a105.6 105.6 0 0 1-8.982-18.102l-41.501-3.24v-49.975l36.35-7.542a109.7 109.7 0 0 1 6.305-20.585l-24.194-32.16 34.939-39.018 28.92 22.79c5.621-3.784 11.649-7.107 17.954-9.812l3.793-41.75h50.696l6.268 34.292a106.3 106.3 0 0 1 27.193 8.15l27.471-28.06 40.422 33.571-22.173 32.991c4.579 6.748 8.4 14.031 11.391 21.711zm-437.88-3.102c0 11.142 9.045 20.225 20.187 20.225s20.197-9.083 20.197-20.225c0-11.141-9.055-20.197-20.197-20.197s-20.188 9.056-20.188 20.197m20.188-54.415c30 0 54.452 24.415 54.452 54.415 0 30.037-24.452 54.443-54.452 54.443-30.037 0-54.443-24.406-54.443-54.443 0-30 24.406-54.415 54.443-54.415m0-17.816c-39.914 0-72.258 32.345-72.258 72.231 0 39.914 32.344 72.259 72.258 72.259 39.886 0 72.23-32.345 72.23-72.259 0-39.886-32.344-72.23-72.23-72.23m139.006 32.169 3.425 55.486-35.299 10.495a109.7 109.7 0 0 1-5.335 16.302l24.194 30.037-34.219 37.643-33.249-17.022c-5.114 3.176-18.821 13.708-16.154 8.262 1.302-2.64-1.292 40.274-1.292 40.274l-56.142.683-11.797-36.453a111 111 0 0 1-16.116-5.658l-26.862 27.037-41.788-39.01 19.653-30.682a112 112 0 0 1-8.982-18.102l-41.465-3.286v-49.976l36.342-7.532a110 110 0 0 1 6.314-20.557l-24.194-32.16 34.938-39.018 28.92 22.79a108.4 108.4 0 0 1 17.917-9.84l3.822-41.723h50.695l6.277 34.256a108.3 108.3 0 0 1 27.185 8.188l27.48-28.053 40.385 33.563-22.145 32.963a108.8 108.8 0 0 1 11.4 21.739z"/></svg>