<svg xmlns="http://www.w3.org/2000/svg" width="563.539" height="327.296"><path d="M400.92 185.225c0 11.141 9.056 20.197 20.197 20.197s20.188-9.056 20.188-20.197-9.046-20.188-20.188-20.188-20.197 9.046-20.197 20.188m20.197-54.443c30 0 54.443 24.406 54.443 54.443 0 30-24.443 54.452-54.443 54.452-30.037 0-54.452-24.452-54.452-54.452 0-30.037 24.415-54.443 54.452-54.443m0-17.779c-39.914 0-72.258 32.345-72.258 72.222 0 39.886 32.344 72.23 72.258 72.23 39.877 0 72.259-32.344 72.259-72.23 0-39.877-32.382-72.222-72.259-72.222m138.997 32.17 3.425 55.449-35.299 10.532c-1.366 5.585-3.138 11.03-5.335 16.265l24.194 30.037-34.219 37.68-33.24-17.022c-5.123 3.138-18.858 13.698-16.154 8.225 1.293-2.64-1.301 40.274-1.301 40.274l-56.142.683-11.787-36.453c-5.557-1.44-10.93-3.35-16.117-5.63l-26.871 27.046-41.75-39.047 19.651-30.692a105.6 105.6 0 0 1-8.981-18.101l-41.502-3.24v-49.976l36.351-7.541a109.7 109.7 0 0 1 6.305-20.585l-24.194-32.16 34.938-39.018 28.92 22.79c5.622-3.784 11.65-7.107 17.954-9.812l3.794-41.75h50.695l6.268 34.292a106.3 106.3 0 0 1 27.194 8.15l27.47-28.061 40.422 33.572-22.172 32.99c4.579 6.749 8.4 14.032 11.39 21.712zm-437.88-3.102c0 11.141 9.046 20.224 20.188 20.224s20.197-9.083 20.197-20.224-9.056-20.197-20.197-20.197-20.188 9.055-20.188 20.197m20.188-54.416c30 0 54.452 24.416 54.452 54.416 0 30.037-24.452 54.443-54.452 54.443-30.037 0-54.443-24.406-54.443-54.443 0-30 24.406-54.416 54.443-54.416m0-17.815c-39.914 0-72.259 32.345-72.259 72.23 0 39.915 32.345 72.26 72.259 72.26 39.886 0 72.23-32.345 72.23-72.26 0-39.885-32.344-72.23-72.23-72.23m139.006 32.17 3.424 55.485-35.298 10.496a109.7 109.7 0 0 1-5.335 16.301l24.193 30.037-34.218 37.643-33.25-17.021c-5.113 3.175-18.82 13.708-16.153 8.261 1.301-2.64-1.292 40.274-1.292 40.274l-56.142.683-11.797-36.452a111 111 0 0 1-16.117-5.658l-26.861 27.037-41.788-39.01 19.652-30.683a112 112 0 0 1-8.981-18.101L0 178.016V128.04l36.342-7.532a110 110 0 0 1 6.313-20.557L18.462 67.79 53.4 28.772l28.92 22.791a108.4 108.4 0 0 1 17.917-9.84L104.059 0h50.695l6.277 34.255a108.3 108.3 0 0 1 27.184 8.188l27.48-28.052 40.385 33.563-22.144 32.963a108.8 108.8 0 0 1 11.4 21.738z"/></svg>