<?xml version="1.0" encoding="UTF-8" standalone="no"?>
<svg
   version="1.1"
   width="600"
   height="679.5791"
   id="svg5"
   xmlns="http://www.w3.org/2000/svg"
   xmlns:svg="http://www.w3.org/2000/svg">
  <defs
     id="defs5" />
  <radialGradient
     cx="0"
     cy="0"
     r="1"
     fx="0"
     fy="0"
     id="radialGradient800"
     gradientUnits="userSpaceOnUse"
     gradientTransform="matrix(16.712707,0,0,-16.712707,748.01172,146.5127)"
     spreadMethod="pad">
    <stop
       style="stop-color:#ebd491"
       offset="0"
       id="stop1" />
    <stop
       style="stop-color:#d2bb7b"
       offset="0.7"
       id="stop2" />
    <stop
       style="stop-color:#8b723c"
       offset="1"
       id="stop3" />
  </radialGradient>
  <path
     d="m 307.3064,679.57912 c -211.700339,0 -287.77778,-61.6835 -290.875424,-64.25926 L 0,601.51515 10.841751,583.09764 200.10101,261.0101 V 102.12121 C 171.49832,90.55555 164.86532,73.51851 164.86532,60.23569 164.86532,20.25252 211.41414,0 303.28283,0 c 33.01347,0 133.56902,0 133.56902,60.23569 0,13.0808 -6.17845,29.78114 -32.49158,41.43097 V 261.19528 L 589.61279,587.57575 600,605.79124 583.95623,619.34343 c -2.96296,2.42424 -73.97307,60.23569 -276.64983,60.23569"
     style="fill:#ffffff"
     id="path3" />
  <path
     d="m 187.28956,586.0606 c -26.70033,-2.03704 -58.33333,-16.83501 -58.33333,-16.83501 L 226.73401,388.77104 Z M 379.10774,267.91245 V 83.58585 c 21.17846,-5.47138 32.49159,-13.55218 32.49159,-23.35016 0,-18.14815 -25.77441,-34.98317 -108.38384,-34.98317 -82.59259,0 -113.09764,16.83502 -113.09764,34.98317 0,9.79798 12.55892,17.94612 35.23569,23.40067 V 267.91245 L 32.609428,595.92592 c 0,0 69.713802,58.40068 274.764312,58.40068 C 503.13131,654.3266 567.6431,600 567.6431,600 Z"
     style="fill:#8b723c"
     id="path4" />
  <g
     transform="matrix(16.835017,0,0,-16.835017,-12292.593,2806.3132)"
     id="g5">
    <path
       d="m 742.023,163.117 c 0,-0.125 0.297,-0.523 1.672,-0.855 v 0 l 0.422,-0.106 v -0.429 -10.946 -0.152 l -0.078,-0.129 -11.187,-19.039 c 1.257,-0.789 5.781,-3.082 15.582,-3.082 v 0 c 9.296,0 13.535,2.105 14.738,2.844 v 0 l -10.953,19.285 -0.074,0.125 v 0.148 10.949 0.426 l 0.414,0.11 c 1.203,0.304 1.519,0.679 1.519,0.851 v 0 c 0,0.707 -1.543,1.528 -5.887,1.528 v 0 c -4.879,0 -6.168,-0.997 -6.168,-1.528 m -0.761,-31.781 c -1.664,0.129 -3.571,1.012 -3.653,1.047 v 0 l -0.527,0.25 0.277,0.512 5.805,10.718 1.738,3.211 -0.714,-3.582 -2.344,-11.715 -0.098,-0.476 z"
       style="fill:url(#radialGradient800)"
       id="path5" />
  </g>
</svg>
