<?xml version="1.0" encoding="UTF-8" standalone="no"?>
<svg
   id="Layer_2"
   data-name="Layer 2"
   viewBox="0 0 159.94026 191.45"
   version="1.1"
   width="159.94026"
   height="191.45"
   xmlns:xlink="http://www.w3.org/1999/xlink"
   xmlns="http://www.w3.org/2000/svg"
   xmlns:svg="http://www.w3.org/2000/svg">
  <defs
     id="defs5">
    <style
       id="style1">
      .cls-1 {
        fill: url(#linear-gradient);
      }

      .cls-1, .cls-2, .cls-3 {
        stroke-width: 0px;
      }

      .cls-3 {
        fill: url(#linear-gradient-2);
      }
    </style>
    <linearGradient
       id="linear-gradient"
       x1="29.1"
       y1="30.139999"
       x2="130.71001"
       y2="131.75999"
       gradientTransform="matrix(1,0,0,-1,0,194)"
       gradientUnits="userSpaceOnUse">
      <stop
         offset="0"
         stop-color="#c64125"
         id="stop1" />
      <stop
         offset=".2"
         stop-color="#f5951d"
         id="stop2" />
      <stop
         offset=".5"
         stop-color="#f5951d"
         id="stop3" />
      <stop
         offset=".8"
         stop-color="#f5951d"
         id="stop4" />
      <stop
         offset="1"
         stop-color="#c03726"
         id="stop5" />
    </linearGradient>
    <linearGradient
       id="linear-gradient-2"
       x1="43.560001"
       y1="6.3099999"
       x2="115"
       y2="77.75"
       xlink:href="#linear-gradient" />
    <linearGradient
       xlink:href="#linear-gradient"
       id="linearGradient7"
       gradientUnits="userSpaceOnUse"
       gradientTransform="matrix(1,0,0,-1,0,194)"
       x1="29.1"
       y1="30.139999"
       x2="130.71001"
       y2="131.75999" />
  </defs>
  <g
     id="Layer_1-2"
     data-name="Layer 1">
    <path
       class="cls-2"
       d="m 159.47,101.64 c 0.2,-0.43 0.48,-0.84 0.47,-1.47 -0.4,0.26 -0.73,0.47 -1.05,0.69 -3.74,2.66 -7.39,5.46 -11.23,7.97 -8.39,5.49 -17.62,5.25 -24.5,-3.55 -2.6,-3.33 -4.5,-7.04 -6.04,-10.95 C 105.13,63.91 93.16,33.49 81.17,3.07 80.77,2.06 80.48,0.99 79.86,0 79.79,0.16 79.75,0.23 79.73,0.31 67.97,30.19 56.21,60.07 44.46,89.95 c -1.88,4.78 -3.69,9.6 -6.69,13.84 -2.39,3.39 -5.21,6.3 -9.2,7.74 -5.91,2.13 -11.33,0.6 -16.36,-2.65 -3.75,-2.43 -7.35,-5.1 -11.02,-7.64 -0.33,-0.23 -0.6,-0.71 -1.19,-0.36 1.84,3.89 3.62,7.8 5.54,11.64 2.66,5.32 4.18,10.88 4.45,16.85 0.34,7.72 -2.4,14.02 -8.2,19.04 -0.65,0.56 -0.74,0.85 -0.21,1.57 5.22,7.15 11.36,13.42 18.18,19.02 16.18,13.3 34.36,21.67 55.64,22.25 1.19,0.24 2.42,-0.12 3.61,0.2 h 2.16 c 1.19,-0.32 2.42,0.05 3.61,-0.2 6.13,-0.13 12.18,-0.93 18.08,-2.58 22.99,-6.41 40.99,-19.99 55.39,-38.73 0.51,-0.66 0.42,-0.98 -0.2,-1.5 -3.81,-3.19 -6.44,-7.18 -7.55,-12.05 -1.53,-6.68 -0.63,-13.23 1.89,-19.47 2.1,-5.19 4.71,-10.18 7.09,-15.26 v -0.02 z M 59.81,175.7 c -13.7,-1.67 -25.4,-7.9 -36.23,-16.07 -3.93,-2.96 -7.57,-6.25 -11.16,-9.87 2.46,-0.98 4.73,-0.77 6.93,0.35 1.32,0.67 2.53,1.48 3.6,2.53 8.45,8.3 18.51,13.99 29.5,18.15 5.17,1.96 10.48,3.48 15.88,4.7 -2.84,0.56 -5.7,0.55 -8.53,0.21 z m 19.82,-7.04 c -3.5,0.02 -6.74,-1.18 -9.99,-2.19 -5.89,-1.83 -11.5,-4.31 -16.36,-8.2 -4.04,-3.23 -7.06,-7.16 -7.77,-12.48 -0.53,-3.94 0.27,-7.71 1.68,-11.36 10.72,-27.64 21.45,-55.28 32.18,-82.91 0.1,-0.25 0.1,-0.56 0.48,-0.78 9.87,25.46 19.75,50.91 29.59,76.37 1.45,3.74 3.18,7.39 4.12,11.32 1.86,7.7 -0.5,14 -6.41,19.08 -5.05,4.35 -11.02,6.97 -17.29,8.97 -3.34,1.06 -6.67,2.16 -10.24,2.18 v 0 z m 46.15,-2.18 c -6.72,3.9 -13.79,6.94 -21.43,8.51 -4.37,0.9 -8.76,1.22 -13.2,0.53 4,-0.94 7.96,-1.99 11.85,-3.29 10.91,-3.63 21.03,-8.73 29.86,-16.2 1.46,-1.24 2.85,-2.57 4.23,-3.9 2.87,-2.74 6.69,-3.68 10.02,-2.35 -6.47,6.51 -13.48,12.15 -21.33,16.7 z"
       id="path5" />
    <path
       class="cls-1"
       d="m 13.2,121.91 c 0.88,4.21 1.05,8.68 0.68,12.85 -0.12,0.47 -0.27,0.89 -0.23,1.42 -0.24,1.19 -0.42,2.31 -0.69,3.54 -0.4,2.16 -1.37,3.9 -1.94,6.06 0.15,0.1 0.73,-0.19 1.08,-0.26 1.03,-0.27 2.38,-0.47 3.37,-0.57 3.39,0.16 6.62,1.48 9.15,3.69 12.91,12.6 29.63,20.06 47.27,23.25 0.48,-0.02 -0.08,-0.36 -0.33,-0.44 -4.75,-1.33 -9.69,-3.14 -14.01,-5.37 -11.49,-6.28 -18.82,-15.49 -15.58,-29.03 1.88,-5.98 4.41,-11.54 6.57,-17.48 7.83,-19.9 15.5,-39.86 23.2,-59.77 1.67,-4.06 3.16,-8.26 4.78,-12.23 0.33,-1.2 0.93,-2.18 1.29,-3.36 0.51,-1.52 1.2,-2.91 1.68,-4.46 0.12,-0.26 0.2,-0.65 0.33,-0.64 0.86,1.02 0.99,2.48 1.65,3.65 0.03,0.05 0.06,0.12 0.09,0.18 0.04,0.07 0.06,0.13 0.04,0.09 -0.01,-0.03 0,0.03 0.02,0.05 0.15,0.39 0.26,0.75 0.39,1.13 5.37,13.95 10.72,27.74 16.16,41.68 4.71,12.25 9.4,24.39 14.21,36.57 1.98,5.91 5.15,11.58 5.97,17.8 1.76,10.72 -5.42,19.91 -14.44,24.88 -4.74,2.77 -10.18,4.6 -15.19,6.42 5.99,-0.69 11.79,-2.57 17.3,-4.71 10.16,-3.64 19.97,-9.43 27.84,-17 3.97,-4.22 9.65,-5.91 15.04,-4.09 -2.15,-5.32 -3.37,-10.81 -3.06,-16.52 -0.09,-5.51 1.51,-10.9 3.51,-15.96 -0.08,-0.17 -0.46,0.1 -0.63,0.15 -1.39,0.61 -2.73,1.14 -4.11,1.78 -13.47,4.72 -22.98,-2.52 -29.08,-14.32 C 109.93,88.31 105.38,75.35 100.14,62.55 94.85,48.68 89.2,35.02 83.94,21.24 c -1.16,-3.06 -2.5,-6.11 -3.61,-9.18 -0.1,-0.22 -0.24,-0.49 -0.41,-0.57 -0.25,-0.08 -0.34,0.54 -0.47,0.85 -0.1,0.27 -0.2,0.59 -0.31,0.85 -1.38,3.62 -2.91,7.01 -4.2,10.65 -0.39,0.74 -0.74,1.73 -0.95,2.41 -0.56,1.45 -1.06,2.68 -1.59,4.05 -4.58,11.55 -9.21,23.38 -13.8,35 -2.17,5.69 -4.61,11.59 -6.9,17.42 -3.45,8.22 -5.85,17.07 -11.2,24.32 -6.3,8.91 -16.9,12.14 -26.91,7.5 -0.64,-0.34 -1.47,-0.78 -2.19,-1.17 -0.36,-0.17 -0.7,-0.43 -1.1,-0.56 -0.1,-0.03 -0.17,-0.04 -0.14,0.02 1.44,3 2.4,5.91 3.05,9.04 v 0.06 z"
       id="path6"
       style="fill:url(#linearGradient7)" />
    <path
       class="cls-3"
       d="m 148.61,154.45 c -12.58,11.81 -27.6,21.78 -44.79,25.03 -4.76,0.67 -8.95,0.95 -13.63,0.22 -2.97,-0.67 -6.06,-1.5 -8.15,-3.86 -0.91,-0.79 -1.44,-2.02 -2.16,-3.02 -0.3,0.21 -0.6,1.21 -0.93,1.57 -2.11,3.28 -5.98,4.63 -9.64,5.34 -5.87,1.02 -12.16,0.17 -17.88,-1.24 -16.66,-4.55 -31.41,-14.83 -43.4,-27.3 -0.21,-0.18 -0.4,-0.31 -0.42,-0.27 0.27,0.62 0.92,1.38 1.45,1.89 7.47,8.5 16.25,16.21 25.99,21.96 15.7,9.86 33.38,13.63 51.73,12.27 8.66,-0.4 17.37,-2.49 25.34,-5.83 2.2,-0.89 4.44,-1.8 6.63,-3.08 2.45,-1.15 4.84,-2.48 7.18,-4.08 9.39,-5.75 17.97,-13.15 25.08,-21.69 0.08,-0.13 0,-0.07 -0.04,-0.04 -0.64,0.56 -1.71,1.63 -2.27,2.05 l -0.09,0.07 z m -68.89,32.41 v 0 c 0,0 -0.01,-0.04 -0.02,-0.06 0.04,0.02 0.08,0.04 0.12,0.06 h -0.11 v 0 z"
       id="path7"
       style="fill:url(#linear-gradient-2)" />
  </g>
</svg>
