<?xml version="1.0" encoding="UTF-8"?>
<svg id="Layer_2" data-name="Layer 2" xmlns="http://www.w3.org/2000/svg" xmlns:xlink="http://www.w3.org/1999/xlink" viewBox="0 0 159.94 191.45">
  <defs>
    <style>
      .cls-1 {
        fill: url(#linear-gradient);
      }

      .cls-1, .cls-2, .cls-3 {
        stroke-width: 0px;
      }

      .cls-3 {
        fill: url(#linear-gradient-2);
      }
    </style>
    <linearGradient id="linear-gradient" x1="29.1" y1="1049.86" x2="130.71" y2="948.26" gradientTransform="translate(0 -886)" gradientUnits="userSpaceOnUse">
      <stop offset="0" stop-color="#612c75"/>
      <stop offset=".2" stop-color="#bf99c3"/>
      <stop offset=".5" stop-color="#bf99c3"/>
      <stop offset=".8" stop-color="#bf99c3"/>
      <stop offset="1" stop-color="#612c75"/>
    </linearGradient>
    <linearGradient id="linear-gradient-2" x1="43.54" y1="1073.7" x2="115.01" y2="1002.25" xlink:href="#linear-gradient"/>
  </defs>
  <g id="Layer_2-2" data-name="Layer 2">
    <g id="Layer_1-2" data-name="Layer 1-2">
      <path class="cls-2" d="M159.47,101.64c.2-.43.48-.84.47-1.47-.4.26-.73.47-1.05.69-3.74,2.66-7.39,5.46-11.23,7.97-8.39,5.49-17.62,5.25-24.5-3.55-2.6-3.33-4.5-7.04-6.04-10.95-11.99-30.42-23.96-60.84-35.95-91.26-.4-1.01-.69-2.08-1.31-3.07-.07.16-.11.23-.13.31-11.76,29.88-23.52,59.76-35.27,89.64-1.88,4.78-3.69,9.6-6.69,13.84-2.39,3.39-5.21,6.3-9.2,7.74-5.91,2.13-11.33.6-16.36-2.65-3.75-2.43-7.35-5.1-11.02-7.64-.33-.23-.6-.71-1.19-.36,1.84,3.89,3.62,7.8,5.54,11.64,2.66,5.32,4.18,10.88,4.45,16.85.34,7.72-2.4,14.02-8.2,19.04-.65.56-.74.85-.21,1.57,5.22,7.15,11.36,13.42,18.18,19.02,16.18,13.3,34.36,21.67,55.64,22.25,1.19.24,2.42-.12,3.61.2h2.16c1.19-.32,2.42.05,3.61-.2,6.13-.13,12.18-.93,18.08-2.58,22.99-6.41,40.99-19.99,55.39-38.73.51-.66.42-.98-.2-1.5-3.81-3.19-6.44-7.18-7.55-12.05-1.53-6.68-.63-13.23,1.89-19.47,2.1-5.19,4.71-10.18,7.09-15.26v-.02h0ZM59.81,175.7c-13.7-1.67-25.4-7.9-36.23-16.07-3.93-2.96-7.57-6.25-11.16-9.87,2.46-.98,4.73-.77,6.93.35,1.32.67,2.53,1.48,3.6,2.53,8.45,8.3,18.51,13.99,29.5,18.15,5.17,1.96,10.48,3.48,15.88,4.7-2.84.56-5.7.55-8.53.21h0ZM79.63,168.66c-3.5.02-6.74-1.18-9.99-2.19-5.89-1.83-11.5-4.31-16.36-8.2-4.04-3.23-7.06-7.16-7.77-12.48-.53-3.94.27-7.71,1.68-11.36,10.72-27.64,21.45-55.28,32.18-82.91.1-.25.1-.56.48-.78,9.87,25.46,19.75,50.91,29.59,76.37,1.45,3.74,3.18,7.39,4.12,11.32,1.86,7.7-.5,14-6.41,19.08-5.05,4.35-11.02,6.97-17.29,8.97-3.34,1.06-6.67,2.16-10.24,2.18h0ZM125.78,166.48c-6.72,3.9-13.79,6.94-21.43,8.51-4.37.9-8.76,1.22-13.2.53,4-.94,7.96-1.99,11.85-3.29,10.91-3.63,21.03-8.73,29.86-16.2,1.46-1.24,2.85-2.57,4.23-3.9,2.87-2.74,6.69-3.68,10.02-2.35-6.47,6.51-13.48,12.15-21.33,16.7Z"/>
      <g>
        <path class="cls-1" d="M13.2,121.91c1.5,7.44,1.11,15.22-1.66,22.26-.16.51-.5,1.03-.52,1.6,1.28-.24,2.78-.72,4.15-.79,4.25-.13,8.23,2.28,11.25,5.22,12.24,11.77,28.9,18.61,45.46,21.7.05-.01.16-.03.22-.04.04-.08-.27-.31-.46-.38-4.6-1.28-9.4-3.06-13.63-5.16-11.7-6.26-19.36-15.56-16-29.37,1.84-5.77,4.42-11.56,6.54-17.37,7.05-17.95,14.17-36.33,21.11-54.42,3.54-8.71,6.73-17.41,10.15-26.07.9.97,1.01,2.49,1.66,3.64.29.5.39,1.08.61,1.65,4.94,12.66,9.66,25.22,14.72,37.84,4.2,11.42,8.86,22.67,13.08,33.99,5.48,15.2,15.54,29.45,1.47,43.44-6.36,5.96-14.53,9.12-22.65,11.89,5.8-.62,11.87-2.58,17.22-4.67,10.16-3.64,19.79-9.29,27.64-16.76,3.83-4.19,9.86-6.37,15.32-4.33-1.98-5.11-3.35-10.58-3.05-16.13-.12-5.64,1.4-11.16,3.52-16.34.01-.12-.09-.13-.26-.06-1.28.57-2.5,1.06-3.76,1.62-5.61,2.44-12.51,2.41-18.04-.57-5.21-2.92-8.69-7.94-11.58-13.04-5.66-12.57-10.15-25.55-15.44-38.34-4.72-12.42-9.72-24.67-14.51-36.93-1.78-4.71-3.64-9.19-5.4-13.86-.09-.21-.24-.51-.4-.62-.21-.16-.33.26-.42.55-.06.17-.13.37-.17.49-1.22,3.21-2.48,6.21-3.76,9.39-.84,2.24-1.73,4.52-2.53,6.61-4.85,12.24-9.79,24.85-14.58,36.96-4.26,10.89-8.65,21.81-12.93,32.73-5.97,13.51-16.85,22.73-31.84,16.36-1.25-.6-2.24-1.32-3.57-1.84,1.29,2.85,2.44,6.01,3.04,9.12v.03Z"/>
        <path class="cls-3" d="M148.59,154.45c-14.96,14.09-36.48,27.84-57.72,25.34-.4-.04-.73-.09-1.1-.19-1.62-.51-3.36-.7-4.86-1.53-2.24-1.27-3.79-3.04-5.03-5.24-.13,0-.27.4-.42.71-1.06,2.06-2.88,3.6-4.93,4.61-2.64,1.21-5.51,1.71-8.35,1.94-1.34.21-2.6.13-4.01.07-4.96-.27-9.84-1.28-14.48-2.76-2.36-.83-4.82-1.87-7.27-2.79-12.25-5.53-23.05-13.7-32.38-23.41-.21-.18-.4-.31-.42-.27-.04.03.08.23.24.45,3.43,4.14,7.22,8,11.25,11.6,13.73,12.29,30.54,21.34,48.93,23.69,13.21,1.23,26.8.89,39.37-3.7,1.66-.5,3.58-1.17,5.01-1.89,2.11-.81,4.19-1.72,6.15-2.85,2.55-1.22,5.01-2.56,7.37-4.18,9.39-5.74,17.99-13.18,25.05-21.65.07-.11.09-.16.02-.11-.74.59-1.56,1.54-2.34,2.09l-.07.06ZM79.72,186.86h0s-.01-.04-.02-.06c.04.02.08.04.12.06h-.11,0Z"/>
      </g>
    </g>
  </g>
</svg>