<?xml version="1.0" encoding="UTF-8"?>
<svg id="Layer_2" data-name="Layer 2" xmlns="http://www.w3.org/2000/svg" xmlns:xlink="http://www.w3.org/1999/xlink" viewBox="0 0 159.94 191.45">
  <defs>
    <style>
      .cls-1 {
        fill: url(#linear-gradient);
      }

      .cls-1, .cls-2, .cls-3 {
        stroke-width: 0px;
      }

      .cls-3 {
        fill: url(#linear-gradient-2);
      }
    </style>
    <linearGradient id="linear-gradient" x1="29.1" y1="30.14" x2="130.71" y2="131.76" gradientTransform="translate(0 194) scale(1 -1)" gradientUnits="userSpaceOnUse">
      <stop offset="0" stop-color="#626e77"/>
      <stop offset=".2" stop-color="#c7e1f1"/>
      <stop offset=".5" stop-color="#c7e1f1"/>
      <stop offset=".8" stop-color="#c7e1f1"/>
      <stop offset="1" stop-color="#626e77"/>
    </linearGradient>
    <linearGradient id="linear-gradient-2" x1="43.56" y1="6.31" x2="115" y2="77.75" xlink:href="#linear-gradient"/>
  </defs>
  <g id="Layer_1-2" data-name="Layer 1">
    <path class="cls-2" d="M159.47,101.64c.2-.43.48-.84.47-1.47-.4.26-.73.47-1.05.69-3.74,2.66-7.39,5.46-11.23,7.97-8.39,5.49-17.62,5.25-24.5-3.55-2.6-3.33-4.5-7.04-6.04-10.95-11.99-30.42-23.96-60.84-35.95-91.26-.4-1.01-.69-2.08-1.31-3.07-.07.16-.11.23-.13.31-11.76,29.88-23.52,59.76-35.27,89.64-1.88,4.78-3.69,9.6-6.69,13.84-2.39,3.39-5.21,6.3-9.2,7.74-5.91,2.13-11.33.6-16.36-2.65-3.75-2.43-7.35-5.1-11.02-7.64-.33-.23-.6-.71-1.19-.36,1.84,3.89,3.62,7.8,5.54,11.64,2.66,5.32,4.18,10.88,4.45,16.85.34,7.72-2.4,14.02-8.2,19.04-.65.56-.74.85-.21,1.57,5.22,7.15,11.36,13.42,18.18,19.02,16.18,13.3,34.36,21.67,55.64,22.25,1.19.24,2.42-.12,3.61.2h2.16c1.19-.32,2.42.05,3.61-.2,6.13-.13,12.18-.93,18.08-2.58,22.99-6.41,40.99-19.99,55.39-38.73.51-.66.42-.98-.2-1.5-3.81-3.19-6.44-7.18-7.55-12.05-1.53-6.68-.63-13.23,1.89-19.47,2.1-5.19,4.71-10.18,7.09-15.26v-.02ZM59.81,175.7c-13.7-1.67-25.4-7.9-36.23-16.07-3.93-2.96-7.57-6.25-11.16-9.87,2.46-.98,4.73-.77,6.93.35,1.32.67,2.53,1.48,3.6,2.53,8.45,8.3,18.51,13.99,29.5,18.15,5.17,1.96,10.48,3.48,15.88,4.7-2.84.56-5.7.55-8.53.21h.01ZM79.63,168.66c-3.5.02-6.74-1.18-9.99-2.19-5.89-1.83-11.5-4.31-16.36-8.2-4.04-3.23-7.06-7.16-7.77-12.48-.53-3.94.27-7.71,1.68-11.36,10.72-27.64,21.45-55.28,32.18-82.91.1-.25.1-.56.48-.78,9.87,25.46,19.75,50.91,29.59,76.37,1.45,3.74,3.18,7.39,4.12,11.32,1.86,7.7-.5,14-6.41,19.08-5.05,4.35-11.02,6.97-17.29,8.97-3.34,1.06-6.67,2.16-10.24,2.18h0ZM125.78,166.48c-6.72,3.9-13.79,6.94-21.43,8.51-4.37.9-8.76,1.22-13.2.53,4-.94,7.96-1.99,11.85-3.29,10.91-3.63,21.03-8.73,29.86-16.2,1.46-1.24,2.85-2.57,4.23-3.9,2.87-2.74,6.69-3.68,10.02-2.35-6.47,6.51-13.48,12.15-21.33,16.7Z"/>
    <g>
      <path class="cls-1" d="M13.2,121.91c.88,4.21,1.05,8.68.68,12.85-.12.47-.27.89-.23,1.42-.24,1.19-.42,2.31-.69,3.54-.4,2.16-1.37,3.9-1.94,6.06.15.1.73-.19,1.08-.26,1.03-.27,2.38-.47,3.37-.57,3.39.16,6.62,1.48,9.15,3.69,12.91,12.6,29.63,20.06,47.27,23.25.48-.02-.08-.36-.33-.44-4.75-1.33-9.69-3.14-14.01-5.37-11.49-6.28-18.82-15.49-15.58-29.03,1.88-5.98,4.41-11.54,6.57-17.48,7.83-19.9,15.5-39.86,23.2-59.77,1.67-4.06,3.16-8.26,4.78-12.23.33-1.2.93-2.18,1.29-3.36.51-1.52,1.2-2.91,1.68-4.46.12-.26.2-.65.33-.64.86,1.02.99,2.48,1.65,3.65.03.05.06.12.09.18.04.07.06.13.04.09-.01-.03,0,.03.02.05.15.39.26.75.39,1.13,5.37,13.95,10.72,27.74,16.16,41.68,4.71,12.25,9.4,24.39,14.21,36.57,1.98,5.91,5.15,11.58,5.97,17.8,1.76,10.72-5.42,19.91-14.44,24.88-4.74,2.77-10.18,4.6-15.19,6.42,5.99-.69,11.79-2.57,17.3-4.71,10.16-3.64,19.97-9.43,27.84-17,3.97-4.22,9.65-5.91,15.04-4.09-2.15-5.32-3.37-10.81-3.06-16.52-.09-5.51,1.51-10.9,3.51-15.96-.08-.17-.46.1-.63.15-1.39.61-2.73,1.14-4.11,1.78-13.47,4.72-22.98-2.52-29.08-14.32-5.6-12.58-10.15-25.54-15.39-38.34-5.29-13.87-10.94-27.53-16.2-41.31-1.16-3.06-2.5-6.11-3.61-9.18-.1-.22-.24-.49-.41-.57-.25-.08-.34.54-.47.85-.1.27-.2.59-.31.85-1.38,3.62-2.91,7.01-4.2,10.65-.39.74-.74,1.73-.95,2.41-.56,1.45-1.06,2.68-1.59,4.05-4.58,11.55-9.21,23.38-13.8,35-2.17,5.69-4.61,11.59-6.9,17.42-3.45,8.22-5.85,17.07-11.2,24.32-6.3,8.91-16.9,12.14-26.91,7.5-.64-.34-1.47-.78-2.19-1.17-.36-.17-.7-.43-1.1-.56-.1-.03-.17-.04-.14.02,1.44,3,2.4,5.91,3.05,9.04v.06Z"/>
      <path class="cls-3" d="M148.61,154.45c-12.58,11.81-27.6,21.78-44.79,25.03-4.76.67-8.95.95-13.63.22-2.97-.67-6.06-1.5-8.15-3.86-.91-.79-1.44-2.02-2.16-3.02-.3.21-.6,1.21-.93,1.57-2.11,3.28-5.98,4.63-9.64,5.34-5.87,1.02-12.16.17-17.88-1.24-16.66-4.55-31.41-14.83-43.4-27.3-.21-.18-.4-.31-.42-.27.27.62.92,1.38,1.45,1.89,7.47,8.5,16.25,16.21,25.99,21.96,15.7,9.86,33.38,13.63,51.73,12.27,8.66-.4,17.37-2.49,25.34-5.83,2.2-.89,4.44-1.8,6.63-3.08,2.45-1.15,4.84-2.48,7.18-4.08,9.39-5.75,17.97-13.15,25.08-21.69.08-.13,0-.07-.04-.04-.64.56-1.71,1.63-2.27,2.05l-.09.07ZM79.72,186.86h0s-.01-.04-.02-.06c.04.02.08.04.12.06h-.11,0Z"/>
    </g>
  </g>
</svg>