<?xml version="1.0" encoding="UTF-8"?>
<svg id="Layer_2" data-name="Layer 2" xmlns="http://www.w3.org/2000/svg" viewBox="0 0 143.44 175.85">
  <defs>
    <style>
      .cls-1 {
        stroke-width: 0px;
      }
    </style>
  </defs>
  <g id="Layer_1-2" data-name="Layer 1">
    <g>
      <path class="cls-1" d="M5.59,110.44c.88,4.21,1.05,8.68.68,12.85-.12.47-.27.89-.23,1.42-.24,1.19-.42,2.31-.69,3.54-.4,2.16-1.37,3.9-1.94,6.06.15.1.73-.19,1.08-.26,1.03-.27,2.38-.47,3.37-.57,3.39.16,6.62,1.48,9.15,3.69,12.91,12.6,29.63,20.06,47.27,23.25.48-.02-.08-.36-.33-.44-4.75-1.33-9.69-3.14-14.01-5.37-11.49-6.28-18.82-15.49-15.58-29.03,1.88-5.98,4.41-11.54,6.57-17.48,7.83-19.9,15.5-39.86,23.2-59.77,1.67-4.06,3.16-8.26,4.78-12.23.33-1.2.93-2.18,1.29-3.36.51-1.52,1.2-2.91,1.68-4.46.12-.26.2-.65.33-.64.86,1.02.99,2.48,1.65,3.65.03.05.06.12.09.18.04.07.06.13.04.09-.01-.03,0,.03.02.05.15.39.26.75.39,1.13,5.37,13.95,10.72,27.74,16.16,41.68,4.71,12.25,9.4,24.39,14.21,36.57,1.98,5.91,5.15,11.58,5.97,17.8,1.76,10.72-5.42,19.91-14.44,24.88-4.74,2.77-10.18,4.6-15.19,6.42,5.99-.69,11.79-2.57,17.3-4.71,10.16-3.64,19.97-9.43,27.84-17,3.97-4.22,9.65-5.91,15.04-4.09-2.15-5.32-3.37-10.81-3.06-16.52-.09-5.51,1.51-10.9,3.51-15.96-.08-.17-.46.1-.63.15-1.39.61-2.73,1.14-4.11,1.78-13.47,4.72-22.98-2.52-29.08-14.32-5.6-12.58-10.15-25.54-15.39-38.34-5.29-13.87-10.94-27.53-16.2-41.31-1.16-3.06-2.5-6.11-3.61-9.18-.1-.22-.24-.49-.41-.57-.25-.08-.34.54-.47.85-.1.27-.2.59-.31.85-1.38,3.62-2.91,7.01-4.2,10.65-.39.74-.74,1.73-.95,2.41-.56,1.45-1.06,2.68-1.59,4.05-4.58,11.55-9.21,23.38-13.8,35-2.17,5.69-4.61,11.59-6.9,17.42-3.45,8.22-5.85,17.07-11.2,24.32-6.3,8.91-16.9,12.14-26.91,7.5-.64-.34-1.47-.78-2.19-1.17-.36-.17-.7-.43-1.1-.56-.1-.03-.17-.04-.14.02,1.44,3,2.4,5.91,3.05,9.04v.06Z"/>
      <path class="cls-1" d="M141,142.98c-12.58,11.81-27.6,21.78-44.79,25.03-4.76.67-8.95.95-13.63.22-2.97-.67-6.06-1.5-8.15-3.86-.91-.79-1.44-2.02-2.16-3.02-.3.21-.6,1.21-.93,1.57-2.11,3.28-5.98,4.63-9.64,5.34-5.87,1.02-12.16.17-17.88-1.24-16.66-4.55-31.41-14.83-43.4-27.3-.21-.18-.4-.31-.42-.27.27.62.92,1.38,1.45,1.89,7.47,8.5,16.25,16.21,25.99,21.96,15.7,9.86,33.38,13.63,51.73,12.27,8.66-.4,17.37-2.49,25.34-5.83,2.2-.89,4.44-1.8,6.63-3.08,2.45-1.15,4.84-2.48,7.18-4.08,9.39-5.75,17.97-13.15,25.08-21.69.08-.13,0-.07-.04-.04-.64.56-1.71,1.63-2.27,2.05l-.09.07ZM72.12,175.39h0s-.01-.04-.02-.06c.04.02.08.04.12.06h-.11,0Z"/>
    </g>
  </g>
</svg>