<?xml version="1.0" encoding="UTF-8" standalone="no"?>
<svg
   id="Layer_2"
   data-name="Layer 2"
   viewBox="0 0 143.43423 175.82527"
   version="1.1"
   width="143.43423"
   height="175.82527"
   xmlns="http://www.w3.org/2000/svg"
   xmlns:svg="http://www.w3.org/2000/svg">
  <defs
     id="defs1">
    <style
       id="style1">
      .cls-1 {
        stroke-width: 0px;
      }
    </style>
  </defs>
  <g
     id="Layer_1-2"
     data-name="Layer 1"
     transform="translate(0,-0.01294168)">
    <g
       id="g2">
      <path
         class="cls-1"
         d="m 5.59,110.44 c 0.88,4.21 1.05,8.68 0.68,12.85 -0.12,0.47 -0.27,0.89 -0.23,1.42 -0.24,1.19 -0.42,2.31 -0.69,3.54 -0.4,2.16 -1.37,3.9 -1.94,6.06 0.15,0.1 0.73,-0.19 1.08,-0.26 1.03,-0.27 2.38,-0.47 3.37,-0.57 3.39,0.16 6.62,1.48 9.15,3.69 12.91,12.6 29.63,20.06 47.27,23.25 0.48,-0.02 -0.08,-0.36 -0.33,-0.44 -4.75,-1.33 -9.69,-3.14 -14.01,-5.37 -11.49,-6.28 -18.82,-15.49 -15.58,-29.03 1.88,-5.98 4.41,-11.54 6.57,-17.48 7.83,-19.9 15.5,-39.86 23.2,-59.77 1.67,-4.06 3.16,-8.26 4.78,-12.23 0.33,-1.2 0.93,-2.18 1.29,-3.36 0.51,-1.52 1.2,-2.91 1.68,-4.46 0.12,-0.26 0.2,-0.65 0.33,-0.64 0.86,1.02 0.99,2.48 1.65,3.65 0.03,0.05 0.06,0.12 0.09,0.18 0.04,0.07 0.06,0.13 0.04,0.09 -0.01,-0.03 0,0.03 0.02,0.05 0.15,0.39 0.26,0.75 0.39,1.13 5.37,13.95 10.72,27.74 16.16,41.68 4.71,12.25 9.4,24.39 14.21,36.57 1.98,5.91 5.15,11.58 5.97,17.8 1.76,10.72 -5.42,19.91 -14.44,24.88 -4.74,2.77 -10.18,4.6 -15.19,6.42 5.99,-0.69 11.79,-2.57 17.3,-4.71 10.16,-3.64 19.97,-9.43 27.84,-17 3.97,-4.22 9.65,-5.91 15.04,-4.09 -2.15,-5.32 -3.37,-10.81 -3.06,-16.52 -0.09,-5.51 1.51,-10.9 3.51,-15.96 -0.08,-0.17 -0.46,0.1 -0.63,0.15 -1.39,0.61 -2.73,1.14 -4.11,1.78 -13.47,4.72 -22.98,-2.52 -29.08,-14.32 C 102.32,76.84 97.77,63.88 92.53,51.08 87.24,37.21 81.59,23.55 76.33,9.77 75.17,6.71 73.83,3.66 72.72,0.59 72.62,0.37 72.48,0.1 72.31,0.02 c -0.25,-0.08 -0.34,0.54 -0.47,0.85 -0.1,0.27 -0.2,0.59 -0.31,0.85 -1.38,3.62 -2.91,7.01 -4.2,10.65 -0.39,0.74 -0.74,1.73 -0.95,2.41 -0.56,1.45 -1.06,2.68 -1.59,4.05 -4.58,11.55 -9.21,23.38 -13.8,35 -2.17,5.69 -4.61,11.59 -6.9,17.42 -3.45,8.22 -5.85,17.07 -11.2,24.32 -6.3,8.91 -16.9,12.14 -26.91,7.5 -0.64,-0.34 -1.47,-0.78 -2.19,-1.17 -0.36,-0.17 -0.7,-0.43 -1.1,-0.56 -0.1,-0.03 -0.17,-0.04 -0.14,0.02 1.44,3 2.4,5.91 3.05,9.04 v 0.06 z"
         id="path1" />
      <path
         class="cls-1"
         d="m 141,142.98 c -12.58,11.81 -27.6,21.78 -44.79,25.03 -4.76,0.67 -8.95,0.95 -13.63,0.22 -2.97,-0.67 -6.06,-1.5 -8.15,-3.86 -0.91,-0.79 -1.44,-2.02 -2.16,-3.02 -0.3,0.21 -0.6,1.21 -0.93,1.57 -2.11,3.28 -5.98,4.63 -9.64,5.34 -5.87,1.02 -12.16,0.17 -17.88,-1.24 -16.66,-4.55 -31.41,-14.83 -43.4,-27.3 -0.21,-0.18 -0.4,-0.31 -0.42,-0.27 0.27,0.62 0.92,1.38 1.45,1.89 7.47,8.5 16.25,16.21 25.99,21.96 15.7,9.86 33.38,13.63 51.73,12.27 8.66,-0.4 17.37,-2.49 25.34,-5.83 2.2,-0.89 4.44,-1.8 6.63,-3.08 2.45,-1.15 4.84,-2.48 7.18,-4.08 9.39,-5.75 17.97,-13.15 25.08,-21.69 0.08,-0.13 0,-0.07 -0.04,-0.04 -0.64,0.56 -1.71,1.63 -2.27,2.05 l -0.09,0.07 z m -68.88,32.41 v 0 c 0,0 -0.01,-0.04 -0.02,-0.06 0.04,0.02 0.08,0.04 0.12,0.06 h -0.11 v 0 z"
         id="path2" />
    </g>
  </g>
</svg>
