<svg xmlns="http://www.w3.org/2000/svg" xmlns:xlink="http://www.w3.org/1999/xlink" width="600.001" height="459.596"><linearGradient id="a" x1="0" x2="1" y1="0" y2="0" gradientTransform="scale(38.95605 -38.95605)rotate(50 10.482 10.878)" gradientUnits="userSpaceOnUse" spreadMethod="pad"><stop offset="0" style="stop-color:#bf331c"/><stop offset=".3" style="stop-color:#d3641c"/><stop offset=".5" style="stop-color:#f6b91d"/><stop offset=".7" style="stop-color:#d3641c"/><stop offset="1" style="stop-color:#bf331c"/></linearGradient><linearGradient xlink:href="#a" id="b" x1="0" x2="1" y1="0" y2="0" gradientTransform="rotate(50 15.666 196.945)scale(447.60067)" gradientUnits="userSpaceOnUse" spreadMethod="pad"/><path d="M264.773 459.595c-62.62 0-149.242-9.961-206.06-57.495-43.087-36.032-64.987-90.207-57.14-141.326 5.436-35.411 24.06-66.02 38.699-85.415l4.527-6.01 82.176-.413-.494-106.006 6.067-4.63C184.344 19.257 244.08 1.264 326.348.092 329.31.046 332.276 0 335.228 0c62.667 0 149.243 9.962 206.06 57.495 43.088 36.044 64.988 90.219 57.14 141.337-5.481 35.412-24.06 66.021-38.698 85.416l-4.527 6.056-82.176.356.494 106.017-6.067 4.62c-51.796 39.042-111.578 57.047-193.8 58.207-2.964.046-5.928.092-8.881.092"/><path d="M326.565 15.259c-68.48 1.034-129.927 13.787-184.814 55.208.126 37.883.31 75.765.494 113.647-29.943.126-59.92.264-89.817.402-17.545 23.198-31.551 50.854-35.814 78.59-7.32 47.707 14.133 95.827 51.843 127.332 51.118 42.73 132.04 54.979 204.98 53.899 68.479-1.034 129.927-13.73 184.814-55.209-.172-37.87-.31-75.753-.494-113.635 29.943-.138 59.874-.23 89.862-.356 17.5-23.302 31.506-50.854 35.768-78.637 7.32-47.706-14.132-95.78-51.842-127.33-49.096-41.066-125.71-53.957-196.316-53.957-2.92 0-5.791 0-8.664.046M173.118 153.057c15.304-25.634 51.75-33.171 85.416-37.928 59.46-8.4 110.544-7.997 165.213-1.666 17.499 2.022 35.366 4.676 51.164 12.616 20.648 10.363 37.79 29.804 38.457 48.97.77 20.773-17.855 41.237-40.077 53.715-5.067 2.838-10.318 5.25-15.706 7.319l-.31-71.226a258.6 258.6 0 0 0-43.272-25.14c-18.717-8.525-38.514-14.718-58.667-18.58l.276 62.035c-63.55.264-127.113.54-190.663.85 0-11.088 2.826-22.084 8.169-30.965m68.755 94.022c-25.76-3.907-53.542-11.306-67.09-29.886-.46-.632-.861-1.264-1.263-1.884 22.624-3.86 46.408-4.274 69.17-5.079 38.778-1.39 74.546-3.952 115.392 2.287 25.806 3.907 53.589 11.363 67.136 29.897.413.632.86 1.252 1.263 1.884-22.623 3.86-46.407 4.263-69.215 5.067-19.66.724-38.594 1.712-57.805 1.712-18.58 0-37.48-.942-57.588-3.998m-65.618 99.054c-17.5-2.01-35.366-4.665-51.21-12.605-20.602-10.375-37.745-29.758-38.411-48.924-.77-20.83 17.809-41.34 40.076-53.772a113 113 0 0 1 15.707-7.273l.31 71.237c13.558 9.686 28.059 18.177 43.27 25.082 18.718 8.526 38.515 14.719 58.668 18.58-.091-20.648-.183-41.33-.321-62.023l190.709-.85c-.046 11.042-2.827 22.118-8.123 30.965-15.35 25.588-51.797 33.217-85.508 37.974-30.92 4.355-59.552 6.32-87.645 6.32-25.898 0-51.302-1.655-77.522-4.711" style="fill:url(#b)"/></svg>