<svg xmlns="http://www.w3.org/2000/svg" width="569.621" height="429.206"><path d="M458.102 213.567c-5.067 2.838-10.272 5.217-15.707 7.32-.092-23.785-.23-47.488-.31-71.226-13.558-9.744-28.058-18.223-43.27-25.14-18.718-8.526-38.515-14.719-58.668-18.58l.276 62.035c-63.55.264-127.113.54-190.664.804.046-10.996 2.827-22.038 8.124-30.92 15.35-25.587 51.75-33.217 85.507-37.974 59.415-8.353 110.5-7.95 165.168-1.62 17.5 2.023 35.366 4.677 51.164 12.616 20.648 10.364 37.79 29.76 38.457 48.97.77 20.774-17.81 41.283-40.077 53.715M158.33 200.113c22.624-3.86 46.408-4.274 69.215-5.079 38.733-1.39 74.5-3.906 115.347 2.287 25.807 3.906 53.59 11.317 67.101 29.896.495.633.897 1.253 1.3 1.885-22.625 3.86-46.409 4.263-69.216 5.067-38.733 1.39-74.5 3.952-115.347-2.287-25.807-3.906-53.59-11.352-67.136-29.885-.46-.632-.86-1.264-1.264-1.884m253.41 91.241c-15.35 25.623-51.797 33.217-85.508 37.974-59.414 8.388-110.498 7.94-165.167 1.61-17.5-2.012-35.366-4.666-51.165-12.606-20.647-10.375-37.79-29.804-38.456-48.97-.77-20.785 17.81-41.248 40.076-53.726 5.067-2.827 10.272-5.205 15.707-7.273l.31 71.191c13.558 9.732 28.058 18.177 43.27 25.128 18.718 8.526 38.515 14.72 58.668 18.625l-.276-62.068c63.551-.276 127.113-.54 190.664-.85-.046 11.042-2.827 22.118-8.124 30.965m104.616-237.38C465.236 11.241 384.313-1.007 311.375.063c-68.48 1.032-129.928 13.74-184.815 55.207.127 37.882.31 75.765.494 113.647-29.943.126-59.874.264-89.863.401-17.499 23.245-31.505 50.855-35.768 78.591-7.319 47.706 14.133 95.826 51.843 127.331 51.118 42.731 132.042 54.98 204.98 53.9 68.48-.989 129.927-13.777 184.814-55.164-.126-37.916-.31-75.798-.493-113.68 29.943-.092 59.874-.23 89.862-.403 17.5-23.21 31.506-50.854 35.768-78.59 7.32-47.707-14.132-95.827-51.842-127.332"/></svg>