<?xml version="1.0" encoding="UTF-8" standalone="no"?>
<svg
   version="1.1"
   width="600"
   height="631.39471"
   id="svg9"
   xmlns:xlink="http://www.w3.org/1999/xlink"
   xmlns="http://www.w3.org/2000/svg"
   xmlns:svg="http://www.w3.org/2000/svg">
  <defs
     id="defs9" />
  <linearGradient
     x1="358.23572"
     y1="-1069.9309"
     x2="233.50645"
     y2="-1023.5629"
     id="linearGradient4064"
     xlink:href="#linearGradient642"
     gradientUnits="userSpaceOnUse"
     gradientTransform="matrix(2.5068448,0,0,2.5068448,-459.37948,2828.1396)" />
  <linearGradient
     x1="0"
     y1="0"
     x2="1"
     y2="0"
     id="linearGradient642"
     gradientUnits="userSpaceOnUse"
     gradientTransform="matrix(31.895508,0,0,-31.895508,466.73633,146.39844)"
     spreadMethod="pad">
    <stop
       style="stop-color:#612c75"
       offset="0"
       id="stop1" />
    <stop
       style="stop-color:#7b5190"
       offset="0.3"
       id="stop2" />
    <stop
       style="stop-color:#bf99c3"
       offset="0.5"
       id="stop3" />
    <stop
       style="stop-color:#7b5190"
       offset="0.7"
       id="stop4" />
    <stop
       style="stop-color:#612c75"
       offset="1"
       id="stop5" />
  </linearGradient>
  <path
     style="fill:#ffffff;stroke:#ffffff;stroke-width:34.1731;stroke-miterlimit:4"
     d="m 582.91342,293.70599 a 274.75408,276.52667 0 1 1 -549.508129,0 274.75408,276.52667 0 1 1 549.508129,0 z"
     id="path5" />
  <path
     style="fill:url(#linearGradient4064);stroke:#ffffff;stroke-width:21.3403;stroke-miterlimit:4"
     d="m 582.91342,293.70599 a 274.75408,276.52667 0 1 1 -549.508129,0 274.75408,276.52667 0 1 1 549.508129,0 z"
     id="path6" />
  <path
     style="fill:#ffffff;stroke-width:8.51293"
     d="M 64.85308,162.04288 C 24.33647,211.63238 0,275.09207 0,344.2043 c 0,158.45122 127.92051,287.19043 285.46678,287.19043 157.54652,0 285.38878,-128.73921 285.38878,-287.19043 l -15.77147,69.37803 -33.46185,54.69907 -53.5783,49.3257 -60.51416,33.44697 -50.94198,16.31897 -59.02612,2.01359 -50.86145,-6.4666 L 187.84425,539.28302 124.68367,501.10083 74.92708,441.39241 46.49957,374.11177 34.0129,299.9604 38.58077,237.47531 Z"
     id="path7" />
  <path
     style="fill:#ffffff;stroke:#ffffff;stroke-width:2.52424px"
     d="m 105.87984,242.48063 25.24241,10.09697 c 16.95459,-47.76976 54.48425,-72.02319 82.56317,-61.69373 19.32332,7.10851 43.55857,35.13971 26.29477,73.05281 -12.63106,27.73941 -87.62073,99.93702 -135.04694,150.50794 l 0.31553,20.825 181.42989,0.31552 21.77158,-78.88256 H 283.8389 c -6.88614,23.53553 -19.26527,31.27814 -32.81515,35.65492 l -88.97953,-0.94659 c 38.53735,-46.3259 83.7801,-69.24148 112.6443,-104.75605 28.88314,-35.53779 20.69323,-92.41022 -5.04848,-116.43066 -56.39637,-52.62464 -140.60053,-10.51018 -163.7602,72.25643 z"
     id="path8" />
  <path
     style="fill:#ffffff;stroke-width:8.027"
     d="m 423.33507,144.11193 c -69.8165,-1.26944 -100.81999,93.88615 -97.90399,152.16207 3.05105,60.98064 26.97254,143.1654 101.02749,143.2376 69.21699,0.0682 99.85169,-94.00126 100.13516,-147.25367 0.46422,-87.13633 -40.30154,-147.00151 -103.25866,-148.146 z m 0.44603,28.22607 c 39.35319,-0.22466 51.51953,74.46892 53.1676,121.70481 1.55671,44.61901 -5.65606,122.80942 -50.04384,119.47389 -39.06947,-2.93569 -50.8867,-72.39475 -51.38297,-118.58131 -0.42105,-39.20804 1.0314,-122.32805 48.25921,-122.59739 z"
     id="path9" />
</svg>
