<?xml version="1.0" encoding="UTF-8" standalone="no"?>
<svg
   version="1.1"
   width="528.16797"
   height="531.89844"
   id="svg1"
   xmlns="http://www.w3.org/2000/svg"
   xmlns:svg="http://www.w3.org/2000/svg">
  <defs
     id="defs1" />
  <path
     d="M 264.084,0 C 118.11052,10e-7 -0.04905472,118.91855 1.5278021e-5,265.94532 v 0.004 0.004 C -0.04905472,412.98009 118.11052,531.89844 264.084,531.89844 c 145.97347,0 264.13305,-118.91854 264.08398,-265.94531 v -0.004 -0.004 C 528.21705,118.91836 410.05747,0 264.084,0 Z m 115.17578,116.35547 c 62.95712,1.14449 103.72203,61.01016 103.25781,148.14649 -0.28347,53.25241 -30.91778,147.32015 -100.13477,147.25195 -74.05495,-0.0722 -97.97629,-82.25569 -101.02734,-143.23633 -2.916,-58.27592 28.0878,-153.43155 97.9043,-152.16211 z m -212.01563,1.64258 c 20.65977,-0.40122 41.33788,6.89649 59.18164,23.54687 13.18528,12.30362 21.7291,32.79266 23.4043,54.72266 1.6752,21.93 -3.55207,45.35589 -18.23828,63.42578 -28.64795,35.24849 -72.85622,58.04911 -110.81836,102.72852 l 85.9668,0.91406 c 13.27509,-4.31962 25.04886,-11.63397 31.81054,-34.74414 l 0.26563,-0.9082 h 27.21484 l -22.46875,81.4082 -183.632807,-0.31836 -0.3418,-22.57617 0.34961,-0.37305 c 23.73515,-25.30897 54.335877,-55.99946 80.572267,-83.81836 26.23638,-27.8189 48.14978,-52.96133 54.24609,-66.34961 8.49099,-18.64709 6.75326,-34.66438 0.5918,-46.99023 -6.16147,-12.32586 -16.85617,-20.92777 -26.17383,-24.35547 -13.56812,-4.99134 -29.52048,-1.66294 -44.2832,8.90234 -14.76273,10.56528 -28.252657,28.35759 -36.654297,52.0293 l -0.43945,1.23828 -26.46094,-10.58594 -1.05273,-0.41992 0.30468,-1.09179 c 11.67182,-41.71204 38.72506,-73.23211 70.103517,-87.70508 11.76692,-5.42737 24.15687,-8.43896 36.55273,-8.67969 z m 212.46094,26.58398 c -47.22781,0.26934 -48.68082,83.38767 -48.25977,122.59571 0.49627,46.18656 12.31335,115.64634 51.38282,118.58203 44.38778,3.33553 51.60163,-74.8556 50.04492,-119.47461 -1.64807,-47.23589 -13.81478,-121.92779 -53.16797,-121.70313 z"
     id="path1" />
</svg>
