<svg xmlns="http://www.w3.org/2000/svg" width="600" height="286.837"><radialGradient id="a" cx="0" cy="0" r="1" fx="0" fy="0" gradientTransform="matrix(21.8561 0 0 -21.8561 400.234 31.442)" gradientUnits="userSpaceOnUse" spreadMethod="pad"><stop offset="0" style="stop-color:#d9eaf3"/><stop offset=".663" style="stop-color:#99aebc"/><stop offset="1" style="stop-color:#536e78"/></radialGradient><path d="M546.71 71.575c-11.436 9.877-24.202 19.579-32.528 19.579-1.588 0-2.742-.323-4.256-2.059l-23.4-26.677-3.572 35.336c-.213 1.763-.499 3.932-.72 5.16-1.33 2.446-1.837 2.483-4.219 2.668-2.307 0-6.489-2.271-10.2-4.33a107 107 0 0 0-3.36-1.8l3.499-84.563-34.616 57.554L409.505 0 396.96 79.145l-51.452-52.099 24.84 82.966c-6.739 5.88-15.176 11.363-20.41 11.363-7.356 0-9.738-3.323-10.024-3.757l-3.425-11.464-58.846 9.628 1.837 11.464L0 165.545l8.04 55.92 280.348-38.003 1.735 10.855 48.24-6.203c.683 1.661.979 3.064.868 3.932-.074.757-1.366 1.69-1.948 2.086-5.05 3.499-13.09 5.41-22.606 5.41-3.61 0-6.166-.286-6.563-.324l-22.828-3.065 5.806 22.247c6.166 23.695 34.219 68.437 96.351 68.437 86.575 0 157.172-71.244 193.265-191.604C594.157 50.41 600 9.987 600 9.987s-23.114 35.557-53.29 61.588" style="fill:#fff"/><path d="m421.588 155.335 1.874-.037c25.495-1.19 27.941-26.316 27.941-26.575.074-1.043-.572-1.975-1.588-2.308-.248-.066-.461-.066-.683-.066-.83 0-1.587.397-2.012 1.117-.074.101-8.012 13.228-24.526 14.603-.932.037-1.874.074-2.779.074-15 0-24.692-10.283-24.803-10.385-.47-.47-1.043-.729-1.698-.729-.397 0-.757.074-1.154.259-.895.498-1.33 1.55-1.08 2.557.074.221 6.748 21.489 30.508 21.489m-75.545 16.228-43.015 5.52-1.726-10.93-280.173 37.966-3.637-25.384 279.693-38.29-1.874-11.898 30.323-4.975s5.52 13.227 24.268 13.227c17.963 0 38.363-22.606 38.363-22.606l-12.979-36.415 26.576 30.572a69 69 0 0 1 7.606-2.16l4.975-44.418 11.65 42.978c2.455.111 4.938.323 7.54.72l17.77-34.292-3.314 37.93c1.514.544 3.065 1.153 4.653 1.808 8.547 3.563 16.984 10.819 26.713 10.062 8.871-.692 13.385-4.763 17.207-12.295.895-1.81 1.652-9.379 1.652-9.379 24.194 27.655 73.883-31.985 73.883-31.985-30.25 124.468-97.966 204.084-184.754 204.084-66.563 0-81.425-56.899-81.425-56.899s24.056 3.397 40.025-7.643c16.015-11.03 6.092-28.126 0-35.298" style="fill:#536e78"/><path d="M424.203 38.371q-.751 0-1.355.348a1.7 1.7 0 0 0-.098-.297c-.527-1.039-1.207-1.52-2.27-1.606a3 3 0 0 0-.199-.007c-.804 0-1.515.394-2.144.738a8 8 0 0 1-.785.398 16 16 0 0 1-.477.188l-.363.125.031.387.141 1.597-.766-1.472-.16-.317-.356.051a6 6 0 0 1-.761.07l-.368.016-.093.355-.578 2.121-.247-2.203-.039-.355-.347-.078a7 7 0 0 1-.766-.215l-.32-.117-.223.257-1.144 1.317.515-1.453.102-.281-.199-.219c-.098-.11-2.387-2.617-4.524-2.617-1.691 0-2.539.875-2.89 1.382l-2.454-.398.125-.797.079-.508-.504-.066-29.805-4.086.254-1.758 29.859 4.051.485.062.078-.48.113-.707 4.176.535.269.035.176-.211c.289-.336 1.207-1.543 1.035-2.828-.094-.695-.476-1.273-1.133-1.73-1.16-.797-2.64-.965-3.675-.965q-.114-.001-.215.004c.652-1.532 2.754-5.117 8.09-5.117 8.5 0 15.531 7.378 19.035 19.843-1.344-1.297-3.453-2.992-5.305-2.992m-9.961-2.84c1.488.121 2.238 1.297 2.274 1.352.14.219.379.351.64.351l.149-.007.074-.024a.75.75 0 0 0 .523-.765c-.07-.887-.832-3.215-3.511-3.34l-.219-.004c-2.297 0-3.457 1.679-3.785 2.691a.75.75 0 0 0 .386.867c.11.047.223.075.336.075a.75.75 0 0 0 .555-.243c.008-.007.93-.961 2.316-.961q.131.001.262.008" style="fill:url(#a)" transform="matrix(9.23077 0 0 -9.23077 -3401.539 465.434)"/></svg>