<svg xmlns="http://www.w3.org/2000/svg" width="208.833" height="121.613" viewBox="0 0 55.254 32.177"><path d="M54.956 0c-1.013 1.471-1.951 3.006-3.123 4.36-1.672 1.969-4.035 3.401-6.66 3.521a15.5 15.5 0 0 1 .166 2.65 6.7 6.7 0 0 1-2.79-.325 132 132 0 0 0-1.56-7.578c-.727 1.891-1.46 3.782-2.176 5.676-1.277-1.834-2.47-3.728-3.687-5.601a317 317 0 0 0-.06 7.097c-1.933-1.181-3.81-2.459-5.75-3.63 1.206 2.49 2.455 4.964 3.58 7.49-.645.952-1.587 1.908-2.804 1.968-.812-.018-1.302-.705-1.828-1.213-1.816.673-3.595 1.45-5.418 2.113l.405 1.058C15.501 20.62 7.758 23.682 0 26.702c.674 1.83 1.334 3.669 2.078 5.475 7.747-3.08 15.536-6.057 23.29-9.12.734 2.103 1.722 4.177 3.31 5.779 2.095 2.152 5.09 3.39 8.103 3.274 4.614-.222 8.995-2.628 11.874-6.209 3.655-4.459 5.334-10.185 6.124-15.808.413-3.34.734-6.749.177-10.093m-.921 3.651c-.194 6.396-1.16 12.98-4.343 18.624-2.046 3.647-5.33 6.688-9.37 7.937-2.62.857-5.616.963-8.114-.332-1.697-.8-3.02-2.187-4.095-3.693 1.45.074 3.07-.558 3.64-1.986.54-1.136.067-2.357-.278-3.468-1.68.512-3.317 1.153-4.964 1.76q-.206-.529-.406-1.058c-7.764 3.073-15.564 6.046-23.322 9.137a114 114 0 0 1-1.21-3.158c7.765-3.02 15.512-6.081 23.27-9.122-.135-.35-.262-.699-.389-1.048 1.133-.441 2.258-.907 3.394-1.348.73.572 1.61 1.112 2.586.95 1.796-.195 2.988-1.733 3.95-3.109-.747-1.386-1.368-2.836-2.105-4.226 1.33.833 2.656 1.675 3.958 2.554-.003-1.736.018-3.471.085-5.207a91 91 0 0 1 2.723 4.216c.554-1.376 1.073-2.77 1.609-4.152.307 1.453.575 2.917.91 4.367 1.323.332 2.738.769 4.093.331.998-.483.934-1.732.962-2.667 3.154-.536 5.536-2.874 7.416-5.302M43.342 14.14c-.5.804-.885 1.718-1.637 2.339-1.39 1.312-3.595 1.57-5.306.769-.444-.127-.864-.512-1.34-.357 1.097 3.295 6.357 3.616 8.043.625.494-.995 1.002-2.396.24-3.376" style="fill:#fff"/><path d="M46.62 8.954c3.153-.537 5.535-2.875 7.415-5.303-.194 6.396-1.16 12.98-4.343 18.624-2.046 3.647-5.33 6.688-9.37 7.937-2.62.857-5.616.963-8.114-.332-1.696-.8-3.02-2.187-4.095-3.693 1.45.074 3.069-.558 3.64-1.986.54-1.136.067-2.357-.278-3.468-1.68.511-3.316 1.153-4.964 1.76q-.205-.529-.406-1.058c-7.764 3.073-15.564 6.047-23.322 9.137a114 114 0 0 1-1.21-3.157c7.765-3.02 15.512-6.082 23.27-9.123-.135-.35-.262-.699-.389-1.048 1.133-.441 2.258-.907 3.394-1.348.73.572 1.609 1.112 2.586.95 1.796-.195 2.988-1.733 3.951-3.109-.748-1.386-1.369-2.836-2.106-4.226 1.33.833 2.656 1.676 3.958 2.554a128 128 0 0 1 .085-5.207 91 91 0 0 1 2.723 4.216c.554-1.376 1.073-2.77 1.609-4.152.307 1.453.575 2.917.91 4.367 1.323.332 2.738.77 4.092.332.999-.484.935-1.732.963-2.667m-3.277 5.185c-.5.805-.885 1.719-1.637 2.34-1.39 1.312-3.595 1.57-5.306.768-.444-.127-.864-.511-1.34-.356 1.097 3.295 6.357 3.616 8.043.625.494-.995 1.002-2.396.24-3.377"/></svg>