<svg xmlns="http://www.w3.org/2000/svg" xmlns:xlink="http://www.w3.org/1999/xlink" width="58.788" height="50"><defs><radialGradient xlink:href="#a" id="b" cx="-50.311" cy="117.946" r="1.25" gradientTransform="matrix(17.5713 0 0 -17.5713 913.412 2097.533)" gradientUnits="userSpaceOnUse"/><radialGradient xlink:href="#a" id="c" cx="-50.311" cy="117.946" r="1.25" gradientTransform="matrix(17.5713 0 0 -17.5713 913.412 2097.533)" gradientUnits="userSpaceOnUse"/></defs><path fill="#fff" d="M41.089 0H17.595l-.112.015c-1.584.168-3.78 1.313-4.513 3.712-1.993.558-9.499 2.649-9.499 2.649l-.095.035C2.084 6.907 0 8.577 0 11.634c0 .548.068 1.141.217 1.777L9.18 46.867l.246.329c1.014 1.351 3.481 3.426 6.298 2.621 0 0 12.636-3.476 13.679-3.761 1.041.285 13.691 3.766 13.691 3.766 2.798.8 5.264-1.273 6.278-2.626l.247-.329 8.946-33.395a8 8 0 0 0 .223-1.821c0-3.08-2.075-4.745-3.364-5.24l-.095-.035s-7.507-2.092-9.5-2.649C45.097 1.328 42.9.183 41.315.011L41.203 0Z"/><path fill="url(#a)" d="M17.71 2.13s-2.879.309-2.879 3.289L4.141 8.4s-2.674 1.027-1.852 4.521l8.841 32.997s1.851 2.468 4.009 1.853l14.264-3.924 14.258 3.924c2.157.615 4.009-1.853 4.009-1.853l8.841-32.997c.82-3.493-1.85-4.521-1.85-4.521L43.969 5.419c0-2.98-2.88-3.289-2.88-3.289z" style="fill:url(#b)"/><path fill="#fff" d="M17.804 3.363a2.6 2.6 0 0 0-.937.374c-.549.369-.803.902-.803 1.682v.938S4.718 9.521 4.554 9.565c-.296.139-1.188.674-1.188 2.095 0 .288.038.61.123.975.016.059 8.621 32.185 8.761 32.702.381.428 1.496 1.547 2.549 1.248l14.603-4.019 14.597 4.019c1.054.299 2.168-.82 2.549-1.248.14-.518 8.747-32.644 8.763-32.702a4.4 4.4 0 0 0 .122-.975c0-1.421-.893-1.956-1.188-2.095-.162-.044-11.511-3.208-11.511-3.208v-.938c0-.779-.256-1.313-.802-1.682a2.6 2.6 0 0 0-.938-.374Z"/><path fill="url(#a)" d="M17.939 4.906h22.957c.48 0 .547.614.547.614v34.129c0 .549-.547.685-.547.685H17.939c-.479 0-.479-.685-.479-.685V5.521c.001-.41.479-.615.479-.615M5.397 10.868c-.821.273-.479 1.302-.479 1.302l8.77 32.551c.345.751 1.03.41 1.03.41l11.925-3.288h-8.909c-1.646 0-1.919-2.058-1.919-2.058V8.056Zm37.586-2.881v31.729s-.274 2.056-1.919 2.056h-8.907l11.922 3.29s.686.345 1.028-.41l8.772-32.554s.343-1.027-.48-1.299z" style="fill:url(#c)"/><radialGradient id="a" cx="-50.311" cy="117.946" r="1.25" gradientTransform="matrix(17.5713 0 0 -17.5713 913.412 2097.533)" gradientUnits="userSpaceOnUse"><stop offset="0" style="stop-color:#bf99c3"/><stop offset=".7" style="stop-color:#7b5190"/><stop offset="1" style="stop-color:#612c75"/></radialGradient><path fill="#612c75" d="M36.855 34.682H20.363v-.39q7.585-7.697 9.208-10.357 1.62-2.66 1.62-5.197c0-1.233-.445-2.258-1.344-3.074q-1.34-1.223-3.285-1.224-3.182-.001-4.939 2.714l-.764-.23q1.117-3.383 3.389-5.004 2.274-1.62 5.249-1.619 2.131-.001 3.887.844 1.758.846 2.747 2.316.992 1.473.993 2.757 0 2.344-1.53 4.759-2.086 3.258-9.114 9.091h6.058c1.486 0 2.456-.053 2.902-.159q.67-.158 1.106-.536.433-.381 1.135-1.595h.745z"/><path fill="#fff" d="M36.455 34.181H21.177c4.856-4.948 7.743-8.216 8.823-9.984 1.121-1.846 1.689-3.683 1.689-5.46 0-1.378-.508-2.534-1.506-3.442-.984-.898-2.202-1.354-3.62-1.354-2.052 0-3.717.793-4.95 2.364.702-1.755 1.684-3.09 2.927-3.979 1.42-1.013 3.085-1.527 4.957-1.527 1.336 0 2.571.267 3.668.795 1.088.524 1.945 1.245 2.551 2.146.603.893.908 1.727.908 2.479 0 1.459-.488 2.973-1.452 4.491-1.355 2.115-4.388 5.136-9.01 8.97l-1.065.886h7.441c1.545 0 2.534-.056 3.018-.17.521-.125.964-.341 1.318-.643.244-.215.515-.559.831-1.05z"/></svg>