<svg xmlns="http://www.w3.org/2000/svg" width="54.536" height="45.739" viewBox="0 0 54.536 45.739"><path d="M15.575 0s-2.879.31-2.879 3.29L2.01 6.27S-.666 7.297.157 10.79L9 43.787s1.85 2.469 4.008 1.854l14.262-3.924 14.26 3.924c2.156.615 4.01-1.854 4.01-1.854l8.84-32.996c.82-3.493-1.85-4.521-1.85-4.521L41.836 3.29c0-2.98-2.88-3.29-2.88-3.29zm.096 1.232h23.19c.136.024.55.113.94.373.545.37.8.905.8 1.684v.938S51.95 7.39 52.112 7.434c.295.139 1.188.674 1.188 2.095 0 .288-.037.61-.12.975-.017.058-8.625 32.185-8.765 32.703-.38.428-1.495 1.547-2.549 1.248l-14.597-4.02-14.602 4.02c-1.053.3-2.169-.82-2.549-1.248-.14-.517-8.745-32.644-8.76-32.703a4.2 4.2 0 0 1-.125-.975c0-1.42.894-1.956 1.19-2.095.162-.044 11.506-3.207 11.506-3.207v-.938c0-.78.255-1.315.806-1.684.387-.26.8-.349.936-.373m.137 1.543s-.48.206-.479.616v34.127s0 .685.48.685h22.956s.547-.136.547-.685V3.388s-.067-.613-.547-.613zm25.043 3.08v31.73s-.273 2.056-1.918 2.056h-8.909l11.922 3.29s.688.345 1.03-.41l8.771-32.554s.344-1.027-.48-1.299zm-27.166.07L3.267 8.737c-.822.274-.479 1.303-.479 1.303l8.77 32.55c.345.752 1.03.411 1.03.411l11.923-3.287h-8.908c-1.646 0-1.918-2.059-1.918-2.059zm13.68 2.245q2.132-.001 3.888.844Q33.012 9.86 34 11.33q.992 1.473.992 2.758.001 2.344-1.529 4.758-2.087 3.258-9.113 9.092h6.056c1.486 0 2.457-.055 2.903-.16q.671-.16 1.107-.536.432-.382 1.135-1.596h.744l-1.57 6.905H18.232v-.389q7.586-7.696 9.207-10.357 1.62-2.66 1.62-5.198c0-1.233-.444-2.258-1.343-3.074q-1.342-1.223-3.285-1.224-3.18-.001-4.94 2.714l-.763-.23q1.114-3.383 3.388-5.004c1.514-1.08 3.266-1.62 5.248-1.62"/></svg>