<svg xmlns="http://www.w3.org/2000/svg" xmlns:xlink="http://www.w3.org/1999/xlink" width="200" height="96.5pt" viewBox="0 0 150 96.5"><defs><linearGradient xlink:href="#a" id="b" x1="177" x2="-80" y1="184" y2="-28" gradientUnits="userSpaceOnUse"/><linearGradient xlink:href="#a" id="c" x1="177" x2="-80" y1="184" y2="-28" gradientUnits="userSpaceOnUse"/><linearGradient xlink:href="#a" id="d" x1="177" x2="-80" y1="184" y2="-28" gradientUnits="userSpaceOnUse"/></defs><g transform="translate(0 -6.5)"><linearGradient id="a" x1="177" x2="-80" y1="184" y2="-28" gradientUnits="userSpaceOnUse"><stop offset="0" style="stop-color:#8b723c"/><stop offset=".3" style="stop-color:#d2bb7b"/><stop offset=".5" style="stop-color:#ebd491"/><stop offset=".7" style="stop-color:#d2bb7b"/><stop offset="1" style="stop-color:#8b723c"/></linearGradient><path fill="#fff" d="M49.74 6.51c16.27-.01 32.53-.02 48.8.01-4.82 9.89-9.45 19.87-14.26 29.76 4.63 11.85 9.39 23.64 14.05 35.48-3.54.07-7.07.15-10.61.31C90.4 82.35 92.7 92.72 95.34 103H93.8C80.24 84.95 66.86 66.76 53.32 48.69c5.62.09 11.23.26 16.85.34-6.75-14.2-13.66-28.33-20.43-42.52m4.7 3.19c6.89 14.2 13.71 28.42 20.51 42.66-5.15-.06-10.3-.28-15.46-.3 10.2 13.44 20.13 27.09 30.28 40.57-1.7-7.96-3.87-15.81-5.66-23.74 3.28-.09 6.57-.15 9.86-.26-4.22-10.83-8.58-21.6-12.83-32.41 4.18-8.86 8.46-17.66 12.64-26.52-13.11-.01-26.23-.02-39.34 0"/><path fill="#fff" d="M108.31 10.88c9.64 4.18 18.03 11.03 24.5 19.28 9.73 12.45 15.03 27.87 17.19 43.4v.67c-3.15.64-6.71 1.33-8.67 4.17-3.45 4.79-2.43 11.07-1.55 16.51h-24.17c-.29-10.03-1.12-20.15-4.06-29.8-2.98-10.03-8.89-19.93-18.57-24.69 4.9-9.95 10.25-19.68 15.33-29.54m1.12 4.07C105.32 23 100.99 30.94 96.91 39c3.44 2.17 6.42 5.01 8.92 8.21 9.6 12.65 11.79 29.08 12.48 44.5 6.03.01 12.07.01 18.1 0-.55-5.22-.52-11.06 2.79-15.45 1.8-2.55 4.73-3.89 7.64-4.7-1.61-10.38-4.82-20.55-9.89-29.77-6.24-11.38-15.7-21.26-27.52-26.84M11.82 38.76c6.9-11.71 17.23-21.73 29.88-26.99 5.05 9.88 10.29 19.67 15.29 29.58a31.9 31.9 0 0 0-13.35 12.56c-7.39 12.54-8.84 27.46-9.25 41.71-8.06.01-16.11.01-24.17 0 .82-5.39 1.87-11.59-1.45-16.39C6.82 76.31 3.2 75.58 0 74.9v-.45c1.65-12.49 5.41-24.8 11.82-35.69m17.76-16.12C14.4 34.68 6.06 53.46 3.16 72.26c2.96.83 5.94 2.22 7.72 4.83 3.21 4.39 3.24 10.14 2.71 15.32 6.03-.02 12.07.01 18.1-.02.35-8.27 1.15-16.55 3.24-24.58 2.77-10.84 8.22-21.85 18.1-27.83-4.01-8.07-8.42-15.93-12.37-24.03-4.15 1.32-7.63 4.13-11.08 6.69"/></g><g fill="url(#a)" transform="translate(0 -6.5)"><path d="M54.44 9.7c13.11-.02 26.23-.01 39.34 0-4.18 8.86-8.46 17.66-12.64 26.52 4.25 10.81 8.61 21.58 12.83 32.41-3.29.11-6.58.17-9.86.26 1.79 7.93 3.96 15.78 5.66 23.74C79.62 79.15 69.69 65.5 59.49 52.06c5.16.02 10.31.24 15.46.3A7587 7587 0 0 0 54.44 9.7" style="fill:url(#b)"/><path d="M109.43 14.95c11.82 5.58 21.28 15.46 27.52 26.84 5.07 9.22 8.28 19.39 9.89 29.77-2.91.81-5.84 2.15-7.64 4.7-3.31 4.39-3.34 10.23-2.79 15.45-6.03.01-12.07.01-18.1 0-.69-15.42-2.88-31.85-12.48-44.5-2.5-3.2-5.48-6.04-8.92-8.21 4.08-8.06 8.41-16 12.52-24.05" style="fill:url(#c)"/><path d="M29.58 22.64c3.45-2.56 6.93-5.37 11.08-6.69 3.95 8.1 8.36 15.96 12.37 24.03-9.88 5.98-15.33 16.99-18.1 27.83-2.09 8.03-2.89 16.31-3.24 24.58-6.03.03-12.07 0-18.1.02.53-5.18.5-10.93-2.71-15.32-1.78-2.61-4.76-4-7.72-4.83 2.9-18.8 11.24-37.58 26.42-49.62" style="fill:url(#d)"/></g></svg>