<svg xmlns="http://www.w3.org/2000/svg" width="191.573" height="110.589" viewBox="0 0 143.68 82.942"><path d="M51.28.012c13.11-.02 26.23-.01 39.34 0-4.18 8.86-8.46 17.66-12.64 26.52 4.25 10.81 8.61 21.58 12.83 32.41-3.29.11-6.58.17-9.86.26 1.79 7.93 3.96 15.78 5.66 23.74-10.15-13.48-20.08-27.13-30.28-40.57 5.16.02 10.31.24 15.46.3A7587 7587 0 0 0 51.28.012M106.27 5.262c11.82 5.58 21.28 15.46 27.52 26.84 5.07 9.22 8.28 19.39 9.89 29.77-2.91.81-5.84 2.15-7.64 4.7-3.31 4.39-3.34 10.23-2.79 15.45-6.03.01-12.07.01-18.1 0-.69-15.42-2.88-31.85-12.48-44.5-2.5-3.2-5.48-6.04-8.92-8.21 4.08-8.06 8.41-16 12.52-24.05M26.42 12.952c3.45-2.56 6.93-5.37 11.08-6.69 3.95 8.1 8.36 15.96 12.37 24.03-9.88 5.98-15.33 16.99-18.1 27.83-2.09 8.03-2.89 16.31-3.24 24.58-6.03.03-12.07 0-18.1.02.53-5.18.5-10.93-2.71-15.32-1.78-2.61-4.76-4-7.72-4.83 2.9-18.8 11.24-37.58 26.42-49.62"/></svg>