<?xml version="1.0" encoding="UTF-8"?><svg id="Layer_2" xmlns="http://www.w3.org/2000/svg" width="400.42244" height="178.77775" viewBox="0 0 400.42244 178.77775"><defs><style>.cls-1{fill:#fc0000;}</style></defs><g id="Layer_1-2"><path d="M72.67494,0l298.00901.72827c4.17656,4.64135,6.13683,6.64783,10.51399,14.22367,28.88889,50,23.11545,104.86377-3.33333,154.61111-1.94933,3.66648-2.82639,5.51389-5.02778,8.73226l-222.96643.00405c-8.88349-.08586-14.49061-8.65958-9.81547-16.60124,1.27156-2.16,4.76273-4.6609,5.43778-6.3705.83245-2.1082.24168-5.40865.53959-7.734l-20.01759-44.12207c-1.09201-1.59314-4.49939-2.03857-6.09067-1.12466-1.43744.82555-6.98886,6.97786-8.63346,8.65723-7.35713,7.5127-17.37463,16.74555-23.8216,24.6767-1.34275,1.65187-2.84477,4.01747-3.1216,6.15634-1.28199,9.90525,1.4011,13.34359,4.06366,22.01158,2.30377,7.49995-3.72496,13.91905-11.04293,14.44675-21.323-1.19071-44.26939,1.53127-65.40057.00288-4.80829-.34778-9.73594-2.84235-11.35627-7.6214-2.78827-8.2238,4.64433-12.73615,8.55798-18.82962,3.04621-4.74287,5.18399-10.14401,7.58986-15.18326,13.37452-28.01379,25.56393-56.64862,38.24232-84.90119,4.46429-9.94823,11.75325-19.64561,9.30223-31.23179-.56677-2.67918-2.2773-5.45955-2.65413-8.30703-.51171-3.86667,1.02382-7.40587,3.75283-9.71196C67.41638.81021,70.03814.00115,72.67494,0ZM168.65623,10.43398h-96.57488c3.13821,8.69746,4.80484,17.68705,1.58523,26.67783-17.09894,35.08929-31.14445,71.76751-48.45627,106.73829-4.19189,8.46784-8.8331,16.3679-15.12244,23.46534h68.31935c-4.12341-8.81116-7.31441-20.42049-4.51672-30.03104,1.51883-5.21745,5.98064-9.78746,9.56635-13.62849,9.25171-9.91048,19.22549-19.18526,28.2666-29.29878h-32.05105l29.09388-53.55798,46.50604,101.31243c3.32684,10.03876,1.56206,18.21141-6.43713,25.20386h82.65797c-5.27778-5.23623-9.53862-11.29666-13.29346-17.70328-14.70959-34.89771-34.36629-69.20674-48.47534-104.18887-4.61449-11.44121-4.92115-23.25104-1.06813-34.9893ZM366.80013,167.24712c16.00424-28.93548,25.17242-60.78236,21.57042-94.183-2.38729-22.13687-10.10366-43.45808-21.49748-62.42567l-186.20418.21078c-4.21622,10.4814-4.13912,19.51553.02042,29.93496,13.31915,33.36375,32.53748,65.87379,46.224,99.27091,8.86212,16.7517,19.89809,26.06363,39.37613,27.25632l100.51069-.0643Z"/><path class="cls-1" d="M366.80013,167.24712l-100.51069.0643c-19.47803-1.19269-30.51401-10.50462-39.37613-27.25632-13.68651-33.39712-32.90484-65.90715-46.224-99.27091-4.15954-10.41943-4.23665-19.45356-.02042-29.93496l186.20418-.21078c11.39382,18.96759,19.11019,40.2888,21.49748,62.42567,3.602,33.40064-5.56618,65.24752-21.57042,94.183ZM364.33633,14.2295c-.81299-.19042-.81157.29505-1.18898.70888-1.08581,1.19058-3.80654,5.82839-4.92244,6.04229l-42.81079-.00616-5.90808,52.50904c-.06013.88.00976.54364.62582.63312,3.38552.49175,8.06861.03361,11.76755.47304,15.5397,1.84608,34.15595,10.34315,32.31151,28.8305-.62712,6.28584-5.4824,11.60936-11.38203,13.49966-12.74401,4.0833-24.89404-4.22115-24.88076-17.71098l-.83698-.20965-10.78999,16.86614c9.73379,10.3534,26.4689,12.85944,39.78912,9.39656,18.55461-4.82367,27.45958-21.65356,23.00175-40.10861-5.06681-20.97617-28.14371-29.52114-47.78969-29.17543l1.68502-18.97529h41.32899V14.2295ZM250.47075,109.11748c8.81905-10.85128,19.23176-20.32058,28.47227-30.78,8.65334-9.7948,18.18633-21.94354,15.69452-35.94908-3.87156-21.76064-31.83358-26.1451-49.44915-19.73521-5.46081,1.98706-10.90802,5.31715-14.95374,9.49967l16.23477,20.45067c.93219.16727.62759-.37163.58502-1.00417-.41219-6.1249-1.91917-9.34553.8806-15.65642,4.97156-11.20625,20.92308-9.63861,24.44097,2.1384,5.01087,16.77513-11.07461,40.17352-20.29591,53.45704-7.87849,11.34918-16.52134,22.22073-25.44092,32.76112l.42587.84351h68.10848v-31.62933l-1.29653.2613-7.34882,15.3425h-36.05743Z"/><path class="cls-1" d="M168.65623,10.43398c-3.85303,11.73827-3.54636,23.5481,1.06813,34.9893,14.10906,34.98213,33.76575,69.29117,48.47534,104.18887,3.75484,6.40663,8.01568,12.46706,13.29346,17.70328h-82.65797c7.99918-6.99245,9.76397-15.1651,6.43713-25.20386l-46.50604-101.31243-29.09388,53.55798h32.05105c-9.04111,10.11351-19.01489,19.38829-28.2666,29.29878-3.58571,3.84103-8.04752,8.41104-9.56635,13.62849-2.79769,9.61056.39331,21.21989,4.51672,30.03104H10.08787c6.28934-7.09744,10.93055-14.9975,15.12244-23.46534,17.31182-34.97078,31.35733-71.649,48.45627-106.73829,3.21961-8.99078,1.55298-17.98037-1.58523-26.67783h96.57488Z"/><path d="M364.33633,14.2295v22.77312h-41.32899l-1.68502,18.97529c19.64598-.34571,42.72288,8.19925,47.78969,29.17543,4.45783,18.45505-4.44714,35.28495-23.00175,40.10861-13.32022,3.46288-30.05533.95684-39.78912-9.39656l10.78999-16.86614.83698.20965c-.01328,13.48983,12.13675,21.79428,24.88076,17.71098,5.89964-1.8903,10.75491-7.21382,11.38203-13.49966,1.84444-18.48735-16.77181-26.98443-32.31151-28.8305-3.69893-.43942-8.38203.01871-11.76755-.47304-.61606-.08948-.68594.24688-.62582-.63312l5.90808-52.50904,42.81079.00616c1.1159-.2139,3.83663-4.85171,4.92244-6.04229.37741-.41383.37599-.8993,1.18898-.70888Z"/><path d="M250.47075,109.11748h36.05743l7.34882-15.3425,1.29653-.2613v31.62933h-68.10848l-.42587-.84351c8.91958-10.54039,17.56243-21.41195,25.44092-32.76112,9.2213-13.28352,25.30678-36.68191,20.29591-53.45704-3.51789-11.77701-19.46941-13.34465-24.44097-2.1384-2.79978,6.31089-1.29279,9.53152-.8806,15.65642.04257.63254.34717,1.17144-.58502,1.00417l-16.23477-20.45067c4.04573-4.18252,9.49293-7.51261,14.95374-9.49967,17.61557-6.40989,45.57758-2.02543,49.44915,19.73521,2.49181,14.00554-7.04118,26.15428-15.69452,35.94908-9.24051,10.45943-19.65322,19.92873-28.47227,30.78Z"/></g></svg>