<?xml version="1.0" encoding="UTF-8"?><svg id="Layer_2" xmlns="http://www.w3.org/2000/svg" width="400.42246" height="178.77775" viewBox="0 0 400.42246 178.77775"><g id="Layer_2-2"><g id="Layer_1_copy_2"><path d="M72.67496,0l298.00902.72827c4.17657,4.64135,6.13684,6.64783,10.51398,14.22367,28.88889,50,23.11545,104.86377-3.33334,154.61111-1.94934,3.66647-2.82639,5.51389-5.02777,8.73225l-222.96643.00404c-8.88348-.08586-14.49062-8.65958-9.81548-16.60124,1.27156-2.16,4.76273-4.6609,5.43777-6.3705.83244-2.1082.24168-5.40865.5396-7.73399l-20.01759-44.12207c-1.09201-1.59314-4.49939-2.03857-6.09067-1.12466-1.43744.82555-6.98886,6.97786-8.63346,8.65723-7.35713,7.5127-17.37463,16.74555-23.8216,24.6767-1.34275,1.65187-2.84477,4.01747-3.1216,6.15634-1.28199,9.90524,1.4011,13.3436,4.06366,22.01158,2.30377,7.49995-3.72496,13.91905-11.04293,14.44675-21.323-1.1907-44.26939,1.53127-65.40057.00288-4.80829-.34778-9.73594-2.84235-11.35627-7.6214-2.78827-8.2238,4.64433-12.73615,8.55798-18.82962,3.04621-4.74287,5.18399-10.14401,7.58986-15.18326,13.37452-28.01379,25.56393-56.64862,38.24232-84.90119,4.46429-9.94823,11.75325-19.64561,9.30223-31.23179-.56677-2.67918-2.2773-5.45955-2.65413-8.30703-.51171-3.86667,1.02382-7.40587,3.75283-9.71196C67.4164.81021,70.03816.00115,72.67496,0ZM168.65626,10.43398h-96.57488c3.13821,8.69746,4.80484,17.68705,1.58523,26.67783-17.09894,35.08929-31.14445,71.76751-48.45627,106.73829-4.19189,8.46783-8.8331,16.3679-15.12244,23.46533h68.31936c-4.12341-8.81116-7.31441-20.42049-4.51672-30.03104,1.51883-5.21745,5.98064-9.78746,9.56635-13.62849,9.25171-9.91048,19.22549-19.18526,28.2666-29.29878h-32.05105l29.09388-53.55798,46.50603,101.31244c3.32684,10.03876,1.56206,18.21141-6.43713,25.20386h82.65797c-5.27779-5.23624-9.53862-11.29666-13.29346-17.70328-14.70959-34.89771-34.36629-69.20674-48.47534-104.18887-4.61449-11.44121-4.92114-23.25104-1.06813-34.9893ZM366.80016,167.24712c16.00424-28.93549,25.17242-60.78236,21.5704-94.183-2.3873-22.13687-10.10367-43.45808-21.49747-62.42567l-186.20418.21078c-4.21622,10.4814-4.13911,19.51553.02042,29.93496,13.31915,33.36375,32.53748,65.87379,46.224,99.27091,8.86212,16.75169,19.89809,26.06363,39.37611,27.25632l100.51068-.0643h.00003ZM363.14736,14.93838c-1.08582,1.19058-3.80655,5.82839-4.92245,6.04229l-42.81079-.00616-5.90808,52.50904c-.06012.88.00977.54364.62582.63312,3.38553.49175,8.0686.03361,11.76755.47304,15.5397,1.84608,34.15594,10.34315,32.31149,28.8305-.62711,6.28584-5.48239,11.60936-11.38202,13.49966-12.74402,4.0833-24.89404-4.22115-24.88077-17.71098l-.83698-.20965-10.78998,16.86614c9.7338,10.3534,26.4689,12.85944,39.78912,9.39656,18.5546-4.82367,27.45956-21.65356,23.00174-40.10861-5.0668-20.97617-28.14371-29.52114-47.78967-29.17543l1.68503-18.97529h41.32898V14.2295c-.81299-.19042-.81158.29505-1.18896.70888h-.00003ZM278.94305,78.33748c8.65335-9.7948,18.18634-21.94354,15.69452-35.94908-3.87155-21.76064-31.83359-26.1451-49.44916-19.73521-5.46082,1.98706-10.90802,5.31715-14.95374,9.49967l16.23477,20.45067c.93219.16727.62759-.37163.58502-1.00417-.41219-6.1249-1.91917-9.34553.8806-15.65642,4.97156-11.20625,20.92308-9.63861,24.44096,2.1384,5.01086,16.77513-11.07462,40.17352-20.29591,53.45704-7.87849,11.34918-16.52135,22.22073-25.44092,32.76112l.42587.84351h68.10847v-31.62933l-1.29654.2613-7.34882,15.3425h-36.05743c8.81906-10.85128,19.23175-20.32058,28.47226-30.78h.00003Z"/></g></g></svg>