<svg xmlns="http://www.w3.org/2000/svg" width="600" height="600"><path d="M300 600C134.606 600 0 465.403 0 299.974 0 134.571 134.606 0 300 0c165.403 0 300 134.571 300 299.974C600 465.403 465.403 600 300 600" style="fill:#fff"/><path d="M576.703 299.974C576.703 452.786 452.82 576.67 300 576.67c-152.811 0-276.694-123.883-276.694-276.695 0-152.82 123.883-276.703 276.694-276.703 152.82 0 276.703 123.883 276.703 276.703"/><path d="M309.313 32.594a253 253 0 0 0-62.094 7.718l37.219 103.282c6.6-.969 13.361-1.469 20.218-1.469 18.986 0 37.06 3.818 53.5 10.813l49.531-100.532c-30.23-12.728-63.48-19.812-98.375-19.812m0 5c32.33 0 63.165 6.26 91.468 17.469l-45.156 91.625c-15.848-6.11-33.002-9.563-50.969-9.563-5.699 0-11.303.412-16.844 1.063l-33.937-94.22c17.83-4.087 36.36-6.374 55.438-6.374m-75.563 6.468C192.067 57.093 155.048 80.6 125.656 111.5l84.219 68.594c16.774-16.003 37.553-27.8 60.688-33.688zm-3.031 6.376 33.312 92.656c-20.405 6.057-38.86 16.576-54.312 30.437l-76.594-62.375c27.083-27.277 60.352-48.273 97.594-60.719m189.687 7.78L370.72 159.032c22.071 12.086 40.377 30.084 52.969 51.813l97.906-63.188c-24.943-38.203-59.9-69.277-101.188-89.437m2.219 6.844c37.028 19.02 68.598 47.042 91.906 81.22l-89.312 57.624c-12.051-19.15-28.459-35.247-47.969-46.812zm-306.312 56.844c-25.612 30.069-44.22 66.13-53.563 105.875l108.219 19.813c5.117-21.523 15.321-41.078 29.25-57.313zm.75 7.063 76.25 62.156c-11.803 14.805-20.823 31.924-25.97 50.719l-98.374-18c9.096-35.308 25.683-67.492 48.094-94.875m411.843 30.625-98.812 63.75c7.74 17.211 12.031 36.227 12.031 56.25 0 7.363-.582 14.627-1.687 21.656l120.906 11.281c.9-8.7 1.375-17.557 1.375-26.531 0-46.071-12.324-89.206-33.813-126.406m-1.843 7.125c19.47 35.41 30.656 75.977 30.656 119.281 0 7.12-.385 14.143-.969 21.094L446 296.75c.673-5.631 1.125-11.345 1.125-17.156 0-19.215-3.964-37.501-10.906-54.281zm-467.157 74.75C57.361 255.937 55.97 270.794 55.97 286c0 31.774 5.882 62.202 16.562 90.188L174.906 325a136.8 136.8 0 0 1-7.719-45.406c0-6.163.441-12.259 1.282-18.25zm4.282 5.844 98.843 18.093c-.493 4.687-.844 9.403-.844 14.188 0 14.948 2.441 29.28 6.72 42.812l-93.47 46.719C66.188 343.143 60.97 315.198 60.97 286c0-13.184 1.242-26.05 3.218-38.687M437.5 315c-5.854 22.106-17.09 41.984-32.219 58.219l88.25 86.687c34.115-36.094 57.735-82.208 65.938-133.5zm3.625 5.344 112.375 10.5c-8.46 46.428-29.81 88.267-60.25 121.812l-81.094-79.687c13.125-15.082 23.115-32.947 28.969-52.625m-260.906 17.625L77.875 389.125c21.771 48.814 58.478 89.41 104.344 116.094L235 398.094c-23.803-14.032-42.961-34.977-54.781-60.125m-2.188 6.687c11.646 22.62 29.122 41.653 50.5 55.219L180.187 498c-41.448-25.331-74.843-62.356-95.625-106.625ZM395.22 382.97c-18.42 16.14-41.173 27.446-66.313 31.937l15.656 122.032c53.538-7.466 101.697-31.665 139.094-67.125zm-.313 6.687 81.407 79.938c-34.9 31.748-78.765 53.686-127.438 61.5l-14.406-112.25c22.615-4.835 43.199-15.044 60.437-29.188m-147.5 14.906L194.5 511.876c34.483 17.546 73.464 27.531 114.813 27.531 7.2 0 14.306-.369 21.343-.968l-15.625-121.782c-3.411.231-6.886.438-10.375.438-20.417 0-39.807-4.534-57.25-12.531m2.469 6.344c16.89 7.06 35.356 11.188 54.781 11.188 2.064 0 4.007-.15 6-.25L325 533.688c-5.213.35-10.413.718-15.687.718-38.785 0-75.36-9.038-108.063-24.875z" style="fill:#fff"/><path d="M401.889 369.917a132.5 132.5 0 0 0 30.84-55.346l-27.12-2.511a106.2 106.2 0 0 1-22.766 39.137zm1.371-129.274c4.757 12.086 7.44 25.208 7.44 38.94 0 6.394-.609 12.617-1.714 18.711l26.751 2.512a138.6 138.6 0 0 0 1.749-21.223 132.7 132.7 0 0 0-11.392-53.64zm-30.531 120.231c-13.492 11.315-29.872 19.355-47.812 22.766l3.377 26.589c24.077-4.355 45.875-15.172 63.549-30.575zm-135.635 32.983 11.846-24.077c-17.64-10.877-31.834-26.889-40.577-45.866l-23.94 11.983c11.348 24.172 29.803 44.4 52.671 57.96m-35.16-140.597c4.149-16.166 12.052-30.866 22.672-43.123L203.88 193.26a132.6 132.6 0 0 0-28.294 55.183zm32.546-53.1c13.123-11.589 29.16-19.989 46.843-23.974l-9.146-25.346c-22.328 5.657-42.386 16.946-58.62 32.28zm51.566-52.029 9.334 25.878c3.051-.266 6.163-.438 9.274-.438 13.997 0 27.36 2.752 39.583 7.672l11.846-24.078c-15.832-6.66-33.18-10.345-51.429-10.405-6.325.034-12.514.497-18.608 1.371m82.594 15.129-11.846 24.077a105.74 105.74 0 0 1 40.406 40.577l22.5-14.494c-12.12-21.026-29.76-38.435-51.06-50.16m-165.3 147.523c-3.043-9.84-4.689-20.323-4.689-31.2 0-4.252.275-8.443.772-12.558L173.04 262.2a130 130 0 0 0-1.174 17.383c0 15.162 2.58 29.725 7.303 43.285zm101.314 101.622a133.05 133.05 0 0 1-55.174-12.051l11.82-24.009c13.26 5.923 27.926 9.275 43.354 9.275 2.143 0 4.26-.103 6.369-.206l3.411 26.554c-3.248.266-6.497.438-9.78.438m173.572-37.269c-11.049 10.312-30.729 10.346-42.215 9.343a133 133 0 0 1-3.317 4.089l59.529 54.737s-4.654-20.392 5.828-35.555c10.483-15.137 34.955-36.094 34.955-36.094l-15.137-18.686s-23.298 7.003-39.643 22.166m-5.957-88.757 33.951-12.591 15.437 23.871 30.866 3.214s-10.774-44.563-38.134-66.728l-4.689 15.163s-28.723-2.443-43.226-13.355c3.857 14.092 5.966 28.895 5.966 44.229 0 2.074-.103 4.114-.171 6.197m-27.986-99.24 63.111-42.694s-27.96-20.957-59.434-22.132l-3.514 17.477-11.615-10.482-30.908 14.202a169.9 169.9 0 0 1 42.36 43.629m-81.6-64.423 31.971-66.797s-35.22-1.174-56.211 1.14c-20.957 2.374-31.44 24.471-31.44 24.471l20.957-3.48s-17.109 24.412-24.54 34.389h1.209c20.451 0 39.977 3.617 58.054 10.277M227.486 56.186s-34.655 12.557-48.652 59.168l32.606 1.132.369 23.94a169.8 169.8 0 0 1 40.483-19.62zm-98.743 146.52c-22.132 3.48-39.609 1.774-47.777 19.551l62.477 11.554c5.76-20.022 15.103-38.537 27.351-54.711-6.994 6.266-24.771 20.863-42.051 23.606" style="fill:#fff"/></svg>