<svg xmlns="http://www.w3.org/2000/svg" width="520.357" height="435.714" viewBox="0 0 137.678 115.283"><g style="opacity:1"><path d="m300.422 66.099 7.937 56.885 7.56 7.135c-2.367 8.138-5.379 10.823-13.608 12.71l-4.205 10.346-6.803-8.74c-8.237-1.189-13.001-1.826-16.584-8.6l2.882-5.008c-18.42 1.836-26.294.824-28.104-6.698-.31-1.625-.63-4.062-.63-4.062-9.568-1.012-17.807.178-26.876 2.445l-.023 1.417 7.394 6.142c-2.086 8.439-6.308 10.597-13.985 13.135l-3.78 10.016-6.614-8.882c-8.817.096-12.138-1.296-16.962-8.504l5.386-8.269-8.032-57.452-7.134-6.095c1.172-9.585 4.76-12.556 12.434-13.306l4.48-12.774 8.093 11.05c8.117-.32 11.583.454 15.319 8.994 7.237-2.134 21.668-3.87 30.733-.342 3.336 1.025 4.163 7.306 4.914 11.434 5.328-.05 10.137-.17 15.213-1.04l-4.952-4.35c1.598-9.066 4.554-11.786 12.426-12.993l4.555-12.586 8.293 11.05c7.783-.897 11.06-.118 15.524 8.965z" style="display:inline;opacity:1;fill:#fff;fill-opacity:1;stroke:none;stroke-width:.264583px;stroke-linecap:butt;stroke-linejoin:miter;stroke-opacity:1" transform="translate(-178.24 -37.94)"/><path d="M181.543 62.675c2.057-7.012 4.245-8.455 11.626-8.887l3.14-8.486 4.878 6.95c7.608-.248 10.596-1.413 13.63 5.812-.175.477-.52 1.16-1.001 1.537-3.26.94-15.432 7.98-14.334 9.602.38.38.764.464 1.24.244 7.255-5.316 16.654-7.994 24.653-9.579 3.696-.437 16.213-1.825 22.651 1.003 1.473 1.37 1.6 3.058 2.11 4.697 1.687 5.42 2.708 13.928 3.068 16.751.162.137.473.17.635.033.678-2.058-.407-6.048.773-8.715.265-.6.736-1.175 1.333-1.447 11.217.132 18.721-.764 26.726-5.256.46-.277 1.078-.474 1.286-.969a.67.67 0 0 0-.083-.634c-.115-.146-.334-.18-.518-.2-3.946.912-6.103 1.287-9.739 1.954l-5.612-4.477c2.396-7.837 3.918-7.888 11.559-8.82l3.207-8.486 4.878 7.15c7.618-.21 9.974-1.715 13.697 5.545l-4.81 7.484 8.686 60.336 6.682 5.546c-1.825 5.997-6.688 7.135-12.495 8.82l-2.406 6.147-3.875-5.078c-7.567-.202-10.042.519-14.633-5.412l3.742-5.947c2.751-1.634 7.934-4.321 8.695-5.672.094-.245.111-.567-.033-.785-.887-.798-2.161.369-2.94.884-5.56 2.987-9.733 3.572-17.816 4.237-4.082.291-14.766 1.07-16.905-3.408-.748-1.34 2.016-3.819 2.74-3.909.359-5.182-.156-13.444-.778-20.082-.071-.542-.016-1.035-.596-1.034-.635.002-.545.356-.643 1.17-.132 1.448-.966 9.49-1.743 12.977s-2.344 3.026-2.344 3.026c-11.618-2.001-22.54-.273-32.575 3.446-1.763.678-8.985 3.16-9.378 4.35-.08.287.132.645.38.81.295.196.712.098 1.061.043 3.185-1.152 5.98-1.89 9.245-2.582v1.693l7.035 6.239c-2.293 6.695-6.12 6.904-12.896 9.154l-2.004 5.947-4.01-5.212c-6.09-.162-11.879.168-14.632-5.48l4.944-7.216-8.753-60.47z" style="display:inline;opacity:1;fill:#000;fill-opacity:1;stroke:none;stroke-width:.264583px;stroke-linecap:butt;stroke-linejoin:miter;stroke-opacity:1" transform="translate(-178.24 -37.94)"/></g></svg>