<?xml version="1.0" encoding="UTF-8"?><svg id="Layer_2" xmlns="http://www.w3.org/2000/svg" width="500.06006" height="607.19255" xmlns:xlink="http://www.w3.org/1999/xlink" viewBox="0 0 500.06006 607.19255"><defs><style>.cls-1{fill:url(#linear-gradient-2);}.cls-2{fill:#fff;}.cls-3{fill:url(#linear-gradient);}</style><linearGradient id="linear-gradient" x1="-24.45778" y1="266.71999" x2="554.07283" y2="266.71999" gradientUnits="userSpaceOnUse"><stop offset=".09522" stop-color="#612c75"/><stop offset=".17097" stop-color="#784788"/><stop offset=".309" stop-color="#9e73a8"/><stop offset=".41625" stop-color="#b68ebb"/><stop offset=".47888" stop-color="#bf99c3"/><stop offset=".53755" stop-color="#b992be"/><stop offset=".61705" stop-color="#aa81b2"/><stop offset=".70847" stop-color="#92659d"/><stop offset=".80805" stop-color="#703d81"/><stop offset=".84801" stop-color="#612c75"/></linearGradient><linearGradient id="linear-gradient-2" x1="207.27393" y1="173.42121" x2="295.83223" y2="173.42121" gradientUnits="userSpaceOnUse"><stop offset=".13871" stop-color="#612c75"/><stop offset=".40528" stop-color="#ac83b3"/><stop offset=".46755" stop-color="#bf99c3"/><stop offset=".52348" stop-color="#b790bc"/><stop offset=".61289" stop-color="#a379ac"/><stop offset=".72389" stop-color="#835391"/><stop offset=".82284" stop-color="#612c75"/></linearGradient></defs><g id="T"><path class="cls-2" d="M500.06006,117.30254c-24.07001,98.92004-25.60004,194.14001-86.07001,293.16003-36.73004,60.14996-86.92004,118.02997-163.96002,196.72998-77.03998-78.70001-127.22998-136.58002-163.96002-196.72998C25.60004,311.44255,24.07001,216.22258,0,117.30254c58.70001-24.53998,79.58002-34.62,110.57001-47.59998C147.17004,22.50255,198.94-.27742,250.03003.00255c51.09003-.27997,102.85999,22.5,139.46002,69.70001,30.98999,12.97998,51.87,23.06,110.57001,47.59998Z"/><path class="cls-3" d="M157.51783,470.43036C50.39588,344.5767,51.27393,250.04011,26.24954,131.0645c13.31707-6,37.20732-16.09756,62.67073-27.32927-43.2439,102.69512,20.1128,181.29878,45.71341,201.21037,5.59756,38.9939,13.33537,96.85061,22.88415,165.48476ZM342.3471,470.50353c107.12195-125.85366,106.2439-220.39024,131.26829-339.36585-13.31707-6-40.20732-17.09756-65.67073-28.32927,43.2439,102.69512-19.1128,183.29878-44.71341,203.21037-5.59756,38.9939-11.33537,95.85061-20.88415,164.48476ZM189.42941,266.10109c-6.59494-4.83713-36.27092-27.69885-43.96988-69.9761-1.83229-10.06165-7.44065-47.02519,16.53086-81.71597,47.78049-69.14634,144.10976-48.43902,175.93902.10976,8.58348,13.09228,21.9833,40.99226,16.30132,79.6504-3.63412,24.72531-17.2731,49.84503-44.81961,71.93188.60364,88.02441.64023,242.70735.64023,242.70735,0,0,2.25-2.22256,3.40244-11.11281,3.99866-30.84666,15.58539-118.17075,26.39636-205.89331C455.47821,202.75353,385.67331,24.63158,250.03003,24.63158c-133.47865,0-211.50851,171.39777-92.51219,267.17072,9.59451,67.77441,25.43945,182.63506,29.36432,211.31709.58849,4.30043,3.10519,4.96646,3.10519,4.96646,0,0,.46646-192.94206-.55794-241.98476Z"/><path d="M332.38672,165.09807c-13.64813-103.41089-159.87805-90.29272-164.8916,0-3.08038,55.47766,24.55017,73.9024,45.36609,90.29266v278.34143l37.71649,40.0976,36.625-40.97565s.29266-266.13409.29266-278.92682c3.33038-3,52.50116-31.17072,44.89136-88.82922ZM250.22211,222.24437c-26.78583,0-48.5-21.71417-48.5-48.5s21.71417-48.5,48.5-48.5,48.5,21.71417,48.5,48.5-21.71423,48.5-48.5,48.5Z"/><circle class="cls-1" cx="249.93247" cy="173.42121" r="33"/></g></svg>