<?xml version="1.0" encoding="UTF-8"?><svg id="Layer_2" xmlns="http://www.w3.org/2000/svg" width="500.06006" height="607.19255" viewBox="0 0 500.06006 607.19255"><defs><style>.cls-1{fill:#fff;}</style></defs><g id="WM"><path class="cls-1" d="M389.49005,69.70256C352.89001,22.50255,301.12006-.27742,250.03003.00255c-51.09003-.27997-102.85999,22.5-139.46002,69.70001-30.98999,12.97998-51.87,23.06-110.57001,47.59998,24.07001,98.92004,25.60004,194.14001,86.07001,293.16003,36.73004,60.14996,86.92004,118.02997,163.96002,196.72998,77.03998-78.70001,127.22998-136.58002,163.96002-196.72998,60.46997-99.02002,62-194.23999,86.07001-293.16003-58.70001-24.53998-79.58002-34.62-110.57001-47.59998ZM26.24951,131.0645c13.31708-6,37.20734-16.09753,62.67078-27.32928-43.2439,102.69513,20.11279,181.29883,45.71338,201.21039,5.5976,38.9939,13.33539,96.85059,22.88416,165.48474C50.39587,344.57671,51.27393,250.04009,26.24951,131.0645ZM287.49536,253.92729c0,12.79272-.29266,278.92682-.29266,278.92682l-36.625,40.97565-37.71649-40.0976V255.39073c-20.81592-16.39026-48.44647-34.815-45.36609-90.29266,5.01355-90.29272,151.24347-103.41089,164.8916,0,7.6098,57.65851-41.56097,85.82922-44.89136,88.82922ZM313.4538,497.6956c-1.1524,8.89026-3.4024,11.11279-3.4024,11.11279,0,0-.03662-154.68292-.64026-242.70734,27.54651-22.08685,41.18549-47.2066,44.81964-71.93188,5.68195-38.65814-7.7179-66.55811-16.30133-79.65039-31.82928-48.54877-128.15857-69.2561-175.93903-.10974-23.97156,34.69073-18.36316,71.6543-16.53088,81.71594,7.69897,42.27722,37.37494,65.13898,43.96991,69.97607,1.02435,49.04272.55792,241.9848.55792,241.9848,0,0-2.51672-.66608-3.10522-4.96649-3.92487-28.68201-19.76978-143.54266-29.36432-211.31708C38.52155,196.02934,116.55139,24.63158,250.03003,24.63158c135.64331,0,205.44818,178.12195,89.82013,267.17072-10.81097,87.72253-22.39771,175.04663-26.39636,205.89331ZM342.34711,470.50353c9.54877-68.63416,15.28656-125.49084,20.88416-164.48474,25.60059-19.91162,87.95728-100.51526,44.71338-203.21039,25.46344,11.23169,52.3537,22.32928,65.67078,28.32928-25.02441,118.97559-24.14636,213.51221-131.26831,339.36584ZM250.22211,125.24437c-26.78583,0-48.5,21.71417-48.5,48.5s21.71417,48.5,48.5,48.5,48.5-21.71417,48.5-48.5-21.71423-48.5-48.5-48.5ZM249.9325,206.42119c-18.2254,0-33-14.7746-33-33s14.7746-33,33-33,33,14.7746,33,33-14.77466,33-33,33Z"/></g></svg>