<svg xmlns="http://www.w3.org/2000/svg" width="600" height="674.65"><path d="M562.506 674.65H37.476C16.8 674.65 0 657.851 0 637.24v-57.53c0-20.746 16.799-37.612 37.477-37.612h11.469c4.149-65.491 46.062-122.213 118.991-160.567 19.363-10.136 25.435-18.57 25.435-51.577 0-33.344-5.212-40.782-24.322-50.8-67.718-35.64-108.703-87.03-117.524-146.653h-14.05C16.8 132.501 0 115.77 0 95.143V37.629C0 16.866 16.799 0 37.477 0h525.03C583.2 0 600 16.866 600 37.629v57.514c0 20.627-16.799 37.358-37.426 37.358h-12.97c-8.956 59.757-49.874 111.081-117.474 146.652-21.605 11.334-26.547 20.813-26.547 50.801 0 33.008 5.987 41.44 25.367 51.577 72.997 38.354 114.892 95.076 119.042 160.567h12.514c20.695 0 37.494 16.866 37.494 37.612v57.53c0 20.611-16.799 37.41-37.494 37.41" style="fill:#fff"/><path d="M445.303 167.212c-54.816 19.312-88.869 24.979-146.99 24.574-57.176-.32-90.588-6.19-144.476-25.485-10.339-20.425-16.731-43.886-16.731-64.176h325.856c0 21.876-17.66 65.087-17.66 65.087m-65.154 273.756c51.712 27.205 85.31 66.942 85.31 115.298 0 7.117-.657 6.848-2.04 16.14h-67.466c-46.382-34.592-78.462-91.515-78.462-167.802l-.454-8.18s28.723 26.43 63.113 44.544m-97.436-34.07c0 76.303-32.164 133.294-78.614 165.509h-67.397c-1.45-6.915-2.176-6.662-2.176-13.898 0-48.305 33.732-88.092 85.326-115.18 34.593-18.114 63.181-46.972 63.181-46.972zM569.692 95.143V37.629c0-4.031-3.154-7.32-7.185-7.32H37.477c-3.946 0-7.168 3.289-7.168 7.32v57.514c0 3.811 3.222 7.05 7.168 7.05h42.638l-.067 5.532c0 65.88 46.045 114.572 103.036 144.611 33.075 17.271 40.597 38.286 40.597 77.618 0 38.81-8.248 60.938-41.643 78.462-57.126 29.972-103.12 78.732-103.12 144.544 0 6.73.472 13.055 1.332 19.447H37.477c-3.947 0-7.168 3.289-7.168 7.235v57.599c0 3.879 3.221 7.1 7.168 7.1h525.03c4.03 0 7.184-3.221 7.184-7.1v-57.599c0-3.946-3.154-7.235-7.185-7.235h-43.801c.724-6.392 1.315-12.717 1.315-19.447 0-65.812-46.129-114.572-103.17-144.544-33.345-17.524-41.576-39.652-41.576-78.462 0-37.881 8.754-59.757 42.756-77.618 57.059-29.971 103.103-78.732 103.103-144.611l-.067-5.532h41.508c3.963 0 7.117-3.239 7.117-7.05"/></svg>