<svg xmlns="http://www.w3.org/2000/svg" xmlns:xlink="http://www.w3.org/1999/xlink" width="600" height="674.65"><linearGradient id="a" x1="0" x2="1" y1="0" y2="0" gradientTransform="matrix(39.47943 -22.79346 -22.79346 -39.47942 146.933 157.907)" gradientUnits="userSpaceOnUse" spreadMethod="pad"><stop offset="0" style="stop-color:#8b723c"/><stop offset=".3" style="stop-color:#d2bb7b"/><stop offset=".5" style="stop-color:#ebd491"/><stop offset=".7" style="stop-color:#d2bb7b"/><stop offset="1" style="stop-color:#8b723c"/></linearGradient><linearGradient xlink:href="#a" id="b" x1="0" x2="1" y1="0" y2="0" gradientTransform="matrix(665.86998 384.44016 -384.44016 665.86973 -32.896 145.13)" gradientUnits="userSpaceOnUse" spreadMethod="pad"/><path d="M562.506 674.65H37.476C16.8 674.65 0 657.851 0 637.24v-57.53c0-20.746 16.799-37.612 37.477-37.612h11.469c4.149-65.491 46.062-122.213 118.991-160.567 19.363-10.136 25.435-18.57 25.435-51.577 0-33.344-5.212-40.782-24.322-50.8-67.718-35.64-108.703-87.03-117.524-146.653h-14.05C16.8 132.501 0 115.77 0 95.143V37.629C0 16.866 16.799 0 37.477 0h525.03C583.2 0 600 16.866 600 37.629v57.514c0 20.627-16.799 37.358-37.426 37.358h-12.97c-8.956 59.757-49.874 111.081-117.474 146.652-21.605 11.334-26.547 20.813-26.547 50.801 0 33.008 5.987 41.44 25.367 51.577 72.997 38.354 114.892 95.076 119.042 160.567h12.514c20.695 0 37.494 16.866 37.494 37.612v57.53c0 20.611-16.799 37.41-37.494 37.41"/><path d="M37.477 30.309c-3.947 0-7.168 3.289-7.168 7.32v57.514c0 3.811 3.221 7.05 7.168 7.05h42.638l-.068 5.532c0 65.812 46.045 114.572 103.036 144.544 33.075 17.338 40.597 38.353 40.597 77.685 0 38.81-8.247 60.938-41.643 78.462-57.126 29.972-103.12 78.664-103.12 144.544 0 6.73.472 13.055 1.333 19.447H37.477c-3.947 0-7.168 3.289-7.168 7.235v57.599c0 3.879 3.221 7.1 7.168 7.1h525.03c4.03 0 7.184-3.221 7.184-7.1v-57.599c0-3.946-3.154-7.235-7.185-7.235h-43.801c.725-6.392 1.315-12.717 1.315-19.447 0-65.88-46.129-114.572-103.17-144.544-33.345-17.524-41.576-39.652-41.576-78.462 0-37.814 8.754-59.757 42.756-77.685 57.059-29.904 103.103-78.665 103.103-144.544l-.067-5.532h41.44c4.031 0 7.185-3.239 7.185-7.05V37.629c0-4.031-3.154-7.32-7.185-7.32zm260.836 161.477c-57.176-.32-90.588-6.19-144.476-25.485-10.339-20.425-16.731-43.886-16.731-64.176h325.856c0 21.876-17.66 65.087-17.66 65.087-52.909 18.654-86.439 24.574-140.984 24.574zM134.525 558.51c0-48.305 33.665-88.092 85.394-115.18 34.525-18.114 63.114-46.972 63.114-46.972l-.32 10.541c0 76.303-32.165 133.294-78.615 165.509h-67.397c-1.45-6.915-2.176-6.662-2.176-13.898M317.49 404.655l-.455-8.23s28.723 26.48 63.113 44.61c51.712 27.07 85.31 66.875 85.31 115.23 0 7.118-.658 6.849-2.04 16.142h-67.466c-46.382-34.593-78.462-91.516-78.462-167.752" style="fill:url(#b)"/></svg>