<?xml version="1.0" encoding="UTF-8" standalone="no"?>
<svg
   version="1.1"
   width="494.38217"
   height="209.35397"
   id="svg1"
   xmlns="http://www.w3.org/2000/svg"
   xmlns:svg="http://www.w3.org/2000/svg">
  <defs
     id="defs1" />
  <path
     d="m 247.13554,209.35398 c -35.69541,-19.6154 -66.48927,-49.00619 -66.48927,-49.00619 l -73.52312,24.48002 -9.083094,-25.8831 70.707744,-26.61232 c -0.72,-9.08308 -1.40308,-27.97848 -1.40308,-27.97848 L 107.12315,81.24005 C 94.541596,100.81852 69.295426,82.64313 69.295426,82.64313 L 0,30.11079 c 0,0 70.707736,2.12308 92.409286,4.21846 C 114.12007,36.41541 112.717,55.3108 112.717,55.3108 L 167.34472,75.60928 166.61586,0 c 0,0 23.83386,37.13541 41.32618,37.13541 C 225.43436,37.13541 247.13591,0 247.13591,0 h 0.0738 c 0,0 21.70155,37.13541 39.23079,37.13541 C 303.92359,37.13541 327.75745,0 327.75745,0 l -0.72,75.60928 54.5908,-20.29848 c 0,0 -1.36615,-18.89539 20.34463,-20.98155 21.70155,-2.09538 92.40929,-4.21846 92.40929,-4.21846 l -69.30466,52.53234 c 0,0 -25.23694,18.17539 -37.81849,-1.40308 l -60.22157,23.11386 c 0,0 -0.68308,18.8954 -1.40308,27.97848 l 70.70774,26.61232 -9.08309,25.8831 -73.52312,-24.48002 c 0,0 -30.79386,29.39079 -66.52619,49.00619 h -0.0738 z"
     id="path1" />
</svg>
