<svg xmlns="http://www.w3.org/2000/svg" width="600" height="522.55"><path d="M124.046 522.55H99.785V239.32l22.134-58.323 21.05-22.276 16.163-35.63H84.623L68.671 102.3 33.503 77.448 0 0h600l-33.503 77.539-35.138 24.761-16.475 20.79h-73.978l16.154 35.69 21.111 22.276 22.044 58.295v87.452l-35.929 18.722h-11.63l-51.554 32.831-47.858 24.934h-23.06l-52.053 39.101-47.59 24.762h-23.208l-52.143 39.191z"/><path d="M439.122 261.245h-32.48l-10.735 14.348v94.627l53.98-34.347-.03-60.28zm-245.875 0h-32.458l-10.727 14.348v222.554l54.031-40.676-.09-181.878zm122.941 0H283.7l-10.727 14.348v158.602l54.002-40.558-.06-118.044zm-186.513-74.441h340.68L448.923 164.2H151.107Zm392.062-89.52L496.22 71.209H103.808L78.323 97.284l12.832 16.184h72.373c2.427-5.367 4.345-9.622 4.345-9.622h264.254s1.836 4.053 4.374 9.622h72.374z" style="fill:#fff"/></svg>