<?xml version="1.0" encoding="UTF-8" standalone="no"?>
<svg
   version="1.1"
   id="Layer_1"
   x="0px"
   y="0px"
   width="116.66119"
   height="50"
   xmlns="http://www.w3.org/2000/svg"
   xmlns:svg="http://www.w3.org/2000/svg">
  <defs
     id="defs5" />
  <g
     id="g5"
     transform="translate(7.2158472e-4)">
    <path
       d="M 16.972,50 C 16.613,50 16.253,49.934 15.907,49.79 14.596,49.247 13.91,47.801 14.305,46.447 L 18.841,30.939 3.404,34.502 c -0.209,0.044 -0.419,0.07 -0.625,0.07 -1.152,0 -2.216,-0.719 -2.618,-1.846 -0.475,-1.328 0.128,-2.8 1.394,-3.426 L 16.629,21.886 7.74,14.131 C 6.71,13.237 6.489,11.725 7.213,10.564 7.735,9.731 8.633,9.263 9.569,9.263 c 0.365,0 0.729,0.07 1.085,0.223 l 9.934,4.229 -1.112,-7.436 c -0.203,-1.35 0.606,-2.647 1.911,-3.059 0.276,-0.092 0.559,-0.131 0.834,-0.131 1.03,0 2.006,0.574 2.489,1.538 l 3.477,6.954 5.478,-10.122 C 34.167,0.539 35.117,0 36.106,0 c 0.337,0 0.676,0.062 1.003,0.188 1.303,0.5 2.032,1.897 1.7,3.251 l -1.763,7.212 C 42.717,8.478 52.4,5.56 63.575,5.56 c 22.969,0 48.562,12.439 53.037,36.215 0.266,1.406 -0.587,2.783 -1.963,3.177 -0.254,0.075 -0.513,0.11 -0.771,0.11 -1.114,0 -2.155,-0.676 -2.582,-1.763 C 110.829,42.111 99.421,14.2 64.812,14.2 c -5.396,0 -10.015,0.797 -13.741,1.827 l 1.148,0.026 c 1.397,0.035 2.558,1.096 2.704,2.484 0.146,1.389 -0.763,2.673 -2.125,2.993 l -13.515,3.212 7.794,8.225 c 0.944,0.999 1.019,2.542 0.175,3.624 -0.545,0.692 -1.359,1.065 -2.19,1.065 -0.467,0 -0.938,-0.118 -1.366,-0.359 l -8.846,-4.995 2.124,10.03 c 0.285,1.351 -0.464,2.699 -1.755,3.177 -0.315,0.118 -0.643,0.176 -0.964,0.176 -0.989,0 -1.939,-0.535 -2.438,-1.451 L 26.836,35.103 19.403,48.568 C 18.899,49.479 17.957,50 16.972,50"
       id="path1" />
    <path
       style="fill:url(#SVGID_3_)"
       id="SVGID_1_"
       d="M 28.086,17.597 22.222,5.867 24.075,18.215 9.569,12.041 21.602,22.535 2.779,31.794 22.84,27.167 16.977,47.223 26.853,29.327 34.261,42.9 30.862,26.855 45.061,34.877 33.949,23.153 52.157,18.832 38.58,18.521 c 0,0 9.565,-7.098 26.235,-7.098 37.032,0 49.068,30.865 49.068,30.865 C 109.872,20.993 86.415,8.334 63.577,8.334 46.6,8.334 33.025,15.437 33.025,15.437 L 36.109,2.782 Z" />
    <linearGradient
       id="SVGID_3_"
       gradientUnits="userSpaceOnUse"
       x1="-86.848602"
       y1="-363.97849"
       x2="-84.605698"
       y2="-363.97849"
       gradientTransform="matrix(14.5625,-25.223,25.223,14.5625,10483.743,3169.3865)">
      <stop
         style="stop-color:#8b723c"
         offset="0"
         id="stop1" />
      <stop
         style="stop-color:#d2bb7b"
         offset="0.3"
         id="stop2" />
      <stop
         style="stop-color:#ebd491"
         offset="0.5"
         id="stop3" />
      <stop
         style="stop-color:#d2bb7b"
         offset="0.7"
         id="stop4" />
      <stop
         style="stop-color:#8b723c"
         offset="1"
         id="stop5" />
    </linearGradient>
  </g>
</svg>
