<?xml version="1.0" encoding="UTF-8" standalone="no"?>
<svg
   version="1.1"
   id="Layer_1"
   x="0px"
   y="0px"
   width="111.103"
   height="44.444"
   viewBox="0 0 111.10299 44.443999"
   xmlns="http://www.w3.org/2000/svg"
   xmlns:svg="http://www.w3.org/2000/svg">
  <defs
     id="defs2" />
  <g
     transform="rotate(-90,22.218639,24.999361)"
     id="g2">
    <g
       transform="rotate(90,24.999639,25.000361)"
       id="g1">
      <path
         d="m 33.024,15.437 c 0,0 13.577,-7.099 30.554,-7.099 22.835,0 46.293,12.654 50.305,33.95 0,0 -12.037,-30.865 -49.071,-30.865 -16.665,0 -26.232,7.098 -26.232,7.098 L 52.157,18.832 33.952,23.153 45.06,34.878 30.865,26.855 34.261,42.901 26.854,29.327 16.979,47.226 22.841,27.166 2.78,31.794 21.605,22.535 9.568,12.041 24.074,18.215 22.224,5.867 28.085,17.597 36.108,2.782 Z"
         id="path1" />
    </g>
  </g>
</svg>
