<svg xmlns="http://www.w3.org/2000/svg" width="545.821" height="560.213"><path d="M256.859 236.095c9.185 13.44 14.346 68.151 14.346 68.151 23.331 10.214 68.52.783 68.52.783.89-38.568-16.988-76.26-16.988-76.26-29.092 5.759-65.878 7.326-65.878 7.326m-.246 82.973c7.864 21.303-.66 77.29-.66 77.29 31.027 24.467 70.563 27.293 70.563 27.293 21.657-43.314 18.846-103.554 18.846-103.554-38.584 12.241-88.748-1.03-88.748-1.03M248.396 117.9s35.65-19.921 37.74-38.829c2.103-18.892-5.223-19.967-10.492-39.889-5.222-19.983 6.298-29.398 6.298-29.398s-29.398 15.713-34.62 33.591c-5.284 17.818-1.076 28.324 3.117 37.8 4.193 9.416 4.193 24.115-2.043 36.725m12.718 6.897c-7.91.292-14.806.661-15.528 2.81-.723 2.105 1.49 10.875 3.778 18.786 2.212 8.048 5.16 15.774 7.204 17.033 1.858 1.152 7.726-.476 15.36-1.49 8.816-1.136 16.849-1.03 17.878-2.826 1.075-1.797-1.382-9.953-4.208-18.354-2.458-7.02-4.977-14.408-7.557-15.544-2.704-1.137-9.416-.723-16.927-.416m-30.658 52.085S111.91 257.996 137.53 370.675c0 0 73.373-40.918 104.876-181.505 0 0 .476-10.26-11.95-12.288m-2.749-14.884s1.736-9.185 2.872-20.459c0 0-102.295-14.468-155.455 9.416 0 0-55.74 75.953-47.584 131.463 0 0 15.252 0 21.427-5.1 0 0 38.214-45.786 64.74-67.566 0 0 67.322-43.13 109.976-46.617zM2.703 100.913s127.916-25.558 208.861 21.12c0 0 9.723 7.326 23.577-5.33 0 0-63.712-70.44-110.82-71.162 0 0-67.736 14.869-124.321 49.612zm318.775 65.94c56.646 132.184 144.78 133.505 144.78 133.505-6.298-115.382-133.2-150.31-133.2-150.31-11.457 5.407-11.58 16.804-11.58 16.804m2.995-29.398c41.947-8.34 118.5 14.699 118.5 14.699 31.502 13.685 80.76 47.215 80.76 47.215 7.373 3.118 22.088-1.075 22.088-1.075-7.388-55.556-81.852-113.277-81.852-113.277-57.706-8.34-152.091 33.607-152.091 33.607 4.193 10.49 8.402 18.83 8.402 18.83zM516.238 14.1C452.281-3.717 383.04.415 383.04.415 337.913 14.1 295.981 99.3 295.981 99.3c16.803 8.402 24.114-1.32 24.114-1.32C385.143 30.841 515.21 20.335 515.21 20.335zM239.933 408.582c0 31.027-35.757 106.32-35.757 106.32 17.218 29.337 64.74 45.311 64.74 45.311 44.406-46.202 59.397-118.33 59.397-118.33-38.507-.355-88.38-33.3-88.38-33.3m76.261-192.042c-8.51-35.773-22.61-48-22.61-48-24.483 2.811-37.63 7.066-37.63 7.066 9.369 2.35 10.321 46.632 10.321 46.632 25.866-.246 49.919-5.698 49.919-5.698"/></svg>