<svg xmlns="http://www.w3.org/2000/svg" width="243.992" height="146.422" viewBox="0 0 243.992 146.422"><path d="M203.934 87.162c-5.58.65-11.08 3.43-15.43 6.89l-11.12-4.76c-1.4 8.37-4.15 16.45-7.44 24.23l9.48 4.08c2.31 20.02 21.89 33.78 40.75 23 25.21-14.41 13.37-56.91-16.24-53.44m15.99 38.63c-1.44.63-2.63 2.28-4.15 3.05-3.44 1.74-7.44 1.18-10.99.17-1.27-.36-3.8-1.63-4.76-1.74-.98-.11-2.33.38-3.58.24-4.33-.47-5.99-4.3-5.61-8.25.15-1.58 1.16-3.42 1.18-4.84 0-.33-.23-2.65-.28-2.83-.28-.86-1.91.08-2.61-.16.12-1.17-.16-2.6 0-3.72.03-.22.42-1.3.6-1.31.85.37 2.68 2.08 3.49 1.82.14-.05 2.44-1.56 2.56-1.66.76-.71 1.9-3.23 2.96-4.36 2.95-3.18 6.66-3.93 9.84-.5.75.82 1.08 2.01 1.69 2.63 1.24 1.28 5.03 2.97 6.81 4.47 2.72 2.28 4.58 4.9 4.93 8.51.1 1.09-.13 2.22.06 3.3.22 1.35 1.47 2.8 1.87 4.13-1.29.58-2.71.47-4.01 1.05m22.26-83.54c-2.5 9.41-7.96 18.17-17.28 21.95-9.58 3.89-19.58 1.53-27.61-4.56l-.53-.08-23.7 10.29c.68-8.93-.01-17.99-.85-26.9l15.46-6.74c2.44-19.85 18.12-32.29 38.01-24.86.41.15 4.99 2 4.74 2.33l-23.22 10.39-3.32 18.07 14.9 10.21zm-66.72-40.08h-42.96c9.42 23.65 13.98 49.9 8.91 75.2l12.7 10.85 14.09-5.82c.35-.11.41-.41.48-.72.66-2.97 1.04-7.42 1.26-10.51.83-11.62-.11-23.53-2.23-34.97-.61-3.28-1.47-6.51-2.09-9.79h9.84zm-16.63 78.61c-.67 2.38-3.92 3.21-5.83 1.85-2.85-2.02-2.29-7.02 1.26-7.62 3.72-.63 5.5 2.4 4.57 5.77m-4.92-44.28c4-2.06 7.48 3.42 4.65 6.69-.1.11-1.26 1.07-1.38 1.14-3.71 2.1-8.36-5.2-3.27-7.83m3.63 27.87c-5.28.64-6.01-7.57-1.36-8.32 5.77-.94 6.66 7.68 1.36 8.32m-2.3-42.62c-.52.99-.7 2.25-1.4 3.04-.35-2.67-1.94-5.03-4-6.68l-3.92-2.2c4.64-.98 6.32-4.04 7.92-8.04.11-.28-.18-.46.48-.36.67 4.2 3.89 7.42 7.92 8.52-2.9 1.08-5.54 2.91-7 5.72m-15.06 35.38-1.56 17.28c-.91-.56-3.91-2.45-4.69-3.02l-24.59 16.94-3.95-16.07zm-22.56 5.76-12.72 5.76-.72-11.52zm-15.56-25.76c1.7-12.02 5.23-23.68 9.56-34.96h-42.72v24.24h9.84c-4.27 16.25-6.05 33.42-3.83 50.15l14.46-5.72c5.49 5.9 10.9 11.93 16.25 17.97.13.15.19.49.48.48.15-.39-.18-.55-.24-.72-5.31-16.84-6.27-33.95-3.8-51.44m-13.02 26.66c-6.13 3.06-8.24-7.18-2.46-7.99 3.99-.56 6.29 6.08 2.46 7.99m1.8-20.04c-5.27 3.91-9.42-6.52-3.3-7.62 4.19-.76 6.76 5.04 3.3 7.62m4.7-26.5c-2.73 1.63-4.72 4.39-5.3 7.54l-1.64-3.52c-1.59-2.79-3.38-3.8-6.28-4.88l-.24-.48c4.42-1.18 6.81-4.42 8.04-8.64 1.02 4.03 3.78 7.8 8.04 8.64zm79.2 66.28c-2.27 23.24-14.67 49.59-38.83 56.33-10.73 3-22.63 2.25-32.92-1.98-20.94-8.61-32.19-32.61-35.97-53.73l21.44-9.19 18 20.03 27.4-19.1 19.69 16.49zm-110.16 6.72-8.76 3.74c-7.85-5.82-18.08-9.06-27.6-5.43-23.77 9.07-24.14 45.22 0 54.01 18.33 6.68 34.37-6.82 36.4-24.92l8.62-3.78c-3.44-7.67-6.57-15.46-8.66-23.62m-9.86 21.18-2.64-.24c.14 1.27-.36 2.45-.24 3.72.13 1.39 1.03 3.03 1.17 4.59.35 3.81-1.49 7.57-5.61 8.01-1.31.14-2.67-.35-3.78-.19-1.12.16-3.22 1.3-4.56 1.69-3.82 1.12-8.07 1.63-11.63-.49-1.21-.73-2.21-2.14-3.34-2.66-1.32-.61-2.87-.52-4.18-1.13.25-1.43 1.62-2.75 1.87-4.12.22-1.18-.04-2.56.06-3.78.31-3.42 2.62-6.2 5.17-8.27 1.67-1.37 5.44-3.05 6.53-4.15.31-.32.83-1.69 1.38-2.34 3.6-4.35 7.65-2.84 10.8.96.81.97 1.55 2.7 2.3 3.46.11.12 2.26 1.64 2.39 1.7 1.04.47 2.67-1.46 3.71-1.79.2 0 .6 1.38.6 1.55zm17.02-68.66-.93 12.31-.11 14.77-23.32-10.27c-4.38 2.77-8.74 5.29-13.95 6.11-14.37 2.26-25.08-6.12-29.99-19.06-.35-.93-1.22-3.16-1.27-4.02-.02-.38-.04-.41.37-.36l23.04 10.24 14.72-10.05-3.13-18.39-23.47-10.37c-.43-.57 7.29-3.3 7.92-3.47 18.47-5.13 32.85 7.91 34.92 25.8z"/><path d="M243.884 40.692c-.16-.44-.14-.5-.51-.72-.45-.26-1.62.22-1.62.22-.46.12-.89.3-1.11.4l-21.67 9.54c-.36 0-12.76-8.76-12.76-8.76s2.02-11.71 2.85-15.81l22.8-10.19c.06-.05.46-.45.48-.48.87-2.66-1.24-3.45-3.2-4.36-6.1-2.87-11.07-4.05-17.79-3.45-.16.02-1.18.11-1.34.13-4.36.8-8.03 2.72-11.75 5.04-.09.07-2.32 1.92-2.4 1.99-.95.8-2.56 2.73-2.64 2.81-1.05 1.38-1.8 2.47-2.59 3.76-2.59 4.22-4.11 9.08-4.89 13.95l-14.99 6.61s-2.73-12.15-2.49-12.8c2.08-.17 6.67-.4 9.07-.68l-.14-27.77-1.24-.01h-44.18c-.89.42-1.64 1.32-1.38 2.35 3.5 9.01 6.64 18.24 8.35 27.79.01.08.24 1.2.24 1.2.01.08.8 3.62 1.09 5.47.01.08.69 4.95.83 6.41.15 1.56.31 3.11.4 4.66.02.32.25 4.29.08 5.54-.03.25-.11.5-.24.72l-18.88 8.33c-3.18-1.06-6.16-2.62-9.2-4.01-2.71-1.12-7.16-2.63-9.53-4.03-.24-.14-.48-.24-.55-.53-.12-.51.02-1.54 0-2.16-.03-1.04 1.67-16.72 1.68-16.8.37-2.83 1.91-9.76 1.92-9.84.99-7.36 4.92-15.42 7.15-22.5.37-1.39-.81-2.77-2.22-2.71 0 0-43.79.02-44.81.06.54 7.74.29 27.4.52 27.79.06.09.13.28.22.34.11.08 1 .12 1.12.13.1 0 7.42.22 7.42.22l-.12.51-2.16 10.32c-.02.09-.15.49-.55 1.64-4.23-1.9-8.82-3.48-12.98-5.52-2.34-1.15-1.51-.25-1.91-2.66-.01-.08-.15-.83-.16-.9-1.33-4.72-3.1-9.09-5.76-13.2-.07-.09-1.27-1.77-1.35-1.85-.64-.75-1.96-2.08-2.49-2.47-7.59-5.68-11.7-6.88-18.69-7.21-1.59-.07-9.78.81-12.99 2.53-2.19 1.18-6.61 2.36-4.5 5.48.06.06.12.11.18.16l22.64 10.06c.49.33 3.05 15.96 3.05 15.96s-12.95 8.54-12.97 8.54l-22.55-9.74c-1.57-.47-2.87 1-2.65 2.54.01.08-.01.16 0 .24 1.27 4.17 2.99 8.1 5.13 11.87.42.74.93 1.44 1.49 2.08.86 1 2.12 2.43 2.45 2.72.71.63 5.25 4.47 6.61 5.21 1.69.92 3.47 1.61 5.3 2.17 2.59.79 5.29 1.18 8 1.18.41 0 .99-.01 1.48-.01.64-.01 1.28-.08 1.9-.21l2.91-.61c1.88-.39 3.74-.93 5.49-1.71 2.36-1.05 4.6-2.36 6.84-3.68l24.82 10.8.42 6.43c-.23.39-5.6 2.28-6.53 2.83-2.72 1.6-.9 5.58-.9 5.58l-9.51 3.98c-.22-.06-2.9-1.93-2.99-2-2.87-1.7-4.15-2.22-6.76-3.14-.76-.27-1.2-.47-1.97-.69-.36-.1-1.89-.4-1.97-.42-.79-.18-2.71-.39-2.79-.39-5.61-.18-10.41.64-15.39 3.28-1.42.75-2.66 1.8-4.11 2.49-.08.08-1.77 1.52-1.92 1.68-.39.4-.81.8-1.2 1.2s-.78.74-1.2 1.2c-.19.22-.82 1.07-1.35 1.79-.55.74-1.05 1.53-1.47 2.35-.94 1.82-2.61 5.15-3.19 7.01-.28.91-.5 1.83-.69 2.76-.52 2.5-.76 5.06-.71 7.62.02.81.07 1.98.12 2.95.05 1.09.18 2.18.44 3.24 1.16 4.64 3.17 8.87 5.89 12.84.07.08 1.22 1.44 1.44 1.68.44.47.97.96 1.44 1.44.24.24.49.48.72.72.54.53 1.51 1.24 2.04 1.63q.435.33.9.6c3.56 2.04 7.27 3.7 11.29 4.63.26.07.53.11.8.15.55.07 1.99.19 2.04.19 3.71.03 6.09-.1 9.81-.96.08-.02 1.19-.44 2.12-.78.87-.31 1.72-.69 2.53-1.13l1.38-.75c1.35-.74 2.65-1.58 3.82-2.58.16-.13.31-.26.47-.37.64-.46 1.25-.94 1.8-1.51.33-.34 1.29-1.38 1.93-2.07.39-.44.75-.9 1.07-1.4 2.07-3.25 3.95-6.64 5.11-10.34.46-1.48.68-3.81 1.19-5.05.09-.24.11-.43.43-.53l8.72-3.7 6.63 9.57c.08.08 1.68 1.9 1.92 2.16 1.14 1.24 2.41 2.35 3.58 3.55q1.47 1.5 3.18 2.7c2.08 1.45 5.39 3.75 6.2 4.19 4.47 2.46 9.87 4.37 14.4 5.4 4.41 1 9.04.98 13.92.96.16 0 1.46-.11 2.33-.18.53-.04 1.05-.12 2.06-.32l6-1.24c.53-.11 1.05-.25 1.57-.42.77-.26 1.97-.64 2.95-.96.44-.15.86-.32 1.28-.51 1.75-.83 3.45-1.8 5.18-2.66.88-.43 1.73-.94 2.52-1.53.29-.22.62-.44.93-.64.78-.47 1.54-.98 2.24-1.56.69-.56 1.39-1.15 1.5-1.26.5-.52 1.84-1.6 1.92-1.68l.48-.48.96-.96c.32-.32.62-.67.91-1.03.73-.94 1.46-1.8 2.21-2.57.08-.08.87-1.1 1.2-1.44.04-.05.31-.38.55-.68.27-.35.52-.7.75-1.08l4.82-7.82 9.55 4.28c.93 3.17 1.67 6.46 3.01 9.54 1.03 2.37 2.39 4.37 3.73 6.5.42.66.87 1.29 1.37 1.89 1.02 1.25 2.23 2.72 5.26 4.65 2.91 1.62 5.73 3.01 8.88 4.02.62.2 1.27.36 1.92.49l.24.05c.08 0 2.23.25 2.38.25 3 .01 4.17-.17 5.32-.21.61-.02 1.61-.15 2.21-.28 1.3-.27 1.18-.23 2.57-.6 1.86-.5 4.25-1.47 6-2.28 1.72-1.01 5.2-3.52 5.28-3.6 1.07-1.03 2.12-2.13 3.18-3.18.27-.28.53-.57.76-.88s.54-.73.78-1.04q.33-.435.6-.9c2.27-3.96 4.07-8.08 4.93-12.59.05-.25.08-.49.11-.73.07-.55.2-1.58.2-2.04 0-.41.01-.82.01-1.24.01-1-.06-2-.19-3l-.48-3.7c-.09-.66-.19-1.32-.35-1.97-.81-3.36-2.28-6.38-3.85-9.44-.4-.78-.88-1.51-1.43-2.18-3.37-4.09-3.43-3.88-4.51-4.87a50 50 0 0 0-1.44-1.2 36.3 36.3 0 0 0-12.01-5.26c-1.07-.25-2.16-.39-3.25-.4-1.24-.02-3.01-.04-4.1.14-.21.04-2.48.42-3.49.57-.6.1-3.3 1.12-3.86 1.35l-2.65 1.07c-1.4.57-2.73 1.29-3.97 2.14-1.14.79-2.38 1.71-2.38 1.71l-11.33-5.04c.15-1.9.24-3.91-.61-4.67-1.18-1.04-3.96-.05-5.63.95l1.32-10.48s2.49-.83 3.17-1.11l21.55-9.52c7.21 4.97 14.6 6.91 23.4 5.99 5.23-.55 7.53-2.29 10.74-4.51.89-.61 3.01-2.29 3.18-2.45.34-.32 1.02-1 1.6-1.59a14.4 14.4 0 0 0 1.83-2.22c2.19-3.26 4.26-6.62 5.57-10.36.65-1.87 1.21-4.1.86-6.11m-173.07 14.39-.11 14.77-23.32-10.27c-4.38 2.77-8.74 5.29-13.95 6.11-14.37 2.26-25.08-6.12-29.99-19.06-.35-.93-1.22-3.16-1.27-4.02-.02-.38-.04-.41.37-.36l23.04 10.24 14.72-10.05-3.13-18.39-23.47-10.37c-.43-.57 7.29-3.3 7.92-3.47 18.47-5.13 32.85 7.91 34.92 25.8l15.2 6.76zm61.69-52.91h42.96v24.24h-9.84c.62 3.28 1.48 6.51 2.09 9.79 2.12 11.44 3.06 23.35 2.23 34.97-.22 3.09-.6 7.54-1.26 10.51-.07.31-.13.61-.48.72l-14.09 5.82-12.7-10.85c5.07-25.3.51-51.55-8.91-75.2m7.68 54.96-1.56 17.28c-.91-.56-3.91-2.45-4.69-3.02l-24.59 16.94-3.95-16.07zm-22.56 5.76-12.72 5.76-.72-11.52zm-38.88-36.48h-9.84V2.172h42.72c-4.33 11.28-7.86 22.94-9.56 34.96-2.47 17.49-1.51 34.6 3.8 51.44.06.17.39.33.24.72-.29.01-.35-.33-.48-.48-5.35-6.04-10.76-12.07-16.25-17.97l-14.46 5.72c-2.22-16.73-.44-33.9 3.83-50.15m-14.12 91.24c-2.03 18.1-18.07 31.6-36.4 24.92-24.14-8.79-23.77-44.94 0-54.01 9.52-3.63 19.75-.39 27.6 5.43l8.76-3.74c2.09 8.16 5.22 15.95 8.66 23.62zm112.76-28.36 11.12 4.76c4.35-3.46 9.85-6.24 15.43-6.89 29.61-3.47 41.45 39.03 16.24 53.44-18.86 10.78-38.44-2.98-40.75-23l-9.48-4.08c3.29-7.78 6.04-15.86 7.44-24.23m-2.64-5.76c-2.27 23.24-14.67 49.59-38.83 56.33-10.73 3-22.63 2.25-32.92-1.98-20.94-8.61-32.19-32.61-35.97-53.73l21.44-9.19 18 20.03 27.4-19.1 19.69 16.49zm50.16-19.33c-9.58 3.89-19.58 1.53-27.61-4.56l-.53-.08-23.7 10.29c.68-8.93-.01-17.99-.85-26.9l15.46-6.74c2.44-19.85 18.12-32.29 38.01-24.86.41.15 4.99 2 4.74 2.33l-23.22 10.39-3.32 18.07 14.9 10.21 23.4-10.1c-2.5 9.41-7.96 18.17-17.28 21.95m-62.66-48.17c-2.9 1.08-5.54 2.91-7 5.72-.52.99-.7 2.25-1.4 3.04-.35-2.67-1.94-5.03-4-6.68l-3.92-2.2c4.64-.98 6.32-4.04 7.92-8.04.11-.28-.18-.46.48-.36.67 4.2 3.89 7.42 7.92 8.52m-4.7 48.34c-5.28.64-6.01-7.57-1.36-8.32 5.77-.94 6.66 7.68 1.36 8.32m1.29 16.41c-.67 2.38-3.92 3.21-5.83 1.85-2.85-2.02-2.29-7.02 1.26-7.62 3.72-.63 5.5 2.4 4.57 5.77m-.27-37.59c-.1.11-1.26 1.07-1.38 1.14-3.71 2.1-8.36-5.2-3.27-7.83 4-2.06 7.48 3.42 4.65 6.69m-60.4-27.28-2.62 1.34c-2.73 1.63-4.72 4.39-5.3 7.54l-1.64-3.52c-1.59-2.79-3.38-3.8-6.28-4.88l-.24-.48c4.42-1.18 6.81-4.42 8.04-8.64 1.02 4.03 3.78 7.8 8.04 8.64m-7.32 27.84c-5.27 3.91-9.42-6.52-3.3-7.62 4.19-.76 6.76 5.04 3.3 7.62m-1.8 20.04c-6.13 3.06-8.24-7.18-2.46-7.99 3.99-.56 6.29 6.08 2.46 7.99m134.89 60.95c-1.29.58-2.71.47-4.01 1.05-1.44.63-2.63 2.28-4.15 3.05-3.44 1.74-7.44 1.18-10.99.17-1.27-.36-3.8-1.63-4.76-1.74-.98-.11-2.33.38-3.58.24-4.33-.47-5.99-4.3-5.61-8.25.15-1.58 1.16-3.42 1.18-4.84 0-.33-.23-2.65-.28-2.83-.28-.86-1.91.08-2.61-.16.12-1.17-.16-2.6 0-3.72.03-.22.42-1.3.6-1.31.85.37 2.68 2.08 3.49 1.82.14-.05 2.44-1.56 2.56-1.66.76-.71 1.9-3.23 2.96-4.36 2.95-3.18 6.66-3.93 9.84-.5.75.82 1.08 2.01 1.69 2.63 1.24 1.28 5.03 2.97 6.81 4.47 2.72 2.28 4.58 4.9 4.93 8.51.1 1.09-.13 2.22.06 3.3.22 1.35 1.47 2.8 1.87 4.13m-169.21-13.31-2.64-.24c.14 1.27-.36 2.45-.24 3.72.13 1.39 1.03 3.03 1.17 4.59.35 3.81-1.49 7.57-5.61 8.01-1.31.14-2.67-.35-3.78-.19-1.12.16-3.22 1.3-4.56 1.69-3.82 1.12-8.07 1.63-11.63-.49-1.21-.73-2.21-2.14-3.34-2.66-1.32-.61-2.87-.52-4.18-1.13.25-1.43 1.62-2.75 1.87-4.12.22-1.18-.04-2.56.06-3.78.31-3.42 2.62-6.2 5.17-8.27 1.67-1.37 5.44-3.05 6.53-4.15.31-.32.83-1.69 1.38-2.34 3.6-4.35 7.65-2.84 10.8.96.81.97 1.55 2.7 2.3 3.46.11.12 2.26 1.64 2.39 1.7 1.04.47 2.67-1.46 3.71-1.79.2 0 .6 1.38.6 1.55z" style="fill:#fff"/></svg>