<svg xmlns="http://www.w3.org/2000/svg" width="600" height="327.142"><path d="M39.295 100.702c36.425 34.342 88.167 45.164 111.087 48.153 11.04 14.913 40.614 31.702 117.742 31.702 11.421 0 20.749 9.294 20.749 20.749 0 11.422-9.328 20.76-20.75 20.76l-29.781.163-2.651.807c-11.247 3.546-30.251 18.328-30.251 51.393 0 32.771 18.622 47.902 29.575 51.698l2.978 1.015h277.68l2.934-1.015c10.953-3.796 29.575-18.927 29.575-51.698 0-33.065-19.004-47.847-30.251-51.393l-19.015-.97c-10.69 0-19.341-8.695-19.341-19.353 0-10.648 8.65-19.342 19.341-19.342h101.04L600 0H203.65l-13.417 17.17H0s3.24 49.56 39.295 83.532" style="fill:gray"/><path d="M446.89 229.604c0-10.309-8.4-18.709-18.708-18.709-10.31 0-18.666 8.4-18.666 18.71 0 10.308 8.357 18.665 18.666 18.665s18.709-8.357 18.709-18.666m-88.255 0c0-10.309-8.356-18.709-18.665-18.709-10.31 0-18.666 8.4-18.666 18.71 0 10.308 8.357 18.665 18.666 18.665s18.665-8.357 18.665-18.666m222.611-64.898h-82.33c-21 0-38.008 16.996-38.008 38.007s17.007 38.018 38.007 38.018l13.43.12s17.17 5.368 17.17 33.579c0 28.167-17.007 34.015-17.007 34.015H241.113s-17.008-5.848-17.008-34.015c0-28.21 17.128-33.578 17.128-33.578l26.89-.12c21.775 0 39.415-17.695 39.415-39.426 0-21.775-17.64-39.415-39.414-39.415-103.375 0-105.382-30.556-105.382-30.556S43.385 124.691 23.356 35.837H199.31l13.462-17.127h368.564z"/></svg>