<svg xmlns="http://www.w3.org/2000/svg" width="600" height="327.142"><radialGradient id="a" cx="0" cy="0" r="1" fx="0" fy="0" gradientTransform="translate(303.245 163.566)scale(216.01327)" gradientUnits="userSpaceOnUse" spreadMethod="pad"><stop offset="0" style="stop-color:#f6b91d"/><stop offset=".7" style="stop-color:#d3641c"/><stop offset="1" style="stop-color:#bf331c"/></radialGradient><path d="M39.295 100.701c36.425 34.342 88.167 45.164 111.087 48.153 11.04 14.913 40.614 31.702 117.742 31.702 11.421 0 20.749 9.294 20.749 20.749 0 11.422-9.328 20.76-20.75 20.76l-29.781.164-2.651.807c-11.247 3.546-30.251 18.328-30.251 51.393 0 32.771 18.622 47.902 29.575 51.698l2.978 1.015h277.636l2.978-1.015c10.953-3.796 29.575-18.927 29.575-51.698 0-33.065-19.004-47.847-30.251-51.393l-19.015-.97c-10.69 0-19.341-8.695-19.341-19.353 0-10.648 8.65-19.342 19.341-19.342h101.04L600 0H203.65l-13.417 17.17H0s3.24 49.56 39.295 83.532" style="fill:#fff"/><path d="M446.89 229.603c0-10.309-8.4-18.709-18.708-18.709-10.31 0-18.666 8.4-18.666 18.71 0 10.308 8.357 18.665 18.666 18.665s18.709-8.357 18.709-18.666m-88.255 0c0-10.309-8.356-18.709-18.665-18.709-10.31 0-18.71 8.4-18.71 18.71 0 10.308 8.4 18.665 18.71 18.665 10.309 0 18.665-8.357 18.665-18.666m222.611-64.898h-82.33c-21 0-38.052 16.996-38.052 38.007s17.051 38.018 38.051 38.018l13.43.12s17.17 5.367 17.17 33.578c0 28.167-17.007 34.015-17.007 34.015H241.113s-17.008-5.848-17.008-34.015c0-28.21 17.128-33.578 17.128-33.578l26.89-.12c21.775 0 39.415-17.694 39.415-39.425 0-21.775-17.64-39.415-39.414-39.415-103.375 0-105.382-30.556-105.382-30.556S43.385 124.69 23.356 35.836H199.31l13.462-17.127h368.564z" style="fill:#bf331c"/><path d="M215.71 24.672 204.039 39.54l-1.833 2.302H31.151c23.574 76.45 130.832 83.443 131.934 83.52l4.778.643.851 4.647c0 .251 5.662 25.222 99.415 25.222a45.46 45.46 0 0 1 45.425 45.426 45.46 45.46 0 0 1-45.381 45.425l-25.691.088c-2.728 1.32-12.36 7.418-12.36 27.61 0 20.16 9.545 26.597 12.316 28.048h268.757c2.77-1.451 12.316-7.887 12.316-28.047 0-20.237-9.666-26.291-12.36-27.611l-12.23-.088a44.073 44.073 0 0 1-44.017-44.018 44.02 44.02 0 0 1 44.018-43.974h76.364l.043-134.062zm187.844 204.883a24.687 24.687 0 0 1 24.677-24.632 24.71 24.71 0 0 1 24.633 24.632 24.665 24.665 0 1 1-49.31 0m-88.254 0a24.687 24.687 0 0 1 24.676-24.632 24.655 24.655 0 0 1 0 49.309 24.655 24.655 0 0 1-24.676-24.677" style="fill:url(#a);stroke-width:10.9091"/></svg>