<svg xmlns="http://www.w3.org/2000/svg" width="600" height="327.142"><radialGradient id="a" cx="0" cy="0" r="1" fx="0" fy="0" gradientTransform="matrix(216.01 0 0 216.00989 303.243 163.577)" gradientUnits="userSpaceOnUse" spreadMethod="pad"><stop offset="0" style="stop-color:#d9eaf3"/><stop offset=".663" style="stop-color:#99aebc"/><stop offset="1" style="stop-color:#536e78"/></radialGradient><path d="M39.295 100.701c36.425 34.342 88.167 45.164 111.087 48.153 11.04 14.913 40.614 31.702 117.742 31.702 11.421 0 20.749 9.294 20.749 20.749 0 11.422-9.328 20.76-20.75 20.76l-29.781.164-2.651.807c-11.247 3.546-30.251 18.328-30.251 51.393 0 32.771 18.622 47.902 29.575 51.698l2.978 1.015h277.636l2.978-1.015c10.953-3.796 29.575-18.927 29.575-51.698 0-33.065-19.004-47.847-30.251-51.393l-19.015-.97c-10.69 0-19.341-8.695-19.341-19.353 0-10.648 8.65-19.342 19.341-19.342h101.04L600 0H203.65l-13.417 17.17H0s3.24 49.56 39.295 83.532" style="fill:#fff"/><path d="M446.89 229.603c0-10.309-8.4-18.709-18.708-18.709-10.31 0-18.666 8.4-18.666 18.71 0 10.308 8.357 18.665 18.666 18.665s18.709-8.357 18.709-18.666m-88.255 0c0-10.309-8.356-18.709-18.665-18.709-10.31 0-18.71 8.4-18.71 18.71 0 10.308 8.4 18.665 18.71 18.665 10.309 0 18.665-8.357 18.665-18.666m222.611-64.898h-82.33c-21 0-38.052 16.996-38.052 38.007s17.051 38.018 38.051 38.018l13.473.12s17.127 5.367 17.127 33.578c0 28.167-17.007 34.015-17.007 34.015H241.113s-17.008-5.848-17.008-34.015c0-28.21 17.128-33.578 17.128-33.578l26.89-.12c21.775 0 39.415-17.694 39.415-39.425 0-21.775-17.64-39.415-39.414-39.415-103.375 0-105.382-30.556-105.382-30.556S43.385 124.69 23.356 35.836H199.31l13.462-17.127h368.564z" style="fill:#536e78"/><path d="m215.676 24.715-11.64 14.826-1.833 2.302H31.148c23.575 76.45 130.833 83.443 131.935 83.476l4.778.687.851 4.604c.044.294 5.706 25.222 99.415 25.222a45.49 45.49 0 0 1 45.425 45.469 45.46 45.46 0 0 1-45.382 45.425l-25.734.088c-2.771 1.363-12.36 7.461-12.36 27.61 0 20.073 9.502 26.553 12.36 28.048h268.8c2.815-1.495 12.273-7.975 12.273-28.047 0-20.15-9.59-26.248-12.36-27.611l-12.23-.088a44.105 44.105 0 0 1-44.018-44.018 44.105 44.105 0 0 1 44.019-44.018h76.363l.044-133.975zM403.509 229.6a24.73 24.73 0 0 1 24.72-24.676 24.71 24.71 0 0 1 24.632 24.676 24.71 24.71 0 0 1-24.632 24.676 24.73 24.73 0 0 1-24.72-24.676m-88.211 0a24.7 24.7 0 0 1 24.676-24.676 24.72 24.72 0 0 1 24.676 24.676 24.72 24.72 0 0 1-24.676 24.676 24.7 24.7 0 0 1-24.676-24.676" style="fill:url(#a);stroke-width:10.9091"/></svg>