<svg xmlns="http://www.w3.org/2000/svg" width="600" height="600"><path d="M300 600C134.535 600 0 465.48 0 300 0 134.595 134.535 0 300 0c165.405 0 300 134.595 300 300 0 165.48-134.595 300-300 300" style="fill:gray"/><path d="M300 64.17C169.74 64.17 64.155 169.755 64.155 300c0 130.26 105.585 235.845 235.845 235.845 130.245 0 235.845-105.585 235.845-235.845 0-130.245-105.6-235.83-235.845-235.83M576.915 300c0 152.985-123.99 276.915-276.915 276.915S23.085 452.985 23.085 300c0-152.925 123.99-276.915 276.915-276.915S576.915 147.075 576.915 300M265.89 437.52v-98.49l85.32-49.275 85.305 49.275v90.81l37.455-21.555V206.67L299.355 105.825 124.74 206.67v201.615L299.355 509.07l45.24-26.085z"/></svg>