<svg xmlns="http://www.w3.org/2000/svg" xmlns:xlink="http://www.w3.org/1999/xlink" width="600" height="600"><linearGradient id="a" x1="0" x2="1" y1="0" y2="0" gradientTransform="scale(36.9292 -36.9292)rotate(-30 -17.202 -9.141)" gradientUnits="userSpaceOnUse" spreadMethod="pad"><stop offset="0" style="stop-color:#612c75"/><stop offset=".3" style="stop-color:#7b5190"/><stop offset=".5" style="stop-color:#bf99c3"/><stop offset=".7" style="stop-color:#7b5190"/><stop offset="1" style="stop-color:#612c75"/></linearGradient><linearGradient xlink:href="#a" id="b" x1="0" x2="1" y1="0" y2="0" gradientTransform="scale(553.93803)rotate(-30 1.531 .193)" gradientUnits="userSpaceOnUse" spreadMethod="pad"/><path fill="#fff" d="M300 600C134.535 600 0 465.48 0 300 0 134.595 134.535 0 300 0c165.405 0 300 134.595 300 300 0 165.48-134.595 300-300 300"/><path d="M23.085 300c0 152.985 123.93 276.915 276.915 276.915 152.925 0 276.915-123.93 276.915-276.915 0-152.925-123.99-276.915-276.915-276.915-152.985 0-276.915 123.99-276.915 276.915m41.07 0C64.155 169.755 169.74 64.17 300 64.17c130.245 0 235.845 105.585 235.845 235.83 0 130.26-105.6 235.845-235.845 235.845C169.74 535.845 64.155 430.26 64.155 300m60.585-93.33v201.615L299.355 509.07l45.24-26.085-78.705-45.465v-98.49l85.32-49.215 85.305 49.215v90.81l37.455-21.555V206.67L299.355 105.885Z" style="fill:url(#b)"/></svg>