<svg xmlns="http://www.w3.org/2000/svg" width="553.83" height="553.83"><path d="M276.915 41.085c-130.26 0-235.845 105.585-235.845 235.83 0 130.26 105.585 235.845 235.845 235.845 130.245 0 235.845-105.585 235.845-235.845 0-130.245-105.6-235.83-235.845-235.83m276.915 235.83c0 152.985-123.99 276.915-276.915 276.915S0 429.9 0 276.915C0 123.99 123.99 0 276.915 0S553.83 123.99 553.83 276.915m-311.025 137.52v-98.49l85.32-49.275 85.305 49.275v90.81l37.455-21.555V183.585L276.27 82.74 101.655 183.585V385.2L276.27 485.985l45.24-26.085Z"/></svg>