<svg xmlns="http://www.w3.org/2000/svg" xmlns:xlink="http://www.w3.org/1999/xlink" id="Layer_2" width="1031.06" height="1080.01" data-name="Layer 2" version="1.1"><defs id="defs16"><linearGradient id="linear-gradient" x1="-444.47" x2="-443.47" y1="1079.93" y2="1079.93" gradientTransform="matrix(916.64 0 0 -1035.08 407472.92 1118399.2)" gradientUnits="userSpaceOnUse"><stop id="stop1" offset="0" stop-color="#bb2c26"/><stop id="stop2" offset=".04" stop-color="#bf3526"/><stop id="stop3" offset=".11" stop-color="#cb4d25"/><stop id="stop4" offset=".19" stop-color="#de7523"/><stop id="stop5" offset=".21" stop-color="#e17a23"/><stop id="stop6" offset=".29" stop-color="#ee8b1f"/><stop id="stop7" offset=".38" stop-color="#f5951e"/><stop id="stop8" offset=".5" stop-color="#ff9915"/><stop id="stop9" offset=".62" stop-color="#f5951e"/><stop id="stop10" offset=".71" stop-color="#ee8b1f"/><stop id="stop11" offset=".79" stop-color="#e17a23"/><stop id="stop12" offset=".8" stop-color="#e07823"/><stop id="stop13" offset=".85" stop-color="#d35d24"/><stop id="stop14" offset=".91" stop-color="#c64225"/><stop id="stop15" offset=".96" stop-color="#be3226"/><stop id="stop16" offset="1" stop-color="#bb2c26"/></linearGradient><linearGradient xlink:href="#linear-gradient" id="linear-gradient-2" y1="1080.21" y2="1080.21" gradientTransform="matrix(1482.79 0 0 -1482.79 658806.9 1601896)"/><linearGradient xlink:href="#linear-gradient" id="linearGradient20" x1="-444.47" x2="-443.47" y1="1079.93" y2="1079.93" gradientTransform="matrix(916.64 0 0 -1035.08 407472.92 1118399.2)" gradientUnits="userSpaceOnUse"/><style id="style1">.cls-1{fill-rule:evenodd;stroke-width:0}</style></defs><g id="Layer_1-2" data-name="Layer 1"><g id="Mythic1"><path id="path16" d="M515.53 215.26c50.83-89.94 101.22-95.36 170.28-117.92C736.47 80.79 836.54 35.79 858.43.01c50.76 36.91 108.59 64.1 172.63 82.75-67.26 229.76-87.2 461.12-57.22 694.13-148.28 110.93-299.65 215.03-458.32 303.12C356.86 991.92 205.49 887.82 57.2 776.89 87.2 543.88 67.26 312.52 0 82.75 64.04 64.1 121.87 36.91 172.63 0c21.89 35.78 121.96 80.78 172.62 97.33 69.06 22.56 119.45 27.98 170.28 117.92z" class="cls-1"/><path id="path17" d="M515.53 1035.07c-101.64-56.42-199.85-122.42-296.08-193.99 19.14-211.24 11.94-426.64-26.84-647.03 47.9 16.81 100.16 36.1 179.34 63.68 34.93 46.62 78.34 82.81 143.58 82.81s108.65-36.19 143.58-82.81c79.18-27.59 131.44-46.87 179.34-63.68-38.78 220.39-45.98 435.79-26.84 647.03-96.23 71.57-194.44 137.57-296.08 193.99M185.52 815.56c-25.38-19.3-50.62-38.95-75.77-58.88 12.01-213.16-5.21-413.04-43.13-603.5 32.41 9.6 60 18.38 86.99 27.47 39.88 216.25 48.82 427.63 31.91 634.92zm660.02 0c-16.91-207.29-7.97-418.67 31.91-634.92 26.99-9.08 54.58-17.87 86.99-27.47-37.92 190.46-55.14 390.35-43.13 603.5-25.15 19.93-50.39 39.59-75.77 58.88z" style="fill-rule:evenodd;stroke-width:0;fill:url(#linearGradient20)"/><path id="path18" d="M515.5 303.01c-52.7-.01-98.21-31.08-119.2-75.88L57.22 97.18c36.25-15.08 75.07-38.17 111.31-61.63 21.49 19.14 107.53 73.07 179.23 91.14 98.29 24.79 156.58 83.72 167.77 163.94 11.2-80.22 69.48-139.15 167.77-163.94 71.7-18.07 157.74-72 179.23-91.14 36.24 23.46 75.06 46.55 111.31 61.63L634.76 227.14c-20.99 44.8-66.49 75.86-119.2 75.88h-.07z" style="fill-rule:evenodd;stroke-width:0;fill:url(#linear-gradient-2)"/><path id="path19" d="M551.59 441.48c42.53 78.41 90.59 144.68 144.48 198.47l30.3 30.24-31.5 28.99c-59.6 54.86-107 119.12-142.37 192.64l-36.97 76.87-36.97-76.87c-35.36-73.51-82.76-137.77-142.37-192.64l-31.5-28.99 30.3-30.24c53.89-53.78 101.95-120.06 144.48-198.47l36.06-66.5z" class="cls-1"/><path id="path20" d="M515.53 461.04c44.58 82.19 95.06 151.57 151.56 207.95-63.46 58.4-113.92 126.79-151.56 205.04-37.64-78.25-88.1-146.64-151.56-205.04 56.5-56.38 106.98-125.76 151.56-207.95" style="fill-rule:evenodd;stroke-width:0;fill:#fff"/></g></g></svg>