<svg xmlns="http://www.w3.org/2000/svg" width="600" height="264.973"><path d="M384.255 150.896c-.221.47-.47.905-.656 1.375.185-.508.398-.941.656-1.375" style="fill:gray"/><path d="M548.667 153.102c-12.904 17.667-34.18 28.624-53.324 37.023-.434.185-.904.36-1.338.545l18.793-83.942c.932-4.07-.074-8.326-2.668-11.575-.258-.323-.544-.535-.793-.794 24.193 9.018 42.976 20.483 46.327 39.7.148.905.222 1.81.222 2.668 0 5.88-3.434 11.104-7.219 16.375m-203.826 71.24-13.947.582c-.544 0-1.126.074-1.661.176-9.23 1.486-27.369 2.058-36.885.582-.72-.111-1.412-.185-2.132-.185h-9.23c-1.007-.066-36.267-2.77-37.421-2.88-1.412-.221-16.809-2.815-16.809-2.815-15.359-2.446-29.925-4.828-43.189-8.972-1.947-.619-4.116-1.412-6.424-2.28h58.992c16.079.074 32.74.11 46.115-5.077 9.987-3.895 18.064-9.627 24.627-17.344 13.448 22.061 43.733 22.135 66.994 22.135h1.44c14.205 0 28.882 0 41.25-3.895 3.997-1.219 7.791-2.991 11.354-5.151.507 1.366 1.154 2.705 2.095 3.858 2.557 3.166 6.342 5.05 10.385 5.114-16.227 4.117-33.285 7.68-51.238 11.252-1.191.148-43.596 4.837-44.316 4.901m-176.744-90.356s-5.769-4.652-8.723-7.025c.388-.147 2.336-.757 2.336-.757l16.337-5.196c-.756 3.424-3.027 13.67-3.969 17.814-1.984-1.624-3.96-3.175-5.98-4.836m-2.595 70.095c-6.784-2.52-13.845-4.762-20.593-5.805-.757-4.865-1.624-10.523-1.661-10.67-.03-.398-1.976-16.265-1.976-16.265s-1.55-12.793-1.883-15.645c8.945 4.541 17.926 9.516 27.332 14.962-2.012 8.907-4.579 20.224-4.579 20.224a14 14 0 0 0-.322 3v.895c0 3.61 1.412 6.85 3.683 9.304m203.53-47.878a9 9 0 0 1-.066-1.015c0-7.024 6.526-12.904 10.67-13.947 4.542-1.154 8.686-1.053 10.957-.582.258 2.667 1.228 5.261 2.89 7.357-2.096 1.55-3.822 3.673-4.8 6.202.295-.757.655-1.117.655-1.117-3.065 3.277-15.978 5.077-20.307 3.102M481.93 85.388a887 887 0 0 1 14.778 4.578h-35.62a13.766 13.766 0 0 0-13.449 10.782l-.434 1.91c-7.892-6.563-17.99-9.516-27.47-11.289-.582-.11-1.153-.175-1.735-.248-4.034-.185-39.663-2.133-53.112.073-19.688 3.24-34.18 10.025-44.638 20.907-4.145-7.421-10.458-13.338-18.71-16.91-12.184-5.224-27.58-5.086-42.516-4.975l-6.525.037H230.76c67.825-18.969 179.56-26.14 251.169-4.865m117.725 60.967c-7.145-52.853-58.41-72.828-92.341-86.101-24.378-9.517-50.73-14.353-78.644-19.467l-11.603-2.132c-.397-.074-.867-.138-1.301-.213l-35.62-3.212c-.222-.037-.434-.037-.62-.037l-25.346-1.19h-31.836l-15.617.295c-.287 0-.573 0-.896.037l-38.583 3.24c-.323.036-.941.11-1.265.184l-19.356 3.065c-11.833 1.726-24.054 3.563-35.841 6.562-16.375 4.182-32.168 9.37-47.703 15.498.11-.175.507-1.043.535-1.08.397-.72 12.157-21.377 12.157-21.377 1.19-2.133 1.8-4.477 1.8-6.785 0-3.71-1.477-7.356-4.33-10.024a13.71 13.71 0 0 0-16.91-1.55c-5.944 3.82-9.59 10.024-12.544 14.999l-2.381 3.858s-19.504 27.368-19.864 27.876c-3.323-11.067-8.87-29.925-9.018-30.322-.101-.471-7.283-28.088-7.283-28.088C103.37 3.283 96.236-1.221 89.055.293c-6.452 1.403-10.92 6.996-10.92 13.375 0 .757.037 1.477.176 2.233l3.646 22.504c2.307 13.698 4.578 27.728 6.092 41.75-9.055-4.579-17.704-9.046-25.993-13.91L40.596 53.58c-.86-.498-1.616-.858-2.557-1.154l-1.191-.396c-6.415-2.123-13.338.793-16.44 6.747-1.043 1.985-1.513 4.145-1.513 6.277 0 4.283 1.984 8.436 5.584 11.104 0 0 18.138 13.56 18.387 13.735.258.213 21.922 17.233 24.59 19.328-14.63 4.505-57.072 17.594-57.072 17.594-.683.212-1.477.545-2.095.83l-.61.286A13.77 13.77 0 0 0 0 140.263c0 1.265.175 2.594.535 3.858 1.883 6.415 8.15 10.57 14.824 9.84 11.142-1.255 22.209-3.388 32.88-5.437 9.23-1.809 18.682-3.535 28.309-4.837-.323.683-1.44 3.028-1.44 3.028-7.938 17.02-15.47 33.1-24.304 48.57-1.19 2.096-1.837 4.468-1.837 6.85v.285c0 7.615 6.166 13.781 13.772 13.781h.324c4.504 0 8.76-2.243 11.316-5.99 0 0 26.796-39.008 27.008-39.303.037-.067 2.779-3.822 4.366-6.019 1.699 6.092 3.277 12.332 4.828 18.498l4.55 17.556c0-.036-.036-.248-.036-.248 0 .073.066.36.101.433l-.066-.185c.36 1.413 5.298 21.6 5.621 23.04.905 6.747 6.6 11.971 13.597 11.971h.285c3.997 0 7.828-1.763 10.422-4.827.433-.507.793-1.015 1.153-1.588.212.148 4.182 1.726 4.182 1.726 15.147 6.563 30.608 11.326 47.776 16.486 92.877 27.719 236.853 21.304 321.044-14.39 25.199-10.67 50.915-23.907 68-48.026 4.071-5.732 14.852-20.953 12.443-38.98" style="fill:gray"/><path d="M229.858 127.248c12.369-.185 29.602-1.8 36.848 3.535 5.049 3.71 5.88 12.009 3.821 19.43-1.043 3.858-2.667 8.261-5.077 11.464-4.366 5.77-12.618 8.621-19.513 9.701-2.16.324-25.743.148-25.78.36 3.249-14.814 6.498-29.675 9.7-44.49m356.13 20.98c-5.871-43.733-47.704-61.114-83.647-75.135-26.464-10.31-56.25-15-87.8-20.916-11.898-1.08-23.759-2.16-35.657-3.24-8.437-.397-16.873-.794-25.347-1.19h-30.94c-5.188.1-10.384.174-15.609.322l-38.583 3.203c-18.571 3.36-36.922 5.012-54.229 9.452-29.814 7.606-55.558 17.778-79.824 30.073 5.695-11.834 11.39-23.62 17.085-35.371 4.108-7.283 8.261-14.538 12.369-21.821-4.652 3.037-7.929 10.781-11.178 15.332-12.009 16.8-23.98 33.599-35.943 50.37-.111.176-.185.397-.333.572a26332 26332 0 0 1-17.048-57.727c-2.456-9.405-4.939-18.857-7.394-28.263 4.218 28.153 10.929 58.484 11.501 88.944-5.409-2.557-10.818-5.077-16.227-7.643-10.993-5.584-21.737-10.993-32.085-17.085A8851 8851 0 0 1 33.61 65.45c-.332-.11-.619-.222-.905-.332 6.166 4.615 12.369 9.23 18.535 13.845 8.76 6.895 17.52 13.781 26.242 20.63 6.166 5.05 12.369 10.025 18.535 15.037-6.452 2.049-12.941 4.144-19.43 6.203-20.695 6.378-41.436 12.756-62.167 19.143-.176.111-.398.176-.573.287 27.406-3.028 54.34-11.824 85.133-12.083v.333c-12.23 24.95-22.753 50.075-36.239 73.621v.286h.323a41310 41310 0 0 0 27.083-39.478c6.267-8.612 12.58-17.27 18.848-25.929l1.19-.858c8.437 18.35 12.591 40.882 18.286 61.29 1.948 8.04 3.932 16.089 5.88 24.165v.536h.286c-1.662-10.855-3.323-21.775-5.012-32.704-1.376-11.252-2.742-22.568-4.108-33.857-.794-7.569-1.587-15.1-2.344-22.68 21.414 8.945 40.198 19.8 59.204 30.941-2.271 10.025-4.542 20.049-6.785 30.036v.895h55.383c16.845 0 34.115.62 46.263-4.144 15.11-5.88 23.546-16.08 29.454-31.227 3.286-8.252 7.144-21.848 4.44-33.561-2.059-8.77-7.532-14.787-15.037-18-11.067-4.716-27.839-3.821-43.595-3.821h-56.573c-4.32 19.476-8.65 38.906-12.978 58.345h-.286c-12.147-7.9-22.9-17.74-34.18-26.5-5.63-4.403-12.692-8.843-17.095-14.464 19.44-6.203 38.906-12.369 58.346-18.572 4.938-1.55 20.187-4.32 22.965-7.356-9.055 3.212-19.329 3.609-29.464 5.593-9.23 1.302-18.46 2.557-27.69 3.822v-.25c6.562-3.285 13.162-6.488 19.761-9.774 13.634-5.88 28.2-10.67 43.014-15.286 70.53-21.996 191.098-30.11 267.507-7.393 33.387 9.95 77.12 23.546 83.397 59.527 2.234 12.913-4.652 22.937-9.452 29.463-13.984 19.255-35.796 31.402-58.909 41.537-32.814 14.344-69.265 22.32-109.61 30.359-15.111 1.652-30.258 3.314-45.36 5.012-4.799.175-9.626.397-14.426.572-10.67 1.773-30.11 2.345-41.251.62h-9.729c-12.876-1.016-25.744-1.985-38.583-2.964-21.996-3.923-43.088-6.267-62.49-12.369-11.141-3.489-26.639-11.168-38.288-12.36 4.034 3.167 9.738 4.865 14.75 7.025 14.53 6.314 29.64 11.003 46.217 15.941 92.304 27.58 233.327 19.393 311.748-13.846 24.766-10.531 47.519-22.642 62.158-43.3 4.578-6.498 11.612-17.316 9.987-29.177M461.09 103.74c-6.776 30.248-13.56 60.505-20.335 90.716h38.288c6.784-30.211 13.56-60.468 20.334-90.716zm-59.527 55.382c-4.837 12.766-42.765 17.916-45.977.61-2.843-15.61 9.701-29.058 20.63-31.836 12.433-3.139 29.417-1.293 28.014 11.796h43.3c.507-23.805-10.31-31.088-30.322-34.799 0 0-37.752-2.16-50.084-.147-27.147 4.513-42.359 15.433-49.826 39.958-1.735 5.732-4.218 13.91-2.926 22.06 4.255 26.76 28.559 27.692 59.5 27.692 13.919 0 27.829.148 38.61-3.203 15.258-4.8 24.812-17.815 30.654-32.13z"/></svg>