<svg xmlns="http://www.w3.org/2000/svg" width="572.378" height="237.288"><path d="M216.01 113.359c12.37-.185 29.602-1.8 36.848 3.535 5.05 3.71 5.88 12.009 3.822 19.43-1.043 3.858-2.668 8.261-5.077 11.464-4.366 5.77-12.618 8.622-19.513 9.701-2.16.324-25.744.148-25.78.36 3.248-14.814 6.497-29.675 9.7-44.49M572.14 134.34c-5.871-43.734-47.703-61.115-83.647-75.136-26.463-10.31-56.25-15-87.8-20.916-11.897-1.08-23.758-2.16-35.656-3.24-8.437-.397-16.874-.794-25.347-1.19h-30.94c-5.188.1-10.385.175-15.61.322l-38.582 3.203c-18.572 3.36-36.922 5.012-54.23 9.452-29.813 7.606-55.557 17.778-79.824 30.073 5.695-11.834 11.39-23.62 17.086-35.371 4.107-7.283 8.26-14.538 12.368-21.82-4.652 3.036-7.928 10.78-11.178 15.33-12.008 16.8-23.98 33.6-35.943 50.371-.11.176-.184.398-.332.573a26331 26331 0 0 1-17.049-57.727C83 18.858 80.517 9.406 78.062 0c4.218 28.153 10.929 58.484 11.5 88.944-5.408-2.556-10.817-5.076-16.226-7.642-10.994-5.585-21.738-10.994-32.085-17.086a8851 8851 0 0 1-21.489-12.655c-.332-.11-.618-.221-.904-.332 6.166 4.615 12.369 9.23 18.534 13.845 8.76 6.896 17.52 13.782 26.243 20.63 6.165 5.05 12.368 10.025 18.534 15.037-6.452 2.049-12.94 4.144-19.43 6.203C42.045 113.322 21.304 119.7.572 126.088c-.175.11-.397.175-.572.286 27.405-3.027 54.34-11.824 85.132-12.083v.333c-12.23 24.95-22.753 50.075-36.238 73.622v.285h.323a41310 41310 0 0 0 27.082-39.478c6.268-8.612 12.581-17.27 18.849-25.928l1.19-.859c8.437 18.35 12.59 40.882 18.286 61.29 1.947 8.04 3.932 16.089 5.88 24.165v.536h.285c-1.661-10.855-3.323-21.775-5.012-32.704-1.375-11.251-2.741-22.568-4.107-33.857-.794-7.569-1.588-15.1-2.345-22.679 21.415 8.944 40.199 19.8 59.204 30.94-2.27 10.025-4.541 20.049-6.784 30.036v.896h55.382c16.846 0 34.116.618 46.263-4.145 15.11-5.88 23.547-16.08 29.454-31.226 3.286-8.252 7.145-21.849 4.44-33.562-2.058-8.77-7.532-14.787-15.036-18-11.067-4.716-27.84-3.82-43.595-3.82h-56.574c-4.32 19.475-8.649 38.905-12.978 58.345h-.285c-12.148-7.902-22.901-17.741-34.18-26.5-5.631-4.404-12.692-8.844-17.095-14.465 19.439-6.203 38.906-12.369 58.345-18.572 4.938-1.55 20.187-4.32 22.965-7.356-9.055 3.212-19.328 3.609-29.463 5.593-9.23 1.302-18.461 2.557-27.691 3.822v-.25c6.562-3.285 13.162-6.488 19.762-9.774 13.633-5.88 28.199-10.67 43.014-15.286 70.53-21.996 191.097-30.11 267.507-7.393 33.386 9.95 77.12 23.547 83.397 59.527 2.233 12.913-4.653 22.937-9.452 29.463-13.985 19.255-35.796 31.402-58.909 41.537-32.814 14.344-69.265 22.32-109.611 30.359-15.11 1.652-30.258 3.314-45.359 5.012-4.8.175-9.627.397-14.427.572-10.67 1.773-30.11 2.345-41.25.62h-9.73c-12.876-1.016-25.743-1.985-38.583-2.964-21.996-3.923-43.087-6.267-62.49-12.369-11.14-3.489-26.639-11.168-38.287-12.36 4.033 3.167 9.738 4.865 14.75 7.025 14.529 6.314 29.639 11.003 46.217 15.941 92.304 27.58 233.326 19.393 311.748-13.845 24.765-10.532 47.518-22.643 62.158-43.3 4.578-6.499 11.612-17.317 9.987-29.178M447.242 89.85c-6.775 30.248-13.56 60.505-20.335 90.716h38.288c6.785-30.21 13.56-60.468 20.335-90.716zm-59.527 55.382c-4.837 12.766-42.764 17.916-45.977.61-2.843-15.61 9.702-29.058 20.63-31.836 12.434-3.139 29.418-1.293 28.015 11.796h43.3c.507-23.805-10.31-31.088-30.322-34.799 0 0-37.753-2.16-50.085-.147-27.146 4.513-42.358 15.433-49.825 39.958-1.736 5.732-4.219 13.91-2.926 22.061 4.255 26.759 28.558 27.691 59.499 27.691 13.92 0 27.83.148 38.61-3.203 15.259-4.8 24.812-17.814 30.655-32.13z"/></svg>