<svg xmlns="http://www.w3.org/2000/svg" width="600" height="946.074"><path d="M257.219 462.133c0-18.377 14.971-33.254 33.278-33.254 18.377 0 33.349 14.877 33.349 33.254 0 18.402-14.972 33.373-33.35 33.373-18.306 0-33.277-14.971-33.277-33.373m213.789-98.013v-45.837h-69.371c-6.48-25.024-75.568-286.306-76.869-292.313S310.72 0 288.723 0h-.17c-17.74.095-33.279 13.221-37.323 29.305-3.974 16.154-60.809 242.975-72.162 288.978h-47.114v49.527H0v578.264h600V364.12H471.003Z" style="fill:#fff"/><path d="M290.497 394.04c-37.607 0-68.094 30.51-68.094 68.093 0 37.701 30.487 68.189 68.094 68.189 37.677 0 68.164-30.488 68.164-68.189 0-37.582-30.487-68.093-68.164-68.093m-1.773-355.417 82.521 319.017h60.501v99.053h53.123v-53.216h75.78v503.24H39.291v-499.55h69.75v102.649h62.275V357.64h38.529z"/></svg>