<svg xmlns="http://www.w3.org/2000/svg" width="600" height="946.074"><linearGradient id="a" x1="0" x2="1" y1="0" y2="0" gradientTransform="matrix(22.04297 0 0 -22.04297 124.104 259.32)" gradientUnits="userSpaceOnUse" spreadMethod="pad"><stop offset="0" style="stop-color:#536e78"/><stop offset=".3" style="stop-color:#99aebc"/><stop offset=".5" style="stop-color:#d9eaf3"/><stop offset=".7" style="stop-color:#99aebc"/><stop offset="1" style="stop-color:#536e78"/></linearGradient><path d="M257.219 462.133c0-18.377 14.971-33.254 33.278-33.254 18.377 0 33.349 14.877 33.349 33.254 0 18.402-14.972 33.373-33.35 33.373-18.306 0-33.277-14.971-33.277-33.373m213.789-98.013v-45.837h-69.371c-6.48-25.024-75.568-286.306-76.869-292.313C323.468 19.962 310.72 0 288.723 0h-.17c-17.74.095-33.279 13.221-37.347 29.305-3.95 16.154-60.785 242.975-72.138 288.978h-47.114v49.527H0v578.264h600V364.12H471.003Z"/><path d="M131.312 264.184h-1.628v-6.434h-2.633v4.34h-2.946v-21.121h22.04v21.277h-3.204v-2.25h-2.25v4.188h-2.554l-3.489 13.488zm.532-4.418a2.88 2.88 0 0 0 5.761 0 2.88 2.88 0 1 0-5.761 0" style="fill:url(#a)" transform="matrix(23.65185 0 0 -23.65185 -2895.95 6606.078)"/></svg>