<svg xmlns="http://www.w3.org/2000/svg" xml:space="preserve" width="375.01" height="340.332" style="clip-rule:evenodd;fill-rule:evenodd;stroke-linecap:round;stroke-linejoin:round;stroke-miterlimit:1.5"><path d="M287.15 0c.148-.041 24.105 69.063 64.101 68.605l-7.499 39.029s-15.776 83.341-53.373 164.342c0 0-55.638 45.019-103.253 68.356 0 0-50.25-25.225-103.869-68.55 0 0-22.298-49.735-40.866-114.275S23.717 69.12 23.569 69.163c-.148.042 34.269 4.443 64.169-68.778L95.836.08s82.271 40.736 181.909.177c0 0 9.258-.216 9.405-.257" style="fill:#fff"/><path d="m86.483 44.012 9.67 66.195H50.612l-6.09-27s23.74-8.213 41.961-39.195M287.739 43.943l-9.67 66.195h45.541l6.09-27s-23.74-8.213-41.961-39.195M268.673 22.841s-8.259 96.998-8.267 97.03-16.822-60.43-16.822-60.43L230.413 76.36h-86.579l-13.296-16.919-16.203 60.43s-8.914-97.842-8.65-97.03c.263.813 78.395 31.758 162.988 0M304.622 182.201s-28.484 76.81-28.871 77.113-21.275 16.195-21.275 16.195l7.331-54.355s42.632-38.919 42.815-38.953M69.356 182.201s28.484 76.81 28.871 77.113 21.275 16.195 21.275 16.195l-7.331-54.355s-42.632-38.919-42.815-38.953M130.794 236c.072-.067 56.096 40.511 56.233 40.534.136.022 56.398-40.342 56.583-40.534s-9.884 53.905-9.986 54.106c-.101.201-46.597 28.811-46.597 28.811l-45.844-28.811S130.74 236.051 130.794 236"/><path d="M0 105.787s27.452.018 27.39.031c-.061.013 20.557 2.62 20.521 2.698-.036.079 46.947.113 46.947.113l18.621 9.48s15.662-62.208 15.687-62.135 13.946 17.084 13.946 17.084l88.27-.074L245.05 55.87l16.125 62.253 18.849-9.214 47.067-.61 20.569-2.594 27.35.324s-51.659 78.63-187.96 172.866c0 0-141.713-96.519-187.05-173.11"/><path d="m527.356 417.318 15.98 40.797 21.392-13.524-13.799-60.343z" style="fill:#fff" transform="translate(-311.571 -299.784)"/><path d="m527.356 417.318 15.98 40.797 21.392-13.524-13.799-60.343z" style="fill:#fff" transform="matrix(-1 0 0 1 685.92 -299.745)"/><path d="M464.718 386.207s18.065 22.699 17.916 22.835c-.15.137 32.69.316 32.69.316l17.587-23.2s-68.238.205-68.193.049M482.907 421.242l31.547-.296 19.29 54.558-35.125 22.277-35.125-21.638z" style="fill:#fff" transform="translate(-311.571 -299.784)"/><path d="M420.808 439.317s-3.264 12.351-3.175 12.495c.09.144 32.188 23.57 32.188 23.57l-2.871 8.218s51.922 32.868 51.937 32.811c.016-.056 51.256-32.595 51.343-32.599.086-.004-3.065-7.89-3.065-7.89l32.633-23.332-3.456-13.779s16.27.503 20.103-16.678c0 0 57.803-.043 57.775-.119-.028-.077-69.888 79.879-155.545 133.141 0 0-91.373-59.663-155.645-133.115l57.532.283s4.768 16.983 20.246 16.994" style="fill:#fff;stroke:#fff;stroke-width:1px" transform="translate(-311.571 -299.784)"/></svg>