<svg xmlns="http://www.w3.org/2000/svg" xml:space="preserve" style="fill-rule:evenodd;clip-rule:evenodd;stroke-linecap:round;stroke-linejoin:round;stroke-miterlimit:1.5" viewBox="0 0 1000 1000"><path d="M598.721 299.784c.148-.041 24.105 69.063 64.101 68.605l-7.499 39.029s-15.776 83.341-53.373 164.342c0 0-55.638 45.019-103.253 68.356 0 0-50.25-25.225-103.869-68.55 0 0-22.298-49.735-40.866-114.275s-18.674-88.387-18.822-88.344c-.148.042 34.269 4.443 64.169-68.778l8.098-.305s82.271 40.736 181.909.177c0 0 9.258-.216 9.405-.257"/><path d="m398.054 343.796 9.67 66.195h-45.541l-6.09-27s23.74-8.213 41.961-39.195" style="fill:url(#a)"/><path d="m398.054 343.796 9.67 66.195h-45.541l-6.09-27s23.74-8.213 41.961-39.195" style="fill:url(#b)" transform="matrix(-1 0 0 1 997.364 -.069)"/><path d="M580.244 322.625s-8.259 96.998-8.267 97.03-16.822-60.43-16.822-60.43l-13.171 16.919h-86.579l-13.296-16.919-16.203 60.43s-8.914-97.842-8.65-97.03c.263.813 78.395 31.758 162.988 0" style="fill:url(#c)"/><path d="M616.193 481.985s-28.484 76.81-28.871 77.113-21.275 16.195-21.275 16.195l7.331-54.355s42.632-38.919 42.815-38.953" style="fill:url(#d)"/><path d="M616.193 481.985s-28.484 76.81-28.871 77.113-21.275 16.195-21.275 16.195l7.331-54.355s42.632-38.919 42.815-38.953" style="fill:url(#e)" transform="matrix(-1 0 0 1 997.12 0)"/><path d="M442.365 535.784c.072-.067 56.096 40.511 56.233 40.534.136.022 56.398-40.342 56.583-40.534s-9.884 53.905-9.986 54.106c-.101.201-46.597 28.811-46.597 28.811l-45.844-28.811s-10.443-54.055-10.389-54.106" style="fill:url(#f)"/><path d="M315.129 407.291s26.931.018 26.87.031 20.167 2.57 20.132 2.647 46.055.111 46.055.111l18.268 9.299s15.365-61.027 15.389-60.955 13.681 16.76 13.681 16.76l86.594-.073 13.409-16.788 15.819 61.071 18.491-9.039 46.174-.598 20.178-2.545 26.831.318s-50.678 77.137-184.392 169.584c0 0-139.023-94.686-183.499-169.823"/><path d="m527.356 417.318 15.98 40.797 21.392-13.524-13.799-60.343z" style="fill:#fff"/><path d="m527.356 417.318 15.98 40.797 21.392-13.524-13.799-60.343z" style="fill:#fff" transform="matrix(-1 0 0 1 997.491 .04)"/><path d="M464.718 386.207s18.065 22.699 17.916 22.835c-.15.137 32.69.316 32.69.316l17.587-23.2s-68.238.205-68.193.049M482.907 421.242l31.547-.296 19.29 54.558-35.125 22.277-35.125-21.638z" style="fill:#fff"/><path d="M420.808 439.317s-3.264 12.351-3.175 12.495c.09.144 32.188 23.57 32.188 23.57l-2.871 8.218s51.922 32.868 51.937 32.811c.016-.056 51.256-32.595 51.343-32.599.086-.004-3.065-7.89-3.065-7.89l32.633-23.332-3.456-13.779s16.27.503 20.103-16.678c0 0 57.803-.043 57.775-.119-.028-.077-69.888 79.879-155.545 133.141 0 0-91.373-59.663-155.645-133.115l57.532.283s4.768 16.983 20.246 16.994" style="fill:#fff;stroke:#fff;stroke-width:1px"/><defs><linearGradient id="a" x1="0" x2="1" y1="0" y2="0" gradientTransform="scale(100.867)rotate(54.205 -1.66 5.423)" gradientUnits="userSpaceOnUse"><stop offset="0" style="stop-color:#626e77;stop-opacity:1"/><stop offset=".04" style="stop-color:#697780;stop-opacity:1"/><stop offset=".11" style="stop-color:#7d8e98;stop-opacity:1"/><stop offset=".2" style="stop-color:#9eb4c0;stop-opacity:1"/><stop offset=".2" style="stop-color:#a1b7c3;stop-opacity:1"/><stop offset=".29" style="stop-color:#adc6d4;stop-opacity:1"/><stop offset=".38" style="stop-color:#b5cede;stop-opacity:1"/><stop offset=".5" style="stop-color:#b7d1e1;stop-opacity:1"/><stop offset=".62" style="stop-color:#b5cede;stop-opacity:1"/><stop offset=".71" style="stop-color:#adc6d4;stop-opacity:1"/><stop offset=".8" style="stop-color:#a1b7c3;stop-opacity:1"/><stop offset=".8" style="stop-color:#a0b6c2;stop-opacity:1"/><stop offset=".85" style="stop-color:#8b9da8;stop-opacity:1"/><stop offset=".91" style="stop-color:#74838d;stop-opacity:1"/><stop offset=".96" style="stop-color:#67747d;stop-opacity:1"/><stop offset="1" style="stop-color:#626e77;stop-opacity:1"/></linearGradient><linearGradient id="b" x1="0" x2="1" y1="0" y2="0" gradientTransform="scale(-426.19 426.19)rotate(57.809 -.838 -1.092)" gradientUnits="userSpaceOnUse"><stop offset="0" style="stop-color:#626e77;stop-opacity:1"/><stop offset=".04" style="stop-color:#697780;stop-opacity:1"/><stop offset=".11" style="stop-color:#7d8e98;stop-opacity:1"/><stop offset=".2" style="stop-color:#9eb4c0;stop-opacity:1"/><stop offset=".2" style="stop-color:#a1b7c3;stop-opacity:1"/><stop offset=".29" style="stop-color:#adc6d4;stop-opacity:1"/><stop offset=".38" style="stop-color:#b5cede;stop-opacity:1"/><stop offset=".5" style="stop-color:#b7d1e1;stop-opacity:1"/><stop offset=".62" style="stop-color:#b5cede;stop-opacity:1"/><stop offset=".71" style="stop-color:#adc6d4;stop-opacity:1"/><stop offset=".8" style="stop-color:#a1b7c3;stop-opacity:1"/><stop offset=".8" style="stop-color:#a0b6c2;stop-opacity:1"/><stop offset=".85" style="stop-color:#8b9da8;stop-opacity:1"/><stop offset=".91" style="stop-color:#74838d;stop-opacity:1"/><stop offset=".96" style="stop-color:#67747d;stop-opacity:1"/><stop offset="1" style="stop-color:#626e77;stop-opacity:1"/></linearGradient><linearGradient id="c" x1="0" x2="1" y1="0" y2="0" gradientTransform="rotate(36.15 -282.485 800.85)scale(198.725)" gradientUnits="userSpaceOnUse"><stop offset="0" style="stop-color:#626e77;stop-opacity:1"/><stop offset=".04" style="stop-color:#697780;stop-opacity:1"/><stop offset=".11" style="stop-color:#7d8e98;stop-opacity:1"/><stop offset=".2" style="stop-color:#9eb4c0;stop-opacity:1"/><stop offset=".2" style="stop-color:#a1b7c3;stop-opacity:1"/><stop offset=".29" style="stop-color:#adc6d4;stop-opacity:1"/><stop offset=".38" style="stop-color:#b5cede;stop-opacity:1"/><stop offset=".5" style="stop-color:#b7d1e1;stop-opacity:1"/><stop offset=".62" style="stop-color:#b5cede;stop-opacity:1"/><stop offset=".71" style="stop-color:#adc6d4;stop-opacity:1"/><stop offset=".8" style="stop-color:#a1b7c3;stop-opacity:1"/><stop offset=".8" style="stop-color:#a0b6c2;stop-opacity:1"/><stop offset=".85" style="stop-color:#8b9da8;stop-opacity:1"/><stop offset=".91" style="stop-color:#74838d;stop-opacity:1"/><stop offset=".96" style="stop-color:#67747d;stop-opacity:1"/><stop offset="1" style="stop-color:#626e77;stop-opacity:1"/></linearGradient><linearGradient id="d" x1="0" x2="1" y1="0" y2="0" gradientTransform="rotate(-101.199 547.51 37.648)scale(242.9477)" gradientUnits="userSpaceOnUse"><stop offset="0" style="stop-color:#626e77;stop-opacity:1"/><stop offset=".04" style="stop-color:#697780;stop-opacity:1"/><stop offset=".11" style="stop-color:#7d8e98;stop-opacity:1"/><stop offset=".2" style="stop-color:#9eb4c0;stop-opacity:1"/><stop offset=".2" style="stop-color:#a1b7c3;stop-opacity:1"/><stop offset=".29" style="stop-color:#adc6d4;stop-opacity:1"/><stop offset=".38" style="stop-color:#b5cede;stop-opacity:1"/><stop offset=".5" style="stop-color:#b7d1e1;stop-opacity:1"/><stop offset=".62" style="stop-color:#b5cede;stop-opacity:1"/><stop offset=".71" style="stop-color:#adc6d4;stop-opacity:1"/><stop offset=".8" style="stop-color:#a1b7c3;stop-opacity:1"/><stop offset=".8" style="stop-color:#a0b6c2;stop-opacity:1"/><stop offset=".85" style="stop-color:#8b9da8;stop-opacity:1"/><stop offset=".91" style="stop-color:#74838d;stop-opacity:1"/><stop offset=".96" style="stop-color:#67747d;stop-opacity:1"/><stop offset="1" style="stop-color:#626e77;stop-opacity:1"/></linearGradient><linearGradient id="e" x1="0" x2="1" y1="0" y2="0" gradientTransform="scale(-234.775 234.775)rotate(60.879 -3.056 -1.218)" gradientUnits="userSpaceOnUse"><stop offset="0" style="stop-color:#626e77;stop-opacity:1"/><stop offset=".04" style="stop-color:#697780;stop-opacity:1"/><stop offset=".11" style="stop-color:#7d8e98;stop-opacity:1"/><stop offset=".2" style="stop-color:#9eb4c0;stop-opacity:1"/><stop offset=".2" style="stop-color:#a1b7c3;stop-opacity:1"/><stop offset=".29" style="stop-color:#adc6d4;stop-opacity:1"/><stop offset=".38" style="stop-color:#b5cede;stop-opacity:1"/><stop offset=".5" style="stop-color:#b7d1e1;stop-opacity:1"/><stop offset=".62" style="stop-color:#b5cede;stop-opacity:1"/><stop offset=".71" style="stop-color:#adc6d4;stop-opacity:1"/><stop offset=".8" style="stop-color:#a1b7c3;stop-opacity:1"/><stop offset=".8" style="stop-color:#a0b6c2;stop-opacity:1"/><stop offset=".85" style="stop-color:#8b9da8;stop-opacity:1"/><stop offset=".91" style="stop-color:#74838d;stop-opacity:1"/><stop offset=".96" style="stop-color:#67747d;stop-opacity:1"/><stop offset="1" style="stop-color:#626e77;stop-opacity:1"/></linearGradient><linearGradient id="f" x1="0" x2="1" y1="0" y2="0" gradientTransform="scale(117.7948)rotate(40.25 -4.299 7.408)" gradientUnits="userSpaceOnUse"><stop offset="0" style="stop-color:#626e77;stop-opacity:1"/><stop offset=".04" style="stop-color:#697780;stop-opacity:1"/><stop offset=".11" style="stop-color:#7d8e98;stop-opacity:1"/><stop offset=".2" style="stop-color:#9eb4c0;stop-opacity:1"/><stop offset=".2" style="stop-color:#a1b7c3;stop-opacity:1"/><stop offset=".29" style="stop-color:#adc6d4;stop-opacity:1"/><stop offset=".38" style="stop-color:#b5cede;stop-opacity:1"/><stop offset=".5" style="stop-color:#b7d1e1;stop-opacity:1"/><stop offset=".62" style="stop-color:#b5cede;stop-opacity:1"/><stop offset=".71" style="stop-color:#adc6d4;stop-opacity:1"/><stop offset=".8" style="stop-color:#a1b7c3;stop-opacity:1"/><stop offset=".8" style="stop-color:#a0b6c2;stop-opacity:1"/><stop offset=".85" style="stop-color:#8b9da8;stop-opacity:1"/><stop offset=".91" style="stop-color:#74838d;stop-opacity:1"/><stop offset=".96" style="stop-color:#67747d;stop-opacity:1"/><stop offset="1" style="stop-color:#626e77;stop-opacity:1"/></linearGradient></defs></svg>