<svg xmlns="http://www.w3.org/2000/svg" xml:space="preserve" style="fill-rule:evenodd;clip-rule:evenodd;stroke-linejoin:round;stroke-miterlimit:2" viewBox="0 0 1000 1000"><path d="m398.054 343.796 9.67 66.195h-45.541l-6.09-27s23.74-8.213 41.961-39.195M599.31 343.727l-9.67 66.195h45.541l6.09-27s-23.74-8.213-41.961-39.195M580.244 322.625s-8.259 96.998-8.267 97.03-16.822-60.43-16.822-60.43l-13.171 16.919h-86.579l-13.296-16.919-16.203 60.43s-8.914-97.842-8.65-97.03c.263.813 78.395 31.758 162.988 0M616.193 481.985s-28.484 76.81-28.871 77.113-21.275 16.195-21.275 16.195l7.331-54.355s42.632-38.919 42.815-38.953M380.927 481.985s28.484 76.81 28.871 77.113 21.275 16.195 21.275 16.195l-7.331-54.355s-42.632-38.919-42.815-38.953M442.365 535.784c.072-.067 56.096 40.511 56.233 40.534.136.022 56.398-40.342 56.583-40.534s-9.884 53.905-9.986 54.106c-.101.201-46.597 28.811-46.597 28.811l-45.844-28.811s-10.443-54.055-10.389-54.106"/><path d="M464.719 386.208c.289.154 68.192-.05 68.192-.05l-17.587 23.2s-32.84-.179-32.69-.316c.149-.135-17.768-22.649-17.915-22.834m189.5 35.806c-.334.275-70.076 79.996-155.544 133.141 0 0-91.373-59.663-155.645-133.115l57.532.283s4.768 16.983 20.246 16.994c0 0-3.264 12.351-3.175 12.495.09.144 32.188 23.57 32.188 23.57l-2.871 8.218s51.922 32.868 51.937 32.811c.016-.056 51.256-32.595 51.343-32.599.086-.004-3.065-7.89-3.065-7.89l32.633-23.332-3.456-13.779s16.27.503 20.103-16.678c0 0 57.47-.043 57.774-.119m-126.863-4.696 23.573-33.07 13.799 60.343-21.392 13.524zm-57.222.039-15.98 40.797-21.391-13.524 13.798-60.343zm12.773 3.885 31.547-.296 19.29 54.558-35.125 22.277-35.125-21.638z"/></svg>