<svg xmlns="http://www.w3.org/2000/svg" width="600" height="614.387"><radialGradient id="a" cx="0" cy="0" r="1" fx="0" fy="0" gradientTransform="matrix(17.28679 0 0 -17.28679 219.684 372.13)" gradientUnits="userSpaceOnUse" spreadMethod="pad"><stop offset="0" style="stop-color:#ebd491"/><stop offset=".7" style="stop-color:#d2bb7b"/><stop offset="1" style="stop-color:#8b723c"/></radialGradient><path d="M295.972 614.386c-2.873 0-5.76-.475-8.571-1.382-5.821-1.966-57.783-20.213-79.502-57.169-4.561-7.74-4.976-17.28-1.136-25.39 15.958-33.59 33.177-79.378 33.177-94.738 0-9.953 5.514-19.138 14.223-23.807 1.075-.598 2.211-1.091 3.287-1.505 2.949-23.639 3.425-47.876.845-54.834-3.471-9.477-1.382-20.045 5.407-27.54a27.6 27.6 0 0 1 6.42-5.222c-.66-5.223-1.321-10.322-2.104-15.237-37.8 83.818-87.474 112.433-90.177 113.938a27.16 27.16 0 0 1-13.194 3.41c-3.794 0-7.51-.768-11.043-2.335a27.01 27.01 0 0 1-15.36-18.785c-14.407-63.42 9.062-117.24 37.431-156.054a407 407 0 0 0-19.015 11.228c-24.237 20.398-59.334 62.452-59.703 62.867-1.136 1.26-2.335 2.519-3.655 3.61-11.873 9.722-29.337 11.15-38.645 11.15-13.44 0-24.837-9.83-26.818-23.162-9.539-64.618 46.14-142.676 52.56-151.308a27.15 27.15 0 0 1 10.737-8.693c4.208-1.92 8.77-3.671 13.624-5.223-39.121.476-69.303 6.36-69.595 6.42-1.797.355-3.61.539-5.345.539A27.17 27.17 0 0 1 5.275 139.62l-2.688-5.821c-5.882-12.472-1.443-27.417 10.368-34.682C72.72 62.53 142.621 46.8 145.617 46.202c1.92-.475 3.84-.66 5.82-.66h.37c32.639.476 67.428 23.039 93.171 44.404-.354-7.803.354-16.803 3.425-27.125 7.91-26.634 38.63-44.88 47.876-49.857a27.15 27.15 0 0 1 12.78-3.18c8.816 0 17.402 4.255 22.563 11.996 7.188 10.736 5.698 24.898-3.072 33.899-.061.598-.061 1.797.43 3.67.293 1.26.66 2.335 1.014 3.35 18.539-25.62 43.744-52.5 72.298-61.07 2.043-.6 4.086-.97 6.236-1.092 0 0 7.68-.537 20.52-.537 25.206 0 74.587 1.981 121.557 15.13a27.094 27.094 0 0 1 19.506 30.473l-1.013 6.236c-2.043 12.303-12.18 21.61-24.545 22.686-.598 0-25.144 2.212-57.307 9.953 2.703.184 5.222.492 7.741.846 4.624.722 9.001 2.519 12.718 5.39 8.525 6.605 83.465 66.431 92.05 131.172 1.798 13.317-6.481 25.973-19.445 29.63-1.858.537-11.873 3.301-22.194 3.301-6.79 0-12.61-1.136-17.94-3.425a23.7 23.7 0 0 1-4.562-2.519c-.43-.23-42.608-28.86-71.453-42.47 28.676 27.003 53.328 65.633 56.277 119.637.414 7.434-2.35 14.822-7.572 20.213-5.1 5.346-12.18 8.28-19.553 8.28h-.368c-2.873 0-50.564-1.49-100.545-47.815 1.014 7.741 1.674 15.835 1.552 24.007a26.6 26.6 0 0 1 5.575 15.237c.123 2.641 2.703 63.589-19.307 112.018 2.273 5.16 2.995 10.982 1.797 16.619-.721 3.18-17.157 80.27-66.477 131.51-5.222 5.406-12.303 8.278-19.568 8.278" style="fill:#fff"/><path d="M283.976 263.219c9.185 13.44 14.346 68.15 14.346 68.15 23.331 10.214 68.52.783 68.52.783.89-38.568-16.989-76.26-16.989-76.26-29.09 5.76-65.877 7.326-65.877 7.326m-.246 82.973c7.864 21.304-.66 77.29-.66 77.29 31.027 24.468 70.562 27.294 70.562 27.294C375.29 407.46 372.48 347.22 372.48 347.22c-38.584 12.242-88.748-1.03-88.748-1.03m-8.218-201.165s35.65-19.922 37.739-38.83c2.104-18.892-5.222-19.967-10.49-39.889-5.223-19.982 6.297-29.398 6.297-29.398S279.66 52.621 274.438 70.5c-5.284 17.817-1.075 28.323 3.118 37.8 4.193 9.415 4.193 24.114-2.043 36.725m12.718 6.896c-7.91.293-14.807.661-15.529 2.811-.722 2.104 1.49 10.875 3.779 18.785 2.212 8.048 5.16 15.774 7.204 17.034 1.858 1.151 7.725-.477 15.36-1.49 8.816-1.137 16.849-1.03 17.878-2.826 1.075-1.797-1.383-9.953-4.209-18.355-2.457-7.02-4.976-14.407-7.557-15.544-2.703-1.137-9.415-.723-16.926-.415m-30.658 52.084s-118.546 81.115-92.926 193.793c0 0 73.373-40.918 104.876-181.505 0 0 .475-10.26-11.95-12.288m-2.75-14.883s1.736-9.185 2.873-20.46c0 0-102.295-14.468-155.455 9.416 0 0-55.74 75.954-47.584 131.463 0 0 15.252 0 21.426-5.099 0 0 38.215-45.787 64.741-67.567 0 0 67.322-43.13 109.976-46.617zM29.82 128.036s127.915-25.558 208.86 21.12c0 0 9.723 7.326 23.578-5.33 0 0-63.712-70.44-110.82-71.161 0 0-67.736 14.868-124.321 49.611zm318.774 65.94c56.647 132.185 144.78 133.505 144.78 133.505-6.297-115.381-133.198-150.31-133.198-150.31-11.459 5.407-11.582 16.804-11.582 16.804m2.996-29.398c41.947-8.34 118.5 14.7 118.5 14.7 31.502 13.685 80.76 47.215 80.76 47.215 7.373 3.118 22.088-1.075 22.088-1.075-7.388-55.556-81.852-113.278-81.852-113.278-57.706-8.34-152.091 33.607-152.091 33.607 4.193 10.49 8.401 18.83 8.401 18.83zM543.355 41.223c-63.958-17.817-133.199-13.685-133.199-13.685-45.127 13.685-87.059 98.886-87.059 98.886 16.804 8.401 24.115-1.321 24.115-1.321C412.26 57.966 542.326 47.46 542.326 47.46zM267.05 435.706c0 31.026-35.757 106.32-35.757 106.32 17.218 29.336 64.74 45.31 64.74 45.31 44.406-46.202 59.397-118.33 59.397-118.33-38.507-.354-88.38-33.3-88.38-33.3m76.26-192.042c-8.509-35.773-22.609-48-22.609-48-24.483 2.812-37.63 7.066-37.63 7.066 9.369 2.35 10.32 46.632 10.32 46.632 25.867-.246 49.92-5.698 49.92-5.698" style="fill:#8b723c"/><path d="M226.504 389.852c-2.234-.719-4.41-4.446-5.113-5.743q.1-.018.187-.019c.266 0 .383.129.422.172 3.336 3.441 9.094 4.648 11.68 5.031-2.395.5-4.739.586-6.035.586-.594 0-1-.02-1.141-.027m-8.488-2.473c-.309-1.047-.047-1.633.187-2.152.195-.45.27-.989.211-1.536.625.485 1.199 1.071 1.254 1.539.07.633-.035.86-.234 1.274a6.3 6.3 0 0 0-.442 1.16 3.2 3.2 0 0 0-.101.832c-.399-.336-.762-.734-.875-1.117m-15.149-2.977c.961.125 2.375.258 3.996.258 3.547 0 6.449-.637 8.657-1.91 0-.004.085-.055.23-.055.109 0 .234.035.363.098-1.031 1.059-4.148 4.039-6.488 4.121-.445-.105-3.68-.894-6.758-2.512m19.512-2.039c.09-.207.172-.39.234-.523q.612.105 1.387.105c2.789 0 6.305-1.047 6.504-1.113 2.062-.894 5.199-3.023 5.254-3.07a.8.8 0 0 1 .293-.039c.148 0 .308.015.445.039-.676 3.004-4.351 6.086-4.988 6.597a7 7 0 0 1-.895.055c-3.008 0-6.972-1.531-8.234-2.051m-3.754-.605-.125-.004c-.148-.008-.383-.016-.555-.031.032-.153.09-.403.203-.805.122-.418.227-.691.266-.797q.123.013.293.043.194.037.422.066c.191.024.379.04.547.055q.094.007.195.02a9 9 0 0 1-.223.715c-.078.226-.203.597-.289.746a2 2 0 0 1-.218.007c-.153 0-.329-.007-.516-.015m-11.949-1.621c-.469-.66-3.168-4.641-2.996-7.719.281.027.562.078.648.141.102.125 2.531 3.035 4.317 4.492.179.117 4.503 2.871 7.269 3.086.024.148.055.351.086.586-.711.082-2.199.222-3.871.222-2.324 0-4.207-.277-5.453-.808m16.199-.602c2.887-6.644 7.043-7.98 8.469-8.246-.68 6.098-6.989 8.414-8.121 8.781a.83.83 0 0 1-.348-.535m-3.988-.914q.3-.762.371-2.297c.914.035 1.762.168 2.258.254-.379 1.328-.868 2.031-1.094 2.301a18 18 0 0 1-1.535-.258m-8.137-11.66c1.273.996 4.504 4.113 6.062 11.062 0 .082-.035.223-.23.301-1.043-.773-6.73-5.324-5.832-11.363m8.133 7.582c.375-1.121.597-2.965.679-3.703.387-.117.895-.18 1.516-.18.817 0 1.621.11 2.07.184-.039 1.734-.644 3.402-.921 4.082-1.231-.219-2.571-.332-3.344-.383m-.254-9.82c1.453-1.055 3.164-1.395 3.844-1.493.91 2.024 1.043 4.563 1.05 5.676a9.4 9.4 0 0 0-2.031-.207c-1.086 0-2.074.149-2.707.27.195-1.41-.051-3.477-.156-4.246m-3.34-7.883c.906-1.317 2.859-2.176 3.574-2.453 2.086 2.297 3.102 5.523 3.43 6.758-1.824.207-3.82 1.246-4.813 1.824-.339-2.031-1.781-5.242-2.191-6.129" style="fill:url(#a)" transform="matrix(15.35966 0 0 -15.35966 -3067.61 6022.43)"/></svg>