<svg xmlns="http://www.w3.org/2000/svg" width="600" height="614.36"><radialGradient id="a" cx="0" cy="0" r="1" fx="0" fy="0" gradientTransform="matrix(17.28655 0 0 -17.28655 135.559 372.13)" gradientUnits="userSpaceOnUse" spreadMethod="pad"><stop offset="0" style="stop-color:#bf99c3"/><stop offset=".663" style="stop-color:#7b5190"/><stop offset="1" style="stop-color:#612c75"/></radialGradient><path d="M295.985 614.36c-2.872 0-5.76-.476-8.57-1.383-5.821-1.966-57.78-20.213-79.498-57.166-4.562-7.741-4.977-17.28-1.137-25.389 15.958-33.59 33.176-79.375 33.176-94.734 0-9.952 5.452-19.137 14.222-23.806a22.6 22.6 0 0 1 3.287-1.505c2.949-23.638 3.425-47.874.845-54.832-3.47-9.476-1.382-20.043 5.407-27.539a27.6 27.6 0 0 1 6.42-5.222c-.66-5.222-1.321-10.32-2.166-15.236-37.737 83.814-87.408 112.428-90.111 113.933a27.2 27.2 0 0 1-13.209 3.41c-3.778 0-7.556-.768-11.028-2.335a27.01 27.01 0 0 1-15.359-18.784c-14.468-63.417 9.062-117.235 37.43-156.047a447 447 0 0 0-19.076 11.227c-24.175 20.397-59.27 62.45-59.7 62.865-1.075 1.26-2.273 2.519-3.594 3.609-11.872 9.722-29.336 11.15-38.643 11.15-13.44 0-24.897-9.83-26.817-23.16-9.538-64.616 46.138-142.67 52.559-151.302 2.764-3.778 6.42-6.773 10.735-8.693 4.209-1.92 8.77-3.671 13.562-5.222-39.057.475-69.238 6.358-69.591 6.42a26.8 26.8 0 0 1-5.284.538 27.13 27.13 0 0 1-24.528-15.543l-2.703-5.821c-5.944-12.472-1.444-27.416 10.383-34.68C72.743 62.526 142.642 46.798 145.575 46.2c1.982-.475 3.902-.66 5.821-.66h.43c32.638.476 67.365 23.038 93.168 44.402-.354-7.802.354-16.803 3.425-27.124 7.91-26.632 38.628-44.879 47.813-49.855a27.57 27.57 0 0 1 12.84-3.18c8.754 0 17.401 4.255 22.562 11.996 7.188 10.736 5.698 24.897-3.072 33.897-.061.599-.061 1.797.43 3.671.293 1.26.66 2.335 1.014 3.348 18.538-25.618 43.742-52.497 72.295-61.067 1.98-.6 4.085-.968 6.235-1.091 0 0 7.68-.537 20.52-.537 25.204 0 74.583 1.981 121.55 15.129A27.093 27.093 0 0 1 570.114 45.6l-1.014 6.236c-2.043 12.302-12.18 21.61-24.544 22.685-.598 0-25.204 2.211-57.304 9.952 2.703.185 5.222.492 7.741.846 4.623.722 9 2.519 12.717 5.39 8.463 6.605 83.461 66.428 92.047 131.166 1.797 13.317-6.482 25.972-19.445 29.628-1.92.538-11.872 3.302-22.194 3.302-6.788 0-12.61-1.137-17.939-3.425a23.7 23.7 0 0 1-4.561-2.519c-.415-.23-42.606-28.86-71.466-42.467 28.69 27 53.342 65.628 56.29 119.63.415 7.434-2.349 14.822-7.571 20.213-5.1 5.345-12.18 8.279-19.552 8.279h-.354c-2.887 0-50.577-1.49-100.555-47.813 1.014 7.741 1.613 15.835 1.551 24.006 3.302 4.316 5.284 9.646 5.575 15.236.123 2.642 2.704 63.586-19.306 112.013a27.7 27.7 0 0 1 1.797 16.619c-.721 3.179-17.156 80.266-66.473 131.503-5.223 5.407-12.303 8.279-19.568 8.279" style="fill:#fff"/><path d="M283.99 263.207c9.184 13.439 14.345 68.148 14.345 68.148 23.269 10.213 68.516.782 68.516.782.891-38.566-16.987-76.257-16.987-76.257-29.09 5.76-65.874 7.326-65.874 7.326m-.246 82.97c7.864 21.302-.706 77.286-.706 77.286 31.07 24.467 70.605 27.293 70.605 27.293 21.656-43.313 18.845-103.55 18.845-103.55-38.643 12.24-88.744-1.03-88.744-1.03m-8.278-201.157s35.71-19.92 37.798-38.827c2.104-18.892-5.222-19.967-10.49-39.888-5.222-19.982 6.297-29.397 6.297-29.397s-29.397 15.713-34.62 33.59c-5.283 17.817-1.074 28.322 3.119 37.799 4.208 9.415 4.208 24.114-2.104 36.723m12.778 6.896c-7.91.293-14.806.661-15.528 2.811-.72 2.104 1.49 10.874 3.779 18.784 2.211 8.048 5.16 15.774 7.188 17.033 1.873 1.152 7.74-.476 15.359-1.49 8.831-1.136 16.864-1.03 17.893-2.826 1.075-1.797-1.382-9.952-4.27-18.354-2.396-7.019-4.915-14.406-7.495-15.543-2.765-1.136-9.415-.722-16.926-.415m-30.656 52.082s-118.54 81.11-92.937 193.784c0 0 73.385-40.916 104.886-181.497 0 0 .476-10.26-11.95-12.287m-2.749-14.883s1.736-9.184 2.873-20.458c0 0-102.291-14.468-155.449 9.415 0 0-55.799 75.95-47.582 131.458 0 0 15.252 0 21.426-5.1 0 0 38.213-45.785 64.738-67.564 0 0 67.319-43.128 109.97-46.614zM29.845 128.031s127.91-25.558 208.851 21.118c0 0 9.722 7.326 23.576-5.33 0 0-63.709-70.436-110.815-71.158 0 0-67.733 14.868-124.377 49.61zm318.76 65.936c56.644 132.18 144.774 133.5 144.774 133.5-6.297-115.377-133.193-150.303-133.193-150.303-11.458 5.406-11.581 16.803-11.581 16.803m2.995-29.397c41.945-8.34 118.495 14.698 118.495 14.698 31.44 13.685 80.757 47.214 80.757 47.214 7.388 3.118 22.086-1.075 22.086-1.075-7.387-55.554-81.848-113.273-81.848-113.273-57.703-8.34-152.084 33.606-152.084 33.606 4.208 10.49 8.401 18.83 8.401 18.83zM543.357 41.222c-63.955-17.817-133.193-13.685-133.193-13.685-45.125 13.685-87.055 98.88-87.055 98.88 16.803 8.402 24.114-1.32 24.114-1.32 65.045-67.134 195.105-77.64 195.105-77.64zM267.064 435.686c0 31.025-35.817 106.315-35.817 106.315 17.279 29.336 64.738 45.31 64.738 45.31 44.464-46.2 59.455-118.326 59.455-118.326-38.505-.354-88.376-33.299-88.376-33.299m76.196-192.033c-8.447-35.771-22.547-47.997-22.547-47.997-24.482 2.81-37.675 7.065-37.675 7.065 9.415 2.35 10.367 46.63 10.367 46.63 25.864-.246 49.855-5.698 49.855-5.698" style="fill:#612c75"/><path d="M142.379 389.852c-2.234-.719-4.414-4.446-5.113-5.743.062-.011.129-.019.187-.019.266 0 .383.129.422.172 3.336 3.441 9.094 4.648 11.68 5.031-2.395.5-4.739.586-6.035.586-.594 0-1-.02-1.141-.027m-8.488-2.473c-.309-1.047-.047-1.633.187-2.152.195-.45.27-.989.211-1.536.625.485 1.199 1.071 1.254 1.539.07.633-.039.86-.234 1.274a6.3 6.3 0 0 0-.442 1.16 3.2 3.2 0 0 0-.101.832c-.403-.336-.762-.734-.875-1.117m-15.149-2.977c.957.125 2.375.258 3.996.258 3.547 0 6.45-.637 8.657-1.91 0-.004.085-.055.226-.055a.84.84 0 0 1 .367.098c-1.031 1.059-4.148 4.039-6.488 4.121-.445-.105-3.68-.894-6.758-2.512m19.512-2.039c.09-.207.172-.39.234-.523q.612.105 1.387.105c2.789 0 6.305-1.047 6.504-1.113 2.062-.894 5.199-3.023 5.254-3.07a.8.8 0 0 1 .293-.039c.152 0 .308.015.445.039-.676 3.004-4.351 6.086-4.988 6.597a7 7 0 0 1-.895.055c-3.008 0-6.972-1.531-8.234-2.051m-3.754-.605-.125-.004c-.148-.008-.383-.016-.555-.031.032-.153.09-.403.203-.805.122-.418.227-.691.266-.797q.123.013.293.043.194.037.422.066c.191.024.379.04.547.055q.095.007.195.02c-.039.144-.105.371-.223.715-.078.226-.203.597-.289.746a2 2 0 0 1-.218.007c-.153 0-.328-.007-.516-.015m-11.949-1.621c-.469-.66-3.168-4.641-2.996-7.719.281.027.562.078.644.141.106.125 2.535 3.035 4.321 4.492.179.117 4.503 2.871 7.269 3.086.023.148.055.351.082.586-.707.082-2.199.222-3.867.222-2.324 0-4.207-.277-5.453-.808m16.199-.602c2.887-6.644 7.043-7.98 8.469-8.246-.68 6.098-6.992 8.414-8.125 8.781a.84.84 0 0 1-.344-.535m-3.988-.914c.199-.508.324-1.273.367-2.297a17 17 0 0 1 2.262.254c-.379 1.328-.868 2.031-1.09 2.301-.664-.082-1.18-.18-1.539-.258m-8.137-11.66c1.273.996 4.5 4.113 6.066 11.062 0 .082-.039.223-.234.301-1.043-.773-6.73-5.324-5.832-11.363m8.129 7.582c.375-1.121.601-2.965.684-3.703.386-.117.894-.18 1.515-.18.817 0 1.625.11 2.07.184-.039 1.734-.644 3.402-.921 4.082-1.231-.219-2.571-.332-3.348-.383m-.25-9.82c1.453-1.055 3.164-1.395 3.844-1.493.91 2.024 1.039 4.563 1.05 5.676a9.4 9.4 0 0 0-2.031-.207c-1.086 0-2.074.149-2.707.27.195-1.41-.051-3.477-.156-4.246m-3.34-7.883c.906-1.317 2.859-2.176 3.574-2.453 2.086 2.297 3.102 5.523 3.43 6.758-1.824.207-3.82 1.246-4.813 1.824-.339-2.031-1.781-5.242-2.191-6.129" style="fill:url(#a)" transform="matrix(15.35898 0 0 -15.35898 -1775.373 6022.163)"/></svg>