<svg xmlns="http://www.w3.org/2000/svg" width="72.335" height="71.66"><path d="M39.626 0c-3.177 2.269-6.407 5.657-6.054 9.864.713 3.193 1.33 6.445.962 9.736 1.833-1.345 3.944-2.622 4.868-4.808.961-2.607.067-5.342-.444-7.94-.51-2.307.075-4.636.668-6.852m21.077 5.635c-2.347-.04-4.681.21-6.96.931-5.755 2.577-9.586 7.903-13.057 12.943 5.123-3.207 11.118-4.521 17.03-5.355l1.352-1.863 3.516.09a343 343 0 0 1 1.991-2.622c1.255.233 2.524.466 3.801.669l1.309-2.038 2.65-.938c-3.775-.868-7.72-1.748-11.632-1.816ZM15.804 10.45C10.284 10.475 4.93 12.7 0 15.047c.977.158 1.953.315 2.945.466.443.563.893 1.127 1.351 1.683 1.27-.488 2.555-.962 3.84-1.428.683.744 1.382 1.488 2.08 2.224a198 198 0 0 0 3.418-.707c.504.511 1.023 1.023 1.54 1.541 5.875-.278 11.99-.263 17.504 2.089-3.854-4.515-8.587-8.888-14.499-10.338a20 20 0 0 0-2.375-.128m42.297 6.65c-5.517-.102-11.062 1.842-16.138 3.853 1.577.053 3.163-.022 4.74.143 4.372.458 8.016 3.41 12.478 3.553.383.992.683 2.029 1.254 2.945 1.037.053 2.09.075 3.141.067.616 1.127.991 2.434 1.885 3.388 1.022.293 2.073.414 3.125.609 1.12 1.457 2.179 2.96 3.29 4.433-.42-3.456-.81-6.942-1.937-10.248-1.09-3.222-2.795-6.858-6.349-7.888-1.814-.561-3.65-.822-5.489-.856m-36.94 4.228c-4.89-.045-10.532.722-13.867 4.688-3.095 5.003-3.132 11.224-2.787 16.91.94-1.555 1.517-3.342 2.674-4.755 1-.518 2.066-.91 3.11-1.338.346-1.18.609-2.388 1.097-3.522 1.075-.316 2.194-.512 3.306-.722.165-1.022.323-2.043.503-3.057 2.261-.834 4.567-1.652 6.49-3.155 2.922-2.193 6.484-3.254 10.075-3.674-3.426-1.06-7.04-1.322-10.6-1.375m20.36 1.645c4.153 2.164 6.782 6.431 7.316 11.029.135 1.675 2.367 1.585 3.523 2.336.076 1.022.15 2.05.233 3.073 1.172-.03 2.358-.06 3.545-.075.173 1.074.354 2.14.55 3.215l3.29-.18c.999.75 2.006 1.495 3.042 2.208-1.194-5.717-3.53-11.306-7.422-15.716-3.606-3.899-9.015-5.206-14.078-5.89m-4.576.273c-.59.015-1.206.273-1.728.727.638 1.172.45 3.004 1.608 3.808.586-.045 1.758-.142 2.344-.195-.79.631-1.593 1.225-2.329 1.909.143 1.344.428 2.673.654 4.01.676-.052 2.035-.15 2.719-.194-.864.699-1.751 1.36-2.63 2.028.007 1.457-.014 2.915-.052 4.372 1.42.27 2.839.519 4.259.834-1.435.533-2.944.834-4.432 1.172-.308 1.495-.638 2.983-.961 4.47 1.66.894 3.44 1.51 5.168 2.276-2.005.232-4.026.143-6.025-.03-.608 1.645-1.915 3.088-2.163 4.823 1.533 2.036 3.718 3.41 5.896 4.665-2.892 0-5.701-.714-8.338-1.863-1.968 2.261-4.26 4.214-6.694 5.956.639 2.292 1.382 4.689 3.118 6.41 1.622 1.614 3.809 2.418 5.905 3.237 4.59-4.786 8.166-10.63 9.848-17.076 2.652-10.073.744-21.057-4.281-30.086-.414-.888-1.129-1.271-1.886-1.253M32.49 24.46c-4.898 1.668-10 3.944-12.974 8.391-3.118 5.04-4.996 10.93-4.988 16.88l2.149-2.637 3.524-.427q.099-1.69.21-3.359c1.134-.157 2.13-.17 3.272-.327-.03-1.09.085-2.325.055-3.406a291 291 0 0 1 3.035-1.728c-.195-5.078 1.66-10.187 5.717-13.387"/></svg>