<svg xmlns="http://www.w3.org/2000/svg" width="600" height="679.58"><path d="M307.306 679.58c-211.7 0-287.777-61.684-290.875-64.26L0 601.515l10.842-18.417L200.1 261.01V102.121c-28.603-11.565-35.236-28.602-35.236-41.885C164.865 20.253 211.415 0 303.283 0c33.013 0 133.569 0 133.569 60.236 0 13.08-6.179 29.78-32.492 41.43v159.53l185.253 326.38L600 605.79l-16.044 13.552c-2.963 2.425-73.973 60.236-276.65 60.236" style="fill:#fff"/><path d="M187.29 586.06c-26.7-2.036-58.334-16.834-58.334-16.834l97.778-180.455Zm191.818-318.148V83.586c21.178-5.472 32.491-13.552 32.491-23.35 0-18.148-25.774-34.983-108.384-34.983-82.592 0-113.097 16.835-113.097 34.983 0 9.798 12.559 17.946 35.236 23.4v184.276L32.609 595.926s69.714 58.4 274.765 58.4c195.757 0 260.27-54.326 260.27-54.326z"/></svg>