<svg xmlns="http://www.w3.org/2000/svg" xml:space="preserve" width="138.805" height="150" viewBox="0 0 138.805 150"><g transform="translate(-5.486 -2.643)"><path d="m5.486 38.309 33.117-15.858L50.486 2.643h48.805l11.884 19.808 33.116 15.858-4.726 30.949v25.971l-64.676 57.414-64.677-57.414V69.258Z"/><linearGradient id="a" x1="12.301" x2="137.477" y1="76.6" y2="76.6" gradientUnits="userSpaceOnUse"><stop offset="0" style="stop-color:#8d742f"/><stop offset=".069" style="stop-color:#967d38"/><stop offset=".181" style="stop-color:#ae954f"/><stop offset=".2" style="stop-color:#b39a54"/><stop offset=".222" style="stop-color:#b9a059"/><stop offset=".302" style="stop-color:#cab068"/><stop offset=".39" style="stop-color:#d4ba71"/><stop offset=".5" style="stop-color:#d7bd74"/><stop offset=".61" style="stop-color:#d4ba71"/><stop offset=".698" style="stop-color:#cab068"/><stop offset=".778" style="stop-color:#b9a059"/><stop offset=".8" style="stop-color:#b39a54"/><stop offset=".857" style="stop-color:#a38a45"/><stop offset=".938" style="stop-color:#937a35"/><stop offset="1" style="stop-color:#8d742f"/></linearGradient><path fill="url(#a)" d="m12.301 41.911 30.652-14.679 11.04-18.396h41.791l11.04 18.396 30.653 14.679-4.105 26.877v23.658l-58.483 51.917-58.484-51.917V68.788Z" style="fill:url(#a)"/><path d="M101.985 32.545 91.888 15.716H57.89L47.792 32.545l-27.92 13.369 3.414 22.351v21.09l51.603 45.809 51.603-45.809v-21.09l3.414-22.351zM59.836 19.156H89.94l8.681 14.465-23.73 31.97-23.72-31.99zM76.61 71.021l45.003 18.063-45.005 39.953Zm-3.441 58.016L28.164 89.084l45.005-18.063ZM48.634 35.955 72.18 67.712 26.726 85.955v-17.95l-3.068-20.09zm74.418 32.05v17.948L77.601 67.712l23.564-31.746 24.955 11.949Z"/><path d="M74.889 48.742c-6.213 0-11.267-5.055-11.267-11.268 0-6.212 5.054-11.266 11.267-11.266s11.267 5.054 11.267 11.266c-.001 6.214-5.054 11.268-11.267 11.268"/><path fill="#fff" d="M74.889 45.302c-4.315 0-7.827-3.512-7.827-7.827s3.512-7.825 7.827-7.825 7.827 3.511 7.827 7.825c0 4.315-3.512 7.827-7.827 7.827"/><path d="M43.066 71.791c-6.213 0-11.266-5.054-11.266-11.266 0-6.213 5.053-11.268 11.266-11.268s11.267 5.055 11.267 11.268c0 6.212-5.054 11.266-11.267 11.266"/><path fill="#fff" d="M43.066 68.351c-4.315 0-7.827-3.511-7.827-7.825 0-4.315 3.512-7.827 7.827-7.827s7.827 3.512 7.827 7.827c.001 4.314-3.511 7.825-7.827 7.825"/><path d="M57.172 106.366c-6.214 0-11.267-5.055-11.267-11.268s5.053-11.267 11.267-11.267c6.212 0 11.267 5.054 11.267 11.267s-5.055 11.268-11.267 11.268"/><path fill="#fff" d="M57.172 102.926c-4.315 0-7.827-3.512-7.827-7.827s3.512-7.826 7.827-7.826 7.826 3.512 7.826 7.826c0 4.315-3.512 7.827-7.826 7.827"/><path d="M106.711 71.791c6.213 0 11.266-5.054 11.266-11.266 0-6.213-5.053-11.268-11.266-11.268s-11.267 5.055-11.267 11.268c0 6.212 5.054 11.266 11.267 11.266"/><path fill="#fff" d="M106.711 68.351c4.315 0 7.826-3.511 7.826-7.825 0-4.315-3.511-7.827-7.826-7.827s-7.827 3.512-7.827 7.827 3.512 7.825 7.827 7.825"/><path d="M92.605 106.366c6.214 0 11.267-5.055 11.267-11.268s-5.053-11.267-11.267-11.267c-6.212 0-11.267 5.054-11.267 11.267s5.056 11.268 11.267 11.268"/><path fill="#fff" d="M92.605 102.926c4.315 0 7.827-3.512 7.827-7.827s-3.512-7.826-7.827-7.826-7.826 3.512-7.826 7.826c0 4.315 3.512 7.827 7.826 7.827"/></g></svg>