<?xml version="1.0" encoding="UTF-8" standalone="no"?>
<svg
   version="1.1"
   width="600"
   height="84.885788"
   id="svg11"
   xmlns:xlink="http://www.w3.org/1999/xlink"
   xmlns="http://www.w3.org/2000/svg"
   xmlns:svg="http://www.w3.org/2000/svg">
  <defs
     id="defs11" />
  <linearGradient
     x1="0"
     y1="0"
     x2="1"
     y2="0"
     id="linearGradient362"
     gradientUnits="userSpaceOnUse"
     gradientTransform="matrix(52.926544,-19.263687,-19.263687,-52.926529,109.56152,380.77295)"
     spreadMethod="pad">
    <stop
       style="stop-color:#536e78"
       offset="0"
       id="stop1" />
    <stop
       style="stop-color:#99aebc"
       offset="0.3"
       id="stop2" />
    <stop
       style="stop-color:#d9eaf3"
       offset="0.5"
       id="stop3" />
    <stop
       style="stop-color:#99aebc"
       offset="0.7"
       id="stop4" />
    <stop
       style="stop-color:#536e78"
       offset="1"
       id="stop5" />
  </linearGradient>
  <linearGradient
     x1="0"
     y1="0"
     x2="1"
     y2="0"
     id="linearGradient3005"
     xlink:href="#linearGradient362"
     gradientUnits="userSpaceOnUse"
     gradientTransform="matrix(52.926544,-19.263687,-19.263687,-52.926529,109.56152,380.77295)"
     spreadMethod="pad" />
  <linearGradient
     x1="0"
     y1="0"
     x2="1"
     y2="0"
     id="linearGradient3008"
     xlink:href="#linearGradient362"
     gradientUnits="userSpaceOnUse"
     gradientTransform="matrix(488.55271,177.81865,-177.81865,488.55257,69.586338,-44.630155)"
     spreadMethod="pad" />
  <path
     d="M 55.495385,0 H 41.898462 L 12.913846,58.163077 c -0.867692,1.809231 -1.735384,3.249231 -2.593846,4.403077 -0.258462,0.03692 -0.6180923,0.07385 -1.1538462,0.110769 L 0,63.101539 V 83.944616 H 106.01538 V 63.323077 c 0,0 -7.033842,-0.507323 -8.363072,-0.61883 -0.07385,-0.10117 -0.221539,-0.322708 -0.221539,-0.322708 L 61.015385,0 Z"
     style="fill:#ffffff"
     id="path5" />
  <path
     d="m 177.12,23.944616 c 0.72,0.258461 1.58769,0.941538 1.58769,3.286154 0,2.233846 -0.68307,3.498461 -0.94154,3.747692 -0.0369,0 -0.17575,0.110769 -0.64615,0.212677 V 23.944985 Z M 129.92308,0.295385 h -9.59077 V 21.6 h 11.75077 V 62.676923 H 120.83077 V 83.944616 H 234.98769 V 62.852308 l -9.36923,-0.175754 c -1.51384,-0.03692 -1.62461,-0.221538 -1.94769,-0.655754 0,0 -5.84308,-7.606153 -11.17846,-14.52923 8.90769,-5.843077 11.14154,-13.809231 11.14154,-20.261539 0,-8.695384 -4.68923,-16.227692 -13.2,-21.203077 -7.28308,-4.107692 -15.60923,-5.732307 -29.77847,-5.732307 h -50.7323 z"
     style="fill:#ffffff"
     id="path6" />
  <path
     d="M 333.57231,0.295385 H 248.15077 V 21.673847 H 259.8 c 0.32345,0 0.50806,0.03692 0.75692,0.03692 v 40.92923 h -11.64923 v 21.304616 h 93.36 l 8.64923,-38.612308 h -21.84923 l -2.13231,6.701539 c -0.75692,2.455384 -0.96923,2.963076 -1.8,3.96923 V 37.615382 h 18.0277 v -37.32 h -9.59077 z"
     style="fill:#ffffff"
     id="path7" />
  <path
     d="m 442.21846,21.6 h 1.8 c 0.24886,0 0.39656,0 0.60923,0 v 7.356923 C 440.91692,25.606154 440.52,25.246154 436.44923,21.6 Z M 470.88,0.295385 h -38.25231 v 17.843077 c -8.04,-7.246154 -19.8,-17.843077 -19.8,-17.843077 h -48.57231 v 20.981538 l 9.81231,0.322708 c 0,0 1.62462,0.07385 1.94769,0.07385 V 62.45502 c -0.50732,0.110769 -1.15384,0.184615 -2.09538,0.221538 l -9.15692,0.397293 V 83.94462 h 48.60923 V 62.926158 l -9.30462,-0.286523 c -1.22769,0 -2.09538,-0.07385 -2.81538,-0.147692 V 43.919635 c 16.8,15.184616 45.32307,40.966154 45.32307,40.966154 h 23.29847 V 21.673481 c 0.39655,-0.03692 0.79384,-0.07385 1.32923,-0.07385 L 480.47077,21.24 V 0.295385 Z"
     style="fill:#ffffff"
     id="path8" />
  <path
     d="m 549.48923,0 h -13.59692 l -28.98462,58.163077 c -0.86769,1.809231 -1.73538,3.249231 -2.60307,4.403077 -0.24887,0.03692 -0.57231,0.07385 -1.15385,0.110769 l -9.12,0.424616 V 83.944616 H 600 V 63.323077 c 0,0 -7.02462,-0.507323 -8.36308,-0.61883 -0.0369,-0.10117 -0.21267,-0.322708 -0.21267,-0.322708 L 554.99963,0 h -5.51077 z"
     style="fill:#ffffff"
     id="path9" />
  <path
     d="m 537.12,31.015385 -9.73846,19.292308 h 20.73231 z m 10.09846,43.338462 v -2.086154 c 8.68616,-0.11077 10.95692,-0.756923 10.95692,-3.286154 0,-1.043077 -0.49846,-2.196923 -1.51384,-4.070769 l -6.37846,-10.818462 h -24.81231 l -4.86462,9.701538 c -0.86769,1.8 -1.26461,2.806154 -1.26461,3.858462 0,3.203077 2.81538,4.504615 9.59077,4.615385 h 1.26461 v 2.086154 h -26.57538 v -2.086154 c 3.96923,-0.184616 5.88,-0.941539 7.79077,-3.101539 1.29231,-1.624615 2.70461,-3.784615 4.10769,-6.710769 L 541.84615,9.627693 h 7.64308 l 33.63692,57.553846 c 2.56616,4.430769 3.32308,4.901538 7.28308,5.086154 v 2.086154 z M 391.88308,22.541539 h -0.25846 v 41.713846 c 0,5.953846 2.66769,7.716923 12.15692,8.012308 v 2.086154 h -29.42769 v -2.086154 c 4.25538,-0.184616 7.03384,-1.052308 9.08307,-2.64 1.55077,-1.218462 2.05846,-2.556923 2.05846,-4.716923 0.11077,-0.36037 0.11077,-1.052308 0.11077,-1.984616 V 17.169231 l -2.52923,-2.270769 c -1.55077,-1.412308 -3.0923,-2.270769 -4.61538,-2.529231 -1.15385,-0.285784 -1.65231,-0.285784 -4.61539,-0.396554 v -2.04923 h 35.27077 l 44.88923,40.384615 h 0.24887 V 19.6896 c 0,-3.387692 -0.3973,-4.504615 -1.8,-5.621538 -1.76308,-1.338462 -4.57847,-2.095385 -8.43693,-2.095385 h -1.8 v -2.04923 h 28.66154 v 2.04923 c -7.81846,0.295385 -10.63385,2.095385 -10.63385,6.784616 v 56.538461 h -9.95076 L 391.88271,22.541908 Z m -133.3477,51.812308 v -2.086154 h 2.96308 c 3.56308,0 5.83385,-0.655754 7.24616,-2.058462 1.15384,-1.043077 1.44,-2.381538 1.44,-5.658461 V 19.8 c 0,-3.387692 -0.28579,-4.615384 -1.44,-5.658461 -1.66154,-1.587692 -3.68308,-2.058462 -8.94462,-2.058462 h -2.02154 v -2.16 h 75.79385 v 18.064616 h -2.95385 c -1.40308,-9.304616 -8.04,-14.206154 -19.44,-14.206154 h -15.06461 v 26.067692 h 2.66769 c 8.57538,0 12.79384,-4.329231 13.80923,-14.030769 h 2.95385 V 57.48 h -2.95385 c -0.50732,-5.446153 -1.77231,-8.584615 -4.72615,-11.104615 -2.16,-2.095385 -4.57847,-2.741538 -9.08308,-2.741538 h -2.66769 V 64.91077 c 0,5.187692 0.89538,6.055384 6.77538,6.055384 h 6.77539 c 7.28307,0 10.34769,-0.572308 14.82461,-2.556923 3.06462,-1.412308 5.62154,-3.286154 7.42154,-5.483077 2.28,-2.704615 2.92615,-3.932307 4.19077,-8.003077 h 2.80615 l -4.32,19.43077 z M 171.85846,41.289231 c 6.48923,0 10.2,-1.043077 12.75692,-3.6 2.3077,-2.344615 3.72,-6.101538 3.72,-10.458461 0,-6.849231 -3.96923,-11.861539 -10.24615,-12.876923 -1.65231,-0.286524 -3.31385,-0.397293 -5.47385,-0.397293 h -5.12307 v 27.332308 h 4.36615 z m -1.55077,3.683077 h -2.81538 V 64.55077 c 0,3.276923 0.39729,4.615384 1.55077,5.658461 1.40307,1.403077 3.5723,2.058462 7.28307,2.058462 h 2.91693 v 2.086154 h -48.82154 v -2.086154 h 2.56615 c 3.46154,0 5.87077,-0.655754 7.28308,-2.058462 1.04308,-1.043077 1.40308,-2.381538 1.40308,-5.658461 V 19.689231 c 0,-3.276923 -0.35963,-4.504615 -1.40308,-5.621538 -1.41231,-1.44 -3.72,-2.095385 -7.28308,-2.095385 h -3.06461 V 9.923077 h 50.7323 c 12.29539,0 19.32924,1.227693 24.95077,4.43077 5.48308,3.212307 8.4,7.606153 8.4,12.876923 0,8.113846 -5.33538,13.375384 -16.58769,16.403077 l 18.53539,24.119999 c 2.27077,3.101539 5.22461,4.403077 9.44307,4.513847 v 2.086154 H 193.2 Z M 43.089231,31.015385 33.396923,50.307693 h 20.695385 z m 10.098461,43.338462 v -2.086154 c 8.695385,-0.11077 11.003077,-0.756923 11.003077,-3.286154 0,-1.043077 -0.507323,-2.196923 -1.523077,-4.070769 L 56.252308,54.092308 H 31.486154 l -4.873846,9.701538 c -0.895385,1.8 -1.255385,2.806154 -1.255385,3.858462 0,3.203077 2.806154,4.504615 9.590769,4.615385 h 1.255385 v 2.086154 H 9.6276923 v -2.086154 c 3.9692307,-0.184616 5.8799997,-0.941539 7.7907697,-3.101539 1.301538,-1.624615 2.667692,-3.784615 4.08,-6.710769 L 47.815385,9.627693 h 7.68 l 33.60923,57.553846 c 2.556923,4.430769 3.35077,4.901538 7.283077,5.086154 v 2.086154 z"
     style="fill:#536e78"
     id="path10" />
  <path
     d="m 544.11692,13.310917 -5.99077,12.046154 2.16923,3.821539 11.03077,19.283077 2.05847,3.646153 0.065,0.11077 6.42462,10.92 c 1.11655,1.984615 1.98424,3.784615 1.98424,5.843076 v 0 c 0,0.618462 -0.0369,1.153847 -0.14769,1.661539 v 0 h 19.18154 c -0.32308,-0.507692 -0.60923,-1.015385 -0.96923,-1.587692 v 0 L 547.35694,13.310917 h -3.24 z m -493.993843,0 -5.981539,12.009231 2.16,3.858462 10.993847,19.283077 2.095384,3.646153 0.07385,0.11077 6.415385,10.92 c 1.153846,2.095384 1.984615,3.784615 1.984615,5.843076 v 0 c 0,0.618462 -0.03692,1.153847 -0.147692,1.661539 v 0 H 86.907696 C 86.575389,70.135533 86.289235,69.62784 85.966158,69.055533 v 0 L 53.409235,13.310917 h -3.286154 z m 337.033843,0.286154 0.89539,0.793846 0.14769,0.11077 v -0.286154 l 6.16615,5.547692 57.36923,51.849231 h 4.8277 V 57.62784 l -5.04,-4.578461 -43.81846,-39.452308 z m -61.58769,0 c 1.66154,1.015385 3.10154,2.233846 4.29231,3.646154 v 0 -3.646154 z m -52.64308,0 c 0.8677,1.735385 0.93231,3.784616 0.93231,6.203077 v 0 44.750769 c 0,2.344616 -0.10154,4.393847 -0.89538,6.092308 v 0 h 20.47384 c -0.64615,-1.375385 -1.00615,-3.249231 -1.00615,-5.732308 v 0 -21.276923 -0.07385 -3.673846 -26.104615 -0.184616 h -19.50462 z m -128.54769,0 c 0.79385,1.661539 0.97846,3.572308 0.97846,6.092308 v 0 44.861538 c 0,2.483077 -0.18461,4.430769 -0.94154,6.092308 v 0 h 20.37231 c -0.79384,-1.661539 -0.96923,-3.609231 -0.96923,-6.092308 v 0 -19.578461 -3.683077 -27.332308 -0.36 z m 47.63077,13.633846 c 0,5.187693 -1.68923,9.95077 -4.75385,13.089231 v 0 c -2.8523,2.843077 -6.52615,4.218462 -12.29538,4.541539 v 0 L 195,70.643225 h 18.53538 C 213.36,70.421686 213.17538,70.246302 213,69.997071 v 0 l -18.53538,-24.129231 -3.35077,-4.356923 5.33538,-1.44923 c 12.29539,-3.313847 13.88308,-8.575385 13.88308,-12.83077 v 0 c 0,-3.895384 -2.24308,-7.144615 -6.56308,-9.664615 v 0 c -4.21846,-2.418462 -9.45231,-3.572308 -17.96308,-3.895385 v 0 c 3.89539,2.99077 6.20308,7.79077 6.20308,13.56 M 307.68,41.686302 c 0.90462,0.470769 1.80923,1.08 2.60308,1.873846 v 0 c 0.5723,0.507692 1.11692,1.015385 1.58769,1.550769 v 0 -6.775384 c -1.15385,1.403077 -2.56615,2.483077 -4.19077,3.350769 m 20.48308,28.956923 h 3.42461 l 0.65539,-2.815385 c -1.19077,1.015385 -2.56616,1.984616 -4.08,2.815385"
     style="fill:url(#linearGradient3008)"
     id="path11" />
</svg>
