<?xml version="1.0" encoding="UTF-8" standalone="no"?>
<svg
   version="1.1"
   width="580.78156"
   height="65.66806"
   id="svg1"
   xmlns="http://www.w3.org/2000/svg"
   xmlns:svg="http://www.w3.org/2000/svg">
  <defs
     id="defs1" />
  <path
     d="M 527.48308,21.387692 517.75385,40.68 h 20.73231 z m 10.09846,43.338462 V 62.64 c 8.69539,-0.11077 11.00308,-0.756923 11.00308,-3.286154 0,-1.043077 -0.50733,-2.196923 -1.55077,-4.070769 l -6.38769,-10.818462 h -24.80308 l -4.83692,9.701538 c -0.89539,1.8 -1.29231,2.806154 -1.29231,3.858462 0,3.203077 2.80615,4.504615 9.59077,4.615385 H 520.56 v 2.086154 H 493.98462 V 62.64 c 3.96923,-0.184616 5.88,-0.941539 7.82769,-3.101539 1.26462,-1.624615 2.66769,-3.784615 4.08,-6.710769 L 532.20923,0 h 7.68 l 33.60923,57.553846 c 2.55693,4.430769 3.31385,4.901538 7.28308,5.086154 v 2.086154 z M 382.24616,12.913846 h -0.24887 v 41.713846 c 0,5.953846 2.70462,7.716923 12.1477,8.012308 v 2.086154 H 364.75422 V 62.64 c 4.22769,-0.184616 7.03384,-1.052308 9.05538,-2.64 1.55077,-1.218462 2.05846,-2.556923 2.05846,-4.716923 0.1381,-0.36037 0.1381,-1.052308 0.1381,-1.984616 V 7.541538 L 373.44923,5.270769 C 371.89846,3.858461 370.38462,3 368.83385,2.741538 367.68,2.455754 367.17231,2.455754 364.25539,2.344984 v -2.04923 h 35.26154 l 44.86153,40.384615 h 0.24887 V 10.061907 c 0,-3.387692 -0.39656,-4.504615 -1.8,-5.621538 -1.77231,-1.338462 -4.5877,-2.095385 -8.44616,-2.095385 h -1.76308 v -2.04923 h 28.63385 v 2.04923 C 453.46117,2.640369 450.64579,4.440369 450.64579,9.1296 v 56.538461 h -9.9877 L 382.24579,12.914215 Z M 248.90769,64.726154 V 62.64 h 2.95385 c 3.57231,0 5.88,-0.655754 7.28308,-2.058462 1.15384,-1.043077 1.40307,-2.381538 1.40307,-5.658461 v -44.75077 c 0,-3.387692 -0.24886,-4.615384 -1.40307,-5.658461 C 257.48308,2.926154 255.43385,2.455384 250.2,2.455384 h -2.04923 v -2.16 h 75.79385 V 18.36 h -2.96308 c -1.40308,-9.304616 -8.04,-14.206154 -19.39385,-14.206154 h -15.11076 v 26.067692 h 2.70461 c 8.54769,0 12.76615,-4.329231 13.80923,-14.030769 h 2.92616 v 31.661538 h -2.92616 c -0.54498,-5.446153 -1.8,-8.584615 -4.76308,-11.104615 -2.16,-2.095385 -4.57846,-2.741538 -9.04615,-2.741538 h -2.70461 v 21.276923 c 0,5.187692 0.90461,6.055384 6.77538,6.055384 h 6.78462 c 7.28307,0 10.34769,-0.572308 14.81538,-2.556923 3.06462,-1.412308 5.63077,-3.286154 7.43077,-5.483077 2.30769,-2.704615 2.91692,-3.932307 4.21846,-8.003077 h 2.81539 l -4.36616,19.43077 z M 162.22154,31.661538 c 6.52615,0 10.20923,-1.043077 12.80308,-3.6 2.27077,-2.344615 3.67384,-6.101538 3.67384,-10.458461 0,-6.849231 -3.96,-11.861539 -10.2,-12.876923 -1.66153,-0.286524 -3.32307,-0.397293 -5.52,-0.397293 h -5.08615 v 27.332308 h 4.32923 z m -1.51385,3.683077 h -2.81538 v 19.578462 c 0,3.276923 0.36037,4.615384 1.51385,5.658461 1.4123,1.403077 3.5723,2.058462 7.28307,2.058462 h 2.96308 v 2.086154 H 120.83077 V 62.64 h 2.55692 c 3.42462,0 5.88,-0.655754 7.28308,-2.058462 1.00616,-1.043077 1.40308,-2.381538 1.40308,-5.658461 V 10.061538 c 0,-3.276923 -0.39729,-4.504615 -1.40308,-5.621538 C 129.26769,3 126.96,2.344615 123.38769,2.344615 h -3.06461 V 0.295384 h 50.73231 c 12.25846,0 19.2923,1.227693 24.91384,4.43077 5.48308,3.212307 8.43693,7.606153 8.43693,12.876923 0,8.113846 -5.37231,13.375384 -16.61539,16.403077 l 18.52616,24.119999 c 2.30769,3.101539 5.23384,4.403077 9.4523,4.513847 v 2.086154 H 183.57231 Z M 33.498462,21.387692 23.76,40.68 H 44.492308 Z M 43.596923,64.726154 V 62.64 c 8.686154,-0.11077 10.993847,-0.756923 10.993847,-3.286154 0,-1.043077 -0.544985,-2.196923 -1.55077,-4.070769 L 46.661539,44.464615 H 21.849231 l -4.864615,9.701538 c -0.867693,1.8 -1.264616,2.806154 -1.264616,3.858462 0,3.203077 2.815385,4.504615 9.59077,4.615385 h 1.264615 v 2.086154 H 0 V 62.64 c 3.9692307,-0.184616 5.8799997,-0.941539 7.7907697,-3.101539 1.292307,-1.624615 2.7046153,-3.784615 4.1076923,-6.710769 L 38.224616,0 h 7.643077 l 33.636923,57.553846 c 2.52923,4.430769 3.323077,4.901538 7.283077,5.086154 v 2.086154 z"
     id="path1" />
</svg>
