<?xml version="1.0" encoding="UTF-8" standalone="no"?>
<!-- Generator: Adobe Illustrator 15.1.0, SVG Export Plug-In . SVG Version: 6.00 Build 0)  -->

<svg
   version="1.1"
   id="Layer_1"
   x="0px"
   y="0px"
   width="272.798"
   height="314.99899"
   viewBox="37 0 272.798 314.99899"
   enable-background="new 37 0 325 350"
   xml:space="preserve"
   xmlns="http://www.w3.org/2000/svg"
   xmlns:svg="http://www.w3.org/2000/svg"><defs
   id="defs18" />
<g
   id="Layer_1_1_"
   transform="translate(-26.297,-18.653)">
</g>
<g
   id="g18"
   transform="translate(-26.297,-18.653)">
	<polygon
   fill="#ffffff"
   points="199.696,18.653 336.095,97.405 336.095,254.903 199.696,333.652 63.297,254.903 63.297,97.405 "
   id="polygon1" />
	<polygon
   points="199.696,26.751 329.08,101.455 329.08,250.854 199.696,325.555 70.312,250.854 70.312,101.455 "
   id="polygon2" />
	<linearGradient
   id="SVGID_1_"
   gradientUnits="userSpaceOnUse"
   x1="95.134804"
   y1="263.89059"
   x2="304.2576"
   y2="88.415802">
		<stop
   offset="0"
   style="stop-color:#BB2C26"
   id="stop2" />
		<stop
   offset="0.0098"
   style="stop-color:#BD2F26"
   id="stop3" />
		<stop
   offset="0.1368"
   style="stop-color:#D05724"
   id="stop4" />
		<stop
   offset="0.238"
   style="stop-color:#DC6F23"
   id="stop5" />
		<stop
   offset="0.3"
   style="stop-color:#E07823"
   id="stop6" />
		<stop
   offset="0.3053"
   style="stop-color:#E17A23"
   id="stop7" />
		<stop
   offset="0.3616"
   style="stop-color:#EE8B1F"
   id="stop8" />
		<stop
   offset="0.4232"
   style="stop-color:#F5951E"
   id="stop9" />
		<stop
   offset="0.5"
   style="stop-color:#F7981D"
   id="stop10" />
		<stop
   offset="0.5768"
   style="stop-color:#F5951E"
   id="stop11" />
		<stop
   offset="0.6384"
   style="stop-color:#EE8B1F"
   id="stop12" />
		<stop
   offset="0.6947"
   style="stop-color:#E17A23"
   id="stop13" />
		<stop
   offset="0.7"
   style="stop-color:#E07823"
   id="stop14" />
		<stop
   offset="0.762"
   style="stop-color:#DC6F23"
   id="stop15" />
		<stop
   offset="0.8632"
   style="stop-color:#D05724"
   id="stop16" />
		<stop
   offset="0.9902"
   style="stop-color:#BD2F26"
   id="stop17" />
		<stop
   offset="1"
   style="stop-color:#BB2C26"
   id="stop18" />
	</linearGradient>
	<polygon
   fill="url(#SVGID_1_)"
   points="79.664,245.453 199.696,314.754 319.729,245.453 319.729,106.853 199.696,37.552 79.664,106.853 "
   id="polygon18"
   style="fill:url(#SVGID_1_)" />
	<path
   d="m 181.005,116.54 c -8.01,-25.896 5.403,-47.69 5.403,-47.69 0,0 -1.49,13.969 8.384,26.824 9.872,12.855 32.601,31.111 45.269,44.527 12.666,13.411 20.677,25.706 20.677,25.706 -0.744,-19.003 -39.121,-51.23 -43.777,-55.701 -4.655,-4.471 -8.57,-7.824 -8.57,-17.513 0,-9.685 5.031,-17.14 5.031,-17.14 -0.187,3.542 0.371,14.532 9.127,26.084 8.755,11.55 39.495,38.933 49.369,48.622 9.871,9.687 11.673,27.137 11.673,30.366 0,3.228 -0.745,8.694 -0.745,8.694 12.666,-0.126 9.688,12.666 9.688,12.666 11.675,-5.341 15.025,-16.145 15.025,-16.145 5.592,37.259 -22.727,50.672 -22.727,50.672 4.597,-23.971 -20.986,-24.715 -24.219,-24.715 -3.228,0 -8.566,0.87 -8.566,0.87 9.437,-14.903 -10.555,-20.866 -27.819,-20.866 -17.266,0 -23.846,6.831 -23.846,6.831 16.142,-1.367 22.107,3.478 22.107,3.478 0,0 -7.452,5.961 -7.452,13.785 0,11.552 13.786,8.445 13.786,8.445 0,0 -4.97,3.476 -4.97,8.446 0,10.557 14.035,6.953 14.035,6.953 -6.585,11.551 2.856,14.158 9.313,14.158 6.457,0 12.979,-3.785 12.979,-3.785 -16.579,37.256 -72.219,30.115 -72.219,30.115 25.956,-7.949 24.838,-24.339 24.838,-24.339 -4.098,5.339 -11.425,3.353 -11.425,3.353 0,0 6.332,-5.216 6.332,-14.782 0,-14.281 -15.399,-33.161 -41.855,-33.161 -5.216,0 -15.146,1.494 -15.146,1.494 13.659,-22.606 40.734,-29.437 40.734,-29.437 -6.585,-6.581 -21.736,-7.325 -21.736,-7.325 14.78,-11.054 40.985,-12.669 40.985,-12.669 -44.46,-9.438 -66.194,19.249 -66.194,19.249 11.177,-0.371 17.634,3.353 17.634,3.353 -27.323,6.334 -44.089,26.33 -44.089,26.33 0,0 3.727,-19.996 -4.842,-29.435 -8.57,-9.438 -25.46,-7.079 -25.46,-7.079 23.596,-23.72 40.859,-21.485 40.859,-31.298 0,-14.033 -17.759,-21.856 -17.759,-21.856 18.381,-4.97 31.546,1.988 31.546,1.988 -9.689,-8.696 -7.949,-33.038 -7.949,-33.038 18.504,24.841 26.659,24.533 45.205,35.27 18.88,10.931 26.579,22.853 26.579,22.853 -1.426,-15.087 -25.213,-33.158 -25.213,-33.158 z m 65.079,65.948 c 4.845,3.973 12.791,2.232 12.791,2.232 -2.234,-12.416 -14.406,-22.105 -18.504,-24.839 -4.098,-2.73 -6.457,-1.863 -6.457,-1.863 -3.726,8.943 7.325,20.498 12.17,24.47 z"
   id="path18" />
</g>
</svg>
