<svg xmlns="http://www.w3.org/2000/svg" xmlns:xlink="http://www.w3.org/1999/xlink" width="235.688" height="276.906"><linearGradient id="a"><stop offset="0" style="stop-color:#536e78"/><stop offset=".07" style="stop-color:#829ba5"/><stop offset=".35" style="stop-color:#d9eaf3"/><stop offset=".65" style="stop-color:#d9eaf3"/><stop offset=".93" style="stop-color:#829ba5"/><stop offset="1" style="stop-color:#536e78"/></linearGradient><linearGradient xlink:href="#a" id="b" x1="380.531" x2="590.469" y1="173.198" y2="173.198" gradientTransform="translate(-367.656 -59.219)" gradientUnits="userSpaceOnUse"/><path d="M0 0v37.875c13.223 11.743 16.313 26.216 16.313 42.906v71.125l-11.594 8.625c9.74 57.818 113.125 116.375 113.125 116.375s103.385-58.557 113.125-116.375l-11.594-8.625V80.5c0-16.414 3.089-30.882 16.313-42.625V0h-89.532l-14.812 13.781v8.407c0 7.455-6.044 13.5-13.5 13.5s-13.5-6.045-13.5-13.5V13.78L89.53 0Z"/><path d="M12.875 12.563V33.03c12.708 9.355 16.406 30.711 16.406 47.125v73.813l-10.593 8.437c14.825 49.949 99.156 99.532 99.156 99.532s79.881-46.967 97.812-95.532l-9.25-7.375V80.156c0-16.414 3.7-37.77 16.406-47.125V12.563h-72.187l-5.875 6.156v3.468c0 14.858-12.05 26.907-26.906 26.907-14.857 0-26.906-12.05-26.906-26.906v-3.47l-5.876-6.155z" style="fill:url(#b)"/><path d="m11.576 160.016 124.549-98.268V96.44l93.26-73.58-15.863 40.879-1.273 40.415-110.071 86.845v-35.065l-63.253 49.905z"/><path d="m214.656 42.469-84.812 66.937V73.75L29.28 153.969l-8.531 6.781-2.062 1.656c3.555 11.98 11.134 23.929 20.562 35.188l69.219-54.625v35.062l97.937-77.281V80.156c0-12.147 2.045-26.994 8.25-37.687" style="fill:#fff"/></svg>