<svg xmlns="http://www.w3.org/2000/svg" width="600" height="614.387"><path d="M295.972 614.386c-2.873 0-5.76-.475-8.571-1.382-5.821-1.966-57.783-20.213-79.502-57.169-4.561-7.74-4.976-17.28-1.136-25.39 15.958-33.59 33.177-79.378 33.177-94.738 0-9.953 5.514-19.138 14.223-23.807 1.075-.598 2.21-1.091 3.287-1.505 2.949-23.639 3.425-47.876.845-54.834-3.471-9.477-1.382-20.045 5.407-27.54a27.6 27.6 0 0 1 6.42-5.222c-.66-5.223-1.321-10.322-2.104-15.237-37.8 83.818-87.474 112.433-90.177 113.938a27.16 27.16 0 0 1-13.194 3.41c-3.794 0-7.51-.768-11.043-2.335a27.01 27.01 0 0 1-15.36-18.785c-14.407-63.42 9.062-117.24 37.43-156.054a407 407 0 0 0-19.014 11.228c-24.237 20.398-59.334 62.452-59.703 62.867-1.136 1.26-2.335 2.519-3.655 3.61-11.873 9.722-29.337 11.15-38.645 11.15-13.44 0-24.837-9.83-26.818-23.162-9.54-64.618 46.14-142.676 52.56-151.308a27.15 27.15 0 0 1 10.737-8.693c4.208-1.92 8.77-3.671 13.624-5.223-39.121.476-69.303 6.36-69.595 6.42-1.797.355-3.61.539-5.345.539A27.17 27.17 0 0 1 5.275 139.62l-2.688-5.821c-5.882-12.472-1.443-27.417 10.368-34.682C72.72 62.53 142.62 46.8 145.617 46.202c1.92-.475 3.84-.66 5.82-.66h.37c32.639.476 67.428 23.039 93.17 44.404-.353-7.803.355-16.803 3.426-27.125 7.91-26.634 38.63-44.88 47.876-49.857a27.15 27.15 0 0 1 12.78-3.18c8.816 0 17.402 4.255 22.563 11.996 7.188 10.736 5.698 24.898-3.072 33.899-.061.598-.061 1.797.43 3.67.293 1.26.66 2.335 1.014 3.35 18.539-25.62 43.744-52.5 72.298-61.07 2.043-.6 4.086-.97 6.236-1.092 0 0 7.68-.537 20.52-.537 25.206 0 74.587 1.981 121.557 15.13a27.094 27.094 0 0 1 19.506 30.473l-1.013 6.236c-2.043 12.303-12.18 21.61-24.545 22.686-.598 0-25.144 2.212-57.307 9.953 2.703.184 5.222.492 7.74.846 4.625.722 9.002 2.519 12.719 5.39 8.525 6.605 83.465 66.431 92.05 131.172 1.798 13.317-6.481 25.973-19.445 29.63-1.858.537-11.873 3.301-22.194 3.301-6.79 0-12.61-1.136-17.94-3.425a23.7 23.7 0 0 1-4.562-2.519c-.43-.23-42.608-28.86-71.453-42.47 28.676 27.003 53.328 65.633 56.277 119.637.414 7.434-2.35 14.822-7.572 20.213-5.1 5.346-12.18 8.28-19.553 8.28h-.368c-2.873 0-50.564-1.49-100.545-47.815 1.014 7.741 1.674 15.835 1.552 24.007a26.6 26.6 0 0 1 5.575 15.237c.123 2.641 2.703 63.589-19.307 112.018 2.273 5.16 2.995 10.982 1.797 16.619-.721 3.18-17.157 80.27-66.477 131.51-5.222 5.406-12.303 8.278-19.568 8.278" style="fill:gray"/><path d="M283.976 263.219c9.185 13.44 14.346 68.15 14.346 68.15 23.33 10.214 68.52.783 68.52.783.89-38.568-16.99-76.26-16.99-76.26-29.09 5.76-65.876 7.326-65.876 7.326m-.246 82.973c7.864 21.304-.66 77.29-.66 77.29 31.027 24.468 70.562 27.294 70.562 27.294C375.29 407.46 372.48 347.22 372.48 347.22c-38.584 12.242-88.748-1.03-88.748-1.03m-8.218-201.165s35.65-19.922 37.739-38.83c2.104-18.892-5.222-19.967-10.49-39.889-5.223-19.982 6.297-29.398 6.297-29.398s-29.4 15.713-34.622 33.592c-5.284 17.817-1.075 28.323 3.118 37.8 4.193 9.415 4.193 24.114-2.043 36.725m12.718 6.896c-7.91.293-14.807.661-15.53 2.811-.721 2.104 1.49 10.875 3.78 18.785 2.212 8.048 5.16 15.774 7.204 17.034 1.858 1.151 7.725-.477 15.36-1.49 8.816-1.137 16.849-1.03 17.878-2.826 1.075-1.797-1.383-9.953-4.21-18.355-2.456-7.02-4.975-14.407-7.556-15.544-2.703-1.137-9.415-.723-16.926-.415m-30.658 52.084s-118.546 81.115-92.926 193.793c0 0 73.373-40.918 104.876-181.505 0 0 .475-10.26-11.95-12.288m-2.75-14.883s1.736-9.185 2.873-20.46c0 0-102.295-14.468-155.455 9.416 0 0-55.74 75.954-47.584 131.463 0 0 15.252 0 21.426-5.099 0 0 38.215-45.787 64.74-67.567 0 0 67.323-43.13 109.977-46.617zM29.82 128.036s127.915-25.558 208.86 21.12c0 0 9.723 7.326 23.578-5.33 0 0-63.712-70.44-110.82-71.161 0 0-67.736 14.868-124.321 49.611zm318.774 65.94c56.647 132.185 144.78 133.505 144.78 133.505-6.297-115.381-133.198-150.31-133.198-150.31-11.46 5.407-11.582 16.804-11.582 16.804m2.996-29.398c41.947-8.34 118.5 14.7 118.5 14.7 31.502 13.685 80.76 47.215 80.76 47.215 7.373 3.118 22.088-1.075 22.088-1.075-7.388-55.556-81.852-113.278-81.852-113.278-57.706-8.34-152.091 33.607-152.091 33.607 4.193 10.49 8.4 18.83 8.4 18.83zM543.355 41.223c-63.958-17.817-133.2-13.685-133.2-13.685-45.126 13.685-87.058 98.886-87.058 98.886 16.804 8.401 24.115-1.321 24.115-1.321C412.26 57.966 542.326 47.46 542.326 47.46zM267.05 435.706c0 31.026-35.757 106.32-35.757 106.32 17.218 29.336 64.74 45.31 64.74 45.31 44.406-46.202 59.397-118.33 59.397-118.33-38.507-.354-88.38-33.3-88.38-33.3m76.26-192.042c-8.51-35.773-22.61-48-22.61-48-24.482 2.812-37.63 7.066-37.63 7.066 9.37 2.35 10.32 46.632 10.32 46.632 25.868-.246 49.92-5.698 49.92-5.698"/></svg>