<svg xmlns="http://www.w3.org/2000/svg" width="600.001" height="614.36"><radialGradient id="a" cx="0" cy="0" r="1" fx="0" fy="0" gradientTransform="translate(306.675 306.626)scale(265.50378)" gradientUnits="userSpaceOnUse" spreadMethod="pad"><stop offset="0" style="stop-color:#d9eaf3"/><stop offset=".663" style="stop-color:#99aebc"/><stop offset="1" style="stop-color:#536e78"/></radialGradient><path d="M295.985 614.36c-2.872 0-5.76-.476-8.57-1.383-5.821-1.966-57.78-20.213-79.498-57.166-4.562-7.741-4.977-17.28-1.137-25.389 15.958-33.59 33.176-79.375 33.176-94.734 0-9.952 5.452-19.137 14.222-23.806a22.6 22.6 0 0 1 3.287-1.505c2.949-23.638 3.425-47.874.845-54.832-3.47-9.476-1.382-20.043 5.407-27.539a27.6 27.6 0 0 1 6.42-5.222c-.66-5.222-1.321-10.32-2.166-15.236-37.737 83.814-87.408 112.428-90.111 113.933a27.2 27.2 0 0 1-13.209 3.41c-3.778 0-7.556-.768-11.028-2.335a27.01 27.01 0 0 1-15.359-18.784c-14.468-63.417 9.062-117.235 37.43-156.047a447 447 0 0 0-19.076 11.227c-24.175 20.397-59.27 62.45-59.7 62.865-1.075 1.26-2.273 2.519-3.594 3.609-11.872 9.722-29.336 11.15-38.643 11.15-13.44 0-24.897-9.83-26.817-23.16-9.538-64.616 46.138-142.67 52.559-151.302 2.764-3.778 6.42-6.773 10.735-8.693 4.209-1.92 8.77-3.671 13.562-5.222-39.057.475-69.238 6.358-69.591 6.42a27 27 0 0 1-5.284.538 27.13 27.13 0 0 1-24.528-15.543l-2.703-5.821c-5.944-12.472-1.444-27.416 10.383-34.68C72.743 62.526 142.642 46.798 145.575 46.2c1.982-.475 3.902-.66 5.821-.66h.43c32.638.476 67.365 23.038 93.168 44.402-.354-7.802.354-16.803 3.425-27.124 7.91-26.632 38.628-44.879 47.813-49.855a27.6 27.6 0 0 1 12.84-3.18c8.754 0 17.401 4.255 22.562 11.996 7.188 10.736 5.698 24.897-3.072 33.897-.061.599-.061 1.797.43 3.671.293 1.26.66 2.335 1.014 3.348 18.538-25.618 43.742-52.497 72.295-61.067 1.98-.6 4.085-.968 6.235-1.091 0 0 7.68-.537 20.52-.537 25.204 0 74.583 1.981 121.55 15.129A27.093 27.093 0 0 1 570.114 45.6l-1.014 6.236c-2.043 12.302-12.18 21.61-24.544 22.685-.598 0-25.204 2.211-57.304 9.952 2.703.185 5.222.492 7.741.846 4.623.722 9 2.519 12.717 5.39 8.463 6.605 83.461 66.428 92.047 131.166 1.797 13.317-6.482 25.972-19.445 29.628-1.92.538-11.872 3.302-22.194 3.302-6.788 0-12.61-1.137-17.939-3.425a23.7 23.7 0 0 1-4.561-2.519c-.415-.23-42.606-28.86-71.466-42.467 28.69 27 53.342 65.628 56.29 119.63.415 7.434-2.349 14.822-7.571 20.213-5.1 5.345-12.18 8.279-19.552 8.279h-.354c-2.887 0-50.577-1.49-100.555-47.813 1.014 7.741 1.613 15.835 1.551 24.006 3.302 4.316 5.284 9.646 5.575 15.236.123 2.642 2.704 63.586-19.306 112.013a27.7 27.7 0 0 1 1.797 16.619c-.721 3.179-17.156 80.266-66.473 131.503-5.223 5.407-12.303 8.279-19.568 8.279" style="fill:#fff"/><path d="M283.99 263.207c9.184 13.439 14.345 68.148 14.345 68.148 23.269 10.213 68.516.782 68.516.782.891-38.566-16.987-76.257-16.987-76.257-29.09 5.76-65.874 7.326-65.874 7.326m-.246 82.97c7.864 21.302-.706 77.286-.706 77.286 31.07 24.467 70.605 27.293 70.605 27.293 21.656-43.313 18.845-103.55 18.845-103.55-38.643 12.24-88.744-1.03-88.744-1.03m-8.278-201.157s35.71-19.92 37.798-38.827c2.104-18.892-5.222-19.967-10.49-39.888-5.222-19.982 6.297-29.397 6.297-29.397s-29.397 15.713-34.62 33.59c-5.283 17.817-1.074 28.322 3.119 37.799 4.208 9.415 4.208 24.114-2.104 36.723m12.778 6.896c-7.91.293-14.806.661-15.528 2.811-.72 2.104 1.49 10.874 3.779 18.784 2.211 8.048 5.16 15.774 7.188 17.033 1.873 1.152 7.74-.476 15.359-1.49 8.831-1.136 16.864-1.03 17.893-2.826 1.075-1.797-1.382-9.952-4.27-18.354-2.396-7.019-4.915-14.406-7.495-15.543-2.765-1.136-9.415-.722-16.926-.415m-30.656 52.082s-118.54 81.11-92.937 193.784c0 0 73.385-40.916 104.886-181.497 0 0 .476-10.26-11.95-12.287m-2.749-14.883s1.736-9.184 2.873-20.458c0 0-102.291-14.468-155.449 9.415 0 0-55.799 75.95-47.582 131.458 0 0 15.252 0 21.426-5.1 0 0 38.213-45.785 64.738-67.564 0 0 67.319-43.128 109.97-46.614zM29.845 128.031s127.91-25.558 208.851 21.118c0 0 9.722 7.326 23.576-5.33 0 0-63.709-70.436-110.815-71.158 0 0-67.733 14.868-124.377 49.61zm318.76 65.936c56.644 132.18 144.774 133.5 144.774 133.5-6.297-115.377-133.193-150.303-133.193-150.303-11.458 5.406-11.581 16.803-11.581 16.803m2.995-29.397c41.945-8.34 118.495 14.698 118.495 14.698 31.44 13.685 80.757 47.214 80.757 47.214 7.388 3.118 22.086-1.075 22.086-1.075-7.387-55.554-81.848-113.273-81.848-113.273-57.703-8.34-152.084 33.606-152.084 33.606 4.208 10.49 8.401 18.83 8.401 18.83zM543.357 41.222c-63.955-17.817-133.193-13.685-133.193-13.685-45.125 13.685-87.055 98.88-87.055 98.88 16.803 8.402 24.114-1.32 24.114-1.32 65.045-67.134 195.105-77.64 195.105-77.64zM267.064 435.686c0 31.025-35.817 106.315-35.817 106.315 17.279 29.336 64.738 45.31 64.738 45.31 44.464-46.2 59.455-118.326 59.455-118.326-38.505-.354-88.376-33.299-88.376-33.299m76.196-192.033c-8.447-35.771-22.547-47.997-22.547-47.997-24.482 2.81-37.675 7.065-37.675 7.065 9.415 2.35 10.367 46.63 10.367 46.63 25.864-.246 49.855-5.698 49.855-5.698" style="fill:#536e78"/><path d="M411.423 34.434c-34.312 11.043-67.794 68.286-78.53 88.207.952.168 1.981.291 2.872.291 4.085 0 5.882-1.98 6.481-2.641C393.484 67.44 481.921 48.902 521.64 43.02c-36.784-7.68-72.786-9-92.691-9-9.123 0-15.36.306-17.525.414M281.056 72.417c-4.746 16.08-.722 25.08 2.872 33.052 2.995 6.912 4.147 15.19 3.241 23.592 9.6-7.45 18.416-16.45 19.26-23.638 1.075-9.722-.599-13.209-3.594-19.567a96.8 96.8 0 0 1-6.788-17.817 49.2 49.2 0 0 1-1.552-12.778c-6.19 5.16-11.703 11.273-13.439 17.156M48.383 118.14c14.699-1.92 36.478-3.962 61.374-3.962 54.479 0 99.066 9.783 132.963 29.335 0 .062 1.306.845 3.471.845a12.9 12.9 0 0 0 5.637-1.505c-15.835-16.265-63.709-62.035-99.649-63.294-6.835 1.612-56.521 13.73-103.796 38.581m299.684 31.317c1.383 3.18 2.642 5.99 3.594 8.033q9.4-1.613 21.303-1.613c42.837 0 96.839 16.081 99.895 17.095 31.67 13.73 79.851 46.43 80.696 47.152a12.3 12.3 0 0 0 4.5.599c2.335 0 4.731-.23 6.835-.599-10.383-46.138-66.827-93.475-76.61-101.323a108 108 0 0 0-13.747-.845c-46.2 0-107.083 23.515-126.466 31.501m-57.657 9.293-1.92.06c-2.273.124-5.883.247-8.524.477.491 2.35 1.382 6.19 3.118 12.364 1.873 6.42 3.486 10.613 4.085 12.241q1.89-.2 4.5-.66 2.98-.569 6.482-1.014c2.933-.369 5.82-.614 8.401-.845q1.46-.107 2.995-.307c-.599-2.212-1.613-5.698-3.425-10.982-1.198-3.47-3.118-9.169-4.439-11.457a31 31 0 0 0-3.348-.108c-2.35 0-5.038.108-7.925.23m-183.525 24.897c-7.203 10.137-48.657 71.281-46.015 118.556 4.316-.414 8.632-1.198 9.891-2.165 1.628-1.92 38.935-46.615 66.366-68.993 2.75-1.797 69.162-44.095 111.645-47.398.353-2.273.844-5.39 1.26-9-10.86-1.26-33.775-3.41-59.394-3.41-35.694 0-64.615 4.255-83.753 12.41m248.8 9.246c44.342 102.046 108.174 122.565 130.076 126.65-10.444-93.658-107.39-129.23-124.792-134.867a12.9 12.9 0 0 0-5.284 8.217m-61.251 14.039c3.056 7.802 4.976 19.552 5.637 35.28a261 261 0 0 0 34.742-3.902c-5.821-20.397-13.332-31.194-16.742-35.341-10.198 1.26-18.123 2.765-23.637 3.963M169.458 386.016c19.552-15.297 69.115-63.171 93.167-169.9 0-1.26-.599-3.426-3.594-4.624-16.019 11.873-103.366 81.771-89.573 174.524M294.31 269.565c5.76 17.217 9.23 45.539 10.506 56.874 5.928 1.797 13.73 2.764 23.268 2.764 12.549 0 24.959-1.689 31.793-2.826-.599-26.632-9.89-52.25-14.145-62.695-18.907 3.364-39.488 5.1-51.422 5.883m-3.84 150.825c22.317 16.203 48.596 21.426 59.04 22.93 13.977-31.086 15.958-70.082 16.127-87.177a144.4 144.4 0 0 1-31.194 3.18c-16.68 0-31.854-2.29-41.577-4.147 2.995 21.656-.783 53.403-2.396 65.214m-51.299 121.075c13.916 20.227 43.912 33.42 54.893 37.675 32.04-35.28 47.644-84.827 52.682-103.796-28.015-3.18-58.672-19.137-73.923-28.015-5.207 31.194-27.355 80.512-33.652 94.136" style="fill:url(#a);stroke-width:15.359"/></svg>