<svg xmlns="http://www.w3.org/2000/svg" xmlns:xlink="http://www.w3.org/1999/xlink" width="262.34" height="281.484" viewBox="0 0 69.411 74.476"><linearGradient id="a"><stop offset="0" style="stop-color:#8b723c"/><stop offset=".25" style="stop-color:#d2bb7b"/><stop offset=".5" style="stop-color:#ebd491"/><stop offset=".75" style="stop-color:#d2bb7b"/><stop offset="1" style="stop-color:#8b723c"/></linearGradient><linearGradient xlink:href="#a" id="b" x1="363.545" x2="608.324" y1="183.077" y2="183.077" gradientTransform="translate(-93.92 -10.764)scale(.26458)" gradientUnits="userSpaceOnUse"/><path d="m47.886 70.23-1.98-3.541c9.99-4.576 16.836-12.696 20.055-24.043-1.092.096-2.156.21-3.215.248a4.426 4.426 0 0 1 0-8.852c1.43 0 2.74.74 3.785 1.873L68.42 37.8c.678-1.173.902-3.004.952-3.85.276-4.71-.934-9.717-2.7-13.896a35 35 0 0 0-7.486-11.1 35 35 0 0 0-11.1-7.486A35 35 0 0 0 43.766 0v8.364l-5.25 7.805-.135 10.434c-.013 1.024-2.338 1.618-3.678 1.618s-3.664-.594-3.677-1.618l-.134-10.434-5.25-7.805V0a35 35 0 0 0-4.318 1.468 35 35 0 0 0-11.1 7.485 35 35 0 0 0-7.486 11.1C.972 24.234-.238 29.24.04 33.95c.05.847.273 2.678.95 3.85l1.89-1.884c1.045-1.132 2.354-1.872 3.784-1.873a4.426 4.426 0 0 1 0 8.852c-1.06-.037-2.123-.152-3.215-.248 3.22 11.346 10.066 19.466 20.056 24.043l-1.98 3.542c2.927 3.404 8.565 4.244 13.18 4.244s10.254-.84 13.182-4.244"/><path d="M45.941 2.978v5.956l-4.973 7.199c7.735 2.583 11.21 7.838 12.59 13.21-2.818-5.047-6.625-9.681-13.044-10.85 0 0 .056 5.48 0 8.22-.02.97-1.214 3.54-5.81 3.54-4.595 0-5.79-2.57-5.81-3.54-.055-2.74 0-8.22 0-8.22-6.419 1.169-10.225 5.803-13.042 10.849 1.38-5.371 4.853-10.626 12.59-13.21l-4.974-7.198V2.978c-10.78 4.87-20.86 12.508-21.202 30.495a6.53 6.53 0 0 1 4.358-1.677 6.532 6.532 0 1 1 0 13.063 7 7 0 0 1-.247-.013c2.906 7.586 7.921 14.659 16.847 19.485-1.208-8.223-5.797-12.39-9.303-17.015 5.117 2.125 15.086 14.799 10.396 22.47.49.63 6.837 2.586 10.387 2.586s9.898-1.955 10.388-2.586c-4.69-7.671 5.28-20.345 10.396-22.47-3.506 4.626-8.095 8.792-9.304 17.015 8.927-4.826 13.942-11.9 16.847-19.485q-.123.009-.247.013a6.532 6.532 0 1 1 0-13.063c1.61.003 3.162.6 4.36 1.677-.34-17.987-10.422-25.626-21.203-30.495M23.154 34.37c3.3-.01 6.953 1.359 7.81 2.95.292.544-.737 3.36-.963 4.375-.83-.91-2.408-1.07-2.877-.965-.48.108-2.586.739-3.873.534-1.12-.18-2.3-.646-3.06-1.49-.968-1.076-2.264-3.407-1.476-4.085 1.08-.93 2.71-1.313 4.44-1.32m23.1 0c1.728.007 3.36.39 4.44 1.32.787.678-.509 3.009-1.478 4.086-.758.843-1.94 1.31-3.06 1.488-1.286.205-3.392-.425-3.872-.533-.47-.106-2.047.055-2.878.965-.225-1.013-1.254-3.831-.962-4.374.857-1.592 4.511-2.961 7.81-2.951M30.16 49.994a4 4 0 0 1 1.227.276c.173.08.565.427 1.378.91.355.213.56.489.877.677.412.243.698.264 1.062.264s.65-.02 1.062-.264c.32-.188.523-.464.878-.675.813-.485 1.204-.832 1.377-.911a4 4 0 0 1 1.227-.276c.17-.006.331.01.465.058.156.056.321.153.45.278a.7.7 0 0 1 .233.444c.014.208-.078.412-.22.589-.14.177-.33.327-.512.43-.747.42-1.74-.04-2.562.198-.415.12-.736.47-1.148.603-.346.112-.83.162-1.25.162s-.903-.05-1.25-.162c-.41-.132-.732-.484-1.147-.603-.823-.238-1.815.222-2.562-.198a1.8 1.8 0 0 1-.513-.43c-.14-.177-.233-.38-.219-.59a.7.7 0 0 1 .233-.443c.13-.125.294-.222.45-.278a1.3 1.3 0 0 1 .464-.06m4.544 8.553c2.084 0 4.98.172 6.203.654l-1.732 2.443a28 28 0 0 1-4.47.34 28 28 0 0 1-4.47-.34L28.501 59.2c1.223-.482 4.12-.654 6.202-.654" style="fill:url(#b);stroke-width:.264583"/></svg>