<?xml version="1.0" encoding="UTF-8" standalone="no"?>
<svg
   version="1.1"
   id="Layer_1"
   x="0px"
   y="0px"
   width="299.60632"
   height="261.94901"
   viewBox="-144.341 -145.052 299.60633 261.949"
   xmlns="http://www.w3.org/2000/svg"
   xmlns:svg="http://www.w3.org/2000/svg">
  <defs
     id="defs2" />
  <path
     fill="#ffffff"
     d="m 154.31244,-9.604 c -4.807,-35.311 -34.843,-57.824 -52.368,-68.111 l -0.259,-0.13 c -4.137996,-2.249 -13.054996,-7.367 -21.608996,-13.157 7.471,-1.913 13.078,-6.928 15.974,-14.346 3.853,-9.926 -2.224,-20.576 -9.226,-27.245 -8.143,-7.806 -20.448,-12.459 -32.96,-12.459 -12.354,0 -24.503,4.913 -32.567,13.132 -6.204,6.281 -9.538,14.191 -9.384,22.178 0.207,10.107 5.299,17.5 11.037,24.763 3.205,4.11 13.027,10.573 21.739,16.259 4.859,3.153 9.485,6.204 12.175,8.323 -17.991,2.12 -27.193,13.958 -30.062,18.327 -4.344,-9.435 -7.91,-20.912 -12.46,-37.195 -2.042,-7.238 -7.9619999,-28.021 -7.9619999,-28.021 l -0.905,-3.102 -0.956,3.102 c 0,0 -5.919,20.783 -7.936,28.021 -4.575,16.283 -8.1420001,27.76 -12.4840001,37.195 -2.817,-4.369 -12.071,-16.208 -30.062,-18.327 2.688,-2.119 7.341,-5.17 12.174,-8.323 8.686,-5.687 18.534,-12.149 21.739,-16.259 5.7130001,-7.264 10.8820001,-14.656 11.0370001,-24.763 0.15600003,-7.987 -3.179,-15.896 -9.3830001,-22.178 -8.064,-8.219 -20.239,-13.132 -32.569,-13.132 -12.511,0 -24.814,4.653 -32.957,12.459 -7.005,6.669 -13.054,17.319 -9.229,27.245 2.896,7.418 8.504,12.433 15.948,14.346 -8.504,5.79 -17.421,10.908 -21.583,13.157 l -0.258,0.13 c -17.526004,10.288 -47.587004,32.801 -52.343004,68.111 -4.394,32.62 6.436,63.56 31.405,89.461 8.375,8.686 30.786004,28.976 58.366004,30.216 7.987,0.338 17.835,-2.507 29.416,-8.477 2.663,-1.682 20.6260001,1.42 29.0020001,14.14 l 0.671,1.161 0.596,-1.188 C 14.469444,102.992 32.434444,99.89 35.096444,101.569 c 11.58,5.997 21.429,8.814 29.39,8.479 27.582,-1.242 50.018996,-21.506 58.365996,-30.219 24.998,-25.873 35.854,-56.813 31.46,-89.433"
     id="path1" />
  <path
     d="m 145.91344,-8.467 c -4.268,-31.768 -32.054,-52.421 -48.208996,-61.933 0,0 -29.622,-15.897 -40.658,-28.745 -3.077,-3.567 -4.783,-7.573 -4.292,-11.347 0.749,-5.506 9.254,-10.21 16.258,-4.369 8.014,6.695 -2.944,15.147 -2.944,15.147 0,0 16.567,5.531 22.1,-8.711 2.247,-5.816 -2.276,-13.364 -7.16,-18.017 -6.618,-6.332 -16.777,-10.131 -27.143,-10.131 -17.497,0 -33.706,11.967 -33.446,26.675 0.128,6.695 3.05,12.174 9.125,19.516 7.856,9.59 44.742,26.495 68.858,55.988 15.304996,18.637 21.557996,46.786 15.353996,70.18 -5.943,22.28 -25.149996,44.976 -50.608996,45.492 -2.095,0.053 -5.171,0.414 -8.169,-2.275 -3.309,-3.05 -2.74,-10.597 1.914,-17.111 4.29,-5.944 13.646,-11.553 22.799,-15.275 10.646,-4.344 22.796996,-9.952 23.081996,-19.464 0.205,-5.972 -1.656,-9.668 -1.656,-9.668 0,0 -3.281996,7.107 -9.795996,6.746 -3.901,-0.206 -7.729,-1.085 -9.1,-3.515 -4.238,-7.42 11.66,-25.564 3.232,-37.688 -8.323,-11.917 -27.452,-11.554 -30.14,-19.696 -3.801,-11.554 11.53,-14.476 11.53,-14.476 -15.976,-4.239 -26.419,6.023 -30.529,10.21 -7.158,7.29 -2.455,17.268 2.198,20.085 14.94,9.151 18.402,22.617 16.698,28.409 -1.525,4.987 -6.488,8.916 -11.375,8.943 1.655,-4.421 3.645,-14.062 -5.557,-25.41 -15.689,-19.36 -22.617,-32.44 -32.1289999,-68.215 l -0.724,-2.506 -0.672,2.506 c -9.512,35.774 -16.4140001,48.83 -32.1290001,68.215 -9.202,11.348 -7.212,20.989 -5.558,25.41 -4.886,-0.027 -9.848,-3.956 -11.373,-8.919 -1.733,-5.816 1.732,-19.256 16.698,-28.432 4.626,-2.818 9.383,-12.795 2.224,-20.085 -4.137,-4.187 -14.605,-14.423 -30.554,-10.21 0,0 15.329,2.895 11.502,14.449 -2.663,8.169 -21.764,7.806 -30.088,19.723 -8.451,12.123 7.419,30.268 3.206,37.661 -1.37,2.456 -5.195,3.335 -9.072,3.541 -6.54,0.361 -9.849,-6.746 -9.849,-6.746 0,0 -1.835,3.696 -1.654,9.668 0.31,9.512 12.433,15.12 23.057,19.464 9.202,3.747 18.559,9.355 22.824,15.275 4.679,6.488 5.221,14.037 1.939,17.111 -2.973,2.689 -6.074,2.328 -8.195,2.275 -25.435,-0.517 -44.667,-23.212 -50.585004,-45.492 -6.204,-23.421 0.026,-51.542 15.329004,-70.18 24.142,-29.493 61.028,-46.397 68.911,-55.988 6.075,-7.367 8.9690001,-12.847 9.1000001,-19.542 0.258,-14.708 -15.9480001,-26.676 -33.4740001,-26.676 -10.392,0 -20.498,3.8 -27.116,10.133 -4.859,4.653 -9.408,12.226 -7.16,18.042 5.533,14.243 22.101,8.711 22.101,8.711 0,0 -10.96,-8.453 -2.973,-15.147 7.03,-5.842 15.51,-1.137 16.284,4.369 0.491,3.774 -1.188,7.779 -4.29,11.322 -11.038,12.873 -40.661,28.77 -40.661,28.77 -16.181004,9.512 -43.943004,30.165 -48.207004,61.933 -4.032,29.983 6.022,58.469 29.104,82.404 12.874004,13.338 35.362004,29.105 55.006004,27.529 7.91,-0.569 19.128,-3.128 27.865,-11.607 3.49,-3.411 4.989,-7.624 4.549,-12.639 -0.879,-9.177 -8.66,-18.999 -15.536,-23.574 -17.886,-11.865 -21.325,-22.67 -21.48,-28.821 4.265,3.567 14.682,6.593 14.682,6.593 22.462,7.546 27.994,20.058 36.0330001,48.827 l 0.646,2.353 0.749,-2.327 c 4.785,-15.484 7.422,-26.752 0.701,-41.695 -4.834,-10.829 -6.798,-19.826 -6.255,-28.33 0.647,-9.77 7.238,-17.99 14.398,-25.408 7.1589999,7.419 13.7759999,15.638 14.3969999,25.408 0.569,8.53 -1.448,17.552 -6.308,28.33 -6.7199999,14.942 -4.0569999,26.211 0.75,41.694 l 0.697,2.327 0.647,-2.353 c 8.063,-28.77 13.596,-41.281 36.032,-48.827 0,0 10.443,-3.025 14.682,-6.593 -0.155,6.151 -3.566,16.956 -21.454,28.821 -6.849,4.575 -14.63,14.397 -15.509,23.574 -0.491,4.989 1.061,9.229 4.523,12.639 8.736,8.479 20.008,11.038 27.864,11.607 19.645,1.576 42.157996,-14.191 55.031996,-27.529 23.058,-23.934 33.165,-52.419 29.108,-82.403"
     id="path2" />
</svg>
