<?xml version="1.0" encoding="UTF-8" standalone="no"?>
<svg
   version="1.1"
   id="Layer_1"
   x="0px"
   y="0px"
   width="282.66684"
   height="238.17534"
   viewBox="-144.341 -145.052 282.66684 238.17533"
   xmlns="http://www.w3.org/2000/svg"
   xmlns:svg="http://www.w3.org/2000/svg">
  <defs
     id="defs1" />
  <path
     d="m 137.45072,-16.919 c -4.268,-31.768 -32.054,-52.421 -48.208998,-61.933 0,0 -29.622,-15.897 -40.658,-28.745 -3.077,-3.567 -4.783,-7.573 -4.292,-11.347 0.749,-5.506 9.254,-10.21 16.258,-4.369 8.014,6.695 -2.944,15.147 -2.944,15.147 0,0 16.567,5.531 22.1,-8.711 2.247,-5.816 -2.276,-13.364 -7.16,-18.017 -6.618,-6.332 -16.777,-10.131 -27.143,-10.131 -17.497,0 -33.706,11.967 -33.446,26.675 0.128,6.695 3.05,12.174 9.125,19.516 7.856,9.59 44.742,26.495 68.858,55.988 15.304998,18.637 21.557998,46.786 15.353998,70.18 -5.942998,22.28 -25.149998,44.976 -50.608998,45.492 -2.095,0.053 -5.171,0.414 -8.169,-2.275 -3.309,-3.05 -2.74,-10.597 1.914,-17.111 4.29,-5.944 13.646,-11.553 22.799,-15.275 10.646,-4.344 22.797,-9.952 23.082,-19.464 0.205,-5.972 -1.656,-9.668 -1.656,-9.668 0,0 -3.282,7.107 -9.796,6.746 -3.901,-0.206 -7.729,-1.085 -9.1,-3.515 -4.238,-7.42 11.66,-25.564 3.232,-37.688 -8.323,-11.917 -27.452,-11.554 -30.14,-19.696 -3.801,-11.554 11.53,-14.476 11.53,-14.476 -15.976,-4.239 -26.419,6.023 -30.529,10.21 -7.158,7.29 -2.455,17.268 2.198,20.085 14.94,9.151 18.402,22.617 16.698,28.409 -1.525,4.987 -6.488,8.916 -11.375,8.943 1.655,-4.421 3.645,-14.062 -5.557,-25.41 -15.689,-19.36 -22.6170003,-32.44 -32.1290003,-68.215 l -0.724,-2.506 -0.672,2.506 c -9.5119997,35.774 -16.4139997,48.83 -32.1289997,68.215 -9.202,11.348 -7.212,20.989 -5.558,25.41 -4.886,-0.027 -9.848,-3.956 -11.373,-8.919 -1.733,-5.816 1.732,-19.256 16.698,-28.432 4.626,-2.818 9.383,-12.795 2.224,-20.085 -4.137,-4.187 -14.605,-14.423 -30.554,-10.21 0,0 15.329,2.895 11.502,14.449 -2.663,8.169 -21.764,7.806 -30.088,19.723 -8.451,12.123 7.419,30.268 3.206,37.661 -1.37,2.456 -5.195,3.335 -9.072,3.541 -6.54,0.361 -9.849,-6.746 -9.849,-6.746 0,0 -1.835002,3.696 -1.654002,9.668 0.31,9.512 12.433002,15.12 23.057002,19.464 9.202,3.747 18.559,9.355 22.824,15.275 4.679,6.488 5.221,14.037 1.939,17.111 -2.973,2.689 -6.074,2.328 -8.195,2.275 -25.435,-0.517 -44.667002,-23.212 -50.585002,-45.492 -6.204,-23.421 0.026,-51.542 15.329002,-70.18 24.142,-29.493 61.028,-46.397 68.911,-55.988 6.075,-7.367 8.969,-12.847 9.1,-19.542 0.258,-14.708 -15.948,-26.676 -33.474,-26.676 -10.392,0 -20.498,3.8 -27.116,10.133 -4.859,4.653 -9.408,12.226 -7.16,18.042 5.533,14.243 22.101,8.711 22.101,8.711 0,0 -10.96,-8.453 -2.973,-15.147 7.03,-5.842 15.51,-1.137 16.284,4.369 0.491,3.774 -1.188,7.779 -4.29,11.322 -11.038,12.873 -40.661,28.77 -40.661,28.77 -16.181002,9.512 -43.943002,30.165 -48.207002,61.933 -4.032,29.983 6.022,58.469 29.104,82.404 12.874,13.338 35.362002,29.105 55.006002,27.529 7.91,-0.569 19.128,-3.128 27.865,-11.607 3.49,-3.411 4.989,-7.624 4.549,-12.639 -0.879,-9.177 -8.66,-18.999 -15.536,-23.574 -17.886,-11.865 -21.325,-22.67 -21.48,-28.821 4.265,3.567 14.682,6.593 14.682,6.593 22.462,7.546 27.994,20.058 36.033,48.827 l 0.646,2.353 0.749,-2.327 c 4.7849997,-15.484 7.4219997,-26.752 0.701,-41.695 -4.834,-10.829 -6.798,-19.826 -6.255,-28.33 0.647,-9.77 7.238,-17.99 14.3979997,-25.408 7.159,7.419 13.7760003,15.638 14.3970003,25.408 0.569,8.53 -1.4480003,17.552 -6.3080003,28.33 -6.72,14.942 -4.057,26.211 0.75,41.694 l 0.697,2.327 0.647,-2.353 C 15.235722,43.022 20.768722,30.511 43.204722,22.965 c 0,0 10.443,-3.025 14.682,-6.593 -0.155,6.151 -3.566,16.956 -21.454,28.821 -6.849,4.575 -14.63,14.397 -15.509,23.574 -0.491,4.989 1.061,9.229 4.523,12.639 8.736,8.479 20.008,11.038 27.864,11.607 19.645,1.576 42.158,-14.191 55.031998,-27.529 23.058,-23.934 33.165,-52.419 29.108,-82.403"
     id="path1" />
</svg>
