<?xml version="1.0" encoding="UTF-8"?><svg id="Layer_2" xmlns="http://www.w3.org/2000/svg" width="229.88506" height="400" viewBox="0 0 229.88506 400"><defs><style>.cls-1{fill:#fff;}.cls-2{stroke:#000;stroke-miterlimit:10;}</style></defs><g id="Layer_1_copy"><path class="cls-2" d="M221.45594,72.79693v318.77395H9.1954V72.79693h212.26054ZM95.01916,107.27969h-57.47126v249.04215h45.21073v-114.17625l20.39464,114.22207,23.9706-.1277,19.23629-111.79551v111.87739h45.97701V107.27969h-57.47126l-20.30647,124.91198-19.54027-124.91198ZM64.36782,65.1341h140.99617v-17.62452l-140.99617,17.62452ZM177.01149,27.58621l-115.71657,30.26816,115.71657-13.40992v-16.85824ZM148.659,13.02682L55.16461,50.95777l93.49439-23.37157v-14.55939Z"/><path class="cls-1" d="M157.85441,0l.00412,22.98586,28.34837-6.89391v23.75479l28.35249-3.06513v26.81992h15.32567v336.39847H0V62.83525L155.55556,0h2.29885ZM148.659,27.58621v-14.55939L55.16461,50.95777l93.49439-23.37157ZM177.01149,44.44444v-16.85824l-115.71657,30.26816,115.71657-13.40992ZM205.36398,47.50958l-140.99617,17.62452h140.99617v-17.62452ZM221.45594,72.79693H9.1954v318.77395h212.26054V72.79693ZM37.54789,107.27969v249.04215h45.21073v-114.17625l20.39464,114.22207,23.9706-.1277,19.23629-111.79551v111.87739h45.97701V107.27969h-57.47126l-20.30647,124.91198-19.54027-124.91198h-57.47126Z"/></g></svg>