<svg xmlns="http://www.w3.org/2000/svg" width="359.37" height="403.01" data-name="Layer 2" viewBox="0 0 359.37 403.01"><defs><linearGradient id="a" x1="-8.28" x2="367.65" y1="206.79" y2="206.79" gradientTransform="matrix(1 0 0 -1 0 406)" gradientUnits="userSpaceOnUse"><stop offset=".1" stop-color="#612c75"/><stop offset=".3" stop-color="#7b5190"/><stop offset=".5" stop-color="#bf99c3"/><stop offset=".7" stop-color="#7b5190"/><stop offset=".9" stop-color="#612c75"/></linearGradient></defs><path d="m307.93 216.45 30.32-42.89-32.54-28.36 49.36-55.75L255.12 0l-49.53 56.01-25.9-22.97-25.91 22.97L104.26 0 4.3 89.45l49.36 55.75-32.54 28.36 30.32 42.89L0 264.75l90.21 95.84 37.3-33.36 52.17 75.78 52.31-75.78 37.35 33.36 90.03-95.84zm-128.25 18.77-31.56-46.07 31.57-29.35 31.52 29.35z" style="fill:#fff;stroke-width:0"/><path d="m255.9 22.8 77.03 67.89-39.66 44.93-76.85-68.57zm-152.43 0 39.48 44.25-76.85 68.57-39.66-44.93Zm76.21 31.91 132.79 118.26-84.08 10.64-48.71-43.87-48.7 43.87-84.08-10.64Zm133.29 125.62L179.68 375.62 46.4 180.33l83 9.69 50.28 73.38 50.29-73.38zm-14.75 49.76 38.1 35.22-68.36 73.94-27.59-25.11zm-237.07 0L119 314.14l-27.59 25.11-68.36-73.94z" style="fill:url(#a);stroke-width:0"/></svg>