<svg xmlns="http://www.w3.org/2000/svg" width="359.38" height="403" data-name="Layer 2" viewBox="0 0 359.38 403"><defs><linearGradient id="a" x1="-8.28" x2="367.65" y1="206.79" y2="206.79" gradientTransform="matrix(1 0 0 -1 0 406)" gradientUnits="userSpaceOnUse"><stop offset=".1" stop-color="#536e78"/><stop offset=".3" stop-color="#99aebc"/><stop offset=".5" stop-color="#d9eaf3"/><stop offset=".7" stop-color="#99aebc"/><stop offset=".9" stop-color="#536e78"/></linearGradient></defs><g data-name="Layer 1"><path d="m307.93 216.45 30.32-42.9-32.54-28.36 49.36-55.75L255.12 0l-49.54 56.01-25.9-22.97-25.9 22.97L104.26 0 4.3 89.45l49.36 55.75-32.54 28.36 30.32 42.9L0 264.75l90.21 95.83 37.3-33.36L179.69 403l52.3-75.78 37.36 33.36 90.03-95.83-51.44-48.3zm-128.24 18.76-31.56-46.07 31.56-29.35 31.53 29.35z" style="stroke-width:0"/><path d="m255.9 22.8 77.03 67.89-39.66 44.93-76.85-68.57zm-152.42 0 39.48 44.25-76.85 68.57-39.66-44.93 77.02-67.89Zm76.21 31.91 132.79 118.26-84.08 10.65-48.71-43.88-48.71 43.88-84.08-10.65L179.68 54.71Zm133.29 125.62-133.29 195.3-133.3-195.3 83 9.69 50.29 73.39 50.29-73.39 83-9.69zm-14.75 49.77 38.1 35.22-68.36 73.94-27.59-25.11 57.86-84.04zm-237.08 0 57.86 84.04-27.59 25.11-68.36-73.94 38.1-35.22z" style="fill:url(#a);stroke-width:0"/></g></svg>