<svg xmlns="http://www.w3.org/2000/svg" width="530.903" height="628.304"><path d="m18.155 2.02-5.066.484 61.333 175.268S97.195 78.69 98.544 72.95c16.479 0 41.81.208 69.771 2.767.33 5.879 12.9 464.641 12.9 464.641l20.802-2.023s9.25-143.26 9.735-150.09h65.984l9.926-37.42h-76.049v-37.747h74.095l-74.095-35.88V81.803c59.777 10.929 107.934 32.284 142.984 63.754 47.621 42.762 71.812 104.493 71.812 183.585 0 66.815-19.799 120.246-58.843 158.598-43.09 42.416-102.331 59.034-144.47 65.518-23.984 3.648-44.994 4.461-58.498 4.6 0 0-14.525-.467-19.99-.674v-427.5s-23.706 148.466-24.865 154.207c-47.81.673-53.361 16.824-53.828 18.64l-1.764 8.179h51.685l-5.81 40.116H68.82l-12.433 37.42h48.088c-1.608 8.645-29.776 165.013-30.796 170.892-33.77 1.28-56.388-1.349-56.665-1.418l-3.648-.397-.743 3.58L0 624.188l4.254.536c.744.069 73.817 8.11 164.062-.139 83.484-7.625 199.182-31.263 276.388-100.239 57.15-50.993 86.199-120.02 86.199-205.06 0-86.666-29.327-157.32-87.132-209.99C368.172 40.392 256.468 14.869 176.01 5.6 89.086-4.325 18.83 1.952 18.156 2.02"/></svg>