<svg xmlns="http://www.w3.org/2000/svg" width="355.897" height="300"><path fill="#fff" d="m47.99 300-6.125-7.222C14.489 260.512 0 220.727 0 177.971 0 79.845 79.845.023 177.926 0c98.126.023 177.971 79.845 177.971 177.971 0 40.471-13.209 78.542-38.072 110.123l-5.895 7.404-3.383-8.821c-3.656-9.483-8.454-18.669-14.305-27.171l-1.281-1.987 12.387-55.211c-11.654 12.18-24.086 22.234-29.708 28.017l-3.473 3.588-3.839-3.153c-3.566-2.949-7.039-5.6-10.33-7.793l-2.422-1.646v-2.879c0-17.346 2.697-51.303 6.811-77.536-13.437 20.178-30.348 44.08-40.768 60.351l-2.104 3.269-3.793-.982c-3.382-.914-6.9-1.715-10.421-2.354l-7.22-1.279-.869-3.428c-5.713-23.926-13.574-60.17-18.693-88.528-5.483 28.222-13.985 64.26-19.835 88.551l-.822 3.405-3.428.594c-4.799.868-9.461 1.966-13.848 3.314l-3.885 1.119-2.148-3.405c-9.918-15.471-26.097-43.121-38.985-66.133 3.337 30.438 5.073 71.572 4.753 86.037l-.045 2.514-1.92 1.554c-3.244 2.56-5.896 4.914-8.318 7.153l-3.793 3.656-3.702-3.725c-6.49-6.445-18.83-20.316-30.576-35.97l12.66 66.294-1.097 1.896a134.6 134.6 0 0 0-12.432 26.279z"/><path d="M10.787 177.971c-.046 37.089 11.562 71.686 33.546 100.662a137.6 137.6 0 0 1 8.821-17.596L30.805 149.999l14.944 20.271c.366.479 27.605 35.604 40.951 50.937.868-.868 1.875-1.646 2.833-2.468-.274-24.863-7.541-107.86-7.632-108.798l-3.246-27.126 13.3 23.927c.366.662 33.044 59.187 49.452 85.649 2.514-.709 5.027-1.28 7.586-1.783 9.416-39.67 24.406-112.546 24.498-113.414l5.621-29.433 4.937 29.57c.182.822 13.711 74.132 22.852 113.231l.32.045c2.559.457 5.027.96 7.449 1.6 17.688-27.444 52.057-77.308 52.467-77.925l13.986-20.909-4.251 24.794c-.045.822-9.599 69.47-10.421 97.532a194 194 0 0 1 4.892 3.633c12.796-13.413 40.31-39.213 40.31-39.213l14.169-14.671-21.298 90.082a133 133 0 0 1 10.328 18.51c19.836-28.108 30.303-61.175 30.303-96.001 0-92.229-75.092-167.276-167.23-167.298-6.947.022-13.803.434-20.521 1.256C74.863 22.121 10.741 92.71 10.787 177.971"/></svg>