<svg xmlns="http://www.w3.org/2000/svg" width="355.895" height="300"><g transform="translate(-.053)"><path fill="#fff" d="m48.041 300-6.123-7.222C14.541 260.512.053 220.727.053 177.971.053 79.845 79.896.023 177.977 0c98.127.023 177.971 79.845 177.971 177.971 0 40.471-13.207 78.542-38.07 110.123l-5.896 7.404-3.383-8.821c-3.656-9.483-8.453-18.669-14.303-27.171l-1.281-1.987 12.385-55.211c-11.652 12.18-24.086 22.234-29.707 28.017l-3.473 3.588-3.838-3.153c-3.566-2.949-7.039-5.6-10.332-7.793l-2.422-1.646v-2.879c0-17.346 2.697-51.303 6.813-77.536-13.438 20.178-30.348 44.08-40.77 60.351l-2.102 3.269-3.795-.982a127 127 0 0 0-10.42-2.354l-7.221-1.279-.869-3.428c-5.713-23.926-13.572-60.17-18.693-88.528-5.482 28.222-13.984 64.26-19.834 88.551l-.822 3.405-3.428.594c-4.801.868-9.461 1.966-13.848 3.314l-3.887 1.119-2.148-3.405c-9.918-15.471-26.096-43.121-38.984-66.133 3.336 30.438 5.072 71.572 4.752 86.037l-.045 2.514-1.92 1.554c-3.244 2.56-5.895 4.914-8.316 7.153l-3.795 3.656-3.701-3.725c-6.49-6.445-18.83-20.316-30.576-35.97l12.66 66.294-1.096 1.896a134.5 134.5 0 0 0-12.432 26.279z"/><linearGradient id="a" x1="36.515" x2="326.17" y1="88.682" y2="255.915" gradientUnits="userSpaceOnUse"><stop offset=".1" style="stop-color:#612c75"/><stop offset=".5" style="stop-color:#bf99c3"/><stop offset=".9" style="stop-color:#612c75"/></linearGradient><path fill="url(#a)" d="M10.84 177.971c-.047 37.089 11.56 71.685 33.545 100.662a137.4 137.4 0 0 1 8.822-17.596l-22.35-111.038L45.8 170.27c.367.479 27.605 35.604 40.951 50.937.869-.868 1.875-1.646 2.834-2.468-.273-24.863-7.541-107.86-7.633-108.798l-3.244-27.126 13.299 23.927c.367.662 33.045 59.187 49.453 85.649 2.514-.709 5.027-1.28 7.586-1.783 9.416-39.67 24.406-112.546 24.498-113.414l5.621-29.433 4.936 29.57c.184.822 13.711 74.132 22.852 113.231l.32.045c2.561.457 5.027.96 7.449 1.6 17.688-27.444 52.059-77.308 52.469-77.925l13.984-20.909-4.25 24.794c-.045.822-9.598 69.47-10.42 97.532a192 192 0 0 1 4.891 3.633c12.795-13.413 40.309-39.213 40.309-39.213l14.17-14.671-21.299 90.082a133.5 133.5 0 0 1 10.33 18.51c19.834-28.108 30.303-61.175 30.303-96.001 0-92.229-75.092-167.276-167.232-167.298-6.945.022-13.803.434-20.52 1.256C74.914 22.121 10.793 92.71 10.84 177.971" style="fill:url(#a)"/></g></svg>