<?xml version="1.0" encoding="UTF-8" standalone="no"?>
<svg
   id="Ebene_1"
   data-name="Ebene 1"
   viewBox="0 0 867.51699 994.95636"
   version="1.1"
   width="867.51697"
   height="994.95636"
   xmlns="http://www.w3.org/2000/svg"
   xmlns:svg="http://www.w3.org/2000/svg">
  <defs
     id="defs16">
    <style
       id="style1">
      .cls-1 {
        fill: url(#Uncommon);
      }

      .cls-1, .cls-2 {
        stroke-width: 0px;
      }

      .cls-3 {
        stroke: #000000;
        stroke-miterlimit: 10;
      }

      .cls-3, .cls-2 {
        fill: #000000;
      }
    </style>
    <linearGradient
       id="Uncommon"
       x1="7.8600001"
       y1="497.67001"
       x2="859.89001"
       y2="497.67001"
       gradientUnits="userSpaceOnUse">
      <stop
         offset="0"
         stop-color="#636f78"
         id="stop1" />
      <stop
         offset=".04"
         stop-color="#697780"
         id="stop2" />
      <stop
         offset=".11"
         stop-color="#7d8e98"
         id="stop3" />
      <stop
         offset=".2"
         stop-color="#9fb5c1"
         id="stop4" />
      <stop
         offset=".2"
         stop-color="#a1b8c4"
         id="stop5" />
      <stop
         offset=".29"
         stop-color="#aec7d5"
         id="stop6" />
      <stop
         offset=".38"
         stop-color="#b5cede"
         id="stop7" />
      <stop
         offset=".5"
         stop-color="#b7d1e1"
         id="stop8" />
      <stop
         offset=".62"
         stop-color="#b5cede"
         id="stop9" />
      <stop
         offset=".71"
         stop-color="#aec7d5"
         id="stop10" />
      <stop
         offset=".8"
         stop-color="#a1b8c4"
         id="stop11" />
      <stop
         offset=".8"
         stop-color="#a1b7c3"
         id="stop12" />
      <stop
         offset=".85"
         stop-color="#8c9ea9"
         id="stop13" />
      <stop
         offset=".91"
         stop-color="#75838d"
         id="stop14" />
      <stop
         offset=".96"
         stop-color="#68747d"
         id="stop15" />
      <stop
         offset="1"
         stop-color="#636f78"
         id="stop16" />
    </linearGradient>
  </defs>
  <polygon
     class="cls-3"
     points="65.89,375.69 65.89,583.42 153.56,741.61 338.42,840.71 508.04,840.71 689.1,735.89 826.32,571.99 807.26,369.97 683.38,236.56 433.84,166.04 161.18,244.18 "
     id="polygon16"
     transform="translate(0,0.00260193)" />
  <g
     id="g17"
     transform="translate(0,0.00260193)">
    <path
       class="cls-1"
       d="m 249.05,7.77 c 11.43,0 22.87,0 34.3,0 1.08,0 2.07,0.58 2.59,1.52 0.37,0.69 0.78,1.31 1.34,1.56 80.94,35.45 125.65,126.04 104.5,211.4 -14.3,57.73 -44.59,106.16 -85.35,148.81 -4.5,4.71 -10.11,12.13 -9.34,17.46 3.71,25.88 39.76,43.43 61.73,28.9 8.03,-5.31 11.56,-17.4 16.54,-27.29 0.78,-1.55 0.09,-3.42 -1.52,-4.07 -7.51,-3.02 -15.14,-6.09 -23.78,-9.56 -1.5,-0.6 -2.24,-2.3 -1.66,-3.8 3.13,-8.11 11.65,-14.9 24.82,-13.62 17.02,1.65 23.84,14.38 24.54,29.94 1.08,23.88 -17.21,49.56 -40.19,57.96 -30.86,11.28 -64.35,-1.05 -89.45,-32.79 -0.94,-1.18 -2.64,-1.47 -3.91,-0.64 -38.95,25.57 -48.26,123.2 -23.96,154.2 10.26,13.09 25.48,24.05 40.73,31.05 17.89,8.22 38.35,-5.84 40.89,-24.43 1.86,-13.55 0.44,-28.32 -13.5,-32.63 -10.18,-3.15 -22.31,-0.02 -34.06,1.14 -1.85,0.18 -3.39,-1.37 -3.23,-3.22 1.18,-13.09 8.02,-27.62 26.4,-33.55 21.31,-6.88 42.46,-3.5 57.87,13.4 24.45,26.81 24.8,58.53 12.61,90.74 C 357,639.21 327.61,658.41 297.17,658.21 240.6,657.84 184.44,600.8 183.3,541.92 c -0.58,-29.58 -0.12,-59.17 -0.1,-90.81 0,-1.06 -0.58,-2.04 -1.5,-2.57 -34.28,-19.6 -44.77,-47.83 -27.08,-80.69 9.87,-18.34 27.49,-27.08 44.13,-22.75 2.56,0.67 2.98,4.15 0.66,5.42 -18.93,10.34 -26.28,24.32 -19.8,38.31 4.86,10.49 27.93,16.13 41.99,6.77 33.41,-22.24 64.73,-47.41 77.54,-87.81 9.59,-30.25 -14.41,-63.82 -46.11,-64.06 -44.19,-0.33 -80.83,18.5 -107.12,52.61 C 92.53,365.58 77,444.78 95.82,529.32 c 22.19,99.68 86.91,166.86 174.53,214.02 54.27,29.21 113.15,47.67 174.52,43.58 82.46,-5.49 156.19,-36.88 221.61,-89.11 112.41,-89.74 145.4,-249.46 75,-373.2 -23.62,-41.51 -57.22,-69.66 -104.51,-79.55 -22.09,-4.62 -43.46,-3.21 -58.65,17.17 -14.36,19.28 -17.69,41.32 -3.42,60.06 18.58,24.4 40.07,47.07 62.92,67.59 15.93,14.31 42.63,12.11 49.56,0.45 7.95,-13.39 0.33,-28.74 -19.29,-39.94 -2.32,-1.33 -1.79,-4.83 0.82,-5.42 18.04,-4.06 35.9,5.58 45.41,25.3 15.71,32.59 5.45,58.22 -28.24,78.33 -0.89,0.53 -1.45,1.5 -1.45,2.54 0,30.12 0.25,57.78 -0.06,85.43 -0.51,46.19 -28.6,89.65 -69.15,110.09 -74.78,37.68 -131.04,1.52 -123.29,-81.67 2.52,-27.09 17.73,-49.82 41.28,-58.44 32.98,-12.07 61.37,5.23 60.24,35.13 -0.08,2.23 -2.59,3.51 -4.5,2.34 -18.51,-11.22 -36.74,-7.58 -41.35,10.83 -2.62,10.46 -1.02,26.48 5.6,33.5 7.14,7.58 23.26,12.09 33.87,9.99 24.84,-4.93 41.85,-22.64 48.06,-47.09 9.92,-39.04 6.85,-77.66 -12.21,-113.78 -4.57,-8.66 -11.68,-15.98 -17.79,-23.42 -1.14,-1.39 -3.25,-1.44 -4.46,-0.12 -6.99,7.64 -12.27,14.63 -19.06,19.51 -22.43,16.13 -47.44,23.63 -74.17,12.66 -22.45,-9.22 -33.99,-28 -37.14,-51.75 -2.42,-18.3 6.62,-32.91 22.74,-34.95 14.39,-1.82 22.72,5.31 26.05,14.36 0.58,1.59 -0.27,3.34 -1.88,3.85 -8.16,2.57 -15.49,4.89 -22.73,7.17 -1.62,0.51 -2.46,2.27 -1.86,3.86 3.68,9.7 5.81,21.28 12.78,26.98 19.01,15.55 48.19,5.68 61.8,-17.91 5.31,-9.19 4.94,-15.26 -2.67,-24.43 C 542.84,346.91 520.42,320.35 503.09,290.99 475.81,244.76 461.73,194.21 475.15,140.07 490.1,79.72 524.24,34.07 582.1,8 c 0.39,-0.17 0.81,-0.26 1.23,-0.26 11.7,0 23.4,0 35.1,0 0.64,0 1.25,0.2 1.76,0.58 1.74,1.28 3.4,2.78 5.35,3.47 42.6,14.93 62.79,51.64 50.01,94.27 -1.69,5.62 -9.67,9.37 -15.8,13.67 -1.28,0.9 -3.04,0.61 -4,-0.62 -4.24,-5.44 -9.16,-10.64 -11.43,-16.81 -2.2,-5.96 -0.91,-13.42 -0.29,-20.14 1.62,-17.41 -5.47,-29.5 -22.56,-33.07 -17.43,-3.64 -31.82,1.66 -40.33,19.05 -11.98,24.47 -8.76,56.51 14.68,75.64 33.28,27.14 68.62,52.3 105.33,74.61 68.81,41.81 117.8,98.11 140.28,175.96 6.54,22.66 12.27,45.56 18.36,68.36 0.07,0.25 0.1,0.5 0.1,0.75 v 80.53 c 0,0.27 -0.03,0.53 -0.1,0.79 -2.68,9.85 -6.11,19.57 -7.84,29.59 C 836.84,661.94 799.16,738.54 739.73,804.5 678,873 599.91,917.58 516.84,954.62 c -25.43,11.34 -51.19,21.95 -76.79,32.9 -4.76,-0.24 -8.79,-0.44 -13.55,-0.68 -4.61,-2.59 -9.12,-5.41 -13.94,-7.55 C 369.63,960.23 325.48,943.53 283.88,921.94 162.55,858.99 72.42,767.5 30.43,634.66 21.52,606.49 15.36,577.45 7.95,548.81 c -0.06,-0.24 -0.09,-0.48 -0.09,-0.73 0,-27.91 0,-55.83 0,-83.74 0,-0.85 0.37,-1.67 1.02,-2.23 1.17,-1.02 2.49,-2.02 2.64,-3.17 15.6,-115.07 73.33,-199.8 177.82,-253.82 30.13,-15.58 56.98,-38.64 82.68,-61.27 23.74,-20.91 27,-55.3 12.5,-79.33 -9.57,-15.86 -24.18,-19.11 -40.42,-14.88 -14.95,3.9 -21.81,14.74 -20.45,30.61 0.69,8.07 2,16.8 -0.3,24.21 -1.99,6.41 -8.53,15.7 -13.33,15.86 -5.84,0.2 -15.17,-6.6 -17.43,-12.49 -11.77,-30.72 0.39,-67.52 27.71,-86.14 8.38,-5.71 18.26,-9.22 27.51,-13.66 0.39,-0.19 0.83,-0.29 1.26,-0.29 z"
       id="path16"
       style="fill:url(#Uncommon)" />
    <path
       class="cls-2"
       d="m 249.05,15.27 c 6.99,0 13.97,0 20.96,0 2.82,0 6.89,0.78 9.53,0 h 1.91 c -1.78,-1.75 -1.85,-1.66 -0.21,0.27 1.09,1.02 2.28,1.69 3.59,2.37 9.33,4.91 18.65,9.32 27.42,15.27 16.2,10.99 30.69,24.92 42.27,40.71 23.65,32.25 36.3,71.8 34.89,111.83 -1.58,44.59 -20.83,88.82 -44.85,125.76 -12.71,19.55 -27.58,37.21 -43.41,54.27 -7.76,8.36 -13.76,17.62 -10.27,29.3 2.49,8.34 7.7,15.9 14.31,21.51 15.3,13 39.63,19.19 57.44,7.33 10.05,-6.69 14.62,-19.35 19.23,-29.98 3.27,-7.51 -0.6,-12.88 -7.62,-15.73 -3.28,-1.33 -6.57,-2.64 -9.86,-3.96 -1.71,-0.69 -3.42,-1.38 -5.14,-2.06 -1.18,-0.47 -2.36,-0.95 -3.54,-1.42 -2.37,-1.28 -2.45,-0.91 -0.26,1.12 v 3.99 c 1.65,-9.61 15.26,-10.72 22.47,-8.17 8.02,2.84 11.33,10.79 12.17,18.71 2.28,21.36 -12.36,42.67 -31.08,51.89 -18.72,9.22 -41.31,5.65 -58.76,-4.92 -4.73,-2.86 -9.12,-6.17 -13.22,-9.87 -5.11,-4.61 -9.09,-10.23 -14.01,-14.95 -8.12,-7.79 -18.21,2 -23.75,8.12 -11.47,12.68 -18.45,29.04 -22.99,45.34 -4.95,17.78 -7.26,36.57 -6.84,55.02 0.37,16.09 2.59,32.99 9.95,47.51 4.49,8.87 11.88,16.37 19.43,22.68 9.55,7.97 20.83,15.88 32.75,19.87 11.81,3.95 24.71,0.4 34.09,-7.38 9.38,-7.78 13.84,-19.57 14.33,-31.91 0.46,-11.52 -2.65,-23.9 -13.03,-30.34 -6.04,-3.75 -13.53,-4.72 -20.51,-4.53 -3.67,0.1 -7.32,0.57 -10.96,1.05 -3.98,0.53 -8.48,1.77 -12.48,1.26 l 3.79,1.02 0.94,0.95 1.02,3.79 c -1.04,-7.81 4.48,-17.18 10.24,-21.99 7.98,-6.66 19.88,-8.95 30.03,-8.69 23.61,0.59 40.95,21.2 46.88,42.68 5.8,20.99 1.14,46.62 -10.1,65.12 -10.65,17.54 -29.76,29.7 -50.12,32.19 -42.39,5.17 -83.01,-26.83 -102.14,-62.27 -5.01,-9.28 -8.71,-19.19 -10.88,-29.52 -2.42,-11.51 -2.03,-23.35 -2.11,-35.05 -0.1,-14.08 -0.04,-28.15 0.03,-42.23 0.03,-6.75 0.07,-13.5 0.09,-20.26 0.02,-6.76 1.36,-14.42 -5.2,-18.87 -9.73,-6.59 -19.25,-12.53 -25.6,-22.79 -5.02,-8.11 -7.16,-17.49 -5.9,-26.98 1.49,-11.24 6.85,-23.28 14.92,-31.29 3.59,-3.56 7.89,-6.47 12.71,-8.06 2.23,-0.74 4.51,-1.24 6.86,-1.38 1.28,-0.08 2.58,-0.08 3.86,0.02 0.63,0.02 1.25,0.08 1.87,0.2 1.69,0.58 1.74,0.29 0.15,-0.87 l -1.02,-3.79 0.75,-2.2 c -0.75,0.43 -1.49,0.87 -2.22,1.34 -1.17,0.73 -2.32,1.49 -3.44,2.3 -1.98,1.42 -3.92,2.93 -5.74,4.55 -3.46,3.08 -6.64,6.79 -8.87,10.87 -4.08,7.49 -5.23,16.38 -2.38,24.51 5.81,16.53 26.27,21.64 41.97,18.42 9.33,-1.91 16.95,-8.05 24.54,-13.45 7.59,-5.4 15.64,-11.51 22.97,-17.86 14.76,-12.78 27.96,-27.84 36.95,-45.26 8.99,-17.42 14.25,-34.95 8.2,-53.52 -5.44,-16.68 -17.99,-30.49 -34.34,-36.97 -17.34,-6.87 -39.09,-3.6 -56.65,0.97 -18.33,4.78 -35.22,13.53 -50.03,25.27 -16,12.68 -28.47,29.11 -39.57,46.11 -11.75,18.01 -21.44,37.35 -28.81,57.55 -14.26,39.1 -18.71,81.41 -14.4,122.73 4.13,39.63 15.14,78.53 33.64,113.88 16.75,32 39.67,60.65 66.4,84.87 28.09,25.46 60.16,46.45 93.89,63.62 40.93,20.84 85.12,35.74 131.11,39.32 43.54,3.39 88.6,-3.93 130.03,-17.3 40.28,-13 78.24,-32.69 112.65,-57.26 31.66,-22.61 59.63,-48.97 81.84,-81.05 20.71,-29.92 35.98,-63.76 44.86,-99.04 17.89,-71.07 9.44,-147.6 -25.21,-212.34 -17.5,-32.69 -42.79,-61.45 -76.8,-77.4 -16.93,-7.94 -35.94,-13.86 -54.75,-14.39 -20.18,-0.57 -37.45,8.08 -49.14,24.49 -12.47,17.51 -16.99,40.17 -6.51,59.74 5.38,10.05 13.87,19.04 21.25,27.65 7.38,8.61 15.3,17.19 23.37,25.38 14.53,14.73 29.06,31.8 50.74,34.35 15.48,1.82 33.25,-4.02 37.45,-20.62 1.98,-7.81 0.37,-15.96 -3.72,-22.82 -2.17,-3.65 -5.01,-7.02 -8.11,-9.92 -1.97,-1.84 -4.11,-3.53 -6.28,-5.13 -0.88,-0.65 -1.78,-1.29 -2.69,-1.9 -1.26,-0.84 -2.85,-3.1 -2.45,-0.75 v 3.99 c -0.44,2.91 -5.14,2.54 -0.98,1.92 1.29,-0.19 2.63,-0.23 3.93,-0.24 1.94,-0.01 3.82,0.13 5.71,0.51 4.78,0.96 9.28,3.09 13.12,6.09 8.59,6.69 13.73,17.17 16.56,27.47 5.13,18.64 -2.07,34.75 -16.35,47 -4.25,3.64 -9.01,6.3 -13.54,9.51 -6.44,4.56 -5.17,11.73 -5.16,18.75 0.02,14.36 0.09,28.72 0.09,43.08 0,24.2 1.07,47.98 -7.43,71.05 -14.97,40.62 -52.09,69.99 -94.39,77.7 -14.56,2.65 -30.53,1.88 -43.82,-5.1 -13.01,-6.84 -22.24,-18.73 -27.11,-32.49 -12.45,-35.12 -7.33,-89.32 33.88,-102.33 16.31,-5.15 37.76,-2.95 45.43,14.69 1.68,3.87 1.47,7.63 2.4,11.57 v 1.31 c 5.91,-1.67 7.24,-3.13 3.99,-4.37 -0.64,-0.54 -2.07,-1.03 -2.76,-1.35 -3.17,-1.45 -6.46,-2.73 -9.88,-3.47 -9.68,-2.08 -19.85,-0.79 -27.56,5.81 -8.2,7.02 -10.9,18.3 -10.86,28.69 0.04,10.39 2.51,22.47 10.72,29.63 17.02,14.83 41.87,13.13 60.37,2.41 19.84,-11.49 29.97,-31.53 34.4,-53.32 5.31,-26.06 5.11,-53.16 -2.15,-78.84 -3.67,-12.97 -8.8,-26.59 -16.45,-37.77 -3.64,-5.32 -7.88,-10.19 -12.05,-15.09 -4.17,-4.9 -9.52,-9.77 -16.33,-5.59 -5.06,3.1 -8.72,9.25 -12.79,13.55 -4.6,4.86 -9.78,8.65 -15.51,12.06 -10.63,6.34 -22.51,10.85 -35,11.07 -21.55,0.39 -42.13,-11.04 -51.11,-30.88 -6.47,-14.31 -11.18,-42.85 10.75,-46.06 7.21,-1.05 17.03,1.7 18.3,10.13 V 373 c 0.42,-1.62 2.27,-1.48 0.39,-1.71 -0.66,-0.08 -2.09,0.66 -2.74,0.86 -1.77,0.56 -3.54,1.12 -5.32,1.68 -3.68,1.16 -7.41,2.21 -11.05,3.49 -3.3,1.16 -5.97,2.85 -7.46,6.13 -1.69,3.73 -0.44,7.14 0.78,10.75 4.05,11.87 7.3,23.52 18.58,30.5 20.2,12.49 46.43,3.78 61.15,-13.09 8.28,-9.49 15.3,-21.85 9.6,-34.37 -3.03,-6.65 -8.57,-12.14 -13.2,-17.71 -5.1,-6.15 -10.18,-12.3 -15.2,-18.52 -19.12,-23.73 -37.03,-48.6 -50.2,-76.19 -12.3,-25.78 -20.03,-53.96 -20.08,-82.64 -0.05,-26.58 6.65,-53.37 17.54,-77.56 9.37,-20.8 22.24,-39.8 38.73,-55.6 8.43,-8.07 17.64,-15.19 27.52,-21.39 5.13,-3.21 10.41,-6.19 15.81,-8.92 2.36,-1.19 5.22,-3.12 7.78,-3.5 3.78,-0.56 8.23,0.07 12.09,0.07 3.86,0 7.8,0 11.7,0 1.94,0 3.92,0.12 5.85,0 2.35,-0.15 1.81,-0.41 3.82,1.03 5.05,3.61 11.72,5.09 17.24,8.01 9.21,4.88 17.66,11.38 23.98,19.74 6.32,8.36 10.24,17.91 11.69,28.07 0.73,5.09 0.74,10.33 0.33,15.45 -0.4,4.99 -0.83,12.34 -3.39,16.72 -1.1,1.88 -3.39,3.21 -5.15,4.38 -2.59,1.72 -5.28,3.83 -8.11,5.08 l 3.79,-1.02 2.33,1.12 c -0.71,-0.91 -1.43,-1.81 -2.16,-2.71 -1.04,-1.3 -2.12,-2.57 -3.12,-3.91 -1.58,-2.12 -3.23,-4.41 -4.22,-6.88 -2.41,-5.97 -0.3,-13.36 0.09,-19.55 0.63,-9.94 -1.6,-20.14 -8.21,-27.82 -12.74,-14.8 -39.65,-16.51 -55.06,-5.26 -17.06,12.45 -23.39,37.46 -21.07,57.59 1.26,10.9 4.84,21.57 11.15,30.6 7.26,10.39 17.52,17.74 27.39,25.46 22.39,17.52 45.49,34.14 69.34,49.61 20.37,13.21 41.4,25.22 60.44,40.37 34.55,27.49 63.14,61.62 82.2,101.57 10.68,22.38 17.32,46.1 23.7,69.98 1.86,6.97 3.68,13.94 5.51,20.92 1.68,6.41 4.39,13.19 5.35,19.68 0.36,2.43 0,5.16 0,7.61 v 40.09 c 0,10.5 1.03,21.58 0,32.04 -0.2,2.05 -1.09,4.01 -1.68,6.02 -2.07,7.04 -4.25,14.05 -5.66,21.26 -2.46,12.59 -4.77,25.15 -7.91,37.59 -5.93,23.51 -13.66,46.63 -23.38,68.85 -19.82,45.27 -47.27,86.95 -80.49,123.52 -69.95,77.01 -163.28,123.83 -257.66,163.9 -13.12,5.57 -26.25,11.09 -39.36,16.68 l 3.79,-1.02 c -4.52,-0.23 -9.04,-0.45 -13.55,-0.68 l 3.79,1.02 C 403.66,965.3 374.29,954.97 346.24,942.85 319.5,931.31 293.12,919 267.72,904.73 226.78,881.74 188.28,854.35 154.47,821.69 120.93,789.3 92.45,752.04 70.45,710.91 59.26,690 49.79,668.24 42.01,645.84 32.04,617.14 25.35,587.51 18.02,558.07 c -0.81,-3.26 -2.11,-6.69 -2.67,-9.96 -0.64,-3.74 0,-8.17 0,-11.96 0,-7.98 0,-15.95 0,-23.93 0,-7.98 0,-15.95 0,-23.93 0,-3.99 0,-7.98 0,-11.96 0,-1.99 0,-3.99 0,-5.98 0,-2.64 0.03,-3.08 0.97,-4.96 1.3,-2.61 2.4,-4.37 2.83,-7.36 0.43,-2.99 0.86,-5.84 1.34,-8.75 1.02,-6.21 2.17,-12.4 3.47,-18.55 2.34,-11.04 5.15,-21.99 8.49,-32.77 12.83,-41.47 33.91,-80.23 63,-112.55 14.47,-16.08 30.67,-30.65 48.16,-43.38 9.66,-7.03 19.69,-13.57 29.99,-19.63 11.04,-6.49 22.62,-12.02 33.56,-18.68 25.25,-15.37 48.27,-34.76 70.16,-54.54 17.49,-15.8 25.87,-39.41 22.63,-62.71 -3.24,-23.3 -17.58,-45.19 -42.41,-45.97 -10.8,-0.34 -22.78,2.75 -30.99,10.02 -8.44,7.47 -11.18,18.89 -10.4,29.77 0.45,6.25 1.66,12.7 0.74,18.97 -0.38,2.6 -1.31,4.94 -2.6,7.21 -1.22,2.14 -3.65,4.01 -4.67,6.09 -0.52,1.06 -1.83,0.14 0.33,0.39 -0.96,-0.11 -1.89,-0.51 -2.76,-0.9 -2.23,-1.01 -4.41,-2.67 -6,-4.53 -3.11,-3.63 -3.95,-9.32 -4.77,-13.92 -3.9,-22 5.01,-45.45 21.34,-60.37 4.53,-4.14 9.65,-7.37 15.12,-10.12 5.47,-2.75 12.13,-6.72 18.18,-8.11 9.41,-2.16 5.42,-16.62 -3.99,-14.46 -4.01,0.92 -7.89,3.28 -11.65,4.95 -3.76,1.67 -7.84,3.46 -11.63,5.45 -6.85,3.59 -13.2,8.21 -18.7,13.65 -10.25,10.14 -17.74,23.16 -21.55,37.05 -3.81,13.89 -3.99,28.96 0,42.83 2.11,7.32 5.4,12.95 11.53,17.58 5.06,3.83 12.14,7.28 18.59,5.17 6.45,-2.11 11.24,-8.64 14.22,-14.36 3.88,-7.44 4.61,-15.48 4.04,-23.75 -0.81,-11.81 -3.07,-25.45 10.29,-30.95 11.65,-4.8 25.41,-3.53 33.53,6.76 8.12,10.29 10.82,24.36 9.75,37.09 -1.14,13.58 -7.72,26.36 -17.66,35.58 -13.39,12.42 -27.6,24.3 -42.16,35.32 -14.19,10.73 -29.08,19.87 -44.77,28.23 -12.86,6.85 -25.36,14.38 -37.36,22.65 -44.87,30.9 -82.04,71.99 -106.08,121.05 -12.21,24.92 -21.2,51.34 -27.19,78.42 -1.56,7.07 -2.93,14.19 -4.11,21.33 -0.58,3.52 -0.64,7.54 -1.67,10.95 -0.27,0.91 -1.7,2.14 -2.46,3.35 -1.26,2.02 -1.57,4.15 -1.67,6.51 -0.81,19.86 0,39.93 0,59.82 0,9.28 -1.23,19.42 1.08,28.45 2.39,9.35 4.66,18.74 6.95,28.11 4.56,18.67 9.21,37.34 15.03,55.67 9.1,28.65 20.8,56.55 35.12,82.99 27.44,50.69 64.76,95.7 108.63,133 48.25,41.02 103.23,72.38 161.03,97.83 17.44,7.68 35.04,14.99 52.59,22.44 8.77,3.72 17.53,7.46 26.24,11.34 3.81,1.7 7.46,3.62 11.08,5.69 1.79,1.02 3.55,2.3 5.49,3.01 2.49,0.92 5.37,0.77 8.01,0.9 4.22,0.21 8.19,0.8 12.21,-0.6 4.85,-1.69 9.57,-4.08 14.3,-6.08 8.95,-3.79 17.9,-7.56 26.84,-11.36 17.08,-7.26 34.12,-14.63 50.97,-22.41 60.54,-27.94 119.06,-61.25 169.42,-105.32 49.51,-43.33 90.54,-97.13 118.05,-156.96 13.64,-29.68 24.14,-60.74 31.24,-92.62 1.83,-8.22 3.25,-16.49 4.86,-24.75 1.83,-9.41 5.64,-18.35 7.5,-27.71 0.88,-4.43 0.37,-9.25 0.37,-13.72 0,-18.29 0,-36.59 0,-54.88 0,-4.83 0.26,-9.73 0,-14.56 -0.39,-7.23 -3.55,-14.91 -5.38,-21.91 -2.49,-9.51 -4.97,-19.02 -7.54,-28.51 -8.35,-30.9 -18.41,-60.81 -34.64,-88.57 -14.8,-25.3 -33.61,-48.26 -55.14,-68.12 -23.36,-21.55 -49.75,-37.95 -76.41,-54.96 -15.79,-10.08 -31.27,-20.65 -46.43,-31.68 -15.16,-11.03 -30.17,-21.45 -43.55,-33.84 -9.93,-9.2 -15.76,-21.99 -16.39,-35.5 -0.59,-12.56 2.51,-27.66 11.29,-37.17 8.2,-8.87 21.81,-9.9 32.56,-5.12 12.37,5.5 11.2,18.58 10.16,29.95 -0.82,8.92 0.36,16.95 5.42,24.5 4,5.96 9.94,16.32 18.37,14.87 3.78,-0.65 7.11,-3.48 10.26,-5.55 3.15,-2.07 6.28,-4.19 8.75,-6.98 4.76,-5.38 5.96,-13.21 6.98,-20.11 3.93,-26.49 -4.27,-53.11 -24.57,-71.1 -5.12,-4.54 -10.76,-8.54 -16.76,-11.83 -6.47,-3.55 -13.61,-5.64 -19.76,-9.65 -3.74,-2.44 -7.73,-2.1 -12.05,-2.1 -4.88,0 -9.75,0 -14.63,0 -4.88,0 -9.81,-0.36 -14.63,0 -3.98,0.3 -7.6,2.43 -11.13,4.16 -25.21,12.32 -48,29.93 -65.39,52.01 -39.07,49.6 -54.14,117.13 -36.72,178.09 9.77,34.2 27.88,65.34 48.96,93.74 11,14.82 22.72,29.08 34.5,43.27 4.08,4.91 11.86,11.35 9.3,18.46 -2.27,6.3 -7.18,11.97 -12.19,16.28 -8.14,7.01 -19.85,11.33 -30.53,8.52 -5.31,-1.4 -10.24,-4.23 -12.99,-9.1 -1.61,-2.84 -2.65,-5.92 -3.69,-9 -1.21,-3.62 -3,-7.49 -3.59,-11.24 v 3.99 l -1.51,2.05 c 1.12,-0.35 2.24,-0.71 3.36,-1.06 1.42,-0.45 2.84,-0.9 4.26,-1.34 3.24,-1.02 6.48,-2.05 9.72,-3.07 6.23,-1.97 12.48,-5.29 11.01,-13.05 -1.68,-8.83 -9.33,-16.22 -17.5,-19.32 -19.28,-7.33 -40.56,4.56 -45.33,24.23 -4.77,19.67 3.06,41.41 14.94,56.2 13.69,17.05 37.13,26.06 58.72,24.55 13.43,-0.94 26.23,-5.43 37.86,-12.11 5.62,-3.23 11.18,-6.9 15.98,-11.27 2.45,-2.23 4.69,-4.66 6.9,-7.13 0.98,-1.09 1.94,-2.2 2.91,-3.3 0.64,-0.72 3.15,-4.47 3.92,-4.61 h -3.99 l -1.11,-0.85 c 0.72,0.88 1.45,1.75 2.19,2.62 0.74,0.88 1.49,1.75 2.24,2.63 1.88,2.21 3.79,4.4 5.59,6.68 3.64,4.63 6.53,9.62 9.1,14.91 5.29,10.92 9.12,22.53 11.51,34.42 4.61,22.83 3.24,46.87 -2.74,69.33 -4.48,16.83 -15.45,31.51 -31.94,38.08 -8.58,3.41 -16.76,4.24 -25.65,1.52 -8.89,-2.72 -13.6,-6.96 -15.47,-15.83 -1.55,-7.33 -1.6,-17.53 3.27,-23.75 4.69,-5.99 12.91,-5.42 19.41,-3.24 4.38,1.46 8.38,5.17 13.11,5.19 5.88,0.02 10.07,-4.6 10.5,-10.24 0.65,-8.4 -1.76,-17.62 -6.02,-24.83 -20.36,-34.5 -71.51,-23.46 -93.09,3.39 -12.68,15.78 -17.42,34.98 -18.04,54.9 -0.54,17.13 1.72,34.54 8.55,50.34 11.7,27.1 37.2,43.21 66.55,43.57 36.01,0.44 73.52,-18.15 97.47,-44.45 13.4,-14.71 23.58,-32.19 29.6,-51.17 6.61,-20.87 6.04,-42.37 6.06,-64 0.01,-12.36 -0.03,-24.72 -0.06,-37.07 -0.02,-6.41 0.17,-12.85 -0.03,-19.26 0.05,1.56 -1.52,1.17 0.53,0.27 1.37,-0.6 2.74,-1.77 3.98,-2.62 2.2,-1.51 4.33,-3.11 6.43,-4.76 13.94,-10.97 24.34,-25.77 25.81,-43.82 1.47,-18.05 -6.77,-39.64 -20.04,-52.32 -6.67,-6.37 -15.09,-11.06 -24.24,-12.59 -8.19,-1.37 -22.57,-2.11 -25.14,8.15 -1.45,5.79 1.96,9.46 6.37,12.35 4.67,3.05 9.26,6.18 12.74,10.64 4.02,5.15 6.3,12.26 2.34,18.14 -3.12,4.63 -10.64,5.85 -16.17,5.81 -8.65,-0.06 -16.55,-3.24 -22.95,-8.99 -17.99,-16.15 -34.89,-33.62 -50.32,-52.23 -7.08,-8.54 -15.27,-17.24 -17.59,-28.43 -2.11,-10.15 1.01,-20.56 6.08,-29.34 5.07,-8.78 11.54,-16.06 20.72,-19.89 8.25,-3.45 17.54,-3.6 26.3,-2.56 18.58,2.21 37.13,9.13 53.11,18.74 32.89,19.78 54.59,52.87 69.24,87.6 29.14,69.07 28.15,148.17 0.16,217.41 -14.04,34.71 -35.1,66.65 -61.25,93.41 -29.81,30.5 -66.5,55.14 -104.65,73.96 -39.17,19.33 -81.83,31.84 -125.3,36.26 -47.58,4.84 -94.11,-2.79 -138.55,-20.15 C 281.04,743.09 243.7,721.88 211.15,696.13 182.13,673.17 156.6,645.81 137.42,614.08 94.64,543.32 82.57,451.93 111.09,373.77 c 7.51,-20.58 17.84,-40.1 30.12,-58.22 11.44,-16.89 24.52,-32.63 41.64,-44.03 15.87,-10.56 34.2,-17.32 53.18,-19.41 9.21,-1.01 19.04,-1.87 28.01,0.92 7.8,2.43 14.67,7.46 19.82,13.76 26.16,32.01 -6.41,73.88 -30.79,95.76 -7.39,6.64 -15.26,12.69 -23.37,18.43 -7.42,5.25 -14.7,11.61 -24.2,11.88 -5.93,0.17 -14.78,-1.13 -18.57,-6.21 -4.13,-5.54 -1.95,-13.38 1.87,-18.34 2.66,-3.45 6.23,-6.28 9.86,-8.62 5.01,-3.23 10.05,-5.7 9.61,-12.54 -0.72,-11.39 -16.13,-11.28 -24.41,-10.06 -20.4,3.03 -33.92,20.02 -40.89,38.25 -6.33,16.55 -5.81,35.03 3.26,50.47 4.67,7.95 11.15,14.68 18.38,20.32 2.1,1.64 4.24,3.23 6.45,4.71 0.87,0.58 1.75,1.15 2.64,1.71 l 1.36,0.84 c 1.63,1.23 1.83,1.13 0.59,-0.28 0.73,2.5 -0.01,6.22 -0.02,8.82 -0.01,3.55 -0.03,7.1 -0.04,10.66 -0.11,24.45 -1.23,49.25 0.35,73.66 1.29,20 8.12,39.39 18.7,56.34 20.67,33.14 55.96,59.39 95.6,62.82 19.12,1.65 38.78,-3.56 54.54,-14.54 16.97,-11.83 27.72,-28.43 33.59,-48.09 5.87,-19.66 7.2,-42.08 -0.75,-61.78 -8,-19.82 -23.55,-38.24 -44.88,-43.81 -18.79,-4.91 -43.53,-0.82 -57.16,13.87 -5.7,6.15 -9.6,13.99 -11.16,22.23 -0.91,4.82 -1.7,10.25 2.18,14.07 4.65,4.57 11.41,2.63 17.12,1.86 8.08,-1.09 22.07,-4.31 28.03,3.38 4.56,5.88 3.94,16.31 2.2,23.07 -1.96,7.63 -7.76,14.11 -15.18,16.81 -9.2,3.35 -17.21,-1.27 -25.03,-5.88 -14.11,-8.32 -28.59,-20.22 -33.91,-35.51 -4.57,-13.12 -5.69,-27.23 -5.46,-41.03 0.27,-15.67 2.54,-31.28 6.97,-46.32 3.82,-12.95 9.31,-26.33 18.49,-36.46 1.79,-1.98 4.48,-3.98 5.95,-5.69 0.21,-0.24 1.44,-0.84 1.45,-1.04 -0.09,2.31 -6.87,-3.93 -2.82,0.98 1.96,2.38 4.01,4.69 6.14,6.92 7.21,7.53 15.53,14.24 24.62,19.35 16.74,9.41 36.14,13.09 55.03,9.11 18.89,-3.98 36.16,-17.06 46.08,-34.26 9.28,-16.09 12.93,-37.75 3.6,-54.69 -8.71,-15.81 -31.25,-21.5 -46.66,-12.05 -6.29,3.86 -14.74,12.91 -12.04,21.04 2.03,6.12 8.69,7.54 14.03,9.69 2.82,1.13 5.65,2.27 8.47,3.4 1.09,0.44 2.19,0.88 3.28,1.32 l 1.62,0.65 c 2.26,1.14 2.21,0.79 -0.17,-1.07 v -3.99 c -1.2,4.5 -3.96,9.22 -6.02,13.41 -1.87,3.81 -3.91,7.99 -7.4,10.59 -5.69,4.25 -13.75,4.97 -20.53,3.71 -7.4,-1.37 -14.53,-4.78 -20.08,-9.89 -4.3,-3.95 -10.74,-11.54 -9.79,-17.92 0.57,-3.84 4.6,-7.79 7.1,-10.48 4.11,-4.42 8.25,-8.8 12.23,-13.34 7.22,-8.21 14.09,-16.73 20.63,-25.49 12.8,-17.16 24.09,-35.47 33.31,-54.8 17.48,-36.63 29.32,-77.07 26,-117.97 C 400.79,126.98 386.58,90.84 363.32,60.94 350.33,44.24 334.56,29.81 316.81,18.28 312.23,15.31 307.52,12.54 302.69,10 c -2.12,-1.12 -4.26,-2.19 -6.42,-3.22 -1.26,-0.6 -2.75,-1.08 -3.93,-1.82 0.14,0.83 -0.05,0.75 -0.56,-0.21 -0.4,-0.53 -0.82,-1.06 -1.25,-1.57 -4.55,-4.5 -12.9,-2.91 -18.66,-2.91 -7.62,0 -15.24,0 -22.87,0 -9.65,0 -9.67,15 0,15 z"
       id="path17" />
  </g>
</svg>
