<?xml version="1.0" encoding="UTF-8"?><svg id="Layer_2" xmlns="http://www.w3.org/2000/svg" width="499.97871" height="538.91717" viewBox="0 0 499.97871 538.91717"><defs><style>.cls-1{fill:#fff;}.cls-2{fill:#fc1313;}</style></defs><g id="Layer_1-2"><path d="M375.7572,20.39257c10.43626,61.76552,61.48693,110.22024,124.22151,115.78554-2.46389,33.68779-8.59673,67.97261-16.6707,100.80785-28.73743,116.8695-89.29059,228.1077-198.29721,286.70279-7.3572,3.95477-24.67441,13.31262-32.0106,14.99172-5.76979,1.32058-13.83545-3.205-19.36977-5.65424C113.06485,479.66951,45.08524,356.28354,15.67039,232.98628c-7.53531-31.5855-13.38214-64.44458-15.67039-96.80817,61.8668-5.42403,113.75424-53.54765,123.66331-114.79038l1.05962-1.23161c27.42684-6.72446,54.7134-14.56199,82.88952-17.86572,57.6923-6.76457,112.90398,2.10127,168.14476,18.10217ZM241.99453,19.16216c-25.9753.8011-51.96098,4.26649-77.21392,10.2964-4.46076,1.06514-21.05538,4.68084-23.75826,6.24174-2.11402,1.22083-4.68272,13.41527-6.01488,16.98512-1.77868,4.76643-3.96549,10.28251-6.16018,14.83982-3.80742,7.90618-10.78123,15.97604-14.09763,22.90088-.56775,1.18549-1.00333,2.35574-.72155,3.69489,7.28528,2.2041,14.11205,6.09305,21.51548,7.99206,36.51555,9.36636,76.50149-8.4797,94.61714-41.27439,6.49526-11.75833,12.74925-28.21883,11.8338-41.67653ZM385.94685,94.11927c.32899-1.07709-.08192-1.9479-.48266-2.91915-2.98464-7.23357-11.35496-17.09255-15.33252-25.67511-4.47757-9.66145-6.98126-20.06575-11.17379-29.82621-32.93562-9.09372-66.64533-15.84014-100.97376-16.53667.31428,4.29044-.55055,9.0678.23817,13.27225,1.15887,6.17765,8.34012,22.50761,11.59571,28.40431,22.72546,41.1617,74.80049,55.02095,116.12887,33.28059ZM382.98892,114.17709c-44.42117,17.17629-95.90685,2.71111-122.81436-36.69498-4.06214-5.94901-6.73282-12.85665-11.17448-18.31375-19.08611,51.47291-81.57312,75.20383-132.01029,55.00873,17.84213,45.48354,2.40313,97.22616-38.47222,124.01843-2.56858,1.68361-15.24047,7.64776-15.53447,8.48247-.60031,1.70435.56022,1.35251,1.28008,1.7218,4.15319,2.13063,8.54563,3.73169,12.64824,6.34545,42.02527,26.77418,58.15526,78.94636,40.08775,125.42167,48.39579-18.68098,99.90976-1.27415,126.79538,42.69516,1.9027,3.11172,3.12083,7.04144,4.95462,10.01759.43356.70365-.21321,1.77339,1.72951,1.29389.8976-.22155,6.92209-13.59393,8.70158-16.31535,26.37733-40.33959,77.90707-54.50654,122.80394-38.69606-16.16034-47.14377-.93488-98.21693,41.69693-124.80307,2.33753-1.45774,13.07564-5.9963,13.31422-6.70238.604-1.78749-.67539-1.3503-1.29447-1.73026-4.21193-2.58503-9.23733-4.47085-13.62709-7.34355-41.42067-27.10607-57.06176-78.13457-39.08486-124.4058ZM97.98124,112.16684c-.79744-.73117-4.53547,2.30214-5.46702,3.02533-6.25948,4.85946-12.58653,11.39303-19.20783,15.79363-15.3648,10.21164-34.43891,17.99416-52.32376,22.1929l16.08906,82.90938c34.15268-6.88576,60.84126-31.17728,68.64004-65.69838,4.78-21.15855.04149-38.65192-7.7305-58.22286ZM478.99607,153.17868c-18.52068-4.57352-36.86368-12.13936-52.74984-22.76824-7.127-4.76843-13.95557-12.4601-20.32291-16.67538-1.2054-.79799-2.34793-1.71037-3.91694-1.56559-20.89949,40.267-6.61387,92.27838,33.28646,114.19437,3.51744,1.93202,25.62774,11.39607,27.61882,9.71864l16.08441-82.90379ZM79.63615,278.52052c-5.02527-4.4961-12.42098-9.00072-18.46016-12.03984-2.32382-1.16942-12.19583-5.88169-13.90509-6.14289-1.78771-.2732-2.19428-.07754-3.28615,1.3516,13.65,41.76585,28.77867,84.23957,53.99474,120.47775,1.66838-7.45884,5.74967-14.20486,7.5374-21.97227,6.71239-29.16422-3.62235-61.75977-25.88075-81.67434ZM415.63741,283.81879c-.65576.71664-1.9025.99777-2.61877,1.83298-22.48956,26.22397-27.73218,65.09224-10.51503,95.51078,1.58334.38552,2.00279-1.41136,2.71811-2.2632,2.91321-3.46917,7.50418-12.60825,9.93997-17.0597,17.32531-31.66221,30.18014-65.63846,40.78085-100.10104-2.23606-3.44274-4.3099-.66013-6.69696.03146-12.27361,3.55593-24.46646,12.05836-33.60818,22.04872ZM241.98935,514.16731v-52.5c0-1.08215-6.72492-17.68979-7.81877-20.18123-21.23378-48.36397-78.88832-67.00655-124.11693-38.71962,25.37927,38.33246,61.54336,72.14896,101.01272,95.82383,3.03943,1.82314,29.72221,16.94252,30.92297,15.57703ZM257.98935,514.16731c53.03003-23.20649,99.66944-63.48255,131.9341-111.40225-46.33179-28.40208-102.65214-9.63348-124.4192,39.41715-1.04833,2.36234-7.51491,18.44089-7.51491,19.48509v52.5ZM241.7856,121.46362c98.75424-6.8519,165.65582,99.36113,118.37508,186.37502-44.04634,81.0614-159.95535,87.07258-212.98665,11.64399-56.52369-80.39595-2.88963-191.25405,94.61157-198.01901ZM164.40773,180.58442c-48.18764,63.64928-13.97343,158.7279,65.40003,173.26449,91.19095,16.70086,158.66638-79.88756,114.35296-160.35296-37.19517-67.53991-133.17651-74.43268-179.75299-12.91152ZM179.99744,308.14788l.49639-1.98415c18.81696-1.91554,34.44851-2.63855,49.50786-15.48409,28.10109-23.97007,27.22264-66.4321-1.53411-89.49056-13.82109-11.08238-31.25818-13.23961-48.47321-14.02701l.47364-2.01557c35.80712-32.432,88.72561-40.05543,126.99436-6.95222,65.72049,56.84949,21.07892,164.58075-67.01164,158.01165-24.27713-1.8104-41.37208-14.85092-60.4533-28.05806ZM221.99675,315.15478c55.33372,20.91423,111.42923-27.68351,98.12135-85.61621-8.20173-35.70432-43.03535-59.95451-79.50718-56.24962-2.96349.30104-16.55655,3.12957-17.6168,5.38315,53.37282,24.04124,59.67942,97.70748,10.30476,130.30475l-11.30214,6.17794Z"/><path class="cls-1" d="M382.98892,114.17709c-17.9769,46.27123-2.33581,97.29973,39.08486,124.4058,4.38976,2.8727,9.41517,4.75852,13.62709,7.34355.61909.37996,1.89848-.05723,1.29447,1.73026-.23859.70608-10.9767,5.24465-13.31422,6.70238-42.63182,26.58615-57.85728,77.6593-41.69693,124.80307-44.89687-15.81048-96.42661-1.64352-122.80394,38.69606-1.77949,2.72142-7.80397,16.0938-8.70158,16.31535-1.94273.4795-1.29595-.59024-1.72951-1.29389-1.83379-2.97616-3.05192-6.90588-4.95462-10.01759-26.88562-43.96931-78.39959-61.37614-126.79538-42.69516,18.06751-46.47531,1.93753-98.64749-40.08775-125.42167-4.10261-2.61376-8.49506-4.21483-12.64824-6.34545-.71986-.3693-1.88038-.01745-1.28008-1.7218.294-.83471,12.96589-6.79886,15.53447-8.48247,40.87536-26.79228,56.31436-78.53489,38.47222-124.01843,50.43718,20.1951,112.92418-3.53581,132.01029-55.00873,4.44166,5.45709,7.11234,12.36473,11.17448,18.31375,26.90751,39.40609,78.39319,53.87127,122.81436,36.69498ZM241.7856,121.46362c-97.50121,6.76496-151.13526,117.62306-94.61157,198.01901,53.03131,75.42859,168.94031,69.41741,212.98665-11.64399,47.28074-87.01389-19.62084-193.22692-118.37508-186.37502ZM320.1181,229.53857c-8.20173-35.70432-43.03535-59.95451-79.50718-56.24962-2.96349.30104-16.55655,3.12957-17.6168,5.38315,53.37282,24.04124,59.67942,97.70748,10.30476,130.30475l-11.30214,6.17794c55.33372,20.91423,111.42923-27.68351,98.12135-85.61621Z"/><path class="cls-2" d="M241.98935,514.16731c-1.20076,1.3655-27.88354-13.75389-30.92297-15.57703-39.46936-23.67486-75.63345-57.49137-101.01272-95.82383,45.22861-28.28693,102.88314-9.64435,124.11693,38.71962,1.09385,2.49144,7.81877,19.09909,7.81877,20.18123v52.5ZM389.92346,402.76506c-46.33179-28.40208-102.65214-9.63348-124.4192,39.41715-1.04833,2.36234-7.51491,18.44089-7.51491,19.48509v52.5c53.03003-23.20649,99.66944-63.48255,131.9341-111.40225ZM164.78061,29.45857c-4.46076,1.06514-21.05538,4.68084-23.75826,6.24174-2.11402,1.22083-4.68272,13.41527-6.01488,16.98512-1.77868,4.76643-3.96549,10.28251-6.16018,14.83982-3.80742,7.90618-10.78123,15.97604-14.09763,22.90088-.56775,1.18549-1.00333,2.35574-.72155,3.69489,7.28528,2.2041,14.11205,6.09305,21.51548,7.99206,36.51555,9.36636,76.50149-8.4797,94.61714-41.27439,6.49526-11.75833,12.74925-28.21883,11.8338-41.67653-25.9753.8011-51.96098,4.26649-77.21392,10.2964ZM385.46418,91.20012c-2.98464-7.23357-11.35496-17.09255-15.33252-25.67511-4.47757-9.66145-6.98126-20.06575-11.17379-29.82621-32.93562-9.09372-66.64533-15.84014-100.97376-16.53667.31428,4.29044-.55055,9.0678.23817,13.27225,1.15887,6.17765,8.34012,22.50761,11.59571,28.40431,22.72546,41.1617,74.80049,55.02095,116.12887,33.28059.32899-1.07709-.08192-1.9479-.48266-2.91915ZM426.24622,130.41044c-7.127-4.76843-13.95557-12.4601-20.32291-16.67538-1.2054-.79799-2.34793-1.71037-3.91694-1.56559-20.89949,40.267-6.61387,92.27838,33.28646,114.19437,3.51744,1.93202,25.62774,11.39607,27.61882,9.71864l16.08441-82.90379c-18.52068-4.57352-36.86368-12.13936-52.74984-22.76824ZM92.51422,115.19218c-6.25948,4.85946-12.58653,11.39303-19.20783,15.79363-15.3648,10.21164-34.43891,17.99416-52.32376,22.1929l16.08906,82.90938c34.15268-6.88576,60.84126-31.17728,68.64004-65.69838,4.78-21.15855.04149-38.65192-7.7305-58.22286-.79744-.73117-4.53547,2.30214-5.46702,3.02533ZM413.01864,285.65177c-22.48956,26.22397-27.73218,65.09224-10.51503,95.51078,1.58334.38552,2.00279-1.41136,2.71811-2.2632,2.91321-3.46917,7.50418-12.60825,9.93997-17.0597,17.32531-31.66221,30.18014-65.63846,40.78085-100.10104-2.23606-3.44274-4.3099-.66013-6.69696.03146-12.27361,3.55593-24.46646,12.05836-33.60818,22.04872-.65576.71664-1.9025.99777-2.61877,1.83298ZM61.17599,266.48067c-2.32382-1.16942-12.19583-5.88169-13.90509-6.14289-1.78771-.2732-2.19428-.07754-3.28615,1.3516,13.65,41.76585,28.77867,84.23957,53.99474,120.47775,1.66838-7.45884,5.74967-14.20486,7.5374-21.97227,6.71239-29.16422-3.62235-61.75977-25.88075-81.67434-5.02527-4.4961-12.42098-9.00072-18.46016-12.03984ZM229.80776,353.84891c91.19095,16.70086,158.66638-79.88756,114.35296-160.35296-37.19517-67.53991-133.17651-74.43268-179.75299-12.91152-48.18764,63.64928-13.97343,158.7279,65.40003,173.26449ZM180.49382,306.16374c18.81696-1.91554,34.44851-2.63855,49.50786-15.48409,28.10109-23.97007,27.22264-66.4321-1.53411-89.49056-13.82109-11.08238-31.25818-13.23961-48.47321-14.02701l.47364-2.01557c35.80712-32.432,88.72561-40.05543,126.99436-6.95222,65.72049,56.84949,21.07892,164.58075-67.01164,158.01165-24.27713-1.8104-41.37208-14.85092-60.4533-28.05806l.49639-1.98415Z"/></g></svg>