<svg xmlns="http://www.w3.org/2000/svg" width="890.29" height="439.1" data-name="Layer 2" viewBox="0 0 890.29 439.1"><path d="M0 433.56v-20.48c8.69-19.86 21.26-41.49 37.71-64.87s36.47-48.93 60.05-76.66c22.35-26.28 39.36-47.9 51.06-64.87 11.69-16.97 20.43-33 26.22-48.11 5.79-15.1 8.69-30.72 8.69-46.86 0-22.76-5.07-40.61-15.21-53.54s-24-19.4-41.59-19.4c-16.55 0-30.26 5.84-41.12 17.53s-18.78 30.16-23.74 55.4H6.21V38.47c25.24-10.14 45-17.23 59.28-21.26s28.4-7.09 42.36-9.16c13.97-2.07 29.12-3.1 45.47-3.1 30.42 0 55.24 4.09 74.49 12.26 19.24 8.17 33.16 19.24 41.74 33.21 8.59 13.97 12.88 30.26 12.88 48.88 0 16.35-3.05 31.55-9.16 45.62-6.1 14.07-16.66 30.1-31.66 48.11-15 18-40.3 43.76-75.89 77.28-15.93 15.52-30.83 31.19-44.69 47.02s-24.1 28.19-30.73 37.09v3.1h110.18c13.45 0 23.48-.98 30.1-2.95 6.62-1.96 11.85-5.38 15.67-10.24 3.83-4.86 6.98-12.16 9.47-21.88h35.69l-5.76 89.63c5.69-1.4 11.14-3.54 16.44-5.99 4.69-2.41 8.19-5.76 10.48-10.05s3.77-9.73 4.42-16.33c.66-6.59.98-14.92.98-24.96V84.08c0-9.84-.27-18.11-.82-24.81s-1.97-12.14-4.26-16.33-5.79-7.59-10.48-10.21-11.19-4.97-19.49-7.07V4.95h190.33c55.25 0 96.64 9.47 124.16 28.42 12.59 8.76 23.28 20.27 29.86 34.21 1.99-4.47 4.75-8.54 7.49-12.57 12.78-18.02 31.27-31.69 55.48-41.02C714.44 4.67 742.47 0 774.32 0c18.65 0 36.46 1 53.43 2.99s36.36 5.5 58.15 10.53v91.15h-43.06c-3.98-16.55-9.06-29.7-15.25-39.44-6.18-9.74-13.88-16.92-23.1-21.53s-20.85-6.92-34.89-6.92c-11.94 0-22.63 2.1-32.06 6.29s-16.87 10.43-22.32 18.7c-5.45 8.28-8.17 18.28-8.17 30.02s2.36 22.68 7.07 31.59 12.62 17.6 23.73 26.09 27.24 18.18 48.4 29.07c25.77 13.41 46.05 26.56 60.82 39.44 14.77 12.89 25.67 26.93 32.69 42.12s10.53 32.84 10.53 52.96q0 38.655-17.91 67.11c-11.94 18.96-29.34 33.52-52.18 43.69Q785.94 439.1 741 439.1c-21.37 0-43.64-1.2-66.79-3.61q-34.725-3.615-65.22-10.53v-96.81h43.06c5.24 24.94 13.99 43.53 26.24 55.79 12.26 12.26 30.22 18.39 53.9 18.39 12.36 0 23.47-2.1 33.32-6.29s17.76-10.95 23.73-20.27 8.96-21.01 8.96-35.05c0-12.99-2.41-24.25-7.23-33.79-4.82-9.53-12.57-18.6-23.26-27.19s-25.56-17.71-44.63-27.34c-16.34-8.17-31.12-16.66-44.32-25.46s-24.46-18.49-33.79-29.07c-6.27-7.18-11.94-14.97-16.29-23.47-6 13.87-2.79 7.6-9.33 18.96-12.89 20.51-31.56 36.06-56.02 46.63s-55.03 15.86-91.72 15.86c-21.18 0-38.55-.42-52.09-1.26v100.48c0 13.82.55 23.6 1.64 29.36s2.89 10.36 5.41 13.82c2.51 3.45 6.11 6.33 10.81 8.64 4.69 2.3 11.96 4.29 21.78 5.96v20.72H0ZM454.93 41.69c-15.29 0-27.08.21-35.38.63V219.1h28.17c21.84 0 39.2-2.98 52.09-8.95s22.44-15.44 28.66-28.42 9.34-30.46 9.34-52.44c0-21.77-3.11-39.09-9.34-51.97-6.22-12.87-15.34-22.03-27.35-27.48-12.01-5.44-27.41-8.16-46.19-8.16Z" data-name="Layer 1" style="stroke-width:0"/></svg>