<svg xmlns="http://www.w3.org/2000/svg" width="254.368" height="278.64" viewBox="0 0 67.302 73.724"><path d="M33.65 73.724c14.902-5.917 21.962-13.932 30.097-21.78-8.151-14.119-2.846-32.536 3.555-45.886-8.71-4.092-17.744-8.363-27.68-4.614 1.68 1.914 4 4.486 3.242 7.173-.91 3.221-5.552 4.53-9.213 4.536m0 60.57C18.75 67.808 11.69 59.794 3.554 51.944 11.706 37.825 6.4 19.408 0 6.058c8.71-4.092 17.744-8.363 27.679-4.614-1.68 1.914-4.001 4.486-3.241 7.173.91 3.221 5.552 4.53 9.213 4.536" style="fill:#fff;fill-opacity:1;stroke:none;stroke-width:.264583px;stroke-linecap:butt;stroke-linejoin:miter;stroke-opacity:1"/><path d="M6.272 6.536c4.52-1.71 10.393-3.54 15.453-3.419-2.053 3.428-1.807 6.155.085 8.717l33.208 44.952c-3.273 3.338-11.292 8.502-11.292 8.502s2.046-5.573-.267-8.686z" style="display:inline;fill:#fff;fill-opacity:1;stroke:#000;stroke-width:2.11667;stroke-linecap:butt;stroke-linejoin:miter;stroke-miterlimit:4;stroke-dasharray:none;stroke-opacity:1;paint-order:normal"/><path d="M27.698 15.42c16.065 3.476 20.98-4.865 18-12.095 3.666-.165 8.392.294 17.766 4.347-5.165 10.21-7.008 20.657-6.426 30.522-.171.975-.767 1.693-1.937.921L42.155 26.677c-.551-.196-.36.227-.076.561l18.36 24.28-3.495 3.307zM5.018 9.138l35.53 48.003c2.253 3.044 1.143 8.488-.95 10.053-1.79 1.34-3.771 2.364-5.947 3.383l-6.782-3.81c-6.853-3.85-13.596-10.182-19.523-15.33 1.766-2.177 3.184-9.02 3.296-12.864.076-2.628 2.235-2.039 3.377-1.173 2.566 1.944 17.26 18.917 17.79 19.221.6.345.779-.094.566-.378l-22.3-29.765c-.44-5.04-3.223-11.603-5.057-17.34" style="display:inline;fill:#000;fill-opacity:1;stroke:none;stroke-width:.264583px;stroke-linecap:butt;stroke-linejoin:miter;stroke-opacity:1"/></svg>