<svg xmlns="http://www.w3.org/2000/svg" xmlns:xlink="http://www.w3.org/1999/xlink" width="600" height="555.874"><radialGradient id="a" cx="0" cy="0" r="1" fx="0" fy="0" gradientTransform="matrix(19.0165 0 0 -19.0165 231.947 151.333)" gradientUnits="userSpaceOnUse" spreadMethod="pad"><stop offset="0" style="stop-color:#f6b91d"/><stop offset=".7" style="stop-color:#d3641c"/><stop offset="1" style="stop-color:#bf331c"/></radialGradient><radialGradient xlink:href="#a" id="b" cx="0" cy="0" r="1" fx="0" fy="0" gradientTransform="translate(300.054 277.979)scale(264.26955)" gradientUnits="userSpaceOnUse" spreadMethod="pad"/><path d="M378.04 555.874c-63.412 0-118.402-22.04-159.008-63.842-36.313-37.285-59.382-89.454-65.08-146.778-1.14-11.618 5.962-22.416 17.038-26.113 2.557-.876 5.156-1.25 7.768-1.25 8.575 0 16.83 4.447 21.443 12.215.486.862 52.975 87.397 133.535 87.397 101.725 0 104.657-96.902 104.657-107.964 0-14.342-4.016-140.011-142.276-140.011-56.95 0-108.52 23.29-153.185 69.331-40.064 41.19-72.694 100.1-91.97 165.72-3.14 10.7-12.854 17.913-23.874 17.913-.541 0-1.084-.055-1.626-.055a24.9 24.9 0 0 1-23.027-21.054c-1.028-6.684-23.722-164.594 92.887-288.249C164.097 40.231 257.957 0 359.626 0c46.805 0 93.484 8.686 134.952 25.14 8.144 3.196 14.12 10.31 15.579 18.885 1.417 8.575-1.515 17.093-8.088 22.805-3.85 3.53-11.66 13.355-11.66 21.332 0 11.284 6.615 18.455 20.4 32.185.877.931 89.19 92.456 89.19 206.938 0 53.086-22.192 110.3-59.38 153.074-42.344 48.694-100.1 75.515-162.58 75.515" style="fill:#fff"/><path d="M378.04 545.507c-60.535 0-112.968-21.012-151.574-60.743-34.63-35.673-56.671-85.549-62.146-140.539-.653-6.795 3.418-13.035 9.936-15.147a13.8 13.8 0 0 1 4.502-.765c5.1 0 9.88 2.71 12.424 7.115 2.446 3.96 57.81 92.497 142.554 92.497 90.816 0 115.08-74.376 115.08-118.387 0-15.37-4.28-150.433-152.7-150.433-59.88 0-113.94 24.375-160.674 72.472C94.238 273.976 60.69 334.4 40.985 401.647c-1.793 6.142-7.49 10.422-13.897 10.422-7.768-.487-13.3-5.475-14.341-12.257-.973-6.462-22.847-159.717 90.12-279.577 66.818-70.777 157.967-109.813 256.76-109.813 45.498 0 90.872 8.463 131.159 24.43 4.836 1.905 8.31 6.018 9.06 10.854.876 5.1-.75 9.936-4.558 13.244-5.53 5.058-15.3 17.315-15.3 29.211 0 16.176 9.825 26.001 23.444 39.564.82.82 86.146 89.524 86.146 199.56 0 50.64-21.22 105.365-56.838 146.236-40.328 46.36-95.263 71.986-154.7 71.986"/><path d="M113.4 130.227C3.854 246.502 27.089 397.575 27.089 397.575c38.758-132.284 132.826-252.964 269.03-252.964s167.137 108.52 167.137 164.928c0 56.504-33.158 132.881-129.52 132.881-96.304 0-154.977-99.668-154.977-99.668 9.937 100.752 78.6 188.26 199.28 188.26 120.668 0 197.045-110.743 197.045-203.727 0-92.998-67.525-174.906-81.908-189.29-14.383-14.438-27.683-27.682-27.683-49.833 0-22.152 19.914-39.898 19.914-39.898-37.187-14.717-80.504-23.291-125.78-23.291-84.076 0-174.948 29.697-246.225 105.254" style="fill:url(#b)"/></svg>