<svg xmlns="http://www.w3.org/2000/svg" width="163.74" height="216.408" viewBox="0 0 163.74 216.408"><path d="M59.757 60.858c-4.17 5.84-8.79 11.38-13.26 16.99 1.13 1.99 3.77 6.6 5.2 9.25a187 187 0 0 0-17.47 10.58c-1.59 1.09-3.91 2.96-6.47 5.05-7.13-6.3-14.24-11.87-11.86-22.45 4.32-19.22 33.53-28.35 50.66-30.13.49.45-6.05 9.67-6.8 10.71m95.91 28.65c-.74.07-.73.73-.92 1.23-1.63 4.17-2.37 6.46-5.32 10.04-11.43 13.84-33.05 21.07-50.08 24.7l-1.65 37.47c18.74-1.87 39.45-12.36 50.99-27.4 5.49-7.16 7.92-12.61 8.44-21.78.47-8.1-.11-16.3-1.46-24.26m-19.95 14.84c-8.18-6.27-16.15-13.8-26.04-17.24.91-1.34 4.56-7.18 5.69-8.79l-13.75-17.46-6.79-10.71c16.73 1.66 39.02 8.1 49.27 22.4 9.77 13.64 3.61 23.16-8.38 31.8m-70.6 58.12c-20.42-1.92-42.9-15.91-53.67-33.35-7.43-12.02-5.1-28.15-2.86-41.53.73 1.84.94 2.4 1.4 3.63 7.09 18.64 34.74 28.97 52.72 32.87zm41.73-83.77-12.92 18.75-1.78 38.74-2.47 53.86-2.23 3.63-5.76 9.41c-.2-.23-.76-1.02-1.49-2.1-2.41-3.56-6.75-10.32-6.87-10.94-.48-8.8-.98-17.6-1.49-26.4a4605 4605 0 0 0-4.39-67.07l-2.46-3.47-10.21-14.4c.08-.11.16-.22.24-.34 2.05-3.02 4.4-5.84 6.61-8.74.52-.68 1.04-1.36 1.53-2.05.75-1.05 2.03-2.79 3.51-4.84 4-5.54 9.45-13.39 9.93-16.44.01-.09.03-.18.03-.26.13-2.06.2-4.06.24-6.03v-.13c.07-3.65.02-7.2-.08-10.75v-.15c-.02-.75-.05-1.5-.07-2.25-.05-1.67-.1-3.34-.16-5.04l-3.13-3.99-8.49-10.77c-.61-.71-.76-1.7-.29-2.29v-.01s.01 0 .01-.01c.16-.19.38-.33.68-.41q.27-.075.6-.06c1.6.04 5.66-.01 10.34-.06.29 0 .59-.01.89-.01l3.76-.03c1.58.02 3.15.03 4.65.04 4.68.05 8.74.1 10.34.06q.33 0 .6.06c1.22.32 1.22 1.78.4 2.72l-11.62 14.76c-.08 2.47-.16 4.88-.23 7.29-.1 3.65-.37 7.29-.3 11.03h.01c-.01.44-.03.87-.03 1.3.01 1.59.03 3.18.08 4.73.04 1.11.79 2.77 1.83 4.61.53.93 1.13 1.91 1.77 2.88 1.82 2.79 3.86 5.54 4.89 7.05 1.41 2.06 2.89 4.06 4.4 6.05 2.86 3.76 5.8 7.45 8.56 11.27.19.27.38.53.57.8m-20.67-.48-5.4 12.73c-1.87-4.41-5.12-12.57-5.12-12.57s3.73-4.82 5.12-6.64c2.59 2.95 2.81 3.17 5.4 6.48" style="fill:red"/><path d="M160.477 83.588c-1.68-5.07-4.13-9.84-7.63-14.01a63 63 0 0 0-6.92-7.05c-9.46-8.28-20.83-13.33-32.96-16.42-7.12-1.81-14.51-2.95-21.91-3.66l.47-16.44 11.78-14.6C105.503.175 102.677.065 100.92 0L60.769.065c-1.591.092-4.45.362-2.22 11.343.034.172 11.779 14.6 11.779 14.6l.1 16.45v.01c-28.42 1.29-59.53 14.89-67.91 42.98a52 52 0 0 0-2.06 11.48c-.21 3.13-.37 6.06-.43 8.84-.3 13.27 1.69 23.13 11.7 34.63 3.3 3.79 6.97 7.32 10.93 10.52.07.05.13.11.2.16 12.1 9.74 26.89 16.4 42.23 18.18.25 1.94.45 3.89.62 5.85.14 1.58.24 3.17.34 4.76.27 4.32.43 8.66.66 12.96l14.98 23.58 4.76-7.19 10.59-16.39.65-16.46.26-6.73c2.12-.26 4.21-.58 6.26-.97 10.1-1.91 19.3-5.44 27.87-10.69 3.59-2.2 7.07-4.7 10.45-7.52 9.6-8.01 18.3-17.7 20.43-30.26.2-1.16.36-2.34.44-3.55.23-3.35.36-6.8.34-10.28-.05-7.71-.88-15.56-3.26-22.78m-16.34-11.04c4.34 6.07 5.53 11.32 4.46 16.05-1.33 5.89-6.18 10.95-12.84 15.75-6.74-5.17-13.35-11.19-21-15.07-1.63-.83-3.3-1.57-5.04-2.17.92-1.35 4.56-7.18 5.69-8.79l-9.46-12.02-4.29-5.44-2.67-4.22-4.12-6.49c16.73 1.66 39.02 8.1 49.27 22.4m-18.63 34.71c-10.32 6.73-19.06 8.5-25.56 9.1l-.29.03c.01-.4.5-11.54 1.07-16.92.1-.89 2.98-4.95 3.56-5.12 2.48-.75 19.9 11.93 21.22 12.91m-109.57-26.98c4.32-19.22 33.54-28.35 50.66-30.13.12.11-.19.77-.74 1.7-1.66 2.82-5.5 8.23-6.06 9.01-.85 1.2-1.74 2.38-2.63 3.55-3.44 4.56-7.08 8.98-10.63 13.44.99 1.75 3.15 5.53 4.64 8.22.2.36.39.71.56 1.03a187 187 0 0 0-17.47 10.58c-1.04.71-2.39 1.76-3.92 2.99-.81.64-1.66 1.34-2.55 2.06-7.13-6.3-14.23-11.87-11.86-22.45m40.85 13.61c.28.03 2.66 3.32 3.58 4.86.22.35.35.61.36.71.64 5.33 1.07 10.4 1.07 15.49-4.68-1.25-9.3-2.75-13.79-4.57-3.14-1.27-6.22-2.69-9.2-4.31 2.17-2.22 4.58-4.14 7.12-5.89 3.44-2.37 7.13-4.39 10.86-6.29m-45.3 35.23c-1.86-3-3.1-6.27-3.9-9.68-1.87-8.09-1.18-17.02.02-25.36.31-2.21.67-4.38 1.02-6.49.5 1.26.76 1.92 1.02 2.61.12.31.24.63.38 1.02 1.77 4.66 4.83 8.8 8.7 12.45 10.56 9.97 27.17 16.28 40.24 19.53 1.29.33 2.56.62 3.78.89l1.66 26.36.75 12.02c-20.42-1.92-42.9-15.91-53.67-33.35m82.44-31.67-1.78 38.74-2.47 53.86-2.23 3.63-5.76 9.41c-.2-.23-.76-1.02-1.49-2.1-2.41-3.56-6.75-10.32-6.87-10.94-.48-8.8-.98-17.6-1.49-26.4a4605 4605 0 0 0-4.39-67.07l-2.46-3.47-10.21-14.4c.08-.11.16-.22.24-.34 2.05-3.02 4.4-5.84 6.61-8.74.52-.68 1.04-1.36 1.53-2.05.75-1.05 2.03-2.79 3.51-4.84 4-5.54 9.45-13.39 9.93-16.44.01-.09.03-.18.03-.26.13-2.06.2-4.06.24-6.03v-.13c.07-3.65.02-7.2-.08-10.75v-.15c-.02-.75-.05-1.5-.07-2.25-.05-1.67-.1-3.34-.16-5.04l-3.13-3.99-8.49-10.77c-.61-.71-.76-1.7-.29-2.29v-.01s.01 0 .01-.01c.16-.19.38-.33.68-.41q.27-.075.6-.06c1.6.04 5.66-.01 10.34-.06.29 0 .59-.01.89-.01l3.76-.03c1.58.02 3.15.03 4.65.04 4.68.05 8.74.1 10.34.06q.33 0 .6.06c1.22.32 1.22 1.78.4 2.72l-11.62 14.76c-.08 2.47-.16 4.88-.23 7.29-.1 3.65-.37 7.29-.3 11.03h.01c-.01.44-.03.87-.03 1.3.01 1.59.03 3.18.08 4.73.04 1.11.79 2.77 1.83 4.61.53.93 1.13 1.91 1.77 2.88 1.82 2.79 3.86 5.54 4.89 7.05 1.41 2.06 2.89 4.06 4.4 6.05 2.86 3.76 5.8 7.45 8.56 11.27.19.27.38.53.57.8zm63.24 16.32c-.15 2.7-.48 5.07-.99 7.27-1.23 5.25-3.58 9.46-7.45 14.51-6.39 8.32-15.59 15.24-25.7 20.09-4.13 1.98-8.4 3.59-12.7 4.83-4.21 1.21-8.45 2.07-12.59 2.48l.61-13.85 1.04-23.62c5.79-1.23 12.12-2.89 18.39-5.07 10.43-3.63 20.7-8.74 28.18-15.87l.04-.04c.11-.11.22-.22.33-.32a44 44 0 0 0 3.14-3.4c.25-.3.45-.57.67-.86 1.17-1.51 1.96-2.84 2.62-4.23.69-1.46 1.27-3 2.03-4.95.08-.21.13-.45.21-.66.11-.29.28-.53.71-.57.35 2.06.65 4.15.89 6.24.52 4.5.77 9.05.71 13.59-.01 1.48-.05 2.96-.14 4.43M80.729 60.717zl-12.05 16.06v.001l12.134 33.849.003-.007.002.007 11.94-33.84-5.866-7.836zm-1.806 25.657c-1.606-3.939-3.223-7.996-3.223-7.996s2.879-3.715 4.515-5.853l.6-.782c2.598 2.944 2.813 3.17 5.4 6.474l-5.4 12.725a395 395 0 0 1-1.892-4.568"/></svg>