<svg xmlns="http://www.w3.org/2000/svg" xml:space="preserve" width="150.001" height="86.883" viewBox="0 0 150.001 86.883"><g transform="translate(-5.36 -4.388)"><path d="M39.305 91.271c-14.092 0-27.129-2.186-27.259-2.207l-2.512-.424-3.171-33.503 10.747 4.457.452.434c.019.019.479.45 1.301 1.11l9.577-25.453 2.281-.015c.021 0 6.497-.047 11.337-.047 1.162 0 2.686-.019 4.409-.153.733-.765 2.007-2.367 2.007-4.27 0-3.841-4.35-6.044-11.934-6.044-11.647 0-19.237 6.754-19.313 6.821l-.359.329-.444.216c-2.176 1.046-4.978 2.7-5.096 2.771L5.36 38.836l4.523-31.55 2.315-.452c.507-.101 12.587-2.446 25.377-2.446 7.761 0 16.767.344 24.728 2.896 7.69 2.467 12.831 6.546 15.322 12.15a39 39 0 0 1 3.287-3.464c7.856-7.329 18.791-11.366 30.789-11.366s22.932 4.037 30.789 11.366c8.42 7.855 12.871 18.847 12.871 31.784s-4.451 23.928-12.871 31.784c-7.857 7.329-18.791 11.366-30.789 11.366s-22.933-4.037-30.789-11.366a39 39 0 0 1-1.996-2.005c-3.412 4.316-8.344 7.799-14.377 10.133-6.185 2.392-14.675 3.605-25.234 3.605M21.026 62.752c3.626 2.517 9.725 5.868 16.489 5.868 9.495 0 15.164-2.409 15.164-6.446 0-5.341-7.409-6.138-11.825-6.138-8.921 0-15.056 3.724-15.116 3.761z"/><linearGradient id="a" x1="12.835" x2="152.04" y1="47.829" y2="47.829" gradientUnits="userSpaceOnUse"><stop offset="0" style="stop-color:#626e77"/><stop offset=".079" style="stop-color:#65727b"/><stop offset=".161" style="stop-color:#707e88"/><stop offset=".244" style="stop-color:#81929c"/><stop offset=".328" style="stop-color:#99adb9"/><stop offset=".35" style="stop-color:#a0b6c2"/><stop offset=".378" style="stop-color:#a7becb"/><stop offset=".447" style="stop-color:#b3ccdb"/><stop offset=".5" style="stop-color:#b7d1e1"/><stop offset=".553" style="stop-color:#b3ccdb"/><stop offset=".622" style="stop-color:#a7becb"/><stop offset=".65" style="stop-color:#a0b6c2"/><stop offset=".731" style="stop-color:#8b9da8"/><stop offset=".836" style="stop-color:#74838d"/><stop offset=".929" style="stop-color:#67747d"/><stop offset="1" style="stop-color:#626e77"/></linearGradient><path fill="url(#a)" d="M89.908 47.692c0 24.374 14.838 36.181 30.928 36.181 6.202 0 12.576-1.91 18.068-5.594 8.072-6.816 13.136-17.195 13.136-30.525 0-14.481-5.977-25.48-15.292-32.212-4.918-2.757-10.428-4.186-15.912-4.186-16.554 0-30.928 11.962-30.928 36.336m46.367-.912c0 17.155-8.439 26.15-21.143 26.15s-21.144-9.365-21.144-26.15 8.438-26.15 21.144-26.15c12.704 0 21.143 8.994 21.143 26.15M63.341 84.568c-7.959 3.079-19.082 3.626-28.885 3.299 19.299-1.355 31.621-11.15 31.621-21.612 0-9.83-7.233-19.846-20.958-19.846-11.911 0-19.36 8.352-21.123 10.559l-.021.013 6.77-17.99s6.491-.046 11.314-.046c1.253 0 3.371-.017 5.819-.268C54.85 37.962 64.5 35.338 64.5 25.729c0-12.982-15.811-16.923-35.888-16.923-5.508 0-10.978.561-15.775 1.295l-.002.001.001-.01s12.19-2.385 24.74-2.385 37.866.727 38.454 19.723c.382 12.347-11.252 14.898-14.498 15.918v.324s10.201.789 16.414 9.69c6.213 8.905 3.014 24.39-14.605 31.206" style="fill:url(#a)"/><linearGradient id="b" x1="9.633" x2="128.926" y1="47.753" y2="47.753" gradientUnits="userSpaceOnUse"><stop offset="0" style="stop-color:#b7d1e1"/><stop offset=".12" style="stop-color:#b0c9d8"/><stop offset=".3" style="stop-color:#a0b6c2"/><stop offset=".326" style="stop-color:#8ea2ad"/><stop offset=".363" style="stop-color:#7b8b95"/><stop offset=".403" style="stop-color:#6d7b84"/><stop offset=".446" style="stop-color:#65717a"/><stop offset=".5" style="stop-color:#626e77"/><stop offset=".554" style="stop-color:#65717a"/><stop offset=".597" style="stop-color:#6d7b84"/><stop offset=".637" style="stop-color:#7b8b95"/><stop offset=".674" style="stop-color:#8ea2ad"/><stop offset=".7" style="stop-color:#a0b6c2"/><stop offset=".757" style="stop-color:#a7becb"/><stop offset=".894" style="stop-color:#b3ccdb"/><stop offset="1" style="stop-color:#b7d1e1"/></linearGradient><path fill="url(#b)" d="M126.412 85.247c-4.559 1.539-9.52 2.335-14.711 2.335-12.952 0-24.477-4.953-31.857-14.046a22.6 22.6 0 0 0 1.955-4.541c1.801-5.903.951-11.988-2.332-16.692-2.375-3.404-5.27-5.705-8.03-7.264q.122-2.276.442-4.427c3.363-2.62 6.206-6.727 6.004-13.239a22 22 0 0 0-.207-2.43C84.84 13.962 97.401 7.925 111.701 7.925c4.563 0 8.947.616 13.037 1.81a33 33 0 0 0-3.902-.233c-9.033 0-17.209 3.414-23.023 9.614-6.384 6.806-9.758 16.688-9.758 28.577 0 26.274 16.463 38.035 32.781 38.035 1.867 0 3.733-.164 5.576-.481M14.98 29.531s8.3-7.696 21.561-7.696 15.255 6.213 15.255 9.365c0 2.21-.938 4.046-1.896 5.346 8.458-1.326 12.746-4.958 12.746-10.816 0-5.3-3.027-9.098-9.254-11.61-5.687-2.295-14.023-3.459-24.779-3.459-4.737 0-9.928.426-15.428 1.266l-.631.144-2.92 20.368c-.001-.001 2.967-1.762 5.346-2.908M56 62.174c0 5.873-6.121 9.767-18.485 9.767s-22.256-9.52-22.256-9.52l-5.069-2.102 2.382 25.168c3.604.278 8.726.535 15.983.674q.65.012 1.291.012c21.518 0 34.376-10.128 34.376-19.918 0-8.94-6.562-17.99-19.104-17.99-7.497 0-13.149 3.638-16.504 6.591a36.2 36.2 0 0 1 12.239-2.141C50.93 52.715 56 56.301 56 62.174m59.133 7.279c.406 0 .092-9.211 5.912-15.97 2.102-2.443 5.149-4.104 7.881-5.08 0 0-.787-8.682-1.418-13.589h-.275s-.382 5.969-2.037 10.927c0 0-.456-.138-1.215-.332-2.33-7.987-2.582-15.211-2.582-15.211h-.354c-.555 7.856-1.475 12.403-1.917 14.241q-.742-.107-1.512-.181c-.209-.916-.599-2.763-1.026-5.417-.63-3.92-.828-6.666-.984-9.084-.158-2.417-.197-4.029-.473-4.029-.277 0-.316 1.612-.474 4.029-.159 2.418-.354 5.164-.986 9.084-.426 2.654-.815 4.501-1.024 5.417a31 31 0 0 0-1.512.181c-.443-1.838-1.363-6.385-1.916-14.241h-.355s-.25 7.224-2.581 15.211c-.76.194-1.216.332-1.216.332-1.655-4.958-2.036-10.927-2.036-10.927h-.276c-.629 4.907-1.418 13.589-1.418 13.589 2.732.977 5.78 2.637 7.883 5.08 5.817 6.759 5.503 15.97 5.911 15.97" style="fill:url(#b)"/></g></svg>