<svg xmlns="http://www.w3.org/2000/svg" width="300" height="197"><linearGradient id="a" x1="77.839" x2="219.232" y1="151.677" y2="-16.829" gradientUnits="userSpaceOnUse"><stop offset="0" style="stop-color:#536e78"/><stop offset=".4" style="stop-color:#d9eaf3"/><stop offset=".9" style="stop-color:#536e78"/></linearGradient><path fill="url(#a)" d="m292.996 15.908-15.91-2.288C235.463 7.634 192.705 4.599 150 4.599S64.537 7.634 22.914 13.62l-15.91 2.288 9.915 13.825c14.92 20.803 27.71 48.381 9.449 95.192l-3.622 9.286 8.505 3.889 115.231 52.692 3.519 1.609 3.519-1.609L268.75 138.1l8.505-3.889-3.623-9.286c-18.262-46.811-5.471-74.389 9.449-95.192Z" style="fill:url(#a)"/><path d="m300 11.862-16.689-2.4C239.649 3.184 194.797 0 150 0S60.351 3.184 16.689 9.462L0 11.862l10.401 14.502c15.651 21.822 29.067 50.751 9.911 99.855l-3.8 9.741 8.922 4.08 120.875 55.273L150 197l3.691-1.688 120.875-55.273 8.922-4.08-3.8-9.741c-19.156-49.104-5.739-78.032 9.911-99.855Zm-92.619 147.519V12.286c25.305 1.548 50.233 4.073 74.682 7.589-20.89 29.127-30.124 61.935-11.189 110.472zM150 185.62l-36.739-16.8V11.239A943 943 0 0 1 150 10.502c12.328 0 24.572.262 36.739.737v157.582ZM29.125 130.348C48.06 81.81 38.826 49.002 17.936 19.875c24.449-3.516 49.377-6.041 74.682-7.589v147.095z"/></svg>