<svg xmlns="http://www.w3.org/2000/svg" xmlns:xlink="http://www.w3.org/1999/xlink" width="434.997" height="500.75"><defs><linearGradient id="a"><stop offset="0" style="stop-color:#7f6e41"/><stop offset=".25" style="stop-color:#ae975f"/><stop offset=".5" style="stop-color:#e3cd99"/><stop offset=".75" style="stop-color:#ae975f"/><stop offset="1" style="stop-color:#7f6e41"/></linearGradient><linearGradient xlink:href="#a" id="b" x1="56.64" x2="453.36" y1="271.421" y2="271.421" gradientTransform="translate(-37.501 -22.69)" gradientUnits="userSpaceOnUse"/></defs><path d="M217.499 0c-34.384.015-65.349 17.126-78.381 43.313-21.053-5.572-33.526-15.682-48.932-29.563-20.708 13.384-32.57 36.94-32.812 53.5-13.408-4.621-18.393-9.79-35.258-23.248-30.49 41.948-32.523 105.455 13.383 131.394v12.229c-9.823.713-19 15.923-19 26.9v62.418c66.287 104.553 120.6 175.305 201 223.807 80.398-48.502 134.712-119.254 201-223.807v-62.418c0-10.977-9.178-26.187-19-26.9v-12.229c45.905-25.94 43.872-89.446 13.382-131.394-16.865 13.458-21.85 18.627-35.257 23.248-.242-16.56-12.105-40.116-32.813-53.5-15.405 13.881-27.879 23.99-48.931 29.563C282.847 17.126 251.882.014 217.499 0" style="fill:#000"/><path d="M217.499 104.875c-10.407 45.924-33.834 54.375-43.993 54.375H57.852a3.595 3.595 0 0 0-3.603 3.604v26.292a3.595 3.595 0 0 0 3.603 3.604h109.729c21.786 0 40.317 1.637 49.918 62.75 9.6-61.113 28.131-62.75 49.918-62.75h109.728a3.595 3.595 0 0 0 3.604-3.604v-26.292a3.595 3.595 0 0 0-3.604-3.604H261.491c-10.159 0-33.586-8.45-43.992-54.375" style="fill:#fff"/><path d="M217.499 19.371a66.36 52.504 0 0 0-63.715 37.83 66.36 52.504 0 0 0-1.867 7.092c-21.551-3.132-43.045-8.135-61.246-23.838-14.638 8.2-15.372 36.613-15.172 48.295-22.217-.997-33.299-5.732-47.432-15.01-15.26 30.33-11.645 68.553 16.182 84.01 3.028-7.287 11.541-10 17.125-10h113.375c7.03 0 23.595 0 42.75-75.875 19.154 75.875 35.72 75.875 42.75 75.875h113.375c5.583 0 14.097 2.713 17.125 10 27.826-15.457 31.442-53.68 16.181-84.01-14.133 9.278-25.214 14.013-47.431 15.01.2-11.682-.534-40.095-15.172-48.295-18.202 15.703-39.696 20.706-61.246 23.838a66.36 52.504 0 0 0-1.868-7.092 66.36 52.504 0 0 0-63.714-37.83M47.706 203.734a11.996 11.996 0 0 0-12.022 12.022v55.508c9.684 16.064 19.66 32.263 30.322 48.431 4.804-.21 13.243-2.292 13.243-13.32V269.75c0-6.786 5.463-12.25 12.25-12.25 6.786 0 12.25 5.464 12.25 12.25v102.3c12.092 15.16 25.277 30.115 39.857 44.735 6.474-.151 12.143-6.635 12.143-13.982v-76.178c0-6.856 5.519-12.375 12.375-12.375s12.375 5.52 12.375 12.375v123.734a517 517 0 0 0 37 27.733 517 517 0 0 0 37-27.733V326.625c0-6.856 5.519-12.375 12.375-12.375s12.375 5.52 12.375 12.375v76.178c0 7.347 5.668 13.83 12.142 13.982 14.58-14.62 27.765-29.575 39.858-44.734V269.75c0-6.786 5.463-12.25 12.25-12.25 6.786 0 12.25 5.464 12.25 12.25v36.625c0 11.028 8.439 13.11 13.242 13.32 10.662-16.168 20.639-32.367 30.322-48.431v-55.508c0-6.66-5.362-12.022-12.021-12.022H258.864c-18.98 1.408-24.67 22.254-27.707 35.676-9.006 39.8-11.734 101.003-13.658 121.656-1.924-20.653-4.653-81.855-13.659-121.656-3.037-13.422-8.727-34.268-27.707-35.676z" style="fill:url(#b)"/></svg>