<svg xmlns="http://www.w3.org/2000/svg" width="235.688" height="276.906"><path d="m11.576 160.016 124.549-98.268V96.44l93.26-73.58-15.863 40.879-1.273 40.415-110.071 86.845v-35.065l-63.253 49.905z"/><path d="M0 0v37.875c13.223 11.743 16.313 26.216 16.313 42.906v71.125l-11.594 8.625c9.74 57.818 113.125 116.375 113.125 116.375s103.385-58.557 113.125-116.375l-11.594-8.625V80.5c0-16.414 3.089-30.882 16.313-42.625V0h-89.532l-14.812 13.781v8.407c0 7.455-6.044 13.5-13.5 13.5s-13.5-6.045-13.5-13.5V13.78L89.53 0Z" style="fill:gray"/><path d="M12.875 12.563V33.03c12.708 9.355 16.406 30.711 16.406 47.125v73.813L129.844 73.75v35.656L214.625 42.5c2.182-3.768 4.876-7.03 8.188-9.469V12.563h-72.188l-5.875 6.156v3.468c0 14.858-12.05 26.907-26.906 26.907-14.857 0-26.906-12.05-26.906-26.906v-3.47l-5.876-6.155zm193.531 88.187-97.937 77.281V142.97L39.25 197.594c29.887 35.684 78.594 64.344 78.594 64.344s79.881-46.967 97.812-95.532l-9.25-7.375z"/></svg>