<svg xmlns="http://www.w3.org/2000/svg" xmlns:xlink="http://www.w3.org/1999/xlink" width="600" height="236.289"><radialGradient id="a" cx="0" cy="0" r="1" fx="0" fy="0" gradientTransform="matrix(20.17003 0 0 -20.17003 138.345 370.132)" gradientUnits="userSpaceOnUse" spreadMethod="pad"><stop offset="0" style="stop-color:#bf99c3"/><stop offset=".663" style="stop-color:#7b5190"/><stop offset="1" style="stop-color:#612c75"/></radialGradient><radialGradient xlink:href="#a" id="b" cx="0" cy="0" r="1" fx="0" fy="0" gradientTransform="translate(324.957 118.137)scale(186.18488)" gradientUnits="userSpaceOnUse" spreadMethod="pad"/><path d="M146.75 37.283s-8.076 18-12.867 28.67H105.36v21.13A280926 280926 0 0 1 0 118.09l52.098 15.434s37.754 11.068 53.262 15.646v21.166h28.523c4.79 10.68 29.668 65.954 29.668 65.954s18.757-56.326 22.615-67.864h3.526c5.668 18.138 19.948 29.861 29.243 34.477l23.077 11.575v-45.508c19.763-3.498 30.545-13.449 35.77-23.4h172.615c5.04 6.6 13.015 11.428 23.215 11.428h112.68l4.8-6.379c1.477-1.984 8.908-12.766 8.908-30.544v-3.896c0-17.741-7.43-28.56-8.908-30.535l-4.8-6.388h-112.68c-10.2 0-18.175 4.837-23.215 11.437H277.782c-5.225-9.923-16.007-19.874-35.77-23.409V21.785L218.935 33.36c-9.295 4.615-23.575 16.366-29.243 34.505h-3.526A132449 132449 0 0 1 163.551 0Z" style="fill:#fff"/><path d="M584.022 116.178c0-13.301-5.696-20.944-5.696-20.944H473.612c-11.464 0-13.338 11.428-13.338 11.428H266.03s0-24.776-39.988-24.776V47.631s-22.828 11.437-22.828 36.166h-28.56l-13.338-39.988-17.123 38.077h-22.865v17.17l-64.726 19.033v.111l64.726 19.006v17.16h22.865l17.123 38.077 13.338-39.988h28.56c0 24.739 22.828 36.167 22.828 36.167v-34.256c39.988 0 39.988-24.775 39.988-24.775h194.243s1.874 11.437 13.338 11.437h104.714s5.696-7.616 5.696-20.954z" style="fill:#612c75"/><path d="m147.545 83.4-.97 2.206H125.05v16.228l-2.677.794-52.781 15.498 52.781 15.545 2.677.794v16.19h21.526l.97 2.197 13.264 29.456 10.32-31.006.859-2.557h34.947v3.71c0 15.074 9.259 24.665 15.425 29.391v-31.19h3.72c35.51 0 36.268-20.234 36.305-21.102l.037-3.637h197.852l3.064.037.573 3.028c.147.867 1.735 8.363 9.701 8.363h102.619c1.449-2.668 4.08-8.613 4.08-17.271v-3.896c0-8.612-2.631-14.603-4.08-17.233H473.612c-7.966 0-9.554 7.504-9.701 8.363l-.573 3.064h-197.27l-3.646-.037-.037-3.637c-.037-.867-.794-21.092-36.305-21.092h-3.72v-31.19c-6.166 4.726-15.425 14.353-15.425 29.38v3.72h-34.947l-.859-2.565-10.32-31.006z" style="fill:url(#b)"/></svg>