<svg xmlns="http://www.w3.org/2000/svg" width="527.418" height="148.634"><path d="M527.418 72.37c0-13.302-5.704-20.945-5.704-20.945H416.972c-11.437 0-13.31 11.427-13.31 11.427H209.418s0-24.775-39.987-24.775V3.822s-22.819 11.436-22.819 36.166h-28.56L104.714 0 87.582 38.077H64.726v17.17L0 74.28v.11l64.726 19.007v17.16h22.856l17.132 38.077 13.338-39.988h28.56c0 24.739 22.819 36.166 22.819 36.166v-34.255c39.987 0 39.987-24.775 39.987-24.775h194.244s1.873 11.436 13.31 11.436h104.742s5.704-7.615 5.704-20.953z"/></svg>