<svg xmlns="http://www.w3.org/2000/svg" width="725.01" height="1039.9" data-name="Layer 2" viewBox="0 0 725.01 1039.9"><defs><linearGradient id="a" x1="-597.49" x2="-596.49" y1="519.95" y2="519.95" gradientTransform="matrix(0 0 0 0 .01 1039.92)" gradientUnits="userSpaceOnUse"><stop offset="0"/><stop offset="1"/></linearGradient><linearGradient id="b" x1="-597.49" x2="-596.49" y1="1060.02" y2="1060.02" gradientTransform="scale(619.43 -619.43)rotate(36.69 1301.552 1430.689)" gradientUnits="userSpaceOnUse"><stop offset="0" stop-color="#bb2c26"/><stop offset=".04" stop-color="#bf3526"/><stop offset=".11" stop-color="#cb4d25"/><stop offset=".19" stop-color="#de7523"/><stop offset=".21" stop-color="#e17a23"/><stop offset=".29" stop-color="#ee8b1f"/><stop offset=".38" stop-color="#f5951e"/><stop offset=".5" stop-color="#ff9915"/><stop offset=".62" stop-color="#f5951e"/><stop offset=".71" stop-color="#ee8b1f"/><stop offset=".79" stop-color="#e17a23"/><stop offset=".8" stop-color="#e07823"/><stop offset=".85" stop-color="#d35d24"/><stop offset=".91" stop-color="#c64225"/><stop offset=".96" stop-color="#be3226"/><stop offset="1" stop-color="#bb2c26"/></linearGradient></defs><g data-name="Layer 1"><path d="m385.22 0-10.96 16.32L14.18 551.98 0 573.21l312.65 466.69h140.6l271.76-489.8Z" style="fill:url(#a);stroke-width:0"/><path d="m317.17 168.11 43.99 85.27 1.68 105.49 114.32 183.11c15.07 43.74 12.17 88.73-8.51 134.96 47.1-72.5 62.82-123.14 47.15-151.96-15.67-28.85-51.36-87.3-107.11-175.42l.41-98.2 36.08-83.29 235.7 383.06-235.7 427.12-40.76-70.1.46-112.55-123.3-169.84c-20.68-35.03-17.24-76.3 10.39-123.7-56.26 56.41-72.54 103.54-48.86 141.28l113.36 161.68-.72 102.67-38.53 70.56L45.84 573.2l271.33-405.16Z" style="fill:url(#b);stroke-width:0"/></g></svg>