<svg xmlns="http://www.w3.org/2000/svg" width="725.02" height="1039.9" data-name="Layer 2" viewBox="0 0 725.02 1039.9"><defs><linearGradient id="a" x1="-591.89" x2="-590.89" y1="519.95" y2="519.95" gradientTransform="matrix(0 0 0 0 0 1039.92)" gradientUnits="userSpaceOnUse"><stop offset="0"/><stop offset="1"/></linearGradient><linearGradient id="b" x1="-591.89" x2="-590.89" y1="1060.02" y2="1060.02" gradientTransform="rotate(143.31 292123.1 267910.092)scale(-619.43 619.43)" gradientUnits="userSpaceOnUse"><stop offset="0" stop-color="#8d742f"/><stop offset=".07" stop-color="#967d38"/><stop offset=".18" stop-color="#ae954f"/><stop offset=".2" stop-color="#b39a54"/><stop offset=".22" stop-color="#b9a059"/><stop offset=".3" stop-color="#cab068"/><stop offset=".39" stop-color="#d4ba71"/><stop offset=".5" stop-color="#d7bd74"/><stop offset=".61" stop-color="#d4ba71"/><stop offset=".7" stop-color="#cab068"/><stop offset=".78" stop-color="#b9a059"/><stop offset=".8" stop-color="#b39a54"/><stop offset=".86" stop-color="#a38a45"/><stop offset=".94" stop-color="#937a35"/><stop offset="1" stop-color="#8d742f"/></linearGradient></defs><g data-name="Layer 1"><path d="m385.22 0-10.97 16.32L14.18 551.98 0 573.21l312.65 466.69h140.59l271.78-489.8Z" style="fill:url(#a);stroke-width:0"/><path d="m317.17 168.11 43.99 85.27 1.68 105.49 114.32 183.11c15.06 43.74 12.17 88.73-8.51 134.96 47.09-72.5 62.82-123.14 47.15-151.96-15.67-28.85-51.36-87.3-107.12-175.42l.41-98.2 36.1-83.29 235.69 383.06-235.69 427.12-40.76-70.1.46-112.55-123.3-169.84c-20.68-35.03-17.24-76.3 10.39-123.7-56.27 56.41-72.55 103.54-48.88 141.28l113.36 161.68-.71 102.67-38.53 70.56L45.84 573.2l271.33-405.16Z" style="fill:url(#b);stroke-width:0"/></g></svg>