<?xml version="1.0" encoding="UTF-8" standalone="no"?>
<!-- Generator: Adobe Illustrator 27.6.1, SVG Export Plug-In . SVG Version: 6.00 Build 0)  -->

<svg
   version="1.1"
   id="Layer_1"
   x="0px"
   y="0px"
   viewBox="0 0 299.90076 160"
   xml:space="preserve"
   width="299.90076"
   height="160"
   xmlns="http://www.w3.org/2000/svg"
   xmlns:svg="http://www.w3.org/2000/svg"><defs
   id="defs6" />
<style
   type="text/css"
   id="style1">
	.st0{fill:#FFFFFF;}
</style>
<g
   id="g6"
   transform="translate(3.8527369e-4)">
	<path
   class="st0"
   d="M 280,160 H 19.3 C 19.3,160 -0.1,120.4 0,80 0,39.6 19.3,0 19.3,0 H 280 c 0,0 20,39.8 19.9,80 0.1,40.2 -19.9,80 -19.9,80"
   id="path1" />
	<path
   d="m 189.3,117.7 -3.8,-2.6 c -2.6,-1.7 -5,-3.3 -6.6,-5 -2.7,-3 -3,-5.7 -3.9,-9.5 -2.1,-9 -13.9,-34.7 -18.1,-41.8 -5.1,-8.9 -7.6,-19.4 -5.1,-25.9 l 0.3,-1.6 -6.2,-3.6 c -6.8,3 -20.9,2.3 -28,-0.6 l -5.2,8.1 c 2.7,1.3 15.2,6.5 13.5,9.9 -4,7.6 -6.7,10.3 -7.8,11.3 -2.1,1.9 -2.2,4.5 -0.1,7.1 l 3.5,3.9 c 2.3,2.3 4.2,2 6.5,0.4 0.9,-0.4 2.1,-1 3.3,1.6 5.2,10.8 13,25 16,36.3 2,7.5 -8,13.6 -12.6,17.6 l 6.5,7 c 12.8,-10.2 35.4,-6.6 48.8,-2.2 l 2.7,-6.5 c -1,-1.5 -2.1,-2.8 -3.7,-3.9 z"
   id="path2" />
	<path
   d="M 274.2,9.6 H 25.9 C 15.3,34.1 9.7,53 9.7,80 c 0,27 5.6,45.8 16.2,70.4 H 274.2 C 284.8,125.9 290.4,107 290.4,80 290.4,53 284.8,34.1 274.2,9.6 Z m -6.1,131.5 H 32 c -1.9,-4.5 -3.6,-8.9 -5.1,-13.3 8.6,-4.5 19.1,-4.8 28.5,-3.4 v -7 l -2.2,-0.9 c -0.6,-0.3 -1.5,-0.9 -2.6,-1.9 -6.4,-5.8 4.8,-27.5 7.8,-34.2 1.5,-3.9 -0.1,-5.6 -2.5,-6.7 l -5,-2.2 c -2.2,-1.3 -5,-1.3 -6.2,2 -3.9,7.4 -6.1,15.5 -8.9,23.4 -3.2,8.5 -5.8,15.6 -11.9,21.5 -3.3,-12.1 -5,-24.2 -5,-38.5 0,-22.9 4.3,-40.4 13,-61.1 H 268 c 8.7,20.7 13,38.1 13.1,61.1 0,23.1 -4.3,40.5 -13,61.2 z"
   id="path3" />
	<path
   d="m 117.6,76.7 c 1.6,-2 2.6,-4.5 0.1,-7 l -3.9,-4.4 c -2,-1.9 -4.7,-1.8 -6.8,0.2 l -1.7,1.4 C 98.6,62 95.2,54.1 90.8,47.2 87.4,42.1 82.6,37.1 82.4,30.8 l -33.5,-0.9 -2.7,3.5 -1.9,2.5 c -0.8,1.1 0.3,3.2 2.3,3.6 l 2.6,0.5 c 2.2,0.5 4.2,1.1 5.2,1.8 2.3,1.5 -3.2,14.7 -4.1,17.1 -2.2,3.9 -0.7,5.7 2.2,7.2 l 5.1,2.4 c 3.2,1.4 5.4,0.5 6.6,-2.6 l 1.1,-2.5 c 0.5,-0.9 1,-1.7 1.4,-2.2 l 1.6,-0.5 c 11.2,6.3 29.5,53 27,68.9 l -0.7,2.6 8.8,4.9 c 3.5,-7.6 12.5,-16.3 20.8,-17.8 -1.1,-5.4 -2.5,-10.5 -4.4,-15.6 -2.8,-8 -8.2,-19.3 -2.2,-27 z"
   id="path4" />
	<path
   d="m 210,91.9 c -0.2,-1.3 -0.4,-2.9 -0.4,-4.6 V 28.4 h -1.1 -1.5 l -0.3,0.3 c -6.4,5.8 -17.6,11.8 -24.2,13.4 l -0.8,0.2 v 0.9 2.2 h 1.1 9.9 v 52.8 l -11,4 v 0.8 1 1.1 h 1.1 37.8 v -1.1 -1.9 l -0.9,-0.2 c -5.6,-1.4 -8.6,-4.1 -9.7,-10 z"
   id="path5" />
	<path
   d="M 268.9,77.1 C 266.8,65.1 256,54.5 234.9,53.9 L 236,42.6 h 29.3 V 41.5 24.2 h -1.1 -1 l -0.3,0.5 -3.3,4.8 h -31 l -0.1,1 -4.2,38.2 h 1.2 c 21.3,0 29.1,8.6 30.4,15.5 l 0.2,2 c -0.1,6.3 -3.1,10.1 -8.8,11.2 -0.9,0.2 -1.8,0.2 -2.8,0.2 -6.3,-0.1 -10.7,-3.7 -11.7,-9.5 -0.1,-0.8 -0.2,-1.7 -0.2,-2.5 v -0.8 l -0.8,-0.2 -1.1,-0.3 -0.5,0.7 -7.9,11.8 -0.5,0.8 0.6,0.6 c 5,5 12.2,8.1 20.2,8.1 2.3,0 4.4,-0.2 6.4,-0.5 13.5,-2.3 20.3,-12.5 20.2,-23.8 0.1,-1.9 0,-3.4 -0.3,-4.9 z"
   id="path6" />
</g>
</svg>
