<?xml version="1.0" encoding="UTF-8" standalone="no"?>
<!-- Generator: Adobe Illustrator 27.6.1, SVG Export Plug-In . SVG Version: 6.00 Build 0)  -->

<svg
   version="1.1"
   id="Layer_1"
   x="0px"
   y="0px"
   viewBox="0 0 300.00037 160"
   xml:space="preserve"
   width="300.00037"
   height="160"
   xmlns="http://www.w3.org/2000/svg"
   xmlns:svg="http://www.w3.org/2000/svg"><defs
   id="defs8" />
<style
   type="text/css"
   id="style1">
	.st0{fill:url(#SVGID_1_);}
</style>
<linearGradient
   id="SVGID_1_"
   gradientUnits="userSpaceOnUse"
   x1="2.3276999"
   y1="105.6437"
   x2="297.5994"
   y2="54.288502">
	<stop
   offset="0"
   style="stop-color:#BF331C"
   id="stop1" />
	<stop
   offset="0.5"
   style="stop-color:#F6B91D"
   id="stop2" />
	<stop
   offset="1"
   style="stop-color:#BF331C"
   id="stop3" />
</linearGradient>
<path
   class="st0"
   d="M 149.8,0 H 19.4 C 19.4,0 0,39.6 0,80 c 0,40.4 19.4,80 19.4,80 h 260.7 c 0,0 20,-39.8 19.9,-80 C 300,39.7 280.1,0 280.1,0 H 149.8"
   id="path3"
   style="fill:url(#SVGID_1_)" />
<path
   d="m 185.8,114 c -2.5,-1.7 -4.8,-3.2 -6.3,-4.8 -2.7,-2.9 -2.9,-5.5 -3.7,-9.2 -2.1,-8.8 -13.5,-33.6 -17.4,-40.4 -4.9,-8.6 -7.4,-18.7 -4.9,-25 l 0.4,-1.6 -6.1,-3.5 c -6.5,2.9 -20.3,2.3 -27,-0.5 l -5.1,7.8 c 2.6,1.3 14.7,6.3 13,9.6 -3.8,7.3 -6.4,9.9 -7.5,10.9 -2,1.8 -2.2,4.3 -0.1,6.8 l 3.5,3.8 c 2.1,2.2 4,1.9 6.3,0.4 0.9,-0.4 2,-0.9 3.2,1.5 5,10.5 12.6,24.1 15.4,35.1 2,7.2 -7.8,13.2 -12.1,16.9 l 6.3,6.8 c 12.3,-9.9 34.2,-6.4 47.2,-2.2 l 2.6,-6.3 c -1.2,-1.5 -2.3,-2.6 -3.8,-3.8 z"
   id="path4" />
<path
   d="m 120.2,76.9 c 1.6,-1.9 2.5,-4.4 0.2,-6.8 l -3.8,-4.2 c -1.9,-1.8 -4.5,-1.7 -6.6,0.2 l -1.7,1.3 C 101.8,62.7 98.5,55.1 94.2,48.4 91,43.5 86.4,38.6 86.1,32.5 L 53.7,31.6 51,35 49.2,37.5 c -0.7,1 0.3,3.1 2.3,3.4 l 2.5,0.5 c 2.1,0.5 4.1,1.1 5.1,1.7 2.3,1.5 -3.1,14.2 -3.9,16.5 -2.2,3.8 -0.7,5.6 2.1,7 l 4.9,2.3 c 3.1,1.3 5.3,0.5 6.4,-2.5 l 1.1,-2.5 C 70.2,63 70.6,62.3 71,61.8 l 1.5,-0.5 c 10.8,6.1 28.5,51.2 26.1,66.6 l -0.6,2.5 8.5,4.8 c 3.4,-7.3 12.1,-15.7 20.2,-17.2 -1,-5.2 -2.5,-10.1 -4.3,-15.1 -2.9,-7.6 -8,-18.5 -2.2,-26 z"
   id="path5" />
<path
   d="m 290.4,80 c 0,-27 -5.6,-45.9 -16.2,-70.3 L 26,9.7 C 15.4,34.2 9.8,53 9.8,80 c 0,27 5.6,45.8 16.2,70.4 h 248.2 c 10.6,-24.6 16.2,-43.5 16.2,-70.4 z m -22.3,61.1 H 32 c -1.9,-4.6 -3.6,-9 -5.1,-13.3 8.6,-4.5 19.1,-4.8 28.5,-3.4 v -7 l -2.1,-0.9 c -0.6,-0.3 -1.4,-0.9 -2.6,-1.9 -6.5,-5.8 4.9,-27.5 7.9,-34.2 1.4,-3.8 -0.1,-5.6 -2.5,-6.7 L 51.2,71.4 C 49,70.2 46.1,70.1 45,73.5 41,81 38.8,89 35.9,96.9 32.7,105.5 30.2,112.5 24,118.5 20.7,106.4 19,94.3 19,80 19,57.1 23.3,39.6 32,18.9 h 236.1 c 8.7,20.7 13,38.1 13.1,61.1 -0.1,23 -4.4,40.4 -13.1,61.1 z"
   id="path6" />
<path
   d="m 220.7,102 -0.9,-0.2 c -3.5,-0.8 -5.9,-2.1 -7.6,-4.3 -1.6,-2.2 -2.6,-5.5 -2.6,-10.1 v -59 h -1.1 -1.5 l -0.3,0.3 c -6.4,5.8 -17.6,11.8 -24.2,13.4 l -0.8,0.2 v 0.9 2.1 h 1.1 9.9 v 52.8 l -11.1,4 v 0.8 1.1 1.1 h 1.1 37.8 V 104 Z"
   id="path7" />
<path
   d="m 243.1,54.7 c -2.5,-0.4 -5.3,-0.7 -8.2,-0.8 L 236,42.7 h 29.3 V 41.6 24.2 h -1.1 -1 l -0.3,0.5 -3.3,4.7 h -31.1 l -0.1,1 -4.2,38.2 h 1.2 c 4,0 7.6,0.3 10.7,0.9 15,2.7 19.8,10.6 19.8,16.7 0,0.9 -0.1,1.8 -0.2,2.6 -1,5.5 -4.8,8.6 -11.5,8.7 -0.9,0 -1.7,-0.1 -2.5,-0.2 -5.7,-1 -9.4,-5.4 -9.4,-11.7 v -0.8 l -0.8,-0.2 -1.1,-0.3 -0.5,0.7 -7.9,11.7 -0.5,0.8 0.6,0.6 c 3.8,3.9 9,6.6 14.8,7.6 1.8,0.3 3.6,0.5 5.4,0.5 15.4,0.1 24.4,-8.6 26.3,-19.6 0.3,-1.6 0.4,-3.2 0.4,-4.8 0.4,-12.1 -7.8,-24 -25.9,-27.1 z"
   id="path8" />
</svg>
