<?xml version="1.0" encoding="UTF-8" standalone="no"?>
<svg
   version="1.1"
   id="Layer_1"
   x="0px"
   y="0px"
   width="300"
   height="160"
   xmlns="http://www.w3.org/2000/svg"
   xmlns:svg="http://www.w3.org/2000/svg">
  <defs
     id="defs11" />
  <g
     id="g11">
    <path
       fill="#ffffff"
       d="M 280.047,159.99 149.721,159.999 19.366,160 C 19.366,160 0.005,120.412 0,80.022 -0.006,39.633 19.357,0.01 19.357,0.01 L 149.715,0.007 280.038,0 c 0,0 19.963,39.755 19.962,80.006 0.002,40.235 -19.953,79.984 -19.953,79.984"
       id="path1" />
    <path
       d="m 299.306,92.998 -9.913,5.444 c 0.668,-5.796 1.008,-11.894 0.999,-18.469 0,-6.449 -0.345,-12.423 -0.981,-18.14 l -9.071,2.673 c 0.484,4.924 0.768,10.025 0.778,15.463 -0.002,8.724 -0.831,16.549 -2.078,24.129 l -13.679,7.513 13.372,-5.508 c -2.109,11.683 -5.539,22.828 -10.668,34.978 l -31.828,0.004 4.515,9.271 33.414,-0.001 c 4.029,-9.319 7.094,-17.795 9.659,-26.219 l -8.78,-2.02 11.4,-6.979 c 1.019,-4.289 1.69,-8.701 2.328,-13.182 l 10.004,-4.121 c 0.189,-1.609 0.365,-3.205 0.529,-4.836"
       id="path2" />
    <polyline
       points="163.154,27.149 174.504,18.889 198.07,18.89 185.976,10.543 200.451,0.005 192.93,0.002 182.335,9.655  79.144,9.661 62.964,18.885 172.229,18.887 163.154,27.149  "
       id="polyline2" />
    <polyline
       points="222.415,119.452 213.12,141.082 142.295,141.088 158.166,150.345 209.129,150.347 204.966,159.996  213.595,159.995 215.683,150.348 220.468,150.346 227.686,141.081 217.719,141.077 222.415,119.452  "
       id="polyline3" />
    <polygon
       points="67.243,6.91 78.4,0.011 43.325,0.012 "
       id="polygon3" />
    <polygon
       points="47.067,141.079 45.045,150.352 78.181,150.348 87.198,159.997 96.09,159.996 83.886,150.354 119.854,150.341 142.287,141.082 72.17,141.089 61.779,132.857 69.495,141.079 "
       id="polygon4" />
    <path
       d="m 135.253,123.302 6.464,7.034 c 12.788,-10.219 35.377,-6.597 48.805,-2.238 l 2.745,-6.489 c -1.206,-1.533 -2.408,-2.741 -3.983,-3.925 l -3.789,-2.586 c -2.578,-1.698 -4.99,-3.274 -6.555,-4.963 -2.719,-2.982 -2.979,-5.685 -3.866,-9.466 -0.755,-3.127 -2.628,-8.201 -4.926,-13.828 -0.335,-0.81 -0.671,-1.608 -1.019,-2.42 l -34.919,-24.128 26.113,4.826 c -1.278,-2.606 -2.474,-4.89 -3.283,-6.323 -5.123,-8.886 -7.685,-19.38 -5.096,-25.85 l 0.367,-1.642 -6.228,-3.584 c -6.762,3.004 -20.981,2.344 -27.99,-0.563 l -5.205,8.128 c 2.642,1.326 15.232,6.52 13.481,9.899 -3.904,7.558 -6.664,10.206 -7.816,11.248 -2.059,1.894 -2.258,4.516 -0.069,7.098 l 3.54,3.909 c 2.264,2.335 4.188,1.981 6.46,0.431 0.924,-0.437 2.125,-0.962 3.341,1.554 5.221,10.854 13.012,25.004 16.016,36.314 2.026,7.543 -8.007,13.656 -12.588,17.564"
       id="path4" />
    <path
       d="m 279.061,56.005 8.599,-4.353 C 285.048,37.693 280.673,24.668 274.17,9.656 l -57.207,-0.008 -18.892,9.237 69.993,10e-4 c 5.43,12.89 8.958,24.629 10.997,37.119"
       id="path5" />
    <path
       d="m 26.909,127.813 c 8.551,-4.438 19.066,-4.83 28.485,-3.372 l 0.005,-7.002 -2.151,-0.885 c -0.6,-0.351 -1.491,-0.877 -2.591,-1.884 -6.451,-5.804 4.873,-27.507 7.867,-34.182 1.448,-3.846 -0.066,-5.633 -2.528,-6.68 l -4.97,-2.257 c -2.208,-1.264 -5.052,-1.273 -6.219,2.023 -3.85,7.431 -6.06,15.504 -8.92,23.339 -3.186,8.546 -5.757,15.619 -11.886,21.574 -3.344,-12.076 -4.984,-24.22 -4.985,-38.502 -0.007,-4.056 0.285,-7.797 0.565,-11.557 L 30.744,64.972 19.686,66.436 C 21.108,49.762 25.108,35.294 32.019,18.895 L 62.956,18.888 59.401,9.663 25.911,9.666 C 20.552,22.068 16.634,33.111 13.952,44.464 l 6.841,11.785 -10.051,5.265 c -0.217,1.928 -0.178,4.146 -0.346,6.143 l -9.89,1.3 C 0.367,70.791 0.245,72.613 0.168,74.442 L 10.207,71.34 c -0.139,2.878 -0.476,5.568 -0.482,8.653 0.004,26.983 5.599,45.828 16.206,70.347 l 5.215,-0.004 8.849,-9.254 -7.983,-0.007 c -1.907,-4.529 -3.605,-8.944 -5.103,-13.262"
       id="path6" />
    <path
       d="m 94.644,132.193 8.8,4.958 c 3.518,-7.551 12.508,-16.304 20.855,-17.83 -1.081,-5.381 -2.556,-10.447 -4.427,-15.614 -2.902,-7.959 -8.231,-19.247 -2.245,-27.009 1.672,-1.979 2.63,-4.528 0.168,-7.05 l -3.934,-4.378 c -2.047,-1.912 -4.703,-1.765 -6.806,0.215 l -1.737,1.384 C 98.592,62.014 95.243,54.146 90.757,47.229 87.453,42.163 82.608,37.103 82.351,30.807 l -33.538,-0.941 -2.715,3.53 -1.877,2.526 c -0.795,1.104 0.294,3.215 2.32,3.587 l 2.651,0.497 c 2.139,0.515 4.245,1.131 5.25,1.8 2.337,1.486 -3.19,14.75 -4.13,17.118 -2.219,3.94 -0.721,5.739 2.222,7.194 L 57.6,68.53 c 3.187,1.374 5.389,0.488 6.565,-2.592 l 1.147,-2.577 c 0.496,-0.896 0.939,-1.662 1.357,-2.111 l 1.574,-0.552 c 6.02,3.363 14.035,18.35 19.824,34.003 l 30.068,4.386 -26.171,7.434 c 2.677,9.317 4.136,17.866 3.353,23.088 z"
       id="path7" />
    <path
       d="m 207.049,28.395 -0.329,0.295 c -6.753,6.09 -17.982,11.84 -24.222,13.368 l -0.818,0.193 0.003,3.026 10.999,10e-4 0.014,12.472 16.914,27.748 0.007,-57.098 -2.568,-0.005"
       id="path8" />
    <path
       d="m 220.614,101.955 -0.873,-0.2 c -7.084,-1.523 -10.119,-5.851 -10.111,-14.433 l -0.015,-1.83 -16.925,-7.817 -0.008,20.425 -10.993,3.977 -0.008,2.916 38.934,0.002 -0.001,-3.04"
       id="path9" />
    <path
       d="m 222.413,97.966 c 5.031,5.141 12.373,8.076 20.219,8.075 16.215,-0.003 26.67,-9.557 26.669,-24.362 0.003,-2.365 -0.351,-4.808 -1.082,-7.193 l -20.011,-0.543 c 5.787,3.721 7.905,8.639 7.9,12.233 -0.009,7.108 -4.379,11.377 -11.7,11.377 -7.121,-0.009 -11.915,-4.829 -11.925,-12.004 l -0.003,-0.767 -1.853,-0.65 -8.851,13.186 0.637,0.648"
       id="path10" />
    <path
       d="m 265.359,42.655 -0.006,-18.444 -2.139,0.009 -3.571,5.238 -31.025,-0.008 -4.18,37.949 -0.141,1.234 1.246,0.003 c 9.278,-0.01 15.908,1.649 20.596,4.025 l 16.315,-8.247 c -5.374,-5.8 -14.118,-10.118 -27.537,-10.528 l 1.15,-11.223 29.292,-0.008"
       id="path11" />
  </g>
</svg>
