<?xml version="1.0" encoding="UTF-8" standalone="no"?>
<!-- Generator: Adobe Illustrator 27.6.1, SVG Export Plug-In . SVG Version: 6.00 Build 0)  -->

<svg
   version="1.1"
   id="Layer_1"
   x="0px"
   y="0px"
   viewBox="0 0 300.00037 160"
   xml:space="preserve"
   width="300.00037"
   height="160"
   xmlns="http://www.w3.org/2000/svg"
   xmlns:svg="http://www.w3.org/2000/svg"><defs
   id="defs8" />
<style
   type="text/css"
   id="style1">
	.st0{fill:url(#SVGID_1_);}
	.st1{fill:#FFFFFF;}
</style>
<linearGradient
   id="SVGID_1_"
   gradientUnits="userSpaceOnUse"
   x1="8.3185997"
   y1="131.8513"
   x2="291.327"
   y2="28.089199">
	<stop
   offset="0"
   style="stop-color:#612C75"
   id="stop1" />
	<stop
   offset="0.5"
   style="stop-color:#BF99C3"
   id="stop2" />
	<stop
   offset="1"
   style="stop-color:#612C75"
   id="stop3" />
</linearGradient>
<path
   class="st0"
   d="M 149.8,0 H 19.4 C 19.4,0 0,39.6 0,80 c 0,40.4 19.4,80 19.4,80 h 260.7 c 0,0 20,-39.8 19.9,-80 C 300,39.7 280.1,0 280.1,0 H 149.8"
   id="path3"
   style="fill:url(#SVGID_1_)" />
<path
   class="st1"
   d="m 185.5,115.1 c -2.6,-1.7 -5,-3.3 -6.6,-5 -2.7,-3 -3,-5.7 -3.9,-9.5 -2.2,-9.1 -13.9,-34.7 -18,-41.8 -5.1,-8.9 -7.7,-19.4 -5.1,-25.9 l 0.4,-1.6 -6.3,-3.6 c -6.8,3 -21,2.4 -27.9,-0.6 l -5.2,8.1 c 2.7,1.4 15.2,6.6 13.4,9.9 -3.9,7.6 -6.6,10.2 -7.8,11.3 -2.1,1.9 -2.2,4.5 -0.1,7.1 l 3.6,3.9 c 2.2,2.3 4.2,2 6.5,0.5 0.9,-0.4 2.1,-1 3.3,1.6 5.2,10.8 13,25 16,36.3 2,7.5 -8,13.6 -12.6,17.5 l 6.5,7.1 c 12.8,-10.2 35.4,-6.6 48.8,-2.3 l 2.7,-6.5 c -1.2,-1.5 -2.4,-2.7 -4,-3.9 z"
   id="path4" />
<path
   class="st1"
   d="m 117.7,76.7 c 1.6,-2 2.6,-4.5 0.2,-7.1 L 114,65.2 c -2,-1.9 -4.7,-1.8 -6.8,0.2 l -1.7,1.4 C 98.6,62 95.2,54.1 90.8,47.2 87.5,42.1 82.7,37.1 82.4,30.8 l -33.5,-0.9 -2.7,3.5 -1.9,2.5 c -0.8,1.1 0.3,3.2 2.4,3.6 l 2.6,0.5 c 2.1,0.5 4.2,1.1 5.2,1.8 2.4,1.5 -3.2,14.7 -4.1,17.1 -2.2,4 -0.8,5.8 2.2,7.2 l 5.1,2.4 c 3.2,1.4 5.5,0.5 6.6,-2.6 l 1.1,-2.5 c 0.5,-0.9 0.9,-1.7 1.3,-2.1 l 1.6,-0.5 c 11.2,6.3 29.5,53 27,68.9 l -0.7,2.6 8.8,4.9 c 3.5,-7.5 12.5,-16.3 20.8,-17.8 -1.1,-5.4 -2.6,-10.5 -4.4,-15.6 -2.8,-8.1 -8.1,-19.4 -2.1,-27.1 z"
   id="path5" />
<path
   class="st1"
   d="m 290.4,80 c 0,-27 -5.6,-45.9 -16.2,-70.3 L 26,9.7 C 15.4,34.2 9.8,53 9.8,80 c 0,27 5.6,45.8 16.2,70.4 h 248.2 c 10.6,-24.6 16.2,-43.5 16.2,-70.4 z m -22.3,61.1 H 32 c -1.9,-4.6 -3.6,-9 -5.1,-13.3 8.6,-4.5 19.1,-4.8 28.5,-3.4 v -7 l -2.1,-0.9 c -0.6,-0.3 -1.4,-0.9 -2.6,-1.9 -6.5,-5.8 4.9,-27.5 7.9,-34.2 1.4,-3.8 -0.1,-5.6 -2.5,-6.7 L 51.2,71.4 C 49,70.2 46.1,70.1 45,73.5 41,81 38.8,89 35.9,96.9 32.7,105.5 30.2,112.5 24,118.5 20.7,106.4 19,94.3 19,80 19,57.1 23.3,39.6 32,18.9 h 236.1 c 8.7,20.7 13,38.1 13.1,61.1 -0.1,23 -4.4,40.4 -13.1,61.1 z"
   id="path6" />
<path
   class="st1"
   d="m 220.7,102 -0.9,-0.2 c -3.5,-0.8 -5.9,-2.1 -7.6,-4.3 -1.6,-2.2 -2.6,-5.5 -2.6,-10.1 v -59 h -1.1 -1.5 l -0.3,0.3 c -6.4,5.8 -17.6,11.8 -24.2,13.4 l -0.8,0.2 v 0.9 2.1 h 1.1 9.9 v 52.8 l -11.1,4 v 0.8 1.1 1.1 h 1.1 37.8 V 104 Z"
   id="path7" />
<path
   class="st1"
   d="m 243.1,54.7 c -2.5,-0.4 -5.3,-0.7 -8.2,-0.8 L 236,42.7 h 29.3 V 41.6 24.2 h -1.1 -1 l -0.3,0.5 -3.3,4.7 h -31.1 l -0.1,1 -4.2,38.2 h 1.2 c 4,0 7.6,0.3 10.7,0.9 15,2.7 19.8,10.6 19.8,16.7 0,0.9 -0.1,1.8 -0.2,2.6 -1,5.5 -4.8,8.6 -11.5,8.7 -0.9,0 -1.7,-0.1 -2.5,-0.2 -5.7,-1 -9.4,-5.4 -9.4,-11.7 v -0.8 l -0.8,-0.2 -1.1,-0.3 -0.5,0.7 -7.9,11.7 -0.5,0.8 0.6,0.6 c 3.8,3.9 9,6.6 14.8,7.6 1.8,0.3 3.6,0.5 5.4,0.5 15.4,0.1 24.4,-8.6 26.3,-19.6 0.3,-1.6 0.4,-3.2 0.4,-4.8 0.4,-12.1 -7.8,-24 -25.9,-27.1 z"
   id="path8" />
</svg>
