<svg xmlns="http://www.w3.org/2000/svg" width="494.16" height="378.823" viewBox="0 0 494.16 378.823"><path d="M487.508 231.32c-1.772-4.976-7.837-14.316-8.536-17.463-3.718-16.74-.64-29.357-8.352-47.649-2.114-5.015-8.267-12.979-9.404-16.596-5.14-16.358-3.305-34.31-10.97-53.03C419.69 21.972 330.424-12.44 254.752 4.056c-44.34 9.666-81.743 35.971-105.494 74.506-7.14-27.016-24.223-51.206-50.138-62.852-5.803-2.608-16.717-6.45-22.857-7.143-10.127-1.144-22.156.845-32.5 0 11.528 12.83 20.67 23.02 25.282 40.217 4.778 17.813 1.38 33.513 3.834 51.166.714 5.137 2.329 10.66 3.884 15.607-25.772 1.634-49.222 15.41-65.973 34.537-2.068 2.36-9.536 11.35-10.514 13.515-2.12 4.688 8.56 11.212 12.17 13.773 28.113 19.942 66.1 28.836 99.307 17.185-2.177 5.962.18 13.717-1.233 19.257-1.162 4.556-7.698 13.877-9.79 20.21-23.305 70.504 25.993 109.99 89.656 120.41 4.567.746 11.217.226 15.67 1.33 3.413.845 12.58 7.023 17.033 8.966 40.104 17.498 92.87 18.692 133.922 3.574 7.383-2.719 20.075-11.208 25.459-12.54 8.207-2.032 19.177-1.59 28.48-3.52 61.217-12.703 99.31-57.056 76.558-120.933m-84.914-50.912c-17.04 8.834-35.783 11.662-54.83 10.148 2.033-7.184 43.205-39.815 45.914-37.933 2.52 4.622 11.468 23.707 8.916 27.785m-160.832 10.148c-14.092.89-27.684.174-41.208-4.28-2.893-.954-14.492-5.307-14.59-7.972-.126-3.493 6.84-22.323 9.309-24.75 1.12-1.103 1.06-1.015 2.527-.599 2.094.595 12.31 8.27 14.877 10.196 10.667 8.01 20.594 17.187 29.085 27.405m-64.512-124C237.864-2.95 356.338-2.105 414.14 70.201c1.959 2.452 10.409 9.793 8.165 13.358-.92 1.463-15.16 9.673-17.87 11.18-40.386 22.437-89.96 33.918-136.006 27.661-35.823-4.868-73.755-18.312-102.425-40.325-.094-1.352 9.524-13.544 11.246-15.519m253.48 263.477c-3.745 1.574-24.706 9.195-26.967 7.522 8.212-10.79 15.817-23.003 16.505-36.985-15.737 30.302-44.911 48.186-77.29 56.711-60.824 16.015-141.03 2.388-173.72-56.71-.607 9.336 3.883 18.624 8.336 26.663 1.43 2.581 5.574 6.924 6.154 8.851.46 1.527-.08 1.622-1.442 1.455-13.47-1.654-37.693-13.132-48.46-21.558-29.217-22.866-28.204-63.262-10.936-93.285 11.017 3.124 21.522 7.655 32.637 10.585 20.26 5.34 41.227 7.868 62.21 7.29l-12.988 16.5c-.16.743 1.022.67 1.477.482 2.644-1.094 7.965-5.958 11.212-7.794 43.8-24.763 107.01-25.927 151.326-1.716 2.069 1.13 15.205 10.225 15.978 9.512l-14-16.98c32.426 1.142 64.504-5.723 94.377-17.828 3.43.667 10.245 20.66 11.135 24.807 8.777 40.907-8.54 66.92-45.544 82.478"/><path d="m217.758 240.571-12.99 16.501c-.16.743 1.023.67 1.478.482 2.644-1.094 7.965-5.958 11.212-7.794 43.8-24.763 107.01-25.927 151.326-1.716 2.069 1.13 15.205 10.225 15.978 9.512l-14-16.98c32.426 1.142 64.504-5.723 94.377-17.828 3.43.667 10.245 20.66 11.135 24.807 8.777 40.907-8.54 66.92-45.544 82.478-3.745 1.574-24.706 9.195-26.967 7.522 8.212-10.79 15.817-23.003 16.505-36.985-15.737 30.302-44.911 48.186-77.29 56.711-60.824 16.015-141.03 2.388-173.72-56.71-.607 9.336 3.883 18.624 8.336 26.663 1.43 2.581 5.574 6.924 6.154 8.851.46 1.527-.08 1.622-1.442 1.455-13.47-1.654-37.693-13.132-48.46-21.558-29.217-22.866-28.204-63.262-10.936-93.285 11.017 3.124 21.522 7.655 32.637 10.585 20.26 5.34 41.227 7.868 62.21 7.29M177.25 66.555c-1.722 1.975-11.34 14.167-11.246 15.52 28.67 22.012 66.602 35.456 102.425 40.324 46.046 6.257 95.62-5.224 136.006-27.662 2.71-1.506 16.95-9.716 17.87-11.179 2.244-3.565-6.206-10.906-8.166-13.358-57.8-72.306-176.275-73.152-236.89-3.645m64.513 124c-14.093.89-27.685.174-41.21-4.28-2.892-.954-14.491-5.307-14.588-7.972-.127-3.493 6.84-22.323 9.308-24.75 1.12-1.103 1.06-1.015 2.527-.599 2.094.595 12.31 8.27 14.877 10.196 10.667 8.01 20.594 17.187 29.086 27.405m106 0c19.048 1.514 37.79-1.314 54.83-10.148 2.553-4.078-6.396-23.163-8.915-27.785-2.71-1.882-43.88 30.75-45.915 37.933" style="fill:#fff"/></svg>