<svg xmlns="http://www.w3.org/2000/svg" width="494.159" height="378.823" viewBox="0 0 494.159 378.823"><defs><radialGradient id="a" cx="295.299" cy="187.338" r="224.353" fx="295.299" fy="187.338" gradientTransform="matrix(1 0 0 .87904 0 22.66)" gradientUnits="userSpaceOnUse"><stop offset="0" stop-color="#f49700"/><stop offset=".414" stop-color="#f29500"/><stop offset=".563" stop-color="#ef8e02"/><stop offset=".669" stop-color="#e88204"/><stop offset=".755" stop-color="#df7109"/><stop offset=".829" stop-color="#d35b0e"/><stop offset=".893" stop-color="#c44114"/><stop offset=".94" stop-color="#b7281b"/></radialGradient></defs><path d="m217.758 240.572-12.99 16.5c-.16.744 1.023.67 1.478.483 2.644-1.094 7.965-5.958 11.212-7.794 43.8-24.763 107.01-25.927 151.326-1.716 2.069 1.13 15.205 10.225 15.978 9.512l-14-16.98c32.426 1.142 64.504-5.723 94.377-17.828 3.43.667 10.245 20.66 11.135 24.807 8.777 40.907-8.54 66.92-45.544 82.478-3.745 1.574-24.706 9.195-26.967 7.522 8.212-10.79 15.817-23.003 16.505-36.985-15.737 30.302-44.911 48.186-77.29 56.71-60.824 16.016-141.03 2.389-173.72-56.71-.607 9.337 3.883 18.625 8.336 26.664 1.43 2.58 5.575 6.924 6.154 8.85.46 1.528-.08 1.623-1.442 1.456-13.47-1.654-37.693-13.132-48.46-21.558-29.217-22.866-28.204-63.262-10.936-93.285 11.017 3.124 21.522 7.655 32.637 10.585 20.26 5.34 41.227 7.868 62.21 7.289M177.25 66.557c-1.722 1.975-11.34 14.167-11.246 15.519 28.67 22.013 66.602 35.457 102.425 40.325 46.046 6.257 95.62-5.224 136.006-27.662 2.71-1.506 16.95-9.716 17.87-11.18 2.244-3.564-6.206-10.905-8.166-13.357-57.8-72.306-176.275-73.152-236.89-3.645" style="fill:url(#a)"/><path d="M223.51 126.94c16.575 5.19 32.594 9.86 50.758 11.62 54.632 5.294 113.068-12.411 158.003-42.963 7.483 12.78 9.885 28.078 12.326 42.636.859 5.123.492 11.953 1.633 16.367.938 3.626 5.042 7.088 6.726 10.273 6.64 12.553 10.864 26.679 9.673 41.06-19.077 9.403-42.201 15.454-63.51 18.49-12.416 1.77-37.092 4.852-48.794 3.08-4.67-.706-13.394-5.535-18.91-7.09-24.982-7.044-51.596-6.4-76.42.887-5.813 1.706-13.09 5.786-18.68 6.32-8.048.768-22.622-.344-31.042-1.063-27.272-2.33-54.22-9.788-79.346-20.144l-.27-1.337c1.15-12.5 2.515-23.747 7.93-35.185 1.773-3.743 7.784-10.674 8.71-13.252 2.136-5.945 3.053-22.292 2.597-28.632-.1-1.376 7.405-22.28 8.766-25.215.9-1.94 1.13-4.455 2.635-6.215.988-1.602 1.095-.64 2.127-.202 5.512 2.345 13.669 9.132 19.652 12.38 15.74 8.545 28.654 12.932 45.437 18.186m118.67 53.043c-4.405 5.136-8.797 10.666-11.403 17.04.473 2.179 17.432 4.408 20.444 4.584 16.693.98 44.154-3.336 58.234-12.85 2.587-1.747 3.89-2.23 4.356-5.638.62-4.56-2.456-16.285-4.036-21.066-1.11-3.363-11.326-23.964-13.544-24.492-19.415 11.92-39.123 25.023-54.05 42.422M232.064 166.26c-7.222-6.485-12.51-11.826-20.984-17.51-3.295-2.21-12.324-8.545-15.358-9.66-1.114-.41-2.077-.886-3.297-.431-5.188 7.897-10.787 16.158-13.71 25.36-2.246 7.078-3.531 14.387-2.97 21.843 17.69 11.914 40.358 16.956 61.56 15.747 2.987-.17 21.278-2.353 21.434-4.534-2.321-4.612-5.06-8.75-8.164-12.865-5.63-7.464-12-12.103-18.51-17.95M78.768 25.572c5.026 11.55 9.187 23.79 9.984 36.505 1.316 20.98-5.525 38.753 3.25 59.75 4.13 9.88 10.653 16.965 18.76 23.73-6.147.275-12.736-3.303-17.475-7.014-8.097-6.341-4.87-9.01-18.01-7.96-13.18 1.052-26.346 7.414-36.83 15.169-6.503 4.81-13.116 10.807-17.743 17.329.004 2.288 11.602 8.548 14.18 9.865 25.073 12.806 53.366 15.874 79.646 4.388 2.26-6.074 4.558-12.291 7.356-18.144 1.657-3.467 5.407-7.188 6.41-10.59 1.866-6.314 1.517-15.506 2.743-22.257 3.082-16.965 8.54-22.668 4.228-40.78-3.12-13.102-8.741-25.014-17.08-35.417-9.584-11.956-23.936-22.688-39.42-24.574" style="fill:#b7281b"/><path d="M76.263 8.567c6.14.693 17.054 4.535 22.857 7.143 25.915 11.645 42.999 35.836 50.138 62.852 23.75-38.535 61.153-64.84 105.494-74.506C330.424-12.44 419.69 21.972 450.246 96.584c7.665 18.718 5.83 36.67 10.97 53.03 1.137 3.616 7.29 11.58 9.404 16.595 7.713 18.292 4.634 30.91 8.352 47.649.699 3.147 6.764 12.487 8.536 17.463 22.752 63.877-15.341 108.23-76.56 120.932-9.301 1.93-20.271 1.49-28.48 3.52-5.382 1.333-18.074 9.822-25.457 12.54-41.05 15.119-93.818 13.925-133.922-3.573-4.454-1.943-13.62-8.12-17.033-8.966-4.453-1.104-11.103-.584-15.67-1.331-63.663-10.42-112.961-49.905-89.657-120.41 2.093-6.332 8.629-15.653 9.79-20.21 1.415-5.54-.943-13.294 1.234-19.256-33.206 11.65-71.194 2.757-99.306-17.185-3.61-2.561-14.29-9.085-12.171-13.773.978-2.165 8.446-11.155 10.514-13.515 16.75-19.128 40.2-32.903 65.973-34.537-1.555-4.947-3.17-10.47-3.884-15.607-2.453-17.653.944-33.353-3.834-51.166C64.433 31.588 55.29 21.396 43.763 8.567c10.344.845 22.373-1.144 32.5 0m337.876 61.635c-57.8-72.306-176.275-73.152-236.89-3.645-1.72 1.975-11.338 14.167-11.244 15.519 28.67 22.013 66.602 35.457 102.425 40.325 46.046 6.257 95.62-5.224 136.006-27.662 2.71-1.506 16.95-9.716 17.87-11.18 2.244-3.564-6.206-10.905-8.166-13.357M118.187 50.146c-9.584-11.956-23.936-22.688-39.42-24.574 5.027 11.55 9.188 23.79 9.985 36.505 1.316 20.98-5.525 38.753 3.25 59.75 4.13 9.88 10.653 16.965 18.76 23.73-6.147.275-12.736-3.303-17.475-7.014-8.097-6.341-4.87-9.01-18.01-7.96-13.18 1.052-26.346 7.414-36.83 15.169-6.503 4.81-13.116 10.807-17.743 17.329.004 2.288 11.602 8.548 14.18 9.865 25.073 12.806 53.366 15.874 79.646 4.388 2.26-6.074 4.558-12.291 7.356-18.144 1.657-3.467 5.407-7.188 6.41-10.59 1.866-6.314 1.517-15.506 2.743-22.257 3.082-16.965 8.54-22.668 4.228-40.78-3.12-13.102-8.741-25.014-17.08-35.417M223.51 126.94c-16.783-5.254-29.697-9.641-45.437-18.186-5.983-3.248-14.14-10.035-19.652-12.38-1.032-.438-1.14-1.4-2.127.202-1.506 1.76-1.735 4.276-2.635 6.215-1.361 2.935-8.865 23.839-8.766 25.215.456 6.34-.461 22.687-2.597 28.632-.926 2.578-6.937 9.508-8.71 13.252-5.415 11.438-6.78 22.684-7.93 35.185l.27 1.337c25.126 10.356 52.074 17.814 79.346 20.144 8.42.72 22.994 1.83 31.043 1.062 5.59-.533 12.866-4.613 18.68-6.32 24.823-7.287 51.437-7.93 76.42-.886 5.515 1.555 14.239 6.384 18.91 7.09 11.7 1.772 36.377-1.31 48.794-3.08 21.308-3.036 44.432-9.087 63.51-18.49 1.19-14.381-3.034-28.507-9.674-41.06-1.684-3.185-5.788-6.647-6.726-10.273-1.141-4.414-.774-11.244-1.633-16.367-2.44-14.558-4.843-29.855-12.326-42.636-44.935 30.552-103.371 48.257-158.003 42.964-18.164-1.76-34.183-6.431-50.757-11.62m-5.753 113.63c-20.984.58-41.951-1.948-62.211-7.288-11.115-2.93-21.62-7.461-32.637-10.585-17.27 30.023-18.281 70.419 10.937 93.285 10.766 8.426 34.988 19.904 48.459 21.558 1.362.167 1.9.072 1.442-1.455-.58-1.927-4.724-6.27-6.154-8.85-4.453-8.04-8.943-17.328-8.336-26.665 32.69 59.099 112.896 72.726 173.72 56.71 32.379-8.524 61.553-26.408 77.29-56.71-.688 13.982-8.293 26.194-16.505 36.985 2.26 1.673 23.222-5.948 26.967-7.522 37.003-15.558 54.32-41.571 45.544-82.478-.89-4.147-7.704-24.14-11.135-24.807-29.873 12.105-61.951 18.97-94.376 17.828l14 16.98c-.774.713-13.91-8.382-15.98-9.512-44.314-24.211-107.525-23.047-151.325 1.716-3.247 1.836-8.568 6.7-11.212 7.794-.455.189-1.637.26-1.477-.482zm14.305-74.312c6.51 5.847 12.88 10.486 18.51 17.95 3.105 4.114 5.844 8.253 8.165 12.865-.156 2.18-18.447 4.364-21.433 4.534-21.203 1.209-43.87-3.833-61.56-15.747-.562-7.456.723-14.765 2.97-21.842 2.922-9.203 8.52-17.464 13.709-25.361 1.22-.455 2.183.02 3.297.43 3.034 1.116 12.063 7.452 15.358 9.662 8.474 5.683 13.762 11.024 20.984 17.51m9.7 24.298c-8.492-10.218-18.42-19.395-29.086-27.405-2.566-1.927-12.783-9.6-14.877-10.196-1.466-.416-1.407-.504-2.527.598-2.47 2.428-9.435 21.258-9.308 24.75.097 2.666 11.696 7.019 14.589 7.97 13.524 4.457 27.116 5.172 41.209 4.283m100.418-10.573c14.927-17.4 34.635-30.5 54.05-42.422 2.218.528 12.433 21.129 13.544 24.492 1.58 4.78 4.657 16.507 4.036 21.066-.465 3.407-1.77 3.89-4.356 5.638-14.08 9.513-41.541 13.83-58.234 12.85-3.012-.177-19.971-2.405-20.444-4.584 2.606-6.374 6.998-11.904 11.404-17.04m51.497-27.36c-2.71-1.882-43.88 30.75-45.915 37.933 19.048 1.514 37.79-1.314 54.83-10.148 2.553-4.078-6.396-23.163-8.915-27.785"/><path d="M241.763 190.557c-14.093.89-27.685.174-41.21-4.281-2.892-.953-14.491-5.306-14.588-7.971-.127-3.493 6.84-22.323 9.308-24.751 1.12-1.102 1.06-1.014 2.527-.598 2.094.595 12.31 8.269 14.878 10.196 10.666 8.01 20.593 17.187 29.085 27.405m106 0c19.048 1.514 37.79-1.314 54.83-10.148 2.553-4.078-6.396-23.163-8.915-27.785-2.71-1.882-43.88 30.75-45.915 37.933" style="fill:#fff"/></svg>