<svg xmlns="http://www.w3.org/2000/svg" width="494.16" height="378.823" viewBox="0 0 494.16 378.823"><defs><radialGradient id="a" cx="295.299" cy="187.338" r="224.353" fx="295.299" fy="187.338" gradientTransform="matrix(1 0 0 .87904 0 22.66)" gradientUnits="userSpaceOnUse"><stop offset="0" stop-color="#bf99c3"/><stop offset=".415" stop-color="#bd97c1"/><stop offset=".565" stop-color="#b790bc"/><stop offset=".672" stop-color="#ad84b4"/><stop offset=".758" stop-color="#9e73a8"/><stop offset=".832" stop-color="#8b5d98"/><stop offset=".896" stop-color="#744385"/><stop offset=".94" stop-color="#612c75"/></radialGradient></defs><path d="m217.758 240.572-12.989 16.501c-.16.743 1.022.67 1.477.482 2.644-1.094 7.965-5.958 11.212-7.794 43.8-24.763 107.011-25.927 151.326-1.716 2.069 1.13 15.205 10.225 15.978 9.512l-13.999-16.98c32.425 1.142 64.503-5.723 94.376-17.828 3.43.667 10.245 20.66 11.135 24.807 8.777 40.907-8.54 66.92-45.544 82.478-3.745 1.574-24.706 9.195-26.967 7.522 8.212-10.79 15.817-23.003 16.505-36.985-15.737 30.302-44.911 48.186-77.29 56.711-60.824 16.015-141.03 2.388-173.72-56.71-.607 9.336 3.883 18.624 8.336 26.663 1.43 2.581 5.575 6.924 6.154 8.851.46 1.527-.08 1.622-1.442 1.455-13.47-1.654-37.693-13.132-48.46-21.558-29.217-22.866-28.204-63.262-10.936-93.285 11.017 3.124 21.522 7.655 32.637 10.585 20.26 5.34 41.227 7.868 62.21 7.289M177.25 66.557c-1.722 1.975-11.34 14.167-11.246 15.519 28.67 22.013 66.602 35.457 102.425 40.325 46.046 6.257 95.62-5.224 136.006-27.662 2.711-1.506 16.95-9.716 17.87-11.179 2.244-3.565-6.206-10.906-8.166-13.358-57.8-72.306-176.275-73.152-236.89-3.645" style="fill:url(#a)"/><path d="M223.51 126.941c16.575 5.189 32.594 9.86 50.758 11.62 54.632 5.293 113.068-12.412 158.003-42.964 7.483 12.781 9.885 28.078 12.326 42.636.859 5.123.492 11.953 1.633 16.367.938 3.626 5.042 7.088 6.726 10.273 6.64 12.553 10.864 26.679 9.673 41.06-19.077 9.403-42.201 15.454-63.509 18.491-12.417 1.77-37.093 4.851-48.795 3.08-4.67-.707-13.394-5.536-18.909-7.091-24.983-7.044-51.597-6.4-76.42.887-5.814 1.706-13.09 5.786-18.68 6.32-8.049.768-22.623-.344-31.043-1.063-27.272-2.33-54.22-9.788-79.346-20.144l-.27-1.337c1.151-12.5 2.515-23.747 7.93-35.185 1.773-3.743 7.784-10.674 8.71-13.252 2.136-5.945 3.053-22.292 2.597-28.632-.1-1.376 7.405-22.28 8.766-25.215.9-1.939 1.13-4.455 2.635-6.215.988-1.602 1.095-.64 2.127-.202 5.512 2.345 13.669 9.132 19.652 12.38 15.74 8.545 28.654 12.932 45.437 18.186m118.67 53.043c-4.405 5.136-8.797 10.666-11.403 17.04.473 2.179 17.432 4.408 20.444 4.584 16.693.98 44.154-3.336 58.234-12.85 2.587-1.747 3.891-2.23 4.356-5.638.62-4.56-2.456-16.285-4.036-21.066-1.11-3.363-11.326-23.964-13.544-24.492-19.415 11.921-39.123 25.023-54.05 42.422M232.064 166.26c-7.222-6.485-12.51-11.826-20.984-17.509-3.295-2.21-12.324-8.546-15.358-9.661-1.114-.41-2.077-.886-3.297-.431-5.188 7.897-10.787 16.158-13.709 25.361-2.247 7.077-3.532 14.386-2.97 21.842 17.69 11.914 40.357 16.956 61.56 15.747 2.986-.17 21.277-2.353 21.433-4.534-2.321-4.612-5.06-8.75-8.164-12.865-5.63-7.464-12-12.103-18.51-17.95M78.768 25.572c5.026 11.55 9.187 23.79 9.984 36.505 1.316 20.981-5.525 38.753 3.251 59.75 4.13 9.88 10.652 16.965 18.76 23.73-6.148.275-12.737-3.303-17.476-7.014-8.097-6.341-4.87-9.009-18.009-7.96-13.18 1.052-26.347 7.414-36.83 15.169-6.504 4.811-13.117 10.807-17.744 17.329.004 2.288 11.602 8.548 14.18 9.865 25.073 12.806 53.366 15.874 79.646 4.388 2.261-6.074 4.558-12.291 7.356-18.144 1.657-3.467 5.407-7.188 6.411-10.589 1.865-6.315 1.516-15.507 2.742-22.258 3.082-16.965 8.54-22.668 4.228-40.78-3.12-13.102-8.741-25.014-17.08-35.417-9.584-11.956-23.936-22.688-39.42-24.574M232.063 166.26c6.511 5.847 12.881 10.486 18.511 17.95 3.104 4.114 5.843 8.253 8.164 12.865-.156 2.181-18.447 4.364-21.433 4.534-21.203 1.209-43.87-3.833-61.56-15.747-.562-7.456.723-14.765 2.97-21.842 2.922-9.203 8.521-17.464 13.709-25.361 1.22-.455 2.183.021 3.297.43 3.034 1.116 12.063 7.452 15.358 9.662 8.474 5.683 13.762 11.024 20.984 17.51m9.7 24.298c-8.492-10.218-18.419-19.395-29.086-27.405-2.566-1.927-12.783-9.6-14.877-10.196-1.466-.416-1.407-.504-2.527.598-2.469 2.428-9.435 21.258-9.308 24.751.097 2.665 11.696 7.018 14.589 7.97 13.524 4.456 27.116 5.171 41.209 4.282m100.418-10.573c14.927-17.4 34.635-30.5 54.05-42.422 2.218.528 12.433 21.129 13.544 24.492 1.58 4.781 4.657 16.507 4.036 21.066-.465 3.407-1.77 3.89-4.356 5.638-14.08 9.513-41.541 13.83-58.234 12.85-3.012-.177-19.971-2.405-20.444-4.584 2.606-6.374 6.998-11.904 11.404-17.04m51.497-27.36c-2.709-1.882-43.88 30.75-45.915 37.933 19.048 1.514 37.79-1.314 54.831-10.148 2.552-4.078-6.397-23.163-8.916-27.785" style="fill:#612c75"/><path d="M76.263 8.567c6.14.693 17.054 4.535 22.857 7.143 25.915 11.645 42.999 35.836 50.138 62.852 23.751-38.535 61.153-64.84 105.494-74.506C330.424-12.44 419.69 21.972 450.246 96.584c7.665 18.718 5.83 36.671 10.97 53.03 1.137 3.616 7.29 11.58 9.404 16.595 7.713 18.292 4.634 30.91 8.352 47.649.699 3.147 6.764 12.487 8.536 17.463 22.752 63.877-15.341 108.23-76.559 120.932-9.302 1.93-20.272 1.49-28.48 3.52-5.383 1.333-18.075 9.822-25.458 12.541-41.05 15.118-93.818 13.924-133.922-3.574-4.454-1.943-13.62-8.12-17.033-8.966-4.453-1.104-11.103-.584-15.67-1.331-63.663-10.42-112.961-49.905-89.657-120.41 2.093-6.332 8.629-15.653 9.791-20.209 1.414-5.54-.944-13.295 1.233-19.257-33.206 11.65-71.194 2.757-99.306-17.185-3.61-2.561-14.29-9.085-12.171-13.773.978-2.165 8.446-11.155 10.514-13.515 16.75-19.128 40.201-32.903 65.973-34.537-1.555-4.947-3.17-10.47-3.884-15.607-2.453-17.653.944-33.353-3.834-51.166-4.612-17.196-13.754-27.388-25.282-40.217 10.344.845 22.373-1.144 32.5 0m337.876 61.635C356.34-2.104 237.864-2.95 177.25 66.557c-1.721 1.975-11.339 14.167-11.245 15.519 28.67 22.013 66.602 35.457 102.425 40.325 46.046 6.257 95.62-5.224 136.006-27.662 2.711-1.506 16.95-9.716 17.87-11.179 2.244-3.565-6.206-10.906-8.166-13.358M118.187 50.146c-9.584-11.956-23.936-22.688-39.42-24.574 5.027 11.55 9.188 23.79 9.985 36.505 1.316 20.981-5.525 38.753 3.251 59.75 4.13 9.88 10.652 16.965 18.76 23.73-6.148.275-12.737-3.303-17.476-7.014-8.097-6.341-4.87-9.009-18.009-7.96-13.18 1.052-26.347 7.414-36.83 15.169-6.504 4.811-13.117 10.807-17.744 17.329.004 2.288 11.602 8.548 14.18 9.865 25.073 12.806 53.366 15.874 79.646 4.388 2.261-6.074 4.558-12.291 7.356-18.144 1.657-3.467 5.407-7.188 6.411-10.589 1.865-6.315 1.516-15.507 2.742-22.258 3.082-16.965 8.54-22.668 4.228-40.78-3.12-13.102-8.741-25.014-17.08-35.417m105.324 76.795c-16.783-5.254-29.697-9.641-45.437-18.186-5.983-3.248-14.14-10.035-19.652-12.38-1.032-.438-1.14-1.4-2.127.202-1.506 1.76-1.735 4.276-2.635 6.215-1.361 2.935-8.865 23.839-8.766 25.215.456 6.34-.461 22.687-2.597 28.632-.926 2.578-6.937 9.508-8.71 13.252-5.415 11.438-6.779 22.684-7.93 35.185l.27 1.337c25.126 10.356 52.074 17.814 79.346 20.144 8.42.72 22.994 1.831 31.043 1.062 5.59-.533 12.866-4.613 18.68-6.32 24.823-7.287 51.437-7.93 76.42-.886 5.515 1.555 14.239 6.384 18.91 7.091 11.7 1.771 36.377-1.31 48.794-3.08 21.308-3.037 44.432-9.088 63.51-18.491 1.19-14.381-3.034-28.507-9.674-41.06-1.684-3.185-5.788-6.647-6.726-10.273-1.141-4.414-.774-11.244-1.633-16.367-2.44-14.558-4.843-29.855-12.326-42.636-44.935 30.552-103.371 48.257-158.003 42.964-18.164-1.76-34.183-6.431-50.757-11.62m-5.753 113.63c-20.984.58-41.951-1.948-62.211-7.288-11.115-2.93-21.62-7.461-32.637-10.585-17.269 30.023-18.281 70.419 10.937 93.285 10.766 8.426 34.988 19.904 48.459 21.558 1.362.167 1.901.072 1.442-1.455-.58-1.927-4.724-6.27-6.154-8.85-4.453-8.04-8.943-17.328-8.336-26.665 32.69 59.099 112.896 72.726 173.72 56.711 32.379-8.525 61.553-26.409 77.29-56.71-.688 13.981-8.293 26.193-16.505 36.984 2.261 1.673 23.222-5.948 26.967-7.522 37.003-15.558 54.32-41.571 45.544-82.478-.89-4.147-7.704-24.14-11.135-24.807-29.873 12.105-61.951 18.97-94.376 17.828l14 16.98c-.774.713-13.91-8.382-15.979-9.512-44.315-24.211-107.526-23.047-151.326 1.716-3.247 1.836-8.568 6.7-11.212 7.794-.455.189-1.637.26-1.477-.482zm24.005-50.014c-14.093.89-27.685.174-41.21-4.281-2.892-.953-14.491-5.306-14.588-7.971-.127-3.493 6.84-22.323 9.308-24.751 1.12-1.102 1.06-1.014 2.527-.598 2.094.595 12.311 8.269 14.878 10.196 10.666 8.01 20.593 17.187 29.085 27.405m106 0c19.048 1.514 37.79-1.314 54.831-10.148 2.552-4.078-6.397-23.163-8.916-27.785-2.709-1.882-43.88 30.75-45.915 37.933" style="fill:#fff"/></svg>