<svg xmlns="http://www.w3.org/2000/svg" width="494.16" height="378.823" viewBox="0 0 494.16 378.823"><path d="M76.263 8.567c6.14.693 17.054 4.535 22.857 7.143 25.915 11.645 42.999 35.836 50.138 62.852 23.751-38.535 61.153-64.84 105.494-74.506C330.424-12.44 419.69 21.972 450.246 96.584c7.665 18.718 5.83 36.671 10.97 53.03 1.137 3.616 7.29 11.58 9.404 16.595 7.712 18.292 4.634 30.91 8.352 47.649.699 3.147 6.764 12.487 8.536 17.463 22.752 63.877-15.341 108.23-76.559 120.932-9.302 1.93-20.272 1.49-28.48 3.52-5.383 1.333-18.075 9.822-25.458 12.541-41.05 15.118-93.818 13.924-133.922-3.574-4.454-1.943-13.62-8.12-17.033-8.966-4.453-1.104-11.103-.584-15.67-1.33-63.663-10.421-112.961-49.906-89.657-120.411 2.093-6.332 8.629-15.653 9.791-20.209 1.414-5.54-.944-13.295 1.233-19.257-33.206 11.65-71.194 2.757-99.306-17.185-3.61-2.561-14.29-9.085-12.171-13.773.978-2.165 8.446-11.155 10.514-13.515 16.75-19.128 40.201-32.903 65.973-34.537-1.555-4.947-3.17-10.47-3.884-15.607-2.453-17.653.944-33.353-3.834-51.166-4.612-17.196-13.754-27.388-25.282-40.217 10.344.845 22.373-1.144 32.5 0m337.876 61.635C356.34-2.104 237.864-2.95 177.25 66.557c-1.721 1.975-11.339 14.167-11.245 15.519 28.67 22.013 66.602 35.457 102.425 40.325 46.046 6.257 95.62-5.224 136.006-27.662 2.711-1.506 16.95-9.716 17.87-11.179 2.244-3.565-6.206-10.906-8.166-13.358M118.187 50.146c-9.584-11.956-23.936-22.688-39.42-24.574 5.027 11.55 9.188 23.79 9.985 36.505 1.316 20.981-5.525 38.753 3.251 59.75 4.13 9.88 10.652 16.965 18.76 23.73-6.148.275-12.737-3.303-17.476-7.014-8.097-6.341-4.87-9.009-18.009-7.96-13.18 1.052-26.347 7.414-36.83 15.169-6.504 4.811-13.117 10.807-17.744 17.329.004 2.288 11.601 8.548 14.18 9.865 25.073 12.806 53.366 15.874 79.646 4.388 2.261-6.074 4.558-12.291 7.356-18.144 1.657-3.467 5.407-7.188 6.411-10.589 1.865-6.315 1.516-15.507 2.742-22.258 3.082-16.965 8.54-22.668 4.228-40.78-3.12-13.102-8.741-25.014-17.08-35.417m105.324 76.795c-16.783-5.254-29.697-9.641-45.437-18.186-5.983-3.248-14.14-10.035-19.652-12.38-1.032-.438-1.14-1.4-2.127.202-1.506 1.76-1.735 4.276-2.635 6.215-1.361 2.935-8.865 23.839-8.766 25.215.456 6.34-.461 22.687-2.597 28.632-.926 2.578-6.937 9.508-8.71 13.252-5.415 11.438-6.779 22.684-7.93 35.185l.27 1.337c25.126 10.356 52.074 17.814 79.345 20.144 8.421.72 22.995 1.831 31.044 1.062 5.59-.533 12.866-4.613 18.68-6.32 24.823-7.287 51.437-7.93 76.42-.886 5.515 1.555 14.239 6.384 18.91 7.091 11.7 1.771 36.377-1.31 48.794-3.08 21.308-3.037 44.432-9.088 63.51-18.491 1.19-14.381-3.034-28.507-9.674-41.06-1.684-3.185-5.788-6.647-6.726-10.274-1.141-4.413-.774-11.243-1.633-16.366-2.44-14.558-4.843-29.855-12.326-42.636-44.935 30.552-103.371 48.257-158.003 42.964-18.164-1.76-34.183-6.431-50.757-11.62m-5.753 113.63c-20.984.58-41.951-1.948-62.211-7.288-11.115-2.93-21.62-7.461-32.637-10.585-17.269 30.023-18.281 70.419 10.936 93.285 10.767 8.426 34.99 19.904 48.46 21.558 1.362.167 1.901.072 1.442-1.455-.58-1.927-4.724-6.27-6.154-8.85-4.453-8.04-8.943-17.328-8.336-26.665 32.69 59.099 112.896 72.726 173.72 56.711 32.379-8.525 61.553-26.409 77.29-56.71-.688 13.981-8.293 26.193-16.505 36.984 2.261 1.673 23.222-5.948 26.967-7.522 37.003-15.558 54.32-41.571 45.544-82.478-.89-4.147-7.704-24.14-11.135-24.807-29.873 12.105-61.951 18.97-94.376 17.828l14 16.98c-.774.713-13.91-8.382-15.979-9.512-44.315-24.211-107.526-23.047-151.326 1.716-3.247 1.836-8.568 6.7-11.212 7.794-.455.189-1.637.26-1.477-.482zm14.305-74.312c6.511 5.847 12.881 10.486 18.511 17.95 3.104 4.114 5.843 8.253 8.164 12.865-.156 2.181-18.447 4.364-21.433 4.534-21.203 1.209-43.87-3.833-61.56-15.747-.562-7.456.723-14.764 2.97-21.842 2.922-9.203 8.52-17.464 13.709-25.361 1.22-.455 2.183.021 3.297.43 3.034 1.116 12.063 7.452 15.358 9.662 8.474 5.683 13.762 11.024 20.984 17.51m9.7 24.298c-8.492-10.218-18.42-19.395-29.086-27.405-2.566-1.927-12.783-9.6-14.877-10.196-1.466-.416-1.407-.504-2.527.598-2.469 2.428-9.435 21.258-9.308 24.751.097 2.665 11.696 7.018 14.589 7.97 13.524 4.456 27.116 5.171 41.208 4.282m100.418-10.573c14.927-17.4 34.635-30.5 54.05-42.422 2.218.528 12.433 21.129 13.544 24.492 1.58 4.781 4.657 16.507 4.036 21.066-.465 3.407-1.77 3.89-4.356 5.638-14.08 9.514-41.541 13.83-58.234 12.85-3.012-.176-19.971-2.405-20.444-4.584 2.606-6.374 6.998-11.904 11.404-17.04m51.497-27.36c-2.709-1.882-43.881 30.75-45.915 37.933 19.048 1.514 37.79-1.314 54.831-10.148 2.552-4.078-6.397-23.163-8.916-27.785"/></svg>