<svg xmlns="http://www.w3.org/2000/svg" width="494.159" height="378.823" viewBox="0 0 494.159 378.823"><path d="M76.263 8.567c6.14.693 17.054 4.535 22.857 7.143 25.915 11.645 42.999 35.836 50.138 62.852 23.75-38.535 61.153-64.84 105.494-74.506C330.424-12.44 419.69 21.972 450.246 96.584c7.665 18.718 5.83 36.67 10.97 53.03 1.137 3.616 7.29 11.58 9.404 16.595 7.712 18.292 4.634 30.91 8.352 47.649.699 3.147 6.764 12.487 8.536 17.463 22.752 63.877-15.341 108.23-76.56 120.932-9.301 1.93-20.271 1.49-28.48 3.52-5.382 1.333-18.074 9.822-25.457 12.54-41.05 15.119-93.818 13.925-133.922-3.573-4.454-1.943-13.62-8.12-17.033-8.966-4.453-1.104-11.103-.584-15.67-1.33-63.663-10.421-112.961-49.906-89.657-120.411 2.093-6.332 8.629-15.653 9.79-20.21 1.415-5.54-.943-13.294 1.234-19.256-33.206 11.65-71.194 2.757-99.306-17.185-3.61-2.561-14.29-9.085-12.171-13.773.978-2.165 8.446-11.155 10.514-13.515 16.75-19.128 40.2-32.903 65.973-34.537-1.555-4.947-3.17-10.47-3.884-15.607-2.453-17.653.944-33.353-3.834-51.166C64.433 31.588 55.29 21.396 43.763 8.567c10.344.845 22.373-1.144 32.5 0m337.876 61.635c-57.8-72.306-176.275-73.152-236.89-3.645-1.72 1.975-11.338 14.167-11.244 15.519 28.67 22.013 66.602 35.457 102.425 40.325 46.046 6.257 95.62-5.224 136.006-27.662 2.71-1.506 16.95-9.716 17.87-11.18 2.244-3.564-6.206-10.905-8.166-13.357M118.187 50.146c-9.584-11.956-23.936-22.688-39.42-24.574 5.027 11.55 9.188 23.79 9.985 36.505 1.316 20.98-5.525 38.753 3.25 59.75 4.13 9.88 10.653 16.965 18.76 23.73-6.147.275-12.736-3.303-17.475-7.014-8.097-6.341-4.87-9.01-18.01-7.96-13.18 1.052-26.346 7.414-36.83 15.169-6.503 4.81-13.116 10.807-17.743 17.329.004 2.288 11.6 8.548 14.18 9.865 25.073 12.806 53.366 15.874 79.646 4.388 2.26-6.074 4.558-12.291 7.356-18.144 1.657-3.467 5.407-7.188 6.41-10.59 1.866-6.314 1.517-15.506 2.743-22.257 3.082-16.965 8.54-22.668 4.228-40.78-3.12-13.102-8.741-25.014-17.08-35.417M223.51 126.94c-16.783-5.254-29.697-9.641-45.437-18.186-5.983-3.248-14.14-10.035-19.652-12.38-1.032-.438-1.14-1.4-2.127.202-1.506 1.76-1.735 4.276-2.635 6.215-1.361 2.935-8.865 23.839-8.766 25.215.456 6.34-.461 22.687-2.597 28.632-.926 2.578-6.937 9.508-8.71 13.252-5.415 11.438-6.78 22.684-7.93 35.185l.27 1.337c25.126 10.356 52.074 17.814 79.345 20.144 8.42.72 22.995 1.83 31.044 1.062 5.59-.533 12.866-4.613 18.68-6.32 24.823-7.287 51.437-7.93 76.42-.886 5.515 1.555 14.239 6.384 18.91 7.09 11.7 1.772 36.377-1.31 48.794-3.08 21.308-3.036 44.432-9.087 63.51-18.49 1.19-14.381-3.034-28.507-9.674-41.06-1.684-3.185-5.788-6.647-6.726-10.274-1.141-4.413-.774-11.243-1.633-16.366-2.44-14.558-4.843-29.855-12.326-42.636-44.935 30.552-103.371 48.257-158.003 42.964-18.164-1.76-34.183-6.431-50.757-11.62m-5.753 113.63c-20.984.58-41.951-1.948-62.211-7.288-11.115-2.93-21.62-7.461-32.637-10.585-17.27 30.023-18.281 70.419 10.936 93.285 10.767 8.426 34.99 19.904 48.46 21.558 1.362.167 1.9.072 1.442-1.455-.58-1.927-4.724-6.27-6.154-8.85-4.453-8.04-8.943-17.328-8.336-26.665 32.69 59.099 112.896 72.726 173.72 56.71 32.379-8.524 61.553-26.408 77.29-56.71-.688 13.982-8.293 26.194-16.505 36.985 2.26 1.673 23.222-5.948 26.967-7.522 37.003-15.558 54.32-41.571 45.544-82.478-.89-4.147-7.704-24.14-11.135-24.807-29.873 12.105-61.951 18.97-94.376 17.828l14 16.98c-.774.713-13.91-8.382-15.98-9.512-44.314-24.211-107.525-23.047-151.325 1.716-3.247 1.836-8.568 6.7-11.212 7.794-.455.189-1.637.26-1.477-.482zm14.305-74.312c6.51 5.847 12.88 10.486 18.51 17.95 3.105 4.114 5.844 8.253 8.165 12.865-.156 2.18-18.447 4.364-21.433 4.534-21.203 1.209-43.87-3.833-61.56-15.747-.562-7.456.723-14.764 2.97-21.842 2.922-9.203 8.52-17.464 13.709-25.361 1.22-.455 2.183.02 3.297.43 3.034 1.116 12.063 7.452 15.358 9.662 8.474 5.683 13.762 11.024 20.984 17.51m9.7 24.298c-8.492-10.218-18.42-19.395-29.086-27.405-2.566-1.927-12.783-9.6-14.877-10.196-1.466-.416-1.407-.504-2.527.598-2.47 2.428-9.435 21.258-9.308 24.75.097 2.666 11.696 7.019 14.589 7.97 13.524 4.457 27.116 5.172 41.208 4.283m100.418-10.573c14.927-17.4 34.635-30.5 54.05-42.422 2.218.528 12.433 21.129 13.544 24.492 1.58 4.78 4.657 16.507 4.036 21.066-.465 3.407-1.77 3.89-4.356 5.638-14.08 9.514-41.541 13.83-58.234 12.85-3.012-.176-19.971-2.405-20.444-4.584 2.606-6.374 6.998-11.904 11.404-17.04m51.497-27.36c-2.71-1.882-43.881 30.75-45.915 37.933 19.048 1.514 37.79-1.314 54.83-10.148 2.553-4.078-6.396-23.163-8.915-27.785"/></svg>