<?xml version="1.0" encoding="UTF-8"?><svg id="Layer_2" xmlns="http://www.w3.org/2000/svg" width="400" height="236.11348" xmlns:xlink="http://www.w3.org/1999/xlink" viewBox="0 0 400 236.11348"><defs><style>.cls-1{fill:#fff;}.cls-2{fill:url(#linear-gradient);}</style><linearGradient id="linear-gradient" x1="-9.34247" y1="118.13666" x2="417.78536" y2="118.13666" gradientUnits="userSpaceOnUse"><stop offset=".0177" stop-color="#612c75"/><stop offset=".07825" stop-color="#724083"/><stop offset=".21046" stop-color="#93669e"/><stop offset=".33249" stop-color="#ab82b2"/><stop offset=".43949" stop-color="#b993be"/><stop offset=".51981" stop-color="#bf99c3"/><stop offset=".59703" stop-color="#b68fbc"/><stop offset=".72638" stop-color="#a075a9"/><stop offset=".89095" stop-color="#7c4b8b"/><stop offset="1" stop-color="#612c75"/></linearGradient></defs><g id="Layer_1_copy_5"><path class="cls-2" d="M98.85475,12.50822c57.57872,1.94147,90.97981,64.57967,86.03945,116.65727-5.34115,56.30238-55.10199,112.31618-115.53524,89.37681C-18.84252,185.06262-1.12143,9.13716,98.85475,12.50822ZM142.83522,57.301c.30465-.31033-1.52311-2.52185-1.86618-2.9241-26.69784-31.30359-67.45414-20.54653-90.67333,8.5643-31.20164,39.11874-18.11494,118.08544,31.87581,135.70097,22.62107,7.97112,49.42546,4.74588,66.29391-13.35014,7.41765-7.95745,8.89885-19.11217,11.88018-29.18177-9.72489,11.41316-18.16126,23.66773-32.94094,28.96681-20.56011,7.37159-44.38695-4.60417-56.86465-21.08107-20.71085-27.34884-21.15866-69.42759.00046-96.65284,15.42486-19.84702,32.3108-20.25944,55.46815-15.0994,5.69053,1.26799,11.3354,3.14726,16.82659,5.05724ZM298.87685,173.10628c41.96911-15.66488,50.28906-89.59477,7.99881-109.94826l-92.74367-26.28155c10.58272,15.64869,20.4728,32.43323,24.54477,51.12121,6.90577,31.69352,1.34966,63.06079-11.96403,92.1585-1.76783,3.86368-4.3762,7.80169-5.99633,11.51401-.22608.51804-.42935.95591-.32657,1.5454l78.48702-20.10931ZM197.60968,198.58153c25.69511-36.4916,37.53008-84.99279,18.54789-127.25475-6.41906-14.29141-14.41787-29.29335-24.9885-40.88421l-21.43562-6.08081,10.55116,13.21303c29.36674,42.92042,36.51728,103.85602,6.40273,148.41675l-12.99408,19.31262,23.91641-6.72262ZM382.90876,137.48333c5.46465-8.63059,5.419-22.35749,1.75137-31.62109-7.204-18.19571-25.98018-17.20033-41.90492-22.72305l-.62736.21648c11.3122,22.64681,8.4001,50.48793-3.33795,72.33347,14.89492-3.91409,34.92175-3.68038,44.11885-18.2058Z"/><path class="cls-1" d="M157.42729,23.94783c-.2211-5.47045,4.79082-11.05558,10.21741-11.67487,5.97379-.68174,18.72427,3.21394,24.70918,5.31117,6.15121,2.1555,9.89567,4.79556,13.22906,10.48972,1.70934-1.30266,4.12228-2.95638,6.29264-3.25581,7.5062-1.03557,19.71926,4.38437,27.18302,6.51417,16.75275,4.78043,33.79749,8.86062,50.5323,13.67274,10.70783,3.07905,23.86223,5.94452,32.72156,12.72227,5.10052,3.90211,9.87765,9.45275,13.75791,14.53487,6.47676-4.12767,13.76549.21683,20.2084,1.94564,7.47885,2.00678,15.43671,3.24242,22.40074,6.78337,21.82914,11.09929,28.2763,48.02263,12.85522,66.36894-11.30882,13.454-23.99771,15.2998-40.34182,18.44332-7.27258,1.39876-14.31407,5.04852-20.53255-1.3383-.54665-.00442-5.95857,7.30383-7.06966,8.34011-15.16392,14.14305-36.50511,16.19518-55.68077,21.03175-11.53841,2.91027-23.00694,5.94264-34.60113,8.75812-8.16145,1.98189-15.09175,6.53082-22.09022-1.45694-.68831,1.77946-1.9831,4.26432-3.32272,5.64503-3.34933,3.45204-10.435,5.3463-15.02129,6.65834-4.30992,1.23298-12.43455,3.78713-16.50923,4.33693-6.86421.9262-12.79929-2.90005-14.55426-9.55166-9.63711,9.03404-20.92313,16.96017-33.34805,21.68487-23.6638,8.99841-49.26854,8.45187-71.79697-3.26247C6.91376,200.7789-8.22156,135.31571,4.03635,83.8053,15.26885,36.6039,50.77266-2.90138,102.62302.16759c14.26998.84462,34.90498,8.52055,46.43396,16.93725,2.78429,2.03266,5.43019,4.92368,8.3703,6.84299ZM98.85475,12.50822C-1.12143,9.13716-18.84252,185.06262,69.35896,218.5423c60.43325,22.93937,110.19409-33.07443,115.53524-89.37681,4.94036-52.0776-28.46073-114.7158-86.03945-116.65727ZM173.69326,205.30415l23.91641-6.72262c25.69511-36.4916,37.53008-84.99279,18.54789-127.25475-6.41906-14.29141-14.41787-29.29335-24.9885-40.88421l-21.43562-6.08081,10.55116,13.21303c29.36674,42.92042,36.51728,103.85602,6.40273,148.41675l-12.99408,19.31262ZM220.38984,193.21559l78.48702-20.10931c41.96911-15.66488,50.28906-89.59477,7.99881-109.94826l-92.74367-26.28155c10.58272,15.64869,20.4728,32.43323,24.54477,51.12121,6.90577,31.69352,1.34966,63.06079-11.96403,92.1585-1.76783,3.86368-4.3762,7.80169-5.99633,11.51401-.22608.51804-.42935.95591-.32657,1.5454ZM338.78991,155.68913c14.89492-3.91409,34.92175-3.68038,44.11885-18.2058,5.46465-8.63059,5.419-22.35749,1.75137-31.62109-7.204-18.19571-25.98018-17.20033-41.90492-22.72305l-.62736.21648c11.3122,22.64681,8.4001,50.48793-3.33795,72.33347ZM140.96904,54.3769c-26.69784-31.30359-67.45414-20.54653-90.67333,8.5643-31.20164,39.11874-18.11494,118.08544,31.87581,135.70097,22.62107,7.97112,49.42546,4.74588,66.29391-13.35014,7.41765-7.95745,8.89885-19.11217,11.88018-29.18177-9.72489,11.41316-18.16126,23.66773-32.94094,28.96681-20.56011,7.37159-44.38695-4.60417-56.86465-21.08107-20.71085-27.34884-21.15866-69.42759.00046-96.65284,15.42486-19.84702,32.3108-20.25944,55.46815-15.0994,5.69053,1.26799,11.3354,3.14726,16.82659,5.05724.30465-.31033-1.52311-2.52185-1.86618-2.9241Z"/></g></svg>