<?xml version="1.0" encoding="UTF-8"?><svg id="Layer_2" xmlns="http://www.w3.org/2000/svg" width="399.99997" height="236.11348" viewBox="0 0 399.99997 236.11348"><g id="Layer_2-2"><path d="M157.42729,23.94783c-.2211-5.47045,4.79082-11.05558,10.21741-11.67487,5.97379-.68174,18.72427,3.21394,24.70918,5.31117,6.15121,2.1555,9.89568,4.79556,13.22906,10.48972,1.70934-1.30266,4.12228-2.95638,6.29263-3.25581,7.5062-1.03557,19.71925,4.38437,27.18301,6.51417,16.75275,4.78043,33.79749,8.86062,50.53229,13.67274,10.70782,3.07905,23.86224,5.94452,32.72156,12.72227,5.10052,3.90211,9.87766,9.45275,13.7579,14.53487,6.47675-4.12767,13.7655.21683,20.2084,1.94564,7.47885,2.00678,15.43671,3.24242,22.40073,6.78337,21.82913,11.09929,28.27631,48.02263,12.85522,66.36894-11.30881,13.45399-23.99771,15.2998-40.34183,18.44331-7.27258,1.39876-14.31406,5.04852-20.53256-1.3383-.54666-.00443-5.95856,7.30383-7.06967,8.3401-15.16391,14.14305-36.50513,16.19518-55.68079,21.03175-11.53842,2.91026-23.00694,5.94264-34.60114,8.75812-8.16145,1.98189-15.09175,6.53082-22.09023-1.45694-.68831,1.77946-1.98309,4.26431-3.32272,5.64503-3.34933,3.45204-10.435,5.3463-15.02129,6.65834-4.30992,1.23299-12.43456,3.78712-16.50923,4.33693-6.86421.92619-12.79929-2.90005-14.55426-9.55167-9.63712,9.03404-20.92313,16.96017-33.34805,21.68488-23.6638,8.99841-49.26854,8.45187-71.79697-3.26247C6.91376,200.7789-8.22156,135.3157,4.03635,83.8053,15.26885,36.6039,50.77266-2.90138,102.62301.16759c14.26998.84462,34.90498,8.52055,46.43396,16.93725,2.78429,2.03266,5.43019,4.92368,8.3703,6.84299h.00002ZM98.85475,12.50822C-1.12143,9.13716-18.84252,185.06262,69.35896,218.5423c60.43324,22.93936,110.19409-33.07443,115.53523-89.3768,4.94035-52.0776-28.46072-114.7158-86.03944-116.65728ZM173.69325,205.30415l23.91641-6.72263c25.69511-36.49159,37.53008-84.99279,18.5479-127.25475-6.41907-14.29141-14.41788-29.29335-24.98849-40.88421l-21.43562-6.08081,10.55116,13.21303c29.36674,42.92043,36.51727,103.85602,6.40273,148.41675l-12.99408,19.31262ZM220.38984,193.21559l78.48701-20.10931c41.96912-15.66489,50.28906-89.59477,7.99881-109.94826l-92.74367-26.28155c10.58272,15.64869,20.47279,32.43324,24.54477,51.12121,6.90578,31.69352,1.34966,63.06079-11.96404,92.15851-1.76784,3.86368-4.37621,7.8017-5.99632,11.51401-.22607.51804-.42935.95592-.32657,1.54539ZM338.78992,155.68913c14.89493-3.91409,34.92175-3.68037,44.11884-18.2058,5.46466-8.63058,5.41901-22.35749,1.75137-31.62109-7.20401-18.19571-25.98019-17.20033-41.90491-22.72305l-.62735.21648c11.31219,22.64681,8.40009,50.48793-3.33795,72.33348v-.00002ZM140.96904,54.3769c-26.69784-31.30359-67.45414-20.54653-90.67333,8.5643-31.20164,39.11874-18.11494,118.08544,31.87581,135.70098,22.62107,7.97112,49.42547,4.74588,66.29391-13.35014,7.41765-7.95744,8.89885-19.11217,11.88019-29.18178-9.72488,11.41316-18.16125,23.66772-32.94094,28.96681-20.56011,7.3716-44.38696-4.60417-56.86465-21.08107-20.71085-27.34885-21.15866-69.42759.00046-96.65284,15.42486-19.84702,32.3108-20.25944,55.46815-15.0994,5.69054,1.26799,11.3354,3.14726,16.82658,5.05724.30466-.31033-1.52312-2.52185-1.86618-2.9241Z"/></g></svg>