<svg xmlns="http://www.w3.org/2000/svg" width="216" height="193.436" viewBox="0 0 216 193.436"><defs><radialGradient id="a" cx="108.033" cy="94.839" r="107.664" fx="108.033" fy="94.839" gradientTransform="matrix(1 0 0 .86441 0 12.86)" gradientUnits="userSpaceOnUse"><stop offset="0" stop-color="#c3e2ef"/><stop offset=".24" stop-color="#c0dfec"/><stop offset=".388" stop-color="#b8d7e3"/><stop offset=".512" stop-color="#aac8d5"/><stop offset=".623" stop-color="#97b4c0"/><stop offset=".724" stop-color="#7d9aa6"/><stop offset=".817" stop-color="#5f7b85"/><stop offset=".861" stop-color="#4e6a74"/></radialGradient></defs><path d="M.067 69.598c.035-.858.464-2.177.242-3.238l1.076-13.32c2.535 5.328 4.239 11.08 6.908 16.37 1.55 3.072 3.462 5.953 5.328 8.827l2.83-10.37c7.659-23.535 24.053-40.02 45.512-51.434 2.699-1.435 6.684-3.696 9.433-4.723.299-.112.547-.256.888-.189-3.064 5.31-7.06 10.26-8.524 16.313-1.086 4.49-1.26 8.686-.517 13.249.222 1.364.592 2.723 1.003 4.034C73.122 26.54 89.86 10.93 110.485 4.25c7.643-2.476 15.696-3.637 23.7-4.25l-10.792 15.238c.139.234.26.225.462.282 1.994.568 5.057.695 7.256 1.113 48.002 9.133 82.382 40.533 84.889 91.125v16.56l-1.318 16.078c-3.05-6.34-5.023-13.192-8.478-19.36l-3.877-5.837c-4.15 21.922-17.132 41.134-35.196 53.954-7.195 5.106-15.115 9.064-23.108 12.763-.082-.36.134-.525.285-.792 2.268-4.003 5.277-7.707 6.918-12.04 2.069-5.462 2.676-12.028 1.409-17.74-.077-.343-.704-3.139-1.172-2.786-6.045 13.181-16.305 24.772-28.575 32.5-12.174 7.667-26.421 11.571-40.765 12.378-.278-.241 1.735-2.578 1.909-2.822 2.346-3.282 4.798-6.603 7.02-9.963.406-.615 1.173-1.568 1.428-2.176.11-.26.334-.24-.04-.523-30.595-3.811-61.193-18.41-77.983-45.11C6.865 120.769 2.593 107.12.817 92.969l-.75-7.77c.156-5.185-.21-10.42 0-15.6M120.03 8.64c-19.611 3.639-37.25 16.235-47.026 33.595l9.196-4.839c32.264-13.957 69.24.423 84.658 31.559 7.937 16.028 10.313 44.667-15.274 42.639-9.272-.735-22.721-10.207-24.49-19.663-1.464-7.828 4.293-11.323 11.41-11.056-3.815-4.712-9.968-6.811-15.926-5.968-4.983.704-9.564 3.134-13.469 6.199-9.595-15.652-27.521-23.663-45.664-22.828-6.136-9.377-8.725-20.584-6.037-31.639-.16-.166-3.52 2.17-3.913 2.443C36.046 41.217 21.912 62.225 19.53 83.668c-.325 2.93-.11 5.846-.513 8.729a54 54 0 0 1-12.47-12.72c.095 19.177 5.057 38.476 16.356 54.076 18.14 25.045 51.092 37.52 81.29 38.567l-8.155 12.718c17.103-3.67 32.256-12.98 42.661-27.044.472-.638 4.42-6.255 4.121-6.555-1.775.707-3.338 1.898-5.032 2.764-32.675 16.698-71.588 3.228-88.183-28.92-5.855-11.342-10.85-33.438 2.784-41.146 11.22-6.343 26.103.773 33.05 10.341 6.638 9.143 4.643 18.337-7.876 18.08-.34.302 1.98 2.163 2.283 2.395 8.652 6.62 19.302 3.766 27.108-2.631 4.375 6.761 10.025 12.563 17.148 16.44 5.986 3.26 14.424 5.91 21.241 6.353 1.361.089 6.513-.278 7.212.226.589.424 3.054 5.125 3.505 6.094 3.681 7.92 4.626 16.848 2.598 25.361.168.173 2.593-1.478 2.954-1.722 13.019-8.807 23.835-21.857 29.787-36.444 3.548-8.696 5.849-18.13 5.407-27.591.166-.19 1.1.559 1.313.725 4.381 3.4 8.15 7.514 11.4 11.994-.077-21.697-6.469-43.041-20.748-59.524-15.892-18.344-42.399-29.566-66.254-32.366-3.46-.406-6.944-.42-10.406-.752zm20.93 40.231c-13.806-9.401-29.327-12.678-45.928-8.959-8.737 1.958-17.591 6.152-24.187 12.164 5.096.124 10.09 1.67 15.034 2.807 17.592-7.916 40.19-8.473 54.304 6.312l-6.027-3.448c-10.672-5.296-23.918-4.51-34.51.207-1.088.484-2.096 1.144-3.221 1.547l-.147.493c5.685 2.956 10.392 7.57 14.512 12.44 9.491-5.405 20.543-5.704 29.369 1.148 3.83 2.975 6.014 6.311 8.806 10.237l.807 1.735 2.167 3.962c-5.689-.774-11.393-3.191-17.169-1.933-3.545 1.14-.395 5.718.9 7.53 8.927 12.503 31.104 16.373 30.435-4.525-.537-16.798-11.98-32.752-25.145-41.717M63.887 103.92c3.592.51 7.106 1.677 10.708 2.127 4.736.59 10.845.851 7.147-5.71-7.79-13.824-32.412-19.56-31.78 2.51.484 16.926 12.888 34.397 26.901 43.17 19.143 11.985 43.205 11.98 62.34 0 2.077-1.3 3.962-2.861 6.017-4.184l-.121-.479c-5.063-.005-9.982-1.532-14.868-2.794-15.357 6.945-34.5 8.543-49.145-1.807-1.038-.733-3.198-2.237-3.95-2.911-.257-.23-.663-1.049-1.013-1.362 1.695.733 3.162 1.909 4.794 2.763 12.457 6.52 26.948 4.874 39.112-1.444-5.58-3.287-10.478-7.562-14.56-12.574-2.372.86-4.584 2.055-7.033 2.732-13.091 3.618-23.01-1.814-29.995-12.474-1.61-2.455-2.93-5.117-4.554-7.563"/><path d="m120.03 8.64-7.918 12.475c3.462.334 6.945.347 10.406.753 23.855 2.8 50.362 14.022 66.254 32.366 14.28 16.483 20.671 37.827 20.748 59.524-3.25-4.48-7.019-8.594-11.4-11.994-.214-.166-1.147-.914-1.313-.725.442 9.46-1.859 18.895-5.407 27.591-5.952 14.587-16.768 27.637-29.787 36.444-.361.244-2.786 1.895-2.954 1.722 2.028-8.513 1.083-17.441-2.598-25.36-.45-.97-2.916-5.67-3.505-6.095-.699-.504-5.85-.137-7.212-.226-6.817-.443-15.255-3.093-21.24-6.352-7.124-3.878-12.774-9.68-17.15-16.441-7.805 6.397-18.455 9.25-27.107 2.63-.303-.23-2.622-2.092-2.283-2.393 12.519.256 14.514-8.938 7.876-18.08-6.947-9.569-21.83-16.685-33.05-10.342-13.634 7.708-8.639 29.804-2.784 41.146 16.595 32.148 55.508 45.618 88.183 28.92 1.694-.866 3.257-2.057 5.032-2.764.299.3-3.65 5.917-4.12 6.555-10.406 14.064-25.559 23.375-42.662 27.043l8.156-12.717c-30.199-1.046-63.152-13.522-81.29-38.567-11.3-15.6-16.262-34.899-16.358-54.075a54 54 0 0 0 12.471 12.719c.403-2.883.188-5.8.513-8.729 2.382-21.443 16.515-42.451 33.964-54.586.393-.274 3.753-2.609 3.913-2.443-2.688 11.055-.099 22.262 6.037 31.64 18.143-.836 36.07 7.175 45.664 22.827 3.905-3.065 8.487-5.495 13.469-6.2 5.958-.842 12.111 1.257 15.926 5.97-7.117-.268-12.874 3.227-11.41 11.055 1.769 9.456 15.218 18.928 24.49 19.663 25.587 2.028 23.211-26.611 15.274-42.64C151.44 37.82 114.464 23.44 82.2 37.397l-9.196 4.84C82.78 24.874 100.42 12.278 120.03 8.64" style="fill:url(#a)"/></svg>