<svg xmlns="http://www.w3.org/2000/svg" width="89.342" height="58.61" viewBox="0 0 23.639 15.507"><path d="M22.62 2.35a1.02 1.02 0 0 1 .862 1.564v.002c-3.006 4.733-6.99 8.553-11.249 11.459a.76.76 0 0 1-.857 0C7.117 12.469 3.162 8.649.158 3.915v-.001a1.02 1.02 0 0 1 .861-1.564z" style="clip-rule:evenodd;fill:#fff;fill-rule:evenodd;stroke-width:.264583;stroke-linejoin:round;stroke-miterlimit:2"/><path d="M22.62 3.11a.259.259 0 0 1 .22.398c-2.949 4.643-6.858 8.389-11.036 11.239C7.627 11.897 3.746 8.15.8 3.507a.26.26 0 0 1 .22-.397z" style="clip-rule:evenodd;fill-rule:evenodd;stroke-width:.264583;stroke-linejoin:round;stroke-miterlimit:2"/><path d="M11.805 0c2.818 0 5.371.7 7.328 2.728.71.736 1.258 2.038 1.258 4.088 0 0 .03 1.632-.457 2.504-1.43 2.566-4.336 4.29-8.13 4.29-3.792 0-6.697-1.724-8.128-4.29-.487-.872-.458-2.504-.458-2.504 0-2.05.55-3.352 1.258-4.088C6.433.7 8.986 0 11.806 0m4.85 6.914c-1.836-1.656-3.367-2.208-4.85-2.208-1.512 0-3.102.422-4.983 2.137 1.73.954 3.977 1.32 4.982 1.32.98 0 3.14-.348 4.85-1.25" style="clip-rule:evenodd;fill:#fff;fill-rule:evenodd;stroke-width:.264583;stroke-linejoin:round;stroke-miterlimit:2"/><path d="M11.805 8.783c1.854 0 7.702-1.176 7.702-4.768.598 1.403.655 3.643.25 4.635-.976 2.377-4.083 4.459-7.952 4.459-3.87 0-6.977-2.082-7.95-4.46-.408-.991-.35-3.231.247-4.634 0 3.592 5.848 4.768 7.703 4.768" style="clip-rule:evenodd;fill-rule:evenodd;stroke-width:.264583;stroke-linejoin:round;stroke-miterlimit:2"/><path d="M11.805 4.087c-1.71 0-3.522.482-5.684 2.564-.612-.472-1.54-1.172-1.54-2.208S5.41 2.42 6.155 1.966C7.347 1.24 8.811.503 11.805.503s4.48.899 5.67 1.624c.747.454 1.574 1.44 1.574 2.477s-.98 1.74-1.59 2.212c-2.162-2.082-3.945-2.73-5.654-2.73" style="clip-rule:evenodd;fill-rule:evenodd;stroke-width:.264583;stroke-linejoin:round;stroke-miterlimit:2"/><path d="M13.048 12.804c-.054-.054-.055-.05.05-.206.192-.292.267-.727.197-1.16-.045-.283-.046-.283-.14-.193a1 1 0 0 1-.187.13c-.406.2-.85.11-1.016-.206-.185-.353.018-.752.446-.876.12-.035.156-.036.25-.006.083.026.113.05.12.095.014.1-.037.135-.177.118-.156-.018-.279.035-.407.178-.075.083-.092.122-.092.213 0 .287.267.437.614.346a.72.72 0 0 0 .428-.274c.064-.087.077-.135.09-.32.021-.36.097-.533.22-.5.08.02.09.07.04.185-.06.134-.06.692.002.997.113.56.005 1.165-.26 1.45-.074.08-.12.088-.178.03m-3.012-1.33c-.086-.037-.122-.095-.098-.158.022-.058.105-.073.208-.04.13.044.25.014.344-.085a.45.45 0 0 0 .138-.361c0-.188-.055-.234-.28-.234-.19 0-.316.028-.507.109-.093.04-.126.07-.152.143a.56.56 0 0 1-.762.317c-.105-.053-.117-.068-.117-.15 0-.116.052-.13.212-.051.105.05.132.054.22.028a.42.42 0 0 0 .275-.33c.05-.334-.14-.44-.596-.33-.325.08-.35.096-.42.249-.075.162-.188.3-.272.33-.147.057-.23-.114-.098-.2.088-.057.18-.22.261-.455.082-.242.083-.29.006-.284-.116.01-.15-.004-.166-.07-.026-.104.028-.143.203-.143.132 0 .166.01.222.068.07.069.07.062.017.288l-.012.055.178-.047c.208-.054.46-.063.587-.02a.5.5 0 0 1 .29.29.3.3 0 0 0 .04.099c.005 0 .082-.025.172-.056.213-.073.594-.082.716-.016.135.073.205.214.204.412-.002.277-.138.516-.358.63a.64.64 0 0 1-.455.012m4.07-.237c-.02-.024-.026-.066-.014-.111a1.4 1.4 0 0 0 0-.598 2 2 0 0 0-.053-.245 1 1 0 0 0-.104.056l-.095.056-.055-.055c-.05-.051-.052-.058-.01-.12a.6.6 0 0 1 .16-.135c.161-.094.247-.067.298.095.02.063.04.119.043.123a2 2 0 0 0 .183-.177c.178-.184.43-.34.546-.34.08 0 .255.088.322.16.173.189.228.558.116.775-.096.186-.355.337-.54.316-.067-.007-.08-.022-.087-.093-.007-.074.002-.087.066-.1.177-.04.245-.073.318-.156.103-.117.121-.217.071-.388-.127-.437-.443-.35-.902.25-.024.033-.034.116-.03.27q.007.37-.103.43c-.066.036-.092.033-.13-.013m1.71-.544c-.027-.072 0-.135.074-.17.056-.027.072-.052.072-.12 0-.157-.16-.67-.208-.67-.01 0-.04.025-.068.054-.064.07-.179.06-.19-.02-.017-.122.2-.31.336-.291.046.007.08.04.12.124l.055.115.117-.18c.275-.424.54-.57.773-.43.047.03.09.053.095.053.004 0 .046-.075.092-.166.106-.208.285-.415.436-.504.157-.091.265-.071.415.079a.7.7 0 0 1 .197.522v.157l.08-.076a.6.6 0 0 0 .124-.203c.05-.145.11-.191.19-.15.125.068 0 .368-.249.595-.264.24-1.104.742-1.863 1.112-.39.19-.57.242-.598.169m.713-.467c.257-.136.313-.178.377-.28a.4.4 0 0 0 .076-.25c0-.174-.085-.346-.197-.4-.08-.038-.092-.037-.174.01-.11.065-.297.296-.412.51l-.09.169.035.2c.02.11.046.202.06.202.012 0 .16-.072.325-.16m1.054-.586c.21-.132.34-.335.34-.527 0-.223-.126-.452-.247-.452-.095 0-.315.256-.435.505-.09.187-.1.229-.077.29.015.04.027.148.027.242v.17l.15-.085a8 8 0 0 0 .242-.143m-10.263.896c-.32-.13-1.019-.574-1.648-1.046-.534-.4-.612-.481-.566-.583.034-.074.122-.083.192-.02.046.043.054.04.154-.057.095-.093.381-.505.36-.518l-.085-.031c-.099-.033-.143-.1-.104-.162.041-.066.148-.07.284-.01.166.073.193.154.106.31-.037.065-.066.12-.066.124 0 .003.103.013.23.022.186.013.26.03.397.102.14.07.18.106.23.202a.6.6 0 0 1 .058.233v.115l.103-.016c.29-.047.724.098.816.27.136.256-.028.665-.328.818l-.077.039.1.033a.7.7 0 0 0 .248.019c.173-.016.236.01.236.1 0 .16-.315.189-.64.056m-.006-.425c.097-.024.275-.23.296-.345.031-.164-.009-.222-.199-.288a.86.86 0 0 0-.387-.05l-.218.008-.096.108a1 1 0 0 1-.183.159l-.087.05.217.143c.32.21.442.264.545.24zm-.867-.628c.083-.043.205-.262.206-.37 0-.203-.175-.3-.582-.316-.276-.012-.286-.01-.328.05a2 2 0 0 1-.127.155l-.083.092.261.196a4 4 0 0 0 .305.213c.08.032.268.022.348-.02m7.05.496c-.073-.073.12-.48.342-.72.166-.18.276-.227.428-.181.2.06.256.27.14.518-.066.142-.087.156-.173.11-.06-.033-.063-.08-.008-.226.052-.135.035-.191-.06-.191-.1 0-.249.17-.4.458-.099.187-.138.236-.188.243-.035.004-.07-.001-.082-.011M9.622 9.93c-.092-.092-.07-.117.318-.373.317-.21.406-.232.42-.104.007.06-.014.087-.13.17-.177.128-.524.348-.548.348-.01 0-.038-.02-.06-.041m6.811-1.11c-.03-.028-.054-.07-.054-.093 0-.046.114-.168.158-.168.07 0 .13.057.13.126 0 .148-.14.23-.234.136m-9.258-.21c-.068-.068-.067-.17.003-.22.07-.048.154-.02.205.07.086.15-.084.274-.208.15m9.71-.095c-.04-.06-.04-.075-.006-.136.05-.088.161-.131.218-.084.094.078.01.289-.116.289-.028 0-.07-.03-.096-.07m-.38-.181a.153.153 0 0 1 .122-.216c.134-.015.192.132.092.23-.075.077-.177.07-.215-.014m.266-3.765c-.18-.123-.61-.393-.955-.6-.595-.356-.77-.483-.865-.628-.05-.076-.027-.16.048-.184.045-.014.078.009.171.116a.8.8 0 0 0 .133.134c.01 0 .013-.082.01-.183-.02-.39.221-.616.508-.48.13.06.33.25.426.4l.082.127.102-.04c.187-.073.358.002.538.238.05.067.12.18.154.255l.062.133.045-.068c.068-.103.193-.094.296.023.08.09.13.246.096.3-.032.052-.14.029-.195-.042-.03-.038-.059-.065-.064-.06-.005.007-.058.1-.117.21q-.17.309-.07.39c.068.056-.225.082-.405-.041m.21-.316c.062-.143.051-.198-.098-.486-.11-.212-.244-.34-.34-.33-.096.013-.17.147-.17.307 0 .142.046.246.154.348.083.079.352.277.38.28.01.002.043-.052.073-.12m-.864-.9c-.108-.213-.338-.416-.469-.416-.105 0-.162.238-.1.42.052.156.122.226.356.36l.228.132.02-.195c.017-.17.013-.208-.035-.302M6.291 4.673c-.032-.023-.058-.058-.058-.077 0-.061.078-.12.16-.12.07 0 .232-.062.232-.09a.4.4 0 0 0-.098-.062c-.328-.17-.404-.598-.14-.787.14-.1.314-.16.497-.176l.18-.015.013-.105c.036-.27.344-.44.732-.403l.153.014-.017-.102c-.022-.131 0-.193.08-.23a.5.5 0 0 1 .327-.003c.11.059.042.182-.1.182-.086 0-.088.002-.07.085.01.047.06.173.112.28.095.195.096.197.2.197.1 0 .105.005.105.078 0 .072-.023.09-.306.248-.422.236-1.19.718-1.404.88-.215.164-.298.208-.434.23-.076.013-.12.006-.164-.024m.562-.507a2 2 0 0 0 .307-.173c.207-.138.265-.195.194-.195a.6.6 0 0 1-.148-.121l-.12-.121-.165.017c-.425.043-.596.246-.398.472a.43.43 0 0 0 .246.142s.038-.008.084-.021m1.07-.646a4 4 0 0 0 .253-.14c.012-.012-.009-.08-.046-.153-.07-.142-.05-.131-.35-.177-.132-.02-.37.038-.44.108-.157.158.013.483.253.483.067 0 .174-.04.33-.121m2.854.31c-.203-.226-.316-.582-.36-1.135-.027-.343-.085-.557-.185-.684-.06-.077-.066-.156-.013-.2.097-.08.232.07.33.37.052.16.07.186.186.26a.54.54 0 0 0 .306.095c.217.016.344-.022.434-.128.138-.165.05-.37-.193-.443-.088-.027-.129-.027-.2-.001-.192.07-.278-.108-.099-.202.086-.045.321-.035.44.019.122.055.292.233.316.33a.52.52 0 0 1-.298.583c-.227.105-.469.094-.772-.034-.045-.02-.047-.01-.03.16.038.386.147.697.314.895.087.103.08.197-.016.208-.05.006-.09-.017-.16-.094m3.823-.477c-.055-.056-.065-.12-.055-.392l.006-.17-.144-.16a1.2 1.2 0 0 0-.289-.235c-.137-.072-.15-.074-.217-.036-.217.12-.089.575.162.575.106 0 .195.086.155.15-.053.084-.106.098-.237.063a.7.7 0 0 1-.207-.096.6.6 0 0 1-.194-.416c0-.105-.01-.125-.124-.225-.155-.136-.287-.205-.434-.225-.1-.014-.12-.008-.157.045-.09.13-.02.416.124.493.037.02.11.042.163.05.114.02.168.086.125.154-.068.108-.353.048-.5-.105-.2-.206-.219-.58-.039-.784.125-.142.43-.096.73.11.162.113.19.124.22.09.055-.068.173-.115.284-.115.14 0 .323.095.508.264a1 1 0 0 0 .154.125l.045-.088c.055-.106.157-.117.283-.03.116.082.17.16.148.225-.023.075-.09.085-.184.03l-.085-.05-.034.12a2 2 0 0 0-.036.379c0 .196-.01.262-.04.28-.056.036-.072.033-.13-.026m-8.115-.16c-.067-.038-.054-.142.025-.204.088-.07.156-.07.194 0 .054.103-.116.26-.22.203zm2.397-.024c-.107-.033-.26-.204-.295-.33-.07-.254.008-.5.194-.603.147-.083.45-.081.71.003.053.017.056.01.043-.085-.024-.18.103-.251.336-.186q.175.048.14.157c-.016.049-.034.055-.136.047l-.118-.01.015.132c.024.2.09.395.163.482.07.084.068.167-.005.196-.095.036-.223-.102-.29-.314-.042-.135-.05-.143-.19-.197a1.4 1.4 0 0 0-.333-.07c-.184-.011-.19-.01-.27.07-.078.077-.083.095-.07.216.021.24.18.353.374.272a.5.5 0 0 1 .143-.04c.058 0 .11.084.086.143-.039.1-.329.17-.497.118zm-1.925-.29c-.11-.063-.017-.232.13-.232.135 0 .135.127.001.22-.067.048-.07.048-.13.013m-.379-.093c-.06-.025-.038-.16.036-.217.083-.064.123-.068.178-.013.057.058.052.083-.035.17-.075.075-.11.087-.179.06m9.917-.013c-.127-.07-.155-.19-.056-.235.131-.06.312.122.226.226q-.059.069-.17.009m-2.677-.878a5 5 0 0 1-.264-.292c-.143-.17-.185-.236-.179-.288.006-.048.026-.07.07-.077.075-.01.12.028.36.317.202.242.236.334.141.384-.042.023-.065.015-.128-.044M9.175 1.81c-.089-.06-.17-.193-.17-.282 0-.033.04-.101.085-.152.196-.213.54-.163.92.137.124.097.148.128.14.187-.012.114-.115.106-.274-.02-.242-.193-.5-.265-.624-.173-.049.037-.046.042.062.143.098.09.11.11.084.158-.036.067-.12.068-.223.002" style="clip-rule:evenodd;fill:#fff;fill-rule:nonzero;stroke-width:.264583;stroke-linejoin:round;stroke-miterlimit:2"/></svg>