<svg xmlns="http://www.w3.org/2000/svg" width="89.346" height="58.614" viewBox="0 0 23.639 15.508"><defs><linearGradient id="a" x1="0" x2="1" y1="0" y2="0" gradientTransform="rotate(-45.059 20.486 3.424)scale(2.67887)" gradientUnits="userSpaceOnUse"><stop offset="0" style="stop-color:#8d742f;stop-opacity:1"/><stop offset=".07" style="stop-color:#967d38;stop-opacity:1"/><stop offset=".18" style="stop-color:#ae954f;stop-opacity:1"/><stop offset=".2" style="stop-color:#b39a54;stop-opacity:1"/><stop offset=".22" style="stop-color:#b9a059;stop-opacity:1"/><stop offset=".3" style="stop-color:#cab068;stop-opacity:1"/><stop offset=".39" style="stop-color:#d4ba71;stop-opacity:1"/><stop offset=".5" style="stop-color:#d7bd74;stop-opacity:1"/><stop offset=".61" style="stop-color:#d4ba71;stop-opacity:1"/><stop offset=".7" style="stop-color:#cab068;stop-opacity:1"/><stop offset=".78" style="stop-color:#b9a059;stop-opacity:1"/><stop offset=".8" style="stop-color:#b39a54;stop-opacity:1"/><stop offset=".86" style="stop-color:#a38a45;stop-opacity:1"/><stop offset=".94" style="stop-color:#937a35;stop-opacity:1"/><stop offset="1" style="stop-color:#8d742f;stop-opacity:1"/></linearGradient><linearGradient id="b" x1="0" x2="1" y1="0" y2="0" gradientTransform="rotate(-25.787 30.343 -3.585)scale(19.06455)" gradientUnits="userSpaceOnUse"><stop offset="0" style="stop-color:#8d742f;stop-opacity:1"/><stop offset=".07" style="stop-color:#967d38;stop-opacity:1"/><stop offset=".18" style="stop-color:#ae954f;stop-opacity:1"/><stop offset=".2" style="stop-color:#b39a54;stop-opacity:1"/><stop offset=".22" style="stop-color:#b9a059;stop-opacity:1"/><stop offset=".3" style="stop-color:#cab068;stop-opacity:1"/><stop offset=".39" style="stop-color:#d4ba71;stop-opacity:1"/><stop offset=".5" style="stop-color:#d7bd74;stop-opacity:1"/><stop offset=".61" style="stop-color:#d4ba71;stop-opacity:1"/><stop offset=".7" style="stop-color:#cab068;stop-opacity:1"/><stop offset=".78" style="stop-color:#b9a059;stop-opacity:1"/><stop offset=".8" style="stop-color:#b39a54;stop-opacity:1"/><stop offset=".86" style="stop-color:#a38a45;stop-opacity:1"/><stop offset=".94" style="stop-color:#937a35;stop-opacity:1"/><stop offset="1" style="stop-color:#8d742f;stop-opacity:1"/></linearGradient><linearGradient id="c" x1="0" x2="1" y1="0" y2="0" gradientTransform="rotate(-31.479 22.607 -3.384)scale(16.36182)" gradientUnits="userSpaceOnUse"><stop offset="0" style="stop-color:#8d742f;stop-opacity:1"/><stop offset=".07" style="stop-color:#967d38;stop-opacity:1"/><stop offset=".18" style="stop-color:#ae954f;stop-opacity:1"/><stop offset=".2" style="stop-color:#b39a54;stop-opacity:1"/><stop offset=".22" style="stop-color:#b9a059;stop-opacity:1"/><stop offset=".3" style="stop-color:#cab068;stop-opacity:1"/><stop offset=".39" style="stop-color:#d4ba71;stop-opacity:1"/><stop offset=".5" style="stop-color:#d7bd74;stop-opacity:1"/><stop offset=".61" style="stop-color:#d4ba71;stop-opacity:1"/><stop offset=".7" style="stop-color:#cab068;stop-opacity:1"/><stop offset=".78" style="stop-color:#b9a059;stop-opacity:1"/><stop offset=".8" style="stop-color:#b39a54;stop-opacity:1"/><stop offset=".86" style="stop-color:#a38a45;stop-opacity:1"/><stop offset=".94" style="stop-color:#937a35;stop-opacity:1"/><stop offset="1" style="stop-color:#8d742f;stop-opacity:1"/></linearGradient></defs><path d="M22.62 2.35a1.02 1.02 0 0 1 .862 1.565v.002c-3.007 4.733-6.99 8.554-11.249 11.459a.76.76 0 0 1-.857 0C7.116 12.47 3.162 8.65.158 3.916v-.001a1.02 1.02 0 0 1 .861-1.564z" style="clip-rule:evenodd;fill-rule:evenodd;stroke-width:.264583;stroke-linejoin:round;stroke-miterlimit:2"/><path d="M22.62 3.112a.259.259 0 0 1 .22.397c-2.949 4.643-6.858 8.389-11.036 11.239C7.627 11.898 3.746 8.152.8 3.508a.259.259 0 0 1 .22-.396z" style="clip-rule:evenodd;fill:url(#a);fill-rule:evenodd;stroke-width:.264583;stroke-linejoin:round;stroke-miterlimit:2"/><path d="M11.804 0c2.82 0 5.372.7 7.33 2.73.71.735 1.257 2.037 1.257 4.088 0 0 .03 1.63-.458 2.503-1.43 2.566-4.336 4.29-8.129 4.29s-6.698-1.724-8.129-4.29c-.486-.872-.457-2.503-.457-2.503 0-2.051.548-3.353 1.258-4.088C6.433.7 8.986 0 11.804 0m4.85 6.914c-1.834-1.656-3.365-2.208-4.85-2.208-1.51 0-3.1.423-4.982 2.137 1.73.954 3.978 1.32 4.982 1.32.98 0 3.14-.348 4.85-1.25" style="clip-rule:evenodd;fill-rule:evenodd;stroke-width:.264583;stroke-linejoin:round;stroke-miterlimit:2"/><path d="M11.804 8.785c1.855 0 7.703-1.177 7.703-4.77.597 1.404.655 3.644.248 4.636-.975 2.377-4.08 4.459-7.95 4.459s-6.977-2.082-7.952-4.46c-.406-.991-.349-3.231.25-4.634 0 3.592 5.847 4.769 7.701 4.769" style="clip-rule:evenodd;fill:url(#b);fill-rule:evenodd;stroke-width:.264583;stroke-linejoin:round;stroke-miterlimit:2"/><path d="M11.804 4.088c-1.71 0-3.522.482-5.683 2.564-.612-.472-1.54-1.172-1.54-2.208S5.41 2.42 6.155 1.967C7.347 1.242 8.81.504 11.805.504c2.993 0 4.478.9 5.67 1.624.747.454 1.574 1.44 1.574 2.477s-.98 1.74-1.592 2.213c-2.16-2.082-3.943-2.73-5.653-2.73" style="clip-rule:evenodd;fill:url(#c);fill-rule:evenodd;stroke-width:.264583;stroke-linejoin:round;stroke-miterlimit:2"/><path d="M13.048 12.805c-.054-.054-.055-.05.048-.206.194-.292.27-.727.2-1.16-.047-.282-.047-.283-.143-.192a1 1 0 0 1-.186.129c-.405.2-.849.11-1.015-.206-.186-.352.018-.752.446-.876.12-.035.156-.036.25-.006.082.026.113.05.12.095.013.1-.038.135-.178.118-.155-.018-.278.036-.407.178-.074.083-.092.122-.09.213 0 .287.265.437.613.346a.72.72 0 0 0 .428-.274c.063-.087.076-.135.088-.32.023-.36.1-.533.222-.5.08.02.09.07.04.185-.06.134-.06.692.002.997.113.56.005 1.165-.26 1.45-.074.08-.12.088-.178.03m-3.012-1.33c-.086-.037-.122-.095-.099-.158.023-.058.105-.073.208-.04.13.044.25.014.345-.085.103-.106.137-.197.137-.36 0-.19-.055-.235-.28-.235a1.14 1.14 0 0 0-.506.109c-.093.04-.127.07-.153.143a.557.557 0 0 1-.762.317c-.104-.053-.116-.068-.116-.15 0-.116.052-.13.212-.051.104.05.132.054.22.028a.42.42 0 0 0 .275-.33c.05-.334-.14-.44-.596-.33-.325.08-.35.096-.42.249-.075.162-.188.3-.273.33-.146.057-.229-.113-.097-.2.088-.057.18-.22.26-.455.083-.242.084-.29.007-.284-.116.01-.15-.004-.166-.07-.026-.104.027-.142.203-.142.131 0 .165.01.222.067.07.07.07.062.017.288l-.013.055.18-.047c.206-.054.458-.063.586-.02a.5.5 0 0 1 .29.29.3.3 0 0 0 .04.099c.004 0 .082-.025.171-.056.214-.073.594-.082.716-.016.136.073.205.214.204.412a.69.69 0 0 1-.357.63.64.64 0 0 1-.455.012m4.07-.237c-.02-.024-.026-.066-.015-.11a1.4 1.4 0 0 0 0-.6 2 2 0 0 0-.052-.244 1 1 0 0 0-.105.056l-.095.056-.054-.055c-.052-.051-.052-.058-.01-.12a.6.6 0 0 1 .16-.134c.161-.095.247-.068.298.094.02.064.04.12.042.123a2 2 0 0 0 .184-.176c.178-.185.43-.342.546-.34.08 0 .255.087.321.16.173.188.23.557.117.774-.097.186-.355.337-.54.316-.067-.008-.08-.021-.087-.093-.007-.074 0-.086.065-.1.178-.04.246-.073.318-.156.103-.117.122-.216.072-.388-.127-.437-.443-.35-.902.25-.025.033-.034.117-.03.27q.007.37-.104.43c-.066.036-.092.033-.13-.013m1.71-.544c-.027-.071 0-.134.074-.17.056-.027.071-.052.071-.12 0-.157-.159-.67-.208-.67-.01 0-.04.025-.067.054-.065.072-.18.06-.19-.02-.018-.122.2-.31.335-.291.047.007.08.04.12.124l.055.115.118-.18c.275-.423.54-.57.773-.43.047.03.09.053.094.053s.047-.074.093-.166c.105-.208.285-.415.436-.503.157-.092.264-.072.414.078a.7.7 0 0 1 .198.522v.158l.08-.077a.6.6 0 0 0 .124-.203c.05-.145.11-.19.188-.15.126.069.001.368-.247.595-.264.24-1.104.743-1.863 1.113-.39.19-.57.24-.598.168m.713-.466c.257-.137.312-.18.377-.28a.4.4 0 0 0 .075-.25c0-.175-.085-.347-.197-.4-.08-.04-.092-.038-.173.01-.11.064-.297.295-.412.51l-.09.168.035.2c.02.11.045.202.058.202a3 3 0 0 0 .327-.16m1.054-.587c.21-.132.34-.335.34-.527 0-.223-.126-.452-.247-.452-.096 0-.316.256-.435.505-.09.187-.1.229-.078.29.015.04.027.148.027.242v.17l.151-.085c.083-.047.191-.111.242-.143m-10.264.896c-.32-.13-1.018-.574-1.647-1.046-.534-.4-.612-.481-.566-.583.034-.074.121-.083.192-.02.046.043.054.04.154-.057.095-.093.38-.505.36-.518l-.085-.03c-.1-.034-.143-.102-.105-.163.042-.066.148-.07.284-.01.166.074.194.154.106.31a2 2 0 0 0-.066.124c0 .003.103.013.23.022a.84.84 0 0 1 .398.102c.14.07.18.106.23.203a.6.6 0 0 1 .058.232v.115l.103-.016c.288-.047.724.098.816.27.136.257-.028.665-.329.818l-.076.039.1.033a.7.7 0 0 0 .248.02c.173-.016.236.01.236.099 0 .16-.315.19-.64.056m-.006-.425c.098-.023.275-.23.297-.345.03-.164-.01-.222-.2-.288a.86.86 0 0 0-.387-.05l-.217.009-.096.108a1 1 0 0 1-.184.158l-.087.05.218.144c.32.21.442.263.545.24zm-.866-.628c.083-.043.205-.262.205-.37.001-.203-.175-.3-.58-.316-.278-.011-.287-.01-.329.05a2 2 0 0 1-.127.155l-.083.092.26.196c.144.107.282.203.306.213.08.033.267.022.348-.02m7.05.496c-.073-.073.12-.48.341-.72.166-.18.276-.226.43-.181.198.06.254.27.14.518-.068.142-.089.156-.174.11-.062-.033-.064-.08-.008-.226.052-.135.034-.191-.06-.191-.1 0-.25.17-.4.458-.1.187-.138.236-.188.243-.035.004-.072-.001-.082-.011M9.621 9.93c-.09-.091-.07-.117.318-.373.317-.21.406-.231.42-.104.008.06-.013.087-.129.17-.177.128-.525.348-.549.348-.01 0-.037-.02-.06-.041m6.811-1.108c-.029-.03-.053-.072-.053-.094 0-.047.114-.17.157-.17a.13.13 0 0 1 .13.128c0 .147-.14.229-.234.136m-9.258-.21c-.068-.07-.066-.17.004-.22s.153-.02.204.07c.086.15-.084.273-.208.15m9.71-.096c-.04-.06-.04-.075-.006-.136.05-.088.162-.131.218-.084.094.078.01.289-.115.289-.029 0-.072-.03-.097-.07m-.38-.181a.153.153 0 0 1 .123-.215c.133-.016.192.13.092.23-.076.076-.177.069-.215-.015m.267-3.765c-.18-.123-.61-.392-.956-.6-.595-.356-.77-.483-.864-.628-.05-.075-.028-.16.048-.184.045-.014.078.009.17.116a.8.8 0 0 0 .134.135c.01 0 .013-.083.008-.184-.018-.39.222-.616.51-.48.128.06.33.25.426.4l.082.128.101-.04c.187-.074.36.002.54.237.05.067.12.182.153.255l.062.133.044-.068c.068-.103.194-.094.297.023.08.09.13.247.096.3-.032.052-.14.03-.196-.042-.03-.038-.058-.064-.063-.06-.005.006-.058.1-.118.21q-.168.309-.068.39c.067.056-.226.082-.406-.041m.21-.316c.062-.143.051-.198-.099-.486-.11-.212-.243-.34-.34-.328-.095.01-.169.145-.169.305 0 .142.046.246.154.348.083.08.352.277.38.28.01.002.043-.052.073-.12m-.864-.9c-.108-.213-.338-.416-.47-.416-.105 0-.162.238-.1.42.053.156.122.227.356.36l.23.132.02-.195c.016-.17.012-.208-.036-.301M6.292 4.674c-.032-.023-.059-.058-.059-.077 0-.06.078-.12.16-.12.071 0 .232-.062.232-.09a.4.4 0 0 0-.098-.062c-.328-.17-.403-.598-.139-.787.14-.1.314-.16.497-.176l.18-.015.013-.105c.036-.27.343-.438.732-.403l.153.014-.017-.101c-.023-.132 0-.194.08-.23a.5.5 0 0 1 .327-.004c.11.06.042.182-.1.182-.087 0-.088.003-.07.085.01.047.06.173.112.28.095.196.096.197.2.197.098 0 .104.005.104.078 0 .072-.022.09-.305.249-.423.236-1.192.718-1.405.88s-.297.207-.434.23c-.075.012-.12.005-.163-.025m.562-.507c.046-.013.184-.091.307-.173.207-.138.264-.195.194-.195a.6.6 0 0 1-.149-.121l-.119-.121-.166.017c-.425.044-.596.246-.398.472a.43.43 0 0 0 .246.142 1 1 0 0 0 .085-.021m1.07-.646a3 3 0 0 0 .253-.14c.012-.011-.009-.08-.046-.153-.072-.142-.05-.131-.35-.177-.133-.02-.37.038-.44.109-.158.157.013.482.253.482q.098 0 .33-.121m2.854.31c-.204-.226-.317-.582-.36-1.135-.028-.343-.085-.557-.185-.684-.06-.077-.066-.156-.013-.2.097-.08.232.07.33.37.051.16.07.186.185.26a.54.54 0 0 0 .307.095c.217.016.344-.022.433-.128.14-.165.05-.37-.192-.443-.088-.026-.13-.026-.2-.001-.192.07-.279-.108-.1-.202.087-.045.322-.035.44.019.122.055.292.233.317.33a.52.52 0 0 1-.299.583c-.227.105-.468.094-.772-.034-.045-.02-.047-.01-.03.16.04.386.148.697.314.895.087.103.08.197-.015.208-.05.006-.09-.017-.16-.094m3.823-.477c-.056-.055-.065-.12-.056-.392l.006-.17-.144-.16a1.2 1.2 0 0 0-.289-.235c-.136-.071-.149-.073-.217-.036-.216.12-.088.575.162.575.106 0 .196.086.156.15-.053.084-.107.098-.238.063a.7.7 0 0 1-.207-.096.6.6 0 0 1-.193-.416c0-.105-.01-.125-.124-.225-.155-.136-.287-.205-.434-.225-.1-.014-.12-.008-.158.045-.09.13-.019.416.124.493a.6.6 0 0 0 .163.05c.114.02.168.086.126.154-.068.108-.353.049-.502-.105-.2-.206-.217-.58-.038-.784.125-.142.43-.096.73.11.163.113.191.124.22.09a.4.4 0 0 1 .285-.115c.14 0 .323.095.507.264a1 1 0 0 0 .154.125c.004-.005.024-.045.046-.088.054-.106.156-.117.283-.03.116.08.168.16.148.225-.024.075-.09.086-.184.03l-.086-.05-.033.12a2 2 0 0 0-.036.38c-.002.196-.01.26-.04.28-.056.035-.073.032-.13-.027m-8.115-.16c-.067-.038-.054-.142.024-.204q.136-.105.195 0c.054.103-.117.26-.22.203m2.397-.024c-.107-.033-.26-.204-.296-.33-.07-.254.01-.5.195-.603.147-.082.448-.081.71.003.053.017.055.01.043-.085-.025-.18.102-.25.336-.186q.175.048.14.157c-.016.049-.035.055-.136.047l-.118-.01.015.132c.023.2.09.395.163.482.07.084.068.167-.006.195-.094.037-.222-.102-.289-.314-.042-.135-.05-.143-.19-.196-.08-.03-.23-.062-.334-.07-.184-.012-.19-.01-.27.07-.077.077-.083.095-.07.215.022.24.18.354.374.272a.5.5 0 0 1 .144-.04c.058 0 .108.085.086.144-.039.1-.33.169-.497.117m-1.925-.29c-.11-.063-.017-.232.13-.232.134 0 .135.127.001.22-.067.048-.07.049-.13.013m-.38-.093c-.06-.024-.038-.158.036-.216.082-.065.123-.068.177-.013.058.057.053.082-.035.17-.074.074-.11.086-.178.059m9.918-.013c-.127-.07-.156-.19-.056-.235.13-.06.312.122.225.226q-.057.069-.17.009m-2.678-.878a5 5 0 0 1-.263-.292c-.144-.17-.185-.236-.179-.288.006-.048.025-.07.07-.077.075-.01.12.029.36.317.202.242.236.334.141.385-.042.022-.066.014-.129-.045M9.174 1.81c-.089-.06-.17-.193-.17-.282 0-.033.038-.1.085-.152.196-.213.54-.162.92.137.124.097.147.128.14.187-.013.114-.116.106-.274-.02-.243-.193-.5-.265-.624-.172-.049.036-.047.042.062.142.098.09.11.11.084.158-.036.068-.122.068-.223.002" style="clip-rule:evenodd;fill-rule:nonzero;stroke-width:.264583;stroke-linejoin:round;stroke-miterlimit:2"/></svg>