<svg xmlns="http://www.w3.org/2000/svg" xml:space="preserve" width="89.349" height="58.61" style="clip-rule:evenodd;fill-rule:evenodd;stroke-linejoin:round;stroke-miterlimit:2" viewBox="0 0 89.349 58.61"><path d="M85.494 8.884a3.852 3.852 0 0 1 3.26 5.909l-.005.007C77.39 32.691 62.333 47.129 46.236 58.11a2.87 2.87 0 0 1-3.238 0C26.9 47.128 11.952 32.691.598 14.8l-.004-.007a3.853 3.853 0 0 1 3.26-5.909Z"/><path d="M85.494 11.757a.979.979 0 0 1 .83 1.503C75.18 30.809 60.406 44.965 44.616 55.737 28.827 44.965 14.161 30.809 3.024 13.26a.982.982 0 0 1 .83-1.503z" style="fill:#65327a"/><path d="M44.617 0C55.27 0 64.92 2.646 72.315 10.313c2.681 2.779 4.756 7.7 4.756 15.451 0 0 .108 6.166-1.73 9.462-5.409 9.698-16.388 16.217-30.724 16.217s-25.315-6.519-30.724-16.217c-1.838-3.296-1.73-9.462-1.73-9.462 0-7.751 2.075-12.672 4.756-15.451C24.315 2.646 33.965 0 44.617 0m18.33 26.133c-6.933-6.261-12.72-8.345-18.33-8.345-5.71 0-11.72 1.596-18.83 8.075 6.54 3.607 15.033 4.993 18.83 4.993 3.701 0 11.864-1.317 18.33-4.723"/><path d="M44.617 33.198c7.01 0 29.113-4.448 29.113-18.022 2.257 5.301 2.475 13.767.938 17.516-3.684 8.986-15.426 16.854-30.05 16.854-14.626 0-26.368-7.868-30.052-16.854-1.537-3.749-1.319-12.215.938-17.516 0 13.574 22.103 18.022 29.113 18.022" style="fill:url(#a)"/><path d="M44.617 15.446c-6.462 0-13.312 1.823-21.48 9.691-2.313-1.783-5.819-4.428-5.819-8.343s3.127-7.647 5.946-9.362c4.506-2.74 10.037-5.531 21.353-5.531s16.93 3.399 21.434 6.14c2.82 1.715 5.946 5.446 5.946 9.361s-3.7 6.579-6.014 8.362c-8.168-7.869-14.904-10.318-21.366-10.318" style="fill:url(#b)"/><path d="M49.317 48.394c-.204-.204-.208-.19.183-.779.731-1.102 1.014-2.749.751-4.38-.173-1.072-.174-1.073-.534-.732-.17.161-.486.381-.704.488-1.533.756-3.209.416-3.838-.778-.7-1.331.067-2.84 1.686-3.31.454-.132.59-.135.946-.023.31.099.424.19.448.36.054.381-.137.509-.667.446-.587-.069-1.052.134-1.537.671-.284.314-.348.463-.348.805.001 1.085 1.008 1.652 2.322 1.308.728-.191 1.247-.523 1.617-1.034.24-.33.29-.51.334-1.208.086-1.365.373-2.016.838-1.894.301.078.341.272.148.7-.228.508-.223 2.617.01 3.769.428 2.122.02 4.403-.98 5.483-.28.301-.454.329-.675.108m-11.383-5.026c-.326-.142-.463-.361-.373-.597.084-.219.396-.278.787-.149.491.162.94.05 1.301-.325.39-.402.52-.745.52-1.364 0-.712-.208-.883-1.063-.883-.714.001-1.19.103-1.909.409-.352.15-.479.269-.577.541-.425 1.173-1.797 1.745-2.88 1.199-.395-.199-.44-.258-.44-.566 0-.44.195-.487.801-.194.394.19.5.204.83.105.515-.155.957-.681 1.041-1.242.19-1.268-.532-1.667-2.252-1.245-1.229.301-1.326.358-1.59.935-.282.612-.708 1.131-1.027 1.252-.555.211-.868-.434-.369-.761.331-.217.682-.831.985-1.721.311-.915.315-1.097.024-1.072-.438.037-.566-.016-.627-.26-.1-.399.104-.543.767-.543.497 0 .624.039.84.254.261.262.26.236.063 1.089l-.047.207.675-.176c.783-.204 1.736-.237 2.218-.076.466.156.962.652 1.095 1.096.062.206.13.374.15.374s.312-.095.65-.211c.808-.277 2.246-.31 2.706-.061.513.277.776.807.772 1.556-.006 1.048-.52 1.953-1.352 2.381-.432.222-1.264.245-1.719.048m15.38-.896c-.078-.093-.097-.25-.052-.42.16-.614.16-1.378.002-2.26-.092-.51-.183-.928-.202-.928a3 3 0 0 0-.394.212l-.359.212-.206-.206c-.194-.194-.196-.219-.042-.454.09-.137.363-.366.607-.509.611-.358.936-.255 1.128.357.076.24.148.45.16.466.013.015.325-.285.695-.668.671-.696 1.625-1.29 2.062-1.286.304.004.965.332 1.215.604.656.713.865 2.108.44 2.929-.364.702-1.34 1.273-2.043 1.193-.25-.028-.299-.08-.325-.351-.027-.278.004-.326.247-.38.671-.149.928-.274 1.202-.586.39-.444.46-.819.271-1.467-.48-1.652-1.674-1.32-3.41.948-.093.121-.129.437-.116 1.021q.03 1.399-.389 1.622c-.249.134-.348.124-.492-.049m6.466-2.058c-.103-.269 0-.507.28-.641.212-.101.271-.198.271-.449 0-.598-.602-2.536-.787-2.536-.04 0-.155.092-.255.203-.245.27-.676.225-.719-.074-.066-.463.753-1.175 1.268-1.102.177.025.303.155.454.469l.208.434.443-.681c1.04-1.599 2.044-2.156 2.923-1.62.178.108.338.197.356.197s.176-.282.351-.628c.4-.785 1.077-1.568 1.648-1.903.592-.347 1-.27 1.565.296.503.503.747 1.148.747 1.975v.594l.301-.288c.165-.158.376-.504.47-.769.191-.546.414-.721.712-.562.477.255.005 1.388-.935 2.245-.997.909-4.173 2.806-7.04 4.204-1.478.721-2.155.912-2.26.636m2.693-1.762c.971-.517 1.183-.674 1.426-1.057.216-.341.285-.569.285-.943 0-.662-.32-1.313-.745-1.516-.303-.144-.347-.142-.655.038-.42.245-1.122 1.116-1.557 1.931l-.339.634.13.76c.072.418.172.76.223.76.05 0 .605-.273 1.232-.607m3.984-2.217c.792-.499 1.285-1.265 1.284-1.991 0-.842-.474-1.708-.933-1.708-.359 0-1.19.966-1.643 1.908-.34.707-.382.864-.293 1.096.056.149.103.56.103.914v.643l.568-.322c.312-.177.724-.42.914-.54m-38.79 3.388c-1.213-.495-3.85-2.17-6.227-3.955-2.018-1.514-2.314-1.819-2.139-2.202.128-.281.458-.314.725-.072.174.157.204.145.582-.222.36-.351 1.44-1.906 1.36-1.957a4 4 0 0 0-.32-.116c-.375-.124-.54-.381-.396-.613.157-.25.56-.264 1.074-.037.627.278.731.582.4 1.173a7 7 0 0 0-.249.467c0 .013.39.05.865.083.708.049.981.119 1.507.385.53.268.682.403.865.766.131.259.222.622.222.878v.436l.391-.062c1.09-.175 2.735.372 3.083 1.024.515.967-.106 2.512-1.242 3.09l-.288.146.377.125c.22.072.61.103.938.073.653-.059.892.041.892.375 0 .611-1.19.717-2.42.215m-.024-1.608c.368-.088 1.04-.869 1.122-1.304.116-.619-.036-.837-.754-1.088-.517-.182-.8-.218-1.464-.191l-.822.035-.364.407c-.2.224-.51.494-.692.599l-.329.192.823.54c1.208.792 1.67.997 2.058.909zm-3.275-2.372c.315-.163.775-.99.777-1.397.003-.771-.662-1.134-2.199-1.197-1.043-.043-1.079-.038-1.239.191a8 8 0 0 1-.479.584l-.315.348.987.739c.542.406 1.061.769 1.152.806.304.123 1.012.083 1.316-.074m26.643 1.872c-.274-.273.457-1.808 1.294-2.717.627-.682 1.044-.859 1.618-.687.754.226.968 1.018.53 1.959-.25.537-.33.588-.653.416-.233-.125-.239-.307-.03-.854.195-.513.13-.724-.226-.724-.379 0-.943.644-1.517 1.733-.37.704-.517.892-.707.916-.13.016-.27-.003-.309-.042m-14.64-.192c-.346-.345-.265-.44 1.202-1.41 1.198-.791 1.533-.874 1.588-.391.026.224-.053.328-.489.642-.67.482-1.983 1.314-2.075 1.314-.04 0-.14-.07-.227-.155m25.744-4.189c-.112-.111-.203-.271-.203-.355 0-.176.431-.638.595-.638a.49.49 0 0 1 .492.479c0 .556-.533.866-.884.514m-34.992-.795c-.257-.258-.252-.643.012-.827.265-.186.581-.08.774.26.325.57-.318 1.034-.786.567m36.7-.358c-.152-.231-.155-.285-.024-.517.185-.33.611-.494.825-.316.355.294.036 1.092-.437 1.092-.107 0-.27-.116-.365-.259m-1.438-.689a.578.578 0 0 1 .465-.815c.505-.058.725.496.348.873-.285.285-.669.258-.813-.058m1.01-14.229c-.679-.465-2.305-1.485-3.613-2.268-2.248-1.346-2.907-1.826-3.266-2.373-.188-.287-.105-.606.181-.697.17-.053.295.033.647.44.24.279.465.507.501.507s.05-.312.032-.693c-.069-1.472.84-2.329 1.925-1.815.487.231 1.248.945 1.61 1.509l.311.485.385-.151c.706-.277 1.354.009 2.033.897.193.253.456.686.584.964l.234.504.168-.257c.257-.392.731-.356 1.12.086.3.342.49.931.364 1.132-.12.197-.529.111-.739-.156-.114-.145-.222-.245-.24-.223-.02.022-.22.377-.445.79-.426.782-.51 1.265-.26 1.474.254.21-.852.309-1.532-.155m.788-1.197c.24-.539.197-.748-.368-1.837-.414-.799-.919-1.283-1.289-1.24-.356.042-.636.551-.636 1.154 0 .536.174.93.582 1.317.313.298 1.33 1.047 1.438 1.06.038.004.161-.2.273-.454m-3.264-3.402c-.409-.802-1.277-1.571-1.774-1.571-.398 0-.614.901-.38 1.591.2.588.462.853 1.346 1.361l.863.496.076-.736c.066-.645.05-.787-.13-1.141m-37.13 4.999c-.123-.087-.223-.219-.223-.293 0-.229.295-.447.604-.447.27 0 .878-.24.878-.346 0-.025-.167-.13-.37-.235-1.24-.636-1.527-2.259-.525-2.972a3.8 3.8 0 0 1 1.875-.666l.678-.057.053-.398c.136-1.017 1.297-1.656 2.766-1.523l.578.053-.065-.383c-.084-.498-.003-.73.304-.87.311-.141.981-.148 1.235-.011.416.222.158.688-.38.688-.324 0-.332.009-.267.321.037.177.23.654.428 1.061.36.736.363.74.756.741.372.002.396.019.396.295 0 .271-.086.341-1.156.939-1.597.892-4.503 2.714-5.307 3.326-.81.618-1.127.785-1.64.869-.287.047-.459.021-.619-.092m2.124-1.918c.175-.05.697-.344 1.16-.652.783-.521 1-.739.732-.739-.06 0-.312-.206-.56-.457l-.45-.457-.627.065c-1.607.164-2.253.931-1.504 1.784.168.192.446.39.617.439.172.05.312.095.312.099a3 3 0 0 0 .32-.082m4.043-2.441c.481-.251.911-.49.956-.531s-.032-.301-.172-.577c-.27-.534-.194-.495-1.324-.669-.5-.077-1.397.145-1.664.411-.594.594.051 1.823.958 1.823.25 0 .657-.149 1.246-.457m10.788 1.17c-.77-.852-1.197-2.199-1.362-4.289-.103-1.294-.322-2.105-.698-2.584-.23-.291-.25-.589-.05-.754.367-.306.878.268 1.247 1.402.195.6.265.697.703.978.387.248.623.321 1.158.359.818.059 1.3-.084 1.637-.484.524-.623.185-1.401-.728-1.675-.333-.1-.487-.1-.754-.004-.726.263-1.053-.406-.374-.763.325-.171 1.213-.133 1.661.071.46.209 1.103.883 1.196 1.252.217.865-.263 1.8-1.129 2.2-.857.395-1.77.355-2.917-.129-.17-.072-.178-.033-.115.604.145 1.46.558 2.634 1.188 3.383.33.391.302.745-.06.787-.192.023-.34-.065-.603-.354m14.448-1.8c-.21-.21-.245-.457-.209-1.483l.022-.642-.543-.603c-.319-.354-.77-.721-1.092-.889-.518-.271-.565-.278-.82-.136-.819.456-.335 2.171.611 2.171.401 0 .74.327.588.568-.2.318-.402.372-.898.239a2.7 2.7 0 0 1-.78-.362c-.402-.306-.733-1.017-.733-1.572 0-.397-.043-.474-.47-.851-.585-.516-1.085-.775-1.64-.852-.377-.051-.453-.029-.594.172-.344.492-.072 1.572.468 1.861.14.075.417.162.616.195.43.07.635.319.473.578-.256.408-1.332.183-1.894-.397-.754-.778-.823-2.189-.143-2.964.471-.537 1.622-.363 2.756.418.617.425.724.468.833.337.211-.255.654-.433 1.076-.433.531 0 1.22.358 1.918.996.31.282.571.495.582.475s.09-.172.173-.335c.205-.401.591-.44 1.068-.109.44.306.638.604.56.848-.089.281-.34.322-.696.112l-.323-.19-.126.46c-.07.253-.13.896-.135 1.429-.006.741-.043.99-.155 1.061-.21.132-.27.12-.493-.102m-30.668-.608c-.252-.141-.204-.535.094-.769.333-.262.592-.26.734.005.206.386-.439.981-.828.764m9.061-.087c-.405-.125-.984-.773-1.117-1.25-.266-.959.033-1.886.735-2.278.555-.311 1.695-.306 2.684.011.2.064.21.043.161-.319-.09-.684.388-.95 1.27-.705.444.123.616.317.528.595-.058.183-.128.207-.513.176l-.446-.035.058.496c.09.758.337 1.492.616 1.823.267.317.258.631-.02.738-.359.138-.84-.386-1.094-1.187-.16-.51-.189-.541-.718-.743-.302-.115-.87-.232-1.26-.26-.697-.048-.72-.042-1.026.264-.289.288-.31.355-.266.811.087.906.681 1.337 1.42 1.028.197-.083.441-.15.541-.15.22 0 .41.318.325.54-.146.38-1.243.64-1.878.445m-7.276-1.092c-.419-.244-.064-.882.491-.882.51 0 .512.48.005.835-.254.179-.268.18-.496.047m-1.433-.354c-.226-.091-.142-.598.137-.817.312-.245.464-.257.671-.049.217.216.197.312-.133.642-.28.281-.419.327-.675.224m37.482-.049c-.48-.262-.588-.714-.212-.886.495-.225 1.18.46.853.853-.143.173-.366.184-.64.033m-10.12-3.318c-.16-.151-.609-.647-.997-1.104-.542-.639-.698-.89-.675-1.087.021-.183.096-.267.26-.29.286-.04.453.106 1.366 1.198.762.912.89 1.26.532 1.452-.158.085-.248.054-.486-.169m-17.554-.322c-.336-.221-.642-.728-.642-1.064 0-.124.144-.382.321-.575.741-.806 2.036-.614 3.478.518.467.366.556.485.53.706-.049.431-.438.402-1.039-.076-.916-.729-1.893-.999-2.357-.651-.185.138-.176.159.234.538.37.342.412.421.318.597-.137.256-.46.259-.843.007" style="fill-rule:nonzero"/><defs><linearGradient id="a" x1="0" x2="1" y1="0" y2="0" gradientTransform="rotate(-25.787 114.68 -13.559)scale(72.055)" gradientUnits="userSpaceOnUse"><stop offset="0" style="stop-color:#612c75;stop-opacity:1"/><stop offset=".3" style="stop-color:#7b5190;stop-opacity:1"/><stop offset=".5" style="stop-color:#bf99c3;stop-opacity:1"/><stop offset=".7" style="stop-color:#7b5190;stop-opacity:1"/><stop offset="1" style="stop-color:#612c75;stop-opacity:1"/></linearGradient><linearGradient id="b" x1="0" x2="1" y1="0" y2="0" gradientTransform="rotate(-31.48 85.447 -12.799)scale(61.84)" gradientUnits="userSpaceOnUse"><stop offset="0" style="stop-color:#612c75;stop-opacity:1"/><stop offset=".3" style="stop-color:#7b5190;stop-opacity:1"/><stop offset=".5" style="stop-color:#bf99c3;stop-opacity:1"/><stop offset=".7" style="stop-color:#7b5190;stop-opacity:1"/><stop offset="1" style="stop-color:#612c75;stop-opacity:1"/></linearGradient></defs></svg>