<svg xmlns="http://www.w3.org/2000/svg" xmlns:xlink="http://www.w3.org/1999/xlink" width="163.395" height="178.973"><defs><linearGradient id="a"><stop offset="0" style="stop-color:#536e78;stop-opacity:1"/><stop offset=".1" style="stop-color:#829ba5;stop-opacity:1"/><stop offset=".5" style="stop-color:#d9eaf3;stop-opacity:1"/><stop offset=".9" style="stop-color:#829ba5;stop-opacity:1"/><stop offset="1" style="stop-color:#536e78;stop-opacity:1"/></linearGradient><linearGradient xlink:href="#a" id="b" x1="892.361" x2="766.646" y1="191.895" y2="52.749" gradientTransform="translate(-734.17 -44.61)" gradientUnits="userSpaceOnUse"/></defs><path d="M82.488 7.511c10.244-12.183 33.052-9.002 36.549 5.611 16.926-8.718 33.43 5.504 27.18 21.446 10.008 3.081 17.255 18.542 10.102 30.63 18.097 20.865-2.06 44.84-20.795 32.903-28.044 35.66-65.618 4.288-50.422-22.705-21.05 10.47-28.45 38.97-10.348 60.263 8.375 9.853 38.176 16.782 59.95-4.443 6.68-6.51-1.16-8.466-3.817-6.163-.09-2.658 15.382-8.714 15.599 1.81.9 43.682-55.082 60.417-97.825 48.25-36.391-10.359-63.471-59.75-28.753-95.889-41.728-20.187-8.092-64.577 12.534-56.244 2.67-4.247 12.132-12.132 18.047-10.01 1.07-10.304 21.444-17.485 31.999-5.458" style="fill:#000;fill-opacity:1;stroke:none"/><path d="M99.425 6.39c-9.497.335-17.321 6.715-16.688 7.938C72.033 1.395 54.85 7.178 55.02 19.891c-9.902.492-14.103 5.254-16.875 11.094-11.963-4.755-33.2 5.514-31.657 23 1.683 19.08 22.06 20.642 28.75 8.562 2.64-4.768.879-13.43-5-6.937-11.94 13.184-21.796-8.828 1.094-13.625 15.495-3.248 22.54 20.412 12.563 27.125-4.61 3.1-56.534 33.96-22 78.656-.31-5.7-2.657-12.319-1.125-17.906 3.025 11.97 14.684 35.485 37.437 41.5 4.226.606 4.26.83 1.75-3.063-4.12-6.11-9.08-12.63-8.22-17.187 27.334 46.893 90.584 5.207 88.845-16.125-.03-.377-1.003.4-1.875 1.218-2.902 2.73-8.294 9.336-14.156 12.22-13.168 6.475-34.232 8.047-46.094-.188-26.871-18.657-23.468-41.386-20.5-54.72 4.666-20.96 33.494-36.285 51.75-29.937 25.383 8.826-1.953 45.848-12.72 23.47-1.302-2.709 3.117-6.988 6.533-8.095 1.546-.5.393-2.21.093-2.218-20.197-.512-18.243 20.698-6.25 27.375 12.568 6.996 36.242-.14 33.907-28.594 22.128-10.58 21.299 21.196 11.062 11.781-3.32-3.054-6.866-.453-3.531 2.938 15.29 15.548 26.907-14.216 8.78-23.813 9.447-5.455 10.428-26.044-10.75-28.094 7.618-6.18 9.33-21.186-5.28-21.656-14.651-.472-11.97 10.506-8.344 12.344 1.795.91 4.432.123 2.844-1.719-2.334-2.707 7.552-7.695 8.03-.156.778 12.223-28.116-.098-51.03 13.72-1.251.124 1.195-15.679 8.5-20.72 11.693-8.069 20.095 1.16 8.719 3.5-5.86 1.206-3.414 5.391 1.375 6.094 9.06 1.33 17.35-15.038 9.656-20.063-3.944-2.576-8.04-3.416-11.875-3.28M66.08 15.047c5.146-.1 11.096 5.614 9.063 13.563-.334 1.302-1.18 1.435-1.313.375-.345-2.74-5.616-8.659-12.375-9.188-1.124-.088-.84-1.188-.5-1.75 1.236-2.042 3.112-2.96 5.125-3m-11.25 14.72c7.266.184 14.57 7.361 8.28 18.686-.853 1.54-1.966 1.955-2.405.563-1.104-3.502-8.012-12.43-13.187-14.25-1.194-.42-.92-1.239-.375-1.844 2.01-2.239 4.844-3.229 7.687-3.156m63.625 13.094c1.008-.013 1.768.17 2.125.625-.71-.21-8.047 9.245-7.844 9.53-2.11-2.65-5.625-3.937-8.593-4.655.932-1.686 9.943-5.445 14.312-5.5m17.906 5.812c2.374-.012 4.82.708 7.063 2.406 3.179 2.407 1.552 10.175-2.031 10.313-1.87.071-3.965-4.47-6.282-5.625-1.687-.84-4.86.74-4.187 5 .722 4.58-2.326 5.62-5.594 2.281-5.095-5.205 2.554-14.334 11.03-14.375" style="fill:url(#b);fill-opacity:1;stroke:none"/></svg>