<?xml version="1.0" encoding="UTF-8" standalone="no"?>
<svg
   version="1.1"
   id="Layer_1"
   x="0px"
   y="0px"
   width="579.13"
   height="459.60001"
   viewBox="0 0 579.12998 459.60001"
   xmlns="http://www.w3.org/2000/svg"
   xmlns:svg="http://www.w3.org/2000/svg">
  <defs
     id="defs31" />
  <path
     d="m 373.37,0 c 40.14,86.64 49.1,170.54 -5.3,215.88 L 303.59,61.72 c 16.86,88.31 15.04,180.91 4.67,255.75 l 126.59,-82.8 c -11.59,74.53 -48.19,139.55 -130.5,141.85 v 82.8 C 470.21,460 552.16,265.94 485.64,139.38 494.78,100.49 535.74,97.09 579.13,108.09 545.12,48.5 455.72,12.17 373.37,0 Z"
     id="path6"
     style="stroke-width:10" />
  <path
     d="M 4.77,9.45 0,165.71 75.74,85.62 h 7.82 l 22.23,17.08 C -0.75,216.71 44.02,446.94 249.08,459.6 V 376.81 C 139.91,375.61 83.24,232.05 171.14,152.87 l 37.87,29.09 V 67.11 L 141.81,9.44 H 4.77 Z"
     id="path8"
     style="stroke-width:10" />
</svg>
