<svg xmlns="http://www.w3.org/2000/svg" width="600.001" height="510.36"><path d="M419.338 0H179.565l-1.148.153c-16.191 1.748-38.57 13.41-46.046 37.88-20.389 5.678-96.991 27.062-96.991 27.062l-.945.344C21.23 70.529 0 87.575 0 118.769c0 5.576.65 11.61 2.194 18.143L93.7 478.346l2.488 3.394c10.322 13.805 35.533 34.933 64.291 26.767 0 0 128.926-35.494 139.592-38.429 10.615 2.935 139.758 38.48 139.758 38.48 28.554 8.115 53.714-13.013 64.087-26.818l2.488-3.394 91.313-340.834c1.595-6.686 2.284-12.86 2.284-18.59 0-31.398-21.18-48.393-34.333-53.483l-.945-.344s-76.602-21.384-96.99-27.062c-7.477-24.47-29.907-36.132-46.047-37.88L420.537 0Z" style="fill:#fff"/><path d="M180.713 21.728s-29.357 3.19-29.357 33.593L42.218 85.725s-27.265 10.513-18.895 46.2l90.254 336.763s18.896 25.211 40.917 18.883l145.576-40.024 145.538 40.024c22.021 6.328 40.917-18.883 40.917-18.883l90.203-336.764c8.42-35.686-18.844-46.199-18.844-46.199L448.746 55.321c0-30.403-29.408-33.593-29.408-33.593z"/><path d="M181.708 34.346c-1.39.243-5.575 1.187-9.569 3.828-5.575 3.738-8.216 9.173-8.216 17.147v9.57S48.138 97.181 46.454 97.64c-2.998 1.391-12.12 6.878-12.12 21.371 0 2.948.408 6.24 1.25 9.927.204.599 88.009 328.534 89.463 333.816 3.828 4.338 15.247 15.796 25.964 12.708l149.06-41.019 148.969 41.019c10.768 3.088 22.136-8.37 26.015-12.708 1.454-5.282 89.31-333.217 89.463-333.816.842-3.688 1.25-6.98 1.25-9.927 0-14.493-9.122-19.98-12.12-21.37a540359 540359 0 0 1-117.469-32.752V55.32c0-7.974-2.64-13.409-8.217-17.147-3.942-2.641-8.178-3.585-9.569-3.828z" style="fill:#fff"/><path d="M438.68 81.54v323.853s-2.794 20.975-19.585 20.975H328.19l121.705 33.593s6.979 3.483 10.462-4.236l89.552-332.221s3.496-10.463-4.924-13.257zM55.066 110.95c-8.37 2.781-4.886 13.256-4.886 13.256l89.514 332.273c3.534 7.668 10.513 4.185 10.513 4.185l121.705-33.593h-90.905c-16.842 0-19.585-20.988-19.585-20.988V82.242Zm128.033-60.86h234.3c4.886 0 5.575 6.278 5.575 6.278V404.69c0 5.575-5.576 6.979-5.576 6.979h-234.3c-4.924 0-4.924-6.98-4.924-6.98V56.369c0-4.185 4.925-6.278 4.925-6.278"/><path d="M314.332 137.518q24.557 0 41.031 14.575 16.454 14.575 16.454 37.786 0 21.047-6.737 28.069-6.757 7.012-31.049 23.476a337 337 0 0 0 20.108 31.447 2511 2511 0 0 0 24.966 34.418q5.94 9.166 15.514 9.84 9.595.673 9.595 4.46a4.1 4.1 0 0 1-.817 2.286q-.816 1.225-1.082 1.766H362.1q-1.633-.276-6.206-3.113-4.593-2.827-19.29-25.773-14.709-22.945-27.662-39.133-12.962-16.198-35.366-16.198-1.613 0-1.889 23.078a3368 3368 0 0 0-.265 29.559v9.717q0 9.982 4.317 12.82 4.318 2.827 15.648 2.827h20.78q4.053 0 4.053 3.511 0 5.665-4.859 5.665h-2.694l-23.486-2.154H244.7l-31.846 2.97q-4.869 0-4.859-5.134 0-4.052 14.167-4.725 14.168-.664 17.679-2.021 3.51-1.348 3.51-34.275v-70.979q0-12.963-2.296-28.61-2.296-15.657-5.001-18.495-2.684-2.827-20.506-4.45-17.82-1.623-17.81-5.665 0-4.858 4.051-4.858 8.36 1.623 22.935 4.052 14.576 2.43 24.834 2.43h15.647a102 102 0 0 1 20.648-13.372q11.738-5.797 28.478-5.797m-43.716 44.532v21.057q0 14.024 7.818 22.261 7.819 8.237 26.18 8.237 15.107 0 25.365-9.451 10.258-9.442 10.268-25.64 0-19.158-10.534-31.713-10.513-12.554-31.028-12.554-12.963 0-20.516 6.083-7.553 6.073-7.553 21.72" style="fill:#fff;stroke-width:10.2069"/></svg>