<?xml version="1.0" encoding="UTF-8" standalone="no"?>
<!-- Generator: Adobe Illustrator 15.1.0, SVG Export Plug-In . SVG Version: 6.00 Build 0)  -->

<svg
   version="1.1"
   id="Layer_1"
   x="0px"
   y="0px"
   width="150.00101"
   height="150.00101"
   viewBox="0 0 150.00101 150.00101"
   enable-background="new 0 0 155 155"
   xml:space="preserve"
   xmlns="http://www.w3.org/2000/svg"
   xmlns:svg="http://www.w3.org/2000/svg"><defs
   id="defs2" />
<g
   id="Layer_1_1_"
   transform="translate(-2.516,-2.117)">
</g>
<g
   id="Layer_3"
   display="none"
   transform="translate(-2.516,-2.117)">
</g>
<g
   id="g2"
   transform="translate(-2.516,-2.117)">
	<path
   fill="#ffffff"
   d="M 59.237,152.117 56.405,131.82 c -0.894,-0.344 -1.777,-0.709 -2.648,-1.094 L 37.411,143.074 11.557,117.222 23.906,100.873 c -0.386,-0.871 -0.75,-1.757 -1.095,-2.649 L 2.516,95.398 V 58.835 l 20.296,-2.828 c 0.344,-0.894 0.709,-1.776 1.094,-2.647 L 11.557,37.009 37.413,11.156 53.759,23.508 c 0.87,-0.385 1.754,-0.749 2.646,-1.093 L 59.234,2.117 h 36.56 l 2.832,20.294 c 0.894,0.343 1.776,0.708 2.646,1.093 l 16.351,-12.349 25.853,25.851 -12.347,16.349 c 0.386,0.871 0.751,1.756 1.095,2.65 l 20.293,2.829 v 36.563 l -20.291,2.826 c -0.345,0.895 -0.709,1.778 -1.095,2.651 l 12.349,16.349 -25.855,25.854 -16.346,-12.348 c -0.873,0.386 -1.758,0.752 -2.65,1.095 L 95.8,152.118 Z"
   id="path1" />
	<path
   d="M 145.465,89.258 V 64.971 L 126.952,62.39 c -1.022,-3.439 -2.384,-6.733 -4.063,-9.827 l 11.26,-14.91 -17.174,-17.173 -14.91,11.262 C 98.969,30.063 95.68,28.702 92.244,27.68 L 89.66,9.167 H 65.371 l -2.579,18.514 c -3.438,1.025 -6.729,2.383 -9.825,4.063 L 38.058,20.482 20.881,37.656 32.143,52.568 c -1.679,3.093 -3.039,6.385 -4.063,9.824 L 9.568,64.972 V 89.26 l 18.512,2.579 c 1.024,3.44 2.385,6.731 4.063,9.825 l -11.262,14.91 17.177,17.174 14.906,-11.259 c 3.098,1.68 6.391,3.038 9.828,4.063 l 2.582,18.513 h 24.287 l 2.581,-18.513 c 3.438,-1.022 6.73,-2.383 9.828,-4.063 l 14.904,11.259 17.176,-17.174 -11.26,-14.909 c 1.68,-3.095 3.043,-6.39 4.062,-9.829 z m -26.069,-9.576 c -2.963,0 -5.849,0.34 -8.625,0.965 -1.642,15.651 -14.074,28.084 -29.727,29.727 -0.625,2.775 -0.965,5.66 -0.965,8.622 0,1.416 -2.564,5.128 -2.564,5.128 0,0 -2.564,-3.712 -2.564,-5.128 0,-2.962 -0.339,-5.847 -0.964,-8.622 C 58.34,108.73 45.904,96.298 44.263,80.646 41.485,80.021 38.6,79.681 35.636,79.681 c -1.416,0 -5.128,-2.564 -5.128,-2.564 0,0 3.712,-2.564 5.128,-2.564 2.964,0 5.849,-0.34 8.627,-0.965 1.642,-15.651 14.077,-28.084 29.725,-29.726 0.624,-2.777 0.964,-5.662 0.964,-8.627 0,-1.416 2.564,-5.128 2.564,-5.128 0,0 2.564,3.712 2.564,5.128 0,2.965 0.34,5.85 0.966,8.627 15.649,1.642 28.084,14.074 29.726,29.726 2.776,0.625 5.662,0.965 8.625,0.965 1.416,0 5.127,2.564 5.127,2.564 0,0 -3.711,2.565 -5.128,2.565 z m 0,-2.565 c -23.131,0 -41.88,18.749 -41.88,41.877 0,-23.128 -18.749,-41.877 -41.88,-41.877 23.131,0 41.88,-18.75 41.88,-41.882 0,23.132 18.75,41.882 41.88,41.882 z"
   id="path2" />
</g>
</svg>
