<?xml version="1.0" encoding="UTF-8" standalone="no"?>
<!-- Generator: Adobe Illustrator 15.1.0, SVG Export Plug-In . SVG Version: 6.00 Build 0)  -->

<svg
   version="1.1"
   id="Layer_1"
   x="0px"
   y="0px"
   width="150"
   height="150.00101"
   viewBox="0 0 150 150.00101"
   enable-background="new 0 0 155 155"
   xml:space="preserve"
   xmlns="http://www.w3.org/2000/svg"
   xmlns:svg="http://www.w3.org/2000/svg"><defs
   id="defs16" />
<g
   id="Layer_1_1_"
   transform="translate(-2.601,-2.617)">
</g>
<g
   id="Layer_3"
   display="none"
   transform="translate(-2.601,-2.617)">
</g>
<g
   id="g16"
   transform="translate(-2.601,-2.617)">
	<path
   fill="#ffffff"
   d="M 59.322,152.617 56.49,132.321 c -0.894,-0.344 -1.777,-0.709 -2.648,-1.094 L 37.496,143.574 11.642,117.722 23.991,101.373 c -0.386,-0.871 -0.75,-1.757 -1.095,-2.649 L 2.601,95.897 V 59.335 l 20.296,-2.828 c 0.344,-0.894 0.709,-1.776 1.094,-2.647 L 11.642,37.509 37.498,11.656 53.844,24.008 c 0.87,-0.385 1.754,-0.749 2.646,-1.093 L 59.319,2.617 h 36.56 l 2.832,20.294 c 0.893,0.343 1.776,0.708 2.646,1.093 l 16.35,-12.349 25.852,25.851 -12.346,16.349 c 0.386,0.871 0.751,1.756 1.094,2.65 l 20.294,2.829 v 36.562 l -20.291,2.827 c -0.345,0.894 -0.709,1.778 -1.095,2.651 l 12.348,16.349 -25.855,25.853 -16.346,-12.348 c -0.873,0.386 -1.758,0.752 -2.65,1.095 l -2.827,20.295 H 59.322 Z"
   id="path1" />
	<path
   fill="#8d742f"
   d="M 62.669,148.771 59.98,129.494 c -2.271,-0.771 -4.483,-1.683 -6.609,-2.73 L 37.85,138.487 16.729,117.369 28.455,101.845 C 27.407,99.719 26.493,97.508 25.724,95.236 L 6.446,92.55 V 62.684 l 19.276,-2.688 c 0.771,-2.272 1.684,-4.481 2.731,-6.607 L 16.729,37.862 37.85,16.743 53.372,28.471 c 2.123,-1.045 4.334,-1.958 6.607,-2.729 L 62.667,6.464 h 29.865 l 2.689,19.275 c 2.269,0.769 4.479,1.681 6.606,2.73 l 15.526,-11.727 21.117,21.116 -11.724,15.525 c 1.048,2.124 1.962,4.337 2.731,6.61 l 19.275,2.687 v 29.866 l -19.273,2.686 c -0.77,2.271 -1.682,4.483 -2.729,6.613 l 11.724,15.523 -21.121,21.119 -15.521,-11.724 c -2.125,1.045 -4.336,1.959 -6.611,2.729 l -2.686,19.277 H 62.669 Z"
   id="path2" />
	<linearGradient
   id="SVGID_1_"
   gradientUnits="userSpaceOnUse"
   x1="29.554701"
   y1="29.5688"
   x2="125.6494"
   y2="125.6636">
		<stop
   offset="0"
   style="stop-color:#8D742F"
   id="stop2" />
		<stop
   offset="0.0689"
   style="stop-color:#967D38"
   id="stop3" />
		<stop
   offset="0.1809"
   style="stop-color:#AE954F"
   id="stop4" />
		<stop
   offset="0.2"
   style="stop-color:#B39A54"
   id="stop5" />
		<stop
   offset="0.2218"
   style="stop-color:#B9A059"
   id="stop6" />
		<stop
   offset="0.3022"
   style="stop-color:#CAB068"
   id="stop7" />
		<stop
   offset="0.3903"
   style="stop-color:#D4BA71"
   id="stop8" />
		<stop
   offset="0.5"
   style="stop-color:#D7BD74"
   id="stop9" />
		<stop
   offset="0.6097"
   style="stop-color:#D4BA71"
   id="stop10" />
		<stop
   offset="0.6978"
   style="stop-color:#CAB068"
   id="stop11" />
		<stop
   offset="0.7782"
   style="stop-color:#B9A059"
   id="stop12" />
		<stop
   offset="0.8"
   style="stop-color:#B39A54"
   id="stop13" />
		<stop
   offset="0.8571"
   style="stop-color:#A38A45"
   id="stop14" />
		<stop
   offset="0.938"
   style="stop-color:#937A35"
   id="stop15" />
		<stop
   offset="1"
   style="stop-color:#8D742F"
   id="stop16" />
	</linearGradient>
	<path
   fill="url(#SVGID_1_)"
   d="M 145.55,89.758 V 65.471 L 127.037,62.89 c -1.022,-3.439 -2.384,-6.733 -4.063,-9.827 L 134.234,38.153 117.06,20.98 102.15,32.242 C 99.054,30.563 95.765,29.202 92.328,28.18 L 89.744,9.668 H 65.456 l -2.579,18.514 c -3.438,1.025 -6.729,2.383 -9.825,4.063 L 38.143,20.982 20.966,38.156 32.228,53.068 c -1.679,3.093 -3.039,6.385 -4.063,9.824 L 9.653,65.472 V 89.76 l 18.512,2.579 c 1.024,3.44 2.385,6.731 4.063,9.825 l -11.262,14.91 17.177,17.174 14.906,-11.259 c 3.098,1.68 6.391,3.039 9.828,4.063 l 2.582,18.513 h 24.287 l 2.581,-18.513 c 3.438,-1.023 6.731,-2.383 9.828,-4.063 l 14.904,11.259 17.177,-17.174 -11.26,-14.909 c 1.68,-3.095 3.042,-6.389 4.061,-9.829 z m -26.07,-9.576 c -2.963,0 -5.848,0.34 -8.624,0.964 -1.642,15.652 -14.075,28.085 -29.727,29.727 -0.625,2.776 -0.965,5.66 -0.965,8.622 0,1.416 -2.564,5.128 -2.564,5.128 0,0 -2.564,-3.712 -2.564,-5.128 0,-2.962 -0.339,-5.846 -0.964,-8.622 C 58.425,109.231 45.989,96.799 44.347,81.147 41.569,80.522 38.684,80.182 35.72,80.182 c -1.416,0 -5.128,-2.564 -5.128,-2.564 0,0 3.712,-2.564 5.128,-2.564 2.964,0 5.849,-0.34 8.627,-0.965 1.642,-15.651 14.077,-28.084 29.725,-29.726 0.624,-2.777 0.964,-5.662 0.964,-8.627 0,-1.416 2.564,-5.128 2.564,-5.128 0,0 2.564,3.712 2.564,5.128 0,2.965 0.34,5.85 0.966,8.627 15.65,1.642 28.084,14.074 29.726,29.726 2.776,0.625 5.661,0.965 8.624,0.965 1.417,0 5.128,2.564 5.128,2.564 0,0 -3.711,2.564 -5.128,2.564 z m 0,-2.565 c -23.13,0 -41.88,18.749 -41.88,41.877 0,-23.128 -18.749,-41.877 -41.88,-41.877 23.131,0 41.88,-18.75 41.88,-41.882 0.001,23.132 18.751,41.882 41.88,41.882 z"
   id="path16"
   style="fill:url(#SVGID_1_)" />
</g>
</svg>
