<?xml version="1.0" encoding="UTF-8" standalone="no"?>
<!-- Generator: Adobe Illustrator 15.1.0, SVG Export Plug-In . SVG Version: 6.00 Build 0)  -->

<svg
   version="1.1"
   id="Layer_1"
   x="0px"
   y="0px"
   width="150"
   height="150.00101"
   viewBox="0 0 150 150.00101"
   enable-background="new 0 0 155 155"
   xml:space="preserve"
   xmlns="http://www.w3.org/2000/svg"
   xmlns:svg="http://www.w3.org/2000/svg"><defs
   id="defs18" />
<g
   id="Layer_1_1_"
   transform="translate(-2.808,-2.617)">
</g>
<g
   id="Layer_3"
   display="none"
   transform="translate(-2.808,-2.617)">
</g>
<g
   id="g18"
   transform="translate(-2.808,-2.617)">
	<path
   fill="#ffffff"
   d="m 59.53,152.617 -2.832,-20.296 c -0.894,-0.344 -1.777,-0.709 -2.648,-1.094 L 37.704,143.574 11.85,117.722 24.199,101.373 c -0.386,-0.871 -0.75,-1.757 -1.095,-2.649 L 2.808,95.897 V 59.335 l 20.296,-2.828 c 0.344,-0.894 0.709,-1.776 1.094,-2.647 L 11.849,37.509 37.705,11.656 54.051,24.008 c 0.87,-0.385 1.754,-0.749 2.646,-1.093 L 59.526,2.617 h 36.559 l 2.832,20.294 c 0.893,0.343 1.777,0.708 2.646,1.093 l 16.351,-12.349 25.852,25.851 -12.346,16.349 c 0.386,0.871 0.751,1.756 1.094,2.65 l 20.294,2.829 v 36.562 l -20.291,2.827 c -0.345,0.894 -0.709,1.778 -1.095,2.651 l 12.348,16.349 -25.855,25.853 -16.347,-12.348 c -0.873,0.386 -1.758,0.752 -2.65,1.095 l -2.826,20.295 H 59.53 Z"
   id="path1" />
	<path
   fill="#626e77"
   d="m 62.876,148.771 -2.689,-19.277 c -2.271,-0.771 -4.483,-1.683 -6.609,-2.73 L 38.057,138.488 16.936,117.37 28.662,101.846 C 27.614,99.72 26.7,97.509 25.931,95.237 L 6.654,92.55 V 62.684 L 25.93,59.996 c 0.771,-2.272 1.684,-4.481 2.731,-6.607 L 16.936,37.862 38.057,16.743 53.58,28.471 c 2.123,-1.045 4.334,-1.958 6.607,-2.729 L 62.875,6.464 H 92.74 l 2.689,19.275 c 2.268,0.769 4.479,1.681 6.605,2.73 l 15.527,-11.727 21.117,21.116 -11.724,15.525 c 1.048,2.124 1.962,4.337 2.731,6.61 l 19.275,2.687 v 29.866 l -19.273,2.686 c -0.77,2.271 -1.682,4.483 -2.729,6.613 l 11.724,15.523 -21.121,21.119 -15.521,-11.724 c -2.125,1.045 -4.336,1.959 -6.611,2.729 l -2.686,19.277 H 62.876 Z"
   id="path2" />
	<linearGradient
   id="SVGID_1_"
   gradientUnits="userSpaceOnUse"
   x1="29.7617"
   y1="29.568399"
   x2="125.8571"
   y2="125.6638">
		<stop
   offset="0"
   style="stop-color:#626E77"
   id="stop2" />
		<stop
   offset="0.0418"
   style="stop-color:#697780"
   id="stop3" />
		<stop
   offset="0.1099"
   style="stop-color:#7D8E98"
   id="stop4" />
		<stop
   offset="0.1954"
   style="stop-color:#9EB4C0"
   id="stop5" />
		<stop
   offset="0.2"
   style="stop-color:#A0B6C2"
   id="stop6" />
		<stop
   offset="0.2041"
   style="stop-color:#A1B7C3"
   id="stop7" />
		<stop
   offset="0.2896"
   style="stop-color:#ADC6D4"
   id="stop8" />
		<stop
   offset="0.3832"
   style="stop-color:#B5CEDE"
   id="stop9" />
		<stop
   offset="0.5"
   style="stop-color:#B7D1E1"
   id="stop10" />
		<stop
   offset="0.6168"
   style="stop-color:#B5CEDE"
   id="stop11" />
		<stop
   offset="0.7104"
   style="stop-color:#ADC6D4"
   id="stop12" />
		<stop
   offset="0.7959"
   style="stop-color:#A1B7C3"
   id="stop13" />
		<stop
   offset="0.8"
   style="stop-color:#A0B6C2"
   id="stop14" />
		<stop
   offset="0.8463"
   style="stop-color:#8B9DA8"
   id="stop15" />
		<stop
   offset="0.9062"
   style="stop-color:#74838D"
   id="stop16" />
		<stop
   offset="0.9594"
   style="stop-color:#67747D"
   id="stop17" />
		<stop
   offset="1"
   style="stop-color:#626E77"
   id="stop18" />
	</linearGradient>
	<path
   fill="url(#SVGID_1_)"
   d="M 145.758,89.758 V 65.471 L 127.245,62.89 c -1.022,-3.439 -2.384,-6.733 -4.063,-9.827 l 11.26,-14.91 -17.174,-17.173 -14.91,11.262 C 99.262,30.563 95.973,29.202 92.536,28.18 L 89.951,9.668 H 65.664 l -2.579,18.514 c -3.438,1.025 -6.729,2.383 -9.825,4.063 L 38.35,20.982 21.173,38.156 32.435,53.068 c -1.679,3.093 -3.039,6.385 -4.063,9.824 L 9.86,65.473 v 24.288 l 18.512,2.579 c 1.024,3.44 2.385,6.731 4.063,9.825 l -11.262,14.91 17.177,17.174 14.906,-11.259 c 3.098,1.68 6.391,3.039 9.828,4.063 l 2.582,18.513 h 24.287 l 2.582,-18.513 c 3.438,-1.023 6.73,-2.383 9.828,-4.063 l 14.904,11.259 17.177,-17.174 -11.26,-14.909 c 1.68,-3.095 3.042,-6.389 4.061,-9.829 z m -26.07,-9.576 c -2.963,0 -5.848,0.34 -8.624,0.964 -1.643,15.652 -14.076,28.085 -29.727,29.727 -0.625,2.776 -0.965,5.66 -0.965,8.622 0,1.416 -2.565,5.128 -2.565,5.128 0,0 -2.564,-3.712 -2.564,-5.128 0,-2.962 -0.339,-5.846 -0.964,-8.622 -15.647,-1.642 -28.083,-14.074 -29.725,-29.726 -2.778,-0.625 -5.663,-0.965 -8.627,-0.965 -1.416,0 -5.128,-2.564 -5.128,-2.564 0,0 3.712,-2.564 5.128,-2.564 2.964,0 5.849,-0.34 8.627,-0.965 1.642,-15.651 14.077,-28.084 29.725,-29.726 0.624,-2.777 0.964,-5.662 0.964,-8.627 0,-1.416 2.564,-5.128 2.564,-5.128 0,0 2.565,3.712 2.565,5.128 0,2.965 0.34,5.85 0.965,8.627 15.65,1.642 28.084,14.074 29.727,29.726 2.776,0.625 5.661,0.965 8.624,0.965 1.417,0 5.128,2.564 5.128,2.564 0,0 -3.711,2.564 -5.128,2.564 z m 0,-2.565 c -23.13,0 -41.88,18.749 -41.88,41.877 0,-23.128 -18.749,-41.877 -41.88,-41.877 23.131,0 41.88,-18.75 41.88,-41.882 0,23.132 18.751,41.882 41.88,41.882 z"
   id="path18"
   style="fill:url(#SVGID_1_)" />
</g>
</svg>
