<?xml version="1.0" encoding="UTF-8" standalone="no"?>
<svg
   version="1.1"
   id="svg2"
   x="0px"
   y="0px"
   width="294.53799"
   height="330.702"
   xmlns="http://www.w3.org/2000/svg"
   xmlns:svg="http://www.w3.org/2000/svg">
  <defs
     id="defs9" />
  <path
     d="M 147.269,0 13.058,77.506 38.277,84.828 c 46.592,13.526 74.13,38.349 101.502,62.977 l 7.49,6.74 7.49,-6.74 c 27.372,-24.628 54.91,-49.45 101.502,-62.977 L 281.48,77.506 Z M 0,91.661 v 26.198 131.642 l 9.353,1.564 c 43.629,7.292 75.282,31.795 106.606,61.619 l 18.924,18.017 V 171.948 l -9.32,-1.586 c -46.922,-7.99 -71.452,-26.983 -106.624,-60.6 z m 294.537,0 -18.938,18.102 c -35.172,33.616 -59.702,52.609 -106.624,60.6 l -9.32,1.586 v 158.753 l 18.924,-18.017 c 31.324,-29.824 62.978,-54.327 106.606,-61.619 l 9.353,-1.564 V 91.661 Z"
     id="path1" />
  <linearGradient
     id="SVGID_1_"
     gradientUnits="userSpaceOnUse"
     x1="257.14481"
     y1="183.94749"
     x2="54.980701"
     y2="-18.2166">
    <stop
       offset="0.2"
       style="stop-color:#8b723c"
       id="stop1" />
    <stop
       offset="0.5"
       style="stop-color:#ebd491"
       id="stop2" />
    <stop
       offset="0.8"
       style="stop-color:#8b723c"
       id="stop3" />
  </linearGradient>
  <path
     fill="url(#SVGID_1_)"
     d="M 147.269,12.933 41.4,74.072 c 49.02,14.232 78.5,40.78 105.869,65.406 27.369,-24.626 56.85,-51.174 105.869,-65.406 z"
     id="path3"
     style="fill:url(#SVGID_1_)" />
  <linearGradient
     id="SVGID_2_"
     gradientUnits="userSpaceOnUse"
     x1="184.1819"
     y1="211.21609"
     x2="-30.6105"
     y2="211.21609">
    <stop
       offset="0.2"
       style="stop-color:#8b723c"
       id="stop4" />
    <stop
       offset="0.5"
       style="stop-color:#ebd491"
       id="stop5" />
    <stop
       offset="0.8"
       style="stop-color:#8b723c"
       id="stop6" />
  </linearGradient>
  <path
     fill="url(#SVGID_2_)"
     d="m 11.2,117.86 v 122.159 c 46.806,7.823 80.641,34.239 112.482,64.555 V 181.404 C 74.376,173.007 46.786,151.873 11.2,117.86 Z"
     id="path6"
     style="fill:url(#SVGID_2_)" />
  <linearGradient
     id="SVGID_3_"
     gradientUnits="userSpaceOnUse"
     x1="590.47681"
     y1="-47.602299"
     x2="462.7709"
     y2="173.5907"
     gradientTransform="matrix(0.8,0,0,-0.8,-189.9775,268.9294)">
    <stop
       offset="0.2"
       style="stop-color:#8b723c"
       id="stop7" />
    <stop
       offset="0.5"
       style="stop-color:#ebd491"
       id="stop8" />
    <stop
       offset="0.8"
       style="stop-color:#8b723c"
       id="stop9" />
  </linearGradient>
  <path
     fill="url(#SVGID_3_)"
     d="m 283.337,117.86 c -35.586,34.014 -63.176,55.147 -112.482,63.544 v 123.17 c 31.842,-30.315 65.677,-56.731 112.482,-64.555 z"
     id="path9"
     style="fill:url(#SVGID_3_)" />
</svg>
