<svg xmlns="http://www.w3.org/2000/svg" xmlns:xlink="http://www.w3.org/1999/xlink" width="779.297" height="557.031"><defs><linearGradient id="a"><stop offset="0" style="stop-color:#bb3426"/><stop offset=".5" style="stop-color:#e07e25"/><stop offset="1" style="stop-color:#faa325"/></linearGradient><linearGradient xlink:href="#a" id="b" x1="846.094" x2="627.93" y1="51.563" y2="52.814" gradientUnits="userSpaceOnUse"/><linearGradient xlink:href="#a" id="c" x1="440.021" x2="605.507" y1="47.7" y2="185.552" gradientUnits="userSpaceOnUse"/><linearGradient xlink:href="#a" id="d" x1="601.353" x2="491.406" y1="198.029" y2="528.32" gradientUnits="userSpaceOnUse"/><linearGradient xlink:href="#a" id="e" x1="754.297" x2="505.273" y1="172.07" y2="527.539" gradientUnits="userSpaceOnUse"/><linearGradient xlink:href="#a" id="f" x1="605.718" x2="717.969" y1="406.688" y2="246.484" gradientUnits="userSpaceOnUse"/><linearGradient xlink:href="#a" id="h" x1="617.383" x2="504.492" y1="390.039" y2="551.172" gradientUnits="userSpaceOnUse"/></defs><path d="m0 0 47.656 149.219H97.07l30.664 43.36 74.414 250.194 187.5 114.258 187.5-114.258 74.414-250.195 30.665-43.36h49.414L779.297 0H552.93l-15.235 45.898H241.602L226.367 0Z" style="fill:#000"/><g id="i"><path d="M663.672 51.563 627.93 159.18h183.593l34.57-107.617Z" style="fill:url(#b)" transform="translate(-95.313 -30.664)"/><path d="m495.117 97.656 81.64 174.414 58.009-174.414Z" style="fill:url(#c)" transform="translate(-95.313 -30.664)"/><path d="M491.406 120.313V528.32l79.297-238.476Z" style="fill:url(#d)" transform="translate(-95.313 -30.664)"/><path d="m623.633 172.07-118.36 355.47 249.024-355.47Z" style="fill:url(#e)" transform="translate(-95.313 -30.664)"/><path d="m717.969 246.484-91.992 131.25 32.421 69.336z" style="fill:url(#f)" transform="translate(-95.313 -30.664)"/><path d="m617.383 390.04-112.89 161.132 146.679-89.453Z" style="fill:url(#h)" transform="translate(-95.313 -30.664)"/></g><use xlink:href="#i" transform="matrix(-1 0 0 1 779.367 0)"/></svg>