<?xml version="1.0" encoding="UTF-8" standalone="no"?>
<!-- Generator: Adobe Illustrator 15.1.0, SVG Export Plug-In . SVG Version: 6.00 Build 0)  -->

<svg
   version="1.1"
   id="svg8"
   x="0px"
   y="0px"
   width="240.50084"
   height="175.002"
   viewBox="0 0 240.50084 175.002"
   enable-background="new 0 0 246 180"
   xml:space="preserve"
   xmlns="http://www.w3.org/2000/svg"
   xmlns:svg="http://www.w3.org/2000/svg"><defs
   id="defs2" />

<g
   id="g2"
   transform="translate(-2.4406207,-2.055)">
	<g
   id="g1">
		<path
   fill="#ffffff"
   d="m 238.418,101.629 c -2.813,1.021 -30.205,10.533 -30.205,10.533 L 185.969,89.555 208.213,66.947 c 0,0 27.395,9.512 30.205,10.531 1.859,0.676 3.568,0.851 4.037,0.296 1.881,-2.217 -2.25,-9.308 -3.462,-11.513 C 216.613,25.506 172.019,11.273 170.242,10.566 166.929,9.25 156.135,5.584 155.075,7.931 c -0.864,1.921 -0.037,2.86 2.146,4.516 3.713,2.816 9.03,8.598 9.03,12.833 0,2.292 -1.571,8.241 -8.749,8.241 -2.352,0 -4.544,-1.163 -6.757,-2.952 L 122.689,2.055 94.636,30.567 c -2.215,1.79 -4.408,2.955 -6.759,2.955 -7.177,0 -8.75,-5.949 -8.75,-8.241 0,-4.235 5.319,-10.017 9.032,-12.833 C 90.341,10.792 91.17,9.853 90.305,7.932 89.246,5.585 78.45,9.251 75.138,10.567 73.359,11.274 28.767,25.506 6.387,66.262 5.176,68.467 1.043,75.558 2.924,77.775 c 0.469,0.554 2.178,0.38 4.037,-0.296 2.813,-1.02 30.206,-10.531 30.206,-10.531 l 22.244,22.608 -22.244,22.607 c 0,0 -27.393,-9.513 -30.206,-10.533 -1.859,-0.675 -3.568,-0.848 -4.037,-0.296 -1.881,2.221 2.251,9.309 3.463,11.514 22.38,40.756 66.972,54.987 68.751,55.696 3.312,1.315 14.107,4.981 15.167,2.633 0.866,-1.921 0.037,-2.86 -2.146,-4.517 -3.713,-2.815 -9.032,-8.598 -9.032,-12.832 0,-2.293 1.573,-8.241 8.75,-8.241 2.35,0 4.543,1.162 6.757,2.951 l 28.058,28.519 28.056,-28.521 c 2.213,-1.787 4.405,-2.949 6.757,-2.949 7.178,0 8.749,5.948 8.749,8.241 0,4.234 -5.317,10.017 -9.03,12.832 -2.184,1.656 -3.011,2.596 -2.146,4.517 1.06,2.349 11.854,-1.317 15.167,-2.633 1.777,-0.709 46.371,-14.94 68.751,-55.696 1.212,-2.205 5.343,-9.293 3.462,-11.514 -0.47,-0.552 -2.179,-0.379 -4.04,0.295 z m -105.466,-44.717 -10.263,10.43 -10.26,-10.431 10.26,-10.43 z m -20.522,65.287 10.26,-10.432 10.262,10.432 -10.262,10.431 z"
   id="path1" />
	</g>
	<path
   d="m 68.718,122.199 17.129,17.408 c -8.754,0.99 -12.815,8.338 -12.815,14.221 0,5.533 2.596,8.242 2.596,8.242 0,0 -42.448,-13.097 -63.898,-52.157 L 38.824,119.172 67.963,89.556 38.824,59.939 11.73,69.197 C 33.18,30.134 75.627,17.039 75.627,17.039 c 0,0 -2.596,2.71 -2.596,8.242 0,5.883 4.061,13.232 12.815,14.221 l -17.129,17.41 32.116,32.644 z m 107.944,0 -17.128,17.408 c 8.755,0.99 12.815,8.338 12.815,14.221 0,5.533 -2.598,8.242 -2.598,8.242 0,0 42.448,-13.098 63.898,-52.157 l -27.096,9.259 -29.139,-29.616 29.139,-29.616 27.096,9.258 C 212.2,30.136 169.752,17.04 169.752,17.04 c 0,0 2.598,2.71 2.598,8.242 0,5.883 -4.062,13.232 -12.815,14.221 l 17.128,17.41 -32.118,32.644 z m -49.698,-14.778 14.538,14.777 -18.813,19.12 -18.813,-19.12 64.232,-65.287 -45.42,-46.164 -45.42,46.165 27.842,28.298 13.303,-13.523 -14.537,-14.775 18.813,-19.122 18.813,19.122 -64.233,65.287 45.42,46.164 45.42,-46.164 L 140.27,93.9 Z"
   id="path2" />
</g>
</svg>
