<?xml version="1.0" encoding="UTF-8" standalone="no"?>
<!-- Generator: Adobe Illustrator 15.1.0, SVG Export Plug-In . SVG Version: 6.00 Build 0)  -->

<svg
   version="1.1"
   id="svg8"
   x="0px"
   y="0px"
   width="240.50003"
   height="175"
   viewBox="0 0 240.50003 175"
   enable-background="new 0 0 246 180"
   xml:space="preserve"
   xmlns="http://www.w3.org/2000/svg"
   xmlns:svg="http://www.w3.org/2000/svg"><defs
   id="defs9" />

<g
   id="g9"
   transform="translate(-2.6354343,-2.35)">
	<g
   id="g1">
		<path
   d="m 238.614,101.924 c -2.812,1.021 -30.206,10.533 -30.206,10.533 L 186.165,89.85 208.408,67.242 c 0,0 27.395,9.512 30.206,10.531 1.86,0.676 3.569,0.85 4.037,0.296 1.881,-2.217 -2.25,-9.308 -3.462,-11.513 C 216.809,25.8 172.216,11.568 170.438,10.861 167.126,9.546 156.33,5.88 155.271,8.226 c -0.864,1.921 -0.038,2.86 2.146,4.516 3.713,2.816 9.03,8.598 9.03,12.833 0,2.292 -1.571,8.241 -8.749,8.241 -2.351,0 -4.544,-1.163 -6.757,-2.952 L 122.886,2.35 94.832,30.862 c -2.215,1.79 -4.409,2.955 -6.759,2.955 -7.178,0 -8.751,-5.949 -8.751,-8.241 0,-4.235 5.319,-10.017 9.033,-12.833 2.182,-1.656 3.011,-2.595 2.146,-4.516 C 89.439,5.88 78.645,9.547 75.334,10.862 73.553,11.568 28.962,25.8 6.583,66.556 5.371,68.761 1.24,75.852 3.119,78.069 c 0.47,0.554 2.179,0.38 4.04,-0.296 C 9.97,76.754 37.362,67.242 37.362,67.242 L 59.607,89.85 37.361,112.457 c 0,0 -27.392,-9.512 -30.203,-10.533 -1.86,-0.674 -3.57,-0.848 -4.04,-0.296 -1.879,2.22 2.252,9.308 3.464,11.513 22.38,40.756 66.971,54.988 68.751,55.697 3.312,1.315 14.106,4.981 15.167,2.633 0.864,-1.921 0.035,-2.86 -2.146,-4.516 -3.713,-2.816 -9.033,-8.599 -9.033,-12.833 0,-2.293 1.573,-8.241 8.751,-8.241 2.349,0 4.542,1.162 6.757,2.952 l 28.057,28.517 28.056,-28.52 c 2.213,-1.787 4.406,-2.949 6.757,-2.949 7.178,0 8.749,5.948 8.749,8.241 0,4.234 -5.317,10.017 -9.03,12.833 -2.185,1.655 -3.011,2.595 -2.146,4.516 1.059,2.349 11.855,-1.317 15.167,-2.633 1.778,-0.709 46.371,-14.941 68.751,-55.697 1.212,-2.205 5.343,-9.293 3.462,-11.513 -0.468,-0.552 -2.177,-0.378 -4.038,0.296 z m -105.467,-44.718 -10.261,10.43 -10.261,-10.43 10.261,-10.43 z m -20.522,65.287 10.261,-10.431 10.261,10.431 -10.261,10.43 z"
   id="path1" />
	</g>
	<radialGradient
   id="SVGID_1_"
   cx="122.8862"
   cy="89.849602"
   r="96.236298"
   gradientUnits="userSpaceOnUse">
		<stop
   offset="0"
   style="stop-color:#D7BD74"
   id="stop1" />
		<stop
   offset="0.357"
   style="stop-color:#D5BB72"
   id="stop2" />
		<stop
   offset="0.5086"
   style="stop-color:#CEB46C"
   id="stop3" />
		<stop
   offset="0.621"
   style="stop-color:#C1A861"
   id="stop4" />
		<stop
   offset="0.7"
   style="stop-color:#B39A54"
   id="stop5" />
		<stop
   offset="0.7962"
   style="stop-color:#AF9650"
   id="stop6" />
		<stop
   offset="0.8959"
   style="stop-color:#A28944"
   id="stop7" />
		<stop
   offset="0.9968"
   style="stop-color:#8E7530"
   id="stop8" />
		<stop
   offset="1"
   style="stop-color:#8D742F"
   id="stop9" />
	</radialGradient>
	<path
   fill="url(#SVGID_1_)"
   d="m 68.913,122.493 17.131,17.408 c -8.756,0.99 -12.816,8.337 -12.816,14.221 0,5.533 2.595,8.243 2.595,8.243 0,0 -42.447,-13.098 -63.896,-52.158 L 39.021,119.466 68.159,89.85 39.02,60.233 11.926,69.491 c 21.45,-39.062 63.896,-52.158 63.896,-52.158 0,0 -2.595,2.71 -2.595,8.241 0,5.883 4.061,13.232 12.816,14.221 L 68.912,57.205 101.03,89.85 Z m 107.944,0 -17.129,17.408 c 8.756,0.99 12.816,8.337 12.816,14.221 0,5.533 -2.598,8.243 -2.598,8.243 0,0 42.449,-13.098 63.899,-52.158 l -27.097,9.259 -29.135,-29.616 29.137,-29.616 27.097,9.258 C 212.397,30.43 169.948,17.334 169.948,17.334 c 0,0 2.598,2.71 2.598,8.241 0,5.883 -4.061,13.232 -12.816,14.221 l 17.129,17.41 -32.119,32.644 z m -49.697,-14.777 14.538,14.777 -18.812,19.12 -18.815,-19.12 64.234,-65.287 -45.419,-46.164 -45.42,46.164 27.84,28.299 13.303,-13.523 -14.538,-14.775 18.815,-19.122 18.812,19.122 -64.232,65.287 45.42,46.164 45.419,-46.164 -27.84,-28.299 z"
   id="path9"
   style="fill:url(#SVGID_1_)" />
</g>
</svg>
