<?xml version="1.0" encoding="UTF-8" standalone="no"?>
<!-- Generator: Adobe Illustrator 15.1.0, SVG Export Plug-In . SVG Version: 6.00 Build 0)  -->

<svg
   version="1.1"
   id="svg8"
   x="0px"
   y="0px"
   width="240.49994"
   height="175"
   viewBox="0 0 240.49994 175"
   enable-background="new 0 0 246 180"
   xml:space="preserve"
   xmlns="http://www.w3.org/2000/svg"
   xmlns:svg="http://www.w3.org/2000/svg"><defs
   id="defs10" />

<g
   id="g10"
   transform="translate(-2.6346207,-2.35)">
	<g
   id="g1">
		<path
   d="m 238.615,101.924 c -2.814,1.021 -30.208,10.533 -30.208,10.533 L 186.165,89.85 208.407,67.242 c 0,0 27.394,9.512 30.208,10.531 1.859,0.676 3.569,0.85 4.034,0.296 1.884,-2.217 -2.25,-9.308 -3.462,-11.513 C 216.81,25.8 172.214,11.568 170.439,10.861 167.127,9.546 156.329,5.88 155.271,8.226 c -0.864,1.921 -0.037,2.86 2.146,4.516 3.711,2.816 9.028,8.598 9.028,12.833 0,2.292 -1.568,8.241 -8.746,8.241 -2.354,0 -4.547,-1.163 -6.759,-2.952 L 122.886,2.35 94.832,30.862 c -2.215,1.79 -4.409,2.955 -6.759,2.955 -7.178,0 -8.75,-5.949 -8.75,-8.241 0,-4.235 5.318,-10.017 9.032,-12.833 2.182,-1.656 3.011,-2.595 2.146,-4.516 C 89.441,5.88 78.646,9.547 75.334,10.862 73.554,11.568 28.962,25.8 6.582,66.556 5.37,68.761 1.238,75.852 3.119,78.069 3.588,78.623 5.297,78.449 7.156,77.773 9.969,76.754 37.362,67.242 37.362,67.242 L 59.605,89.85 37.361,112.457 c 0,0 -27.393,-9.512 -30.206,-10.533 -1.859,-0.674 -3.568,-0.848 -4.037,-0.296 -1.881,2.22 2.251,9.308 3.463,11.513 22.38,40.756 66.972,54.988 68.751,55.697 3.312,1.315 14.107,4.981 15.167,2.633 0.865,-1.921 0.036,-2.86 -2.146,-4.516 -3.713,-2.816 -9.032,-8.599 -9.032,-12.833 0,-2.293 1.572,-8.241 8.75,-8.241 2.35,0 4.543,1.162 6.757,2.952 l 28.057,28.517 28.056,-28.52 c 2.212,-1.787 4.405,-2.949 6.759,-2.949 7.178,0 8.746,5.948 8.746,8.241 0,4.234 -5.317,10.017 -9.028,12.833 -2.184,1.655 -3.011,2.595 -2.146,4.516 1.058,2.349 11.856,-1.317 15.168,-2.633 1.775,-0.709 46.371,-14.941 68.748,-55.697 1.212,-2.205 5.346,-9.293 3.462,-11.513 -0.465,-0.552 -2.175,-0.378 -4.035,0.296 z m -105.468,-44.718 -10.262,10.43 -10.261,-10.43 10.261,-10.43 z m -20.522,65.287 10.261,-10.431 10.262,10.431 -10.262,10.43 z"
   id="path1" />
	</g>
	<radialGradient
   id="SVGID_1_"
   cx="122.8857"
   cy="89.849602"
   r="96.236603"
   gradientUnits="userSpaceOnUse">
		<stop
   offset="0"
   style="stop-color:#B7D1E1"
   id="stop1" />
		<stop
   offset="0.3697"
   style="stop-color:#B5CFDF"
   id="stop2" />
		<stop
   offset="0.5268"
   style="stop-color:#B0C9D8"
   id="stop3" />
		<stop
   offset="0.6431"
   style="stop-color:#A7BECB"
   id="stop4" />
		<stop
   offset="0.7"
   style="stop-color:#A0B6C2"
   id="stop5" />
		<stop
   offset="0.7678"
   style="stop-color:#9DB2BE"
   id="stop6" />
		<stop
   offset="0.8381"
   style="stop-color:#92A6B1"
   id="stop7" />
		<stop
   offset="0.9095"
   style="stop-color:#81929D"
   id="stop8" />
		<stop
   offset="0.9812"
   style="stop-color:#697780"
   id="stop9" />
		<stop
   offset="1"
   style="stop-color:#626E77"
   id="stop10" />
	</radialGradient>
	<path
   fill="url(#SVGID_1_)"
   d="m 68.913,122.493 17.128,17.408 c -8.754,0.99 -12.815,8.337 -12.815,14.221 0,5.533 2.596,8.243 2.596,8.243 0,0 -42.448,-13.098 -63.897,-52.158 L 39.019,119.466 68.158,89.85 39.019,60.233 11.925,69.491 c 21.45,-39.062 63.897,-52.158 63.897,-52.158 0,0 -2.596,2.71 -2.596,8.241 0,5.883 4.061,13.232 12.815,14.221 l -17.128,17.41 32.116,32.644 z m 107.942,0 -17.126,17.408 c 8.756,0.99 12.814,8.337 12.814,14.221 0,5.533 -2.598,8.243 -2.598,8.243 0,0 42.448,-13.098 63.9,-52.158 l -27.098,9.259 -29.136,-29.616 29.138,-29.616 27.098,9.258 c -21.452,-39.062 -63.9,-52.158 -63.9,-52.158 0,0 2.598,2.71 2.598,8.241 0,5.883 -4.059,13.232 -12.814,14.221 l 17.126,17.41 -32.117,32.644 z m -49.696,-14.777 14.538,14.777 -18.812,19.12 -18.814,-19.12 64.235,-65.287 -45.421,-46.164 -45.421,46.164 27.842,28.299 13.303,-13.523 -14.537,-14.775 18.814,-19.122 18.812,19.122 -64.233,65.287 45.421,46.164 45.421,-46.164 -27.841,-28.299 z"
   id="path10"
   style="fill:url(#SVGID_1_)" />
</g>
</svg>
