<?xml version="1.0" encoding="UTF-8" standalone="no"?>
<!-- Generator: Adobe Illustrator 15.1.0, SVG Export Plug-In . SVG Version: 6.00 Build 0)  -->

<svg
   version="1.1"
   id="svg8"
   x="0px"
   y="0px"
   width="240.00101"
   height="170.455"
   viewBox="0 0 240.00101 170.455"
   enable-background="new 0 0 246 180"
   xml:space="preserve"
   xmlns="http://www.w3.org/2000/svg"
   xmlns:svg="http://www.w3.org/2000/svg"><defs
   id="defs1" />

<g
   id="g1"
   transform="translate(-2.886,-4.622)">
	<path
   d="m 64.516,125.152 18.524,18.826 c -9.467,1.071 -13.859,9.017 -13.859,15.379 0,5.984 2.808,8.915 2.808,8.915 0,0 -45.906,-14.165 -69.103,-56.407 L 32.187,121.878 63.7,89.85 32.187,57.821 2.886,67.833 C 26.083,25.589 71.989,11.427 71.989,11.427 c 0,0 -2.808,2.931 -2.808,8.913 0,6.362 4.392,14.31 13.859,15.379 L 64.516,54.547 99.249,89.85 Z m 116.736,0 -18.521,18.826 c 9.47,1.071 13.859,9.017 13.859,15.379 0,5.984 -2.811,8.915 -2.811,8.915 0,0 45.907,-14.165 69.107,-56.407 L 213.58,121.878 182.069,89.85 213.581,57.821 242.887,67.833 C 219.687,25.589 173.78,11.427 173.78,11.427 c 0,0 2.811,2.931 2.811,8.913 0,6.362 -4.39,14.31 -13.859,15.379 l 18.521,18.829 -34.732,35.302 z m -53.744,-15.981 15.723,15.981 -20.345,20.678 -20.347,-20.678 69.468,-70.605 -49.121,-49.925 -49.122,49.925 30.11,30.604 14.387,-14.625 -15.722,-15.979 20.347,-20.68 20.345,20.68 -69.466,70.605 49.122,49.925 49.121,-49.925 L 141.9,94.548 Z"
   id="path1" />
</g>
</svg>
