<svg xmlns="http://www.w3.org/2000/svg" xmlns:xlink="http://www.w3.org/1999/xlink" width="131.229" height="220.497"><defs><linearGradient id="a"><stop offset="0" style="stop-color:#b63426;stop-opacity:1"/><stop offset=".1" style="stop-color:#c34f25;stop-opacity:1"/><stop offset=".5" style="stop-color:#fcaf25;stop-opacity:1"/><stop offset=".9" style="stop-color:#c34f25;stop-opacity:1"/><stop offset="1" style="stop-color:#b63426;stop-opacity:1"/></linearGradient><linearGradient xlink:href="#a" id="b" x1="434.607" x2="546.413" y1="142.393" y2="330.129" gradientTransform="translate(-429.045 -109.325)" gradientUnits="userSpaceOnUse"/></defs><path d="m2.49 218.847 6.45-10.69 33.016-29.982-30.86-25.7-1.194-30.014 21.59 15.044c-2.65-3.39-5.83-7.712-6.324-14.65C7.074 113.769-.206 102.568.004 80.56.102 70.323 2.518 60.089 12.31 52.904c-.27-10.122 15.187-19.897 15.563-24.772.377-4.874.071-8.983-1.872-10.221 8.09-1.33 8.533 2.438 11.706 4.386C42.515 9.545 51.594 2.307 64.492 0c-2.029 14.561 6.84 21.057 16.594 27.094 8.34-8.808 16.023-5.678 21.425-4.92 0 0-2.554 3.342-2.727 9.07s9.896 11.645 9.467 16.638c4.42-5.496 10.304-6.845 16.595-7.04-.33-1.322-4.229 10.012-2.903 18.64 6.888 3.943 11.17 21.866 5.995 33.38-5.113 11.378-20.874 24.438-27.562 25.054.163 7.382-1.875 13.549-5.482 18.732l22.145-15.963-4.068 32.75-31.047 24.74 34.725 30.835 6.965 10.868-29.968.619-18.893-15.11-.516 14.638-15.124-.353-7.996-15.787-19.365 15.787z" style="fill:#000;fill-opacity:1;stroke:none"/><path d="M56.986 10.644c-19.375 14.184-5.047 23.944-18.219 36.25.945-7.184 4.735-13.631-5.062-20.219.36 14.959-17.09 18.563-16.844 30.032.32 14.937 19.04 10.346 18.563 31.125 8.808-4.048 9.596-11.883 10.156-16.844.993-8.803 7.197-8.91 12.312-13.531 5.278-4.768 5.432-14.759 4.688-16.375 15.196 18.443 7.33 24.401 6.281 30.343 4.305-.963 8.39-2.363 11.438-5.843-1.81 14.617 5.57 13.156 10.406 21.375 1.491-13.94 8.906-12.554 12.094-24.625 1.877-7.108-.567-14.176-6.594-18.75-2.78-2.11-4.17-9.719-3.063-13.563-5.83-1.73-9.386 7.7-9.562 9.219-9.472-17.349-22.985-3.225-26.594-28.594m58.844 42.938c-5.15 3.664-5.3 5.6-6.656 15.156-1.7 11.987-9.97 12.427-10.344 22.344-.244 6.49 3.133 6.141 3.25 16.53 4.254.677 11.555-6.625 14.781-10.562 5.303-6.47 6.28-13.488 4.906-23.218-1.31-9.282-6.174-9.253-5.937-20.25m-104 7c-4.129 6.604-4.708 14.241-5 22.343-.488 13.516 4.655 25.755 18.187 32.97-4.434-13.446 12.026-28.63-1.03-37.845-7.1-5.01-13.432-12.087-12.157-17.468m51.625 20.093c-10.41 0-19.685 5.075-25.719 12.97-.007.011-.024.018-.03.03-3.129 5.281-6.25 10.514-6.626 27.72 2.812 16.044 16.23 28.218 32.375 28.218 16.512 0 30.183-12.725 32.562-29.313-.309-6.52-.662-13.07-4.03-22.343-.005-.008.003-.024 0-.032-5.695-10.311-16.337-17.25-28.532-17.25M53.017 96.332c2.217-.032 10.438 9.312 10.438 9.312s7.64-9.183 10.312-9.062c2.673.12 8.97 9.78 8.97 9.78s2.488 15.522 2 18.345c-.49 2.823-10.06 11.886-12.063 11.937-2.004.05-9.563-8.656-9.563-8.656s-6.887 8.612-9.25 8.625-10.866-8.55-11.656-10.719c-.79-2.17.502-17.494 1.281-19.562.78-2.068 7.314-9.969 9.531-10m10.438 10.562c-5.4 0-9.78 4.38-9.78 9.781s4.38 9.782 9.78 9.782c5.401 0 9.781-4.38 9.781-9.782 0-5.4-4.38-9.78-9.78-9.78m46.655 26.594-40.969 29.75-.187-3.594-5.438-3.344-5.5.594.032 7.656-41.5-30.656.656 15.75 34.156 28.5-15.187 14.063 8.03 9.718 13.5-11.343-.187 8.968 6.688 14 4.75.157.781-20.97 26.781 20.813 15.907.063-39.188-35.969 34.938-27.594zm-79.81 64.155L13.641 213.05l16.657.563 7.78-6.531z" style="fill:url(#b);fill-opacity:1;stroke:none"/></svg>