<svg xmlns="http://www.w3.org/2000/svg" width="725.01" height="1039.89" data-name="Layer 2"><defs><linearGradient id="a" x1="-592.44" x2="-591.44" y1="519.95" y2="519.95" gradientTransform="matrix(0 0 0 0 -5216.28 24.19)" gradientUnits="userSpaceOnUse"><stop offset="0"/><stop offset="1"/></linearGradient></defs><path d="m385.22 0 339.79 550.09-271.78 489.8H312.64L0 573.2l14.18-21.23L374.27 16.32Zm-68.05 168.11v-.07L45.84 573.2l271.38 405.06 38.53-70.56.71-102.67L243.1 643.35c-23.66-37.74-7.39-84.86 48.88-141.28-27.64 47.4-31.07 88.67-10.39 123.7l123.3 169.84-.46 112.55 40.76 70.1 235.69-427.12-235.69-383.06-36.1 83.29-.41 98.2c55.76 88.12 91.45 146.57 107.12 175.42 15.67 28.81-.06 79.45-47.15 151.96 20.68-46.24 23.57-91.22 8.51-134.96L362.84 358.88l-1.68-105.49-43.99-85.27z" data-name="Layer 1" style="fill-rule:evenodd;stroke-width:0;fill:url(#a)"/></svg>