<?xml version="1.0" encoding="UTF-8" standalone="no"?>
<svg
   width="462.84207pt"
   height="432.19806pt"
   viewBox="0 0 462.84207 432.19806"
   version="1.1"
   id="svg1"
   xmlns="http://www.w3.org/2000/svg"
   xmlns:svg="http://www.w3.org/2000/svg">
  <defs
     id="defs1" />
  <path
     d="m 126.24663,0.0164069 c 6.14638,0.0944 12.28908,0.59662 18.35938,1.488281 6.3e-4,9.4e-5 0.001,-9.4e-5 0.002,0 32.34216,4.848487 61.9177,23.7879011 80.95703,49.6074221 l 5.70312,7.734375 5.89844,-7.587891 c 7.23897,-9.315302 14.93098,-17.985932 23.94922,-24.697265 l 0.0859,-0.06445 0.084,-0.06641 C 279.4095,12.09397 301.92759,2.7632359 325.17049,0.5398439 c 15.72318,-1.190838 31.47622,-0.464568 46.09179,3.800782 l 0.0488,0.01367 0.0488,0.01367 c 21.89532,6.0623141 42.44538,17.2918861 57.70117,33.2578131 14.11188,15.104843 25.00079,33.093372 30.01367,52.523439 l 0.0215,0.084 0.0234,0.084 c 4.93322,17.390692 4.3008,36.295392 1.9082,55.093752 -5.2868,35.30496 -21.39243,68.69227 -42.66602,98.29492 l -0.0605,0.084 -0.0586,0.0859 c -15.82923,23.40488 -33.60036,45.64034 -52.17968,67.32617 -15.4193,16.4854 -30.64297,32.92666 -46.98047,48.00781 l -0.0332,0.0293 -0.0312,0.0293 c -15.65832,14.80981 -31.57848,29.20731 -48.42578,42.36524 l -0.0605,0.0469 -0.0606,0.0488 c -12.59692,10.27937 -26.2137,19.94276 -39.45703,30.46875 -9.27232,-7.72758 -18.71793,-15.09437 -27.91211,-22.46484 l -0.0156,-0.0117 -0.0137,-0.0117 C 164.03158,378.73845 128.43146,343.69539 95.145073,306.71172 88.423203,298.60337 81.689611,290.55687 75.023973,282.48126 57.597358,259.90124 40.643769,237.15201 26.424363,213.01836 16.259462,194.92025 8.1490971,175.79611 3.4282701,155.96368 -0.2691689,136.35733 -1.4825709,116.38886 2.3442851,97.379688 7.9103961,74.374926 18.740089,52.372883 35.645067,35.875782 42.229919,30.368562 48.051083,24.923153 54.324754,21.012501 l 0.333984,-0.208985 0.310547,-0.242187 c 4.769186,-3.746 11.08477,-6.535696 17.876953,-10.042969 C 89.397293,3.1015699 107.83253,-0.2663931 126.24663,0.0164069 Z"
     id="path1" />
</svg>
