<svg xmlns="http://www.w3.org/2000/svg" width="304.998" height="120.999"><path d="m14.853 9.03 55.982 6.822 22.5-4.326 14.333 8.819L144.96 8.571l20.182 5.347L259 8.198l28.333 10.067-4.834 41.726c-3.186 4.979-4.445 13.609-7.083 24.838-16.396-3.774-29.242-1.043-36.79 7.112-7.813-7.601-17.156-3.919-27.688 3.703-2.75-5.679-12.693-5.546-22.479-7.281l-45.292-1.704-5.75-7.488-29.749 2.413-25.249-18.473-21.333 13.813-47.249-32.699Z"/><path d="M304.998 5.031a5 5 0 0 0-5-5.031h-28.387a5 5 0 0 0-4.538 2.894H261.7a5 5 0 0 0-4.11 2.15 4.99 4.99 0 0 0-4.109-2.15h-14.669c-.77 0-1.499.174-2.15.484-1.906-.488-4.32-.857-7.466-.857-7.262 0-12.999 1.903-17.05 5.546l-.01-.014a5 5 0 0 0-4.187-2.264h-8.938a5.004 5.004 0 0 0-4.567-2.96h-9.468a5 5 0 0 0-4.733 3.382l-.05-.137a5 5 0 0 0-4.685-3.245h-14.879l-.263-.007h-9.467a5 5 0 0 0-4.813 3.64 5 5 0 0 0-4.812-3.641H128.28q-.496 0-.965.093a5 5 0 0 0-.973-.094H115.25a5 5 0 0 0-4.918 4.095l-.01.059c-.272 1.482-.549 2.997-1.48 6.729-1.508-3.583-3.806-6.31-6.885-8.153-3.858-2.352-8.29-2.656-11.716-2.656H72.255a5 5 0 0 0-4.54 2.897h-5.813a5 5 0 0 0-2.944.956q-.375-.326-.774-.628C53.87 2.895 48.8 2.895 46.892 2.895h-12.14A5 5 0 0 0 30.211 0H7.923a5 5 0 0 0-4.397 2.615 4.98 4.98 0 0 0 .21 5.104c.41.629.522.801.597 3.414l.057 6.609a4.994 4.994 0 0 0-4.357 4.951 5.02 5.02 0 0 0 3.69 4.838c.257.622.626 2.029.7 4.51l-.009 1.26c0 7.748 0 10.939-.76 12.955a4.99 4.99 0 0 0 .568 4.6 5 5 0 0 0 4.111 2.15h10.65a5 5 0 0 0 4.2-2.285 4.99 4.99 0 0 0 .354-4.764c-.523-1.154-.68-1.504-.809-5.042-.013-.463-.03-3.963-.047-7.572.335.004.635.006.885.006l.275-.001q.162-.002.324-.014a14 14 0 0 0 3.198-.588l.008.624c0 8.522-.036 9.036-.758 10.943a4.99 4.99 0 0 0 .565 4.604 5 5 0 0 0 4.113 2.153h9.68c2.761 0 5-2.235 5-4.992v-1.464l1.075 1.794.075.121c.975 1.53 3.941 6.189 10.771 6.598q.15.009.3.009h6.88a5 5 0 0 0 4.898-3.993h2.961l.105-.001q.19.243.411.465a5 5 0 0 0 3.538 1.465h11.523c2.354 0 7.17 0 11.741-2.274a5 5 0 0 0 4.147 2.205h9.361a5 5 0 0 0 3.652-1.583 4.98 4.98 0 0 0 1.337-3.744c-.038-.559-.072-1.074.096-2.174l1.462-.001c.056.485.064.815.05 1.177l-.09.751a4.98 4.98 0 0 0 1.226 3.904 5 5 0 0 0 3.74 1.678h10.657a5 5 0 0 0 1.892-.372c.6.249 1.25.383 1.917.383h10.931c1.697 0 3.28-.86 4.2-2.284a4.98 4.98 0 0 0 .357-4.761c-.519-1.149-.676-1.496-.807-5.047-.019-.598-.037-3.788-.046-6.167l1.8-4.716.817-1.916c1.147-2.695 2.248-5.28 3.47-7.928v.006c.021 1.353-.008 8.185-.027 11.604-.055 6.765-.27 11.063-.404 12.299l-.005.052c-.107 1.104-.197 1.392-.467 2.24l-.026.084a4.99 4.99 0 0 0 .734 4.456 5 5 0 0 0 4.033 2.042h8.062c2.761 0 5-2.235 5-4.992v-3.776l.108.19c1.697 3.012 4.537 8.05 11.878 8.512q.157.01.314.01h4.066a5 5 0 0 0 3.831-1.784H208a5 5 0 0 0 4.418-2.654 19 19 0 0 0 1.807 1.425c4.734 3.265 9.822 3.643 13.238 3.643 2.1 0 4.03-.17 5.73-.319l.857-.074.163-.017.618-.072c2.63-.31 2.905-.342 4.113-.384a5 5 0 0 0 1.288-.216c.718.387 1.53.598 2.37.598h10.931a5 5 0 0 0 4.137-2.188l.023.033a5 5 0 0 0 4.114 2.155h10.93a5 5 0 0 0 3.181-1.143q.151.363.361.702A5 5 0 0 0 280.531 53h10.818a5 5 0 0 0 4.251-2.365 4.99 4.99 0 0 0 .223-4.854l-.029-.057c-.262-.523-.419-.84-.53-3.392l-.004-.061c-.098-1.753-.118-15.063-.108-25.959q.922.013 1.377.056a5 5 0 0 0 5.408 1.004 4.99 4.99 0 0 0 3.052-4.876c-.026-.591-.016-4.262.01-7.465"/><path d="M198.155 31.403c-.106-7.834-.106-14.464-.106-14.464 0-3.782-.487-4.916-1.082-6.158h10.982c-.595 1.351-1.027 2.376-1.135 6.375-.164 2.97-.164 16.84-.058 20.08.165 4.431.489 5.241 1.246 6.917h-10.927c1.08-2.865 1.08-4.162 1.08-12.75M160.368 7.815H150.9c.216.431.378.754.378 1.402 0 1.999-1.895 7.129-3.029 10.318l-2.11 5.728-1.948-5.243c-.867-2.43-3.247-8.967-3.247-10.911 0-.595.108-.918.327-1.294h-12.988c1.425 0 2.467.746 3.207 1.986.728 1.247 1.361 2.676 1.937 3.953 2.541 5.781 3.299 7.78 5.354 12.91l1.948 5.187.055 1.43c0 8.589 0 9.886-1.084 12.748h10.931c-.757-1.676-1.082-2.484-1.246-6.915-.033-1.04-.053-7.263-.053-7.263l2.165-5.671c1.894-4.429 3.568-8.482 5.732-12.91 1.463-2.971 2.056-3.944 3.139-5.455M72.934 44.151h-10.89c1.53 2.307 2.02 2.865 3.03 3.993h-6.88c-3.67-.219-5.49-2.156-6.85-4.293-2.5-4.184-8.429-13.948-10.369-17.433v19.66h-9.68c1.08-2.856 1.08-4.154 1.08-12.741-.07-5.042-.11-15.166-.11-15.166 0-3.765-.54-7.199-2.05-8.996v3.484c-.59-.699-1.14-1.078-2.76-1.397-.909-.176-2.337-.229-3.818-.229-2.22 0-4.556.119-5.432.119h-.54v11.542h8.45c2.48 0 3.46-.479 4.05-.919l-.02.16c-.49 3.954-2.37 6.131-6.34 6.421l-.235.001c-.905 0-2.498-.03-3.952-.03-.718 0-1.402.008-1.953.029 0 0 .04 11.681.07 12.739.16 4.433.49 5.242 1.25 6.919H8.335c1.08-2.865 1.08-6.09 1.08-14.677l.01-1.348c-.13-4.872-1.28-8.977-4.39-9.275v-.021h4.4l-.1-11.652c-.11-3.883-.49-4.642-1.41-6.05h22.29v2.896h16.68c2.05 0 5.46.109 8.28 2.217 2.65 1.997 3.89 5.242 3.89 8.536 0 7.509-4.65 9.935-6.33 10.804 1.98 3.265 5.45 8.746 7.69 12.221.64.998 1.16 1.798 1.6 2.457 1.07-2.847 1.07-4.165 1.07-12.721-.11-7.828-.11-14.458-.11-14.458 0-3.784-.49-4.922-1.08-6.16h10.98c-.6 1.349-1.03 2.376-1.13 6.37-.17 2.976-.17 16.844-.06 20.079.159 4.433.489 5.242 1.239 6.919M49.814 19.34c0-3.346-1.3-6.101-5.839-6.101-.98 0-1.9.11-2.98.27v12.53h2.17c2.109 0 6.649-.219 6.649-6.699M189.62 45.938h4.066c-.482-1.406-.648-2.215-.704-5.563-.052-4.268-.052-5.293 0-9.183l.11-7.239c.111-5.724.269-11.43.649-13.699.217-1.136.433-1.676.702-2.431h-9.468c.541 1.134.865 1.781 1.027 5.617.162 4.376.162 7.488.218 12.135v7.132l-3.733-8.374c-4.112-9.562-5.14-11.595-6.979-16.51H160.65c3.252 0 4.519 3.903 4.734 8.691l.034 1.588c.029 1.797-.025 11.739-.025 11.739-.055 6.753-.271 11.29-.433 12.803-.162 1.675-.378 2.323-.703 3.351h8.062V19.436l9.204 20.063c1.6 2.81 3.201 6.13 8.097 6.439M300 12.772c-.054-.974 0-7.78 0-7.78h-28.387v2.894h-9.912c.594 1.243 1.081 2.379 1.081 6.16 0 0 0 5.423.036 11.359-.626.169-1.477.284-2.69.284l-7.913.002c.011-5.127.05-10.029.128-11.432.106-3.995.539-5.022 1.134-6.374h-14.664c3.607 0 4.769 4.801 4.769 10.281 0 0-.023 3.577-.028 7.526l-18.292.006c3.604 0 4.767 4.8 4.767 10.283v4.695c-.649.109-1.426.162-1.967.162-6.925 0-9.143-6.805-9.143-14.204 0-5.512 1.244-13.505 10.115-13.505 4.38 0 6.233 1.663 7.046 2.565l1.891-6.638c-1.518-.609-4.138-1.546-8.774-1.546-14.825 0-19.099 8.75-19.099 19.554 0 3.296.271 12.101 6.98 16.747 3.678 2.537 7.79 2.753 10.388 2.753 2.218 0 4.274-.216 6.167-.376 3.246-.381 3.625-.435 5.141-.487-.651-2.104-.651-3.822-.651-10.563.028-1.481.092-3.794.092-3.794l5.351.003c.005.719.009 1.389.018 1.985 0 8.586.102 9.884-.978 12.747h10.931c-.761-1.677-1.085-2.484-1.244-6.914-.041-1.142-.064-4.203-.072-7.816 2.982 0 5.33-.001 5.599-.005 2.372-.171 3.997-1.022 5.027-2.521.012 1.563.029 3.095.049 4.509 0 8.586 0 9.884-1.085 12.747h10.929c-.756-1.677-1.08-2.484-1.244-6.914-.111-3.241-.111-21.935.056-24.907.015-.563.037-1.063.064-1.517v.029c1.192-1.295 2.162-1.459 5.843-1.459h4.265s.058 28.321-.105 31.236c-.162 3.676-.542 4.379-1.082 5.458h10.818c-.539-1.079-.92-1.782-1.08-5.458-.163-2.915-.108-31.236-.108-31.236h3.995c3.673.002 4.65.167 5.838 1.461M125.341 45.101c.096-1.67-.106-2.758-.823-6.673a9 9 0 0 1-.685.076c-.631.006-4.968.006-9.02.006-1.198 4.763-1.15 6.049-1.053 7.501h-9.36c.976-1.943 1.244-2.536 2.165-5.454.273-.857.524-1.655.76-2.419l-1.923-4.967c-2.053 10.907-9.223 12.908-16.891 12.908H76.988l.037-27.912c0-5.48-1.163-10.281-4.769-10.281h17.987c2.543 0 6.221.163 9.144 1.944 4.058 2.431 6.601 7.349 6.601 16.315 0 2.37-.166 4.453-.466 6.305h3.465l.717-2.535 1.869-6.906c2.814-10.424 3.245-12.819 3.68-15.195h11.092c.703 3.833.812 4.231 3.245 14.928l1.811 7.664c2.489 10.427 3.085 12.209 4.489 15.613h-10.658Zm-28.226-17.93c0-9.129-1.461-13.774-8.491-13.774q-1.466 0-3.086.162c0 2.701-.056 4.971-.056 9.021v14.585c0 3.188 1.136 3.351 3.142 3.351 6.543 0 8.491-4.107 8.491-13.345m26.264 5.279-3.364-17.543-3.86 17.543z" style="fill:#ffe980" transform="translate(-.002)"/><path d="m288.312 74.189-.187-.003a4.958 4.958 0 0 0-1.546.243l-.353.106c-5.716 1.709-7.642 2.285-15.946 2.911-.877.065-1.72.1-2.506.1-2.554 0-5.936-.357-7.54-2.063-1.162-1.232-1.583-3.336-1.368-6.82.242-3.898 3.405-7.31 4.571-7.429 2.188.148 2.856.466 3.056.642.12.105.74.783 1.16 3.737a5 5 0 0 0 3.658 4.123l2.22.593a5.01 5.01 0 0 0 3.917-.573 5 5 0 0 0 2.271-3.237c.483-2.33 2.556-6.498 3.424-7.48l.028-.026c2.266-2.125 1.646-4.35.706-7.719-.38-1.367-.775-2.723-.775-2.723-.492-1.697-1.758-3.093-3.472-3.531a5.3 5.3 0 0 0-1.32-.17 4.7 4.7 0 0 0-3.333 1.356c-.292.223-1.872 1.324-4.432 1.324q-.263 0-.538-.016c-1.734-.104-2.755-.367-4.049-.703-1.939-.502-4.137-1.071-8.216-1.075a21.8 21.8 0 0 0-16.983 8.053 5 5 0 0 0-.142-2.896l-.759-2.118a5.004 5.004 0 0 0-5.899-3.167c-3.327.815-8.833 1.342-14.026 1.342-2.547 0-4.167-.137-4.833-.264a5.002 5.002 0 0 0-5.391 2.628l-1.037 2.023-.095.196c-.284-1.004-.522-1.824-.522-1.824-.494-1.699-1.76-3.097-3.476-3.534a5.3 5.3 0 0 0-1.316-.167 4.7 4.7 0 0 0-3.335 1.36c-.29.219-1.815 1.274-4.293 1.274q-.255 0-.52-.015c-1.808-.104-3.765-.497-5.837-.911-2.965-.594-6.327-1.267-10.202-1.313l-.315-.002c-9.459 0-20.665 5.718-21.114 21.832q-.04 1.47.102 2.925c-1.843-4.808-3.356-10.211-4.678-16.564a5 5 0 0 0-1.78-2.89l-3.869-3.078a5 5 0 0 0-5.13-.665c-.584.257-2.41.854-6.747.854-6.885 0-14.457-1.442-15.612-1.814a5.007 5.007 0 0 0-5.388 1.566l-2.405 2.9a4.99 4.99 0 0 0-.975 4.489 5 5 0 0 0 3.11 3.384c1.522.556 3.108 1.145 4.682 1.741-1.199.802-2.142 1.962-2.62 3.336-.68 1.973-2.14 5.67-4.336 8.438-1.212 1.526-2.11 3.02-2.752 4.464-2.752-6.197-5.71-12.219-7.097-14.617-3.12-5.361-4.494-11.429-3.274-14.439.287-.739 1.38-4.23-2.583-6.485a52 52 0 0 0-1.089-.594c-.736-.392-1.477-.771-1.477-.771a5 5 0 0 0-4.309-.127c-.409.18-2.037.768-5.847.768-4.36 0-8.127-.733-8.892-1.026a4.997 4.997 0 0 0-6.089 1.919l-2.117 3.279a4.988 4.988 0 0 0 2.021 7.197c1.998.968 4.131 2.095 5.322 2.798-1.93 3.358-3.216 4.586-3.702 5.04-1.112 1.017-1.854 2.26-2.169 3.603-1.114.141-2.51.597-3.897 1.797l-.004.003c-.855-1.359-1.713-2.86-2.594-4.403-1.235-2.16-2.512-4.396-3.982-6.619a232 232 0 0 0-2.14-3.185c-1.33-1.952-2.836-4.162-2.985-4.932a4.995 4.995 0 0 0-4.856-4.739l-21.06-.578-.138-.002a5 5 0 0 0-3.932 1.909s-.719.915-1.433 1.836c-1.848 2.384-3.307 4.267-1.93 7.095a5 5 0 0 0 3.897 2.774c.812.117 2.061.376 3.094.649-.609 2.295-1.996 5.998-2.62 7.596-.498.927-1.37 2.84-.893 5.024-1.042.728-1.869 1.793-2.37 3.115l-.096.237c-.398.983-1.063 2.624-2.435 5.942-.495 1.179-1.11 2.967-1.89 5.229-1.88 5.462-5.03 14.604-7.855 18.181-1.61 2.043-4.534 4.139-5.524 4.773a4.994 4.994 0 0 0-1.708 6.57l1.453 2.696a5.002 5.002 0 0 0 7.82 1.28c1.436-1.343 7-3.85 13.938-3.85 1.417 0 2.826.106 4.187.316q.383.059.765.059a5 5 0 0 0 3.254-1.202 4.99 4.99 0 0 0 1.746-3.79v-2.22c0-2.423-1.092-4.347-3.432-4.767a6.7 6.7 0 0 1-1.017-.774c-1.249-1.116 1.467-7.863 2.36-10.08.462-1.149.9-2.236 1.264-3.266 1.094-3.07 2.375-5.881 3.063-7.39l.173-.382q.063-.138.117-.279c.587-1.535.753-2.977.524-4.267.936-.597 1.864-1.554 2.558-3.075 2.871 3.415 7.614 10.727 11.352 23.175 3.875 12.908 3.411 17.274 3.306 17.914a4.99 4.99 0 0 0 2.285 5.98l3.806 2.128a5 5 0 0 0 6.967-2.228c1.02-1.966 6.776-8.019 9.698-8.548a4.996 4.996 0 0 0 4.012-5.872c-.89-4.531-2.767-9.453-4.138-13.047-.527-1.382-.983-2.577-1.204-3.288-1.627-5.267.57-8.469 1.026-9.058.854-1.101 1.372-2.182 1.625-3.214.375-.053.73-.137 1.064-.242l.54 1.098c2.674 5.437 8.237 16.749 9.51 21.512.207.771.194.79-.13 1.286-.964 1.466-3.59 3.775-6.286 6.054a4.99 4.99 0 0 0-.434 7.206l2.61 2.808a5 5 0 0 0 3.666 1.596 4.98 4.98 0 0 0 3.112-1.086c2.307-1.833 7.077-2.928 12.76-2.928 5.004 0 10.415.856 15.234 2.412a5 5 0 0 0 6.14-2.799l1.064-2.501a4.99 4.99 0 0 0-.709-5.085c-1.536-1.902-3.68-3.281-5.754-4.614-1.449-.933-2.948-1.896-3.688-2.722-.732-.816-.936-1.16-1.313-2.633q.224.01.456.011c.9 0 1.894-.096 3.044-.205 1.372-.131 2.927-.28 4.506-.28 1.104 0 2.063.072 2.933.219q.42.071.837.07a5 5 0 0 0 4.648-3.161l.357-.908c.805-2.047 1.801-4.582 2.39-5.183l.167-.068a7 7 0 0 0 1.978-1.249l-.006.18a4.99 4.99 0 0 0 .19 6.225l2.13 2.506a5 5 0 0 0 3.62 1.757l.191.004a5 5 0 0 0 3.554-1.479c.175-.143 1.205-.599 3.32-.599 2.426 0 5.325.602 7.952 1.649a5.003 5.003 0 0 0 5.823-1.597c.95-1.235 2.141-2.787 2.197-4.613 3.78 3.743 8.543 6.251 13.56 6.641.37.03.761.046 1.15.046 2.23 0 4.178-.512 6.062-1.007 1.834-.481 3.73-.98 6.344-1.181.42.014 1.418.559 1.744.966a5 5 0 0 0 3.272 2.834l2.842.774q.654.175 1.315.175a5 5 0 0 0 3.093-1.069 4.99 4.99 0 0 0 1.906-4.068 31 31 0 0 0-.134-1.862c-.615-6.77.428-8.137 3.674-8.594a5 5 0 0 0 3.628-2.44c-.808 4.109-2.12 7.066-3.38 8.207a4.99 4.99 0 0 0-1.207 5.744l1.04 2.314a5 5 0 0 0 4.563 2.949 5 5 0 0 0 4.255-2.372c.684-1.108 5.005-3.228 9.73-3.228 1.995 0 3.085.396 3.557.633a5 5 0 0 0 2.241.53 5 5 0 0 0 3.8-1.746l1.323-1.543a4.987 4.987 0 0 0-.63-7.109c-5.245-4.287-5.074-6.203-4.699-10.4.11-1.229.234-2.621.234-4.158 0-6.447.382-10.854 2.245-11.396a5 5 0 0 0 1.46-.697c-1.825 3.147-2.913 6.804-3.026 10.735-.358 12.947 8.15 26.722 23.007 27.371.325.015.672.022 1.031.022 7.784 0 21.278-3.744 27.525-6.429a5 5 0 0 0 2.304-2.006l2.724-4.504a4.99 4.99 0 0 0-4.018-7.691"/><path d="m288.983 79.694-2.798 4.627a1 1 0 0 1-.46.401c-3.052 1.31-7.74 2.819-12.569 4.019-4.833 1.197-9.768 2.08-13.375 2.084q-.441 0-.857-.019h.001c-6.111-.261-10.968-3.282-14.217-7.53-3.257-4.25-4.973-9.716-4.976-15.054q0-.34.01-.681v-.001c.151-5.367 2.357-9.843 5.672-12.942a18.03 18.03 0 0 1 12.302-4.849h.024c3.162-.001 5.04.391 6.664.806 1.628.413 2.951.819 5.371.966q.395.023.772.022c2.207 0 3.951-.561 5.165-1.135 1.207-.57 1.88-1.155 1.918-1.189.255-.23.613-.314.945-.221a1 1 0 0 1 .688.683c.001.004.719 2.477 1.15 4.099.145.548.255.979.309 1.266.014.088.029.14.033.305l-.008.133c-.009.06-.018.138-.073.272-.038.089-.1.211-.238.345l-.021.018c-.256.222-.696.776-1.147 1.494a27 27 0 0 0-1.409 2.563c-.928 1.896-1.751 4.053-2.055 5.534a1 1 0 0 1-1.237.761l-2.22-.593a1 1 0 0 1-.732-.824c-.353-2.505-.921-4.171-1.664-5.25-.747-1.075-1.642-1.656-2.997-2.057-.9-.261-1.997-.411-3.295-.497l-.236-.008c-.872-.001-1.825.313-2.783.924-.956.607-1.901 1.502-2.734 2.579-1.671 2.153-2.871 5.034-3.029 7.673-.038.61-.063 1.241-.063 1.881-.002 2.028.26 4.127 1.129 5.907.876 1.78 2.307 3.285 4.905 4.276 1.733.655 3.997 1.058 6.93 1.058q1.312 0 2.807-.111c4.519-.34 7.273-.68 9.664-1.16 2.389-.479 4.453-1.107 7.595-2.047a1 1 0 0 1 1.077.346 1 1 0 0 1 .062 1.126M31.954 73.565a4.8 4.8 0 0 0-.942-.509v-.001l-3.464-1.588v.001c-.497-.266-1.006-.45-1.571-.455a2.1 2.1 0 0 0-1.347.473c-.373.306-.619.717-.787 1.168l-.003-.001c-.386.953-1.039 2.571-2.569 6.271l.002-.004c-.452 1.078-1.035 2.77-1.743 4.823-1.06 3.077-2.39 6.947-3.867 10.565-1.472 3.614-3.116 6.986-4.693 8.975v.001c-1.17 1.487-2.811 2.926-4.15 3.969-.669.522-1.264.949-1.689 1.244-.212.147-.382.262-.498.337l-.131.086-.041.027a.994.994 0 0 0-.343 1.314l1.453 2.696a1 1 0 0 0 1.564.256c1.066-1.006 3.315-2.285 6.238-3.252a33.4 33.4 0 0 1 10.434-1.675c1.563 0 3.172.112 4.799.364a1 1 0 0 0 .804-.229 1 1 0 0 0 .349-.758v-2.22c0-.443-.295-.836-.722-.96-.118-.042-1.037-.384-2.407-1.617l-.003-.003a4.4 4.4 0 0 1-1.213-1.783c-.254-.681-.375-1.464-.374-2.33-.005-2.01.662-4.441 1.526-6.827.861-2.391 1.902-4.733 2.598-6.696l-.001.002c1.257-3.526 2.751-6.736 3.366-8.091l.023-.057c.228-.6.36-1.12.362-1.642 0-.307-.052-.614-.168-.896a2.3 2.3 0 0 0-.792-.978m117.201-18.138a1 1 0 0 0-.356-.578l-3.869-3.079a1 1 0 0 0-1.026-.132c-1.883.838-4.996 1.199-8.359 1.192-3.503 0-7.297-.362-10.429-.798a79 79 0 0 1-4.082-.67c-1.111-.216-1.956-.418-2.33-.54a1 1 0 0 0-1.078.313l-2.405 2.9a.996.996 0 0 0 .427 1.574c.003.001 1.07.391 2.713 1.004 2.464.92 6.213 2.343 9.544 3.691 1.665.675 3.226 1.332 4.461 1.895.617.28 1.153.538 1.573.759.303.157.548.301.705.403.156.269.354.658.574 1.14.939 2.048 2.264 5.648 3.38 9.247a85 85 0 0 1 1.455 5.219c.388 1.611.653 3.042.729 4.048v-.003q.026.366.026.681c-.001 1.099-.22 1.729-.393 2.068a1.5 1.5 0 0 1-.206.317l-.033.034.005.006a1 1 0 0 0-.371.653 1 1 0 0 0 .231.764l2.131 2.506c.18.212.446.341.724.352s.553-.098.749-.296c.541-.547 1.36-1.003 2.417-1.312 1.055-.31 2.335-.471 3.744-.471 2.869-.002 6.263.666 9.438 1.936a1 1 0 0 0 1.19-.354l1.142-1.629a.995.995 0 0 0 .006-1.135c-6.582-9.628-9.97-19.896-12.427-31.705M71.634 88.563c-.556-1.802-.769-3.433-.769-4.881-.002-4.408 1.983-7.198 2.454-7.806.265-.341.499-.686.68-1.063.18-.377.308-.799.308-1.257a2.5 2.5 0 0 0-.241-1.058 3.3 3.3 0 0 0-.626-.873l.002-.002-2.39-2.665a3.1 3.1 0 0 0-.568-.543 2.84 2.84 0 0 0-1.703-.592c-.698-.006-1.461.3-2.15.914l-.001-.002c-.697.536-1.687 1.3-3.197 2.912-1.451-1.677-2.8-3.81-4.168-6.156-1.593-2.729-3.218-5.736-5.132-8.633l.001.002c-1.748-2.658-3.211-4.689-4.219-6.32-.504-.813-.893-1.525-1.152-2.15-.261-.626-.391-1.158-.412-1.64a1 1 0 0 0-.972-.955l-21.06-.578a1 1 0 0 0-.823.393l-2.798 3.665a1 1 0 0 0-.101 1.049c.154.311.461.51.802.542l.001.008v.001c.193.025 1.428.224 2.777.544.677.16 1.389.351 2.02.563.628.21 1.182.449 1.501.655.286.185.414.337.501.5.085.165.141.383.142.736.004.537-.153 1.352-.43 2.416v.002c-.684 2.694-2.437 7.287-2.921 8.509-.393.718-.646 1.318-.656 1.995a2.05 2.05 0 0 0 .192.878c.194.41.499.701.804.922.31.222.64.393.999.568l.011.005 3.462 1.631.033.015c.566.24 1.081.397 1.633.401a2.17 2.17 0 0 0 1.541-.614c.388-.379.622-.829.826-1.333.202-.475.477-1.134.794-1.769.312-.633.684-1.242.978-1.549l.001-.001c.244-.266.437-.476.575-.577.146-.104.179-.111.285-.117.1-.001.325.035.715.256l.007.004c.146.078.449.287.831.615 1.353 1.149 3.75 3.746 6.411 8.13 2.665 4.386 5.611 10.569 8.123 18.934 2.939 9.786 3.542 15.169 3.541 17.886 0 .998-.081 1.636-.151 2a3 3 0 0 1-.086.354l-.016.044.005.002a.994.994 0 0 0 .42 1.272l3.806 2.128a1 1 0 0 0 .794.079 1 1 0 0 0 .6-.525c.205-.444.823-1.375 1.68-2.431 1.289-1.595 3.139-3.552 5.121-5.169 1.976-1.622 4.109-2.881 5.801-3.176a.995.995 0 0 0 .802-1.175c-.598-3.037-1.694-6.312-2.748-9.194-1.054-2.874-2.073-5.379-2.49-6.726m46.769 14.667c-1.765-1.13-3.515-2.269-4.578-3.464-.923-1.034-1.366-1.782-1.727-2.729-.359-.945-.617-2.135-1.038-3.886v-.001c-.386-1.586-1.169-3.809-2.177-6.375-1.51-3.845-3.525-8.433-5.428-12.521-1.905-4.093-3.687-7.667-4.767-9.536l-.001-.002c-2.537-4.347-4.258-9.493-4.25-13.696 0-1.578.238-3.017.733-4.235a.997.997 0 0 0-.445-1.249l-2.8-1.54a1.01 1.01 0 0 0-.887-.039c-1.738.778-4.573 1.116-7.464 1.109-2.217 0-4.478-.184-6.363-.445a33 33 0 0 1-2.487-.436c-.695-.152-1.247-.315-1.548-.44a1 1 0 0 0-1.22.384l-2.117 3.278a1 1 0 0 0 .404 1.44c0 .001.368.179.943.466.864.431 2.191 1.105 3.408 1.773.608.333 1.188.665 1.663.96.471.29.848.56.987.69.4.367.716.748.918 1.1.204.354.29.665.29.938a1.3 1.3 0 0 1-.162.626v-.001c-1.37 2.609-2.533 4.373-3.451 5.575-.92 1.205-1.583 1.841-2.013 2.243l.001.001a3.4 3.4 0 0 0-.792 1.028 2.55 2.55 0 0 0-.258 1.111c.003.7.278 1.236.517 1.593.227.335.435.525.498.583l.385.415c.732.789 2.042 2.21 2.044 2.213l.025.025c.275.277.551.513.878.695.323.183.712.297 1.1.295.383 0 .738-.101 1.059-.241.298-.132.582-.301.879-.496.29-.15.719-.312 1.108-.308.273.004.521.059.809.252.285.193.627.556.963 1.25v.001c1.157 2.392 3.52 7.1 5.798 11.976 2.276 4.862 4.469 9.926 5.242 12.836l.001.003c.179.664.269 1.236.268 1.759a4.2 4.2 0 0 1-.354 1.708c-.372.881-1.105 1.901-2.345 3.184-1.237 1.282-2.964 2.82-5.265 4.764a1 1 0 0 0-.352.703 1 1 0 0 0 .265.739l2.609 2.807c.355.382.947.426 1.355.102 1.521-1.211 3.701-2.177 6.322-2.82 2.62-.646 5.673-.977 8.929-.977 5.276-.001 11.082.868 16.465 2.605a.997.997 0 0 0 1.228-.56l1.064-2.501a1 1 0 0 0-.142-1.018c-1.181-1.449-2.962-2.57-4.727-3.714m90.658-30.161a1 1 0 0 0-.526-.432c-.556-.191-1.221-.276-2.07-.347a39 39 0 0 0-2.936-.095c-2.45.001-5.37.146-7.929.386a53 53 0 0 0-3.468.427c-1.006.166-1.801.336-2.405.574a1 1 0 0 0-.563.576l-.815 2.177a.998.998 0 0 0 1.088 1.336 7 7 0 0 1 1.024-.078c1.208-.002 2.293.337 3.015.804.361.232.628.491.789.73.163.24.221.445.222.627a.97.97 0 0 1-.167.522c-.19.309-.625.719-1.427 1.107-.798.39-1.947.754-3.488 1.02a17 17 0 0 1-2.872.264c-2.081-.002-3.674-.466-4.937-1.215-1.887-1.12-3.092-2.934-3.84-5.049-.745-2.107-1.002-4.482-1.001-6.536 0-.528.017-1.034.045-1.509v.002c.148-2.453 1.212-5.074 2.902-7.025 1.696-1.958 3.954-3.234 6.566-3.235q.595-.001 1.221.092c2.581.377 4.703.838 6.191 1.879.75.521 1.367 1.179 1.876 2.109.507.93.899 2.143 1.124 3.744.056.396.346.725.734.827l2.183.577c.265.069.549.028.782-.116a1 1 0 0 0 .453-.648c.294-1.447 1.101-3.561 2.009-5.42.454-.932.933-1.807 1.379-2.513.441-.702.871-1.247 1.119-1.462l.008-.007c.143-.133.206-.257.246-.347.057-.136.066-.216.075-.277l.008-.137c-.003-.162-.019-.216-.032-.302a20 20 0 0 0-.303-1.247 228 228 0 0 0-1.127-4.012 1 1 0 0 0-.689-.684 1 1 0 0 0-.942.222c-.03.027-.69.604-1.878 1.165-1.189.562-2.899 1.111-5.069 1.111q-.368 0-.752-.021c-2.352-.137-4.743-.658-7.335-1.171-2.591-.512-5.383-1.009-8.519-1.047l-.267-.002c-4.02 0-8.211 1.123-11.466 3.981-3.26 2.857-5.475 7.424-5.649 13.968v-.001q-.007.266-.007.53c.004 5.309 2.214 10.469 5.539 14.419 3.328 3.944 7.795 6.722 12.472 7.095h-.002q.427.033.841.033c1.851-.003 3.488-.472 5.336-.952 1.852-.485 3.938-1.007 6.766-1.225h-.002q.13-.01.266-.01c.99-.006 2.243.412 3.289 1.072 1.053.649 1.881 1.551 2.156 2.271.116.291.363.512.666.595l2.842.774a1 1 0 0 0 1.263-.993c-.019-.623-.101-1.38-.176-2.251a33 33 0 0 1-.145-2.856c-.003-2.059.299-4.239 1.325-5.933a6.5 6.5 0 0 1 2.154-2.194c.956-.601 2.194-1.063 3.821-1.293a.998.998 0 0 0 .721-1.497zm22.725 7.498c-.885-1.711-1.123-3.24-1.126-4.9-.005-2.031.4-4.246.404-6.884-.004-4.225.147-7.827.897-10.428.372-1.302.884-2.342 1.558-3.125.678-.783 1.513-1.337 2.671-1.677a.997.997 0 0 0 .662-1.295l-.759-2.118a1 1 0 0 0-1.18-.634c-4.06.998-10.272 1.46-14.979 1.456-2.445.003-4.518-.127-5.585-.335a1 1 0 0 0-1.078.525l-1.037 2.023a.996.996 0 0 0 .562 1.398c1.417.492 2.492 1.176 3.336 1.987 1.262 1.216 2.019 2.743 2.466 4.406.446 1.659.569 3.438.568 5.065.001 1.728-.136 3.26-.138 4.383 0 4.362-.536 8.573-1.505 12.056-.961 3.486-2.387 6.23-3.982 7.656a1 1 0 0 0-.241 1.148l1.04 2.315a1 1 0 0 0 1.764.115c.395-.643 1.067-1.313 1.955-1.931 2.661-1.874 7.2-3.206 11.179-3.194 2.048-.003 3.941.346 5.352 1.057.41.206.91.105 1.208-.243l1.323-1.543a1 1 0 0 0-.126-1.422c-2.748-2.242-4.321-4.151-5.209-5.861m-96.863-2.479c-.145-.865-.231-1.398-.393-1.935-.163-.538-.389-.998-.735-1.636l-.003.002a2.54 2.54 0 0 0-1.34-1.212 3.4 3.4 0 0 0-1.256-.22c-.18 0-.337.011-.338.01l-.057.003c-1.414.106-2.64.359-3.841.852-.338.138-.674.299-1.011.473q.235-.461.482-.939c.684-1.338 1.401-2.788 1.721-4.445.099-.323.159-.646.159-.96a2.7 2.7 0 0 0-.373-1.387 2.9 2.9 0 0 0-.743-.814l-.104-.095-.123-.087a19 19 0 0 0-.583-.351c-.397-.23-.927-.526-1.445-.788a12 12 0 0 0-.757-.354 4 4 0 0 0-.725-.242 2.997 2.997 0 0 0-2.344.499c-.463.336-.812.765-.999 1.287l-.001.003c-.695 2.028-2.364 6.318-4.977 9.603-1.924 2.422-3.202 5.124-3.203 8.086-.002 2.033.61 4.146 1.929 6.281l.071.101c.322.385.695.501 1.01.576.325.07.647.088 1.004.089.89-.002 2.001-.128 3.295-.247 1.29-.121 2.749-.239 4.255-.239 1.192 0 2.414.074 3.6.275a1 1 0 0 0 1.097-.618c.985-2.499 1.735-4.477 2.508-5.86.385-.692.772-1.231 1.176-1.632a3.54 3.54 0 0 1 1.332-.855l.054-.021c.44-.186.881-.471 1.212-.912.333-.44.511-1.019.506-1.617q0-.331-.063-.68z" style="fill:#ffe980" transform="translate(-.002)"/></svg>