<svg xmlns="http://www.w3.org/2000/svg" width="1285.344" height="540.719"><path d="M58.781 0S0 124.642 0 270.719s58.781 270 58.781 270h1165.844s60.719-123.923 60.719-270S1224.625 0 1224.625 0Zm821.5 52.994c47.94 0 104.985 27.917 104.97 76.262-.013 48.345-3.247 53.397-121.448 180.496h89.804l19.998-45.838s9.843-2.6 11.647 0v102.969H781.023l-3.986-8.666c97.608-110.875 134.828-189.614 134.828-220.219s-7.491-50.037-33.549-50.037c-26.057 0-33.45 29.588-33.45 39.771s.399 16.244 5.646 24.13l-10.06 11.624-54.143-70.172c23.14-19.824 51.797-40.32 93.972-40.32m239.492 0c65.584 0 118.75 57.462 118.75 159.318s-53.166 159.32-118.75 159.32c-65.583 0-118.75-57.463-118.75-159.32 0-101.856 53.167-159.318 118.75-159.318M199.188 57.5h165.187c5.034 0 9.51 2.457 11.313 6.906.005.013.026.019.03.031l69.938 174.594c2.898 7.233 5.106 7.304 8.219.25l.125-.25 48.906-112.812c.531-1.225 1.056-2.433 1.563-3.656 6.371-15.383 9.157-31.12-33.75-58.438.061-.004.126.004.187 0-3.815-2.822-7.14-6.625 4.156-6.625h190.813c7.418 0 7.919 2.83.688 7.344.007.012.024.02.03.031l-2.218 1.375c-25.954 16.203-28.942 34.195-13.688 71.937L751.531 387.72c.086.211.164.415.25.625 9.746 23.86 22.01 39.543 50.5 70.531.783.852 1.489 1.601 2.125 2.313 4.457 4.98 4.995 6.647-2.812 6.656H594.219c-7.014-.207-9.79-2.093 1.062-9.281 31.43-23.677 28.598-46.923 12.125-87.97l-.125-.28-58.468-145.438-.782-1.906c-3.9-8.756-6.922-8.281-11.25 1.375-.082.183-.166.34-.25.531l-114.218 261.28c-.152.1-.213.211-.157.313-5.947 13.603-7.796 13.789-13.156.625-.088-.216-.16-.402-.25-.625.083-.13.012-.278-.156-.406L303.438 224.875l-.313-.719c-4.185-10.03-7.294-9.884-11.875.469-.04.089-.085.16-.125.25l-63.031 144.031c-.042.096-.084.186-.125.281-13.732 31.728.67 56.28 46.125 90.844-.022.03-.042.065-.063.094 5.733 4.116 7.984 7.719-2.469 7.719H88.375c-6.738 0-7.146-.957-1.406-6.969 26.142-27.41 46.205-50.618 59-79.5l99.219-224.031c-.008-.004-.024.004-.032 0 1.125-2.54 2.228-4.964 3.25-7.313 15.33-35.224 17.53-50.023-38.906-78.968l-10.969-5.626-.125-.062c-6.965-3.62-7.784-7.875.782-7.875m920.585 30.46c-33.874 0-42.51 33.457-42.51 124.353s8.636 124.353 42.51 124.353c33.875 0 42.51-33.458 42.51-124.353 0-90.896-8.635-124.352-42.51-124.352"/></svg>