<svg xmlns="http://www.w3.org/2000/svg" xmlns:xlink="http://www.w3.org/1999/xlink" width="600" height="517.925"><radialGradient id="a" cx="0" cy="0" r="1" fx="0" fy="0" gradientTransform="matrix(19.1728 0 0 -19.1728 134.704 259.303)" gradientUnits="userSpaceOnUse" spreadMethod="pad"><stop offset="0" style="stop-color:#bf99c3"/><stop offset=".7" style="stop-color:#7b5190"/><stop offset="1" style="stop-color:#612c75"/></radialGradient><radialGradient xlink:href="#a" id="b" cx="0" cy="0" r="1" fx="0" fy="0" gradientTransform="translate(299.988 258.94)scale(245.187)" gradientUnits="userSpaceOnUse" spreadMethod="pad"/><path fill="#fff" d="m260.216 129.84 43.454 110.336 45.514-110.337Zm314.207 388.085H25.577V386.602h157.308L73.379 129.93H0V0h600v129.929h-75.233L417.37 387.945h157.052z"/><path d="m303.07 313.709 87.228-211.352H219.856ZM53.058 414.071h171.44L91.512 102.46H27.482V27.43h545.049v75.03h-66.09L376.205 415.427h170.75v74.978H53.058Z" style="fill:#612c75"/><path d="M35.117 35.116v59.645h61.498l1.944 4.655 132.985 311.663 4.54 10.69H60.693v60.937h478.563v-59.594H364.67l4.438-10.64L499.395 99.468l1.944-4.706h63.493V35.116ZM295.882 316.51l-83.175-211.351-4.092-10.487h193.167l-4.4 10.64-87.266 211.352-7.239 17.635z" style="fill:url(#b)"/></svg>