<svg xmlns="http://www.w3.org/2000/svg" width="600" height="263.168"><path d="M14.734 263.168S-.778 258.423.031 238.246c.793-20.031 16.538-31.062 16.538-31.062s-13.82-12.143-13.82-38.682c0-8.368 1.203-16.887 4.436-24.655 1.218-2.91 2.673-5.537 4.568-8.034.88-1.188 1.804-2.613 1.583-4.143-.249-1.643-1.895-2.684-2.861-3.92-1.5-1.85-2.572-3.994-3.497-6.212-2.865-6.872-3.568-14.346-3.451-21.734.116-6.992.485-14.2 2.304-20.985 1.03-3.82 2.643-7.625 4.745-10.956 5.316-8.504 14.083-14.011 23.745-16.3.267-.046 6.008-1.072 6.008-.734V39.227c9.944-7.756 18.783 0 18.783 0v14.346l2.763 3.335h85.086l3.865-4.993V31.471c0-2.481-2.102-2.744-2.102-2.744h-11.703s-1.117 18.797-14.922 18.797-17.125-16.053-17.125-23.219c0-7.18 4.421-20.985 16.569-20.985 12.158 0 14.553 13.245 14.553 13.245h22.835s5.71-.557 5.71 6.816v32.967h86.192s57.453 37.565 164.641 37.565C522.651 93.913 600 0 600 0s-6.989 45.483-39.415 74.954l12.895-.365c-30.196 32.953-50.096 26.697-50.096 26.697 6.64 6.624 16.215 5.154 16.215 5.154-22.835 19.52-56.716 19.151-56.716 19.151 5.872 3.688 16.2 5.906 16.2 5.906-25.482 11.44-42.825 14.038-53.78 13.7-32.603-1.011-47.878-14.452-47.878-14.452 4.421 10.313 12.515 17.317 12.515 17.317C277.342 134.787 219.332 90.33 219.332 90.33h-52.205l-3.042 3.027v26.64s-.263 2.101 1.94 2.101h29.753s5.331.173 5.331 5.696v24.144s9.384 25.422-5.522 25.422c-14.922 0-5.523-26.524-5.523-26.524v-15.58c0-2.394-2.042-2.1-2.042-2.1H155.98c-6.17 0-5.7-6.008-5.7-6.008V95.015l-3.32-3.861H65.19v16.58H56.91c-12.719 0-14.907-17.137-14.907-17.137h-5.55c.354.015-.413 8.59-.469 9.207-.44 4.978-.5 10.03-1.97 14.847-1.451 4.744-4.64 8.65-6.403 13.26-1.026 2.718.485 3.76 2.557 5.154 1.455 1 2.744 2.44 3.906 3.748 3.835 4.418 6.478 9.779 8.15 15.373 1.835 6.17 2.527 12.662 2.527 19.08 0 4.537-.191 9.192-.778 13.7-.662 4.936-1.587 10.075-3.936 14.511-2.158 4.038-5.508 7.06-8.9 10.03-3.45 3.023-6.507 6.621-9.665 9.971-19.222 20.4-6.737 43.69-6.737 43.69"/><path d="M151.382 65.205v18.768l8.282 4.978V60.213ZM121.543 10.485s-8.843 1.117-8.843 14.377c0 13.248 8.843 14.906 8.843 14.906s8.297-2.203 8.297-14.906c0-12.719-8.297-14.377-8.297-14.377M20.99 74.59s-8.827 4.962-8.827 20.985 3.304 27.065 8.282 27.065c4.962 0 7.165-19.328 7.165-28.167 0-8.842-1.086-19.884-6.62-19.884M22.663 141.438s-9.96 2.748-9.96 22.087c0 19.343 5.524 35.922 11.603 35.922 6.083 0 11.06-11.602 11.06-22.647 0-11.057-2.774-35.362-12.703-35.362M225.223 83.883c6.463 3.966 58.743 38.685 165.596 52.825 0 0-4.583-7.034-2.233-18.96 0 0 12.072 7.14 22.294 11.076 7.12 2.745 18.37 7.196 34.686 7.707 6.286.192 16.2-.955 29.9-5.33-4.448-2.775-13.482-13.452-13.482-13.452l20.985-.835c.794 0 18.918-.192 36.246-7.974l-.278-.575c-6.154-4.346-4.715-14.64-4.715-14.64 8.136.542 17.388-1.293 17.388-1.293 4.17-.868 10.4-3.068 18.181-8.504-6.184.207-12.395.383-12.395.383l17.358-15.775c12.027-10.94 20.177-24.346 25.79-36.55-19.196 17.241-48.11 38.975-84.093 53.807l-.616.252c-23.983 9.808-50.987 16.55-80.36 16.55-14.276 0-27.566-.704-40.077-1.82l-.94-.12c-74.236-6.843-116.9-30.133-126.031-35.641H199.86v8.372h11.38s6.816 6.095 13.982 10.497" style="fill:#d1d3d4"/></svg>