<?xml version="1.0" encoding="UTF-8" standalone="no"?>
<svg
   version="1.1"
   width="600"
   height="639.14185"
   id="svg6"
   xmlns:xlink="http://www.w3.org/1999/xlink"
   xmlns="http://www.w3.org/2000/svg"
   xmlns:svg="http://www.w3.org/2000/svg">
  <defs
     id="defs6" />
  <linearGradient
     x1="0"
     y1="0"
     x2="1"
     y2="0"
     id="linearGradient622"
     gradientUnits="userSpaceOnUse"
     gradientTransform="matrix(34.817383,0,0,-34.817383,215.58398,260.36328)"
     spreadMethod="pad">
    <stop
       style="stop-color:#bf331c"
       offset="0"
       id="stop1" />
    <stop
       style="stop-color:#d3641c"
       offset="0.39999399"
       id="stop2" />
    <stop
       style="stop-color:#f6b91d"
       offset="0.5"
       id="stop3" />
    <stop
       style="stop-color:#d3641c"
       offset="0.69999701"
       id="stop4" />
    <stop
       style="stop-color:#bf331c"
       offset="1"
       id="stop5" />
  </linearGradient>
  <linearGradient
     x1="0"
     y1="0"
     x2="1"
     y2="0"
     id="linearGradient2998"
     xlink:href="#linearGradient622"
     gradientUnits="userSpaceOnUse"
     gradientTransform="matrix(535.07581,0,0,535.07581,32.472414,300.06423)"
     spreadMethod="pad" />
  <path
     d="M 496.60366,80.535721 C 411.06501,2.6042604 326.35623,11.60995 326.35623,11.60995 c 0,0 18.25726,35.776851 64.36146,70.124481 7.13078,5.39419 59.42831,54.141689 59.42831,119.394499 0,69.94006 -54.32611,88.96573 -64.59198,88.96573 0,0 -25.03458,-15.36807 -25.03458,-55.83218 0,-28.98417 28.56923,-43.09206 28.56923,-43.09206 0,0 9.66652,-50.1921 -11.28016,-87.29061 C 358.41402,69.424611 330.73613,38.381121 322.45274,30.589511 314.16936,22.782531 300,8.6746504 300,8.6746504 c 0,0 -14.16936,14.1078806 -22.39127,21.9148606 -8.34486,7.79161 -35.96127,38.8351 -55.3404,73.290299 -20.96204,37.09851 -11.357,87.29061 -11.357,87.29061 0,0 28.64607,14.10789 28.64607,43.09206 0,40.46411 -25.09605,55.83218 -25.09605,55.83218 -10.2044,0 -64.53051,-19.02567 -64.53051,-88.96573 0,-65.25281 52.28216,-114.000309 59.42831,-119.394499 46.04272,-34.34763 64.34609,-70.124481 64.34609,-70.124481 0,0 -84.69341,-9.0056896 -170.24743,68.925771 C 40.479484,137.8586 6.1472259,211.8251 6.1472259,296.64145 c 0,164.4844 126.2486541,242.04702 149.1163341,255.07914 22.86768,13.1397 92.80775,50.4841 92.80775,50.4841 0,0 -56.96942,-86.98325 -61.10343,-107.88382 0,0 58.2296,-3.94959 88.42785,70.96973 L 300,623.39725 324.68111,565.2906 c 30.18288,-74.91932 88.36638,-70.96973 88.36638,-70.96973 -4.08791,20.90057 -61.1188,107.88382 -61.1188,107.88382 0,0 70.00154,-37.3444 92.86922,-50.4841 22.80621,-13.03212 149.05486,-90.59474 149.05486,-255.07914 0,-84.81635 -34.27078,-158.78285 -97.24911,-216.105729"
     style="stroke:#ffffff;stroke-width:12.2945"
     id="path5" />
  <path
     d="m 245.428,116.37405 c -13.67758,25.32657 -9.71262,59.42831 -9.71262,59.42831 v 0 c 0,0 30.18288,19.50207 30.18288,58.46012 v 0 c 0,54.572 -34.14784,81.89642 -52.63562,81.89642 v 0 c -18.48778,0 -89.68803,-21.49993 -89.68803,-115.02997 v 0 c 0,-93.59152 85.78454,-155.893659 85.78454,-155.893659 v 0 c 0,0 -176.855692,62.855389 -176.855692,251.406179 v 0 c 0,162.74781 137.405872,232.44198 137.405872,232.44198 v 0 c 0,0 -9.23621,-21.91486 -9.23621,-35.53096 v 0 c 0,-13.69295 11.64899,-26.35623 30.19825,-26.35623 v 0 c 18.48778,0 80.85139,14.64576 109.12863,88.71984 v 0 0 c 28.27724,-74.07408 90.65622,-88.71984 109.20547,-88.71984 v 0 c 18.48778,0 30.18288,12.66328 30.18288,26.35623 v 0 c 0,13.6161 -9.23621,35.53096 -9.23621,35.53096 v 0 c 0,0 137.40587,-69.69417 137.40587,-232.44198 v 0 c 0,-188.55079 -176.90179,-251.406179 -176.90179,-251.406179 v 0 c 0,0 85.78454,62.302139 85.78454,155.893659 v 0 c 0,93.53004 -71.13878,115.02997 -89.68803,115.02997 v 0 c -18.48778,0 -52.58952,-27.32442 -52.58952,-81.89642 v 0 c 0,-38.95805 30.19825,-58.46012 30.19825,-58.46012 v 0 c 0,0 3.90349,-34.10174 -9.78946,-59.42831 v 0 C 340.94053,90.970641 300.06147,44.205611 300.06147,44.205611 v 0 c 0,0 -41.002,46.76503 -54.63347,72.168439"
     style="fill:url(#linearGradient2998)"
     id="path6" />
</svg>
