<svg xmlns="http://www.w3.org/2000/svg" xmlns:xlink="http://www.w3.org/1999/xlink" width="600" height="452.999"><linearGradient id="a" x1="0" x2="1" y1="0" y2="0" gradientTransform="matrix(49.70117 0 0 -49.70117 75.593 434.346)" gradientUnits="userSpaceOnUse" spreadMethod="pad"><stop offset="0" style="stop-color:#612c75"/><stop offset=".3" style="stop-color:#7b5190"/><stop offset=".5" style="stop-color:#bf99c3"/><stop offset=".7" style="stop-color:#7b5190"/><stop offset="1" style="stop-color:#612c75"/></linearGradient><linearGradient xlink:href="#a" id="b" x1="0" x2="1" y1="0" y2="0" gradientTransform="translate(18.57 226.48)scale(562.86477)" gradientUnits="userSpaceOnUse" spreadMethod="pad"/><path fill="#fff" d="M201.986 453c-4.994 0-9.909-2.028-13.533-5.833-18.448-19.513-28.097-43.76-33.046-61.585-16.41 6.013-32.877 9.07-49.15 9.07-61.982 0-99.49-43.623-101.042-45.48-6.5-7.69-6.591-20.034.928-26.761 3.806-3.318 8.313-5.085 12.741-5.085 4.292 0 8.494 1.63 11.857 4.994 2.039.974 9.423 3.896 24.995 3.896 14.201 0 35.435-4.994 52.468-18.935 21.28-17.43 32.072-44.904 32.072-81.665 0-35.832-11.46-62.548-34.065-79.41-17.52-13.137-38.573-17.78-51.314-17.78-14.337 0-28.89 6.103-29.025 6.149-2.39.974-4.825 1.46-7.248 1.46-6.105 0-12.039-3.012-15.572-8.357-4.915-7.52-3.805-17.43 2.695-23.624 30.566-29.286 64.405-44.11 100.6-44.11 18.98 0 35.436 4.246 47.95 9.025 9.162-37.463 31.189-61.755 32.299-62.99A18.72 18.72 0 0 1 200.31 0c2.877 0 5.833.668 8.54 2.084 7.428 3.85 11.358 12.208 9.592 20.441-13.364 61.88 8.539 98.075 28.403 117.225 11.019-41.143 29.773-64.144 53.17-64.144 23.41 0 42.118 23 53.137 64.144 19.864-19.15 41.755-55.345 28.403-117.225a18.55 18.55 0 0 1 9.638-20.441C393.888.668 396.81 0 399.732 0c5.085 0 10.045 2.039 13.669 5.98 1.155 1.234 23.182 25.526 32.333 62.99 12.525-4.78 28.98-9.027 47.961-9.027 36.138 0 70.022 14.825 100.6 44.11 6.455 6.196 7.565 16.105 2.65 23.625-3.533 5.345-9.422 8.358-15.572 8.358-2.39 0-4.87-.487-7.214-1.461-.125-.046-14.688-6.15-29.06-6.15-12.695 0-33.76 4.644-51.313 17.78-22.57 16.863-34.066 43.579-34.066 79.411 0 36.761 10.838 64.236 32.073 81.665 17.078 13.94 38.267 18.935 52.468 18.935 15.572 0 23.001-2.922 24.994-3.896 3.364-3.363 7.565-4.994 11.858-4.994 4.462 0 8.98 1.767 12.74 5.085 7.565 6.727 7.475 19.071.929 26.76-1.506 1.858-39.026 45.482-100.996 45.482-16.33 0-32.786-3.058-49.196-9.071-4.96 17.825-14.598 42.072-33.046 61.585-3.579 3.805-8.494 5.787-13.454 5.787-3.228 0-6.5-.838-9.457-2.56-7.44-4.382-10.928-13.408-8.324-21.63 1.02-3.194 21.325-70.294-27.202-115.515-10.974 41.098-29.683 64.11-53.092 64.11-23.397 0-42.151-23.012-53.17-64.19-18.358 17.022-28.89 39.06-31.495 65.776-2.616 27.248 4.247 49.502 4.292 49.728a18.56 18.56 0 0 1-8.188 21.721c-2.967 1.722-6.24 2.605-9.468 2.605"/><path d="M340.808 171.868c-7.033-45.787-22.65-77.633-40.793-77.633-18.131 0-33.748 31.846-40.78 77.633-17.702-9.649-80.873-51.846-58.925-153.284 0 0-29.603 32.118-31.28 78.562 0 0-73.521-53.216-150.452 20.306 0 0 17.735-7.61 36.32-7.61 27.916 0 103.951 18.583 103.951 115.774S89.575 344.801 55.781 344.801c-27.078 0-36.365-7.61-36.365-7.61s59.196 70.157 149.615 21.98c0 0 4.201 44.769 32.91 75.21 0 0-32.73-101.528 57.293-153.068 7.078 45.696 22.65 77.463 40.781 77.463 18.098 0 33.715-31.767 40.748-77.463 90.022 51.54 57.293 153.068 57.293 153.068 28.709-30.441 32.955-75.21 32.955-75.21 90.419 48.177 149.615-21.98 149.615-21.98s-9.343 7.61-36.365 7.61c-33.805 0-103.125-21.994-103.125-119.185 0-97.19 76.092-115.775 103.963-115.775 18.585 0 36.32 7.61 36.32 7.61C504.532 43.93 431.01 97.147 431.01 97.147c-1.687-46.444-31.28-78.562-31.28-78.562 21.903 101.438-41.279 143.635-58.923 153.284" style="fill:url(#b)"/></svg>