<svg xmlns="http://www.w3.org/2000/svg" width="1080.37" height="635.88" data-name="Layer 2"><defs><linearGradient id="a" x1="-414.41" x2="-413.41" y1="859.88" y2="859.88" gradientTransform="matrix(1008.69 0 0 -524.42 418045.75 451238.69)" gradientUnits="userSpaceOnUse"><stop offset="0" stop-color="#626e77"/><stop offset=".04" stop-color="#697780"/><stop offset=".11" stop-color="#7d8e98"/><stop offset=".2" stop-color="#9eb4c0"/><stop offset=".2" stop-color="#a0b6c2"/><stop offset=".2" stop-color="#a1b7c3"/><stop offset=".29" stop-color="#adc6d4"/><stop offset=".38" stop-color="#b5cede"/><stop offset=".5" stop-color="#b7d1e1"/><stop offset=".62" stop-color="#b5cede"/><stop offset=".71" stop-color="#adc6d4"/><stop offset=".8" stop-color="#a1b7c3"/><stop offset=".8" stop-color="#a0b6c2"/><stop offset=".85" stop-color="#8b9da8"/><stop offset=".91" stop-color="#74838d"/><stop offset=".96" stop-color="#67747d"/><stop offset="1" stop-color="#626e77"/></linearGradient></defs><g data-name="Layer 1"><path d="m540 474.74-26.39-54.88c-20.93-43.5-48.96-81.52-84.24-113.98l-22.8-20.99L428.51 263c31.99-31.93 60.52-71.29 85.76-117.84L540 97.7v-.68l.19.35.18-.35v.68l25.74 47.46c25.25 46.55 53.76 85.91 85.75 117.84l21.94 21.89-22.8 20.99c-35.27 32.46-63.31 70.48-84.23 113.98l-26.4 54.88v.77l-.18-.38-.19.38zM258.54 11.76c82.45 28.12 149.99 66.34 204.47 108.42l19.56 15.12-11.3 21.97c-24.72 48.06-56.9 90.25-96.66 126.5 64.26 59.66 112.64 123.29 140.74 191.65l2.22 5.42v155.03l-50.68-50.57c-81.3-81.11-175.45-132.97-282.22-156.07l-28.81-6.24 6.01-28.86c24.24-116.22 42.25-235.84 57.62-357.97L224.04 0ZM107.33 89.11c18.74 2.08 36.94 7.63 54.76 15.35l22 9.53-66.16 332.46c111.86 12.2 217.96 81.44 277.15 147.16C281.64 544.75 152.2 523.67 0 542.12L79.58 86.03l27.74 3.08Zm714.51-77.35L856.34 0l4.55 36.17c15.36 122.14 33.38 241.75 57.61 357.97l6.02 28.86-28.81 6.24c-106.78 23.1-200.92 74.96-282.23 156.07l-50.68 50.57V480.85l2.23-5.42c28.08-68.36 76.48-131.99 140.72-191.65-39.74-36.25-71.93-78.44-96.65-126.5l-11.32-21.97 19.56-15.12c54.48-42.08 122.03-80.3 204.48-108.42zm151.22 77.35 27.73-3.08 79.58 456.08c-152.2-18.44-281.63 2.63-395.06 51.49 59.2-65.71 165.29-134.95 277.15-147.16L896.3 113.98l22-9.53c17.81-7.72 36-13.27 54.76-15.35z" style="fill-rule:evenodd;stroke-width:0"/><path d="M540.37 406.99c-22.57-46.92-52.84-87.94-90.88-122.95 33.88-33.82 64.15-75.42 90.88-124.7 26.74 49.28 57.01 90.89 90.89 124.7-38.05 35.02-68.32 76.03-90.89 122.95M248.95 39.88c78.98 26.93 143.71 63.49 195.9 103.81-28.12 54.65-66.58 101.2-115.52 139.48 73.28 62.92 128.41 130.21 158.53 203.56v77.57c-85.52-85.32-184.6-139.78-296.92-164.08 24.4-116.99 42.55-237.4 58.01-360.34m-144.9 78.75c15.84 1.75 31.18 6.55 46.21 13.08L82.24 473.55c77.41 2.9 143.51 25.58 202.32 61.04-77.76-24.73-159.94-35.54-248.53-26.16Zm727.74-78.75c15.47 122.94 33.61 243.35 58.01 360.34-112.31 24.3-211.39 78.76-296.92 164.08v-77.57c30.13-73.34 85.26-140.64 158.54-203.56-48.96-38.28-87.41-84.83-115.52-139.48 52.19-40.32 116.92-76.88 195.89-103.81m144.91 78.75 68.02 389.81c-88.6-9.38-170.78 1.43-248.53 26.16 58.8-35.46 124.91-58.14 202.32-61.04l-68.03-341.84c15.05-6.53 30.38-11.33 46.22-13.08z" style="fill-rule:evenodd;stroke-width:0;fill:url(#a)"/></g></svg>