<svg xmlns="http://www.w3.org/2000/svg" xmlns:xlink="http://www.w3.org/1999/xlink" width="600" height="320"><linearGradient id="a" x1="0" x2="1" y1="0" y2="0" gradientTransform="rotate(205 9.077 6.792)scale(-299.16553 299.16553)" gradientUnits="userSpaceOnUse" spreadMethod="pad"><stop offset="0" style="stop-color:#bf331c"/><stop offset=".5" style="stop-color:#f6b91d"/><stop offset="1" style="stop-color:#bf331c"/></linearGradient><linearGradient xlink:href="#a" id="b" x1="0" x2="1" y1="0" y2="0" gradientTransform="rotate(-25 660.44 78.113)scale(598.33106)" gradientUnits="userSpaceOnUse" spreadMethod="pad"/><path d="M42.72 4.75C17.87 51.902 4.75 105.518 4.75 160s13.12 108.096 37.97 155.25h514.562C582.128 268.094 595.25 214.478 595.25 160c0-54.48-13.122-108.094-37.968-155.25Z" style="fill:url(#b);stroke-width:2"/><path d="M560.132 0H39.866C14.506 47.102 0 101.738 0 160s14.506 112.898 39.866 160h520.266C585.492 272.898 600 218.262 600 160S585.49 47.102 560.132 0M554.4 9.5c23.632 45.858 36.1 97.764 36.1 150.5s-12.468 104.642-36.1 150.5H45.6C21.964 264.646 9.5 212.738 9.5 160S21.966 55.354 45.6 9.5Z" style="fill:#fff;stroke-width:2"/><path d="M548.206 19H51.792l-5.054 11.168C28.33 70.85 18.998 114.532 18.998 160c0 46.278 9.666 90.676 28.732 131.964L52.824 303h494.348l5.096-11.036c19.064-41.286 28.73-85.686 28.73-131.964 0-45.47-9.334-89.152-27.74-129.834zm-12.258 19c16.69 36.884 26.05 78.272 26.05 122 0 44.524-9.716 86.612-26.98 124H64.98c-17.264-37.388-26.982-79.476-26.982-124 0-43.728 9.362-85.116 26.052-122Z"/><path d="m494.833 82.167-51 43.834 6.168 11.166c27.342 2.478 54.528 5.116 63.5 26.334.79 6.222.796 12.444-.166 18.666-3.79 6.072-10.412 11.292-19.668 16.166-11.618 6.12-27.802-1.176-39.154-13.248-5.382-2.062-10.9-3.268-15.346-4.752l-5 10.834 51.834 32.834c14.002-12.914 29.198-24.04 46.5-32 2.104-11.624 3.296-23.54 3.334-35.834-8.502-21-26.834-30.834-50.334-36.166l46.334-63.834-89.668 2.666c-.596 9.792-4.25 17.81-9.332 25 19.474-2.594 40.024-3.348 61.998-1.666M360 93.833h27.834v99.334l27.416-27.416V56.167C399.603 66.299 380.677 74.763 360 82.333Zm-110.256-9.556c3.924 3.39 4.006 7.056 1.434 11.144-5.012 7.966-9.846 14.33-15.346 19.08-2.87 2.478-2.426 6.666-.664 10 3.856 7.298 9.82 11.902 15.832 15 4.976-4.98 9.952-6.678 12.832-1.168 10.618 20.292 18.558 40.862 28.168 59.834 8.398 16.582 6.226 28.01-3.166 35.666-6.564 5.35-12.888 9.784-18 15a180 180 0 0 0 13.666 12.834c22.056-17.992 55.496-17.024 96.168-4 1.576-4.834 3.692-9.5 6.332-14-14.25-12.792-29.122-15.888-34.332-28.334-2.754-6.578-4.126-19.888-7.484-28.364-11.018-27.802-21.35-48.636-38.516-83.968-7.702-15.852-5.96-31.26-2-39.834-5.752-2.456-10.204-5.406-13.5-8.792-7.668 7.626-38.168 7.792-54.042 0-3.688 6.326-7.404 11.23-11.126 15.75 9.93 4.2 17.872 9.076 23.744 14.152M87.667 77.333c16.082 2 27.914 3.918 22.166 18.834-3.13 8.126-6.514 15.738-10.002 23.166-1.984 4.23-1.542 8.916 3.336 12.168 3.272 2.18 10.336 5.74 14 7.166 4.916 1.916 7.95-.078 9.5-3.666 1.136-2.636 3.71-7.77 5-10.334 2.42-4.814 6.66-3.78 9.664.5 19.122 27.226 37.196 65.244 48.5 110.666 3.132 12.578 3 22.838-.832 29.168 5.52 4.098 11.7 6.964 18.5 8.666 8.02-15.074 21.946-26.958 40.832-36.166-3.874-15.474-8.848-30.724-15.332-45.668-6.536-21.034-2.582-32.01 4-40.332 1.798-2.276 1.84-5.284 0-8.188-3.52-5.554-7.366-9.958-11.332-13.312-2.792-2.362-6.46-2.856-9.5.166-1.792 1.78-3.358 3.792-5.5 5.334-21.668-25.668-40.168-53.168-47-72.5L97 60.501c-4.5 4.75-8 10.5-9.332 16.832M42 244.001c12.526-9.822 20.91-23.072 27.95-42.6 6.532-18.116 10.968-35.584 19.198-52.25 2.082-4.214 7.134-7.534 12.602-4.9 3.856 1.856 7.694 3.98 11.918 5.916 4.444 2.038 5.364 5.882 3.332 10.632-5.86 13.692-13.136 26.784-17.832 40.868-4.668 14-5.334 30.334 11.166 34.666v13c-30.788-3.722-49.226.692-60.9 10.666z"/></svg>