<?xml version="1.0" encoding="UTF-8" standalone="no"?>
<svg
   version="1.1"
   width="618.40979"
   height="465.6424"
   id="svg4"
   xmlns="http://www.w3.org/2000/svg"
   xmlns:svg="http://www.w3.org/2000/svg">
  <defs
     id="defs4" />
  <linearGradient
     id="linearGradient3007">
    <stop
       style="stop-color:#8b723c"
       offset="0"
       id="stop1" />
    <stop
       style="stop-color:#ebd491"
       offset="0.46751356"
       id="stop2" />
    <stop
       style="stop-color:#8b723c"
       offset="1"
       id="stop3" />
  </linearGradient>
  <path
     d="M 309.2057,51.456095 276.16024,167.11731 205.20706,155.45391 C 218.81436,74.782065 272.27161,12.577275 272.27161,12.577275 156.60956,32.988215 123.56327,117.54786 123.56327,117.54786 c 0,0 -57.344232,-13.60647 -106.913669,6.80448 85.759359,61.38565 111.988779,131.99414 187.711539,244.53207 5.80629,8.6292 11.90358,17.50495 18.34102,26.64196 l -17.4951,-172.03514 56.37308,43.73775 47.62474,171.06318 48.59831,-169.11929 55.39951,-45.68164 -17.4951,172.03514 c 101.08278,-155.512 142.87582,-235.21188 206.05256,-271.17403 -35.96216,-15.5512 -106.91367,-6.80448 -106.91367,-6.80448 0,0 -29.1585,-79.699895 -148.70834,-104.970585 44.70971,43.73774 67.06455,142.876635 67.06455,142.876635 l -70.95318,11.6634 z"
     style="fill:none;stroke:#808080;stroke-width:14.8894;stroke-miterlimit:100"
     id="path3" />
  <path
     d="m 309.20406,51.456095 33.04546,115.661215 70.95318,-11.6634 C 399.59541,74.782065 346.13815,12.577275 346.13815,12.577275 461.80021,32.988215 494.84649,117.54786 494.84649,117.54786 c 0,0 57.34422,-13.60647 106.91367,6.80448 -92.33524,66.09259 -115.66122,142.87664 -206.05256,271.17403 l 17.4951,-172.03514 -56.37308,43.73775 -47.62474,171.06318 -48.59831,-169.11929 -55.39951,-45.68164 17.4951,172.03514 c -6.02108,-9.2632 -11.83179,-18.25742 -17.44918,-26.98941 C 116.56463,230.67478 76.063158,158.17237 16.649601,124.35234 c 35.962156,-15.5512 106.913669,-6.80448 106.913669,-6.80448 0,0 29.1585,-79.699895 148.70834,-104.970585 -44.70971,43.73774 -67.06455,142.876635 -67.06455,142.876635 l 70.95318,11.6634 z"
     style="stroke:#808080;stroke-width:14.8894;stroke-miterlimit:100"
     id="path4" />
</svg>
