<?xml version="1.0" encoding="UTF-8" standalone="no"?>
<svg
   version="1.1"
   width="618.40985"
   height="465.64252"
   id="svg4"
   xmlns="http://www.w3.org/2000/svg"
   xmlns:svg="http://www.w3.org/2000/svg">
  <defs
     id="defs4" />
  <linearGradient
     id="linearGradient3007">
    <stop
       style="stop-color:#8b723c"
       offset="0"
       id="stop1" />
    <stop
       style="stop-color:#ebd491"
       offset="0.46751356"
       id="stop2" />
    <stop
       style="stop-color:#8b723c"
       offset="1"
       id="stop3" />
  </linearGradient>
  <path
     d="M 309.20575,51.456135 276.16029,167.11735 205.20711,155.45395 C 218.81441,74.782105 272.27166,12.577315 272.27166,12.577315 156.60961,32.988255 123.56332,117.5479 123.56332,117.5479 c 0,0 -57.34423,-13.60647 -106.913667,6.80448 85.759357,61.38565 111.988777,131.99414 187.711537,244.53207 5.80629,8.6292 11.90358,17.50495 18.34102,26.64196 l -17.4951,-172.03514 56.37308,43.73775 47.62474,171.06318 48.59831,-169.11929 55.39951,-45.68164 -17.4951,172.03514 c 101.08278,-155.512 142.87582,-235.21188 206.05256,-271.17403 -35.96216,-15.5512 -106.91367,-6.80448 -106.91367,-6.80448 0,0 -29.1585,-79.699895 -148.70834,-104.970585 44.70971,43.73774 67.06455,142.876635 67.06455,142.876635 l -70.95318,11.6634 z"
     style="fill:none;stroke:#808080;stroke-width:14.8894;stroke-miterlimit:100"
     id="path3" />
  <path
     d="m 309.20411,51.456135 33.04546,115.661215 70.95318,-11.6634 C 399.59546,74.782105 346.1382,12.577315 346.1382,12.577315 461.80026,32.988255 494.84654,117.5479 494.84654,117.5479 c 0,0 57.34422,-13.60647 106.91367,6.80448 -92.33524,66.09259 -115.66122,142.87664 -206.05256,271.17403 l 17.4951,-172.03514 -56.37308,43.73775 -47.62474,171.06318 -48.59831,-169.11929 -55.39951,-45.68164 17.4951,172.03514 C 216.68113,386.26321 210.87042,377.26899 205.25303,368.537 116.56468,230.67482 76.06321,158.17241 16.649653,124.35238 52.611809,108.80118 123.56332,117.5479 123.56332,117.5479 c 0,0 29.1585,-79.699895 148.70834,-104.970585 -44.70971,43.73774 -67.06455,142.876635 -67.06455,142.876635 l 70.95318,11.6634 z"
     style="stroke:#808080;stroke-width:14.8894;stroke-miterlimit:100"
     id="path4" />
</svg>
