<?xml version="1.0" encoding="UTF-8" standalone="no"?>
<svg
   version="1.1"
   width="617.02014"
   height="465.6424"
   id="svg3"
   xmlns:xlink="http://www.w3.org/1999/xlink"
   xmlns="http://www.w3.org/2000/svg"
   xmlns:svg="http://www.w3.org/2000/svg">
  <defs
     id="defs3" />
  <linearGradient
     id="linearGradient3007">
    <stop
       style="stop-color:#612c75"
       offset="0"
       id="stop1" />
    <stop
       style="stop-color:#bf99c3"
       offset="0.46751356"
       id="stop2" />
    <stop
       style="stop-color:#612c75"
       offset="1"
       id="stop3" />
  </linearGradient>
  <linearGradient
     x1="68"
     y1="124.55032"
     x2="198"
     y2="48.050323"
     id="linearGradient3013"
     xlink:href="#linearGradient3007"
     gradientUnits="userSpaceOnUse"
     gradientTransform="matrix(2.4815743,0,0,2.4815743,-10.647714,-14.720045)" />
  <path
     d="m 309.20406,51.456095 33.04546,115.661215 70.95318,-11.6634 C 399.59541,74.782065 346.13815,12.577275 346.13815,12.577275 461.80021,32.988215 494.84649,117.54786 494.84649,117.54786 c 0,0 57.34422,-13.60647 106.91367,6.80448 -92.33524,66.09259 -115.66122,142.87664 -206.05256,271.17403 l 17.4951,-172.03514 -56.37308,43.73775 -47.62474,171.06318 -48.59831,-169.11929 -55.39951,-45.68164 17.4951,172.03514 C 121.61938,240.01437 79.826341,160.31448 16.649603,124.35234 c 35.962156,-15.5512 106.913667,-6.80448 106.913667,-6.80448 0,0 29.1585,-79.699895 148.70834,-104.970585 -44.70971,43.73774 -67.06455,142.876635 -67.06455,142.876635 l 70.95318,11.6634 z"
     style="fill:url(#linearGradient3013);stroke:#ffffff;stroke-width:14.8894;stroke-miterlimit:100"
     id="path3" />
</svg>
