<svg xmlns="http://www.w3.org/2000/svg" width="897.034" height="896.997"><path fill="gray" d="M813.227 411.321c-6.372-78.866-40.577-154.232-93.27-212.96.193.124.39.247.583.372-15.12-17.244-31.949-32.702-50.092-46.347a356 356 0 0 0-33.608-22.976c.203.327.414.652.62.98-101.454-59.628-232.563-69.088-340.473-20.052-101.97 45.244-180.912 139.135-206.446 247.891-11.067 41.047-8.806 84.031-7.835 126.05 6.373 78.865 40.577 154.231 93.271 212.961q-.292-.186-.583-.373c15.12 17.244 31.95 32.702 50.092 46.348a356 356 0 0 0 33.608 22.976c-.204-.326-.414-.653-.62-.979 101.455 59.627 232.564 69.087 340.473 20.05C700.918 740.018 779.86 646.127 805.393 537.37c11.065-41.047 8.805-84.032 7.834-126.049"/><path d="M373.283 6c95.2-14.962 196.078-2.403 281.84 42.878 114.16 57.438 200.56 166.961 229.598 291.438 23.441 101.281 13.84 210.961-32.48 304.563-60.398 125.598-182.637 219.438-319.918 244.48-115.359 21.277-239.28-2-336.48-68.563-72.64-50.32-131.84-121.117-164.16-203.68-52-130.64-39.84-285.68 35.36-404.957C133.442 103.84 247.84 26.475 373.282 6m-74.8 107.678C197.52 158.475 119.36 251.436 94.08 359.116c-10.957 40.641-8.719 83.2-7.758 124.801 9.2 113.84 76.961 220.32 174.641 279.121-12.16-19.52-31.359-38.242-28.723-63.28 1.203-33.52 36.961-52.16 66.961-53.52 55.441-6.399 104.402 26.32 145.281 59.761-34.96-106.242-157.359-174.16-266.082-155.12 47.922-37.52 107.762-59.52 168.883-60 80.078-.564 157.117 29.28 224.72 70.558-71.68-113.68-200.802-181.52-330.243-205.918 24.563-13.84 54.16-11.359 81.441-14.082 144.801 1.04 279.922 63.441 402.801 134.723-80-137.523-222.082-226.96-370.48-274.883 141.281-14.078 282.48 34.402 399.36 111.602-49.2-74.16-120.56-132.082-200.88-169.68 59.281-1.199 115.04 26.56 163.84 58-101.36-115.603-279.923-150.884-419.36-87.52"/></svg>