<?xml version="1.0" encoding="UTF-8" standalone="no"?>
<svg
   version="1.1"
   width="600.0011"
   height="503.25021"
   id="svg1"
   xmlns="http://www.w3.org/2000/svg"
   xmlns:svg="http://www.w3.org/2000/svg">
  <defs
     id="defs1" />
  <path
     d="m 171.38498,0 c 0,0 -31.64844,3.3836431 -31.64844,36.158203 L 22.090055,68.988281 c 0,0 -29.391431,11.277594 -20.369141,49.746099 l 97.292969,363.02343 c 0,0 20.368897,27.17687 44.107417,20.41016 L 300.06271,458.9668 456.9338,502.16797 c 23.73852,6.76671 44.10743,-20.41016 44.10743,-20.41016 L 598.27951,118.73438 C 607.30179,80.265875 577.92404,68.988281 577.92404,68.988281 L 460.31662,36.158203 C 460.31662,3.3836431 428.61544,0 428.61544,0 Z m 1.01757,13.546875 h 255.19532 c 1.49913,0.26132 6.02336,1.279983 10.31445,4.126953 6.02403,4.02977 8.81641,9.888445 8.81641,18.484375 v 10.314453 c 0,0 124.85438,34.809568 126.68359,35.304688 3.21832,1.49913 13.05273,7.468172 13.05273,23.037106 0,3.17706 -0.42562,6.72642 -1.34765,10.70117 -0.2063,0.70144 -94.87163,354.15177 -96.42578,359.84571 -4.19481,4.7312 -16.44903,16.97255 -28.00196,13.69922 L 300.00607,444.8418 139.36544,489.06055 c -11.55292,3.27333 -23.84814,-8.96802 -28.04296,-13.69922 -1.49913,-5.69394 -96.219729,-359.14372 -96.384769,-359.84571 -0.90828,-3.97473 -1.333984,-7.52411 -1.333984,-10.70117 0,-15.568934 9.765654,-21.537976 13.052734,-23.037106 1.82921,-0.49512 126.628909,-35.304688 126.628909,-35.304688 V 36.158203 c 0,-8.59593 2.79017,-14.454605 8.85546,-18.484375 4.24984,-2.84697 8.8176,-3.865083 10.26172,-4.126953 z m 1.51172,16.972656 c 0,0 -5.26758,2.254485 -5.26758,6.765625 V 412.76953 c 0,0 0,7.57813 5.26758,7.57813 H 426.5256 c 0,0 6.00977,-1.51284 6.00977,-7.57813 V 37.285156 c 0,0 -0.74218,-6.765625 -6.00977,-6.765625 z M 449.46505,64.476562 V 413.52539 c 0,0 -3.01173,22.61133 -21.11132,22.61133 h -97.99219 l 131.19336,36.21289 c 0,0 7.52264,3.75413 11.27734,-4.51172 l 96.55078,-358.18164 c 0,0 3.75504,-11.277053 -5.32226,-14.289062 z M 150.54709,65.232422 35.953336,96.123047 c -9.03604,2.99826 -5.267578,14.345703 -5.267578,14.345703 L 127.16623,468.5957 c 3.76846,8.26584 11.34765,4.50977 11.34765,4.50977 l 131.13867,-36.15625 h -97.99414 c -18.11334,0 -21.11133,-22.67969 -21.11132,-22.67969 z M 316.1799,82.09375 c 23.95858,0 43.02156,8.707307 57.16015,26.10547 14.06982,17.3569 21.16602,39.05954 21.16602,64.90234 0,41.10917 -18.00289,81.02116 -54.05078,119.91602 -36.04789,38.94988 -77.41833,60.92935 -124.09766,65.92187 l -10.90625,-11.49804 c 63.12851,-17.89329 108.2537,-56.25186 135.2793,-115.18555 -9.4624,7.04178 -18.85628,12.30878 -28.26367,15.89844 -9.35237,3.5484 -18.69092,5.32226 -27.98828,5.32226 -19.83253,0 -35.19439,-6.56056 -46.21094,-19.72265 -11.0578,-13.2171 -16.54492,-28.84084 -16.54492,-47.10547 0,-25.69152 9.03517,-49.53951 27.13476,-71.51758 18.09959,-22.019343 40.50298,-33.03711 67.32227,-33.03711 z m -0.27344,14.882812 c -16.00906,10e-7 -29.3373,8.759398 -39.96875,26.267578 -10.70021,17.57696 -16.00781,37.67246 -16.00781,60.2832 0,15.5827 3.86485,27.28641 11.49804,34.97461 7.67444,7.74322 17.02611,11.60743 28.09766,11.60743 8.91226,0 17.56391,-1.8843 25.88477,-5.58399 8.33462,-3.76846 16.3389,-9.35217 24.06836,-16.82031 6.39537,-19.02108 9.62695,-35.93767 9.62695,-50.72266 0,-17.50819 -4.08466,-31.85333 -12.19922,-43.07617 -8.16957,-11.29162 -18.48433,-16.929687 -31,-16.929688 z"
     id="path1" />
</svg>
