<svg xmlns="http://www.w3.org/2000/svg" width="219.913" height="208" viewBox="0 0 219.913 208"><defs><radialGradient id="a" cx="115.485" cy="114.455" r="114.337" fx="129.902" fy="70.345" gradientUnits="userSpaceOnUse"><stop offset=".121" stop-color="#c3e2ee"/><stop offset=".226" stop-color="#afcdd9"/><stop offset=".53" stop-color="#7a96a2"/><stop offset=".757" stop-color="#59737f"/><stop offset=".88" stop-color="#4d6773"/></radialGradient></defs><path d="M208.375 70.858c4.102 2.977 6.297 4.606 11.538 8.362L178.163 208H43.053l-26.491-78.915L0 78.582 110.606 0c7.498 5.434 43.415 31.485 49.23 35.68 27.112 19.556 17.05 12.322 48.539 35.178M106.76 56.399V13.9L13.763 81.887l40.285 12.844zm7-42.5v42.5l51.962 38.09 41.035-12.602zm28 146 19.467-60.048-50.969-36.94-51.574 36.642L78.761 159.9zm-94.988 36.998 25.604-33.77c-.692-2.144-3.36-10.651-4.35-13.994-4.7-15.861-10.744-31.447-15.791-47.209L11.77 87.9zM208.755 87.904l-41.004 13.733-19.457 62.087 2.55 3.364 22.422 29.806zM167.76 201.899l-25.707-34.793H78.467L52.76 201.899z"/><path d="M141.76 159.9h-63L58.686 99.552 110.26 62.91l50.97 36.94zm.294 7.206H78.467L52.76 201.899h115zM106.761 13.899 13.763 81.887l40.285 12.844L106.761 56.4zm60.99 87.738-19.457 62.087 7.296 9.626 17.676 23.544 35.489-108.99zm-95.374 61.49c-.774-2.325-3.36-10.651-4.35-13.994-4.7-15.861-10.744-31.447-15.791-47.209L11.77 87.9l35.002 108.997zm41.384-106.728 51.962 38.09 41.035-12.602L113.761 13.9z" style="fill:url(#a)"/></svg>