<svg xmlns="http://www.w3.org/2000/svg" width="219.913" height="208" viewBox="0 0 219.913 208"><path d="M208.375 70.858c4.102 2.977 6.297 4.606 11.538 8.362L178.163 208H43.053l-26.491-78.915L0 78.582 110.606 0c7.498 5.434 43.415 31.485 49.23 35.68 27.112 19.556 17.05 12.322 48.539 35.178M106.76 56.399V13.9L13.763 81.887l40.285 12.844Zm7-42.5v42.5l51.962 38.09 41.035-12.602zm28 146 19.467-60.048-50.969-36.94-51.574 36.642 20.076 60.346zm-94.988 36.998 25.604-33.77c-.692-2.144-3.36-10.651-4.35-13.994-4.7-15.861-10.744-31.447-15.791-47.209L11.77 87.9ZM208.755 87.904l-41.004 13.733-19.457 62.087 2.55 3.364 22.422 29.806zM167.76 201.899l-25.707-34.793H78.467L52.76 201.899Z"/></svg>