<svg xmlns="http://www.w3.org/2000/svg" xml:space="preserve" width="260.242" height="320.001" viewBox="0 0 260.242 320.001"><path fill="#fff" d="M130.118 320.001s93.904-48.932 130.124-121.247c0 0-12.476-22.666-15.472-55.047 0 0-22.571.764-30.564-4.025-7.336-4.396-12.49-12.178-12.49-21.339 0-13.513 10.953-24.466 24.465-24.466 13.673 0 18.979 9.534 18.979 9.534l5.008-6.079V53.369C207.473 11.128 158.544 0 158.544 0s2.156 5.331 2.156 11.308c0 16.89-13.69 30.582-30.582 30.582-16.89 0-30.58-13.692-30.58-30.582C99.538 5.331 101.697 0 101.697 0s-48.93 11.128-91.625 53.369v43.963l5.008 6.079s5.306-9.534 18.978-9.534c13.513 0 24.466 10.953 24.466 24.466 0 9.161-5.154 16.943-12.49 21.339-7.993 4.789-30.564 4.025-30.564 4.025C12.472 176.088 0 198.754 0 198.754c36.217 72.316 130.118 121.247 130.118 121.247"/><path d="M130.118 310.147c-17.635-9.948-88.972-52.8-120.438-111.48 3.495-7.486 10.362-24.28 13.472-46.33 12.84-.311 22.021-2.073 27.32-5.249 10.448-6.26 16.686-17.006 16.686-28.745 0-18.251-14.848-33.1-33.1-33.1-6.145 0-11.261 1.514-15.35 3.656v-31.88C45.539 31.433 74.706 18.275 90.92 12.402c.58 21.121 17.943 38.122 39.198 38.122 21.26 0 38.621-17.001 39.203-38.122 16.21 5.871 45.377 19.028 72.21 44.617v31.879c-4.088-2.142-9.203-3.656-15.351-3.656-18.252 0-33.1 14.849-33.1 33.1 0 11.739 6.24 22.485 16.687 28.745 5.301 3.176 14.479 4.938 27.318 5.249 3.111 22.049 9.979 38.843 13.472 46.33-31.462 58.681-102.8 101.533-120.439 111.481"/><path fill="#fff" d="M59.02 154.074s24.182-24.962 65.7-10.726c0 0-25.308-1.51-40.764 7.36 0 0 14.436 2.483 19.977 9.562 0 0-26.75 3.387-42.482 23.458 0 0 9.697-.267 14.696.342 25.356 3.087 37.915 22.979 36.249 36.669-1.116 9.166-7.797 13.428-7.797 13.428s6.793 2.761 11.347-1.88c0 0-.842 15.844-26.653 20.435 0 0 52.499 13.34 72.742-20.439 0 0-6.692 2.868-12.884 2.114-6.188-.754-14.934-4.354-7.275-14.658 0 0-13.871 1.815-12.639-8.306.578-4.763 5.746-7.514 5.746-7.514s-13.576 1.366-12.229-9.706c.915-7.499 8.753-12.343 8.753-12.343s-5.15-5.339-20.785-5.914c0 0 7.106-5.781 23.656-3.766 16.546 2.015 35.016 10.063 24.229 23.248 0 0 5.219-.209 8.314.168s27.533 4.076 20.329 26.516c0 0 28.713-9.552 27.702-45.919 0 0-4.476 9.969-16.289 13.724 0 0 4.35-11.913-7.806-13.273 0 0 1.35-5.151 1.729-8.247.375-3.096.686-20.031-7.646-30.469-8.334-10.438-34.602-40.277-41.646-52.371-7.045-12.093-6.298-22.694-5.706-26.065 0 0-5.691 6.557-6.822 15.842s2.227 12.956 6.169 17.786c3.942 4.829 36.968 40.202 35.464 58.502 0 0-6.244-12.72-16.821-27.056s-30.231-34.489-38.195-47.963-4.904-26.692-4.904-26.692-15.401 19.327-10.747 45.083c0 0 20.691 20.097 20.298 34.729 0 0-5.991-12.328-22.81-25.008-16.526-12.458-24.377-13.116-39.216-39.086 0 0-1.914 9.833-.956 19.3 10.159 7.619 16.745 19.756 16.745 33.404 0 14.802-7.81 28.317-20.883 36.152-5.523 3.308-13.529 5.329-24.353 6.13a181 181 0 0 1-5.894 23.343c6.842-6.604 25.589-22.349 50.87-24.62.001 0-5.754-4.326-16.513-5.274m88.587-13.133s2.361-.558 5.971 2.539c3.611 3.098 14.146 13.804 14.839 25.972 0 0-7.823.736-11.999-3.639-4.181-4.374-13.428-16.736-8.811-24.872"/></svg>