<svg xmlns="http://www.w3.org/2000/svg" width="298.726" height="253.7"><g transform="translate(-.637 -23.15)"><path d="m229.239 192.374 33.462-15.655 36.662-17.152h-72.916a115 115 0 0 0 2.19-22.417c0-30.451-11.858-59.078-33.39-80.61s-50.16-33.39-80.61-33.39-59.078 11.858-80.61 33.39S.637 106.7.637 137.15s11.858 59.078 33.39 80.61 50.16 33.39 80.61 33.39c24.707 0 48.213-7.807 67.703-22.254l1.383 9.914 5.306 38.04 12.146-36.437 7.348-22.045 25.6 12.754 29.055 14.475-17.453-27.37z"/><linearGradient id="a" x1="73.049" x2="195.223" y1="232.91" y2="70.779" gradientUnits="userSpaceOnUse"><stop offset="0" style="stop-color:#bf331c"/><stop offset=".3" style="stop-color:#d3641c"/><stop offset=".5" style="stop-color:#f6b91d"/><stop offset=".7" style="stop-color:#d3641c"/><stop offset="1" style="stop-color:#bf331c"/></linearGradient><path fill="url(#a)" d="m188.512 125.692-15.06-71.273c15.087 10.745 27.106 25.515 34.498 42.742zm-86.875 96.875 47.375-41.25-93-16.375 97.75-5.25-66.25-75 79.875 44.25-2.692-80.104c-14.773-8.392-31.854-13.188-50.058-13.188-56.057 0-101.5 45.443-101.5 101.5s45.443 101.5 101.5 101.5c20.022 0 38.688-5.8 54.414-15.807l1.086-26.151zM215.559 148c.379-3.565.578-7.184.578-10.85 0-8.844-1.134-17.424-3.26-25.603l-17.366 44.02zm43.328 20.567h-75.875l9.625 69 10.625-31.875 34.875 17.375-22-34.5z" style="fill:url(#a)"/></g></svg>