<?xml version="1.0" encoding="UTF-8"?><svg id="Layer_2" xmlns="http://www.w3.org/2000/svg" width="115.26188" height="91.5806" viewBox="0 0 115.26188 91.5806"><defs><style>.cls-1{fill:#fff;}</style></defs><g id="Layer_1_copy_6"><path class="cls-1" d="M92.96495,3.55236c.60938,2.36942,2.09988,4.71259,3.90882,6.34246,1.41282,1.27296,2.8727,1.92063,4.56535,2.7211,4.4643,2.1112,9.11748,3.86583,13.81297,5.39417.06279.25666-.19041.23502-.36729.40931-2.66096,2.62192-5.0186,5.19246-7.06767,8.33892-6.59284,10.12365-8.44639,22.65435-6.93163,34.53847-12.31205,1.89101-23.83341,7.76923-33.00575,16.07562-1.88026,1.70274-5.99838,5.62148-7.20443,7.67965-.75448,1.28756-1.38747,3.26698-2.07484,4.69003-.08072.16711-.91184,1.92121-1.02515,1.83548l-2.89813-6.4176c-9.89832-12.44543-24.37051-21.37907-40.20439-23.86438l.41945-4.9372v-5.2115c-.31498-5.01195-1.05814-9.94267-2.68299-14.69614-2.42491-7.09407-6.69137-13.40399-12.20928-18.44101,4.9106-1.58517,9.90058-3.44872,14.54192-5.70599.81916-.39839,1.6979-.78869,2.46048-1.2869,2.63017-1.71835,4.4394-4.55039,5.44944-7.47998,1.72138.25687,3.45677.25993,5.1942.31553.9691.03102,1.92759.13395,2.91515.11264C39.96226,3.76216,48.51275-.08968,58.04756.0016c6.11285.05852,11.56101,1.61421,17.41416,2.88621,5.7433,1.24812,11.67094,1.25145,17.50323.66455ZM81.59552,7.74058c-1.99117-.45801-4.19922-.68912-6.23813-1.10646-4.90593-1.00418-9.77329-2.64818-14.81183-2.88578-7.56908-.35694-12.47549,1.15882-19.60958,2.67766-2.73026.58127-5.48664,1.05874-8.24475,1.49.03894.18782.20459.19466.36016.21127.58528.06252,1.28236.03917,1.87776.10032,3.72357.38246,7.43915.98327,11.08228,1.82671,3.4065,5.06066,7.28678,9.79387,11.61469,14.09186,4.39182-4.23458,8.20368-9.0276,11.65592-14.05065,3.30987-.82493,6.71158-1.38228,10.10458-1.76332.81742-.0918,2.04887-.03421,2.78797-.23116.08423-.02244.17746-.09167.1782-.18503-.20785-.0261-.46146.04363-.65704-.00352-.07254-.01749-.07508-.16612-.10024-.1719ZM107.65197,19.57103c-1.28519-.54338-2.503-1.22741-3.78129-1.78915-8.31753-3.6551-17.7757-5.43287-26.87857-4.87105-1.83817.11345-3.77026.33786-5.56228.68411-4.45345,5.50349-8.92874,11.02107-13.80367,16.17026-4.72283-5.18982-9.32352-10.49925-13.58339-16.07832-.13662-.15203-.33508-.16875-.51836-.21032-1.43589-.32569-3.65618-.47273-5.16015-.56574-4.5632-.28218-9.42448.05105-13.91722.86416-5.88137,1.06444-11.55634,3.12332-16.84806,5.84759,2.13001,2.46805,4.03905,5.11839,5.46688,8.06141,5.48303-4.26738,12.39884-7.61937,19.55924-6.64365,6.85595.93423,12.26431,7.51432,15.97616,12.85629,3.64982,5.2527,6.68296,11.02012,8.97393,16.99429.15053-.01035.16-.15901.20992-.25725.76211-1.4997,1.35776-3.31473,2.09415-4.87882,3.70044-7.85963,12.0166-21.91138,20.8682-24.30395,6.63611-1.79373,13.35004.76495,18.87926,4.31882l2.71448,1.91602c.85152-2.11703,2.21344-4.10923,3.60388-5.92025.19797-.25785,1.80777-2.05852,1.70688-2.19447ZM31.34927,25.09716c-2.25737,5.23961-3.56076,11.2751-1.47175,16.79547.99935,2.64085,2.71559,5.38175,5.07137,7.00203,5.67054,3.90013,12.69785,1.09069,15.8361-4.52568-2.98851-5.5918-6.51833-11.27392-11.38127-15.4315-2.2706-1.94125-4.96796-3.72795-8.05444-3.84031ZM83.89814,25.10208c-2.86337.13677-5.48598,1.73059-7.63325,3.52312-4.15482,3.46841-7.47396,8.17286-10.17155,12.83062-.24553.42394-1.56983,2.66178-1.54456,2.92547,3.79132,6.80053,12.50198,8.79933,17.96169,2.557,3.0211-3.45415,4.32038-8.42833,3.9016-12.95561-.28416-3.07198-1.24531-6.09369-2.51394-8.8806ZM18.53245,55.67719l9.66611-8.80774c-3.19991-5.79747-3.48886-12.47525-1.7245-18.78962.27124-.97072.7066-1.89913.90638-2.89115-4.85406.78961-9.16732,3.36789-12.57591,6.82979,2.54081,7.59273,3.79064,15.64123,3.72793,23.65871ZM96.71931,55.67768c.04936-5.9094.66956-11.83289,2.02983-17.58723.48402-2.04754,1.10703-4.05115,1.7039-6.06481-3.33717-3.48892-7.75663-6.08831-12.58161-6.83657,2.59457,6.68742,2.89488,13.82926-.11951,20.43224-.12844.28135-.64835,1.04096-.59611,1.24183l9.56352,8.81453ZM52.78347,47.87363c-.17285-.12651-.79084.90946-.93842,1.08948-.5313.64804-1.1804,1.21555-1.66064,1.8782.13106,5.40511.81405,10.80498,1.90386,16.09458,1.25477,6.09027,3.10458,12.06376,5.53736,17.77358,4.64324-10.61019,7.02624-22.17448,7.54706-33.76337l-2.60187-3.02241-4.9955,10.56335-4.79186-10.6134ZM46.84945,53.18034c-5.97251,3.20848-13.26096,1.27191-17.12498-4.16198-2.5765,2.28945-4.93879,4.83004-6.9048,7.66704-.15095.21782-1.26076,1.8087-1.1643,1.90538,8.1064,1.82705,15.84484,5.53033,22.52121,10.42544,2.35956,1.73003,4.54392,3.66647,6.73329,5.60006-2.05469-6.97251-3.53537-14.171-4.06041-21.43593ZM93.59741,58.59075c.12538-.13101-.5767-1.12443-.70617-1.32317-1.98082-3.04052-4.58815-5.80809-7.25883-8.24759-1.96622,2.50527-4.61551,4.5926-7.77471,5.33871-3.17772.75048-6.47957.35991-9.3508-1.17837-.61067,7.27129-2.08978,14.43174-4.06037,21.43598,8.12383-7.70449,18.16535-13.5127,29.15088-16.02555Z"/><path d="M107.65197,19.57103c.10089.13594-1.50891,1.93661-1.70688,2.19447-1.39044,1.81102-2.75236,3.80322-3.60388,5.92025l-2.71448-1.91602c-5.52922-3.55388-12.24315-6.11255-18.87926-4.31882-8.8516,2.39257-17.16776,16.44432-20.8682,24.30395-.7364,1.56409-1.33205,3.37912-2.09415,4.87882-.04992.09824-.0594.2469-.20992.25725-2.29097-5.97417-5.32411-11.74159-8.97393-16.99429-3.71185-5.34197-9.12021-11.92206-15.97616-12.85629-7.1604-.97572-14.0762,2.37627-19.55924,6.64365-1.42783-2.94302-3.33687-5.59336-5.46688-8.06141,5.29172-2.72427,10.96669-4.78316,16.84806-5.84759,4.49274-.81311,9.35402-1.14634,13.91722-.86416,1.50397.093,3.72427.24005,5.16015.56574.18327.04157.38174.05829.51836.21032,4.25987,5.57907,8.86056,10.88849,13.58339,16.07832,4.87493-5.14919,9.35023-10.66677,13.80367-16.17026,1.79202-.34625,3.72411-.57066,5.56228-.68411,9.10287-.56182,18.56104,1.21596,26.87857,4.87105,1.27829.56174,2.4961,1.24577,3.78129,1.78915ZM75.3574,6.63413c-4.90593-1.00418-9.77329-2.64818-14.81183-2.88578-7.56908-.35694-12.47549,1.15882-19.60958,2.67766-2.73026.58127-5.48664,1.05874-8.24475,1.49.03894.18782.20459.19466.36016.21127.58528.06252,1.28236.03917,1.87776.10032,3.72357.38246,7.43915.98327,11.08228,1.82671,3.4065,5.06066,7.28678,9.79387,11.61469,14.09186,4.39182-4.23458,8.20368-9.0276,11.65592-14.05065,3.30987-.82493,6.71158-1.38228,10.10458-1.76332.81742-.0918,2.04887-.03421,2.78797-.23116.08423-.02244.17746-.09167.1782-.18503-.20785-.0261-.46146.04363-.65704-.00352-.07254-.01749-.07508-.16612-.10024-.1719-1.99117-.45801-4.19922-.68912-6.23813-1.10646ZM51.84505,48.96311c-.5313.64804-1.1804,1.21555-1.66064,1.8782.13106,5.40511.81405,10.80498,1.90386,16.09458,1.25477,6.09027,3.10458,12.06376,5.53736,17.77358,4.64324-10.61019,7.02624-22.17448,7.54706-33.76337l-2.60187-3.02241-4.9955,10.56335-4.79186-10.6134c-.17285-.12651-.79084.90946-.93842,1.08948ZM92.89124,57.26757c-1.98082-3.04052-4.58815-5.80809-7.25883-8.24759-1.96622,2.50527-4.61551,4.5926-7.77471,5.33871-3.17772.75048-6.47957.35991-9.3508-1.17837-.61067,7.27129-2.08978,14.43174-4.06037,21.43598,8.12383-7.70449,18.16535-13.5127,29.15088-16.02555.12538-.13101-.5767-1.12443-.70617-1.32317ZM29.72447,49.01836c-2.5765,2.28945-4.93879,4.83004-6.9048,7.66704-.15095.21782-1.26076,1.8087-1.1643,1.90538,8.1064,1.82705,15.84484,5.53033,22.52121,10.42544,2.35956,1.73003,4.54392,3.66647,6.73329,5.60006-2.05469-6.97251-3.53537-14.171-4.06041-21.43593-5.97251,3.20848-13.26096,1.27191-17.12498-4.16198ZM28.19856,46.86945c-3.19991-5.79747-3.48886-12.47525-1.7245-18.78962.27124-.97072.7066-1.89913.90638-2.89115-4.85406.78961-9.16732,3.36789-12.57591,6.82979,2.54081,7.59273,3.79064,15.64123,3.72793,23.65871l9.66611-8.80774ZM98.74913,38.09045c.48402-2.04754,1.10703-4.05115,1.7039-6.06481-3.33717-3.48892-7.75663-6.08831-12.58161-6.83657,2.59457,6.68742,2.89488,13.82926-.11951,20.43224-.12844.28135-.64835,1.04096-.59611,1.24183l9.56352,8.81453c.04936-5.9094.66956-11.83289,2.02983-17.58723Z"/></g></svg>