<?xml version="1.0" encoding="UTF-8"?><svg id="Layer_2" xmlns="http://www.w3.org/2000/svg" width="115.2691" height="91.58485" xmlns:xlink="http://www.w3.org/1999/xlink" viewBox="0 0 115.2691 91.58485"><defs><style>.cls-1{fill:url(#radial-gradient);}.cls-2{fill:url(#radial-gradient-2);}.cls-3{fill:url(#linear-gradient);}</style><linearGradient id="linear-gradient" x1="57.63486" y1="30.20298" x2="57.63486" y2="111.22827" gradientUnits="userSpaceOnUse"><stop offset=".22307" stop-color="#b7281b"/><stop offset=".26667" stop-color="#ba2f19"/><stop offset=".331" stop-color="#c54314"/><stop offset=".40815" stop-color="#d7630c"/><stop offset=".49458" stop-color="#f09001"/><stop offset=".5059" stop-color="#f49700"/></linearGradient><radialGradient id="radial-gradient" cx="56.80168" cy="31.43652" fx="56.80168" fy="31.43652" r="61.74971" gradientTransform="translate(-4.61206 -14.91866) rotate(-5.37472) scale(1 1.65107)" gradientUnits="userSpaceOnUse"><stop offset=".49478" stop-color="#b7281b"/><stop offset=".5231" stop-color="#bb3019"/><stop offset=".56737" stop-color="#c74613"/><stop offset=".62205" stop-color="#db6a0a"/><stop offset=".67801" stop-color="#f49700"/></radialGradient><radialGradient id="radial-gradient-2" cx="57.85431" cy="40.20595" fx="57.85431" fy="40.20595" r="41.3319" gradientTransform="translate(102.57168 -18.25189) rotate(89.23337) scale(1 1.13156)" gradientUnits="userSpaceOnUse"><stop offset="0" stop-color="#f49700"/><stop offset=".23037" stop-color="#f29400"/><stop offset=".39579" stop-color="#ed8a02"/><stop offset=".54091" stop-color="#e47b06"/><stop offset=".67437" stop-color="#d8640c"/><stop offset=".79862" stop-color="#c84813"/><stop offset=".90965" stop-color="#b7281b"/></radialGradient></defs><g id="Layer_1_copy"><path d="M101.44,12.62155c-1.69-.80005-3.14996-1.45001-4.56-2.72003-1.81-1.63-3.29999-3.97998-3.90997-6.34998-5.83002.58997-11.76001.58997-17.5-.66003C69.61005,1.62155,64.16003.06155,58.05005.00155c-9.53003-.09003-18.08002,3.75995-27.48004,3.96997-.98999.02002-1.95001-.08002-2.91998-.12-1.73999-.04999-3.47003-.04999-5.19-.31-1.01001,2.92999-2.82001,5.76001-5.45001,7.47998-.77002.5-1.64001.89001-2.45996,1.29004-4.65002,2.25-9.64001,4.12-14.55005,5.69995,5.52002,5.04004,9.79004,11.35004,12.21002,18.44,1.63,4.76001,2.37,9.69,2.69,14.70001v5.21002l-.41998,4.94c15.82996,2.47998,30.29999,11.41998,40.19995,23.85999l2.90002,6.41998c.10999.09003.94-1.66998,1.02002-1.83997.69-1.42004,1.32996-3.40002,2.07996-4.69,1.21002-2.04999,5.32001-5.97003,7.20001-7.67999,9.17999-8.30005,20.70001-14.18005,33.01001-16.07001-1.51001-11.89001.34003-24.42004,6.92999-34.54004,2.04999-3.14996,4.41003-5.71997,7.07001-8.33997.17999-.16998.42999-.15002.37-.41003-4.70001-1.52997-9.34998-3.27997-13.82001-5.38995ZM40.94,6.43155c7.13-1.52002,12.04004-3.04004,19.61005-2.67999,5.03998.23999,9.90997,1.87994,14.81,2.88995,2.03998.41003,4.25.64001,6.23999,1.10004.02997.01001.02997.15997.09998.16998.20001.04999.45001-.02002.66003.01001,0,.08997-.10004.15997-.18005.17999-.73999.20001-1.96997.14001-2.78998.22998-3.39001.39001-6.78998.94-10.09998,1.77002-3.46002,5.02002-7.27002,9.81-11.66003,14.04999-4.32996-4.29999-8.20996-9.02997-11.60999-14.08997-3.65002-.85004-7.35999-1.45001-11.09003-1.83002-.58997-.06-1.28998-.04004-1.87-.10004-.15997-.01996-.32996-.01996-.35999-.20996,2.75-.42999,5.51001-.91003,8.23999-1.48999ZM14.81,32.02151c3.41003-3.45996,7.72003-6.03998,12.57001-6.83002-.20001.99005-.63,1.92004-.89996,2.89001-1.77002,6.32001-1.48004,12.98999,1.71997,18.79004l-9.65997,8.81c.06-8.02002-1.19-16.07001-3.73004-23.66003ZM44.17999,69.02151c-6.67999-4.89996-14.40997-8.59998-22.51996-10.42999-.10004-.08997,1.01001-1.67999,1.15997-1.90002,1.97003-2.83997,4.33002-5.37994,6.91003-7.66998,3.85999,5.42999,11.14996,7.37,17.12,4.16003.52997,7.26996,2.01001,14.46997,4.06,21.44-2.19-1.94-4.37-3.87-6.73004-5.60004ZM31.35004,25.10153c3.08997.10999,5.78998,1.90002,8.06,3.83997,4.85999,4.16003,8.39001,9.84003,11.38,15.43005-3.14001,5.62-10.17004,8.42999-15.84003,4.52997-2.34998-1.62-4.07001-4.35999-5.07001-7.01001-2.08997-5.51996-.77997-11.54999,1.47003-16.78998ZM57.63,84.71152c-2.42999-5.70996-4.27997-11.67999-5.53998-17.77002-1.09003-5.28998-1.77002-10.68994-1.90002-16.09998.48004-.65997,1.13-1.22998,1.66003-1.87.14996-.17999.76001-1.21997.94-1.09003l4.78998,10.61005,5-10.56,2.59998,3.01996c-.51996,11.59003-2.90997,23.15002-7.54999,33.76001ZM64.55005,44.3815c-.02002-.25995,1.29999-2.5,1.54999-2.91998,2.70001-4.65997,6.01001-9.35999,10.16998-12.83002,2.15002-1.79999,4.77002-3.38995,7.63-3.52997,1.27002,2.78998,2.22998,5.81,2.52002,8.88.41998,4.52997-.88,9.51001-3.91003,12.95996-5.45001,6.24005-14.16998,4.24005-17.95996-2.56ZM93.60004,58.59152c-10.98004,2.52002-21.03003,8.32001-29.15002,16.03003,1.97003-7.01001,3.45001-14.17004,4.06-21.44,2.87,1.53998,6.16998,1.92999,9.35004,1.17999,3.15997-.75,5.81-2.83002,7.77997-5.34003,2.66998,2.44,5.27002,5.21002,7.26001,8.25.13.20001.83002,1.19.70001,1.32001ZM98.75,38.09152c-1.35999,5.76001-1.97998,11.67999-2.02997,17.59003l-9.56-8.81c-.04999-.21002.46997-.97003.59998-1.25,3.01001-6.60004,2.71002-13.74005.12-20.43005,4.82001.75,9.23999,3.35004,12.58002,6.84003-.59998,2.01001-1.22003,4.01001-1.71002,6.06ZM105.95001,21.77151c-1.39001,1.81-2.75,3.79999-3.59998,5.91998l-2.72003-1.91998c-5.52997-3.54999-12.23999-6.10999-18.88-4.32001-8.84998,2.40002-17.16998,16.45001-20.87,24.31-.72998,1.56-1.32996,3.38-2.08997,4.88-.05005.09003-.06.23999-.21002.25-2.28998-5.96997-5.32001-11.73999-8.96997-16.98999-3.72003-5.33997-9.12006-11.91998-15.98004-12.85999-7.15997-.97003-14.07996,2.38-19.56,6.64996-1.42999-2.94995-3.33997-5.59998-5.46997-8.06995,5.29999-2.72003,10.96997-4.78003,16.84998-5.84003,4.48999-.82001,9.35999-1.15002,13.91998-.87,1.5.09998,3.72003.23999,5.16003.57001.17999.03998.38.06.52002.20996,4.25995,5.58002,8.85999,10.89001,13.57996,16.08002,4.88-5.14996,9.35004-10.66998,13.79999-16.16998,1.80005-.34998,3.73004-.57001,5.57001-.69,9.10004-.56,18.56,1.21997,26.87,4.87,1.28003.57001,2.5,1.25,3.79004,1.78998.09998.14001-1.51001,1.94-1.71002,2.20001Z"/><path class="cls-3" d="M93.60004,58.59152c-10.98004,2.52002-21.03003,8.32001-29.15002,16.03003,1.97003-7.01001,3.45001-14.17004,4.06-21.44,2.87,1.53998,6.16998,1.92999,9.35004,1.17999,3.15997-.75,5.81-2.83002,7.77997-5.34003,2.66998,2.44,5.27002,5.21002,7.26001,8.25.13.20001.83002,1.19.70001,1.32001ZM46.85004,53.18155c-5.97003,3.20996-13.26001,1.26996-17.12-4.16003-2.58002,2.29004-4.94,4.83002-6.91003,7.66998-.14996.22003-1.26001,1.81006-1.15997,1.90002,8.10999,1.83002,15.83997,5.53003,22.51996,10.42999,2.36005,1.73004,4.54004,3.66003,6.73004,5.60004-2.04999-6.97003-3.53003-14.17004-4.06-21.44Z"/><path class="cls-1" d="M100.46002,32.03152c-.59998,2.01001-1.22003,4.01001-1.71002,6.06-1.35999,5.76001-1.97998,11.67999-2.02997,17.59003l-9.56-8.81c-.04999-.21002.46997-.97003.59998-1.25,3.01001-6.60004,2.71002-13.74005.12-20.43005,4.82001.75,9.23999,3.35004,12.58002,6.84003ZM26.48004,28.08151c.26996-.96997.69995-1.89996.89996-2.89001-4.84998.79004-9.15997,3.37006-12.57001,6.83002,2.54004,7.59003,3.79004,15.64001,3.73004,23.66003l9.65997-8.81c-3.20001-5.80005-3.48999-12.47003-1.71997-18.79004Z"/><path class="cls-2" d="M107.65631,19.57446c.10089.13594-1.50891,1.93661-1.70688,2.19447-1.39044,1.81102-2.75236,3.80322-3.60388,5.92025l-2.71448-1.91602c-5.52922-3.55388-12.24315-6.11255-18.87926-4.31882-8.8516,2.39257-17.16776,16.44432-20.8682,24.30395-.7364,1.56409-1.33205,3.37912-2.09415,4.87882-.04992.09824-.0594.2469-.20992.25725-2.29097-5.97417-5.32411-11.74159-8.97393-16.99429-3.71185-5.34197-9.12021-11.92206-15.97616-12.85629-7.1604-.97572-14.0762,2.37627-19.55924,6.64365-1.42783-2.94302-3.33687-5.59336-5.46688-8.06141,5.29172-2.72427,10.96669-4.78316,16.84806-5.84759,4.49274-.81311,9.35402-1.14634,13.91722-.86416,1.50397.093,3.72427.24005,5.16015.56574.18327.04157.38174.05829.51836.21032,4.25987,5.57907,8.86056,10.88849,13.58339,16.07832,4.87493-5.14919,9.35023-10.66677,13.80367-16.17026,1.79202-.34625,3.72411-.57066,5.56228-.68411,9.10287-.56182,18.56104,1.21596,26.87857,4.87105,1.27829.56174,2.4961,1.24577,3.78129,1.78915ZM75.36173,6.63756c-4.90593-1.00418-9.77329-2.64818-14.81183-2.88578-7.56908-.35694-12.47549,1.15882-19.60958,2.67766-2.73026.58127-5.48664,1.05874-8.24475,1.49.03894.18782.20459.19466.36016.21127.58528.06252,1.28236.03917,1.87776.10032,3.72357.38246,7.43915.98327,11.08228,1.82671,3.4065,5.06066,7.28678,9.79387,11.61469,14.09186,4.39182-4.23458,8.20368-9.0276,11.65592-14.05065,3.30987-.82493,6.71158-1.38228,10.10458-1.76332.81742-.0918,2.04887-.03421,2.78797-.23116.08423-.02244.17746-.09167.1782-.18503-.20785-.0261-.46146.04363-.65704-.00352-.07254-.01749-.07508-.16612-.10024-.1719-1.99117-.45801-4.19922-.68912-6.23813-1.10646ZM52.78781,47.87706l4.79186,10.6134,4.9955-10.56335,2.60187,3.02241c-.52082,11.58889-2.90383,23.15319-7.54706,33.76337-2.43279-5.70982-4.2826-11.6833-5.53736-17.77358-1.08981-5.2896-1.7728-10.68947-1.90386-16.09458.48024-.66265,1.12934-1.23016,1.66064-1.8782.14758-.18001.76557-1.21599.93842-1.08948Z"/></g></svg>