<svg xmlns="http://www.w3.org/2000/svg" width="600" height="725.909"><path d="M215.432 478.084s2.05-.854 3.194-1.27c2.395 7.295 6.37 19.345 6.37 19.345h149.936s4.047-12.05 6.442-19.346c1.217.49 6.243 2.541 7.314 2.977 3.902 2.758 9.419 6.805 9.419 6.805 13.538 9.709 18.583 16.297 20.144 18.71 0 0 2.468 3.757 3.175 4.9-12.25 12.177-32.32 30.615-56.058 47.347-14.9-13.683-35.878-24.59-64.17-24.59h-2.196c-28.42 0-49.47 10.907-64.37 24.59-23.737-16.732-43.809-35.17-56.058-47.347.78-1.144 3.248-4.972 3.248-4.972 1.56-2.341 6.533-8.93 20.071-18.638l9.346-6.733c.998-.508 4.193-1.778 4.193-1.778M60.613 0s24.173 72.954 25.153 76.003c-5.172 8.584-12.395 20.416-12.395 20.416-1.343 2.123-26.659 44.734-45.732 108.523-1.198-1.56-6.17-7.785-6.17-7.785s-6.443 50.959-9.201 72.663c-.073.2-.29 1.543-.29 1.543l.072.073a3512 3512 0 0 0-1.778 14.463 425 425 0 0 0-3.467 54.026c-1.144-.926-6.805-5.68-6.805-5.68s5.462 42.048 9.001 69.76c.073 1.778.145 4.391.145 4.391s.419.363.49.363c.926 7.44 2.758 21.47 2.758 21.47 10.217 78.978 30.851 126.833 31.759 128.812l4.12 9.364 8.22 6.097c3.194 2.323 71.883 51.522 151.062 74.987 3.121 15.88 9.364 34.317 23.683 49.634 11.342 12.268 31.903 26.786 65.077 26.786h7.296c33.246 0 53.808-14.518 65.15-26.786 14.319-15.317 20.561-33.755 23.683-49.562 79.178-23.537 147.867-72.736 151.061-75.059l8.294-6.025 4.047-9.436c.907-1.979 21.541-49.834 31.758-128.813 0 0 1.906-14.59 2.977-22.884l.345-.29s.073-2.124.073-3.267c3.611-27.712 9.001-69.47 9.001-69.47s-5.662 4.682-6.805 5.68c0-17.657-1.126-35.805-3.394-54.025 0 0-1.343-10.562-1.851-14.537l.073-.072s-.218-.98-.218-1.125a99427 99427 0 0 1-9.147-73.154s-5.027 6.298-6.297 7.858c-19.073-63.789-44.444-106.4-45.732-108.523 0 0-7.223-11.832-12.395-20.416C515.214 72.953 539.387 0 539.387 0Z" style="fill:gray"/><path d="M547.626 261.382c-16.605-85.15-53.246-145.327-53.246-145.327l-112.497 320.27s8.22 2.414 19.345 7.804zm6.08 128.45c1.142-15.39 1.778-31.687 1.778-48.854 0-17.295-1.198-34.154-3.194-50.324L420.229 455.889c9.781 7.096 22.267 17.367 29.707 28.782zM298.801 570.8c-41.54 0-54.443 37.584-54.443 37.584-58.635-31.83-106.908-86.492-106.908-86.492.49-7.15 1.978-13.756 4.047-19.78l-91.592-76.766c9.637 74.57 28.855 118.523 28.855 118.523s80.667 58.69 163.82 75.785c0 0-4.973 68.471 53.735 68.471h7.368c58.635 0 53.735-68.398 53.735-68.398 83.153-17.168 163.82-75.785 163.82-75.785s19.218-43.954 28.855-118.596l-91.592 76.765c2.069 6.098 3.557 12.704 4.047 19.781 0 0-48.273 54.734-106.98 86.492 0 0-12.831-37.584-54.371-37.584zm-100.03-126.67c11.125-5.463 19.345-7.804 19.345-7.804L105.62 116.055s-36.64 60.178-53.246 145.327zm-48.708 40.541c7.44-11.47 19.926-21.686 29.707-28.782L47.783 290.654c-2.069 16.17-3.267 33.029-3.267 50.324 0 17.167.636 33.464 1.779 48.853zM112.988 37.856h374.024L347.638 458.303h-95.276z"/></svg>