<svg xmlns="http://www.w3.org/2000/svg" width="600" height="725.908"><linearGradient id="a" x1="0" x2="1" y1="0" y2="0" gradientTransform="rotate(-90 494.062 194.061)scale(650.26821)" gradientUnits="userSpaceOnUse" spreadMethod="pad"><stop offset="0" style="stop-color:#536e78"/><stop offset=".3" style="stop-color:#99aebc"/><stop offset=".5" style="stop-color:#d9eaf3"/><stop offset=".7" style="stop-color:#99aebc"/><stop offset="1" style="stop-color:#536e78"/></linearGradient><path d="M215.432 478.082s1.978-.853 3.194-1.27c2.396 7.295 6.37 19.346 6.37 19.346h149.935s4.047-12.05 6.442-19.346c1.217.49 6.243 2.54 7.314 2.976 3.902 2.759 9.419 6.806 9.419 6.806 13.538 9.709 18.583 16.296 20.144 18.71 0 0 2.468 3.757 3.175 4.9-12.25 12.177-32.32 30.615-56.058 47.347-14.899-13.683-35.878-24.59-64.17-24.59h-2.196c-28.42 0-49.47 10.907-64.37 24.59-23.737-16.732-43.808-35.17-56.003-47.347.726-1.144 3.194-4.973 3.194-4.973 1.488-2.34 6.533-8.928 20.07-18.637l9.347-6.733c.997-.508 4.192-1.779 4.192-1.779M60.669 0s24.118 72.954 25.098 76.002A5082 5082 0 0 1 73.371 96.42c-1.29 2.123-26.659 44.734-45.732 108.523-1.198-1.561-6.243-7.786-6.243-7.786s-6.442 50.96-9.128 72.664c-.073.199-.29 1.542-.29 1.542l.072.073-1.851 14.464c-2.268 18.22-3.394 36.367-3.394 54.025-1.144-.926-6.805-5.68-6.805-5.68s5.462 42.048 9.001 69.76c.073 1.778.218 4.391.218 4.391s.346.363.418.363c.999 7.44 2.759 21.469 2.759 21.469 10.217 78.979 30.85 126.834 31.685 128.812l4.12 9.364 8.293 6.098c3.267 2.323 71.883 51.521 151.062 74.986 3.121 15.88 9.364 34.318 23.682 49.634 11.343 12.268 31.904 26.786 65.078 26.786h7.295c33.247 0 53.808-14.518 65.15-26.786 14.32-15.316 20.562-33.755 23.683-49.561 79.179-23.538 147.795-72.736 151.062-75.059l8.22-6.025 4.12-9.437c.907-1.978 21.541-49.833 31.758-128.812 0 0 1.833-14.59 2.977-22.884l.273-.29s.145-2.124.145-3.267c3.611-27.712 9.001-69.47 9.001-69.47s-5.662 4.683-6.805 5.68c0-17.657-1.126-35.805-3.394-54.025 0 0-1.343-10.562-1.851-14.536l.073-.073s-.218-.98-.218-1.125a99841 99841 0 0 1-9.147-73.153s-5.027 6.297-6.297 7.858c-19.073-63.79-44.39-106.4-45.732-108.523 0 0-7.223-11.833-12.395-20.417C515.215 72.954 539.388 0 539.388 0H60.67Z"/><path d="m112.989 37.855 139.374 420.446h95.275L487.013 37.855Zm268.894 398.469s8.22 2.414 19.345 7.876l146.398-182.82c-16.533-85.149-53.246-145.326-53.246-145.326ZM52.376 261.38 198.773 444.2c11.124-5.535 19.345-7.876 19.345-7.876l-112.497-320.27S68.908 176.23 52.376 261.38m367.853 194.507c9.782 7.096 22.267 17.367 29.708 28.782l103.768-94.84q1.742-23.083 1.779-48.853a417 417 0 0 0-3.194-50.324zM44.518 340.976q.036 25.77 1.778 48.854l103.769 94.84c7.44-11.47 19.926-21.687 29.707-28.783L47.784 290.652c-2.069 16.17-3.266 33.03-3.266 50.324m413.985 161.133c2.068 6.098 3.556 12.704 4.046 19.781 0 0-48.272 54.734-106.98 86.492 0 0-12.83-37.584-54.37-37.584h-2.396c-41.613 0-54.37 37.584-54.37 37.584-58.78-31.831-107.054-86.492-107.054-86.492a80.8 80.8 0 0 1 4.12-19.78l-91.591-76.765c9.563 74.568 28.854 118.522 28.854 118.522s80.667 58.69 163.82 75.785c0 0-4.973 68.47 53.735 68.47h7.368c58.707 0 53.735-68.398 53.735-68.398 83.153-17.167 163.819-75.857 163.819-75.857s19.218-43.954 28.855-118.522z" style="fill:url(#a);stroke-width:18.1477"/></svg>