<svg xmlns="http://www.w3.org/2000/svg" width="198.663" height="250.408" viewBox="0 0 198.663 250.408"><path d="m25.557 0 54.825 161.408h37.912L173.106 0ZM21.8 27.459C13.403 47.479 7.32 68.972 3.755 89.982l56.619 65.914 4.535-2.439zm155.565 0-43.61 125.998 4.534 2.44 56.62-65.915c-3.564-21.01-9.148-42.503-17.544-62.523M1.749 101.723c-2.59 10.944-1.952 21.734-.35 33.568l39.979 38.063v-11.946h8.447zm195.166 0-48.076 59.685h8.445v11.946l39.98-38.063c1.602-11.834 2.24-22.624-.35-33.568M2.724 147.16c-1.171 24.965 8.7 42.82 11.146 48.56 0 0 27.662 21.19 57.48 29.39 1.845.491 3.71.975 5.65 1.382.112.024.225.053.337.076q-.076.872-.08 1.746l-.002.018a22 22 0 0 0 6.468 15.611 22.1 22.1 0 0 0 6.037 4.29h.002q.965.465 1.979.835h.002q.505.186 1.023.348h.002q.517.16 1.045.297h.004q.528.137 1.065.248h.004q.538.11 1.083.193h.002q.547.084 1.102.141h.004a22 22 0 0 0 2.258.113 22.1 22.1 0 0 0 8.59-1.734h.002q.99-.42 1.927-.93h.002q.938-.51 1.819-1.105a22 22 0 0 0 2.502-1.965c4.443-4.038 7.234-9.865 7.234-16.342l-.006-.035a22 22 0 0 0-.076-1.729c.112-.023.222-.052.334-.076 1.94-.407 3.808-.891 5.652-1.383 29.818-8.198 57.48-29.388 57.48-29.388 2.447-5.74 12.315-23.596 11.143-48.56l-31.492 30.202v10.735c-14.727 13.084-29.05 25.326-44.06 33.601a22.08 22.08 0 0 0-21.053-15.443h-.002a22.075 22.075 0 0 0-21.051 15.443c-15.01-8.275-29.334-20.517-44.06-33.601v-10.735z"/></svg>