<svg xmlns="http://www.w3.org/2000/svg" id="Layer_2" width="200.004" height="155.884" viewBox="0 0 200.004 155.884"><defs id="defs1"><style id="style1">.cls-1{fill:#fff}</style></defs><g id="Layer_1_copy_2"><path id="path1" d="m146.124 79.72 53.88-21.03-57.62 4.8s3.55-14.36 5.02-21.82c-6.25 4.34-11.79 9.59-17.86 14.18C124.814 42.6 108.534 0 108.534 0l2.87 39.63c-10.34-8.3-22.6-14.61-35.97-16.03-8.32-.87-17.22-.36-25.6 1.46-11.47 2.69-21.82 8.96-30.37 16.91C7.484 54.26-.286 71.02.044 88.3c-.56 14.7 4.24 29.54 13.35 41.14 9.95 13.64 25.78 22 42.13 25.48 7.94 1.3 15.3 1.27 22.14 0 14.27-3.02 27.9-9.74 37.98-20.36 5.34-5.95 9.51-12.82 13.08-19.93 5.33 11.74 14.46 35.79 14.46 35.79l-5.11-58.17 22.3 5.24zm-66.33 56.88c-5.22 5.14-10.52 10.83-17.68 13.24-5.79.81-11.42-1.62-16.79-3.42-23.01-8.01-39.99-30.53-40.89-54.62-.58-21.79 11.41-43.62 30.78-54.35l.01.01c1-.5 2.11-.74 3.23-.69 14.5.63 28.11 7.4 38.65 16.98 6.47 6.79 12.05 14.63 15.09 23.52-6.99 2.71-42.44 16.25-42.44 16.25s38.77-2.43 45.63-2.89c.5 8.55.3 16.62-2.89 24.71-3.07 7.66-6.64 15.43-12.7 21.26m56.88-16.05s-5.21-14.26-8.67-21.04c-2.79 9.37-6.32 19.22-12.38 26.52-10.17 12.25-22.23 17.74-22.97 18.07.65-.51 9.07-6.93 12.6-11.03 5.09-5.91 8.99-12.77 11.89-19.99 2.63-6.6 3.29-13.74 3.85-20.76-3.1 1.97-9 6.38-9 6.38l3.28-15.08-34.15 2.7 32.23-12.29-9.49-12.11s7.01 1.4 10.55 1.95c-3.41-8.35-10.14-15.29-15.92-20.41-5.16-4.57-12.29-8.13-18.77-10.32-6.74-2.29-14.7-3.23-22.35-3.7 8.27-.01 15.24-.34 24.9 1.52 9.19 1.76 17.39 6.71 24.67 12.4 4.05 3.15 6.9 7.48 10.75 10.85-.15-7.45-1.37-22.29-1.37-22.29s7.62 20.95 12.29 31.09c4.24-2.9 8.05-6.38 12.16-9.45-1.17 4.75-3.08 14.34-3.08 14.34l34.37-2.44-32.39 12.33 9.53 12.74-15.15-3.14z"/><path id="path2" d="m149.204 90.53-15.15-3.14 2.62 33.16s-5.21-14.26-8.67-21.04c-2.79 9.37-6.32 19.22-12.38 26.52-10.17 12.25-22.23 17.74-22.97 18.07.65-.51 9.07-6.93 12.6-11.03 5.09-5.91 8.99-12.77 11.89-19.99 2.63-6.6 3.29-13.74 3.85-20.76-3.1 1.97-9 6.38-9 6.38l3.28-15.08-34.15 2.7 32.23-12.29-9.49-12.11s7.01 1.4 10.55 1.95c-3.41-8.35-10.14-15.29-15.92-20.41-5.16-4.57-12.29-8.13-18.77-10.32-6.74-2.29-14.7-3.23-22.35-3.7 8.27-.01 15.24-.34 24.9 1.52 9.19 1.76 17.39 6.71 24.67 12.4 4.05 3.15 6.9 7.48 10.75 10.85-.15-7.45-1.37-22.29-1.37-22.29s7.62 20.95 12.29 31.09c4.24-2.9 8.05-6.38 12.16-9.45-1.17 4.75-3.08 14.34-3.08 14.34l34.37-2.44-32.39 12.33z" class="cls-1"/><path id="path3" d="M92.494 115.34c-3.07 7.66-6.64 15.43-12.7 21.26-5.22 5.14-10.52 10.83-17.68 13.24-5.79.81-11.42-1.62-16.79-3.42-23.01-8.01-39.99-30.53-40.89-54.62-.58-21.79 11.41-43.62 30.78-54.35l.01.01c1-.5 2.11-.74 3.23-.69 14.5.63 28.11 7.4 38.65 16.98 6.47 6.79 12.05 14.63 15.09 23.52-6.99 2.71-42.44 16.25-42.44 16.25s38.77-2.43 45.63-2.89c.5 8.55.3 16.62-2.89 24.71" class="cls-1"/></g></svg>