<?xml version="1.0" encoding="UTF-8" standalone="no"?>
<svg
   width="1000"
   height="1000"
   viewBox="0 0 1000 1000"
   version="1.1"
   xml:space="preserve"
   style="clip-rule:evenodd;fill-rule:evenodd;stroke-linejoin:round;stroke-miterlimit:2"
   id="svg31"
   xmlns="http://www.w3.org/2000/svg"
   xmlns:svg="http://www.w3.org/2000/svg"><defs
   id="defs31" />
    <g
   transform="translate(-4275.9955)"
   id="g31">
        <g
   id="WM"
   transform="translate(-0.444444)">
            <rect
   x="4276.4399"
   y="0"
   width="1000"
   height="1000"
   style="fill:none"
   id="rect1" />
            <g
   transform="translate(4276.44)"
   id="g1">
                <path
   d="m 240.335,784.908 c -0.076,-0.158 0.172,-0.882 6.078,-3.785 7.052,-3.466 19.962,-2.45 19.962,-2.45 l 8.871,-7.722 c -0.96,-12.084 17.667,-18.161 17.667,-18.321 0,0.16 16.55,-0.9 16.55,-0.9 0,0 2.311,-0.087 9.354,-9.142 7.043,-9.055 13.164,-11.235 13.164,-11.235 0,0 7.21,-0.923 3.605,-3.69 -3.605,-2.767 -0.922,-12.157 -0.922,-12.157 5.785,-7.043 11.57,-7.798 11.57,-7.798 0,0 26.244,-5.534 53.829,7.379 27.585,12.912 31.358,30.1 31.358,30.1 l -17.524,-9.642 c 0,0 -3.689,-3.102 -17.02,-6.372 -13.332,-3.27 -19.788,-1.258 -25.405,0 -5.618,1.257 -5.534,3.773 -5.534,3.773 l 1.761,1.928 c 2.767,2.515 0,5.45 0,5.45 l -7.211,5.953 c 0,0 -1.258,3.27 0.168,4.528 1.425,1.257 3.857,-0.42 3.857,-0.42 l 10.816,-4.946 6.54,-4.444 c 0,0 9.558,-4.528 18.613,-2.18 9.055,2.347 18.485,13.53 18.485,13.53 13.605,16.116 14.53,21.135 14.53,21.135 7.397,27.872 -3.701,33.919 -3.701,33.919 -5.97,-34.579 -28.782,-43.606 -28.782,-43.606 -10.453,3.038 -15.546,-1.251 -15.546,-1.251 -4.467,9.113 -17.868,8.319 -17.868,8.319 -17.6,27.706 -40.829,5.897 -40.829,5.897 l -1.287,5.88 c -2.738,5.154 -9.412,7.032 -9.412,7.032 l -9.019,0.644 c 0,0 -8.214,7.087 -11.113,8.375 -2.899,1.289 -6.442,0 -6.442,0 l -3.711,-1.343 c -8.677,8.22 -16.399,10.197 -16.399,10.197 -2.284,1.594 -7.287,0.025 -7.287,0.025 -7.224,28.453 -31.492,11.599 -31.492,11.599 -26.696,15.456 -62.935,6.346 -62.935,6.346 C 21.701,743.549 32.845,508.282 34.14,510.611 c 1.295,2.329 8.519,6.82 9.517,13.973 0.998,7.153 6.321,0.666 6.321,0.666 l 8.151,-15.471 V 490.15 c -0.332,-1.33 2.662,-9.149 8.817,-6.321 6.155,2.828 11.311,13.641 12.809,16.171 1.497,2.53 6.154,10.445 10.313,15.102 4.159,4.658 3.66,-0.998 3.66,-6.82 0,-5.822 0.332,-5.822 -3.161,-14.472 -3.493,-8.65 2.329,-12.809 6.488,-11.811 4.158,0.998 15.304,15.637 16.135,18.777 0.832,3.14 5.324,3.514 6.155,0 0.832,-3.514 -3.493,-9.96 -3.493,-9.96 0,0 -7.153,-14.473 -9.315,-18.299 -2.163,-3.826 4.657,-9.315 8.317,-7.319 3.66,1.996 10.48,7.985 12.476,12.476 1.996,4.492 4.325,2.163 4.325,2.163 0,0 5.822,-5.656 9.315,-12.643 3.494,-6.986 0.832,-14.472 0.832,-14.472 0,0 -2.162,-4.491 -7.319,-17.649 -4.674,-11.924 14.805,-10.978 14.805,-10.978 4.99,-0.5 11.977,10.646 11.977,10.646 1.331,3.493 8.484,2.828 7.153,-4.824 -1.331,-7.652 -5.822,-13.641 -5.822,-13.641 -5.157,-10.147 -8.318,-16.302 -8.318,-16.302 -3.493,-5.323 3.826,-9.315 13.807,-6.155 9.981,3.161 16.252,12.29 16.252,12.29 0,0 4.454,2.818 7.09,2.545 2.636,-0.273 -3.636,-10.181 -3.636,-10.181 0,0 -7.908,-11.907 -10.725,-21.613 -2.818,-9.707 4.363,-8.363 8.089,-7.727 3.727,0.637 11.272,8.726 11.272,8.726 7.726,2.364 2.908,-4.181 2.908,-4.181 0,0 -7.999,-4.726 -6.817,-9.089 1.182,-4.364 -6.726,-12.181 -6.726,-12.181 -14.635,-13.634 -10.09,-20.475 -10.09,-20.475 2.454,-8.635 10.181,-6.544 18.361,-4.181 8.181,2.363 17.543,9.181 19.179,9.908 1.637,0.727 6.999,1.272 6.999,1.272 0.273,0.637 9.636,0.728 6.363,-7.271 -3.272,-7.999 -6.181,-2.182 -7.726,-18.089 -1.545,-15.907 -5.999,-16.179 -13.362,-21.542 -7.362,-5.363 -8.271,-9.908 -4.454,-14.18 3.818,-4.272 12.18,-4.381 21.997,-2.927 9.817,1.454 24.906,13.725 24.906,13.725 h 12.18 c 5.181,4.273 15.089,2.818 15.089,2.818 7.454,-1.181 6.181,-8.817 6.181,-8.817 -13.089,-5.363 -12.406,-8.616 -12.406,-8.616 v -9.96 l -13.176,-8.235 c -21.803,-5.882 -11.45,-16 -11.45,-16 l 17.411,-10.587 c 14.901,-4.157 26.124,9.423 26.124,9.423 0,0 10.663,11.878 25.177,15.629 14.514,3.75 7.743,-4.063 7.743,-4.063 l -6.702,-6.702 v -15.694 c 0,0 -0.486,-0.486 -10.972,-9.653 -10.486,-9.167 -8.195,-15.139 -2.361,-21.806 5.833,-6.667 16.806,6.389 16.806,6.389 l 5.069,2.014 c 10.556,0.833 23.195,5.625 25.556,9.514 2.361,3.889 8.165,1.915 9.863,0.218 1.697,-1.697 7.542,-2.263 10.937,-2.263 3.394,0 7.354,-4.337 7.354,-4.337 12.822,-12.634 23.005,-9.335 23.005,-9.335 h 20.64 c 16.606,-16.337 28.006,-13.106 28.006,-13.106 0,0 12.747,1.257 19.21,-0.269 6.462,-1.526 9.155,-4.309 9.155,-4.309 l 12.657,-11.489 c 13.195,-12.029 23.518,-1.975 23.518,-1.975 l 20.107,19.838 c 0,0 15.439,-0.09 23.069,1.885 7.63,1.974 11.579,9.155 11.579,9.155 2.244,1.347 2.334,8.438 2.334,8.438 6.283,4.398 3.86,11.31 3.86,11.31 -5.117,7.72 -1.347,6.104 -1.347,6.104 30.161,-7.271 37.252,20.915 37.252,20.915 l 7.989,8.797 c 8.976,2.064 12.002,8.117 12.002,8.117 l 11.262,11.287 c 8.719,-6.477 34.156,25.9 34.156,25.9 l 47.083,26.905 38.863,24.663 19.36,16.069 c 47.266,16.484 42.648,19.462 60.983,29.554 18.334,10.092 18.502,19.007 18.502,19.007 13.793,9.419 15.138,21.698 15.138,21.698 18.839,15.979 25.732,30.79 25.732,30.79 9.166,14.695 6.334,27.911 6.334,27.911 -0.105,0 -11.929,25.113 -28.147,47.61 -16.219,22.496 -28.147,3.348 -28.671,3.348 -0.523,0 0,-9.417 0,-9.417 l -10.777,-9.941 c 0.628,-7.952 -2.197,-4.499 -2.197,-4.499 0,0 -0.419,4.081 -7.953,4.709 -7.534,0.628 -6.906,-7.743 -6.906,-7.743 1.256,-8.267 -1.674,-5.965 -1.674,-5.965 -6.487,22.393 -15.591,9.104 -15.591,9.104 -3.034,-8.58 -4.499,-5.651 -4.499,-5.651 -5.546,7.22 -14.544,3.139 -13.603,-2.511 0.942,-5.65 -1.988,-5.232 -1.988,-5.232 -4.813,1.151 -10.15,5.651 -10.15,5.651 h -33.274 c -21.346,-9.836 -30.449,-10.673 -30.449,-10.673 -7.324,-4.5 -26.996,-7.115 -26.996,-7.115 0,0 -4.185,-2.93 -20.195,-7.639 -16.009,-4.709 -33.797,-17.893 -33.797,-17.893 -24.276,-3.976 -25.027,-8.894 -25.027,-8.894 -13.165,-27.1 -37.669,-12.765 -37.669,-12.765 -31.878,-3.041 -27.31,-9.104 -41.436,-8.999 -13.462,0.1 -31.914,14.858 -31.914,14.858 15.067,6.488 26.263,19.881 26.263,19.881 0,0 10.673,11.719 12.766,14.335 2.093,2.616 3.348,11.406 3.348,11.406 l 8.267,22.496 c 2.825,14.022 -11.615,9.522 -11.615,9.522 0,0 -7.115,-4.394 -9.313,-8.58 -2.197,-4.185 -3.662,-0.314 -3.662,-0.314 l -0.857,2.761 c -7.111,9.92 -3.504,10.519 -3.504,10.519 6.313,6.312 6.313,9.586 6.313,9.586 l 1.169,13.561 2.104,14.262 c 4.442,-0.468 9.586,17.536 17.068,27.122 7.482,9.586 18.938,16.6 18.938,16.6 l 11.691,11.457 12.358,12.576 c 8.544,11.856 32.432,32.432 38.709,36.965 6.277,4.534 24.237,13.95 34.176,16.914 9.939,2.964 31.386,12.031 31.386,12.031 31.909,22.668 0,29.642 0,29.642 -12.206,4.708 -29.642,4.185 -29.642,4.185 0,0 -4.708,4.534 -38.012,0.698 -33.304,-3.836 -45.336,-18.832 -45.336,-18.832 -2.441,-4.533 -19.877,-18.483 -19.877,-18.483 -14.647,-8.892 -25.458,-23.191 -25.458,-23.191 -11.159,-17.262 -43.592,-34.873 -59.982,-40.801 -16.39,-5.929 -41.499,-22.145 -67.654,-36.792 -26.155,-14.646 -44.638,-35.222 -45.859,-39.232 -1.22,-4.011 -15.344,-55.449 -18.482,-46.033 -3.139,9.416 -2.79,16.391 -2.79,16.391 0.174,9.59 -4.534,10.113 -4.534,10.113 v 8.021 C 328.241,557.35 319,590.305 319,590.305 c 2.79,-19.006 5.928,-85.265 3.487,-70.618 -2.255,13.53 -6.147,22.299 -6.727,23.557 0.105,-0.744 0.222,-4.441 -0.422,-21.814 -0.872,-23.539 -4.533,-9.939 -4.533,-9.939 1.395,5.754 -6.103,60.331 -6.103,60.331 -3.139,10.462 -13.601,39.93 -13.601,39.93 0,0 7.672,-102.179 -4.882,-61.853 -12.554,40.326 -39.381,89.571 -39.381,89.571 5.379,-14.217 12.168,-53.667 12.168,-53.667 -0.513,-8.325 -3.203,-2.951 -3.203,-2.951 -5.251,8.32 -11.271,27.666 -11.271,27.666 v 22.927 l -1.793,-6.532 c -0.384,-4.099 -4.611,-2.736 -4.611,-2.736 -17.932,11.739 -38.297,68.909 -38.297,68.909 0,0 -0.128,-9.606 0.897,-18.572 1.024,-8.966 8.453,-28.562 12.936,-40.602 4.483,-12.04 16.523,-29.331 16.523,-29.331 1.665,-2.05 1.024,-8.838 1.024,-8.838 -7.813,-11.784 -11.271,-21.006 -11.271,-21.006 -1.537,-8.069 -3.202,-4.355 -3.202,-4.355 -5.508,22.286 -7.557,52.386 -7.557,52.386 l -2.177,7.301 c -14.602,7.556 -29.075,65.194 -29.075,65.194 l 0.512,-22.415 0.384,-9.222 0.769,-10.759 c 0,0 4.867,-21.261 4.995,-31.508 0.128,-10.247 -2.562,-32.661 -4.483,-37.272 -1.921,-4.611 -4.355,-0.897 -4.355,-0.897 0,0 1.922,14.858 0,26.898 -1.921,12.039 -7.557,10.63 -7.557,10.63 -27.922,-1.024 -23.695,33.046 -23.695,33.046 9.478,6.148 21.774,35.095 21.774,35.095 -17.163,-13.961 -24.464,-12.552 -24.464,-12.552 -4.611,3.074 -2.946,36.503 -2.946,36.503 l 4.996,12.937 6.148,1.537 15.37,14.601 c 1.409,-9.478 8.453,-18.7 8.453,-18.7 18.316,-25.488 22.159,-0.256 22.159,-0.256 l 2.561,2.177 3.971,1.537 4.227,1.025 3.074,0.769 4.354,0.896 3.459,-0.384 c 6.66,-2.562 17.89,-1.229 17.89,-1.229 3.97,-12.655 22.085,-10.256 22.085,-10.256 7.527,-7.528 15.385,-7.197 15.385,-7.197 -0.083,-5.211 13.731,-11.586 13.731,-11.586 -11.994,-17.954 0.992,-31.514 0.992,-31.514 -7.858,-1.406 -10.505,-14.558 -7.444,-24.483 3.06,-9.926 12.903,-10.174 12.903,-10.174 -0.909,-3.061 -0.33,-6.039 -0.33,-6.039 5.211,-6.948 19.436,-9.383 19.436,-9.383 42.859,-8.007 58.872,18.368 58.872,18.368 -44.429,-10.048 -50.058,6.839 -50.058,6.839 -12.155,0.935 -9.378,3.581 -9.378,3.581 2.725,5.364 -1.362,5.62 -1.788,10.217 -0.426,4.598 6.699,3.902 6.699,3.902 0.749,-8.232 13.347,-13.548 13.347,-13.548 57.126,-13.055 72.494,32.968 72.494,32.968 -27.871,-23.076 -54.964,-16.713 -54.964,-16.713 -9.895,10.976 -14.634,12.223 -14.634,12.223 -2.079,2.328 -3.909,2.744 -3.909,2.744 -4.24,14.053 -6.984,14.468 -6.984,14.468 -2.578,3.576 -9.397,1.913 -9.397,1.913 -1.496,1.33 -1.496,4.074 -1.496,4.074 4.49,2.246 2.661,20.373 2.661,20.373 2.494,8.731 -6.237,11.514 -6.237,11.514 0.25,20.079 -21.702,13.637 -21.702,13.637 -3.493,4.158 -14.386,1.309 -14.386,1.309 -10.643,16.276 -26.692,3.326 -26.692,3.326 -7.483,11.309 -24.613,6.735 -24.613,6.735 l -8.897,10.062 -0.249,21.619 c 0,0 -10.836,13.251 1.63,-1.81 12.089,-14.606 26.851,-0.828 27.733,0.019 0.014,0.031 0.041,0.04 0.041,0.04 0,0 -0.014,-0.013 -0.041,-0.04 z M 88.271,651.262 c 0.24,0.331 0.367,0.526 0.367,0.526 0,0 -0.132,-0.186 -0.367,-0.526 -1.194,-1.647 -5.205,-6.641 -10.468,-7.487 -6.32,-1.015 -1.241,12.415 -1.241,12.415 l 1.693,3.611 39.161,39.162 v -40.742 c -3.16,-14.446 -8.238,-8.69 -8.238,-8.69 0,0 -20.879,-22.684 -24.942,-27.199 -4.063,-4.514 -6.207,0.79 -6.207,0.79 0,0 -3.273,2.37 -1.129,8.69 1.894,5.581 9.596,16.883 11.371,19.45 z m 521.748,-327.624 -0.021,19.746 c 0,0 2.196,1.136 2.797,3.941 0.601,2.804 3.906,4.006 3.906,4.006 0,0 2.204,0.501 2.604,4.206 1.097,10.141 -8.313,14.423 -8.313,14.423 0,0 -7.311,3.506 -9.114,12.921 -1.803,9.414 10.817,15.224 10.817,15.224 9.915,1.302 8.413,13.22 8.413,13.22 15.725,4.608 17.127,16.226 17.127,16.226 2.905,0.801 9.715,7.011 18.329,7.412 8.614,0.4 22.836,-13.622 22.836,-13.622 0,0 11.118,-8.914 15.725,-16.326 4.607,-7.411 6.911,-14.022 3.806,-25.84 -3.105,-11.819 -27.143,-30.048 -27.143,-30.048 l -15.694,-15.366 c -5.934,-11.519 -7.33,-11.17 -10.472,-18.5 -3.141,-7.33 -14.66,-16.755 -14.66,-16.755 0,0 -10.821,-3.839 -15.358,-0.349 -4.538,3.491 -9.076,4.538 -9.076,13.613 0,9.076 3.491,11.868 3.491,11.868 z m -497.593,269.764 0.823,33.593 c 0,0 1.318,2.47 0.329,5.435 0,0 3.129,3.622 5.27,3.458 2.141,-0.165 5.27,-3.458 5.27,-3.458 0,0 4.117,-9.058 5.599,-15.809 1.482,-6.752 -1.153,-18.773 -1.153,-18.773 0,0 -1.318,-7.904 -8.893,-9.222 -7.575,-1.317 -7.245,3.788 -7.245,4.776 z M 541.018,306.767 c 3.683,8.594 -12.279,14.242 -12.279,14.242 -1.227,-0.982 -25.538,14.734 -20.136,29.222 5.403,14.489 16.453,18.418 16.453,18.418 0,0 11.05,9.086 21.364,4.174 10.314,-4.911 13.997,-13.506 13.997,-13.506 3.684,-11.05 8.84,-15.716 8.84,-15.716 l 11.296,-16.207 c 6.63,-15.716 2.701,-19.891 1.228,-32.169 -1.473,-12.278 -8.595,-27.012 -12.524,-36.343 -3.929,-9.332 -11.541,-18.663 -27.012,-13.261 -15.47,5.403 -21.118,21.61 -16.944,34.134 4.175,12.524 15.717,27.012 15.717,27.012 z M 238.106,551.076 c 0,0 0,8.039 -0.915,12.417 -0.915,4.379 -2.222,10.391 -2.222,10.391 l 0.131,11.96 c 0,0 0.13,5.104 3.921,6.862 3.79,1.757 8.365,-10.333 10.456,-15.235 2.091,-4.901 0.066,-13.658 0.066,-13.658 0,0 -0.915,-3.529 1.699,-5.294 0,0 3.855,-9.214 -4.575,-12.155 -8.43,-2.941 -8.561,4.712 -8.561,4.712 z m -150.217,53.03 c 0,0 7.575,8.069 12.186,15.479 0,0 3.623,1.976 4.776,0 0,0 2.141,-1.153 2.635,-4.94 0.494,-3.788 1.646,-13.174 -8.234,-18.279 0,0 -12.351,-3.788 -11.363,7.74 z M 690.711,438.482 c 0,0 15.767,8.934 18.657,9.065 2.891,0.132 31.928,0.132 33.504,0.263 1.577,0.132 16.555,-2.365 11.957,-16.029 -4.599,-13.665 -21.548,-25.096 -32.979,-23.125 -11.431,1.971 -21.285,3.285 -32.453,12.614 -11.168,9.328 1.314,17.212 1.314,17.212 z"
   id="path1" />
            </g>
            <g
   id="Teeth"
   transform="translate(4276.44)">
                <path
   d="m 546.599,543.05 c 0,0 -6.512,11.701 -13.428,13.428 0,0 -6.567,2.497 1.127,7.323 0,0 1.259,2.411 9.652,-10.389 0,0 1.241,-2.328 2.649,-10.362 z"
   id="path2" />
                <path
   d="m 533.529,537.115 c 0,0 -10.492,10.142 -8.394,12.8 2.098,2.658 2.238,3.007 2.238,3.007 0,0 0.98,1.679 3.847,-4.686 0,0 0.07,-4.686 2.309,-11.121 z"
   id="path3" />
                <path
   d="m 556.218,551.188 c 0,0 -3.477,10.177 -11.195,13.994 -7.718,3.816 -8.226,6.445 -8.226,6.445 0,0 -2.206,3.138 0.593,4.834 2.799,1.697 5.767,-0.678 5.767,-0.678 0,0 2.29,-1.357 8.227,-8.736 5.937,-7.378 4.834,-15.859 4.834,-15.859 z"
   id="path4" />
                <path
   d="m 568.288,566.571 c 0,0 -6.176,12.131 -16.321,14.557 -10.145,2.426 -9.042,9.924 -9.042,9.924 0,0 0.33,5.735 8.932,-0.22 8.601,-5.955 16.431,-24.261 16.431,-24.261 z"
   id="path5" />
                <path
   d="m 585.711,574.07 c 0,0 -11.862,20.708 -28.23,28.892 -0.662,0.331 -7.719,4.411 5.734,8.381 13.454,3.97 22.496,-37.273 22.496,-37.273 z"
   id="path6" />
                <path
   d="m 602.142,583.554 c 0,0 -15.679,25.379 -28.341,35.288 -2.536,1.985 2.647,7.939 4.853,7.278 2.205,-0.662 12.494,-15.403 23.488,-42.566 z"
   id="path7" />
                <path
   d="m 614.018,606.345 c 0,0 -5.198,10.916 -25.584,28.672 -3.418,2.977 10.256,11.358 14.446,5.183 4.191,-6.176 9.925,-25.805 11.138,-33.855 z"
   id="path8" />
                <path
   d="m 636.404,613.734 c 0,0 -24.426,31.204 -34.262,37.934 0,0 3.495,9.704 13.64,6.948 10.146,-2.757 20.622,-44.882 20.622,-44.882 z"
   id="path9" />
                <path
   d="m 647.1,619.909 c 0,0 -19.298,38.713 -27.827,44 -3.38,2.095 6.103,7.168 6.103,7.168 0,0 7.394,-2.025 11.028,-14.716 3.634,-12.692 7.093,-17.141 10.696,-36.452 z"
   id="path10" />
                <path
   d="m 673.657,598.438 c 0,0 -4.59,21.711 -9.991,27.733 -5.401,6.021 -12.827,16.244 -12.827,16.244 0,0 -6.886,9.49 -9.046,14.351 -2.16,4.86 -0.945,8.506 -0.945,8.506 0,0 3.645,4.32 9.316,0.27 5.671,-4.051 8.101,-7.696 8.101,-7.696 l 5.131,-8.641 3.645,-7.696 c 0,0 3.241,-0.936 6.616,-43.071 z"
   id="path11" />
                <path
   d="m 674.286,655.997 c 0,0 -1.414,4.798 -13.358,11.278 -11.943,6.48 -11,4.594 -11,4.594 0,0 -11.472,5.186 -11,8.486 0.471,3.3 4.243,4.243 4.243,4.243 l 8.8,1.257 c 0,0 1.894,0.472 5.111,-3.929 3.218,-4.4 12.332,-9.743 17.204,-25.929 z"
   id="path12" />
                <path
   d="m 705.716,629.282 c 0,0 -11.001,26.715 -20.587,33.001 -4.055,2.659 -5.713,7.233 -8.91,10.774 -4.362,4.829 -9.694,8.682 -10.419,11.855 -1.257,5.5 2.929,7.344 3.743,7.994 0.814,0.649 4.429,1.435 10.086,-2.808 5.657,-4.243 8.643,-10.843 8.643,-10.843 0,0 11.315,-13.81 17.444,-49.973 z"
   id="path13" />
                <path
   d="m 710.932,655.331 c 0,0 -10.935,17.947 -12.837,20.562 -1.901,2.614 -12.098,13.426 -12.454,17.529 -0.357,4.102 2.352,6.717 2.352,6.717 0,0 3.446,1.783 7.369,-4.16 3.922,-5.943 12.361,-21.75 15.57,-40.648 z"
   id="path14" />
                <path
   d="m 723.887,670.933 c 0,0 -8.082,11.497 -14.144,19.579 -6.061,8.082 -8.439,13.312 -8.439,13.312 0,0 -3.446,11.885 7.607,7.25 0,0 6.418,-2.566 14.976,-40.141 z"
   id="path15" />
                <path
   d="m 611.455,479.613 c 0,0 -0.53,-7.854 4.317,-7.37 2.105,0.211 1.263,2.843 1.263,2.843 0,0 -2.842,3.895 -5.58,4.527 z"
   id="path16" />
                <path
   d="m 617.201,490.036 c 0,0 4.047,-6.228 4.677,-12.844 0.211,-2.211 5.159,-3.369 5.053,1.158 -0.105,4.527 -6.931,9.685 -9.73,11.686 z"
   id="path17" />
                <path
   d="m 622.067,500.669 c 0,0 7.004,-9.381 9.497,-18.029 0.842,-2.922 6.948,-2.606 4.948,3.29 -2.001,5.895 -11.834,14.528 -14.445,14.739 z"
   id="path18" />
                <path
   d="m 631.564,510.67 c 0,0 4.722,-2.699 12.107,-20.634 1.474,-3.58 5.264,-1.474 5.264,2.948 0,4.421 -8.107,15.791 -17.371,17.686 z"
   id="path19" />
                <path
   d="m 636.912,531.2 c 0,0 11.4,-15.753 17.392,-31.754 1.474,-3.936 7.791,-8.748 8.001,0.554 0.211,9.302 -15.307,24.252 -25.393,31.2 z"
   id="path20" />
                <path
   d="m 647.671,553.203 c 0,0 19.594,-30.249 23.162,-50.428 0.947,-5.359 10.633,-2.622 10.633,2.116 0,4.737 -12.423,35.691 -33.795,48.312 z"
   id="path21" />
                <path
   d="m 663.893,553.938 c 0,0 14.282,-15.183 25.681,-41.844 1.414,-3.306 7.355,-5.796 13.665,0.825 2.238,2.348 -0.707,9.298 -3.416,11.89 -2.71,2.592 -11.427,14.553 -35.93,29.129 z"
   id="path22" />
                <path
   d="m 687.1,560.739 c 0,0 14.104,-14.793 25.917,-43.587 1.885,-4.594 14.018,-3.77 13.312,2.709 -0.707,6.479 -18.613,28.288 -39.229,40.878 z"
   id="path23" />
                <path
   d="m 712.781,563.08 c 0,0 9.18,-22.634 21.323,-41.938 4.123,-6.554 12.84,0.161 12.722,2.281 -0.117,2.121 3.335,0.113 -34.045,39.657 z"
   id="path24" />
                <path
   d="m 727.081,572.95 c 0,0 2.44,-2.266 8.366,-15.338 5.926,-13.072 13.595,-26.264 13.595,-26.264 0,0 5.606,-9.146 4.531,4.826 -0.697,9.063 -6.708,16.209 -6.708,16.209 l -7.932,8.356 c 0,0 -9.064,11.34 -11.852,12.211 z"
   id="path25" />
                <path
   d="m 742.973,574.479 c 0,0 10.413,-10.725 12.62,-23.8 0.556,-3.294 0.242,-19.806 7.928,-24.512 7.686,-4.706 8.941,0.471 9.882,5.804 0.941,5.333 -13.019,40.312 -30.43,42.508 z"
   id="path26" />
                <path
   d="m 760.541,570.557 c 0,0 3.339,-8.894 6.587,-12.339 3.451,-3.66 6.588,-10.719 8.941,-18.718 2.353,-8 7.059,-10.196 9.568,-8.471 2.51,1.726 0.157,8.314 -1.568,11.608 -1.726,3.294 -5.804,11.293 -8.784,13.96 -2.98,2.667 -15.372,14.431 -14.744,13.96 z"
   id="path27" />
                <path
   d="m 764.787,579.373 c 0,0 10.743,-8.356 18.171,-23.476 7.427,-15.12 9.947,-19.894 9.947,-19.894 0,0 5.836,-12.865 14.987,-2.388 0,0 6.366,7.295 -5.57,20.16 -11.937,12.865 -12.468,11.274 -12.468,11.274 0,0 -22.945,14.589 -25.067,14.324 z"
   id="path28" />
                <path
   d="m 799.96,569.51 c 0,0 10.527,-16.062 11.721,-23.55 1.194,-7.489 9.767,-10.744 9.767,-10.744 0,0 7.706,-2.279 5.101,8.031 -2.605,10.309 -19.643,21.813 -26.589,26.263 z"
   id="path29" />
                <path
   d="m 814.757,567.544 c 0,0 9.782,-9.863 11.192,-12.809 1.411,-2.947 5.701,-12.682 11.887,-16.264 0,0 8.277,-1.346 1.922,8.953 -3.147,5.101 -7.132,7.977 -7.132,7.977 0,0 -15.916,14.314 -17.869,12.143 z"
   id="path30" />
                <path
   d="m 807.552,584.097 c 0,0 13.722,-7.567 28.049,-23.912 0,0 9.576,-13.883 12.684,-9.192 3.107,4.692 5.114,6.946 2.924,11.638 -0.853,1.827 -9.566,7.981 -9.566,7.981 0,0 -22.729,12.713 -34.091,13.485 z"
   id="path31" />
            </g>
        </g>
    </g>
</svg>
