<svg xmlns="http://www.w3.org/2000/svg" xmlns:xlink="http://www.w3.org/1999/xlink" width="600" height="264.971"><linearGradient id="a" x1="0" x2="1" y1="0" y2="0" gradientTransform="rotate(150 62.547 162.12)scale(-51.1455 51.1455)" gradientUnits="userSpaceOnUse" spreadMethod="pad"><stop offset="0" style="stop-color:#8b723c"/><stop offset=".3" style="stop-color:#d2bb7b"/><stop offset=".5" style="stop-color:#ebd491"/><stop offset=".7" style="stop-color:#d2bb7b"/><stop offset="1" style="stop-color:#8b723c"/></linearGradient><linearGradient xlink:href="#a" id="b" x1="0" x2="1" y1="0" y2="0" gradientTransform="rotate(30 29.23 232.184)scale(472.09156)" gradientUnits="userSpaceOnUse" spreadMethod="pad"/><path d="M384.251 150.896c-.213.47-.461.904-.683 1.375.222-.508.434-.941.683-1.375"/><path d="M548.672 153.102c-12.914 17.667-34.18 28.623-53.324 37.023-.434.184-.905.36-1.339.545l18.784-83.941c.942-4.07-.074-8.326-2.667-11.575-.25-.323-.545-.535-.794-.794 24.193 9.018 42.976 20.482 46.336 39.7.14.905.213 1.81.213 2.668 0 5.88-3.425 11.104-7.209 16.374m-203.825 71.24-13.956.582c-.572 0-1.117.074-1.662.176-9.23 1.486-27.358 2.058-36.884.58-.72-.11-1.403-.184-2.123-.184h-9.23c-1.016-.066-36.276-2.77-37.43-2.88-1.403-.221-16.799-2.815-16.799-2.815-15.396-2.446-29.925-4.827-43.198-8.972-1.948-.62-4.108-1.412-6.415-2.28h58.981c16.09.074 32.741.11 46.088-5.076 10.024-3.896 18.064-9.628 24.664-17.344 13.411 22.06 43.733 22.134 66.984 22.134h1.45c14.205 0 28.872 0 41.24-3.895 4.007-1.218 7.791-2.99 11.363-5.15.508 1.366 1.154 2.704 2.086 3.858a13.6 13.6 0 0 0 10.385 5.113c-16.255 4.117-33.276 7.68-51.229 11.252-1.19.148-43.595 4.837-44.315 4.902m-176.79-90.357s-5.731-4.652-8.685-7.025c.396-.147 2.344-.756 2.344-.756l16.329-5.197c-.757 3.424-3.028 13.67-3.96 17.814-1.985-1.624-3.969-3.175-6.027-4.836M165.5 204.08c-6.775-2.52-13.846-4.763-20.584-5.806-.757-4.864-1.624-10.522-1.661-10.67a7847 7847 0 0 0-1.985-16.264s-1.55-12.793-1.874-15.645c8.945 4.54 17.916 9.516 27.331 14.962-2.021 8.907-4.578 20.224-4.578 20.224a13.6 13.6 0 0 0-.323 3v.895c0 3.609 1.403 6.849 3.674 9.304m203.539-47.878c-.037-.332-.074-.655-.074-1.015 0-7.024 6.526-12.904 10.67-13.947 4.55-1.154 8.695-1.052 10.966-.582.249 2.668 1.228 5.26 2.88 7.357-2.086 1.55-3.821 3.673-4.79 6.202.285-.757.645-1.117.645-1.117-3.064 3.277-16.005 5.077-20.297 3.102m112.85-70.815a819 819 0 0 1 14.824 4.578h-35.62a13.76 13.76 0 0 0-13.448 10.78l-.435 1.912c-7.9-6.563-17.999-9.517-27.478-11.29-.573-.11-1.154-.175-1.726-.25-4.043-.183-39.663-2.131-53.112.075-19.688 3.24-34.18 10.024-44.638 20.907-4.144-7.421-10.458-13.338-18.72-16.91-12.183-5.225-27.58-5.086-42.505-4.975l-6.526.037h-21.774c67.852-18.97 179.595-26.14 251.158-4.865m117.76 60.967c-7.134-52.853-58.409-72.828-92.34-86.101-24.368-9.517-50.73-14.353-78.633-19.467l-11.612-2.132c-.396-.074-.868-.138-1.301-.212l-35.62-3.212c-.213-.037-.434-.037-.61-.037l-25.346-1.19h-31.846l-15.608.294c-.286 0-.582 0-.904.037l-38.574 3.24c-.332.037-.942.11-1.265.185l-19.365 3.064c-11.824 1.726-24.045 3.563-35.841 6.563-16.366 4.18-32.159 9.369-47.703 15.498.11-.175.507-1.043.545-1.08.397-.72 12.147-21.378 12.147-21.378 1.19-2.132 1.81-4.476 1.81-6.784 0-3.71-1.514-7.357-4.33-10.024a13.715 13.715 0 0 0-16.91-1.55c-5.953 3.82-9.59 10.023-12.544 14.999l-2.381 3.858s-19.54 27.368-19.9 27.876c-3.287-11.068-8.844-29.925-8.982-30.322-.11-.471-7.283-28.088-7.283-28.088C103.38 3.283 96.236-1.221 89.064.293c-6.452 1.403-10.929 6.996-10.929 13.375 0 .756.037 1.476.185 2.233l3.637 22.504c2.307 13.698 4.578 27.728 6.092 41.749-9.046-4.578-17.695-9.046-25.993-13.91L40.605 53.58c-.868-.5-1.625-.86-2.557-1.154l-1.19-.397c-6.425-2.123-13.348.794-16.45 6.748-1.042 1.984-1.513 4.144-1.513 6.276 0 4.283 1.984 8.437 5.594 11.105 0 0 18.137 13.559 18.386 13.734.25.213 21.923 17.233 24.59 19.329a144556 144556 0 0 0-57.08 17.593c-.684.212-1.477.545-2.087.83l-.618.286C2.89 130.312 0 135.14 0 140.262c0 1.265.185 2.594.545 3.858 1.874 6.415 8.15 10.57 14.824 9.84 11.141-1.255 22.208-3.388 32.878-5.437 9.23-1.81 18.674-3.535 28.3-4.836-.322.683-1.44 3.027-1.44 3.027-7.928 17.02-15.47 33.1-24.303 48.57-1.19 2.096-1.837 4.468-1.837 6.85v.285c0 7.615 6.166 13.78 13.772 13.78h.296c4.54 0 8.796-2.242 11.353-5.99 0 0 26.786-39.007 27.008-39.303.037-.066 2.778-3.82 4.357-6.018 1.698 6.092 3.286 12.332 4.836 18.498l4.542 17.556c0-.037-.037-.25-.037-.25 0 .074.074.36.11.435l-.073-.185c.36 1.412 5.298 21.6 5.621 23.04.905 6.746 6.6 11.97 13.596 11.97h.286c4.006 0 7.827-1.762 10.421-4.827.434-.508.794-1.015 1.154-1.587.222.147 4.181 1.726 4.181 1.726 15.147 6.563 30.617 11.325 47.777 16.485 92.848 27.719 236.85 21.304 321.041-14.39 25.208-10.67 50.915-23.907 68.01-48.025 4.07-5.733 14.851-20.953 12.433-38.98"/><path d="M229.864 127.248c12.332-.185 29.602-1.8 36.848 3.535 5.049 3.71 5.88 12.009 3.821 19.43-1.043 3.858-2.667 8.26-5.086 11.464-4.357 5.769-12.618 8.62-19.504 9.7-2.16.324-25.743.149-25.78.36a18510 18510 0 0 0 9.701-44.49m356.126 20.98c-5.88-43.732-47.703-61.113-83.655-75.134-26.463-10.31-56.24-15-87.79-20.916l-35.666-3.24-25.347-1.19h-30.93c-5.197.1-10.385.175-15.618.323l-38.574 3.203c-18.571 3.36-36.921 5.012-54.228 9.452-29.824 7.606-55.567 17.778-79.834 30.073 5.695-11.834 11.39-23.62 17.095-35.371 4.107-7.283 8.252-14.538 12.369-21.82-4.652 3.036-7.938 10.78-11.178 15.33-12.01 16.8-23.98 33.6-35.953 50.37-.11.177-.212.398-.322.573A32633 32633 0 0 1 99.3 42.154c-2.446-9.406-4.938-18.858-7.394-28.264 4.228 28.153 10.93 58.484 11.51 88.944-5.408-2.557-10.817-5.077-16.226-7.643-11.003-5.584-21.784-10.993-32.094-17.085-7.172-4.218-14.344-8.437-21.489-12.655-.322-.11-.609-.221-.904-.332 6.166 4.615 12.369 9.23 18.534 13.845 8.76 6.895 17.529 13.78 26.252 20.63 6.166 5.05 12.368 10.024 18.534 15.036-6.452 2.05-12.95 4.145-19.439 6.203-20.694 6.378-41.426 12.757-62.157 19.144-.185.11-.397.175-.582.286 27.405-3.028 54.34-11.824 85.132-12.083v.333c-12.221 24.95-22.753 50.074-36.239 73.62v.287h.296c9.045-13.117 18.063-26.316 27.11-39.48 6.276-8.611 12.58-17.27 18.857-25.927l1.19-.858c8.437 18.35 12.581 40.88 18.277 61.29 1.947 8.04 3.932 16.088 5.88 24.165v.535h.285a10650 10650 0 0 0-5.012-32.703c-1.366-11.252-2.732-22.568-4.108-33.857-.793-7.57-1.587-15.101-2.344-22.68 21.424 8.945 40.207 19.8 59.204 30.94-2.271 10.025-4.542 20.049-6.776 30.037v.895h55.383c16.836 0 34.106.619 46.262-4.144 15.064-5.88 23.538-16.08 29.454-31.227 3.25-8.252 7.135-21.848 4.43-33.561-2.048-8.77-7.531-14.787-15.026-18-11.077-4.716-27.839-3.821-43.595-3.821h-56.573c-4.33 19.476-8.658 38.906-12.978 58.345h-.295c-12.147-7.901-22.892-17.74-34.18-26.5-5.622-4.403-12.692-8.843-17.086-14.464 19.43-6.203 38.906-12.37 58.336-18.572 4.938-1.55 20.196-4.32 22.965-7.356-9.045 3.212-19.319 3.609-29.454 5.593-9.23 1.302-18.46 2.557-27.69 3.822v-.25c6.562-3.285 13.162-6.488 19.761-9.774 13.624-5.88 28.19-10.67 43.014-15.286 70.52-21.996 191.096-30.11 267.496-7.393 33.386 9.95 77.129 23.547 83.396 59.526 2.243 12.914-4.68 22.938-9.443 29.464-13.993 19.254-35.804 31.4-58.917 41.536-32.814 14.344-69.265 22.32-109.61 30.36-15.11 1.65-30.249 3.313-45.359 5.01-4.827.176-9.627.398-14.417.573-10.68 1.773-30.11 2.345-41.25.62h-9.739c-12.867-1.016-25.743-1.985-38.583-2.964-21.987-3.923-43.087-6.267-62.48-12.368-11.141-3.49-26.648-11.17-38.297-12.36 4.043 3.166 9.738 4.865 14.75 7.024 14.492 6.314 29.639 11.003 46.226 15.94 92.303 27.58 233.316 19.394 311.737-13.844 24.774-10.532 47.527-22.642 62.166-43.3 4.579-6.498 11.612-17.316 9.988-29.177m-124.896-44.49c-6.785 30.248-13.56 60.505-20.344 90.716h38.297c6.775-30.211 13.559-60.47 20.334-90.716zm-59.536 55.382c-4.828 12.765-42.755 17.916-45.968.609-2.852-15.61 9.702-29.057 20.621-31.836 12.443-3.138 29.427-1.292 28.014 11.797h43.31c.498-23.805-10.311-31.088-30.323-34.8 0 0-37.752-2.16-50.084-.146-27.155 4.513-42.367 15.433-49.834 39.958-1.726 5.732-4.246 13.91-2.917 22.06 4.255 26.76 28.559 27.692 59.49 27.692 13.919 0 27.838.147 38.62-3.203 15.248-4.8 24.801-17.815 30.644-32.131z" style="fill:#8b723c"/><path d="m322.38 51.42-15.11.286-38.214 3.212c-6.747 1.228-13.375 2.197-20.011 3.176-11.861 1.763-23.04 3.424-33.968 6.203-27.506 7.024-53.398 16.799-79.03 29.777l-9.738 4.938 4.726-9.84 5.473-11.288-16.836 23.583-4.689 6.738-2.16-7.245-7.753-26.178c1.08 9.23 1.836 18.609 2.021 27.987l.11 5.944-5.371-2.52-6.563-3.101-9.775-4.615-2.345-1.191c-2.52-1.302-5.049-2.566-7.531-3.858l4.18 3.313 18.572 15.037 5.335 4.292-6.562 2.095-9.701 3.064-9.766 3.102-9.129 2.806c9.812-1.477 19.873-2.52 30.396-2.63l5.99.248-2.64 5.372c-3.96 8.05-7.707 16.117-11.5 24.202-.61 1.293-1.22 2.63-1.838 3.96l7.643-10.458 9.415-12.978 1.006-.932.397-.332 4.218-3.102 1.911 4.117c3.425 7.495 6.166 15.646 8.584 24.008l-.323-2.667-1.154-11.317-1.153-11.362-.619-6.166 5.705 2.38c8.4 3.537 16.439 7.32 24.294 11.364a59 59 0 0 0-2.668-2.058c-1.329-1.08-2.778-2.133-4.255-3.213-4.827-3.563-9.84-7.245-13.485-11.898l-3.24-4.18 5.049-1.625 31.946-10.126-6.166.82-22.282 2.706 20.371-10.09 19.68-9.7c14.03-6.055 29.14-10.993 43.382-15.433 42.432-13.2 101.137-21.092 157.055-21.092 15.618 0 30.617.61 44.823 1.8l-4.874-.895-23.796-2.17-11.713-1.08-25.171-1.19zm141.668 56.028-18.683 83.332h30.728l8.215-36.746 10.458-46.586zm-96.31.942c-26.934 4.467-40.087 14.925-46.946 37.466-1.652 5.51-3.96 13.089-2.769 20.335 3.637 22.965 23.538 24.59 55.844 24.59h2.705c11.685 0 24.95 0 34.835-3.065 10.882-3.425 19.614-11.797 26.03-24.922H403.8c-4.91 7.615-17.925 11.685-28.817 11.685-12.757 0-21.415-5.26-23.04-14.094-3.1-16.984 9.85-32.667 23.372-36.054 3.748-.942 7.717-1.486 11.501-1.486 7.93 0 14.243 2.206 17.806 6.166 1.735 1.947 2.815 4.292 3.175 6.96h35.989c-.582-18.932-9.812-24.23-26.796-27.406-.175 0-17.556-1.006-32.343-1.006-7.892 0-13.624.286-16.91.83m-108.53-.682-6.702.037h-53.619l-12.332 55.447-1.218 4.329-5.345 23.546h50.989l5.224.037h5.234c12.369 0 25.236-.286 34.466-3.895 13.2-5.16 21.378-13.882 27.368-29.131 2.705-6.886 6.85-20.16 4.255-31.411-1.698-7.172-6.129-12.507-12.876-15.424-7.357-3.138-18.202-3.572-28.808-3.572zm-42.691 63.237 8.298-37.715 1.44-6.775.646-2.852 2.926-.037c1.985-.028 4.108-.102 6.341-.14 3.213-.11 6.563-.22 9.85-.22 11.648 0 18.497 1.375 22.89 4.615 5.917 4.292 7.939 13.522 5.197 23.408-1.477 5.335-3.424 9.627-5.732 12.692-5.704 7.606-16.153 10.2-21.857 11.104-1.293.212-6.019.25-15.757.25-4.827.036-9.23.036-10.125.11l-5.16.47zm356.31-39.838c2.594 14.888-5.658 26.177-10.06 32.232-15.36 21.092-39.156 33.46-60.432 42.802-33.238 14.528-69.661 22.42-110.653 30.607l-45.645 5.012-7.218.287-6.775.258c-6.415 1.043-15.931 1.69-24.876 1.69-4.836 0-11.796-.176-16.983-1.044H280.16l-13.485-1.043-25.134-1.91c27.69 4.938 58.594 7.458 91.26 7.458 67.899 0 134.994-11.243 179.595-30.138 22.864-9.7 46.041-21.525 60.616-42.08 3.203-4.58 10.846-15.36 9.295-26.501-1.837-13.81-7.283-24.774-15.322-33.93a48.7 48.7 0 0 1 5.842 16.3" style="fill:url(#b)"/></svg>