<svg xmlns="http://www.w3.org/2000/svg" xmlns:xlink="http://www.w3.org/1999/xlink" width="600" height="264.971"><linearGradient id="a" x1="0" x2="1" y1="0" y2="0" gradientTransform="rotate(-30 563.6 -78.985)scale(51.14844 -51.14843)" gradientUnits="userSpaceOnUse" spreadMethod="pad"><stop offset="0" style="stop-color:#536e78"/><stop offset=".3" style="stop-color:#99aebc"/><stop offset=".5" style="stop-color:#d9eaf3"/><stop offset=".7" style="stop-color:#99aebc"/><stop offset="1" style="stop-color:#536e78"/></linearGradient><linearGradient xlink:href="#a" id="b" x1="0" x2="1" y1="0" y2="0" gradientTransform="rotate(30 28.634 231.904)scale(472.1187 472.11857)" gradientUnits="userSpaceOnUse" spreadMethod="pad"/><path d="M384.252 150.895c-.212.47-.461.905-.683 1.375.222-.507.434-.941.683-1.375"/><path d="M548.673 153.1c-12.914 17.668-34.18 28.624-53.324 37.024-.434.185-.905.36-1.338.545l18.783-83.94c.942-4.071-.074-8.327-2.667-11.576-.25-.323-.544-.535-.794-.794 24.193 9.019 42.976 20.483 46.336 39.7.14.905.213 1.81.213 2.668 0 5.88-3.424 11.104-7.209 16.374m-203.825 71.24-13.956.582a9 9 0 0 0-1.662.175c-9.23 1.486-27.358 2.059-36.884.582-.72-.11-1.403-.184-2.123-.184h-9.23c-1.016-.067-36.276-2.77-37.43-2.88a7409 7409 0 0 1-16.799-2.816c-15.396-2.446-29.925-4.827-43.198-8.971-1.948-.62-4.107-1.413-6.415-2.28h58.982c16.089.073 32.74.11 46.087-5.077 10.024-3.895 18.064-9.627 24.664-17.344 13.411 22.06 43.733 22.135 66.984 22.135h1.45c14.205 0 28.872 0 41.24-3.896 4.007-1.218 7.791-2.99 11.363-5.15.509 1.366 1.154 2.704 2.087 3.858a13.6 13.6 0 0 0 10.384 5.114c-16.255 4.116-33.276 7.68-51.229 11.25-1.19.149-43.595 4.838-44.315 4.903M168.06 133.986s-5.732-4.652-8.686-7.025c.397-.147 2.345-.756 2.345-.756l16.328-5.197c-.757 3.424-3.027 13.67-3.96 17.814-1.984-1.624-3.969-3.175-6.027-4.836m-2.557 70.095c-6.775-2.52-13.845-4.763-20.583-5.806-.757-4.864-1.625-10.522-1.662-10.67a7847 7847 0 0 0-1.984-16.264s-1.551-12.793-1.874-15.645c8.944 4.54 17.916 9.516 27.33 14.962-2.02 8.907-4.577 20.224-4.577 20.224a13.6 13.6 0 0 0-.324 3v.895c0 3.609 1.403 6.849 3.674 9.304m203.539-47.878c-.037-.332-.074-.655-.074-1.015 0-7.024 6.526-12.904 10.67-13.947 4.55-1.154 8.695-1.052 10.966-.582.249 2.668 1.227 5.26 2.88 7.357-2.086 1.55-3.822 3.673-4.79 6.202.286-.757.645-1.117.645-1.117-3.064 3.277-16.005 5.077-20.297 3.102m112.85-70.815a819 819 0 0 1 14.824 4.578h-35.62a13.76 13.76 0 0 0-13.449 10.78l-.434 1.912c-7.901-6.563-17.999-9.517-27.479-11.29-.572-.11-1.153-.174-1.726-.248-4.043-.185-39.663-2.132-53.111.074-19.689 3.24-34.18 10.024-44.638 20.907-4.145-7.422-10.458-13.338-18.72-16.91-12.183-5.225-27.58-5.086-42.505-4.976l-6.526.037h-21.774c67.852-18.968 179.595-26.14 251.158-4.864m117.76 60.966c-7.134-52.853-58.41-72.827-92.34-86.1-24.368-9.517-50.73-14.354-78.633-19.467l-11.612-2.132c-.397-.074-.868-.14-1.302-.213l-35.62-3.212c-.212-.037-.433-.037-.609-.037l-25.346-1.19h-31.846l-15.608.294c-.286 0-.581 0-.905.037l-38.573 3.24c-.333.037-.942.11-1.265.185l-19.365 3.064c-11.824 1.726-24.045 3.563-35.842 6.563-16.365 4.18-32.158 9.369-47.702 15.498.11-.176.507-1.043.544-1.08.397-.72 12.147-21.378 12.147-21.378 1.19-2.132 1.81-4.476 1.81-6.784 0-3.71-1.514-7.357-4.33-10.024a13.715 13.715 0 0 0-16.91-1.55c-5.953 3.82-9.59 10.023-12.544 14.999l-2.381 3.858s-19.54 27.368-19.9 27.876c-3.287-11.068-8.844-29.925-8.982-30.322-.11-.471-7.283-28.088-7.283-28.088C103.38 3.283 96.236-1.221 89.064.293c-6.452 1.403-10.929 6.996-10.929 13.375 0 .756.037 1.476.185 2.233l3.637 22.504c2.307 13.698 4.578 27.728 6.092 41.749-9.046-4.578-17.695-9.046-25.993-13.91L40.605 53.58c-.868-.5-1.625-.86-2.557-1.154l-1.19-.397c-6.425-2.123-13.348.793-16.45 6.747-1.042 1.985-1.513 4.144-1.513 6.277 0 4.283 1.984 8.436 5.594 11.104 0 0 18.137 13.56 18.386 13.735.25.212 21.923 17.233 24.59 19.328a144556 144556 0 0 0-57.08 17.593 18 18 0 0 0-2.086.83l-.62.287C2.89 130.31 0 135.138 0 140.26c0 1.265.185 2.594.544 3.859 1.874 6.415 8.15 10.568 14.824 9.84 11.141-1.256 22.208-3.388 32.879-5.438 9.23-1.81 18.673-3.535 28.3-4.836-.323.683-1.44 3.027-1.44 3.027-7.929 17.02-15.47 33.1-24.303 48.57-1.191 2.096-1.837 4.468-1.837 6.85v.286c0 7.615 6.166 13.78 13.771 13.78h.296c4.541 0 8.796-2.242 11.353-5.99 0 0 26.787-39.007 27.008-39.303.037-.066 2.779-3.82 4.357-6.018 1.698 6.092 3.286 12.332 4.837 18.498l4.54 17.556c0-.037-.036-.25-.036-.25 0 .075.074.36.11.435l-.073-.184c.36 1.412 5.298 21.599 5.621 23.039.905 6.747 6.6 11.972 13.597 11.972h.286c4.006 0 7.827-1.763 10.421-4.828.434-.508.794-1.015 1.154-1.588.222.148 4.181 1.727 4.181 1.727 15.147 6.562 30.617 11.325 47.777 16.485 92.848 27.719 236.85 21.304 321.041-14.39 25.208-10.67 50.915-23.907 68.01-48.026 4.07-5.732 14.85-20.953 12.433-38.98"/><path d="M229.865 127.247c12.332-.185 29.602-1.8 36.848 3.535 5.049 3.71 5.88 12.009 3.821 19.43-1.043 3.858-2.667 8.26-5.086 11.464-4.356 5.77-12.618 8.62-19.504 9.7-2.16.324-25.743.149-25.78.36 3.25-14.814 6.489-29.675 9.701-44.49m356.126 20.98c-5.88-43.732-47.702-61.113-83.655-75.134-26.463-10.31-56.24-15-87.79-20.916l-35.666-3.24c-8.436-.396-16.873-.794-25.346-1.19h-30.931c-5.197.1-10.384.175-15.618.322l-38.574 3.203c-18.571 3.36-36.921 5.012-54.228 9.452-29.823 7.606-55.567 17.778-79.834 30.072a11570 11570 0 0 1 17.095-35.37c4.108-7.283 8.252-14.538 12.369-21.82-4.652 3.036-7.938 10.78-11.178 15.33-12.009 16.8-23.98 33.6-35.953 50.37-.11.176-.212.397-.323.573A32636 32636 0 0 1 99.301 42.15c-2.446-9.405-4.938-18.857-7.393-28.263 4.227 28.153 10.929 58.484 11.51 88.944-5.409-2.557-10.818-5.077-16.227-7.643-11.002-5.584-21.784-10.993-32.094-17.085-7.172-4.22-14.344-8.437-21.488-12.655-.324-.11-.61-.222-.905-.332 6.166 4.615 12.369 9.23 18.535 13.845a27926 27926 0 0 0 26.251 20.63c6.166 5.049 12.369 10.024 18.535 15.036-6.452 2.05-12.95 4.145-19.44 6.203-20.694 6.378-41.425 12.756-62.157 19.144-.184.11-.397.176-.582.286 27.405-3.028 54.34-11.825 85.132-12.083v.332c-12.221 24.95-22.753 50.075-36.238 73.622v.286h.295c9.046-13.116 18.064-26.316 27.11-39.478 6.276-8.612 12.58-17.27 18.857-25.928l1.19-.86c8.437 18.35 12.582 40.883 18.277 61.29 1.948 8.04 3.932 16.09 5.88 24.166v.535h.286c-1.652-10.854-3.314-21.774-5.012-32.703-1.366-11.251-2.732-22.568-4.107-33.857-.794-7.57-1.588-15.1-2.345-22.68 21.424 8.946 40.208 19.8 59.204 30.94-2.271 10.026-4.542 20.05-6.775 30.037v.895h55.382c16.836 0 34.106.62 46.262-4.144 15.064-5.88 23.538-16.08 29.454-31.226 3.25-8.252 7.135-21.85 4.431-33.562-2.05-8.77-7.532-14.787-15.027-18-11.077-4.716-27.839-3.82-43.595-3.82h-56.573c-4.329 19.476-8.658 38.906-12.978 58.345h-.295c-12.147-7.902-22.892-17.741-34.18-26.5-5.622-4.404-12.692-8.843-17.086-14.465 19.43-6.202 38.906-12.368 58.336-18.571 4.938-1.55 20.196-4.32 22.965-7.357-9.045 3.212-19.319 3.61-29.454 5.594-9.23 1.3-18.46 2.557-27.69 3.82v-.248c6.562-3.286 13.162-6.49 19.761-9.775 13.624-5.88 28.19-10.67 43.014-15.285 70.52-21.996 191.096-30.11 267.496-7.394 33.386 9.95 77.129 23.547 83.396 59.527 2.243 12.913-4.68 22.937-9.443 29.463-13.993 19.255-35.804 31.402-58.917 41.537-32.814 14.344-69.265 22.319-109.61 30.359a14895 14895 0 0 0-45.359 5.012c-4.827.175-9.627.396-14.417.572-10.68 1.772-30.11 2.344-41.25.619h-9.739c-12.867-1.016-25.743-1.985-38.583-2.963-21.986-3.923-43.087-6.268-62.48-12.37-11.141-3.488-26.648-11.168-38.297-12.36 4.043 3.168 9.738 4.866 14.75 7.026 14.492 6.314 29.639 11.003 46.226 15.94 92.304 27.58 233.316 19.394 311.737-13.845 24.774-10.532 47.527-22.642 62.166-43.3 4.579-6.498 11.612-17.316 9.988-29.177m-124.896-44.49c-6.785 30.248-13.56 60.505-20.344 90.716h38.297c6.775-30.21 13.56-60.468 20.334-90.716zm-59.536 55.382c-4.828 12.766-42.755 17.916-45.967.61-2.853-15.61 9.7-29.058 20.62-31.836 12.443-3.138 29.427-1.292 28.014 11.796h43.31c.498-23.805-10.311-31.087-30.322-34.798 0 0-37.753-2.16-50.084-.148-27.156 4.514-42.368 15.433-49.835 39.958-1.726 5.733-4.246 13.91-2.917 22.06 4.255 26.76 28.559 27.692 59.49 27.692 13.92 0 27.839.148 38.62-3.203 15.248-4.8 24.802-17.814 30.644-32.13z" style="fill:#536e78"/><path d="m322.667 51.42-15.359.286-38.25 3.212c-6.674 1.19-13.274 2.16-19.837 3.138-11.935 1.8-23.177 3.46-34.143 6.203-27.506 7.06-53.36 16.836-79.067 29.814l-9.738 4.9 4.763-9.801 5.409-11.252-16.772 23.546-4.717 6.739-2.169-7.246-7.68-26.067c1.044 9.194 1.8 18.498 1.948 27.876l.148 5.944-5.372-2.52-16.301-7.716-1.006-.545c-3.028-1.514-6.028-3.064-8.981-4.541a428 428 0 0 1 4.255 3.35l5.123 4.145 13.412 10.855 5.372 4.292-6.526 2.095-14.03 4.505-5.474 1.726-8.981 2.778c9.7-1.477 19.753-2.557 30.248-2.63l5.99.249-2.64 5.372c-3.923 8.049-7.68 16.05-11.427 24.09-.646 1.33-1.292 2.742-1.947 4.145l17.094-23.51.36-.507.508-.323 1.08-.83 3.637-2.77 1.947 4.18c3.462 7.497 6.203 15.684 8.621 24.083l-.323-2.74-1.19-11.317-1.154-11.363-.656-6.166 5.742 2.382c8.4 3.498 16.402 7.282 24.257 11.362a58 58 0 0 0-2.63-2.095 152 152 0 0 0-4.145-3.101c-4.901-3.61-9.95-7.32-13.596-11.972l-3.24-4.182 5.049-1.587 29.168-9.304 2.815-.896-6.203.859-22.577 2.815 20.408-10.061 19.938-9.803c14.178-6.13 29.241-11.067 43.382-15.47 42.432-13.2 101.137-21.091 157.092-21.091 15.58 0 30.58.609 44.786 1.8l-4.874-.896-35.51-3.25-12.119-.58-13.051-.61zm141.382 55.99-18.683 83.406h30.728l18.636-83.405zm-96.31.98c-26.934 4.467-40.087 14.925-46.909 37.39-1.689 5.512-3.996 13.09-2.806 20.447 3.637 22.928 23.538 24.59 55.844 24.59h3.064c13.957 0 25.347-.26 34.44-3.102 10.919-3.424 19.65-11.796 26.066-24.922h-33.636c-4.873 7.615-17.925 11.686-28.78 11.686-12.83 0-21.451-5.262-23.076-14.095-3.064-16.947 9.849-32.63 23.371-36.09a47.7 47.7 0 0 1 11.501-1.45c7.892 0 14.243 2.206 17.806 6.203 1.735 1.91 2.815 4.292 3.212 6.923h35.98c-.61-18.96-9.84-24.23-26.824-27.405-.175 0-17.556-1.006-32.343-1.006-7.929 0-13.624.286-16.91.83m-108.494-.683h-60.394l-12.295 55.456-1.19 4.218c-1.8 7.93-3.563 15.82-5.372 23.723h56.074l5.012.036c12.507 0 25.559-.323 34.826-3.932 13.2-5.16 21.378-13.845 27.368-29.13 2.705-6.887 6.85-20.123 4.219-31.412-1.662-7.172-6.092-12.507-12.877-15.424-7.347-3.175-18.128-3.572-28.66-3.572zm-42.727 63.237 9.738-44.49.619-2.852 2.953-.037c2.022-.028 4.145-.065 6.342-.175 3.212-.074 6.525-.185 9.848-.185 11.65 0 18.498 1.338 22.892 4.578 5.88 4.33 7.9 13.56 5.196 23.445-1.449 5.299-3.36 9.554-5.732 12.692-5.667 7.569-16.116 10.237-21.885 11.104-1.301.213-6.027.213-15.728.25-4.828.036-9.23.036-10.126.11l-5.16.434zm356.348-39.838c2.556 14.815-5.659 26.177-10.099 32.233-15.359 21.09-39.155 33.46-60.43 42.764-33.424 14.64-69.764 22.494-110.691 30.608l-23.87 2.667-21.737 2.382-7.219.286-6.775.295c-6.378 1.043-15.904 1.653-24.839 1.653-4.836 0-11.833-.176-16.983-1.044H280.16l-18.534-1.44-20.372-1.587c-.36-.074-.72-.11-1.043-.185 27.978 5.123 59.352 7.717 92.553 7.717 67.899 0 135.031-11.243 179.632-30.137 22.864-9.701 46.014-21.49 60.58-42.081 5.048-7.136 10.706-16.587 9.331-26.538-1.763-13.162-7.135-23.906-14.704-32.814 2.483 4.588 4.283 9.664 5.262 15.22M240.212 239.738" style="fill:url(#b)"/></svg>