<?xml version="1.0" encoding="UTF-8" standalone="no"?>
<svg
   width="198.85031pt"
   height="184.78729pt"
   viewBox="0 0 198.85031 184.78729"
   version="1.1"
   id="svg4"
   xmlns="http://www.w3.org/2000/svg"
   xmlns:svg="http://www.w3.org/2000/svg">
  <defs
     id="defs4" />
  <g
     id="g2"
     transform="translate(-0.59410315,-3.7399117)">
    <path
       fill="#ffffff"
       stroke="#ffffff"
       stroke-width="0.09375"
       d="M 0.63,75.52 C 20.7,51.62 40.77,27.72 60.83,3.81 56.2,24.5 51.54,45.18 46.91,65.88 c 10.91,3.91 21.84,7.82 32.76,11.73 6.79,19.43 13.54,38.87 20.33,58.29 6.79,-19.43 13.53,-38.87 20.34,-58.29 10.93,-3.88 21.84,-7.81 32.76,-11.7 -4.63,-20.72 -9.31,-41.42 -13.93,-62.14 20.04,23.94 40.16,47.81 60.2,71.75 -17.01,8.29 -34.01,16.6 -51.05,24.81 -2.58,19.9 -5.1,39.8 -7.65,59.7 -13.51,9.54 -27.11,18.96 -40.66,28.44 C 86.45,178.98 72.9,169.5 59.33,160.04 56.79,140.14 54.24,120.23 51.69,100.33 34.68,92.04 17.66,83.78 0.63,75.52 m 9.55,-2.03 c 15.68,7.63 31.41,15.18 47.06,22.89 2.57,20.09 5.12,40.19 7.73,60.27 11.67,8.17 23.36,16.32 35.05,24.48 11.7,-8.11 23.36,-16.29 35.02,-24.46 2.6,-20.1 5.13,-40.21 7.73,-60.3 15.71,-7.59 31.38,-15.26 47.06,-22.89 -13.13,-15.65 -26.26,-31.31 -39.41,-46.95 3.22,14.42 6.48,28.82 9.69,43.24 -11.69,4.15 -23.37,8.37 -35.05,12.54 -8.39,23.92 -16.69,47.88 -25.06,71.81 C 91.63,130.18 83.32,106.22 74.94,82.28 63.25,78.12 51.58,73.92 39.9,69.74 43.1,55.34 46.36,40.94 49.58,26.54 36.45,42.2 23.3,57.83 10.18,73.49 Z"
       id="path1" />
    <path
       fill="#ffffff"
       stroke="#ffffff"
       stroke-width="0.09375"
       d="m 95.39,26.57 c 5.56,-1.54 11.75,-0.68 16.63,2.42 6.12,3.76 10,10.87 9.81,18.06 -0.07,7.13 -4.11,14.05 -10.29,17.61 -6.35,3.83 -14.76,3.83 -21.11,0.02 C 83.27,60.61 79.08,52.03 80.3,43.88 81.28,35.78 87.51,28.67 95.39,26.57 m 0.98,5.97 c -7.1,2.15 -11.69,10.12 -9.92,17.34 1.5,7.72 9.85,13.17 17.53,11.36 7.99,-1.43 13.57,-10.18 11.45,-18.03 -1.74,-8.19 -11.15,-13.5 -19.06,-10.67 z"
       id="path2" />
  </g>
  <g
     id="g4"
     transform="translate(-0.59410315,-3.7399117)">
    <path
       stroke="#000000"
       stroke-width="0.09375"
       d="M 10.18,73.49 C 23.3,57.83 36.45,42.2 49.58,26.54 c -3.22,14.4 -6.48,28.8 -9.68,43.2 11.68,4.18 23.35,8.38 35.04,12.54 8.38,23.94 16.69,47.9 25.06,71.84 8.37,-23.93 16.67,-47.89 25.06,-71.81 11.68,-4.17 23.36,-8.39 35.05,-12.54 -3.21,-14.42 -6.47,-28.82 -9.69,-43.24 13.15,15.64 26.28,31.3 39.41,46.95 -15.68,7.63 -31.35,15.3 -47.06,22.89 -2.6,20.09 -5.13,40.2 -7.73,60.3 -11.66,8.17 -23.32,16.35 -35.02,24.46 C 88.33,172.97 76.64,164.82 64.97,156.65 62.36,136.57 59.81,116.47 57.24,96.38 41.59,88.67 25.86,81.12 10.18,73.49 Z"
       id="path3" />
    <path
       stroke="#000000"
       stroke-width="0.09375"
       d="m 96.37,32.54 c 7.91,-2.83 17.32,2.48 19.06,10.67 2.12,7.85 -3.46,16.6 -11.45,18.03 C 96.3,63.05 87.95,57.6 86.45,49.88 84.68,42.66 89.27,34.69 96.37,32.54 Z"
       id="path4" />
  </g>
</svg>
