<svg xmlns="http://www.w3.org/2000/svg" xml:space="preserve" width="150" height="149.26" viewBox="0 0 150 149.26"><path d="M144.396 56.738s-1.953 14.993-9.918 28.449a124 124 0 0 0-4.173-16.906c2.524-25.354 12.562-32.389 12.562-32.389s-13.022-9.652-23.133-18.231c0 0-4.29 5.669-13.635 5.669-.657 0-1.306-.021-1.949-.053-.22-.24-.444-.498-.662-.732C90.625 8.685 80.367 2.545 75.001 0c-5.367 2.545-15.624 8.685-28.487 22.545-.218.234-.442.492-.662.732a40 40 0 0 1-1.95.053c-9.345 0-13.635-5.669-13.635-5.669C20.156 26.24 7.134 35.893 7.134 35.893s10.038 7.034 12.562 32.389a124.5 124.5 0 0 0-4.172 16.906C7.559 71.732 5.606 56.739 5.606 56.739S1.353 69.434 1.353 89.195c0 32.632 12.247 51.287 12.247 51.287 1.136-4.692 6.144-18.836 14.682-32.693 2.526.235 12.615 1.668 24.527 10.022-.189-13.057-9.782-20.943-14.348-23.958a78 78 0 0 1 2.823-3.062c4.679 3.229 12.822 10.283 15.083 21.385 1.875-4.89 3.275-10.34 3.275-15.734 0-8.421-4.169-13.165-6.459-15.139a43 43 0 0 1 3.881-2.047l-.004.004c2.917 2.931 6.718 8.427 6.718 17.182 0 8.979-3.382 17.863-6.795 24.545 5.952 4.868 12.176 11.512 18.017 20.61 5.841-9.099 12.064-15.742 18.017-20.61-3.413-6.682-6.795-15.566-6.795-24.545 0-8.755 3.801-14.251 6.718-17.182l-.003-.003a43 43 0 0 1 3.88 2.046c-2.29 1.975-6.459 6.718-6.459 15.139 0 5.395 1.4 10.845 3.275 15.734 2.261-11.102 10.403-18.155 15.083-21.385a77 77 0 0 1 2.822 3.062c-4.565 3.015-14.158 10.901-14.348 23.958 11.912-8.354 22.002-9.787 24.527-10.022 8.539 13.858 13.545 28.001 14.682 32.693 0 0 12.248-18.655 12.248-51.287.001-19.761-4.251-32.457-4.251-32.457"/><path fill="#fff" d="M131.377 92.881C124.93 37.68 86.457 11.8 77.068 6.258v37.869c9.632 1.035 17.158 9.209 17.158 19.111 0 1.354-.15 2.672-.418 3.948 2.415-3.43 6.241-10.757 5.281-21.874 0 0 7.58 17.77-4.924 29.95 28.146 12.406 42.572 53.772 42.572 53.772 9.958-23.438 6.895-53.158 6.895-53.158-4.596 14.707-12.255 17.005-12.255 17.005M55.834 75.263c-12.504-12.181-4.924-29.95-4.924-29.95-.96 11.117 2.866 18.444 5.281 21.874a19 19 0 0 1-.418-3.948c0-9.902 7.526-18.076 17.158-19.111V6.258C63.542 11.8 25.07 37.68 18.622 92.881c0 0-7.659-2.298-12.256-17.004 0 0-3.063 29.72 6.895 53.158.001 0 14.427-41.366 42.573-53.772"/><path fill="#fff" d="M104.15 23.277c.644.031 1.292.053 1.949.053 9.345 0 13.635-5.669 13.635-5.669 10.11 8.579 23.133 18.231 23.133 18.231s-10.037 7.034-12.562 32.389a124.5 124.5 0 0 1 4.087 16.471c-.246-3.062.024-16.02.024-16.02 2.252-22.715 10.799-29.431 10.885-29.496L150 35.942l-4.671-3.373c-.13-.096-13.032-9.673-22.92-18.063l-3.335-2.829-2.639 3.487c-.098.119-3.329 4.028-10.337 4.028-.601 0-1.192-.02-1.78-.049l-4.301-.206a152 152 0 0 1 3.47 3.606c.218.236.443.494.663.734m31.996 116.237c-.035-.131-.081-.282-.121-.423a64 64 0 0 0-.209-.717c-.052-.17-.111-.356-.168-.536a40 40 0 0 0-.248-.785c-.063-.198-.135-.41-.204-.618q-.14-.423-.294-.872c-.076-.225-.159-.459-.242-.694a71 71 0 0 0-.336-.946l-.279-.764a157 157 0 0 0-.697-1.841 177 177 0 0 0-.779-1.967q-.241-.593-.494-1.201c-.12-.289-.238-.576-.363-.87-.183-.434-.375-.879-.568-1.324-.123-.282-.242-.561-.368-.847-.215-.487-.441-.987-.669-1.486-.117-.26-.23-.514-.351-.776-.299-.648-.61-1.308-.928-1.972-.058-.119-.11-.235-.168-.355q-.569-1.181-1.177-2.39c-.119-.235-.245-.475-.365-.71-.29-.569-.582-1.139-.885-1.714-.172-.327-.354-.657-.529-.985-.263-.489-.524-.978-.796-1.469-.202-.367-.413-.736-.622-1.105a163 163 0 0 0-.781-1.372q-.34-.584-.688-1.167-.389-.656-.787-1.313l-.313-.504c-2.525.235-12.615 1.668-24.527 10.022.189-13.057 9.782-20.943 14.348-23.959q-.212-.242-.426-.483a81 81 0 0 0-2.004-2.163c-.132-.137-.26-.278-.393-.414-4.68 3.229-12.822 10.283-15.083 21.385-1.875-4.89-3.275-10.34-3.275-15.734 0-8.421 4.169-13.164 6.459-15.139l-.401-.232-3.476-1.811c-2.917 2.931-6.718 8.427-6.718 17.182 0 8.979 3.382 17.863 6.795 24.545-5.952 4.868-12.176 11.512-18.017 20.61-5.841-9.099-12.064-15.742-18.017-20.61 3.413-6.682 6.795-15.566 6.795-24.545 0-8.755-3.801-14.251-6.718-17.182l-3.476 1.812q-.201.114-.401.231c2.29 1.975 6.459 6.718 6.459 15.139 0 5.395-1.4 10.845-3.275 15.734-2.26-11.102-10.403-18.155-15.083-21.385-.133.137-.262.278-.395.416a77 77 0 0 0-2.002 2.161q-.214.24-.426.483c4.566 3.016 14.159 10.902 14.348 23.959-11.913-8.354-22.002-9.787-24.527-10.022l-.31.5q-.402.662-.794 1.323-.345.578-.682 1.155-.402.696-.791 1.39c-.205.362-.412.727-.612 1.088-.277.501-.544.999-.811 1.497-.171.318-.347.639-.514.956-.313.593-.613 1.181-.912 1.768-.111.218-.229.439-.338.656q-.61 1.214-1.182 2.399l-.131.277c-.331.691-.655 1.378-.966 2.052-.113.246-.219.484-.329.729-.235.517-.469 1.032-.691 1.537-.12.271-.233.536-.349.804-.2.461-.399.921-.589 1.369-.119.28-.231.554-.345.828-.174.421-.347.839-.512 1.246l-.328.822a120 120 0 0 0-1.145 2.987q-.139.375-.27.737-.18.498-.346.973-.121.344-.235.675c-.105.307-.204.6-.299.889-.067.202-.136.408-.199.602-.091.281-.173.543-.254.804-.054.174-.112.355-.162.521a50 50 0 0 0-.213.728l-.119.414c-.072.262-.132.493-.188.718-.018.069-.041.152-.057.219l.028.043c1.029-4.249 5.225-16.246 12.344-28.763l1.905.176c4.108.38 25.518 3.703 43.634 31.927l3.48 5.423 3.48-5.423c18.116-28.224 39.525-31.547 43.634-31.927l1.905-.176c7.119 12.517 11.314 24.514 12.344 28.763l.028-.043-.058-.22a22 22 0 0 0-.186-.72M7.134 35.893s13.022-9.652 23.133-18.231c0 0 4.29 5.669 13.635 5.669.657 0 1.306-.021 1.95-.053.219-.24.444-.498.662-.732a150 150 0 0 1 3.47-3.606l-4.301.206c-.588.029-1.18.049-1.78.049-7.008 0-10.239-3.909-10.337-4.028l-2.639-3.487-3.335 2.829c-9.888 8.39-22.79 17.967-22.92 18.063L0 35.943l4.699 3.294c.086.065 8.633 6.781 10.885 29.496 0 0 .271 12.958.024 16.02a124.5 124.5 0 0 1 4.087-16.471C17.171 42.927 7.134 35.893 7.134 35.893"/></svg>