<svg xmlns="http://www.w3.org/2000/svg" xml:space="preserve" width="150" height="149.233" viewBox="0 0 150 149.233"><g transform="translate(-2.662 -3.087)"><path d="m77.662 152.32 3.48-5.423c18.117-28.224 39.525-31.547 43.635-31.927l1.904-.176c7.119 12.517 11.314 24.514 12.344 28.763 0 0 12.248-18.657 12.248-51.288 0-19.763-4.252-32.459-4.252-32.459s-1.953 14.994-9.918 28.45c-.33-1.904-.025-16.463-.025-16.463 2.252-22.715 10.799-29.431 10.885-29.496l4.699-3.294-4.67-3.373c-.131-.096-13.033-9.673-22.92-18.063l-3.336-2.829-2.639 3.487c-.098.119-3.328 4.028-10.336 4.028-.602 0-1.193-.02-1.781-.049L102.646 22C91.441 10.69 82.546 5.409 77.662 3.087 72.777 5.409 63.883 10.691 52.678 22l-4.334.208c-.588.029-1.18.049-1.779.049-7.008 0-10.24-3.909-10.338-4.028l-2.639-3.487-3.334 2.829c-9.889 8.39-22.791 17.967-22.92 18.063l-4.672 3.373 4.699 3.294c.086.065 8.633 6.781 10.885 29.496 0 0 .305 14.559-.025 16.463-7.965-13.456-9.918-28.45-9.918-28.45S4.051 72.507 4.051 92.27c0 32.631 12.248 51.288 12.248 51.288 1.029-4.249 5.225-16.246 12.344-28.763l1.906.176c4.107.38 25.518 3.703 43.633 31.927z"/><linearGradient id="a" x1="9.797" x2="145.529" y1="82.695" y2="82.695" gradientUnits="userSpaceOnUse"><stop offset="0" style="stop-color:#bb2c26"/><stop offset=".03" style="stop-color:#be3226"/><stop offset=".07" style="stop-color:#c64225"/><stop offset=".114" style="stop-color:#d35d24"/><stop offset=".15" style="stop-color:#e07823"/><stop offset=".159" style="stop-color:#e17a23"/><stop offset=".258" style="stop-color:#ee8b1f"/><stop offset=".365" style="stop-color:#f5951e"/><stop offset=".5" style="stop-color:#f7981d"/><stop offset=".634" style="stop-color:#f5951e"/><stop offset=".742" style="stop-color:#ee8b1f"/><stop offset=".841" style="stop-color:#e17a23"/><stop offset=".85" style="stop-color:#e07823"/><stop offset=".86" style="stop-color:#db6e23"/><stop offset=".896" style="stop-color:#cd5125"/><stop offset=".931" style="stop-color:#c33d25"/><stop offset=".966" style="stop-color:#bd3026"/><stop offset="1" style="stop-color:#bb2c26"/></linearGradient><path fill="url(#a)" d="M48.543 26.342a121 121 0 0 0-26.18 45.049C19.846 46 9.797 38.958 9.797 38.958s13.021-9.652 23.133-18.231c0 0 4.289 5.669 13.635 5.669.665 0 1.324-.022 1.978-.054m-7.449 70.556c-3.914 4.46-7.309 9.3-10.166 13.954 2.502.231 12.609 1.654 24.545 10.024-.19-13.082-9.825-20.977-14.379-23.978m17.935 18.344c1.875-4.89 3.275-10.34 3.275-15.734 0-8.446-4.195-13.194-6.48-15.158-4.346 2.544-8.313 5.828-11.898 9.493 4.676 3.222 12.84 10.282 15.103 21.399m47.754-88.9a121.1 121.1 0 0 1 26.18 45.049c2.516-25.391 12.566-32.433 12.566-32.433s-13.023-9.652-23.133-18.231c0 0-4.291 5.669-13.635 5.669-.667 0-1.325-.022-1.978-.054m-6.929 94.535c11.934-8.37 22.041-9.793 24.543-10.024-2.855-4.654-6.25-9.494-10.166-13.954-4.555 3-14.188 10.895-14.377 23.978m11.544-27.034c-3.584-3.665-7.553-6.949-11.898-9.493-2.285 1.964-6.48 6.712-6.48 15.158 0 5.395 1.4 10.845 3.275 15.734 2.264-11.117 10.428-18.177 15.103-21.399m-22.513 5.665c0-8.755 3.801-14.251 6.717-17.182-3.25-1.481-6.689-2.525-10.313-3.018 4.459-2.622 7.463-7.458 7.463-13.005 0-8.335-6.756-15.091-15.09-15.091s-15.09 6.756-15.09 15.091c0 5.547 3.002 10.383 7.463 13.005-3.623.492-7.063 1.536-10.313 3.018 2.918 2.931 6.719 8.427 6.719 17.182 0 8.979-3.383 17.863-6.795 24.545 5.951 4.868 12.176 11.512 18.016 20.61 5.842-9.099 12.064-15.742 18.018-20.61-3.414-6.682-6.795-15.567-6.795-24.545" style="fill:url(#a)"/><path fill="#fff" d="M75.594 9.323v37.869c-9.631 1.035-17.158 9.209-17.158 19.111 0 1.354.15 2.672.418 3.948-2.414-3.43-6.24-10.757-5.281-21.874 0 0-7.58 17.77 4.924 29.95-28.146 12.406-42.572 53.772-42.572 53.772C5.968 108.661 9.03 78.941 9.03 78.941c4.598 14.706 12.256 17.004 12.256 17.004 6.446-55.2 44.919-81.08 54.308-86.622m4.136 0v37.869c9.633 1.035 17.158 9.209 17.158 19.111 0 1.354-.15 2.672-.418 3.948 2.416-3.43 6.242-10.757 5.281-21.874 0 0 7.58 17.77-4.924 29.95 28.146 12.406 42.572 53.772 42.572 53.772 9.959-23.438 6.895-53.158 6.895-53.158-4.596 14.706-12.256 17.004-12.256 17.004-6.446-55.2-44.919-81.08-54.308-86.622"/></g></svg>