<svg xmlns="http://www.w3.org/2000/svg" width="600" height="451.935"><linearGradient id="a" x1="0" x2="1" y1="0" y2="0" gradientTransform="translate(31.579 225.967)scale(536.81606)" gradientUnits="userSpaceOnUse" spreadMethod="pad"><stop offset="0" style="stop-color:#bf331c"/><stop offset=".3" style="stop-color:#d3641c"/><stop offset=".5" style="stop-color:#f6b91d"/><stop offset=".7" style="stop-color:#d3641c"/><stop offset="1" style="stop-color:#bf331c"/></linearGradient><path d="M599.955 451.935H376.857v-19.501c0-5.875 0-9.762-3.615-18.1-3.932-9.13-12.756-24.145-73.27-101.64-60.458 77.495-69.327 92.51-73.214 101.64-3.615 8.338-3.615 12.225-3.615 18.1v19.5H0l14.123-28.245c9.75-19.501 31.24-23.252 45.453-25.681 3.006-.532 5.955-1.062 8.61-1.729 7.637-1.887 38.392-40.47 138.36-170.312C106.623 96.127 75.869 57.554 68.14 55.656c-2.643-.7-5.604-1.187-8.654-1.718-14.168-2.474-35.613-6.225-45.363-25.692L0 0h223.143v19.512c0 5.864 0 9.75 3.615 18.089 3.887 9.14 12.756 24.145 73.214 101.64 60.514-77.495 69.383-92.5 73.27-101.64 3.615-8.338 3.615-12.225 3.615-18.089V0H600l-14.168 28.246c-9.75 19.467-31.161 23.218-45.318 25.692-3.05.532-6.01 1.017-8.654 1.718-7.774 1.898-38.528 40.47-138.406 170.311C493.377 355.808 524.131 394.392 531.86 396.28c2.598.667 5.558 1.198 8.564 1.729 14.168 2.429 35.657 6.18 45.453 25.68z"/><path d="M396.324 19.512c0 6.88 0 13.773-5.164 25.772-5.163 12.044-15.444 29.262-91.189 125.604-75.687-96.342-86.014-113.56-91.178-125.604-5.163-12-5.163-18.891-5.163-25.772H31.601c6.88 13.773 27.49 13.773 41.307 17.208 13.727 3.446 20.608 10.326 158.268 189.247C93.516 404.888 86.636 411.78 72.908 415.215c-13.818 3.446-34.426 3.446-41.307 17.219h172.03c0-6.892 0-13.773 5.162-25.817 5.164-12.044 15.49-29.218 91.178-125.615 75.745 96.397 86.026 113.56 91.19 125.615 5.163 12.044 5.163 18.925 5.163 25.817h172.074c-6.88-13.773-27.534-13.773-41.307-17.22-13.773-3.445-20.653-10.326-158.267-189.247C506.438 47.047 513.318 40.166 527.09 36.72s34.426-3.435 41.307-17.208Z" style="fill:url(#a);stroke-width:11.2984"/></svg>