<svg xmlns="http://www.w3.org/2000/svg" width="600" height="451.96"><linearGradient id="a" x1="0" x2="1" y1="0" y2="0" gradientTransform="translate(31.575 225.98)scale(536.846)" gradientUnits="userSpaceOnUse" spreadMethod="pad"><stop offset="0" style="stop-color:#536e78"/><stop offset=".3" style="stop-color:#99aebc"/><stop offset=".5" style="stop-color:#d9eaf3"/><stop offset=".7" style="stop-color:#99aebc"/><stop offset="1" style="stop-color:#536e78"/></linearGradient><path d="M600 451.96H376.845v-19.502c0-5.875 0-9.762-3.57-18.1-3.933-9.13-12.758-24.147-73.275-101.647-60.506 77.5-69.342 92.517-73.263 101.646-3.582 8.339-3.582 12.226-3.582 18.101v19.502H0l14.124-28.247c9.762-19.502 31.253-23.254 45.422-25.683 3.04-.531 5.954-1.062 8.61-1.729 7.672-1.886 38.439-40.473 138.412-170.32C106.64 96.131 75.873 57.556 68.156 55.658c-2.7-.7-5.605-1.186-8.7-1.718-14.17-2.474-35.57-6.225-45.332-25.693L0 0h223.155v19.513c0 5.865 0 9.751 3.582 18.09C230.658 46.744 239.494 61.75 300 139.25c60.517-77.5 69.342-92.505 73.274-101.646 3.57-8.339 3.57-12.225 3.57-18.09V0H600l-14.124 28.248c-9.75 19.468-31.208 23.219-45.377 25.693-3.039.531-6 1.017-8.643 1.718-7.729 1.898-38.496 40.473-138.413 170.321 99.962 129.848 130.73 168.435 138.413 170.321 2.598.667 5.559 1.198 8.598 1.73 14.17 2.428 35.671 6.18 45.422 25.682z"/><path d="M396.34 19.514c0 6.881 0 13.774-5.163 25.773-5.164 12.045-15.491 29.265-91.183 125.611-75.692-96.346-86.02-113.566-91.183-125.61-5.164-12-5.164-18.893-5.164-25.774H31.552c6.893 13.774 27.547 13.774 41.32 17.209C86.636 40.169 93.528 47.05 231.184 225.98 93.527 404.91 86.635 411.804 72.873 415.239c-13.774 3.446-34.428 3.446-41.32 17.22h172.094c0-6.893 0-13.774 5.164-25.818s15.49-29.22 91.183-125.623c75.692 96.403 86.02 113.567 91.183 125.623 5.164 12.044 5.164 18.925 5.164 25.818h172.095c-6.927-13.774-27.547-13.774-41.31-17.22-13.773-3.435-20.654-10.327-158.321-189.258C506.472 47.05 513.353 40.169 527.126 36.723c13.763-3.435 34.383-3.435 41.31-17.209Z" style="fill:url(#a);stroke-width:11.299"/></svg>