<svg xmlns="http://www.w3.org/2000/svg" width="536.808" height="412.922"><path d="M536.808 412.922c-6.892-13.773-27.545-13.773-41.273-17.22-13.772-3.434-20.653-10.326-158.313-189.247 137.66-178.92 144.54-185.802 158.313-189.248 13.728-3.434 34.381-3.434 41.273-17.207h-172.04c0 6.88 0 13.773-5.209 25.772-5.118 12.044-15.445 29.262-91.177 125.604-75.654-96.342-85.981-113.56-91.144-125.604-5.164-12-5.164-18.891-5.164-25.772H0c6.88 13.773 27.534 13.773 41.307 17.207 13.727 3.446 20.653 10.327 158.267 189.248C61.96 385.376 55.034 392.268 41.307 395.703 27.534 399.149 6.88 399.149 0 412.922h172.074c0-6.892 0-13.773 5.164-25.817 5.163-12.056 15.49-29.218 91.144-125.615 75.732 96.397 86.06 113.56 91.177 125.615 5.209 12.044 5.209 18.925 5.209 25.817z"/></svg>