<svg xmlns="http://www.w3.org/2000/svg" width="44.917" height="50.001"><g><path d="M20.806 49.971c-1.593-.252-3.6-1.064-5.01-2.027-1.396-.953-3.051-2.827-3.812-4.314-.301-.59-.303-.591-1.472-.359l-2.205.435c-.757.149-2.194.425-3.193.612-1 .188-2.034.391-2.298.451s-.509.082-.542.049c-.033-.032.042-.295.167-.583.125-.287.386-.894.581-1.349s.417-.974.497-1.156c.327-.748 1.41-3.341 1.875-4.486.313-.772.36-.65-.5-1.294-1.569-1.176-3.233-3.552-4.055-5.79-.645-1.756-.846-2.983-.839-5.113.006-1.698.042-2.077.305-3.19.8-3.384 2.484-6.079 4.945-7.917.575-.43.6-.498.364-1.029a91 91 0 0 1-.508-1.188c-.19-.454-.412-.975-.492-1.156-.078-.182-.298-.703-.487-1.157-.404-.971-.734-1.744-1.204-2.816-.365-.833-.409-1.037-.226-1.037.063 0 .67.095 1.349.21.679.116 2.076.342 3.106.501 1.029.16 2.444.387 3.144.505.699.118 1.327.216 1.394.216s.301-.326.52-.724A12.43 12.43 0 0 1 19.706.31c.99-.279 1.27-.31 2.806-.31 1.525 0 1.819.032 2.765.3 2.301.652 4.172 1.778 5.806 3.495.566.594 1.517 1.927 1.945 2.725.367.687.326.68 2.118.313.712-.146 1.989-.397 2.836-.56s2.136-.41 2.863-.552c1.948-.381 2.037-.393 2.037-.267 0 .111-.623 1.682-.946 2.384-.09.195-.232.542-.316.771a37 37 0 0 1-.556 1.352c-.222.515-.444 1.06-.495 1.211a26 26 0 0 1-.495 1.212c-.67 1.557-.673 1.567-.431 1.7.496.272 2.365 2.277 2.931 3.145 1.088 1.666 1.569 2.807 2.046 4.844.26 1.113.296 1.496.297 3.14 0 1.567-.043 2.069-.264 3.083-.7 3.211-2.31 5.926-4.616 7.784-.464.374-.861.692-.882.707-.049.035.662 1.812 1.143 2.851.16.347.693 1.596 1.197 2.808.164.395.344.802.401.907s.198.438.313.739l.208.549-.511-.064a37 37 0 0 1-1.393-.218 80 80 0 0 0-2.037-.319 70 70 0 0 1-2.037-.328c-.796-.146-3.169-.494-3.367-.494-.044 0-.241.283-.437.631-1.594 2.824-4.342 4.975-7.428 5.813-.891.241-1.384.305-2.588.331-.814.016-1.632.006-1.813-.022"/><linearGradient id="a" x1="2.543" x2="42.769" y1="36.47" y2="13.245" gradientUnits="userSpaceOnUse"><stop offset="0" style="stop-color:#8b723c"/><stop offset=".3" style="stop-color:#d2bb7b"/><stop offset=".5" style="stop-color:#ebd491"/><stop offset=".7" style="stop-color:#d2bb7b"/><stop offset="1" style="stop-color:#8b723c"/></linearGradient><path fill="url(#a)" d="M20.391 47.578c-2.998-.655-5.701-2.937-7.128-6.017-.261-.563-.516-.931-.646-.932-.118-.001-1.72.286-3.56.638s-3.377.607-3.417.568c-.039-.039.436-1.281 1.055-2.759l1.125-2.688 1.74 1.135c.957.625 3.227 2.116 5.045 3.314s4.371 2.877 5.672 3.73l2.368 1.552 7.061-4.81c3.883-2.646 7.106-4.765 7.162-4.708.107.109 2.304 5.179 2.265 5.228-.013.016-1.539-.216-3.392-.515-1.853-.298-3.493-.542-3.645-.542-.202 0-.361.197-.592.732-.814 1.882-2.632 3.974-4.302 4.947-1.97 1.154-4.659 1.598-6.811 1.127m-4.717-8.512-6.921-4.56V15.89l6.741-4.644 6.741-4.645 6.998 4.534 6.998 4.533v18.684l-6.611 4.52c-3.636 2.485-6.704 4.572-6.817 4.636-.151.086-2.111-1.135-7.129-4.442m9.607-1.82c3.573-.914 6.732-3.784 8.127-7.387.565-1.459.825-2.919.825-4.632 0-3.573-1.157-6.507-3.512-8.902-2.479-2.523-5.252-3.629-8.738-3.484-2.549.106-4.735.964-6.81 2.671-2.006 1.649-3.589 4.325-4.146 7.009-.299 1.44-.299 3.931 0 5.371 1.033 4.977 4.94 8.807 9.774 9.584 1.004.161 3.442.036 4.48-.23m-4.476-3.176c-2.427-.514-4.729-2.326-5.833-4.595-.775-1.593-1.026-2.664-1.015-4.338.035-5.321 4.013-9.266 9.052-8.979 2.998.172 5.714 2.013 7.078 4.798.76 1.554.979 2.502.979 4.249 0 1.75-.218 2.692-.986 4.27-.45.924-.806 1.406-1.686 2.285-1.302 1.302-2.554 1.987-4.243 2.323-1.289.259-2.079.255-3.346-.013m-14.082.501c-.041 0-.7-.511-1.33-1.136-1.363-1.352-2.258-2.801-2.828-4.579-1.466-4.572-.349-9.44 2.9-12.637.52-.512 1.228-.93 1.304-.93zM38.309 15.46c.008-.021.327.212.709.517 1.557 1.239 3.054 3.77 3.638 6.147.411 1.673.411 4.332 0 5.87-.617 2.309-1.376 3.729-2.829 5.292-.656.706-1.383 1.145-1.383 1.145M7.992 13.263c-.12-.286-.657-1.56-1.195-2.83s-.943-2.344-.9-2.387c.066-.066 5.944.797 6.793.997.236.056.329-.039.515-.526.468-1.226 1.516-2.792 2.558-3.825 1.212-1.202 2.383-1.929 3.939-2.445.957-.318 1.328-.366 2.823-.366 1.496 0 1.866.048 2.824.366a10.2 10.2 0 0 1 3.734 2.208c.986.903 2.24 2.695 2.73 3.902.18.442.41.821.512.842s1.792-.274 3.755-.654 3.581-.676 3.594-.656c.037.051-2.336 5.72-2.437 5.82-.048.048-3.443-2.089-7.544-4.747-4.385-2.843-7.526-4.794-7.623-4.737-.262.155-12.925 8.867-13.416 9.23l-.444.328Z" style="fill:url(#a)"/></g></svg>