<svg xmlns="http://www.w3.org/2000/svg" width="44.917" height="50.001"><g><path d="M20.806 49.971c-1.593-.252-3.6-1.063-5.01-2.026-1.396-.953-3.051-2.828-3.812-4.315-.301-.59-.303-.59-1.472-.359l-2.205.436c-.757.148-2.194.425-3.193.612-1 .188-2.034.39-2.298.45s-.509.083-.542.05.042-.296.167-.583.386-.895.581-1.349.417-.975.497-1.156a301 301 0 0 0 1.875-4.487c.313-.771.36-.649-.5-1.294-1.569-1.176-3.233-3.551-4.055-5.79-.645-1.756-.846-2.982-.839-5.113.006-1.698.042-2.077.305-3.189.8-3.385 2.484-6.08 4.945-7.918.575-.429.599-.498.364-1.029a84 84 0 0 1-.508-1.187c-.19-.454-.412-.975-.492-1.156-.079-.182-.299-.702-.488-1.156-.403-.973-.733-1.745-1.203-2.818-.365-.832-.409-1.037-.226-1.037.063 0 .67.095 1.349.211s2.076.341 3.106.501 2.444.387 3.144.505a29 29 0 0 0 1.394.215c.067 0 .301-.325.52-.723A12.43 12.43 0 0 1 19.706.31c.99-.279 1.27-.31 2.806-.31 1.525 0 1.819.032 2.765.301 2.3.651 4.172 1.778 5.806 3.494.566.595 1.517 1.927 1.945 2.726.367.686.326.68 2.118.313.712-.146 1.989-.397 2.836-.56s2.136-.411 2.863-.553c1.948-.38 2.037-.392 2.037-.266 0 .111-.623 1.681-.946 2.384-.09.195-.232.542-.316.771s-.334.836-.556 1.351a27 27 0 0 0-.495 1.212c-.051.151-.273.696-.495 1.211-.67 1.558-.673 1.567-.431 1.7.496.272 2.365 2.278 2.931 3.146 1.088 1.666 1.569 2.807 2.046 4.844.26 1.113.296 1.495.297 3.139 0 1.567-.043 2.069-.264 3.084-.7 3.211-2.31 5.925-4.616 7.783-.464.375-.861.693-.882.708-.049.035.662 1.811 1.143 2.851.16.347.693 1.596 1.197 2.808.164.394.344.802.401.906.058.105.198.438.313.739l.208.549-.511-.063a39 39 0 0 1-1.393-.219 85 85 0 0 0-2.037-.319 67 67 0 0 1-2.037-.328c-.796-.146-3.169-.494-3.367-.494-.044 0-.241.284-.437.631-1.594 2.825-4.342 4.976-7.428 5.813-.891.242-1.384.305-2.588.331-.814.016-1.632.007-1.813-.022"/><linearGradient id="a" x1="2.543" x2="42.769" y1="36.492" y2="13.268" gradientUnits="userSpaceOnUse"><stop offset=".1" style="stop-color:#536e78"/><stop offset=".5" style="stop-color:#d9eaf3"/><stop offset=".9" style="stop-color:#536e78"/></linearGradient><path fill="url(#a)" d="M20.391 47.602c-2.998-.655-5.701-2.938-7.128-6.018-.261-.563-.516-.93-.646-.931-.118-.001-1.72.286-3.56.638s-3.377.607-3.417.567c-.039-.039.436-1.28 1.055-2.759l1.125-2.688 1.74 1.136c.957.625 3.227 2.116 5.045 3.314a2997 2997 0 0 0 5.672 3.729l2.368 1.552 7.061-4.81c3.883-2.646 7.106-4.764 7.162-4.707.107.108 2.304 5.179 2.265 5.227-.013.016-1.539-.216-3.392-.514s-3.493-.542-3.645-.542c-.202-.001-.361.196-.592.732-.814 1.882-2.632 3.973-4.302 4.947-1.97 1.154-4.659 1.597-6.811 1.127m-4.717-8.513-6.921-4.56V15.913l6.741-4.644 6.741-4.644 6.998 4.533 6.998 4.533v18.685l-6.611 4.52c-3.636 2.485-6.704 4.571-6.817 4.636-.151.085-2.111-1.136-7.129-4.443m9.607-1.819c3.573-.914 6.732-3.785 8.127-7.387.565-1.46.825-2.92.825-4.633 0-3.573-1.157-6.506-3.512-8.902-2.479-2.522-5.252-3.628-8.738-3.483-2.549.106-4.735.963-6.81 2.67-2.006 1.65-3.589 4.325-4.146 7.01-.299 1.44-.299 3.931 0 5.371 1.033 4.976 4.94 8.807 9.774 9.583 1.004.16 3.442.036 4.48-.229m-4.476-3.177c-2.427-.513-4.729-2.325-5.833-4.594-.775-1.593-1.026-2.665-1.015-4.339.035-5.32 4.013-9.266 9.052-8.978 2.998.171 5.714 2.013 7.078 4.798.76 1.553.979 2.502.979 4.249 0 1.749-.218 2.692-.986 4.27-.45.923-.806 1.406-1.686 2.285-1.302 1.301-2.554 1.986-4.243 2.323-1.289.257-2.079.254-3.346-.014m-14.082.502c-.041 0-.7-.512-1.33-1.136-1.363-1.353-2.258-2.802-2.828-4.58-1.466-4.571-.349-9.439 2.9-12.637.52-.511 1.228-.93 1.304-.93zm31.586-19.112c.008-.021.327.212.709.517 1.557 1.239 3.054 3.769 3.638 6.147.411 1.673.411 4.331 0 5.87-.617 2.308-1.376 3.729-2.829 5.291-.656.706-1.383 1.145-1.383 1.145M7.992 13.286c-.12-.287-.657-1.561-1.195-2.83-.538-1.271-.943-2.345-.9-2.387.066-.066 5.944.797 6.793.997.236.056.329-.039.515-.527.468-1.225 1.516-2.792 2.558-3.825 1.212-1.201 2.383-1.928 3.939-2.445.957-.317 1.328-.366 2.823-.366 1.496 0 1.866.049 2.824.366a10.2 10.2 0 0 1 3.734 2.209c.986.903 2.24 2.694 2.73 3.902.18.442.41.821.512.841s1.792-.273 3.755-.653 3.581-.676 3.594-.657c.037.052-2.336 5.72-2.437 5.82-.048.048-3.443-2.088-7.544-4.747-4.385-2.842-7.526-4.794-7.623-4.736-.264.155-12.927 8.867-13.417 9.23l-.444.329z" style="fill:url(#a)"/></g></svg>