<?xml version="1.0" encoding="UTF-8" standalone="no"?>
<svg
   id="Layer_2"
   data-name="Layer 2"
   viewBox="0 0 952.83 1077.96"
   version="1.1"
   width="952.83002"
   height="1077.96"
   xmlns="http://www.w3.org/2000/svg"
   xmlns:svg="http://www.w3.org/2000/svg">
  <defs
     id="defs16">
    <style
       id="style1">
      .cls-1, .cls-2, .cls-3 {
        stroke-width: 0px;
      }

      .cls-1, .cls-3 {
        fill-rule: evenodd;
      }

      .cls-3 {
        fill: url(#New_Gradient_Swatch_2);
      }
    </style>
    <linearGradient
       id="New_Gradient_Swatch_2"
       data-name="New Gradient Swatch 2"
       x1="172.53999"
       y1="692.84998"
       x2="853.66998"
       y2="11.72"
       gradientTransform="matrix(1,0,0,-1,0,1079.38)"
       gradientUnits="userSpaceOnUse">
      <stop
         offset="0"
         stop-color="#bb2c26"
         id="stop1" />
      <stop
         offset=".04"
         stop-color="#bf3526"
         id="stop2" />
      <stop
         offset=".11"
         stop-color="#cb4d25"
         id="stop3" />
      <stop
         offset=".19"
         stop-color="#de7523"
         id="stop4" />
      <stop
         offset=".21"
         stop-color="#e17a23"
         id="stop5" />
      <stop
         offset=".29"
         stop-color="#ee8b1f"
         id="stop6" />
      <stop
         offset=".38"
         stop-color="#f5951e"
         id="stop7" />
      <stop
         offset=".5"
         stop-color="#ff9915"
         id="stop8" />
      <stop
         offset=".62"
         stop-color="#f5951e"
         id="stop9" />
      <stop
         offset=".71"
         stop-color="#ee8b1f"
         id="stop10" />
      <stop
         offset=".79"
         stop-color="#e17a23"
         id="stop11" />
      <stop
         offset=".8"
         stop-color="#e07823"
         id="stop12" />
      <stop
         offset=".85"
         stop-color="#d35d24"
         id="stop13" />
      <stop
         offset=".91"
         stop-color="#c64225"
         id="stop14" />
      <stop
         offset=".96"
         stop-color="#be3226"
         id="stop15" />
      <stop
         offset="1"
         stop-color="#bb2c26"
         id="stop16" />
    </linearGradient>
  </defs>
  <g
     id="Layer_1-2"
     data-name="Layer 1">
    <g
       id="U">
      <g
         id="g21">
        <path
           class="cls-1"
           d="m 951.77,801.9 c -10.82,-49.18 -63.62,-67.33 -63.62,-67.33 -34.97,-69.79 -94.87,-70.81 -94.87,-70.81 l -58.33,-75.55 -58.3,75.42 C 654.28,666.1 636.2,676 636,676 V 569.44 h 0.06 V 546.19 H 756.83 L 830.41,635.47 919.4,533 h 1.02 v -1.17 0 -130.88 h -0.02 v -85.16 h 1.21 L 829.8,188.5 737.99,315.79 h 1.22 v 85.16 H 635.97 V 344.52 H 698.4 L 506.42,0 l -192,344.51 h 62.37 v 167.66 h -49.6 L 227.92,86.43 128.65,512.17 H 73.29 v 52.65 H 0 v 513.14 h 636.01 c 0,0 316.82,0 316.82,0 V 801.9 Z M 228.32,693.15 c -26.75,0 -48.43,-21.9 -48.43,-48.93 0,-27.03 21.68,-48.92 48.43,-48.92 26.75,0 48.43,21.9 48.43,48.92 0,27.02 -21.68,48.93 -48.43,48.93 z M 506.16,525.07 c -26.75,0 -48.43,-21.9 -48.43,-48.92 0,-27.02 21.68,-48.92 48.43,-48.92 26.75,0 48.43,21.9 48.43,48.92 0,27.02 -21.68,48.92 -48.43,48.92 z M 636.01,801.9 v -41.97 c 0.04,23.11 0.08,41.96 0.08,41.96 h 3.57 -3.65 z m 98.77,73.87 c -26.75,0 -48.43,-21.9 -48.43,-48.93 0,-27.03 21.68,-48.92 48.43,-48.92 26.75,0 48.43,21.9 48.43,48.92 0,27.02 -21.68,48.93 -48.43,48.93 z"
           id="path16" />
        <path
           class="cls-3"
           d="m 920.76,808.91 c -17.04,-47.16 -55.38,-46.76 -55.38,-46.76 -30.41,-74.16 -88.47,-67.31 -88.47,-67.31 l -42.48,-53.81 -42.26,53.49 c -67.21,1.68 -88.56,67.17 -88.56,67.17 l 0.06,47.23 h -0.06 V 668.88 h 0.01 V 513.77 h 168.11 l 58.75,70.86 58.75,-70.86 v 0 -80.96 0 -109.92 l -59.4,-80.46 -59.4,80.46 V 432.81 H 603.63 V 312.14 h 39.61 L 505.82,68.01 369.63,312.14 h 38.14 V 544.96 H 299.68 l -71.67,-312.01 -71.2,312.01 h -52.45 v 38.1 H 31.21 v 463.54 h 889.57 v -237.67 0 z M 228.32,693.15 c -26.75,0 -48.43,-21.9 -48.43,-48.93 0,-27.03 21.68,-48.92 48.43,-48.92 26.75,0 48.43,21.9 48.43,48.92 0,27.02 -21.68,48.93 -48.43,48.93 z M 506.16,525.07 c -26.75,0 -48.43,-21.9 -48.43,-48.92 0,-27.02 21.68,-48.92 48.43,-48.92 26.75,0 48.43,21.9 48.43,48.92 0,27.02 -21.68,48.92 -48.43,48.92 z m 228.62,350.7 c -26.75,0 -48.43,-21.9 -48.43,-48.93 0,-27.03 21.68,-48.92 48.43,-48.92 26.75,0 48.43,21.9 48.43,48.92 0,27.02 -21.68,48.93 -48.43,48.93 z"
           id="path17"
           style="fill:url(#New_Gradient_Swatch_2)" />
        <g
           id="g20">
          <path
             class="cls-2"
             d="m 228.32,574.11 c -38.33,0 -69.41,31.39 -69.41,70.11 0,38.72 31.07,70.11 69.41,70.11 38.34,0 69.41,-31.39 69.41,-70.11 0,-38.72 -31.07,-70.11 -69.41,-70.11 z m 0,119.04 c -26.75,0 -48.43,-21.9 -48.43,-48.93 0,-27.03 21.68,-48.92 48.43,-48.92 26.75,0 48.43,21.9 48.43,48.92 0,27.02 -21.68,48.93 -48.43,48.93 z"
             id="path18" />
          <path
             class="cls-2"
             d="m 506.16,406.03 c -38.33,0 -69.41,31.39 -69.41,70.11 0,38.72 31.07,70.11 69.41,70.11 38.34,0 69.41,-31.39 69.41,-70.11 0,-38.72 -31.07,-70.11 -69.41,-70.11 z m 0,119.04 c -26.75,0 -48.43,-21.9 -48.43,-48.92 0,-27.02 21.68,-48.92 48.43,-48.92 26.75,0 48.43,21.9 48.43,48.92 0,27.02 -21.68,48.92 -48.43,48.92 z"
             id="path19" />
          <path
             class="cls-2"
             d="m 734.78,756.73 c -38.33,0 -69.41,31.39 -69.41,70.11 0,38.72 31.07,70.11 69.41,70.11 38.34,0 69.41,-31.39 69.41,-70.11 0,-38.72 -31.07,-70.11 -69.41,-70.11 z m 0,119.04 c -26.75,0 -48.43,-21.9 -48.43,-48.93 0,-27.03 21.68,-48.92 48.43,-48.92 26.75,0 48.43,21.9 48.43,48.92 0,27.02 -21.68,48.93 -48.43,48.93 z"
             id="path20" />
        </g>
      </g>
    </g>
  </g>
</svg>
