<?xml version="1.0" encoding="UTF-8"?>
<svg id="Layer_1" data-name="Layer 1" xmlns="http://www.w3.org/2000/svg" xmlns:xlink="http://www.w3.org/1999/xlink" viewBox="0 0 1080 1080">
  <defs>
    <style>
      .cls-1, .cls-2, .cls-3, .cls-4 {
        stroke-width: 0px;
      }

      .cls-1, .cls-4 {
        fill-rule: evenodd;
      }

      .cls-3 {
        fill: none;
      }

      .cls-4 {
        fill: url(#linear-gradient);
      }
    </style>
    <linearGradient id="linear-gradient" x1="236.1" y1="386.88" x2="917.23" y2="1068.01" gradientUnits="userSpaceOnUse">
      <stop offset="0" stop-color="#8d742f"/>
      <stop offset=".07" stop-color="#967d38"/>
      <stop offset=".18" stop-color="#ae954f"/>
      <stop offset=".2" stop-color="#b39a54"/>
      <stop offset=".22" stop-color="#b9a059"/>
      <stop offset=".3" stop-color="#cab068"/>
      <stop offset=".39" stop-color="#d4ba71"/>
      <stop offset=".5" stop-color="#d7bd74"/>
      <stop offset=".61" stop-color="#d4ba71"/>
      <stop offset=".7" stop-color="#cab068"/>
      <stop offset=".78" stop-color="#b9a059"/>
      <stop offset=".8" stop-color="#b39a54"/>
      <stop offset=".86" stop-color="#a38a45"/>
      <stop offset=".94" stop-color="#937a35"/>
      <stop offset="1" stop-color="#8d742f"/>
    </linearGradient>
  </defs>
  <g id="R">
    <rect class="cls-3" width="1080" height="1080"/>
    <g>
      <path class="cls-1" d="M1015.37,802.21c-10.82-49.18-63.62-67.33-63.62-67.33-34.97-69.79-94.87-70.81-94.87-70.81l-58.33-75.55-58.3,75.42c-22.37,2.47-40.45,12.37-40.65,12.37v-106.56h.06v-23.25h120.77l73.58,89.28,88.99-102.47h1.02v-1.17h0s0,0,0,0v-130.88h-.02v-85.16h1.21l-91.81-127.29-91.81,127.29h1.22v85.16h-103.24v-56.43h62.43L570.02.31l-192,344.51h62.37v167.66h-49.6l-99.27-425.74-99.27,425.74h-55.36v55.65H63.6v511.4h636.01v-1.26h316.82v-276.06h-1.06ZM291.92,693.46c-26.75,0-48.43-21.9-48.43-48.93s21.68-48.92,48.43-48.92,48.43,21.9,48.43,48.92-21.68,48.93-48.43,48.93ZM569.76,525.38c-26.75,0-48.43-21.9-48.43-48.92s21.68-48.92,48.43-48.92,48.43,21.9,48.43,48.92-21.68,48.92-48.43,48.92ZM699.61,802.21v-41.97c.04,23.11.08,41.96.08,41.96h3.57s-3.65.01-3.65.01ZM798.38,876.08c-26.75,0-48.43-21.9-48.43-48.93s21.68-48.92,48.43-48.92,48.43,21.9,48.43,48.92-21.68,48.93-48.43,48.93Z"/>
      <path class="cls-4" d="M984.36,809.22c-17.04-47.16-55.38-46.76-55.38-46.76-30.41-74.16-88.47-67.31-88.47-67.31l-42.48-53.81-42.26,53.49c-67.21,1.68-88.56,67.17-88.56,67.17l.06,47.23h-.06v-140.04h.01v-155.11s168.11,0,168.11,0l58.75,70.86,58.75-70.86h0s0-80.96,0-80.96h0v-109.92l-59.4-80.46-59.4,80.46v109.92h-166.8v-120.67h39.61l-137.42-244.13-136.19,244.13h38.14v232.82h-108.09l-71.67-312.01-71.2,312.01h-52.45v38.1h-73.15v463.68h572.42v-.14h317.15v-237.67h0s0,0,0,0ZM291.92,693.46c-26.75,0-48.43-21.9-48.43-48.93s21.68-48.92,48.43-48.92,48.43,21.9,48.43,48.92-21.68,48.93-48.43,48.93ZM569.76,525.38c-26.75,0-48.43-21.9-48.43-48.92s21.68-48.92,48.43-48.92,48.43,21.9,48.43,48.92-21.68,48.92-48.43,48.92ZM798.38,876.08c-26.75,0-48.43-21.9-48.43-48.93s21.68-48.92,48.43-48.92,48.43,21.9,48.43,48.92-21.68,48.93-48.43,48.93Z"/>
      <g>
        <path class="cls-2" d="M291.92,574.42c-38.33,0-69.41,31.39-69.41,70.11s31.07,70.11,69.41,70.11,69.41-31.39,69.41-70.11-31.07-70.11-69.41-70.11ZM291.92,693.46c-26.75,0-48.43-21.9-48.43-48.93s21.68-48.92,48.43-48.92,48.43,21.9,48.43,48.92-21.68,48.93-48.43,48.93Z"/>
        <path class="cls-2" d="M569.76,406.34c-38.33,0-69.41,31.39-69.41,70.11s31.07,70.11,69.41,70.11,69.41-31.39,69.41-70.11-31.07-70.11-69.41-70.11ZM569.76,525.38c-26.75,0-48.43-21.9-48.43-48.92s21.68-48.92,48.43-48.92,48.43,21.9,48.43,48.92-21.68,48.92-48.43,48.92Z"/>
        <path class="cls-2" d="M798.38,757.04c-38.33,0-69.41,31.39-69.41,70.11s31.07,70.11,69.41,70.11,69.41-31.39,69.41-70.11-31.07-70.11-69.41-70.11ZM798.38,876.08c-26.75,0-48.43-21.9-48.43-48.93s21.68-48.92,48.43-48.92,48.43,21.9,48.43,48.92-21.68,48.93-48.43,48.93Z"/>
      </g>
    </g>
  </g>
</svg>