<?xml version="1.0" encoding="UTF-8"?>
<svg id="Layer_2" data-name="Layer 2" xmlns="http://www.w3.org/2000/svg" xmlns:xlink="http://www.w3.org/1999/xlink" viewBox="0 0 952.83 1077.96">
  <defs>
    <style>
      .cls-1, .cls-2, .cls-3 {
        stroke-width: 0px;
      }

      .cls-1, .cls-3 {
        fill-rule: evenodd;
      }

      .cls-3 {
        fill: url(#linear-gradient);
      }
    </style>
    <linearGradient id="linear-gradient" x1="169.54" y1="692.85" x2="850.67" y2="11.72" gradientTransform="translate(0 1079.38) scale(1 -1)" gradientUnits="userSpaceOnUse">
      <stop offset="0" stop-color="#612c75"/>
      <stop offset="0" stop-color="#622d76"/>
      <stop offset=".16" stop-color="#8a5b97"/>
      <stop offset=".31" stop-color="#a77daf"/>
      <stop offset=".42" stop-color="#b891bd"/>
      <stop offset=".5" stop-color="#bf99c3"/>
      <stop offset=".58" stop-color="#b891bd"/>
      <stop offset=".69" stop-color="#a77daf"/>
      <stop offset=".84" stop-color="#8a5b97"/>
      <stop offset=".99" stop-color="#622d76"/>
      <stop offset="1" stop-color="#612c75"/>
    </linearGradient>
  </defs>
  <g id="Layer_1-2" data-name="Layer 1">
    <g id="U">
      <g>
        <path class="cls-1" d="M951.77,801.9c-10.82-49.18-63.62-67.33-63.62-67.33-34.97-69.79-94.87-70.81-94.87-70.81l-58.33-75.55-58.3,75.42c-22.37,2.47-40.45,12.37-40.65,12.37v-106.56h.06v-23.25h120.77l73.58,89.28,88.99-102.47h1.02v-1.17h0v-130.88h-.02v-85.16h1.21l-91.81-127.29-91.81,127.29h1.22v85.16h-103.24v-56.43h62.43L506.42,0l-192,344.51h62.37v167.66h-49.6L227.92,86.43l-99.27,425.74h-55.36v52.65H0v513.14h636.01s316.82,0,316.82,0v-276.06h-1.06ZM228.32,693.15c-26.75,0-48.43-21.9-48.43-48.93s21.68-48.92,48.43-48.92,48.43,21.9,48.43,48.92-21.68,48.93-48.43,48.93ZM506.16,525.07c-26.75,0-48.43-21.9-48.43-48.92s21.68-48.92,48.43-48.92,48.43,21.9,48.43,48.92-21.68,48.92-48.43,48.92ZM636.01,801.9v-41.97c.04,23.11.08,41.96.08,41.96h3.57-3.65ZM734.78,875.77c-26.75,0-48.43-21.9-48.43-48.93s21.68-48.92,48.43-48.92,48.43,21.9,48.43,48.92-21.68,48.93-48.43,48.93Z"/>
        <path class="cls-3" d="M917.76,808.91c-17.04-47.16-55.38-46.76-55.38-46.76-30.41-74.16-88.47-67.31-88.47-67.31l-42.48-53.81-42.26,53.49c-67.21,1.68-88.56,67.17-88.56,67.17l.06,47.23h-.06v-140.04h.01v-155.11h168.11l58.75,70.86,58.75-70.86h0v-80.96h0v-109.92l-59.4-80.46-59.4,80.46v109.92h-166.8v-120.67h39.61l-137.42-244.13-136.19,244.13h38.14v232.82h-108.09l-71.67-312.01-71.2,312.01h-52.45v38.1H28.21v463.54h889.57v-237.67h0l-.02-.02ZM225.32,693.15c-26.75,0-48.43-21.9-48.43-48.93s21.68-48.92,48.43-48.92,48.43,21.9,48.43,48.92-21.68,48.93-48.43,48.93ZM503.16,525.07c-26.75,0-48.43-21.9-48.43-48.92s21.68-48.92,48.43-48.92,48.43,21.9,48.43,48.92-21.68,48.92-48.43,48.92ZM731.78,875.77c-26.75,0-48.43-21.9-48.43-48.93s21.68-48.92,48.43-48.92,48.43,21.9,48.43,48.92-21.68,48.93-48.43,48.93Z"/>
        <g>
          <path class="cls-2" d="M228.32,574.11c-38.33,0-69.41,31.39-69.41,70.11s31.07,70.11,69.41,70.11,69.41-31.39,69.41-70.11-31.07-70.11-69.41-70.11ZM228.32,693.15c-26.75,0-48.43-21.9-48.43-48.93s21.68-48.92,48.43-48.92,48.43,21.9,48.43,48.92-21.68,48.93-48.43,48.93Z"/>
          <path class="cls-2" d="M506.16,406.03c-38.33,0-69.41,31.39-69.41,70.11s31.07,70.11,69.41,70.11,69.41-31.39,69.41-70.11-31.07-70.11-69.41-70.11h0ZM506.16,525.07c-26.75,0-48.43-21.9-48.43-48.92s21.68-48.92,48.43-48.92,48.43,21.9,48.43,48.92-21.68,48.92-48.43,48.92Z"/>
          <path class="cls-2" d="M734.78,756.73c-38.33,0-69.41,31.39-69.41,70.11s31.07,70.11,69.41,70.11,69.41-31.39,69.41-70.11-31.07-70.11-69.41-70.11ZM734.78,875.77c-26.75,0-48.43-21.9-48.43-48.93s21.68-48.92,48.43-48.92,48.43,21.9,48.43,48.92-21.68,48.93-48.43,48.93Z"/>
        </g>
      </g>
    </g>
  </g>
</svg>