<svg xmlns="http://www.w3.org/2000/svg" width="207.418" height="237.322" viewBox="0 0 207.418 237.322"><defs><radialGradient id="a" cx="103.627" cy="120.326" r="110.995" fx="-6.373" fy="120.326" gradientTransform="rotate(89.398 93.53 110.334)scale(1 .83391)" gradientUnits="userSpaceOnUse"><stop offset=".431" stop-color="#c3e2ee"/><stop offset=".565" stop-color="#c0dfeb"/><stop offset=".657" stop-color="#b7d6e2"/><stop offset=".738" stop-color="#a8c6d2"/><stop offset=".811" stop-color="#93b0bc"/><stop offset=".88" stop-color="#7894a0"/><stop offset=".944" stop-color="#58727e"/><stop offset=".963" stop-color="#4d6773"/></radialGradient></defs><path d="M191.076 115.984c-7.66-.52-7.65 7.26-10.87 12.69-.77 1.29.18 2.53-2.49 1.97 2.34-22.38 4-45.12-2.49-67-7.55-25.47-28.61-47.2-55.51-50.98l11.5 62.99h32.5l-60 68.45-60-68.45h32.5l11.5-62.99c-44.94 7.27-63.54 52.96-60.04 94.53l2.04 23.45c-2.22.55-3.63-3.6-4.38-5.12-2.45-4.99-1.69-9.84-8.77-9.31-12.07.91-5.44 23.33-2.61 30.7 4.03 10.48 12.12 22.34 24.81 21.19 8.84 24.68 30.61 49.78 55.99 58.01 7.73 2.5 10.2 2.5 17.92 0 20.6-6.68 40.12-25.95 50.21-44.79 1.2-2.25 5.18-12.82 5.79-13.21 1.65-1.1 6.84 0 10.31-1.69 5.65-2.74 12.26-13.7 14.49-19.51 2.65-6.89 9.08-30.15-2.4-30.93m-98.37 35.67-2.98-1c2.24 11.52-6.12 13.27-15.52 13.98-16.75 1.26-29.49-7.52-34.15-23.5.39-3.48 18.15-13.32 22.65-10.48-2.01-6.49-10.68-5.24-15.98-4.01 1.94-2.62 8-3.79 11.04-3.54 6.78.57 15.3 7.21 20.42 11.58 2.01 1.71 16.18 15.08 14.52 16.97m40.51 12.98c-9.41-.71-17.76-2.46-15.52-13.98l-2.99 1c-1.66-1.89 12.52-15.26 14.52-16.97 5.13-4.37 13.64-11.01 20.42-11.58 3.05-.25 9.11.92 11.05 3.54-5.31-1.23-13.97-2.48-15.99 4.01 4.51-2.84 22.27 7 22.65 10.48-4.65 15.98-17.39 24.76-34.14 23.5" style="fill:url(#a)"/><path d="M187.706 106.654c1.49-26.96-3.43-59.16-22.34-79.65-21.23-22.99-57.17-33.2-86.93-23.13-45.2 15.31-62.02 57.72-58.71 102.78-27.46-2.15-20.65 33.32-12.72 49.21 2.81 5.63 9.14 14.17 14.38 17.62 3.23 2.13 9.53 3.01 10.84 4.16.76.66 7.26 14.66 9.26 17.74 14.04 21.57 45.54 48.37 73.01 40.55 24.77-7.05 45.26-28.68 57.4-50.6 1.06-1.91 1.9-6.46 3.31-7.69 1.31-1.15 7.61-2.03 10.84-4.16 10.14-6.68 18.44-23.86 20.42-35.58 2.58-15.33 1.01-32.93-18.76-31.25m-72.87-94.42 12.38 68.42h25.5l-49 56.43-49-56.43h24.5l13.38-68.42c7.2-2.2 15.06-2.2 22.24 0m78.64 134.68c-2.23 5.81-8.84 16.77-14.49 19.51-3.47 1.69-8.66.59-10.31 1.69-.61.39-4.59 10.96-5.79 13.21-10.09 18.84-29.61 38.11-50.21 44.79-7.72 2.5-10.19 2.5-17.92 0-25.38-8.23-47.15-33.33-55.99-58.01-12.69 1.15-20.78-10.71-24.81-21.19-2.83-7.37-9.46-29.79 2.61-30.7 7.08-.53 6.32 4.32 8.77 9.31.75 1.52 2.16 5.67 4.38 5.12l-2.04-23.45c-3.5-41.57 15.1-87.26 60.04-94.53l-11.5 62.99h-32.5l60 68.45 60-68.45h-32.5l-11.5-62.99c26.9 3.78 47.96 25.51 55.51 50.98 6.49 21.88 4.83 44.62 2.49 67 2.67.56 1.72-.68 2.49-1.97 3.22-5.43 3.21-13.21 10.87-12.69 11.48.78 5.05 24.04 2.4 30.93m-115.29-12.23c-5.12-4.37-13.64-11.01-20.42-11.58-3.04-.25-9.1.92-11.04 3.54 5.3-1.23 13.97-2.48 15.98 4.01-4.5-2.84-22.26 7-22.65 10.48 4.66 15.98 17.4 24.76 34.15 23.5 9.4-.71 17.76-2.46 15.52-13.98l2.98 1c1.66-1.89-12.51-15.26-14.52-16.97m-5.04 25.85c-13.77.78-23.15-6.62-28.41-18.85 6.64-4.07 14.54-9.68 22.8-7.36 4.32 1.21 16.2 11.08 17.55 15.23 3.04 9.31-4.42 10.56-11.94 10.98m71.56-29.88c2.02-6.49 10.68-5.24 15.99-4.01-1.94-2.62-8-3.79-11.05-3.54-6.78.57-15.29 7.21-20.42 11.58-2 1.71-16.18 15.08-14.52 16.97l2.99-1c-2.24 11.52 6.11 13.27 15.52 13.98 16.75 1.26 29.49-7.52 34.14-23.5-.38-3.48-18.14-13.32-22.65-10.48m-18.04 28.55c-6.68-1.88-5.93-8.93-2.4-13.5 2.28-2.96 14.42-11.52 18.24-11.84 7.17-.61 14.26 3.79 19.78 7.77-5.44 15.53-19.83 22.02-35.62 17.57"/><path d="m79.216 80.654 13.38-68.417c7.203-2.206 15.06-2.2 22.24 0l12.38 68.417h25.5l-49 56.428-49-56.428zm63.288 53.207c-3.818.32-15.96 8.879-18.24 11.84-3.524 4.57-4.28 11.62 2.401 13.504 15.79 4.452 30.183-2.038 35.625-17.57-5.525-3.986-12.614-8.377-19.786-7.774m-74.967.46c-8.257-2.313-16.16 3.294-22.804 7.365 5.265 12.23 14.644 19.63 28.416 18.85 7.52-.425 14.98-1.674 11.94-10.98-1.357-4.154-13.233-14.026-17.552-15.235" style="fill:#fff"/></svg>