<svg xmlns="http://www.w3.org/2000/svg" width="207.418" height="237.322" viewBox="0 0 207.418 237.322"><path d="m80.873 144.01.17.17zm1.463 1.534.023.025zm.603.689.132.16zm-1.369-1.511.16.168zm-33.607-5.035.042-.026zm1.132-.689.047-.028zm34.841 8.502c.042.06.087.119.127.177q-.062-.088-.127-.176m60.77-16.847c2.02-6.49 10.68-5.24 15.99-4.01-1.94-2.62-8-3.79-11.05-3.54-6.78.57-15.29 7.21-20.42 11.58-2 1.71-16.18 15.08-14.52 16.97l2.99-1c-2.24 11.52 6.11 13.27 15.52 13.98 16.75 1.26 29.49-7.52 34.14-23.5-.38-3.48-18.14-13.32-22.65-10.48m-18.041 28.55c-6.682-1.883-5.925-8.933-2.402-13.504 2.281-2.96 14.423-11.518 18.241-11.84 2.05-.172 4.093.074 6.096.592l.275.07q.456.125.909.27l.262.082a27 27 0 0 1 1.117.393q.514.194 1.024.406c3.668 1.539 7.115 3.806 10.103 5.962-5.442 15.532-19.835 22.022-35.625 17.57m24.491-23.94"/><path d="M187.706 106.654c1.49-26.96-3.43-59.16-22.34-79.65-21.23-22.99-57.17-33.2-86.93-23.13-45.2 15.31-62.02 57.72-58.71 102.78-27.46-2.15-20.65 33.32-12.72 49.21 2.81 5.63 9.14 14.17 14.38 17.62 3.23 2.13 9.53 3.01 10.84 4.16.76.66 7.26 14.66 9.26 17.74 14.04 21.57 45.54 48.37 73.01 40.55 24.77-7.05 45.26-28.68 57.4-50.6 1.06-1.91 1.9-6.46 3.31-7.69 1.31-1.15 7.61-2.03 10.84-4.16 10.14-6.68 18.44-23.86 20.42-35.58 2.58-15.33 1.01-32.93-18.76-31.25m-72.87-94.42 12.38 68.42h25.5l-49 56.43-49-56.43h24.5l13.38-68.42c7.2-2.2 15.06-2.2 22.24 0m78.64 134.68c-2.23 5.81-8.84 16.77-14.49 19.51-3.47 1.69-8.66.59-10.31 1.69-.61.39-4.59 10.96-5.79 13.21-10.09 18.84-29.61 38.11-50.21 44.79-7.72 2.5-10.19 2.5-17.92 0-25.38-8.23-47.15-33.33-55.99-58.01-12.69 1.15-20.78-10.71-24.81-21.19-2.83-7.37-9.46-29.79 2.61-30.7 7.08-.53 6.32 4.32 8.77 9.31.75 1.52 2.16 5.67 4.38 5.12l-2.04-23.45c-3.5-41.57 15.1-87.26 60.04-94.53l-11.5 62.99h-32.5l60 68.45 60-68.45h-32.5l-11.5-62.99c26.9 3.78 47.96 25.51 55.51 50.98 6.49 21.88 4.83 44.62 2.49 67 2.67.56 1.72-.68 2.49-1.97 3.22-5.43 3.21-13.21 10.87-12.69 11.48.78 5.05 24.04 2.4 30.93"/><path d="m148.608 134.454.264.067zm-70.422.23c-5.12-4.37-13.64-11.01-20.42-11.58-3.04-.25-9.1.92-11.04 3.54 5.3-1.23 13.97-2.48 15.98 4.01-4.5-2.84-22.26 7-22.65 10.48 4.66 15.98 17.4 24.76 34.15 23.5 9.4-.71 17.76-2.46 15.52-13.98l2.98 1c1.66-1.89-12.51-15.26-14.52-16.97m-5.037 25.852c-13.772.78-23.151-6.619-28.416-18.85l.004-.003.203-.125.976-.603 1.063-.66.602-.373a187 187 0 0 1 1.335-.817l.434-.26q.422-.253.85-.503l.233-.134c1.47-.85 2.98-1.654 4.526-2.341l.045-.02a32 32 0 0 1 1.233-.514c3.627-1.428 7.423-2.098 11.3-1.012 2.552.715 7.74 4.453 11.84 8.249q.395.366.775.732l.124.12a51 51 0 0 1 1.26 1.264l.215.225q.253.268.493.533l.13.142q.287.32.55.63l.184.221a24 24 0 0 1 .52.651q.153.198.292.39l.15.207c.488.699.844 1.334 1.02 1.872 3.04 9.305-4.42 10.554-11.941 10.98m7.011-17.228.088.086zm69.633-8.515q.124.038.247.078-.123-.04-.247-.078"/></svg>