<?xml version="1.0" encoding="UTF-8" standalone="no"?>
<svg
   version="1.1"
   id="Layer_1"
   x="0px"
   y="0px"
   width="648.90002"
   height="634.6217"
   xmlns="http://www.w3.org/2000/svg"
   xmlns:svg="http://www.w3.org/2000/svg">
  <defs
     id="defs1" />
  <path
     d="m 323.74,0.45404085 c 0.819,-1.27 1.76,0.47 2.359,1.01999995 C 424.44,119.11504 522.86,236.68504 621.229,354.30404 c 9.19,11.1 18.591,22.021 27.671,33.211 -55.71,55.799 -111.98,111.039 -167.58,166.949 2.649,20.62 8.52,41.24 20.06,58.73 5.49,8.4 12.71,15.55 20.91,21.3 -106.78,0.25 -213.561,0.04 -320.33,0.11 -22.03,-0.08 -44.07,0.149 -66.1,-0.11 14.319,-9.181 24.22,-23.82 30.71,-39.28 3.859,-9.21 6.62,-18.869 8.58,-28.65 0.21,-1.819 1.18,-4.18 -0.631,-5.51 -25.72,-25.289 -51.14,-50.869 -76.76,-76.26 -32.629,-32.391 -65.259,-64.77 -97.759,-97.279 104.12,-124.791 208.54,-249.33 312.77,-374.030999 3.69,-4.3200002 7.209,-8.7800002 10.97,-13.03000015 z m 0.48,49.09000015 c -18.939,23.141 -38.35,45.91 -57.46,68.909999 -63.31,75.68 -126.64,151.35 -189.93,227.04 -1.1,0.86 -0.94,2.239 0.21,2.989 27.9,27.771 55.88,55.471 83.8,83.23 6.18,5.84 11.78,12.33 18.33,17.75 0.2,-53.8 -0.08,-107.609 0.14,-161.41 11.681,-9.09 24.94,-15.88 38.601,-21.47 1.52,-7.13 2.88,-14.41 5.99,-21.09 8.55,-19.899 26.369,-34.39 45.8,-43.07 4.51,-1.909 9.029,-4 13.91,-4.8 5.96,16.721 7.779,34.54 10.149,52.029 23.601,-1.85 47.3,-1.609 70.92,-0.119 2.44,-17.48 4.061,-35.391 10.29,-52.02 16.4,4.539 31.7,13.299 43.87,25.199 11.851,11.6 19.42,27.29 21.39,43.74 13.75,5.91 27.591,12.32 39.08,22.08 -0.09,50.46 -0.06,100.92 -0.01,151.38 2.53,-1.75 4.601,-4.04 6.76,-6.2 28.73,-28.64 57.62,-57.109 86.311,-85.779 1.27,-0.92 -0.19,-2.181 -0.74,-3 -71.55,-85.451 -143.02,-170.971 -214.55,-256.430999 -11.001,-12.958 -21.602,-26.248 -32.861,-38.958 z M 293.76,299.64404 c -0.05,40.211 0.19,80.42 0.521,120.631 0.87,20.77 4.09,41.439 9.17,61.6 5.5,21.12 13.41,41.88 25.67,60.05 5.84,-7.97 10.25,-16.909 14.27,-25.92 10.88,-25.149 16.67,-52.239 19.59,-79.399 1.971,-16.94 1.25,-34 1.431,-51 0.109,-28.621 0.1,-57.23 0.25,-85.84 -23.192,-5.512 -47.683,-5.292 -70.902,-0.122 z"
     id="path1" />
</svg>
