<?xml version="1.0" encoding="UTF-8"?><svg id="Layer_2" xmlns="http://www.w3.org/2000/svg" width="201.72617" height="215.84291" viewBox="0 0 201.72617 215.84291"><g id="Layer_1-2"><path d="M100.36784,215.84291l-16.08127-15.4437c-15.13087-2.72556-29.51669-8.50981-42.01027-17.44366C7.62432,158.17673-7.62906,114.79268,3.6872,73.49301c.47524-1.73442,3.90373-10.37761,3.90373-10.95976V29.09042h22.41509C51.95407,7.25731,83.27602-3.14995,114.11848.83589c21.6007,2.79151,42.24998,12.87452,57.57012,28.25452h22.65483v34.16204c0,.18247,1.24564,2.75719,1.4426,3.35208,6.55368,19.7948,7.99718,39.23362,2.75595,59.5812-9.88126,38.36125-42.06253,67.68286-81.13399,74.21341l-16.0812,15.44377h-.95895ZM40.67417,32.44669h15.94229l27.4495,27.20977v36.07991l-15.35019-14.75226c-16.27632,24.03247-1.03628,56.96011,27.72645,60.27167,28.62335,3.29552,51.51295-25.64399,40.1291-52.59525-1.11716-2.64486-2.6526-5.07681-4.08363-7.54802l-14.85902,14.62385v-36.07991l27.0899-27.20977h16.3019c-1.18336-1.33296-2.61002-2.50656-4.02049-3.58651-32.95428-25.23189-78.66166-25.53226-111.74608-.34433-1.55617,1.18474-3.26113,2.52068-4.57972,3.93084ZM86.22356,191.27022v-23.73363c-1.50628-.72748-3.33598-.97617-4.97841-1.4944-43.53901-13.73804-60.48772-64.10264-34.29346-101.78634.34587-.49757,2.27857-2.78308,2.32812-2.96848.08885-.33245-.03915-.44174-.2009-.68285-.21613-.32217-3.93898-4.04975-4.19633-4.19753-.23442-.1346-.4301-.26992-.71973-.23921l-16.74479.06164-11.67843,11.57573c-21.39182,52.38298,11.7926,112.74684,67.08254,123.27043.65791.12521,3.21089.83945,3.40139.19463ZM115.71079,191.62982c27.2696-4.36696,51.55898-21.37137,65.0093-45.38802,13.24857-23.65637,15.65742-53.24934,5.23154-78.43328l-11.67506-11.57909-16.7448-.06164c-.28963-.03071-.48531.1046-.71973.23921-.25735.14778-3.97923,3.87427-4.1964,4.19747-.14969.22277-.31337.38208-.19833.68005,14.43394,17.60792,18.76607,41.67912,11.18027,63.27982-6.51511,18.55193-21.44644,33.65344-39.91635,40.39442-2.63156.96043-5.41616,1.56006-7.97043,2.57785v24.09323-.00003Z"/></g></svg>