<?xml version="1.0" encoding="UTF-8" standalone="no"?>
<svg
   version="1.1"
   width="552.40613"
   height="306.05576"
   id="svg1"
   xmlns="http://www.w3.org/2000/svg"
   xmlns:svg="http://www.w3.org/2000/svg">
  <defs
     id="defs1" />
  <path
     d="m 526.8,213.38806 c 0,0 -98.76,28.0523 -185.33538,28.0523 -86.60308,0 -234.15693,-43.91077 -234.15693,-112.1723 0,-68.32616 137.81539,-61.00616 137.81539,-61.00616 0,0 74.45538,2.12308 85.27385,36.48923 12.12,38.51077 -26.75077,51.30462 -26.75077,51.30462 0,0 97.56923,1.22769 97.56923,-49.97539 C 401.21539,54.8496 281.68616,40.2096 240.22154,40.2096 198.74769,40.2096 0,45.11113 0,157.28344 c 0,110.48308 192.69231,148.77231 278.94462,148.77231 159.12,0 247.85538,-92.66769 247.85538,-92.66769 M 271.58769,21.77575 c -2.70461,-0.10191 -5.44615,-0.13883 -8.18769,-0.13883 -103.66154,0 -146.35384,11.25231 -146.35384,11.25231 0,0 36.6,-32.88923 156.12923,-32.88923 119.4923,0 279.23077,47.52923 279.23077,139.00615 0,91.47692 -212.19693,85.34769 -212.19693,85.34769 0,0 -109.32923,-6.42461 -163.12615,-39.01846 C 92.630768,134.06769 179.67693,94.8 179.67693,94.8 c 28.99384,-13.52308 67.86461,-8.22462 67.86461,-8.22462 0,0 -42.69231,19.50462 -42.69231,45.11077 0,25.59692 81.73846,39.04615 130.52308,39.04615 47.99077,0 112.24615,-15.68307 117.00923,-44.92615 C 466.66154,37.90153 271.58769,21.77538 271.58769,21.77538"
     id="path1" />
</svg>
