<?xml version="1.0" encoding="UTF-8" standalone="no"?>
<svg
   version="1.1"
   width="235.6875"
   height="276.90625"
   id="svg9"
   xmlns:xlink="http://www.w3.org/1999/xlink"
   xmlns="http://www.w3.org/2000/svg"
   xmlns:svg="http://www.w3.org/2000/svg">
  <defs
     id="defs9" />
  <linearGradient
     id="linearGradient3196">
    <stop
       style="stop-color:#536e78"
       offset="0"
       id="stop1" />
    <stop
       style="stop-color:#829ba5"
       offset="0.07"
       id="stop2" />
    <stop
       style="stop-color:#d9eaf3"
       offset="0.35"
       id="stop3" />
    <stop
       style="stop-color:#d9eaf3"
       offset="0.65"
       id="stop4" />
    <stop
       style="stop-color:#829ba5"
       offset="0.93"
       id="stop5" />
    <stop
       style="stop-color:#536e78"
       offset="1"
       id="stop6" />
  </linearGradient>
  <linearGradient
     x1="380.53125"
     y1="173.19763"
     x2="590.46875"
     y2="173.19763"
     id="linearGradient3202"
     xlink:href="#linearGradient3196"
     gradientUnits="userSpaceOnUse"
     gradientTransform="translate(-367.65625,-59.21875)" />
  <path
     d="m 0,0 v 37.875 c 13.22347,11.74314 16.3125,26.21586 16.3125,42.90625 v 71.125 l -11.59375,8.625 c 9.7402,57.81766 113.125,116.375 113.125,116.375 0,0 103.385,-58.557 113.125,-116.375 l -11.59375,-8.625 V 80.5 c 0,-16.41419 3.0885,-30.88186 16.3125,-42.625 V 0 h -89.53125 l -14.8125,13.78125 v 8.40625 c 0,7.455844 -6.04416,13.5 -13.5,13.5 -7.45584,0 -13.5,-6.044156 -13.5,-13.5 V 13.78125 L 89.53125,0 Z"
     id="path6" />
  <path
     d="m 12.875,12.5625 v 20.46875 c 12.70824,9.35432 16.40625,30.71082 16.40625,47.125 v 73.8125 l -10.59375,8.4375 c 14.82572,49.94855 99.15625,99.53125 99.15625,99.53125 0,0 79.88124,-46.9666 97.8125,-95.53125 l -9.25,-7.375 v -78.875 c 0,-16.41418 3.69925,-37.7702 16.40625,-47.125 V 12.5625 H 150.625 l -5.875,6.15625 v 3.46875 c 0,14.857122 -12.04924,26.90625 -26.90625,26.90625 -14.85701,0 -26.90625,-12.049128 -26.90625,-26.90625 v -3.46875 l -5.875,-6.15625 z"
     style="fill:url(#linearGradient3202)"
     id="path7" />
  <path
     d="M 11.57603,160.01583 136.12475,61.74844 v 34.69055 l 93.25975,-73.580784 -15.86252,40.879664 -1.27282,40.41469 -110.07138,86.84495 v -35.065 l -63.2527,49.90559 z"
     id="path8" />
  <path
     d="m 214.65625,42.46875 -84.8125,66.9375 V 73.75 L 29.28125,153.96875 20.75,160.75 l -2.0625,1.65625 c 3.55556,11.97884 11.13434,23.9285 20.5625,35.1875 l 69.21875,-54.625 v 35.0625 L 206.40625,100.75 V 80.15625 c 0,-12.1472 2.0444,-26.99441 8.25,-37.6875 z"
     style="fill:#ffffff"
     id="path9" />
</svg>
