<?xml version="1.0" encoding="UTF-8" standalone="no"?>
<svg
   version="1.1"
   width="209.9375"
   height="249.375"
   id="svg1"
   xmlns="http://www.w3.org/2000/svg"
   xmlns:svg="http://www.w3.org/2000/svg">
  <defs
     id="defs1" />
  <path
     d="m 0,0 v 20.46875 c 12.70824,9.35432 16.40625,30.71082 16.40625,47.125 v 73.8125 L 116.96875,61.1875 V 96.84375 L 201.75,29.9375 c 2.18191,-3.768049 4.87607,-7.030897 8.1875,-9.46875 V 0 H 137.75 l -5.875,6.15625 V 9.625 c 0,14.857122 -12.04924,26.90625 -26.90625,26.90625 C 90.11174,36.53125 78.0625,24.482122 78.0625,9.625 V 6.15625 L 72.1875,0 Z m 193.53125,88.1875 -97.9375,77.28125 v -35.0625 l -69.21875,54.625 c 29.8868,35.68447 78.59375,64.34375 78.59375,64.34375 0,0 79.88124,-46.9666 97.8125,-95.53125 l -9.25,-7.375 z"
     id="path1" />
</svg>
