<svg xmlns="http://www.w3.org/2000/svg" width="600" height="503.25"><path d="M171.384 0s-31.647 3.383-31.647 36.158L22.09 68.988S-7.301 80.264 1.72 118.733l97.293 363.023s20.369 27.177 44.108 20.41l156.94-43.2 156.873 43.2c23.738 6.767 44.107-20.41 44.107-20.41l97.237-363.023c9.023-38.469-20.355-49.747-20.355-49.747l-117.606-32.83C460.317 3.384 428.615 0 428.615 0Z"/><path d="M172.402 13.547c-1.444.262-6.01 1.28-10.26 4.126-6.066 4.03-8.858 9.889-8.858 18.485v10.315S28.485 81.283 26.656 81.778c-3.287 1.5-13.052 7.468-13.052 23.037 0 3.177.426 6.726 1.334 10.7.165.703 94.885 354.153 96.384 359.847 4.195 4.731 16.49 16.972 28.044 13.698l160.64-44.217L460.69 489.06c11.552 3.274 23.807-8.967 28.002-13.698 1.554-5.694 96.219-359.145 96.425-359.846.922-3.975 1.348-7.524 1.348-10.7 0-15.57-9.834-21.539-13.052-23.038-1.83-.495-126.683-35.305-126.683-35.305V36.158c0-8.596-2.792-14.455-8.816-18.485-4.291-2.847-8.816-3.865-10.315-4.126z" style="fill:gray"/><path d="M449.466 64.476v349.05s-3.012 22.61-21.112 22.61H330.36l131.195 36.214s7.523 3.754 11.278-4.511l96.55-358.182s3.754-11.278-5.323-14.29zM35.953 96.123c-9.036 2.998-5.267 14.345-5.267 14.345l96.48 358.127c3.769 8.266 11.347 4.511 11.347 4.511l131.14-36.158h-97.994c-18.113 0-21.112-22.68-21.112-22.68V65.234ZM173.915 30.52h252.61c5.267 0 6.01 6.767 6.01 6.767V412.77c0 6.065-6.01 7.578-6.01 7.578h-252.61c-5.268 0-5.268-7.578-5.268-7.578V37.286c0-4.511 5.268-6.767 5.268-6.767"/><path d="M349.478 207.705c6.395-19.02 9.627-35.938 9.627-50.723 0-17.508-4.085-31.853-12.2-43.076-8.169-11.291-18.484-16.93-31-16.93-16.008 0-29.336 8.76-39.967 26.269-10.7 17.577-16.01 37.67-16.01 60.282 0 15.582 3.866 27.286 11.499 34.975 7.674 7.743 17.027 11.608 28.098 11.608 8.912 0 17.563-1.885 25.884-5.584 8.335-3.769 16.34-9.353 24.069-16.82m-133.12 151.233L205.45 347.44c63.129-17.894 108.254-56.252 135.28-115.186-9.463 7.042-18.856 12.31-28.264 15.9-9.352 3.548-18.69 5.322-27.988 5.322-19.833 0-35.195-6.56-46.212-19.723-11.058-13.217-16.545-28.84-16.545-47.105 0-25.692 9.036-49.54 27.135-71.519 18.1-22.019 40.504-33.035 67.324-33.035 23.958 0 43.02 8.706 57.16 26.104 14.069 17.357 21.166 39.06 21.166 64.902 0 41.11-18.004 81.022-54.051 119.917-36.048 38.95-77.419 60.928-124.098 65.92" style="fill:gray"/></svg>