<svg xmlns="http://www.w3.org/2000/svg" width="600" height="503.249"><linearGradient id="a" x1="0" x2="1" y1="0" y2="0" gradientTransform="scale(41.70117 -41.70117)rotate(45 10.293 11.555)" gradientUnits="userSpaceOnUse" spreadMethod="pad"><stop offset="0" style="stop-color:#8b723c"/><stop offset=".3" style="stop-color:#d2bb7b"/><stop offset=".5" style="stop-color:#ebd491"/><stop offset=".7" style="stop-color:#d2bb7b"/><stop offset="1" style="stop-color:#8b723c"/></linearGradient><path fill="#fff" d="M171.384 0s-31.646 3.383-31.646 36.158L22.077 68.988S-7.301 80.264 1.722 118.733l97.292 363.023s20.369 27.176 44.107 20.41l156.886-43.2 156.927 43.2c23.738 6.766 44.107-20.41 44.107-20.41l97.237-363.023c9.023-38.469-20.355-49.747-20.355-49.747l-117.606-32.83C460.317 3.384 428.616 0 428.616 0Z"/><path d="M172.402 13.547c-1.444.262-6.01 1.28-10.26 4.126-6.065 4.03-8.857 9.889-8.857 18.485v10.315S28.472 81.283 26.643 81.778c-3.273 1.5-13.052 7.468-13.052 23.037 0 3.177.44 6.726 1.348 10.7.165.702 94.871 354.152 96.384 359.846 4.181 4.731 16.49 16.972 28.043 13.699l160.64-44.218 160.628 44.218c11.608 3.273 23.862-8.968 28.043-13.699 1.568-5.694 96.22-359.144 96.384-359.846.963-3.974 1.348-7.523 1.348-10.7 0-15.569-9.779-21.538-13.01-23.037-1.816-.495-126.684-35.305-126.684-35.305V36.158c0-8.596-2.792-14.455-8.802-18.485-4.305-2.847-8.816-3.865-10.315-4.126z"/><path d="M472.02 162.586s-.387-.164-.387-.492v-27.305s0-.547.387-.547h18.363s.437.113.437.547v27.305s-.054.492-.437.492zm20.031-27.848s-.215-1.644-1.531-1.644h-7.129l9.539-2.633s.547-.273.82.328l7.02 26.039s.273.824-.383 1.043l-8.336 2.246zm-30.067 23.078c-.656-.218-.382-1.043-.382-1.043l7.015-26.035c.278-.605.824-.332.824-.332l9.536 2.629h-7.125c-1.317 0-1.536 1.649-1.536 1.649v25.378z" style="fill:url(#a)" transform="matrix(13.75349 0 0 -13.75349 -6317.951 2266.643)"/><path d="M349.478 207.705c6.395-19.02 9.614-35.938 9.614-50.723 0-17.508-4.072-31.853-12.186-43.076-8.115-11.291-18.43-16.93-31-16.93-15.954 0-29.282 8.76-39.968 26.269-10.7 17.577-16.01 37.67-16.01 60.282 0 15.582 3.866 27.286 11.485 34.975 7.688 7.743 17.04 11.608 28.098 11.608 8.926 0 17.577-1.885 25.898-5.584 8.335-3.769 16.34-9.353 24.069-16.82m-133.12 151.233-10.962-11.498c63.17-17.894 108.309-56.252 135.335-115.186-9.463 7.042-18.87 12.31-28.209 15.9-9.407 3.548-18.76 5.322-28.043 5.322-19.833 0-35.195-6.56-46.212-19.723-11.058-13.217-16.545-28.84-16.545-47.105 0-25.692 9.022-49.54 27.135-71.519 18.1-22.019 40.56-33.035 67.31-33.035 23.972 0 43.035 8.706 57.173 26.104 14.125 17.357 21.167 39.06 21.167 64.902 0 41.11-18.004 81.022-54.051 119.917-35.993 38.95-77.364 60.928-124.098 65.92"/></svg>