<svg xmlns="http://www.w3.org/2000/svg" width="600" height="503.249"><linearGradient id="a" x1="0" x2="1" y1="0" y2="0" gradientTransform="scale(41.70117 -41.70117)rotate(45 9.295 9.145)" gradientUnits="userSpaceOnUse" spreadMethod="pad"><stop offset="0" style="stop-color:#612c75"/><stop offset=".3" style="stop-color:#7b5190"/><stop offset=".5" style="stop-color:#bf99c3"/><stop offset=".7" style="stop-color:#7b5190"/><stop offset="1" style="stop-color:#612c75"/></linearGradient><path fill="#612c75" d="M171.384 0s-31.646 3.383-31.646 36.158L22.077 68.988S-7.301 80.264 1.722 118.733l97.292 363.023s20.369 27.176 44.107 20.41l156.886-43.2 156.927 43.2c23.738 6.766 44.107-20.41 44.107-20.41l97.237-363.023c9.023-38.469-20.355-49.747-20.355-49.747l-117.606-32.83C460.317 3.384 428.616 0 428.616 0Z"/><path fill="#fff" d="M172.402 13.547c-1.444.262-6.01 1.28-10.26 4.126-6.065 4.03-8.857 9.889-8.857 18.485v10.315S28.472 81.283 26.643 81.778c-3.273 1.5-13.052 7.468-13.052 23.037 0 3.177.44 6.726 1.348 10.7.165.702 94.871 354.152 96.384 359.846 4.181 4.731 16.49 16.972 28.043 13.699l160.64-44.218 160.628 44.218c11.608 3.273 23.862-8.968 28.043-13.699 1.568-5.694 96.22-359.144 96.384-359.846.963-3.974 1.348-7.523 1.348-10.7 0-15.569-9.779-21.538-13.01-23.037-1.816-.495-126.684-35.305-126.684-35.305V36.158c0-8.596-2.792-14.455-8.802-18.485-4.305-2.847-8.816-3.865-10.315-4.126z"/><path d="M388.77 162.586s-.383-.164-.383-.492v-27.305s0-.547.383-.547h18.367s.437.113.437.547v27.305s-.054.492-.437.492zm20.035-27.848s-.219-1.644-1.535-1.644h-7.125l9.539-2.633s.546-.273.82.328l7.019 26.039s.274.824-.386 1.043l-8.332 2.246zm-30.067 23.078c-.656-.218-.383-1.043-.383-1.043l7.016-26.035c.274-.605.824-.332.824-.332l9.535 2.629h-7.125c-1.316 0-1.535 1.649-1.535 1.649v25.378z" style="fill:url(#a)" transform="matrix(13.75347 0 0 -13.75347 -5173.022 2266.64)"/><path fill="#fff" d="M349.478 207.705c6.395-19.021 9.559-35.938 9.559-50.723 0-17.508-4.016-31.853-12.13-43.076-8.17-11.291-18.485-16.93-31.001-16.93-16.01 0-29.336 8.76-39.968 26.269-10.7 17.577-16.022 37.67-16.022 60.281 0 15.583 3.878 27.287 11.497 34.975 7.689 7.744 17.041 11.608 28.099 11.608 8.926 0 17.577-1.884 25.898-5.584 8.334-3.768 16.339-9.352 24.068-16.82M216.345 358.938l-10.948-11.498c63.17-17.893 108.253-56.252 135.279-115.185-9.407 7.042-18.87 12.31-28.208 15.899-9.353 3.548-18.705 5.322-27.989 5.322-19.832 0-35.195-6.56-46.266-19.722-11.003-13.217-16.49-28.841-16.49-47.106 0-25.691 9.021-49.54 27.135-71.518 18.044-22.019 40.504-33.036 67.254-33.036 24.014 0 43.09 8.706 57.173 26.105 14.125 17.356 21.167 39.06 21.167 64.902 0 41.11-17.948 81.022-53.996 119.917-36.048 38.95-77.418 60.928-124.111 65.92"/></svg>