<svg xmlns="http://www.w3.org/2000/svg" width="600.001" height="503.25"><path d="M171.385 0s-31.648 3.384-31.648 36.158L22.09 68.988S-7.3 80.266 1.72 118.734l97.294 363.024s20.369 27.177 44.107 20.41l156.942-43.201 156.87 43.201c23.74 6.767 44.108-20.41 44.108-20.41l97.239-363.024c9.022-38.468-20.356-49.746-20.356-49.746l-117.607-32.83C460.317 3.384 428.615 0 428.615 0Zm1.018 13.547h255.195c1.499.261 6.023 1.28 10.314 4.127 6.024 4.03 8.817 9.888 8.817 18.484v10.315s124.854 34.81 126.683 35.304c3.219 1.5 13.053 7.469 13.053 23.037 0 3.178-.426 6.727-1.348 10.702-.206.701-94.871 354.151-96.425 359.845-4.195 4.732-16.45 16.973-28.002 13.7l-160.684-44.22-160.64 44.22c-11.553 3.273-23.849-8.968-28.044-13.7-1.499-5.694-96.22-359.143-96.384-359.845-.909-3.975-1.334-7.524-1.334-10.702 0-15.568 9.765-21.538 13.052-23.037 1.83-.495 126.63-35.304 126.63-35.304V36.158c0-8.596 2.79-14.454 8.855-18.484 4.25-2.847 8.817-3.865 10.262-4.127m1.511 16.973s-5.267 2.254-5.267 6.765V412.77s0 7.578 5.267 7.578h252.612s6.01-1.513 6.01-7.578V37.285s-.743-6.765-6.01-6.765zm275.551 33.957v349.048s-3.012 22.612-21.111 22.612h-97.992l131.193 36.213s7.523 3.754 11.277-4.512l96.551-358.182s3.755-11.277-5.322-14.289zm-298.918.755L35.953 96.123c-9.036 2.998-5.267 14.346-5.267 14.346l96.48 358.127c3.769 8.266 11.348 4.51 11.348 4.51l131.139-36.157h-97.995c-18.113 0-21.11-22.68-21.11-22.68zM316.18 82.094c23.958 0 43.021 8.707 57.16 26.105 14.07 17.357 21.166 39.06 21.166 64.903 0 41.109-18.003 81.02-54.05 119.916-36.049 38.95-77.419 60.929-124.098 65.921l-10.907-11.498c63.129-17.893 108.254-56.251 135.28-115.185-9.463 7.042-18.857 12.309-28.264 15.898-9.352 3.549-18.69 5.323-27.988 5.323-19.833 0-35.195-6.561-46.211-19.723-11.058-13.217-16.545-28.84-16.545-47.106 0-25.691 9.035-49.54 27.135-71.517 18.1-22.02 40.503-33.037 67.322-33.037m-.274 14.883c-16.009 0-29.337 8.759-39.968 26.267-10.7 17.577-16.008 37.673-16.008 60.283 0 15.583 3.865 27.287 11.498 34.975 7.674 7.743 17.026 11.607 28.098 11.607 8.912 0 17.564-1.884 25.884-5.584 8.335-3.768 16.34-9.352 24.069-16.82 6.395-19.021 9.627-35.938 9.627-50.723 0-17.508-4.085-31.853-12.2-43.076-8.17-11.291-18.484-16.93-31-16.93"/></svg>