<svg xmlns="http://www.w3.org/2000/svg" width="500.06" height="607.193" viewBox="0 0 500.06 607.193"><defs><linearGradient id="a" x1="-24.458" x2="554.073" y1="266.72" y2="266.72" gradientUnits="userSpaceOnUse"><stop offset=".095" stop-color="#85723e"/><stop offset=".128" stop-color="#8f7b45"/><stop offset=".286" stop-color="#bba263"/><stop offset=".408" stop-color="#d6ba76"/><stop offset=".479" stop-color="#e1c47e"/><stop offset=".544" stop-color="#dabe79"/><stop offset=".633" stop-color="#c9af6d"/><stop offset=".735" stop-color="#ad9559"/><stop offset=".846" stop-color="#85723e"/><stop offset=".848" stop-color="#85723e"/></linearGradient><linearGradient id="b" x1="207.274" x2="295.832" y1="173.421" y2="173.421" gradientUnits="userSpaceOnUse"><stop offset=".139" stop-color="#85723e"/><stop offset=".453" stop-color="#dcc07b"/><stop offset=".468" stop-color="#e1c47e"/><stop offset=".531" stop-color="#d8bc78"/><stop offset=".632" stop-color="#c1a767"/><stop offset=".757" stop-color="#9b864d"/><stop offset=".823" stop-color="#85723e"/></linearGradient></defs><path d="M500.06 117.303c-24.07 98.92-25.6 194.14-86.07 293.16-36.73 60.15-86.92 118.03-163.96 196.73-77.04-78.7-127.23-136.58-163.96-196.73-60.47-99.02-62-194.24-86.07-293.16 58.7-24.54 79.58-34.62 110.57-47.6 36.6-47.2 88.37-69.98 139.46-69.7 51.09-.28 102.86 22.5 139.46 69.7 30.99 12.98 51.87 23.06 110.57 47.6"/><path d="M157.518 470.43C50.396 344.577 51.274 250.04 26.25 131.065c13.317-6 37.207-16.098 62.67-27.33-43.244 102.695 20.113 181.299 45.714 201.21 5.597 38.995 13.335 96.851 22.884 165.485m184.83.074c107.12-125.854 106.242-220.39 131.266-339.366-13.317-6-40.207-17.098-65.67-28.33 43.244 102.696-19.113 183.3-44.714 203.21-5.597 38.995-11.335 95.851-20.884 164.486M189.428 266.1c-6.595-4.837-36.27-27.699-43.97-69.976-1.832-10.062-7.44-47.025 16.531-81.716 47.78-69.146 144.11-48.439 175.94.11 8.583 13.092 21.983 40.992 16.3 79.65-3.633 24.725-17.272 49.845-44.819 71.932.604 88.024.64 242.707.64 242.707s2.25-2.222 3.403-11.112c3.998-30.847 15.585-118.171 26.396-205.894 115.628-89.048 45.823-267.17-89.82-267.17-133.479 0-211.508 171.397-92.512 267.17 9.594 67.775 25.44 182.635 29.364 211.317.589 4.3 3.105 4.967 3.105 4.967s.467-192.942-.558-241.985" style="fill:url(#a)"/><path d="M332.387 165.098c-13.648-103.41-159.878-90.293-164.892 0-3.08 55.478 24.55 73.902 45.366 90.293v278.341l37.717 40.098 36.625-40.976s.292-266.134.292-278.927c3.33-3 52.502-31.17 44.892-88.829m-82.165 57.146c-26.786 0-48.5-21.714-48.5-48.5s21.714-48.5 48.5-48.5 48.5 21.715 48.5 48.5-21.714 48.5-48.5 48.5" style="fill:#fff"/><circle cx="249.932" cy="173.421" r="33" style="fill:url(#b)"/></svg>