<svg xmlns="http://www.w3.org/2000/svg" width="500.06" height="607.193" viewBox="0 0 500.06 607.193"><path d="M389.49 69.703c-36.6-47.2-88.37-69.98-139.46-69.7-51.09-.28-102.86 22.5-139.46 69.7C79.58 82.683 58.7 92.763 0 117.303c24.07 98.92 25.6 194.14 86.07 293.16 36.73 60.15 86.92 118.03 163.96 196.73 77.04-78.7 127.23-136.58 163.96-196.73 60.47-99.02 62-194.24 86.07-293.16-58.7-24.54-79.58-34.62-110.57-47.6M26.25 131.065c13.317-6 37.207-16.098 62.67-27.33-43.244 102.695 20.113 181.3 45.714 201.21 5.597 38.995 13.335 96.851 22.884 165.485C50.396 344.577 51.274 250.04 26.25 131.065m261.245 122.862c0 12.793-.292 278.927-.292 278.927l-36.625 40.976-37.717-40.098V255.391c-20.816-16.39-48.446-34.815-45.366-90.293 5.014-90.293 151.244-103.41 164.892 0 7.61 57.659-41.561 85.83-44.892 88.83m25.959 243.769c-1.153 8.89-3.403 11.112-3.403 11.112s-.036-154.683-.64-242.707c27.547-22.087 41.186-47.207 44.82-71.932 5.682-38.658-7.718-66.558-16.302-79.65-31.829-48.549-128.158-69.256-175.939-.11-23.971 34.69-18.363 71.654-16.53 81.716 7.699 42.277 37.374 65.139 43.97 69.976 1.024 49.043.557 241.985.557 241.985s-2.516-.666-3.105-4.967c-3.925-28.682-19.77-143.542-29.364-211.317C38.522 196.03 116.55 24.632 250.03 24.632c135.643 0 205.448 178.122 89.82 267.17-10.81 87.723-22.398 175.047-26.396 205.894m28.893-27.192c9.549-68.635 15.287-125.491 20.884-164.485 25.6-19.912 87.958-100.515 44.714-203.21 25.463 11.231 52.353 22.329 65.67 28.329-25.024 118.975-24.146 213.512-131.268 339.366m-92.125-345.26c-26.786 0-48.5 21.715-48.5 48.5s21.714 48.5 48.5 48.5 48.5-21.714 48.5-48.5-21.714-48.5-48.5-48.5m-.29 81.177c-18.225 0-33-14.774-33-33s14.775-33 33-33 33 14.775 33 33-14.774 33-33 33" style="fill:#fff"/></svg>