<svg xmlns="http://www.w3.org/2000/svg" xmlns:xlink="http://www.w3.org/1999/xlink" width="600" height="264.337"><linearGradient id="c" x1="0" x2="1" y1="0" y2="0" gradientTransform="matrix(20.23085 -9.4338 -9.4338 -20.23083 420.796 398.79)" gradientUnits="userSpaceOnUse" spreadMethod="pad"><stop offset="0" style="stop-color:#fff"/><stop offset=".3" style="stop-color:#d9d9d9"/><stop offset=".5" style="stop-color:#b2b2b2"/><stop offset=".8" style="stop-color:#737373"/><stop offset="1" style="stop-color:#4d4d4d"/></linearGradient><linearGradient id="b" x1="0" x2="1" y1="0" y2="0" gradientTransform="matrix(34.59459 -16.13171 -16.13171 -34.59457 377.494 394.363)" gradientUnits="userSpaceOnUse" spreadMethod="pad"><stop offset="0" style="stop-color:#fff"/><stop offset=".25" style="stop-color:#d9d9d9"/><stop offset=".4" style="stop-color:#b2b2b2"/><stop offset=".7" style="stop-color:#737373"/><stop offset="1" style="stop-color:#4d4d4d"/></linearGradient><linearGradient id="a" x1="0" x2="1" y1="0" y2="0" gradientTransform="matrix(-26.28987 -7.04436 -7.04436 26.28989 361.154 402.19)" gradientUnits="userSpaceOnUse" spreadMethod="pad"><stop offset="0" style="stop-color:#fff"/><stop offset=".3" style="stop-color:#d9d9d9"/><stop offset=".45" style="stop-color:#b2b2b2"/><stop offset=".7" style="stop-color:#737373"/><stop offset="1" style="stop-color:#4d4d4d"/></linearGradient><linearGradient xlink:href="#a" id="d" x1="0" x2="1" y1="0" y2="0" gradientTransform="matrix(-26.28987 -7.04436 -7.04436 26.28989 361.154 402.19)" gradientUnits="userSpaceOnUse" spreadMethod="pad"/><linearGradient xlink:href="#b" id="e" x1="0" x2="1" y1="0" y2="0" gradientTransform="matrix(34.59459 -16.13171 -16.13171 -34.59457 377.494 394.363)" gradientUnits="userSpaceOnUse" spreadMethod="pad"/><linearGradient xlink:href="#c" id="f" x1="5.82" x2="2.792" y1="12.979" y2="14.391" gradientTransform="matrix(20.23085 -9.4338 -9.4338 -20.23083 420.796 398.79)" gradientUnits="userSpaceOnUse" spreadMethod="pad"/><path d="M444.91 264.337a9.78 9.78 0 0 1-5.635-1.786l-17.733-12.507a9.86 9.86 0 0 1-2.843-12.967l42.275-73.06-7.568-4.912c-14.293-9.086-29.666-15.192-45.7-18.277-1.239 14.927-8.036 33.925-28.337 42.29-5.513 2.288-12.182 3.466-19.308 3.466-9.203 0-23.511-1.975-39.443-11.385-4.101-2.42-102.004-59.287-207.648-59.287-7.923 0-15.815.325-23.428.974l-79.256 3.705c-.163 0-.325.015-.472.015-4.468 0-8.391-3.04-9.513-7.375a9.88 9.88 0 0 1 5.208-11.288C54.302 78.002 89.84 65.76 111.493 59.593c-13.172-7.285-32.038-17.227-55.228-28.069a9.795 9.795 0 0 1-5.517-10.562 9.816 9.816 0 0 1 8.72-8.112c.676-.06 16.43-1.578 37.732-1.578 12.877 0 25.018.574 36.124 1.665 37.645 3.701 110.115 16.212 186.127 58.06 1.137-9.248 2.466-15.313 2.481-15.384l1.401-6.684c.62-2.995 2.64-5.532 5.381-6.843l6.299-2.98c19.663-9.368 43.37-14.088 70.423-14.088 55.213 0 106.989 19.855 109.157 20.712l13.983 5.381 5.09.193c-2.583-4.943-3.938-10.456-3.938-16.196C529.728 15.755 545.498 0 564.88 0 584.245 0 600 15.755 600 35.108c0 19.398-15.755 35.153-35.12 35.153-.577 0-1.15-.015-1.729-.03l.873 3.481c.634 2.564.234 5.28-1.152 7.508L453.304 259.647a9.74 9.74 0 0 1-6.42 4.471 8.3 8.3 0 0 1-1.975.22" style="fill:#fff"/><path d="M485.104 144.177s-3.523-11.095-10.827-26.728c0 0 20.21-22.318 48.4-36.924zM564.866 9.811c-13.972 0-25.316 11.328-25.316 25.327 0 6.963 2.832 13.288 7.394 17.877l-4.974 8.45-15.4-.603c-7.155-2.757-15.516-5.99-15.516-5.99-4.191-1.62-103.48-39.382-171.82-6.902l-6.283 2.994-1.461 6.801c-.178.884-2.776 13.542-3.599 29.383-81.56-48.487-161.88-61.11-195.542-64.445-36.048-3.558-71.922-.076-71.922-.076 47.996 22.424 77.413 40.92 77.413 40.92S93.805 69.58 9.814 110.78l78.92-3.7c117.592-9.898 232.046 56.82 236.869 59.653 19.485 11.532 38.929 11.872 50.02 7.3 26.95-11.092 22.068-44.58 22.068-44.58 17.953 1.832 39.224 7.538 61.085 21.404l15.37 10.019-46.95 81.129 17.729 12.525L554.496 76.103l-2.096-8.35 5.015-8.542c2.36.737 4.838 1.254 7.45 1.254 14 0 25.328-11.344 25.328-25.327 0-13.999-11.329-25.327-25.327-25.327"/><path d="M332.759 154.607c-22.952-13.557-133.57-70.952-245.207-61.572 0 0 44.858-15.637 82.412-21.89 0 0-8.334-13.557-54.238-35.478 0 0 102.254 1.05 208.683 65.733 0 0 0 17.73 6.269 32.362 6.253 14.588 15.637 10.415 15.637 10.415s14.618 11.491 27.14 15.649c0 0-17.744 8.35-40.696-5.219" style="fill:#fff"/><path d="M357.109 399.375c-9.945-1.656-21.824-5.797-21.824-5.797 9.731.817 19.434-.281 28.285-2.254l-3.558 15.121c-10.407 2.254-17.266 2.325-17.266 2.325 12.156-5.805 14.363-9.395 14.363-9.395" style="fill:url(#d)" transform="matrix(3.77625 0 0 -3.77625 -1178.568 1579.284)"/><path d="M374.676 388.316c12.715-4.046 22.344-9.156 25.543-11.043 6.078-3.593 10.777-1.382 10.777-1.382-3.316 1.101-7.187 4.144-7.187 4.144s-2.485-1.105-4.141 2.758c-1.66 3.875-1.66 8.566-1.66 8.566a121 121 0 0 1-17.223 8.661z" style="fill:url(#e)" transform="matrix(3.77625 0 0 -3.77625 -1178.568 1579.284)"/><path d="m383.5 146.771-15.267-7.817c7.303-6.253 15.652-5.192 15.652-5.192z" style="fill:#4d4d4d"/><path d="m464.233 105.572-12.507-1.046 14.602 34.428c-62.617-39.65-122.093-18.764-122.093-18.764-6.269-25.059 1.046-59.506 1.046-59.506 63.652-30.251 160.683 7.319 160.683 7.319-31.286 20.87-41.731 37.57-41.731 37.57" style="fill:url(#f)"/></svg>