<svg xmlns="http://www.w3.org/2000/svg" xml:space="preserve" width="996.89" height="473.376" style="clip-rule:evenodd;fill-rule:evenodd;stroke-linejoin:round;stroke-miterlimit:2" viewBox="0 0 996.89 473.376"><path d="M190.48 299.933S248.05 83.751 0 73.318c0 0 56.53-75.352 154.53-73.276S351.58 76.81 358.47 80.517s32.31 24.367 111.77 32.842c0 0 7.65-24.45 26.65-32.842 0 0 14.37 3.533 26.95 32.905 0 0 75.95-2.08 122.73-38.666C693.36 38.171 780.92.298 842.69.042c61.78-.255 104.08 25.534 154.2 71.116 0 0-242.14.924-191.58 229.105 0 0-71.63-39.034-90-33.786 0 0 67.56 106.015-37.39 206.9 0 0-19.02-57.202-27.55-62.449 0 0-9.18-23.615-54.44-53.788-45.26-30.174-83.28-61.004-99.04-89.21 0 0-42.65 59.036-93.81 84.618 0 0-32.8 20.334-58.38 53.132-25.59 32.797-26.9 67.696-26.9 67.696s-106.92-85.407-38.7-206.102c0 0-35.55-.933-88.62 32.66"/><path d="M218.593 259.422s31.11-159.087-162.01-205.307c0 0 95.6-84.8 260.85 29.013 0 0 57.23 46.94 138.89 51.441 0 0-18.2 26.363-14.35 59.8-2.03-1.22-1.24 38.358-31.08 45.216 0 0-154.62-14.596-192.3 19.837m-41.06-187.739s51.24 16.911 48.7 64.398c0 0 51.04 81.503 187.87 73.111 0 0-33.57-6.413-74.07-67.607 0 0-30.92-61.826-162.5-69.902" style="fill:url(#a)"/><path d="M244.563 110.851s15.22 55.817 97.93 72.562c0 0-21.82-30.884-33.49-41.828s-24.86-24.645-64.44-30.734" style="fill:url(#b)"/><path d="M775.156 259.422s-31.11-159.087 162.01-205.307c0 0-95.6-84.8-260.85 29.013 0 0-57.23 46.94-138.89 51.441 0 0 18.2 26.363 14.35 59.8 2.03-1.22 1.24 38.358 31.08 45.216 0 0 154.62-14.596 192.3 19.837m41.06-187.739s-51.24 16.911-48.7 64.398c0 0-51.04 81.503-187.87 73.111 0 0 33.57-6.413 74.07-67.607 0 0 30.92-61.826 162.5-69.902" style="fill:url(#c)"/><path d="M749.186 110.851s-15.22 55.817-97.93 72.562c0 0 21.82-30.884 33.49-41.828s24.86-24.645 64.44-30.734" style="fill:url(#d)"/><path d="M465.07 169.991s9.14-49.812 31.82-66.807c0 0 20.92 12.307 30.88 67.393 0 0-23.08 22.268-30.88 72.666 0 0-11.31-55.672-31.82-73.252" style="fill:url(#e)"/><path d="M316.14 262.921s-7.45 28.383 6.03 64.571c0 0 39.38-19.868 85.5-9.934 0 0 103.58-52.517 51.62-122.687 0 0 10.33 47.952-43.43 68.136z" style="fill:url(#f)"/><path d="M677.63 262.921s7.45 28.383-6.03 64.571c0 0-39.38-19.868-85.5-9.934 0 0-103.58-52.517-51.62-122.687 0 0-10.33 47.952 43.43 68.136z" style="fill:url(#g)"/><path d="M308.97 428.427s-57.36-59.026-10.75-147.006c0 0-.99 37.962 15.86 68.887 0 0 19.08-18.029 75.52-19.024 0 0-77.21 58.222-80.63 97.143" style="fill:url(#h)"/><path d="M684.8 428.427s57.36-59.026 10.75-147.006c0 0 .99 37.962-15.86 68.887 0 0-19.08-18.029-75.52-19.024 0 0 77.21 58.222 80.63 97.143" style="fill:url(#i)"/><defs><linearGradient id="a" x1="0" x2="1" y1="0" y2="0" gradientTransform="rotate(29.211 31.646 121.443)scale(942.724)" gradientUnits="userSpaceOnUse"><stop offset="0" style="stop-color:#8d742f;stop-opacity:1"/><stop offset=".07" style="stop-color:#967d38;stop-opacity:1"/><stop offset=".18" style="stop-color:#ae954f;stop-opacity:1"/><stop offset=".2" style="stop-color:#b39a54;stop-opacity:1"/><stop offset=".22" style="stop-color:#b9a059;stop-opacity:1"/><stop offset=".3" style="stop-color:#cab068;stop-opacity:1"/><stop offset=".39" style="stop-color:#d4ba71;stop-opacity:1"/><stop offset=".5" style="stop-color:#d7bd74;stop-opacity:1"/><stop offset=".61" style="stop-color:#d4ba71;stop-opacity:1"/><stop offset=".7" style="stop-color:#cab068;stop-opacity:1"/><stop offset=".78" style="stop-color:#b9a059;stop-opacity:1"/><stop offset=".8" style="stop-color:#b39a54;stop-opacity:1"/><stop offset=".86" style="stop-color:#a38a45;stop-opacity:1"/><stop offset=".94" style="stop-color:#937a35;stop-opacity:1"/><stop offset="1" style="stop-color:#8d742f;stop-opacity:1"/></linearGradient><linearGradient id="b" x1="0" x2="1" y1="0" y2="0" gradientTransform="matrix(97.9326 0 0 72.5614 244.563 147.132)" gradientUnits="userSpaceOnUse"><stop offset="0" style="stop-color:#8d742f;stop-opacity:1"/><stop offset="1" style="stop-color:#8d742f;stop-opacity:1"/></linearGradient><linearGradient id="c" x1="0" x2="1" y1="0" y2="0" gradientTransform="rotate(150.789 465.228 121.23)scale(942.724 -942.724)" gradientUnits="userSpaceOnUse"><stop offset="0" style="stop-color:#8d742f;stop-opacity:1"/><stop offset=".07" style="stop-color:#967d38;stop-opacity:1"/><stop offset=".18" style="stop-color:#ae954f;stop-opacity:1"/><stop offset=".2" style="stop-color:#b39a54;stop-opacity:1"/><stop offset=".22" style="stop-color:#b9a059;stop-opacity:1"/><stop offset=".3" style="stop-color:#cab068;stop-opacity:1"/><stop offset=".39" style="stop-color:#d4ba71;stop-opacity:1"/><stop offset=".5" style="stop-color:#d7bd74;stop-opacity:1"/><stop offset=".61" style="stop-color:#d4ba71;stop-opacity:1"/><stop offset=".7" style="stop-color:#cab068;stop-opacity:1"/><stop offset=".78" style="stop-color:#b9a059;stop-opacity:1"/><stop offset=".8" style="stop-color:#b39a54;stop-opacity:1"/><stop offset=".86" style="stop-color:#a38a45;stop-opacity:1"/><stop offset=".94" style="stop-color:#937a35;stop-opacity:1"/><stop offset="1" style="stop-color:#8d742f;stop-opacity:1"/></linearGradient><linearGradient id="d" x1="0" x2="1" y1="0" y2="0" gradientTransform="matrix(-97.9326 0 0 72.5614 749.186 147.132)" gradientUnits="userSpaceOnUse"><stop offset="0" style="stop-color:#8d742f;stop-opacity:1"/><stop offset="1" style="stop-color:#8d742f;stop-opacity:1"/></linearGradient><linearGradient id="e" x1="0" x2="1" y1="0" y2="0" gradientTransform="rotate(-89.736 506.889 8.131)scale(439.02866)" gradientUnits="userSpaceOnUse"><stop offset="0" style="stop-color:#8d742f;stop-opacity:1"/><stop offset=".07" style="stop-color:#967d38;stop-opacity:1"/><stop offset=".18" style="stop-color:#ae954f;stop-opacity:1"/><stop offset=".2" style="stop-color:#b39a54;stop-opacity:1"/><stop offset=".22" style="stop-color:#b9a059;stop-opacity:1"/><stop offset=".3" style="stop-color:#cab068;stop-opacity:1"/><stop offset=".39" style="stop-color:#d4ba71;stop-opacity:1"/><stop offset=".5" style="stop-color:#d7bd74;stop-opacity:1"/><stop offset=".61" style="stop-color:#d4ba71;stop-opacity:1"/><stop offset=".7" style="stop-color:#cab068;stop-opacity:1"/><stop offset=".78" style="stop-color:#b9a059;stop-opacity:1"/><stop offset=".8" style="stop-color:#b39a54;stop-opacity:1"/><stop offset=".86" style="stop-color:#a38a45;stop-opacity:1"/><stop offset=".94" style="stop-color:#937a35;stop-opacity:1"/><stop offset="1" style="stop-color:#8d742f;stop-opacity:1"/></linearGradient><linearGradient id="f" x1="0" x2="1" y1="0" y2="0" gradientTransform="rotate(144.293 204.61 172.73)scale(357.701)" gradientUnits="userSpaceOnUse"><stop offset="0" style="stop-color:#8d742f;stop-opacity:1"/><stop offset=".07" style="stop-color:#967d38;stop-opacity:1"/><stop offset=".18" style="stop-color:#ae954f;stop-opacity:1"/><stop offset=".2" style="stop-color:#b39a54;stop-opacity:1"/><stop offset=".22" style="stop-color:#b9a059;stop-opacity:1"/><stop offset=".3" style="stop-color:#cab068;stop-opacity:1"/><stop offset=".39" style="stop-color:#d4ba71;stop-opacity:1"/><stop offset=".5" style="stop-color:#d7bd74;stop-opacity:1"/><stop offset=".61" style="stop-color:#d4ba71;stop-opacity:1"/><stop offset=".7" style="stop-color:#cab068;stop-opacity:1"/><stop offset=".78" style="stop-color:#b9a059;stop-opacity:1"/><stop offset=".8" style="stop-color:#b39a54;stop-opacity:1"/><stop offset=".86" style="stop-color:#a38a45;stop-opacity:1"/><stop offset=".94" style="stop-color:#937a35;stop-opacity:1"/><stop offset="1" style="stop-color:#8d742f;stop-opacity:1"/></linearGradient><linearGradient id="g" x1="0" x2="1" y1="0" y2="0" gradientTransform="rotate(35.707 -39.383 907.42)scale(357.701 -357.701)" gradientUnits="userSpaceOnUse"><stop offset="0" style="stop-color:#8d742f;stop-opacity:1"/><stop offset=".07" style="stop-color:#967d38;stop-opacity:1"/><stop offset=".18" style="stop-color:#ae954f;stop-opacity:1"/><stop offset=".2" style="stop-color:#b39a54;stop-opacity:1"/><stop offset=".22" style="stop-color:#b9a059;stop-opacity:1"/><stop offset=".3" style="stop-color:#cab068;stop-opacity:1"/><stop offset=".39" style="stop-color:#d4ba71;stop-opacity:1"/><stop offset=".5" style="stop-color:#d7bd74;stop-opacity:1"/><stop offset=".61" style="stop-color:#d4ba71;stop-opacity:1"/><stop offset=".7" style="stop-color:#cab068;stop-opacity:1"/><stop offset=".78" style="stop-color:#b9a059;stop-opacity:1"/><stop offset=".8" style="stop-color:#b39a54;stop-opacity:1"/><stop offset=".86" style="stop-color:#a38a45;stop-opacity:1"/><stop offset=".94" style="stop-color:#937a35;stop-opacity:1"/><stop offset="1" style="stop-color:#8d742f;stop-opacity:1"/></linearGradient><linearGradient id="h" x1="0" x2="1" y1="0" y2="0" gradientTransform="matrix(109.632 0 0 147.006 279.96 354.924)" gradientUnits="userSpaceOnUse"><stop offset="0" style="stop-color:#8d742f;stop-opacity:1"/><stop offset="1" style="stop-color:#8d742f;stop-opacity:1"/></linearGradient><linearGradient id="i" x1="0" x2="1" y1="0" y2="0" gradientTransform="matrix(-109.632 0 0 147.006 713.81 354.924)" gradientUnits="userSpaceOnUse"><stop offset="0" style="stop-color:#8d742f;stop-opacity:1"/><stop offset="1" style="stop-color:#8d742f;stop-opacity:1"/></linearGradient></defs></svg>