<svg xmlns="http://www.w3.org/2000/svg" xml:space="preserve" width="880.583" height="404.679" style="clip-rule:evenodd;fill-rule:evenodd;stroke-linejoin:round;stroke-miterlimit:2" viewBox="0 0 880.583 404.679"><path d="M162.01 235.674S193.12 76.587 0 30.367c0 0 95.6-84.8 260.85 29.013 0 0 57.23 46.94 138.89 51.441 0 0-18.2 26.363-14.35 59.8-2.03-1.22-1.24 38.358-31.08 45.216 0 0-154.62-14.596-192.3 19.837M120.95 47.935s51.24 16.911 48.7 64.398c0 0 51.04 81.503 187.87 73.111 0 0-33.57-6.413-74.07-67.607 0 0-30.92-61.826-162.5-69.902"/><path d="M187.98 87.103s15.22 55.817 97.93 72.562c0 0-21.82-30.884-33.49-41.828s-24.86-24.645-64.44-30.734m530.593 148.571s-31.11-159.087 162.01-205.307c0 0-95.6-84.8-260.85 29.013 0 0-57.23 46.94-138.89 51.441 0 0 18.2 26.363 14.35 59.8 2.03-1.22 1.24 38.358 31.08 45.216 0 0 154.62-14.596 192.3 19.837m41.06-187.739s-51.24 16.911-48.7 64.398c0 0-51.04 81.503-187.87 73.111 0 0 33.57-6.413 74.07-67.607 0 0 30.92-61.826 162.5-69.902"/><path d="M692.603 87.103s-15.22 55.817-97.93 72.562c0 0 21.82-30.884 33.49-41.828s24.86-24.645 64.44-30.734m-284.116 59.14s9.14-49.812 31.82-66.807c0 0 20.92 12.307 30.88 67.393 0 0-23.08 22.268-30.88 72.666 0 0-11.31-55.672-31.82-73.252m-148.93 92.93s-7.45 28.383 6.03 64.571c0 0 39.38-19.868 85.5-9.934 0 0 103.58-52.517 51.62-122.687 0 0 10.33 47.952-43.43 68.136zm361.49 0s7.45 28.383-6.03 64.571c0 0-39.38-19.868-85.5-9.934 0 0-103.58-52.517-51.62-122.687 0 0-10.33 47.952 43.43 68.136z"/><path d="M252.387 404.68s-57.36-59.027-10.75-147.007c0 0-.99 37.962 15.86 68.887 0 0 19.08-18.029 75.52-19.024 0 0-77.21 58.222-80.63 97.143m375.83 0s57.36-59.026 10.75-147.006c0 0 .99 37.962-15.86 68.887 0 0-19.08-18.029-75.52-19.024 0 0 77.21 58.222 80.63 97.143"/></svg>