<?xml version="1.0" encoding="UTF-8"?><svg id="Layer_2" xmlns="http://www.w3.org/2000/svg" width="189.47251" height="248.36584" xmlns:xlink="http://www.w3.org/1999/xlink" viewBox="0 0 189.47251 248.36584"><defs><style>.cls-1{fill:#fff;}.cls-2{fill:url(#linear-gradient);}</style><linearGradient id="linear-gradient" x1="10.36885" y1="127.17175" x2="193.92444" y2="127.17175" gradientUnits="userSpaceOnUse"><stop offset=".03175" stop-color="#622c76"/><stop offset=".09269" stop-color="#703c81"/><stop offset=".3499" stop-color="#a87eaf"/><stop offset=".47078" stop-color="#bf99c2"/><stop offset=".54932" stop-color="#bb94bf"/><stop offset=".63036" stop-color="#b088b6"/><stop offset=".71259" stop-color="#9f73a8"/><stop offset=".79559" stop-color="#865693"/><stop offset=".87847" stop-color="#67327a"/><stop offset=".89054" stop-color="#622c76"/></linearGradient></defs><g id="TRC_Rarities"><g id="S"><path d="M0,54.87115c11.43292,70.62806,43.78958,136.99267,94.88105,178.26096,49.95731-39.31097,86.39634-112.04268,94.59146-178.33536-45.12805-16.0061-93.80488-31.7561-93.80488-31.7561,0,0-66.96642,20.80003-95.66763,31.8305Z"/><path class="cls-2" d="M94.7601,222.50407C72.21641,204.68699,22.47861,144.7876,9.05178,59.98272c22.15244-9.55793,85.70832-28.14329,85.70832-28.14329,0,0,60.54168,19.17073,85.05388,27.78659-8.12195,73.04268-54.21951,138.16463-85.05388,162.87805Z"/><path d="M25.07719,244.31708C31.84548,111.91464,64.47962,35.69513,97.95524,0c53.01218,77.2561,68.08536,153.20731,75.29266,248.36584-14.52438-31.5-43.27756-101.69525-56.35364-100.7561-8.82928.63416-40.81708,23.67075-91.81708,96.70734Z"/><path class="cls-1" d="M36.17474,214.46341C41.88206,100.60976,79.64324,35.78049,97.93592,14.56098c17.12195,30.29268,53.48272,89.23171,62.26321,184.5-12.36585-23.52439-27.98272-57.86789-41.02439-59.0752-19.39126,2.25-54.31707,34.81911-83,74.47764Z"/></g></g></svg>