<?xml version="1.0" encoding="UTF-8"?><svg id="Layer_2" xmlns="http://www.w3.org/2000/svg" width="189.5" height="248.40002" viewBox="0 0 189.5 248.40002"><g id="Layer_2-2"><path d="M160.43774,149.1156c14.96844-30.02814,25.18103-62.83466,29.06226-94.21558-26.5719-9.42682-54.38049-18.77972-72.75378-24.87671-5.66003-10.0141-11.87878-20.0072-18.74622-30.02332-7.26904,7.7464-14.5,17.40295-21.43628,29.12354C54.52838,36.12396,18.93665,47.64209,0,54.90002c5.88477,36.44434,17.39282,71.74792,34.15546,103.07697-4.29767,25.64557-7.43701,54.33978-9.05548,86.323,12.95081-18.53735,24.67358-33.85114,35.10522-46.40167,10.38263,13.1076,21.94537,24.99731,34.69482,35.3017,17.63293-13.8595,33.55713-31.88971,47.16467-52.31348,11.43378,22.27826,23.41443,50.52332,31.23529,67.51349-2.6781-35.41101-6.4541-68.14868-12.86224-99.28442ZM179.90002,59.70001c-3.02649,27.27533-11.36615,53.45227-22.22784,76.84344-7.7218-33.1701-18.76917-64.64355-35.07117-95.74908,19.23627,6.19263,43.72809,14.16138,57.29901,18.90564ZM9.09998,60c13.32501-5.76215,41.52448-14.72919,61.94531-20.979-13.72803,26.08313-25.9527,60.8692-34.51862,105.70648-12.05334-24.04681-22.34882-52.5929-27.4267-84.72748ZM40.39764,169.08154c.28009-2.04285.57361-4.05945.87384-6.06201.06201-.41382.12451-.82666.18738-1.23871.3031-1.98633.61285-3.95898.93494-5.90552,9.36664-56.61578,26.56329-96.43091,40.97864-120.58875.57312-.96045,1.14166-1.89569,1.70526-2.80682.01355-.02197.02704-.04327.04059-.06519.55908-.90302,1.1134-1.7829,1.6618-2.63739.00031-.00043.00055-.00092.00085-.00134.54437-.84814,1.08264-1.67059,1.61523-2.47101.03485-.05237.0694-.10364.10425-.15582.52155-.78204,1.03784-1.54382,1.54681-2.28003,2.86212-4.13983,5.51624-7.56207,7.85278-10.26892,1.92072,3.40344,4.09491,7.18848,6.43622,11.32465h0c.46588.823.93921,1.66223,1.41827,2.51483.04175.07422.08423.15027.1261.22473,1.46136,2.6026,2.98065,5.34033,4.54736,8.21948,13.84076,25.43561,31.16815,61.76886,41.8407,110.70007h0c.40259,1.84576.79175,3.71594,1.17371,5.59906.05835.2865.11713.57214.17493.8595.39307,1.95947.7771,3.93524,1.14893,5.93219,2.29071,12.3017,4.15894,25.31964,5.43378,39.12549-4.80707-9.11017-10.0957-19.85406-15.52667-29.67114-.04193-.07587-.08386-.15137-.12585-.22705-8.53992-15.40778-17.42609-28.47064-25.34747-29.20184-14.16107,1.6059-36.58069,19.41882-58.81952,44.35846h0l-.00128.00146c-8.22687,9.22607-16.4292,19.41974-24.1792,30.14008.80664-16.11816,2.25507-31.25116,4.19763-45.41846ZM94.79999,222.60004v-.10004c-7.50348-5.90985-17.99609-16.47369-29.15393-31.03687,27.51788-31.96423,45.08582-43.44257,51.25397-43.8631,5.12823-.35236,12.66254,10.1922,20.80298,25.04456-14.36371,22.14685-29.96332,39.61206-42.90302,49.95544Z"/></g></svg>