<svg xmlns="http://www.w3.org/2000/svg" id="Layer_2" width="247.183" height="104.133" viewBox="0 0 247.183 104.133"><defs><style>.cls-1{fill:#fff}</style></defs><g id="SDS_Rarities"><g id="C"><path d="M76.137 104.133c-3.226-4.985-7.04-5.808-12.045-6.055 0-3.832-.028-7.683-.028-9.548.77-1.632 6.508-4.933 6.508-4.933l-25.823-35.46s-29.074 12.986-32.133 14.38c-10.402 5.768-16.74-8.5-9.526-12.507.085-.302.014-2.936.014-2.936l10.07-6.956 4.415 1.115s28.027-16.59 34.754-21.022c10.317-5.68 15.403-1.221 17.543 2.977 2.171 4.26 1.966 11.758-4.564 15.544-4.166 2.416-9.128 4.583-9.128 4.583L81.574 78.6l17.69-5.231 5.049-10.565S84.71 70.453 82.35 69.41c-11.277-4.116-7.436-10.454-2.867-11.762.301-1.564.731-2.169.731-2.169l10.537-5.268 4.83 1.5s5.384-2.785 6.92-3.499C79.042 40.344 75.43 32.175 73.067 26.87c-3.018-6.777 1.098-10.554 6.9-13.951.77-.45 1.626-.868 2.549-1.3C122.52-8.375 236.777-1.021 246.257 21.912c1.939 3.33 1.205 10.77-5.826 16.253-12.046 9.394-28.244 12-36.037 13.061-16.97 2.31-22.35 2.625-32.115 2.881-4.529.12-37.802-.31-37.802-.31l-8.177 12.62s16.485.13 16.757 17.616c.182 11.794-13.592 20.026-17.433 20.024-5.236-.003-40.596.075-49.487.075" class="cls-1"/><path d="M10.2 59.084c-6.02 2.689-8.626-3.567-3.952-6.64.54-1.948.933-3.128.933-3.128l6.63-4.775 4.303 1.488s31.974-19.317 38.95-23.165c7.281-4.015 15.586 6.449 6.257 12.128-4.022 2.45-12.924 6.32-12.924 6.32l29.598 41.415 22.344-6.905 14.465-31.894s16.162-2.643 20.454-2.188c2.205.234-11.829 18.391-19.091 29.083 32.012-4.207 20.89 29.451 5.488 29.451-14.653 0-43.491-.237-46.18-.237-2.652-4.473-6.53-4.94-9.659-5.342-.036-2.122 0-2.963-.036-4.939 2.543-2.085 8.049-5.049 8.049-5.049L45.995 42.963S12.666 57.98 10.2 59.083"/><path d="M76.69 21.191C99.629-3.175 222.345-.692 243.126 24.086c.152.182.944 1.395.942 1.687-.013 1.624-2.808 6.239-3.426 5.475-.347-.43-.936-1.156-.984-1.22C222.217 6.941 103.121 4.637 79.973 28.833c-.088.092-.454.385-.618.562-.754.81-3.483-3.637-3.75-5.506-.223-1.56.717-2.308 1.085-2.698m34.965 24.617c.743-1.965 1.373-3.806 2.853-4.546.952-.475 25.31-4.433 26.535-1.696.951 2.124-1.62 6.599-3.083 10.038 41.117 2.863 77.39-1.796 95.154-11.68 6.911-3.846 8.173-3.882 2.14-9.453-17.56-16.213-118.207-21.37-151.098-.85-1.23.767-4.832 3.109-3.232 4.61 7.491 7.024 16.495 10.874 30.73 13.577"/><path d="M147.008 46.057c0 2.388 2.021 3.723 3.356 3.741 1.912.026 3.028 5.433 9.207 5.305 4.755-.099 6.985-5.237 9.214-5.305 1.811-.055 3.006-1.168 3.014-3.832.016-5.698-24.791-5.735-24.791.091m21.864 1.089c-3.274-3.366-15.933-3.366-18.878.183-.888 1.07-1.72-.197-.457-1.446 3.465-3.425 14.498-3.377 19.207-.567 2.36 1.409 1.221 2.953.128 1.83" class="cls-1"/><path d="M87.289 66.808c-5.416 2.25-10.427-2.159-9.659-5.122.268-1.034 2.385-1.682 3.408-2.452.544-1.536.8-2.158.8-2.158l9.439-4.523 3.475 1.377s5.831-2.724 7.71-3.53c5.298-2.273 6.12-2.447 6.951-1.056.788 1.32-3.561 8.758-4.892 11.235-1.418.44-14.016 4.893-17.232 6.229m79.662-17.879c0-3.677-14.872-3.695-14.872.073 0 1.116 4.006 4.098 7.537 4.098 3.494 0 7.335-3.055 7.335-4.17"/><path d="M132.147 92.74c-11.323 0-10.738-18.546.01-18.546 10.509 0 11.02 18.546-.01 18.546" class="cls-1"/><path d="M132.385 91.224c-9.805 0-9.604-15.384 0-15.384 9.732 0 9.402 15.384 0 15.384"/></g></g></svg>