<svg xmlns="http://www.w3.org/2000/svg" id="Layer_2" width="223.24" height="202.59" viewBox="0 0 223.24 202.59"><defs id="defs1"><style id="style1">.cls-2{fill:#fff}.cls-2,.cls-3{fill-rule:evenodd}</style></defs><g id="Layer_1-2" data-name="Layer_1" transform="translate(.01)"><path id="path1" d="M170.93 0c.09-.02 14.35 41.11 38.16 40.84l-4.46 23.23s-9.39 49.61-31.77 97.83c0 0-33.12 26.8-61.46 40.69 0 0-29.91-15.02-61.83-40.81 0 0-13.27-29.61-24.33-68.03-11.05-38.42-11.12-52.61-11.2-52.59-.09.03 20.4 2.64 38.2-40.94l4.82-.18s48.97 24.25 108.29.11c-.02 0 5.5-.13 5.58-.15" class="cls-2"/><g id="Ebene3"><path id="path2" d="m51.48 26.2 5.76 39.4H30.13L26.5 49.53s14.13-4.89 24.98-23.33m119.8-.04-5.76 39.4h27.11l3.63-16.07s-14.13-4.89-24.98-23.33M159.93 13.6s-4.92 57.74-4.92 57.76S145 35.39 145 35.39l-7.84 10.07H85.62l-7.91-10.07-9.65 35.97s-5.31-58.24-5.15-57.76 46.67 18.9 97.02 0m21.4 94.86s-16.96 45.72-17.19 45.9-12.66 9.64-12.66 9.64l4.36-32.36s25.38-23.17 25.49-23.19zm-140.04 0s16.96 45.72 17.19 45.9S71.14 164 71.14 164l-4.36-32.36s-25.38-23.17-25.49-23.19zm36.57 32.03s33.39 24.12 33.47 24.13 33.57-24.01 33.68-24.13c.11-.11-5.88 32.09-5.94 32.21s-27.74 17.15-27.74 17.15L84.04 172.7s-6.22-32.18-6.18-32.21" class="cls-3"/></g><path id="path3" d="M0 62.97s16.34.01 16.3.02c-.04 0 12.24 1.56 12.22 1.61s27.95.07 27.95.07l11.08 5.64s9.32-37.03 9.34-36.99c.01.04 8.3 10.17 8.3 10.17l52.54-.04 8.14-10.19 9.6 37.06 11.22-5.48 28.02-.36 12.24-1.54 16.28.19s-30.75 46.81-111.89 102.9c0 0-84.36-57.45-111.35-103.05z" class="cls-3"/><g id="Ebene1"><path id="path4" d="m128.45 69.97 9.51 24.29 12.73-8.05-8.21-35.92-14.03 19.69zm-34.06.02-9.51 24.29-12.73-8.05 8.21-35.92L94.39 70Zm-3.23-18.54s10.75 13.51 10.66 13.59 19.46.19 19.46.19l10.47-13.81s-40.62.12-40.59.03m10.83 20.85 18.78-.18 11.48 32.48-20.91 13.26-20.91-12.88z" class="cls-2"/><path id="path5" d="M65.03 83.06s-1.94 7.35-1.89 7.44 19.16 14.03 19.16 14.03l-1.71 4.89s30.91 19.57 30.92 19.53c0-.03 30.51-19.4 30.56-19.41.05 0-1.82-4.7-1.82-4.7l19.43-13.89-2.06-8.2s9.69.3 11.97-9.93c0 0 34.41-.03 34.39-.07-.02-.05-41.6 47.55-92.59 79.26 0 0-54.39-35.52-92.65-79.24l34.25.17s2.84 10.11 12.05 10.12z" style="fill:#fff;fill-rule:evenodd;stroke:#fff;stroke-width:.6px;stroke-linecap:round;stroke-linejoin:round"/></g></g></svg>