<svg xmlns="http://www.w3.org/2000/svg" xmlns:xlink="http://www.w3.org/1999/xlink" id="Layer_2" width="219" height="202.59" viewBox="0 0 219 202.59"><defs id="defs16"><linearGradient id="linear-gradient" x1="-187.59" x2="-186.59" y1="540.1" y2="540.1" gradientTransform="rotate(54.21 -37332.671 -5156.487)scale(60.04 -60.04)" gradientUnits="userSpaceOnUse"><stop id="stop1" offset="0" stop-color="#626e77"/><stop id="stop2" offset=".04" stop-color="#697780"/><stop id="stop3" offset=".11" stop-color="#7d8e98"/><stop id="stop4" offset=".2" stop-color="#9eb4c0"/><stop id="stop5" offset=".2" stop-color="#a1b7c3"/><stop id="stop6" offset=".29" stop-color="#adc6d4"/><stop id="stop7" offset=".38" stop-color="#b5cede"/><stop id="stop8" offset=".5" stop-color="#b7d1e1"/><stop id="stop9" offset=".62" stop-color="#b5cede"/><stop id="stop10" offset=".71" stop-color="#adc6d4"/><stop id="stop11" offset=".8" stop-color="#a1b7c3"/><stop id="stop12" offset=".8" stop-color="#a0b6c2"/><stop id="stop13" offset=".85" stop-color="#8b9da8"/><stop id="stop14" offset=".91" stop-color="#74838d"/><stop id="stop15" offset=".96" stop-color="#67747d"/><stop id="stop16" offset="1" stop-color="#626e77"/></linearGradient><linearGradient xlink:href="#linear-gradient" id="linear-gradient-2" y1="540.09" y2="540.09" gradientTransform="rotate(237.81 -14031.786 81569.645)scale(-253.7 253.7)"/><linearGradient xlink:href="#linear-gradient" id="linear-gradient-3" y1="540.18" y2="540.18" gradientTransform="rotate(216.15 701.344 35565.057)scale(-118.3 118.3)"/><linearGradient xlink:href="#linear-gradient" id="linear-gradient-4" y1="540.19" y2="540.19" gradientTransform="rotate(78.8 61100.255 22738.026)scale(-144.62 144.62)"/><linearGradient xlink:href="#linear-gradient" id="linear-gradient-5" y1="540.14" y2="540.14" gradientTransform="rotate(60.88 -77409.61 -15348.756)scale(139.76 -139.76)"/><linearGradient xlink:href="#linear-gradient" id="linear-gradient-6" x1="-187.59" x2="-186.59" y1="540.27" y2="540.27" gradientTransform="rotate(220.25 -298.4 21402.676)scale(-70.12 70.12)"/><linearGradient xlink:href="#linear-gradient" id="linearGradient25" x1="-187.59" x2="-186.59" y1="540.1" y2="540.1" gradientTransform="rotate(54.21 -37332.671 -5156.487)scale(60.04 -60.04)" gradientUnits="userSpaceOnUse"/><style id="style16">.cls-8{fill-rule:evenodd}</style></defs><g id="Layer_1-2" data-name="Layer_1"><path id="path16" d="M168.82 0c.09-.02 14.35 41.11 38.16 40.84l-4.46 23.23s-9.39 49.61-31.77 97.83c0 0-33.12 26.8-61.46 40.69 0 0-29.91-15.02-61.83-40.81 0 0-13.27-29.61-24.33-68.03-11.05-38.42-11.12-52.61-11.2-52.59-.09.03 20.4 2.64 38.2-40.94l4.82-.18s48.97 24.25 108.29.11c-.02 0 5.49-.13 5.58-.15" class="cls-8"/><g id="Ebene3"><path id="path17" d="m49.36 26.2 5.76 39.4H28.01l-3.63-16.07s14.13-4.89 24.98-23.33" style="fill:url(#linearGradient25);fill-rule:evenodd"/><path id="path18" d="m169.17 26.16-5.76 39.4h27.11l3.63-16.07s-14.13-4.89-24.98-23.33" style="fill:url(#linear-gradient-2);fill-rule:evenodd"/><path id="path19" d="M157.82 13.6s-4.92 57.74-4.92 57.76-10.01-35.97-10.01-35.97l-7.84 10.07H83.51L75.6 35.39l-9.65 35.97S60.64 13.12 60.8 13.6s46.67 18.9 97.02 0" style="fill:url(#linear-gradient-3);fill-rule:evenodd"/><path id="path20" d="M179.22 108.46s-16.96 45.72-17.19 45.9-12.66 9.64-12.66 9.64l4.36-32.36s25.38-23.17 25.49-23.19z" style="fill:url(#linear-gradient-4);fill-rule:evenodd"/><path id="path21" d="M39.17 108.46s16.96 45.72 17.19 45.9S69.02 164 69.02 164l-4.36-32.36s-25.38-23.17-25.49-23.19z" style="fill:url(#linear-gradient-5);fill-rule:evenodd"/><path id="path22" d="M75.74 140.49s33.39 24.12 33.47 24.13 33.57-24.01 33.68-24.13c.11-.11-5.88 32.09-5.94 32.21s-27.74 17.15-27.74 17.15L81.92 172.7s-6.22-32.18-6.18-32.21" style="fill:url(#linear-gradient-6);fill-rule:evenodd"/></g><path id="path23" d="M0 64s16.03.01 16 .02c-.04 0 12 1.53 11.98 1.58s27.42.07 27.42.07l10.87 5.54s9.15-36.33 9.16-36.29 8.14 9.98 8.14 9.98l51.55-.04 7.98-9.99 9.42 36.35 11.01-5.38 27.49-.36 12.01-1.51 15.97.19s-30.17 45.92-109.76 100.95c0 0-82.76-56.36-109.23-101.09z" class="cls-8"/><g id="Ebene1"><path id="path24" d="m126.33 69.97 9.51 24.29 12.73-8.05-8.21-35.92-14.03 19.69zm-34.06.02-9.51 24.29-12.73-8.05 8.21-35.92L92.27 70Zm-3.22-18.54S99.8 64.96 99.71 65.04s19.46.19 19.46.19l10.47-13.81s-40.62.12-40.59.03M99.87 72.3l18.78-.18 11.48 32.48-20.91 13.26-20.91-12.88z" style="fill:#fff;fill-rule:evenodd"/><path id="path25" d="M62.91 83.06s-1.94 7.35-1.89 7.44 19.16 14.03 19.16 14.03l-1.71 4.89s30.91 19.57 30.92 19.53c0-.03 30.51-19.4 30.56-19.41.05 0-1.82-4.7-1.82-4.7l19.43-13.89-2.06-8.2s9.69.3 11.97-9.93c0 0 34.41-.03 34.39-.07-.02-.05-41.6 47.55-92.59 79.26 0 0-54.39-35.52-92.65-79.24l34.25.17s2.84 10.11 12.05 10.12z" style="fill:#fff;fill-rule:evenodd;stroke:#fff;stroke-width:.6px;stroke-linecap:round;stroke-linejoin:round"/></g></g></svg>