<svg xmlns="http://www.w3.org/2000/svg" id="Layer_2" width="185.25" height="176.253" version="1.1" viewBox="0 0 185.25 176.253"><defs id="defs1"><style id="style1">.cls-1{fill-rule:evenodd}</style></defs><g id="Layer_1-2" data-name="Layer_1" transform="translate(0 .003)"><g id="Ebene3"><path id="path1" d="m32.75 12.61 5.76 39.4H11.4L7.77 35.94s14.13-4.89 24.98-23.33m119.81-.05-5.76 39.4h27.11l3.63-16.07S163.41 31 152.56 12.56M141.21 0s-4.92 57.74-4.92 57.76-10.01-35.97-10.01-35.97l-7.84 10.07H66.9l-7.91-10.07-9.65 35.97S44.03-.48 44.18 0c.16.48 46.67 18.9 97.02 0zm21.4 94.87s-16.96 45.72-17.19 45.9-12.66 9.64-12.66 9.64l4.36-32.36s25.38-23.17 25.49-23.19zm-140.05 0s16.96 45.72 17.19 45.9 12.66 9.64 12.66 9.64l-4.36-32.36S22.67 94.88 22.56 94.86zm36.57 32.02s33.39 24.12 33.47 24.13 33.57-24.01 33.68-24.13c.11-.11-5.88 32.09-5.94 32.21S92.6 176.25 92.6 176.25L65.31 159.1s-6.22-32.18-6.18-32.21" class="cls-1"/></g><path id="Ebene1" d="M72.44 37.85c.17.09 40.59-.03 40.59-.03l-10.47 13.81s-19.55-.11-19.46-.19-10.58-13.48-10.66-13.59m112.8 21.32c-.2.16-41.71 47.62-92.59 79.26 0 0-54.39-35.52-92.65-79.24l34.25.17s2.84 10.11 12.05 10.12c0 0-1.94 7.35-1.89 7.44s19.16 14.03 19.16 14.03l-1.71 4.89s30.91 19.57 30.92 19.53c0-.03 30.51-19.4 30.56-19.41.05 0-1.82-4.7-1.82-4.7l19.43-13.89-2.06-8.2s9.69.3 11.97-9.93c0 0 34.21-.03 34.39-.07zm-75.52-2.8 14.03-19.69 8.21 35.92-12.73 8.05-9.51-24.29zm-34.06.02-9.51 24.29-12.73-8.05 8.21-35.92L75.66 56.4Zm7.61 2.32 18.78-.18 11.48 32.48-20.91 13.26-20.91-12.88z" class="cls-1"/></g></svg>