<?xml version="1.0" encoding="UTF-8" standalone="no"?>
<!DOCTYPE svg PUBLIC "-//W3C//DTD SVG 1.1//EN" "http://www.w3.org/Graphics/SVG/1.1/DTD/svg11.dtd">
<svg width="100%" height="100%" viewBox="0 0 649 488" version="1.1" xmlns="http://www.w3.org/2000/svg" xmlns:xlink="http://www.w3.org/1999/xlink" xml:space="preserve" xmlns:serif="http://www.serif.com/" style="fill-rule:evenodd;clip-rule:evenodd;stroke-linejoin:round;stroke-miterlimit:2;">
    <path d="M182.361,0C112.361,25.75 84.708,86.986 74.031,114.389C60.27,149.711 58,167.693 0,193.693C14.5,204.693 64.127,242.17 67.961,247.67C69.878,250.42 70.521,252.087 71.199,257.189C71.878,262.292 72.053,270.417 72.389,282.107C73.056,305.342 73.159,310.205 82.234,328.686C89.488,343.456 111.434,376.324 161.184,398.574C140.627,360.511 142.392,305.211 150.947,296.656C158.182,289.422 183.51,301.633 199.951,307.91C205.318,309.959 247.18,324.482 249.57,326.525C252.942,329.407 267.834,358.662 267.02,361.701C266.247,364.583 259.432,374.351 256.717,376.131C253.955,377.941 206.92,384.58 203.602,385.672C193.65,388.947 178.24,419.727 178.121,432.537C267.722,422.398 292.062,457.614 324.363,487.713C356.665,457.614 381.005,422.398 470.605,432.537C470.487,419.727 455.077,388.947 445.125,385.672C441.807,384.58 394.771,377.941 392.01,376.131C389.295,374.351 382.479,364.583 381.707,361.701C380.893,358.662 395.785,329.407 399.156,326.525C401.547,324.482 443.409,309.959 448.775,307.91C465.216,301.633 490.545,289.422 497.779,296.656C506.335,305.211 508.1,360.511 487.543,398.574C537.293,376.324 559.239,343.456 566.492,328.686C575.568,310.205 575.671,305.342 576.338,282.107C576.674,270.417 576.849,262.292 577.527,257.189C578.206,252.087 578.849,250.42 580.766,247.67C584.6,242.17 634.227,204.693 648.727,193.693C590.727,167.693 588.457,149.711 574.695,114.389C564.019,86.986 536.365,25.75 466.365,0C496.615,60 488.473,105.408 477.557,127.578C470.475,119.244 462.103,112.04 449.721,108.344C443.303,139.959 426.109,158.461 410.758,162.125L405.092,155.07L415.816,102.543C415.816,102.543 378.21,44.161 374.287,40.852C370.88,37.977 350.01,29.91 350.01,29.91L350.01,93.242C351.104,100.465 350.731,106.761 347.359,111.164C339.836,109.56 332.087,108.598 324.363,108.598C316.64,108.598 308.891,109.56 301.367,111.164C297.995,106.761 297.623,100.465 298.717,93.242L298.717,29.91C298.717,29.91 277.847,37.977 274.439,40.852C270.517,44.161 232.91,102.543 232.91,102.543L243.635,155.07L237.969,162.125C222.617,158.461 205.424,139.959 199.006,108.344C186.624,112.04 178.252,119.244 171.17,127.578C160.254,105.408 152.111,60 182.361,0Z" style="fill-rule:nonzero;"/>
    <path d="M151.391,34.385C112.809,64.97 99.848,93.579 89.406,120.379C78.912,147.313 71.822,172.95 30.779,196.49C89.88,240.524 87.555,235.39 88.883,281.635C89.787,313.107 96.011,329.523 130.076,361.775C123.93,272.246 138.601,266.825 205.836,292.496C214.07,295.64 252.627,308.067 260.035,313.566C268.667,319.974 284.342,357.879 284.342,362.566C284.342,367.903 269.066,388.702 266.43,390.729C263.756,392.783 216.906,398.398 211.379,400.566C206.918,402.316 201.336,412.267 202.975,414.279C260.11,413.507 295.467,435.765 324.363,464.307C353.26,435.765 388.616,413.507 445.752,414.279C447.39,412.267 441.809,402.316 437.348,400.566C431.82,398.398 384.97,392.783 382.297,390.729C379.661,388.702 364.385,367.903 364.385,362.566C364.385,357.879 380.06,319.974 388.691,313.566C396.099,308.067 434.657,295.64 442.891,292.496C510.125,266.825 524.797,272.246 518.65,361.775C552.715,329.523 558.94,313.107 559.844,281.635C561.172,235.39 558.846,240.524 617.947,196.49C576.905,172.95 569.814,147.313 559.32,120.379C548.879,93.579 535.918,64.97 497.336,34.385C510.008,87.09 503.045,126.959 478.951,155.625L459.859,131.908C443.47,169.703 424.408,173.296 405.766,182.26L387.363,159.348L398.488,105.348L366.863,59.348L366.863,103.848L358.381,131.498C347.522,127.326 335.996,125.098 324.363,125.098C312.73,125.098 301.205,127.326 290.346,131.498L281.863,103.848L281.863,59.348L250.238,105.348L261.363,159.348L242.961,182.26C224.319,173.296 205.257,169.703 188.867,131.908L169.775,155.625C145.682,126.959 138.719,87.09 151.391,34.385ZM287.775,198.863C293.533,199.228 300.679,205.414 307.184,219.021C302.307,234.967 308.448,270.439 312.527,297.52C288.994,269.195 276.51,233.828 276.51,217.729C276.51,205.513 281.251,198.45 287.775,198.863ZM360.951,198.863C367.476,198.45 372.217,205.513 372.217,217.729C372.217,233.828 359.732,269.195 336.199,297.52C340.278,270.439 346.419,234.967 341.543,219.021C348.047,205.414 355.194,199.228 360.951,198.863Z" style="fill:url(#_Linear1);fill-rule:nonzero;"/>
    <defs>
        <linearGradient id="_Linear1" x1="0" y1="0" x2="1" y2="0" gradientUnits="userSpaceOnUse" gradientTransform="matrix(587.168,0,0,587.168,30.7793,196.49)"><stop offset="0" style="stop-color:rgb(97,44,117);stop-opacity:1"/><stop offset="0.3" style="stop-color:rgb(123,81,144);stop-opacity:1"/><stop offset="0.5" style="stop-color:rgb(191,153,195);stop-opacity:1"/><stop offset="0.7" style="stop-color:rgb(123,81,144);stop-opacity:1"/><stop offset="1" style="stop-color:rgb(97,44,117);stop-opacity:1"/></linearGradient>
    </defs>
</svg>
