<?xml version="1.0" encoding="UTF-8" standalone="no"?>
<svg
   width="648.72699"
   height="487.71301"
   viewBox="0 0 648.72699 487.71301"
   version="1.1"
   xml:space="preserve"
   style="clip-rule:evenodd;fill-rule:evenodd;stroke-linejoin:round;stroke-miterlimit:2"
   id="svg6"
   xmlns="http://www.w3.org/2000/svg"
   xmlns:svg="http://www.w3.org/2000/svg">
    <path
   d="M 182.361,0 C 112.361,25.75 84.708,86.986 74.031,114.389 60.27,149.711 58,167.693 0,193.693 c 14.5,11 64.127,48.477 67.961,53.977 1.917,2.75 2.56,4.417 3.238,9.519 0.679,5.103 0.854,13.228 1.19,24.918 0.667,23.235 0.77,28.098 9.845,46.579 7.254,14.77 29.2,47.638 78.95,69.888 -20.557,-38.063 -18.792,-93.363 -10.237,-101.918 7.235,-7.234 32.563,4.977 49.004,11.254 5.367,2.049 47.229,16.572 49.619,18.615 3.372,2.882 18.264,32.137 17.45,35.176 -0.773,2.882 -7.588,12.65 -10.303,14.43 -2.762,1.81 -49.797,8.449 -53.115,9.541 -9.952,3.275 -25.362,34.055 -25.481,46.865 89.601,-10.139 113.941,25.077 146.242,55.176 32.302,-30.099 56.642,-65.315 146.242,-55.176 -0.118,-12.81 -15.528,-43.59 -25.48,-46.865 -3.318,-1.092 -50.354,-7.731 -53.115,-9.541 -2.715,-1.78 -9.531,-11.548 -10.303,-14.43 -0.814,-3.039 14.078,-32.294 17.449,-35.176 2.391,-2.043 44.253,-16.566 49.619,-18.615 16.441,-6.277 41.77,-18.488 49.004,-11.254 8.556,8.555 10.321,63.855 -10.236,101.918 49.75,-22.25 71.696,-55.118 78.949,-69.888 9.076,-18.481 9.179,-23.344 9.846,-46.579 0.336,-11.69 0.511,-19.815 1.189,-24.918 0.679,-5.102 1.322,-6.769 3.239,-9.519 3.834,-5.5 53.461,-42.977 67.961,-53.977 -58,-26 -60.27,-43.982 -74.032,-79.304 C 564.019,86.986 536.365,25.75 466.365,0 c 30.25,60 22.108,105.408 11.192,127.578 -7.082,-8.334 -15.454,-15.538 -27.836,-19.234 -6.418,31.615 -23.612,50.117 -38.963,53.781 l -5.666,-7.055 10.724,-52.527 c 0,0 -37.606,-58.382 -41.529,-61.691 C 370.88,37.977 350.01,29.91 350.01,29.91 v 63.332 c 1.094,7.223 0.721,13.519 -2.651,17.922 -7.523,-1.604 -15.272,-2.566 -22.996,-2.566 -7.723,0 -15.472,0.962 -22.996,2.566 -3.372,-4.403 -3.744,-10.699 -2.65,-17.922 V 29.91 c 0,0 -20.87,8.067 -24.278,10.942 -3.922,3.309 -41.529,61.691 -41.529,61.691 l 10.725,52.527 -5.666,7.055 c -15.352,-3.664 -32.545,-22.166 -38.963,-53.781 -12.382,3.696 -20.754,10.9 -27.836,19.234 C 160.254,105.408 152.111,60 182.361,0 Z"
   style="fill-rule:nonzero"
   id="path1" />
    <path
   d="M 151.391,34.385 C 112.809,64.97 99.848,93.579 89.406,120.379 78.912,147.313 71.822,172.95 30.779,196.49 c 59.101,44.034 56.776,38.9 58.104,85.145 0.904,31.472 7.128,47.888 41.193,80.14 -6.146,-89.529 8.525,-94.95 75.76,-69.279 8.234,3.144 46.791,15.571 54.199,21.07 8.632,6.408 24.307,44.313 24.307,49 0,5.337 -15.276,26.136 -17.912,28.163 -2.674,2.054 -49.524,7.669 -55.051,9.837 -4.461,1.75 -10.043,11.701 -8.404,13.713 57.135,-0.772 92.492,21.486 121.388,50.028 28.897,-28.542 64.253,-50.8 121.389,-50.028 1.638,-2.012 -3.943,-11.963 -8.404,-13.713 -5.528,-2.168 -52.378,-7.783 -55.051,-9.837 -2.636,-2.027 -17.912,-22.826 -17.912,-28.163 0,-4.687 15.675,-42.592 24.306,-49 7.408,-5.499 45.966,-17.926 54.2,-21.07 67.234,-25.671 81.906,-20.25 75.759,69.279 34.065,-32.252 40.29,-48.668 41.194,-80.14 1.328,-46.245 -0.998,-41.111 58.103,-85.145 -41.042,-23.54 -48.133,-49.177 -58.627,-76.111 -10.441,-26.8 -23.402,-55.409 -61.984,-85.994 12.672,52.705 5.709,92.574 -18.385,121.24 l -19.092,-23.717 c -16.389,37.795 -35.451,41.388 -54.093,50.352 l -18.403,-22.912 11.125,-54 -31.625,-46 v 44.5 l -8.482,27.65 c -10.859,-4.172 -22.385,-6.4 -34.018,-6.4 -11.633,0 -23.158,2.228 -34.017,6.4 l -8.483,-27.65 v -44.5 l -31.625,46 11.125,54 -18.402,22.912 c -18.642,-8.964 -37.704,-12.557 -54.094,-50.352 l -19.092,23.717 C 145.682,126.959 138.719,87.09 151.391,34.385 Z m 136.384,164.478 c 5.758,0.365 12.904,6.551 19.409,20.158 -4.877,15.946 1.264,51.418 5.343,78.499 -23.533,-28.325 -36.017,-63.692 -36.017,-79.791 0,-12.216 4.741,-19.279 11.265,-18.866 z m 73.176,0 c 6.525,-0.413 11.266,6.65 11.266,18.866 0,16.099 -12.485,51.466 -36.018,79.791 4.079,-27.081 10.22,-62.553 5.344,-78.499 6.504,-13.607 13.651,-19.793 19.408,-20.158 z"
   style="fill:url(#_Linear1);fill-rule:nonzero"
   id="path2" />
    <defs
   id="defs6">
        <linearGradient
   id="_Linear1"
   x1="0"
   y1="0"
   x2="1"
   y2="0"
   gradientUnits="userSpaceOnUse"
   gradientTransform="matrix(587.168,0,0,587.168,30.7793,196.49)"><stop
     offset="0"
     style="stop-color:rgb(97,44,117);stop-opacity:1"
     id="stop2" /><stop
     offset="0.3"
     style="stop-color:rgb(123,81,144);stop-opacity:1"
     id="stop3" /><stop
     offset="0.5"
     style="stop-color:rgb(191,153,195);stop-opacity:1"
     id="stop4" /><stop
     offset="0.7"
     style="stop-color:rgb(123,81,144);stop-opacity:1"
     id="stop5" /><stop
     offset="1"
     style="stop-color:rgb(97,44,117);stop-opacity:1"
     id="stop6" /></linearGradient>
    </defs>
</svg>
