<?xml version="1.0" encoding="UTF-8" standalone="no"?>
<svg
   version="1.1"
   width="600"
   height="576"
   id="svg3"
   xmlns="http://www.w3.org/2000/svg"
   xmlns:svg="http://www.w3.org/2000/svg">
  <defs
     id="defs3" />
  <g
     transform="matrix(1.6,0,0,1.6,-1123.9245,-618.66686)"
     id="g3">
    <path
       d="m 938.79656,513.53304 -77.65,102.415 37.0275,23.69125 v 81.84625 l -57.06,-101.685 77.6475,-102.415 -37.02375,-23.6925 v -81.84625 z m 105.55874,16.40375 c -20.6362,0.003 -37.3612,16.74875 -37.3612,37.40625 0,20.6575 16.7287,37.4075 37.3612,37.4075 l -134.69249,116.735 v -88.14625 l -31.835,-20.36875 74.67625,-98.4925 -57.6175,-102.63125 z m -308.79874,73.4575 c 20.6325,0 37.3575,-16.7475 37.3575,-37.40375 0,-20.66125 -16.725,-37.4075 -37.36125,-37.4075 L 870.24906,411.84679 v 88.145 l 31.83125,20.37125 -74.67625,98.49375 57.6175,102.62875 z m 146.1025,-216.66 -176.93125,153.35125 h 30.825 c 14.26625,0 25.8725,11.62125 25.8725,25.905 0,14.2825 -11.60375,25.9 -25.86875,25.9 h -33.10375 l 195.72125,154.64875 v 0.1275 l 0.075,-0.0675 176.93254,-153.3525 h -30.8263 c -14.265,0 -25.8712,-11.62 -25.8712,-25.90375 0,-14.2825 11.6062,-25.90125 25.8712,-25.9025 l 33.0975,-0.005 -195.71499,-154.64125 v -0.1275 l -0.0788,0.0675 z"
       style="fill:#808080"
       id="path1" />
    <path
       d="m 735.55319,528.58304 c 20.635,0 37.36125,16.745 37.36125,37.4075 0,20.65625 -16.72625,37.40375 -37.35875,37.40375 l 149.46625,118.09125 -57.61875,-102.62875 74.6775,-98.49375 -31.8325,-20.37125 v -88.145 z"
       id="path2" />
    <path
       d="m 1044.3551,604.75004 c -20.6325,0 -37.3613,-16.74875 -37.3613,-37.4075 0,-20.65625 16.7263,-37.40375 37.3613,-37.40625 l -149.46875,-118.08875 57.61875,102.63 -74.6775,98.4925 31.835,20.36875 v 88.1475 z"
       id="path3" />
  </g>
</svg>
