<?xml version="1.0" encoding="UTF-8" standalone="no"?>
<svg
   version="1.1"
   width="600"
   height="576.00006"
   id="svg10"
   xmlns:xlink="http://www.w3.org/1999/xlink"
   xmlns="http://www.w3.org/2000/svg"
   xmlns:svg="http://www.w3.org/2000/svg">
  <defs
     id="defs10" />
  <linearGradient
     x1="0"
     y1="0"
     x2="1"
     y2="0"
     id="linearGradient3569"
     gradientUnits="userSpaceOnUse"
     gradientTransform="matrix(-170.50069,-119.49944,-119.49944,170.50069,238.3584,199.01953)"
     spreadMethod="pad">
    <stop
       style="stop-color:#bf331c"
       offset="0"
       id="stop1" />
    <stop
       style="stop-color:#f6b91d"
       offset="0.46751401"
       id="stop2" />
    <stop
       style="stop-color:#bf331c"
       offset="1"
       id="stop3" />
  </linearGradient>
  <linearGradient
     x1="0"
     y1="0"
     x2="1"
     y2="0"
     id="linearGradient3535"
     gradientUnits="userSpaceOnUse"
     gradientTransform="matrix(-170.50069,-119.49944,-119.49944,170.50069,231.86523,208.28418)"
     spreadMethod="pad">
    <stop
       style="stop-color:#bf331c"
       offset="0"
       id="stop4" />
    <stop
       style="stop-color:#f6b91d"
       offset="0.46751401"
       id="stop5" />
    <stop
       style="stop-color:#bf331c"
       offset="1"
       id="stop6" />
  </linearGradient>
  <linearGradient
     x1="0"
     y1="0"
     x2="1"
     y2="0"
     id="linearGradient3048"
     xlink:href="#linearGradient3569"
     gradientUnits="userSpaceOnUse"
     gradientTransform="matrix(-170.50069,-119.49944,-119.49944,170.50069,238.3584,199.01953)"
     spreadMethod="pad" />
  <linearGradient
     x1="0"
     y1="0"
     x2="1"
     y2="0"
     id="linearGradient3057"
     xlink:href="#linearGradient3535"
     gradientUnits="userSpaceOnUse"
     gradientTransform="matrix(-170.50069,-119.49944,-119.49944,170.50069,231.86523,208.28418)"
     spreadMethod="pad" />
  <linearGradient
     x1="0"
     y1="0"
     x2="1"
     y2="0"
     id="linearGradient3068"
     xlink:href="#linearGradient3535"
     gradientUnits="userSpaceOnUse"
     gradientTransform="matrix(-170.50069,-119.49944,-119.49944,170.50069,231.86523,208.28418)"
     spreadMethod="pad" />
  <linearGradient
     x1="0"
     y1="0"
     x2="1"
     y2="0"
     id="linearGradient3075"
     xlink:href="#linearGradient3569"
     gradientUnits="userSpaceOnUse"
     gradientTransform="matrix(-170.50069,-119.49944,-119.49944,170.50069,238.3584,199.01953)"
     spreadMethod="pad" />
  <linearGradient
     x1="0"
     y1="0"
     x2="1"
     y2="0"
     id="linearGradient3083"
     xlink:href="#linearGradient3569"
     gradientUnits="userSpaceOnUse"
     gradientTransform="matrix(-170.50069,-119.49944,-119.49944,170.50069,238.3584,199.01953)"
     spreadMethod="pad" />
  <linearGradient
     x1="0"
     y1="0"
     x2="1"
     y2="0"
     id="linearGradient3088"
     xlink:href="#linearGradient3535"
     gradientUnits="userSpaceOnUse"
     gradientTransform="matrix(-170.50069,-119.49944,-119.49944,170.50069,231.86523,208.28418)"
     spreadMethod="pad" />
  <linearGradient
     x1="0"
     y1="0"
     x2="1"
     y2="0"
     id="linearGradient3093"
     xlink:href="#linearGradient3535"
     gradientUnits="userSpaceOnUse"
     gradientTransform="matrix(-170.50069,-119.49944,-119.49944,170.50069,231.86523,208.28418)"
     spreadMethod="pad" />
  <linearGradient
     x1="0"
     y1="0"
     x2="1"
     y2="0"
     id="linearGradient3096"
     xlink:href="#linearGradient3535"
     gradientUnits="userSpaceOnUse"
     gradientTransform="matrix(-213.12586,149.3743,-149.3743,-213.12586,1415.6648,369.64477)"
     spreadMethod="pad" />
  <linearGradient
     x1="0"
     y1="0"
     x2="1"
     y2="0"
     id="linearGradient3098"
     xlink:href="#linearGradient3569"
     gradientUnits="userSpaceOnUse"
     gradientTransform="matrix(-170.50069,-119.49944,-119.49944,170.50069,238.3584,199.01953)"
     spreadMethod="pad" />
  <linearGradient
     x1="0"
     y1="0"
     x2="1"
     y2="0"
     id="linearGradient3101"
     xlink:href="#linearGradient3569"
     gradientUnits="userSpaceOnUse"
     gradientTransform="matrix(-213.12586,149.3743,-149.3743,-213.12586,1423.7813,381.22559)"
     spreadMethod="pad" />
  <g
     transform="matrix(1.6,0,0,1.6,-1801.3338,-432.00011)"
     id="g10">
    <path
       d="m 1362.1761,396.86762 -77.6488,102.415 37.0263,23.69125 v 81.845 l -57.0588,-101.68375 77.6475,-102.415 -37.0237,-23.69375 v -81.84625 z m 105.5587,16.40375 c -20.635,0.002 -37.3599,16.7475 -37.3599,37.405 0,20.65875 16.7274,37.4075 37.3599,37.4075 l -134.6924,116.735 v -88.14625 l -31.835,-20.36875 74.6775,-98.49125 -57.6176,-102.6325 z m -308.7987,73.4575 c 20.6325,0 37.3588,-16.74875 37.3588,-37.405 0,-20.66125 -16.7263,-37.4075 -37.3613,-37.4075 l 134.695,-116.73625 v 88.145 l 31.8325,20.37125 -74.6762,98.49375 57.6162,102.62875 z m 146.1025,-216.66 -176.9312,153.35125 h 30.8262 c 14.265,0 25.8725,11.62125 25.8725,25.90375 0,14.2825 -11.605,25.90125 -25.87,25.90125 h -33.1025 l 195.72,154.6475 v 0.1275 l 0.075,-0.0663 176.9325,-153.3525 h -30.8262 c -14.265,0 -25.8713,-11.62 -25.8713,-25.905 0,-14.2825 11.6063,-25.90125 25.8713,-25.90125 l 33.0987,-0.005 -195.715,-154.64125 v -0.12875 z"
       id="path6" />
    <path
       d="m 1158.9346,411.91625 c 20.6337,0 37.36,16.74625 37.36,37.4075 v 0 c 0,20.65625 -16.7263,37.405 -37.3588,37.405 v 0 l 149.4663,118.09 -57.6175,-102.62875 74.6762,-98.49375 -31.8325,-20.37 v -88.145 z"
       style="fill:url(#linearGradient3096)"
       id="path7" />
    <path
       d="m 1158.9339,411.9165 c 20.635,0 37.3613,16.745 37.3613,37.4075 0,20.65625 -16.7263,37.405 -37.3588,37.405 l 149.465,118.09 -57.6175,-102.62875 74.6775,-98.49375 -31.8325,-20.37125 v -88.145 z"
       style="fill:none;stroke:#000000;stroke-width:7.5;stroke-miterlimit:100"
       id="path8" />
    <path
       d="m 1375.8846,397.8125 -74.6775,98.49125 31.835,20.36875 v 88.14625 l 134.6937,-116.735 c -20.6325,0 -37.3612,-16.74875 -37.3612,-37.4075 v 0 c 0,-20.65625 16.7262,-37.40125 37.3612,-37.405 v 0 l -149.4675,-118.09 z"
       style="fill:url(#linearGradient3101)"
       id="path9" />
    <path
       d="m 1467.7352,488.0835 c -20.6325,0 -37.3612,-16.7475 -37.3612,-37.4075 0,-20.65625 16.7262,-37.4025 37.3612,-37.405 l -149.4675,-118.09 57.6175,102.63125 -74.6787,98.49125 31.8362,20.36875 v 88.1475 z"
       style="fill:none;stroke:#000000;stroke-width:7.5;stroke-miterlimit:100"
       id="path10" />
  </g>
</svg>
