<?xml version="1.0" encoding="UTF-8" standalone="no"?>
<svg
   version="1.1"
   width="600"
   height="576"
   id="svg9"
   xmlns:xlink="http://www.w3.org/1999/xlink"
   xmlns="http://www.w3.org/2000/svg"
   xmlns:svg="http://www.w3.org/2000/svg">
  <defs
     id="defs9" />
  <linearGradient
     x1="0"
     y1="0"
     x2="1"
     y2="0"
     id="linearGradient3409"
     gradientUnits="userSpaceOnUse"
     gradientTransform="matrix(-170.50069,-119.49944,-119.49944,170.50069,238.35742,199.02051)"
     spreadMethod="pad">
    <stop
       style="stop-color:#8b723c"
       offset="0"
       id="stop1" />
    <stop
       style="stop-color:#ebd491"
       offset="0.46751401"
       id="stop2" />
    <stop
       style="stop-color:#8b723c"
       offset="1"
       id="stop3" />
  </linearGradient>
  <linearGradient
     x1="0"
     y1="0"
     x2="1"
     y2="0"
     id="linearGradient3387"
     gradientUnits="userSpaceOnUse"
     gradientTransform="matrix(-170.50069,-119.49944,-119.49944,170.50069,231.86523,208.28418)"
     spreadMethod="pad">
    <stop
       style="stop-color:#8b723c"
       offset="0"
       id="stop4" />
    <stop
       style="stop-color:#ebd491"
       offset="0.46751401"
       id="stop5" />
    <stop
       style="stop-color:#8b723c"
       offset="1"
       id="stop6" />
  </linearGradient>
  <linearGradient
     x1="0"
     y1="0"
     x2="1"
     y2="0"
     id="linearGradient3024"
     xlink:href="#linearGradient3409"
     gradientUnits="userSpaceOnUse"
     gradientTransform="matrix(-170.50069,-119.49944,-119.49944,170.50069,238.35742,199.02051)"
     spreadMethod="pad" />
  <linearGradient
     x1="0"
     y1="0"
     x2="1"
     y2="0"
     id="linearGradient3029"
     xlink:href="#linearGradient3387"
     gradientUnits="userSpaceOnUse"
     gradientTransform="matrix(-170.50069,-119.49944,-119.49944,170.50069,231.86523,208.28418)"
     spreadMethod="pad" />
  <linearGradient
     x1="0"
     y1="0"
     x2="1"
     y2="0"
     id="linearGradient3037"
     xlink:href="#linearGradient3387"
     gradientUnits="userSpaceOnUse"
     gradientTransform="matrix(-170.50069,-119.49944,-119.49944,170.50069,231.86523,208.28418)"
     spreadMethod="pad" />
  <linearGradient
     x1="0"
     y1="0"
     x2="1"
     y2="0"
     id="linearGradient3041"
     xlink:href="#linearGradient3409"
     gradientUnits="userSpaceOnUse"
     gradientTransform="matrix(-170.50069,-119.49944,-119.49944,170.50069,238.35742,199.02051)"
     spreadMethod="pad" />
  <linearGradient
     x1="0"
     y1="0"
     x2="1"
     y2="0"
     id="linearGradient3045"
     xlink:href="#linearGradient3409"
     gradientUnits="userSpaceOnUse"
     gradientTransform="matrix(-170.50069,-119.49944,-119.49944,170.50069,238.35742,199.02051)"
     spreadMethod="pad" />
  <linearGradient
     x1="0"
     y1="0"
     x2="1"
     y2="0"
     id="linearGradient3048"
     xlink:href="#linearGradient3409"
     gradientUnits="userSpaceOnUse"
     gradientTransform="matrix(-170.50069,-119.49944,-119.49944,170.50069,238.35742,199.02051)"
     spreadMethod="pad" />
  <linearGradient
     x1="0"
     y1="0"
     x2="1"
     y2="0"
     id="linearGradient3050"
     xlink:href="#linearGradient3387"
     gradientUnits="userSpaceOnUse"
     gradientTransform="matrix(-170.50069,-119.49944,-119.49944,170.50069,231.86523,208.28418)"
     spreadMethod="pad" />
  <linearGradient
     x1="0"
     y1="0"
     x2="1"
     y2="0"
     id="linearGradient3053"
     xlink:href="#linearGradient3387"
     gradientUnits="userSpaceOnUse"
     gradientTransform="matrix(-170.50069,-119.49944,-119.49944,170.50069,231.86523,208.28418)"
     spreadMethod="pad" />
  <g
     transform="matrix(1.6,0,0,1.6,-1236.0004,-576.0002)"
     id="g9">
    <g
       transform="matrix(1.25,0,0,-1.25,772.5,720)"
       id="g8">
      <path
         d="m 189.0742,186.5059 -62.119,-81.932 29.621,-18.953 v -65.476 l -45.647,81.347 62.118,81.932 -29.619,18.955 v 65.477 z m 84.447,-13.123 c -16.508,-0.002 -29.888,-13.398 -29.888,-29.924 0,-16.527 13.382,-29.926 29.888,-29.926 l -107.754,-93.388 v 70.517 l -25.468,16.295 59.742,78.793 -46.094,82.106 z m -247.039,-58.766 c 16.506,0 29.887,13.399 29.887,29.924 0,16.529 -13.381,29.926 -29.889,29.926 l 107.756,93.389 v -70.516 l 25.466,-16.297 -59.741,-78.795 46.093,-82.103 z m 116.882,173.328 -141.545,-122.681 h 24.661 c 11.412,0 20.698,-9.297 20.698,-20.723 0,-11.426 -9.284,-20.721 -20.696,-20.721 H 2e-4 L 156.5762,0.1019 v -0.102 l 0.06,0.053 141.546,122.682 h -24.661 c -11.412,0 -20.697,9.296 -20.697,20.724 0,11.426 9.285,20.721 20.697,20.721 l 26.479,0.004 -156.572,123.713 v 0.103 z"
         id="path6" />
      <path
         d="m 26.481,174.467 c 16.507,0 29.888,-13.397 29.888,-29.926 v 0 c 0,-16.525 -13.381,-29.924 -29.887,-29.924 v 0 l 119.573,-94.472 -46.094,82.103 59.741,78.795 -25.466,16.296 v 70.516 z"
         style="fill:url(#linearGradient3053)"
         id="path7" />
      <path
         d="M 200.041,185.75 140.299,106.957 165.767,90.662 V 20.145 l 107.755,93.388 c -16.506,0 -29.889,13.399 -29.889,29.926 v 0 c 0,16.525 13.381,29.921 29.889,29.924 v 0 l -119.574,94.472 z"
         style="fill:url(#linearGradient3048)"
         id="path8" />
    </g>
  </g>
</svg>
