<svg xmlns="http://www.w3.org/2000/svg" width="1024" height="580.912"><path d="M368.376 437.435 226.58 293.485l-51.545-.324c-45.316-.295-55.56-1.535-84.58-10.48-18.157-5.61-45.937-16.297-61.731-23.766L0 245.305l90.633-42.334c49.833-23.293 91.34-43.545 92.256-44.992.885-1.446-6.377-6.701-16.178-11.66C121.365 123.35 30.2 46.005 20.813 22.564c-9.772-24.415-7.97-28.01 7.823-15.626 7.617 5.952 17.861 12.945 22.82 15.54 16.267 8.553 69.053 8.582 160.394.089 56.003-5.205 104.035-7.67 131.078-6.72 38.32 1.347 44.932 2.616 64.298 12.368 11.868 5.975 24.976 15.552 29.11 21.276 16.266 22.502 5.845 72.56-30.792 147.81L387.683 234l60.697 65.509c33.39 36.017 62.026 65.48 63.62 65.48s30.201-29.434 63.531-65.391l60.639-65.421-23.264-38.585c-25.684-42.66-44.578-86.854-48.091-112.405-4.37-31.914 15.942-57.698 53.966-68.494C643.698 7.62 725.12 9.504 802.94 18.946c37.464 4.546 88.005 8.396 112.302 8.555 45.346.295 56.594-2.326 78.263-18.224 8.207-6.022 8.295-5.949 8.295 8.136 0 12.816-2.597 16.71-26.451 39.628-31.146 29.944-92.404 76.288-117.882 89.189-9.89 5.018-17.24 10.303-16.355 11.75.915 1.446 42.423 21.698 92.257 44.991L1024 245.306l-28.725 13.61c-15.794 7.468-43.574 18.155-61.73 23.764-29.02 8.946-39.265 10.215-84.58 10.48l-51.576.325-141.764 143.477C577.627 515.875 513.004 580.646 512 580.912c-57.775-56.387-97.304-96.478-143.624-143.477M862.72 126.066v3.189z" style="fill:gray;stroke-width:2.9522"/><path d="M550.793 511.387c20.045-20.754 83.547-85.377 141.086-143.565l104.596-105.777 18.274 5.963c22.26 7.292 61.2 5.048 102.47-5.845 59.9-15.824 64.89-9.95-58.275-68.403L750.33 142.185l38.26-1.83c35.84-1.712 39.914-2.746 63.798-15.942 28.813-15.942 60.43-39.539 79.237-59.186l12.694-13.255h-25.684c-14.111 0-62.085-4.248-106.574-9.441-90.87-10.599-164.497-12.81-189.236-5.683-20.754 5.975-37.17 22.032-37.17 36.36 0 23.75 23.737 76.948 57.746 129.29 11.012 16.976 19.278 32.711 18.363 34.984-2.42 5.964-146.458 160.659-149.617 160.659-2.303 0-99.224-102.884-137.278-145.72l-13.757-15.5 23.559-49.213c23.794-49.744 38.94-92.055 38.94-108.874 0-5.465-4.872-14.064-12.046-21.232-22.26-22.266-72.978-25.02-204.174-11.098-27.928 2.964-68.078 5.406-89.215 5.43l-38.438.029 10.834 11.39c18.245 19.224 68.492 55.48 92.552 66.787 21.02 9.89 25.566 10.628 57.656 9.565 19.16-.65 34.305-.295 33.626.797s-50.158 25.094-109.94 53.376l-108.7 51.428 21.285 8.03c48.653 18.303 107.254 24.444 136.067 14.288l15.057-5.314 140.73 143.39c77.409 78.882 141.767 143.417 143.066 143.417 1.269 0 18.746-16.975 38.82-37.729"/></svg>