<svg xmlns="http://www.w3.org/2000/svg" width="1024" height="580.93"><path d="M368.38 437.45 226.59 293.5l-51.57-.32c-45.33-.28-55.55-1.56-84.58-10.49-18.16-5.59-45.952-16.28-61.742-23.76L0 245.32l90.614-42.36c49.846-23.29 91.356-43.53 92.266-44.98.89-1.45-6.38-6.69-16.18-11.66C121.37 123.35 30.185 46.006 20.809 22.56c-9.771-24.4-7.97-28.013 7.831-15.616 7.599 5.949 17.858 12.943 22.796 15.546 16.289 8.55 69.074 8.575 160.434.08 55.99-5.193 104.03-7.656 131.08-6.715 38.31 1.348 44.9 2.626 64.27 12.374C419.1 34.2 432.2 43.774 436.34 49.49c16.28 22.517 5.86 72.559-30.78 147.839l-17.87 36.7 60.71 65.5c33.38 36.03 62 65.5 63.61 65.5 1.62 0 30.2-29.44 63.54-65.42l60.63-65.43-23.24-38.58c-25.69-42.67-44.59-86.83-48.1-112.403-4.37-31.905 15.95-57.7 53.98-68.504 24.9-7.065 106.31-5.182 184.13 4.252 37.47 4.555 88.02 8.4 112.32 8.552 45.33.29 56.59-2.324 78.25-18.22 8.18-6.017 8.28-5.948 8.28 8.135 0 12.827-2.58 16.707-26.44 39.63-31.15 29.942-92.38 76.268-117.88 89.198-9.9 5.02-17.24 10.31-16.35 11.75.91 1.45 42.42 21.69 92.26 44.98l90.61 42.37-28.71 13.59c-15.8 7.48-43.58 18.16-61.74 23.76-29.02 8.95-39.27 10.21-84.59 10.5l-51.56.33-141.77 143.45C577.66 515.89 513.02 580.67 512 580.93c-57.77-56.39-97.32-96.48-143.62-143.48" style="stroke-width:11.6187"/><linearGradient id="a" x1="20.791" x2="67.051" y1="-9.453" y2="36.806" gradientTransform="scale(11.619)" gradientUnits="userSpaceOnUse"><stop offset="0" style="stop-color:#8b723c"/><stop offset=".3" style="stop-color:#d2bb7b"/><stop offset=".5" style="stop-color:#ebd491"/><stop offset=".7" style="stop-color:#d2bb7b"/><stop offset="1" style="stop-color:#8b723c"/></linearGradient><path fill="url(#a)" d="M550.79 511.4c20.07-20.76 83.55-85.36 141.09-143.53l104.61-105.81 18.26 5.97c22.27 7.29 61.22 5.07 102.47-5.84 59.91-15.82 64.91-9.95-58.25-68.42l-108.64-51.56 38.26-1.84c35.82-1.72 39.91-2.74 63.8-15.94 28.83-15.93 60.44-39.536 79.24-59.183l12.69-13.27h-25.67c-14.11 0-62.09-4.24-106.6-9.445-90.86-10.596-164.49-12.815-189.24-5.681-20.75 5.983-37.17 22.029-37.17 36.366 0 23.749 23.75 76.943 57.74 129.293 11.02 16.96 19.28 32.71 18.36 35-2.38 5.96-146.43 160.66-149.58 160.66-2.31 0-99.23-102.89-137.28-145.73l-13.77-15.49 23.55-49.21c23.82-49.76 38.96-92.076 38.96-108.888 0-5.472-4.88-14.07-12.05-21.24-22.27-22.26-72.98-25.014-204.18-11.095-27.93 2.975-68.07 5.415-89.22 5.438l-38.431.02L90.556 63.36c18.254 19.218 68.504 55.469 92.564 66.789 21.03 9.89 25.56 10.63 57.67 9.54 19.15-.64 34.27-.28 33.6.8-.69 1.09-50.15 25.12-109.94 53.41L55.746 245.32l21.297 8.01c48.637 18.3 107.227 24.45 136.057 14.28l15.07-5.32 140.72 143.43c77.39 78.88 141.79 143.42 143.06 143.42 1.3 0 18.78-16.97 38.84-37.74" style="fill:url(#a);stroke-width:11.6187"/></svg>