<svg xmlns="http://www.w3.org/2000/svg" xmlns:xlink="http://www.w3.org/1999/xlink" width="600" height="450.814"><linearGradient id="a" x1="0" x2="1" y1="0" y2="0" gradientTransform="matrix(49.50879 0 0 -49.50879 640.745 146.512)" gradientUnits="userSpaceOnUse" spreadMethod="pad"><stop offset="0" style="stop-color:#536e78"/><stop offset=".3" style="stop-color:#99aebc"/><stop offset=".5" style="stop-color:#d9eaf3"/><stop offset=".7" style="stop-color:#99aebc"/><stop offset="1" style="stop-color:#536e78"/></linearGradient><linearGradient xlink:href="#a" id="b" x1="0" x2="1" y1="0" y2="0" gradientTransform="translate(21.004 225.41)scale(557.98196)" gradientUnits="userSpaceOnUse" spreadMethod="pad"/><path d="M299.335 450.814c-143.652 0-272.02-75.105-298.62-174.69-2.423-9.016 1.454-18.529 9.423-23.375 3.392-2.029 7.134-3.032 10.875-3.032 5.151 0 10.256 1.883 14.224 5.59 12.104 11.18 26.012 21.527 41.384 30.949-8.678-19.419-13.208-40.066-13.208-61.378 0-21.301 4.53-41.949 13.208-61.368-15.417 9.377-29.28 19.769-41.384 30.949a21 21 0 0 1-14.224 5.545c-3.74 0-7.483-1.003-10.875-2.987-7.969-4.846-11.846-14.403-9.422-23.42C27.178 74.621 155.56 0 299.336 0c144.451 0 273.44 74.621 299.948 173.597 2.424 9.017-1.453 18.574-9.422 23.375-3.392 2.029-7.134 3.032-10.875 3.032a21 21 0 0 1-14.224-5.545c-12.15-11.18-26.012-21.572-41.43-30.994 8.68 19.42 13.21 40.112 13.21 61.413 0 21.312-4.53 41.96-13.164 61.378 15.372-9.422 29.235-19.768 41.384-30.948 3.968-3.708 9.073-5.59 14.224-5.59 3.741 0 7.483 1.002 10.875 3.031 7.97 4.846 11.846 14.359 9.422 23.42-26.676 99.54-155.632 174.645-299.949 174.645"/><path d="M21.013 179.007c32.583-30.07 76.605-54.548 128.066-71.014-39.886 29.72-64.67 71.15-64.67 116.885 0 45.791 24.784 87.176 64.67 116.85-51.46-16.386-95.483-40.9-128.066-71.014 22.89 85.711 138.412 159.104 278.322 159.104 139.877 0 256.716-73.393 279.652-159.104-32.583 30.114-76.65 54.628-128.156 71.015 39.931-29.675 64.715-71.06 64.715-116.851 0-45.736-24.784-87.165-64.715-116.885 51.506 16.42 95.573 40.945 128.156 71.014-22.936-85.632-139.775-158-279.652-158-139.91 0-255.43 72.368-278.322 158M235.86 228.8c0-76.21 29.18-137.927 65.244-137.927 36.01 0 65.2 61.716 65.2 137.927 0 76.255-29.19 137.971-65.2 137.971-36.065 0-65.244-61.716-65.244-137.971m183.583 2.028c0-53.275-11.19-86.86-43.019-129.519 55.653 23.984 85.362 69.38 85.148 130.049-.27 60.308-29.81 105.175-85.148 129.125 31.828-42.704 43.02-76.391 43.02-129.655m-282.864.53c-.26-64.106 38.387-114.158 100.464-130.049-40.72 37.238-57.017 74.306-57.017 129.52 0 55.247 16.297 92.315 57.017 129.654-61.762-15.903-100.239-65.29-100.464-129.125" style="fill:url(#b)"/></svg>