<?xml version="1.0" encoding="UTF-8" standalone="no"?>
<svg
   width="1355.46"
   height="612.85699"
   viewBox="0 0 1355.46 612.85699"
   version="1.1"
   xml:space="preserve"
   style="clip-rule:evenodd;fill-rule:evenodd;stroke-linejoin:round;stroke-miterlimit:2"
   id="svg6"
   xmlns="http://www.w3.org/2000/svg"
   xmlns:svg="http://www.w3.org/2000/svg">
    <path
   d="m 70,0 h 1211.89 c 0,0 73.57,160.351 73.57,306.428 0,146.077 -73.57,306.429 -73.57,306.429 H 70 C 70,612.857 0,452.505 0,306.428 0,160.351 70,0 70,0 Z"
   style="fill-rule:nonzero"
   id="path1" />
    <path
   d="m 94.258,35.719 c 0,0 -58.781,124.642 -58.781,270.719 0,146.077 58.781,270 58.781,270 H 1260.1 c 0,0 60.72,-123.923 60.72,-270 0,-146.077 -60.72,-270.719 -60.72,-270.719 z m 821.5,52.994 c 47.939,0 104.982,27.917 104.972,76.262 -0.01,48.344 -3.25,53.397 -121.451,180.496 h 89.805 l 19.996,-45.838 c 0,0 9.85,-2.599 11.65,0 V 402.602 H 816.5 l -3.986,-8.666 c 97.607,-110.875 134.828,-189.614 134.828,-220.219 0,-30.605 -7.492,-50.037 -33.549,-50.037 -26.057,0 -33.451,29.588 -33.451,39.771 0,10.183 0.4,16.244 5.646,24.129 l -10.06,11.625 -54.143,-70.172 c 23.14,-19.824 51.797,-40.32 93.973,-40.32 z m 249.022,0 h 13.28 v 244.578 c 0,32.332 21.08,53.477 43.99,53.477 v 15.834 h -159.52 v -15.834 l 44.49,-15.713 V 160.35 h -44.49 v -15.711 c 44.5,-12.816 68.34,-28.097 102.25,-55.926 z m -930.116,4.506 h 165.188 c 5.033,0 9.51,2.457 11.312,6.906 0.005,0.013 0.026,0.018 0.031,0.031 l 69.938,174.594 c 2.897,7.233 5.105,7.304 8.219,0.25 l 0.125,-0.25 48.906,-112.812 c 0.531,-1.226 1.055,-2.433 1.562,-3.657 6.372,-15.382 9.158,-31.12 -33.75,-58.437 0.062,-0.004 0.126,0.004 0.188,0 -3.816,-2.822 -7.14,-6.625 4.156,-6.625 h 190.813 c 7.417,0 7.918,2.829 0.687,7.344 0.007,0.012 0.024,0.019 0.031,0.031 l -2.218,1.375 c -25.954,16.203 -28.942,34.195 -13.688,71.937 l 100.844,249.532 c 0.085,0.211 0.164,0.414 0.25,0.625 9.745,23.86 22.009,39.543 50.5,70.531 0.783,0.851 1.488,1.601 2.125,2.312 4.457,4.98 4.995,6.648 -2.813,6.657 H 629.695 c -7.013,-0.207 -9.789,-2.094 1.063,-9.282 31.429,-23.677 28.597,-46.923 12.125,-87.968 l -0.125,-0.282 -58.469,-145.437 -0.781,-1.906 c -3.9,-8.756 -6.922,-8.282 -11.25,1.375 -0.082,0.183 -0.167,0.34 -0.25,0.531 L 457.789,521.875 c -0.151,0.1 -0.212,0.211 -0.156,0.313 -5.948,13.603 -7.797,13.789 -13.156,0.625 -0.088,-0.217 -0.161,-0.402 -0.25,-0.625 0.083,-0.131 0.011,-0.278 -0.157,-0.407 l -105.156,-261.187 -0.312,-0.719 c -4.186,-10.031 -7.294,-9.885 -11.875,0.469 -0.04,0.089 -0.086,0.159 -0.125,0.25 L 263.57,404.625 c -0.042,0.096 -0.083,0.186 -0.125,0.281 -13.732,31.728 0.67,56.28 46.125,90.844 -0.021,0.029 -0.041,0.065 -0.062,0.094 5.733,4.115 7.984,7.719 -2.469,7.719 H 123.852 c -6.738,0 -7.146,-0.957 -1.407,-6.969 26.143,-27.41 46.206,-50.618 59,-79.5 l 99.219,-224.031 c -0.008,-0.004 -0.023,0.004 -0.031,0 1.125,-2.541 2.228,-4.965 3.25,-7.313 15.329,-35.225 17.53,-50.023 -38.906,-78.969 l -10.969,-5.625 c -0.043,-0.022 -0.082,-0.04 -0.125,-0.062 -6.966,-3.62 -7.784,-7.875 0.781,-7.875 z"
   style="fill:url(#_Linear1);fill-rule:nonzero"
   id="path2" />
    <defs
   id="defs6">
        <linearGradient
   id="_Linear1"
   x1="0"
   y1="0"
   x2="1"
   y2="0"
   gradientUnits="userSpaceOnUse"
   gradientTransform="matrix(1211.89,612.857,-612.857,1211.89,70,1e-5)"><stop
     offset="0"
     style="stop-color:rgb(97,44,117);stop-opacity:1"
     id="stop2" /><stop
     offset="0.23"
     style="stop-color:rgb(123,81,144);stop-opacity:1"
     id="stop3" /><stop
     offset="0.5"
     style="stop-color:rgb(191,153,195);stop-opacity:1"
     id="stop4" /><stop
     offset="0.76"
     style="stop-color:rgb(123,81,144);stop-opacity:1"
     id="stop5" /><stop
     offset="1"
     style="stop-color:rgb(97,44,117);stop-opacity:1"
     id="stop6" /></linearGradient>
    </defs>
</svg>
