<?xml version="1.0" encoding="UTF-8" standalone="no"?>
<!DOCTYPE svg PUBLIC "-//W3C//DTD SVG 1.1//EN" "http://www.w3.org/Graphics/SVG/1.1/DTD/svg11.dtd">
<svg width="100%" height="100%" viewBox="0 0 1356 613" version="1.1" xmlns="http://www.w3.org/2000/svg" xmlns:xlink="http://www.w3.org/1999/xlink" xml:space="preserve" xmlns:serif="http://www.serif.com/" style="fill-rule:evenodd;clip-rule:evenodd;stroke-linejoin:round;stroke-miterlimit:2;">
    <path d="M70,0L1281.89,0C1281.89,0 1355.46,160.351 1355.46,306.428C1355.46,452.505 1281.89,612.857 1281.89,612.857L70,612.857C70,612.857 0,452.505 0,306.428C0,160.351 70,0 70,0Z" style="fill-rule:nonzero;"/>
    <path d="M94.258,35.719C94.258,35.719 35.477,160.361 35.477,306.438C35.477,452.515 94.258,576.438 94.258,576.438L1260.1,576.438C1260.1,576.438 1320.82,452.515 1320.82,306.438C1320.82,160.361 1260.1,35.719 1260.1,35.719L94.258,35.719ZM915.758,88.713C963.697,88.713 1020.74,116.63 1020.73,164.975C1020.72,213.319 1017.48,218.372 899.279,345.471L989.084,345.471L1009.08,299.633C1009.08,299.633 1018.93,297.034 1020.73,299.633L1020.73,402.602L816.5,402.602L812.514,393.936C910.121,283.061 947.342,204.322 947.342,173.717C947.342,143.112 939.85,123.68 913.793,123.68C887.736,123.68 880.342,153.268 880.342,163.451C880.342,173.634 880.742,179.695 885.988,187.58L875.928,199.205L821.785,129.033C844.925,109.209 873.582,88.713 915.758,88.713ZM1164.78,88.713L1178.06,88.713L1178.06,333.291C1178.06,365.623 1199.14,386.768 1222.05,386.768L1222.05,402.602L1062.53,402.602L1062.53,386.768L1107.02,371.055L1107.02,160.35L1062.53,160.35L1062.53,144.639C1107.03,131.823 1130.87,116.542 1164.78,88.713ZM234.664,93.219L399.852,93.219C404.885,93.219 409.362,95.676 411.164,100.125C411.169,100.138 411.19,100.143 411.195,100.156L481.133,274.75C484.03,281.983 486.238,282.054 489.352,275L489.477,274.75L538.383,161.938C538.914,160.712 539.438,159.505 539.945,158.281C546.317,142.899 549.103,127.161 506.195,99.844C506.257,99.84 506.321,99.848 506.383,99.844C502.567,97.022 499.243,93.219 510.539,93.219L701.352,93.219C708.769,93.219 709.27,96.048 702.039,100.563C702.046,100.575 702.063,100.582 702.07,100.594L699.852,101.969C673.898,118.172 670.91,136.164 686.164,173.906L787.008,423.438C787.093,423.649 787.172,423.852 787.258,424.063C797.003,447.923 809.267,463.606 837.758,494.594C838.541,495.445 839.246,496.195 839.883,496.906C844.34,501.886 844.878,503.554 837.07,503.563L629.695,503.563C622.682,503.356 619.906,501.469 630.758,494.281C662.187,470.604 659.355,447.358 642.883,406.313L642.758,406.031L584.289,260.594L583.508,258.688C579.608,249.932 576.586,250.406 572.258,260.063C572.176,260.246 572.091,260.403 572.008,260.594L457.789,521.875C457.638,521.975 457.577,522.086 457.633,522.188C451.685,535.791 449.836,535.977 444.477,522.813C444.389,522.596 444.316,522.411 444.227,522.188C444.31,522.057 444.238,521.91 444.07,521.781L338.914,260.594L338.602,259.875C334.416,249.844 331.308,249.99 326.727,260.344C326.687,260.433 326.641,260.503 326.602,260.594L263.57,404.625C263.528,404.721 263.487,404.811 263.445,404.906C249.713,436.634 264.115,461.186 309.57,495.75C309.549,495.779 309.529,495.815 309.508,495.844C315.241,499.959 317.492,503.563 307.039,503.563L123.852,503.563C117.114,503.563 116.706,502.606 122.445,496.594C148.588,469.184 168.651,445.976 181.445,417.094L280.664,193.063C280.656,193.059 280.641,193.067 280.633,193.063C281.758,190.522 282.861,188.098 283.883,185.75C299.212,150.525 301.413,135.727 244.977,106.781L234.008,101.156C233.965,101.134 233.926,101.116 233.883,101.094C226.917,97.474 226.099,93.219 234.664,93.219Z" style="fill:url(#_Linear1);fill-rule:nonzero;"/>
    <defs>
        <linearGradient id="_Linear1" x1="0" y1="0" x2="1" y2="0" gradientUnits="userSpaceOnUse" gradientTransform="matrix(1211.89,612.857,-612.857,1211.89,70,1e-05)"><stop offset="0" style="stop-color:rgb(97,44,117);stop-opacity:1"/><stop offset="0.23" style="stop-color:rgb(123,81,144);stop-opacity:1"/><stop offset="0.5" style="stop-color:rgb(191,153,195);stop-opacity:1"/><stop offset="0.76" style="stop-color:rgb(123,81,144);stop-opacity:1"/><stop offset="1" style="stop-color:rgb(97,44,117);stop-opacity:1"/></linearGradient>
    </defs>
</svg>
