<svg xmlns="http://www.w3.org/2000/svg" width="217.14" height="206.339"><path d="M58.6 0c1.82 11.21 5.019 22.34 8.099 33.27 27.93-.23 56.071.529 83.881-.261 3.04-10.75 5.47-21.68 8.29-32.5-16.61.86-33.68 5.39-50.52 7.17C91.74 5.369 75.17 2.63 58.6 0m127.54 19.64c-9.94 5.59-19.51 11.929-29.1 18.099 7.87 26.74 17.17 53.16 25.71 79.74 11.47.14 22.94-1.31 34.39-2.02-7.57-15.27-15.64-30.32-22.9-45.72-3.04-16.64-5.17-33.45-8.1-50.1m-155.22.24c-2.68 16.76-5.23 33.55-8.16 50.25C15.39 85.38 6.85 100.15 0 115.61c11.4.63 22.8 1.99 34.21 2.07 8.68-26.53 17.24-53.11 25.76-79.69-9.53-6.25-19.2-12.38-29.05-18.11m87.756 23.498c-16.395-.038-32.84.22-49.197.25-9.01 24.4-16.6 49.952-24.8 74.872 20.98 15.74 42.36 31.01 63.71 46.25 21.49-15.07 42.64-30.73 63.82-46.26-7.91-24.9-15.969-49.78-24.109-74.61-9.769-.35-19.588-.479-29.424-.502m-82.187 81.99c-8.79 7.2-18.22 14.322-26.13 22.202 14.82 8.05 30.07 15.29 45 23.13 12.29 11.63 23.96 23.95 36.22 35.64a377 377 0 0 0 12.63-31.44c-22.05-16.91-45.01-33.301-67.72-49.531m143.9.321c-22.89 15.95-45.4 32.6-67.88 49.16 4.04 10.49 8.15 21.02 12.77 31.26 12.35-11.43 23.69-23.96 36.05-35.37 14.8-8.04 30.101-15.17 44.921-23.19-8.07-7.78-16.98-15.03-25.86-21.86"/></svg>