<?xml version="1.0" encoding="UTF-8" standalone="no"?>
<svg
   version="1.1"
   width="557.97308"
   height="408.80984"
   id="svg1"
   xmlns="http://www.w3.org/2000/svg"
   xmlns:svg="http://www.w3.org/2000/svg">
  <defs
     id="defs1" />
  <path
     d="m 355.41086,339.47457 c 31.8275,-42.7034 43.01897,-76.34543 43.01897,-129.65424 0,-53.275 -11.19147,-86.86068 -43.01897,-129.519 55.65305,23.98333 85.36172,69.38035 85.14759,130.0487 -0.27049,60.30771 -29.81011,105.12994 -85.14759,129.12454 m -75.31983,6.28886 c -36.06515,0 -65.24412,-61.7165 -65.24412,-137.97177 0,-76.21018 29.17897,-137.92669 65.24412,-137.92669 36.00881,0 65.19905,61.71651 65.19905,137.92669 0,76.25527 -29.19024,137.97177 -65.19905,137.97177 M 115.56629,210.35003 c -0.25967,-64.10581 38.38686,-114.15749 100.46401,-130.0487 -40.71982,37.23728 -57.05057,74.3055 -57.05057,129.519 0,55.24731 16.33075,92.31553 57.05057,129.65424 C 154.26872,323.57209 115.7917,274.18536 115.56629,210.35003 m 378.96592,-6.48045 c 0,-45.73513 -24.78353,-87.16498 -64.71442,-116.88493 51.50555,16.42092 95.52759,40.94523 128.15529,71.01455 C 535.03789,72.367 418.19805,0 278.32159,0 138.41132,0 22.890105,72.367 0,157.9992 32.582616,127.92988 76.604649,103.45065 128.06512,86.98465 88.179306,116.7046 63.395785,158.13445 63.395785,203.86958 c 0,45.79148 24.783521,87.13116 64.669335,116.88492 C 76.604649,304.33358 32.582616,279.77546 0,249.70614 c 22.890105,85.7111 138.41132,159.1037 278.32159,159.1037 139.87646,0 256.7163,-73.3926 279.65149,-159.1037 -32.6277,30.06932 -76.64974,54.62744 -128.15529,71.04836 39.93089,-29.75376 64.71442,-71.09344 64.71442,-116.88492"
     id="path1" />
</svg>
