<?xml version="1.0" encoding="UTF-8" standalone="no"?>
<!-- Generator: Adobe Illustrator 15.1.0, SVG Export Plug-In . SVG Version: 6.00 Build 0)  -->

<svg
   version="1.1"
   id="Layer_1"
   x="0px"
   y="0px"
   width="150"
   height="72.834999"
   viewBox="0 0 150 72.834999"
   enable-background="new 0 0 160 78"
   xml:space="preserve"
   xmlns="http://www.w3.org/2000/svg"
   xmlns:svg="http://www.w3.org/2000/svg"><defs
   id="defs2" />
<g
   id="Layer_1_1_"
   transform="translate(-5.282,-2.724)">
</g>
<g
   id="Layer_3"
   display="none"
   transform="translate(-5.282,-2.724)">
</g>
<g
   id="g2"
   transform="translate(-5.282,-2.724)">
	<path
   fill="#ffffff"
   d="m 143.363,13.918 c 0,0 2.354,-3.814 2.387,-3.875 0.574,-1.104 1.669,-2.547 1.048,-3.625 -0.541,-0.941 -1.69,-0.889 -2.935,-0.889 H 92.077 C 88.871,3.687 84.863,2.724 80.282,2.724 c -4.581,0 -8.591,0.961 -11.794,2.805 H 16.701 c -1.244,0 -2.396,-0.053 -2.937,0.889 -0.621,1.077 0.476,2.521 1.049,3.625 0.031,0.061 2.387,3.875 2.387,3.875 H 5.282 L 8.815,19.4 c 0.55,0.853 13.675,21.086 32.559,38.869 l 1.027,0.97 h 16.335 c 1.186,1.075 2.329,2.103 3.411,3.067 l 1.012,0.898 c 0,0 2.282,2.003 3.078,2.691 11.187,9.664 12.705,9.664 14.045,9.664 1.34,0 2.858,0 14.044,-9.664 0.798,-0.688 3.078,-2.691 3.078,-2.691 l 1.013,-0.898 c 1.079,-0.963 2.222,-1.99 3.41,-3.067 h 16.336 l 1.026,-0.97 c 18.885,-17.783 32.01,-38.017 32.56,-38.869 l 3.533,-5.482 z"
   id="path1" />
	<path
   d="m 78.133,36.51 c 0,0 -1.915,4.104 -7.421,4.104 -4.308,0 -4.583,-3.112 -4.583,-4.343 0,-1.231 1.162,-3.111 2.564,-3.111 1.402,0 5.508,2.565 9.44,3.35 z m 65.478,-11.649 c 3.299,-4.519 5.147,-7.387 5.147,-7.387 h -50.81 c 0.155,0.951 0.245,1.937 0.245,2.963 0,6.226 -1.641,5.813 -1.641,10.736 0,3.285 1.301,3.831 1.572,4.721 0.275,0.889 0,3.692 -1.23,6.019 -1.229,2.323 -2.871,3.282 -4.033,3.282 -1.164,0 -1.713,-0.615 -2.189,-0.615 -0.479,0 -1.572,0.615 -1.572,2.188 0,1.574 1.094,1.642 1.094,2.806 0,0.819 0,1.778 0,2.323 0,0.549 -1.024,2.6 -3.418,2.6 0,0 0,-0.512 0,-0.887 0,-0.379 0.272,-0.688 0.272,-1.164 0,-0.479 -0.582,-0.854 -0.991,-0.854 -0.41,0 -0.994,0.343 -0.994,1.196 0,0.548 0.445,0.924 0.207,1.47 -0.238,0.548 -2.975,0.479 -3.487,0.515 -0.512,0.036 -0.82,-0.308 -0.82,-0.854 0,-0.546 0.142,-2.358 -0.679,-2.358 -0.821,0 -0.68,1.812 -0.68,2.358 0,0.546 -0.307,0.89 -0.82,0.854 -0.513,-0.036 -3.25,0.033 -3.488,-0.515 -0.24,-0.546 0.205,-0.922 0.205,-1.47 0,-0.854 -0.581,-1.196 -0.991,-1.196 -0.409,0 -0.991,0.376 -0.991,0.854 0,0.478 0.273,0.785 0.273,1.164 0,0.375 0,0.887 0,0.887 -2.394,0 -3.421,-2.051 -3.421,-2.6 0,-0.545 0,-1.504 0,-2.323 0,-1.164 1.096,-1.23 1.096,-2.806 0,-1.572 -1.096,-2.188 -1.574,-2.188 -0.479,0 -1.025,0.615 -2.188,0.615 -1.164,0 -2.804,-0.959 -4.035,-3.282 -1.232,-2.325 -1.506,-5.129 -1.232,-6.019 0.274,-0.891 1.573,-1.437 1.573,-4.721 0,-4.923 -1.641,-4.512 -1.641,-10.736 0,-1.026 0.091,-2.013 0.246,-2.963 h -50.81 c 0,0 1.849,2.869 5.146,7.387 h 15.955 c 0.82,0.982 1.632,1.947 2.435,2.888 H 19.093 c 1.678,2.229 3.615,4.726 5.778,7.386 h 16.946 c 0.896,0.994 1.775,1.958 2.633,2.889 H 27.257 c 2,2.387 4.164,4.871 6.464,7.384 h 17.754 c 1.014,1.032 1.972,1.998 2.875,2.889 H 36.41 c 2.351,2.476 4.824,4.958 7.404,7.388 H 60.11 c 1.577,1.436 3.042,2.756 4.403,3.967 H 96.05 c 1.361,-1.211 2.826,-2.531 4.403,-3.967 h 16.298 c 2.579,-2.43 5.054,-4.912 7.403,-7.388 h -17.94 c 0.901,-0.891 1.861,-1.856 2.875,-2.889 h 17.754 c 2.302,-2.515 4.464,-4.997 6.464,-7.384 h -17.193 c 0.859,-0.932 1.738,-1.895 2.634,-2.889 h 16.944 c 2.164,-2.66 4.102,-5.156 5.779,-7.386 h -16.248 c 0.803,-0.94 1.615,-1.904 2.437,-2.888 z M 91.87,33.16 c -1.403,0 -5.509,2.564 -9.438,3.35 0,0 1.914,4.104 7.42,4.104 4.31,0 4.584,-3.112 4.584,-4.343 0,-1.231 -1.165,-3.111 -2.566,-3.111 z m -11.588,6.383 c -0.615,0 -1.544,1.458 -2.093,2.758 -0.547,1.299 -1.664,3.146 -0.455,3.146 0.843,0 1.476,-1.438 2.548,-1.438 1.071,0 1.704,1.438 2.547,1.438 1.21,0 0.094,-1.848 -0.455,-3.146 -0.548,-1.3 -1.478,-2.758 -2.092,-2.758 z M 96.945,13.918 h 42.174 c 2.09,-3.119 2.982,-4.834 2.982,-4.834 H 93.516 c 1.5,1.348 2.645,2.977 3.429,4.834 z M 80.282,72.006 c 0.721,0 3.946,-2.082 11.719,-8.8 H 68.563 c 7.773,6.718 10.998,8.8 11.719,8.8 z M 67.048,9.084 H 18.462 c 0,0 0.893,1.715 2.981,4.834 h 42.174 c 0.786,-1.857 1.932,-3.486 3.431,-4.834 z"
   id="path2" />
</g>
</svg>
