<?xml version="1.0" encoding="UTF-8" standalone="no"?>
<!-- Generator: Adobe Illustrator 15.1.0, SVG Export Plug-In . SVG Version: 6.00 Build 0)  -->

<svg
   version="1.1"
   id="Layer_1"
   x="0px"
   y="0px"
   width="149.99899"
   height="72.833"
   viewBox="0 0 149.99899 72.833"
   enable-background="new 0 0 160 78"
   xml:space="preserve"
   xmlns="http://www.w3.org/2000/svg"
   xmlns:svg="http://www.w3.org/2000/svg"><defs
   id="defs13" />
<g
   id="Layer_1_1_"
   transform="translate(-5.014,-2.726)">
</g>
<g
   id="Layer_3"
   display="none"
   transform="translate(-5.014,-2.726)">
</g>
<g
   id="g13"
   transform="translate(-5.014,-2.726)">
	<path
   d="m 143.094,13.919 c 0,0 2.354,-3.815 2.389,-3.876 0.572,-1.103 1.668,-2.547 1.048,-3.624 C 145.99,5.478 144.839,5.53 143.594,5.53 H 91.808 C 88.603,3.688 84.594,2.726 80.014,2.726 c -4.58,0 -8.592,0.962 -11.795,2.804 H 16.433 c -1.245,0 -2.396,-0.052 -2.937,0.889 -0.621,1.077 0.476,2.521 1.049,3.624 0.031,0.061 2.387,3.876 2.387,3.876 H 5.014 l 3.533,5.482 c 0.55,0.853 13.675,21.086 32.559,38.869 l 1.027,0.969 h 16.335 c 1.186,1.075 2.328,2.103 3.411,3.065 l 1.011,0.901 c 0,0 2.282,2.001 3.078,2.69 11.186,9.664 12.704,9.664 14.045,9.664 1.341,0 2.859,0 14.043,-9.664 0.798,-0.689 3.08,-2.69 3.08,-2.69 l 1.011,-0.901 c 1.079,-0.96 2.222,-1.988 3.411,-3.065 h 16.335 l 1.027,-0.969 c 18.886,-17.783 32.011,-38.016 32.561,-38.869 l 3.532,-5.482 z"
   id="path1" />
	<linearGradient
   id="SVGID_1_"
   gradientUnits="userSpaceOnUse"
   x1="11.5371"
   y1="38.562"
   x2="148.4912"
   y2="38.562">
		<stop
   offset="0"
   style="stop-color:#8D742F"
   id="stop1" />
		<stop
   offset="0.1336"
   style="stop-color:#9F8641"
   id="stop2" />
		<stop
   offset="0.25"
   style="stop-color:#B39A54"
   id="stop3" />
		<stop
   offset="0.2646"
   style="stop-color:#B69D57"
   id="stop4" />
		<stop
   offset="0.4104"
   style="stop-color:#CEB46C"
   id="stop5" />
		<stop
   offset="0.5"
   style="stop-color:#D7BD74"
   id="stop6" />
		<stop
   offset="0.5896"
   style="stop-color:#CEB46C"
   id="stop7" />
		<stop
   offset="0.7354"
   style="stop-color:#B69D57"
   id="stop8" />
		<stop
   offset="0.75"
   style="stop-color:#B39A54"
   id="stop9" />
		<stop
   offset="0.8664"
   style="stop-color:#9F8641"
   id="stop10" />
		<stop
   offset="1"
   style="stop-color:#8D742F"
   id="stop11" />
	</linearGradient>
	<path
   fill="url(#SVGID_1_)"
   d="m 143.342,24.862 c 3.299,-4.519 5.149,-7.388 5.149,-7.388 H 99.77 c 0.138,0.956 0.208,1.944 0.208,2.964 0,3.614 -0.525,5.258 -0.99,6.708 -0.362,1.135 -0.651,2.033 -0.651,4.029 0,1.706 0.393,2.259 0.771,2.795 0.24,0.338 0.538,0.756 0.71,1.322 0.468,1.513 0.072,4.843 -1.378,7.581 -1.428,2.698 -3.668,4.375 -5.848,4.375 -0.3,0 -0.615,0 -0.615,0 0,0 0,1.636 0,2.325 v 2.324 c 0,3.335 -2.668,4.412 -7.462,4.8 -1.913,0.155 -2.523,0.121 -4.501,0.121 -1.978,0 -2.588,0.034 -4.501,-0.121 -4.794,-0.388 -7.462,-1.465 -7.462,-4.8 v -2.324 c 0,-0.689 0,-2.325 0,-2.325 0,0 -0.317,0 -0.615,0 -2.18,0 -4.42,-1.677 -5.847,-4.375 -1.451,-2.738 -1.846,-6.068 -1.38,-7.581 0.174,-0.565 0.471,-0.984 0.712,-1.322 0.379,-0.536 0.772,-1.089 0.772,-2.795 0,-1.996 -0.29,-2.894 -0.651,-4.029 -0.465,-1.45 -0.991,-3.094 -0.991,-6.708 0,-1.02 0.071,-2.008 0.209,-2.964 H 11.54 c 0,0 1.849,2.869 5.146,7.388 h 15.955 c 0.82,0.982 1.632,1.946 2.435,2.887 H 18.825 c 1.679,2.23 3.616,4.725 5.778,7.386 h 16.946 c 0.896,0.994 1.775,1.958 2.633,2.888 H 26.988 c 2.001,2.387 4.164,4.87 6.464,7.385 h 17.753 c 1.014,1.032 1.972,1.997 2.875,2.888 H 36.14 c 2.351,2.475 4.824,4.958 7.404,7.387 h 16.297 c 1.577,1.436 3.042,2.757 4.403,3.967 h 31.537 c 1.362,-1.21 2.827,-2.531 4.403,-3.967 h 16.298 c 2.58,-2.429 5.053,-4.912 7.403,-7.387 h -17.939 c 0.901,-0.891 1.86,-1.855 2.874,-2.888 h 17.754 c 2.301,-2.515 4.463,-4.998 6.464,-7.385 h -17.193 c 0.858,-0.931 1.737,-1.894 2.633,-2.888 h 16.944 c 2.164,-2.661 4.102,-5.156 5.78,-7.386 h -16.248 c 0.803,-0.941 1.615,-1.904 2.436,-2.887 z"
   id="path11"
   style="fill:url(#SVGID_1_)" />
	<path
   fill="#8d742f"
   d="m 68.295,63.206 h 23.437 c -7.771,6.716 -10.998,8.8 -11.718,8.8 -0.723,0 -3.947,-2.084 -11.719,-8.8 z m 70.557,-49.287 c 2.088,-3.12 2.98,-4.834 2.98,-4.834 H 96.099 c 1.206,1.423 2.143,3.043 2.792,4.834 z M 18.194,9.085 c 0,0 0.893,1.714 2.981,4.834 h 39.96 c 0.648,-1.791 1.586,-3.411 2.792,-4.834 z"
   id="path12" />
	<path
   fill="#ffffff"
   d="m 96.626,41.913 c -1.23,2.324 -2.871,3.283 -4.034,3.283 -1.163,0 -1.711,-0.615 -2.188,-0.615 -0.479,0 -1.573,0.615 -1.573,2.188 0,1.573 1.094,1.641 1.094,2.804 0,0.82 0,1.778 0,2.324 0,0.549 -1.025,2.6 -3.419,2.6 0,0 0,-0.513 0,-0.888 0,-0.378 0.274,-0.687 0.274,-1.163 0,-0.479 -0.583,-0.855 -0.993,-0.855 -0.41,0 -0.992,0.342 -0.992,1.196 0,0.548 0.444,0.924 0.207,1.47 -0.24,0.548 -2.975,0.479 -3.488,0.514 -0.513,0.035 -0.82,-0.307 -0.82,-0.854 0,-0.547 0.142,-2.359 -0.679,-2.359 -0.82,0 -0.679,1.812 -0.679,2.359 0,0.547 -0.307,0.889 -0.82,0.854 -0.514,-0.034 -3.25,0.034 -3.488,-0.514 -0.239,-0.546 0.205,-0.922 0.205,-1.47 0,-0.854 -0.581,-1.196 -0.991,-1.196 -0.41,0 -0.993,0.376 -0.993,0.855 0,0.477 0.274,0.785 0.274,1.163 0,0.375 0,0.888 0,0.888 -2.394,0 -3.421,-2.051 -3.421,-2.6 0,-0.546 0,-1.504 0,-2.324 0,-1.163 1.096,-1.23 1.096,-2.804 0,-1.574 -1.096,-2.188 -1.573,-2.188 -0.479,0 -1.025,0.615 -2.189,0.615 -1.163,0 -2.804,-0.959 -4.034,-3.283 -1.232,-2.325 -1.506,-5.129 -1.232,-6.018 0.274,-0.889 1.573,-1.436 1.573,-4.72 0,-4.923 -1.641,-4.512 -1.641,-10.736 0,-9.301 6.388,-15.662 17.912,-15.662 11.524,0 17.913,6.361 17.913,15.662 0,6.225 -1.641,5.813 -1.641,10.736 0,3.285 1.299,3.831 1.571,4.72 0.276,0.889 -0.001,3.693 -1.231,6.018 z m -28.2,-8.753 c -1.403,0 -2.564,1.88 -2.564,3.111 0,1.231 0.274,4.342 4.583,4.342 5.506,0 7.42,-4.103 7.42,-4.103 -3.933,-0.785 -8.036,-3.35 -9.439,-3.35 z m 13.736,3.35 c 0,0 1.915,4.103 7.419,4.103 4.311,0 4.584,-3.112 4.584,-4.342 0,-1.23 -1.163,-3.111 -2.564,-3.111 -1.403,0 -5.508,2.565 -9.439,3.35 z m -4.241,5.791 c -0.548,1.299 -1.665,3.146 -0.455,3.146 0.843,0 1.475,-1.438 2.547,-1.438 1.072,0 1.705,1.438 2.547,1.438 1.21,0 0.093,-1.848 -0.455,-3.146 -0.548,-1.3 -1.477,-2.758 -2.092,-2.758 -0.615,0 -1.544,1.458 -2.092,2.758 z"
   id="path13" />
</g>
</svg>
