<?xml version="1.0" encoding="UTF-8" standalone="no"?>
<!-- Generator: Adobe Illustrator 15.1.0, SVG Export Plug-In . SVG Version: 6.00 Build 0)  -->

<svg
   version="1.1"
   id="Layer_1"
   x="0px"
   y="0px"
   width="150"
   height="72.834999"
   viewBox="0 0 150 72.834999"
   enable-background="new 0 0 160 78"
   xml:space="preserve"
   xmlns="http://www.w3.org/2000/svg"
   xmlns:svg="http://www.w3.org/2000/svg"><defs
   id="defs19" />
<g
   id="Layer_1_1_"
   transform="translate(-4.981,-3.06)">
</g>
<g
   id="Layer_3"
   display="none"
   transform="translate(-4.981,-3.06)">
</g>
<g
   id="g19"
   transform="translate(-4.981,-3.06)">
	<path
   d="m 143.063,14.253 c 0,0 2.354,-3.815 2.387,-3.876 0.574,-1.103 1.669,-2.547 1.048,-3.624 -0.541,-0.941 -1.69,-0.889 -2.935,-0.889 H 91.776 C 88.57,4.021 84.563,3.06 79.981,3.06 75.4,3.06 71.39,4.022 68.187,5.864 H 16.4 c -1.244,0 -2.396,-0.052 -2.937,0.889 -0.621,1.077 0.476,2.521 1.049,3.624 0.031,0.061 2.387,3.876 2.387,3.876 H 4.981 l 3.533,5.482 c 0.55,0.853 13.675,21.086 32.559,38.87 l 1.027,0.969 h 16.335 c 1.186,1.075 2.329,2.103 3.411,3.066 l 1.012,0.901 c 0,0 2.282,2 3.078,2.689 11.187,9.665 12.705,9.665 14.045,9.665 1.34,0 2.859,0 14.044,-9.665 0.798,-0.689 3.079,-2.689 3.079,-2.689 l 1.012,-0.901 c 1.079,-0.96 2.222,-1.989 3.41,-3.066 h 16.336 l 1.027,-0.969 c 18.884,-17.783 32.009,-38.017 32.559,-38.87 l 3.533,-5.482 z"
   id="path1" />
	<linearGradient
   id="SVGID_1_"
   gradientUnits="userSpaceOnUse"
   x1="11.5044"
   y1="38.8955"
   x2="148.459"
   y2="38.8955">
		<stop
   offset="0"
   style="stop-color:#612C75"
   id="stop1" />
		<stop
   offset="0.0155"
   style="stop-color:#643078"
   id="stop2" />
		<stop
   offset="0.1297"
   style="stop-color:#754889"
   id="stop3" />
		<stop
   offset="0.2"
   style="stop-color:#7B5190"
   id="stop4" />
		<stop
   offset="0.2344"
   style="stop-color:#8C639D"
   id="stop5" />
		<stop
   offset="0.2911"
   style="stop-color:#A37BAE"
   id="stop6" />
		<stop
   offset="0.3516"
   style="stop-color:#B38CBA"
   id="stop7" />
		<stop
   offset="0.4177"
   style="stop-color:#BC96C1"
   id="stop8" />
		<stop
   offset="0.5"
   style="stop-color:#BF99C3"
   id="stop9" />
		<stop
   offset="0.5823"
   style="stop-color:#BC96C1"
   id="stop10" />
		<stop
   offset="0.6484"
   style="stop-color:#B38CBA"
   id="stop11" />
		<stop
   offset="0.7089"
   style="stop-color:#A37BAE"
   id="stop12" />
		<stop
   offset="0.7656"
   style="stop-color:#8C639D"
   id="stop13" />
		<stop
   offset="0.8"
   style="stop-color:#7B5190"
   id="stop14" />
		<stop
   offset="0.8703"
   style="stop-color:#754889"
   id="stop15" />
		<stop
   offset="0.9845"
   style="stop-color:#643078"
   id="stop16" />
		<stop
   offset="1"
   style="stop-color:#612C75"
   id="stop17" />
	</linearGradient>
	<path
   fill="url(#SVGID_1_)"
   d="m 143.311,25.196 c 3.299,-4.519 5.148,-7.388 5.148,-7.388 H 99.738 c 0.138,0.957 0.208,1.944 0.208,2.964 0,3.614 -0.525,5.258 -0.991,6.707 -0.361,1.136 -0.651,2.034 -0.651,4.029 0,1.706 0.394,2.259 0.772,2.795 0.239,0.337 0.538,0.756 0.71,1.322 0.467,1.513 0.072,4.843 -1.379,7.581 -1.427,2.698 -3.667,4.375 -5.847,4.375 -0.3,0 -0.615,0 -0.615,0 0,0 0,1.636 0,2.325 v 2.325 c 0,3.334 -2.668,4.411 -7.463,4.799 -1.912,0.155 -2.522,0.121 -4.501,0.121 -1.979,0 -2.588,0.034 -4.501,-0.121 -4.794,-0.388 -7.462,-1.465 -7.462,-4.799 v -2.325 c 0,-0.689 0,-2.325 0,-2.325 0,0 -0.317,0 -0.615,0 -2.18,0 -4.42,-1.677 -5.847,-4.375 -1.451,-2.738 -1.846,-6.068 -1.381,-7.581 0.174,-0.565 0.471,-0.984 0.712,-1.322 0.379,-0.536 0.772,-1.089 0.772,-2.795 0,-1.996 -0.29,-2.894 -0.651,-4.029 -0.465,-1.449 -0.991,-3.093 -0.991,-6.707 0,-1.021 0.07,-2.008 0.208,-2.964 H 11.504 c 0,0 1.849,2.87 5.146,7.388 h 15.955 c 0.82,0.982 1.632,1.945 2.435,2.887 H 18.792 c 1.678,2.23 3.615,4.725 5.778,7.386 h 16.946 c 0.896,0.994 1.775,1.958 2.633,2.888 H 26.956 c 2,2.387 4.164,4.87 6.464,7.385 h 17.754 c 1.014,1.032 1.972,1.997 2.875,2.888 h -17.94 c 2.351,2.475 4.824,4.958 7.404,7.387 H 59.81 c 1.577,1.436 3.042,2.757 4.403,3.967 H 95.75 c 1.361,-1.21 2.826,-2.531 4.403,-3.967 h 16.298 c 2.579,-2.429 5.053,-4.912 7.403,-7.387 h -17.94 c 0.901,-0.891 1.861,-1.855 2.875,-2.888 h 17.754 c 2.301,-2.515 4.463,-4.998 6.464,-7.385 h -17.193 c 0.858,-0.931 1.737,-1.894 2.633,-2.888 h 16.944 c 2.164,-2.661 4.102,-5.156 5.78,-7.386 h -16.248 c 0.803,-0.941 1.615,-1.904 2.436,-2.887 z"
   id="path17"
   style="fill:url(#SVGID_1_)" />
	<path
   fill="#612c75"
   d="M 68.263,63.541 H 91.7 c -7.772,6.716 -10.998,8.799 -11.719,8.799 -0.722,0 -3.946,-2.083 -11.718,-8.799 z m 70.555,-49.288 c 2.09,-3.119 2.983,-4.834 2.983,-4.834 H 96.067 c 1.206,1.423 2.142,3.043 2.792,4.834 z M 18.162,9.419 c 0,0 0.893,1.715 2.981,4.834 h 39.961 c 0.648,-1.791 1.585,-3.411 2.792,-4.834 z"
   id="path18" />
	<path
   fill="#ffffff"
   d="m 96.595,42.247 c -1.23,2.324 -2.871,3.283 -4.034,3.283 -1.164,0 -1.712,-0.615 -2.189,-0.615 -0.479,0 -1.573,0.615 -1.573,2.188 0,1.573 1.095,1.641 1.095,2.804 0,0.82 0,1.778 0,2.325 0,0.548 -1.025,2.599 -3.419,2.599 0,0 0,-0.512 0,-0.888 0,-0.378 0.273,-0.686 0.273,-1.163 0,-0.479 -0.582,-0.855 -0.992,-0.855 -0.41,0 -0.993,0.342 -0.993,1.196 0,0.548 0.445,0.924 0.207,1.47 -0.239,0.549 -2.975,0.479 -3.488,0.514 -0.514,0.035 -0.82,-0.307 -0.82,-0.854 0,-0.547 0.142,-2.359 -0.679,-2.359 -0.821,0 -0.679,1.812 -0.679,2.359 0,0.547 -0.307,0.89 -0.82,0.854 -0.513,-0.034 -3.25,0.035 -3.488,-0.514 -0.24,-0.546 0.205,-0.922 0.205,-1.47 0,-0.854 -0.581,-1.196 -0.991,-1.196 -0.41,0 -0.992,0.376 -0.992,0.855 0,0.478 0.274,0.785 0.274,1.163 0,0.376 0,0.888 0,0.888 -2.394,0 -3.421,-2.051 -3.421,-2.599 0,-0.547 0,-1.505 0,-2.325 0,-1.163 1.096,-1.23 1.096,-2.804 0,-1.574 -1.096,-2.188 -1.574,-2.188 -0.479,0 -1.025,0.615 -2.188,0.615 -1.164,0 -2.804,-0.959 -4.035,-3.283 -1.232,-2.325 -1.506,-5.129 -1.232,-6.018 0.274,-0.889 1.573,-1.436 1.573,-4.72 0,-4.924 -1.641,-4.512 -1.641,-10.736 0,-9.301 6.389,-15.662 17.913,-15.662 11.524,0 17.912,6.361 17.912,15.662 0,6.225 -1.641,5.813 -1.641,10.736 0,3.285 1.3,3.831 1.572,4.72 0.275,0.889 -10e-4,3.693 -1.231,6.018 z M 68.394,33.494 c -1.403,0 -2.564,1.88 -2.564,3.11 0,1.23 0.274,4.343 4.583,4.343 5.506,0 7.421,-4.103 7.421,-4.103 -3.934,-0.785 -8.038,-3.35 -9.44,-3.35 z m 13.737,3.35 c 0,0 1.914,4.103 7.419,4.103 4.31,0 4.584,-3.112 4.584,-4.343 0,-1.231 -1.163,-3.11 -2.564,-3.11 -1.404,0 -5.508,2.565 -9.439,3.35 z m -4.242,5.791 c -0.548,1.3 -1.665,3.146 -0.455,3.146 0.842,0 1.475,-1.437 2.547,-1.437 1.072,0 1.704,1.437 2.547,1.437 1.21,0 0.094,-1.847 -0.455,-3.146 -0.548,-1.3 -1.477,-2.758 -2.092,-2.758 -0.615,0 -1.543,1.458 -2.092,2.758 z"
   id="path19" />
</g>
</svg>
