<?xml version="1.0" encoding="UTF-8" standalone="no"?>
<!-- Generator: Adobe Illustrator 15.1.0, SVG Export Plug-In . SVG Version: 6.00 Build 0)  -->

<svg
   version="1.1"
   id="Layer_1"
   x="0px"
   y="0px"
   width="150.00101"
   height="72.834999"
   viewBox="0 0 150.00101 72.834999"
   enable-background="new 0 0 160 78"
   xml:space="preserve"
   xmlns="http://www.w3.org/2000/svg"
   xmlns:svg="http://www.w3.org/2000/svg"><defs
   id="defs13" />
<g
   id="Layer_1_1_"
   transform="translate(-4.648,-2.726)">
</g>
<g
   id="Layer_3"
   display="none"
   transform="translate(-4.648,-2.726)">
</g>
<g
   id="g13"
   transform="translate(-4.648,-2.726)">
	<path
   d="m 142.73,13.919 c 0,0 2.354,-3.815 2.385,-3.876 0.575,-1.103 1.668,-2.547 1.048,-3.624 C 145.622,5.478 144.475,5.53 143.229,5.53 H 91.443 C 88.238,3.688 84.229,2.726 79.648,2.726 75.067,2.726 71.057,3.688 67.854,5.53 H 16.067 c -1.244,0 -2.396,-0.052 -2.937,0.889 -0.621,1.077 0.476,2.521 1.049,3.624 0.031,0.061 2.387,3.876 2.387,3.876 H 4.648 l 3.533,5.482 c 0.55,0.853 13.675,21.086 32.559,38.87 l 1.027,0.969 h 16.335 c 1.186,1.075 2.329,2.103 3.411,3.066 l 1.012,0.901 c 0,0 2.282,2 3.078,2.689 11.187,9.665 12.706,9.665 14.046,9.665 1.341,0 2.857,0 14.042,-9.665 0.8,-0.689 3.082,-2.689 3.082,-2.689 l 1.01,-0.901 c 1.078,-0.96 2.223,-1.989 3.412,-3.066 h 16.334 l 1.026,-0.969 c 18.885,-17.783 32.01,-38.017 32.562,-38.87 l 3.532,-5.482 z"
   id="path1" />
	<linearGradient
   id="SVGID_1_"
   gradientUnits="userSpaceOnUse"
   x1="11.1709"
   y1="38.561501"
   x2="148.12399"
   y2="38.561501">
		<stop
   offset="0"
   style="stop-color:#626E77"
   id="stop1" />
		<stop
   offset="0.0745"
   style="stop-color:#718089"
   id="stop2" />
		<stop
   offset="0.2241"
   style="stop-color:#99ADB9"
   id="stop3" />
		<stop
   offset="0.25"
   style="stop-color:#A0B6C2"
   id="stop4" />
		<stop
   offset="0.3999"
   style="stop-color:#B0C9D8"
   id="stop5" />
		<stop
   offset="0.5"
   style="stop-color:#B7D1E1"
   id="stop6" />
		<stop
   offset="0.6001"
   style="stop-color:#B0C9D8"
   id="stop7" />
		<stop
   offset="0.75"
   style="stop-color:#A0B6C2"
   id="stop8" />
		<stop
   offset="0.7759"
   style="stop-color:#99ADB9"
   id="stop9" />
		<stop
   offset="0.9255"
   style="stop-color:#718089"
   id="stop10" />
		<stop
   offset="1"
   style="stop-color:#626E77"
   id="stop11" />
	</linearGradient>
	<path
   fill="url(#SVGID_1_)"
   d="m 142.979,24.862 c 3.298,-4.519 5.146,-7.388 5.146,-7.388 h -48.72 c 0.138,0.957 0.207,1.944 0.207,2.964 0,3.614 -0.524,5.258 -0.989,6.707 -0.362,1.136 -0.651,2.034 -0.651,4.029 0,1.706 0.393,2.259 0.771,2.795 0.238,0.337 0.538,0.756 0.71,1.322 0.466,1.513 0.073,4.843 -1.378,7.581 -1.428,2.698 -3.668,4.375 -5.85,4.375 -0.3,0 -0.613,0 -0.613,0 0,0 0,1.636 0,2.325 v 2.325 c 0,3.334 -2.668,4.411 -7.462,4.799 -1.913,0.155 -2.523,0.121 -4.502,0.121 -1.978,0 -2.589,0.034 -4.502,-0.121 -4.794,-0.388 -7.462,-1.465 -7.462,-4.799 v -2.325 c 0,-0.689 0,-2.325 0,-2.325 0,0 -0.317,0 -0.615,0 -2.18,0 -4.42,-1.677 -5.847,-4.375 -1.451,-2.738 -1.846,-6.068 -1.381,-7.581 0.174,-0.565 0.471,-0.984 0.712,-1.322 0.379,-0.536 0.772,-1.089 0.772,-2.795 0,-1.996 -0.29,-2.894 -0.651,-4.029 -0.465,-1.449 -0.991,-3.093 -0.991,-6.707 0,-1.021 0.07,-2.008 0.208,-2.964 h -48.72 c 0,0 1.849,2.87 5.146,7.388 h 15.955 c 0.82,0.982 1.632,1.945 2.435,2.887 H 18.459 c 1.678,2.23 3.615,4.725 5.778,7.386 h 16.946 c 0.896,0.994 1.775,1.958 2.633,2.888 H 26.623 c 2,2.387 4.164,4.87 6.464,7.385 H 50.84 c 1.014,1.032 1.972,1.997 2.875,2.888 h -17.94 c 2.351,2.475 4.824,4.958 7.404,7.387 h 16.297 c 1.577,1.436 3.042,2.757 4.403,3.967 h 31.538 c 1.362,-1.21 2.827,-2.531 4.402,-3.967 h 16.299 c 2.578,-2.429 5.053,-4.912 7.403,-7.387 h -17.939 c 0.899,-0.891 1.861,-1.855 2.874,-2.888 h 17.754 c 2.299,-2.515 4.464,-4.998 6.463,-7.385 H 115.48 c 0.858,-0.931 1.737,-1.894 2.634,-2.888 h 16.943 c 2.165,-2.661 4.102,-5.156 5.78,-7.386 H 124.59 c 0.804,-0.941 1.613,-1.904 2.434,-2.887 z"
   id="path11"
   style="fill:url(#SVGID_1_)" />
	<path
   fill="#626e77"
   d="m 67.929,63.207 h 23.438 c -7.771,6.716 -10.998,8.799 -11.719,8.799 -0.723,0 -3.946,-2.083 -11.719,-8.799 z m 70.554,-49.288 c 2.093,-3.119 2.985,-4.834 2.985,-4.834 H 95.734 c 1.206,1.423 2.141,3.043 2.792,4.834 z M 17.828,9.085 c 0,0 0.893,1.715 2.981,4.834 H 60.77 c 0.648,-1.791 1.585,-3.411 2.792,-4.834 z"
   id="path12" />
	<path
   fill="#ffffff"
   d="m 96.262,41.913 c -1.23,2.324 -2.871,3.283 -4.036,3.283 -1.161,0 -1.709,-0.615 -2.188,-0.615 -0.479,0 -1.571,0.615 -1.571,2.188 0,1.573 1.092,1.641 1.092,2.804 0,0.82 0,1.778 0,2.325 0,0.548 -1.023,2.599 -3.419,2.599 0,0 0,-0.512 0,-0.888 0,-0.378 0.276,-0.686 0.276,-1.163 0,-0.479 -0.583,-0.855 -0.993,-0.855 -0.41,0 -0.992,0.342 -0.992,1.196 0,0.548 0.444,0.924 0.206,1.47 -0.241,0.549 -2.974,0.479 -3.487,0.514 -0.514,0.035 -0.82,-0.307 -0.82,-0.854 0,-0.547 0.141,-2.359 -0.68,-2.359 -0.821,0 -0.679,1.812 -0.679,2.359 0,0.547 -0.307,0.89 -0.82,0.854 -0.514,-0.034 -3.251,0.035 -3.489,-0.514 -0.24,-0.546 0.205,-0.922 0.205,-1.47 0,-0.854 -0.581,-1.196 -0.991,-1.196 -0.41,0 -0.992,0.376 -0.992,0.855 0,0.478 0.274,0.785 0.274,1.163 0,0.376 0,0.888 0,0.888 -2.394,0 -3.421,-2.051 -3.421,-2.599 0,-0.547 0,-1.505 0,-2.325 0,-1.163 1.096,-1.23 1.096,-2.804 0,-1.574 -1.096,-2.188 -1.574,-2.188 -0.479,0 -1.025,0.615 -2.188,0.615 -1.164,0 -2.804,-0.959 -4.035,-3.283 -1.232,-2.325 -1.506,-5.129 -1.232,-6.018 0.274,-0.889 1.573,-1.436 1.573,-4.72 0,-4.924 -1.641,-4.512 -1.641,-10.736 0,-9.301 6.389,-15.662 17.913,-15.662 11.522,0 17.913,6.361 17.913,15.662 0,6.225 -1.641,5.813 -1.641,10.736 0,3.285 1.299,3.831 1.571,4.72 0.277,0.889 0,3.693 -1.23,6.018 z M 68.06,33.16 c -1.403,0 -2.564,1.88 -2.564,3.11 0,1.23 0.274,4.343 4.583,4.343 5.506,0 7.421,-4.103 7.421,-4.103 -3.934,-0.785 -8.037,-3.35 -9.44,-3.35 z m 13.736,3.35 c 0,0 1.917,4.103 7.421,4.103 4.309,0 4.584,-3.112 4.584,-4.343 0,-1.231 -1.165,-3.11 -2.564,-3.11 -1.403,0 -5.508,2.565 -9.441,3.35 z m -4.24,5.791 c -0.548,1.3 -1.665,3.146 -0.455,3.146 0.842,0 1.476,-1.437 2.547,-1.437 1.072,0 1.703,1.437 2.548,1.437 1.209,0 0.093,-1.847 -0.455,-3.146 -0.548,-1.299 -1.479,-2.758 -2.093,-2.758 -0.616,0 -1.544,1.458 -2.092,2.758 z"
   id="path13" />
</g>
</svg>
