<svg xmlns="http://www.w3.org/2000/svg" xml:space="preserve" width="808.077" height="943.9" viewBox="0 0 808.077 943.9"><path d="m403.985 883.8-345.8-209.3-36.4 42.5 382.3 226.9 382.2-226.9-36.4-42.6zm0-609.7-196 227 196 116.9 196-116.9z"/><path d="M403.985 681.5 172.185 545c-23.6-16.2-33.9-34.6-31-55 1.4-22.9 26.8-52.9 76-89.9 55.6-50.4 89.3-96.1 101.4-137.2 18.8-57.3 17.8-145-3-262.9 5.9 81.6-16.8 162.3-68 242-16.2 24.3-35.4 46.5-56.9 66.2-41.4 35.3-82.2 64.8-122.3 88.4-39.2 27.2-61.3 59.6-66.1 97.4-9.3 56.4 9.8 99.8 57.1 130.2l344.6 199.8 344.7-199.8c47.4-30.4 66.4-73.8 57.1-130.1-4.7-37.9-26.8-70.3-66.1-97.5-40.1-23.6-80.9-53.1-122.3-88.3-21.6-19.7-40.7-41.9-56.9-66.2-51.2-79.7-73.9-160.4-68.1-242-20.7 118-21.7 205.7-2.8 262.9 11.9 41.1 45.7 86.8 101.3 137.2 49.2 37 74.6 66.9 76 89.9 2.9 20.4-7.4 38.8-31 55z" style="fill:#fff"/><path d="M403.985 681.5 172.185 545c-23.6-16.2-33.9-34.6-31-55 1.4-22.9 26.8-52.9 76-89.9 55.6-50.4 89.3-96.1 101.4-137.2 18.8-57.3 17.8-145-3-262.9 5.9 81.6-16.8 162.3-68 242-16.2 24.3-35.4 46.5-56.9 66.2-41.4 35.3-82.2 64.8-122.3 88.4-39.2 27.2-61.3 59.6-66.1 97.4-9.3 56.4 9.8 99.8 57.1 130.2l344.6 199.8 344.7-199.8c47.4-30.4 66.4-73.8 57.1-130.1-4.7-37.9-26.8-70.3-66.1-97.5-40.1-23.6-80.9-53.1-122.3-88.3-21.6-19.7-40.7-41.9-56.9-66.2-51.2-79.7-73.9-160.4-68.1-242-20.7 118-21.7 205.7-2.8 262.9 11.9 41.1 45.7 86.8 101.3 137.2 49.2 37 74.6 66.9 76 89.9 2.9 20.4-7.4 38.8-31 55z"/></svg>