<svg xmlns="http://www.w3.org/2000/svg" width="600" height="595.707"><radialGradient id="a" cx="0" cy="0" r="1" fx="0" fy="0" gradientTransform="translate(283.44 319.733)scale(249.54262)" gradientUnits="userSpaceOnUse" spreadMethod="pad"><stop offset="0" style="stop-color:#ebd491"/><stop offset=".7" style="stop-color:#d2bb7b"/><stop offset="1" style="stop-color:#8b723c"/></radialGradient><path d="M509.188 395.16c-17.453 15.592-40.834 36.247-71.198 49.337-111.11 47.997-242.175-2.159-292.152-111.869-29.83-65.554-25.064-140.536 11.645-206.91C194.415 58.989 267.833 0 267.833 0s-54.385 11.646-102.502 34.907C61.028 85.347 0 191.095 0 300.7c0 40.893 8.563 82.427 26.597 122.04 32.688 71.66 91.437 126.404 165.436 154.043 73.998 27.685 154.207 24.9 225.942-7.744 71.958-32.807 126.001-93.894 154.787-167.356C595.92 342.695 599.94 276.605 600 276.44c0 0-37.587 71.199-90.812 118.72" style="fill:#fff"/><path d="M447.58 466.657C324.14 520 179.821 465.436 123.857 342.636c-35.086-76.903-25.719-161.713 13.314-230.127 17.17-30.022 45.256-58.987 45.256-58.987-135.77 62.249-195.8 223.202-133.85 359.151C110.648 548.801 271.84 609.07 407.968 547c73.582-33.507 125.019-96.098 146.94-167.952 0 0-39.315 58.243-107.327 87.61" style="fill:#8b723c"/><path d="M53.983 410.173c42.994 94.355 137.93 155.323 241.891 155.323 37.93 0 74.803-8.026 109.59-23.916a265.08 265.08 0 0 0 131.244-131.348c-18.615 19.613-48.056 45.138-86.805 61.951a253.2 253.2 0 0 1-100.745 20.834c-99.18 0-189.754-58.005-230.707-147.937-34.148-74.803-29.203-160.67 13.552-235.473C139.329 96.74 148.518 84.23 156.723 74 44.155 142.935-2.085 287.15 53.983 410.173" style="fill:url(#a);stroke-width:14.892"/></svg>