<svg xmlns="http://www.w3.org/2000/svg" xml:space="preserve" width="144.632" height="68.89" style="clip-rule:evenodd;fill-rule:evenodd;stroke-linejoin:round;stroke-miterlimit:2"><path d="M114.19 6.983A24.73 24.73 0 0 0 96.968 0a24.75 24.75 0 0 0-21.745 13.056l-9.694-9.694L0 68.89l16.688-.003 21.471-21.472 13.579 13.579 8.346-8.346-6.789-6.789 6.789-6.79-6.789-6.789 12.23-12.23 5.233 5.233-6.786 6.785 6.789 6.789-7.001 7.002 8.342 8.342 7.001-7.001 5.233 5.232-7.001 7.002 9.457 9.456H103.9l-9.665-9.665 6.789-6.789-6.789-6.789 5.233-5.233 12.022 12.022-6.79 6.789 8.343 8.343 6.789-6.79 8.112 8.112 16.688-.003-28.575-28.575a24.72 24.72 0 0 0 5.627-15.596 24.73 24.73 0 0 0-7.494-17.733" style="fill-rule:nonzero"/><path d="M112.549 8.675a22.37 22.37 0 0 0-15.581-6.322 22.39 22.39 0 0 0-20.01 12.439l15.724 15.723 6.789-6.789 14.945 14.945a22.37 22.37 0 0 0 4.919-13.958 22.37 22.37 0 0 0-6.786-16.038" style="fill:#632e77;fill-rule:nonzero"/><path d="m107.812 59.223 6.788-6.788-15.132-15.132-8.344 8.344 6.789 6.788-6.789 6.788 7.255 7.255H87.49l-7.043-7.043 7.001-7-8.344-8.344-7.001 7-5.232-5.232 7-7.001-6.788-6.788 6.788-6.788-8.344-8.344-15.344 15.344 6.788 6.789-6.788 6.788 6.788 6.788-5.232 5.233-13.577-13.577-22.175 22.175H5.522L65.527 6.473 92.68 33.626l6.788-6.788 39.641 39.64h-10.465l-8.811-8.81-6.788 6.788z" style="fill:url(#a);fill-rule:nonzero"/><defs><linearGradient id="a" x1="0" x2="1" y1="0" y2="0" gradientTransform="translate(5.522 66.478)scale(133.587)" gradientUnits="userSpaceOnUse"><stop offset="0" style="stop-color:#612c75;stop-opacity:1"/><stop offset=".3" style="stop-color:#7b5190;stop-opacity:1"/><stop offset=".5" style="stop-color:#bf99c3;stop-opacity:1"/><stop offset=".7" style="stop-color:#7b5190;stop-opacity:1"/><stop offset="1" style="stop-color:#612c75;stop-opacity:1"/></linearGradient></defs></svg>