<svg xmlns="http://www.w3.org/2000/svg" width="355.894" height="300"><g transform="translate(-.053)"><path d="m48.041 300-6.125-7.222C14.586 260.465.098 220.75.053 177.948.053 79.866 79.852-.023 178.023 0c98.125-.023 177.924 79.798 177.924 177.948.047 40.448-13.162 78.541-38.07 110.123l-5.85 7.403-3.383-8.774a133.2 133.2 0 0 0-14.26-27.217l-1.371-1.988 12.385-55.164c-11.607 12.133-24.039 22.144-29.66 27.947l-3.475 3.633-3.84-3.221a157 157 0 0 0-10.328-7.794l-2.422-1.576v-2.879c.045-17.391 2.697-51.348 6.719-77.559-13.393 20.153-30.211 44.034-40.678 60.35l-2.146 3.269-3.795-1.004c-3.336-.846-6.809-1.668-10.373-2.286l-7.268-1.35-.869-3.381c-5.713-23.926-13.574-60.169-18.646-88.528-5.531 28.176-13.986 64.214-19.836 88.505l-.822 3.428-3.52.594c-4.754.893-9.414 1.966-13.803 3.292l-3.885 1.143-2.148-3.36c-9.918-15.47-26.051-43.19-39.031-66.179 3.428 30.438 5.166 71.549 4.846 86.038l-.092 2.467-1.965 1.6c-3.154 2.562-5.896 4.937-8.271 7.153l-3.75 3.68-3.746-3.748c-6.49-6.468-18.785-20.361-30.576-35.97l12.66 66.339-1.098 1.852c-5.072 8.341-9.277 17.162-12.43 26.326z"/><linearGradient id="a" x1="36.536" x2="326.178" y1="88.681" y2="255.906" gradientUnits="userSpaceOnUse"><stop offset=".1" style="stop-color:#8b723c"/><stop offset=".5" style="stop-color:#ebd491"/><stop offset=".9" style="stop-color:#8b723c"/></linearGradient><path fill="url(#a)" d="M177.979 10.718c-92.186.022-167.141 75.046-167.141 167.23 0 37.109 11.609 71.708 33.547 100.685 2.559-6.055 5.531-11.929 8.82-17.597L30.902 149.931l14.945 20.339c.32.457 27.604 35.603 40.904 50.938a62 62 0 0 1 2.881-2.492c-.32-24.863-7.588-107.814-7.68-108.798l-3.199-27.08 13.209 23.926c.412.596 33.088 59.142 49.588 85.628 2.424-.709 4.936-1.258 7.541-1.807 9.369-39.669 24.314-112.567 24.451-113.39l5.623-29.457 5.072 29.547c.092.869 13.574 74.178 22.715 113.255l.412.092a79 79 0 0 1 7.357 1.553c17.734-27.49 52.057-77.354 52.514-77.924l13.984-20.887-4.203 24.793c-.137.824-9.645 69.425-10.512 97.465 1.6 1.166 3.199 2.377 4.891 3.656 12.842-13.323 40.355-39.237 40.355-39.237l14.076-14.647-21.16 90.06c3.84 5.986 7.268 12.088 10.238 18.532 19.928-28.131 30.346-61.151 30.301-96.024-.045-78.793-54.799-144.995-128.199-162.636a167.6 167.6 0 0 0-39.027-4.618" style="fill:url(#a)"/></g></svg>