<svg xmlns="http://www.w3.org/2000/svg" width="334.368" height="267.892"><path d="M0 167.23c-.046 37.089 11.562 71.686 33.546 100.662a137.6 137.6 0 0 1 8.821-17.596L20.018 139.258l14.944 20.271c.366.479 27.605 35.604 40.951 50.937.868-.868 1.875-1.646 2.833-2.468-.274-24.863-7.54-107.86-7.632-108.798l-3.246-27.126 13.3 23.927c.366.662 33.044 59.187 49.452 85.649 2.514-.709 5.027-1.28 7.586-1.783 9.416-39.67 24.406-112.546 24.498-113.414l5.621-29.433 4.937 29.57c.182.822 13.711 74.132 22.852 113.231l.32.045c2.56.457 5.027.96 7.45 1.6 17.687-27.444 52.056-77.308 52.466-77.925l13.986-20.909-4.25 24.794c-.046.822-9.6 69.47-10.422 97.532a194 194 0 0 1 4.892 3.633c12.796-13.413 40.31-39.213 40.31-39.213l14.17-14.671-21.299 90.082a133 133 0 0 1 10.328 18.51c19.836-28.108 30.303-61.175 30.303-96.001C334.368 75.069 259.276.022 167.138 0c-6.947.022-13.803.434-20.52 1.256C64.075 11.38-.047 81.969 0 167.23"/></svg>