<svg xmlns="http://www.w3.org/2000/svg" width="648.9" height="634.622"><path fill="#fff" d="m324.22 49.544 255.73 295.06-253 251-252-248z"/><path d="M323.74.454c.819-1.27 1.76.47 2.359 1.02 98.341 117.641 196.761 235.211 295.13 352.83 9.19 11.1 18.591 22.021 27.671 33.211-55.71 55.799-111.98 111.039-167.58 166.949 2.649 20.62 8.52 41.24 20.06 58.73 5.49 8.4 12.71 15.55 20.91 21.3-106.78.25-213.561.04-320.33.11-22.03-.08-44.07.149-66.1-.11 14.319-9.181 24.22-23.82 30.71-39.28 3.859-9.21 6.62-18.869 8.58-28.65.21-1.819 1.18-4.18-.631-5.51-25.72-25.289-51.14-50.869-76.76-76.26C65.13 452.403 32.5 420.024 0 387.515c104.12-124.791 208.54-249.33 312.77-374.031 3.69-4.32 7.209-8.78 10.97-13.03m.48 49.09c-18.939 23.141-38.35 45.91-57.46 68.91-63.31 75.68-126.64 151.35-189.93 227.04-1.1.86-.94 2.239.21 2.989 27.9 27.771 55.88 55.471 83.8 83.23 6.18 5.84 11.78 12.33 18.33 17.75.2-53.8-.08-107.609.14-161.41 11.681-9.09 24.94-15.88 38.601-21.47 1.52-7.13 2.88-14.41 5.99-21.09 8.55-19.899 26.369-34.39 45.8-43.07 4.51-1.909 9.029-4 13.91-4.8 5.96 16.721 7.779 34.54 10.149 52.029 23.601-1.85 47.3-1.609 70.92-.119 2.44-17.48 4.061-35.391 10.29-52.02 16.4 4.539 31.7 13.299 43.87 25.199 11.851 11.6 19.42 27.29 21.39 43.74 13.75 5.91 27.591 12.32 39.08 22.08-.09 50.46-.06 100.92-.01 151.38 2.53-1.75 4.601-4.04 6.76-6.2 28.73-28.64 57.62-57.109 86.311-85.779 1.27-.92-.19-2.181-.74-3-71.55-85.451-143.02-170.971-214.55-256.431-11.001-12.958-21.602-26.248-32.861-38.958m-30.46 250.1c-.05 40.211.19 80.42.521 120.631.87 20.77 4.09 41.439 9.17 61.6 5.5 21.12 13.41 41.88 25.67 60.05 5.84-7.97 10.25-16.909 14.27-25.92 10.88-25.149 16.67-52.239 19.59-79.399 1.971-16.94 1.25-34 1.431-51 .109-28.621.1-57.23.25-85.84-23.192-5.512-47.683-5.292-70.902-.122"/></svg>