<svg xmlns="http://www.w3.org/2000/svg" width="600" height="84.886"><path d="M55.532 0H41.898L12.905 58.163c-.859 1.81-1.727 3.25-2.594 4.403-.25.037-.573.074-1.154.11L0 63.103v20.843h106.006V63.323s-7.024-.507-8.363-.619c-.037-.1-.185-.322-.185-.322L61.043 0ZM177.11 23.945c.758.258 1.625.941 1.625 3.286 0 2.234-.72 3.498-.969 3.747 0 0-.184.111-.656.213zM129.95.295h-9.627V21.6h11.75v41.077h-11.242v21.268h114.194V62.852l-9.416-.175c-1.514-.037-1.615-.222-1.947-.656 0 0-5.834-7.606-11.142-14.53 8.87-5.843 11.105-13.809 11.105-20.261 0-8.695-4.68-16.228-13.191-21.203-7.283-4.108-15.582-5.732-29.75-5.732zM333.572.295h-85.384v21.379h11.64c.295 0 .47.037.72.037V62.64h-11.603v21.305h93.35l8.65-38.613h-21.887l-2.123 6.702c-.757 2.455-.978 2.963-1.772 3.97V37.614h18V.295zM442.246 21.6h2.419v7.357c-3.748-3.35-4.117-3.71-8.188-7.357zM470.88.295h-38.262v17.843c-8.04-7.246-19.79-17.843-19.79-17.843h-48.573v20.982l9.84.323s1.588.073 1.911.073v40.782c-.498.11-1.154.185-2.05.222l-9.193.397v20.87h48.6V62.927l-9.305-.286c-1.218 0-2.086-.074-2.806-.148V43.92c16.8 15.184 45.36 40.966 45.36 40.966h23.253V21.673c.397-.036.83-.073 1.338-.073l9.268-.36V.295ZM549.517 0h-13.625l-28.994 58.163c-.867 1.81-1.735 3.25-2.556 4.403-.296.037-.62.074-1.154.11l-9.166.426v20.843H600V63.323s-7.034-.507-8.326-.619a13 13 0 0 1-.222-.322L555.037 0Z" style="fill:gray"/><path d="m537.11 31.015-9.728 19.293h20.732zm10.1 43.339v-2.086c8.695-.111 11.002-.757 11.002-3.286 0-1.044-.507-2.197-1.55-4.071l-6.388-10.819H525.47l-4.837 9.702c-.896 1.8-1.292 2.806-1.292 3.858 0 3.203 2.806 4.505 9.59 4.616h1.256v2.086h-26.576v-2.086c3.97-.185 5.88-.942 7.828-3.102 1.265-1.624 2.668-3.784 4.08-6.71l26.317-52.828h7.68l33.61 57.554c2.556 4.43 3.313 4.901 7.282 5.086v2.086zM391.873 22.542h-.249v41.713c0 5.954 2.705 7.717 12.148 8.013v2.086h-29.391v-2.086c4.228-.185 7.034-1.053 9.055-2.64 1.551-1.219 2.059-2.557 2.059-4.717.138-.36.138-1.053.138-1.985V17.17l-2.557-2.27c-1.55-1.413-3.065-2.271-4.615-2.53-1.154-.286-1.662-.286-4.579-.396v-2.05h35.262l44.861 40.385h.249V19.69c0-3.388-.397-4.505-1.8-5.622-1.772-1.338-4.588-2.095-8.446-2.095h-1.763v-2.05h28.634v2.05c-7.791.295-10.607 2.095-10.607 6.784v56.539h-9.987zM258.535 74.354v-2.086h2.954c3.573 0 5.88-.656 7.283-2.059 1.154-1.043 1.403-2.381 1.403-5.658V19.8c0-3.388-.248-4.615-1.403-5.658-1.661-1.588-3.71-2.059-8.944-2.059h-2.05v-2.16h75.794v18.065h-2.963c-1.403-9.305-8.04-14.206-19.394-14.206h-15.11v26.067h2.704c8.548 0 12.766-4.329 13.81-14.03h2.926V57.48h-2.927c-.545-5.446-1.8-8.585-4.763-11.105-2.16-2.095-4.578-2.741-9.046-2.741h-2.704V64.91c0 5.187.904 6.055 6.775 6.055h6.785c7.283 0 10.347-.572 14.815-2.557 3.065-1.412 5.63-3.286 7.43-5.483 2.308-2.704 2.918-3.932 4.22-8.003h2.815l-4.367 19.43zM171.85 41.289c6.526 0 10.21-1.043 12.803-3.6 2.271-2.344 3.674-6.101 3.674-10.458 0-6.85-3.96-11.862-10.2-12.877-1.661-.287-3.323-.397-5.52-.397h-5.086v27.332zm-1.514 3.683h-2.815v19.579c0 3.277.36 4.615 1.514 5.658 1.412 1.403 3.572 2.059 7.283 2.059h2.963v2.086h-48.822v-2.086h2.557c3.425 0 5.88-.656 7.283-2.059 1.007-1.043 1.404-2.381 1.404-5.658V19.689c0-3.277-.398-4.504-1.404-5.621-1.403-1.44-3.71-2.096-7.283-2.096h-3.064V9.923h50.732c12.259 0 19.292 1.228 24.914 4.43 5.483 3.213 8.437 7.607 8.437 12.878 0 8.114-5.372 13.375-16.616 16.403l18.527 24.12c2.307 3.101 5.233 4.403 9.452 4.514v2.086H193.2ZM43.126 31.015l-9.738 19.293H54.12Zm10.099 43.339v-2.086c8.686-.111 10.993-.757 10.993-3.286 0-1.044-.545-2.197-1.55-4.071l-6.379-10.819H31.477l-4.865 9.702c-.867 1.8-1.264 2.806-1.264 3.858 0 3.203 2.815 4.505 9.59 4.616h1.265v2.086H9.628v-2.086c3.969-.185 5.88-.942 7.79-3.102 1.293-1.624 2.705-3.784 4.108-6.71L47.852 9.627h7.643l33.637 57.554c2.53 4.43 3.323 4.901 7.283 5.086v2.086z"/></svg>