<svg xmlns="http://www.w3.org/2000/svg" width="343.938" height="207.313"><path d="M171.969 0 158.25 26.188c-7.272.287-25.361 12.929-26.812 29.687-6.46.278-17.813 11.057-17.813 25.531v31.875c-7.028-2.955-13.779-4.703-20.219-5.437L76.5 68.594l-16.562 39.25v6.312C49.59 119.682 40.704 128.333 33.468 139L17.063 97.156 0 139.594v67.719h33.594V185.25c0-23.626 12.102-38.025 26.344-41.594l16.562 22.25 16.906-22.25v-17.125c29.834 3.11 45.654 22.168 51.563 45.875-23.8 8.575-25.938 34.906-25.938 34.906h105.875s-2.137-26.331-25.937-34.906c5.909-23.707 21.729-42.765 51.562-45.875v17.125l16.906 22.25L284 143.656c14.241 3.569 26.344 17.968 26.344 41.594v22.063h33.594v-67.72l-17.063-42.437L310.469 139c-7.236-10.667-16.122-19.318-26.469-24.844v-6.312l-16.562-39.25-16.907 39.25c-6.44.734-13.19 2.482-20.219 5.437V81.406c0-14.474-11.353-25.253-17.812-25.531-1.451-16.758-19.54-29.4-26.812-29.687zm0 70.875c17.058 0 30.875 13.817 30.875 30.875s-13.817 30.875-30.875 30.875c-17.059 0-30.875-13.817-30.875-30.875s13.816-30.875 30.875-30.875"/></svg>