<svg xmlns="http://www.w3.org/2000/svg" width="600" height="581.329"><radialGradient id="a" cx="0" cy="0" r="1" fx="0" fy="0" gradientTransform="matrix(17.86635 0 0 -17.86635 219.498 34.886)" gradientUnits="userSpaceOnUse" spreadMethod="pad"><stop offset="0" style="stop-color:#ebd491"/><stop offset=".7" style="stop-color:#d2bb7b"/><stop offset="1" style="stop-color:#8b723c"/></radialGradient><path d="M7.209 142.327c-1.294 13.85-5.218 55.416-5.218 55.416C1.817 199.443 0 221.985 0 255.37c0 29.401 1.424 67.101 6.642 106.385C22.6 481.772 65.299 554.382 133.476 577.432c23.05 7.717 74.034 8.618 103.159-42.293l3.067-5.464c11.176-19.46 23.776-41.61 36.217-59.326 13.051-18.56 20.827-24.91 24.068-26.96 3.24 2.05 11.016 8.4 24.067 26.96 12.499 17.716 25.1 39.865 36.276 59.326l3.066 5.464c29.067 50.911 80.11 49.952 102.985 42.35 68.351-23.107 110.993-95.717 126.95-215.735 5.843-43.95 6.86-86.067 6.642-113.652l-4.49-119s-.902 1.017-.96 1.075c-1.25-1.875-7.5-11.35-7.5-11.35C583.842 114 506.233 0 302.139 0h-6.526C91.518 0 13.909 114.001 10.74 118.826Z" style="fill:#fff"/><path d="M465.989 383.322c40.417 0 56.942-15.551 57.45-33.21.8-23.616-26.915-50.3-64.034-50.3-58.643 0-101.342 69.325-101.342 69.325 22.6 8.619 66.36 14.185 78.859 14.185zm-295.729 0c12.557 0 56.318-5.566 78.86-14.185 0 0-42.7-69.325-101.343-69.325-37.06 0-64.776 26.684-64.035 50.3.566 17.659 17.033 33.21 57.451 33.21zM299.187 27.657c-191.537 0-261.763 106.444-261.763 106.444s21.277 48.934 100.02 53.193c0 0 63.874-63.875 163.909-63.875h2.267c100.034 0 163.895 63.875 163.895 63.875 78.684-4.259 99.976-53.193 99.976-53.193S497.265 27.657 305.727 27.657zm6.7 225.604c225.619 0 268.187-53.192 268.187-53.192s25.492 304.346-112.794 351.188c0 0-44.69 14.868-70.226-29.808-25.55-44.677-59.617-106.444-87.26-106.444h-.348c-27.643 0-61.71 61.767-87.26 106.444-25.535 44.676-70.226 29.808-70.226 29.808C7.616 504.415 33.166 200.069 33.166 200.069s42.568 53.192 268.187 53.192z" style="fill:#8b723c"/><path d="M219.195 52.43c-11.297 0-16.355-5.551-17.363-6.821.457-.742 2.051-2.757 6.031-3.047.926.844 5.16 4.376 11.481 4.376h.156c6.32 0 10.555-3.532 11.48-4.376 3.981.29 5.571 2.305 6.028 3.047-1.008 1.27-6.063 6.821-17.363 6.821zm.461-15.524h-.312c-11.465 0-16.211 2.004-17.969 3.129-.191-4.211-.367-19.914 7.449-22.558.004 0 .43-.137 1.024-.137.937 0 2.242.336 3.16 1.937l.215.379c2.336 4.09 4.277 7.223 6.289 7.223 1.992 0 3.937-3.141 6.273-7.246l.207-.356c.914-1.601 2.223-1.937 3.16-1.937.594 0 1.02.137 1.02.137 7.82 2.644 7.64 18.347 7.449 22.558-1.762-1.125-6.504-3.129-17.965-3.129m3.395-7.937-.621.234.347.567c.129.207 3.145 5.035 7.442 5.035 1.5 0 2.918-.578 3.894-1.582.711-.739 1.09-1.606 1.063-2.446-.02-.664-.406-2.82-4.504-2.82h-2c-.906 0-3.973.383-5.621 1.012m-19.231 1.808c-.027.84.352 1.707 1.067 2.446.972 1.004 2.39 1.582 3.89 1.582 4.293 0 7.317-4.828 7.446-5.035l.343-.567-.621-.234c-1.644-.629-4.715-1.012-5.621-1.012h-2c-4.097 0-4.48 2.156-4.504 2.82" style="fill:url(#a)" transform="matrix(14.53353 0 0 -14.53353 -2886.49 797.644)"/></svg>