<svg xmlns="http://www.w3.org/2000/svg" width="600" height="581.339"><radialGradient id="a" cx="0" cy="0" r="1" fx="0" fy="0" gradientTransform="matrix(17.86635 0 0 -17.86635 135.372 34.886)" gradientUnits="userSpaceOnUse" spreadMethod="pad"><stop offset="0" style="stop-color:#bf99c3"/><stop offset=".663" style="stop-color:#7b5190"/><stop offset="1" style="stop-color:#612c75"/></radialGradient><path d="M7.209 142.33c-1.294 13.85-5.218 55.417-5.218 55.417C1.817 199.447 0 221.989 0 255.373c0 29.402 1.424 67.103 6.642 106.388C22.6 481.78 65.3 554.39 133.478 577.442c23.05 7.718 74.036 8.619 103.161-42.293l3.067-5.465c11.118-19.46 23.777-41.61 36.218-59.327 13.051-18.56 20.827-24.91 24.068-26.96 3.241 2.05 11.017 8.4 24.068 26.96 12.499 17.717 25.1 39.866 36.218 59.327l3.125 5.465c29.068 50.912 80.052 49.952 102.986 42.351 68.295-23.108 110.995-95.72 126.953-215.74 5.843-43.95 6.802-86.068 6.642-113.654l-4.49-119.002s-.902 1.017-.96 1.075c-1.25-1.875-7.558-11.35-7.558-11.35C583.793 114.002 506.241 0 302.143 0h-6.526C91.461 0 13.91 114.003 10.74 118.828Z" style="fill:#fff"/><path d="M465.997 383.329c40.418 0 56.943-15.551 57.452-33.21.742-23.617-26.916-50.301-64.036-50.301-58.644 0-101.344 69.326-101.344 69.326 22.6 8.618 66.376 14.185 78.86 14.185zm-295.734 0c12.5 0 56.319-5.567 78.86-14.185 0 0-42.685-69.326-101.343-69.326-37.12 0-64.778 26.684-64.036 50.301.567 17.659 17.033 33.21 57.452 33.21zm128.93-355.671c-191.541 0-261.768 106.445-261.768 106.445s21.277 48.936 100.021 53.194c0 0 63.876-63.876 163.912-63.876h2.267c100.037 0 163.898 63.876 163.898 63.876 78.686-4.258 99.978-53.194 99.978-53.194S497.274 27.658 305.733 27.658zm6.7 225.608c225.622 0 268.134-53.194 268.134-53.194s25.55 304.352-112.797 351.195c0 0-44.677 14.868-70.227-29.809-25.493-44.677-59.56-106.446-87.203-106.446h-.349c-27.643 0-61.71 61.77-87.26 106.446-25.537 44.677-70.228 29.809-70.228 29.809C7.616 504.424 33.166 200.072 33.166 200.072s42.57 53.194 268.192 53.194z" style="fill:#612c75"/><path d="M135.07 52.43c-11.297 0-16.355-5.551-17.363-6.821.457-.742 2.051-2.757 6.027-3.047.93.844 5.161 4.376 11.485 4.376h.156c6.32 0 10.555-3.532 11.48-4.376 3.981.29 5.571 2.305 6.028 3.047-1.008 1.27-6.063 6.821-17.363 6.821zm.461-15.524h-.312c-11.465 0-16.207 2.004-17.969 3.129-.191-4.211-.367-19.914 7.449-22.558.004 0 .426-.137 1.024-.137.937 0 2.242.336 3.16 1.937l.215.379c2.336 4.09 4.277 7.223 6.289 7.223 1.992 0 3.937-3.141 6.273-7.246l.207-.356c.914-1.601 2.223-1.937 3.156-1.937.598 0 1.02.137 1.02.137 7.82 2.644 7.645 18.347 7.453 22.558-1.762-1.125-6.504-3.129-17.965-3.129m3.395-7.937-.621.234.347.567c.129.207 3.149 5.035 7.442 5.035 1.496 0 2.918-.578 3.89-1.582.715-.739 1.094-1.606 1.067-2.446-.02-.664-.406-2.82-4.504-2.82h-2c-.906 0-3.973.383-5.621 1.012m-19.231 1.808c-.027.84.352 1.707 1.067 2.446.972 1.004 2.39 1.582 3.89 1.582 4.293 0 7.317-4.828 7.442-5.035l.347-.567-.621-.234c-1.648-.629-4.715-1.012-5.621-1.012h-2c-4.097 0-4.48 2.156-4.504 2.82" style="fill:url(#a)" transform="matrix(14.5338 0 0 -14.5338 -1663.887 797.658)"/></svg>