<svg xmlns="http://www.w3.org/2000/svg" width="544.618" height="525.974"><path d="M434.682 355.665c40.418 0 56.942-15.551 57.451-33.21.8-23.617-26.916-50.3-64.035-50.3-58.642 0-101.342 69.325-101.342 69.325 22.6 8.618 66.36 14.185 78.859 14.185zm-295.728 0c12.557 0 56.317-5.567 78.859-14.185 0 0-42.7-69.325-101.343-69.325-37.06 0-64.776 26.683-64.034 50.3.566 17.659 17.033 33.21 57.45 33.21zM267.88 0C76.343 0 6.117 106.444 6.117 106.444s21.277 48.934 100.02 53.192c0 0 63.875-63.875 163.91-63.875h2.266c100.035 0 163.895 63.875 163.895 63.875 78.685-4.258 99.976-53.192 99.976-53.192S465.958 0 274.421 0Zm6.7 225.604c225.618 0 268.187-53.193 268.187-53.193S568.26 476.758 429.973 523.6c0 0-44.69 14.867-70.226-29.809-25.55-44.676-59.616-106.443-87.26-106.443h-.348c-27.643 0-61.71 61.767-87.26 106.443-25.535 44.676-70.225 29.809-70.225 29.809C-23.691 476.758 1.859 172.41 1.859 172.41s42.569 53.193 268.187 53.193z"/></svg>