<?xml version="1.0" encoding="UTF-8" standalone="no"?>
<!-- Generator: Adobe Illustrator 15.1.0, SVG Export Plug-In . SVG Version: 6.00 Build 0)  -->

<svg
   version="1.1"
   id="Layer_1"
   x="0px"
   y="0px"
   width="150"
   height="149.233"
   viewBox="0 0 150 149.233"
   enable-background="new 0 0 155 155"
   xml:space="preserve"
   xmlns="http://www.w3.org/2000/svg"
   xmlns:svg="http://www.w3.org/2000/svg"><defs
   id="defs3" />
<g
   id="Layer_1_1_"
   transform="translate(-2.392,-2.547)">
</g>
<g
   id="Layer_3"
   display="none"
   transform="translate(-2.392,-2.547)">
</g>
<g
   id="g3"
   transform="translate(-2.392,-2.547)">
	<path
   fill="#5d5e61"
   d="m 77.392,151.78 3.48,-5.423 c 18.116,-28.224 39.525,-31.547 43.634,-31.927 l 1.905,-0.176 c 7.119,12.517 11.314,24.514 12.344,28.763 0,0 12.248,-18.657 12.248,-51.288 0,-19.763 -4.252,-32.459 -4.252,-32.459 0,0 -1.953,14.994 -9.918,28.45 -0.33,-1.904 -0.025,-16.463 -0.025,-16.463 2.252,-22.715 10.799,-29.431 10.885,-29.496 l 4.699,-3.294 -4.671,-3.373 c -0.13,-0.096 -13.032,-9.673 -22.92,-18.063 l -3.335,-2.829 -2.639,3.487 c -0.098,0.119 -3.329,4.028 -10.337,4.028 -0.601,0 -1.192,-0.02 -1.78,-0.049 L 102.376,21.46 C 91.171,10.15 82.276,4.869 77.392,2.547 72.507,4.869 63.613,10.151 52.408,21.46 l -4.334,0.208 c -0.588,0.029 -1.18,0.049 -1.78,0.049 -7.008,0 -10.239,-3.909 -10.337,-4.028 l -2.639,-3.487 -3.335,2.829 c -9.888,8.39 -22.79,17.967 -22.92,18.063 l -4.671,3.373 4.699,3.294 c 0.086,0.065 8.633,6.781 10.885,29.496 0,0 0.305,14.559 -0.025,16.463 C 9.986,74.264 8.033,59.27 8.033,59.27 c 0,0 -4.253,12.697 -4.253,32.459 0,32.631 12.248,51.288 12.248,51.288 1.029,-4.249 5.225,-16.246 12.344,-28.763 l 1.905,0.176 c 4.108,0.38 25.518,3.703 43.634,31.927 z"
   id="path1" />
	<path
   d="M 48.271,25.802 C 39.204,35.653 28.604,50.528 22.091,70.851 19.575,45.46 9.525,38.418 9.525,38.418 c 0,0 13.022,-9.652 23.133,-18.231 0,0 4.29,5.669 13.635,5.669 0.667,-0.001 1.325,-0.022 1.978,-0.054 z m -7.448,70.556 c -3.915,4.46 -7.31,9.3 -10.166,13.954 2.502,0.231 12.609,1.654 24.544,10.024 C 55.012,107.254 45.378,99.359 40.823,96.358 Z m 17.936,18.344 c 1.875,-4.89 3.275,-10.34 3.275,-15.734 0,-8.446 -4.195,-13.194 -6.48,-15.158 -4.346,2.544 -8.313,5.828 -11.898,9.493 4.675,3.222 12.839,10.282 15.103,21.399 z m 47.753,-88.9 c 9.067,9.851 19.667,24.726 26.18,45.049 2.517,-25.391 12.566,-32.433 12.566,-32.433 0,0 -13.022,-9.652 -23.133,-18.231 0,0 -4.29,5.669 -13.635,5.669 -0.667,-0.001 -1.325,-0.022 -1.978,-0.054 z m -6.93,94.535 c 11.935,-8.37 22.042,-9.793 24.544,-10.024 -2.856,-4.654 -6.251,-9.494 -10.166,-13.954 -4.555,3 -14.189,10.895 -14.378,23.978 z m 11.546,-27.034 c -3.585,-3.665 -7.553,-6.949 -11.898,-9.493 -2.285,1.964 -6.48,6.712 -6.48,15.158 0,5.395 1.4,10.845 3.275,15.734 2.263,-11.117 10.427,-18.177 15.103,-21.399 z m -22.515,5.665 c 0,-8.755 3.801,-14.251 6.718,-17.182 -3.25,-1.481 -6.689,-2.525 -10.313,-3.018 4.46,-2.622 7.464,-7.458 7.464,-13.005 0,-8.335 -6.756,-15.091 -15.09,-15.091 -8.334,0 -15.09,6.756 -15.09,15.091 0,5.547 3.002,10.383 7.463,13.005 -3.623,0.492 -7.063,1.536 -10.313,3.018 2.917,2.931 6.718,8.427 6.718,17.182 0,8.979 -3.382,17.863 -6.795,24.545 5.952,4.868 12.176,11.512 18.017,20.61 5.841,-9.099 12.064,-15.742 18.017,-20.61 -3.414,-6.682 -6.796,-15.567 -6.796,-24.545 z"
   id="path2" />
	<path
   fill="#ffffff"
   d="m 75.323,8.783 v 37.869 c -9.632,1.035 -17.158,9.209 -17.158,19.111 0,1.354 0.15,2.672 0.418,3.948 -2.415,-3.43 -6.241,-10.757 -5.281,-21.874 0,0 -7.58,17.77 4.924,29.95 C 30.08,90.193 15.654,131.559 15.654,131.559 5.696,108.121 8.759,78.401 8.759,78.401 c 4.597,14.706 12.256,17.004 12.256,17.004 6.447,-55.2 44.92,-81.08 54.308,-86.622 z m 4.137,0 v 37.869 c 9.632,1.035 17.158,9.209 17.158,19.111 0,1.354 -0.15,2.672 -0.418,3.948 2.415,-3.43 6.241,-10.757 5.281,-21.874 0,0 7.58,17.77 -4.924,29.95 28.146,12.406 42.572,53.772 42.572,53.772 9.958,-23.438 6.895,-53.158 6.895,-53.158 -4.597,14.706 -12.256,17.004 -12.256,17.004 C 127.321,40.205 88.849,14.325 79.46,8.783 Z"
   id="path3" />
</g>
</svg>
