<?xml version="1.0" encoding="UTF-8" standalone="no"?>
<!-- Generator: Adobe Illustrator 15.1.0, SVG Export Plug-In . SVG Version: 6.00 Build 0)  -->

<svg
   version="1.1"
   id="Layer_1"
   x="0px"
   y="0px"
   width="149.99899"
   height="149.233"
   viewBox="0 0 149.99899 149.233"
   enable-background="new 0 0 155 155"
   xml:space="preserve"
   xmlns="http://www.w3.org/2000/svg"
   xmlns:svg="http://www.w3.org/2000/svg"><defs
   id="defs17" />
<g
   id="Layer_1_1_"
   transform="translate(-2.663,-3.087)">
</g>
<g
   id="Layer_3"
   display="none"
   transform="translate(-2.663,-3.087)">
</g>
<g
   id="g17"
   transform="translate(-2.663,-3.087)">
	<path
   d="m 77.662,152.32 3.48,-5.423 c 18.117,-28.224 39.525,-31.547 43.635,-31.927 l 1.904,-0.176 c 7.119,12.517 11.314,24.514 12.344,28.763 0,0 12.248,-18.657 12.248,-51.288 0,-19.763 -4.252,-32.459 -4.252,-32.459 0,0 -1.953,14.994 -9.918,28.45 -0.33,-1.904 -0.025,-16.463 -0.025,-16.463 2.252,-22.715 10.799,-29.431 10.885,-29.496 l 4.699,-3.294 -4.67,-3.373 c -0.131,-0.096 -13.033,-9.673 -22.92,-18.063 l -3.336,-2.829 -2.639,3.487 c -0.098,0.119 -3.328,4.028 -10.336,4.028 -0.602,0 -1.193,-0.02 -1.781,-0.049 L 102.646,22 C 91.441,10.69 82.546,5.409 77.662,3.087 72.777,5.409 63.883,10.691 52.678,22 l -4.334,0.208 c -0.588,0.029 -1.18,0.049 -1.779,0.049 -7.008,0 -10.24,-3.909 -10.338,-4.028 l -2.639,-3.487 -3.334,2.829 C 20.365,25.961 7.463,35.538 7.334,35.634 l -4.671,3.373 4.699,3.294 c 0.086,0.065 8.633,6.781 10.884,29.496 0,0 0.305,14.559 -0.025,16.463 C 10.257,74.804 8.304,59.81 8.304,59.81 c 0,0 -4.253,12.697 -4.253,32.46 0,32.631 12.248,51.288 12.248,51.288 1.029,-4.249 5.224,-16.246 12.343,-28.763 l 1.906,0.176 c 4.107,0.38 25.518,3.703 43.633,31.927 z"
   id="path1" />
	<linearGradient
   id="SVGID_1_"
   gradientUnits="userSpaceOnUse"
   x1="9.7964001"
   y1="82.695297"
   x2="145.5293"
   y2="82.695297">
		<stop
   offset="0"
   style="stop-color:#8D742F"
   id="stop1" />
		<stop
   offset="0.0465"
   style="stop-color:#937A35"
   id="stop2" />
		<stop
   offset="0.1072"
   style="stop-color:#A38A45"
   id="stop3" />
		<stop
   offset="0.15"
   style="stop-color:#B39A54"
   id="stop4" />
		<stop
   offset="0.1754"
   style="stop-color:#B9A059"
   id="stop5" />
		<stop
   offset="0.2692"
   style="stop-color:#CAB068"
   id="stop6" />
		<stop
   offset="0.372"
   style="stop-color:#D4BA71"
   id="stop7" />
		<stop
   offset="0.5"
   style="stop-color:#D7BD74"
   id="stop8" />
		<stop
   offset="0.628"
   style="stop-color:#D4BA71"
   id="stop9" />
		<stop
   offset="0.7308"
   style="stop-color:#CAB068"
   id="stop10" />
		<stop
   offset="0.8246"
   style="stop-color:#B9A059"
   id="stop11" />
		<stop
   offset="0.85"
   style="stop-color:#B39A54"
   id="stop12" />
		<stop
   offset="0.8516"
   style="stop-color:#B29953"
   id="stop13" />
		<stop
   offset="0.9021"
   style="stop-color:#9E853F"
   id="stop14" />
		<stop
   offset="0.9519"
   style="stop-color:#917833"
   id="stop15" />
		<stop
   offset="1"
   style="stop-color:#8D742F"
   id="stop16" />
	</linearGradient>
	<path
   fill="url(#SVGID_1_)"
   d="M 48.543,26.342 C 39.475,36.193 28.875,51.068 22.363,71.391 19.846,46 9.796,38.958 9.796,38.958 c 0,0 13.022,-9.652 23.133,-18.231 0,0 4.289,5.669 13.635,5.669 0.666,0 1.325,-0.022 1.979,-0.054 z m -7.449,70.556 c -3.914,4.46 -7.309,9.3 -10.166,13.954 2.502,0.231 12.609,1.654 24.545,10.024 -0.19,-13.082 -9.825,-20.977 -14.379,-23.978 z m 17.935,18.344 c 1.875,-4.89 3.275,-10.34 3.275,-15.734 0,-8.446 -4.195,-13.194 -6.48,-15.158 -4.346,2.544 -8.313,5.828 -11.898,9.493 4.676,3.222 12.84,10.282 15.103,21.399 z m 47.754,-88.9 c 9.066,9.851 19.666,24.726 26.18,45.049 2.516,-25.391 12.566,-32.433 12.566,-32.433 0,0 -13.023,-9.652 -23.133,-18.231 0,0 -4.291,5.669 -13.635,5.669 -0.667,0 -1.325,-0.022 -1.978,-0.054 z m -6.929,94.535 c 11.934,-8.37 22.041,-9.793 24.543,-10.024 -2.855,-4.654 -6.25,-9.494 -10.166,-13.954 -4.555,3 -14.188,10.895 -14.377,23.978 z m 11.544,-27.034 c -3.584,-3.665 -7.553,-6.949 -11.898,-9.493 -2.285,1.964 -6.48,6.712 -6.48,15.158 0,5.395 1.4,10.845 3.275,15.734 2.264,-11.117 10.428,-18.177 15.103,-21.399 z m -22.513,5.665 c 0,-8.755 3.801,-14.251 6.717,-17.182 -3.25,-1.481 -6.689,-2.525 -10.313,-3.018 4.459,-2.622 7.463,-7.458 7.463,-13.005 0,-8.335 -6.756,-15.091 -15.09,-15.091 -8.334,0 -15.09,6.756 -15.09,15.091 0,5.547 3.002,10.383 7.463,13.005 -3.623,0.492 -7.063,1.536 -10.313,3.018 2.918,2.931 6.719,8.427 6.719,17.182 0,8.979 -3.383,17.863 -6.795,24.545 5.951,4.868 12.176,11.512 18.016,20.61 5.842,-9.099 12.064,-15.742 18.018,-20.61 -3.414,-6.682 -6.795,-15.567 -6.795,-24.545 z"
   id="path16"
   style="fill:url(#SVGID_1_)" />
	<path
   fill="#ffffff"
   d="m 75.594,9.323 v 37.869 c -9.631,1.035 -17.158,9.209 -17.158,19.111 0,1.354 0.15,2.672 0.418,3.948 -2.414,-3.43 -6.24,-10.757 -5.281,-21.874 0,0 -7.58,17.77 4.924,29.95 C 30.351,90.733 15.925,132.099 15.925,132.099 5.966,108.662 9.03,78.942 9.03,78.942 13.627,93.648 21.285,95.946 21.285,95.946 27.732,40.745 66.205,14.865 75.594,9.323 Z m 4.136,0 v 37.869 c 9.633,1.035 17.158,9.209 17.158,19.111 0,1.354 -0.15,2.672 -0.418,3.948 2.416,-3.43 6.242,-10.757 5.281,-21.874 0,0 7.58,17.77 -4.924,29.95 28.146,12.406 42.572,53.772 42.572,53.772 9.959,-23.438 6.895,-53.158 6.895,-53.158 -4.596,14.706 -12.256,17.004 -12.256,17.004 C 127.592,40.745 89.119,14.865 79.73,9.323 Z"
   id="path17" />
</g>
</svg>
