<?xml version="1.0" encoding="UTF-8" standalone="no"?>
<!-- Generator: Adobe Illustrator 15.1.0, SVG Export Plug-In . SVG Version: 6.00 Build 0)  -->

<svg
   version="1.1"
   id="Layer_1"
   x="0px"
   y="0px"
   width="150"
   height="149.233"
   viewBox="0 0 150 149.233"
   enable-background="new 0 0 155 155"
   xml:space="preserve"
   xmlns="http://www.w3.org/2000/svg"
   xmlns:svg="http://www.w3.org/2000/svg"><defs
   id="defs18" />
<g
   id="Layer_1_1_"
   transform="translate(-2.996,-3.087)">
</g>
<g
   id="Layer_3"
   display="none"
   transform="translate(-2.996,-3.087)">
</g>
<g
   id="g18"
   transform="translate(-2.996,-3.087)">
	<path
   d="m 77.996,152.32 3.48,-5.423 C 99.592,118.673 121.001,115.35 125.11,114.97 l 1.905,-0.176 c 7.119,12.517 11.314,24.514 12.344,28.763 0,0 12.248,-18.657 12.248,-51.288 0,-19.763 -4.252,-32.459 -4.252,-32.459 0,0 -1.953,14.994 -9.918,28.45 -0.33,-1.904 -0.025,-16.463 -0.025,-16.463 2.252,-22.715 10.799,-29.431 10.885,-29.496 l 4.699,-3.294 -4.671,-3.373 c -0.13,-0.096 -13.032,-9.673 -22.92,-18.063 l -3.335,-2.829 -2.639,3.487 c -0.098,0.119 -3.329,4.028 -10.337,4.028 -0.601,0 -1.192,-0.02 -1.78,-0.049 L 102.98,22 C 91.775,10.69 82.88,5.409 77.996,3.087 73.111,5.409 64.217,10.691 53.012,22 l -4.334,0.208 c -0.588,0.029 -1.18,0.049 -1.78,0.049 -7.008,0 -10.239,-3.909 -10.337,-4.028 l -2.639,-3.487 -3.335,2.829 c -9.888,8.39 -22.79,17.967 -22.92,18.063 l -4.671,3.373 4.699,3.294 c 0.086,0.065 8.633,6.781 10.885,29.496 0,0 0.305,14.559 -0.025,16.463 C 10.59,74.804 8.637,59.81 8.637,59.81 c 0,0 -4.252,12.697 -4.252,32.46 0,32.631 12.248,51.288 12.248,51.288 1.029,-4.249 5.225,-16.246 12.344,-28.763 l 1.905,0.176 c 4.108,0.38 25.518,3.703 43.634,31.927 z"
   id="path1" />
	<linearGradient
   id="SVGID_1_"
   gradientUnits="userSpaceOnUse"
   x1="10.1299"
   y1="82.695297"
   x2="145.8623"
   y2="82.695297">
		<stop
   offset="0"
   style="stop-color:#626E77"
   id="stop1" />
		<stop
   offset="0.0035"
   style="stop-color:#647079"
   id="stop2" />
		<stop
   offset="0.0676"
   style="stop-color:#8496A1"
   id="stop3" />
		<stop
   offset="0.1187"
   style="stop-color:#99ADB9"
   id="stop4" />
		<stop
   offset="0.15"
   style="stop-color:#A0B6C2"
   id="stop5" />
		<stop
   offset="0.1547"
   style="stop-color:#A1B7C3"
   id="stop6" />
		<stop
   offset="0.2545"
   style="stop-color:#ADC6D4"
   id="stop7" />
		<stop
   offset="0.3638"
   style="stop-color:#B5CEDE"
   id="stop8" />
		<stop
   offset="0.5"
   style="stop-color:#B7D1E1"
   id="stop9" />
		<stop
   offset="0.6362"
   style="stop-color:#B5CEDE"
   id="stop10" />
		<stop
   offset="0.7455"
   style="stop-color:#ADC6D4"
   id="stop11" />
		<stop
   offset="0.8453"
   style="stop-color:#A1B7C3"
   id="stop12" />
		<stop
   offset="0.85"
   style="stop-color:#A0B6C2"
   id="stop13" />
		<stop
   offset="0.8813"
   style="stop-color:#99ADB9"
   id="stop14" />
		<stop
   offset="0.9324"
   style="stop-color:#8496A1"
   id="stop15" />
		<stop
   offset="0.9965"
   style="stop-color:#647079"
   id="stop16" />
		<stop
   offset="1"
   style="stop-color:#626E77"
   id="stop17" />
	</linearGradient>
	<path
   fill="url(#SVGID_1_)"
   d="M 48.876,26.342 C 39.809,36.193 29.209,51.068 22.696,71.391 20.18,46 10.13,38.958 10.13,38.958 c 0,0 13.022,-9.652 23.133,-18.231 0,0 4.29,5.669 13.635,5.669 0.666,0 1.325,-0.022 1.978,-0.054 z m -7.448,70.556 c -3.915,4.46 -7.31,9.3 -10.166,13.954 2.502,0.231 12.609,1.654 24.544,10.024 -0.19,-13.082 -9.824,-20.977 -14.378,-23.978 z m 17.935,18.344 c 1.875,-4.89 3.275,-10.34 3.275,-15.734 0,-8.446 -4.195,-13.194 -6.48,-15.158 -4.346,2.544 -8.313,5.828 -11.898,9.493 4.676,3.222 12.84,10.282 15.103,21.399 z m 47.753,-88.9 c 9.067,9.851 19.667,24.726 26.18,45.049 2.517,-25.391 12.566,-32.433 12.566,-32.433 0,0 -13.022,-9.652 -23.133,-18.231 0,0 -4.29,5.669 -13.635,5.669 -0.666,0 -1.324,-0.022 -1.978,-0.054 z m -6.929,94.535 c 11.935,-8.37 22.042,-9.793 24.544,-10.024 -2.856,-4.654 -6.251,-9.494 -10.166,-13.954 -4.555,3 -14.189,10.895 -14.378,23.978 z m 11.545,-27.034 c -3.585,-3.665 -7.553,-6.949 -11.898,-9.493 -2.285,1.964 -6.48,6.712 -6.48,15.158 0,5.395 1.4,10.845 3.275,15.734 2.264,-11.117 10.428,-18.177 15.103,-21.399 z m -22.514,5.665 c 0,-8.755 3.801,-14.251 6.718,-17.182 -3.25,-1.481 -6.689,-2.525 -10.313,-3.018 4.46,-2.622 7.464,-7.458 7.464,-13.005 0,-8.335 -6.756,-15.091 -15.09,-15.091 -8.334,0 -15.09,6.756 -15.09,15.091 0,5.547 3.002,10.383 7.463,13.005 -3.623,0.492 -7.063,1.536 -10.313,3.018 2.917,2.931 6.718,8.427 6.718,17.182 0,8.979 -3.382,17.863 -6.795,24.545 5.952,4.868 12.176,11.512 18.017,20.61 5.841,-9.099 12.064,-15.742 18.017,-20.61 -3.414,-6.682 -6.796,-15.567 -6.796,-24.545 z"
   id="path17"
   style="fill:url(#SVGID_1_)" />
	<path
   fill="#ffffff"
   d="m 75.928,9.323 v 37.869 c -9.632,1.035 -17.158,9.209 -17.158,19.111 0,1.354 0.15,2.672 0.418,3.948 -2.415,-3.43 -6.241,-10.757 -5.281,-21.874 0,0 -7.58,17.77 4.924,29.95 C 30.685,90.733 16.259,132.099 16.259,132.099 6.3,108.662 9.363,78.942 9.363,78.942 13.96,93.648 21.619,95.946 21.619,95.946 28.066,40.745 66.539,14.865 75.928,9.323 Z m 4.136,0 v 37.869 c 9.632,1.035 17.158,9.209 17.158,19.111 0,1.354 -0.15,2.672 -0.418,3.948 2.415,-3.43 6.241,-10.757 5.281,-21.874 0,0 7.58,17.77 -4.924,29.95 28.146,12.406 42.572,53.772 42.572,53.772 9.958,-23.438 6.895,-53.158 6.895,-53.158 -4.597,14.706 -12.256,17.004 -12.256,17.004 -6.446,-55.2 -44.919,-81.08 -54.308,-86.622 z"
   id="path18" />
</g>
</svg>
