<?xml version="1.0" encoding="UTF-8" standalone="no"?>
<!-- Generator: Adobe Illustrator 15.1.0, SVG Export Plug-In . SVG Version: 6.00 Build 0)  -->

<svg
   version="1.1"
   id="Layer_1"
   x="0px"
   y="0px"
   width="150.00041"
   height="146.94299"
   viewBox="0 0 150.00041 146.94299"
   enable-background="new 0 0 155 155"
   xml:space="preserve"
   xmlns="http://www.w3.org/2000/svg"
   xmlns:svg="http://www.w3.org/2000/svg"><defs
   id="defs1" />
<g
   id="Layer_1_1_"
   transform="translate(-2.0944534,-3.981)">
</g>
<g
   id="Layer_3"
   display="none"
   transform="translate(-2.0944534,-3.981)">
</g>
<path
   d="m 43.383547,18.478 c -9.845,10.695 -21.353,26.846 -28.424,48.911 -2.733,-27.567 -13.6440004,-35.213 -13.6440004,-35.213 0,0 14.1390004,-10.48 25.1160004,-19.794 0,0 4.658,6.155 14.804,6.155 0.724,-10e-4 1.439,-0.024 2.148,-0.059 z m -8.087,76.606 c -4.251,4.842 -7.937,10.097 -11.038,15.15 2.716,0.251 13.69,1.796 26.648,10.884 -0.205,-14.204 -10.665,-22.776 -15.61,-26.034 z m 19.473,19.916 c 2.036,-5.309 3.556,-11.227 3.556,-17.083 0,-9.171 -4.555,-14.326 -7.036,-16.458 -4.718,2.762 -9.026,6.328 -12.918,10.307 5.076,3.499 13.941,11.164 16.398,23.234 z M 106.61655,18.478 c 9.846,10.695 21.354,26.846 28.425,48.911 2.732,-27.567 13.644,-35.213 13.644,-35.213 0,0 -14.139,-10.48 -25.115,-19.794 0,0 -4.658,6.155 -14.805,6.155 -0.724,-10e-4 -1.439,-0.024 -2.149,-0.059 z m -7.523003,102.641 c 12.958003,-9.088 23.932003,-10.633 26.648003,-10.884 -3.102,-5.054 -6.787,-10.309 -11.037,-15.15 -4.945,3.257 -15.405003,11.829 -15.611003,26.034 z M 111.62955,91.766 c -3.893,-3.979 -8.2,-7.545 -12.919003,-10.307 -2.48,2.132 -7.035,7.287 -7.035,16.458 0,5.856 1.52,11.774 3.556,17.083 2.457,-12.07 11.320003,-19.735 16.398003,-23.234 z m -24.446003,6.151 c 0,-9.506 4.127,-15.473 7.294,-18.655 -3.529,-1.608 -7.264,-2.741 -11.197,-3.276 4.842,-2.847 8.104,-8.098 8.104,-14.119 0,-9.05 -7.336,-16.385 -16.384,-16.385 -9.048,0 -16.384,7.335 -16.384,16.385 0,6.021 3.259,11.272 8.103,14.119 -3.934,0.535 -7.669,1.668 -11.197,3.276 3.167,3.183 7.294,9.149 7.294,18.655 0,9.748 -3.672,19.395 -7.378,26.649 6.463,5.285 13.22,12.498 19.562,22.377 6.342,-9.879 13.099,-17.092 19.562,-22.377 -3.707,-7.254 -7.379,-16.901 -7.379,-26.649 z M 72.754547,0 v 41.116 c -10.458,1.124 -18.629,9.999 -18.629,20.75 0,1.47 0.163,2.9 0.454,4.286 -2.622,-3.724 -6.776,-11.679 -5.734,-23.75 0,0 -8.23,19.293 5.346,32.518 -30.56,13.47 -46.2230004,58.383 -46.2230004,58.383 C -2.8434534,107.855 0.48254662,75.587 0.48254662,75.587 5.4735466,91.554 13.789547,94.049 13.789547,94.049 c 7,-59.933 48.771,-88.031 58.965,-94.049 z m 4.491,0 v 41.116 c 10.458,1.124 18.63,9.999 18.63,20.75 0,1.47 -0.163,2.9 -0.454,4.286 2.623,-3.724 6.777003,-11.679 5.734003,-23.75 0,0 8.23,19.293 -5.346003,32.518 30.560003,13.47 46.223003,58.383 46.223003,58.383 10.812,-25.448 7.485,-57.716 7.485,-57.716 -4.991,15.967 -13.307,18.462 -13.307,18.462 C 129.21055,34.116 87.439547,6.018 77.245547,0 Z"
   id="path1" />
</svg>
