<?xml version="1.0" encoding="UTF-8"?>
<svg id="Layer_2" xmlns="http://www.w3.org/2000/svg" xmlns:xlink="http://www.w3.org/1999/xlink" viewBox="0 0 595.28 595.28">
  <defs>
    <style>
      .cls-1 {
        fill: #fff;
      }

      .cls-1, .cls-2 {
        fill-rule: evenodd;
      }

      .cls-3 {
        fill: none;
      }

      .cls-2 {
        fill: url(#radial-gradient);
      }
    </style>
    <radialGradient id="radial-gradient" cx="0" cy="718.58" fx="0" fy="718.58" r="1" gradientTransform="translate(-1394.7 192743.74) rotate(.5) scale(267.8 -267.8)" gradientUnits="userSpaceOnUse">
      <stop offset="0" stop-color="#bf99c3"/>
      <stop offset=".36" stop-color="#bf99c3"/>
      <stop offset=".4" stop-color="#bf99c3"/>
      <stop offset=".48" stop-color="#b790bc"/>
      <stop offset=".6" stop-color="#a277ab"/>
      <stop offset=".81" stop-color="#80508f"/>
      <stop offset="1" stop-color="#612c75"/>
    </radialGradient>
  </defs>
  <g id="Layer_1-2" data-name="Layer_1">
    <g id="R">
      <rect class="cls-3" width="595.28" height="595.28"/>
      <path class="cls-1" d="M9.26,233.22s138.37-50.13,176-50.75c0,0,50.11-75.21,112.38-160.79,0,0,96.13,120.04,102.85,152.34,0,0,179.15,54.18,186.43,58.94,0,0-93.82,140.88-112.61,144.17,0,0,5.05,188.97,3.68,196.31,0,0-149.01-39.89-173.31-63.27,0,0-96.26,37.22-185.07,64.39,0,0-4.73-162.26,7.28-184.75,0,0-109.26-140.36-117.62-156.58Z"/>
      <path class="cls-2" d="M134.04,366.39l-92.27-123.22s122.28-45.12,166.46-42.64c0,0,93.3-6.11,120.16,82.35,0,0-4.79-90-118.37-100.72l88.07-125.84s71.98,94.76,87.52,133.45c15.54,38.68,12.36,78.32,7.93,90.05,0,0-7.04,38.52-44.94,62.87,0,0,85.56-34.09,59.56-144.54l146.38,45.92s-82.53,115.46-109.45,131.49c0,0-70.91,61.46-146.36,4.1,0,0,59.2,73.61,155.61,12.55l2.14,154.78s-74.7-23.49-122.54-43.49c-47.85-20-74.37-55.57-83-75.17-8.63-19.61-14.49-55.08-1.73-84.49,0,0-51.28,78.63,35.24,152.43l-144.85,49.76s-2.54-59.42,3.79-136.96c6.33-77.54,67.06-130.41,122.06-124.07,0,0-83.01-25.77-131.39,81.38Z"/>
    </g>
  </g>
</svg>