<svg xmlns="http://www.w3.org/2000/svg" width="655.277" height="325.901"><path d="M344.328.01c-25.428-.538-48.97 20.226-68.563 53.776A116.4 116.4 0 0 0 237.38 71.29C161.195 32.307 117.586 17.721 99.14 36.897c-16.745 17.408 17.768 63.5 86.608 106.22a48 48 0 0 0-12.123-1.619 47.97 47.97 0 0 0-47.04 38.606C38.579 212.895-16.047 240.556 4.226 269.09c20.555 28.935 117.065 14.542 217.554-20.17a116 116 0 0 0 3.98 3.707c2.166 39.868 15.955 66.884 42.942 72.291 35.455 7.104 52.347-26.023 58.138-44.326a116.4 116.4 0 0 0 24.102-7.676 67.25 67.25 0 0 0 50.732 23.233 67.25 67.25 0 0 0 51.028-23.488c52.949 16.117 92.537 26.461 118.068 16.068 27.024-11.001 43.027-46.01-127.02-114.992 166.59-50.125 255.487-123.87 189.78-142.635-8.587-2.452-18.769-3.597-30.31-3.596-52.34.005-132.635 23.548-218.788 55.203a116 116 0 0 0-6.027-5.525C389.148 42.421 389.808 3.106 346.525.108a46 46 0 0 0-2.197-.098" style="fill:gray"/><path d="M342.9 9.47c-40.974.835-72.151 73.422-89.893 125.61a243 243 0 0 0-2.197 6.846c-37.242-22.55-87.903-56.886-85.836-68.187 2.319-12.673 38.033-1.86 60.332 7.064q1.838-1.593 3.74-3.11c-19.975-9.296-80.66-38.892-108.888-38.792-6.929.024-11.893 1.842-13.807 6.195-9.874 22.464 55.074 72.659 116.451 109.783-4.023 1.432-8.062 2.868-12.025 4.287a47.97 47.97 0 0 1 10.523 25.442l20.963-7.95c-11.485 59.177-11.727 134.279 30.188 138.01 18.215 1.622 32.612-11.43 43.15-32.4a116 116 0 0 1-4.431.373c-13.254 14.65-27.981 23.079-38.47 16.277-19.313-12.524-13.992-63.236-2.177-116.927 22.036 11.8 43.9 22.57 65.51 32.51a67.3 67.3 0 0 1 9.125-21.917c-21.831-10.65-43.555-22.005-61.297-31.699 23.804-9.026 46.258-17.543 70.684-26.803 65.255-24.739 176.475-63.9 193.394-57.806 16.75 6.033 21.028 33.052-126.039 83.781a118 118 0 0 1 .027 4.787 67 67 0 0 1 5.86 2.092C621.98 106.917 687.217 42.039 614.179 38.821a203 203 0 0 0-10.584-.186c-68.213.547-164.796 33.402-320.299 93.602 16.472-54.003 42.229-106.851 64.979-105.13 15.244 1.155 17.716 18.486 15.977 40.1a116 116 0 0 1 5.388 3.428c8.377-28.87 9.124-52.676-16.115-59.777-3.61-1.016-7.153-1.46-10.625-1.389m-22.133 57.124c-6.483 11.894-13.708 28.883-20.627 48.694 22.922-9.23 45.93-18.246 68.627-26.768a101.5 101.5 0 0 0-48-21.926m-55 6.104a101.5 101.5 0 0 0-45.76 37.15 1839 1839 0 0 0 25.374 15.803c5.935-19.219 12.776-37.087 20.386-52.953m132.61 56.709-88.854 33.4a1180 1180 0 0 0 41.729 21.688 67.25 67.25 0 0 1 50.421-22.84 67 67 0 0 1 3.541.177 101.5 101.5 0 0 0-6.837-32.425m-224.752 24.841a35.223 35.223 0 0 0-35.223 35.225 35.223 35.223 0 0 0 35.223 35.223 35.223 35.223 0 0 0 35.224-35.223 35.223 35.223 0 0 0-35.224-35.225m228.048 20.157a54.497 54.497 0 0 0-54.496 54.498 54.497 54.497 0 0 0 54.496 54.496 54.497 54.497 0 0 0 54.499-54.496 54.497 54.497 0 0 0-54.499-54.498m-275.968 16.549C46.175 222.454.339 247.617 14.478 263.08c19.56 21.392 105.564 11.772 198.766-23.567a116 116 0 0 1-4.291-5.904c-33.214 10.46-100.729 31.45-114.649 18.642-12.14-11.169-1.87-20.167 39.866-35.584a47.97 47.97 0 0 1-8.465-25.714m331.412.017a67 67 0 0 1 4.848 8.23c20.716 8.574 65.802 33.567 58.607 45.59-5.867 9.805-31.63 2.9-52.73-4.263a67.3 67.3 0 0 1-8.971 23.58c48.088 16.192 96.366 26.749 114.656 10.85 23.513-20.44-79.785-67.733-116.41-83.987m-227.512 1.877-8.515 3.201a48 48 0 0 1-6.461 18.215 101.5 101.5 0 0 0 11.056 16.666c.485-11.92 1.803-24.672 3.92-38.082m48.283 4.56c-4.361 22.413-7.195 44.726-7.537 64.85a101.5 101.5 0 0 0 33.592 5.852 101.5 101.5 0 0 0 38.393-7.672 67.25 67.25 0 0 1-7.909-31.535 67 67 0 0 1 .178-3.543c-18.138-8.55-36.837-17.66-56.717-27.951" style="fill:#000"/></svg>