<svg xmlns="http://www.w3.org/2000/svg" width="631.355" height="305.342"><path d="M330.967.007c-40.974.836-72.151 73.423-89.893 125.612a243 243 0 0 0-2.197 6.845c-37.243-22.55-87.904-56.886-85.836-68.187 2.319-12.673 38.033-1.86 60.332 7.064q1.838-1.593 3.74-3.11c-19.976-9.296-80.661-38.892-108.888-38.792-6.93.025-11.894 1.842-13.807 6.195-9.874 22.464 55.073 72.659 116.451 109.783-4.023 1.432-8.062 2.869-12.025 4.288a47.97 47.97 0 0 1 10.523 25.441l20.963-7.95c-11.485 59.177-11.727 134.279 30.188 138.01 18.214 1.622 32.612-11.43 43.15-32.4a116 116 0 0 1-4.432.373c-13.253 14.65-27.98 23.079-38.468 16.278-19.314-12.525-13.993-63.237-2.178-116.928 22.035 11.8 43.9 22.57 65.51 32.51a67.3 67.3 0 0 1 9.125-21.916c-21.832-10.652-43.555-22.006-61.297-31.7 23.803-9.026 46.258-17.543 70.683-26.802 65.256-24.74 176.475-63.901 193.395-57.807 16.75 6.033 21.028 33.052-126.04 83.781a118 118 0 0 1 .028 4.787 67 67 0 0 1 5.86 2.092C610.046 97.455 675.283 32.577 602.245 29.36a203 203 0 0 0-10.584-.186c-68.214.547-164.797 33.402-320.299 93.602 16.471-54.003 42.229-106.851 64.979-105.129 15.244 1.154 17.716 18.485 15.976 40.1a116 116 0 0 1 5.389 3.427c8.377-28.87 9.123-52.676-16.115-59.777C337.98.38 334.439-.064 330.967.007m-22.133 57.125c-6.483 11.894-13.708 28.883-20.627 48.694 22.922-9.23 45.93-18.246 68.627-26.768a101.5 101.5 0 0 0-48-21.926m-55 6.104a101.5 101.5 0 0 0-45.76 37.15 1839 1839 0 0 0 25.373 15.803c5.936-19.218 12.777-37.087 20.387-52.953m132.61 56.709-88.854 33.4a1180 1180 0 0 0 41.728 21.688 67.25 67.25 0 0 1 50.422-22.84 67 67 0 0 1 3.541.178 101.5 101.5 0 0 0-6.838-32.426M161.69 144.787a35.223 35.223 0 0 0-35.222 35.224 35.223 35.223 0 0 0 35.222 35.223 35.223 35.223 0 0 0 35.225-35.223 35.223 35.223 0 0 0-35.225-35.224m228.05 20.156a54.497 54.497 0 0 0-54.497 54.498 54.497 54.497 0 0 0 54.496 54.496 54.497 54.497 0 0 0 54.498-54.496 54.497 54.497 0 0 0-54.498-54.498m-275.97 16.549c-79.53 31.501-125.366 56.663-111.226 72.127 19.56 21.392 105.564 11.772 198.766-23.567a116 116 0 0 1-4.292-5.904c-33.213 10.46-100.728 31.45-114.648 18.642-12.14-11.169-1.87-20.167 39.865-35.583a47.97 47.97 0 0 1-8.465-25.715m331.413.017a67 67 0 0 1 4.847 8.23c20.716 8.574 65.802 33.567 58.608 45.59-5.867 9.805-31.63 2.9-52.73-4.263a67.3 67.3 0 0 1-8.972 23.58c48.088 16.192 96.367 26.749 114.657 10.85 23.513-20.44-79.786-67.733-116.41-83.987m-227.512 1.877-8.516 3.201a48 48 0 0 1-6.46 18.215 101.5 101.5 0 0 0 11.056 16.666c.484-11.92 1.802-24.672 3.92-38.082m48.283 4.56c-4.362 22.413-7.195 44.726-7.537 64.85a101.5 101.5 0 0 0 33.592 5.852 101.5 101.5 0 0 0 38.392-7.672 67.25 67.25 0 0 1-7.908-31.535 67 67 0 0 1 .178-3.543c-18.138-8.55-36.837-17.66-56.717-27.951" style="fill:#000"/></svg>