<svg xmlns="http://www.w3.org/2000/svg" xmlns:xlink="http://www.w3.org/1999/xlink" width="600" height="648.593"><linearGradient id="a" x1="0" x2="1" y1="0" y2="0" gradientTransform="matrix(33.13379 0 0 -33.13379 216.367 34.72)" gradientUnits="userSpaceOnUse" spreadMethod="pad"><stop offset="0" style="stop-color:#bf331c"/><stop offset=".4" style="stop-color:#d3641c"/><stop offset=".5" style="stop-color:#f6b91d"/><stop offset=".7" style="stop-color:#d3641c"/><stop offset="1" style="stop-color:#bf331c"/></linearGradient><linearGradient xlink:href="#a" id="b" x1="0" x2="1" y1="0" y2="0" gradientTransform="translate(36.98 326.736)scale(526.04449)" gradientUnits="userSpaceOnUse" spreadMethod="pad"/><path d="M593.65 642.243H6.35V499.975l14.686-7.812v-287.95l150.397-72.11V75.345L300 7.188l128.551 68.157v56.758l150.397 72.11v287.95l14.701 7.812z" style="stroke:#fff;stroke-width:12.7011"/><path d="M202.138 93.762v294.903L300 336.75l97.862 51.915V93.762L300 41.925Zm230.573 312.574 115.532 55.44V223.503l-115.532-55.376ZM51.74 223.503v238.273l115.533-55.44v-238.21ZM36.976 518.407v93.147h526.032v-93.147L300 378.68Z" style="fill:url(#b)"/></svg>