<svg xmlns="http://www.w3.org/2000/svg" xmlns:xlink="http://www.w3.org/1999/xlink" width="600" height="648.789"><linearGradient id="a" x1="0" x2="1" y1="0" y2="0" gradientTransform="matrix(33.13379 0 0 -33.13379 149.867 34.72)" gradientUnits="userSpaceOnUse" spreadMethod="pad"><stop offset="0" style="stop-color:#8b723c"/><stop offset=".4" style="stop-color:#d2bb7b"/><stop offset=".5" style="stop-color:#ebd491"/><stop offset=".7" style="stop-color:#d2bb7b"/><stop offset="1" style="stop-color:#8b723c"/></linearGradient><linearGradient xlink:href="#a" id="b" x1="0" x2="1" y1="0" y2="0" gradientTransform="matrix(41.41724 0 0 41.41724 354.291 532.521)" gradientUnits="userSpaceOnUse" spreadMethod="pad"/><path d="M600 648.789H0V503.444l15.003-7.98V201.287l153.65-73.67V69.63L300 0l131.331 69.631v57.986l153.65 73.67v294.177l15.019 7.98z"/><path d="M367.295 514.178v23.22L375 533.31l7.705 4.087v-23.219l-7.705-4.08Zm18.154 24.61 9.101 4.365v-18.76l-9.101-4.36zm-29.995-14.395v18.76l9.096-4.365v-18.755zm-1.163 23.22v7.333h41.416v-7.334L375 536.611Z" style="fill:url(#b)" transform="matrix(12.97578 0 0 12.97578 -4565.917 -6583.42)"/></svg>