<svg xmlns="http://www.w3.org/2000/svg" xmlns:xlink="http://www.w3.org/1999/xlink" width="234.563" height="274.594"><defs><linearGradient id="a"><stop offset="0" style="stop-color:#536e78;stop-opacity:1"/><stop offset=".1" style="stop-color:#829ba5;stop-opacity:1"/><stop offset=".5" style="stop-color:#d9eaf3;stop-opacity:1"/><stop offset=".9" style="stop-color:#829ba5;stop-opacity:1"/><stop offset="1" style="stop-color:#536e78;stop-opacity:1"/></linearGradient><linearGradient xlink:href="#a" id="b" x1="-81.743" x2="98.49" y1="296.464" y2="513.24" gradientTransform="translate(117.281 -255)" gradientUnits="userSpaceOnUse"/></defs><path d="M117.281 0c-3.895 0-6.922.723-8.187 4.031L98.188 32.688 87.906 17.594c-2.023-2.953-6.506-3.379-9.969-2.469s-5.658 3.09-5.968 6.656l-1.344 15.782-10.281-9.188c-2.67-2.38-6.859-2.866-10-1.156s-5.017 5.496-4.469 9.031l4.719 30.125A110 110 0 0 0 32.563 81C11.926 101.73 0 130.368 0 162s12.909 60.27 34.031 81c10.561 10.365 19.81 11.536 25.219.406 17.784 12.205 29.924 31.188 58.031 31.188 28.108 0 40.247-18.983 58.031-31.188 5.41 11.13 14.658 9.959 25.22-.406 21.122-20.73 34.03-49.368 34.03-81S222.637 101.73 202 81a110 110 0 0 0-18.031-14.625l4.719-30.125c.548-3.535-1.328-7.321-4.47-9.031-3.14-1.71-7.329-1.223-10 1.156l-10.28 9.188-1.344-15.782c-.31-3.566-2.507-5.746-5.969-6.656s-7.946-.484-9.969 2.469l-10.281 15.093-10.906-28.656C124.204.723 121.177 0 117.28 0" style="fill:#000;fill-opacity:1;stroke:none"/><path d="m117.281 7.156-15.656 41.157c5.08-.59 10.302-.876 15.656-.876s10.577.287 15.656.876zM80.687 22.531l-2.624 30.844a123.4 123.4 0 0 1 20.468-4.656zm73.188 0L136.031 48.72c7.125 1 13.96 2.572 20.469 4.656zM54.531 34.906l4.157 26.688c5.458-2.929 11.246-5.435 17.312-7.5zm125.5 0-21.469 19.188c6.066 2.065 11.854 4.571 17.313 7.5zm-62.75 18.844C57.496 53.75 9.031 102.215 9.031 162c0 29.892 11.63 54.442 31.219 74.031 9.795 9.795 12.893 6.054 8.625-8.656C73.357 234.665 90.21 265 117.281 265s43.924-30.335 68.407-37.625c-4.268 14.71-1.17 18.45 8.625 8.656 19.589-19.59 31.218-44.139 31.218-74.031 0-59.785-48.465-108.25-108.25-108.25m0 4.75c26.372 0 47.75 22.945 47.75 51.25 0 22.313-13.3 41.276-31.844 48.313-.058-.755-.117-1.51-.156-2.282-.95-18.937 6.807-27.888 7.75-39.094l16.625-6.374s-13.777-4.33-14.062-6.75 11-12.876 11-12.876l-18.281-.062c.086-4.61 5.468-13.906 5.468-13.906l-14.281 4.25 6.656-8.719c-6.91-.024-18.094 6.5-18.094 6.5l.594-4.219s-5.439 4-13.812 9.625c-8.374 5.625-15.801 15.108-19.781 19.656-3.98 4.549-1.714 26.158 10.562 25.47-2.493-11.395 24.079-12.631 5.375 12.468-2.857 3.834-5.203 7.562-7.156 11.188-13.256-9.107-22.063-25.042-22.063-43.188 0-28.305 21.379-51.25 47.75-51.25m-56.969 60.469c2.871 17.94 13.177 33.205 27.438 42.187-5.164 12.912-5.303 23.445-4.781 29.188-14.22-13.411-23.438-34.939-23.438-59.219 0-4.14.266-8.202.782-12.156m113.938 0c.515 3.954.781 8.016.781 12.156 0 27.167-11.545 50.897-28.719 63.656-5.848-8.918-9.89-17.716-11.906-27.781 20.547-6.73 36.194-25.222 39.844-48.031" style="fill:url(#b);fill-opacity:1;stroke:none"/></svg>