<?xml version="1.0" encoding="UTF-8" standalone="no"?>
<svg
   version="1.1"
   id="svg2"
   x="0px"
   y="0px"
   width="388.00101"
   height="328.41501"
   xmlns="http://www.w3.org/2000/svg"
   xmlns:svg="http://www.w3.org/2000/svg">
  <defs
     id="defs2" />
  <g
     id="layer1_1_"
     transform="translate(0.001,-0.55798515)">
    <path
       fill="#ffffff"
       d="m 0.001,111.333 10.978,-2.771 50.722,123.873 8.661,0.635 7.658,-11.057 -4.541,-7.289 C 49.86,176.808 46.458,128.412 64.418,85.835 77.631,54.511 105.628,26.063 136.685,12.404 156.308,3.774 171.86,0.55 193.83,0.558 c 22.827,0.008 40.806,3.977 60.413,13.334 27.563,13.155 53.565,39.119 66.477,66.372 20.229,42.701 18.146,93.453 -5.438,132.574 -2.998,4.974 -5.566,9.21 -5.566,9.21 l 8.396,11 9.192,-0.613 48.918,-125.227 11.778,1.947 v 219.817 l -167.85,-59.649 -20.588,-164.136 8.719,-2.531 47.033,53.885 c 3.297,-0.877 2.957,-24.186 -0.504,-34.605 -5.486,-16.511 -17.121,-30.051 -32.49,-37.808 -10.137,-5.118 -16.773,-6.623 -28.991,-6.573 -9.311,0.038 -12.228,0.466 -18.99,2.787 -19.918,6.836 -34.074,20.804 -41.311,40.761 -2.341,6.453 -2.662,8.836 -2.68,19.834 -0.012,7.285 0.437,13.27 1.073,14.346 l 46.62,-52.151 8.902,3.034 -20.616,163.97 -166.328,58.837 z m 9.328,203.021 147.131,-51.82 20.407,-143.025 -48.873,58.151 c 0,0 -2.814,-6.617 -5.096,-13.158 -2.5,-7.168 -2.881,-9.469 -3.061,-22.547 -0.024,-16.25 1.53,-21.131 7.816,-33.843 12.867,-26.023 41.253,-42.569 70.139,-40.886 27.272,1.589 50.813,16.964 62.94,41.963 7.229,14.902 9.398,31.487 5.629,47.529 -1.655,8.02 -6.008,20.122 -7.266,20.122 l -49.34,-57.091 19.818,143.164 147.911,51.23 c 0,0 -0.027,-185.227 -0.045,-186.633 -0.357,1.104 -43.275,115.697 -43.275,115.697 h -21.32 l -16.469,-20.864 c 0,0 2.201,-3.087 5.845,-8.09 15.512,-23.457 21.94,-44.49 21.975,-72.315 0.024,-21.686 -3.203,-36.734 -12,-55.937 C 300.838,61.207 276.896,36.591 251.836,23.941 222.897,9.333 185.479,6.51 154.331,16.585 104.508,32.697 69.423,75.984 63.67,128.436 c -3.215,29.308 4.577,60.862 21.46,86.041 1.625,2.424 1.674,2.502 5.271,7.881 L 75.806,243.21 H 54.713 L 9.245,127.687 Z"
       id="path1" />
  </g>
  <g
     id="g2"
     transform="translate(0.001,-0.55798515)">
    <path
       d="m 9.357,127.781 45.356,115.427 h 21.094 l 14.595,-20.853 -5.115,-7.646 C 76.199,201.121 69.279,184.72 65.66,168.191 63.127,156.623 62.658,133.66 64.699,121.233 73.273,69.072 111.053,27.692 161.871,14.801 c 60.82,-15.429 124.04,14.903 150.518,72.215 8.543,18.492 12.316,37.675 11.576,58.839 -0.926,26.409 -7.266,46.425 -21.639,68.313 l -5.95,8.175 16.469,20.864 h 21.32 l 43.12,-115.333 c 0,0 0.012,185.344 0,186.5 -0.631,-0.179 -147.711,-51.462 -147.711,-51.462 l -19.818,-143.164 49.457,57.137 c 1.723,-1.064 6.92,-17.417 8.1,-25.481 3.713,-25.393 -7.611,-52.938 -28.178,-68.52 -42.277,-32.037 -102.381,-12.003 -117.058,39.018 -1.836,6.381 -2.278,10.33 -2.239,19.955 0.052,12.602 1.255,18.854 5.754,29.901 l 2.403,5.899 48.872,-58.149 L 156.46,262.533 9.359,314.375 Z"
       id="path2" />
  </g>
</svg>
