<?xml version="1.0" encoding="UTF-8" standalone="no"?>
<svg
   version="1.1"
   id="svg2"
   x="0px"
   y="0px"
   width="388"
   height="328.414"
   viewBox="816 0 388 328.414"
   xmlns="http://www.w3.org/2000/svg"
   xmlns:svg="http://www.w3.org/2000/svg">
  <defs
     id="defs3" />
  <g
     id="layer1_5_"
     transform="translate(0,1.4847368e-5)">
    <path
       fill="none"
       d="m 816.002,110.774 10.978,-2.771 50.723,123.873 8.66,0.635 7.658,-11.057 -4.541,-7.289 C 865.861,176.249 862.459,127.853 880.419,85.276 893.632,53.952 921.629,25.504 952.687,11.845 972.31,3.216 987.86,-0.008 1009.831,0 c 22.827,0.008 40.806,3.977 60.413,13.334 27.563,13.155 53.565,39.119 66.477,66.372 20.229,42.701 18.146,93.452 -5.438,132.573 -2.998,4.975 -5.566,9.211 -5.566,9.211 l 8.396,11 9.192,-0.613 48.918,-125.227 11.777,1.946 v 219.818 l -167.85,-59.65 -20.588,-164.135 8.719,-2.531 47.033,53.885 c 3.297,-0.877 2.957,-24.186 -0.504,-34.605 -5.486,-16.511 -17.121,-30.051 -32.49,-37.808 -10.137,-5.118 -16.773,-6.623 -28.991,-6.573 -9.312,0.038 -12.228,0.466 -18.99,2.787 -19.918,6.836 -34.073,20.804 -41.312,40.761 -2.34,6.453 -2.661,8.836 -2.68,19.834 -0.012,7.285 0.438,13.27 1.073,14.346 l 46.62,-52.151 8.902,3.034 L 982.326,269.577 816,328.414 Z m 9.328,203.021 147.131,-51.82 20.407,-143.025 -48.873,58.15 c 0,0 -2.814,-6.617 -5.096,-13.158 -2.5,-7.168 -2.881,-9.469 -3.062,-22.547 -0.024,-16.25 1.53,-21.131 7.815,-33.843 12.867,-26.023 41.254,-42.569 70.14,-40.886 27.272,1.589 50.813,16.964 62.94,41.963 7.229,14.902 9.398,31.487 5.629,47.529 -1.655,8.02 -6.008,20.122 -7.266,20.122 l -49.34,-57.09 19.818,143.165 147.911,51.23 c 0,0 -0.027,-185.227 -0.045,-186.633 -0.357,1.104 -43.275,115.698 -43.275,115.698 h -21.32 l -16.469,-20.865 c 0,0 2.201,-3.086 5.845,-8.09 15.512,-23.457 21.94,-44.49 21.975,-72.314 0.024,-21.686 -3.203,-36.734 -12,-55.937 -11.357,-24.794 -35.299,-49.41 -60.359,-62.06 -28.939,-14.608 -66.357,-17.431 -97.505,-7.356 -49.823,16.112 -84.908,59.399 -90.661,111.851 -3.215,29.308 4.577,60.861 21.46,86.041 1.625,2.424 1.675,2.502 5.271,7.881 l -14.594,20.852 H 870.713 L 825.245,127.131 Z"
       id="path1" />
  </g>
  <g
     id="layer1_4_"
     transform="translate(0,1.4847368e-5)">
    <linearGradient
       id="path4147_5_"
       gradientUnits="userSpaceOnUse"
       x1="929.23633"
       y1="290.36911"
       x2="1127.7434"
       y2="117.2345">
      <stop
         offset="0.2"
         style="stop-color:#8b723c"
         id="stop1" />
      <stop
         offset="0.5"
         style="stop-color:#ebd491"
         id="stop2" />
      <stop
         offset="0.8"
         style="stop-color:#8b723c"
         id="stop3" />
    </linearGradient>
    <path
       fill="url(#path4147_5_)"
       stroke="#000000"
       stroke-width="7"
       stroke-miterlimit="10"
       d="m 825.358,127.222 45.355,115.426 h 21.094 l 14.596,-20.852 -5.115,-7.646 C 892.2,200.562 885.28,184.16 881.661,167.632 879.128,156.063 878.659,133.1 880.7,120.673 c 8.574,-52.161 46.354,-93.541 97.172,-106.432 60.82,-15.429 124.04,14.903 150.518,72.215 8.543,18.492 12.316,37.675 11.576,58.839 -0.926,26.409 -7.266,46.425 -21.639,68.313 l -5.95,8.174 16.469,20.865 h 21.32 l 43.12,-115.333 c 0,0 0.012,185.343 0,186.5 -0.631,-0.178 -147.711,-51.461 -147.711,-51.461 l -19.818,-143.165 49.457,57.137 c 1.723,-1.064 6.92,-17.417 8.1,-25.481 3.713,-25.393 -7.611,-52.938 -28.178,-68.52 -42.277,-32.037 -102.381,-12.003 -117.058,39.018 -1.836,6.381 -2.278,10.33 -2.239,19.955 0.053,12.602 1.255,18.854 5.754,29.901 l 2.403,5.898 48.872,-58.148 -20.407,143.025 -147.101,51.843 z"
       id="path3"
       style="fill:url(#path4147_5_)" />
  </g>
</svg>
