<?xml version="1.0" encoding="UTF-8" standalone="no"?>
<svg
   version="1.1"
   id="svg2"
   x="0px"
   y="0px"
   width="367.93332"
   height="303.57059"
   xmlns="http://www.w3.org/2000/svg"
   xmlns:svg="http://www.w3.org/2000/svg">
  <defs
     id="defs1" />
  <path
     d="m 0,116.97659 45.356,115.427 H 66.45 l 14.595,-20.853 -5.115,-7.646 c -9.088,-13.588 -16.008,-29.989 -19.627,-46.518 -2.533,-11.568 -3.002,-34.531 -0.961,-46.958 8.574,-52.161 46.354,-93.541 97.172,-106.4319998 60.82,-15.4290002 124.04,14.9029998 150.518,72.2149998 8.543,18.492 12.316,37.675 11.576,58.839 -0.926,26.409 -7.266,46.425 -21.639,68.313 l -5.95,8.175 16.469,20.864 h 21.32 l 43.12,-115.333 c 0,0 0.012,185.344 0,186.5 -0.631,-0.179 -147.711,-51.462 -147.711,-51.462 l -19.818,-143.164 49.457,57.137 c 1.723,-1.064 6.92,-17.417 8.1,-25.481 3.713,-25.393 -7.611,-52.938 -28.178,-68.52 -42.277,-32.037 -102.381,-12.003 -117.058,39.018 -1.836,6.381 -2.278,10.33 -2.239,19.955 0.052,12.602 1.255,18.854 5.754,29.901 l 2.403,5.899 48.872,-58.149 -20.407,143.025 -147.101,51.842 z"
     id="path1" />
</svg>
