<svg xmlns="http://www.w3.org/2000/svg" width="115.269" height="91.585" viewBox="0 0 115.269 91.585"><defs><radialGradient id="b" cx="56.802" cy="31.437" r="61.75" fx="56.802" fy="31.437" gradientTransform="rotate(-5.375 -161.23 41.67)scale(1 1.65107)" gradientUnits="userSpaceOnUse"><stop offset=".495" stop-color="#b7281b"/><stop offset=".523" stop-color="#bb3019"/><stop offset=".567" stop-color="#c74613"/><stop offset=".622" stop-color="#db6a0a"/><stop offset=".678" stop-color="#f49700"/></radialGradient><radialGradient id="c" cx="57.854" cy="40.206" r="41.332" fx="57.854" fy="40.206" gradientTransform="rotate(89.233 60.535 42.85)scale(1 1.13156)" gradientUnits="userSpaceOnUse"><stop offset="0" stop-color="#f49700"/><stop offset=".23" stop-color="#f29400"/><stop offset=".396" stop-color="#ed8a02"/><stop offset=".541" stop-color="#e47b06"/><stop offset=".674" stop-color="#d8640c"/><stop offset=".799" stop-color="#c84813"/><stop offset=".91" stop-color="#b7281b"/></radialGradient><linearGradient id="a" x1="57.635" x2="57.635" y1="30.203" y2="111.228" gradientUnits="userSpaceOnUse"><stop offset=".223" stop-color="#b7281b"/><stop offset=".267" stop-color="#ba2f19"/><stop offset=".331" stop-color="#c54314"/><stop offset=".408" stop-color="#d7630c"/><stop offset=".495" stop-color="#f09001"/><stop offset=".506" stop-color="#f49700"/></linearGradient></defs><path d="M101.44 12.622c-1.69-.8-3.15-1.45-4.56-2.72-1.81-1.63-3.3-3.98-3.91-6.35-5.83.59-11.76.59-17.5-.66-5.86-1.27-11.31-2.83-17.42-2.89-9.53-.09-18.08 3.76-27.48 3.97-.99.02-1.95-.08-2.92-.12-1.74-.05-3.47-.05-5.19-.31-1.01 2.93-2.82 5.76-5.45 7.48-.77.5-1.64.89-2.46 1.29-4.65 2.25-9.64 4.12-14.55 5.7 5.52 5.04 9.79 11.35 12.21 18.44 1.63 4.76 2.37 9.69 2.69 14.7v5.21l-.42 4.94c15.83 2.48 30.3 11.42 40.2 23.86l2.9 6.42c.11.09.94-1.67 1.02-1.84.69-1.42 1.33-3.4 2.08-4.69 1.21-2.05 5.32-5.97 7.2-7.68 9.18-8.3 20.7-14.18 33.01-16.07-1.51-11.89.34-24.42 6.93-34.54 2.05-3.15 4.41-5.72 7.07-8.34.18-.17.43-.15.37-.41-4.7-1.53-9.35-3.28-13.82-5.39m-60.5-6.19c7.13-1.52 12.04-3.04 19.61-2.68 5.04.24 9.91 1.88 14.81 2.89 2.04.41 4.25.64 6.24 1.1.03.01.03.16.1.17.2.05.45-.02.66.01 0 .09-.1.16-.18.18-.74.2-1.97.14-2.79.23-3.39.39-6.79.94-10.1 1.77-3.46 5.02-7.27 9.81-11.66 14.05-4.33-4.3-8.21-9.03-11.61-14.09a88 88 0 0 0-11.09-1.83c-.59-.06-1.29-.04-1.87-.1-.16-.02-.33-.02-.36-.21 2.75-.43 5.51-.91 8.24-1.49m-26.13 25.59c3.41-3.46 7.72-6.04 12.57-6.83-.2.99-.63 1.92-.9 2.89-1.77 6.32-1.48 12.99 1.72 18.79l-9.66 8.81c.06-8.02-1.19-16.07-3.73-23.66m29.37 37c-6.68-4.9-14.41-8.6-22.52-10.43-.1-.09 1.01-1.68 1.16-1.9 1.97-2.84 4.33-5.38 6.91-7.67 3.86 5.43 11.15 7.37 17.12 4.16.53 7.27 2.01 14.47 4.06 21.44-2.19-1.94-4.37-3.87-6.73-5.6m-12.83-43.92c3.09.11 5.79 1.9 8.06 3.84 4.86 4.16 8.39 9.84 11.38 15.43-3.14 5.62-10.17 8.43-15.84 4.53-2.35-1.62-4.07-4.36-5.07-7.01-2.09-5.52-.78-11.55 1.47-16.79m26.28 59.61a94 94 0 0 1-5.54-17.77c-1.09-5.29-1.77-10.69-1.9-16.1.48-.66 1.13-1.23 1.66-1.87.15-.18.76-1.22.94-1.09l4.79 10.61 5-10.56 2.6 3.02c-.52 11.59-2.91 23.15-7.55 33.76m6.92-40.33c-.02-.26 1.3-2.5 1.55-2.92 2.7-4.66 6.01-9.36 10.17-12.83 2.15-1.8 4.77-3.39 7.63-3.53 1.27 2.79 2.23 5.81 2.52 8.88.42 4.53-.88 9.51-3.91 12.96-5.45 6.24-14.17 4.24-17.96-2.56m29.05 14.21c-10.98 2.52-21.03 8.32-29.15 16.03 1.97-7.01 3.45-14.17 4.06-21.44 2.87 1.54 6.17 1.93 9.35 1.18 3.16-.75 5.81-2.83 7.78-5.34 2.67 2.44 5.27 5.21 7.26 8.25.13.2.83 1.19.7 1.32m5.15-20.5c-1.36 5.76-1.98 11.68-2.03 17.59l-9.56-8.81c-.05-.21.47-.97.6-1.25 3.01-6.6 2.71-13.74.12-20.43 4.82.75 9.24 3.35 12.58 6.84-.6 2.01-1.22 4.01-1.71 6.06m7.2-16.32c-1.39 1.81-2.75 3.8-3.6 5.92l-2.72-1.92c-5.53-3.55-12.24-6.11-18.88-4.32-8.85 2.4-17.17 16.45-20.87 24.31-.73 1.56-1.33 3.38-2.09 4.88-.05.09-.06.24-.21.25-2.29-5.97-5.32-11.74-8.97-16.99-3.72-5.34-9.12-11.92-15.98-12.86-7.16-.97-14.08 2.38-19.56 6.65-1.43-2.95-3.34-5.6-5.47-8.07 5.3-2.72 10.97-4.78 16.85-5.84 4.49-.82 9.36-1.15 13.92-.87 1.5.1 3.72.24 5.16.57.18.04.38.06.52.21 4.26 5.58 8.86 10.89 13.58 16.08 4.88-5.15 9.35-10.67 13.8-16.17 1.8-.35 3.73-.57 5.57-.69 9.1-.56 18.56 1.22 26.87 4.87 1.28.57 2.5 1.25 3.79 1.79.1.14-1.51 1.94-1.71 2.2"/><path d="M93.6 58.592c-10.98 2.52-21.03 8.32-29.15 16.03 1.97-7.01 3.45-14.17 4.06-21.44 2.87 1.54 6.17 1.93 9.35 1.18 3.16-.75 5.81-2.83 7.78-5.34 2.67 2.44 5.27 5.21 7.26 8.25.13.2.83 1.19.7 1.32m-46.75-5.41c-5.97 3.21-13.26 1.27-17.12-4.16-2.58 2.29-4.94 4.83-6.91 7.67-.15.22-1.26 1.81-1.16 1.9 8.11 1.83 15.84 5.53 22.52 10.43 2.36 1.73 4.54 3.66 6.73 5.6-2.05-6.97-3.53-14.17-4.06-21.44" style="fill:url(#a)"/><path d="M100.46 32.032c-.6 2.01-1.22 4.01-1.71 6.06-1.36 5.76-1.98 11.68-2.03 17.59l-9.56-8.81c-.05-.21.47-.97.6-1.25 3.01-6.6 2.71-13.74.12-20.43 4.82.75 9.24 3.35 12.58 6.84m-73.98-3.95c.27-.97.7-1.9.9-2.89-4.85.79-9.16 3.37-12.57 6.83 2.54 7.59 3.79 15.64 3.73 23.66l9.66-8.81c-3.2-5.8-3.49-12.47-1.72-18.79" style="fill:url(#b)"/><path d="M107.656 19.574c.101.136-1.509 1.937-1.707 2.195-1.39 1.81-2.752 3.803-3.603 5.92l-2.715-1.916c-5.53-3.554-12.243-6.112-18.88-4.32-8.85 2.394-17.167 16.446-20.867 24.305-.737 1.564-1.332 3.38-2.095 4.88-.05.097-.059.246-.21.256A80.3 80.3 0 0 0 48.607 33.9c-3.712-5.342-9.12-11.922-15.977-12.856-7.16-.976-14.076 2.376-19.559 6.643-1.428-2.943-3.337-5.593-5.467-8.061 5.292-2.724 10.967-4.783 16.848-5.848 4.493-.813 9.354-1.146 13.918-.864 1.504.093 3.724.24 5.16.566.183.042.382.058.518.21 4.26 5.58 8.86 10.889 13.584 16.079 4.874-5.15 9.35-10.667 13.803-16.17a44 44 0 0 1 5.562-.685c9.103-.562 18.562 1.216 26.879 4.87 1.278.563 2.496 1.247 3.781 1.79M75.362 6.639c-4.906-1.005-9.774-2.65-14.812-2.886-7.57-.357-12.476 1.159-19.61 2.677-2.73.582-5.486 1.06-8.244 1.49.039.188.204.195.36.212.585.062 1.282.039 1.877.1 3.724.382 7.44.983 11.083 1.827A93 93 0 0 0 57.63 24.15c4.392-4.235 8.204-9.028 11.656-14.051 3.31-.825 6.712-1.382 10.105-1.763.817-.092 2.049-.035 2.788-.232.084-.022.177-.091.178-.185-.208-.026-.461.044-.657-.003-.072-.018-.075-.166-.1-.172-1.991-.458-4.2-.69-6.238-1.106m-22.574 41.24L57.58 58.49l4.995-10.563 2.602 3.023c-.52 11.588-2.904 23.153-7.547 33.763a93.6 93.6 0 0 1-5.537-17.774c-1.09-5.29-1.773-10.69-1.904-16.094.48-.663 1.13-1.23 1.66-1.878.148-.18.766-1.216.939-1.09" style="fill:url(#c)"/></svg>