<svg xmlns="http://www.w3.org/2000/svg" width="115.262" height="91.581" viewBox="0 0 115.262 91.581"><path d="M92.965 3.552c.61 2.37 2.1 4.713 3.909 6.343 1.413 1.273 2.872 1.92 4.565 2.72 4.464 2.112 9.118 3.867 13.813 5.395.063.257-.19.235-.367.41-2.661 2.621-5.019 5.192-7.068 8.338-6.593 10.124-8.446 22.655-6.931 34.539-12.313 1.89-23.834 7.769-33.006 16.075-1.88 1.703-5.999 5.622-7.205 7.68-.754 1.288-1.387 3.267-2.075 4.69-.08.167-.911 1.921-1.025 1.836l-2.898-6.418c-9.898-12.445-24.37-21.38-40.204-23.864l.42-4.938v-5.211c-.316-5.012-1.059-9.943-2.684-14.696C9.784 29.357 5.518 23.047 0 18.01c4.91-1.585 9.9-3.449 14.542-5.706.82-.399 1.698-.789 2.46-1.287 2.63-1.719 4.44-4.55 5.45-7.48 1.721.257 3.457.26 5.194.315.97.031 1.928.134 2.915.113C39.962 3.762 48.513-.09 58.048.002c6.112.058 11.56 1.614 17.414 2.886 5.743 1.248 11.67 1.251 17.503.664m-11.37 4.189c-1.99-.458-4.199-.69-6.238-1.107-4.906-1.004-9.773-2.648-14.811-2.886-7.57-.357-12.476 1.16-19.61 2.678-2.73.581-5.487 1.059-8.245 1.49.04.188.205.195.36.211.586.063 1.283.04 1.878.1 3.724.383 7.44.984 11.082 1.827a93 93 0 0 0 11.615 14.092c4.392-4.234 8.204-9.027 11.656-14.05 3.31-.825 6.712-1.383 10.105-1.764.817-.092 2.048-.034 2.788-.231.084-.022.177-.092.178-.185-.208-.026-.462.044-.657-.004-.073-.017-.075-.166-.1-.171m26.057 11.83c-1.285-.543-2.503-1.227-3.781-1.79-8.318-3.654-17.776-5.432-26.879-4.87-1.838.113-3.77.338-5.562.684-4.454 5.503-8.929 11.021-13.804 16.17-4.723-5.19-9.323-10.5-13.583-16.078-.137-.152-.335-.169-.519-.21-1.435-.326-3.656-.473-5.16-.566-4.563-.282-9.424.05-13.917.864-5.881 1.064-11.556 3.123-16.848 5.848 2.13 2.468 4.039 5.118 5.467 8.061 5.483-4.267 12.399-7.62 19.56-6.644 6.855.935 12.263 7.515 15.975 12.857a80.3 80.3 0 0 1 8.974 16.994c.15-.01.16-.16.21-.257.762-1.5 1.358-3.315 2.094-4.88 3.7-7.859 12.017-21.91 20.868-24.303 6.637-1.794 13.35.765 18.88 4.319l2.714 1.916c.852-2.117 2.214-4.11 3.604-5.92.198-.258 1.808-2.059 1.707-2.195M31.35 25.097c-2.257 5.24-3.56 11.275-1.471 16.796.999 2.64 2.715 5.381 5.07 7.002 5.671 3.9 12.699 1.09 15.837-4.526-2.989-5.592-6.518-11.274-11.381-15.432-2.27-1.94-4.968-3.727-8.055-3.84m52.55.005c-2.864.137-5.487 1.73-7.634 3.523-4.155 3.469-7.474 8.173-10.172 12.83-.245.425-1.57 2.663-1.544 2.926 3.791 6.8 12.502 8.8 17.961 2.557 3.022-3.454 4.32-8.428 3.902-12.955-.284-3.072-1.245-6.094-2.514-8.88M18.531 55.677 28.2 46.87c-3.2-5.797-3.49-12.475-1.725-18.79.271-.97.707-1.898.906-2.89-4.854.79-9.167 3.368-12.575 6.83 2.54 7.592 3.79 15.64 3.727 23.658m78.187 0c.05-5.909.67-11.832 2.03-17.587.484-2.047 1.107-4.05 1.704-6.064-3.337-3.49-7.757-6.089-12.582-6.837 2.595 6.687 2.895 13.83-.12 20.432-.128.282-.647 1.041-.595 1.242zm-43.936-7.803c-.172-.127-.79.91-.938 1.09-.531.647-1.18 1.215-1.66 1.877.13 5.405.813 10.805 1.903 16.095a93.6 93.6 0 0 0 5.538 17.773c4.643-10.61 7.026-22.174 7.547-33.763l-2.602-3.022-4.996 10.563zM46.85 53.18c-5.972 3.209-13.26 1.272-17.125-4.162-2.576 2.29-4.938 4.83-6.904 7.667-.151.218-1.261 1.81-1.165 1.906 8.107 1.827 15.845 5.53 22.522 10.425 2.36 1.73 4.543 3.667 6.733 5.6-2.055-6.972-3.535-14.17-4.06-21.436m46.748 5.41c.126-.13-.576-1.124-.706-1.322-1.98-3.04-4.588-5.809-7.259-8.248-1.966 2.505-4.615 4.593-7.774 5.339-3.178.75-6.48.36-9.351-1.179-.61 7.272-2.09 14.432-4.06 21.436 8.123-7.704 18.165-13.512 29.15-16.025"/></svg>