<?xml version="1.0" encoding="UTF-8" standalone="no"?>
<svg
   width="3000"
   height="3000"
   viewBox="0 0 3000 3000"
   version="1.1"
   xml:space="preserve"
   style="clip-rule:evenodd;fill-rule:evenodd;stroke-linecap:round;stroke-linejoin:round;stroke-miterlimit:1.5"
   id="svg12"
   xmlns="http://www.w3.org/2000/svg"
   xmlns:svg="http://www.w3.org/2000/svg"
   xmlns:serif="http://www.serif.com/"><defs
   id="defs12" />
    <g
   transform="matrix(3,0,0,3,-12827.986,0)"
   id="g12">
        <g
   id="WM"
   transform="translate(-0.444444)">
            <rect
   x="4276.4399"
   y="0"
   width="1000"
   height="1000"
   style="fill:none"
   id="rect1" />
            <g
   id="Rings"
   transform="translate(4295.01)">
                <g
   transform="matrix(0.924534,0,0,0.933291,-49.6436,-50.6485)"
   id="g1">
                    <circle
   cx="593.06201"
   cy="655.29199"
   r="466.5"
   style="stroke:#000000;stroke-width:1.08px"
   id="circle1" />
                </g>
                <g
   transform="matrix(0.86292,0,0,0.868595,-14.0478,-8.49513)"
   id="g2">
                    <circle
   cx="593.06201"
   cy="655.29199"
   r="466.5"
   style="stroke:#000000;stroke-width:1.16px"
   id="circle2" />
                </g>
            </g>
            <g
   id="Rings1"
   serif:id="Rings"
   transform="translate(4295.01)">
                <g
   transform="matrix(0.924534,0,0,0.933291,-49.6436,-50.6485)"
   id="g3">
                    <circle
   cx="593.06201"
   cy="655.29199"
   r="466.5"
   style="stroke:#000000;stroke-width:1.08px"
   id="circle3" />
                </g>
                <g
   transform="matrix(0.86292,0,0,0.868595,-14.0478,-8.49513)"
   id="g4">
                    <circle
   cx="593.06201"
   cy="655.29199"
   r="466.5"
   style="fill:#ffffff;stroke:#000000;stroke-width:1.16px"
   id="circle4" />
                </g>
            </g>
            <g
   id="Head"
   transform="translate(4295.01)">
                <path
   d="m 745.225,677.052 c 0,0 -27.042,46.07 -59.591,74.614 0,0 23.035,53.081 -61.594,112.171 -84.63,59.09 -135.207,59.09 -193.295,14.021 0,0 -167.757,-21.019 -218.334,-168.257 0,0 -10.695,-28.65 -12.174,-41.073 0,0 -14.073,-46.809 -8.731,-123.891 0,0 1.145,-46.173 13.737,-94.253 12.592,-48.079 14.5,-59.527 22.895,-75.553 -12.185,2.15 -50.579,-67.283 -35.106,-120.962 0,0 -1.145,-9.716 11.066,-39.098 0,0 -7.632,-56.856 20.606,-96.54 0,0 8.394,-26.081 71.737,-63.343 0,0 -6.105,37.147 -3.434,60.805 0,0 3.434,32.053 25.566,27.474 0,0 24.04,-1.908 59.146,-54.185 0,0 22.132,-29.763 73.264,-33.961 0,0 28.619,3.435 39.685,11.066 0,0 38.539,-63.343 90.816,-62.579 0,0 53.804,-1.527 87.002,58.764 0,0 54.948,-6.487 91.961,23.658 0,0 32.816,22.513 46.553,66.395 0,0 66.014,27.093 79.37,95.778 0,0 10.303,45.79 -4.198,112.185 -14.5,66.396 -40.447,131.647 -67.158,171.713 0,0 33.137,67.511 4.579,103.409 -28.741,36.129 -72.273,43.737 -74.368,41.642 z"
   id="path4" />
            </g>
            <g
   id="Hair"
   transform="translate(4295.01)">
                <path
   d="m 277.17,273.13 c 0,0 -36.504,71.913 -35.774,71.913 0,0 -22.633,-17.522 -18.982,-79.214 0,0 0.607,-30.786 13.748,-47.578 0,0 -9.261,-31.103 4.565,-62.022 0,0 3.265,-16.131 21.509,-36.872 0,0 9.026,46.666 36.296,51.66 0,0 21.779,13.52 53.772,-9.411 33.223,-23.813 46.09,-53.003 54.347,-55.884 0,0 15.364,-18.436 40.329,-18.628 0,0 28.614,-3.072 52.235,24.774 0,0 20.741,-42.441 47.627,-62.414 0,0 19.396,-19.204 43.209,-13.827 0,0 29.657,0.452 61.261,59.533 0,0 59.445,-12.742 91.137,17.025 0,0 25.74,11.006 38.99,64.334 0,0 46.09,14.726 61.262,48.91 0,0 11.138,11.714 15.363,49.738 0,0 2.689,54.594 -8.258,90.836 -10.946,36.242 -18.052,58.903 -18.052,58.903 0,0 -23.224,-40.521 -73.168,-79.889 0,0 31.291,-22.469 37.052,-53.004 0,0 10.37,-47.982 -51.275,-60.877 0,0 -28.422,-5.981 -65.102,0.356 -36.68,6.338 -34.183,6.53 -34.183,6.53 0,0 -25.35,-42.427 -79.89,-75.281 0,0 -28.038,30.905 -49.354,33.593 0,0 -21.873,6.146 -29.17,0.192 l -17.668,-5.761 -13.827,-5.569 c 0,0 -25.734,-8.258 -41.097,-8.642 0,0 -29.382,-4.993 -55.116,31.303 0,0 -11.715,19.012 -37.64,45.706 0,0 -16.084,18.394 -44.146,19.567 z"
   style="fill:#ffffff"
   id="path5" />
            </g>
            <g
   id="Face"
   transform="translate(4295.01)">
                <path
   d="m 435.39,208.04 c 0,0 33.68,15.095 53.488,17.486 19.808,2.39 37.079,-2.333 37.079,-2.333 0,0 12.594,-1.078 42.259,-24.161 0,0 27.336,18.663 39.038,35.6 11.702,16.937 7.853,8.315 24.944,36.492 0,0 46.038,-15.397 81.913,-13.704 35.876,1.694 42.651,7.853 42.651,7.853 0,0 10.316,6.159 10.932,14.011 0,0 2.926,10.163 -4.157,20.017 -7.083,9.854 -10.47,12.78 -10.47,12.78 l -13.396,12.01 -34.49,22.172 16.783,9.392 c 0,0 26.945,16.013 48.502,37.569 21.556,21.557 22.788,24.79 22.788,24.79 l 14.781,21.556 10.778,17.707 -5.851,12.01 c 0,0 -30.002,-36.411 -87.764,-77.602 0,0 32.62,41.8 39.24,53.194 5.263,9.057 18.477,29.871 18.477,29.871 0,0 9.085,15.244 11.086,23.558 0,0 -50.832,-42.475 -64.515,-44.344 0,0 34.007,41.529 44.527,58.843 10.52,17.314 26.081,45.806 27.396,60.928 1.315,15.123 5.362,29.137 -7.671,45.149 -7.671,9.424 -15.561,16.437 -38.135,24.546 -22.574,8.11 -29.807,5.699 -29.807,5.699 0,0 -24.25,45.393 -55.01,74.516 -5.74,5.435 -14.465,19.726 -32.656,35.944 -18.191,16.218 -68.106,56.709 -68.106,56.709 0,0 55.226,-14.056 73.561,-28.736 0,0 5.61,10.839 -6.105,24.229 -11.716,13.389 -33.625,32.712 -55.839,44.884 -22.214,12.172 -49.144,22.213 -68.467,21.605 -19.323,-0.609 -30.278,-1.217 -32.712,-5.63 0,0 39.558,-20.388 52.339,-33.168 0,0 -36.409,16.659 -79.27,11.411 -7.455,-0.913 -54.123,-9.973 -77.152,-18.991 3.466,0.867 -26.046,-8.958 -38.613,-18.709 -12.567,-9.75 -33.368,-15.6 -64.569,-56.769 -31.202,-41.168 -41.819,-80.51 -46.585,-111.804 -4.767,-31.295 -7.801,-95.481 -0.867,-135.299 6.933,-39.817 20.367,-95.286 25.134,-106.337 4.767,-11.05 25.785,-77.452 43.335,-102.487 0,0 26.435,-7.701 41.819,-22.435 15.384,-14.733 19.284,-17.984 31.634,-33.584 12.351,-15.601 11.484,-16.901 11.484,-16.901 l 7.367,-9.317 6.934,-6.717 c 0,0 13.24,-12.639 41.938,-3.503 z"
   style="fill:#ffffff"
   id="path6" />
            </g>
            <g
   id="Eyes--Nose--Brows"
   serif:id="Eyes, Nose, Brows"
   transform="translate(4295.01)">
                <g
   transform="matrix(1.04616,0.094697,-0.10241,1.13138,12.5606,-69.5428)"
   id="g6">
                    <ellipse
   cx="339.27301"
   cy="402.84399"
   rx="21.107"
   ry="34.525002"
   id="ellipse6" />
                </g>
                <path
   d="m 288.492,360.459 c 0,0 -0.953,-10.288 21.337,-28.957 22.289,-18.67 33.91,-16.193 33.91,-16.193 0,0 10.097,-2.667 13.145,7.429 3.048,10.097 -3.81,18.099 -3.81,18.099 l -8.192,7.81 -8.763,3.62 -5.906,0.953 c 0,0 -30.672,1.333 -36.577,9.525 0,0 -5.546,1.373 -5.144,-2.286 z"
   id="path7" />
                <path
   d="m 390.429,507.433 c 0,0 14.836,17.518 29.852,27.349 l -24.668,25.919 c 0,0 -18.233,-15.194 -27.529,-31.639 -9.295,-16.445 -7.507,-15.015 -7.507,-15.015 0,0 -3.358,-7.852 -1.251,-15.016 0.893,-3.038 27.391,-27.654 43.917,-48.423 16.525,-20.77 22.363,-45.144 26.931,-55.288 4.569,-10.145 4.442,-9.383 6.473,-10.399 2.03,-1.015 3.414,3.028 3.358,3.911 -0.055,0.882 2.405,21.919 -1.971,35.237 -4.376,13.319 -5.898,17.885 -15.031,36.15 -9.132,18.265 -23.671,38.3 -32.574,47.214 z"
   id="path8" />
                <path
   d="m 552.993,324.863 c 0,0 -2.88,-12.872 19.138,-40.479 0,0 31.673,16.259 48.102,53.351 16.429,37.092 5.928,43.867 5.928,43.867 0,0 -16.947,-26.038 -38.282,-38.62 -21.335,-12.582 -25.462,-15.085 -34.886,-18.119 z"
   id="path9" />
                <path
   d="m 512.069,418.274 c 0,0 9.783,-18.859 38.347,-22.59 4.187,-0.547 13.948,-0.557 13.948,-0.557 0,0 24.735,1.328 32.649,12.647 7.914,11.318 7.914,16.38 7.914,20.797 0,4.417 0.276,12.423 -3.221,17.76 -3.496,5.337 -5.375,5.39 -7.863,5.495 -0.892,0.037 -2.513,-0.968 -3.327,-1.875 -1.067,-1.191 -2.074,-2.367 -2.076,-2.368 -0.375,-0.208 -7.163,-8.062 -7.163,-8.062 0,0 -7.269,-9.846 -15.091,-12.239 0,0 -15.552,-6.717 -26.135,-7.637 -10.582,-0.921 -13.081,-1.361 -27.982,-1.371 z"
   id="path10" />
            </g>
            <g
   id="Mund"
   transform="translate(4295.01)">
                <path
   d="m 562.662,633.002 -0.035,40.318 31.856,-68.321 -64.72,-58.589 -11.241,14.136 9.708,21.801 c 0,0 -86.6,71.137 -234.481,9.591 l 1.739,-24.428 -36.122,40.192 c 0,0 11.905,41.675 24.624,56.98 0,0 7.733,8.895 11.091,-2.297 0,0 -0.051,-6.689 -1.577,-9.131 l 2.925,0.024 c 0,0 6.684,15.169 57.406,32.559 50.722,17.39 103.024,0.395 103.024,0.395 0,0 56.484,-13.873 105.803,-53.23 z"
   id="path11" />
                <path
   d="m 539.693,595.441 17.982,21.242 c 0,0 -56.496,55.572 -151.327,58.942 -88.87,3.158 -113.91,-58.644 -116.484,-60.179 0,0 -2.604,-2.491 2.874,-0.189 5.478,2.302 26.093,11.371 42.291,14.061 16.199,2.689 32.397,7.426 45.906,7.875 13.509,0.448 44.522,0.799 44.522,0.799 0,0 25.276,-0.823 61.604,-14.343 36.327,-13.519 52.632,-28.208 52.632,-28.208 z"
   style="fill:#ffffff"
   id="path12" />
            </g>
        </g>
    </g>
</svg>
