<svg xmlns="http://www.w3.org/2000/svg" width="600" height="608"><path d="M243.6 533.496v-89.932c-91.123-25.072-156-109.228-156-204.782 0-45.132 14.465-89.11 40.989-125.342l-4.25-4.248H80.86L15.6 174.448V15.598h155.456l89.344 89.338V245.24l-54.458-54.45c-7.592 14.764-11.542 31.072-11.542 47.992 0 58.222 47.37 105.592 105.6 105.592 58.228 0 105.6-47.37 105.6-105.592 0-16.936-3.95-33.246-11.53-48.006l-54.47 54.466V104.936l89.344-89.338H584.4v158.85l-65.26-65.256h-43.48l-4.224 4.222c26.506 36.236 40.964 80.22 40.964 125.368 0 95.554-64.878 179.71-156 204.782v89.932L300 586.574Z"/><path d="M600 0H422.484l-9.138 9.138-80.208 80.194L324 98.474v184.422l53.262-53.252 10.58-10.58A90.4 90.4 0 0 1 390 238.782c0 49.62-40.374 89.99-90 89.99s-90-40.37-90-89.99c0-6.712.73-13.308 2.162-19.714l10.578 10.576 53.26 53.25V98.474l-9.138-9.142-80.206-80.194L177.518 0H0v212.106l53.26-53.262 34.064-34.052h15.266A228 228 0 0 0 72 238.782c0 52.596 18.348 103.922 51.666 144.512A229.2 229.2 0 0 0 228 455.106v85.13l9.818 9.236 40.8 38.4L300 608l21.382-20.128 40.8-38.4 9.818-9.236v-85.13a229.2 229.2 0 0 0 104.334-71.812C509.652 342.704 528 291.378 528 238.782c0-40.202-10.676-79.542-30.56-113.99h15.236l34.064 34.052L600 212.106V31.198Zm-31.2 31.198V136.79l-43.2-43.198h-56.398l-18.572 18.566c28.806 34.22 46.17 78.392 46.17 126.624 0 94.684-66.896 173.73-156 192.52v95.454L300 565.152l-40.8-38.396v-95.454c-89.106-18.79-156-97.836-156-192.52 0-48.236 17.384-92.386 46.196-126.596l-18.598-18.594H74.4L31.202 136.79V31.198h133.392l80.206 80.198v96.182l-41.618-41.612C187.9 186.24 178.8 211.432 178.8 238.782c0 66.93 54.262 121.186 121.2 121.186s121.2-54.256 121.2-121.186c0-27.35-9.082-52.56-24.366-72.834l-41.634 41.63v-96.182l80.208-80.198z" style="fill:gray;stroke-width:2"/></svg>