<svg xmlns="http://www.w3.org/2000/svg" xmlns:xlink="http://www.w3.org/1999/xlink" width="600" height="608"><linearGradient id="a" x1="0" x2="1" y1="0" y2="0" gradientTransform="matrix(284.40039 0 0 -284.40039 7.8 153.455)" gradientUnits="userSpaceOnUse" spreadMethod="pad"><stop offset="0" style="stop-color:#536e78"/><stop offset=".3" style="stop-color:#99aebc"/><stop offset=".5" style="stop-color:#d9eaf3"/><stop offset=".7" style="stop-color:#99aebc"/><stop offset="1" style="stop-color:#536e78"/></linearGradient><linearGradient xlink:href="#a" id="b" x1="0" x2="1" y1="0" y2="0" gradientTransform="translate(15.6 301.09)scale(568.80078)" gradientUnits="userSpaceOnUse" spreadMethod="pad"/><path d="m428.946 15.598-89.348 89.34v140.304l54.472-54.462c7.582 14.754 11.53 31.072 11.53 48 0 58.228-47.372 105.596-105.6 105.596-58.23 0-105.6-47.368-105.6-105.596 0-16.916 3.952-33.226 11.546-47.988l54.454 54.45V104.938l-89.344-89.34H15.598v158.85l65.264-65.256h43.476l4.25 4.25a212.46 212.46 0 0 0-40.99 125.344c0 95.554 64.878 179.708 156.002 204.778v89.938L300 586.58l56.4-53.078v-89.938c91.124-25.07 156-109.224 156-204.778 0-45.148-14.458-89.136-40.962-125.37l4.224-4.224h43.476l65.262 65.256V15.598Z" style="fill:url(#b);stroke-width:2"/><path d="M600 0H422.484l-9.138 9.136-80.208 80.202L324 98.476v184.422l53.262-53.252 10.582-10.58c1.43 6.404 2.156 13 2.156 19.716 0 49.624-40.374 89.994-90 89.994s-90-40.37-90-89.994c0-6.71.73-13.306 2.164-19.712l10.574 10.574L276 282.902V98.476l-9.138-9.138-80.206-80.202L177.518 0H0v212.108l53.262-53.258 34.062-34.058h15.266C82.69 159.242 72 198.59 72 238.786c0 52.596 18.35 103.922 51.668 144.514 27.374 33.352 63.78 58.282 104.332 71.814v85.128l9.816 9.238 40.802 38.396L300 608l21.382-20.124 40.802-38.396 9.816-9.238v-85.128c40.55-13.532 76.958-38.462 104.332-71.814C509.65 342.708 528 291.382 528 238.786c0-40.2-10.678-79.546-30.56-113.994h15.236l34.062 34.058L600 212.108V31.2Zm-31.202 31.2v105.59L525.6 93.594h-56.4l-18.57 18.568c28.806 34.222 46.17 78.388 46.17 126.624 0 94.688-66.896 173.734-156 192.52v95.456L300 565.158l-40.8-38.396v-95.456c-89.106-18.786-156-97.832-156-192.52 0-48.236 17.384-92.384 46.198-126.598L130.8 93.594H74.4L31.2 136.79V31.2h133.394l80.206 80.198v96.186l-41.616-41.612c-15.286 20.27-24.384 45.464-24.384 72.81 0 66.932 54.262 121.19 121.2 121.19s121.2-54.258 121.2-121.19c0-27.346-9.082-52.556-24.366-72.826L355.2 207.584v-96.186L435.408 31.2Z"/></svg>