<svg xmlns="http://www.w3.org/2000/svg" width="600" height="602.67"><path d="M-56.112 140.924v54.21l3.875 5.549 59.603 85.67v235.44h-38.899c-73.864-45.319-74.86-156.866-6.447-204.63l17.544-12.244-12.026-17.636-48.6-71.413-12.492-18.349-18.008 12.956c-68.606 49.345-114.246 120.941-118.464 198.369-3.943 72.4 29.895 147.93 108.639 209.186l-61.03 91.963-22.285 33.599h548.738l-22.286-33.599-61.03-91.963c78.727-61.213 112.585-136.528 108.639-208.721-4.22-77.208-49.888-148.518-118.464-197.842l-17.884-12.894-12.522 18.163-48.6 70.421-12.212 17.698 17.636 12.305c68.414 47.765 67.417 159.312-6.447 204.63h-38.9V286.353l59.605-85.67 3.874-5.549v-54.21H-34.477Z" style="fill:gray;stroke-width:43.6" transform="translate(230.333 -140.924)"/><path d="M195.856 21.635v25.788l63.478 91.25v263.83h-66.453c-92.3-51.131-95.863-186.068-12.894-243.994l-48.6-71.413C2.9 179.51-34.382 351.706 138.328 471.932L65.924 581.035h468.151l-72.404-109.103c172.71-120.225 135.427-291.43 6.943-383.844l-48.6 70.421c82.968 57.926 79.406 192.863-12.895 243.994h-66.453v-263.83l63.478-91.25V21.635z"/></svg>