<svg xmlns="http://www.w3.org/2000/svg" xmlns:xlink="http://www.w3.org/1999/xlink" width="600.001" height="602.67"><linearGradient id="a" x1="0" x2="1" y1="0" y2="0" gradientTransform="matrix(286.38379 0 0 -286.38379 6.809 143.834)" gradientUnits="userSpaceOnUse" spreadMethod="pad"><stop offset="0" style="stop-color:#bf331c"/><stop offset=".517" style="stop-color:#f6b91d"/><stop offset="1" style="stop-color:#bf331c"/></linearGradient><linearGradient xlink:href="#a" id="b" x1="-940.209" x2="-433.459" y1="604.564" y2="218.85" gradientTransform="translate(1081.832 137.798)" gradientUnits="userSpaceOnUse"/><path d="M174.22 0v54.211l3.875 5.548 59.604 85.67v235.439h-38.9c-73.864-45.317-74.86-156.865-6.446-204.63l17.543-12.243-12.026-17.636-48.6-71.413-12.491-18.349-18.008 12.956C50.166 118.898 4.525 190.494.308 267.922c-3.943 72.399 29.895 147.93 108.638 209.186l-61.03 91.963L25.63 602.67h548.738l-22.285-33.599-61.03-91.963c78.727-61.213 112.585-136.528 108.639-208.721-4.221-77.208-49.888-148.519-118.464-197.842l-17.884-12.894-12.522 18.164-48.601 70.421-12.212 17.698 17.637 12.305c68.414 47.765 67.417 159.312-6.447 204.63h-38.898v-235.44l59.604-85.67 3.874-5.548V0H195.856z"/><path d="M290.75 204.688v39.999l1.938 2.813 61.53 88.469v249.594h-52.624c-83.09-48.233-85.376-171.438-9.688-224.282l8.75-6.125-6-8.844-48.594-71.406-6.25-9.187-9.03 6.469c-66.428 47.778-109.964 116.654-113.97 190.187-3.871 71.083 30.164 145.443 112.5 206.063l-66.687 100.5-11.156 16.812h508.5l-11.157-16.812-66.718-100.5C664.42 607.84 698.498 533.73 694.625 462.875c-4.007-73.3-47.556-141.92-113.969-189.687l-8.968-6.438-6.282 9.063-48.593 70.437-6.125 8.844 8.843 6.187c75.69 52.843 73.404 176.05-9.687 224.282h-52.656V335.969L518.75 247.5l1.938-2.812v-40.001H301.563z" style="stroke-width:21.65" transform="translate(-105.714 -193.884)"/><path d="M301.57 215.52v25.787l63.478 91.25v263.831h-66.454c-92.3-51.13-95.863-186.067-12.894-243.994l-48.601-71.413c-128.485 92.414-165.767 264.61 6.943 384.836L171.637 774.92h468.15l-72.403-109.103c172.709-120.226 135.428-291.43 6.942-383.844l-48.601 70.421c82.97 57.926 79.407 192.863-12.894 243.994h-66.453V332.556l63.478-91.25v-25.788z" style="fill:url(#b)" transform="translate(-105.714 -193.884)"/></svg>