<svg xmlns="http://www.w3.org/2000/svg" width="305.057" height="302.074" viewBox="0 0 285.991 283.194"><path d="M46.495 140.997C46.434 140.999 0 195.34 0 195.34l144.305 87.854 141.686-87.361s-40.476-51.803-44.112-56.016c-4.764 2.795-94.594 56.523-98.3 58.712-1.902-1.031-94.754-56.246-97.084-57.532" style="fill:gray"/><path d="M143.425 0S48.674 109.447 47.536 110.978c3.422 2.246 96.57 60.378 96.57 60.378s90.535-55.646 96.454-59.431C239.475 110.71 143.425 0 143.425 0" style="fill:gray"/><path d="M143.481 7.789s-86.138 99.497-87.172 100.889c3.111 2.042 87.791 54.889 87.791 54.889s82.305-50.587 87.686-54.027c-.986-1.105-88.305-101.751-88.305-101.751"/><path d="M136.536 34.35V145.29c-1.728-1.036-57.749-36.48-58.701-37.107.833-1.086 58.488-73.847 58.701-73.831" style="fill:gray"/><path d="M47.995 148.36a.25.25 0 0 0-.127.034c-.742.492-39.414 44.824-39.414 44.824l134.822 83.504 134.26-82.146s-34.069-43.457-37.375-47.287c-4.331 2.54-93.268 55.93-96.637 57.92-1.728-.938-93.411-55.68-95.529-56.848"/><path d="m50.722 166.789 85.811 51.5.002 19.75.001 19.813c-1.003-.6-108.033-66.395-108.033-66.395z" style="fill:gray"/></svg>