<svg xmlns="http://www.w3.org/2000/svg" width="305.057" height="302.074" viewBox="0 0 285.991 283.194"><linearGradient id="a" x1="225.315" x2="94.08" y1="137.519" y2="61.751" gradientTransform="translate(-7.546 -8.211)" gradientUnits="userSpaceOnUse"><stop offset=".2" style="stop-color:#8b723c"/><stop offset=".5" style="stop-color:#ebd491"/><stop offset=".9" style="stop-color:#8b723c"/></linearGradient><linearGradient id="b" x1="254.928" x2="53.704" y1="253.658" y2="137.482" gradientTransform="translate(-7.546 -8.211)" gradientUnits="userSpaceOnUse"><stop offset=".2" style="stop-color:#8b723c"/><stop offset=".5" style="stop-color:#ebd491"/><stop offset=".9" style="stop-color:#8b723c"/></linearGradient><path d="M142.412 198.529c-3.706-2.188-93.536-55.917-98.3-58.712C40.475 144.03 0 195.833 0 195.833l141.686 87.36 144.305-87.853s-46.435-54.341-46.495-54.343c-2.331 1.286-95.183 56.5-97.084 57.532"/><path d="M45.43 111.925c5.919 3.785 96.454 59.43 96.454 59.43s93.148-58.131 96.57-60.377C237.316 109.448 142.565 0 142.565 0S46.515 110.71 45.43 111.925"/><path d="M54.204 109.539c5.381 3.44 87.686 54.027 87.686 54.027s84.68-52.847 87.791-54.89c-1.035-1.39-87.172-100.887-87.172-100.887S55.19 108.435 54.204 109.539" style="fill:url(#a)"/><path d="M142.466 205.209c-3.369-1.99-92.306-55.38-96.637-57.92-3.306 3.83-37.375 47.287-37.375 47.287l134.26 82.146 134.822-83.504s-38.672-44.332-39.414-44.824a.24.24 0 0 0-.127-.033c-2.118 1.169-93.801 55.91-95.529 56.848" style="fill:url(#b)"/><path d="M257.487 191.457s-107.03 65.795-108.033 66.395l.002-19.813.002-19.75 85.811-51.5zm-49.332-83.275c-.953.627-56.973 36.07-58.701 37.107V34.35c.213-.016 57.867 72.745 58.701 73.83"/></svg>