<?xml version="1.0" encoding="UTF-8"?>
<svg id="Layer_2" data-name="Layer 2" xmlns="http://www.w3.org/2000/svg" viewBox="0 0 1010.85 951.3">
  <defs>
    <style>
      .cls-1 {
        stroke-width: 0px;
      }
    </style>
  </defs>
  <g id="Layer_1-2" data-name="Layer 1">
    <path class="cls-1" d="m490.33,0h.83c1.41,33.32.83,103.59-39.46,117.54-13.78,4.76-31.74,1.96-45.76-3.38-.34-.14-.52-.38-.48-.72.86-49.21,17.44-99.04,71.85-110.93,5.27-1.14,9.61-1.96,13.03-2.48v-.03Zm-90.29,132.02c-20.61-23.4-42.01-44.35-64.27-62.92-8.17-6.79-17.68-12.68-28.53-17.61-.38-.17-.55-.48-.45-.9,3.83-17.57,18.3-33.43,36.36-36.94.38-.07.76,0,1.07.17,30.08,16.92,41.59,46.35,48.24,78.6,2.79,13.58,5.82,27.12,8.96,40.63.07.31-.03.38-.31.28s-.48-.31-.62-.59c-.21-.38-.34-.62-.45-.72Zm12.13,46.69c32.05-33.5,67.13-66.27,111.48-82.46,77.26-28.22,124.85,32.87,134.95,100.93,17.02,114.55-51.14,229.75-180.98,210.79-.65-.1-1.62.03-2.83.38-17.68,5.1-35.18,8.3-52.59,9.61-102.9,7.72-174.37-67.37-184.4-165.27-2.89-28.53.07-58,12.96-83.32,15.16-29.77,44.14-44.07,77.26-36.63,31.29,7,59.27,25.47,83.22,46.04.31.28.62.24.9-.03l.03-.03Zm356.9,255.66c-.24-.1-.34-.38-.28-.62,5.62-14.82,14.71-26.47,31.7-26.91,1.79-.03,3.55.41,5.2,1.34,47.11,26.84,34.39,106.9,27.95,149.76-.03.14-.14.24-.28.24s-.24-.07-.28-.21c-8.86-26.05-18.85-51.69-29.98-76.91-6.44-14.58-18.16-40.59-34.08-46.76l.03.07Zm81.36,103.97c-.59-.03-1.17-.07-1.79-.1-.28,0-.38-.14-.31-.41,17.33-57.44,50.73-97.28,113.06-104.45.34-.03.52.14.52.48-1.31,45-15.99,90.66-65.82,101.52-15.06,3.27-30.29,4.27-45.69,2.96h.03Zm-658.46-89.18c26.57-2.55,47.73.24,60.86,26.29.17.34.1.62-.21.83-11.41,8.27-16.54,35.74-19.19,49.14-7.86,39.9-13.13,80.5-18.82,120.68-.03.1-.14.21-.24.21s-.21-.07-.24-.17c-18.92-63.68-27.67-129.19-23.26-195.84.03-.69.41-1.1,1.14-1.17l-.03.03Zm818.84,164.99v10.1c-4.24,67.44-46.31,136.53-95.56,181.09-42.83,38.77-102.21,63.03-157.31,31.5-3.07-1.76-6.1-3.58-9.1-5.48-.34-.21-.69-.28-1.07-.24-79.09,7.34-122.33-52.62-131.74-123.4-5.51-41.42-2-82.22,10.54-122.37,10.48-33.56,31.08-72.33,64.51-87.98,55.65-26.02,110.17,35.98,137.22,76.23.21.28.59.41.9.28,32.32-14.13,66.85-25.78,102.24-27.88,46.28-2.76,77.4,20.88,79.4,68.16h-.03Zm-869.46,12.99c-31.91-27.5-28.08-64.85-9.92-98.97.17-.31.55-.45.86-.28,49.52,24.81,63.99,83.88,73.33,133.53.07.34-.07.45-.38.31-22.47-8.2-45.66-18.88-63.89-34.6Zm29.02,324.17h-9.82c-87.18-5.17-144.94-91.94-158.31-170.16-.86-5-1.59-12.13-2.24-21.43v-12.61c2.65-59.37,38.6-96.76,100.52-92.77,42.59,2.76,84.94,19.13,122.33,38.73.45.24,1,.1,1.31-.28,29.02-37.49,89.84-103.66,143.28-92.59,45.28,9.37,61.37,67.27,64.34,106.07,6.93,90.56-35.6,220.79-149.04,216.65-9.51-.34-18.19-1.41-26.02-3.2-.34-.07-.69-.03-.96.21-25.29,17.88-54.21,29.7-85.39,31.39Z"/>
  </g>
</svg>