<?xml version="1.0" encoding="UTF-8"?>
<svg id="Layer_2" data-name="Layer 2" xmlns="http://www.w3.org/2000/svg" viewBox="0 0 1008.37 1665.66">
  <defs>
    <style>
      .cls-1 {
        stroke-width: 0px;
      }
    </style>
  </defs>
  <g id="Layer_1-2" data-name="Layer 1">
    <path class="cls-1" d="m442.22,550.43l-59.26-4.32c-.54-.05-.76-.32-.54-.81l29.98-84.6c.16-.43.11-.92-.16-1.24-26.69-38.14-50.29-78.01-70.77-119.66-25.66-52.19-45.05-109.45-47.59-167.58C289.88,81.36,343.15,5.4,438.33,0h18.42c70.82,4.7,130.73,49,152.07,117.28,36.46,116.69-42.95,252.71-111.72,341.15-.27.32-.32.76-.27,1.19l23.72,95.35v.22c0,.49-.38.86-.86.86h-.05l-63.53-4.48c-11.94,37.28-20.91,75.25-22.91,114.31-4,78.82,27.34,140.51,85.73,191.35,11.72,10.21,28.42,21.66,39.44,32.68,65.04,65.04,84.06,182.59-6.27,238.13-24.69,15.18-49.21,23.72-77.47,12.15-49.81-20.42-71.25-98.27-29.98-136.89,15.23-14.26,36.63-21.28,57.7-21.88,10.26-.27,10.1,12.43-1.4,13.34-43.92,3.57-71.8,32.9-62.61,78.06,5.4,26.58,25.12,53.43,53.54,58.18,31.33,5.19,67.15-20.37,85.46-43.7,43.22-55.05,19.34-136.08-23.88-182.81-10.8-11.67-25.98-22.91-39.38-33.76-56.45-45.7-92.11-107.4-94.65-181.14-1.62-47.22,7.94-94.21,22.74-139.16h.05Zm322.62,470.59c-21.01,51.75-34.52,105.23-40.57,160.39-6.54,59.59-1.24,120.58,26.74,174.49,2.59,5.02,7.62,13.24,15.07,24.74,34.52,53.05,79.52,131,63.8,196.53-9.4,38.95-40.89,66.01-76.28,81.03-10.21,4.32-20.96,6.86-32.25,7.46h-6.86c-87.62-5.62-148.34-128.3-70.01-189.13,7.94-6.16,16.96,3.94,7.13,11.72-58.61,46.4-21.77,134.03,37.01,157.91,34.63,14.1,70.01-.32,96.97-23.55,34.36-29.6,39.87-69.36,28.36-111.66-11.07-40.84-31.22-79.2-53.81-113.93-10.48-16.1-20.53-31.76-27.93-48.35-45.11-100.75-21.23-230.51,18.85-329.91l-61.42-10.8h-.11c-.27-.11-.38-.38-.27-.65,0-.05.05-.05.05-.11l59.42-88.65c.32-.49.38-1.03.16-1.57-23.55-61.96-41.06-127.01-46.62-192.8-2.65-30.85-1.13-61.48,4.54-91.84,13.29-71.74,60.67-131.27,137.7-135.92,88.38-5.35,160.77,63.96,163.85,150.51v9.02c-1.78,44.68-17.4,86.65-40.73,124.57-36.52,59.42-87.73,111.12-142.02,154.18-.97.81-1.51,2-1.4,3.3l8.91,94.38c.05.54-.22.76-.7.65l-67.53-11.94-.05-.05Zm-477.12,55.8l-61.8,30.04c-.05,0-.11.05-.16.05-.22,0-.43-.22-.43-.43-.97-34.25-1.89-68.55-2.76-102.86-.05-1.35-.59-2.38-1.67-3.13-38.79-26.63-74.5-55.64-107.07-87.03C57.21,858.9,6.37,788.13,0,707.31v-19.61c4.27-73.52,58.18-135.81,132.95-143.97,88.87-9.72,146.4,57.7,167.47,137.16,24.42,91.89,8.21,194.05-12.8,285.88-.11.54,0,.97.38,1.4l68.82,74.5c.11.11.11.22.11.32,0,.16-.11.38-.27.43l-56.24,27.23c17.12,67.53,18.69,138.19-8.75,203.39-6.05,14.37-16.26,33.01-23.55,48.24-40.52,84.27-65.58,207.66,39.44,260.44,10.53,5.29,20.91,9.18,31.12,11.67,75.68,18.26,127.06-56.18,143.1-118.69,8.21-32.04,3.89-62.02-9.83-92.59-11.34-25.34-35.71-52.24-65.31-50.89-24.69,1.13-42.35,18.21-58.13,35.33-4.65,5.02-14.53-2.59-9.29-9.67,7.78-10.64,23.23-23.82,36.19-30.68,44.57-23.45,84.81,3.78,105.56,43.22,17.94,34.14,23.66,71.04,14.32,108.21-20.96,83.19-91.51,163.09-186.32,120.04-118.25-53.7-99.78-182.92-55.1-278.32,8.48-18.04,19.99-38.14,26.79-55.43,23.66-60.5,23.18-125.11,7.13-188l-.05-.11Z"/>
  </g>
</svg>