<?xml version="1.0" encoding="UTF-8"?>
<svg id="Layer_2" data-name="Layer 2" xmlns="http://www.w3.org/2000/svg" viewBox="0 0 1021.04 1049.87">
  <defs>
    <style>
      .cls-1 {
        stroke-width: 0px;
      }
    </style>
  </defs>
  <g id="Layer_1-2" data-name="Layer 1">
    <path class="cls-1" d="m606.08,392.26c-48.48,24.7-103.5,45.57-157.49,36.34-73.4-12.52-75.2-84.36-39.17-134.52,37.07-51.58,100.02-73.75,161.86-64.21h.04c.11,0,.23-.11.23-.23,0-.04,0-.11-.04-.15-40.59-48.59-50.31-119.58-29.37-178.74,9.92-27.99,28.68-49.09,60.16-50.74h6.89c38.21,2.57,58.89,49.7,67.85,80.6,13.4,46.1,18.07,92.55,15.74,140.11,4.1-5.28,9.76-10.68,12.6-16.58,15.74-33.12,32.82-67.62,42.89-102.24,6.59-22.67,9.19-63.76-17.88-74.59-6.43-2.57-10.19,1.34-12.06,7.16-2.91,9.11.04,18.49,2.3,27.45.11.42-.04.69-.5.8l-12.21,3.14c-.31.08-.54-.04-.61-.34-1.53-5.36-2.72-10.76-3.64-16.2-3.1-18.72,7.43-42.96,30.98-35.11,20.95,6.97,30.48,29.41,31.48,49.7.8,15.97-1.34,31.86-6.43,47.67-9,28.07-20.83,54.14-33.39,80.41-.15.34-.19.77-.04,1.11.27.77.73,1,1.34.73.27-.11.54-.38.8-.77,15.89-24.35,32.09-47.86,51.12-68.31,16.96-18.19,44.65-37.64,71.03-34.85,13.17,1.42,31.86,10.72,31.67,26.84-.23,19.76-23.28,28.45-38.71,32.51-.38.08-.61-.04-.73-.42l-3.52-12.25c-.11-.38.04-.61.38-.69,10.03-2.53,20.37-5.36,26.42-13.59,3.56-4.82,2.64-9.61-2.18-12.9-22.36-15.35-51.66,3.18-67.97,18.69-13.48,12.79-24.89,27.88-35.65,42.96-7.01,9.84-17.35,25-31.09,45.53-1.46,2.18-2.64,4.56-3.56,7.12-2.22,6.28-4.67,12.56-7.28,18.8,33.39-20.56,66.97-40.36,102.2-57.67,24.01-11.79,82.14-39.02,107.68-25.54,20.6,10.87,6.47,41.2-1.65,55.48-36.84,64.75-111.43,103.46-181.58,119.09-.04,0-.08.04-.11.08-.15.11-.19.34-.08.46.04.04.08.08.11.08,78.69,41.39,71.8,236.03-45.68,220.02-66.74-9.11-84.43-98.68-85.31-152.09l-18.76,22.09s-.08.04-.11.08c-.11.04-.23-.04-.27-.15v-.11l11.33-32.2v.15Zm-265.97,444.37c2.07,53.38-1.88,123.57-43.42,163.31-29.29,27.99-68.5,19.41-95.08-6.55-34.77-33.96-47.6-85.24-37.87-131.99,4.25-20.37,12.33-39.75,24.32-58.24.31-.5.19-.65-.38-.5-60.12,16.43-133.6-6.82-173.08-55.45-8.39-10.3-13.25-21.98-14.59-35v-6.39c1.15-11.49,4.75-21.67,10.8-30.52,18.26-26.69,69.58-24.05,96.69-19.8,41.81,6.59,82.25,20.98,120.08,40.4-3.03-6.09-5.51-12.94-9.84-18.04-20.49-24.12-41.39-49.24-63.83-70-16.73-15.47-52.69-39.29-74.71-20.6-10.8,9.15,1.49,17.73,9.46,19.99,4.82,1.34,9.73,2.45,14.7,3.25.34.04.5.27.42.61l-2.11,11.64c-.08.38-.42.61-.8.54-2.76-.54-7.2-1.49-13.29-2.87-11.95-2.72-26.42-12.87-25.85-26.27.84-19.87,26.54-28.11,42.69-26.15,28.45,3.48,51.77,22.55,70.92,42.47,14.24,14.86,27.99,30.25,41.24,46.18,0,.04.04.04.04.08.31.31.84.31,1.15,0,0,0,.04-.04.04-.08.54-.65.54-1.42-.04-2.34-9.38-14.63-18.15-29.56-26.38-44.88-11.37-21.18-20.95-44.53-21.1-68.46-.11-19.07,8.19-41.51,28.3-47.48,18.19-5.4,28.83,12.64,28.6,29.1-.08,5.78-.65,11.56-1.76,17.27-.08.31-.27.46-.57.42l-11.76-1.72c-.31-.04-.54-.31-.54-.61v-.11c1.8-9.04,3.33-20.06-1.8-28.41-6.39-10.38-19.07,2.53-22.63,9.15-11.1,20.87-1.46,51.58,8.08,71.3,12.21,25.39,27.19,48.97,41.78,73.02,4.25,7.05,12.48,13.59,18.34,19.8-7.24-52.11-11.91-104.69-8.19-157.03,1.11-15.39,4.79-37.03,13.9-48.86,13.1-16.96,30.79-6.51,41.62,5.82,50.09,56.94,55.71,141.72,40.86,212.4-.23,1,.08,1.19.88.54,17.96-14.21,42.81-17.12,65.02-14.44,35.65,4.33,71.49,20.37,95.77,47.14,27.26,30.06,27.72,68.46,2.8,99.94-13.9,17.58-38.6,25.39-60.73,26.15-32.74,1.11-66.24-7.43-96.34-20.56l11.37,24.43s.04.11.04.15c-.04.15-.15.23-.31.19-.04,0-.11-.04-.15-.08l-22.82-21.94.08.08Zm413.36,81.56c-38.67,22.09-87.99,42.27-133.02,33.62-52.54-10.15-58.74-60.39-36.15-100.71,27.19-48.52,81.68-71.64,135.78-65.29h.04c.15,0,.31-.15.31-.31,0-.08-.04-.15-.08-.19-35.99-40.47-45.8-102.81-26.54-152.67,8.81-22.71,27.03-37.83,52.19-36.61,38.21,1.88,57.82,59.73,64.87,90.98,6.51,28.83,9.53,58.13,9.04,87.88,4.75-5.86,8.77-10.99,11.79-18.11,10.22-24.05,20.98-48.67,28.18-72.91,5.86-19.76,11.41-57.17-12.98-68.46-10.84-5.02-12.87,8.85-11.79,15.62.27,1.76,1.38,5.9,3.25,12.48.11.46-.04.73-.46.84l-9.69,2.91s-.11.04-.15.04c-.23,0-.46-.15-.54-.38-2.6-8.62-5.17-17.31-3.41-26.31,3.64-18.72,19.95-21.98,34.16-11.53,27.68,20.33,17.81,65.59,8.23,92.09-5.97,16.58-12.48,32.93-19.53,49.09-.23.5-.31.88-.27,1.15.08.38.38.65.77.65.27,0,.54-.15.69-.38,12.71-20.56,25.81-41.43,41.93-59.54,14.97-16.81,41.43-35.3,65.48-27.15,13.4,4.56,22.63,17.23,13.29,30.9-6.43,9.42-16.5,12.94-27,16.2-.27.08-.46,0-.57-.31l-3.33-9.99c-.11-.34,0-.57.34-.65,7.93-2.03,16.01-4.82,21.1-11.64,5.17-6.93-1.95-11.68-7.66-13.63-16.43-5.67-36.03,7.01-47.4,18.07-21.48,20.87-36.99,48.78-52.92,73.86-4.71,7.43-7.05,16.27-9.92,24.58,18.99-12.87,171.78-116.94,179.55-60.08v4.37c-.8,6.2-2.45,12.21-4.98,18-25.77,59.16-89.6,96.46-149.91,111.85-.19.04-.31.19-.31.38s.08.31.23.38c62.26,30.52,65.98,177.86-19.76,182.57h-7.62c-58.51-2.68-75.89-77.62-78.69-123.07l-14.74,18.61s-.11.08-.15.08c-.11,0-.19-.08-.19-.19v-.08l8.46-26.88.08-.15Z"/>
  </g>
</svg>