<?xml version="1.0" encoding="UTF-8"?>
<svg id="Layer_2" data-name="Layer 2" xmlns="http://www.w3.org/2000/svg" viewBox="0 0 998.36 2016.06">
  <defs>
    <style>
      .cls-1 {
        stroke-width: 0px;
      }
    </style>
  </defs>
  <g id="Layer_1-2" data-name="Layer 1">
    <path class="cls-1" d="m99.54.06c.95,2.59,2.85,4.43,3.6,6.89,33.84,117.76,67.23,235.64,100.11,353.59.19.7-.13,1.45-.82,1.83-23.21,11.83-29.72,29.98-38.96,52.43-.44,1.08-1.2,1.33-2.15.63l-103.85-73.17L99.54,0v.06Zm25.49.76l203.14,250c-2.28,1.9-3.79,3.98-4.55,6.2-15.87,45.6-31.43,91.01-46.8,136.16-.19.57-.63.95-1.2,1.14-.7.19-1.52-.13-1.9-.76-11.38-17.96-27.26-29.6-47.69-34.97-1.08-.25-1.77-.95-2.09-2.02C223.94,356.56,125.03.82,125.03.82Zm217.62,267.77l80.7,99.48-120.04,84.3c-.7.51-1.14.32-1.45-.44l-11.7-30.86c-.19-.38-.19-.89,0-1.26l52.56-151.15-.06-.06ZM54.52,368.45c3.1,1.08,7.59,3.67,13.41,7.72,29.91,20.81,59.7,41.8,89.43,62.93.82.63,1.2,1.45,1.08,2.47-2.66,22.2-2.53,44.4.38,66.6.13,1.26-.63,2.53-1.83,2.91l-124.65,42.56,22.26-185.18h-.06Zm234.25,125.35c9.42,66.15-7.21,123.32-37.19,127.62s-61.98-45.91-71.46-112.13c-9.49-66.22,7.21-123.32,37.19-127.62s61.98,45.91,71.46,112.07v.06Zm142.55-102.07l-22.01,194.92-96.89-28.9c-1.01-.32-1.45-.95-1.33-1.96,2.47-25.93,1.33-51.73-3.42-77.41-.25-1.2.13-2.15,1.14-2.85,39.15-27.26,78.11-54.52,116.94-81.84,1.33-.95,3.16-1.64,5.57-2.02v.06Zm-262.52,331.58l-125.16-148.56,118.14-41.23c1.14-.38,1.83,0,2.09,1.2,5.57,28.21,16.51,54.07,32.76,77.66.63.89.82,1.9.51,2.91l-28.4,108.02h.06Zm237.41-114.34l-35.1,304.64c-2.66-4.3-4.55-8.47-5.69-12.59-26.12-91.32-52.37-182.71-78.61-274.16-.32-1.14-.13-2.09.57-3.04,9.61-12.84,16-27.13,19.04-42.82.38-1.77,1.39-2.4,3.16-1.9l96.64,29.72v.13Zm-50.53,333.92c-6.32-5.44-14.55-14.17-24.66-26.25-47.62-56.86-95.94-114.53-144.95-173.16l28.14-110.42c.32-1.26,1.08-1.58,2.15-.82,16.95,11.57,30.93,16.13,50.72,8.54,1.2-.44,1.96-.06,2.34,1.14l86.26,300.91v.06Zm310.33-348.85c.25.63.7,1.26,1.33,1.83s1.2,1.45,1.45,2.4l100.94,357.51c.32,1.14-.06,2.02-1.14,2.59-22.01,11.89-30.74,30.55-38.52,53.06,0,.06-.06.13-.06.19-.38.7-1.26,1.01-1.96.63-.06,0-.13-.06-.19-.13l-104.1-73.61,42.12-344.55.13.06Zm24.98,4.74c3.54,2.28,7.02,5.44,10.37,9.55,66.03,80.45,130.15,159.63,192.39,237.35l-50.72,144.64c-.13.38-.44.63-.82.76-.51.13-1.01-.06-1.26-.51-11.38-18.09-27.32-29.91-47.81-35.48-1.45-.38-2.34-1.33-2.78-2.78l-99.42-353.53h.06Zm218,265.43l80.57,99.42-119.91,85c-.13.06-.25.13-.38.19-.57.13-1.08-.19-1.26-.7-2.21-7.02-4.62-14.04-7.21-21-1.52-4.17-5.69-7.46-3.54-13.53,16.82-48.76,34.09-98.53,51.73-149.32v-.06Zm-287.76,99.29l102.26,71.46c1.33.95,1.83,2.15,1.64,3.73-2.91,22.07-2.72,44.08.57,66.09.19,1.01-.25,1.71-1.2,2.02-40.54,13.98-80.95,27.95-121.17,42.06-1.14.38-2.34.32-3.48-.19l21.44-185.18h-.06Zm-553.25,105.49l102.45,361.94c.32,1.01,0,1.77-.95,2.28-22.07,12.33-30.1,30.36-38.26,53-.38,1.14-1.14,1.39-2.15.7l-104.54-73.55c12.52-106,25.11-211.86,37.88-317.54,1.39-11.64,3.23-20.55,5.5-26.82h.06Zm22.7,2.59c5.88,5.31,14.42,14.8,25.61,28.59,60.97,74.69,120.35,148.12,178.09,220.21l-50.47,144.89c-.13.38-.44.63-.82.7-.44.13-.95-.06-1.2-.51-11.51-18.47-27.7-30.48-48.51-36.18-1.14-.32-1.83-1.01-2.09-2.15l-100.56-355.62-.06.06Zm764.67,18.59c9.36,66.22-7.4,123.39-37.38,127.56s-61.85-46.1-71.21-112.26c-9.36-66.15,7.4-123.39,37.38-127.56,29.98-4.24,61.85,46.1,71.21,112.26Zm142.99-103.97l-22.58,196.88-96.07-29.16c-1.2-.38-1.77-1.14-1.64-2.4,2.34-25.93,1.01-51.61-3.98-77.09-.19-1.08.13-1.96,1.01-2.59l123.2-85.63h.06Zm-263.22,333.35l-124.78-149.06,118.45-41.36q.06,0,.13-.06c.76-.19,1.52.25,1.71,1.01v.06c5.25,28.27,16,54.2,32.25,77.79.63.95.82,1.96.57,3.1l-28.33,108.46v.06Zm237.79-114.34l-35.8,307.87-83.8-289.65c-.32-1.08-.13-2.02.57-2.97,9.49-13.15,16.13-27.64,19.86-43.45.32-1.26,1.08-1.71,2.34-1.33l96.89,29.47-.06.06Zm-50.85,334.81l-169.62-200.73,28.08-108.78c.57-2.28,1.83-2.72,3.73-1.26,15.12,11.57,31.75,14.29,49.96,8.1.95-.32,1.58,0,1.9.95l86.01,301.67-.06.06Zm-611.94-201.24l80.95,100.11-120.23,84.43c-.89.63-1.52.44-1.83-.57l-11.13-29.91c-.38-.95-.38-1.96-.06-2.91,0,0,52.3-151.15,52.3-151.15Zm-288.33,99.86l103.34,71.84c.89.63,1.26,1.52,1.14,2.59-3.1,21.95-3.04,43.95.13,65.9.19,1.14-.51,2.21-1.58,2.53L0,1624.4l21.88-185.81-.06.06Zm234.51,126.17c9.49,66.22-7.21,123.45-37.25,127.75-30.04,4.3-62.1-45.98-71.59-112.19-9.49-66.22,7.21-123.45,37.25-127.75,30.04-4.3,62.1,45.98,71.59,112.19Zm142.61-103.72l-22.32,196.5-96.64-29.22c-1.01-.32-1.45-.95-1.33-2.02,2.47-25.8,1.26-51.48-3.6-76.97-.19-1.01.13-1.77.95-2.34l122.94-86.01v.06Zm-262.96,332.91l-125.22-148.75,117.89-41.17c1.39-.51,2.28,0,2.59,1.45,5.63,28.27,16.63,54.14,32.95,77.66.51.76.7,1.77.44,2.66l-28.65,108.21v-.06Zm237.67-113.46l-35.1,302.3c-3.23-5.31-5.82-11.19-7.65-17.77-13.41-47.12-38.96-135.97-76.65-266.63-.32-1.01-.13-2.02.51-2.91,9.17-12.9,15.62-27.07,19.35-42.37.25-1.14,1.14-1.96,2.21-2.28.57-.13,1.14-.13,1.64.06,0,0,95.69,29.6,95.69,29.6Zm-50.22,335.5l-170.12-201.68,28.71-110.61c.32-1.33,1.01-1.52,2.02-.63,15.12,12.78,32.06,15.62,50.85,8.54.95-.32,1.58-.06,1.83.95l86.71,303.44Z"/>
  </g>
</svg>