<?xml version="1.0" encoding="UTF-8"?>
<svg id="Layer_2" data-name="Layer 2" xmlns="http://www.w3.org/2000/svg" viewBox="0 0 1015.59 994.9">
  <defs>
    <style>
      .cls-1 {
        stroke-width: 0px;
      }
    </style>
  </defs>
  <g id="Layer_1-2" data-name="Layer 1">
    <path class="cls-1" d="m81.96,373.2c-27.68-10.11-51.85-25.56-64.96-53.09l-2.89-6.11c-.7-1.79-1.43-3.55-2.16-5.35-21.02-50.49-14.68-105.56,21.93-147.01,8.71-9.85,19.44-17.76,30.98-24.42,20.1-11.57,41.41-18.67,63.97-21.35.18-.04.29-.11.33-.33,1.06-7.29,3.37-14.54,6.88-21.71,16.77-33.94,40.83-62.54,75.17-79.82l2.93-1.39c32.73-14.57,69.64-16.73,103.77-5.35,41.3,13.77,64.55,51.26,74.81,91.69.33,2.49.77,4.94,1.24,7.4,1.43,7.07,2.2,13.91,2.86,20.98.04.22.15.33.37.26.15-.04.29-.15.44-.29.84-.07,1.76-.92,2.45-1.24,15.2-7.62,32.7-10.77,49.69-11.53,33.39-1.5,66.93,4.76,96.89,20.1,26,13.29,48.66,31.75,65.54,55.4,20.87,29.22,29.4,63.93,28.01,99.67-.15,3.92-.62,8.02-1.35,12.23-10.84,60.71-41.52,119.11-110.51,125.56-32.84,3.08-65.29-6.66-94.21-22.12-.29-.15-.44-.07-.44.26-.22,9.23-.07,18.16.44,26.88,2.31,40.61,8.79,81.29,18.01,120.91,1.28,5.57,2.89,11.28,4.72,17.14.33,1.03.59.99.84-.04,9.15-39.22,18.82-78.28,29-117.24,0-.04.04-.07.07-.07s.15,0,.18.07v.04c22.15,72.17,62.69,137.27,110.03,195.49,64.41,79.24,141.74,148.92,222.77,211.24,61.62,47.42,126.03,91.39,193.26,131.96-.62.18-1.28.07-2.01-.29-37.46-19.15-70.67-36.73-105.34-56.61-40.46-23.18-80.01-47.82-118.63-73.93-65.14-44.01-127.24-92.56-183.33-147.74-46.06-45.33-87.37-95.82-117.76-153.09-.07-.11-.18-.15-.29-.11-.07.04-.11.07-.11.15l-28.6,120.87c-.07.37-.26.4-.48.11-.62-.73-1.21-1.54-1.83-2.45-6.3-9.15-12.45-18.45-18.38-27.86-34.05-53.72-65.32-109.63-91.76-167.48-.22-.48-.51-.55-.95-.26-37.97,26.33-74.59-.84-96.74-32.04-19.11-26.91-32.95-60.78-32.84-94.21,0-.04,0-.07-.04-.11-.07-.11-.22-.18-.33-.11-11.28,5.79-22.96,10.62-35.11,14.5-.26.07-.4.22-.37.37.07.15.15.26.22.33s.18.18.22.33c23.18,72.72,57.34,141.56,97.76,206.15,50.9,81.32,108.93,156.61,174.07,226.1,3.55,3.81,7.18,7.54,10.91,11.24t.07.04c.15.07.29.04.37-.11,0-.04.04-.04.04-.07.92-4.72,1.72-9.52,2.49-14.35,7.87-51.01,13.95-102.23,20.07-153.6.07-.73.33-.81.73-.18,38.63,59.61,91.87,109.33,148.62,151.44,42.29,31.38,86.96,59.24,133.13,84.55,79.38,43.54,162.68,80.15,247.92,110.54.18.07.33.18.44.37s.22.33.4.48c-1.83.04-3.88-.84-5.05-1.1-55.36-12.45-109.81-28.08-163.34-46.9-74.33-26.14-146.43-59.54-212.59-102.45-32.19-20.87-62.91-44.41-90.4-71.18-11.24-10.95-22.19-22.67-31.27-35.44-.04-.04-.04-.07-.07-.07-.15-.07-.33-.04-.4.07-.04.04-.04.07-.04.11-6.85,35.26-6.88,73.96-5.9,107.94.92,32.11,2.86,60.64,5.02,94.83.04.77.07,1.46.07,2.05,0,.15-.07.26-.22.33s-.26.04-.37-.04c-87.55-59.54-164.66-130.28-231.34-212.15-66.79-82.02-121.45-172.02-163.97-270-12.71-29.29-23.91-58.51-33.58-87.69h-.18Z"/>
  </g>
</svg>