<svg xmlns="http://www.w3.org/2000/svg" width="600" height="589.304"><path d="M376.948 0H187.09s-.972 44.257-1.267 56.75c-15.13 11.565-58.12 44.316-73.898 56.337a78769 78769 0 0 1-53.687-15.704L0 307.204l48.338 18.534c4.022 14.836 9.208 34.238 12.832 47.763-7.941 12.022-35.05 53.111-35.05 53.111l196.475 162.692s26.136-40.794 33.207-51.844h72.16a67809 67809 0 0 1 38.099 49.487l198.95-156.71s-27.153-37.525-35.448-48.854c5.466-16 14.04-41.03 18.814-55.012 11.52-5.068 51.623-22.688 51.623-22.688L533.07 92.594s-41.723 14.276-53.288 18.254c-16.176-11.742-57.546-41.782-73.486-53.347V0Z" style="fill:#fff"/><path d="M220.577 287.463c0 43.623 35.52 79.07 79.128 79.07 21.186 0 41.045-8.221 55.999-23.13 14.91-14.97 23.145-34.814 23.145-55.94 0-43.683-35.52-79.13-79.144-79.13-43.608 0-79.128 35.447-79.128 79.13m98.811-200.555v14.953l145.838 105.78 11.86-4.08c1.783 5.627 10.637 33.428 16.456 51.961-.75.339-15.145 6.615-15.145 6.615L432.77 395.88s11.565 15.94 12.891 17.723a43559 43559 0 0 0-64.337 50.71c-.295-.456-10.534-13.76-10.534-13.76H208.26s-3.33 5.303-5.864 9.148a41057 41057 0 0 1-60.771-50.297c2.813-4.316 13.642-20.773 13.642-20.773l-34.474-128.1s-15.602-5.981-15.941-6.099a28050 28050 0 0 0 13.524-48.868c3.566 1.047 11.286 3.285 11.286 3.285l142.08-108.314s.296-13.289.296-13.627zm-75.504-28.773c-.107 6.202-.633 27.903-.633 27.903l-119.467 91.107-25.325-7.425c-8.398 30.26-20.656 74.414-28.36 102.14 5.922 2.314 26.695 10.314 26.695 10.314l27.329 101.448s-13.923 21.186-20.773 31.484c24.235 20.021 76.433 63.306 105.721 87.526 2.534-3.904 14.968-23.307 14.968-23.307h132.535s14.497 18.829 19.683 25.62a230812 230812 0 0 1 108.932-85.817c-5.627-7.764-20.316-28.08-20.316-28.08l36.729-107.607s19.726-8.634 27.21-11.978c-8.736-27.683-23.468-73.958-33.148-104.675-4.773 1.665-25.605 8.736-25.605 8.736L348.176 87.188V58.135Zm-28.14-28.832h161.204v43.152l97.943 71.026 39.306-13.422 49.9 157.404-39.366 17.266-27.8 81.545 27.8 38.379-153.484 120.91-28.832-37.45H239.744l-24 37.45L65.09 420.807l27.844-42.194-20.14-74.87-37.405-14.38L78.554 133.92l39.366 11.507 96.91-73.884Z"/></svg>