<svg xmlns="http://www.w3.org/2000/svg" xmlns:xlink="http://www.w3.org/1999/xlink" width="600" height="589.246"><radialGradient id="a" cx="0" cy="0" r="1" fx="0" fy="0" gradientTransform="matrix(17.25032 0 0 -17.2503 482.979 259.874)" gradientUnits="userSpaceOnUse" spreadMethod="pad"><stop offset="0" style="stop-color:#f6b91d"/><stop offset=".7" style="stop-color:#d3641c"/><stop offset="1" style="stop-color:#bf331c"/></radialGradient><radialGradient xlink:href="#a" id="b" cx="0" cy="0" r="1" fx="0" fy="0" gradientTransform="matrix(254.11716 0 0 254.11694 299.654 286.182)" gradientUnits="userSpaceOnUse" spreadMethod="pad"/><path d="M376.97 0H187.071s-.972 44.252-1.267 56.744c-15.129 11.564-58.114 44.312-73.891 56.332a88599 88599 0 0 1-53.68-15.703L0 307.174s37.402 14.319 48.333 18.532c4.022 14.834 9.207 34.235 12.83 47.758-7.88 12.02-34.986 53.106-34.986 53.106l196.396 162.676s26.133-40.79 33.204-51.839h72.212c8.47 11.049 38.036 49.482 38.036 49.482l198.989-156.695s-27.209-37.52-35.503-48.849c5.466-15.998 14.04-41.026 18.812-55.006C559.902 321.272 600 303.653 600 303.653L533.076 92.585s-41.777 14.275-53.341 18.252c-16.175-11.74-57.54-41.777-73.48-53.341V0Z" style="fill:#fff"/><path d="M220.614 287.434c0 43.62 35.458 79.062 79.062 79.062 21.183 0 41.04-8.22 55.993-23.127 14.908-14.967 23.143-34.81 23.143-55.935 0-43.678-35.458-79.12-79.136-79.12-43.604 0-79.062 35.442-79.062 79.12M319.357 86.9v14.952l145.823 105.77s8.692-2.99 11.903-4.08c1.797 5.627 10.592 33.424 16.47 51.956-.81.338-15.144 6.614-15.144 6.614l-45.622 133.73s11.505 15.939 12.83 17.721c-20.55 16.175-42.985 33.838-64.286 50.705-.34-.456-10.577-13.759-10.577-13.759H208.24s-3.33 5.303-5.863 9.148a41056 41056 0 0 1-60.766-50.292c2.813-4.316 13.64-20.77 13.64-20.77l-34.47-128.088s-15.6-5.981-15.94-6.099c5.407-19.46 12.831-46.33 13.583-48.863a2194 2194 0 0 0 11.225 3.285l142.067-108.304s.295-13.287.295-13.626zM243.86 58.13c-.107 6.202-.633 27.901-.633 27.901l-119.455 91.097s-20.653-6.054-25.264-7.424c-8.456 30.256-20.712 74.406-28.418 102.13 5.922 2.313 26.693 10.312 26.693 10.312l27.327 101.439s-13.921 21.183-20.771 31.48c24.232 20.02 76.425 63.3 105.71 87.518 2.534-3.904 14.967-23.305 14.967-23.305h132.58s14.437 18.827 19.682 25.618c27.62-21.817 82.39-64.98 108.922-85.81-5.687-7.763-20.374-28.077-20.374-28.077l36.725-107.596s19.725-8.633 27.268-11.977c-8.795-27.68-23.482-73.95-33.204-104.665-4.773 1.665-25.603 8.736-25.603 8.736l-121.87-88.328v-29.05ZM215.782 29.3H376.97v43.148l97.874 71.019 39.303-13.42 49.894 157.387L524.74 304.7l-27.857 81.537 27.857 38.375-153.53 120.897-28.77-37.446H239.78l-23.997 37.446-150.64-124.743 27.782-42.19-20.137-74.864-37.403-14.377 43.163-155.429 39.361 11.505 96.902-73.876z" style="fill:#bf331c"/><path d="m221.542 35.222-.87 36.416-.058 2.887-2.24 1.665-96.9 73.891-2.358 1.841-2.887-.869-33.602-9.84L42.47 285.77l32.453 12.477 2.813 1.046.752 2.931 20.137 74.805.692 2.534-1.443 2.24-24.91 37.814 141.433 117.098 20.373-31.82 1.724-2.71h108.819l1.783 2.298 25.087 32.689 144.439-113.71-24.513-33.779-1.782-2.475.972-2.872 27.856-81.537.81-2.416 2.358-1.09 34.53-15.203-46.507-146.56-33.602 11.505-2.872 1.046-2.475-1.841-97.947-70.96-2.416-1.783V35.222Zm15.88 47.818.575-25.088.117-5.76h115.949V84.13l116.922 84.88c5.877-2.018 18.988-6.51 22.67-7.763l5.702-2.018 1.841 5.804 8.868 27.916 24.336 76.705 1.606 5.067-4.832 2.122-24.851 10.93-34.928 102.264 18.532 25.544 3.388 4.67-4.493 3.447-36.253 28.593-72.67 57.2-4.728 3.742-3.624-4.772-17.883-23.246H227.228l-13.17 20.594-3.623 5.583-5.127-4.198-53.68-44.488-52.03-43.089-4.022-3.403 2.872-4.434 19.283-29.227-25.838-96.047-23.88-9.148-5.008-1.9 1.444-5.17 21.979-79.063 6.393-23.084 1.606-5.745 5.7 1.665 22.495 6.555zm40.334 9.722a723 723 0 0 1-.177 7.881l-.045 2.888-2.253 1.664-142.068 108.289-2.357 1.841-2.887-.795-5.465-1.62-4.434 15.997-6.1 21.876 10.931 4.258 2.829 1.03.751 2.873 34.456 128.161.693 2.52-1.43 2.253-10.768 16.337 51.618 42.647 2.254-3.521 1.724-2.696h168.657l1.723 2.298s3.919 5.009 6.968 8.972l55.125-43.443-9.502-13.17-1.841-2.474 1.046-2.887 45.622-133.73.81-2.475 2.416-.972 10.297-4.552-8.735-27.503-4.317-13.641-6.216 2.136-2.888.972-2.519-1.782L315.91 106.58l-2.416-1.738v-12.08ZM214.75 287.434c0-46.904 38.095-84.998 84.984-84.998 46.845 0 84.999 38.094 84.999 84.998 0 22.613-8.869 43.958-24.926 60.074-16.042 16.057-37.402 24.91-60.073 24.91-46.89 0-84.984-38.139-84.984-84.984" style="fill:url(#b)"/></svg>