<svg xmlns="http://www.w3.org/2000/svg" xmlns:xlink="http://www.w3.org/1999/xlink" width="600" height="589.246"><radialGradient id="a" cx="0" cy="0" r="1" fx="0" fy="0" gradientTransform="matrix(17.25032 0 0 -17.2503 400.978 259.874)" gradientUnits="userSpaceOnUse" spreadMethod="pad"><stop offset="0" style="stop-color:#bf99c3"/><stop offset=".663" style="stop-color:#7b5190"/><stop offset="1" style="stop-color:#612c75"/></radialGradient><radialGradient xlink:href="#a" id="b" cx="0" cy="0" r="1" fx="0" fy="0" gradientTransform="matrix(254.11716 0 0 254.11694 299.64 286.182)" gradientUnits="userSpaceOnUse" spreadMethod="pad"/><path d="M376.911 0h-189.84s-.972 44.252-1.267 56.744c-15.129 11.564-58.114 44.312-73.891 56.332a88599 88599 0 0 1-53.68-15.703L0 307.174l48.333 18.532c4.022 14.834 9.207 34.235 12.83 47.758-7.94 12.02-35.045 53.106-35.045 53.106l196.455 162.676s26.133-40.79 33.204-51.839h72.212c8.47 11.049 38.036 49.482 38.036 49.482l198.989-156.695s-27.209-37.52-35.503-48.849c5.466-15.998 14.04-41.026 18.812-55.006C559.902 321.272 600 303.653 600 303.653L533.076 92.585s-41.777 14.275-53.341 18.252c-16.175-11.74-57.54-41.777-73.48-53.341V0Z" style="fill:#fff"/><path d="M220.555 287.434c0 43.62 35.517 79.062 79.12 79.062 21.125 0 41.042-8.22 55.935-23.127 14.967-14.967 23.246-34.81 23.246-55.935 0-43.678-35.502-79.12-79.18-79.12-43.604 0-79.121 35.442-79.121 79.12M319.357 86.9v14.952l145.823 105.77s8.75-2.99 11.903-4.08c1.797 5.627 10.592 33.424 16.47 51.956-.869.338-15.203 6.614-15.203 6.614l-45.563 133.73s11.505 15.939 12.89 17.721c-20.61 16.175-42.986 33.838-64.346 50.705-.34-.456-10.577-13.759-10.577-13.759H208.24s-3.389 5.303-5.863 9.148a41056 41056 0 0 1-60.766-50.292c2.813-4.316 13.64-20.77 13.64-20.77l-34.47-128.088s-15.6-5.981-15.94-6.099c5.348-19.46 12.831-46.33 13.524-48.863a5223 5223 0 0 0 11.284 3.285l142.067-108.304s.295-13.287.295-13.626zM243.86 58.13c-.107 6.202-.633 27.901-.633 27.901l-119.455 91.097-25.323-7.424a321778 321778 0 0 1-28.359 102.13c5.922 2.313 26.693 10.312 26.693 10.312l27.327 101.439s-13.98 21.183-20.771 31.48c24.232 20.02 76.425 63.3 105.71 87.518 2.534-3.904 14.967-23.305 14.967-23.305h132.58s14.437 18.827 19.682 25.618a98380 98380 0 0 1 108.863-85.81c-5.583-7.763-20.314-28.077-20.314-28.077l36.724-107.596s19.725-8.633 27.209-11.977c-8.736-27.68-23.423-73.95-33.204-104.665-4.714 1.665-25.603 8.736-25.603 8.736L348.186 87.179v-29.05ZM215.723 29.3H376.97v43.148l97.815 71.019 39.362-13.42 49.894 157.387L524.68 304.7l-27.798 81.537 27.798 38.375-153.53 120.897-28.77-37.446H239.72l-23.998 37.446L65.141 420.766l27.783-42.19-20.137-74.864-37.403-14.377 43.163-155.429 39.361 11.505 96.902-73.876Z" style="fill:#612c75"/><path d="m221.542 35.222-.87 36.416-.058 2.887-2.24 1.665-96.9 73.891-2.358 1.841-2.887-.869-33.602-9.84L42.47 285.77l32.453 12.477 2.754 1.046.81 2.931 20.138 74.805.692 2.534-1.502 2.24-24.852 37.814 141.434 117.098 20.315-31.82 1.782-2.71h108.819l1.724 2.298 25.146 32.689 144.439-113.71-24.454-33.779-1.841-2.475.972-2.872 27.798-81.537.869-2.416 2.357-1.09 34.53-15.203-46.507-146.56-33.66 11.505-2.814 1.046-2.475-1.841-97.947-70.96-2.416-1.783V35.222Zm15.88 47.818.575-25.088.117-5.76h115.949V84.13l116.922 84.88c5.936-2.077 18.988-6.51 22.67-7.763l5.702-2.018 1.841 5.804 26.074 82.067 7.13 22.554 1.606 5.067-4.832 2.122-24.91 10.93-34.869 102.264 18.532 25.544 3.329 4.67-4.434 3.447-108.922 85.794-4.67 3.741-3.683-4.772-17.883-23.246H227.228l-13.17 20.594-3.623 5.583-5.127-4.198-53.68-44.488-52.03-43.089-4.081-3.403 2.931-4.434 19.283-29.168-25.897-96.106-23.82-9.148-5.068-1.9 1.503-5.17 21.92-79.063 6.452-23.084 1.606-5.745 5.7 1.665 22.436 6.555zm40.334 9.722a723 723 0 0 1-.177 7.881l-.045 2.829-2.253 1.723-142.068 108.289-2.357 1.841-2.887-.795-5.524-1.62-4.434 15.997-6.099 21.876c4.788 1.842 10.99 4.258 10.99 4.258l2.769 1.03.81 2.873 34.456 128.161.752 2.52-1.488 2.253-10.769 16.337 51.56 42.647 2.312-3.521 1.724-2.696h168.598l1.782 2.298s3.919 5.009 6.968 8.972c18.355-14.496 37.402-29.404 55.183-43.502-3.918-5.288-9.56-13.11-9.56-13.11l-1.841-2.475 1.046-2.887 45.622-133.73.81-2.475 2.416-.972 10.297-4.552-8.735-27.503-4.376-13.641-6.157 2.136-2.888.972-2.474-1.782L315.85 106.58l-2.357-1.738v-12.08zm-63.064 194.672c0-46.904 38.154-84.998 84.984-84.998 46.904 0 85.058 38.094 85.058 84.998 0 22.73-8.869 44.017-24.97 60.074-15.998 16.057-37.358 24.91-60.088 24.91-46.83 0-84.984-38.139-84.984-84.984" style="fill:url(#b)"/></svg>