<svg xmlns="http://www.w3.org/2000/svg" xml:space="preserve" width="150.001" height="106.512" viewBox="0 0 150.001 106.512"><g transform="translate(-5.076 -2.869)"><path d="m26.018 90.555 1.78-4.565a78 78 0 0 1-1.878-.703c-7.001-2.728-13.126-7.554-16.804-13.237-4.423-6.835-5.232-14.37-2.34-21.79 6.52-16.729 33.983-34.033 68.657-34.033 1.495 0 3.016.031 4.519.095l.623.026 5.254-13.479 48.305 18.827-1.779 4.564q1.031.373 1.878.704c7.001 2.729 13.126 7.555 16.804 13.238 4.423 6.834 5.231 14.369 2.34 21.788-6.52 16.729-33.982 34.033-68.654 34.033-1.497 0-3.018-.031-4.521-.095l-.623-.026-5.254 13.479zm88.664-18.949c11.608-5.282 17.924-12.37 19.4-16.159 1.048-2.688.821-5.064-.694-7.266-1.256-1.82-3.396-3.45-5.727-4.358a63 63 0 0 0-1.879-.699zM45.471 40.644c-11.609 5.282-17.924 12.37-19.4 16.159-1.048 2.688-.821 5.064.695 7.266 1.255 1.82 3.396 3.45 5.726 4.358q.935.364 1.88.699z"/><linearGradient id="a" x1="8.436" x2="151.717" y1="56.126" y2="56.126" gradientUnits="userSpaceOnUse"><stop offset="0" style="stop-color:#8d742f"/><stop offset=".134" style="stop-color:#9f8641"/><stop offset=".25" style="stop-color:#b39a54"/><stop offset=".265" style="stop-color:#b69d57"/><stop offset=".41" style="stop-color:#ceb46c"/><stop offset=".5" style="stop-color:#d7bd74"/><stop offset=".59" style="stop-color:#ceb46c"/><stop offset=".735" style="stop-color:#b69d57"/><stop offset=".75" style="stop-color:#b39a54"/><stop offset=".866" style="stop-color:#9f8641"/><stop offset="1" style="stop-color:#8d742f"/></linearGradient><path fill="url(#a)" d="M74.511 72.833c-3.807 9.08-11.7 14.442-17.881 12.035-6.33-2.469-8.465-12.152-4.771-21.63 3.308-8.489 10.171-13.935 16.115-13.205l-6.853 17.58zm2.661 1.037c-4.317 10.547-11.151 14.762-20.19 16.313-8.09 1.391-17.025-.768-25.839-3.569l-.795 2.039 42.076 16.399L83.6 76.374Zm5.808-35.49c4.317-10.547 11.151-14.762 20.19-16.313 8.09-1.391 17.025.768 25.838 3.569l.796-2.039L87.729 7.198 76.554 35.875Zm23.911 44.012 16.923-43.425a66 66 0 0 1 5.063 1.741c5.02 1.956 11.578 7.599 8.321 15.954-2.222 5.699-10.952 14.178-24.835 19.543l-3.851 9.878-13.991-5.452a83 83 0 0 1-9.762.621l-4.418 11.336c36.478 1.536 63.9-16.365 69.92-31.812 5.395-13.84-5.063-25.95-17.242-30.697-7.502-2.925-17.701-5.475-26.932-4.623 6.732 3.854 8.904 14.227 4.863 24.592-4.331 11.112-13.926 17.401-21.842 14.316a11 11 0 0 1-.71-.304l6.938-17.804-42.074-16.398-16.924 43.425a66 66 0 0 1-5.062-1.741c-5.019-1.956-11.579-7.598-8.322-15.954 2.222-5.699 10.951-14.178 24.835-19.543l3.851-9.878 13.991 5.453a83 83 0 0 1 9.762-.622l4.418-11.336c-36.477-1.535-63.9 16.364-69.92 31.812-5.395 13.84 5.063 25.951 17.243 30.697 7.502 2.925 17.701 5.475 26.931 4.623-6.732-3.854-8.904-14.227-4.864-24.592 4.332-11.112 13.926-17.401 21.842-14.316q.363.14.71.304l-6.938 17.803ZM99.03 44.637l-6.853 17.58c5.944.729 12.808-4.716 16.115-13.205 3.694-9.478 1.56-19.161-4.771-21.629-6.181-2.408-14.074 2.954-17.881 12.034ZM64.815 65.992" style="fill:url(#a)"/></g></svg>