<svg xmlns="http://www.w3.org/2000/svg" xml:space="preserve" width="150.001" height="106.512" viewBox="0 0 150.001 106.512"><g transform="translate(-4.52 -2.74)"><path d="m25.462 90.427 1.78-4.565a79 79 0 0 1-1.878-.703c-7.001-2.728-13.126-7.554-16.804-13.237-4.423-6.834-5.232-14.369-2.34-21.789C12.74 33.404 40.202 16.1 74.877 16.1c1.495 0 3.016.031 4.519.095l.623.026L85.273 2.74l48.305 18.827-1.779 4.564q1.031.373 1.878.704c7.001 2.729 13.126 7.555 16.804 13.238 4.423 6.834 5.231 14.369 2.34 21.788-6.52 16.729-33.982 34.033-68.654 34.033-1.497 0-3.018-.031-4.521-.095l-.623-.026-5.254 13.479zm88.664-18.948c11.608-5.282 17.924-12.37 19.4-16.159 1.048-2.688.821-5.064-.694-7.266-1.256-1.82-3.396-3.45-5.727-4.358a63 63 0 0 0-1.879-.699zM44.915 40.516c-11.608 5.282-17.924 12.37-19.4 16.159-1.048 2.688-.821 5.064.694 7.266 1.256 1.82 3.396 3.45 5.727 4.358q.934.365 1.879.699z"/><linearGradient id="a" x1="7.88" x2="151.161" y1="55.998" y2="55.998" gradientUnits="userSpaceOnUse"><stop offset="0" style="stop-color:#612c75"/><stop offset=".137" style="stop-color:#6e3e82"/><stop offset=".25" style="stop-color:#7b5190"/><stop offset=".358" style="stop-color:#a078ab"/><stop offset=".446" style="stop-color:#b790bd"/><stop offset=".5" style="stop-color:#bf99c3"/><stop offset=".554" style="stop-color:#b790bd"/><stop offset=".641" style="stop-color:#a078ab"/><stop offset=".75" style="stop-color:#7b5190"/><stop offset=".863" style="stop-color:#6e3e82"/><stop offset="1" style="stop-color:#612c75"/></linearGradient><path fill="url(#a)" d="M73.955 72.705c-3.807 9.08-11.7 14.442-17.881 12.035-6.33-2.469-8.465-12.152-4.771-21.63 3.308-8.489 10.171-13.935 16.115-13.205l-6.853 17.58zm2.661 1.037c-4.317 10.547-11.151 14.762-20.19 16.313-8.09 1.391-17.025-.768-25.839-3.569l-.796 2.039 42.076 16.399 11.176-28.678zm5.809-35.49c4.317-10.547 11.151-14.762 20.19-16.313 8.09-1.391 17.025.768 25.838 3.569l.796-2.039L87.174 7.07 75.998 35.747Zm23.91 44.012 16.923-43.425a66 66 0 0 1 5.063 1.741c5.02 1.956 11.578 7.599 8.321 15.954-2.222 5.699-10.952 14.178-24.835 19.543l-3.851 9.878-13.991-5.452a83 83 0 0 1-9.762.621L79.785 92.46c36.478 1.536 63.9-16.365 69.92-31.812 5.395-13.84-5.063-25.95-17.242-30.697-7.502-2.925-17.701-5.475-26.932-4.623 6.732 3.854 8.904 14.227 4.863 24.592-4.331 11.112-13.926 17.401-21.842 14.316a11 11 0 0 1-.71-.304l6.938-17.804L52.706 29.73 35.783 73.155a66 66 0 0 1-5.063-1.741c-5.019-1.956-11.578-7.598-8.321-15.954 2.222-5.699 10.951-14.178 24.835-19.543l3.851-9.878 13.991 5.453a83 83 0 0 1 9.762-.622l4.418-11.336c-36.477-1.535-63.9 16.364-69.92 31.812-5.395 13.84 5.063 25.951 17.242 30.697 7.503 2.925 17.701 5.475 26.932 4.623-6.732-3.854-8.904-14.227-4.863-24.592 4.331-11.112 13.926-17.401 21.842-14.316q.362.14.71.304L64.26 65.864Zm-7.86-37.755-6.853 17.58c5.944.729 12.808-4.716 16.115-13.205 3.694-9.478 1.56-19.161-4.771-21.629-6.181-2.408-14.074 2.954-17.881 12.034zM64.26 65.864" style="fill:url(#a)"/></g></svg>