<svg xmlns="http://www.w3.org/2000/svg" xml:space="preserve" width="150.001" height="102.445" viewBox="0 0 150.001 102.445"><path d="M69.174 68.713c-3.986 9.506-12.25 15.12-18.72 12.6-6.626-2.584-8.862-12.722-4.994-22.644 3.463-8.888 10.648-14.589 16.87-13.825l-7.173 18.405zm2.785 1.086c-4.52 11.042-11.674 15.454-21.138 17.078-8.47 1.456-17.823-.803-27.05-3.736l-.833 2.135 44.048 17.169 11.702-30.024zm6.08-37.154c4.522-11.042 11.675-15.454 21.14-17.079 8.47-1.455 17.822.804 27.05 3.737l.832-2.135L83.013 0l-11.7 30.023zm25.032 46.075 17.718-45.461a69 69 0 0 1 5.3 1.823c5.254 2.048 12.121 7.955 8.711 16.702-2.326 5.966-11.465 14.843-26 20.459l-4.032 10.342-14.646-5.708a87 87 0 0 1-10.22.65l-4.625 11.868c38.19 1.608 66.897-17.133 73.2-33.304 5.647-14.488-5.302-27.167-18.052-32.137-7.854-3.062-18.53-5.731-28.195-4.84 7.05 4.034 9.322 14.894 5.093 25.745-4.534 11.634-14.58 18.218-22.866 14.988a13 13 0 0 1-.744-.318l7.264-18.639-44.05-17.166-17.716 45.461a69 69 0 0 1-5.3-1.823c-5.252-2.048-12.12-7.954-8.71-16.702 2.325-5.966 11.464-14.843 26-20.459l4.03-10.342 14.648 5.709a87 87 0 0 1 10.22-.651l4.624-11.867c-38.188-1.608-66.897 17.131-73.2 33.303-5.646 14.488 5.302 27.168 18.052 32.137 7.854 3.062 18.53 5.731 28.195 4.84-7.05-4.034-9.322-14.894-5.092-25.745 4.535-11.634 14.58-18.218 22.866-14.988q.38.148.744.318l-7.264 18.638zm-8.228-39.525L87.67 57.6c6.223.764 13.408-4.938 16.87-13.825 3.868-9.922 1.634-20.06-4.993-22.643-6.47-2.521-14.735 3.093-18.72 12.599zm-35.82 22.357"/></svg>