<svg xmlns="http://www.w3.org/2000/svg" width="600" height="712.714">/&gt;<path d="M875.002 550.608c-105.44 55.895-203.882 148.683-301.428 246.2 5.815 86.35 57.047 163.837 103.551 242.247-8.687 13.887-21.554 25.683-36.78 36.3 13.719 64.206 60.657 97.147 136.252 103.118 53.082 49.99 74.894 64.91 98.405 84.849 33.063-27.994 65.446-56.774 98.09-85.257 85.262-3.814 119.547-54.782 135.76-101.072-10.157-8.051-37.979-26.451-38.83-37.938 49.206-71.569 94.485-145.59 103.552-242.246-91.26-88.375-180.52-178.274-298.572-246.201" style="fill:#fff;stroke-width:50.8" transform="translate(-573.574 -550.608)"/><path d="m875.002 581.454-.785.533-84.943 57.141-.22.126v515.559l.157.157 84.943 74.117.848.722.847-.722 84.943-74.117.157-.157V639.254l-.22-.126-84.943-57.14zM751.086 662.16l-.848.816-149.615 142.869-.189.188.031.251c16.179 97.024 57.17 149.815 82.025 186.831 12.428 18.509 20.777 33.047 20.114 47.132-.663 14.084-10.31 27.926-34.234 45.123l-.377.283.251.376c26.443 43.627 56 57.989 82.245 62.507l.596.094v-486.47zm244.976 0v486.47l.597-.094c26.245-4.518 55.8-18.88 82.244-62.507l.251-.376-.376-.283c-23.924-17.197-33.572-31.039-34.235-45.123-.663-14.085 7.686-28.624 20.114-47.132 24.855-37.016 65.847-89.807 82.025-186.83l.031-.252-.188-.188-149.616-142.87z" style="stroke-width:50.8" transform="translate(-573.574 -550.608)"/></svg>