<svg xmlns="http://www.w3.org/2000/svg" xmlns:xlink="http://www.w3.org/1999/xlink" width="600" height="712.693"><linearGradient id="a" x1="4.786" x2="38.468" y1="34.353" y2="14.906" gradientUnits="userSpaceOnUse"><stop offset=".3" style="stop-color:#bf331c"/><stop offset=".4" style="stop-color:#d3641c"/><stop offset=".5" style="stop-color:#f6b91d"/><stop offset=".6" style="stop-color:#d3641c"/><stop offset=".7" style="stop-color:#bf331c"/></linearGradient><linearGradient xlink:href="#a" id="b" x1="4.786" x2="38.468" y1="34.353" y2="14.906" gradientTransform="scale(14.25415)" gradientUnits="userSpaceOnUse"/><path d="M301.418 0C195.98 55.89 97.555 148.685 0 246.183c5.816 86.366 57.045 163.838 103.556 242.25-8.68 13.883-21.552 25.686-36.775 36.29 13.712 64.216 60.651 97.143 136.255 103.115 53.083 50.004 74.891 64.914 98.397 84.855 33.055-27.995 65.455-56.774 98.097-85.254 85.254-3.82 119.55-54.778 135.742-101.076-10.149-8.04-37.973-26.441-38.828-37.93 49.205-71.57 94.49-145.592 103.556-242.25C508.73 157.822 419.485 67.935 301.418 0" style="fill:#fff"/><path d="m301.406 18.781-5.562 3.782-.781.5-84.5 56.875-.125.062-4.97 2.813v525.562l2.938 2.906.156.157.25.25.25.218L294 686.031l.063.031.03.032.876.75 6.468 5.5 6.47-5.5.843-.75.062-.032.063-.03 84.937-74.126.25-.218.25-.25.157-.157 2.906-2.906V82.438l-5.094-2.532-84.5-56.844-.781-.5zM16.375 251.75l.531 4.781.032.25.03.281.063.25c16.533 99.151 59.102 154.35 83.563 190.782 12.234 18.21 18.905 31.227 18.437 41.062v.031c-.457 9.816-7.176 20.99-30.062 37.438l-.156.094-.126.125-.374.28-7.532 5.782 5.406 7.844.25.281.032.063c27.581 45.213 60.374 61.786 88.75 66.687h.031l.031.031.594.094 11.656 1.938V88.718ZM412.5 89.531v520.282l11.625-1.938.625-.094h.031c28.385-4.887 61.156-21.477 88.75-66.687h.031c.083-.135.168-.24.25-.375l.063-.125 5.344-7.688-7.532-5.812-.375-.281-.125-.094-.125-.094c-22.897-16.447-29.604-27.646-30.062-37.469-.467-9.815 6.174-22.885 18.406-41.094 24.46-36.444 67.062-91.613 83.594-190.75l.031-.28.031-.25.032-.282.53-4.781z" style="stroke-width:20"/><path d="m301.418 30.846-.784.527-84.926 57.145-.228.129v515.572l.157.157 84.94 74.107.856.727.855-.727 84.94-74.107.157-.157V88.632l-.228-.114-84.955-57.145zm-123.911 80.693-.855.826L27.04 255.235l-.185.185.028.257c16.179 97.028 57.174 149.825 82.019 186.829 12.43 18.502 20.782 33.041 20.112 47.138-.655 14.07-10.305 27.924-34.224 45.115l-.37.285.256.37c26.442 43.632 56.005 57.986 82.247 62.52l.598.099V111.538zm244.986 0v486.48l.599-.1c26.242-4.519 55.79-18.887 82.246-62.519l.257-.37-.37-.286C481.29 517.554 471.654 503.7 471 489.63c-.67-14.083 7.683-28.636 20.113-47.138 24.845-37.018 65.84-89.816 82.018-186.83l.028-.256-.185-.185-149.64-142.856z" style="fill:url(#b)"/></svg>