<svg xmlns="http://www.w3.org/2000/svg" width="42.093" height="49.999"><path d="M21.146 0C13.749 3.921 6.844 10.431 0 17.271c.408 6.059 4.002 11.494 7.265 16.995-.609.974-1.512 1.802-2.58 2.546.962 4.505 4.255 6.815 9.559 7.234 3.724 3.508 5.254 4.554 6.903 5.953 2.319-1.964 4.592-3.983 6.882-5.981 5.981-.268 8.387-3.843 9.523-7.091-.712-.564-2.664-1.855-2.724-2.661 3.452-5.021 6.629-10.214 7.265-16.995C35.69 11.072 29.429 4.766 21.146 0"/><linearGradient id="a" x1="4.786" x2="38.468" y1="34.353" y2="14.906" gradientUnits="userSpaceOnUse"><stop offset="0" style="stop-color:#8b723c"/><stop offset=".4" style="stop-color:#d2bb7b"/><stop offset=".5" style="stop-color:#ebd491"/><stop offset=".6" style="stop-color:#d2bb7b"/><stop offset="1" style="stop-color:#8b723c"/></linearGradient><path fill="url(#a)" d="m21.146 2.164-.055.037-5.958 4.009-.016.009v36.17l.011.011 5.959 5.199.06.051.06-.051 5.959-5.199.011-.011V6.218l-.016-.008-5.96-4.009Zm-8.693 5.661-.06.058L1.897 17.906l-.013.013.002.018c1.135 6.807 4.011 10.511 5.754 13.107.872 1.298 1.458 2.318 1.411 3.307-.046.987-.723 1.959-2.401 3.165l-.026.02.018.026c1.855 3.061 3.929 4.068 5.77 4.386l.042.007V7.825Zm17.187 0v34.129l.042-.007c1.841-.317 3.914-1.325 5.77-4.386l.018-.026-.026-.02c-1.679-1.206-2.355-2.178-2.401-3.165-.047-.988.539-2.009 1.411-3.307 1.743-2.597 4.619-6.301 5.754-13.107l.002-.018-.013-.013L29.699 7.883Z" style="fill:url(#a)"/></svg>