<svg xmlns="http://www.w3.org/2000/svg" width="546.279" height="648.356"><path d="m875.002 581.454-.785.533-84.943 57.141-.22.126v515.559l.157.157 84.943 74.117.848.722.847-.722 84.943-74.117.157-.157V639.254l-.22-.126-84.943-57.14zM751.086 662.16l-.848.816-149.615 142.869-.189.188.031.251c16.179 97.024 57.17 149.815 82.025 186.831 12.428 18.509 20.777 33.047 20.114 47.132-.663 14.084-10.31 27.926-34.234 45.123l-.377.283.251.376c26.443 43.627 56 57.989 82.245 62.507l.596.094v-486.47zm244.976 0v486.47l.597-.094c26.245-4.518 55.8-18.88 82.244-62.507l.251-.376-.376-.283c-23.924-17.197-33.572-31.039-34.235-45.123-.663-14.085 7.686-28.624 20.114-47.132 24.855-37.016 65.847-89.807 82.025-186.83l.031-.252-.188-.188-149.616-142.87z" style="stroke-width:50.8" transform="translate(-600.434 -581.454)"/></svg>