<svg xmlns="http://www.w3.org/2000/svg" width="454.338" height="414.692"><path fill="#fff" d="M322.919.594c5.78-.94 11.63-.49 17.46-.46 7.229.12 14.58 1.61 20.899 5.25 8.29 4.74 14.36 13.08 16.4 22.4 2.62 11.02.09 22.34-2.75 33.04-6.811 31.34-9.42 63.46-9.57 95.48 20.45-6.57 40.73-13.84 60.32-22.71 9.53-4.28 19.14-8.41 28.66-12.72v1.84c-1.2 12.13-2.03 24.3-3.13 36.44-1.15 12.38-4.21 24.56-8.851 36.08-4.52 10.92-10.86 21.37-19.96 29.069-4.82 4.02-10.14 7.42-15.72 10.28-11.84 6.13-25.18 8.47-38.271 10.2 1.75 30.42 4.32 60.83 8.46 91.03.75 5.7 2.09 11.31 4.19 16.66 3.24 8.87 3.7 19.199-.87 27.69-3.27 6.509-9.35 11.17-16 13.889-14.2 5.85-29.75 6.64-44.89 7.53-8.67.48-17.53-1.71-24.74-6.59-9.73-6.41-15.92-17.09-18.74-28.21-2.3-8.34-2.16-17.05-2.67-25.61-1.39-26-2.83-52-4.15-78.01-7.57 1.03-15.07 2.46-22.64 3.44.86 19.93 2.84 39.8 4.28 59.699 1.45 15.32 2.3 30.73 4.81 45.94 1.31 8.95-.61 18.6-6.32 25.77-4.5 5.87-11.14 9.79-18.2 11.76-19.05 5.3-39.03 5.33-58.63 4.562-7.9-.491-15.69-3.271-21.93-8.181-9.62-7.44-15.18-19.09-17.16-30.9-2.93-18.56-3.65-37.37-5.04-56.09-.77-12.98-1.88-25.96-2.29-38.97-10.83-.05-21.67.76-32.51.45-18.52-.44-37.28-1.26-55.24-6.221-10.43-3-20.79-7.63-28.43-15.56-6.07-6.29-9.58-14.9-9.64-23.64-.7-10.95 5.27-21.04 12.42-28.84 9.74-9.77 21.66-17.09 34.05-23.01 22.66-10.53 47-16.86 71.46-21.59.06-4.38.35-8.78-.26-13.14-.93-6.41-.47-12.93-1.44-19.34-.49-12.58-1.95-25.09-2.53-37.66-.5-3.24-.02-7.59-3.56-9.21-10-5.72-15.77-18.84-11.79-29.9 2.65-9.11 10.48-15.45 18.56-19.73 21.87-12.69 46.5-19.74 71.3-23.96 9.51-1.99 19.54-3.22 29.09-.81 8.31 2.22 16.11 7.09 20.84 14.4 6.57 9.14 8.02 20.9 7.26 31.87-1.33 11.6-1.63 23.28-2.78 34.89-.14 4.5-.464 8.165-.69 13.48-.648 9.56-.273 18.31-.938 27.95-.44 9.19-.335 18.235-.33 27.62.2 8.95-.2 17.95.91 26.86 7.91-.56 15.62-2.6 23.37-4.14.6-17.9.24-35.82.35-53.73-.63-23.32-.16-46.66-.32-69.99.14-2.35-1.64-4.09-2.84-5.9-4.63-6.21-6.67-14.7-4.02-22.14 2.46-8.1 9.41-14.02 17.02-17.2 14.89-7.167 31.42-9.857 47.73-11.407"/><path d="M280.368 33.344c15.58-8.41 33.55-10.35 50.92-11.6 7.14.11 15.32-1.61 21.39 3.2 4.12 3.08 4.8 8.5 4.46 13.29.512 7.64-2.46 14.82-3.83 22.2-8.42 40.88-10.08 82.79-9.34 124.41 27.63-7.88 55-16.88 81.5-28.04.902-.398 4.574-2.367 4.574-2.367s-.031.89-.104 1.917c-.53 8.98-2.7 17.79-5.41 26.33-3.13 8.67-7.19 17.31-13.85 23.84-5.9 5.45-13.05 9.47-20.6 12.16-9.73 3.21-19.99 4.25-30.04 6.04-4.74.72-9.4 1.94-14.19 2.329 1.38 28.26 3.68 56.47 6.38 84.64 2.16 16.43 3 33.34 8.99 48.972 1.08 4.259 1.77 10.13-2.851 12.55-8.83 4.539-19 5.05-28.68 6.27-5.13.31-10.28.43-15.42.38-6.52-.04-12.24-4.73-14.91-10.47-5.94-11.5-3.66-24.82-5.31-37.18-.54-16.681-2.01-33.291-2.521-49.971-1.06-7.41-.45-14.92-1.37-22.34-.57-7.27-.23-14.59-1.26-21.82-21.73 3.89-43.54 7.34-65.38 10.61 2.37 34.109 4.78 68.22 7.81 102.27.7 7.41 1.46 14.82 2.62 22.17.16 4.81 1.21 11.03-3.6 14.05-7.35 3.88-15.94 4.21-24.02 5.41-8.65.63-17.34.3-26 .36-4.98-.28-10.33.65-14.85-2-6.63-3.75-10.06-11.23-11.22-18.49-2.93-19.67-3.6-39.57-5.22-59.36-1.01-18.56-2.36-37.11-3.17-55.67-10.51.44-20.98 1.54-31.51 1.48-23.66.09-47.74 1.06-70.82-5.1-7.72-2.08-15.92-5.2-20.55-12.141-2.55-5.36-1.58-12.17 2.05-16.84 4.94-6.37 11.5-11.28 18.33-15.46 14.53-8.67 30.58-14.49 46.84-19.02 16.7-4.52 33.69-8.27 50.92-10.08-.31-16.21-1.85-32.33-2.66-48.5-1.22-15.87-2.18-31.75-3.6-47.6-.25-6.72-2.9-13.75-8.66-17.62-2.37-1.43-5.41-1.99-7.02-4.45-.87-2.66.38-5.74 2.77-7.16 19.05-12.31 41.05-19.23 63.18-23.49 9.08-1.58 18.3-4.13 27.56-2.38 4.42 1.18 8.17 4.54 9.58 8.92 3.24 9.18.42 18.85.39 28.25-1 5.96-.53 12.03-1.48 17.99-1.48 30.14-3.19 60.35-1.72 90.53.3 12.01.85 24 1.52 35.99 20.98-3.36 41.89-7.18 62.71-11.45 1.27-.38 2.729-.38 3.81-1.23-1.101-12.57-.48-25.21-.87-37.8.14-34.37.32-68.74.21-103.12-.06-4-.97-8-2.61-11.66-1.31-2.88-3.77-4.99-5.32-7.72-.187-1.61-.367-3.68 1.452-4.43m-166.28 174.41c-4.91 1.98-10.03 4.14-13.44 8.38 2.59 1.72 5.38 3.38 8.56 3.56 11.48 1.83 23.12.66 34.63.05-.61-7.05-1.21-14.1-1.22-21.18-9.64 2.62-19.26 5.43-28.53 9.19"/></svg>