<svg xmlns="http://www.w3.org/2000/svg" width="441.71" height="514.76" viewBox="0 0 441.71 514.76"><g data-name="Layer_1"><path d="M129.28 89.81c31.96-17.07 64.44-29.57 91.91-30.32 0 0 25.07-7.48 91.84 29.31 0-.03.02-.05.03-.08C331.31 37.06 359.28 0 359.28 0H82.85c30.35 42.7 46.35 88.33 46.35 88.33l.08 1.47zm253.56 44.01c9.18-23.19 26-46.23 55.74-63.59L384.35 7.06s-30.48 40.72-50.67 93.77c14.69 8.98 31.03 19.85 49.16 33zm-4.59 98.62c-16.63 11.29-31.93 24.52-41.16 39.08l20.39 37.79s-44.05-2.91-33.04 22.78c0 0 12.54 16.02 27.98-6.32 0 0 8.55-19.01 9.74-26.73 0 0 1.19-6.06 12.48-7.37 0 0 13.07-1.07 15.09 15.92s5.91 30.98-3.96 55.02c-9.84 23.97-35.02 40.07-63.28 42.81 0 .04.02.07.03.11 0 0 1.71 17.83 14.53 52.63 0 0 76.6-54.54 104.66-148.44 0 0-45.18-20.1-63.45-77.28zM58.97 134.07c15.32-10.92 32.08-22.12 49.38-32.42C88.16 48.2 57.37 7.06 57.37 7.06L3.14 70.23c29.84 17.43 46.68 40.57 55.84 63.85zm193.21 237.35c-25.69-39.87 4.34-85.07 4.34-85.07L229 269.67s47.21-21.19 35.53-59.89-50.5-32.69-50.5-32.69-28.73 1.33-37.24 35.86 33.2 55.43 36.03 56.72l-27.52 16.97s28.01 40.95 5.34 83.57c0 0-12.8 24.39-44.62 33.09l-.34.09c-.95 11.86-19.57 69.2-19.57 69.2 48.44 31.25 95.1 42.17 95.1 42.17 54.06-14.84 94.81-42.1 94.81-42.1-11.18-28.67-18.9-66.59-19.45-69.33-14.25-3.57-31.62-12.09-44.38-31.89zm-195.7-9.22c-16.01-37.04.79-66.29.79-66.29s17.39-13.04 23.91 6.92 10.28 31.03 21.54 34.58c11.26 3.56 16.01-7.9 16.01-7.9s2.77-15.02-11.46-18.77c-5.63-1.49-10.42-1.57-14.04-1.7-5.51-.2-8.42.11-8.42.11l19.83-36.96s-11.68-19.2-40.97-40.43C45.54 289.47 0 309.74 0 309.74c28.07 93.91 104.66 148.44 104.66 148.44 12.35-33.53 14.39-51.3 14.52-52.55-25.36-2.14-50.95-16.23-62.7-43.42z"/><path d="M481.94 225.8s-76.01 35.91-100.56 85.99l10.98 20.1s-28.04 12.16-20.2 42.83c7.84 30.68 43.35 24.51 43.35 24.51s15.17-4.17 23.84-21.17c0 0-.67 19.84-17 33.51-16.34 13.67-36.34 13-36.34 13s-24.67.67-42.68-19.84-6.17-51.02-6.17-51.02 3.33-13.34 20.01-33.84L338 308.03s35.05-31.67 10.5-79.19c0 0-22.63-44.01-75.53-30.63s-49.07 69.15-49.07 69.15 1.55 25.25 18.28 40.54l-19.37 12.22s36.01 35.7 21.53 74.73c0 0-15.32 33.15-55.81 29.37s-46.79-45.95-46.79-45.95 12.8 27.7 42.38 20.35c0 0 33.78-5.66 24.34-44.69 0 0-2.94-14.06-20.77-22.24l11.75-19.93s-26.35-50.68-100.14-85.87c0 0 116.94-103.64 191.33-104.15s191.33 104.05 191.33 104.05z" style="fill-rule:evenodd" transform="translate(-69.48 -40.26)"/></g></svg>