<svg xmlns="http://www.w3.org/2000/svg" xml:space="preserve" width="885.66" height="958.522" style="clip-rule:evenodd;fill-rule:evenodd;stroke-linejoin:round;stroke-miterlimit:2" viewBox="0 0 885.66 958.522"><path d="M141.372 341.081C132.455 205.903 0 181.035 0 181.035L155.33 0h574.98l155.35 181.035s-128.685 31.554-141.253 159.846a1257 1257 0 0 0-41.092-32.681c10.662-50.413 38.83-105.575 104.804-144.099L717.013 57.987s-51.734 69.105-85.645 158.897c-3.714 9.836-7.474 21.082-11.154 33.592-10.244-6.38-20.723-12.611-31.326-18.545 2.467-15.372 5.243-27.902 8.37-36.747 30.661-86.78 77.647-149.045 77.647-149.045H210.547c50.993 71.726 77.866 148.389 77.866 148.389l2.19 41.697a818 818 0 0 0-25.745 15.398c-3.787-12.97-7.662-24.603-11.49-34.739-33.91-89.792-85.645-158.897-85.645-158.897L76.617 164.101c66.436 38.793 94.534 94.458 105.025 145.156a1276 1276 0 0 0-40.269 31.824m602.158 27.545c4.165 137.661 128.586 171.036 128.586 171.036s-75.429 334.319-429.178 418.86c0 0-326.007-48.326-428.569-418.86 0 0 120.08-26.26 127.158-171.503 16.178 8.669 30.822 17.728 44.03 26.869-2.397 23.673-6.722 38.803-6.722 38.803-30.108 98.196-107.477 132.607-107.477 132.607 47.15 157.757 175.823 249.37 175.823 249.37 21.54-58.463 24.407-88.413 24.407-88.413a850 850 0 0 0 8.115-35.753c13.212.269 24.677-1.857 34.538-5.366l1.867 35.531c.816 14.289-32.932 118.223-32.932 118.223 81.381 52.495 159.762 70.835 159.762 70.835 90.818-24.924 159.273-70.732 159.273-70.732-19.497-49.993-32.724-116.745-32.724-116.745s-.094-14.382-.069-38.464c18.587 7.219 33.644 6.812 33.644 6.812s.702.024 1.988-.006a850 850 0 0 0 8.097 35.665s2.868 29.95 24.407 88.413c0 0 128.673-91.613 175.823-249.37 0 0-77.369-34.411-107.477-132.607 0 0-4.236-14.819-6.647-38.073 16.948-11.476 32.588-20.671 44.277-27.132M587.954 557.604c1.38 25.284 3.783 51.138 7.396 77.342-6.819-6.207-12.45-14.881-15.534-26.949-5.713-22.366-.074-38.873 8.138-50.393m-298.73 78.508c3.731-26.809 6.195-53.255 7.59-79.103 6.46 8.814 7.977 16.076 7.977 16.076 8.162 33.736-2.903 52.632-15.568 63.027"/><path d="M45.279 370.449s244.91-220.198 397.66-224.377c0 0 98.634-29.436 396.146 223.4 0 0-152.21 55.047-201.447 132.794l34.245 63.476s-74.006-4.881-55.512 38.273c0 0 21.058 26.91 47.006-10.615 0 0 14.371-31.936 16.367-44.91 0 0 1.996-10.18 20.96-12.376 0 0 21.955-1.796 25.348 26.747s9.927 52.037-6.649 92.426-59.078 67.483-106.717 71.966c0 0-74.54 9.808-117.695-57.166-43.156-66.975 7.285-142.916 7.285-142.916l-46.237-28.023s79.304-35.589 59.688-100.602-84.839-54.924-84.839-54.924-48.269 2.241-62.56 60.249c-14.292 58.007 55.765 93.109 60.53 95.277l-46.239 28.509s47.061 68.795 8.968 140.394c0 0-21.51 40.98-74.958 55.586s-123.493-6.823-150.382-69.049 1.328-111.358 1.328-111.358 29.213-21.909 40.168 11.619c10.955 33.529 17.262 52.12 36.185 58.095 18.922 5.975 26.89-13.279 26.89-13.279s4.647-25.229-19.255-31.537c-9.463-2.497-17.508-2.631-23.579-2.853-9.263-.338-14.147.187-14.147.187l33.312-62.096s-52.69-86.6-201.87-132.917m718.965-12.629S567.792 182.172 442.828 183.024s-321.415 174.96-321.415 174.96c123.957 59.118 168.222 144.255 168.222 144.255l-19.738 33.484c29.96 13.747 34.894 37.362 34.894 37.362 15.861 65.559-40.886 75.075-40.886 75.075-49.697 12.336-71.198-34.189-71.198-34.189s10.574 70.846 78.6 77.19 93.756-49.345 93.756-49.345c24.32-65.559-36.17-125.533-36.17-125.533l32.54-20.523c-28.104-25.699-30.707-68.111-30.707-68.111s-6.424-93.68 82.438-116.163 126.883 51.455 126.883 51.455c41.233 79.826-17.644 133.03-17.644 133.03l32.207 19.885c-28.006 34.448-33.607 56.853-33.607 56.853s-19.885 51.252 10.362 85.7 71.697 33.327 71.697 33.327 33.607 1.12 61.054-21.845c27.446-22.965 28.566-56.293 28.566-56.293-14.563 28.567-40.049 35.568-40.049 35.568s-59.654 10.363-72.817-41.169 33.933-71.957 33.933-71.957l-18.439-33.769c41.253-84.129 168.934-144.451 168.934-144.451"/></svg>