<svg xmlns="http://www.w3.org/2000/svg" width="600" height="503.196"><path d="M171.376 0S139.73 3.342 139.73 36.157L22.14 68.986S-7.304 80.263 1.72 118.73l97.29 363.013s20.367 27.176 44.105 20.354l156.937-43.143 156.868 43.143c23.737 6.822 44.106-20.354 44.106-20.354L598.26 118.73c9.077-38.468-20.3-49.745-20.3-49.745l-117.602-32.83C460.357 3.343 428.655 0 428.655 0Z"/><path d="M172.393 13.547c-1.444.26-5.955 1.279-10.26 4.126-6.01 4.03-8.857 9.888-8.857 18.484v10.315S28.467 81.28 26.652 81.776c-3.232 1.5-13.066 7.413-13.066 23.036 0 3.177.44 6.726 1.403 10.7.165.701 94.814 354.143 96.382 359.837 4.14 4.73 16.49 16.971 28.042 13.698L300.05 444.83l160.622 44.217c11.553 3.273 23.862-8.967 27.988-13.698 1.568-5.694 96.271-359.135 96.437-359.837.922-3.974 1.347-7.523 1.347-10.7 0-15.623-9.778-21.537-13.05-23.036-1.83-.495-126.64-35.304-126.64-35.304V36.157c0-8.596-2.847-14.455-8.802-18.484-4.305-2.847-8.87-3.865-10.315-4.126z" style="fill:gray"/><path d="M449.505 64.42v349.095s-3.012 22.61-21.11 22.61h-98.047l131.19 36.212s7.58 3.754 11.278-4.511l96.547-358.172s3.755-11.278-5.267-14.29zm-413.57 31.7c-9.022 2.999-5.212 14.29-5.212 14.29l96.436 358.172c3.824 8.266 11.333 4.511 11.333 4.511l131.205-36.157h-98.005c-18.154 0-21.11-22.679-21.11-22.679V65.176Zm138.026-65.602H426.51c5.268 0 6.066 6.767 6.066 6.767v375.473c0 6.024-6.066 7.578-6.066 7.578H173.961c-5.322 0-5.322-7.578-5.322-7.578V37.285c0-4.511 5.322-6.767 5.322-6.767"/><path d="M319.442 197.055c33.255-16.972 49.91-36.309 49.91-57.915 0-12.075-4.305-22.019-12.9-29.762-8.597-7.784-19.076-11.648-31.427-11.648-12.845 0-23.586 4.084-32.072 12.24-8.596 8.17-12.79 17.356-12.79 27.506 0 7.042 1.994 13.808 6.023 20.313 4.085 6.45 13.7 18.003 28.896 34.493zm-21.277 29.019c-22.293 9.723-39.003 20.3-50.13 31.645-11.167 11.388-16.75 23.793-16.75 37.23 0 14.4 5.583 26.269 16.75 35.772 11.182 9.407 24.66 14.138 40.407 14.138 15.472 0 28.36-4.676 38.62-14.028s15.416-20.41 15.416-33.145c0-18.594-14.77-42.497-44.313-71.612M285.65 212.43c-24.453-23.971-36.693-45.509-36.693-64.584 0-17.99 7.84-33.351 23.476-45.977 15.68-12.68 34.108-19.02 55.384-19.02 20.74 0 37.711 5.583 50.873 16.655 13.107 11.167 19.722 25.195 19.722 42.277 0 13.643-4.73 25.567-14.18 35.827-9.462 10.26-26.914 21.22-52.44 32.828 28.8 29.28 43.198 53.83 43.198 73.758 0 19.667-7.853 37.175-23.586 52.55-15.693 15.308-37.285 22.996-64.626 22.996-26.819 0-47.765-7.207-62.756-21.606s-22.513-29.817-22.513-46.252c0-16.063 7.468-31.054 22.348-45.014 14.895-13.918 35.525-25.415 61.793-34.438" style="fill:gray"/></svg>