<?xml version="1.0" encoding="UTF-8" standalone="no"?>
<svg
   version="1.1"
   id="Layer_1"
   x="0px"
   y="0px"
   width="255.67599"
   height="255.67599"
   xmlns="http://www.w3.org/2000/svg"
   xmlns:svg="http://www.w3.org/2000/svg">
  <defs
     id="defs3" />
  <circle
     cx="127.838"
     cy="127.838"
     r="127.838"
     id="circle1" />
  <linearGradient
     id="SVGID_1_"
     gradientUnits="userSpaceOnUse"
     x1="211.644"
     y1="44.111301"
     x2="44.076"
     y2="211.67931">
    <stop
       offset="0.1"
       style="stop-color:#8F743F"
       id="stop1" />
    <stop
       offset="0.5"
       style="stop-color:#EBD491"
       id="stop2" />
    <stop
       offset="0.9"
       style="stop-color:#8F743F"
       id="stop3" />
  </linearGradient>
  <path
     fill="url(#SVGID_1_)"
     d="M 11.666,148.865 C 9.156,136.668 8.799,124.472 10.59,112.272 12.381,100.076 15.879,88.506 21.083,77.564 26.284,66.625 33.056,56.578 41.397,47.429 49.738,38.28 59.29,30.659 70.052,24.559 c 4.843,6.458 9.64,12.961 14.395,19.507 4.75,6.55 9.505,13.049 14.26,19.507 4.751,6.457 9.505,12.961 14.26,19.507 4.75,6.549 9.552,13.049 14.395,19.506 5.02,-6.457 9.908,-13.002 14.663,-19.641 4.751,-6.635 9.506,-13.272 14.26,-19.91 4.751,-6.635 9.46,-13.227 14.126,-19.775 4.662,-6.547 9.417,-13.05 14.26,-19.508 13.272,7.177 24.573,16.594 33.901,28.252 9.324,11.662 16.366,24.484 21.121,38.475 4.751,13.991 6.903,28.432 6.457,43.318 -0.449,14.891 -3.901,29.152 -10.358,42.781 -3.767,9.148 -8.879,17.488 -15.336,25.021 -6.458,7.533 -13.453,14.529 -20.986,20.986 -3.41,-5.557 -6.907,-11.072 -10.493,-16.547 -3.591,-5.469 -7.177,-10.984 -10.763,-16.547 6.276,-7.533 12.107,-15.559 17.488,-24.08 5.382,-8.518 8.518,-17.893 9.417,-28.117 1.434,-9.148 0.808,-18.068 -1.883,-26.771 -2.69,-8.698 -5.563,-17.262 -8.61,-25.695 -5.204,6.281 -10.224,12.646 -15.067,19.104 -4.843,6.457 -9.644,13.008 -14.395,19.641 -4.754,6.639 -9.417,13.277 -13.99,19.912 -4.574,6.637 -9.194,13.275 -13.856,19.91 7.353,11.838 14.84,23.588 22.466,35.246 7.622,11.662 15.021,23.5 22.197,35.516 -8.609,3.947 -16.908,7.088 -24.888,9.416 -7.983,2.334 -17.893,3.498 -29.73,3.498 -9.148,0 -18.208,-1.164 -27.175,-3.498 -8.971,-2.328 -17.758,-5.469 -26.368,-9.416 7.172,-12.016 14.618,-23.854 22.332,-35.516 7.71,-11.658 15.244,-23.496 22.601,-35.516 -4.667,-6.457 -9.375,-12.957 -14.125,-19.508 -4.755,-6.545 -9.509,-13.049 -14.26,-19.506 -4.755,-6.457 -9.552,-12.915 -14.395,-19.373 -4.843,-6.457 -9.778,-12.822 -14.798,-19.103 -4.667,8.61 -7.761,17.581 -9.283,26.905 -1.526,9.329 -1.526,18.611 0,27.848 1.522,9.242 4.439,18.074 8.745,26.504 4.305,8.432 9.862,16.143 16.682,23.139 -3.59,5.381 -7.176,10.854 -10.763,16.412 -3.59,5.563 -7.176,11.031 -10.762,16.412 -5.562,-4.844 -10.762,-10.043 -15.605,-15.605 -4.843,-5.557 -9.194,-11.436 -13.049,-17.623 -3.859,-6.188 -7.13,-12.688 -9.82,-19.506 -2.695,-6.816 -4.578,-13.898 -5.654,-21.256 z M 127.36,10.3 c -2.333,0 -4.574,0 -6.727,0 -8.072,0.538 -16.009,1.795 -23.812,3.767 -7.803,1.977 -15.382,4.574 -22.735,7.803 l 53.273,39.014 52.196,-37.938 1.346,-1.076 c -7.533,-3.229 -15.159,-5.873 -22.87,-7.938 -7.714,-2.06 -15.697,-3.271 -23.946,-3.632 -2.15,0 -4.396,0 -6.725,0 z"
     id="path3"
     style="fill:url(#SVGID_1_)" />
</svg>
