<svg xmlns="http://www.w3.org/2000/svg" width="176.147" height="176.624" viewBox="0 0 176.147 176.624"><path d="M130.21 87.44c-10.22-1.29-16.79-5.28-27.54-.87-.45.19-.9.37-1.37.59-1.47.69-7.15 3.18-5.1 4.87 9.33 7.68 27.14 5.53 34.72-4.45-.19-.05-.32-.08-.71-.14m0 0c-10.22-1.29-16.79-5.28-27.54-.87-.45.19-.9.37-1.37.59-1.47.69-7.15 3.18-5.1 4.87 9.33 7.68 27.14 5.53 34.72-4.45-.19-.05-.32-.08-.71-.14m0 0c-10.22-1.29-16.79-5.28-27.54-.87-.45.19-.9.37-1.37.59-1.47.69-7.15 3.18-5.1 4.87 9.33 7.68 27.14 5.53 34.72-4.45-.19-.05-.32-.08-.71-.14m0 0c-10.22-1.29-16.79-5.28-27.54-.87-.45.19-.9.37-1.37.59-1.47.69-7.15 3.18-5.1 4.87 9.33 7.68 27.14 5.53 34.72-4.45-.19-.05-.32-.08-.71-.14m0 0c-10.22-1.29-16.79-5.28-27.54-.87-.45.19-.9.37-1.37.59-1.47.69-7.15 3.18-5.1 4.87 9.33 7.68 27.14 5.53 34.72-4.45-.19-.05-.32-.08-.71-.14m45.73 59.87c-1.2-9.75-10.27-29.32-13.47-40.54-2.55-8.98-4.63-18.12-6.79-27.21-7.55-31.64-2.59-46.95-33.82-65.18C112.82 9.1 99.13-.05 88.81 0 78.39.06 43.65 19.86 36.67 27.53 25.84 39.41 24.49 63.81 20.7 79.56c-2.17 9.04-4.26 18.27-6.79 27.21-3.4 11.99-11.73 29.63-13.48 40.52-1.15 7.17-.32 8.66 6.52 10 17.35 3.38 34.2 4.39 51.66 9.34 8.23 2.34 22.22 9.86 29.06 9.99 7.89.15 11.32-3.74 18-6.09 22.18-7.82 66.23-13.75 68.48-14.52s2.17-5.57 1.79-8.7M14.18 128.04c2.06-13.53 9.45-31.05 12.93-45.07 2.92-11.73 4.34-25.33 7.58-36.42 6.03-20.63 34.38-34.35 53.5-40v47C65.82 58.2 48.35 74.52 36.38 93.24c-6.9 10.79-12.85 25.45-20.73 35.27-1.05 1.3-1.81 1.76-1.47-.47m66.99-36.99c-10.12 8.26-27.67 9.48-34.98-2.98.5-2.24 10.65-4.13 12.82-4.25 7.55-.45 16.41 2.11 22.16 7.23m51.3 44.28c-.97 2.73-1.82 5-3.75 7.25-7.53 8.83-28.89 19.13-40.53 18.97-.04 2.67.06 5.41.07 8.51 0 1.33.11 1.72-1.57 1.5-2.79-.36-7.14-3.6-10.23-4.78-5.64-2.13-11.49-4.04-17.27-5.73-13.32-3.89-33.66-5.6-45.01-9.99-1.5-.57-4-1.96-3.83-3.82l26.83-40.69c2.72 9.41 3.63 21.28 7.27 30.24 5.02 12.32 30.69 24.58 43.74 24.76.47-33.65-.78-67.39.51-101.01 11.58-.5 35.53 18.03 39.48 23.52 1.28 1.6 1.93 2.36 2.25 2.77.03.03.41.6.48.72 0 .01.01.02.01.03.75 1.24 8.93 15.47 8.97 17.27.08 3.92-5.76 25.84-7.42 30.48m-29.8-48.76c-.45.19-.9.37-1.37.59-1.47.69-7.15 3.18-5.1 4.87 9.33 7.68 27.14 5.53 34.72-4.45-.19-.05-.32-.08-.71-.14-10.22-1.29-16.79-5.28-27.54-.87m27.54.87c-10.22-1.29-16.79-5.28-27.54-.87-.45.19-.9.37-1.37.59-1.47.69-7.15 3.18-5.1 4.87 9.33 7.68 27.14 5.53 34.72-4.45-.19-.05-.32-.08-.71-.14m0 0c-10.22-1.29-16.79-5.28-27.54-.87-.45.19-.9.37-1.37.59-1.47.69-7.15 3.18-5.1 4.87 9.33 7.68 27.14 5.53 34.72-4.45-.19-.05-.32-.08-.71-.14m0 0c-10.22-1.29-16.79-5.28-27.54-.87-.45.19-.9.37-1.37.59-1.47.69-7.15 3.18-5.1 4.87 9.33 7.68 27.14 5.53 34.72-4.45-.19-.05-.32-.08-.71-.14"/><path d="M86.69 171.56c-2.79-.36-7.14-3.6-10.23-4.78-5.64-2.13-11.49-4.04-17.27-5.73-13.32-3.89-33.66-5.6-45.01-9.99-1.5-.57-4-1.96-3.83-3.82l26.83-40.69c2.72 9.41 3.63 21.28 7.27 30.24 5.02 12.32 30.69 24.58 43.74 24.76-.04 2.67.06 5.41.07 8.51 0 1.33.11 1.72-1.57 1.5m44.23-84.48c-7.58 9.98-25.39 12.13-34.72 4.45-2.05-1.69 3.63-4.18 5.1-4.87.47-.22.92-.4 1.37-.59 10.75-4.41 17.32-.42 27.54.87.39.06.52.09.71.14 0-.01-.01-.02-.01-.03-.07-.12-.45-.69-.48-.72-.32-.41-.97-1.17-2.25-2.77-3.95-5.49-27.9-24.02-39.48-23.52-1.29 33.62-.04 67.36-.51 101.01 11.64.16 33-10.14 40.53-18.97 1.93-2.25 2.78-4.52 3.75-7.25 1.66-4.64 7.5-26.56 7.42-30.48-.04-1.8-8.22-16.03-8.97-17.27m-71.91-3.76c-2.17.12-12.32 2.01-12.82 4.25 7.31 12.46 24.86 11.24 34.98 2.98-5.75-5.12-14.61-7.68-22.16-7.23M34.69 46.05c-3.24 11.09-4.66 24.69-7.58 36.42-3.48 14.02-10.87 31.54-12.93 45.07-.34 2.23.42 1.77 1.47.47 7.88-9.82 13.83-24.48 20.73-35.27C48.35 74.02 65.82 57.7 88.19 53.05v-47c-19.12 5.65-47.47 19.37-53.5 40" style="fill:red"/></svg>