<svg xmlns="http://www.w3.org/2000/svg" width="176.147" height="176.621" viewBox="0 0 176.147 176.621"><path d="M130.21 87.436c.39.06.52.09.71.14-7.58 9.98-25.39 12.13-34.72 4.45-2.05-1.69 3.63-4.18 5.1-4.87.47-.22.92-.4 1.37-.59 10.75-4.41 17.32-.42 27.54.87m43.94 68.57c-2.251.765-46.3 6.7-68.48 14.52-6.68 2.35-10.11 6.24-18 6.09-6.84-.13-20.83-7.65-29.06-9.99-17.46-4.95-34.31-5.96-51.66-9.34-6.84-1.34-7.67-2.83-6.52-10 1.75-10.89 10.08-28.53 13.48-40.52 2.53-8.94 4.62-18.17 6.79-27.21 3.79-15.75 5.14-40.15 15.97-52.03C43.65 19.856 78.386.056 88.812 0c10.321-.054 24.008 9.096 33.048 14.376 31.23 18.23 26.27 33.54 33.82 65.18 2.16 9.09 4.24 18.23 6.79 27.21 3.2 11.22 12.27 30.79 13.47 40.54.38 3.13.462 7.935-1.79 8.7m-158.5-27.5c7.88-9.82 13.83-24.48 20.73-35.27 11.97-18.72 29.44-35.04 51.81-39.69v-47c-19.12 5.65-47.47 19.37-53.5 40-3.24 11.09-4.66 24.69-7.58 36.42-3.48 14.02-10.87 31.54-12.93 45.07-.34 2.23.42 1.77 1.47.47m43.36-44.69c-2.17.12-12.32 2.01-12.82 4.25 7.31 12.46 24.86 11.24 34.98 2.98-5.75-5.12-14.61-7.68-22.16-7.23m80.88 21.03c-.04-1.8-8.22-16.03-8.97-17.27 0-.01-.01-.02-.01-.03-.07-.12-.45-.69-.48-.72-.32-.41-.97-1.17-2.25-2.77-3.95-5.49-27.9-24.02-39.48-23.52-1.29 33.62-.04 67.36-.51 101.01-13.05-.18-38.72-12.44-43.74-24.76-3.64-8.96-4.55-20.83-7.27-30.24l-26.83 40.69c-.17 1.86 2.33 3.25 3.83 3.82 11.35 4.39 31.69 6.1 45.01 9.99 5.78 1.69 11.63 3.6 17.27 5.73 3.09 1.18 7.44 4.42 10.23 4.78 1.68.22 1.57-.17 1.57-1.5-.01-3.1-.11-5.84-.07-8.51 11.64.16 33-10.14 40.53-18.97 1.93-2.25 2.78-4.52 3.75-7.25 1.66-4.64 7.5-26.56 7.42-30.48"/></svg>