<?xml version="1.0" encoding="UTF-8" standalone="no"?>
<svg
   version="1.1"
   width="543.91687"
   height="489.88138"
   id="svg1"
   xmlns="http://www.w3.org/2000/svg"
   xmlns:svg="http://www.w3.org/2000/svg">
  <defs
     id="defs1" />
  <path
     d="m 218.63351,162.14367 c 2.6875,-26.72416 25.33927,-47.67568 52.76273,-47.67568 2.52296,0 5.08705,0.21938 7.55516,0.54847 l 7.92538,-32.565363 -7.18495,-29.4665 c -2.72863,-0.21939 -5.51211,-0.31592 -8.29559,-0.31592 -29.30197,0 -55.97128,10.96938 -76.26464,29.02773 l -52.81757,-31.07078 19.33353,-15.48054 c 0,0 -67.105189,-47.12721 -161.64756,-32.2362698 0,0 13.231818,75.6201798 106.26589,126.4495628 l 4.12723,-24.47544 50.88423,29.94641 c -3.05772,10.33865 -4.71684,21.32174 -4.71684,32.62021 0,24.31089 7.55517,46.81184 20.40305,65.33638 l 27.05324,-65.33638 14.61671,-5.30644 z m 163.69061,-126.998033 19.33354,15.48054 -53.55801,31.44099 c -7.1301,-6.4308 -15.16518,-11.99776 -23.88584,-16.49521 l -4.23692,33.48404 -17.83896,25.325573 c 13.45121,9.58449 22.28156,25.33927 22.28156,43.06853 0,9.26913 -2.41326,17.8801 -6.58163,25.49011 l 18.68909,15.37085 h 42.2047 c 4.82652,-12.69707 7.50031,-26.44993 7.50031,-40.86096 0,-11.09278 -1.60427,-21.85649 -4.60714,-32.03059 l 51.89889,-30.53602 4.12723,24.47543 C 530.73987,78.529547 543.91684,2.9093672 543.91684,2.9093672 449.38818,-11.981573 382.32412,35.145637 382.32412,35.145637 m -64.54111,203.002143 26.50477,18.0035 c -12.14859,10.00956 -26.39507,17.56472 -41.98531,21.89763 v 64.96616 l 23.18654,-8.83035 c 3.2771,105.99166 -55.21713,155.69667 -55.21713,155.69667 -60.74296,-73.96106 -54.09277,-155.69667 -54.09277,-155.69667 l 23.18653,8.83035 v -65.28153 c -15.48054,-4.4426 -29.56249,-12.10746 -41.6151,-22.17187 l 15.11033,-6.37595 18.26402,-47.29175 c 9.69419,11.35331 24.14635,18.57939 40.27135,18.57939 11.62754,0 22.4461,-3.79815 31.2216,-10.22895 z"
     id="path1" />
</svg>
