<svg xmlns="http://www.w3.org/2000/svg" width="889.57" height="978.73" data-name="Layer 2" viewBox="0 0 889.57 978.73"><path d="M889.55 740.9c-17.04-47.16-55.38-46.76-55.38-46.76-30.41-74.16-88.47-67.31-88.47-67.31l-42.48-53.81-42.26 53.49c-67.21 1.68-88.56 67.17-88.56 67.17l.06 47.23h-.06V600.87h.01V445.76h168.11l58.75 70.86 58.75-70.86V254.88l-59.4-80.46-59.4 80.46V364.8h-166.8V244.13h39.61L474.61 0 338.42 244.13h38.14v232.82H268.47L196.8 164.94l-71.2 312.01H73.15v38.1H0v463.68h572.42v-.14h317.15V740.92ZM197.11 625.14c-26.75 0-48.43-21.9-48.43-48.93s21.68-48.92 48.43-48.92 48.43 21.9 48.43 48.92-21.68 48.93-48.43 48.93m277.84-168.08c-26.75 0-48.43-21.9-48.43-48.92s21.68-48.92 48.43-48.92 48.43 21.9 48.43 48.92-21.68 48.92-48.43 48.92m228.62 350.7c-26.75 0-48.43-21.9-48.43-48.93s21.68-48.92 48.43-48.92S752 731.81 752 758.83s-21.68 48.93-48.43 48.93" data-name="Layer 1" style="fill-rule:evenodd;stroke-width:0"/></svg>