<svg xmlns="http://www.w3.org/2000/svg" xml:space="preserve" width="150" height="110.092" viewBox="0 0 150 110.092"><g transform="translate(-3.247 -1.523)"><path d="M62.555 24.478 77.226 1.705a54.7 54.7 0 0 1 17.276 3.45l-7.427 19.02c-8.027-2.941-16.766-2.739-24.52.303M43.748 83.902l4.199-5.997c-4.963-6.358-7.479-14.208-7.295-22.1L24.274 77.33a54.6 54.6 0 0 0 10.627 16.701l3.01-12.737zm11.634 1.056a35 35 0 0 1-4.881-4.146l-5.454 7.79-4.522-2.023-2.462 10.591a55 55 0 0 0 5.616 4.503 55 55 0 0 0 14.703 7.317l-.329-22.344a35 35 0 0 1-2.671-1.688M98.475 6.83l-7.493 19.061a34.4 34.4 0 0 1 14.769 14.573l8.875-.532 8.584-10.102a54.75 54.75 0 0 0-16.471-18.216 55.4 55.4 0 0 0-8.264-4.784M62.401 88.746l.308 21.439c16.467 3.839 34.031-.13 47.271-10.951L92.174 86.767c-8.994 5.057-19.973 5.898-29.773 1.979m45.027-44.624a34.7 34.7 0 0 1 1.948 17.764l17.869 12.512c4.622-13.525 3.709-28.226-2.181-40.928l-8.61 10.111zM53.19 75.91l.56-18.015 14.229 9.963 7.566 3.004 47.646 33.363 30.056 7.061-16.914-25.827-47.647-33.363-5.41-6.082-14.23-9.964 16.737-6.687-28.444-3.456L72.901 1.726c-4.681.2-9.321.993-13.801 2.362L45.998 24.877l-5.672-1.432-.305-.078L18.553 8.335l-2.309-6.812L3.525 6.449l-.278 13.638 7.19-.16 21.468 15.032.178.261 3.285 4.839-15.048 19.49a55.3 55.3 0 0 0 2.495 13.707l17.4-22.893z"/><linearGradient id="a" x1="43.147" x2="109.53" y1="97.142" y2="18.029" gradientUnits="userSpaceOnUse"><stop offset="0" style="stop-color:#bb2f27"/><stop offset=".01" style="stop-color:#c13e27"/><stop offset=".033" style="stop-color:#cd5827"/><stop offset=".056" style="stop-color:#d76a27"/><stop offset=".078" style="stop-color:#de7526"/><stop offset=".1" style="stop-color:#e07826"/><stop offset=".148" style="stop-color:#e58025"/><stop offset=".25" style="stop-color:#ee8d23"/><stop offset=".361" style="stop-color:#f49621"/><stop offset=".5" style="stop-color:#f79820"/><stop offset=".639" style="stop-color:#f49621"/><stop offset=".75" style="stop-color:#ee8d23"/><stop offset=".852" style="stop-color:#e58025"/><stop offset=".9" style="stop-color:#e07826"/><stop offset=".919" style="stop-color:#dd7326"/><stop offset=".945" style="stop-color:#d46527"/><stop offset=".973" style="stop-color:#c84e27"/><stop offset="1" style="stop-color:#bb2f27"/></linearGradient><path fill="url(#a)" d="M90.223 7.236 85.23 19.961a38.1 38.1 0 0 0-15.309-.959c2.818-4.381 6.068-9.43 8.921-13.862a51.4 51.4 0 0 1 11.381 2.096m-47.588 72.64 1.213-1.733a38.1 38.1 0 0 1-5.818-13.594l-9.975 13.124a51.5 51.5 0 0 0 5.243 9.137l2.374-10.046zm10.777 7.936a38 38 0 0 1-2.523-1.938l-4.729 6.754-3.396-1.519-1.125 4.764a51.8 51.8 0 0 0 13.452 8.34l-.222-15.435q-.736-.465-1.457-.966m46.707-76.4L95.09 24.229c.658.403 1.312.821 1.952 1.271a37.9 37.9 0 0 1 10.825 11.636l5.189-.333 6.15-7.223a51.4 51.4 0 0 0-14.362-15.223 52 52 0 0 0-4.725-2.945M65.677 93.478l.202 13.973c13.349 2.448 27.263-.471 38.529-8.184l-12.227-8.562a38.17 38.17 0 0 1-26.504 2.773m58.321-53.787-5.977 7.018-5.992.383a38.2 38.2 0 0 1 1.023 13.436l12.291 8.606a51.8 51.8 0 0 0-1.345-29.443m-65.98.863 7.541-3.013L81.12 48.436l5.409 6.083 47.449 33.224 12.156 18.563-21.602-5.075-47.448-33.224-7.566-3.003-15.559-10.896.251-8.117 4.831.974a6.039 6.039 0 0 0 10.541 5.739 6.04 6.04 0 0 0-1.483-8.413 6.04 6.04 0 0 0-7.514.47zm20.564 11.077a6.041 6.041 0 1 0-6.931 9.897 6.041 6.041 0 0 0 6.931-9.897M53.093 32.486l3.174 5.199 16.628-6.643-17.504-2.128Zm-8.126 11.641-2.58 3.396 7.975 15.701.555-17.897zm10.228-1.497-6.061-9.928L66.463 5.775a52 52 0 0 0-5.362 1.213L47.475 28.573l-5.305-1.34-2.125 4.788-3.772 3.635 3.073 4.525-15.621 20.187c.133 1.83.367 3.65.693 5.454L43.794 40.33ZM15.412 9.106l-1.14-3.364-7.57 2.932-.166 8.117 3.552-.079Z" style="fill:url(#a)"/><path fill="#bb2f27" d="M66.25 46.929a2.82 2.82 0 1 1-3.234 4.62 2.82 2.82 0 0 1 3.234-4.62M13.289 17.99l20.947 14.668.199.294 2.922-2.813 1.645-3.706-.345-.088-20.948-14.668zm59.519 36.972a2.82 2.82 0 1 0 4.619 3.234 2.82 2.82 0 0 0-4.619-3.234"/></g></svg>