<?xml version="1.0" encoding="UTF-8" standalone="no"?>
<svg
   version="1.1"
   viewBox="0 0 941.44 1023.9348"
   id="svg14"
   width="941.44"
   height="1023.9348"
   xmlns:xlink="http://www.w3.org/1999/xlink"
   xmlns="http://www.w3.org/2000/svg"
   xmlns:svg="http://www.w3.org/2000/svg">
  <defs
     id="defs14" />
  <filter
     id="g"
     x="-0.055991753"
     y="-0.064625888"
     width="1.1119835"
     height="1.1292518"
     color-interpolation-filters="sRGB">
    <feGaussianBlur
       stdDeviation="7.2416"
       id="feGaussianBlur1" />
  </filter>
  <filter
     id="f"
     x="-0.12995258"
     y="-0.11567429"
     width="1.2599052"
     height="1.2313486"
     color-interpolation-filters="sRGB">
    <feBlend
       in2="BackgroundImage"
       mode="color-burn"
       id="feBlend1" />
    <feGaussianBlur
       stdDeviation="40.079"
       id="feGaussianBlur2" />
  </filter>
  <linearGradient
     id="a">
    <stop
       stop-color="#bf99c3"
       offset="0"
       id="stop2" />
    <stop
       stop-color="#7b5190"
       offset=".35"
       id="stop3" />
    <stop
       stop-color="#fff"
       stop-opacity=".5"
       offset=".5"
       id="stop4" />
    <stop
       stop-color="#7b5190"
       offset=".65"
       id="stop5" />
    <stop
       stop-color="#bf99c3"
       offset="1"
       id="stop6" />
  </linearGradient>
  <linearGradient
     id="e"
     x1="226.16"
     x2="372.39999"
     y1="117.19"
     y2="117.17"
     gradientTransform="matrix(-1.7308,0,0,-1.7308,988.68,1043.3412)"
     gradientUnits="userSpaceOnUse"
     xlink:href="#a" />
  <linearGradient
     id="d"
     x1="226.16"
     x2="372.39999"
     y1="117.19"
     y2="117.17"
     gradientTransform="matrix(-0.86542,-1.4989,1.4989,-0.86542,269.63,1226.3412)"
     gradientUnits="userSpaceOnUse"
     xlink:href="#a" />
  <linearGradient
     id="c"
     x1="226.16"
     x2="372.39999"
     y1="117.19"
     y2="117.17"
     gradientTransform="matrix(0.86542,-1.4989,1.4989,0.86542,-248.39,694.95115)"
     gradientUnits="userSpaceOnUse"
     xlink:href="#a" />
  <radialGradient
     id="b"
     cx="273.73001"
     cy="284.31"
     r="213.83"
     gradientTransform="matrix(0.71394,0,0,0.7139,275.21,309.00115)"
     gradientUnits="userSpaceOnUse">
    <stop
       style="stop-stop-opacity:0.6"
       offset="0"
       id="stop7" />
    <stop
       stop-color="#612c75"
       stop-opacity=".6"
       offset=".75"
       id="stop8" />
    <stop
       stop-color="#612c75"
       stop-opacity="0"
       offset="1"
       id="stop9" />
  </radialGradient>
  <path
     d="m 381.83,19.941152 -97.64,169.139998 -195.32,0.05 -88.87,153.89 97.632,169.03 -97.632,169.2 88.87,153.88 h 195.32 l 97.64,169.06005 H 559.56 L 657.2,835.02115 h 195.32 l 88.87,-153.93 -97.58,-168.93 97.63,-169.19 -88.87,-153.89 H 657.25 L 559.56,19.941152 Z"
     stroke-width="1.7309"
     id="path9" />
  <path
     d="m 393.05,377.51115 -77.56,134.46 77.56,134.47 h 155.23 l 77.61,-134.47 -77.61,-134.41 z"
     fill="#ffffff"
     fill-opacity="0.25"
     filter="url(#g)"
     stroke-width="1.7308"
     id="path10" />
  <path
     d="m 490.8,927.79115 c 26.11,-30.28 41,-128.74 41,-128.96 l 39.33,80.71 26.12,-39.33 -50.14,-113.54 1.19,-80.59 -77.62,-134.47 -77.62,134.47 1.19,80.59 -50.14,113.54 26.18,39.33 39.33,-80.71 c 0,0 14.83,98.46 40.93,128.74 H 490.8 Z M 450.55,96.221152 C 424.45,126.49815 409.56,224.95115 409.56,225.69115 l -39.32,-80.7 -26.13,39.32 50.14,113.54 -1.19,80.6 77.62,134.46 77.62,-134.46 -1.19,-80.6 50.14,-113.54 -26.18,-39.32 -39.32,80.7 c 0,0 -14.84,-98.45 -40.95,-128.729998 -0.54,-0.03 -40.25,0 -40.25,0 z"
     fill="url(#e)"
     stroke-width="1.7309"
     id="path11"
     style="fill:url(#e)" />
  <path
     d="m 120.69,737.33115 c 39.26,7.47 131.99,-28.86 131.99,-28.86 l -50.23,74.41 47.11,2.96 73.26,-100.19 70.4,-39.26 77.63,-134.46 H 315.59 l -69.2,41.33 -123.39,13.34 -20.97,42.34 89.55,-6.3 c 0,0 -77.84,62.09 -91.01,99.83 0.24,0.48 20.12,34.85 20.12,34.85 z m 699.98,-450.6 c -39.27,-7.47 -131.98,28.86 -131.98,28.86 l 50.22,-74.41 -47.11,-2.6 -73.26,100.2 -70.39,39.27 -77.65,134.45 h 155.27 l 69.19,-41.33 123.4,-13.34 20.97,-42.33 -89.56,6.29 c 0,0 77.86,-62.08 91.02,-99.82 -0.24,-0.49 -20.12,-34.85 -20.12,-34.85 z"
     fill="url(#d)"
     stroke-width="1.7309"
     id="path12"
     style="fill:url(#d)" />
  <path
     d="m 100.57,321.53115 c 13.17,37.74 90.98,99.86 90.98,99.86 l -89.54,-5.87 20.99,42.28 123.39,13.34 69.2,41.33 h 155.26 l -77.63,-134.44 -70.4,-39.27 -73.26,-100.2 -47.14,3.01 50.23,74.41 c 0,0 -92.7,-36.38 -131.96,-28.91 -0.3,0.46 -20.12,34.86 -20.12,34.86 z m 740.22,380.95 c -13.16,-37.74 -90.99,-99.87 -90.99,-99.87 l 89.56,6.29 -21,-42.29 -123.4,-13.34 -69.19,-41.33 H 470.5 l 77.65,134.46 70.39,39.26 73.26,100.19 47.14,-3.01 -50.23,-74.41 c 0,0 92.69,36.38 131.96,28.91 0.3,-0.45 20.12,-34.85 20.12,-34.85 z"
     fill="url(#c)"
     stroke-width="1.7309"
     id="path13"
     style="fill:url(#c)" />
  <path
     d="m 450.54,96.205152 c -26.1,30.275998 -41,128.739998 -41,128.739998 l -39.3,-80.71 -26.14,39.32 50.14,113.52 -1.19,80.44 -70.26,-39.15 -73.23,-100.23 -47.16,3.02 50.24,74.43 c 0,0 -92.7,-36.4 -131.97,-28.94 -0.3,0.45 -20.12,34.89 -20.12,34.89 13.16,37.75 90.98,99.85 90.98,99.85 l -89.52,-6.28 20.99,42.25 123.36,13.36 69.13,41.26 -69.13,41.26 -123.36,13.37 -20.99,42.3 89.57,-6.27 c 0,0 -77.87,62.1 -91.03,99.83 0.24,0.49 20.12,34.85 20.12,34.85 39.27,7.47 131.97,-28.89 131.97,-28.89 l -50.19,74.42 47.11,2.98 73.23,-100.23 70.26,-39.15 1.19,80.43 -50.14,113.52 26.19,39.33 39.32,-80.71 c 0,0 14.83,98.46 40.93,128.73 h 40.25 c 26.1,-30.27 41,-128.73 41,-128.73 l 39.32,80.71 26.12,-39.33 -50.14,-113.52 1.19,-80.43 70.2,39.15 73.3,100.23 47.12,-3.03 -50.2,-74.42 c 0,0 92.65,36.41 131.91,28.94 0.31,-0.45 20.13,-34.85 20.13,-34.85 -13.18,-37.73 -90.97,-99.9 -90.97,-99.9 l 89.56,6.34 -20.99,-42.3 -123.42,-13.37 -69.03,-41.26 69.03,-41.21 123.42,-13.36 20.94,-42.3 -89.51,6.28 c 0,0 77.79,-62.05 90.97,-99.8 -0.25,-0.48 -20.13,-34.89 -20.13,-34.89 -39.26,-7.46 -131.98,28.89 -131.98,28.89 l 50.27,-74.43 -47.12,-2.97 -73.3,100.23 -70.2,39.15 -1.19,-80.49 50.14,-113.52 -26.17,-39.32 -39.32,80.71 c 0,0 -14.85,-98.46 -40.95,-128.739998 -0.54,-0.035 -40.25,0 -40.25,0 z"
     fill="url(#b)"
     filter="url(#f)"
     stroke-width="1.7308"
     id="path14"
     style="fill:url(#b)" />
</svg>
