<?xml version="1.0" encoding="UTF-8" standalone="no"?>
<svg
   version="1.1"
   id="Layer_1"
   x="0px"
   y="0px"
   width="194.757"
   height="194.75301"
   xmlns="http://www.w3.org/2000/svg"
   xmlns:svg="http://www.w3.org/2000/svg">
  <defs
     id="defs6" />
  <path
     d="M 82.438,0.26 C 96.288,0.175 110.136,0.085 123.986,0 c 0.388,5.925 0.777,11.85 1.169,17.774 2.644,0.905 5.201,2.05 7.668,3.355 18.94,-5.317 37.871,-10.678 56.809,-16.005 -5.328,18.939 -10.695,37.869 -16.006,56.814 1.309,2.463 2.448,5.016 3.354,7.655 5.925,0.399 11.852,0.785 17.777,1.175 -0.08,13.846 -0.186,27.69 -0.253,41.535 -5.87,0.45 -11.742,0.832 -17.612,1.26 -1.373,5.748 -3.568,11.305 -6.572,16.396 3.8,4.47 7.68,8.875 11.435,13.382 -8.357,8.027 -16.71,16.068 -25.013,24.152 3.038,2.226 6.766,3.443 10.522,3.541 4.105,0.119 8.212,-0.865 11.903,-2.641 1.527,-0.747 3.002,-1.64 4.244,-2.808 -2.109,6.192 -6.098,11.743 -11.292,15.723 -7.391,5.647 -17.258,7.758 -26.353,5.955 -9.425,-1.798 -17.883,-7.452 -23.697,-15.013 -0.443,4.423 -0.893,8.843 -1.335,13.266 -13.341,-0.343 -26.681,-0.698 -40.021,-1.051 -0.422,-5.877 -0.838,-11.757 -1.265,-17.635 -4.603,-1.353 -9.12,-3.018 -13.44,-5.107 -11.012,11.008 -22.02,22.022 -33.033,33.03 0.006,-10.985 -0.026,-21.973 -0.017,-32.958 -10.985,0 -21.973,-0.024 -32.958,-0.018 11.008,-11.012 22.023,-22.02 33.028,-33.032 -2.093,-4.319 -3.753,-8.84 -5.108,-13.442 -5.877,-0.425 -11.757,-0.84 -17.635,-1.263 C 9.935,100.7 9.578,87.36 9.235,74.02 13.653,73.575 18.073,73.127 22.493,72.682 16.17,67.8 11.189,61.102 8.695,53.49 6.583,47.147 6.304,40.179 8.091,33.725 c 1.702,-6.44 5.495,-12.293 10.667,-16.487 3.11,-2.533 6.643,-4.578 10.452,-5.848 -1.735,1.875 -2.897,4.202 -3.8,6.572 -1.582,4.279 -2.18,9.02 -1.13,13.497 0.545,2.362 1.583,4.601 3.007,6.561 C 35.322,29.678 43.4,21.369 51.41,13 c 4.508,3.752 8.912,7.635 13.386,11.438 5.09,-3.006 10.645,-5.205 16.392,-6.572 0.425,-5.869 0.823,-11.739 1.25,-17.606 z m 5.07,5.415 c -0.393,5.58 -0.805,11.157 -1.172,16.74 -7.87,1.212 -15.473,4.229 -22.006,8.795 -4.176,-3.585 -8.35,-7.17 -12.527,-10.75 -6.917,7.173 -13.842,14.337 -20.758,21.51 2.583,2.147 5.643,3.742 8.934,4.462 5.137,1.166 10.449,0.306 15.512,-0.824 7.008,-1.6 14.027,-3.54 21.266,-3.62 6.063,-0.115 12.228,1.202 17.479,4.303 4.115,2.375 7.567,5.75 10.475,9.478 3.099,4.002 5.44,8.657 6.383,13.649 C 122.275,58.245 133.447,47.065 144.629,35.894 137.4,29.787 129.288,24.236 119.982,21.947 119.612,16.454 119.257,10.962 118.892,5.467 108.431,5.55 97.968,5.59 87.508,5.675 Z m 37.783,78.014 c 6.597,1.221 12.524,4.863 17.305,9.478 3.422,3.226 6.205,7.16 7.93,11.545 1.862,4.675 2.482,9.775 2.245,14.78 -0.265,6.107 -1.76,12.064 -3.157,17.99 -1.183,5.07 -2.291,10.305 -1.572,15.527 0.507,3.93 2.22,7.657 4.746,10.695 7.171,-6.91 14.328,-13.836 21.504,-20.743 -3.563,-4.197 -7.17,-8.357 -10.748,-12.542 4.543,-6.521 7.611,-14.105 8.76,-21.973 5.59,-0.43 11.186,-0.793 16.777,-1.2 0.083,-10.462 0.125,-20.923 0.207,-31.382 -5.491,-0.368 -10.984,-0.723 -16.477,-1.091 -2.295,-9.308 -7.838,-17.42 -13.95,-24.647 -11.195,11.184 -22.381,22.376 -33.57,33.563 z M 48.979,74.467 c -2.683,1.518 -4.623,4.24 -5.221,7.261 -4.79,-0.78 -9.457,-2.272 -13.82,-4.4 -5.047,0.485 -10.09,1.101 -15.135,1.635 0.266,10 0.527,20.003 0.79,30.003 5.522,0.397 11.045,0.79 16.567,1.185 1.721,6.698 3.988,13.317 7.423,19.345 3.463,0.373 6.928,0.713 10.392,1.053 5.799,-5.822 11.621,-11.619 17.431,-17.43 -4.107,-6.025 -6.367,-13.2 -6.952,-20.439 3.313,-2.273 5.16,-6.471 4.518,-10.448 -0.492,-3.563 -2.925,-6.77 -6.21,-8.228 -3.089,-1.417 -6.846,-1.242 -9.783,0.463 z M 99.123,73.42 c -3.813,0.572 -7.438,2.313 -10.263,4.93 -2.925,2.678 -5.003,6.263 -5.845,10.138 -0.88,3.955 -0.495,8.18 1.103,11.905 1.882,4.444 5.485,8.127 9.885,10.112 3.795,1.732 8.155,2.188 12.23,1.298 3.904,-0.833 7.52,-2.918 10.215,-5.86 5.225,-5.527 6.635,-14.213 3.489,-21.128 -1.77,-4.018 -4.944,-7.393 -8.837,-9.415 -3.65,-1.913 -7.911,-2.603 -11.977,-1.98 z m -34.92,71.359 c 0.357,3.465 0.668,6.938 1.064,10.402 6.03,3.421 12.643,5.695 19.338,7.41 0.393,5.523 0.785,11.048 1.186,16.57 10,0.26 20.002,0.527 30.002,0.787 0.512,-4.654 1.02,-9.31 1.537,-13.962 0.041,-0.57 0.253,-1.19 -0.112,-1.7 -2.034,-4.168 -3.35,-8.655 -4.159,-13.213 1.135,-0.302 2.267,-0.654 3.282,-1.26 2.904,-1.645 4.955,-4.705 5.33,-8.027 0.415,-3.225 -0.733,-6.605 -3.043,-8.893 -2.341,-2.4 -5.848,-3.567 -9.16,-3.075 -2.944,0.393 -5.647,2.103 -7.345,4.528 -7.263,-0.588 -14.457,-2.857 -20.495,-6.988 -5.815,5.802 -11.615,11.617 -17.425,17.421 z"
     id="path1" />
  <path
     fill="#808080"
     d="m 55.49,45.607 c 7.008,-1.6 14.027,-3.54 21.266,-3.62 6.063,-0.115 12.228,1.202 17.479,4.303 4.115,2.375 7.567,5.75 10.475,9.478 3.099,4.002 5.44,8.657 6.383,13.649 11.181,-11.173 22.353,-22.353 33.535,-33.524 -7.229,-6.107 -15.341,-11.658 -24.647,-13.947 -0.37,-5.493 -0.725,-10.985 -1.09,-16.48 -10.46,0.085 -20.923,0.125 -31.383,0.21 -0.393,5.58 -0.805,11.157 -1.172,16.74 -7.87,1.212 -15.473,4.229 -22.006,8.795 -4.176,-3.585 -8.35,-7.17 -12.527,-10.75 -6.917,7.173 -13.842,14.337 -20.758,21.51 2.583,2.147 5.643,3.742 8.934,4.462 5.136,1.165 10.449,0.304 15.511,-0.826 z"
     id="path2" />
  <path
     fill="#808080"
     d="m 189.08,107.247 c 0.083,-10.462 0.125,-20.923 0.207,-31.382 -5.491,-0.368 -10.984,-0.723 -16.477,-1.091 -2.295,-9.308 -7.838,-17.42 -13.95,-24.647 -11.194,11.183 -22.38,22.375 -33.569,33.563 6.597,1.221 12.524,4.863 17.305,9.478 3.422,3.226 6.205,7.16 7.93,11.545 1.862,4.675 2.482,9.775 2.245,14.78 -0.265,6.107 -1.76,12.064 -3.157,17.99 -1.183,5.07 -2.291,10.305 -1.572,15.527 0.507,3.93 2.22,7.657 4.746,10.695 7.171,-6.91 14.328,-13.836 21.504,-20.743 -3.563,-4.197 -7.17,-8.357 -10.748,-12.542 4.543,-6.521 7.611,-14.105 8.76,-21.973 5.589,-0.429 11.184,-0.793 16.776,-1.2 z"
     id="path3" />
  <path
     fill="#808080"
     d="m 60.453,92.678 c 3.313,-2.273 5.16,-6.471 4.518,-10.448 -0.492,-3.563 -2.925,-6.77 -6.21,-8.228 -3.088,-1.415 -6.845,-1.24 -9.782,0.465 -2.683,1.518 -4.623,4.24 -5.221,7.261 -4.79,-0.78 -9.457,-2.272 -13.82,-4.4 -5.047,0.485 -10.09,1.101 -15.135,1.635 0.266,10 0.527,20.003 0.79,30.003 5.522,0.397 11.045,0.79 16.567,1.185 1.721,6.698 3.988,13.317 7.423,19.345 3.463,0.373 6.928,0.713 10.392,1.053 5.799,-5.822 11.621,-11.619 17.431,-17.43 -4.108,-6.027 -6.368,-13.202 -6.953,-20.441 z"
     id="path4" />
  <path
     fill="#808080"
     d="m 111.101,75.399 c -3.65,-1.912 -7.911,-2.603 -11.978,-1.979 -3.813,0.572 -7.438,2.313 -10.263,4.93 -2.925,2.678 -5.003,6.263 -5.845,10.138 -0.88,3.955 -0.495,8.18 1.103,11.905 1.882,4.444 5.485,8.127 9.885,10.112 3.795,1.732 8.155,2.188 12.23,1.298 3.904,-0.833 7.52,-2.918 10.215,-5.86 5.225,-5.527 6.635,-14.213 3.489,-21.128 -1.769,-4.018 -4.944,-7.393 -8.836,-9.416 z"
     id="path5" />
  <path
     fill="#808080"
     d="m 109.468,129.819 c -2.944,0.393 -5.647,2.103 -7.345,4.528 -7.263,-0.588 -14.457,-2.857 -20.495,-6.988 -5.815,5.801 -11.615,11.615 -17.425,17.42 0.357,3.465 0.668,6.938 1.064,10.402 6.03,3.421 12.643,5.695 19.338,7.41 0.393,5.523 0.785,11.048 1.186,16.57 10,0.26 20.002,0.527 30.002,0.787 0.512,-4.654 1.02,-9.31 1.537,-13.962 0.041,-0.57 0.253,-1.19 -0.112,-1.7 -2.034,-4.168 -3.35,-8.655 -4.159,-13.213 1.135,-0.302 2.267,-0.654 3.282,-1.26 2.904,-1.645 4.955,-4.705 5.33,-8.027 0.415,-3.225 -0.733,-6.605 -3.043,-8.893 -2.341,-2.399 -5.848,-3.566 -9.16,-3.074 z"
     id="path6" />
</svg>
