<?xml version="1.0" encoding="UTF-8" standalone="no"?>
<svg
   version="1.1"
   id="Layer_1"
   x="0px"
   y="0px"
   width="194.757"
   height="194.75301"
   xmlns:xlink="http://www.w3.org/1999/xlink"
   xmlns="http://www.w3.org/2000/svg"
   xmlns:svg="http://www.w3.org/2000/svg">
  <defs
     id="defs24">
    <linearGradient
       xlink:href="#SVGID_1_"
       id="linearGradient1"
       gradientUnits="userSpaceOnUse"
       x1="-22.663099"
       y1="37.440399"
       x2="201.05231"
       y2="37.440399" />
    <linearGradient
       xlink:href="#SVGID_1_"
       id="linearGradient2"
       gradientUnits="userSpaceOnUse"
       x1="-22.663099"
       y1="37.440399"
       x2="201.05231"
       y2="37.440399" />
    <linearGradient
       xlink:href="#SVGID_1_"
       id="linearGradient3"
       gradientUnits="userSpaceOnUse"
       x1="-22.663099"
       y1="37.440399"
       x2="201.05231"
       y2="37.440399" />
    <linearGradient
       xlink:href="#SVGID_1_"
       id="linearGradient4"
       gradientUnits="userSpaceOnUse"
       x1="-22.663099"
       y1="37.440399"
       x2="201.05231"
       y2="37.440399" />
    <linearGradient
       xlink:href="#SVGID_1_"
       id="linearGradient5"
       gradientUnits="userSpaceOnUse"
       x1="-22.663099"
       y1="37.440399"
       x2="201.05231"
       y2="37.440399" />
  </defs>
  <path
     d="M 82.438,0.26 C 96.288,0.175 110.136,0.085 123.986,0 c 0.388,5.925 0.777,11.85 1.169,17.774 2.644,0.905 5.201,2.051 7.668,3.355 18.94,-5.317 37.871,-10.678 56.809,-16.005 -5.328,18.939 -10.695,37.87 -16.006,56.814 1.309,2.463 2.448,5.015 3.354,7.655 5.925,0.4 11.852,0.785 17.777,1.175 -0.08,13.845 -0.186,27.69 -0.253,41.535 -5.87,0.45 -11.742,0.833 -17.612,1.26 -1.373,5.748 -3.568,11.306 -6.572,16.396 3.8,4.47 7.68,8.875 11.435,13.383 -8.357,8.027 -16.71,16.066 -25.013,24.152 3.038,2.225 6.766,3.442 10.522,3.539 4.105,0.121 8.212,-0.864 11.903,-2.64 1.527,-0.747 3.002,-1.64 4.244,-2.808 -2.109,6.193 -6.098,11.742 -11.292,15.723 -7.391,5.647 -17.258,7.758 -26.353,5.955 -9.425,-1.797 -17.883,-7.452 -23.697,-15.013 -0.443,4.423 -0.893,8.843 -1.335,13.265 -13.341,-0.342 -26.681,-0.697 -40.021,-1.049 -0.422,-5.878 -0.838,-11.758 -1.265,-17.636 -4.603,-1.353 -9.12,-3.018 -13.44,-5.107 -11.012,11.008 -22.02,22.022 -33.033,33.03 0.006,-10.985 -0.026,-21.973 -0.017,-32.958 -10.985,0 -21.973,-0.024 -32.958,-0.017 11.008,-11.014 22.023,-22.021 33.028,-33.033 -2.093,-4.32 -3.753,-8.84 -5.108,-13.442 -5.877,-0.425 -11.757,-0.84 -17.635,-1.263 C 9.935,100.7 9.578,87.36 9.235,74.02 13.653,73.575 18.073,73.127 22.493,72.682 16.17,67.799 11.189,61.102 8.695,53.49 6.583,47.147 6.304,40.18 8.091,33.725 c 1.702,-6.44 5.495,-12.293 10.667,-16.488 3.11,-2.532 6.643,-4.577 10.452,-5.847 -1.735,1.875 -2.897,4.202 -3.8,6.572 -1.582,4.28 -2.18,9.02 -1.13,13.497 0.545,2.363 1.583,4.601 3.007,6.561 C 35.322,29.677 43.4,21.37 51.41,13 c 4.508,3.752 8.912,7.635 13.386,11.438 5.09,-3.005 10.645,-5.205 16.392,-6.573 0.425,-5.868 0.823,-11.738 1.25,-17.605 z m 5.07,5.415 c -0.393,5.58 -0.805,11.157 -1.172,16.74 -7.87,1.212 -15.473,4.229 -22.006,8.795 -4.176,-3.585 -8.35,-7.17 -12.527,-10.75 -6.917,7.172 -13.842,14.337 -20.758,21.51 2.583,2.147 5.643,3.742 8.934,4.463 5.137,1.164 10.449,0.305 15.512,-0.825 7.008,-1.601 14.027,-3.54 21.266,-3.62 6.063,-0.115 12.228,1.202 17.479,4.303 4.115,2.375 7.567,5.75 10.475,9.477 3.099,4.003 5.44,8.658 6.383,13.65 C 122.275,58.246 133.447,47.065 144.629,35.894 137.4,29.786 129.288,24.236 119.982,21.946 119.612,16.454 119.257,10.962 118.892,5.467 108.431,5.55 97.968,5.59 87.508,5.675 Z m 37.783,78.014 c 6.597,1.22 12.524,4.862 17.305,9.478 3.422,3.225 6.205,7.16 7.93,11.545 1.862,4.676 2.482,9.775 2.245,14.78 -0.265,6.107 -1.76,12.065 -3.157,17.99 -1.183,5.069 -2.291,10.305 -1.572,15.527 0.507,3.93 2.22,7.657 4.746,10.694 7.171,-6.909 14.328,-13.834 21.504,-20.742 -3.563,-4.197 -7.17,-8.357 -10.748,-12.542 4.543,-6.521 7.611,-14.105 8.76,-21.973 5.59,-0.431 11.186,-0.792 16.777,-1.2 0.083,-10.463 0.125,-20.922 0.207,-31.383 -5.491,-0.367 -10.984,-0.723 -16.477,-1.09 -2.295,-9.307 -7.838,-17.42 -13.95,-24.647 -11.195,11.184 -22.381,22.376 -33.57,33.563 z M 48.979,74.468 c -2.683,1.517 -4.623,4.239 -5.221,7.26 -4.79,-0.78 -9.457,-2.273 -13.82,-4.4 -5.047,0.485 -10.09,1.1 -15.135,1.635 0.266,10 0.527,20.003 0.79,30.003 5.522,0.397 11.045,0.79 16.567,1.185 1.721,6.697 3.988,13.318 7.423,19.346 3.463,0.372 6.928,0.712 10.392,1.052 5.799,-5.822 11.621,-11.62 17.431,-17.43 -4.107,-6.024 -6.367,-13.2 -6.952,-20.44 3.313,-2.271 5.16,-6.47 4.518,-10.447 -0.492,-3.563 -2.925,-6.77 -6.21,-8.228 -3.089,-1.417 -6.846,-1.241 -9.783,0.464 z M 99.123,73.42 c -3.813,0.572 -7.438,2.313 -10.263,4.93 -2.925,2.678 -5.003,6.263 -5.845,10.138 -0.88,3.955 -0.495,8.18 1.103,11.904 1.882,4.445 5.485,8.128 9.885,10.113 3.795,1.732 8.155,2.188 12.23,1.297 3.904,-0.832 7.52,-2.917 10.215,-5.859 5.225,-5.527 6.635,-14.213 3.489,-21.128 -1.77,-4.018 -4.944,-7.393 -8.837,-9.415 -3.65,-1.913 -7.911,-2.603 -11.977,-1.98 z m -34.92,71.36 c 0.357,3.465 0.668,6.938 1.064,10.402 6.03,3.42 12.643,5.694 19.338,7.41 0.393,5.521 0.785,11.047 1.186,16.569 10,0.26 20.002,0.527 30.002,0.788 0.512,-4.655 1.02,-9.311 1.537,-13.963 0.041,-0.57 0.253,-1.19 -0.112,-1.7 -2.034,-4.167 -3.35,-8.655 -4.159,-13.212 1.135,-0.303 2.267,-0.655 3.282,-1.261 2.904,-1.645 4.955,-4.705 5.33,-8.027 0.415,-3.225 -0.733,-6.604 -3.043,-8.893 -2.341,-2.399 -5.848,-3.567 -9.16,-3.075 -2.944,0.393 -5.647,2.103 -7.345,4.527 -7.263,-0.587 -14.457,-2.857 -20.495,-6.987 -5.815,5.801 -11.615,11.617 -17.425,17.422 z"
     id="path2"
     style="fill:#ffffff;fill-opacity:1" />
  <linearGradient
     id="SVGID_1_"
     gradientUnits="userSpaceOnUse"
     x1="-22.663099"
     y1="37.440399"
     x2="201.05231"
     y2="37.440399">
    <stop
       offset="0.2"
       style="stop-color:#612c75"
       id="stop4" />
    <stop
       offset="0.5"
       style="stop-color:#bf99c3"
       id="stop6" />
    <stop
       offset="0.8"
       style="stop-color:#612c75"
       id="stop8" />
  </linearGradient>
  <path
     fill="url(#SVGID_1_)"
     d="m 55.49,45.607 c 7.008,-1.601 14.027,-3.54 21.266,-3.62 6.063,-0.115 12.228,1.202 17.479,4.303 4.115,2.375 7.567,5.75 10.475,9.477 3.099,4.003 5.44,8.658 6.383,13.65 11.181,-11.172 22.353,-22.353 33.535,-33.524 -7.229,-6.108 -15.341,-11.658 -24.647,-13.948 -0.37,-5.492 -0.725,-10.984 -1.09,-16.479 -10.46,0.085 -20.923,0.125 -31.383,0.21 -0.393,5.58 -0.805,11.157 -1.172,16.74 -7.87,1.212 -15.473,4.229 -22.006,8.795 -4.176,-3.585 -8.35,-7.17 -12.527,-10.75 -6.917,7.172 -13.842,14.337 -20.758,21.51 2.583,2.147 5.643,3.742 8.934,4.463 5.136,1.163 10.449,0.303 15.511,-0.827 z"
     id="path11"
     style="fill:url(#linearGradient1)" />
  <path
     fill="url(#SVGID_1_)"
     d="m 189.08,107.247 c 0.083,-10.463 0.125,-20.922 0.207,-31.383 -5.491,-0.367 -10.984,-0.723 -16.477,-1.09 -2.295,-9.307 -7.838,-17.42 -13.95,-24.647 -11.194,11.183 -22.38,22.375 -33.569,33.563 6.597,1.22 12.524,4.862 17.305,9.478 3.422,3.225 6.205,7.16 7.93,11.545 1.862,4.676 2.482,9.775 2.245,14.78 -0.265,6.107 -1.76,12.065 -3.157,17.99 -1.183,5.069 -2.291,10.305 -1.572,15.527 0.507,3.93 2.22,7.657 4.746,10.694 7.171,-6.909 14.328,-13.834 21.504,-20.742 -3.563,-4.197 -7.17,-8.357 -10.748,-12.542 4.543,-6.521 7.611,-14.105 8.76,-21.973 5.589,-0.43 11.184,-0.792 16.776,-1.2 z"
     id="path13"
     style="fill:url(#linearGradient2)" />
  <path
     fill="url(#SVGID_1_)"
     d="m 60.453,92.677 c 3.313,-2.271 5.16,-6.47 4.518,-10.447 -0.492,-3.563 -2.925,-6.77 -6.21,-8.228 -3.088,-1.415 -6.845,-1.239 -9.782,0.466 -2.683,1.517 -4.623,4.239 -5.221,7.26 -4.79,-0.78 -9.457,-2.273 -13.82,-4.4 -5.047,0.485 -10.09,1.1 -15.135,1.635 0.266,10 0.527,20.003 0.79,30.003 5.522,0.397 11.045,0.79 16.567,1.185 1.721,6.697 3.988,13.318 7.423,19.346 3.463,0.372 6.928,0.712 10.392,1.052 5.799,-5.822 11.621,-11.62 17.431,-17.43 -4.108,-6.026 -6.368,-13.202 -6.953,-20.442 z"
     id="path15"
     style="fill:url(#linearGradient3)" />
  <path
     fill="url(#SVGID_1_)"
     d="m 111.101,75.399 c -3.65,-1.912 -7.911,-2.603 -11.978,-1.979 -3.813,0.572 -7.438,2.313 -10.263,4.93 -2.925,2.678 -5.003,6.263 -5.845,10.138 -0.88,3.955 -0.495,8.18 1.103,11.904 1.882,4.445 5.485,8.128 9.885,10.113 3.795,1.732 8.155,2.188 12.23,1.297 3.904,-0.832 7.52,-2.917 10.215,-5.859 5.225,-5.527 6.635,-14.213 3.489,-21.128 -1.769,-4.018 -4.944,-7.393 -8.836,-9.416 z"
     id="path17"
     style="fill:url(#linearGradient4)" />
  <path
     fill="url(#SVGID_1_)"
     d="m 109.468,129.819 c -2.944,0.393 -5.647,2.103 -7.345,4.527 -7.263,-0.587 -14.457,-2.857 -20.495,-6.987 -5.815,5.8 -11.615,11.615 -17.425,17.421 0.357,3.465 0.668,6.938 1.064,10.402 6.03,3.42 12.643,5.694 19.338,7.41 0.393,5.521 0.785,11.047 1.186,16.569 10,0.26 20.002,0.527 30.002,0.788 0.512,-4.655 1.02,-9.311 1.537,-13.963 0.041,-0.57 0.253,-1.19 -0.112,-1.7 -2.034,-4.167 -3.35,-8.655 -4.159,-13.212 1.135,-0.303 2.267,-0.655 3.282,-1.261 2.904,-1.645 4.955,-4.705 5.33,-8.027 0.415,-3.225 -0.733,-6.604 -3.043,-8.893 -2.341,-2.398 -5.848,-3.566 -9.16,-3.074 z"
     id="path19"
     style="fill:url(#linearGradient5)" />
</svg>
