<?xml version="1.0" encoding="UTF-8" standalone="no"?>
<svg
   version="1.1"
   width="562.53857"
   height="668.07959"
   id="svg1"
   xmlns="http://www.w3.org/2000/svg"
   xmlns:svg="http://www.w3.org/2000/svg">
  <defs
     id="defs1" />
  <path
     d="M 281.24283,668.0796 94.394311,476.89233 114.23616,452.02387 0,346.48285 C 0,139.10462 189.05318,37.26741 189.05318,37.26741 c 0,0 -83.84727,117.41086 -83.84727,258.91414 0,141.57382 54.0933,161.15112 81.02531,161.15112 27.07311,0 47.53226,-17.70775 47.53226,-47.53226 0,-52.15321 -64.26996,-52.15321 -64.26996,-52.15321 L 281.31338,0 393.04506,357.6472 c 0,0 -64.26996,0 -64.26996,52.15321 0,29.82451 20.45915,47.53226 47.46171,47.53226 27.02019,0 81.02531,-19.5773 81.02531,-161.15112 0,-141.50328 -83.77672,-258.91414 -83.77672,-258.91414 0,0 189.05318,101.83721 189.05318,309.21544 l -114.23616,105.54102 19.84185,24.86846 z"
     id="path1" />
</svg>
