<svg xmlns="http://www.w3.org/2000/svg" width="600" height="549.882"><path d="M505.495 366.285c71.15-71.654 57.061-146.874 50.637-171.183l36.088-142.66 7.78-30.79-31.699-.274-147.9-1.415C407.713 12.688 379.753 0 340.273 0c-36.303 0-87.446 16.975-109.445 32.262-14.088 9.7-43.405 25.26-60.265 65.173 0 0 53.784-20.064 101.996-20.627 20.411-.231 55.82 2.872 87.793 20.007-18.953 21.652-58.129 57.465-125.063 81.658-19.343 6.986-37.776 10.537-54.752 10.537-27.628 0-48.66-9.354-59.27-26.387-12.01-19.4-8.17-46.798 5.876-79.623 15.214-35.625 48.992-80.965 48.992-80.965C126.29 13.251 94.49 46.913 87.779 53.683c-6.655 6.77-56.498 53.395-79.565 142.718-27.34 105.72 19.804 194.87 50.305 238.68l.506.736.562.621 3.551 4.446.231.289.217.23c34.745 40.534 109.287 108.479 218.443 108.479 92.311 0 132.123-23.688 167.243-43.478 35.134-19.675 67.945-74.758 67.945-74.758s-60.497 38.223-124.674 34.73c-19.228-1.126-44.82-4.85-57.004-28.018-13.525-25.55-5.528-65.419 20.7-103.873 40.201-58.75 84.69-87.735 110.398-100.64 11.331 46.567-2.31 92.86-7.376 108.651-12.183 37.329-38.065 79.782-38.065 79.782s46.35-17.755 84.3-55.993" style="fill:gray"/><path d="M530.25 195.723s31.122 79.781-51.2 162.103c0 0 36.188-82.322 2.526-157.137 0 0-78.598 21.19-145.922 119.708-67.324 98.561-22.446 190.858 91.012 167.127 0 0-58.591 37.444-144.637 37.444-85.989 0-154.612-47.375-199.49-99.76l-3.551-4.445c-39.48-56.556-68.176-134.822-46.64-218.111C53.9 119.319 104.755 71.958 104.755 71.958 53.438 175.875 131.531 242.463 243.747 201.93 356.007 161.382 396.21 90.623 396.21 90.623c-64.048-51.316-152.75-36.94-152.75-36.94 100.322-59.038 169.783-8.848 169.783-8.848l154.785 1.458z"/><path d="m432.195 87.13-29.78-21.653 137.132.895-30.674 127.215-15.33-26.17-308.545 166.91Z" style="fill:gray"/></svg>