<svg xmlns="http://www.w3.org/2000/svg" xmlns:xlink="http://www.w3.org/1999/xlink" width="600" height="552.084"><linearGradient id="a" x1="0" x2="1" y1="0" y2="0" gradientTransform="matrix(37.62207 0 0 -37.62207 475.89 434.343)" gradientUnits="userSpaceOnUse" spreadMethod="pad"><stop offset="0" style="stop-color:#f6b91d"/><stop offset=".2" style="stop-color:#d3641c"/><stop offset=".5" style="stop-color:#bf331c"/><stop offset=".8" style="stop-color:#d3641c"/><stop offset="1" style="stop-color:#f6b91d"/></linearGradient><linearGradient xlink:href="#a" id="b" x1="0" x2="1" y1="0" y2="0" gradientTransform="translate(37.035 276.052)scale(519.26241)" gradientUnits="userSpaceOnUse" spreadMethod="pad"/><path d="M282.828 552.083c-109.658 0-184.175-67.823-218.832-108.305l-4.1-5.079c-.275-.262-1.076-1.283-1.297-1.615C27.876 392.987-19.203 303.867 8.305 197.66c14.23-55.167 42.151-105.406 78.547-141.526l1.505-1.519c33.318-33.967 67.506-47.23 90.307-52.35 1.034-.208 2-.319 2.912-.319 4.375 0 8.57 2.208 11.055 5.976 2.968 4.583 2.747 10.573-.482 15.045-.331.386-31.593 42.482-45.285 74.669-12.56 29.33-14.782 50.847-6.528 64.055 7.605 12.298 23.726 19.033 45.45 19.033 14.658 0 30.737-3.078 47.88-9.275 49.549-17.901 82.37-42.8 101.734-61.405-23.56-8.792-46.582-10.352-59.68-10.352h-1.78c-43.187.538-92.626 18.757-93.109 18.923-1.463.538-3.023.856-4.582.856-3.506 0-7.012-1.45-9.496-4.086a13.02 13.02 0 0 1-2.636-14.188c15.845-37.514 41.89-54.615 57.416-64.8 1.78-1.188 3.396-2.21 4.845-3.23C249.028 17.472 300.674 0 338.52 0c37.804 0 65.463 11.331 80.12 19.143l138.021 1.298 30.296.263a13.27 13.27 0 0 1 10.296 5.12 12.95 12.95 0 0 1 2.32 11.277l-7.44 29.384-33.691 133.162c7.66 31.593 15.1 104.813-52.627 173.01-37.846 38.12-83.351 55.801-85.228 56.56-1.574.538-3.133.856-4.693.856-3.878 0-7.55-1.725-10.144-4.734a13.085 13.085 0 0 1-1.077-15.265c.22-.373 24.098-39.792 35.099-73.482 8.957-27.55 12.297-55.098 9.758-79.307-22.856 14.12-55.153 39.68-84.855 83.075-22.056 32.296-29.55 65.946-19.033 85.78 8.308 15.803 26.693 18.867 43.504 19.792 2.484.165 4.968.207 7.398.207 53.58 0 103.667-31.054 104.15-31.317a12.8 12.8 0 0 1 7.011-2.098c3.34 0 6.64 1.34 9.165 3.768 4.375 4.265 5.231 10.945 2.153 16.121-1.339 2.264-33.58 55.912-69.866 76.229l-2.263 1.297c-33.153 18.66-74.352 41.945-164.066 41.945" style="fill:#fff"/><path d="M496.498 363.381c68.03-68.513 54.56-140.436 48.417-163.678L579.42 63.297l7.44-29.44-30.31-.263-141.416-1.352c-12.132-6.957-38.866-19.089-76.615-19.089-34.712 0-83.613 16.232-104.647 30.848-13.47 9.275-41.503 24.154-57.624 62.316 0 0 51.427-19.185 97.526-19.723 19.516-.22 53.372 2.747 83.944 19.13-18.122 20.703-55.581 54.946-119.581 78.078-18.495 6.68-36.12 10.076-52.352 10.076-26.417 0-46.526-8.944-56.67-25.23-11.484-18.55-7.813-44.747 5.617-76.133C149.279 58.452 181.576 15.1 181.576 15.1 133.917 25.824 103.51 58.01 97.093 64.483c-6.362 6.473-54.02 51.054-76.077 136.461-26.14 101.087 18.937 186.328 48.1 228.218l.483.703.538.594 3.395 4.251.221.276.208.22c33.221 38.757 104.495 103.723 208.866 103.723 88.264 0 126.33-22.649 159.911-41.571 33.594-18.813 64.966-71.481 64.966-71.481s-57.844 36.548-119.208 33.207c-18.384-1.076-42.856-4.637-54.504-26.79-12.933-24.43-5.287-62.55 19.792-99.32 38.438-56.174 80.976-83.888 105.558-96.227 10.835 44.525-2.208 88.789-7.053 103.888-11.649 35.692-36.396 76.284-36.396 76.284s44.318-16.976 80.604-53.538"/><path d="M245.949 64.484s84.813-13.747 146.053 35.32c0 0-38.439 67.657-145.722 106.427-107.353 38.756-182.022-24.857-132.9-124.274 0 0-48.68 45.285-69.287 124.964-20.592 79.638 6.805 154.473 44.595 208.605l3.395 4.196c42.91 50.087 108.526 95.386 190.745 95.386 82.274 0 138.352-35.748 138.352-35.748-108.54 22.636-151.45-65.615-87.077-159.855 64.372-94.2 139.525-114.46 139.525-114.46 32.186 71.535-2.36 150.249-2.36 150.249 78.713-78.714 48.845-154.998 48.845-154.998l36.175-142.879-148.055-1.394S381.927 36.99 338.52 36.99c-25.547 0-57.03 6.57-92.57 27.494" style="fill:url(#b)"/><path d="M426.41 96.463 397.938 75.76l131.12.856-29.33 121.637-14.657-25.023-295.02 159.594Z" style="fill:#fff"/></svg>