<svg xmlns="http://www.w3.org/2000/svg" xmlns:xlink="http://www.w3.org/1999/xlink" width="600" height="549.882"><linearGradient id="a" x1="0" x2="1" y1="0" y2="0" gradientTransform="matrix(37.62256 0 0 -37.62256 342.39 434.343)" gradientUnits="userSpaceOnUse" spreadMethod="pad"><stop offset="0" style="stop-color:#d9eaf3"/><stop offset=".2" style="stop-color:#99aebc"/><stop offset=".5" style="stop-color:#536e78"/><stop offset=".8" style="stop-color:#99aebc"/><stop offset="1" style="stop-color:#d9eaf3"/></linearGradient><linearGradient xlink:href="#a" id="b" x1="0" x2="1" y1="0" y2="0" gradientTransform="translate(24.96 274.952)scale(543.07664)" gradientUnits="userSpaceOnUse" spreadMethod="pad"/><path d="M505.495 366.285c71.15-71.654 57.061-146.874 50.637-171.183l36.088-142.66 7.78-30.79-31.699-.274-147.9-1.415C407.713 12.688 379.753 0 340.273 0c-36.303 0-87.446 16.975-109.445 32.262-14.088 9.7-43.405 25.26-60.265 65.173 0 0 53.784-20.064 101.996-20.627 20.411-.231 55.82 2.872 87.793 20.007-18.953 21.652-58.129 57.465-125.063 81.658-19.343 6.986-37.776 10.537-54.752 10.537-27.628 0-48.66-9.354-59.27-26.387-12.01-19.4-8.17-46.798 5.876-79.623 15.214-35.625 48.992-80.965 48.992-80.965C126.29 13.251 94.49 46.913 87.779 53.683c-6.655 6.77-56.498 53.395-79.565 142.718-27.34 105.72 19.804 194.87 50.305 238.68l.506.736.562.621 3.551 4.446.231.289.217.23c34.745 40.534 109.287 108.479 218.443 108.479 92.311 0 132.123-23.688 167.243-43.478 35.134-19.675 67.945-74.758 67.945-74.758s-60.497 38.223-124.674 34.73c-19.228-1.126-44.82-4.85-57.004-28.018-13.525-25.55-5.528-65.419 20.7-103.873 40.201-58.75 84.69-87.735 110.398-100.64 11.331 46.567-2.31 92.86-7.376 108.651-12.183 37.329-38.065 79.782-38.065 79.782s46.35-17.755 84.3-55.993"/><path d="M243.459 53.684s88.76-14.377 152.692 36.939c0 0-40.143 70.76-152.403 111.307C131.53 242.463 53.438 175.933 104.812 71.96c0 0-50.912 47.36-72.463 130.693-21.537 83.29 7.16 161.555 46.639 218.168l3.551 4.389c44.878 52.384 113.444 99.759 199.49 99.759s144.637-37.386 144.637-37.386c-113.458 23.673-158.336-68.624-91.012-167.185C402.98 221.88 481.576 200.69 481.576 200.69c33.663 74.816-2.526 157.138-2.526 157.138 82.322-82.322 51.143-162.104 51.143-162.104l37.834-149.43-154.843-1.457S385.73 24.93 340.274 24.93c-26.72 0-59.645 6.87-96.815 28.754" style="fill:url(#b)"/><path d="m432.195 87.13-29.78-21.653 137.132.895-30.674 127.215-15.33-26.17-308.545 166.91Z" style="fill:#fff"/></svg>