<?xml version="1.0" encoding="UTF-8" standalone="no"?>
<!-- Generator: Adobe Illustrator 15.1.0, SVG Export Plug-In . SVG Version: 6.00 Build 0)  -->

<svg
   version="1.1"
   id="Layer_1"
   x="0px"
   y="0px"
   width="150"
   height="137.231"
   viewBox="0 0 150 137.231"
   enable-background="new 0 0 155 145"
   xml:space="preserve"
   xmlns="http://www.w3.org/2000/svg"
   xmlns:svg="http://www.w3.org/2000/svg"><defs
   id="defs5" />
<g
   id="Layer_1_1_"
   transform="translate(-2.779,-3.677)">
</g>
<g
   id="Layer_3"
   display="none"
   transform="translate(-2.779,-3.677)">
</g>
<g
   id="g5"
   transform="translate(-2.779,-3.677)">
	<path
   fill="#ffffff"
   d="M 130.301,25.446 V 14.077 l -28.139,-10.4 c 0,0 -4.969,18.374 -24.383,18.374 -19.415,0 -24.384,-18.374 -24.384,-18.374 l -28.14,10.4 V 25.446 L 2.779,33.723 c 0,0 7.461,13.851 9.707,22.65 2.773,10.863 3.582,24.268 3.582,24.268 l 18.028,6.55 v 9.86 l 43.683,43.857 43.682,-43.857 v -9.86 l 18.027,-6.55 c 0,0 0.811,-13.404 3.584,-24.268 2.246,-8.8 9.707,-22.65 9.707,-22.65 z"
   id="path1" />
	<path
   fill="#000000"
   d="M 25.255,47.995 V 31.727 l -14.22,5.236 c 2.46,5.062 5.726,12.332 7.161,17.953 1.976,7.738 2.992,16.537 3.446,21.479 l 12.453,4.524 V 53.918 Z"
   id="path2" />
	<path
   fill="#000000"
   d="m 130.301,31.727 v 16.269 l -8.84,5.923 V 80.92 l 12.453,-4.524 c 0.455,-4.942 1.471,-13.741 3.447,-21.479 1.434,-5.621 4.701,-12.892 7.162,-17.953 z"
   id="path3" />
	<g
   id="g4">
		<polygon
   fill="#000000"
   points="56.284,68.783 39.99,57.866 39.99,94.617 77.779,132.557 115.568,94.617 115.568,57.866 99.273,68.783 99.273,97.221 77.779,118.953 56.284,97.221 "
   id="polygon3" />
		<path
   fill="#000000"
   d="m 77.779,32.68 21.495,21.734 v 7.275 l 25.135,-16.84 V 18.182 l -18.98,-7.016 C 101.294,18.883 92.556,27.945 77.78,27.945 63.004,27.945 54.266,18.882 50.132,11.166 L 31.151,18.182 V 44.85 l 25.135,16.84 v -7.275 z"
   id="path4" />
	</g>
	<path
   fill="#000000"
   d="M 59.404,95.938 V 55.695 L 77.779,37.117 96.153,55.695 v 40.242 l -18.374,18.578 z m 18.375,14.634 15.6,-15.774 V 56.836 L 77.779,41.062 62.177,56.836 v 37.962 z"
   id="path5" />
</g>
</svg>
