<?xml version="1.0" encoding="UTF-8" standalone="no"?>
<!-- Generator: Adobe Illustrator 15.1.0, SVG Export Plug-In . SVG Version: 6.00 Build 0)  -->

<svg
   version="1.1"
   id="Layer_1"
   x="0px"
   y="0px"
   width="149.99899"
   height="137.231"
   viewBox="0 0 149.99899 137.231"
   enable-background="new 0 0 155 145"
   xml:space="preserve"
   xmlns="http://www.w3.org/2000/svg"
   xmlns:svg="http://www.w3.org/2000/svg"><defs
   id="defs44" />
<g
   id="Layer_1_1_"
   transform="translate(-2.8,-3.676)">
</g>
<g
   id="Layer_3"
   display="none"
   transform="translate(-2.8,-3.676)">
</g>
<g
   id="g44"
   transform="translate(-2.8,-3.676)">
	<path
   fill="#000000"
   d="M 130.322,25.445 V 14.077 L 102.182,3.676 c 0,0 -4.969,18.375 -24.383,18.375 C 58.384,22.051 53.414,3.676 53.414,3.676 L 25.276,14.077 V 25.445 L 2.8,33.723 c 0,0 7.46,13.85 9.707,22.65 2.773,10.862 3.582,24.268 3.582,24.268 l 18.027,6.549 v 9.861 L 77.8,140.907 121.483,97.051 V 87.19 l 18.027,-6.549 c 0,0 0.809,-13.405 3.582,-24.268 2.247,-8.801 9.707,-22.65 9.707,-22.65 z"
   id="path1" />
	<linearGradient
   id="SVGID_1_"
   gradientUnits="userSpaceOnUse"
   x1="11.0557"
   y1="56.3223"
   x2="144.543"
   y2="56.3223">
		<stop
   offset="0"
   style="stop-color:#BB2F27"
   id="stop1" />
		<stop
   offset="0.0302"
   style="stop-color:#BE3527"
   id="stop2" />
		<stop
   offset="0.0698"
   style="stop-color:#C64427"
   id="stop3" />
		<stop
   offset="0.1143"
   style="stop-color:#D35E27"
   id="stop4" />
		<stop
   offset="0.15"
   style="stop-color:#E07826"
   id="stop5" />
		<stop
   offset="0.1593"
   style="stop-color:#E07A26"
   id="stop6" />
		<stop
   offset="0.2577"
   style="stop-color:#ED8B22"
   id="stop7" />
		<stop
   offset="0.3655"
   style="stop-color:#F59621"
   id="stop8" />
		<stop
   offset="0.5"
   style="stop-color:#F79820"
   id="stop9" />
		<stop
   offset="0.6345"
   style="stop-color:#F59621"
   id="stop10" />
		<stop
   offset="0.7423"
   style="stop-color:#ED8B22"
   id="stop11" />
		<stop
   offset="0.8407"
   style="stop-color:#E07A26"
   id="stop12" />
		<stop
   offset="0.85"
   style="stop-color:#E07826"
   id="stop13" />
		<stop
   offset="0.8603"
   style="stop-color:#DB6F27"
   id="stop14" />
		<stop
   offset="0.896"
   style="stop-color:#CE5328"
   id="stop15" />
		<stop
   offset="0.9314"
   style="stop-color:#C33F27"
   id="stop16" />
		<stop
   offset="0.9663"
   style="stop-color:#BD3326"
   id="stop17" />
		<stop
   offset="1"
   style="stop-color:#BB2F27"
   id="stop18" />
	</linearGradient>
	<path
   fill="url(#SVGID_1_)"
   d="M 34.116,53.917 V 80.919 L 21.663,76.396 C 21.21,71.454 20.192,62.655 18.218,54.916 16.782,49.296 13.517,42.024 11.056,36.964 l 14.221,-5.237 v 16.269 z m 96.206,-22.191 v 16.269 l -8.84,5.923 V 80.92 l 12.453,-4.523 c 0.454,-4.942 1.47,-13.741 3.446,-21.48 1.435,-5.62 4.701,-12.892 7.161,-17.952 z"
   id="path18"
   style="fill:url(#SVGID_1_)" />
	<linearGradient
   id="SVGID_2_"
   gradientUnits="userSpaceOnUse"
   x1="77.800301"
   y1="132.55569"
   x2="77.800301"
   y2="57.8657">
		<stop
   offset="0"
   style="stop-color:#F79820"
   id="stop19" />
		<stop
   offset="0.1004"
   style="stop-color:#EB8924"
   id="stop20" />
		<stop
   offset="0.2"
   style="stop-color:#E07826"
   id="stop21" />
		<stop
   offset="0.45"
   style="stop-color:#E07826"
   id="stop22" />
		<stop
   offset="0.5088"
   style="stop-color:#DB7026"
   id="stop23" />
		<stop
   offset="0.6048"
   style="stop-color:#CF5C27"
   id="stop24" />
		<stop
   offset="0.7252"
   style="stop-color:#BF3827"
   id="stop25" />
		<stop
   offset="0.75"
   style="stop-color:#BB2F27"
   id="stop26" />
		<stop
   offset="1"
   style="stop-color:#BB2F27"
   id="stop27" />
	</linearGradient>
	<polygon
   fill="url(#SVGID_2_)"
   points="56.305,68.782 40.011,57.865 40.011,94.616 77.8,132.556 115.589,94.616 115.589,57.865 99.294,68.782 99.294,97.22 77.8,118.953 56.305,97.22 "
   id="polygon27"
   style="fill:url(#SVGID_2_)" />
	<linearGradient
   id="SVGID_3_"
   gradientUnits="userSpaceOnUse"
   x1="31.169901"
   y1="36.4272"
   x2="124.4287"
   y2="36.4272">
		<stop
   offset="0"
   style="stop-color:#BB2F27"
   id="stop28" />
		<stop
   offset="0.0248"
   style="stop-color:#BF3827"
   id="stop29" />
		<stop
   offset="0.1452"
   style="stop-color:#CF5C27"
   id="stop30" />
		<stop
   offset="0.2412"
   style="stop-color:#DB7026"
   id="stop31" />
		<stop
   offset="0.3"
   style="stop-color:#E07826"
   id="stop32" />
		<stop
   offset="0.324"
   style="stop-color:#E58025"
   id="stop33" />
		<stop
   offset="0.3748"
   style="stop-color:#EE8D23"
   id="stop34" />
		<stop
   offset="0.4306"
   style="stop-color:#F49621"
   id="stop35" />
		<stop
   offset="0.5"
   style="stop-color:#F79820"
   id="stop36" />
		<stop
   offset="0.5694"
   style="stop-color:#F49621"
   id="stop37" />
		<stop
   offset="0.6252"
   style="stop-color:#EE8D23"
   id="stop38" />
		<stop
   offset="0.676"
   style="stop-color:#E58025"
   id="stop39" />
		<stop
   offset="0.7"
   style="stop-color:#E07826"
   id="stop40" />
		<stop
   offset="0.7588"
   style="stop-color:#DB7026"
   id="stop41" />
		<stop
   offset="0.8548"
   style="stop-color:#CF5C27"
   id="stop42" />
		<stop
   offset="0.9752"
   style="stop-color:#BF3827"
   id="stop43" />
		<stop
   offset="1"
   style="stop-color:#BB2F27"
   id="stop44" />
	</linearGradient>
	<path
   fill="url(#SVGID_3_)"
   d="m 77.8,32.68 21.494,21.733 v 7.275 L 124.429,44.849 V 18.182 l -18.98,-7.016 c -4.135,7.716 -12.873,16.778 -27.648,16.778 -14.777,0 -23.516,-9.063 -27.648,-16.778 L 31.17,18.182 V 44.85 l 25.135,16.839 v -7.275 z"
   id="path44"
   style="fill:url(#SVGID_3_)" />
	<polygon
   fill="#ffffff"
   points="93.4,56.835 77.8,41.061 62.198,56.835 62.198,94.798 77.8,110.571 93.4,94.798 "
   id="polygon44" />
</g>
</svg>
