<?xml version="1.0" encoding="UTF-8" standalone="no"?>
<!-- Generator: Adobe Illustrator 15.1.0, SVG Export Plug-In . SVG Version: 6.00 Build 0)  -->

<svg
   version="1.1"
   id="Layer_1"
   x="0px"
   y="0px"
   width="150"
   height="137.231"
   viewBox="0 0 150 137.231"
   enable-background="new 0 0 155 145"
   xml:space="preserve"
   xmlns="http://www.w3.org/2000/svg"
   xmlns:svg="http://www.w3.org/2000/svg"><defs
   id="defs41" />
<g
   id="Layer_1_1_"
   transform="translate(-2.453,-3.676)">
</g>
<g
   id="Layer_3"
   display="none"
   transform="translate(-2.453,-3.676)">
</g>
<g
   id="g41"
   transform="translate(-2.453,-3.676)">
	<path
   fill="#000000"
   d="M 129.976,25.445 V 14.077 L 101.836,3.676 c 0,0 -4.969,18.375 -24.383,18.375 C 58.039,22.051 53.069,3.676 53.069,3.676 L 24.93,14.077 V 25.445 L 2.453,33.723 c 0,0 7.46,13.85 9.707,22.65 2.774,10.862 3.583,24.268 3.583,24.268 l 18.028,6.549 v 9.861 l 43.683,43.856 43.683,-43.856 V 87.19 l 18.027,-6.549 c 0,0 0.809,-13.405 3.582,-24.268 2.247,-8.801 9.707,-22.65 9.707,-22.65 z"
   id="path1" />
	<linearGradient
   id="SVGID_1_"
   gradientUnits="userSpaceOnUse"
   x1="10.709"
   y1="56.3223"
   x2="144.1963"
   y2="56.3223">
		<stop
   offset="0"
   style="stop-color:#626F78"
   id="stop1" />
		<stop
   offset="0.0035"
   style="stop-color:#64717A"
   id="stop2" />
		<stop
   offset="0.0676"
   style="stop-color:#8496A1"
   id="stop3" />
		<stop
   offset="0.1187"
   style="stop-color:#99ADB9"
   id="stop4" />
		<stop
   offset="0.15"
   style="stop-color:#A0B7C2"
   id="stop5" />
		<stop
   offset="0.1547"
   style="stop-color:#A2B8C3"
   id="stop6" />
		<stop
   offset="0.2545"
   style="stop-color:#AEC7D4"
   id="stop7" />
		<stop
   offset="0.3638"
   style="stop-color:#B5CDDD"
   id="stop8" />
		<stop
   offset="0.5"
   style="stop-color:#B7D1E1"
   id="stop9" />
		<stop
   offset="0.6362"
   style="stop-color:#B5CDDD"
   id="stop10" />
		<stop
   offset="0.7455"
   style="stop-color:#AEC7D4"
   id="stop11" />
		<stop
   offset="0.8453"
   style="stop-color:#A2B8C3"
   id="stop12" />
		<stop
   offset="0.85"
   style="stop-color:#A0B7C2"
   id="stop13" />
		<stop
   offset="0.8813"
   style="stop-color:#99ADB9"
   id="stop14" />
		<stop
   offset="0.9324"
   style="stop-color:#8496A1"
   id="stop15" />
		<stop
   offset="0.9965"
   style="stop-color:#64717A"
   id="stop16" />
		<stop
   offset="1"
   style="stop-color:#626F78"
   id="stop17" />
	</linearGradient>
	<path
   fill="url(#SVGID_1_)"
   d="M 33.77,53.917 V 80.919 L 21.316,76.396 C 20.862,71.454 19.846,62.655 17.87,54.916 16.435,49.296 13.169,42.024 10.708,36.964 l 14.221,-5.237 v 16.269 z m 96.206,-22.191 v 16.269 l -8.84,5.923 V 80.92 l 12.453,-4.523 c 0.454,-4.942 1.47,-13.741 3.446,-21.48 1.435,-5.62 4.701,-12.892 7.161,-17.952 z"
   id="path17"
   style="fill:url(#SVGID_1_)" />
	<linearGradient
   id="SVGID_2_"
   gradientUnits="userSpaceOnUse"
   x1="77.453102"
   y1="132.55569"
   x2="77.453102"
   y2="57.8657">
		<stop
   offset="0"
   style="stop-color:#B7D1E1"
   id="stop18" />
		<stop
   offset="0.1354"
   style="stop-color:#A8C0CD"
   id="stop19" />
		<stop
   offset="0.2"
   style="stop-color:#A0B7C2"
   id="stop20" />
		<stop
   offset="0.45"
   style="stop-color:#A0B7C2"
   id="stop21" />
		<stop
   offset="0.5128"
   style="stop-color:#97ABB7"
   id="stop22" />
		<stop
   offset="0.6152"
   style="stop-color:#82929D"
   id="stop23" />
		<stop
   offset="0.7439"
   style="stop-color:#647079"
   id="stop24" />
		<stop
   offset="0.75"
   style="stop-color:#626F78"
   id="stop25" />
		<stop
   offset="1"
   style="stop-color:#626F78"
   id="stop26" />
	</linearGradient>
	<polygon
   fill="url(#SVGID_2_)"
   points="55.958,68.782 39.664,57.865 39.664,94.616 77.453,132.556 115.242,94.616 115.242,57.865 98.947,68.782 98.947,97.22 77.453,118.953 55.958,97.22 "
   id="polygon26"
   style="fill:url(#SVGID_2_)" />
	<linearGradient
   id="SVGID_3_"
   gradientUnits="userSpaceOnUse"
   x1="30.8232"
   y1="36.4272"
   x2="124.082"
   y2="36.4272">
		<stop
   offset="0"
   style="stop-color:#626F78"
   id="stop27" />
		<stop
   offset="0.0061"
   style="stop-color:#647079"
   id="stop28" />
		<stop
   offset="0.1348"
   style="stop-color:#82929D"
   id="stop29" />
		<stop
   offset="0.2372"
   style="stop-color:#97ABB7"
   id="stop30" />
		<stop
   offset="0.3"
   style="stop-color:#A0B7C2"
   id="stop31" />
		<stop
   offset="0.3556"
   style="stop-color:#ACC5D2"
   id="stop32" />
		<stop
   offset="0.4198"
   style="stop-color:#B5CEDD"
   id="stop33" />
		<stop
   offset="0.5"
   style="stop-color:#B7D1E1"
   id="stop34" />
		<stop
   offset="0.5802"
   style="stop-color:#B5CEDD"
   id="stop35" />
		<stop
   offset="0.6444"
   style="stop-color:#ACC5D2"
   id="stop36" />
		<stop
   offset="0.7"
   style="stop-color:#A0B7C2"
   id="stop37" />
		<stop
   offset="0.7628"
   style="stop-color:#97ABB7"
   id="stop38" />
		<stop
   offset="0.8652"
   style="stop-color:#82929D"
   id="stop39" />
		<stop
   offset="0.9939"
   style="stop-color:#647079"
   id="stop40" />
		<stop
   offset="1"
   style="stop-color:#626F78"
   id="stop41" />
	</linearGradient>
	<path
   fill="url(#SVGID_3_)"
   d="m 77.453,32.68 21.495,21.733 v 7.275 L 124.083,44.849 V 18.182 l -18.98,-7.016 C 100.968,18.882 92.23,27.944 77.454,27.944 62.678,27.944 53.939,18.881 49.806,11.166 L 30.825,18.182 V 44.85 L 55.96,61.689 v -7.275 z"
   id="path41"
   style="fill:url(#SVGID_3_)" />
	<polygon
   fill="#ffffff"
   points="93.054,56.835 77.453,41.061 61.852,56.835 61.852,94.798 77.453,110.571 93.054,94.798 "
   id="polygon41" />
</g>
</svg>
