<?xml version="1.0" encoding="UTF-8" standalone="no"?>
<svg
   version="1.1"
   width="600"
   height="691.63635"
   id="svg5"
   xmlns:xlink="http://www.w3.org/1999/xlink"
   xmlns="http://www.w3.org/2000/svg"
   xmlns:svg="http://www.w3.org/2000/svg">
  <defs
     id="defs5" />
  <radialGradient
     cx="0"
     cy="0"
     r="1"
     fx="0"
     fy="0"
     id="radialGradient400"
     gradientUnits="userSpaceOnUse"
     gradientTransform="matrix(16.3508,0,0,-16.3508,482.66406,370.13232)"
     spreadMethod="pad">
    <stop
       style="stop-color:#f6b91d"
       offset="0"
       id="stop1" />
    <stop
       style="stop-color:#d3641c"
       offset="0.7"
       id="stop2" />
    <stop
       style="stop-color:#bf331c"
       offset="1"
       id="stop3" />
  </radialGradient>
  <radialGradient
     cx="0"
     cy="0"
     r="1"
     fx="0"
     fy="0"
     id="radialGradient2995"
     xlink:href="#radialGradient400"
     gradientUnits="userSpaceOnUse"
     gradientTransform="matrix(16.3508,0,0,-16.3508,482.66406,370.13232)"
     spreadMethod="pad" />
  <radialGradient
     cx="0"
     cy="0"
     r="1"
     fx="0"
     fy="0"
     id="radialGradient2998"
     xlink:href="#radialGradient400"
     gradientUnits="userSpaceOnUse"
     gradientTransform="matrix(282.73091,0,0,282.73091,303.81383,345.82097)"
     spreadMethod="pad" />
  <path
     d="m 424.71541,376.88215 c -1.55624,19.91989 -5.46413,39.25186 -11.87931,56.80279 -7.3662,20.12738 -20.05821,42.34705 -35.39583,57.47716 -27.56275,27.16505 -64.09983,41.48247 -96.19297,49.24638 1.76374,-27.28609 3.31998,-50.85449 5.20476,-80.92452 h 59.31007 L 381.9015,320.6154 C 345.08775,305.62362 303.27675,288.12455 288.89017,282.24542 V 164.66278 c 30.86544,10.2539 56.87196,24.10444 76.861,42.00121 44.37016,39.85706 63.63296,108.14145 58.96424,170.21816 M 52.808438,2.2777015 7.62558,6.4622615 c 0,0 88.290729,252.2839185 99.96253,285.5874785 -23.896937,9.11265 -32.075847,24.10444 -34.652291,34.51396 l -10.997435,44.04162 h 15.268452 c -0.484164,1.4179 -26.957549,80.85535 -26.957549,80.85535 H 104.35459 C 97.334217,490.15919 90.106343,530.34479 84.901582,559.58483 68.561054,559.2556 58.549238,558.11504 58.359031,558.11504 L 25.868181,554.25902 19.383844,586.33488 0,683.34055 l 38.300816,4.3229 C 50.785325,689.08135 345.41629,720.62117 503.34015,579.59117 567.50915,522.23505 600,445.37404 600,350.94481 600,255.0285 567.23249,176.54209 502.66578,117.64702 347.99274,-23.313818 64.843367,1.2056215 52.808438,2.2777015"
     style="fill:#ffffff"
     id="path3" />
  <path
     d="m 55.782587,33.679182 -5.066428,0.48416 61.402341,175.267298 c 0,0 22.63466,-99.08066 23.9834,-104.82146 16.54803,0 41.88017,0.2075 69.84063,2.76665 0.32924,5.87913 12.89951,464.64163 12.89951,464.64163 l 20.80175,-2.02311 c 0,0 9.25099,-143.26062 9.66599,-150.09078 h 66.05378 l 9.92535,-37.41895 h -76.0483 v -37.74748 h 74.09436 l -74.09436,-35.88 V 113.46246 c 59.77694,10.92827 107.93395,32.28335 142.98395,63.754 47.69013,42.76204 71.81187,104.49292 71.81187,183.58454 0,66.8146 -19.79884,120.24554 -58.8432,158.59823 -43.02141,42.41621 -102.40064,59.0334 -144.47102,65.51774 -23.91423,3.64852 -44.99265,4.46122 -58.49736,4.59956 0,0 -14.52492,-0.46619 -19.98905,-0.67368 V 161.34349 c 0,0 -23.70674,148.46538 -24.86527,154.20618 -47.81118,0.67368 -53.36177,16.82469 -53.82864,18.6403 l -1.81562,8.17891 h 51.73637 l -5.80997,40.11643 H 106.51604 L 94.014237,419.90426 H 142.0502 c -1.55624,8.64578 -29.7242,165.0134 -30.7444,170.89253 -33.770424,1.27958 -56.456957,-1.34874 -56.664456,-1.41791 l -3.64852,-0.39701 -0.673679,3.57935 -12.692009,63.28713 4.253725,0.53535 c 0.744229,0.0692 73.817689,8.10974 164.062369,-0.13834 83.48367,-7.62558 199.18153,-31.26314 276.45753,-100.2392 57.07946,-50.99282 86.06012,-120.02075 86.06012,-205.06066 0,-86.66532 -29.25733,-157.31866 -87.06303,-209.98876 C 405.79913,72.049852 294.02646,46.527502 213.63797,37.259232 126.71328,27.333872 56.45765,33.610712 55.783279,33.679872"
     style="fill:#bf331c"
     id="path4" />
  <path
     d="M 61.402346,41.045392 110.4931,181.47018 c 6.89933,-29.84524 17.17052,-74.83789 18.10427,-78.69391 v 0 l 1.4179,-6.000168 6.1558,0.0692 c 13.22805,0 40.72164,0.0692 70.44584,2.83581 v 0 l 6.62266,0.536038 0.46688,6.62267 c 0.34583,5.60247 10.94556,392.57039 12.7093,456.60106 v 0 l 5.86184,-0.53604 c 1.8329,-28.23713 8.85328,-137.58898 9.25098,-143.53728 v 0 l 0.55333,-7.22788 h 7.22788 60.03631 l 5.80997,-21.87383 h -65.91545 -7.76391 v -7.7812 -37.74748 -7.78121 h 7.76391 40.04727 l -43.43641,-21.06112 -4.37477,-2.09228 v -4.94539 -195.39468 -9.32015 l 9.18182,1.60811 c 61.33318,11.29139 110.7006,33.37272 146.70163,65.65607 v 0 c 49.45388,44.31828 74.44019,108.00311 74.44019,189.39451 v 0 c 0,69.04522 -20.54238,124.29177 -61.12568,164.14882 v 0 C 366.21805,568.7148 305.2307,585.9372 261.86345,592.62904 v 0 c -19.03801,2.90498 -39.58039,4.5131 -59.91527,4.65143 v 0 l -20.05821,-0.67437 -7.41808,-0.27667 v -7.48725 -329.69826 c -4.80706,29.86253 -8.99162,55.52321 -9.45849,57.96132 v 0 l -1.34874,6.13851 -6.22496,0.0692 c -30.32941,0.48416 -42.27788,7.50454 -45.52869,11.29139 v 0 h 41.55163 8.97432 l -1.27958,8.90515 -5.80996,40.06456 -1.00291,6.69183 h -6.69184 -35.53417 l -7.29704,21.87383 h 37.28062 9.33744 l -1.69457,9.18182 c -1.55624,8.64579 -29.79337,164.94424 -30.79628,170.82337 v 0 l -1.15853,6.1558 -6.20767,0.25937 c -6.76101,0.27667 -13.10701,0.34583 -18.916975,0.34583 v 0 c -15.666158,0 -29.240036,-0.8127 -35.464999,-1.34874 v 0 l -10.323064,51.4597 c 10.461396,1.0202 38.162483,3.18165 75.373928,3.18165 v 0 c 28.30629,0 56.19759,-1.21041 83.0168,-3.71769 v 0 c 82.27327,-7.48731 196.20739,-30.658 271.92715,-98.26802 v 0 c 55.40217,-49.52304 83.55284,-116.59702 83.55284,-199.26799 v 0 c 0,-84.36555 -28.4965,-153.11681 -84.62492,-204.24796 v 0 C 402.09804,79.207872 291.98536,54.083232 212.75541,45.039742 v 0 c -32.28335,-3.71769 -65.84628,-5.61976 -99.75504,-5.61976 v 0 c -24.986306,0 -43.367239,1.08937 -51.598024,1.62541"
     style="fill:url(#radialGradient2998)"
     id="path5" />
</svg>
