<?xml version="1.0" encoding="UTF-8" standalone="no"?>
<svg
   version="1.1"
   width="530.90289"
   height="628.30408"
   id="svg1"
   xmlns="http://www.w3.org/2000/svg"
   xmlns:svg="http://www.w3.org/2000/svg">
  <defs
     id="defs1" />
  <path
     d="m 18.155451,2.0201549 -5.066428,0.48416 61.333181,175.2672951 c 0,0 22.77299,-99.080657 24.12173,-104.821457 16.478856,0 41.810996,0.2075 69.771456,2.76665 0.32924,5.87913 12.89951,464.641627 12.89951,464.641627 l 20.80175,-2.02311 c 0,0 9.25099,-143.26062 9.73515,-150.09078 h 65.98462 l 9.92535,-37.41895 h -76.0483 v -37.74748 h 74.09436 l -74.09436,-35.88 V 81.803433 c 59.77694,10.92827 107.93395,32.283347 142.98395,63.753997 47.62097,42.76204 71.81187,104.49292 71.81187,183.58454 0,66.8146 -19.79884,120.24554 -58.8432,158.59823 -43.09058,42.41621 -102.33148,59.0334 -144.47102,65.51774 -23.9834,3.64852 -44.99265,4.46122 -58.49736,4.59956 0,0 -14.52492,-0.46619 -19.98905,-0.67368 V 129.68446 c 0,0 -23.70674,148.46538 -24.86527,154.20618 -47.811176,0.67368 -53.361766,16.82469 -53.828636,18.6403 l -1.76374,8.17891 H 115.8355 l -5.80997,40.11643 H 68.819734 l -12.432633,37.41895 h 48.087839 c -1.60812,8.64578 -29.776076,165.0134 -30.796276,170.89253 -33.770424,1.27958 -56.387791,-1.34874 -56.664456,-1.41791 l -3.64852,-0.39701 -0.742846,3.57935 L 0,624.18932 l 4.253725,0.53535 c 0.744229,0.0692 73.817689,8.10974 164.062365,-0.13834 83.48367,-7.62558 199.18153,-31.26314 276.38836,-100.2392 57.14863,-50.99282 86.19845,-120.02075 86.19845,-205.06066 0,-86.66532 -29.32649,-157.31866 -87.13219,-209.98876 C 368.17199,40.390825 256.46848,14.868475 176.01083,5.6002049 89.086144,-4.3251551 18.830514,1.9516849 18.156143,2.0208449"
     id="path1" />
</svg>
