<svg xmlns="http://www.w3.org/2000/svg" width="1355.463" height="612.857"><path d="M-230.82 415.22H981.071s73.572 160.35 73.572 306.427-73.572 306.43-73.572 306.43h-1211.89s-70-160.353-70-306.43 70-306.428 70-306.428" style="fill:gray" transform="translate(300.82 -415.22)"/><path d="M94.257 35.718s-58.78 124.642-58.78 270.719 58.78 270 58.78 270h1165.844s60.719-123.923 60.719-270S1260.1 35.718 1260.1 35.718zm847.75 51.531h13.407v247.594c0 32.99 21.302 54.563 44.437 54.563v16.156H838.726v-16.156l44.938-16.032v-213.03h-44.938v-16.032c44.952-13.076 69.031-28.668 103.281-57.063m169.47 0c79.046 0 114.655 63.009 114.655 133.72 0 70.71-29.268 187.968-197 187.968V379.28c58.702 0 103.075-21.714 114.97-99.25l-28.75 11.625c-87.765 7.503-109.188-61.606-109.188-97.72 0-36.112 26.265-106.687 105.312-106.687m-876.813 5.97H399.85c5.034 0 9.51 2.457 11.313 6.905.005.013.026.019.03.032l69.938 174.593c2.898 7.233 5.106 7.305 8.22.25l.124-.25 48.906-112.812c.531-1.225 1.056-2.432 1.563-3.656 6.371-15.382 9.157-31.12-33.75-58.438.061-.004.126.004.187 0-3.815-2.822-7.14-6.625 4.157-6.625H701.35c7.418 0 7.919 2.83.688 7.344.007.012.024.02.03.031l-2.218 1.375c-25.954 16.204-28.942 34.195-13.687 71.938l100.843 249.53c.086.212.165.416.25.626 9.746 23.86 22.01 39.543 50.5 70.531.783.852 1.489 1.601 2.125 2.313 4.458 4.98 4.995 6.647-2.812 6.656H629.695c-7.014-.207-9.789-2.093 1.062-9.281 31.43-23.677 28.598-46.923 12.125-87.97l-.125-.28-58.468-145.438-.782-1.906c-3.9-8.756-6.922-8.281-11.25 1.375-.082.184-.166.34-.25.531L457.79 521.874c-.152.1-.213.212-.157.313-5.947 13.603-7.796 13.789-13.156.625-.088-.216-.16-.402-.25-.625.083-.13.012-.278-.156-.406L338.914 260.593l-.313-.719c-4.185-10.03-7.293-9.884-11.875.47-.04.088-.085.159-.125.25l-63.031 144.03c-.042.096-.084.186-.125.282-13.732 31.727.67 56.28 46.125 90.843-.021.03-.042.065-.063.094 5.733 4.116 7.984 7.719-2.468 7.719H123.85c-6.738 0-7.146-.957-1.406-6.969 26.142-27.41 46.205-50.618 59-79.5l99.219-224.031c-.008-.004-.024.004-.032 0 1.125-2.54 2.228-4.964 3.25-7.313 15.33-35.224 17.53-50.023-38.906-78.968l-10.969-5.625c-.043-.023-.082-.04-.125-.063-6.965-3.62-7.784-7.875.782-7.875m875.53 28.25c-22.778 0-29.53 32.533-29.53 55.312 0 26.004 5.72 56.934 15.28 68.375 9.561 11.44 21.163 12.681 51.126 12.687 0-54.116 5.27-136.375-36.875-136.375"/></svg>