<svg xmlns="http://www.w3.org/2000/svg" width="1285.344" height="540.719"><path d="M58.781 0S0 124.642 0 270.719s58.781 270 58.781 270h1165.844s60.719-123.923 60.719-270S1224.625 0 1224.625 0zm847.75 51.531h13.407v247.594c0 32.99 21.302 54.563 44.437 54.563v16.156H803.25v-16.156l44.938-16.032V124.625H803.25v-16.031c44.952-13.076 69.031-28.668 103.281-57.063m169.469 0c79.047 0 114.656 63.008 114.656 133.719s-29.268 187.969-197 187.969v-29.656c58.702 0 103.075-21.715 114.969-99.25l-28.75 11.625c-87.764 7.502-109.187-61.606-109.187-97.72 0-36.112 26.265-106.687 105.312-106.687M199.188 57.5h165.187c5.034 0 9.51 2.457 11.313 6.906.005.013.026.019.03.031l69.938 174.594c2.898 7.233 5.106 7.304 8.219.25l.125-.25 48.906-112.812c.531-1.225 1.056-2.433 1.563-3.657 6.371-15.382 9.157-31.12-33.75-58.437.061-.004.126.004.187 0-3.815-2.822-7.14-6.625 4.156-6.625h190.813c7.418 0 7.918 2.83.687 7.344.007.012.025.019.032.03l-2.22 1.376c-25.953 16.203-28.94 34.195-13.687 71.937L751.531 387.72c.086.211.164.415.25.625 9.746 23.86 22.01 39.543 50.5 70.531.783.852 1.489 1.601 2.125 2.313 4.457 4.98 4.995 6.647-2.812 6.656H594.219c-7.014-.207-9.79-2.093 1.062-9.281 31.43-23.677 28.598-46.923 12.125-87.97l-.125-.28-58.468-145.438-.782-1.906c-3.9-8.756-6.922-8.281-11.25 1.375-.082.183-.166.34-.25.531L422.313 486.156c-.152.1-.213.211-.157.313-5.947 13.603-7.796 13.789-13.156.625-.088-.216-.16-.402-.25-.625.083-.13.012-.278-.156-.406L303.438 224.875l-.313-.719c-4.185-10.03-7.294-9.884-11.875.469-.04.089-.085.16-.125.25l-63.031 144.031c-.042.096-.084.186-.125.281-13.732 31.728.67 56.28 46.125 90.844-.022.03-.042.065-.063.094 5.733 4.116 7.984 7.719-2.469 7.719H88.375c-6.738 0-7.146-.957-1.406-6.969 26.142-27.41 46.205-50.618 59-79.5l99.219-224.031c-.009-.004-.024.004-.032 0 1.125-2.54 2.228-4.964 3.25-7.313 15.33-35.225 17.53-50.023-38.906-78.968l-10.969-5.626-.125-.062c-6.965-3.62-7.784-7.875.781-7.875m875.53 28.25c-22.778 0-29.53 32.533-29.53 55.313 0 26.004 5.72 56.934 15.28 68.375 9.561 11.44 21.163 12.681 51.126 12.687 0-54.117 5.27-136.375-36.875-136.375"/></svg>