<?xml version="1.0" encoding="UTF-8" standalone="no"?>
<svg
   width="1000"
   height="1000"
   viewBox="0 0 1000 1000"
   version="1.1"
   xml:space="preserve"
   style="clip-rule:evenodd;fill-rule:evenodd;stroke-linejoin:round;stroke-miterlimit:2"
   id="svg9"
   xmlns="http://www.w3.org/2000/svg"
   xmlns:svg="http://www.w3.org/2000/svg"><defs
   id="defs9" />
    <g
   id="C"
   transform="translate(-0.94499999,1.89)">
        <rect
   x="0.94499999"
   y="-1.89"
   width="1000"
   height="1000"
   style="fill:none"
   id="rect1" />
        <g
   transform="translate(0.94518,-1.89036)"
   id="g1">
            <path
   d="m 4.8,83.557 h 986.933 c 0,0 -27.938,19.585 -72.723,164.088 l -37.095,0.186 v 501.278 h 39.231 c 0,0 24.118,113.031 70.461,162.676 H 5.149 c 0,0 23.645,-5.185 72.826,-164.104 h 36.413 V 684.76 H 60.005 V 312.592 h 54.383 V 248.751 H 77.502 c 0,0 -41.367,-141.702 -72.702,-165.194 z"
   style="fill:#ffffff"
   id="path1" />
        </g>
        <g
   transform="translate(0.94518,-1.89036)"
   id="g2">
            <path
   d="M 292.079,362.417 V 633.429 H 109.59 V 362.417 Z m -117.667,151.07 -23.868,68.482 h 103.041 l -23.833,-68.382 c 15.239,-9.315 25.418,-26.108 25.418,-45.26 0,-29.255 -23.752,-53.006 -53.007,-53.006 -29.255,0 -53.006,23.751 -53.006,53.006 0,19.084 10.107,35.825 25.255,45.16 z"
   id="path2" />
        </g>
        <g
   transform="translate(0.94518,-1.89036)"
   id="g3">
            <rect
   x="169.274"
   y="244.71001"
   width="82.199997"
   height="70.806"
   id="rect2" />
        </g>
        <g
   transform="translate(0.94518,-1.89036)"
   id="g4">
            <rect
   x="169.274"
   y="681.75201"
   width="82.199997"
   height="67.957001"
   id="rect3" />
        </g>
        <g
   transform="translate(0.94518,-1.89036)"
   id="g5">
            <rect
   x="359.431"
   y="244.71001"
   width="82.966003"
   height="504.99899"
   id="rect4" />
        </g>
        <g
   transform="translate(194.391,-1.89036)"
   id="g6">
            <rect
   x="359.431"
   y="244.71001"
   width="82.966003"
   height="504.99899"
   id="rect5" />
        </g>
        <g
   transform="translate(385.705,-1.89036)"
   id="g7">
            <rect
   x="359.431"
   y="244.71001"
   width="82.966003"
   height="504.99899"
   id="rect6" />
        </g>
        <g
   transform="translate(0.94518,-1.89036)"
   id="g8">
            <path
   d="m 115.108,197.771 h 765.816 l 18.407,-64.424 H 96.702 Z"
   id="path7" />
        </g>
        <g
   transform="matrix(1,0,0,-1,0.94518,994.768)"
   id="g9">
            <path
   d="m 115.108,197.771 h 765.816 l 18.407,-64.424 H 96.702 Z"
   id="path8" />
        </g>
    </g>
</svg>
