<?xml version="1.0" encoding="UTF-8" standalone="no"?>
<!DOCTYPE svg PUBLIC "-//W3C//DTD SVG 1.1//EN" "http://www.w3.org/Graphics/SVG/1.1/DTD/svg11.dtd">
<svg width="100%" height="100%" viewBox="0 0 1000 1000" version="1.1" xmlns="http://www.w3.org/2000/svg" xmlns:xlink="http://www.w3.org/1999/xlink" xml:space="preserve" xmlns:serif="http://www.serif.com/" style="fill-rule:evenodd;clip-rule:evenodd;stroke-linejoin:round;stroke-miterlimit:2;">
    <g transform="matrix(1,0,0,1,-4832,0)">
        <g id="WM" transform="matrix(1,0,0,1,-0.333333,0)">
            <rect x="4832.33" y="0" width="1000" height="1000" style="fill:none;"/>
            <g transform="matrix(1,0,0,1,4833.3,0)">
                <path d="M4.8,83.557L991.733,83.557C991.733,83.557 963.795,103.142 919.01,247.645L881.915,247.831L881.915,749.109L921.146,749.109C921.146,749.109 945.264,862.14 991.607,911.785L5.149,911.785C5.149,911.785 28.794,906.6 77.975,747.681L114.388,747.681L114.388,684.76L60.005,684.76L60.005,312.592L114.388,312.592L114.388,248.751L77.502,248.751C77.502,248.751 36.135,107.049 4.8,83.557ZM251.473,681.752L169.274,681.752L169.274,749.709L251.473,749.709L251.473,681.752ZM827.156,244.71L744.19,244.71L744.19,749.709L827.156,749.709L827.156,244.71ZM292.079,362.417L109.59,362.417L109.59,633.429L292.079,633.429L292.079,362.417ZM174.412,513.487C159.264,504.152 149.157,487.411 149.157,468.327C149.157,439.072 172.908,415.321 202.163,415.321C231.418,415.321 255.17,439.072 255.17,468.327C255.17,487.479 244.991,504.272 229.752,513.587L253.585,581.969L150.544,581.969L174.412,513.487ZM251.473,244.71L169.274,244.71L169.274,315.516L251.473,315.516L251.473,244.71ZM635.843,244.71L552.877,244.71L552.877,749.709L635.843,749.709L635.843,244.71ZM115.108,798.888L96.702,863.311L899.331,863.311L880.924,798.888L115.108,798.888ZM115.108,197.771L880.924,197.771L899.331,133.347L96.702,133.347L115.108,197.771ZM442.396,244.71L359.431,244.71L359.431,749.709L442.396,749.709L442.396,244.71Z"/>
            </g>
        </g>
    </g>
</svg>
