<svg xmlns="http://www.w3.org/2000/svg" width="216" height="145.208" viewBox="0 0 216 145.208"><path d="m0 69.6 45.12-12.723c-3.365-5.723-9.755-9.94-16.56-9.597V0l44.298 19.917L107.897.472l35.245 19.445L187.44 0v47.28c-6.805-.344-13.195 3.874-16.56 9.597L216 69.6v.48l-48 16.082c1.334 4.278 3.41 8.421 6.14 11.978.64.832 2.55 2.565 2.86 3.141.112.207.213.478.09.69l-68.987 43.237-69.193-43.236c-.123-.213-.022-.484.09-.69.31-.577 2.22-2.31 2.86-3.142 2.73-3.557 4.806-7.7 6.14-11.978L0 70.08zM182.4 7.2l-40.205 18.5L108.06 6.753 73.78 25.678 33.6 7.2v35.52c8.757 1.734 15.419 8.526 18.419 16.741 1.128 3.088 1.594 6.334 2.21 9.55l13.212 2.51c.725-25.852 25.042-44.918 50.5-38.382 17.486 4.489 29.87 20.67 30.502 38.624l13.524-2.915c.67-10.56 6.403-20.838 16.38-25.02 1.317-.552 2.864-.756 4.053-1.468zM47.497 61.7l-30.455 8.617 90.846 30.735 90.83-30.735-30.087-8.618c-.955.283-2.007 8.474-2.091 9.801l-58.66 11.731-58.272-11.707zm115.702 26.14-20.814 6.905c-16.043 25.66-53.21 25.71-69.201-.049l-20.246-6.863a52.8 52.8 0 0 1-6.33 12.61l61.474 38.71 61.354-38.712c-2.729-3.755-5.104-8.067-6.237-12.602" style="fill:#fff"/><path d="M182.4 7.2v35.16c-1.19.712-2.736.916-4.053 1.467-9.977 4.183-15.71 14.462-16.38 25.02l-13.524 2.916c-.633-17.954-13.016-34.135-30.502-38.624-25.458-6.536-49.775 12.53-50.5 38.382l-13.212-2.51c-.616-3.216-1.082-6.462-2.21-9.55-3-8.215-9.662-15.007-18.419-16.741V7.2l40.18 18.478 34.28-18.924 34.135 18.945zm-40.015 87.545c-16.043 25.66-53.21 25.71-69.201-.049l-20.246-6.863a52.8 52.8 0 0 1-6.33 12.61l61.474 38.71 61.354-38.712c-2.729-3.755-5.104-8.067-6.237-12.602zM17.042 70.317l90.846 30.735 90.83-30.735-30.087-8.618c-.955.283-2.007 8.474-2.091 9.801l-58.66 11.731-58.272-11.707-2.111-9.823z"/></svg>