<svg xmlns="http://www.w3.org/2000/svg" width="312.431" height="239.574" data-name="Layer 1"><path d="M311.6 81.432c-40.85 19.53-71.34-36.06-9.09-74.43-46-17.61-100.79-2.23-138.5 48.72-26.59 40.35-49.09 13.59-37.78-12.23-39.91 13.4-51.94 56.82-54.85 78.5-4.18 17.13-20.25 64.5-71.38 68.91 56.71 61.5 129.73 52.44 171.35 38.43 31.3-12.32 48.48-26.69 86.22-19.79 43.26-36.02 58.81-76.02 54.03-128.11M80.74 195.802c16.74-7.97 30.06-31.32 37.44-49.96 13.65 18.25 38.77 31.89 60.23 38.6-30.63 14.28-60.94 22.73-97.68 11.36zm139.39-62.2c-6.72 20.09-15.41 31.39-29.3 43.18-32.69-30.37-13.92-49.79-29.83-59.26-7.63-3.07-14.51-2.24-22.44.71 23.66-22.39 61.49-39.56 103.62-36.22-16.21 8.55-16.94 22.92-22.04 51.59z" class="cls-1"/></svg>