<svg xmlns="http://www.w3.org/2000/svg" width="891.842" height="546.713"><path fill="#fff" d="M48.187 0C22.382 11.418 6.207 84.072 16.115 139.967c-26.76 34.676-16.03 101.216 2.134 137.797-8.782 65.24 14.034 106.17 46.684 130.507 4.94 19.332 20.695 61.943 69.834 82.268 37.532 66.959 122.734 70.36 201.186 29.715 35.295 12.186 77.073 18.82 109.968 18.82s74.673-6.634 109.969-18.82c78.45 40.646 163.653 37.244 201.186-29.715 49.139-20.325 64.894-62.936 69.834-82.268 32.65-24.337 55.466-65.267 46.683-130.507 18.165-36.581 28.895-103.121 2.135-137.797C885.635 84.072 869.46 11.417 843.656 0c-31.44 69.351-93.038 132.303-148.276 174.193s-92.574 34.984-75.668-16.615c-45.922-22.42-106.048-46.832-135.52-59.166-7.016 18.459-14.932 40.912-38.27 40.912-23.34 0-31.255-22.453-38.272-40.912-29.471 12.334-89.597 36.745-135.52 59.166 16.907 51.6-20.43 58.506-75.668 16.615C141.224 132.303 79.625 69.351 48.187 0m326.28 192.574c22.796 0 42.486 13.33 51.66 32.64 1.897 3.996 11.175 10.61 19.794 10.61s17.897-6.614 19.795-10.61c9.174-19.31 28.864-32.64 51.66-32.64 31.584 0 57.188 25.604 57.188 57.188a61 61 0 0 1-.192 4.662c-.994 12.16 18.698 28.851 34.407 18.012a51.5 51.5 0 0 1 29.248-9.112c28.442 0 51.5 23.058 51.5 51.5 0 28.443-23.058 51.5-51.5 51.5-28.443 0-51.5-23.057-51.5-51.5.01-.801.018-1.545.054-2.345.613-13.44-21.545-27.238-34.32-17.403-10.007 7.704-22.22 11.848-34.885 11.873-23.05 0-42.92-13.649-51.953-33.289-2.321-5.047-10.133-9.586-19.502-9.586s-17.18 4.539-19.502 9.586c-9.034 19.64-28.903 33.29-51.953 33.29-12.664-.026-24.877-4.17-34.885-11.874-12.775-9.835-34.933 3.962-34.32 17.403.037.8.045 1.544.055 2.345 0 28.443-23.058 51.5-51.5 51.5-28.443 0-51.5-23.057-51.5-51.5 0-28.442 23.057-51.5 51.5-51.5a51.5 51.5 0 0 1 29.248 9.112c15.709 10.84 35.4-5.853 34.406-18.012a61 61 0 0 1-.191-4.662c0-31.584 25.603-57.188 57.187-57.188"/><path d="M43.535 35.674C28.197 72.335 23.98 149.937 55.3 184.864c30.21 33.69 58.314 51.49 93.03 67.355 19.683-18.894 38.213-34.137 56.478-47.922l-.25-.156C149.155 168.745 73.476 97.595 43.535 35.674m804.773 0c-29.941 61.92-105.62 133.071-161.023 168.467l-.25.156c18.265 13.785 36.795 29.028 56.476 47.922 34.717-15.866 62.82-33.666 93.03-67.356 31.32-34.926 27.105-112.528 11.767-149.19m-451.3 90.58c-28.067 11.012-55.061 21.331-99.686 43.02 6.192 44.12-28.434 65.452-75.34 44.36-25.814 18.015-53.87 41.855-86.645 77.97 16.97 40.741 39.685 81.94 63.15 124.066 8.48-2.433 16.334-4.987 24.36-6.402 25.542-4.504 95.26-.651 86.639 79.921 27.382 17.57 94.466 31.635 136.435 31.635s109.053-14.066 136.436-31.635c-8.622-80.572 61.097-84.425 86.638-79.921 8.026 1.415 15.88 3.969 24.36 6.402 23.466-42.127 46.18-83.325 63.15-124.066-32.776-36.115-60.83-59.955-86.644-77.97-46.906 21.092-81.532-.24-75.34-44.36-44.626-21.689-71.62-32.008-99.688-43.02-9.354 17.107-20.007 36.32-48.912 36.32s-39.558-19.213-48.912-36.32M23.884 166.119c-14.76 40.753 6.434 102.434 26.256 125.652 19.552 22.903 64.495 45.285 88.717 51.745-7.76-15.945-16.007-33.727-25.475-55.014a689 689 0 0 1 21.342-22.8c-44.703-24.354-92.53-50.86-110.84-99.583m844.074 0c-18.31 48.723-66.137 75.23-110.84 99.582a689 689 0 0 1 21.342 22.8c-9.468 21.288-17.715 39.07-25.474 55.015 24.22-6.46 69.165-28.842 88.716-51.745 19.822-23.218 41.016-84.899 26.256-125.652m-493.492 9.541c29.39 0 55.046 17.227 66.938 42.297.454.958 3.057 1.426 4.517 1.426s4.063-.468 4.518-1.426c11.892-25.07 37.547-42.297 66.937-42.297 40.725 0 74.102 33.377 74.102 74.102v.107c-.012 1.886-.066 3.843-.248 5.934-.171 1.962 5.473 4.414 7.94 2.71a68.45 68.45 0 0 1 38.85-12.103h.007c37.584 0 68.414 30.83 68.414 68.414s-30.83 68.414-68.414 68.414-68.414-30.83-68.414-68.414v-.21c.01-.787-.043-1.08.02-2.245.117-2.083-5.922-4.76-7.053-3.89a74.3 74.3 0 0 1-45.17 15.384h-.034c-28.79 0-53.917-16.535-66.167-40.746-1.457-2.878-3.42-3.191-5.288-3.191-1.867 0-3.83.313-5.287 3.191-12.25 24.21-37.378 40.746-66.168 40.746h-.033a74.3 74.3 0 0 1-45.17-15.384c-1.131-.87-7.17 1.807-7.054 3.89.064 1.166.01 1.458.02 2.244v.211c0 37.584-30.83 68.414-68.413 68.414-37.584 0-68.414-30.83-68.414-68.414s30.83-68.414 68.414-68.414h.006a68.44 68.44 0 0 1 38.85 12.104c2.467 1.703 8.112-.749 7.94-2.711-.181-2.091-.235-4.048-.247-5.934v-.107c0-40.725 33.376-74.102 74.1-74.102M35.634 302.191c1.97 73.78 42.396 101.56 90.002 114.553 22.442 6.126 39.589 5.858 54.102 3.381-11.422-19.836-21.367-37.854-31.694-58.158-47.494-9.777-88.138-34.43-112.41-59.776m820.574 0c-24.272 25.347-64.915 50-112.41 59.776-10.327 20.304-20.271 38.322-31.693 58.158 14.513 2.477 31.66 2.745 54.1-3.38 47.607-12.995 88.033-40.774 90.003-114.554M90.146 423.242c37.046 77.258 153.302 80.836 190.242 18.297-4.38-3.97-9.464-7.006-14.36-9.846-16.57-9.612-31.548-6.71-67.048 2.79-33.564 8.982-69.116 7.814-108.834-11.24m711.55 0c-39.717 19.055-75.27 20.223-108.833 11.24-35.5-9.5-50.48-12.4-67.05-2.789-4.895 2.84-9.98 5.876-14.36 9.846 36.94 62.539 153.198 58.961 190.244-18.297m-510.505 36.389c-13.356 21.848-55.637 53.179-128.23 39.156 34.05 32.4 82.663 41.375 148.86 11.723-9.173-4.339-17.477-9.13-24.511-14.352 5.232-15.996 5.922-27.67 3.88-36.527m309.46 0c-2.04 8.857-1.35 20.531 3.882 36.527-7.035 5.223-15.34 10.013-24.512 14.352 66.198 29.652 114.81 20.677 148.86-11.723-72.592 14.023-114.874-17.308-128.23-39.156"/></svg>