<svg xmlns="http://www.w3.org/2000/svg" width="1010.604" height="1023.991"><g transform="translate(-.034)scale(20.479)"><path fill="#fff" d="m38.302 50.002-.854-.931c-2.598-2.819-3.249-5.022-4.001-7.569l-.118-.396c-.346-1.165-1.259-1.577-2.979-2.26-.569-.228-1.154-.462-1.739-.758-1.221-.619-2.768-.999-2.783-1.004l-.821-.2-.362-.768c-.03-.06-.684-1.458-1.036-2.609a1.2 1.2 0 0 0-.08-.218c-.02 0-.57-.387-3.592-.532-4.197-.203-6.837-2.332-8.959-4.042-.104-.08-.209-.167-.311-.251.05.385.06.762.01 1.107-.119.831-.563 1.487-1.249 1.846a2.7 2.7 0 0 1-1.282.315c-1.535 0-2.756-1.204-3.871-2.439-1.105-1.212-3.212-4.323-3.27-7.395-.071-3.797.58-5.901 2.115-6.816a2.6 2.6 0 0 1 1.344-.357c.73 0 1.495.288 2.184.671.2-.286.412-.519.622-.708a44 44 0 0 1-.051-2.166 3.3 3.3 0 0 1-1.006-.968l-.025-.037a4 4 0 0 0-.241.099 5 5 0 0 1-1.907.391C1.895 12.007.245 10.603.025 8.6c-.209-1.907 1.017-3.262 2.478-3.76a10.56 10.56 0 0 1 5.561-2.6C8.649 1.251 9.771.05 12.261 0c1.641 0 2.462.688 2.877 1.271.387.538.532 1.123.564 1.644 1.315.918 2.29 2.063 3.016 3.278a5 5 0 0 1 .35-.545c.604-.804 1.755-1.796 3.805-1.941 1.949-.136 4.229-.422 6.868-.75 1.162-.146 2.408-.299 3.758-.461 2.053-.242 3.896-.415 5.521-.57 1.882-.178 3.508-.331 4.778-.53 1.434-.232 2.095-.306 2.61-.306.858 0 1.354.241 1.767.503l1.175.752-.457 1.317c-.131.383-.854 2.356-1.976 3.481-1.068 1.068-2.117 2.445-2.552 3.355-.747 1.564-2.245 2.867-3.637 3.175-1.213.27-3.535.733-4.709.965-1.301 1.851-2.815 3.587-4.054 4.904.472.287.81.609 1.065.859.102.1.234.227.286.259h.856c1.162 0 2.46.231 4.065 1.907 2.47 2.575 1.624 6.382 1.587 6.545l-.116.506c2.248.612 2.764 2.302 2.788 3.656.02 1.231-.316 2.216-1.009 2.924-.425.434-1.183.947-2.386.986.05.228.09.447.113.646 1.44 1.034 2.04 2.662 2.215 4.021l1.183.483-.08 1.272c-.296 4.54-2.79 5.759-3.076 5.882z"/><path d="M12.295 1.77c-2.244.042-2.672 1.248-3.104 2.156 0 0-3.147-.094-5.8 2.501 0 0-1.789.331-1.608 1.977.178 1.644 1.983 2.211 3.474 1.584 1.485-.628 1.791-.332 2.403.554.619.889 1.359.575 1.359.575s-.114 1.949.083 4.493c0 0-1.344.322-1.604 2.575 0 0-2.435-2.206-3.471-1.586s-1.296 2.871-1.251 5.267c.042 2.396 1.739 5.063 2.81 6.239 1.068 1.18 2.137 2.211 3.027 1.745.891-.467-.207-3.144-.97-3.879-.762-.737-1.396-2.672-1.416-3.718 0 0 1.986 2.208 4.416 3.962 2.428 1.754 4.875 4.555 9.373 4.771 4.497.22 4.961.957 5.279 2.001.321 1.044.947 2.378.947 2.378s1.737.422 3.163 1.143c2.154 1.091 4.816 1.411 5.613 4.093.799 2.682 1.285 4.621 3.728 7.273 0 0 1.786-.782 2.018-4.382l-1.056-.429s.242-3.151-2.171-4.155c0 0-.03-1.646-.648-2.684-.62-1.039-1.076-1.479-1.986-2.063-.908-.583-1.683-1.915-1.557-3.267.126-1.353 1.179-1.071 1.423-4.071 0 0 .768.886-.244 3-1.009 2.117 1.56 3.267 1.56 3.267s.18 1.796 1.986 2.213 2.688-.351 2.659-1.996c-.03-1.647-1.086-1.929-1.836-2.064 0 0-1.361-.871-1.688-2.216l.894-.315s.695-3.008-1.138-4.922c-1.324-1.379-2.153-1.367-3.02-1.354-.335 0-.674 0-1.051-.07-1.353-.279-1.238-2.078-4.524-1.72 0 0 3.977-3.666 6.602-7.611 0 0 3.726-.728 5.378-1.093.73-.16 1.844-1.002 2.421-2.211.574-1.209 1.806-2.753 2.896-3.844.893-.893 1.557-2.81 1.557-2.81-.457-.285-.706-.327-3.146.061-2.433.388-5.89.582-10.374 1.117C29.22 4.784 25.843 5.271 23 5.47c-2.845.2-3.548 2.61-3.059 4.851.49 2.237.522 4.034-.04 5.842 0 0-.77-1.187-.957-3.276-.188-2.097-1.023-6.873-5.107-9.044 0 0 .696-2.072-1.473-2.072z" style="fill:url(#a)"/><linearGradient id="a" x1="-29.361" x2="-28.098" y1="523.46" y2="523.46" gradientTransform="matrix(36.597 13.32 13.32 -36.597 -5899.2 19564)" gradientUnits="userSpaceOnUse"><stop offset="0" style="stop-color:#612c75"/><stop offset=".3" style="stop-color:#7b5190"/><stop offset=".5" style="stop-color:#bf99c3"/><stop offset=".7" style="stop-color:#7b5190"/><stop offset="1" style="stop-color:#612c75"/></linearGradient></g></svg>