<svg xmlns="http://www.w3.org/2000/svg" width="930.842" height="944.183" viewBox="0 0 930.842 944.183"><path d="M544.702 386.643s81.41-75.08 135.22-155.81c0 0 76.31-14.95 110.14-22.45 14.95-3.33 37.77-20.52 49.58-45.28 11.82-24.75 36.99-56.37 59.31-78.72 18.29-18.29 31.89-57.544 31.89-57.544-9.3-5.918-14.46-6.778-64.43 1.168-49.83 7.946-120.62 11.919-212.41 22.834-91.85 10.874-161.01 20.852-219.23 24.922-58.26 4.14-72.66 53.45-62.65 99.35 10.04 45.81 10.69 82.61-.92 119.63 0 0-15.77-24.3-19.6-67.13-3.85-42.9-20.97-140.71-104.58-185.17 0 0 14.56-43.251-31.48-42.431-45.98.839-54.72 25.537-63.57 44.132 0 0-64.45-1.925-118.739 51.219 0 0-36.678 6.78-32.97 40.49 3.685 33.66 40.65 45.28 71.15 32.44 30.41-12.84 36.67-6.78 49.25 11.36 12.63 18.21 27.83 11.78 27.83 11.78s-2.38 39.91 1.66 92.01c0 0-27.48 6.59-32.85 52.73 0 0-49.87-45.11-71.148-32.48-21.155 12.68-26.479 58.76-25.558 107.87.861 49.07 35.614 103.68 57.545 127.77 21.88 24.16 43.77 45.22 61.99 35.67 18.25-9.5-4.23-64.32-19.86-79.37-15.61-15.06-28.63-54.73-29-76.15 0 0 40.67 45.22 90.44 81.14 49.72 35.92 99.83 93.33 191.95 97.77 92.09 4.44 101.6 19.54 108.11 40.92s19.39 48.7 19.39 48.7 35.57 8.64 64.78 23.4c44.11 22.35 98.63 28.9 114.99 83.83 16.38 54.92 26.27 94.63 76.34 148.94 0 0 36.54-16.01 41.29-89.74l-21.63-8.78s4.96-64.53-44.46-85.1c0 0-.65-33.72-13.29-54.96-12.67-21.28-22.01-30.29-40.65-42.25-18.59-11.94-34.46-39.22-31.88-66.91 2.58-27.7 24.14-21.93 29.14-83.37 0 0 15.73 18.15-5 61.44-20.66 43.36 31.95 66.97 31.95 66.97s3.68 36.72 40.67 45.26 55.05-7.19 54.45-40.88c-.59-33.73-22.17-39.5-37.6-42.27 0 0-27.87-17.88-34.56-45.38l18.3-6.45s14.24-61.6-23.3-100.8c-37.54-39.22-55.68-23.59-83.35-29.16-27.67-5.65-25.29-42.5-92.65-35.16" style="stroke-width:20.4792"/></svg>