<?xml version="1.0" encoding="UTF-8" standalone="no"?>
<svg
   version="1.1"
   id="Layer_1"
   x="0px"
   y="0px"
   width="1024"
   height="580.92999"
   xmlns="http://www.w3.org/2000/svg"
   xmlns:svg="http://www.w3.org/2000/svg">
  <defs
     id="defs19" />
  <path
     d="m 368.38,437.45001 -141.79,-143.95 -51.57,-0.32 c -45.33,-0.28 -55.55,-1.56 -84.58,-10.49 -18.16,-5.59 -45.952,-16.28 -61.742,-23.76 L 0,245.32001 l 90.614,-42.36 c 49.846,-23.29 91.356,-43.53 92.266,-44.98 0.89,-1.45 -6.38,-6.69 -16.18,-11.66 C 121.37,123.35001 30.185,46.006011 20.809,22.560011 11.038,-1.8398892 12.839,-5.4532892 28.64,6.9438108 36.239,12.893011 46.498,19.887011 51.436,22.490011 c 16.289,8.551 69.074,8.575 160.434,0.08 55.99,-5.193 104.03,-7.656 131.08,-6.715 38.31,1.348 44.9,2.626 64.27,12.374 11.88,5.972 24.98,15.545 29.12,21.262 16.28,22.517 5.86,72.558999 -30.78,147.838999 l -17.87,36.7 60.71,65.5 c 33.38,36.03 62,65.5 63.61,65.5 1.62,0 30.2,-29.44 63.54,-65.42 l 60.63,-65.43 -23.24,-38.58 c -25.69,-42.67 -44.59,-86.83 -48.1,-112.402999 -4.37,-31.905 15.95,-57.699 53.98,-68.504 24.9,-7.0647002 106.31,-5.1825002 184.13,4.252 37.47,4.555 88.02,8.401 112.32,8.552 45.33,0.29 56.59,-2.324 78.25,-18.2188002 8.18,-6.0185 8.28,-5.9488 8.28,8.1338002 0,12.827 -2.58,16.707 -26.44,39.631 -31.15,29.941 -92.38,76.266999 -117.88,89.196999 -9.9,5.02 -17.24,10.31 -16.35,11.75 0.91,1.45 42.42,21.69 92.26,44.98 l 90.61,42.37 -28.71,13.59 c -15.8,7.48 -43.58,18.16 -61.74,23.76 -29.02,8.95 -39.27,10.21 -84.59,10.5 l -51.56,0.33 -141.77,143.45 c -77.97,78.92 -142.61,143.7 -143.63,143.96 -57.77,-56.39 -97.32,-96.48 -143.62,-143.48 z"
     id="path2"
     style="stroke-width:11.6187" />
  <linearGradient
     id="path5291_1_"
     gradientUnits="userSpaceOnUse"
     x1="20.791"
     y1="-9.4531002"
     x2="67.051003"
     y2="36.806"
     gradientTransform="matrix(11.619,0,0,11.619,0,1.0784275e-5)">
    <stop
       style="stop-color:#bf331c"
       offset="0"
       id="stop4" />
    <stop
       style="stop-color:#d3641c"
       offset="0.3"
       id="stop6" />
    <stop
       style="stop-color:#f6b91d"
       offset="0.5"
       id="stop8" />
    <stop
       style="stop-color:#d3641c"
       offset="0.7"
       id="stop10" />
    <stop
       style="stop-color:#bf331c"
       offset="1"
       id="stop12" />
  </linearGradient>
  <path
     id="path5291"
     fill="url(#path5291_1_)"
     d="m 550.79,511.40001 c 20.07,-20.76 83.55,-85.36 141.09,-143.53 l 104.61,-105.81 18.26,5.97 c 22.27,7.29 61.22,5.07 102.47,-5.84 59.91,-15.82 64.91,-9.95 -58.25,-68.42 l -108.64,-51.56 38.26,-1.84 c 35.82,-1.72 39.91,-2.74 63.8,-15.94 28.83,-15.93 60.44,-39.535999 79.24,-59.182999 l 12.69,-13.269 h -25.67 c -14.11,0 -62.09,-4.241 -106.6,-9.446 -90.86,-10.596 -164.49,-12.815 -189.24,-5.681 -20.75,5.983 -37.17,22.029 -37.17,36.366 0,23.749 23.75,76.942999 57.74,129.292999 11.02,16.96 19.28,32.71 18.36,35 -2.38,5.96 -146.43,160.66 -149.58,160.66 -2.31,0 -99.23,-102.89 -137.28,-145.73 l -13.77,-15.49 23.55,-49.21 c 23.82,-49.76 38.96,-92.075999 38.96,-108.887999 0,-5.472 -4.88,-14.07 -12.05,-21.239 -22.27,-22.261 -72.98,-25.015 -204.18,-11.096 -27.93,2.975 -68.07,5.415 -89.22,5.438 l -38.431,0.02 10.817,11.386 c 18.254,19.218 68.504,55.468999 92.564,66.788999 21.03,9.89 25.56,10.63 57.67,9.54 19.15,-0.64 34.27,-0.28 33.6,0.8 -0.69,1.09 -50.15,25.12 -109.94,53.41 l -108.704,51.42 21.297,8.01 c 48.637,18.3 107.227,24.45 136.057,14.28 l 15.07,-5.32 140.72,143.43 c 77.39,78.88 141.79,143.42 143.06,143.42 1.3,0 18.78,-16.97 38.84,-37.74 z"
     style="fill:url(#path5291_1_);stroke-width:11.6187" />
</svg>
