<svg xmlns="http://www.w3.org/2000/svg" xml:space="preserve" width="547.3" height="500.002"><path d="m357.4 0-7.2 9.9-12.9 17.8c-10.6 14.6-26.5 46.3-35.2 84.4v.2c-8.7 38-9.9 82.7 14.7 118.2 16.5 23.8 16.9 46.5 8.3 63.9s-26.6 29.8-51.5 30.9h-1.3c-25-1-42.9-13.5-51.5-30.9s-8.2-40 8.3-63.9c24.6-35.6 23.3-80.3 14.6-118.4s-24.6-69.8-35.2-84.4L195.4 9.9 188.2 0l-.7 12.2-1.2 22c-2.4 44-3.2 84.3-26.9 120.3-15.7-18.6-33.4-30.3-51.8-37.2-22.5-8.3-45.7-9.6-68.3-9.8l-25.3-.2-14-.1 11.6 8 20.9 14.4C51.8 143 77 162 89.4 193.5c12.4 31.6 13.1 77-22.1 146.9l-1.3 2.5-.7 1.4.4 1.5.6 2.7c11.2 48.9 40.9 87.3 79.2 113v.1l1.9 1.3c.3.2 0 0 .1 0s.3.2.1.1c-.1 0 .1 0 0 0 37.2 25.4 81.3 37.2 125.1 37h.6c43.8.2 87.9-11.6 125.1-37.1-.1 0 0 0 .1-.1 39.2-25.7 69.7-64.6 81-114.3l.6-2.8.3-1.5-.7-1.4-1.3-2.5c-35.2-69.8-34.1-115.2-21.3-146.8 12.7-31.5 38.3-50.6 57.8-64l20.8-14.4 11.6-8-14.1.1-25.3.2c-22.5.2-46.1 1.5-69 9.7-18.8 6.8-36.8 18.6-52.7 37.2-23.7-36-24.6-76.3-26.9-120.3l-1.2-22z" style="fill:#fff"/><path d="M198.5 34.8c-2.6 48.8-3.2 97.2-38.9 139.8-33.6-49.5-76.2-54.7-120.3-54.9 39.5 27.3 111.2 82.6 38.8 226.2 10.6 46.6 39 82.9 76.1 107.1 35 24 76.7 35.2 118.3 34.9h.7c41.6.2 83.4-11 118.4-35 37-24.2 65.4-60.5 76-107-72.4-143.7.9-199 40.4-226.2-44.2.3-88.3 5.5-121.9 54.9-35.7-42.5-36.3-91-38.9-139.8-17.8 24.4-63.8 125.9-20.4 188.7 37.1 53.7 5 111.5-52.9 113.8h-2.1c-57.9-2.3-90-60.1-52.9-113.8 43.4-62.8-2.6-164.3-20.4-188.7"/></svg>