<svg xmlns="http://www.w3.org/2000/svg" width="547.287" height="500"><defs><linearGradient id="a" x1="-1214.397" x2="-1167.532" y1="-614.579" y2="-614.579" gradientTransform="matrix(10.0003 0 0 -10.0003 12183.631 -5884.634)" gradientUnits="userSpaceOnUse"><stop offset="0" style="stop-color:#536e78"/><stop offset=".3" style="stop-color:#99aebc"/><stop offset=".5" style="stop-color:#d9eaf3"/><stop offset=".7" style="stop-color:#99aebc"/><stop offset="1" style="stop-color:#536e78"/></linearGradient></defs><path d="m357.441 0-7.16 9.87-12.93 17.79c-10.6 14.561-26.471 46.342-35.182 84.403l-.05.21c-8.68 38.032-9.88 82.683 14.65 118.174 16.471 23.83 16.891 46.452 8.281 63.852-8.59 17.35-26.57 29.831-51.512 30.861h-.17l-.38.02h-.33l-.35-.02h-.18c-24.95-1.03-42.9-13.51-51.491-30.86-8.62-17.401-8.2-40.022 8.27-63.853 24.58-35.561 23.3-80.312 14.58-118.394-8.71-38.06-24.55-69.832-35.15-84.402l-12.93-17.79L188.245.02l-.65 12.17-1.19 21.951c-2.35 44.031-3.24 84.313-26.931 120.294-15.69-18.56-33.381-30.341-51.842-37.161-22.54-8.32-45.741-9.62-68.262-9.77l-25.31-.19L0 107.233l11.55 7.98 20.851 14.38c19.4 13.39 44.591 32.361 56.982 63.902 12.39 31.561 13.11 77.042-22.07 146.885v.03l-1.271 2.46-.73 1.4.38 1.54.62 2.73v.03c11.15 48.911 40.871 87.282 79.182 112.993v.08l1.87 1.3c.26.18.01-.02.08.02.07.05.26.19.08.06-.05-.03.09.04.02 0 37.172 25.441 81.313 37.241 125.054 36.971h.51c.01-.01.01 0 .03 0h.11c43.762.23 87.903-11.55 125.074-37.05-.08.05-.04.03.08-.06 39.222-25.701 69.672-64.623 81.003-114.344v-.03l.62-2.75.33-1.49-.68-1.38-1.25-2.48c-35.171-69.813-34.091-115.214-21.33-146.805 12.74-31.541 38.33-50.582 57.79-64.002l20.832-14.38 11.57-7.98-14.06.08-25.311.19h-.02c-22.511.15-46.072 1.45-68.962 9.74-18.771 6.8-36.832 18.57-52.682 37.22-23.71-36-24.58-76.282-26.93-120.323l-1.19-21.95z" style="stroke-width:10.0003"/><path fill="url(#a)" d="M198.516 34.811c-2.61 48.822-3.22 97.243-38.881 139.784-33.581-49.461-76.182-54.661-120.344-54.941 39.481 27.26 111.194 82.562 38.831 226.227 10.61 46.591 39.012 82.862 76.103 107.083 34.95 23.97 76.692 35.171 118.283 34.911h.67c41.642.25 83.443-10.97 118.424-35.011 37.021-24.22 65.362-60.452 75.962-106.983-72.372-143.665.92-198.966 40.402-226.227-44.162.28-88.313 5.48-121.894 54.941-35.651-42.54-36.291-90.962-38.901-139.784-17.77 24.41-63.832 125.914-20.4 188.746 37.08 53.652 4.99 111.483-52.883 113.753l-1.06.05-1.04-.05c-57.871-2.27-89.962-60.101-52.881-113.753 43.441-62.832-2.62-164.335-20.39-188.746" style="fill:url(#a);stroke-width:10.0003"/></svg>