<svg xmlns="http://www.w3.org/2000/svg" xml:space="preserve" width="149.999" height="165.348"><path fill="#fff" d="M75 165.348c8.497-4.509 23.333-12.796 35.756-21.005 12.448-8.224 25.11-20.025 25.11-20.025l-3.888-3.706V95.527c3.399-2.974 8.946-8.737 13.782-14.376l1.441-1.687.111-2.169c.009-.172.882-17.094 2.335-29.509l.352-2.992-2.146-2.216c-.891-.922-8.128-8.84-29.781-18.074v-9.991L90.761 0S89.556 16.543 75 16.543 59.239 0 59.239 0L31.927 14.512v9.991C10.273 33.737 3.036 41.655 2.145 42.577L0 44.794l.352 2.992c1.453 12.415 2.327 29.337 2.335 29.509l.111 2.169 1.442 1.687c5.513 6.427 10.935 11.886 13.782 14.376v25.085l-3.888 3.706s12.663 11.802 25.11 20.025c12.423 8.209 27.258 16.496 35.756 21.005"/><path d="M78.836 139.944v16.482c9.054-5.213 24.726-14.114 33.189-21.148v-10.466h1.29l12.282-10.587V97.412c-6.344-4.367-12.085-7.761-17.286-10.4-21.558 16.391-29.475 40.364-29.475 52.932M41.689 87.012c-5.202 2.64-10.943 6.033-17.288 10.4v16.813l12.283 10.587h1.289v10.466c8.464 7.034 24.136 15.936 33.19 21.148v-16.482c.001-12.568-7.915-36.54-29.474-52.932M111.087 28.063V17.665l-16.1-8.984S91.129 19.623 79.21 22.206l1.82 2.982a246 246 0 0 1 3.059 5.132c15.383 2.965 22.334 12.786 25.19 18.705q.396-.409.81-.955l2.929-3.906 3.102 3.771c.304.368 7.436 9.173 7.436 21.112 0 8.252-4.607 15.182-6.448 17.621a169 169 0 0 1 9.782 6.156c3.967-3.676 10.746-10.443 14.257-14.538 0 0 1.204-18.777 2.699-31.548-.001-.001-8.563-8.979-32.759-18.675M33.88 47.935l3.102-3.771 2.93 3.906c.273.365.545.681.808.954 2.856-5.926 9.811-15.76 25.197-18.713.943-1.631 1.96-3.333 3.053-5.123l1.821-2.982C58.872 19.623 55.014 8.681 55.014 8.681l-16.1 8.984v10.397C14.717 37.759 6.155 46.737 6.155 46.737c1.495 12.771 2.7 31.548 2.7 31.548 3.51 4.095 10.289 10.862 14.256 14.538a169 169 0 0 1 9.782-6.155c-1.84-2.438-6.448-9.369-6.448-17.622 0-11.938 7.132-20.743 7.435-21.111"/><path d="M113.157 50.371c-2.826 3.769-5.854 4.139-5.854 4.139s-3.969-17.504-25.646-20.719a225 225 0 0 0-3.899-6.604L75 22.673l-2.757 4.514a223 223 0 0 0-3.899 6.604C46.666 37.006 42.698 54.51 42.698 54.51s-3.028-.37-5.854-4.139c0 0-6.562 7.975-6.562 18.675 0 8.782 6.259 16.05 6.259 16.05a84 84 0 0 1 4.762-3.121C66.817 99.754 75 126.825 75 139.944c0-13.118 8.183-40.189 33.697-57.967a84 84 0 0 1 4.763 3.121s6.259-7.268 6.259-16.05c0-10.702-6.562-18.677-6.562-18.677"/><path fill="#fff" d="M75 28.871c3.754 6.147 9.321 15.479 9.321 20.256 0 7.573-4.409 9.152-9.321 9.152-4.913 0-9.321-1.579-9.321-9.152 0-4.777 5.567-14.109 9.321-20.256"/><g fill="#fff"><path d="M72.981 61.414c-8.64-.826-10.532-7.026-10.532-12.287 0-2.882 1.362-6.64 3.674-11.2-18.18 4.441-20.801 22.001-20.801 22.001s-5.502-1.38-7.842-3.875c-1.625 2.961-3.565 7.621-3.565 12.993 0 4.354 1.91 8.374 3.454 10.914 6.364-4.416 17.102-9.847 35.612-10.218zM77.019 115.437c4.935-11.727 13.637-24.791 28.048-35.312-6.143-3.169-15.038-6.071-28.048-6.345ZM77.019 61.414v8.328c18.532.373 29.272 5.815 35.634 10.233 1.545-2.539 3.463-6.566 3.463-10.929 0-5.373-1.939-10.032-3.564-12.993-2.341 2.495-7.842 3.875-7.842 3.875s-2.624-17.584-20.837-22.01c2.314 4.564 3.679 8.326 3.679 11.209-.001 5.261-1.893 11.461-10.533 12.287M44.951 80.116c14.416 10.52 23.1 23.587 28.03 35.317V73.78c-12.997.273-21.888 3.17-28.03 6.336"/></g></svg>