<svg xmlns="http://www.w3.org/2000/svg" xml:space="preserve" width="150.001" height="160.825"><path d="M27.147 81.78a120 120 0 0 0-9.476 7.217c-4.179-3.8-10.996-10.316-15.078-15.077 0 0-.957-18.773-2.593-32.753 0 0 9.01-9.321 35.497-19.936V9.667L52.607 0s4.453 12.176 18.25 15.22l-.383.627c-.045.074-1.916 3.155-4.1 7.372l-3.125.784c-14.253 3.575-21.821 12.989-25.34 21.252l-4.399-5.866S22.996 50.806 22.996 65.686c0 8.368 2.284 13.384 4.151 16.094m9.462.386C31.433 85.11 25.9 88.957 20.044 93.957l.231.543v20.197l13.445 11.589h1.412v11.457c10.771 8.952 28.9 18.791 37.216 23.082v-15.543c0-14.973-10.554-47.657-35.739-63.116m86.244-.386a120 120 0 0 1 9.477 7.217c4.179-3.8 10.996-10.316 15.077-15.077 0 0 .957-18.773 2.594-32.753 0 0-9.01-9.321-35.497-19.936V9.667L97.394 0s-4.452 12.176-18.249 15.22l.383.627c.046.074 1.915 3.155 4.1 7.372l3.125.784c14.253 3.575 21.821 12.989 25.34 21.252l4.399-5.866s10.515 11.417 10.515 26.297c-.002 8.368-2.286 13.384-4.154 16.094m-45.201 63.502v15.543c8.314-4.291 26.444-14.13 37.215-23.082v-11.457h1.412l13.445-11.589V94.5l.231-.543c-5.855-5-11.39-8.847-16.564-11.791-25.185 15.459-35.739 48.143-35.739 63.116"/><path d="M75 18.611c4.109 6.729 10.203 18.968 10.203 24.197 0 8.29-4.826 10.176-10.203 10.176s-10.203-1.886-10.203-10.176c0-5.229 6.094-17.469 10.203-24.197m-32.968 60.73c15.499 10.5 25.053 26.514 30.316 40.795V72.474c-7.235.081-17.529.785-30.316 6.867m30.316-21.216c-8.202-.95-12.855-6.403-12.855-15.316 0-3.565 1.753-8.585 3.859-13.329v-.001c-21.175 6.023-22.679 25.897-22.679 25.897s-3.905-2.803-7-6.929c0 0-5.374 7.735-5.374 17.238 0 7.32 2.001 11.354 3.309 13.214 15.312-9.315 28.558-11.464 40.74-11.711zm5.304 14.349v47.662c5.263-14.281 14.817-30.295 30.315-40.795-12.786-6.082-23.079-6.786-30.315-6.867m0-5.286c12.182.248 25.428 2.396 40.739 11.711 1.308-1.86 3.309-5.894 3.309-13.214 0-9.503-5.374-17.238-5.374-17.238-3.094 4.125-6.999 6.929-6.999 6.929s-1.504-19.874-22.679-25.898v.001c2.105 4.744 3.858 9.764 3.858 13.329 0 8.914-4.652 14.367-12.854 15.316z"/></svg>