<svg xmlns="http://www.w3.org/2000/svg" width="600" height="607.473"><radialGradient id="a" cx="0" cy="0" r="1" fx="0" fy="0" gradientTransform="matrix(17.66927 0 0 -17.66927 482.984 371.97)" gradientUnits="userSpaceOnUse" spreadMethod="pad"><stop offset="0" style="stop-color:#ebd491"/><stop offset=".7" style="stop-color:#d2bb7b"/><stop offset="1" style="stop-color:#8b723c"/></radialGradient><path d="M263.749 590.63c-.82.122-1.595.182-2.43.182.652-.06 1.898-.06 2.43-.182M90.589 497.2c0-2.14.35-4.403 1.367-6.833-.897 2.202-1.124 4.51-1.367 6.88v-.05zm253.377-225.144c1.776-.532 12.741-4.799 25.498-14.655 2.49 1.96 4.92 3.918 7.594 5.467 3.386 1.96 7.472 2.84 11.633 2.84 5.573 20.411 16.781 43.723 38.088 63.42 2.719 2.552 3.903 6.759 3.903 11.983 0 20-17.13 55.887-33.623 78.85-.896 1.063-33.64 41.171-112.003 41.171-55.948 0-112.185-26.045-136.514-82.586 6.834 5.103 14.533 9.902 23.433 14.413a25.08 25.08 0 0 0 24.45-.881c7.063-4.329 11.27-11.922 11.74-20.123 6.88 0 13.41-4.389 18.513-9.37 2.733-2.612 4.45-6.348 5.634-10.373 19.637 17.313 44.133 22.948 63.952 12.985 6.105-3.022 10.737-8.474 12.757-15.004.774-2.43 1.123-4.921 1.123-7.412 0-4.282-1.063-8.49-3.143-12.225-2.49-4.632-6.06-13.06-8.186-21.778 2.43-.53 4.8-.349 7.29-1.412 3.508-1.55 6.59-3.797 9.082-6.652.591-.654 10.327-12.226 20.35-27.944 2.84.182 5.634.122 8.429-.713M27.7 294.367s-1.959 1.898-2.49 2.43c.591-.654 1.245-1.246 2.49-2.43m355.523-59.624c0-1.898 1.017-3.614 1.428-5.452-.349 2.49-.652 5.103-.652 8.125-.122-.897-.774-1.716-.774-2.673M340.337.426c-19.636 3.614-56.707 23.25-71.059 73.55-5.589 19.514-16.326 24.86-34.763 32.636-11.101 4.677-28.596 13.41-39.637 22.249-8.186 6.515-3.493 13.227-5.984 19.925-.364-1.595-.364-3.326-1.079-4.8-4.738-9.916-15.247-15.672-26.09-14.123-2.856.41-70.012 10.858-131.29 98.183-1.777 2.308-12.879 18.27-12.879 39.5 0 12.165.243 21.125 5.695 31.21-5.452 5.467-16.493 16.492-16.493 16.492a24.2 24.2 0 0 0-3.083 3.797C1.306 322.553 0 329.904 0 340.17c0 34.459 15.43 101.022 60.869 156.424.836 1.079 1.837 2.08 2.84 3.037 2.445 2.066 13.653 10.798 29.371 14.23 3.493 10.327 11.147 27.352 27.822 39.805 19.515 14.655 58.378 17.86 75.691 18.695 3.57 4.389 7.244 7.411 9.021 8.596 13.532 9.02 33.047 10.448 46.335 10.205 9.31 7.776 24.147 16.31 47.049 16.31 22.598 0 36.95-7.942 46.031-15.307h15.248c10.023 0 19.15-5.984 23.069-15.233-2.187 5.149-4.8 6.515-4.921 6.515 0 0 2.248-1.063 8.307-1.063 9.082 0 17.495-5.042 21.945-12.939 2.141-3.736 6.591-8.96 9.203-10.145 3.964-1.534 18.498-2.551 30.374-1.959 5.33.182 10.676-1.245 15.126-4.207 2.78-1.898 25.62-18.39 43.191-45.56 23.19-11.026 72.426-39.152 72.426-79.852 0-3.736-.591-7.411-1.184-11.026 3.857-4.283 6.47-9.613 6.758-15.718.53-11.284 1.777-42.356 1.777-62.95 0-5.512-.11-9.901-.35-13.349.652-1.124 1.898-3.265 1.898-3.265 4.268-7.062 10.798-17.799 11.983-33.988.121-1.549.121-3.022.121-4.51 0-20.108-9.674-34.763-15.597-43.784 0 0-3.037-4.92-3.144-5.103v-.289c0-1.185-.546-5.695-.546-5.695-.82-9.37-2.126-23.494-10.494-35.127.836-1.534 2.308-2.552 2.84-4.328 1.078-3.266 1.488-6.516 1.488-9.78 0-12.165-6.044-23.434-11.147-30.025-.304-.88-2.552-7.821-2.552-7.821l-7.715-20.123c-7.532-12.635-38.27-32.5-66.503-39.334-5.938-1.412-11.572-1.837-17.206-2.126 1.549-4.328 2.855-8.49 5.877-13.713 2.248-3.903 3.447-8.292 3.447-12.681 0-4.344-1.138-8.611-3.325-12.53a25.27 25.27 0 0 0-21.84-12.574c-5.163 0-49.584.774-80.383 20.472-2.369-3.57-4.556-9.264-4.556-13.471 0-.836.049-1.595.29-2.248.774-2.43 1.123-4.981 1.123-7.487 0-6.105-2.187-12.028-6.287-16.66A25.11 25.11 0 0 0 340.336.425" style="fill:#fff"/><path d="M317.92 170.624c6.637-13.289 16.493-22.31 17.435-43.07 0 0-73.383 3.022-69.769 65.85 0 0 36.783 8.307 52.334-22.78m56.647 387.856s-2.9 4.206-5.391 5.923c-4.283 2.794-8.9 2.612-8.9 2.612h-25.104s-9.72 15.369-36.175 15.369c-26.47 0-37.617-16.736-37.617-16.736s-29.25 2.794-41.825-5.574c-4.207-2.779-7.943-10.858-7.943-10.858s1.656-5.392 2.005-6.227c1.367-3.554 1.55-7.123 2.263-10.92.47-2.368.35-4.677 1.367-6.879.88-1.898 3.326-4.389 5.103-5.862 1.594-1.245 4.085-3.387 5.862-4.571 4.04-2.612 8.14-4.1 11.876-7.123 3.903-3.143 11.33-10.388 11.33-10.388l-2.324-3.083s-5.741 3.858-6.516 4.45c-3.918 2.977-7.304 5.817-11.754 7.897-4.39 2.081-13.76 7.35-13.76 7.35s-1.837-2.08-2.96-3.796c-1.96-2.9-4.39-5.163-6.06-8.307-.881-1.777-5.696-7.108-5.696-7.108l-1.837 2.309s5.103 10.737 5.406 12.878c.35 2.187 2.78 6.94 2.37 9.006-1.656 8.247-3.205 13.41-4.04 21.778-.35 3.797-1.413 6.88-1.413 6.88s-50.131-1.367-66.867-13.881c-16.66-12.575-20.882-33.457-20.882-33.457s4.222-9.734-9.72-9.734-25.103-9.72-25.103-9.72c-57.118-69.707-55.706-147.722-55.706-147.722l20.882-20.882s8.368-13.942 2.795-20.882c-5.574-7.001-5.574-9.735-5.574-23.676 0-13.942 8.353-25.089 8.353-25.089 55.705-79.366 114.205-87.734 114.205-87.734s-54.278 48.704-54.278 158.748 80.794 172.75 174.117 172.75c93.308 0 132.338-51.499 132.338-51.499s64.073-89.161 26.47-123.985c-37.617-34.823-34.823-78.014-34.823-78.014-5.589 0-19.515 8.367-19.515 8.367-9.735-5.634-19.53-19.515-19.53-19.515-15.293 20.882-33.396 26.456-33.396 26.456l-11.147-8.353c-11.163 23.661-29.25 44.543-29.25 44.543-9.796 4.207-22.31-2.734-22.31-2.734-8.367 26.471 11.163 61.294 11.163 61.294-11.162 5.513-26.47 1.413-39.045-11.162-12.514-12.575-22.25-19.515-32.03-9.72-9.734 9.72-4.16 25.028-4.16 25.028-8.353-1.366-20.867-8.307-20.867-8.307-5.589 11.102-5.589 32.03-5.589 32.03-79.427-40.398-23.661-86.429-23.661-86.429 1.367-34.823 4.146-54.278 27.822-66.852 23.661-12.514 32.03-22.249 27.883-33.396-4.222-11.162-9.325-27.185.942-38.028 16.31-17.328 63.116-16.326 77.058-65.09 13.941-48.75 51.559-55.706 51.559-55.706-7.001 22.31 13.88 64.073 38.97 45.986 25.103-18.148 69.646-18.148 69.646-18.148-19.454 33.456-12.514 57.117-12.514 57.117 33.396-20.882 86.383 16.736 90.529 23.676 4.206 7.002 7 25.089 11.147 29.311 4.16 4.146 11.162 19.454 2.794 20.882-8.368 1.412-12.514 11.147 0 19.454 12.575 8.414 8.368 30.662 12.575 40.397 4.161 9.78 18.102 22.31 16.675 41.825-1.367 19.515-15.308 26.455-13.942 39.03 1.428 12.514-1.366 75.22-1.366 75.22-9.796-20.882-41.825-37.663-41.825-37.663s36.251 33.456 36.251 65.485c0 32.105-64.073 59.927-64.073 59.927-15.37 27.883-40.397 44.604-40.397 44.604s-29.25-1.428-41.825 4.161c-11.147 4.981-19.044 17.678-20.593 20.396 0 0-7.411-11.922-3.144-36.6 0 0-15.779 18.148-9.31 38.27" style="fill:#8b723c"/><path d="M483.047 386.633c-.68-2.387-2.485-3.153-3.797-3.715-.598-.254-1.113-.477-1.395-.773-.441-.469-.242-1.235.043-1.989.473-1.265-.781-2.133-2.07-2.816-1.308-.695-1.48-1.746-1.566-3.981l-.012-.222-.172-.145c-.012-.008-1.195-1.015-1.058-2.238.089-.793.71-1.543 1.847-2.238.047.476.156 1.074.375 1.507l.231.465.461-.25c.097-.058.3-.164.527-.261.012.406.129.882.519 1.277q.451.447.997.449c.609 0 1.148-.418 1.824-1.09.469-.468 1.015-.742 1.496-.75-.371.852-.926 2.473-.496 3.848l.187.578.535-.289c.106-.059.45-.211.762-.211q.095.001.172.02c.277.336 1.184 1.472 1.766 2.714l.261.559.493-.371.503-.379c.36.168 1.086.594 1.727 1.469l.41.558.403-.566c.136-.195.515-.68.894-.984.371.207.914.464 1.266.464l.527-.003-.031-.532c0-.023-.125-2.644 2.136-4.738 2.77-2.562-1.496-8.566-1.683-8.832-.109-.148-2.793-3.594-9.113-3.594-.629 0-1.246.039-1.84.117l.027-.039.262-.347-.313-.309s-.511-.5-.785-.719a3.4 3.4 0 0 0-.531-.336c-.094-.05-.191-.101-.297-.168-.07-.046-.16-.121-.238-.183l-.098-.078a1 1 0 0 1-.199-.211 1 1 0 0 1-.024-.149c-.007-.058-.015-.125-.027-.183l-.035-.207a3 3 0 0 0-.141-.602c-.007-.027-.035-.105-.054-.18.086-.156.195-.304.257-.347.297-.199.934-.313 1.743-.313.39 0 .675.024.683.028l.297.023.164-.242c.028-.035.633-.883 2.067-.883 1.418 0 1.945.75 1.964.785l.153.227h1.929c.004 0 .165 0 .293.086a.6.6 0 0 1 .09.09c-.308 1.464.735 2.679.782 2.734l1.179 1.344-.308-1.758a5 5 0 0 1-.067-1.207c.254.262.567.523.934.683.613.274 1.656.329 2.426.329.156 0 .285 0 .379-.004.39.293 1.597 1.257 2.374 2.672l.079.148.16.07c1.015.442 3.914 2.035 3.914 3.485 0 1.863-2.199 3.922-2.223 3.941l-2.75 2.543 3.32-1.73c.067-.036 1.184-.625 2.079-1.504.047 1.347.089 3.023.039 3.48-.067.567.191.985.433 1.387.219.359.442.726.481 1.273.054.75-.324 1.328-.664 1.84-.153.235-.301.453-.395.68-.125.297-.16.66-.195 1.047-.051.547-.11 1.168-.449 1.39-.801.539-.77 1.137-.719 1.375.078.368.359.66.742.782-.043.175-.176.461-.281.57-.238.238-.371.684-.52 1.203-.093.313-.199.664-.281.809-.223.293-2.211 1.738-4.004 1.738-.488 0-.918-.109-1.273-.332l-.559-.352-.187.633c-.016.067-.399 1.41.461 3.352-.942-.09-2.469-.34-3.45-1.051-.355-.254-.726-.387-1.105-.387-.598 0-1.168.332-1.61.938-.445.601-.707 1.406-.734 2.136-.711-.359-1.793-1.195-2.324-3.058m-2.426-7.758-.363.082-.024.375c-.074 1.25.27 2.301 1.016 3.121 1.465 1.617 3.953 1.735 4.059 1.742l.543.024-.024-.547c-.055-1.133-.473-1.817-.844-2.414a9 9 0 0 1-.355-.617c-.801-1.606-2.332-1.844-3.176-1.844-.469 0-.793.066-.832.078m-13.617-3.047c-.004-.004-.449-.617-.449-1.351 0-.907.004-.93.254-1.247.558-.695-.02-1.742-.141-1.945l-.031-.055-.043-.042-1.227-1.227c.031-.969.36-5.309 3.492-9.141.008-.008.614-.519 1.325-.519.492 0 .839-.153 1.039-.449a.98.98 0 0 0 .121-.7c.086-.308.39-1.222 1.156-1.793.691-.519 2.633-.738 3.699-.8.039.414.113.722.184 1.05l.082.332a1 1 0 0 1-.063.192 2 2 0 0 0-.086.293c-.027.09-.183.449-.32.73l-.137.282.2.25.125.152.367.453.39-.434c.243-.269.391-.457.454-.574.039-.082.101-.156.171-.25q.059-.065.106-.129c.195.106.418.223.562.289.192.09.356.215.547.36l.114.09c.035.027.179.125.3.207-5.504 1.128-9.148 5.582-9.148 11.601 0 4.731 1.476 7.785 2.574 9.406-1.398-.656-3.535-2.07-5.617-5.031" style="fill:url(#a)" transform="matrix(15.18681 0 0 -15.18681 -7035.231 5954.658)"/></svg>