<svg xmlns="http://www.w3.org/2000/svg" width="600" height="607.473"><radialGradient id="a" cx="0" cy="0" r="1" fx="0" fy="0" gradientTransform="matrix(17.67049 0 0 -17.67049 400.983 371.97)" gradientUnits="userSpaceOnUse" spreadMethod="pad"><stop offset="0" style="stop-color:#d9eaf3"/><stop offset=".663" style="stop-color:#99aebc"/><stop offset="1" style="stop-color:#536e78"/></radialGradient><path d="M263.69 590.63a15 15 0 0 1-2.37.183c.653-.06 1.898-.06 2.37-.182M90.59 497.2c0-2.14.35-4.404 1.367-6.834-.897 2.202-1.124 4.51-1.367 6.88v-.049m253.377-225.144c1.716-.532 12.741-4.8 25.498-14.655 2.43 1.959 4.875 3.918 7.594 5.467 3.386 1.959 7.472 2.84 11.633 2.84 5.573 20.41 16.72 43.723 38.088 63.42 2.719 2.551 3.903 6.758 3.903 11.982 0 20.001-17.13 55.888-33.623 78.85-.896 1.063-33.639 41.172-112.003 41.172-55.948 0-112.185-26.046-136.514-82.586 6.834 5.103 14.534 9.902 23.433 14.412a25.08 25.08 0 0 0 24.45-.88c7.063-4.329 11.27-11.922 11.74-20.123 6.88 0 13.41-4.39 18.513-9.37 2.734-2.613 4.45-6.349 5.634-10.373 19.637 17.313 44.133 22.947 63.952 12.985 6.105-3.023 10.737-8.475 12.696-15.005.774-2.43 1.185-4.92 1.185-7.411 0-4.283-1.063-8.49-3.144-12.225-2.49-4.632-6.06-13.061-8.186-21.778 2.43-.533 4.8-.35 7.23-1.413 3.568-1.549 6.651-3.796 9.142-6.652.591-.653 10.266-12.225 20.35-27.943 2.78.182 5.634.121 8.429-.715M27.64 294.363l-2.43 2.43c.591-.654 1.245-1.246 2.43-2.43m355.538-59.624c0-1.898 1.063-3.614 1.473-5.452-.348 2.49-.652 5.103-.652 8.125-.122-.896-.82-1.716-.82-2.673M340.337.426c-19.636 3.614-56.707 23.25-71.12 73.55-5.589 19.514-16.265 24.86-34.702 32.636-11.101 4.677-28.596 13.41-39.637 22.249-8.186 6.515-3.554 13.227-5.984 19.925-.364-1.595-.364-3.326-1.079-4.8-4.738-9.916-15.247-15.672-26.09-14.123-2.856.41-70.012 10.858-131.29 98.183-1.777 2.308-12.94 18.27-12.94 39.5 0 12.165.304 21.125 5.756 31.21-5.452 5.467-16.493 16.492-16.493 16.492a24.2 24.2 0 0 0-3.083 3.797C1.306 322.553 0 329.904 0 340.17c0 34.459 15.43 101.022 60.869 156.424.836 1.079 1.837 2.08 2.84 3.037 2.445 2.066 13.653 10.798 29.371 14.23 3.493 10.327 11.147 27.352 27.822 39.805 19.515 14.655 58.378 17.86 75.691 18.695 3.57 4.389 7.244 7.411 9.021 8.596 13.532 9.02 33.047 10.448 46.335 10.205 9.31 7.776 24.147 16.31 46.988 16.31 22.659 0 37.01-7.942 46.092-15.307h15.187a25.13 25.13 0 0 0 23.13-15.233c-2.248 5.149-4.8 6.515-4.921 6.515 0 0 2.248-1.063 8.307-1.063 9.021 0 17.495-5.042 21.945-12.939 2.141-3.736 6.591-8.96 9.143-10.145 3.979-1.534 18.558-2.551 30.373-1.959 5.392.182 10.737-1.245 15.187-4.207 2.78-1.898 25.62-18.39 43.13-45.56 23.252-11.026 72.487-39.152 72.487-79.852 0-3.736-.591-7.411-1.184-11.026 3.857-4.283 6.47-9.613 6.697-15.718.547-11.284 1.838-42.356 1.838-62.95 0-5.512-.168-9.901-.35-13.349.652-1.124 1.898-3.265 1.898-3.265 4.268-7.062 10.798-17.799 11.983-33.988.121-1.549.121-3.022.121-4.51 0-20.108-9.674-34.763-15.597-43.784 0 0-3.098-4.92-3.204-5.103 0 0 .06-.11.06-.289 0-1.185-.546-5.695-.546-5.695-.881-9.37-2.187-23.494-10.494-35.127.835-1.534 2.247-2.552 2.84-4.328 1.078-3.266 1.488-6.516 1.488-9.78 0-12.165-6.105-23.434-11.208-30.025-.243-.88-2.49-7.821-2.49-7.821l-7.716-20.123c-7.532-12.635-38.316-32.5-66.503-39.334-5.983-1.412-11.633-1.837-17.206-2.126 1.549-4.328 2.794-8.49 5.877-13.713a25.43 25.43 0 0 0 3.387-12.681c0-4.344-1.139-8.611-3.265-12.53a25.27 25.27 0 0 0-21.84-12.574c-5.163 0-49.584.774-80.383 20.472-2.369-3.57-4.556-9.264-4.556-13.471 0-.836.049-1.595.29-2.248.774-2.43 1.123-4.981 1.123-7.487 0-6.105-2.248-12.028-6.287-16.66-5.923-6.652-14.762-9.674-23.434-8.064" style="fill:#fff"/><path d="M317.921 170.624c6.637-13.288 16.493-22.31 17.374-43.07 0 0-73.322 3.023-69.707 65.85 0 0 36.782 8.308 52.333-22.78m56.647 387.856s-2.961 4.207-5.391 5.923c-4.283 2.794-8.96 2.612-8.96 2.612h-25.043s-9.78 15.37-36.175 15.37c-26.471 0-37.679-16.737-37.679-16.737s-29.189 2.795-41.764-5.573c-4.206-2.78-7.942-10.859-7.942-10.859s1.655-5.391 2.004-6.226c1.367-3.554 1.55-7.123 2.263-10.92.47-2.369.35-4.677 1.367-6.88.88-1.898 3.326-4.388 5.103-5.861 1.594-1.246 4.085-3.387 5.862-4.572 4.04-2.612 8.14-4.1 11.876-7.122 3.903-3.144 11.33-10.388 11.33-10.388l-2.324-3.083s-5.74 3.858-6.576 4.45c-3.858 2.976-7.244 5.816-11.694 7.897-4.389 2.08-13.76 7.35-13.76 7.35s-1.837-2.08-2.96-3.796c-1.96-2.901-4.39-5.164-6.06-8.307-.881-1.777-5.695-7.108-5.695-7.108l-1.838 2.308s5.103 10.738 5.407 12.879c.35 2.187 2.779 6.94 2.369 9.006-1.656 8.246-3.205 13.41-4.04 21.778-.35 3.796-1.412 6.88-1.412 6.88s-50.132-1.368-66.868-13.882c-16.66-12.574-20.882-33.456-20.882-33.456s4.222-9.735-9.72-9.735c-13.94 0-25.103-9.72-25.103-9.72-57.118-69.707-55.705-147.722-55.705-147.722l20.882-20.881s8.367-13.942 2.794-20.882c-5.574-7.001-5.574-9.735-5.574-23.677s8.353-25.088 8.353-25.088c55.705-79.366 114.205-87.734 114.205-87.734S110.94 203.428 110.94 313.47s80.794 172.75 174.117 172.75c93.308 0 132.338-51.498 132.338-51.498s64.073-89.162 26.41-123.985c-37.618-34.824-34.824-78.015-34.824-78.015-5.528 0-19.454 8.368-19.454 8.368-9.795-5.634-19.53-19.515-19.53-19.515-15.293 20.882-33.396 26.455-33.396 26.455l-11.208-8.352c-11.101 23.66-29.25 44.543-29.25 44.543-9.734 4.206-22.248-2.734-22.248-2.734-8.368 26.47 11.162 61.294 11.162 61.294-11.162 5.513-26.47 1.412-39.045-11.162-12.514-12.575-22.249-19.515-32.03-9.72-9.734 9.72-4.16 25.028-4.16 25.028-8.353-1.367-20.867-8.307-20.867-8.307-5.589 11.101-5.589 32.029-5.589 32.029-79.427-40.397-23.722-86.428-23.722-86.428 1.428-34.824 4.207-54.278 27.883-66.853 23.661-12.514 32.03-22.248 27.883-33.396-4.222-11.162-9.324-27.184.942-38.027 16.31-17.328 63.116-16.326 77.058-65.091 13.941-48.75 51.498-55.705 51.498-55.705-6.94 22.31 13.942 64.073 39.03 45.985 25.043-18.148 69.647-18.148 69.647-18.148-19.515 33.457-12.514 57.118-12.514 57.118 33.396-20.882 86.383 16.736 90.529 23.676 4.207 7.001 6.94 25.089 11.147 29.31 4.161 4.147 11.101 19.455 2.794 20.882-8.368 1.413-12.574 11.148 0 19.455 12.514 8.413 8.307 30.662 12.514 40.397 4.222 9.78 18.164 22.31 16.736 41.824-1.427 19.515-15.369 26.456-13.941 39.03 1.427 12.514-1.428 75.22-1.428 75.22-9.735-20.881-41.764-37.663-41.764-37.663s36.19 33.457 36.19 65.486c0 32.105-64.073 59.927-64.073 59.927-15.308 27.883-40.397 44.604-40.397 44.604s-29.25-1.428-41.763 4.16c-11.147 4.982-19.045 17.678-20.594 20.397 0 0-7.41-11.922-3.143-36.6 0 0-15.78 18.148-9.31 38.27" style="fill:#536e78"/><path d="M401.043 386.633c-.68-2.383-2.477-3.153-3.789-3.711-.602-.258-1.117-.481-1.399-.777-.445-.473-.242-1.235.043-1.989.473-1.265-.781-2.133-2.07-2.816-1.305-.692-1.48-1.742-1.566-3.985l-.012-.218-.168-.145c-.016-.012-1.199-1.015-1.062-2.238.089-.793.71-1.543 1.847-2.238.051.48.156 1.074.375 1.507l.231.465.457-.25a6 6 0 0 1 .531-.261c.012.406.129.882.519 1.277q.451.447.997.449c.613 0 1.152-.418 1.824-1.094.469-.464 1.011-.738 1.496-.742-.371.848-.93 2.469-.492 3.844l.179.578.539-.293c.106-.058.45-.207.762-.207q.093.001.168.02c.281.336 1.184 1.476 1.77 2.718l.261.551.493-.363.507-.383c.356.168 1.082.594 1.723 1.469l.41.562.403-.57c.136-.191.515-.68.898-.984.371.207.914.461 1.262.461h.531l-.035-.532c0-.023-.125-2.644 2.133-4.738 2.769-2.562-1.493-8.566-1.68-8.832-.109-.145-2.793-3.594-9.113-3.594q-.951 0-1.844.117l.031-.039.262-.351-.317-.305s-.507-.5-.781-.719a3.3 3.3 0 0 0-.535-.336c-.094-.05-.191-.101-.289-.168-.078-.046-.18-.132-.262-.199l-.078-.062a1 1 0 0 1-.199-.211.5.5 0 0 1-.024-.149c-.007-.058-.011-.121-.027-.183l-.031-.199c-.031-.184-.063-.391-.145-.618l-.058-.172c.09-.156.199-.304.261-.351.297-.195.934-.313 1.743-.313.39 0 .675.032.683.032l.297.023.164-.242c.028-.035.637-.883 2.067-.883 1.414 0 1.945.75 1.964.781l.153.227h1.926s.164.004.296.094a.5.5 0 0 1 .09.086c-.308 1.457.739 2.679.785 2.73l1.176 1.348-.304-1.762a4.7 4.7 0 0 1-.071-1.203c.254.262.567.523.934.683.609.274 1.652.329 2.418.329.152 0 .289-.004.383-.004.39.289 1.597 1.254 2.378 2.672l.083.148.156.07c1.015.442 3.918 2.032 3.918 3.485 0 1.863-2.203 3.922-2.223 3.941l-2.742 2.539 3.308-1.726c.071-.036 1.184-.625 2.079-1.508.047 1.351.089 3.027.035 3.488-.059.566.191.981.437 1.383.215.359.446.726.481 1.273.054.75-.324 1.328-.664 1.84a4.6 4.6 0 0 0-.395.68c-.129.297-.16.656-.195 1.047-.055.547-.106 1.168-.449 1.394-.801.531-.77 1.133-.723 1.364.078.375.367.667.742.789-.043.179-.176.468-.277.574-.231.226-.348.601-.524 1.195-.089.313-.195.664-.281.813-.219.293-2.207 1.738-4 1.738-.488 0-.918-.113-1.273-.332l-.559-.352-.187.633c-.02.067-.395 1.41.461 3.356-.942-.09-2.465-.344-3.45-1.051-.355-.258-.726-.391-1.105-.391-.598 0-1.168.332-1.61.938a3.95 3.95 0 0 0-.734 2.14c-.711-.363-1.793-1.199-2.328-3.062m-2.422-7.758-.367.082-.024.375c-.066 1.25.274 2.301 1.02 3.121 1.465 1.617 3.949 1.738 4.055 1.742l.547.024-.028-.547c-.051-1.133-.469-1.817-.84-2.414a8 8 0 0 1-.355-.621c-.801-1.606-2.332-1.844-3.176-1.844-.469 0-.793.074-.832.082m-13.617-3.043c-.004-.008-.449-.625-.449-1.355 0-.911.004-.93.257-1.247.555-.695-.023-1.742-.144-1.945l-.031-.051-.043-.043-1.227-1.226c.031-.961.356-5.309 3.492-9.145.004-.008.61-.519 1.325-.519.492 0 .839-.153 1.039-.449a.97.97 0 0 0 .121-.704c.086-.308.394-1.218 1.156-1.789.691-.519 2.633-.738 3.699-.8.043.414.113.726.184 1.054l.086.325c-.008.054-.039.121-.063.183-.039.117-.078.227-.09.301-.023.09-.183.449-.32.734l-.133.282.196.242.121.156.363.465.398-.442c.243-.265.395-.461.45-.574.039-.078.105-.156.175-.246.036-.047.071-.086.106-.133.191.102.418.223.558.289.196.09.364.215.555.367l.113.083c.032.027.172.128.297.21-5.504 1.129-9.144 5.579-9.144 11.594 0 4.735 1.472 7.789 2.57 9.414-1.398-.66-3.539-2.07-5.617-5.031" style="fill:url(#a)" transform="matrix(15.18681 0 0 -15.18681 -5789.911 5954.659)"/></svg>