<svg xmlns="http://www.w3.org/2000/svg" width="600.001" height="335.956"><path d="M553.964 335.956c-3.175 0-389.605-97.579-389.605-97.579l-27.628 91.515L4.906 296.467l21.96-93.028c-9.01-2.779-16.588-8.76-21.453-16.948-5.224-8.797-6.747-19.145-4.218-29.096l7.717-30.434c4.33-17.022 19.615-28.92 37.135-28.92 1.874 0 3.757.11 5.63.397l9.047-38.364L120.44 0 191 15.72l-6.194 19.763c-10.892 34.69-16.19 79.395-7.975 94.505l394.22 99.989c20.558 5.197 32.964 26.105 27.767 46.625l-7.717 30.434c-4.33 17.049-19.58 28.92-37.136 28.92" style="fill:#fff"/><path d="M566.398 248.402 166.01 146.862c-27.868-26.612.656-117.074.656-117.074L126.53 20.88 77.996 69.665l-12.222 51.74-14.926-3.785c-10.348-2.594-20.88 3.683-23.511 14.03l-7.717 30.471c-2.63 10.311 3.646 20.871 13.994 23.474l16.043 4.071-21.96 92.955 96.093 24.378 27.582-91.514 397.83 100.856c10.347 2.63 20.843-3.61 23.474-13.957l7.717-30.471c2.63-10.385-3.647-20.917-13.994-23.511"/></svg>