<svg xmlns="http://www.w3.org/2000/svg" xmlns:xlink="http://www.w3.org/1999/xlink" width="600" height="335.95"><radialGradient id="a" cx="0" cy="0" r="1" fx="0" fy="0" gradientTransform="matrix(23.74843 0 0 -23.74843 401 146.384)" gradientUnits="userSpaceOnUse" spreadMethod="pad"><stop offset="0" style="stop-color:#bf99c3"/><stop offset=".663" style="stop-color:#7b5190"/><stop offset="1" style="stop-color:#612c75"/></radialGradient><radialGradient xlink:href="#a" id="b" cx="0" cy="0" r="1" fx="0" fy="0" gradientTransform="translate(300 169.172)scale(219.21307)" gradientUnits="userSpaceOnUse" spreadMethod="pad"/><path d="M553.953 335.95c-3.175 0-389.597-97.578-389.597-97.578l-27.628 91.513L4.906 296.46l21.96-93.027c-8.973-2.778-16.588-8.76-21.453-16.947-5.224-8.797-6.747-19.144-4.218-29.095l7.717-30.433c4.329-17.022 19.615-28.92 37.17-28.92 1.838 0 3.72.11 5.595.396l9.046-38.362L120.436 0l70.56 15.72-6.195 19.763c-10.892 34.688-16.153 79.392-7.975 94.503l394.25 99.986c20.52 5.197 32.962 26.104 27.729 46.624l-7.717 30.433c-4.292 17.05-19.578 28.92-37.135 28.92" style="fill:#fff"/><path d="M566.387 248.397 166.007 146.86c-27.866-26.612.657-117.072.657-117.072l-40.135-8.908-48.535 48.784-12.221 51.738-14.926-3.785c-10.348-2.594-20.88 3.683-23.51 14.03l-7.717 30.471c-2.631 10.31 3.646 20.87 13.993 23.474l16.043 4.07-21.96 92.953 96.09 24.378 27.582-91.513L549.19 316.334c10.348 2.631 20.88-3.609 23.474-13.956l7.754-30.47c2.593-10.385-3.683-20.917-14.031-23.511" style="fill:#612c75"/><path d="m83.006 72.48-11.861 50.223-1.302 5.483-5.437-1.412-14.935-3.785c-1.117-.249-2.234-.397-3.35-.397a13.86 13.86 0 0 0-13.45 10.385l-7.717 30.507c-.867 3.572-.36 7.246 1.55 10.458a13.64 13.64 0 0 0 8.438 6.305l16.08 4.043 5.27 1.366-1.264 5.27-20.695 87.692 85.706 21.701 26.03-86.426 1.514-5.086 5.16 1.301L550.565 310.99c1.117.295 2.27.434 3.388.434a13.81 13.81 0 0 0 13.375-10.422l7.717-30.461c.905-3.572.36-7.32-1.55-10.458a13.6 13.6 0 0 0-8.438-6.314L164.642 152.232l-1.403-.397-1.053-.97c-26.03-24.848-8.473-95.952-2.52-116.933l-31.375-6.997z" style="fill:url(#b)"/></svg>