<svg xmlns="http://www.w3.org/2000/svg" width="600" height="684.19"><path d="M300 684.19 76.492 583.63l22.322-66.468L0 586.915V97.223l98.814 69.822-22.322-66.486L300 0l223.422 100.559-22.322 66.486L600 97.223v489.692l-98.9-69.753 22.322 66.469z" style="fill:gray"/><path d="M570.597 342.095V530.11l-46.029-32.465-48.714-124.47h-54.12l65.272 194.565-69.343 31.2-45.977-225.766h-43.292l35.338 250.02L300 651.913l-63.818-28.719 35.407-250.02h-43.36L182.337 598.94l-69.429-31.2 65.29-194.566H124.06L75.43 497.645 29.387 530.11V154.011l46.046 32.482 48.629 124.471h54.136l-65.289-194.498L182.337 85.2l45.892 225.765h43.36l-35.407-250.02L300 32.277l63.732 28.667-35.338 250.02h43.292L417.663 85.2l69.343 31.267-65.272 194.498h54.12l48.714-124.471 46.029-32.482z"/></svg>