<svg xmlns="http://www.w3.org/2000/svg" width="541.211" height="619.636"><path d="M541.211 309.818v188.015l-46.029-32.464-48.714-124.472h-54.12l65.272 194.567-69.342 31.199L342.3 340.897h-43.292l35.338 250.02-63.732 28.72-63.818-28.72 35.407-250.02h-43.36L152.95 566.663l-69.429-31.2 65.29-194.566H94.674L46.046 465.37 0 497.833V121.734l46.046 32.482 48.629 124.471h54.136L83.522 84.19l69.429-31.268 45.892 225.766h43.36l-35.407-250.02L270.614 0l63.732 28.668-35.338 250.02H342.3l45.978-225.766L457.62 84.19l-65.272 194.498h54.12l48.714-124.472 46.029-32.482z"/></svg>