<?xml version="1.0" encoding="UTF-8"?>
<svg id="Layer_2" data-name="Layer 2" xmlns="http://www.w3.org/2000/svg" xmlns:xlink="http://www.w3.org/1999/xlink" viewBox="0 0 704.89 941.51">
  <defs>
    <style>
      .cls-1 {
        fill: url(#linear-gradient);
      }

      .cls-1, .cls-2 {
        stroke-width: 0px;
      }
    </style>
    <linearGradient id="linear-gradient" x1="553.07" y1="790.37" x2="101.39" y2="8.03" gradientUnits="userSpaceOnUse">
      <stop offset="0" stop-color="#626e77"/>
      <stop offset=".16" stop-color="#8a9ca8"/>
      <stop offset=".31" stop-color="#abc1cf"/>
      <stop offset=".43" stop-color="#bfd8e8"/>
      <stop offset=".5" stop-color="#c7e1f1"/>
      <stop offset=".6" stop-color="#b7cfde"/>
      <stop offset=".8" stop-color="#90a2ae"/>
      <stop offset="1" stop-color="#626e77"/>
    </linearGradient>
  </defs>
  <g id="Layer_1-2" data-name="Layer 1">
    <g>
      <path class="cls-2" d="M704.65,458.83c0,109.35-42.68,212.23-120.16,289.68-22,22.01-46.36,41.47-72.41,57.84-23.66,14.87-48.87,27.28-75.04,36.96-4.09,7.01-11.17,18.46-20.45,30.74-20.87,27.6-39.8,40.85-63.51,53.4-15.87,8.42-35.1,13.81-35.1,13.81l8.95-38.05c.35-1.26,11.61-43.26-.41-84.88l-44.88-65.49c-35.8-1.74-70.51-9.82-103.3-24.08-34.79-15.12-65.99-36.53-92.75-63.63-26.77-27.12-47.78-58.61-62.45-93.6C7.96,535.3.25,496.84.25,457.24s7.78-78.51,23.11-114.9c13.42-31.83,32.08-60.72,55.56-86.02l-18.17-87.2c-14.54-10.74-25.42-24.05-32.39-39.67-6.4-14.32-9.39-30.36-8.9-47.66.8-28.29,8.78-42.21,11.55-49.41C37.66,16.53,51.79.25,51.79.25l13.81,29.81c9.8,18.45,23.32,34.52,39.83,47.18,6.02,4.62,11.47,7.95,15.52,10.17,25.38-11.91,52.04-21.18,79.36-27.61,30.74-7.23,62.49-10.89,94.39-10.89,226.05,0,409.95,183.89,409.95,409.92ZM570.35,734.37c73.7-73.68,114.3-171.51,114.3-275.54,0-215.02-174.94-389.92-389.95-389.92-61.22,0-120.37,14.07-173.7,40.69,0,0-11.62-4.39-26.44-15.5-14.81-11.1-32.81-28.93-45.58-55.8,0,0-35.31,77.86,29.71,118.87l21.96,105.41c-49.76,49.86-80.4,118.66-80.4,194.66,0,151.09,121.48,273.84,272.15,275.93l52.37,76.41c15.57,49.55,1.4,99.11,1.4,99.11,42.48-15.65,77.08-81.67,77.08-81.67,54.66-19.05,104.82-50.35,147.1-92.65Z"/>
      <path class="cls-2" d="M684.65,458.83c0,104.03-40.6,201.86-114.3,275.54-42.28,42.3-92.44,73.6-147.1,92.65,0,0-34.6,66.02-77.08,81.67,0,0,14.17-49.56-1.4-99.11l-52.37-76.41c-150.67-2.09-272.15-124.84-272.15-275.93,0-76,30.64-144.8,80.4-194.66l-21.96-105.41C13.67,116.16,48.98,38.3,48.98,38.3c12.77,26.87,30.77,44.7,45.58,55.8,14.82,11.11,26.44,15.5,26.44,15.5,53.33-26.62,112.48-40.69,173.7-40.69,215.01,0,389.95,174.9,389.95,389.92Z"/>
    </g>
    <path id="Rarity" class="cls-1" d="M48.97,38.3c25.53,53.74,72.02,71.31,72.02,71.31,53.33-26.63,112.49-40.7,173.71-40.7,215.01,0,389.94,174.9,389.94,389.92,0,104.03-40.59,201.86-114.3,275.54-42.28,42.3-92.44,73.6-147.1,92.65,0,0-34.59,66.02-77.08,81.67,0,0,14.17-49.55-1.4-99.11l-52.36-76.41c-150.68-2.09-272.15-124.84-272.15-275.93,0-76,30.64-144.81,80.39-194.67l-21.96-105.41C13.66,116.16,48.97,38.3,48.97,38.3h0ZM294.7,136.82c-53.43,0-104.01,13.17-148.48,36.3l9.17,46.57c40.9-23.82,88.56-37.61,139.32-37.61,152.9,0,276.74,123.87,276.74,276.74,0,126.17-84.45,232.58-199.95,265.87l24.05,39.9c128.34-42.38,221.19-163.44,221.19-305.77,0-177.61-144.42-322.01-322.03-322.01h0ZM413.09,330.98l-8.58,4.96-37.9,46.68,3.72,6.44,35.44-1.39,45.43,78.69c7.02,12.16,10.23,21.99,9.63,29.49-.6,7.5-5.38,13.68-14.34,18.53l-.88.51-.1-.17c-1.43.83-2.6,1.42-3.5,1.78-.9.36-1.9.7-2.99,1.01-.85.17-1.65.31-2.38.42-.73.11-1.71.2-2.94.27-2.83.05-5.46.05-7.86,0-2.41-.04-4.79-.18-7.15-.4-3.01-.81-6.42-1.62-10.23-2.44-3.81-.82-7.97-1.83-12.49-3.04-7.9-2.12-14.36-3.95-19.39-5.5-5.03-1.55-8.74-2.75-11.13-3.59l-52.69-17.74c-7.05-2.29-13.06-4.3-18.03-6.04-4.98-1.74-8.73-3.15-11.26-4.23-1.13-.3-2.1-.61-2.92-.93-.82-.32-1.54-.46-2.15-.43l-.28-.08-.28-.07-1.97-.53c-.56-.15-1.34-.26-2.33-.32,2.69-2.51,5.08-4.68,7.19-6.54,2.11-1.85,3.98-3.57,5.61-5.15,1.16-1.3,2.35-2.55,3.57-3.73,1.22-1.18,2.23-2.48,3-3.88,1.39-1.44,2.72-3,3.98-4.68,1.26-1.68,2.56-3.55,3.92-5.6,7.6-11.06,11.72-23.06,12.37-35.99.64-12.93-2.2-24.88-8.54-35.85-6.61-11.44-15.98-20.1-28.11-25.97-12.13-5.87-25.11-7.84-38.93-5.9-10.03,1.34-20.32,4.18-30.85,8.51-10.53,4.33-24.33,11.27-41.4,20.8l-105.15,60.71,7.85,13.59,3.07-1.29c12.16-7.02,22.53-8.88,31.12-5.57,8.59,3.31,17.15,12.35,25.68,27.14l77.85,134.84c8.67,15.02,12.29,27.08,10.87,36.17-1.43,9.09-8.29,17.03-20.59,23.81l-2.86,1.65,7.85,13.59,111.59-64.43-7.85-13.59-4.44,3.04c-12.16,7.02-22.53,8.88-31.12,5.57-8.59-3.31-17.28-12.59-26.09-27.85l-34.9-60.45,10.58-5.63c4.05-2.34,7.65-4.1,10.78-5.27,3.14-1.18,5.58-1.63,7.32-1.37,3.35.29,8.64,1.61,15.87,3.95,7.23,2.34,16.72,5.69,28.45,10.04l54.04,21.73c9.85,3.85,18.4,6.94,25.63,9.29,7.23,2.34,13.41,4.1,18.54,5.27,7.38,1.78,14.73,1.83,22.03.16,7.3-1.67,15.01-4.85,23.11-9.53l28.61-16.52-.11-.18,77.42-44.7-7.43-12.88-1.22,1.18c-7.15,4.13-14.02,4.36-20.59.68s-13.3-11.47-20.18-23.4l-67.94-117.67h0ZM215.41,372.63c2.58.18,5.18.17,7.74.54,6.38.92,12.5,3.09,18.11,6.23,9.19,5.18,16.68,12.78,22.46,22.8,5.51,9.54,8.2,19.03,8.09,28.47-.11,9.44-3.14,18.11-9.08,25.99-1.16,1.3-2.25,2.57-3.29,3.81s-2.01,2.43-2.93,3.6c-3.6,3.67-7.98,7.23-13.14,10.69-5.16,3.45-13.41,8.3-24.76,14.53l-19.31,11.15-56.79-98.36,19.88-11c8.82-5.09,15.78-8.87,20.88-11.34,5.1-2.47,10.2-4.22,15.32-5.27,1.94-.49,3.96-.85,6.04-1.1,2.08-.25,4.35-.45,6.81-.59l3.97-.15h0ZM359.01,253.98c-3.92.56-7.03,1-10.49,3.17-5.25,3.03-8.71,7.49-10.39,13.39-1.68,5.9-1.01,11.47,2.02,16.72l.21.36c3.03,5.25,7.59,8.74,13.67,10.47,6.09,1.73,11.75,1.08,17-1.95,5.48-3.17,8.94-7.78,10.36-13.85,1.42-6.07.62-11.72-2.41-16.97-3.17-5.48-7.67-9.01-13.49-10.57-3.59-.78-1.44-.43-6.49-.76h0Z"/>
  </g>
</svg>