<?xml version="1.0" encoding="UTF-8" standalone="no"?>
<svg
   id="Layer_2"
   data-name="Layer 2"
   viewBox="0 0 664.39 870.39"
   version="1.1"
   width="664.39001"
   height="870.39001"
   xmlns="http://www.w3.org/2000/svg"
   xmlns:svg="http://www.w3.org/2000/svg">
  <defs
     id="defs1">
    <style
       id="style1">
      .cls-1 {
        stroke-width: 0px;
      }
    </style>
  </defs>
  <g
     id="Layer_1-2"
     data-name="Layer 1">
    <path
       id="Rarity"
       class="cls-1"
       d="m 28.72,0 c 25.53,53.74 72.02,71.31 72.02,71.31 53.33,-26.63 112.49,-40.7 173.71,-40.7 215.01,0 389.94,174.9 389.94,389.92 0,104.03 -40.59,201.86 -114.3,275.54 -42.28,42.3 -92.44,73.6 -147.1,92.65 0,0 -34.59,66.02 -77.08,81.67 0,0 14.17,-49.55 -1.4,-99.11 L 272.15,694.87 C 121.47,692.78 0,570.03 0,418.95 0,342.95 30.64,274.14 80.39,224.28 L 58.43,118.87 C -6.59,77.87 28.72,0 28.72,0 Z m 245.73,98.52 c -53.43,0 -104.01,13.17 -148.48,36.3 l 9.17,46.57 c 40.9,-23.82 88.56,-37.61 139.32,-37.61 152.9,0 276.74,123.87 276.74,276.74 0,126.17 -84.45,232.58 -199.95,265.87 l 24.05,39.9 C 503.64,683.91 596.49,562.85 596.49,420.52 596.49,242.91 452.07,98.51 274.46,98.51 v 0 z m 118.39,194.16 -8.58,4.96 -37.9,46.68 3.72,6.44 35.44,-1.39 45.43,78.69 c 7.02,12.16 10.23,21.99 9.63,29.49 -0.6,7.5 -5.38,13.68 -14.34,18.53 l -0.88,0.51 -0.1,-0.17 c -1.43,0.83 -2.6,1.42 -3.5,1.78 -0.9,0.36 -1.9,0.7 -2.99,1.01 -0.85,0.17 -1.65,0.31 -2.38,0.42 -0.73,0.11 -1.71,0.2 -2.94,0.27 -2.83,0.05 -5.46,0.05 -7.86,0 -2.41,-0.04 -4.79,-0.18 -7.15,-0.4 -3.01,-0.81 -6.42,-1.62 -10.23,-2.44 -3.81,-0.82 -7.97,-1.83 -12.49,-3.04 -7.9,-2.12 -14.36,-3.95 -19.39,-5.5 -5.03,-1.55 -8.74,-2.75 -11.13,-3.59 l -52.69,-17.74 c -7.05,-2.29 -13.06,-4.3 -18.03,-6.04 -4.98,-1.74 -8.73,-3.15 -11.26,-4.23 -1.13,-0.3 -2.1,-0.61 -2.92,-0.93 -0.82,-0.32 -1.54,-0.46 -2.15,-0.43 l -0.28,-0.08 -0.28,-0.07 -1.97,-0.53 c -0.56,-0.15 -1.34,-0.26 -2.33,-0.32 2.69,-2.51 5.08,-4.68 7.19,-6.54 2.11,-1.85 3.98,-3.57 5.61,-5.15 1.16,-1.3 2.35,-2.55 3.57,-3.73 1.22,-1.18 2.23,-2.48 3,-3.88 1.39,-1.44 2.72,-3 3.98,-4.68 1.26,-1.68 2.56,-3.55 3.92,-5.6 7.6,-11.06 11.72,-23.06 12.37,-35.99 0.64,-12.93 -2.2,-24.88 -8.54,-35.85 -6.61,-11.44 -15.98,-20.1 -28.11,-25.97 -12.13,-5.87 -25.11,-7.84 -38.93,-5.9 -10.03,1.34 -20.32,4.18 -30.85,8.51 -10.53,4.33 -24.33,11.27 -41.4,20.8 l -105.15,60.71 7.85,13.59 3.07,-1.29 c 12.16,-7.02 22.53,-8.88 31.12,-5.57 8.59,3.31 17.15,12.35 25.68,27.14 L 185.52,560 c 8.67,15.02 12.29,27.08 10.87,36.17 -1.43,9.09 -8.29,17.03 -20.59,23.81 l -2.86,1.65 7.85,13.59 111.59,-64.43 -7.85,-13.59 -4.44,3.04 c -12.16,7.02 -22.53,8.88 -31.12,5.57 -8.59,-3.31 -17.28,-12.59 -26.09,-27.85 l -34.9,-60.45 10.58,-5.63 c 4.05,-2.34 7.65,-4.1 10.78,-5.27 3.14,-1.18 5.58,-1.63 7.32,-1.37 3.35,0.29 8.64,1.61 15.87,3.95 7.23,2.34 16.72,5.69 28.45,10.04 l 54.04,21.73 c 9.85,3.85 18.4,6.94 25.63,9.29 7.23,2.34 13.41,4.1 18.54,5.27 7.38,1.78 14.73,1.83 22.03,0.16 7.3,-1.67 15.01,-4.85 23.11,-9.53 l 28.61,-16.52 -0.11,-0.18 77.42,-44.7 -7.43,-12.88 -1.22,1.18 c -7.15,4.13 -14.02,4.36 -20.59,0.68 -6.57,-3.68 -13.3,-11.47 -20.18,-23.4 L 392.89,292.66 v 0 z m -197.68,41.65 c 2.58,0.18 5.18,0.17 7.74,0.54 6.38,0.92 12.5,3.09 18.11,6.23 9.19,5.18 16.68,12.78 22.46,22.8 5.51,9.54 8.2,19.03 8.09,28.47 -0.11,9.44 -3.14,18.11 -9.08,25.99 -1.16,1.3 -2.25,2.57 -3.29,3.81 -1.04,1.24 -2.01,2.43 -2.93,3.6 -3.6,3.67 -7.98,7.23 -13.14,10.69 -5.16,3.45 -13.41,8.3 -24.76,14.53 l -19.31,11.15 -56.79,-98.36 19.88,-11 c 8.82,-5.09 15.78,-8.87 20.88,-11.34 5.1,-2.47 10.2,-4.22 15.32,-5.27 1.94,-0.49 3.96,-0.85 6.04,-1.1 2.08,-0.25 4.35,-0.45 6.81,-0.59 z m 143.6,-118.65 c -3.92,0.56 -7.03,1 -10.49,3.17 -5.25,3.03 -8.71,7.49 -10.39,13.39 -1.68,5.9 -1.01,11.47 2.02,16.72 l 0.21,0.36 c 3.03,5.25 7.59,8.74 13.67,10.47 6.09,1.73 11.75,1.08 17,-1.95 5.48,-3.17 8.94,-7.78 10.36,-13.85 1.42,-6.07 0.62,-11.72 -2.41,-16.97 -3.17,-5.48 -7.67,-9.01 -13.49,-10.57 -3.59,-0.78 -1.44,-0.43 -6.49,-0.76 v 0 z" />
  </g>
</svg>
