<?xml version="1.0" encoding="UTF-8" standalone="no"?>
<!-- Generator: Adobe Illustrator 15.1.0, SVG Export Plug-In . SVG Version: 6.00 Build 0)  -->

<svg
   version="1.1"
   id="Layer_1"
   x="0px"
   y="0px"
   width="150"
   height="107.366"
   viewBox="0 0 150 107.366"
   enable-background="new 0 0 160 115"
   xml:space="preserve"
   xmlns="http://www.w3.org/2000/svg"
   xmlns:svg="http://www.w3.org/2000/svg"><defs
   id="defs2" />
<g
   id="Layer_1_1_"
   transform="translate(-5.168,-3.834)">
</g>
<g
   id="Layer_3"
   display="none"
   transform="translate(-5.168,-3.834)">
</g>
<g
   id="g2"
   transform="translate(-5.168,-3.834)">
	<path
   fill="#ffffff"
   d="m 155.168,61.268 c 0,0 -1.33,-7.439 -4.938,-15.713 -3.754,-8.608 -9.705,-14.684 -9.705,-14.684 0,0 -14.006,5.968 -25.275,17.872 l -2.01,-1.339 c 5.525,-7.046 10.685,-11.4 13.447,-13.478 l 3.512,-2.641 -2.54,-3.585 C 117.08,12.754 99.326,3.834 80.167,3.834 c -19.158,0 -36.912,8.92 -47.491,23.864 l -2.54,3.585 3.511,2.641 c 2.763,2.077 7.921,6.432 13.447,13.478 l -2.009,1.339 C 33.816,36.837 19.808,30.869 19.808,30.869 c 0,0 -5.95,6.076 -9.704,14.684 -3.606,8.274 -4.936,15.715 -4.936,15.715 0,0 6.605,-0.408 12.947,0.825 -7.346,9.884 -7.665,23.72 -7.665,23.72 0,0 9.34,-1.588 16.02,-1.588 23.238,0 38.671,11.039 42.405,13.875 6.268,4.762 11.292,13.1 11.292,13.1 0,0 5.024,-8.338 11.294,-13.1 3.732,-2.836 19.166,-13.875 42.405,-13.875 6.681,0 16.019,1.588 16.019,1.588 0,0 -0.318,-13.836 -7.664,-23.72 6.342,-1.234 12.947,-0.825 12.947,-0.825 z"
   id="path1" />
	<path
   d="M 42.837,52.964 59.689,77.065 C 56.355,74.305 47.08,67.044 35.387,62.449 20.691,56.671 10.894,56.749 10.894,56.749 13.72,45.067 20.973,36.494 20.973,36.494 c 0,0 10.889,5.387 21.864,16.47 z m 96.524,-16.472 c 0,0 7.254,8.573 10.078,20.255 0,0 -9.797,-0.078 -24.492,5.7 -11.691,4.596 -20.967,11.857 -24.301,14.617 l 16.852,-24.102 c 10.975,-11.081 21.863,-16.47 21.863,-16.47 z M 52.255,73.32 c -4.58,-3.195 -10.6,-6.791 -17.419,-9.471 -3.627,-1.429 -6.947,-2.488 -9.885,-3.279 -7.968,9.088 -9.283,19.76 -9.283,19.76 0,0 3.517,-0.629 10.803,-0.629 29.204,0 45.47,15.074 45.47,15.074 0,0 -6.784,-12.451 -19.686,-21.455 z m 36.141,21.455 c 0,0 16.267,-15.074 45.471,-15.074 7.285,0 10.802,0.629 10.802,0.629 0,0 -1.313,-10.672 -9.282,-19.76 -2.938,0.791 -6.259,1.852 -9.886,3.279 -6.819,2.68 -12.84,6.274 -17.42,9.471 C 95.178,82.324 88.396,94.775 88.396,94.775 Z M 66.546,10.021 c 4.344,-1.083 8.909,-1.664 13.621,-1.664 4.712,0 9.276,0.581 13.62,1.664 -2.184,5.067 -5.01,14.531 -2.266,25.611 L 80.167,28.059 68.813,35.632 C 71.556,24.552 68.731,15.088 66.546,10.021 Z m -1.829,0.492 c -11.751,3.362 -21.739,10.458 -28.351,19.799 3.378,2.541 9.521,7.801 15.866,16.379 l 14.184,-9.459 c 3.613,-11.68 0.516,-21.708 -1.699,-26.719 z m 29.202,26.718 14.185,9.459 c 6.345,-8.579 12.486,-13.839 15.865,-16.379 -6.611,-9.341 -16.6,-16.436 -28.352,-19.799 -2.215,5.01 -5.312,15.04 -1.698,26.719 z m 2.86,41.699 V 41.858 l 17.805,11.874 z M 45.75,53.732 63.556,78.93 V 41.858 Z M 80.167,30.778 65.063,40.851 V 81.062 L 80.167,102.437 95.271,81.062 V 40.851 Z"
   id="path2" />
</g>
</svg>
