<?xml version="1.0" encoding="UTF-8" standalone="no"?>
<!-- Generator: Adobe Illustrator 15.1.0, SVG Export Plug-In . SVG Version: 6.00 Build 0)  -->

<svg
   version="1.1"
   id="Layer_1"
   x="0px"
   y="0px"
   width="150.00101"
   height="107.365"
   viewBox="0 0 150.00101 107.365"
   enable-background="new 0 0 160 115"
   xml:space="preserve"
   xmlns="http://www.w3.org/2000/svg"
   xmlns:svg="http://www.w3.org/2000/svg"><defs
   id="defs74" />
<g
   id="Layer_1_1_"
   transform="translate(-4.833,-3.334)">
</g>
<g
   id="Layer_3"
   display="none"
   transform="translate(-4.833,-3.334)">
</g>
<g
   id="g74"
   transform="translate(-4.833,-3.334)">
	<path
   d="m 154.834,60.769 c 0,0 -1.331,-7.441 -4.937,-15.715 -3.753,-8.608 -9.704,-14.684 -9.704,-14.684 0,0 -14.008,5.968 -25.277,17.872 l -2.009,-1.339 c 5.523,-7.046 10.684,-11.4 13.446,-13.478 l 3.51,-2.641 -2.537,-3.585 C 116.746,12.254 98.992,3.334 79.833,3.334 c -19.159,0 -36.913,8.92 -47.492,23.864 l -2.539,3.585 3.511,2.641 c 2.762,2.077 7.922,6.432 13.446,13.478 L 44.75,48.241 C 33.482,36.337 19.474,30.369 19.474,30.369 c 0,0 -5.951,6.076 -9.704,14.684 -3.606,8.274 -4.937,15.715 -4.937,15.715 0,0 6.605,-0.408 12.947,0.826 -7.346,9.883 -7.664,23.719 -7.664,23.719 0,0 9.339,-1.589 16.02,-1.589 23.238,0 38.671,11.04 42.405,13.876 6.269,4.761 11.293,13.099 11.293,13.099 0,0 5.025,-8.338 11.292,-13.099 3.732,-2.836 19.168,-13.876 42.405,-13.876 6.681,0 16.019,1.589 16.019,1.589 0,0 -0.316,-13.836 -7.663,-23.719 6.341,-1.234 12.947,-0.825 12.947,-0.825 z"
   id="path1" />
	<linearGradient
   id="SVGID_1_"
   gradientUnits="userSpaceOnUse"
   x1="79.834"
   y1="76.564499"
   x2="79.834"
   y2="35.992699">
		<stop
   offset="0"
   style="stop-color:#F7981D"
   id="stop1" />
		<stop
   offset="0.1549"
   style="stop-color:#EA8620"
   id="stop2" />
		<stop
   offset="0.25"
   style="stop-color:#E07823"
   id="stop3" />
		<stop
   offset="0.5"
   style="stop-color:#E07823"
   id="stop4" />
		<stop
   offset="0.5517"
   style="stop-color:#DC6F23"
   id="stop5" />
		<stop
   offset="0.636"
   style="stop-color:#D05724"
   id="stop6" />
		<stop
   offset="0.7418"
   style="stop-color:#BD2F26"
   id="stop7" />
		<stop
   offset="0.75"
   style="stop-color:#BB2C26"
   id="stop8" />
		<stop
   offset="1"
   style="stop-color:#BB2C26"
   id="stop9" />
	</linearGradient>
	<path
   fill="url(#SVGID_1_)"
   d="M 42.503,52.464 59.355,76.565 C 56.022,73.805 46.746,66.544 35.054,61.947 20.358,56.17 10.56,56.248 10.56,56.248 13.386,44.566 20.64,35.993 20.64,35.993 c 0,0 10.888,5.388 21.863,16.471 z m 96.524,-16.472 c 0,0 7.254,8.573 10.08,20.255 0,0 -9.798,-0.078 -24.494,5.699 -11.691,4.597 -20.968,11.858 -24.303,14.618 l 16.854,-24.101 c 10.974,-11.082 21.863,-16.471 21.863,-16.471 z"
   id="path9"
   style="fill:url(#SVGID_1_)" />
	<linearGradient
   id="SVGID_2_"
   gradientUnits="userSpaceOnUse"
   x1="15.333"
   y1="77.171898"
   x2="71.606003"
   y2="77.171898">
		<stop
   offset="0"
   style="stop-color:#BB2C26"
   id="stop10" />
		<stop
   offset="0.0517"
   style="stop-color:#BF3526"
   id="stop11" />
		<stop
   offset="0.136"
   style="stop-color:#CB4D25"
   id="stop12" />
		<stop
   offset="0.2418"
   style="stop-color:#DE7523"
   id="stop13" />
		<stop
   offset="0.25"
   style="stop-color:#E07823"
   id="stop14" />
		<stop
   offset="0.2566"
   style="stop-color:#E17A23"
   id="stop15" />
		<stop
   offset="0.327"
   style="stop-color:#EE8B1F"
   id="stop16" />
		<stop
   offset="0.404"
   style="stop-color:#F5951E"
   id="stop17" />
		<stop
   offset="0.5"
   style="stop-color:#F7981D"
   id="stop18" />
		<stop
   offset="0.596"
   style="stop-color:#F5951E"
   id="stop19" />
		<stop
   offset="0.673"
   style="stop-color:#EE8B1F"
   id="stop20" />
		<stop
   offset="0.7434"
   style="stop-color:#E17A23"
   id="stop21" />
		<stop
   offset="0.75"
   style="stop-color:#E07823"
   id="stop22" />
		<stop
   offset="0.8095"
   style="stop-color:#D35D24"
   id="stop23" />
		<stop
   offset="0.8837"
   style="stop-color:#C64225"
   id="stop24" />
		<stop
   offset="0.9496"
   style="stop-color:#BE3226"
   id="stop25" />
		<stop
   offset="1"
   style="stop-color:#BB2C26"
   id="stop26" />
	</linearGradient>
	<path
   fill="url(#SVGID_2_)"
   d="m 51.921,72.821 c -4.58,-3.196 -10.601,-6.792 -17.419,-9.472 -3.628,-1.427 -6.947,-2.487 -9.886,-3.28 -7.968,9.089 -9.283,19.761 -9.283,19.761 0,0 3.517,-0.629 10.803,-0.629 29.204,0 45.47,15.074 45.47,15.074 0,0 -6.783,-12.451 -19.685,-21.454 z"
   id="path26"
   style="fill:url(#SVGID_2_)" />
	<linearGradient
   id="SVGID_3_"
   gradientUnits="userSpaceOnUse"
   x1="88.060501"
   y1="77.171898"
   x2="144.334"
   y2="77.171898">
		<stop
   offset="0"
   style="stop-color:#BB2C26"
   id="stop27" />
		<stop
   offset="0.0517"
   style="stop-color:#BF3526"
   id="stop28" />
		<stop
   offset="0.136"
   style="stop-color:#CB4D25"
   id="stop29" />
		<stop
   offset="0.2418"
   style="stop-color:#DE7523"
   id="stop30" />
		<stop
   offset="0.25"
   style="stop-color:#E07823"
   id="stop31" />
		<stop
   offset="0.2566"
   style="stop-color:#E17A23"
   id="stop32" />
		<stop
   offset="0.327"
   style="stop-color:#EE8B1F"
   id="stop33" />
		<stop
   offset="0.404"
   style="stop-color:#F5951E"
   id="stop34" />
		<stop
   offset="0.5"
   style="stop-color:#F7981D"
   id="stop35" />
		<stop
   offset="0.596"
   style="stop-color:#F5951E"
   id="stop36" />
		<stop
   offset="0.673"
   style="stop-color:#EE8B1F"
   id="stop37" />
		<stop
   offset="0.7434"
   style="stop-color:#E17A23"
   id="stop38" />
		<stop
   offset="0.75"
   style="stop-color:#E07823"
   id="stop39" />
		<stop
   offset="0.8095"
   style="stop-color:#D35D24"
   id="stop40" />
		<stop
   offset="0.8837"
   style="stop-color:#C64225"
   id="stop41" />
		<stop
   offset="0.9496"
   style="stop-color:#BE3226"
   id="stop42" />
		<stop
   offset="1"
   style="stop-color:#BB2C26"
   id="stop43" />
	</linearGradient>
	<path
   fill="url(#SVGID_3_)"
   d="m 88.061,94.275 c 0,0 16.267,-15.074 45.471,-15.074 7.285,0 10.803,0.629 10.803,0.629 0,0 -1.313,-10.672 -9.282,-19.761 -2.94,0.793 -6.259,1.854 -9.888,3.28 -6.817,2.68 -12.839,6.275 -17.417,9.472 -12.904,9.003 -19.687,21.454 -19.687,21.454 z"
   id="path43"
   style="fill:url(#SVGID_3_)" />
	<linearGradient
   id="SVGID_4_"
   gradientUnits="userSpaceOnUse"
   x1="36.0322"
   y1="27.023899"
   x2="123.6348"
   y2="27.023899">
		<stop
   offset="0"
   style="stop-color:#BB2C26"
   id="stop44" />
		<stop
   offset="0.0786"
   style="stop-color:#BD3026"
   id="stop45" />
		<stop
   offset="0.16"
   style="stop-color:#C33D25"
   id="stop46" />
		<stop
   offset="0.2427"
   style="stop-color:#CD5125"
   id="stop47" />
		<stop
   offset="0.3259"
   style="stop-color:#DB6E23"
   id="stop48" />
		<stop
   offset="0.35"
   style="stop-color:#E07823"
   id="stop49" />
		<stop
   offset="0.3807"
   style="stop-color:#E78221"
   id="stop50" />
		<stop
   offset="0.4483"
   style="stop-color:#F3921E"
   id="stop51" />
		<stop
   offset="0.5"
   style="stop-color:#F7981D"
   id="stop52" />
		<stop
   offset="0.5517"
   style="stop-color:#F3921E"
   id="stop53" />
		<stop
   offset="0.6193"
   style="stop-color:#E78221"
   id="stop54" />
		<stop
   offset="0.65"
   style="stop-color:#E07823"
   id="stop55" />
		<stop
   offset="0.7333"
   style="stop-color:#D35D24"
   id="stop56" />
		<stop
   offset="0.8372"
   style="stop-color:#C64225"
   id="stop57" />
		<stop
   offset="0.9295"
   style="stop-color:#BE3226"
   id="stop58" />
		<stop
   offset="1"
   style="stop-color:#BB2C26"
   id="stop59" />
	</linearGradient>
	<path
   fill="url(#SVGID_4_)"
   d="m 66.212,9.521 c 4.344,-1.083 8.909,-1.664 13.621,-1.664 4.712,0 9.278,0.581 13.621,1.664 -2.185,5.067 -5.01,14.531 -2.267,25.611 L 79.833,27.559 68.479,35.132 C 71.222,24.052 68.396,14.588 66.212,9.521 Z m -1.829,0.492 c -11.751,3.363 -21.739,10.458 -28.351,19.799 3.378,2.541 9.521,7.801 15.866,16.379 l 14.183,-9.459 c 3.614,-11.68 0.517,-21.708 -1.698,-26.719 z m 29.202,26.718 14.183,9.459 c 6.346,-8.579 12.489,-13.839 15.867,-16.379 -6.613,-9.341 -16.6,-16.436 -28.353,-19.799 -2.214,5.01 -5.311,15.04 -1.697,26.719 z"
   id="path59"
   style="fill:url(#SVGID_4_)" />
	<g
   id="g73">
		<linearGradient
   id="SVGID_5_"
   gradientUnits="userSpaceOnUse"
   x1="45.416"
   y1="59.894501"
   x2="114.252"
   y2="59.894501">
			<stop
   offset="0"
   style="stop-color:#F7981D"
   id="stop60" />
			<stop
   offset="0.0479"
   style="stop-color:#F28F1E"
   id="stop61" />
			<stop
   offset="0.126"
   style="stop-color:#E57720"
   id="stop62" />
			<stop
   offset="0.224"
   style="stop-color:#CF4F23"
   id="stop63" />
			<stop
   offset="0.3"
   style="stop-color:#BB2C26"
   id="stop64" />
			<stop
   offset="0.3179"
   style="stop-color:#BB2C26"
   id="stop65" />
			<stop
   offset="0.5"
   style="stop-color:#BB2C26"
   id="stop66" />
			<stop
   offset="0.6821"
   style="stop-color:#BB2C26"
   id="stop67" />
			<stop
   offset="0.7"
   style="stop-color:#BB2C26"
   id="stop68" />
			<stop
   offset="0.7384"
   style="stop-color:#C74124"
   id="stop69" />
			<stop
   offset="0.8159"
   style="stop-color:#DC6721"
   id="stop70" />
			<stop
   offset="0.8878"
   style="stop-color:#EB821F"
   id="stop71" />
			<stop
   offset="0.9514"
   style="stop-color:#F4921D"
   id="stop72" />
			<stop
   offset="1"
   style="stop-color:#F7981D"
   id="stop73" />
		</linearGradient>
		<path
   fill="url(#SVGID_5_)"
   d="M 96.446,78.43 V 41.358 l 17.806,11.874 z M 45.416,53.232 63.221,78.43 V 41.358 Z"
   id="path73"
   style="fill:url(#SVGID_5_)" />
		<polygon
   fill="#f7981d"
   points="64.729,80.563 79.833,101.938 94.938,80.563 94.938,40.351 79.833,30.278 64.729,40.351 "
   id="polygon73" />
	</g>
</g>
</svg>
