<?xml version="1.0" encoding="UTF-8" standalone="no"?>
<!DOCTYPE svg PUBLIC "-//W3C//DTD SVG 1.1//EN" "http://www.w3.org/Graphics/SVG/1.1/DTD/svg11.dtd">
<svg width="100%" height="100%" viewBox="0 0 160 115" version="1.1" xmlns="http://www.w3.org/2000/svg" xmlns:xlink="http://www.w3.org/1999/xlink" xml:space="preserve" xmlns:serif="http://www.serif.com/" style="fill-rule:evenodd;clip-rule:evenodd;stroke-linejoin:round;stroke-miterlimit:2;">
    <g>
        <path d="M154.834,60.769C154.834,60.769 153.503,53.328 149.897,45.054C146.144,36.446 140.193,30.37 140.193,30.37C140.193,30.37 126.185,36.338 114.916,48.242L112.907,46.903C118.43,39.857 123.591,35.503 126.353,33.425L129.863,30.784L127.326,27.199C116.746,12.254 98.992,3.334 79.833,3.334C60.674,3.334 42.92,12.254 32.341,27.198L29.802,30.783L33.313,33.424C36.075,35.501 41.235,39.856 46.759,46.902L44.75,48.241C33.482,36.337 19.474,30.369 19.474,30.369C19.474,30.369 13.523,36.445 9.77,45.053C6.164,53.327 4.833,60.768 4.833,60.768C4.833,60.768 11.438,60.36 17.78,61.594C10.434,71.477 10.116,85.313 10.116,85.313C10.116,85.313 19.455,83.724 26.136,83.724C49.374,83.724 64.807,94.764 68.541,97.6C74.81,102.361 79.834,110.699 79.834,110.699C79.834,110.699 84.859,102.361 91.126,97.6C94.858,94.764 110.294,83.724 133.531,83.724C140.212,83.724 149.55,85.313 149.55,85.313C149.55,85.313 149.234,71.477 141.887,61.594C148.228,60.36 154.834,60.769 154.834,60.769Z" style="fill-rule:nonzero;"/>
        <path d="M42.503,52.464L59.355,76.565C56.022,73.805 46.746,66.544 35.054,61.947C20.358,56.17 10.56,56.248 10.56,56.248C13.386,44.566 20.64,35.993 20.64,35.993C20.64,35.993 31.528,41.381 42.503,52.464ZM139.027,35.992C139.027,35.992 146.281,44.565 149.107,56.247C149.107,56.247 139.309,56.169 124.613,61.946C112.922,66.543 103.645,73.804 100.31,76.564L117.164,52.463C128.138,41.381 139.027,35.992 139.027,35.992Z" style="fill:url(#_Linear1);fill-rule:nonzero;"/>
        <path d="M51.921,72.821C47.341,69.625 41.32,66.029 34.502,63.349C30.874,61.922 27.555,60.862 24.616,60.069C16.648,69.158 15.333,79.83 15.333,79.83C15.333,79.83 18.85,79.201 26.136,79.201C55.34,79.201 71.606,94.275 71.606,94.275C71.606,94.275 64.823,81.824 51.921,72.821Z" style="fill:url(#_Linear2);fill-rule:nonzero;"/>
        <path d="M88.061,94.275C88.061,94.275 104.328,79.201 133.532,79.201C140.817,79.201 144.335,79.83 144.335,79.83C144.335,79.83 143.022,69.158 135.053,60.069C132.113,60.862 128.794,61.923 125.165,63.349C118.348,66.029 112.326,69.624 107.748,72.821C94.844,81.824 88.061,94.275 88.061,94.275Z" style="fill:url(#_Linear3);fill-rule:nonzero;"/>
        <path d="M66.212,9.521C70.556,8.438 75.121,7.857 79.833,7.857C84.545,7.857 89.111,8.438 93.454,9.521C91.269,14.588 88.444,24.052 91.187,35.132L79.833,27.559L68.479,35.132C71.222,24.052 68.396,14.588 66.212,9.521ZM64.383,10.013C52.632,13.376 42.644,20.471 36.032,29.812C39.41,32.353 45.553,37.613 51.898,46.191L66.081,36.732C69.695,25.052 66.598,15.024 64.383,10.013ZM93.585,36.731L107.768,46.19C114.114,37.611 120.257,32.351 123.635,29.811C117.022,20.47 107.035,13.375 95.282,10.012C93.068,15.022 89.971,25.052 93.585,36.731Z" style="fill:url(#_Linear4);fill-rule:nonzero;"/>
        <g>
            <path d="M96.446,78.43L96.446,41.358L114.252,53.232L96.446,78.43ZM45.416,53.232L63.221,78.43L63.221,41.358L45.416,53.232Z" style="fill:url(#_Linear5);fill-rule:nonzero;"/>
            <path d="M79.833,30.278L64.729,40.351L64.729,80.563L79.833,101.938L94.938,80.563L94.938,40.351L79.833,30.278Z" style="fill:url(#_Linear6);fill-rule:nonzero;"/>
        </g>
    </g>
    <defs>
        <linearGradient id="_Linear1" x1="0" y1="0" x2="1" y2="0" gradientUnits="userSpaceOnUse" gradientTransform="matrix(3.89166e-15,-63.5557,63.5557,3.89166e-15,80,91.8459)"><stop offset="0" style="stop-color:rgb(97,44,117);stop-opacity:1"/><stop offset="0.3" style="stop-color:rgb(123,81,144);stop-opacity:1"/><stop offset="0.5" style="stop-color:rgb(191,153,195);stop-opacity:1"/><stop offset="0.7" style="stop-color:rgb(123,81,144);stop-opacity:1"/><stop offset="1" style="stop-color:rgb(97,44,117);stop-opacity:1"/></linearGradient>
        <linearGradient id="_Linear2" x1="0" y1="0" x2="1" y2="0" gradientUnits="userSpaceOnUse" gradientTransform="matrix(56.273,0,0,56.273,15.333,77.1719)"><stop offset="0" style="stop-color:rgb(97,44,117);stop-opacity:1"/><stop offset="0.3" style="stop-color:rgb(123,81,144);stop-opacity:1"/><stop offset="0.5" style="stop-color:rgb(191,153,195);stop-opacity:1"/><stop offset="0.7" style="stop-color:rgb(123,81,144);stop-opacity:1"/><stop offset="1" style="stop-color:rgb(97,44,117);stop-opacity:1"/></linearGradient>
        <linearGradient id="_Linear3" x1="0" y1="0" x2="1" y2="0" gradientUnits="userSpaceOnUse" gradientTransform="matrix(56.2735,0,0,56.2735,88.0605,77.1719)"><stop offset="0" style="stop-color:rgb(97,44,117);stop-opacity:1"/><stop offset="0.3" style="stop-color:rgb(123,81,144);stop-opacity:1"/><stop offset="0.5" style="stop-color:rgb(191,153,195);stop-opacity:1"/><stop offset="0.7" style="stop-color:rgb(123,81,144);stop-opacity:1"/><stop offset="1" style="stop-color:rgb(97,44,117);stop-opacity:1"/></linearGradient>
        <linearGradient id="_Linear4" x1="0" y1="0" x2="1" y2="0" gradientUnits="userSpaceOnUse" gradientTransform="matrix(87.6026,0,0,87.6026,36.0322,27.0239)"><stop offset="0" style="stop-color:rgb(97,44,117);stop-opacity:1"/><stop offset="0.3" style="stop-color:rgb(123,81,144);stop-opacity:1"/><stop offset="0.5" style="stop-color:rgb(191,153,195);stop-opacity:1"/><stop offset="0.7" style="stop-color:rgb(123,81,144);stop-opacity:1"/><stop offset="1" style="stop-color:rgb(97,44,117);stop-opacity:1"/></linearGradient>
        <linearGradient id="_Linear5" x1="0" y1="0" x2="1" y2="0" gradientUnits="userSpaceOnUse" gradientTransform="matrix(68.836,0,0,68.836,45.416,59.8945)"><stop offset="0" style="stop-color:rgb(97,44,117);stop-opacity:1"/><stop offset="0.3" style="stop-color:rgb(123,81,144);stop-opacity:1"/><stop offset="0.5" style="stop-color:rgb(191,153,195);stop-opacity:1"/><stop offset="0.7" style="stop-color:rgb(123,81,144);stop-opacity:1"/><stop offset="1" style="stop-color:rgb(97,44,117);stop-opacity:1"/></linearGradient>
        <linearGradient id="_Linear6" x1="0" y1="0" x2="1" y2="0" gradientUnits="userSpaceOnUse" gradientTransform="matrix(68.836,0,0,71.66,45.416,66.108)"><stop offset="0" style="stop-color:rgb(97,44,117);stop-opacity:1"/><stop offset="0.3" style="stop-color:rgb(123,81,144);stop-opacity:1"/><stop offset="0.5" style="stop-color:rgb(191,153,195);stop-opacity:1"/><stop offset="0.7" style="stop-color:rgb(123,81,144);stop-opacity:1"/><stop offset="1" style="stop-color:rgb(97,44,117);stop-opacity:1"/></linearGradient>
    </defs>
</svg>
