<?xml version="1.0" encoding="UTF-8" standalone="no"?>
<!-- Generator: Adobe Illustrator 15.1.0, SVG Export Plug-In . SVG Version: 6.00 Build 0)  -->

<svg
   version="1.1"
   id="Layer_1"
   x="0px"
   y="0px"
   width="150.002"
   height="107.365"
   viewBox="0 0 150.002 107.365"
   enable-background="new 0 0 160 115"
   xml:space="preserve"
   xmlns="http://www.w3.org/2000/svg"
   xmlns:svg="http://www.w3.org/2000/svg"><defs
   id="defs74" />
<g
   id="Layer_1_1_"
   transform="translate(-5.055,-3.334)">
</g>
<g
   id="Layer_3"
   display="none"
   transform="translate(-5.055,-3.334)">
</g>
<g
   id="g74"
   transform="translate(-5.055,-3.334)">
	<path
   d="m 155.057,60.769 c 0,0 -1.33,-7.441 -4.937,-15.715 -3.754,-8.608 -9.705,-14.684 -9.705,-14.684 0,0 -14.007,5.968 -25.277,17.872 l -2.009,-1.339 c 5.525,-7.046 10.685,-11.4 13.447,-13.478 l 3.512,-2.641 -2.54,-3.585 C 116.969,12.254 99.215,3.334 80.056,3.334 c -19.158,0 -36.912,8.92 -47.492,23.864 l -2.539,3.585 3.511,2.641 c 2.762,2.077 7.922,6.432 13.446,13.478 l -2.009,1.339 C 33.705,36.337 19.696,30.369 19.696,30.369 c 0,0 -5.951,6.076 -9.704,14.684 -3.606,8.274 -4.937,15.715 -4.937,15.715 0,0 6.605,-0.408 12.947,0.826 -7.346,9.883 -7.664,23.719 -7.664,23.719 0,0 9.339,-1.589 16.02,-1.589 23.238,0 38.671,11.04 42.405,13.876 6.268,4.761 11.292,13.099 11.292,13.099 0,0 5.024,-8.338 11.293,-13.099 3.734,-2.836 19.168,-13.876 42.406,-13.876 6.68,0 16.019,1.589 16.019,1.589 0,0 -0.318,-13.836 -7.664,-23.719 6.341,-1.234 12.948,-0.825 12.948,-0.825 z"
   id="path1" />
	<linearGradient
   id="SVGID_1_"
   gradientUnits="userSpaceOnUse"
   x1="80.056198"
   y1="76.564499"
   x2="80.056198"
   y2="35.992699">
		<stop
   offset="0"
   style="stop-color:#B7D1E1"
   id="stop1" />
		<stop
   offset="0.1592"
   style="stop-color:#A9C1CF"
   id="stop2" />
		<stop
   offset="0.25"
   style="stop-color:#A0B6C2"
   id="stop3" />
		<stop
   offset="0.5"
   style="stop-color:#A0B6C2"
   id="stop4" />
		<stop
   offset="0.5522"
   style="stop-color:#99ADB9"
   id="stop5" />
		<stop
   offset="0.6373"
   style="stop-color:#8496A1"
   id="stop6" />
		<stop
   offset="0.7442"
   style="stop-color:#647079"
   id="stop7" />
		<stop
   offset="0.75"
   style="stop-color:#626E77"
   id="stop8" />
		<stop
   offset="1"
   style="stop-color:#626E77"
   id="stop9" />
	</linearGradient>
	<path
   fill="url(#SVGID_1_)"
   d="M 42.726,52.464 59.578,76.565 C 56.245,73.805 46.969,66.544 35.277,61.947 20.581,56.17 10.783,56.248 10.783,56.248 c 2.826,-11.682 10.08,-20.255 10.08,-20.255 0,0 10.888,5.388 21.863,16.471 z M 139.25,35.992 c 0,0 7.254,8.573 10.079,20.255 0,0 -9.797,-0.078 -24.492,5.699 -11.693,4.597 -20.968,11.858 -24.302,14.618 L 117.386,52.463 C 128.361,41.381 139.25,35.992 139.25,35.992 Z"
   id="path9"
   style="fill:url(#SVGID_1_)" />
	<linearGradient
   id="SVGID_2_"
   gradientUnits="userSpaceOnUse"
   x1="15.5557"
   y1="77.171898"
   x2="71.828598"
   y2="77.171898">
		<stop
   offset="0"
   style="stop-color:#626E77"
   id="stop10" />
		<stop
   offset="0.0522"
   style="stop-color:#697780"
   id="stop11" />
		<stop
   offset="0.1373"
   style="stop-color:#7D8E98"
   id="stop12" />
		<stop
   offset="0.2442"
   style="stop-color:#9EB4C0"
   id="stop13" />
		<stop
   offset="0.25"
   style="stop-color:#A0B6C2"
   id="stop14" />
		<stop
   offset="0.2534"
   style="stop-color:#A1B7C3"
   id="stop15" />
		<stop
   offset="0.3247"
   style="stop-color:#ADC6D4"
   id="stop16" />
		<stop
   offset="0.4027"
   style="stop-color:#B5CEDE"
   id="stop17" />
		<stop
   offset="0.5"
   style="stop-color:#B7D1E1"
   id="stop18" />
		<stop
   offset="0.5973"
   style="stop-color:#B5CEDE"
   id="stop19" />
		<stop
   offset="0.6753"
   style="stop-color:#ADC6D4"
   id="stop20" />
		<stop
   offset="0.7466"
   style="stop-color:#A1B7C3"
   id="stop21" />
		<stop
   offset="0.75"
   style="stop-color:#A0B6C2"
   id="stop22" />
		<stop
   offset="0.8079"
   style="stop-color:#8B9DA8"
   id="stop23" />
		<stop
   offset="0.8827"
   style="stop-color:#74838D"
   id="stop24" />
		<stop
   offset="0.9492"
   style="stop-color:#67747D"
   id="stop25" />
		<stop
   offset="1"
   style="stop-color:#626E77"
   id="stop26" />
	</linearGradient>
	<path
   fill="url(#SVGID_2_)"
   d="m 52.144,72.821 c -4.58,-3.196 -10.601,-6.792 -17.419,-9.472 -3.628,-1.427 -6.947,-2.487 -9.886,-3.28 -7.968,9.089 -9.283,19.761 -9.283,19.761 0,0 3.517,-0.629 10.803,-0.629 29.204,0 45.47,15.074 45.47,15.074 0,0 -6.784,-12.451 -19.685,-21.454 z"
   id="path26"
   style="fill:url(#SVGID_2_)" />
	<linearGradient
   id="SVGID_3_"
   gradientUnits="userSpaceOnUse"
   x1="88.284203"
   y1="77.171898"
   x2="144.55659"
   y2="77.171898">
		<stop
   offset="0"
   style="stop-color:#626E77"
   id="stop27" />
		<stop
   offset="0.0522"
   style="stop-color:#697780"
   id="stop28" />
		<stop
   offset="0.1373"
   style="stop-color:#7D8E98"
   id="stop29" />
		<stop
   offset="0.2442"
   style="stop-color:#9EB4C0"
   id="stop30" />
		<stop
   offset="0.25"
   style="stop-color:#A0B6C2"
   id="stop31" />
		<stop
   offset="0.2534"
   style="stop-color:#A1B7C3"
   id="stop32" />
		<stop
   offset="0.3247"
   style="stop-color:#ADC6D4"
   id="stop33" />
		<stop
   offset="0.4027"
   style="stop-color:#B5CEDE"
   id="stop34" />
		<stop
   offset="0.5"
   style="stop-color:#B7D1E1"
   id="stop35" />
		<stop
   offset="0.5973"
   style="stop-color:#B5CEDE"
   id="stop36" />
		<stop
   offset="0.6753"
   style="stop-color:#ADC6D4"
   id="stop37" />
		<stop
   offset="0.7466"
   style="stop-color:#A1B7C3"
   id="stop38" />
		<stop
   offset="0.75"
   style="stop-color:#A0B6C2"
   id="stop39" />
		<stop
   offset="0.8079"
   style="stop-color:#8B9DA8"
   id="stop40" />
		<stop
   offset="0.8827"
   style="stop-color:#74838D"
   id="stop41" />
		<stop
   offset="0.9492"
   style="stop-color:#67747D"
   id="stop42" />
		<stop
   offset="1"
   style="stop-color:#626E77"
   id="stop43" />
	</linearGradient>
	<path
   fill="url(#SVGID_3_)"
   d="m 88.284,94.275 c 0,0 16.267,-15.074 45.471,-15.074 7.285,0 10.802,0.629 10.802,0.629 0,0 -1.314,-10.672 -9.283,-19.761 -2.938,0.793 -6.258,1.854 -9.886,3.28 -6.819,2.68 -12.84,6.275 -17.419,9.472 -12.904,9.003 -19.685,21.454 -19.685,21.454 z"
   id="path43"
   style="fill:url(#SVGID_3_)" />
	<linearGradient
   id="SVGID_4_"
   gradientUnits="userSpaceOnUse"
   x1="36.254902"
   y1="27.023899"
   x2="123.8574"
   y2="27.023899">
		<stop
   offset="0"
   style="stop-color:#626E77"
   id="stop44" />
		<stop
   offset="0.0791"
   style="stop-color:#65727B"
   id="stop45" />
		<stop
   offset="0.1611"
   style="stop-color:#707E88"
   id="stop46" />
		<stop
   offset="0.2444"
   style="stop-color:#81929C"
   id="stop47" />
		<stop
   offset="0.3281"
   style="stop-color:#99ADB9"
   id="stop48" />
		<stop
   offset="0.35"
   style="stop-color:#A0B6C2"
   id="stop49" />
		<stop
   offset="0.3783"
   style="stop-color:#A7BECB"
   id="stop50" />
		<stop
   offset="0.4472"
   style="stop-color:#B3CCDB"
   id="stop51" />
		<stop
   offset="0.5"
   style="stop-color:#B7D1E1"
   id="stop52" />
		<stop
   offset="0.5528"
   style="stop-color:#B3CCDB"
   id="stop53" />
		<stop
   offset="0.6217"
   style="stop-color:#A7BECB"
   id="stop54" />
		<stop
   offset="0.65"
   style="stop-color:#A0B6C2"
   id="stop55" />
		<stop
   offset="0.7311"
   style="stop-color:#8B9DA8"
   id="stop56" />
		<stop
   offset="0.8358"
   style="stop-color:#74838D"
   id="stop57" />
		<stop
   offset="0.9289"
   style="stop-color:#67747D"
   id="stop58" />
		<stop
   offset="1"
   style="stop-color:#626E77"
   id="stop59" />
	</linearGradient>
	<path
   fill="url(#SVGID_4_)"
   d="m 66.435,9.521 c 4.344,-1.083 8.909,-1.664 13.621,-1.664 4.712,0 9.277,0.581 13.62,1.664 -2.184,5.067 -5.01,14.531 -2.266,25.611 L 80.056,27.559 68.702,35.132 C 71.445,24.052 68.619,14.588 66.435,9.521 Z m -1.829,0.492 c -11.751,3.363 -21.739,10.458 -28.351,19.799 3.378,2.541 9.521,7.801 15.866,16.379 L 66.304,36.732 C 69.918,25.052 66.82,15.024 64.606,10.013 Z m 29.202,26.718 14.184,9.459 c 6.345,-8.579 12.488,-13.839 15.866,-16.379 -6.612,-9.341 -16.6,-16.436 -28.352,-19.799 -2.214,5.01 -5.313,15.04 -1.698,26.719 z"
   id="path59"
   style="fill:url(#SVGID_4_)" />
	<g
   id="g73">
		<linearGradient
   id="SVGID_5_"
   gradientUnits="userSpaceOnUse"
   x1="45.638699"
   y1="59.894501"
   x2="114.4736"
   y2="59.894501">
			<stop
   offset="0"
   style="stop-color:#B7D1E1"
   id="stop60" />
			<stop
   offset="0.0486"
   style="stop-color:#B0C9D8"
   id="stop61" />
			<stop
   offset="0.1277"
   style="stop-color:#9CB2C0"
   id="stop62" />
			<stop
   offset="0.2271"
   style="stop-color:#7D8D98"
   id="stop63" />
			<stop
   offset="0.3"
   style="stop-color:#626E77"
   id="stop64" />
			<stop
   offset="0.3179"
   style="stop-color:#626E77"
   id="stop65" />
			<stop
   offset="0.5"
   style="stop-color:#626E77"
   id="stop66" />
			<stop
   offset="0.6821"
   style="stop-color:#626E77"
   id="stop67" />
			<stop
   offset="0.7"
   style="stop-color:#626E77"
   id="stop68" />
			<stop
   offset="0.7353"
   style="stop-color:#72808A"
   id="stop69" />
			<stop
   offset="0.8137"
   style="stop-color:#90A3B0"
   id="stop70" />
			<stop
   offset="0.8865"
   style="stop-color:#A5BCCB"
   id="stop71" />
			<stop
   offset="0.9508"
   style="stop-color:#B2CCDB"
   id="stop72" />
			<stop
   offset="1"
   style="stop-color:#B7D1E1"
   id="stop73" />
		</linearGradient>
		<path
   fill="url(#SVGID_5_)"
   d="M 96.668,78.43 V 41.358 l 17.806,11.874 z M 45.639,53.232 63.444,78.43 V 41.358 Z"
   id="path73"
   style="fill:url(#SVGID_5_)" />
		<polygon
   fill="#b7d1e1"
   points="64.952,80.563 80.056,101.938 95.16,80.563 95.16,40.351 80.056,30.278 64.952,40.351 "
   id="polygon73" />
	</g>
</g>
</svg>
