<?xml version="1.0" encoding="UTF-8" standalone="no"?>
<!-- Generator: Adobe Illustrator 15.1.0, SVG Export Plug-In . SVG Version: 6.00 Build 0)  -->

<svg
   version="1.1"
   id="Layer_1"
   x="0px"
   y="0px"
   width="150.00101"
   height="101.858"
   viewBox="0 0 150.00101 101.858"
   enable-background="new 0 0 160 115"
   xml:space="preserve"
   xmlns="http://www.w3.org/2000/svg"
   xmlns:svg="http://www.w3.org/2000/svg"><defs
   id="defs1" />
<g
   id="Layer_1_1_"
   transform="translate(-5.167,-6.114)">
</g>
<g
   id="Layer_3"
   display="none"
   transform="translate(-5.167,-6.114)">
</g>
<path
   d="M 34.584,48.294 52.829,74.387 C 49.219,71.4 39.177,63.537 26.518,58.561 10.607,52.306 0,52.39 0,52.39 3.06,39.742 10.913,30.461 10.913,30.461 c 0,0 11.789,5.835 23.671,17.833 z M 139.088,30.461 c 0,0 7.854,9.281 10.913,21.929 0,0 -10.607,-0.084 -26.518,6.171 -12.66,4.977 -22.701,12.839 -26.312,15.826 L 115.415,48.294 C 127.3,36.296 139.088,30.461 139.088,30.461 Z M 44.781,70.335 C 39.823,66.873 33.304,62.981 25.921,60.079 21.993,58.534 18.4,57.387 15.219,56.528 6.592,66.368 5.168,77.922 5.168,77.922 c 0,0 3.807,-0.68 11.695,-0.68 31.618,0 49.229,16.32 49.229,16.32 0,0 -7.343,-13.481 -21.311,-23.227 z m 39.128,23.228 c 0,0 17.61,-16.32 49.229,-16.32 7.887,0 11.694,0.68 11.694,0.68 0,0 -1.423,-11.554 -10.051,-21.394 -3.181,0.858 -6.774,2.006 -10.702,3.551 -7.383,2.901 -13.901,6.794 -18.859,10.256 C 91.251,80.081 83.909,93.563 83.909,93.563 Z M 60.253,1.801 C 64.956,0.629 69.899,0 75,0 80.101,0 85.044,0.629 89.746,1.801 87.383,7.287 84.322,17.533 87.293,29.53 L 75,21.331 62.707,29.53 C 65.677,17.533 62.619,7.287 60.253,1.801 Z m -1.98,0.533 C 45.55,5.974 34.736,13.656 27.578,23.769 c 3.658,2.75 10.309,8.446 17.178,17.734 L 60.112,31.261 C 64.024,18.616 60.671,7.76 58.273,2.334 Z m 31.616,28.927 15.356,10.242 C 112.114,32.215 118.766,26.52 122.423,23.769 115.265,13.656 104.451,5.974 91.728,2.334 89.33,7.758 85.976,18.616 89.889,31.261 Z m 3.096,45.146 V 36.271 l 19.278,12.855 z M 37.738,49.126 57.016,76.406 V 36.271 Z M 75,24.274 58.648,35.18 V 78.716 L 75,101.858 91.354,78.716 V 35.18 Z"
   id="path1" />
</svg>
