<svg xmlns="http://www.w3.org/2000/svg" xml:space="preserve" width="299.901" height="160" viewBox="0 0 299.901 160"><path d="M280 160H19.3S-.1 120.4 0 80C0 39.6 19.3 0 19.3 0H280s20 39.8 19.9 80c.1 40.2-19.9 80-19.9 80" style="fill:#fff"/><path d="m189.3 117.7-3.8-2.6c-2.6-1.7-5-3.3-6.6-5-2.7-3-3-5.7-3.9-9.5-2.1-9-13.9-34.7-18.1-41.8-5.1-8.9-7.6-19.4-5.1-25.9l.3-1.6-6.2-3.6c-6.8 3-20.9 2.3-28-.6l-5.2 8.1c2.7 1.3 15.2 6.5 13.5 9.9-4 7.6-6.7 10.3-7.8 11.3-2.1 1.9-2.2 4.5-.1 7.1l3.5 3.9c2.3 2.3 4.2 2 6.5.4.9-.4 2.1-1 3.3 1.6 5.2 10.8 13 25 16 36.3 2 7.5-8 13.6-12.6 17.6l6.5 7c12.8-10.2 35.4-6.6 48.8-2.2l2.7-6.5c-1-1.5-2.1-2.8-3.7-3.9"/><path d="M274.2 9.6H25.9C15.3 34.1 9.7 53 9.7 80s5.6 45.8 16.2 70.4h248.3c10.6-24.5 16.2-43.4 16.2-70.4s-5.6-45.9-16.2-70.4m-6.1 131.5H32c-1.9-4.5-3.6-8.9-5.1-13.3 8.6-4.5 19.1-4.8 28.5-3.4v-7l-2.2-.9c-.6-.3-1.5-.9-2.6-1.9-6.4-5.8 4.8-27.5 7.8-34.2 1.5-3.9-.1-5.6-2.5-6.7l-5-2.2c-2.2-1.3-5-1.3-6.2 2-3.9 7.4-6.1 15.5-8.9 23.4-3.2 8.5-5.8 15.6-11.9 21.5-3.3-12.1-5-24.2-5-38.5 0-22.9 4.3-40.4 13-61.1H268c8.7 20.7 13 38.1 13.1 61.1 0 23.1-4.3 40.5-13 61.2"/><path d="M117.6 76.7c1.6-2 2.6-4.5.1-7l-3.9-4.4c-2-1.9-4.7-1.8-6.8.2l-1.7 1.4C98.6 62 95.2 54.1 90.8 47.2c-3.4-5.1-8.2-10.1-8.4-16.4l-33.5-.9-2.7 3.5-1.9 2.5c-.8 1.1.3 3.2 2.3 3.6l2.6.5c2.2.5 4.2 1.1 5.2 1.8 2.3 1.5-3.2 14.7-4.1 17.1-2.2 3.9-.7 5.7 2.2 7.2l5.1 2.4c3.2 1.4 5.4.5 6.6-2.6l1.1-2.5c.5-.9 1-1.7 1.4-2.2l1.6-.5c11.2 6.3 29.5 53 27 68.9l-.7 2.6 8.8 4.9c3.5-7.6 12.5-16.3 20.8-17.8-1.1-5.4-2.5-10.5-4.4-15.6-2.8-8-8.2-19.3-2.2-27M210 91.9c-.2-1.3-.4-2.9-.4-4.6V28.4H207l-.3.3c-6.4 5.8-17.6 11.8-24.2 13.4l-.8.2v3.1h11v52.8l-11 4v2.9h38.9v-3l-.9-.2c-5.6-1.4-8.6-4.1-9.7-10m58.9-14.8c-2.1-12-12.9-22.6-34-23.2l1.1-11.3h29.3V24.2h-2.1l-.3.5-3.3 4.8h-31l-.1 1-4.2 38.2h1.2c21.3 0 29.1 8.6 30.4 15.5l.2 2c-.1 6.3-3.1 10.1-8.8 11.2-.9.2-1.8.2-2.8.2-6.3-.1-10.7-3.7-11.7-9.5-.1-.8-.2-1.7-.2-2.5v-.8l-.8-.2-1.1-.3-.5.7-7.9 11.8-.5.8.6.6c5 5 12.2 8.1 20.2 8.1 2.3 0 4.4-.2 6.4-.5 13.5-2.3 20.3-12.5 20.2-23.8.1-1.9 0-3.4-.3-4.9"/></svg>