<svg xmlns="http://www.w3.org/2000/svg" xml:space="preserve" width="300" height="160" viewBox="0 0 300 160"><linearGradient id="a" x1="2.328" x2="297.599" y1="105.644" y2="54.289" gradientUnits="userSpaceOnUse"><stop offset="0" style="stop-color:#bf331c"/><stop offset=".5" style="stop-color:#f6b91d"/><stop offset="1" style="stop-color:#bf331c"/></linearGradient><path d="M149.8 0H19.4S0 39.6 0 80s19.4 80 19.4 80h260.7s20-39.8 19.9-80c0-40.3-19.9-80-19.9-80Z" style="fill:url(#a)"/><path d="M185.8 114c-2.5-1.7-4.8-3.2-6.3-4.8-2.7-2.9-2.9-5.5-3.7-9.2-2.1-8.8-13.5-33.6-17.4-40.4-4.9-8.6-7.4-18.7-4.9-25l.4-1.6-6.1-3.5c-6.5 2.9-20.3 2.3-27-.5l-5.1 7.8c2.6 1.3 14.7 6.3 13 9.6-3.8 7.3-6.4 9.9-7.5 10.9-2 1.8-2.2 4.3-.1 6.8l3.5 3.8c2.1 2.2 4 1.9 6.3.4.9-.4 2-.9 3.2 1.5 5 10.5 12.6 24.1 15.4 35.1 2 7.2-7.8 13.2-12.1 16.9l6.3 6.8c12.3-9.9 34.2-6.4 47.2-2.2l2.6-6.3c-1.2-1.5-2.3-2.6-3.8-3.8zm-65.6-37.1c1.6-1.9 2.5-4.4.2-6.8l-3.8-4.2c-1.9-1.8-4.5-1.7-6.6.2l-1.7 1.3c-6.5-4.7-9.8-12.3-14.1-19-3.2-4.9-7.8-9.8-8.1-15.9l-32.4-.9L51 35l-1.8 2.5c-.7 1 .3 3.1 2.3 3.4l2.5.5c2.1.5 4.1 1.1 5.1 1.7 2.3 1.5-3.1 14.2-3.9 16.5-2.2 3.8-.7 5.6 2.1 7l4.9 2.3c3.1 1.3 5.3.5 6.4-2.5l1.1-2.5c.5-.9.9-1.6 1.3-2.1l1.5-.5c10.8 6.1 28.5 51.2 26.1 66.6l-.6 2.5 8.5 4.8c3.4-7.3 12.1-15.7 20.2-17.2-1-5.2-2.5-10.1-4.3-15.1-2.9-7.6-8-18.5-2.2-26"/><path d="M290.4 80c0-27-5.6-45.9-16.2-70.3H26C15.4 34.2 9.8 53 9.8 80s5.6 45.8 16.2 70.4h248.2c10.6-24.6 16.2-43.5 16.2-70.4m-22.3 61.1H32c-1.9-4.6-3.6-9-5.1-13.3 8.6-4.5 19.1-4.8 28.5-3.4v-7l-2.1-.9c-.6-.3-1.4-.9-2.6-1.9-6.5-5.8 4.9-27.5 7.9-34.2 1.4-3.8-.1-5.6-2.5-6.7l-4.9-2.3c-2.2-1.2-5.1-1.3-6.2 2.1-4 7.5-6.2 15.5-9.1 23.4-3.2 8.6-5.7 15.6-11.9 21.6-3.3-12.1-5-24.2-5-38.5 0-22.9 4.3-40.4 13-61.1h236.1c8.7 20.7 13 38.1 13.1 61.1-.1 23-4.4 40.4-13.1 61.1"/><path d="m220.7 102-.9-.2c-3.5-.8-5.9-2.1-7.6-4.3-1.6-2.2-2.6-5.5-2.6-10.1v-59H207l-.3.3c-6.4 5.8-17.6 11.8-24.2 13.4l-.8.2v3h11v52.8l-11.1 4v3h38.9V104Zm22.4-47.3c-2.5-.4-5.3-.7-8.2-.8l1.1-11.2h29.3V24.2h-2.1l-.3.5-3.3 4.7h-31.1l-.1 1-4.2 38.2h1.2c4 0 7.6.3 10.7.9 15 2.7 19.8 10.6 19.8 16.7 0 .9-.1 1.8-.2 2.6-1 5.5-4.8 8.6-11.5 8.7-.9 0-1.7-.1-2.5-.2-5.7-1-9.4-5.4-9.4-11.7v-.8l-.8-.2-1.1-.3-.5.7-7.9 11.7-.5.8.6.6c3.8 3.9 9 6.6 14.8 7.6 1.8.3 3.6.5 5.4.5 15.4.1 24.4-8.6 26.3-19.6.3-1.6.4-3.2.4-4.8.4-12.1-7.8-24-25.9-27.1"/></svg>