<svg xmlns="http://www.w3.org/2000/svg" xml:space="preserve" width="237.094" height="175.002" viewBox="17.138 -0.294 237.094 175.002"><g transform="translate(-7.403 -3.617)"><path d="M81.96 175.309a5.074 5.074 0 0 1-4.868-5.079l-.065-.002c-31.438-1.285-53.496-20.781-52.45-46.353 1.396-34.139 40.732-71.285 97.881-92.438a5.1 5.1 0 0 1 1.969-.311l.938-22.936a5.075 5.075 0 0 1 5.28-4.863l73.573 3.009a5.076 5.076 0 0 1 4.867 5.078l.063.003c31.438 1.286 53.498 20.78 52.452 46.354-1.396 34.139-40.732 71.285-97.884 92.436a5 5 0 0 1-1.969.311l-.938 22.937a5.07 5.07 0 0 1-5.275 4.865zm82.207-80.133c12.847.407 23.866-13.669 24.594-31.48.697-17.033-8.739-31.694-20.964-33.306-13.761-1.814-25.195 14.649-25.882 31.39l18.354.75a5.074 5.074 0 0 1 4.864 5.279l-1.121 27.35zm-42.158-8.706c-12.85-.409-23.867 13.666-24.595 31.477-.697 17.035 8.741 31.696 20.963 33.31 13.762 1.813 25.2-14.652 25.883-31.392l-18.354-.749a5.08 5.08 0 0 1-4.864-5.28l1.119-27.349q-.078-.01-.152-.017"/><linearGradient id="a" x1="59.282" x2="226.893" y1="51.745" y2="129.903" gradientUnits="userSpaceOnUse"><stop offset="0" style="stop-color:#bf331c"/><stop offset=".25" style="stop-color:#d3641c"/><stop offset=".5" style="stop-color:#f4a51f"/><stop offset=".75" style="stop-color:#d3641c"/><stop offset="1" style="stop-color:#bf331c"/></linearGradient><path fill="url(#a)" d="m128.275 61.222 2.16-52.822 73.572 3.009c-41.595.206-56.932 23.075-56.932 23.075l.014-.004c-5.885 6.624-9.855 17.573-10.245 27.094zm71.968 55.854 3.45-84.354c3.792-1.425 8.008-2.14 12.426-1.958 15.654.64 27.893 12.275 27.332 25.987-.335 8.206-5.165 15.317-12.37 19.528-.748.439-2.003.21-2.334-.663-.359-.94.447-2.318 1.24-2.957 2.189-1.762 8.039-7.438 8.395-16.116.435-10.653-9.637-20.183-22.47-20.708a27 27 0 0 0-7.292.685l-3.304 80.767a5.08 5.08 0 0 1-5.278 4.862l-37.066-1.518-1.014 24.817c53.288-19.722 93.208-54.604 94.57-87.883.88-21.536-17.767-39.854-47.585-41.075-24.828-1.015-40.597 8.856-40.597 8.856 14.984 1.628 26.305 18.53 25.487 38.559-.846 20.68-14.317 36.979-30.028 36.337 0 0-3.416-.355-5.045-.813l1.301-31.826-74.127-3.033-3.452 84.358c-3.791 1.424-8.007 2.138-12.423 1.957-15.656-.64-27.893-12.275-27.333-25.988.335-8.203 5.167-15.316 12.37-19.527.749-.438 2.003-.21 2.335.663.358.94-.448 2.317-1.241 2.957-2.191 1.762-8.039 7.438-8.393 16.115-.437 10.652 9.634 20.182 22.469 20.706a27 27 0 0 0 7.294-.684l3.303-80.765a5.074 5.074 0 0 1 5.277-4.864l37.064 1.517 1.015-24.817C70.933 55.92 31.01 90.801 29.648 124.081c-.882 21.538 17.766 39.858 47.586 41.077 24.827 1.017 40.595-8.856 40.595-8.856-14.987-1.627-26.306-18.53-25.487-38.558.845-20.681 14.315-36.981 30.028-36.339 0 0 3.413.355 5.045.815l-1.304 31.826zm-50.911 2.999c-.39 9.521-4.359 20.469-10.245 27.094l.014-.005s-15.336 22.868-56.932 23.073l73.573 3.013 2.16-52.824z" style="fill:url(#a)"/></g></svg>