<svg xmlns="http://www.w3.org/2000/svg" width="600" height="616.871"><path d="M346.45 0H231.08s-44.816 75.736-54.87 92.777c-20.126.293-116.034 1.681-116.034 1.681L0 210.184s41.685 81.565 50.182 98.082C41.685 324.83 0 406.395 0 406.395L60.176 522.12s94.89 1.388 113.982 1.681c10.595 15.792 62.104 93.07 62.104 93.07l130.005-.061 8.79-14.636c14.574-24.212 36.874-61.209 47.176-78.373 20.11-.23 117.591-1.681 117.591-1.681l60.114-115.725s-41.623-81.566-50.12-98.129C558.315 291.75 600 210.184 600 210.184L539.824 94.52s-96.263-1.45-115.37-1.743C413.859 76.94 362.705 0 362.705 0h-12.168z" style="fill:#fff"/><path d="m321.93 431.27-20.126-94.643h-10.116l-16.394 97.11c6.339 58.017 16.394 75.722 16.394 75.722h10.116c12.6-34.082 20.126-78.189 20.126-78.189m100.781-80.594-92.052-29.764-4.997 8.729 75.906 62.72c53.436 23.55 73.731 23.61 73.731 23.61l5.059-8.79c-23.195-27.898-57.647-56.505-57.647-56.505m-303.917 56.505 4.997 8.79s20.372-.123 73.793-23.61l75.906-62.72-4.997-8.73-92.052 29.765s-34.453 28.607-57.647 56.505M480.358 209.83l-5.059-8.744s-20.295.061-73.731 23.564l-75.906 62.705 4.997 8.79 92.052-29.81s34.452-28.623 57.647-56.505M176.44 266.334l92.052 29.81 4.997-8.79-75.906-62.705c-53.421-23.503-73.793-23.564-73.793-23.564l-4.997 8.744c23.194 27.882 57.647 56.505 57.647 56.505m119.04-160.54h10.055s10.133 17.642 16.394 75.72l-16.394 97.111h-10.055l-20.187-94.581s7.603-44.153 20.187-78.25m-40.358 281.925v44.153l-29.04 67.47 15.175 22.716 22.655-46.681s7.588 54.269 24.043 74.456h22.654s21.436-37.891 25.23-75.721l22.717 46.682 13.848-23.981-25.23-64.34v-42.888l37.892 23.981 43.844 53.375 27.651-.432-29.64-42.58c34.883 15.176 78.373 14.929 78.373 14.929l11.088-19.817c-9.639-24.15-53.251-57.23-53.251-57.23l51.817 3.022-12.415-24.35-71.449-6.678-35.362-27.405 35.362-23.626 71.45-6.678 12.414-24.29-51.817 2.962s43.612-33.08 53.251-57.23l-11.088-19.817s-43.49-.247-78.374 14.943l29.641-42.595-27.651-.431-43.844 53.436-41.038 26.325-.6-46.62 28.977-65.604-15.113-22.717-22.717 46.636s-7.587-54.223-23.965-74.395h-22.655s-21.513 37.83-25.307 75.721l-22.655-46.697-13.91 23.98 25.245 64.34 4.396 47.885-40.79-28.854-43.783-53.436-27.713.431 29.64 42.595c-34.884-15.19-78.373-14.943-78.373-14.943l-11.088 19.817c9.638 24.15 53.19 57.23 53.19 57.23l-51.756-2.961 12.414 24.29 71.388 6.677 32.648 24.89-32.648 26.14-71.388 6.678-12.414 24.351 51.755-3.022s-43.55 33.08-53.19 57.23l11.089 19.817s43.49.247 78.373-14.929l-29.64 42.58 27.713.432 43.782-53.375zM346.45 22.716h4.087s57.477 86.44 61.58 92.593c7.402.123 113.843 1.742 113.843 1.742l48.502 93.194s-46.806 91.636-50.121 98.021c3.315 6.446 50.12 98.067 50.12 98.067L525.96 499.59s-108.785 1.619-116.805 1.742c-.417.786-1.017 1.805-1.017 1.805-1.866 3.254-47.36 78.743-52.542 87.287l-2.221 3.686-105.007.062s-57.832-86.748-61.919-92.963c-7.417-.062-112.409-1.62-112.409-1.62l-48.502-93.255s46.806-91.62 50.121-98.067c-3.315-6.385-50.12-98.02-50.12-98.02L74.04 116.99s107.351-1.558 115.232-1.681c3.978-6.755 54.762-92.593 54.762-92.593h4.334z"/></svg>