<svg xmlns="http://www.w3.org/2000/svg" width="600" height="616.871"><radialGradient id="a" cx="0" cy="0" r="1" fx="0" fy="0" gradientTransform="matrix(17.7411 0 0 -17.7411 135.124 483.722)" gradientUnits="userSpaceOnUse" spreadMethod="pad"><stop offset="0" style="stop-color:#bf99c3"/><stop offset=".663" style="stop-color:#7b5190"/><stop offset="1" style="stop-color:#612c75"/></radialGradient><path d="M346.45 0H231.08s-44.816 75.736-54.87 92.777c-20.188.294-116.034 1.681-116.034 1.681L0 210.184s41.685 81.565 50.182 98.082C41.685 324.83 0 406.395 0 406.395L60.176 522.12s94.89 1.388 113.982 1.681c10.595 15.792 62.104 93.07 62.104 93.07l129.944-.061 8.852-14.636a64042 64042 0 0 0 47.113-78.373c20.172-.232 117.653-1.681 117.653-1.681l60.114-115.725s-41.685-81.566-50.12-98.129C558.253 291.75 600 210.184 600 210.184L539.824 94.52s-96.263-1.45-115.37-1.743C413.859 76.94 362.705 0 362.705 0h-12.168z" style="fill:#fff"/><path d="m321.93 431.27-20.187-94.643h-10.055l-16.394 97.11c6.339 58.017 16.394 75.722 16.394 75.722h10.055c12.661-34.082 20.187-78.189 20.187-78.189m100.781-80.594-92.052-29.764-5.059 8.729 75.968 62.72c53.436 23.55 73.731 23.61 73.731 23.61l5.059-8.79c-23.195-27.898-57.647-56.505-57.647-56.505m-303.979 56.505 5.059 8.79s20.372-.123 73.793-23.61l75.906-62.72-5.058-8.73-91.991 29.765s-34.453 28.607-57.709 56.505M480.358 209.83l-5.059-8.744s-20.295.061-73.731 23.564L325.6 287.354l5.059 8.79 92.052-29.81s34.452-28.623 57.647-56.505M176.44 266.334l91.99 29.81 5.059-8.79-75.906-62.705c-53.421-23.503-73.793-23.564-73.793-23.564l-5.059 8.744c23.256 27.882 57.709 56.505 57.709 56.505m119.04-160.54h10.055s10.133 17.642 16.394 75.72l-16.394 97.111h-10.055l-20.187-94.581s7.603-44.153 20.187-78.25m-40.358 281.925v44.153l-29.04 67.47 15.175 22.716 22.655-46.681s7.588 54.269 24.043 74.456h22.639s21.451-37.891 25.245-75.721l22.717 46.682 13.848-23.981-25.23-64.34v-42.888l37.892 23.981 43.844 53.375 27.651-.432-29.64-42.58c34.883 15.176 78.388 14.929 78.388 14.929l11.073-19.817c-9.639-24.15-53.251-57.23-53.251-57.23l51.801 3.022-12.399-24.35-71.449-6.678-35.362-27.405 35.362-23.626 71.45-6.678 12.398-24.29-51.801 2.962s43.612-33.08 53.251-57.23L505.31 177.72s-43.505-.247-78.389 14.943l29.641-42.595-27.651-.431-43.844 53.436-41.038 26.325-.602-46.62 28.978-65.604-15.114-22.717-22.716 46.636s-7.587-54.223-23.98-74.395h-22.64s-21.513 37.83-25.307 75.721l-22.655-46.697-13.91 23.98 25.245 64.34 4.395 47.885-40.79-28.854-43.783-53.436-27.713.431 29.641 42.595c-34.884-15.19-78.389-14.943-78.389-14.943l-11.073 19.817c9.639 24.15 53.19 57.23 53.19 57.23l-51.74-2.961 12.4 24.29 71.387 6.677 32.647 24.89-32.647 26.14-71.388 6.678-12.399 24.351 51.74-3.022s-43.551 33.08-53.19 57.23l11.073 19.817s43.505.247 78.39-14.929l-29.642 42.58 27.713.432 43.783-53.375 40.189-25.847zM346.45 22.716h4.087s57.477 86.44 61.58 92.593c7.402.123 113.843 1.742 113.843 1.742l48.44 93.194s-46.744 91.636-50.121 98.021c3.377 6.446 50.12 98.067 50.12 98.067L525.96 499.59s-108.785 1.619-116.805 1.742a42 42 0 0 0-1.017 1.805c-1.866 3.254-47.36 78.743-52.542 87.287l-2.221 3.686-105.007.062s-57.832-86.748-61.919-92.963c-7.417-.062-112.409-1.62-112.409-1.62l-48.502-93.255s46.806-91.62 50.121-98.067c-3.315-6.385-50.12-98.02-50.12-98.02L74.04 116.99s107.351-1.558 115.232-1.681c3.978-6.755 54.762-92.593 54.762-92.593h4.334z" style="fill:#612c75"/><path d="M138.137 501.848h-6.41l-3.438-5.805-.117-.191-.223-.004a5289 5289 0 0 0-7.23-.106l-2.942-5.656 3.153-6.172.097-.18-.097-.183-3.153-6.176 2.942-5.652c1.207-.016 6.621-.094 7.047-.102h.211l.117-.18 3.898-5.847 6.367.004.028.047c.336.554 3.285 5.445 3.402 5.652l.066.113.114.203.23.004c.457.004 6.098.09 7.332.106l2.942 5.652c-.516 1.008-2.965 5.801-3.161 6.172l-.089.187.089.184c.196.371 2.645 5.164 3.161 6.168l-2.942 5.652c-1.219.02-6.715.102-7.14.106l-.211.004-.118.175c-.238.36-3.242 4.868-3.878 5.825zm-4.145-2.254.113.203h1.899l.121-.149c.715-.878 1.172-2.613 1.422-3.796l.933 1.921.305.625.387-.578.98-1.472.125-.184-.089-.199-1.844-4.176.023-2.215 2 1.285 2.809 3.414.121.149h.191l1.797-.031.75-.012-.43-.617-1.207-1.735c1.907.555 3.782.575 4.032.575h.242l.113-.207.723-1.286.09-.164-.067-.175c-.422-1.055-1.711-2.305-2.621-3.098l2.129.125.699.039-.316-.621-.809-1.578-.097-.196-.219-.019-4.535-.426-1.746-1.16 1.765-1.371 4.516-.422.219-.023.097-.196.809-1.574.316-.621-.699.039-2.129.125c.914-.797 2.199-2.043 2.621-3.094l.067-.179-.09-.165-.723-1.289-.113-.203h-.231c-.101 0-2.062-.004-4.046.575l1.21-1.739.43-.617-.75-.012-1.797-.023-.191-.004-.121.148-2.805 3.411-1.785 1.132v-1.98l1.605-4.102.075-.179-.098-.168-.898-1.551-.379-.649-.332.672-.922 1.903c-.473-2.012-1.426-3.719-1.477-3.805l-.113-.203h-1.899l-.117.148c-.719.875-1.176 2.614-1.422 3.801l-.933-1.926-.309-.625-.387.578-.98 1.473-.121.184.086.199 1.847 4.297v2.047l-1.933-1.243-2.805-3.414-.121-.148-.191.004-1.797.023-.75.012.43.617 1.207 1.742c-1.965-.57-3.934-.578-4.032-.578h-.242l-.113.203-.723 1.289-.09.165.071.179c.418 1.051 1.699 2.297 2.613 3.094l-2.125-.125-.699-.039.316.621.809 1.574.097.196.219.023 4.512.422 1.625 1.301-1.621 1.23-4.516.426-.219.019-.097.196-.809 1.578-.316.621.699-.039 2.129-.125c-.914.793-2.199 2.043-2.617 3.098l-.071.175.09.164.723 1.286.121.207h.234c.246 0 2.125-.02 4.032-.575l-1.207 1.739-.43.617.75.012 1.797.027h.191l.121-.149 2.809-3.425 1.89-1.34-.199 2.187-1.613 4.121-.07.18.093.168.903 1.555.375.648.332-.676.926-1.906c.468 2.016 1.425 3.723 1.472 3.809m1.121-3.133c-.668-1.902-1.101-4.211-1.183-4.66l1.222-5.727.993 5.887c-.297 2.727-.731 4.035-.915 4.5zm6.813-7.649-4.606-3.804 5.567 1.801c.343.293 2.133 1.824 3.449 3.351l-.063.102c-.492-.071-1.835-.348-4.347-1.45m-18.067 1.348c1.317-1.527 3.106-3.058 3.45-3.351l5.57-1.801-4.606 3.804c-2.515 1.102-3.863 1.379-4.355 1.45zm3.45-9.531c-.34-.289-2.133-1.824-3.45-3.352l.055-.101c.496.07 1.844.347 4.359 1.449l4.602 3.801zm14.617-2.004c2.512-1.102 3.855-1.383 4.347-1.449l.063.101c-1.32 1.532-3.106 3.063-3.449 3.352l-5.567 1.797zm-7.996-3.035c.297-2.727.73-4.035.914-4.5h.117c.668 1.902 1.098 4.211 1.18 4.664l-1.219 5.715z" style="fill:url(#a)" transform="matrix(15.42179 0 0 -15.42179 -1783.869 7768.308)"/></svg>