<svg xmlns="http://www.w3.org/2000/svg" xml:space="preserve" width="150" height="72.835" viewBox="0 0 150 72.835"><g transform="translate(-5.38 -2.726)"><path d="M143.461 13.919s2.354-3.815 2.387-3.876c.574-1.103 1.669-2.547 1.048-3.624-.541-.941-1.69-.889-2.935-.889H92.175c-3.206-1.842-7.214-2.804-11.795-2.804s-8.591.962-11.794 2.804H16.799c-1.244 0-2.396-.052-2.937.889-.621 1.077.476 2.521 1.049 3.624.031.061 2.387 3.876 2.387 3.876H5.38l3.533 5.482c.55.853 13.675 21.086 32.559 38.87l1.027.969h16.335a509 509 0 0 0 3.411 3.066l1.012.901s2.282 2 3.078 2.689c11.187 9.665 12.705 9.665 14.045 9.665s2.859 0 14.044-9.665c.798-.689 3.079-2.689 3.079-2.689l1.012-.901c1.079-.96 2.222-1.989 3.41-3.066h16.336l1.027-.969c18.884-17.783 32.009-38.017 32.559-38.87l3.533-5.482z"/><linearGradient id="a" x1="11.903" x2="148.857" y1="38.562" y2="38.562" gradientUnits="userSpaceOnUse"><stop offset="0" style="stop-color:#bb2c26"/><stop offset=".074" style="stop-color:#c43e25"/><stop offset=".222" style="stop-color:#db6e23"/><stop offset=".25" style="stop-color:#e07823"/><stop offset=".402" style="stop-color:#f18f1f"/><stop offset=".5" style="stop-color:#f7981d"/><stop offset=".598" style="stop-color:#f18f1f"/><stop offset=".75" style="stop-color:#e07823"/><stop offset=".778" style="stop-color:#db6e23"/><stop offset=".926" style="stop-color:#c43e25"/><stop offset="1" style="stop-color:#bb2c26"/></linearGradient><path fill="url(#a)" d="M143.709 24.862c3.299-4.519 5.148-7.388 5.148-7.388h-48.721q.208 1.435.208 2.964c0 3.614-.525 5.258-.991 6.707-.361 1.136-.651 2.034-.651 4.029 0 1.706.394 2.259.772 2.795.239.337.538.756.71 1.322.467 1.513.072 4.843-1.379 7.581-1.427 2.698-3.667 4.375-5.847 4.375h-.615v4.65c0 3.334-2.668 4.411-7.463 4.799-1.912.155-2.522.121-4.501.121s-2.588.034-4.501-.121c-4.794-.388-7.462-1.465-7.462-4.799v-4.65h-.615c-2.18 0-4.42-1.677-5.847-4.375-1.451-2.738-1.846-6.068-1.381-7.581.174-.565.471-.984.712-1.322.379-.536.772-1.089.772-2.795 0-1.996-.29-2.894-.651-4.029-.465-1.449-.991-3.093-.991-6.707q0-1.53.208-2.964h-48.72s1.849 2.87 5.146 7.388h15.955q1.23 1.474 2.435 2.887H19.191a251 251 0 0 0 5.778 7.386h16.946q1.345 1.492 2.633 2.888H27.354c2 2.387 4.164 4.87 6.464 7.385h17.754a266 266 0 0 0 2.875 2.888h-17.94a188 188 0 0 0 7.404 7.387h16.297a501 501 0 0 0 4.403 3.967h31.537a501 501 0 0 0 4.403-3.967h16.298a188 188 0 0 0 7.403-7.387h-17.94q1.353-1.337 2.875-2.888h17.754a227 227 0 0 0 6.464-7.385h-17.193q1.288-1.397 2.633-2.888h16.944a250 250 0 0 0 5.78-7.386h-16.248q1.204-1.412 2.436-2.887z" style="fill:url(#a)"/><path fill="#bb2c26" d="M68.661 63.207h23.438c-7.772 6.716-10.998 8.799-11.719 8.799s-3.946-2.083-11.719-8.799m70.556-49.288c2.09-3.119 2.983-4.834 2.983-4.834H96.466a15.7 15.7 0 0 1 2.792 4.834zM18.56 9.085s.893 1.715 2.981 4.834h39.961a15.7 15.7 0 0 1 2.792-4.834z"/><path fill="#fff" d="M96.993 41.913c-1.23 2.324-2.871 3.283-4.034 3.283-1.164 0-1.712-.615-2.189-.615-.479 0-1.573.615-1.573 2.188s1.095 1.641 1.095 2.804v2.325c0 .548-1.025 2.599-3.419 2.599v-.888c0-.378.273-.686.273-1.163 0-.479-.582-.855-.992-.855s-.993.342-.993 1.196c0 .548.445.924.207 1.47-.239.549-2.975.479-3.488.514-.514.035-.82-.307-.82-.854s.142-2.359-.679-2.359-.679 1.812-.679 2.359-.307.89-.82.854c-.513-.034-3.25.035-3.488-.514-.24-.546.205-.922.205-1.47 0-.854-.581-1.196-.991-1.196s-.992.376-.992.855c0 .478.274.785.274 1.163v.888c-2.394 0-3.421-2.051-3.421-2.599v-2.325c0-1.163 1.096-1.23 1.096-2.804s-1.096-2.188-1.574-2.188c-.479 0-1.025.615-2.188.615s-2.804-.959-4.035-3.283c-1.232-2.325-1.506-5.129-1.232-6.018s1.573-1.436 1.573-4.72c0-4.924-1.641-4.512-1.641-10.736 0-9.301 6.389-15.662 17.913-15.662s17.912 6.361 17.912 15.662c0 6.225-1.641 5.813-1.641 10.736 0 3.285 1.3 3.831 1.572 4.72.275.889 0 3.693-1.231 6.018M68.792 33.16c-1.403 0-2.564 1.88-2.564 3.11s.274 4.343 4.583 4.343c5.506 0 7.421-4.103 7.421-4.103-3.934-.785-8.037-3.35-9.44-3.35m13.737 3.35s1.914 4.103 7.419 4.103c4.31 0 4.584-3.112 4.584-4.343s-1.163-3.11-2.564-3.11c-1.404 0-5.508 2.565-9.439 3.35m-4.241 5.791c-.548 1.3-1.665 3.146-.455 3.146.842 0 1.475-1.437 2.547-1.437s1.704 1.437 2.547 1.437c1.21 0 .094-1.847-.455-3.146-.548-1.3-1.477-2.758-2.092-2.758s-1.544 1.458-2.092 2.758"/></g></svg>