<?xml version="1.0" encoding="UTF-8"?>
<svg id="Layer_2" data-name="Layer 2" xmlns="http://www.w3.org/2000/svg" viewBox="0 0 1068.23 381.47">
  <defs>
    <style>
      .cls-1, .cls-2 {
        stroke-width: 0px;
      }

      .cls-2 {
        fill: #fff;
      }
    </style>
  </defs>
  <g id="Layer_1-2" data-name="Layer 1">
    <g>
      <path class="cls-1" d="M952.02,370.47c-35.28,0-64.7-6.58-87.46-19.56-7.55-4.31-14.48-9.35-20.78-15.11v30.8h-155.35v-36.75l9.74-1.12c5.81-.67,10.22-2.15,12.42-4.17,1.07-.98,2.49-2.84,2.49-7.61,0-4.3-.51-9.24-1.51-14.67-1.06-5.77-2.86-13.26-5.34-22.26l-4.3-15.6h-86.95l-5.4,15.56c-2.13,6.09-3.89,12.03-5.25,17.68-1.24,5.17-1.87,10.77-1.87,16.64,0,8.48,2.43,13.55,14.86,14.39l10.26.69v37.23h-125.15v-35.13l9.82-1.06c3.31-.36,7.72-3.82,10.09-5.68,3.44-2.7,6.71-6.59,9.71-11.54,3.32-5.49,7-13.7,10.92-24.42l36.92-98.37c-9.6,11-21.68,19.81-36.07,26.3-19.38,8.74-43.66,13.17-72.16,13.17-10.29,0-19.46-.14-27.41-.42v65.76c0,12.36.56,18.03,1.03,20.62.68,3.73,1.66,5.55,2.19,6.31.8,1.15,2.13,2.2,3.96,3.14,1.4.71,4.93,2.12,12.98,3.55l9.07,1.61v36.16H197.01v-36.75l9.74-1.12c5.81-.67,10.22-2.15,12.41-4.17,1.07-.98,2.49-2.84,2.49-7.61,0-4.3-.51-9.24-1.51-14.67-1.06-5.78-2.86-13.27-5.34-22.26l-4.3-15.6h-86.95l-5.4,15.56c-2.13,6.08-3.89,12.02-5.25,17.68-1.24,5.17-1.87,10.77-1.87,16.64,0,8.48,2.43,13.55,14.86,14.39l10.26.69v37.23H11v-36.82l9.82-1.06c3.9-.42,7.21-1.73,10.09-3.99,3.44-2.7,6.71-6.59,9.7-11.54,3.32-5.48,6.99-13.7,10.92-24.42L154.97,13.17h80.35l82.04,278.44c4.19,14.29,6.84,21,8.32,24.11,1.67,3.5,3.69,6.22,6.19,8.32,1.93,1.37,3.23,2.23,4.75,2.87,1.62-.61,3.08-1.31,5-2.23,1.4-.78,2.32-1.7,2.96-2.95.72-1.41,1.67-4.04,2.1-8.59.45-4.71.67-10.82.67-18.16V86.74c0-7.24-.19-13.37-.57-18.23-.35-4.53-1.24-7.02-1.91-8.31-.72-1.38-1.84-2.48-3.52-3.45-1.78-1.04-5.25-2.62-11.64-4.31l-8.2-2.16V14.86s151.35,0,151.35,0c42.9,0,75.87,8.05,97.97,23.93,23.24,16.69,35.02,42.33,35.02,76.21,0,2.23-.05,4.43-.15,6.61l40.7-108.44h80.34l82.04,278.44c4.19,14.3,6.84,21,8.32,24.11,1.72,3.61,3.82,6.4,6.43,8.51,2.44,1.98,6.41,3.59,11.5,4.65l2.25.47c-10.04-10.78-18.17-23.66-24.31-38.53-10.57-25.62-15.93-58.2-15.93-96.84,0-36.37,6.31-68.6,18.75-95.77,12.71-27.76,31.75-49.5,56.58-64.61,24.67-15.01,54.39-22.62,88.33-22.62,16.68,0,32.04.93,45.67,2.75,13.66,1.83,28.06,4.86,42.82,9.01l8.02,2.25v89.39h-52.76l-1.85-8.71c-3.41-16.05-8.62-27.78-15.49-34.84-6.27-6.45-14.44-9.59-24.96-9.59-21.25,0-36.96,10.07-48.03,30.78-12.12,22.67-18.27,57.46-18.27,103.4,0,42.62,5.6,75.01,16.64,96.27,10.09,19.44,23.65,28.49,42.66,28.49,9.88,0,17.81-1.56,23.57-4.63,5.57-2.96,9.93-7.36,13.34-13.43,3.88-6.92,7.36-17.14,10.33-30.36l1.93-8.59h52.9v92.9l-8.47,2c-17.99,4.25-34.69,7.41-49.65,9.38-15.07,1.99-30.91,2.99-47.09,2.99ZM197.31,214.16l-25.25-88.86-31.57,88.86h56.82ZM688.74,214.16l-25.25-88.86-31.57,88.86h56.82ZM454.02,179.61c14.36,0,25.67-1.95,33.62-5.79,7.2-3.48,12.41-8.89,15.93-16.55,3.9-8.49,5.88-20.51,5.88-35.74s-1.97-26.96-5.86-35.36c-3.51-7.56-8.38-12.74-14.89-15.82-7.33-3.47-17.21-5.22-29.36-5.22-5.69,0-10.73.04-15.09.13v114.36h9.77Z"/>
      <path class="cls-2" d="M960.72,22c16.27,0,31,.89,44.21,2.66,13.21,1.77,26.98,4.67,41.31,8.7v70.05h-32.85c-3.87-18.2-9.99-31.61-18.36-40.22-8.37-8.61-19.32-12.92-32.85-12.92-25.45,0-44.69,12.2-57.73,36.6-13.05,24.4-19.57,60.59-19.57,108.58,0,44.61,5.96,78.39,17.88,101.34,11.92,22.95,29.39,34.42,52.42,34.42,11.76,0,21.34-1.97,28.75-5.92,7.41-3.95,13.33-9.86,17.76-17.75,4.43-7.89,8.25-19,11.47-33.34h33.09v73.19c-17.71,4.19-33.9,7.25-48.55,9.18-14.65,1.93-29.87,2.9-45.66,2.9-33.5,0-60.83-6.04-82.01-18.12-21.18-12.08-36.8-30.32-46.86-54.72-10.07-24.4-15.1-55.28-15.1-92.64,0-34.95,5.92-65.34,17.76-91.19,11.84-25.85,29.27-45.78,52.3-59.79,23.03-14.01,50.57-21.02,82.62-21.02h0M718.52,24.17l79.72,270.55c3.54,12.08,6.52,20.65,8.94,25.73,2.42,5.07,5.56,9.18,9.42,12.32,3.86,3.14,9.26,5.43,16.18,6.88v15.94h-133.35v-15.94c8.37-.97,14.58-3.3,18.6-7.01,4.03-3.7,6.04-8.94,6.04-15.7,0-4.99-.56-10.55-1.69-16.67-1.13-6.12-2.98-13.85-5.56-23.19l-6.52-23.67h-103.15l-7.97,22.95c-2.25,6.44-4.1,12.68-5.55,18.72-1.45,6.04-2.17,12.44-2.17,19.21,0,15.78,8.37,24.24,25.12,25.36v15.94h-103.15v-14.26c5.96-.64,11.19-4.42,15.7-7.97,4.51-3.54,8.62-8.38,12.32-14.49,3.7-6.12,7.65-14.9,11.84-26.33L654.02,24.17h64.5M616.34,225.16h86.96l-38.65-136-48.31,136M227.09,24.17l79.72,270.55c3.54,12.08,6.52,20.65,8.94,25.73,2.42,5.07,5.56,9.18,9.42,12.32,3.75,2.68,6.48,4.42,11.47,5.69,4.07-1.14,6.54-2.32,10.01-4,3.46-1.85,6.04-4.43,7.73-7.73,1.69-3.3,2.78-7.49,3.26-12.56.48-5.07.72-11.47.72-19.2V86.74c0-7.57-.2-13.93-.6-19.08-.4-5.15-1.45-9.34-3.14-12.56-1.69-3.22-4.27-5.84-7.73-7.85-3.46-2.01-8.25-3.83-14.37-5.44v-15.94s140.35,0,140.35,0c40.74,0,71.26,7.29,91.55,21.86,20.29,14.57,30.44,37,30.44,67.28,0,21.42-4.75,40.02-14.25,55.8-9.5,15.78-23.27,27.74-41.31,35.87-18.04,8.13-40.58,12.2-67.64,12.2-15.62,0-28.42-.32-38.41-.97v77.3c0,10.63.4,18.16,1.21,22.59.81,4.43,2.13,7.97,3.99,10.63,1.85,2.66,4.51,4.87,7.97,6.64,3.46,1.77,8.82,3.3,16.06,4.59v15.94h-254.47v-15.94c8.37-.97,14.57-3.3,18.6-7.01,4.03-3.7,6.04-8.94,6.04-15.7,0-4.99-.56-10.55-1.69-16.67-1.13-6.12-2.98-13.85-5.56-23.19l-6.52-23.67h-103.15l-7.97,22.95c-2.25,6.44-4.11,12.68-5.56,18.72-1.45,6.04-2.17,12.44-2.17,19.21,0,15.78,8.37,24.24,25.12,25.36v15.94H22v-15.94c5.96-.64,11.19-2.74,15.7-6.28,4.51-3.54,8.62-8.38,12.32-14.49,3.7-6.12,7.65-14.9,11.84-26.33L162.59,24.17h64.5M433.24,190.61h20.77c16.11,0,28.91-2.3,38.41-6.89,9.5-4.59,16.55-11.88,21.14-21.86,4.59-9.98,6.88-23.43,6.88-40.34s-2.29-30.08-6.88-39.98c-4.59-9.9-11.31-16.95-20.17-21.14-8.86-4.19-20.21-6.28-34.06-6.28-11.27,0-19.97.16-26.09.48v136M124.91,225.16h86.96l-38.65-136-48.31,136M960.72,0c-35.99,0-67.63,8.15-94.05,24.22-26.74,16.27-47.22,39.63-60.87,69.42-11.12,24.29-17.59,52.29-19.3,83.41l-46.88-159.1-4.65-15.78h-96.19l-5.36,14.27-22.38,59.63c-1.1-3.33-2.35-6.56-3.76-9.67-6.66-14.72-16.77-27.02-30.04-36.55-24.35-17.49-58.5-25.99-104.39-25.99h-162.35v22s0,15.94,0,15.94v16.96s16.4,4.32,16.4,4.32c4.79,1.26,7.28,2.33,8.41,2.91.16.64.37,1.73.5,3.38.36,4.56.54,10.4.54,17.37v208.23c0,6.63-.19,12.14-.56,16.41-.06-.13-.13-.26-.19-.39-1.07-2.25-3.5-8.16-7.69-22.46L248.19,17.96l-4.65-15.78h-96.19l-5.36,14.27L41.26,284.82l-.03.08-.03.08c-4.58,12.52-7.97,19.15-10,22.5-2.31,3.81-4.7,6.7-7.09,8.59-1.26.99-2.6,1.5-4.47,1.7l-19.64,2.12v57.69h147.15v-58.51l-20.52-1.38c-2.31-.16-3.67-.5-4.39-.74-.1-.53-.21-1.39-.21-2.68,0-5.01.53-9.74,1.57-14.07,1.27-5.29,2.93-10.87,4.93-16.59v-.03s.02-.03.02-.03l2.84-8.17h70.74l2.07,7.52c2.4,8.69,4.12,15.87,5.13,21.33.87,4.71,1.31,8.92,1.33,12.51-1.01.33-2.66.73-5.16,1.02l-19.48,2.25v57.55h298.47v-56.38l-18.15-3.23c-6.99-1.24-9.49-2.33-9.85-2.49-.11-.38-.24-.92-.38-1.64-.26-1.41-.85-6.05-.85-18.65v-54.47c5.11.09,10.59.13,16.41.13,30.07,0,55.87-4.76,76.68-14.14,2.59-1.17,5.11-2.4,7.56-3.7l-23.19,61.79-.03.08-.03.08c-4.59,12.52-7.97,19.15-10,22.51-2.31,3.81-4.7,6.7-7.09,8.59-2.9,2.28-4.3,3.14-4.97,3.45l-19.13,2.07v56.01h147.15v-58.51l-20.52-1.38c-2.31-.16-3.67-.5-4.39-.74-.1-.53-.21-1.39-.21-2.68,0-5.01.53-9.74,1.57-14.07,1.27-5.29,2.93-10.87,4.93-16.59l2.85-8.21h70.74l2.07,7.52c2.4,8.69,4.12,15.87,5.13,21.33.87,4.71,1.31,8.92,1.33,12.51-1.01.33-2.66.73-5.16,1.02l-19.48,2.25v57.55h177.35v-19.72c1.42.88,2.86,1.74,4.33,2.58,24.44,13.94,55.7,21.01,92.91,21.01,16.67,0,33-1.04,48.53-3.09,15.32-2.02,32.39-5.24,50.74-9.58l16.94-4v-112.6h-72.7l-3.86,17.18c-3.41,15.18-6.88,23.27-9.2,27.4-2.38,4.24-5.21,7.13-8.91,9.1-2.86,1.52-8.37,3.34-18.4,3.34s-22.51-2.56-32.9-22.56c-10.22-19.68-15.4-50.36-15.4-91.2,0-44.11,5.71-77.15,16.97-98.21,9.23-17.27,21.05-24.97,38.33-24.97,9.75,0,14.25,3.34,17.08,6.26,3.71,3.82,8.91,12.03,12.62,29.46l3.7,17.43h72.67V16.68l-16.05-4.51c-15.26-4.29-30.17-7.42-44.33-9.32-14.11-1.89-29.97-2.85-47.13-2.85h0ZM455.24,76.14c1.32,0,2.68,0,4.09,0,10.36,0,18.89,1.44,24.66,4.17,2.61,1.23,6.45,3.66,9.61,10.5,2.21,4.77,4.84,13.97,4.84,30.73s-2.65,26.32-4.87,31.15c-2.44,5.32-5.85,8.89-10.72,11.24-4.32,2.09-12.59,4.56-27.62,4.69v-92.47h0ZM647.5,203.16l14.82-41.72,11.86,41.72h-26.68ZM156.07,203.16l14.82-41.72,11.86,41.72h-26.68Z"/>
    </g>
  </g>
</svg>