<?xml version="1.0" encoding="UTF-8"?>
<svg id="Layer_2" data-name="Layer 2" xmlns="http://www.w3.org/2000/svg" viewBox="0 0 1024.23 337.47">
  <defs>
    <style>
      .cls-1 {
        stroke-width: 0px;
      }
    </style>
  </defs>
  <g id="Layer_1-2" data-name="Layer 1">
    <path class="cls-1" d="M938.72,0c16.27,0,31,.89,44.21,2.66,13.21,1.77,26.98,4.67,41.31,8.7v70.05h-32.85c-3.87-18.2-9.99-31.61-18.36-40.22-8.37-8.61-19.32-12.92-32.85-12.92-25.45,0-44.69,12.2-57.73,36.6-13.05,24.4-19.57,60.59-19.57,108.58,0,44.61,5.96,78.39,17.88,101.34s29.39,34.42,52.42,34.42c11.76,0,21.34-1.97,28.75-5.92,7.41-3.95,13.33-9.86,17.76-17.75,4.43-7.89,8.25-19,11.47-33.34h33.09v73.19c-17.71,4.19-33.9,7.25-48.55,9.18-14.65,1.93-29.87,2.9-45.66,2.9-33.5,0-60.83-6.04-82.01-18.12-21.18-12.08-36.8-30.32-46.86-54.72-10.07-24.4-15.1-55.28-15.1-92.64,0-34.95,5.92-65.34,17.76-91.19,11.84-25.85,29.27-45.78,52.3-59.79,23.03-14.01,50.57-21.02,82.62-21.02h0ZM437.33,32.13c13.85,0,25.2,2.09,34.06,6.28,8.86,4.19,15.58,11.23,20.17,21.14,4.59,9.9,6.88,23.23,6.88,39.98s-2.29,30.36-6.88,40.34c-4.59,9.99-11.64,17.27-21.14,21.86-9.5,4.59-22.3,6.89-38.41,6.89h-20.77V32.61c6.12-.32,14.82-.48,26.09-.48ZM151.22,67.16l38.65,136h-86.96l48.31-136ZM205.09,2.17h-64.5L39.86,270.55c-4.19,11.43-8.13,20.21-11.84,26.33-3.7,6.12-7.81,10.95-12.32,14.49-4.51,3.54-9.74,5.64-15.7,6.28v15.94h103.15v-15.94c-16.75-1.13-25.12-9.58-25.12-25.36,0-6.76.72-13.17,2.17-19.21,1.45-6.04,3.3-12.28,5.56-18.72l7.97-22.95h103.15l6.52,23.67c2.58,9.34,4.43,17.07,5.56,23.19,1.13,6.12,1.69,11.68,1.69,16.67,0,6.76-2.01,12-6.04,15.7-4.03,3.7-10.23,6.04-18.6,7.01v15.94h254.47v-15.94c-7.25-1.29-12.6-2.82-16.06-4.59-3.46-1.77-6.12-3.98-7.97-6.64-1.85-2.66-3.18-6.2-3.99-10.63-.81-4.43-1.21-11.96-1.21-22.59v-77.3c9.99.64,22.79.97,38.41.97,27.05,0,49.6-4.07,67.64-12.2,18.04-8.13,31.81-20.09,41.31-35.87,9.5-15.78,14.25-34.38,14.25-55.8,0-30.28-10.15-52.7-30.44-67.28-20.29-14.57-50.81-21.86-91.55-21.86h-140.35v15.94c6.12,1.61,10.91,3.42,14.37,5.44,3.46,2.01,6.04,4.63,7.73,7.85,1.69,3.22,2.74,7.41,3.14,12.56s.6,11.51.6,19.08v208.23c0,7.73-.24,14.13-.72,19.2-.48,5.07-1.57,9.26-3.26,12.56-1.69,3.3-4.27,5.88-7.73,7.73-3.46,1.67-5.94,2.86-10.01,4-4.99-1.26-7.71-3.01-11.47-5.69-3.87-3.14-7.01-7.25-9.42-12.32-2.42-5.07-5.4-13.65-8.94-25.73L205.09,2.17ZM642.65,67.15l38.65,136h-86.96l48.31-136h0ZM696.52,2.17h-64.5l-100.73,268.38c-4.19,11.43-8.13,20.21-11.84,26.33-3.7,6.12-7.81,10.95-12.32,14.49-4.51,3.54-9.74,7.32-15.7,7.97v14.26h103.15v-15.94c-16.75-1.13-25.12-9.58-25.12-25.36,0-6.76.72-13.17,2.17-19.21,1.45-6.04,3.3-12.28,5.55-18.72l7.97-22.95h103.15l6.52,23.67c2.58,9.34,4.43,17.07,5.56,23.19,1.13,6.12,1.69,11.68,1.69,16.67,0,6.76-2.01,12-6.04,15.7s-10.23,6.04-18.6,7.01v15.94h133.35v-15.94c-6.93-1.45-12.32-3.74-16.18-6.88-3.87-3.14-7.01-7.25-9.42-12.32-2.42-5.07-5.4-13.65-8.94-25.73L696.52,2.17h0Z"/>
  </g>
</svg>