<?xml version="1.0" encoding="UTF-8" standalone="no"?>
<svg
   id="Layer_1"
   data-name="Layer 1"
   viewBox="0 0 312.43128 239.57363"
   version="1.1"
   width="312.43127"
   height="239.57364"
   xmlns="http://www.w3.org/2000/svg"
   xmlns:svg="http://www.w3.org/2000/svg">
  <defs
     id="defs1" />
  <path
     class="cls-1"
     d="m 311.6,81.431838 c -40.85,19.530002 -71.34,-36.06 -9.09,-74.4299995 -46,-17.6100005 -100.79,-2.23 -138.5,48.7199995 -26.59,40.35 -49.09,13.59 -37.78,-12.23 -39.91,13.4 -51.94,56.820002 -54.85,78.500002 -4.18,17.13 -20.25,64.5 -71.38,68.91 56.71,61.5 129.73,52.44 171.35,38.43 31.3,-12.32 48.48,-26.69 86.22,-19.79 43.26,-36.02 58.81,-76.02 54.03,-128.110002 z M 80.74,195.80184 c 16.74,-7.97 30.06,-31.32 37.44,-49.96 v 0 c 13.65,18.25 38.77,31.89 60.23,38.6 -30.63,14.28 -60.94,22.73 -97.68,11.36 z m 139.39,-62.2 c -6.72,20.09 -15.41,31.39 -29.3,43.18 -32.69,-30.37 -13.92,-49.79 -29.83,-59.26 -7.63,-3.07 -14.51,-2.24 -22.44,0.71 23.66,-22.390002 61.49,-39.560002 103.62,-36.220002 -16.21,8.55 -16.94,22.920002 -22.04,51.590002 v 0 z"
     id="path1" />
</svg>
