<svg xmlns="http://www.w3.org/2000/svg" width="600" height="576"><path d="m938.797 513.533-77.65 102.415 37.027 23.691v81.847L841.114 619.8l77.648-102.415-37.024-23.693v-81.846zm105.558 16.404c-20.636.003-37.36 16.749-37.36 37.406 0 20.658 16.728 37.408 37.36 37.408L909.663 721.486v-88.147l-31.835-20.368 74.676-98.493-57.617-102.631zm-308.798 73.457c20.632 0 37.357-16.747 37.357-37.403 0-20.662-16.725-37.408-37.361-37.408l134.696-116.736v88.145l31.831 20.371-74.676 98.494 57.618 102.629zm146.102-216.66L704.728 540.086h30.825c14.266 0 25.872 11.62 25.872 25.905 0 14.282-11.603 25.9-25.868 25.9h-33.104l195.721 154.648v.128l.075-.068 176.933-153.352h-30.827c-14.265 0-25.87-11.62-25.87-25.904 0-14.282 11.605-25.901 25.87-25.902l33.098-.005-195.715-154.642v-.127z" style="fill:gray" transform="matrix(1.6 0 0 1.6 -1123.925 -618.667)"/><path d="M52.96 227.066c33.017 0 59.779 26.792 59.779 59.852 0 33.05-26.762 59.846-59.774 59.846L292.11 535.71l-92.19-164.206 119.484-157.59-50.932-32.594V40.288z"/><path d="M547.044 348.933c-33.012 0-59.778-26.798-59.778-59.852 0-33.05 26.762-59.846 59.778-59.85L307.894 40.29l92.19 164.208L280.6 362.085l50.936 32.59v141.036z"/></svg>