<svg xmlns="http://www.w3.org/2000/svg" xmlns:xlink="http://www.w3.org/1999/xlink" width="600" height="576"><linearGradient id="a" x1="0" x2="1" y1="0" y2="0" gradientTransform="scale(-208.20807 208.20807)rotate(-35.026 .942 2.292)" gradientUnits="userSpaceOnUse" spreadMethod="pad"><stop offset="0" style="stop-color:#bf331c"/><stop offset=".468" style="stop-color:#f6b91d"/><stop offset="1" style="stop-color:#bf331c"/></linearGradient><linearGradient id="b" x1="0" x2="1" y1="0" y2="0" gradientTransform="scale(-208.20807 208.20807)rotate(-35.026 1.028 2.265)" gradientUnits="userSpaceOnUse" spreadMethod="pad"><stop offset="0" style="stop-color:#bf331c"/><stop offset=".468" style="stop-color:#f6b91d"/><stop offset="1" style="stop-color:#bf331c"/></linearGradient><linearGradient xlink:href="#b" id="c" x1="0" x2="1" y1="0" y2="0" gradientTransform="rotate(144.974 649.513 408.175)scale(260.26009)" gradientUnits="userSpaceOnUse" spreadMethod="pad"/><linearGradient xlink:href="#a" id="d" x1="0" x2="1" y1="0" y2="0" gradientTransform="rotate(144.974 651.744 415.246)scale(260.26009)" gradientUnits="userSpaceOnUse" spreadMethod="pad"/><path d="M378.148 202.988 253.91 366.852l59.242 37.906V535.71l-91.294-162.694 124.236-163.864-59.238-37.91V40.288zm168.894 26.246c-33.016.003-59.776 26.796-59.776 59.848 0 33.054 26.764 59.852 59.776 59.852L331.534 535.71V394.676l-50.936-32.59L400.082 204.5 307.894 40.288zM52.964 346.766c33.012 0 59.774-26.798 59.774-59.848 0-33.058-26.762-59.852-59.778-59.852L268.472 40.288V181.32l50.932 32.594-119.482 157.59 92.186 164.206zM286.728.11 3.638 245.472H52.96c22.824 0 41.396 18.594 41.396 41.446S75.788 328.36 52.964 328.36H0l313.152 247.436V576l.12-.106L596.364 330.53h-49.322c-22.824 0-41.394-18.592-41.394-41.448 0-22.852 18.57-41.442 41.394-41.442l52.958-.008L286.856.206V0z"/><path d="M1158.935 411.916c20.633 0 37.36 16.746 37.36 37.408 0 20.656-16.727 37.405-37.36 37.405l149.467 118.09-57.617-102.629 74.676-98.494-31.833-20.37v-88.145z" style="fill:url(#c)" transform="matrix(1.6 0 0 1.6 -1801.334 -432)"/><path d="M1158.934 411.917c20.635 0 37.361 16.745 37.361 37.407 0 20.656-16.726 37.405-37.359 37.405l149.465 118.09-57.617-102.629 74.677-98.494-31.832-20.37V295.18z" style="fill:none;stroke:#000;stroke-width:7.5;stroke-miterlimit:100" transform="matrix(1.6 0 0 1.6 -1801.334 -432)"/><path d="m1375.885 397.813-74.678 98.49 31.835 20.37v88.146l134.694-116.735c-20.633 0-37.361-16.749-37.361-37.408 0-20.656 16.726-37.401 37.36-37.405l-149.467-118.09z" style="fill:url(#d)" transform="matrix(1.6 0 0 1.6 -1801.334 -432)"/><path d="M1467.735 488.084c-20.632 0-37.361-16.748-37.361-37.408 0-20.656 16.726-37.402 37.361-37.405l-149.467-118.09 57.617 102.631-74.678 98.492 31.836 20.368v88.148z" style="fill:none;stroke:#000;stroke-width:7.5;stroke-miterlimit:100" transform="matrix(1.6 0 0 1.6 -1801.334 -432)"/></svg>