<svg xmlns="http://www.w3.org/2000/svg" xmlns:xlink="http://www.w3.org/1999/xlink" width="600" height="576"><linearGradient id="b" x1="0" x2="1" y1="0" y2="0" gradientTransform="scale(-208.20792 208.20792)rotate(-35.026 .943 2.292)" gradientUnits="userSpaceOnUse" spreadMethod="pad"><stop offset="0" style="stop-color:#612c75"/><stop offset=".468" style="stop-color:#bf99c3"/><stop offset="1" style="stop-color:#612c75"/></linearGradient><linearGradient id="a" x1="0" x2="1" y1="0" y2="0" gradientTransform="scale(-208.20792 208.20792)rotate(-35.026 1.029 2.265)" gradientUnits="userSpaceOnUse" spreadMethod="pad"><stop offset="0" style="stop-color:#612c75"/><stop offset=".468" style="stop-color:#bf99c3"/><stop offset="1" style="stop-color:#612c75"/></linearGradient><linearGradient xlink:href="#b" id="d" x1="0" x2="1" y1="0" y2="0" gradientTransform="scale(-208.20792 208.20792)rotate(-35.026 .943 2.292)" gradientUnits="userSpaceOnUse" spreadMethod="pad"/><linearGradient xlink:href="#a" id="c" x1="0" x2="1" y1="0" y2="0" gradientTransform="scale(-208.20792 208.20792)rotate(-35.026 1.029 2.265)" gradientUnits="userSpaceOnUse" spreadMethod="pad"/><path fill="#fff" d="M378.148 202.988 253.91 366.852l59.242 37.906V535.71l-91.294-162.694 124.236-163.864-59.238-37.91V40.288zm168.894 26.246c-33.016.004-59.776 26.796-59.776 59.848 0 33.054 26.764 59.852 59.776 59.852L331.534 535.71V394.676l-50.936-32.59L400.082 204.5 307.894 40.288zM52.964 346.766c33.012 0 59.774-26.798 59.774-59.848 0-33.058-26.762-59.852-59.778-59.852L268.472 40.288V181.32l50.932 32.594-119.482 157.59 92.186 164.206zM286.728.11 3.638 245.472H52.96c22.824 0 41.396 18.594 41.396 41.446S75.788 328.36 52.964 328.36H0l313.152 247.436V576l.12-.106L596.364 330.53h-49.322c-22.824 0-41.394-18.592-41.394-41.448 0-22.852 18.57-41.442 41.394-41.442l52.958-.008L286.856.206V0z"/><path d="M26.481 174.522c16.507 0 29.888-13.397 29.888-29.926 0-16.526-13.381-29.924-29.887-29.924L146.055 20.2l-46.094 82.103 59.741 78.795-25.466 16.296v70.516z" style="fill:url(#c)" transform="matrix(2 0 0 -2 0 576.109)"/><path d="m200.041 185.805-59.742-78.793 25.468-16.296V20.2l107.755 93.388c-16.506 0-29.889 13.398-29.889 29.926 0 16.525 13.381 29.921 29.889 29.923L153.948 267.91Z" style="fill:url(#d)" transform="matrix(2 0 0 -2 0 576.109)"/></svg>