<svg xmlns="http://www.w3.org/2000/svg" xml:space="preserve" width="2590.764" height="2979.935" style="clip-rule:evenodd;fill-rule:evenodd;stroke-linecap:round;stroke-linejoin:round;stroke-miterlimit:1.5" viewBox="0 0 2590.764 2979.935"><ellipse cx="1295.382" cy="1672.284" rx="1293.884" ry="1306.139" style="stroke:#000;stroke-width:3.00964px"/><ellipse cx="1292.548" cy="1671.565" rx="1207.657" ry="1215.601" style="fill:url(#a);stroke:#000;stroke-width:3.01282px"/><path d="M2035.07 2020.653s-81.126 138.21-178.773 223.842c0 0 69.105 159.243-184.782 336.513-253.89 177.27-405.62 177.27-579.885 42.063 0 0-503.27-63.057-655.002-504.771 0 0-32.085-85.95-36.522-123.22 0 0-42.219-140.426-26.193-371.672 0 0 3.435-138.52 41.211-282.76 37.776-144.236 43.5-178.58 68.685-226.658-36.555 6.45-151.737-201.85-105.318-362.886 0 0-3.435-29.148 33.198-117.294 0 0-22.896-170.568 61.818-289.62 0 0 25.182-78.243 215.211-190.03 0 0-18.315 111.442-10.302 182.416 0 0 10.302 96.159 76.698 82.422 0 0 72.12-5.724 177.438-162.555 0 0 66.396-89.29 219.792-101.883 0 0 85.857 10.305 119.055 33.198 0 0 115.617-190.03 272.448-187.737 0 0 161.412-4.581 261.006 176.292 0 0 164.844-19.461 275.883 70.974 0 0 98.448 67.539 139.66 199.185 0 0 198.041 81.279 238.11 287.334 0 0 30.908 137.37-12.595 336.555-43.5 199.188-121.34 394.94-201.474 515.139 0 0 99.411 202.533 13.737 310.227-86.223 108.387-216.819 131.21-223.104 124.926"/><path d="M630.905 808.887s-109.512 215.739-107.322 215.739c0 0-67.899-52.566-56.946-237.642 0 0 1.821-92.358 41.244-142.734 0 0-27.783-93.31 13.695-186.066 0 0 9.795-48.393 64.527-110.616 0 0 27.078 139.998 108.888 154.98 0 0 65.337 40.56 161.316-28.233 99.67-71.44 138.27-159.01 163.041-167.652 0 0 46.092-55.308 120.987-55.884 0 0 85.842-9.216 156.705 74.322 0 0 62.223-127.323 142.881-187.242 0 0 58.188-57.612 129.627-41.481 0 0 88.971 1.356 183.783 178.599 0 0 178.335-38.226 273.411 51.075 0 0 77.22 33.018 116.97 193.002 0 0 138.27 44.178 183.786 146.73 0 0 33.414 35.142 46.09 149.214 0 0 8.066 163.782-24.775 272.508s-54.156 176.709-54.156 176.709-69.672-121.563-219.504-239.667c0 0 93.873-67.407 111.156-159.012 0 0 31.11-143.946-153.825-182.631 0 0-85.266-17.943-195.306 1.068-110.04 19.014-102.549 19.59-102.549 19.59s-76.05-127.281-239.67-225.843c0 0-84.114 92.715-148.062 100.779 0 0-65.619 18.438-87.51.576l-53.004-17.283-41.48-16.707s-77.203-24.774-123.292-25.926c0 0-88.146-14.98-165.348 93.909 0 0-35.145 57.036-112.92 137.118 0 0-48.252 55.182-132.438 58.7" style="fill:url(#b);stroke-width:3"/><path d="M1105.565 613.617s101.04 45.285 160.464 52.458 111.237-7 111.237-7 37.782-3.233 126.777-72.482c0 0 82.008 55.989 117.114 106.8s23.56 24.945 74.832 109.476c0 0 138.114-46.191 245.74-41.112 107.627 5.082 127.952 23.559 127.952 23.559s30.948 18.477 32.796 42.033c0 0 8.778 30.489-12.47 60.05-21.25 29.563-31.41 38.34-31.41 38.34l-40.189 36.03-103.47 66.517 50.35 28.176s80.834 48.039 145.505 112.707c64.668 64.67 68.364 74.37 68.364 74.37l44.343 64.668 32.334 53.12-17.553 36.03s-90.006-109.232-263.292-232.805c0 0 97.86 125.4 117.72 159.582 15.79 27.17 55.431 89.613 55.431 89.613s27.255 45.732 33.258 70.674c0 0-152.496-127.425-193.545-133.032 0 0 102.021 124.587 133.581 176.529s78.243 137.418 82.188 182.784 16.086 87.41-23.013 135.447c-23.013 28.272-46.683 49.31-114.405 73.638-67.722 24.33-89.42 17.097-89.42 17.097s-72.75 136.179-165.03 223.548c-17.22 16.305-43.396 59.178-97.969 107.832s-204.318 170.127-204.318 170.127 165.678-42.168 220.683-86.208c0 0 16.83 32.517-18.315 72.687s-100.875 98.136-167.517 134.652-147.432 66.639-205.4 64.815c-57.97-1.824-90.835-3.651-98.137-16.89 0 0 118.674-61.164 157.017-99.504 0 0-109.227 49.977-237.81 34.233-22.365-2.74-162.369-29.92-231.456-56.973 10.398 2.6-78.138-26.874-115.839-56.127s-100.104-46.8-193.707-170.307c-93.606-123.504-125.457-241.53-139.755-335.412-14.3-93.885-23.403-286.443-2.6-405.897 20.798-119.451 61.1-285.858 75.401-319.011 14.301-33.15 77.355-232.356 130.005-307.461 0 0 79.305-23.103 125.457-67.305s57.852-53.952 94.902-100.752 34.452-50.703 34.452-50.703l22.101-27.951 20.802-20.151s39.72-37.917 125.814-10.51" style="fill:#fff;stroke-width:3"/><ellipse cx="887.141" cy="1169.348" rx="66.515" ry="117.662" style="stroke-width:3.27715" transform="rotate(5.172)"/><path d="M664.871 1070.874s-2.859-30.864 64.011-86.871c66.867-56.01 101.73-48.58 101.73-48.58s30.291-8 39.435 22.288c9.144 30.29-11.43 54.297-11.43 54.297l-24.576 23.43-26.289 10.86-17.718 2.859s-92.016 3.999-109.73 28.575c0 0-16.639 4.119-15.433-6.858m305.811 440.922s44.508 52.554 89.556 82.047l-74.004 77.757s-54.699-45.582-82.587-94.917c-27.885-49.335-22.52-45.045-22.52-45.045s-10.075-23.556-3.754-45.048c2.68-9.114 82.173-82.962 131.751-145.27 49.575-62.31 67.09-135.431 80.793-165.863 13.707-30.435 13.326-28.15 19.42-31.197 6.09-3.045 10.241 9.084 10.073 11.733-.165 2.646 7.215 65.757-5.913 105.71-13.128 39.958-17.694 53.656-45.093 108.45-27.396 54.796-71.013 114.9-97.722 141.643m487.693-547.71s-8.64-38.616 57.413-121.437c0 0 95.02 48.777 144.306 160.053s17.784 131.6 17.784 131.6-50.84-78.113-114.846-115.86c-64.005-37.745-76.386-45.254-104.658-54.356m-122.772 280.233s29.35-56.577 115.041-67.77c12.561-1.641 41.844-1.671 41.844-1.671s74.205 3.984 97.947 37.94 23.742 49.14 23.742 62.392c0 13.25.828 37.269-9.663 53.28-10.488 16.01-16.125 16.17-23.589 16.485-2.676.11-7.539-2.904-9.98-5.625-3.202-3.573-6.223-7.101-6.229-7.104-1.125-.624-21.489-24.186-21.489-24.186s-21.807-29.538-45.273-36.717c0 0-46.656-20.151-78.405-22.911-31.746-2.763-39.243-4.083-83.946-4.113"/><path d="m1487.381 1888.503-.105 120.954 95.568-204.963-194.16-175.767-33.723 42.408 29.124 65.403s-259.8 213.41-703.443 28.773l5.217-73.284-108.366 120.576s35.715 125.025 73.872 170.94c0 0 23.2 26.685 33.273-6.891 0 0-.153-20.067-4.73-27.393l8.774.072s20.052 45.507 172.218 97.677 309.072 1.185 309.072 1.185 169.452-41.62 317.41-159.69"/><path d="m1418.474 1775.82 53.946 63.726s-169.488 166.716-453.98 176.826c-266.61 9.474-341.73-175.932-349.453-180.537 0 0-7.812-7.473 8.622-.567s78.28 34.113 126.873 42.183c48.597 8.067 97.191 22.278 137.718 23.625s133.566 2.397 133.566 2.397 75.828-2.47 184.812-43.03c108.981-40.556 157.896-84.623 157.896-84.623" style="fill:#fff;stroke-width:3"/><defs><linearGradient id="a" x1="0" x2="1" y1="0" y2="0" gradientTransform="matrix(2737.8726 0 0 2755.8835 84.891 1671.565)" gradientUnits="userSpaceOnUse"><stop offset="0" style="stop-color:#8d742f;stop-opacity:1"/><stop offset=".07" style="stop-color:#967d38;stop-opacity:1"/><stop offset=".18" style="stop-color:#ae954f;stop-opacity:1"/><stop offset=".2" style="stop-color:#b39a54;stop-opacity:1"/><stop offset=".22" style="stop-color:#b9a059;stop-opacity:1"/><stop offset=".3" style="stop-color:#cab068;stop-opacity:1"/><stop offset=".39" style="stop-color:#d4ba71;stop-opacity:1"/><stop offset=".5" style="stop-color:#d7bd74;stop-opacity:1"/><stop offset=".61" style="stop-color:#d4ba71;stop-opacity:1"/><stop offset=".7" style="stop-color:#cab068;stop-opacity:1"/><stop offset=".78" style="stop-color:#b9a059;stop-opacity:1"/><stop offset=".8" style="stop-color:#b39a54;stop-opacity:1"/><stop offset=".86" style="stop-color:#a38a45;stop-opacity:1"/><stop offset=".94" style="stop-color:#937a35;stop-opacity:1"/><stop offset="1" style="stop-color:#8d742f;stop-opacity:1"/></linearGradient><linearGradient id="b" x1="0" x2="1" y1="0" y2="0" gradientTransform="matrix(2668.635 0 0 1636.509 -199.222 649.656)" gradientUnits="userSpaceOnUse"><stop offset="0" style="stop-color:#8d742f;stop-opacity:1"/><stop offset=".07" style="stop-color:#967d38;stop-opacity:1"/><stop offset=".18" style="stop-color:#ae954f;stop-opacity:1"/><stop offset=".2" style="stop-color:#b39a54;stop-opacity:1"/><stop offset=".22" style="stop-color:#b9a059;stop-opacity:1"/><stop offset=".3" style="stop-color:#cab068;stop-opacity:1"/><stop offset=".39" style="stop-color:#d4ba71;stop-opacity:1"/><stop offset=".5" style="stop-color:#d7bd74;stop-opacity:1"/><stop offset=".61" style="stop-color:#d4ba71;stop-opacity:1"/><stop offset=".7" style="stop-color:#cab068;stop-opacity:1"/><stop offset=".78" style="stop-color:#b9a059;stop-opacity:1"/><stop offset=".8" style="stop-color:#b39a54;stop-opacity:1"/><stop offset=".86" style="stop-color:#a38a45;stop-opacity:1"/><stop offset=".94" style="stop-color:#937a35;stop-opacity:1"/><stop offset="1" style="stop-color:#8d742f;stop-opacity:1"/></linearGradient></defs></svg>