<svg xmlns="http://www.w3.org/2000/svg" xml:space="preserve" width="150.001" height="148.773" viewBox="0 0 150.001 148.773"><path fill="#818181" d="M147.317 74.176c-1.457-9.06-3.322-18.075-3.605-19.083-.282-1.006-.751-1.441-1.381-1.646-.631-.207-1.556-.047-1.942.61-.386.659-6.469 10.929-6.469 10.929l-15.343-9.334 6.867-16.431s10.957 4.733 11.657 5.039c.702.305 1.541-.111 1.931-.647s.513-1.165.149-2.146c-.363-.98-4.154-9.371-8.3-17.556-4.145-8.186-9.612-17.795-9.612-17.795s-10.828-2.23-19.894-3.643C92.309 1.059 83.156.047 82.111.005s-1.604.268-1.993.804c-.39.538-.524 1.465-.019 2.036l8.393 9.53-13.491 11.598-13.494-11.6s7.887-8.957 8.394-9.53c.507-.57.371-1.498-.02-2.035-.39-.536-.949-.847-1.993-.804-1.046.042-10.198 1.055-19.263 2.468C39.558 3.886 28.73 6.115 28.73 6.115s-5.468 9.609-9.612 17.795-7.937 16.576-8.3 17.556-.24 1.61.15 2.146c.391.536 1.23.952 1.931.647.7-.306 11.657-5.04 11.657-5.04l6.867 16.432-15.341 9.334S10 54.715 9.612 54.057s-1.311-.817-1.942-.611-1.1.64-1.381 1.646C6.006 56.1 4.142 65.117 2.683 74.176 1.226 83.235 0 94.223 0 94.223s7.449 8.169 13.954 14.64c6.504 6.473 13.313 12.672 14.133 13.32.82.649 1.455.726 2.086.52.631-.204 1.285-.873 1.212-1.635-.073-.761-1.188-12.644-1.188-12.644l18.154-1.486 4.144 17.506s-11.646 2.61-12.392 2.776c-.747.165-1.182.994-1.182 1.658s.269 1.243 1.14 1.823 8.87 5.14 17.035 9.325c8.165 4.187 18.236 8.747 18.236 8.747s10.072-4.561 18.237-8.747c8.164-4.185 16.163-8.745 17.033-9.325s1.14-1.16 1.14-1.823c0-.664-.435-1.493-1.181-1.658-.747-.166-12.393-2.776-12.393-2.776l4.131-17.453 17.505 1.434s-1.116 11.883-1.189 12.644c-.073.76.581 1.43 1.213 1.636.63.205 1.266.129 2.086-.52.82-.65 7.629-6.85 14.133-13.32s13.954-14.641 13.954-14.641-1.225-10.99-2.684-20.048"/><path d="M142.161 75.006a379 379 0 0 0-1.857-10.553l-4.34 7.327-18.439 4.765L95.503 63.15l9.883-23.644 17.718-6.986 7.819 3.378a395 395 0 0 0-4.699-9.63c-2.926-5.776-6.498-12.236-8.33-15.507-3.676-.731-10.927-2.133-17.322-3.13a393 393 0 0 0-10.609-1.493l5.627 6.393-1.167 19.009-19.422 16.695L55.579 31.54l-1.167-19.01 5.628-6.392c-3.111.396-6.825.904-10.611 1.493-6.396.998-13.645 2.399-17.321 3.13-1.833 3.27-5.405 9.73-8.33 15.507a388 388 0 0 0-4.699 9.63l7.818-3.378 17.718 6.986 9.882 23.644-22.02 13.396-18.439-4.765-4.339-7.327A387 387 0 0 0 7.84 75.007c-1.029 6.39-1.935 13.718-2.377 17.44 2.545 2.754 7.585 8.148 12.175 12.715a389 389 0 0 0 7.706 7.444l-.797-8.48 12.118-14.691 25.945-2.126 5.945 25.113-10.23 16.065-8.31 1.86a380 380 0 0 0 9.461 5.03c5.761 2.954 12.45 6.08 15.854 7.65 3.404-1.57 10.093-4.696 15.854-7.65 3.408-1.746 6.71-3.52 9.461-5.03-1.713-.381-6.748-1.511-8.311-1.86l-10.229-16.065 5.933-25.061 25.295 2.073 12.117 14.692-.797 8.479a388 388 0 0 0 7.708-7.444c4.588-4.566 9.63-9.961 12.174-12.715-.438-3.721-1.346-11.05-2.374-17.44M58.564 92.88l4.403 18.598-5.958 9.358-4.609-19.472-20.167 1.652 7.059-8.56zm59.204 10.137-19.516-1.6-4.597 19.419-5.957-9.358 4.391-18.545 18.622 1.524zm11.326-34.855-10.74 2.774-16.301-9.917 7.299-17.465 10.32-4.07-7.645 18.295zm-97.446 2.774-10.74-2.774L37.973 57.78l-7.646-18.294 10.321 4.069 7.299 17.467zm28.328-52.992L75 30.86l15.023-12.916-.68 11.073-14.342 12.33-14.344-12.33z"/></svg>