<svg xmlns="http://www.w3.org/2000/svg" xml:space="preserve" width="150" height="148.773" viewBox="0 0 150 148.773"><g transform="translate(-.768 -.333)"><path d="M148.086 74.509c-1.459-9.059-3.323-18.075-3.605-19.083-.281-1.006-.75-1.441-1.382-1.646-.632-.207-1.554-.047-1.942.611s-6.471 10.928-6.471 10.928l-15.341-9.334 6.868-16.431s10.957 4.733 11.658 5.039c.699.305 1.537-.111 1.93-.647.391-.536.514-1.165.15-2.146-.365-.98-4.156-9.371-8.301-17.556s-9.611-17.795-9.611-17.795-10.83-2.229-19.896-3.643C93.078 1.392 83.926.38 82.881.338s-1.604.268-1.994.804c-.391.538-.525 1.465-.02 2.036.508.573 8.395 9.53 8.395 9.53L75.769 24.306 62.275 12.707s7.887-8.958 8.394-9.53.371-1.499-.02-2.036c-.39-.536-.949-.847-1.993-.804-1.046.042-10.198 1.055-19.263 2.468-9.067 1.414-19.895 3.643-19.895 3.643s-5.468 9.609-9.612 17.795-7.937 16.576-8.3 17.556-.24 1.61.15 2.146c.391.536 1.23.952 1.931.647.7-.306 11.657-5.039 11.657-5.039l6.867 16.431-15.341 9.334s-6.082-10.27-6.47-10.928-1.31-.817-1.942-.61c-.631.205-1.1.64-1.381 1.646-.283 1.008-2.147 10.024-3.606 19.083C1.994 83.568.768 94.556.768 94.556s7.449 8.169 13.954 14.641c6.504 6.472 13.313 12.671 14.133 13.32.82.648 1.455.725 2.086.52s1.285-.874 1.212-1.636-1.188-12.644-1.188-12.644l18.154-1.486 4.144 17.506s-11.646 2.61-12.392 2.776c-.747.165-1.182.994-1.182 1.658s.269 1.243 1.14 1.823 8.87 5.141 17.035 9.325c8.165 4.187 18.237 8.747 18.236 8.747s10.07-4.561 18.236-8.747c8.164-4.185 16.164-8.745 17.035-9.325s1.139-1.16 1.139-1.823c0-.664-.436-1.493-1.181-1.658l-12.393-2.776 4.132-17.453 17.504 1.434s-1.115 11.883-1.188 12.644c-.074.762.58 1.431 1.211 1.636s1.266.129 2.086-.52 7.629-6.849 14.133-13.32c6.506-6.472 13.954-14.641 13.954-14.641s-1.225-10.99-2.682-20.048"/><radialGradient id="a" cx="75.769" cy="74.917" r="68.994" gradientUnits="userSpaceOnUse"><stop offset="0" style="stop-color:#bf99c2"/><stop offset=".65" style="stop-color:#7b5290"/><stop offset=".749" style="stop-color:#794f8e"/><stop offset=".851" style="stop-color:#724586"/><stop offset=".954" style="stop-color:#68357c"/><stop offset="1" style="stop-color:#622d76"/></radialGradient><path fill="url(#a)" d="M142.93 75.339a387 387 0 0 0-1.859-10.553c-.895 1.51-3.523 5.95-4.34 7.327l-18.439 4.765-22.02-13.396 9.883-23.644 17.719-6.986 7.817 3.378a399 399 0 0 0-4.699-9.63c-2.925-5.776-6.498-12.236-8.331-15.507-3.676-.731-10.924-2.133-17.321-3.13A393 393 0 0 0 90.73 6.47l5.629 6.393-1.166 19.009-19.424 16.696-19.422-16.695-1.167-19.009 5.628-6.393c-3.111.396-6.825.904-10.611 1.493-6.396.998-13.645 2.399-17.321 3.13-1.833 3.271-5.405 9.731-8.33 15.507a388 388 0 0 0-4.699 9.63l7.818-3.378 17.718 6.986 9.882 23.644-22.02 13.396-18.439-4.765-4.339-7.327A387 387 0 0 0 8.608 75.34c-1.029 6.39-1.935 13.718-2.377 17.44 2.545 2.754 7.585 8.148 12.175 12.715a389 389 0 0 0 7.706 7.444l-.797-8.479 12.118-14.692 25.945-2.126 5.945 25.113-10.23 16.065-8.31 1.861a380 380 0 0 0 9.461 5.03c5.761 2.953 12.45 6.079 15.855 7.649 3.405-1.57 10.092-4.696 15.853-7.649a380 380 0 0 0 9.462-5.03c-1.712-.382-6.749-1.512-8.31-1.861l-10.229-16.065 5.931-25.061 25.297 2.073 12.119 14.692-.797 8.479a394 394 0 0 0 7.705-7.444c4.59-4.566 9.629-9.961 12.176-12.715-.443-3.721-1.347-11.049-2.376-17.44M59.332 93.214l4.403 18.598-5.958 9.358-4.609-19.472L33 103.351l7.059-8.56zm59.205 10.137-19.518-1.6-4.596 19.419-5.958-9.358 4.39-18.545 18.623 1.524zm11.324-34.855-10.74 2.774-16.301-9.917 7.301-17.465 10.32-4.069-7.646 18.294zM32.416 71.27l-10.74-2.774 17.065-10.383-7.646-18.294 10.321 4.069 7.299 17.467Zm28.328-52.992 15.024 12.916 15.023-12.916-.681 11.073-14.341 12.331-14.344-12.331Z" style="fill:url(#a)"/></g></svg>