<svg xmlns="http://www.w3.org/2000/svg" xml:space="preserve" width="150.001" height="147.643" viewBox="0 0 150.001 147.643"><path d="M147.437 74.278a414 414 0 0 0-2.005-11.381c-.964 1.629-3.802 6.417-4.68 7.903l-19.889 5.14-23.75-14.45 10.66-25.501 19.109-7.535 8.432 3.644a417 417 0 0 0-5.068-10.386c-3.153-6.23-7.009-13.197-8.983-16.725-3.966-.789-11.784-2.3-18.684-3.376A425 425 0 0 0 91.137.001l6.07 6.895-1.26 20.502L75 45.404 54.053 27.397 52.794 6.895 58.864 0A425 425 0 0 0 47.42 1.61c-6.898 1.076-14.716 2.588-18.682 3.376-1.977 3.528-5.83 10.495-8.984 16.725a421 421 0 0 0-5.068 10.386l8.432-3.644 19.11 7.535 10.659 25.501-23.75 14.45-19.888-5.14-4.681-7.903a414 414 0 0 0-2.005 11.381C1.454 81.171.477 89.074 0 93.088c2.745 2.971 8.182 8.789 13.131 13.714a421 421 0 0 0 8.312 8.029l-.859-9.145 13.07-15.847 27.983-2.293 6.412 27.086-11.034 17.327-8.962 2.008a412 412 0 0 0 10.205 5.426c6.214 3.186 13.428 6.557 17.1 8.25 3.672-1.693 10.884-5.064 17.1-8.25a416 416 0 0 0 10.203-5.426c-1.846-.412-7.277-1.63-8.962-2.008l-11.034-17.327 6.399-27.028 27.281 2.235 13.071 15.847-.86 9.145a418 418 0 0 0 8.313-8.029c4.95-4.925 10.387-10.743 13.132-13.714-.477-4.014-1.456-11.917-2.564-18.81M57.272 93.556l4.748 20.059-6.426 10.094-4.971-21.002-21.75 1.782 7.613-9.231zm63.855 10.933-21.049-1.725-4.958 20.944-6.427-10.094 4.736-20.002 20.084 1.645zm12.215-37.593-11.584 2.993-17.581-10.696 7.874-18.837 11.131-4.389-8.246 19.731zm-105.1 2.993-11.584-2.993 18.406-11.198-8.247-19.731 11.132 4.389 7.873 18.839Zm30.553-57.155L75 26.664l16.203-13.93-.733 11.942-15.469 13.3-15.471-13.3Z"/></svg>