<?xml version="1.0" encoding="UTF-8"?><svg id="Layer_2" xmlns="http://www.w3.org/2000/svg" width="374.2441" height="278.23907" xmlns:xlink="http://www.w3.org/1999/xlink" viewBox="0 0 374.2441 278.23907"><defs><style>.cls-1{fill:url(#radial-gradient);}.cls-2{fill:#dfc280;}</style><radialGradient id="radial-gradient" cx="178.84989" cy="146.83733" fx="178.84989" fy="146.83733" r="133.84948" gradientUnits="userSpaceOnUse"><stop offset="0" stop-color="#dfc280"/><stop offset=".15139" stop-color="#d9bd7b"/><stop offset=".33585" stop-color="#caae6f"/><stop offset=".53748" stop-color="#b2975b"/><stop offset=".75" stop-color="#907740"/><stop offset=".85665" stop-color="#7c6430"/></radialGradient></defs><g id="Layer_1-2"><g id="omb-r"><path d="M374.2441,216.90351l-92.05852-19.44753,43.40583,80.78309H25.44171l47.8052-89.97736L0,113.68051l101.78327,22.07202L175.51642,0l64.23271,119.43389,134.49498,96.72162v.74799ZM191.93926,75.96052c-5.05883-9.41646-9.762-20.33424-15.14787-29.37737-.3113-.52268-.84961-2.05913-1.65358-1.35612l-55.38244,104.34928,28.34735,5.90406,28.91085-52.25727,32.00995,56.63407,76.14842,19.63929-61.03132-45.59174c-11.25246-19.06424-21.84111-38.65968-32.20136-57.94419ZM132.47764,210.91955h89.07186l-44.17393-81.53124-44.89793,81.53124ZM60.62135,257.29522h229.79042l-41.9263-76.65932-31.42316-7.11219,26.19378,50.11175H110.77105l29.94144-56.84145-74.85124-16.45477,33.67274,34.7572-38.91264,72.19878Z"/><path class="cls-1" d="M60.62135,257.29522l38.91264-72.19878-33.67274-34.7572,74.85124,16.45477-29.94144,56.84145h132.48503l-26.19378-50.11175,31.42316,7.11219,41.9263,76.65932H60.62135ZM176.79139,46.58315c-.3113-.52268-.84961-2.05913-1.65358-1.35612l-55.38244,104.34928,28.34735,5.90406,28.91085-52.25727,32.00995,56.63407,76.14842,19.63929-61.03132-45.59174c-11.25246-19.06424-21.84111-38.65968-32.20136-57.94419-5.05883-9.41646-9.762-20.33424-15.14787-29.37737Z"/><polygon class="cls-2" points="221.54949 210.91955 132.47764 210.91955 177.37556 129.38831 221.54949 210.91955"/></g></g></svg>