<?xml version="1.0" encoding="UTF-8"?><svg id="Layer_2" xmlns="http://www.w3.org/2000/svg" width="374.24411" height="278.23907" viewBox="0 0 374.24411 278.23907"><g id="Layer_2-2"><path d="M374.24411,216.9035l-92.0585-19.44753,43.40582,80.7831H25.44171l47.8052-89.97736L0,113.68051l101.78327,22.07202L175.51642,0l64.23271,119.43389,134.49498,96.72163v.74799ZM191.93925,75.96052c-5.05882-9.41646-9.76199-20.33424-15.14787-29.37737-.31129-.52268-.84961-2.05913-1.65358-1.35612l-55.38244,104.34929,28.34734,5.90405,28.91084-52.25727,32.00995,56.63407,76.14844,19.6393-61.03131-45.59174c-11.25246-19.06424-21.84111-38.65968-32.20135-57.94419l-.00002-.00002ZM132.47765,210.91956h89.07185l-44.17393-81.53125-44.89793,81.53125h.00002ZM60.62135,257.29523h229.79042l-41.9263-76.65932-31.42316-7.11218,26.19379,50.11176H110.77105l29.94144-56.84145-74.85124-16.45477,33.67274,34.7572s-38.91264,72.19876-38.91265,72.19876Z"/></g></svg>