<svg xmlns="http://www.w3.org/2000/svg" width="600.002" height="309.845"><path d="m599.79 156.09-1.307-11.387-11.358 1.625c-.03 0-6.742.93-17.133.93-24.59 0-69.046-5.125-99.19-38.112l27.507-17.384 5.487.185 10.819.362.642-10.819 1.381-23.365.569-9.231-9.01-2.23-23.623-5.849-10.782-2.666-2.703 10.782-1.189 4.793-25.388 17.42c-18.558-34.693-15.139-56.22-15.102-56.434L431.973 0l-14.718 1.625c-2.304.25-56.426 6.771-80.013 55.126l-5.51 11.44 12.038 4.031c.317.111 28.276 9.593 49.876 33.822L250.848 203.98c-2.126-19.112 1.049-34.974 9.482-47.38 15.582-22.863 44.715-27.154 45.04-27.183l11.217-1.551-1.736-11.18c-4.615-29.997-26.865-65.052-74.422-65.052-31.437 0-63.103 21.06-93.75 41.428-23.697 15.722-48.177 32.027-65.368 32.027-26.88 0-41.185-22.649-41.185-38.99 0-9.697 2.77-18.854 9.083-26.29 4.616-5.465 11.83-9.401 18.536-11.742 6.092-2.127 12.731-3.065 19.148-3.139 4.8 0 9.017-3.101 10.531-7.606a11.15 11.15 0 0 0-3.892-12.406 48.52 48.52 0 0 0-42.772-7.57 54.7 54.7 0 0 0-11.424 4.823 71.6 71.6 0 0 0-10.855 7.62C.86 53.26.064 90.833.064 95.012v1.337c-.28 9.408-1.078 34.435 33.21 69.844 34.043 35.189 68.802 55.563 70.28 56.39l17.878 10.383-1.19-20.655a55.24 55.24 0 0 1 14.903-40.993c9.046-9.6 20.655-15.08 31.828-15.08 22.649 0 48.975 20.885 48.975 47.81 0 10.751-2.702 20.632-8.079 29.427l-32.566 22.324a28 28 0 0 0-9.4-1.661c-15.36 0-27.841 12.48-27.841 27.84a27.81 27.81 0 0 0 55.533 2.274l21.342-13.454c4.504 2.451 10.131 5.257 18.742 9.083 9.098 4.076 41.369 17.243 74.578 17.243 11.21 0 21.452-1.55 30.395-4.652 9.992-3.434 19.326-9.017 25.773-17.532 6.75-8.942 10.612-20.906 8.153-32.057a11 11 0 0 0-10.849-8.765c-2.525 0-5.043.834-7.067 2.496-8.906 7.281-19.444 12.768-30.83 14.777a56 56 0 0 1-10.177.908c-18.993 0-35.58-8.987-45.024-15.434l146.394-92.486c15.175 47.306 10.383 78.167-18.034 120.252l-7.466 11.063 12.296 5.339c1.078.472 27.087 11.572 60.687 11.572 31.843 0 59.499-9.697 82.214-28.845 60.577-51.095 55.311-105.357 55.068-107.669" style="fill:gray;stroke-width:7.38469"/><path d="M420.68 266.392s58.375 20.27 105-15.213c46.736-35.622 50.807-63.785 53.004-84.95 0 0-15.684 38.214-61.912 68.612-27.074 17.815-33.388 21.166-96.093 31.55m116.863-11.14c-56.752 47.852-131.319 15.58-131.319 15.58 30.075-44.492 36.74-79.006 17.816-134.64a102 102 0 0 0-3.36-8.548L250.27 235.275l2.38 3.286s54.555 51.203 109.082 6.664c0 0 5.547 25.607-26.724 36.748-32.27 11.105-76.763-3.35-96.813-12.258-12.655-5.63-18.646-9.056-23.585-11.899l-32.455 20.474c.258 1.191.396 2.42.396 3.683 0 9.194-7.458 16.662-16.69 16.662-9.193 0-16.66-7.468-16.66-16.662 0-9.23 7.467-16.698 16.661-16.698 3.858 0 7.357 1.338 10.163 3.535l39.988-27.443c5.446-8.179 11.077-20.659 11.077-37.32 0-32.235-30.037-58.949-60.11-58.949-30.039 0-60.076 30.037-57.84 67.856 0 0-34.507-20.012-67.895-54.517-33.388-34.468-30.037-56.75-30.037-63.425s2.234-37.828 24.48-56.752c22.246-18.895 42.296-11.114 51.204-4.44 0 0-57.869 0-57.869 52.284 0 21.166 17.807 50.086 52.284 50.086 43.413 0 105.721-73.45 159.122-73.45 48.97 0 61.191 41.18 63.425 55.635 0 0-83.549 10.93-60.905 104.503l166.847-114.417c-24.489-34.367-62.53-46.837-62.53-46.837 21.13-43.376 71.217-48.933 71.217-48.933s-5.733 28.81 22.43 74.428l38.761-26.575 2.234-8.908 23.622 5.843-1.376 23.363-8.907-.286-41.032 25.92a142 142 0 0 0 3.213 4.108c46.726 58.994 131.281 46.736 131.281 46.736s5.557 50.086-51.167 97.93"/></svg>