<svg xmlns="http://www.w3.org/2000/svg" xmlns:xlink="http://www.w3.org/1999/xlink" width="599.999" height="309.778"><linearGradient id="a" x1="0" x2="1" y1="0" y2="0" gradientTransform="scale(45.02376 -45.02376)rotate(-45 -10.335 -10.647)" gradientUnits="userSpaceOnUse" spreadMethod="pad"><stop offset="0" style="stop-color:#8b723c"/><stop offset=".3" style="stop-color:#d2bb7b"/><stop offset=".5" style="stop-color:#ebd491"/><stop offset=".7" style="stop-color:#d2bb7b"/><stop offset="1" style="stop-color:#8b723c"/></linearGradient><linearGradient xlink:href="#a" id="b" x1="0" x2="1" y1="0" y2="0" gradientTransform="scale(415.6081)rotate(-45 1.01 -.082)" gradientUnits="userSpaceOnUse" spreadMethod="pad"/><path d="m599.785 156.094-1.301-11.39-11.363 1.624c-.03 0-6.74.932-17.124.932-24.59 0-69.046-5.123-99.194-38.114l27.508-17.382 5.483.185 10.818.36.646-10.819 1.376-23.363.572-9.231-9.01-2.234-23.621-5.843-10.782-2.668-2.704 10.782-1.191 4.79-25.385 17.42c-18.563-34.69-15.138-56.217-15.102-56.429L431.968 0l-14.714 1.625c-2.307.25-56.428 6.775-80.013 55.126l-5.51 11.437 12.037 4.034c.322.111 28.274 9.591 49.874 33.822l-142.792 97.94c-2.133-19.118 1.043-34.976 9.48-47.382 15.58-22.865 44.714-27.158 45.037-27.185l11.216-1.551-1.736-11.179c-4.615-30-26.862-65.05-74.42-65.05-31.44 0-63.101 21.056-93.748 41.429-23.695 15.72-48.175 32.021-65.373 32.021-26.87 0-41.178-22.643-41.178-38.982 0-9.701 2.769-18.858 9.083-26.289 4.615-5.474 11.824-9.406 18.535-11.75 6.093-2.124 12.73-3.066 19.145-3.14 4.8 0 9.019-3.101 10.533-7.606 1.476-4.541-.037-9.517-3.896-12.406-12.083-9.083-28.31-11.972-42.766-7.57-3.896 1.155-7.93 2.816-11.428 4.829-3.822 2.169-7.542 4.8-10.856 7.615C.86 53.262.066 90.832.066 95.013v1.339c-.286 9.406-1.08 34.43 33.203 69.84 34.043 35.188 68.807 55.561 70.284 56.392l17.88 10.384-1.19-20.658c-.896-15.074 4.55-30 14.898-40.994 9.046-9.591 20.658-15.074 31.837-15.074 22.643 0 48.97 20.88 48.97 47.806 0 10.754-2.705 20.631-8.077 29.428l-32.567 22.32a27.8 27.8 0 0 0-9.406-1.661c-15.36 0-27.84 12.48-27.84 27.84 0 15.323 12.48 27.803 27.84 27.803 14.566 0 26.539-11.252 27.693-25.532l21.34-13.45c4.506 2.456 10.137 5.262 18.749 9.084 9.093 4.08 41.364 17.243 74.576 17.243 11.207 0 21.453-1.55 30.398-4.652 9.987-3.434 19.32-9.019 25.772-17.53 6.748-8.945 10.606-20.908 8.15-32.059a11.03 11.03 0 0 0-7.171-8.141c-1.191-.434-2.456-.619-3.674-.619-2.53 0-5.05.83-7.071 2.492-8.908 7.283-19.44 12.767-30.831 14.779-3.35.619-6.74.905-10.173.905-18.997 0-35.585-8.982-45.028-15.434L415.02 144.38c15.175 47.308 10.384 78.166-18.028 120.25l-7.468 11.068 12.295 5.335c1.08.47 27.084 11.576 60.684 11.576 31.847 0 59.502-9.702 82.22-28.847 60.572-51.093 55.31-105.36 55.06-107.669"/><path d="M347.266 61.626s38.04 12.47 62.53 46.837L242.948 222.879c-22.643-93.573 60.905-104.502 60.905-104.502-2.234-14.456-14.455-55.635-63.388-55.635-53.437 0-115.746 73.45-159.16 73.45-34.513 0-52.282-28.92-52.282-50.086 0-52.284 57.83-52.284 57.83-52.284-8.907-6.674-28.92-14.455-51.165 4.44-22.247 18.923-24.48 50.078-24.48 56.752s-3.352 28.957 30.037 63.425c33.388 34.505 67.892 54.517 67.892 54.517-2.233-37.819 27.804-67.856 57.84-67.856 30.075 0 60.112 26.714 60.112 58.948 0 16.662-5.63 29.142-11.077 37.32l-39.988 27.444c-2.806-2.197-6.304-3.535-10.163-3.535-9.194 0-16.7 7.468-16.7 16.698 0 9.194 7.506 16.662 16.7 16.662 9.23 0 16.69-7.468 16.69-16.662a15 15 0 0 0-.434-3.683l32.492-20.474c4.939 2.843 10.93 6.268 23.585 11.899 20.05 8.908 64.58 23.363 96.813 12.258 32.272-11.141 26.724-36.748 26.724-36.748-54.527 44.54-109.081-6.664-109.081-6.664l-2.382-3.287L420.68 127.645a102 102 0 0 1 3.36 8.547c18.923 55.635 12.259 90.149-17.815 134.642 0 0 74.566 32.27 131.318-15.582 56.76-47.843 51.166-97.93 51.166-97.93s-84.554 12.258-131.28-46.736a142 142 0 0 1-3.213-4.108l41.03-25.92 8.909.286 1.375-23.363-23.66-5.843-2.196 8.908-38.797 26.575c-28.126-45.619-22.394-74.428-22.394-74.428s-50.087 5.557-71.216 48.933m73.413 204.768c62.705-10.385 69.02-13.736 96.093-31.551 46.228-30.398 61.912-68.613 61.912-68.613-2.197 21.166-6.268 49.33-53.04 84.951-21.703 16.551-46.007 20.982-65.77 20.982-22.57 0-39.195-5.77-39.195-5.77" style="fill:url(#b)"/></svg>