<svg xmlns="http://www.w3.org/2000/svg" xmlns:xlink="http://www.w3.org/1999/xlink" width="271" height="274.156"><defs><linearGradient id="a"><stop offset="0" style="stop-color:#536e78;stop-opacity:1"/><stop offset=".15" style="stop-color:#829ba5;stop-opacity:1"/><stop offset=".5" style="stop-color:#d9eaf3;stop-opacity:1"/><stop offset=".85" style="stop-color:#829ba5;stop-opacity:1"/><stop offset="1" style="stop-color:#536e78;stop-opacity:1"/></linearGradient><linearGradient xlink:href="#a" id="b" x1="364.5" x2="607.5" y1="190.5" y2="190.5" gradientTransform="translate(-350.5 -49.594)" gradientUnits="userSpaceOnUse"/></defs><path d="M135.5 0c-5.573 0-9.671 2.652-12.187 7.125l-10.72 19.031-16.812-12.875c-3.915-3.003-9.46-3.716-14-1.781s-7.892 6.44-8.437 11.344l-2.438 21.875-19.656-5.125c-4.757-1.235-10.135.26-13.562 3.781-3.428 3.522-4.77 8.935-3.407 13.656l5.969 20.532-19.594 2.656c-4.868.661-9.257 4.068-11.093 8.625-1.837 4.556-1.049 10.085 2 13.937l12.75 16.125-17.25 9.844C2.8 131.185 0 135.998 0 140.906s2.801 9.721 7.063 12.156c0 0 20.62 14.743 32.187 19.688 1.877.802 3.571 1.542 5.906 1.594 2.777.061 4.668.185 22.875-10.875 8.966-5.447 19.651-2.574 23.188-1.094 7.072 2.96 13.057 10.165 15.344 18.188s1.224 15.71-4.25 21.812-1.523 13.063-60.125 13.063c8.525 16.378 33.562 58.718 93.312 58.718s84.787-42.34 93.313-58.719c-58.603 0-54.651-6.96-60.125-13.062-5.475-6.103-6.537-13.79-4.25-21.812s8.27-15.229 15.343-18.188c3.537-1.48 14.222-4.353 23.188 1.094 18.207 11.06 20.098 10.936 22.875 10.875 2.335-.052 4.03-.792 5.906-1.594 11.567-4.945 32.188-19.687 32.188-19.687 4.26-2.436 7.062-7.249 7.062-12.157s-2.801-9.72-7.062-12.156l-17.25-9.844 12.75-16.125c3.048-3.852 3.836-9.38 2-13.937-1.837-4.557-6.226-7.964-11.094-8.625l-19.594-2.656 5.969-20.532c1.363-4.721.02-10.134-3.406-13.656-3.428-3.522-8.806-5.016-13.563-3.781l-19.656 5.125-2.438-21.875c-.545-4.904-3.898-9.41-8.437-11.344-4.54-1.935-10.085-1.222-14 1.781l-16.813 12.875-10.719-19.031C145.172 2.652 141.074 0 135.5 0" style="fill:#000;fill-opacity:1;stroke:none"/><path d="m135.5 14-18.656 33.094h37.312zm18.656 33.094L188 62.344l-4.25-37.938ZM188 62.344l24.75 26.937 10.531-36.156Zm24.75 26.937 12.844 33.688 22.875-28.875zm12.844 33.688v35.875L257 140.906Zm-108.75-75.875L87.25 24.406 83 62.344ZM83 62.344l-35.281-9.219L58.25 89.281ZM58.25 89.28l-35.719 4.813 22.875 28.875zM45.406 122.97 14 140.906l31.406 17.938zm79.875-66.906-9.219 1.78 13.876 19.376-2.094 28.625-17.938-23.031.563-23.313-9.031 3.656-2.157 12.938-13.906-2.781-6.781 6.156 21.906 8.969 15.125 27.874-30.25-12.124L74.75 83.625l-6.156 8.031 3.781 13.375-12.906 4.156-2.813 8.72 23.063-3.376 29.5 18.688-34.781 2.969-18.844-13.907-1.625 11.125 9.687 7.5-9.718 7.125 1.093 8.656c61.985-44.535 108.989 74.28 7.094 71l6.563 8.938s24.806.188 35.406-7.094l2.062 1.688c-8.58 7.686-28.125 14.25-28.125 14.25l9.656 6.594s17.54-7.246 26.282-17.25l3.719 2.03-15.844 21.813 9.625 2.938 10.344-13.938L135.5 264.47l13.688-16.813 10.343 13.938 9.625-2.938-15.844-21.812 3.72-2.031c8.741 10.004 26.28 17.25 26.28 17.25l9.657-6.594s-19.545-6.564-28.125-14.25l2.062-1.688c10.6 7.282 35.406 7.094 35.406 7.094l6.563-8.937c-101.895 3.279-54.89-115.536 7.094-71l1.094-8.657-9.72-7.125 9.688-7.5-1.625-11.125-18.844 13.906-34.78-2.968 29.5-18.688 23.062 3.375-2.813-8.719-12.906-4.156 3.781-13.375-6.156-8.031-10.625 20.563-30.25 12.124L170.5 88.439l21.906-8.97-6.781-6.156-13.906 2.782-2.156-12.938-9.032-3.656.563 23.313-17.938 23.03-2.094-28.624 13.875-19.375-9.218-1.782-10.219 9.813ZM135.5 223.719 145.594 238 135.5 249.219 125.406 238Z" style="fill:url(#b);fill-opacity:1;stroke:none"/></svg>