<svg xmlns="http://www.w3.org/2000/svg" width="95.172" height="110.813"><path d="m95.172 21.592-3.125-1.172c-3.456-1.302-9.248-4.197-13.02-7.532V0h-24.53l1.081 4.423c.167.683.248 1.324.248 1.96 0 4.544-3.697 8.241-8.241 8.241s-8.241-3.697-8.241-8.241c0-.636.081-1.277.248-1.96L40.672 0H16.139v12.89c-3.771 3.334-9.563 6.229-13.02 7.531L0 21.596l.951 3.194C8.58 50.36 7.947 61.643 7.939 61.753l-.084 1.271.737 1.055c5.89 8.27 11.79 14.94 17.623 19.936a264 264 0 0 1-.136 3.653l-.069 1.573 1.113 1.114 17.932 17.93 2.528 2.528 2.527-2.528 17.932-17.931 1.113-1.113-.069-1.573c-.002-.045-.061-1.384-.12-3.666 5.828-4.994 11.723-11.66 17.608-19.923l.751-1.054-.099-1.29c-.006-.093-.64-11.376 6.99-36.946z"/><linearGradient id="a" x1="80.1" x2="15.073" y1="73.931" y2="8.904" gradientUnits="userSpaceOnUse"><stop offset="0" style="stop-color:#8b723c"/><stop offset=".5" style="stop-color:#ebd491"/><stop offset="1" style="stop-color:#8b723c"/></linearGradient><path fill="url(#a)" d="M18.322 16.409c6.613 9.625 8.39 40.775 8.008 63.587-4.426-4.116-9.409-9.704-14.823-17.306 0 0 .864-11.449-7.129-38.237 0 0 8.311-3.12 13.944-8.044m72.472 8.044s-8.318-3.122-13.95-8.049c-2.643 3.893-6.271 13.797-7.564 38.998-.482 9.378-.493 18.353-.405 24.563 4.418-4.112 9.39-9.692 14.791-17.275-.001 0-.865-11.449 7.128-38.237M46.373 105.23V18.804c-5.953-.61-10.603-5.622-10.603-11.736 0-.969.131-1.906.351-2.808H19.716v8.209c12.746 12.746 9.938 76.042 9.938 76.042zm29.081-92.761V4.26H59.053c.221.902.351 1.839.351 2.808 0 6.113-4.648 11.124-10.601 11.735v86.423l16.714-16.715s-2.809-63.296 9.937-76.042" style="fill:url(#a)"/></svg>