<svg xmlns="http://www.w3.org/2000/svg" width="86.416" height="100.97"><path d="M13.944 12.149c6.614 9.625 8.39 40.775 8.008 63.587-4.426-4.116-9.409-9.704-14.823-17.306 0 0 .864-11.449-7.129-38.237 0 0 8.312-3.12 13.944-8.044m72.472 8.044s-8.318-3.122-13.95-8.049c-2.643 3.893-6.271 13.797-7.564 38.998-.482 9.378-.493 18.353-.405 24.563 4.418-4.112 9.39-9.692 14.791-17.275-.001 0-.865-11.449 7.128-38.237M41.995 100.97V14.544c-5.953-.61-10.603-5.622-10.603-11.736 0-.969.13-1.906.35-2.808H15.338v8.209c12.746 12.746 9.938 76.042 9.938 76.042zM71.076 8.209V0H54.675c.221.902.351 1.839.351 2.808 0 6.113-4.648 11.124-10.601 11.735v86.423l16.714-16.715c0 .001-2.809-63.296 9.937-76.042"/></svg>