<svg xmlns="http://www.w3.org/2000/svg" width="600" height="320.58"><path d="M38.724 0H561.42c12.096 30.144 25.968 60 31.548 92.244 3.096 12.336 4.272 24.984 7.032 37.368v54.648c-2.484 15-3.564 30.336-7.176 45.144-2.196 13.92-7.404 27.048-11.244 40.5-6.096 17.256-12.984 34.272-21.096 50.676H39.66c-10.836-20.856-18.708-43.128-26.064-65.388-3.24-13.224-7.644-26.112-9.468-39.612C3.096 207.744 1.92 199.92 0 192.228v-57.084c1.452-9.144 2.772-18.288 3.804-27.468C5.34 93.048 9.984 78.984 13.92 64.92 20.208 42.564 29.82 21.372 38.724 0"/><path d="M457.224 105.744s-10.788 6.384-24.804 17.208c0 0 .804-12.42 2.4-21.612 1.632-9.18.42-13.212.42-13.212s3.6-5.58 10.404-10.788c6.792-5.196 12.612-8.388 15.372-9.612 2.808-1.212 8.628-7.212 23.016-13.584 0 0 10.08 4.26 15.192 9.6 4.032 4.224 13.212 9.192 16.032 12 2.76 2.772 10.584 12.804 15.984 19.224 0 0 1.212 9.984-.42 28.776 0 0-28.368 27.984-36 39.612 0 0 10.404 1.176 14.808.372 4.404-.792 11.628-2.76 19.596-2.388 0 0 5.196-7.968 9.6-13.212l8.016 9.228s-15.6 27.192-16.824 43.596c0 0-12.372-1.224-14.388 1.176 0 0 .372-6.756-.372-11.16 0 0-18.804-1.596-34.416-.419-15.6 1.176-33.228 1.596-49.212 2.808 0 0 10.404-9.612 16.824-15.228 6.372-5.58 12.372-12 18-15.984 5.58-3.984 8.772-6.804 12.804-9.984 3.984-3.192 15.984-17.628 25.968-25.224 0 0 1.596-8.388-.805-16.776-2.388-8.436-8.808-12.432-18.792-20.016-9.984-7.596-23.208-7.596-29.628-4.416 0 0-3.564 13.224 1.224 20.016m-223.692 85.596c5.904 15.24 12.048 30.66 14.34 46.968-4.968 2.724-10.548 4.368-15.372 7.5-10.92 7.08-19.452 17.256-25.728 28.596-5.676-2.484-11.352-5.112-16.176-9-.936-2.064-.24-4.5-.288-6.696 1.272-14.448-1.68-28.884-5.904-42.612-4.164-13.224-7.872-26.676-13.68-39.336-7.416-17.532-15.516-35.148-27.852-49.824-2.532-2.208-5.568-7.128-9.276-4.26-4.596 4.212-4.644 11.712-9.612 15.648-6.372 1.788-12-2.484-17.436-5.112-3.744-1.968-9.192-4.584-8.064-9.792 2.58-10.452 8.256-19.92 10.92-30.42.192-3.276 1.692-8.532-2.388-9.984-5.532-2.772-12-2.904-17.532-5.532-2.292-1.176-2.484-4.128-1.032-6.048 2.772-4.032 5.628-8.292 9.612-11.244 8.436-1.128 16.872.792 25.26.744 13.644.371 27.288-.048 40.884.888 1.116 9.288 6.048 17.484 11.76 24.708 10.224 13.776 16.968 29.952 28.788 42.564 1.632 1.452 3.324 3.372 5.664 3.468 3.804-1.272 6.984-4.128 11.016-4.836 4.692.384 7.644 4.74 10.692 7.836 3.048 3.744 7.728 7.776 6.144 13.128-1.884 5.34-7.08 9.036-7.836 14.856-1.08 9.324-.42 18.984 3.096 27.792M383.063 70.777c11.292-4.68 22.176-10.452 33.792-14.34-.515 16.92.192 33.888-.936 50.808-.18 16.548.757 38.352.516 54.9.24 2.904-1.728 6.648-3.612 8.388-6.696 5.808-12.324 10.404-18 17.196-1.356 1.788-7.164 6.708-9.18 7.644 1.5-30.564 2.196-67.08.371-97.644-.048-1.632 1.032-4.872-.792-4.776-7.32-.613-18.708 1.08-25.968.42-.288-3.373-.611-8.245-.432-11.629 6.192-4.5 17.352-7.776 24.24-10.968m3.048 172.452c-.42 4.644-2.808 8.724-5.016 12.708-10.692-1.176-20.772-5.436-31.596-6.096-16.68-2.244-33.984-2.388-50.196 2.58-5.868 1.788-10.836 5.532-16.128 8.58-4.356-4.452-8.772-8.856-12.372-13.92 8.148-8.064 19.356-13.74 23.952-24.852 3.372-9.42-1.932-18.84-5.256-27.504-6.468-17.868-16.404-34.176-24-51.516-1.548-2.724-2.676-6.144-5.676-7.548-4.116.552-8.004 4.26-12.228 2.532-4.356-2.82-7.596-7.032-10.824-10.98-2.676-3.084-3.984-7.584-2.208-11.388 2.484-3.84 6.276-6.612 8.808-10.404 3.24-4.728 6.432-9.564 8.58-14.904 1.08-2.388-.42-4.872-2.196-6.372-7.176-5.82-16.08-8.772-23.676-13.932 3.048-5.196 6.372-10.212 9.468-15.276 5.952.42 11.436 2.772 17.34 3.276 8.436.805 16.932.805 25.368.288 4.872-.192 9.324-2.388 14.148-3.096 4.176 1.968 7.884 4.824 11.82 7.272-.516 6.228-3.192 12.132-2.352 18.42 1.128 9.42 3.096 18.888 7.224 27.468 6.372 12.744 14.064 24.888 19.356 38.196 7.032 16.884 15.192 33.336 20.628 50.868 2.676 8.244 3.096 17.904 9.744 24.18 6.096 5.352 13.128 9.564 19.884 14.064 2.808 1.968 5.856 4.08 7.404 7.356m175.872-69.036c.096 6.984-.984 13.824-1.92 20.664-1.032 6.804-1.26 13.74-2.724 20.532-1.536 7.224-3.648 14.256-5.52 21.468-3.384 15.048-9.384 29.352-15 43.692-.384 2.16-2.82 1.968-4.512 2.112-151.212-.048-302.436-.048-453.696 0-4.824-.192-9.936.696-14.676-.659-3.696-8.34-7.08-16.872-9.744-25.644 7.776-4.728 16.872-6.324 25.728-7.548 10.224-.792 20.58-.792 30.756 1.032.324-4.824.324-9.696-.096-14.532-4.644-3.18-11.388-5.292-12.612-11.58-1.92-9.18 1.692-18.18 4.032-26.904 2.064-8.712 6.708-16.404 9.888-24.744 2.256-6 7.32-11.484 6.192-18.336-.192-3.324-3.612-5.052-6.24-6.468-4.776-2.292-9.744-4.68-15.084-5.244-3.468-.469-6.192 2.388-7.596 5.196-9 18.9-13.92 39.336-22.224 58.5-4.404 11.304-9.648 22.74-18.564 31.272-3-6.516-3.552-13.788-5.388-20.628-2.16-10.776-3.468-21.696-4.644-32.532-.6-14.904-.467-29.856-.086-44.76 1.212-17.112 4.824-33.936 8.148-50.724 4.968-16.92 10.74-33.696 17.436-50.016 1.644-.18 3.336-.373 5.016-.42 155.58.143 311.112-.097 466.644.095 3.048 4.596 4.692 9.936 6.516 15.096 3.984 12.048 8.388 23.952 11.808 36.228 2.16 11.724 5.016 23.352 6.096 35.256 2.904 16.404 2.016 33.096 2.064 49.596m16.452-54.9c-2.016-10.584-3.372-21.324-6.276-31.728-1.968-12.468-7.128-24.096-10.644-36.144-3.888-10.968-8.856-21.516-13.26-32.292-1.74-.096-3.384-.192-5.016-.24-157.692.048-315.384 0-473.112.048-6.372.048-12.804-.324-19.176.24-3.096 11.484-9.372 21.84-12.792 33.228C33.092 68.628 27.32 84.792 24.32 101.58c-3.504 16.308-4.356 33-4.5 49.632-.133 16.836-.133 33.708 1.596 50.4 1.452 11.388 4.272 22.452 6.756 33.564 2.904 15.372 9.468 29.712 14.34 44.484 3.192 7.26 6.096 14.568 9 21.936 165.612.096 331.308.096 496.92 0 12.144-29.952 24.048-60.468 28.644-92.676 3.516-16.596 2.724-33.612 3.708-50.436-.9-13.08-.564-26.208-2.352-39.192" style="fill:#fff"/></svg>