<svg xmlns="http://www.w3.org/2000/svg" width="600" height="320.58"><path d="M38.725 0C29.82 21.372 20.208 42.564 13.92 64.92 9.984 78.984 5.34 93.048 3.805 107.676 2.773 116.856 1.452 126 0 135.145v57.084c1.92 7.692 3.097 15.515 4.129 23.351 1.824 13.5 6.227 26.387 9.467 39.611 7.356 22.26 15.228 44.533 26.064 65.39h520.824c8.112-16.405 15-33.42 21.096-50.677 3.84-13.452 9.048-26.58 11.244-40.5 3.612-14.808 4.692-30.144 7.176-45.144V129.61c-2.76-12.384-3.935-25.03-7.031-37.367C587.389 60 573.516 30.144 561.419 0Zm21.81 18.863c3.201.017 6.402.097 9.588.073 157.728-.048 315.421 0 473.113-.047 1.632.048 3.276.144 5.016.24 4.404 10.776 9.372 21.323 13.26 32.29 3.516 12.049 8.676 23.677 10.644 36.145 2.904 10.404 4.26 21.145 6.276 31.729 1.788 12.984 1.452 26.111 2.351 39.191-.984 16.824-.19 33.84-3.707 50.436-4.596 32.208-16.5 62.724-28.644 92.676-165.612.096-331.308.096-496.92 0-2.904-7.368-5.808-14.676-9-21.936-4.872-14.772-11.436-29.112-14.34-44.484-2.484-11.112-5.304-22.175-6.756-33.563-1.728-16.692-1.728-33.564-1.596-50.4.144-16.632.996-33.325 4.5-49.633 3-16.788 8.772-32.952 13.836-49.176 3.42-11.388 9.695-21.744 12.791-33.228 3.186-.282 6.387-.33 9.588-.313m8.317 19.057c-1.68.048-3.372.241-5.016.422C57.14 54.662 51.368 71.437 46.4 88.357c-3.324 16.788-6.936 33.611-8.148 50.723-.381 14.904-.514 29.858.086 44.762 1.176 10.836 2.484 21.755 4.644 32.531 1.836 6.84 2.387 14.111 5.387 20.627 8.916-8.532 14.16-19.967 18.565-31.271 8.304-19.164 13.224-39.6 22.224-58.5 1.404-2.808 4.128-5.664 7.596-5.196 5.34.564 10.308 2.952 15.084 5.244 2.628 1.416 6.048 3.143 6.24 6.467 1.128 6.852-3.935 12.336-6.191 18.336-3.18 8.34-7.825 16.032-9.889 24.744-2.34 8.724-5.951 17.725-4.031 26.905 1.224 6.288 7.967 8.4 12.611 11.58.42 4.836.42 9.709.096 14.533-10.176-1.824-20.532-1.825-30.756-1.033-8.856 1.224-17.953 2.82-25.729 7.548 2.664 8.772 6.049 17.303 9.745 25.643 4.74 1.356 9.851.468 14.675.66 151.26-.048 302.486-.048 453.698 0 1.692-.144 4.127.049 4.511-2.111 5.616-14.34 11.616-28.644 15-43.692 1.872-7.212 3.984-14.244 5.52-21.468 1.464-6.792 1.692-13.728 2.724-20.532.936-6.84 2.016-13.68 1.92-20.664h-.002c-.048-16.5.84-33.193-2.064-49.597-1.08-11.904-3.936-23.532-6.096-35.256-3.42-12.276-7.824-24.179-11.808-36.227-1.824-5.16-3.468-10.501-6.516-15.097-155.532-.192-311.064.048-466.644-.096m415.18 16.225s10.079 4.26 15.19 9.6c4.033 4.223 13.214 9.191 16.034 12 2.76 2.771 10.584 12.804 15.984 19.224 0 0 1.212 9.983-.42 28.775 0 0-28.368 27.983-36 39.611 0 0 10.405 1.177 14.809.374 4.404-.792 11.628-2.761 19.596-2.39 0 0 5.195-7.966 9.6-13.21l8.015 9.228s-15.6 27.192-16.824 43.596c0 0-12.371-1.224-14.387 1.176 0 0 .37-6.756-.373-11.16 0 0-18.804-1.597-34.416-.42-15.6 1.176-33.229 1.596-49.213 2.808 0 0 10.404-9.612 16.824-15.228 6.372-5.58 12.372-12 18-15.984 5.58-3.984 8.773-6.805 12.805-9.985 3.984-3.192 15.983-17.626 25.967-25.222 0 0 1.597-8.39-.803-16.778-2.388-8.436-8.81-12.431-18.793-20.015-9.984-7.596-23.207-7.596-29.627-4.416 0 0-3.565 13.223 1.223 20.015-.004.002-10.79 6.385-24.803 17.207 0 0 .805-12.42 2.4-21.611 1.632-9.18.42-13.211.42-13.211s3.599-5.581 10.403-10.79c6.792-5.195 12.613-8.386 15.373-9.61 2.808-1.212 8.627-7.212 23.015-13.584m-248.485.79c5.952.42 11.436 2.774 17.34 3.278 8.436.804 16.93.803 25.367.287 4.872-.192 9.324-2.388 14.148-3.096 4.176 1.968 7.885 4.824 11.82 7.272-.516 6.228-3.193 12.132-2.353 18.42 1.128 9.42 3.097 18.888 7.225 27.468 6.372 12.744 14.063 24.888 19.355 38.196 7.032 16.884 15.193 33.337 20.63 50.869 2.675 8.244 3.095 17.904 9.743 24.18 6.096 5.352 13.129 9.564 19.885 14.064 2.808 1.968 5.854 4.08 7.402 7.356-.42 4.644-2.807 8.723-5.015 12.707-10.692-1.176-20.772-5.436-31.596-6.096-16.68-2.244-33.983-2.388-50.195 2.58-5.868 1.788-10.837 5.532-16.13 8.58-4.355-4.452-8.77-8.856-12.37-13.92 8.148-8.064 19.355-13.74 23.95-24.851 3.373-9.42-1.93-18.84-5.255-27.504-6.468-17.868-16.404-34.176-24-51.516-1.548-2.724-2.676-6.145-5.676-7.549-4.116.552-8.004 4.261-12.228 2.533-4.356-2.82-7.596-7.032-10.824-10.98-2.676-3.084-3.983-7.585-2.207-11.389 2.484-3.84 6.274-6.612 8.806-10.404 3.24-4.728 6.432-9.564 8.58-14.904 1.08-2.388-.42-4.871-2.195-6.371-7.176-5.82-16.08-8.772-23.676-13.932 3.048-5.196 6.373-10.213 9.469-15.277m181.308 1.502c-.515 16.92.193 33.887-.935 50.807-.18 16.548.755 38.353.514 54.9.24 2.905-1.728 6.65-3.612 8.39-6.696 5.807-12.324 10.403-18 17.195-1.356 1.788-7.163 6.708-9.18 7.644 1.5-30.564 2.196-67.08.372-97.644-.048-1.632 1.033-4.872-.791-4.776-7.32-.612-18.71 1.08-25.97.42-.287-3.372-.61-8.245-.43-11.629 6.191-4.5 17.352-7.775 24.24-10.967 11.292-4.68 22.176-10.451 33.792-14.34M104.39 59.84c6.324.062 12.642 1.133 18.933 1.097 13.644.372 27.289-.049 40.885.887 1.116 9.288 6.048 17.485 11.76 24.71 10.224 13.775 16.969 29.952 28.789 42.564 1.632 1.452 3.324 3.37 5.664 3.466 3.804-1.272 6.984-4.127 11.016-4.835 4.692.384 7.643 4.74 10.691 7.835 3.048 3.744 7.728 7.777 6.144 13.13-1.884 5.34-7.08 9.035-7.835 14.855-1.08 9.324-.42 18.985 3.095 27.793 5.904 15.24 12.048 30.659 14.34 46.967-4.968 2.724-10.547 4.368-15.371 7.5-10.92 7.08-19.453 17.255-25.729 28.595-5.676-2.484-11.351-5.112-16.175-9-.936-2.064-.241-4.499-.29-6.695 1.273-14.448-1.68-28.883-5.904-42.611-4.164-13.224-7.871-26.676-13.68-39.336-7.415-17.532-15.515-35.149-27.85-49.824-2.533-2.209-5.568-7.128-9.276-4.26-4.596 4.212-4.646 11.71-9.614 15.646-6.372 1.788-12-2.483-17.435-5.111-3.744-1.968-9.193-4.583-8.065-9.791 2.58-10.452 8.256-19.922 10.92-30.422.192-3.276 1.694-8.53-2.386-9.982-5.532-2.772-12.002-2.906-17.534-5.534-2.292-1.176-2.483-4.127-1.03-6.047 2.771-4.032 5.627-8.292 9.61-11.244 2.11-.282 4.218-.374 6.327-.353"/></svg>