<svg xmlns="http://www.w3.org/2000/svg" width="232.104" height="257.143"><path d="M65.216 203.773c7.096 7.482 5.653 19.67-1.708 26.916-14.99 13.457-39.105 24.323-39.105 24.323s10.542-16.61 12.515-38.195c.293-3.324.53-8.951.353-13.396 7.42-6.771 20.878-7.066 27.945.352m129.989 13.055c-.296-3.326-.531-8.978-.354-13.396-7.421-6.802-20.935-7.068-27.944.354-7.186 7.478-5.683 19.668 1.68 26.91 14.987 13.458 39.164 24.323 39.164 24.323s-10.605-16.635-12.546-38.191M100.199 28.415C66.283 41.692 45.902 57.231 37.885 58.271c-4.671.374-12.484-2.8-20.502-9.893-9.765-8.719-9.428-15.715-9.033-17.62-2.285.075-10.777 2.107-7.677 13.356 1.894 7.572 9.69 36.274 17.56 63.196l29.099 29.65c1.897 2.127 4.79 7.422.786 12.158-4.592 5.352-10.807 4.314-13.973 3.278-1.303-.409-2.132-.796-2.132-.796 3.58 11.574 17.355 30.449 18.395 32.009 2.047-.416 17.494-2.897 28.553 9.338 10.702 11.877 5.44 25.779 3.85 29.028 19.05 21.178 33.269 35.168 33.269 35.168s14.238-13.936 33.23-35.166c-1.586-3.211-6.85-17.114 3.807-29.05 11.055-12.161 26.602-9.781 28.61-9.308.993-1.559 14.794-20.474 18.33-32.048 0 0-.856.448-2.118.82-3.178 1.057-9.393 2.052-14.076-3.259-3.818-4.799-.923-10.029.946-12.152l29.034-29.683c7.922-26.949 15.617-55.671 17.604-63.215 3.06-11.243-5.433-13.277-7.756-13.328.446 1.875.942 8.897-8.967 17.614-8.007 7.082-15.927 10.288-20.581 9.887-7.95-1.044-28.36-16.542-62.19-29.861C127.15 26.47 116.09 0 116.09 0s-11.128 26.503-15.891 28.415m-5.887 131.189L56.65 106.572l-.001-19.491 37.662 31.271zm81.168-53.026-37.721 53.033V118.33l37.72-31.243z"/></svg>