<svg xmlns="http://www.w3.org/2000/svg" id="Layer_2" width="1073.33" height="1022.01" data-name="Layer 2" version="1.1" viewBox="0 0 1073.33 1022.01"><defs id="defs1"><style id="style1">.cls-2,.cls-3{fill-rule:evenodd}.cls-3{stroke-width:0}.cls-2{stroke:#000;stroke-linecap:round;stroke-linejoin:round;stroke-width:1.08px}.cls-3{fill:#fff}</style></defs><g id="Layer_1-2" data-name="Layer 1"><g id="M"><path id="path1" d="m273.24 817.21 50.75-292.58-212.47-206.99 293.57-43.29L536.46 7.14l131.86 266.7 294.07 43.29-212.47 206.99 50.26 292.08-262.72-137.33L273.24 817.2Z" class="cls-3"/><g id="Ebene1"><path id="path2" d="m309.43 856.56 227.02 165.45 227.02-165.45-227.02-120.04Z" class="cls-3"/><g id="Ebene11"><path id="path3" d="m0 631.6 86.62-267.18 183.75 178.65-43.63 253.49Z" class="cls-3"/><path id="path4" d="m0 631.6 86.62-267.18 183.75 178.65-43.63 253.49Z" class="cls-3"/></g><path id="path5" d="m1073.33 632.41-86.62-267.18-183.75 178.65 43.63 253.49Z" class="cls-3"/><path id="path6" d="M702.24 230.13 588.42.62 869.55 0l86.46 265.58Z" class="cls-3"/><path id="path7" d="M371.97 230.75 485.79 1.24 204.66.62 118.2 266.2Z" class="cls-3"/></g><g id="Ebene2"><path id="path8" d="m176.76 338.33 248.17-36.07L536.26 76.48l111.96 225.16 248.79 36.7-179.13 175.4 42.29 248.17L537.5 644.98 314.21 760.67l41.67-246.92-179.13-175.4Z" style="fill-rule:evenodd;stroke-width:0"/><path id="path9" d="m205.58 742.44 32.96-187.84-137.46-134.97-65.31 200.28 169.8 122.53Z" class="cls-2"/><path id="path10" d="m868.09 744.87-32.96-187.84 137.46-134.97 65.31 200.28-169.8 122.53Z" class="cls-2"/><path id="path11" d="M912.17 230.64 846.99 31.61H637.51l84.59 171.17 190.08 27.86z" class="cls-2"/><path id="path12" d="m161.54 230.42 65.18-199.03H436.2l-84.59 171.17-190.08 27.86z" class="cls-2"/><path id="path13" d="m366.63 860.11 169.68-88.57 169.18 88.57-168.68 123.4-170.17-123.4Z" class="cls-2"/></g></g></g></svg>