<svg xmlns="http://www.w3.org/2000/svg" width="600" height="542.316"><path d="m304.894 16.107-103.583 99.557s-2.604 70.014-4.719 127.433c-19.225-34.004-44.01-77.85-44.01-77.85L39.672 141.613 0 247.49s78.854 146.279 97.442 180.757c-39.874 3.186-64.4 13.246-75.993 31.089-4.867 7.47-6.67 15.144-6.67 21.977 0 5.56 1.165 10.549 2.914 14.521l7.308 16.46 18.005-2.061c35.32-4.027 100.466-6.196 124.667 5.355 38.03 18.1 81.037 38.6 146.441 18.317 49.46-15.361 92.9-19.334 122.28-11.172 16.853 4.719 41.8 5.871 74.15 3.444 12.026-.909 22.777-2.074 29.665-2.97 4.23-.583 7.836-1.002 10.955-1.585C570.972 519.98 600 505.2 600 470.669c0-30.14-31.617-56.401-49.202-68.63a204204 204204 0 0 0 36.593-48.837l-8.42-103.91-100.465 8.637s-18.805 20.866-28.174 31.292c3.39-64.875 8.366-161.53 8.366-161.53L321.693 0Z" style="fill:gray"/><path d="m461.924 391.232 13.247 15.145 52.958-64.293-.95-28.336zm-342.287-163.55-35.956-6.617 90.771 173.977s32.146 18.9 28.39-18.913zm279.852-70.91-28.336-28.39-17.002 268.572s3.715 35.902 32.092 28.377zM130.971 438.577 26.953 245.687l28.391-75.682 81.295 17.002 81.348 143.743 7.525-204.226 96.493-92.683 111.542 104.018-11.389 219.37 68.157-75.627 66.15-5.722 5.721 70.014-51.114 68.048 18.914 3.77s45.379 28.39 45.379 52.957c0 24.622-26.425 26.534-26.425 26.534s-71.912 11.28-105.97 1.857c-34.004-9.436-81.294-5.667-136.164 11.335-54.815 17.056-88.819 1.898-128.585-17.002-39.725-18.914-138.021-7.58-138.021-7.58S25.055 451.81 127.16 451.81c0 0 5.668-11.375 3.81-13.233"/></svg>