<svg xmlns="http://www.w3.org/2000/svg" xml:space="preserve" width="150.001" height="107.365" viewBox="0 0 150.001 107.365"><path fill="#5d5e61" d="M150.001 57.435s-1.33-7.441-4.937-15.715c-3.754-8.608-9.705-14.684-9.705-14.684s-14.007 5.968-25.277 17.872l-2.009-1.339c5.525-7.046 10.685-11.4 13.447-13.478l3.512-2.641-2.54-3.585C111.913 8.92 94.159 0 75 0S38.088 8.92 27.509 23.864l-2.54 3.585 3.511 2.641c2.763 2.077 7.921 6.432 13.447 13.478l-2.009 1.339C28.649 33.003 14.641 27.035 14.641 27.035s-5.95 6.076-9.704 14.684C1.33 49.993 0 57.434 0 57.434s6.605-.408 12.947.826c-7.346 9.883-7.665 23.719-7.665 23.719s9.34-1.589 16.02-1.589c23.238 0 38.671 11.04 42.405 13.876 6.268 4.761 11.292 13.099 11.292 13.099s5.024-8.338 11.293-13.099c3.734-2.836 19.168-13.876 42.406-13.876 6.68 0 16.019 1.589 16.019 1.589s-.318-13.836-7.664-23.719c6.342-1.234 12.948-.825 12.948-.825"/><path d="m37.67 49.13 16.852 24.101c-3.334-2.76-12.609-10.021-24.302-14.618-14.696-5.777-24.493-5.699-24.493-5.699 2.826-11.682 10.079-20.255 10.079-20.255S26.695 38.047 37.67 49.13m96.524-16.472s7.254 8.573 10.079 20.255c0 0-9.797-.078-24.492 5.699-11.693 4.597-20.968 11.858-24.302 14.618l16.851-24.101c10.976-11.082 21.864-16.471 21.864-16.471M47.088 69.487c-4.58-3.196-10.6-6.792-17.419-9.472a94 94 0 0 0-9.885-3.28c-7.968 9.089-9.283 19.761-9.283 19.761s3.517-.629 10.803-.629c29.204 0 45.47 15.074 45.47 15.074S59.99 78.49 47.088 69.487m36.141 21.454S99.496 75.867 128.7 75.867c7.285 0 10.802.629 10.802.629s-1.314-10.672-9.283-19.761a94 94 0 0 0-9.886 3.28c-6.819 2.68-12.84 6.275-17.419 9.472C90.01 78.49 83.229 90.941 83.229 90.941M61.379 6.187A56.3 56.3 0 0 1 75 4.523c4.712 0 9.277.581 13.62 1.664-2.184 5.067-5.01 14.531-2.266 25.611L75 24.225l-11.354 7.573c2.743-11.08-.082-20.544-2.267-25.611m-1.829.492c-11.751 3.363-21.739 10.458-28.351 19.799 3.378 2.541 9.521 7.801 15.866 16.379l14.184-9.459c3.613-11.68.516-21.708-1.699-26.719m29.202 26.718 14.184 9.459c6.345-8.579 12.488-13.839 15.866-16.379-6.612-9.341-16.6-16.436-28.352-19.799-2.214 5.01-5.312 15.04-1.698 26.719m2.86 41.699V38.024l17.806 11.874zM40.583 49.898l17.806 25.198V38.024ZM75 26.944 59.896 37.017v40.211L75 98.603l15.104-21.375V37.017Z"/></svg>