<svg xmlns="http://www.w3.org/2000/svg" xml:space="preserve" width="150" height="107.366" viewBox="0 0 150 107.366"><path fill="#fff" d="M150 57.434s-1.33-7.439-4.938-15.713c-3.754-8.608-9.705-14.684-9.705-14.684s-14.006 5.968-25.275 17.872l-2.01-1.339c5.525-7.046 10.685-11.4 13.447-13.478l3.512-2.641-2.54-3.585C111.912 8.92 94.158 0 74.999 0S38.087 8.92 27.508 23.864l-2.54 3.585 3.511 2.641c2.763 2.077 7.921 6.432 13.447 13.478l-2.009 1.339C28.648 33.003 14.64 27.035 14.64 27.035s-5.95 6.076-9.704 14.684C1.33 49.993 0 57.434 0 57.434s6.605-.408 12.947.825c-7.346 9.884-7.665 23.72-7.665 23.72s9.34-1.588 16.02-1.588c23.238 0 38.671 11.039 42.405 13.875 6.268 4.762 11.292 13.1 11.292 13.1s5.024-8.338 11.294-13.1c3.732-2.836 19.166-13.875 42.405-13.875 6.681 0 16.019 1.588 16.019 1.588s-.318-13.836-7.664-23.72c6.342-1.234 12.947-.825 12.947-.825"/><path d="m37.669 49.13 16.852 24.101c-3.334-2.76-12.609-10.021-24.302-14.616-14.696-5.778-24.493-5.7-24.493-5.7C8.552 41.233 15.805 32.66 15.805 32.66s10.889 5.387 21.864 16.47m96.524-16.472s7.254 8.573 10.078 20.255c0 0-9.797-.078-24.492 5.7-11.691 4.596-20.967 11.857-24.301 14.617l16.852-24.102c10.975-11.081 21.863-16.47 21.863-16.47M47.087 69.486c-4.58-3.195-10.6-6.791-17.419-9.471a93 93 0 0 0-9.885-3.279c-7.968 9.088-9.283 19.76-9.283 19.76s3.517-.629 10.803-.629c29.204 0 45.47 15.074 45.47 15.074S59.989 78.49 47.087 69.486m36.141 21.455s16.267-15.074 45.471-15.074c7.285 0 10.802.629 10.802.629s-1.313-10.672-9.282-19.76a93 93 0 0 0-9.886 3.279c-6.819 2.68-12.84 6.274-17.42 9.471C90.01 78.49 83.228 90.941 83.228 90.941M61.378 6.187a56.3 56.3 0 0 1 13.621-1.664c4.712 0 9.276.581 13.62 1.664-2.184 5.067-5.01 14.531-2.266 25.611l-11.354-7.573-11.354 7.573c2.743-11.08-.082-20.544-2.267-25.611m-1.829.492C47.798 10.041 37.81 17.137 31.198 26.478c3.378 2.541 9.521 7.801 15.866 16.379l14.184-9.459c3.613-11.68.516-21.708-1.699-26.719m29.202 26.718 14.185 9.459c6.345-8.579 12.486-13.839 15.865-16.379-6.611-9.341-16.6-16.436-28.352-19.799-2.215 5.01-5.312 15.04-1.698 26.719m2.86 41.699V38.024l17.805 11.874zM40.582 49.898l17.806 25.198V38.024Zm34.417-22.954L59.895 37.017v40.211l15.104 21.375 15.104-21.375V37.017Z"/></svg>