<svg xmlns="http://www.w3.org/2000/svg" xml:space="preserve" width="150.001" height="101.858" viewBox="0 0 150.001 101.858"><path d="m34.584 48.294 18.245 26.093c-3.61-2.987-13.652-10.85-26.311-15.826C10.607 52.306 0 52.39 0 52.39c3.06-12.648 10.913-21.929 10.913-21.929s11.789 5.835 23.671 17.833m104.504-17.833s7.854 9.281 10.913 21.929c0 0-10.607-.084-26.518 6.171-12.66 4.977-22.701 12.839-26.312 15.826l18.244-26.093c11.885-11.998 23.673-17.833 23.673-17.833M44.781 70.335c-4.958-3.462-11.477-7.354-18.86-10.256a102 102 0 0 0-10.702-3.551C6.592 66.368 5.168 77.922 5.168 77.922s3.807-.68 11.695-.68c31.618 0 49.229 16.32 49.229 16.32s-7.343-13.481-21.311-23.227m39.128 23.228s17.61-16.32 49.229-16.32c7.887 0 11.694.68 11.694.68s-1.423-11.554-10.051-21.394a101 101 0 0 0-10.702 3.551c-7.383 2.901-13.901 6.794-18.859 10.256-13.969 9.745-21.311 23.227-21.311 23.227M60.253 1.801A61 61 0 0 1 75 0c5.101 0 10.044.629 14.746 1.801-2.363 5.486-5.424 15.732-2.453 27.729L75 21.331 62.707 29.53c2.97-11.997-.088-22.243-2.454-27.729m-1.98.533C45.55 5.974 34.736 13.656 27.578 23.769c3.658 2.75 10.309 8.446 17.178 17.734l15.356-10.242c3.912-12.645.559-23.501-1.839-28.927m31.616 28.927 15.356 10.242c6.869-9.288 13.521-14.983 17.178-17.734-7.158-10.113-17.972-17.795-30.695-21.435-2.398 5.424-5.752 16.282-1.839 28.927m3.096 45.146V36.271l19.278 12.855zM37.738 49.126l19.278 27.28V36.271zM75 24.274 58.648 35.18v43.536L75 101.858l16.354-23.142V35.18z"/></svg>