<svg xmlns="http://www.w3.org/2000/svg" width="477.92" height="500" viewBox="0 0 477.92 500"><path d="M102.21 0 63.13 53.08l-3.1 41.88 22.68 40.23-64.14 58.51L0 296.79l101.93-51.16 78.83-136.18-73.04-31.5Zm273.5 0-5.51 77.95-73.04 31.5 78.83 136.18 101.93 51.16-18.57-103.09-64.14-58.51 22.68-40.23-3.1-41.88zM238.96 54.79l-99.59 172.06 99.59-50 99.59 50zm0 147.76-102.12 51.26 102.12 232.51 102.12-232.51zm-122.69 61.6L10.6 317.19 219.86 500Zm245.38 0L258.06 500l209.26-182.8Z" style="fill:gray;stroke-width:10"/><path d="m91.64 36.5-15.7 21.32-2.53 34.16 25.86 45.88-68.57 62.55-13.13 72.89 74.97-37.63 69.47-120L95.2 86.84Zm294.64 0-3.56 50.34-66.81 28.82 69.47 120 74.97 37.63-13.13-72.89-68.57-62.55 25.86-45.88-2.52-34.16zM238.96 80.98l-66.24 114.43 66.24-33.26 66.24 33.26zm0 136.25-85.09 42.71 85.09 193.74 85.09-193.74zm-129.15 64.85-75.87 38.09 150.25 131.25zm258.3 0-74.38 169.34 150.25-131.25z" style="stroke-width:10"/></svg>