<svg xmlns="http://www.w3.org/2000/svg" width="442.78" height="417.18" viewBox="0 0 442.78 417.18"><path d="m74.07 0-15.7 21.32-2.53 34.16 25.86 45.88-68.57 62.55L0 236.8l74.97-37.63 69.47-120-66.81-28.83Zm294.64 0-3.56 50.34-66.81 28.82 69.47 120 74.97 37.63-13.13-72.89-68.57-62.55 25.86-45.88-2.52-34.16zM221.39 44.48l-66.24 114.43 66.24-33.26 66.24 33.26zm0 136.25-85.09 42.71 85.09 193.74 85.09-193.74zM92.24 245.58l-75.87 38.09 150.25 131.25Zm258.3 0-74.38 169.34 150.25-131.25z" style="stroke-width:10"/></svg>