<?xml version="1.0" encoding="UTF-8" standalone="no"?>
<svg
   id="Layer_2"
   data-name="Layer 2"
   viewBox="0 0 720.28432 818.54"
   version="1.1"
   width="720.2843"
   height="818.53998"
   xmlns="http://www.w3.org/2000/svg"
   xmlns:svg="http://www.w3.org/2000/svg">
  <defs
     id="defs10">
    <style
       id="style1">
      .cls-1 {
        fill: url(#linear-gradient);
      }

      .cls-1, .cls-2 {
        stroke-width: 0px;
      }

      .cls-2 {
        fill: #fff;
      }
    </style>
    <linearGradient
       id="linear-gradient"
       x1="663.91998"
       y1="712.42999"
       x2="155.55"
       y2="106.57"
       gradientUnits="userSpaceOnUse">
      <stop
         offset="0"
         stop-color="#612c75"
         id="stop1" />
      <stop
         offset=".07"
         stop-color="#744284"
         id="stop2" />
      <stop
         offset=".19"
         stop-color="#94679f"
         id="stop3" />
      <stop
         offset=".31"
         stop-color="#ab82b3"
         id="stop4" />
      <stop
         offset=".42"
         stop-color="#ba93be"
         id="stop5" />
      <stop
         offset=".5"
         stop-color="#bf99c3"
         id="stop6" />
      <stop
         offset=".58"
         stop-color="#b790bc"
         id="stop7" />
      <stop
         offset=".71"
         stop-color="#a277ab"
         id="stop8" />
      <stop
         offset=".87"
         stop-color="#80508f"
         id="stop9" />
      <stop
         offset="1"
         stop-color="#612c75"
         id="stop10" />
    </linearGradient>
  </defs>
  <g
     id="Layer_1-2"
     data-name="Layer 1"
     transform="translate(0.00429292)">
    <g
       id="g11">
      <path
         class="cls-1"
         d="m 406.51,804.54 c -13.4,0 -25.26,-0.43 -33.41,-1.21 -48.74,-4.59 -93.8,-17.3 -137.75,-38.85 C 123.03,709.31 42.68,603.28 20.4,480.84 0.63,371.89 27.31,259.16 93.62,171.57 128.68,125.31 174.23,86.56 225.34,59.51 276.48,32.44 333.65,16.83 390.67,14.37 396.56,14.12 402.51,14 408.35,14 c 69.96,0 136.32,17.48 197.24,51.94 23.83,13.43 55.05,36.46 74.19,54.74 l 20.1,19.32 -79.02,73.22 c -37.04,34.25 -77.07,71.64 -77.47,72.02 l -9.93,9.27 -9.57,-9.64 c -0.32,-0.32 -35.2,-34.62 -87.31,-42.13 l -0.43,-0.07 c -6.38,-1.12 -18.19,-1.88 -29.39,-1.88 -5.59,0 -10.58,0.2 -14.05,0.56 -52.63,5.66 -98.82,34.59 -126.66,79.35 l -1.32,2.1 c -9.18,14.61 -24.53,39.07 -24.02,86.32 1,92.05 60.99,136.19 96.66,154.31 13.63,6.89 35.08,13.22 50.98,15.02 l 0.31,0.04 c 6.59,0.9 13.62,1.36 20.87,1.36 30.13,0 74.21,-7.67 113.04,-44.21 l 9.44,-8.88 9.58,8.72 c 1.01,0.92 140.14,129.84 145.53,135.05 l 10.13,9.81 -9.88,10.06 c -3.82,3.89 -16.59,16.36 -29.7,27.25 l -0.17,0.14 c -57.74,46.42 -122.19,73.94 -197.03,84.11 -14.28,1.94 -37.24,2.64 -53.97,2.64 z"
         id="path10"
         style="fill:url(#linear-gradient)" />
      <path
         class="cls-2"
         d="m 408.35,28 c 67.31,0 131.62,16.9 190.35,50.13 22.93,12.92 53.31,35.39 71.42,52.68 l 9.37,9.01 -68.14,63.14 c -37.48,34.66 -77.51,72.06 -77.51,72.06 0,0 -37.5,-37.8 -95.25,-46.13 -7.52,-1.32 -20.4,-2.09 -31.81,-2.09 -5.86,0 -11.33,0.2 -15.49,0.63 -56.68,6.1 -107.17,37.76 -137.1,85.88 -9.64,15.47 -28.03,42.31 -27.45,95.97 0.97,89.22 54.8,141.49 104.32,166.64 15.47,7.82 38.71,14.52 55.74,16.45 6.4,0.87 14.1,1.49 22.77,1.49 33.54,0 81.37,-9.19 122.64,-48.02 1.4,1.28 140.42,130.11 145.21,134.76 -3.26,3.32 -15.84,15.64 -28.66,26.29 -55.68,44.76 -117.91,71.33 -190.15,81.15 -11.83,1.61 -32.79,2.51 -52.08,2.51 -12.3,0 -23.93,-0.37 -32.08,-1.15 C 327.14,784.94 283.84,772.66 241.53,751.92 133.17,698.7 55.66,596.35 34.19,478.35 15.08,373.09 40.74,264.64 104.79,180.03 173.74,89.04 279.28,33.18 391.27,28.36 v 0 C 396.99,28.12 402.68,28 408.35,28 m 0,-28 c -6.04,0 -12.18,0.13 -18.26,0.39 -29.82,1.28 -59.6,5.96 -88.55,13.91 -28.57,7.84 -56.41,18.89 -82.76,32.84 -26.33,13.94 -51.23,30.81 -74.01,50.13 -23.06,19.56 -44.02,41.71 -62.31,65.84 -17.04,22.51 -31.77,46.91 -43.78,72.53 -11.88,25.34 -21.18,52.03 -27.64,79.35 -6.45,27.3 -10.12,55.38 -10.89,83.46 -0.78,28.38 1.4,56.94 6.48,84.89 23.07,126.8 106.27,236.59 222.55,293.7 45.51,22.32 92.16,35.47 142.64,40.23 10.95,1.05 24.92,1.27 34.7,1.27 17.18,0 40.88,-0.73 55.86,-2.77 77.43,-10.53 144.13,-39.01 203.91,-87.07 l 0.18,-0.14 0.17,-0.14 c 13.55,-11.26 26.79,-24.18 30.74,-28.21 l 19.76,-20.12 -20.26,-19.61 C 691.51,655.28 552.05,526.06 551.04,525.14 l -19.16,-17.45 -18.87,17.76 c -35.5,33.4 -75.85,40.41 -103.45,40.41 -6.53,0 -13.09,-0.43 -18.98,-1.23 l -0.31,-0.04 -0.32,-0.04 c -14.23,-1.62 -34.12,-7.47 -46.27,-13.62 -32.8,-16.66 -88.04,-57.29 -88.96,-141.96 -0.47,-43.14 12.98,-64.55 21.88,-78.72 0.46,-0.73 0.9,-1.44 1.33,-2.12 25.56,-41.1 67.94,-67.64 116.29,-72.85 1.77,-0.18 5.72,-0.48 12.55,-0.48 11.49,0 22.26,0.84 26.96,1.67 l 0.43,0.08 0.43,0.06 c 46.32,6.68 77.99,36.8 79.42,38.18 l 19.08,19.63 19.86,-18.94 c 0.4,-0.37 40.41,-37.74 77.41,-71.96 l 68.16,-63.16 21.76,-20.17 -21.39,-20.56 -9.37,-9.01 -0.03,-0.03 -0.03,-0.03 C 669.58,91.58 637.19,67.68 612.45,53.74 549.44,18.09 480.76,0 408.35,0 Z"
         id="path11" />
    </g>
  </g>
</svg>
