<?xml version="1.0" encoding="UTF-8" standalone="no"?>
<svg
   id="Layer_2"
   data-name="Layer 2"
   viewBox="0 0 651.5113 762.53341"
   version="1.1"
   width="651.51129"
   height="762.53339"
   xmlns="http://www.w3.org/2000/svg"
   xmlns:svg="http://www.w3.org/2000/svg">
  <defs
     id="defs1">
    <style
       id="style1">
      .cls-1 {
        stroke-width: 0px;
      }
    </style>
  </defs>
  <g
     id="Layer_1-2"
     data-name="Layer 1"
     transform="translate(0.00128599,-1.669584e-4)">
    <path
       class="cls-1"
       d="M 363.27,0.36 C 251.28,5.18 145.74,61.04 76.78,152.02 12.73,236.63 -12.93,345.08 6.18,450.34 c 21.47,118 98.98,220.35 207.34,273.57 42.31,20.74 85.61,33.03 132.92,37.48 20.93,2 64.78,1.27 84.16,-1.36 72.24,-9.83 134.47,-36.39 190.15,-81.15 12.82,-10.65 25.4,-22.97 28.66,-26.29 -4.79,-4.64 -143.81,-133.48 -145.21,-134.76 -51.92,48.85 -114.24,50.79 -145.4,46.53 -17.03,-1.94 -40.27,-8.63 -55.74,-16.45 -49.52,-25.15 -103.35,-77.42 -104.32,-166.64 -0.58,-53.66 17.8,-80.5 27.45,-95.97 29.93,-48.13 80.43,-79.79 137.11,-85.88 12.28,-1.27 35.94,-0.55 47.31,1.46 57.75,8.32 95.25,46.13 95.25,46.13 0,0 40.03,-37.39 77.51,-72.06 l 68.14,-63.14 -9.37,-9.01 C 624.04,85.51 593.65,63.04 570.72,50.12 507.02,14.1 436.78,-2.73 363.27,0.36 Z"
       id="path1" />
  </g>
</svg>
