<svg xmlns="http://www.w3.org/2000/svg" width="1024" height="1024"><linearGradient id="a" x1="0" x2="50" y1="25" y2="25" gradientTransform="scale(20.48)" gradientUnits="userSpaceOnUse"><stop offset="0" style="stop-color:#536e78"/><stop offset=".468" style="stop-color:#d9eaf3"/><stop offset="1" style="stop-color:#536e78"/></linearGradient><path fill="url(#a)" d="M512 1024c-155.61 0-303.72-72.01-400.65-193.66l-1.09.6-1.72.65a80.4 80.4 0 0 1-27.664 4.9c-25.068 0-48.21-11.51-63.652-31.71C6.164 790.16 0 771.75 0 752.84c0-18.45 5.591-35.69 16.712-51.3a69.2 69.2 0 0 1 14.172-14.5C10.404 630.95 0 572.11 0 511.96 0 229.64 229.64 0 512 0c282.3 0 512 229.64 512 511.96 0 55.09-8.7 109.16-25.85 160.85 1.48 1.45 2.95 2.99 4.45 4.55l1.2 1.2 1 1.29 6.3 8.61.8 1.1.7 1.21c7.5 12.92 11.4 27.53 11.4 42.09 0 18.1-5.8 35.14-17 49.5-15.79 20.01-39.95 31.49-66.39 31.49-4.82 0-9.61-.4-14.4-1.14C829.64 945.3 676.11 1024 512 1024" style="fill:url(#a);stroke-width:20.48"/><path d="m968.44 710.1-.29-.3c-8.35-8.75-17.26-15.96-25.87-22.35 22.1-54.15 34.39-113.35 34.39-175.45 0-256.66-208.06-464.691-464.67-464.691C255.37 47.309 47.309 255.34 47.309 512c0 69.14 15.196 134.7 42.291 193.6-7.434 6.41-15.708 12.04-25.498 16.5.103 0-.819.41-.819.41-3.318 1.5-5.919 3.65-8.089 6.6l-.635.86c-4.752 6.65-7.271 14.6-7.271 22.9 0 8.49 2.724 16.79 7.639 23.24 8.971 11.8 23.593 16.1 37.253 11.1 2.028-.76 4.445-2.05 6.185-3.36h.04c8.005-6.24 16.655-11.45 25.885-15.75C207.44 893.81 350 976.65 512 976.65c166.81 0 313-87.9 394.98-219.89 5.98 1.94 11.98 4.15 17.86 6.84.92.34 1.8.65 2.76.94 16.36 4.85 32.87.31 42.17-11.45 4.57-5.9 6.94-12.8 6.94-20.19 0-6.31-1.74-12.7-5.1-18.56-.92-1.43-2-2.99-3.17-4.24M908.25 512c0 41.31-6.35 81.14-18.13 118.6-28.81-110.06-81.2-225.16-121.81-298.29-3.22-14.19-4.26-29.55-5.12-44.44 0-.31-.94-14.15-1.07-16.16.1-1.66.39-7.05.39-7.05v-1.1c0-14.91-4.67-26.05-13.86-33.1-10.35-7.9-23.88-8.81-40.35-2.74-7 2.56-15.63 1.29-26.54-.31.24 0 .43 0 .63.1-23.9-4.26-40.44-5.41-57.95-6.65-33-2.85-33-2.85-33.92-2.85-17.1 0-29.43 14.25-33.63 27.54a17.4 17.4 0 0 0-.74 3.1l-.86 5.34a21 21 0 0 0-.28 3.4v.25c.18 10.65 5.14 20.09 13.68 25.9l14.01 9.3 23.47 15.96c6.86 8.95 8.43 15.19 8.64 20.46-1.64 2.56-3.4 5.2-3.4 5.2-9.83 15.36-19.13 29.76-29.96 40.75-.25.21-.53.56-.72.76l-3.48 3.85c-3.73 3.85-9.65 10.2-11.43 21.3-.2 1.11-.26 2.19-.26 3.36 0 2.11.45 4.16.79 6.25-2.47-1.15-4.93-2.05-7.39-2.61-12.37-2.9-24.29.95-31.87 10.35-1.45 1.84-2.86 4.15-3.66 6.45l-.25.69c-1.19 3.26-2.17 5.6-3.19 7.95-4.61-7.95-24.72-42.8-24.72-42.8-63.24-111.8-92.18-157.25-124.05-156.2-.55 0-1.15 0-1.74.14-44.3 5.14-76.82 2.7-125.13-1.9-.41 0-.78 0-1.21-.11h-.74c-1.04 0-1.92 0-2.99.15-4.18.45-8.4 2.11-12.45 4.3 72.13-74.8 173.2-121.45 285.04-121.45 218.5 0 396.25 177.81 396.25 396.31M199.09 269.25c-.99 2.91-1.64 5.8-1.64 8.36v2.29c0 10.55 7.78 19.5 18.2 20.95l2.36.31c33.03 4.5 33.42 14.99 33.42 25.25 0 .7-.12 2.7-.22 4.69-9.03 34.2-18.64 52.9-27.65 67.81l-.41.65c-1.97 3.3-2.99 7.05-2.99 10.9v.7c0 8.11 3.65 14.99 8.83 20.91-8.97 1.9-16.37 7.04-20.54 14.84-.41.7-.74 1.46-1.03 2.2l-.33.69c-.14.49-.34 1.01-.49 1.46-19.04 59.59-40.88 119.95-68.63 189.85-.1.14-.28.41-.39.55-14.09-40.65-21.89-84.26-21.89-129.66 0-91.4 31.21-175.6 83.4-242.75m312.91 639c-127.75 0-241.5-60.81-314.02-154.89 11.06 0 22.65.55 34.92 2 .41 0 .8.11 1.23.11h3.91c16.18-1.5 28.04-14.54 29.51-32.36v-3.75c0-17.86-10.48-32.44-26.07-36.45-1.04-.25-2.13-.41-3.17-.56-2.34-.2-3.4-.45-4.1-.9-.92-6.7-1.64-13.39-1.64-19.91 0-44.74 19.64-100.14 59.97-169.3 1.25-2.15 1.29-1.4 1.76-3.81l2.27-12.56c.17-.86.25-1.21.25-1.39 0-.49-.29-.45-.51-2.01l-.37-2.15c-.25-1.66-.7-3.25-1.35-4.79-1.66-3.99-4.49-7.74-7.81-11.3 8.81-1.56 16.47-5.66 22.04-12.21.47-.59.94-1.21 1.35-1.84 0 0 .76-1.15 1.21-1.81 2.13-1.84 3.91-3.95 5.16-6.55 0 0 1.8-3.81 2.5-5.2.8-1.39 2.87-4.69 2.87-4.69.2-.35.41-.66.59-1.05l3.28-6.04c.41-.75.94-1.94 1.21-2.7 0 0 .32-.76.41-.94 68.11 34.14 136.56 267.34 144.54 356.8-.1-.66-.1-1.29-.1-1.9 0 17.14 9.05 31.94 23.1 37.7 5.96 2.46 12.37 2.91 19.01 1.39 2.35-.59 4.65-1.55 6.69-2.95l5.86-3.81c3.48-2.29 7.4-5.85 21.87-19.21l58.97-54.11c-.64.56-1.09.8-1.76 1.36 17.51-12.6 21.13-29.11 23.08-37.95l.2-1.05c.33-1.45.47-2.91.47-4.44 0-1.74-.16-3.44-.59-5.1l-.1-.49c-.21-.94-.6-2.3-.99-3.2-9.01-22.96-19.27-47.8-32.93-73.4-6.14-12.35-9.28-24.31-9.28-36.1 0-13.85 4.06-27.1 8.75-42.5 5-16.24 10.61-34.65 12.37-56.71 0-.49.1-1.11.1-1.66 0-1.74-.22-3.6-.51-5.1-.23-1.1-.76-2.19-1.07-3.36.58.21 1.07.45 1.64.66 3.75 1.15 14.09 3.75 23.35 1.1 1.86-.49 3.54-1.45 5.28-2.25-.1 0-.1.1-.18.15.1-.11.24-.15.41-.25 2.15-1 4.24-2.05 6.31-3.5 1.72 1.14 3.72 3.15 6 6.94 31.54 50.85 57.53 109.2 77.39 173.75 3.34 16.06 4.88 27.2 4.88 35.6 0 10.79-2.42 14.15-3.55 15.36-1.43 1.29-5.2 4.6-5.2 4.6-10.4 9.26-20.95 18.66-29.59 23.66l-.95.55c-4.89 2.85-8.45 7.6-9.85 13.05l-.22.9c-.9 3.4-2.13 8.64-2.13 14.64 0 10.65 4.05 17.76 7.41 21.79 5.04 6.04 14.65 13.01 32.07 11.7h.8c4.3-.31 8.36-1.85 11.64-4.51l.75-.66c9.32-7.39 22.18-13.39 38.89-18.35 22.78-4.09 42.99-5.09 61.71-4.89C759.83 844 643.3 908.25 512 908.25" style="stroke-width:20.48"/></svg>