<svg xmlns="http://www.w3.org/2000/svg" width="600" height="431.492"><radialGradient id="a" cx="0" cy="0" r="1" fx="0" fy="0" gradientTransform="translate(299.987 215.766)scale(228.10372)" gradientUnits="userSpaceOnUse" spreadMethod="pad"><stop offset="0" style="stop-color:#d9eaf3"/><stop offset=".7" style="stop-color:#99aebc"/><stop offset="1" style="stop-color:#536e78"/></radialGradient><path d="M398.202 206.944v98.175h-44.67c12.308-27.044 22.966-50.56 44.67-98.175m-118.444-80.57c-10.54 22.297-14.92 31.52-27.519 58.197-12.006-26.763-16.224-36.073-26.213-58.197zM0 0v126.417h62.07c10.453 22.416 59.837 128.228 82.879 177.612H21.197v127.463H600v-126.33s-39.945-.078-52.76-.119V126.416H600V0Z"/><path d="M322.691 99.157H183.934l67.712 150.386zm-11.456 233.19h114.183V99.2h-8.09zM79.384 99.2H27.216V27.228h545.568V99.2h-52.761v232.974l52.76.172v71.93H48.414v-73.03h139.264z" style="fill:#536e78"/><path d="M33.67 33.708v59.04h49.848l1.77 3.753L193.58 328.504l4.304 9.234H54.91v60.085h511.383v-59.028l-46.31-.13h-6.45V92.747h52.76V33.708ZM245.75 252.194 178.037 101.81l-4.132-9.148h158.983l-4.336 9.234-71.045 150.386-5.987 12.729zm59.589 77.453L411.442 96.545l1.726-3.798h18.748v246.08H301.163Z" style="fill:url(#a);stroke-width:10.7873"/></svg>