<svg xmlns="http://www.w3.org/2000/svg" width="600.001" height="487.855" viewBox="0 0 600.001 487.855"><path d="M51.643 264.588C51.643 101.09 158.59.595 277.545.595c0 0 .878 9.084-.878 18.304-1.581 8.303-34.081 28.13-33.847 65.264.215 33.847 24.382 58.239 57.79 58.239 31.651 0 57.8-24.607 57.8-58.239 0-34.286-31.827-55.126-33.622-65.488C323.08 8.82 323.91 6.37 323.91 0c94.27 0 225.686 78.23 225.686 264.578-59.926-4.108-92.993 31.085-99.178 48.345 46.286 53.322 83.792 48.629 149.583 48.629-3.406 8.313-132.04 126.303-132.04 126.303l-333.91-.264L0 361.064c72.738 0 116.693-1.542 148.12-48.346-12.636-52.082-96.477-48.13-96.477-48.13" style="fill:gray;stroke-width:9.7569"/><path d="M437.236 334.134c56.55 44.13 75.43 45.76 115.609 47.185-24.129 23.124-59.03 55.712-92.632 86.592l-318.23-.253-92.72-87.51c47.623-2.605 51.282 2.995 113.238-46.014zm-.322-38.647c13.19-21.484 44.374-47.301 92.202-50.765-4.79-86.602-40.51-138.83-70.815-167.926-29.866-28.665-68.25-48.033-106.653-54.482 10.938 13.064 26.685 33.632 26.685 61.859 0 43.828-34.14 78.172-77.733 78.172-44.023 0-77.44-33.544-77.723-78.036-.186-28.334 14-48.58 25.085-61.488-42.98 6.733-82.427 28.13-113.268 61.908-19.66 21.524-35.066 47.262-45.78 76.504-9.503 25.904-15.132 54.11-16.82 84.075 28.119 2.39 73.576 12.323 90.583 50.336z"/></svg>