<svg xmlns="http://www.w3.org/2000/svg" xmlns:xlink="http://www.w3.org/1999/xlink" width="600.001" height="487.854" viewBox="0 0 600.001 487.854"><radialGradient id="a" cx="-4.294" cy="45.36" r="61.599" fx="-6.568" fy="45.276" gradientTransform="matrix(.9668 -.2556 .2468 .9337 -11.339 1.91)" gradientUnits="userSpaceOnUse"><stop offset=".45" style="stop-color:#bf331c"/><stop offset=".7" style="stop-color:#f6b91d"/><stop offset=".95" style="stop-color:#bf331c"/></radialGradient><radialGradient xlink:href="#a" id="b" cx="-4.294" cy="45.36" r="61.599" fx="-6.568" fy="45.276" gradientTransform="matrix(9.43296 -2.49386 2.408 9.11 -110.632 18.642)" gradientUnits="userSpaceOnUse"/><path d="M51.643 264.587C51.643 101.101 158.59.595 277.545.595c0 0 .878 9.084-.879 18.314-1.58 8.293-34.08 28.12-33.846 65.264.214 33.837 24.382 58.229 57.79 58.229 31.651 0 57.8-24.607 57.8-58.23 0-34.285-31.827-55.135-33.623-65.488C323.08 8.83 323.91 6.371 323.91 0c94.271 0 225.687 78.24 225.687 264.578-59.927-4.098-92.993 31.085-99.179 48.345 46.287 53.331 83.802 48.638 149.583 48.638-3.405 8.313-132.04 126.293-132.04 126.293l-333.91-.263L0 361.064c72.738 0 116.692-1.532 148.12-48.346-12.636-52.082-96.477-48.13-96.477-48.13" style="fill:#fff"/><path d="M437.236 334.144c56.55 44.13 75.43 45.75 115.609 47.185-24.129 23.114-59.03 55.711-92.632 86.592l-318.221-.254-92.72-87.519c47.624-2.605 51.283 3.005 113.239-46.004zm-.322-38.657c13.19-21.484 44.374-47.301 92.202-50.765-4.79-86.602-40.51-138.83-70.815-167.916-29.866-28.665-68.25-48.033-106.653-54.492 10.938 13.064 26.685 33.642 26.685 61.868 0 43.828-34.14 78.163-77.733 78.163-44.023 0-77.44-33.544-77.723-78.036-.186-28.334 14-48.58 25.085-61.488-42.98 6.733-82.427 28.14-113.278 61.908-19.65 21.524-35.056 47.272-45.77 76.513-9.503 25.905-15.132 54.112-16.82 84.076 28.119 2.39 73.576 12.322 90.583 50.335z"/><path d="m146.275 456.857-71.098-67.108c29.31-1.835 43.516-7.415 91.08-44.804h267.28c43.692 33.73 66.211 42.648 93.891 45.643-20.558 19.426-45.867 43.008-71.43 66.522zm23.066-172.014c-18.88-33.69-57.976-45.243-85.715-49.107 2.235-25.104 7.406-48.882 15.445-70.786 10.235-27.914 24.91-52.463 43.614-72.943 22.675-24.83 50.13-42.598 80.475-52.257-6.05 11.6-11.182 26.675-11.074 44.628.331 50.609 38.393 88.768 88.524 88.768 49.653 0 88.534-39.077 88.534-88.964 0-17.494-5.454-32.48-11.933-44.315 8.8 2.966 17.504 6.644 26.06 10.996 17.514 8.917 33.516 20.265 47.536 33.73 17.387 16.693 31.769 36.656 42.736 59.311 13.054 26.968 21.123 57.595 24.06 91.198-41.886 6.01-71.235 28.227-86.485 49.594z" style="fill:url(#b)"/></svg>