<svg xmlns="http://www.w3.org/2000/svg" xmlns:xlink="http://www.w3.org/1999/xlink" width="600.001" height="487.854" viewBox="0 0 600.001 487.854"><radialGradient id="a" cx="-8.311" cy="46.367" r="68.588" fx="-10.844" fy="46.274" gradientTransform="matrix(.9668 -.2556 .2468 .9337 -11.72 .95)" gradientUnits="userSpaceOnUse"><stop offset=".45" style="stop-color:#8b723c"/><stop offset=".7" style="stop-color:#ebd491"/><stop offset=".95" style="stop-color:#8b723c"/></radialGradient><radialGradient xlink:href="#a" id="b" cx="-8.311" cy="46.367" r="68.588" fx="-10.844" fy="46.274" gradientTransform="matrix(9.43296 -2.49386 2.408 9.11 -114.36 9.274)" gradientUnits="userSpaceOnUse"/><path d="M51.643 264.587C51.643 101.091 158.59.595 277.535.595c0 0 .888 9.084-.878 18.304-1.581 8.303-34.081 28.13-33.847 65.264.215 33.847 24.382 58.239 57.8 58.239 31.641 0 57.8-24.607 57.8-58.239 0-34.286-31.837-55.126-33.623-65.488C323.08 8.82 323.91 6.37 323.91 0c94.271 0 225.677 78.23 225.677 264.578-59.917-4.108-92.983 31.085-99.179 48.345 46.297 53.321 83.802 48.628 149.593 48.628-3.405 8.313-132.04 126.303-132.04 126.303l-333.92-.263L0 361.064c72.738 0 116.683-1.542 148.11-48.346-12.636-52.082-96.467-48.13-96.467-48.13"/><path d="M437.226 334.134c56.55 44.13 75.43 45.76 115.619 47.185-24.129 23.124-59.039 55.712-92.632 86.592l-318.24-.253-92.71-87.51c47.613-2.605 51.272 2.995 113.238-46.014zm-.322-38.647c13.2-21.484 44.384-47.301 92.212-50.765-4.8-86.602-40.52-138.83-70.825-167.926-29.866-28.665-68.25-48.033-106.643-54.482 10.928 13.064 26.685 33.632 26.685 61.859 0 43.828-34.149 78.172-77.733 78.172-44.023 0-77.44-33.544-77.733-78.036-.185-28.334 14.001-48.58 25.085-61.488-42.97 6.733-82.426 28.13-113.268 61.908-19.66 21.524-35.056 47.262-45.77 76.504-9.512 25.904-15.142 54.111-16.82 84.075 28.119 2.39 73.576 12.323 90.573 50.336z" style="fill:url(#b)"/></svg>