<svg xmlns="http://www.w3.org/2000/svg" width="503.583" height="445.597" viewBox="0 0 503.583 445.597"><path d="M387.973 311.82c56.551 44.13 75.43 45.76 115.61 47.185-24.13 23.124-59.03 55.712-92.633 86.592l-318.23-.253L0 357.834c47.623-2.605 51.282 2.995 113.238-46.014zm-.322-38.647c13.191-21.484 44.374-47.301 92.203-50.765-4.791-86.602-40.511-138.83-70.816-167.926C379.172 25.817 340.788 6.45 302.386 0c10.937 13.064 26.685 33.632 26.685 61.859 0 43.828-34.14 78.172-77.733 78.172-44.024 0-77.44-33.544-77.724-78.036-.185-28.334 14.001-48.58 25.085-61.488-42.979 6.733-82.426 28.13-113.268 61.908-19.66 21.524-35.066 47.262-45.779 76.504-9.503 25.904-15.133 54.111-16.82 84.075 28.118 2.39 73.576 12.323 90.582 50.336z"/></svg>