<svg xmlns="http://www.w3.org/2000/svg" width="600" height="822.659"><path d="M381.61 401.766c-6.437 7.712-13.018 15.013-19.764 22.088-41.544 43.54-78.008 63.941-134.73 75.109-20.567 4.113-45 17.687-63.798 35.518-20.402 19.353-36.3 41.935-49.318 70.543 1.769-1.05 3.537-2.097 5.306-3.229 14.376-8.432 45.061-21.594 66.594-29.718 67.006-25.153 100.097-43.066 131.112-71.18 26.983-24.413 49.01-58.492 64.599-99.131M47.077 822.659c-16.556 0-31.405-9.255-39.776-24.742C5.141 793.887 0 784.405 0 748.66c0-30.356.801-40.166 18.633-62.748.637-.885 1.379-1.686 2.098-2.57l-2.9-18.634-1.85-12.052c-1.687-10.756-3.291-39.61-3.93-53.35-4.256-93.823 17.503-175.452 62.975-235.938 26.367-34.88 54.954-57.524 109.352-86.297C296.836 217.634 388.274 127.882 406.661 58.8c1.46-5.533 2.488-11.559 2.653-13.245C409.396 20.485 428.687 0 453.264 0c8.597 0 17.03 2.57 24.351 7.466 18.057 12.052 60.815 92.878 61.206 93.68 23.22 46.747 42.984 107.974 52.856 163.647 5.635 31.817 9.008 93.989 8.206 126.278l-1.769 65.957-29.246-18.55c7.713 17.357 13.019 37.841 14.294 61.616l3.065 57.69-53.905-20.814c-3.62-1.358-7.96-2.9-12.628-4.422 7.322 31.179 10.941 75.356 2.653 136.088l-8.823 64.517-52.156-40.804c-.31-.246-29.966-22.828-103.697-22.828-46.52 0-98.348 13.738-150.073 39.61-45.72 22.891-80.189 48.044-102.524 74.966-16.947 20.32-34.058 38.562-57.997 38.562" style="fill:gray"/><path d="M467.805 386.094s73.278 29.246 78.008 116.016c0 0-71.262-27.642-82.677-6.993 0 0 39.364 42.182 22.191 168.46 0 0-35.765-31.405-127.656-31.405-52.958 0-110.544 15.343-166.794 43.457-50.614 25.4-88.764 53.514-114.555 84.528-21.06 25.215-30.459 30.52-36.073 20.073-1.605-2.962-2.9-17.194-2.9-31.57 0-26.18 0-26.18 10.612-39.61 18.962-23.94 56.146-54.872 90.37-75.027 10.611-6.273 38.006-18.407 60.814-26.922 71.839-26.983 107.974-46.747 143.02-78.481 48.104-43.54 82.1-112.067 95.921-193.304 5.697-33.812 11.168-122.515 7.301-118.895-1.132 1.05-7.959 15.507-15.013 32.063-25.79 59.684-58.327 110.71-95.531 149.498-36.238 38.007-66.04 54.645-114.967 64.27-27.62 5.553-58.244 22.253-82.348 45.082-33.256 31.651-55.9 69.638-73.505 123.398l-9.234 28.28-1.85-12.053c-1.049-6.663-2.654-28.937-3.538-49.42-3.846-84.344 15.671-158.65 55.509-211.692 22.993-30.438 47.24-49.4 96.97-75.664 123.4-65.319 219.568-161.796 240.854-241.738 2.098-7.877 3.867-17.605 3.867-21.615.082-7.384 5.224-11.64 10.2-8.268 4.176 2.797 37.843 57.668 48.517 79.202 21.78 43.703 40.249 100.98 49.483 153.446 4.915 27.56 8.535 86.852 7.65 118.895 0 0-45.081-30.439-94.646-4.01"/></svg>