<svg xmlns="http://www.w3.org/2000/svg" xmlns:xlink="http://www.w3.org/1999/xlink" width="600" height="822.659"><linearGradient id="a" x1="0" x2="1" y1="0" y2="0" gradientTransform="scale(22.59376 -22.59376)rotate(20 33.097 78.657)" gradientUnits="userSpaceOnUse" spreadMethod="pad"><stop offset="0" style="stop-color:#536e78"/><stop offset=".3" style="stop-color:#99aebc"/><stop offset=".5" style="stop-color:#d9eaf3"/><stop offset=".7" style="stop-color:#99aebc"/><stop offset="1" style="stop-color:#536e78"/></linearGradient><linearGradient xlink:href="#a" id="b" x1="0" x2="1" y1="0" y2="0" gradientTransform="scale(464.67375)rotate(20 -2.073 1.018)" gradientUnits="userSpaceOnUse" spreadMethod="pad"/><path d="M381.61 401.766c-6.437 7.712-13.018 15.013-19.764 22.088-41.544 43.54-78.008 63.941-134.73 75.109-20.567 4.113-45 17.687-63.798 35.518-20.402 19.353-36.3 41.935-49.318 70.543 1.769-1.05 3.537-2.097 5.306-3.229 14.376-8.432 45.061-21.594 66.594-29.718 67.006-25.153 100.097-43.066 131.112-71.18 26.983-24.413 49.01-58.492 64.599-99.131M47.077 822.659c-16.556 0-31.405-9.255-39.776-24.742C5.141 793.887 0 784.405 0 748.66c0-30.356.801-40.166 18.633-62.748.637-.885 1.379-1.686 2.098-2.57l-2.9-18.634-1.85-12.052c-1.687-10.756-3.291-39.61-3.93-53.35-4.256-93.823 17.503-175.452 62.975-235.938 26.367-34.88 54.954-57.524 109.352-86.297C296.836 217.634 388.274 127.882 406.661 58.8c1.46-5.533 2.488-11.559 2.653-13.245C409.396 20.485 428.687 0 453.264 0c8.597 0 17.03 2.57 24.351 7.466 18.057 12.052 60.815 92.878 61.206 93.68 23.22 46.747 42.984 107.974 52.856 163.647 5.635 31.817 9.008 93.989 8.206 126.278l-1.769 65.957-29.246-18.55c7.713 17.357 13.019 37.841 14.294 61.616l3.065 57.69-53.905-20.814c-3.62-1.358-7.96-2.9-12.628-4.422 7.322 31.179 10.941 75.356 2.653 136.088l-8.823 64.517-52.156-40.804c-.31-.246-29.966-22.828-103.697-22.828-46.52 0-98.348 13.738-150.073 39.61-45.72 22.891-80.189 48.044-102.524 74.966-16.947 20.32-34.058 38.562-57.997 38.562"/><path d="M446.6 46.83c0 4.01-1.768 13.738-3.866 21.615-21.286 79.942-117.455 176.42-240.854 241.738-49.73 26.264-73.977 45.226-96.97 75.664-39.838 53.041-59.355 127.348-55.51 211.691.885 20.567 2.49 42.758 3.538 49.421l1.851 12.052 9.234-28.279c17.605-53.76 40.249-91.747 73.505-123.398 24.104-22.83 54.727-39.53 82.348-45.082 48.928-9.625 78.729-26.263 114.967-64.27 37.204-38.789 69.74-89.814 95.53-149.498 7.055-16.638 13.883-31.014 15.014-32.063 3.867-3.62-1.604 85.083-7.3 118.895-13.821 81.32-47.818 149.765-95.923 193.304-35.045 31.734-71.18 51.498-143.019 78.481-22.808 8.515-50.203 20.65-60.815 26.922-34.223 20.237-71.407 51.087-90.369 75.026-10.612 13.43-10.612 13.43-10.612 39.611 0 14.459 1.295 28.608 2.9 31.57 5.614 10.448 15.095 5.142 36.073-20.073 25.79-31.014 63.941-59.128 114.555-84.528 56.25-28.114 113.836-43.457 166.794-43.457 91.891 0 127.656 31.405 127.656 31.405 17.173-126.278-22.19-168.46-22.19-168.46 11.414-20.73 82.676 6.993 82.676 6.993-4.73-86.77-78.008-116.016-78.008-116.016 49.565-26.51 94.708 4.01 94.708 4.01.823-32.042-2.797-91.335-7.63-118.894-9.316-52.465-27.785-109.743-49.565-153.446-10.756-21.534-44.341-76.405-48.516-79.202-1.214-.802-2.407-1.213-3.455-1.213-3.702 0-6.746 3.866-6.746 9.48" style="fill:url(#b)"/></svg>