<svg xmlns="http://www.w3.org/2000/svg" width="525.236" height="747.895"><path d="M430.456 348.705s73.278 29.245 78.009 116.015c0 0-71.263-27.641-82.677-6.993 0 0 39.364 42.182 22.19 168.46 0 0-35.764-31.405-127.655-31.405-52.959 0-110.545 15.343-166.794 43.457-50.614 25.4-88.765 53.514-114.556 84.528C17.913 747.982 8.515 753.288 2.9 742.84 1.296 739.88 0 725.647 0 711.27c0-26.18 0-26.18 10.612-39.61 18.963-23.94 56.147-54.872 90.37-75.027 10.612-6.273 38.006-18.407 60.814-26.921 71.84-26.983 107.974-46.748 143.02-78.482 48.105-43.54 82.1-112.067 95.922-193.304 5.697-33.811 11.167-122.515 7.3-118.895-1.131 1.05-7.959 15.507-15.013 32.063-25.79 59.684-58.326 110.71-95.531 149.498-36.238 38.007-66.039 54.645-114.967 64.27-27.62 5.553-58.244 22.253-82.348 45.082-33.256 31.652-55.9 69.638-73.504 123.399l-9.235 28.279-1.85-12.052c-1.049-6.664-2.654-28.937-3.538-49.422-3.846-84.343 15.672-158.65 55.509-211.69 22.993-30.439 47.241-49.401 96.97-75.664 123.4-65.32 219.568-161.797 240.855-241.739 2.097-7.877 3.866-17.604 3.866-21.615.082-7.383 5.224-11.64 10.201-8.268 4.175 2.797 37.842 57.669 48.516 79.202 21.78 43.704 40.249 100.981 49.483 153.446 4.916 27.56 8.535 86.852 7.651 118.895 0 0-45.082-30.438-94.647-4.01"/></svg>