<svg xmlns="http://www.w3.org/2000/svg" width="600" height="542.365"><radialGradient id="a" cx="0" cy="0" r="1" fx="0" fy="0" gradientTransform="translate(301.517 277.247)scale(250.34193)" gradientUnits="userSpaceOnUse" spreadMethod="pad"><stop offset="0" style="stop-color:#ebd491"/><stop offset=".7" style="stop-color:#d2bb7b"/><stop offset="1" style="stop-color:#8b723c"/></radialGradient><path d="m304.922 16.108-103.647 99.567s-2.55 70.02-4.665 127.444c-19.227-34.007-44.068-77.858-44.068-77.858L39.675 141.627 0 247.512l97.45 180.773c-39.931 3.186-64.406 13.247-76 31.091-4.867 7.471-6.67 15.146-6.67 21.98 0 5.56 1.166 10.55 2.915 14.522l7.308 16.461 18.007-2.061c35.322-4.027 100.42-6.197 124.624 5.356 38.034 18.102 81.098 38.603 146.508 18.319 49.465-15.363 92.909-19.336 122.292-11.173 16.854 4.718 41.803 5.87 74.102 3.444 12.027-.91 22.833-2.075 29.722-2.97 4.23-.583 7.837-1.003 10.901-1.586 19.865-1.64 48.841-16.42 48.841-50.956 0-30.143-31.566-56.407-49.207-68.637a36348 36348 0 0 0 36.651-48.841l-8.42-103.919-100.475 8.638s-18.807 20.867-28.176 31.294c3.335-64.88 8.366-161.545 8.366-161.545L321.722 0Z" style="fill:#fff"/><path d="m461.966 391.268 13.193 15.146 52.963-64.299-.895-28.339zM119.593 227.702l-35.905-6.617 90.78 173.993s32.149 18.902 28.393-18.915zm279.932-70.916-28.339-28.393L354.13 396.99s3.77 35.905 32.149 28.38zm-268.542 281.83L26.956 245.709l28.339-75.688 81.356 17.004 81.302 143.756 7.58-204.244 96.447-92.692 111.606 104.027-11.39 219.39 68.11-75.634 66.21-5.722 5.667 70.02-51.064 68.055 18.915 3.77s45.383 28.392 45.383 52.962c0 24.624-26.481 26.535-26.481 26.535s-71.865 11.282-105.926 1.858c-34.007-9.437-81.302-5.668-136.176 11.336-54.82 17.057-88.881 1.898-128.597-17.004-39.729-18.915-138.034-7.58-138.034-7.58s-15.145-34.006 86.97-34.006c0 0 5.668-11.376 3.81-13.234" style="fill:#8b723c"/><path d="m232.839 129.817-7.471 201.22-.895 26.332-12.976-22.942L131.836 193.6l-71.824-14.997-24.895 66.522 102.007 189.248c2.332 3.078 3.024 8.162-3.282 20.773l-2.006 4.122h-4.61c-60.123 0-75.051 12.08-78.712 17.22a14 14 0 0 1-.692 1.112c11.187-1.004 31.892-2.604 54.563-2.604 36.23 0 62.82 3.973 79.078 11.716 24.46 11.647 49.844 23.674 80.135 23.674 13.668 0 27.702-2.278 43.065-7.05 35.796-11.12 68.488-16.733 97.139-16.733 15.891 0 30.508 1.804 43.213 5.302 8.326 2.319 20.136 3.485 35.065 3.485 32.054 0 67.322-5.505 68.27-5.614 2.075-.15 19.608-2.115 19.608-19.01 0-14.509-24.53-35.54-40.733-45.98l-17.586-3.444-11.647-2.318 7.145-9.492 49.37-65.83L549.625 284l-55.715 4.773-66.101 73.464-14.143 15.62 1.112-20.962 11.173-215.892-103.865-96.881ZM346.656 396.5l17.003-268.528 1.058-16.475 11.715 11.648 28.34 28.339 2.318 2.332-.15 3.335-13.247 268.597-.257 5.397-5.248 1.437a36.6 36.6 0 0 1-9.383 1.26c-22.4 0-30.766-23.62-32.149-37.342m-176 4.99-1.858-1.07-.949-1.9L77.07 224.53l-7.105-13.505 15.051 2.752 35.96 6.563 3.444.637 1.695 3.078 83.2 148.461.745 1.37.163 1.545c1.22 11.865-.637 20.285-5.613 25.79-3.607 3.973-8.638 6.088-14.509 6.088-9.383 0-18.44-5.234-19.444-5.817m298.888 9.844-13.193-15.145-4.176-4.828 4.067-4.922 65.261-77.491 12.502-14.875.637 19.43.895 28.394.163 2.807-1.858 2.17-52.908 64.298-5.56 6.78z" style="fill:url(#a);stroke-width:13.5593"/></svg>