<svg xmlns="http://www.w3.org/2000/svg" width="600" height="542.317"><radialGradient id="a" cx="0" cy="0" r="1" fx="0" fy="0" gradientTransform="translate(301.521 277.236)scale(250.32564)" gradientUnits="userSpaceOnUse" spreadMethod="pad"><stop offset="0" style="stop-color:#d9eaf3"/><stop offset=".663" style="stop-color:#99aebc"/><stop offset="1" style="stop-color:#536e78"/></radialGradient><path d="m304.894 16.107-103.583 99.557s-2.604 70.014-4.719 127.433c-19.225-34.004-44.01-77.85-44.01-77.85l-112.91-23.634L0 247.49s78.854 146.279 97.442 180.757c-39.874 3.186-64.4 13.246-75.993 31.089-4.867 7.47-6.67 15.144-6.67 21.977 0 5.56 1.165 10.549 2.914 14.521l7.308 16.46 18.005-2.061c35.32-4.027 100.466-6.196 124.667 5.355 38.03 18.1 81.037 38.6 146.441 18.317 49.46-15.361 92.9-19.334 122.28-11.172 16.853 4.719 41.8 5.871 74.15 3.444 12.026-.909 22.777-2.074 29.665-2.97 4.23-.583 7.836-1.002 10.955-1.585C570.972 519.98 600 505.2 600 470.669c0-30.14-31.617-56.401-49.202-68.63a204204 204204 0 0 0 36.593-48.837l-8.42-103.91-100.465 8.637s-18.805 20.866-28.174 31.292c3.39-64.875 8.366-161.53 8.366-161.53L321.693 0Z" style="fill:#fff"/><path d="m461.924 391.232 13.247 15.145 52.958-64.293-.95-28.336zm-342.287-163.55-35.956-6.617 90.771 173.977s32.146 18.9 28.39-18.913zm279.852-70.91-28.336-28.39-17.002 268.572s3.715 35.902 32.092 28.377zM130.971 438.577 26.953 245.687l28.391-75.682 81.295 17.002 81.348 143.743 7.525-204.226 96.493-92.683 111.542 104.018-11.389 219.37 68.157-75.627 66.15-5.722 5.721 70.014-51.114 68.048 18.914 3.77s45.379 28.39 45.379 52.957c0 24.622-26.425 26.534-26.425 26.534s-71.912 11.28-105.97 1.857c-34.004-9.436-81.294-5.667-136.164 11.335-54.815 17.056-88.819 1.898-128.585-17.002-39.725-18.914-138.021-7.58-138.021-7.58s-15.145-34.003 86.96-34.003c0 0 5.668-11.375 3.81-13.233" style="fill:#536e78"/><path d="m232.877 129.805-7.471 201.202-.95 26.33-12.974-22.94-79.654-140.774-71.763-15.036-24.947 66.57L137.061 434.28c2.387 3.024 3.187 8.108-3.226 20.826l-2.061 4.121h-4.556c-60.062 0-75.044 12.08-78.705 17.219-.257.366-.42.732-.637 1.112 11.131-1.004 31.78-2.55 54.504-2.55 36.173 0 62.76 3.92 79.07 11.66 24.46 11.647 49.786 23.727 80.075 23.727 13.666 0 27.753-2.332 43.115-7.104 35.847-11.118 68.522-16.73 97.184-16.73 15.89 0 30.451 1.748 43.155 5.3 8.366 2.319 20.188 3.485 35.116 3.485 32.038 0 67.316-5.505 68.21-5.613 2.02-.15 19.66-2.115 19.66-19.063 0-14.453-24.58-35.481-40.783-45.867l-17.585-3.538-11.605-2.332 7.158-9.491 49.352-65.77-4.868-59.697-55.764 4.773-66.15 73.512-14.033 15.619 1.058-21.015 11.172-215.927-103.855-96.818zm113.806 266.66 17.002-268.504 1.058-16.473 11.66 11.646 28.377 28.337 2.332 2.332-.15 3.335-13.246 268.573-.257 5.396-5.247 1.437a38 38 0 0 1-9.383 1.26c-22.398 0-30.817-23.617-32.146-37.338m-175.984 4.99-1.912-1.072-.949-1.898-90.771-173.978-7.05-13.503 14.995 2.752 35.956 6.562 3.444.637 1.694 3.078L209.3 372.48l.746 1.37.217 1.545c1.22 11.864-.638 20.283-5.613 25.788-3.607 3.918-8.637 6.033-14.616 6.033-9.328 0-18.385-5.138-19.334-5.762m298.861 9.843-13.3-15.144-4.176-4.827 4.122-4.867 65.309-77.539 12.5-14.873.638 19.429.895 28.445.054 2.752-1.75 2.17-52.957 64.292-5.559 6.779z" style="fill:url(#a);stroke-width:13.5581"/></svg>