<svg xmlns="http://www.w3.org/2000/svg" width="548.412" height="483.978"><path d="m434.97 357.391 13.247 15.145 52.958-64.293-.949-28.336zM92.684 193.841l-35.956-6.617L147.5 361.2s32.146 18.9 28.39-18.913zm279.853-70.91L344.2 94.541l-17.001 268.572s3.714 35.902 32.092 28.377zM104.018 404.736 0 211.846l28.39-75.682 81.295 17.002 81.349 143.743 7.524-204.226L295.051 0l111.543 104.018-11.389 219.37 68.157-75.627 66.15-5.722 5.721 70.014-51.114 68.048 18.913 3.77s45.38 28.39 45.38 52.957c0 24.622-26.425 26.534-26.425 26.534s-71.912 11.28-105.97 1.857c-34.004-9.436-81.295-5.667-136.164 11.335-54.816 17.056-88.82 1.898-128.585-17.002-39.726-18.914-138.022-7.58-138.022-7.58s-15.144-34.003 86.962-34.003c0 0 5.667-11.375 3.81-13.233"/></svg>