<?xml version="1.0" encoding="UTF-8" standalone="no"?>
<svg
   width="150pt"
   height="96.5pt"
   viewBox="0 0 150 96.5"
   version="1.1"
   id="svg6"
   xmlns="http://www.w3.org/2000/svg"
   xmlns:svg="http://www.w3.org/2000/svg">
  <defs
     id="defs6" />
  <g
     id="g3"
     transform="translate(0,-6.5)">
    <path
       fill="#ffffff"
       d="m 49.74,6.51 c 16.27,-0.01 32.53,-0.02 48.8,0.01 -4.82,9.89 -9.45,19.87 -14.26,29.76 4.63,11.85 9.39,23.64 14.05,35.48 -3.54,0.07 -7.07,0.15 -10.61,0.31 2.68,10.28 4.98,20.65 7.62,30.93 H 93.8 C 80.24,84.95 66.86,66.76 53.32,48.69 58.94,48.78 64.55,48.95 70.17,49.03 63.42,34.83 56.51,20.7 49.74,6.51 m 4.7,3.19 C 61.33,23.9 68.15,38.12 74.95,52.36 69.8,52.3 64.65,52.08 59.49,52.06 69.69,65.5 79.62,79.15 89.77,92.63 88.07,84.67 85.9,76.82 84.11,68.89 87.39,68.8 90.68,68.74 93.97,68.63 89.75,57.8 85.39,47.03 81.14,36.22 85.32,27.36 89.6,18.56 93.78,9.7 80.67,9.69 67.55,9.68 54.44,9.7 Z"
       id="path1" />
    <path
       fill="#ffffff"
       d="m 108.31,10.88 c 9.64,4.18 18.03,11.03 24.5,19.28 9.73,12.45 15.03,27.87 17.19,43.4 v 0.67 c -3.15,0.64 -6.71,1.33 -8.67,4.17 -3.45,4.79 -2.43,11.07 -1.55,16.51 -8.06,0 -16.12,0 -24.17,0 -0.29,-10.03 -1.12,-20.15 -4.06,-29.8 -2.98,-10.03 -8.89,-19.93 -18.57,-24.69 4.9,-9.95 10.25,-19.68 15.33,-29.54 m 1.12,4.07 C 105.32,23 100.99,30.94 96.91,39 c 3.44,2.17 6.42,5.01 8.92,8.21 9.6,12.65 11.79,29.08 12.48,44.5 6.03,0.01 12.07,0.01 18.1,0 -0.55,-5.22 -0.52,-11.06 2.79,-15.45 1.8,-2.55 4.73,-3.89 7.64,-4.7 -1.61,-10.38 -4.82,-20.55 -9.89,-29.77 -6.24,-11.38 -15.7,-21.26 -27.52,-26.84 z"
       id="path2" />
    <path
       fill="#ffffff"
       d="m 11.82,38.76 c 6.9,-11.71 17.23,-21.73 29.88,-26.99 5.05,9.88 10.29,19.67 15.29,29.58 -5.57,2.78 -10.24,7.17 -13.35,12.56 -7.39,12.54 -8.84,27.46 -9.25,41.71 -8.06,0.01 -16.11,0.01 -24.17,0 C 11.04,90.23 12.09,84.03 8.77,79.23 6.82,76.31 3.2,75.58 0,74.9 V 74.45 C 1.65,61.96 5.41,49.65 11.82,38.76 M 29.58,22.64 C 14.4,34.68 6.06,53.46 3.16,72.26 c 2.96,0.83 5.94,2.22 7.72,4.83 3.21,4.39 3.24,10.14 2.71,15.32 6.03,-0.02 12.07,0.01 18.1,-0.02 0.35,-8.27 1.15,-16.55 3.24,-24.58 2.77,-10.84 8.22,-21.85 18.1,-27.83 -4.01,-8.07 -8.42,-15.93 -12.37,-24.03 -4.15,1.32 -7.63,4.13 -11.08,6.69 z"
       id="path3" />
  </g>
  <g
     id="g6"
     transform="translate(0,-6.5)">
    <path
       d="m 54.44,9.7 c 13.11,-0.02 26.23,-0.01 39.34,0 -4.18,8.86 -8.46,17.66 -12.64,26.52 4.25,10.81 8.61,21.58 12.83,32.41 -3.29,0.11 -6.58,0.17 -9.86,0.26 1.79,7.93 3.96,15.78 5.66,23.74 C 79.62,79.15 69.69,65.5 59.49,52.06 64.65,52.08 69.8,52.3 74.95,52.36 68.15,38.12 61.33,23.9 54.44,9.7 Z"
       id="path4" />
    <path
       d="m 109.43,14.95 c 11.82,5.58 21.28,15.46 27.52,26.84 5.07,9.22 8.28,19.39 9.89,29.77 -2.91,0.81 -5.84,2.15 -7.64,4.7 -3.31,4.39 -3.34,10.23 -2.79,15.45 -6.03,0.01 -12.07,0.01 -18.1,0 -0.69,-15.42 -2.88,-31.85 -12.48,-44.5 -2.5,-3.2 -5.48,-6.04 -8.92,-8.21 4.08,-8.06 8.41,-16 12.52,-24.05 z"
       id="path5" />
    <path
       d="m 29.58,22.64 c 3.45,-2.56 6.93,-5.37 11.08,-6.69 3.95,8.1 8.36,15.96 12.37,24.03 -9.88,5.98 -15.33,16.99 -18.1,27.83 -2.09,8.03 -2.89,16.31 -3.24,24.58 -6.03,0.03 -12.07,0 -18.1,0.02 0.53,-5.18 0.5,-10.93 -2.71,-15.32 C 9.1,74.48 6.12,73.09 3.16,72.26 6.06,53.46 14.4,34.68 29.58,22.64 Z"
       id="path6" />
  </g>
</svg>
