<?xml version="1.0" encoding="UTF-8" standalone="no"?>
<svg
   width="143.67999pt"
   height="82.941544pt"
   viewBox="0 0 143.67999 82.941544"
   version="1.1"
   id="svg3"
   xmlns="http://www.w3.org/2000/svg"
   xmlns:svg="http://www.w3.org/2000/svg">
  <defs
     id="defs3" />
  <g
     id="g3"
     transform="translate(-3.16,-9.688453)">
    <path
       d="m 54.44,9.7 c 13.11,-0.02 26.23,-0.01 39.34,0 -4.18,8.86 -8.46,17.66 -12.64,26.52 4.25,10.81 8.61,21.58 12.83,32.41 -3.29,0.11 -6.58,0.17 -9.86,0.26 1.79,7.93 3.96,15.78 5.66,23.74 C 79.62,79.15 69.69,65.5 59.49,52.06 64.65,52.08 69.8,52.3 74.95,52.36 68.15,38.12 61.33,23.9 54.44,9.7 Z"
       id="path1" />
    <path
       d="m 109.43,14.95 c 11.82,5.58 21.28,15.46 27.52,26.84 5.07,9.22 8.28,19.39 9.89,29.77 -2.91,0.81 -5.84,2.15 -7.64,4.7 -3.31,4.39 -3.34,10.23 -2.79,15.45 -6.03,0.01 -12.07,0.01 -18.1,0 -0.69,-15.42 -2.88,-31.85 -12.48,-44.5 -2.5,-3.2 -5.48,-6.04 -8.92,-8.21 4.08,-8.06 8.41,-16 12.52,-24.05 z"
       id="path2" />
    <path
       d="m 29.58,22.64 c 3.45,-2.56 6.93,-5.37 11.08,-6.69 3.95,8.1 8.36,15.96 12.37,24.03 -9.88,5.98 -15.33,16.99 -18.1,27.83 -2.09,8.03 -2.89,16.31 -3.24,24.58 -6.03,0.03 -12.07,0 -18.1,0.02 0.53,-5.18 0.5,-10.93 -2.71,-15.32 C 9.1,74.48 6.12,73.09 3.16,72.26 6.06,53.46 14.4,34.68 29.58,22.64 Z"
       id="path3" />
  </g>
</svg>
