<?xml version="1.0" encoding="UTF-8" standalone="no"?>
<svg
   version="1.1"
   width="562.84015"
   height="415.79663"
   id="svg1"
   xmlns="http://www.w3.org/2000/svg"
   xmlns:svg="http://www.w3.org/2000/svg">
  <defs
     id="defs1" />
  <path
     d="m 422.55765,207.03195 c 0,-97.19097 76.09254,-115.77527 103.96332,-115.77527 18.58429,0 36.31921,7.61039 36.31921,7.61039 C 485.95489,25.3453 412.43312,78.56138 412.43312,78.56138 410.7457,32.11764 381.15352,0 381.15352,0 c 21.90251,101.43784 -41.27955,143.63472 -58.92387,153.2836 -7.07811,-45.78689 -22.64996,-77.63274 -40.79257,-77.63274 -18.1313,0 -33.74844,31.84585 -40.78126,77.63274 C 222.95488,143.63472 159.78414,101.43784 181.73195,0 c 0,0 -29.60349,32.11764 -31.2796,78.56138 0,0 -73.521761,-53.21608 -150.45235,20.30569 0,0 17.734919,-7.61039 36.319211,-7.61039 27.916075,0 103.951979,18.5843 103.951979,115.77527 0,97.19098 -69.274891,119.18409 -103.068631,119.18409 -27.078027,0 -36.36451,-7.61038 -36.36451,-7.61038 0,0 59.15037,70.15825 149.614301,21.98178 0,0 4.20158,44.76765 32.9557,75.20919 0,0 -32.7745,-101.52844 57.24777,-153.06843 7.07812,45.6963 22.64996,77.41757 40.78125,77.41757 18.09731,0 33.71447,-31.72127 40.74727,-77.41757 90.02227,51.53999 57.29308,153.06843 57.29308,153.06843 28.70882,-30.44154 32.95569,-75.20919 32.95569,-75.20919 90.41864,48.17647 149.61431,-21.98178 149.61431,-21.98178 0,0 -9.34311,7.61038 -36.36451,7.61038 -33.80507,0 -103.12527,-21.99311 -103.12527,-119.18409"
     id="path1" />
</svg>
