<svg xmlns="http://www.w3.org/2000/svg" xmlns:xlink="http://www.w3.org/1999/xlink" width="469.15" height="231.07" viewBox="0 0 124.129 61.137"><linearGradient id="a"><stop offset="0" style="stop-color:#536e78"/><stop offset=".15" style="stop-color:#99aebc"/><stop offset=".5" style="stop-color:#d9eaf3"/><stop offset=".85" style="stop-color:#99aebc"/><stop offset="1" style="stop-color:#536e78"/></linearGradient><linearGradient xlink:href="#a" id="b" x1="77.289" x2="179.735" y1="30.337" y2="67.079" gradientUnits="userSpaceOnUse"/><path d="M30.569 0C13.686 0 0 13.686 0 30.569s13.686 30.568 30.569 30.568c11.504-.23 21.588-8.963 31.496-17.669 9.908 8.706 19.992 17.438 31.496 17.67 16.882 0 30.568-13.687 30.568-30.57C124.13 13.687 110.443 0 93.561 0 82.057.231 71.973 8.963 62.065 17.67 52.157 8.962 42.073.23 30.569 0"/><path d="M134.718 63.641c-1.104-.937-1.89-1.515-2.629-2.489-.278-.366-.367-.994-.11-1.375.954-1.415 1.794-3.087 2.964-4.242 1.794-1.77 3.377-3.877 4.353-5.642-.067 2.009.25 2.633 1.353 3.899 1.053-.72 1.785-1.927 2.32-3.101.28-.615.5-1.227.633-1.872.152-.732.276-1.734.182-2.235-.105-.558-.46-.573-.967-.615.011-.109.02-.17.04-.236 1.568-.738 2.199-1.104 3.837-2.065.246 1.056.249 1.816.679 2.602.542.99 1.224 2.143 2.3 2.489 1.04.334 2.273-.096 3.21-.659a4.44 4.44 0 0 0 1.832-2.214c.228-.623.273-1.375.023-1.988-.242-.591-.855-.958-1.358-1.351-.728-.571-1.47-1.234-2.372-1.443-.847-.197-1.666.025-2.597.236.346-.92.594-1.682.715-2.56.128-.934.146-1.143.004-2.827.81-.14 1.678-.482 2.436-.9 1.987-1.094 3.577-2.327 5.186-3.61 1.056-.842 2.288-1.279 3.504-1.758 1.383-.546 2.81-1.035 4.28-1.26 2.07-.318 4.206-.392 6.282-.115 1.64.218 3.26.704 4.766 1.388a18.7 18.7 0 0 1 4.366 2.793c1.728 1.473 3.37 3.134 4.53 5.085 1.052 1.77 1.707 3.789 2.093 5.81.384 2.01.355 4.095.195 6.134-.143 1.819-.452 3.017-1.028 5.375-.39-2.992-.67-3.656-1.306-5.392-.366-.997-.796-1.995-1.43-2.847-.919-1.232-2.09-2.292-3.356-3.163-1.597-1.097-3.37-2.008-5.24-2.517-1.691-.46-3.498-.63-5.24-.44-1.165.128-2.308.521-3.356 1.046-1.406.703-2.781 1.586-3.823 2.764a10.7 10.7 0 0 0-2.228 4.043c-.442 1.504-.578 3.145-.317 4.69.25 1.479.838 2.958 1.76 4.14.627.802 1.534 1.37 2.435 1.843.774.407 1.632.652 2.49.825.635.128 1.147.12 1.939.151-1.274.616-1.692.786-2.572 1.087-1.284.44-2.591.851-3.934 1.045-1.489.215-3.015.284-4.51.124-1.723-.184-3.457-.554-5.048-1.238-1.222-.525-2.3-1.35-3.356-2.16-.608-.465-.822-.666-1.705-1.54.31 1.945.583 2.233 1.155 3.219.538.928 1.292 1.73 2.09 2.448.616.553.917.855 2.05 1.403-2.245.2-2.755.154-4.401.082-.669-.029-1.449.886-2.036 1.487-.405.414-.78.887-.993 1.425-.382.966-.42 1.112-.451 3.085-1.48-.922-3.221-1.8-3.3-1.98-.146-.33-.121-.797-.13-1.198-.01-.511.06-1.02.099-1.53.026-.335.083-.702.088-1.002.004-.276-.064-.683-.312-.707-.4-.038-.557.284-.666.552-.28.68-.422 1.03-.631 1.605-.119.327-.218.604-.323.955-1.12-.872-2.955-2.244-2.993-2.472-.077-.466.257-1.265.46-1.876.155-.465.431-1.03.575-1.354.134-.303.153-.683-.099-.75-.33-.089-.648.277-.875.531-.634.805-1.09 1.623-1.532 2.362zM122.305 33.52c1.105.937 1.89 1.515 2.63 2.489.278.366.367.994.11 1.375-.954 1.415-1.794 3.088-2.964 4.242-1.794 1.77-3.377 3.877-4.353 5.642.067-2.009-.25-2.633-1.354-3.899-1.052.72-1.784 1.927-2.32 3.102-.279.614-.5 1.226-.632 1.87-.152.733-.276 1.735-.182 2.236.104.558.46.573.967.615-.012.109-.02.17-.04.236-1.568.738-2.199 1.104-3.837 2.065-.246-1.056-.249-1.815-.68-2.602-.541-.99-1.224-2.143-2.299-2.489-1.04-.334-2.273.097-3.21.66a4.44 4.44 0 0 0-1.832 2.214c-.228.622-.274 1.374-.023 1.987.242.591.855.958 1.358 1.351.728.571 1.47 1.234 2.372 1.443.846.197 1.666-.025 2.597-.236-.346.92-.594 1.682-.715 2.56-.128.934-.146 1.143-.004 2.827-.81.14-1.678.482-2.436.9-1.987 1.094-3.577 2.327-5.186 3.61-1.056.842-2.288 1.279-3.504 1.758-1.383.546-2.81 1.035-4.28 1.26-2.07.318-4.206.392-6.282.115a17 17 0 0 1-4.766-1.388 18.7 18.7 0 0 1-4.367-2.793c-1.727-1.472-3.368-3.134-4.53-5.085-1.052-1.77-1.706-3.789-2.092-5.81-.384-2.01-.355-4.095-.195-6.134.143-1.819.452-3.017 1.027-5.375.39 2.992.67 3.656 1.307 5.392.366.997.796 1.995 1.43 2.847.919 1.232 2.089 2.293 3.356 3.163 1.597 1.097 3.37 2.008 5.24 2.517 1.691.46 3.498.63 5.24.44 1.165-.128 2.308-.521 3.356-1.045 1.406-.704 2.781-1.587 3.823-2.765a10.7 10.7 0 0 0 2.228-4.043c.442-1.504.578-3.145.317-4.69-.25-1.479-.839-2.958-1.76-4.14-.627-.802-1.534-1.37-2.435-1.843-.774-.407-1.633-.652-2.49-.825-.635-.128-1.147-.12-1.939-.151 1.274-.616 1.692-.785 2.572-1.087 1.284-.439 2.59-.85 3.934-1.045 1.488-.215 3.015-.284 4.51-.124 1.723.184 3.457.554 5.048 1.238 1.222.525 2.3 1.35 3.356 2.16.608.465.822.666 1.705 1.54-.31-1.945-.583-2.233-1.155-3.219-.538-.928-1.292-1.73-2.09-2.448-.616-.553-.917-.855-2.05-1.403 2.244-.2 2.755-.154 4.401-.082.669.029 1.449-.886 2.036-1.487.405-.414.78-.887.993-1.425.382-.966.42-1.112.45-3.084 1.481.92 3.222 1.8 3.302 1.98.145.33.12.796.129 1.198.01.51-.06 1.02-.1 1.53-.025.334-.082.701-.087 1.002-.004.275.064.683.312.706.4.038.557-.284.666-.551.28-.68.422-1.031.63-1.606.12-.327.22-.604.324-.955 1.12.872 2.955 2.244 2.992 2.472.078.466-.256 1.265-.46 1.876-.154.465-.43 1.03-.574 1.354-.134.303-.153.683.098.75.33.089.649-.277.876-.531.634-.805 1.089-1.623 1.532-2.362z" style="fill:url(#b)" transform="translate(-66.447 -18.012)"/><path d="M143.368 41.644c.638-.65 1.188-1.306 1.697-1.896.553-.64.726-1.277.898-1.981.136-.558.118-1.147.09-1.72-.034-.677-.306-2.012-.306-2.012s.964-.383 1.44-.59c.877-.385 1.766-.752 2.606-1.213a18 18 0 0 0 1.985-1.273c.642-.471 1.193-1.121 1.834-1.53 1.416-.906 2.732-1.658 4.182-2.32 1.032-.47 2.112-.838 3.198-1.166 1.238-.374 2.492-.73 3.773-.91a21 21 0 0 1 3.91-.159c1.179.056 2.364.189 3.508.478 1.3.328 3.766 1.417 3.766 1.417s-1.812-1.472-2.819-2.054a26 26 0 0 0-5.123-2.274c-2.01-.636-4.098-1.147-6.204-1.227-2.897-.11-5.857.21-8.636 1.037-2.607.776-4.978 2.224-7.314 3.616-2.466 1.469-4.795 3.172-7.032 4.97l-25.165 24.68c-.638.65-1.188 1.306-1.697 1.896-.553.64-.727 1.277-.898 1.982-.136.557-.118 1.146-.09 1.719.034.677.306 2.012.306 2.012s-.964.383-1.44.591c-.877.384-1.766.75-2.606 1.212-.689.38-1.351.808-1.985 1.273-.642.471-1.193 1.121-1.834 1.53-1.416.906-2.732 1.658-4.182 2.32-1.033.47-2.112.838-3.198 1.166-1.239.374-2.492.73-3.773.91-1.292.18-2.607.22-3.91.159-1.179-.056-2.364-.188-3.508-.478-1.3-.328-3.766-1.417-3.766-1.417s1.812 1.472 2.819 2.054a26 26 0 0 0 5.123 2.274c2.01.636 4.097 1.147 6.204 1.227 2.897.11 5.857-.21 8.636-1.037 2.607-.776 4.978-2.224 7.314-3.616 2.466-1.469 4.795-3.172 7.032-4.97zm6.338 24.947s.92 2.484 2.053 3.575c1.122 1.082 2.372 2.362 3.831 3.13a15.2 15.2 0 0 0 5.73 1.677c2.311.195 4.667-.22 6.91-.804 1.871-.487 3.673-1.272 5.355-2.224a24 24 0 0 0 4.72-3.49c1.18-1.122 2.249-2.389 3.097-3.78a17.4 17.4 0 0 0 1.83-4.225c.303-1.053.474-2.154.496-3.25.033-1.605-.115-3.237-.53-4.789a14 14 0 0 0-1.745-3.985 13.5 13.5 0 0 0-2.805-3.097c-.75-.61-1.635-1.035-2.497-1.47-.56-.283-1.728-.736-1.728-.736s.977 2.671 1.146 4.071c.204 1.688.168 3.431-.171 5.097-.443 2.174-1.19 4.347-2.395 6.21-.994 1.536-2.433 2.76-3.866 3.9-1.07.85-2.26 1.556-3.489 2.155-1.54.75-3.157 1.381-4.824 1.779-1.742.415-3.546.568-5.336.615-1.93.051-5.782-.359-5.782-.359M107.318 30.57s-.92-2.483-2.053-3.575c-1.122-1.082-2.372-2.362-3.831-3.13a15.2 15.2 0 0 0-5.73-1.677c-2.311-.195-4.667.22-6.911.804-1.87.487-3.672 1.272-5.354 2.224a24 24 0 0 0-4.721 3.49c-1.18 1.122-2.248 2.389-3.096 3.78a17.4 17.4 0 0 0-1.83 4.225 12.8 12.8 0 0 0-.496 3.25c-.033 1.606.115 3.237.53 4.79.375 1.4.957 2.767 1.745 3.985a13.5 13.5 0 0 0 2.805 3.096c.749.61 1.635 1.035 2.497 1.47.559.283 1.728.736 1.728.736s-.977-2.671-1.146-4.07c-.204-1.689-.168-3.432.17-5.098.443-2.174 1.19-4.347 2.396-6.21.994-1.536 2.432-2.76 3.865-3.9 1.07-.85 2.26-1.556 3.49-2.155 1.54-.75 3.156-1.381 4.823-1.779 1.742-.415 3.547-.568 5.337-.615 1.93-.051 5.782.359 5.782.359" style="fill:#536e78" transform="translate(-66.447 -18.012)"/></svg>