<svg xmlns="http://www.w3.org/2000/svg" width="446.072" height="500.001"><defs><linearGradient id="a" x1="11.747" x2="39.567" y1="9.174" y2="42.33" gradientTransform="scale(9.9982)" gradientUnits="userSpaceOnUse"><stop offset=".1" style="stop-color:#536e78"/><stop offset=".4" style="stop-color:#d9eaf3"/><stop offset=".7" style="stop-color:#536e78"/></linearGradient></defs><path d="M197.64 499.99C195.73 499.97 0 193.46 0 193.46L197.09 0m31.65 0c30.92 11.958 160.95 110.44 185.9 143.88 28.42 38.09 32.99 50.52 31.04 84.55-2.19 38.35-16.59 60.47-64.9 99.68-33.44 27.16-52.33 46.66-57.03 58.9-1.86 4.84 2.22 5.93 17.75 4.69 14.25-1.13 22.4.6 27.83 6.07 19.62 19.62 14.82 56.54-10.67 82.02-16.39 16.4-21.2 20.28-46.53 20.21-19.39 0-29.62-5.49-40.23-12.29-9.07-5.8-20.33-20.48-28.93-37.69-29-58.02-13.77-112.52 46.31-165.78 28.94-25.65 39.61-41.46 27.99-41.46-6.72 0-42.56 30.79-66.26 56.92l-21.84 24.08" style="stroke-width:9.99816"/><path fill="url(#a)" d="M334.97 472.93c17.9-9.24 30.82-36.97 24.12-51.69-5.09-11.19-20.74-14.94-26.11-6.26-1.62 2.61-1.22 4.44.9 4.08 17.44-3.03 20.6 9.12 6.13 23.57-12.3 12.3-30.63 11.97-37.39-.7-2.98-5.57-4.4-20.76-3.25-34.66 2.65-31.89 15.26-49.63 67.23-94.47 44.99-38.81 61.18-62.54 61.29-89.78.1-27.29-14.74-52.85-52.01-89.52C330.6 89.014 253.72 32.044 248.16 37.593c-1.11 1.13-.6 239.937-.6 239.937l27.55-27.81c32.92-27.33 44.94-31.98 56.25-21.75 11.65 10.55 8.61 20.49 8.61 21.79 0 11.45-6.68 20.38-36.79 49.14-38.74 37-55.52 64.8-55.7 92.28-.29 42.22 30.89 88.5 59.59 88.5 8.17 0 20.71-3.04 27.88-6.75zM177.69 41.173 21.006 193.01 175.66 430.08Z" style="fill:url(#a);stroke-width:9.99816"/></svg>