<svg xmlns="http://www.w3.org/2000/svg" width="40.694" height="44.255" viewBox="0 0 40.694 44.255"><path d="M31.402 43.58c1.79-.925 3.083-3.698 2.413-5.17-.51-1.12-2.075-1.495-2.612-.626-.162.26-.122.444.088.408 1.744-.303 2.06.912.613 2.357-1.23 1.23-3.063 1.197-3.739-.066-.299-.557-.441-2.076-.326-3.467.265-3.19 1.527-4.963 6.725-9.448 4.499-3.882 6.119-6.255 6.13-8.98.012-2.73-1.474-5.286-5.202-8.954C30.965 5.18 23.276-.518 22.72.038c-.112.113-.058 23.998-.058 23.998l2.755-2.781c3.293-2.734 4.495-3.2 5.626-2.176 1.165 1.055.861 2.05.861 2.18 0 1.145-.668 2.038-3.679 4.914-3.875 3.7-5.553 6.482-5.571 9.23-.027 4.223 3.089 8.852 5.96 8.852.817 0 2.071-.304 2.788-.675M15.671.395 0 15.583l15.468 23.71z"/></svg>