<?xml version="1.0" encoding="utf-8"?>
<!-- Generator: Adobe Illustrator 28.0.0, SVG Export Plug-In . SVG Version: 6.00 Build 0)  -->
<svg version="1.1" id="Ebene_1" xmlns="http://www.w3.org/2000/svg" xmlns:xlink="http://www.w3.org/1999/xlink" x="0px" y="0px"
	 viewBox="0 0 878.3 990.6" style="enable-background:new 0 0 878.3 990.6;" xml:space="preserve">
<style type="text/css">
	.st0{fill:#CD4D26;}
	.st1{fill:#FFFFFF;}
	.st2{fill:url(#SVGID_1_);}
</style>
<path d="M441,233.3L0,729.2l441,261.5l437.4-267.5L441,233.3"/>
<path class="st0" d="M441,891.1L95.2,681.8l-36.5,42.5L441,951.2l382.2-226.9l-36.4-42.5L441,891.1 M441,281.4l-196,227l196,116.9
	l196-116.9L441,281.4"/>
<path class="st1" d="M441,688.9L209.1,552.4c-23.6-16.2-33.9-34.6-31-55c1.4-22.9,26.8-52.9,76-89.9
	c55.6-50.4,89.3-96.1,101.4-137.2c18.8-57.3,17.8-145-3-262.9c5.9,81.6-16.8,162.3-68,242c-16.2,24.3-35.4,46.5-56.9,66.2
	c-41.4,35.3-82.2,64.8-122.3,88.4c-39.2,27.2-61.3,59.6-66.1,97.4c-9.3,56.4,9.8,99.8,57.1,130.2L441,831.4l344.7-199.8
	c47.4-30.4,66.4-73.8,57.1-130.1c-4.7-37.9-26.8-70.3-66.1-97.5c-40.1-23.6-80.9-53.1-122.3-88.3c-21.6-19.7-40.7-41.9-56.9-66.2
	c-51.2-79.7-73.9-160.4-68.1-242c-20.7,118-21.7,205.7-2.8,262.9c11.9,41.1,45.7,86.8,101.3,137.2c49.2,37,74.6,66.9,76,89.9
	c2.9,20.4-7.4,38.8-31,55L441,688.9"/>
<g>
	
		<linearGradient id="SVGID_1_" gradientUnits="userSpaceOnUse" x1="36.8304" y1="568.53" x2="845.0644" y2="568.53" gradientTransform="matrix(1 0 0 -1 0 987.89)">
		<stop  offset="0" style="stop-color:#BC2D26"/>
		<stop  offset="4.000000e-02" style="stop-color:#C03726"/>
		<stop  offset="0.11" style="stop-color:#CD4D26"/>
		<stop  offset="0.19" style="stop-color:#DE7524"/>
		<stop  offset="0.21" style="stop-color:#E27A24"/>
		<stop  offset="0.29" style="stop-color:#EE8C1F"/>
		<stop  offset="0.38" style="stop-color:#F49622"/>
		<stop  offset="0.5" style="stop-color:#F49824"/>
		<stop  offset="0.62" style="stop-color:#F49622"/>
		<stop  offset="0.71" style="stop-color:#EE8C1F"/>
		<stop  offset="0.79" style="stop-color:#E27A24"/>
		<stop  offset="0.8" style="stop-color:#E17924"/>
		<stop  offset="0.85" style="stop-color:#D35D25"/>
		<stop  offset="0.91" style="stop-color:#C74426"/>
		<stop  offset="0.96" style="stop-color:#BF3326"/>
		<stop  offset="1" style="stop-color:#BC2D26"/>
	</linearGradient>
	<path class="st2" d="M441,688.9L209.1,552.4c-23.6-16.2-33.9-34.6-31-55c1.4-22.9,26.8-52.9,76-89.9
		c55.6-50.4,89.3-96.1,101.4-137.2c18.8-57.3,17.8-145-3-262.9c5.9,81.6-16.8,162.3-68,242c-16.2,24.3-35.4,46.5-56.9,66.2
		c-41.4,35.3-82.2,64.8-122.3,88.4c-39.2,27.2-61.3,59.6-66.1,97.4c-9.3,56.4,9.8,99.8,57.1,130.2L441,831.4l344.7-199.8
		c47.4-30.4,66.4-73.8,57.1-130.1c-4.7-37.9-26.8-70.3-66.1-97.5c-40.1-23.6-80.9-53.1-122.3-88.3c-21.6-19.7-40.7-41.9-56.9-66.2
		c-51.2-79.7-73.9-160.4-68.1-242c-20.7,118-21.7,205.7-2.8,262.9c11.9,41.1,45.7,86.8,101.3,137.2c49.2,37,74.6,66.9,76,89.9
		c2.9,20.4-7.4,38.8-31,55L441,688.9"/>
	<path d="M444.8,682.4c-27.6-16.2-55.2-32.5-82.8-48.7c-42.2-24.8-84.3-49.6-126.5-74.5c-9-5.3-18.6-10.1-26.9-16.4
		c-7.9-6-15.2-13.4-19.6-22.5c-3.7-7.6-4.1-15.4-3.2-23.7c0.1-0.6,0.1-0.9,0.4-2.6c0.2-1.2,0.6-2.4,0.9-3.5c0.9-3,1.7-5,3.1-7.7
		c3.2-6.4,7.3-12.4,11.9-17.9c13.2-16.1,29.1-29.9,45.4-42.8c10.4-8.2,20.3-16.6,29.8-25.9c8.8-8.5,17.3-17.3,25.5-26.4
		c25.3-28.2,48.5-59.9,59.9-96.4c9.8-31.6,13.5-64.5,13.9-97.5c0.6-44.3-3.9-88.6-10.4-132.3c-1.9-12.8-4-25.5-6.2-38.2
		c-1.5-8.3-15.3-6.4-14.7,2c4.2,60-7.6,119.8-32.2,174.5c-13.3,29.5-29.4,58.3-49.3,83.9c-19.9,25.5-43.2,46.8-68.4,66.9
		c-25,19.9-51.1,38.5-78.2,55.5c-12.7,7.9-24.9,15.6-36.2,25.4c-10,8.8-19,18.6-26.7,29.6c-14.8,21-21.5,44.9-23.9,70.3
		c-2.3,23.8,1,47.9,11.2,69.6c12.1,25.6,33.7,45,57.9,59c16.7,9.7,33.4,19.4,50.1,29c27.1,15.7,54.1,31.4,81.2,47l89.3,51.7
		c25.2,14.6,50.4,29.2,75.7,43.8c13.3,7.7,26.6,15.4,40,23.2l1.8,1.1c2.3,1.3,5.2,1.3,7.6,0c9.3-5.4,18.6-10.8,27.9-16.2
		c23-13.3,46-26.7,69-40c29.3-17,58.7-34,88-51s56.6-32.8,84.9-49.2c19.9-11.5,39.9-23.1,59.8-34.7c17.2-10,33.6-20.3,47.1-35.4
		c15.5-17.4,26-38.7,29.5-61.8c3.6-24.3,1.6-51.1-6.5-74.3c-8.5-24.4-24.4-45.4-43.8-62.3c-11.3-9.8-23.7-17.5-36.3-25.4
		c-13.4-8.3-26.5-17.1-39.3-26.2c-26.5-18.8-53.3-38.7-76.3-61.6c-22.7-22.6-41.8-48-57.8-75.7c-30.7-53.1-51.2-112.3-54.4-173.8
		c-0.7-14.3-0.6-28.7,0.4-43c0.6-8.3-13.3-10.4-14.7-2c-8.2,47.2-14.7,94.9-16.2,142.9c-1.1,35,0.2,70.7,8.1,104.9
		s23.7,64.5,45.1,92.3c14.1,18.3,29.9,35.4,46.5,51.5c9.5,9.3,19.5,17.6,29.9,25.9c9,7.2,17.8,14.6,26.2,22.6
		c11.7,11.1,23.3,23.3,30.5,37.9c5.5,11.3,7,25.3,0.6,37.7c-8,15.7-22.4,24.3-36.9,32.8c-39.7,23.4-79.3,46.7-119,70.1
		c-32.6,19.2-65.6,38-97.9,57.7c-0.5,0.3-1.1,0.7-1.6,1c-8.3,4.9-0.8,17.9,7.6,13c27.9-16.4,55.7-32.8,83.6-49.2
		c42.2-24.9,84.5-49.7,126.7-74.6c10.3-6,20.8-11.6,30.1-19.1c15.2-12.2,27.2-29.7,26.6-49.9c-0.5-14-5.4-26.4-13.2-37.9
		c-10.9-15.8-25-29.4-39.5-41.8c-9.6-8.2-20.2-15.5-29.6-24s-18.7-17.6-27.6-26.9c-26.9-27.9-53.3-59.9-66-97.1
		c-10.5-30.6-14.4-62.6-15.2-94.8c-1-44.3,3.3-88.8,9.7-132.6c1.9-12.8,4-25.5,6.2-38.2l-14.7-2c-4.1,60,7.5,119.5,31.1,174.6
		c25.3,59.1,62.2,111.4,112,152.2c24.9,20.4,50.8,39.8,77.8,57.5c12.5,8.2,26,15.3,37.9,24.3c10.8,8.2,20.8,17.6,29.4,28.1
		c15.5,18.9,23.4,40.9,26.4,64.9s1,46.7-9.2,67.5c-11.5,23.4-31,40.3-53.2,53.2c-17.1,9.9-34.1,19.8-51.2,29.7
		c-27,15.6-54,31.3-81,46.9c-29.5,17.1-58.9,34.2-88.4,51.2c-25,14.5-50,29-75,43.5c-13.1,7.6-26.2,15.2-39.4,22.8l-1.8,1.1h7.6
		c-9.2-5.3-18.4-10.7-27.6-16c-22.7-13.2-45.4-26.3-68.1-39.4c-29.1-16.9-58.3-33.8-87.5-50.7c-28.2-16.3-56.3-32.6-84.5-49
		c-20.2-11.7-40.4-23.4-60.6-35.1c-15.7-9.1-30.4-17.9-43.1-31.4c-15.3-16.2-25.1-36.6-28.1-58.7s-0.2-49.2,8.8-70.9
		c9.8-23.6,27.7-43.1,47.9-58.3c12-9,25.4-16.1,37.9-24.3c13.1-8.6,26-17.7,38.7-27.1c26.1-19.4,52.2-39.5,74.5-63.3
		c21.8-23.3,40.1-49.4,55.5-77.3c29.4-53.3,48.6-112.1,51.8-173.1c0.7-14.3,0.5-28.7-0.5-43l-14.7,2c8.2,46.9,14.5,94.2,15.9,141.9
		c1,34.5-0.4,69.6-8.9,103.2s-26.6,64.9-49.5,92.3c-15.7,18.8-33,36.3-51,52.8c-9.5,8.7-20.4,16-30.1,24.5
		c-7.7,6.7-15.2,13.6-22.2,21c-10.6,11.3-20.7,24-26.1,38.7c-5.4,14.9-4.1,32.1,3.5,45.9c9.2,16.8,24.7,27,40.6,36.3
		c39.8,23.4,79.5,46.8,119.3,70.2c32.9,19.4,65.6,39.3,98.8,58.2c0.5,0.3,1.1,0.7,1.6,1C445.5,700.3,453.1,687.3,444.8,682.4
		L444.8,682.4L444.8,682.4z"/>
</g>
</svg>
