<?xml version="1.0" encoding="UTF-8" standalone="no"?>
<svg
   id="Layer_2"
   data-name="Layer 2"
   viewBox="0 0 878.4 990.75591"
   version="1.1"
   width="878.40002"
   height="990.75592"
   xmlns="http://www.w3.org/2000/svg"
   xmlns:svg="http://www.w3.org/2000/svg">
  <defs
     id="defs9">
    <style
       id="style1">
      .cls-1 {
        fill: url(#linear-gradient);
      }

      .cls-1, .cls-2, .cls-3, .cls-4 {
        stroke-width: 0px;
      }

      .cls-3 {
        fill: #673a78;
      }

      .cls-4 {
        fill: #fff;
      }
    </style>
    <linearGradient
       id="linear-gradient"
       x1="36.919998"
       y1="511.57001"
       x2="845.09003"
       y2="511.57001"
       gradientTransform="translate(0,-92.11)"
       gradientUnits="userSpaceOnUse">
      <stop
         offset="0"
         stop-color="#612c75"
         id="stop1" />
      <stop
         offset=".13"
         stop-color="#80508f"
         id="stop2" />
      <stop
         offset=".29"
         stop-color="#a277ab"
         id="stop3" />
      <stop
         offset=".42"
         stop-color="#b790bc"
         id="stop4" />
      <stop
         offset=".5"
         stop-color="#bf99c3"
         id="stop5" />
      <stop
         offset=".58"
         stop-color="#b790bc"
         id="stop6" />
      <stop
         offset=".71"
         stop-color="#a277ab"
         id="stop7" />
      <stop
         offset=".87"
         stop-color="#80508f"
         id="stop8" />
      <stop
         offset="1"
         stop-color="#612c75"
         id="stop9" />
    </linearGradient>
  </defs>
  <g
     id="Ebene_1"
     data-name="Ebene 1"
     transform="translate(0,-0.00410387)">
    <path
       class="cls-2"
       d="M 441,233.36 0,729.26 441,990.76 878.4,723.26 441,233.36"
       id="path9" />
    <path
       class="cls-3"
       d="M 441,891.16 95.2,681.86 58.7,724.36 441,951.26 823.2,724.36 786.8,681.86 441,891.16 m 0,-609.7 -196,227 196,116.9 196,-116.9 -196,-227"
       id="path10" />
    <path
       class="cls-4"
       d="M 441,688.96 209.1,552.46 c -23.6,-16.2 -33.9,-34.6 -31,-55 1.4,-22.9 26.8,-52.9 76,-89.9 55.6,-50.4 89.3,-96.1 101.4,-137.2 18.8,-57.3 17.8,-145 -3,-262.9 5.9,81.6 -16.8,162.3 -68,242 -16.2,24.3 -35.4,46.5 -56.9,66.2 -41.4,35.3 -82.2,64.8 -122.3,88.4 -39.2,27.2 -61.3,59.6 -66.1,97.4 -9.3,56.4 9.8,99.8 57.1,130.2 L 441,831.46 785.7,631.66 c 47.4,-30.4 66.4,-73.8 57.1,-130.1 -4.7,-37.9 -26.8,-70.3 -66.1,-97.5 -40.1,-23.6 -80.9,-53.1 -122.3,-88.3 -21.6,-19.7 -40.7,-41.9 -56.9,-66.2 -51.2,-79.7 -73.9,-160.4 -68.1,-242 -20.7,118 -21.7,205.7 -2.8,262.9 11.9,41.1 45.7,86.8 101.3,137.2 49.2,37 74.6,66.9 76,89.9 2.9,20.4 -7.4,38.8 -31,55 L 441,688.96"
       id="path11" />
    <g
       id="g13">
      <path
         class="cls-1"
         d="M 441,688.96 209.1,552.46 c -23.6,-16.2 -33.9,-34.6 -31,-55 1.4,-22.9 26.8,-52.9 76,-89.9 55.6,-50.4 89.3,-96.1 101.4,-137.2 18.8,-57.3 17.8,-145 -3,-262.9 5.9,81.6 -16.8,162.3 -68,242 -16.2,24.3 -35.4,46.5 -56.9,66.2 -41.4,35.3 -82.2,64.8 -122.3,88.4 -39.2,27.2 -61.3,59.6 -66.1,97.4 -9.3,56.4 9.8,99.8 57.1,130.2 L 441,831.46 785.7,631.66 c 47.4,-30.4 66.4,-73.8 57.1,-130.1 -4.7,-37.9 -26.8,-70.3 -66.1,-97.5 -40.1,-23.6 -80.9,-53.1 -122.3,-88.3 -21.6,-19.7 -40.7,-41.9 -56.9,-66.2 -51.2,-79.7 -73.9,-160.4 -68.1,-242 -20.7,118 -21.7,205.7 -2.8,262.9 11.9,41.1 45.7,86.8 101.3,137.2 49.2,37 74.6,66.9 76,89.9 2.9,20.4 -7.4,38.8 -31,55 L 441,688.96"
         id="path12"
         style="fill:url(#linear-gradient)" />
      <path
         class="cls-2"
         d="m 444.8,682.46 c -27.6,-16.2 -55.2,-32.5 -82.8,-48.7 -42.2,-24.8 -84.3,-49.6 -126.5,-74.5 -9,-5.3 -18.6,-10.1 -26.9,-16.4 -7.9,-6 -15.2,-13.4 -19.6,-22.5 -3.7,-7.6 -4.1,-15.4 -3.2,-23.7 0.1,-0.6 0.1,-0.9 0.4,-2.6 0.2,-1.2 0.6,-2.4 0.9,-3.5 0.9,-3 1.7,-5 3.1,-7.7 3.2,-6.4 7.3,-12.4 11.9,-17.9 13.2,-16.1 29.1,-29.9 45.4,-42.8 10.4,-8.2 20.3,-16.6 29.8,-25.9 8.8,-8.5 17.3,-17.3 25.5,-26.4 25.3,-28.2 48.5,-59.9 59.9,-96.4 9.8,-31.6 13.5,-64.5 13.9,-97.5 0.6,-44.3 -3.9,-88.6 -10.4,-132.3 -1.9,-12.8 -4,-25.5 -6.2,-38.2 -1.5,-8.3 -15.3,-6.4 -14.7,2 4.2,60 -7.6,119.8 -32.2,174.5 -13.3,29.5 -29.4,58.3 -49.3,83.9 -19.9,25.5 -43.2,46.8 -68.4,66.9 -25,19.9 -51.1,38.5 -78.2,55.5 -12.7,7.9 -24.9,15.6 -36.2,25.4 -10,8.8 -19,18.6 -26.7,29.6 -14.8,21 -21.5,44.9 -23.9,70.3 -2.3,23.8 1,47.9 11.2,69.6 12.1,25.6 33.7,45 57.9,59 16.7,9.7 33.4,19.4 50.1,29 27.1,15.7 54.1,31.4 81.2,47 l 89.3,51.7 c 25.2,14.6 50.4,29.2 75.7,43.8 13.3,7.7 26.6,15.4 40,23.2 l 1.8,1.1 c 2.3,1.3 5.2,1.3 7.6,0 9.3,-5.4 18.6,-10.8 27.9,-16.2 23,-13.3 46,-26.7 69,-40 29.3,-17 58.7,-34 88,-51 29.3,-17 56.6,-32.8 84.9,-49.2 19.9,-11.5 39.9,-23.1 59.8,-34.7 17.2,-10 33.6,-20.3 47.1,-35.4 15.5,-17.4 26,-38.7 29.5,-61.8 3.6,-24.3 1.6,-51.1 -6.5,-74.3 -8.5,-24.4 -24.4,-45.4 -43.8,-62.3 -11.3,-9.8 -23.7,-17.5 -36.3,-25.4 -13.4,-8.3 -26.5,-17.1 -39.3,-26.2 -26.5,-18.8 -53.3,-38.7 -76.3,-61.6 -22.7,-22.6 -41.8,-48 -57.8,-75.7 -30.7,-53.1 -51.2,-112.3 -54.4,-173.8 -0.7,-14.3 -0.6,-28.7 0.4,-43 0.6,-8.3 -13.3,-10.4 -14.7,-2 -8.2,47.2 -14.7,94.9 -16.2,142.9 -1.1,35 0.2,70.7 8.1,104.9 7.9,34.2 23.7,64.5 45.1,92.3 14.1,18.3 29.9,35.4 46.5,51.5 9.5,9.3 19.5,17.6 29.9,25.9 9,7.2 17.8,14.6 26.2,22.6 11.7,11.1 23.3,23.3 30.5,37.9 5.5,11.3 7,25.3 0.6,37.7 -8,15.7 -22.4,24.3 -36.9,32.8 -39.7,23.4 -79.3,46.7 -119,70.1 -32.6,19.2 -65.6,38 -97.9,57.7 -0.5,0.3 -1.1,0.7 -1.6,1 -8.3,4.9 -0.8,17.9 7.6,13 27.9,-16.4 55.7,-32.8 83.6,-49.2 42.2,-24.9 84.5,-49.7 126.7,-74.6 10.3,-6 20.8,-11.6 30.1,-19.1 15.2,-12.2 27.2,-29.7 26.6,-49.9 -0.5,-14 -5.4,-26.4 -13.2,-37.9 -10.9,-15.8 -25,-29.4 -39.5,-41.8 -9.6,-8.2 -20.2,-15.5 -29.6,-24 -9.4,-8.5 -18.7,-17.6 -27.6,-26.9 -26.9,-27.9 -53.3,-59.9 -66,-97.1 -10.5,-30.6 -14.4,-62.6 -15.2,-94.8 -1,-44.3 3.3,-88.8 9.7,-132.6 1.9,-12.8 4,-25.5 6.2,-38.2 l -14.7,-2 c -4.1,60 7.5,119.5 31.1,174.6 25.3,59.1 62.2,111.4 112,152.2 24.9,20.4 50.8,39.8 77.8,57.5 12.5,8.2 26,15.3 37.9,24.3 10.8,8.2 20.8,17.6 29.4,28.1 15.5,18.9 23.4,40.9 26.4,64.9 3,24 1,46.7 -9.2,67.5 -11.5,23.4 -31,40.3 -53.2,53.2 -17.1,9.9 -34.1,19.8 -51.2,29.7 -27,15.6 -54,31.3 -81,46.9 -29.5,17.1 -58.9,34.2 -88.4,51.2 l -75,43.5 c -13.1,7.6 -26.2,15.2 -39.4,22.8 l -1.8,1.1 h 7.6 c -9.2,-5.3 -18.4,-10.7 -27.6,-16 -22.7,-13.2 -45.4,-26.3 -68.1,-39.4 -29.1,-16.9 -58.3,-33.8 -87.5,-50.7 -28.2,-16.3 -56.3,-32.6 -84.5,-49 -20.2,-11.7 -40.4,-23.4 -60.6,-35.1 -15.7,-9.1 -30.4,-17.9 -43.1,-31.4 -15.3,-16.2 -25.1,-36.6 -28.1,-58.7 -3,-22.1 -0.2,-49.2 8.8,-70.9 9.8,-23.6 27.7,-43.1 47.9,-58.3 12,-9 25.4,-16.1 37.9,-24.3 13.1,-8.6 26,-17.7 38.7,-27.1 26.1,-19.4 52.2,-39.5 74.5,-63.3 21.8,-23.3 40.1,-49.4 55.5,-77.3 29.4,-53.3 48.6,-112.1 51.8,-173.1 0.7,-14.3 0.5,-28.7 -0.5,-43 l -14.7,2 c 8.2,46.9 14.5,94.2 15.9,141.9 1,34.5 -0.4,69.6 -8.9,103.2 -8.5,33.6 -26.6,64.9 -49.5,92.3 -15.7,18.8 -33,36.3 -51,52.8 -9.5,8.7 -20.4,16 -30.1,24.5 -7.7,6.7 -15.2,13.6 -22.2,21 -10.6,11.3 -20.7,24 -26.1,38.7 -5.4,14.9 -4.1,32.1 3.5,45.9 9.2,16.8 24.7,27 40.6,36.3 39.8,23.4 79.5,46.8 119.3,70.2 32.9,19.4 65.6,39.3 98.8,58.2 0.5,0.3 1.1,0.7 1.6,1 7.5,4.9 15.1,-8.1 6.8,-13 z"
         id="path13" />
    </g>
  </g>
</svg>
