<?xml version="1.0" encoding="utf-8"?>
<!-- Generator: Adobe Illustrator 28.0.0, SVG Export Plug-In . SVG Version: 6.00 Build 0)  -->
<svg version="1.1" id="Ebene_1" xmlns="http://www.w3.org/2000/svg" xmlns:xlink="http://www.w3.org/1999/xlink" x="0px" y="0px"
	 viewBox="0 0 808.2 943.8" style="enable-background:new 0 0 808.2 943.8;" xml:space="preserve">
<style type="text/css">
	.st0{fill:#FFFFFF;}
</style>
<path d="M404.1,883.8L58.3,674.5L21.9,717l382.3,226.9l382.2-226.9L750,674.4L404.1,883.8 M404.1,274.1l-196,227l196,116.9
	l196-116.9L404.1,274.1"/>
<path class="st0" d="M404.1,681.5L172.3,545c-23.6-16.2-33.9-34.6-31-55c1.4-22.9,26.8-52.9,76-89.9
	c55.6-50.4,89.3-96.1,101.4-137.2c18.8-57.3,17.8-145-3-262.9c5.9,81.6-16.8,162.3-68,242c-16.2,24.3-35.4,46.5-56.9,66.2
	c-41.4,35.3-82.2,64.8-122.3,88.4c-39.2,27.2-61.3,59.6-66.1,97.4c-9.3,56.4,9.8,99.8,57.1,130.2L404.1,824l344.7-199.8
	c47.4-30.4,66.4-73.8,57.1-130.1c-4.7-37.9-26.8-70.3-66.1-97.5c-40.1-23.6-80.9-53.1-122.3-88.3c-21.6-19.7-40.7-41.9-56.9-66.2
	c-51.2-79.7-73.9-160.4-68.1-242c-20.7,118-21.7,205.7-2.8,262.9c11.9,41.1,45.7,86.8,101.3,137.2c49.2,37,74.6,66.9,76,89.9
	c2.9,20.4-7.4,38.8-31,55L404.1,681.5"/>
<path d="M404.1,681.5L172.3,545c-23.6-16.2-33.9-34.6-31-55c1.4-22.9,26.8-52.9,76-89.9c55.6-50.4,89.3-96.1,101.4-137.2
	c18.8-57.3,17.8-145-3-262.9c5.9,81.6-16.8,162.3-68,242c-16.2,24.3-35.4,46.5-56.9,66.2c-41.4,35.3-82.2,64.8-122.3,88.4
	c-39.2,27.2-61.3,59.6-66.1,97.4c-9.3,56.4,9.8,99.8,57.1,130.2L404.1,824l344.7-199.8c47.4-30.4,66.4-73.8,57.1-130.1
	c-4.7-37.9-26.8-70.3-66.1-97.5c-40.1-23.6-80.9-53.1-122.3-88.3c-21.6-19.7-40.7-41.9-56.9-66.2c-51.2-79.7-73.9-160.4-68.1-242
	c-20.7,118-21.7,205.7-2.8,262.9c11.9,41.1,45.7,86.8,101.3,137.2c49.2,37,74.6,66.9,76,89.9c2.9,20.4-7.4,38.8-31,55L404.1,681.5"
	/>
</svg>
