<?xml version="1.0" encoding="UTF-8" standalone="no"?>
<!-- Generator: Adobe Illustrator 28.0.0, SVG Export Plug-In . SVG Version: 6.00 Build 0)  -->

<svg
   version="1.1"
   id="Ebene_1"
   x="0px"
   y="0px"
   viewBox="0 0 808.07665 943.90004"
   xml:space="preserve"
   width="808.07666"
   height="943.90002"
   xmlns="http://www.w3.org/2000/svg"
   xmlns:svg="http://www.w3.org/2000/svg"><defs
   id="defs3" />
<style
   type="text/css"
   id="style1">
	.st0{fill:#FFFFFF;}
</style>
<path
   d="M 403.98495,883.8 58.184946,674.5 l -36.4,42.5 382.300004,226.9 382.2,-226.9 -36.4,-42.6 -345.9,209.4 m 0,-609.7 -196,227 196,116.9 196,-116.9 -196,-227"
   id="path1" />
<path
   class="st0"
   d="m 403.98495,681.5 -231.8,-136.5 c -23.6,-16.2 -33.9,-34.6 -31,-55 1.4,-22.9 26.8,-52.9 76,-89.9 55.6,-50.4 89.3,-96.1 101.4,-137.2 18.8,-57.3 17.8,-145 -3,-262.9 5.9,81.6 -16.8,162.3 -68,242 -16.2,24.3 -35.4,46.5 -56.9,66.2 -41.4,35.3 -82.2,64.8 -122.300004,88.4 -39.2,27.2 -61.3000005,59.6 -66.1000005,97.4 -9.3,56.4 9.8000005,99.8 57.1000005,130.2 L 403.98495,824 l 344.7,-199.8 c 47.4,-30.4 66.4,-73.8 57.1,-130.1 -4.7,-37.9 -26.8,-70.3 -66.1,-97.5 -40.1,-23.6 -80.9,-53.1 -122.3,-88.3 -21.6,-19.7 -40.7,-41.9 -56.9,-66.2 -51.2,-79.7 -73.9,-160.4 -68.1,-242 -20.7,118 -21.7,205.7 -2.8,262.9 11.9,41.1 45.7,86.8 101.3,137.2 49.2,37 74.6,66.9 76,89.9 2.9,20.4 -7.4,38.8 -31,55 l -231.9,136.4"
   id="path2" />
<path
   d="m 403.98495,681.5 -231.8,-136.5 c -23.6,-16.2 -33.9,-34.6 -31,-55 1.4,-22.9 26.8,-52.9 76,-89.9 55.6,-50.4 89.3,-96.1 101.4,-137.2 18.8,-57.3 17.8,-145 -3,-262.9 5.9,81.6 -16.8,162.3 -68,242 -16.2,24.3 -35.4,46.5 -56.9,66.2 -41.4,35.3 -82.2,64.8 -122.300004,88.4 -39.2,27.2 -61.3000005,59.6 -66.1000005,97.4 -9.3,56.4 9.8000005,99.8 57.1000005,130.2 L 403.98495,824 l 344.7,-199.8 c 47.4,-30.4 66.4,-73.8 57.1,-130.1 -4.7,-37.9 -26.8,-70.3 -66.1,-97.5 -40.1,-23.6 -80.9,-53.1 -122.3,-88.3 -21.6,-19.7 -40.7,-41.9 -56.9,-66.2 -51.2,-79.7 -73.9,-160.4 -68.1,-242 -20.7,118 -21.7,205.7 -2.8,262.9 11.9,41.1 45.7,86.8 101.3,137.2 49.2,37 74.6,66.9 76,89.9 2.9,20.4 -7.4,38.8 -31,55 l -231.9,136.4"
   id="path3" />
</svg>
