<svg xmlns="http://www.w3.org/2000/svg" xmlns:xlink="http://www.w3.org/1999/xlink" width="95.809" height="41.248" viewBox="0 0 95.809 41.248"><linearGradient id="a"><stop offset="0" style="stop-color:#d2a300"/><stop offset=".43" style="stop-color:#b5271c"/><stop offset="1" style="stop-color:#a21a12"/></linearGradient><linearGradient xlink:href="#a" id="b" x1="27.13" x2="29.194" y1="47.025" y2="24.334" gradientTransform="translate(-3.186 -26.263)scale(1.02675)" gradientUnits="userSpaceOnUse" spreadMethod="reflect"/><path d="M18.205 23.063 2.29 28.475C.294 29.155-.782 25.963.67 25.3l16.17-7.636-9.915-7.403c-1.29-.963.529-3.2 1.945-2.496l10.177 5.056-2.27-9.496C16.376 1.631 19.417 1 20.15 2.74l3.663 8.687L29.128.99c1.06-2.083 3.736-.494 3.144 1.232l-2.95 8.59s10.866-5.673 22.494-5.673c17.91 0 39.24 10.74 43.912 29.89.63 2.59-2.582 2.685-3.3.933-8.866-21.629-27.884-25.443-40.19-25.443-6.52 0-14.672 3.522-14.672 3.522l7.833-.605c1.54-.119 2.819 2.61.453 3.144l-15.654 3.533 10.08 7.811c1.9 1.472.528 4.034-1.686 2.771l-10.598-6.044 3.079 12.024c.508 1.986-2.24 2.566-2.982.81l-5.024-11.862-7.098 14.585c-.937 1.924-3.81 1.03-2.982-1.458z" style="stroke-width:1px"/><path d="M19.826 21.572 2.648 27.276c-1.43.475-1.62-.992-.746-1.394l17.08-7.843L8.06 9.903c-.936-.697-.106-1.32.746-.907l11.7 5.672L17.784 3.68c-.292-1.18 1.06-1.118 1.426-.29l4.635 10.5 6.019-11.88c.527-1.04 1.764-.807 1.308.528l-3.6 10.542s9.74-6.917 25.054-6.872c13.16.04 35.435 7.256 42.46 28.88.365 1.123-1.102 1.724-1.621.42-6.578-16.519-21.06-25.872-40.71-25.734-11.53.08-21.45 5.927-21.45 5.927l13.637-1.352c1.723-.17 1.276 1.228.32 1.444l-17.05 3.85L39.9 28.696c.802.62.168 1.73-.637 1.268l-13.297-7.617 4.423 14.256c.286.922-1.023 1.64-1.604.275l-5.798-13.637-7.678 16.318c-.458.974-1.835.69-1.398-.596z" style="fill:url(#b);stroke-width:1px"/></svg>