<svg xmlns="http://www.w3.org/2000/svg" width="300" height="160"><path d="M280.047 160H19.339S-.027 120.382 0 80.015C-.019 39.615 19.344 0 19.344 0h260.708S300.009 39.756 300 79.999C299.992 120.244 280.047 160 280.047 160"/><path fill="gray" d="m189.277 117.666-3.769-2.566c-2.608-1.721-4.986-3.28-6.578-4.977-2.706-2.954-2.987-5.69-3.86-9.491-2.121-9.032-13.933-34.723-18.059-41.827-5.089-8.912-7.629-19.403-5.052-25.872l.318-1.63-6.212-3.589c-6.754 2.965-20.937 2.314-27.954-.568l-5.239 8.106c2.663 1.348 15.22 6.525 13.511 9.892-3.954 7.598-6.678 10.258-7.833 11.268-2.09 1.902-2.237 4.511-.079 7.118l3.519 3.902c2.306 2.299 4.227 1.961 6.503.429.893-.439 2.092-.973 3.347 1.55 5.187 10.832 12.984 25 15.997 36.336 2.015 7.517-8.022 13.643-12.586 17.554l6.454 7.017c12.792-10.203 35.381-6.591 48.807-2.214l2.735-6.495c-1.199-1.525-2.389-2.769-3.97-3.943"/><path fill="gray" d="M274.178 9.643 25.919 9.632C15.284 34.107 9.727 53.006 9.718 79.97c-.002 27.004 5.588 45.837 16.186 70.37l248.259.012c10.628-24.514 16.232-43.382 16.233-70.385.01-26.964-5.588-45.837-16.218-70.324m-6.098 131.446-236.052-.021c-1.933-4.544-3.637-8.926-5.132-13.264 8.552-4.452 19.081-4.812 28.474-3.357l.012-7.026-2.174-.868a14 14 0 0 1-2.558-1.891c-6.443-5.808 4.848-27.493 7.829-34.192 1.463-3.852-.067-5.64-2.519-6.702l-4.962-2.235c-2.205-1.266-5.033-1.252-6.193 2.019-3.864 7.421-6.071 15.519-8.93 23.368-3.187 8.512-5.778 15.588-11.881 21.546-3.347-12.085-5.006-24.225-4.982-38.517-.005-22.926 4.268-40.387 12.982-61.094l236.093.015c8.703 20.668 13.042 38.147 13.054 61.112-.026 22.97-4.348 40.401-13.061 61.107"/><path fill="gray" d="M117.639 76.673c1.631-1.981 2.595-4.532.132-7.045l-3.93-4.395c-2.028-1.863-4.676-1.759-6.793.227l-1.735 1.395c-6.721-4.871-10.088-12.714-14.544-19.639-3.366-5.099-8.172-10.105-8.44-16.435l-33.514-.923-2.736 3.509-1.863 2.507c-.814 1.113.286 3.219 2.332 3.585l2.642.544c2.151.509 4.239 1.11 5.247 1.78 2.324 1.488-3.221 14.735-4.134 17.116-2.214 3.941-.725 5.739 2.202 7.2l5.068 2.377c3.201 1.415 5.424.499 6.58-2.572l1.127-2.538c.523-.94.954-1.702 1.355-2.176l1.606-.525c11.219 6.3 29.453 53.02 27.049 68.942l-.675 2.582 8.836 4.942c3.478-7.555 12.487-16.285 20.831-17.793-1.08-5.421-2.539-10.492-4.414-15.61-2.907-8.004-8.256-19.292-2.229-27.055M209.995 91.888c-.237-1.343-.358-2.857-.356-4.556l-.026-58.934-1.096-.017-1.497-.02-.326.297c-6.377 5.843-17.613 11.806-24.152 13.361l-.841.204-.011.861-.033 2.183 1.132-.001 9.898-.004.016 52.798-11.007 3.999-.009.765-.016 1.049-.014 1.128h1.128l37.792-.001.028-1.087.048-1.93-.898-.198c-5.621-1.304-8.643-3.959-9.76-9.897M268.913 77.095c-2.082-12.007-12.894-22.587-33.996-23.18l1.128-11.258 29.331-.018.001-1.113.003-17.337-1.109-.004-1.036-.002-.333.482-3.273 4.755-31.01.018-.109.991-4.198 38.197 1.242-.001c21.324.034 29.144 8.564 30.374 15.521l.181 2.005c-.085 6.257-3.141 10.095-8.831 11.158q-1.326.234-2.841.236c-6.284-.053-10.654-3.728-11.706-9.475a14.6 14.6 0 0 1-.213-2.536l.001-.831-.798-.238-1.13-.336-.456.683-7.868 11.758-.504.752.635.646c4.954 5.046 12.192 8.088 20.227 8.052a36.6 36.6 0 0 0 6.446-.534c13.473-2.326 20.29-12.458 20.239-23.81 0-1.528-.129-3.063-.397-4.581"/></svg>