<svg xmlns="http://www.w3.org/2000/svg" xml:space="preserve" width="300" height="160"><linearGradient id="a" x1="8.319" x2="291.327" y1="131.851" y2="28.089" gradientUnits="userSpaceOnUse"><stop offset="0" style="stop-color:#8b723c"/><stop offset=".5" style="stop-color:#ebd491"/><stop offset="1" style="stop-color:#8b723c"/></linearGradient><path d="M149.8 0H19.4S0 39.6 0 80s19.4 80 19.4 80h260.7s20-39.8 19.9-80c0-40.3-19.9-80-19.9-80z" style="fill:url(#a)"/><path d="M185.5 115.1c-2.6-1.7-5-3.3-6.6-5-2.7-3-3-5.7-3.9-9.5-2.2-9.1-13.9-34.7-18-41.8-5.1-8.9-7.7-19.4-5.1-25.9l.4-1.6-6.3-3.6c-6.8 3-21 2.4-27.9-.6l-5.2 8.1c2.7 1.4 15.2 6.6 13.4 9.9-3.9 7.6-6.6 10.2-7.8 11.3-2.1 1.9-2.2 4.5-.1 7.1l3.6 3.9c2.2 2.3 4.2 2 6.5.5.9-.4 2.1-1 3.3 1.6 5.2 10.8 13 25 16 36.3 2 7.5-8 13.6-12.6 17.5l6.5 7.1c12.8-10.2 35.4-6.6 48.8-2.3l2.7-6.5c-1.2-1.5-2.4-2.7-4-3.9zM117.7 76.7c1.6-2 2.6-4.5.2-7.1l-3.9-4.4c-2-1.9-4.7-1.8-6.8.2l-1.7 1.4C98.6 62 95.2 54.1 90.8 47.2c-3.3-5.1-8.1-10.1-8.4-16.4l-33.5-.9-2.7 3.5-1.9 2.5c-.8 1.1.3 3.2 2.4 3.6l2.6.5c2.1.5 4.2 1.1 5.2 1.8 2.4 1.5-3.2 14.7-4.1 17.1-2.2 4-.8 5.8 2.2 7.2l5.1 2.4c3.2 1.4 5.5.5 6.6-2.6l1.1-2.5c.5-.9.9-1.7 1.3-2.1l1.6-.5c11.2 6.3 29.5 53 27 68.9l-.7 2.6 8.8 4.9c3.5-7.5 12.5-16.3 20.8-17.8-1.1-5.4-2.6-10.5-4.4-15.6-2.8-8.1-8.1-19.4-2.1-27.1"/><path d="M290.4 80c0-27-5.6-45.9-16.2-70.3H26C15.4 34.2 9.8 53 9.8 80s5.6 45.8 16.2 70.4h248.2c10.6-24.6 16.2-43.5 16.2-70.4m-22.3 61.1H32c-1.9-4.6-3.6-9-5.1-13.3 8.6-4.5 19.1-4.8 28.5-3.4v-7l-2.1-.9c-.6-.3-1.4-.9-2.6-1.9-6.5-5.8 4.9-27.5 7.9-34.2 1.4-3.8-.1-5.6-2.5-6.7l-4.9-2.3c-2.2-1.2-5.1-1.3-6.2 2.1-4 7.5-6.2 15.5-9.1 23.4-3.2 8.6-5.7 15.6-11.9 21.6-3.3-12.1-5-24.2-5-38.5 0-22.9 4.3-40.4 13-61.1h236.1c8.7 20.7 13 38.1 13.1 61.1-.1 23-4.4 40.4-13.1 61.1"/><path d="m220.7 102-.9-.2c-3.5-.8-5.9-2.1-7.6-4.3-1.6-2.2-2.6-5.5-2.6-10.1v-59H207l-.3.3c-6.4 5.8-17.6 11.8-24.2 13.4l-.8.2v3h11v52.8l-11.1 4v3h38.9V104ZM243.1 54.7c-2.5-.4-5.3-.7-8.2-.8l1.1-11.2h29.3V24.2h-2.1l-.3.5-3.3 4.7h-31.1l-.1 1-4.2 38.2h1.2c4 0 7.6.3 10.7.9 15 2.7 19.8 10.6 19.8 16.7 0 .9-.1 1.8-.2 2.6-1 5.5-4.8 8.6-11.5 8.7-.9 0-1.7-.1-2.5-.2-5.7-1-9.4-5.4-9.4-11.7v-.8l-.8-.2-1.1-.3-.5.7-7.9 11.7-.5.8.6.6c3.8 3.9 9 6.6 14.8 7.6 1.8.3 3.6.5 5.4.5 15.4.1 24.4-8.6 26.3-19.6.3-1.6.4-3.2.4-4.8.4-12.1-7.8-24-25.9-27.1"/></svg>