<svg xmlns="http://www.w3.org/2000/svg" width="300" height="160"><path fill="#fff" d="m280.047 159.99-130.326.009L19.366 160S.005 120.412 0 80.022C-.006 39.633 19.357.01 19.357.01L149.715.007 280.038 0S300.001 39.755 300 80.006c.002 40.235-19.953 79.984-19.953 79.984"/><path d="m299.306 92.998-9.913 5.444c.668-5.796 1.008-11.894.999-18.469 0-6.449-.345-12.423-.981-18.14l-9.071 2.673c.484 4.924.768 10.025.778 15.463-.002 8.724-.831 16.549-2.078 24.129l-13.679 7.513 13.372-5.508c-2.109 11.683-5.539 22.828-10.668 34.978l-31.828.004 4.515 9.271 33.414-.001c4.029-9.319 7.094-17.795 9.659-26.219l-8.78-2.02 11.4-6.979c1.019-4.289 1.69-8.701 2.328-13.182l10.004-4.121c.189-1.609.365-3.205.529-4.836M163.154 27.149l11.35-8.26 23.566.001-12.094-8.347L200.451.005 192.93.002l-10.595 9.653-103.191.006-16.18 9.224 109.265.002zM222.415 119.452l-9.295 21.63-70.825.006 15.871 9.257 50.963.002-4.163 9.649 8.629-.001 2.088-9.647 4.785-.002 7.218-9.265-9.967-.004zM67.243 6.91 78.4.011 43.325.012zM47.067 141.079l-2.022 9.273 33.136-.004 9.017 9.649 8.892-.001-12.204-9.642 35.968-.013 22.433-9.259-70.117.007-10.391-8.232 7.716 8.222z"/><path d="m135.253 123.302 6.464 7.034c12.788-10.219 35.377-6.597 48.805-2.238l2.745-6.489c-1.206-1.533-2.408-2.741-3.983-3.925l-3.789-2.586c-2.578-1.698-4.99-3.274-6.555-4.963-2.719-2.982-2.979-5.685-3.866-9.466-.755-3.127-2.628-8.201-4.926-13.828a205 205 0 0 0-1.019-2.42L134.21 60.293l26.113 4.826c-1.278-2.606-2.474-4.89-3.283-6.323-5.123-8.886-7.685-19.38-5.096-25.85l.367-1.642-6.228-3.584c-6.762 3.004-20.981 2.344-27.99-.563l-5.205 8.128c2.642 1.326 15.232 6.52 13.481 9.899-3.904 7.558-6.664 10.206-7.816 11.248-2.059 1.894-2.258 4.516-.069 7.098l3.54 3.909c2.264 2.335 4.188 1.981 6.46.431.924-.437 2.125-.962 3.341 1.554 5.221 10.854 13.012 25.004 16.016 36.314 2.026 7.543-8.007 13.656-12.588 17.564M279.061 56.005l8.599-4.353c-2.612-13.959-6.987-26.984-13.49-41.996l-57.207-.008-18.892 9.237 69.993.001c5.43 12.89 8.958 24.629 10.997 37.119M26.909 127.813c8.551-4.438 19.066-4.83 28.485-3.372l.005-7.002-2.151-.885c-.6-.351-1.491-.877-2.591-1.884-6.451-5.804 4.873-27.507 7.867-34.182 1.448-3.846-.066-5.633-2.528-6.68l-4.97-2.257c-2.208-1.264-5.052-1.273-6.219 2.023-3.85 7.431-6.06 15.504-8.92 23.339-3.186 8.546-5.757 15.619-11.886 21.574-3.344-12.076-4.984-24.22-4.985-38.502-.007-4.056.285-7.797.565-11.557l11.163-3.456-11.058 1.464c1.422-16.674 5.422-31.142 12.333-47.541l30.937-.007-3.555-9.225-33.49.003c-5.359 12.402-9.277 23.445-11.959 34.798l6.841 11.785-10.051 5.265c-.217 1.928-.178 4.146-.346 6.143l-9.89 1.3a164 164 0 0 0-.338 5.485l10.039-3.102c-.139 2.878-.476 5.568-.482 8.653.004 26.983 5.599 45.828 16.206 70.347l5.215-.004 8.849-9.254-7.983-.007a220 220 0 0 1-5.103-13.262"/><path d="m94.644 132.193 8.8 4.958c3.518-7.551 12.508-16.304 20.855-17.83-1.081-5.381-2.556-10.447-4.427-15.614-2.902-7.959-8.231-19.247-2.245-27.009 1.672-1.979 2.63-4.528.168-7.05l-3.934-4.378c-2.047-1.912-4.703-1.765-6.806.215l-1.737 1.384c-6.726-4.855-10.075-12.723-14.561-19.64-3.304-5.066-8.149-10.126-8.406-16.422l-33.538-.941-2.715 3.53-1.877 2.526c-.795 1.104.294 3.215 2.32 3.587l2.651.497c2.139.515 4.245 1.131 5.25 1.8 2.337 1.486-3.19 14.75-4.13 17.118-2.219 3.94-.721 5.739 2.222 7.194L57.6 68.53c3.187 1.374 5.389.488 6.565-2.592l1.147-2.577c.496-.896.939-1.662 1.357-2.111l1.574-.552c6.02 3.363 14.035 18.35 19.824 34.003l30.068 4.386-26.171 7.434c2.677 9.317 4.136 17.866 3.353 23.088zM207.049 28.395l-.329.295c-6.753 6.09-17.982 11.84-24.222 13.368l-.818.193.003 3.026 10.999.001.014 12.472 16.914 27.748.007-57.098z"/><path d="m220.614 101.955-.873-.2c-7.084-1.523-10.119-5.851-10.111-14.433l-.015-1.83-16.925-7.817-.008 20.425-10.993 3.977-.008 2.916 38.934.002zM222.413 97.966c5.031 5.141 12.373 8.076 20.219 8.075 16.215-.003 26.67-9.557 26.669-24.362a24.5 24.5 0 0 0-1.082-7.193l-20.011-.543c5.787 3.721 7.905 8.639 7.9 12.233-.009 7.108-4.379 11.377-11.7 11.377-7.121-.009-11.915-4.829-11.925-12.004l-.003-.767-1.853-.65-8.851 13.186zM265.359 42.655l-.006-18.444-2.139.009-3.571 5.238-31.025-.008-4.18 37.949-.141 1.234 1.246.003c9.278-.01 15.908 1.649 20.596 4.025l16.315-8.247c-5.374-5.8-14.118-10.118-27.537-10.528l1.15-11.223z"/></svg>