<svg xmlns="http://www.w3.org/2000/svg" width="300" height="160"><path d="M19.344 0S-.02 39.616 0 80.016C-.027 120.383 19.34 160 19.34 160h260.707S299.992 120.243 300 79.998C300.009 39.755 280.053 0 280.053 0Zm6.576 9.633 248.258.01c10.63 24.487 16.229 43.36 16.219 70.324-.001 27.003-5.607 45.87-16.235 70.385l-248.258-.012C15.306 125.807 9.717 106.975 9.72 79.97c.009-26.963 5.566-45.862 16.2-70.337m6.074 9.222C23.28 39.562 19.007 57.023 19.012 79.95c-.024 14.292 1.635 26.433 4.982 38.518 6.103-5.958 8.694-13.035 11.881-21.547 2.859-7.85 5.066-15.946 8.93-23.367 1.16-3.271 3.988-3.286 6.193-2.02l4.963 2.235c2.452 1.062 3.98 2.85 2.518 6.703-2.981 6.699-14.272 28.383-7.829 34.191a14 14 0 0 0 2.557 1.89l2.176.87-.014 7.025c-9.393-1.455-19.92-1.094-28.472 3.358 1.495 4.338 3.197 8.72 5.13 13.263l236.053.022c8.713-20.706 13.035-38.138 13.06-61.108-.011-22.965-4.35-40.445-13.052-61.113zm231.24 5.329 1.038.002 1.109.003-.004 17.336v1.114l-29.332.017-1.127 11.258c21.102.593 31.912 11.175 33.994 23.182.268 1.518.398 3.052.398 4.58.051 11.352-6.767 21.484-20.24 23.81-2.005.353-4.154.54-6.445.534-8.035.036-15.273-3.005-20.227-8.051l-.634-.647.504-.752 7.867-11.757.457-.684 1.129.336.798.238-.002.83c0 .885.071 1.734.213 2.537 1.052 5.747 5.423 9.422 11.707 9.475a16.4 16.4 0 0 0 2.84-.236c5.69-1.063 8.747-4.902 8.832-11.159l-.181-2.003c-1.23-6.957-9.05-15.488-30.373-15.522l-1.243.002 4.198-38.197.109-.992 31.01-.018 3.273-4.756zm-145.123 2.962c7.017 2.882 21.2 3.534 27.953.569l6.213 3.588-.318 1.63c-2.577 6.47-.036 16.96 5.053 25.872 4.126 7.104 15.937 32.796 18.058 41.828.873 3.8 1.154 6.536 3.86 9.49 1.592 1.697 3.97 3.256 6.578 4.977l3.77 2.566c1.58 1.174 2.77 2.418 3.968 3.943l-2.734 6.495c-13.426-4.377-36.015-7.989-48.807 2.214l-6.453-7.017c4.564-3.911 14.6-10.038 12.586-17.555-3.013-11.336-10.811-25.504-15.998-36.336-1.255-2.523-2.455-1.988-3.348-1.549-2.276 1.532-4.196 1.87-6.502-.43l-3.52-3.902c-2.157-2.607-2.01-5.215.08-7.117 1.156-1.01 3.879-3.67 7.833-11.267 1.709-3.367-10.849-8.545-13.512-9.893zm88.909 1.215 1.498.02 1.095.017.026 58.934c-.002 1.699.118 3.214.355 4.557 1.117 5.938 4.14 8.592 9.762 9.896l.896.197-.047 1.93-.029 1.088-37.79.002h-1.13l.016-1.129.015-1.049.008-.765 11.008-3.998-.015-52.8-9.899.005-1.133.002.034-2.184.011-.861.842-.203c6.54-1.555 17.774-7.519 24.15-13.362zM48.814 29.857l33.514.924c.268 6.33 5.076 11.337 8.442 16.436 4.456 6.925 7.822 14.767 14.543 19.638l1.736-1.394c2.117-1.986 4.765-2.092 6.793-.229l3.93 4.397c2.463 2.513 1.498 5.064-.133 7.045-6.027 7.763-.679 19.05 2.228 27.055 1.875 5.118 3.334 10.188 4.414 15.609-8.344 1.508-17.352 10.238-20.83 17.793l-8.836-4.942.674-2.582c2.404-15.922-15.83-62.643-27.049-68.943l-1.605.525c-.401.474-.833 1.236-1.356 2.176l-1.127 2.54c-1.156 3.07-3.379 3.987-6.58 2.572L52.506 66.1c-2.927-1.461-4.417-3.26-2.203-7.202.913-2.38 6.459-15.627 4.135-17.115-1.008-.67-3.098-1.27-5.249-1.78l-2.64-.544c-2.046-.366-3.146-2.473-2.332-3.586l1.861-2.506z"/></svg>