<svg xmlns="http://www.w3.org/2000/svg" width="222.027" height="272" viewBox="0 0 58.745 71.967"><path d="M56.887 35.454c1.585-2.364 3.88-6.533-1.588-11.318 2.27-6.111-4.644-10.403-8.466-7.55 9.218 6.446-8.674 12.26-8.728 12.246.004.03-1.049 8.355 4.658 14.373-1.673-.035-3.226-.97-4.463-2.062v9.326c8.21-3.85 12.15 3.102 12.104 3.241 2.792-7.682-1.32-11.282-2.125-12.764-.76-1.397-2.088-3.466-2.155-6.968.694-6.622 9.1-6.073 10.763 1.476m-55.029 0C.273 33.09-2.023 28.921 3.445 24.136c-2.27-6.111 4.645-10.403 8.467-7.55-9.247 6.486 8.72 12.249 8.728 12.246-.003.02 1.045 8.156-4.658 14.373 1.673-.035 3.226-.97 4.463-2.062v9.326C12.234 46.62 8.294 53.571 8.34 53.71c-2.792-7.682 1.32-11.282 2.126-12.764.759-1.397 2.087-3.466 2.154-6.968-.694-6.622-9.1-6.073-10.762 1.476"/><path d="m35.669 63.037.05-33.734-4.52.704c-1.328 32.313-.483 29.283-1.86 33.94-1.377-4.657-.532-1.627-1.86-33.94l-4.52-.704.05 33.734c1.898 4.216 3.904 7.181 6.33 8.93 2.426-1.749 4.432-4.714 6.33-8.93m11.058-42.466c.276-.926-1.886-2.468-1.747-2.447l.198-8.864-4.894 2.712c-.575 3.583-2.213 6.633-7.343 7.938.278-2.98-.5-5.91 4.3-9.393C36.18 6.307 33.208 2.98 29.339 0c-3.869 2.98-6.843 6.308-7.902 10.517 4.8 3.483 4.022 6.412 4.3 9.393-5.13-1.305-6.768-4.355-7.343-7.938L13.5 9.26l.198 8.864c.14-.02-2.023 1.52-1.747 2.447.9 3.025 11.165 6.794 17.388 6.794s16.487-3.769 17.388-6.794"/></svg>