<?xml version="1.0" encoding="UTF-8" standalone="no"?>
<svg
   version="1.1"
   width="600"
   height="522.55054"
   id="svg6"
   xmlns="http://www.w3.org/2000/svg"
   xmlns:svg="http://www.w3.org/2000/svg">
  <defs
     id="defs6" />
  <path
     d="M 124.04603,522.55054 H 99.784759 V 239.32068 l 22.133751,-58.32411 21.05132,-22.27558 16.16174,-35.63048 H 84.623328 L 68.670607,102.30046 33.502955,77.44945 0,0 h 600 l -33.50295,77.53903 -35.1378,24.76143 -16.47527,20.79005 h -73.97823 l 16.15428,35.6902 21.11104,22.27558 22.04417,58.29425 v 87.45257 l -35.92908,18.72224 h -11.63048 l -51.55335,32.8311 -47.85816,24.93313 h -23.05941 l -52.0535,39.10171 -47.58942,24.76143 h -23.20871 l -52.14308,39.19129 z"
     id="path1" />
  <path
     d="m 439.12162,261.24541 h -32.48025 l -10.73468,14.34774 v 94.62644 l 53.97947,-34.3465 -0.0299,-60.27994 -10.73468,-14.34774 z"
     style="fill:#ffffff"
     id="path2" />
  <path
     d="M 193.24666,261.24541 H 160.7888 l -10.72721,14.34774 v 222.55428 l 54.03172,-40.67683 -0.0896,-181.87745 -10.75707,-14.34774 z"
     style="fill:#ffffff"
     id="path3" />
  <path
     d="m 316.18787,261.24541 h -32.48771 l -10.72722,14.34774 v 158.60156 l 54.00187,-40.55739 -0.0597,-118.04417 -10.72722,-14.34774 z"
     style="fill:#ffffff"
     id="path4" />
  <path
     d="M 129.67465,186.80435 H 470.35521 L 448.92317,164.20031 H 151.10669 Z"
     style="fill:#ffffff"
     id="path5" />
  <path
     d="M 521.73686,97.28398 496.22146,71.2087 H 103.8084 L 78.322862,97.28398 91.15521,113.46811 h 72.37325 c 2.42613,-5.36734 4.34463,-9.62239 4.34463,-9.62239 h 264.25382 c 0,0 1.83639,4.0535 4.37449,9.62239 h 72.37325 z"
     style="fill:#ffffff"
     id="path6" />
</svg>
