<svg xmlns="http://www.w3.org/2000/svg" width="775.875" height="500"><path d="M421.452 271.91c4.223 7.274 10.53 19.739 10.885 29.603l.097 2.665-1.333 2.32c-.709 1.226-1.59 2.558-2.622 4.095-6.307 9.445-19.438 29.109-19.438 68.974 0 44.012 26.165 73.11 48.107 89.766C484.914 490.404 517.02 500 535.094 500c4.588 0 44.765-1.032 44.765-36.77 0-16.269-11.487-25.961-22.2-31.323 4.975 10.66 6.738 19.008 2.912 25.66-2.01 3.47-6.254 7.618-15.14 7.618-40.768 0-83.62-61.936-83.62-89.26 0-14.432 8.532-19.557 16.516-19.557 2.278 0 3.31.462 9.004 3.02 57.563 25.884 109.162 39.004 153.357 39.004 88.756 0 135.187-40.928 135.187-81.352 0-37.952-42.079-55.027-71.95-55.027h-.678c-32.59.957-53.243 17.472-58.55 32.419-1.752 4.91-1.903 9.617-.517 13.872 7.963-10.015 22.082-22.254 43.573-22.254 9.08 0 21.555 1.698 29.377 9.79 4.588 4.749 6.888 11.046 6.651 18.191-.612 18.063-13.291 39.586-70.263 39.586-56.37 0-116.726-28.862-116.726-71.832 0-37.577 39.65-72.316 78-105.906 11.229-9.843 21.877-19.159 31.376-28.4-.666-2.31-3.685-6.576-5.555-8.317-35.298-25.154-97.653-62.505-152.68-95.482a13337 13337 0 0 1-37.06-22.254C437.688 13.475 409.76 0 388.69 0l-.753.01-.752-.01c-21.071 0-48.998 13.475-62.183 21.426a11139 11139 0 0 1-37.06 22.254c-55.027 32.966-117.382 70.328-152.68 95.482-1.87 1.741-4.89 6.018-5.556 8.317 9.5 9.23 20.148 18.557 31.377 28.4 38.35 33.59 78 68.33 78 105.906 0 42.97-60.357 71.832-116.726 71.832-56.972 0-69.651-21.523-70.264-39.586-.236-7.145 2.063-13.442 6.652-18.192 7.833-8.09 20.297-9.789 29.377-9.789 21.49 0 35.61 12.25 43.572 22.254 1.376-4.255 1.236-8.962-.515-13.872-5.309-14.947-25.972-31.462-58.745-32.419h-.484C42.08 262.013 0 279.088 0 317.04c0 40.434 46.43 81.352 135.187 81.352 44.195 0 95.794-13.12 153.356-39.005 5.695-2.557 6.727-3.02 9.005-3.02 7.984 0 16.515 5.137 16.515 19.557 0 27.325-42.852 89.261-83.62 89.261-8.886 0-13.14-4.147-15.14-7.618-3.825-6.651-2.063-15 2.912-25.66-10.713 5.362-22.189 15.054-22.189 31.323 0 35.738 40.177 36.77 44.765 36.77 18.085 0 50.18-9.606 77.947-30.667 21.942-16.666 48.106-45.764 48.106-89.766 0-39.865-13.12-59.53-19.438-68.974-1.031-1.537-1.913-2.87-2.622-4.094l-1.332-2.321.097-2.665c.354-9.864 6.672-22.329 10.884-29.603l-25.37-36.04v-2.955c0-33.203 25.306-58.24 58.874-58.24 33.569 0 58.874 25.037 58.874 58.24v2.944z" style="stroke-width:10.7453"/></svg>