<svg xmlns="http://www.w3.org/2000/svg" xml:space="preserve" width="330.188" height="395.38"><path d="M126.598 0c-10.19 6.022-32.06 21.339-59.391 33.619C39.871 45.898 19.273 51.52 15.162 54.312c-4.11 2.793-3.513 4.508-2.898 10.112C16.912 106.69 18.395 137.82 0 152.55c0 0 16.418 25.54 49.771 47.04 0 0 4.199 46.93-21.275 52.36 14.549 21.24 46.283 56.34 65.162 78.69 18.87 22.36 53.26 54.98 59.2 58.98 5.93 4 8.51 5.76 12.24 5.76 3.72 0 6.3-1.76 12.24-5.76 5.93-4 40.32-36.62 59.19-58.98 18.88-22.35 50.61-57.45 65.16-78.69-25.47-5.43-21.27-52.36-21.27-52.36 33.35-21.5 49.77-47.04 49.77-47.04-18.4-14.73-16.91-45.86-12.27-88.126.62-5.605 1.22-7.319-2.9-10.112-4.11-2.792-24.7-8.413-52.04-20.693S213.778 6.021 203.588 0c8.39 26.156.98 41.473-38.49 79.58-39.48-38.106-46.89-53.423-38.5-79.58m-38.69 91.46c8.84 0 35.04 7.44 52.87 31.54-20.1 9.73-10.22 65.9 11.42 180.52-48.73-48.37-76.591-102.63-83.069-121.11-11.612-33.12-7.659-90.95 18.779-90.95m154.37 0c26.44 0 30.39 57.83 18.78 90.95-6.48 18.48-34.34 72.73-83.06 121.1 21.63-114.61 31.51-170.78 11.41-180.51 17.83-24.1 44.03-31.54 52.87-31.54"/></svg>