<svg xmlns="http://www.w3.org/2000/svg" xmlns:xlink="http://www.w3.org/1999/xlink" width="469.482" height="534.677"><defs><linearGradient id="a"><stop offset="0" style="stop-color:#536e78"/><stop offset=".2" style="stop-color:#829ba5"/><stop offset=".4" style="stop-color:#d9eaf3"/><stop offset=".6" style="stop-color:#d9eaf3"/><stop offset=".8" style="stop-color:#829ba5"/><stop offset="1" style="stop-color:#536e78"/></linearGradient><linearGradient xlink:href="#a" id="b" x1="722.118" x2="933" y1="484.81" y2="119.552" gradientTransform="translate(-698.295 -95.803)" gradientUnits="userSpaceOnUse"/></defs><path d="M234.863 0a23.74 23.74 0 0 0-11.877 3.174L11.961 124.844a23.75 23.75 0 0 0-11.889 20.56L0 267.338.072 389.27a23.75 23.75 0 0 0 11.889 20.561l211.025 121.67a23.75 23.75 0 0 0 23.75-.014l210.883-121.92a23.75 23.75 0 0 0 11.863-20.576l-.072-121.654.072-121.654a23.76 23.76 0 0 0-11.863-20.577L246.736 3.187A23.74 23.74 0 0 0 234.863 0" style="fill:#000"/><path d="M234.56 23.748 23.679 145.668l.144 243.59L234.85 510.926l210.882-121.918-.144-243.59Zm-23.494 45.566c.875 75.395 60.965 70.954 133.813 176.967-10.43-43.07-73.742-90.3-91-114.033-10.5-14.44 4.885-52.812 4.885-52.812-.454 45.248 32.93 69.821 76.289 109.193 32.615 29.616 59.381 53.902 50.482 101.56 15.226.037 20.36 8.682 19.272 21.836 16.78-5.91 21.411-17.385 25.816-28.966 9.098 65.202-29.416 87.657-42.592 96.105 9.498-43.11-29.351-50.394-59.408-44.63 26.247-43.379-70.416-43.975-91.16-28.08 12.85.786 24.814-3.309 39.605 8.15-21.05 19.799-20.072 42.415 10.385 40.363-24.78 27.04 9.62 32.169 17.4 27.322-15.11 25.606 12.894 34.274 40.895 18.11-5.71 12.484-17.448 60.208-134.383 58 24.007-8.272 42.432-21.079 46.87-45.25-6.205 4.722-12.683 8.62-21.31 6.078 18.163-20.566 13.035-45.004-4.484-63.405-17.484-18.365-47.82-31.062-90.337-20.54 16.044-21.382 33.911-42.183 76.5-55.118-8.52-6.301-19.451-11.682-40.75-13.115 31.039-22.002 57.288-20.809 74-22.867-40.364-7.641-82.222-1.706-117.12 33.5 23.997 1.303 23.002 4.606 33.381 7-24.823 6.798-50.477 16.148-84.367 50.75 2.583-35.757 6.738-72.467-55.87-68.75-.74-2.217 42.527-32.505 67.677-44.772 23.724-11.571-9.902-53.28-25.946-51.873 15.685-4.613 37.524-7.733 57.52 1.818-13.678-22.709-12.862-42.519-11.5-62.22 40.19 65.425 87.555 51.367 129.562 107.496-14.535-42.624-42.397-52.438-45.937-59.033s-11.379-52.654 11.812-88.784m87.659 167.418c-5.985 4.647 3.843 19.926 10.638 30.645 10.574 16.678 29.553 13.316 30.286 12.047 1.528-2.648-5.968-17.969-16.583-27.787-4.547-4.206-18.66-19.315-24.341-14.905" style="fill:url(#b)"/></svg>