<svg xmlns="http://www.w3.org/2000/svg" width="600" height="320.33"><linearGradient id="a" x1="0" x2="1" y1="0" y2="0" gradientTransform="matrix(-33.8789 -33.8789 -33.8789 33.87892 513.205 51.843)" gradientUnits="userSpaceOnUse" spreadMethod="pad"><stop offset="0" style="stop-color:#bf331c"/><stop offset=".5" style="stop-color:#f6b91d"/><stop offset="1" style="stop-color:#bf331c"/></linearGradient><path d="M560.335 320.33c10.863-20.852 18.73-43.094 26.032-65.349C589.604 241.78 600 204.117 600 162.15s-9.976-83.18-13.957-97.28C579.772 42.53 570.167 21.354 561.27 0H38.694c-8.861 21.355-18.502 42.53-24.785 64.87C9.976 78.97 0 120.181 0 162.15c0 41.967 10.396 79.63 13.585 92.831 7.35 22.255 15.217 44.497 26.044 65.35z" style="fill:#fff"/><path d="m474.973 47.492-.18-.433c-.609-1.438-1.238-2.922-1.664-4.43-.191-.676-1.137-4.238-1.137-7.906 0-3.129.727-6.024 1.039-7.258l.063-.254c.617-1.879 1.187-3.457 1.922-4.934h42.5c.785 1.59 1.386 3.301 1.902 4.879l.074.285c.313 1.239 1.043 4.137 1.043 7.282 0 3.668-.945 7.23-1.133 7.906-.422 1.492-1.047 2.969-1.648 4.394l-.195.469z" style="fill:url(#a)" transform="matrix(11.99065 0 0 -11.99065 -5650.545 578.453)"/><path d="M233.302 191.19c5.9 15.277 12.039 30.685 14.329 46.932-5.012 2.77-10.528 4.4-15.312 7.542-10.912 7.075-19.485 17.243-25.756 28.526-5.624-2.434-11.343-5.06-16.116-8.945-.983-2.062-.287-4.496-.323-6.703 1.307-14.424-1.69-28.85-5.911-42.566-4.161-13.214-7.818-26.656-13.67-39.306-7.398-17.518-15.503-35.132-27.866-49.785-2.482-2.206-5.528-7.17-9.233-4.269-4.592 4.221-4.688 11.715-9.604 15.6-6.32 1.835-11.99-2.434-17.423-5.06-3.74-1.966-9.184-4.592-8.057-9.784 2.626-10.444 8.25-19.953 10.911-30.397.24-3.285 1.69-8.573-2.386-9.976-5.528-2.77-11.99-2.901-17.518-5.575-2.242-1.175-2.53-4.125-1.031-5.996 2.77-4.029 5.671-8.297 9.652-11.247 8.382-1.115 16.81.852 25.204.756 13.622.371 27.255-.048 40.84.84 1.128 9.328 6.044 17.47 11.751 24.736 10.216 13.717 16.955 29.929 28.766 42.53 1.63 1.452 3.37 3.37 5.66 3.466 3.8-1.319 6.978-4.125 11.007-4.832 4.736.384 7.686 4.688 10.732 7.83 2.997 3.693 7.638 7.77 6.09 13.106-1.882 5.347-7.074 9.04-7.83 14.856-1.078 9.317-.42 18.97 3.094 27.722M474.052 71.19c11.295-4.676 22.158-10.444 33.777-14.377-.516 16.955.18 33.91-.935 50.769-.192 16.535.132 33.07-.096 49.605.276 2.854-2.206 4.736-4.077 6.463-6.702 5.815-13.165 11.859-18.789 18.693-1.355 1.775-3.177 3.046-5.192 3.981 1.499-30.54 1.595-61.176-.288-91.668-.038-1.631-1.115-3.418-2.95-3.274-7.302-.66-14.604.42-21.918-.323-.229-3.333-.229-6.703-.048-10.072 6.187-4.497 13.633-6.607 20.516-9.797m-86.932 0c11.295-4.676 22.158-10.443 33.777-14.376-.516 16.954.18 33.91-.935 50.768-.192 16.535.131 33.07-.096 49.605.275 2.854-2.206 4.737-4.077 6.463-6.703 5.816-13.166 11.86-18.79 18.694-1.354 1.774-3.177 3.045-5.191 3.98 1.499-30.54 1.595-61.176-.288-91.668-.038-1.63-1.115-3.417-2.95-3.273-7.302-.66-14.604.419-21.918-.324-.229-3.333-.229-6.702-.048-10.072 6.187-4.496 13.633-6.607 20.515-9.796m-1.354 171.898c-.372 4.592-2.806 8.67-4.965 12.698-10.731-1.175-20.84-5.432-31.619-6.091-16.667-2.243-33.957-2.434-50.157 2.578-5.911 1.774-10.827 5.527-16.115 8.573-4.353-4.449-8.765-8.861-12.363-13.91 8.142-8.009 19.39-13.728 23.934-24.832 3.37-9.412-1.919-18.825-5.252-27.494-6.463-17.842-16.343-34.138-24.03-51.476-1.498-2.71-2.661-6.127-5.611-7.542-4.125.564-8.01 4.268-12.23 2.53-4.353-2.806-7.543-7.027-10.816-10.96-2.674-3.093-3.98-7.59-2.206-11.379 2.482-3.789 6.27-6.607 8.8-10.396 3.286-4.736 6.428-9.604 8.526-14.892 1.127-2.398-.371-4.88-2.146-6.38-7.123-5.85-16.02-8.8-23.61-13.908 2.998-5.192 6.32-10.156 9.46-15.264 5.852.419 11.428 2.757 17.28 3.273 8.44.804 16.918.804 25.348.336 4.868-.288 9.364-2.434 14.089-3.142 4.22 1.967 7.925 4.82 11.858 7.255-.516 6.187-3.141 12.134-2.35 18.417 1.127 9.46 3.094 18.826 7.267 27.447 6.367 12.734 14.005 24.868 19.293 38.166 6.978 16.859 15.228 33.31 20.66 50.816 2.625 8.202 3.045 17.902 9.7 24.174 6.08 5.335 13.106 9.556 19.856 14.053 2.854 1.966 5.9 4.076 7.399 7.35m175.735-68.994c.095 6.978-.984 13.825-1.919 20.66-1.031 6.786-1.259 13.729-2.71 20.516-1.547 7.206-3.657 14.232-5.528 21.403-3.333 15.084-9.376 29.365-14.988 43.706-.384 2.146-2.818 1.966-4.496 2.098a713496 713496 0 0 0-453.307 0c-4.868-.18-9.928.708-14.712-.647-3.693-8.346-7.075-16.871-9.737-25.624 7.722-4.737 16.86-6.32 25.708-7.59 10.216-.744 20.612-.696 30.732 1.079.324-4.82.324-9.7-.096-14.521-4.64-3.19-11.379-5.288-12.602-11.571-1.918-9.173 1.739-18.166 4.029-26.931 2.062-8.657 6.703-16.391 9.88-24.677 2.303-5.995 7.315-11.475 6.235-18.321-.24-3.322-3.657-5.06-6.283-6.463-4.772-2.29-9.736-4.677-15.072-5.24-3.465-.467-6.187 2.338-7.542 5.192-8.993 18.873-13.957 39.305-22.255 58.454-4.352 11.295-9.64 22.722-18.55 31.2-3.033-6.463-3.548-13.73-5.383-20.612-2.146-10.72-3.465-21.643-4.628-32.459-.611-14.892-.515-29.833-.096-44.725 1.21-17.099 4.868-33.922 8.093-50.684 5.013-16.907 10.78-33.682 17.435-49.977 1.679-.192 3.37-.373 5.048-.42 155.459.143 310.87-.145 466.328.143 3.046 4.533 4.688 9.88 6.463 15.037 4.029 12.026 8.43 23.933 11.847 36.151 2.11 11.763 4.964 23.37 6.091 35.277 2.902 16.391 1.967 33.058 2.015 49.545m16.439-54.845c-2.015-10.588-3.322-21.307-6.223-31.703-2.015-12.459-7.123-24.078-10.684-36.164-3.837-10.96-8.801-21.5-13.25-32.231-1.69-.038-3.381-.228-5.012-.228-157.569.048-315.138 0-472.695 0-6.415.096-12.83-.288-19.21.276-3.093 11.475-9.316 21.787-12.733 33.166-5.108 16.247-10.864 32.363-13.861 49.186-3.514 16.295-4.365 32.974-4.497 49.593-.144 16.823-.096 33.682 1.583 50.349 1.45 11.39 4.269 22.446 6.799 33.538 2.901 15.372 9.412 29.7 14.328 44.449 3.142 7.266 6.044 14.569 8.945 21.93 165.531.087 331.062.087 496.581 0 12.135-29.94 23.981-60.432 28.574-92.603 3.513-16.583 2.722-33.586 3.705-50.397-.899-13.07-.564-26.187-2.35-39.161"/></svg>