<svg xmlns="http://www.w3.org/2000/svg" width="600" height="320.58"><path d="M38.713 0C29.809 21.372 20.196 42.564 13.92 64.92 9.984 79.032 5.34 93.048 3.793 107.664c-1.032 9.192-2.341 18.337-3.793 27.48v57.131c1.872 7.644 3.084 15.47 4.164 23.305 1.788 13.5 6.192 26.388 9.42 39.6 7.32 22.272 15.192 44.532 26.064 65.4h520.836c8.1-16.416 15-33.42 21.084-50.676 3.852-13.452 9.048-26.58 11.256-40.5 3.612-14.808 4.692-30.096 7.176-45.144V129.61c-2.772-12.384-3.947-25.03-7.031-37.367C587.389 60 573.516 30.144 561.419 0ZM60.54 18.86c3.204.017 6.415.098 9.625.074 157.692-.048 315.383 0 473.063-.047 1.644.048 3.288.189 4.968.275 4.452 10.74 9.42 21.29 13.32 32.258 3.517 12.048 8.665 23.675 10.633 36.143 2.952 10.404 4.271 21.132 6.287 31.728 1.777 12.984 1.452 26.16 2.292 39.191-.936 16.824-.143 33.842-3.659 50.438-4.584 32.208-16.452 62.724-28.584 92.676-165.66.086-331.32.086-496.968 0-2.916-7.368-5.82-14.678-9-21.95-4.884-14.76-11.448-29.052-14.352-44.484-2.484-11.1-5.292-22.164-6.744-33.516-1.74-16.728-1.74-33.599-1.596-50.435.144-16.584.984-33.325 4.5-49.633 3-16.788 8.76-32.952 13.824-49.176 3.468-11.388 9.707-21.708 12.803-33.24 3.186-.276 6.384-.32 9.588-.303m8.316 19.06c-1.692.048-3.372.276-5.064.42-6.66 16.356-12.42 33.095-17.436 50.015-3.24 16.788-6.887 33.613-8.11 50.725-.42 14.952-.518 29.856.095 44.76 1.176 10.824 2.484 21.755 4.644 32.531 1.824 6.84 2.339 14.113 5.387 20.629 8.856-8.532 14.196-19.921 18.564-31.273 8.292-19.164 13.26-39.6 22.26-58.5 1.368-2.808 4.081-5.615 7.55-5.147 5.34.564 10.307 2.951 15.095 5.195 2.628 1.404 6.048 3.145 6.228 6.47 1.128 6.851-3.937 12.334-6.181 18.382-3.192 8.292-7.835 15.985-9.887 24.697-2.352 8.724-5.953 17.77-4.033 26.903 1.212 6.288 7.97 8.4 12.601 11.58.432 4.836.432 9.709.096 14.533-10.116-1.776-20.532-1.824-30.744-1.08-8.868 1.272-18 2.867-25.74 7.595 2.676 8.772 6.047 17.34 9.755 25.692 4.728 1.307 9.793.421 14.665.601 151.272 0 302.483-.038 453.707 0 1.692-.132 4.127.047 4.5-2.101 5.628-14.352 11.676-28.644 15-43.692 1.872-7.176 3.985-14.244 5.533-21.468 1.452-6.744 1.69-13.74 2.71-20.532.949-6.84 2.02-13.692 1.934-20.628-.048-16.548.887-33.227-2.017-49.631-1.128-11.916-3.984-23.532-6.096-35.256-3.42-12.276-7.823-24.18-11.855-36.229-1.836-5.16-3.47-10.464-6.47-15.048-155.58-.24-311.11 0-466.69-.143M235.55 54.936c5.904.42 11.484 2.759 17.34 3.275 8.436.803 16.921.803 25.357.336 4.872-.288 9.371-2.435 14.111-3.143 4.212 1.968 7.92 4.872 11.856 7.26-.517 6.24-3.18 12.143-2.34 18.479 1.128 9.42 3.097 18.841 7.213 27.421 6.432 12.744 14.063 24.936 19.367 38.196 6.984 16.92 15.23 33.383 20.617 50.867 2.628 8.244 3.096 17.952 9.756 24.18 6.096 5.352 13.127 9.564 19.871 14.064 2.82 1.968 5.869 4.08 7.405 7.356-.42 4.644-2.808 8.725-5.016 12.709-10.68-1.176-20.808-5.436-31.584-6.096-16.692-2.244-33.985-2.388-50.209 2.58-5.904 1.824-10.823 5.532-16.127 8.58-4.356-4.404-8.761-8.856-12.373-13.92 8.16-8.016 19.405-13.74 23.953-24.805 3.372-9.468-1.92-18.887-5.244-27.515-6.468-17.904-16.417-34.213-24.049-51.565-1.5-2.712-2.675-6.13-5.627-7.547-4.128.564-8.016 4.272-12.24 2.532-4.356-2.808-7.536-7.021-10.824-10.97-2.676-3.047-3.984-7.582-2.196-11.386 2.484-3.792 6.275-6.612 8.807-10.404 3.228-4.74 6.421-9.564 8.533-14.904 1.128-2.388-.372-4.873-2.16-6.373-7.128-5.82-16.08-8.772-23.629-13.932 3-5.148 6.336-10.163 9.432-15.275m185.713 1.92c-.517 16.92.19 33.888-.938 50.808-.192 16.5.145 33.048-.095 49.596.288 2.904-2.197 4.74-4.08 6.469-6.697 5.82-13.164 11.915-18.792 18.707-1.356 1.776-3.24 3.048-5.255 3.984 1.5-30.564 1.643-61.176-.229-91.74-.048-1.632-1.127-3.42-2.951-3.276-7.32-.612-14.628.419-21.936-.277-.288-3.384-.24-6.755-.048-10.127 6.18-4.5 13.63-6.613 20.53-9.805 11.293-4.68 22.166-10.452 33.794-14.34m86.998.001c-.517 16.92.192 33.887-.936 50.807-.192 16.5.145 33.048-.095 49.596.288 2.904-2.197 4.74-4.08 6.469-6.697 5.82-13.164 11.915-18.792 18.707-1.356 1.776-3.241 3.048-5.257 3.984 1.5-30.564 1.645-61.176-.227-91.74-.048-1.632-1.127-3.42-2.951-3.276-7.32-.612-14.63.421-21.938-.275-.288-3.384-.238-6.757-.046-10.129 6.18-4.5 13.63-6.613 20.53-9.805v.002c11.293-4.68 22.164-10.452 33.792-14.34m-403.875 3.004c6.33.058 12.648 1.147 18.94 1.075 13.643.371 27.276-.047 40.872.841 1.128 9.336 6.048 17.532 11.772 24.756 10.212 13.728 16.967 29.999 28.775 42.563 1.644 1.452 3.324 3.373 5.676 3.517 3.792-1.32 6.984-4.176 11.016-4.884 4.728.384 7.633 4.74 10.681 7.836 3.048 3.744 7.69 7.775 6.143 13.115-1.872 5.352-7.08 9.049-7.824 14.869-1.08 9.324-.418 18.983 3.097 27.79h-.002c5.904 15.24 12.036 30.71 14.34 46.97-5.016 2.724-10.546 4.356-15.322 7.5-10.98 7.08-19.501 17.255-25.79 28.595-5.675-2.484-11.34-5.112-16.175-9-.936-2.064-.227-4.5-.275-6.709 1.308-14.436-1.693-28.871-5.905-42.6-4.176-13.223-7.871-26.675-13.691-39.335-7.404-17.532-15.517-35.148-27.889-49.824-2.484-2.16-5.532-7.128-9.24-4.272-4.584 4.224-4.68 11.724-9.6 15.66-6.384 1.788-12-2.484-17.435-5.064-3.756-2.016-9.193-4.632-8.065-9.84 2.616-10.452 8.244-19.92 10.92-30.371.18-3.336 1.68-8.581-2.388-10.033-5.532-2.772-12-2.856-17.532-5.532-2.304-1.176-2.53-4.128-1.03-6.048 2.76-4.032 5.615-8.291 9.599-11.207 2.112-.291 4.222-.387 6.332-.368"/></svg>