<svg xmlns="http://www.w3.org/2000/svg" xmlns:xlink="http://www.w3.org/1999/xlink" width="600" height="429.723"><radialGradient id="a" cx="0" cy="0" r="1" fx="0" fy="0" gradientTransform="matrix(21.29597 0 0 -21.29597 747.99 369.627)" gradientUnits="userSpaceOnUse" spreadMethod="pad"><stop offset="0" style="stop-color:#ebd491"/><stop offset=".7" style="stop-color:#d2bb7b"/><stop offset="1" style="stop-color:#8b723c"/></radialGradient><radialGradient xlink:href="#a" id="b" cx="0" cy="0" r="1" fx="0" fy="0" gradientTransform="translate(299.916 241.357)scale(228.79219)" gradientUnits="userSpaceOnUse" spreadMethod="pad"/><path d="M525.924 131.85h-28.868c-.462-.215-16.577-8.057-16.577-8.057l-8.1-26.44-.172.086-.043-.043-16.696 9.186c-.043.043-9.11 4.995-21.948 8.938-.334.086-.967.215-2.138.215-4.115 0-10.25-1.558-17.34-3.363-11.453-2.976-25.72-6.628-42.76-6.628-20.562 0-42.64 3.738-56.273 6.542-8.402-17.5-21.66-32.39-47.809-32.39-11.162 0-23.453 2.427-39.568 5.833a33 33 0 0 1-3.277.462c-5.242.376-9.733-1.053-13.6-3.61-14.14-9.82-20.059-35.464-20.145-35.797h-.043c-.077-.172-6.79-22.12-8.895-41.513-1-9.604-11.206-3.148-11.206-3.148-4.523 19.607-10.195 44.242-10.281 44.36h-.043l-7.757 33.702-16.287-14.02-8.939 37.817-10.657 3.782-1.096 3.395-10.743 3.814-.58 2.148c-6.715 2.385-12.13 4.32-12.13 4.32s-2.267 9.486-2.439 10.367H71.551L0 406.518h237.613a37 37 0 0 0 4.877 6.585c10.239 11.045 27.611 16.62 51.494 16.62 35.292 0 51.321-11.205 58.54-20.939H600Z" style="fill:#fff"/><path d="M337.29 373.91s6.833 24.926-41.888 24.926c-48.722 0-40.75-27.192-40.75-27.192H49.645l60.185-233.627 5.662-2.02-59.218 231.661s47.046-9.99 70.423-13.43c23.378-3.48 129.05-19.939 174.377 20.81 0 0 30.587-15.813 95.134-15.813s114.407 11.29 144.95 7.885L484.97 152.327l7.929 3.395 56.242 218.19zM120.446 130.927l6.295-2.267-52.578 222.422s65.342-14.643 118.64-13.977c53.287.634 81.919 16.244 81.919 16.244s-44.242-13.01-89.063-11.034c-44.897 1.923-91.234 10.82-121.777 17.953zm11.001-6.8 6.962-2.514-49.646 214.192s38.397-4.32 52.665-6.5c14.944-2.267 82.552-16.244 142.984 21.444 0 0-57.832-23.42-111.753-18.22-53.975 5.21-76.053 9.786-92.33 13.01zm17.286-17.5 11.582 9.646-41.717 198.883s23.088 1.01 54.77-5.5c31.016-6.372 83.262 7.22 118.511 40.33 0 0-53.588-40.202-128.964-29.125-29.201 4.243-65.675 7.767-65.675 7.767 0-.086 51.493-222.002 51.493-222.002m27.74-33.402s8.52 33.402 42.179 35.378c33.734 2.01 71.637-25.73 80.156 32.016l-2.266 203.835c0-1.3-6.092-5.253-6.973-5.962-6.328-4.953-13.085-9.444-20.058-13.516-20.692-12.204-43.94-22.948-68.232-24.677-14.106-1-28.083 1.181-41.931 3.91-19.93 3.857-32.693 2.89-32.693 2.89zm130.264 63.913c.333-.086.548-.129.548-.129.333-.086 34.702-8.853 64-8.853 14.224 0 26.439 3.148 37.182 5.877 12 3.105 22.325 5.748 31.64 2.89 6.542-2.009 13.182-4.609 18.672-6.962l60.894 217.931s-158.543-27.19-212.936 13.557zm171.143 9.443 56.522 216.588s-26.053 0-86.657-7.39c-60.604-7.339-127.407 4.576-127.407 4.576s59.422-28.91 206.683-6.253l-58.756-212.054zm36.882 4.19-20.186-.117-11.206-4.996-1.128-3.782L467.674 135l-4.652-14.772s-10.153 5.662-24.893 10.196c-14.729 4.534-36.259-9.068-66.845-9.068-30.598 0-65.675 9.068-65.675 9.068-14.74-40.793-31.693-38.526-74.753-29.459-43.006 9.057-55.479-50.956-55.479-50.956l-13.633 58.885-16.373-14.138-4.985 21.143-11.42 3.985-1.054 3.363-10.313 3.696-.763 2.804-11.366 4.534-3.073 13.14H83.638l-63.45 243.49h228.76s-1.676 23.204 45.068 23.204c46.67 0 48.937-20.939 48.937-20.939h236.775z" style="fill:#8b723c"/><path d="M179.622 72.416c.29 1.268 8.39 31.188 39.235 32.993q1.708.075 3.406.086c7.423 0 15.277-1.31 22.948-2.61 7.434-1.257 14.482-2.428 21.196-2.428 20.563 0 31.565 12.215 35.636 40.202l-2.267 203.835-.386 8.176 4.157 3.91V137.135l.548-2.6 2.396-.677c.333-.086 34.873-8.896 64.837-8.896 14.6 0 26.977 3.191 38.064 6.006 8.262 2.095 15.438 3.943 21.992 3.943 2.89 0 5.404-.376 7.757-1.053 5.5-1.676 11.667-3.986 18.339-6.876l3.405-1.429.956 3.524 2.106 7.338.924.462-.3-.881-3.482-11.163a150.4 150.4 0 0 1-21.991 8.649 26.9 26.9 0 0 1-7.714 1.053c-6.51 0-13.687-1.805-21.992-3.954-11.001-2.804-23.464-5.995-38.064-5.995-29.845 0-64.547 8.853-64.923 8.939l-2.858.752-.966-2.772c-9.906-27.396-20.477-32.767-35.379-32.767-9.314 0-21.143 2.342-35.668 5.371a46.2 46.2 0 0 1-9.314 1.042c-22.454 0-35.636-18.038-42.77-33.358zM164.935 109.6l-1.224 5.254.172.16-.42 1.935-26.353 125.687 34.83-163.504zm-17.79-8.476 3.641 3.062 11.625 9.615 1.182.924-3.943-3.395-12.388-10.711zm-4.75 17.415-.837 3.824-48.593 209.702h.333l.752-4.061c.043-.043.086-.13 48.636-209.54zm-39.997 32.112H86.122L24.347 387.715h227.997l-.161 3.395c0 .215-.172 4.705 4.276 9.368 4.534 4.781 14.73 10.443 37.527 10.443 42.716 0 45.82-17.963 45.82-18.124l.377-2.815h235.313l-63.203-236.023-16.534-.086.247 1.01 56.242 218.232.999 4.028H340.859a19.34 19.34 0 0 1-4.071 11.743c-6.672 8.734-20.563 13.14-41.384 13.14-20.058 0-33.53-4.492-40.202-13.301a21.92 21.92 0 0 1-4.276-13.848H45.501l1.042-4.03L103.29 150.65Zm57.628 156.704a154.7 154.7 0 0 1-29.212 3.062c-2.858 0-4.405-.13-4.405-.13l-3.437-.246-.43 1.966c7.52 0 26.407-.623 50.193-5.533a86 86 0 0 1 16.953-1.558c27.203 0 70.843 11.206 104.373 42.727l3.406 3.18-3.782-5.071c-.462-.59-2.052-1.89-4.91-3.825l-1.17-.88a172 172 0 0 0-19.726-13.301c-25.601-15.062-46.798-22.787-66.856-24.259q-3.481-.215-6.876-.204c-11.635 0-23.26 1.966-34.121 4.072m164.417 47.84c11.507-4.114 41.094-12.462 93.587-12.967h-4.695c-38.655 0-68.404 4.362-88.892 12.967m-21.82 9.691-21.229-6.21a88 88 0 0 1 20.22 12.549 118 118 0 0 1 8.734-3.363l-2.686-2.009-1.848.333-2.267 1.719v-1.3l-5.5.967 5.5-2.643v-2.095l-2.514-1.89-17.79-7.22c-.087 0-1.354-.548-3.61-1.343zm18.254-1.386-7.671 1.386 2.224 1.343c5.285-1.547 12-3.309 20.1-4.91-9.067 1.214-14.524 2.181-14.653 2.181" style="fill:url(#b);stroke-width:10.7435"/></svg>