<svg xmlns="http://www.w3.org/2000/svg" width="600" height="429.723"><radialGradient id="a" cx="0" cy="0" r="1" fx="0" fy="0" gradientTransform="translate(299.906 241.378)scale(228.78488)" gradientUnits="userSpaceOnUse" spreadMethod="pad"><stop offset="0" style="stop-color:#bf99c3"/><stop offset=".663" style="stop-color:#7b5190"/><stop offset="1" style="stop-color:#612c75"/></radialGradient><path d="M525.924 131.85h-28.91c-.463-.215-16.535-8.057-16.535-8.057l-8.143-26.44-.172.086v-.043l-16.696 9.186c-.085.043-9.153 4.995-21.991 8.938-.333.086-.967.215-2.138.215-4.115 0-10.25-1.558-17.34-3.363-11.41-2.976-25.72-6.628-42.76-6.628-20.562 0-42.597 3.738-56.273 6.542-8.402-17.5-21.616-32.39-47.766-32.39-11.162 0-23.453 2.427-39.61 5.833a33 33 0 0 1-3.278.462c-5.2.376-9.69-1.053-13.558-3.61-14.181-9.82-20.058-35.464-20.187-35.797h-.043c-.034-.172-6.79-22.12-8.852-41.513-1.042-9.604-11.249-3.148-11.249-3.148-4.523 19.607-10.195 44.242-10.238 44.36h-.086l-7.757 33.702-16.287-14.02-8.939 37.817-10.614 3.782-1.139 3.395-10.743 3.814-.58 2.148a3364 3364 0 0 0-12.087 4.32s-2.267 9.486-2.482 10.367H71.508L0 406.518h237.57a35.8 35.8 0 0 0 4.91 6.585c10.249 11.045 27.578 16.62 51.46 16.62 35.293 0 51.322-11.205 58.542-20.939H600Z" style="fill:#fff"/><path d="M337.248 373.91s6.832 24.926-41.846 24.926c-48.722 0-40.793-27.192-40.793-27.192H49.645l60.142-233.627 5.662-2.02-59.175 231.661s47.003-9.99 70.38-13.43c23.421-3.48 129.094-19.939 174.42 20.81 0 0 30.544-15.813 95.09-15.813s114.408 11.29 144.994 7.885l-56.231-214.783 7.929 3.395 56.242 218.19zM120.402 130.927l6.295-2.267-52.546 222.422s65.31-14.643 118.608-13.977c53.287.634 81.919 16.244 81.919 16.244s-44.199-13.01-89.063-11.034c-44.854 1.923-91.234 10.82-121.777 17.953zm11.033-6.8 6.93-2.514-49.603 214.192s38.354-4.32 52.665-6.5c14.9-2.267 82.51-16.244 142.984 21.444 0 0-57.875-23.42-111.796-18.22-53.975 5.21-76.053 9.786-92.33 13.01zm17.254-17.5 11.625 9.646-41.76 198.883s23.13 1.01 54.77-5.5c31.016-6.372 83.262 7.22 118.511 40.33 0 0-53.588-40.202-128.964-29.125-29.201 4.243-65.675 7.767-65.675 7.767.043-.086 51.493-222.002 51.493-222.002m27.783-33.402s8.476 33.402 42.179 35.378c33.691 2.01 71.637-25.73 80.156 32.016l-2.31 203.835c0-1.3-6.09-5.253-6.929-5.962-6.339-4.953-13.128-9.444-20.1-13.516-20.693-12.204-43.942-22.948-68.2-24.677-14.139-1-28.116 1.181-41.921 3.91-19.972 3.857-32.735 2.89-32.735 2.89zm130.264 63.913.505-.129c.376-.086 34.701-8.853 63.998-8.853 14.225 0 26.44 3.148 37.183 5.877 12 3.105 22.368 5.748 31.64 2.89 6.543-2.009 13.182-4.609 18.715-6.962l60.85 217.931s-158.54-27.19-212.934 13.558zm171.143 9.443 56.479 216.588s-26.053 0-86.657-7.39c-60.604-7.339-127.407 4.576-127.407 4.576s59.465-28.91 206.683-6.253L468.22 142.046zm36.882 4.19-20.186-.117-11.249-4.996-1.085-3.782L467.63 135l-4.652-14.772s-10.152 5.662-24.892 10.196c-14.73 4.534-36.26-9.068-66.846-9.068-30.555 0-65.675 9.068-65.675 9.068-14.697-40.793-31.693-38.526-74.753-29.459-43.006 9.057-55.479-50.956-55.479-50.956l-13.59 58.885-16.416-14.138-4.985 21.143-11.42 3.985-1.054 3.363-10.281 3.696-.795 2.804-11.324 4.534-3.115 13.14H83.595L20.144 390.91h228.803s-1.719 23.204 45.026 23.204c46.712 0 48.98-20.939 48.98-20.939h236.731z" style="fill:#612c75"/><path d="M179.622 72.416c.29 1.31 8.348 31.188 39.192 32.993q1.698.075 3.449.086c7.51 0 15.31-1.31 22.905-2.61 7.434-1.257 14.482-2.428 21.197-2.428 20.563 0 31.564 12.247 35.636 40.202l-2.267 203.835-.344 8.133 4.072 3.91V137.135l.59-2.6 2.397-.677c.29-.086 34.916-8.939 64.793-8.939 14.558 0 26.988 3.148 38.021 6.006 7.972 2.052 15.525 3.986 22.11 3.986q4.276.01 7.725-1.053c5.458-1.676 11.463-3.9 18.382-6.876l3.406-1.429.956 3.567 2.106 7.338.88.419-.257-.881-3.481-11.163a155 155 0 0 1-22.078 8.649 24.7 24.7 0 0 1-7.639 1.096c-6.542 0-13.719-1.848-22.024-3.997-11.001-2.804-23.42-5.995-38.107-5.995-29.76 0-64.503 8.853-64.88 8.939l-2.814.752-1.01-2.772c-9.949-27.525-20.144-32.767-35.378-32.767-9.315 0-21.143 2.342-35.669 5.414a48.4 48.4 0 0 1-9.271.956c-22.454.043-35.636-17.952-42.77-33.229zm-14.73 37.183-1.224 5.21-4.018-3.48-12.43-10.668-.118.505 3.685 3.019 11.581 9.615 1.472 1.214-.376 1.934-24.807 118.178 33.198-155.737zm-22.496 8.939-.88 3.824-48.594 209.702h.334l.795-4.061c.042-.043.042-.172 48.592-209.54zm-40.04 32.112H86.078L24.304 387.672h224.603l3.395.043-.162 3.395c0 .172-.171 4.706 4.276 9.368 4.534 4.781 14.73 10.443 37.56 10.443 42.683 0 45.745-17.963 45.745-18.124l.419-2.858h235.357l-63.204-235.98-16.534-.086.204 1.053 56.242 218.189 1.042 4.028h-212.43a19.66 19.66 0 0 1-4.072 11.743c-6.672 8.734-20.563 13.182-41.384 13.182-20.015 0-33.53-4.49-40.202-13.343a21.7 21.7 0 0 1-4.233-13.805H45.458l1.042-4.072 56.747-220.198zm57.627 156.704a154.7 154.7 0 0 1-29.254 3.062c-2.858 0-4.362-.13-4.362-.13l-3.438-.246-.387 1.966c7.392 0 26.397-.623 50.15-5.49a81.7 81.7 0 0 1 16.997-1.6c27.16 0 70.799 11.162 104.33 42.726l3.233 3.019-3.653-4.953c-.58-.795-3.695-2.976-4.737-3.739a11 11 0 0 1-1.3-.924c-5.673-4.447-12.087-8.766-19.682-13.3-25.602-15.105-46.885-22.787-66.857-24.259a97 97 0 0 0-6.886-.204c-11.582 0-23.25 1.966-34.154 4.072m164.837 47.712c11.71-4.158 41.212-12.334 93.167-12.839h-4.695c-38.354 0-68.027 4.319-88.472 12.839m-22.282 9.862-21.111-6.253a88 88 0 0 1 20.144 12.549 121 121 0 0 1 8.777-3.363l-2.685-2.009-1.891.333-2.31 1.719v-1.3l-5.5.967 5.5-2.686v-2.138l-2.31-1.762-17.952-7.262a86 86 0 0 0-3.653-1.386zm18.339-1.429-7.714 1.386 2.224 1.343a217 217 0 0 1 19.843-4.824c-8.895 1.171-14.267 2.095-14.353 2.095" style="fill:url(#a);stroke-width:10.7435"/></svg>