<svg xmlns="http://www.w3.org/2000/svg" width="400.001" height="236.113" viewBox="0 0 400.001 236.113"><path d="M98.855 12.507c57.578 1.942 90.98 64.58 86.04 116.657-5.342 56.303-55.103 112.317-115.536 89.377C-18.843 185.061-1.12 9.136 98.855 12.507m43.98 44.793c.305-.31-1.523-2.522-1.866-2.924-26.698-31.304-67.454-20.547-90.673 8.564-31.202 39.12-18.116 118.086 31.876 135.701 22.62 7.971 49.425 4.746 66.293-13.35 7.418-7.957 8.9-19.112 11.88-29.182-9.724 11.413-18.16 23.668-32.94 28.967-20.56 7.372-44.387-4.604-56.865-21.08-20.71-27.35-21.159-69.429 0-96.654 15.425-19.847 32.311-20.26 55.47-15.1 5.69 1.27 11.334 3.148 16.825 5.058m156.042 115.805c41.97-15.665 50.29-89.594 8-109.948l-92.745-26.282c10.583 15.65 20.473 32.434 24.545 51.122 6.906 31.693 1.35 63.06-11.964 92.158-1.768 3.864-4.376 7.802-5.997 11.514-.226.518-.429.956-.326 1.546zM197.61 198.581c25.695-36.492 37.53-84.993 18.548-127.255-6.42-14.292-14.418-29.294-24.989-40.884l-21.436-6.08 10.552 13.212c29.366 42.92 36.517 103.856 6.402 148.417l-12.994 19.312zm185.3-61.099c5.463-8.63 5.418-22.357 1.75-31.62-7.204-18.196-25.98-17.2-41.905-22.724l-.627.217c11.312 22.646 8.4 50.488-3.338 72.333 14.895-3.914 34.922-3.68 44.12-18.206"/><path d="M157.427 23.947c-.22-5.47 4.791-11.056 10.218-11.675 5.973-.682 18.724 3.214 24.71 5.311 6.15 2.156 9.895 4.796 13.228 10.49 1.71-1.303 4.122-2.957 6.293-3.256 7.506-1.036 19.72 4.384 27.183 6.514 16.752 4.78 33.797 8.86 50.532 13.673 10.708 3.08 23.862 5.944 32.721 12.722 5.101 3.902 9.878 9.453 13.758 14.535 6.477-4.128 13.766.217 20.21 1.946 7.478 2.007 15.435 3.242 22.4 6.783 21.83 11.1 28.276 48.023 12.855 66.37-11.31 13.453-23.998 15.3-40.342 18.442-7.273 1.4-14.314 5.05-20.533-1.338-.546-.004-5.958 7.304-7.07 8.34-15.163 14.143-36.504 16.195-55.68 21.032-11.538 2.91-23.007 5.943-34.6 8.758-8.163 1.982-15.093 6.53-22.09-1.457-.69 1.78-1.985 4.264-3.324 5.645-3.35 3.452-10.435 5.346-15.02 6.658-4.31 1.233-12.436 3.788-16.51 4.337-6.865.927-12.8-2.9-14.555-9.55-9.637 9.033-20.923 16.96-33.348 21.684-23.664 8.998-49.269 8.451-71.797-3.263C6.914 200.78-8.222 135.315 4.036 83.804 15.27 36.604 50.773-2.9 102.623.167c14.27.844 34.905 8.52 46.434 16.937 2.784 2.033 5.43 4.924 8.37 6.843m-58.572-11.44C-1.12 9.137-18.843 185.062 69.36 218.541c60.433 22.94 110.194-33.074 115.535-89.377 4.94-52.077-28.46-114.715-86.04-116.657m74.838 192.796 23.917-6.722c25.695-36.492 37.53-84.993 18.548-127.255-6.42-14.292-14.418-29.294-24.989-40.884l-21.436-6.08 10.552 13.212c29.366 42.92 36.517 103.856 6.402 148.417zm46.697-12.088 78.487-20.11c41.97-15.665 50.29-89.594 8-109.948L214.13 36.875c10.583 15.65 20.473 32.434 24.545 51.122 6.906 31.693 1.35 63.06-11.964 92.158-1.768 3.864-4.376 7.802-5.997 11.514-.226.518-.429.956-.326 1.546m118.4-37.527c14.895-3.914 34.922-3.68 44.12-18.206 5.463-8.63 5.418-22.357 1.75-31.62-7.204-18.196-25.98-17.2-41.905-22.724l-.627.217c11.312 22.646 8.4 50.488-3.338 72.333M140.97 54.376C114.271 23.072 73.515 33.83 50.296 62.94 19.094 102.06 32.18 181.026 82.172 198.641c22.62 7.971 49.425 4.746 66.293-13.35 7.418-7.957 8.9-19.112 11.88-29.182-9.724 11.413-18.16 23.668-32.94 28.967-20.56 7.372-44.387-4.604-56.865-21.08-20.71-27.35-21.159-69.429 0-96.654 15.425-19.847 32.311-20.26 55.47-15.1 5.69 1.27 11.334 3.148 16.825 5.058.305-.31-1.523-2.522-1.866-2.924" style="fill:#fff"/></svg>