<svg xmlns="http://www.w3.org/2000/svg" width="400" height="236.113" viewBox="0 0 400 236.113"><defs><linearGradient id="a" x1="-9.342" x2="417.785" y1="118.137" y2="118.137" gradientUnits="userSpaceOnUse"><stop offset=".018" stop-color="#4d6773"/><stop offset=".111" stop-color="#6d8995"/><stop offset=".233" stop-color="#92afbb"/><stop offset=".346" stop-color="#adcbd7"/><stop offset=".445" stop-color="#bddce8"/><stop offset=".52" stop-color="#c3e2ee"/><stop offset=".59" stop-color="#b9d8e4"/><stop offset=".709" stop-color="#a0beca"/><stop offset=".859" stop-color="#7894a0"/><stop offset="1" stop-color="#4d6773"/></linearGradient></defs><path d="M98.855 12.508c57.578 1.942 90.98 64.58 86.04 116.657-5.342 56.303-55.103 112.317-115.536 89.377-88.202-33.48-70.48-209.405 29.496-206.034m43.98 44.793c.305-.31-1.523-2.522-1.866-2.924-26.698-31.304-67.454-20.547-90.673 8.564C19.094 102.06 32.18 181.027 82.172 198.642c22.62 7.971 49.425 4.746 66.293-13.35 7.418-7.957 8.9-19.112 11.88-29.182-9.724 11.413-18.16 23.668-32.94 28.967-20.56 7.372-44.387-4.604-56.865-21.081-20.71-27.349-21.159-69.428 0-96.653 15.425-19.847 32.311-20.26 55.469-15.1 5.69 1.269 11.335 3.148 16.826 5.058m156.042 115.805c41.969-15.665 50.289-89.594 7.999-109.948l-92.744-26.282c10.583 15.65 20.473 32.434 24.545 51.122 6.906 31.693 1.35 63.06-11.964 92.158-1.768 3.864-4.376 7.802-5.997 11.514-.226.518-.429.956-.326 1.546zM197.61 198.582c25.695-36.492 37.53-84.993 18.548-127.255-6.42-14.292-14.418-29.294-24.989-40.884l-21.436-6.081 10.552 13.213c29.366 42.92 36.517 103.856 6.402 148.417l-12.994 19.312zm185.299-61.099c5.464-8.63 5.419-22.357 1.751-31.62-7.204-18.196-25.98-17.201-41.905-22.724l-.627.217c11.312 22.646 8.4 50.488-3.338 72.333 14.895-3.914 34.922-3.68 44.119-18.206" style="fill:url(#a)"/><path d="M157.427 23.948c-.22-5.47 4.791-11.056 10.218-11.675 5.973-.682 18.724 3.214 24.709 5.311 6.151 2.156 9.896 4.796 13.229 10.49 1.71-1.303 4.122-2.957 6.293-3.256 7.506-1.036 19.719 4.384 27.183 6.514 16.752 4.78 33.797 8.86 50.532 13.673 10.708 3.079 23.862 5.944 32.721 12.722 5.101 3.902 9.878 9.453 13.758 14.535 6.477-4.128 13.766.217 20.209 1.946 7.479 2.007 15.436 3.242 22.4 6.783 21.83 11.1 28.277 48.023 12.856 66.369-11.31 13.454-23.998 15.3-40.342 18.443-7.273 1.4-14.314 5.049-20.533-1.338-.546-.004-5.958 7.304-7.07 8.34-15.163 14.143-36.504 16.195-55.68 21.032-11.538 2.91-23.007 5.943-34.601 8.758-8.162 1.982-15.092 6.53-22.09-1.457-.689 1.78-1.984 4.264-3.323 5.645-3.35 3.452-10.435 5.346-15.021 6.658-4.31 1.233-12.435 3.788-16.51 4.337-6.864.927-12.799-2.9-14.554-9.551-9.637 9.034-20.923 16.96-33.348 21.685-23.664 8.998-49.269 8.451-71.797-3.263C6.914 200.78-8.222 135.316 4.036 83.805 15.27 36.604 50.773-2.9 102.623.168c14.27.844 34.905 8.52 46.434 16.937 2.784 2.033 5.43 4.924 8.37 6.843m-58.572-11.44C-1.121 9.138-18.843 185.063 69.359 218.542c60.433 22.94 110.194-33.074 115.535-89.377 4.94-52.077-28.46-114.715-86.04-116.657m74.838 192.796 23.917-6.722c25.695-36.492 37.53-84.993 18.548-127.255-6.42-14.292-14.418-29.294-24.989-40.884l-21.436-6.081 10.552 13.213c29.366 42.92 36.517 103.856 6.402 148.417zm46.697-12.088 78.487-20.11c41.969-15.665 50.289-89.594 7.999-109.948l-92.744-26.282c10.583 15.65 20.473 32.434 24.545 51.122 6.906 31.693 1.35 63.06-11.964 92.158-1.768 3.864-4.376 7.802-5.997 11.514-.226.518-.429.956-.326 1.546m118.4-37.527c14.895-3.914 34.922-3.68 44.119-18.206 5.464-8.63 5.419-22.357 1.751-31.62-7.204-18.196-25.98-17.201-41.905-22.724l-.627.217c11.312 22.646 8.4 50.488-3.338 72.333M140.969 54.377C114.271 23.073 73.515 33.83 50.296 62.94 19.094 102.06 32.18 181.027 82.172 198.642c22.62 7.971 49.425 4.746 66.293-13.35 7.418-7.957 8.9-19.112 11.88-29.182-9.724 11.413-18.16 23.668-32.94 28.967-20.56 7.372-44.387-4.604-56.865-21.081-20.71-27.349-21.159-69.428 0-96.653 15.425-19.847 32.311-20.26 55.469-15.1 5.69 1.269 11.335 3.148 16.826 5.058.305-.31-1.523-2.522-1.866-2.924"/></svg>