<svg xmlns="http://www.w3.org/2000/svg" xmlns:xlink="http://www.w3.org/1999/xlink" width="600" height="633.827"><linearGradient id="a" x1="0" x2="1" y1="0" y2="0" gradientTransform="matrix(286.38379 0 0 -286.38379 6.809 143.834)" gradientUnits="userSpaceOnUse" spreadMethod="pad"><stop offset="0" style="stop-color:#bf331c"/><stop offset=".517" style="stop-color:#f6b91d"/><stop offset="1" style="stop-color:#bf331c"/></linearGradient><linearGradient xlink:href="#a" id="b" x1="169.551" x2="545.127" y1="609.813" y2="336.765" gradientTransform="translate(-352.51 -.569)scale(.94953)" gradientUnits="userSpaceOnUse"/><path d="M-75.662 170.432c-74.04 2.604-163.989 57.155-208.096 188.898-34.174 102.072 2.81 202.2-7.745 273.821l-2.878 19.614-2.878 19.584 18.427-7.24 18.456-7.24h.03l44.331-17.418c23.823 44.01 55.878 87.354 90.8 114.003l24.657 18.842L-75.9 792.14l-6.439-30.356-6.439-30.355v-.03c-8.786-41.311-3.466-100.387 9.377-135.367h.03V596l2.017-5.549 1.989-5.49-3.264-4.866-3.294-4.866c-29.294-43.224-29.256-76.496-17.596-103.47 7.154-16.549 19.82-30.79 34.865-41.245l2.79 317.382c.156 17.686 12.685 29.961 24.717 35.904 11.325 5.593 23.763 7.672 35.845 7.804 12.07.132 24.57-1.634 36.023-7.092 12.308-5.866 24.84-18.334 24.866-36.112l.475-320.497c16.819 10.958 31.2 28.243 38.9 48.278 11.756 30.586 9.863 64.91-18.307 96.674l-4.451 5.015-4.422 5.015 2.167 6.32 2.166 6.35v.03c13.632 39.65 19.405 101.087 7.922 140.293l-10 34.124-10 34.153 28.101-21.839 28.07-21.84c39.016-30.337 72.507-77.244 94.271-121.183l48.783 19.317 19.08 7.537 19.05 7.537-3.532-20.208-3.531-20.207c-13.21-75.608 19.419-170.931-15.845-280.498-16.265-50.536-47.9-95.972-86.467-129.047-38.56-33.068-84.799-54.539-131.45-52.135l-22.078 1.157-22.076 1.157 13.62 17.418 13.62 17.359c.005.007-.006.023 0 .03 18.78 24.057 22.5 43.59 19.287 58.307-1.46 6.685-4.476 12.82-9.169 18.426-7.487-28.625-19.388-56.324-36.468-82.52v-.03L6.769 186.753l-10.504-16.171-9.199 16.943-9.198 16.943c-12.838 23.662-27.119 49.03-35.786 78.159-2.905-4.617-5.268-9.505-6.617-14.6-4.364-16.485-2.285-34.997 19.288-59.197l15.815-17.744 15.816-17.774-23.738-1.365-23.739-1.365a156 156 0 0 0-14.57-.149" style="fill:#fff;stroke-width:24.2009" transform="translate(298.609 -170.33)"/><path d="M-75.247 181.916c-68.77 2.418-154.691 52.838-197.621 181.064-32.616 97.42 4.014 195.266-7.27 271.833l-2.878 19.614 18.456-7.24 53.827-21.157c23.616 45.923 57.431 92.53 92.49 119.285l24.658 18.842-6.439-30.355c-9.41-44.245-4.01-103.964 9.852-141.718l2.018-5.549-3.294-4.866c-30.925-45.63-31.736-84.103-18.605-114.478 10.932-25.287 32.531-45.044 56.705-56.438l2.967 337.054c.107 12.1 9.012 21.106 18.308 25.697 9.296 4.592 20.075 6.5 30.89 6.617 10.815.118 21.595-1.535 30.949-5.994s18.32-13.636 18.338-25.756l.504-339.25c26.731 10.194 49.914 33.919 61.067 62.936 13.02 33.874 10.428 73.646-20.415 108.425l-4.451 5.015 2.166 6.35c14.435 41.983 20.711 104.208 8.1 147.266l-10 34.124 28.071-21.84c39.7-30.87 74.948-81.582 95.696-126.673l58.633 23.205 19.08 7.536-3.531-20.207c-13.99-80.07 18.516-173.297-15.49-278.955-15.544-48.296-46.032-92.156-82.995-123.854-36.962-31.699-80.682-51.576-123.38-49.376l-22.076 1.157 13.62 17.389c20.247 25.928 25.532 49.179 21.453 67.861-3.208 14.694-12.395 27.4-27.299 37.062-6.515-34.017-19.165-66.684-39.168-97.357l-10.534-16.172-9.198 16.944c-16.073 29.625-33.58 60.45-39.91 96.822-11.027-9.186-19.935-21.671-23.68-35.815-5.272-19.915-1.64-43.486 21.81-69.79l15.816-17.745-23.739-1.365a145 145 0 0 0-13.5-.148" style="stroke-width:24.2009" transform="translate(298.609 -170.33)"/><path d="M-42.755 326.567c2.28-41.76 21.92-76.284 40.82-111.118 22.216 34.067 34.945 70.507 40.062 108.85 51.068-22.309 67.082-74.081 23.617-129.74 77.335-3.985 165.207 73.198 194.84 165.268 32.714 101.642.396 193.15 15.118 277.417l-68.787-27.213c-19.068 45.543-56.554 100.997-96.81 132.3 13.684-46.725 6.93-110.037-8.261-154.221 67.185-75.758 13.158-179.929-60.694-194.306l-.535 354.558c-.041 27.62-75.258 26.638-75.498-.664L-42 393.842c-65.766 20.714-124.2 98.007-58.96 194.268-14.829 40.387-20.314 101.036-10.308 148.082-34.948-26.67-70.997-77.133-94.007-124.649l-63.496 24.945c11.961-81.165-24.2-177.259 6.803-269.858 44.552-133.07 134.688-176.875 199.559-173.103-50.886 57.083-20.533 112.928 19.653 133.04" style="fill:url(#b)" transform="translate(298.609 -170.33)"/></svg>