<svg xmlns="http://www.w3.org/2000/svg" xmlns:xlink="http://www.w3.org/1999/xlink" width="600" height="626.164"><linearGradient xlink:href="#a" id="b" x1="169.551" x2="545.127" y1="609.813" y2="336.765" gradientTransform="matrix(.99375 0 0 .99375 -354.942 -38.2)" gradientUnits="userSpaceOnUse"/><linearGradient id="a" x1="0" x2="1" y1="0" y2="0" gradientTransform="scale(40.57056 -40.57056)rotate(-55 -3.88 -6.686)" gradientUnits="userSpaceOnUse" spreadMethod="pad"><stop offset="0" style="stop-color:#612c75"/><stop offset=".3" style="stop-color:#7b5190"/><stop offset=".5" style="stop-color:#bf99c3"/><stop offset=".7" style="stop-color:#7b5190"/><stop offset="1" style="stop-color:#612c75"/></linearGradient><path d="M-64.767 152.782c-71.973 2.531-161.895 55.298-206.824 189.495-34.135 101.956 4.2 204.36-7.609 284.492l-3.012 20.527 19.316-7.577 56.333-22.142c24.716 48.061 60.106 96.839 96.797 124.84l25.807 19.72-6.739-31.77c-9.849-46.304-4.197-108.805 10.31-148.317l2.112-5.807-3.447-5.093c-32.365-47.754-33.214-88.02-19.471-119.809 11.44-26.464 34.045-47.141 59.345-59.066l3.105 352.75c.112 12.664 9.432 22.088 19.161 26.894s21.01 6.801 32.328 6.925 22.6-1.607 32.39-6.273 19.173-14.271 19.192-26.956l.528-355.048c27.976 10.67 52.238 35.498 63.91 65.867 13.626 35.451 10.914 77.075-21.365 113.474l-4.659 5.248 2.267 6.646c15.107 43.938 21.676 109.06 8.478 154.124l-10.465 35.713 29.378-22.856c41.549-32.308 78.437-85.382 100.15-132.572l61.365 24.284 19.968 7.888-3.695-21.148c-14.641-83.798 19.378-181.367-16.211-291.945-16.268-50.545-48.176-96.448-86.86-129.622s-84.439-53.977-129.125-51.675l-23.105 1.211 14.254 18.198c21.19 27.136 26.722 51.47 22.453 71.022-3.358 15.378-12.973 28.676-28.57 38.787-6.819-35.601-20.058-69.788-40.993-101.89l-11.024-16.925-9.627 17.733c-16.821 31.005-35.144 63.264-41.768 101.33-11.54-9.613-20.863-22.68-24.782-37.482-5.518-20.843-1.716-45.51 22.825-73.04l16.552-18.571-24.843-1.429c-4.62-.268-9.332-.324-14.13-.155" style="fill:#fff;stroke-width:24.2009" transform="translate(286.118 -152.686)"/><path d="M-30.762 304.169c2.386-43.704 22.94-79.836 42.72-116.293 23.25 35.654 36.573 73.791 41.928 113.92 53.446-23.348 70.205-77.531 24.717-135.783 80.935-4.17 172.9 76.607 203.913 172.964 34.237 106.376.414 202.145 15.822 290.336l-71.99-28.48c-19.957 47.663-59.188 105.7-101.319 138.46 14.322-48.9 7.253-115.16-8.645-161.402 70.313-79.286 13.77-188.307-63.52-203.354l-.56 371.069c-.044 28.907-78.763 27.879-79.015-.695l-3.26-370.334c-68.83 21.679-129.984 102.57-61.706 203.314-15.52 42.268-21.26 105.741-10.788 154.977-36.575-27.912-74.303-80.724-98.385-130.452l-66.453 26.106c12.519-84.945-25.326-185.513 7.12-282.425 46.627-139.267 140.96-185.11 208.852-181.163-53.255 59.74-21.489 118.187 20.569 139.235" style="fill:url(#b)" transform="translate(286.118 -152.686)"/></svg>