<?xml version="1.0" encoding="UTF-8" standalone="no"?>
<svg
   version="1.1"
   width="1024.0049"
   height="1008.7"
   id="svg6"
   xmlns="http://www.w3.org/2000/svg"
   xmlns:svg="http://www.w3.org/2000/svg">
  <defs
     id="defs10" />
  <path
     d="m 289.43254,0 -5.73,64.955 c -9.45,109.845 -72.58,162.045 -139.46,208.235 -33.44,23.1 -66.984001,43.49 -94.563001,68.78 -27.579,25.29 -49.34530979,58.11 -49.67699979,99.34 -0.31575,40.55 28.85299979,73.25 66.87099979,108.9 38.019001,35.64 87.769001,73.65 141.369001,115.58 107.2,83.86 226.69,183.75 282.75,299.94 l 21.01,42.97 21.01,-42.97 c 56.06,-116.19 175.55,-216.08 282.75,-299.94 53.6,-41.93 103.35,-79.94 141.37,-115.58 38.02,-35.65 67.16996,-68.35 66.86996,-108.9 -0.3,-41.23 -22.1,-74.05 -49.66996,-99.34 -27.58,-25.29 -61.13,-45.68 -94.57,-68.78 -66.88,-46.19 -130.01,-98.39 -139.46,-208.235 l -5.73,-64.955 -36.3,54.447 c -34.59,51.293 -42.78,100.853 -33.43,145.193 9.34,44.34 34.87,82.61 63.04,114.63 28.17,32.02 59.6,59.04 83.1,81.19 11.76,11.07 21.7,20.94 27.7,28.66 6.01,7.71 6.7,12.24 6.69,11.46 0,-2.23 -1.33,4.45 -8.6,13.37 -7.27,8.92 -18.78,20.13 -33.43,32.48 -29.29,24.71 -70.61,53.5 -112.71,82.15 -42.11,28.65 -84.76,57.26 -120.36,82.15 -26.72,18.67 -42.96,32.58 -58.27,47.76 -15.31,-15.18 -31.55,-29.09 -58.27,-47.76 -35.6,-24.89 -78.25,-53.5 -120.36,-82.15 -42.1,-28.65 -83.42,-57.44 -112.71,-82.15 -14.65,-12.35 -26.16,-23.56 -33.43,-32.48 -7.27,-8.92 -8.57,-15.6 -8.6,-13.37 0,0.78 0.68,-3.75 6.69,-11.46 6,-7.72 15.94,-17.59 27.7,-28.66 23.5,-22.15 54.93,-49.17 83.1,-81.19 28.17,-32.02 53.7,-70.29 63.04,-114.63 9.35,-44.34 1.16,-93.9 -33.43,-145.193 z m 222.57,4.7761 -21.01,53.4919 -141.38,356.302 -5.73,14.32 10.51,10.51 141.37,139.46 16.24,16.24 16.24,-16.24 141.37,-139.46 10.51,-10.51 -5.73,-14.32 -141.38,-356.302 z m 0,123.2239 114.63,289.43 -114.63,112.72 -114.63,-112.72 z"
     style="fill:#ffffff;stroke-width:30.567"
     id="path2" />
  <path
     d="M 306.63254,66.865 C 286.28254,303.31 24.004539,305.99 22.933539,441.31 c -0.877,110.82 370.499001,269.08 489.069001,514.86 118.57,-245.78 489.89996,-404.04 489.09996,-514.86 -1.1,-135.32 -263.37996,-138 -283.72996,-374.445 -127.24,188.675 150.19,306.825 150.93,368.715 0.73,61.89 -320.17,235.23 -356.3,287.52 -36.13,-52.29 -357.03,-225.63 -356.3,-287.52 0.74,-61.89 278.17,-180.04 150.93,-368.715 z m 205.37,0 -141.37,356.295 141.37,139.46 141.37,-139.46 z"
     id="path4"
     style="stroke-width:30.567" />
</svg>
