<?xml version="1.0" encoding="UTF-8" standalone="no"?>
<svg
   version="1.1"
   width="978.17181"
   height="889.30499"
   id="svg6"
   xmlns="http://www.w3.org/2000/svg"
   xmlns:svg="http://www.w3.org/2000/svg">
  <defs
     id="defs10" />
  <path
     d="M 283.70055,0 C 263.35055,236.445 1.0725506,239.125 0.00155063,374.445 c -0.877,110.82 370.49899937,269.08 489.06899937,514.86 118.57,-245.78 489.9,-404.04 489.1,-514.86 -1.1,-135.32 -263.38,-138 -283.73,-374.445 -127.24,188.675 150.19,306.825 150.93,368.715 0.73,61.89 -320.17,235.23 -356.3,287.52 -36.13,-52.29 -357.03,-225.63 -356.3,-287.52 0.74,-61.89 278.17,-180.04 150.93,-368.715 z m 205.37,0 -141.37,356.295 141.37,139.46 141.37,-139.46 z"
     id="path4"
     style="stroke-width:30.567" />
</svg>
