<?xml version="1.0" encoding="UTF-8"?><svg id="Layer_2" xmlns="http://www.w3.org/2000/svg" width="300" height="274.79828" viewBox="0 0 300 274.79828"><defs><style>.cls-1{fill:#fff;}</style></defs><g id="Layer_1_copy_2"><path class="cls-1" d="M300,274.79828H0L145.50737,0l154.49263,274.79828ZM150.19407,47.93402s-2.06662,3.67014-3.20083,5.7575l-21.31259,39.31786,93.31349,83.38865L150.19407,47.93402ZM143.9928,122.56756l-22.79344-19.6981-1.30292-1.08139-23.02991,79.06038,3.85243-4.35212c12.55411-16.25145,25.86968-32.23872,38.46967-48.40493,1.46485-1.87945,4.80418-5.52383,4.80418-5.52383ZM148.54248,134.58129l-.88364-1.51881-47.45824,61.32933,80.99645,2.40326-32.65457-62.21377ZM160.899,137.02757l34.09808,63.71125,24.60231-9.34693c-13.17343-13.05095-27.57993-25.03311-41.40774-37.48521-4.30159-3.87363-16.73448-16.3119-17.29265-16.8791ZM34.2,257.39828h29.1l30.89393-107.39993-59.99393,107.39993ZM183,256.79828c15.99276-14.86643,31.09001-30.98389,47.98039-44.32157,1.19132-.94074,6.38725-5.26471,6.38725-5.26471,0,0-4.72712-7.39542-6.37817-9.81402l-144.39226,60.0003,94.87422-.58705,1.52856-.01295ZM181.19688,206.40142l-90.82088-1.72714-12.96989,45.52395,103.79078-43.79681ZM198.60301,256.79513l64.78256-.29343-21.95407-39.24953-42.8285,39.54295Z"/><path d="M86.59722,257.39828l144.39226-60.0003c1.84367,2.78432,6.37817,9.81402,6.37817,9.81402,0,0-5.5271,4.57324-6.68037,5.49659-16.80027,13.45101-31.69451,29.22326-47.68727,44.08968l-96.40278.6ZM146.99324,53.69152l-21.31259,39.31786,93.31349,83.38865L150.19407,47.93402s-2.08678,3.73303-3.20083,5.7575ZM147.65885,133.06247l-47.45824,61.32933,80.99645,2.40326-32.65457-62.21377-.88364-1.51881ZM90.376,204.67428l-12.96989,45.52395,103.79078-43.79681-90.82088-1.72714ZM63.3,257.39828l30.89393-107.39993-59.99393,107.39993h29.1ZM263.38557,256.5017l-21.95407-39.24953-42.8285,39.54295,64.78256-.29343ZM121.19936,102.86946l-1.30292-1.08139-23.02991,79.06038,3.85243-4.35212c12.55411-16.25145,25.86968-32.23872,38.46967-48.40493,1.46485-1.87945,4.80418-5.52383,4.80418-5.52383l-22.79344-19.6981ZM160.899,137.02757l34.09808,63.71125,24.60231-9.34693c-13.17343-13.05095-27.57993-25.03311-41.40774-37.48521-4.30159-3.87363-16.73448-16.3119-17.29265-16.8791Z"/></g></svg>