<?xml version="1.0" encoding="UTF-8"?><svg id="Layer_2" xmlns="http://www.w3.org/2000/svg" width="300" height="274.79828" viewBox="0 0 300 274.79828"><defs><style>.cls-1{fill:#010101;}</style></defs><g id="Layer_2-2"><path class="cls-1" d="M300,274.79828H0L145.50737,0l154.49263,274.79828ZM150.19408,47.93402s-2.06662,3.67014-3.20084,5.7575l-21.31259,39.31786,93.31349,83.38866L150.19408,47.93402ZM143.9928,122.56756l-22.79344-19.6981-1.30292-1.08139-23.02991,79.06038,3.85243-4.35213c12.55411-16.25145,25.86968-32.23872,38.46967-48.40492,1.46484-1.87945,4.80418-5.52383,4.80418-5.52383l-.00002-.00002ZM148.54248,134.58128l-.88364-1.51881-47.45824,61.32933,80.99644,2.40326-32.65457-62.21378ZM160.899,137.02757l34.09808,63.71126,24.60231-9.34692c-13.17343-13.05095-27.57993-25.03311-41.40775-37.48521-4.30159-3.87363-16.73448-16.3119-17.29265-16.8791v-.00002ZM34.2,257.39828h29.1l30.89393-107.39993-59.99393,107.39993ZM183,256.79828c15.99277-14.86642,31.09001-30.98389,47.98039-44.32156,1.19131-.94073,6.38725-5.26471,6.38725-5.26471,0,0-4.72713-7.39542-6.37817-9.81403l-144.39226,60.00031,94.87422-.58704,1.52856-.01294v-.00003ZM181.19688,206.40141l-90.82088-1.72714-12.96989,45.52394,103.79078-43.79681-.00002.00002ZM198.60301,256.79514l64.78255-.29343-21.95407-39.24953-42.82849,39.54295h.00002Z"/></g></svg>