<?xml version="1.0" encoding="UTF-8" standalone="no"?>
<svg
   version="1.1"
   width="600"
   height="320"
   id="svg1"
   xmlns="http://www.w3.org/2000/svg"
   xmlns:svg="http://www.w3.org/2000/svg">
  <defs
     id="defs1" />
  <path
     d="M 39.867188,0 C 14.507187,47.102 0,101.738 0,160 0,218.262 14.507187,272.898 39.867188,320 H 560.13281 C 585.49081,272.898 600,218.262 600,160 600,101.738 585.49081,47.102 560.13281,0 Z m 11.923828,19 h 12.257812 471.900392 12.25781 l 5.05274,11.166016 c 18.406,40.682 27.73828,84.363984 27.73828,129.833984 0,46.278 -9.66452,90.67884 -28.72852,131.96484 L 547.17188,303 H 535.01953 64.978516 52.824219 L 47.728516,291.96484 C 28.664516,250.67684 18.998047,206.278 18.998047,160 c 0,-45.468 9.334234,-89.150031 27.740234,-129.832031 z m 12.257812,19 c -16.688,36.884 -26.050781,78.272 -26.050781,122 0,27.19233 3.630315,53.47268 10.384765,78.33203 9.117666,-9.14026 15.795779,-20.9247 21.566407,-36.93164 6.532,-18.116 10.969172,-35.584 19.201172,-52.25 2.082,-4.214 7.129609,-7.53244 12.599609,-4.89844 3.856,1.856 7.69397,3.98002 11.91797,5.91602 4.444,2.038 5.36403,5.88086 3.33203,10.63086 -5.86,13.692 -13.13803,26.78514 -17.832031,40.86914 -4.668,14 -5.333985,30.33206 11.166011,34.66406 v 13 c -27.048352,-3.26991 -44.563922,-0.2593 -56.335933,7.2832 3.21776,9.37177 6.883979,18.51213 10.980469,27.38477 H 535.01953 c 17.264,-37.388 26.97852,-79.476 26.97852,-124 0,-43.728 -9.35883,-85.116 -26.04883,-122 z M 237.125,54.375 c 15.874,7.792 46.37497,7.626 54.04297,0 3.296,3.386 7.748,6.336969 13.5,8.792969 -3.96,8.574 -5.702,23.981984 2,39.833981 17.166,35.332 27.49762,56.1648 38.51562,83.9668 3.358,8.476 4.73038,21.78528 7.48438,28.36328 5.21,12.446 20.08203,15.54394 34.33203,28.33594 -2.64,4.5 -4.75603,9.166 -6.33203,14 -40.672,-13.024 -74.11197,-13.992 -96.16797,4 -4.822,-4.078 -9.37202,-8.36194 -13.66602,-12.83594 5.112,-5.216 11.436,-9.65 18,-15 9.394,-7.656 11.56402,-19.08206 3.16602,-35.66406 -9.608,-18.972 -17.55202,-39.54394 -28.16602,-59.83594 -2.882,-5.51 -7.85798,-3.81008 -12.83398,1.16992 -6.012,-3.098 -11.97603,-7.702 -15.83203,-15 -1.762,-3.334 -2.20599,-7.522 0.66601,-10 5.5,-4.75 10.33175,-11.11408 15.34375,-19.080075 2.572,-4.088 2.49041,-7.754531 -1.43359,-11.144531 C 243.87214,79.201344 235.928,74.325 226,70.125 c 3.722,-4.52 7.437,-9.424 11.125,-15.75 z M 415.25,56.167969 V 165.75195 l -27.41602,27.41602 V 93.832031 H 360 v -11.5 c 20.678,-7.57 39.604,-16.032062 55.25,-26.164062 z m 116.58594,0 -46.33399,63.833981 c 23.5,5.332 41.83199,15.16602 50.33399,36.16602 -0.038,12.294 -1.22999,24.20998 -3.33399,35.83398 -17.302,7.96 -32.498,19.086 -46.5,32 l -51.83398,-32.83398 5,-10.83594 c 4.446,1.484 9.9637,2.69191 15.3457,4.75391 11.352,12.072 27.5363,19.36609 39.1543,13.24609 9.256,-4.874 15.87797,-10.09206 19.66797,-16.16406 0.962,-6.222 0.95601,-12.44402 0.16601,-18.66602 -8.972,-21.218 -36.158,-23.85598 -63.5,-26.33398 l -6.16797,-11.16602 51,-43.833981 c -21.974,-1.682 -42.52404,-0.929938 -61.99804,1.664062 5.082,-7.19 8.73603,-15.208 9.33203,-25 z M 97,60.501953 l 66.66797,2.5 c 6.832,19.332 25.332,46.831997 47,72.499997 2.142,-1.542 3.708,-3.55398 5.5,-5.33398 3.04,-3.022 6.708,-2.52802 9.5,-0.16602 3.966,3.354 7.81203,7.75655 11.33203,13.31055 1.84,2.904 1.798,5.91345 0,8.18945 -6.582,8.322 -10.536,19.29608 -4,40.33008 6.484,14.944 11.45598,30.19592 15.33398,45.66992 -18.89,9.208 -32.81398,21.09202 -40.83398,36.16602 -6.8,-1.702 -12.98,-4.56802 -18.5,-8.66602 3.834,-6.33 3.96398,-16.59192 0.83398,-29.16992 -11.306,-45.422 -29.382,-83.43806 -48.5,-110.66406 -3.006,-4.28 -7.24601,-5.314 -9.66601,-0.5 -1.29,2.564 -3.864,7.69798 -5,10.33398 -1.55,3.588 -4.584,5.58202 -9.5,3.66602 -3.666,-1.426 -10.728,-4.98602 -14,-7.16602 -4.878001,-3.252 -5.321986,-7.93992 -3.333986,-12.16992 3.487996,-7.428 6.867996,-15.03806 9.999996,-23.164061 5.75,-14.916 -6.08401,-16.835938 -22.166011,-18.835938 C 88.999969,71.000031 92.5,65.251953 97,60.501953 Z"
     id="path1" />
</svg>
