<svg xmlns="http://www.w3.org/2000/svg" width="101.76" height="120" viewBox="0 0 101.76 120"><defs><linearGradient id="a" x1="11.556" x2="99.268" y1="88.023" y2="8.266" gradientUnits="userSpaceOnUse"><stop offset=".112" stop-color="#b7281b"/><stop offset=".151" stop-color="#c84813"/><stop offset=".195" stop-color="#d8640c"/><stop offset=".243" stop-color="#e47b06"/><stop offset=".295" stop-color="#ed8a02"/><stop offset=".354" stop-color="#f29400"/><stop offset=".436" stop-color="#f49700"/><stop offset=".502" stop-color="#f19300"/><stop offset=".568" stop-color="#eb8703"/><stop offset=".633" stop-color="#e07308"/><stop offset=".698" stop-color="#d1570f"/><stop offset=".762" stop-color="#bd3418"/><stop offset=".782" stop-color="#b7281b"/></linearGradient></defs><path d="M47.543 0c.296.494.384 1.072.464 1.635.128.899.22 2.072.26 2.98.077 1.779.027 3.593-.243 5.345.695-.338 1.369-.749 2.133-.924 1.294-.297 3.653-.32 4.989-.142 3.22.43 5.78 2.17 8.766-.258.925-.752 1.453-1.74 2.22-2.58.156-.17.61-.732.845-.604 1.348 1.987 2.846 4.252 3.32 6.643.613 3.083.248 6.3-.55 9.307 2.62 1.391 5.169 2.978 7.175 5.194.023.134-1.506 1.807-1.72 2.094-1.88 2.523-2.84 5.605-4.927 8.031-2.245 2.61-5.095 3.68-8.348 4.518-.315 1.567-.402 3.168-.747 4.744-.734 3.35-2.163 6.263-3.902 9.18l2.68 2.675c1.107-2.94 2.072-5.922 3.517-8.719 6.18-11.958 16.239-17.94 29.834-17.204 4.629.251 8.57 1.825 5.549 7.122-.448.785-1.788 2.166-1.96 2.84-.177.698.019 1.653-.176 2.403 2.15-.14 4.403.624 5.038 2.88v1.8c-.298.879-.585 1.657-1.102 2.437-.312.47-1.5 1.662-1.603 1.997-.158.51.004 1.2-.056 1.744-.056.509-.17 1.14-.273 1.647-.13.643-.96 2.822-.926 3.152.04.42 1.478.94 1.91 1.214 2.92 1.851 2.086 4.246.075 6.413-.323.348-.754.566-1.085.955-1.01 1.185-1.51 3.91-2.197 5.482-2.71 6.198-7.922 10.51-14.323 12.55-2.178.695-4.45.999-6.66 1.557-1.03 4.015-2.876 6.982-6.09 9.569-.646.52-3.182 1.969-3.388 2.37-.26.505-.478 1.904-.592 2.528-.416 2.28-.683 4.63-.99 6.92L70.934 120H30.03c-.027-2.77.702-5.719 1.74-8.278 1.85-4.555 5.374-7.913 10.275-8.922a21.1 21.1 0 0 1 10.414.52l.72-4.8-7.113 1.778c-.65-.654-.954-1.534-1.58-2.26-.502-.58-1.131-1.034-1.706-1.534-4.056-.171-7.35.146-11.076-1.759-4.004-2.046-4.995-4.97-8.03-7.807-1.445-1.35-3.075-2.527-4.504-3.902a.3.3 0 0 1-.057-.174c0-.307 1.383-1.669 1.678-2.045.188-.24.886-1.08.83-1.293-.038-.148-1.804-1.907-2.088-2.242-.53-.624-3.067-3.8-3.054-4.385.002-.11.052-.162.107-.243.264-.392 4.23-2.054 5.05-2.511 2.137-1.191 4.14-2.746 5.563-4.755.075-.106.407-.503.31-.587-2.95.038-5.826-.696-8.576-1.679-1.543-.551-3.946-1.915-5.502-1.787-1.638.135-3.305 1.056-4.934 1.183-4.386.344-6.844-2.794-8.008-6.624L.043 53.16c.099-1.595-.134-3.345 0-4.92.166-1.963 1.304-4.55 2.395-6.183 1.798-2.69 4.429-4.965 7.544-5.954-.457-8.635 2.72-16.953 10.49-21.244 1.888-1.04 3.84-1.665 5.839-2.44.232-.733.525-1.43.898-2.101 2.554-4.6 6.248-4.23 10.71-5.606C41.324 3.662 44.226 1.93 47.183 0zm23.75 86.82c.102-.963-.075-2.08 0-3.06 5.65.163 11.03-1.11 15.58-4.513 4.046-3.025 6.738-7.811 7.236-12.862l3.452-2.246c-1.166-.973-2.564-1.557-4.015-1.981-5.544-1.621-11.486-.85-16.222 2.495-.53.374-1.88 1.68-2.37 1.712-.618.041.419-1.029.536-1.146 2.95-2.98 7.278-5.392 11.472-5.924 2.085-.264 4.188-.032 6.284-.193.843-1.638 1.435-3.421 1.442-5.287l-.254-2.736c.583-.334 1.17-.663 1.69-1.098.312-.26 1.504-1.397 1.684-1.675.094-.146.15-.24.113-.425-7.758-1.502-16.01 2.251-21.534 7.556-.88.845-1.916 2.29-2.81 2.948-.164.121-.242.226-.484.174-.083-.074.864-1.43.98-1.597 2.98-4.244 7.32-7.989 12.05-10.145 2.016-.919 4.09-1.402 6.13-2.209.29-1.648.242-3.36.295-5.043l2.614-2.964c-8.057-1.418-15.932.775-21.818 6.431-6.637 6.378-8.06 13.11-10.506 21.53-.147.504-.308 1.405-.968.964l-10.592-9.885c2.838-3.56 5.896-8.531 6.099-13.222.08-1.841-.306-1.307-1.52-1.958-1.91-1.026-2.917-2.66-3.156-4.82a.49.49 0 0 1 .427.111c.286.217.78.994 1.19 1.33 3.352 2.765 10.094.256 12.466-2.892 1.623-2.154 2.708-4.989 4.01-7.353-4.16-4.435-10.836-4.785-16.386-3.109-1.034.312-2.178.94-3.14 1.179-.15.037-.675.2-.605-.125.149-.36 3.573-2.073 4.154-2.325 3.394-1.471 6.902-1.869 10.587-1.829.662-2.476 1.016-5.113.6-7.657-.24-.163-1.388.48-1.726.592-1.703.565-5.02.524-6.753.03-3.17-.901-4.496-2.313-8.182-1.292-3.502.97-3.181 3.014-5.58 4.738-.325.233-.645.424-.637-.149.887-2.006 1.623-4.03 1.413-6.275.204-1.234-.02-2.528-.116-3.775-1.868.954-3.835 1.67-5.85 2.246-1.944.556-5.672 1.005-6.981 2.496-1.25 1.423-.985 3.002-1.22 4.721-5.13.533-9.796 2.653-12.794 6.94-1.43 2.043-2.731 5.096-3.108 7.57-.413 2.708 0 5.67-.166 8.415-3.953.954-8.253 3.63-9.525 7.69-.818 2.614-.758 6.554.439 9.045.366.763 1.23 2.044 2.11 2.213.862.164 2.876-.702 3.864-.882 1.245-.228 3.489-.31 4.744-.174 1.364.148 4.728 2.057 6.422 2.575 2.029.621 4.048.81 6.17.664 1.664-.115 3.218-.768 4.86-.96-.047 3.789-1.32 7.218-3.835 10.024-1.808 2.018-4.06 3.762-6.48 4.979-.056.082 1.23 1.305 1.383 1.435.463.396 2.98 1.949 3.034 2.127.084.271.007.473-.073.723-.338 1.068-1.53 2.334-2.017 3.39-.07.132-.051.229.008.359.228.5 2.336 2.068 2.884 2.643 2.476 2.591 2.915 5.037 6.832 6.365 2.818.957 4.793.441 7.565.354 1.937-.06 3.978 2.399 5.408 3.45l11.472-3.19 4.705 3.668c2.624-1.34 5.194-3.712 6.32-6.484.25-.614.632-1.79.699-2.422M61.67 99.024c-.91-.413-2.134-1.936-2.98-2.242-.806-.293-.901.897-1.035 1.476-.797 3.448-1.07 7.114-2.072 10.533-.19.15-3.71-1.198-4.297-1.357-3.118-.84-6.496-1.112-9.594-.067-3.713 1.253-5.875 4.77-6.744 8.432l28.187-.12-3.247-5.341z"/><path d="m61.67 99.024-1.78 11.314 3.246 5.34-28.188.121c.87-3.661 3.032-7.179 6.745-8.432 3.098-1.045 6.476-.773 9.594.067.588.159 4.107 1.507 4.297 1.357 1.002-3.42 1.275-7.085 2.072-10.533.134-.579.23-1.769 1.036-1.476.845.306 2.069 1.829 2.979 2.242" style="fill:#b7281b"/><path d="M71.293 86.82c-.067.632-.45 1.808-.698 2.422-1.127 2.772-3.697 5.144-6.32 6.484l-4.706-3.667-11.472 3.189c-1.43-1.051-3.471-3.51-5.408-3.45-2.772.087-4.747.603-7.565-.354-3.917-1.328-4.356-3.774-6.832-6.365-.548-.575-2.656-2.142-2.884-2.643-.06-.13-.077-.227-.008-.358.486-1.057 1.679-2.323 2.017-3.39.08-.251.157-.453.073-.724-.055-.178-2.571-1.731-3.034-2.127-.153-.13-1.44-1.353-1.383-1.435 2.42-1.217 4.672-2.961 6.48-4.979 2.516-2.806 3.788-6.235 3.836-10.023-1.643.191-3.197.844-4.86.959-2.123.146-4.142-.043-6.171-.664-1.694-.518-5.058-2.427-6.422-2.575-1.255-.137-3.5-.054-4.744.174-.988.18-3.002 1.046-3.863.882-.882-.169-1.745-1.45-2.111-2.213-1.197-2.49-1.257-6.431-.44-9.044 1.273-4.06 5.573-6.737 9.526-7.69.167-2.747-.247-5.708.166-8.416.377-2.474 1.678-5.527 3.107-7.57 2.999-4.287 7.666-6.407 12.796-6.94.234-1.719-.03-3.298 1.219-4.72 1.309-1.492 5.037-1.941 6.98-2.497 2.016-.577 3.983-1.292 5.85-2.246.098 1.247.32 2.541.117 3.775.21 2.244-.526 4.269-1.413 6.275-.008.573.312.382.637.149 2.399-1.724 2.078-3.768 5.58-4.738 3.686-1.021 5.013.39 8.182 1.293 1.732.493 5.05.534 6.753-.031.338-.113 1.485-.755 1.726-.592.416 2.544.062 5.181-.6 7.657-3.686-.04-7.193.358-10.587 1.829-.581.252-4.005 1.966-4.155 2.325-.07.324.455.162.606.125.962-.24 2.106-.867 3.14-1.179 5.55-1.676 12.227-1.326 16.386 3.11-1.302 2.363-2.387 5.198-4.01 7.352-2.372 3.147-9.114 5.657-12.467 2.893-.408-.337-.903-1.114-1.19-1.33a.49.49 0 0 0-.426-.112c.238 2.16 1.247 3.794 3.157 4.82 1.213.651 1.598.117 1.519 1.958-.203 4.69-3.261 9.663-6.1 13.222l10.593 9.885c.66.441.82-.46.968-.965 2.447-8.42 3.869-15.15 10.506-21.529 5.886-5.656 13.76-7.849 21.818-6.43l-2.614 2.963c-.054 1.683-.005 3.395-.296 5.043-2.038.807-4.113 1.29-6.13 2.209-4.73 2.156-9.07 5.9-12.05 10.145-.116.167-1.062 1.523-.98 1.597.243.052.32-.053.485-.174.894-.657 1.93-2.103 2.81-2.948 5.525-5.305 13.776-9.058 21.534-7.556.037.185-.02.279-.113.425-.18.278-1.372 1.415-1.684 1.675-.52.435-1.107.763-1.69 1.098l.254 2.736c-.007 1.866-.6 3.649-1.442 5.287-2.096.16-4.2-.071-6.284.193-4.194.532-8.521 2.944-11.472 5.924-.117.117-1.154 1.187-.536 1.146.49-.033 1.84-1.338 2.37-1.712 4.736-3.344 10.678-4.116 16.222-2.495 1.45.424 2.85 1.008 4.015 1.981l-3.452 2.246c-.498 5.05-3.19 9.837-7.236 12.862-4.55 3.402-9.93 4.676-15.58 4.513-.075.98.102 2.097 0 3.06M28.83 48.84c.247.05.279-.123.383-.277 2.214-3.27 2.896-13.378-.446-16.04-1.59-1.266-4.236-1.68-6.018-.626-4.032 2.384-4.468 13.571-1.3 16.707.827.82 2.237 1.173 3.31.664 3.186-1.512 2.61-8.852 1.453-11.55-.604-1.408-1.528-2.323-3.021-2.74.908-1.318 1.62-1.804 3.264-1.343 3.933 1.102 3.692 8.364 3.177 11.507-.205 1.25-.63 2.444-.802 3.697" style="fill:url(#a)"/><path d="M28.83 48.84c.172-1.254.598-2.448.803-3.698.515-3.143.756-10.405-3.177-11.507-1.644-.46-2.356.025-3.264 1.344 1.493.416 2.417 1.331 3.02 2.74 1.159 2.697 1.734 10.037-1.452 11.549-1.073.51-2.483.156-3.31-.664-3.168-3.136-2.732-14.323 1.3-16.707 1.782-1.054 4.429-.64 6.018.626 3.342 2.662 2.66 12.77.446 16.04-.104.154-.136.328-.383.276"/></svg>