<svg xmlns="http://www.w3.org/2000/svg" width="600" height="510.36"><path d="M419.389 0H179.565l-1.148.153c-16.153 1.748-38.57 13.41-46.046 37.932L35.38 65.095l-.944.344C21.23 70.529 0 87.575 0 118.769c0 5.576.689 11.61 2.194 18.143L93.7 478.36l2.488 3.38c10.31 13.806 35.533 34.934 64.291 26.768 0 0 128.926-35.481 139.592-38.429 10.615 2.948 139.745 38.48 139.745 38.48 28.567 8.115 53.727-13.013 64.1-26.818l2.488-3.343 91.351-340.834c1.544-6.685 2.246-12.912 2.246-18.59 0-31.45-21.18-48.444-34.333-53.534l-.957-.344s-76.59-21.333-96.978-27.01C460.255 13.562 437.826 1.9 421.686.153L420.538 0z" style="fill:#fff"/><path d="M180.713 21.78s-29.358 3.138-29.358 33.542l-109.1 30.453s-27.303 10.463-18.882 46.149l90.205 336.764s18.895 25.21 40.916 18.882l145.588-40.023 145.525 40.023c22.022 6.329 40.918-18.882 40.918-18.882l90.204-336.764c8.42-35.686-18.833-46.149-18.833-46.149l-109.15-30.453c0-30.404-29.408-33.543-29.408-33.543zm.996 12.566h236.686c1.39.242 5.625 1.188 9.568 3.842 5.575 3.725 8.178 9.16 8.178 17.134v9.569s115.822 32.306 117.52 32.752c2.985 1.441 12.109 6.875 12.109 21.369 0 2.947-.41 6.24-1.252 9.978-.154.6-88.009 328.484-89.463 333.766-3.879 4.389-15.248 15.794-26.016 12.707l-148.957-40.969-149.02 40.969c-10.768 3.087-22.175-8.318-26.015-12.707-1.442-5.282-89.259-333.166-89.463-333.766-.842-3.738-1.25-7.031-1.25-9.978 0-14.494 9.123-19.928 12.121-21.37 1.684-.446 117.467-32.751 117.467-32.751v-9.569c0-7.974 2.641-13.409 8.217-17.134 3.993-2.654 8.18-3.6 9.57-3.842m1.402 15.744s-4.937 2.092-4.937 6.277v348.324s0 7.03 4.937 7.03h234.287s5.577-1.39 5.577-7.03V56.367s-.639-6.277-5.577-6.277zm255.62 31.451v323.852s-2.845 20.974-19.585 20.974H328.19l121.706 33.594s6.98 3.497 10.462-4.184l89.565-332.273s3.483-10.462-4.887-13.256zm-277.31.701L55.067 110.95c-8.37 2.782-4.873 13.307-4.873 13.307l89.5 332.223c3.547 7.667 10.514 4.183 10.514 4.183l121.705-33.54H181.02c-16.855 0-19.598-21.04-19.598-21.04zm210.708 48.512q2.993 0 4.937 1.342 1.944 1.341 1.944 20.78V259.35q0 30.502 5.084 44.709 5.083 14.205 23.922 20.183-.895 3.887-6.13 7.479t-12.407 3.591q-4.19 0-7.63-1.048-3.44-1.051-10.02-5.537-6.582-4.486-10.616-13.604t-8.524-8.223q-10.168 9.274-22.279 18.541-12.111 9.27-26.166 11.067a2143 2143 0 0 0-30.803 4.19q-10.77 0-20.189-4.04-9.42-4.038-19.29-13.607-9.87-9.57-14.357-28.713-4.485-19.143-4.484-61.008v-33.195q0-20.936-.303-25.272-.3-4.335-2.093-12.261-1.794-7.926-11.213-13.01t-9.418-11.363q14.648 0 24.82-1.793a484 484 0 0 0 19.736-3.893q2.393 0 4.934 1.195t2.541 10.166q0 8.973-.297 18.244-.297 9.274-.598 17.643 0 9.273-.15 18.244t-.15 17.944q0 49.348 8.826 73.576 8.825 24.227 25.422 26.172 16.597 1.944 20.787 1.943 14.648 0 28.406-5.535 13.759-5.535 20.934-18.395 3.595-8.67 5.388-19.435t1.793-27.221q0-13.755-1.345-27.81-1.346-14.055-1.793-23.48-.448-9.421-.448-16.294v-6.28q0-5.384-.3-8.378-.302-2.993-1.649-7.926-1.346-4.934-7.775-11.062t-6.43-7.926q0-1.497 1.943-2.393 1.945-.894 15.252-2.838t20.188-1.943"/></svg>