<svg xmlns="http://www.w3.org/2000/svg" width="556.583" height="466.81"><path d="M158.952 0s-29.357 3.14-29.357 33.543l-109.1 30.453S-6.808 74.46 1.612 110.145l90.205 336.763s18.895 25.211 40.916 18.883l145.588-40.023 145.526 40.023c22.021 6.328 40.918-18.883 40.918-18.883l90.203-336.763c8.42-35.686-18.832-46.149-18.832-46.149l-109.15-30.453C426.985 3.139 397.576 0 397.576 0Zm.996 12.566h236.686c1.39.243 5.626 1.188 9.568 3.842 5.576 3.726 8.178 9.16 8.178 17.135v9.568S530.203 75.417 531.9 75.863c2.985 1.442 12.109 6.876 12.109 21.37 0 2.947-.41 6.24-1.252 9.978-.153.6-88.008 328.483-89.463 333.766-3.879 4.389-15.247 15.794-26.016 12.707l-148.957-40.97-149.02 40.97c-10.767 3.087-22.174-8.318-26.015-12.707-1.442-5.283-89.259-333.166-89.463-333.766-.842-3.738-1.25-7.031-1.25-9.979 0-14.493 9.123-19.927 12.121-21.369 1.685-.446 117.467-32.752 117.467-32.752v-9.568c0-7.974 2.641-13.41 8.217-17.135 3.993-2.654 8.18-3.6 9.57-3.842m1.403 15.745s-4.938 2.092-4.938 6.277v348.324s0 7.03 4.938 7.03h234.287s5.576-1.39 5.576-7.03V34.588s-.639-6.277-5.576-6.277zM416.97 59.76v323.852s-2.845 20.975-19.584 20.975h-90.957l121.705 33.594s6.98 3.497 10.463-4.184l89.564-332.273s3.483-10.462-4.886-13.256zm-277.309.702L33.306 89.17c-8.37 2.781-4.873 13.307-4.873 13.307l89.5 332.222c3.547 7.668 10.513 4.184 10.513 4.184l121.705-33.541H159.26c-16.854 0-19.598-21.04-19.598-21.04zm210.707 48.512q2.994 0 4.938 1.341 1.943 1.342 1.943 20.782V237.57q0 30.502 5.084 44.708t23.922 20.184q-.895 3.887-6.129 7.478-5.235 3.592-12.408 3.592-4.188 0-7.63-1.049-3.44-1.05-10.02-5.537-6.582-4.486-10.616-13.603-4.034-9.119-8.523-8.223-10.168 9.273-22.28 18.541-12.11 9.269-26.166 11.067a2143 2143 0 0 0-30.802 4.189q-10.77 0-20.19-4.04-9.418-4.037-19.289-13.607t-14.357-28.712q-4.485-19.144-4.485-61.008v-33.196q0-20.935-.302-25.271-.3-4.335-2.094-12.262-1.794-7.925-11.213-13.01-9.419-5.082-9.418-11.363 14.65 0 24.82-1.793a484 484 0 0 0 19.737-3.892q2.392 0 4.933 1.195t2.541 10.166-.297 18.244q-.295 9.273-.597 17.643 0 9.273-.15 18.244t-.151 17.943q0 49.35 8.826 73.576 8.825 24.228 25.422 26.172t20.787 1.944q14.649 0 28.406-5.536 13.76-5.534 20.934-18.394 3.595-8.67 5.389-19.436 1.793-10.764 1.793-27.22 0-13.755-1.346-27.81t-1.793-23.48-.447-16.294v-6.28q0-5.385-.301-8.379-.301-2.992-1.648-7.925-1.347-4.934-7.776-11.063-6.43-6.128-6.43-7.926 0-1.497 1.944-2.392t15.252-2.838q13.306-1.944 20.187-1.943"/></svg>