<svg xmlns="http://www.w3.org/2000/svg" width="600" height="320"><path d="M39.868 0C14.508 47.102 0 101.738 0 160s14.508 112.898 39.868 160h520.264C585.49 272.898 600 218.262 600 160S585.49 47.102 560.132 0z"/><path d="M0 0h-248.208l-2.526-5.584c-9.203-20.341-13.87-42.182-13.87-64.916 0-23.139 4.833-45.338 14.365-65.982l2.548-5.518H-.517l2.548 5.518c9.532 20.643 14.365 42.843 14.365 65.982 0 22.735-4.667 44.576-13.87 64.917zm-6.129-9.5c8.345-18.442 13.025-39.136 13.025-61 0-22.262-4.858-43.306-13.49-62h-235.02c-8.631 18.694-13.49 39.738-13.49 62 0 21.864 4.681 42.558 13.025 61z" style="fill:gray" transform="matrix(2 0 0 -2 548.207 19)"/><path d="m0 0-25.5-21.917 3.084-5.583c13.671-1.239 27.264-2.558 31.75-13.167.395-3.111.398-6.222-.083-9.333-1.895-3.036-5.206-5.646-9.834-8.083-5.809-3.06-13.901.588-19.577 6.624-2.691 1.031-5.45 1.634-7.673 2.376l-2.5-5.417 25.917-16.417c7.001 6.457 14.599 12.02 23.25 16 1.052 5.812 1.648 11.77 1.667 17.917C16.25-26.5 7.084-21.583-4.666-18.917L18.501 13l-44.834-1.333c-.298-4.896-2.125-8.905-4.666-12.5C-21.262.464-10.987.841 0 0m-67.417-5.833H-53.5V-55.5l13.708 13.708V13C-47.615 7.934-57.078 3.702-67.417-.083Zm-55.128 4.778c1.962-1.695 2.003-3.528.717-5.572-2.506-3.983-4.922-7.165-7.672-9.54-1.436-1.239-1.214-3.333-.333-5 1.928-3.649 4.91-5.951 7.916-7.5 2.488 2.49 4.976 3.339 6.417.584 5.307-10.146 9.279-20.431 14.083-29.917 4.199-8.291 3.114-14.005-1.583-17.833-3.282-2.675-6.444-4.892-9-7.5a90 90 0 0 1 6.833-6.417c11.028 8.996 27.748 8.512 48.084 2a35.7 35.7 0 0 0 3.166 7c-7.125 6.396-14.561 7.944-17.166 14.167-1.377 3.289-2.063 9.944-3.742 14.182C-80.334-38.5-85.5-28.083-94.083-10.417c-3.851 7.926-2.98 15.63-1 19.917-2.876 1.228-5.102 2.703-6.75 4.396-3.834-3.813-19.084-3.896-27.021 0-1.844-3.163-3.702-5.615-5.563-7.875 4.964-2.1 8.936-4.538 11.872-7.076m-81.038 3.472c8.041-1 13.958-1.959 11.083-9.417-1.566-4.063-3.256-7.869-5-11.583-.994-2.115-.772-4.458 1.667-6.084 1.636-1.09 5.167-2.87 7-3.583 2.458-.958 3.975.039 4.75 1.833.568 1.318 1.855 3.885 2.5 5.167 1.21 2.407 3.33 1.89 4.833-.25 9.559-13.613 18.597-32.622 24.25-55.333 1.565-6.289 1.5-11.419-.417-14.584 2.76-2.049 5.85-3.482 9.25-4.333 4.01 7.537 10.972 13.479 20.417 18.083-1.939 7.737-4.425 15.362-7.667 22.834-3.268 10.517-1.291 16.005 2 20.166.899 1.138.92 2.642 0 4.094-1.76 2.777-3.683 4.979-5.666 6.656-1.396 1.181-3.23 1.428-4.75-.083-.896-.89-1.679-1.896-2.75-2.667-10.834 12.834-20.084 26.584-23.5 36.25l-33.334 1.25c-2.25-2.375-4-5.25-4.666-8.416m-22.834-83.334c6.263 4.911 10.455 11.536 13.975 21.3 3.266 9.058 5.484 17.792 9.6 26.125 1.041 2.107 3.565 3.767 6.3 2.45 1.928-.928 3.847-1.99 5.959-2.958 2.222-1.019 2.682-2.941 1.666-5.316-2.93-6.846-6.569-13.392-8.916-20.434-2.334-7-2.667-15.167 5.583-17.333v-6.5c-15.394 1.861-24.613-.346-30.45-5.333z" style="fill:gray" transform="matrix(2 0 0 -2 494.834 82.167)"/></svg>