<svg xmlns="http://www.w3.org/2000/svg" width="600" height="320"><path d="M39.867 0C14.507 47.102 0 101.738 0 160s14.507 112.898 39.867 160h520.266C585.49 272.898 600 218.262 600 160S585.49 47.102 560.133 0Zm11.924 19h496.416l5.053 11.166C571.666 70.848 580.998 114.53 580.998 160c0 46.278-9.664 90.679-28.728 131.965L547.172 303H52.824l-5.095-11.035C28.665 250.677 18.998 206.278 18.998 160c0-45.468 9.334-89.15 27.74-129.832zm12.258 19C47.36 74.884 37.998 116.272 37.998 160c0 27.192 3.63 53.473 10.385 78.332 9.117-9.14 15.796-20.925 21.566-36.932 6.532-18.116 10.97-35.584 19.201-52.25 2.082-4.214 7.13-7.532 12.6-4.898 3.856 1.856 7.694 3.98 11.918 5.916 4.444 2.038 5.364 5.88 3.332 10.63-5.86 13.693-13.138 26.786-17.832 40.87-4.668 14-5.334 30.332 11.166 34.664v13c-27.048-3.27-44.564-.26-56.336 7.283A290 290 0 0 0 64.978 284H535.02c17.264-37.388 26.978-79.476 26.978-124 0-43.728-9.359-85.116-26.049-122zm173.076 16.375c15.874 7.792 46.375 7.626 54.043 0 3.296 3.386 7.748 6.337 13.5 8.793-3.96 8.574-5.702 23.982 2 39.834 17.166 35.332 27.498 56.165 38.516 83.967 3.358 8.476 4.73 21.785 7.484 28.363 5.21 12.446 20.082 15.544 34.332 28.336-2.64 4.5-4.756 9.166-6.332 14-40.672-13.024-74.112-13.992-96.168 4a180 180 0 0 1-13.666-12.836c5.112-5.216 11.436-9.65 18-15 9.394-7.656 11.564-19.082 3.166-35.664-9.608-18.972-17.552-39.544-28.166-59.836-2.882-5.51-7.858-3.81-12.834 1.17-6.012-3.098-11.976-7.702-15.832-15-1.762-3.334-2.206-7.522.666-10 5.5-4.75 10.332-11.114 15.344-19.08 2.572-4.088 2.49-7.755-1.434-11.145-5.872-5.076-13.816-9.952-23.744-14.152 3.722-4.52 7.437-9.424 11.125-15.75m178.125 1.793v109.584l-27.416 27.416V93.832H360v-11.5c20.678-7.57 39.604-16.032 55.25-26.164m116.586 0-46.334 63.834c23.5 5.332 41.832 15.166 50.334 36.166-.038 12.294-1.23 24.21-3.334 35.834-17.302 7.96-32.498 19.086-46.5 32l-51.834-32.834 5-10.836c4.446 1.484 9.964 2.692 15.346 4.754 11.352 12.072 27.536 19.366 39.154 13.246 9.256-4.874 15.878-10.092 19.668-16.164.962-6.222.956-12.444.166-18.666-8.972-21.218-36.158-23.856-63.5-26.334l-6.168-11.166 51-43.834c-21.974-1.682-42.524-.93-61.998 1.664 5.082-7.19 8.736-15.208 9.332-25zM97 60.502l66.668 2.5c6.832 19.332 25.332 46.832 47 72.5 2.142-1.542 3.708-3.554 5.5-5.334 3.04-3.022 6.708-2.528 9.5-.166 3.966 3.354 7.812 7.756 11.332 13.31 1.84 2.904 1.798 5.914 0 8.19-6.582 8.322-10.536 19.296-4 40.33 6.484 14.944 11.456 30.196 15.334 45.67-18.89 9.208-32.814 21.092-40.834 36.166-6.8-1.702-12.98-4.568-18.5-8.666 3.834-6.33 3.964-16.592.834-29.17-11.306-45.422-29.382-83.438-48.5-110.664-3.006-4.28-7.246-5.314-9.666-.5-1.29 2.564-3.864 7.698-5 10.334-1.55 3.588-4.584 5.582-9.5 3.666-3.666-1.426-10.728-4.986-14-7.166-4.878-3.252-5.322-7.94-3.334-12.17 3.488-7.428 6.868-15.038 10-23.164 5.75-14.916-6.084-16.836-22.166-18.836C89 71 92.5 65.252 97 60.502"/></svg>