<svg xmlns="http://www.w3.org/2000/svg" width="539.384" height="614.032"><path d="M414.994 136.903c-54.815 19.312-88.868 24.98-146.99 24.574-57.176-.32-90.588-6.19-144.476-25.484-10.339-20.425-16.73-43.886-16.73-64.177h325.855c0 21.876-17.659 65.087-17.659 65.087M349.84 410.66c51.712 27.206 85.31 66.943 85.31 115.298 0 7.118-.658 6.848-2.042 16.141h-67.465c-46.382-34.593-78.461-91.516-78.461-167.802l-.455-8.18s28.723 26.43 63.113 44.543m-97.436-34.07c0 76.304-32.164 133.295-78.613 165.51h-67.398c-1.45-6.916-2.176-6.663-2.176-13.899 0-48.305 33.733-88.092 85.327-115.18 34.592-18.114 63.18-46.972 63.18-46.972zm286.98-311.755V7.32c0-4.031-3.155-7.32-7.186-7.32H7.168C3.223 0 .002 3.289.002 7.32v57.514c0 3.812 3.221 7.05 7.168 7.05h42.638l-.068 5.532c0 65.88 46.045 114.573 103.036 144.611 33.075 17.271 40.597 38.287 40.597 77.619 0 38.809-8.247 60.938-41.643 78.462-57.126 29.97-103.12 78.731-103.12 144.543 0 6.73.472 13.055 1.332 19.447H7.168c-3.947 0-7.168 3.29-7.168 7.236v57.598c0 3.88 3.221 7.1 7.168 7.1h525.03c4.03 0 7.185-3.22 7.185-7.1v-57.598c0-3.947-3.154-7.236-7.185-7.236h-43.802c.725-6.392 1.316-12.717 1.316-19.447 0-65.812-46.13-114.572-103.171-144.543-33.345-17.524-41.576-39.653-41.576-78.462 0-37.882 8.754-59.757 42.756-77.619 57.059-29.971 103.104-78.731 103.104-144.61l-.068-5.533h41.508c3.964 0 7.118-3.238 7.118-7.05"/></svg>