<svg xmlns="http://www.w3.org/2000/svg" width="600" height="639.59"><path d="M267.482 67.723c-4.877 16.36-10.938 39.163-15.176 67.9-18.31 2.862-47.414 8.235-76.774 17.542l-49.91-39.29s15.177 64.029 8.924 110.948c-3.31 24.674-10.746 54.722-41.721 56.097l-2 .064c-30.415 0-33.55-41.481-33.917-46.167C49.04 131.69 6.743 126.444 6.743 126.444s29.104 36.908 5.006 99.434C7.303 237.312-1.381 254.614.187 283.543c1.12 19.541 11.05 37.292 19.557 50.596 6.429 10.123 13.545 18.55 20.42 26.674 10.364 12.297 19.303 22.916 23.556 36.476 8.06 25.986 13.737 54.467 16.855 84.77 2 19.238 2.943 37.724 2.815 54.899-.128 18.246-1.312 34.797-3.678 49.045l-3.758 22.612 22.436 4.558 103 21.172 27.105 5.245 1.376-27.6c.32-5.566 2.51-23.748 18.805-24.803l22.18-1.504v-22.228c0-3.933-.32-98.33-24.866-174.977l-4.126-12.121-12.233-3.487c-3.694-1.072-29.68-9.37-41.978-37.18 22.1 4.814 51.093 10.939 76.07 15.88l22.309 81.828h27.92l22.42-81.828c24.93-4.941 53.924-11.066 76.024-15.88-12.361 27.81-38.283 36.11-41.977 37.18l-12.234 3.487-4.126 12.121c-24.61 76.647-24.93 171.044-24.93 174.977v22.228l22.18 1.504c16.36 1.055 18.486 19.237 18.87 24.802l1.31 27.601 27.17-5.245 103-21.172 22.437-4.558-3.758-22.612c-2.367-14.248-3.614-30.8-3.742-49.045-.064-17.175.88-35.66 2.878-54.899 3.118-30.303 8.795-58.784 16.855-84.77 4.254-13.56 13.193-24.179 23.555-36.476 6.877-8.124 13.993-16.551 20.42-26.674 8.509-13.304 18.439-31.055 19.495-50.596 1.63-28.929-7.053-46.231-11.498-57.665-24.1-62.526 4.94-99.434 4.94-99.434s-42.232 5.245-50.164 108.373c-.368 4.686-3.438 46.167-33.853 46.167l-2-.064c-31.04-1.375-38.41-31.423-41.72-56.098-6.253-46.918 8.922-110.948 8.922-110.948l-49.91 39.291c-29.36-9.307-58.527-14.68-76.773-17.542-4.302-28.737-10.3-51.54-15.24-67.9C319.886 25.554 300.09 0 300.09 0s-19.99 25.554-32.607 67.723" style="fill:gray"/><path d="M326.506 156.795s57.97 6.061 108.07 25.043c0 0 7.116-5.245 10.122-14.169 0 0-5.117 30.096-2.878 58.96 2.623 33.854 17.862 75.896 64.285 78.022 57.457 2.687 60.72-68.65 60.72-68.65s10.618 22.42 9.242 46.23c-.75 13.865-8.507 27.666-15.815 39.1-15.416 24.178-37.724 40.41-46.6 68.842-9.05 29.104-14.727 59.216-17.797 89.44-2 19.061-3.118 38.3-3.055 57.473.116 18.806 1.44 36.796 4.062 52.787L393.91 610.982s-1.375-44.84-40.97-47.527c0 0 0-93.709 23.795-167.669 0 0 64.717-17.175 66.029-91.135 0 0-76.647 17.175-125.5 26.418l-17.367 63.406-17.111-63.406c-48.918-9.243-125.5-26.418-125.5-26.418 1.31 73.96 66.028 91.135 66.028 91.135 23.795 73.96 23.795 167.67 23.795 167.67-39.594 2.686-40.906 47.526-40.906 47.526l-103.016-21.109c2.623-15.991 3.886-33.981 3.998-52.787.064-19.174-.992-38.412-2.926-57.473-3.183-30.224-8.812-60.336-17.863-89.44-8.875-28.432-31.183-44.664-46.663-68.843-7.308-11.433-15-25.234-15.815-39.099-1.311-23.81 9.243-46.23 9.243-46.23s3.326 71.337 60.72 68.65c46.422-2.126 61.726-44.168 64.348-78.021 2.19-28.865-2.878-58.96-2.878-58.96 2.942 8.923 10.122 14.168 10.122 14.168 50.1-18.982 108.07-25.043 108.07-25.043 7.932-69.962 26.354-108.325 26.354-108.325s19.06 38.427 26.61 108.325"/></svg>