<svg xmlns="http://www.w3.org/2000/svg" width="600" height="639.59"><linearGradient id="a" x1="0" x2="1" y1="0" y2="0" gradientTransform="scale(546.23606)rotate(10 -3.002 .48)" gradientUnits="userSpaceOnUse" spreadMethod="pad"><stop offset="0" style="stop-color:#536e78"/><stop offset=".3" style="stop-color:#99aebc"/><stop offset=".5" style="stop-color:#d9eaf3"/><stop offset=".7" style="stop-color:#99aebc"/><stop offset="1" style="stop-color:#536e78"/></linearGradient><path d="M267.482 67.723c-4.877 16.36-10.938 39.163-15.176 67.9-18.31 2.862-47.414 8.235-76.774 17.542l-49.91-39.29s15.177 64.029 8.924 110.948c-3.31 24.674-10.746 54.722-41.721 56.097l-2 .064c-30.415 0-33.55-41.481-33.917-46.167C49.04 131.69 6.743 126.444 6.743 126.444s29.104 36.908 5.006 99.434C7.303 237.312-1.381 254.614.187 283.543c1.12 19.541 11.05 37.292 19.557 50.596 6.429 10.123 13.545 18.55 20.42 26.674 10.364 12.297 19.303 22.916 23.556 36.476 8.06 25.986 13.737 54.467 16.855 84.77 2 19.238 2.943 37.724 2.815 54.899-.128 18.246-1.312 34.797-3.678 49.045l-3.758 22.612 22.436 4.558 103 21.172 27.105 5.245 1.376-27.6c.32-5.566 2.51-23.748 18.805-24.803l22.18-1.504v-22.228c0-3.933-.32-98.33-24.866-174.977l-4.126-12.121-12.233-3.487c-3.694-1.072-29.68-9.37-41.978-37.18 22.1 4.814 51.093 10.939 76.07 15.88l22.309 81.828h27.92l22.42-81.828c24.93-4.941 53.924-11.066 76.024-15.88-12.361 27.81-38.283 36.11-41.977 37.18l-12.234 3.487-4.126 12.121c-24.61 76.647-24.93 171.044-24.93 174.977v22.228l22.18 1.504c16.36 1.055 18.486 19.237 18.87 24.802l1.31 27.601 27.17-5.245 103-21.172 22.437-4.558-3.758-22.612c-2.367-14.248-3.614-30.8-3.742-49.045-.064-17.175.88-35.66 2.878-54.899 3.118-30.303 8.795-58.784 16.855-84.77 4.254-13.56 13.193-24.179 23.555-36.476 6.877-8.124 13.993-16.551 20.42-26.674 8.509-13.304 18.439-31.055 19.495-50.596 1.63-28.929-7.053-46.231-11.498-57.665-24.1-62.526 4.94-99.434 4.94-99.434s-42.232 5.245-50.164 108.373c-.368 4.686-3.438 46.167-33.853 46.167l-2-.064c-31.04-1.375-38.41-31.423-41.72-56.098-6.253-46.918 8.922-110.948 8.922-110.948l-49.91 39.291c-29.36-9.307-58.527-14.68-76.773-17.542-4.302-28.737-10.3-51.54-15.24-67.9C319.886 25.554 300.09 0 300.09 0s-19.99 25.554-32.607 67.723"/><path d="M273.543 156.795s-57.968 5.996-108.07 25.042c0 0-7.18-5.245-10.186-14.168 0 0 5.18 30.096 2.943 58.96-2.623 33.918-17.927 75.895-64.35 78.022C36.487 307.337 33.16 236 33.16 236s-10.553 22.42-9.242 46.23c.816 13.865 8.572 27.666 15.816 39.1 15.48 24.179 37.787 40.41 46.662 68.843 9.052 29.104 14.68 59.216 17.799 89.44 1.999 19.06 3.054 38.299 2.99 57.472-.112 18.806-1.375 36.796-3.998 52.788l103.017 21.108s1.31-44.84 40.906-47.526c0 0 0-93.71-23.796-167.67 0 0-64.717-17.174-66.028-91.134 0 0 76.583 17.175 125.5 26.418l17.11 63.405 17.368-63.405C366.117 321.825 442.7 304.65 442.7 304.65c-1.311 73.96-65.964 91.135-65.964 91.135-23.796 73.96-23.796 167.669-23.796 167.669 39.595 2.686 40.906 47.526 40.906 47.526l103.017-21.108c-2.623-15.992-3.95-33.982-4.062-52.788-.064-19.173 1.055-38.411 2.99-57.473 3.135-30.223 8.81-60.335 17.863-89.44 8.81-28.432 31.183-44.663 46.662-68.842 7.244-11.434 15-25.235 15.816-39.1 1.31-23.81-9.243-46.23-9.243-46.23s-3.326 71.337-60.783 68.65c-46.423-2.126-61.663-44.103-64.286-78.021-2.238-28.864 2.879-58.96 2.879-58.96-3.007 8.923-10.123 14.168-10.123 14.168-50.1-19.046-108.07-25.042-108.07-25.042-7.547-69.899-26.61-108.326-26.61-108.326s-18.421 38.364-26.353 108.326" style="fill:url(#a)"/></svg>