<svg xmlns="http://www.w3.org/2000/svg" width="552.385" height="562.512"><path d="M302.7 108.325s57.97 6.061 108.07 25.043c0 0 7.117-5.245 10.123-14.168 0 0-5.117 30.095-2.878 58.96 2.623 33.853 17.862 75.895 64.285 78.022 57.457 2.686 60.72-68.651 60.72-68.651s10.618 22.42 9.242 46.23c-.75 13.865-8.507 27.666-15.815 39.1-15.416 24.178-37.724 40.41-46.6 68.842-9.05 29.105-14.727 59.216-17.797 89.44-2 19.062-3.12 38.3-3.055 57.473.116 18.806 1.44 36.796 4.062 52.787l-102.952 21.109s-1.375-44.84-40.97-47.526c0 0 0-93.71 23.795-167.67 0 0 64.717-17.174 66.028-91.134 0 0-76.646 17.174-125.5 26.417l-17.366 63.406-17.111-63.406c-48.918-9.243-125.5-26.417-125.5-26.417 1.31 73.96 66.028 91.134 66.028 91.134 23.795 73.96 23.795 167.67 23.795 167.67-39.594 2.686-40.906 47.526-40.906 47.526L79.382 541.403c2.623-15.991 3.886-33.981 3.998-52.787.064-19.174-.992-38.411-2.927-57.473-3.182-30.224-8.81-60.335-17.862-89.44-8.875-28.432-31.183-44.664-46.663-68.842-7.308-11.434-15-25.235-15.815-39.1-1.311-23.81 9.243-46.23 9.243-46.23s3.326 71.337 60.719 68.65c46.423-2.126 61.727-44.168 64.35-78.021 2.19-28.865-2.88-58.96-2.88-58.96 2.943 8.923 10.123 14.168 10.123 14.168 50.1-18.982 108.07-25.043 108.07-25.043C257.67 38.363 276.092 0 276.092 0s19.06 38.427 26.61 108.325"/></svg>