<svg xmlns="http://www.w3.org/2000/svg" width="600" height="510.335"><path d="M419.404 0H179.601l-1.149.153c-16.189 1.748-38.566 13.408-46.041 37.928L35.428 65.09l-.995.396C21.28 70.525 0 87.619 0 118.76c0 5.627.702 11.66 2.245 18.142l91.446 341.455 2.54 3.343c10.32 13.803 35.529 34.981 64.284 26.714 0 0 128.928-35.428 139.542-38.375 10.666 2.947 139.785 38.477 139.785 38.477 28.551 8.165 53.722-13.013 64.08-26.816l2.489-3.343 91.305-340.805c1.595-6.685 2.284-12.86 2.284-18.587 0-31.448-21.178-48.44-34.33-53.48l-.945-.396-96.982-27.008C460.267 13.561 437.839 1.901 421.7.153L420.552 0Z" style="fill:gray"/><path d="M180.749 21.777s-29.355 3.138-29.355 33.54L42.266 85.769S15.003 96.23 23.372 131.913l90.247 336.786s18.894 25.107 40.913 18.83l145.576-40.02 145.513 40.02c22.02 6.277 40.913-18.83 40.913-18.83l90.196-336.786c8.37-35.683-18.88-46.144-18.88-46.144L448.76 55.317c0-30.402-29.407-33.54-29.407-33.54z"/><path d="M181.693 34.343c-1.34.242-5.575 1.187-9.517 3.84-5.626 3.726-8.216 9.16-8.216 17.134v9.568S48.185 97.187 46.5 97.633c-3.049 1.442-12.12 6.877-12.12 21.37 0 2.946.409 6.238 1.25 9.976.154.6 88.015 328.455 89.406 333.737 3.89 4.389 15.296 15.794 26.063 12.758l148.957-41.016 149.047 41.016c10.716 3.036 22.083-8.37 25.961-12.758 1.455-5.282 89.265-333.138 89.456-333.737.856-3.738 1.25-7.03 1.25-9.977 0-14.492-9.121-19.927-12.106-21.369-1.697-.447-117.51-32.748-117.51-32.748v-9.568c0-7.974-2.59-13.408-8.178-17.134-3.98-2.653-8.177-3.597-9.568-3.84z" style="fill:gray"/><path d="M438.694 81.533v323.825s-2.794 21.025-19.583 21.025h-90.898l121.694 33.54s6.979 3.495 10.462-4.185l89.558-332.245s3.482-10.461-4.938-13.255zM55.113 110.94c-8.37 2.78-4.874 13.306-4.874 13.306l89.494 332.142c3.496 7.719 10.513 4.236 10.513 4.236l121.707-33.54h-90.949c-16.802 0-19.545-21.037-19.545-21.037V82.287Zm128.034-60.854h234.267c4.886 0 5.575 6.277 5.575 6.277v348.345c0 5.536-5.575 6.927-5.575 6.927H183.147c-4.937 0-4.937-6.927-4.937-6.927V56.363c0-4.185 4.937-6.277 4.937-6.277"/><path d="M31.126 12.14q.508-.12 1.225-.12 1.852 0 3.36 1.016 1.51 1.016 1.718 2.315.21 1.299.21 1.717 0 1.912-1.464 3.256a231 231 0 0 0-2.15 1.493q2.21.42 3.629 2.181 1.418 1.763 1.418 3.525 0 1.643-.582 3.002a3.4 3.4 0 0 1-1.957 1.897q-1.373.537-2.39.717-1.014.18-2.03.179a13 13 0 0 1-2.33-.194 38 38 0 0 1-2.584-.598q-1.539-.403-2.823-.403l-1.046.06-2.718.478a.9.9 0 0 1-.21-.224.55.55 0 0 1-.089-.314q0-.12.18-.269l3.495-.985q.12-.09.179-.881.06-.792.06-2.107 0-2.807-.21-6.392-.21-3.584-.463-4.854-.254-1.27-2.21-1.538-1.957-.269-1.957-.598 0-.209.194-.462a.6.6 0 0 1 .493-.254q.927.208 1.882.418.956.21 1.793.209 1.941 0 3.42-.851 1.479-.852 3.957-1.42m-4.062 9.677q0 2.181-.03 3.6l-.06 2.703q0 1.315.12 1.972t.538 1.18q.417.522 1.314.762.895.238 2.002.238 1.941 0 3.031-.537 1.09-.538 1.583-1.778t.493-3.33q0-1.882-1.792-2.987a890 890 0 0 1-4.391-1.912 7.3 7.3 0 0 0 2.838-1.15q1.314-.88 1.314-2.614v-.508q0-1.553-1.06-2.613-1.062-1.06-2.734-1.06l-.686.06q-1.554.209-2.047 1.418-.493 1.21-.493 3.36 0 .54.03 1.614t.03 1.582" style="fill:gray" transform="scale(10.20603)"/></svg>