<svg xmlns="http://www.w3.org/2000/svg" width="556.553" height="466.759"><path d="M158.973 0S129.62 3.138 129.62 33.54L20.49 63.991s-27.263 10.46-18.894 46.143l90.248 336.787s18.893 25.107 40.912 18.83l145.579-40.02 145.511 40.02c22.02 6.277 40.914-18.83 40.914-18.83l90.196-336.787c8.369-35.683-18.881-46.143-18.881-46.143L426.985 33.54C426.985 3.138 397.579 0 397.579 0Zm.946 12.566h236.714c1.391.243 5.588 1.187 9.569 3.84 5.588 3.725 8.177 9.16 8.177 17.133v9.568s115.813 32.301 117.51 32.748c2.985 1.442 12.108 6.877 12.108 21.37 0 2.947-.395 6.238-1.25 9.976-.192.6-88.003 328.457-89.457 333.738-3.879 4.389-15.245 15.793-25.961 12.756l-149.047-41.013-148.957 41.013c-10.768 3.037-22.172-8.367-26.063-12.756-1.39-5.281-89.253-333.138-89.406-333.738-.842-3.738-1.25-7.03-1.25-9.976 0-14.493 9.072-19.928 12.121-21.37 1.684-.446 117.457-32.748 117.457-32.748V33.54c0-7.973 2.59-13.408 8.217-17.133 3.942-2.653 8.178-3.598 9.518-3.84m1.453 15.743s-4.936 2.092-4.936 6.277V382.93s-.002 6.927 4.936 6.927h234.267s5.574-1.39 5.574-6.927V34.586s-.688-6.277-5.574-6.277zm255.547 31.447V383.58s-2.794 21.025-19.582 21.025h-90.899l121.695 33.54s6.979 3.496 10.461-4.184l89.557-332.246s3.484-10.46-4.936-13.254zm-277.235.754L33.338 89.162c-8.368 2.781-4.875 13.307-4.875 13.307l89.495 332.142c3.495 7.719 10.513 4.235 10.513 4.235l121.707-33.54H159.23c-16.802 0-19.545-21.036-19.545-21.036zm168.72 40.388q18.897 0 34.294 10.368 15.398 10.368 17.533 23.627 2.135 13.257 2.135 17.527 0 19.511-14.942 33.234-17.685 12.197-21.947 15.239 22.56 4.27 37.041 22.26 14.481 17.986 14.483 35.97 0 16.765-5.946 30.637t-19.97 19.361-24.39 7.318a119 119 0 0 1-20.728 1.829q-13.108 0-23.779-1.983-10.671-1.981-26.371-6.098t-28.809-4.117l-10.671.614-27.745 4.875a9.2 9.2 0 0 1-2.134-2.284q-.916-1.372-.916-3.205 0-1.218 1.832-2.744l35.67-10.058q1.218-.912 1.828-8.993.609-8.08.609-21.496 0-28.654-2.135-65.236-2.135-36.58-4.726-49.541-2.591-12.959-22.56-15.7-19.971-2.74-19.972-6.099 0-2.13 1.983-4.72 1.982-2.592 5.033-2.592 9.453 2.13 19.207 4.265 9.754 2.136 18.295 2.135 19.808 0 34.902-8.69 15.097-8.688 40.393-14.484 5.182-1.218 12.504-1.219m-21.65 17.993-7.003.605q-15.855 2.14-20.887 14.484-5.033 12.347-5.033 34.293 0 5.49.306 16.463.307 10.974.307 16.157 0 22.254-.307 36.734t-.615 27.59q0 13.417 1.225 20.125 1.222 6.708 5.488 12.043 4.266 5.336 13.412 7.773 9.145 2.438 20.43 2.438 19.815 0 30.943-5.489 11.127-5.49 16.156-18.138 5.03-12.648 5.03-33.99 0-19.212-18.291-30.489a9083 9083 0 0 1-44.817-19.51q15.547-2.744 28.963-11.736 13.416-8.991 13.416-26.678v-5.181q0-15.853-10.824-26.674-10.826-10.82-27.899-10.82"/></svg>