<svg xmlns="http://www.w3.org/2000/svg" width="618.822" height="499.996"><path d="M267.01 496.44c-64.64-11.83-130.71-45.51-201.342-102.61-38.13-30.83-53.99-49.8-61.31-73.32-14.44-46.39 7.76-93.23 55.39-116.85 12.959-6.43 17.789-7.51 36.949-8.31 31.443-1.33 55.203 6.26 80.783 25.78l10.69 8.16v-40.71l-21.79-21.79L144.59 145V0h119.25v27.62l45.28-.62 45.29-.63.69-13.18.69-13.19h118.68v143.43l-21.65 22.44-21.65 22.43v39.26l6.3-4.17c36.27-24.01 52.53-29.42 84-27.94 20.21.9 25.24 2.06 38.97 8.61 19.51 9.31 41.38 30.41 50.42 48.64 4.81 9.72 6.78 17.64 7.67 30.96 2.28 34.18-8.6 58.12-39.91 87.83-100.74 95.63-217.08 142.27-311.68 124.95z" style="fill:#fff;stroke-width:9.99989"/><path d="M285.54 483.59c-53.64-5.59-112.78-30.57-164.46-69.45-9.77-7.35-17.77-13.69-17.77-14.07 0-.4 5.54-3.24 12.31-6.34 15.28-7 30.05-20.12 36.46-32.38 3.69-7.06 4.9-13.57 4.97-26.75 0-14.94-.9-19.35-6.81-30.96-15.55-30.51-53.933-41.56-76.963-22.18-6.67 5.62-16.839 23.3-14.649 25.49.5.5 4.09-1.75 7.959-5.01 12.34-10.39 28.77-13.12 43.073-7.15 17.32 7.24 26.41 20.63 26.41 38.88 0 13.41-4.52 23.43-14.27 31.63-21.57 18.15-53.333 12.09-81.532-15.58-42.07-41.26-29.65-105.03 25.75-132.3 13.899-6.85 16.969-7.47 35.992-7.31 24.18.2 36.63 3.93 57.91 17.36 14.7 9.28 39.71 34.53 39.71 40.09 0 1.68.8 3.05 1.72 3.05.9 0 1.43-20.44 1.06-45.43l-.66-45.43-20.55-20.45-20.55-20.46V13.66l44.15.63 44.15.63.7 14.33.7 14.34h118.8l.7-14.34.7-14.33 44.14-.63 44.15-.63v125.18l-20.55 20.46-20.55 20.45-.7 45.6c-.6 40.37-.3 44.98 2.63 40.26 6.47-10.47 33.64-35.48 46.46-42.79 37.94-21.61 83.02-16.61 112.49 12.5 16.21 16.02 23.33 32.21 24.31 55.32.7 17.13.2 20.25-6.13 33.71-8.05 17.21-22.29 32.38-39.71 42.33-23.35 13.34-44.04 12.37-60.43-2.82-18.34-17-19.14-39.94-2.05-58.86 14.57-16.12 36.34-18.06 55.03-4.88 8.69 6.13 10.05 6.52 10.05 2.89 0-6.07-9.24-18.88-17.77-24.63-10.7-7.21-21.76-8.6-35.81-4.52-25.64 7.46-41.36 26.54-44.19 53.66-3.01 28.78 11.53 52.91 39.08 64.84 7.02 3.04 12.78 6.64 12.8 8.02 0 2.55-25.41 21.54-48.12 35.91-55.64 35.19-123.99 53.15-180.1 47.3zm48.32-69.35c13.75-6.4 29.01-22.89 32.76-35.4 12.22-40.81-15.11-78.43-56.93-78.35-35.34 0-59.61 24.35-59.54 59.56 0 18.33 5.21 30.63 18.2 43.23 17.17 16.66 43.73 21.1 65.51 10.96m1.38-200.62c10.22-3.95 23.07-16.93 28.69-28.99 13.54-29.06 1.25-64.3-27.86-79.85-13.04-6.971-39.77-6.921-53.04.1-22.08 11.69-32.82 29.31-32.9 54 0 22.16 7.7 36.48 28.26 52.1 10.4 7.91 39.69 9.26 56.85 2.63z" style="stroke-width:9.99989"/></svg>