<svg xmlns="http://www.w3.org/2000/svg" xmlns:xlink="http://www.w3.org/1999/xlink" width="600" height="616.871"><radialGradient id="a" cx="0" cy="0" r="1" fx="0" fy="0" gradientTransform="matrix(17.7411 0 0 -17.7411 219.249 483.722)" gradientUnits="userSpaceOnUse" spreadMethod="pad"><stop offset="0" style="stop-color:#ebd491"/><stop offset=".7" style="stop-color:#d2bb7b"/><stop offset="1" style="stop-color:#8b723c"/></radialGradient><radialGradient xlink:href="#a" id="b" cx="0" cy="0" r="1" fx="0" fy="0" gradientTransform="translate(299.985 308.448)scale(273.59951)" gradientUnits="userSpaceOnUse" spreadMethod="pad"/><path d="M346.45 0H231.08s-44.816 75.736-54.87 92.777c-20.126.294-116.034 1.681-116.034 1.681L0 210.184s41.685 81.565 50.182 98.082C41.685 324.83 0 406.395 0 406.395L60.176 522.12s94.89 1.388 113.982 1.681c10.595 15.792 62.104 93.07 62.104 93.07l130.005-.061 8.79-14.636c14.574-24.212 36.874-61.209 47.176-78.373 20.11-.232 117.591-1.681 117.591-1.681l60.114-115.725s-41.623-81.566-50.12-98.129C558.315 291.75 600 210.184 600 210.184L539.824 94.52s-96.263-1.45-115.37-1.743C413.859 76.94 362.705 0 362.705 0h-12.168z" style="fill:#fff"/><path d="m321.93 431.27-20.126-94.643h-10.116l-16.394 97.11c6.339 58.017 16.394 75.722 16.394 75.722h10.116c12.6-34.082 20.126-78.189 20.126-78.189m100.781-80.594-92.052-29.764-4.997 8.729 75.906 62.72c53.436 23.55 73.731 23.61 73.731 23.61l5.059-8.79c-23.195-27.898-57.647-56.505-57.647-56.505m-303.917 56.505 4.997 8.79s20.372-.123 73.793-23.61l75.906-62.72-4.997-8.73-92.052 29.765s-34.453 28.607-57.647 56.505M480.358 209.83l-5.059-8.744s-20.295.061-73.731 23.564l-75.906 62.705 4.997 8.79 92.052-29.81s34.452-28.623 57.647-56.505M176.44 266.334l92.052 29.81 4.997-8.79-75.906-62.705c-53.421-23.503-73.793-23.564-73.793-23.564l-4.997 8.744c23.194 27.882 57.647 56.505 57.647 56.505m119.04-160.54h10.055s10.133 17.642 16.394 75.72l-16.394 97.111H295.48l-20.187-94.581s7.603-44.153 20.187-78.25m-40.358 281.925v44.153l-29.04 67.47 15.175 22.716 22.655-46.681s7.588 54.269 24.043 74.456h22.654s21.436-37.891 25.23-75.721l22.717 46.682 13.848-23.981-25.23-64.34v-42.888l37.892 23.981 43.844 53.375 27.651-.432-29.64-42.58c34.883 15.176 78.373 14.929 78.373 14.929l11.088-19.817c-9.639-24.15-53.251-57.23-53.251-57.23l51.817 3.022-12.415-24.35-71.449-6.678-35.362-27.405 35.362-23.626 71.45-6.678 12.414-24.29-51.817 2.962s43.612-33.08 53.251-57.23l-11.088-19.817s-43.49-.247-78.374 14.943l29.641-42.595-27.651-.431-43.844 53.436-41.038 26.325-.6-46.62 28.977-65.604-15.113-22.717-22.717 46.636s-7.587-54.223-23.965-74.395h-22.655s-21.513 37.83-25.307 75.721l-22.655-46.697-13.91 23.98 25.245 64.34 4.396 47.885-40.79-28.854-43.783-53.436-27.713.431 29.64 42.595c-34.884-15.19-78.373-14.943-78.373-14.943l-11.088 19.817c9.638 24.15 53.19 57.23 53.19 57.23l-51.756-2.961 12.414 24.29 71.388 6.677 32.648 24.89-32.648 26.14-71.388 6.678-12.414 24.351 51.755-3.022s-43.55 33.08-53.19 57.23l11.089 19.817s43.49.247 78.373-14.929l-29.64 42.58 27.713.432 43.782-53.375zM346.45 22.716h4.087s57.477 86.44 61.58 92.593c7.402.123 113.843 1.742 113.843 1.742l48.502 93.194s-46.806 91.636-50.121 98.021c3.315 6.446 50.12 98.067 50.12 98.067L525.96 499.59s-108.785 1.619-116.805 1.742c-.415.788-1.017 1.805-1.017 1.805-1.866 3.254-47.36 78.743-52.542 87.287l-2.221 3.686-105.007.062s-57.832-86.748-61.919-92.963c-7.417-.062-112.409-1.62-112.409-1.62l-48.502-93.255s46.806-91.62 50.121-98.067c-3.315-6.385-50.12-98.02-50.12-98.02L74.04 116.99s107.351-1.558 115.232-1.681c3.978-6.755 54.762-92.593 54.762-92.593h4.334z" style="fill:#8b723c"/><path d="M346.45 28.915h-98.854l-53.02 89.524-1.742 2.946-3.5.061c-6.987.124-92.593 1.388-111.5 1.635l-45.371 87.226 48.686 95.183 1.435 2.776-1.435 2.822-48.686 95.245 45.37 87.164c18.615.247 102.108 1.45 108.678 1.573h3.254l1.743 2.776 60.176 90.17 98.19-.06.432-.726c5.182-8.543 50.66-83.971 52.465-87.164l1.018-1.742 1.758-3.13 3.608-.063c7.048-.061 93.98-1.387 113.011-1.634l45.371-87.164c-7.958-15.545-45.725-89.462-48.686-95.183l-1.435-2.884 1.435-2.838c2.96-5.721 40.728-79.638 48.686-95.121l-45.37-87.164c-18.784-.309-103.558-1.573-110.112-1.635l-3.254-.062-1.805-2.699c-3.685-5.551-50.012-75.073-59.82-89.832zm-63.923 34.761 1.804-3.13h29.225l1.866 2.297c11.026 13.54 18.074 40.298 21.93 58.542l14.388-29.626 4.704-9.638 5.968 8.913 15.113 22.701 1.928 2.838-1.388 3.069-28.422 64.401.416 34.16 30.844-19.818 43.258-52.65 1.866-2.297h2.945l27.713.478 11.567.185-6.632 9.515-18.614 26.757c29.41-8.56 58.387-8.868 62.18-8.868h3.733l1.743 3.193 11.15 19.832 1.388 2.53-1.095 2.698c-6.447 16.27-26.325 35.547-40.36 47.777l32.834-1.928 10.78-.601-4.874 9.576-12.476 24.336-1.496 3.023-3.377.293-69.876 6.57-26.927 17.889 27.158 21.143 69.645 6.508 3.377.355 1.496 3.022 12.476 24.274 4.874 9.577-10.78-.601-32.772-1.928c14.034 12.291 33.851 31.507 40.298 47.715l1.095 2.76-1.388 2.545-11.15 19.879-1.743 3.13h-3.624c-1.496 0-31.677.062-62.335-8.867l18.66 26.818 6.632 9.516-11.567.185-27.713.354-2.945.062-1.866-2.282-43.258-52.604-27.528-17.458v30.536l24.813 63.26 1.095 2.76-1.51 2.591-13.85 23.92-5.845 10.008-5.058-10.363-14.28-29.348c-7.233 31.029-21.992 57.354-22.717 58.68l-1.804 3.13h-29.286l-1.804-2.282c-11.027-13.494-18.136-40.313-21.93-58.618l-14.45 29.702-4.704 9.639-5.968-8.914-15.114-22.716-1.866-2.838 1.265-3.069 28.607-66.267v-31.569l-29.872 19.17-43.258 52.65-1.866 2.282-2.945-.062-27.713-.354-11.567-.185 6.632-9.516 18.66-26.864c-30.35 8.79-60.716 8.913-62.227 8.913h-3.732l-1.743-3.13-11.15-19.879-1.388-2.545 1.034-2.76c6.508-16.208 26.325-35.424 40.359-47.715L85.42 370.97l-10.78.601 4.874-9.577L91.99 337.72l1.496-3.022 3.439-.355 69.521-6.508 25.06-20.064-24.998-18.969-69.583-6.57-3.44-.292-1.495-3.023-12.476-24.336-4.874-9.576 10.78.601 32.833 1.928c-14.095-12.23-33.912-31.507-40.42-47.777l-1.034-2.699 1.388-2.529 11.15-19.832 1.866-3.193h3.61c3.793 0 32.77.309 62.18 8.868l-18.614-26.819-6.632-9.515 11.567-.185 27.713-.416h2.945l1.866 2.298 43.382 52.82 29.147 20.664-3.13-33.727-24.876-63.553-1.08-2.776 1.435-2.591 13.925-23.981 5.784-9.993 5.12 10.425 14.28 29.394c7.156-31.09 21.976-57.416 22.701-58.742m17.288 48.317c-10.302 29.332-16.98 64.94-18.244 71.865l18.845 88.32 15.314-90.787c-4.58-42.056-11.273-62.227-14.11-69.398zm105.069 117.96-71.033 58.665 85.853-27.774c5.29-4.519 32.895-28.13 53.19-51.679l-.972-1.573c-7.587 1.095-28.36 5.367-67.038 22.362m-278.626-20.789c20.31 23.55 47.9 47.16 53.205 51.679l85.9 27.774-71.08-58.664c-38.739-16.995-59.527-21.267-67.115-22.362zm53.205 146.985c-5.243 4.457-32.833 28.13-53.205 51.694l.91 1.558c7.588-1.08 28.376-5.352 67.116-22.346l71.017-58.619Zm225.42 30.906c38.678 16.994 59.452 21.328 67.04 22.346l.97-1.558c-20.356-23.626-47.9-47.237-53.19-51.694l-85.79-27.713zm-123.31 46.805c4.58 42.055 11.258 62.227 14.095 69.398h1.805c10.302-29.332 16.995-64.941 18.198-71.927l-18.8-88.136z" style="fill:url(#b)"/></svg>