<svg xmlns="http://www.w3.org/2000/svg" width="600" height="616.871"><radialGradient id="a" cx="0" cy="0" r="1" fx="0" fy="0" gradientTransform="translate(299.985 308.449)scale(273.59952)" gradientUnits="userSpaceOnUse" spreadMethod="pad"><stop offset="0" style="stop-color:#d9eaf3"/><stop offset=".663" style="stop-color:#99aebc"/><stop offset="1" style="stop-color:#536e78"/></radialGradient><path d="M346.45 0H231.08s-44.816 75.736-54.87 92.777c-20.188.294-116.034 1.681-116.034 1.681L0 210.184s41.685 81.565 50.182 98.082C41.685 324.83 0 406.395 0 406.395L60.176 522.12s94.89 1.388 113.982 1.681c10.595 15.792 62.104 93.07 62.104 93.07l129.944-.061 8.852-14.636a64042 64042 0 0 0 47.113-78.373c20.172-.232 117.653-1.681 117.653-1.681l60.114-115.725s-41.685-81.566-50.12-98.129C558.253 291.75 600 210.184 600 210.184L539.824 94.52s-96.263-1.45-115.37-1.743C413.859 76.94 362.705 0 362.705 0h-12.168z" style="fill:#fff"/><path d="m321.93 431.27-20.187-94.643h-10.055l-16.394 97.11c6.339 58.017 16.394 75.722 16.394 75.722h10.055c12.661-34.082 20.187-78.189 20.187-78.189m100.781-80.594-92.052-29.764-5.059 8.729 75.968 62.72c53.436 23.55 73.731 23.61 73.731 23.61l5.059-8.79c-23.195-27.898-57.647-56.505-57.647-56.505m-303.979 56.505 5.059 8.79s20.372-.123 73.793-23.61l75.906-62.72-5.058-8.73-91.991 29.765s-34.453 28.607-57.709 56.505M480.358 209.83l-5.059-8.744s-20.295.061-73.731 23.564L325.6 287.354l5.059 8.79 92.052-29.81s34.452-28.623 57.647-56.505M176.44 266.334l91.99 29.81 5.059-8.79-75.906-62.705c-53.421-23.503-73.793-23.564-73.793-23.564l-5.059 8.744c23.256 27.882 57.709 56.505 57.709 56.505m119.04-160.54h10.055s10.133 17.642 16.394 75.72l-16.394 97.111H295.48l-20.187-94.581s7.603-44.153 20.187-78.25m-40.358 281.925v44.153l-29.04 67.47 15.175 22.716 22.655-46.681s7.588 54.269 24.043 74.456h22.639s21.451-37.891 25.245-75.721l22.717 46.682 13.848-23.981-25.23-64.34v-42.888l37.892 23.981 43.844 53.375 27.651-.432-29.64-42.58c34.883 15.176 78.388 14.929 78.388 14.929l11.073-19.817c-9.639-24.15-53.251-57.23-53.251-57.23l51.801 3.022-12.399-24.35-71.449-6.678-35.362-27.405 35.362-23.626 71.45-6.678 12.398-24.29-51.801 2.962s43.612-33.08 53.251-57.23L505.31 177.72s-43.505-.247-78.389 14.943l29.641-42.595-27.651-.431-43.844 53.436-41.038 26.325-.602-46.62 28.978-65.604-15.114-22.717-22.716 46.636s-7.587-54.223-23.98-74.395h-22.64s-21.513 37.83-25.307 75.721l-22.655-46.697-13.91 23.98 25.245 64.34 4.395 47.885-40.79-28.854-43.783-53.436-27.713.431 29.641 42.595c-34.884-15.19-78.389-14.943-78.389-14.943l-11.073 19.817c9.639 24.15 53.19 57.23 53.19 57.23l-51.74-2.961 12.4 24.29 71.387 6.677 32.647 24.89-32.647 26.14-71.388 6.678-12.399 24.351 51.74-3.022s-43.551 33.08-53.19 57.23l11.073 19.817s43.505.247 78.39-14.929l-29.642 42.58 27.713.432 43.783-53.375zM346.45 22.716h4.087s57.477 86.44 61.58 92.593c7.402.123 113.843 1.742 113.843 1.742l48.44 93.194s-46.744 91.636-50.121 98.021c3.377 6.446 50.12 98.067 50.12 98.067L525.96 499.59s-108.785 1.619-116.805 1.742a42 42 0 0 0-1.017 1.805c-1.866 3.254-47.36 78.743-52.542 87.287l-2.221 3.686-105.007.062s-57.832-86.748-61.919-92.963c-7.417-.062-112.409-1.62-112.409-1.62l-48.502-93.255s46.806-91.62 50.121-98.067c-3.315-6.385-50.12-98.02-50.12-98.02L74.04 116.99s107.351-1.558 115.232-1.681c3.978-6.755 54.762-92.593 54.762-92.593h4.334z" style="fill:#536e78"/><path d="M346.45 28.914h-98.853l-53.02 89.523-1.804 2.946-3.44.061a81566 81566 0 0 1-111.499 1.635l-45.37 87.226 48.624 95.183 1.496 2.776-1.496 2.822-48.625 95.245 45.371 87.164c18.614.247 102.108 1.45 108.677 1.573h3.254l1.805 2.776 60.114 90.171 98.19-.062.432-.724c5.182-8.544 50.66-83.972 52.465-87.164l1.018-1.743 1.758-3.13 3.547-.062c7.048-.062 94.042-1.388 113.073-1.635l45.37-87.164c-7.957-15.545-45.725-89.462-48.748-95.183l-1.372-2.884 1.372-2.838c3.023-5.721 40.79-79.638 48.749-95.121l-45.371-87.164c-18.8-.309-103.558-1.573-110.112-1.635l-3.254-.062-1.82-2.699c-3.67-5.551-49.997-75.073-59.805-89.831zm-63.923 34.76 1.743-3.13h29.286l1.866 2.297c11.027 13.54 18.074 40.298 21.93 58.542l14.388-29.626 4.704-9.638 5.968 8.914 15.114 22.7 1.927 2.838-1.372 3.069-28.438 64.401.355 34.16 30.843-19.817 43.32-52.65 1.866-2.298h2.946l27.713.478 11.566.185-6.631 9.515-18.614 26.757c29.409-8.56 58.325-8.868 62.18-8.868h3.732l1.743 3.193 11.15 19.832 1.388 2.53-1.033 2.698c-6.508 16.27-26.387 35.547-40.42 47.777l32.832-1.928 10.78-.601-4.873 9.577-12.477 24.335-1.495 3.023-3.378.293-69.938 6.57-26.926 17.889 27.22 21.143 69.644 6.508 3.378.355 1.495 3.022 12.477 24.274 4.873 9.577-10.78-.601-32.833-1.928c14.096 12.291 33.913 31.507 40.42 47.715l1.034 2.76-1.388 2.545-11.15 19.879-1.743 3.13h-3.562c-1.558 0-31.8.062-62.397-8.867l18.66 26.818 6.632 9.516-11.566.185-27.713.355-2.946.061-1.866-2.282-43.258-52.604-27.528-17.457v30.535l24.752 63.26 1.157 2.76-1.512 2.591-13.848 23.92-5.845 10.008-5.12-10.363-14.22-29.348c-7.294 31.029-21.99 57.354-22.777 58.68l-1.743 3.13h-29.286l-1.804-2.282c-11.088-13.494-18.136-40.312-21.93-58.618l-14.388 29.702-4.766 9.639-5.968-8.914-15.113-22.716-1.866-2.838 1.326-3.069 28.484-66.267v-31.568l-29.81 19.169-43.258 52.65-1.866 2.282-2.946-.061-27.713-.355-11.566-.185 6.631-9.515 18.614-26.865c-30.304 8.79-60.67 8.914-62.18 8.914H91.08l-1.742-3.131-11.15-19.879-1.388-2.544 1.095-2.76c6.446-16.21 26.201-35.425 40.297-47.716l-32.771 1.928-10.78.601 4.873-9.577 12.476-24.274 1.496-3.022 3.378-.355 69.583-6.508 25.06-20.064-24.999-18.968-69.644-6.57-3.378-.293-1.496-3.023-12.476-24.335-4.873-9.577 10.78.601 32.833 1.928c-14.096-12.23-33.913-31.507-40.36-47.777l-1.094-2.699 1.388-2.529 11.15-19.832 1.866-3.193h3.608c3.794 0 32.772.309 62.181 8.868l-18.614-26.819-6.631-9.515 11.566-.185 27.713-.416h2.946l1.866 2.298 43.32 52.82 29.147 20.664-3.07-33.727-24.875-63.553-1.08-2.776 1.435-2.591 13.926-23.98 5.783-9.994 5.12 10.425 14.28 29.394c7.218-31.09 21.977-57.415 22.701-58.742m17.288 48.317c-10.301 29.332-16.98 64.94-18.244 71.865l18.846 88.32 15.314-90.787c-4.58-42.055-11.274-62.227-14.111-69.398zm105.069 117.961-71.033 58.664 85.853-27.774c5.29-4.519 32.895-28.13 53.19-51.679l-.972-1.573c-7.587 1.095-28.299 5.367-67.038 22.362m-278.626-20.789c20.311 23.55 47.9 47.16 53.206 51.679l85.899 27.774-71.033-58.664c-38.786-16.995-59.574-21.267-67.162-22.362zm53.206 146.985c-5.244 4.457-32.895 28.13-53.206 51.694l.849 1.558c7.649-1.08 28.437-5.351 67.223-22.346l70.971-58.618zm225.42 30.906c38.74 16.995 59.451 21.328 67.038 22.346l.972-1.558c-20.357-23.626-47.9-47.237-53.19-51.694l-85.853-27.712Zm-123.313 46.805c4.58 42.055 11.258 62.227 14.096 69.398h1.804c10.302-29.332 16.933-64.941 18.198-71.927l-18.8-88.136z" style="fill:url(#a);stroke-width:15.4218"/></svg>