<svg xmlns="http://www.w3.org/2000/svg" width="432.766" height="483.133"><path d="M204.34 0s-21.515 37.83-25.309 75.72l-22.654-46.697-13.91 23.98 25.246 64.34 4.394 47.886-40.79-28.854-43.782-53.437-27.713.433 29.64 42.594c-34.883-15.19-78.374-14.944-78.374-14.944L0 130.838c9.639 24.15 53.19 57.23 53.19 57.23l-51.754-2.96 12.414 24.288 71.386 6.678 32.649 24.89-32.649 26.141-71.386 6.678-12.414 24.352 51.753-3.024S9.64 328.191 0 352.341l11.088 19.817s43.49.247 78.375-14.928l-29.64 42.58 27.712.432 43.781-53.375 40.19-25.847v44.152l-29.04 67.47 15.175 22.717 22.654-46.681s7.588 54.268 24.043 74.455h22.654s21.437-37.891 25.23-75.72l22.717 46.68 13.85-23.98-25.23-64.34v-42.886l37.89 23.98 43.844 53.375 27.652-.431-29.64-42.58c34.884 15.174 78.373 14.927 78.373 14.927l11.088-19.816c-9.639-24.15-53.252-57.23-53.252-57.23l51.818 3.023-12.414-24.352-71.45-6.678-35.363-27.404 35.364-23.627 71.449-6.678 12.414-24.289-51.818 2.961s43.613-33.08 53.252-57.23l-11.088-19.817s-43.49-.247-78.373 14.944l29.64-42.594-27.652-.433-43.844 53.437-41.037 26.324-.601-46.619 28.978-65.605-15.113-22.715-22.717 46.635S243.372 20.172 226.994 0zm7.523 39.094h10.057s10.131 17.642 16.393 75.72l-16.393 97.112h-10.057l-20.185-94.582s7.601-44.153 20.185-78.25m-171.69 95.29s20.373.062 73.794 23.565l75.906 62.705-4.996 8.791-92.053-29.81s-34.452-28.624-57.646-56.506zm351.509 0 5.058 8.745c-23.194 27.882-57.646 56.506-57.646 56.506l-92.053 29.81-4.996-8.79 75.906-62.706c53.437-23.503 73.73-23.564 73.73-23.564M184.877 254.214l4.996 8.728-75.906 62.721c-53.421 23.487-73.793 23.611-73.793 23.611l-4.996-8.79c23.194-27.899 57.646-56.506 57.646-56.506zm62.164 0 92.053 29.764s34.452 28.607 57.646 56.505l-5.058 8.791s-20.294-.062-73.73-23.61l-75.907-62.722zm-38.97 15.715h10.117l20.125 94.642s-7.526 44.108-20.125 78.19H208.07s-10.054-17.704-16.392-75.72z"/></svg>