<svg xmlns="http://www.w3.org/2000/svg" xml:space="preserve" width="367.255" height="450.002"><path fill="#fff" d="M225.145 433.082v-3.9c11.4-2.55 22.23-14.26 22.23-14.26v-1.59c12.57-3.13 23.92-19.26 23.92-19.26v-4.74l4.77-4.12c34.97-30.22 60.32-66.7 75.09-126.68 0 0-14.47 2.3-23.04-7.19 3.31-6.86 6.35-16.07 6.33-29.13 16.49-12.79 23.18-34.28 19.66-63.7l-.63-5.29c3.99-4.99 6.83-9.87 8.6-14.7 3.35-9.2 5.18-18.48 5.18-27.76 0-26.281-9.75-43.718-9.75-43.718-3.33 3.679-8.21 7.232-8.21 7.232V57.401c-26.92-22.074-78.53-38.289-127.83-43.669 0 0-12.98-13.732-37.84-13.732s-37.84 13.732-37.84 13.732c-49.31 5.38-100.906 21.595-127.822 43.669v16.876s-4.89-3.553-8.218-7.232c0 0-9.745 17.437-9.745 43.727 0 9.27 1.824 18.55 5.177 27.75 1.765 4.84 4.608 9.71 8.601 14.7l-.632 5.29c-3.52 29.43 3.172 50.91 19.659 63.71-.02 13.05 3.021 22.26 6.331 29.12-8.569 9.49-23.039 7.19-23.039 7.19 14.765 59.98 40.121 96.46 75.091 126.68l4.767 4.13v4.73s11.35 16.13 23.92 19.26v1.59s10.83 11.71 22.23 14.26v3.9s15.45 16.92 41.52 16.92 41.52-16.92 41.52-16.92"/><path d="M146.885 285.332c-5.57-6.18-9.68-10.41-12.22-12.58l-.93-.82c-4.57-3.91-10.72-8.1-25.83-8.1-14.563 0-32.443-.71-38.961-2.69-13.908-4.58-21.491-17.08-22.566-37.14l-.115-2.16 1.937.96c13.718 6.8 29.154 11.32 45.885 13.44h.71c1.34 0 2.26-.4 2.33-1.01.1-.68-.75-1.92-2.799-2.43-27.472-7.8-44.607-14.53-52.427-20.6-13.169-9.8-18.354-27.34-15.391-52.12l.266-2.23 1.766 1.39c19.419 15.26 35.87 25.75 48.898 31.19 2.334 1.11 3.811 1.33 4.649 1.33.516 0 1.4-.1 1.544-.67.256-1.05-1.181-4.24-7.262-7.4-34.271-19.4-53.409-35.69-58.549-49.78-5.054-13.86-5.713-27.9-1.959-41.74l.507-1.869 1.505 1.218c33.514 27.131 65.416 48.641 94.822 63.911 5.71 3.01 9.2 5.6 10.67 7.95 1.94 3.54 2.09 8.26 2.09 13.2 0 19.98 25.41 43.19 58.16 43.19h.96c32.21-.46 57.21-23.59 57.21-43.19 0-4.93.15-9.66 2.06-13.14 1.5-2.41 4.98-5 10.69-8 29.42-15.29 61.32-36.79 94.83-63.922l1.51-1.218.51 1.869c3.75 13.841 3.09 27.881-1.96 41.741-5.14 14.09-24.28 30.37-58.51 49.79-6.12 3.18-7.56 6.37-7.31 7.42.15.58 1.03.67 1.55.67.84 0 2.31-.22 4.59-1.3 13.1-5.48 29.55-15.97 48.96-31.22l1.76-1.39.27 2.23c2.96 24.78-2.22 42.32-15.41 52.14-7.8 6.05-24.94 12.78-52.37 20.57-2.09.52-2.92 1.76-2.84 2.44.1.61.99 1.01 2.33 1.01h.76c16.68-2.11 32.11-6.63 45.84-13.43l1.93-.96-.11 2.15c-1.08 20.07-8.66 32.57-22.53 37.15-4.91 1.5-15.69 2.15-23.87 2.43l-1.8.1c-4.54.14-9.12.2-13.33.2-15.46 0-21.47 4.21-26.74 8.9-2.55 2.19-6.66 6.42-12.24 12.6l-1.9 2.11-.29-2.83c-1.94-19.21-13.27-29.22-34.63-30.62-21.18 1.4-32.51 11.41-34.45 30.62l-.29 2.83zm37.09-38.05c20.01 1.31 33.3 10.21 38.59 25.78 2.3-2.37 4.13-4.14 5.57-5.37 6.01-5.35 13.39-10.59 31.2-10.59 4.14 0 8.65-.1 13.11-.19l1.79-.1c10.66-.38 18.89-1.16 22.01-2.11 8.99-2.97 14.51-10.13 16.8-21.86-12.04 4.9-25.21 8.28-39.18 10.05-.53 0-.99.1-1.42.1-5.64 0-8.59-3.48-9.01-6.93-.53-4.4 2.71-8.5 7.73-9.74 26.17-7.42 43.05-13.98 50.12-19.46 9.39-6.99 13.93-19.13 13.5-36.11-16.42 12.31-30.62 20.99-42.21 25.83-2.69 1.27-5.2 1.93-7.42 1.93-4.92 0-7.4-3-8.09-5.81-1.25-5.15 2.8-10.86 10.57-14.89 32.28-18.31 50.96-33.87 55.47-46.22 3.53-9.68 4.69-19.5 3.46-29.21-31.3 24.77-61.2 44.62-88.9 59.01-6.62 3.48-7.96 5.34-7.97 5.36-1.19 2.17-1.19 6.6-1.19 9.83 0 25.64-30.45 49.43-63.88 49.91h-1c-33.36 0-64.9-24.26-64.9-49.91 0-3.05 0-7.66-1.11-9.71-.1-.13-1.37-1.98-8.03-5.48-27.706-14.39-57.609-34.24-88.908-59.02-1.232 9.72-.07 19.54 3.464 29.22 4.508 12.35 23.135 27.89 55.37 46.17 7.816 4.06 11.915 9.79 10.658 14.94-.688 2.81-3.17 5.81-8.083 5.81-2.193 0-4.717-.65-7.299-1.87-11.643-4.86-25.893-13.58-42.333-25.89-.421 16.98 4.132 29.13 13.551 36.14 7.042 5.47 23.85 11.99 49.98 19.41 5.04 1.24 8.36 5.35 7.82 9.76-.42 3.45-3.37 6.93-9.011 6.93-.429 0-.885 0-1.52-.1-13.936-1.76-27.06-5.14-39.083-10.04 2.286 11.72 7.774 18.88 16.736 21.83 4.68 1.43 19.55 2.39 36.978 2.39 16.58 0 24.34 4.69 30.26 9.77l.89.78c1.48 1.27 3.33 3.05 5.62 5.41 5.29-15.57 18.59-24.47 38.59-25.78h.43z"/><path d="m157.425 426.882-.6-.52v-135.78c0-17.85 8.93-27.47 26.8-28.83l.73.1c17.38 1.57 26.07 11.15 26.07 28.77v135.78l-.6.52c-6.61 5.6-15.35 8.4-26.2 8.4-10.86 0-19.59-2.8-26.2-8.4zm-22.83-140.58c4.41 4.68 8.82 9.97 13.23 15.86v113.09c-4.84-.55-9.25-2.73-13.23-6.58zm98.04 0v122.37c-3.97 3.85-8.38 6.03-13.22 6.58v-113.09c4.41-5.89 8.82-11.18 13.22-15.86m-121.96-12.62c4.51 0 9.02 1.4 13.52 4.21v121.32c-5.27-2.1-9.78-5.51-13.52-10.24zm145.88 0v115.29c-3.73 4.73-8.24 8.14-13.52 10.24v-121.32c4.51-2.81 9.02-4.21 13.52-4.21m-206.053-12.93c3.826 5.99 8.321 9.41 13.49 10.28 5.168.86 17.443 1.75 36.823 2.65v100.39c-32.883-28.41-54.964-63.11-66.248-104.12 6.458-.29 11.772-3.35 15.938-9.2zm266.233 0c4.17 5.85 9.48 8.91 15.94 9.2-11.29 41.01-33.37 75.71-66.25 104.12v-100.39c19.38-.9 31.66-1.79 36.83-2.65 5.16-.86 9.66-4.29 13.48-10.28m-159.34-55.93-.57-.4V23.576c6.21-5.713 14.5-8.664 24.89-8.859h3.81c10.39.195 18.68 3.146 24.89 8.859v180.846l-.57.4c-6.19 4.28-14.93 6.41-26.22 6.41s-20.03-2.13-26.23-6.41m-9.57-156.892v149.912c-6.34-4.61-10.75-12.67-13.23-24.17V69.379q2.94-15.371 13.23-21.447Zm71.59 0c6.87 4.052 11.27 11.202 13.22 21.449v104.303c-2.47 11.49-6.88 19.55-13.22 24.16V47.932Zm-95.22 35.526v68.666c-4.47-3.05-8.98-6.06-13.51-9.01v-37.49c0-10.45 4.5-17.833 13.51-22.166m118.84 0c9.02 4.333 13.52 11.716 13.52 22.166v37.48a858 858 0 0 0-13.52 9.02zm-95.21-55.138v9.011c-13.89 6.202-21.76 17.418-23.63 33.647-15.47 8.171-23.19 18.811-23.15 31.916v35.71c-24.049-13.31-46.102-27.8-66.144-43.48l-2.218-1.752V65.292c29.396-19.531 67.772-31.859 115.142-36.976zm71.59 0c47.37 5.118 85.75 17.445 115.15 36.977v28.076l-2.22 1.741c-20.04 15.69-42.1 30.18-66.15 43.48v-35.7c0-13.104-7.68-23.743-23.16-31.915-1.86-16.229-9.74-27.443-23.63-33.646v-9.015z"/></svg>