<svg xmlns="http://www.w3.org/2000/svg" xml:space="preserve" width="367.249" height="449.997"><g transform="translate(-3.891 -5.193)"><path d="M229.03 438.27v-3.9c11.41-2.55 22.23-14.25 22.23-14.25v-1.6c12.57-3.13 23.92-19.25 23.92-19.25v-4.74l4.78-4.12c34.96-30.22 60.32-66.71 75.09-126.68 0 0-14.47 2.3-23.03-7.2 3.3-6.85 6.34-16.07 6.32-29.11 16.48-12.8 23.18-34.29 19.66-63.71l-.63-5.3c3.99-4.98 6.83-9.86 8.6-14.69 3.35-9.2 5.17-18.48 5.17-27.76 0-26.287-9.73-43.72-9.73-43.72-3.34 3.678-8.23 7.229-8.23 7.229V62.594c-26.91-22.074-78.52-38.29-127.82-43.668 0 0-12.98-13.733-37.84-13.733-24.87 0-37.85 13.733-37.85 13.733-49.3 5.378-100.9 21.594-127.816 43.668v16.875s-4.891-3.551-8.218-7.229c0 0-9.745 17.433-9.745 43.72 0 9.28 1.824 18.55 5.177 27.76 1.765 4.83 4.608 9.71 8.603 14.69l-.633 5.3c-3.522 29.42 3.171 50.91 19.657 63.7-.02 13.05 3.021 22.27 6.333 29.12-8.569 9.5-23.038 7.2-23.038 7.2 14.763 59.97 40.12 96.46 75.089 126.68l4.772 4.12v4.74s11.349 16.12 23.919 19.25v1.59s10.82 11.71 22.23 14.26v3.9s15.45 16.92 41.51 16.92c26.07 0 41.52-16.92 41.52-16.92" style="fill:#fff;fill-opacity:1"/><path fill="#fff" d="M151.72 289.68c-5.64-6.25-9.75-10.48-12.34-12.69l-.3-.27-.62-.54c-5.29-4.53-11.81-8.42-26.67-8.42-13.973 0-32.148-.67-38.589-2.63-13.398-4.42-20.621-16.42-21.671-36.01q20.863 10.35 46.288 13.56c6.062.56 5.612-4.67.701-5.88-27.02-7.67-44.337-14.45-51.955-20.37q-19.292-14.355-14.913-50.97c19.591 15.39 35.989 25.85 49.19 31.36 9.883 4.68 11.347-3.14 0-9.03-33.645-19.08-52.958-35.45-57.944-49.12q-7.48-20.506-1.927-40.977 50.61 40.974 95.04 64.057c5.44 2.86 8.84 5.36 10.17 7.49 1.81 3.31 1.91 8.02 1.91 12.54 0 21.26 27.12 44.45 59.42 44.45h.97c31.87-.46 58.45-23.41 58.45-44.45 0-4.52.1-9.23 1.91-12.54 1.33-2.13 4.72-4.63 10.17-7.49q44.43-23.083 95.04-64.056 5.565 20.47-1.92 40.976c-4.98 13.67-24.31 30.04-57.95 49.13-11.34 5.88-9.88 13.7 0 9.03 13.2-5.52 29.6-15.98 49.19-31.37 2.92 24.41-2.05 41.4-14.92 50.97-7.61 5.92-24.93 12.71-51.95 20.37-4.91 1.21-5.36 6.44.71 5.88 16.95-2.14 32.37-6.66 46.29-13.56-1.06 19.59-8.28 31.59-21.68 36.01-4.25 1.3-13.61 2.03-23.51 2.38l-1.8.1c-4.52.15-9.09.2-13.28.2-15.74 0-22.12 4.35-27.59 9.23q-3.885 3.315-12.33 12.69c-2-19.74-13.93-30.32-35.8-31.75-21.87 1.43-33.8 12.01-35.79 31.75z"/><linearGradient id="a" x1="36.573" x2="338.46" y1="230.19" y2="230.19" gradientUnits="userSpaceOnUse"><stop offset="0" style="stop-color:#612c75"/><stop offset=".079" style="stop-color:#653279"/><stop offset=".182" style="stop-color:#714285"/><stop offset=".25" style="stop-color:#7b5190"/><stop offset=".279" style="stop-color:#8c639d"/><stop offset=".326" style="stop-color:#a37bae"/><stop offset=".376" style="stop-color:#b38cba"/><stop offset=".431" style="stop-color:#bc96c1"/><stop offset=".5" style="stop-color:#bf99c3"/><stop offset=".569" style="stop-color:#bc96c1"/><stop offset=".624" style="stop-color:#b38cba"/><stop offset=".674" style="stop-color:#a37bae"/><stop offset=".721" style="stop-color:#8c639d"/><stop offset=".75" style="stop-color:#7b5190"/><stop offset=".835" style="stop-color:#6d3d81"/><stop offset=".919" style="stop-color:#643078"/><stop offset="1" style="stop-color:#612c75"/></linearGradient><path fill="url(#a)" d="m161.31 432.08-.59-.52V295.78c0-17.86 8.93-27.48 26.79-28.84l.73.1c17.38 1.57 26.07 11.16 26.07 28.78V431.6l-.6.52c-6.61 5.59-15.34 8.39-26.2 8.39-10.85 0-19.59-2.8-26.2-8.39zm-22.82-140.59c4.41 4.68 8.82 9.97 13.22 15.86v113.09c-4.83-.55-9.24-2.73-13.22-6.57zm98.04 0v122.38c-3.98 3.84-8.38 6.02-13.22 6.57V307.35c4.4-5.89 8.82-11.18 13.22-15.86m-121.96-12.62c4.5 0 9.01 1.41 13.52 4.22V404.4c-5.28-2.09-9.78-5.5-13.52-10.24zm145.88 0v115.29c-3.74 4.74-8.24 8.15-13.52 10.24V283.09c4.51-2.81 9.01-4.22 13.52-4.22M54.393 265.95c3.826 5.98 8.321 9.41 13.489 10.27s17.442 1.75 36.818 2.65v100.4c-32.876-28.42-54.959-63.12-66.244-104.13 6.46-.28 11.773-3.35 15.939-9.19zm266.227 0c4.18 5.85 9.49 8.91 15.95 9.19-11.29 41.01-33.37 75.71-66.25 104.13v-100.4c19.37-.9 31.65-1.79 36.82-2.65s9.67-4.29 13.48-10.27m-159.34-55.94-.57-.4V28.769c6.22-5.713 14.51-8.662 24.89-8.859h3.82c10.39.198 18.68 3.146 24.89 8.859V209.61l-.57.4c-6.19 4.28-14.93 6.42-26.23 6.42q-16.935 0-26.22-6.42zm-9.56-156.886V203.03c-6.35-4.61-10.75-12.66-13.23-24.16V74.574c1.95-10.248 6.36-17.398 13.22-21.445zm71.59 0c6.86 4.052 11.27 11.202 13.22 21.45V178.87c-2.47 11.5-6.88 19.55-13.22 24.17V53.128Zm-95.22 35.525v68.661a814 814 0 0 0-13.52-9.01v-37.48c0-10.46 4.5-17.838 13.52-22.171m118.84 0c9.02 4.333 13.52 11.711 13.52 22.161v37.49a814 814 0 0 0-13.52 9.01zm-95.21-55.138v9.013c-13.89 6.196-21.77 17.416-23.63 33.645-15.48 8.169-23.2 18.813-23.16 31.921v35.7c-24.042-13.31-46.096-27.8-66.138-43.48l-2.219-1.747V70.486C65.97 50.957 104.35 38.626 151.72 33.511m71.59 0c47.37 5.12 85.75 17.446 115.15 36.976v28.077l-2.23 1.746c-20.04 15.68-42.09 30.18-66.15 43.48v-35.7c0-13.107-7.68-23.751-23.15-31.92-1.87-16.229-9.74-27.439-23.63-33.645v-9.014z" style="fill:url(#a)"/></g></svg>