<svg xmlns="http://www.w3.org/2000/svg" xml:space="preserve" width="1000" height="1000" style="clip-rule:evenodd;fill-rule:evenodd;stroke-linejoin:round;stroke-miterlimit:2"><path d="M2138.44 0h1000v1000h-1000z" style="fill:none" transform="translate(-2138.44)"/><circle cx="490.934" cy="487.172" r="509.066" transform="matrix(.9798 0 0 .97876 19.01 23.057)"/><circle cx="490.934" cy="487.172" r="509.066" style="fill:url(#a)" transform="matrix(.91186 0 0 .91255 50.68 56.206)"/><path d="M240.335 784.908c-.076-.158.172-.882 6.078-3.785 7.052-3.466 19.962-2.45 19.962-2.45l8.871-7.722c-.96-12.084 17.667-18.161 17.667-18.321 0 .16 16.55-.9 16.55-.9s2.311-.087 9.354-9.142 13.164-11.235 13.164-11.235 7.21-.923 3.605-3.69-.922-12.157-.922-12.157c5.785-7.043 11.57-7.798 11.57-7.798s26.244-5.534 53.83 7.379c27.584 12.912 31.357 30.1 31.357 30.1l-17.524-9.642s-3.689-3.102-17.02-6.372c-13.332-3.27-19.788-1.258-25.405 0-5.618 1.257-5.534 3.773-5.534 3.773l1.761 1.928c2.767 2.515 0 5.45 0 5.45l-7.21 5.953s-1.259 3.27.167 4.528 3.857-.42 3.857-.42l10.816-4.946 6.54-4.444s9.558-4.528 18.613-2.18 18.485 13.53 18.485 13.53c13.605 16.116 14.53 21.135 14.53 21.135 7.397 27.872-3.7 33.919-3.7 33.919-5.97-34.579-28.783-43.606-28.783-43.606-10.453 3.038-15.546-1.251-15.546-1.251-4.467 9.113-17.868 8.319-17.868 8.319-17.6 27.706-40.829 5.897-40.829 5.897l-1.287 5.88c-2.738 5.154-9.412 7.032-9.412 7.032l-9.019.644s-8.214 7.087-11.113 8.375-6.442 0-6.442 0l-3.71-1.343c-8.678 8.22-16.4 10.197-16.4 10.197-2.284 1.594-7.287.025-7.287.025-7.224 28.453-31.492 11.599-31.492 11.599-26.696 15.456-62.935 6.346-62.935 6.346C21.701 743.549 32.845 508.282 34.14 510.611s8.52 6.82 9.517 13.973c.998 7.153 6.321.666 6.321.666l8.151-15.471V490.15c-.332-1.33 2.662-9.149 8.817-6.321S78.257 497.47 79.756 500c1.496 2.53 6.153 10.445 10.312 15.102 4.16 4.658 3.66-.998 3.66-6.82s.332-5.822-3.16-14.472c-3.494-8.65 2.328-12.809 6.487-11.811 4.158.998 15.304 15.637 16.135 18.777s5.324 3.514 6.155 0-3.493-9.96-3.493-9.96-7.153-14.473-9.315-18.299 4.657-9.315 8.317-7.319 10.48 7.985 12.476 12.476 4.325 2.163 4.325 2.163 5.822-5.656 9.315-12.643c3.494-6.986.832-14.472.832-14.472s-2.162-4.491-7.319-17.649c-4.674-11.924 14.805-10.978 14.805-10.978 4.99-.5 11.977 10.646 11.977 10.646 1.331 3.493 8.484 2.828 7.153-4.824-1.33-7.652-5.822-13.641-5.822-13.641-5.157-10.147-8.318-16.302-8.318-16.302-3.493-5.323 3.826-9.315 13.807-6.155 9.981 3.161 16.252 12.29 16.252 12.29s4.454 2.818 7.09 2.545-3.636-10.181-3.636-10.181-7.908-11.907-10.725-21.613c-2.818-9.707 4.363-8.363 8.09-7.727 3.726.637 11.271 8.726 11.271 8.726 7.726 2.364 2.908-4.181 2.908-4.181s-7.999-4.726-6.817-9.089-6.726-12.181-6.726-12.181c-14.635-13.634-10.09-20.475-10.09-20.475 2.454-8.635 10.181-6.544 18.361-4.181s17.543 9.181 19.18 9.908c1.636.727 6.998 1.272 6.998 1.272.273.637 9.636.728 6.363-7.271s-6.18-2.182-7.726-18.089c-1.545-15.907-5.999-16.179-13.362-21.542-7.362-5.363-8.27-9.908-4.454-14.18 3.818-4.272 12.18-4.381 21.997-2.927s24.906 13.725 24.906 13.725h12.18c5.181 4.273 15.09 2.818 15.09 2.818 7.453-1.181 6.18-8.817 6.18-8.817-13.089-5.363-12.406-8.616-12.406-8.616v-9.96l-13.176-8.235c-21.803-5.882-11.45-16-11.45-16l17.411-10.587c14.901-4.157 26.124 9.423 26.124 9.423s10.663 11.878 25.177 15.629 7.743-4.063 7.743-4.063l-6.702-6.702v-15.694s-.486-.486-10.972-9.653-8.195-15.139-2.36-21.806c5.832-6.667 16.805 6.389 16.805 6.389l5.07 2.014c10.555.833 23.194 5.625 25.555 9.514s8.165 1.915 9.863.218c1.697-1.697 7.542-2.263 10.937-2.263s7.354-4.337 7.354-4.337c12.822-12.634 23.005-9.335 23.005-9.335h20.64c16.606-16.337 28.006-13.106 28.006-13.106s12.747 1.257 19.21-.269c6.462-1.526 9.155-4.309 9.155-4.309l12.657-11.489c13.195-12.029 23.518-1.975 23.518-1.975l20.107 19.838s15.44-.09 23.07 1.885c7.63 1.974 11.578 9.155 11.578 9.155 2.244 1.347 2.334 8.438 2.334 8.438 6.283 4.398 3.86 11.31 3.86 11.31-5.117 7.72-1.347 6.104-1.347 6.104 30.161-7.271 37.252 20.915 37.252 20.915l7.99 8.797c8.975 2.064 12.001 8.117 12.001 8.117l11.262 11.287c8.72-6.477 34.156 25.9 34.156 25.9l47.083 26.905 38.863 24.663 19.36 16.069c47.266 16.484 42.648 19.462 60.983 29.554s18.502 19.007 18.502 19.007c13.793 9.419 15.138 21.698 15.138 21.698 18.84 15.979 25.732 30.79 25.732 30.79 9.166 14.695 6.334 27.911 6.334 27.911-.105 0-11.929 25.113-28.147 47.61-16.219 22.496-28.147 3.348-28.67 3.348s0-9.417 0-9.417l-10.778-9.941c.628-7.952-2.197-4.499-2.197-4.499s-.419 4.081-7.953 4.709-6.906-7.743-6.906-7.743c1.256-8.267-1.674-5.965-1.674-5.965-6.487 22.393-15.59 9.104-15.59 9.104-3.035-8.58-4.5-5.651-4.5-5.651-5.546 7.22-14.544 3.139-13.603-2.511s-1.988-5.232-1.988-5.232c-4.813 1.151-10.15 5.651-10.15 5.651h-33.274c-21.346-9.836-30.449-10.673-30.449-10.673-7.324-4.5-26.996-7.115-26.996-7.115s-4.185-2.93-20.195-7.639c-16.009-4.709-33.797-17.893-33.797-17.893-24.276-3.976-25.027-8.894-25.027-8.894-13.165-27.1-37.669-12.765-37.669-12.765-31.878-3.041-27.31-9.104-41.436-8.999-13.462.1-31.914 14.858-31.914 14.858 15.067 6.488 26.263 19.881 26.263 19.881s10.673 11.719 12.766 14.335 3.348 11.406 3.348 11.406l8.267 22.496c2.825 14.022-11.615 9.522-11.615 9.522s-7.115-4.394-9.313-8.58c-2.197-4.185-3.662-.314-3.662-.314l-.857 2.761c-7.11 9.92-3.504 10.519-3.504 10.519 6.313 6.312 6.313 9.586 6.313 9.586l1.17 13.561 2.103 14.262c4.442-.468 9.586 17.536 17.068 27.122s18.938 16.6 18.938 16.6l11.691 11.457 12.358 12.576c8.544 11.856 32.432 32.432 38.71 36.965 6.276 4.534 24.236 13.95 34.175 16.914 9.94 2.964 31.386 12.031 31.386 12.031 31.91 22.668 0 29.642 0 29.642-12.206 4.708-29.642 4.185-29.642 4.185s-4.708 4.534-38.012.698-45.336-18.832-45.336-18.832c-2.44-4.533-19.877-18.483-19.877-18.483-14.647-8.892-25.458-23.191-25.458-23.191-11.159-17.262-43.592-34.873-59.982-40.801s-41.499-22.145-67.654-36.792c-26.155-14.646-44.638-35.222-45.859-39.232-1.22-4.011-15.344-55.449-18.482-46.033s-2.79 16.391-2.79 16.391c.174 9.59-4.534 10.113-4.534 10.113v8.021C328.241 557.35 319 590.305 319 590.305c2.79-19.006 5.928-85.265 3.487-70.618-2.255 13.53-6.147 22.299-6.727 23.557.105-.744.222-4.441-.422-21.814-.872-23.539-4.533-9.939-4.533-9.939 1.395 5.754-6.103 60.331-6.103 60.331-3.139 10.462-13.6 39.93-13.6 39.93s7.671-102.179-4.883-61.853-39.38 89.571-39.38 89.571c5.378-14.217 12.167-53.667 12.167-53.667-.513-8.325-3.203-2.951-3.203-2.951-5.25 8.32-11.27 27.666-11.27 27.666v22.927l-1.794-6.532c-.384-4.099-4.61-2.736-4.61-2.736-17.933 11.739-38.298 68.909-38.298 68.909s-.128-9.606.897-18.572 8.453-28.562 12.936-40.602 16.523-29.331 16.523-29.331c1.665-2.05 1.024-8.838 1.024-8.838-7.813-11.784-11.27-21.006-11.27-21.006-1.538-8.069-3.203-4.355-3.203-4.355-5.508 22.286-7.557 52.386-7.557 52.386l-2.177 7.301c-14.602 7.556-29.075 65.194-29.075 65.194l.512-22.415.384-9.222.77-10.759s4.866-21.261 4.994-31.508-2.562-32.661-4.483-37.272-4.355-.897-4.355-.897 1.922 14.858 0 26.898c-1.92 12.039-7.557 10.63-7.557 10.63-27.922-1.024-23.695 33.046-23.695 33.046 9.478 6.148 21.774 35.095 21.774 35.095-17.163-13.961-24.464-12.552-24.464-12.552-4.61 3.074-2.946 36.503-2.946 36.503l4.996 12.937 6.148 1.537 15.37 14.601c1.41-9.478 8.453-18.7 8.453-18.7 18.316-25.488 22.16-.256 22.16-.256l2.56 2.177 3.971 1.537 4.227 1.025 3.074.769 4.354.896 3.46-.384c6.66-2.562 17.89-1.229 17.89-1.229 3.97-12.655 22.084-10.256 22.084-10.256 7.527-7.528 15.385-7.197 15.385-7.197-.083-5.211 13.731-11.586 13.731-11.586-11.994-17.954.992-31.514.992-31.514-7.858-1.406-10.505-14.558-7.444-24.483 3.06-9.926 12.903-10.174 12.903-10.174-.909-3.061-.33-6.039-.33-6.039 5.211-6.948 19.436-9.383 19.436-9.383 42.86-8.007 58.872 18.368 58.872 18.368-44.429-10.048-50.058 6.839-50.058 6.839-12.155.935-9.378 3.581-9.378 3.581 2.725 5.364-1.362 5.62-1.788 10.217s6.7 3.902 6.7 3.902c.748-8.232 13.346-13.548 13.346-13.548 57.126-13.055 72.494 32.968 72.494 32.968-27.87-23.076-54.964-16.713-54.964-16.713-9.895 10.976-14.634 12.223-14.634 12.223-2.079 2.328-3.909 2.744-3.909 2.744-4.24 14.053-6.984 14.468-6.984 14.468-2.578 3.576-9.397 1.913-9.397 1.913-1.496 1.33-1.496 4.074-1.496 4.074 4.49 2.246 2.661 20.373 2.661 20.373 2.494 8.731-6.237 11.514-6.237 11.514.25 20.079-21.702 13.637-21.702 13.637-3.493 4.158-14.386 1.309-14.386 1.309-10.643 16.276-26.692 3.326-26.692 3.326-7.483 11.309-24.613 6.735-24.613 6.735l-8.897 10.062-.249 21.619s-10.836 13.251 1.63-1.81c12.09-14.606 26.851-.828 27.733.019.014.031.041.04.041.04zM88.271 651.262c.24.331.367.526.367.526s-.132-.186-.367-.526c-1.194-1.647-5.205-6.641-10.468-7.487-6.32-1.015-1.24 12.415-1.24 12.415l1.692 3.611 39.161 39.162v-40.742c-3.16-14.446-8.238-8.69-8.238-8.69S88.3 626.847 84.236 622.332c-4.063-4.514-6.207.79-6.207.79s-3.273 2.37-1.129 8.69c1.894 5.581 9.596 16.883 11.371 19.45M610.02 323.638l-.02 19.746s2.195 1.136 2.796 3.941 3.906 4.006 3.906 4.006 2.204.501 2.604 4.206c1.097 10.141-8.313 14.423-8.313 14.423s-7.31 3.506-9.114 12.921c-1.803 9.414 10.817 15.224 10.817 15.224 9.915 1.302 8.413 13.22 8.413 13.22 15.725 4.608 17.127 16.226 17.127 16.226 2.905.801 9.715 7.011 18.33 7.412 8.613.4 22.835-13.622 22.835-13.622s11.118-8.914 15.725-16.326c4.607-7.411 6.911-14.022 3.806-25.84-3.105-11.819-27.143-30.048-27.143-30.048l-15.694-15.366c-5.934-11.519-7.33-11.17-10.472-18.5-3.14-7.33-14.66-16.755-14.66-16.755s-10.82-3.839-15.358-.349-9.076 4.538-9.076 13.613c0 9.076 3.491 11.868 3.491 11.868M112.426 593.402l.823 33.593s1.318 2.47.33 5.435c0 0 3.128 3.622 5.27 3.458 2.14-.165 5.27-3.458 5.27-3.458s4.116-9.058 5.598-15.809c1.482-6.752-1.153-18.773-1.153-18.773s-1.318-7.904-8.893-9.222-7.245 3.788-7.245 4.776m428.592-286.635c3.683 8.594-12.279 14.242-12.279 14.242-1.227-.982-25.538 14.734-20.136 29.222s16.453 18.418 16.453 18.418 11.05 9.086 21.364 4.174c10.314-4.911 13.997-13.506 13.997-13.506 3.684-11.05 8.84-15.716 8.84-15.716l11.296-16.207c6.63-15.716 2.701-19.891 1.228-32.169s-8.595-27.012-12.524-36.343-11.54-18.663-27.012-13.261c-15.47 5.403-21.118 21.61-16.944 34.134 4.175 12.524 15.717 27.012 15.717 27.012M238.106 551.076s0 8.039-.915 12.417a1619 1619 0 0 1-2.222 10.391l.131 11.96s.13 5.104 3.921 6.862c3.79 1.757 8.365-10.333 10.456-15.235s.066-13.658.066-13.658-.915-3.529 1.7-5.294c0 0 3.854-9.214-4.576-12.155s-8.56 4.712-8.56 4.712M87.89 604.106s7.575 8.069 12.186 15.479c0 0 3.623 1.976 4.776 0 0 0 2.141-1.153 2.635-4.94s1.646-13.174-8.234-18.279c0 0-12.35-3.788-11.363 7.74m602.822-165.624s15.767 8.934 18.657 9.065 31.928.132 33.504.263c1.577.132 16.555-2.365 11.957-16.029-4.599-13.665-21.548-25.096-32.979-23.125-11.43 1.971-21.285 3.285-32.453 12.614-11.168 9.328 1.314 17.212 1.314 17.212"/><path d="M546.6 543.05s-6.513 11.701-13.429 13.428c0 0-6.567 2.497 1.127 7.323 0 0 1.26 2.411 9.652-10.389 0 0 1.241-2.328 2.65-10.362M533.53 537.115s-10.493 10.142-8.395 12.8 2.238 3.007 2.238 3.007.98 1.679 3.847-4.686c0 0 .07-4.686 2.31-11.121M556.218 551.188s-3.477 10.177-11.195 13.994c-7.718 3.816-8.226 6.445-8.226 6.445s-2.206 3.138.593 4.834c2.8 1.697 5.767-.678 5.767-.678s2.29-1.357 8.227-8.736c5.937-7.378 4.834-15.859 4.834-15.859M568.288 566.571s-6.176 12.131-16.32 14.557c-10.146 2.426-9.043 9.924-9.043 9.924s.33 5.735 8.932-.22 16.431-24.261 16.431-24.261M585.711 574.07s-11.862 20.708-28.23 28.892c-.662.331-7.719 4.411 5.734 8.381 13.454 3.97 22.496-37.273 22.496-37.273M602.142 583.554s-15.679 25.379-28.34 35.288c-2.537 1.985 2.646 7.939 4.852 7.278 2.205-.662 12.494-15.403 23.488-42.566M614.018 606.345s-5.198 10.916-25.584 28.672c-3.418 2.977 10.256 11.358 14.446 5.183 4.191-6.176 9.925-25.805 11.138-33.855M636.404 613.734s-24.426 31.204-34.262 37.934c0 0 3.495 9.704 13.64 6.948 10.146-2.757 20.622-44.882 20.622-44.882M647.1 619.909s-19.298 38.713-27.827 44c-3.38 2.095 6.103 7.168 6.103 7.168s7.394-2.025 11.028-14.716c3.634-12.692 7.093-17.141 10.696-36.452M673.657 598.438s-4.59 21.711-9.99 27.733c-5.402 6.021-12.828 16.244-12.828 16.244s-6.886 9.49-9.046 14.351c-2.16 4.86-.945 8.506-.945 8.506s3.645 4.32 9.316.27 8.101-7.696 8.101-7.696l5.131-8.641 3.645-7.696s3.241-.936 6.616-43.071M674.286 655.997s-1.414 4.798-13.358 11.278c-11.943 6.48-11 4.594-11 4.594s-11.472 5.186-11 8.486 4.243 4.243 4.243 4.243l8.8 1.257s1.894.472 5.111-3.929c3.218-4.4 12.332-9.743 17.204-25.929M705.716 629.282s-11 26.715-20.587 33.001c-4.055 2.659-5.713 7.233-8.91 10.774-4.362 4.829-9.694 8.682-10.419 11.855-1.257 5.5 2.93 7.344 3.743 7.994.814.649 4.43 1.435 10.086-2.808s8.643-10.843 8.643-10.843 11.315-13.81 17.444-49.973M710.932 655.331s-10.935 17.947-12.837 20.562c-1.9 2.614-12.098 13.426-12.454 17.529-.357 4.102 2.352 6.717 2.352 6.717s3.446 1.783 7.37-4.16c3.921-5.943 12.36-21.75 15.57-40.648M723.887 670.933s-8.082 11.497-14.144 19.579c-6.06 8.082-8.439 13.312-8.439 13.312s-3.446 11.885 7.607 7.25c0 0 6.418-2.566 14.976-40.141M611.455 479.613s-.53-7.854 4.317-7.37c2.105.211 1.263 2.843 1.263 2.843s-2.842 3.895-5.58 4.527M617.201 490.036s4.047-6.228 4.677-12.844c.211-2.211 5.16-3.369 5.053 1.158-.105 4.527-6.93 9.685-9.73 11.686M622.067 500.669s7.004-9.381 9.497-18.029c.842-2.922 6.948-2.606 4.948 3.29-2 5.895-11.834 14.528-14.445 14.739M631.564 510.67s4.722-2.699 12.107-20.634c1.474-3.58 5.264-1.474 5.264 2.948s-8.107 15.791-17.37 17.686M636.912 531.2s11.4-15.753 17.392-31.754c1.474-3.936 7.791-8.748 8.001.554.211 9.302-15.307 24.252-25.393 31.2M647.671 553.203s19.594-30.249 23.162-50.428c.947-5.359 10.633-2.622 10.633 2.116s-12.423 35.691-33.795 48.312M663.893 553.938s14.282-15.183 25.681-41.844c1.414-3.306 7.355-5.796 13.665.825 2.238 2.348-.707 9.298-3.416 11.89s-11.427 14.553-35.93 29.129M687.1 560.739s14.104-14.793 25.917-43.587c1.885-4.594 14.018-3.77 13.312 2.709s-18.613 28.288-39.229 40.878M712.781 563.08s9.18-22.634 21.323-41.938c4.123-6.554 12.84.161 12.722 2.281-.117 2.121 3.335.113-34.045 39.657M727.081 572.95s2.44-2.266 8.366-15.338 13.595-26.264 13.595-26.264 5.606-9.146 4.531 4.826c-.697 9.063-6.708 16.209-6.708 16.209l-7.932 8.356s-9.064 11.34-11.852 12.211M742.973 574.479s10.413-10.725 12.62-23.8c.556-3.294.242-19.806 7.928-24.512s8.941.471 9.882 5.804-13.019 40.312-30.43 42.508M760.541 570.557s3.34-8.894 6.587-12.339c3.451-3.66 6.588-10.719 8.941-18.718s7.06-10.196 9.568-8.471c2.51 1.726.157 8.314-1.568 11.608s-5.804 11.293-8.784 13.96-15.372 14.431-14.744 13.96M764.787 579.373s10.743-8.356 18.171-23.476 9.947-19.894 9.947-19.894 5.836-12.865 14.987-2.388c0 0 6.366 7.295-5.57 20.16s-12.468 11.274-12.468 11.274-22.945 14.589-25.067 14.324M799.96 569.51s10.527-16.062 11.721-23.55c1.194-7.489 9.767-10.744 9.767-10.744s7.706-2.279 5.101 8.031c-2.605 10.309-19.643 21.813-26.589 26.263M814.757 567.544s9.782-9.863 11.192-12.809c1.411-2.947 5.701-12.682 11.887-16.264 0 0 8.277-1.346 1.922 8.953-3.147 5.101-7.132 7.977-7.132 7.977s-15.916 14.314-17.869 12.143M807.552 584.097s13.722-7.567 28.05-23.912c0 0 9.575-13.883 12.683-9.192 3.107 4.692 5.114 6.946 2.924 11.638-.853 1.827-9.566 7.981-9.566 7.981s-22.729 12.713-34.09 13.485"/><defs><linearGradient id="a" x1="0" x2="1" y1="0" y2="0" gradientTransform="matrix(780.831 876.798 -878.132 780.831 127.899 50.931)" gradientUnits="userSpaceOnUse"><stop offset="0" style="stop-color:#626e77;stop-opacity:1"/><stop offset=".04" style="stop-color:#697780;stop-opacity:1"/><stop offset=".11" style="stop-color:#7d8e98;stop-opacity:1"/><stop offset=".2" style="stop-color:#9eb4c0;stop-opacity:1"/><stop offset=".2" style="stop-color:#a1b7c3;stop-opacity:1"/><stop offset=".29" style="stop-color:#adc6d4;stop-opacity:1"/><stop offset=".38" style="stop-color:#b5cede;stop-opacity:1"/><stop offset=".5" style="stop-color:#b7d1e1;stop-opacity:1"/><stop offset=".62" style="stop-color:#b5cede;stop-opacity:1"/><stop offset=".71" style="stop-color:#adc6d4;stop-opacity:1"/><stop offset=".8" style="stop-color:#a1b7c3;stop-opacity:1"/><stop offset=".8" style="stop-color:#a0b6c2;stop-opacity:1"/><stop offset=".85" style="stop-color:#8b9da8;stop-opacity:1"/><stop offset=".91" style="stop-color:#74838d;stop-opacity:1"/><stop offset=".96" style="stop-color:#67747d;stop-opacity:1"/><stop offset="1" style="stop-color:#626e77;stop-opacity:1"/></linearGradient></defs></svg>