<?xml version="1.0" encoding="UTF-8" standalone="no"?>
<!DOCTYPE svg PUBLIC "-//W3C//DTD SVG 1.1//EN" "http://www.w3.org/Graphics/SVG/1.1/DTD/svg11.dtd">
<svg width="100%" height="100%" viewBox="0 0 1000 1000" version="1.1" xmlns="http://www.w3.org/2000/svg" xmlns:xlink="http://www.w3.org/1999/xlink" xml:space="preserve" xmlns:serif="http://www.serif.com/" style="fill-rule:evenodd;clip-rule:evenodd;stroke-linejoin:round;stroke-miterlimit:2;">
    <g id="C" transform="matrix(1,0,0,1,-0.94518,1.89036)">
        <rect x="0.945" y="-1.89" width="1000" height="1000" style="fill:none;"/>
        <clipPath id="_clip1">
            <rect x="0.945" y="-1.89" width="1000" height="1000"/>
        </clipPath>
        <g clip-path="url(#_clip1)">
            <g transform="matrix(1,0,0,1,-3623.05,-1.89036)">
                <path d="M3993.12,377.039L3796.86,140.035C3796.86,140.035 3912.61,0.176 4116.12,0C4319.64,-0.176 4448.64,103.824 4450.64,272.824C4452.64,441.824 4324.64,553.824 4196.64,605.824L4151.64,710.824L4278.64,839.824L4115.29,1000L3953.49,838.279L4080.67,710.967L3990.15,515.847C3990.15,515.847 4146.29,473.631 4170.28,348.058C4194.28,222.486 4152.69,128.107 4098.3,139.305C4043.91,150.502 3993.52,184.095 4038.31,331.262L3993.12,377.039Z" style="fill:white;"/>
            </g>
            <g transform="matrix(1,0,0,1,-3623.05,-1.89036)">
                <path d="M4115.09,730.073L4224.06,838.106L4114.39,947.073L4007.02,839.879L4115.09,730.073Z"/>
            </g>
            <g transform="matrix(1,0,0,1,-3623.05,-1.89036)">
                <path d="M3994.96,320.44L3847.48,144.889C3847.48,144.889 3946.27,36.752 4115.54,37.461C4284.81,38.171 4417.49,121.896 4411.11,271.608C4404.72,421.319 4342.28,494.401 4167.03,578.836L4115.54,700.574L4040.04,536.515C4040.04,536.515 4223.36,483.022 4214.22,283.117C4214.22,283.117 4225,106.638 4104,99.638C3983,92.638 3971.1,250.643 3994.96,320.44Z"/>
            </g>
        </g>
    </g>
</svg>
