<?xml version="1.0" encoding="UTF-8" standalone="no"?>
<!DOCTYPE svg PUBLIC "-//W3C//DTD SVG 1.1//EN" "http://www.w3.org/Graphics/SVG/1.1/DTD/svg11.dtd">
<svg width="100%" height="100%" viewBox="0 0 1000 1000" version="1.1" xmlns="http://www.w3.org/2000/svg" xmlns:xlink="http://www.w3.org/1999/xlink" xml:space="preserve" xmlns:serif="http://www.serif.com/" style="fill-rule:evenodd;clip-rule:evenodd;stroke-linejoin:round;stroke-miterlimit:2;">
    <g transform="matrix(1,0,0,1,-1208,0)">
        <g id="U" transform="matrix(1,0,0,1,-0.333333,0)">
            <rect x="1208.33" y="0" width="1000" height="1000" style="fill:none;"/>
            <clipPath id="_clip1">
                <rect x="1208.33" y="0" width="1000" height="1000"/>
            </clipPath>
            <g clip-path="url(#_clip1)">
                <g transform="matrix(1,0,0,1,-2415.67,0)">
                    <path d="M3993.12,377.039L3796.86,140.035C3796.86,140.035 3912.61,0.176 4116.12,0C4319.64,-0.176 4448.64,103.824 4450.64,272.824C4452.64,441.824 4324.64,553.824 4196.64,605.824L4151.64,710.824L4278.64,839.824L4115.29,1000L3953.49,838.279L4080.67,710.967L3990.15,515.847C3990.15,515.847 4146.29,473.631 4170.28,348.058C4194.28,222.486 4152.69,128.107 4098.3,139.305C4043.91,150.502 3993.52,184.095 4038.31,331.262L3993.12,377.039Z"/>
                </g>
                <g transform="matrix(1,0,0,1,-2415.67,0)">
                    <path d="M4115.09,730.073L4224.06,838.106L4114.39,947.073L4007.02,839.879L4115.09,730.073Z" style="fill:url(#_Linear2);"/>
                </g>
                <g transform="matrix(1,0,0,1,-2415.67,0)">
                    <path d="M3994.96,320.44L3847.48,144.889C3847.48,144.889 3946.27,36.752 4115.54,37.461C4284.81,38.171 4417.49,121.896 4411.11,271.608C4404.72,421.319 4342.28,494.401 4167.03,578.836L4115.54,700.574L4040.04,536.515C4040.04,536.515 4223.36,483.022 4214.22,283.117C4214.22,283.117 4225,106.638 4104,99.638C3983,92.638 3971.1,250.643 3994.96,320.44Z" style="fill:url(#_Linear3);"/>
                </g>
            </g>
        </g>
    </g>
    <defs>
        <linearGradient id="_Linear2" x1="0" y1="0" x2="1" y2="0" gradientUnits="userSpaceOnUse" gradientTransform="matrix(-556.366,-291.529,291.529,-556.366,4272.46,862.775)"><stop offset="0" style="stop-color:rgb(98,110,119);stop-opacity:1"/><stop offset="0.04" style="stop-color:rgb(105,119,128);stop-opacity:1"/><stop offset="0.11" style="stop-color:rgb(125,142,152);stop-opacity:1"/><stop offset="0.2" style="stop-color:rgb(158,180,192);stop-opacity:1"/><stop offset="0.2" style="stop-color:rgb(161,183,195);stop-opacity:1"/><stop offset="0.29" style="stop-color:rgb(173,198,212);stop-opacity:1"/><stop offset="0.38" style="stop-color:rgb(181,206,222);stop-opacity:1"/><stop offset="0.5" style="stop-color:rgb(183,209,225);stop-opacity:1"/><stop offset="0.62" style="stop-color:rgb(181,206,222);stop-opacity:1"/><stop offset="0.71" style="stop-color:rgb(173,198,212);stop-opacity:1"/><stop offset="0.8" style="stop-color:rgb(161,183,195);stop-opacity:1"/><stop offset="0.8" style="stop-color:rgb(160,182,194);stop-opacity:1"/><stop offset="0.85" style="stop-color:rgb(139,157,168);stop-opacity:1"/><stop offset="0.91" style="stop-color:rgb(116,131,141);stop-opacity:1"/><stop offset="0.96" style="stop-color:rgb(103,116,125);stop-opacity:1"/><stop offset="1" style="stop-color:rgb(98,110,119);stop-opacity:1"/></linearGradient>
        <linearGradient id="_Linear3" x1="0" y1="0" x2="1" y2="0" gradientUnits="userSpaceOnUse" gradientTransform="matrix(671.072,473.686,-473.686,671.072,3952.93,-104.671)"><stop offset="0" style="stop-color:rgb(98,110,119);stop-opacity:1"/><stop offset="0.04" style="stop-color:rgb(105,119,128);stop-opacity:1"/><stop offset="0.11" style="stop-color:rgb(125,142,152);stop-opacity:1"/><stop offset="0.2" style="stop-color:rgb(158,180,192);stop-opacity:1"/><stop offset="0.2" style="stop-color:rgb(161,183,195);stop-opacity:1"/><stop offset="0.29" style="stop-color:rgb(173,198,212);stop-opacity:1"/><stop offset="0.38" style="stop-color:rgb(181,206,222);stop-opacity:1"/><stop offset="0.5" style="stop-color:rgb(183,209,225);stop-opacity:1"/><stop offset="0.62" style="stop-color:rgb(181,206,222);stop-opacity:1"/><stop offset="0.71" style="stop-color:rgb(173,198,212);stop-opacity:1"/><stop offset="0.8" style="stop-color:rgb(161,183,195);stop-opacity:1"/><stop offset="0.8" style="stop-color:rgb(160,182,194);stop-opacity:1"/><stop offset="0.85" style="stop-color:rgb(139,157,168);stop-opacity:1"/><stop offset="0.91" style="stop-color:rgb(116,131,141);stop-opacity:1"/><stop offset="0.96" style="stop-color:rgb(103,116,125);stop-opacity:1"/><stop offset="1" style="stop-color:rgb(98,110,119);stop-opacity:1"/></linearGradient>
    </defs>
</svg>
