<?xml version="1.0" encoding="UTF-8" standalone="no"?>
<!DOCTYPE svg PUBLIC "-//W3C//DTD SVG 1.1//EN" "http://www.w3.org/Graphics/SVG/1.1/DTD/svg11.dtd">
<svg width="100%" height="100%" viewBox="0 0 1000 1000" version="1.1" xmlns="http://www.w3.org/2000/svg" xmlns:xlink="http://www.w3.org/1999/xlink" xml:space="preserve" xmlns:serif="http://www.serif.com/" style="fill-rule:evenodd;clip-rule:evenodd;stroke-linejoin:round;stroke-miterlimit:2;">
    <g transform="matrix(1,0,0,1,-4832,0)">
        <g id="WM" transform="matrix(1,0,0,1,-0.333333,0)">
            <rect x="4832.33" y="0" width="1000" height="1000" style="fill:none;"/>
            <g transform="matrix(1,0,0,1,1208.33,0)">
                <path d="M4115.09,730.073L4224.06,838.106L4114.39,947.073L4007.02,839.879L4115.09,730.073Z"/>
            </g>
            <g transform="matrix(1,0,0,1,1208.33,0)">
                <path d="M3994.96,320.44L3847.48,144.889C3847.48,144.889 3946.27,36.752 4115.54,37.461C4284.81,38.171 4417.49,121.896 4411.11,271.608C4404.72,421.319 4342.28,494.401 4167.03,578.836L4115.54,700.574L4040.04,536.515C4040.04,536.515 4223.36,483.022 4214.22,283.117C4214.22,283.117 4225,106.638 4104,99.638C3983,92.638 3971.1,250.643 3994.96,320.44Z"/>
            </g>
        </g>
    </g>
</svg>
