<?xml version="1.0" encoding="UTF-8" standalone="no"?>
<svg
   version="1.1"
   width="485.80615"
   height="226.08037"
   id="svg1"
   xmlns="http://www.w3.org/2000/svg"
   xmlns:svg="http://www.w3.org/2000/svg">
  <defs
     id="defs1" />
  <path
     d="M 40.633846,214.36616 107.63077,135.24923 225.75693,187.4677 135.57231,103.08923 175.67077,71.4277 101.82462,76.69847 41.178461,26.0677 54.876923,74.05847 H 0 l 62.778466,43.27384 z m 75.544624,-145.32 C 145.3477,52.92923 236.14154,7.89231 322.28308,19.21847 c 0,0 -75.57231,-1.72616 -169.21846,47.23384 l -37.32,2.85231 0.43421,-0.25846 z m 79.54153,-5.4 -15.17538,0.93231 C 289.86462,10.3477 386.64923,30.83077 386.64923,30.83077 269.75077,30.83077 190.2,72.84 157.07077,94.36616 Z m -43.0523,46.2923 C 302.99077,4.25539 447.84,48.7477 447.84,48.7477 279.44308,29.16923 179.20616,110.44616 165.64616,122.23385 Z M 185.16,140.22462 C 208.16308,122.02154 323.07693,39.6277 485.80616,68.79693 c 0,0 -151.51385,-56.82462 -312.69231,60.75692 z M 109.18154,64.00616 C 163.88308,25.45847 232.60616,17.09539 232.60616,17.09539 167.59385,20.26154 117.44308,42.5077 96.599996,53.36308 l -0.36037,0.14769 C 70.061166,31.76308 32.058092,0 32.058092,0 L 36.811938,14.20616 103.91963,70.2 115.38425,69.44308 c 0,0 -2.38154,-1.97538 -6.37846,-5.29846 l 0.17501,-0.13809 z m 9.26769,83.04 -67.790769,78.71077 -11.824615,0.32344 70.569234,-83.15077 9.04615,4.11693 z"
     id="path1" />
</svg>
