<?xml version="1.0" encoding="UTF-8" standalone="no"?>
<svg
   version="1.1"
   width="539.38336"
   height="614.03271"
   id="svg1"
   xmlns="http://www.w3.org/2000/svg"
   xmlns:svg="http://www.w3.org/2000/svg">
  <defs
     id="defs1" />
  <path
     d="m 414.99409,136.90335 c -54.81532,19.31186 -88.86828,24.97892 -146.98938,24.57413 -57.17658,-0.31978 -90.58863,-6.18991 -144.4763,-25.4849 C 113.1894,115.56755 106.79709,92.10659 106.79709,71.81649 h 325.85596 c 0,21.87553 -17.65896,65.08686 -17.65896,65.08686 m -65.15433,273.75612 c 51.71193,27.20526 85.3095,66.94215 85.3095,115.29769 0,7.11756 -0.65711,6.8477 -2.04082,16.141 h -67.465 c -46.38219,-34.59268 -78.4618,-91.51628 -78.4618,-167.80233 l -0.45471,-8.18013 c 0,0 28.72322,26.42941 63.11351,44.54377 m -97.43633,-34.06983 c 0,76.30292 -32.16394,133.29398 -78.6136,165.50852 h -67.39753 c -1.4505,-6.91516 -2.17575,-6.66217 -2.17575,-13.89779 0,-48.30494 33.7325,-88.09243 85.32636,-115.17963 34.59268,-18.11435 63.18098,-46.97251 63.18098,-46.97251 l -0.32114,10.54141 z M 539.38336,64.83386 V 7.31995 C 539.38336,3.28892 536.22937,0 532.19834,0 H 7.168827 C 3.222124,0 6.7e-4,3.28892 6.7e-4,7.31995 v 57.51391 c 0,3.81178 3.221454,7.0501 7.168157,7.0501 h 42.637881 l -0.06746,5.53213 c 0,65.87957 46.044865,114.57244 103.035922,144.61123 33.07471,17.27104 40.59706,38.28639 40.59706,77.61849 0,38.80924 -8.2476,60.93776 -41.64277,78.46179 -57.125987,29.97133 -103.120251,78.73166 -103.120251,144.54377 0,6.72964 0.472255,13.05448 1.33176,19.44679 H 7.168157 C 3.221454,542.09816 0,545.38708 0,549.33378 v 57.59825 c 0,3.87923 3.221454,7.10069 7.168157,7.10069 H 532.19766 c 4.03104,0 7.18503,-3.22146 7.18503,-7.10069 v -57.59825 c 0,-3.9467 -3.15399,-7.23562 -7.18503,-7.23562 h -43.80165 c 0.72458,-6.39231 1.31557,-12.71715 1.31557,-19.44679 0,-65.81211 -46.1292,-114.57244 -103.17086,-144.54377 -33.34457,-17.52403 -41.5753,-39.65255 -41.5753,-78.46179 0,-37.8816 8.75358,-59.75713 42.75594,-77.61849 57.05853,-29.97133 103.10339,-78.73166 103.10339,-144.61123 l -0.0675,-5.53213 h 41.50784 c 3.96357,0 7.11756,-3.23832 7.11756,-7.0501"
     id="path1" />
</svg>
