<svg xmlns="http://www.w3.org/2000/svg" xml:space="preserve" width="356.915" height="374.731" style="clip-rule:evenodd;fill-rule:evenodd;stroke-linejoin:round;stroke-miterlimit:2"><path d="M2397.32 353.843c-217.68 145.981-388.52 324.238-426.21 602.363 97.03 61.154 181.46 92.814 188.3 184.254v101.24l-133.63 127.56 416.09 400.89h164v-613.49l-89.98-89.22 89.98-86.94V565.429Zm496.55 0-208.55 211.586V980.5l89.98 86.94-89.98 89.22v613.49h164l416.09-400.89-133.63-127.56v-101.24c6.84-91.44 91.27-123.1 188.3-184.254-37.69-278.125-208.53-456.382-426.21-602.363" style="fill-rule:nonzero" transform="matrix(.26458 0 0 .26458 -521.522 -93.62)"/><path d="M2390.14 424.339c-167.08 106.185-323.9 284.159-360.38 502.745.08.043 94.86 56.174 128.77 90.086 33.93 33.93 54.92 80.8 54.92 132.58 0 50.63.62 73.75.65 74.78l80.2-80.21-76.99-76.99 78.34-78.349-160.14-160.146 277.74-277.734 140.22 140.215V586.052Zm510.91 0-163.33 161.713v105.264l140.23-140.215 277.73 277.734-160.14 160.146 78.35 78.349-77 76.99 80.21 80.21c.02-1.03.64-24.15.64-74.78 0-51.78 20.99-98.65 54.92-132.58 33.92-33.912 128.7-90.043 128.77-90.086-36.48-218.586-193.3-396.56-360.38-502.745m-487.01 163.064-241.06 241.061 161 160.999-78.21 78.207 78.21 78.21-161 161 241.06 241.05 139.43-139.43v-225.87l-115.77-115.76 115.77-115.769V726.832Zm463.11 0-139.43 139.429v224.269l115.77 115.769-115.77 115.76v225.87l139.43 139.43 241.06-241.05-161-161 78.21-78.21-78.21-78.207 161-160.999zm-463.18 129.17 112.5 112.494-112.5 112.495-112.49-112.495zm463.25 0 112.48 112.494-112.48 112.495-112.5-112.495zm-463.25 477.647 112.5 112.49-112.5 112.49-112.49-112.49zm463.25 0 112.48 112.49-112.48 112.49-112.5-112.49zm-725.5 131.18-44.65 46.24 287.48 277.62 67.29 64.98h91.63V1448.3l-139.43 139.43-189.4-189.39.01-.01zm987.75 0-72.93 72.93v.01l-189.4 189.39-139.43-139.43v265.94h91.63l67.29-64.98 287.49-277.62z" style="fill:url(#a);fill-rule:nonzero" transform="matrix(.26458 0 0 .26458 -521.522 -95.55)"/><path d="m2413.03 752.366-75.76 75.76 75.76 75.755 75.76-75.755zm465.13 0-75.75 75.76 75.75 75.755 75.76-75.755zM2413.03 1231.4l-75.76 75.75 75.76 75.76 75.76-75.76zm465.13 0-75.75 75.75 75.75 75.76 75.76-75.76z" style="fill:#fff;fill-rule:nonzero" transform="matrix(.26458 0 0 .26458 -521.522 -93.62)"/><defs><radialGradient id="a" cx="0" cy="0" r="1" gradientTransform="matrix(615.835 0 0 644.951 2645.6 1069.29)" gradientUnits="userSpaceOnUse"><stop offset="0" style="stop-color:#612c75;stop-opacity:1"/><stop offset="0" style="stop-color:#bf99c3;stop-opacity:1"/><stop offset=".7" style="stop-color:#7b5190;stop-opacity:1"/><stop offset="1" style="stop-color:#612c75;stop-opacity:1"/></radialGradient></defs></svg>