<svg xmlns="http://www.w3.org/2000/svg" xml:space="preserve" width="356.915" height="374.731" style="clip-rule:evenodd;fill-rule:evenodd;stroke-linejoin:round;stroke-miterlimit:2"><path d="m112.768 0 55.179 55.982v109.82l-23.807 23.004 23.807 23.606V374.73h-43.392L14.465 268.662l35.356-33.75v-26.787c-1.81-24.193-24.149-32.57-49.821-48.75C9.972 85.788 55.173 38.625 112.768 0M47.786 255.129l-11.813 12.234 76.062 73.454 17.804 17.192h24.244v-70.363l-36.891 36.89-50.112-50.109.002-.002zm69.406-195.262-63.78 63.78 42.597 42.598-20.693 20.693L96.01 207.63l-42.598 42.598 63.78 63.777 36.892-36.89v-59.762l-30.631-30.628 30.63-30.63V96.756Zm-.019 34.176 29.766 29.764-29.766 29.764-29.763-29.764zm-.248 11.4L96.88 125.486l20.045 20.044 20.044-20.044zm.248 114.975 29.766 29.766-29.766 29.763-29.763-29.763zm-.248 11.769L96.88 252.229l20.045 20.045 20.044-20.045zm-6.057-215.464C66.662 44.817 25.17 91.907 15.518 149.74c.021.01 25.098 14.862 34.07 23.835 8.977 8.978 14.531 21.379 14.531 35.079 0 13.393.164 19.51.172 19.785l21.22-21.222-20.37-20.37 20.727-20.73-42.37-42.373 73.485-73.483 37.1 37.098V59.51ZM244.147 0c57.594 38.624 102.795 85.788 112.768 159.375-25.673 16.18-48.012 24.557-49.821 48.75v26.787l35.356 33.75-110.09 106.069h-43.392V212.41l23.807-23.605-23.807-23.003V55.983Zm1.9 16.723-43.215 42.786V87.36l37.102-37.098 73.483 73.483-42.37 42.373 20.73 20.73-20.373 20.37 21.222 21.222c.005-.275.17-6.392.17-19.785 0-13.7 5.553-26.101 14.53-35.079 8.975-8.973 34.052-23.824 34.07-23.835-9.651-57.834-51.143-104.924-95.35-133.018m63.081 238.406-19.296 19.296-50.112 50.112-36.89-36.891v70.363h24.243l17.804-17.192 76.065-73.454zM239.723 59.867l-36.891 36.89v59.338l30.63 30.631-30.63 30.628v59.762l36.89 36.89 63.781-63.777-42.598-42.598 20.693-20.693-20.693-20.693 42.598-42.598zm.018 34.176 29.76 29.764-29.76 29.764-29.765-29.764zm.249 11.4-20.042 20.044 20.042 20.044 20.045-20.044zm-.249 114.975 29.76 29.766-29.76 29.763-29.765-29.763zm.249 11.769-20.042 20.042 20.042 20.045 20.045-20.045z"/></svg>