<?xml version="1.0" encoding="UTF-8" standalone="no"?>
<svg
   version="1.1"
   width="546.1698"
   height="419.78009"
   id="svg1"
   xmlns="http://www.w3.org/2000/svg"
   xmlns:svg="http://www.w3.org/2000/svg">
  <defs
     id="defs1" />
  <g
     transform="matrix(12.217471,0,0,-12.217471,-2405.5956,4748.3445)"
     id="g1">
    <path
       d="m 220.711,386.332 h -2.922 c -16.25,0 -20.891,2.32 -20.891,2.32 v 0 -2.121 c 0,-0.797 0.926,-0.996 0.926,-0.996 v 0 h 1.196 v -1.195 c 0,-0.926 0.996,-1.192 0.996,-1.192 v 0 h 6.433 l -0.265,-2.586 h -6.7 v -2.851 h 6.434 l -1.988,-21.559 c -0.864,-0.73 -0.532,-1.859 -0.532,-1.859 v 0 h 4.579 l 0.394,1.461 -0.664,0.332 1.859,21.559 h 6.102 l -0.066,-2.192 h 7.296 l -0.066,2.192 h 6.102 l 1.855,-21.559 -0.66,-0.332 0.394,-1.461 h 4.579 c 0,0 0.332,1.129 -0.532,1.859 v 0 l -1.988,21.559 h 6.434 v 2.851 h -6.7 l -0.265,2.586 h 6.433 c 0,0 0.996,0.266 0.996,1.192 v 0 1.195 h 1.192 c 0,0 0.93,0.199 0.93,0.996 v 0 2.121 c 0,0 -4.641,-2.32 -20.891,-2.32 m 1.855,-3.117 h 6.102 l 0.199,-2.586 h -6.101 z m -12.734,0 h 6.102 l -0.2,-2.586 h -6.101 z"
       id="path1" />
  </g>
</svg>
