<svg xmlns="http://www.w3.org/2000/svg" xml:space="preserve" width="150.001" height="148.774"><path fill="#fff" d="M147.317 74.177c-1.457-9.06-3.323-18.075-3.604-19.083-.283-1.006-.752-1.441-1.383-1.646-.63-.207-1.555-.047-1.942.61-.387.659-6.469 10.929-6.469 10.929l-15.343-9.334 6.868-16.431s10.957 4.733 11.657 5.039c.702.305 1.54-.111 1.931-.647.39-.536.513-1.165.149-2.146s-4.155-9.371-8.3-17.556c-4.144-8.186-9.612-17.795-9.612-17.795s-10.829-2.23-19.894-3.643C92.308 1.059 83.157.047 82.113.004c-1.046-.042-1.604.268-1.995.804-.39.538-.524 1.465-.018 2.036l8.394 9.53L75 23.974l-13.494-11.6 8.394-9.53c.507-.57.372-1.498-.019-2.035-.39-.536-.949-.847-1.993-.804-1.046.042-10.197 1.055-19.263 2.468S28.73 6.116 28.73 6.116s-5.469 9.609-9.612 17.795c-4.145 8.186-7.937 16.576-8.301 17.556s-.24 1.61.15 2.146 1.229.952 1.931.647c.7-.306 11.657-5.04 11.657-5.04l6.867 16.432-15.342 9.334s-6.082-10.27-6.469-10.928-1.311-.817-1.942-.611c-.63.205-1.099.64-1.381 1.646-.282 1.009-2.147 10.025-3.605 19.084S0 94.224 0 94.224s7.45 8.169 13.954 14.64c6.504 6.473 13.313 12.672 14.133 13.32.82.649 1.456.726 2.086.52.63-.204 1.286-.873 1.212-1.635-.073-.761-1.189-12.644-1.189-12.644l18.154-1.486 4.144 17.506s-11.646 2.61-12.392 2.776-1.181.994-1.181 1.658.269 1.243 1.14 1.823 8.87 5.14 17.035 9.325c8.164 4.187 18.236 8.747 18.236 8.747s10.072-4.561 18.237-8.747c8.165-4.185 16.163-8.745 17.034-9.325s1.139-1.16 1.139-1.823c0-.664-.434-1.493-1.181-1.658-.746-.166-12.393-2.776-12.393-2.776l4.132-17.453 17.504 1.434s-1.115 11.883-1.188 12.644.582 1.43 1.212 1.636c.631.205 1.266.129 2.086-.52.82-.65 7.629-6.85 14.133-13.32 6.505-6.472 13.954-14.641 13.954-14.641s-1.226-10.99-2.684-20.048"/><path d="M142.161 75.007a379 379 0 0 0-1.858-10.553l-4.339 7.327-18.439 4.765L95.502 63.15l9.884-23.644 17.717-6.986 7.818 3.378a392 392 0 0 0-4.699-9.63c-2.924-5.776-6.498-12.236-8.329-15.507-3.677-.731-10.927-2.133-17.323-3.13a393 393 0 0 0-10.608-1.493c1.158 1.317 4.568 5.19 5.628 6.393L94.422 31.54 75 48.236 55.579 31.54l-1.167-19.01L60.04 6.14c-3.111.396-6.825.904-10.61 1.493-6.396.998-13.646 2.399-17.322 3.13-1.832 3.27-5.405 9.73-8.33 15.507a388 388 0 0 0-4.699 9.63l7.818-3.378 17.718 6.986 9.883 23.644-22.02 13.396-18.44-4.765-4.34-7.327A383 383 0 0 0 7.84 75.008c-1.029 6.39-1.936 13.718-2.378 17.44 2.545 2.754 7.586 8.148 12.175 12.715a388 388 0 0 0 7.707 7.444l-.797-8.48 12.118-14.691L62.61 87.31l5.945 25.113-10.229 16.065-8.31 1.86a380 380 0 0 0 9.461 5.03c5.761 2.954 12.45 6.08 15.854 7.65 3.404-1.57 10.092-4.696 15.854-7.65 3.407-1.746 6.71-3.52 9.46-5.03-1.711-.381-6.747-1.511-8.309-1.86l-10.23-16.065 5.933-25.061 25.295 2.073 12.118 14.692-.797 8.479a386 386 0 0 0 7.707-7.444c4.589-4.566 9.63-9.961 12.176-12.715-.442-3.721-1.349-11.05-2.377-17.44M58.563 92.882l4.402 18.598-5.958 9.358-4.609-19.472-20.166 1.652 7.058-8.56Zm59.205 10.137-19.516-1.6-4.597 19.419-5.959-9.358 4.392-18.545 18.621 1.524zm11.325-34.855-10.74 2.774-16.301-9.917 7.301-17.465 10.319-4.07-7.645 18.295zm-97.446 2.774-10.74-2.774L37.972 57.78l-7.646-18.294 10.321 4.069 7.299 17.467Zm28.329-52.992L75 30.862l15.023-12.916-.68 11.073L75 41.349 60.656 29.02Z"/></svg>