<svg xmlns="http://www.w3.org/2000/svg" xml:space="preserve" width="150.001" height="148.774"><g transform="translate(-.102 -.332)"><path d="M147.42 74.509c-1.458-9.059-3.324-18.075-3.605-19.083-.282-1.006-.751-1.441-1.383-1.646-.63-.207-1.554-.047-1.942.611s-6.469 10.928-6.469 10.928l-15.343-9.334 6.869-16.431s10.957 4.733 11.657 5.039c.701.305 1.539-.111 1.931-.647.39-.536.513-1.165.149-2.146-.365-.98-4.156-9.371-8.3-17.556s-9.612-17.795-9.612-17.795-10.83-2.229-19.895-3.643C92.41 1.391 83.259.379 82.215.336c-1.046-.042-1.604.268-1.995.804-.39.538-.524 1.465-.018 2.036l8.394 9.53-13.494 11.6-13.493-11.599s7.888-8.958 8.394-9.53.371-1.499-.019-2.036-.949-.847-1.992-.804c-1.046.042-10.198 1.055-19.264 2.468-9.067 1.414-19.895 3.643-19.895 3.643s-5.468 9.609-9.612 17.795-7.937 16.576-8.3 17.556-.24 1.61.15 2.146c.391.536 1.23.952 1.931.647.7-.306 11.657-5.039 11.657-5.039l6.867 16.431-15.341 9.334s-6.082-10.27-6.469-10.928-1.311-.817-1.942-.611-1.1.64-1.381 1.646c-.285 1.009-2.15 10.025-3.608 19.084S.102 94.556.102 94.556s7.45 8.169 13.955 14.641c6.504 6.472 13.313 12.671 14.133 13.32.82.648 1.455.725 2.086.52s1.285-.874 1.212-1.636-1.188-12.644-1.188-12.644l18.154-1.486 4.144 17.506s-11.646 2.61-12.392 2.776-1.181.994-1.181 1.658.269 1.243 1.14 1.823 8.87 5.141 17.036 9.325c8.164 4.188 18.236 8.747 18.234 8.747 0 0 10.072-4.56 18.237-8.747 8.165-4.185 16.163-8.745 17.035-9.325.87-.58 1.138-1.16 1.138-1.823 0-.664-.434-1.493-1.181-1.658l-12.393-2.776 4.133-17.453 17.503 1.434s-1.114 11.883-1.188 12.644.581 1.431 1.211 1.636c.632.205 1.266.129 2.086-.52s7.629-6.849 14.133-13.32c6.506-6.472 13.954-14.641 13.954-14.641s-1.226-10.99-2.683-20.048"/><radialGradient id="a" cx="75.103" cy="74.917" r="68.994" gradientUnits="userSpaceOnUse"><stop offset="0" style="stop-color:#f79820"/><stop offset=".65" style="stop-color:#e07826"/><stop offset=".726" style="stop-color:#de7526"/><stop offset=".804" style="stop-color:#d76a27"/><stop offset=".884" style="stop-color:#cd5827"/><stop offset=".964" style="stop-color:#c13e27"/><stop offset="1" style="stop-color:#bb2f27"/></radialGradient><path fill="url(#a)" d="M142.264 75.339a383 383 0 0 0-1.859-10.553l-4.339 7.327-18.439 4.765-22.023-13.395 9.884-23.644 17.718-6.986 7.817 3.378a392 392 0 0 0-4.699-9.63c-2.924-5.776-6.498-12.236-8.329-15.507-3.677-.731-10.926-2.133-17.323-3.13a393 393 0 0 0-10.608-1.493c1.158 1.317 4.568 5.19 5.628 6.393l-1.168 19.009-19.422 16.695-19.421-16.695-1.167-19.009 5.629-6.393c-3.111.396-6.826.904-10.612 1.493-6.396.998-13.645 2.399-17.322 3.13-1.833 3.271-5.405 9.731-8.33 15.507a388 388 0 0 0-4.699 9.63l7.818-3.378 17.718 6.986 9.883 23.644-22.02 13.396-18.439-4.765-4.34-7.327A387 387 0 0 0 7.941 75.34c-1.028 6.39-1.935 13.718-2.377 17.44 2.545 2.754 7.585 8.148 12.175 12.715a388 388 0 0 0 7.707 7.444l-.797-8.479 12.118-14.692 25.945-2.126 5.946 25.113-10.229 16.065-8.311 1.861a377 377 0 0 0 9.462 5.03c5.76 2.953 12.448 6.079 15.854 7.65 3.404-1.571 10.091-4.697 15.854-7.65 3.407-1.747 6.71-3.52 9.46-5.03-1.711-.382-6.747-1.512-8.309-1.861l-10.23-16.065 5.933-25.061 25.295 2.073 12.119 14.692-.797 8.479a389 389 0 0 0 7.706-7.444c4.59-4.566 9.63-9.961 12.176-12.715-.443-3.721-1.349-11.049-2.377-17.44M58.666 93.214l4.402 18.598-5.958 9.358-4.61-19.472-20.167 1.652 7.059-8.56zm59.205 10.137-19.517-1.6-4.597 19.419-5.959-9.358 4.392-18.545 18.621 1.524zm11.324-34.855-10.74 2.774-16.301-9.917 7.301-17.465 10.32-4.069-7.646 18.294zM31.749 71.27l-10.74-2.774 17.065-10.383-7.646-18.294 10.321 4.069 7.299 17.467Zm28.329-52.992 15.023 12.916 15.023-12.916-.68 11.073-14.342 12.331-14.344-12.331Z" style="fill:url(#a)"/></g></svg>