<?xml version="1.0" encoding="UTF-8" standalone="no"?>
<svg
   version="1.1"
   id="Layer_1"
   x="0px"
   y="0px"
   width="232.10365"
   height="257.14301"
   xmlns="http://www.w3.org/2000/svg"
   xmlns:svg="http://www.w3.org/2000/svg">
  <defs
     id="defs1" />
  <path
     d="m 65.215656,203.773 c 7.096,7.482 5.653,19.67 -1.708,26.916 -14.989,13.457 -39.105,24.323 -39.105,24.323 0,0 10.542,-16.61 12.515,-38.195 0.293,-3.324 0.53,-8.951 0.353,-13.396 7.42,-6.771 20.878,-7.066 27.945,0.352 m 129.989004,13.055 c -0.296,-3.326 -0.531,-8.978 -0.354,-13.396 -7.421,-6.802 -20.935,-7.068 -27.944,0.354 -7.186,7.478 -5.683,19.668 1.68,26.91 14.987,13.458 39.164,24.323 39.164,24.323 0,0 -10.605,-16.635 -12.546,-38.191 M 100.19866,28.415 C 66.282656,41.692 45.901656,57.231 37.884656,58.271 c -4.671,0.374 -12.484,-2.8 -20.502,-9.893 -9.7650003,-8.719 -9.4280003,-15.715 -9.0330003,-17.62 -2.285,0.075 -10.777,2.107 -7.67700004,13.356 C 2.5666557,51.686 10.362656,80.388 18.233656,107.31 l 29.098,29.65 c 1.897,2.127 4.79,7.422 0.786,12.158 -4.592,5.352 -10.807,4.314 -13.973,3.278 -1.303,-0.409 -2.132,-0.796 -2.132,-0.796 3.58,11.574 17.355,30.449 18.395,32.009 2.047,-0.416 17.494,-2.897 28.553,9.338 10.702,11.877 5.441,25.779 3.851,29.028 19.050004,21.178 33.268004,35.168 33.268004,35.168 0,0 14.238,-13.936 33.23,-35.166 -1.586,-3.211 -6.85,-17.114 3.807,-29.05 11.055,-12.161 26.602,-9.781 28.611,-9.308 0.992,-1.559 14.793,-20.474 18.329,-32.048 0,0 -0.856,0.448 -2.118,0.82 -3.178,1.057 -9.393,2.052 -14.076,-3.259 -3.818,-4.799 -0.923,-10.029 0.946,-12.152 l 29.034,-29.683 c 7.922,-26.949 15.617,-55.671 17.604,-63.215 3.06,-11.243 -5.433,-13.277 -7.756,-13.328 0.446,1.875 0.942,8.897 -8.967,17.614 -8.007,7.082 -15.927,10.288 -20.581,9.887 -7.949,-1.044 -28.359,-16.542 -62.189,-29.861 C 127.14966,26.47 116.08966,0 116.08966,0 c 0,0 -11.128,26.503 -15.891,28.415 m -5.887004,131.189 -37.662,-53.032 -10e-4,-19.491 37.662,31.271 z m 81.168004,-53.026 -37.721,53.033 V 118.33 l 37.721,-31.243 z"
     id="path1" />
</svg>
