<svg xmlns="http://www.w3.org/2000/svg" width="600" height="275.695"><path d="M473.335 112.062c-117.84-3.896-202.504 48.683-230.769 69.341 16.366 15.323 91.44 85.597 91.44 85.597s-134.566-59.492-165.148-73.015c-3.784 4.403-69.553 80.769-69.553 80.769l-36.96.941s24.701-102.157 27.978-116.612C78.858 151.182 0 96.85 0 96.85h79.763C75.72 82.643 50.197 0 50.197 0s79.69 65.012 90.286 73.874c24.812-12 67.865-27.619 122.16-33.203C452.493 21.166 600 131.03 600 131.03s-77.446-17.345-126.665-18.97" style="fill:#fff"/><path d="m83.04 250.348 66.997-79.117 118.126 52.218-90.185-84.378 40.099-31.662-73.846 5.271-60.646-50.63 13.698 47.99H42.406l62.779 43.274zm75.545-145.32C187.754 88.91 278.548 43.874 364.689 55.2c0 0-75.572-1.726-169.218 47.234l-37.32 2.852zm79.541-5.4-15.175.932c109.32-54.23 206.104-33.748 206.104-33.748-116.898 0-196.449 42.01-229.578 63.536zm-43.052 46.292C345.397 40.237 490.246 84.73 490.246 84.73c-168.397-19.58-268.634 61.698-282.194 73.485Zm32.492 30.286c23.003-18.203 137.917-100.597 300.646-71.428 0 0-151.514-56.824-312.692 60.757zm-75.978-76.218c54.701-38.548 123.424-46.911 123.424-46.911C210 56.243 159.85 78.489 139.006 89.345l-.36.147c-26.179-21.747-64.182-53.51-64.182-53.51l4.754 14.206 67.108 55.994 11.464-.757s-2.381-1.976-6.378-5.299l.175-.138zm9.267 83.04-67.79 78.71-11.825.324 70.57-83.15z"/></svg>