<svg xmlns="http://www.w3.org/2000/svg" xmlns:xlink="http://www.w3.org/1999/xlink" width="600" height="275.712"><radialGradient id="a" cx="0" cy="0" r="1" fx="0" fy="0" gradientTransform="matrix(17.14836 0 0 -17.14836 477.056 369.739)" gradientUnits="userSpaceOnUse" spreadMethod="pad"><stop offset="0" style="stop-color:#ebd491"/><stop offset=".7" style="stop-color:#d2bb7b"/><stop offset="1" style="stop-color:#8b723c"/></radialGradient><radialGradient xlink:href="#a" id="b" cx="0" cy="0" r="1" fx="0" fy="0" gradientTransform="translate(251.745 152.633)scale(158.3023)" gradientUnits="userSpaceOnUse" spreadMethod="pad"/><path d="M473.29 112.068c-117.81-3.895-202.48 48.687-230.746 69.346 16.367 15.324 91.446 85.602 91.446 85.602s-134.575-59.496-165.158-73.02c-3.785 4.404-69.558 80.775-69.558 80.775l-36.962.941s24.666-102.163 27.98-116.62C78.826 151.192 0 96.856 0 96.856h79.731C75.725 82.648 50.163 0 50.163 0s79.722 65.016 90.292 73.878c24.841-12 67.869-27.62 122.167-33.205C452.483 21.167 600 131.04 600 131.04s-77.488-17.346-126.71-18.97" style="fill:#fff"/><path d="m83.008 250.363 67.001-79.122 118.17 52.222-90.227-84.384 40.101-31.663-73.85 5.27-60.65-50.633 13.7 47.994H42.408l62.745 43.276zm75.55-145.329c29.17-16.118 120.007-61.157 206.154-49.83 0 0-75.614-1.727-169.266 47.236l-37.285 2.853zm79.583-5.4-15.213.932c109.29-54.234 206.117-33.75 206.117-33.75-116.906 0-196.49 42.012-229.593 63.54zm-43.092 46.295c150.332-105.69 295.19-61.195 295.19-61.195-168.407-19.58-268.65 61.703-282.21 73.491Zm32.494 30.288c23.005-18.204 137.926-100.603 300.665-71.432 0 0-151.523-56.828-312.712 60.76zm-75.946-76.223c54.668-38.55 123.432-46.914 123.432-46.914-65.053 3.167-115.207 25.414-136.051 36.27l-.36.148c-26.18-21.75-64.186-53.514-64.186-53.514l4.717 14.207 67.149 55.997 11.502-.757s-2.418-1.975-6.416-5.299zm9.268 83.045L93.07 261.755l-11.825.323 70.537-83.156z" style="fill:#8b723c"/><path d="m82.325 48.03 65.201 54.373.822-.037-2.844-2.63 3.97-2.78c17.447-12.295 36.196-21.554 53.763-28.478-29.53 8.142-51.566 18.426-62.598 24.158l-2.492 1.293-1.874-1.588a26450 26450 0 0 1-54.197-45.215zm93.218 52.25 18.897-1.44c40.784-21.278 78.355-33.002 107.71-39.455-51.464 6.711-98.479 26.762-126.607 40.895m66.743-4.579 7.32-.47-9.194 7.283-3.065 2.419c31.95-15.287 75.55-30.833 129.922-37.904-33.14 1.45-77.35 8.151-124.983 28.672m-141.461 13.34 1.301 4.726H54.271l52.97 36.491 2.058 1.44-.545 2.456-18.785 82.288 57.197-67.573 1.8-2.133 2.52 1.117 98.268 43.452-74.322-69.52-3.138-2.955 3.388-2.64 30.694-24.26-61.915 4.431-1.486.148-1.117-.979-51.456-42.944ZM200.892 146.4l7.284 6.85c18.426-15.288 87.116-65.737 198.908-74.1-52.185.867-128.307 13.699-206.192 67.25m20.485 19.432 6.305 5.594c25.644-19.764 105.726-73.417 221.515-76.38a296 296 0 0 0-13.949-.323c-52.323 0-131.583 12.444-213.871 71.109m-131.98 92.313 1.947-.064 63.466-73.713-2.022-.932z" style="fill:url(#b)"/></svg>