<svg xmlns="http://www.w3.org/2000/svg" xmlns:xlink="http://www.w3.org/1999/xlink" width="600" height="275.695"><radialGradient id="a" cx="0" cy="0" r="1" fx="0" fy="0" gradientTransform="matrix(17.14836 0 0 -17.14836 392.806 369.739)" gradientUnits="userSpaceOnUse" spreadMethod="pad"><stop offset="0" style="stop-color:#d9eaf3"/><stop offset=".663" style="stop-color:#99aebc"/><stop offset="1" style="stop-color:#536e78"/></radialGradient><radialGradient xlink:href="#a" id="b" cx="0" cy="0" r="1" fx="0" fy="0" gradientTransform="translate(251.766 152.624)scale(158.29256)" gradientUnits="userSpaceOnUse" spreadMethod="pad"/><path d="M473.298 112.062c-117.803-3.896-202.467 48.683-230.732 69.341L334.006 267s-134.566-59.492-165.148-73.015c-3.784 4.403-69.553 80.769-69.553 80.769l-36.923.941s24.664-102.157 27.941-116.612C78.858 151.182 0 96.85 0 96.85h79.763C75.72 82.643 50.197 0 50.197 0s79.69 65.012 90.286 73.874c24.812-12 67.865-27.619 122.16-33.203C452.493 21.166 600 131.03 600 131.03s-77.483-17.345-126.702-18.97" style="fill:#fff"/><path d="m83.04 250.348 66.997-79.117 118.126 52.218-90.185-84.378 40.099-31.662-73.846 5.271-60.646-50.63 13.698 47.99H42.406l62.779 43.274zm75.545-145.32C187.754 88.91 278.548 43.874 364.689 55.2c0 0-75.572-1.726-169.218 47.234l-37.32 2.852zm79.541-5.4-15.175.932c109.32-54.23 206.104-33.748 206.104-33.748-116.898 0-196.449 42.01-229.578 63.536zm-43.052 46.292C345.397 40.237 490.246 84.73 490.246 84.73c-168.397-19.58-268.634 61.698-282.194 73.485Zm32.492 30.286c23.003-18.203 137.917-100.597 300.646-71.428 0 0-151.514-56.824-312.692 60.757zm-75.978-76.218c54.701-38.548 123.424-46.911 123.424-46.911C210 56.243 159.85 78.489 139.006 89.345l-.36.147c-26.179-21.747-64.182-53.51-64.182-53.51l4.754 14.206 67.108 55.994 11.464-.757s-2.381-1.976-6.378-5.299zm9.267 83.04-67.79 78.71-11.825.323 70.57-83.15z" style="fill:#536e78"/><path d="m82.357 48.028 65.197 54.369.821-.037-2.843-2.63 3.933-2.78c17.483-12.295 36.23-21.553 53.833-28.476-29.566 8.141-51.6 18.424-62.63 24.157l-2.493 1.292-1.91-1.588C118.449 77.483 95.123 58.052 82.07 47.123zm93.212 52.246 18.859-1.44c40.818-21.277 78.387-33 107.704-39.452-51.424 6.71-98.437 26.76-126.563 40.892m66.739-4.579 7.32-.47-9.194 7.283-3.065 2.418c31.948-15.286 75.545-30.83 129.914-37.901-33.138 1.449-77.345 8.15-124.975 28.67m-141.453 13.339 1.339 4.726H54.342l52.929 36.49 2.058 1.44-.544 2.455L90 236.428l57.222-67.57 1.772-2.132 2.52 1.117 98.261 43.45-74.317-69.518-3.138-2.953 3.388-2.64 30.692-24.259-61.91 4.43-1.487.149-1.154-.979-51.415-42.941Zm100.062 37.357 7.283 6.849c18.425-15.286 87.11-65.732 198.858-74.095-52.172.867-128.261 13.698-206.141 67.246m20.52 19.43 6.268 5.594c25.643-19.763 105.72-73.412 221.501-76.375a296 296 0 0 0-13.948-.323c-52.32 0-131.612 12.443-213.821 71.105m-132.01 92.307 1.911-.064 63.499-73.708-2.022-.932z" style="fill:url(#b)"/></svg>