<svg xmlns="http://www.w3.org/2000/svg" width="485.806" height="226.08"><path d="m40.634 214.366 66.997-79.117 118.126 52.219-90.185-84.379 40.099-31.661-73.846 5.27-60.647-50.63 13.699 47.99H0l62.778 43.274zm75.544-145.32c29.17-16.117 119.964-61.154 206.105-49.828 0 0-75.572-1.726-169.218 47.234l-37.32 2.853zm79.542-5.4-15.175.932c109.32-54.23 206.104-33.747 206.104-33.747-116.898 0-196.449 42.009-229.578 63.535Zm-43.052 46.292C302.99 4.255 447.84 48.748 447.84 48.748c-168.397-19.579-268.634 61.698-282.194 73.486Zm32.492 30.287c23.003-18.203 137.917-100.597 300.646-71.428 0 0-151.514-56.825-312.692 60.757zm-75.978-76.219c54.701-38.548 123.424-46.91 123.424-46.91C167.594 20.261 117.443 42.507 96.6 53.362l-.36.148C70.06 31.763 32.058 0 32.058 0l4.754 14.206L103.92 70.2l11.464-.757s-2.381-1.975-6.378-5.298l.175-.138zm9.267 83.04-67.79 78.71-11.825.324 70.57-83.15z"/></svg>