<svg xmlns="http://www.w3.org/2000/svg" xml:space="preserve" width="144" height="118.102" viewBox="0 0 144 118.102"><path fill="#5d5e61" d="M85.891 118.1c-26.165-.001-51.614-10.779-69.822-29.57-1.063-1.097-1.647-2.57-1.606-4.044a5 5 0 0 1 1.6-3.569l6.497-6.059a5.16 5.16 0 0 1 3.519-1.377c1.138 0 2.255.376 3.17 1.051 1.677-2.681 4.191-5.565 7.923-7.776L0 57.152l57.007.001 2.813-7.73c1.428-3.924.836-4.53-2.013-7.436-1.731-1.768-3.886-3.967-5.813-7.421-3.067-5.5-3.366-10.769-2.793-14.855-2.514-.152-4.597-2.051-4.912-4.536L43.203 6.33c-.167-1.331.212-2.667 1.073-3.751.917-1.155 2.312-1.906 3.828-2.063A98 98 0 0 1 58.109 0c26.164 0 51.614 10.778 69.823 29.57 1.06 1.093 1.646 2.566 1.605 4.04a5 5 0 0 1-1.598 3.573l-6.498 6.06a5.15 5.15 0 0 1-3.518 1.377 5.35 5.35 0 0 1-3.172-1.052c-1.676 2.682-4.191 5.566-7.923 7.777L144 60.949l-57.009-.002-2.813 7.729c-1.429 3.925-.835 4.529 2.014 7.437 1.731 1.768 3.888 3.967 5.813 7.422 3.068 5.5 3.366 10.769 2.792 14.855 2.517.153 4.6 2.052 4.915 4.537l1.085 8.845c.168 1.33-.212 2.668-1.074 3.751-.917 1.154-2.312 1.906-3.828 2.063a97 97 0 0 1-9.999.516z"/><path d="m97.116 112.222-1.083-8.831c-.104-.813-.882-1.384-1.738-1.296a82 82 0 0 1-4.322.327c1.354-3.617 2.68-10.117-1.205-17.084-4.818-8.642-11.496-8.524-8.072-17.931l2.383-6.547-53.905-.001 22.214 5.739c-2.496.263-5.485.424-9.129 1.813-7.455 2.838-10.616 8.67-11.905 12.311a81 81 0 0 1-3.1-3.028c-.599-.619-1.563-.68-2.164-.124l-6.508 6.068c-.601.556-.539 1.599.152 2.312a93.52 93.52 0 0 0 76.783 27.946c.986-.101 1.702-.86 1.599-1.674M53.533 87.116c-7.974 6.369-15.567-.108-15.567-.108 1.765-6.92 7.123-10.871 15.077-11.54 9.627-.809 12.8-7.177 12.8-7.177-3.037 9.245-5.133 13.09-12.31 18.825M80.1 102.343s-9.98.08-11.994-9.924c-1.813-9.006-.946-13.298 2.671-22.333 0 0-1.664 6.918 5.191 13.726 5.664 5.624 7.228 12.095 4.132 18.531m33.548-64.967a84 84 0 0 1 3.101 3.029c.599.618 1.562.681 2.163.124l6.508-6.068c.601-.556.54-1.598-.151-2.312A93.54 93.54 0 0 0 48.486 4.203c-.988.102-1.706.861-1.603 1.674l1.084 8.831c.103.813.881 1.386 1.737 1.296a82 82 0 0 1 4.322-.328c-1.353 3.618-2.679 10.118 1.206 17.084 4.819 8.642 11.496 8.525 8.072 17.931l-2.383 6.548h53.906L92.613 51.5c2.495-.262 5.484-.424 9.129-1.812 7.455-2.839 10.616-8.67 11.906-12.312m-14.86 1.604c-2.133.915-12.33-1.765-15.829-3.039l-5.613-2.044c-3.499-1.272-11.92-5.37-12.966-7.442-2.421-4.801-.773-7.105-.031-9.142.117-.322.358-.823.683-1.44a81.7 81.7 0 0 1 40.06 14.58c-.149.682-.287 1.221-.403 1.543-.741 2.036-.96 4.862-5.901 6.984"/></svg>