<svg xmlns="http://www.w3.org/2000/svg" xml:space="preserve" width="143.998" height="118.103" viewBox="0 0 143.998 118.103"><g transform="translate(-2.729 -5.722)"><path d="M88.621 123.824c-26.165-.002-51.614-10.779-69.822-29.571-1.062-1.097-1.647-2.57-1.607-4.044.039-1.382.606-2.65 1.6-3.569l6.497-6.059a5.16 5.16 0 0 1 3.519-1.377c1.138 0 2.256.376 3.17 1.052 1.676-2.682 4.191-5.566 7.923-7.777L2.729 62.875l57.008.001 2.813-7.73c1.429-3.924.836-4.53-2.013-7.436-1.731-1.768-3.887-3.967-5.813-7.421-3.067-5.5-3.366-10.769-2.793-14.856-2.513-.152-4.597-2.051-4.913-4.536l-1.085-8.845c-.168-1.331.212-2.667 1.072-3.751.916-1.154 2.312-1.906 3.828-2.063a98 98 0 0 1 10.005-.516c26.164 0 51.612 10.778 69.822 29.57 1.06 1.093 1.646 2.566 1.605 4.04a5 5 0 0 1-1.598 3.573l-6.499 6.06a5.15 5.15 0 0 1-3.518 1.377 5.36 5.36 0 0 1-3.171-1.052c-1.676 2.682-4.192 5.566-7.924 7.777l37.172 9.604-57.007-.002-2.813 7.729c-1.429 3.925-.835 4.529 2.015 7.437 1.73 1.768 3.887 3.967 5.813 7.423 3.066 5.499 3.364 10.768 2.79 14.854 2.517.153 4.6 2.052 4.915 4.537l1.085 8.845c.168 1.33-.212 2.668-1.074 3.752-.917 1.154-2.312 1.906-3.828 2.062a97 97 0 0 1-9.998.517z"/><linearGradient id="a" x1="35.332" x2="114.127" y1="50.433" y2="79.112" gradientUnits="userSpaceOnUse"><stop offset="0" style="stop-color:#8d742f"/><stop offset=".069" style="stop-color:#967d38"/><stop offset=".181" style="stop-color:#ae954f"/><stop offset=".2" style="stop-color:#b39a54"/><stop offset=".222" style="stop-color:#b9a059"/><stop offset=".302" style="stop-color:#cab068"/><stop offset=".39" style="stop-color:#d4ba71"/><stop offset=".5" style="stop-color:#d7bd74"/><stop offset=".61" style="stop-color:#d4ba71"/><stop offset=".698" style="stop-color:#cab068"/><stop offset=".778" style="stop-color:#b9a059"/><stop offset=".8" style="stop-color:#b39a54"/><stop offset=".857" style="stop-color:#a38a45"/><stop offset=".938" style="stop-color:#937a35"/><stop offset="1" style="stop-color:#8d742f"/></linearGradient><path fill="url(#a)" d="m99.846 117.946-1.084-8.832c-.104-.813-.882-1.384-1.738-1.295a83 83 0 0 1-4.321.327c1.354-3.618 2.68-10.118-1.205-17.084-4.818-8.643-11.496-8.525-8.072-17.932l2.383-6.547-53.906-.001 22.214 5.739c-2.496.263-5.485.424-9.128 1.813-7.455 2.839-10.617 8.67-11.906 12.311a81 81 0 0 1-3.1-3.028c-.599-.619-1.563-.68-2.164-.124l-6.508 6.068c-.601.556-.539 1.599.152 2.312a93.53 93.53 0 0 0 76.783 27.946c.986-.1 1.702-.86 1.6-1.673M56.263 92.839c-7.975 6.369-15.567-.108-15.567-.108 1.764-6.919 7.122-10.871 15.076-11.539 9.627-.81 12.801-7.178 12.801-7.178-3.038 9.245-5.133 13.09-12.31 18.825m26.567 15.227s-9.98.081-11.994-9.924c-1.813-9.005-.946-13.298 2.671-22.333 0 0-1.664 6.918 5.191 13.727 5.664 5.624 7.228 12.095 4.132 18.53m33.546-64.967a85 85 0 0 1 3.102 3.029c.599.618 1.562.681 2.164.124q3.254-3.033 6.506-6.068c.603-.556.54-1.599-.149-2.312A93.53 93.53 0 0 0 51.215 9.926c-.987.101-1.705.86-1.602 1.674l1.084 8.83c.104.813.88 1.386 1.737 1.297a82 82 0 0 1 4.322-.328c-1.353 3.618-2.679 10.117 1.206 17.084 4.818 8.642 11.497 8.525 8.073 17.931l-2.383 6.548h53.904l-22.211-5.739c2.494-.262 5.483-.424 9.127-1.812 7.453-2.839 10.614-8.67 11.904-12.312m-14.858 1.603c-2.132.915-12.329-1.764-15.828-3.038l-5.613-2.044c-3.499-1.272-11.92-5.37-12.966-7.442-2.421-4.801-.772-7.105-.032-9.143.117-.322.358-.823.683-1.44a81.7 81.7 0 0 1 40.059 14.58c-.147.682-.286 1.221-.402 1.543-.742 2.037-.962 4.863-5.901 6.984" style="fill:url(#a)"/></g></svg>