<svg xmlns="http://www.w3.org/2000/svg" xml:space="preserve" width="143.998" height="118.103" viewBox="0 0 143.998 118.103"><g transform="translate(-3.057 -5.723)"><path fill="#fff" d="M88.948 123.824c-26.165-.002-51.614-10.78-69.822-29.571-1.063-1.097-1.647-2.57-1.606-4.044.038-1.382.605-2.65 1.599-3.569l6.497-6.059a5.16 5.16 0 0 1 3.52-1.377 5.36 5.36 0 0 1 3.169 1.051c1.677-2.681 4.191-5.565 7.923-7.776L3.057 62.875l57.007.001 2.814-7.73c1.428-3.924.835-4.53-2.014-7.436-1.731-1.768-3.887-3.966-5.813-7.421-3.067-5.5-3.366-10.769-2.794-14.855-2.513-.152-4.596-2.051-4.912-4.536l-1.086-8.845c-.167-1.332.212-2.667 1.073-3.751.917-1.154 2.312-1.906 3.828-2.063a98 98 0 0 1 10.005-.516c26.164 0 51.613 10.777 69.823 29.57 1.059 1.093 1.646 2.566 1.604 4.04a5 5 0 0 1-1.598 3.573l-6.498 6.06a5.15 5.15 0 0 1-3.518 1.377 5.35 5.35 0 0 1-3.171-1.052c-1.677 2.682-4.192 5.566-7.924 7.777l37.172 9.604-57.008-.002-2.813 7.729c-1.429 3.925-.835 4.529 2.014 7.437 1.731 1.768 3.888 3.967 5.813 7.422 3.067 5.5 3.365 10.769 2.791 14.855 2.517.153 4.6 2.052 4.915 4.537l1.085 8.845c.169 1.33-.212 2.668-1.074 3.752-.917 1.153-2.312 1.905-3.828 2.062a97 97 0 0 1-9.998.517z"/><linearGradient id="a" x1="35.66" x2="114.453" y1="50.433" y2="79.112" gradientUnits="userSpaceOnUse"><stop offset="0" style="stop-color:#612c75"/><stop offset=".07" style="stop-color:#67357c"/><stop offset=".184" style="stop-color:#784d8d"/><stop offset=".2" style="stop-color:#7b5190"/><stop offset=".234" style="stop-color:#8c639d"/><stop offset=".291" style="stop-color:#a37bae"/><stop offset=".352" style="stop-color:#b38cba"/><stop offset=".418" style="stop-color:#bc96c1"/><stop offset=".5" style="stop-color:#bf99c3"/><stop offset=".582" style="stop-color:#bc96c1"/><stop offset=".648" style="stop-color:#b38cba"/><stop offset=".709" style="stop-color:#a37bae"/><stop offset=".766" style="stop-color:#8c639d"/><stop offset=".8" style="stop-color:#7b5190"/><stop offset=".855" style="stop-color:#714285"/><stop offset=".937" style="stop-color:#653279"/><stop offset="1" style="stop-color:#612c75"/></linearGradient><path fill="url(#a)" d="M100.172 117.945q-.54-4.414-1.083-8.831c-.104-.813-.882-1.384-1.738-1.296a81 81 0 0 1-4.321.327c1.354-3.617 2.68-10.117-1.205-17.084-4.818-8.642-11.496-8.524-8.072-17.931l2.383-6.547H32.23l22.213 5.739c-2.496.263-5.484.424-9.128 1.813-7.454 2.838-10.615 8.67-11.905 12.311a82 82 0 0 1-3.101-3.028c-.599-.619-1.563-.68-2.164-.124l-6.507 6.068c-.602.556-.54 1.599.151 2.312a93.52 93.52 0 0 0 76.782 27.946c.989-.102 1.704-.861 1.601-1.675M56.59 92.839c-7.975 6.369-15.567-.108-15.567-.108 1.766-6.92 7.122-10.871 15.076-11.539 9.627-.81 12.8-7.178 12.8-7.178-3.036 9.245-5.132 13.09-12.309 18.825m26.567 15.227s-9.98.08-11.994-9.924c-1.813-9.006-.946-13.298 2.671-22.333 0 0-1.664 6.918 5.191 13.726 5.664 5.625 7.228 12.095 4.132 18.531m33.547-64.967a85 85 0 0 1 3.102 3.029c.598.618 1.562.681 2.163.124q3.255-3.033 6.507-6.068c.602-.556.54-1.598-.15-2.312A93.54 93.54 0 0 0 51.542 9.926c-.987.102-1.705.861-1.602 1.674l1.084 8.831c.103.813.881 1.386 1.738 1.296a82 82 0 0 1 4.321-.328c-1.353 3.618-2.679 10.118 1.207 17.084 4.819 8.642 11.496 8.525 8.072 17.931l-2.383 6.548 53.905.001-22.213-5.74c2.495-.262 5.483-.424 9.129-1.812 7.453-2.839 10.614-8.67 11.904-12.312m-14.859 1.604c-2.132.915-12.329-1.765-15.828-3.039l-5.613-2.044c-3.499-1.272-11.92-5.37-12.966-7.442-2.421-4.801-.772-7.105-.032-9.142.117-.322.358-.823.684-1.44a81.7 81.7 0 0 1 40.059 14.58c-.148.682-.287 1.221-.403 1.543-.741 2.036-.961 4.862-5.901 6.984" style="fill:url(#a)"/></g></svg>