<?xml version="1.0" encoding="UTF-8"?><svg id="Layer_2" xmlns="http://www.w3.org/2000/svg" width="88.67915" height="37.98506" xmlns:xlink="http://www.w3.org/1999/xlink" viewBox="0 0 88.67915 37.98506"><defs><style>.cls-1{fill:#fff;}.cls-2{fill:url(#radial-gradient);}.cls-3{fill:url(#linear-gradient);}</style><radialGradient id="radial-gradient" cx="22.7857" cy="18.42835" fx="22.7857" fy="18.42835" r="37.57116" gradientUnits="userSpaceOnUse"><stop offset="0" stop-color="#bf99c3"/><stop offset=".16512" stop-color="#bb95c0"/><stop offset=".32476" stop-color="#b189b7"/><stop offset=".48226" stop-color="#a076a9"/><stop offset=".63839" stop-color="#895a96"/><stop offset=".79215" stop-color="#6b377d"/><stop offset=".83787" stop-color="#612c75"/></radialGradient><linearGradient id="linear-gradient" x1="35.97274" y1="20.17403" x2="87.70773" y2="20.17403" gradientUnits="userSpaceOnUse"><stop offset="0" stop-color="#bf99c3"/><stop offset=".10001" stop-color="#b088b7"/><stop offset=".37403" stop-color="#8e609a"/><stop offset=".62469" stop-color="#754386"/><stop offset=".84158" stop-color="#663279"/><stop offset="1" stop-color="#612c75"/></linearGradient></defs><g id="Layer_1_copy_4"><path class="cls-1" d="M3.23906,11.90394c3.49631-3.59803,9.00819-3.9278,13.65868-2.97631.75681-1.25687,1.2819-2.63238,2.20589-3.79462,3.5186-4.42587,10.69118-6.71506,15.82866-3.8924.76138.41832,2.60626,1.70461,2.60626,1.70461,0,0,5.40259-.29518,7.42549-.23899,18.61544.51707,39.25442,9.74777,43.35172,29.70447.27291,1.32925.95358,4.71178-.77576,5.22714-2.59934.77461-3.29808-2.52688-4.32845-4.19491-7.63621-12.36198-36.95305-10.70787-47.34193-1.63843-.4346.3794-1.50571,1.71367-2.52083,3.18056-.983,1.42048-2.13889,3-2.13889,3,0,0-1.66161-.16227-2.99013-.33039-7.65807-.96909-23.28425-4.85017-27.02309-12.25958C-.97756,21.0863-.12604,15.36694,3.23906,11.90394ZM27.76856,1.10296c-2.84656.38501-6.18779,2.51241-7.94635,4.74863-1.0649,1.35415-1.53835,2.86282-2.45183,4.26509-6.15147-1.69925-13.93409-.26881-15.82181,6.68373-2.53879,9.35044,5.29943,13.82569,12.80495,16.51634,5.24913,1.88176,10.95036,2.89664,16.47986,3.55872.34643-.05457,3.13435-5.2074,3.50311-5.97037,2.57837-5.3348,5.93436-14.01654,5.4625-19.91996-.52732-6.59733-5.36466-10.78376-12.03042-9.88219ZM84.35271,25.23323c-4.99337-11.82782-18.63414-18.87828-30.84661-20.76933-3.62114-.56072-8.51464-1.01437-12.14405-.78579-.53262.03354-2.78718.43875-2.99062.59486l2.08299,4.7265c16.4297-1.79117,32.80721,4.11288,43.89829,16.23376ZM39.32474,20.92039c15.23101-5.4844,36.23469-1.8104,45.22253,12.62399.56952.91464,1.23231,3.50906,2.51204,3.15266,1.24675-.34721.35799-3.60886.10094-4.56799-2.58446-9.64346-16.3692-17.91877-25.37734-20.61213-6.81833-2.03862-14.17379-2.78874-21.26267-2.09202.77596,3.965-.30935,7.68176-1.19549,11.49548ZM79.01631,27.57689c-7.27778-7.05556-24.01992-9.5511-33.47311-7.7412-1.23593.23663-6.32162,1.76146-6.32162,1.76146,0,0-2.91271,7.78414-3.24884,8.66626,11.87014-7.74927,28.92327-9.292,41.34357-2.71271.68309.36185,4.25813,2.83611,4.93264,3.3067-2.52153-2.82561-3.01086-3.0655-3.23264-3.28051Z"/><path class="cls-2" d="M27.76856,1.10296c6.66576-.90157,11.5031,3.28486,12.03042,9.88219.47185,5.90342-2.88413,14.58515-5.4625,19.91996-.36875.76297-3.15667,5.9158-3.50311,5.97037-5.5295-.66207-11.23073-1.67696-16.47986-3.55872C6.84799,30.62612-.99023,26.15087,1.54856,16.80042c1.88772-6.95254,9.67034-8.38298,15.82181-6.68373.91349-1.40227,1.38694-2.91095,2.45183-4.26509,1.75856-2.23622,5.09979-4.36362,7.94635-4.74863Z"/><path class="cls-3" d="M39.32474,20.92039c.88614-3.81372,1.97145-7.53049,1.19549-11.49548,7.08889-.69672,14.44434.0534,21.26267,2.09202,9.00814,2.69335,22.79288,10.96867,25.37734,20.61213.25705.95913,1.14582,4.22078-.10094,4.56799-1.27973.35639-1.94252-2.23803-2.51204-3.15266-8.98784-14.43439-29.99152-18.10839-45.22253-12.62399ZM53.5061,4.4639c-3.62114-.56072-8.51464-1.01437-12.14405-.78579-.53262.03354-2.72603.416-2.99062.59486l2.08299,4.7265c16.4297-1.79117,32.80721,4.11288,43.89829,16.23376-4.99337-11.82782-18.63414-18.87828-30.84661-20.76933ZM45.5432,19.83569c-1.23593.23663-6.32162,1.76146-6.32162,1.76146,0,0-2.73958,7.35417-3.24884,8.66626,11.87014-7.74927,28.92868-9.3022,41.34357-2.71271.36907.19589,1.2378.78582,2.14116,1.38992.90989.60847,2.3524,1.68678,2.79148,1.91678-2.15551-2.48574-3.00947-3.06694-3.23264-3.28051-7.43056-7.11111-24.01992-9.5511-33.47311-7.7412Z"/></g></svg>