<?xml version="1.0" encoding="UTF-8" standalone="no"?>
<svg
   version="1.1"
   width="600"
   height="684.18951"
   id="svg6"
   xmlns:xlink="http://www.w3.org/1999/xlink"
   xmlns="http://www.w3.org/2000/svg"
   xmlns:svg="http://www.w3.org/2000/svg">
  <defs
     id="defs6" />
  <linearGradient
     x1="0"
     y1="0"
     x2="1"
     y2="0"
     id="linearGradient896"
     gradientUnits="userSpaceOnUse"
     gradientTransform="matrix(0,36.226563,36.226563,0,625.38965,16.770508)"
     spreadMethod="pad">
    <stop
       style="stop-color:#536e78"
       offset="0"
       id="stop1" />
    <stop
       style="stop-color:#99aebc"
       offset="0.3"
       id="stop2" />
    <stop
       style="stop-color:#d9eaf3"
       offset="0.5"
       id="stop3" />
    <stop
       style="stop-color:#99aebc"
       offset="0.7"
       id="stop4" />
    <stop
       style="stop-color:#536e78"
       offset="1"
       id="stop5" />
  </linearGradient>
  <linearGradient
     x1="0"
     y1="0"
     x2="1"
     y2="0"
     id="linearGradient2995"
     xlink:href="#linearGradient896"
     gradientUnits="userSpaceOnUse"
     gradientTransform="matrix(0,36.226563,36.226563,0,625.38965,16.770508)"
     spreadMethod="pad" />
  <linearGradient
     x1="0"
     y1="0"
     x2="1"
     y2="0"
     id="linearGradient2998"
     xlink:href="#linearGradient896"
     gradientUnits="userSpaceOnUse"
     gradientTransform="matrix(0,-619.64587,619.64587,0,299.9769,651.90419)"
     spreadMethod="pad" />
  <path
     d="M 300,684.18952 76.492388,583.63076 98.814071,517.16175 0,586.91488 V 97.22333 L 98.814071,167.04487 76.492388,100.55875 300,0 523.42209,100.55875 501.1004,167.04487 600,97.22333 v 489.69155 l -98.8996,-69.75313 22.32169,66.46901 z"
     id="path5" />
  <path
     d="m 236.18222,60.94418 35.40681,250.01996 H 228.22852 L 182.33651,85.1987 l -69.42813,31.26746 65.28878,194.49798 h -54.1365 L 75.431895,186.49296 29.38594,154.01106 v 188.0837 188.01528 L 75.431895,497.64525 124.06066,373.17407 h 54.1365 l -65.28878,194.56639 69.42813,31.19905 45.89201,-225.76544 h 43.36051 l -35.40681,250.01995 63.74936,28.71886 63.80067,-28.71886 -35.33838,-250.01995 h 43.29209 l 45.97753,225.76544 69.34261,-31.19905 -65.27168,-194.56639 h 54.11939 l 48.7143,124.47118 46.02885,32.46479 V 342.09476 154.01106 l -46.02885,32.4819 -48.7143,124.47118 H 421.73442 L 487.0061,116.46616 417.66349,85.1987 371.68596,310.96414 H 328.39387 L 363.73225,60.94418 299.93158,32.27664 Z"
     style="fill:url(#linearGradient2998)"
     id="path6" />
</svg>
