<svg xmlns="http://www.w3.org/2000/svg" width="96.135" height="92.768" viewBox="0 0 96.135 92.768"><path d="M18.132 42.557c-1.819 2.195-1.894 4.337-1.668 7.072.661 7.972 4.118 15.46 9.526 21.28 1.452-2.393 3.028-4.832 5.248-6.57L23.179 37.3zm77.718-18.37c-.539-2.505-2.028-4.84-4.25-6.157L55.125.477c-2.155-.868-4.415-.63-5.787 1.366-.53.772-.757 1.694-1.277 2.468-.476-.8-.725-1.718-1.26-2.486-1.305-1.88-3.513-2.187-5.587-1.442-11.917 5.848-23.98 11.406-35.853 17.34-1.894.947-2.81 1.56-3.909 3.481-3.82 6.684.673 14.71 4.549 20.257.136.034.18-.086.257-.158.727-.678 1.544-2.176 2.29-3.018a20 20 0 0 1 1.514-1.503c.176-.156 1.487-1.27 1.61-1.147-1.82 6.96-2.194 14.618-.469 21.645 4.304 17.524 21.879 27.63 36.675 35.463.33.096.582-.106.861-.24 2.45-1.17 5.097-2.723 7.46-4.093 14.758-8.553 29.123-19.806 29.81-38.416.052-1.398.048-2.97 0-4.37-.11-3.324-.619-6.806-1.561-9.989.131-.104 1.376.926 1.563 1.09a22 22 0 0 1 1.771 1.768c.715.82 1.376 2.07 2.097 2.795.072.073.089.214.242.173 3.42-4.919 7.074-11.014 5.728-17.274m-89.33 10.3c-2.07-3.586-3.886-9.106-.507-12.46 2.39.668 4.456 3.364 5.438 5.558.22.49.827 2.047.826 2.504-.002.362-5.325 3.514-5.756 4.4m73.607.42c.25 1.223.69 2.4.958 3.62 1.041 4.731 1.28 10.146.536 14.935-2.71 17.433-19.356 27.204-33.559 34.79-14.367-7.796-31.13-17.584-33.561-35.414-.608-4.458-.377-9.58.557-13.982.288-1.356.796-2.686 1.063-4.036 1.148-5.782-.59-11.703-5.487-15.163L43.178 4c.375-.023.6.681.756 1.005 1.467 3.015 2.679 6.244 4.077 9.298l.233-.132c1.377-2.953 2.536-6.022 3.945-8.958.165-.344.483-1.236.86-1.213l32.546 15.56-2.032 1.818c-3.418 3.702-4.43 8.64-3.436 13.53m9.58-.42-5.754-4.396c.493-2.386 1.887-4.865 3.669-6.53.41-.384 2.217-1.86 2.73-1.426.23.195.831 1.063.988 1.357 1.753 3.295.103 7.99-1.633 10.996M77.943 42.4c1.88 2.205 2.046 4.33 1.82 7.128-.646 7.997-4.093 15.544-9.525 21.383-1.435-2.368-2.982-4.745-5.164-6.498l-.075-.19 7.999-26.92zm-8.41-3.72-5.492 24.53-2.466-1.644c-2.16-1.28-4.5-2.197-6.91-2.892l4.172-34.38c.077-.088.49.22.595.288a102 102 0 0 1 5.892 4.1c3.223 2.43 4.766 5.93 4.208 9.995M37.39 24.292l4.172 34.382c-3.373.918-6.538 2.43-9.326 4.533l-5.54-24.532c-1.054-7.42 4.503-10.378 9.786-13.886.13-.086.823-.593.908-.497M48.08 16.2c-2.146 1.178-5.509 1.683-6.923 3.794-1.536 2.294-.764 4.532-.54 7.057a3115 3115 0 0 0 2.917 31.27 24 24 0 0 1 9.16 0l3.33-35.535c-.23-4.455-4.683-5.054-7.945-6.586"/></svg>