<?xml version="1.0" encoding="UTF-8" standalone="no"?>
<svg
   version="1.1"
   width="486.4603"
   height="529.2049"
   id="svg1"
   xmlns="http://www.w3.org/2000/svg"
   xmlns:svg="http://www.w3.org/2000/svg">
  <defs
     id="defs1" />
  <path
     d="m 408.03627,123.40838 c 2.43903,0 3.61164,-1.15697 3.61164,-3.61163 L 403.70544,8.2270212 c 0,-1.95435 -1.21951,-3.12696 -3.61163,-3.61163 -29.54972,-5.98812 -64.49343,-4.83114996 -94.54347,-3.72107996 C 222.49844,4.0056312 127.47029,47.251411 127.47029,143.31145 c 0,89.1651 94.60601,122.51407 161.77299,153.84615 53.6898,25.15635 80.56598,57.83302 80.56598,98.13946 0,43.98061 -37.80488,71.21639 -75.37524,84.53721 -31.37898,11.05379 -68.82426,19.04315 -102.23577,11.05379 -51.59475,-12.33584 -62.47655,-75.37524 -64.91557,-76.11007 l -17.22952,-9.27142 c -2.43903,0 -3.596,1.21951 -3.596,3.59599 l 11.53846,104.79988 c 0,1.46967 1.21952,2.68918 3.61164,3.61163 7.94246,3.11132 16.66666,5.8005 26.25078,7.94247 28.70544,6.41025 66.33833,3.29893 95.52845,0.23389 84.09944,-8.66166 192.55785,-60.58474 192.55785,-158.42714 0,-22.17011 -6.95747,-47.20138 -19.23077,-65.65041 C 367.41714,227.59787 261.83552,234.13321 209.11507,166.09068 184.56848,134.399 185.72545,81.318951 220.2314,55.240151 c 37.50781,-28.39274 116.22889,-49.5309598 144.07442,1.65729 6.41025,11.78861 21.07567,53.627259 23.45215,53.627259 l 20.2783,12.88306 z m -229.20575,340.6035 c 5.12821,3.72108 10.92871,6.89494 17.77674,8.48968 7.50469,1.76673 15.74421,2.68918 24.60913,2.68918 2.37648,0 5.00312,-0.25015 7.50469,-0.37523 l 81.05065,-85.13133 30.72233,6.28518 c -5.12821,-30.15948 -29.19012,-55.01877 -73.17073,-75.60976 -6.28518,-2.98624 -12.82051,-5.90994 -19.73108,-9.0369 C 198.37398,289.09006 140.16573,262.7142 113.72733,214.46529 L 0,267.04503 166.30707,350.17511 Z M 236.2414,67.091931 c -1.53221,1.1107 -3.17386,2.07943 -4.58099,3.17386 -10.86616,8.19262 -17.90181,20.9506 -19.9187,35.975609 -2.2514,17.29206 2.32959,35.36586 12.28893,48.24891 22.27955,28.83052 56.67605,42.93308 93.0738,57.89556 30.34709,12.46091 61.36648,25.4065 87.14822,47.45153 L 486.46029,111.13508 311.85116,146.4853 Z M 482.30144,424.98749 445.591,417.46717 c 5.31582,-14.16511 8.31769,-29.06504 8.92745,-44.57474 z"
     id="path1" />
</svg>
