<svg xmlns="http://www.w3.org/2000/svg" width="546.516" height="493.773"><path d="M239.691 0c-65.886 0-132.207 39.936-165.98 73.709C22.772 124.648 0 139.333 0 239.691v2.405l2.395 16.771 9.591 50.338v2.393l2.395 7.2 16.805 40.757c4.785 20.53 26.254 38.994 43.146 47.943 7.31 6.337 17.482 9.584 31.162 9.584h23.973c.808 0 54.872-11.877 55.123-11.986 15.319 0 18.248-4.797 33.566-4.797h47.934c8.271 0 9.277 1.768 16.783 2.402 15.92 10.096 22.683-5.55 29.36 28.147 3.747 18.88-1.52 33.5 13.788 43.75v14.39c1.924 1.344 5.912 4.785 7.19 4.785 10.86 0 19.83-2.709 28.758-4.785v-19.175c0-5.53 1.65-7.202 7.19-7.202h7.189c0 19.624-.022 26.967 14.761 24.618 10.402-1.672 33.162-2.241 43.368-3.137l-2.983-19.076h9.57c3.016 6.282 2.754 14.388 11.987 14.388h2.392c9.036 0 31.36-7.538 36.78-14.771l-8.141-17.045 12.096-1.76c1.256 5.376 2.404 5.507 2.404 11.986v7.19c12.98-1.082 47.934-10.838 47.934-23.961v-4.797c0-30.43-43.149-70.846-43.149-79.096v-2.392c0-27.96 26.923-53.54 16.783-69.514l-11.986-28.77v-2.392l-2.393-2.393-9.605-31.173c-2.076-25.076-5.343-50.688-14.379-69.514l-2.392-2.393-26.366-43.136-26.377-33.567-33.554-31.15C372.458 17.559 321.663 0 280.438 0ZM455.39 165.38c23.306 0 26.365 31.721 26.365 57.518l-2.393 4.807v4.787c-1.41 6.075-1.999 11.985-9.582 11.985-.109 0-12.04-8.348-14.379-9.582-12.521-6.633-31.15-17.58-31.15-35.948 0-8.97 3.681-13.963 7.178-19.197l4.785-4.785 2.416-2.383 2.392-2.404c6.59-1.53 9.746-4.786 14.368-4.797m-129.422 35.972h2.383c12.991 0 18.748 4.468 26.375 9.603 17.329 11.593 26.365 35.566 26.365 64.695v4.797c-16.018 33.413-38.384 50.338-86.285 50.338h-4.785c-7.474 0-13.867-4.392-19.166-7.19-10.151-6.795-27.49-27.785-28.78-43.148 0-47.65 38.242-79.106 83.893-79.095m124.658 47.921c3.54 0 19.275 18.128 21.58 21.58l9.572 40.745c.623 7.495 2.403 8.51 2.403 16.771v7.201c0 13.374-15.23 26.17-26.375 28.77-16.444-31.097-36.845-13.101-38.342-31.162l11.965-38.352 2.404-38.351 7.19-4.786c6.435-1.54 4.5-2.405 9.603-2.416"/></svg>