<?xml version="1.0" encoding="UTF-8" standalone="no"?>
<svg
   version="1.1"
   width="599.99963"
   height="610.96289"
   id="svg1"
   xmlns="http://www.w3.org/2000/svg"
   xmlns:svg="http://www.w3.org/2000/svg">
  <defs
     id="defs1" />
  <path
     d="m 39.332031,0 v 14.556641 166.654299 14.55664 h 14.554688 11.746093 c -2.32166,17.24444 -4.230251,34.12358 -5.666015,50.29883 l -0.351563,3.93945 C 57.2783,277.209 55.139241,293.07838 38.841797,301.8457 34.13738,304.35065 20.77321,306.56531 13.197266,307.2832 5.7282397,307.9858 0,314.30971 0,321.83984 c 0.06109632,7.51484 5.8509351,13.77682 13.304688,14.4336 6.812239,0.5963 18.741259,2.75062 24.05664,5.66797 16.816763,9.19499 25.475764,29.82917 27.736328,44.75195 13.838318,89.07844 59.310634,161.63174 124.943364,199.16016 29.35678,16.64875 64.54811,25.10937 104.64257,25.10937 h 3.81836 c 84.78642,0 166.88415,-55.53587 209.19336,-141.51367 14.4951,-29.35679 22.97287,-59.67579 29.95313,-88.07031 5.4223,-22.19324 12.76767,-33.89274 25.35351,-40.44532 5.30011,-2.81043 16.64864,-4.41576 23.03321,-4.66015 7.63704,-0.30548 13.77764,-6.50695 13.96093,-14.20508 0.1674,-7.63704 -5.61986,-14.12838 -13.30273,-14.78516 v 0.002 c -3.81852,-0.36658 -15.51892,-2.21555 -23.56836,-6.75196 -10.44747,-5.91107 -15.27381,-13.71585 -16.48047,-26.85156 -0.94699,-10.79878 -1.72548,-21.65826 -2.44336,-32.45703 -1.06918,-14.90751 -2.20126,-30.24404 -3.82031,-45.45703 h 7.63867 l 4.12305,-7.69727 10.49414,-19.93164 1.67969,-3.22461 V 161.33984 14.679688 0.12304688 H 549.80664 517.59375 339.61914 319.74805 l 5.97265,18.90820312 0.35157,0.962891 h -17 l 6.13867,19.03125 13.36523,41.880859 c 0.41179,1.25247 39.84961,126.85192 39.84961,219.27539 0,76.66061 -17.18229,109.36133 -57.50586,109.36133 h -7.63672 c -61.34071,0 -68.01562,-90.39043 -68.01562,-129.23242 0,-91.0488 38.18474,-214.021114 39.84961,-219.275394 l 13.36523,-41.943359 6.0332,-18.96875012 H 274.64453 L 53.886719,0 Z m 14.554688,14.556641 c 0,0 207.331891,0.123047 220.757811,0.123047 -3.28393,10.264189 -13.36523,41.941406 -13.36523,41.941406 -0.4124,1.31357 -40.56836,128.104256 -40.56836,223.689456 0,43.2562 8.05002,143.79101 82.57226,143.79101 h 7.63672 c 66.8852,0 72.07813,-73.92785 72.07813,-123.91992 0,-95.5241 -40.15631,-222.374482 -40.58399,-223.626952 0,0 -10.07935,-31.739717 -13.36328,-42.003907 h 16.89258 c -2.50495,-7.82033 -5.0101,-15.685994 -6.38477,-19.871093 h 178.03516 32.21289 V 161.33984 l -10.55469,19.87305 h -15.33593 c 0.24439,1.90926 0.53546,3.81785 0.71875,5.66602 3.81852,29.35678 4.88653,58.6993 7.51367,88.11718 1.72597,18.14561 9.25574,30.01197 23.87304,38.1836 h 0.002 c 12.64694,7.16355 29.46289,8.59961 29.46289,8.59961 0,0 -18.60362,0.71918 -29.23438,6.26367 -19.32171,10.0809 -27.5529,28.7593 -32.74609,49.82226 -7.28573,29.4637 -15.33525,57.75225 -28.82227,85.13868 C 457.812,537.87745 384.3576,596.46875 298.50199,596.46875 h -3.81836 c -33.87791,0 -67.89352,-6.44495 -97.43359,-23.26172 C 129.4178,534.48724 91.110957,459.36788 79.533203,384.41797 76.26455,363.24809 64.25865,340.09283 44.402344,329.17188 33.83268,323.38299 14.556641,321.7793 14.556641,321.7793 c 0,0 21.658778,-1.97089 31.205078,-7.16407 25.18696,-13.54811 26.257319,-39.43749 28.701172,-67.23632 1.802342,-20.05487 4.184212,-40.03218 7.101562,-59.96485 l 0.839844,-6.20117 H 53.886719 Z m 42.722656,32.291015 v 82.265624 h 34.472655 c 0,0 -17.24414,86.09939 -17.24414,168.38086 0,82.28148 38.24613,246.83008 191.35352,246.83008 h 3.81836 c 153.09212,0 191.40039,-164.5486 191.40039,-246.83008 0,-82.28147 -17.24414,-168.38086 -17.24414,-168.38086 h 34.42773 V 46.847656 H 383.6543 c 0,0 42.05078,132.027724 42.05078,233.462894 0,101.37408 -36.32276,176.0039 -114.72461,176.0039 h -7.69727 c -78.46296,0 -114.80078,-74.62982 -114.80078,-176.0039 0,-101.43517 42.12696,-233.462894 42.12696,-233.462894 z m 68.960935,16.9375 8.59961,18.970703 18.9707,8.59961 L 174.16992,100 165.57031,118.91016 156.92578,100 l -18.91016,-8.644531 18.91016,-8.59961 z m 283.53321,0 8.64453,18.970703 18.91015,8.59961 L 457.74805,100 449.10352,118.91016 440.50391,100 421.5332,91.355469 440.50391,82.755859 Z M 156.80469,180.78516 c 10.85987,0 19.56445,8.78235 19.56445,19.62695 0,10.85987 -8.70458,19.64258 -19.56445,19.64258 -10.85987,0 -19.62891,-8.78271 -19.62891,-19.64258 0,-10.8446 8.76904,-19.62695 19.62891,-19.62695 z m 300.41015,0 c 10.85987,0 19.62696,8.78235 19.62696,19.62695 0,10.85987 -8.76709,19.64258 -19.62696,19.64258 -10.79878,0 -19.62695,-8.78271 -19.62695,-19.64258 0,-10.8446 8.82817,-19.62695 19.62695,-19.62695 z m -306.13867,88.9707 c 10.79877,0 19.56641,8.76708 19.56641,19.62695 0,10.85988 -8.76764,19.62696 -19.56641,19.62696 -10.85987,0 -19.62695,-8.76708 -19.62695,-19.62696 0,-10.85987 8.76708,-19.62695 19.62695,-19.62695 z m 311.86719,0 c 10.85987,0 19.62695,8.76903 19.62695,19.62891 0,10.85987 -8.76708,19.62695 -19.62695,19.62695 -10.85987,0 -19.62695,-8.76708 -19.62695,-19.62695 0,-10.85988 8.76708,-19.62891 19.62695,-19.62891 z m -300.41211,85.13867 c 10.79877,0 19.62695,8.76708 19.62695,19.62695 0,10.85988 -8.82818,19.62696 -19.62695,19.62696 -10.85987,0 -19.62695,-8.76708 -19.62695,-19.62696 0,-10.85987 8.76708,-19.62695 19.62695,-19.62695 z m 288.95508,0 c 10.79877,0 19.5664,8.76708 19.5664,19.62695 0,10.85988 -8.76763,19.62696 -19.5664,19.62696 -10.85987,0 -19.62695,-8.76708 -19.62695,-19.62696 -10e-6,-10.85987 8.76708,-19.62695 19.62695,-19.62695 z M 199.81641,433.3418 c 10.85987,0 19.64062,8.7827 19.64062,19.64258 0,10.85987 -8.78075,19.62695 -19.64062,19.62695 -10.79877,0 -19.56641,-8.76708 -19.56641,-19.62695 0,-10.85988 8.76764,-19.64258 19.56641,-19.64258 z m 214.32617,0 c 10.85987,0 19.62695,8.7827 19.62695,19.64258 0,10.85986 -8.76708,19.62695 -19.62695,19.62695 -10.85987,0 -19.62696,-8.76708 -19.62696,-19.62695 10e-6,-10.85988 8.76709,-19.64258 19.62696,-19.64258 z m -25.47852,41.65234 c -10.50857,34.42778 -58.83398,47.38086 -58.83398,47.38086 16.29684,-20.58946 0.47265,-39.74414 0.47265,-39.74414 28.2265,10.0809 58.36133,-7.63672 58.36133,-7.63672 z m -163.12695,0.96289 c 0,0 30.13644,17.65652 58.34766,7.63672 0,0 -15.74806,19.13765 0.48828,39.66602 0,0 -48.28155,-12.89024 -58.83594,-47.30274 z m 81.79297,7.14844 c 10.85987,0 19.64258,8.82818 19.64258,19.62695 0,10.79878 -8.78271,19.64258 -19.64258,19.64258 -10.79878,0 -19.56641,-8.8438 -19.56641,-19.64258 0,-10.79877 8.76763,-19.62695 19.56641,-19.62695 z"
     id="path1" />
</svg>
