<?xml version="1.0" encoding="UTF-8" standalone="no"?>
<svg
   id="Layer_2"
   data-name="Layer 2"
   viewBox="0 0 865.49001 595.06001"
   version="1.1"
   width="865.48999"
   height="595.06"
   xmlns="http://www.w3.org/2000/svg"
   xmlns:svg="http://www.w3.org/2000/svg">
  <defs
     id="defs3">
    <style
       id="style1">
      .cls-1 {
        fill: url(#linear-gradient);
      }

      .cls-1, .cls-2 {
        stroke-width: 0px;
      }
    </style>
    <linearGradient
       id="linear-gradient"
       x1="-1.67"
       y1="25.76"
       x2="633.83002"
       y2="661.25"
       gradientUnits="userSpaceOnUse">
      <stop
         offset="0"
         stop-color="#8d742f"
         id="stop1" />
      <stop
         offset=".52"
         stop-color="#d7bd74"
         id="stop2" />
      <stop
         offset="1"
         stop-color="#8d742f"
         id="stop3" />
    </linearGradient>
  </defs>
  <g
     id="Layer_1-2"
     data-name="Layer 1">
    <g
       id="g4">
      <path
         class="cls-1"
         d="m 12,583.06 v -21.73 l 43.1,-26.7 V 57.94 L 12,34.67 V 12.09 L 245.45,12 v 25.32 l -49.22,21.27 v 182.29 h 136.2 V 120.91 c 0,-16.47 -1.02,-30.29 -3.04,-41.07 -1.81,-9.65 -4.64,-17.06 -8.42,-22.01 -4,-5.24 -7.93,-9.04 -11.7,-11.29 -4.33,-2.6 -10.34,-5.18 -17.86,-7.69 l -8.2,-2.74 V 12.03 h 233.42 v 22.59 l -43.1,23.27 V 338.78 H 607.78 V 195.88 H 712.1 v 142.9 h 141.39 v 101.3 H 712.1 v 142.9 H 607.78 V 440.08 H 473.53 v 42.96 c -0.14,10.19 1.07,20.32 2.93,32.37 1.82,9.61 4.66,17.05 8.46,22.13 3.98,5.32 7.88,9.15 11.6,11.36 4.35,2.59 10.37,5.18 17.9,7.72 l 8.18,2.75 v 23.67 H 289.18 v -21.73 l 43.1,-26.7 V 402.46 l 0.11,-112.45 -43.38,33.64 h -92.8 v 150.5 c 0,16.47 1.02,30.3 3.05,41.1 1.82,9.71 4.67,17.21 8.48,22.29 3.99,5.32 7.9,9.15 11.64,11.39 4.33,2.59 10.34,5.18 17.86,7.69 l 8.2,2.74 v 23.69 H 12 Z"
         id="path3"
         style="fill:url(#linear-gradient)" />
      <path
         class="cls-2"
         d="m 233.45,24.01 v 5.43 l -49.22,21.27 v 202.18 h 160.2 V 120.91 c 0,-17.29 -1.08,-31.71 -3.25,-43.28 -2.17,-11.57 -5.72,-20.6 -10.67,-27.08 -4.95,-6.48 -9.97,-11.25 -15.08,-14.31 -5.1,-3.05 -11.84,-5.98 -20.22,-8.78 v -3.43 h 209.42 v 3.43 l -43.1,23.27 v 432.15 c -0.15,11.62 1.33,23.11 3.1,34.55 2.17,11.57 5.72,20.66 10.67,27.28 4.95,6.62 9.97,11.45 15.08,14.49 5.1,3.04 11.84,5.96 20.22,8.78 v 3.05 H 301.18 v -3.05 l 43.1,-26.7 V 402.45 l 0.13,-136.96 -59.51,46.15 H 184.21 v 162.5 c 0,17.29 1.08,31.72 3.25,43.31 2.17,11.59 5.72,20.68 10.67,27.28 4.95,6.6 9.97,11.43 15.08,14.49 5.1,3.05 11.84,5.98 20.22,8.78 v 3.05 H 24 V 568 L 67.1,541.3 V 50.78 L 24,27.52 V 24.09 L 233.45,24.01 M 700.1,207.89 v 142.9 h 141.39 v 77.3 H 700.1 v 142.9 h -80.32 v -142.9 h -141 v -77.3 h 141 V 207.89 H 700.1 M 257.45,0 h -24.01 c 0,0 -209.45,0.09 -209.45,0.09 H 0 v 41.75 l 12.6,6.8 30.5,16.46 V 527.95 L 11.36,547.61 0,554.65 v 40.41 h 257.42 v -44.33 l -16.4,-5.48 c -8.34,-2.78 -13.03,-5.13 -15.5,-6.61 -1.35,-0.81 -4.2,-2.95 -8.2,-8.29 -1.86,-2.48 -4.45,-7.49 -6.29,-17.3 -1.89,-10.08 -2.84,-23.17 -2.84,-38.89 v -138.5 h 84.91 l 6.49,-5.03 20.76,-16.1 -0.08,87.92 v 125.48 l -31.74,19.66 -11.36,7.04 v 40.41 h 257.42 v -44.3 l -16.35,-5.5 c -8.38,-2.82 -13.1,-5.17 -15.59,-6.65 -1.33,-0.79 -4.15,-2.91 -8.13,-8.23 -1.84,-2.46 -4.4,-7.4 -6.24,-16.97 -1.75,-11.37 -2.88,-20.87 -2.76,-30.18 v -0.16 c 0,0 0,-0.16 0,-0.16 v -30.8 h 110.26 v 142.9 H 724.1 V 452.09 H 865.49 V 326.79 H 724.1 V 183.89 H 595.78 v 142.9 H 485.52 V 65.05 l 30.5,-16.46 12.6,-6.8 V 0.03 H 271.2 v 44.72 l 16.4,5.48 c 8.34,2.78 13.03,5.13 15.5,6.61 1.38,0.83 4.3,3 8.32,8.28 1.48,1.94 4.25,6.72 6.16,16.94 1.88,10.06 2.84,23.14 2.84,38.86 V 228.89 H 208.22 V 66.48 l 34.74,-15.01 14.48,-6.26 V 0 0 Z"
         id="path4" />
    </g>
  </g>
</svg>
