<?xml version="1.0" encoding="UTF-8" standalone="no"?>
<svg
   id="Layer_2"
   data-name="Layer 2"
   viewBox="0 0 817.49001 547.05"
   version="1.1"
   width="817.48999"
   height="547.04999"
   xmlns="http://www.w3.org/2000/svg"
   xmlns:svg="http://www.w3.org/2000/svg">
  <defs
     id="defs1">
    <style
       id="style1">
      .cls-1 {
        stroke-width: 0px;
      }
    </style>
  </defs>
  <g
     id="Layer_1-2"
     data-name="Layer 1">
    <path
       class="cls-1"
       d="M 209.45,0 V 5.43 L 160.23,26.7 v 202.18 h 160.2 V 96.9 c 0,-17.29 -1.08,-31.71 -3.25,-43.28 -2.17,-11.57 -5.72,-20.6 -10.67,-27.08 -4.95,-6.48 -9.97,-11.25 -15.08,-14.31 -5.1,-3.05 -11.84,-5.98 -20.22,-8.78 V 0.03 h 209.42 v 3.43 l -43.1,23.27 v 432.15 c -0.15,11.62 1.33,23.11 3.1,34.55 2.17,11.57 5.72,20.66 10.67,27.28 4.95,6.62 9.97,11.45 15.08,14.49 5.1,3.04 11.84,5.96 20.22,8.78 v 3.05 H 277.18 v -3.05 l 43.1,-26.7 V 378.45 l 0.13,-136.96 -59.51,46.15 H 160.21 v 162.5 c 0,17.29 1.08,31.72 3.25,43.31 2.17,11.59 5.72,20.68 10.67,27.28 4.95,6.6 9.97,11.43 15.08,14.49 5.1,3.05 11.84,5.98 20.22,8.78 v 3.05 H 0 V 544 L 43.1,517.3 V 26.77 L 0,3.51 V 0.08 Z m 386.33,404.07 v 142.9 h 80.32 v -142.9 h 141.39 v -77.3 H 676.1 v -142.9 h -80.32 v 142.9 h -141 v 77.3 z"
       id="path1" />
  </g>
</svg>
