<?xml version="1.0" encoding="UTF-8"?>
<svg id="Layer_2" data-name="Layer 2" xmlns="http://www.w3.org/2000/svg" viewBox="0 0 817.48 547.05">
  <defs>
    <style>
      .cls-1 {
        stroke-width: 0px;
      }
    </style>
  </defs>
  <g id="Layer_1-2" data-name="Layer 1">
    <path class="cls-1" d="m209.45,0v5.43l-49.22,21.27v202.18h160.2V96.9c0-17.29-1.08-31.71-3.25-43.28-2.17-11.57-5.72-20.6-10.67-27.08-4.95-6.48-9.97-11.25-15.08-14.31-5.1-3.05-11.84-5.98-20.22-8.78V.03h209.42v3.43l-43.1,23.27v432.15c-.15,11.62,1.33,23.11,3.1,34.55,2.17,11.57,5.72,20.66,10.67,27.28,4.95,6.62,9.97,11.45,15.08,14.49,5.1,3.04,11.84,5.96,20.22,8.78v3.05h-209.42v-3.05l43.1-26.7v-138.83l.13-136.96-59.51,46.15h-100.69v162.5c0,17.29,1.08,31.72,3.25,43.31,2.17,11.59,5.72,20.68,10.67,27.28,4.95,6.6,9.97,11.43,15.08,14.49,5.1,3.05,11.84,5.98,20.22,8.78v3.05H0v-3.05l43.1-26.7V26.77L0,3.51V.08l209.45-.08Zm386.33,404.07v142.9h80.32v-142.9h141.39v-77.3h-141.39v-142.9h-80.32v142.9h-141v77.3h141Z"/>
  </g>
</svg>