<?xml version="1.0" encoding="UTF-8" standalone="no"?>
<svg
   id="Layer_2"
   data-name="Layer 2"
   viewBox="0 0 501.94432 867.53995"
   version="1.1"
   width="501.94434"
   height="867.53998"
   xmlns="http://www.w3.org/2000/svg"
   xmlns:svg="http://www.w3.org/2000/svg">
  <defs
     id="defs7">
    <style
       id="style1">
      .cls-1 {
        fill: url(#New_Gradient_Swatch_10);
      }

      .cls-1, .cls-2 {
        stroke-width: 0px;
      }
    </style>
    <linearGradient
       id="New_Gradient_Swatch_10"
       data-name="New Gradient Swatch 10"
       x1="473.70001"
       y1="638.37"
       x2="28.299999"
       y2="192.97"
       gradientUnits="userSpaceOnUse">
      <stop
         offset=".05"
         stop-color="#626e77"
         id="stop1" />
      <stop
         offset=".23"
         stop-color="#90a2ae"
         id="stop2" />
      <stop
         offset=".41"
         stop-color="#b7cfde"
         id="stop3" />
      <stop
         offset=".5"
         stop-color="#c7e1f1"
         id="stop4" />
      <stop
         offset=".59"
         stop-color="#b7cfde"
         id="stop5" />
      <stop
         offset=".77"
         stop-color="#90a2ae"
         id="stop6" />
      <stop
         offset=".95"
         stop-color="#626e77"
         id="stop7" />
    </linearGradient>
  </defs>
  <g
     id="Layer_1-2"
     data-name="Layer 1"
     transform="translate(0.00377605,0.02)">
    <g
       id="g8">
      <path
         class="cls-1"
         d="m 250.98,856.53 c -5.48,0 -10.12,-4.03 -10.89,-9.46 -0.97,-6.84 -3.56,-25.08 -3.93,-27.39 -0.02,-0.15 -0.04,-0.29 -0.06,-0.44 -1.07,-9.02 -1.9,-17.62 -2.81,-27.75 -2.12,-24.75 -3.56,-32.98 -8.26,-57.72 -8.46,-44.44 -20.48,-82.22 -36.76,-115.52 -20.91,-42.89 -49.6,-80.9 -82.98,-109.93 -26.34,-22.92 -55.67,-40.6 -87.18,-52.54 -4.56,-1.73 -7.44,-6.25 -7.07,-11.12 5.55,-73.21 10.19,-129.01 15.04,-180.93 0.45,-4.62 0.84,-8.83 1.21,-12.83 1.21,-13.01 2.25,-24.25 4.33,-39.38 0.01,-0.08 0.02,-0.16 0.04,-0.24 0.22,-1.39 0.52,-3.4 0.91,-6 0.6,-4.02 1.41,-9.41 2.45,-16.05 0.83,-5.25 5.29,-9.17 10.61,-9.29 0.09,0 0.17,0 0.26,0 5.21,0 9.72,3.66 10.77,8.79 0.21,1.01 0.4,2.14 0.58,3.19 0.1,0.61 0.2,1.18 0.29,1.66 0.02,0.11 0.04,0.22 0.06,0.32 0.72,4.42 2.38,14.66 3.46,21.8 0,0.06 0.02,0.11 0.02,0.17 1.76,12.96 3.34,26.11 4.87,38.84 1.8,14.99 3.67,30.49 5.82,45.63 3.02,21.22 6.58,43.92 12.1,66.04 1.56,6.09 3.07,11.57 4.77,16.71 3.68,-1.34 7.34,-2.57 10.93,-3.72 2.31,-6.99 4.08,-14.1 5.54,-20.34 2.71,-11.9 5.19,-25.11 7.81,-41.51 7.81,-49.94 12.93,-101.29 17.88,-150.94 0.82,-8.24 1.64,-16.49 2.48,-24.73 l 0.25,-2.42 c 0.99,-9.7 2.01,-19.73 3.31,-29.64 0.01,-0.08 0.02,-0.16 0.03,-0.24 0.54,-3.51 0.68,-4.21 1.8,-9.6 l 0.11,-0.53 c 1.06,-5.12 5.57,-8.77 10.77,-8.77 0.08,0 0.16,0 0.24,0 5.3,0.11 9.77,3.99 10.62,9.23 l 0.04,0.24 c 1.01,6.21 1.97,12.08 2.7,22.45 1.21,12.92 2.39,25.84 3.57,38.77 3.31,36.36 6.74,73.96 10.95,110.79 2.48,21.39 5.49,46.23 9.77,70.15 l 0.12,0.64 c 1.26,6.6 2.48,12.95 4.11,19.06 3.97,-0.35 7.98,-0.69 11.99,-1 5.71,-19.81 9.22,-40.1 12.15,-59.23 3.35,-22.48 6.14,-46.85 8.77,-76.63 1.88,-21.2 3.56,-43.95 5.3,-71.62 1.33,-21.06 6.26,-87.62 9.92,-132.4 0.46,-5.69 5.2,-10.08 10.91,-10.1 h 0.06 c 5.68,0 10.43,4.33 10.95,9.99 4.46,48.48 8.63,103.12 10.44,132.05 3.05,47.17 6.64,97.45 13.97,147.75 2.92,19.31 6.44,39.87 12.27,60.13 3.97,0.3 7.97,0.62 11.98,0.98 2.61,-9.73 4.29,-19.83 6.05,-30.38 l 0.33,-1.98 c 1.87,-11.69 3.62,-24.31 5.5,-39.65 5.36,-43.93 9.44,-88.83 13.39,-132.26 0.75,-8.27 1.5,-16.54 2.26,-24.81 0,-0.04 0,-0.07 0.01,-0.11 0.29,-2.87 0.56,-5.74 0.82,-8.61 0.74,-7.99 1.5,-16.25 2.86,-24.48 0.86,-5.2 5.29,-9.06 10.56,-9.2 0.1,0 0.2,0 0.3,0 5.15,0 9.63,3.58 10.74,8.63 l 0.41,1.86 c 0.52,2.34 0.84,3.75 1.2,6.06 0,0.05 0.02,0.1 0.02,0.15 0.99,6.9 1.74,13.86 2.46,20.59 l 0.2,1.89 c 1.26,12.23 2.48,24.4 3.69,36.58 3.62,36.25 7.36,73.73 12.09,110.4 2.53,19.61 5.74,42.85 10.29,66.49 2.46,12.44 5.02,24.64 8.89,36.28 3.91,1.25 7.51,2.48 10.89,3.71 0.81,-2.49 1.56,-4.97 2.27,-7.4 4.93,-17.21 8.2,-35.04 10.49,-48.64 4.12,-24.31 7.15,-49.33 10.08,-73.51 1.4,-11.55 2.84,-23.5 4.4,-35.26 0,-0.07 0.02,-0.14 0.03,-0.21 0.33,-2.16 0.64,-4.31 0.96,-6.53 0.91,-6.27 1.93,-13.37 3.63,-22.66 0.96,-5.22 5.51,-9.02 10.82,-9.02 h 0.02 c 5.32,0 9.87,3.82 10.81,9.05 1.34,7.45 1.75,10.17 2.07,12.36 0.13,0.85 0.24,1.62 0.41,2.62 0.01,0.08 0.03,0.17 0.04,0.25 2.18,15.53 3.75,31.3 5.26,46.54 l 0.34,3.37 c 0.37,3.99 0.74,7.92 1.11,11.84 1.3,13.75 2.65,27.96 3.69,42.02 0.06,0.35 0.1,0.72 0.14,1.09 0.08,0.74 0.17,1.72 0.27,2.74 0.09,0.99 0.19,2 0.27,2.82 l 0.02,0.19 c 4.31,50.85 7.63,92.15 10.43,129.97 0.36,4.86 -2.52,9.38 -7.08,11.1 -23.3,8.82 -45.71,20.99 -66.62,36.17 -26.79,19.45 -50.8,43.81 -71.37,72.39 -20.57,28.57 -37.09,60.38 -49.1,94.55 -13.81,39.3 -22.98,82.64 -28.03,132.5 -0.69,6.37 -1.05,9.46 -1.37,12.2 -0.4,3.44 -0.72,6.15 -1.51,13.89 -0.01,0.11 -0.02,0.22 -0.04,0.33 -0.83,6.26 -3.93,29.19 -3.93,29.19 -0.74,5.44 -5.37,9.51 -10.87,9.53 h -0.04 z"
         id="path7"
         style="fill:url(#New_Gradient_Swatch_10)" />
      <path
         class="cls-2"
         d="m 250.75,22 c 4.24,45.99 8.52,101.36 10.42,131.73 3.21,49.65 6.88,99.35 14.07,148.65 3.52,23.26 7.7,46.52 14.81,68.96 9.42,0.69 18.84,1.39 28.24,2.41 4.65,-13.73 6.93,-28.11 9.32,-42.39 2.13,-13.32 3.93,-26.73 5.57,-40.13 6.39,-52.35 10.86,-104.9 15.69,-157.4 1.1,-10.81 1.82,-21.69 3.59,-32.42 0.81,3.66 1.1,4.83 1.49,7.27 1.05,7.34 1.82,14.74 2.62,22.1 5.06,49.09 9.5,98.25 15.81,147.21 2.9,22.46 6.11,44.9 10.4,67.16 2.88,14.53 5.96,29.11 11.14,43.05 8.73,2.67 17.41,5.6 25.8,9.19 2.64,-6.03 4.62,-12.32 6.47,-18.64 4.7,-16.38 7.96,-33.14 10.78,-49.91 6.14,-36.2 9.73,-72.76 14.53,-109.16 1.26,-8.29 2.28,-16.54 4.53,-28.86 1.86,10.32 1.86,11.22 2.45,14.82 2.31,16.43 3.9,32.96 5.55,49.47 1.67,17.95 3.47,35.86 4.8,53.81 0,0 0,0 0,0 0.06,0 0.44,4.27 0.69,6.73 3.67,43.26 7.21,86.54 10.42,129.85 -24.62,9.32 -47.91,22.1 -69.19,37.56 -28.5,20.69 -53.27,46.29 -73.83,74.86 -21.44,29.78 -38.38,62.72 -50.55,97.33 -15.3,43.54 -23.95,89.19 -28.6,135.04 -1.51,14.07 -1.44,12.01 -2.88,26.08 -0.83,6.25 -3.92,29.17 -3.92,29.17 0,0 -3.5,-24.67 -3.96,-27.57 -1.1,-9.34 -1.94,-18.11 -2.78,-27.45 -2.16,-25.24 -3.68,-33.88 -8.4,-58.78 C 228.08,691 216.4,650.77 198.14,613.44 177.27,570.62 148.51,531.36 112.5,500.04 85.8,476.81 55.12,458.07 22,445.51 c 4.57,-60.28 9.4,-120.53 15.02,-180.74 1.9,-19.56 2.82,-32.28 5.49,-51.74 0.56,-3.54 1.64,-11.09 3.37,-22.07 0.32,1.57 0.59,3.45 0.84,4.74 0.68,4.13 2.34,14.41 3.45,21.68 3.83,28.14 6.7,56.4 10.71,84.54 3.21,22.54 6.8,45.06 12.32,67.16 2.46,9.6 5.16,19.23 9.09,28.37 8.4,-3.62 17.1,-6.5 25.83,-9.22 3.26,-8.68 5.6,-17.66 7.7,-26.67 3.18,-13.99 5.7,-28.11 7.96,-42.28 9.14,-58.46 14.48,-117.43 20.44,-176.3 1.08,-10.58 2.13,-21.18 3.52,-31.73 0.51,-3.34 0.59,-3.68 1.81,-9.58 1.01,6.16 1.93,11.74 2.63,21.82 4.7,49.98 8.86,100.02 14.56,149.9 2.75,23.7 5.67,47.42 9.88,70.91 1.9,9.91 3.77,19.9 7.16,29.45 9.4,-0.85 18.79,-1.69 28.21,-2.34 7.03,-22.13 11.17,-45.06 14.69,-67.98 3.83,-25.67 6.57,-51.47 8.86,-77.33 2.12,-23.95 3.82,-47.92 5.33,-71.9 1.27,-20.16 6.15,-86.2 9.9,-132.2 M 250.75,0 c 0,0 -0.08,0 -0.12,0 -11.41,0.06 -20.88,8.84 -21.81,20.21 -3.66,44.84 -8.6,111.51 -9.93,132.61 -1.74,27.55 -3.41,50.22 -5.28,71.34 -2.61,29.53 -5.37,53.68 -8.7,76 -1.92,12.52 -4.09,25.52 -6.96,38.49 -4.07,-23.1 -6.97,-47.06 -9.37,-67.8 -4.19,-36.67 -7.61,-74.2 -10.92,-110.5 -1.16,-12.67 -2.35,-25.77 -3.56,-38.67 -0.76,-10.8 -1.8,-17.17 -2.81,-23.33 l -0.04,-0.23 C 169.54,87.65 160.61,79.89 150,79.67 c -0.16,0 -0.31,0 -0.47,0 -10.41,0 -19.42,7.31 -21.54,17.54 l -0.11,0.54 c -1.14,5.51 -1.32,6.36 -1.9,10.16 -0.02,0.16 -0.05,0.32 -0.07,0.48 -1.32,10.06 -2.35,20.16 -3.34,29.93 l -0.25,2.44 c -0.84,8.27 -1.66,16.52 -2.48,24.77 -4.94,49.5 -10.04,100.69 -17.8,150.36 -2.57,16.11 -5.01,29.07 -7.67,40.76 -0.25,1.06 -0.5,2.15 -0.77,3.25 -4.88,-20.43 -8.14,-41.38 -10.94,-61.07 -2.14,-15.03 -4,-30.47 -5.79,-45.4 -1.53,-12.77 -3.12,-25.97 -4.9,-39 -0.02,-0.11 -0.03,-0.23 -0.05,-0.34 -1.16,-7.65 -2.91,-18.43 -3.49,-21.94 -0.03,-0.21 -0.07,-0.43 -0.11,-0.64 -0.08,-0.39 -0.15,-0.86 -0.23,-1.36 -0.17,-1.03 -0.39,-2.32 -0.65,-3.61 -2.11,-10.25 -11.13,-17.57 -21.54,-17.57 -0.18,0 -0.35,0 -0.52,0 -10.63,0.25 -19.57,8.07 -21.22,18.58 -1.05,6.7 -1.87,12.16 -2.47,16.15 -0.38,2.55 -0.68,4.51 -0.89,5.87 -0.02,0.16 -0.05,0.32 -0.07,0.47 -2.11,15.36 -3.16,26.7 -4.38,39.84 -0.37,3.99 -0.76,8.19 -1.2,12.76 0,0.03 0,0.05 0,0.08 C 8.9,329.27 3.81,394.47 0.06,443.84 c -0.74,9.73 5.02,18.78 14.14,22.23 30.28,11.48 58.5,28.49 83.85,50.55 32.28,28.07 60.05,64.88 80.31,106.44 15.86,32.43 27.58,69.31 35.85,112.77 4.61,24.31 6.03,32.39 8.1,56.54 0,0.04 0,0.08 0.01,0.11 0.93,10.22 1.76,18.9 2.85,28.05 0.03,0.29 0.08,0.59 0.12,0.88 0.31,1.98 2.56,17.73 3.9,27.2 1.54,10.85 10.83,18.91 21.78,18.91 0.02,0 0.05,0 0.07,0 10.98,-0.04 20.26,-8.17 21.73,-19.06 0.03,-0.23 3.11,-23.01 3.93,-29.22 0.03,-0.22 0.05,-0.44 0.08,-0.66 0.78,-7.66 1.1,-10.34 1.49,-13.73 0.32,-2.76 0.69,-5.88 1.37,-12.23 0,-0.05 0,-0.09 0.01,-0.14 4.96,-48.98 13.95,-91.49 27.47,-129.96 11.66,-33.17 27.7,-64.05 47.65,-91.77 19.88,-27.63 43.07,-51.15 68.91,-69.91 20.12,-14.61 41.67,-26.31 64.05,-34.79 9.11,-3.45 14.87,-12.48 14.15,-22.2 -2.81,-37.89 -6.13,-79.23 -10.44,-130.09 -0.01,-0.12 -0.02,-0.25 -0.03,-0.37 -0.08,-0.79 -0.17,-1.77 -0.26,-2.73 -0.1,-1.05 -0.2,-2.07 -0.28,-2.83 -0.06,-0.55 -0.11,-1.01 -0.15,-1.33 0,-0.06 -0.02,-0.12 -0.02,-0.18 -1.05,-13.91 -2.37,-27.92 -3.65,-41.47 -0.37,-3.93 -0.74,-7.87 -1.11,-11.8 0,-0.05 0,-0.09 -0.01,-0.14 l -0.34,-3.4 c -1.52,-15.35 -3.1,-31.21 -5.31,-46.96 -0.02,-0.17 -0.05,-0.33 -0.08,-0.5 -0.15,-0.93 -0.26,-1.65 -0.38,-2.44 -0.34,-2.26 -0.76,-5.08 -2.13,-12.7 -1.88,-10.47 -10.98,-18.08 -21.62,-18.1 -0.01,0 -0.02,0 -0.03,0 -10.62,0 -19.72,7.59 -21.64,18.03 -1.74,9.49 -2.78,16.7 -3.7,23.07 -0.32,2.2 -0.62,4.32 -0.95,6.45 -0.02,0.14 -0.04,0.28 -0.06,0.42 -1.56,11.82 -3.01,23.8 -4.41,35.38 -2.91,24.06 -5.92,48.94 -10,72.98 -1.68,9.95 -3.88,22.17 -6.87,34.68 -1.48,-6.17 -2.77,-12.49 -4.04,-18.9 -4.49,-23.33 -7.66,-46.34 -10.17,-65.77 -4.71,-36.52 -8.45,-73.92 -12.06,-110.09 -1.2,-11.98 -2.43,-24.36 -3.69,-36.55 0,-0.04 0,-0.07 -0.01,-0.11 l -0.21,-1.98 c -0.73,-6.79 -1.49,-13.82 -2.5,-20.88 -0.01,-0.1 -0.03,-0.21 -0.05,-0.31 -0.42,-2.65 -0.78,-4.28 -1.33,-6.75 l -0.4,-1.82 c -2.23,-10.11 -11.18,-17.27 -21.48,-17.27 -0.2,0 -0.39,0 -0.59,0 -10.54,0.28 -19.4,8 -21.12,18.41 -1.42,8.62 -2.2,17.08 -2.96,25.25 -0.27,2.94 -0.53,5.72 -0.81,8.52 0,0.07 -0.01,0.15 -0.02,0.22 -0.76,8.29 -1.51,16.57 -2.27,24.86 -3.94,43.33 -8.01,88.13 -13.35,131.89 -1.86,15.16 -3.59,27.64 -5.45,39.25 l -0.32,1.9 c -0.5,2.98 -0.99,5.93 -1.5,8.84 C 301.12,325.2 298.93,311.89 297,299.11 289.73,249.24 286.16,199.24 283.13,152.29 281.32,123.35 277.14,68.58 272.66,19.96 271.62,8.63 262.12,-0.02 250.75,-0.02 v 0 z"
         id="path8" />
    </g>
  </g>
</svg>
