<?xml version="1.0" encoding="UTF-8" standalone="no"?>
<svg
   id="Layer_2"
   data-name="Layer 2"
   viewBox="0 0 457.93999 823.53995"
   version="1.1"
   width="457.94"
   height="823.53998"
   xmlns="http://www.w3.org/2000/svg"
   xmlns:svg="http://www.w3.org/2000/svg">
  <defs
     id="defs1">
    <style
       id="style1">
      .cls-1 {
        stroke-width: 0px;
      }
    </style>
  </defs>
  <g
     id="Layer_1-2"
     data-name="Layer 1">
    <path
       class="cls-1"
       d="m 228.75,0 c 4.24,45.99 8.52,101.36 10.42,131.73 3.21,49.65 6.88,99.35 14.07,148.65 3.52,23.26 7.7,46.52 14.81,68.96 9.42,0.69 18.84,1.39 28.24,2.41 4.65,-13.73 6.93,-28.11 9.32,-42.39 2.13,-13.32 3.93,-26.73 5.57,-40.13 6.39,-52.35 10.86,-104.9 15.69,-157.4 1.1,-10.81 1.82,-21.69 3.59,-32.42 0.81,3.66 1.1,4.83 1.49,7.27 1.05,7.34 1.82,14.74 2.62,22.1 5.06,49.09 9.5,98.25 15.81,147.21 2.9,22.46 6.11,44.9 10.4,67.16 2.88,14.53 5.96,29.11 11.14,43.05 8.73,2.67 17.41,5.6 25.8,9.19 2.64,-6.03 4.62,-12.32 6.47,-18.64 4.7,-16.38 7.96,-33.14 10.78,-49.91 6.14,-36.2 9.73,-72.76 14.53,-109.16 1.26,-8.29 2.28,-16.54 4.53,-28.86 1.86,10.32 1.86,11.22 2.45,14.82 2.31,16.43 3.9,32.96 5.55,49.47 1.67,17.95 3.47,35.86 4.8,53.81 0.05,-0.21 0.44,4.21 0.69,6.73 3.67,43.26 7.21,86.54 10.42,129.85 -24.62,9.32 -47.91,22.1 -69.19,37.56 -28.5,20.69 -53.27,46.29 -73.83,74.86 -21.44,29.78 -38.38,62.72 -50.55,97.33 -15.3,43.54 -23.95,89.19 -28.6,135.04 -1.51,14.07 -1.44,12.01 -2.88,26.08 -0.83,6.25 -3.92,29.17 -3.92,29.17 0,0 -3.5,-24.67 -3.96,-27.57 -1.1,-9.34 -1.94,-18.11 -2.78,-27.45 -2.16,-25.24 -3.68,-33.88 -8.4,-58.78 C 206.08,669 194.4,628.77 176.14,591.44 155.27,548.62 126.51,509.36 90.5,478.04 63.8,454.81 33.12,436.06 0,423.51 4.57,363.23 9.4,302.98 15.02,242.77 c 1.9,-19.56 2.82,-32.28 5.49,-51.74 0.56,-3.54 1.64,-11.09 3.37,-22.07 0.32,1.57 0.59,3.45 0.84,4.74 0.68,4.13 2.34,14.41 3.45,21.68 3.83,28.14 6.7,56.4 10.71,84.54 3.21,22.54 6.8,45.06 12.32,67.16 2.46,9.6 5.16,19.23 9.09,28.37 8.4,-3.62 17.1,-6.5 25.83,-9.22 3.26,-8.68 5.6,-17.66 7.7,-26.67 3.18,-13.99 5.7,-28.11 7.96,-42.28 9.14,-58.46 14.48,-117.43 20.44,-176.3 1.08,-10.58 2.13,-21.18 3.52,-31.73 0.51,-3.34 0.59,-3.68 1.81,-9.58 1.01,6.16 1.93,11.74 2.63,21.82 4.7,49.98 8.86,100.02 14.56,149.9 2.75,23.7 5.67,47.42 9.88,70.91 1.9,9.91 3.77,19.9 7.16,29.45 9.4,-0.85 18.79,-1.69 28.21,-2.34 7.03,-22.13 11.17,-45.06 14.68,-67.98 3.83,-25.67 6.57,-51.47 8.86,-77.33 2.12,-23.95 3.82,-47.92 5.33,-71.9 1.27,-20.16 6.15,-86.2 9.9,-132.2 z"
       id="path1" />
  </g>
</svg>
