<svg xmlns="http://www.w3.org/2000/svg" width="66.714" height="47.505" viewBox="0 0 66.714 47.505"><path d="M17.833 0c-4.5 0-7.568 1.393-9.95 4.518C2.666 11.362 1.062 22.796.309 30.8c-.45 4.788-1.391 14.758 5.654 16.58.329.082.698.125 1.086.125 4.032 0 11.16-4.917 15.266-9.486.029-.03 3-2.954 11.105-2.954 8.086 0 10.93 2.905 10.95 2.924 4.114 4.578 11.136 9.516 15.298 9.516.388 0 .753-.042 1.082-.125 7.047-1.825 6.107-11.792 5.654-16.58-.753-8.002-2.353-19.434-7.572-26.283C56.449 1.393 53.38 0 48.879 0c-3.067 0-6.5.44-8.896 3.611H26.728C24.332.441 20.9 0 17.833 0m34.71 5.854c3.737-.03 2.9 5.03-.29 4.29-2.11-.498-2.073-4.283.29-4.29m-39.01 3.152a4 4 0 0 1 3.997 3.996A4.004 4.004 0 0 1 13.532 17a4.003 4.003 0 0 1-3.996-3.998 4 4 0 0 1 3.996-3.996m34.105 1.808c.789-.017 1.528.475 1.93 1.135 1.196 1.726-1.06 3.94-2.83 3.026-2.055-.828-1.293-4.235.9-4.16m10.236.155c.864-.023 1.676.535 2.115 1.252 1.25 2.044-2.206 4.459-3.61 2.386-1.347-1.253-.232-3.597 1.495-3.638m-5.086 5.043c.656-.065 1.24.35 1.649.822 1.714 1.454-.435 4.618-2.371 3.521-2.148-.768-1.5-4.27.722-4.343M23.096 19.48a5.37 5.37 0 0 1 5.365 5.365 5.37 5.37 0 0 1-5.365 5.363 5.37 5.37 0 0 1-5.365-5.363 5.37 5.37 0 0 1 5.365-5.365m19.428.91a4.307 4.307 0 0 1 4.298 4.302 4.31 4.31 0 0 1-4.298 4.303 4.306 4.306 0 0 1-4.301-4.303 4.307 4.307 0 0 1 4.3-4.302"/></svg>