<svg xmlns="http://www.w3.org/2000/svg" xmlns:xlink="http://www.w3.org/1999/xlink" width="600" height="547.096"><linearGradient xlink:href="#a" id="b" x1="707.623" x2="982.846" y1="43.601" y2="543.601" gradientTransform="matrix(.9987 0 0 .9987 -546.358 .188)" gradientUnits="userSpaceOnUse"/><linearGradient id="a" x1="49.626" x2="50.876" y1="-314.4" y2="-314.4" gradientTransform="scale(45.586)rotate(60 -247.386 -199.912)" gradientUnits="userSpaceOnUse"><stop offset="0" style="stop-color:#612c75"/><stop offset=".3" style="stop-color:#7b5190"/><stop offset=".5" style="stop-color:#bf99c3"/><stop offset=".7" style="stop-color:#7b5190"/><stop offset="1" style="stop-color:#612c75"/></linearGradient><path fill="#fff" d="M.157 223.103c.715 23.9-2.636 48.175 4.746 71.3 4.704 35.748 10.782 71.832 28.795 103.665 20.137 40.9 62.513 76.063 110.27 71.9 38.288-1.02 74.127-19.973 112.866-16.957 19.181-.702 38.314-.436 57.308 2.59-2.482 28.44 12.562 54.626 21.978 79.2 10.535 12.317 27.8 15.443 42.18 9.093 39.301-7.68 80.126-4.542 118.861-16.11 28.912-10.266 60.986-13.352 85.824-31.132 11.811-11.063 19.279-24.775 16.395-41.051-9.976-26.813-23.779-51.431-40.348-74.674-7.528-22.558 20.187-41.636 13.994-66.042-1.218-28.478-24.596-50.959-25.86-79.842-1.408-33.784-11.365-66.835-31.066-94.538C481.69 88.45 439.834 35.532 379.295 13.543 356.483 9.264 333.626 2.713 310.807.188c-25.683.916-51.899-3.125-76.71 5.29-91.688 15.463-172.8 77.63-216.853 158.715-8.96 18.545-11.571 39.25-17.087 58.91"/><path d="M26.522 268.643v-2.404c0-100.358 22.77-115.043 73.71-165.982 33.773-33.773 100.096-73.709 165.982-73.709h40.744c41.225 0 92.022 17.559 112.662 40.755l33.555 31.151 26.376 33.566 26.365 43.137 2.393 2.393c9.036 18.826 12.303 44.438 14.379 69.514l9.604 31.173 2.393 2.392v2.393l11.986 28.77c10.14 15.974-16.782 41.552-16.782 69.513v2.393c0 8.25 43.148 48.666 43.148 79.096v4.796c0 13.123-34.954 22.88-47.934 23.962v-7.19c0-6.48-1.148-6.61-2.404-11.986l-12.095 1.76 8.14 17.044c-5.42 7.234-27.742 14.773-36.778 14.773h-2.393c-9.233 0-8.97-8.108-11.987-14.39h-9.571l2.983 19.077c-10.205.896-32.965 1.464-43.367 3.136-14.783 2.35-14.761-4.993-14.761-24.617h-7.19c-5.54 0-7.19 1.672-7.19 7.2v19.176c-8.926 2.076-17.897 4.786-28.758 4.786-1.278 0-5.266-3.442-7.19-4.786v-14.39c-15.307-10.249-10.04-24.868-13.788-43.749-6.676-33.697-13.44-18.05-29.36-28.146-7.506-.634-8.51-2.404-16.782-2.404h-47.934c-15.319 0-18.247 4.797-33.566 4.797-.251.109-54.315 11.986-55.123 11.986h-23.973c-13.68 0-23.852-3.245-31.162-9.583-16.892-8.948-38.362-27.414-43.148-47.944l-16.805-40.756-2.392-7.2v-2.393l-9.594-50.338z" style="fill:url(#b)"/><g fill="#fff"><path d="m467.534 196.727-2.393 2.404-2.414 2.382-4.786 4.786c-3.485 5.233-7.178 10.227-7.178 19.197 0 18.367 18.629 29.326 31.161 35.947 2.338 1.235 14.27 9.582 14.379 9.582 7.572 0 8.173-5.91 9.582-11.986v-4.785l2.393-4.797c0-25.797-3.06-57.526-26.376-57.526-4.622.01-7.78 3.267-14.368 4.796M467.534 278.237l-7.19 4.785-2.403 38.362-11.964 38.35c1.497 18.062 21.896.066 38.34 31.162 11.155-2.59 26.376-15.384 26.376-28.768v-7.2c0-8.261-1.781-9.277-2.404-16.762l-9.582-40.743c-2.306-3.453-18.029-21.58-21.58-21.58-5.091-.01-3.146.853-9.593 2.394M268.59 306.994c1.29 15.362 18.63 36.351 28.78 43.148 5.3 2.797 11.691 7.189 19.154 7.189h4.786c47.9 0 70.266-16.925 86.283-50.337v-4.795999999999999c0-29.13-9.046-53.102-26.375-64.694-7.616-5.146-13.385-9.615-26.376-9.615h-2.371c-45.639 0-83.88 31.456-83.88 79.105"/></g></svg>