<svg xmlns="http://www.w3.org/2000/svg" xml:space="preserve" width="354.904" height="485.004" viewBox="0 0 354.904 485.004"><path fill="gray" d="M177.454 49.353c43.3 0 59.06-49.353 59.06-49.353l118.39 93.204s-7.54 178.81-7.77 185.49c-.56 15.72-7.1 30.47-11.28 40.73-15.11 36.95-72.24 116.75-148.23 165.58h-20.34c-75.99-48.83-133.12-128.63-148.22-165.58-4.196-10.27-10.737-25.01-11.287-40.73C7.54 272.014 0 93.204 0 93.204L118.384 0s15.76 49.353 59.07 49.353"/><path d="M172.064 469.414c-87.358-59.23-138.217-146.59-141.21-163.94-1.994-11.56-1.199-21.74 2.396-30.52 8.374 26.32 24.728 56.25 49.063 89.75 26.041 34.73 51.891 59.11 77.541 73.14h35.2c25.64-14.03 51.5-38.41 77.54-73.14 24.33-33.5 40.69-63.43 49.06-89.75 3.58 8.78 4.39 18.95 2.39 30.52-2.99 17.35-53.85 104.71-141.21 163.94zm5.39-397.905-14.96 44.285-52.66 31.11-46.67-11.97 32.31 37.11v62.22l-32.31 37.11 47.27-12.58 51.46 31.71 15.56 49.07 15.56-49.07 51.46-31.71 47.27 12.58-32.32-37.1v-62.23l32.32-37.1-46.68 11.96-52.65-31.11zM16.492 119.984c37.517 50.94 39.847 96.61 6.991 136.99l-1.009 1.22zm321.912 0-5.98 138.21-1.01-1.22c-32.85-40.38-30.52-86.05 6.99-136.99m-174.12 303.36c-56.64-39.09-97.132-93.94-121.462-164.55 31.596-43.83 24.089-96.66-22.512-158.48l-1.425-1.87 93.949-74.203c13.42 27.65 34.67 41.215 63.73 40.704l.89-.01.89.01c29.06.511 50.3-13.054 63.73-40.704l93.95 74.203-1.42 1.87c-46.61 61.82-54.11 114.65-22.52 158.48-24.34 70.61-64.82 125.46-121.47 164.55z"/><path fill="#fff" d="m240.874 239.654-63.42 38.89-63.43-38.89v-73.6l63.43-38.3 63.42 38.3z"/></svg>