<svg xmlns="http://www.w3.org/2000/svg" xml:space="preserve" width="321.928" height="445.18" viewBox="0 0 321.928 445.18"><path d="M96.338 0 2.393 74.201l1.426 1.869C50.42 137.89 57.926 190.72 26.33 234.55c24.33 70.61 64.818 125.47 121.468 164.55h26.33c56.64-39.08 97.13-93.94 121.46-164.55-31.59-43.83-24.08-96.66 22.51-158.48l1.43-1.869L225.588 0c-13.43 27.651-34.68 41.217-63.74 40.705h-1.77c-29.06.511-50.31-13.055-63.74-40.705m64.62 47.27 14.96 44.28 52.65 31.11 46.69-11.96-32.32 37.1v62.23l32.32 37.1-47.28-12.58-51.46 31.72-15.56 49.06-15.56-49.06-51.46-31.72-47.266 12.58 32.315-37.1V147.8l-32.315-37.1 46.676 11.96 52.65-31.11zM0 95.74l5.983 138.22 1.009-1.22c32.856-40.39 30.525-86.06-6.992-137m321.928 0c-37.52 50.94-39.85 96.61-6.99 136.99l1 1.22zm-160.97 7.78-63.43 38.29v73.6l63.43 38.89 63.43-38.89v-73.6zm0 11.36 53.85 32.92v62.82l-53.85 32.32-53.85-32.32V147.8Zm-144.2 135.83c-3.595 8.78-4.39 18.96-2.396 30.53 2.993 17.35 53.851 104.7 141.216 163.94h10.77c87.36-59.24 138.22-146.59 141.22-163.94 1.99-11.57 1.19-21.75-2.41-30.53-8.37 26.33-24.72 56.25-49.06 89.76-26.04 34.73-51.88 59.11-77.54 73.14h-35.2c-25.65-14.03-51.49-38.42-77.538-73.14q-36.502-50.265-49.062-89.76"/></svg>