<?xml version="1.0" encoding="UTF-8" standalone="no"?>
<svg
   id="Layer_2"
   data-name="Layer 2"
   viewBox="0 0 359.37 403.01"
   version="1.1"
   width="359.37"
   height="403.01001"
   xmlns="http://www.w3.org/2000/svg"
   xmlns:svg="http://www.w3.org/2000/svg">
  <defs
     id="defs5">
    <style
       id="style1">
      .cls-1 {
        fill: url(#linear-gradient);
      }

      .cls-1, .cls-2 {
        stroke-width: 0px;
      }

      .cls-2 {
        fill: #fff;
      }
    </style>
    <linearGradient
       id="linear-gradient"
       x1="-8.2799997"
       y1="206.78999"
       x2="367.64999"
       y2="206.78999"
       gradientTransform="matrix(1,0,0,-1,0,406)"
       gradientUnits="userSpaceOnUse">
      <stop
         offset=".1"
         stop-color="#612c75"
         id="stop1" />
      <stop
         offset=".3"
         stop-color="#7b5190"
         id="stop2" />
      <stop
         offset=".5"
         stop-color="#bf99c3"
         id="stop3" />
      <stop
         offset=".7"
         stop-color="#7b5190"
         id="stop4" />
      <stop
         offset=".9"
         stop-color="#612c75"
         id="stop5" />
    </linearGradient>
  </defs>
  <g
     id="svg22">
    <g
       id="g20">
      <path
         class="cls-2"
         d="M 307.93,216.45 338.25,173.56 305.71,145.2 355.07,89.45 255.12,0 205.59,56.01 179.69,33.04 153.78,56.01 104.26,0 4.3,89.45 53.66,145.2 21.12,173.56 51.44,216.45 0,264.75 l 90.21,95.84 37.3,-33.36 52.17,75.78 52.31,-75.78 37.35,33.36 90.03,-95.84 z m -128.25,18.77 -31.56,-46.07 31.57,-29.35 31.52,29.35 z"
         id="path5" />
      <path
         id="path16"
         class="cls-1"
         d="m 255.9,22.8 77.03,67.89 -39.66,44.93 -76.85,-68.57 z m -152.43,0 39.48,44.25 L 66.1,135.62 26.44,90.69 Z m 76.21,31.91 132.79,118.26 -84.08,10.64 -48.71,-43.87 -48.7,43.87 L 46.9,172.97 Z M 312.97,180.33 179.68,375.62 46.4,180.33 l 83,9.69 50.28,73.38 50.29,-73.38 z m -14.75,49.76 38.1,35.22 -68.36,73.94 -27.59,-25.11 z m -237.07,0 57.85,84.05 -27.59,25.11 -68.36,-73.94 z"
         style="fill:url(#linear-gradient)" />
    </g>
  </g>
</svg>
