<svg xmlns="http://www.w3.org/2000/svg" xml:space="preserve" width="600" height="640.4" viewBox="0 0 600 640.4"><path d="M0 250.9c0 69.6 47.1 136.8 75 165.5 22.5 23.1 56.4 45.5 90.7 59.8 24.6 10.3 66.2 43.9 79.8 59.3 39.3 44.3 54.5 104.9 54.5 104.9s17-61.9 54.5-104.9c13.4-15.4 55.2-49 79.8-59.3 34.3-14.3 68.2-36.7 90.7-59.8 27.8-28.7 75-95.9 75-165.5 0-93.6-60.6-127.7-60.6-127.7s-24.1 42.5-70.5 42.5c-21.3 0-44.6-7.9-69.2-23.7-50.3-32-71.9-75.4-77.9-88.9C310.1 27 299.9 0 299.9 0s-8.4 25.9-22.1 53.9C271 68 249.7 110.6 200.3 142c-24.6 15.8-48 23.7-69.2 23.7-38.2 0-70.5-42.5-70.5-42.5S0 158.6 0 250.9"/><path d="M300.2 614.8c-8.3-22.3-23.8-56.4-48.8-84.6-14.7-16.7-56.9-50.5-82.6-61.3-33.3-13.9-66.2-35.6-88.1-58C53.7 383 8 318 8 250.9c0-71 36.8-106.1 51.1-117 11 12.4 39 39.8 71.9 39.8 22.8 0 47.6-8.4 73.5-25 34.4-21.9 61.5-52.6 80.5-91.3 6.3-12.8 11.4-25.1 15.2-34.8 3.9 9.8 8.9 21.9 14.3 33.8 9.6 21.3 32.8 61.7 80.9 92.3 26 16.6 50.7 25 73.6 25 38.6 0 62.9-26.3 72.6-39.4 14.7 11.2 50.4 45.6 50.4 116.6 0 67-45.7 132.1-72.7 159.9-21.9 22.5-54.7 44.1-88 58-25.5 10.6-68.2 44.7-82.8 61.3-24 27.7-39.8 62.2-48.3 84.7"/><linearGradient id="a" x1="-657.818" x2="-656.818" y1="860.607" y2="860.607" gradientTransform="matrix(557.5607 0 0 -557.5607 366794.72 480162.09)" gradientUnits="userSpaceOnUse"><stop offset="0" style="stop-color:#bf331c"/><stop offset=".1" style="stop-color:#f6b91d"/><stop offset=".2" style="stop-color:#bf331c"/><stop offset=".3" style="stop-color:#f6b91d"/><stop offset=".4" style="stop-color:#bf331c"/><stop offset=".5" style="stop-color:#f6b91d"/><stop offset=".6" style="stop-color:#bf331c"/><stop offset=".7" style="stop-color:#f6b91d"/><stop offset=".8" style="stop-color:#bf331c"/><stop offset=".9" style="stop-color:#f6b91d"/><stop offset="1" style="stop-color:#bf331c"/></linearGradient><path d="M212.3 159.5c79.9 92.6 69.6 249.7.9 320.1 20.5 14.4 40.2 31.6 49 42.7 14.6 18.6 26.6 35.1 37.8 64.4 11.3-29.2 23.2-45.8 37.8-64.4 8.9-11.3 29.1-28.8 50-43.4-69.7-69.9-80.5-226.4-.3-319.4-67-43.1-87.5-103.7-87.5-103.7s-20.5 60.6-87.7 103.7m273.6 26c-4.9 53.8 21.4 103.2 74.8 140.3 10.5-23 18.1-48.7 18.1-74.9 0-65-37.2-97.6-37.2-97.6-14.1 16.6-33 28.3-55.7 32.2M21.2 250.9c0 26.3 7.6 52.1 18.1 75.1 52.5-36.9 79.2-87.3 74.8-140.5-22.8-3.9-41.6-15.6-55.7-32.2 0 0-37.2 32.6-37.2 97.6M424 457.6l2.1-.9c28.6-11.9 61.1-31.8 83.7-55.1 8.7-9 21.1-23.9 32.9-42.5-74.7-49.8-103.9-102.9-92.8-173.8-8.6-1.4-17.6-4-26.9-7.5-74.9 68.2-70.1 219.9 1 279.8M150.2 185.2c11 70.3-20.3 123-93.6 172.5 12.1 19.2 24.8 34.6 33.7 43.8 22.6 23.3 55.1 43.2 83.6 55.1.1.1.2.1.3.1 70.4-60.3 77.2-211.1 2.9-279-9.4 3.6-18.4 6.1-26.9 7.5" style="fill:url(#a)"/></svg>