<?xml version="1.0" encoding="UTF-8"?><svg id="Layer_2" xmlns="http://www.w3.org/2000/svg" width="216" height="145.20804" viewBox="0 0 216 145.20804"><g id="Layer_1-2"><path d="M0,69.6l45.11975-12.72258c-3.36499-5.72281-9.75496-9.94098-16.55975-9.59742V0l44.29806,19.91726L107.89691.4719l35.24503,19.44536L187.44,0v47.28c-6.80479-.34356-13.19476,3.87461-16.55975,9.59742l45.11975,12.72258v.48l-48.0007,16.08232c1.33446,4.278,3.41103,8.42101,6.14119,11.97719.63939.83284,2.54877,2.56513,2.85982,3.14189.11156.20685.21265.47737.08952.69011l-68.98693,43.23653-69.19273-43.23653c-.12311-.21273-.02202-.48326.08953-.69011.31103-.57674,2.22043-2.30906,2.85981-3.14189,2.73016-3.55618,4.80674-7.69919,6.14119-11.97719L0,70.08v-.48ZM182.39999,7.2l-40.20319,18.47018L107.89831,6.72229l-34.09512,18.94789L33.6,7.2v35.52c12.34022,2.53028,19.66865,14.38828,20.4108,26.39016l10.06811,1.93117c.89005-19.62592,14.83166-37.03325,34.07845-41.40398,26.07723-5.92185,50.28391,12.57759,53.27962,38.64568.08908.77517-.38063,2.69688.60002,2.76305l9.95222-1.93592c.74216-12.00188,8.07059-23.85988,20.4108-26.39016V7.2h-.00003ZM148.28867,71.72785c.00447-15.53318-9.9528-30.22574-24.04631-36.49021-17.72635-7.87924-38.20114-2.03595-49.31794,13.64678-4.68988,6.61612-7.20598,14.38539-7.69661,22.49886l.77158.41813,40.12061,8.06973s40.16867-8.14329,40.16867-8.1433ZM49.43862,71.52123c.13719-1.29329-1.2811-9.89285-2.02698-10.02458l-30.37139,8.58593.23923.35787,90.80253,30.77089,90.28715-30.64212.59058-.48663-30.37138-8.58593c-.74789.13209-2.15996,8.72899-2.02974,10.02211l-58.44041,11.5401s-58.67957-11.53763-58.67957-11.53764ZM163.19737,87.59982l-16.16786,5.54969c-16.3112,32.05667-62.09998,32.19008-78.25996-.03906l-15.85298-5.50732c-.63431,1.79895-1.27348,3.62426-2.07043,5.363-1.23343,2.69105-2.90644,5.09792-4.30553,7.69059l61.56226,38.55034,61.30826-38.43588c.13051-.22444-.0065-.46639-.09692-.68169-.49071-1.16836-2.08095-3.09576-2.79529-4.40839-1.36642-2.51084-2.59203-5.30697-3.32153-8.08128h-.00002ZM142.07765,94.8001l-33.97813,11.50759-34.65948-11.50527c8.54555,13.91458,24.80203,21.61926,41.08994,18.88754,9.41657-1.5793,18.68082-7.05942,24.66322-14.45678.41376-.51162,3.15022-4.10532,2.88448-4.43308h-.00002Z"/></g></svg>