<svg xmlns="http://www.w3.org/2000/svg" width="300" height="223" viewBox="0 0 300 223"><defs><linearGradient id="a" x1="-12.943" x2="309.755" y1="-7.002" y2="227.684" gradientUnits="userSpaceOnUse"><stop offset=".08" stop-color="#b7281b"/><stop offset=".101" stop-color="#bc3218"/><stop offset=".183" stop-color="#d0560f"/><stop offset=".265" stop-color="#e07208"/><stop offset=".347" stop-color="#eb8603"/><stop offset=".429" stop-color="#f19200"/><stop offset=".511" stop-color="#f49700"/><stop offset=".571" stop-color="#f09001"/><stop offset=".658" stop-color="#e57c06"/><stop offset=".762" stop-color="#d45d0e"/><stop offset=".877" stop-color="#bc3118"/><stop offset=".901" stop-color="#b7281b"/></linearGradient></defs><path d="M300 0v223H0V0ZM147 6H6v211h141Zm147 0H153v211h141ZM25 29v165h30v-73l13.664 73.041 16.287-.094L97 125v69h31V29H89l-12.5 80.01L64 29Zm139 115v60h119v-60Zm76-126v114h43V18Zm-76 0v51h65V18Zm0 63v51h65V81Z"/><path d="M147 6v211H6V6ZM64 29H25v165h30v-73l13.664 73.041 16.287-.094L97 125v69h31V29H89l-12.5 80.01ZM294 6v211H153V6Zm-65 12h-65v51h65zm54 0h-43v114h43zm-54 63h-65v51h65zm54 63H164v60h119z" style="fill:url(#a)"/></svg>