<svg xmlns="http://www.w3.org/2000/svg" width="300" height="223" viewBox="0 0 300 223"><defs><linearGradient id="a" x1="-12.943" x2="309.755" y1="-7.002" y2="227.684" gradientUnits="userSpaceOnUse"><stop offset=".08" stop-color="#4d6773"/><stop offset=".122" stop-color="#627d89"/><stop offset=".199" stop-color="#85a1ad"/><stop offset=".277" stop-color="#a0bdc9"/><stop offset=".355" stop-color="#b3d1dd"/><stop offset=".433" stop-color="#bfdde9"/><stop offset=".511" stop-color="#c3e2ee"/><stop offset=".567" stop-color="#bcdbe7"/><stop offset=".648" stop-color="#a9c7d3"/><stop offset=".745" stop-color="#8ba8b4"/><stop offset=".853" stop-color="#627c88"/><stop offset=".901" stop-color="#4d6773"/></linearGradient></defs><path d="M300 0v223H0V0ZM147 6H6v211h141Zm147 0H153v211h141ZM25 29v165h30v-73l13.664 73.041 16.287-.094L97 125v69h31V29H89l-12.5 80.01L64 29Zm139 115v60h119v-60Zm76-126v114h43V18Zm-76 0v51h65V18Zm0 63v51h65V81Z"/><path d="M147 6v211H6V6ZM64 29H25v165h30v-73l13.664 73.041 16.287-.094L97 125v69h31V29H89l-12.5 80.01ZM294 6v211H153V6Zm-65 12h-65v51h65zm54 0h-43v114h43zm-54 63h-65v51h65zm54 63H164v60h119z" style="fill:url(#a)"/></svg>