<?xml version="1.0" encoding="UTF-8" standalone="no"?>
<svg
   id="Layer_2"
   data-name="Layer 2"
   viewBox="0 0 796.73 467.67"
   version="1.1"
   width="796.72998"
   height="467.67001"
   xmlns:xlink="http://www.w3.org/1999/xlink"
   xmlns="http://www.w3.org/2000/svg"
   xmlns:svg="http://www.w3.org/2000/svg">
  <defs
     id="defs13">
    <style
       id="style1">
      .cls-1 {
        fill: url(#linear-gradient);
      }

      .cls-1, .cls-2, .cls-3, .cls-4, .cls-5, .cls-6 {
        stroke-width: 0px;
      }

      .cls-2 {
        fill: #fff;
      }

      .cls-3 {
        fill: url(#linear-gradient-2);
      }

      .cls-4 {
        fill: url(#linear-gradient-3);
      }

      .cls-5 {
        fill: #bf99c3;
      }

      .cls-6 {
        fill: url(#linear-gradient-4);
      }
    </style>
    <linearGradient
       id="linear-gradient"
       x1="50.93"
       y1="191.03999"
       x2="745.03003"
       y2="191.03999"
       gradientTransform="matrix(1,0,0,-1,0,470)"
       gradientUnits="userSpaceOnUse">
      <stop
         offset="0"
         stop-color="#612c75"
         id="stop1" />
      <stop
         offset=".32"
         stop-color="#bf99c3"
         id="stop2" />
      <stop
         offset=".68"
         stop-color="#bf99c3"
         id="stop3" />
      <stop
         offset="1"
         stop-color="#612c75"
         id="stop4" />
    </linearGradient>
    <linearGradient
       id="linear-gradient-2"
       x1="328.84"
       y1="322.82999"
       x2="254.14"
       y2="350.01999"
       gradientTransform="matrix(1,0,0,-1,0,470)"
       gradientUnits="userSpaceOnUse">
      <stop
         offset="0"
         stop-color="#612c75"
         id="stop5" />
      <stop
         offset=".11"
         stop-color="#7d4d8d"
         id="stop6" />
      <stop
         offset=".22"
         stop-color="#9568a0"
         id="stop7" />
      <stop
         offset=".34"
         stop-color="#a77eaf"
         id="stop8" />
      <stop
         offset=".48"
         stop-color="#b48dba"
         id="stop9" />
      <stop
         offset=".64"
         stop-color="#bc96c1"
         id="stop10" />
      <stop
         offset=".87"
         stop-color="#bf99c3"
         id="stop11" />
    </linearGradient>
    <linearGradient
       id="linear-gradient-3"
       x1="466.95001"
       y1="322.88"
       x2="541.71002"
       y2="350.09"
       xlink:href="#linear-gradient-2" />
    <linearGradient
       id="linear-gradient-4"
       x1="397.92999"
       y1="359.34"
       x2="397.92999"
       y2="412.64001"
       gradientTransform="matrix(1,0,0,-1,0,470)"
       gradientUnits="userSpaceOnUse">
      <stop
         offset=".08"
         stop-color="#612c75"
         id="stop12" />
      <stop
         offset="1"
         stop-color="#bf99c3"
         id="stop13" />
    </linearGradient>
    <linearGradient
       xlink:href="#linear-gradient-2"
       id="linearGradient18"
       gradientUnits="userSpaceOnUse"
       gradientTransform="matrix(1,0,0,-1,0,470)"
       x1="328.84"
       y1="322.82999"
       x2="254.14"
       y2="350.01999" />
  </defs>
  <g
     id="Layer_1-2"
     data-name="Layer 1"
     transform="translate(0,0.01)">
    <path
       class="cls-2"
       d="M 1.09,110.23 H 204.9 c -2.7,12.02 -0.33,22.53 9.22,30.56 5.08,4.27 10.98,6.6 17.97,6.17 12.99,-48.81 25.9,-97.34 39.1,-146.96 10.7,12.44 20.82,24.21 30.96,36 h 191.58 c 10.03,-11.67 20.16,-23.46 30.95,-36.01 13.17,49.54 26.08,98.05 38.96,146.49 17.22,2.66 29.4,-13.24 27.52,-36.05 H 796.73 C 686.65,255.92 550.79,370.7 397.97,467.66 245.31,370.97 109.41,256.06 0,111.6 c 0.36,-0.46 0.72,-0.91 1.09,-1.37 z m 613.6,24.88 c -2.64,10.54 -7.59,19.19 -15.77,25.84 -8.23,6.69 -17.74,10.06 -28.64,10.42 2.55,9.9 4.97,19.31 7.37,28.65 -24.23,16.86 -47.93,33.36 -71.64,49.86 1.97,6.17 3.76,11.79 5.56,17.43 -38.16,23.33 -75.85,46.37 -113.65,69.49 -38.02,-23.22 -75.94,-46.38 -113.72,-69.45 2.06,-6.42 3.82,-11.9 5.62,-17.48 -24.05,-16.71 -47.72,-33.16 -71.68,-49.8 2.49,-9.61 4.92,-19.01 7.44,-28.73 -11.22,-0.27 -20.63,-3.87 -28.95,-10.57 -8.34,-6.71 -12.84,-15.74 -15.58,-25.5 H 50.93 c 104.53,110.09 218.44,207.28 347,287.56 C 526.53,342.57 640.5,245.4 745.04,135.12 H 614.69 Z M 317.45,252.77 c 27.15,16.29 53.75,32.26 80.49,48.3 26.87,-16.13 53.58,-32.17 80.47,-48.32 -14.73,-40.71 -29.23,-80.78 -43.75,-120.91 h -73.47 c -14.53,40.17 -29.03,80.24 -43.74,120.93 z m -16.63,-34.46 c 11.29,-31.87 23.04,-62.69 35.97,-92.99 -18.8,-25.67 -37.31,-50.95 -56.51,-77.16 -10.39,46.5 -20.47,91.62 -30.59,136.95 17.07,11.08 33.76,21.92 51.13,33.2 z M 515.58,48.11 c -19.4,26.49 -38.01,51.91 -56.55,77.24 13.29,30.66 24.72,61.43 36.03,92.85 17.34,-11.22 34.19,-22.13 51.13,-33.09 C 536,139.52 525.95,94.52 515.58,48.11 Z m -155.2,62.55 h 75.11 c 14.02,-17.64 28.02,-35.25 42.36,-53.3 H 318 c 14.46,18.18 28.41,35.73 42.38,53.3 z"
       id="path13" />
    <path
       class="cls-1"
       d="M 614.69,135.11 H 745.03 C 640.49,245.38 526.52,342.56 397.92,422.82 269.37,342.54 155.46,245.36 50.93,135.26 h 130.11 c 2.74,9.76 7.24,18.79 15.58,25.5 8.32,6.7 17.73,10.29 28.95,10.57 -2.52,9.72 -4.95,19.11 -7.44,28.73 23.96,16.65 47.63,33.09 71.68,49.8 -1.79,5.58 -3.55,11.06 -5.62,17.48 37.78,23.07 75.7,46.23 113.72,69.45 37.81,-23.12 75.49,-46.16 113.65,-69.49 -1.8,-5.64 -3.59,-11.26 -5.56,-17.43 23.7,-16.5 47.41,-33 71.64,-49.86 -2.4,-9.34 -4.82,-18.75 -7.37,-28.65 10.9,-0.36 20.4,-3.73 28.64,-10.42 8.19,-6.65 13.14,-15.3 15.77,-25.84 v 0 z"
       id="path14"
       style="fill:url(#linear-gradient)" />
    <path
       class="cls-5"
       d="m 317.45,252.77 c 14.72,-40.69 29.21,-80.76 43.74,-120.93 h 73.47 c 14.52,40.13 29.02,80.21 43.75,120.91 -26.89,16.15 -53.6,32.19 -80.47,48.32 -26.74,-16.05 -53.34,-32.01 -80.49,-48.3 z"
       id="path15" />
    <path
       class="cls-3"
       d="m 300.82,218.31 c -17.38,-11.28 -34.06,-22.12 -51.13,-33.2 10.12,-45.32 20.2,-90.45 30.59,-136.95 19.19,26.21 37.71,51.49 56.51,77.16 -12.92,30.3 -24.67,61.12 -35.97,92.99 z"
       id="path16"
       style="fill:url(#linearGradient18)" />
    <path
       class="cls-4"
       d="m 515.58,48.11 c 10.37,46.41 20.42,91.41 30.61,137 -16.93,10.96 -33.79,21.87 -51.13,33.09 -11.31,-31.42 -22.75,-62.19 -36.03,-92.85 18.54,-25.33 37.15,-50.75 56.55,-77.24 z"
       id="path17"
       style="fill:url(#linear-gradient-3)" />
    <path
       class="cls-6"
       d="M 360.38,110.66 C 346.41,93.09 332.46,75.55 318,57.36 h 159.85 c -14.34,18.04 -28.34,35.66 -42.36,53.3 z"
       id="path18"
       style="fill:url(#linear-gradient-4)" />
  </g>
</svg>
