<?xml version="1.0" encoding="UTF-8"?>
<svg id="Layer_2" data-name="Layer 2" xmlns="http://www.w3.org/2000/svg" xmlns:xlink="http://www.w3.org/1999/xlink" viewBox="0 0 796.73 467.67">
  <defs>
    <style>
      .cls-1 {
        fill: url(#linear-gradient);
      }

      .cls-1, .cls-2, .cls-3, .cls-4, .cls-5, .cls-6 {
        stroke-width: 0px;
      }

      .cls-3 {
        fill: #c7e1f1;
      }

      .cls-4 {
        fill: url(#linear-gradient-2);
      }

      .cls-5 {
        fill: url(#linear-gradient-3);
      }

      .cls-6 {
        fill: url(#linear-gradient-4);
      }
    </style>
    <linearGradient id="linear-gradient" x1="50.93" y1="191.04" x2="745.03" y2="191.04" gradientTransform="translate(0 470) scale(1 -1)" gradientUnits="userSpaceOnUse">
      <stop offset="0" stop-color="#626e77"/>
      <stop offset=".32" stop-color="#c7e1f1"/>
      <stop offset=".68" stop-color="#c7e1f1"/>
      <stop offset="1" stop-color="#626e77"/>
    </linearGradient>
    <linearGradient id="linear-gradient-2" x1="328.84" y1="322.83" x2="254.14" y2="350.02" gradientTransform="translate(0 470) scale(1 -1)" gradientUnits="userSpaceOnUse">
      <stop offset="0" stop-color="#626e77"/>
      <stop offset=".03" stop-color="#6c7a83"/>
      <stop offset=".14" stop-color="#8899a5"/>
      <stop offset=".25" stop-color="#9fb3c0"/>
      <stop offset=".36" stop-color="#b0c7d6"/>
      <stop offset=".49" stop-color="#bdd6e5"/>
      <stop offset=".65" stop-color="#c4deee"/>
      <stop offset=".87" stop-color="#c7e1f1"/>
    </linearGradient>
    <linearGradient id="linear-gradient-3" x1="466.95" y1="322.88" x2="541.71" y2="350.09" xlink:href="#linear-gradient-2"/>
    <linearGradient id="linear-gradient-4" x1="397.93" y1="359.34" x2="397.93" y2="412.64" gradientTransform="translate(0 470) scale(1 -1)" gradientUnits="userSpaceOnUse">
      <stop offset=".08" stop-color="#626e77"/>
      <stop offset="1" stop-color="#c7e1f1"/>
    </linearGradient>
  </defs>
  <g id="Layer_1-2" data-name="Layer 1">
    <path class="cls-2" d="M1.09,110.23h203.81c-2.7,12.02-.33,22.53,9.22,30.56,5.08,4.27,10.98,6.6,17.97,6.17C245.08,98.15,257.99,49.62,271.19,0c10.7,12.44,20.82,24.21,30.96,36h191.58c10.03-11.67,20.16-23.46,30.95-36.01,13.17,49.54,26.08,98.05,38.96,146.49,17.22,2.66,29.4-13.24,27.52-36.05h205.57c-110.08,145.49-245.94,260.27-398.76,357.23C245.31,370.97,109.41,256.06,0,111.6c.36-.46.72-.91,1.09-1.37ZM614.69,135.11c-2.64,10.54-7.59,19.19-15.77,25.84-8.23,6.69-17.74,10.06-28.64,10.42,2.55,9.9,4.97,19.31,7.37,28.65-24.23,16.86-47.93,33.36-71.64,49.86,1.97,6.17,3.76,11.79,5.56,17.43-38.16,23.33-75.85,46.37-113.65,69.49-38.02-23.22-75.94-46.38-113.72-69.45,2.06-6.42,3.82-11.9,5.62-17.48-24.05-16.71-47.72-33.16-71.68-49.8,2.49-9.61,4.92-19.01,7.44-28.73-11.22-.27-20.63-3.87-28.95-10.57-8.34-6.71-12.84-15.74-15.58-25.5H50.93c104.53,110.09,218.44,207.28,347,287.56,128.6-80.26,242.57-177.43,347.11-287.71h-130.35ZM317.45,252.77c27.15,16.29,53.75,32.26,80.49,48.3,26.87-16.13,53.58-32.17,80.47-48.32-14.73-40.71-29.23-80.78-43.75-120.91h-73.47c-14.53,40.17-29.03,80.24-43.74,120.93h0ZM300.82,218.31c11.29-31.87,23.04-62.69,35.97-92.99-18.8-25.67-37.31-50.95-56.51-77.16-10.39,46.5-20.47,91.62-30.59,136.95,17.07,11.08,33.76,21.92,51.13,33.2h0ZM515.58,48.11c-19.4,26.49-38.01,51.91-56.55,77.24,13.29,30.66,24.72,61.43,36.03,92.85,17.34-11.22,34.19-22.13,51.13-33.09-10.19-45.59-20.24-90.59-30.61-137ZM360.38,110.66h75.11c14.02-17.64,28.02-35.25,42.36-53.3h-159.85c14.46,18.18,28.41,35.73,42.38,53.3h0Z"/>
    <path class="cls-1" d="M614.69,135.11h130.34c-104.54,110.27-218.51,207.45-347.11,287.71C269.37,342.54,155.46,245.36,50.93,135.26h130.11c2.74,9.76,7.24,18.79,15.58,25.5,8.32,6.7,17.73,10.29,28.95,10.57-2.52,9.72-4.95,19.11-7.44,28.73,23.96,16.65,47.63,33.09,71.68,49.8-1.79,5.58-3.55,11.06-5.62,17.48,37.78,23.07,75.7,46.23,113.72,69.45,37.81-23.12,75.49-46.16,113.65-69.49-1.8-5.64-3.59-11.26-5.56-17.43,23.7-16.5,47.41-33,71.64-49.86-2.4-9.34-4.82-18.75-7.37-28.65,10.9-.36,20.4-3.73,28.64-10.42,8.19-6.65,13.14-15.3,15.77-25.84h0Z"/>
    <path class="cls-3" d="M317.45,252.77c14.72-40.69,29.21-80.76,43.74-120.93h73.47c14.52,40.13,29.02,80.21,43.75,120.91-26.89,16.15-53.6,32.19-80.47,48.32-26.74-16.05-53.34-32.01-80.49-48.3Z"/>
    <path class="cls-4" d="M300.82,218.31c-17.38-11.28-34.06-22.12-51.13-33.2,10.12-45.32,20.2-90.45,30.59-136.95,19.19,26.21,37.71,51.49,56.51,77.16-12.92,30.3-24.67,61.12-35.97,92.99Z"/>
    <path class="cls-5" d="M515.58,48.11c10.37,46.41,20.42,91.41,30.61,137-16.93,10.96-33.79,21.87-51.13,33.09-11.31-31.42-22.75-62.19-36.03-92.85,18.54-25.33,37.15-50.75,56.55-77.24Z"/>
    <path class="cls-6" d="M360.38,110.66c-13.97-17.57-27.92-35.11-42.38-53.3h159.85c-14.34,18.04-28.34,35.66-42.36,53.3h-75.11Z"/>
  </g>
</svg>