<?xml version="1.0" encoding="UTF-8" standalone="no"?>
<svg
   id="Layer_2"
   data-name="Layer 2"
   viewBox="0 0 694.1 374.71"
   version="1.1"
   width="694.09998"
   height="374.70999"
   xmlns="http://www.w3.org/2000/svg"
   xmlns:svg="http://www.w3.org/2000/svg">
  <defs
     id="defs1">
    <style
       id="style1">
      .cls-1 {
        stroke-width: 0px;
      }
    </style>
  </defs>
  <g
     id="Layer_1-2"
     data-name="Layer 1">
    <path
       class="cls-1"
       d="M 563.76,87 H 694.1 C 589.56,197.27 475.59,294.45 346.99,374.71 218.44,294.43 104.53,197.25 0,87.15 h 130.11 c 2.74,9.76 7.24,18.79 15.58,25.5 8.32,6.7 17.73,10.29 28.95,10.57 -2.52,9.72 -4.95,19.11 -7.44,28.73 23.96,16.65 47.63,33.09 71.68,49.8 -1.79,5.58 -3.55,11.06 -5.62,17.48 37.78,23.07 75.7,46.23 113.72,69.45 37.81,-23.12 75.49,-46.16 113.65,-69.49 -1.8,-5.64 -3.59,-11.26 -5.56,-17.43 23.7,-16.5 47.41,-33 71.64,-49.86 -2.4,-9.34 -4.82,-18.75 -7.37,-28.65 10.9,-0.36 20.4,-3.73 28.64,-10.42 8.19,-6.65 13.14,-15.3 15.77,-25.84 v 0 z"
       id="path1" />
    <path
       class="cls-1"
       d="m 266.52,204.66 c 14.72,-40.69 29.21,-80.76 43.74,-120.93 h 73.47 c 14.52,40.13 29.02,80.21 43.75,120.91 -26.89,16.15 -53.6,32.19 -80.47,48.32 -26.74,-16.05 -53.34,-32.01 -80.49,-48.3 z"
       id="path2" />
    <path
       class="cls-1"
       d="M 249.89,170.2 C 232.51,158.92 215.83,148.08 198.76,137 208.88,91.68 218.96,46.55 229.35,0.05 c 19.19,26.21 37.71,51.49 56.51,77.16 -12.92,30.3 -24.67,61.12 -35.97,92.99 z"
       id="path3" />
    <path
       class="cls-1"
       d="m 464.65,0 c 10.37,46.41 20.42,91.41 30.61,137 -16.93,10.96 -33.79,21.87 -51.13,33.09 C 432.82,138.67 421.38,107.9 408.1,77.24 426.64,51.91 445.25,26.49 464.65,0 Z"
       id="path4" />
    <path
       class="cls-1"
       d="M 309.45,62.55 C 295.48,44.98 281.53,27.44 267.07,9.25 h 159.85 c -14.34,18.04 -28.34,35.66 -42.36,53.3 z"
       id="path5" />
  </g>
</svg>
