<svg xmlns="http://www.w3.org/2000/svg" width="600" height="510.317"><radialGradient id="a" cx="0" cy="0" r="1" fx="0" fy="0" gradientTransform="matrix(224.16862 0 0 224.16843 300.07 255.74)" gradientUnits="userSpaceOnUse" spreadMethod="pad"><stop offset="0" style="stop-color:#f6b91d"/><stop offset=".7" style="stop-color:#d3641c"/><stop offset="1" style="stop-color:#bf331c"/></radialGradient><path d="M419.353 0H179.601l-1.149.153c-16.202 1.748-38.63 13.408-46.105 37.928-20.323 5.626-96.92 27.008-96.92 27.008l-.994.344C21.267 70.523 0 87.567 0 118.759c0 5.576.689 11.61 2.233 18.142l91.446 341.417 2.538 3.38c10.321 13.804 35.492 34.93 64.298 26.766 0 0 128.915-35.479 139.53-38.426 10.665 2.947 139.784 38.477 139.784 38.477 28.551 8.114 53.722-13.013 64.094-26.816l2.488-3.343 91.293-340.805c1.594-6.736 2.296-12.91 2.296-18.587 0-31.448-21.178-48.44-34.343-53.531l-.944-.344s-76.648-21.382-96.97-27.008c-7.476-24.52-29.904-36.18-46.055-37.928L420.54 0Z"/><path d="M180.736 21.726s-29.393 3.19-29.393 33.59L42.253 85.719S14.99 96.23 23.372 131.913l90.247 336.735s18.88 25.21 40.913 18.881l145.564-40.02 145.512 40.02c21.981 6.328 40.914-18.88 40.914-18.88l90.208-336.736c8.37-35.683-18.894-46.195-18.894-46.195l-109.09-30.401c0-30.402-29.393-33.59-29.393-33.59z" style="fill:#bf331c"/><path d="M181.693 34.343c-1.352.243-5.588 1.187-9.517 3.84-5.639 3.726-8.229 9.16-8.229 17.134v9.568S48.134 97.187 46.488 97.633c-3.036 1.391-12.106 6.877-12.106 21.37 0 2.946.344 6.238 1.237 9.976.153.548 87.963 328.455 89.405 333.737 3.891 4.389 15.309 15.794 26.013 12.758l149.008-41.016 149.008 41.016c10.754 3.036 22.121-8.37 26.012-12.758 1.391-5.282 89.252-333.189 89.456-333.737.842-3.738 1.238-7.03 1.238-9.977 0-14.492-9.122-19.978-12.158-21.369-1.646-.446-117.459-32.748-117.459-32.748v-9.568c0-7.974-2.59-13.408-8.177-17.134-3.98-2.653-8.165-3.597-9.569-3.84z"/><path d="M438.68 81.533v323.825s-2.793 20.974-19.582 20.974h-90.897l121.694 33.59s6.978 3.496 10.46-4.184l89.559-332.245s3.483-10.461-4.937-13.255zM55.114 110.94c-8.42 2.78-4.887 13.255-4.887 13.255l89.507 332.244c3.483 7.668 10.513 4.185 10.513 4.185l121.694-33.54H180.99c-16.789 0-19.583-21.037-19.583-21.037V82.235Zm127.97-60.854h234.318c4.886 0 5.588 6.277 5.588 6.277v348.294c0 5.587-5.588 6.978-5.588 6.978H183.083c-4.886 0-4.886-6.978-4.886-6.978V56.363c0-4.185 4.886-6.277 4.886-6.277" style="fill:#bf331c"/><path d="M184.436 55.176c-.65.447-1.148.944-1.148 1.186v348.243c0 .804.293 1.952-.153 1.952h233.373c.65-.306 1.39-.804 1.39-1.9V56.961c-.088-.689-.446-1.646-.497-1.786zm259.335 350.87c-1.2 8.778-7.884 25.427-24.673 25.427h-53.326l86.317 23.869c.204.05.804.242 1.442.242.446 0 1.3 0 1.9-1.186l89.597-332.5c.204-.549 1.748-5.728-1.34-6.723l-99.866-26.97ZM56.707 115.775c-3.393 1.136-1.85 6.277-1.543 7.12l89.2 331.402c.893 1.99 1.8 1.99 2.246 1.99.6 0 1.237-.204 2.232-.6l85.425-23.525H180.99c-16.789 0-23.474-16.635-24.673-26.114V88.907Z" style="fill:url(#a)"/></svg>