<svg xmlns="http://www.w3.org/2000/svg" width="556.617" height="466.861"><path d="M158.987 0S129.63 3.19 129.63 33.594L20.493 63.996s-27.266 10.513-18.897 46.2l90.256 336.763s18.895 25.211 40.916 18.883l145.576-40.024 145.538 40.024c22.02 6.328 40.918-18.883 40.918-18.883l90.203-336.764c8.42-35.686-18.846-46.199-18.846-46.199L427.02 33.594C427.02 3.19 397.612 0 397.612 0Zm.945 12.617H396.67c1.39.243 5.626 1.188 9.568 3.842 5.576 3.726 8.166 9.16 8.166 17.135v9.568s115.835 32.305 117.52 32.752c2.998 1.39 12.12 6.875 12.12 21.37 0 2.946-.41 6.24-1.25 9.978-.154.548-88.01 328.483-89.464 333.765-3.879 4.39-15.248 15.795-26.016 12.758l-148.969-41.02-149.007 41.02c-10.769 3.037-22.188-8.369-26.016-12.758-1.454-5.282-89.31-333.216-89.463-333.765-.842-3.739-1.25-7.032-1.25-9.979 0-14.494 9.072-19.978 12.121-21.369 1.684-.446 117.467-32.752 117.467-32.752v-9.568c0-7.974 2.59-13.41 8.217-17.135 3.942-2.654 8.18-3.599 9.52-3.842m1.442 15.744s-4.926 2.093-4.926 6.278v348.324s0 6.978 4.926 6.978h234.3s5.575-1.39 5.575-6.978V34.639s-.69-6.278-5.576-6.278zm255.63 31.452v323.851s-2.845 20.975-19.597 20.975h-90.943l121.705 33.593s7.018 3.498 10.463-4.183l89.552-332.274s3.495-10.461-4.925-13.255zm-277.308.7L33.341 89.222c-8.42 2.781-4.887 13.256-4.887 13.256l89.513 332.273c3.535 7.668 10.514 4.184 10.514 4.184l121.705-33.541H159.28c-16.84 0-19.584-21.04-19.584-21.04z"/></svg>