<svg xmlns="http://www.w3.org/2000/svg" width="600" height="604.027" viewBox="0 0 600 604.027"><path d="M300 603.52c89.867-.353 194.225-13.586 240.58-79.123 62.513-70.378 34.757-156.343 17.973-177.123-1.54-1.743-1.95-6.468.822-7.906 13.757-5.954 39.336 1.782 40.085-37.93 1.222-64.77-25.794-156.65-81.74-199.808-3.905-3.124-3.905-6.717-2.5-12.652 14.84-63.73-8.874-91.532-66.824-54.982-3.749 2.03-6.873 2.968-11.246.78C403.457 18.097 349.735.5 300 .5S196.54 18.096 162.85 34.777c-4.375 2.187-7.499 1.25-11.248-.78-57.95-36.551-81.664-8.748-66.825 54.98 1.406 5.936 1.406 9.529-2.499 12.653C26.332 144.789-.684 236.667.54 301.438c.75 39.712 26.328 31.976 40.085 37.93 2.772 1.438 2.363 6.163.822 7.906-16.784 20.78-44.54 106.745 17.973 177.123C105.774 589.934 210.132 603.875 300 603.52z" style="fill:gray;stroke:gray;stroke-width:.999041"/><path d="M300 570.27c138.05 0 244.777-50.86 244.287-157.121-.229-49.491-100.813-132.6-106.262-182.552-4.127-37.825 35.01-127.161 49.157-167.36 1.608-4.567-.826-7.108-3.218-8.703-2.112-1.408-7.445-.69-9.492 2.682-25.319 41.695-85.729 146.509-84.583 190.637 1.817 69.933 74.158 117.406 74.474 160.755.49 67.208-74.45 76.29-164.364 76.29-89.913 0-164.854-9.082-164.364-76.29.316-43.35 72.657-90.822 74.474-160.755 1.146-44.128-59.264-148.942-84.583-190.637-2.047-3.371-7.38-4.09-9.492-2.682-2.392 1.595-4.826 4.136-3.218 8.704 14.147 40.198 53.284 129.534 49.157 167.36-5.45 49.95-106.033 133.06-106.26 182.55-.49 106.263 106.236 157.123 244.286 157.123z" style="stroke:#000"/><path d="M300 443.674s18.675.018 22.446.018c.635 0 1.59-.703 1.586-1.978-.033-13.743-.029-102.71-.029-131.744 0-1.7 1.061-2.578 2.664-2.592 4.417-.041 13.116-.106 16.907-.124 3.46-.017 10.662.884 13.184-4.196 2.348-4.725-.375-10.047-2.996-11.386-6.747-3.448-16.538-2.05-16.78-15.582-.16-8.845 8.112-13.841 12.83-13.841 3.397 0 5.057-1.8 5.15-6.194.194-9.375.506-31.17 4.502-43.958 13.188-47.055 53.25-122.782 65.27-137.978 1.36-1.72-.432-3.287-.432-3.287s-41-29.87-124.303-29.87-124.302 29.87-124.302 29.87-1.793 1.567-.432 3.287c12.02 15.196 52.082 90.923 65.27 137.978 3.996 12.788 4.307 34.583 4.503 43.958.091 4.395 1.752 6.194 5.15 6.194 4.717 0 12.988 4.996 12.83 13.84-.243 13.534-10.034 12.135-16.78 15.583-2.623 1.34-5.345 6.66-2.998 11.387 2.523 5.08 9.726 4.178 13.185 4.195 3.79.019 12.49.083 16.906.124 1.603.015 2.664.893 2.664 2.592 0 29.034.005 118-.028 131.744-.003 1.275.95 1.978 1.586 1.978 3.77 0 22.446-.018 22.446-.018z" style="stroke:#000"/><path d="M33.653 294.568c.314-81.755 49.458-147.092 64.474-162.475.656-.752 1.521-.353 2.01.708 7.255 16.855 19.725 55.818 25.097 76.492.356 1.538.023 2.704-1.252 3.663-22.496 14.597-62.164 48.543-62.332 81.362-.032 1.248-.756 2.322-2.296 2.297-7.714.03-16.543-.075-23.86-.158-.912-.017-1.818-.865-1.84-1.89zm532.692 0c-.314-81.755-49.458-147.092-64.474-162.475-.655-.752-1.52-.353-2.009.708-7.255 16.855-19.726 55.818-25.098 76.492-.356 1.538-.023 2.704 1.253 3.663 22.495 14.597 62.163 48.543 62.331 81.362.032 1.248.756 2.322 2.297 2.297 7.713.03 16.542-.075 23.86-.158.816-.033 1.846-.992 1.84-1.89z" style="stroke:#000;stroke-width:.999041"/></svg>