<svg xmlns="http://www.w3.org/2000/svg" xml:space="preserve" width="150.001" height="86.883"><path fill="#fff" d="M33.945 86.883c-14.092 0-27.129-2.187-27.259-2.207l-2.512-.424-3.171-33.503 10.747 4.457.452.434c.019.02.479.451 1.301 1.111l9.577-25.454 2.281-.015c.021 0 6.497-.047 11.337-.047 1.162 0 2.686-.019 4.409-.153.733-.765 2.007-2.367 2.007-4.27 0-3.841-4.35-6.044-11.934-6.044-11.647 0-19.237 6.754-19.313 6.821l-.359.329-.444.216c-2.176 1.046-4.978 2.7-5.096 2.771L0 34.448l4.523-31.55 2.315-.452C7.345 2.345 19.425 0 32.215 0c7.761 0 16.767.344 24.728 2.896 7.69 2.467 12.831 6.546 15.322 12.15a39 39 0 0 1 3.287-3.464C83.407 4.253 94.343.216 106.341.216s22.932 4.037 30.789 11.366c8.42 7.855 12.871 18.847 12.871 31.784 0 12.938-4.451 23.928-12.871 31.784-7.857 7.329-18.791 11.366-30.789 11.366S83.407 82.479 75.552 75.15a39 39 0 0 1-1.996-2.005c-3.412 4.316-8.344 7.799-14.377 10.133-6.185 2.393-14.675 3.605-25.234 3.605M15.666 58.364c3.626 2.518 9.725 5.868 16.489 5.868 9.495 0 15.164-2.409 15.164-6.446 0-5.341-7.409-6.138-11.825-6.138-8.921 0-15.056 3.724-15.116 3.761z"/><path d="M84.548 43.304c0 24.375 14.838 36.181 30.928 36.181 6.202 0 12.576-1.91 18.068-5.594 8.072-6.816 13.136-17.195 13.136-30.525 0-14.481-5.978-25.48-15.292-32.212-4.918-2.757-10.428-4.186-15.912-4.186-16.554 0-30.928 11.962-30.928 36.336m46.367-.912c0 17.155-8.439 26.149-21.144 26.149s-21.144-9.365-21.144-26.149 8.438-26.15 21.144-26.15 21.144 8.994 21.144 26.15M57.981 80.18c-7.959 3.078-19.082 3.625-28.885 3.299 19.299-1.355 31.621-11.15 31.621-21.612 0-9.83-7.233-19.846-20.958-19.846-11.911 0-19.36 8.352-21.123 10.559l-.021.013 6.77-17.989s6.491-.046 11.314-.046c1.253 0 3.371-.017 5.819-.268 6.972-.716 16.622-3.34 16.622-12.949 0-12.982-15.811-16.923-35.888-16.923-5.508 0-10.978.561-15.775 1.295l-.002.001.001-.01s12.19-2.385 24.74-2.385 37.866.727 38.454 19.723c.382 12.347-11.252 14.898-14.498 15.918v.324s10.201.789 16.414 9.689C78.799 57.88 75.6 73.364 57.981 80.18"/><path d="M121.052 80.859c-4.559 1.539-9.52 2.335-14.711 2.335-12.952 0-24.477-4.953-31.857-14.046a22.6 22.6 0 0 0 1.955-4.541c1.801-5.903.951-11.988-2.332-16.692-2.375-3.404-5.27-5.705-8.03-7.264q.122-2.276.442-4.427c3.363-2.62 6.206-6.727 6.004-13.239a22 22 0 0 0-.207-2.43C79.48 9.574 92.04 3.537 106.341 3.537c4.563 0 8.947.616 13.037 1.81a33 33 0 0 0-3.902-.233c-9.033 0-17.209 3.414-23.023 9.614-6.383 6.806-9.758 16.688-9.758 28.577 0 26.274 16.463 38.036 32.781 38.036 1.867 0 3.732-.165 5.576-.482M9.621 25.143s8.299-7.696 21.56-7.696 15.255 6.213 15.255 9.365c0 2.21-.938 4.046-1.896 5.346 8.458-1.326 12.746-4.958 12.746-10.816 0-5.3-3.027-9.098-9.254-11.61-5.687-2.296-14.024-3.46-24.78-3.46-4.737 0-9.928.426-15.428 1.266l-.631.144-2.92 20.368s2.968-1.761 5.348-2.907M50.64 57.786c0 5.873-6.121 9.768-18.485 9.768S9.899 58.033 9.899 58.033L4.83 55.93l2.382 25.168c3.604.279 8.726.535 15.983.675q.65.012 1.291.012c21.518 0 34.376-10.128 34.376-19.918 0-8.94-6.562-17.989-19.104-17.989-7.497 0-13.149 3.637-16.504 6.59a36.3 36.3 0 0 1 12.239-2.141c10.077 0 15.147 3.586 15.147 9.459m59.133 7.279c.406 0 .092-9.211 5.912-15.971 2.102-2.442 5.148-4.104 7.881-5.08 0 0-.787-8.681-1.418-13.588h-.275s-.381 5.969-2.037 10.927c0 0-.455-.138-1.215-.332-2.33-7.987-2.582-15.211-2.582-15.211h-.354c-.555 7.856-1.475 12.403-1.917 14.241q-.742-.107-1.512-.181c-.209-.916-.599-2.763-1.026-5.417-.63-3.92-.828-6.666-.984-9.084s-.196-4.029-.473-4.029-.316 1.612-.474 4.029c-.159 2.418-.354 5.164-.986 9.084-.426 2.654-.815 4.501-1.024 5.417a31 31 0 0 0-1.512.181c-.443-1.838-1.363-6.385-1.916-14.241h-.354s-.25 7.224-2.581 15.211c-.76.194-1.217.332-1.217.332-1.654-4.958-2.035-10.927-2.035-10.927h-.276c-.629 4.907-1.418 13.588-1.418 13.588 2.731.978 5.78 2.638 7.884 5.08 5.815 6.76 5.501 15.971 5.909 15.971"/></svg>