<svg xmlns="http://www.w3.org/2000/svg" xml:space="preserve" width="149.999" height="86.883"><g transform="translate(-4.694 -4.388)"><path d="M38.639 91.271c-14.092 0-27.129-2.186-27.259-2.207l-2.512-.424-3.171-33.503 10.746 4.457.452.434c.019.019.479.45 1.302 1.11l9.576-25.453 2.281-.015c.021 0 6.498-.047 11.338-.047 1.162 0 2.686-.019 4.408-.153.733-.765 2.008-2.367 2.008-4.27 0-3.841-4.35-6.044-11.934-6.044-11.647 0-19.238 6.754-19.313 6.821l-.359.329-.444.216c-2.176 1.046-4.977 2.7-5.096 2.771l-5.968 3.543 4.522-31.55 2.315-.452c.507-.101 12.587-2.446 25.378-2.446 7.76 0 16.767.344 24.728 2.896 7.689 2.467 12.83 6.546 15.321 12.15a39 39 0 0 1 3.286-3.464c7.857-7.329 18.791-11.366 30.789-11.366s22.933 4.037 30.789 11.366c8.42 7.855 12.871 18.847 12.871 31.784s-4.451 23.928-12.87 31.784c-7.857 7.329-18.792 11.366-30.79 11.366s-22.932-4.037-30.789-11.366a39 39 0 0 1-1.996-2.005c-3.412 4.316-8.344 7.799-14.377 10.133-6.184 2.392-14.674 3.605-25.232 3.605m-18.28-28.519c3.626 2.517 9.725 5.868 16.488 5.868 9.496 0 15.164-2.409 15.164-6.446 0-5.341-7.408-6.138-11.825-6.138-8.921 0-15.056 3.724-15.116 3.761z"/><linearGradient id="a" x1="12.168" x2="151.374" y1="47.829" y2="47.829" gradientUnits="userSpaceOnUse"><stop offset="0" style="stop-color:#bb2c26"/><stop offset=".079" style="stop-color:#bd3026"/><stop offset=".16" style="stop-color:#c33d25"/><stop offset=".243" style="stop-color:#cd5125"/><stop offset=".326" style="stop-color:#db6e23"/><stop offset=".35" style="stop-color:#e07823"/><stop offset=".381" style="stop-color:#e78221"/><stop offset=".448" style="stop-color:#f3921e"/><stop offset=".5" style="stop-color:#f7981d"/><stop offset=".552" style="stop-color:#f3921e"/><stop offset=".619" style="stop-color:#e78221"/><stop offset=".65" style="stop-color:#e07823"/><stop offset=".733" style="stop-color:#d35d24"/><stop offset=".837" style="stop-color:#c64225"/><stop offset=".929" style="stop-color:#be3226"/><stop offset="1" style="stop-color:#bb2c26"/></linearGradient><path fill="url(#a)" d="M89.242 47.692c0 24.374 14.837 36.181 30.927 36.181 6.203 0 12.576-1.91 18.069-5.594 8.071-6.816 13.136-17.195 13.136-30.525 0-14.481-5.977-25.48-15.293-32.212-4.918-2.757-10.428-4.186-15.912-4.186-16.553 0-30.927 11.962-30.927 36.336m46.366-.912c0 17.155-8.438 26.15-21.143 26.15s-21.143-9.365-21.143-26.15 8.438-26.15 21.143-26.15 21.143 8.994 21.143 26.15M62.675 84.568c-7.959 3.079-19.083 3.626-28.886 3.299 19.299-1.355 31.621-11.15 31.621-21.612 0-9.83-7.233-19.846-20.958-19.846-11.911 0-19.36 8.352-21.122 10.559l-.021.013 6.77-17.99s6.492-.046 11.314-.046c1.253 0 3.371-.017 5.819-.268 6.972-.715 16.621-3.339 16.621-12.947 0-12.982-15.811-16.923-35.888-16.923-5.508 0-10.978.561-15.774 1.295l-.003.001.002-.01s12.19-2.385 24.74-2.385 37.866.727 38.454 19.723c.381 12.347-11.252 14.898-14.498 15.918v.324s10.201.789 16.414 9.69c6.213 8.904 3.014 24.389-14.605 31.205" style="fill:url(#a)"/><linearGradient id="b" x1="8.967" x2="128.26" y1="47.753" y2="47.753" gradientUnits="userSpaceOnUse"><stop offset="0" style="stop-color:#f7981d"/><stop offset=".117" style="stop-color:#f18f1f"/><stop offset=".3" style="stop-color:#e07823"/><stop offset=".327" style="stop-color:#d56224"/><stop offset=".364" style="stop-color:#ca4a25"/><stop offset=".403" style="stop-color:#c13925"/><stop offset=".446" style="stop-color:#bd2f26"/><stop offset=".5" style="stop-color:#bb2c26"/><stop offset=".554" style="stop-color:#bd2f26"/><stop offset=".597" style="stop-color:#c13925"/><stop offset=".636" style="stop-color:#ca4a25"/><stop offset=".673" style="stop-color:#d56224"/><stop offset=".7" style="stop-color:#e07823"/><stop offset=".761" style="stop-color:#e78221"/><stop offset=".896" style="stop-color:#f3921e"/><stop offset="1" style="stop-color:#f7981d"/></linearGradient><path fill="url(#b)" d="M125.746 85.247c-4.559 1.539-9.521 2.335-14.712 2.335-12.951 0-24.477-4.953-31.857-14.046a22.6 22.6 0 0 0 1.955-4.541c1.802-5.903.952-11.988-2.332-16.692-2.375-3.404-5.27-5.705-8.029-7.264a47 47 0 0 1 .442-4.427c3.363-2.62 6.206-6.727 6.005-13.239a22 22 0 0 0-.207-2.43c7.162-10.981 19.725-17.019 34.023-17.019 4.563 0 8.947.616 13.038 1.81a33 33 0 0 0-3.903-.233c-9.032 0-17.209 3.414-23.023 9.614-6.383 6.806-9.758 16.688-9.758 28.577 0 26.274 16.464 38.035 32.781 38.035a33 33 0 0 0 5.577-.48M14.314 29.531s8.299-7.696 21.561-7.696c13.26 0 15.255 6.213 15.255 9.365 0 2.21-.939 4.046-1.896 5.346C57.692 35.22 61.98 31.588 61.98 25.73c0-5.3-3.027-9.098-9.255-11.61-5.687-2.295-14.023-3.459-24.779-3.459-4.736 0-9.928.426-15.428 1.266l-.631.144-2.92 20.368c0-.001 2.967-1.762 5.347-2.908m41.019 32.643c0 5.873-6.121 9.767-18.485 9.767s-22.256-9.52-22.256-9.52l-5.068-2.102 2.382 25.168c3.604.278 8.726.535 15.983.674q.65.012 1.291.012c21.518 0 34.376-10.128 34.376-19.918 0-8.94-6.563-17.99-19.104-17.99-7.497 0-13.149 3.638-16.505 6.591a36.3 36.3 0 0 1 12.239-2.141c10.078 0 15.147 3.586 15.147 9.459m59.133 7.279c.406 0 .092-9.211 5.912-15.97 2.102-2.443 5.15-4.104 7.882-5.08 0 0-.788-8.682-1.419-13.589h-.275s-.381 5.969-2.037 10.927c0 0-.455-.138-1.215-.332-2.33-7.987-2.582-15.211-2.582-15.211h-.354c-.555 7.856-1.474 12.403-1.916 14.241q-.742-.107-1.512-.181c-.209-.916-.6-2.763-1.027-5.417-.629-3.92-.828-6.666-.984-9.084-.158-2.417-.197-4.029-.473-4.029s-.316 1.612-.473 4.029c-.159 2.418-.355 5.164-.986 9.084-.426 2.654-.816 4.501-1.025 5.417a31 31 0 0 0-1.512.181c-.442-1.838-1.362-6.385-1.916-14.241h-.355s-.25 7.224-2.58 15.211c-.76.194-1.216.332-1.216.332-1.655-4.958-2.036-10.927-2.036-10.927h-.277c-.629 4.907-1.417 13.589-1.417 13.589 2.731.977 5.78 2.637 7.882 5.08 5.817 6.759 5.503 15.97 5.911 15.97" style="fill:url(#b)"/></g></svg>