<svg xmlns="http://www.w3.org/2000/svg" xml:space="preserve" width="150" height="84.521"><path d="M84.556 42.118c0 25.673 15.629 38.109 32.576 38.109 6.533 0 13.246-2.012 19.032-5.892C144.666 67.154 150 56.223 150 42.182c0-15.254-6.296-26.839-16.108-33.93-5.18-2.903-10.982-4.408-16.76-4.408-17.437 0-32.576 12.6-32.576 38.274m48.838-.961c0 18.069-8.89 27.545-22.271 27.545s-22.271-9.865-22.271-27.545 8.889-27.545 22.271-27.545 22.271 9.473 22.271 27.545M56.571 80.959c-8.383 3.243-20.099 3.819-30.425 3.475 20.328-1.428 33.307-11.745 33.307-22.765 0-10.354-7.619-20.904-22.075-20.904-12.546 0-20.393 8.797-22.249 11.122l-.021.014 7.13-18.95s6.837-.048 11.917-.048c1.32 0 3.551-.018 6.13-.282 7.343-.753 17.508-3.517 17.508-13.638 0-13.674-16.654-17.825-37.801-17.825-5.802 0-11.563.591-16.616 1.364l-.004.001.001-.01S16.214 0 29.432 0s39.885.766 40.504 20.774c.402 13.005-11.852 15.693-15.271 16.767v.342s10.745.831 17.289 10.207c6.545 9.378 3.176 25.69-15.383 32.869"/><path d="M123.006 81.674c-4.802 1.621-10.028 2.46-15.497 2.46-13.642 0-25.78-5.218-33.555-14.795a24 24 0 0 0 2.059-4.783c1.898-6.219 1.003-12.628-2.456-17.583-2.502-3.586-5.551-6.009-8.458-7.65q.127-2.398.466-4.663c3.542-2.76 6.537-7.085 6.325-13.945a24 24 0 0 0-.218-2.56C79.216 6.589 92.449.229 107.509.229c4.807 0 9.426.649 13.734 1.906a35 35 0 0 0-4.111-.246c-9.514 0-18.127 3.597-24.252 10.127-6.723 7.169-10.277 17.578-10.277 30.102 0 27.675 17.342 40.063 34.529 40.063a35 35 0 0 0 5.874-.507M5.632 22.988s8.743-8.106 22.71-8.106 16.068 6.544 16.068 9.864c0 2.328-.989 4.262-1.998 5.631 8.909-1.396 13.426-5.223 13.426-11.394 0-5.582-3.189-9.582-9.748-12.229-5.989-2.418-14.77-3.643-26.099-3.643-4.99 0-10.457.448-16.251 1.333l-.665.15L0 26.049s3.125-1.855 5.632-3.061m43.206 34.383c0 6.187-6.447 10.288-19.471 10.288S5.925 57.631 5.925 57.631L.586 55.417l2.509 26.51c3.796.293 9.191.563 16.836.71q.684.013 1.359.013c22.666 0 36.209-10.668 36.209-20.98 0-9.417-6.912-18.949-20.122-18.949-7.896 0-13.851 3.831-17.385 6.942a38.2 38.2 0 0 1 12.892-2.255c10.614 0 15.954 3.777 15.954 9.963m62.286 7.668c.429 0 .097-9.702 6.228-16.821 2.214-2.574 5.425-4.322 8.302-5.352 0 0-.83-9.145-1.494-14.313h-.291s-.4 6.287-2.145 11.51c0 0-.48-.146-1.28-.35-2.454-8.413-2.72-16.022-2.72-16.022h-.372c-.584 8.275-1.552 13.065-2.019 15.001a33 33 0 0 0-1.593-.19c-.22-.965-.63-2.91-1.081-5.706-.663-4.129-.872-7.021-1.037-9.568-.167-2.546-.208-4.244-.498-4.244s-.333 1.698-.498 4.244c-.168 2.547-.373 5.439-1.039 9.568-.449 2.796-.859 4.741-1.08 5.706q-.81.078-1.592.19c-.467-1.936-1.436-6.726-2.018-15.001h-.375s-.264 7.609-2.719 16.022c-.8.204-1.279.35-1.279.35-1.744-5.223-2.146-11.51-2.146-11.51h-.292c-.662 5.169-1.492 14.313-1.492 14.313 2.877 1.029 6.088 2.777 8.303 5.352 6.129 7.118 5.797 16.821 6.227 16.821"/></svg>