<?xml version="1.0" encoding="UTF-8" standalone="no"?>
<svg
   id="Layer_2"
   data-name="Layer 2"
   viewBox="0 0 712.81909 589.70188"
   version="1.1"
   width="712.81909"
   height="589.7019"
   xmlns="http://www.w3.org/2000/svg"
   xmlns:svg="http://www.w3.org/2000/svg">
  <defs
     id="defs1">
    <style
       id="style1">
      .cls-1 {
        stroke-width: 0px;
      }
    </style>
  </defs>
  <g
     id="Layer_1-2"
     data-name="Layer 1"
     transform="translate(-0.43191304,-0.25290909)">
    <path
       class="cls-1"
       d="M 338.19,365.67 C 212.97,255.9 105.96,143.56 29.23,41.35 20.35,29.62 4.98,8.04 1.25,2.27 Q -0.43,-0.31 1.34,0.41 c 0.98,0.36 6.75,2.49 12.88,4.71 120.33,43.52 273.44,125.13 424.5,226.28 29.84,20.07 33.13,22.38 32.24,22.91 -1.24,0.71 -75.22,31.88 -76.82,32.33 -1.24,0.36 -38.36,-24.33 -145.91,-97.24 -6.84,-4.62 -15.86,-11.33 -14.44,-9.91 1.51,1.51 38.33,33.71 76.16,66.57 53.64,46.62 68.83,60.21 68.65,61.63 -0.62,6.66 -10.39,82.77 -10.57,83.04 -0.44,0.53 -5.59,-3.91 -29.84,-25.04 z m 236.32,-57.46 c 0.8,0 26.2,-14.56 27.8,-15.9 0.27,-0.27 -0.36,-6.57 -1.51,-13.85 -1.15,-7.37 -1.86,-13.59 -1.51,-13.94 0.36,-0.36 9.24,-5.24 19.63,-10.83 l 18.92,-10.21 8.97,7.55 c 4.97,4.17 9.5,7.82 10.04,7.99 1.24,0.53 18.47,-9.59 18.29,-10.75 -0.09,-0.71 -29.57,-44.05 -29.84,-43.96 -0.09,0 -22.02,9.77 -48.93,21.58 v 0 c -42.18,18.65 -48.84,21.85 -48.58,23.36 1.33,7.28 24.69,58.97 26.73,58.97 z m 28.51,73.54 -9.06,-9.5 c -18.65,-19.18 -35.79,-45.65 -50.44,-77.35 -6.13,-13.14 -13.59,-31.44 -14.65,-35.79 -0.36,-1.33 -0.89,-2.58 -1.24,-2.75 -0.27,-0.09 -24.87,10.04 -54.71,22.65 v 0 c -29.75,12.61 -54.53,23.09 -54.88,23.18 -0.8,0.36 39.08,31.17 40.76,31.62 0.53,0.18 2.93,-0.98 5.33,-2.4 24.51,-15.01 58.7,-4.53 71.4,21.76 5.77,11.99 6.84,28.06 2.66,40.05 -5.15,14.74 -17.76,27.18 -32.5,32.15 -27.53,9.24 -58.26,-7.55 -65.63,-35.97 -1.69,-6.66 -1.69,-19.54 0.09,-26.38 1.15,-4.35 1.15,-5.51 0.18,-6.39 -2.93,-2.66 -39.96,-30.82 -40.23,-30.55 -0.27,0.36 -15.36,118.29 -15.19,118.56 0.09,0.09 6.31,0.8 13.85,1.6 46.98,5.06 90.32,17.58 118.56,34.19 4.26,2.49 7.9,4.44 7.99,4.35 0.09,-0.18 17.67,-23.36 38.99,-51.69 l 38.72,-51.33 z m -214.12,84.98 -6.75,-0.62 -0.53,2.93 v 0 c -1.33,7.55 -14.92,103.99 -14.65,104.26 0.18,0.09 11.37,4.09 24.95,8.88 19.54,6.84 24.95,8.44 25.49,7.55 0.8,-1.33 5.51,-19.63 5.15,-19.98 -0.18,-0.09 -4.44,-3.11 -9.59,-6.66 -5.15,-3.64 -9.68,-6.84 -10.04,-7.19 -0.71,-0.53 7.82,-41.3 9.06,-43.34 0.36,-0.53 6.39,-1.6 13.41,-2.4 7.1,-0.8 13.14,-1.78 13.5,-2.04 0.8,-0.71 8.97,-31.26 8.53,-31.7 -1.6,-1.51 -42.27,-8.26 -58.52,-9.68 z m 324.33,29.58 c -0.44,-0.53 -27.8,-10.48 -28.68,-10.48 -0.09,0 -8.61,11.1 -18.92,24.6 -10.21,13.59 -18.56,25.22 -18.56,26.02 0,1.07 4.09,7.28 16.78,25.58 0.18,0.18 38.63,-20.87 39.43,-21.67 0.8,-0.71 10.48,-43.52 9.95,-44.05 z m -62.88,-32.68 c -0.36,0 -8.08,9.86 -17.14,21.85 v 0 c -9.06,12.08 -16.7,22.29 -17.05,22.91 -0.71,1.24 13.85,12.52 15.19,11.72 1.07,-0.71 32.86,-42.72 33.48,-44.32 0.44,-1.15 -12.7,-12.17 -14.48,-12.17 z m -10.21,-8.35 -7.82,-6.04 c -4.35,-3.29 -7.99,-6.04 -8.26,-6.04 -0.18,0 -7.99,10.12 -17.32,22.56 -9.41,12.34 -17.05,22.73 -17.05,23 0,0.27 3.46,3.2 7.64,6.48 7.46,5.77 7.64,5.86 9.24,4.26 0.89,-0.89 8.79,-11.28 17.58,-22.91 z m -27,-20.78 c -0.44,-0.36 -3.91,-2.93 -7.55,-5.77 -3.73,-2.75 -6.93,-5.06 -7.19,-5.06 -0.26,0 -8.17,10.21 -17.5,22.65 -9.32,12.43 -16.96,22.82 -16.96,23 0,0.62 14.03,11.19 14.92,11.19 1.42,0 35.26,-45.38 34.28,-46 z"
       id="path1" />
  </g>
</svg>
