<svg xmlns="http://www.w3.org/2000/svg" width="600" height="278.833"><path d="m583.81 110.908 4.615-8.76L250.82 0 14.677 75.61l-.895 1.08C13.523 77.085.074 93.71 0 117.433c-.037 11.141 3.14 23.834 12.083 36.452l.831 1.154 317.41 123.101.22.037c.287.074 2.456.656 5.66.656 3.572 0 8.584-.729 13.236-4.117L600 176.54l-5.372-9.268-34.182-11.686c-1.006-3.25-1.44-6.775-1.44-10.348 0-6.092 1.302-12.406 3.212-17.557 1.8-5.16 4.284-9.563 5.982-11.077z" style="fill:#fff"/><path d="m335.63 182.88 212.05-76.19-296.714-89.742-197.38 63.166zm-19.116 72.581c-2.012-6.96-3.498-15.064-3.526-23.87 0-10.45 2.05-20.548 6.194-30.139L22.394 93.351a31 31 0 0 0-.97 1.91c-2.418 5.087-5.27 13.053-5.27 22.136.037 8.584 2.42 16.588 7.283 24.378zm26.363 4.477c-3.138-6.6-6.812-16.772-6.785-28.375 0-9.6 2.382-18.434 7.256-26.935l200.77-72.083c-.83 4.218-1.266 8.51-1.266 12.692 0 8.114 1.625 15.434 4.791 21.812a38.4 38.4 0 0 0 7.034 9.85z"/></svg>