<svg xmlns="http://www.w3.org/2000/svg" xmlns:xlink="http://www.w3.org/1999/xlink" width="600" height="278.833"><radialGradient id="a" cx="0" cy="0" r="1" fx="0" fy="0" gradientTransform="matrix(21.91623 0 0 -21.91623 480.674 482.472)" gradientUnits="userSpaceOnUse" spreadMethod="pad"><stop offset="0" style="stop-color:#f6b91d"/><stop offset=".7" style="stop-color:#d3641c"/><stop offset="1" style="stop-color:#bf331c"/></radialGradient><radialGradient xlink:href="#a" id="b" cx="0" cy="0" r="1" fx="0" fy="0" gradientTransform="translate(283.65 137.777)scale(202.30354)" gradientUnits="userSpaceOnUse" spreadMethod="pad"/><path d="m583.81 110.908 4.615-8.76L250.82 0 14.677 75.61l-.895 1.08C13.523 77.085.074 93.71 0 117.433c-.037 11.141 3.14 23.834 12.083 36.452l.831 1.154 317.41 123.101.22.037c.287.074 2.456.656 5.66.656 3.572 0 8.584-.729 13.236-4.117L600 176.54l-5.372-9.268-34.182-11.686c-1.006-3.25-1.44-6.775-1.44-10.348 0-6.092 1.302-12.406 3.212-17.557 1.8-5.16 4.284-9.563 5.982-11.077z" style="fill:#fff"/><path d="m335.63 182.88 212.05-76.19-296.714-89.742-197.38 63.166zm-19.116 72.581c-2.012-6.96-3.498-15.064-3.526-23.87 0-10.45 2.05-20.548 6.194-30.139L22.394 93.351a31 31 0 0 0-.97 1.91c-2.418 5.087-5.27 13.053-5.27 22.136.037 8.584 2.42 16.588 7.283 24.378zm26.363 4.477c-3.138-6.6-6.812-16.772-6.785-28.375 0-9.6 2.382-18.434 7.256-26.935l200.77-72.083c-.83 4.218-1.266 8.51-1.266 12.692 0 8.114 1.625 15.434 4.791 21.812a38.4 38.4 0 0 0 7.034 9.85z" style="fill:#bf331c"/><path d="M70.68 80.437 335.63 177l194.42-69.84-279.01-84.415zm-48.969 36.96c0 6.96 1.8 13.523 5.52 19.938l281.538 109.19a87.3 87.3 0 0 1-1.3-14.898 80.2 80.2 0 0 1 4.503-26.935L25.283 100.274c-1.846 4.43-3.572 10.458-3.572 17.123m325.458 91.735c-3.72 7.099-5.557 14.455-5.557 22.459 0 8.076 1.985 15.47 4.22 21.24l199.762-78.314c-1.043-1.588-2.059-3.286-2.89-5.013-3.562-7.107-5.409-15.286-5.409-24.267 0-1.44.074-2.917.148-4.403z" style="fill:url(#b)"/></svg>