<svg xmlns="http://www.w3.org/2000/svg" xmlns:xlink="http://www.w3.org/1999/xlink" width="200.998" height="200.999"><defs><linearGradient id="a"><stop offset="0" style="stop-color:#7f6e41;stop-opacity:1"/><stop offset=".1" style="stop-color:#ae975f;stop-opacity:1"/><stop offset=".5" style="stop-color:#e3cd99;stop-opacity:1"/><stop offset=".9" style="stop-color:#ae975f;stop-opacity:1"/><stop offset="1" style="stop-color:#7f6e41;stop-opacity:1"/></linearGradient><linearGradient xlink:href="#a" id="b" x1="351.469" x2="242.531" y1="189.969" y2="81.031" gradientTransform="translate(-196.5 -35)" gradientUnits="userSpaceOnUse"/></defs><path d="M100.5 0c-3.346 0-6.545 2.432-7.438 5.656L84.187 37.5l-.313-.25c-.989-.769-2.063-1.507-3.75-2.094-1.687-.586-4.531-.876-7.062.407s-3.8 3.43-4.375 4.906-.712 2.61-.813 3.687L67.5 48l-14.937-8.125c-.854-.464-1.453-.986-3.5-1.531-2.048-.545-6.53.461-8.157 1.906a8 8 0 0 0-.656.656c-1.444 1.628-2.451 6.11-1.906 8.157s1.067 2.646 1.531 3.5L48 67.5l-3.844.375c-1.078.1-2.212.238-3.687.813-1.475.574-3.624 1.843-4.906 4.374-1.283 2.532-.993 5.376-.407 7.063s1.325 2.76 2.094 3.75l.25.313-31.844 8.874C2.432 93.958 0 97.156 0 100.5s2.432 6.543 5.655 7.438l31.844 8.874-.25.313c-.769.99-1.507 2.063-2.094 3.75-.586 1.687-.876 4.531.407 7.063 1.282 2.53 3.43 3.8 4.906 4.374 1.475.575 2.61.712 3.687.813L48 133.5l-8.125 14.938c-.464.853-.986 1.452-1.531 3.5s.462 6.529 1.906 8.156q.31.347.656.656c1.628 1.445 6.11 2.451 8.157 1.906s2.646-1.067 3.5-1.531L67.499 153l.375 3.844c.101 1.078.238 2.212.813 3.687.574 1.476 1.843 3.624 4.375 4.906 2.53 1.283 5.375.993 7.062.407s2.761-1.325 3.75-2.094l.313-.25 8.875 31.844c.894 3.223 4.092 5.655 7.437 5.655s6.544-2.432 7.438-5.655l8.875-31.844.312.25c.99.769 2.063 1.507 3.75 2.094 1.687.586 4.531.876 7.063-.406 2.53-1.283 3.8-3.431 4.375-4.907.574-1.475.711-2.61.812-3.687L133.5 153l14.938 8.125c.854.464 1.452.986 3.5 1.531s6.529-.461 8.156-1.906a8 8 0 0 0 .656-.656c1.445-1.627 2.451-6.11 1.906-8.156-.545-2.048-1.067-2.647-1.53-3.5l-8.126-14.938 3.844-.375c1.078-.1 2.212-.238 3.687-.812 1.476-.575 3.624-1.844 4.907-4.375 1.282-2.532.992-5.376.406-7.063s-1.325-2.76-2.094-3.75l-.25-.312 31.844-8.876c3.223-.894 5.655-4.092 5.655-7.437s-2.432-6.543-5.655-7.437l-31.844-8.876.25-.312c.769-.99 1.508-2.063 2.094-3.75s.876-4.531-.406-7.062-3.431-3.8-4.907-4.376c-1.475-.574-2.61-.711-3.687-.812l-3.844-.375 8.125-14.937c.464-.854.986-1.453 1.531-3.5.545-2.048-.461-6.53-1.906-8.157a8 8 0 0 0-.656-.656c-1.627-1.445-6.109-2.451-8.156-1.906s-2.646 1.067-3.5 1.531L133.499 48l-.375-3.844c-.1-1.078-.238-2.212-.812-3.687-.575-1.476-1.844-3.624-4.375-4.907-2.532-1.282-5.376-.992-7.063-.406-1.687.587-2.76 1.325-3.75 2.094l-.312.25-8.875-31.844C107.043 2.432 103.845 0 100.499 0" style="fill:#000;fill-opacity:1;stroke:none"/><path d="M100.5 7.719 89.436 47.438c-.63 2.264-1.513 2.756-3.532 1.187l-6.78-5.281c-2.375-1.846-3.317-1.095-3.563 1.531l-1.22 13c-.109 1.173-1.477 1.803-2.437 1.281l-23.03-12.5c-1.666-.904-2.216-1.183-2.845-.625-.558.629-.279 1.18.625 2.844l12.5 23.031c.522.96-.107 2.328-1.28 2.438l-13 1.219c-2.627.245-3.378 1.188-1.532 3.562l5.281 6.781c1.57 2.02 1.077 2.902-1.187 3.531L7.717 100.5l39.72 11.063c2.264.63 2.757 1.512 1.187 3.53l-5.281 6.782c-1.846 2.374-1.095 3.317 1.531 3.563l13 1.218c1.174.11 1.803 1.478 1.281 2.438l-12.5 23.031c-.904 1.665-1.183 2.215-.625 2.844.629.558 1.18.28 2.844-.625l23.031-12.5c.96-.522 2.328.108 2.438 1.281l1.219 13c.246 2.626 1.188 3.377 3.562 1.531l6.781-5.281c2.02-1.57 2.902-1.077 3.532 1.188l11.062 39.718 11.063-39.719c.63-2.264 1.512-2.756 3.53-1.187l6.782 5.281c2.375 1.846 3.317 1.095 3.563-1.531l1.218-13c.11-1.173 1.478-1.803 2.438-1.281l23.031 12.5c1.665.904 2.215 1.183 2.844.625.558-.629.28-1.18-.625-2.844l-12.5-23.031c-.521-.96.108-2.328 1.281-2.438l13-1.219c2.626-.245 3.377-1.188 1.531-3.562l-5.28-6.781c-1.57-2.02-1.077-2.902 1.187-3.531L193.28 100.5l-39.718-11.062c-2.264-.63-2.757-1.513-1.188-3.532l5.281-6.781c1.846-2.374 1.095-3.317-1.53-3.562l-13-1.22c-1.174-.11-1.803-1.477-1.282-2.437l12.5-23.031c.904-1.665 1.183-2.215.625-2.844-.629-.558-1.179-.28-2.844.625l-23.031 12.5c-.96.522-2.328-.108-2.438-1.281l-1.218-13c-.246-2.626-1.188-3.377-3.563-1.531l-6.781 5.281c-2.02 1.57-2.901 1.077-3.531-1.187zm0 54.281c21.262 0 38.5 17.237 38.5 38.5S121.761 139 100.5 139C79.235 139 62 121.763 62 100.5S79.235 62 100.5 62m0 11C85.31 73 73 85.312 73 100.5S85.31 128 100.5 128c15.187 0 27.5-12.312 27.5-27.5S115.686 73 100.5 73" style="fill:url(#b);fill-opacity:1;stroke:none"/></svg>