<svg xmlns="http://www.w3.org/2000/svg" width="600" height="451.935"><path d="M600 451.935H376.857v-19.501c0-5.875 0-9.762-3.615-18.1-3.932-9.13-12.711-24.145-73.259-101.64-60.469 77.495-69.293 92.51-73.225 101.64-3.615 8.338-3.615 12.225-3.615 18.1v19.5H.045l14.078-28.245c9.796-19.501 31.251-23.252 45.453-25.681 3.006-.532 5.966-1.062 8.61-1.729 7.683-1.887 38.437-40.47 138.405-170.312C106.623 96.127 75.869 57.554 68.186 55.656c-2.69-.7-5.604-1.187-8.689-1.718-14.168-2.474-35.578-6.225-45.329-25.692L0 0h223.143v19.512c0 5.864 0 9.75 3.615 18.089 3.887 9.14 12.756 24.145 73.225 101.64 60.548-77.495 69.372-92.5 73.259-101.64 3.615-8.338 3.615-12.225 3.615-18.089V0H600l-14.168 28.246c-9.705 19.467-31.15 23.218-45.318 25.692-3.05.532-6 1.017-8.654 1.718-7.717 1.898-38.483 40.47-138.406 170.311C493.377 355.808 524.143 394.392 531.86 396.28c2.61.667 5.558 1.198 8.564 1.729 14.213 2.429 35.703 6.18 45.453 25.68z" style="fill:#fff"/><path d="M568.41 432.434c-6.892-13.773-27.546-13.773-41.273-17.219-13.773-3.435-20.654-10.327-158.313-189.248C506.484 47.047 513.364 40.166 527.137 36.72c13.727-3.435 34.38-3.435 41.273-17.208H396.37c0 6.881 0 13.773-5.21 25.772-5.117 12.044-15.444 29.263-91.177 125.604-75.654-96.341-85.98-113.56-91.144-125.604-5.163-11.999-5.163-18.891-5.163-25.772H31.602c6.88 13.773 27.534 13.773 41.306 17.208 13.728 3.446 20.654 10.326 158.268 189.247C93.562 404.888 86.636 411.78 72.908 415.215c-13.772 3.446-34.426 3.446-41.306 17.219h172.074c0-6.892 0-13.773 5.163-25.817 5.163-12.055 15.49-29.218 91.144-125.615 75.733 96.397 86.06 113.56 91.178 125.615 5.208 12.044 5.208 18.925 5.208 25.817z"/></svg>