<svg xmlns="http://www.w3.org/2000/svg" width="600" height="451.935"><linearGradient id="a" x1="0" x2="1" y1="0" y2="0" gradientTransform="matrix(47.5127 0 0 -47.5127 723.6 146.512)" gradientUnits="userSpaceOnUse" spreadMethod="pad"><stop offset="0" style="stop-color:#8b723c"/><stop offset=".3" style="stop-color:#d2bb7b"/><stop offset=".5" style="stop-color:#ebd491"/><stop offset=".7" style="stop-color:#d2bb7b"/><stop offset="1" style="stop-color:#8b723c"/></linearGradient><path d="M599.955 451.935H376.857v-19.501c0-5.875 0-9.762-3.615-18.1-3.932-9.13-12.756-24.145-73.27-101.64-60.458 77.495-69.327 92.51-73.214 101.64-3.615 8.338-3.615 12.225-3.615 18.1v19.5H0l14.123-28.245c9.75-19.501 31.24-23.252 45.453-25.681 3.006-.532 5.955-1.062 8.61-1.729 7.637-1.887 38.392-40.47 138.36-170.312C106.623 96.127 75.869 57.554 68.14 55.656c-2.643-.7-5.604-1.187-8.654-1.718-14.168-2.474-35.613-6.225-45.363-25.692L0 0h223.143v19.512c0 5.864 0 9.75 3.615 18.089 3.887 9.14 12.756 24.145 73.214 101.64 60.514-77.495 69.383-92.5 73.27-101.64 3.615-8.338 3.615-12.225 3.615-18.089V0H600l-14.168 28.246c-9.75 19.467-31.161 23.218-45.318 25.692-3.05.532-6.01 1.017-8.654 1.718-7.774 1.898-38.528 40.47-138.406 170.311C493.377 355.808 524.131 394.392 531.86 396.28c2.598.667 5.558 1.198 8.564 1.729 14.168 2.429 35.657 6.18 45.453 25.68z"/><path d="M755.883 164.785c0-.609 0-1.219-.457-2.281-.457-1.066-1.367-2.59-8.071-11.117-6.699 8.527-7.613 10.051-8.07 11.117-.457 1.062-.457 1.672-.457 2.281h-15.226c.609-1.219 2.433-1.219 3.656-1.523 1.215-.305 1.824-.914 14.008-16.75-12.184-15.836-12.793-16.446-14.008-16.75-1.223-.305-3.047-.305-3.656-1.524h15.226c0 .61 0 1.219.457 2.285s1.371 2.586 8.07 11.118c6.704-8.532 7.614-10.051 8.071-11.118.457-1.066.457-1.675.457-2.285h15.23c-.609 1.219-2.437 1.219-3.656 1.524s-1.828.914-14.008 16.75c12.18 15.836 12.789 16.445 14.008 16.75s3.047.304 3.656 1.523z" style="fill:url(#a)" transform="matrix(11.29837 0 0 -11.29837 -8143.922 1881.314)"/></svg>