<svg xmlns="http://www.w3.org/2000/svg" width="600" height="451.96"><linearGradient id="a" x1="0" x2="1" y1="0" y2="0" gradientTransform="matrix(47.5127 0 0 -47.5127 640.197 146.512)" gradientUnits="userSpaceOnUse" spreadMethod="pad"><stop offset="0" style="stop-color:#612c75"/><stop offset=".3" style="stop-color:#7b5190"/><stop offset=".5" style="stop-color:#bf99c3"/><stop offset=".7" style="stop-color:#7b5190"/><stop offset="1" style="stop-color:#612c75"/></linearGradient><path fill="#fff" d="M600 451.96H376.845v-19.502c0-5.875 0-9.762-3.57-18.1-3.933-9.13-12.758-24.147-73.275-101.647-60.506 77.5-69.342 92.517-73.263 101.646-3.582 8.339-3.582 12.226-3.582 18.101v19.502H0l14.124-28.247c9.762-19.502 31.253-23.254 45.422-25.683 3.04-.531 5.954-1.062 8.61-1.729 7.672-1.886 38.439-40.473 138.412-170.32C106.64 96.131 75.873 57.556 68.156 55.658c-2.7-.7-5.605-1.186-8.7-1.718-14.17-2.474-35.57-6.225-45.332-25.693L0 0h223.155v19.513c0 5.865 0 9.751 3.582 18.09C230.658 46.744 239.494 61.75 300 139.25c60.517-77.5 69.342-92.505 73.274-101.646 3.57-8.339 3.57-12.225 3.57-18.09V0H600l-14.124 28.248c-9.75 19.468-31.208 23.219-45.377 25.693-3.039.531-6 1.017-8.643 1.718-7.729 1.898-38.496 40.473-138.413 170.321 99.962 129.848 130.73 168.435 138.413 170.321 2.598.667 5.559 1.198 8.598 1.73 14.17 2.428 35.671 6.18 45.422 25.682z"/><path d="M672.48 164.785c0-.609 0-1.219-.457-2.281-.457-1.066-1.371-2.59-8.07-11.117-6.699 8.527-7.613 10.051-8.07 11.117-.457 1.062-.457 1.672-.457 2.281h-15.231c.61-1.219 2.438-1.219 3.657-1.523 1.218-.305 1.828-.914 14.011-16.75-12.183-15.836-12.793-16.446-14.011-16.75-1.219-.305-3.047-.305-3.657-1.524h15.231c0 .61 0 1.219.457 2.285s1.371 2.586 8.07 11.118c6.699-8.532 7.613-10.051 8.07-11.118.457-1.066.457-1.675.457-2.285h15.231c-.613 1.219-2.438 1.219-3.656 1.524-1.219.304-1.828.914-14.012 16.75 12.184 15.836 12.793 16.445 14.012 16.75 1.218.304 3.043.304 3.656 1.523z" style="fill:url(#a)" transform="matrix(11.299 0 0 -11.299 -7202.011 1881.42)"/></svg>