<svg xmlns="http://www.w3.org/2000/svg" xmlns:xlink="http://www.w3.org/1999/xlink" width="600" height="517.925"><radialGradient id="a" cx="0" cy="0" r="1" fx="0" fy="0" gradientTransform="matrix(19.1728 0 0 -19.1728 218.384 259.303)" gradientUnits="userSpaceOnUse" spreadMethod="pad"><stop offset="0" style="stop-color:#f6b91d"/><stop offset=".7" style="stop-color:#d3641c"/><stop offset="1" style="stop-color:#bf331c"/></radialGradient><radialGradient xlink:href="#a" id="b" cx="0" cy="0" r="1" fx="0" fy="0" gradientTransform="translate(299.985 258.94)scale(245.187)" gradientUnits="userSpaceOnUse" spreadMethod="pad"/><path d="m260.254 129.84 43.416 110.388 45.552-110.389zm314.17 388.085H25.576V386.602h157.308L73.43 129.93H0V0h600v129.929h-75.182L417.409 387.945h157.014z"/><path d="m303.07 313.709 87.215-211.352h-170.39ZM53.045 414.071h171.44L91.563 102.46H27.469V27.43h545.049v75.03h-66.039L376.205 415.427h170.736v74.978H53.046Z" style="fill:#bf331c"/><path d="M35.117 35.117V94.76h61.486l2.007 4.655 132.922 311.663 4.552 10.69H60.745v60.937h478.562v-59.593H364.709l4.399-10.64L499.395 99.467l1.944-4.706h63.493V35.117ZM295.92 316.51l-83.214-211.352-4.105-10.486h193.18l-4.4 10.64-87.215 211.351-7.251 17.635z" style="fill:url(#b)"/></svg>