<svg xmlns="http://www.w3.org/2000/svg" xml:space="preserve" style="fill-rule:evenodd;clip-rule:evenodd;stroke-linejoin:round;stroke-miterlimit:2" viewBox="0 0 160 75"><path d="M147.093 5.033C147.418 5.482 155 16.277 155 37.5c0 21.221-7.584 32.018-7.909 32.469l-1.037 1.443H59.257a3.466 3.466 0 0 1-3.336-2.522 3.466 3.466 0 0 1 1.517-3.9c.188-.12 4.98-3.2 3.337-6.876l-6.648-14.879a6 6 0 0 1-.236.117c-6.295 2.818-15.61 8.974-15.61 13.234 0 5.955 2.388 8.187 2.757 8.494 1.329.795 1.879 2.321 1.478 3.82-.407 1.516-1.874 2.512-3.444 2.512h-30.6A3.47 3.47 0 0 1 5 67.942v-.552c0-1.029.456-2.005 1.247-2.666.035-.03 4.23-3.608 6.626-8.969L31.12 14.924c.183-.409.152-.656.04-.947-.578-1.495-3.23-3.173-4.523-3.738a3.47 3.47 0 0 1 1.391-6.651h118.027zM61.438 67.191h31.9c-1.95-1.499-4.798-4.274-6.798-8.753l-19.127-42.8c-1.554-3.482-.118-6.184 1.634-7.83H30.896c1.572 1.047 3.427 2.637 4.202 4.646.538 1.389.496 2.802-.125 4.19L16.727 57.476c-2.138 4.781-5.386 8.244-6.921 9.713h27.43c-1.35-1.651-3.174-4.93-3.174-10.606 0-6.775 10.066-12.946 15.2-15.652H34.74L46.23 15.22l18.397 41.17c2.187 4.891-.994 8.824-3.19 10.801m82.435-59.383h-65.42c-2.052 0-4.403 1.332-5.597 3.166-.561.867-1.094 2.208-.437 3.68.14.316 14.222 31.951 18.66 41.754 4.693 10.364 16.772 10.771 18.128 10.783h34.668c1.172-1.841 6.907-11.795 6.907-29.691s-5.739-27.849-6.91-29.692M92.517 49.702a216 216 0 0 0 6.648-8.258q3.011-3.944 5.14-7.508 2.13-3.555 3.326-6.646c.794-2.062 1.19-3.954 1.19-5.688 0-1.974-.462-3.419-1.396-4.337-.94-.917-2.046-1.377-3.328-1.377q-1.248 0-2.18.494a4.25 4.25 0 0 0-1.505 1.298c-.386.536-.669 1.162-.859 1.872a8.5 8.5 0 0 0-.286 2.206c0 .487.033.96.105 1.429q.103.7.313 1.222l-.157.151-5.764-7.269q1.867-1.82 4.594-3.039 2.724-1.219 6.052-1.218c1.556 0 3.058.199 4.493.597q2.157.593 3.816 1.766a8.86 8.86 0 0 1 2.65 2.908c.654 1.158.984 2.52.984 4.075 0 1.838-.404 3.524-1.221 5.063q-1.217 2.315-3.323 4.78-2.1 2.467-4.986 5.376-2.881 2.909-6.205 6.856h12.777l.157-.056 2.596-5.658h.206v11.167H92.619zm37.136-33.813q-1.196-.001-2.05.521a4.3 4.3 0 0 0-1.402 1.352 6 6 0 0 0-.807 1.918 9.3 9.3 0 0 0-.26 2.182l-.156.055-4.153-4.518a12.2 12.2 0 0 1 4.23-3.222c1.644-.761 3.474-1.141 5.48-1.141q2.236 0 4.207.546c1.314.363 2.46.899 3.429 1.605a7.9 7.9 0 0 1 2.313 2.676q.854 1.61.855 3.74 0 1.77-.6 3.195a9.9 9.9 0 0 1-1.53 2.545 9 9 0 0 1-2.13 1.867 9.8 9.8 0 0 1-2.388 1.117v.211c1.106.274 2.147.655 3.114 1.141a9.4 9.4 0 0 1 2.52 1.818 7.7 7.7 0 0 1 1.66 2.596c.397 1.006.601 2.146.601 3.427q0 5.041-3.22 7.977t-9.144 2.934q-3.272 0-5.79-1.091-2.52-1.09-4.18-2.75l4.468-5.509.15.052c0 .831.099 1.635.288 2.416a6 6 0 0 0 .91 2.05q.618.882 1.585 1.429.955.546 2.257.546 2.392 0 3.635-1.712c.833-1.146 1.247-2.789 1.247-4.937 0-1.074-.102-2.101-.31-3.09q-.31-1.479-1.013-2.596a5.24 5.24 0 0 0-1.897-1.791c-.798-.452-1.782-.677-2.962-.677l-2.802-2.651v-.207h1.297c1.142 0 2.14-.24 2.985-.727a6.1 6.1 0 0 0 2.078-1.923 9.2 9.2 0 0 0 1.224-2.672 11.1 11.1 0 0 0 .413-2.988q.001-2.96-1.17-4.337-1.162-1.376-2.982-1.377"/></svg>