<svg xmlns="http://www.w3.org/2000/svg" width="180.643" height="300"><g transform="translate(-.178)"><linearGradient id="a" x1="42.217" x2="173.721" y1="85.131" y2="170.531" gradientUnits="userSpaceOnUse"><stop offset="0" style="stop-color:#612c75"/><stop offset=".3" style="stop-color:#7b5190"/><stop offset=".5" style="stop-color:#bf99c3"/><stop offset=".7" style="stop-color:#7b5190"/><stop offset="1" style="stop-color:#612c75"/></linearGradient><path fill="url(#a)" d="m174.02 170.072-84.546 47.901-78.954-47.232L90.724 10.438Z" style="fill:url(#a)"/><path fill="#fff" d="m90.813 20.876 76.873 147.325-78.146 44.275-72.801-43.55ZM90.635 0 4.3 172.556l85.109 50.913 90.944-51.526z"/></g><g transform="translate(-.178)"><linearGradient id="b" x1="17.015" x2="148.524" y1="191.209" y2="276.612" gradientUnits="userSpaceOnUse"><stop offset="0" style="stop-color:#612c75"/><stop offset=".3" style="stop-color:#7b5190"/><stop offset=".5" style="stop-color:#bf99c3"/><stop offset=".7" style="stop-color:#7b5190"/><stop offset="1" style="stop-color:#612c75"/></linearGradient><path fill="url(#b)" d="m89.635 250.653 81.963-47.643-35.177 92.24H40.81L8.892 203.718Z" style="fill:url(#b)"/><path fill="#fff" d="M162.374 213.866 133.148 290.5H44.184l-26.58-76.223 67.257 39.096 4.774 2.775 4.774-2.775zm18.447-21.712-91.187 53.005-89.456-52L37.436 300h102.258z"/></g></svg>