<svg xmlns="http://www.w3.org/2000/svg" width="897.033" height="896.996"><path d="M445.422.02a494 494 0 0 0-72.139 5.978c-125.442 20.476-239.84 97.84-306.24 206.16-75.2 119.278-87.36 274.317-35.36 404.958 32.32 82.563 91.52 153.36 164.16 203.68 97.2 66.562 221.12 89.839 336.48 68.562 137.28-25.042 259.52-118.88 319.917-244.48 46.32-93.601 55.921-203.282 32.48-304.563-29.039-124.477-115.437-234-229.597-291.438C590.8 14.917 517.976-.637 445.423.02m114.126 143.148c56.983.566 110.581 27.36 157.72 57.668l-.006-.008c.191.123.387.245.578.37-.188-.122-.383-.24-.572-.362 52.167 58.147 86.032 132.764 92.342 210.846.96 41.602 3.2 84.159-7.758 124.8-25.28 107.68-103.44 200.643-204.402 245.44-106.84 48.55-236.653 39.183-337.104-19.853-12.18-19.172-30.7-37.689-28.107-62.313 1.203-33.52 36.96-52.16 66.96-53.52 55.442-6.397 104.403 26.321 145.282 59.762-34.96-106.243-157.36-174.16-266.084-155.12 47.922-37.52 107.762-59.52 168.883-60 80.078-.563 157.12 29.28 224.72 70.558-71.678-113.68-200.8-181.52-330.24-205.918 24.561-13.84 54.157-11.36 81.438-14.082C468 342.475 603.123 404.878 726.002 476.159c-80-137.524-222.083-226.961-370.48-274.883 141.28-14.078 282.48 34.402 399.36 111.6-49.2-74.16-120.56-132.08-200.88-169.68q2.78-.055 5.547-.028"/></svg>