<svg xmlns="http://www.w3.org/2000/svg" width="600" height="252.982"><path d="M139.86 56.205s-43.437-24.61-82.647-40.8c0 0 45.677-4.738 69.167-4.738 12.148 0 23.602.537 34.047 1.555 35.453 3.506 103.722 15.284 175.276 54.715 1.092-8.641 2.276-14.313 2.313-14.424l1.378-6.393.935-4.45 4.126-1.98 5.921-2.821c18.54-8.78 40.838-13.268 66.317-13.268 50.275 0 97.542 17.496 102.788 19.448l13.221 5.125 4.774.222a33 33 0 0 1-3.72-15.247C533.757 14.86 548.607 0 566.86 0 585.105 0 600 14.858 600 33.15c0 18.207-14.895 33.102-33.14 33.102-.546 0-1.083-.037-1.628-.037l1.767 7.013-110.365 179.754-31.697-22.334 44.057-76.105-7.087-4.663c-13.48-8.493-27.94-14.313-43.076-17.209-1.157 14.1-7.56 31.984-26.673 39.83-5.21 2.164-11.491 3.284-18.217 3.284-8.67 0-22.112-1.841-37.146-10.732-3.84-2.276-96.358-55.835-195.556-55.835C106.035 109.218 0 115.685 0 115.685s59.924-34.87 139.86-59.48" style="fill:gray"/><path d="m472.066 99.494-11.787-1.008 13.767 32.455c-58.972-37.368-114.992-17.708-114.992-17.708-5.893-23.601 1.009-56.02 1.009-56.02 59.924-28.477 151.323 6.902 151.323 6.902-29.495 19.623-39.32 35.38-39.32 35.38m-76.041 38.783-14.35-7.337c6.865-5.893 14.748-4.913 14.748-4.913zm-47.777 7.374c-21.612-12.759-125.806-66.826-230.935-57.972 0 0 42.244-14.748 77.632-20.632 0 0-7.845-12.758-51.107-33.4 0 0 96.312.982 196.565 61.914 0 0 0 16.69 5.893 30.466 5.894 13.73 14.748 9.789 14.748 9.789s13.73 10.843 25.544 14.747c0 0-16.727 7.874-38.34-4.912m143.478-9.835s-3.33-10.408-10.196-25.156c0 0 19.05-21.03 45.575-34.759zM566.86 9.289c-13.156 0-23.851 10.667-23.851 23.86 0 6.57 2.673 12.5 6.976 16.839l-4.7 7.984-14.498-.574c-6.754-2.609-14.6-5.68-14.6-5.68-3.968-1.518-97.467-37.072-161.832-6.467l-5.93 2.822-1.37 6.393c-.185.832-2.6 12.72-3.396 27.681-76.8-45.713-152.442-57.565-184.139-60.71-33.963-3.359-67.76-.075-67.76-.075 45.213 21.14 72.932 38.525 72.932 38.525S123.207 65.56 44.094 104.38l74.339-3.47c110.772-9.325 218.537 53.486 223.09 56.16 18.364 10.88 36.646 11.203 47.091 6.864 25.406-10.445 20.78-41.957 20.78-41.957 16.912 1.74 36.933 7.124 57.537 20.17l14.488 9.427-44.233 76.401 16.7 11.787 103.176-168.06-1.952-7.836 4.737-8.058c2.202.685 4.552 1.194 7.013 1.194 13.193 0 23.851-10.705 23.851-23.852 0-13.193-10.658-23.86-23.851-23.86"/></svg>