<svg xmlns="http://www.w3.org/2000/svg" width="600" height="253.013"><radialGradient id="a" cx="0" cy="0" r="1" fx="0" fy="0" gradientTransform="matrix(21.766 0 0 -21.766 485.662 484.021)" gradientUnits="userSpaceOnUse" spreadMethod="pad"><stop offset="0" style="stop-color:#ebd491"/><stop offset=".7" style="stop-color:#d2bb7b"/><stop offset="1" style="stop-color:#8b723c"/></radialGradient><path d="M139.84 56.212S96.398 31.599 57.183 15.406c0 0 45.682-4.737 69.176-4.737 12.149 0 23.604.536 34.05 1.554 35.458 3.507 103.736 15.286 175.335 54.722 1.055-8.642 2.24-14.314 2.276-14.425l1.38-6.394.934-4.45 4.127-1.98 5.921-2.823c18.543-8.781 40.843-13.269 66.326-13.269 50.28 0 97.554 17.498 102.8 19.45l13.223 5.126 4.774.222a33 33 0 0 1-3.72-15.249C533.786 14.86 548.638 0 566.894 0 585.177 0 600 14.86 600 33.153c0 18.21-14.823 33.108-33.107 33.108-.546 0-1.083-.037-1.629-.037l1.805 7.013-110.416 179.776-31.7-22.336 44.062-76.115-7.088-4.664c-13.444-8.494-27.944-14.314-43.082-17.21-1.156 14.101-7.56 31.987-26.676 39.834-5.21 2.165-11.492 3.285-18.182 3.285-8.707 0-22.152-1.842-37.188-10.734-3.84-2.276-96.37-55.842-195.58-55.842C106.01 109.231 0 115.7 0 115.7s59.895-34.874 139.84-59.487" style="fill:#fff"/><path d="M491.75 135.834s-3.295-10.41-10.197-25.16c0 0 19.052-20.994 45.58-34.763zM566.892 9.29c-13.158 0-23.854 10.669-23.854 23.863 0 6.57 2.674 12.501 6.976 16.84l-4.7 7.986-14.5-.574a4086 4086 0 0 1-14.6-5.68c-3.942-1.518-97.48-37.078-161.854-6.469l-5.93 2.822-1.37 6.394c-.148.833-2.6 12.723-3.396 27.685-76.81-45.682-152.462-57.572-184.162-60.718-33.968-3.359-67.769-.074-67.769-.074 45.22 21.143 72.941 38.53 72.941 38.53s-41.49 5.672-120.612 44.497l74.347-3.47c110.786-9.327 218.565 53.492 223.117 56.166 18.368 10.881 36.688 11.205 47.098 6.866 25.409-10.447 20.782-41.963 20.782-41.963 16.915 1.703 36.975 7.125 57.544 20.172l14.49 9.429-44.238 76.41 16.702 11.789L557.13 71.71l-1.99-7.838 4.738-8.059c2.24.685 4.553 1.194 7.014 1.194 13.195 0 23.854-10.706 23.854-23.855 0-13.194-10.66-23.863-23.854-23.863" style="fill:#8b723c"/><path d="M509.668 493.816c0-.582.227-1.128.637-1.539l.218-.218-.16-.266-.504-.867-.121-.203-.238.007-1.57.063-.067.004-.062.023-1.578.614c-.535.203-5.391 2.007-10.606 2.007-2.547 0-4.758-.433-6.57-1.296l-.461-.223-.106-.5a21 21 0 0 1-.359-2.926l-.035-.664-.57.34c-8.293 4.933-16.567 6.195-19.739 6.508a37 37 0 0 1-3.558.164c-.824 0-1.571-.024-2.172-.055 4.039-1.965 6.512-3.512 6.539-3.527l.93-.586-1.09-.153c-.039-.003-3.899-.57-11.125-3.918l6.039.282c.816.066 1.66.101 2.504.101 11.164 0 21.414-5.972 21.847-6.226 1.051-.625 2.223-.969 3.297-.969.547 0 1.043.09 1.438.254 2.418.992 2.019 3.98 2.004 4.105l-.075.512.508-.055c2.266-.23 4.418-.988 6.399-2.242l1.562-1.019.321-.207-.188-.329-4.598-7.941 1.161-.82 10.839 17.66-.171.687-.043.161.085.136.508.871.164.274.301-.094c.238-.074.442-.109.641-.109 1.203 0 2.176.976 2.176 2.179 0 1.2-.973 2.176-2.176 2.176a2.18 2.18 0 0 1-2.176-2.176m-6.324-11.222c-.004.008-.364 1.125-1.086 2.676l-.11.238.176.199c.086.094 2.141 2.336 5.043 3.844l1.235.64-.707-1.199-3.825-6.48-.457-.774z" style="fill:url(#a)" transform="matrix(9.25298 0 0 -9.25298 -4169.188 4602.384)"/><path d="M348.291 145.67c-21.652-12.76-125.859-66.835-231-57.98 0 0 42.249-14.749 77.641-20.634 0 0-7.846-12.76-51.113-33.403 0 0 96.324.98 196.589 61.921 0 0 0 16.692 5.894 30.47 5.894 13.731 14.75 9.79 14.75 9.79s13.73 10.844 25.547 14.749c0 0-16.693 7.874-38.308-4.913" style="fill:#8b723c"/><path d="M373.302 149.278c-7.735 0-15.545-2.276-23.17-6.791-4.052-2.388-99.867-58.303-205.878-59.423 14.888-4.414 34.014-9.466 51.29-12.362l5.421-.907-2.859-4.654c-.323-.51-6.68-10.447-36.216-26.5 32.136 3.432 102.69 15.618 174.872 59.024.213 5.099 1.194 18.33 6.144 29.823 4.7 10.946 11.53 12.574 15.175 12.574.796 0 1.554-.074 2.174-.176 2.563 1.916 8.134 5.885 14.417 9.355-.435.037-.861.037-1.37.037" style="fill:#fff"/><path d="m396.074 138.295-14.389-7.338c6.866-5.894 14.75-4.913 14.75-4.913zM472.087 99.507l-11.788-1.01 13.768 32.46c-58.95-37.372-115.005-17.71-115.005-17.71-5.894-23.604 1.008-56.027 1.008-56.027 59.932-28.48 151.342 6.903 151.342 6.903-29.461 19.626-39.325 35.384-39.325 35.384" style="fill:#8b723c"/><path d="M466.304 122.14c-21.726-11.64-45.802-17.748-70.193-17.748-16.091 0-28.305 2.6-34.264 4.192-3.507-18.867.25-42.222 1.48-48.8 14.676-6.607 32.599-9.938 53.242-9.938 36.466 0 72.247 10.52 86.747 15.36-20.098 14.277-29.749 25.991-33.043 30.433l-9.65-.824-6.108-.509 2.388 5.635 9.4 22.198z" style="fill:#fff"/></svg>