<svg xmlns="http://www.w3.org/2000/svg" width="600" height="252.982"><radialGradient id="a" cx="0" cy="0" r="1" fx="0" fy="0" gradientTransform="matrix(21.76831 0 0 -21.7683 403.662 484.022)" gradientUnits="userSpaceOnUse" spreadMethod="pad"><stop offset="0" style="stop-color:#bf99c3"/><stop offset=".663" style="stop-color:#7b5190"/><stop offset="1" style="stop-color:#612c75"/></radialGradient><path d="M139.86 56.205s-43.437-24.61-82.647-40.8c0 0 45.677-4.738 69.167-4.738 12.148 0 23.602.537 34.047 1.555 35.453 3.506 103.722 15.284 175.313 54.715 1.055-8.641 2.239-14.313 2.276-14.424l1.378-6.393.935-4.45 4.126-1.98 5.921-2.821c18.54-8.78 40.838-13.268 66.317-13.268 50.275 0 97.542 17.496 102.788 19.448l13.221 5.125 4.774.222a33 33 0 0 1-3.72-15.247C533.757 14.86 548.607 0 566.86 0 585.142 0 600 14.858 600 33.15c0 18.207-14.858 33.102-33.14 33.102-.546 0-1.083-.037-1.628-.037l1.804 7.013-110.402 179.754-31.697-22.334 44.057-76.105-7.087-4.663c-13.443-8.493-27.94-14.313-43.076-17.209-1.157 14.1-7.56 31.984-26.673 39.83-5.21 2.164-11.491 3.284-18.18 3.284-8.706 0-22.15-1.841-37.183-10.732-3.84-2.276-96.358-55.835-195.556-55.835C106.035 109.218 0 115.685 0 115.685s59.887-34.87 139.86-59.48" style="fill:#fff"/><path d="M491.726 135.817s-3.294-10.408-10.196-25.156c0 0 19.05-20.992 45.575-34.759zM566.86 9.289c-13.156 0-23.851 10.667-23.851 23.86 0 6.57 2.673 12.5 6.976 16.839l-4.7 7.984-14.498-.574c-6.754-2.609-14.6-5.68-14.6-5.68-3.94-1.518-97.467-37.072-161.832-6.467l-5.93 2.822-1.37 6.393c-.148.832-2.6 12.72-3.396 27.681-76.8-45.676-152.442-57.565-184.139-60.71-33.963-3.359-67.76-.075-67.76-.075 45.213 21.14 72.895 38.525 72.895 38.525s-41.448 5.672-120.56 44.492l74.338-3.47c110.735-9.325 218.537 53.486 223.09 56.16 18.364 10.88 36.683 11.203 47.091 6.864 25.406-10.445 20.78-41.957 20.78-41.957 16.912 1.703 36.97 7.124 57.537 20.17l14.488 9.427-44.233 76.401 16.7 11.787 103.213-168.06-1.989-7.836 4.737-8.058c2.239.685 4.552 1.194 7.013 1.194 13.193 0 23.851-10.705 23.851-23.852 0-13.193-10.658-23.86-23.851-23.86" style="fill:#612c75"/><path d="M427.664 493.812c0-.578.227-1.124.641-1.535l.215-.218-.157-.266-.504-.867-.121-.207-.242.011-1.566.063-.067.004-.058.023-1.582.61c-.211.086-5.289 2.011-10.61 2.011-2.543 0-4.754-.433-6.566-1.296l-.461-.223-.106-.496c-.003-.016-.273-1.301-.359-2.93l-.035-.66-.57.34c-8.297 4.933-16.571 6.191-19.739 6.504a37 37 0 0 1-3.554.16c-.828 0-1.575-.024-2.176-.051 4.043-1.969 6.512-3.512 6.539-3.527l.93-.586-1.086-.153c-.039-.007-3.903-.57-11.129-3.918l6.039.282a29 29 0 0 0 2.504.101c11.222 0 21.418-5.976 21.844-6.23 1.054-.621 2.226-.965 3.304-.965.543 0 1.039.09 1.438.254 2.414.992 2.019 3.98 2 4.105l-.075.508.508-.051c2.27-.234 4.418-.988 6.399-2.242l1.566-1.019.317-.207-.192-.329-4.594-7.941 1.157-.82 10.843 17.66-.171.684-.043.16.082.14.511.871.164.274.301-.094c.238-.074.442-.109.641-.109 1.203 0 2.179.976 2.179 2.175a2.18 2.18 0 0 1-2.179 2.18 2.183 2.183 0 0 1-2.18-2.18m-6.32-11.218c-.004.008-.364 1.125-1.086 2.672l-.11.242.176.195c.086.094 2.141 2.344 5.039 3.844l1.239.641-.707-1.2-3.829-6.476-.449-.77z" style="fill:url(#a)" transform="matrix(9.25183 0 0 -9.25183 -3409.986 4601.816)"/><path d="M348.285 145.652c-21.649-12.759-125.843-66.826-230.972-57.972 0 0 42.244-14.748 77.632-20.632 0 0-7.882-12.758-51.107-33.4 0 0 96.312.982 196.565 61.914 0 0 0 16.69 5.893 30.466 5.894 13.73 14.748 9.789 14.748 9.789s13.73 10.843 25.544 14.747c0 0-16.69 7.874-38.303-4.912" style="fill:#612c75"/><path d="M373.293 149.26c-7.734 0-15.506-2.276-23.13-6.791-4.089-2.387-99.966-58.296-205.927-59.452 14.886-4.376 34.01-9.428 51.32-12.324l5.459-.906-2.933-4.691c-.287-.472-6.68-10.408-36.175-26.423 32.132 3.395 102.64 15.617 174.85 59.017.177 5.098 1.222 18.291 6.144 29.782 4.7 10.945 11.528 12.573 15.173 12.573.795 0 1.517-.074 2.137-.176 2.563 1.915 8.132 5.884 14.488 9.39z" style="fill:#fff"/><path d="m396.062 138.278-14.387-7.337c6.865-5.893 14.748-4.913 14.748-4.913zM472.066 99.494l-11.787-1.008 13.767 32.455c-58.944-37.368-114.992-17.708-114.992-17.708-5.893-23.601 1.009-56.02 1.009-56.02 59.924-28.477 151.323 6.902 151.323 6.902-29.458 19.623-39.32 35.38-39.32 35.38" style="fill:#612c75"/><path d="M466.283 122.124c-21.723-11.639-45.796-17.745-70.147-17.745-16.126 0-28.339 2.6-34.26 4.191-3.506-18.864.25-42.216 1.444-48.794 14.71-6.606 32.594-9.973 53.272-9.973 36.424 0 72.2 10.556 86.736 15.358-20.095 14.312-29.782 25.988-33.076 30.466l-9.65-.823-6.106-.51 2.387 5.635z" style="fill:#fff"/></svg>