<svg xmlns="http://www.w3.org/2000/svg" xml:space="preserve" width="254.369" height="278.64" style="clip-rule:evenodd;fill-rule:evenodd;stroke-linejoin:round;stroke-miterlimit:2" viewBox="0 0 254.369 278.64"><path d="M127.184 278.64c56.319-22.36 83.002-52.654 113.75-82.32-30.808-53.36-10.756-122.965 13.435-173.422C221.451 7.43 187.305-8.71 149.756 5.458c6.347 7.235 15.121 16.953 12.25 27.111-3.442 12.174-20.984 17.117-34.822 17.143m0 228.928c-56.319-22.36-83.002-52.654-113.75-82.32C44.243 142.96 24.19 73.354 0 22.897 32.918 7.43 67.064-8.71 104.612 5.458c-6.347 7.235-15.121 16.953-12.249 27.111 3.441 12.174 20.984 17.117 34.821 17.143" style="fill-rule:nonzero"/><path d="M23.705 24.703c17.085-6.46 39.28-13.379 58.403-12.922-3.215 2.167-6.829 23.265.324 32.947l125.512 169.895c-12.372 12.616-42.679 32.135-42.679 32.135s7.73-21.063-1.01-32.83z" style="fill:#fff;fill-rule:nonzero"/><path d="M104.684 58.283c60.72 13.135 79.298-18.389 68.036-45.714 13.853-.626 31.716 1.107 67.143 16.428-19.521 38.584-26.487 78.072-24.286 115.357-.648 3.687-2.899 6.401-7.321 3.483l-48.929-47.009c-2.084-.743-1.363.858-.29 2.12l69.397 91.764-13.214 12.5zM18.966 34.535l134.286 181.43c8.514 11.502 4.32 32.08-3.585 37.995-6.766 5.063-14.258 8.931-22.483 12.784l-25.632-14.4c-25.901-14.55-51.388-38.484-73.787-57.945 6.674-8.225 12.033-34.085 12.455-48.616.289-9.93 8.448-7.706 12.767-4.432 9.695 7.348 65.234 71.5 67.233 72.646 2.27 1.303 2.946-.356 2.143-1.428l-84.286-112.5c-1.663-19.046-12.179-43.854-19.111-65.534" style="fill:url(#a);fill-rule:nonzero"/><defs><linearGradient id="a" x1="0" x2="1" y1="0" y2="0" gradientTransform="translate(18.49 139.634)scale(222.059)" gradientUnits="userSpaceOnUse"><stop offset="0" style="stop-color:#612c75;stop-opacity:1"/><stop offset=".3" style="stop-color:#7b5190;stop-opacity:1"/><stop offset=".5" style="stop-color:#bf99c3;stop-opacity:1"/><stop offset=".7" style="stop-color:#7b5190;stop-opacity:1"/><stop offset="1" style="stop-color:#612c75;stop-opacity:1"/></linearGradient></defs></svg>