<?xml version="1.0" encoding="UTF-8" standalone="no"?>
<svg
   width="90"
   height="90"
   viewBox="0 0 90 90"
   version="1.1"
   xml:space="preserve"
   style="clip-rule:evenodd;fill-rule:evenodd;stroke-linejoin:round;stroke-miterlimit:2"
   id="svg39"
   xmlns="http://www.w3.org/2000/svg"
   xmlns:svg="http://www.w3.org/2000/svg"><rect
     id="Uncommon"
     x="0"
     y="0"
     width="90"
     height="90"
     style="fill:none" /><path
     d="m 5.608,33.204 c 3.996,-7.03 8.903,-10.907 14.49,-11.877 5.481,-0.952 11.806,0.914 18.872,6 0.74,0.533 1.154,1.409 1.095,2.32 l -2.922,44.728 c -0.05,0.774 -0.438,1.487 -1.061,1.95 -0.623,0.464 -1.418,0.63 -2.174,0.456 C 28.078,75.436 22.363,71.252 17.606,65.439 10.746,57.054 5.854,45.308 5.266,34.657 5.238,34.15 5.357,33.645 5.608,33.204 Z m 79.13,1.453 c -0.587,10.651 -5.479,22.397 -12.34,30.782 -4.757,5.813 -10.471,9.997 -16.302,11.342 -0.756,0.174 -1.551,0.008 -2.174,-0.456 -0.622,-0.463 -1.01,-1.176 -1.061,-1.95 L 49.94,29.647 c -0.06,-0.911 0.354,-1.787 1.094,-2.32 7.066,-5.086 13.391,-6.952 18.872,-6 5.588,0.97 10.494,4.847 14.491,11.877 0.251,0.441 0.369,0.946 0.341,1.453 z"
     id="path1" /><path
     d="M 7.908,34.511 C 14.94,22.142 24.75,20.353 37.424,29.474 L 34.503,74.202 C 21.18,71.13 8.839,51.385 7.908,34.511 Z m 74.189,0 C 81.165,51.385 68.824,71.13 55.502,74.202 L 52.58,29.474 c 12.674,-9.121 22.484,-7.332 29.517,5.037 z"
     style="fill:url(#_Linear1)"
     id="path2" /><path
     d="m 56.746,6.329 c 4.327,0 11.605,-3.383 14.65,-5.174 l 1.941,-1.143 1.438,1.734 c 3.696,4.457 6.22,7.517 7.733,11.895 1.867,5.405 3.307,14.032 3.208,20.277 l -0.093,5.847 -4.331,-3.93 c -1.403,-1.273 -2.45,-1.853 -3.352,-1.61 -1.116,0.301 -1.549,1.699 -1.549,2.706 0,1.918 1.146,3.603 2.485,4.891 1.376,1.323 2.995,2.277 4.162,2.434 l 3.291,0.442 -1.165,3.109 c -1.908,5.09 -4.641,10.137 -8.749,15.112 l -2.098,2.54 -2.028,-2.597 c 0,0 -3.509,-4.474 -8.251,-1.211 -0.394,0.271 -0.661,0.769 -0.845,1.336 -0.381,1.171 -0.318,2.66 0.424,4.059 0.96,1.812 2.822,2.286 5.675,2.372 l 5.163,0.156 -3.143,4.099 C 67.337,78.857 52.364,87.315 45.829,89.47 L 45,89.743 44.172,89.47 C 37.636,87.315 22.664,78.857 18.689,73.673 l -3.144,-4.099 5.164,-0.156 c 2.852,-0.086 4.715,-0.56 5.675,-2.372 0.742,-1.399 0.804,-2.888 0.424,-4.059 -0.185,-0.567 -0.451,-1.065 -0.846,-1.336 -4.741,-3.263 -8.251,1.211 -8.251,1.211 l -2.027,2.597 -2.098,-2.54 C 9.477,57.944 6.745,52.897 4.837,47.807 l -1.165,-3.109 3.29,-0.442 c 1.168,-0.157 2.787,-1.111 4.162,-2.434 1.339,-1.288 2.485,-2.973 2.485,-4.891 0,-1.007 -0.433,-2.405 -1.548,-2.706 -0.902,-0.243 -1.949,0.337 -3.352,1.61 L 4.378,39.765 4.285,33.918 C 4.186,27.673 5.626,19.046 7.493,13.641 9.006,9.263 11.529,6.203 15.226,1.746 l 1.438,-1.734 1.941,1.143 c 3.044,1.791 10.322,5.174 14.65,5.174 z"
     id="path3" /><path
     d="m 56.746,8.976 c 4.714,0 12.676,-3.589 15.992,-5.541 3.45,4.161 5.856,6.984 7.268,11.071 1.784,5.162 3.158,13.404 3.064,19.37 -5.871,-5.327 -9.325,-0.348 -9.325,3.055 0,5.285 5.811,9.526 8.941,9.947 -1.812,4.836 -4.408,9.63 -8.311,14.356 0,0 -5.033,-6.446 -11.837,-1.763 -2.042,1.405 -3.121,5.302 -1.259,8.814 1.371,2.588 3.858,3.655 7.933,3.778 C 65.443,76.978 51.197,84.914 45,86.957 38.804,84.914 24.557,76.978 20.789,72.063 c 4.075,-0.123 6.561,-1.19 7.933,-3.778 1.862,-3.512 0.783,-7.409 -1.259,-8.814 -6.804,-4.683 -11.837,1.763 -11.837,1.763 -3.903,-4.726 -6.499,-9.52 -8.311,-14.356 3.13,-0.421 8.94,-4.662 8.94,-9.947 0,-3.403 -3.453,-8.382 -9.324,-3.055 -0.095,-5.966 1.279,-14.208 3.063,-19.37 1.412,-4.087 3.818,-6.91 7.269,-11.071 3.316,1.952 11.278,5.541 15.992,5.541 z"
     style="fill:url(#_Linear2)"
     id="path4" /><path
     d="m 45,16.439 h 0.002 c 12.142,0.001 22.404,5.776 25.789,14.99 v 9.348 C 68.91,49.253 58.998,56.17 45.002,56.17 H 45 C 31.005,56.17 21.253,49.978 19.212,40.777 V 31.429 C 22.596,22.215 32.858,16.44 45,16.439 Z m 0,26.104 c 6.509,0 12.124,-2.134 16.897,-5.779 C 56.938,33.948 51.335,32.557 45,32.557 c -6.334,0 -11.937,1.391 -16.896,4.207 4.772,3.645 10.387,5.779 16.896,5.779 z"
     id="path5" /><path
     d="m 45.002,30.091 c -9.014,0 -18.747,2.907 -23.368,11.45 0,0 0,-5.999 0.002,-8.741 0,-0.903 0.268,-1.785 0.772,-2.534 C 27.974,21.982 34.69,18.567 45,18.567 Z m 0,0 0.002,-11.524 c 10.31,0 17.027,3.415 22.593,11.699 0.503,0.749 0.772,1.631 0.772,2.534 0.002,2.742 0.002,8.741 0.002,8.741 C 63.75,32.998 54.016,30.091 45.002,30.091 Z m 0,14.909 c 8.25,0 14.338,-3.05 18.128,-7.278 0,0 3.159,3.417 3.159,5.545 0,4.568 -7.407,10.573 -21.287,10.573 z M 45,45 v 8.84 c -13.88,0 -21.287,-6.005 -21.287,-10.573 0,-2.128 3.16,-5.545 3.16,-5.545 C 30.663,41.95 36.751,45 45,45 Z"
     style="fill:#ffffff"
     id="path6" /><defs
     id="defs39"><linearGradient
       id="_Linear1"
       x1="0"
       y1="0"
       x2="1"
       y2="0"
       gradientUnits="userSpaceOnUse"
       gradientTransform="matrix(8.05908,0,0,8.05908,40.9711,48.9665)"><stop
         offset="0"
         style="stop-color:#626e77;stop-opacity:1"
         id="stop6" /><stop
         offset="0.04"
         style="stop-color:#697780;stop-opacity:1"
         id="stop7" /><stop
         offset="0.11"
         style="stop-color:#7d8e98;stop-opacity:1"
         id="stop8" /><stop
         offset="0.2"
         style="stop-color:#9eb4c0;stop-opacity:1"
         id="stop9" /><stop
         offset="0.2"
         style="stop-color:#a0b6c2;stop-opacity:1"
         id="stop10" /><stop
         offset="0.2"
         style="stop-color:#a1b7c3;stop-opacity:1"
         id="stop11" /><stop
         offset="0.29"
         style="stop-color:#adc6d4;stop-opacity:1"
         id="stop12" /><stop
         offset="0.38"
         style="stop-color:#b5cede;stop-opacity:1"
         id="stop13" /><stop
         offset="0.5"
         style="stop-color:#b7d1e1;stop-opacity:1"
         id="stop14" /><stop
         offset="0.62"
         style="stop-color:#b5cede;stop-opacity:1"
         id="stop15" /><stop
         offset="0.71"
         style="stop-color:#adc6d4;stop-opacity:1"
         id="stop16" /><stop
         offset="0.8"
         style="stop-color:#a1b7c3;stop-opacity:1"
         id="stop17" /><stop
         offset="0.8"
         style="stop-color:#a0b6c2;stop-opacity:1"
         id="stop18" /><stop
         offset="0.85"
         style="stop-color:#8b9da8;stop-opacity:1"
         id="stop19" /><stop
         offset="0.91"
         style="stop-color:#74838d;stop-opacity:1"
         id="stop20" /><stop
         offset="0.96"
         style="stop-color:#67747d;stop-opacity:1"
         id="stop21" /><stop
         offset="1"
         style="stop-color:#626e77;stop-opacity:1"
         id="stop22" /></linearGradient><linearGradient
       id="_Linear2"
       x1="0"
       y1="0"
       x2="1"
       y2="0"
       gradientUnits="userSpaceOnUse"
       gradientTransform="matrix(76.1484,0,0,83.5219,6.92613,45.1959)"><stop
         offset="0"
         style="stop-color:#626e77;stop-opacity:1"
         id="stop23" /><stop
         offset="0.04"
         style="stop-color:#697780;stop-opacity:1"
         id="stop24" /><stop
         offset="0.11"
         style="stop-color:#7d8e98;stop-opacity:1"
         id="stop25" /><stop
         offset="0.2"
         style="stop-color:#9eb4c0;stop-opacity:1"
         id="stop26" /><stop
         offset="0.2"
         style="stop-color:#a0b6c2;stop-opacity:1"
         id="stop27" /><stop
         offset="0.2"
         style="stop-color:#a1b7c3;stop-opacity:1"
         id="stop28" /><stop
         offset="0.29"
         style="stop-color:#adc6d4;stop-opacity:1"
         id="stop29" /><stop
         offset="0.38"
         style="stop-color:#b5cede;stop-opacity:1"
         id="stop30" /><stop
         offset="0.5"
         style="stop-color:#b7d1e1;stop-opacity:1"
         id="stop31" /><stop
         offset="0.62"
         style="stop-color:#b5cede;stop-opacity:1"
         id="stop32" /><stop
         offset="0.71"
         style="stop-color:#adc6d4;stop-opacity:1"
         id="stop33" /><stop
         offset="0.8"
         style="stop-color:#a1b7c3;stop-opacity:1"
         id="stop34" /><stop
         offset="0.8"
         style="stop-color:#a0b6c2;stop-opacity:1"
         id="stop35" /><stop
         offset="0.85"
         style="stop-color:#8b9da8;stop-opacity:1"
         id="stop36" /><stop
         offset="0.91"
         style="stop-color:#74838d;stop-opacity:1"
         id="stop37" /><stop
         offset="0.96"
         style="stop-color:#67747d;stop-opacity:1"
         id="stop38" /><stop
         offset="1"
         style="stop-color:#626e77;stop-opacity:1"
         id="stop39" /></linearGradient></defs></svg>
