<?xml version="1.0" encoding="UTF-8" standalone="no"?>
<svg
   width="90"
   height="90"
   viewBox="0 0 90 90"
   version="1.1"
   xml:space="preserve"
   style="clip-rule:evenodd;fill-rule:evenodd;stroke-linejoin:round;stroke-miterlimit:2"
   id="svg3"
   xmlns="http://www.w3.org/2000/svg"
   xmlns:svg="http://www.w3.org/2000/svg"><defs
     id="defs3" /><rect
     id="WM"
     x="0"
     y="0"
     width="90"
     height="90"
     style="fill:none" /><path
     d="M 9.317,43.259 C 8.722,40.973 8.294,38.68 8.06,36.424 l 0.648,-0.589 c 1.403,-1.273 2.45,-1.853 3.352,-1.61 1.116,0.301 1.549,1.699 1.549,2.706 0,1.918 -1.146,3.603 -2.485,4.891 -0.577,0.554 -1.196,1.044 -1.807,1.437 z m 72.626,-6.832 c -0.235,2.255 -0.662,4.549 -1.258,6.834 -0.612,-0.394 -1.232,-0.884 -1.809,-1.439 -1.339,-1.288 -2.485,-2.973 -2.485,-4.891 0,-1.007 0.433,-2.405 1.548,-2.706 0.902,-0.243 1.949,0.337 3.352,1.61 z M 71.605,62.159 c -1.876,2.505 -3.932,4.75 -6.107,6.62 -0.82,-0.36 -1.445,-0.908 -1.882,-1.733 -0.742,-1.399 -0.804,-2.888 -0.424,-4.059 0.185,-0.567 0.452,-1.065 0.846,-1.336 3.497,-2.408 6.325,-0.604 7.567,0.508 z m -47.101,6.619 c -2.175,-1.871 -4.231,-4.115 -6.108,-6.621 1.244,-1.112 4.07,-2.912 7.566,-0.506 0.394,0.271 0.661,0.769 0.845,1.336 0.381,1.171 0.318,2.66 -0.424,4.059 -0.437,0.824 -1.06,1.372 -1.879,1.732 z"
     id="path1" /><path
     d="m 56.745,8.976 c 4.714,0 12.676,-3.589 15.992,-5.541 3.451,4.161 5.857,6.984 7.269,11.071 1.784,5.162 3.158,13.404 3.063,19.37 -5.871,-5.327 -9.324,-0.348 -9.324,3.055 0,5.285 5.81,9.526 8.94,9.947 -1.812,4.836 -4.408,9.63 -8.311,14.356 0,0 -5.033,-6.446 -11.837,-1.763 -2.042,1.405 -3.121,5.302 -1.259,8.814 1.372,2.588 3.858,3.655 7.933,3.778 C 65.443,76.978 51.196,84.914 45,86.957 38.803,84.914 24.557,76.978 20.788,72.063 c 4.075,-0.123 6.562,-1.19 7.933,-3.778 1.862,-3.512 0.783,-7.409 -1.259,-8.814 -6.804,-4.683 -11.837,1.763 -11.837,1.763 -3.903,-4.726 -6.499,-9.52 -8.311,-14.356 3.13,-0.421 8.941,-4.662 8.941,-9.947 0,-3.403 -3.454,-8.382 -9.325,-3.055 C 6.836,27.91 8.21,19.668 9.994,14.506 11.406,10.419 13.812,7.596 17.262,3.435 20.578,5.387 28.54,8.976 33.254,8.976 Z M 45,16.439 C 32.858,16.44 22.596,22.215 19.211,31.429 v 9.348 C 21.253,49.978 31.004,56.17 45,56.17 h 0.002 c 13.995,0 23.908,-6.917 25.788,-15.393 V 31.429 C 67.406,22.215 57.144,16.44 45.002,16.439 Z m 0,26.104 c -6.509,0 -12.124,-2.134 -16.897,-5.779 4.959,-2.816 10.562,-4.207 16.897,-4.207 6.334,0 11.937,1.391 16.896,4.207 C 57.124,40.409 51.509,42.543 45,42.543 Z"
     id="path2" /><path
     d="m 45.002,30.091 10e-4,-11.524 c 10.311,0 17.027,3.415 22.593,11.699 0.503,0.749 0.772,1.631 0.772,2.534 0.002,2.742 0.002,8.741 0.002,8.741 -4.621,-8.543 -14.355,-11.45 -23.368,-11.45 z m 0,0 c -9.014,0 -18.748,2.907 -23.369,11.45 0,0 0,-5.999 0.002,-8.741 0,-0.903 0.269,-1.785 0.772,-2.534 C 27.973,21.982 34.689,18.567 45,18.567 Z m 0,14.909 c 8.249,0 14.337,-3.05 18.127,-7.278 0,0 3.16,3.417 3.16,5.545 0,4.568 -7.408,10.573 -21.287,10.573 z M 45,45 v 8.84 c -13.88,0 -21.287,-6.005 -21.287,-10.573 0,-2.128 3.159,-5.545 3.159,-5.545 C 30.662,41.95 36.75,45 45,45 Z"
     id="path3" /></svg>
