<svg xmlns="http://www.w3.org/2000/svg" xmlns:xlink="http://www.w3.org/1999/xlink" width="600" height="758.534"><linearGradient id="a" x1="0" x2="1" y1="0" y2="0" gradientTransform="scale(32.67188 -32.67188)rotate(60 15.582 3.51)" gradientUnits="userSpaceOnUse" spreadMethod="pad"><stop offset="0" style="stop-color:#612c75"/><stop offset=".4" style="stop-color:#7b5190"/><stop offset=".5" style="stop-color:#bf99c3"/><stop offset=".7" style="stop-color:#7b5190"/><stop offset="1" style="stop-color:#612c75"/></linearGradient><linearGradient xlink:href="#a" id="b" x1="0" x2="1" y1="0" y2="0" gradientTransform="scale(619.56785)rotate(60 -.122 .311)" gradientUnits="userSpaceOnUse" spreadMethod="pad"/><path fill="#fff" d="m401.263 176.075-50.158 147.857c-.228-.151-.437-.209-.663-.285-3.698-116.226-12.668-205.714-26.663-266.15L300.891 0l-22.965 57.421c-13.995 60.512-22.965 150-26.606 266.226a1.9 1.9 0 0 0-.663.285h-.075l-49.78-148.596C83.913 216.296 0 327.649 0 458.534c0 165.702 134.355 300 300 300 165.702 0 300-134.298 300-300 0-130.145-82.889-240.891-198.736-282.459"/><path d="M274.284 341.417c-55.107 12.364-94.286 61.403-94.286 117.933 0 56.51 39.179 105.474 94.286 117.933 1.631 59.469 4.457 111.845 8.61 157.187 11.984.74 23.912.74 35.84 0 4.23-45.342 7.036-97.718 8.667-157.187 55.183-12.46 94.38-61.423 94.38-117.933 0-56.53-39.197-105.57-94.38-117.933-3.338-123.622-12.137-216.524-26.511-278.667-14.45 62.143-23.268 155.045-26.606 278.667M328.88 459.35c0-28.825-.209-56.302-.74-82.605 79.57 26.303 79.57 138.831 0 165.19.531-26.283.74-53.78.74-82.585m-55.335-82.605c-.437 26.303-.74 53.78-.74 82.605 0 28.805.303 56.302.74 82.585-79.552-26.359-79.552-138.887 0-165.19m96.599-35.689c16.29 9.558 29.336 21.182 40.6 36.22 25.923-39.936 51.922-79.854 77.845-119.791-22.15-20.651-46.081-36.58-73.635-49.096-14.962 44.222-29.848 88.445-44.81 132.667m-257.048-83.571c25.942 39.937 51.94 79.855 77.94 119.791 11.263-15.038 24.215-26.662 40.505-36.22-14.962-44.222-29.848-88.445-44.81-132.667-27.554 12.516-51.486 28.445-73.635 49.096M423.62 398.307c37.263 74.962-.74 165.493-80.366 191.416-.076 4.285-.304 8.666-.36 12.97a4535 4535 0 0 1-1.783 42.44c-1.043 21.543-2.295 43.104-4.001 64.665-.588 7.7-1.195 15.399-1.935 23.117 213.869-26.89 315.57-277.718 180.816-445.942-30.816 37.111-61.555 74.222-92.37 111.334M266.508 732.915c-.74-7.718-1.327-15.417-1.915-23.117a2315 2315 0 0 1-4.001-64.664c-.664-14.147-1.27-28.294-1.707-42.44-.228-4.305-.303-8.686-.455-12.971-79.627-25.923-117.63-116.454-80.367-191.416-30.815-37.112-61.555-74.223-92.37-111.334C-49.041 455.197 52.66 706.025 266.509 732.915" style="fill:url(#b)"/></svg>