<svg xmlns="http://www.w3.org/2000/svg" width="551.99" height="672.275" data-name="Layer 2"><path d="M318.4 526.97c79.63-25.92 117.63-116.45 80.37-191.42 30.82-37.11 61.55-74.22 92.37-111.33 134.75 168.22 33.05 419.05-180.82 445.87.74-7.64 1.35-15.34 1.93-23.04 1.71-21.56 2.96-43.12 4-64.66.74-14.15 1.25-28.29 1.78-42.44.14-4.3.21-8.69.36-12.97M153.21 335.56c-37.26 74.96.74 165.49 80.37 191.42.15 4.29.23 8.67.46 12.97.44 14.15 1.04 28.29 1.71 42.44 1.02 21.54 2.37 43.1 4 64.66.59 7.7 1.18 15.4 1.92 23.04C27.81 643.27-73.89 392.45 60.84 224.22c30.82 37.11 61.55 74.22 92.37 111.33M390.1 145.64c27.55 12.52 51.49 28.45 73.63 49.02-25.92 40.01-51.92 79.93-77.84 119.87-11.34-15.11-24.31-26.74-40.6-36.22 14.96-44.22 29.85-88.45 44.81-132.67M206.69 278.31c-16.21 9.48-29.24 21.11-40.51 36.22-26-39.94-52-79.85-77.94-119.87 22.15-20.58 46.16-36.5 73.63-49.02 14.96 44.22 29.85 88.45 44.81 132.67m42.01 200.8c-.44-26.21-.74-53.76-.74-82.51s.3-56.3.74-82.6c-79.55 26.3-79.55 138.83 0 165.11m55.34-82.51c0 28.81-.21 56.3-.74 82.51 79.57-26.28 79.57-138.81 0-165.11.53 26.3.74 53.78.74 82.6m-54.6-117.93C252.77 155.05 261.59 62.22 276.04 0c14.37 62.22 23.17 155.04 26.51 278.67 55.11 12.36 94.38 61.4 94.38 117.93s-39.2 105.47-94.38 117.93c-1.63 59.47-4.44 111.92-8.59 157.19-12 .74-23.93.74-35.86 0-4.21-45.27-7.04-97.72-8.67-157.19-55.11-12.46-94.29-61.42-94.29-117.93s39.18-105.57 94.29-117.93" data-name="Layer 1" style="stroke-width:0" transform="translate(-.002)"/></svg>