<?xml version="1.0" encoding="UTF-8"?><svg id="Layer_2" xmlns="http://www.w3.org/2000/svg" width="101.76" height="120" xmlns:xlink="http://www.w3.org/1999/xlink" viewBox="0 0 101.76 120"><defs><style>.cls-1{fill:#4d6773;}.cls-2{fill:url(#linear-gradient);}</style><linearGradient id="linear-gradient" x1="11.55585" y1="88.023" x2="99.26821" y2="8.26643" gradientUnits="userSpaceOnUse"><stop offset=".11153" stop-color="#4d6773"/><stop offset=".12131" stop-color="#56707c"/><stop offset=".1616" stop-color="#77939f"/><stop offset=".20451" stop-color="#93afbb"/><stop offset=".25016" stop-color="#a8c6d2"/><stop offset=".29988" stop-color="#b7d5e1"/><stop offset=".35663" stop-color="#c0dfeb"/><stop offset=".43598" stop-color="#c3e2ee"/><stop offset=".49916" stop-color="#bfdeea"/><stop offset=".56144" stop-color="#b3d2de"/><stop offset=".62336" stop-color="#a0beca"/><stop offset=".68507" stop-color="#86a2ae"/><stop offset=".74605" stop-color="#647f8b"/><stop offset=".78158" stop-color="#4d6773"/></linearGradient></defs><g id="Layer_1-2"><path d="M47.54273,0c.29588.49413.38419,1.07161.46444,1.63537.12787.89829.22099,2.07149.26021,2.97968.07681,1.77873.02626,3.59284-.24363,5.34494.69548-.33771,1.36916-.74896,2.13364-.92423,1.29348-.29655,3.65238-.31995,4.98822-.14183,3.22161.42956,5.78107,2.17068,8.7667-.25747.92515-.7524,1.45251-1.74027,2.21949-2.57959.15602-.17074.61154-.73295.84516-.60522,1.34829,1.98728,2.84583,4.25268,3.32085,6.64374.61238,3.0825.24766,6.29953-.55168,9.30642,2.62051,1.39149,5.16983,2.97842,7.17559,5.19462.02333.13349-1.50585,1.80611-1.72021,2.09396-1.87849,2.52252-2.83925,5.60506-4.9269,8.03103-2.24509,2.60892-5.09498,3.67894-8.348,4.51793-.3148,1.56618-.40202,3.16762-.74691,4.74335-.73328,3.35022-2.163,6.26321-3.90213,9.17951l2.67995,2.67542c1.10709-2.93875,2.07232-5.92115,3.51788-8.71827,6.18039-11.95884,16.23858-17.94115,29.83311-17.20432,4.62939.25092,8.5697,1.82459,5.54933,7.12159-.44798.78565-1.78769,2.16629-1.95922,2.83996-.17796.6989.01826,1.65345-.17695,2.40327,2.15083-.13945,4.40357.62436,5.03832,2.88015v1.8c-.29791.87851-.58545,1.65712-1.10239,2.43714-.31175.4704-1.4996,1.66143-1.60296,1.99637-.15738.50999.00425,1.20132-.05545,1.74453-.0559.50869-.17088,1.14-.27336,1.64652-.13025.6438-.95844,2.82253-.9262,3.15238.04108.42028,1.47866.93976,1.91056,1.21371,2.9189,1.85148,2.0862,4.24587.07454,6.41325-.32305.34805-.75339.56618-1.08466.95489-1.01009,1.18527-1.50961,3.90966-2.19707,5.48201-2.70983,6.19794-7.92154,10.5102-14.32314,12.55085-2.17824.69436-4.44912.99807-6.66049,1.55624-1.02793,4.01468-2.87491,6.98244-6.08923,9.56869-.6463.52002-3.18202,1.96919-3.38822,2.37035-.25961.50508-.47795,1.90379-.5918,2.52795-.41592,2.28026-.68289,4.63095-.98881,6.91984l6.47162,10.50526H30.03007c-.02718-2.77008.7017-5.7189,1.74091-8.27836,1.84939-4.5548,5.3732-7.91261,10.27385-8.92184,3.41093-.70243,7.09801-.52062,10.41427.52091l.72063-4.8001-7.1135,1.77711c-.64898-.65402-.95394-1.53394-1.58081-2.25915-.50106-.57967-1.13055-1.03443-1.7052-1.53409-4.05602-.17144-7.35049.1454-11.07625-1.7591-4.0038-2.04663-4.99493-4.97123-8.02957-7.80706-1.44585-1.35113-3.07539-2.52717-4.50447-3.90197-.03725-.05201-.05675-.11014-.05658-.1743.00082-.30742,1.38248-1.66883,1.67726-2.04537.18827-.24049.88593-1.07994.8306-1.29245-.03861-.1483-1.80438-1.90756-2.08842-2.24257-.52841-.62324-3.0664-3.80026-3.05393-4.3851.00235-.11002.05216-.16109.10693-.24249.26377-.39199,4.23013-2.0544,5.05035-2.51149,2.13704-1.19091,4.13987-2.746,5.56311-4.75455.07522-.10616.40667-.50326.31125-.58739-2.94994.0386-5.82703-.69516-8.5779-1.67853-1.54242-.55138-3.94543-1.91555-5.50149-1.78698-1.63817.13536-3.30519,1.05545-4.93395,1.18301-4.38613.34351-6.8439-2.79382-8.00862-6.62426l-.44594-2.73388c.09918-1.59509-.13382-3.34463,0-4.92.16678-1.96343,1.30411-4.55049,2.39561-6.18339,1.79799-2.68983,4.42863-4.96417,7.5435-5.95337-.45646-8.63539,2.71961-16.95327,10.49178-21.24378,1.88606-1.04117,3.84016-1.66546,5.83743-2.44012.23197-.73335.52515-1.43006.89805-2.10158,2.55399-4.59933,6.24841-4.22891,10.70973-5.60578,3.40506-1.05088,6.30704-2.78154,9.26414-4.71197h.35985ZM71.29277,86.82c.10217-.9626-.07523-2.07935,0-3.06,5.6507.16278,11.02996-1.11088,15.58051-4.51296,4.04594-3.02483,6.73804-7.81116,7.23539-12.8624l3.45259-2.24518c-1.16606-.97354-2.56462-1.55719-4.01573-1.98154-5.5436-1.62112-11.48572-.84914-16.22185,2.49552-.52884.37347-1.88,1.67896-2.36924,1.71159-.61801.04122.41838-1.02859.53514-1.14646,2.95127-2.97952,7.27887-5.39164,11.47201-5.92318,2.08574-.2644,4.18844-.03283,6.28423-.19314.84319-1.63863,1.43513-3.42161,1.44204-5.28722l-.25351-2.73596c.58315-.33455,1.16901-.6634,1.6895-1.09758.31191-.26019,1.50405-1.39728,1.68381-1.67544.09443-.14612.15077-.24049.11363-.42463-7.75836-1.50276-16.00879,2.2507-21.53382,7.55542-.88042.84531-1.9164,2.29102-2.81023,2.94856-.16428.12085-.24243.22594-.48464.17396-.0822-.0747.86392-1.42996.98126-1.59711,2.97944-4.24432,7.31975-7.98911,12.04963-10.14532,2.01512-.91864,4.0907-1.40237,6.12889-2.20857.29065-1.64792.24213-3.35995.29608-5.04377l2.61404-2.96313c-8.05798-1.41822-15.932.77475-21.81824,6.43088-6.63723,6.37777-8.05959,13.10948-10.50659,21.529-.14677.50499-.30744,1.40595-.96748.9647l-10.59174-9.88504c2.83739-3.55911,5.89541-8.53106,6.09837-13.22177.07967-1.84124-.30574-1.30696-1.51865-1.95815-1.91029-1.0256-2.91866-2.65952-3.15719-4.82025.18168-.02647.2819.00107.42714.11149.28541.21699.78062.9938,1.18899,1.33048,3.35312,2.76442,10.09443.25474,12.4672-2.89318,1.62299-2.1532,2.70776-4.9885,4.00964-7.35245-4.15923-4.43503-10.83548-4.78561-16.38604-3.10914-1.03382.31225-2.17805.93987-3.13967,1.17889-.1511.03756-.67566.19917-.60572-.12523.14935-.35885,3.57355-2.07289,4.15427-2.32461,3.39423-1.47127,6.90172-1.86889,10.58693-1.82894.66217-2.47614,1.01639-5.11348.60022-7.65745-.24045-.16299-1.38808.47975-1.72564.59187-1.70309.56568-5.02076.52409-6.75337.03107-3.16893-.90174-4.49626-2.31382-8.18206-1.29276-3.50188.97011-3.18109,3.01371-5.57971,4.73776-.32479.23345-.64519.42432-.63725-.14822.88683-2.00666,1.6235-4.03104,1.41322-6.27541.20385-1.23365-.01955-2.52762-.11627-3.77497-1.86764.95367-3.83442,1.66909-5.85047,2.24584-1.94296.55584-5.67185,1.00554-6.98055,2.49652-1.24843,1.42232-.98448,3.00209-1.21902,4.72058-5.12963.53307-9.79726,2.65256-12.79529,6.93923-1.42953,2.04398-2.73064,5.09729-3.10772,7.57098-.41273,2.70763.00113,5.66901-.16539,8.41492-3.9532.95354-8.25388,3.63023-9.52506,7.69057-.81818,2.61338-.75853,6.55365.43829,9.04417.36655.76277,1.22942,2.04454,2.11159,2.21298.86081.16436,2.87512-.70146,3.86265-.88193,1.24506-.22754,3.48897-.31078,4.74446-.17423,1.36394.14834,4.72763,2.05727,6.42155,2.57576,2.02871.62097,4.04841.80956,6.17158.66334,1.66233-.11449,3.21619-.7676,4.85915-.95922-.04756,3.78812-1.31939,7.21721-3.83517,10.02364-1.80867,2.01763-4.0605,3.76219-6.4804,4.97876-.05617.0823,1.23039,1.30472,1.38261,1.43484.46319.3959,2.97953,1.94927,3.03446,2.12683.08403.27157.00644.47338-.0729.72358-.33854,1.06763-1.5309,2.33357-2.0174,3.39035-.06924.13124-.05085.22844.00823.35829.22798.50104,2.33557,2.06846,2.88416,2.64279,2.47541,2.59154,2.91505,5.03709,6.83138,6.36576,2.8189.95635,4.79377.44085,7.56524.35396,1.93723-.06074,3.97807,2.39828,5.40841,3.4494l11.47222-3.18883,4.70484,3.66676c2.62333-1.34004,5.19352-3.71144,6.32041-6.48401.24923-.6132.63102-1.78982.69808-2.42163ZM61.67064,99.02445c-.90975-.41348-2.13337-1.93662-2.97835-2.24269-.80692-.29228-.90263.89768-1.0362,1.47584-.79663,3.44809-1.07021,7.11404-2.07161,10.53381-.19064.14949-3.70923-1.19884-4.2974-1.35733-3.11805-.8402-6.49591-1.11228-9.59451-.06669-3.71262,1.25278-5.87462,4.77031-6.74407,8.43198l28.18742-.12083-3.2468-5.34056,1.78152-11.31352Z"/><path class="cls-1" d="M61.67064,99.02445l-1.78152,11.31352,3.2468,5.34056-28.18742.12083c.86945-3.66167,3.03146-7.1792,6.74407-8.43198,3.0986-1.04559,6.47646-.77351,9.59451.06669.58817.15849,4.10676,1.50683,4.2974,1.35733,1.0014-3.41978,1.27497-7.08572,2.07161-10.53381.13358-.57816.22928-1.76812,1.0362-1.47584.84499.30607,2.0686,1.82921,2.97835,2.24269Z"/><path class="cls-2" d="M71.29277,86.82c-.06706.63181-.44885,1.80843-.69808,2.42163-1.12689,2.77256-3.69708,5.14396-6.32041,6.48401l-4.70484-3.66676-11.47222,3.18883c-1.43034-1.05112-3.47118-3.51013-5.40841-3.4494-2.77147.08689-4.74634.6024-7.56524-.35396-3.91633-1.32867-4.35597-3.77422-6.83138-6.36576-.54859-.57433-2.65618-2.14175-2.88416-2.64279-.05909-.12985-.07747-.22705-.00823-.35829.48649-1.05678,1.67886-2.32272,2.0174-3.39035.07934-.2502.15693-.45201.0729-.72358-.05494-.17756-2.57127-1.73092-3.03446-2.12683-.15222-.13011-1.43878-1.35254-1.38261-1.43484,2.4199-1.21657,4.67173-2.96113,6.4804-4.97876,2.51578-2.80643,3.78761-6.23552,3.83517-10.02364-1.64296.19162-3.19683.84474-4.85915.95922-2.12318.14623-4.14287-.04237-6.17158-.66334-1.69392-.51849-5.05761-2.42741-6.42155-2.57576-1.25549-.13655-3.49939-.0533-4.74446.17423-.98754.18047-3.00184,1.0463-3.86265.88193-.88216-.16844-1.74503-1.4502-2.11159-2.21298-1.19683-2.49052-1.25647-6.43079-.43829-9.04417,1.27118-4.06034,5.57186-6.73703,9.52506-7.69057.16652-2.74591-.24734-5.70729.16539-8.41492.37707-2.47369,1.67819-5.527,3.10772-7.57098,2.99803-4.28667,7.66566-6.40616,12.79529-6.93923.23454-1.71849-.02941-3.29826,1.21902-4.72058,1.3087-1.49098,5.03759-1.94069,6.98055-2.49652,2.01606-.57675,3.98283-1.29217,5.85047-2.24584.09673,1.24734.32013,2.54131.11627,3.77497.21028,2.24437-.5264,4.26875-1.41322,6.27541-.00794.57254.31246.38167.63725.14822,2.39862-1.72405,2.07783-3.76765,5.57971-4.73776,3.6858-1.02106,5.01313.39102,8.18206,1.29276,1.7326.49302,5.05028.53462,6.75337-.03107.33756-.11212,1.48518-.75485,1.72564-.59187.41617,2.54397.06195,5.18131-.60022,7.65745-3.68521-.03995-7.19271.35767-10.58693,1.82894-.58071.25172-4.00491,1.96576-4.15427,2.32461-.06995.3244.45461.16279.60572.12523.96162-.23902,2.10584-.86664,3.13967-1.17889,5.55057-1.67647,12.22682-1.32589,16.38604,3.10914-1.30188,2.36396-2.38665,5.19925-4.00964,7.35245-2.37277,3.14791-9.11408,5.6576-12.4672,2.89318-.40837-.33667-.90357-1.11349-1.18899-1.33048-.14523-.11042-.24545-.13796-.42714-.11149.23853,2.16073,1.2469,3.79465,3.15719,4.82025,1.21292.65119,1.59832.11691,1.51865,1.95815-.20296,4.69071-3.26098,9.66266-6.09837,13.22177l10.59174,9.88504c.66004.44125.82071-.45971.96748-.9647,2.44701-8.41952,3.86936-15.15123,10.50659-21.529,5.88623-5.65614,13.76025-7.8491,21.81824-6.43088l-2.61404,2.96313c-.05395,1.68382-.00543,3.39585-.29608,5.04377-2.03819.8062-4.11377,1.28994-6.12889,2.20857-4.72988,2.15621-9.07019,5.901-12.04963,10.14532-.11733.16715-1.06346,1.52241-.98126,1.59711.2422.05198.32035-.05311.48464-.17396.89383-.65754,1.92981-2.10325,2.81023-2.94856,5.52503-5.30472,13.77546-9.05818,21.53382-7.55542.03713.18414-.0192.27851-.11363.42463-.17976.27816-1.3719,1.41524-1.68381,1.67544-.52049.43418-1.10635.76303-1.6895,1.09758l.25351,2.73596c-.00691,1.8656-.59885,3.64858-1.44204,5.28722-2.09579.16031-4.19849-.07126-6.28423.19314-4.19314.53154-8.52074,2.94366-11.47201,5.92318-.11675.11787-1.15315,1.18768-.53514,1.14646.48924-.03263,1.8404-1.33812,2.36924-1.71159,4.73613-3.34466,10.67825-4.11663,16.22185-2.49552,1.45112.42435,2.84967,1.008,4.01573,1.98154l-3.45259,2.24518c-.49735,5.05124-3.18944,9.83757-7.23539,12.8624-4.55055,3.40208-9.92981,4.67574-15.58051,4.51296-.07523.98065.10217,2.0974,0,3.06ZM28.83123,48.83942c.24653.05152.27828-.1223.38244-.27617,2.21414-3.27087,2.89612-13.378-.44592-16.0404-1.58893-1.26581-4.23594-1.68019-6.0179-.62612-4.03149,2.38472-4.46809,13.57145-1.30042,16.70751.82794.81968,2.23799,1.17289,3.31073.66371,3.18595-1.51224,2.61041-8.85174,1.45314-11.54958-.6041-1.40829-1.52788-2.32356-3.02161-2.73958.90828-1.31846,1.6198-1.80451,3.2647-1.34361,3.93263,1.10193,3.69168,8.36365,3.17613,11.50712-.20491,1.24937-.63031,2.44355-.8013,3.69713Z"/><path d="M28.83123,48.83942c.171-1.25358.5964-2.44776.8013-3.69713.51555-3.14347.7565-10.40518-3.17613-11.50712-1.6449-.46091-2.35642.02514-3.2647,1.34361,1.49373.41602,2.41751,1.33129,3.02161,2.73958,1.15726,2.69784,1.73281,10.03734-1.45314,11.54958-1.07275.50919-2.48279.15597-3.31073-.66371-3.16767-3.13606-2.73106-14.32279,1.30042-16.70751,1.78196-1.05407,4.42897-.63969,6.0179.62612,3.34204,2.66241,2.66006,12.76953.44592,16.0404-.10416.15388-.13591.32769-.38244.27617Z"/></g></svg>