<?xml version="1.0" encoding="UTF-8"?><svg id="Layer_2" xmlns="http://www.w3.org/2000/svg" width="101.76003" height="119.99998" viewBox="0 0 101.76003 119.99998"><g id="Layer_2-2"><path d="M47.54277.00002c.29588.49413.38419,1.07161.46444,1.63537.12787.89829.22099,2.07149.26021,2.97968.07681,1.77873.02626,3.59284-.24363,5.34494.69548-.33771,1.36916-.74896,2.13364-.92423,1.29348-.29655,3.65238-.31995,4.98822-.14183,3.22161.42956,5.78107,2.17068,8.7667-.25747.92515-.7524,1.45251-1.74027,2.21949-2.57959.15602-.17074.61154-.73295.84516-.60522,1.34829,1.98728,2.84583,4.25268,3.32085,6.64374.61238,3.0825.24766,6.29953-.55168,9.30642,2.62051,1.39149,5.16983,2.97842,7.17559,5.19462.02333.13349-1.50585,1.80611-1.72021,2.09396-1.87849,2.52252-2.83925,5.60506-4.9269,8.03103-2.24509,2.60892-5.09498,3.67894-8.348,4.51793-.3148,1.56618-.40202,3.16762-.74691,4.74335-.73328,3.35022-2.163,6.26321-3.90213,9.17951l2.67995,2.67542c1.10709-2.93875,2.07232-5.92115,3.51788-8.71827,6.18039-11.95884,16.23858-17.94115,29.83311-17.20432,4.62939.25092,8.5697,1.82459,5.54933,7.12159-.44798.78565-1.78769,2.16629-1.95922,2.83996-.17796.6989.01826,1.65345-.17695,2.40327,2.15083-.13945,4.40357.62436,5.03832,2.88015v1.8c-.29791.87851-.58545,1.65712-1.10239,2.43714-.31175.4704-1.4996,1.66143-1.60296,1.99637-.15738.50999.00425,1.20132-.05545,1.74453-.0559.50869-.17088,1.14-.27336,1.64652-.13025.6438-.95844,2.82253-.9262,3.15238.04108.42028,1.47866.93976,1.91056,1.21371,2.9189,1.85148,2.0862,4.24587.07454,6.41325-.32305.34805-.75339.56618-1.08466.95489-1.01009,1.18527-1.50961,3.90966-2.19707,5.48201-2.70983,6.19794-7.92154,10.5102-14.32314,12.55085-2.17824.69436-4.44912.99807-6.66049,1.55624-1.02793,4.01468-2.87491,6.98244-6.08923,9.56869-.6463.52002-3.18202,1.96919-3.38822,2.37035-.25961.50508-.47795,1.90379-.5918,2.52795-.41592,2.28026-.68289,4.63095-.98881,6.91984l6.47162,10.50526H30.03011c-.02718-2.77008.7017-5.7189,1.74091-8.27836,1.84939-4.5548,5.3732-7.91261,10.27385-8.92184,3.41093-.70243,7.09801-.52062,10.41427.52091l.72063-4.8001-7.1135,1.77711c-.64898-.65402-.95394-1.53394-1.58081-2.25915-.50106-.57967-1.13055-1.03443-1.7052-1.53409-4.05602-.17144-7.35049.1454-11.07625-1.7591-4.0038-2.04663-4.99493-4.97123-8.02957-7.80706-1.44585-1.35113-3.07539-2.52717-4.50447-3.90197-.03725-.05201-.05675-.11014-.05658-.1743.00082-.30742,1.38248-1.66883,1.67726-2.04537.18827-.24049.88593-1.07994.8306-1.29245-.03861-.1483-1.80438-1.90756-2.08842-2.24257-.52841-.62324-3.0664-3.80026-3.05393-4.3851.00235-.11002.05216-.16109.10693-.24249.26377-.39199,4.23013-2.0544,5.05035-2.51149,2.13704-1.19091,4.13987-2.746,5.56311-4.75455.07522-.10616.40667-.50326.31125-.58739-2.94994.0386-5.82703-.69516-8.5779-1.67853-1.54242-.55138-3.94543-1.91555-5.50149-1.78698-1.63817.13536-3.30519,1.05545-4.93395,1.18301-4.38613.34351-6.8439-2.79382-8.00862-6.62426l-.44594-2.73388c.09918-1.59509-.13382-3.34463,0-4.92.16678-1.96343,1.30411-4.55049,2.39561-6.18339,1.79799-2.68983,4.42863-4.96417,7.5435-5.95337-.45646-8.63539,2.71961-16.95327,10.49178-21.24378,1.88606-1.04117,3.84016-1.66546,5.83743-2.44012.23197-.73335.52515-1.43006.89805-2.10158,2.55399-4.59933,6.24841-4.22891,10.70973-5.60578,3.40506-1.05088,6.30704-2.78154,9.26414-4.71197h.35985l.00003.00002ZM71.29281,86.82001c.10217-.9626-.07523-2.07935,0-3.06,5.6507.16278,11.02996-1.11088,15.58051-4.51296,4.04594-3.02483,6.73804-7.81116,7.23539-12.8624l3.45259-2.24518c-1.16606-.97354-2.56462-1.55719-4.01573-1.98154-5.5436-1.62112-11.48572-.84914-16.22185,2.49552-.52884.37347-1.88,1.67896-2.36924,1.71159-.61801.04122.41838-1.02859.53514-1.14646,2.95127-2.97952,7.27887-5.39164,11.47201-5.92318,2.08574-.2644,4.18844-.03283,6.28423-.19314.84319-1.63863,1.43513-3.42161,1.44204-5.28722l-.25351-2.73596c.58315-.33455,1.16901-.6634,1.6895-1.09758.31191-.26019,1.50405-1.39728,1.68381-1.67544.09443-.14612.15077-.24049.11363-.42463-7.75836-1.50276-16.00879,2.2507-21.53382,7.55542-.88042.84531-1.9164,2.29102-2.81023,2.94856-.16428.12085-.24243.22594-.48464.17396-.0822-.0747.86392-1.42996.98126-1.59711,2.97944-4.24432,7.31975-7.98911,12.04963-10.14532,2.01512-.91864,4.0907-1.40237,6.12889-2.20857.29065-1.64792.24213-3.35995.29608-5.04377l2.61404-2.96313c-8.05798-1.41822-15.932.77475-21.81824,6.43088-6.63723,6.37777-8.05959,13.10948-10.50659,21.529-.14677.50499-.30744,1.40595-.96748.9647l-10.59174-9.88504c2.83739-3.55911,5.89541-8.53106,6.09837-13.22177.07967-1.84124-.30574-1.30696-1.51865-1.95815-1.91029-1.0256-2.91866-2.65952-3.15719-4.82025.18168-.02647.2819.00107.42714.11149.28541.21699.78062.9938,1.18899,1.33048,3.35312,2.76442,10.09443.25474,12.4672-2.89318,1.62299-2.1532,2.70776-4.9885,4.00964-7.35245-4.15923-4.43503-10.83548-4.78561-16.38604-3.10914-1.03382.31225-2.17805.93987-3.13967,1.17889-.1511.03756-.67566.19917-.60572-.12523.14935-.35885,3.57355-2.07289,4.15427-2.32461,3.39423-1.47127,6.90172-1.86889,10.58693-1.82894.66217-2.47614,1.01639-5.11348.60022-7.65745-.24045-.16299-1.38808.47975-1.72564.59187-1.70309.56568-5.02076.52409-6.75337.03107-3.16893-.90174-4.49626-2.31382-8.18206-1.29276-3.50188.97011-3.18109,3.01371-5.57971,4.73776-.32479.23345-.64519.42432-.63725-.14822.88683-2.00666,1.6235-4.03104,1.41322-6.27541.20385-1.23365-.01955-2.52762-.11627-3.77497-1.86764.95367-3.83442,1.66909-5.85047,2.24584-1.94296.55584-5.67185,1.00554-6.98055,2.49652-1.24843,1.42232-.98448,3.00209-1.21902,4.72058-5.12963.53307-9.79726,2.65256-12.79529,6.93923-1.42953,2.04398-2.73064,5.09729-3.10772,7.57098-.41273,2.70763.00113,5.66901-.16539,8.41492-3.9532.95354-8.25388,3.63023-9.52506,7.69057-.81818,2.61338-.75853,6.55365.43829,9.04417.36655.76277,1.22942,2.04454,2.11159,2.21298.86081.16436,2.87512-.70146,3.86265-.88193,1.24506-.22754,3.48897-.31078,4.74446-.17423,1.36394.14834,4.72763,2.05727,6.42155,2.57576,2.02871.62097,4.04841.80956,6.17158.66334,1.66233-.11449,3.21619-.7676,4.85915-.95922-.04756,3.78812-1.31939,7.21721-3.83517,10.02364-1.80867,2.01763-4.0605,3.76219-6.4804,4.97876-.05617.0823,1.23039,1.30472,1.38261,1.43484.46319.3959,2.97953,1.94927,3.03446,2.12683.08403.27157.00644.47338-.0729.72358-.33854,1.06763-1.5309,2.33357-2.0174,3.39035-.06924.13124-.05085.22844.00823.35829.22798.50104,2.33557,2.06846,2.88416,2.64279,2.47541,2.59154,2.91505,5.03709,6.83138,6.36576,2.8189.95635,4.79377.44085,7.56524.35396,1.93723-.06074,3.97807,2.39828,5.40841,3.4494l11.47222-3.18883,4.70484,3.66676c2.62333-1.34004,5.19352-3.71144,6.32041-6.48401.24923-.6132.63102-1.78982.69808-2.42163l-.00005-.00004ZM61.67068,99.02447c-.90975-.41348-2.13337-1.93662-2.97835-2.24269-.80692-.29228-.90263.89768-1.0362,1.47584-.79663,3.44809-1.07021,7.11404-2.07161,10.53381-.19064.14949-3.70923-1.19884-4.2974-1.35733-3.11805-.8402-6.49591-1.11228-9.59451-.06669-3.71262,1.25278-5.87462,4.77031-6.74407,8.43198l28.18742-.12083-3.2468-5.34056,1.78152-11.31352v-.00002ZM28.83127,48.83944c.171-1.25358.5964-2.44776.8013-3.69713.51555-3.14347.7565-10.40518-3.17613-11.50712-1.6449-.46091-2.35642.02514-3.2647,1.34361,1.49373.41602,2.41751,1.33129,3.02161,2.73958,1.15726,2.69784,1.73281,10.03734-1.45314,11.54958-1.07275.50919-2.48279.15597-3.31073-.66371-3.16767-3.13606-2.73106-14.32279,1.30042-16.70751,1.78196-1.05407,4.42897-.63969,6.0179.62612,3.34204,2.66241,2.66006,12.76953.44592,16.0404-.10416.15388-.13591.32769-.38244.27617v.00002Z"/></g></svg>