<svg xmlns="http://www.w3.org/2000/svg" width="865.49" height="595.06" data-name="Layer 2" viewBox="0 0 865.49 595.06"><defs><linearGradient id="a" x1="-1.67" x2="633.83" y1="25.76" y2="661.25" gradientUnits="userSpaceOnUse"><stop offset="0" stop-color="#8d742f"/><stop offset=".52" stop-color="#d7bd74"/><stop offset="1" stop-color="#8d742f"/></linearGradient></defs><g data-name="Layer 1"><path d="M12 583.06v-21.73l43.1-26.7V57.94L12 34.67V12.09L245.45 12v25.32l-49.22 21.27v182.29h136.2V120.91c0-16.47-1.02-30.29-3.04-41.07-1.81-9.65-4.64-17.06-8.42-22.01-4-5.24-7.93-9.04-11.7-11.29-4.33-2.6-10.34-5.18-17.86-7.69l-8.2-2.74V12.03h233.42v22.59l-43.1 23.27v280.89h134.25v-142.9H712.1v142.9h141.39v101.3H712.1v142.9H607.78v-142.9H473.53v42.96c-.14 10.19 1.07 20.32 2.93 32.37 1.82 9.61 4.66 17.05 8.46 22.13 3.98 5.32 7.88 9.15 11.6 11.36 4.35 2.59 10.37 5.18 17.9 7.72l8.18 2.75v23.67H289.18v-21.73l43.1-26.7V402.46l.11-112.45-43.38 33.64h-92.8v150.5c0 16.47 1.02 30.3 3.05 41.1 1.82 9.71 4.67 17.21 8.48 22.29 3.99 5.32 7.9 9.15 11.64 11.39 4.33 2.59 10.34 5.18 17.86 7.69l8.2 2.74v23.69H12Z" style="fill:url(#a);stroke-width:0"/><path d="M233.45 24.01v5.43l-49.22 21.27v202.18h160.2V120.91c0-17.29-1.08-31.71-3.25-43.28s-5.72-20.6-10.67-27.08-9.97-11.25-15.08-14.31c-5.1-3.05-11.84-5.98-20.22-8.78v-3.43h209.42v3.43l-43.1 23.27v432.15c-.15 11.62 1.33 23.11 3.1 34.55 2.17 11.57 5.72 20.66 10.67 27.28s9.97 11.45 15.08 14.49c5.1 3.04 11.84 5.96 20.22 8.78v3.05H301.18v-3.05l43.1-26.7V402.45l.13-136.96-59.51 46.15H184.21v162.5c0 17.29 1.08 31.72 3.25 43.31s5.72 20.68 10.67 27.28 9.97 11.43 15.08 14.49c5.1 3.05 11.84 5.98 20.22 8.78v3.05H24V568l43.1-26.7V50.78L24 27.52v-3.43ZM700.1 207.89v142.9h141.39v77.3H700.1v142.9h-80.32v-142.9h-141v-77.3h141v-142.9ZM257.45 0h-24.01L23.99.09H0v41.75l12.6 6.8L43.1 65.1v462.85l-31.74 19.66L0 554.65v40.41h257.42v-44.33l-16.4-5.48c-8.34-2.78-13.03-5.13-15.5-6.61-1.35-.81-4.2-2.95-8.2-8.29-1.86-2.48-4.45-7.49-6.29-17.3-1.89-10.08-2.84-23.17-2.84-38.89v-138.5h84.91l6.49-5.03 20.76-16.1-.08 87.92v125.48l-31.74 19.66-11.36 7.04v40.41h257.42v-44.3l-16.35-5.5c-8.38-2.82-13.1-5.17-15.59-6.65-1.33-.79-4.15-2.91-8.13-8.23-1.84-2.46-4.4-7.4-6.24-16.97-1.75-11.37-2.88-20.87-2.76-30.18v-31.12h110.26v142.9H724.1v-142.9h141.39v-125.3H724.1v-142.9H595.78v142.9H485.52V65.05l30.5-16.46 12.6-6.8V.03H271.2v44.72l16.4 5.48c8.34 2.78 13.03 5.13 15.5 6.61 1.38.83 4.3 3 8.32 8.28 1.48 1.94 4.25 6.72 6.16 16.94 1.88 10.06 2.84 23.14 2.84 38.86v107.97h-112.2V66.48l34.74-15.01 14.48-6.26V0Z" style="stroke-width:0"/></g></svg>