<svg xmlns="http://www.w3.org/2000/svg" width="817.49" height="547.05" data-name="Layer 2" viewBox="0 0 817.49 547.05"><path d="M209.45 0v5.43L160.23 26.7v202.18h160.2V96.9c0-17.29-1.08-31.71-3.25-43.28s-5.72-20.6-10.67-27.08-9.97-11.25-15.08-14.31c-5.1-3.05-11.84-5.98-20.22-8.78V.03h209.42v3.43l-43.1 23.27v432.15c-.15 11.62 1.33 23.11 3.1 34.55 2.17 11.57 5.72 20.66 10.67 27.28s9.97 11.45 15.08 14.49c5.1 3.04 11.84 5.96 20.22 8.78v3.05H277.18v-3.05l43.1-26.7V378.45l.13-136.96-59.51 46.15H160.21v162.5c0 17.29 1.08 31.72 3.25 43.31s5.72 20.68 10.67 27.28 9.97 11.43 15.08 14.49c5.1 3.05 11.84 5.98 20.22 8.78v3.05H0V544l43.1-26.7V26.77L0 3.51V.08Zm386.33 404.07v142.9h80.32v-142.9h141.39v-77.3H676.1v-142.9h-80.32v142.9h-141v77.3z" data-name="Layer 1" style="stroke-width:0"/></svg>