<svg xmlns="http://www.w3.org/2000/svg" xml:space="preserve" width="150" height="150.001"><path fill="#5d5e61" d="m56.721 150-2.832-20.296a59 59 0 0 1-2.648-1.094l-16.346 12.347-25.854-25.852L21.39 98.756a60 60 0 0 1-1.095-2.649L0 93.28V56.718l20.296-2.828q.516-1.34 1.094-2.647L9.041 34.892 34.897 9.039l16.346 12.352q1.306-.577 2.646-1.093L56.718 0h36.56l2.832 20.294q1.34.515 2.646 1.093l16.35-12.349 25.852 25.851-12.346 16.349q.58 1.308 1.094 2.65L150 56.717v36.562l-20.291 2.827a60 60 0 0 1-1.095 2.651l12.348 16.349-25.855 25.853-16.346-12.348q-1.31.58-2.65 1.095l-2.827 20.295H56.721Z"/><path d="M142.949 87.141V62.854l-18.513-2.581a51 51 0 0 0-4.063-9.827l11.26-14.91-17.174-17.173-14.91 11.262a51.2 51.2 0 0 0-9.822-4.062L87.143 7.051H62.855l-2.579 18.514a51.3 51.3 0 0 0-9.825 4.063L35.542 18.365 18.365 35.539l11.262 14.912a51.2 51.2 0 0 0-4.063 9.824l-18.512 2.58v24.288l18.512 2.579a51.3 51.3 0 0 0 4.063 9.825l-11.262 14.91 17.177 17.174 14.906-11.259a51.4 51.4 0 0 0 9.828 4.063l2.582 18.513h24.287l2.581-18.513a51.3 51.3 0 0 0 9.828-4.063l14.904 11.259 17.177-17.174-11.26-14.909a51 51 0 0 0 4.061-9.829zm-26.07-9.576c-2.963 0-5.848.34-8.624.964-1.642 15.652-14.075 28.085-29.727 29.727a39.2 39.2 0 0 0-.965 8.622c0 1.416-2.564 5.128-2.564 5.128s-2.564-3.712-2.564-5.128c0-2.962-.339-5.846-.964-8.622-15.647-1.642-28.083-14.074-29.725-29.726a39.3 39.3 0 0 0-8.627-.965c-1.416 0-5.128-2.564-5.128-2.564s3.712-2.564 5.128-2.564c2.964 0 5.849-.34 8.627-.965 1.642-15.651 14.077-28.084 29.725-29.726a39.3 39.3 0 0 0 .964-8.627c0-1.416 2.564-5.128 2.564-5.128s2.564 3.712 2.564 5.128c0 2.965.34 5.85.966 8.627 15.65 1.642 28.084 14.074 29.726 29.726a39.2 39.2 0 0 0 8.624.965c1.417 0 5.128 2.564 5.128 2.564s-3.711 2.564-5.128 2.564m0-2.565c-23.13 0-41.88 18.749-41.88 41.877C74.999 93.749 56.25 75 33.119 75c23.131 0 41.88-18.75 41.88-41.882C75 56.25 93.75 75 116.879 75"/></svg>