<svg xmlns="http://www.w3.org/2000/svg" xml:space="preserve" width="150" height="150"><path d="M150 88.401V61.593l-20.434-2.849a56.5 56.5 0 0 0-4.484-10.847l12.428-16.458-18.956-18.954-16.458 12.431a56.5 56.5 0 0 0-10.841-4.483L88.404 0H61.595l-2.847 20.435a56.8 56.8 0 0 0-10.845 4.484l-16.457-12.43-18.959 18.956 12.431 16.459a56.6 56.6 0 0 0-4.485 10.844L0 61.596v26.808l20.433 2.848a56.6 56.6 0 0 0 4.485 10.845l-12.431 16.456 18.959 18.956 16.453-12.427a56.6 56.6 0 0 0 10.848 4.483L61.597 150h26.808l2.849-20.435a56.7 56.7 0 0 0 10.848-4.483l16.451 12.427 18.96-18.956-12.429-16.456a56 56 0 0 0 4.481-10.85zm-28.774-10.57c-3.271 0-6.455.375-9.52 1.063-1.813 17.276-15.536 30.999-32.812 32.812a43.3 43.3 0 0 0-1.065 9.517c0 1.563-2.83 5.66-2.83 5.66s-2.831-4.097-2.831-5.66c0-3.27-.374-6.452-1.064-9.517-17.271-1.813-30.997-15.535-32.809-32.811a43.4 43.4 0 0 0-9.522-1.064c-1.563 0-5.66-2.831-5.66-2.831s4.097-2.83 5.66-2.83a43.4 43.4 0 0 0 9.522-1.065c1.812-17.275 15.538-30.998 32.809-32.811a43.4 43.4 0 0 0 1.064-9.522c0-1.563 2.831-5.66 2.831-5.66s2.83 4.097 2.83 5.66c0 3.273.375 6.457 1.066 9.522 17.274 1.813 30.998 15.535 32.811 32.811a43.3 43.3 0 0 0 9.52 1.065c1.563 0 5.659 2.83 5.659 2.83s-4.095 2.831-5.659 2.831m0-2.831c-25.531 0-46.227 20.694-46.227 46.223C74.999 95.695 54.304 75 28.773 75c25.531 0 46.226-20.695 46.226-46.228C75 54.305 95.695 75 121.226 75"/></svg>