<?xml version="1.0" encoding="UTF-8" standalone="no"?>
<svg
   id="Layer_2"
   data-name="Layer 2"
   viewBox="0 0 995.83001 162.6"
   version="1.1"
   width="995.83002"
   height="162.60001"
   xmlns="http://www.w3.org/2000/svg"
   xmlns:svg="http://www.w3.org/2000/svg">
  <defs
     id="defs3">
    <style
       id="style1">
      .cls-1 {
        fill: url(#linear-gradient);
      }

      .cls-1, .cls-2, .cls-3 {
        stroke-width: 0px;
      }

      .cls-3 {
        fill: #fff;
      }
    </style>
    <linearGradient
       id="linear-gradient"
       x1="489.32001"
       y1="-11.79"
       x2="503.01001"
       y2="144.7"
       gradientUnits="userSpaceOnUse">
      <stop
         offset="0"
         stop-color="#bb2c26"
         id="stop1" />
      <stop
         offset=".5"
         stop-color="#f7981d"
         id="stop2" />
      <stop
         offset="1"
         stop-color="#bb2c26"
         id="stop3" />
    </linearGradient>
  </defs>
  <g
     id="Layer_1-2"
     data-name="Layer 1">
    <g
       id="g4">
      <path
         class="cls-2"
         d="m 189.2,152.34 c -2.07,0 -4.09,-0.69 -5.83,-1.91 -1.11,-0.78 -69.4,-47.7 -163.38,-47.7 -5.52,0 -10,-4.48 -10,-10 v -8.52 c 0,-1.06 0.16,-2.08 0.47,-3.04 -0.3,-0.96 -0.47,-1.98 -0.47,-3.03 v -8.6 c 0,-5.52 4.48,-10 10,-10 94.28,0 162.7,-47.25 163.38,-47.73 1.73,-1.21 3.75,-1.9 5.82,-1.9 0.59,0 1.19,0.06 1.79,0.17 2.65,0.52 4.92,1.99 6.4,4.25 0.5,0.68 7.01,9.18 22.95,17.61 15.49,8.18 43.25,17.94 87.49,17.94 2.65,0 5.2,1.05 7.07,2.93 1.88,1.88 2.93,4.42 2.93,7.07 v 42.48 c 0,5.52 -4.48,10 -10,10 -44.25,0 -72,9.75 -87.49,17.93 -15.93,8.41 -22.44,16.91 -22.95,17.6 -1.48,2.26 -3.75,3.74 -6.4,4.26 -0.59,0.12 -1.19,0.17 -1.78,0.17 z m -25.53,-71.5 c 0.15,0.43 0.28,0.88 0.38,1.34 1.46,7.01 11.21,14.52 23.42,14.52 14.2,0 26.18,-9.9 26.18,-16.12 0,-6.22 -11.98,-15.99 -26.18,-15.99 -12.59,0 -22.5,7.9 -23.52,14.98 -0.06,0.43 -0.15,0.86 -0.27,1.27 z m 184.5,51.83 c -0.99,0 -1.97,-0.15 -2.92,-0.43 -2.49,-0.76 -24.33,-8.65 -24.34,-51.45 v 0 c 0,-43.09 22.17,-50.18 24.7,-50.85 0.83,-0.22 1.69,-0.33 2.55,-0.33 0.08,0 516.83,12.39 516.83,12.39 2.3,0 4.92,-0.02 7.79,-0.04 3.63,-0.03 7.65,-0.06 11.95,-0.06 16.69,0 41.16,0.42 60.83,4.07 26.7,4.96 40.24,15.39 40.24,31.02 0,33.23 -59.26,38.23 -114.8,40.31 -2.04,0.08 -3.96,0.15 -5.73,0.22 -0.04,0 -516.82,15.14 -516.82,15.14 -0.1,0 -0.2,0 -0.29,0 z"
         id="path3" />
      <path
         class="cls-3"
         d="m 189.14,20 c 0,0 26.98,39.9 118.7,39.9 v 0 42.48 c -91.72,0 -118.7,39.88 -118.7,39.88 0,0 -70.28,-49.53 -169.14,-49.53 v -8.52 h 134.26 c 2.43,11.71 16.34,22.49 33.21,22.49 18.63,0 36.18,-13.07 36.18,-26.12 0,-13.05 -17.55,-25.99 -36.18,-25.99 -17.39,0 -31.67,11.4 -33.42,23.56 H 20 v -8.6 C 118.86,69.55 189.14,20 189.14,20 M 348.18,39.61 864.89,52 c 5.22,0 12.09,-0.1 19.86,-0.1 35.91,0 91.07,2.05 91.07,25.09 0,27.95 -79.33,29.26 -110.94,30.54 l -516.71,15.14 c 0,0 -17.25,-5.26 -17.25,-41.88 0,-36.63 17.25,-41.18 17.25,-41.18 m -17.25,41.18 c 0,0 0,0 0,0 v 0 M 189.14,0 c -4.08,0 -8.1,1.25 -11.49,3.63 v 0 C 177.48,3.75 160.74,15.35 132.88,26.75 107.48,37.15 67.28,49.54 20,49.54 8.96,49.55 0,58.5 0,69.55 v 8.6 c 0,1.03 0.08,2.04 0.23,3.03 C 0.08,82.17 0,83.18 0,84.22 v 8.52 c 0,11.05 8.95,20 20,20 91.46,0 156.97,45.42 157.62,45.87 3.54,2.49 7.6,3.99 11.79,3.99 1.17,0 2.35,-0.12 3.54,-0.36 5.34,-1.11 9.75,-3.96 12.63,-8.57 0.97,-1.19 7.07,-8.26 20.92,-15.28 14.39,-7.3 40.19,-16.01 81.34,-16.01 3.95,0 7.64,-1.15 10.74,-3.13 1.42,2.88 3.03,5.55 4.84,8.02 7.65,10.46 16.43,13.76 18.93,14.53 1.89,0.58 3.86,0.87 5.83,0.87 0.19,0 0.39,0 0.58,0 l 516.71,-15.13 c 0.08,0 0.15,0 0.23,0 1.76,-0.07 3.67,-0.14 5.7,-0.22 17.93,-0.67 45.03,-1.69 68.47,-6.08 14.4,-2.7 25.55,-6.32 34.09,-11.05 19.03,-10.57 21.87,-25.32 21.87,-33.17 0,-7.28 -2.46,-20.95 -18.9,-30.8 -7.45,-4.46 -17.1,-7.75 -29.51,-10.05 -20.48,-3.8 -45.57,-4.24 -62.65,-4.24 -4.35,0 -8.42,0.03 -12.02,0.06 -2.8,0.02 -5.35,0.04 -7.6,0.04 L 348.68,19.65 c -0.16,0 -0.32,0 -0.48,0 -1.72,0 -3.44,0.22 -5.1,0.66 -2.58,0.68 -11.62,3.72 -19.49,14.15 -1.96,2.59 -3.69,5.42 -5.19,8.49 -3.06,-1.91 -6.69,-3.01 -10.56,-3.01 -77.61,0 -101.92,-30.79 -102.13,-31.1 -3.01,-4.45 -7.68,-7.5 -12.97,-8.47 -1.2,-0.22 -2.4,-0.33 -3.6,-0.33 v 0 z m -15.08,80.61 c 1.21,-2.07 6.04,-6.02 13.41,-6.02 7.37,0 12.96,3.55 15.36,6.04 -2.38,2.5 -8.23,6.07 -15.36,6.07 -7.13,0 -12.23,-4.02 -13.41,-6.09 z"
         id="path4" />
    </g>
    <g
       id="g6">
      <path
         class="cls-1"
         d="M 186.83,145.53 C 186.14,145.04 116.34,96.73 20,96.73 H 16 V 65.54 h 4 c 96.35,0 166.14,-48.33 166.83,-48.82 l 3.33,-2.35 2.28,3.37 c 0.06,0.08 6.74,9.6 24.15,19 16.16,8.73 45.11,19.14 91.23,19.14 h 4 v 50.48 h -4 c -46.12,0 -75.07,10.4 -91.23,19.13 -17.41,9.4 -24.1,18.91 -24.16,19.01 l -2.29,3.32 -3.31,-2.31 z M 158.17,83.4 c 1.93,9.28 13.67,19.3 29.29,19.3 17.33,0 32.18,-12.16 32.18,-22.12 0,-9.96 -14.85,-21.99 -32.18,-21.99 C 171.57,58.59 159.4,69 158,78.72 L 157.67,81 Z m 188.84,43.1 c -0.82,-0.25 -20.09,-6.57 -20.09,-45.71 0,-39.26 19.41,-44.83 20.23,-45.05 l 0.55,-0.15 517.28,12.4 c 2.24,0 4.92,-0.02 7.86,-0.04 3.61,-0.03 7.62,-0.06 11.91,-0.06 44.26,0 95.07,3.31 95.07,29.09 0,30.23 -70.92,32.89 -109.03,34.31 -2.05,0.08 -3.97,0.15 -5.75,0.22 L 347.63,126.67 347,126.48 Z"
         id="path5"
         style="fill:url(#linear-gradient)" />
      <path
         class="cls-2"
         d="m 189.14,20 c 0,0 26.98,39.9 118.7,39.9 v 0 42.48 c -91.72,0 -118.7,39.88 -118.7,39.88 0,0 -70.28,-49.53 -169.14,-49.53 v -8.52 h 134.26 c 2.43,11.71 16.34,22.49 33.21,22.49 18.63,0 36.18,-13.07 36.18,-26.12 0,-13.05 -17.55,-25.99 -36.18,-25.99 -17.39,0 -31.67,11.4 -33.42,23.56 H 20 v -8.6 C 118.86,69.55 189.14,20 189.14,20 M 348.18,39.61 864.89,52 c 5.22,0 12.09,-0.1 19.86,-0.1 35.91,0 91.07,2.05 91.07,25.09 0,27.95 -79.33,29.26 -110.94,30.54 l -516.71,15.14 c 0,0 -17.25,-5.26 -17.25,-41.88 0,-36.63 17.25,-41.18 17.25,-41.18 m -17.25,41.18 c 0,0 0,0 0,0 v 0 M 191.24,8.56 l -6.71,4.9 C 184.24,13.66 166.92,25.7 138.12,37.57 111.58,48.51 69.54,61.55 20,61.55 h -8 v 14.67 0 24.52 h 8 c 49.55,0 91.58,13.03 118.13,23.97 28.9,11.9 46.24,23.98 46.41,24.1 l 6.78,4.76 4.43,-6.79 c 0.41,-0.56 6.99,-9.36 23.35,-18.06 15.71,-8.36 43.87,-18.33 88.74,-18.33 h 8 V 51.91 h -8 c -44.87,0 -73.02,-9.97 -88.73,-18.34 -16.36,-8.71 -22.94,-17.5 -23.35,-18.07 l -4.51,-6.93 v 0 z m -29.5,72.31 0.23,-1.59 c 1.14,-7.9 11.89,-16.7 25.5,-16.7 15.56,0 28.18,10.89 28.18,17.99 0,7.91 -13.67,18.12 -28.18,18.12 -13.18,0 -23.76,-8.33 -25.37,-16.11 l -0.36,-1.72 v 0 z m 185.5,-49.29 -1.1,0.29 c -2.38,0.63 -23.21,7.33 -23.21,48.91 0,0 0,0 0,0 0,0 0,0 0,0 0,41.35 20.57,48.82 22.92,49.53 l 1.26,0.38 1.31,-0.04 516.71,-15.13 h 0.04 c 0,0 0.04,0 0.04,0 1.77,-0.07 3.69,-0.14 5.74,-0.22 17.58,-0.66 44.14,-1.65 66.71,-5.88 13.12,-2.46 23.08,-5.65 30.47,-9.75 12.97,-7.2 15.7,-16.31 15.7,-22.68 0,-5.78 -2.27,-14.04 -13.07,-20.51 -6.2,-3.71 -14.55,-6.51 -25.54,-8.55 -19.51,-3.62 -43.85,-4.04 -60.46,-4.04 -4.3,0 -8.36,0.03 -11.94,0.06 -2.89,0.02 -5.52,0.04 -7.83,0.04 L 348.38,31.6 347.24,31.57 v 0 z"
         id="path6" />
    </g>
  </g>
</svg>
