<?xml version="1.0" encoding="UTF-8"?>
<svg id="Layer_2" data-name="Layer 2" xmlns="http://www.w3.org/2000/svg" xmlns:xlink="http://www.w3.org/1999/xlink" viewBox="0 0 995.82 162.94">
  <defs>
    <style>
      .cls-1 {
        fill: url(#linear-gradient);
      }

      .cls-1, .cls-2, .cls-3 {
        stroke-width: 0px;
      }

      .cls-3 {
        fill: #fff;
      }
    </style>
    <linearGradient id="linear-gradient" x1="489.32" y1="-11.45" x2="503.01" y2="145.04" gradientUnits="userSpaceOnUse">
      <stop offset="0" stop-color="#626e77"/>
      <stop offset=".5" stop-color="#b7d1e1"/>
      <stop offset="1" stop-color="#626e77"/>
    </linearGradient>
  </defs>
  <g id="Layer_1-2" data-name="Layer 1">
    <g>
      <path class="cls-2" d="m189.2,152.68c-2.07,0-4.09-.69-5.83-1.91-1.11-.78-69.4-47.7-163.38-47.7-5.52,0-10-4.48-10-10v-8.52c0-1.06.16-2.08.47-3.04-.3-.96-.47-1.98-.47-3.03v-8.6c0-5.52,4.48-10,10-10,94.28,0,162.7-47.25,163.38-47.73,1.73-1.21,3.75-1.9,5.82-1.9.59,0,1.19.06,1.79.17,2.65.52,4.92,1.99,6.4,4.25.5.68,7.01,9.18,22.95,17.61,15.49,8.18,43.25,17.94,87.49,17.94,2.65,0,5.2,1.05,7.07,2.93,1.88,1.88,2.93,4.42,2.93,7.07v42.48c0,5.52-4.48,10-10,10-44.25,0-72,9.75-87.49,17.93-15.93,8.41-22.44,16.91-22.95,17.6-1.48,2.26-3.75,3.74-6.4,4.26-.59.12-1.19.17-1.78.17Zm-25.53-71.5c.15.43.28.88.38,1.34,1.46,7.01,11.21,14.52,23.42,14.52,14.2,0,26.18-9.9,26.18-16.12s-11.98-15.99-26.18-15.99c-12.59,0-22.5,7.9-23.52,14.98-.06.43-.15.86-.27,1.27Zm184.5,51.83c-.99,0-1.97-.15-2.92-.43-2.49-.76-24.33-8.65-24.34-51.45h0c0-43.09,22.17-50.18,24.7-50.85.83-.22,1.69-.33,2.55-.33.08,0,516.83,12.39,516.83,12.39,2.3,0,4.92-.02,7.79-.04,3.63-.03,7.65-.06,11.95-.06,16.69,0,41.16.42,60.83,4.07,26.7,4.96,40.24,15.39,40.24,31.02,0,33.23-59.26,38.23-114.8,40.31-2.04.08-3.96.15-5.73.22-.04,0-516.82,15.14-516.82,15.14-.1,0-.2,0-.29,0Z"/>
      <path class="cls-3" d="m189.14,20.34s26.98,39.9,118.7,39.9h0v42.48c-91.72,0-118.7,39.88-118.7,39.88,0,0-70.28-49.53-169.14-49.53v-8.52h134.26c2.43,11.71,16.34,22.49,33.21,22.49,18.63,0,36.18-13.07,36.18-26.12s-17.55-25.99-36.18-25.99c-17.39,0-31.67,11.4-33.42,23.56H20v-8.6c98.86,0,169.14-49.55,169.14-49.55m159.04,19.61l516.71,12.39c5.22,0,12.09-.1,19.86-.1,35.91,0,91.07,2.05,91.07,25.09,0,27.95-79.33,29.26-110.94,30.54l-516.71,15.14s-17.25-5.26-17.25-41.88c0-36.63,17.25-41.18,17.25-41.18m-17.25,41.18s0,0,0,0h0M189.41,0c-4.18,0-8.23,1.49-11.76,3.97h0c-.17.12-16.91,11.72-44.77,23.12-25.4,10.4-65.6,22.79-112.88,22.79C8.96,49.89,0,58.84,0,69.89v8.6c0,1.03.08,2.04.23,3.03-.15.99-.23,2-.23,3.04v8.52c0,11.05,8.95,20,20,20,91.46,0,156.97,45.42,157.62,45.87,3.54,2.49,7.6,3.99,11.79,3.99,1.17,0,2.35-.12,3.54-.36,5.34-1.11,9.75-3.96,12.63-8.57.97-1.19,7.07-8.26,20.92-15.28,14.39-7.3,40.19-16.01,81.34-16.01,3.95,0,7.64-1.15,10.74-3.13,1.42,2.88,3.03,5.55,4.84,8.02,7.65,10.46,16.43,13.76,18.93,14.52,1.89.58,3.86.87,5.83.87.19,0,.39,0,.58,0l516.71-15.13c.08,0,.15,0,.23,0,1.76-.07,3.67-.14,5.7-.22,17.93-.67,45.03-1.69,68.47-6.08,14.4-2.7,25.55-6.32,34.09-11.05,19.03-10.57,21.87-25.32,21.87-33.17,0-7.28-2.46-20.95-18.9-30.8-7.45-4.46-17.1-7.75-29.51-10.05-20.48-3.8-45.56-4.24-62.65-4.24-4.35,0-8.42.03-12.02.06-2.8.02-5.35.04-7.6.04l-516.47-12.38c-.16,0-.32,0-.48,0-1.72,0-3.44.22-5.1.66-2.58.68-11.62,3.72-19.49,14.15-1.96,2.59-3.69,5.42-5.19,8.49-3.06-1.91-6.69-3.01-10.56-3.01-41.15,0-66.94-8.71-81.34-16.01-13.84-7.03-19.94-14.09-20.92-15.29-2.88-4.61-7.29-7.46-12.63-8.57-1.18-.25-2.37-.36-3.54-.36h0Zm-15.35,80.95c1.21-2.07,6.04-6.02,13.41-6.02s12.96,3.55,15.36,6.04c-2.38,2.5-8.23,6.07-15.36,6.07s-12.23-4.02-13.41-6.09h0Z"/>
    </g>
    <g>
      <path class="cls-1" d="m186.83,145.87c-.69-.49-70.49-48.8-166.83-48.8h-4v-31.19h4c96.35,0,166.14-48.33,166.83-48.82l3.33-2.35,2.28,3.37c.06.08,6.74,9.6,24.15,19,16.16,8.73,45.11,19.14,91.23,19.14h4v50.48h-4c-46.12,0-75.07,10.4-91.23,19.13-17.41,9.4-24.1,18.91-24.16,19.01l-2.29,3.32-3.31-2.31Zm-28.66-62.13c1.93,9.28,13.67,19.3,29.29,19.3,17.33,0,32.18-12.16,32.18-22.12s-14.85-21.99-32.18-21.99c-15.89,0-28.06,10.41-29.46,20.13l-.33,2.28.5,2.4Zm188.84,43.1c-.82-.25-20.09-6.57-20.09-45.71,0-39.26,19.41-44.83,20.23-45.05l.55-.15,517.28,12.4c2.24,0,4.92-.02,7.86-.04,3.61-.03,7.62-.06,11.91-.06,44.26,0,95.07,3.31,95.07,29.09,0,30.23-70.92,32.89-109.03,34.31-2.05.08-3.97.15-5.75.22l-517.41,15.16-.63-.19Z"/>
      <path class="cls-2" d="m189.14,20.34s26.98,39.9,118.7,39.9h0v42.48c-91.72,0-118.7,39.88-118.7,39.88,0,0-70.28-49.53-169.14-49.53v-8.52h134.26c2.43,11.71,16.34,22.49,33.21,22.49,18.63,0,36.18-13.07,36.18-26.12s-17.55-25.99-36.18-25.99c-17.39,0-31.67,11.4-33.42,23.56H20v-8.6c98.86,0,169.14-49.55,169.14-49.55m159.04,19.61l516.71,12.39c5.22,0,12.09-.1,19.86-.1,35.91,0,91.07,2.05,91.07,25.09,0,27.95-79.33,29.26-110.94,30.54l-516.71,15.14s-17.25-5.26-17.25-41.88c0-36.63,17.25-41.18,17.25-41.18m-17.25,41.18s0,0,0,0h0M191.24,8.9l-6.71,4.9c-.29.2-17.61,12.24-46.41,24.11-26.54,10.94-68.58,23.98-118.13,23.98h-8v14.67h0v24.52h8c49.55,0,91.58,13.03,118.13,23.97,28.9,11.9,46.24,23.98,46.41,24.1l6.78,4.76,4.43-6.79c.41-.56,6.99-9.36,23.35-18.06,15.71-8.36,43.87-18.33,88.74-18.33h8v-58.48h-8c-44.87,0-73.02-9.97-88.73-18.34-16.36-8.71-22.94-17.5-23.35-18.07l-4.51-6.93h0Zm-29.5,72.31l.23-1.59c1.14-7.9,11.89-16.7,25.5-16.7,15.56,0,28.18,10.89,28.18,17.99,0,7.91-13.67,18.12-28.18,18.12-13.18,0-23.76-8.33-25.37-16.11l-.36-1.72h0Zm185.5-49.29l-1.1.29c-2.38.63-23.21,7.33-23.21,48.91,0,0,0,0,0,0,0,0,0,0,0,0,0,41.35,20.57,48.82,22.92,49.53l1.26.38,1.31-.04,516.71-15.13h.04s.05,0,.05,0c1.77-.07,3.69-.14,5.74-.22,17.58-.66,44.14-1.65,66.7-5.88,13.12-2.46,23.09-5.65,30.47-9.75,12.97-7.2,15.7-16.31,15.7-22.68,0-5.78-2.27-14.04-13.07-20.51-6.2-3.71-14.55-6.51-25.54-8.55-19.51-3.62-43.85-4.04-60.46-4.04-4.3,0-8.36.03-11.94.06-2.89.02-5.52.04-7.83.04l-516.61-12.39-1.14-.03h0Z"/>
    </g>
  </g>
</svg>