<?xml version="1.0" encoding="UTF-8"?><svg id="Layer_2" xmlns="http://www.w3.org/2000/svg" width="163.19666" height="214.06143" viewBox="0 0 163.19666 214.06143"><defs><style>.cls-1{fill:#fff;}</style></defs><g id="Layer_1-2"><path class="cls-1" d="M163.05503,79.81143c-.72003-12.83002-15.31-43.77002-22.45001-55.15002-.92999-1.46997-4.15002-6.60999-5.83002-6.19-4.58997,2.34003-9.13995,4.77002-13.90997,6.73999-2.89001,1.19-10.5,4.37-13.22998,4.54004-2.58002.16998-3.02002-2.17004-4.53003-3.52002-3.51001-3.14001-6.45001-2.83002-10.96002-2.67999-.64996-.44-.85999-.53003-1.35999-.07001-1.23999,1.12-1.02002,21.94-.57001,24.75.82001,5.08002,7.04999,12.95001,10.42004,17.21002,4.04999,5.10999,8.13995,10.19,12.25,15.25.19.22998.35999.39996.5.51996l-13.98004,18.95001-4.37,90.65002.94.38c6.73999-2.89001,13.32001-7.27002,19.10999-11.78003,3.74005-2.91998,16.11005-13.64001,17.40002-17.56,1.17999-3.58002-.04999-6-3.46002-7.29999l6.46002-8.34003c2.06,1.96002,4.63,2.23999,7.13.85004,4.39996-2.45001,10.40997-16.08002,12.5-21.03003,1.63-3.85999,6.47998-15.35999,6.02997-18.91998-.50995-4-5.63-2.16003-5.78998-4.29004l2.40997-15.07996c6.07001.33997,5.56006-3.07001,5.29004-7.92999ZM124.69505,152.17141c-1.40002.64001-3.59003-1.26001-4.23004-2.47003-2.19-4.14996.54004-9.47998,5.09003-10.13995,1.83002-.26001,6.37.87,6.35999,3.00995,0,.61005-6.58002,9.31006-7.21997,9.60004ZM145.07505,79.11142c-5.27002,0-12.74005,6.02002-14.28003,11.10999-4.26001,14.12,7.84003,22.41998,20.73999,21.46002-3,9.35999-6.95996,18.53998-12.20996,26.82001-12.61005-17.09003-37.63,1.34998-23.49005,18.21997l6.96002,4.53003c-5.51001,5.67999-11.52002,10.97998-18.04999,15.47998-.59003.40997-4.64001,3.29999-4.94,2.96002l3.83997-77.82001,15.24005-21.01001c-4.81-6.32001-10.24005-12.16998-14.97003-18.56-1.16998-1.58002-8.90002-12.33002-8.90002-13.13v-17.47998c2.35004-.62006,2.79004,2.16998,4.11005,3.78998.57001.70001,1.67999,1.98999,2.41998,2.37,2.75,1.42999,10.35999-1.21997,13.47998-2.20001,6.48004-2.03998,12.79004-4.77997,18.30005-8.75,4.72998,10.44,10.25995,20.51001,14.59998,31.15002,2.72998,6.67999,5.84998,13.85999,6.48999,21.06h-9.33997ZM150.48502,102.73141c-.67999,1.32001-2.97998.87-4.33002.67999-11.56-1.58002-10.66998-14.97998.48004-16.51001,1.23999-.17999,5.83997-.64001,6.26996.66003.41003,1.20996-1.70996,13.79999-2.41998,15.16998ZM72.93504,24.67141c-.26001-1.20001-.77002-1.97998-1.87-1.12-2.76001.10999-5.55005-.46002-8.14001.70996-2.85999,1.28003-4.72998,5.66003-7.34998,5.49005-2.73004-.17004-10.34003-3.35004-13.23004-4.54004-4.75-1.96997-9.32001-4.41998-13.90997-6.73999-1.67999-.41998-4.91003,4.72003-5.82001,6.19C15.48502,36.18142.87504,66.89138.15501,79.81143c-.26996,4.94-.82996,7.58997,4.84003,8.23999l1.89996,15.71997c-.01996.35004-4.38-.17999-4.82996,3.34003-.45001,3.47998,4.42999,15.12,6.02997,18.91998,2.14001,5.04999,7.71002,17.72003,11.96002,20.62,2.77002,1.90002,4.70001.62,5.96997,1.16998.46002.19,6.17004,7.20001,6.17004,7.69-.01001.43005-2.44,1.34003-1.81,5.24005.69995,4.31995,13.84998,15.63,17.73999,18.65997,5.78998,4.51001,12.37,8.89001,19.10999,11.78003.32001-2.07001.59998-4.17004.52002-6.27002-1.12-28.08002-2.26001-56.19-3.95001-84.23999-4.08002-6.91003-9.04004-13.38-14.29999-19.38,8.92999-9.72003,16.62-19.95001,23.07001-30.70001,1.13995-8.46997.77997-17.42999.35999-25.92999ZM36.585,153.13143c-.52997-.26001-7.20996-8.82001-6.96997-9.35004,5.5-10.14996,19.44.10999,12.07001,7.48999-.92004.92999-3.81,2.51001-5.10004,1.86005ZM68.19505,49.17141c0,.79999-7.73004,11.54999-8.90002,13.13-4.72998,6.39001-10.15997,12.23999-14.96997,18.56l15.23999,21.01001,3.83997,77.82001c-.29999.33997-4.33997-2.55005-4.94-2.96002-2.95996-2.03998-5.95001-4.32001-8.70001-6.63-1.47998-1.23999-8.87994-7.75-9.34998-8.84998-.35999-.86005.35999-.62.66003-.76001,25.5-11.25-.78003-42.83002-17.18005-21.98999-5.21997-8.30005-9.31-17.42004-12.21997-26.82001,8.23999.31,18.09998-2.36005,20.73999-11.11005,0,0,4.85999-19.95996-14.27002-21.45996-6.25-.53003-9.33997,0-9.33997,0-1.35999-1.37,5.37-18.35004,6.47998-21.06,4.34003-10.64001,9.87-20.71002,14.60004-31.15002,5.50995,3.97003,11.81995,6.71002,18.29999,8.75,3.12.98004,10.72998,3.63,13.47998,2.20001.73999-.38,1.84998-1.66998,2.41998-2.37,1.32001-1.62,1.76001-4.41003,4.11005-3.78998v17.47998ZM9.82505,87.32138c5.46997-1.64996,14.60999.02002,15.25995,6.87006.85004,9-6.60999,9.12994-13.40997,9.82996l-1.84998-16.70001ZM85.465,51.54141l.07001-30.53003c2.70001-3.97998,7.01001-7.50995,9.67999-11.39996.73999-1.07001,1.5-1.85999,1.23999-3.31h-29.69995c-.14001,1.14996.13995,1.90997.73999,2.85999,1.58002,2.5,9.64996,10.04999,10.17999,11.84998l.07001,30.53003c-5.19,11.03998-13.72003,20-20.89001,29.71997l12.20001,16.87006,4.42999,91.83997c.20001,1.17999,7.45001,10.91003,8.56,12.22998l7.67999-12.22998,4.34003-91.92999,12.28998-16.78003c-7.14001-9.73999-15.77997-18.64996-20.89001-29.71997ZM81.61503,114.90139l-11.51001-33.14996,11.5-15.82001,11.5,15.82001-11.48999,33.14996ZM85.92503,82.71139s-3.28003,9.76001-4.31,12.77002l-4.32001-12.35999c1.09998-1.40002,4.32001-5.91003,4.32001-5.91003l4.31,5.5Z"/><path d="M131.91502,142.57138c0,.61005-6.58002,9.31006-7.21997,9.60004-1.40002.64001-3.59003-1.26001-4.23004-2.47003-2.19-4.14996.54004-9.47998,5.09003-10.13995,1.83002-.26001,6.37.87,6.35999,3.00995ZM152.90501,87.56143c-.42999-1.30005-5.02997-.84003-6.26996-.66003-11.15002,1.53003-12.04004,14.92999-.48004,16.51001,1.35004.19,3.65002.64001,4.33002-.67999.71002-1.37,2.83002-13.96002,2.41998-15.16998ZM130.79502,90.2214c1.53998-5.08997,9.01001-11.10999,14.28003-11.10999h9.33997c-.64001-7.20001-3.76001-14.38-6.48999-21.06-4.34003-10.64001-9.87-20.71002-14.59998-31.15002-5.51001,3.97003-11.82001,6.71002-18.30005,8.75-3.12.98004-10.72998,3.63-13.47998,2.20001-.73999-.38-1.84998-1.66998-2.41998-2.37-1.32001-1.62-1.76001-4.41003-4.11005-3.78998v17.47998c0,.79999,7.73004,11.54999,8.90002,13.13,4.72998,6.39001,10.16003,12.23999,14.97003,18.56l-15.24005,21.01001-3.83997,77.82001c.29999.33997,4.34998-2.55005,4.94-2.96002,6.52997-4.5,12.53998-9.79999,18.04999-15.47998l-6.96002-4.53003c-14.13995-16.87,10.88-35.31,23.49005-18.21997,5.25-8.28003,9.20996-17.46002,12.20996-26.82001-12.89996.95996-25-7.34003-20.73999-21.46002ZM25.085,94.19143c-.64996-6.85004-9.78998-8.52002-15.25995-6.87006l1.84998,16.70001c6.79999-.70001,14.26001-.82996,13.40997-9.82996ZM68.19505,49.17141v-17.47998c-2.35004-.62006-2.79004,2.16998-4.11005,3.78998-.57001.70001-1.67999,1.98999-2.41998,2.37-2.75,1.42999-10.35999-1.21997-13.47998-2.20001-6.48004-2.03998-12.79004-4.77997-18.29999-8.75-4.73004,10.44-10.26001,20.51001-14.60004,31.15002-1.10999,2.70996-7.83997,19.69-6.47998,21.06,0,0,3.08997-.53003,9.33997,0,19.13,1.5,14.27002,21.45996,14.27002,21.45996-2.64001,8.75-12.5,11.42004-20.73999,11.11005,2.90997,9.39996,7,18.51996,12.21997,26.82001,16.40002-20.84003,42.68005,10.73999,17.18005,21.98999-.30005.14001-1.02002-.10004-.66003.76001.47003,1.09998,7.87,7.60999,9.34998,8.84998,2.75,2.31,5.74005,4.59003,8.70001,6.63.60004.40997,4.64001,3.29999,4.94,2.96002l-3.83997-77.82001-15.23999-21.01001c4.81-6.32001,10.23999-12.16998,14.96997-18.56,1.16998-1.58002,8.90002-12.33002,8.90002-13.13ZM29.61503,143.7814c-.23999.53003,6.44,9.09003,6.96997,9.35004,1.29004.64996,4.17999-.93005,5.10004-1.86005,7.37-7.38-6.57001-17.63995-12.07001-7.48999ZM114.53501,81.27139l-14.23999,19.16003-4.32001,90.76001-14.09998,22.87-14.64001-22.87c-2.28003-29.99005-2.03998-60.26001-4.33002-90.26001-4.01996-6.94-9.48999-13.14001-14.22998-19.66003,4.53998-6.07996,9.67999-11.69,14.15997-17.82001,2.01001-2.72998,8.17004-10.84998,8.97003-13.53998.65997-2.20001.62-21.71997.25-24.71997-.19-1.52002-.63-1.14001-.98999-1.64001-1.86005-2.65002-10.41003-11.39001-10.90002-13.29004-.58997-2.31-1.21997-9.95996,2.97003-10.20996,12.59998.13,33.39438-.16452,36.44995,0,3.73136.2009,3.3838,8.17651,2.79004,10.67999s-8.48004,10.04999-10.23004,12.82001c-.27997.44-.78998.09998-.98999,1.64001-.37,3-.40997,22.51996.25,24.71997.73004,2.42999,7.26001,11.22998,9.16003,13.83002,4.39996,6.02997,9.45996,11.58997,13.96997,17.52997ZM106.35502,81.26138c-7.14001-9.73999-15.77997-18.64996-20.89001-29.71997l.07001-30.53003c2.70001-3.97998,7.01001-7.50995,9.67999-11.39996.73999-1.07001,1.5-1.85999,1.23999-3.31h-29.69995c-.14001,1.14996.13995,1.90997.73999,2.85999,1.58002,2.5,9.64996,10.04999,10.17999,11.84998l.07001,30.53003c-5.19,11.03998-13.72003,20-20.89001,29.71997l12.20001,16.87006,4.42999,91.83997c.20001,1.17999,7.45001,10.91003,8.56,12.22998l7.67999-12.22998,4.34003-91.92999,12.28998-16.78003ZM93.10502,81.75143l-11.48999,33.14996-11.51001-33.14996,11.5-15.82001,11.5,15.82001ZM81.61503,95.48141c1.02997-3.01001,4.31-12.77002,4.31-12.77002l-4.31-5.5s-3.22003,4.51001-4.32001,5.91003l4.32001,12.35999Z"/></g></svg>