<?xml version="1.0" encoding="UTF-8"?><svg id="Layer_2" xmlns="http://www.w3.org/2000/svg" width="163.12028" height="214.83002" xmlns:xlink="http://www.w3.org/1999/xlink" viewBox="0 0 163.12028 214.83002"><defs><style>.cls-1{fill:#b7281b;}.cls-2{fill:#fff;}.cls-3{fill:url(#linear-gradient);}</style><linearGradient id="linear-gradient" x1="2.86257" y1="104.90516" x2="159.74969" y2="104.90516" gradientUnits="userSpaceOnUse"><stop offset=".0708" stop-color="#b7281b"/><stop offset=".09939" stop-color="#bf3617"/><stop offset=".17654" stop-color="#d2590e"/><stop offset=".25504" stop-color="#e07408"/><stop offset=".33447" stop-color="#eb8703"/><stop offset=".41537" stop-color="#f19300"/><stop offset=".5" stop-color="#f49700"/><stop offset=".60664" stop-color="#f29300"/><stop offset=".68676" stop-color="#ed8a03"/><stop offset=".75822" stop-color="#e47a06"/><stop offset=".82459" stop-color="#d7630c"/><stop offset=".88689" stop-color="#c74613"/><stop offset=".93828" stop-color="#b7281b"/></linearGradient></defs><g id="M"><path class="cls-3" d="M130.68942,100.33002c2.54999,9.38995,12.07996,11.88995,20.81995,11.52997-2.88995,9.21002-7.14996,17.84003-11.5,26.40002-.62994.45001-3.90997-3.28003-4.92999-3.92999-17.27997-11.17004-35.76001,16.35999-12.96997,26.44995.29999.13,1.02002-.09998.65997.75-.20996.51001-4.88,4.98004-5.72998,5.78003-6.22003,5.78003-13.22998,10.89001-20.59998,15.10999.13995-5.51001.19995-11.07001.45996-16.57996.98999-21.74005,2.41003-43.42004,3.46002-65.16003l14.14996-19.28998c-5.37994-7.02002-11.27997-13.67999-16.33997-20.94-.94-1.35004-7-10.10999-7-10.75v-18c1.21997.26001,4.91998-.40002,5.66998.07996.69.43005,2.52002,5.83002,5.69,6.54004,3.96002.89001,19.75-4.94,23.92999-7.01001,1.06-.53003,6.34003-4.21997,6.81-3.90002,8.04004,16.58002,17.42004,33.33002,21.12,51.56-3.10999.42004-6.09998-.20996-9.28998.30005-10.70001,1.70996-17.35999,10.19995-14.40997,21.06ZM72.00937,49.70001v-18c-1.21997.26001-4.91998-.40002-5.66998.07996-.69.43005-2.52002,5.83002-5.69,6.54004-3.95996.89001-19.75-4.94-23.92999-7.01001-1.07001-.53003-6.33997-4.21997-6.81-3.90002-8.03998,16.58002-17.41998,33.33002-21.12,51.56,3.10999.42004,6.09003-.20996,9.28998.30005,10.52002,1.67999,17.15002,9.94995,14.52002,20.69-2.34003,9.54999-12.12,12.27997-20.92999,11.89996,2.91998,9.20001,7.09998,17.85999,11.5,26.40002.62.45996,3.90997-3.28003,4.91998-3.92999,12.37-7.98999,28.21002,4.48999,22.23999,18.44-1.89996,4.42999-5.10999,6.16998-9.26001,8.00995-.29999.13-1.02997-.09998-.65997.75.21002.51001,4.88,4.98004,5.72998,5.78003,6.22003,5.78003,13.22003,10.94,20.60004,15.10999-1.01001-27.14001-2.46002-54.15997-3.85004-81.33997-4.13-6.86005-9.42999-13.20001-14.21997-19.69,5.12-6.65002,10.71002-12.94,15.58997-19.78003,1.44-2.01001,7.40002-10.20001,7.75-11.90997Z"/><path class="cls-2" d="M85.44937,51.59003l.07001-30.11005c3.09003-4.56,7.08002-8.60999,10.67004-12.82996l.25-2.39001h-29.70001l.25,2.39001c3.58997,4.21997,7.57996,8.26996,10.66998,12.82996l.07001,30.11005c-5.28003,11.03998-13.66998,20.16998-21.06,29.78998l12.37,16.89996,4.42999,92.52002c1.10999,1.41998,7.19,12.20001,7.88,12.37l8.35999-12.37,4.42999-92.52002,12.37-16.89996c-7.31995-9.67999-15.70996-18.78003-21.06-29.78998ZM81.55942,115.08002l-11.47003-33.21002,11.5-16.27002,11.5,16.27002-11.52997,33.21002Z"/><path d="M140.02939,23.77002c-.82001-1.30005-3.73999-5.71002-5.27997-5.32001-4.58002,2.34998-9.14001,4.77997-13.90002,6.75-2.62,1.08997-12.75,5.29999-14.82001,4.33997-1.01001-.46997-2.89001-3.20996-4.08997-4.07996-3.13-2.26001-6.11005-2.02002-9.81-1.92004l10.31995-12.44995c-.12-3.20001,1.91003-10.53003-2.39996-11.09003h-38.09003c-4.19.81-1.26996,8.63-1.22998,11.09003l10.32001,12.44995c-3.70001-.09998-6.67999-.33997-9.81,1.92004-1.17999.84998-3.40002,3.94995-4.42004,4.23999-2.41998.70001-15.48999-4.89001-18.50995-6.23004-1.67999-.73999-9.92004-5.44-10.83002-4.98999-1.19.59003-4.06,4.83002-4.88,6.17999C15.44937,36.45001.87942,66.77002.14938,79.91998c-.26001,4.73999-.82001,7.87,4.84003,8.25l1.89001,15.76001c-4.15002.78003-5.37006,1.72998-4.68005,6.14001.73004,4.59998,4.95001,14.34998,6.99005,18.90997,2.02997,4.56,7.31995,15.90002,11.40997,18.33002,2.65002,1.57001,3.64001.29999,5.09998.62.5.10999,6.47003,7.34003,6.47003,7.85999,0,.39001-2.33002,1.73004-1.79999,5.23999.48999,3.19,8.96997,11.27002,11.69,13.72003,6.38,5.73999,13.63995,10.59998,21.00995,14.95001.82001.48999,3.75,1.62,4.03003,1.96997l14.25,23.16003,14.72998-23.16003c.34003-.41998,7.94-4.26001,9.42004-5.20996,5.77997-3.72003,25.5-18.64001,27.10999-24.66003.92999-3.48999-.35004-5.72998-3.60004-6.97998l6.21002-8.17999c3.02002,1.67999,4.84998,2.41998,7.91998.26001,4.27002-2.99005,10.14001-16.13,12.29004-21.28003,1.52997-3.65997,6.12-14.97998,5.69-18.34003-.54004-4.21997-5.89001-1.81995-5.76001-4.71997l2.38-14.70001c.52997-.53998,4.76996,1.25,5.27997-3.10999,1.56-13.48999-15.37-48.97998-22.98999-60.97998ZM36.64938,153.54999l-7.23999-9.28998c1.34998-1.13,2.23999-3.69,4.97998-4.26001,10.86005-2.25,12.55005,12.41998,2.26001,13.54999ZM46.13937,167.31c-.84998-.79999-5.51996-5.27002-5.72998-5.78003-.37-.84998.35999-.62.65997-.75,4.15002-1.83997,7.36005-3.57996,9.26001-8.00995,5.97003-13.95001-9.87-26.42999-22.23999-18.44-1.01001.64996-4.29999,4.38995-4.91998,3.92999-4.40002-8.54004-8.58002-17.20001-11.5-26.40002,8.81.38,18.58997-2.34998,20.92999-11.89996,2.63-10.74005-4-19.01001-14.52002-20.69-3.19995-.51001-6.17999.12-9.28998-.30005,3.70001-18.22998,13.08002-34.97998,21.12-51.56.47003-.31995,5.73999,3.37,6.81,3.90002,4.17999,2.07001,19.97003,7.90002,23.92999,7.01001,3.16998-.71002,5-6.10999,5.69-6.54004.75-.47998,4.45001.18005,5.66998-.07996v18c-.34998,1.70996-6.31,9.89996-7.75,11.90997-4.87994,6.84003-10.46997,13.13-15.58997,19.78003,4.78998,6.48999,10.08997,12.82996,14.21997,19.69,1.39001,27.17999,2.84003,54.19995,3.85004,81.33997-7.38-4.16998-14.38-9.32996-20.60004-15.10999ZM10.27939,87.42999c5.57001-1.58997,14.28998.64001,14.76001,7.46002.54999,7.87-7.16998,9.26001-13.37,8.81-.53998-5.42004-1.90002-10.78003-1.39001-16.27002ZM94.13937,98.27997l-4.42999,92.52002-8.35999,12.37c-.69-.16998-6.77002-10.95001-7.88-12.37l-4.42999-92.52002-12.37-16.89996c7.39001-9.62,15.77997-18.75,21.06-29.78998l-.07001-30.11005c-3.09003-4.56-7.08002-8.60999-10.66998-12.82996l-.25-2.39001h29.70001l-.25,2.39001c-3.59003,4.21997-7.58002,8.26996-10.67004,12.82996l-.07001,30.11005c5.35004,11.00995,13.74005,20.10999,21.06,29.78998l-12.37,16.89996ZM125.17941,151.95001c-1.16003,1.06-1.62.78998-2.86005-.04004-4.17999-2.79999-2.78998-10.35999,2.09003-12.13,2.87-1.04999,7.62.61005,7.40002,2.96002-.05005.56-5.91003,8.54999-6.63,9.21002ZM145.0994,79.27002c-10.70001,1.70996-17.35999,10.19995-14.40997,21.06,2.54999,9.38995,12.07996,11.88995,20.81995,11.52997-2.88995,9.21002-7.14996,17.84003-11.5,26.40002-.62994.45001-3.90997-3.28003-4.92999-3.92999-17.27997-11.17004-35.76001,16.35999-12.96997,26.44995.29999.13,1.02002-.09998.65997.75-.20996.51001-4.88,4.98004-5.72998,5.78003-6.22003,5.78003-13.22998,10.89001-20.59998,15.10999.13995-5.51001.19995-11.07001.45996-16.57996.98999-21.74005,2.41003-43.42004,3.46002-65.16003l14.14996-19.28998c-5.37994-7.02002-11.27997-13.67999-16.33997-20.94-.94-1.35004-7-10.10999-7-10.75v-18c1.21997.26001,4.91998-.40002,5.66998.07996.69.43005,2.52002,5.83002,5.69,6.54004,3.96002.89001,19.75-4.94,23.92999-7.01001,1.06-.53003,6.34003-4.21997,6.81-3.90002,8.04004,16.58002,17.42004,33.33002,21.12,51.56-3.10999.42004-6.09998-.20996-9.28998.30005ZM152.90939,87.41998l-2.90002,16.22003c-4.09998,0-9.5-.40002-11.16998-4.76001-3.48999-9.09003,6.62-13.48999,14.07001-11.46002ZM81.58939,65.59998l-11.5,16.27002,11.47003,33.21002,11.52997-33.21002-11.5-16.27002ZM77.30942,83.29999c1.01996-1.46997,4.04999-6,4.04999-6l4.51001,6-4.28003,12.04999-4.27997-12.04999Z"/><path class="cls-1" d="M131.80942,142.73999c-.05005.56-5.91003,8.54999-6.63,9.21002-1.16003,1.06-1.62.78998-2.86005-.04004-4.17999-2.79999-2.78998-10.35999,2.09003-12.13,2.87-1.04999,7.62.61005,7.40002,2.96002ZM138.83939,98.88c1.66998,4.35999,7.07001,4.76001,11.16998,4.76001l2.90002-16.22003c-7.45001-2.02997-17.56,2.37-14.07001,11.46002ZM34.38937,140c-2.73999.57001-3.63,3.13-4.97998,4.26001l7.23999,9.28998c10.29004-1.13,8.60004-15.79999-2.26001-13.54999ZM25.0394,94.89001c-.47003-6.82001-9.19-9.04999-14.76001-7.46002-.51001,5.48999.85004,10.84998,1.39001,16.27002,6.20001.45001,13.91998-.94,13.37-8.81ZM81.35941,77.29999s-3.03003,4.53003-4.04999,6l4.27997,12.04999,4.28003-12.04999-4.51001-6Z"/></g></svg>