<?xml version="1.0" encoding="UTF-8"?><svg id="Layer_2" xmlns="http://www.w3.org/2000/svg" width="163.19666" height="214.06142" viewBox="0 0 163.19666 214.06142"><defs><style>.cls-1{fill:#fff;}.cls-2{fill:red;}</style></defs><g id="RED"><path class="cls-1" d="M85.465,51.5414l.07001-30.53003c2.70001-3.97998,7.01001-7.50995,9.67999-11.39996.73999-1.07001,1.5-1.85999,1.23999-3.31h-29.69995c-.14001,1.14996.13995,1.90997.73999,2.85999,1.58002,2.5,9.64996,10.04999,10.17999,11.84998l.07001,30.53003c-5.19,11.03998-13.72003,20-20.89001,29.71997l12.20001,16.87006,4.42999,91.83997c.20001,1.17999,7.45001,10.91003,8.56,12.22998l7.67999-12.22998,4.34003-91.92999,12.28998-16.78003c-7.14001-9.73999-15.77997-18.64996-20.89001-29.71997ZM81.61503,114.90138l-11.51001-33.14996,11.5-15.82001,11.5,15.82001-11.48999,33.14996Z"/><path d="M48.67503,81.27138c4.53998-6.07996,9.67999-11.69,14.15997-17.82001,2.01001-2.72998,8.17004-10.84998,8.97003-13.53998.65997-2.20001.62-21.71997.25-24.71997-.19-1.52002-.63-1.14001-.98999-1.64001-2.76001.10999-5.55005-.46002-8.14001.70996-2.85999,1.28003-4.72998,5.66003-7.34998,5.49005-2.73004-.17004-10.34003-3.35004-13.23004-4.54004-4.75-1.96997-9.32001-4.41998-13.90997-6.73999-1.67999-.41998-4.91003,4.72003-5.82001,6.19C15.48502,36.18141.87504,66.89137.15501,79.81142c-.26996,4.94-.82996,7.58997,4.84003,8.23999l1.89996,15.71997c-.01996.35004-4.38-.17999-4.82996,3.34003-.45001,3.47998,4.42999,15.12,6.02997,18.91998,2.14001,5.04999,7.71002,17.72003,11.96002,20.62,2.77002,1.90002,4.70001.62,5.96997,1.16998.46002.19,6.17004,7.20001,6.17004,7.69-.01001.43005-2.44,1.34003-1.81,5.24005.69995,4.31995,13.84998,15.63,17.73999,18.65997,5.78998,4.51001,12.37,8.89001,19.10999,11.78003-2.28003-29.99005-2.03998-60.26001-4.33002-90.26001-4.01996-6.94-9.48999-13.14001-14.22998-19.66003ZM36.585,153.13142c-.52997-.26001-7.20996-8.82001-6.96997-9.35004,5.5-10.14996,19.44.10999,12.07001,7.48999-.92004.92999-3.81,2.51001-5.10004,1.86005ZM58.465,176.7314c-2.95996-2.03998-5.95001-4.32001-8.70001-6.63-1.47998-1.23999-8.87994-7.75-9.34998-8.84998-.35999-.86005.35999-.62.66003-.76001,25.5-11.25-.78003-42.83002-17.18005-21.98999-5.21997-8.30005-9.31-17.42004-12.21997-26.82001,8.23999.31,18.09998-2.36005,20.73999-11.11005,0,0,4.85999-19.95996-14.27002-21.45996-6.25-.53003-9.33997,0-9.33997,0-1.35999-1.37,5.37-18.35004,6.47998-21.06,4.34003-10.64001,9.87-20.71002,14.60004-31.15002,5.50995,3.97003,11.81995,6.71002,18.29999,8.75,3.12.98004,10.72998,3.63,13.47998,2.20001.73999-.38,1.84998-1.66998,2.41998-2.37,1.32001-1.62,1.76001-4.41003,4.11005-3.78998v17.47998c0,.79999-7.73004,11.54999-8.90002,13.13-4.72998,6.39001-10.15997,12.23999-14.96997,18.56l15.23999,21.01001,3.83997,77.82001c-.29999.33997-4.33997-2.55005-4.94-2.96002ZM9.82505,87.32136c5.46997-1.64996,14.60999.02002,15.25995,6.87006.85004,9-6.60999,9.12994-13.40997,9.82996l-1.84998-16.70001ZM163.05503,79.81142c-.72003-12.83002-15.31-43.77002-22.45001-55.15002-.92999-1.46997-4.15002-6.60999-5.83002-6.19-4.58997,2.34003-9.13995,4.77002-13.90997,6.73999-2.89001,1.19-10.5,4.37-13.22998,4.54004-2.58002.16998-3.02002-2.17004-4.53003-3.52002-3.51001-3.14001-6.45001-2.83002-10.96002-2.67999-.27997.44-.78998.09998-.98999,1.64001-.37,3-.40997,22.51996.25,24.71997.73004,2.42999,7.26001,11.22998,9.16003,13.83002,4.39996,6.02997,9.45996,11.58997,13.96997,17.52997l-14.23999,19.16003-4.32001,90.76001c6.73999-2.89001,13.32001-7.27002,19.10999-11.78003,3.74005-2.91998,16.11005-13.64001,17.40002-17.56,1.17999-3.58002-.04999-6-3.46002-7.29999l6.46002-8.34003c2.06,1.96002,4.63,2.23999,7.13.85004,4.39996-2.45001,10.40997-16.08002,12.5-21.03003,1.63-3.85999,6.47998-15.35999,6.02997-18.91998-.50995-4-5.63-2.16003-5.78998-4.29004l2.40997-15.07996c6.07001.33997,5.56006-3.07001,5.29004-7.92999ZM124.69505,152.1714c-1.40002.64001-3.59003-1.26001-4.23004-2.47003-2.19-4.14996.54004-9.47998,5.09003-10.13995,1.83002-.26001,6.37.87,6.35999,3.00995,0,.61005-6.58002,9.31006-7.21997,9.60004ZM145.07505,79.1114c-5.27002,0-12.74005,6.02002-14.28003,11.10999-4.26001,14.12,7.84003,22.41998,20.73999,21.46002-3,9.35999-6.95996,18.53998-12.20996,26.82001-12.61005-17.09003-37.63,1.34998-23.49005,18.21997l6.96002,4.53003c-5.51001,5.67999-11.52002,10.97998-18.04999,15.47998-.59003.40997-4.64001,3.29999-4.94,2.96002l3.83997-77.82001,15.24005-21.01001c-4.81-6.32001-10.24005-12.16998-14.97003-18.56-1.16998-1.58002-8.90002-12.33002-8.90002-13.13v-17.47998c2.35004-.62006,2.79004,2.16998,4.11005,3.78998.57001.70001,1.67999,1.98999,2.41998,2.37,2.75,1.42999,10.35999-1.21997,13.47998-2.20001,6.48004-2.03998,12.79004-4.77997,18.30005-8.75,4.72998,10.44,10.25995,20.51001,14.59998,31.15002,2.72998,6.67999,5.84998,13.85999,6.48999,21.06h-9.33997ZM150.48502,102.7314c-.67999,1.32001-2.97998.87-4.33002.67999-11.56-1.58002-10.66998-14.97998.48004-16.51001,1.23999-.17999,5.83997-.64001,6.26996.66003.41003,1.20996-1.70996,13.79999-2.41998,15.16998ZM70.10502,81.75142l11.51001,33.14996,11.48999-33.14996-11.5-15.82001-11.5,15.82001ZM85.92503,82.71138s-3.28003,9.76001-4.31,12.77002l-4.32001-12.35999c1.09998-1.40002,4.32001-5.91003,4.32001-5.91003l4.31,5.5Z"/><path class="cls-2" d="M77.29502,83.12141c1.09998-1.40002,4.32001-5.91003,4.32001-5.91003l4.31,5.5s-3.28003,9.76001-4.31,12.77002l-4.32001-12.35999ZM29.61503,143.78139c-.23999.53003,6.44,9.09003,6.96997,9.35004,1.29004.64996,4.17999-.93005,5.10004-1.86005,7.37-7.38-6.57001-17.63995-12.07001-7.48999ZM59.56504,101.87141l3.83997,77.82001c-.29999.33997-4.33997-2.55005-4.94-2.96002-2.95996-2.03998-5.95001-4.32001-8.70001-6.63-1.47998-1.23999-8.87994-7.75-9.34998-8.84998-.35999-.86005.35999-.62.66003-.76001,25.5-11.25-.78003-42.83002-17.18005-21.98999-5.21997-8.30005-9.31-17.42004-12.21997-26.82001,8.23999.31,18.09998-2.36005,20.73999-11.11005,0,0,4.85999-19.95996-14.27002-21.45996-6.25-.53003-9.33997,0-9.33997,0-1.35999-1.37,5.37-18.35004,6.47998-21.06,4.34003-10.64001,9.87-20.71002,14.60004-31.15002,5.50995,3.97003,11.81995,6.71002,18.29999,8.75,3.12.98004,10.72998,3.63,13.47998,2.20001.73999-.38,1.84998-1.66998,2.41998-2.37,1.32001-1.62,1.76001-4.41003,4.11005-3.78998v17.47998c0,.79999-7.73004,11.54999-8.90002,13.13-4.72998,6.39001-10.15997,12.23999-14.96997,18.56l15.23999,21.01001ZM11.67503,104.02138l-1.84998-16.70001c5.46997-1.64996,14.60999.02002,15.25995,6.87006.85004,9-6.60999,9.12994-13.40997,9.82996ZM131.91502,142.57136c0,.61005-6.58002,9.31006-7.21997,9.60004-1.40002.64001-3.59003-1.26001-4.23004-2.47003-2.19-4.14996.54004-9.47998,5.09003-10.13995,1.83002-.26001,6.37.87,6.35999,3.00995ZM147.92503,58.05141c2.72998,6.67999,5.84998,13.85999,6.48999,21.06h-9.33997c-5.27002,0-12.74005,6.02002-14.28003,11.10999-4.26001,14.12,7.84003,22.41998,20.73999,21.46002-3,9.35999-6.95996,18.53998-12.20996,26.82001-12.61005-17.09003-37.63,1.34998-23.49005,18.21997l6.96002,4.53003c-5.51001,5.67999-11.52002,10.97998-18.04999,15.47998-.59003.40997-4.64001,3.29999-4.94,2.96002l3.83997-77.82001,15.24005-21.01001c-4.81-6.32001-10.24005-12.16998-14.97003-18.56-1.16998-1.58002-8.90002-12.33002-8.90002-13.13v-17.47998c2.35004-.62006,2.79004,2.16998,4.11005,3.78998.57001.70001,1.67999,1.98999,2.41998,2.37,2.75,1.42999,10.35999-1.21997,13.47998-2.20001,6.48004-2.03998,12.79004-4.77997,18.30005-8.75,4.72998,10.44,10.25995,20.51001,14.59998,31.15002ZM152.90501,87.56142c.41003,1.20996-1.70996,13.79999-2.41998,15.16998-.67999,1.32001-2.97998.87-4.33002.67999-11.56-1.58002-10.66998-14.97998.48004-16.51001,1.23999-.17999,5.83997-.64001,6.26996.66003ZM99.40501,100.16139l13.98004-18.95001c-.14001-.12-.31-.28998-.5-.51996-4.11005-5.06-8.20001-10.14001-12.25-15.25-3.37006-4.26001-9.60004-12.13-10.42004-17.21002-.45001-2.81-.66998-23.63.57001-24.75.5-.46002.71002-.37,1.35999.07001,1.75-2.77002,9.63629-10.31653,10.23004-12.82001S103.31638.25233,99.585.05141c-3.05554-.16449-23.84998.13-36.44995,0-4.19.25-3.56,7.89996-2.97003,10.20996.48999,1.90002,9.03998,10.64001,10.90002,13.29004,1.09998-.85999,1.60999-.08002,1.87,1.12.41998,8.5.77997,17.46002-.35999,25.92999-6.45001,10.75-14.14001,20.97998-23.07001,30.70001,5.25995,6,10.21997,12.46997,14.29999,19.38,1.69,28.04999,2.83002,56.15997,3.95001,84.23999.07996,2.09998-.20001,4.20001-.52002,6.27002l14.64001,22.87,14.09998-22.87-.94-.38,4.37-90.65002ZM89.72501,189.97139l-7.67999,12.22998c-1.10999-1.31995-8.35999-11.04999-8.56-12.22998l-4.42999-91.83997-12.20001-16.87006c7.16998-9.71997,15.70001-18.67999,20.89001-29.71997l-.07001-30.53003c-.53003-1.79999-8.59998-9.34998-10.17999-11.84998-.60004-.95001-.88-1.71002-.73999-2.85999h29.69995c.26001,1.45001-.5,2.23999-1.23999,3.31-2.66998,3.89001-6.97998,7.41998-9.67999,11.39996l-.07001,30.53003c5.11005,11.07001,13.75,19.97998,20.89001,29.71997l-12.28998,16.78003-4.34003,91.92999ZM100.29502,100.43141l-4.32001,90.76001-.94-.38,4.37-90.65002,13.98004-18.95001c-.14001-.12-.31-.28998-.5-.51996-4.11005-5.06-8.20001-10.14001-12.25-15.25-3.37006-4.26001-9.60004-12.13-10.42004-17.21002-.45001-2.81-.66998-23.63.57001-24.75.5-.46002.71002-.37,1.35999.07001-.27997.44-.78998.09998-.98999,1.64001-.37,3-.40997,22.51996.25,24.71997.73004,2.42999,7.26001,11.22998,9.16003,13.83002,4.39996,6.02997,9.45996,11.58997,13.96997,17.52997l-14.23999,19.16003ZM67.75504,184.9214c.07996,2.09998-.20001,4.20001-.52002,6.27002-2.28003-29.99005-2.03998-60.26001-4.33002-90.26001-4.01996-6.94-9.48999-13.14001-14.22998-19.66003,4.53998-6.07996,9.67999-11.69,14.15997-17.82001,2.01001-2.72998,8.17004-10.84998,8.97003-13.53998.65997-2.20001.62-21.71997.25-24.71997-.19-1.52002-.63-1.14001-.98999-1.64001,1.09998-.85999,1.60999-.08002,1.87,1.12.41998,8.5.77997,17.46002-.35999,25.92999-6.45001,10.75-14.14001,20.97998-23.07001,30.70001,5.25995,6,10.21997,12.46997,14.29999,19.38,1.69,28.04999,2.83002,56.15997,3.95001,84.23999Z"/></g></svg>