<?xml version="1.0" encoding="UTF-8"?><svg id="Layer_2" xmlns="http://www.w3.org/2000/svg" width="163.11754" height="214.83626" viewBox="0 0 163.11754 214.83626"><g id="WM"><path id="WM-2" d="M140.03275,23.77187c-.82257-1.2962-3.74475-5.7041-5.28168-5.31793-4.58307,2.35107-9.1394,4.77954-13.90387,6.75586-2.61804,1.08594-12.74762,5.29419-14.81989,4.33496-1.00751-.46637-2.88324-3.20959-4.08521-4.0777-3.13287-2.26263-6.11646-2.02472-9.81586-1.92694l10.32288-12.44928C102.33152,7.89248,104.36253.56093,100.05338.00002l-38.08923-.00002c-4.19182.81185-1.26935,8.63265-1.23419,11.09084l10.32288,12.44928c-3.70355-.09869-6.68494-.3338-9.81586,1.92694-1.17615.84924-3.39313,3.94409-4.42029,4.23962-2.41748.69574-15.48767-4.89331-18.50323-6.22949-1.68604-.74707-9.92407-5.4469-10.82965-4.99701-1.19287.59253-4.0686,4.83887-4.88422,6.18372C15.45139,36.45015.88236,66.77474.15061,79.92543c-.26392,4.7431-.81659,7.87177,4.836,8.24719l1.89832,15.76324c-4.15289.77869-5.37494,1.73383-4.68164,6.13599.72528,4.6051,4.94287,14.35223,6.98242,18.91779,2.03638,4.55847,7.32513,15.89374,11.41077,18.32336,2.64874,1.5752,3.64087.2981,5.10339.62482.49738.11108,6.47162,7.34186,6.46869,7.8526-.0022.39587-2.32739,1.73798-1.79639,5.24146.48468,3.19775,8.96722,11.27405,11.69257,13.72571,6.37555,5.73535,13.63593,10.59686,21.00391,14.94958.82184.48553,3.74695,1.61786,4.02869,1.96277l14.25275,23.16632,14.73169-23.16632c.34009-.41724,7.9364-4.25476,9.414-5.20569,5.78302-3.72174,25.5033-18.64185,27.11414-24.66187.93372-3.4895-.35315-5.72589-3.60309-6.97455l6.21796-8.1803c3.01636,1.67657,4.84717,2.41272,7.9118.26154,4.26965-2.99707,10.14093-16.13446,12.2934-21.27966,1.53223-3.66241,6.11798-14.98914,5.69067-18.34503-.53699-4.21741-5.88776-1.81934-5.75885-4.71796l2.37714-14.703c.5354-.53876,4.77362,1.25122,5.27777-3.11078,1.55939-13.49219-15.36865-48.98077-22.98395-60.98077ZM36.65031,153.55733l-7.24457-9.29218c1.35388-1.12701,2.24464-3.68806,4.98854-4.25811,10.86036-2.25624,12.54173,12.4215,2.25602,13.55028ZM46.14164,167.3116c-.85181-.79297-5.52496-5.27032-5.73651-5.77325-.36053-.85724.36249-.6228.66089-.75488,4.15656-1.84003,7.36493-3.57434,9.26227-8.00928,5.9671-13.94769-9.8681-26.42975-22.23407-18.44354-1.01099.65289-4.30658,4.39221-4.92816,3.93323-4.39307-8.54016-8.57825-17.20142-11.50092-26.39423,8.81061.37781,18.59637-2.35553,20.93274-11.90521,2.62787-10.74103-3.99481-19.01221-14.5188-20.68811-3.19489-.50873-6.18109.11835-9.29352-.29645,3.70435-18.23206,13.08636-34.98724,21.12286-51.56488.46735-.3233,5.7464,3.3653,6.81482,3.89587,4.18011,2.07593,19.96405,7.90674,23.92853,7.01654,3.16553-.71082,4.99945-6.10956,5.68774-6.54407.75275-.47522,4.45099.17761,5.67133-.07843v18c-.34589,1.70514-6.31396,9.89819-7.75061,11.91217-4.87952,6.84027-10.47327,13.12811-15.59381,19.7735,4.78912,6.49133,10.0899,12.83484,14.22028,19.69873,1.38965,27.18036,2.84442,54.19824,3.85101,81.33545-7.38092-4.16656-14.38257-9.3288-20.59607-15.11316ZM10.28044,87.43551c5.57141-1.58685,14.29041.64124,14.76276,7.45947.54529,7.87207-7.17267,9.2644-13.37378,8.8056-.54144-5.4201-1.90417-10.77368-1.38898-16.26508ZM94.14146,98.28469l-4.43555,92.51691-8.35583,12.37305c-.68689-.1709-6.76849-10.95312-7.87921-12.37305l-4.43317-92.51697-12.3703-16.89893c7.39044-9.61896,15.77917-18.75421,21.0614-29.79016l-.07178-30.10938c-3.0863-4.56207-7.07544-8.60657-10.66595-12.82965l-.24854-2.3916h29.69403l-.2486,2.3916c-3.59045,4.22308-7.57959,8.26758-10.66589,12.82965l-.07025,30.10785c5.35107,11.0094,13.73926,20.10919,21.05988,29.79169l-12.37024,16.89899ZM125.18168,151.9543c-1.15771,1.06238-1.62457.79486-2.86066-.03503-4.18231-2.80798-2.79097-10.36527,2.09155-12.13791,2.87195-1.04268,7.6225.61728,7.39886,2.96042-.05402.56537-5.90735,8.54962-6.62976,9.21252ZM145.10002,79.27633c-10.69794,1.70361-17.36353,10.20337-14.4137,21.06274,2.54956,9.38586,12.08325,11.88458,20.82764,11.53058-2.89349,9.20935-7.1499,17.83118-11.50092,26.39398-.6286.45563-3.91071-3.27588-4.92816-3.93298-17.28168-11.16083-35.76013,16.36487-12.97186,26.45282.29846.13208,1.02148-.10236.66095.75488-.21155.50293-4.8847,4.98029-5.73651,5.77325-6.21527,5.78601-13.22284,10.89661-20.59613,15.11316.14001-5.50958.20276-11.07214.45441-16.57965.9931-21.73688,2.41187-43.42029,3.4693-65.16296l14.14764-19.29156c-5.38391-7.0163-11.2796-13.67188-16.34747-20.93817-.93896-1.34631-6.99695-10.1059-6.99695-10.7475v-18c1.22034.25604,4.91858-.39679,5.67133.07843.68829.43451,2.52222,5.83325,5.68774,6.54407,3.96448.8902,19.74841-4.94061,23.92853-7.01654,1.06842-.53058,6.34747-4.21918,6.81482-3.89587,8.0365,16.57764,17.41852,33.33282,21.12286,51.56488-3.11243.41479-6.09863-.21228-9.29352.29645ZM152.91172,87.42141l-2.89734,16.21875c-4.10443.00769-9.50793-.39459-11.177-4.75043-3.48438-9.09338,6.62207-13.49158,14.07434-11.46832ZM81.58958,65.60427l-11.50146,16.27179,11.47064,33.21021,11.53217-33.21021-11.50134-16.27179ZM77.31211,83.30355c1.0212-1.4734,4.04309-5.99805,4.04309-5.99805l4.51178,5.99805-4.2774,12.05402-4.27747-12.05402Z"/></g></svg>