<svg xmlns="http://www.w3.org/2000/svg" xml:space="preserve" width="237.12" height="174.998" viewBox="17.138 -0.294 237.12 174.998"><path d="M74.552 171.693a5.075 5.075 0 0 1-4.868-5.08h-.06c-31.438-1.29-53.496-20.78-52.45-46.36 1.396-34.134 40.732-71.28 97.883-92.433a5.1 5.1 0 0 1 1.97-.31l.925-22.937a5.08 5.08 0 0 1 5.28-4.863l73.58 3.01a5.07 5.07 0 0 1 4.86 5.077h.1c31.44 1.286 53.5 20.78 52.45 46.354-1.4 34.14-40.73 71.29-97.88 92.44-.64.23-1.31.34-1.97.31l-.94 22.94a5.08 5.08 0 0 1-5.28 4.86zm82.21-80.134c12.84.407 23.86-13.669 24.59-31.48.7-17.033-8.74-31.694-20.96-33.306-13.76-1.814-25.2 14.65-25.89 31.39l18.36.75a5.07 5.07 0 0 1 4.86 5.28l-1.12 27.35c.1 0 .11.01.16.02zm-42.16-8.706c-12.85-.409-23.868 13.67-24.596 31.48-.697 17.03 8.736 31.69 20.966 33.31 13.76 1.81 25.2-14.65 25.88-31.39l-18.35-.75a5.09 5.09 0 0 1-4.87-5.28l1.12-27.353s-.1-.01-.15-.02z" style="fill:#fff;fill-opacity:1"/><linearGradient id="a" x1="59.282" x2="226.89" y1="51.745" y2="129.9" gradientTransform="translate(-7.408 -3.617)" gradientUnits="userSpaceOnUse"><stop offset="0" style="stop-color:#612c75"/><stop offset=".3" style="stop-color:#7b5190"/><stop offset=".5" style="stop-color:#bf99c3"/><stop offset=".7" style="stop-color:#7b5190"/><stop offset="1" style="stop-color:#612c75"/></linearGradient><path fill="url(#a)" d="m120.872 57.605 2.15-52.822 73.58 3.01c-41.6.205-56.94 23.074-56.94 23.074-5.89 6.624-9.86 17.573-10.25 27.094zm71.96 55.858 3.45-84.358c3.79-1.425 8.01-2.14 12.43-1.958 15.65.64 27.89 12.275 27.33 25.987-.33 8.206-5.16 15.317-12.37 19.528-.75.44-2 .21-2.33-.663-.36-.94.44-2.318 1.24-2.957 2.19-1.762 8.04-7.438 8.39-16.116.44-10.653-9.64-20.183-22.47-20.708-2.53-.104-4.98.142-7.29.685l-3.3 80.77a5.08 5.08 0 0 1-5.28 4.86l-37.07-1.52-1.01 24.82c53.29-19.72 93.21-54.606 94.57-87.885.88-21.536-17.77-39.854-47.59-41.075-24.83-1.015-40.59 8.856-40.59 8.856 14.98 1.628 26.3 18.53 25.48 38.56-.84 20.68-14.31 36.974-30.03 36.334 0 0-3.41-.353-5.04-.81l1.3-31.827-74.126-3.033-3.452 84.36a31.5 31.5 0 0 1-12.423 1.95c-15.656-.63-27.893-12.27-27.333-25.98.335-8.21 5.167-15.32 12.37-19.53.749-.44 2.003-.21 2.335.66.358.94-.448 2.32-1.241 2.96-2.191 1.76-8.04 7.44-8.393 16.11-.437 10.66 9.634 20.19 22.469 20.71 2.53.1 4.984-.14 7.294-.68l3.303-80.768a5.074 5.074 0 0 1 5.277-4.864l37.06 1.517 1.02-24.817c-53.287 19.722-93.21 54.603-94.572 87.882-.882 21.54 17.766 39.86 47.586 41.08 24.826 1.02 40.596-8.86 40.596-8.86-14.99-1.62-26.307-18.53-25.488-38.56.845-20.677 14.318-36.977 30.028-36.335 0 0 3.41.355 5.05.815l-1.31 31.83zm-50.91 2.99c-.39 9.53-4.36 20.47-10.24 27.1 0 0-15.34 22.87-56.931 23.08l73.57 3.01 2.16-52.82z" style="fill:url(#a)"/></svg>