<svg xmlns="http://www.w3.org/2000/svg" xml:space="preserve" width="226.94" height="164.856" viewBox="17.138 -0.294 226.94 164.856"><path d="m117.948-.294-2.15 52.822 8.54.355c.39-9.521 4.36-20.47 10.25-27.094 0 0 15.34-22.868 56.94-23.074zm73.96 8.023c-22.19.248-36.04 8.924-36.04 8.924 14.98 1.628 26.3 18.529 25.48 38.558-.84 20.68-14.31 36.971-30.03 36.331 0 0-3.41-.35-5.04-.807l1.3-31.827-74.123-3.033-3.453 84.357a31.5 31.5 0 0 1-12.422 1.95c-15.656-.63-27.894-12.27-27.334-25.98.335-8.21 5.166-15.32 12.369-19.53.749-.44 2.004-.21 2.336.66.358.94-.447 2.32-1.24 2.96-2.191 1.76-8.041 7.44-8.395 16.11-.437 10.66 9.636 20.19 22.471 20.71 2.531.1 4.983-.14 7.293-.68l3.303-80.764a5.073 5.073 0 0 1 5.277-4.863l37.058 1.516 1.02-24.817c-53.285 19.722-93.208 54.602-94.57 87.878-.882 21.54 17.766 39.86 47.586 41.08 24.826 1.02 40.594-8.86 40.594-8.86-14.989-1.62-26.306-18.53-25.487-38.56.845-20.674 14.319-36.973 30.027-36.331 0 0 3.41.355 5.05.815l-1.31 31.826 74.13 3.03 3.45-84.354c3.79-1.425 8.01-2.139 12.43-1.957 15.65.64 27.89 12.274 27.33 25.986-.33 8.206-5.16 15.316-12.37 19.527-.75.439-2 .211-2.33-.662-.36-.94.44-2.318 1.24-2.957 2.19-1.762 8.04-7.437 8.39-16.115.44-10.653-9.64-20.184-22.47-20.709-2.53-.104-4.98.142-7.29.685l-3.3 80.766a5.08 5.08 0 0 1-5.28 4.86l-37.07-1.52-1.01 24.82c53.29-19.72 93.21-54.602 94.57-87.881.88-21.536-17.77-39.855-47.59-41.076a87 87 0 0 0-4.55-.066m-55.06 103.643c-.39 9.53-4.36 20.47-10.24 27.1 0 0-15.34 22.87-56.929 23.08l73.569 3.01 2.16-52.82z"/></svg>