<svg xmlns="http://www.w3.org/2000/svg" width="129.998" height="130.001"><path fill="#fff" d="M39.33.002h3.14c3.98.82 7.97 1.59 11.96 2.359-3.58 5.42-6.91 11.041-10.91 16.17-3.52 2.381-8.05 3.98-9.95 8.111-1.89 5.31-3.35 11.389-1.06 16.819 2.56 6.21 7.24 11.181 11.44 16.3 7.28-10.38 14.27-20.97 21.3-31.529 6.439 9.899 12.85 19.83 19.48 29.609 4.02-5.119 8.72-10.1 10.47-16.54 1.2-4.649-.07-9.479-1.47-13.93-1.621-4.591-6.53-6.351-10.24-8.851-3.98-5.189-7.43-10.76-11.25-16.06 3.829-.8 7.699-1.41 11.48-2.46h3.93c7.97 1.859 15.02 6.88 20.199 13.12 8.631 10.909 10.33 26.43 5.54 39.34-2.64 8.59-8.14 15.8-13.79 22.62 2.44 2.04 4.95 4 7.48 5.93 6.989-5.14 13.92-10.359 20.939-15.449.78 9.62 1.12 19.29 1.98 28.909v2.35c-4.931 6.091-10.04 12.051-15.48 17.69-3.119 3.23-6.209 6.6-10.09 8.93-6.89 4.241-15 5.871-22.97 6.561h-6.34c-3.36-4.09-6.74-8.16-10.16-12.2a701 701 0 0 0-10.06 12.2h-8.16c-6.61-1.05-13.36-2.229-19.301-5.49-5.129-2.59-9.02-6.93-12.93-11.02C9.42 108.162 4.64 102.542 0 96.821v-3.25c.96-9.31 1.18-18.68 1.98-28.009 6.99 5.06 13.87 10.27 20.831 15.36 1.8-1.48 3.609-2.95 5.43-4.4-6.191-7.78-12.381-15.89-15.141-25.61-4.3-12.98-2.07-28.391 6.97-38.881C25.18 6.372 31.819 1.732 39.33.002M17.05 28.111c-3.17 10.961-.15 22.711 5.47 32.33C27.55 68.552 34.05 75.582 40 83.002c3.95 4.52 7.21 9.601 11.36 13.96 3.09-3.01 6.06-6.141 9.13-9.17-7.6-10.09-15.801-19.689-23.95-29.33-4.39-5.44-8.93-11.33-9.91-18.46-.569-5.09.771-10.17 2.36-14.96 2-5.13 7.17-7.681 11.49-10.54 2.189-2.74 4.06-5.73 5.81-8.779-2.68-.341-5.46-1.361-8.13-.391-10.091 3.66-18.66 12.15-21.11 22.779M80.63 5.742c1.79 3.02 3.72 5.99 5.899 8.75 4.271 2.869 9.41 5.38 11.451 10.46 1.979 5.89 3.629 12.42 1.619 18.54-2.22 7.15-7.47 12.73-11.99 18.5 2.431 3.56 5.121 6.94 8.33 9.829 4.781-5.779 9.65-11.71 12.16-18.88 4.051-9.51 4.25-20.6.061-30.1-3.471-8-10.591-13.99-18.551-17.26-2.899-1.309-6.029-.279-8.979.161M47.22 63.643c3.13 3.439 5.94 7.159 9.11 10.56 2.989-3.21 5.91-6.5 9.04-9.57 10.8 13.439 24.86 23.83 35.69 37.221-3.711 3.869-8.291 8.1-14.061 7.699-3.08-1.81-5.54-4.53-8.689-6.23-3.4 3.561-6.75 7.161-10.141 10.721 3.061 3.59 5.93 7.359 9.12 10.84 11.2.62 23.63-2.55 31.33-11.27 5.699-5.98 11.64-11.91 16.36-18.7-.181-6.729-.73-13.46-1.15-20.18-5.641 4.01-11.109 8.239-16.721 12.279C98.92 80.992 90.52 74.782 84.7 66.302c-6.729-9.579-13.03-19.46-19.5-29.21-5.97 8.87-11.91 17.76-17.98 26.551m11.92 14.559c1.511 1.98 3.03 3.96 4.61 5.9a412 412 0 0 1 5.96-7.181 1216 1216 0 0 0-4.57-5.05 855 855 0 0 1-6 6.331m-52.97-3.47c-.46 5.76-.66 11.53-1.109 17.29-.051 1.45-.471 3.11.739 4.23 5.04 6.23 10.431 12.181 16.08 17.86 7.689 8.369 19.86 11.35 30.82 10.78 5.18-5.9 9.829-12.261 15.36-17.841 5.299-5.439 10.42-11.06 15.1-17.05-3.53-2.99-6.721-6.34-10.061-9.54-8.8 10.851-18.38 21.32-30.1 29.08-5.88.47-10.34-4.021-14.23-7.79 3.32-4.05 7.061-7.72 10.67-11.5a1519 1519 0 0 0-8.239-9.95c-2.74 2.28-5.49 4.53-8.3 6.72-5.61-4.049-11.089-8.279-16.73-12.289m36.23 19.38c-2.17 2.359-4.511 4.55-6.601 6.99.63 1.979 3.3 2.859 5.181 3.46 2.58-.82 4.449-3.03 6.64-4.551-1.74-1.959-3.5-3.919-5.22-5.899m39.289 5.41c2.461 1.63 4.521 4.091 7.34 5.05 2.061-.43 3.711-1.81 5.431-2.909-2.44-2.75-4.979-5.42-7.63-7.971-2.051 1.621-3.5 3.83-5.141 5.83"/><path d="M17.05 28.111C19.5 17.482 28.069 8.992 38.16 5.332c2.67-.971 5.45.05 8.13.391-1.75 3.049-3.62 6.039-5.81 8.779-4.32 2.859-9.49 5.41-11.49 10.54-1.59 4.79-2.93 9.87-2.36 14.96.98 7.13 5.521 13.02 9.91 18.46 8.149 9.641 16.35 19.24 23.95 29.33-3.07 3.029-6.04 6.16-9.13 9.17-4.15-4.359-7.41-9.44-11.36-13.96-5.95-7.42-12.45-14.45-17.48-22.561-5.62-9.619-8.64-21.369-5.47-32.33M80.63 5.742c2.95-.44 6.08-1.471 8.979-.16 7.96 3.27 15.08 9.26 18.551 17.26 4.189 9.5 3.99 20.59-.061 30.1-2.51 7.17-7.379 13.101-12.16 18.88-3.209-2.889-5.899-6.27-8.33-9.829 4.521-5.77 9.771-11.35 11.99-18.5 2.01-6.12.36-12.65-1.619-18.54-2.041-5.08-7.181-7.591-11.451-10.46-2.179-2.761-4.109-5.731-5.899-8.751"/><path d="M47.22 63.643c6.07-8.791 12.01-17.681 17.98-26.551 6.47 9.75 12.771 19.631 19.5 29.21 5.819 8.48 14.22 14.69 22.409 20.71 5.611-4.04 11.08-8.27 16.721-12.279.42 6.72.97 13.45 1.15 20.18-4.721 6.79-10.661 12.72-16.36 18.7-7.7 8.72-20.13 11.89-31.33 11.27-3.19-3.48-6.06-7.25-9.12-10.84 3.391-3.56 6.74-7.16 10.141-10.721 3.149 1.7 5.609 4.421 8.689 6.23 5.77.4 10.35-3.83 14.061-7.699C90.23 88.462 76.17 78.071 65.37 64.632c-3.13 3.07-6.051 6.36-9.04 9.57-3.17-3.4-5.98-7.12-9.11-10.559"/><path d="M6.17 74.732c5.641 4.01 11.12 8.239 16.73 12.289 2.81-2.189 5.56-4.439 8.3-6.72 2.76 3.311 5.51 6.62 8.239 9.95-3.609 3.78-7.35 7.45-10.67 11.5 3.891 3.77 8.351 8.26 14.23 7.79 11.72-7.76 21.3-18.229 30.1-29.08 3.34 3.2 6.53 6.55 10.061 9.54-4.68 5.99-9.801 11.61-15.1 17.05-5.531 5.58-10.181 11.94-15.36 17.841-10.96.569-23.131-2.411-30.82-10.78-5.649-5.68-11.04-11.63-16.08-17.86-1.21-1.12-.79-2.78-.739-4.23.449-5.76.649-11.53 1.109-17.29"/></svg>