<svg xmlns="http://www.w3.org/2000/svg" width="120.031" height="120.036"><path d="M12.1 23.187C14.55 12.558 23.12 4.068 33.21.408c2.67-.97 5.45.05 8.13.391-1.75 3.05-3.62 6.04-5.81 8.78-4.32 2.858-9.49 5.41-11.49 10.54-1.59 4.79-2.93 9.87-2.36 14.96.98 7.13 5.522 13.02 9.91 18.46 8.15 9.64 16.35 19.24 23.95 29.33-3.07 3.028-6.04 6.16-9.13 9.17-4.15-4.36-7.41-9.44-11.36-13.96-5.95-7.42-12.45-14.45-17.48-22.562-5.62-9.619-8.64-21.369-5.47-32.33M75.68.818c2.95-.44 6.08-1.47 8.98-.16 7.96 3.27 15.08 9.26 18.55 17.26 4.19 9.5 3.99 20.59-.06 30.1-2.51 7.17-7.38 13.101-12.16 18.88-3.21-2.889-5.9-6.27-8.33-9.829 4.52-5.77 9.77-11.35 11.99-18.5 2.01-6.12.36-12.65-1.62-18.54-2.04-5.08-7.18-7.59-11.45-10.46-2.18-2.76-4.11-5.73-5.9-8.75"/><path d="M42.27 58.72c6.07-8.792 12.01-17.682 17.98-26.552 6.47 9.75 12.772 19.631 19.5 29.21 5.82 8.48 14.22 14.69 22.41 20.71 5.61-4.04 11.08-8.27 16.72-12.279.42 6.72.97 13.45 1.15 20.18-4.72 6.79-10.66 12.72-16.36 18.7-7.7 8.72-20.13 11.89-31.33 11.27-3.19-3.48-6.06-7.25-9.12-10.84 3.392-3.56 6.74-7.16 10.142-10.72 3.149 1.7 5.609 4.42 8.689 6.23 5.77.4 10.35-3.83 14.06-7.7-10.83-13.39-24.89-23.782-35.69-37.22-3.13 3.07-6.051 6.36-9.04 9.57-3.17-3.4-5.98-7.12-9.11-10.56"/><path d="M1.22 69.808c5.642 4.01 11.12 8.24 16.73 12.29 2.81-2.19 5.56-4.44 8.3-6.72 2.76 3.31 5.51 6.62 8.24 9.95-3.61 3.78-7.35 7.45-10.67 11.5 3.89 3.77 8.35 8.26 14.23 7.79 11.72-7.76 21.3-18.23 30.1-29.08 3.34 3.2 6.53 6.55 10.06 9.54-4.68 5.99-9.8 11.61-15.1 17.05-5.53 5.58-10.18 11.94-15.36 17.84-10.96.57-23.13-2.41-30.82-10.78-5.648-5.68-11.04-11.63-16.08-17.86-1.21-1.12-.79-2.78-.738-4.23.449-5.76.649-11.53 1.109-17.29"/></svg>