<svg xmlns="http://www.w3.org/2000/svg" xmlns:xlink="http://www.w3.org/1999/xlink" width="95.809" height="41.249"><linearGradient id="a"><stop offset="0" style="stop-color:#d2a300"/><stop offset=".43" style="stop-color:#b5271c"/><stop offset="1" style="stop-color:#a21a12"/></linearGradient><linearGradient xlink:href="#a" id="b" x1="27.13" x2="29.194" y1="47.025" y2="24.334" gradientTransform="matrix(1.02675 0 0 1.02675 -1.256 31.064)" gradientUnits="userSpaceOnUse" spreadMethod="reflect"/><path d="M20.135 80.39 4.221 85.802c-1.997.68-3.073-2.512-1.62-3.176l16.17-7.636-9.915-7.403c-1.29-.963.529-3.2 1.945-2.496l10.177 5.056-2.269-9.496c-.404-1.693 2.637-2.324 3.371-.584l3.663 8.687 5.315-10.437c1.061-2.083 3.736-.494 3.144 1.232l-2.95 8.589s10.866-5.672 22.494-5.672c17.91 0 39.24 10.74 43.912 29.89.631 2.59-2.582 2.685-3.3.933-8.866-21.629-27.884-25.443-40.19-25.443-6.519 0-14.672 3.522-14.672 3.522l7.833-.605c1.541-.119 2.819 2.61.453 3.144L32.128 77.44l10.08 7.811c1.9 1.472.528 4.034-1.686 2.771l-10.598-6.044 3.079 12.024c.508 1.986-2.239 2.566-2.982.81L24.997 82.95l-7.098 14.585c-.937 1.924-3.81 1.03-2.982-1.458z" style="stroke-width:1px" transform="translate(-1.93 -57.327)"/><path d="M21.756 78.899 4.578 84.603c-1.43.475-1.62-.992-.746-1.394l17.081-7.843L9.99 67.23c-.936-.697-.106-1.32.746-.907l11.7 5.672-2.722-10.988c-.292-1.18 1.061-1.118 1.426-.291l4.635 10.501 6.019-11.88c.527-1.04 1.764-.807 1.308.528l-3.6 10.542s9.74-6.917 25.054-6.872c13.16.04 35.435 7.256 42.46 28.88.365 1.123-1.102 1.724-1.621.42-6.578-16.519-21.059-25.872-40.709-25.734-11.53.08-21.45 5.927-21.45 5.927l13.636-1.352c1.723-.171 1.276 1.228.321 1.444l-17.051 3.85 11.688 9.053c.802.62.168 1.73-.637 1.268l-13.297-7.617 4.423 14.256c.286.922-1.023 1.64-1.604.275l-5.798-13.637-7.678 16.318c-.458.974-1.835.69-1.398-.596z" style="fill:url(#b);stroke-width:1px" transform="translate(-1.93 -57.327)"/></svg>