<svg xmlns="http://www.w3.org/2000/svg" width="600" height="507.636"><path d="M355.65 253.818C506.252 202.014 600 0 600 0H0s93.748 202.014 244.401 253.818C93.748 305.622 0 507.636 0 507.636h600s-93.748-202.014-244.35-253.818" style="fill:#fff"/><path d="M317.272 274.098v199.73h222.294s-79.61-156.162-222.294-199.73M60.485 473.828h222.243v-199.73c-142.671 43.568-222.243 199.73-222.243 199.73m479.081-440.02H317.272v199.73c142.684-43.517 222.294-199.73 222.294-199.73m-479.081 0h222.243v199.73C140.057 190.02 60.485 33.808 60.485 33.808"/></svg>