<svg xmlns="http://www.w3.org/2000/svg" xmlns:xlink="http://www.w3.org/1999/xlink" width="600" height="507.636"><linearGradient id="a" x1="0" x2="1" y1="0" y2="0" gradientTransform="rotate(135 289.7 216.446)scale(-51.20996 51.20996)" gradientUnits="userSpaceOnUse" spreadMethod="pad"><stop offset="0" style="stop-color:#536e78"/><stop offset=".25" style="stop-color:#d9eaf3"/><stop offset=".4" style="stop-color:#99aebc"/><stop offset=".5" style="stop-color:#536e78"/><stop offset=".7" style="stop-color:#99aebc"/><stop offset=".75" style="stop-color:#d9eaf3"/><stop offset="1" style="stop-color:#536e78"/></linearGradient><linearGradient xlink:href="#a" id="b" x1="0" x2="1" y1="0" y2="0" gradientTransform="rotate(45 6.06 96.805)scale(649.90003)" gradientUnits="userSpaceOnUse" spreadMethod="pad"/><path d="M355.65 253.818C506.252 202.014 600 0 600 0H0s93.748 202.014 244.401 253.818C93.748 305.622 0 507.636 0 507.636h600s-93.748-202.014-244.35-253.818"/><path d="M317.272 33.809v199.729c142.684-43.517 222.294-199.73 222.294-199.73Zm-256.838 0s79.623 156.212 222.294 199.729V33.808Zm256.838 440.069h222.294s-79.61-156.212-222.294-199.78zm-256.838 0h222.294v-199.78c-142.671 43.568-222.294 199.78-222.294 199.78" style="fill:url(#b)"/></svg>