<?xml version="1.0" encoding="UTF-8" standalone="no"?>
<svg
   version="1.1"
   width="557.97821"
   height="289.73499"
   id="svg1"
   xmlns="http://www.w3.org/2000/svg"
   xmlns:svg="http://www.w3.org/2000/svg">
  <defs
     id="defs1" />
  <path
     d="m 423.53455,210.89455 c 0,-10.3091 -8.4,-18.7091 -18.70909,-18.7091 -10.30909,0 -18.66546,8.4 -18.66546,18.7091 0,10.30909 8.35637,18.66545 18.66546,18.66545 10.30909,0 18.70909,-8.35636 18.70909,-18.66545 m -88.25455,0 c 0,-10.3091 -8.35636,-18.7091 -18.66545,-18.7091 -10.30909,0 -18.66546,8.4 -18.66546,18.7091 0,10.30909 8.35637,18.66545 18.66546,18.66545 10.30909,0 18.66545,-8.35636 18.66545,-18.66545 M 557.89091,145.99636 H 475.56 c -21,0 -38.00727,16.99637 -38.00727,38.00728 0,21.01091 17.00727,38.01818 38.00727,38.01818 l 13.42909,0.12043 c 0,0 17.17091,5.36728 17.17091,33.57819 0,28.16727 -17.00727,34.01454 -17.00727,34.01454 H 217.75637 c 0,0 -17.00728,-5.84727 -17.00728,-34.01454 0,-28.21091 17.12728,-33.57819 17.12728,-33.57819 0,0 26.84727,-0.12043 26.89091,-0.12043 21.77454,0 39.41454,-17.69455 39.41454,-39.42546 0,-21.77454 -17.64,-39.41454 -39.41454,-39.41454 -103.37455,0 -105.38182,-30.55637 -105.38182,-30.55637 0,0 -119.356369,-6.64363 -139.38546,-95.49818 H 175.95273 L 189.41455,0 h 368.56364 l -0.0873,145.99636 z"
     id="path1" />
</svg>
