<svg xmlns="http://www.w3.org/2000/svg" width="469.145" height="231.068" viewBox="0 0 124.128 61.136"><path d="M30.568 0C13.686 0 0 13.686 0 30.568s13.686 30.568 30.568 30.568c11.504-.23 21.588-8.962 31.496-17.668 9.908 8.706 19.992 17.437 31.495 17.668 16.883 0 30.569-13.685 30.569-30.568C124.128 13.686 110.442 0 93.559 0 82.056.23 71.972 8.963 62.064 17.669 52.156 8.963 42.072.23 30.568 0" style="fill:#fff;stroke-width:.26458"/><path d="M68.272 45.63c-1.105-.938-1.89-1.516-2.63-2.49-.277-.366-.366-.993-.11-1.375.955-1.415 1.795-3.087 2.965-4.242 1.793-1.77 3.377-3.877 4.353-5.642-.067 2.01.25 2.634 1.353 3.9 1.052-.72 1.785-1.927 2.32-3.102.28-.614.5-1.227.633-1.872.15-.732.276-1.733.182-2.235-.105-.558-.461-.573-.967-.615.01-.108.02-.17.04-.236 1.568-.738 2.199-1.103 3.837-2.065.246 1.056.249 1.816.679 2.602.542.991 1.224 2.143 2.3 2.49 1.04.333 2.273-.097 3.21-.66a4.44 4.44 0 0 0 1.83-2.214c.23-.622.275-1.375.025-1.988-.242-.59-.856-.957-1.358-1.35-.728-.572-1.47-1.235-2.372-1.444-.847-.197-1.666.025-2.597.236.346-.92.594-1.682.715-2.56.128-.933.146-1.143.004-2.827.81-.14 1.678-.482 2.436-.9 1.987-1.094 3.576-2.327 5.186-3.61 1.056-.842 2.288-1.278 3.504-1.758 1.383-.546 2.81-1.035 4.28-1.26 2.07-.318 4.206-.392 6.282-.115 1.64.22 3.259.704 4.765 1.39a18.7 18.7 0 0 1 4.367 2.791c1.728 1.473 3.37 3.135 4.53 5.085 1.052 1.77 1.707 3.79 2.093 5.81.384 2.01.355 4.095.195 6.135-.144 1.818-.453 3.016-1.028 5.374-.39-2.992-.67-3.655-1.306-5.39-.366-.998-.796-1.997-1.43-2.848-.92-1.233-2.09-2.293-3.356-3.164-1.598-1.097-3.37-2.007-5.24-2.516-1.692-.46-3.498-.63-5.24-.44-1.165.127-2.308.52-3.356 1.045-1.407.703-2.782 1.586-3.823 2.764a10.7 10.7 0 0 0-2.23 4.044c-.44 1.503-.576 3.144-.315 4.69.25 1.478.838 2.957 1.76 4.14.627.802 1.534 1.368 2.435 1.842.774.407 1.632.652 2.49.825.635.128 1.147.12 1.938.152-1.273.615-1.69.785-2.571 1.086-1.284.44-2.591.851-3.934 1.045-1.49.216-3.015.284-4.51.124-1.723-.184-3.457-.553-5.048-1.238-1.222-.525-2.3-1.35-3.356-2.159-.608-.465-.822-.667-1.706-1.54.31 1.944.584 2.232 1.156 3.218.538.928 1.292 1.73 2.09 2.448.616.553.917.855 2.05 1.403-2.245.2-2.755.154-4.402.082-.668-.029-1.448.886-2.036 1.487-.404.414-.78.887-.992 1.425-.382.967-.42 1.113-.451 3.085-1.48-.92-3.222-1.8-3.3-1.98-.146-.33-.121-.797-.13-1.198-.01-.51.06-1.02.099-1.53.025-.334.083-.702.088-1.002.004-.276-.064-.683-.312-.707-.4-.038-.557.284-.667.552-.28.68-.421 1.03-.63 1.605-.12.327-.218.604-.323.955-1.12-.872-2.955-2.244-2.993-2.472-.077-.465.257-1.265.46-1.876.155-.465.43-1.03.575-1.353.134-.304.153-.684-.1-.75-.33-.09-.647.276-.874.531-.634.805-1.09 1.622-1.532 2.361zM55.859 15.507c1.105.938 1.89 1.515 2.63 2.49.278.365.366.993.11 1.374-.955 1.415-1.794 3.088-2.964 4.242-1.794 1.77-3.377 3.877-4.353 5.642.067-2.008-.25-2.633-1.354-3.898-1.052.718-1.784 1.926-2.32 3.1-.28.615-.5 1.227-.633 1.872-.15.732-.276 1.734-.181 2.236.104.558.46.572.967.614-.012.11-.02.17-.04.236-1.568.738-2.2 1.104-3.837 2.065-.246-1.055-.25-1.815-.68-2.602-.541-.99-1.224-2.143-2.3-2.488-1.04-.335-2.273.096-3.21.658a4.44 4.44 0 0 0-1.831 2.215c-.228.622-.274 1.374-.023 1.988.242.59.855.957 1.358 1.35.728.572 1.47 1.235 2.37 1.444.848.196 1.667-.026 2.599-.237-.346.92-.594 1.682-.715 2.56-.128.934-.147 1.143-.004 2.828-.81.14-1.678.482-2.436.9-1.988 1.093-3.577 2.326-5.186 3.61-1.057.841-2.288 1.278-3.504 1.757-1.383.546-2.81 1.035-4.28 1.26-2.07.32-4.206.393-6.282.116a17 17 0 0 1-4.766-1.39 18.7 18.7 0 0 1-4.367-2.79c-1.727-1.474-3.37-3.136-4.53-5.087-1.052-1.77-1.706-3.788-2.092-5.81-.384-2.01-.355-4.095-.195-6.134.143-1.818.452-3.017 1.027-5.374.39 2.991.67 3.655 1.307 5.39.366.998.796 1.996 1.43 2.848.919 1.233 2.089 2.293 3.356 3.163 1.597 1.097 3.37 2.008 5.24 2.517 1.69.46 3.498.63 5.24.44 1.165-.128 2.308-.52 3.356-1.045 1.406-.704 2.78-1.587 3.823-2.765a10.7 10.7 0 0 0 2.228-4.043c.44-1.504.577-3.145.316-4.69-.25-1.478-.838-2.957-1.76-4.14-.626-.802-1.533-1.369-2.434-1.843-.774-.406-1.633-.652-2.49-.825-.635-.128-1.147-.12-1.94-.15 1.275-.617 1.693-.786 2.573-1.088 1.284-.439 2.59-.85 3.933-1.045 1.49-.215 3.016-.284 4.512-.124 1.722.185 3.456.554 5.047 1.238 1.222.526 2.3 1.351 3.356 2.16.608.465.822.667 1.705 1.54-.31-1.945-.583-2.233-1.155-3.218-.54-.929-1.293-1.73-2.09-2.449-.616-.553-.917-.855-2.05-1.402 2.244-.2 2.755-.154 4.4-.083.67.03 1.45-.886 2.037-1.486.405-.414.78-.887.993-1.426.382-.966.42-1.112.45-3.084 1.48.92 3.222 1.8 3.302 1.98.145.33.12.796.129 1.198.01.51-.06 1.02-.1 1.53-.025.334-.082.702-.087 1.002-.004.275.064.683.312.706.4.038.556-.284.666-.55.28-.68.422-1.032.63-1.607.12-.327.22-.604.324-.955 1.12.872 2.954 2.245 2.992 2.472.078.466-.256 1.265-.46 1.877-.154.465-.43 1.03-.574 1.353-.134.303-.153.683.098.75.33.09.648-.277.876-.53.634-.806 1.089-1.623 1.532-2.363z"/><path d="M76.92 23.632c.64-.649 1.19-1.306 1.699-1.896.553-.64.726-1.277.898-1.98.136-.559.118-1.147.09-1.72-.034-.678-.306-2.013-.306-2.013s.964-.383 1.44-.59c.877-.385 1.766-.75 2.606-1.213a18 18 0 0 0 1.985-1.273c.642-.47 1.192-1.12 1.834-1.53 1.416-.905 2.732-1.657 4.182-2.32 1.032-.47 2.11-.838 3.198-1.166 1.238-.374 2.492-.73 3.773-.91a21 21 0 0 1 3.91-.158c1.179.055 2.364.188 3.508.477 1.3.33 3.766 1.417 3.766 1.417s-1.812-1.472-2.82-2.054a26 26 0 0 0-5.122-2.274c-2.01-.636-4.098-1.147-6.204-1.227-2.898-.11-5.858.21-8.637 1.038-2.606.776-4.977 2.223-7.313 3.615-2.466 1.47-4.795 3.172-7.032 4.97L47.21 37.506c-.638.65-1.188 1.307-1.697 1.896-.553.64-.727 1.277-.898 1.982-.136.557-.118 1.146-.09 1.72.034.677.306 2.011.306 2.011s-.964.383-1.44.591c-.877.384-1.766.75-2.606 1.213-.69.378-1.351.808-1.985 1.272-.642.471-1.193 1.121-1.834 1.531-1.416.905-2.732 1.657-4.183 2.32-1.032.47-2.11.838-3.197 1.165-1.24.374-2.492.731-3.773.91-1.292.18-2.607.22-3.91.16-1.18-.057-2.364-.189-3.508-.478-1.3-.33-3.766-1.417-3.766-1.417s1.812 1.472 2.818 2.053a26 26 0 0 0 5.124 2.275c2.01.636 4.097 1.146 6.204 1.226 2.897.11 5.857-.21 8.636-1.037 2.607-.776 4.978-2.224 7.314-3.616 2.466-1.469 4.795-3.17 7.032-4.97zm6.34 24.947s.92 2.484 2.053 3.575c1.122 1.082 2.372 2.362 3.83 3.13a15.2 15.2 0 0 0 5.73 1.677c2.312.195 4.668-.22 6.91-.804 1.87-.487 3.674-1.272 5.356-2.224a24 24 0 0 0 4.72-3.49c1.18-1.122 2.249-2.389 3.097-3.78a17.4 17.4 0 0 0 1.83-4.224 12.7 12.7 0 0 0 .496-3.25c.033-1.606-.115-3.238-.53-4.79a14 14 0 0 0-1.745-3.985 13.5 13.5 0 0 0-2.805-3.096c-.75-.61-1.635-1.036-2.497-1.47-.56-.283-1.728-.737-1.728-.737s.977 2.672 1.146 4.071c.204 1.688.168 3.432-.171 5.097-.443 2.174-1.19 4.348-2.395 6.21-.995 1.536-2.433 2.76-3.866 3.9-1.07.85-2.26 1.556-3.49 2.155-1.54.75-3.156 1.381-4.823 1.78-1.742.414-3.546.567-5.337.615-1.93.05-5.781-.36-5.781-.36M40.87 12.56s-.92-2.484-2.052-3.576c-1.122-1.082-2.372-2.362-3.831-3.13a15.2 15.2 0 0 0-5.73-1.676c-2.312-.196-4.667.22-6.911.803-1.87.487-3.672 1.272-5.354 2.224a24 24 0 0 0-4.721 3.49c-1.18 1.122-2.248 2.39-3.096 3.78a17.4 17.4 0 0 0-1.83 4.225 12.8 12.8 0 0 0-.496 3.25c-.034 1.606.115 3.238.53 4.79.375 1.4.957 2.767 1.744 3.985a13.5 13.5 0 0 0 2.806 3.096c.749.61 1.635 1.036 2.497 1.47.559.283 1.728.736 1.728.736s-.977-2.67-1.146-4.07c-.205-1.688-.168-3.432.17-5.098.443-2.174 1.19-4.347 2.395-6.21.995-1.536 2.433-2.76 3.866-3.9 1.07-.85 2.26-1.556 3.49-2.154 1.54-.75 3.156-1.382 4.823-1.78 1.742-.415 3.547-.568 5.337-.615 1.93-.05 5.782.36 5.782.36"/></svg>