<svg xmlns="http://www.w3.org/2000/svg" width="441.205" height="207.019" viewBox="0 0 116.736 54.773"><path d="M64.575 42.448c-1.105-.938-1.89-1.515-2.63-2.49-.277-.365-.366-.993-.11-1.374.955-1.416 1.794-3.088 2.964-4.242 1.794-1.77 3.377-3.877 4.354-5.642-.068 2.008.249 2.633 1.353 3.898 1.052-.718 1.784-1.926 2.32-3.1.28-.615.5-1.227.633-1.872.15-.732.276-1.734.182-2.236-.105-.558-.461-.572-.968-.615.012-.108.02-.17.04-.236 1.568-.737 2.2-1.103 3.838-2.064.245 1.055.248 1.815.678 2.6.543.992 1.225 2.144 2.3 2.49 1.04.335 2.274-.096 3.21-.66a4.44 4.44 0 0 0 1.832-2.213c.228-.622.274-1.374.023-1.988-.242-.59-.855-.957-1.357-1.35-.73-.572-1.47-1.235-2.372-1.444-.847-.196-1.666.025-2.597.237.345-.92.593-1.683.714-2.56.129-.934.147-1.144.004-2.828.81-.14 1.678-.482 2.437-.9 1.987-1.093 3.576-2.327 5.185-3.61 1.057-.841 2.289-1.278 3.504-1.757 1.384-.546 2.81-1.035 4.28-1.26 2.07-.32 4.207-.393 6.283-.116 1.64.22 3.259.705 4.765 1.389a18.7 18.7 0 0 1 4.367 2.792c1.727 1.473 3.369 3.135 4.53 5.086 1.052 1.77 1.706 3.788 2.092 5.81.384 2.01.356 4.095.195 6.134-.143 1.818-.452 3.017-1.027 5.374-.39-2.992-.67-3.655-1.307-5.391-.365-.997-.796-1.995-1.43-2.847-.918-1.233-2.09-2.293-3.356-3.163-1.597-1.097-3.37-2.008-5.24-2.517-1.691-.46-3.497-.63-5.24-.44-1.164.127-2.308.52-3.356 1.045-1.406.704-2.781 1.587-3.823 2.765a10.7 10.7 0 0 0-2.228 4.043c-.441 1.503-.577 3.145-.316 4.69.25 1.478.838 2.957 1.76 4.14.626.802 1.534 1.369 2.434 1.842.774.407 1.633.653 2.49.826.635.128 1.147.12 1.939.15-1.274.617-1.691.786-2.572 1.087-1.283.44-2.59.852-3.933 1.046-1.49.215-3.016.283-4.511.124-1.723-.185-3.456-.554-5.048-1.238-1.222-.526-2.3-1.351-3.356-2.16-.608-.465-.821-.667-1.705-1.54.31 1.944.583 2.232 1.155 3.218.539.929 1.293 1.73 2.09 2.448.616.554.917.855 2.05 1.403-2.244.2-2.755.154-4.401.083-.668-.03-1.45.885-2.036 1.486-.405.414-.78.887-.993 1.426-.382.966-.42 1.112-.45 3.084-1.48-.92-3.222-1.8-3.301-1.98-.145-.33-.12-.796-.13-1.198-.01-.51.06-1.02.1-1.53.025-.334.083-.702.087-1.002.004-.275-.063-.683-.312-.706-.4-.038-.556.284-.666.55-.28.68-.422 1.032-.63 1.607-.12.327-.22.604-.323.955-1.12-.873-2.955-2.245-2.993-2.472-.078-.466.256-1.266.46-1.877.154-.465.43-1.03.574-1.353.135-.304.153-.683-.098-.75-.33-.09-.648.276-.876.53-.634.806-1.09 1.623-1.531 2.363M52.16 12.326c1.105.938 1.89 1.516 2.629 2.49.278.366.367.993.11 1.375-.954 1.415-1.794 3.087-2.963 4.242-1.794 1.77-3.378 3.876-4.354 5.642.068-2.01-.25-2.634-1.353-3.9-1.052.72-1.785 1.927-2.32 3.102-.28.614-.5 1.227-.633 1.87-.151.734-.276 1.735-.182 2.237.105.558.46.573.967.615-.011.108-.02.17-.04.236-1.568.737-2.198 1.103-3.837 2.065-.245-1.056-.25-1.816-.68-2.602-.541-.991-1.223-2.143-2.3-2.49-1.04-.333-2.272.097-3.21.66a4.44 4.44 0 0 0-1.83 2.214c-.228.622-.274 1.375-.023 1.988.24.59.855.957 1.357 1.35.729.572 1.47 1.235 2.372 1.444.847.196 1.666-.025 2.597-.237-.346.92-.594 1.683-.714 2.56-.13.934-.147 1.144-.004 2.828-.81.14-1.68.482-2.437.9-1.987 1.094-3.576 2.327-5.186 3.61-1.056.842-2.288 1.278-3.503 1.758-1.384.546-2.81 1.035-4.28 1.26-2.07.318-4.207.392-6.283.115a17 17 0 0 1-4.765-1.39 18.7 18.7 0 0 1-4.367-2.791c-1.727-1.473-3.37-3.135-4.53-5.086C1.347 36.62.693 34.603.306 32.58c-.383-2.01-.355-4.094-.194-6.134.143-1.818.452-3.016 1.027-5.374.39 2.992.67 3.655 1.306 5.39.366.998.796 1.997 1.43 2.848.92 1.233 2.09 2.293 3.357 3.163 1.597 1.098 3.37 2.008 5.24 2.517 1.69.46 3.497.63 5.24.44 1.164-.127 2.308-.52 3.355-1.045 1.407-.704 2.782-1.586 3.824-2.764a10.7 10.7 0 0 0 2.228-4.044c.44-1.503.577-3.145.316-4.69-.25-1.478-.838-2.957-1.76-4.14-.626-.802-1.534-1.37-2.435-1.842-.773-.407-1.632-.653-2.49-.825-.635-.13-1.147-.12-1.94-.152 1.276-.615 1.693-.785 2.574-1.086 1.283-.44 2.59-.851 3.933-1.045 1.489-.216 3.015-.284 4.51-.124 1.724.184 3.457.553 5.049 1.238 1.22.525 2.299 1.35 3.355 2.159.609.465.822.667 1.706 1.54-.31-1.944-.584-2.232-1.156-3.218-.538-.928-1.292-1.73-2.09-2.448-.616-.553-.917-.855-2.05-1.403 2.245-.2 2.755-.154 4.402-.082.668.029 1.448-.886 2.036-1.487.405-.414.78-.887.992-1.425.383-.967.42-1.113.45-3.085 1.48.92 3.223 1.8 3.302 1.98.145.33.12.797.13 1.198.01.51-.06 1.02-.1 1.53-.025.334-.083.702-.088 1.002-.004.276.064.683.312.707.4.038.557-.284.667-.552.279-.68.422-1.03.63-1.605.12-.327.219-.604.323-.955 1.12.872 2.955 2.244 2.993 2.47.078.467-.257 1.267-.46 1.878-.154.465-.431 1.03-.574 1.353-.135.304-.153.683.098.75.33.09.648-.276.876-.53.633-.806 1.088-1.623 1.53-2.363"/><path d="M73.224 20.45c.638-.65 1.189-1.306 1.697-1.895.553-.641.727-1.277.898-1.982.136-.557.118-1.146.09-1.72-.034-.677-.306-2.011-.306-2.011s.965-.383 1.44-.591c.878-.384 1.767-.75 2.606-1.213a18 18 0 0 0 1.985-1.273c.642-.47 1.193-1.12 1.834-1.53 1.416-.905 2.732-1.657 4.183-2.32 1.032-.47 2.11-.838 3.197-1.166 1.239-.374 2.492-.73 3.774-.91a21 21 0 0 1 3.91-.158c1.178.056 2.363.188 3.508.477 1.3.329 3.765 1.417 3.765 1.417s-1.812-1.472-2.818-2.053a26 26 0 0 0-5.124-2.275C95.853.61 93.766.1 91.659.02c-2.897-.11-5.857.21-8.636 1.037-2.607.776-4.977 2.224-7.314 3.616-2.466 1.469-4.795 3.17-7.031 4.97l-25.165 24.68c-.638.649-1.19 1.306-1.697 1.895-.553.64-.727 1.277-.9 1.982-.134.558-.116 1.146-.09 1.72.035.677.308 2.012.308 2.012s-.965.383-1.44.59c-.878.385-1.767.75-2.607 1.213a18 18 0 0 0-1.985 1.273c-.642.47-1.192 1.12-1.833 1.53-1.417.905-2.733 1.657-4.183 2.319-1.032.47-2.111.839-3.197 1.167-1.24.374-2.492.73-3.774.91-1.292.18-2.607.22-3.91.158-1.18-.055-2.364-.188-3.508-.477-1.3-.33-3.766-1.417-3.766-1.417s1.812 1.472 2.819 2.053a26 26 0 0 0 5.124 2.275c2.01.636 4.097 1.147 6.203 1.226 2.898.11 5.858-.21 8.637-1.037 2.606-.776 4.977-2.224 7.314-3.615 2.466-1.47 4.794-3.172 7.03-4.97zm6.338 24.948s.92 2.483 2.053 3.575c1.122 1.082 2.372 2.36 3.832 3.13a15.2 15.2 0 0 0 5.73 1.676c2.31.196 4.666-.22 6.91-.804 1.87-.487 3.673-1.271 5.354-2.223a24 24 0 0 0 4.72-3.49c1.18-1.122 2.249-2.39 3.097-3.78a17.4 17.4 0 0 0 1.83-4.225c.304-1.053.474-2.154.497-3.25.033-1.606-.115-3.238-.53-4.79a14 14 0 0 0-1.745-3.985 13.5 13.5 0 0 0-2.806-3.096c-.75-.61-1.634-1.036-2.497-1.47-.56-.283-1.728-.736-1.728-.736s.977 2.67 1.146 4.07c.205 1.688.169 3.432-.17 5.098-.443 2.174-1.19 4.347-2.395 6.21-.995 1.536-2.433 2.76-3.866 3.9-1.07.85-2.26 1.556-3.49 2.154-1.54.75-3.156 1.382-4.823 1.78-1.742.415-3.547.568-5.337.615-1.93.05-5.782-.36-5.782-.36M37.174 9.376s-.92-2.483-2.052-3.574c-1.123-1.082-2.373-2.362-3.832-3.13A15.2 15.2 0 0 0 25.56.994c-2.31-.196-4.665.22-6.91.804-1.87.487-3.672 1.272-5.354 2.224a24 24 0 0 0-4.72 3.489c-1.18 1.123-2.25 2.39-3.097 3.78a17.4 17.4 0 0 0-1.83 4.225 12.8 12.8 0 0 0-.496 3.25c-.033 1.606.115 3.238.53 4.79a14 14 0 0 0 1.745 3.985 13.5 13.5 0 0 0 2.805 3.096c.75.61 1.635 1.036 2.498 1.47.558.283 1.727.737 1.727.737s-.976-2.672-1.146-4.071c-.204-1.688-.168-3.432.17-5.098.444-2.173 1.19-4.347 2.396-6.21.995-1.535 2.433-2.76 3.866-3.9 1.07-.85 2.26-1.555 3.49-2.154 1.54-.75 3.156-1.381 4.823-1.78 1.742-.414 3.547-.567 5.337-.615 1.93-.05 5.78.36 5.78.36"/></svg>