<?xml version="1.0" encoding="UTF-8" standalone="no"?>
<!DOCTYPE svg PUBLIC "-//W3C//DTD SVG 1.1//EN" "http://www.w3.org/Graphics/SVG/1.1/DTD/svg11.dtd">
<svg width="100%" height="100%" viewBox="0 0 468 513" version="1.1" xmlns="http://www.w3.org/2000/svg" xmlns:xlink="http://www.w3.org/1999/xlink" xml:space="preserve" xmlns:serif="http://www.serif.com/" style="fill-rule:evenodd;clip-rule:evenodd;stroke-linejoin:round;stroke-miterlimit:2;">
    <path d="M155.354,0C78.14,21.945 29.941,77.436 8.941,111.686C-2.559,170.186 -3.309,229.936 8.691,300.936C67.191,335.936 77.191,408.436 70.441,445.436C105.857,430.121 142.577,395.769 164.691,345.436C142.245,348.549 127.105,332.6 134.941,305.686C137.915,295.474 173.385,263.346 173.385,263.346L197.57,263.346L197.57,372.686C197.57,372.686 193.191,414.186 154.691,446.436C159.441,452.186 173.066,458.936 173.066,458.936C173.066,458.936 158.584,471.827 150.879,475.936C193.941,525.303 273.941,525.303 317.004,475.936C309.299,471.827 294.816,458.936 294.816,458.936C294.816,458.936 308.441,452.186 313.191,446.436C274.691,414.186 270.313,372.686 270.313,372.686L270.313,263.346L294.498,263.346C294.498,263.346 329.968,295.474 332.941,305.686C340.778,332.6 325.638,348.549 303.191,345.436C325.306,395.769 362.025,430.121 397.441,445.436C390.691,408.436 400.691,335.936 459.191,300.936C471.191,229.936 470.441,170.186 458.941,111.686C437.941,77.436 389.743,21.945 312.529,0C315.241,2.873 320.533,17.514 320.533,17.514L334.191,97.061L293.566,139.686L275.941,139.686L233.941,39.16L191.941,139.686L174.316,139.686L133.691,97.061L147.35,17.514C147.35,17.514 152.642,2.873 155.354,0Z" style="fill-rule:nonzero;"/>
    <path d="M132.479,23.188C55.475,57.082 33.589,103.021 23.084,115.574C13.742,163.283 9.576,219.024 21.774,291.742C68.206,325.401 88.103,381.718 86.352,419.273C112.639,401.304 123.296,390.947 142.065,358.518C119.664,341.272 58.811,274.316 87.67,166.613C89.809,158.63 93.4,155.707 91.51,167.4C80.094,238.031 97.854,277.992 119.09,310.418C120.256,304.867 123.555,297.849 129.777,287.547C135.276,278.443 169.143,248.693 169.143,248.693L212.402,248.693L212.402,358.611C212.402,358.611 212.402,411.926 178.733,444.668C183.483,450.418 198.168,452.572 198.168,452.572C198.168,452.572 182.486,474.225 174.781,478.334C203.102,501.764 226.93,500.146 233.941,500.146C240.953,500.146 264.781,501.764 293.102,478.334C285.397,474.225 269.715,452.572 269.715,452.572C269.715,452.572 284.4,450.418 289.15,444.668C255.481,411.926 255.481,358.611 255.481,358.611L255.481,248.693L298.74,248.693C298.74,248.693 332.607,278.443 338.106,287.547C344.328,297.849 347.627,304.867 348.793,310.418C370.029,277.992 387.789,238.031 376.373,167.4C374.483,155.707 378.074,158.63 380.213,166.613C409.072,274.316 348.219,341.272 325.818,358.518C344.587,390.947 355.244,401.304 381.531,419.273C379.78,381.718 399.677,325.401 446.109,291.742C458.307,219.024 454.141,163.283 444.799,115.574C434.294,103.021 412.408,57.082 335.404,23.188L347.77,103.301L300.156,153.941L260.783,153.941L260.783,140.039L233.941,75.885L207.1,140.039L207.1,153.941L167.727,153.941L120.113,103.301L132.479,23.188Z" style="fill:url(#_Linear1);fill-rule:nonzero;"/>
    <defs>
        <linearGradient id="_Linear1" x1="0" y1="0" x2="1" y2="0" gradientUnits="userSpaceOnUse" gradientTransform="matrix(439.436,0,0,439.436,14.2237,202.685)"><stop offset="0" style="stop-color:rgb(97,44,117);stop-opacity:1"/><stop offset="0.2" style="stop-color:rgb(123,81,144);stop-opacity:1"/><stop offset="0.5" style="stop-color:rgb(191,153,195);stop-opacity:1"/><stop offset="0.8" style="stop-color:rgb(123,81,144);stop-opacity:1"/><stop offset="1" style="stop-color:rgb(97,44,117);stop-opacity:1"/></linearGradient>
    </defs>
</svg>
