<svg xmlns="http://www.w3.org/2000/svg" xml:space="preserve" width="150.002" height="106.512"><path fill="#fff" d="m20.941 87.686 1.78-4.564a78 78 0 0 1-1.878-.703c-7-2.729-13.126-7.556-16.804-13.238-4.422-6.835-5.23-14.37-2.339-21.79 6.52-16.729 33.983-34.033 68.657-34.033 1.496 0 3.016.031 4.52.095l.623.026L80.754 0l48.306 18.827-1.78 4.564q1.032.373 1.88.704c7 2.729 13.124 7.555 16.804 13.238 4.422 6.834 5.23 14.369 2.338 21.788-6.52 16.729-33.982 34.033-68.654 34.033-1.496 0-3.018-.031-4.52-.096l-.624-.025-5.253 13.479zm88.664-18.95c11.607-5.281 17.924-12.369 19.4-16.158 1.05-2.688.82-5.064-.695-7.266-1.255-1.82-3.395-3.45-5.725-4.358a62 62 0 0 0-1.88-.699zm-69.21-30.961c-11.61 5.282-17.925 12.37-19.4 16.159-1.049 2.688-.822 5.064.694 7.266 1.255 1.82 3.396 3.451 5.726 4.358q.935.364 1.88.699z"/><path d="M69.435 69.964c-3.808 9.08-11.7 14.442-17.88 12.035-6.33-2.47-8.466-12.152-4.772-21.63 3.308-8.489 10.171-13.936 16.115-13.205l-6.853 17.58zm2.66 1.037c-4.317 10.547-11.15 14.762-20.19 16.313-8.09 1.391-17.026-.769-25.839-3.569l-.795 2.038 42.075 16.399 11.177-28.678zm5.81-35.49c4.316-10.547 11.15-14.762 20.19-16.313 8.09-1.391 17.023.768 25.838 3.569l.795-2.039L82.654 4.329 71.477 33.006Zm23.91 44.013 16.923-43.426a66 66 0 0 1 5.061 1.741c5.021 1.956 11.58 7.599 8.322 15.954-2.222 5.699-10.95 14.178-24.834 19.543l-3.852 9.878-13.99-5.452a82 82 0 0 1-9.764.621l-4.417 11.336c36.478 1.536 63.9-16.365 69.92-31.813 5.396-13.839-5.063-25.949-17.243-30.696-7.502-2.925-17.699-5.475-26.932-4.623 6.732 3.854 8.904 14.227 4.865 24.592-4.332 11.112-13.925 17.401-21.84 14.316a12 12 0 0 1-.712-.304l6.938-17.805-42.075-16.397-16.923 43.425a66 66 0 0 1-5.062-1.741c-5.019-1.956-11.579-7.599-8.322-15.954C20.1 47.02 28.83 38.541 42.713 33.176l3.851-9.878 13.992 5.453a83 83 0 0 1 9.762-.622l4.417-11.336c-36.477-1.535-63.9 16.364-69.92 31.812-5.395 13.84 5.063 25.951 17.243 30.697 7.502 2.925 17.701 5.476 26.932 4.623-6.733-3.854-8.904-14.228-4.864-24.592 4.332-11.112 13.926-17.401 21.842-14.316q.364.14.71.304L59.74 63.124zm-7.859-37.756-6.854 17.58c5.943.729 12.807-4.716 16.115-13.205 3.693-9.478 1.56-19.161-4.77-21.629-6.182-2.408-14.073 2.954-17.883 12.034z"/></svg>