<svg xmlns="http://www.w3.org/2000/svg" width="600" height="596.51"><path d="m600 175.583-46.185 8.962c-.06.06-6.83 1.343-16.777 1.343-18.88 0-45.439-4.49-64.557-25.8-24.457-27.38-61.396-73.52-61.396-73.52h-33.837a68 68 0 0 0-7.576-16.254c-9.678-15.092-21.668-21.37-30.466-26.038-2.163-1.163-4.37-2.326-6.472-3.669-2.506-1.864-5.757-10.662-6.577-17.477C324.531 9.902 313.287 0 300 0c-13.347.06-24.531 10.021-26.097 23.19-.821 6.814-4.072 15.553-6.413 17.358-2.147 1.402-4.37 2.565-6.576 3.728-8.74 4.668-20.804 10.946-30.467 26.097-3.55 5.414-5.935 10.946-7.576 16.196h-33.837s-36.88 46.14-61.41 73.52c-19.044 21.31-45.604 25.799-64.543 25.799-9.962 0-16.717-1.283-16.777-1.343L0 175.523l36.178 96.516h95.994v188.855h-20.386l-7.456 13.869c-1.805 3.385-10.902 21.206-10.902 38.385 0 17.254 9.32 35.194 11.245 38.624l7.456 13.69h12.348l18.7 31.048h313.75l18.7-31.048h12.348l7.457-13.69c1.923-3.43 11.244-21.37 11.244-38.624 0-17.18-9.022-34.94-10.827-38.326l-7.396-13.928h-20.505V272.039H564Z" style="fill:#fff"/><path d="M309.26 481.637h88.836V377.83h-88.835zm0-120.062h88.836V257.827h-88.835zm-18.342 16.255h-88.895v103.807h88.895zm0-120.003h-88.895v103.748h88.895zm27.425-195.208c10.379 6.71 21.042 9.156 29.244 21.907 8.515 13.287 6.591 28.319 6.591 28.319h44.276s29.184 36.521 54.461 64.766c41.354 46.2 106.135 32.748 106.135 32.748l-13.288 35.418h-104.09V487.17h30.988s7.755 14.57 7.755 25.918c0 11.424-7.994 26.053-7.994 26.053h-11.647l-18.7 31.108H158.03l-18.686-31.108h-11.662s-7.978-14.63-7.978-26.053c0-11.348 7.814-25.918 7.814-25.918h30.93V245.777H54.401L41.129 210.36s64.707 13.452 106.075-32.748c25.337-28.245 54.461-64.766 54.461-64.766h44.276s-1.924-15.032 6.577-28.32c8.217-12.75 18.88-15.196 29.244-21.906C297.256 52.612 300 26.097 300 26.097s2.848 26.515 18.343 36.522"/></svg>