<svg xmlns="http://www.w3.org/2000/svg" width="600" height="596.51"><radialGradient id="a" cx="0" cy="0" r="1" fx="0" fy="0" gradientTransform="translate(300.074 298.166)scale(265.58671)" gradientUnits="userSpaceOnUse" spreadMethod="pad"><stop offset="0" style="stop-color:#bf99c3"/><stop offset=".663" style="stop-color:#7b5190"/><stop offset="1" style="stop-color:#612c75"/></radialGradient><path fill="#fff" d="m600 175.583-46.185 8.962c-.06.06-6.83 1.343-16.777 1.343-18.88 0-45.439-4.49-64.557-25.8-24.457-27.38-61.396-73.52-61.396-73.52h-33.837a68 68 0 0 0-7.576-16.254c-9.678-15.092-21.668-21.37-30.466-26.038-2.163-1.163-4.37-2.326-6.472-3.669-2.506-1.864-5.757-10.662-6.577-17.477C324.531 9.902 313.287 0 300 0c-13.347.06-24.531 10.021-26.097 23.19-.821 6.814-4.072 15.553-6.413 17.358-2.147 1.402-4.37 2.565-6.576 3.728-8.74 4.668-20.804 10.946-30.467 26.097-3.55 5.414-5.935 10.946-7.576 16.196h-33.837s-36.88 46.14-61.41 73.52c-19.044 21.31-45.604 25.799-64.543 25.799-9.962 0-16.717-1.283-16.777-1.343L0 175.523l36.178 96.516h95.994v188.855h-20.386l-7.456 13.869c-1.805 3.385-10.902 21.206-10.902 38.385 0 17.254 9.32 35.194 11.245 38.624l7.456 13.69h12.348l18.7 31.048h313.75l18.7-31.048h12.348l7.457-13.69c1.923-3.43 11.244-21.37 11.244-38.624 0-17.18-9.022-34.94-10.827-38.326l-7.396-13.928h-20.505V272.039H564Z"/><path d="M281.761 62.619c-10.364 6.71-21.027 9.156-29.243 21.907-8.5 13.227-6.577 28.32-6.577 28.32h-44.276s-29.125 36.52-54.461 64.765c-41.368 46.2-106.075 32.749-106.075 32.749l13.273 35.417h104.046V487.17h-30.93s-7.813 14.57-7.813 25.978c0 11.364 7.978 25.993 7.978 25.993h11.662l18.685 31.108h284.044l18.7-31.108h11.647s7.993-14.63 7.993-25.993c0-11.408-7.754-25.978-7.754-25.978H441.67V245.777h104.091l13.287-35.417s-64.78 13.451-106.134-32.749c-25.277-28.245-54.461-64.766-54.461-64.766h-44.276s1.924-15.092-6.592-28.32c-8.202-12.75-18.864-15.195-29.184-21.906C302.848 52.612 300 26.098 300 26.098s-2.744 26.514-18.239 36.521m27.5 195.208h88.835v103.808H309.26Zm-107.238 0h88.835v103.808h-88.835ZM309.26 377.83h88.835v103.808H309.26Zm-107.238 0h88.835v103.808h-88.835z" style="fill:url(#a);stroke-width:14.9128"/></svg>