<svg xmlns="http://www.w3.org/2000/svg" width="528.888" height="320pt" viewBox="0 0 396.666 320"><radialGradient id="a" cx="191.002" cy="184.5" r="191.002" fx="191.002" fy="184.5" gradientTransform="matrix(1 0 0 .71989 -1 50.68)" gradientUnits="userSpaceOnUse"><stop offset="0" style="stop-color:#ebd491"/><stop offset=".7" style="stop-color:#d2bb7b"/><stop offset="1" style="stop-color:#8b723c"/></radialGradient><radialGradient id="b" cx="322.53" cy="75.505" r="62.47" fx="322.53" fy="75.505" gradientTransform="matrix(1 0 0 1.04858 -1 -4.668)" gradientUnits="userSpaceOnUse"><stop offset="0" style="stop-color:#ebd491"/><stop offset=".7" style="stop-color:#d2bb7b"/><stop offset="1" style="stop-color:#8b723c"/></radialGradient><path d="m257.75 56.25 30.375 19.5L245 91.875l8.38 15h-46.63l31.5 85.5 25.875-67.5 5.625 8.625L305 105l-7.5 45h27.75l-46.5 111H371v50H9v-50h57.875V106.875H9V56.25Zm-130.875 50.625V261h83.25L149 106.875Z" style="stroke:#000;stroke-width:18"/><path d="M9 56c73.751.006 225.634.164 248.918.201L288.19 75.55l-43.05 16.41 8.24 14.89-46.32.14 31.3 85.15 25.71-67.28 5.6 8.52 35.44-28.46-7.28 45 27.51.25-46.5 110.76 92.14.08L371 311H9v-50l57.99-.01V107L9 106.59Zm118.01 50.98v154.01l83.22-.08-61.42-153.84z" style="fill:url(#a)"/><path d="M310.95 9h24.27l-4.3 53.24 41.46-29.68L384 53.9l-46.49 19.53L384 95.09l-10.57 22.08-42.36-30.22 6.85 53.06-24.88-.04 3.01-53.04-45.01 30.62-11.98-20.25 50.23-22.87-48.43-23.81 13.22-19.99 41.87 32.41z" style="stroke:#000;stroke-width:18"/><path d="M310.95 9h24.27l-4.3 53.24 41.46-29.68L384 53.9l-46.49 19.53L384 95.09l-10.57 22.08-42.36-30.22 6.85 53.06-24.88-.04 3.01-53.04-45.01 30.62-11.98-20.25 50.23-22.87-48.43-23.81 13.22-19.99 41.87 32.41z" style="fill:url(#b)"/></svg>