<svg xmlns="http://www.w3.org/2000/svg" width="500" height="302pt" viewBox="0 0 375 302"><path d="M0 47c73.751.006 225.634.164 248.918.201L279.19 66.55l-43.05 16.41 8.24 14.89-46.32.14 31.3 85.15 25.71-67.28 5.6 8.52 35.44-28.46-7.28 45 27.51.25-46.5 110.76 92.14.08L362 302H0v-50l57.99-.01V98L0 97.59Zm118.01 50.98v154.01l83.22-.08-61.42-153.84z"/><path d="M301.95 0h24.27l-4.3 53.24 41.46-29.68L375 44.9l-46.49 19.53L375 86.09l-10.57 22.08-42.36-30.22 6.85 53.06-24.88-.04 3.01-53.04-45.01 30.62-11.98-20.25 50.23-22.87-48.43-23.81 13.22-19.99 41.87 32.41z"/></svg>