<?xml version="1.0" encoding="UTF-8"?>
<svg id="Ebene_1" data-name="Ebene 1" xmlns="http://www.w3.org/2000/svg" xmlns:xlink="http://www.w3.org/1999/xlink" viewBox="0 0 935.53 921.84">
  <defs>
    <style>
      .cls-1 {
        fill: #b7d1e1;
      }

      .cls-1, .cls-2, .cls-3 {
        stroke-width: 0px;
      }

      .cls-2 {
        fill: url(#Uncommon);
      }

      .cls-3 {
        fill: #1d1d1b;
      }
    </style>
    <linearGradient id="Uncommon" x1="154.77" y1="754.57" x2="756.7" y2="152.64" gradientUnits="userSpaceOnUse">
      <stop offset="0" stop-color="#636f78"/>
      <stop offset=".04" stop-color="#697780"/>
      <stop offset=".11" stop-color="#7d8e98"/>
      <stop offset=".2" stop-color="#9fb5c1"/>
      <stop offset=".2" stop-color="#a1b8c4"/>
      <stop offset=".29" stop-color="#aec7d5"/>
      <stop offset=".38" stop-color="#b5cede"/>
      <stop offset=".5" stop-color="#b7d1e1"/>
      <stop offset=".62" stop-color="#b5cede"/>
      <stop offset=".71" stop-color="#aec7d5"/>
      <stop offset=".8" stop-color="#a1b8c4"/>
      <stop offset=".8" stop-color="#a1b7c3"/>
      <stop offset=".85" stop-color="#8c9ea9"/>
      <stop offset=".91" stop-color="#75838d"/>
      <stop offset=".96" stop-color="#68747d"/>
      <stop offset="1" stop-color="#636f78"/>
    </linearGradient>
  </defs>
  <g>
    <path class="cls-3" d="m889.65,582.37c9.21-34.53,14.13-70.79,14.13-108.18,0-233.5-191.38-422.79-427.45-422.79-56.35,0-110.15,10.79-159.41,30.39L104.61,7.62l127.12,119.79c-34.86,24.1-65.91,53.2-92.1,86.26L7.22,93.11l85.27,194.81c-27.93,56.2-43.62,119.42-43.62,186.27,0,233.5,191.38,422.79,427.45,422.79,41.88,0,82.35-5.96,120.59-17.07,33.69,21.95,74.03,34.73,117.39,34.73,118.04,0,213.73-94.64,213.73-211.39,0-44.95-14.2-86.62-38.39-120.88Z"/>
    <path class="cls-2" d="m896.88,584.36c17.65-66.75,19.05-137.43,3.84-204.79-12.48-55.26-36.31-108.02-69.39-153.99-32.8-45.59-74.23-84.66-121.75-114.63-48.5-30.58-103.2-51.47-159.76-60.89-69.32-11.55-141.27-6.73-208.21,14.89-9,2.91-17.9,6.13-26.69,9.6h3.99c-23.95-8.37-47.9-16.73-71.85-25.1-38.13-13.32-76.26-26.64-114.38-39.96-8.69-3.04-17.38-6.07-26.07-9.11-7.14-2.49-12.59,7.55-7.3,12.54,14.29,13.47,28.58,26.94,42.88,40.4l68.43,64.48c5.27,4.97,10.55,9.94,15.82,14.91l1.52-11.78c-35.27,24.49-66.88,53.82-93.62,87.43h10.61c-14.92-13.59-29.85-27.18-44.77-40.77-23.77-21.65-47.55-43.29-71.32-64.94-5.44-4.95-10.88-9.9-16.32-14.86-6.61-6.02-15.11,1.47-11.78,9.09,9.61,21.95,19.22,43.91,28.83,65.86l45.92,104.93c3.51,8.01,7.01,16.02,10.52,24.03v-7.57c-33.72,68.21-49.05,144.72-43.54,220.67,4.34,59.86,21.26,118.43,49.67,171.3,27.67,51.49,66.08,97.3,111.9,133.58,46.51,36.84,100.21,64.19,157.53,79.65,67.56,18.23,139.4,19.93,207.8,5.25,9.93-2.13,19.78-4.64,29.54-7.45l-5.78-.76c69.48,44.88,160.78,47.42,232.45,6.09,62.53-36.06,104.22-101.91,109.4-173.95,3.56-49.49-10.43-99.34-38.86-139.94-5.5-7.85-18.51-.36-12.95,7.57,39.81,56.85,48.7,131.41,21.6,195.56-22.72,53.8-68.89,96.28-124.27,114.71-31.16,10.37-64.89,13.46-97.38,8.45-18.58-2.86-36.94-8.11-54.07-15.88-8.57-3.89-16.88-8.35-24.87-13.33-2-1.25-3.87-2.79-6.27-3.11s-5.02.72-7.41,1.39c-5.04,1.4-10.1,2.72-15.18,3.93-68.97,16.52-141.98,15.4-210.42-3.17-57.21-15.52-111.14-43.24-156.88-80.98-45.24-37.32-82.47-83.82-108.68-136.3-26.85-53.76-41.48-113.39-42.86-173.44-.9-39.42,3.73-78.8,13.99-116.88,5.04-18.73,11.35-37.18,19.03-55,1.83-4.24,3.73-8.45,5.7-12.62,2.4-5.09,5.95-9.67,3.77-15.35-.21-.54-.47-1.07-.7-1.6-12.86-29.52-25.82-58.99-38.73-88.48-14.43-32.97-28.86-65.94-43.29-98.91-.85-1.94-1.7-3.88-2.55-5.82l-11.78,9.09c14.92,13.59,29.85,27.18,44.77,40.77,23.77,21.65,47.55,43.29,71.32,64.94,5.44,4.95,10.88,9.9,16.32,14.86,2.74,2.49,7.99,3.29,10.61,0,25.91-32.58,56.38-61.34,90.58-85.09,3.82-2.65,5.27-8.25,1.52-11.78-14.29-13.47-28.58-26.94-42.88-40.4-22.81-21.49-45.62-42.99-68.43-64.48-5.27-4.97-10.55-9.94-15.82-14.91l-7.3,12.54c42.41,14.81,84.82,29.63,127.23,44.44,24.01,8.39,48.02,16.78,72.04,25.16,4.26,1.49,8.6,3.48,12.99,4.54s9.83-2.26,13.95-3.78c7.22-2.67,14.52-5.14,21.87-7.41,13.43-4.15,27.06-7.64,40.83-10.45,92.17-18.81,190.18-6.14,274.27,36.09,74.51,37.42,137.11,96.76,177.97,169.48,44.98,80.07,62.04,174.84,47.56,265.59-2.25,14.1-5.25,28.06-8.89,41.86-2.47,9.34,11.99,13.33,14.46,3.99Z"/>
  </g>
  <path class="cls-1" d="m94.16,215.4l147.87,370.84h68.85l41.47,35.21h70.41l42.64,42.64-77.45,77.45,71.2,71.2v-60.63l62.39-62.39s13.42,202.08,189.79,194.25c1.93-.09,3.86-.11,5.79-.05,12.66.39,72.32-.89,120.31-55.14,0,0,147.25-138.93-17.42-282.18,0,0-59.74-46.68-123.89-40.15l67.42-67.42h59.81l-66.88-66.88-76.66,76.66-45.67-45.67v-71.77l-33.17-33.17v-75.58L225.24,79.09l437.14,436.06v61.98l65.25,65.25v-66.33s92.43,21.75,102.76,102.76-61.44,121.25-61.44,121.25c0,0-116.35,46.76-169.64-61.98l-6.52-22.84h62.24l-71.11-71.11h-56.78L94.16,215.4Z"/>
</svg>