<?xml version="1.0" encoding="UTF-8" standalone="no"?>
<svg
   id="Ebene_1"
   data-name="Ebene 1"
   viewBox="0 0 920.81 907.02"
   version="1.1"
   width="920.81"
   height="907.02002"
   xmlns="http://www.w3.org/2000/svg"
   xmlns:svg="http://www.w3.org/2000/svg">
  <defs
     id="defs1">
    <style
       id="style1">
      .cls-1 {
        fill: #000000;
        stroke-width: 0px;
      }
    </style>
  </defs>
  <path
     class="cls-1"
     d="m 882.42,574.75 c 9.21,-34.53 14.13,-70.79 14.13,-108.18 0,-233.5 -191.38,-422.79 -427.45,-422.79 -56.35,0 -110.15,10.79 -159.41,30.39 L 97.39,0 224.51,119.79 c -34.86,24.1 -65.91,53.2 -92.1,86.26 L 0,85.49 85.27,280.3 c -27.93,56.2 -43.62,119.42 -43.62,186.27 0,233.5 191.38,422.79 427.45,422.79 41.88,0 82.35,-5.96 120.59,-17.07 33.69,21.95 74.03,34.73 117.39,34.73 118.04,0 213.73,-94.64 213.73,-211.39 0,-44.95 -14.2,-86.62 -38.39,-120.88 z m -52.24,246.41 c -47.98,54.24 -107.64,55.52 -120.31,55.14 -1.93,-0.06 -3.86,-0.03 -5.79,0.05 C 527.71,884.18 514.29,682.1 514.29,682.1 l -62.39,62.39 v 60.63 l -71.2,-71.2 77.45,-77.45 -42.64,-42.64 H 345.1 L 303.63,578.62 H 234.78 L 86.94,207.78 519.92,636.49 h 56.78 l 71.11,71.11 h -62.24 l 6.52,22.84 c 53.28,108.74 169.64,61.98 169.64,61.98 0,0 71.77,-40.23 61.44,-121.25 C 812.84,590.16 720.41,568.41 720.41,568.41 v 66.33 L 655.16,569.49 V 507.51 L 218.02,71.46 593.72,215 v 75.58 l 33.17,33.17 v 71.77 l 45.67,45.67 76.66,-76.66 66.88,66.88 h -59.81 l -67.42,67.42 c 64.16,-6.52 123.89,40.15 123.89,40.15 164.67,143.25 17.42,282.18 17.42,282.18 z"
     id="path1" />
</svg>
