<svg xmlns="http://www.w3.org/2000/svg" xml:space="preserve" width="340" height="340"><g transform="translate(-4.626 -5.005)"><path fill="#fff" d="M344.626 175.005c0 93.892-76.114 170-170.001 170-93.888 0-169.999-76.108-169.999-170 0-93.885 76.11-170 169.999-170 93.887.001 170.001 76.116 170.001 170"/><radialGradient id="a" cx="405.625" cy="175.991" r="155.672" gradientTransform="matrix(1 0 0 -1 -231 351)" gradientUnits="userSpaceOnUse"><stop offset="0" style="stop-color:#bf99c3"/><stop offset=".65" style="stop-color:#7b5190"/><stop offset=".764" style="stop-color:#784d8d"/><stop offset=".882" style="stop-color:#6f4084"/><stop offset="1" style="stop-color:#612c75"/></radialGradient><path fill="url(#a)" d="M330.296 175.005c0 85.983-69.698 155.677-155.671 155.677-85.976 0-155.671-69.692-155.671-155.677 0-85.969 69.696-155.669 155.671-155.669 85.973 0 155.671 69.7 155.671 155.669M174.625 37.445c-75.975 0-137.563 61.592-137.563 137.561 0 75.98 61.588 137.567 137.563 137.567 75.971 0 137.563-61.587 137.563-137.567 0-75.969-61.592-137.561-137.563-137.561m0 8.055c-71.525 0-129.508 57.986-129.508 129.505 0 71.533 57.982 129.513 129.508 129.513 71.521 0 129.507-57.979 129.507-129.513 0-71.519-57.986-129.505-129.507-129.505m-.004 10.812 13.249 39.219 46.63 27.545 41.337-10.592-28.62 32.858v55.104l28.62 32.864-41.862-11.145-45.575 28.084-13.78 43.457-13.774-43.457-45.572-28.082-41.862 11.144 28.614-32.865v-55.104l-28.614-32.858 41.331 10.592 46.633-27.545zm.007 185.458 56.166-34.438v-65.17l-56.166-33.92-56.173 33.92v65.17z" style="fill:url(#a)"/></g></svg>