<svg xmlns="http://www.w3.org/2000/svg" width="600" height="317.955"><radialGradient id="a" cx="295.624" cy="172.949" r="281.696" fx="295.624" fy="172.949" gradientTransform="matrix(1 0 0 .4386 0 97.092)" gradientUnits="userSpaceOnUse" spreadMethod="pad"><stop offset="0" style="stop-color:#bf99c3"/><stop offset=".7" style="stop-color:#7b5190"/><stop offset="1" style="stop-color:#612c75"/></radialGradient><path d="m576.637 28.303-10.172 12.369c-2.917 3.425-71.65 82.966-162.406 82.966-92.733 0-144.803-31.652-147-32.99 0 0-2.243-1.478-3.462-2.271h-71.142V71.355c0-6.277-2.27-11.75-6.387-15.508-4.69-4.246-10.099-4.827-12.868-4.827h-12.73l-1.227-1.625c-5.372-7.062-12.692-10.818-21.166-10.818-18.462 0-29.492 17.095-29.492 33.646 0 3.895 1.006 8.003 1.984 11.501l1.44 5.16H83.363v-8.981l-4.754-4.145c-8.15-7.181-22.717-10.384-35.372-.508 0 0-3.499 2.705-5.372 4.145v6.71l-2.567 1.007c-10.126 4.08-18.175 10.495-23.252 18.609-2.63 4.218-4.726 9.046-6.064 14.058-2.16 7.939-2.557 15.794-2.668 23.077l-.037 1.699c0 9.48 1.412 17.27 4.366 24.341l2.53 5.336-2.456 5.077c-3.35 8.113-5.123 17.704-5.123 28.31 0 11.899 2.594 22.93 7.717 32.816l1.117 2.197-1.44 2.021c-6.203 8.65-9.554 18.065-9.951 27.905L0 274.616c0 13.81 5.732 24.554 17.022 31.874 13.19 8.548 28.624 10.856 37.818 11.465-4.828-6.739-11.75-17.779-16.043-31.514l-.868-6.379c0-5.52 2.133-10.569 6.314-15.036v.101c.646-.858 1.477-1.726 2.455-2.769.102-.074 5.908-5.99 5.908-5.99 3.102-2.742 7.939-6.96 11.216-13.127 3.286-6.166 4.467-12.729 5.224-18.314l.868-14.963c-.037-7.79-.97-14.963-2.954-21.637-1.698-5.584-4.33-10.818-8.077-16.043 0 0 .176.102.213.14-.36-.398-.683-.72-1.117-1.256l-1.588-1.985.692-2.778 1.477-3.213 9.406 1.339s15.397 0 21.13-.037v-15.572h51.996v19.975c0 3.822.942 7.32 2.742 10.385 3.425 5.769 9.48 9.083 16.588 9.083h17.843l-2.557 17.086c0 6.277 1.477 11.575 4.403 15.692 3.96 5.622 10.163 8.723 17.483 8.723 7.394 0 13.67-3.138 17.594-8.797 2.852-4.08 4.255-9.157 4.255-15.184 0-4.791-.895-10.237-2.63-15.72l-.213-.61.11-20.16c0-5.261-2.455-9.987-7.32-14.021l-8.621-7.219h14.788l1.043.656c57.406 37.754 128.003 49.717 177.148 53.114 14.898 1.006 27.913.97 39.775-.11 1.08-.038 90.72-5.262 139.33-87.693C597.876 71.716 600 17.347 600 .067V0c-5.298 6.452-23.363 28.302-23.363 28.302" style="fill:#fff"/><path d="M31.985 202.967c0-8.4 2.197-12.009 3.71-13.633 2.567 3 5.336 14.243 5.336 26.077 0 6.886-2.234 12.036-3.822 14.169-2.021-3.102-5.224-12.157-5.224-26.613m-.508-63.821c0-4.219.793-7.034 1.772-9.23.286 1.984.498 4.43.498 8.187 0 4.541-.498 9.59-1.255 13.698-.581-3.175-1.015-7.246-1.015-12.655m117.978-56.65v13.56l-.498.647h-10.173c4.902-3.499 7.606-9.083 8.871-14.206zM125.88 72.73c0-3.969 1.043-5.741 1.947-6.6.896.933 1.911 2.742 1.911 6.6 0 3.785-.978 5.77-1.91 6.887-.98-1.09-1.948-3-1.948-6.887" style="fill:#fff"/><path d="M35.225 182.198s-9.37 2.594-9.37 20.77c0 18.138 5.188 33.71 10.92 33.71 5.705 0 10.348-10.883 10.348-21.267s-2.594-33.213-11.898-33.213m-1.579-62.778s-8.298 4.689-8.298 19.726 3.101 25.421 7.79 25.421c4.653 0 6.739-18.138 6.739-26.464 0-8.299-1.043-18.683-6.23-18.683m94.43-60.176s-8.29 1.043-8.29 13.486c0 12.471 8.29 14.022 8.29 14.022s7.79-2.086 7.79-14.022-7.79-13.486-7.79-13.486m28.015 51.379v17.63l7.791 4.69v-27.01ZM27.766 296.503s-14.566-4.44-13.81-23.4c.758-18.794 15.536-29.179 15.536-29.179s-12.978-11.39-12.978-36.304c0-7.865 1.117-15.868 4.181-23.151 1.117-2.705 2.493-5.188 4.293-7.532.83-1.117 1.698-2.456 1.477-3.896-.25-1.55-1.763-2.529-2.705-3.683-1.403-1.726-2.382-3.748-3.277-5.834-2.668-6.461-3.36-13.486-3.25-20.409.112-6.563.471-13.348 2.198-19.69.941-3.571 2.455-7.144 4.44-10.31 5.012-7.975 13.237-13.163 22.283-15.295.249-.037 5.658-1.006 5.658-.683V86.244c9.342-7.283 17.631 0 17.631 0V99.73l2.603 3.102h79.902l3.609-4.652V78.96c0-2.344-1.985-2.594-1.985-2.594h-10.966s-1.043 17.631-14.021 17.631c-12.988 0-16.08-15.037-16.08-21.775 0-6.748 4.144-19.726 15.572-19.726 11.39 0 13.662 12.48 13.662 12.48h21.424s5.372-.545 5.372 6.378v30.942h80.945s53.945 35.298 154.579 35.298c100.643 0 173.261-88.2 173.261-88.2s-6.563 42.73-36.997 70.385l12.12-.36c-28.384 30.978-47.058 25.098-47.058 25.098 6.24 6.203 15.212 4.827 15.212 4.827-21.415 18.36-53.252 18-53.252 18 5.52 3.462 15.212 5.511 15.212 5.511-23.935 10.745-40.2 13.2-50.474 12.877-30.618-.941-44.963-13.56-44.963-13.56 4.145 9.702 11.751 16.265 11.751 16.265-124.505-12.48-178.994-54.231-178.994-54.231H170.88l-2.852 2.843v25.025s-.287 1.984 1.8 1.984h27.95s5.013.148 5.013 5.336v22.643s8.797 23.87-5.197 23.87c-14.022 0-5.188-24.876-5.188-24.876v-14.64c0-2.234-1.91-1.948-1.91-1.948h-30.074c-5.807 0-5.373-5.659-5.373-5.659v-30.147L151.948 135h-76.8v15.572h-7.791c-11.935 0-13.994-16.08-13.994-16.08h-5.188c.323 0-.396 8.04-.434 8.622-.433 4.68-.47 9.406-1.874 13.947-1.338 4.44-4.366 8.114-5.99 12.443-.97 2.557.434 3.536 2.381 4.828 1.376.942 2.594 2.308 3.683 3.536 3.6 4.144 6.093 9.193 7.643 14.427 1.726 5.806 2.373 11.899 2.373 17.917 0 4.256-.176 8.622-.72 12.877-.61 4.616-1.514 9.443-3.711 13.588-2.022 3.821-5.16 6.637-8.363 9.452-3.25 2.843-6.093 6.203-9.056 9.332-18.064 19.154-6.341 41.04-6.341 41.04" style="fill:url(#a)"/><path d="M225.434 128.18c6.055 3.72 55.135 36.314 155.483 49.578 0 0-4.33-6.59-2.095-17.77 0 0 11.326 6.702 20.917 10.386 6.701 2.556 17.27 6.738 32.594 7.246 5.88.175 15.212-.905 28.089-5.013-4.219-2.593-12.692-12.618-12.692-12.618s19.689-.794 19.726-.794c.72 0 17.732-.185 33.997-7.505l-.25-.535c-5.768-4.08-4.402-13.745-4.402-13.745 7.615.509 16.301-1.218 16.301-1.218 3.933-.794 9.776-2.89 17.096-7.975-5.807.184-11.65.36-11.65.36l16.293-14.815c11.289-10.274 18.932-22.865 24.23-34.33-18.027 16.191-45.175 36.6-78.96 50.52l-.581.25c-22.533 9.194-47.88 15.545-75.471 15.545-13.413 0-25.883-.656-37.643-1.736l-.859-.074c-69.701-6.452-109.763-28.301-118.348-33.461H201.6v7.828h10.708s6.378 5.732 13.126 9.876" style="fill:#fff"/></svg>