<?xml version="1.0" encoding="UTF-8" standalone="no"?>
<svg
   version="1.1"
   width="546.51562"
   height="493.77344"
   id="svg1"
   xmlns="http://www.w3.org/2000/svg"
   xmlns:svg="http://www.w3.org/2000/svg">
  <defs
     id="defs1" />
  <path
     d="M 239.69141,0 C 173.80549,0 107.4843,39.935619 73.710936,73.708986 22.772276,124.64765 0,139.33284 0,239.69141 v 2.4043 l 2.394532,16.77148 9.591796,50.33789 v 2.39258 l 2.394532,7.20117 16.804687,40.75586 c 4.785743,20.53062 26.254334,38.99468 43.146489,47.94336 7.30973,6.33729 17.48232,9.58399 31.162104,9.58399 h 23.97266 c 0.80855,0 54.87175,-11.87706 55.12305,-11.98633 15.31875,0 18.24766,-4.79688 33.5664,-4.79688 h 47.9336 c 8.27124,0 9.27679,1.76863 16.7832,2.40235 15.9197,10.09595 22.68337,-5.5504 29.35938,28.14648 3.74774,18.88074 -1.51877,33.50108 13.78906,43.75 v 14.39063 c 1.92304,1.34394 5.91106,4.78515 7.18945,4.78515 10.86079,0 19.83098,-2.70915 28.75781,-4.78515 V 469.8125 c 0,-5.52874 1.64979,-7.20117 7.18946,-7.20117 h 7.18945 c 0,19.62373 -0.0216,26.96635 14.76172,24.61719 10.40189,-1.67174 33.16197,-2.24075 43.36719,-3.13672 l -2.98243,-19.07617 h 9.57032 c 3.01568,6.28265 2.75356,14.38867 11.98633,14.38867 h 2.39257 c 9.0361,0 31.35982,-7.53824 36.7793,-14.77148 l -8.14062,-17.04493 12.0957,-1.75976 c 1.25653,5.37577 2.4043,5.507 2.4043,11.98633 v 7.18945 c 12.98051,-1.08171 47.93359,-10.83839 47.93359,-23.96094 v -4.79687 c 0,-30.42988 -43.14844,-70.84629 -43.14844,-79.09571 v -2.39257 c 0,-27.96053 26.92284,-53.53934 16.78321,-69.51367 l -11.98633,-28.76954 v -2.39257 l -2.39258,-2.39258 -9.60547,-31.17383 c -2.076,-25.07599 -5.34282,-50.68756 -14.37891,-69.51367 L 479.39454,148.60938 453.0293,105.47266 426.65235,71.90625 393.09766,40.75586 C 372.45778,17.559204 321.66264,0 280.4375,0 Z m 215.69727,165.38086 c 23.30592,0 26.36523,31.72046 26.36523,57.51758 l -2.39258,4.80664 v 4.78711 c -1.4095,6.07506 -1.99915,11.98438 -9.58203,11.98438 -0.10926,0 -12.04069,-8.34735 -14.3789,-9.58203 -12.52162,-6.6323 -31.1504,-17.58006 -31.1504,-35.94727 0,-8.97054 3.68131,-13.96354 7.17774,-19.19727 l 4.78516,-4.78515 2.41601,-2.38281 2.39258,-2.4043 c 6.5886,-1.52969 9.74534,-4.78598 14.36719,-4.79688 z M 325.9668,201.35157 h 2.38281 c 12.99144,0 18.74841,4.46813 26.375,9.60351 17.32921,11.59287 26.36524,35.56565 26.36524,64.69531 v 2.4043 2.39258 c -16.01804,33.4128 -38.38402,50.33789 -86.28516,50.33789 h -4.78515 c -7.47363,0 -13.86674,-4.39231 -19.16602,-7.18945 -10.15059,-6.79619 -27.49,-27.78598 -28.7793,-43.14844 0,-47.64983 38.24227,-79.1066 83.89258,-79.0957 z m 124.6582,47.92187 c 3.54014,0 19.27462,18.12734 21.58008,21.58008 l 9.57227,40.74414 c 0.6228,7.49547 2.40234,8.51114 2.40234,16.77149 v 7.20117 c 0,13.37386 -15.23012,26.16906 -26.375,28.76953 -16.44416,-31.09646 -36.84489,-13.10084 -38.34179,-31.16211 l 11.96484,-38.35156 2.4043,-38.35157 7.18945,-4.78515 c 6.43563,-1.54061 4.5009,-2.40512 9.60351,-2.41602 z"
     id="path1" />
</svg>
