<svg xmlns="http://www.w3.org/2000/svg" width="122.559" height="152.355"><path d="M54.22 0C31.274 16.504 0 12.496 0 12.496c.243 41.4-1.592 72.528 11.785 92.424 13.794 20.517 25.92 31.706 45.649 47.435l-1.508-20.892c-14.409-11.839-22.666-20.75-31.944-33.916-9.92-14.079-11.373-31.352-8.22-69.815 19.328 1.558 41.18-1.856 41.287-17.34C57.072 7.032 55.892 3.434 54.22 0m14.118 0c-1.672 3.433-2.851 7.03-2.828 10.393.107 15.483 21.958 18.897 41.287 17.34 3.153 38.462 1.699 55.735-8.22 69.814-9.278 13.167-17.536 22.077-31.944 33.916l-1.508 20.892c19.728-15.729 31.855-26.918 45.648-47.435 13.377-19.896 11.543-51.024 11.786-92.424 0 0-31.273 4.008-54.221-12.496M21.717 33.877c.23 14.567-1.254 44.787 6.103 57.172 10.029 16.88 16.07 22.407 27.393 30.547L48.99 35.393c-15.919 4.726-27.273-1.516-27.273-1.516m79.125 0s-11.355 6.242-27.274 1.516l-6.222 86.203c11.323-8.14 17.364-13.667 27.392-30.547 7.358-12.385 5.874-42.605 6.104-57.172"/></svg>