<svg xmlns="http://www.w3.org/2000/svg" width="538.523" height="242.991"><path d="m319.477 165.932 212.049-76.19L234.812 0 37.431 63.166Zm-19.117 72.582c-2.012-6.96-3.499-15.065-3.526-23.871 0-10.45 2.049-20.548 6.194-30.138L6.24 76.403a31 31 0 0 0-.97 1.91C2.853 83.4 0 91.367 0 100.45c.037 8.585 2.418 16.588 7.283 24.379zm26.363 4.477c-3.139-6.6-6.812-16.773-6.785-28.376 0-9.6 2.382-18.434 7.256-26.935l200.769-72.083c-.831 4.218-1.265 8.51-1.265 12.692 0 8.114 1.625 15.434 4.79 21.812a38.4 38.4 0 0 0 7.035 9.85z"/></svg>