<svg xmlns="http://www.w3.org/2000/svg" xmlns:xlink="http://www.w3.org/1999/xlink" width="600" height="377.442"><radialGradient id="a" cx="0" cy="0" r="1" fx="0" fy="0" gradientTransform="matrix(23.51814 0 0 -23.51814 219.625 483.72)" gradientUnits="userSpaceOnUse" spreadMethod="pad"><stop offset="0" style="stop-color:#f6b91d"/><stop offset=".7" style="stop-color:#d3641c"/><stop offset="1" style="stop-color:#bf331c"/></radialGradient><radialGradient xlink:href="#a" id="b" cx="0" cy="0" r="1" fx="0" fy="0" gradientTransform="translate(300 188.756)scale(221.91813)" gradientUnits="userSpaceOnUse" spreadMethod="pad"/><path d="M232.73 0h-28.893C87.614 0 0 83.858 0 195.024 0 309.22 95.946 377.442 188.72 377.442c67.45 0 105.826-19.127 121.452-29.148 5.86 7.039 24.59 22.882 74.677 22.882 134.728 0 215.151-57.39 215.151-153.515 0-140.625-152.043-203.8-191.269-203.8h-29.12s8.56 59.9 10.956 76.555c-14.824 12.39-65.43 54.927-65.43 54.927s18.948 55.135 26.61 77.48a53023 53023 0 0 1-51.86 30.96c9.917-16.552 30.931-51.569 30.931-51.569s-53.304-45.264-70.072-59.494c7.153-22.042 29.374-90.67 29.374-90.67L244.12 0Z" style="fill:#fff"/><path d="M417.545 100.74 354.7 153.523l27.647 80.461-77.96 46.558 25.137 51.53s11.314 13.824 55.324 13.824 189.862-7.52 189.862-128.236c0-120.677-134.539-178.51-165.98-178.51ZM261.633 57.983l-30.158 93.03 66.647 56.579-41.509 69.147 45.265 46.52S267.936 352.2 188.72 352.2c-79.206 0-163.432-57.833-163.432-157.176 0-99.333 77.95-169.735 178.548-169.735h28.893z" style="fill:#695523"/><path d="M203.837 29.563c-101.003 0-174.312 69.59-174.312 165.46 0 95.73 80.943 152.93 159.196 152.93 62.108 0 95.983-18.277 106.674-25.24l-41.84-42.982-2.245-2.359 1.699-2.802 39.621-66.053-63.92-54.257-2.132-1.84.85-2.69 29.45-90.755-26.063-29.412zm217.907 70.553.33 2.36-1.802 1.509-60.598 50.898 26.685 77.743 1.113 3.237-2.953 1.774-74.602 44.529 23.147 47.472c2.066 1.878 14.71 12.012 51.785 12.012 55.805 0 185.626-12.087 185.626-123.99 0-110.769-118.904-168.744-156.761-173.905z" style="fill:url(#b)"/></svg>