<svg xmlns="http://www.w3.org/2000/svg" width="915.24" height="1047.83" data-name="Layer 2" viewBox="0 0 915.24 1047.83"><defs><linearGradient id="a" x1="-502.38" x2="-501.38" y1="1063.87" y2="1063.87" gradientTransform="rotate(217.55 67942.472 595506.048)scale(-964.45 964.45)" gradientUnits="userSpaceOnUse"><stop offset="0" stop-color="#612c75"/><stop offset=".13" stop-color="#80508f"/><stop offset=".29" stop-color="#a277ab"/><stop offset=".42" stop-color="#b790bc"/><stop offset=".5" stop-color="#bf99c3"/><stop offset=".58" stop-color="#b790bc"/><stop offset=".71" stop-color="#a277ab"/><stop offset=".87" stop-color="#80508f"/><stop offset="1" stop-color="#612c75"/></linearGradient></defs><g data-name="Layer 1"><path d="M359.8 142.18V74.61L457.62 0l97.82 74.6v67.57l359.8 117.18-13.99 148.39-31.26-9.94-44.46 432.49 31.14-6.62-10.16 133.93-388.88 90.23L68.75 957.6 58.59 823.67l31.14 6.62L45.27 397.8l-31.26 9.94L0 259.36Z" style="fill-rule:evenodd;stroke-width:0"/><path d="M457.62 222.3 51.3 351.37l-5.87-62.18 412.19-134.26 412.19 134.26-5.87 62.18zm0-103.81-55.39 18.78V95.61l55.39-42.24 55.39 42.24v41.66zm0 885.79-348.94-80.96-3.52-46.34 352.45 74.95 352.45-74.95-3.52 46.34-348.94 80.96zm-16.16-739.79v650.72L133.8 844.34 85.58 375.2l355.87-110.71ZM272.38 509.22l129.85-19.74V334.12l-134.24 38.1zM233.89 381.9l-101.22 28.73L143 528.9l94.27-14.34Zm239.89-117.41L829.65 375.2l-48.22 469.14-307.66 70.87V264.49Zm169.08 244.73 4.39-137-134.24-38.1v155.36zm-105.79 24.25 1.45 106.93 80.26-1.92 1.92-98.52zM681.35 381.9l-3.38 132.66 94.27 14.34 10.33-118.27z" style="fill:url(#a);fill-rule:evenodd;stroke-width:0"/></g></svg>