<svg xmlns="http://www.w3.org/2000/svg" width="600.001" height="510.361"><radialGradient id="a" cx="0" cy="0" r="1" fx="0" fy="0" gradientTransform="translate(300.074 255.775)scale(224.18535)" gradientUnits="userSpaceOnUse" spreadMethod="pad"><stop offset="0" style="stop-color:#ebd491"/><stop offset=".7" style="stop-color:#d2bb7b"/><stop offset="1" style="stop-color:#8b723c"/></radialGradient><path d="M419.389 0H179.565l-1.148.153c-16.153 1.748-38.57 13.41-46.046 37.932L35.38 65.095l-.944.344C21.23 70.529 0 87.575 0 118.769c0 5.576.689 11.61 2.194 18.143L93.7 478.36l2.488 3.38c10.31 13.806 35.533 34.934 64.291 26.768 0 0 128.926-35.481 139.592-38.429 10.615 2.948 139.745 38.48 139.745 38.48 28.567 8.115 53.727-13.013 64.1-26.818l2.488-3.343 91.351-340.834c1.544-6.685 2.246-12.912 2.246-18.59 0-31.45-21.18-48.444-34.333-53.534l-.957-.344s-76.59-21.333-96.978-27.01C460.255 13.562 437.826 1.9 421.686.153L420.538 0Z"/><path d="M180.764 21.779s-29.408 3.139-29.408 33.542l-109.1 30.455s-27.303 10.462-18.933 46.148l90.254 336.764s18.896 25.211 40.917 18.883l145.576-40.024 145.538 40.024c22.021 6.328 40.917-18.883 40.917-18.883l90.203-336.764c8.421-35.686-18.844-46.148-18.844-46.148L448.746 55.321c0-30.403-29.408-33.542-29.408-33.542z" style="fill:#8b723c"/><path d="M181.708 34.346c-1.39.243-5.588 1.187-9.569 3.84-5.588 3.726-8.229 9.161-8.229 17.135v9.57S48.138 97.194 46.441 97.64c-2.985 1.443-12.108 6.878-12.108 21.371 0 2.948.395 6.24 1.302 9.978.14.6 87.958 328.483 89.412 333.765 3.828 4.39 15.247 15.796 26.015 12.708l149.008-40.968 148.97 40.968c10.768 3.088 22.123-8.319 26.015-12.708 1.441-5.282 89.31-333.166 89.463-333.765.842-3.739 1.25-7.03 1.25-9.978 0-14.493-9.122-19.928-12.12-21.37-1.697-.446-117.52-32.752-117.52-32.752V55.32c0-7.974-2.59-13.409-8.165-17.134-3.943-2.654-8.179-3.598-9.57-3.84z"/><path d="M438.68 81.54v323.853s-2.794 20.975-19.546 20.975h-90.957l121.705 33.593s6.979 3.496 10.475-4.185l89.553-332.272s3.495-10.463-4.925-13.257zM55.066 110.95c-8.37 2.781-4.886 13.307-4.886 13.307l89.514 332.222c3.534 7.668 10.513 4.185 10.513 4.185l121.705-33.542h-90.905c-16.842 0-19.585-21.04-19.585-21.04V82.243ZM183.1 50.09h234.3c4.924 0 5.575 6.278 5.575 6.278V404.69c0 5.64-5.575 7.03-5.575 7.03H183.1c-4.925 0-4.925-7.03-4.925-7.03V56.368c0-4.185 4.925-6.278 4.925-6.278" style="fill:#8b723c"/><path d="M184.4 55.219c-.65.408-1.097.906-1.097 1.148V404.64c0 .804.243 1.952-.204 1.952h233.445c.6-.306 1.352-.854 1.352-1.9V56.966c-.102-.69-.46-1.646-.498-1.748zM443.758 406.08c-1.149 8.778-7.821 25.428-24.675 25.428h-53.319l86.261 23.871c.205.051.855.294 1.455.294.497 0 1.34 0 1.94-1.238l89.603-332.528c.357-.944 1.646-5.728-1.34-6.724l-99.873-26.97ZM56.66 115.784c-3.343 1.136-1.837 6.277-1.544 7.12l89.209 331.481c.944 1.94 1.798 1.94 2.245 1.94.65 0 1.25-.205 2.297-.6l85.368-23.527h-53.23c-16.84 0-23.475-16.586-24.662-26.066V88.914Z" style="fill:url(#a)"/><path d="M408.027 324.241q-.895 3.889-6.128 7.48-5.235 3.591-12.408 3.591-4.19 0-7.63-1.05-3.441-1.049-10.022-5.535-6.58-4.486-10.614-13.603T352.7 306.9q-10.167 9.272-22.278 18.54-12.112 9.27-26.167 11.067a2143 2143 0 0 0-30.803 4.19q-10.77 0-20.188-4.04-9.42-4.038-19.29-13.608t-14.356-28.713-4.486-61.008v-33.194q0-20.937-.301-25.272-.302-4.335-2.095-12.262-1.793-7.926-11.212-13.01t-9.419-11.363q14.65 0 24.82-1.794a484 484 0 0 0 19.737-3.892q2.392 0 4.933 1.195 2.542 1.197 2.542 10.168t-.297 18.244a4442 4442 0 0 1-.597 17.642q0 9.273-.151 18.245-.15 8.971-.15 17.943 0 49.35 8.825 73.576 8.826 24.227 25.423 26.171t20.786 1.944q14.649 0 28.407-5.535t20.933-18.395q3.595-8.671 5.39-19.436 1.792-10.765 1.792-27.22 0-13.755-1.346-27.81t-1.793-23.479q-.448-9.423-.447-16.296v-6.279q0-5.385-.302-8.378-.3-2.994-1.647-7.927t-7.776-11.062q-6.43-6.128-6.43-7.926 0-1.497 1.944-2.392t15.251-2.838 20.189-1.944q2.993 0 4.937 1.342 1.944 1.341 1.944 20.781V259.35q0 30.501 5.084 44.708 5.084 14.205 23.921 20.183z" style="fill:#fff;stroke:#8b723c;stroke-width:9.34586;stroke-opacity:.373913"/><path d="M408.027 324.241q-.895 3.889-6.128 7.48-5.235 3.591-12.408 3.591-4.19 0-7.63-1.05-3.441-1.049-10.022-5.535-6.58-4.486-10.614-13.603T352.7 306.9q-10.167 9.272-22.278 18.54-12.112 9.27-26.167 11.067a2143 2143 0 0 0-30.803 4.19q-10.77 0-20.188-4.04-9.42-4.038-19.29-13.608t-14.356-28.713-4.486-61.008v-33.194q0-20.937-.301-25.272-.302-4.335-2.095-12.262-1.793-7.926-11.212-13.01t-9.419-11.363q14.65 0 24.82-1.794a484 484 0 0 0 19.737-3.892q2.392 0 4.933 1.195 2.542 1.197 2.542 10.168t-.297 18.244a4442 4442 0 0 1-.597 17.642q0 9.273-.151 18.245-.15 8.971-.15 17.943 0 49.35 8.825 73.576 8.826 24.227 25.423 26.171t20.786 1.944q14.649 0 28.407-5.535t20.933-18.395q3.595-8.671 5.39-19.436 1.792-10.765 1.792-27.22 0-13.755-1.346-27.81t-1.793-23.479q-.448-9.423-.447-16.296v-6.279q0-5.385-.302-8.378-.3-2.994-1.647-7.927t-7.776-11.062q-6.43-6.128-6.43-7.926 0-1.497 1.944-2.392t15.251-2.838 20.189-1.944q2.993 0 4.937 1.342 1.944 1.341 1.944 20.781V259.35q0 30.501 5.084 44.708 5.084 14.205 23.921 20.183"/></svg>