<?xml version="1.0" encoding="UTF-8" standalone="no"?>
<svg
   version="1.1"
   width="600"
   height="264.33743"
   id="svg22"
   xmlns:xlink="http://www.w3.org/1999/xlink"
   xmlns="http://www.w3.org/2000/svg"
   xmlns:svg="http://www.w3.org/2000/svg">
  <defs
     id="defs22" />
  <linearGradient
     x1="0"
     y1="0"
     x2="1"
     y2="0"
     id="linearGradient298"
     gradientUnits="userSpaceOnUse"
     gradientTransform="matrix(20.23085,-9.433792,-9.433792,-20.230835,420.7959,398.79053)"
     spreadMethod="pad">
    <stop
       style="stop-color:#ffffff"
       offset="0"
       id="stop1" />
    <stop
       style="stop-color:#d9d9d9"
       offset="0.3"
       id="stop2" />
    <stop
       style="stop-color:#b2b2b2"
       offset="0.5"
       id="stop3" />
    <stop
       style="stop-color:#737373"
       offset="0.8"
       id="stop4" />
    <stop
       style="stop-color:#4d4d4d"
       offset="1"
       id="stop5" />
  </linearGradient>
  <linearGradient
     x1="0"
     y1="0"
     x2="1"
     y2="0"
     id="linearGradient278"
     gradientUnits="userSpaceOnUse"
     gradientTransform="matrix(34.594589,-16.131714,-16.131714,-34.594574,377.49365,394.36328)"
     spreadMethod="pad">
    <stop
       style="stop-color:#ffffff"
       offset="0"
       id="stop6" />
    <stop
       style="stop-color:#d9d9d9"
       offset="0.25"
       id="stop7" />
    <stop
       style="stop-color:#b2b2b2"
       offset="0.4"
       id="stop8" />
    <stop
       style="stop-color:#737373"
       offset="0.7"
       id="stop9" />
    <stop
       style="stop-color:#4d4d4d"
       offset="1"
       id="stop10" />
  </linearGradient>
  <linearGradient
     x1="0"
     y1="0"
     x2="1"
     y2="0"
     id="linearGradient262"
     gradientUnits="userSpaceOnUse"
     gradientTransform="matrix(-26.289871,-7.044357,-7.044357,26.289886,361.15381,402.19092)"
     spreadMethod="pad">
    <stop
       style="stop-color:#ffffff"
       offset="0"
       id="stop11" />
    <stop
       style="stop-color:#d9d9d9"
       offset="0.3"
       id="stop12" />
    <stop
       style="stop-color:#b2b2b2"
       offset="0.44999701"
       id="stop13" />
    <stop
       style="stop-color:#737373"
       offset="0.7"
       id="stop14" />
    <stop
       style="stop-color:#4d4d4d"
       offset="1"
       id="stop15" />
  </linearGradient>
  <linearGradient
     x1="0"
     y1="0"
     x2="1"
     y2="0"
     id="linearGradient3038"
     xlink:href="#linearGradient262"
     gradientUnits="userSpaceOnUse"
     gradientTransform="matrix(-26.289871,-7.044357,-7.044357,26.289886,361.15381,402.19092)"
     spreadMethod="pad" />
  <linearGradient
     x1="0"
     y1="0"
     x2="1"
     y2="0"
     id="linearGradient3040"
     xlink:href="#linearGradient278"
     gradientUnits="userSpaceOnUse"
     gradientTransform="matrix(34.594589,-16.131714,-16.131714,-34.594574,377.49365,394.36328)"
     spreadMethod="pad" />
  <linearGradient
     x1="0"
     y1="0"
     x2="1"
     y2="0"
     id="linearGradient3042"
     xlink:href="#linearGradient298"
     gradientUnits="userSpaceOnUse"
     gradientTransform="matrix(20.23085,-9.433792,-9.433792,-20.230835,420.7959,398.79053)"
     spreadMethod="pad" />
  <path
     d="m 444.90945,264.33728 c -2.00519,0 -3.98394,-0.6193 -5.63416,-1.78615 l -17.73327,-12.50694 c -4.15765,-2.94925 -5.38115,-8.55698 -2.84351,-12.96765 l 42.27511,-73.05908 -7.56761,-4.91291 c -14.2931,-9.08565 -29.66621,-15.19184 -45.70017,-18.27704 -1.23861,14.92751 -8.03585,33.92582 -28.33697,42.29021 -5.51332,2.28841 -12.18218,3.46659 -19.30796,3.46659 -9.20272,0 -23.51093,-1.97496 -39.44292,-11.38538 -4.10101,-2.42057 -102.00408,-59.28711 -207.64842,-59.28711 -7.92257,0 -15.81494,0.32476 -23.427859,0.97427 l -79.255917,3.7045 c -0.16253,0 -0.3247574,0.0151 -0.4720312,0.0151 -4.4673027,0 -8.3908256,-3.03988 -9.51237165,-7.37501 -1.136651,-4.5164 1.01581105,-9.2216 5.20744765,-11.28721 C 54.301754,78.002045 89.840035,65.75944 111.49305,59.59283 98.321491,52.30844 79.45535,42.36559 56.265404,31.52397 52.239922,29.65096 49.99683,25.32714 50.748303,20.9618 c 0.751474,-4.36535 4.323806,-7.68467 8.71936,-8.11139 0.675948,-0.0604 16.43046,-1.57847 37.732282,-1.57847 12.877015,0 25.017655,0.57399 36.123605,1.66533 37.64543,3.70072 110.11543,16.21144 186.12757,58.05983 1.13666,-9.24804 2.4659,-15.31269 2.481,-15.38444 l 1.40099,-6.68396 c 0.6193,-2.99457 2.6396,-5.5322 5.38115,-6.84256 l 6.29879,-2.97946 c 19.66293,-9.36887 43.37022,-14.08918 70.42327,-14.08918 55.21254,0 106.98869,19.85552 109.15626,20.71272 l 13.98345,5.38115 5.09038,0.19274 C 531.08346,46.36101 529.72778,40.84769 529.72778,35.10779 529.72778,15.7545 545.4974,0 564.88089,0 584.24549,0 600,15.75451 600,35.10779 c 0,19.39858 -15.75451,35.15309 -35.11911,35.15309 -0.57777,0 -1.15176,-0.0151 -1.72952,-0.0302 l 0.87231,3.4817 c 0.63441,2.56407 0.23413,5.279203 -1.15176,7.50719 L 453.30405,259.64733 c -1.41609,2.31484 -3.73471,3.93863 -6.41962,4.47108 -0.66084,0.16223 -1.32546,0.21902 -1.97498,0.21902"
     style="fill:#ffffff"
     id="path15" />
  <path
     d="m 485.10385,144.17703 c 0,0 -3.52324,-11.09461 -10.82651,-26.72828 0,0 20.21049,-22.317634 48.40019,-36.924166 z M 564.86578,9.81054 c -13.97212,0 -25.31597,11.32875 -25.31597,25.32731 0,6.9634 2.83218,13.28862 7.39389,17.87676 l -4.97332,8.45124 -15.39954,-0.6042 C 519.41485,58.10499 511.05423,54.87252 511.05423,54.87252 506.8626,53.25251 407.57368,15.49002 339.23489,47.96954 l -6.28367,2.99457 -1.46141,6.80102 c -0.17764,0.88364 -2.77555,13.54163 -3.59877,29.382995 C 246.33158,38.66109 166.01076,26.03708 132.34928,22.70266 96.301197,19.14543 60.42683,22.62716 60.42683,22.62716 c 47.99613,22.42337 77.41311,40.91944 77.41311,40.91944 0,0 -44.034843,6.03444 -128.0261772,47.23333 l 78.9198312,-3.70076 c 117.592406,-9.897551 232.046766,56.82121 236.869036,59.6534 19.48545,11.53267 38.92936,11.87254 50.0202,7.29949 26.95109,-11.09083 22.0684,-44.57862 22.0684,-44.57862 17.95229,1.83148 39.2239,7.53739 61.08461,21.40379 l 15.36933,10.01839 -46.9501,81.12894 17.72949,12.52581 109.57164,-178.42777 -2.09582,-8.34929 5.01486,-8.54188 c 2.36016,0.73637 4.83738,1.25372 7.45054,1.25372 13.99856,0 25.32731,-11.34385 25.32731,-25.3273 0,-13.99856 -11.32875,-25.32731 -25.32731,-25.32731"
     id="path16" />
  <path
     d="M 332.75863,154.60703 C 309.80658,141.0503 199.18889,83.655095 87.551628,93.035298 c 0,0 44.858072,-15.637448 82.412862,-21.890918 0,0 -8.33418,-13.55673 -54.23826,-35.47786 0,0 102.25327,1.0498 208.68311,65.73317 0,0 0,17.72949 6.26857,32.36245 6.25347,14.58765 15.63745,10.4149 15.63745,10.4149 0,0 14.61786,11.49112 27.1399,15.64877 0,0 -17.74459,8.34929 -40.69663,-5.21878"
     style="fill:#ffffff"
     id="path17" />
  <g
     transform="matrix(3.7762492,0,0,-3.7762492,-1178.568,1579.2839)"
     id="g18">
    <path
       d="m 357.109,399.375 c -9.945,-1.656 -21.824,-5.797 -21.824,-5.797 v 0 c 9.731,0.817 19.434,-0.281 28.285,-2.254 v 0 l -3.558,15.121 c -10.407,2.254 -17.266,2.325 -17.266,2.325 v 0 c 12.156,-5.805 14.363,-9.395 14.363,-9.395"
       style="fill:url(#linearGradient3038)"
       id="path18" />
  </g>
  <g
     transform="matrix(3.7762492,0,0,-3.7762492,-1178.568,1579.2839)"
     id="g19">
    <path
       d="m 374.676,388.316 c 12.715,-4.046 22.344,-9.156 25.543,-11.043 v 0 c 6.078,-3.593 10.777,-1.382 10.777,-1.382 v 0 c -3.316,1.101 -7.187,4.144 -7.187,4.144 v 0 c 0,0 -2.485,-1.105 -4.141,2.758 v 0 c -1.66,3.875 -1.66,8.566 -1.66,8.566 v 0 c -5.863,3.571 -11.688,6.403 -17.223,8.661 v 0 z"
       style="fill:url(#linearGradient3040)"
       id="path19" />
  </g>
  <path
     d="m 383.50009,146.77132 -15.26738,-7.81684 c 7.30327,-6.25347 15.65255,-5.19234 15.65255,-5.19234 z"
     style="fill:#4d4d4d"
     id="path20" />
  <path
     d="m 464.23252,105.57245 -12.50694,-1.04602 14.60276,34.42806 C 403.71057,99.303871 344.23465,120.1903 344.23465,120.1903 c -6.26858,-25.059184 1.04602,-59.50613 1.04602,-59.50613 63.65246,-30.25153 160.68318,7.31837 160.68318,7.31837 -31.28623,20.871331 -41.73133,37.56991 -41.73133,37.56991"
     style="fill:#ffffff"
     id="path21" />
  <g
     transform="matrix(3.7762492,0,0,-3.7762492,-1178.568,1579.2839)"
     id="g22">
    <path
       d="m 420.43,397.895 c -1.95,-3.68 -4.332,-10.125 -4.332,-10.125 v 0 c 5.59,-0.332 12.464,-1.907 19.492,-6.352 v 0 l -3.867,9.117 3.312,-0.277 c 0,0 2.766,4.422 11.051,9.949 v 0 c 0,0 -9.227,3.574 -20.25,4.711 v 0 c 0,0 -3.453,-3.34 -5.406,-7.023"
       style="fill:url(#linearGradient3042)"
       id="path22" />
  </g>
</svg>
