<svg xmlns="http://www.w3.org/2000/svg" xml:space="preserve" width="240.5" height="175"><g transform="translate(-2.635 -2.35)"><path d="M238.614 101.924c-2.812 1.021-30.206 10.533-30.206 10.533L186.165 89.85l22.243-22.608s27.395 9.512 30.206 10.531c1.86.676 3.569.85 4.037.296 1.881-2.217-2.25-9.308-3.462-11.513-22.38-40.756-66.973-54.988-68.751-55.695-3.312-1.315-14.108-4.981-15.167-2.635-.864 1.921-.038 2.86 2.146 4.516 3.713 2.816 9.03 8.598 9.03 12.833 0 2.292-1.571 8.241-8.749 8.241-2.351 0-4.544-1.163-6.757-2.952L122.886 2.35 94.832 30.862c-2.215 1.79-4.409 2.955-6.759 2.955-7.178 0-8.751-5.949-8.751-8.241 0-4.235 5.319-10.017 9.033-12.833 2.182-1.656 3.011-2.595 2.146-4.516-1.062-2.347-11.856 1.32-15.167 2.635-1.781.706-46.372 14.938-68.751 55.694-1.212 2.205-5.343 9.296-3.464 11.513.47.554 2.179.38 4.04-.296 2.811-1.019 30.203-10.531 30.203-10.531L59.607 89.85l-22.246 22.607s-27.392-9.512-30.203-10.533c-1.86-.674-3.57-.848-4.04-.296-1.879 2.22 2.252 9.308 3.464 11.513 22.38 40.756 66.971 54.988 68.751 55.697 3.312 1.315 14.106 4.981 15.167 2.633.864-1.921.035-2.86-2.146-4.516-3.713-2.816-9.033-8.599-9.033-12.833 0-2.293 1.573-8.241 8.751-8.241 2.349 0 4.542 1.162 6.757 2.952l28.057 28.517 28.056-28.52c2.213-1.787 4.406-2.949 6.757-2.949 7.178 0 8.749 5.948 8.749 8.241 0 4.234-5.317 10.017-9.03 12.833-2.185 1.655-3.011 2.595-2.146 4.516 1.059 2.349 11.855-1.317 15.167-2.633 1.778-.709 46.371-14.941 68.751-55.697 1.212-2.205 5.343-9.293 3.462-11.513-.468-.552-2.177-.378-4.038.296M133.147 57.206l-10.261 10.43-10.261-10.43 10.261-10.43zm-20.522 65.287 10.261-10.431 10.261 10.431-10.261 10.43z"/><radialGradient id="a" cx="122.886" cy="89.85" r="96.236" gradientUnits="userSpaceOnUse"><stop offset="0" style="stop-color:#f7981d"/><stop offset=".367" style="stop-color:#f6961d"/><stop offset=".523" style="stop-color:#f08f1f"/><stop offset=".638" style="stop-color:#e78221"/><stop offset=".7" style="stop-color:#e07823"/><stop offset=".767" style="stop-color:#de7423"/><stop offset=".837" style="stop-color:#d86724"/><stop offset=".908" style="stop-color:#ce5324"/><stop offset=".979" style="stop-color:#c03626"/><stop offset="1" style="stop-color:#bb2c26"/></radialGradient><path fill="url(#a)" d="m68.913 122.493 17.131 17.408c-8.756.99-12.816 8.337-12.816 14.221 0 5.533 2.595 8.243 2.595 8.243s-42.447-13.098-63.896-52.158l27.094 9.259L68.159 89.85 39.02 60.233l-27.094 9.258c21.45-39.062 63.896-52.158 63.896-52.158s-2.595 2.71-2.595 8.241c0 5.883 4.061 13.232 12.816 14.221l-17.131 17.41L101.03 89.85Zm107.944 0-17.129 17.408c8.756.99 12.816 8.337 12.816 14.221 0 5.533-2.598 8.243-2.598 8.243s42.449-13.098 63.899-52.158l-27.097 9.259-29.135-29.616 29.137-29.616 27.097 9.258c-21.45-39.062-63.899-52.158-63.899-52.158s2.598 2.71 2.598 8.241c0 5.883-4.061 13.232-12.816 14.221l17.129 17.41L144.74 89.85zm-49.697-14.777 14.538 14.777-18.812 19.12-18.815-19.12 64.234-65.287-45.419-46.164-45.42 46.164 27.84 28.299 13.303-13.523-14.538-14.775 18.815-19.122 18.812 19.122-64.232 65.287 45.42 46.164 45.419-46.164-27.84-28.299z" style="fill:url(#a)"/></g></svg>