<svg xmlns="http://www.w3.org/2000/svg" xml:space="preserve" width="240.5" height="175"><g transform="translate(-2.302 -2.35)"><path d="M238.28 101.924c-2.812 1.021-30.206 10.533-30.206 10.533L185.831 89.85l22.243-22.608s27.395 9.512 30.206 10.531c1.86.676 3.569.85 4.037.296 1.881-2.217-2.25-9.308-3.462-11.513-22.38-40.756-66.973-54.988-68.751-55.695-3.312-1.315-14.108-4.981-15.167-2.635-.864 1.921-.038 2.86 2.146 4.516 3.713 2.816 9.03 8.598 9.03 12.833 0 2.292-1.571 8.241-8.749 8.241-2.351 0-4.544-1.163-6.757-2.952L122.552 2.35 94.498 30.862c-2.215 1.79-4.409 2.955-6.759 2.955-7.178 0-8.75-5.949-8.75-8.241 0-4.235 5.318-10.017 9.032-12.833 2.182-1.656 3.011-2.595 2.146-4.516C89.106 5.879 78.311 9.546 75 10.861c-1.779.707-46.372 14.939-68.751 55.695-1.212 2.205-5.344 9.296-3.463 11.513.469.554 2.178.38 4.037-.296 2.813-1.019 30.206-10.531 30.206-10.531L59.272 89.85l-22.244 22.607s-27.393-9.512-30.206-10.533c-1.859-.674-3.568-.848-4.037-.296-1.881 2.22 2.251 9.308 3.463 11.513 22.38 40.756 66.972 54.988 68.751 55.697 3.312 1.315 14.107 4.981 15.167 2.633.865-1.921.036-2.86-2.146-4.516-3.713-2.816-9.032-8.599-9.032-12.833 0-2.293 1.572-8.241 8.75-8.241 2.35 0 4.543 1.162 6.757 2.952l28.057 28.517 28.056-28.52c2.213-1.787 4.406-2.949 6.757-2.949 7.178 0 8.749 5.948 8.749 8.241 0 4.234-5.317 10.017-9.03 12.833-2.185 1.655-3.011 2.595-2.146 4.516 1.059 2.349 11.855-1.317 15.167-2.633 1.778-.709 46.371-14.941 68.751-55.697 1.212-2.205 5.343-9.293 3.462-11.513-.468-.552-2.177-.378-4.038.296M132.813 57.206l-10.261 10.43-10.261-10.43 10.261-10.43zm-20.522 65.287 10.261-10.431 10.261 10.431-10.261 10.43z"/><linearGradient id="a" x1="11.592" x2="233.513" y1="89.85" y2="89.85" gradientUnits="userSpaceOnUse"><stop offset="0" style="stop-color:#612c75"/><stop offset=".015" style="stop-color:#643078"/><stop offset=".13" style="stop-color:#754889"/><stop offset=".2" style="stop-color:#7b5190"/><stop offset=".234" style="stop-color:#8c639d"/><stop offset=".291" style="stop-color:#a37bae"/><stop offset=".352" style="stop-color:#b38cba"/><stop offset=".418" style="stop-color:#bc96c1"/><stop offset=".5" style="stop-color:#bf99c3"/><stop offset=".582" style="stop-color:#bc96c1"/><stop offset=".648" style="stop-color:#b38cba"/><stop offset=".709" style="stop-color:#a37bae"/><stop offset=".766" style="stop-color:#8c639d"/><stop offset=".8" style="stop-color:#7b5190"/><stop offset=".87" style="stop-color:#754889"/><stop offset=".985" style="stop-color:#643078"/><stop offset="1" style="stop-color:#612c75"/></linearGradient><path fill="url(#a)" d="m68.58 122.493 17.128 17.408c-8.754.99-12.815 8.337-12.815 14.221 0 5.533 2.596 8.243 2.596 8.243s-42.448-13.098-63.897-52.158l27.094 9.259L67.825 89.85 38.686 60.233l-27.094 9.258c21.45-39.062 63.897-52.158 63.897-52.158s-2.596 2.71-2.596 8.241c0 5.883 4.061 13.232 12.815 14.221L68.58 57.206l32.116 32.644Zm107.943 0-17.129 17.408c8.756.99 12.816 8.337 12.816 14.221 0 5.533-2.598 8.243-2.598 8.243s42.449-13.098 63.899-52.158l-27.097 9.259-29.135-29.616 29.137-29.616 27.097 9.258c-21.45-39.062-63.899-52.158-63.899-52.158s2.598 2.71 2.598 8.241c0 5.883-4.061 13.232-12.816 14.221l17.129 17.41-32.119 32.644zm-49.697-14.777 14.538 14.777-18.812 19.12-18.814-19.12 64.233-65.287-45.419-46.164-45.421 46.164 27.842 28.299 13.303-13.523-14.537-14.775 18.814-19.122 18.812 19.122-64.233 65.287 45.421 46.164 45.419-46.164-27.84-28.299z" style="fill:url(#a)"/></g></svg>