<svg xmlns="http://www.w3.org/2000/svg" xmlns:xlink="http://www.w3.org/1999/xlink" width="600" height="646.397"><radialGradient id="a" cx="0" cy="0" r="1" fx="0" fy="0" gradientTransform="matrix(17.81088 0 0 -17.81087 496.064 372.094)" gradientUnits="userSpaceOnUse" spreadMethod="pad"><stop offset="0" style="stop-color:#bf331c"/><stop offset=".3" style="stop-color:#d3641c"/><stop offset=".5" style="stop-color:#f6b91d"/><stop offset=".7" style="stop-color:#d3641c"/><stop offset="1" style="stop-color:#bf331c"/></radialGradient><radialGradient xlink:href="#a" id="b" cx="0" cy="0" r="1" fx="0" fy="0" gradientTransform="matrix(287.82196 0 0 287.8217 300 323.202)" gradientUnits="userSpaceOnUse" spreadMethod="pad"/><path d="M359.995 646.396a24.05 24.05 0 0 1-22.98-16.984c-3.022-10.036.824-20.944 9.47-26.89.888-.567 84.144-57.82 102.389-133.82.259-.889.517-1.827.825-2.715-2.65-6.626-2.327-14.383 1.583-21.024 2.457-4.218 13.882-24.483 20.33-49.482-2.02-1.519-3.927-3.28-5.43-5.365a23.85 23.85 0 0 1-4.299-18.05c.324-2.28.76-5.366 1.196-9.034-38.121 27.52-94.374 138.442-123.979 213.36a23.88 23.88 0 0 1-22.284 15.222h-33.645c-9.712 0-18.616-5.883-22.268-15.158-29.67-74.982-85.858-185.904-123.979-213.424.436 3.668.873 6.755 1.196 9.033a23.85 23.85 0 0 1-4.299 18.051c-1.567 2.085-3.41 3.846-5.494 5.365 6.577 25.064 17.937 45.264 20.394 49.482 3.91 6.641 4.234 14.398 1.583 21.024.308.888.63 1.826.824 2.715 18.228 76 101.5 133.254 102.324 133.82 8.71 5.946 12.557 16.854 9.47 26.89-3.103 10.1-12.378 16.984-22.915 16.984-22.22 0-119.308-37.928-182.25-126.177-1.762-2.408-2.958-5.058-3.718-7.837a25.9 25.9 0 0 1-5.882-6.367c-17.792-28.038-30.8-58.774-38.751-91.288-.825-3.215-.89-6.496-.373-9.582-1.777-2.667-2.973-5.689-3.539-8.904C1.891 376.412 0 355.582 0 334.445c0-20.846 1.697-41.288 5.107-60.793.758-4.428 2.65-8.339 5.365-11.49-1.196-4.04-1.326-8.468-.243-12.62 4.282-17.114 10.1-33.84 17.226-49.806 2.279-5.365 6.383-9.405 11.247-11.877-.954-5.3-.129-10.973 2.764-16.096 8.532-15.028 18.567-29.798 29.863-43.938 1.762-2.263 3.975-4.153 6.383-5.608 1.067-2.65 2.521-5.187 4.477-7.385 4.993-5.753 10.293-11.554 15.836-17.178 4.299-4.411 8.775-9.21 13.138-13.816 13.752-14.835 26.89-28.91 40.335-37.12 30.866-18.81 57.578-27.585 58.71-27.973 2.456-.743 4.912-1.13 7.384-1.13 6.884 0 13.575 2.973 18.18 8.338a23.6 23.6 0 0 1 2.957 4.282C253.952 12.75 275.348 0 299.911 0c24.676 0 46.136 12.75 61.343 30.235a24.5 24.5 0 0 1 2.973-4.282c4.606-5.365 11.296-8.339 18.18-8.339 2.456 0 4.929.388 7.385 1.131 1.083.388 27.844 9.163 58.709 27.973 13.445 8.21 26.518 22.285 40.4 37.12 4.298 4.605 8.775 9.405 13.057 13.816 5.559 5.624 10.86 11.425 15.917 17.178a22.3 22.3 0 0 1 4.347 7.385 23 23 0 0 1 6.448 5.608c11.296 14.14 21.331 28.91 29.848 43.938 2.908 5.123 3.732 10.795 2.714 16.096 4.93 2.472 9.034 6.512 11.312 11.877 7.127 15.966 12.88 32.692 17.227 49.805 1.019 4.153.954 8.581-.259 12.62 2.715 3.152 4.622 7.063 5.365 11.49C598.24 293.158 600 313.6 600 334.446c0 21.137-1.826 41.967-5.43 61.796-.63 3.215-1.826 6.237-3.603 8.904.517 3.086.452 6.367-.373 9.582-7.95 32.514-20.96 63.25-38.816 91.288a24.5 24.5 0 0 1-5.817 6.367c-.76 2.78-1.956 5.43-3.717 7.837-62.943 88.25-160.032 126.177-182.251 126.177" style="fill:#fff"/><path d="M359.995 636.684c-6.303 0-11.797-4.04-13.623-10.1-1.907-6.06.372-12.508 5.607-15.982 9.276-6.561 88.25-64.058 106.3-139.622l1.276-3.41-.89-5.122c-1.583-4.153-1.26-8.71 1.002-12.621 2.344-3.976 14.464-25.436 21.348-51.954l1.697-6.432-5.43-3.91c-1.196-.825-2.392-1.956-3.28-3.216a13.96 13.96 0 0 1-2.586-10.682c.372-2.521.888-5.737 1.26-9.648l2.279-21.525-17.615 12.686c-41.918 30.3-100.304 149.608-127.259 217.658-2.149 5.542-7.385 9.081-13.315 9.081h-33.597c-5.801 0-11.166-3.603-13.251-8.968-26.89-68.098-85.276-187.407-127.26-217.771L125.11 342.46l2.214 21.525c.372 3.911.89 7.127 1.26 9.583.63 3.862-.372 7.709-2.585 10.86-.89 1.148-2.02 2.278-3.216 3.102l-5.494 3.846 1.632 6.497c6.949 26.518 19.133 47.914 21.477 51.954 2.197 3.846 2.52 8.403.872 12.62l-1.39 3.604 1.39 3.604c18.503 76.889 97.46 134.386 106.43 140.704 5.558 3.782 7.82 10.165 5.93 16.225-1.826 6.06-7.32 10.1-13.688 10.1-20.264 0-114.33-38.073-174.349-122.153-.954-1.325-1.713-2.909-2.214-4.606l-.76-3.28-2.715-2.02c-1.325-.954-2.585-2.279-3.603-3.846-17.162-27.084-29.783-56.754-37.427-88.314-.566-1.955-.566-3.862-.323-5.688l.647-3.717-2.036-3.167a14.8 14.8 0 0 1-2.198-5.495c-3.475-19.246-5.236-39.51-5.236-59.953 0-20.329 1.697-40.222 4.913-59.161.452-2.521 1.583-4.848 3.215-6.804l3.41-3.991-1.503-5.107c-.694-2.343-.759-4.993-.129-7.514 4.17-16.402 9.712-32.627 16.66-48.221 1.39-3.103 3.734-5.624 6.82-7.143l6.432-3.216-1.325-7.19c-.565-3.281 0-6.562 1.713-9.6 8.144-14.333 17.921-28.716 28.974-42.613 1.067-1.39 2.263-2.457 3.717-3.28l2.974-1.762 1.195-3.216c.695-1.648 1.52-3.167 2.65-4.428 4.93-5.607 10.1-11.296 15.53-16.79a849 849 0 0 0 13.251-13.946C131.67 76 144.242 62.49 156.556 55.041c28.587-17.485 53.845-26.131 56.608-27.068 1.454-.453 2.909-.631 4.428-.631 4.234 0 8.144 1.761 10.794 4.912.76.889 1.326 1.649 1.762 2.473l6.56 12.62 9.293-10.73c15.142-17.355 34.21-26.89 53.91-26.89 19.811 0 38.944 9.535 54.022 26.89l9.162 10.537 6.69-12.25c.5-.937 1.067-1.76 1.827-2.65 2.65-3.15 6.56-4.912 10.794-4.912 1.52 0 2.974.178 4.299.63 2.893.938 28.15 9.584 56.737 27.069 12.314 7.514 24.935 21.088 38.315 35.422 4.364 4.67 8.97 9.47 13.268 13.946a439 439 0 0 1 15.53 16.79c1.13 1.26 2.02 2.78 2.65 4.428l1.195 3.216 2.974 1.761c1.39.76 2.65 1.891 3.717 3.28a331.4 331.4 0 0 1 29.039 42.679c1.648 2.909 2.15 6.319 1.584 9.664l-1.278 7.061 6.513 3.216c3.086 1.52 5.365 4.04 6.755 7.143a307 307 0 0 1 16.66 48.221c.631 2.521.567 5.171-.129 7.514l-1.567 5.107 3.523 4.04c1.583 1.842 2.65 4.17 3.102 6.755 3.345 19.068 4.977 38.961 4.977 59.161 0 20.507-1.761 40.772-5.235 60.083a14.9 14.9 0 0 1-2.214 5.365l-2.02 3.102.582 3.653c.372 2.02.243 3.91-.194 5.752-7.644 31.431-20.265 61.166-37.556 88.427a13.7 13.7 0 0 1-3.539 3.798l-2.65 2.02-.824 3.28c-.5 1.633-1.196 3.216-2.214 4.606-60.082 84.08-154.084 122.153-174.413 122.153"/><path d="M241.446 72.849c-7.127 22.349-7.951 38.38-9.519 54.346-1.583 16.046-11.118 87.247 68.098 87.247 79.168 0 69.698-71.2 68.05-87.247-1.568-15.966-2.328-31.997-9.583-54.346-7.208-22.414-29.928-48.852-58.58-48.852-28.797 0-51.194 26.438-58.466 48.852m56.882 90.269c-12.75-.76-21.654-11.167-21.654-31.884 0-21.638 22.479-51.194 22.479-51.194s22.349 29.556 22.349 51.194c0 20.717-8.84 31.124-21.59 31.884v.065h-1.584zm98.85-57.513c4.865 22.802 10.795 45.587-5.995 88.83-16.79 43.164-74.416 40.772-74.416 40.772v32.385c127.259 4.411 171.182 69.245 171.182 69.245.63 17.29-1.326 32.126-2.392 39.01 0 0 26.518 3.781 40.836 6.56 14.334 2.78 44.504 9.535 44.504 9.535 3.28-17.921 5.058-37.12 5.058-57.497 0-20.264-1.648-39.074-4.67-56.689l-62.506 9.47v-17.614l57.707-14.205c-4.17-16.483-9.535-31.819-15.853-46.023l-21.073 8.209-10.358-9.599-.824-12.75 19.31-11.603c-8.516-14.964-17.92-28.474-27.762-40.852l-29.104 24.434-8.84-11.991 27.78-24.628c-4.994-5.672-9.923-11.037-14.965-16.224-17.161-17.55-34.404-38.38-48.802-47.155-28.781-17.598-53.587-25.63-53.587-25.63 11.991 23.998 9.971 41.224 14.77 64.01m-233.187-38.38C149.61 76 132.366 96.83 115.205 114.38c-5.059 5.187-9.971 10.552-14.965 16.224l27.78 24.628-8.776 11.99-29.168-24.433c-9.841 12.378-19.247 25.888-27.714 40.852l19.262 11.603-.824 12.75-10.423 9.599-21.008-8.21c-6.318 14.205-11.683 29.541-15.853 46.024l57.707 14.205v17.614l-62.442-9.47c-3.086 17.615-4.8 36.425-4.8 56.69 0 20.377 1.843 39.575 5.124 57.496 0 0 30.17-6.755 44.504-9.534 14.318-2.78 40.9-6.561 40.9-6.561-1.13-6.884-3.086-21.72-2.52-39.01 0 0 44.052-64.834 171.181-69.245v-32.385s-57.561 2.392-74.351-40.771c-16.855-43.244-10.795-66.03-5.996-88.831 4.8-22.786 2.78-40.012 14.835-64.01 0 0-24.87 8.032-53.667 25.63m152.776 500.391s79.28-200.415 142.837-230.408c0 0-38.444-40.77-142.837-40.77zm-176.37-230.408C204.02 367.201 283.17 567.616 283.17 567.616V296.437c-104.409 0-142.772 40.771-142.772 40.771m331.585 119.875L531.58 493.2c15.271-24.11 27.828-52.019 35.714-84.145 0 0-21.638-8.467-34.453-11.425-12.88-3.038-35.164-8.467-35.164-8.467-6.319 33.467-21.961 61.617-25.694 67.92M67.16 397.63c-12.815 2.958-34.469 11.425-34.469 11.425 7.902 32.126 20.459 60.034 35.794 84.145l59.533-36.117c-3.668-6.303-19.375-34.453-25.63-67.92 0 0-22.348 5.43-35.228 8.467m292.834 224.784c12.184 0 102.776-32.255 162.746-116.157l-50.5-31.932c-20.765 86.294-112.246 148.09-112.246 148.09M77.26 506.256c59.905 83.902 150.562 116.157 162.746 116.157 0 0-91.53-61.795-112.246-148.089z" style="fill:url(#b)"/></svg>