<svg xmlns="http://www.w3.org/2000/svg" width="552.033" height="598.482"><path d="M275.895 139.136v.064h-1.584v-.064c-12.751-.76-21.592-11.168-21.592-31.887 0-21.64 22.417-51.2 22.417-51.2s22.416 29.56 22.416 51.2c0 20.719-8.905 31.127-21.657 31.887m68.235-35.928c-1.633-15.968-2.392-32-9.584-54.351C327.338 26.44 304.55 0 275.896 0c-28.785 0-51.2 26.44-58.393 48.857-7.208 22.351-8.032 38.384-9.6 54.351-1.584 16.049-11.119 87.257 68.122 87.257 79.16 0 69.689-71.208 68.105-87.257m163.458 366.045c15.273-24.113 27.895-52.024 35.734-84.154 0 0-21.592-8.468-34.473-11.426-12.88-3.038-35.168-8.469-35.168-8.469-6.254 33.471-21.963 61.625-25.697 67.928zm-59.345-18.877C427.54 536.68 336.049 598.481 336.049 598.481c12.121 0 102.788-32.258 162.699-116.17zm98.731-82.392c3.281-17.923 5.059-37.123 5.059-57.503 0-20.267-1.713-39.079-4.735-56.695l-62.449 9.47v-17.615l57.649-14.206c-4.17-16.485-9.536-31.823-15.79-46.029l-21.075 8.21-10.424-9.6-.76-12.751 19.265-11.604c-8.533-14.966-17.94-28.477-27.782-40.857l-29.107 24.437-8.84-11.992 27.782-24.63A383 383 0 0 0 460.8 90.391c-17.164-17.552-34.408-38.384-48.792-47.16-28.735-17.6-53.608-25.632-53.608-25.632 11.992 24 10.036 41.228 14.836 64.016 4.8 22.804 10.796 45.592-6.06 88.84-16.792 43.168-74.36 40.777-74.36 40.777v32.387c127.208 4.413 171.2 69.253 171.2 69.253.582 17.293-1.325 32.13-2.456 39.014 0 0 26.521 3.782 40.84 6.562 14.336 2.78 44.574 9.535 44.574 9.535M292.817 272.47v271.208s79.224-200.436 142.804-230.432c0 0-38.384-40.776-142.804-40.776M103.985 433.132c-3.653-6.303-19.378-34.457-25.633-67.928 0 0-22.287 5.43-35.167 8.47-12.865 2.957-34.457 11.425-34.457 11.425 7.822 32.13 20.444 60.04 35.717 84.154zm-50.764 49.18c59.976 83.91 150.578 116.17 162.764 116.17 0 0-91.475-61.803-112.194-148.106zm-3.653-123.863c14.4-2.78 40.905-6.562 40.905-6.562-1.13-6.885-3.022-21.721-2.456-39.014 0 0 43.992-64.84 171.216-69.253v-32.387s-57.648 2.391-74.44-40.776c-16.792-43.249-10.796-66.037-5.996-88.84 4.8-22.789 2.78-40.017 14.836-64.017 0 0-24.873 8.032-53.592 25.632-14.464 8.776-31.628 29.608-48.873 47.16-4.977 5.188-9.971 10.554-14.965 16.226l27.782 24.63-8.776 11.993-29.172-24.437c-9.842 12.38-19.248 25.891-27.701 40.857l19.249 11.604-.825 12.751-10.344 9.6-21.09-8.21A291.5 291.5 0 0 0 9.47 231.435l57.713 14.206v17.616l-62.449-9.47C1.648 271.401 0 290.213 0 310.48c0 20.38 1.778 39.58 5.059 57.503 0 0 30.173-6.755 44.509-9.535m209.665-85.98v271.208s-79.24-200.436-142.805-230.432c0 0 38.384-40.776 142.805-40.776"/></svg>