<?xml version="1.0" encoding="UTF-8" standalone="no"?>
<svg
   version="1.1"
   width="600"
   height="510.37814"
   id="svg9"
   xmlns:xlink="http://www.w3.org/1999/xlink"
   xmlns="http://www.w3.org/2000/svg"
   xmlns:svg="http://www.w3.org/2000/svg">
  <defs
     id="defs9" />
  <radialGradient
     cx="0"
     cy="0"
     r="1"
     fx="0"
     fy="0"
     id="radialGradient416"
     gradientUnits="userSpaceOnUse"
     gradientTransform="matrix(17.570526,0,0,-17.570526,481.19141,483.6748)"
     spreadMethod="pad">
    <stop
       style="stop-color:#f6b91d"
       offset="0"
       id="stop1" />
    <stop
       style="stop-color:#d3641c"
       offset="0.7"
       id="stop2" />
    <stop
       style="stop-color:#bf331c"
       offset="1"
       id="stop3" />
  </radialGradient>
  <radialGradient
     cx="0"
     cy="0"
     r="1"
     fx="0"
     fy="0"
     id="radialGradient2997"
     xlink:href="#radialGradient416"
     gradientUnits="userSpaceOnUse"
     gradientTransform="matrix(21.963157,0,0,21.963157,268.57881,623.8494)"
     spreadMethod="pad" />
  <radialGradient
     cx="0"
     cy="0"
     r="1"
     fx="0"
     fy="0"
     id="radialGradient3002"
     xlink:href="#radialGradient416"
     gradientUnits="userSpaceOnUse"
     gradientTransform="matrix(21.963157,0,0,21.963157,268.57881,623.8494)"
     spreadMethod="pad" />
  <radialGradient
     cx="0"
     cy="0"
     r="1"
     fx="0"
     fy="0"
     id="radialGradient3003"
     xlink:href="#radialGradient416"
     gradientUnits="userSpaceOnUse"
     gradientTransform="matrix(224.17579,0,0,224.17579,300.07536,255.78742)"
     spreadMethod="pad" />
  <path
     d="M 419.38884,0 H 179.56492 l -1.14828,0.15310353 C 162.27698,1.9010355 139.84731,13.562421 132.37076,38.084503 112.03351,43.762092 35.379674,65.094517 35.379674,65.094517 l -0.944138,0.396028 C 21.230356,70.530203 0,87.626764 0,118.77058 c 0,5.62655 0.65017966,11.66138 2.1944839,18.14277 l 91.5048771,341.48466 2.487932,3.34276 c 10.360007,13.80484 35.532777,34.98416 64.290717,26.71657 0,0 128.92593,-35.43071 139.59215,-38.37795 10.61518,2.94724 139.758,38.48002 139.758,38.48002 28.55381,8.16552 53.71382,-13.0138 64.08659,-26.81864 l 2.48793,-3.34276 91.35177,-340.83397 c 1.55656,-6.68552 2.24552,-12.8607 2.24552,-18.58932 0,-31.450025 -21.17932,-48.444517 -34.33346,-53.484175 l -0.94414,-0.396028 c 0,0 -76.6028,-21.332425 -96.94005,-27.010014 C 460.25473,13.562421 437.87609,1.9010355 421.68539,0.15310353 L 420.53712,0 Z"
     id="path3" />
  <path
     d="m 180.76423,21.778977 c 0,0 -29.40863,3.138622 -29.40863,33.542432 L 42.256575,85.776252 c 0,0 -27.303463,10.462075 -18.933804,46.147958 L 113.5773,468.73922 c 0,0 18.89553,25.10898 40.91692,18.83173 l 145.57594,-40.02381 145.53766,40.02381 c 22.02139,6.27725 40.91692,-18.83173 40.91692,-18.83173 l 90.2035,-336.81501 c 8.42069,-35.685883 -18.8445,-46.147958 -18.8445,-46.147958 L 448.74644,55.321409 c 0,-30.40381 -29.3576,-33.542432 -29.3576,-33.542432 z"
     style="fill:#bf331c"
     id="path4" />
  <path
     d="m 181.65734,34.346225 c -1.33966,0.241904 -5.52449,1.186552 -9.51794,3.840347 -5.57552,3.725519 -8.21656,9.160694 -8.21656,17.134837 v 9.56897 c 0,0 -115.784538,32.304845 -117.481436,32.751397 -2.985518,1.441725 -12.107937,6.876904 -12.107937,21.370704 0,2.94725 0.408276,6.23897 1.30138,9.97725 0.153103,0.60016 87.957973,328.48362 89.412463,333.76569 3.82758,4.38897 15.24656,15.79519 26.01484,12.75863 l 149.00801,-41.01899 149.02077,41.01899 c 10.71724,3.03656 22.12346,-8.36966 25.9638,-12.75863 1.45449,-5.28207 89.3104,-333.16604 89.4635,-333.76569 0.84207,-3.73828 1.25035,-7.03 1.25035,-9.97725 0,-14.4938 -9.07139,-19.928979 -12.1207,-21.370704 C 551.96374,97.194714 436.1792,64.890379 436.1792,64.890379 v -9.56897 c 0,-7.974143 -2.64104,-13.409318 -8.16553,-17.134837 -3.99345,-2.653795 -8.22931,-3.597933 -9.56897,-3.840347 z"
     id="path5" />
  <path
     d="M 438.67989,81.540388 V 405.39263 c 0,0 -2.79414,21.02622 -19.54622,21.02622 h -90.9435 l 121.70455,33.54243 c 0,0 6.96621,3.49587 10.46207,-4.18483 L 549.9096,123.50352 c 0,0 3.49587,-10.46208 -4.87379,-13.25621 z M 55.066237,110.94903 c -8.36966,2.78138 -4.886555,13.30725 -4.886555,13.30725 l 89.514528,332.17086 c 3.53414,7.71897 10.51311,4.23587 10.51311,4.23587 l 121.70455,-33.54243 h -90.90522 c -16.84139,0 -19.5845,-21.03898 -19.5845,-21.03898 V 82.293147 Z M 183.09906,50.090371 H 417.3985 c 4.88655,0 5.62655,6.277245 5.62655,6.277245 V 404.74194 c 0,5.53725 -5.62655,6.92794 -5.62655,6.92794 H 183.09906 c -4.92483,0 -4.92483,-6.92794 -4.92483,-6.92794 V 56.367616 c 0,-4.18483 4.92483,-6.277245 4.92483,-6.277245"
     style="fill:#bf331c"
     id="path6" />
  <path
     d="m 184.40044,55.219238 c -0.59914,0.408276 -1.09724,0.956386 -1.09724,1.199311 v 0 348.221221 c 0,0.85534 0.25517,1.95207 -0.1531,1.95207 v 0 h 233.4446 c 0.59915,-0.3062 1.30138,-0.85533 1.30138,-1.90103 v 0 l 0.051,-347.672606 c -0.10207,-0.702235 -0.49708,-1.645863 -0.54811,-1.798966 v 0 H 184.40091 Z M 443.75782,406.0815 c -1.14828,8.82897 -7.82104,25.42794 -24.62415,25.42794 v 0 H 365.8664 l 86.21005,23.8714 c 0.1531,0.10206 0.8043,0.29395 1.45448,0.29395 v 0 c 0.44706,0 1.28862,0 1.93931,-1.23758 v 0 l 89.6166,-332.52811 c 0.14086,-0.54811 1.68414,-5.67759 -1.40345,-6.7238 v 0 L 443.85989,88.264593 443.75782,406.08201 Z M 56.712099,115.78445 c -3.381036,1.13552 -1.837242,6.27724 -1.594828,7.11931 v 0 l 89.208319,331.43087 c 0.95639,2.04138 1.85,2.04138 2.29655,2.04138 v 0 c 0.6512,0 1.25035,-0.20414 2.24552,-0.6512 v 0 l 85.26591,-23.52691 h -53.12692 c -16.84139,0 -23.46312,-16.58622 -24.71347,-26.06588 v 0 V 88.965297 L 56.712099,115.78394 Z"
     style="fill:url(#radialGradient3003)"
     id="path7" />
  <g
     id="text5657"
     style="fill:#ffffff;stroke:#bf331c;stroke-width:12.7586;stroke-opacity:0.392157"
     transform="translate(-2.72541e-5,2.5217681e-5)">
    <path
       d="m 369.73804,130.61255 c -2.84731,2.03476 -7.52276,3.50951 -14.02637,4.42423 -6.50392,0.91514 -9.90777,2.03322 -10.21157,3.35424 -0.30409,1.32142 -0.45606,3.4056 -0.45592,6.25255 -1.4e-4,9.1433 2.33681,26.06332 7.01086,50.76012 4.67375,24.69708 7.72404,38.67071 9.15087,41.92094 1.8297,13.41702 4.77609,30.49057 8.83917,51.22068 4.06275,20.73022 7.66975,32.16376 10.82101,34.30065 3.15091,2.13692 8.08068,3.20537 14.78934,3.20536 6.70826,1e-5 9.6562,3.55429 8.84382,10.66284 -4.06932,0.81878 -7.2204,1.22818 -9.45326,1.22818 -2.03475,0 -6.10077,-0.45747 -12.19806,-1.3724 -6.09765,-0.91493 -15.7525,-1.3724 -28.96458,-1.3724 -12.19509,0 -20.17205,0.50709 -23.93089,1.52127 -3.7591,1.01418 -5.84329,1.31967 -6.25256,0.91648 -2.02847,-2.03456 -3.04265,-3.76207 -3.04253,-5.18254 -1.2e-4,-2.03456 3.91237,-3.91559 11.73749,-5.64312 7.82485,-1.7275 12.54993,-4.01483 14.17524,-6.86199 -2.64259,-18.0877 -5.33621,-36.32895 -8.08086,-54.72379 -2.74493,-18.39469 -5.03226,-27.99837 -6.86199,-28.81105 -1.83,-0.81248 -16.66739,0.76306 -44.51222,4.72663 -27.84501,3.96377 -42.88709,7.36607 -45.12631,10.20692 -2.84098,9.96198 -5.68502,20.83725 -8.53213,32.62585 -2.84717,11.78871 -4.27074,22.56164 -4.27071,32.31881 -3e-5,2.84717 0.20312,5.84628 0.60944,8.99735 0.40626,3.1511 2.64396,4.72664 6.71312,4.72663 4.67076,-0.40938 9.34466,-0.81877 14.02172,-1.22818 2.03451,0.6141 3.05178,1.93688 3.05184,3.96833 -6e-5,2.03146 -6e-5,3.65818 0,4.88015 l -58.2362,3.96367 c -0.60788,-4.677 -0.91182,-7.62649 -0.91183,-8.84847 1e-5,-1.01108 0.55827,-1.41582 1.67479,-1.21423 1.11653,0.2016 2.58973,0.5071 4.41959,0.91649 2.03456,0 4.01639,-0.71179 5.9455,-2.13536 1.92911,-1.42357 5.58728,-12.24767 10.97454,-32.47233 5.38722,-20.22459 9.50441,-35.51945 12.35158,-45.88462 -3e-5,-0.40931 -0.15355,0.20013 -0.46057,1.82831 -0.30707,1.62835 -0.46059,2.54173 -0.46057,2.74015 l 29.88571,-111.28054 c -5.89903,-2.03437 -11.79491,-4.16818 -17.68765,-6.40143 -28.86224,-1.42027 -43.29333,-5.58553 -43.29334,-12.4958 16.25787,1.01129 33.22906,1.97429 50.91364,2.88902 17.68449,0.91514 30.49042,1.3726 38.41784,1.3724 11.99016,2e-4 25.81183,-0.91473 41.46503,-2.7448 15.65295,-1.82965 25.0023,-2.74458 28.04809,-2.7448 7.52399,2.2e-4 11.89395,1.83008 13.10989,5.4896 z m -120.11971,92.07627 c 0.60783,0.6142 3.85817,0.92125 9.751,0.92113 9.96184,1.2e-4 21.49772,-0.45735 34.60769,-1.37239 13.10978,-0.91482 25.05196,-1.98327 35.82656,-3.20537 -1.2e-4,-10.16027 -2.74492,-25.35277 -8.23438,-45.57757 -5.48971,-20.22446 -8.74314,-30.79424 -9.76031,-31.70937 -1.01739,-0.91473 -2.54176,-1.3722 -4.57311,-1.3724 -2.03156,2e-4 -3.85987,2e-4 -5.48494,0 -4.6771,2e-4 -9.75885,0.0514 -15.24525,0.15353 -5.48657,0.10254 -10.67066,0.25296 -15.55229,0.45126 -4.87557,18.09412 -9.70144,36.18494 -14.47764,54.27252 -4.7763,18.08787 -7.06208,27.23408 -6.85733,27.43866 z"
       id="path8" />
  </g>
  <g
     id="text5661"
     style="stroke:#bf331c;stroke-width:12.7586;stroke-opacity:0"
     transform="translate(-2.72541e-5,2.5217681e-5)">
    <path
       d="m 369.73804,130.61255 c -2.84731,2.03476 -7.52276,3.50951 -14.02637,4.42423 -6.50392,0.91514 -9.90777,2.03322 -10.21157,3.35424 -0.30409,1.32142 -0.45606,3.4056 -0.45592,6.25255 -1.4e-4,9.1433 2.33681,26.06332 7.01086,50.76012 4.67375,24.69708 7.72404,38.67071 9.15087,41.92094 1.8297,13.41702 4.77609,30.49057 8.83917,51.22068 4.06275,20.73022 7.66975,32.16376 10.82101,34.30065 3.15091,2.13692 8.08068,3.20537 14.78934,3.20536 6.70826,1e-5 9.6562,3.55429 8.84382,10.66284 -4.06932,0.81878 -7.2204,1.22818 -9.45326,1.22818 -2.03475,0 -6.10077,-0.45747 -12.19806,-1.3724 -6.09765,-0.91493 -15.7525,-1.3724 -28.96458,-1.3724 -12.19509,0 -20.17205,0.50709 -23.93089,1.52127 -3.7591,1.01418 -5.84329,1.31967 -6.25256,0.91648 -2.02847,-2.03456 -3.04265,-3.76207 -3.04253,-5.18254 -1.2e-4,-2.03456 3.91237,-3.91559 11.73749,-5.64312 7.82485,-1.7275 12.54993,-4.01483 14.17524,-6.86199 -2.64259,-18.0877 -5.33621,-36.32895 -8.08086,-54.72379 -2.74493,-18.39469 -5.03226,-27.99837 -6.86199,-28.81105 -1.83,-0.81248 -16.66739,0.76306 -44.51222,4.72663 -27.84501,3.96377 -42.88709,7.36607 -45.12631,10.20692 -2.84098,9.96198 -5.68502,20.83725 -8.53213,32.62585 -2.84717,11.78871 -4.27074,22.56164 -4.27071,32.31881 -3e-5,2.84717 0.20312,5.84628 0.60944,8.99735 0.40626,3.1511 2.64396,4.72664 6.71312,4.72663 4.67076,-0.40938 9.34466,-0.81877 14.02172,-1.22818 2.03451,0.6141 3.05178,1.93688 3.05184,3.96833 -6e-5,2.03146 -6e-5,3.65818 0,4.88015 l -58.2362,3.96367 c -0.60788,-4.677 -0.91182,-7.62649 -0.91183,-8.84847 1e-5,-1.01108 0.55827,-1.41582 1.67479,-1.21423 1.11653,0.2016 2.58973,0.5071 4.41959,0.91649 2.03456,0 4.01639,-0.71179 5.9455,-2.13536 1.92911,-1.42357 5.58728,-12.24767 10.97454,-32.47233 5.38722,-20.22459 9.50441,-35.51945 12.35158,-45.88462 -3e-5,-0.40931 -0.15355,0.20013 -0.46057,1.82831 -0.30707,1.62835 -0.46059,2.54173 -0.46057,2.74015 l 29.88571,-111.28054 c -5.89903,-2.03437 -11.79491,-4.16818 -17.68765,-6.40143 -28.86224,-1.42027 -43.29333,-5.58553 -43.29334,-12.4958 16.25787,1.01129 33.22906,1.97429 50.91364,2.88902 17.68449,0.91514 30.49042,1.3726 38.41784,1.3724 11.99016,2e-4 25.81183,-0.91473 41.46503,-2.7448 15.65295,-1.82965 25.0023,-2.74458 28.04809,-2.7448 7.52399,2.2e-4 11.89395,1.83008 13.10989,5.4896 z m -120.11971,92.07627 c 0.60783,0.6142 3.85817,0.92125 9.751,0.92113 9.96184,1.2e-4 21.49772,-0.45735 34.60769,-1.37239 13.10978,-0.91482 25.05196,-1.98327 35.82656,-3.20537 -1.2e-4,-10.16027 -2.74492,-25.35277 -8.23438,-45.57757 -5.48971,-20.22446 -8.74314,-30.79424 -9.76031,-31.70937 -1.01739,-0.91473 -2.54176,-1.3722 -4.57311,-1.3724 -2.03156,2e-4 -3.85987,2e-4 -5.48494,0 -4.6771,2e-4 -9.75885,0.0514 -15.24525,0.15353 -5.48657,0.10254 -10.67066,0.25296 -15.55229,0.45126 -4.87557,18.09412 -9.70144,36.18494 -14.47764,54.27252 -4.7763,18.08787 -7.06208,27.23408 -6.85733,27.43866 z"
       id="path9" />
  </g>
</svg>
