<?xml version="1.0" encoding="UTF-8" standalone="no"?>
<svg
   version="1.1"
   width="556.61682"
   height="466.86096"
   id="svg1"
   xmlns="http://www.w3.org/2000/svg"
   xmlns:svg="http://www.w3.org/2000/svg">
  <defs
     id="defs1" />
  <path
     d="m 158.98702,0 c 0,0 -29.35742,3.18996 -29.35742,33.59375 L 20.492876,63.996093 c 0,0 -27.2661341,10.513359 -18.8964841,46.199217 L 91.852246,446.95898 c 0,0 18.894644,25.21108 40.916024,18.88281 l 145.57617,-40.02343 145.53711,40.02343 c 22.02137,6.32827 40.91797,-18.88281 40.91797,-18.88281 L 555.00265,110.19531 C 563.42335,74.509452 536.15694,63.996093 536.15694,63.996093 L 427.02022,33.59375 C 427.02022,3.18996 397.61202,0 397.61202,0 Z m 0.94531,12.617187 h 236.73438 c 1.39069,0.24242 5.62789,1.187997 9.57031,3.841797 5.57551,3.72551 8.16406,9.160626 8.16406,17.134766 v 9.568359 c 0,0 115.83736,32.304893 117.52149,32.751953 2.99827,1.39069 12.11914,6.875342 12.11914,21.369142 0,2.947236 -0.4079,6.240246 -1.25,9.978506 -0.15311,0.54863 -88.00841,328.48356 -89.46289,333.76563 -3.87863,4.38897 -15.24734,15.79437 -26.01563,12.75781 L 278.34444,412.76562 129.33663,453.78515 c -10.76829,3.03656 -22.18804,-8.36884 -26.01562,-12.75781 -1.45448,-5.28207 -89.3098,-333.21653 -89.4629,-333.76563 -0.84207,-3.73826 -1.25,-7.03127 -1.25,-9.978506 0,-14.4938 9.071784,-19.978452 12.121094,-21.369142 1.68414,-0.44655 117.466806,-32.751953 117.466806,-32.751953 V 33.59375 c -1e-5,-7.97414 2.59024,-13.409256 8.21679,-17.134766 3.94242,-2.6538 8.17987,-3.598877 9.51953,-3.841797 z m 1.44141,15.744141 c 0,0 -4.92578,2.092514 -4.92578,6.277344 V 382.96289 c 0,0 9.5e-4,6.97851 4.92578,6.97851 h 234.29883 c 0,0 5.57617,-1.39024 5.57617,-6.97851 V 34.638672 c 0,0 -0.68962,-6.277344 -5.57617,-6.277344 z M 417.0046,59.8125 v 323.85156 c 0,0 -2.84559,20.97461 -19.59766,20.97461 h -90.94336 l 121.70508,33.59375 c 0,0 7.01806,3.49515 10.46289,-4.18555 l 89.55274,-332.27148 c 0,0 3.4949,-10.461726 -4.92578,-13.255856 z M 139.69601,60.513672 33.340532,89.220704 c -8.42069,2.78139 -4.886718,13.255856 -4.886718,13.255856 L 117.96749,434.75 c 3.53414,7.66793 10.51367,4.18359 10.51367,4.18359 l 121.70508,-33.54102 h -90.90625 c -16.84138,0 -19.58399,-21.03906 -19.58398,-21.03906 z M 336.8464,101.5332 c 7.76477,2.2e-4 12.27443,1.88938 13.52929,5.66601 -2.93843,2.09988 -7.76483,3.6224 -14.47656,4.56641 -6.71206,0.94441 -10.22359,2.09764 -10.53711,3.46094 -0.31382,1.36371 -0.47085,3.51506 -0.4707,6.45312 -1.5e-4,9.4359 2.41074,26.89764 7.23437,52.38477 4.82332,25.48743 7.97281,39.90748 9.44532,43.26172 1.88825,13.84639 4.92798,31.46585 9.12109,52.85937 4.19276,21.39362 7.91586,33.19317 11.16797,35.39844 3.25174,2.20531 8.33837,3.3086 15.26172,3.30859 6.92294,1e-5 9.96533,3.66787 9.12695,11.00391 -4.19955,0.84499 -7.45154,1.26758 -9.75586,1.26758 -2.09986,0 -6.29548,-0.47181 -12.58789,-1.41602 -6.29279,-0.94421 -16.25769,-1.41601 -29.89258,-1.41601 -12.58536,0 -20.81617,0.52173 -24.69531,1.56836 -3.87939,1.04663 -6.03076,1.36335 -6.45313,0.94726 -2.09339,-2.09967 -3.14075,-3.88368 -3.14062,-5.34961 -1.3e-4,-2.09966 4.03774,-4.03945 12.11328,-5.82226 8.07526,-1.78279 12.95159,-4.14375 14.62891,-7.08203 -2.72715,-18.66654 -5.50736,-37.49111 -8.33985,-56.47461 -2.83278,-18.98336 -5.19179,-28.89569 -7.08008,-29.73438 -1.88855,-0.83848 -17.20159,0.7885 -45.9375,4.87891 -28.7361,4.09061 -44.25944,7.60144 -46.57031,10.5332 -2.9319,10.28078 -5.86647,21.50406 -8.80469,33.66992 -2.93829,12.16597 -4.40823,23.28409 -4.4082,33.35352 -3e-5,2.93827 0.20959,6.03323 0.62891,9.28515 0.41926,3.25193 2.72836,4.87697 6.92773,4.87696 4.82024,-0.42249 9.64398,-0.84507 14.4707,-1.26758 2.09962,0.63375 3.15034,1.99924 3.1504,4.0957 -6e-5,2.09647 -6e-5,3.77603 0,5.03711 l -60.09961,4.08985 c -0.62733,-4.82668 -0.9414,-7.86977 -0.94141,-9.13086 10e-6,-1.04343 0.57627,-1.46195 1.72852,-1.25391 1.15226,0.20805 2.67212,0.52282 4.56054,0.94531 2.09967,10e-6 4.14392,-0.73399 6.13477,-2.20312 1.99084,-1.46912 5.76651,-12.63983 11.32617,-33.51172 5.37211,-20.16786 9.46016,-35.34597 12.38477,-46.01367 0.22462,-1.13497 0.36325,-1.69549 0.36328,-1.33985 -0.0991,0.36078 -0.2612,0.96749 -0.36328,1.33985 -0.0422,0.21302 -0.0632,0.28133 -0.11329,0.54687 -0.31689,1.68046 -0.47464,2.62337 -0.4746,2.82813 l 30.84179,-114.8418 c -6.08781,-2.09947 -12.17259,-4.30076 -18.2539,-6.60547 -29.78588,-1.46573 -44.67773,-5.76507 -44.67774,-12.89648 16.77815,1.04365 34.29245,2.03842 52.54297,2.98242 18.25042,0.94442 31.46536,1.41623 39.64648,1.41601 12.37387,2.2e-4 26.63883,-0.94339 42.79297,-2.83203 16.15387,-1.88821 25.80206,-2.83376 28.94532,-2.83398 z m -56.63477,15.73828 c -4.82678,2e-4 -10.07044,0.0528 -15.73242,0.1582 -5.66215,0.10583 -11.01293,0.26216 -16.05078,0.4668 -5.03159,18.67316 -10.01042,37.34335 -14.93946,56.00977 -4.92916,18.66671 -7.28942,28.10527 -7.07812,28.3164 0.62729,0.63386 3.98304,0.94934 10.06445,0.94922 10.28064,1.2e-4 22.18534,-0.47169 35.71485,-1.41601 13.52932,-0.94409 25.85324,-2.04544 36.97265,-3.30665 -1.3e-4,-10.48541 -2.8329,-26.16509 -8.49805,-47.03711 -5.66539,-20.87167 -9.02254,-31.78019 -10.07226,-32.7246 -1.04995,-0.94401 -2.62239,-1.41582 -4.71875,-1.41602 -2.09657,2e-4 -3.98504,2e-4 -5.66211,0 z"
     id="path1" />
</svg>
