<svg xmlns="http://www.w3.org/2000/svg" xml:space="preserve" width="78.457" height="48.732" style="clip-rule:evenodd;fill-rule:evenodd;stroke-linejoin:round;stroke-miterlimit:2" viewBox="0 0 78.457 48.732"><path d="m9.255 34.132 17.091.029c-.003 1.084-.005 2.169-.034 3.251-.018.64-.06 1.278-.084 1.919-.047 1.199-.039 2.399-.047 3.599H12.878c-1.213-2.93-2.617-5.785-3.62-8.798Zm.204-17.407 5.876.008c-.534 2.872-.824 5.632-.588 8.392.227 2.669 2.336 4.506 3.792 6.516-5.065 0-9.911.008-14.971.008C2.441 29.25.876 26.963 0 24.456c1.004-2.684 2.538-5.185 3.848-7.723l5.611-.011Zm11.37-10.737c-1.817 2.747-3.239 5.674-4.752 8.468H9.344c.967-2.825 2.201-5.666 3.338-8.455zm48.373 28.144-17.091.029c.002 1.084.005 2.169.034 3.251.018.64.06 1.278.083 1.919.047 1.199.04 2.399.047 3.599h13.304c1.213-2.93 2.616-5.785 3.62-8.798zm-.204-17.407-5.876.008c.533 2.872.823 5.632.588 8.392-.227 2.669-2.336 4.506-3.792 6.516 5.065 0 9.911.008 14.971.008 1.126-2.399 2.692-4.686 3.568-7.193-1.004-2.684-2.538-5.185-3.848-7.723l-5.611-.011ZM57.628 5.988c1.817 2.747 3.239 5.674 4.752 8.468h6.733c-.967-2.825-2.201-5.666-3.338-8.455Z" style="fill-rule:nonzero"/><path d="M38.774.005c.687.016 1.377.013 2.065.05 1.385.073 1.876.149 3.073.295 3.199.479 6.182 1.885 8.801 3.754-1.344 2.2-3.354 3.805-5.4 5.297 2.679-.494 5.172-1.651 7.386-3.227 4.111 5.162 7.099 11.549 6.837 18.274-.042 2.076-1.228 4.004-2.875 5.209-2.65 1.469-5.883 1.367-8.544 2.75-.102.269-.316.805-.418 1.079-.423 4.708.646 9.451.154 14.153-.841 1.122-2.451.8-3.664 1.093-.251-2.541.026-3.908-.316-6.438-.257-1.889-1.814-2.788-2.06-.154-.149 1.605-.042 2.039-.078 3.644-1.153.454-2.308.883-3.466 1.312.029-2.107.319-3.984-.018-6.056-.275-1.696-1.665-.999-1.788-.092-.309 2.259-.204 4.3-.348 6.574q-1.565.34-3.12.685c-.633-2.661-.131-7.868-1.532-7.865-2.533.008-.758 5.478-1.283 8.28-1.318-.097-3.573.358-3.842-1.469-.155-4.187.381-8.364.413-12.548-.061-.805-.006-1.884-.769-2.381-2.977-1.312-6.73-1.043-9.213-3.353-2.642-2.499-2.148-6.427-1.563-9.66 1.085-5.471 3.92-10.531 7.781-14.527.512 2.01.81 4.153 1.934 5.943 1.892 1.14 4.242.912 6.367 1.043-1.568-.912-3.377-1.521-4.624-2.883-.661-2.01-.703-4.158-.823-6.252C31.223.789 34.974.011 38.774 0Zm-.829 25.254c-2.362 3.282-2.6 7.506-2.213 11.4 2.232-.619 4.558-.65 6.795-.041.424-3.824.246-8.056-2.185-11.242-.269 2.972-.125 6.019-1.051 8.897-1.651-2.702-.93-6.019-1.348-9.014zm13.293-8.95c-.535-.023-1.053.087-1.563.236-3.423 1.037-6.042 4.391-6.241 7.958-.149 1.359.944 2.721 2.376 2.549 3.121.005 6.335.41 9.378-.424 2.101-.614 2.53-3.27 1.85-5.078-.852-2.752-2.823-4.966-5.8-5.241m-24.304.05c-.915.089-.525.024-1.176.154-2.81.949-4.671 3.902-4.804 6.796-.102 1.641 1.032 3.269 2.708 3.497 2.953.543 6.001.298 8.985.227 1.927.097 2.512-2.219 2.029-3.716-.719-3.069-3.04-6.067-6.226-6.801-.674-.154-.829-.128-1.516-.154z" style="fill-rule:nonzero"/></svg>