<?xml version="1.0" encoding="UTF-8" standalone="no"?>
<svg
   id="Layer_2"
   data-name="Layer 2"
   viewBox="0 0 600.01428 322.77"
   version="1.1"
   width="600.01428"
   height="322.76999"
   xmlns="http://www.w3.org/2000/svg"
   xmlns:svg="http://www.w3.org/2000/svg">
  <defs
     id="defs7">
    <style
       id="style1">
      .cls-1 {
        fill: url(#linear-gradient);
      }

      .cls-1, .cls-2 {
        stroke-width: 0px;
      }

      .cls-2 {
        fill: #fff;
      }
    </style>
    <linearGradient
       id="linear-gradient"
       x1="11.37"
       y1="153.32001"
       x2="589.28998"
       y2="153.32001"
       gradientUnits="userSpaceOnUse">
      <stop
         offset="0"
         stop-color="#927443"
         id="stop1" />
      <stop
         offset=".2"
         stop-color="#b39458"
         id="stop2" />
      <stop
         offset=".39"
         stop-color="#ccab67"
         id="stop3" />
      <stop
         offset=".5"
         stop-color="#d5b46d"
         id="stop4" />
      <stop
         offset=".61"
         stop-color="#ccab67"
         id="stop5" />
      <stop
         offset=".8"
         stop-color="#b39458"
         id="stop6" />
      <stop
         offset="1"
         stop-color="#927443"
         id="stop7" />
    </linearGradient>
  </defs>
  <g
     id="Layer_1-2"
     data-name="Layer 1">
    <path
       class="cls-2"
       d="M 591.72,15.15 C 548.58,5.08 506.06,0 465.33,0 371.27,0 283.1,26.44 195.77,80.87 89.5,147.1 6.25,258.24 2.75,262.92 L 0,266.63 9.71,322.77 68.74,241.48 c 6.88,-2.32 15.24,-3.48 24.95,-3.48 38.31,0 83.36,18.08 83.81,18.28 l 6.63,2.68 5.03,-5.08 C 299.76,142.51 402.71,89.29 469.59,64.25 542.03,37.15 588.95,36.32 589.4,36.32 c 5.44,-0.07 9.96,-4.16 10.55,-9.56 0.59,-5.4 -2.94,-10.39 -8.21,-11.62"
       id="path7" />
    <path
       class="cls-1"
       d="m 517.25,24.82 c 7.87,1.91 14.03,5.01 18.79,8.37 33.7,-7.44 53.26,-7.6 53.26,-7.6 C 431.4,-11.21 307.23,24.06 201.45,89.96 95.68,155.89 11.37,269.33 11.37,269.33 l 4.59,26.59 46,-63.36 c 37.38,-15.15 100.34,6.55 115.96,12.39 -9.66,-12.19 -26.53,-28.84 -50.81,-36.17 0,0 28.68,-7.31 63,29.02 14.09,-13.85 28.04,-26.84 41.84,-38.94 -6.52,-11.58 -18.03,-26.17 -36.63,-32.22 0,0 22.91,-3.17 46.69,23.52 56.66,-48.4 110.23,-82.53 157.57,-106.65 -6.09,-6.56 -15.36,-15.69 -29.5,-28.03 0,0 18.48,8.18 40.31,22.64 26.1,-12.71 50.14,-22.37 71.58,-29.66 -3.53,-6.41 -9.02,-14.12 -17.61,-22.08 0,0 15.29,3.85 30.39,17.9 11.78,-3.71 22.62,-6.67 32.48,-9.04 -5.35,-6.92 -9.96,-10.41 -9.96,-10.41"
       id="path8"
       style="fill:url(#linear-gradient)" />
  </g>
</svg>
