<?xml version="1.0" encoding="UTF-8"?>
<svg id="Layer_2" data-name="Layer 2" xmlns="http://www.w3.org/2000/svg" xmlns:xlink="http://www.w3.org/1999/xlink" viewBox="0 0 600 322.77">
  <defs>
    <style>
      .cls-1 {
        fill: url(#linear-gradient);
      }

      .cls-1, .cls-2, .cls-3 {
        stroke-width: 0px;
      }

      .cls-2 {
        fill: #fff;
      }

      .cls-3 {
        fill: url(#linear-gradient-2);
      }
    </style>
    <linearGradient id="linear-gradient" x1="11.37" y1="153.32" x2="589.29" y2="153.32" gradientUnits="userSpaceOnUse">
      <stop offset="0" stop-color="#626e77"/>
      <stop offset=".05" stop-color="#75736b"/>
      <stop offset=".2" stop-color="#ab8149"/>
      <stop offset=".33" stop-color="#d38c31"/>
      <stop offset=".44" stop-color="#ec9222"/>
      <stop offset=".5" stop-color="#f5951d"/>
      <stop offset=".56" stop-color="#ec9222"/>
      <stop offset=".67" stop-color="#d38c31"/>
      <stop offset=".8" stop-color="#ab8149"/>
      <stop offset=".95" stop-color="#75736b"/>
      <stop offset="1" stop-color="#626e77"/>
    </linearGradient>
    <linearGradient id="linear-gradient-2" x1="11.37" y1="153.32" x2="589.29" y2="153.32" gradientUnits="userSpaceOnUse">
      <stop offset="0" stop-color="#626e77"/>
      <stop offset=".16" stop-color="#8a9ca8"/>
      <stop offset=".31" stop-color="#abc1cf"/>
      <stop offset=".43" stop-color="#bfd8e8"/>
      <stop offset=".5" stop-color="#c7e1f1"/>
      <stop offset=".57" stop-color="#bfd8e8"/>
      <stop offset=".69" stop-color="#abc1cf"/>
      <stop offset=".84" stop-color="#8a9ca8"/>
      <stop offset="1" stop-color="#626e77"/>
    </linearGradient>
  </defs>
  <g id="Layer_1-2" data-name="Layer 1">
    <path class="cls-2" d="M591.72,15.15C548.58,5.08,506.06,0,465.33,0c-94.06,0-182.23,26.44-269.56,80.87C89.5,147.1,6.25,258.24,2.75,262.92l-2.75,3.71,9.71,56.14,59.03-81.29c6.88-2.32,15.24-3.48,24.95-3.48,38.31,0,83.36,18.08,83.81,18.28l6.63,2.68,5.03-5.08c110.6-111.37,213.55-164.59,280.43-189.63,72.44-27.1,119.36-27.93,119.81-27.93,5.44-.07,9.96-4.16,10.55-9.56.59-5.4-2.94-10.39-8.21-11.62"/>
    <path class="cls-1" d="M517.25,24.82c7.87,1.91,14.03,5.01,18.79,8.37,33.7-7.44,53.26-7.6,53.26-7.6-157.9-36.8-282.07-1.53-387.85,64.37C95.68,155.89,11.37,269.33,11.37,269.33l4.59,26.59,46-63.36c37.38-15.15,100.34,6.55,115.96,12.39-9.66-12.19-26.53-28.84-50.81-36.17,0,0,28.68-7.31,63,29.02,14.09-13.85,28.04-26.84,41.84-38.94-6.52-11.58-18.03-26.17-36.63-32.22,0,0,22.91-3.17,46.69,23.52,56.66-48.4,110.23-82.53,157.57-106.65-6.09-6.56-15.36-15.69-29.5-28.03,0,0,18.48,8.18,40.31,22.64,26.1-12.71,50.14-22.37,71.58-29.66-3.53-6.41-9.02-14.12-17.61-22.08,0,0,15.29,3.85,30.39,17.9,11.78-3.71,22.62-6.67,32.48-9.04-5.35-6.92-9.96-10.41-9.96-10.41"/>
    <path class="cls-3" d="M517.25,24.82c7.87,1.91,14.03,5.01,18.79,8.37,33.7-7.44,53.26-7.6,53.26-7.6-157.9-36.8-282.07-1.53-387.85,64.37C95.68,155.89,11.37,269.33,11.37,269.33l4.59,26.59,46-63.36c37.38-15.15,100.34,6.55,115.96,12.39-9.66-12.19-26.53-28.84-50.81-36.17,0,0,28.68-7.31,63,29.02,14.09-13.85,28.04-26.84,41.84-38.94-6.52-11.58-18.03-26.17-36.63-32.22,0,0,22.91-3.17,46.69,23.52,56.66-48.4,110.23-82.53,157.57-106.65-6.09-6.56-15.36-15.69-29.5-28.03,0,0,18.48,8.18,40.31,22.64,26.1-12.71,50.14-22.37,71.58-29.66-3.53-6.41-9.02-14.12-17.61-22.08,0,0,15.29,3.85,30.39,17.9,11.78-3.71,22.62-6.67,32.48-9.04-5.35-6.92-9.96-10.41-9.96-10.41"/>
  </g>
</svg>