<?xml version="1.0" encoding="UTF-8" standalone="no"?>
<svg
   id="Layer_2"
   data-name="Layer 2"
   viewBox="0 0 577.93 285.20202"
   version="1.1"
   width="577.92999"
   height="285.20203"
   xmlns="http://www.w3.org/2000/svg"
   xmlns:svg="http://www.w3.org/2000/svg">
  <defs
     id="defs1">
    <style
       id="style1">
      .cls-1 {
        stroke-width: 0px;
      }
    </style>
  </defs>
  <g
     id="Layer_1-2"
     data-name="Layer 1"
     transform="translate(0,0.0020205)">
    <path
       class="cls-1"
       d="m 505.88,14.1 c 7.87,1.91 14.03,5.01 18.79,8.37 33.7,-7.44 53.26,-7.6 53.26,-7.6 C 420.03,-21.93 295.86,13.34 190.08,79.24 84.31,145.17 0,258.61 0,258.61 l 4.59,26.59 46,-63.36 c 37.38,-15.15 100.34,6.55 115.96,12.39 -9.66,-12.19 -26.53,-28.84 -50.81,-36.17 0,0 28.68,-7.31 63,29.02 14.09,-13.85 28.04,-26.84 41.84,-38.94 -6.52,-11.58 -18.03,-26.17 -36.63,-32.22 0,0 22.91,-3.17 46.69,23.52 56.66,-48.4 110.23,-82.53 157.57,-106.65 -6.09,-6.56 -15.36,-15.69 -29.5,-28.03 0,0 18.48,8.18 40.31,22.64 26.1,-12.71 50.14,-22.37 71.58,-29.66 -3.53,-6.41 -9.02,-14.12 -17.61,-22.08 0,0 15.29,3.85 30.39,17.9 11.78,-3.71 22.62,-6.67 32.48,-9.04 -5.35,-6.92 -9.96,-10.41 -9.96,-10.41"
       id="path1" />
  </g>
</svg>
