<?xml version="1.0" encoding="UTF-8" standalone="no"?>
<svg
   id="Layer_2"
   data-name="Layer 2"
   viewBox="0 0 973.5922 912.86458"
   version="1.1"
   width="973.59222"
   height="912.86456"
   xmlns="http://www.w3.org/2000/svg"
   xmlns:svg="http://www.w3.org/2000/svg">
  <defs
     id="defs5">
    <style
       id="style1">
      .cls-1 {
        fill: url(#linear-gradient);
        fill-rule: evenodd;
      }

      .cls-1, .cls-2 {
        stroke-width: 0px;
      }

      .cls-2 {
        fill: #000000;
      }
    </style>
    <linearGradient
       id="linear-gradient"
       x1="8.3299999"
       y1="99.389999"
       x2="852.16998"
       y2="630.81"
       gradientTransform="matrix(1,0,0,-1,0,914.01)"
       gradientUnits="userSpaceOnUse">
      <stop
         offset="0"
         stop-color="#612c75"
         id="stop1" />
      <stop
         offset=".5"
         stop-color="#bf99c3"
         id="stop2" />
      <stop
         offset=".64"
         stop-color="#a87eb0"
         id="stop3" />
      <stop
         offset=".93"
         stop-color="#6f3c80"
         id="stop4" />
      <stop
         offset="1"
         stop-color="#612c75"
         id="stop5" />
    </linearGradient>
  </defs>
  <g
     id="Ebene_1"
     data-name="Ebene 1"
     transform="translate(0.00111111,0.00409656)">
    <path
       class="cls-1"
       d="m 486.25,138.67 c -19.38,0.05 -109.5,3.1 -172.63,94.93 -45.41,65.22 -46.86,141.07 -4.35,227.55 L 425.94,322.73 391.16,574.2 c 72.47,73.19 72.47,186.24 7.97,252.92 -64.5,76.09 -169.58,94.93 -202.19,63.05 -31.89,-28.26 -14.49,-71.02 3.62,-81.16 -9.42,41.31 12.32,52.9 46.38,44.93 23.51,-6.11 52.18,-22.47 81.16,-57.25 15.94,-19.57 34.06,-42.76 38.41,-79.72 2.42,-40.58 -13.29,-54.35 -47.1,-41.31 -74.88,40.1 -178.76,73.92 -311.62,101.46 v -416.7 l 104.35,268.86 h 63.77 l 48.55,-67.4 C 172.28,494.73 147.64,419.36 150.54,335.78 151.99,277.81 167.93,184.32 264.32,92.29 359.27,11.85 457.83,7.5 486.82,7.5 c 28.99,0 127.54,4.35 222.48,84.79 96.38,92.04 112.33,185.52 113.78,243.49 2.9,83.58 -21.74,158.95 -73.92,226.1 l 48.55,67.4 h 63.77 L 965.83,360.42 v 416.7 C 832.97,749.58 729.1,715.76 654.21,675.66 c -33.82,-13.04 -49.52,0.72 -47.1,41.31 4.35,36.96 22.47,60.15 38.41,79.72 28.99,34.78 57.66,51.14 81.16,57.25 34.06,7.97 55.8,-3.62 46.38,-44.93 18.12,10.15 35.51,52.9 3.62,81.16 -32.61,31.89 -137.69,13.04 -202.19,-63.05 -64.5,-66.67 -64.5,-179.72 7.97,-252.92 L 547.68,322.73 664.35,461.15 C 706.86,374.67 705.42,298.82 660,233.6 596.87,141.77 506.74,138.72 487.37,138.67 h -1.13 z"
       id="path5"
       style="fill:url(#linear-gradient)" />
    <path
       class="cls-2"
       d="m 486.25,131.17 c -39.7,0.14 -79.61,12.33 -112.99,33.69 -58.17,37.24 -100.07,102.46 -102.24,172.23 -1.39,44.63 12.37,88.15 31.76,127.85 2.01,4.12 8.8,5.06 11.78,1.52 13.12,-15.56 26.23,-31.12 39.35,-46.68 l 62.8,-74.5 c 4.84,-5.74 9.68,-11.49 14.53,-17.23 l -12.54,-7.3 c -4.64,33.55 -9.28,67.09 -13.92,100.64 -6.39,46.17 -12.77,92.34 -19.16,138.52 -0.54,3.93 -1.09,7.87 -1.63,11.8 -0.93,6.76 4.5,10.39 8.63,15 6.66,7.43 12.68,15.38 18.04,23.8 20.32,31.94 30.33,69.7 28.06,107.52 -2.19,36.6 -16.47,72.52 -41.14,99.79 -13.5,14.92 -27.25,29.15 -43.73,40.85 -15.09,10.71 -31.49,19.8 -48.78,26.43 -26.32,10.1 -58.16,17.29 -85.54,9.19 -11.88,-3.52 -21.74,-10.84 -28.17,-23.01 -7.24,-13.71 -5.59,-30.76 2.05,-43.93 2.84,-4.89 6.57,-9.31 10.94,-11.85 -3.67,-2.82 -7.34,-5.65 -11.02,-8.47 -3.97,18 -4.66,41.31 13.73,51.75 16.52,9.38 38.76,4.6 55.33,-2.05 23.93,-9.61 44.62,-25.76 62.08,-44.55 16.75,-18.03 32.17,-38.38 41.3,-61.38 8.37,-21.06 13.2,-48.49 3.28,-69.93 -8.07,-17.43 -26.97,-19.77 -43.76,-15.06 -10.5,2.95 -19.91,8.86 -29.67,13.62 -9.76,4.76 -19.84,9.38 -29.91,13.73 -22.4,9.68 -45.29,18.23 -68.39,26.08 -54.98,18.68 -111.31,33.26 -168.01,45.66 -7.83,1.71 -15.68,3.38 -23.53,5.01 l 9.49,7.23 V 377.38 c 0,-5.29 0.58,-10.96 0,-16.23 -0.03,-0.23 0,-0.47 0,-0.71 l -14.73,1.99 c 11.76,30.3 23.52,60.6 35.28,90.9 18.74,48.27 37.47,96.54 56.21,144.81 4.29,11.05 8.58,22.1 12.87,33.15 1.21,3.13 3.69,5.51 7.23,5.51 20.81,0 41.72,0.67 62.52,0 3.94,-0.13 6.35,-1.84 8.61,-4.94 2.26,-3.1 4.69,-6.51 7.03,-9.76 7.94,-11.02 15.88,-22.05 23.82,-33.07 5.6,-7.78 11.21,-15.56 16.81,-23.34 2.11,-2.93 0.75,-6.6 -1.17,-9.09 -34.77,-44.94 -58.74,-97.42 -67.8,-153.62 -6.84,-42.39 -5.83,-87.26 3.53,-129.24 10.73,-48.14 33.09,-93.08 63.59,-131.75 9.8,-12.43 20.35,-24.25 31.49,-35.49 11.61,-11.71 24.54,-21.76 38.14,-31.07 23.21,-15.89 48.28,-29.17 74.64,-39.03 34.16,-12.78 70.4,-20.45 106.88,-21.3 29.26,-0.68 58.43,3.25 86.7,10.7 24.37,6.43 47.98,15.5 70.36,27.11 27.65,14.34 54.48,32.06 76.41,54.28 38.12,38.63 69.07,84.69 86.12,136.46 12.55,38.13 17.14,78.11 15.73,118.14 -1.98,56.39 -18.37,111.17 -47.52,159.46 -7.38,12.23 -15.47,24.05 -24.21,35.34 -1.9,2.46 -3.26,6.2 -1.17,9.09 12.77,17.73 25.54,35.45 38.31,53.18 2.77,3.85 5.54,7.69 8.31,11.54 2.28,3.17 4.14,6.12 8.59,6.39 9.99,0.61 20.2,0 30.21,0 h 33.38 c 3.58,0 6.02,-2.38 7.23,-5.51 11.76,-30.3 23.52,-60.6 35.28,-90.9 18.74,-48.27 37.47,-96.54 56.21,-144.81 4.29,-11.05 8.58,-22.1 12.87,-33.15 l -14.73,-1.99 v 399.76 c 0,5.28 -0.61,10.97 0,16.23 0.03,0.23 0,0.47 0,0.71 3.16,-2.41 6.33,-4.82 9.49,-7.23 -58.33,-12.12 -116.31,-26.33 -173.06,-44.57 -44.99,-14.46 -89.4,-31.38 -131.34,-53.27 -15.4,-8.04 -37.48,-14.21 -51.94,-0.89 -15.54,14.31 -13.51,42.17 -9.45,60.62 5.36,24.31 18.18,45.16 33.51,64.41 16.85,21.17 36.79,40.58 60.75,53.56 17.48,9.46 38.39,16.6 58.46,13.16 19.1,-3.27 28.51,-19.68 27.99,-38.09 -0.17,-5.99 -1.16,-11.98 -2.45,-17.82 -3.67,2.82 -7.34,5.65 -11.02,8.47 10.37,6.04 16.76,20.84 17.52,33.14 0.5,8.06 -0.95,16.1 -4.84,23.23 -3.48,6.37 -9.92,13.18 -14.63,16.35 -8.93,6 -20.01,8.43 -31.02,9.1 -14.76,0.89 -29.51,-1.06 -43.82,-4.63 -35.85,-8.96 -69.28,-27.89 -96.05,-53.27 -13.97,-13.24 -27.41,-28.05 -37.5,-44.5 -9.63,-15.71 -16.44,-32.9 -20.41,-50.89 -7.94,-35.93 -3.89,-74.58 10.92,-108.25 7.97,-18.11 18.8,-34.94 32.05,-49.63 4.09,-4.53 9.02,-7.91 8.11,-14.54 L 589,567.48 C 583.17,525.33 577.34,483.18 571.51,441.03 566.06,401.6 560.6,362.17 555.15,322.75 l -0.28,-2.01 -12.54,7.3 c 13.12,15.56 26.23,31.12 39.35,46.68 20.93,24.83 41.87,49.67 62.8,74.5 4.84,5.74 9.68,11.49 14.53,17.23 2.98,3.54 9.77,2.6 11.78,-1.52 17.51,-35.84 30.3,-74.48 31.73,-114.62 1.26,-35.42 -7.19,-70.54 -24.3,-101.57 -29.9,-54.24 -80.93,-96.06 -141.27,-111.18 -16.56,-4.15 -33.68,-6.4 -50.75,-6.4 -9.65,0 -9.67,15 0,15 5.15,0 10.3,0.19 15.44,0.6 1.61,0.13 3.22,0.28 4.82,0.45 0.92,0.1 1.84,0.21 2.76,0.31 1.9,0.22 1.06,0.12 2.01,0.25 4.46,0.62 8.89,1.4 13.3,2.31 22.97,4.76 44.95,13.38 64.95,25.66 55.08,33.83 95.76,95.21 98.05,160.55 1.48,42.22 -11.32,83.46 -29.69,121.05 l 11.78,-1.52 c -13.12,-15.56 -26.23,-31.12 -39.35,-46.68 -20.93,-24.83 -41.87,-49.67 -62.8,-74.5 -4.84,-5.74 -9.68,-11.49 -14.53,-17.23 -2.12,-2.51 -6.4,-2.75 -9.09,-1.17 -3.12,1.82 -3.91,5.13 -3.45,8.47 3.93,28.43 7.87,56.86 11.8,85.3 6.22,44.96 12.44,89.93 18.66,134.89 1.44,10.43 2.88,20.85 4.33,31.28 l 1.93,-7.3 c -32.99,33.57 -53.63,77.66 -57.09,124.69 -3.24,43.94 9.36,88.89 36.3,123.89 28.34,36.82 65.82,66.1 109.41,82.53 31.14,11.73 70.95,19.54 102.49,4.84 19.07,-8.89 32.22,-28.8 33.53,-49.65 1.21,-19.26 -7.65,-42.59 -24.95,-52.67 -5.87,-3.42 -12.4,2.21 -11.02,8.47 1.89,8.54 3.47,18.53 0.06,26.94 -2.01,4.96 -5.84,8.07 -11.08,9.6 -15.7,4.59 -34.55,-2.24 -48.62,-9.5 -22.37,-11.54 -41.17,-29.12 -56.92,-48.56 -13.67,-16.87 -25.69,-34.88 -31.4,-56.07 -3,-11.13 -4.39,-22.59 -3,-34.09 0.78,-6.51 2.74,-13.31 6.93,-17.27 3.51,-3.31 9.12,-4.2 15.37,-3.38 9.3,1.22 17.11,5.6 25.32,9.76 39.49,19.99 81,35.95 123.05,49.67 58.4,19.06 118.17,33.77 178.29,46.26 4.72,0.98 9.49,-2.11 9.49,-7.23 V 411.55 c 0,-16.76 0.7,-33.68 0,-50.43 v -0.71 c 0,-8.94 -11.8,-9.55 -14.73,-1.99 -11.76,30.3 -23.52,60.6 -35.28,90.9 -18.74,48.27 -37.47,96.54 -56.21,144.81 -4.29,11.05 -8.58,22.1 -12.87,33.15 l 7.23,-5.51 h -63.77 l 6.48,3.71 c -16.18,-22.47 -32.37,-44.93 -48.55,-67.4 l -1.17,9.09 c 36.19,-46.78 61.93,-100.84 71.53,-159.44 7.41,-45.25 6.64,-92.6 -3.27,-137.44 C 811.6,220.17 788.15,173.77 756.7,133.39 746.64,120.47 735.78,108.19 724.29,96.54 712.23,84.32 698.76,73.77 684.67,63.98 660.53,47.2 634.39,33.46 606.95,22.93 570.95,9.12 532.32,1.02 493.68,0.08 c -31.03,-0.75 -62.29,3.55 -92.23,11.56 -25.68,6.87 -50.61,16.7 -74.15,29.05 -28.49,14.94 -56.08,33.56 -78.67,56.55 -39.66,40.36 -71.55,88.46 -89.3,142.4 -13.26,40.29 -18.01,83.15 -16.14,125.45 2.59,58.41 19.85,115.22 50.3,165.14 7.83,12.83 16.5,25.08 25.69,36.96 l -1.17,-9.09 c -16.18,22.47 -32.37,44.93 -48.55,67.4 l 6.48,-3.71 h -63.77 l 7.23,5.51 C 107.64,597 95.88,566.7 84.12,536.4 65.38,488.13 46.65,439.86 27.91,391.59 23.62,380.54 19.33,369.49 15.04,358.44 12.13,350.95 0.31,351.42 0.31,360.43 v 365.56 c 0,16.76 -0.7,33.68 0,50.43 v 0.71 c 0,5.12 4.77,8.21 9.49,7.23 98.46,-20.45 197.75,-46.16 288.8,-89.76 13.76,-6.59 31.6,-19.36 46.88,-15.74 2.95,0.7 4.57,1.49 6.36,3.19 1.9,1.79 3.36,4.1 4.41,6.73 3.31,8.25 3.42,17.95 2.86,26.69 -1.49,23.25 -12.89,45.14 -26.52,63.51 -14.53,19.59 -31.63,37.97 -52.11,51.42 -16.17,10.62 -37.25,20.78 -57.21,18.12 -6.7,-0.89 -11.88,-3.55 -14.83,-9.11 -4.3,-8.12 -2.61,-19.47 -0.64,-28.41 1.38,-6.26 -5.15,-11.88 -11.02,-8.47 -15.47,9.01 -23.66,28.32 -24.91,45.5 -1.51,20.72 8.95,40.33 25.66,52.28 11.94,8.54 27.38,11.47 41.77,12.08 18.21,0.78 36.7,-2.37 54.12,-7.53 21.07,-6.24 41.32,-15.71 59.75,-27.66 9.84,-6.37 19.23,-13.49 28.05,-21.21 8.82,-7.72 16.91,-16.8 25.11,-25.57 30.43,-32.53 47.02,-76.14 47.7,-120.53 0.8,-52.67 -20.79,-103.57 -57.57,-140.99 l 1.93,7.3 c 3.93,-28.43 7.87,-56.86 11.8,-85.3 6.22,-44.96 12.44,-89.93 18.66,-134.89 1.44,-10.43 2.88,-20.85 4.33,-31.28 0.46,-3.36 -0.31,-6.64 -3.45,-8.47 -2.7,-1.58 -6.97,-1.34 -9.09,1.17 -13.12,15.56 -26.23,31.12 -39.35,46.68 -20.93,24.83 -41.87,49.67 -62.8,74.5 -4.84,5.74 -9.68,11.49 -14.53,17.23 l 11.78,1.52 c -16.42,-33.62 -28.53,-70.18 -29.71,-107.84 -1.04,-33.13 6.82,-65.67 23.04,-94.59 28.24,-50.35 75.3,-88.82 131.54,-102.91 15.84,-3.97 29.24,-5.8 45.64,-5.86 9.65,-0.03 9.67,-15.03 0,-15 v 0 z"
       id="path6" />
  </g>
</svg>
