<?xml version="1.0" encoding="UTF-8"?>
<svg id="Ebene_1" data-name="Ebene 1" xmlns="http://www.w3.org/2000/svg" viewBox="0 0 958.04 897.5">
  <defs>
    <style>
      .cls-1 {
        fill: #010101;
        fill-rule: evenodd;
        stroke-width: 0px;
      }
    </style>
  </defs>
  <path class="cls-1" d="m478.45,131.17c-19.38.05-109.5,3.1-172.63,94.93-45.41,65.22-46.86,141.07-4.35,227.55l116.67-138.42-34.78,251.47c72.47,73.19,72.47,186.24,7.97,252.92-64.5,76.09-169.58,94.93-202.19,63.05-31.89-28.26-14.49-71.02,3.62-81.16-9.42,41.31,12.32,52.9,46.38,44.93,23.51-6.11,52.18-22.47,81.16-57.25,15.94-19.57,34.06-42.76,38.41-79.72,2.42-40.58-13.29-54.35-47.1-41.31-74.88,40.1-178.76,73.92-311.62,101.46v-416.7l104.35,268.86h63.77l48.55-67.4c-52.18-67.15-76.82-142.52-73.92-226.1,1.45-57.97,17.39-151.46,113.78-243.49C351.47,4.35,450.03,0,479.02,0s127.54,4.35,222.48,84.79c96.38,92.04,112.33,185.52,113.78,243.49,2.9,83.58-21.74,158.95-73.92,226.1l48.55,67.4h63.77l104.35-268.86v416.7c-132.86-27.54-236.73-61.36-311.62-101.46-33.82-13.04-49.52.72-47.1,41.31,4.35,36.96,22.47,60.15,38.41,79.72,28.99,34.78,57.66,51.14,81.16,57.25,34.06,7.97,55.8-3.62,46.38-44.93,18.12,10.15,35.51,52.9,3.62,81.16-32.61,31.89-137.69,13.04-202.19-63.05-64.5-66.67-64.5-179.72,7.97-252.92l-34.78-251.47,116.67,138.42c42.51-86.48,41.07-162.33-4.35-227.55-63.13-91.83-153.26-94.88-172.63-94.93h-1.13Z"/>
</svg>