<?xml version="1.0" encoding="UTF-8" standalone="no"?>
<svg
   id="Ebene_1"
   data-name="Ebene 1"
   viewBox="0 0 958.04 897.50623"
   version="1.1"
   width="958.03998"
   height="897.50623"
   xmlns="http://www.w3.org/2000/svg"
   xmlns:svg="http://www.w3.org/2000/svg">
  <defs
     id="defs1">
    <style
       id="style1">
      .cls-1 {
        fill: #000000;
        fill-rule: evenodd;
        stroke-width: 0px;
      }
    </style>
  </defs>
  <path
     class="cls-1"
     d="m 478.46,131.17 c -19.38,0.05 -109.5,3.1 -172.63,94.93 -45.41,65.22 -46.86,141.07 -4.35,227.55 L 418.15,315.23 383.37,566.7 c 72.47,73.19 72.47,186.24 7.97,252.92 -64.5,76.09 -169.58,94.93 -202.19,63.05 -31.89,-28.26 -14.49,-71.02 3.62,-81.16 -9.42,41.31 12.32,52.9 46.38,44.93 23.51,-6.11 52.18,-22.47 81.16,-57.25 15.94,-19.57 34.06,-42.76 38.41,-79.72 2.42,-40.58 -13.29,-54.35 -47.1,-41.31 C 236.74,708.26 132.86,742.08 0,769.62 v -416.7 l 104.35,268.86 h 63.77 l 48.55,-67.4 C 164.49,487.23 139.85,411.86 142.75,328.28 144.2,270.31 160.14,176.82 256.53,84.79 351.48,4.35 450.04,0 479.03,0 c 28.99,0 127.54,4.35 222.48,84.79 96.38,92.04 112.33,185.52 113.78,243.49 2.9,83.58 -21.74,158.95 -73.92,226.1 l 48.55,67.4 h 63.77 L 958.04,352.92 v 416.7 C 825.18,742.08 721.31,708.26 646.42,668.16 c -33.82,-13.04 -49.52,0.72 -47.1,41.31 4.35,36.96 22.47,60.15 38.41,79.72 28.99,34.78 57.66,51.14 81.16,57.25 34.06,7.97 55.8,-3.62 46.38,-44.93 18.12,10.15 35.51,52.9 3.62,81.16 C 736.28,914.56 631.2,895.71 566.7,819.62 502.2,752.95 502.2,639.9 574.67,566.7 L 539.89,315.23 656.56,453.65 C 699.07,367.17 697.63,291.32 652.21,226.1 589.08,134.27 498.95,131.22 479.58,131.17 h -1.13 z"
     id="path1" />
</svg>
