<?xml version="1.0" encoding="UTF-8" standalone="no"?>
<!-- Generator: Adobe Illustrator 15.1.0, SVG Export Plug-In . SVG Version: 6.00 Build 0)  -->

<svg
   version="1.1"
   id="Layer_1"
   x="0px"
   y="0px"
   width="149.99899"
   height="110.09219"
   viewBox="0 0 149.99899 110.09219"
   enable-background="new 0 0 156 116"
   xml:space="preserve"
   xmlns="http://www.w3.org/2000/svg"
   xmlns:svg="http://www.w3.org/2000/svg"><defs
   id="defs2" />
<g
   id="g2"
   transform="translate(-3.073,-1.523)">
	<path
   fill="#ffffff"
   d="M 62.382,24.478 77.052,1.706 c 5.831,0.209 11.667,1.344 17.276,3.45 l -7.426,19.02 c -8.027,-2.942 -16.767,-2.74 -24.52,0.302 z M 43.575,83.902 47.774,77.905 C 42.812,71.547 40.295,63.697 40.48,55.805 L 24.101,77.33 c 2.459,6.071 6.021,11.746 10.627,16.701 l 3.01,-12.737 z m 11.633,1.056 C 53.423,83.708 51.8,82.313 50.327,80.812 l -5.454,7.79 -4.522,-2.023 -2.462,10.591 c 1.75,1.601 3.622,3.106 5.617,4.503 4.632,3.243 9.589,5.672 14.703,7.317 l -0.33,-22.344 c -0.906,-0.52 -1.798,-1.078 -2.671,-1.688 z M 98.301,6.83 90.809,25.891 c 1.385,0.713 2.74,1.519 4.053,2.437 4.645,3.253 8.236,7.444 10.716,12.136 l 8.874,-0.532 8.584,-10.102 C 119.12,22.807 113.596,16.536 106.565,11.614 103.907,9.752 101.141,8.161 98.301,6.83 Z m -36.073,81.916 0.308,21.439 c 16.466,3.839 34.03,-0.13 47.271,-10.951 L 92.001,86.767 c -8.995,5.057 -19.974,5.898 -29.773,1.979 z m 45.026,-44.624 c 2.18,5.624 2.865,11.76 1.949,17.764 l 17.869,12.512 c 4.621,-13.525 3.709,-28.226 -2.182,-40.928 l -8.609,10.111 z m -54.237,31.788 0.559,-18.015 14.229,9.963 7.565,3.004 47.647,33.363 30.055,7.061 L 136.158,85.459 88.512,52.096 83.102,46.014 68.873,36.05 85.61,29.363 57.166,25.907 72.728,1.726 c -4.681,0.2 -9.321,0.993 -13.801,2.362 L 45.825,24.877 40.153,23.445 39.848,23.367 18.379,8.335 16.07,1.523 3.352,6.449 3.073,20.087 l 7.19,-0.16 21.468,15.032 0.177,0.261 3.286,4.839 -15.048,19.49 c 0.25,4.655 1.09,9.262 2.496,13.707 L 40.041,50.363 Z"
   id="path1" />
	<path
   fill="#000000"
   d="m 90.049,7.236 -4.992,12.725 c -5.033,-1.37 -10.245,-1.673 -15.309,-0.959 2.819,-4.381 6.068,-9.43 8.922,-13.862 3.826,0.264 7.643,0.962 11.379,2.096 z m -47.588,72.64 1.213,-1.733 c -2.834,-4.145 -4.796,-8.771 -5.819,-13.594 -3.152,4.146 -6.785,8.928 -9.974,13.124 1.419,3.192 3.172,6.256 5.243,9.137 l 2.374,-10.046 z m 10.777,7.936 c -0.877,-0.614 -1.713,-1.265 -2.522,-1.938 l -4.729,6.754 -3.396,-1.519 -1.126,4.764 c 1.262,1.078 2.583,2.109 3.971,3.081 3.03,2.122 6.209,3.869 9.482,5.259 L 54.696,88.778 c -0.491,-0.311 -0.978,-0.631 -1.458,-0.966 z m 46.708,-76.4 -5.029,12.817 c 0.658,0.403 1.312,0.821 1.952,1.271 4.537,3.177 8.158,7.17 10.825,11.636 l 5.188,-0.333 6.15,-7.223 c -3.586,-5.833 -8.396,-11.046 -14.361,-15.223 -1.538,-1.078 -3.116,-2.057 -4.725,-2.945 z m -34.443,82.066 0.202,13.973 c 13.35,2.448 27.264,-0.471 38.529,-8.184 L 92.007,90.705 c -8.153,4.05 -17.592,5.081 -26.504,2.773 z m 58.322,-53.787 -5.978,7.018 -5.991,0.383 c 1.132,4.366 1.479,8.919 1.023,13.436 l 12.29,8.606 c 2.438,-9.801 1.915,-20.049 -1.344,-29.443 z m -65.981,0.863 7.542,-3.013 15.56,10.895 5.41,6.083 47.448,33.224 12.156,18.563 -21.601,-5.075 -47.449,-33.224 -7.565,-3.003 -15.56,-10.896 0.251,-8.117 4.831,0.974 c -1.04,2.554 -0.225,5.574 2.128,7.222 2.732,1.914 6.499,1.25 8.413,-1.483 1.913,-2.733 1.249,-6.5 -1.483,-8.413 -2.354,-1.647 -5.47,-1.38 -7.514,0.47 z m 20.564,11.077 c -2.732,-1.914 -6.5,-1.25 -8.413,1.483 -1.914,2.732 -1.25,6.499 1.484,8.412 2.732,1.914 6.499,1.25 8.413,-1.483 1.914,-2.732 1.249,-6.499 -1.484,-8.412 z M 52.919,32.486 56.093,37.685 72.721,31.042 55.216,28.914 Z m -8.125,11.641 -2.581,3.396 7.975,15.701 0.555,-17.897 z M 55.022,42.63 48.961,32.702 66.29,5.775 c -1.806,0.312 -3.597,0.713 -5.362,1.213 l -13.627,21.585 -5.304,-1.34 -2.125,4.788 -3.773,3.635 3.074,4.525 -15.622,20.187 c 0.133,1.83 0.368,3.65 0.694,5.454 L 43.621,40.33 Z M 15.239,9.106 14.099,5.742 6.529,8.674 6.363,16.791 9.914,16.712 Z m 50.838,37.823 c 1.275,0.894 1.585,2.651 0.692,3.926 -0.893,1.276 -2.651,1.586 -3.926,0.693 -1.275,-0.894 -1.585,-2.651 -0.692,-3.927 0.893,-1.276 2.651,-1.585 3.926,-0.692 z M 13.115,17.99 l 20.948,14.668 0.2,0.294 2.921,-2.813 1.645,-3.706 -0.344,-0.088 -20.949,-14.668 z m 59.519,36.972 c -0.893,1.275 -0.583,3.033 0.692,3.926 1.275,0.893 3.033,0.583 3.926,-0.692 0.893,-1.275 0.583,-3.033 -0.692,-3.926 -1.275,-0.893 -3.033,-0.583 -3.926,0.692 z"
   id="path2" />
</g>
</svg>
