<?xml version="1.0" encoding="UTF-8" standalone="no"?>
<!-- Generator: Adobe Illustrator 15.1.0, SVG Export Plug-In . SVG Version: 6.00 Build 0)  -->

<svg
   version="1.1"
   id="Layer_1"
   x="0px"
   y="0px"
   width="150"
   height="110.09219"
   viewBox="0 0 150 110.09219"
   enable-background="new 0 0 156 116"
   xml:space="preserve"
   xmlns="http://www.w3.org/2000/svg"
   xmlns:svg="http://www.w3.org/2000/svg"><defs
   id="defs19" />
<g
   id="g19"
   transform="translate(-3.247,-1.523)">
	<path
   fill="#000000"
   d="M 62.555,24.478 77.226,1.705 c 5.831,0.209 11.666,1.344 17.276,3.45 l -7.427,19.02 C 79.048,21.234 70.309,21.436 62.555,24.478 Z M 43.748,83.902 47.947,77.905 C 42.984,71.547 40.468,63.697 40.652,55.805 L 24.274,77.33 c 2.459,6.071 6.021,11.746 10.627,16.701 l 3.01,-12.737 z m 11.634,1.056 c -1.785,-1.25 -3.408,-2.645 -4.881,-4.146 l -5.454,7.79 -4.522,-2.023 -2.462,10.591 c 1.75,1.601 3.621,3.106 5.616,4.503 4.632,3.243 9.589,5.672 14.703,7.317 L 58.053,86.646 c -0.907,-0.52 -1.799,-1.078 -2.671,-1.688 z M 98.475,6.83 90.982,25.891 c 1.386,0.713 2.741,1.519 4.054,2.437 4.645,3.253 8.236,7.444 10.715,12.136 l 8.875,-0.532 8.584,-10.102 C 119.293,22.807 113.769,16.536 106.739,11.614 104.08,9.752 101.314,8.161 98.475,6.83 Z m -36.074,81.916 0.308,21.439 c 16.467,3.839 34.031,-0.13 47.271,-10.951 L 92.174,86.767 c -8.994,5.057 -19.973,5.898 -29.773,1.979 z m 45.027,-44.624 c 2.18,5.624 2.864,11.76 1.948,17.764 l 17.869,12.512 c 4.622,-13.525 3.709,-28.226 -2.181,-40.928 l -8.61,10.111 z M 53.19,75.91 l 0.56,-18.015 14.229,9.963 7.566,3.004 47.646,33.363 30.056,7.061 L 136.333,85.459 88.686,52.096 83.276,46.014 69.046,36.05 85.783,29.363 57.339,25.907 72.901,1.726 C 68.22,1.926 63.58,2.719 59.1,4.088 L 45.998,24.877 40.326,23.445 40.021,23.367 18.553,8.335 16.244,1.523 3.525,6.449 3.247,20.087 l 7.19,-0.16 21.468,15.032 0.178,0.261 3.285,4.839 -15.048,19.49 c 0.25,4.655 1.09,9.262 2.495,13.707 l 17.4,-22.893 z"
   id="path1" />
	<linearGradient
   id="SVGID_1_"
   gradientUnits="userSpaceOnUse"
   x1="43.146999"
   y1="97.141602"
   x2="109.5304"
   y2="18.028999">
		<stop
   offset="0"
   style="stop-color:#BB2F27"
   id="stop1" />
		<stop
   offset="0.0103"
   style="stop-color:#C13E27"
   id="stop2" />
		<stop
   offset="0.0332"
   style="stop-color:#CD5827"
   id="stop3" />
		<stop
   offset="0.056"
   style="stop-color:#D76A27"
   id="stop4" />
		<stop
   offset="0.0784"
   style="stop-color:#DE7526"
   id="stop5" />
		<stop
   offset="0.1"
   style="stop-color:#E07826"
   id="stop6" />
		<stop
   offset="0.148"
   style="stop-color:#E58025"
   id="stop7" />
		<stop
   offset="0.2497"
   style="stop-color:#EE8D23"
   id="stop8" />
		<stop
   offset="0.3611"
   style="stop-color:#F49621"
   id="stop9" />
		<stop
   offset="0.5"
   style="stop-color:#F79820"
   id="stop10" />
		<stop
   offset="0.6389"
   style="stop-color:#F49621"
   id="stop11" />
		<stop
   offset="0.7503"
   style="stop-color:#EE8D23"
   id="stop12" />
		<stop
   offset="0.852"
   style="stop-color:#E58025"
   id="stop13" />
		<stop
   offset="0.9"
   style="stop-color:#E07826"
   id="stop14" />
		<stop
   offset="0.9193"
   style="stop-color:#DD7326"
   id="stop15" />
		<stop
   offset="0.9445"
   style="stop-color:#D46527"
   id="stop16" />
		<stop
   offset="0.9729"
   style="stop-color:#C84E27"
   id="stop17" />
		<stop
   offset="1"
   style="stop-color:#BB2F27"
   id="stop18" />
	</linearGradient>
	<path
   fill="url(#SVGID_1_)"
   d="M 90.223,7.236 85.23,19.961 c -5.033,-1.37 -10.246,-1.673 -15.309,-0.959 2.818,-4.381 6.068,-9.43 8.921,-13.862 3.828,0.264 7.644,0.962 11.381,2.096 z m -47.588,72.64 1.213,-1.733 c -2.834,-4.145 -4.796,-8.771 -5.818,-13.594 -3.152,4.146 -6.785,8.928 -9.975,13.124 1.419,3.192 3.172,6.256 5.243,9.137 l 2.374,-10.046 z m 10.777,7.936 c -0.878,-0.614 -1.714,-1.265 -2.523,-1.938 l -4.729,6.754 -3.396,-1.519 -1.125,4.764 c 1.262,1.078 2.582,2.109 3.971,3.081 3.029,2.122 6.209,3.869 9.481,5.259 L 54.869,88.778 c -0.49,-0.311 -0.977,-0.631 -1.457,-0.966 z m 46.707,-76.4 -5.029,12.817 c 0.658,0.403 1.312,0.821 1.952,1.271 4.537,3.177 8.159,7.17 10.825,11.636 l 5.189,-0.333 6.15,-7.223 C 115.62,23.747 110.81,18.534 104.844,14.357 103.307,13.279 101.729,12.3 100.119,11.412 Z m -34.442,82.066 0.202,13.973 c 13.349,2.448 27.263,-0.471 38.529,-8.184 L 92.181,90.705 c -8.154,4.05 -17.593,5.081 -26.504,2.773 z m 58.321,-53.787 -5.977,7.018 -5.992,0.383 c 1.133,4.366 1.48,8.919 1.023,13.436 l 12.291,8.606 c 2.438,-9.801 1.914,-20.049 -1.345,-29.443 z m -65.98,0.863 7.541,-3.013 15.561,10.895 5.409,6.083 47.449,33.224 12.156,18.563 -21.602,-5.075 -47.448,-33.224 -7.566,-3.003 -15.559,-10.896 0.251,-8.117 4.831,0.974 c -1.04,2.554 -0.226,5.574 2.128,7.222 2.732,1.914 6.499,1.25 8.413,-1.483 1.913,-2.733 1.249,-6.5 -1.483,-8.413 -2.354,-1.647 -5.47,-1.38 -7.514,0.47 z m 20.564,11.077 c -2.732,-1.914 -6.5,-1.25 -8.414,1.483 -1.913,2.732 -1.249,6.499 1.484,8.412 2.732,1.914 6.499,1.25 8.412,-1.483 1.915,-2.732 1.25,-6.499 -1.482,-8.412 z M 53.093,32.486 56.267,37.685 72.895,31.042 55.391,28.914 Z m -8.126,11.641 -2.58,3.396 7.975,15.701 0.555,-17.897 z M 55.195,42.63 49.134,32.702 66.463,5.775 c -1.807,0.312 -3.598,0.713 -5.362,1.213 l -13.626,21.585 -5.305,-1.34 -2.125,4.788 -3.772,3.635 3.073,4.525 -15.621,20.187 c 0.133,1.83 0.367,3.65 0.693,5.454 L 43.794,40.33 Z M 15.412,9.106 14.272,5.742 6.702,8.674 6.536,16.791 10.088,16.712 Z"
   id="path18"
   style="fill:url(#SVGID_1_)" />
	<path
   fill="#bb2f27"
   d="m 66.25,46.929 c 1.275,0.894 1.586,2.651 0.693,3.926 -0.894,1.276 -2.651,1.586 -3.927,0.693 -1.274,-0.894 -1.585,-2.651 -0.692,-3.927 0.893,-1.276 2.651,-1.585 3.926,-0.692 z M 13.289,17.99 l 20.947,14.668 0.199,0.294 2.922,-2.813 1.645,-3.706 -0.345,-0.088 -20.948,-14.668 z m 59.519,36.972 c -0.893,1.275 -0.583,3.033 0.692,3.926 1.275,0.893 3.033,0.583 3.926,-0.692 0.893,-1.275 0.584,-3.033 -0.691,-3.926 -1.275,-0.893 -3.034,-0.583 -3.927,0.692 z"
   id="path19" />
</g>
</svg>
