<?xml version="1.0" encoding="UTF-8" standalone="no"?>
<!-- Generator: Adobe Illustrator 15.1.0, SVG Export Plug-In . SVG Version: 6.00 Build 0)  -->

<svg
   version="1.1"
   id="Layer_1"
   x="0px"
   y="0px"
   width="150"
   height="110.09219"
   viewBox="0 0 150 110.09219"
   enable-background="new 0 0 156 116"
   xml:space="preserve"
   xmlns="http://www.w3.org/2000/svg"
   xmlns:svg="http://www.w3.org/2000/svg"><defs
   id="defs17" />
<g
   id="g17"
   transform="translate(-3.189,-1.523)">
	<path
   fill="#000000"
   d="M 62.498,24.478 77.168,1.706 c 5.83,0.209 11.666,1.344 17.275,3.45 l -7.426,19.02 C 78.99,21.234 70.251,21.436 62.498,24.478 Z M 43.691,83.902 47.89,77.905 C 42.928,71.547 40.411,63.697 40.596,55.805 L 24.217,77.33 c 2.459,6.071 6.021,11.746 10.627,16.701 l 3.01,-12.737 z m 11.633,1.056 c -1.785,-1.25 -3.408,-2.645 -4.881,-4.146 l -5.454,7.79 -4.522,-2.023 -2.462,10.591 c 1.75,1.601 3.622,3.106 5.617,4.503 4.632,3.243 9.589,5.672 14.703,7.317 l -0.33,-22.344 c -0.906,-0.52 -1.799,-1.078 -2.671,-1.688 z M 98.416,6.83 90.924,25.891 c 1.385,0.713 2.741,1.519 4.053,2.437 4.646,3.253 8.236,7.444 10.717,12.136 l 8.873,-0.532 8.584,-10.102 C 119.235,22.807 113.712,16.536 106.681,11.614 104.023,9.752 101.257,8.161 98.416,6.83 Z m -36.072,81.916 0.308,21.439 c 16.466,3.839 34.03,-0.13 47.271,-10.951 L 92.117,86.767 c -8.996,5.057 -19.974,5.898 -29.773,1.979 z M 107.37,44.122 c 2.18,5.624 2.864,11.76 1.948,17.764 l 17.869,12.512 c 4.622,-13.525 3.709,-28.226 -2.182,-40.928 l -8.609,10.111 z m -54.237,31.788 0.559,-18.015 14.229,9.963 7.565,3.004 47.648,33.363 30.055,7.061 L 136.275,85.459 88.627,52.096 83.218,46.014 68.988,36.05 85.724,29.363 57.281,25.907 72.844,1.726 c -4.681,0.2 -9.321,0.993 -13.801,2.362 L 45.941,24.877 40.269,23.445 39.964,23.367 18.495,8.335 16.186,1.523 3.467,6.449 3.189,20.087 l 7.19,-0.16 21.468,15.032 0.177,0.261 3.286,4.839 -15.048,19.49 c 0.25,4.655 1.09,9.262 2.496,13.707 L 40.157,50.363 Z"
   id="path1" />
	<linearGradient
   id="SVGID_1_"
   gradientUnits="userSpaceOnUse"
   x1="43.088402"
   y1="97.141602"
   x2="109.4721"
   y2="18.0285">
		<stop
   offset="0"
   style="stop-color:#8E752F"
   id="stop1" />
		<stop
   offset="0.0101"
   style="stop-color:#957B34"
   id="stop2" />
		<stop
   offset="0.0407"
   style="stop-color:#A58B44"
   id="stop3" />
		<stop
   offset="0.0709"
   style="stop-color:#AF964F"
   id="stop4" />
		<stop
   offset="0.1"
   style="stop-color:#B39953"
   id="stop5" />
		<stop
   offset="0.1367"
   style="stop-color:#B9A059"
   id="stop6" />
		<stop
   offset="0.2416"
   style="stop-color:#C9AF68"
   id="stop7" />
		<stop
   offset="0.3567"
   style="stop-color:#D4B971"
   id="stop8" />
		<stop
   offset="0.5"
   style="stop-color:#D7BD74"
   id="stop9" />
		<stop
   offset="0.6433"
   style="stop-color:#D4B971"
   id="stop10" />
		<stop
   offset="0.7584"
   style="stop-color:#C9AF68"
   id="stop11" />
		<stop
   offset="0.8633"
   style="stop-color:#B9A059"
   id="stop12" />
		<stop
   offset="0.9"
   style="stop-color:#B39953"
   id="stop13" />
		<stop
   offset="0.9276"
   style="stop-color:#AE944E"
   id="stop14" />
		<stop
   offset="0.9637"
   style="stop-color:#A08740"
   id="stop15" />
		<stop
   offset="1"
   style="stop-color:#8E752F"
   id="stop16" />
	</linearGradient>
	<path
   fill="url(#SVGID_1_)"
   d="m 90.165,7.236 -4.993,12.725 c -5.033,-1.37 -10.245,-1.673 -15.308,-0.959 2.819,-4.381 6.068,-9.43 8.921,-13.862 3.826,0.264 7.645,0.962 11.38,2.096 z m -47.588,72.64 1.213,-1.733 c -2.834,-4.145 -4.796,-8.771 -5.819,-13.594 -3.152,4.146 -6.785,8.928 -9.974,13.124 1.419,3.192 3.172,6.256 5.243,9.137 l 2.374,-10.046 z m 10.777,7.936 c -0.877,-0.614 -1.713,-1.265 -2.522,-1.938 l -4.729,6.754 -3.396,-1.519 -1.126,4.764 c 1.262,1.078 2.583,2.109 3.971,3.081 3.03,2.122 6.209,3.869 9.482,5.259 L 54.812,88.778 c -0.491,-0.311 -0.978,-0.631 -1.458,-0.966 z m 46.709,-76.4 -5.029,12.817 c 0.658,0.403 1.311,0.821 1.951,1.271 4.537,3.177 8.158,7.17 10.826,11.636 l 5.188,-0.333 6.15,-7.223 c -3.587,-5.833 -8.396,-11.046 -14.362,-15.223 -1.539,-1.078 -3.117,-2.057 -4.724,-2.945 z m -34.444,82.066 0.202,13.973 c 13.349,2.448 27.263,-0.471 38.53,-8.184 L 92.124,90.705 c -8.153,4.05 -17.594,5.081 -26.505,2.773 z m 58.322,-53.787 -5.978,7.018 -5.991,0.383 c 1.131,4.366 1.479,8.919 1.023,13.436 l 12.29,8.606 c 2.438,-9.801 1.914,-20.049 -1.344,-29.443 z m -65.982,0.863 7.542,-3.013 15.559,10.895 5.41,6.083 47.449,33.224 12.156,18.563 -21.602,-5.075 -47.447,-33.224 -7.565,-3.003 -15.56,-10.896 0.251,-8.117 4.831,0.974 c -1.04,2.554 -0.225,5.574 2.128,7.222 2.732,1.914 6.499,1.25 8.413,-1.483 1.913,-2.733 1.249,-6.5 -1.483,-8.413 -2.354,-1.647 -5.47,-1.38 -7.514,0.47 z m 20.564,11.077 c -2.732,-1.914 -6.499,-1.25 -8.413,1.483 -1.914,2.732 -1.25,6.499 1.484,8.412 2.732,1.914 6.499,1.25 8.413,-1.483 1.915,-2.732 1.249,-6.499 -1.484,-8.412 z M 53.035,32.486 56.209,37.685 72.837,31.042 55.332,28.914 Z m -8.125,11.641 -2.581,3.396 7.975,15.701 0.555,-17.897 z M 55.138,42.63 49.077,32.702 66.405,5.775 c -1.806,0.312 -3.597,0.713 -5.362,1.213 l -13.626,21.585 -5.304,-1.34 -2.125,4.788 -3.773,3.635 3.074,4.525 -15.622,20.187 c 0.133,1.83 0.368,3.65 0.694,5.454 L 43.736,40.33 Z M 15.355,9.106 14.215,5.742 6.645,8.674 6.479,16.791 10.03,16.712 Z"
   id="path16"
   style="fill:url(#SVGID_1_)" />
	<path
   fill="#8e752f"
   d="m 66.193,46.929 c 1.275,0.894 1.585,2.651 0.692,3.926 -0.893,1.276 -2.651,1.586 -3.926,0.693 -1.275,-0.894 -1.585,-2.651 -0.692,-3.927 0.893,-1.276 2.65,-1.585 3.926,-0.692 z M 13.231,17.99 34.179,32.658 34.379,32.952 37.3,30.139 38.945,26.433 38.6,26.345 17.651,11.677 Z M 72.75,54.962 c -0.893,1.275 -0.583,3.033 0.692,3.926 1.275,0.893 3.033,0.583 3.926,-0.692 0.893,-1.275 0.583,-3.033 -0.692,-3.926 -1.275,-0.893 -3.033,-0.583 -3.926,0.692 z"
   id="path17" />
</g>
</svg>
