<?xml version="1.0" encoding="UTF-8" standalone="no"?>
<!-- Generator: Adobe Illustrator 15.1.0, SVG Export Plug-In . SVG Version: 6.00 Build 0)  -->

<svg
   version="1.1"
   id="Layer_1"
   x="0px"
   y="0px"
   width="150.00101"
   height="110.84254"
   viewBox="0 0 150.00101 110.84254"
   enable-background="new 0 0 156 116"
   xml:space="preserve"
   xmlns="http://www.w3.org/2000/svg"
   xmlns:svg="http://www.w3.org/2000/svg"><defs
   id="defs1" />
<g
   id="g1"
   transform="translate(-2.838,-2.053)">
	<path
   fill="#000000"
   d="M 92.76,4.306 87.396,17.979 C 81.988,16.507 76.388,16.182 70.947,16.949 73.976,12.242 77.468,6.817 80.534,2.053 84.645,2.338 88.746,3.087 92.76,4.306 Z M 41.626,82.358 42.93,80.496 c -3.045,-4.453 -5.154,-9.425 -6.253,-14.606 -3.387,4.455 -7.29,9.593 -10.717,14.102 1.524,3.431 3.409,6.722 5.634,9.817 l 2.55,-10.794 z m 11.581,8.528 c -0.943,-0.66 -1.841,-1.359 -2.71,-2.082 l -5.082,7.257 -3.648,-1.632 -1.21,5.119 c 1.356,1.158 2.775,2.267 4.267,3.311 3.255,2.28 6.672,4.157 10.188,5.65 L 54.773,91.924 C 54.245,91.59 53.722,91.246 53.207,90.886 Z M 103.395,8.793 97.99,22.565 c 0.708,0.434 1.409,0.883 2.098,1.365 4.875,3.413 8.767,7.704 11.633,12.503 l 5.575,-0.358 6.608,-7.761 c -3.854,-6.268 -9.021,-11.869 -15.433,-16.356 -1.653,-1.159 -3.348,-2.211 -5.076,-3.165 z m -37.01,88.181 0.217,15.014 c 14.343,2.631 29.294,-0.506 41.401,-8.793 l -13.138,-9.2 c -8.761,4.351 -18.905,5.459 -28.48,2.979 z m 62.669,-57.794 -6.423,7.54 -6.438,0.412 c 1.215,4.691 1.589,9.583 1.1,14.437 l 13.206,9.247 c 2.618,-10.531 2.056,-21.543 -1.445,-31.636 z m -70.899,0.926 8.104,-3.237 16.72,11.706 5.813,6.536 50.984,35.699 13.063,19.947 -23.211,-5.453 -50.984,-35.7 -8.129,-3.227 -16.721,-11.706 0.271,-8.722 5.19,1.046 c -1.117,2.744 -0.242,5.989 2.287,7.76 2.936,2.057 6.983,1.343 9.04,-1.594 2.056,-2.938 1.342,-6.984 -1.594,-9.04 -2.529,-1.771 -5.878,-1.483 -8.074,0.505 z m 22.097,11.903 c -2.936,-2.057 -6.984,-1.343 -9.04,1.594 -2.056,2.937 -1.343,6.983 1.594,9.039 2.936,2.057 6.983,1.343 9.04,-1.594 2.057,-2.937 1.342,-6.984 -1.594,-9.039 z m -27.388,-20.571 3.41,5.587 17.868,-7.138 -18.809,-2.286 z m -8.731,12.507 -2.773,3.649 8.569,16.872 0.596,-19.231 z M 55.123,42.337 48.611,31.67 67.23,2.736 c -1.94,0.335 -3.865,0.766 -5.762,1.303 l -14.641,23.193 -5.7,-1.439 -2.283,5.146 -4.054,3.905 3.303,4.862 -16.786,21.691 c 0.143,1.966 0.396,3.922 0.746,5.86 L 42.873,39.865 Z M 12.376,6.315 11.151,2.7 3.016,5.85 2.838,14.572 6.654,14.487 Z m 54.626,40.641 c 1.371,0.96 1.704,2.849 0.744,4.219 -0.96,1.371 -2.849,1.704 -4.219,0.745 -1.37,-0.961 -1.704,-2.85 -0.744,-4.22 0.96,-1.37 2.848,-1.703 4.219,-0.744 z m -56.908,-31.095 22.508,15.761 0.215,0.316 3.139,-3.023 1.767,-3.982 -0.37,-0.095 -22.51,-15.761 z m 63.954,39.727 c -0.959,1.37 -0.626,3.26 0.744,4.219 1.371,0.959 3.259,0.626 4.218,-0.744 0.96,-1.371 0.627,-3.26 -0.743,-4.219 -1.371,-0.959 -3.26,-0.626 -4.219,0.744 z"
   id="path1" />
</g>
</svg>
