<?xml version="1.0" encoding="UTF-8" standalone="no"?>
<svg
   width="295.54236pt"
   height="210.01807pt"
   viewBox="0 0 295.54236 210.01807"
   version="1.1"
   id="svg3"
   xmlns="http://www.w3.org/2000/svg"
   xmlns:svg="http://www.w3.org/2000/svg">
  <defs
     id="defs3" />
  <path
     fill="#808080"
     d="m 74.785043,31.530976 c 25.379997,-21.13 58.659997,-31.40000035 91.429997,-31.53000035276 31.49,-0.10999999724 63.48,9.07999995276 88.64,28.34000035276 17.14,12.93 30.85,30.9 37.04,51.6 6.43,21.310004 4.29,45.040004 -5.88,64.840004 -11.14,22.43 -30.96,39.67 -53.28,50.5 -31.03,15.02 -67.21,18.41 -100.74,10.85 -26.25,-5.96 -51.299997,-19.14 -69.349997,-39.35 -11.79,-13.17 -20.28,-29.48 -23.27,-46.98 -11.4,0.9 -22.92,5.05 -31.0600004,13.31 -2.74,3 -5.53,5.96 -8.28000001,8.95 -0.07,-24.56 -0.01,-49.110004 -0.03,-73.670004 4.82000001,4.48 8.88000001,9.84 14.50000041,13.39 7.4,4.83 16.06,7.75 24.88,8.33 3.96,-23.09 17.48,-43.81 35.4,-58.58 M 148.79504,9.8609756 c -26.37,3.1800004 -52.209997,13.7000004 -71.989997,31.6400004 -16.39,14.71 -27.99,35.27 -29.78,57.43 -13.43,0.78 -27.18,-2.73 -38.3000004,-10.38 0.06,10.9 0.03,21.800004 0.01,32.700004 11.0700004,-7.8 24.9200004,-10.9 38.3200004,-10.2 1.53,19.3 10.51,37.52 23.71,51.51 19.66,20.91 47.219997,33.36 75.429997,37.26 32.45,4.54 66.79,-1.61 94.67,-19.16 18.5,-11.62 34.12,-28.74 41.41,-49.56 6.1,-16.95 5.99,-36.020004 -0.26,-52.910004 -7.41,-20.47 -22.83,-37.32 -41.09,-48.8 -27.15,-17.11 -60.44,-23.3900004 -92.13,-19.5300004 z"
     id="path1" />
  <path
     fill="#808080"
     d="m 155.05504,15.900976 c 19.38,-1.89 39.88,0.43 56.95,10.37 13.62,7.82 23.95,20.66 29.81,35.12 7.03,17.26 8.74,36.29 7.24,54.740004 -1.88,20.84 -9.85,41.76 -25.05,56.52 -12,11.73 -28.13,18.76 -44.71,20.73 -17.92,2.01 -36.75,-0.02 -52.85,-8.55 -15.62,-8.15 -27.749997,-22.25 -34.449997,-38.46 -4.75,-11.18 -7.11,-23.26 -7.8,-35.36 21.629997,-0.01 43.269997,0 64.899997,0 1.83,5.34 4.92,10.6 10.13,13.23 6.58,3.95 15.45,1.72 20.26,-3.97 8.02,-8.84 7.44,-24.010004 -1.49,-32.010004 -4.93,-4.64 -12.87,-6.02 -18.79,-2.47 -5.2,2.63 -8.28,7.89 -10.11,13.22 -21.65,0 -43.29,0 -64.939997,0 0.88,-21.8 7.02,-44.54 22.389997,-60.68 12.42,-13.53 30.47,-20.71 48.51,-22.43 m -39.8,26.22 c -13.22,12.42 -19.629997,30.44 -21.589997,48.13 16.499997,0.02 32.999997,0.01 49.499997,0.01 3.94,-7.62 11.25,-13.75 19.9,-14.94 9.55,-1.63 19.5,3.1 24.95,10.97 9.18,12.53 7.5,31.840004 -4.26,42.170004 -6.78,6.19 -17.05,8.31 -25.64,4.95 -6.56,-2.36 -11.73,-7.56 -14.95,-13.65 -16.43,-0.02 -32.87,0.03 -49.299997,-0.02 1.85,13.56 6.509997,26.91 14.599997,38.04 10.2,14.28 26.41,23.75 43.69,26.39 16.68,2.55 34.48,1.17 49.69,-6.57 12.75,-6.23 23.03,-16.99 29.32,-29.65 9.53,-18.6 11.22,-40.31 8.46,-60.760004 -2.49,-18.05 -10.01,-36.27 -24.45,-47.99 -14.93,-12.3 -35.11,-16.03 -53.99,-14.98 -16.65,0.75 -33.8,6.03 -45.93,17.9 z"
     id="path2" />
  <path
     d="m 148.79504,9.8609756 c 31.69,-3.86 64.98,2.4200004 92.13,19.5300004 18.26,11.48 33.68,28.33 41.09,48.8 6.25,16.89 6.36,35.960004 0.26,52.910004 -7.29,20.82 -22.91,37.94 -41.41,49.56 -27.88,17.55 -62.22,23.7 -94.67,19.16 -28.21,-3.9 -55.769997,-16.35 -75.429997,-37.26 -13.2,-13.99 -22.18,-32.21 -23.71,-51.51 -13.4,-0.7 -27.25,2.4 -38.3200004,10.2 0.02,-10.9 0.05,-21.800004 -0.01,-32.700004 11.1200004,7.65 24.8700004,11.16 38.3000004,10.38 1.79,-22.16 13.39,-42.72 29.78,-57.43 19.78,-17.94 45.619997,-28.46 71.989997,-31.6400004 m 6.26,6.0400004 c -18.04,1.72 -36.09,8.9 -48.51,22.43 -15.369997,16.14 -21.509997,38.88 -22.389997,60.68 21.649997,0 43.289997,0 64.939997,0 1.83,-5.33 4.91,-10.59 10.11,-13.22 5.92,-3.55 13.86,-2.17 18.79,2.47 8.93,8 9.51,23.170004 1.49,32.010004 -4.81,5.69 -13.68,7.92 -20.26,3.97 -5.21,-2.63 -8.3,-7.89 -10.13,-13.23 -21.63,0 -43.27,-0.01 -64.899997,0 0.69,12.1 3.05,24.18 7.8,35.36 6.7,16.21 18.829997,30.31 34.449997,38.46 16.1,8.53 34.93,10.56 52.85,8.55 16.58,-1.97 32.71,-9 44.71,-20.73 15.2,-14.76 23.17,-35.68 25.05,-56.52 1.5,-18.450004 -0.21,-37.480004 -7.24,-54.740004 -5.86,-14.46 -16.19,-27.3 -29.81,-35.12 -17.07,-9.94 -37.57,-12.26 -56.95,-10.37 z"
     id="path3" />
</svg>
