<?xml version="1.0" encoding="UTF-8"?>
<svg id="Layer_2" data-name="Layer 2" xmlns="http://www.w3.org/2000/svg" viewBox="0 0 278.05 192.5">
  <defs>
    <style>
      .cls-1 {
        stroke-width: 0px;
      }
    </style>
  </defs>
  <g id="Layer_1-2" data-name="Layer 1">
    <path class="cls-1" d="M140.07,1.1c31.69-3.86,64.98,2.42,92.13,19.53,18.26,11.48,33.68,28.33,41.09,48.8,6.25,16.89,6.36,35.96.26,52.91-7.29,20.82-22.91,37.94-41.41,49.56-27.88,17.55-62.22,23.7-94.67,19.16-28.21-3.9-55.77-16.35-75.43-37.26-13.2-13.99-22.18-32.21-23.71-51.51-13.4-.7-27.25,2.4-38.32,10.2.02-10.9.05-21.8,0-32.7,11.12,7.65,24.87,11.16,38.3,10.38,1.79-22.16,13.39-42.72,29.78-57.43C87.86,14.8,113.7,4.28,140.07,1.1M146.33,7.14c-18.04,1.72-36.09,8.9-48.51,22.43-15.37,16.14-21.51,38.88-22.39,60.68h64.94c1.83-5.33,4.91-10.59,10.11-13.22,5.92-3.55,13.86-2.17,18.79,2.47,8.93,8,9.51,23.17,1.49,32.01-4.81,5.69-13.68,7.92-20.26,3.97-5.21-2.63-8.3-7.89-10.13-13.23-21.63,0-43.27-.01-64.9,0,.69,12.1,3.05,24.18,7.8,35.36,6.7,16.21,18.83,30.31,34.45,38.46,16.1,8.53,34.93,10.56,52.85,8.55,16.58-1.97,32.71-9,44.71-20.73,15.2-14.76,23.17-35.68,25.05-56.52,1.5-18.45-.21-37.48-7.24-54.74-5.86-14.46-16.19-27.3-29.81-35.12-17.07-9.94-37.57-12.26-56.95-10.37Z"/>
  </g>
</svg>