<svg xmlns="http://www.w3.org/2000/svg" width="510.967" height="650.269"><path d="M503.11 223.526c-16.606-85.15-53.246-145.327-53.246-145.327l-112.498 320.27s8.221 2.414 19.346 7.804zm6.079 128.45c1.142-15.39 1.778-31.687 1.778-48.855 0-17.294-1.197-34.154-3.194-50.323l-132.06 165.235c9.78 7.096 22.267 17.367 29.707 28.782zM254.286 532.943c-41.54 0-54.443 37.584-54.443 37.584-58.636-31.831-106.909-86.492-106.909-86.492.49-7.15 1.979-13.756 4.047-19.781L5.39 387.49c9.636 74.57 28.855 118.523 28.855 118.523s80.666 58.69 163.82 75.785c0 0-4.973 68.471 53.735 68.471h7.368c58.635 0 53.735-68.399 53.735-68.399 83.153-17.167 163.82-75.784 163.82-75.784s19.218-43.954 28.854-118.596l-91.591 76.765c2.069 6.098 3.557 12.703 4.047 19.781 0 0-48.273 54.734-106.981 86.492 0 0-12.83-37.584-54.37-37.584zm-100.03-126.67c11.124-5.463 19.345-7.804 19.345-7.804L61.103 78.199s-36.64 60.177-53.245 145.327zm-48.709 40.541c7.44-11.47 19.926-21.686 29.708-28.782L3.267 252.798C1.197 268.968 0 285.827 0 303.12c0 17.168.636 33.465 1.778 48.854zM68.471 0h374.025L303.12 420.446h-95.275z"/></svg>