<?xml version="1.0" encoding="utf-8"?>
<!-- Generator: Adobe Illustrator 28.0.0, SVG Export Plug-In . SVG Version: 6.00 Build 0)  -->
<svg version="1.1" id="Layer_1" xmlns="http://www.w3.org/2000/svg" xmlns:xlink="http://www.w3.org/1999/xlink" x="0px" y="0px"
	 viewBox="0 0 160 75" style="enable-background:new 0 0 160 75;" xml:space="preserve">
<style type="text/css">
	.st0{display:none;}
	.st1{fill:#8E752F;}
	.st2{fill:url(#SVGID_1_);}
	.st3{fill:url(#SVGID_00000090992067287384518750000001422564215573219245_);}
</style>
<g id="Layer_1_1_">
</g>
<g id="Layer_3" class="st0">
</g>
<g>
	<path d="M146.8,5.2l-1-1.4h-118c-1.6,0-3.1,1.2-3.4,2.8c-0.3,1.6,0.5,3.2,2,3.9c1.3,0.6,3.9,2.2,4.5,3.7c0.1,0.3,0.1,0.5,0,0.9
		L12.6,55.9c-2.4,5.4-6.6,8.9-6.6,9c-0.8,0.7-1.2,1.6-1.2,2.7v0.6c0,1.9,1.6,3.5,3.5,3.5h30.6c1.6,0,3-1,3.4-2.5
		c0.4-1.5-0.1-3-1.5-3.8c-0.4-0.3-2.8-2.5-2.8-8.5c0-4.3,9.3-10.4,15.6-13.2c0.1,0,0.2-0.1,0.2-0.1l6.6,14.9
		c1.6,3.7-3.1,6.8-3.3,6.9c-1.3,0.8-1.9,2.4-1.5,3.9c0.4,1.5,1.8,2.5,3.3,2.5h86.8l1-1.4c0.3-0.5,7.9-11.2,7.9-32.5
		C154.7,16.4,147.1,5.6,146.8,5.2z"/>
	<path class="st1" d="M61.2,67.3c2.2-2,5.4-5.9,3.2-10.8L46,15.4L34.5,41.1H49c-5.1,2.7-15.2,8.9-15.2,15.7c0,5.7,1.8,9,3.2,10.6
		H9.5c1.5-1.5,4.8-4.9,6.9-9.7l18.2-40.8c0.6-1.4,0.7-2.8,0.1-4.2C34,10.6,32.2,9,30.6,8h38.2c-1.8,1.6-3.2,4.3-1.6,7.8l19.1,42.8
		c2,4.5,4.8,7.3,6.8,8.8L61.2,67.3L61.2,67.3z"/>
	<g>
		<linearGradient id="SVGID_1_" gradientUnits="userSpaceOnUse" x1="68.3133" y1="37.6525" x2="151.0972" y2="37.6525">
			<stop  offset="0" style="stop-color:#8E752F"/>
			<stop  offset="7.000000e-02" style="stop-color:#967D38"/>
			<stop  offset="0.18" style="stop-color:#AF964F"/>
			<stop  offset="0.2" style="stop-color:#B49B54"/>
			<stop  offset="0.22" style="stop-color:#B9A059"/>
			<stop  offset="0.3" style="stop-color:#CAB068"/>
			<stop  offset="0.39" style="stop-color:#D4BA71"/>
			<stop  offset="0.5" style="stop-color:#D7BD74"/>
			<stop  offset="0.61" style="stop-color:#D4BA71"/>
			<stop  offset="0.7" style="stop-color:#CAB068"/>
			<stop  offset="0.78" style="stop-color:#B9A059"/>
			<stop  offset="0.8" style="stop-color:#B49B54"/>
			<stop  offset="0.86" style="stop-color:#A38A45"/>
			<stop  offset="0.94" style="stop-color:#947B35"/>
			<stop  offset="1" style="stop-color:#8E752F"/>
		</linearGradient>
		<path class="st2" d="M143.6,8H78.2c-2.1,0-4.4,1.3-5.6,3.2c-0.6,0.9-1.1,2.2-0.4,3.7c0.1,0.3,14.2,32,18.7,41.8
			c4.7,10.4,16.8,10.8,18.1,10.8h34.7c1.2-1.8,6.9-11.8,6.9-29.7C150.5,19.8,144.8,9.8,143.6,8z M113.1,44.6l0.2-0.1l2.6-5.7h0.2
			v11.2H92.3l-0.1-0.2c2.4-2.9,4.6-5.6,6.6-8.3c2-2.6,3.7-5.1,5.1-7.5c1.4-2.4,2.5-4.6,3.3-6.6c0.8-2.1,1.2-4,1.2-5.7
			c0-2-0.5-3.4-1.4-4.3c-0.9-0.9-2-1.4-3.3-1.4c-0.8,0-1.6,0.2-2.2,0.5c-0.6,0.3-1.1,0.8-1.5,1.3c-0.4,0.5-0.7,1.2-0.9,1.9
			c-0.2,0.7-0.3,1.4-0.3,2.2c0,0.5,0,1,0.1,1.4c0.1,0.5,0.2,0.9,0.3,1.2l-0.2,0.2l-5.8-7.3c1.2-1.2,2.8-2.2,4.6-3
			c1.8-0.8,3.8-1.2,6.1-1.2c1.6,0,3.1,0.2,4.5,0.6c1.4,0.4,2.7,1,3.8,1.8c1.1,0.8,2,1.7,2.6,2.9c0.7,1.2,1,2.5,1,4.1
			c0,1.8-0.4,3.5-1.2,5.1c-0.8,1.5-1.9,3.1-3.3,4.8c-1.4,1.6-3.1,3.4-5,5.4c-1.9,1.9-4,4.2-6.2,6.9H113.1z M141.5,43.8V51
			c-6.6-0.1-7.7,1.1-7.7,1.1l0.1-9.1h-11.8l-3.8-3.4l22.6-27.4l0.3-0.3v1.5v26h5.2L141.5,43.8z"/>
		
			<linearGradient id="SVGID_00000046339439612455727040000009168914716870037655_" gradientUnits="userSpaceOnUse" x1="98.3454" y1="32.4572" x2="143.5224" y2="32.4572">
			<stop  offset="0" style="stop-color:#8E752F"/>
			<stop  offset="7.000000e-02" style="stop-color:#967D38"/>
			<stop  offset="0.18" style="stop-color:#AF964F"/>
			<stop  offset="0.2" style="stop-color:#B49B54"/>
			<stop  offset="0.22" style="stop-color:#B9A059"/>
			<stop  offset="0.3" style="stop-color:#CAB068"/>
			<stop  offset="0.39" style="stop-color:#D4BA71"/>
			<stop  offset="0.5" style="stop-color:#D7BD74"/>
			<stop  offset="0.61" style="stop-color:#D4BA71"/>
			<stop  offset="0.7" style="stop-color:#CAB068"/>
			<stop  offset="0.78" style="stop-color:#B9A059"/>
			<stop  offset="0.8" style="stop-color:#B49B54"/>
			<stop  offset="0.86" style="stop-color:#A38A45"/>
			<stop  offset="0.94" style="stop-color:#947B35"/>
			<stop  offset="1" style="stop-color:#8E752F"/>
		</linearGradient>
		<polygon style="fill:url(#SVGID_00000046339439612455727040000009168914716870037655_);" points="123.1,39.4 133.9,39.4 
			133.9,25.5 123.1,38.8 		"/>
	</g>
</g>
<image style="display:none;overflow:visible;" width="12800" height="6400" xlink:href="../../../../art/ezgif.com-webp-to-png.png"  transform="matrix(1.276227e-02 0 0 1.255280e-02 -1.0929 -1.8155)">
</image>
</svg>
