<?xml version="1.0" encoding="UTF-8" standalone="no"?>
<svg
   width="149.80098"
   height="68"
   viewBox="0 0 149.80098 68"
   version="1.1"
   xml:space="preserve"
   style="clip-rule:evenodd;fill-rule:evenodd;stroke-linejoin:round;stroke-miterlimit:2"
   id="svg14"
   xmlns="http://www.w3.org/2000/svg"
   xmlns:svg="http://www.w3.org/2000/svg">
    <g
   transform="translate(-4.8,-3.8)"
   id="g5">
        <path
   d="m 146.8,5.2 -1,-1.4 h -118 c -1.6,0 -3.1,1.2 -3.4,2.8 -0.3,1.6 0.5,3.2 2,3.9 1.3,0.6 3.9,2.2 4.5,3.7 0.1,0.3 0.1,0.5 0,0.9 L 12.6,55.9 C 10.2,61.3 6,64.8 6,64.9 5.2,65.6 4.8,66.5 4.8,67.6 v 0.6 c 0,1.9 1.6,3.5 3.5,3.5 h 30.6 c 1.6,0 3,-1 3.4,-2.5 0.4,-1.5 -0.1,-3 -1.5,-3.8 -0.4,-0.3 -2.8,-2.5 -2.8,-8.5 0,-4.3 9.3,-10.4 15.6,-13.2 0.1,0 0.2,-0.1 0.2,-0.1 l 6.6,14.9 c 1.6,3.7 -3.1,6.8 -3.3,6.9 -1.3,0.8 -1.9,2.4 -1.5,3.9 0.4,1.5 1.8,2.5 3.3,2.5 h 86.8 l 1,-1.4 c 0.3,-0.5 7.9,-11.2 7.9,-32.5 0.1,-21.5 -7.5,-32.3 -7.8,-32.7 z"
   style="fill-rule:nonzero"
   id="path1" />
        <path
   d="m 61.2,67.3 c 2.2,-2 5.4,-5.9 3.2,-10.8 L 46,15.4 34.5,41.1 H 49 c -5.1,2.7 -15.2,8.9 -15.2,15.7 0,5.7 1.8,9 3.2,10.6 H 9.5 c 1.5,-1.5 4.8,-4.9 6.9,-9.7 L 34.6,16.9 c 0.6,-1.4 0.7,-2.8 0.1,-4.2 C 34,10.6 32.2,9 30.6,8 h 38.2 c -1.8,1.6 -3.2,4.3 -1.6,7.8 l 19.1,42.8 c 2,4.5 4.8,7.3 6.8,8.8 z"
   style="fill:#632e77;fill-rule:nonzero"
   id="path2" />
        <g
   id="g4">
            <path
   d="M 143.6,8 H 78.2 c -2.1,0 -4.4,1.3 -5.6,3.2 -0.6,0.9 -1.1,2.2 -0.4,3.7 0.1,0.3 14.2,32 18.7,41.8 4.7,10.4 16.8,10.8 18.1,10.8 h 34.7 c 1.2,-1.8 6.9,-11.8 6.9,-29.7 -0.1,-18 -5.8,-28 -7,-29.8 z m -30.5,36.6 0.2,-0.1 2.6,-5.7 h 0.2 V 50 H 92.3 l -0.1,-0.2 c 2.4,-2.9 4.6,-5.6 6.6,-8.3 2,-2.6 3.7,-5.1 5.1,-7.5 1.4,-2.4 2.5,-4.6 3.3,-6.6 0.8,-2.1 1.2,-4 1.2,-5.7 0,-2 -0.5,-3.4 -1.4,-4.3 -0.9,-0.9 -2,-1.4 -3.3,-1.4 -0.8,0 -1.6,0.2 -2.2,0.5 -0.6,0.3 -1.1,0.8 -1.5,1.3 -0.4,0.5 -0.7,1.2 -0.9,1.9 -0.2,0.7 -0.3,1.4 -0.3,2.2 0,0.5 0,1 0.1,1.4 0.1,0.5 0.2,0.9 0.3,1.2 L 99,24.7 93.2,17.4 c 1.2,-1.2 2.8,-2.2 4.6,-3 1.8,-0.8 3.8,-1.2 6.1,-1.2 1.6,0 3.1,0.2 4.5,0.6 1.4,0.4 2.7,1 3.8,1.8 1.1,0.8 2,1.7 2.6,2.9 0.7,1.2 1,2.5 1,4.1 0,1.8 -0.4,3.5 -1.2,5.1 -0.8,1.5 -1.9,3.1 -3.3,4.8 -1.4,1.6 -3.1,3.4 -5,5.4 -1.9,1.9 -4,4.2 -6.2,6.9 h 13 z m 28.4,-0.8 V 51 c -6.6,-0.1 -7.7,1.1 -7.7,1.1 l 0.1,-9.1 h -11.8 l -3.8,-3.4 22.6,-27.4 0.3,-0.3 v 27.5 h 5.2 z"
   style="fill:url(#_Linear1);fill-rule:nonzero"
   id="path3" />
            <path
   d="m 123.1,39.4 h 10.8 V 25.5 l -10.8,13.3 z"
   style="fill:url(#_Linear2);fill-rule:nonzero"
   id="path4" />
        </g>
    </g>
    <defs
   id="defs14">
        <linearGradient
   id="_Linear1"
   x1="0"
   y1="0"
   x2="1"
   y2="0"
   gradientUnits="userSpaceOnUse"
   gradientTransform="matrix(82.7839,0,0,82.7839,68.3133,37.6525)"><stop
     offset="0"
     style="stop-color:rgb(97,44,117);stop-opacity:1"
     id="stop5" /><stop
     offset="0.3"
     style="stop-color:rgb(123,81,144);stop-opacity:1"
     id="stop6" /><stop
     offset="0.5"
     style="stop-color:rgb(191,153,195);stop-opacity:1"
     id="stop7" /><stop
     offset="0.7"
     style="stop-color:rgb(123,81,144);stop-opacity:1"
     id="stop8" /><stop
     offset="1"
     style="stop-color:rgb(97,44,117);stop-opacity:1"
     id="stop9" /></linearGradient>
        <linearGradient
   id="_Linear2"
   x1="0"
   y1="0"
   x2="1"
   y2="0"
   gradientUnits="userSpaceOnUse"
   gradientTransform="matrix(45.177,0,0,45.177,98.3454,32.4572)"><stop
     offset="0"
     style="stop-color:rgb(97,44,117);stop-opacity:1"
     id="stop10" /><stop
     offset="0.3"
     style="stop-color:rgb(123,81,144);stop-opacity:1"
     id="stop11" /><stop
     offset="0.5"
     style="stop-color:rgb(191,153,195);stop-opacity:1"
     id="stop12" /><stop
     offset="0.7"
     style="stop-color:rgb(123,81,144);stop-opacity:1"
     id="stop13" /><stop
     offset="1"
     style="stop-color:rgb(97,44,117);stop-opacity:1"
     id="stop14" /></linearGradient>
    </defs>
</svg>
