<?xml version="1.0" encoding="UTF-8" standalone="no"?>
<svg
   width="149.80098"
   height="68"
   viewBox="0 0 149.80098 68"
   version="1.1"
   xml:space="preserve"
   style="clip-rule:evenodd;fill-rule:evenodd;stroke-linejoin:round;stroke-miterlimit:2"
   id="svg1"
   xmlns="http://www.w3.org/2000/svg"
   xmlns:svg="http://www.w3.org/2000/svg"><defs
   id="defs1" />
    <g
   transform="translate(-4.8,-3.8)"
   id="g1">
        <path
   d="m 146.8,5.2 c 0.3,0.4 7.9,11.2 7.8,32.7 0,21.3 -7.6,32 -7.9,32.5 l -1,1.4 H 58.9 c -1.5,0 -2.9,-1 -3.3,-2.5 -0.4,-1.5 0.2,-3.1 1.5,-3.9 0.2,-0.1 4.9,-3.2 3.3,-6.9 L 53.8,43.6 c 0,0 -0.1,0.1 -0.2,0.1 -6.3,2.8 -15.6,8.9 -15.6,13.2 0,6 2.4,8.2 2.8,8.5 1.4,0.8 1.9,2.3 1.5,3.8 -0.4,1.5 -1.8,2.5 -3.4,2.5 H 8.3 c -1.9,0 -3.5,-1.6 -3.5,-3.5 v -0.6 c 0,-1.1 0.4,-2 1.2,-2.7 0,-0.1 4.2,-3.6 6.6,-9 L 30.9,15.1 C 31,14.7 31,14.5 30.9,14.2 30.3,12.7 27.7,11.1 26.4,10.5 24.9,9.8 24.1,8.2 24.4,6.6 24.7,5 26.2,3.8 27.8,3.8 h 118 z M 143.6,8 H 78.2 c -2.1,0 -4.4,1.3 -5.6,3.2 -0.6,0.9 -1.1,2.2 -0.4,3.7 0.1,0.3 14.2,32 18.7,41.8 4.7,10.4 16.8,10.8 18.1,10.8 h 34.7 c 1.2,-1.8 6.9,-11.8 6.9,-29.7 -0.1,-18 -5.8,-28 -7,-29.8 z m -30.5,36.6 0.2,-0.1 2.6,-5.7 h 0.2 V 50 H 92.3 l -0.1,-0.2 c 2.4,-2.9 4.6,-5.6 6.6,-8.3 2,-2.6 3.7,-5.1 5.1,-7.5 1.4,-2.4 2.5,-4.6 3.3,-6.6 0.8,-2.1 1.2,-4 1.2,-5.7 0,-2 -0.5,-3.4 -1.4,-4.3 -0.9,-0.9 -2,-1.4 -3.3,-1.4 -0.8,0 -1.6,0.2 -2.2,0.5 -0.6,0.3 -1.1,0.8 -1.5,1.3 -0.4,0.5 -0.7,1.2 -0.9,1.9 -0.2,0.7 -0.3,1.4 -0.3,2.2 0,0.5 0,1 0.1,1.4 0.1,0.5 0.2,0.9 0.3,1.2 L 99,24.7 93.2,17.4 c 1.2,-1.2 2.8,-2.2 4.6,-3 1.8,-0.8 3.8,-1.2 6.1,-1.2 1.6,0 3.1,0.2 4.5,0.6 1.4,0.4 2.7,1 3.8,1.8 1.1,0.8 2,1.7 2.6,2.9 0.7,1.2 1,2.5 1,4.1 0,1.8 -0.4,3.5 -1.2,5.1 -0.8,1.5 -1.9,3.1 -3.3,4.8 -1.4,1.6 -3.1,3.4 -5,5.4 -1.9,1.9 -4,4.2 -6.2,6.9 h 13 z m 28.4,-0.8 V 51 c -6.6,-0.1 -7.7,1.1 -7.7,1.1 l 0.1,-9.1 h -11.8 l -3.8,-3.4 22.6,-27.4 0.3,-0.3 v 27.5 h 5.2 z m -18.4,-4.4 h 10.8 V 25.5 l -10.8,13.3 z m -61.9,27.9 31.9,0.1 c -2,-1.5 -4.8,-4.3 -6.8,-8.8 L 67.2,15.8 C 65.6,12.3 67,9.6 68.8,8 H 30.6 c 1.6,1 3.4,2.6 4.1,4.7 0.6,1.4 0.5,2.8 -0.1,4.2 L 16.4,57.7 C 14.3,62.5 11,65.9 9.5,67.4 H 37 C 35.6,65.8 33.8,62.5 33.8,56.8 33.8,50 43.9,43.8 49,41.1 H 34.5 L 46,15.4 64.4,56.5 c 2.2,4.9 -1,8.8 -3.2,10.8 z"
   id="path1" />
    </g>
</svg>
