<?xml version="1.0" encoding="UTF-8" standalone="no"?>
<svg xmlns="http://www.w3.org/2000/svg" version="1.1" id="svg2" width="88.953537" height="97.344574" viewBox="0 0 88.953533 97.344572">
    <filter style="color-interpolation-filters:sRGB;" id="filter852">
      <feFlood flood-opacity="0.5" flood-color="rgb(0,0,0)" result="flood" id="feFlood842"/>
      <feComposite in="flood" in2="SourceGraphic" operator="out" result="composite1" id="feComposite844"/>
      <feGaussianBlur in="composite1" stdDeviation="0.5" result="blur" id="feGaussianBlur846"/>
      <feOffset dx="1.38778e-016" dy="1.5" result="offset" id="feOffset848"/>
      <feComposite in="offset" in2="SourceGraphic" operator="atop" result="composite2" id="feComposite850"/>
    </filter>
    <filter style="color-interpolation-filters:sRGB;" id="filter864">
      <feFlood flood-opacity="0.5" flood-color="rgb(0,0,0)" result="flood" id="feFlood854"/>
      <feComposite in="flood" in2="SourceGraphic" operator="in" result="composite1" id="feComposite856"/>
      <feGaussianBlur in="composite1" stdDeviation="0.5" result="blur" id="feGaussianBlur858"/>
      <feOffset dx="1.38778e-016" dy="1.5" result="offset" id="feOffset860"/>
      <feComposite in="SourceGraphic" in2="offset" operator="over" result="composite2" id="feComposite862"/>
    </filter>
  <path d="M 44.476562,0 0,17.099609 V 97.464844 L 20.115234,97.34175 c 9.597858,-0.0048 16.126886,-0.641171 20.564454,-4.027344 0.370884,-0.283011 0.729873,-0.581538 1.072265,-0.904297 0.334683,-0.315492 0.656285,-0.650038 0.964844,-1.005859 0.30212,-0.343443 0.59097,-0.742815 0.832031,-1.058594 0.339793,-0.459834 0.661686,-0.997046 0.927734,-1.423828 0.307822,0.540572 0.624593,0.981648 0.941407,1.441406 0.276613,0.388975 0.556207,0.716561 0.820312,1.044922 0.31559,0.367025 0.671139,0.707563 0.962938,1.001947 0.353942,0.335779 0.748809,0.640613 1.072254,0.904337 4.437578,3.386518 10.966223,4.022584 20.564453,4.027344 L 88.95316,97.464878 V 17.099643 Z" style="fill:#d2c5b2;filter:url(#filter852)" id="path875"/>
  <path d="m 50.32394,59.349411 q 2.48405,0 3.70697,-0.343946 1.22291,-0.382161 1.9108,-1.261132 0.72611,-0.917188 1.1847,-2.713347 h 4.39486 L 60.6423,68.712365 H 25.63631 v -2.522264 q 1.60508,-3.66875 4.62415,-7.987175 3.05729,-4.318424 7.41393,-9.439388 4.12735,-4.853451 6.26745,-7.987175 2.17832,-3.133724 3.24837,-5.923503 1.07006,-2.789779 1.07006,-5.770638 0,-4.203776 -1.87259,-6.573178 -1.8726,-2.407617 -5.12097,-2.407617 -3.05729,0 -5.08275,2.178321 -1.98724,2.140104 -2.90442,6.802474 h -6.87891 v -9.019011 q 4.66237,-1.872591 7.29928,-2.598698 2.63692,-0.764323 5.1974,-1.146484 2.5987,-0.382162 5.61777,-0.382162 5.61778,0 9.17188,1.528646 3.5541,1.49043 5.12096,4.089128 1.60508,2.560482 1.60508,5.999935 0,3.019076 -1.14648,5.617774 -1.10827,2.598698 -3.89805,5.923502 -2.75156,3.324805 -9.32474,9.515821 -2.94264,2.866211 -5.50312,5.808855 -2.56049,2.904427 -3.7834,4.547721 v 0.382162 z" style="fill:#ffffff;filter:url(#filter864)" id="path847"/>
  <path d="M 88.95354,67.46691 C 62.33527,67.46691 35.426,65.719683 0,79.66992 V 97.464504 C 28.93521,79.23807 54.28278,70.808452 88.95354,67.46691 Z" style="fill:#ffffff;filter:url(#filter864)" id="path840"/>
</svg>
