<?xml version="1.0" encoding="UTF-8" standalone="no"?>
<svg xmlns="http://www.w3.org/2000/svg" version="1.1" id="svg2" width="88.953537" height="97.344574" viewBox="0 0 88.953533 97.344572">
    <filter style="color-interpolation-filters:sRGB;" id="filter852">
      <feFlood flood-opacity="0.5" flood-color="rgb(0,0,0)" result="flood" id="feFlood842"/>
      <feComposite in="flood" in2="SourceGraphic" operator="out" result="composite1" id="feComposite844"/>
      <feGaussianBlur in="composite1" stdDeviation="0.5" result="blur" id="feGaussianBlur846"/>
      <feOffset dx="1.38778e-016" dy="1.5" result="offset" id="feOffset848"/>
      <feComposite in="offset" in2="SourceGraphic" operator="atop" result="composite2" id="feComposite850"/>
    </filter>
    <filter style="color-interpolation-filters:sRGB;" id="filter864">
      <feFlood flood-opacity="0.5" flood-color="rgb(0,0,0)" result="flood" id="feFlood854"/>
      <feComposite in="flood" in2="SourceGraphic" operator="in" result="composite1" id="feComposite856"/>
      <feGaussianBlur in="composite1" stdDeviation="0.5" result="blur" id="feGaussianBlur858"/>
      <feOffset dx="1.38778e-016" dy="1.5" result="offset" id="feOffset860"/>
      <feComposite in="SourceGraphic" in2="offset" operator="over" result="composite2" id="feComposite862"/>
    </filter>
  <path d="M 44.476562,0 0,17.099609 V 97.464844 L 20.115234,97.34175 c 9.597858,-0.0048 16.126886,-0.641171 20.564454,-4.027344 0.370884,-0.283011 0.729873,-0.581538 1.072265,-0.904297 0.334683,-0.315492 0.656285,-0.650038 0.964844,-1.005859 0.30212,-0.343443 0.59097,-0.742815 0.832031,-1.058594 0.339793,-0.459834 0.661686,-0.997046 0.927734,-1.423828 0.307822,0.540572 0.624593,0.981648 0.941407,1.441406 0.276613,0.388975 0.556207,0.716561 0.820312,1.044922 0.31559,0.367025 0.671139,0.707563 0.962938,1.001947 0.353942,0.335779 0.748809,0.640613 1.072254,0.904337 4.437578,3.386518 10.966223,4.022584 20.564453,4.027344 L 88.95316,97.464878 V 17.099643 Z" style="fill:#d2c5b2;filter:url(#filter852)" id="path875"/>
  <path d="m 27.64255,30.53465 v -9.057227 q 9.66869,-4.127344 17.54121,-4.127344 4.70059,0 8.29291,1.299349 3.63053,1.299349 5.57955,3.821615 1.98724,2.484049 1.98724,6.038151 0,3.248373 -1.29934,5.732422 -1.29935,2.445834 -3.66875,4.280209 -2.33119,1.834375 -6.07637,3.592318 v 0.343945 q 3.3248,0.573242 6.03815,2.216537 2.75156,1.643294 4.35664,4.394857 1.64329,2.751562 1.64329,6.382096 0,4.433073 -2.17832,7.910743 -2.1401,3.439453 -6.53496,5.426693 -4.39485,1.949023 -10.6623,1.949023 -4.31843,0 -8.48399,-0.76432 -4.16556,-0.80254 -7.26107,-2.216539 v -9.592253 h 6.87891 q 1.10827,4.35664 3.13373,6.34388 2.02545,1.949024 5.31204,1.949024 8.10182,0 8.10182,-10.012631 0,-5.388477 -2.86621,-8.025391 -2.82799,-2.636914 -8.63685,-2.636914 h -3.01907 v -4.356641 q 6.64961,-0.267513 10.08906,-3.095508 3.43945,-2.866211 3.43945,-8.254688 0,-4.241992 -1.71972,-6.382096 -1.71973,-2.178321 -5.00632,-2.178321 -1.87259,0 -3.47767,0.840755 -1.56686,0.802539 -2.82799,2.866211 -1.22292,2.025456 -1.79616,5.312045 z" style="fill:#ffffff;filter:url(#filter864)" id="path847"/>
  <path d="M 88.95354,67.46691 C 62.33527,67.46691 35.426,65.719683 0,79.66992 V 97.464504 C 28.93521,79.23807 54.28278,70.808452 88.95354,67.46691 Z" style="fill:#ffffff;filter:url(#filter864)" id="path840"/>
</svg>
