<?xml version="1.0" encoding="UTF-8" standalone="no"?>
<svg xmlns="http://www.w3.org/2000/svg" version="1.1" id="svg2" width="88.953537" height="97.344574" viewBox="0 0 88.953533 97.344572">
    <filter style="color-interpolation-filters:sRGB;" id="filter852">
      <feFlood flood-opacity="0.5" flood-color="rgb(0,0,0)" result="flood" id="feFlood842"/>
      <feComposite in="flood" in2="SourceGraphic" operator="out" result="composite1" id="feComposite844"/>
      <feGaussianBlur in="composite1" stdDeviation="0.5" result="blur" id="feGaussianBlur846"/>
      <feOffset dx="1.38778e-016" dy="1.5" result="offset" id="feOffset848"/>
      <feComposite in="offset" in2="SourceGraphic" operator="atop" result="composite2" id="feComposite850"/>
    </filter>
    <filter style="color-interpolation-filters:sRGB;" id="filter864">
      <feFlood flood-opacity="0.5" flood-color="rgb(0,0,0)" result="flood" id="feFlood854"/>
      <feComposite in="flood" in2="SourceGraphic" operator="in" result="composite1" id="feComposite856"/>
      <feGaussianBlur in="composite1" stdDeviation="0.5" result="blur" id="feGaussianBlur858"/>
      <feOffset dx="1.38778e-016" dy="1.5" result="offset" id="feOffset860"/>
      <feComposite in="SourceGraphic" in2="offset" operator="over" result="composite2" id="feComposite862"/>
    </filter>
  <path d="M 44.476562,0 0,17.099609 V 97.464844 L 20.115234,97.34175 c 9.597858,-0.0048 16.126886,-0.641171 20.564454,-4.027344 0.370884,-0.283011 0.729873,-0.581538 1.072265,-0.904297 0.334683,-0.315492 0.656285,-0.650038 0.964844,-1.005859 0.30212,-0.343443 0.59097,-0.742815 0.832031,-1.058594 0.339793,-0.459834 0.661686,-0.997046 0.927734,-1.423828 0.307822,0.540572 0.624593,0.981648 0.941407,1.441406 0.276613,0.388975 0.556207,0.716561 0.820312,1.044922 0.31559,0.367025 0.671139,0.707563 0.962938,1.001947 0.353942,0.335779 0.748809,0.640613 1.072254,0.904337 4.437578,3.386518 10.966223,4.022584 20.564453,4.027344 L 88.95316,97.464878 V 17.099643 Z" style="fill:#d2c5b2;filter:url(#filter852)" id="path875"/>
  <path d="m 54.94799,42.572736 0.0764,0.49681 q 4.43308,1.719727 6.68783,4.9681 2.29297,3.248372 2.29297,7.757878 0,4.509505 -2.40762,7.910742 -2.40762,3.363021 -6.95534,5.235612 -4.5095,1.834379 -10.58587,1.834379 -5.77064,0 -10.08907,-1.68151 -4.2802,-1.719731 -6.6496,-4.968103 -2.36941,-3.286589 -2.36941,-7.719662 0,-3.248373 1.1847,-5.694206 1.22292,-2.48405 3.17194,-4.127344 1.98724,-1.643294 4.77702,-2.904427 l -0.0764,-0.49681 q -8.44577,-3.66875 -8.44577,-12.190951 0,-3.898047 2.40762,-6.993555 2.44583,-3.133724 6.91712,-4.891667 4.47129,-1.757943 9.97442,-1.757943 9.28652,0 14.02532,3.401237 4.73881,3.401237 4.73881,9.630469 0,4.127344 -2.17833,7.222852 -2.1401,3.095508 -6.49674,4.968099 z M 37.02462,30.687515 q 0,5.006315 1.94902,7.681445 1.98724,2.636914 5.77064,2.636914 3.70696,0 5.54134,-2.484049 1.87259,-2.522266 1.87259,-7.14642 0,-4.738802 -1.94902,-7.222852 -1.91081,-2.522265 -5.54134,-2.522265 -3.7834,0 -5.73243,2.292968 -1.9108,2.292969 -1.9108,6.764259 z m -0.4586,24.802279 q 0,5.464909 1.98724,8.216472 2.02546,2.751563 5.99994,2.751563 2.48405,0 4.20377,-1.146485 1.75795,-1.146484 2.67513,-3.515885 0.95541,-2.369401 0.95541,-5.65599 0,-3.363021 -0.95541,-5.808855 -0.9554,-2.484049 -2.75156,-3.821614 -1.79616,-1.337566 -4.20377,-1.337566 -2.86622,0 -4.62416,1.375782 -1.75794,1.337565 -2.52226,3.630534 -0.76433,2.292969 -0.76433,5.312044 z" style="fill:#ffffff;filter:url(#filter864)" id="path847"/>
  <path d="M 88.95354,67.46691 C 62.33527,67.46691 35.426,65.719683 0,79.66992 V 97.464504 C 28.93521,79.23807 54.28278,70.808452 88.95354,67.46691 Z" style="fill:#ffffff;filter:url(#filter864)" id="path840"/>
</svg>
