<?xml version="1.0" encoding="UTF-8" standalone="no"?>
<svg xmlns="http://www.w3.org/2000/svg" version="1.1" id="svg2" width="88.953537" height="97.344574" viewBox="0 0 88.953533 97.344572">
  <path style="fill:#f9fced" d="M 44.476562 0 L 0 17.099609 L 0 79.669922 C 35.426 65.719685 62.334855 67.466797 88.953125 67.466797 L 88.953125 17.099609 L 44.476562 0 z M 88.953125 67.466797 C 54.494626 70.787881 29.242229 79.144823 0.52734375 97.140625 C 26.089247 97.172446 38.466341 99.331874 44.476562 88.921875 C 50.530583 99.407736 63.010515 97.136719 88.953125 97.136719 L 88.953125 67.466797 z M 34.919922 17.654297 L 34.921875 17.654297 L 52.859375 17.654297 L 52.863281 17.654297 L 52.820312 17.724609 L 48.425781 24.845703 L 48.425781 50.650391 C 53.194336 48.57131 55.358152 46.357533 56.167969 44.019531 C 56.983294 41.670511 56.437918 39.187518 55.78125 36.583984 C 55.124582 33.98045 54.358363 31.258338 54.753906 28.435547 C 55.149449 25.612757 56.711134 22.697043 60.6875 19.708984 L 60.753906 19.658203 L 60.759766 19.738281 C 61.284219 26.253176 62.47093 31.559114 64.857422 34.65625 L 69.759766 27.726562 L 69.824219 27.638672 L 69.84375 27.744141 C 72.871473 43.417128 69.73784 54.086418 63.675781 60.560547 C 58.526007 66.061793 51.267371 68.532506 43.888672 68.478516 C 36.511074 68.531402 29.254142 66.060691 24.105469 60.560547 C 18.043411 54.085317 14.910875 43.417128 17.9375 27.744141 L 17.958984 27.638672 L 18.021484 27.726562 L 22.925781 34.65625 C 25.31116 31.559114 26.498971 26.252069 27.023438 19.738281 L 27.029297 19.658203 L 27.09375 19.708984 C 31.07232 22.697043 32.634855 25.612757 33.029297 28.435547 C 33.423738 31.258338 32.658621 33.98045 32.001953 36.583984 C 31.345285 39.187518 30.797104 41.671613 31.611328 44.019531 C 32.422247 46.357533 34.588868 48.572412 39.357422 50.650391 L 39.357422 24.845703 L 34.962891 17.724609 L 34.919922 17.654297 z "/>
</svg>
