<svg xmlns="http://www.w3.org/2000/svg" width="377.422" height="378.08" viewBox="0 0 283.066 283.56"><path stroke="#000" stroke-width=".094" d="M88.067.118c8.88-.03 17.77.01 26.65-.02-.04 7.83 0 15.67-.02 23.5 8.97.01 17.95-.01 26.93.01-.06-7.85.03-15.7-.05-23.55 9.25.08 18.5.09 27.76-.01-.07 5.26-.03 10.51.07 15.77a382 382 0 0 0-.19 7.58c9.17.48 18.37.05 27.56.22-.04-7.85.04-15.69-.04-23.54 9.28.06 18.57.02 27.86.03-.02 7.83 0 15.66-.01 23.5 8.79 0 17.57-.03 26.35.01-.02-7.84.04-15.68-.04-23.52 9.13-.01 18.26.06 27.38-.04-.05 13.58-.06 27.17.01 40.76-7.39 6.91-14.67 13.93-22.05 20.86-2.05 8.22-3.19 16.65-3.6 25.12-1.51 15.43 1.32 30.83 4.43 45.9 4.85 22.37 11.21 44.4 18.68 66.04 5.55 16.58 9.75 34.56 5.59 51.95-2.57 11.47-10.11 22.05-20.99 26.91-16.19 7.47-34.59 6.34-51.88 4.74-62.89-6.11-125.79-12.09-188.67-18.2-10.37-7.11-18.84-18.44-19.72-31.32-.55-12.3 6.5-23.7 15.27-31.73 63.68 1.89 127.34 4.22 191.02 6.23 10.13.19 20.32 1.12 30.07 4.03-11.15.94-22.27 4.47-31.47 10.94-6.06 4.25-10.84 10.99-11.1 18.58-.4 9.82 4.86 19.11 11.95 25.6 6.35 5.87 15.04 8.79 23.62 8.86 8.79.17 18-1.88 24.89-7.59 9.91-8.1 14.55-21.38 13.89-33.94-.25-8.72-4.47-17.21-11.2-22.73-8.04-6.65-18.4-9.52-28.5-11.27-8.69-1.5-17.51-1.94-26.31-2.47.14-21.49 0-42.97.07-64.46-.08-1.52.2-3.11-.26-4.59-7.83-8.58-16.21-16.65-23.89-25.37-1.06.8-2.07 1.68-2.96 2.67-7.17 7.82-14.69 15.32-21.89 23.11.07 22.55-.04 45.09.05 67.64-5.96-.29-11.95.01-17.9-.55-19.37-.23-38.78-.6-58.16-.92 4.3-2.66 8.42-5.74 11.4-9.89 8.19-11.12 11.92-24.75 14.8-38.06 5.56-28.05 6.36-56.77 6.15-85.28-7.18-7-14.36-14-21.52-21.02-.02-13.5.04-27-.03-40.49z"/><path stroke="#000" stroke-width=".094" d="M228.487 222.088c10.16-6.4 25.53-1.64 29.6 9.82 4.66 13.88-4.53 30.51-18.67 34.12-10.04 2.33-20.98-1.38-27.97-8.83 5.06-2.7 10.39-5.07 16.05-6.16 5.25-.42 11.36 1.5 15.79-2.32 5.23-4.81 3.57-13.29-.43-18.35-3.52-4.6-9.45-5.81-14.37-8.28z"/><path stroke="#000" stroke-width=".094" d="M205.167 236.408c1.49-4.73 6.62-7.12 11.25-7.44 7.39-.61 14.18 3.72 19.01 8.95-10.5 1.64-20.8 5.5-29.44 11.77-1.46-4.22-2.01-8.93-.82-13.28z"/></svg>