<svg xmlns="http://www.w3.org/2000/svg" xml:space="preserve" width="986.933" height="828.228" style="clip-rule:evenodd;fill-rule:evenodd;stroke-linejoin:round;stroke-miterlimit:2" viewBox="0 0 986.933 828.228"><path d="M0 0h986.933s-27.938 19.585-72.723 164.088l-37.095.186v501.278h39.231s24.118 113.031 70.461 162.676H.349s23.645-5.185 72.826-164.104h36.413v-62.921H55.205V229.035h54.383v-63.841H72.702S31.335 23.492 0 0" style="fill:#fff"/><path d="M287.279 278.86v271.012H104.79V278.86ZM169.612 429.93l-23.868 68.482h103.041l-23.833-68.382c15.239-9.315 25.418-26.108 25.418-45.26 0-29.255-23.752-53.006-53.007-53.006s-53.006 23.751-53.006 53.006c0 19.084 10.107 35.825 25.255 45.16m-5.138-268.777h82.2v70.806h-82.2zm0 437.042h82.2v67.957h-82.2zm190.157-437.042h82.966v504.999h-82.966zm193.446 0h82.966v504.999h-82.966zm191.313 0h82.967v504.999H739.39Zm-629.082-46.939h765.816l18.407-64.424H91.902Zm0 601.116h765.816l18.407 64.424H91.902Z"/></svg>