<svg xmlns="http://www.w3.org/2000/svg" xml:space="preserve" width="986.933" height="828.228" style="clip-rule:evenodd;fill-rule:evenodd;stroke-linejoin:round;stroke-miterlimit:2" viewBox="0 0 986.933 828.228"><path d="M0 0h986.933s-27.938 19.585-72.723 164.088l-37.095.186v501.278h39.23s24.119 113.031 70.462 162.676H.349s23.644-5.185 72.826-164.104h36.413v-62.921H55.205V229.035h54.383v-63.841H72.702S31.335 23.492 0 0m246.673 598.195h-82.2v67.957h82.2zm575.683-437.042H739.39v504.999h82.966zM287.279 278.86h-182.49v271.012h182.49zM169.612 429.93c-15.148-9.335-25.255-26.076-25.255-45.16 0-29.255 23.75-53.006 53.006-53.006 29.255 0 53.007 23.751 53.007 53.006 0 19.152-10.18 35.945-25.418 45.26l23.833 68.382H145.743Zm77.06-268.777h-82.198v70.806h82.199zm384.37 0h-82.965v504.999h82.966zM110.309 715.331l-18.406 64.423h802.629l-18.407-64.423zm0-601.117h765.814L894.53 49.79H91.901Zm327.288 46.939h-82.965v504.999h82.965z"/></svg>