<svg xmlns="http://www.w3.org/2000/svg" xmlns:xlink="http://www.w3.org/1999/xlink" width="600" height="334.218"><radialGradient id="a" cx="0" cy="0" r="1" fx="0" fy="0" gradientTransform="matrix(23.34679 0 0 -23.34679 744.885 482.295)" gradientUnits="userSpaceOnUse" spreadMethod="pad"><stop offset="0" style="stop-color:#ebd491"/><stop offset=".7" style="stop-color:#d2bb7b"/><stop offset="1" style="stop-color:#8b723c"/></radialGradient><radialGradient xlink:href="#a" id="b" cx="0" cy="0" r="1" fx="0" fy="0" gradientTransform="translate(292.844 167.105)scale(215.5088)" gradientUnits="userSpaceOnUse" spreadMethod="pad"/><path d="M285.942 136.91h25.163c24.304 0 33.858-3.932 36.637-5.445l5.843-13.634 15.83 8.474c.176.11 19.034 10.024 50.41 10.024 20.732 0 34.107-7.034 34.107-17.88 0-8.658-7.929-31.089-44.317-31.089-55.384 0-98.003 30.73-98.4 31.052zm0 60.398 25.273 18.489c.434.332 43.016 31.09 98.4 31.09 36.388 0 44.317-22.432 44.317-31.118 0-10.855-13.375-17.889-34.107-17.889-31.376 0-50.234 9.914-50.41 10.025l-15.72 8.473-5.953-13.596c-2.779-1.551-12.296-5.474-36.637-5.474zm172.929 136.91c-154.33 0-193.163-136.91-193.163-136.91H48.572l-21.314 9.554-20.907-30.508L0 167.086l27.295-39.738 21.277 9.563h217.136S305.732 0 458.87 0c96.923 0 141.092 88.874 141.092 88.874l-29.778 1.45c-41.613 2.011-42.12 26.5-42.12 27.544 0 2.926 1.837 9.849 3.969 16.338l24.877 11.714v42.37l-24.877 11.722c-2.132 6.526-3.97 13.413-3.97 16.366 0 1.044.508 25.533 42.12 27.508L600 245.298s-42.978 88.92-141.13 88.92" style="fill:#fff"/><path d="m19.837 167.086 13.19-19.218 12.01 5.409h266.068c45.073 0 50.446-12.619 50.446-12.619s21.637 12.01 58.274 12.01c36.664 0 50.473-18 50.473-34.219 0-16.227-13.809-47.455-60.683-47.455-61.873 0-108.101 34.255-108.101 34.255 30.037-55.274 87.692-88.92 157.357-88.92 69.664 0 110.52 57.656 110.52 57.656-50.446 2.418-57.656 34.255-57.656 43.846 0 9.627 7.21 28.237 7.21 28.237l21.6 10.2v21.674l-21.6 10.2s-7.21 18.609-7.21 28.236c0 9.591 7.21 41.428 57.656 43.847 0 0-40.856 57.655-110.52 57.655-69.665 0-127.32-33.637-157.357-88.883 0 0 46.228 34.218 108.101 34.218 46.874 0 60.683-31.227 60.683-47.446 0-16.19-13.809-34.218-50.473-34.218-36.637 0-58.274 12-58.274 12s-5.373-12.619-50.446-12.619H45.037l-12.01 5.41z" style="fill:#8b723c"/><path d="M315.757 91.08c19.181-10.385 53.04-24.665 93.858-24.665 47.927 0 65.299 31.117 65.299 52.034 0 17.917-14.419 38.834-55.09 38.834-29.39 0-49.329-7.43-57.009-10.892-5.16 4.689-18.35 11.501-51.71 11.501H44.067l-.904-.434-8.51-3.784-9.231 13.412 9.23 13.45 8.511-3.822.905-.397h267.037c33.36 0 46.55 6.812 51.71 11.501 7.643-3.424 27.619-10.883 57.01-10.883 40.67 0 55.089 20.908 55.089 38.834 0 20.945-17.372 52.062-65.299 52.062-40.818 0-74.677-14.317-93.858-24.702 31.412 44.243 83.548 70.136 143.114 70.136 52.467 0 88.449-34.468 101.427-49.182-52.532-6.526-53.178-45.978-53.178-47.742 0-10.31 7.21-29.058 7.532-29.852l.646-1.735 1.662-.794 19.006-8.972V159.23l-19.006-8.982-1.662-.794-.646-1.735c-.323-.785-7.532-19.505-7.532-29.89 0-1.725.646-41.178 53.178-47.704-12.978-14.714-48.96-49.181-101.427-49.181-59.566 0-111.702 25.892-143.114 70.135" style="fill:url(#b)"/></svg>