<svg xmlns="http://www.w3.org/2000/svg" width="549.554" height="301.551"><path d="m0 150.757 13.19-19.219 12.047 5.41h266.068c45.037 0 50.446-12.619 50.446-12.619s21.6 12.01 58.237 12.01c36.664 0 50.474-18 50.474-34.219 0-16.228-13.81-47.455-60.647-47.455-61.873 0-108.138 34.255-108.138 34.255C311.714 33.646 369.369 0 439.034 0c69.664 0 110.52 57.655 110.52 57.655-50.446 2.419-57.656 34.256-57.656 43.847 0 9.627 7.21 28.236 7.21 28.236l21.637 10.2v21.674l-21.637 10.2s-7.21 18.61-7.21 28.237c0 9.591 7.21 41.428 57.656 43.846 0 0-40.856 57.656-110.52 57.656-69.665 0-127.32-33.637-157.357-88.883 0 0 46.265 34.218 108.138 34.218 46.837 0 60.647-31.228 60.647-47.446 0-16.19-13.81-34.218-50.474-34.218-36.637 0-58.237 12-58.237 12s-5.41-12.619-50.446-12.619H25.237l-12.046 5.41z"/></svg>