<svg xmlns="http://www.w3.org/2000/svg" width="163.12" height="214.83" viewBox="0 0 163.12 214.83"><defs><linearGradient id="a" x1="2.863" x2="159.75" y1="104.905" y2="104.905" gradientUnits="userSpaceOnUse"><stop offset=".071" stop-color="#85723e"/><stop offset=".147" stop-color="#a38d53"/><stop offset=".232" stop-color="#bea565"/><stop offset=".319" stop-color="#d1b673"/><stop offset=".407" stop-color="#ddc07b"/><stop offset=".5" stop-color="#e1c47e"/><stop offset=".615" stop-color="#ddc17b"/><stop offset=".701" stop-color="#d4b875"/><stop offset=".778" stop-color="#c4aa6a"/><stop offset=".849" stop-color="#ad965a"/><stop offset=".916" stop-color="#907c45"/><stop offset=".938" stop-color="#85723e"/></linearGradient></defs><path d="M130.69 100.33c2.55 9.39 12.08 11.89 20.82 11.53-2.89 9.21-7.15 17.84-11.5 26.4-.63.45-3.91-3.28-4.93-3.93-17.28-11.17-35.76 16.36-12.97 26.45.3.13 1.02-.1.66.75-.21.51-4.88 4.98-5.73 5.78-6.22 5.78-13.23 10.89-20.6 15.11.14-5.51.2-11.07.46-16.58.99-21.74 2.41-43.42 3.46-65.16l14.15-19.29c-5.38-7.02-11.28-13.68-16.34-20.94-.94-1.35-7-10.11-7-10.75v-18c1.22.26 4.92-.4 5.67.08.69.43 2.52 5.83 5.69 6.54 3.96.89 19.75-4.94 23.93-7.01 1.06-.53 6.34-4.22 6.81-3.9 8.04 16.58 17.42 33.33 21.12 51.56-3.11.42-6.1-.21-9.29.3-10.7 1.71-17.36 10.2-14.41 21.06M72.01 49.7v-18c-1.22.26-4.92-.4-5.67.08-.69.43-2.52 5.83-5.69 6.54-3.96.89-19.75-4.94-23.93-7.01-1.07-.53-6.34-4.22-6.81-3.9-8.04 16.58-17.42 33.33-21.12 51.56 3.11.42 6.09-.21 9.29.3 10.52 1.68 17.15 9.95 14.52 20.69-2.34 9.55-12.12 12.28-20.93 11.9 2.92 9.2 7.1 17.86 11.5 26.4.62.46 3.91-3.28 4.92-3.93 12.37-7.99 28.21 4.49 22.24 18.44-1.9 4.43-5.11 6.17-9.26 8.01-.3.13-1.03-.1-.66.75.21.51 4.88 4.98 5.73 5.78 6.22 5.78 13.22 10.94 20.6 15.11-1.01-27.14-2.46-54.16-3.85-81.34-4.13-6.86-9.43-13.2-14.22-19.69 5.12-6.65 10.71-12.94 15.59-19.78 1.44-2.01 7.4-10.2 7.75-11.91" style="fill:url(#a)"/><path d="m85.45 51.59.07-30.11c3.09-4.56 7.08-8.61 10.67-12.83l.25-2.39h-29.7l.25 2.39c3.59 4.22 7.58 8.27 10.67 12.83l.07 30.11c-5.28 11.04-13.67 20.17-21.06 29.79l12.37 16.9 4.43 92.52c1.11 1.42 7.19 12.2 7.88 12.37l8.36-12.37 4.43-92.52 12.37-16.9C99.19 71.7 90.8 62.6 85.45 51.59m-3.89 63.49L70.09 81.87l11.5-16.27 11.5 16.27z" style="fill:#fff"/><path d="M140.03 23.77c-.82-1.3-3.74-5.71-5.28-5.32-4.58 2.35-9.14 4.78-13.9 6.75-2.62 1.09-12.75 5.3-14.82 4.34-1.01-.47-2.89-3.21-4.09-4.08-3.13-2.26-6.11-2.02-9.81-1.92l10.32-12.45c-.12-3.2 1.91-10.53-2.4-11.09H61.96c-4.19.81-1.27 8.63-1.23 11.09l10.32 12.45c-3.7-.1-6.68-.34-9.81 1.92-1.18.85-3.4 3.95-4.42 4.24-2.42.7-15.49-4.89-18.51-6.23-1.68-.74-9.92-5.44-10.83-4.99-1.19.59-4.06 4.83-4.88 6.18C15.45 36.45.88 66.77.15 79.92c-.26 4.74-.82 7.87 4.84 8.25l1.89 15.76c-4.15.78-5.37 1.73-4.68 6.14.73 4.6 4.95 14.35 6.99 18.91 2.03 4.56 7.32 15.9 11.41 18.33 2.65 1.57 3.64.3 5.1.62.5.11 6.47 7.34 6.47 7.86 0 .39-2.33 1.73-1.8 5.24.49 3.19 8.97 11.27 11.69 13.72 6.38 5.74 13.64 10.6 21.01 14.95.82.49 3.75 1.62 4.03 1.97l14.25 23.16 14.73-23.16c.34-.42 7.94-4.26 9.42-5.21 5.78-3.72 25.5-18.64 27.11-24.66.93-3.49-.35-5.73-3.6-6.98l6.21-8.18c3.02 1.68 4.85 2.42 7.92.26 4.27-2.99 10.14-16.13 12.29-21.28 1.53-3.66 6.12-14.98 5.69-18.34-.54-4.22-5.89-1.82-5.76-4.72l2.38-14.7c.53-.54 4.77 1.25 5.28-3.11 1.56-13.49-15.37-48.98-22.99-60.98M36.65 153.55l-7.24-9.29c1.35-1.13 2.24-3.69 4.98-4.26 10.86-2.25 12.55 12.42 2.26 13.55m9.49 13.76c-.85-.8-5.52-5.27-5.73-5.78-.37-.85.36-.62.66-.75 4.15-1.84 7.36-3.58 9.26-8.01 5.97-13.95-9.87-26.43-22.24-18.44-1.01.65-4.3 4.39-4.92 3.93-4.4-8.54-8.58-17.2-11.5-26.4 8.81.38 18.59-2.35 20.93-11.9 2.63-10.74-4-19.01-14.52-20.69-3.2-.51-6.18.12-9.29-.3 3.7-18.23 13.08-34.98 21.12-51.56.47-.32 5.74 3.37 6.81 3.9 4.18 2.07 19.97 7.9 23.93 7.01 3.17-.71 5-6.11 5.69-6.54.75-.48 4.45.18 5.67-.08v18c-.35 1.71-6.31 9.9-7.75 11.91-4.88 6.84-10.47 13.13-15.59 19.78 4.79 6.49 10.09 12.83 14.22 19.69 1.39 27.18 2.84 54.2 3.85 81.34-7.38-4.17-14.38-9.33-20.6-15.11M10.28 87.43c5.57-1.59 14.29.64 14.76 7.46.55 7.87-7.17 9.26-13.37 8.81-.54-5.42-1.9-10.78-1.39-16.27m83.86 10.85-4.43 92.52-8.36 12.37c-.69-.17-6.77-10.95-7.88-12.37l-4.43-92.52-12.37-16.9c7.39-9.62 15.78-18.75 21.06-29.79l-.07-30.11c-3.09-4.56-7.08-8.61-10.67-12.83l-.25-2.39h29.7l-.25 2.39c-3.59 4.22-7.58 8.27-10.67 12.83l-.07 30.11C90.8 62.6 99.19 71.7 106.51 81.38zm31.04 53.67c-1.16 1.06-1.62.79-2.86-.04-4.18-2.8-2.79-10.36 2.09-12.13 2.87-1.05 7.62.61 7.4 2.96-.05.56-5.91 8.55-6.63 9.21m19.92-72.68c-10.7 1.71-17.36 10.2-14.41 21.06 2.55 9.39 12.08 11.89 20.82 11.53-2.89 9.21-7.15 17.84-11.5 26.4-.63.45-3.91-3.28-4.93-3.93-17.28-11.17-35.76 16.36-12.97 26.45.3.13 1.02-.1.66.75-.21.51-4.88 4.98-5.73 5.78-6.22 5.78-13.23 10.89-20.6 15.11.14-5.51.2-11.07.46-16.58.99-21.74 2.41-43.42 3.46-65.16l14.15-19.29c-5.38-7.02-11.28-13.68-16.34-20.94-.94-1.35-7-10.11-7-10.75v-18c1.22.26 4.92-.4 5.67.08.69.43 2.52 5.83 5.69 6.54 3.96.89 19.75-4.94 23.93-7.01 1.06-.53 6.34-4.22 6.81-3.9 8.04 16.58 17.42 33.33 21.12 51.56-3.11.42-6.1-.21-9.29.3m7.81 8.15-2.9 16.22c-4.1 0-9.5-.4-11.17-4.76-3.49-9.09 6.62-13.49 14.07-11.46M81.59 65.6l-11.5 16.27 11.47 33.21 11.53-33.21zm-4.28 17.7c1.02-1.47 4.05-6 4.05-6l4.51 6-4.28 12.05z"/><path d="M131.81 142.74c-.05.56-5.91 8.55-6.63 9.21-1.16 1.06-1.62.79-2.86-.04-4.18-2.8-2.79-10.36 2.09-12.13 2.87-1.05 7.62.61 7.4 2.96m7.03-43.86c1.67 4.36 7.07 4.76 11.17 4.76l2.9-16.22c-7.45-2.03-17.56 2.37-14.07 11.46M34.39 140c-2.74.57-3.63 3.13-4.98 4.26l7.24 9.29c10.29-1.13 8.6-15.8-2.26-13.55m-9.35-45.11c-.47-6.82-9.19-9.05-14.76-7.46-.51 5.49.85 10.85 1.39 16.27 6.2.45 13.92-.94 13.37-8.81M81.36 77.3s-3.03 4.53-4.05 6l4.28 12.05 4.28-12.05z" style="fill:#85723e"/></svg>