<svg xmlns="http://www.w3.org/2000/svg" width="163.197" height="214.061" viewBox="0 0 163.197 214.061"><defs><linearGradient id="a" x1="1.893" x2="160.365" y1="103.31" y2="103.31" gradientUnits="userSpaceOnUse"><stop offset=".085" stop-color="#612c75"/><stop offset=".103" stop-color="#69357b"/><stop offset=".182" stop-color="#875995"/><stop offset=".261" stop-color="#a075a9"/><stop offset=".34" stop-color="#b189b7"/><stop offset=".42" stop-color="#bb95c0"/><stop offset=".5" stop-color="#bf99c3"/><stop offset=".642" stop-color="#bc96c1"/><stop offset=".72" stop-color="#b68ebb"/><stop offset=".782" stop-color="#aa80b1"/><stop offset=".836" stop-color="#996da3"/><stop offset=".885" stop-color="#835491"/><stop offset=".93" stop-color="#69357b"/><stop offset=".942" stop-color="#612c75"/></linearGradient></defs><path d="M48.675 81.271c4.54-6.08 9.68-11.69 14.16-17.82 2.01-2.73 8.17-10.85 8.97-13.54.66-2.2.62-21.72.25-24.72-.19-1.52-.63-1.14-.99-1.64-2.76.11-5.55-.46-8.14.71-2.86 1.28-4.73 5.66-7.35 5.49-2.73-.17-10.34-3.35-13.23-4.54-4.75-1.97-9.32-4.42-13.91-6.74-1.68-.42-4.91 4.72-5.82 6.19-7.13 11.52-21.74 42.23-22.46 55.15-.27 4.94-.83 7.59 4.84 8.24l1.9 15.72c-.02.35-4.38-.18-4.83 3.34-.45 3.48 4.43 15.12 6.03 18.92 2.14 5.05 7.71 17.72 11.96 20.62 2.77 1.9 4.7.62 5.97 1.17.46.19 6.17 7.2 6.17 7.69-.01.43-2.44 1.34-1.81 5.24.7 4.32 13.85 15.63 17.74 18.66 5.79 4.51 12.37 8.89 19.11 11.78-2.28-29.99-2.04-60.26-4.33-90.26-4.02-6.94-9.49-13.14-14.23-19.66m-12.09 71.86c-.53-.26-7.21-8.82-6.97-9.35 5.5-10.15 19.44.11 12.07 7.49-.92.93-3.81 2.51-5.1 1.86m21.88 23.6c-2.96-2.04-5.95-4.32-8.7-6.63-1.48-1.24-8.88-7.75-9.35-8.85-.36-.86.36-.62.66-.76 25.5-11.25-.78-42.83-17.18-21.99-5.22-8.3-9.31-17.42-12.22-26.82 8.24.31 18.1-2.36 20.74-11.11 0 0 4.86-19.96-14.27-21.46-6.25-.53-9.34 0-9.34 0-1.36-1.37 5.37-18.35 6.48-21.06 4.34-10.64 9.87-20.71 14.6-31.15 5.51 3.97 11.82 6.71 18.3 8.75 3.12.98 10.73 3.63 13.48 2.2.74-.38 1.85-1.67 2.42-2.37 1.32-1.62 1.76-4.41 4.11-3.79v17.48c0 .8-7.73 11.55-8.9 13.13-4.73 6.39-10.16 12.24-14.97 18.56l15.24 21.01 3.84 77.82c-.3.34-4.34-2.55-4.94-2.96m-48.64-89.41c5.47-1.65 14.61.02 15.26 6.87.85 9-6.61 9.13-13.41 9.83zm75.64-35.78.07-30.53c2.7-3.98 7.01-7.51 9.68-11.4.74-1.07 1.5-1.86 1.24-3.31h-29.7c-.14 1.15.14 1.91.74 2.86 1.58 2.5 9.65 10.05 10.18 11.85l.07 30.53c-5.19 11.04-13.72 20-20.89 29.72l12.2 16.87 4.43 91.84c.2 1.18 7.45 10.91 8.56 12.23l7.68-12.23 4.34-91.93 12.29-16.78c-7.14-9.74-15.78-18.65-20.89-29.72m-3.85 63.36-11.51-33.15 11.5-15.82 11.5 15.82zm81.44-35.09c-.72-12.83-15.31-43.77-22.45-55.15-.93-1.47-4.15-6.61-5.83-6.19-4.59 2.34-9.14 4.77-13.91 6.74-2.89 1.19-10.5 4.37-13.23 4.54-2.58.17-3.02-2.17-4.53-3.52-3.51-3.14-6.45-2.83-10.96-2.68-.28.44-.79.1-.99 1.64-.37 3-.41 22.52.25 24.72.73 2.43 7.26 11.23 9.16 13.83 4.4 6.03 9.46 11.59 13.97 17.53l-14.24 19.16-4.32 90.76c6.74-2.89 13.32-7.27 19.11-11.78 3.74-2.92 16.11-13.64 17.4-17.56 1.18-3.58-.05-6-3.46-7.3l6.46-8.34c2.06 1.96 4.63 2.24 7.13.85 4.4-2.45 10.41-16.08 12.5-21.03 1.63-3.86 6.48-15.36 6.03-18.92-.51-4-5.63-2.16-5.79-4.29l2.41-15.08c6.07.34 5.56-3.07 5.29-7.93m-38.36 72.36c-1.4.64-3.59-1.26-4.23-2.47-2.19-4.15.54-9.48 5.09-10.14 1.83-.26 6.37.87 6.36 3.01 0 .61-6.58 9.31-7.22 9.6m20.38-73.06c-5.27 0-12.74 6.02-14.28 11.11-4.26 14.12 7.84 22.42 20.74 21.46-3 9.36-6.96 18.54-12.21 26.82-12.61-17.09-37.63 1.35-23.49 18.22l6.96 4.53c-5.51 5.68-11.52 10.98-18.05 15.48-.59.41-4.64 3.3-4.94 2.96l3.84-77.82 15.24-21.01c-4.81-6.32-10.24-12.17-14.97-18.56-1.17-1.58-8.9-12.33-8.9-13.13v-17.48c2.35-.62 2.79 2.17 4.11 3.79.57.7 1.68 1.99 2.42 2.37 2.75 1.43 10.36-1.22 13.48-2.2 6.48-2.04 12.79-4.78 18.3-8.75 4.73 10.44 10.26 20.51 14.6 31.15 2.73 6.68 5.85 13.86 6.49 21.06zm5.41 23.62c-.68 1.32-2.98.87-4.33.68-11.56-1.58-10.67-14.98.48-16.51 1.24-.18 5.84-.64 6.27.66.41 1.21-1.71 13.8-2.42 15.17" style="fill:#fff"/><path d="m59.565 101.871 3.84 77.82c-.3.34-4.34-2.55-4.94-2.96-2.96-2.04-5.95-4.32-8.7-6.63-1.48-1.24-8.88-7.75-9.35-8.85-.36-.86.36-.62.66-.76 25.5-11.25-.78-42.83-17.18-21.99-5.22-8.3-9.31-17.42-12.22-26.82 8.24.31 18.1-2.36 20.74-11.11 0 0 4.86-19.96-14.27-21.46-6.25-.53-9.34 0-9.34 0-1.36-1.37 5.37-18.35 6.48-21.06 4.34-10.64 9.87-20.71 14.6-31.15 5.51 3.97 11.82 6.71 18.3 8.75 3.12.98 10.73 3.63 13.48 2.2.74-.38 1.85-1.67 2.42-2.37 1.32-1.62 1.76-4.41 4.11-3.79v17.48c0 .8-7.73 11.55-8.9 13.13-4.73 6.39-10.16 12.24-14.97 18.56zm73.76-74.97c-5.51 3.97-11.82 6.71-18.3 8.75-3.12.98-10.73 3.63-13.48 2.2-.74-.38-1.85-1.67-2.42-2.37-1.32-1.62-1.76-4.41-4.11-3.79v17.48c0 .8 7.73 11.55 8.9 13.13 4.73 6.39 10.16 12.24 14.97 18.56l-15.24 21.01-3.84 77.82c.3.34 4.35-2.55 4.94-2.96 6.53-4.5 12.54-9.8 18.05-15.48l-6.96-4.53c-14.14-16.87 10.88-35.31 23.49-18.22 5.25-8.28 9.21-17.46 12.21-26.82-12.9.96-25-7.34-20.74-21.46 1.54-5.09 9.01-11.11 14.28-11.11h9.34c-.64-7.2-3.76-14.38-6.49-21.06-4.34-10.64-9.87-20.71-14.6-31.15" style="fill:url(#a)"/><path d="M77.295 83.121c1.1-1.4 4.32-5.91 4.32-5.91l4.31 5.5s-3.28 9.76-4.31 12.77zm-47.68 60.66c-.24.53 6.44 9.09 6.97 9.35 1.29.65 4.18-.93 5.1-1.86 7.37-7.38-6.57-17.64-12.07-7.49m-4.53-49.59c-.65-6.85-9.79-8.52-15.26-6.87l1.85 16.7c6.8-.7 14.26-.83 13.41-9.83m100.47 45.37c-4.55.66-7.28 5.99-5.09 10.14.64 1.21 2.83 3.11 4.23 2.47.64-.29 7.22-8.99 7.22-9.6.01-2.14-4.53-3.27-6.36-3.01m21.08-52.66c-11.15 1.53-12.04 14.93-.48 16.51 1.35.19 3.65.64 4.33-.68.71-1.37 2.83-13.96 2.42-15.17-.43-1.3-5.03-.84-6.27-.66" style="fill:#612c75"/><path d="m70.105 81.751 11.51 33.15 11.49-33.15-11.5-15.82zm15.82.96s-3.28 9.76-4.31 12.77l-4.32-12.36c1.1-1.4 4.32-5.91 4.32-5.91zm13.48 17.45 13.98-18.95c-.14-.12-.31-.29-.5-.52-4.11-5.06-8.2-10.14-12.25-15.25-3.37-4.26-9.6-12.13-10.42-17.21-.45-2.81-.67-23.63.57-24.75.5-.46.71-.37 1.36.07 1.75-2.77 9.636-10.316 10.23-12.82s.941-10.479-2.79-10.68c-3.056-.164-23.85.13-36.45 0-4.19.25-3.56 7.9-2.97 10.21.49 1.9 9.04 10.64 10.9 13.29 1.1-.86 1.61-.08 1.87 1.12.42 8.5.78 17.46-.36 25.93-6.45 10.75-14.14 20.98-23.07 30.7 5.26 6 10.22 12.47 14.3 19.38 1.69 28.05 2.83 56.16 3.95 84.24.08 2.1-.2 4.2-.52 6.27l14.64 22.87 14.1-22.87-.94-.38zm-9.68 89.81-7.68 12.23c-1.11-1.32-8.36-11.05-8.56-12.23l-4.43-91.84-12.2-16.87c7.17-9.72 15.7-18.68 20.89-29.72l-.07-30.53c-.53-1.8-8.6-9.35-10.18-11.85-.6-.95-.88-1.71-.74-2.86h29.7c.26 1.45-.5 2.24-1.24 3.31-2.67 3.89-6.98 7.42-9.68 11.4l-.07 30.53c5.11 11.07 13.75 19.98 20.89 29.72l-12.29 16.78zm10.57-89.54-4.32 90.76-.94-.38 4.37-90.65 13.98-18.95c-.14-.12-.31-.29-.5-.52-4.11-5.06-8.2-10.14-12.25-15.25-3.37-4.26-9.6-12.13-10.42-17.21-.45-2.81-.67-23.63.57-24.75.5-.46.71-.37 1.36.07-.28.44-.79.1-.99 1.64-.37 3-.41 22.52.25 24.72.73 2.43 7.26 11.23 9.16 13.83 4.4 6.03 9.46 11.59 13.97 17.53zm-32.54 84.49c.08 2.1-.2 4.2-.52 6.27-2.28-29.99-2.04-60.26-4.33-90.26-4.02-6.94-9.49-13.14-14.23-19.66 4.54-6.08 9.68-11.69 14.16-17.82 2.01-2.73 8.17-10.85 8.97-13.54.66-2.2.62-21.72.25-24.72-.19-1.52-.63-1.14-.99-1.64 1.1-.86 1.61-.08 1.87 1.12.42 8.5.78 17.46-.36 25.93-6.45 10.75-14.14 20.98-23.07 30.7 5.26 6 10.22 12.47 14.3 19.38 1.69 28.05 2.83 56.16 3.95 84.24"/></svg>