<?xml version="1.0" encoding="UTF-8"?><svg id="Layer_2" xmlns="http://www.w3.org/2000/svg" width="494.60613" height="608.56372" xmlns:xlink="http://www.w3.org/1999/xlink" viewBox="0 0 494.60613 608.56372"><defs><style>.cls-1{fill:#b7281b;}.cls-2{fill:url(#linear-gradient);}</style><linearGradient id="linear-gradient" x1="462.97155" y1="449.99862" x2="30.77776" y2="158.48023" gradientUnits="userSpaceOnUse"><stop offset=".06" stop-color="#b7281b"/><stop offset=".06584" stop-color="#b92c19"/><stop offset=".1167" stop-color="#cb4d11"/><stop offset=".17163" stop-color="#da680b"/><stop offset=".23119" stop-color="#e57c06"/><stop offset=".29764" stop-color="#ed8b02"/><stop offset=".37658" stop-color="#f29400"/><stop offset=".5" stop-color="#f49700"/><stop offset=".62428" stop-color="#f29400"/><stop offset=".69903" stop-color="#ee8c02"/><stop offset=".76066" stop-color="#e67d06"/><stop offset=".81516" stop-color="#db690b"/><stop offset=".86495" stop-color="#cc4f11"/><stop offset=".91068" stop-color="#bb2f19"/><stop offset=".92" stop-color="#b7281b"/></linearGradient></defs><g id="Layer_1_copy_2"><path class="cls-1" d="M332.16506,551.53582l-8.68829,23.80443c-47.99211,19.34045-104.82926,19.33981-152.81961,0l-8.69014-23.8021c-7.01582-1.50869-19.76233,4.99492-25.88456,2.36898-1.15074-.49358-10.25834-8.38515-12.02964-9.96254-28.24184-25.15012-50.81456-57.59966-67.48026-91.41835l6.36992-21.49416c-.54889-2.32166-17.23861-7.89512-20.33796-11.63918-2.66107-3.2146-7.59579-17.01118-9.28458-21.71542-8.5864-23.91796-13.54494-49.24032-14.22713-74.72773l16.90182-18.88203-16.72307-17.3423c.78955-29.99049,7.41412-65.70453,20.94076-92.6496,5.23258-10.4233,14.26283-9.46188,22.73016-16.24698l-6.12523-22.09427c19.34675-38.92568,45.74696-75.18483,80.77701-101.29215l24.35904,2.86341,8.11848-23.37053c47.90298-20.01502,105.30992-19.70837,153.40497-.41464l10.26083,23.76838c6.74925,1.09523,18.38244-4.87935,24.31385-2.33525,1.15075.49358,10.25834,8.38515,12.02964,9.96254,28.24354,25.15163,50.84583,57.56924,67.48386,91.42082l-6.37349,21.49171c.54893,2.3217,17.23856,7.89508,20.33794,11.63917,2.66107,3.2146,7.59579,17.01118,9.28458,21.71542,8.5864,23.91796,13.54494,49.24032,14.22713,74.72773l-16.90182,18.88203c.40815,2.3045,14.91687,13.36106,16.40969,16.6559,1.55325,3.42822-.91482,23.27331-1.62455,28.33883-1.77255,12.65124-14.18121,63.94415-22.89404,71.10596-3.14869,2.58817-17.26574,7.50878-18.53945,9.52927l5.82573,22.70319c-16.73733,33.5941-39.1258,65.78574-67.23557,90.81825-1.7713,1.57739-10.87889,9.46897-12.02964,9.96254-6.12059,2.62524-18.87106-3.87565-25.88639-2.3713ZM315.8132,47.67982c-41.6392-18.52139-95.25179-18.36877-137.04318-.30915l-9.32988,25.97469-27.33864-4.43728c-23.34864,24.10726-49.67252,50.746-65.20684,80.85006-1.30264,2.52439-5.7552,11.03134-5.75523,13.17229-.00004,3.79881,10.30964,20.38081,8.85929,22.42044l-25.37519,12.13615c-7.29457,17.04704-13.33835,35.3518-16.26613,53.73387-1.3537,8.4992-4.57621,32.1452-.2967,38.7158,1.86084,2.85705,14.30543,12.75883,13.93392,14.8565-3.50845,5.23243-14.09911,11.71121-15.49687,17.56808-1.95754,8.20245.45277,26.44567,1.85964,35.27873,1.36247,8.5543,3.77314,18.45911,6.21175,26.78825,1.59269,5.43986,6.91203,22.49434,9.61047,26.38953,2.89112,4.17332,20.72309,9.5748,25.81909,12.69224,1.45143,2.03547-8.85933,18.62369-8.85929,22.42044.00002,2.14095,4.45259,10.6479,5.75523,13.17229,11.187,21.67936,31.79078,46.62623,48.65832,64.34168,2.98736,3.13753,13.29101,14.4872,15.96819,16.05182,1.17902.68905,1.40328.8965,2.89482.89405,4.70254-.00772,22.15989-5.71126,25.02414-4.87476l8.88058,25.66554c41.67492,18.4779,95.81322,18.47494,137.49409.0019l8.87897-25.66745c2.86425-.8365,20.3216,4.86705,25.02414,4.87476,1.49154.00245,1.71581-.205,2.89482-.89405,2.67718-1.56462,12.98082-12.91429,15.96819-16.05182,21.63639-22.72401,42.01187-48.53567,54.415-77.51536l-8.86074-22.41905c5.09601-3.11745,22.92797-8.51892,25.81909-12.69225,2.69844-3.89519,8.01778-20.94967,9.61047-26.38953,2.43862-8.32914,4.84928-18.23395,6.21175-26.78825,1.3537-8.4992,4.57621-32.1452.2967-38.7158-1.86082-2.85703-14.30545-12.75885-13.93392-14.8565,4.82001-6.64279,14.94913-11.55696,15.92665-20.13817,1.88365-16.53576-3.93127-44.05895-8.73476-60.26329-1.77071-5.9734-6.1297-20.14093-9.04126-24.95874-2.95216-4.88498-20.59074-10.05549-26.15471-13.35662l8.75741-23.1751c-15.77394-36.11554-43.46421-65.67575-70.86019-93.26769l-27.99882,4.10935-8.22039-25.33762Z"/><path d="M455.21716,169.28593c7.28372,2.76969,10.12994,3.82229,13.70556,10.78875,8.4833,16.52816,15.9368,39.94527,19.83324,58.16676,3.12136,14.59686,7.2817,40.3541,5.36334,54.74136-.60922,4.56905-6.91814,7.46531-8.87265,11.95804.00712,1.12001,6.91483,6.26175,7.87481,7.9351,3.36102,5.85861-.88724,39.23012-2.3453,47.76372-3.21918,18.8409-9.69147,40.20234-17.24131,57.75869-1.50913,3.50932-5.34747,13.32846-7.44292,15.55708-2.10223,2.23582-11.55438,5.33454-11.79514,6.93779,2.56709,7.27634,4.82739,9.64005,1.94107,17.21293-13.28151,34.84693-48.64852,79.89701-77.15629,103.83893-2.98217,2.50454-14.43172,12.13366-17.08349,13.00214-3.34934,1.09694-14.43646-2.93543-15.98977-2.044-4.28631,6.51026-2.44596,13.86383-9.88876,18.07985-41.39746,23.4498-136.7331,23.43199-178.10522,0-7.4392-4.21335-5.60727-11.57829-9.88876-18.07985-1.55126-.8912-12.64051,3.14046-15.98977,2.044-3.71555-1.21637-21.12162-16.37109-25.08283-20.0028-18.7965-17.23295-36.95253-39.91617-50.40149-61.59851-4.10103-6.61166-20.27799-34.54955-20.53024-40.50325-.1652-3.89914,3.69136-8.43689,3.01186-12.74931-.21571-.92023-7.80777-3.60051-9.41621-4.8126-4.18299-3.1522-11.20525-21.70154-13.397-27.60325C5.30912,378.02888-1.08103,345.91238.27178,314.13526l8.55201-9.19068L.0892,293.9082c-.91053-31.3667,5.20166-62.66136,15.96027-91.99524,2.01636-5.4977,8.45462-22.70091,11.55505-26.44495,2.50331-3.02297,7.85528-4.49822,11.31223-6.18208,1.20426-4.85852-3.21422-9.30155-2.66835-14.08814.44753-3.92425,10.10198-21.80673,12.64621-26.43969,14.68148-26.73453,36.55176-55.36811,59.15841-75.84159,3.74469-3.39134,20.65586-17.88081,24.0828-19.00283,3.34993-1.0968,14.43605,2.93541,15.98977,2.044,3.51265-4.70981,3.05339-12.7079,7.42666-16.54195,2.16753-1.90027,9.17633-4.52628,12.24876-5.75124,45.55099-18.16097,113.00682-18.2766,158.53477-.00287,3.08188,1.23699,10.07151,3.84783,12.24589,5.75411,4.37327,3.83406,3.91401,11.83215,7.42666,16.54195,1.55372.89141,12.63983-3.1408,15.98977-2.044,3.42688,1.12199,20.33818,15.61152,24.0828,19.00283,22.76493,20.617,44.79574,49.51005,59.50751,76.49249,2.49105,4.56876,11.85587,21.91982,12.29711,25.78879.54589,4.78657-3.87263,9.22964-2.66835,14.08814ZM332.16506,551.53582c7.01533-1.50435,19.7658,4.99654,25.88639,2.3713,1.15074-.49358,10.25834-8.38515,12.02964-9.96254,28.10977-25.0325,50.49823-57.22414,67.23557-90.81825l-5.82573-22.70319c1.27372-2.02049,15.39076-6.9411,18.53945-9.52927,8.71283-7.16181,21.12149-58.45472,22.89404-71.10596.70972-5.06552,3.17779-24.91061,1.62455-28.33883-1.49282-3.29484-16.00154-14.3514-16.40969-16.6559l16.90182-18.88203c-.68219-25.48741-5.64073-50.80977-14.22713-74.72773-1.68879-4.70424-6.62352-18.50081-9.28458-21.71542-3.09937-3.74409-19.78901-9.31747-20.33794-11.63917l6.37349-21.49171c-16.63803-33.85158-39.24032-66.26919-67.48386-91.42082-1.7713-1.57739-10.87889-9.46897-12.02964-9.96254-5.93141-2.5441-17.5646,3.43047-24.31385,2.33525l-10.26083-23.76838c-48.09505-19.29372-105.50199-19.60038-153.40497.41464l-8.11848,23.37053-24.35904-2.86341c-35.03005,26.10732-61.43027,62.36647-80.77701,101.29215l6.12523,22.09427c-8.46733,6.7851-17.49758,5.82368-22.73016,16.24698-13.52664,26.94507-20.15121,62.6591-20.94076,92.6496l16.72307,17.3423-16.90182,18.88203c.68219,25.48741,5.64073,50.80977,14.22713,74.72773,1.68879,4.70424,6.62352,18.50081,9.28458,21.71542,3.09935,3.74406,19.78907,9.31752,20.33796,11.63918l-6.36992,21.49416c16.66569,33.8187,39.23842,66.26823,67.48026,91.41835,1.7713,1.57739,10.87889,9.46897,12.02964,9.96254,6.12223,2.62595,18.86874-3.87766,25.88456-2.36898l8.69014,23.8021c47.99034,19.33982,104.8275,19.34046,152.81961,0l8.68829-23.80443ZM315.8132,47.67982l8.22039,25.33762,27.99882-4.10935c27.39598,27.59194,55.08625,57.15215,70.86019,93.26769l-8.75741,23.1751c5.56398,3.30113,23.20255,8.47164,26.15471,13.35662,2.91156,4.8178,7.27055,18.98533,9.04126,24.95874,4.8035,16.20434,10.61841,43.72754,8.73476,60.26329-.97752,8.58121-11.10664,13.49538-15.92665,20.13817-.37153,2.09764,12.0731,11.99946,13.93392,14.8565,4.27951,6.5706,1.057,30.2166-.2967,38.7158-1.36247,8.5543-3.77314,18.45911-6.21175,26.78825-1.59269,5.43986-6.91203,22.49434-9.61047,26.38953-2.89112,4.17333-20.72308,9.5748-25.81909,12.69225l8.86074,22.41905c-12.40313,28.97969-32.77861,54.79135-54.415,77.51536-2.98736,3.13753-13.29101,14.4872-15.96819,16.05182-1.17902.68905-1.40328.8965-2.89482.89405-4.70254-.00772-22.15989-5.71126-25.02414-4.87476l-8.87897,25.66745c-41.68087,18.47304-95.81917,18.476-137.49409-.0019l-8.88058-25.66554c-2.86425-.8365-20.3216,4.86704-25.02414,4.87476-1.49154.00245-1.71581-.205-2.89482-.89405-2.67718-1.56462-12.98082-12.91429-15.96819-16.05182-16.86755-17.71545-37.47132-42.66232-48.65832-64.34168-1.30264-2.52439-5.7552-11.03134-5.75523-13.17229-.00004-3.79674,10.31071-20.38497,8.85929-22.42044-5.09601-3.11744-22.92797-8.51892-25.81909-12.69224-2.69844-3.89519-8.01778-20.94967-9.61047-26.38953-2.43862-8.32914-4.84928-18.23395-6.21175-26.78825-1.40687-8.83306-3.81718-27.07628-1.85964-35.27873,1.39776-5.85686,11.98842-12.33565,15.49687-17.56808.37151-2.09767-12.07308-11.99944-13.93392-14.8565-4.27951-6.5706-1.057-30.2166.2967-38.7158,2.92778-18.38207,8.97156-36.68683,16.26613-53.73387l25.37519-12.13615c1.45035-2.03963-8.85933-18.62163-8.85929-22.42044.00002-2.14095,4.45259-10.6479,5.75523-13.17229,15.53432-30.10406,41.8582-56.74281,65.20684-80.85006l27.33864,4.43728,9.32988-25.97469c41.7914-18.05962,95.40399-18.21225,137.04318.30915ZM230.86324,47.72672c-8.88202.64883-33.02213,4.41479-40.08702,8.91298-3.85635,2.45533-6.82467,19.02498-8.52236,24.06112l19.2995,35.74324,90.52585.49862,19.81963-36.22479-7.34252-23.27678c-22.50436-9.69222-49.36632-11.49145-73.69306-9.71439ZM142.86561,191.22535l46.85082-68.28818-19.66246-35.99375-22.53711-4.10143c-23.99818,23.76832-46.83669,49.66609-62.07862,80.08834l8.6375,18.99133,48.78986,9.3037ZM351.26831,191.22535l48.78986-9.3037,8.6375-18.99133c-15.31614-30.39315-38.07716-56.31143-62.07862-80.08834l-22.55924,4.07931-19.64033,36.01588,46.85082,68.28818ZM325.95662,238.31494l14.6879-38.91397-48.24129-68.8068-91.3427.32986-47.74921,69.14279,15.36641,38.42735,157.27888-.17923ZM65.33721,206.70098c-5.56483,13.02842-10.1605,26.71741-12.80668,40.69302-1.20781,6.37894-5.06315,30.34885-2.94573,35.01775.93576,2.06334,14.66173,14.54951,17.00379,14.99706l45.48767-.46908,43.85245-52.22973-14.93919-38.70212-1.63489-1.36511-47.80076-9.2967-26.21666,11.3549ZM428.79671,206.70098l-26.21666-11.3549-47.80076,9.2967-1.63489,1.36511-14.93482,38.70084,43.84808,52.23101,46.30448.28589c1.05173-.31231,15.73365-13.81463,16.18726-14.81359,2.05395-4.5233-1.76732-28.75367-2.94558-35.01846-2.62863-13.97629-7.25584-27.66383-12.80711-40.69259ZM326.86039,251.64717l-159.08775-.23492-42.15883,50.07845-1.33974,3.28428,43.49858,52.67363h158.58865l42.14893-50.0669,1.53898-3.47729-43.18881-52.25726ZM65.33721,402.15989l26.21666,11.3549,47.80076-9.2967,1.63489-1.36511,14.93691-38.69955-43.85016-52.2323-46.30448-.28589c-1.05173.31231-15.73365,13.81463-16.18726,14.81359-2.04797,4.51014,1.76143,28.77147,2.94558,35.01846,2.64492,13.9533,7.33725,27.66239,12.80711,40.69259ZM444.85031,326.63742l-16.48817-15.00216-46.86736.72301-43.28729,51.79517,15.33134,39.30512,49.04122,10.05623,26.21666-11.3549c10.23481-23.6664,16.29906-49.6392,16.0536-75.52248ZM325.95662,370.54594l-157.27888-.17923-15.36641,38.42735,47.74921,69.14279,91.3427.32986,48.24129-68.8068-14.6879-38.91398ZM142.86561,417.63553l-48.78986,9.3037c-2.35078,7.09294-9.83799,15.57537-6.90341,22.89387,7.28154,18.15931,35.23767,51.03966,49.38065,65.61132,1.97867,2.03864,9.98724,10.72103,11.78559,10.75147l22.22383-4.77001,19.15419-35.50255-46.85098-68.2878ZM351.26831,417.63553l-46.85063,68.2881,19.13175,35.52435,22.24592,4.74792c1.80088-.03049,8.8929-7.80433,10.78559-9.75147,20.28004-20.86349,38.76426-44.62617,52.11523-70.5137l-8.63799-18.99149-48.78986-9.3037ZM292.90785,492.59404h-91.68177l-18.99097,35.54895,6.9214,22.6979c24.13845,11.30832,55.98118,12.69997,82.28227,9.46136,6.13333-.75523,28.42525-5.0985,32.5751-8.4249,1.6101-1.29061,8.19303-21.82877,7.88495-23.73436l-18.99097-35.54895Z"/><path class="cls-2" d="M326.86039,251.64717l43.18881,52.25726-1.53898,3.47729-42.14893,50.0669h-158.58865l-43.49858-52.67363,1.33974-3.28428,42.15883-50.07845,159.08775.23492ZM168.67775,370.36671l-15.36641,38.42735,47.74921,69.14279,91.3427.32986,48.24129-68.8068-14.6879-38.91398-157.27888-.17923ZM340.64453,199.40097l-48.24129-68.8068-91.3427.32986-47.74921,69.14279,15.36641,38.42735,157.27888-.17923,14.6879-38.91397ZM52.53053,247.394c-1.20781,6.37894-5.06315,30.34885-2.94573,35.01775.93576,2.06334,14.66173,14.54951,17.00379,14.99706l45.48767-.46908,43.85245-52.22973-14.93919-38.70212-1.63489-1.36511-47.80076-9.2967-26.21666,11.3549c-5.56483,13.02842-10.1605,26.71741-12.80668,40.69302ZM91.55387,413.5148l47.80076-9.2967,1.63489-1.36511,14.93691-38.69955-43.85016-52.2323-46.30448-.28589c-1.05173.31231-15.73365,13.81463-16.18726,14.81359-2.04797,4.51014,1.76143,28.77147,2.94558,35.01846,2.64492,13.9533,7.33725,27.66239,12.80711,40.69259l26.21666,11.3549ZM402.58005,195.34608l-47.80076,9.2967-1.63489,1.36511-14.93482,38.70084,43.84808,52.23101,46.30448.28589c1.05173-.31231,15.73365-13.81463,16.18726-14.81359,2.05395-4.5233-1.76732-28.75367-2.94558-35.01846-2.62863-13.97629-7.25584-27.66383-12.80711-40.69259l-26.21666-11.3549ZM428.36214,311.63526l-46.86736.72301-43.28729,51.79517,15.33134,39.30512,49.04122,10.05623,26.21666-11.3549c10.23481-23.6664,16.29906-49.6392,16.0536-75.52248l-16.48817-15.00216ZM190.77621,56.63969c-3.85635,2.45533-6.82467,19.02498-8.52236,24.06112l19.2995,35.74324,90.52585.49862,19.81963-36.22479-7.34252-23.27678c-22.50436-9.69222-49.36632-11.49145-73.69306-9.71439-8.88202.64883-33.02213,4.41479-40.08702,8.91298ZM201.22607,492.59404l-18.99097,35.54895,6.9214,22.6979c24.13845,11.30832,55.98118,12.69997,82.28227,9.46136,6.13333-.75523,28.42525-5.0985,32.5751-8.4249,1.6101-1.29061,8.19303-21.82877,7.88495-23.73436l-18.99097-35.54895h-91.68177ZM304.41768,485.92362l19.13175,35.52435,22.24592,4.74792c1.80088-.03049,8.8929-7.80433,10.78559-9.75147,20.28004-20.86349,38.76426-44.62617,52.11523-70.5137l-8.63799-18.99149-48.78986-9.3037-46.85063,68.2881ZM94.07575,426.93922c-2.35078,7.09294-9.83799,15.57537-6.90341,22.89387,7.28154,18.15931,35.23767,51.03966,49.38065,65.61132,1.97867,2.03864,9.98724,10.72103,11.78559,10.75147l22.22383-4.77001,19.15419-35.50255-46.85098-68.2878-48.78986,9.3037ZM189.71643,122.93717l-19.66246-35.99375-22.53711-4.10143c-23.99818,23.76832-46.83669,49.66609-62.07862,80.08834l8.6375,18.99133,48.78986,9.3037,46.85082-68.28818ZM400.05817,181.92165l8.6375-18.99133c-15.31614-30.39315-38.07716-56.31143-62.07862-80.08834l-22.55924,4.07931-19.64033,36.01588,46.85082,68.28818,48.78986-9.3037Z"/></g></svg>