<?xml version="1.0" encoding="UTF-8"?><svg id="Layer_2" xmlns="http://www.w3.org/2000/svg" width="494.60614" height="608.5637" viewBox="0 0 494.60614 608.5637"><g id="Layer_2-2"><g id="Layer_1_copy_2"><path d="M455.21716,169.28591c7.28372,2.76968,10.12994,3.8223,13.70557,10.78874,8.48331,16.52817,15.9368,39.94527,19.83325,58.16676,3.12137,14.59686,7.28171,40.35411,5.36334,54.74135-.60922,4.56906-6.91815,7.4653-8.87265,11.95804.00711,1.12,6.91483,6.26175,7.87482,7.93509,3.36102,5.85861-.88724,39.23013-2.34531,47.76373-3.21918,18.84091-9.69147,40.20233-17.2413,57.7587-1.50912,3.50931-5.34747,13.32846-7.44293,15.55707-2.10223,2.23581-11.55438,5.33453-11.79514,6.93777,2.56708,7.27634,4.82739,9.64005,1.94107,17.21292-13.28152,34.84692-48.64853,79.897-77.15628,103.83896-2.98218,2.50452-14.43173,12.13367-17.0835,13.00214-3.34933,1.09692-14.43646-2.93542-15.98978-2.04401-4.28632,6.51025-2.44595,13.86383-9.88876,18.07983-41.39746,23.44983-136.73309,23.43201-178.10522,0-7.43919-4.21338-5.60727-11.57831-9.88876-18.07983-1.55125-.89117-12.6405,3.14044-15.98978,2.04401-3.71555-1.21637-21.12162-16.37109-25.08283-20.00281-18.7965-17.23297-36.95253-39.9162-50.40149-61.59851-4.10103-6.61166-20.27799-34.54956-20.53024-40.50323-.1652-3.89914,3.69136-8.43689,3.01186-12.7493-.21571-.92023-7.80777-3.60052-9.41621-4.81259-4.18299-3.15219-11.20525-21.70154-13.397-27.60324C5.30912,378.02885-1.08103,345.91236.27178,314.13523l8.55201-9.19067L.0892,293.90818c-.91053-31.3667,5.20166-62.66136,15.96027-91.99524,2.01636-5.4977,8.45462-22.70091,11.55505-26.44495,2.50331-3.02296,7.85528-4.49821,11.31223-6.18208,1.20426-4.85852-3.21422-9.30154-2.66835-14.08813.44753-3.92426,10.10198-21.80673,12.64621-26.43968,14.68148-26.73453,36.55176-55.36811,59.15841-75.84159,3.74469-3.39134,20.65586-17.88081,24.0828-19.00283,3.34993-1.0968,14.43605,2.93541,15.98978,2.044,3.51265-4.70981,3.05339-12.7079,7.42667-16.54195,2.16753-1.90027,9.17633-4.52628,12.24876-5.75124,45.55099-18.16097,113.00684-18.2766,158.53479-.00287,3.08188,1.23699,10.0715,3.84783,12.24588,5.75411,4.37326,3.83406,3.914,11.83215,7.42667,16.54195,1.55371.89141,12.63983-3.1408,15.98978-2.044,3.42688,1.12199,20.33817,15.61152,24.08279,19.00283,22.76492,20.617,44.79575,49.51005,59.50751,76.4925,2.49106,4.56876,11.85587,21.91982,12.29712,25.78879.5459,4.78658-3.87262,9.22964-2.66833,14.08813l-.00006-.00002ZM332.16507,551.53581c7.01532-1.50433,19.76581,4.99652,25.88638,2.37128,1.15073-.49359,10.25833-8.38513,12.02963-9.96252,28.10977-25.03247,50.49823-57.22415,67.23557-90.81824l-5.82574-22.70319c1.27371-2.02048,15.39075-6.9411,18.53946-9.52927,8.71283-7.1618,21.12149-58.45471,22.89404-71.10596.70972-5.06552,3.1778-24.91061,1.62454-28.33884-1.49283-3.29483-16.00153-14.35141-16.4097-16.65588l16.90182-18.88202c-.68219-25.4874-5.64072-50.80977-14.22714-74.72772-1.68878-4.70424-6.6235-18.50081-9.28458-21.71542-3.09937-3.74409-19.789-9.31747-20.33795-11.63918l6.3735-21.49171c-16.63803-33.85158-39.24033-66.26919-67.48386-91.42082-1.7713-1.57739-10.87888-9.46897-12.02963-9.96254-5.9314-2.5441-17.56461,3.43047-24.31384,2.33525l-10.26083-23.76838c-48.09506-19.29372-105.50198-19.60038-153.40497.41464l-8.11848,23.37053-24.35904-2.86341c-35.03004,26.10732-61.43027,62.36647-80.77701,101.29215l6.12523,22.09427c-8.46733,6.7851-17.49758,5.82368-22.73016,16.24698-13.52664,26.94507-20.15121,62.6591-20.94076,92.64958l16.72307,17.34229-16.90182,18.88202c.68219,25.4874,5.64073,50.80975,14.22713,74.72772,1.68879,4.70425,6.62352,18.50082,9.28458,21.71542,3.09935,3.74405,19.78907,9.31754,20.33796,11.63919l-6.36992,21.49417c16.66569,33.8187,39.23842,66.26822,67.48026,91.41837,1.7713,1.57739,10.87888,9.46899,12.02964,9.96252,6.12222,2.62598,18.86874-3.87769,25.88455-2.36896l8.69014,23.80212c47.99034,19.33984,104.8275,19.34045,152.8196,0l8.68829-23.80444h.00003ZM315.8132,47.6798l8.2204,25.33762,27.99881-4.10935c27.396,27.59194,55.08624,57.15215,70.8602,93.26769l-8.75742,23.17509c5.56396,3.30113,23.20255,8.47163,26.15472,13.35661,2.91156,4.81779,7.27054,18.98534,9.04126,24.95874,4.8035,16.20435,10.61841,43.72754,8.73477,60.26328-.97751,8.58121-11.10663,13.49539-15.92664,20.13818-.37152,2.09763,12.07309,11.99945,13.93393,14.85651,4.27951,6.57059,1.05701,30.21661-.29669,38.71579-1.36246,8.55429-3.77313,18.45911-6.21176,26.78824-1.59268,5.43985-6.91202,22.49435-9.61047,26.38953-2.89111,4.17334-20.72308,9.5748-25.81909,12.69226l8.86075,22.41904c-12.40314,28.97971-32.77863,54.79135-54.41501,77.51535-2.98737,3.13751-13.29102,14.48718-15.9682,16.05182-1.17902.68903-1.40329.89648-2.89481.89404-4.70255-.00769-22.15988-5.71124-25.02414-4.87476l-8.87897,25.66748c-41.68088,18.47302-95.81917,18.47601-137.49409-.00189l-8.88058-25.66553c-2.86424-.83649-20.32159,4.86707-25.02414,4.87476-1.49155.00244-1.71581-.20502-2.89482-.89404-2.67719-1.56464-12.98082-12.91431-15.96819-16.05182-16.86755-17.71545-37.47132-42.66232-48.65832-64.34167-1.30264-2.52438-5.7552-11.03134-5.75523-13.1723-.00004-3.79675,10.31071-20.38498,8.85929-22.42044-5.09601-3.11743-22.92797-8.51892-25.81909-12.69223-2.69844-3.8952-8.01778-20.94968-9.61047-26.38953-2.43862-8.32913-4.84928-18.23395-6.21175-26.78824-1.40687-8.83307-3.81718-27.07629-1.85964-35.27872,1.39776-5.85687,11.98842-12.33566,15.49687-17.56808.37151-2.09766-12.07308-11.99945-13.93392-14.85651-4.27951-6.57059-1.057-30.21661.2967-38.71581,2.92778-18.38206,8.97156-36.68683,16.26613-53.73387l25.37519-12.13615c1.45035-2.03963-8.85933-18.62163-8.85929-22.42044.00002-2.14095,4.45259-10.6479,5.75523-13.17229,15.53432-30.10406,41.8582-56.74281,65.20685-80.85006l27.33864,4.43728,9.32988-25.97469c41.7914-18.05962,95.40399-18.21225,137.04318.30915l-.00006-.00004ZM230.86323,47.7267c-8.88202.64883-33.02213,4.41479-40.08702,8.91298-3.85635,2.45533-6.82468,19.02498-8.52235,24.06112l19.2995,35.74324,90.52586.49862,19.81964-36.22478-7.34253-23.27678c-22.50436-9.69222-49.36632-11.49145-73.69305-9.71439h-.00005ZM142.86562,191.22534l46.85081-68.28818-19.66246-35.99375-22.53711-4.10143c-23.99818,23.76832-46.83669,49.66609-62.07862,80.08833l8.6375,18.99133,48.78986,9.3037h.00002ZM351.26831,191.22534l48.78986-9.3037,8.63751-18.99133c-15.31613-30.39316-38.07715-56.31143-62.07861-80.08834l-22.55923,4.07931-19.64032,36.01588,46.85083,68.28818h-.00003ZM325.95663,238.31492l14.6879-38.91397-48.2413-68.80679-91.3427.32986-47.74921,69.14279,15.36641,38.42735,157.27887-.17923.00003-.00002ZM65.33721,206.70095c-5.56483,13.02843-10.1605,26.71741-12.80668,40.69302-1.20781,6.37894-5.06315,30.34886-2.94573,35.01775.93576,2.06335,14.66173,14.5495,17.00379,14.99707l45.48767-.46909,43.85245-52.22974-14.93919-38.70212-1.63489-1.36511-47.80076-9.29669-26.21666,11.3549ZM428.79672,206.70095l-26.21664-11.3549-47.80075,9.29669-1.63489,1.36511-14.93481,38.70084,43.84808,52.23102,46.30447.28589c1.05173-.31232,15.73364-13.81464,16.18726-14.8136,2.05396-4.52328-1.76733-28.75366-2.94559-35.01846-2.62863-13.97629-7.25583-27.66383-12.8071-40.6926l-.00003.00002ZM326.86038,251.64715l-159.08775-.23492-42.15883,50.07845-1.33974,3.28427,43.49858,52.67365h158.58865l42.14893-50.06689,1.53897-3.47729-43.18881-52.25726v.00002ZM65.33721,402.15986l26.21666,11.35489,47.80076-9.29669,1.63489-1.36511,14.9369-38.69955-43.85016-52.2323-46.30448-.28589c-1.05173.31232-15.73365,13.81464-16.18726,14.8136-2.04797,4.51013,1.76143,28.77145,2.94558,35.01846,2.64492,13.95331,7.33725,27.66238,12.80711,40.6926ZM444.85031,326.6374l-16.48816-15.00217-46.86737.72302-43.28729,51.79517,15.33133,39.30511,49.04123,10.05624,26.21664-11.35489c10.2348-23.66641,16.29907-49.63919,16.05359-75.52246l.00003-.00003ZM325.95663,370.54591l-157.27888-.17923-15.36641,38.42734,47.74921,69.14279,91.34271.32986,48.2413-68.80679-14.6879-38.91397h-.00003ZM142.86562,417.63551l-48.78986,9.30371c-2.35078,7.09293-9.83799,15.57538-6.90341,22.89386,7.28154,18.1593,35.23767,51.03967,49.38065,65.6113,1.97867,2.03864,9.98724,10.72101,11.78558,10.75146l22.22383-4.77002,19.15419-35.50256-46.85098-68.28781v.00006ZM351.26831,417.63551l-46.85065,68.28812,19.13174,35.52435,22.24591,4.74792c1.80087-.03052,8.89291-7.80432,10.78558-9.75146,20.28003-20.86349,38.76425-44.62616,52.11523-70.5137l-8.638-18.99149-48.78986-9.30371.00003-.00003ZM292.90784,492.59403h-91.68176l-18.99097,35.54895,6.9214,22.69788c24.13844,11.30835,55.98119,12.69995,82.28227,9.46136,6.13333-.75525,28.42526-5.09851,32.5751-8.42493,1.61011-1.29059,8.19302-21.8288,7.88495-23.73438l-18.99097-35.54895-.00003.00006Z"/></g></g></svg>