<svg xmlns="http://www.w3.org/2000/svg" width="1023.989" height="948.919"><path d="M816.012 712.34c-2.297 0-4.63-.57-6.851-1.519L278.213 461.943c-5.617-2.637-9.242-8.255-9.318-14.442-1.385-103.26 26.36-200.123 78.094-272.695C408.231 88.931 500.427 40.48 613.63 34.73a340 340 0 0 1 17.175-.418c21.75 0 89.653 2.467 135.484 31.124 3.625-9.793 6.377-21.863 7.781-34.787.76-6.433 5.143-11.804 11.311-13.72 1.518-.494 3.208-.722 4.802-.722 4.65 0 9.147 1.993 12.278 5.637 18.39 21.369 37.634 65.683 40.348 117.701 28.448 39.968 58.262 88.609 63.158 158.808 4.536 65.095 50.368 132.58 83.845 181.866 5.447 8.028 10.609 15.581 15.24 22.641a16.4 16.4 0 0 1 2.619 7.743c.948 13.36-3.89 26.152-13.968 36.95-14.025 15.05-36.704 24.406-59.136 24.406-6.376 0-12.525-.76-18.276-2.296-2.694-.76-5.143-2.088-7.135-4.024-2.999-2.903-6.263-6.168-9.83-9.697-16.986-16.91-40.5-40.29-71.567-61.83 47.73 64.771 46.515 126.43 2.62 209.573a16.27 16.27 0 0 1-14.367 8.654"/><path d="M41.638 1.707c.925 1.074 1.851 3.354 1.931 5.936 1.437 1.996 3.067 4.511 3.319 8.137.295 4.23 3.564 8.452 5.358 11.186.09 1.326-1.523 2.32-3.001 2.32q-.386 0-.745-.09c-1.518-1.47-4.36-4.652-8.991-6.168 5.489 4.658 6.463 8.031 3.491 13.656L15.023 23.568c-.13-9.749 4.896-20.254 17.354-20.886q.419-.022.862-.022c2.639 0 5.815.584 7.436 2.076.571-.805.855-2.038.963-3.029m0-1.707a1.71 1.71 0 0 0-1.697 1.521c-.03.232-.06.461-.102.677-2.5-1.135-5.537-1.243-6.599-1.243-.32 0-.64.008-.948.023-6.234.317-11.318 2.993-14.702 7.739-2.831 3.97-4.349 9.252-4.273 14.875 0 .652.39 1.244.982 1.521l27.977 13.113a1.706 1.706 0 0 0 2.234-.748c1.702-3.221 2.205-5.771 1.617-8.23.238.231.459.451.661.651q.284.283.525.519c.21.203.469.35.751.424.375.1.772.15 1.182.15 1.411 0 2.845-.598 3.741-1.559.687-.735 1.028-1.654.963-2.588a1.7 1.7 0 0 0-.275-.816q-.375-.569-.811-1.205c-1.709-2.516-4.049-5.962-4.272-9.163-.253-3.635-1.725-6.294-3.344-8.603-.179-2.518-1.063-5.01-2.315-6.465A1.71 1.71 0 0 0 41.638 0" style="fill:gray" transform="translate(-.023)scale(18.978)"/><path d="M594.652 932.693c-6.224 0-12.013-3.587-14.689-9.375a16.2 16.2 0 0 1 4.195-19.13c36.361-30.991 48.621-54.96 40.897-80.106-16.207-53.025-94.32-79.442-253.3-85.705-165.45-6.51-264.135-64.089-286.093-166.684-38.772-22.033-66.84-70.579-69.307-121.383-2.107-43.137 15.562-83.541 43.839-102.671 1.233-87.185 89.709-172.984 191.943-183.327h1.708c4.935 0 9.641 2.258 12.735 6.186a16.29 16.29 0 0 1 2.524 15.43c-17.46 49.19 1.328 115.158 44.617 156.929 68.852 66.347 179.722 123.698 329.496 170.403 166.703 52.019 201.698 152.166 201.698 227.034 0 96.427-90.24 166.513-247.568 192.285-.949 0-1.708.19-2.619.19z"/><path d="M13.372 9.508c-1.099 3.096.197 6.888 2.563 9.168 4.24 4.086 10.763 7.016 17.701 9.181 7.12 2.222 10.027 6.266 10.027 11.147 0 4.818-4.899 8.073-12.328 9.29 1.929-1.644 2.989-3.253 2.418-5.119-1.043-3.413-5.689-4.787-14.13-5.119-7.729-.304-13.372-2.796-14.349-8.499-1.884-.869-3.433-3.271-3.56-5.869-.106-2.179.885-4.209 2.322-4.885-.279-4.274 4.152-8.772 9.336-9.295m.001-1.707c-.06 0-.115 0-.172.01-2.846.288-5.672 1.649-7.753 3.734-1.855 1.858-2.955 4.119-3.11 6.337C.82 19.132-.105 21.39.011 23.773c.137 2.811 1.639 5.515 3.753 6.893.713 2.869 2.503 5.107 5.331 6.662 2.63 1.446 6.15 2.266 10.461 2.435 7.851.309 11.844 1.552 12.565 3.912.205.671.14 1.59-1.894 3.322a1.705 1.705 0 0 0 1.107 3.004c.09 0 .185 0 .277-.02 4.055-.664 7.312-1.875 9.679-3.599 2.67-1.944 4.08-4.494 4.08-7.375 0-4.23-1.947-9.882-11.226-12.776-7.765-2.426-13.493-5.38-17.025-8.783-2.053-1.979-2.952-5.078-2.139-7.369a1.705 1.705 0 0 0-1.607-2.278M45.213 28.896a.81.81 0 0 1-.718-.436c-1.185-2.275-3.789-3.801-6.309-5.275-3.128-1.83-6.362-3.725-6.49-7.107-.113-2.982 2.556-4.168 2.669-4.217a.81.81 0 0 1 .645 1.485c-.08.04-1.768.814-1.697 2.672.09 2.496 2.688 4.014 5.69 5.771 2.718 1.59 5.527 3.235 6.927 5.924a.81.81 0 0 1-.345 1.092.8.8 0 0 1-.372.09z" style="fill:gray" transform="translate(-.023)scale(18.978)"/></svg>