<svg xmlns="http://www.w3.org/2000/svg" width="1024.023" height="948.769"><g transform="translate(.154)scale(18.975)"><radialGradient id="a" cx="-648.13" cy="697.32" r="32.262" gradientTransform="matrix(-.891 -.454 -.3553 .6973 -290.22 -771.2)" gradientUnits="userSpaceOnUse"><stop offset="0" style="stop-color:#ebd491"/><stop offset="1" style="stop-color:#735d33"/></radialGradient><path fill="url(#a)" d="M42.999 37.535a.9.9 0 0 1-.36-.08L14.661 24.341a.86.86 0 0 1-.491-.761c-.072-5.441 1.389-10.545 4.115-14.369 3.228-4.525 8.086-7.078 14.05-7.381.295-.015.601-.022.905-.022 1.146 0 4.724.13 7.14 1.64.19-.516.336-1.152.409-1.833a.86.86 0 0 1 .85-.761c.244 0 .481.105.646.297.969 1.126 1.982 3.461 2.126 6.202 1.5 2.106 3.071 4.669 3.327 8.368.24 3.43 2.656 6.986 4.42 9.583.287.422.558.821.802 1.193.08.122.128.263.138.408.05.704-.205 1.378-.734 1.946-.74.793-1.936 1.287-3.117 1.287q-.505 0-.963-.121a.86.86 0 0 1-.376-.213q-.236-.23-.519-.511c-.895-.892-2.133-2.123-3.771-3.258 2.515 3.413 2.45 6.662.138 11.043a.85.85 0 0 1-.757.457" style="fill:url(#a)"/><path d="M41.639 1.707c.924 1.074 1.85 3.354 1.93 5.936 1.438 1.996 3.068 4.511 3.32 8.137.295 4.229 3.563 8.452 5.357 11.186.09 1.326-1.523 2.32-3.001 2.32q-.387 0-.745-.09c-1.518-1.469-4.359-4.651-8.991-6.167 5.489 4.658 6.464 8.031 3.491 13.656L15.023 23.568c-.13-9.749 4.896-20.254 17.355-20.886q.417-.022.86-.022c2.64 0 5.816.584 7.438 2.076.57-.805.853-2.038.963-3.029m0-1.707q-.256 0-.507.076a1.71 1.71 0 0 0-1.19 1.445 6 6 0 0 1-.103.677C37.34 1.063 34.303.955 33.24.955c-.32 0-.641.008-.948.023-6.234.317-11.318 2.993-14.702 7.739-2.831 3.97-4.349 9.252-4.273 14.875 0 .652.391 1.244.982 1.521l27.977 13.114a1.714 1.714 0 0 0 2.237-.748c1.7-3.222 2.203-5.771 1.615-8.23.238.23.459.451.661.65q.283.283.524.52c.211.203.47.35.752.424q.564.15 1.182.15c1.412 0 2.846-.598 3.74-1.559.688-.735 1.029-1.654.964-2.589a1.7 1.7 0 0 0-.275-.815q-.375-.57-.81-1.205c-1.709-2.516-4.051-5.962-4.273-9.163-.253-3.635-1.725-6.294-3.343-8.603-.181-2.518-1.063-5.01-2.315-6.465A1.72 1.72 0 0 0 41.639 0"/><radialGradient id="b" cx="-582.54" cy="840.62" r="29.203" gradientTransform="matrix(-.9823 -.1872 -.1398 .7336 -423.23 -702.17)" gradientUnits="userSpaceOnUse"><stop offset="0" style="stop-color:#ebd491"/><stop offset="1" style="stop-color:#8b723c"/></radialGradient><path fill="url(#b)" d="M31.335 49.146a.853.853 0 0 1-.552-1.502c1.917-1.634 2.562-2.896 2.155-4.222-.854-2.794-4.971-4.187-13.348-4.516-8.719-.343-13.918-3.377-15.075-8.783C2.472 28.962.994 26.404.863 23.727c-.11-2.273.82-4.402 2.31-5.41.065-4.594 4.727-9.115 10.114-9.66h.09a.854.854 0 0 1 .804 1.139c-.92 2.592.07 6.068 2.351 8.269 3.628 3.496 9.47 6.518 17.362 8.979 8.784 2.741 10.629 8.018 10.629 11.963 0 5.081-4.756 8.773-13.045 10.132-.05 0-.09.01-.14.01z" style="fill:url(#b)"/><path d="M13.373 9.508c-1.1 3.096.196 6.888 2.562 9.168 4.24 4.086 10.764 7.016 17.702 9.182 7.119 2.222 10.027 6.266 10.027 11.146 0 4.818-4.9 8.073-12.329 9.29 1.929-1.644 2.989-3.253 2.419-5.119-1.044-3.413-5.689-4.786-14.131-5.118-7.729-.305-13.372-2.797-14.349-8.5-1.884-.869-3.433-3.271-3.56-5.869-.105-2.179.886-4.209 2.322-4.885-.279-4.274 4.152-8.772 9.337-9.295m0-1.707c-.06 0-.115 0-.173.01-2.846.288-5.672 1.649-7.753 3.734-1.854 1.858-2.954 4.119-3.11 6.337C.818 19.132-.105 21.39 0 23.773c.147 2.811 1.65 5.515 3.764 6.893.713 2.869 2.503 5.106 5.331 6.662 2.63 1.446 6.149 2.266 10.462 2.435 7.851.309 11.843 1.553 12.564 3.912.205.671.141 1.59-1.895 3.322a1.704 1.704 0 0 0-.44 2.016 1.71 1.71 0 0 0 1.548.988c.09 0 .186 0 .277-.02 4.055-.664 7.312-1.875 9.679-3.6 2.67-1.943 4.081-4.494 4.081-7.375 0-4.23-1.948-9.882-11.227-12.775-7.766-2.425-13.494-5.379-17.024-8.782-2.053-1.979-2.952-5.078-2.139-7.369a1.7 1.7 0 0 0-.267-1.624 1.7 1.7 0 0 0-1.341-.655M45.214 28.896a.81.81 0 0 1-.719-.437c-1.185-2.274-3.789-3.801-6.31-5.275-3.127-1.83-6.361-3.725-6.49-7.107-.112-2.982 2.557-4.168 2.67-4.217a.81.81 0 0 1 .644 1.485c-.08.04-1.768.814-1.697 2.672.1 2.496 2.688 4.014 5.69 5.771 2.718 1.59 5.528 3.235 6.927 5.924a.81.81 0 0 1-.344 1.092.8.8 0 0 1-.371.09z"/></g></svg>