<svg xmlns="http://www.w3.org/2000/svg" width="1024.004" height="948.769"><g transform="translate(.154)scale(18.975)"><radialGradient id="a" cx="39.509" cy="9.292" r="32.262" gradientTransform="matrix(-.891 -.454 .3553 -.6973 71.41 33.708)" gradientUnits="userSpaceOnUse"><stop offset="0" style="stop-color:#d9eaf3"/><stop offset="1" style="stop-color:#536e78"/></radialGradient><path fill="url(#a)" d="M42.999 37.535a.9.9 0 0 1-.361-.08L14.661 24.341a.86.86 0 0 1-.491-.761c-.072-5.441 1.389-10.545 4.115-14.369 3.228-4.525 8.086-7.078 14.05-7.381.295-.015.6-.022.905-.022 1.146 0 4.724.13 7.14 1.64a7.8 7.8 0 0 0 .409-1.833.86.86 0 0 1 .849-.761c.245 0 .482.105.647.297.969 1.126 1.983 3.461 2.126 6.202 1.5 2.106 3.071 4.669 3.328 8.368.239 3.43 2.655 6.986 4.419 9.583.287.423.558.821.802 1.193.08.122.128.263.138.408.05.704-.205 1.378-.735 1.947-.74.793-1.935 1.286-3.117 1.286q-.505 0-.963-.121a.9.9 0 0 1-.376-.212q-.236-.23-.518-.511c-.895-.891-2.133-2.123-3.771-3.258 2.515 3.413 2.451 6.662.138 11.043a.86.86 0 0 1-.757.456" style="fill:url(#a)"/><path d="M41.638 1.707c.925 1.074 1.851 3.354 1.931 5.936 1.437 1.996 3.067 4.511 3.319 8.137.295 4.23 3.564 8.452 5.358 11.186.09 1.326-1.523 2.32-3.001 2.32q-.386 0-.745-.09c-1.517-1.47-4.36-4.652-8.991-6.168 5.489 4.658 6.463 8.031 3.491 13.656L15.023 23.568c-.13-9.749 4.897-20.254 17.356-20.885q.418-.022.861-.022c2.639 0 5.815.584 7.437 2.076.569-.806.853-2.039.961-3.03m0-1.707a1.707 1.707 0 0 0-1.696 1.521 6 6 0 0 1-.103.677C37.34 1.063 34.302.955 33.24.955c-.32 0-.64.008-.948.023-6.234.317-11.318 2.993-14.702 7.739-2.831 3.97-4.349 9.252-4.273 14.875 0 .652.391 1.244.982 1.521l27.977 13.113a1.709 1.709 0 0 0 2.235-.748c1.701-3.221 2.204-5.771 1.616-8.23.238.231.459.451.661.651q.284.283.525.519c.21.203.469.35.751.424.375.1.772.15 1.182.15 1.412 0 2.846-.598 3.741-1.559.687-.735 1.028-1.654.963-2.588a1.7 1.7 0 0 0-.275-.816q-.375-.569-.81-1.205c-1.709-2.516-4.05-5.962-4.273-9.163-.253-3.635-1.725-6.294-3.343-8.603-.18-2.518-1.064-5.01-2.315-6.465A1.72 1.72 0 0 0 41.638 0"/><radialGradient id="b" cx="31.476" cy="23.562" r="29.203" gradientTransform="matrix(-.9823 -.1872 .1398 -.7336 59.101 46.738)" gradientUnits="userSpaceOnUse"><stop offset="0" style="stop-color:#d9eaf3"/><stop offset="1" style="stop-color:#536e78"/></radialGradient><path fill="url(#b)" d="M31.335 49.146a.853.853 0 0 1-.553-1.502c1.917-1.633 2.562-2.896 2.156-4.221-.854-2.794-4.971-4.186-13.348-4.516-8.719-.343-13.918-3.377-15.075-8.783C2.472 28.963.994 26.405.863 23.728c-.11-2.273.82-4.402 2.31-5.41.065-4.594 4.727-9.115 10.114-9.66h.09a.855.855 0 0 1 .805 1.139c-.92 2.592.07 6.068 2.351 8.269 3.628 3.496 9.47 6.518 17.362 8.979 8.784 2.741 10.628 8.018 10.628 11.963 0 5.081-4.755 8.774-13.044 10.132-.05 0-.09.01-.14.01z" style="fill:url(#b)"/><path d="M13.372 9.508c-1.099 3.096.197 6.888 2.563 9.168 4.24 4.086 10.764 7.016 17.701 9.181 7.12 2.222 10.028 6.266 10.028 11.147 0 4.818-4.9 8.073-12.329 9.29 1.929-1.644 2.989-3.253 2.419-5.119-1.044-3.413-5.69-4.787-14.131-5.119-7.729-.304-13.372-2.796-14.349-8.499-1.884-.869-3.433-3.271-3.56-5.869-.105-2.179.886-4.209 2.322-4.885-.279-4.274 4.152-8.772 9.336-9.295m0-1.707c-.06 0-.114 0-.172.01-2.846.288-5.672 1.649-7.753 3.734-1.854 1.858-2.954 4.119-3.11 6.337C.818 19.132-.105 21.39 0 23.773c.147 2.811 1.65 5.515 3.764 6.893.713 2.869 2.503 5.107 5.331 6.662 2.63 1.446 6.149 2.266 10.462 2.435 7.851.309 11.843 1.552 12.564 3.912.205.671.14 1.59-1.894 3.322a1.705 1.705 0 0 0 1.107 3.004c.09 0 .185 0 .277-.02 4.055-.664 7.312-1.875 9.679-3.599 2.67-1.944 4.081-4.494 4.081-7.375 0-4.23-1.948-9.882-11.227-12.776-7.765-2.426-13.493-5.38-17.024-8.783-2.053-1.979-2.952-5.078-2.139-7.369a1.7 1.7 0 0 0-.267-1.624 1.7 1.7 0 0 0-1.342-.654M45.214 28.896a.81.81 0 0 1-.719-.436c-1.184-2.275-3.789-3.801-6.309-5.275-3.128-1.83-6.362-3.725-6.49-7.107-.113-2.982 2.556-4.168 2.669-4.217a.81.81 0 0 1 .645 1.485c-.08.04-1.768.814-1.697 2.672.09 2.496 2.688 4.014 5.69 5.771 2.718 1.59 5.527 3.235 6.927 5.924a.813.813 0 0 1-.344 1.092.8.8 0 0 1-.372.09z"/></g></svg>