<svg xmlns="http://www.w3.org/2000/svg" width="486.46" height="529.205"><path d="M408.036 123.408c2.44 0 3.612-1.157 3.612-3.611l-7.943-111.57c0-1.954-1.22-3.127-3.611-3.612-29.55-5.988-64.494-4.83-94.544-3.72-83.052 3.11-178.08 46.356-178.08 142.416 0 89.166 94.606 122.515 161.773 153.847 53.69 25.156 80.566 57.833 80.566 98.14 0 43.98-37.805 71.215-75.375 84.536-31.379 11.054-68.824 19.043-102.236 11.054-51.595-12.336-62.476-75.375-64.915-76.11l-17.23-9.271c-2.439 0-3.596 1.22-3.596 3.596l11.539 104.8c0 1.47 1.22 2.689 3.611 3.611 7.943 3.111 16.667 5.8 26.251 7.943 28.705 6.41 66.338 3.298 95.528.233 84.1-8.661 192.558-60.584 192.558-158.427 0-22.17-6.957-47.201-19.23-65.65-49.297-74.015-154.878-67.48-207.599-135.522-24.547-31.692-23.39-84.772 11.116-110.85 37.508-28.394 116.23-49.532 144.075 1.656 6.41 11.79 21.075 53.628 23.452 53.628zM178.831 464.012c5.128 3.721 10.928 6.895 17.776 8.49 7.505 1.766 15.744 2.689 24.61 2.689 2.376 0 5.003-.25 7.504-.375l81.05-85.132 30.723 6.285c-5.128-30.16-29.19-55.018-73.17-75.61-6.286-2.986-12.821-5.91-19.732-9.036-49.218-22.233-107.426-48.609-133.865-96.858L0 267.045l166.307 83.13Zm57.41-396.92c-1.532 1.11-3.173 2.08-4.58 3.174-10.867 8.192-17.902 20.95-19.92 35.975-2.25 17.292 2.33 35.366 12.29 48.25 22.28 28.83 56.676 42.932 93.073 57.895 30.348 12.46 61.367 25.406 87.149 47.451l82.207-148.702-174.609 35.35Zm246.06 357.895-36.71-7.52c5.316-14.165 8.318-29.065 8.927-44.575z"/></svg>