<svg xmlns="http://www.w3.org/2000/svg" width="600" height="595.706"><radialGradient id="a" cx="0" cy="0" r="1" fx="0" fy="0" gradientTransform="matrix(16.75679 0 0 -16.75679 134.012 370.624)" gradientUnits="userSpaceOnUse" spreadMethod="pad"><stop offset="0" style="stop-color:#d9eaf3"/><stop offset=".663" style="stop-color:#99aebc"/><stop offset="1" style="stop-color:#536e78"/></radialGradient><path d="M509.188 395.16c-17.513 15.592-40.893 36.247-71.198 49.337-111.11 47.997-242.175-2.159-292.152-111.869-29.83-65.554-25.064-140.536 11.645-206.91C194.415 58.989 267.833 0 267.833 0s-54.4 11.646-102.502 34.907C61.028 85.347 0 191.095 0 300.7c0 40.893 8.563 82.427 26.597 122.04 32.688 71.66 91.378 126.404 165.376 154.043 74.058 27.685 154.267 24.9 226.002-7.744 71.958-32.807 126.001-93.894 154.787-167.356C595.92 342.695 600 276.605 600 276.44c0 0-37.587 71.199-90.812 118.72" style="fill:#fff"/><path d="M447.58 466.657C324.14 520 179.821 465.436 123.857 342.636c-35.086-76.903-25.719-161.713 13.314-230.127 17.17-30.022 45.256-58.987 45.256-58.987-135.77 62.249-195.8 223.202-133.85 359.151C110.589 548.801 271.84 609.07 407.968 547c73.582-33.507 125.019-96.098 146.88-167.952 0 0-39.255 58.243-107.267 87.61" style="fill:#536e78"/><path d="M118.609 364.551c2.883-6.336 9.258-10.43 16.239-10.43 2.547 0 5.023.539 7.359 1.606a17.8 17.8 0 0 1 8.813 8.82c-1.25-1.317-3.227-3.031-5.829-4.16a17 17 0 0 0-6.765-1.399c-6.66 0-12.746 3.895-15.492 9.934-2.293 5.023-1.961 10.789.91 15.812.492.864 1.109 1.704 1.66 2.391-7.563-4.629-10.664-14.313-6.895-22.574" style="fill:url(#a)" transform="matrix(14.89203 0 0 -14.89203 -1712.286 5839.077)"/></svg>