<svg xmlns="http://www.w3.org/2000/svg" xmlns:xlink="http://www.w3.org/1999/xlink" width="143pt" height="200pt" viewBox="0 0 143 200"><defs><radialGradient xlink:href="#a" id="b" cx="0" cy="0" r="1" fx="0" fy="0" gradientTransform="matrix(71.5 0 0 -71.5 71.5 100)" gradientUnits="userSpaceOnUse" spreadMethod="pad"/></defs><path fill="url(#a)" d="M10 9h124v181H10z" style="fill:url(#b)"/><radialGradient id="a" cx="0" cy="0" r="1" fx="0" fy="0" gradientTransform="matrix(71.5 0 0 -71.5 71.5 100)" gradientUnits="userSpaceOnUse" spreadMethod="pad"><stop offset="0" style="stop-color:#f6b91d"/><stop offset=".7" style="stop-color:#d3641c"/><stop offset="1" style="stop-color:#bf331c"/></radialGradient><path d="M0 0h143v200H0zm10 9v181h124V9z"/><path d="M83.446 33.673q3.199-.752 7.718-.752 11.663 0 21.165 6.4 9.503 6.4 10.821 14.581 1.318 8.184 1.318 10.819 0 12.04-9.222 20.51-10.916 7.528-13.545 9.406 13.923 2.635 22.862 13.738 8.937 11.102 8.937 22.202 0 10.346-3.669 18.908t-12.325 11.95q-8.657 3.388-15.053 4.516a73.5 73.5 0 0 1-12.794 1.128q-8.09 0-14.676-1.223t-16.276-3.764-17.78-2.54l-6.587.378-17.123 3.01a5.7 5.7 0 0 1-1.318-1.41q-.565-.848-.565-1.979 0-.752 1.13-1.694l22.016-6.207q.753-.562 1.128-5.55.376-4.987.377-13.267 0-17.685-1.318-40.263T35.75 61.993t-13.925-9.69Q9.5 50.613 9.5 48.54q0-1.314 1.223-2.914 1.222-1.599 3.106-1.599 5.835 1.315 11.855 2.633t11.292 1.318q12.225 0 21.541-5.364t24.93-8.94M57.86 94.637q0 13.735-.19 22.673t-.379 17.028q0 8.28.755 12.42a16.45 16.45 0 0 0 3.388 7.433q2.632 3.293 8.277 4.798t12.61 1.504q12.231 0 19.098-3.388t9.971-11.194 3.104-20.979q0-11.857-11.289-18.817a5606 5606 0 0 1-27.66-12.04Q85.14 92.38 93.42 86.83q8.28-5.55 8.28-16.466v-3.198q0-9.784-6.68-16.463-6.681-6.678-17.218-6.678l-4.324.373q-9.785 1.32-12.89 8.94-3.108 7.62-3.107 21.166 0 3.389.19 10.16.188 6.774.189 9.972"/></svg>