<svg xmlns="http://www.w3.org/2000/svg" width="600" height="927.823"><path d="M370.82 557.362v-11.495c-3.08-.717-5.873-2.221-7.993-4.33-2.573-2.559-3.994-5.85-3.994-9.267 0-3.414 1.421-6.705 3.994-9.264 2.12-2.109 4.912-3.618 7.994-4.335v-4.116l8.36-7.193v11.309c3.08.717 5.878 2.226 7.997 4.335 2.574 2.559 3.989 5.85 3.989 9.264 0 3.417-1.415 6.708-3.989 9.267-2.119 2.109-4.917 3.613-7.997 4.33v4.308z" style="fill:gray" transform="translate(-6658.673 -9414.847)scale(18.55646)"/><path d="M343.132 580.075v-235.69c59.798 15.494 103.29 62.442 103.29 117.81 0 55.438-43.492 102.385-103.29 117.88m-189.554-117.88c0-55.368 43.492-102.316 103.29-117.81v235.69c-59.798-15.495-103.29-62.442-103.29-117.88m412 0c0-112.638-96.308-206.046-222.446-223.628V75.2l-86.264 74.11v89.257C130.846 256.149 34.515 349.557 34.515 462.195c0 112.707 96.331 206.116 222.353 223.698v166.8l86.264-74.11v-92.69c126.138-17.582 222.446-110.99 222.446-223.698"/></svg>