<svg xmlns="http://www.w3.org/2000/svg" xmlns:xlink="http://www.w3.org/1999/xlink" width="600" height="927.823"><linearGradient id="a" x1="0" x2="1" y1="0" y2="0" gradientTransform="matrix(22.89258 0 0 -22.89258 680.898 371.948)" gradientUnits="userSpaceOnUse" spreadMethod="pad"><stop offset="0" style="stop-color:#8b723c"/><stop offset=".4" style="stop-color:#d2bb7b"/><stop offset=".5" style="stop-color:#ebd491"/><stop offset=".7" style="stop-color:#d2bb7b"/><stop offset="1" style="stop-color:#8b723c"/></linearGradient><linearGradient xlink:href="#a" id="b" x1="0" x2="1" y1="0" y2="0" gradientTransform="translate(34.525 463.94)scale(531.00656)" gradientUnits="userSpaceOnUse" spreadMethod="pad"/><path d="M222.446 927.823V714.517c-57.178-13.315-108.996-41.219-148.336-80.35C26.373 586.686 0 525.612 0 462.195c0-63.347 26.373-124.421 74.11-171.902 39.34-39.131 91.158-67.128 148.336-80.443v-76.383L377.578 0v209.85c57.154 13.315 109.088 41.312 148.405 80.443C573.743 337.774 600 398.848 600 462.195c0 63.417-26.257 124.49-74.017 171.972-39.317 39.131-91.251 67.035-148.405 80.35v79.932z"/><path d="M256.868 149.31v89.257C130.753 256.149 34.515 349.557 34.515 462.195c0 112.707 96.238 206.116 222.353 223.698v166.8l86.264-74.11v-92.69c126.138-17.582 222.353-110.99 222.353-223.698 0-112.638-96.215-206.046-222.353-223.628V75.2zm86.264 195.075c59.798 15.494 103.29 62.442 103.29 117.81 0 55.438-43.492 102.385-103.29 117.88zm-189.554 117.81c0-55.368 43.492-102.316 103.29-117.81v235.69c-59.798-15.495-103.29-62.442-103.29-117.88" style="fill:url(#b)"/></svg>