<svg xmlns="http://www.w3.org/2000/svg" width="531.063" height="777.493"><path d="M308.617 504.875v-235.69c59.798 15.494 103.29 62.442 103.29 117.81 0 55.437-43.492 102.385-103.29 117.88m-189.554-117.88c0-55.368 43.492-102.316 103.29-117.81v235.69c-59.798-15.495-103.29-62.443-103.29-117.88m412 0c0-112.638-96.308-206.046-222.446-223.629V0l-86.264 74.11v89.256C96.33 180.95 0 274.357 0 386.995c0 112.707 96.331 206.116 222.353 223.698v166.8l86.264-74.11v-92.69c126.138-17.582 222.446-110.99 222.446-223.698"/></svg>