<svg xmlns="http://www.w3.org/2000/svg" width="533.691" height="530.308"><path d="M266.845 529.808c138.05 0 244.778-50.86 244.288-157.122-.229-49.491-100.813-132.6-106.262-182.552-4.126-37.825 35.01-127.161 49.157-167.36 1.608-4.567-.826-7.108-3.218-8.703-2.112-1.408-7.445-.69-9.492 2.682-25.319 41.695-85.729 146.509-84.583 190.637 1.817 69.933 74.158 117.406 74.474 160.755.49 67.208-74.45 76.29-164.364 76.29-89.913 0-164.854-9.082-164.364-76.29.317-43.349 72.658-90.822 74.474-160.755 1.146-44.128-59.264-148.942-84.582-190.637-2.047-3.371-7.38-4.09-9.493-2.682-2.392 1.595-4.825 4.136-3.218 8.704 14.147 40.198 53.284 129.534 49.157 167.36-5.449 49.951-106.033 133.06-106.261 182.551-.49 106.262 106.238 157.122 244.287 157.122z" style="stroke:#000"/><path d="M266.845 403.211s18.676.018 22.447.018c.635 0 1.59-.703 1.586-1.978-.033-13.743-.029-102.71-.029-131.744 0-1.699 1.061-2.578 2.665-2.593 4.416-.04 13.115-.105 16.906-.123 3.459-.017 10.662.884 13.185-4.196 2.347-4.726-.376-10.047-2.997-11.386-6.747-3.448-16.538-2.05-16.78-15.582-.159-8.845 8.112-13.841 12.83-13.841 3.397 0 5.057-1.8 5.149-6.194.195-9.375.507-31.17 4.503-43.958 13.188-47.055 53.25-122.782 65.27-137.978 1.36-1.72-.432-3.287-.432-3.287S350.15.5 266.846.5c-83.304 0-124.303 29.87-124.303 29.87s-1.792 1.566-.432 3.286c12.02 15.196 52.082 90.923 65.27 137.978 3.996 12.788 4.308 34.583 4.503 43.958.092 4.395 1.752 6.194 5.149 6.194 4.718 0 12.989 4.996 12.83 13.84-.242 13.533-10.033 12.135-16.78 15.583-2.621 1.34-5.344 6.66-2.997 11.386 2.523 5.08 9.726 4.179 13.185 4.196 3.79.019 12.49.083 16.906.124 1.604.015 2.665.893 2.665 2.592 0 29.034.005 118-.029 131.744-.003 1.275.951 1.978 1.586 1.978 3.77 0 22.446-.018 22.446-.018z" style="stroke:#000"/><path d="M.5 254.104C.814 172.35 49.957 107.012 64.973 91.63c.656-.751 1.522-.352 2.01.708 7.255 16.856 19.726 55.819 25.097 76.493.356 1.538.023 2.703-1.252 3.663-22.496 14.597-62.164 48.543-62.332 81.361-.032 1.25-.756 2.323-2.296 2.298-7.714.031-16.543-.075-23.86-.158-.911-.017-1.818-.865-1.84-1.89zM533.191 254.104c-.314-81.755-49.458-147.092-64.473-162.475-.656-.751-1.522-.352-2.01.708-7.255 16.856-19.726 55.819-25.098 76.493-.356 1.538-.023 2.703 1.253 3.663 22.495 14.597 62.163 48.543 62.331 81.361.032 1.25.757 2.323 2.297 2.298 7.713.031 16.542-.075 23.86-.158.816-.033 1.846-.992 1.84-1.89z" style="stroke:#000;stroke-width:.999041"/></svg>