<?xml version="1.0" encoding="UTF-8" standalone="no"?>
<svg
   width="1000"
   height="1000"
   viewBox="0 0 1000 1000"
   version="1.1"
   xml:space="preserve"
   style="clip-rule:evenodd;fill-rule:evenodd;stroke-linejoin:round;stroke-miterlimit:2"
   id="svg23"
   xmlns="http://www.w3.org/2000/svg"
   xmlns:svg="http://www.w3.org/2000/svg"
   xmlns:serif="http://www.serif.com/"><defs
   id="defs23" />
    <g
   transform="translate(-3206.9955)"
   id="g23">
        <g
   id="C"
   transform="translate(-0.444444)">
            <rect
   x="3207.4399"
   y="0"
   width="1000"
   height="1000"
   style="fill:none"
   id="rect1" />
            <g
   transform="rotate(180,2103.72,500)"
   id="g1">
                <circle
   cx="500"
   cy="500"
   r="417.14499"
   style="fill:#ffffff"
   id="circle1" />
            </g>
            <g
   transform="translate(3207.44)"
   id="g2">
                <path
   d="m 257.329,839.839 -47.191,63.707 c 0,0 103.267,96.164 289.862,95.129 188.024,-1.044 292.333,-97.926 291.045,-94.062 l -47.32,-65.836 c 0,0 53.835,-37.719 93.611,-93.611 l 63.779,46.977 c 0,0 92.605,-107.817 93.431,-292.143 C 995.364,317.26 902.04,209.602 902.04,206.796 l -64.586,47.538 c 0,0 -23.938,-39.543 -93.046,-93.873 L 790.045,94.395 C 790.045,94.395 669.908,4.665 500,2.122 330.135,-0.42 209.93,91.874 209.93,95.728 l 47.213,64.355 c 0,0 -64.507,45.92 -93.48,94.027 L 99.156,206.003 c 0,0 -93.785,108.326 -93.785,293.997 0,185.671 93.424,291.738 93.424,291.738 l 63.921,-47.765 c 0,0 30.477,51.245 94.613,95.866 z"
   style="fill:#ffffff"
   id="path1" />
            </g>
            <g
   transform="matrix(0.925685,0,0,0.925685,3244.6,37.1574)"
   id="g3">
                <circle
   cx="500"
   cy="500"
   r="417.14499"
   id="circle2" />
            </g>
            <g
   transform="translate(3207.44)"
   id="g4">
                <path
   d="m 345.601,730.487 -93.178,129.802 488.87,-9.838 -84.954,-118.499 z"
   style="fill:#ffffff"
   id="path3" />
            </g>
            <g
   id="Shield-Unten"
   serif:id="Shield Unten"
   transform="translate(3207.44)">
                <g
   transform="matrix(1.01274,0,0,1.0073,-4.56473,-6.35503)"
   id="g5">
                    <path
   d="M 259.907,894.84 363.008,754.01 c 0,0 10.763,7.561 25.272,12.057 l 94.382,196.926 c 0,0 -119.581,1.209 -222.755,-68.153 z"
   id="path4" />
                </g>
                <g
   transform="matrix(-1.02295,0,0,1.00406,1008.51,-3.90803)"
   id="g6">
                    <path
   d="M 259.907,894.84 363.008,754.01 c 0,0 10.763,7.561 25.272,12.057 l 93.918,197.603 c 0,0 -119.117,0.532 -222.291,-68.83 z"
   id="path5" />
                </g>
            </g>
            <g
   transform="translate(3207.44)"
   id="g7">
                <path
   d="m 753.139,133.928 -499.917,7.728 95.097,131.619 302.201,1.324 z"
   style="fill:#ffffff"
   id="path6" />
            </g>
            <g
   id="Shield-Oben"
   serif:id="Shield Oben"
   transform="translate(3207.44)">
                <g
   transform="rotate(180,498.1625,499.5015)"
   id="g8">
                    <path
   d="M 257.378,894.278 360.479,752.47 c 0,0 10.481,7.415 24.991,11.911 l 94.028,197.843 c 0,0 -118.947,1.416 -222.12,-67.946 z"
   id="path7" />
                </g>
                <g
   transform="matrix(1,0,0,-1,0,999.003)"
   id="g9">
                    <path
   d="M 262.717,894.278 364.933,752.47 c 0,0 10.762,8.331 25.272,12.827 l 93.658,196.925 c 0,0 -117.972,1.418 -221.146,-67.944 z"
   id="path8" />
                </g>
            </g>
            <g
   transform="rotate(-1.5783997,2536.8942,-115885.34)"
   id="g10">
                <path
   d="M 738.142,336.776 848.373,256.139 835.294,736.153 718.442,646.894 Z"
   style="fill:#ffffff"
   id="path9" />
            </g>
            <g
   id="Shield-Rechts"
   serif:id="Shield Rechts"
   transform="matrix(0,-1,-1,0,4201.95,1020.86)">
                <g
   transform="matrix(-1.02518,0,0,-1,1031.81,999.003)"
   id="g11">
                    <path
   d="M 258.665,896.467 362.601,756.248 c 0,0 11.576,8.171 26.086,12.667 l 94.562,194.889 c 0,0 -121.41,2.025 -224.584,-67.337 z"
   id="path10" />
                </g>
                <g
   transform="matrix(1.00362,0,0,-1.00912,21.0687,1007.8)"
   id="g12">
                    <path
   d="M 257.021,896.537 359.953,756.556 c 0,0 10.592,7.392 25.102,11.887 l 95.824,195.568 c 0,0 -120.684,1.888 -223.858,-67.474 z"
   id="path11" />
                </g>
            </g>
            <g
   transform="translate(3207.44)"
   id="g13">
                <path
   d="m 267.463,657.948 -1.292,-318.221 -123.942,-91.463 -22.188,264.353 43.39,222.178 z"
   style="fill:#ffffff"
   id="path12" />
            </g>
            <g
   id="Shield-Links"
   serif:id="Shield Links"
   transform="matrix(0,1,1,0,3920.95,-23.4678)">
                <g
   transform="rotate(180,512.66,145.0015)"
   id="g14">
                    <path
   d="M 259.025,894.84 363.008,754.01 c 0,0 10.763,7.561 25.272,12.057 l 95.599,196.687 c 0,0 -121.68,1.448 -224.854,-67.914 z"
   id="path13" />
                </g>
                <g
   transform="matrix(1.01421,0,0,-1,20.4982,290.003)"
   id="g15">
                    <path
   d="M 255.665,894.84 359.764,754.758 c 0,0 11.012,7.562 25.522,12.058 l 94.963,195.926 c 0,0 -121.41,1.46 -224.584,-67.902 z"
   id="path14" />
                </g>
            </g>
            <g
   transform="translate(3207.75,-0.384793)"
   id="g16">
                <path
   d="M 388.422,767.44 C 320.107,738.07 265.317,682.61 236.255,613.425 L 5.233,500.385 235.685,387.624 C 264.69,317.575 320.017,261.439 389.096,231.952 L 499.692,5.925 610.02,231.403 c 69.89,29.423 125.852,86.07 154.966,156.85 L 994.152,500.385 764.42,612.794 c -29.175,69.916 -84.601,125.888 -153.728,155.2 l -111,226.851 z"
   style="fill:#ffffff"
   id="path15" />
            </g>
            <g
   transform="matrix(0.874611,0,0,0.874611,3270.41,62.3581)"
   id="g17">
                <path
   d="M 393.785,778.399 C 316.824,748.153 255.471,686.081 225.493,608.159 L 5.233,500.385 224.982,392.86 C 254.854,314.089 316.733,251.346 394.444,221.024 L 499.692,5.925 604.701,220.533 c 78.507,30.211 141.017,93.455 170.961,172.943 L 994.152,500.385 775.154,607.541 C 745.1,686.18 683.117,748.754 605.358,778.894 L 499.692,994.845 Z"
   id="path16" />
            </g>
            <g
   transform="translate(3207.44)"
   id="g22">
                <g
   transform="matrix(0.459722,0,0,0.465847,270.588,266.601)"
   id="g18">
                    <circle
   cx="500"
   cy="500"
   r="417.14499"
   style="fill:#ffffff"
   id="circle17" />
                </g>
                <g
   transform="matrix(0.390202,0,0,0.3954,305.348,301.824)"
   id="g19">
                    <circle
   cx="500"
   cy="500"
   r="417.14499"
   id="circle18" />
                </g>
                <g
   transform="matrix(0.268876,0,0,0.272459,366.01,363.295)"
   id="g20">
                    <circle
   cx="500"
   cy="500"
   r="417.14499"
   style="fill:#ffffff"
   id="circle19" />
                </g>
                <g
   transform="matrix(0.200992,0,0,0.20367,399.953,397.689)"
   id="g21">
                    <circle
   cx="500"
   cy="500"
   r="417.14499"
   id="circle20" />
                </g>
            </g>
        </g>
    </g>
</svg>
