<?xml version="1.0" encoding="UTF-8" standalone="no"?>
<svg
   width="1000"
   height="1000"
   viewBox="0 0 1000 1000"
   version="1.1"
   xml:space="preserve"
   style="clip-rule:evenodd;fill-rule:evenodd;stroke-linejoin:round;stroke-miterlimit:2"
   id="svg4"
   xmlns="http://www.w3.org/2000/svg"
   xmlns:svg="http://www.w3.org/2000/svg"
   xmlns:serif="http://www.serif.com/"><defs
   id="defs4" />
    <g
   transform="translate(-4275.9955)"
   id="g4">
        <g
   id="WM"
   transform="translate(-0.444444)">
            <rect
   x="4276.4399"
   y="0"
   width="1000"
   height="1000"
   style="fill:none"
   id="rect1" />
            <g
   id="Ebene-1"
   serif:id="Ebene 1"
   transform="matrix(1.39361,0,0,1.39361,4280.44,1.5011e-4)">
                <g
   transform="translate(356.456,239.41)"
   id="g1">
                    <path
   d="m 0,237.513 c -64.682,0 -117.195,-53.213 -117.195,-118.756 C -117.195,53.213 -64.682,0 0,0 64.681,0 117.195,53.213 117.195,118.757 117.195,184.3 64.681,237.513 0,237.513 M 0,-21.158 c -76.206,0 -138.075,62.694 -138.075,139.915 0,77.22 61.869,139.914 138.075,139.914 76.205,0 138.075,-62.694 138.075,-139.914 C 138.075,41.536 76.205,-21.158 0,-21.158"
   id="path1" />
                </g>
                <g
   transform="translate(356.456,296.995)"
   id="g2">
                    <path
   d="m 0,122.343 c -33.318,0 -60.367,-27.41 -60.367,-61.171 0,-33.762 27.049,-61.171 60.367,-61.171 33.317,0 60.367,27.409 60.367,61.171 0,33.761 -27.05,61.171 -60.367,61.171 M 0,-20.66 c -44.57,0 -80.756,36.668 -80.756,81.832 0,45.163 36.186,81.831 80.756,81.831 44.57,0 80.755,-36.668 80.755,-81.831 C 80.755,16.008 44.57,-20.66 0,-20.66"
   id="path2" />
                </g>
                <g
   transform="matrix(1.00252,0,0,0.996612,637.77,184.74)"
   id="g3">
                    <path
   d="m 0,348.754 -101.705,-74.379 c 0,0 5.37,-7.655 8.637,-18.139 L 49.024,186.992 c 0,0 1.373,87.208 -49.024,161.762 m -125.058,51.763 -42.582,-55.922 c 22.46,-14.462 41.534,-32.658 56.938,-54.901 l 55.564,41.247 c 0,0 -26.886,40.381 -69.92,69.576 m -145.791,107.958 69.173,-142.851 c 10.686,-3.251 18.613,-8.717 18.613,-8.717 l 75.936,101.809 c -75.989,50.143 -163.722,49.759 -163.722,49.759 M -348.517,349.703 C -396.98,330.657 -435.615,291.569 -454.493,242.5 l -138.702,-67.868 138.38,-67.71 c 18.811,-49.604 57.778,-89.114 106.713,-108.209 l 66.278,-135.452 66.126,135.143 c 49.437,19.025 88.801,58.851 107.657,108.906 l 137.588,67.322 -137.907,67.479 c -18.926,49.521 -57.958,88.925 -106.925,107.904 l -66.539,135.988 z m -107.077,109.342 75.179,-102.138 c 0,0 7.848,5.484 18.428,8.745 l 68.82,142.822 c 0,0 -87.195,0.876 -162.427,-49.429 m -55.664,-123.622 55.497,-43.135 c 14.684,22.315 33.069,41.207 55.464,56.39 l -40.693,55.97 c 0,0 -40.646,-26.483 -70.268,-69.225 m -52.327,14.048 c -49.941,-74.285 -48.898,-161.895 -48.898,-161.895 l 141.614,68.832 c 3.237,10.446 8.681,18.195 8.681,18.195 z m 0,-350.283 100.858,76.016 c 0,0 -5.444,8.041 -8.681,18.637 l -141.067,69.344 c 0,0 -1.051,-88.657 48.89,-163.997 m 123.535,-56.103 42.355,56.094 c -22.517,14.371 -41.665,32.49 -57.159,54.67 l -55.396,-41.47 c 0,0 27.049,-40.273 70.2,-69.294 m 146.607,-101.97 -67.434,141.786 c -10.447,3.237 -18.196,9.235 -18.196,9.235 l -73.595,-102.101 c 74.285,-49.941 159.225,-48.92 159.225,-48.92 m 183.661,48.92 -74.233,102.101 c 0,0 -7.547,-5.339 -17.994,-8.576 l -67.7,-142.447 c 0,0 85.641,-1.019 159.927,48.922 m 55.171,125.056 -55.565,43.046 c -14.649,-22.338 -33.003,-41.26 -55.373,-56.478 l 40.782,-55.905 c 0,0 40.604,26.548 70.156,69.337 M 0.393,-2.329 C 50.334,73.827 48.876,163.443 48.876,163.443 L -91.444,93.644 c -3.237,-10.709 -9.121,-19.254 -9.121,-19.254 z m 7.252,-34.146 -46.502,34.228 c 0,0 -17.236,-28.471 -66.994,-67.589 l 32.859,-47.567 c 0,0 -86.498,-64.606 -208.832,-66.437 -122.303,-1.83 -208.851,64.622 -208.851,67.397 l 33.994,46.335 c 0,0 -46.445,33.062 -67.306,67.699 l -46.445,-34.637 c 0,0 -67.525,77.995 -67.525,211.678 0,133.683 67.265,210.052 67.265,210.052 l 46.023,-34.391 c 0,0 21.943,36.896 68.122,69.023 l -33.978,45.87 c 0,0 74.352,69.238 208.701,68.492 132.606,-0.736 207.368,-67.669 209.502,-67.794 l -34.021,-47.332 c 0,0 38.762,-27.158 67.4,-67.4 l 45.921,33.823 c 0,0 66.676,-77.628 67.271,-210.343 C 74.838,43.06 7.645,-34.454 7.645,-36.475"
   style="fill-rule:nonzero"
   id="path3" />
                </g>
            </g>
        </g>
    </g>
</svg>
