<svg xmlns="http://www.w3.org/2000/svg" width="600" height="563.156"><path d="M300.007 563.156 163.723 357.857l3.957-3.956L0 281.578l167.68-72.31-3.957-3.97L300.007 0 436.22 205.298l-3.9 3.97L600 281.579 432.32 353.9l3.9 3.956z" style="fill:#fff"/><path d="m410.371 360.448-78.855-78.87 78.855-78.856-95.905-144.534v446.836zm-1.309-18.43 134.073-57.793-181.378 10.502zm0-120.88 134.073 57.807-181.378-10.503zm-218.166 120.88L56.865 284.225l181.378 10.502Zm-1.324 18.43 78.856-78.87-78.856-78.856 95.962-144.534v446.836zm1.324-139.31L56.865 278.944l181.378-10.503z"/></svg>