<?xml version="1.0" encoding="UTF-8" standalone="no"?>
<!-- Generator: Adobe Illustrator 15.1.0, SVG Export Plug-In . SVG Version: 6.00 Build 0)  -->

<svg
   version="1.1"
   id="Layer_1"
   x="0px"
   y="0px"
   width="600"
   height="599.99597"
   viewBox="0 0 600 599.99598"
   enable-background="new 0 0 612 612.857"
   xml:space="preserve"
   xmlns="http://www.w3.org/2000/svg"
   xmlns:svg="http://www.w3.org/2000/svg"><defs
   id="defs12" />
<g
   id="g12"
   transform="translate(-5.8,-6.722)">
	<path
   d="m 305.8,606.718 c -165.422,0 -300,-134.573 -300,-300 C 5.8,141.3 140.378,6.722 305.8,6.722 c 165.427,0 300,134.578 300,299.996 0,165.427 -134.573,300 -300,300 z"
   id="path1" />
	<linearGradient
   id="SVGID_1_"
   gradientUnits="userSpaceOnUse"
   x1="452.53421"
   y1="560.7627"
   x2="165.16341"
   y2="63.021999">
		<stop
   offset="0"
   style="stop-color:#745E40"
   id="stop1" />
		<stop
   offset="0.1499"
   style="stop-color:#8A704A"
   id="stop2" />
		<stop
   offset="0.25"
   style="stop-color:#93784E"
   id="stop3" />
		<stop
   offset="0.2558"
   style="stop-color:#967B50"
   id="stop4" />
		<stop
   offset="0.2974"
   style="stop-color:#A78A5C"
   id="stop5" />
		<stop
   offset="0.3431"
   style="stop-color:#B19363"
   id="stop6" />
		<stop
   offset="0.4"
   style="stop-color:#B49665"
   id="stop7" />
		<stop
   offset="0.55"
   style="stop-color:#DAC699"
   id="stop8" />
		<stop
   offset="0.571"
   style="stop-color:#DCC99D"
   id="stop9" />
		<stop
   offset="0.7382"
   style="stop-color:#EBDEB8"
   id="stop10" />
		<stop
   offset="0.8866"
   style="stop-color:#F4EBC8"
   id="stop11" />
		<stop
   offset="1"
   style="stop-color:#F7EFCE"
   id="stop12" />
	</linearGradient>
	<path
   fill="url(#SVGID_1_)"
   d="M 75.357,411.151 61.404,445.658 C 38.04,404.651 24.55,357.291 24.55,306.718 24.55,193.623 91.411,96.298 187.67,51.638 l 3.099,3.433 c 5.594,6.203 9.512,12.442 11.646,18.558 0.233,0.664 0.316,1.314 0.508,1.973 -88.418,39.514 -150.248,128.183 -150.248,231.116 0,37.243 8.18,72.564 22.682,104.433 z M 434.633,74.695 442.461,93.93 c 69.955,45.085 116.464,123.551 116.464,212.787 0,19.665 -2.398,38.754 -6.674,57.138 l 16.873,41.465 c 11.508,-30.698 17.926,-63.886 17.926,-98.603 0,-110.39 -63.693,-205.792 -156.253,-251.825 -0.147,6.441 1.08,12.964 3.836,19.803 z m -33.554,466.379 c -29.443,12.03 -61.569,18.769 -95.279,18.769 -29.232,0 -57.284,-5.072 -83.423,-14.236 4.303,9.274 8.748,16.836 12.351,21.789 l 9.998,13.752 c 19.675,4.366 40.082,6.82 61.075,6.82 19.29,0 38.077,-2.105 56.259,-5.823 l 20.563,-18.2 c 6.371,-5.632 12.953,-13.624 18.456,-22.871 z m -9.138,33.399 c 23.676,-20.966 45.996,-64.05 31.439,-100.049 L 284.294,130.447 197.438,345.262 h 109.781 c -38.8,22.613 -114.908,74.157 -114.908,130.773 0,46.812 20.691,85.382 31.041,99.628 C 159.934,556.245 106.091,515 70.486,460.7 L 214.751,104.006 c 4.696,-11.6 5.008,-23.396 0.938,-35.024 C 212.618,60.184 207.28,52.379 201.206,45.65 233.547,32.682 268.822,25.472 305.8,25.472 c 39.56,0 77.188,8.203 111.337,22.943 -1.227,9.393 -0.237,19.922 4.459,31.549 l 139.893,343.904 c -32.676,71.183 -94.144,126.371 -169.548,150.605 z"
   id="path12"
   style="fill:url(#SVGID_1_)" />
</g>
</svg>
