<?xml version="1.0" encoding="UTF-8" standalone="no"?>
<svg
   version="1.1"
   id="Layer_1"
   x="0px"
   y="0px"
   width="44.917175"
   height="50.000637"
   xmlns="http://www.w3.org/2000/svg"
   xmlns:svg="http://www.w3.org/2000/svg">
  <defs
     id="defs5" />
  <g
     id="g5"
     transform="translate(1.7557408e-4)">
    <path
       d="m 20.806,49.971 c -1.593,-0.252 -3.6,-1.064 -5.01,-2.027 -1.396,-0.953 -3.051,-2.827 -3.812,-4.314 -0.301,-0.59 -0.303,-0.591 -1.472,-0.359 -0.456,0.089 -1.448,0.285 -2.205,0.435 -0.757,0.149 -2.194,0.425 -3.193,0.612 -1,0.188 -2.034,0.391 -2.298,0.451 -0.264,0.06 -0.509,0.082 -0.542,0.049 -0.033,-0.032 0.042,-0.295 0.167,-0.583 0.125,-0.287 0.386,-0.894 0.581,-1.349 0.194,-0.454 0.417,-0.974 0.497,-1.156 0.327,-0.748 1.41,-3.341 1.875,-4.486 0.313,-0.772 0.36,-0.65 -0.5,-1.294 C 3.325,34.774 1.661,32.398 0.839,30.16 0.194,28.404 -0.007,27.177 0,25.047 0.006,23.349 0.042,22.97 0.305,21.857 1.105,18.473 2.789,15.778 5.25,13.94 5.825,13.51 5.85,13.442 5.614,12.911 5.526,12.712 5.297,12.178 5.106,11.723 4.916,11.269 4.694,10.748 4.614,10.567 4.536,10.385 4.316,9.864 4.127,9.41 3.723,8.439 3.393,7.666 2.923,6.594 2.558,5.761 2.514,5.557 2.697,5.557 c 0.063,0 0.67,0.095 1.349,0.21 0.679,0.116 2.076,0.342 3.106,0.501 1.029,0.16 2.444,0.387 3.144,0.505 0.699,0.118 1.327,0.216 1.394,0.216 0.067,0 0.301,-0.326 0.52,-0.724 C 13.802,3.368 16.526,1.203 19.706,0.31 20.696,0.031 20.976,0 22.512,0 c 1.525,0 1.819,0.032 2.765,0.3 2.301,0.652 4.172,1.778 5.806,3.495 0.566,0.594 1.517,1.927 1.945,2.725 0.367,0.687 0.326,0.68 2.118,0.313 0.712,-0.146 1.989,-0.397 2.836,-0.56 0.847,-0.163 2.136,-0.41 2.863,-0.552 1.948,-0.381 2.037,-0.393 2.037,-0.267 0,0.111 -0.623,1.682 -0.946,2.384 -0.09,0.195 -0.232,0.542 -0.316,0.771 -0.084,0.229 -0.334,0.837 -0.556,1.352 -0.222,0.515 -0.444,1.06 -0.495,1.211 -0.051,0.151 -0.273,0.697 -0.495,1.212 -0.67,1.557 -0.673,1.567 -0.431,1.7 0.496,0.272 2.365,2.277 2.931,3.145 1.088,1.666 1.569,2.807 2.046,4.844 0.26,1.113 0.296,1.496 0.297,3.14 0,1.567 -0.043,2.069 -0.264,3.083 -0.7,3.211 -2.31,5.926 -4.616,7.784 -0.464,0.374 -0.861,0.692 -0.882,0.707 -0.049,0.035 0.662,1.812 1.143,2.851 0.16,0.347 0.693,1.596 1.197,2.808 0.164,0.395 0.344,0.802 0.401,0.907 0.058,0.104 0.198,0.438 0.313,0.739 l 0.208,0.549 -0.511,-0.064 C 41.625,44.542 40.998,44.444 40.513,44.359 40.029,44.275 39.112,44.13 38.476,44.04 37.84,43.948 36.923,43.8 36.439,43.712 35.643,43.566 33.27,43.218 33.072,43.218 c -0.044,0 -0.241,0.283 -0.437,0.631 -1.594,2.824 -4.342,4.975 -7.428,5.813 -0.891,0.241 -1.384,0.305 -2.588,0.331 -0.814,0.016 -1.632,0.006 -1.813,-0.022 z"
       id="path1" />
    <linearGradient
       id="path4164_4_"
       gradientUnits="userSpaceOnUse"
       x1="2.543"
       y1="36.4697"
       x2="42.768501"
       y2="13.2455">
      <stop
         style="stop-color:#8b723c"
         offset="0"
         id="stop1" />
      <stop
         style="stop-color:#d2bb7b"
         offset="0.3"
         id="stop2" />
      <stop
         style="stop-color:#ebd491"
         offset="0.5"
         id="stop3" />
      <stop
         style="stop-color:#d2bb7b"
         offset="0.7"
         id="stop4" />
      <stop
         style="stop-color:#8b723c"
         offset="1"
         id="stop5" />
    </linearGradient>
    <path
       fill="url(#path4164_4_)"
       d="M 20.391,47.578 C 17.393,46.923 14.69,44.641 13.263,41.561 13.002,40.998 12.747,40.63 12.617,40.629 12.499,40.628 10.897,40.915 9.057,41.267 7.217,41.619 5.68,41.874 5.64,41.835 5.601,41.796 6.076,40.554 6.695,39.076 l 1.125,-2.688 1.74,1.135 c 0.957,0.625 3.227,2.116 5.045,3.314 1.818,1.198 4.371,2.877 5.672,3.73 l 2.368,1.552 7.061,-4.81 c 3.883,-2.646 7.106,-4.765 7.162,-4.708 0.107,0.109 2.304,5.179 2.265,5.228 -0.013,0.016 -1.539,-0.216 -3.392,-0.515 -1.853,-0.298 -3.493,-0.542 -3.645,-0.542 -0.202,0 -0.361,0.197 -0.592,0.732 -0.814,1.882 -2.632,3.974 -4.302,4.947 -1.97,1.154 -4.659,1.598 -6.811,1.127 z M 15.674,39.066 8.753,34.506 V 25.198 15.89 l 6.741,-4.644 6.741,-4.645 6.998,4.534 6.998,4.533 v 9.342 9.342 l -6.611,4.52 c -3.636,2.485 -6.704,4.572 -6.817,4.636 -0.151,0.086 -2.111,-1.135 -7.129,-4.442 z m 9.607,-1.82 c 3.573,-0.914 6.732,-3.784 8.127,-7.387 0.565,-1.459 0.825,-2.919 0.825,-4.632 0,-3.573 -1.157,-6.507 -3.512,-8.902 -2.479,-2.523 -5.252,-3.629 -8.738,-3.484 -2.549,0.106 -4.735,0.964 -6.81,2.671 -2.006,1.649 -3.589,4.325 -4.146,7.009 -0.299,1.44 -0.299,3.931 0,5.371 1.033,4.977 4.94,8.807 9.774,9.584 1.004,0.161 3.442,0.036 4.48,-0.23 z M 20.805,34.07 c -2.427,-0.514 -4.729,-2.326 -5.833,-4.595 -0.775,-1.593 -1.026,-2.664 -1.015,-4.338 0.035,-5.321 4.013,-9.266 9.052,-8.979 2.998,0.172 5.714,2.013 7.078,4.798 0.76,1.554 0.979,2.502 0.979,4.249 0,1.75 -0.218,2.692 -0.986,4.27 -0.45,0.924 -0.806,1.406 -1.686,2.285 -1.302,1.302 -2.554,1.987 -4.243,2.323 -1.289,0.259 -2.079,0.255 -3.346,-0.013 z M 6.723,34.571 c -0.041,0 -0.7,-0.511 -1.33,-1.136 -1.363,-1.352 -2.258,-2.801 -2.828,-4.579 -1.466,-4.572 -0.349,-9.44 2.9,-12.637 0.52,-0.512 1.228,-0.93 1.304,-0.93 z M 38.309,15.46 c 0.008,-0.021 0.327,0.212 0.709,0.517 1.557,1.239 3.054,3.77 3.638,6.147 0.411,1.673 0.411,4.332 0,5.87 -0.617,2.309 -1.376,3.729 -2.829,5.292 -0.656,0.706 -1.383,1.145 -1.383,1.145 M 7.992,13.263 C 7.872,12.977 7.335,11.703 6.797,10.433 6.259,9.163 5.854,8.089 5.897,8.046 5.963,7.98 11.841,8.843 12.69,9.043 12.926,9.099 13.019,9.004 13.205,8.517 13.673,7.291 14.721,5.725 15.763,4.692 16.975,3.49 18.146,2.763 19.702,2.247 20.659,1.929 21.03,1.881 22.525,1.881 c 1.496,0 1.866,0.048 2.824,0.366 1.395,0.463 2.617,1.187 3.734,2.208 0.986,0.903 2.24,2.695 2.73,3.902 0.18,0.442 0.41,0.821 0.512,0.842 0.102,0.021 1.792,-0.274 3.755,-0.654 1.963,-0.38 3.581,-0.676 3.594,-0.656 0.037,0.051 -2.336,5.72 -2.437,5.82 C 37.189,13.757 33.794,11.62 29.693,8.962 25.308,6.119 22.167,4.168 22.07,4.225 21.808,4.38 9.145,13.092 8.654,13.455 L 8.21,13.783 Z"
       id="path5"
       style="fill:url(#path4164_4_)" />
  </g>
</svg>
