<svg xmlns="http://www.w3.org/2000/svg" width="600" height="468.678"><path d="M599.895 240.748c-.457-14.74-2.062-33.909-10.71-51.262-7.92-15.923-21.511-29.972-38.267-39.591-6.08-3.48-12.127-6.081-17.938-8.647-6.187-2.742-11.998-5.261-16.896-8.472-5.027-3.245-9.795-7.733-13.357-11.213l-18.267-17.751c-1.137-20.282-5.905-40.459-14.236-59.686C458.882 17.903 448.254.738 448.254.738s-4.393 22.567-12.9 46.083c-10.99 30.44-26.644 51.543-49.07 63.986-18.583 10.393-41.877 15.197-73.137 15.197-31.261 0-54.507-4.804-73.137-15.197-22.52-12.49-38.08-33.815-49.2-64.478C182.34 23.024 178.59 0 178.59 0s-11.811 19.825-22.93 45.087a169.4 169.4 0 0 0-14.33 62.978l-14.283 8.061c-11.53 6.585-27.23 17.892-36.24 34.6-6.504 12.128-8.425 24.852-10.3 37.12a243 243 0 0 1-1.84 11.166c-2.882 14.963-7.826 26.363-14.693 33.909-6.631 7.23-17.294 12.596-29.104 16.614C17.657 255.394 0 258.147 0 258.147s9.561 10.57 28.285 25.121c13.86 10.803 29.374 21.15 49.703 30.71 14.142 6.69 30.98 13.557 48.38 13.557 1.64 0 3.338-.094 4.979-.187 16.157-1.242 32.866-8.566 51.132-22.427 2.063-1.558 4.066-3.21 6.082-4.804 4.628-3.714 9.068-7.194 13.415-9.62 3.105-1.686 6.867-3.245 11.483-4.756l1.418-.457c.047 11.307 1.792 21.782 5.226 31.214 5.307 14.6 15.466 28.52 30.98 42.615 2.835 2.566 5.682 4.991 8.424 7.323 6.502 5.495 12.584 10.709 17.024 16.474 6.269 8.19 10.803 18.723 10.803 28.929 0 34.284-15.01 56.839-15.01 56.839s30.664-10.288 61.925-27.5c17.025-9.385 38.806-20.048 53.91-38.771 10.943-13.498 17.81-29.89 19.461-46.083 1.043-10.85-.281-20.962-1.558-30.722-.867-6.585-1.7-12.806-1.605-18.618.047-5.73.914-11.67 2.015-18.314 13.228 6.363 26.176 9.843 38.443 10.346.961 0 1.922.047 2.883.047 16.345 0 31.167-5.132 45.543-10.111l3.984-1.336c10.159-3.48 20.868-6.866 30.16-6.866 1.51 0 2.929.094 4.3.281 10.346 1.277 22.379 8.284 32.678 18.536 14.517 14.459 23.48 24.852 23.48 24.852s3.844-13.826 7.828-33.733c3.023-15.197 4.675-31.53 4.124-49.938" style="fill:#fff"/><path d="M135.659 131.276c-11.764 6.632-23.258 16.064-29.527 27.734-6.913 12.772-7.464 28.191-10.346 43.248-3.023 15.7-8.6 30.99-18.946 42.38-10.346 11.353-25.543 18.817-40.553 22.567 14.47 12.865 31.038 22.52 49.118 31.073 14.365 6.784 29.655 12.865 44.618 11.717 14.88-1.137 29.386-9.42 41.923-18.9 7.276-5.577 13.873-11.53 21.606-15.83 4.581-2.518 9.561-4.44 14.552-6.092-21.008-14.787-41.513-36.522-53.042-60.002-12.315-25.086-18.314-50.032-19.403-77.895m277.539 141.33c10.064 4.945 21.324 8.6 32.362 8.975 15.56.633 30.663-5.179 46.13-10.44 14.013-4.803 28.33-9.15 42.297-7.37 16.568 2.063 32.679 12.772 44.349 25.133 3.609-15.525 4.616-31.448 4.16-47.606-.458-15.243-2.239-30.71-8.87-44.079-6.644-13.404-18.173-24.71-31.355-32.221-11.67-6.679-24.629-10.428-35.654-17.61-5.812-3.762-11.085-8.519-16.064-13.37-1.465 27.512-8.519 54.601-21.29 79.09-12.127 23.246-34.6 45.403-56.065 59.498M173.188 48.52c-22.158 47.78-18.408 103.53 9.924 147.926s77.355 71.262 130.035 71.262 101.703-26.867 130.034-71.262a154.16 154.16 0 0 0 9.971-147.926c-25.988 80.097-82.98 94.883-140.005 94.883-56.98 0-113.96-14.786-139.96-94.883M300.88 437.967c8.647-3.656 16.978-7.874 25.355-12.22 17.716-9.152 35.89-18.806 48.38-34.273 8.471-10.486 14.376-23.621 15.653-36.85 1.606-15.876-3.386-31.858-3.245-47.828.094-6.96 1.136-13.955 2.238-20.915-12.397 5.765-25.074 10.112-38.443 13.135-10.663 2.425-29.199 5.308-40.283 4.757-28.05-1.324-53.09-7.64-78.258-20.141-.14 9.069 1.055 18.36 4.16 26.913 5.038 13.826 15.15 25.543 26.363 35.655 9.526 8.659 19.825 16.11 27.511 26.094 8.331 10.85 13.592 24.71 14.365 38.584.55 9.197-.96 18.442-3.796 27.09"/></svg>