<svg xmlns="http://www.w3.org/2000/svg" xmlns:xlink="http://www.w3.org/1999/xlink" width="600" height="468.678"><linearGradient id="a" x1="0" x2="1" y1="0" y2="0" gradientTransform="rotate(125 311.047 185.823)scale(-13.22852 13.22852)" gradientUnits="userSpaceOnUse" spreadMethod="pad"><stop offset="0" style="stop-color:#536e78"/><stop offset=".3" style="stop-color:#99aebc"/><stop offset=".5" style="stop-color:#d9eaf3"/><stop offset=".7" style="stop-color:#99aebc"/><stop offset="1" style="stop-color:#536e78"/></linearGradient><linearGradient id="b" x1="0" x2="1" y1="0" y2="0" gradientTransform="rotate(60 315.502 598.946)scale(13.5459 -13.5459)" gradientUnits="userSpaceOnUse" spreadMethod="pad"><stop offset="0" style="stop-color:#536e78"/><stop offset=".3" style="stop-color:#99aebc"/><stop offset=".5" style="stop-color:#d9eaf3"/><stop offset=".7" style="stop-color:#99aebc"/><stop offset="1" style="stop-color:#536e78"/></linearGradient><linearGradient id="c" x1="0" x2="1" y1="0" y2="0" gradientTransform="matrix(26.3379 0 0 -26.3379 649.246 31.926)" gradientUnits="userSpaceOnUse" spreadMethod="pad"><stop offset="0" style="stop-color:#536e78"/><stop offset=".3" style="stop-color:#99aebc"/><stop offset=".5" style="stop-color:#d9eaf3"/><stop offset=".7" style="stop-color:#99aebc"/><stop offset="1" style="stop-color:#536e78"/></linearGradient><linearGradient xlink:href="#a" id="f" x1="0" x2="1" y1="0" y2="0" gradientTransform="rotate(55 -134.555 155.65)scale(154.99762)" gradientUnits="userSpaceOnUse" spreadMethod="pad"/><linearGradient xlink:href="#b" id="e" x1="0" x2="1" y1="0" y2="0" gradientTransform="rotate(-60 507.15 -258.73)scale(158.71635)" gradientUnits="userSpaceOnUse" spreadMethod="pad"/><linearGradient xlink:href="#c" id="d" x1="0" x2="1" y1="0" y2="0" gradientTransform="translate(158.86 243.223)scale(308.59921)" gradientUnits="userSpaceOnUse" spreadMethod="pad"/><path d="M599.895 240.748c-.457-14.74-2.062-33.909-10.71-51.262-7.92-15.923-21.511-29.972-38.267-39.591-6.08-3.48-12.127-6.081-17.938-8.647-6.187-2.742-11.998-5.261-16.896-8.472-5.027-3.245-9.795-7.733-13.357-11.213l-18.267-17.751c-1.137-20.282-5.905-40.459-14.236-59.686C458.882 17.903 448.254.738 448.254.738s-4.393 22.567-12.9 46.083c-10.99 30.44-26.644 51.543-49.07 63.986-18.583 10.393-41.877 15.197-73.137 15.197-31.261 0-54.507-4.804-73.137-15.197-22.52-12.49-38.08-33.815-49.2-64.478C182.34 23.024 178.59 0 178.59 0s-11.811 19.825-22.93 45.087a169.4 169.4 0 0 0-14.33 62.978l-14.283 8.061c-11.53 6.585-27.23 17.892-36.24 34.6-6.504 12.128-8.425 24.852-10.3 37.12a243 243 0 0 1-1.84 11.166c-2.882 14.963-7.826 26.363-14.693 33.909-6.631 7.23-17.294 12.596-29.104 16.614C17.657 255.394 0 258.147 0 258.147s9.561 10.57 28.285 25.121c13.86 10.803 29.374 21.15 49.703 30.71 14.142 6.69 30.98 13.557 48.38 13.557 1.64 0 3.338-.094 4.979-.187 16.157-1.242 32.866-8.566 51.132-22.427 2.063-1.558 4.066-3.21 6.082-4.804 4.628-3.714 9.068-7.194 13.415-9.62 3.105-1.686 6.867-3.245 11.483-4.756l1.418-.457c.047 11.307 1.792 21.782 5.226 31.214 5.307 14.6 15.466 28.52 30.98 42.615 2.835 2.566 5.682 4.991 8.424 7.323 6.502 5.495 12.584 10.709 17.024 16.474 6.269 8.19 10.803 18.723 10.803 28.929 0 34.284-15.01 56.839-15.01 56.839s30.664-10.288 61.925-27.5c17.025-9.385 38.806-20.048 53.91-38.771 10.943-13.498 17.81-29.89 19.461-46.083 1.043-10.85-.281-20.962-1.558-30.722-.867-6.585-1.7-12.806-1.605-18.618.047-5.73.914-11.67 2.015-18.314 13.228 6.363 26.176 9.843 38.443 10.346.961 0 1.922.047 2.883.047 16.345 0 31.167-5.132 45.543-10.111l3.984-1.336c10.159-3.48 20.868-6.866 30.16-6.866 1.51 0 2.929.094 4.3.281 10.346 1.277 22.379 8.284 32.678 18.536 14.517 14.459 23.48 24.852 23.48 24.852s3.844-13.826 7.828-33.733c3.023-15.197 4.675-31.53 4.124-49.938"/><path d="M313.147 143.45c-56.98 0-113.96-14.786-139.96-94.977-22.156 47.782-18.406 103.624 9.925 148.02 28.332 44.348 77.402 71.215 130.035 71.215 52.679 0 101.703-26.867 130.081-71.215 28.332-44.396 32.081-100.238 9.877-148.02-25.94 80.19-82.979 94.977-139.958 94.977M236.436 310.5c5.038 13.92 15.15 25.636 26.316 35.701 9.573 8.659 19.872 16.11 27.558 26.14 8.378 10.804 13.639 24.665 14.365 38.538.551 9.197-.96 18.395-3.796 27.09 8.647-3.61 16.931-7.91 25.355-12.222 17.716-9.197 35.89-18.758 48.38-34.272 8.471-10.44 14.376-23.574 15.653-36.85 1.606-15.876-3.386-31.858-3.198-47.781.047-7.007 1.09-14.002 2.19-20.915-12.396 5.765-25.073 10.018-38.396 13.088-10.709 2.425-29.198 5.26-40.364 4.757-28.016-1.324-53.102-7.64-78.223-20.176-.14 9.104 1.055 18.442 4.16 26.902" style="fill:url(#d)"/><path d="M469.263 213.154c-12.127 23.2-34.6 45.357-56.065 59.499 10.03 4.898 21.324 8.506 32.362 8.928 15.56.633 30.71-5.179 46.13-10.44 14.013-4.757 28.33-9.104 42.297-7.37 16.568 2.063 32.679 12.772 44.349 25.133 3.609-15.56 4.616-31.448 4.113-47.652-.41-15.197-2.192-30.664-8.823-44.033-6.69-13.404-18.173-24.71-31.355-32.256-11.67-6.644-24.629-10.393-35.654-17.576-5.812-3.808-11.085-8.471-16.064-13.369-1.465 27.512-8.519 54.601-21.29 79.136" style="fill:url(#e)"/><path d="M106.132 159.01c-6.913 12.772-7.464 28.238-10.393 43.248-2.976 15.747-8.553 31.038-18.9 42.38-10.345 11.353-25.542 18.817-40.552 22.52 14.47 12.912 31.038 22.567 49.118 31.12 14.365 6.784 29.655 12.818 44.618 11.717 14.88-1.137 29.433-9.42 41.923-18.946 7.276-5.53 13.873-11.436 21.606-15.783 4.581-2.472 9.561-4.44 14.552-6.093-21.055-14.787-41.513-36.522-53.042-59.956-12.315-25.132-18.314-50.078-19.403-77.94-11.764 6.678-23.259 16.063-29.527 27.733" style="fill:url(#f)"/></svg>