<svg xmlns="http://www.w3.org/2000/svg" xml:space="preserve" width="340" height="340"><path fill="#fff" d="M340 170c0 93.892-76.114 170-170.001 170C76.111 340 0 263.892 0 170 0 76.115 76.11 0 169.999 0 263.886.001 340 76.116 340 170"/><path d="M325.67 170c0 85.983-69.698 155.677-155.671 155.677-85.976 0-155.671-69.693-155.671-155.677 0-85.969 69.696-155.669 155.671-155.669 85.973 0 155.671 69.7 155.671 155.669M169.999 32.44c-75.975 0-137.563 61.592-137.563 137.561 0 75.98 61.588 137.567 137.563 137.567 75.971 0 137.563-61.587 137.563-137.567 0-75.969-61.592-137.561-137.563-137.561m0 8.055C98.474 40.495 40.491 98.481 40.491 170c0 71.533 57.982 129.513 129.508 129.513 71.521 0 129.507-57.979 129.507-129.513 0-71.519-57.986-129.505-129.507-129.505m-.004 10.812 13.249 39.219 46.63 27.545 41.337-10.592-28.62 32.858v55.104l28.62 32.864-41.862-11.144-45.575 28.083-13.78 43.457-13.774-43.457-45.572-28.082-41.862 11.144L97.4 195.441v-55.104l-28.614-32.858 41.331 10.592 46.633-27.545zm.007 185.458 56.166-34.438v-65.17l-56.166-33.92-56.173 33.92v65.17z"/></svg>