<svg xmlns="http://www.w3.org/2000/svg" width="181.463" height="228.732" viewBox="0 0 181.463 228.732"><path d="M89.951 46.315c-34.029 0-61.615 27.586-61.615 61.615s27.586 61.616 61.615 61.616 61.616-27.587 61.616-61.616S123.98 46.315 89.95 46.315m0 114.673c-29.618 0-53.628-24.01-53.628-53.628s24.01-53.628 53.628-53.628 53.628 24.01 53.628 53.628-24.01 53.628-53.628 53.628"/><path d="M45.451 107.93c25.103 38.795 62.757 37.654 87.86 0-27.385-38.795-61.616-36.513-87.86 0m31.786 19.2c-7.905-3.31-15.852-9.74-23.799-19.2 9.24-10.5 18.324-17.12 27.198-19.89-7.94 3.398-13.505 11.278-13.505 20.46 0 7.805 4.026 14.66 10.106 18.63m23.788.304c6.355-3.917 10.606-10.92 10.606-18.933 0-9.699-3.423-14.263-11.41-19.968 9.128 2.282 14.48 6.923 23.961 19.397-7.606 9.888-15.34 16.334-23.157 19.504"/><path d="M181.463 28.683C146.853 13.866 144.66 12.915 116.927.732 105.11 23.452 75.86 23.726 65.707 0 45.147 8.415 20.945 18.073 0 26.963c2.815 17.16 4.661 33.525 6.583 49.188A88.8 88.8 0 0 0 .95 107.36c0 29.143 14.008 55.013 35.657 71.248C48.17 196.185 64.66 212.82 88.83 228.732c24.038-16.14 40.657-32.2 52.444-48.654 22.794-16.117 37.678-42.679 37.678-72.718a88.8 88.8 0 0 0-5.13-29.833c2.082-15.411 4.22-31.615 7.642-48.844M61.866 9.055c3.46 4.757 7.617 8.291 12.12 10.735-26.593 4.817-49.067 21.45-61.8 44.264-1.347-10.699-2.814-21.572-4.814-32.609 17.858-7.58 36.963-15.216 54.494-22.39m26.707 211.5c-14.784-10.41-26.408-21.164-35.641-32.24 11.273 5.163 23.809 8.045 37.02 8.045 12.275 0 23.97-2.486 34.61-6.981-9.463 10.516-21.225 20.893-35.989 31.176m1.378-30.47c-45.372 0-82.154-36.782-82.154-82.155S44.58 25.776 89.951 25.776s82.154 36.782 82.154 82.154-36.781 82.154-82.154 82.154m78.784-124.152c-12.24-23.23-34.447-40.39-60.937-45.782 4.873-2.463 9.065-6.003 12-10.428 23.645 10.387 24.437 11.028 53.946 23.661-2.092 11.11-3.613 21.948-5.01 32.549"/></svg>