<svg xmlns="http://www.w3.org/2000/svg" width="600" height="280.2"><radialGradient id="a" cx="0" cy="0" r="1" fx="0" fy="0" gradientTransform="translate(300.017 157.598)scale(179.68248)" gradientUnits="userSpaceOnUse" spreadMethod="pad"><stop offset="0" style="stop-color:#d9eaf3"/><stop offset=".663" style="stop-color:#99aebc"/><stop offset="1" style="stop-color:#536e78"/></radialGradient><path d="M417.767 106.69c.037.36.037.72.037 1.08 0-.361-.037-.72-.037-1.08" style="fill:#fff"/><path d="m300.074 280.2-8.298-4.541c-26.788-14.714-50.585-34.293-62.372-44.603l-64.08 21.341-15.896 5.308-5.557-15.831-9.083-25.892-5.557-15.757 15.61-5.88 58.956-22.173c-.073-1.55-.147-3.101-.212-4.541l-39.416-15.148c-5.843 4.108-12.83 6.277-20.446 6.277-15.646 0-29.021-9.092-31.55-10.93L42.507 95.078 0 62.88l53.326 1.588c2.926.074 71.539 2.123 93.573 4.255 19.938 1.948 30.073 13.699 33.895 25.459l22.098 8.215-.461-50.843L201.849 0l7.394 9.73s26.464 39.267 43.163 55.273c3.314 3.212 6.268 5.483 8.29 6.277 5.408-2.234 16.984-15.61 24.553-28.523l14.714-24.988 14.788 24.988c7.606 12.914 19.181 26.29 24.553 28.523 1.911-.72 4.616-2.778 7.717-5.658 17.05-16.007 44.133-56.364 44.133-56.364L398.188 0l-.582 51.554-.47 50.843 22.107-8.215c3.822-11.76 13.957-23.511 33.895-25.459 22.034-2.132 90.647-4.181 93.573-4.255L600 62.88l-42.508 32.197-69.267 52.542c-2.89 2.049-16.265 11.141-31.911 11.141-7.616 0-14.576-2.206-20.446-6.277l-39.453 15.11c-.066 1.478-.1 3.029-.212 4.58l58.984 22.172 15.619 5.88-5.557 15.757-9.083 25.892-5.557 15.83-15.896-5.307-64.08-21.341c-11.787 10.31-35.584 29.889-62.372 44.603z" style="fill:#fff"/><path d="M299.964 260.732c-35.696-19.615-66.49-49.006-66.49-49.006l-73.523 24.48-9.083-25.883 70.708-26.612c-.72-9.083-1.403-27.979-1.403-27.979L159.95 132.62c-12.581 19.578-37.827 1.403-37.827 1.403L52.828 81.489s70.708 2.123 92.41 4.219c21.71 2.086 20.307 20.981 20.307 20.981l54.628 20.299-.73-75.61s23.807 37.136 41.327 37.136c17.492 0 39.194-37.136 39.194-37.136h.074s21.701 37.136 39.23 37.136c17.484 0 41.29-37.136 41.29-37.136l-.692 75.61 54.59-20.299s-1.365-18.895 20.345-20.981c21.665-2.096 92.41-4.219 92.41-4.219l-69.305 52.533s-25.237 18.175-37.819-1.403l-60.221 23.113s-.72 18.896-1.403 27.979l70.708 26.612-9.084 25.883-73.523-24.48s-30.793 29.391-66.526 49.006z" style="fill:#536e78"/><path d="M260.768 92.669c-13.163 0-28.126-16.412-37.034-28.052l.582 62.335.073 6.028-5.704-2.096-54.59-20.298-2.88-1.08.211-3.065c.074-1.55.397-14.963-16.587-16.624-15.646-1.514-57.619-3.028-79.108-3.711l58.81 44.53c.11.073 9.775 6.885 19.18 6.885 5.447 0 9.629-2.344 12.73-7.172l1.837-2.815 3.138 1.227 60.222 23.077 2.557.97.11 2.741c0 .037.684 18.785 1.367 27.84l.286 3.101-2.954 1.117-66.923 25.163 6.415 18.213 69.628-23.225 2.382-.757 1.809 1.699c.323.323 29.705 28.2 63.674 47.307 33.969-19.107 63.424-46.984 63.71-47.307l1.847-1.699 2.335.757 69.628 23.225 6.387-18.213-66.923-25.163-2.889-1.117.222-3.101c.72-9.055 1.366-27.803 1.366-27.84l.148-2.742 2.52-.969 60.221-23.077 3.166-1.227 1.846 2.815c3.102 4.828 7.247 7.172 12.73 7.172 9.406 0 19.07-6.812 19.107-6.849l58.883-44.566c-21.489.683-63.461 2.197-79.117 3.71-16.975 1.662-16.652 15.074-16.578 16.625l.175 3.102-2.88 1.043-54.59 20.298-5.668 2.096.037-6.028.618-62.335c-8.944 11.64-23.87 28.052-37.034 28.052-15.433 0-32.021-22.43-39.267-33.499-7.246 11.068-23.797 33.499-39.231 33.499" style="fill:url(#a);stroke-width:9.23077"/></svg>