<svg xmlns="http://www.w3.org/2000/svg" width="194.757" height="194.753"><path d="M82.438.26C96.288.175 110.136.085 123.986 0q.581 8.888 1.169 17.774c2.644.905 5.201 2.05 7.668 3.355 18.94-5.317 37.871-10.678 56.809-16.005-5.328 18.939-10.695 37.869-16.006 56.814 1.309 2.463 2.448 5.016 3.354 7.655 5.925.399 11.852.785 17.777 1.175-.08 13.846-.186 27.69-.253 41.535-5.87.45-11.742.832-17.612 1.26-1.373 5.748-3.568 11.305-6.572 16.396 3.8 4.47 7.68 8.875 11.435 13.382a5133 5133 0 0 0-25.013 24.152c3.038 2.226 6.766 3.443 10.522 3.541 4.105.119 8.212-.865 11.903-2.641 1.527-.747 3.002-1.64 4.244-2.808-2.109 6.192-6.098 11.743-11.292 15.723-7.391 5.647-17.258 7.758-26.353 5.955-9.425-1.798-17.883-7.452-23.697-15.013-.443 4.423-.893 8.843-1.335 13.266-13.341-.343-26.681-.698-40.021-1.051-.422-5.877-.838-11.757-1.265-17.635-4.603-1.353-9.12-3.018-13.44-5.107-11.012 11.008-22.02 22.022-33.033 33.03.006-10.985-.026-21.973-.017-32.958-10.985 0-21.973-.024-32.958-.018 11.008-11.012 22.023-22.02 33.028-33.032-2.093-4.319-3.753-8.84-5.108-13.442-5.877-.425-11.757-.84-17.635-1.263-.35-13.34-.707-26.68-1.05-40.02l13.258-1.338C16.17 67.8 11.189 61.102 8.695 53.49c-2.112-6.343-2.391-13.311-.604-19.765 1.702-6.44 5.495-12.293 10.667-16.487 3.11-2.533 6.643-4.578 10.452-5.848-1.735 1.875-2.897 4.202-3.8 6.572-1.582 4.279-2.18 9.02-1.13 13.497a18.15 18.15 0 0 0 3.007 6.561C35.322 29.678 43.4 21.369 51.41 13c4.508 3.752 8.912 7.635 13.386 11.438 5.09-3.006 10.645-5.205 16.392-6.572.425-5.869.823-11.739 1.25-17.606m5.07 5.415c-.393 5.58-.805 11.157-1.172 16.74-7.87 1.212-15.473 4.229-22.006 8.795q-6.263-5.379-12.527-10.75c-6.917 7.173-13.842 14.337-20.758 21.51 2.583 2.147 5.643 3.742 8.934 4.462 5.137 1.166 10.449.306 15.512-.824 7.008-1.6 14.027-3.54 21.266-3.62 6.063-.115 12.228 1.202 17.479 4.303 4.115 2.375 7.567 5.75 10.475 9.478 3.099 4.002 5.44 8.657 6.383 13.649 11.181-11.173 22.353-22.353 33.535-33.524-7.229-6.107-15.341-11.658-24.647-13.947-.37-5.493-.725-10.985-1.09-16.48-10.461.083-20.924.123-31.384.208m37.783 78.014c6.597 1.221 12.524 4.863 17.305 9.478 3.422 3.226 6.205 7.16 7.93 11.545 1.862 4.675 2.482 9.775 2.245 14.78-.265 6.107-1.76 12.064-3.157 17.99-1.183 5.07-2.291 10.305-1.572 15.527.507 3.93 2.22 7.657 4.746 10.695 7.171-6.91 14.328-13.836 21.504-20.743-3.563-4.197-7.17-8.357-10.748-12.542 4.543-6.521 7.611-14.105 8.76-21.973 5.59-.43 11.186-.793 16.777-1.2.083-10.462.125-20.923.207-31.382-5.491-.368-10.984-.723-16.477-1.091-2.295-9.308-7.838-17.42-13.95-24.647-11.195 11.184-22.381 22.376-33.57 33.563m-76.312-9.222c-2.683 1.518-4.623 4.24-5.221 7.261a49.9 49.9 0 0 1-13.82-4.4c-5.047.485-10.09 1.101-15.135 1.635q.397 15.001.79 30.003 8.283.594 16.567 1.185c1.721 6.698 3.988 13.317 7.423 19.345 3.463.373 6.928.713 10.392 1.053 5.799-5.822 11.621-11.619 17.431-17.43-4.107-6.025-6.367-13.2-6.952-20.439 3.313-2.273 5.16-6.471 4.518-10.448-.492-3.563-2.925-6.77-6.21-8.228-3.089-1.417-6.846-1.242-9.783.463m50.144-1.047a19.45 19.45 0 0 0-10.263 4.93c-2.925 2.678-5.003 6.263-5.845 10.138a19.6 19.6 0 0 0 1.103 11.905c1.882 4.444 5.485 8.127 9.885 10.112 3.795 1.732 8.155 2.188 12.23 1.298 3.904-.833 7.52-2.918 10.215-5.86 5.225-5.527 6.635-14.213 3.489-21.128A19.62 19.62 0 0 0 111.1 75.4c-3.65-1.913-7.911-2.603-11.977-1.98m-34.92 71.359c.357 3.465.668 6.938 1.064 10.402 6.03 3.421 12.643 5.695 19.338 7.41.393 5.523.785 11.048 1.186 16.57 10 .26 20.002.527 30.002.787.512-4.654 1.02-9.31 1.537-13.962.041-.57.253-1.19-.112-1.7-2.034-4.168-3.35-8.655-4.159-13.213 1.135-.302 2.267-.654 3.282-1.26 2.904-1.645 4.955-4.705 5.33-8.027.415-3.225-.733-6.605-3.043-8.893-2.341-2.4-5.848-3.567-9.16-3.075-2.944.393-5.647 2.103-7.345 4.528-7.263-.588-14.457-2.857-20.495-6.988-5.815 5.802-11.615 11.617-17.425 17.421"/></svg>