<?xml version="1.0" encoding="UTF-8" standalone="no"?>
<svg
   version="1.1"
   width="536.80823"
   height="412.92157"
   id="svg1"
   xmlns="http://www.w3.org/2000/svg"
   xmlns:svg="http://www.w3.org/2000/svg">
  <defs
     id="defs1" />
  <path
     d="M 536.80821,412.92157 C 529.9162,399.14886 509.26278,399.14886 495.53526,395.70286 481.76255,392.26815 474.88184,385.37615 337.22248,206.45514 474.88184,27.53413 481.76255,20.65343 495.53526,17.20742 509.26278,13.77272 529.9162,13.77272 536.80821,0 h -172.0403 c 0,6.88071 0,13.77272 -5.20855,25.77159 C 354.4412,37.81565 344.11449,55.03437 268.38151,151.37558 192.72761,55.03437 182.4009,37.81565 177.23755,25.77159 172.07419,13.77272 172.07419,6.88071 172.07419,0 H 0 C 6.88071,13.77272 27.53413,13.77272 41.30684,17.20742 55.03436,20.65343 61.96027,27.53413 199.57443,206.45514 61.96027,385.37615 55.03436,392.26815 41.30684,395.70286 27.53413,399.14886 6.88071,399.14886 0,412.92157 h 172.07419 c 0,-6.892 0,-13.77271 5.16336,-25.81677 5.16335,-12.05537 15.49006,-29.21759 91.14396,-125.61529 75.73298,96.3977 86.05969,113.55992 91.17785,125.61529 5.20855,12.04406 5.20855,18.92477 5.20855,25.81677 z"
     id="path1" />
</svg>
