<svg xmlns="http://www.w3.org/2000/svg" width="293.88" height="387.1"><path d="M48.92.01c24.55 3.01 49.28 4.51 74.011 5 23-.189 46.01.52 68.989-.68 17.72-.75 35.42-2.16 53.03-4.33 2.56 12.25 5.939 24.32 9.91 36.189-7.92 2.061-16.211 4.93-21.73 11.301-6.109 6.92-6.62 18.18-.92 25.5 4.18 5.549 10.68 8.729 17.12 10.879 9.29 3.051 19.12 3.781 28.819 4.261-13.449 18.06-32 31.899-52.16 41.68-20.889-10.819-36.159-31.75-39.59-55.069-26.31.029-52.619.049-78.92-.01-3.439 23.319-18.68 44.27-39.58 55.069-20.18-9.729-38.699-23.62-52.17-41.66 10.19-.521 20.551-1.28 30.23-4.771 6.15-2.189 12.3-5.479 16.109-10.969 5.281-7.301 4.65-18.181-1.33-24.9-5.5-6.381-13.809-9.221-21.719-11.311C42.989 24.321 46.36 12.25 48.92.01M0 95.21c14.749 21.021 35.64 37 58.26 48.771 1.87 4.739 2.55 9.869 4.181 14.709 7.359 26.95 18.47 52.75 31.709 77.311-14.879 10.47-27.1 24.359-36.83 39.66-1.5 2.22-2.549 4.75-4.379 6.729-.931-1.17-1.681-2.47-2.381-3.771C20.03 222.42 2.229 159.17 0 95.21m235.61 48.75c22.629-11.74 43.5-27.75 58.27-48.75-1.72 50.25-13.199 100.021-32.66 146.329-6.08 13.941-12.4 27.861-20.279 40.881-5.561-8.391-10.83-17.07-17.551-24.641-7-8.149-14.88-15.58-23.67-21.77 13.07-24.34 24.18-49.84 31.48-76.52 1.699-5.109 2.47-10.508 4.41-15.529M101.479 251.77c.98-.83 1.76-.66 2.33.52 12.381 19.721 26.561 38.421 43.131 54.82 15.16-15.029 28.33-31.99 39.97-49.85 1.37-2.04 2.44-4.311 4.149-6.09 1.211.24 2.101 1.17 3.07 1.88 15.561 12.53 28.01 28.92 36.37 47.01-21.69 34.101-49.3 65.181-83.569 87.04-34.371-21.84-61.761-53.1-83.75-87.07 9.12-18.539 21.719-35.73 38.299-48.26"/></svg>