<svg xmlns="http://www.w3.org/2000/svg" width="664.39" height="870.39" data-name="Layer 2"><path d="M28.72 0c25.53 53.74 72.02 71.31 72.02 71.31 53.33-26.63 112.49-40.7 173.71-40.7 215.01 0 389.94 174.9 389.94 389.92 0 104.03-40.59 201.86-114.3 275.54-42.28 42.3-92.44 73.6-147.1 92.65 0 0-34.59 66.02-77.08 81.67 0 0 14.17-49.55-1.4-99.11l-52.36-76.41C121.47 692.78 0 570.03 0 418.95c0-76 30.64-144.81 80.39-194.67L58.43 118.87C-6.59 77.87 28.72 0 28.72 0m245.73 98.52c-53.43 0-104.01 13.17-148.48 36.3l9.17 46.57c40.9-23.82 88.56-37.61 139.32-37.61 152.9 0 276.74 123.87 276.74 276.74 0 126.17-84.45 232.58-199.95 265.87l24.05 39.9c128.34-42.38 221.19-163.44 221.19-305.77 0-177.61-144.42-322.01-322.03-322.01zm118.39 194.16-8.58 4.96-37.9 46.68 3.72 6.44 35.44-1.39 45.43 78.69q10.53 18.24 9.63 29.49c-.6 7.5-5.38 13.68-14.34 18.53l-.88.51-.1-.17c-1.43.83-2.6 1.42-3.5 1.78s-1.9.7-2.99 1.01c-.85.17-1.65.31-2.38.42q-1.095.165-2.94.27c-2.83.05-5.46.05-7.86 0-2.41-.04-4.79-.18-7.15-.4-3.01-.81-6.42-1.62-10.23-2.44s-7.97-1.83-12.49-3.04c-7.9-2.12-14.36-3.95-19.39-5.5s-8.74-2.75-11.13-3.59l-52.69-17.74c-7.05-2.29-13.06-4.3-18.03-6.04-4.98-1.74-8.73-3.15-11.26-4.23-1.13-.3-2.1-.61-2.92-.93s-1.54-.46-2.15-.43l-.28-.08-.28-.07-1.97-.53c-.56-.15-1.34-.26-2.33-.32 2.69-2.51 5.08-4.68 7.19-6.54 2.11-1.85 3.98-3.57 5.61-5.15 1.16-1.3 2.35-2.55 3.57-3.73s2.23-2.48 3-3.88c1.39-1.44 2.72-3 3.98-4.68s2.56-3.55 3.92-5.6c7.6-11.06 11.72-23.06 12.37-35.99.64-12.93-2.2-24.88-8.54-35.85-6.61-11.44-15.98-20.1-28.11-25.97s-25.11-7.84-38.93-5.9c-10.03 1.34-20.32 4.18-30.85 8.51s-24.33 11.27-41.4 20.8L39.95 391.29l7.85 13.59 3.07-1.29c12.16-7.02 22.53-8.88 31.12-5.57s17.15 12.35 25.68 27.14L185.52 560c8.67 15.02 12.29 27.08 10.87 36.17-1.43 9.09-8.29 17.03-20.59 23.81l-2.86 1.65 7.85 13.59 111.59-64.43-7.85-13.59-4.44 3.04c-12.16 7.02-22.53 8.88-31.12 5.57s-17.28-12.59-26.09-27.85l-34.9-60.45 10.58-5.63c4.05-2.34 7.65-4.1 10.78-5.27 3.14-1.18 5.58-1.63 7.32-1.37 3.35.29 8.64 1.61 15.87 3.95s16.72 5.69 28.45 10.04l54.04 21.73c9.85 3.85 18.4 6.94 25.63 9.29 7.23 2.34 13.41 4.1 18.54 5.27 7.38 1.78 14.73 1.83 22.03.16s15.01-4.85 23.11-9.53l28.61-16.52-.11-.18 77.42-44.7-7.43-12.88-1.22 1.18c-7.15 4.13-14.02 4.36-20.59.68s-13.3-11.47-20.18-23.4l-67.94-117.67zm-197.68 41.65c2.58.18 5.18.17 7.74.54 6.38.92 12.5 3.09 18.11 6.23 9.19 5.18 16.68 12.78 22.46 22.8 5.51 9.54 8.2 19.03 8.09 28.47s-3.14 18.11-9.08 25.99c-1.16 1.3-2.25 2.57-3.29 3.81s-2.01 2.43-2.93 3.6c-3.6 3.67-7.98 7.23-13.14 10.69-5.16 3.45-13.41 8.3-24.76 14.53l-19.31 11.15-56.79-98.36 19.88-11q13.23-7.635 20.88-11.34c5.1-2.47 10.2-4.22 15.32-5.27 1.94-.49 3.96-.85 6.04-1.1s4.35-.45 6.81-.59zm143.6-118.65c-3.92.56-7.03 1-10.49 3.17-5.25 3.03-8.71 7.49-10.39 13.39s-1.01 11.47 2.02 16.72l.21.36c3.03 5.25 7.59 8.74 13.67 10.47 6.09 1.73 11.75 1.08 17-1.95 5.48-3.17 8.94-7.78 10.36-13.85s.62-11.72-2.41-16.97c-3.17-5.48-7.67-9.01-13.49-10.57-3.59-.78-1.44-.43-6.49-.76z" data-name="Layer 1" style="stroke-width:0"/></svg>