<?xml version="1.0" encoding="UTF-8"?>
<svg id="Layer_2" data-name="Layer 2" xmlns="http://www.w3.org/2000/svg" xmlns:xlink="http://www.w3.org/1999/xlink" viewBox="0 0 896.88 896.34">
  <defs>
    <style>
      .cls-1, .cls-2 {
        fill-rule: evenodd;
        stroke-width: 0px;
      }

      .cls-2 {
        fill: url(#linear-gradient);
      }
    </style>
    <linearGradient id="linear-gradient" x1="-501.22" y1="966.26" x2="-500.22" y2="966.26" gradientTransform="translate(499001.21 966355.16) scale(995.68 -999.64)" gradientUnits="userSpaceOnUse">
      <stop offset="0" stop-color="#8d742f"/>
      <stop offset=".07" stop-color="#967d38"/>
      <stop offset=".18" stop-color="#ae954f"/>
      <stop offset=".2" stop-color="#b39a54"/>
      <stop offset=".22" stop-color="#b9a059"/>
      <stop offset=".3" stop-color="#cab068"/>
      <stop offset=".39" stop-color="#d4ba71"/>
      <stop offset=".5" stop-color="#d7bd74"/>
      <stop offset=".61" stop-color="#d4ba71"/>
      <stop offset=".7" stop-color="#cab068"/>
      <stop offset=".78" stop-color="#b9a059"/>
      <stop offset=".8" stop-color="#b39a54"/>
      <stop offset=".86" stop-color="#a38a45"/>
      <stop offset=".94" stop-color="#937a35"/>
      <stop offset="1" stop-color="#8d742f"/>
    </linearGradient>
  </defs>
  <g id="Layer_1-2" data-name="Layer 1">
    <path class="cls-1" d="M500.9,197.4c-7.16-9.19-15.26-18.35-24.36-27.46-78.43-78.42-334.9-84.22-334.9-84.22,23.4-20.7,51.13-33.13,96.7-50.12,151.24-56.44,301.21-45.01,400.14,28.81,24.1,18,45.34,39.67,62.95,65.05l60.3,25.64c84.32,35.87,121.39,110.6,131.88,189.02,9.86,73.78-4.25,150.26-20.58,194.88-2.27,6.2-4.66,12.26-7.15,18.2l3.07,4.79c13.26,20.72,17.82,46.7,14.83,73.43-4.03,35.96-21.86,73.06-45.04,96.86-94.58,97.19-277.84,181.36-464.3,160.97C227.52,877.2,13.09,780.35,3.76,528.67l-3.76-101.27,57.97,83.12c54.16,77.63,97.55,95.44,158.81,95.44,160.99,0,231.23-156.36,254.98-227.32,14.45-43.14,15.9-105.2-3.28-136.44-19.19-31.25-39.54-44.99-39.54-44.99,23.28-9.05,47.34-8.17,71.96.18h0ZM242.17,160.52c28.85,64.78,68.58,121.19,121.88,167.17l25.87,22.31-25.63,22.61c-50.58,44.6-91.8,97.73-121.63,161.18l-27.01,57.46-26.94-57.49c-30.19-64.42-73.86-116.41-128.35-158.4l-31.68-24.41,32.46-23.38c54.05-38.94,96.32-94.03,126.28-166.33l26.53-64.06,28.22,63.34h0Z"/>
    <path class="cls-2" d="M214.94,172.66c30.67,68.84,73,128.74,129.65,177.6-53.62,47.28-97.27,103.6-128.9,170.87-32.27-68.87-78.89-124.49-137.14-169.37,58.27-41.98,104.1-101.16,136.39-179.1h0ZM248.76,63.52c234.18-87.37,465.5-5.2,478.48,241.64,0,212.82-132.02,344.16-359.46,391.92,193.03-17.27,351.05-124.63,411.16-312.58,20.71-64.76,18.6-138.3-28.85-201.96,147.07,62.54,125.26,263.51,94.97,346.22-45.54,124.4-141.95,191.64-226.02,226.02,126.08-9.14,207.54-107.56,224.82-176.72,24.35,38.06,5.17,100.94-26.45,133.44-89.56,92.03-263.16,171.44-439.72,152.14-135.92-14.86-335.52-103.24-344.15-336.07,62.2,89.17,112.87,108.2,183.24,108.2,177.32,0,257.08-169.51,283.24-247.66,16.55-49.42,20.18-92.24-3.6-156.29,43.13,34.09,60.72,78.12,68.52,162.3,24.62-73.68,16.03-161.9-67.32-245.26-64.37-64.37-157.85-87.77-248.86-85.36h0Z"/>
  </g>
</svg>