<?xml version="1.0" encoding="UTF-8" standalone="no"?>
<svg
   id="Layer_2"
   data-name="Layer 2"
   viewBox="0 0 896.87536 896.32834"
   version="1.1"
   width="896.87537"
   height="896.32837"
   xmlns="http://www.w3.org/2000/svg"
   xmlns:svg="http://www.w3.org/2000/svg">
  <defs
     id="defs17">
    <style
       id="style1">
      .cls-1, .cls-2 {
        fill-rule: evenodd;
        stroke-width: 0px;
      }

      .cls-2 {
        fill: url(#linear-gradient);
      }
    </style>
    <linearGradient
       id="linear-gradient"
       x1="-501.60001"
       y1="966.26001"
       x2="-500.60001"
       y2="966.26001"
       gradientTransform="matrix(995.68,0,0,-999.64,499383.53,966355.16)"
       gradientUnits="userSpaceOnUse">
      <stop
         offset="0"
         stop-color="#626e77"
         id="stop1" />
      <stop
         offset=".04"
         stop-color="#697780"
         id="stop2" />
      <stop
         offset=".11"
         stop-color="#7d8e98"
         id="stop3" />
      <stop
         offset=".2"
         stop-color="#9eb4c0"
         id="stop4" />
      <stop
         offset=".2"
         stop-color="#a0b6c2"
         id="stop5" />
      <stop
         offset=".2"
         stop-color="#a1b7c3"
         id="stop6" />
      <stop
         offset=".29"
         stop-color="#adc6d4"
         id="stop7" />
      <stop
         offset=".38"
         stop-color="#b5cede"
         id="stop8" />
      <stop
         offset=".5"
         stop-color="#b7d1e1"
         id="stop9" />
      <stop
         offset=".62"
         stop-color="#b5cede"
         id="stop10" />
      <stop
         offset=".71"
         stop-color="#adc6d4"
         id="stop11" />
      <stop
         offset=".8"
         stop-color="#a1b7c3"
         id="stop12" />
      <stop
         offset=".8"
         stop-color="#a0b6c2"
         id="stop13" />
      <stop
         offset=".85"
         stop-color="#8b9da8"
         id="stop14" />
      <stop
         offset=".91"
         stop-color="#74838d"
         id="stop15" />
      <stop
         offset=".96"
         stop-color="#67747d"
         id="stop16" />
      <stop
         offset="1"
         stop-color="#626e77"
         id="stop17" />
    </linearGradient>
  </defs>
  <g
     id="Layer_1-2"
     data-name="Layer 1"
     transform="translate(0,0.00539096)">
    <path
       class="cls-1"
       d="m 500.92,197.4 c -7.16,-9.19 -15.26,-18.35 -24.36,-27.46 -78.43,-78.42 -334.9,-84.22 -334.9,-84.22 23.4,-20.7 51.13,-33.13 96.68,-50.12 151.24,-56.44 301.22,-45.01 400.14,28.81 24.11,18 45.35,39.67 62.96,65.05 l 60.3,25.64 c 84.32,35.87 121.39,110.6 131.87,189.02 9.86,73.78 -4.24,150.26 -20.57,194.88 -2.27,6.2 -4.66,12.26 -7.15,18.2 l 3.06,4.79 c 13.26,20.72 17.83,46.7 14.83,73.43 -4.02,35.96 -21.85,73.06 -45.02,96.86 C 744.18,829.47 560.92,913.64 374.46,893.25 227.53,877.2 13.1,780.35 3.77,528.67 L 0,427.4 57.98,510.52 c 54.16,77.63 97.54,95.44 158.81,95.44 160.99,0 231.22,-156.36 254.98,-227.32 14.45,-43.14 15.9,-105.2 -3.29,-136.44 -19.18,-31.25 -39.54,-44.99 -39.54,-44.99 23.29,-9.05 47.35,-8.17 71.98,0.18 v 0 z M 242.17,160.52 c 28.86,64.78 68.59,121.19 121.9,167.17 l 25.86,22.31 -25.62,22.61 c -50.58,44.6 -91.8,97.73 -121.63,161.18 l -27.02,57.46 -26.94,-57.49 C 158.54,469.34 114.87,417.35 60.38,375.36 L 28.7,350.95 61.15,327.57 c 54.06,-38.94 96.32,-94.03 126.28,-166.33 l 26.54,-64.06 28.21,63.34 v 0 z"
       id="path17" />
    <path
       class="cls-2"
       d="m 214.96,172.66 c 30.67,68.84 73,128.74 129.64,177.6 C 291,397.54 247.34,453.86 215.71,521.13 183.44,452.26 136.82,396.64 78.57,351.76 136.84,309.78 182.67,250.6 214.96,172.66 Z M 248.77,63.52 c 234.18,-87.37 465.5,-5.2 478.48,241.64 0,212.82 -132.04,344.16 -359.46,391.92 C 560.82,679.81 718.83,572.45 778.95,384.5 799.66,319.74 797.55,246.2 750.09,182.54 897.17,245.08 875.35,446.05 845.07,528.76 799.53,653.16 703.12,720.4 619.05,754.78 745.13,745.64 826.58,647.22 843.87,578.06 868.22,616.12 849.04,679 817.41,711.5 727.85,803.53 554.25,882.94 377.71,863.64 241.79,848.78 42.19,760.4 33.55,527.57 c 62.21,89.17 112.88,108.2 183.25,108.2 177.32,0 257.06,-169.51 283.24,-247.66 16.55,-49.42 20.18,-92.24 -3.61,-156.29 43.14,34.09 60.73,78.12 68.53,162.3 24.62,-73.68 16.03,-161.9 -67.32,-245.26 C 433.26,84.49 339.78,61.09 248.78,63.5 Z"
       id="path18"
       style="fill:url(#linear-gradient)" />
  </g>
</svg>
