<?xml version="1.0" encoding="UTF-8" standalone="no"?>
<svg
   id="Layer_2"
   data-name="Layer 2"
   viewBox="0 0 833.58062 836.88866"
   version="1.1"
   width="833.58063"
   height="836.88867"
   xmlns="http://www.w3.org/2000/svg"
   xmlns:svg="http://www.w3.org/2000/svg">
  <defs
     id="defs1">
    <style
       id="style1">
      .cls-1 {
        fill-rule: evenodd;
        stroke-width: 0px;
      }
    </style>
  </defs>
  <g
     id="Layer_1-2"
     data-name="Layer 1"
     transform="translate(0,0.00243274)">
    <path
       class="cls-1"
       d="m 181.4,142.99 c 30.67,68.84 73,128.74 129.65,177.6 -53.62,47.28 -97.27,103.6 -128.89,170.87 C 149.89,422.59 103.26,366.97 45.01,322.09 103.28,280.11 149.11,220.93 181.4,142.99 Z M 215.22,33.85 C 449.4,-53.52 680.72,28.65 693.7,275.49 693.7,488.31 561.68,619.65 334.24,667.41 527.27,650.14 685.29,542.78 745.4,354.83 766.11,290.07 764,216.53 716.55,152.87 863.62,215.41 841.81,416.38 811.52,499.09 765.98,623.49 669.57,690.73 585.51,725.11 711.58,715.97 793.04,617.55 810.32,548.39 834.67,586.45 815.49,649.33 783.87,681.83 694.31,773.86 520.71,853.27 344.15,833.97 208.22,819.12 8.63,730.74 0,497.9 c 62.2,89.17 112.87,108.2 183.24,108.2 177.32,0 257.08,-169.51 283.24,-247.66 16.55,-49.42 20.18,-92.24 -3.6,-156.29 43.13,34.09 60.72,78.12 68.52,162.3 24.62,-73.68 16.03,-161.9 -67.32,-245.26 C 399.71,54.84 306.23,31.44 215.22,33.85 Z"
       id="path1" />
  </g>
</svg>
