<?xml version="1.0" encoding="UTF-8"?>
<svg id="Layer_2" data-name="Layer 2" xmlns="http://www.w3.org/2000/svg" viewBox="0 0 833.57 836.89">
  <defs>
    <style>
      .cls-1 {
        fill-rule: evenodd;
        stroke-width: 0px;
      }
    </style>
  </defs>
  <g id="Layer_1-2" data-name="Layer 1">
    <path class="cls-1" d="M181.4,142.99c30.67,68.84,73,128.74,129.65,177.6-53.62,47.28-97.27,103.6-128.89,170.87-32.27-68.87-78.9-124.49-137.15-169.37,58.27-41.98,104.1-101.16,136.39-179.1h0ZM215.22,33.85c234.18-87.37,465.5-5.2,478.48,241.64,0,212.82-132.02,344.16-359.46,391.92,193.03-17.27,351.05-124.63,411.16-312.58,20.71-64.76,18.6-138.3-28.85-201.96,147.07,62.54,125.26,263.51,94.97,346.22-45.54,124.4-141.95,191.64-226.01,226.02,126.07-9.14,207.53-107.56,224.81-176.72,24.35,38.06,5.17,100.94-26.45,133.44-89.56,92.03-263.16,171.44-439.72,152.14C208.22,819.12,8.63,730.74,0,497.9c62.2,89.17,112.87,108.2,183.24,108.2,177.32,0,257.08-169.51,283.24-247.66,16.55-49.42,20.18-92.24-3.6-156.29,43.13,34.09,60.72,78.12,68.52,162.3,24.62-73.68,16.03-161.9-67.32-245.26C399.71,54.84,306.23,31.44,215.22,33.85h0Z"/>
  </g>
</svg>