<?xml version="1.0" encoding="UTF-8"?><svg id="Layer_2" xmlns="http://www.w3.org/2000/svg" width="107.59368" height="94.98861" xmlns:xlink="http://www.w3.org/1999/xlink" viewBox="0 0 107.59368 94.98861"><defs><style>.cls-1{fill:#85723e;}.cls-2{fill:url(#linear-gradient);}</style><linearGradient id="linear-gradient" x1="15.51278" y1="49.21257" x2="112.8309" y2="49.13176" gradientUnits="userSpaceOnUse"><stop offset=".01861" stop-color="#85723e"/><stop offset=".08401" stop-color="#9b864d"/><stop offset=".18867" stop-color="#b9a162"/><stop offset=".2915" stop-color="#cfb471"/><stop offset=".39071" stop-color="#dcc07a"/><stop offset=".48223" stop-color="#e1c47e"/><stop offset=".57152" stop-color="#ddc07b"/><stop offset=".65311" stop-color="#d2b673"/><stop offset=".73169" stop-color="#bfa666"/><stop offset=".80792" stop-color="#a58f54"/><stop offset=".88181" stop-color="#85723e"/></linearGradient></defs><g id="Layer_1_copy"><path d="M44.92457,6.99003c13.18291,5.51903,27.26957,9.71954,41.66939,10.32888,1.33297.05641,2.83143.23991,4.17079.10822.64711-.06362,1.64102-.72595,2.36107-.97003,5.44287-1.845,10.19795.57544,12.08051,5.88035.34842.98182.32175,1.04236.84866,1.96135,3.99046,6.95988-.1902,15.19287-7.82819,16.81958-.39217.08352-.89659.04837-1.29743.16006-.72638.2024-1.53584.87128-2.36641.91318.20644,1.4001.50345,2.79672.62028,4.21156.22222,2.69119.04745,5.5358-.44832,8.18664-1.12855,6.03418-4.28991,11.64615-8.6067,15.95382,1.06019,1.07623,1.86776,2.32629,2.39477,3.74422.47985,1.29105.61585,1.60318,1.26533,2.7936,3.44434,6.31311-.46524,14.69601-7.42883,16.23196-1.37092.30238-1.87056.4163-3.18114.87879-3.40626,1.20203-6.49316,1.16922-9.49291-.97256-.48836-.34868-.80649-.7887-1.39493-1.10319-2.65082-1.41671-6.88366-2.75664-9.80387-3.83287-10.33436-3.80868-21.2864-7.26492-32.10076-9.43519-1.19017-.23885-5.82623-1.24712-6.68662-1.02325-.2991.07782-.70814.39991-1.03938.52108-3.88021,1.41941-8.06678,1.00193-10.82284-2.2906-.43413-.51864-.98206-1.72836-1.30189-2.02865-.31833-.29887-1.5775-.7682-2.10835-1.11856-8.95452-5.90992-3.22941-19.98751,7.41975-19.27853.5421.03609,1.53958.35612,1.96452.31502.3155-.03051,1.047-.52251,1.41828-.67155,4.70829-1.89002,9.45225-.86879,12.12561,3.58472,3.2985-3.04053,5.96266-6.75963,7.55009-10.97441,2.39529-6.35972,2.31688-13.4741.30932-19.92914-3.85567,1.59003-8.21154.93196-10.92756-2.34429-.40725-.49125-.95865-1.69222-1.25774-1.96872-.21511-.19887-.87937-.37358-1.20952-.5601C11.68656,15.35678,17.40623.39168,28.60272,1.29455c.46826.03776,1.40149.35826,1.76418.31099.26236-.03419,1.72383-.85082,2.21887-1.01598,5.58498-1.86332,10.72395.8033,12.3388,6.40046ZM40.42105,6.07861c-1.51362-2.65335-4.6387-2.91521-7.25381-1.78613-4.74144,2.04712-8.14834,8.39402-7.41186,13.47958.34016,2.34888,1.61956,4.60642,4.06474,5.19856.3013.07297,2.17098.38539,2.16583.01842-4.26513-3.17532-4.09922-9.15772-1.08207-13.15438,2.18543-2.89492,5.88176-4.65288,9.51717-3.75605ZM27.82352,4.93596c-6.60428-.21767-10.446,8.52758-4.73656,12.58948-.36791-4.68874,1.60099-9.19828,4.73656-12.58948ZM83.93955,35.42353c-1.27144-5.09301.65386-10.56623,4.16302-14.30754.00057-.2666-1.91154-.13461-2.24062-.1518-12.01392-.62754-25.02788-3.84135-36.22867-8.11901-3.16296-1.20796-6.16539-2.95467-9.21399-4.11026-5.59849-2.12214-11.0362,5.30173-8.48773,10.35636,1.46485,2.90538,4.20746,2.56912,6.96261,3.03061,15.50386,2.59692,30.4624,7.61706,45.04539,13.30164ZM90.65541,38.96198c.58744.07938,1.3201-.05802,1.92608,0-6.66496-5.00967-2.71902-15.78957,4.97354-17.14143,1.18957-.20905,2.17867-.10533,3.35545.07481-3.09735-4.4549-8.4306-1.94115-11.29767,1.35234-2.78185,3.19561-4.62868,8.7549-2.67165,12.76686.63627,1.30437,2.23854,2.748,3.71425,2.94741ZM98.70559,24.21374c-4.97206.17563-8.71976,6.95642-5.98136,11.22367,2.83166,4.41258,8.7888,1.41181,10.4955-2.54408,1.60353-3.71675.21136-8.84652-4.51414-8.6796ZM28.6567,60.7089c12.27092,4.98819,25.26632,8.95701,38.57445,9.98982,2.16083.1677,5.17733.41203,7.29188.21419.52473-.0491.55226-.24346.94456-.40869,2.1125-.88974,4.09149-1.46866,6.41894-.96374,7.51709-6.54614,11.35479-16.53404,9.10091-26.43584-.07002-.3076-.33146-1.65542-.55717-1.7324-.40552-.1383-1.05212-.15236-1.54879-.32506-.74353-.25854-1.55979-.77324-2.17924-1.25582-1.06963-.83328-1.14174-.93618-2.45306-1.50243-11.07271-4.78132-24.08185-8.97166-35.8302-11.74308-3.29074-.77628-6.62741-1.51142-9.97592-1.94287.68789,1.63781,1.13223,3.4298,1.42477,5.1826,1.25557,7.52306.3779,15.41168-3.4891,22.04552-2.00691,3.44286-4.7059,6.30823-7.72201,8.87779ZM23.86661,58.42048c.12251-.11972-.79482-1.0753-.93504-1.19758-2.66122-2.32078-6.46508-1.00645-8.85208,1.04067-3.55605,3.04969-5.95929,8.63673-4.52726,13.26824.81377,2.63191,3.15894,4.42632,5.98527,3.84924l-1.40597-1.24614c-5.44477-6.69121,1.319-17.63103,9.73508-15.71443ZM11.26915,57.27678c-6.56885-.16745-10.39545,8.48292-4.73606,12.58997-.01076-.93992-.04521-1.89016.06471-2.84789.48288-4.2073,2.08945-6.26747,4.51635-9.42978.08008-.10434.20201-.13188.15501-.3123ZM71.55075,73.40631c-1.74592-.16233-3.50878-.16605-5.25707-.3138-11.57061-.97788-25.14101-4.43716-35.83356-8.93014-4.46752-1.87724-8.80553-5.73213-13.20886-1.37592-2.971,2.9392-3.82873,9.7313.99672,11.08431,1.85013.51876,4.65895.65947,6.6797,1.02409,14.50996,2.61813,28.71566,7.55708,42.40508,12.87198.12568.00117-.24773-1.71493-.26282-1.92259-.3437-4.72937,1.42423-8.93933,4.48081-12.43792ZM74.10153,91.30329c.58775.07919,1.3199-.05788,1.92608,0-5.92022-4.50244-3.42518-13.76567,2.91857-16.48982,1.65935-.71256,3.65883-1.06212,5.40941-.47172-.64671-1.47889-2.51302-2.44961-4.10598-2.50183-7.28518-.23883-13.73776,11.92575-9.11301,17.64009.6295.77781,1.96475,1.68854,2.96493,1.82329ZM82.04483,76.55875c-4.89153.34174-8.78975,7.2593-5.79109,11.34474,4.23274,5.76678,13.2657-1.55164,10.65172-8.25284-.79492-2.03786-2.65617-3.24592-4.86063-3.09191Z"/><path class="cls-2" d="M82.04483,76.55875c2.20446-.15401,4.06572,1.05405,4.86063,3.09191,2.61398,6.7012-6.41898,14.01961-10.65172,8.25284-2.99866-4.08544.89955-11.003,5.79109-11.34474ZM67.23115,70.69872c2.16083.1677,5.17733.41203,7.29188.21419.52473-.0491.55226-.24346.94456-.40869,2.1125-.88974,4.09149-1.46866,6.41894-.96374,7.51709-6.54614,11.35479-16.53404,9.10091-26.43584-.07002-.3076-.33146-1.65542-.55717-1.7324-.40552-.1383-1.05212-.15236-1.54879-.32506-.74353-.25854-1.55979-.77324-2.17924-1.25582-1.06963-.83328-1.14174-.93618-2.45306-1.50243-11.07271-4.78132-24.08185-8.97166-35.8302-11.74308-3.29074-.77628-6.62741-1.51142-9.97592-1.94287.68789,1.63781,1.13223,3.4298,1.42477,5.1826,1.25557,7.52306.3779,15.41168-3.4891,22.04552-2.00691,3.44286-4.7059,6.30823-7.72201,8.87779,12.27092,4.98819,25.26632,8.95701,38.57445,9.98982ZM83.93955,35.42353c-14.58298-5.68458-29.54153-10.70472-45.04539-13.30164-2.75515-.46149-5.49775-.12523-6.96261-3.03061-2.54847-5.05463,2.88924-12.4785,8.48773-10.35636,3.0486,1.15559,6.05103,2.90231,9.21399,4.11026,11.20079,4.27765,24.21475,7.49147,36.22867,8.11901.32908.01719,2.24119-.1148,2.24062.1518-3.50916,3.74131-5.43446,9.21453-4.16302,14.30754ZM71.55075,73.40631c-3.05658,3.49858-4.82451,7.70855-4.48081,12.43792.01509.20766.3885,1.92376.26282,1.92259-13.68942-5.3149-27.89512-10.25385-42.40508-12.87198-2.02075-.36462-4.82957-.50533-6.6797-1.02409-4.82545-1.35301-3.96771-8.14511-.99672-11.08431,4.40333-4.35621,8.74134-.50132,13.20886,1.37592,10.69255,4.49298,24.26295,7.95226,35.83356,8.93014,1.74829.14776,3.51116.15147,5.25707.3138ZM92.72424,35.43741c2.83166,4.41258,8.7888,1.41181,10.4955-2.54408,1.60353-3.71675.21136-8.84652-4.51414-8.6796-4.97206.17563-8.71976,6.95642-5.98136,11.22367Z"/><path class="cls-1" d="M40.42105,6.07861c-3.63541-.89683-7.33175.86114-9.51717,3.75605-3.01715,3.99665-3.18306,9.97906,1.08207,13.15438.00515.36697-1.86452.05454-2.16583-.01842-2.44519-.59214-3.72458-2.84968-4.06474-5.19856-.73648-5.08555,2.67043-11.43245,7.41186-13.47958,2.61511-1.12908,5.74019-.86722,7.25381,1.78613ZM76.02761,91.30329c-5.92022-4.50244-3.42518-13.76567,2.91857-16.48982,1.65935-.71256,3.65883-1.06212,5.40941-.47172-.64671-1.47889-2.51302-2.44961-4.10598-2.50183-7.28518-.23883-13.73776,11.92575-9.11301,17.64009.6295.77781,1.96475,1.68854,2.96493,1.82329.58775.07919,1.3199-.05788,1.92608,0ZM92.58149,38.96198c-6.66496-5.00967-2.71902-15.78957,4.97354-17.14143,1.18957-.20905,2.17867-.10533,3.35545.07481-3.09735-4.4549-8.4306-1.94115-11.29767,1.35234-2.78185,3.19561-4.62868,8.7549-2.67165,12.76686.63627,1.30437,2.23854,2.748,3.71425,2.94741.58744.07938,1.3201-.05802,1.92608,0ZM22.93157,57.2229c-2.66122-2.32078-6.46508-1.00645-8.85208,1.04067-3.55605,3.04969-5.95929,8.63673-4.52726,13.26824.81377,2.63191,3.15894,4.42632,5.98527,3.84924l-1.40597-1.24614c-5.44477-6.69121,1.319-17.63103,9.73508-15.71443.12251-.11972-.79482-1.0753-.93504-1.19758ZM23.08696,17.52544c-.36791-4.68874,1.60099-9.19828,4.73656-12.58948-6.60428-.21767-10.446,8.52758-4.73656,12.58948ZM6.53309,69.86675c-.01076-.93992-.04521-1.89016.06471-2.84789.48288-4.2073,2.08945-6.26747,4.51635-9.42978.08008-.10434.20201-.13188.15501-.3123-6.56885-.16745-10.39545,8.48292-4.73606,12.58997Z"/></g></svg>