<svg xmlns="http://www.w3.org/2000/svg" xml:space="preserve" width="138.807" height="150"><path fill="#fff" d="M45 0h48.805l11.882 19.808 33.12 15.858-4.728 30.949v25.971L69.402 150 4.726 92.586V66.615L0 35.666l33.116-15.858z"/><path d="M48.506 6.193h41.793l11.039 18.396 30.652 14.679-4.105 26.877v23.657L69.402 141.72 10.919 89.802V66.145L6.814 39.268l30.653-14.679z"/><path fill="#fff" d="M96.499 29.902 86.4 13.073H52.403L42.305 29.902l-27.92 13.369 3.414 22.352v21.089l51.604 45.81 51.603-45.81V65.623l3.414-22.352zM54.35 16.513h30.104l8.681 14.465-23.729 31.97-23.72-31.989Zm16.774 51.865 45.003 18.063-45.005 39.953Zm-3.441 58.016L22.678 86.441l45.006-18.063ZM43.148 33.312l23.545 31.757-45.455 18.243v-17.95l-3.068-20.09zm74.416 32.05V83.31l-45.45-18.241 23.563-31.746 24.957 11.949z"/><path fill="#fff" d="M69.402 44.278c-5.209 0-9.446-4.237-9.446-9.446 0-5.207 4.237-9.444 9.446-9.444s9.445 4.237 9.445 9.444c.003 5.209-4.236 9.446-9.445 9.446M37.58 67.328c-5.208 0-9.445-4.236-9.445-9.445s4.237-9.445 9.445-9.445 9.445 4.236 9.445 9.445c0 5.206-4.236 9.445-9.445 9.445M51.685 101.902c-5.209 0-9.447-4.236-9.447-9.445s4.238-9.447 9.447-9.447c5.207 0 9.444 4.238 9.444 9.447.002 5.209-4.235 9.445-9.444 9.445M101.225 67.328c-5.209 0-9.444-4.236-9.444-9.445s4.235-9.445 9.444-9.445 9.446 4.236 9.446 9.445c0 5.206-4.238 9.445-9.446 9.445M87.119 101.902c-5.209 0-9.445-4.236-9.445-9.445s4.236-9.447 9.445-9.447 9.447 4.238 9.447 9.447-4.238 9.445-9.447 9.445"/></svg>