<svg xmlns="http://www.w3.org/2000/svg" xml:space="preserve" width="138.804" height="150"><g transform="translate(-5.513 -2.643)"><path d="M50.513 2.643h48.804l11.884 19.808 33.116 15.858-4.725 30.949v25.971l-64.677 57.414-64.677-57.414V69.258L5.513 38.309l33.116-15.858z"/><linearGradient id="a" x1="12.327" x2="137.503" y1="76.6" y2="76.6" gradientUnits="userSpaceOnUse"><stop offset="0" style="stop-color:#bb2c26"/><stop offset=".041" style="stop-color:#bf3526"/><stop offset=".109" style="stop-color:#cb4d25"/><stop offset=".194" style="stop-color:#de7523"/><stop offset=".2" style="stop-color:#e07823"/><stop offset=".208" style="stop-color:#e17a23"/><stop offset=".292" style="stop-color:#ee8b1f"/><stop offset=".385" style="stop-color:#f5951e"/><stop offset=".5" style="stop-color:#f7981d"/><stop offset=".615" style="stop-color:#f5951e"/><stop offset=".708" style="stop-color:#ee8b1f"/><stop offset=".792" style="stop-color:#e17a23"/><stop offset=".8" style="stop-color:#e07823"/><stop offset=".848" style="stop-color:#d35d24"/><stop offset=".907" style="stop-color:#c64225"/><stop offset=".96" style="stop-color:#be3226"/><stop offset="1" style="stop-color:#bb2c26"/></linearGradient><path fill="url(#a)" d="M54.02 8.836h41.791l11.04 18.396 30.652 14.679-4.105 26.877v23.658l-58.483 51.917-58.483-51.917V68.788l-4.105-26.877 30.652-14.679z" style="fill:url(#a)"/><path d="M102.012 32.545 91.914 15.716H57.916L47.818 32.545l-27.92 13.369 3.414 22.351v21.09l51.603 45.809 51.603-45.809v-21.09l3.414-22.351zm-42.15-13.389h30.104l8.681 14.465-23.73 31.97-23.72-31.99zm16.775 51.865 45.003 18.063-45.005 39.953Zm-3.442 58.016L28.19 89.084l45.005-18.063ZM48.66 35.955l23.546 31.757-45.454 18.243v-17.95l-3.068-20.09zm74.418 32.05v17.948L77.627 67.712l23.564-31.746 24.955 11.949Z"/><path d="M74.915 48.742c-6.213 0-11.267-5.055-11.267-11.268 0-6.212 5.054-11.266 11.267-11.266s11.267 5.054 11.267 11.266c0 6.214-5.054 11.268-11.267 11.268"/><path fill="#fff" d="M74.915 45.302c-4.315 0-7.827-3.512-7.827-7.827s3.512-7.825 7.827-7.825 7.827 3.511 7.827 7.825c0 4.315-3.512 7.827-7.827 7.827"/><path d="M43.093 71.791c-6.213 0-11.266-5.054-11.266-11.266 0-6.213 5.053-11.268 11.266-11.268S54.36 54.312 54.36 60.525c-.001 6.212-5.054 11.266-11.267 11.266"/><path fill="#fff" d="M43.093 68.351c-4.315 0-7.827-3.511-7.827-7.825 0-4.315 3.512-7.827 7.827-7.827s7.827 3.512 7.827 7.827-3.512 7.825-7.827 7.825"/><path d="M57.198 106.366c-6.214 0-11.267-5.055-11.267-11.268s5.053-11.267 11.267-11.267c6.212 0 11.267 5.054 11.267 11.267s-5.055 11.268-11.267 11.268"/><path fill="#fff" d="M57.198 102.926c-4.315 0-7.827-3.512-7.827-7.827s3.512-7.826 7.827-7.826 7.826 3.512 7.826 7.826c0 4.315-3.511 7.827-7.826 7.827"/><path d="M106.737 71.791c6.213 0 11.267-5.054 11.267-11.266 0-6.213-5.054-11.268-11.267-11.268S95.47 54.312 95.47 60.525c.001 6.212 5.054 11.266 11.267 11.266"/><path fill="#fff" d="M106.737 68.351c4.315 0 7.827-3.511 7.827-7.825 0-4.315-3.512-7.827-7.827-7.827s-7.827 3.512-7.827 7.827 3.512 7.825 7.827 7.825"/><path d="M92.632 106.366c6.214 0 11.267-5.055 11.267-11.268s-5.053-11.267-11.267-11.267c-6.212 0-11.267 5.054-11.267 11.267s5.055 11.268 11.267 11.268"/><path fill="#fff" d="M92.632 102.926c4.315 0 7.827-3.512 7.827-7.827s-3.512-7.826-7.827-7.826-7.826 3.512-7.826 7.826c0 4.315 3.511 7.827 7.826 7.827"/></g></svg>