<svg xmlns="http://www.w3.org/2000/svg" xml:space="preserve" width="138.806" height="150"><g transform="translate(-5.864 -2.643)"><path d="M50.865 2.643h48.804l11.885 19.808 33.116 15.858-4.726 30.949v25.971l-64.677 57.414-64.676-57.414V69.258L5.864 38.309l33.117-15.858z"/><linearGradient id="a" x1="12.679" x2="137.855" y1="76.6" y2="76.6" gradientUnits="userSpaceOnUse"><stop offset="0" style="stop-color:#626e77"/><stop offset=".042" style="stop-color:#697780"/><stop offset=".11" style="stop-color:#7d8e98"/><stop offset=".195" style="stop-color:#9eb4c0"/><stop offset=".2" style="stop-color:#a0b6c2"/><stop offset=".204" style="stop-color:#a1b7c3"/><stop offset=".29" style="stop-color:#adc6d4"/><stop offset=".383" style="stop-color:#b5cede"/><stop offset=".5" style="stop-color:#b7d1e1"/><stop offset=".617" style="stop-color:#b5cede"/><stop offset=".71" style="stop-color:#adc6d4"/><stop offset=".796" style="stop-color:#a1b7c3"/><stop offset=".8" style="stop-color:#a0b6c2"/><stop offset=".846" style="stop-color:#8b9da8"/><stop offset=".906" style="stop-color:#74838d"/><stop offset=".959" style="stop-color:#67747d"/><stop offset="1" style="stop-color:#626e77"/></linearGradient><path fill="url(#a)" d="M54.371 8.836h41.792l11.039 18.396 30.652 14.679-4.104 26.877v23.658l-58.483 51.917-58.483-51.917V68.788l-4.105-26.877 30.653-14.679z" style="fill:url(#a)"/><path d="M102.363 32.545 92.266 15.716H58.268L48.17 32.545 20.25 45.914l3.414 22.351v21.09l51.603 45.809 51.602-45.809v-21.09l3.414-22.351zM60.214 19.156h30.104l8.68 14.465-23.73 31.97-23.72-31.99zm16.774 51.865 45.003 18.063-45.005 39.953zm-3.441 58.016L28.542 89.084l45.005-18.063ZM49.013 35.955l23.545 31.757-45.454 18.243v-17.95l-3.068-20.09zm74.417 32.05v17.948L77.979 67.712l23.564-31.746 24.956 11.949Z"/><path d="M75.267 48.742c-6.213 0-11.266-5.055-11.266-11.268 0-6.212 5.053-11.266 11.266-11.266s11.266 5.054 11.266 11.266c0 6.214-5.053 11.268-11.266 11.268"/><path fill="#fff" d="M75.267 45.302c-4.315 0-7.827-3.512-7.827-7.827s3.512-7.825 7.827-7.825 7.827 3.511 7.827 7.825c0 4.315-3.512 7.827-7.827 7.827"/><path d="M43.445 71.791c-6.213 0-11.266-5.054-11.266-11.266 0-6.213 5.053-11.268 11.266-11.268s11.266 5.055 11.266 11.268c0 6.212-5.053 11.266-11.266 11.266"/><path fill="#fff" d="M43.445 68.351c-4.315 0-7.827-3.511-7.827-7.825 0-4.315 3.512-7.827 7.827-7.827s7.827 3.512 7.827 7.827c-.001 4.314-3.512 7.825-7.827 7.825"/><path d="M57.55 106.366c-6.213 0-11.267-5.055-11.267-11.268s5.054-11.267 11.267-11.267 11.266 5.054 11.266 11.267-5.054 11.268-11.266 11.268"/><path fill="#fff" d="M57.55 102.926c-4.316 0-7.828-3.512-7.828-7.827s3.512-7.826 7.828-7.826c4.314 0 7.826 3.512 7.826 7.826 0 4.315-3.511 7.827-7.826 7.827"/><path d="M107.09 71.791c6.213 0 11.266-5.054 11.266-11.266 0-6.213-5.053-11.268-11.266-11.268s-11.267 5.055-11.267 11.268c0 6.212 5.054 11.266 11.267 11.266"/><path fill="#fff" d="M107.09 68.351c4.314 0 7.826-3.511 7.826-7.825 0-4.315-3.512-7.827-7.826-7.827-4.315 0-7.827 3.512-7.827 7.827s3.511 7.825 7.827 7.825"/><path d="M92.984 106.366c6.213 0 11.267-5.055 11.267-11.268s-5.054-11.267-11.267-11.267-11.267 5.054-11.267 11.267 5.054 11.268 11.267 11.268"/><path fill="#fff" d="M92.984 102.926c4.315 0 7.827-3.512 7.827-7.827s-3.512-7.826-7.827-7.826-7.826 3.512-7.826 7.826c0 4.315 3.512 7.827 7.826 7.827"/></g></svg>