<svg xmlns="http://www.w3.org/2000/svg" xml:space="preserve" width="138.806" height="150"><path d="M4.727 92.587V66.616L0 35.666l33.117-15.857L45.001 0h48.804l11.885 19.809 33.116 15.857-4.726 30.949v25.972L69.403 150Zm64.676 49.134 58.483-51.917V66.146l4.104-26.877-30.652-14.679L90.299 6.193H48.507L37.468 24.59 6.815 39.269l4.104 26.877v23.658zm55.016-98.449-3.414 22.351v21.09l-51.602 45.809L17.8 86.712v-21.09l-3.414-22.35 27.92-13.37 10.098-16.828h33.998L96.5 29.902ZM45.684 30.959l23.72 31.99 23.73-31.97-8.68-14.464H54.35Zm25.438 95.436 45.005-39.953-45.003-18.063Zm-3.439-58.016L22.678 86.442l45.005 39.953ZM18.172 45.273l3.068 20.09v17.95L66.695 65.07 43.149 33.313Zm102.463 0L95.679 33.324 72.115 65.07l45.451 18.241V65.363Zm-51.232.827c-6.213 0-11.266-5.055-11.266-11.268 0-6.211 5.053-11.266 11.266-11.266s11.266 5.054 11.266 11.266c0 6.213-5.053 11.268-11.266 11.268m7.827-11.268c0-4.315-3.512-7.826-7.827-7.826s-7.827 3.511-7.827 7.826 3.512 7.827 7.827 7.827 7.827-3.511 7.827-7.827M37.581 69.149c-6.213 0-11.266-5.054-11.266-11.266 0-6.213 5.053-11.268 11.266-11.268s11.266 5.055 11.266 11.268c0 6.212-5.053 11.266-11.266 11.266m7.826-11.266c0-4.315-3.512-7.827-7.827-7.827s-7.827 3.512-7.827 7.827 3.512 7.825 7.827 7.825 7.827-3.51 7.827-7.825m17.545 34.573c0 6.213-5.054 11.268-11.266 11.268-6.213 0-11.267-5.055-11.267-11.268s5.054-11.267 11.267-11.267c6.212.001 11.266 5.054 11.266 11.267m-3.44 0c0-4.314-3.512-7.826-7.826-7.826-4.316 0-7.828 3.512-7.828 7.826 0 4.315 3.512 7.827 7.828 7.827 4.315 0 7.826-3.511 7.826-7.827m52.979-34.573c0 6.212-5.053 11.266-11.266 11.266s-11.267-5.054-11.267-11.266c0-6.213 5.054-11.268 11.267-11.268s11.266 5.055 11.266 11.268m-3.439 0c0-4.315-3.512-7.827-7.826-7.827-4.315 0-7.827 3.512-7.827 7.827s3.512 7.825 7.827 7.825 7.826-3.51 7.826-7.825M98.387 92.456c0 6.213-5.054 11.268-11.267 11.268s-11.267-5.055-11.267-11.268 5.054-11.267 11.267-11.267 11.267 5.054 11.267 11.267m-3.439 0c0-4.314-3.512-7.826-7.827-7.826s-7.826 3.512-7.826 7.826c0 4.315 3.512 7.827 7.826 7.827 4.315 0 7.827-3.511 7.827-7.827"/></svg>