<svg xmlns="http://www.w3.org/2000/svg" width="600" height="713.811"><path d="M283.852 630.543c-15.896 6.387-27.057 21.88-27.057 40.072 0 23.834 19.28 43.196 43.195 43.196 23.854 0 43.135-19.362 43.135-43.196 0-18.112-11.182-33.685-26.997-40.072v-38.944h12.592L600 0H0l267.734 591.599h16.118z"/><path d="M300.151 359.585s104.12-235.459 104.2-235.62c5.199-12.753 15.353-26.675 13.761-41.16-1.49-13.942-15.815-17.246-27.702-17.63v-9.831h123.562L312.118 498.096h-24.156L85.927 55.344H209.65v9.832c-8.502.242-22.04 1.41-26.13 10.235-5.742 12.108 6.447 36.828 11.262 48.554 0 .08 105.37 235.62 105.37 235.62" style="fill:#fff"/></svg>