<svg xmlns="http://www.w3.org/2000/svg" width="64.432" height="49.607"><path d="m0 0 .059 2.637c.018.804.133 2.008.974 3.133 1.581 2.37 3.22 4.052 3.856 5.728l.021.059.026.058c.703 1.608.804 3.664.763 5.97-.082 2.394-1.536 5.62-.82 9.675.625 3.55 3.015 5.988 5.082 7.808l.004.004.004.004c5.813 5.076 12.339 9.125 18.957 12.725l3.32 1.806 3.32-1.806c6.618-3.6 13.145-7.65 18.957-12.725l.006-.004.004-.004c2.067-1.82 4.457-4.257 5.082-7.808v-.004c.716-4.059-.743-7.286-.822-9.68-.04-2.303.062-4.355.764-5.96l.025-.06.023-.058c.637-1.679 2.276-3.363 3.858-5.736.836-1.123.95-2.323.969-3.125V.004L43.475.029l-6.391 4.494.5 1.76c.527 1.849.338 3.87-.61 5.256l-.02.031-.022.034c-.59.92-1.756 1.637-2.996 1.834-1.63.232-1.629.241-3.381 0-1.24-.197-2.403-.913-2.992-1.834l-.022-.034-.021-.03c-.948-1.388-1.14-3.41-.614-5.257l.502-1.76L21.018.03Z" style="fill:#fff"/><path d="M2.633 2.579c.014.583.103 1.174.463 1.653 1.396 2.118 3.287 3.945 4.2 6.352.972 2.224 1.021 4.686.978 7.07-.1 3.07-1.405 6.068-.86 9.157.457 2.597 2.328 4.634 4.249 6.326 5.604 4.893 11.965 8.85 18.494 12.402l-.004-29.557c-1.908-.302-3.715-1.358-4.76-2.99-1.474-2.159-1.664-4.955-.963-7.415l-4.228-2.975Zm59.225 0-17.566.023-4.23 2.975c.7 2.46.513 5.256-.962 7.414-1.044 1.633-2.854 2.689-4.761 2.99l-.002 29.558c6.529-3.552 12.89-7.51 18.494-12.402 1.92-1.692 3.792-3.729 4.248-6.326.545-3.089-.76-6.087-.86-9.157-.043-2.384.007-4.846.979-7.07C58.11 8.177 60 6.35 61.395 4.232c.36-.48.45-1.07.463-1.653"/></svg>