<svg xmlns="http://www.w3.org/2000/svg" xmlns:xlink="http://www.w3.org/1999/xlink" width="284.41" height="276.317"><defs><linearGradient id="a"><stop offset="0" style="stop-color:#7f6e41;stop-opacity:1"/><stop offset=".1" style="stop-color:#ae975f;stop-opacity:1"/><stop offset=".5" style="stop-color:#e3cd99;stop-opacity:1"/><stop offset=".9" style="stop-color:#ae975f;stop-opacity:1"/><stop offset="1" style="stop-color:#7f6e41;stop-opacity:1"/></linearGradient><linearGradient xlink:href="#a" id="b" x1="385.5" x2="581.604" y1="102.294" y2="273.932" gradientTransform="translate(-343.795 -40.746)" gradientUnits="userSpaceOnUse"/></defs><path d="M101.768 16.848c-17.049-11.11-39.81 2.597-51.313 17.438S34.073 70.776 2.518 73.442c6.539 20.02 21.406 25.312 21.406 25.312-.08 20.019-24.674 36.402-23.906 60.25.767 23.849 20.954 33.976 27 35.782-2.146-7.29.468-13.438.468-13.438 6.625 14.107 9.722 15.473 14.344 21.125s29.201 23.102 10.25 65.625c45.465-4.54 40.781-41.344 40.781-41.344s10.055 15.682-5.593 49.563c76.366-27.226 41.75-95.875 41.75-95.875l13.187-13.188 13.188 13.188s-34.617 68.649 41.75 95.875c-15.65-33.881-5.594-49.563-5.594-49.563s-4.684 36.804 40.781 41.344c-18.951-42.523 5.628-59.973 10.25-65.625s7.72-7.018 14.344-21.125c0 0 2.614 6.148.469 13.438 6.046-1.806 26.232-11.933 27-35.782.767-23.848-23.826-40.231-23.907-60.25 0 0 14.867-5.292 21.407-25.312-31.556-2.666-36.435-24.315-47.938-39.156s-34.264-28.548-51.312-17.438C176.699-.734 160.575.004 142.205.004s-34.494-.738-40.437 16.844" style="fill:#000;fill-opacity:1;stroke:none"/><path d="M133.268 12.442c-4.92.028-3.387 2.781-12.063 2.781s-10.642 4.36-12.375 14.375-5.416 23.89-5.969 29c-.552 5.111-7.306 13.083-3.343 18.75 3.962 5.668 9.742 6.686 11.625 3.875s10.012-10.487 15.687-6.312 3.85 6.933.469 19.25c-3.38 12.316-4.69 18.2-5.344 29.125s5.18 11.466 4.813 20.843c-.369 9.378-.952 11.174 4.28 10.407s4.83-21.094 11.157-21.094 5.924 20.327 11.156 21.094 4.65-1.03 4.282-10.407 5.466-9.918 4.812-20.843-1.963-16.809-5.344-29.125c-3.38-12.317-5.206-15.075.47-19.25 5.674-4.175 13.804 3.501 15.687 6.312s7.662 1.793 11.625-3.875c3.962-5.667-2.791-13.639-3.344-18.75-.553-5.11-4.236-18.985-5.969-29-1.733-10.014-3.7-14.375-12.375-14.375s-7.143-2.753-12.062-2.781c-4.92-.028-3.54 5.937-8.938 5.937s-4.018-5.965-8.937-5.937M88.486 25.567c-10.28-.149-26.581 17.91-35 29.875-8.418 11.964-10.794 17.676-15.593 20.656-4.8 2.98-9.533 2.117-9.625 7.313s8.452.587 10.218 7.875c1.766 7.287-7.336 31.132-13.75 42.156s-19.236 31.285-6.375 38.25c.22-3 1.17-9.213 6.375-9.281 5.206-.069 10.879 15.193 17.125 23.156s15.905 18.748 20.813 26.562c4.908 7.815 9.36 18.894 5.344 40.094 4.313-1.258 13.71-6.818 10.437-33.062-3.272-26.244-23.338-40.044-28.875-54.5s-6.198-22.997 1.938-20.563c1.08-10.655-3.9-4.146-2.313-24.531s13.052-35.07 18.031-42.688c4.98-7.617 20.727-17.26 26.063-24.25s5.468-26.913-4.813-27.062m107.438 0c-10.28.149-10.148 20.072-4.813 27.062 5.336 6.99 21.083 16.633 26.063 24.25s16.444 22.303 18.031 42.688-3.392 13.876-2.312 24.531c8.135-2.434 7.474 6.107 1.937 20.563-5.536 14.456-25.603 28.256-28.875 54.5s6.124 31.804 10.438 33.062c-4.016-21.2.435-32.28 5.343-40.094s14.566-18.599 20.813-26.562 11.92-23.225 17.125-23.156c5.205.068 6.155 6.281 6.375 9.28 12.861-6.964.039-27.225-6.375-38.25-6.414-11.023-15.516-34.868-13.75-42.155 1.766-7.288 10.311-2.68 10.219-7.875s-4.826-4.333-9.625-7.313-7.176-8.692-15.594-20.656c-8.419-11.964-24.72-30.024-35-29.875M88.393 80.536c-2.787 0-7.829 7.345-10.25 15.656s-4.738 22.89-.532 22.031 1.356-8.78 10.72-12.562c9.362-3.783 13.575-6.74 13.312-10s-4.255-4.922-6.782-7.344-3.682-7.781-6.468-7.781m107.625 0c-2.787 0-3.942 5.36-6.47 7.78-2.526 2.423-6.518 4.085-6.78 7.345s3.95 6.217 13.312 10c9.363 3.783 6.512 11.703 10.719 12.562s1.89-13.72-.531-22.031c-2.422-8.311-7.464-15.656-10.25-15.656m-80.22 9.156c-3.647.629-6.88 12.325-13.78 19.531-7.123 7.439-5.27 4.156-16.313 15.531s-9.972 22.386-10 29.72 4.006 38.151 6.688 40.78c2.681 2.63 13.104 9.337 19.28 18.094s10.114 20.756 4.75 39.813c21.555-12.41 16.86-47.83 12.938-63.47-19.869 8.798-28.423-20.401-10.375-15.28 1.475-6.68-12.586-12.771-11.718-25.125.867-12.354 11.466-17.142 14.875-17.188-.62-6.576 2.834-24.255 5.343-31.031s2.454-11.27-1.343-11.375c-.12-.003-.226-.02-.344 0m52.47 0c-3.797.105-3.854 4.599-1.344 11.375s5.962 24.455 5.344 31.031c3.409.046 14.007 4.834 14.875 17.188.867 12.354-13.193 18.444-11.72 25.125 18.05-5.121 9.495 24.078-10.374 15.28-3.921 15.64-8.616 51.06 12.937 63.47-5.363-19.057-1.426-31.056 4.75-39.813s16.6-15.464 19.282-18.094c2.681-2.629 6.715-33.447 6.687-40.78-.028-7.334 1.042-18.344-10-29.72s-9.19-8.092-16.312-15.53c-6.9-7.207-10.134-18.903-13.782-19.532-.117-.02-.225-.003-.343 0" style="fill:url(#b);fill-opacity:1;stroke:none"/></svg>