<svg xmlns="http://www.w3.org/2000/svg" width="550.121" height="385.023"><path d="M217.434 0c-10.204 14.064-18.788 30.198-25.965 46.234-11.584 23.189-22.504 51.39-27.746 82.47l-1.244 7.37 84.873 13.951 27.709-96.982 27.709 96.982 84.873-13.95-1.245-7.372c-5.242-31.078-16.162-59.28-27.746-82.469-7.177-16.036-15.761-32.17-25.964-46.234 54.485 16.147 85.763 43.985 102.923 65.322 13.304 16.918 18.16 29.43 18.16 29.43l2.108 5.377 5.734-.705s16.032-1.973 36.653-2.334c16.61-.29 36.118.657 51.855 4.142-23.466 16.435-44.427 39.228-67.05 69.768l-.012.018c-10.895 14.232-21.108 29.206-31.375 45.146-22.188 33.454-48.583 75.434-79.563 123.606l16.102-158.325-72.047 55.899-41.115 147.68-41.116-147.68-72.047-55.899 16.125 158.56c-.21-.327-.442-.682-.652-1.009-31.385-48.787-56.732-89.374-79.127-123.127l-.055-.082c-10.197-15.818-20.342-30.701-31.17-44.84C44.407 140.425 23.456 117.657 0 101.232c15.737-3.485 35.246-4.433 51.855-4.142 20.622.36 36.653 2.334 36.653 2.334l5.734.705 2.108-5.377s4.856-12.512 18.16-29.43C131.67 43.985 162.948 16.147 217.434 0"/></svg>