<?xml version="1.0" encoding="UTF-8" standalone="no"?>
<svg
   version="1.1"
   width="600"
   height="609.35358"
   id="svg9"
   xmlns:xlink="http://www.w3.org/1999/xlink"
   xmlns="http://www.w3.org/2000/svg"
   xmlns:svg="http://www.w3.org/2000/svg">
  <defs
     id="defs9" />
  <radialGradient
     cx="0"
     cy="0"
     r="1"
     fx="0"
     fy="0"
     id="radialGradient664"
     gradientUnits="userSpaceOnUse"
     gradientTransform="matrix(10.959595,0,0,-10.959595,483.04102,253.63086)"
     spreadMethod="pad">
    <stop
       style="stop-color:#ebd491"
       offset="0"
       id="stop1" />
    <stop
       style="stop-color:#d2bb7b"
       offset="0.7"
       id="stop2" />
    <stop
       style="stop-color:#8b723c"
       offset="1"
       id="stop3" />
  </radialGradient>
  <radialGradient
     cx="0"
     cy="0"
     r="1"
     fx="0"
     fy="0"
     id="radialGradient652"
     gradientUnits="userSpaceOnUse"
     gradientTransform="matrix(17.761887,0,0,-17.761887,483,259.30273)"
     spreadMethod="pad">
    <stop
       style="stop-color:#ebd491"
       offset="0"
       id="stop4" />
    <stop
       style="stop-color:#d2bb7b"
       offset="0.7"
       id="stop5" />
    <stop
       style="stop-color:#8b723c"
       offset="1"
       id="stop6" />
  </radialGradient>
  <radialGradient
     cx="0"
     cy="0"
     r="1"
     fx="0"
     fy="0"
     id="radialGradient3003"
     xlink:href="#radialGradient664"
     gradientUnits="userSpaceOnUse"
     gradientTransform="matrix(10.959595,0,0,-10.959595,483.04102,253.63086)"
     spreadMethod="pad" />
  <radialGradient
     cx="0"
     cy="0"
     r="1"
     fx="0"
     fy="0"
     id="radialGradient3006"
     xlink:href="#radialGradient664"
     gradientUnits="userSpaceOnUse"
     gradientTransform="matrix(166.95671,0,0,166.95671,300.59442,391.05479)"
     spreadMethod="pad" />
  <radialGradient
     cx="0"
     cy="0"
     r="1"
     fx="0"
     fy="0"
     id="radialGradient3008"
     xlink:href="#radialGradient652"
     gradientUnits="userSpaceOnUse"
     gradientTransform="matrix(17.761887,0,0,-17.761887,483,259.30273)"
     spreadMethod="pad" />
  <radialGradient
     cx="0"
     cy="0"
     r="1"
     fx="0"
     fy="0"
     id="radialGradient3011"
     xlink:href="#radialGradient652"
     gradientUnits="userSpaceOnUse"
     gradientTransform="matrix(270.58174,0,0,270.58174,299.96953,304.65044)"
     spreadMethod="pad" />
  <path
     d="M 600,609.35358 V 307.00757 C 600,116.93495 460.82364,36.11944 454.92815,32.79846 c 0,0 -8.21104,-4.58539 -15.23384,-8.57665 C 442.66491,15.82796 448.19479,0 448.19479,0 H 151.4396 c 0,0 5.71269,15.70609 8.80516,24.28274 -7.0228,3.93033 -15.11197,8.51572 -15.11197,8.51572 C 139.17636,36.11944 0,116.93495 0,307.00757 v 302.28507 l 600,0.0609 z"
     style="fill:#ffffff"
     id="path6" />
  <path
     d="M 455.87265,585.9087 H 576.55512 V 345.03123 H 455.87265 Z M 23.383944,585.8478 H 144.06642 V 345.03126 H 23.383944 Z M 455.93358,307.05331 h 120.62154 c 0,-178.69294 -133.17422,-253.9024 -133.17422,-253.9024 l -42.30438,112.88274 c 0,0 54.85706,42.24345 54.85706,141.01966 M 198.92348,166.03362 156.6191,53.15087 c 0,0 -133.174221,75.20946 -133.174221,253.9024 H 144.06642 c 0,-98.77621 54.85706,-141.01965 54.85706,-141.01965 M 184.81694,23.38395 h 230.35089 l -50.1498,142.64967 H 236.53582 Z"
     style="fill:#8b723c"
     id="path7" />
  <path
     d="m 196.7298,31.77779 45.70152,125.86198 H 359.12253 L 403.39207,31.77779 Z m 214.21825,131.75748 c 13.51242,12.73549 50.75916,55.03986 53.19657,135.07845 v 0 H 568.11557 C 564.71843,158.47763 475.57,85.40091 447.60067,65.87112 v 0 z M 31.884426,298.61372 H 135.85538 c 2.43741,-80.03859 39.68415,-122.34296 53.19657,-135.07845 v 0 L 152.44503,65.87112 C 124.4757,85.40091 35.342507,158.47763 31.884426,298.61372 M 31.777789,577.51486 H 135.67257 V 353.40984 H 31.777789 Z m 432.488701,0 H 568.22221 V 353.40984 H 464.26649 Z"
     style="fill:url(#radialGradient3011)"
     id="path8" />
  <path
     d="m 290.44838,196.19662 0.12187,105.32677 H 233.56523 V 196.37943 h -18.15874 v 105.14396 h -48.19987 v 13.51241 h 48.19987 v 122.81522 h -48.19987 v 12.91829 h 48.19987 v 135.07846 h 18.15874 V 450.76931 h 57.00502 v 135.07846 h 18.20444 V 450.76931 h 57.00503 v 135.07846 h 16.48301 V 450.76931 h 51.71889 V 437.85102 H 382.26273 V 315.0358 h 51.71889 V 301.52339 H 382.26273 V 196.37943 H 365.77972 V 301.52339 H 308.77469 V 196.19662 Z m 18.32631,118.83918 h 57.00503 v 122.81522 h -57.00503 z m -75.20946,0 h 57.00502 v 122.81522 h -57.00502 z"
     style="fill:url(#radialGradient3006)"
     id="path9" />
</svg>
