<svg xmlns="http://www.w3.org/2000/svg" width="600" height="832.628"><radialGradient id="a" cx="0" cy="0" r="1" fx="0" fy="0" gradientTransform="matrix(13.28235 0 0 -13.28235 135.126 487.847)" gradientUnits="userSpaceOnUse" spreadMethod="pad"><stop offset="0" style="stop-color:#d9eaf3"/><stop offset=".663" style="stop-color:#99aebc"/><stop offset="1" style="stop-color:#536e78"/></radialGradient><path d="M600 327.285c0-76.83-38.3-157.346-78.954-197.999-55.287-55.37-115.298-72.688-117.817-73.417l-22.606-6.432C363.783 22.377 334.683 0 299.88 0c-34.72 0-63.738 22.377-80.578 49.437l-22.605 6.432c-2.52.728-62.448 18.048-117.817 73.417-40.737 40.737-79.516 121.231-78.871 198 0 76.435 45.94 129.203 45.94 129.203l25.125-39.592 24.562 6.245c54.059 13.842 123.833 161.176 156.18 261.424l7.411 23.022 39.841 125.04 41.632-125.04 7.473-23.022c32.285-100.248 102.142-247.582 156.117-261.424l24.563-6.245 25.54 40.154S600 404.199 600 327.285" style="fill:#fff"/><path d="M299.88 181.242h-1.791c-13.822-.896-23.418-12.198-23.418-34.72 0-23.48 24.313-55.682 24.313-55.682s24.396 32.202 24.396 55.682c0 22.522-9.68 33.825-23.5 34.72m74.165-39.112c-1.79-17.381-2.602-34.783-10.49-59.096-7.807-24.396-32.536-53.101-63.676-53.101-31.307 0-55.703 28.705-63.509 53.1-7.806 24.314-8.7 41.716-10.408 59.097-1.79 17.402-12.114 94.815 74 94.815s75.79-77.413 74.083-94.815m21.128-57.556c5.204 19.359 6.828 34.97 8.14 48.792l.645 7.057c1.624 15.383 6.516 62.135-23.417 95.377-14.883 16.507-35.45 26.187-60.907 29.517v52.123c186.363 0 233.053 81.16 233.053 81.16 43.9-79.037-2.207-197.666-52.706-248.165-50.561-50.499-104.807-65.86-104.807-65.86m101.81 309.633C402.5 418.354 319.717 675.387 319.717 675.387V347.04c130.015 0 177.267 47.168 177.267 47.168M100.028 150.435C49.446 200.935 3.34 319.563 47.24 398.6c0 0 46.69-81.16 233.136-81.16v-52.123c-25.458-3.33-46.107-13.01-60.99-29.517-29.933-33.242-24.958-79.994-23.418-95.377l.728-7.057c1.229-13.821 2.935-29.433 8.139-48.792 0 0-54.33 15.362-104.808 65.861M280.208 347.04v328.347s-82.784-257.033-177.183-281.18c0 0 47.252-47.167 177.183-47.167" style="fill:#536e78"/><path d="M132.496 499.598c-.312-.985-.383-1.731-.449-2.446l-.035-.379c-.063-.585-.223-2.148.648-3.117.524-.578 1.352-.867 2.469-.867 1.113 0 1.941.289 2.465.867.875.977.711 2.535.64 3.192l-.027.304c-.066.715-.137 1.461-.453 2.446-.301.929-1.316 2.238-2.633 2.238-1.234 0-2.273-1.156-2.625-2.238m2.508-5.032c-.746.051-1.547.633-1.547 2.118 0 1.246 1.137 2.777 1.266 2.949l.355.472.36-.472c.128-.172 1.261-1.703 1.261-2.949 0-1.262-.578-2.055-1.551-2.118h-.113zm5.531 2.797.035-.355c.082-.789.325-3.18-1.238-4.914-.699-.778-1.644-1.282-2.812-1.5v-1.676c6.691-.098 9.613-2.363 10.652-3.496 1.437 3.543-.535 8.535-2.758 10.758a13.1 13.1 0 0 1-4.09 2.769c.117-.601.172-1.125.211-1.586m-14.699-1.183c-2.223-2.223-4.195-7.215-2.758-10.758 1.043 1.133 3.961 3.398 10.656 3.496v1.676c-1.172.218-2.117.722-2.816 1.5-1.563 1.734-1.316 4.125-1.238 4.929l.035.336c.043.481.097.996.211 1.586a13 13 0 0 1-4.09-2.765m10.687-22.321c1.329 3.434 4.016 9.426 7.141 11.047-.976.602-3.195 1.621-7.141 1.692zm-9.933 11.047c3.125-1.621 5.808-7.613 7.137-11.047v12.739c-3.942-.071-6.165-1.09-7.137-1.692" style="fill:url(#a)" transform="matrix(20.81571 0 0 -20.81571 -2512.76 10485.352)"/></svg>