<svg xmlns="http://www.w3.org/2000/svg" width="540.618" height="645.454"><path d="M270.224 151.31h-1.79c-13.822-.897-23.418-12.199-23.418-34.721 0-23.48 24.313-55.682 24.313-55.682s24.396 32.202 24.396 55.682c0 22.522-9.68 33.825-23.5 34.72m74.165-39.112C342.6 94.816 341.79 77.414 333.9 53.1 326.092 28.705 301.363 0 270.223 0c-31.307 0-55.703 28.705-63.509 53.1-7.806 24.314-8.7 41.716-10.407 59.097-1.79 17.402-12.115 94.815 74 94.815s75.79-77.413 74.083-94.815m21.127-57.556c5.204 19.359 6.828 34.97 8.14 48.792l.646 7.057c1.623 15.383 6.515 62.135-23.418 95.377-14.883 16.507-35.45 26.187-60.907 29.517v52.123c186.363 0 233.053 81.16 233.053 81.16 43.9-79.037-2.207-197.666-52.706-248.165-50.561-50.499-104.807-65.86-104.807-65.86m101.81 309.633c-94.483 24.146-177.267 281.179-177.267 281.179V317.107c130.015 0 177.267 47.168 177.267 47.168M70.373 120.502c-50.582 50.5-96.689 169.128-52.788 248.165 0 0 46.69-81.16 233.136-81.16v-52.123c-25.458-3.33-46.107-13.01-60.99-29.517-29.933-33.242-24.958-79.994-23.418-95.377l.728-7.057c1.229-13.821 2.935-29.433 8.139-48.792 0 0-54.33 15.362-104.808 65.861m180.181 196.605v328.347S167.77 388.42 73.37 364.274c0 0 47.252-47.167 177.183-47.167"/></svg>