<?xml version="1.0" encoding="UTF-8" standalone="no"?>
<svg
   version="1.1"
   id="Layer_1"
   x="0px"
   y="0px"
   width="442.78"
   height="417.17999"
   viewBox="0 0 442.77999 417.17999"
   xmlns="http://www.w3.org/2000/svg"
   xmlns:svg="http://www.w3.org/2000/svg">
  <defs
     id="defs24" />
  <path
     d="M 74.07,0 58.37,21.32 55.84,55.48 81.7,101.36 13.13,163.91 0,236.8 74.97,199.17 144.44,79.17 77.63,50.34 Z m 294.64,0 -3.56,50.34 -66.81,28.82 69.47,120 74.97,37.63 -13.13,-72.89 -68.57,-62.55 25.86,-45.88 -2.52,-34.16 z m -147.32,44.48 -66.24,114.43 66.24,-33.26 66.24,33.26 z m 0,136.25 -85.09,42.71 85.09,193.74 85.09,-193.74 z M 92.24,245.58 16.37,283.67 166.62,414.92 Z m 258.3,0 -74.38,169.34 150.25,-131.25 z"
     id="path4"
     style="stroke-width:10" />
</svg>
