<svg xmlns="http://www.w3.org/2000/svg" width="374.934" height="312.012" viewBox="408 0 374.934 312.012"><g transform="translate(-5.857 -7.336)"><linearGradient id="a" x1="521.235" x2="719.742" y1="290.955" y2="117.821" gradientUnits="userSpaceOnUse"><stop offset=".2" style="stop-color:#536e78"/><stop offset=".5" style="stop-color:#d9eaf3"/><stop offset=".8" style="stop-color:#536e78"/></linearGradient><path fill="url(#a)" stroke="#000" stroke-miterlimit="10" stroke-width="7" d="m417.357 127.809 45.355 115.427h21.094l14.596-20.853-5.115-7.646c-9.088-13.588-16.008-29.989-19.627-46.518-2.533-11.568-3.002-34.531-.961-46.958 8.574-52.161 46.354-93.541 97.172-106.432C630.691-.6 693.911 29.732 720.389 87.044c8.543 18.492 12.316 37.675 11.576 58.839-.926 26.409-7.266 46.425-21.639 68.313l-5.95 8.175 16.469 20.864h21.32l43.12-115.333s.012 185.344 0 186.5c-.631-.179-147.711-51.462-147.711-51.462l-19.818-143.164 49.457 57.137c1.723-1.064 6.92-17.417 8.1-25.481 3.713-25.393-7.611-52.938-28.178-68.52-42.277-32.037-102.381-12.003-117.058 39.018-1.836 6.381-2.278 10.33-2.239 19.955.053 12.602 1.255 18.854 5.754 29.901l2.403 5.899 48.872-58.149-20.407 143.025-147.101 51.842z" style="fill:url(#a)"/></g></svg>