<svg xmlns="http://www.w3.org/2000/svg" width="367.933" height="303.57"><path d="m0 116.977 45.356 115.427H66.45l14.595-20.853-5.115-7.646c-9.088-13.588-16.008-29.99-19.627-46.518-2.533-11.568-3.002-34.531-.961-46.958 8.574-52.161 46.354-93.541 97.172-106.432 60.82-15.43 124.04 14.903 150.518 72.215 8.543 18.492 12.316 37.675 11.576 58.839-.926 26.409-7.266 46.425-21.639 68.313l-5.95 8.175 16.469 20.864h21.32l43.12-115.333s.012 185.344 0 186.5c-.631-.18-147.711-51.462-147.711-51.462l-19.818-143.164 49.457 57.137c1.723-1.064 6.92-17.417 8.1-25.481 3.713-25.393-7.611-52.938-28.178-68.52-42.277-32.037-102.381-12.003-117.058 39.018-1.836 6.38-2.278 10.33-2.239 19.955.052 12.602 1.255 18.854 5.754 29.9l2.403 5.9 48.872-58.15-20.407 143.026L.002 303.57z"/></svg>