<?xml version="1.0" encoding="UTF-8" standalone="no"?>
<svg
   version="1.1"
   id="Layer_1"
   x="0px"
   y="0px"
   width="604.98999"
   height="437.82999"
   viewBox="0 0 604.98998 437.82999"
   xmlns="http://www.w3.org/2000/svg"
   xmlns:svg="http://www.w3.org/2000/svg">
  <defs
     id="defs26" />
  <path
     d="m 441.05,283.06 c 2.37,0 4.79,0 7.28,0.2 16.2,1 28.01,1.53 38.97,1.53 12.42,0 23.76,-0.7 39.16,-2.52 -7.34,-10.59 -12.64,-17.18 -22.93,-25.66 36.2,-3.81 56.09,-10.06 83.87,-24.6 -13.46,-8.51 -21.7,-14.24 -39.26,-20.81 23.54,-12.58 42.66,-25.14 56.85,-39.19 -15.64,-7.66 -30.28,-10.96 -48.37,-15.23 21.04,-20.52 36.98,-43.89 48.37,-78.02 -64.61,7.13 -91.72,29.93 -113.03,30.28 -18.08,0 -35.95,-28.18 -51.62,-44.74 C 394.07,15.45 343.99,0 302.5,0 261,0 210.92,15.45 164.65,64.32 148.99,80.87 131.11,109.06 113.03,109.06 91.72,108.66 64.61,85.91 0,78.78 c 11.4,34.13 27.34,57.5 48.37,78.02 -18.08,4.28 -32.72,7.58 -48.37,15.23 14.19,14.05 33.3,26.61 56.86,39.19 -17.57,6.57 -25.81,12.3 -39.27,20.81 27.78,14.54 47.67,20.79 83.87,24.6 -10.29,8.49 -15.59,15.08 -22.93,25.66 15.4,1.77 26.74,2.52 39.16,2.52 10.97,0 22.78,-0.6 38.97,-1.53 2.48,-0.2 4.9,-0.2 7.29,-0.2 46.59,0 72.95,27.87 61.59,75.09 l 48.69,79.66 V 252.14 C 192.42,240.41 162.09,178.55 162.09,144.83 c 0,-4.6 0.4,-9.13 1.07,-13.58 14.31,-16.6 37.11,-30.3 65.11,-39.15 -4.97,10.15 -7.76,21.47 -7.76,33.44 0,43.44 36.71,78.64 81.99,78.64 45.27,0 81.98,-35.21 81.98,-78.64 0,-11.96 -2.79,-23.29 -7.76,-33.44 27.99,8.85 50.8,22.55 65.11,39.15 0.7,4.45 1.07,8.98 1.07,13.58 0,33.72 -30.33,95.59 -112.14,107.31 V 437.8 l 48.69,-79.66 c -11.35,-47.21 15.01,-75.08 61.6,-75.08 z"
     id="path4"
     style="stroke-width:10" />
</svg>
