<?xml version="1.0" encoding="UTF-8" standalone="no"?>
<svg
   x="0px"
   y="0px"
   width="120.03054"
   height="120.03587"
   viewBox="0 0 120.03054 120.03587"
   version="1.1"
   id="svg4"
   xmlns="http://www.w3.org/2000/svg"
   xmlns:svg="http://www.w3.org/2000/svg">
  <defs
     id="defs4" />
  <path
     d="m 12.100542,23.187372 c 2.45,-10.629 11.019,-19.1190002 21.11,-22.77900015 2.67,-0.971 5.45,0.05 8.13,0.391 -1.75,3.04899995 -3.62,6.03899995 -5.81,8.77899995 -4.32,2.8590002 -9.49,5.4100002 -11.49,10.5400002 -1.59,4.79 -2.93,9.87 -2.36,14.96 0.98,7.13 5.521,13.02 9.91,18.46 8.149,9.641 16.35,19.24 23.95,29.33 -3.07,3.029 -6.04,6.16 -9.13,9.17 -4.15,-4.359 -7.41,-9.44 -11.36,-13.96 -5.95,-7.42 -12.45,-14.45 -17.48,-22.561 -5.62,-9.619 -8.6399997,-21.369 -5.47,-32.33 z"
     id="path1" />
  <path
     d="m 75.680542,0.81837185 c 2.95,-0.44 6.08,-1.471 8.979,-0.16 7.96,3.26999995 15.08,9.25999995 18.550998,17.26000015 4.189,9.5 3.99,20.59 -0.061,30.1 -2.51,7.17 -7.378998,13.101 -12.159998,18.88 -3.209,-2.889 -5.899,-6.27 -8.33,-9.829 4.521,-5.77 9.771,-11.35 11.99,-18.5 2.01,-6.12 0.36,-12.65 -1.619,-18.54 -2.041,-5.08 -7.181,-7.591 -11.451,-10.4600002 -2.179,-2.761 -4.109,-5.731 -5.899,-8.75099995 z"
     id="path2" />
  <path
     d="m 42.270542,58.719372 c 6.07,-8.791 12.01,-17.681 17.98,-26.551 6.47,9.75 12.771,19.631 19.5,29.21 5.819,8.48 14.22,14.69 22.408998,20.71 5.611,-4.04 11.08,-8.27 16.721,-12.279 0.42,6.72 0.97,13.45 1.15,20.18 -4.721,6.79 -10.661,12.719998 -16.36,18.699998 -7.699998,8.72 -20.129998,11.89 -31.329998,11.27 -3.19,-3.48 -6.06,-7.25 -9.12,-10.84 3.391,-3.56 6.74,-7.16 10.141,-10.720998 3.149,1.699998 5.609,4.420998 8.689,6.229998 5.77,0.4 10.35,-3.83 14.061,-7.698998 -10.831,-13.391 -24.891,-23.782 -35.691,-37.221 -3.13,3.07 -6.051,6.36 -9.04,9.57 -3.17,-3.4 -5.98,-7.12 -9.11,-10.559 z"
     id="path3" />
  <path
     d="m 1.2205423,69.808372 c 5.641,4.01 11.1199997,8.239 16.7299997,12.289 2.81,-2.189 5.56,-4.439 8.3,-6.72 2.76,3.311 5.51,6.62 8.239,9.95 -3.609,3.78 -7.35,7.45 -10.67,11.5 3.891,3.769998 8.351,8.259998 14.23,7.789998 11.72,-7.759998 21.3,-18.228998 30.1,-29.079998 3.34,3.2 6.53,6.55 10.061,9.54 -4.68,5.99 -9.801,11.61 -15.1,17.049998 -5.531,5.58 -10.181,11.94 -15.36,17.841 -10.96,0.569 -23.131,-2.411 -30.82,-10.78 -5.649,-5.68 -11.0399997,-11.629998 -16.0799997,-17.859998 -1.21,-1.12 -0.79,-2.78 -0.739,-4.23 0.449,-5.76 0.649,-11.53 1.109,-17.29 z"
     id="path4" />
</svg>
