<?xml version="1.0" encoding="UTF-8" standalone="no"?>
<svg
   id="Layer_2"
   data-name="Layer 2"
   viewBox="0 0 678.26 904.5"
   version="1.1"
   width="678.26001"
   height="904.5"
   xmlns="http://www.w3.org/2000/svg"
   xmlns:svg="http://www.w3.org/2000/svg">
  <defs
     id="defs6">
    <style
       id="style1">
      .cls-1 {
        fill: url(#linear-gradient);
      }

      .cls-1, .cls-2 {
        stroke-width: 0px;
      }
    </style>
    <linearGradient
       id="linear-gradient"
       x1="531.85999"
       y1="759.53003"
       x2="97.949997"
       y2="7.96"
       gradientUnits="userSpaceOnUse">
      <stop
         offset="0"
         stop-color="#612c75"
         id="stop1" />
      <stop
         offset=".13"
         stop-color="#80508f"
         id="stop2" />
      <stop
         offset=".29"
         stop-color="#a277ab"
         id="stop3" />
      <stop
         offset=".42"
         stop-color="#b790bc"
         id="stop4" />
      <stop
         offset=".5"
         stop-color="#bf99c3"
         id="stop5" />
      <stop
         offset="1"
         stop-color="#612c75"
         id="stop6" />
    </linearGradient>
  </defs>
  <g
     id="Layer_1-2"
     data-name="Layer 1">
    <path
       class="cls-2"
       d="m 283.65,46.44 c -30.7,0 -61.27,3.53 -90.86,10.49 -26.18,6.16 -51.71,15.02 -76.03,26.4 -3.83,-2.12 -8.91,-5.24 -14.51,-9.54 C 86.52,61.71 73.55,44.9 61.68,26.32 49.81,7.74 48.27,0 48.27,0 48.27,0 34.85,15.23 30.21,25.81 23.8,40.41 19.22,51.92 18.46,78.8 c -0.48,16.74 2.42,32.26 8.61,46.13 6.72,15.04 17.17,27.88 31.13,38.24 l 17.3,83.08 C 53.01,270.55 35.13,298.28 22.26,328.82 7.49,363.87 0,401.11 0,439.5 c 0,38.39 7.42,75.19 22.05,110.1 14.13,33.71 34.37,64.04 60.16,90.16 25.77,26.11 55.83,46.73 89.34,61.3 31.47,13.68 64.77,21.46 99.12,23.18 l 42.82,62.49 c 11.8,58.24 -7.3,117.77 -7.3,117.77 0,0 16.65,-4.19 33.81,-12.54 17.16,-8.35 41.22,-24.93 61.37,-51.57 8.83,-11.68 15.6,-22.59 19.55,-29.36 25.1,-9.31 49.28,-21.22 71.98,-35.49 25.08,-15.76 48.53,-34.49 69.7,-55.68 C 637.18,645.31 678.26,546.28 678.26,441.01 678.26,223.44 501.24,46.43 283.65,46.43 Z"
       id="path6" />
    <path
       class="cls-1"
       d="m 47.59,37.03 c 24.53,51.63 69.19,68.5 69.19,68.5 51.23,-25.58 108.06,-39.09 166.87,-39.09 206.56,0 374.61,168.03 374.61,374.58 0,99.94 -39,193.93 -109.8,264.71 -40.61,40.64 -88.81,70.71 -141.32,89 0,0 -33.23,63.42 -74.04,78.46 0,0 13.61,-47.6 -1.35,-95.21 l -50.3,-73.4 C 136.7,702.57 20,584.65 20,439.51 20,366.5 49.43,300.4 97.23,252.5 L 76.14,151.23 C 13.67,111.84 47.59,37.04 47.59,37.04 v 0 z m 236.06,94.65 c -51.33,0 -99.92,12.66 -142.64,34.88 l 8.8,44.74 c 39.29,-22.88 85.08,-36.13 133.84,-36.13 146.88,0 265.86,119 265.86,265.86 0,121.21 -81.13,223.43 -192.09,255.41 l 23.1,38.33 C 503.81,694.06 593.01,577.76 593.01,441.02 593.01,270.39 454.27,131.68 283.64,131.68 v 0 z m -3.14,154.71 -5.19,0.55 c -10.13,1.36 -20.51,4.22 -31.14,8.59 -10.63,4.37 -24.56,11.37 -41.79,21 l -106.13,61.28 7.92,13.72 3.1,-1.31 c 12.27,-7.09 22.74,-8.96 31.41,-5.62 8.67,3.34 17.31,12.47 25.92,27.39 l 78.58,136.1 c 8.75,15.16 12.41,27.33 10.97,36.51 -1.44,9.18 -8.37,17.19 -20.78,24.03 l -2.89,1.67 7.92,13.72 112.63,-65.03 -7.92,-13.72 -4.48,3.07 c -12.27,7.09 -22.74,8.96 -31.41,5.62 -8.67,-3.34 -17.45,-12.71 -26.34,-28.11 l -35.22,-61.01 10.68,-5.68 c 4.09,-2.36 7.72,-4.14 10.89,-5.32 3.17,-1.19 5.63,-1.65 7.39,-1.38 3.38,0.3 8.72,1.62 16.02,3.99 7.3,2.36 16.87,5.74 28.71,10.14 l 54.54,21.94 c 9.95,3.89 18.57,7.01 25.87,9.37 7.3,2.36 13.54,4.14 18.71,5.32 7.45,1.79 14.86,1.85 22.23,0.16 7.37,-1.69 15.14,-4.89 23.33,-9.62 l 28.88,-16.67 -7.71,-13.36 c -1.44,0.83 -2.62,1.43 -3.53,1.8 -0.91,0.37 -1.92,0.71 -3.02,1.02 -0.86,0.18 -1.66,0.32 -2.4,0.42 -0.74,0.11 -1.73,0.2 -2.97,0.27 -2.86,0.05 -5.51,0.05 -7.94,0 -2.43,-0.04 -4.84,-0.18 -7.21,-0.41 -3.04,-0.81 -6.48,-1.63 -10.33,-2.46 -3.85,-0.83 -8.05,-1.85 -12.6,-3.07 -7.97,-2.14 -14.49,-3.99 -19.57,-5.55 -5.07,-1.56 -8.82,-2.77 -11.24,-3.62 l -53.18,-17.91 c -7.11,-2.31 -13.18,-4.34 -18.2,-6.1 -5.02,-1.75 -8.81,-3.18 -11.37,-4.27 -1.14,-0.3 -2.12,-0.62 -2.95,-0.94 -0.83,-0.32 -1.55,-0.47 -2.17,-0.43 l -0.29,-0.08 -0.28,-0.08 -1.99,-0.53 c -0.57,-0.15 -1.35,-0.26 -2.35,-0.33 2.71,-2.53 5.13,-4.73 7.26,-6.6 2.13,-1.87 4.02,-3.6 5.66,-5.2 1.17,-1.32 2.37,-2.57 3.6,-3.76 1.24,-1.19 2.25,-2.5 3.03,-3.92 1.41,-1.45 2.74,-3.03 4.01,-4.72 1.27,-1.69 2.59,-3.58 3.96,-5.65 7.67,-11.17 11.83,-23.28 12.48,-36.33 0.65,-13.05 -2.22,-25.11 -8.61,-36.18 -6.67,-11.55 -16.13,-20.29 -28.37,-26.22 -7.52,-3.61 -15.63,-5.87 -23.96,-6.49 -3.37,-0.25 -6.76,0 -10.14,-0.01 v 0 z m -27.56,33.92 c 9.31,-0.12 17.92,2.6 26.09,6.84 9.28,5.23 16.84,12.9 22.67,23.01 5.56,9.63 8.28,19.2 8.17,28.74 -0.11,9.53 -3.17,18.28 -9.16,26.23 -1.17,1.32 -2.27,2.6 -3.32,3.84 -1.05,1.25 -2.03,2.46 -2.96,3.63 -3.64,3.7 -8.06,7.3 -13.27,10.79 -5.21,3.49 -13.54,8.38 -24.99,14.67 l -19.49,11.26 -57.32,-99.28 20.06,-11.1 c 8.91,-5.14 15.93,-8.96 21.07,-11.44 5.14,-2.49 10.3,-4.26 15.46,-5.32 1.96,-0.49 3.99,-0.86 6.1,-1.11 2.11,-0.25 4.39,-0.45 6.87,-0.6 l 4.01,-0.15 v 0 z"
       id="path7"
       style="fill:url(#linear-gradient)" />
  </g>
</svg>
