<?xml version="1.0" encoding="UTF-8"?>
<svg id="Layer_2" data-name="Layer 2" xmlns="http://www.w3.org/2000/svg" viewBox="0 0 638.26 836.16">
  <defs>
    <style>
      .cls-1 {
        stroke-width: 0px;
      }
    </style>
  </defs>
  <g id="Layer_1-2" data-name="Layer 1">
    <path class="cls-1" d="M27.59,0c24.53,51.63,69.19,68.5,69.19,68.5,51.23-25.58,108.06-39.09,166.87-39.09,206.56,0,374.61,168.03,374.61,374.58,0,99.94-39,193.93-109.8,264.71-40.61,40.64-88.81,70.71-141.32,89,0,0-33.23,63.42-74.04,78.46,0,0,13.61-47.6-1.35-95.21l-50.3-73.4C116.69,665.53,0,547.61,0,402.47c0-73.01,29.43-139.11,77.23-187.01l-21.09-101.27C-6.33,74.8,27.59,0,27.59,0h0ZM263.65,94.64c-51.33,0-99.92,12.66-142.64,34.88l8.8,44.74c39.29-22.88,85.08-36.13,133.84-36.13,146.88,0,265.86,119,265.86,265.86,0,121.21-81.13,223.43-192.09,255.41l23.1,38.33c123.29-40.71,212.49-157.01,212.49-293.75,0-170.63-138.74-309.34-309.37-309.34h0ZM260.51,249.36l-5.19.55c-10.13,1.36-20.51,4.22-31.14,8.59-10.63,4.37-24.56,11.37-41.79,21l-106.13,61.28,7.92,13.72,3.1-1.31c12.27-7.09,22.74-8.96,31.41-5.62,8.67,3.34,17.31,12.47,25.92,27.39l78.58,136.1c8.75,15.16,12.41,27.33,10.97,36.51-1.44,9.18-8.37,17.19-20.78,24.03l-2.89,1.67,7.92,13.72,112.63-65.03-7.92-13.72-4.48,3.07c-12.27,7.09-22.74,8.96-31.41,5.62-8.67-3.34-17.45-12.71-26.34-28.11l-35.22-61.01,10.68-5.68c4.09-2.36,7.72-4.14,10.89-5.32,3.17-1.19,5.63-1.65,7.39-1.38,3.38.3,8.72,1.62,16.02,3.99,7.3,2.36,16.87,5.74,28.71,10.14l54.54,21.94c9.95,3.89,18.57,7.01,25.87,9.37,7.3,2.36,13.54,4.14,18.71,5.32,7.45,1.79,14.86,1.85,22.23.16,7.37-1.69,15.14-4.89,23.33-9.62l28.88-16.67-7.71-13.36c-1.44.83-2.62,1.43-3.53,1.8-.91.37-1.92.71-3.02,1.02-.86.18-1.66.32-2.4.42-.74.11-1.73.2-2.97.27-2.86.05-5.51.05-7.94,0-2.43-.04-4.84-.18-7.21-.41-3.04-.81-6.48-1.63-10.33-2.46-3.85-.83-8.05-1.85-12.6-3.07-7.97-2.14-14.49-3.99-19.57-5.55-5.07-1.56-8.82-2.77-11.24-3.62l-53.18-17.91c-7.11-2.31-13.18-4.34-18.2-6.1-5.02-1.75-8.81-3.18-11.37-4.27-1.14-.3-2.12-.62-2.95-.94-.83-.32-1.55-.47-2.17-.43l-.29-.08-.28-.08-1.99-.53c-.57-.15-1.35-.26-2.35-.33,2.71-2.53,5.13-4.73,7.26-6.6,2.13-1.87,4.02-3.6,5.66-5.2,1.17-1.32,2.37-2.57,3.6-3.76,1.24-1.19,2.25-2.5,3.03-3.92,1.41-1.45,2.74-3.03,4.01-4.72,1.27-1.69,2.59-3.58,3.96-5.65,7.67-11.17,11.83-23.28,12.48-36.33.65-13.05-2.22-25.11-8.61-36.18-6.67-11.55-16.13-20.29-28.37-26.22-7.52-3.61-15.63-5.87-23.96-6.49-3.37-.25-6.76,0-10.14-.01h0ZM232.95,283.28c9.31-.12,17.92,2.6,26.09,6.84,9.28,5.23,16.84,12.9,22.67,23.01,5.56,9.63,8.28,19.2,8.17,28.74-.11,9.53-3.17,18.28-9.16,26.23-1.17,1.32-2.27,2.6-3.32,3.84-1.05,1.25-2.03,2.46-2.96,3.63-3.64,3.7-8.06,7.3-13.27,10.79-5.21,3.49-13.54,8.38-24.99,14.67l-19.49,11.26-57.32-99.28,20.06-11.1c8.91-5.14,15.93-8.96,21.07-11.44,5.14-2.49,10.3-4.26,15.46-5.32,1.96-.49,3.99-.86,6.1-1.11s4.39-.45,6.87-.6l4.01-.15h0Z"/>
  </g>
</svg>