<svg xmlns="http://www.w3.org/2000/svg" xml:space="preserve" width="363.05" height="425" viewBox="0 0 363.05 425"><path d="M177.36 423.44c-83.88-31.27-121.853-102-166.354-198.51l-3.521-7.64 6.015-5.88c3.738-3.67 7.321-6.87 10.795-9.96 13.399-11.96 21.481-19.17 21.481-36.9 0-18.9-11.424-30.3-37.266-54.29l-7.492-6.97L0 77.975l3.583-3.68c15.979-16.4 49.413-47.373 93.805-70.537L104.59 0l51.25 44.395h51.37L258.46 0l7.2 3.758c44.38 23.164 77.82 54.137 93.8 70.537l3.59 3.68-1.03 25.315-7.49 6.97c-25.84 23.99-37.27 35.39-37.27 54.29 0 17.73 8.1 24.94 21.49 36.9 3.47 3.09 7.06 6.29 10.8 9.96l6.01 5.88-3.53 7.64c-44.49 96.51-82.47 167.24-166.34 198.51l-4.17 1.56z"/><path fill="gray" d="M75.62 292.88S142.6 247.1 193.5 193.9c55.22-57.7 54.89-98.319 62.18-112.908 7.3-14.591 49.74-25.367 49.74-25.367s14.76 22.715 9.45 62.175c0 0-77.59 137.28-239.25 175.08"/><path d="M57.963 292.91c-12.35-22.27-24.015-46.73-36.116-72.97 18.458-18.08 35.867-26.84 35.867-55.39 0-26.15-17.409-41-44.96-66.649l-.622-15.27c13.819-14.186 46.935-45.41 90.778-68.29l48.48 41.991h6.95C147 125.26 53.735 214.04 53.735 214.04S184.06 177.49 248.47 24.538l12.37-9.813c17.59 9.241 33.4 19.794 46.95 30.036l-4.82 1.222c-10.99 2.792-47.53 13.243-56.19 30.563-2.07 4.156-3.44 9.155-5.17 15.495-5.32 19.469-14.51 51.789-55.29 94.979-52.67 55.79-128.357 105.89-128.357 105.89M324.73 119.12l-.25 1.9-.94 1.67c-.25.44-.98 1.69-2.09 3.51 7.46-8.62 17.24-17.5 28.84-28.299l.62-15.27c-7.5-7.707-20.74-20.445-38.25-34.135l1.11 1.709c.68 1.054 16.69 26.297 10.96 68.915m-114.8 182.71s30.5-23.2 63.33-71.62c15.56-22.95 29.61-58.83 32.08-65.32v-.34c0-7.68 1.53-14.37 4.36-20.66-29.2 40.93-104.81 128.98-231.801 158.68l-12.707 2.97c29.336 49.65 63.478 87.01 116.338 106.72 80.03-29.85 117.18-100.15 159.67-192.32-.69-.68-1.37-1.32-2.06-1.98l-3.93 6.89c-45.69 71.02-125.27 76.98-125.27 76.98z"/><path fill="gray" d="m227.83 43.19-16.18 13.143h-44.16C159.32 112.01 86.564 192.91 86.564 192.91 193.01 134.21 227.83 43.19 227.83 43.19m12.93 242.23c41.48-13.83 72.42-42.52 92.44-72.91-10.46-9.39-19.71-17.07-24.46-28.87-26.5 63.83-67.98 101.78-67.98 101.78"/></svg>