<svg xmlns="http://www.w3.org/2000/svg" xml:space="preserve" width="363.05" height="425" viewBox="0 0 363.05 425"><path d="m104.59 0-7.201 3.758C52.997 26.922 19.561 57.895 3.582 74.295L0 77.975l1.018 25.315 7.492 6.97c25.842 23.99 37.265 35.39 37.265 54.29 0 17.73-8.081 24.94-21.48 36.9-3.474 3.09-7.057 6.29-10.795 9.96l-6.016 5.88 3.522 7.64c44.501 96.51 82.473 167.24 166.354 198.51l4.16 1.56 4.17-1.56c83.87-31.27 121.85-102 166.34-198.51l3.53-7.64-6.01-5.88c-3.74-3.67-7.33-6.87-10.8-9.96-13.39-11.96-21.49-19.17-21.49-36.9 0-18.9 11.43-30.3 37.27-54.29l7.49-6.97 1.03-25.315-3.59-3.68c-15.98-16.4-49.42-47.373-93.8-70.537L258.46 0l-51.25 44.395h-51.37zm123.24 43.189S193.01 134.21 86.564 192.91c0 0 72.756-80.9 80.926-136.578h44.16zm77.59 12.436s14.76 22.716 9.45 62.175c0 0-77.59 137.28-239.251 175.08 0 0 66.981-45.78 117.881-98.98 55.22-57.7 54.89-98.319 62.18-112.908 7.3-14.591 49.74-25.367 49.74-25.367m3.32 128.015c4.75 11.8 14 19.48 24.46 28.87-20.02 30.39-50.96 59.08-92.44 72.91 0 0 41.48-37.95 67.98-101.78"/></svg>