<?xml version="1.0" encoding="UTF-8" standalone="no"?>
<svg
   id="Layer_2"
   data-name="Layer 2"
   viewBox="0 0 321.26 348.67085"
   version="1.1"
   width="321.26001"
   height="348.67087"
   xmlns="http://www.w3.org/2000/svg"
   xmlns:svg="http://www.w3.org/2000/svg">
  <defs
     id="defs1">
    <style
       id="style1">
      .cls-1, .cls-2 {
        stroke-width: 0px;
      }

      .cls-2 {
        fill: #fff;
      }
    </style>
  </defs>
  <g
     id="svg1174"
     transform="translate(0,8.6760524e-4)">
    <g
       id="layer1">
      <path
         id="path1138"
         class="cls-2"
         d="M 17.28,246.04 C 29.75,221.2 36.34,196.77 35.93,163.2 35.19,123.02 21.71,70.88 0,28.34 28.23,14.82 61.1,0.74 98.84,0.01 c 9.94,-0.19 21.47,2.12 31.51,6.25 -9.63,9.5 -17.04,17.55 -15.54,30.42 2.61,22.43 28.49,24.55 45.82,24.55 17.33,0 43.21,-2.11 45.82,-24.55 1.5,-12.87 -5.92,-20.93 -15.54,-30.42 10.04,-4.13 21.57,-6.44 31.51,-6.25 37.75,0.73 70.62,14.81 98.84,28.33 -21.71,42.54 -35.19,94.68 -35.93,134.86 -0.4,33.57 6.18,58 18.65,82.84 -39.96,43.69 -91.46,83.07 -143.35,102.63 C 108.74,329.11 57.24,289.74 17.28,246.04 Z" />
      <path
         id="path1104"
         class="cls-1"
         d="m 111.06,12.48 c -42.78,1.01 -65.77,10.07 -90.62,23.01 12.67,26.99 21.61,59.62 26.39,89.76 0,0 105.19,139.76 105.45,140.1 0.26,0.35 1.26,1.86 0.64,2.41 -0.65,0.57 -1.94,-0.51 -2.38,-0.99 -0.44,-0.48 -73.92,-80.14 -73.92,-80.14 -4.94,-5.2 -14.17,-14.39 -20.99,-12.73 -2.68,1.06 -4.74,3.11 -4.89,5.7 -1.42,25.63 -5.64,43.25 -15.27,64.09 35.19,41.83 79.48,69.96 125.17,88.68 45.69,-18.72 89.98,-46.86 125.17,-88.68 -28.05,-38.39 -57.38,-76.49 -86.16,-114.57 -0.83,-1.42 -1.58,-2.37 -0.78,-3.06 0.76,-0.65 2.74,1.2 2.74,1.2 0,0 13.98,14.4 21.13,21.44 9.76,9.61 29.72,28.39 29.72,28.39 1.67,1.14 6.74,5.99 10.73,7.97 3.69,1.83 5.83,0.73 6.86,-1.8 1.13,-2.83 0.33,-10.14 0.38,-15.03 0.65,-38.47 11.28,-92.02 30.4,-132.74 -24.85,-12.94 -47.84,-22 -90.62,-23.01 18.5,38.16 -13.16,58.32 -49.57,58.03 -36.41,0.28 -68.07,-19.87 -49.57,-58.03 v 0 z" />
      <path
         id="path1140"
         class="cls-2"
         d="m 97.79,26.41 c -5.89,0.33 -12.43,0.8 -18.17,1.79 -8.81,1.52 -17.52,3.74 -25.96,6.64 -4.85,1.66 -10.69,4.51 -15.6,6.81 13.06,17.67 110.86,149.94 165,222.77 6.84,9.05 8.97,18.08 8.36,26.91 3.87,-2.44 7.72,-4.97 11.43,-7.53 7.11,-4.9 13.95,-10.34 20.61,-16.06 3.12,-2.68 6.78,-6.16 10.05,-9.32 L 111.16,66.37 C 99.24,51.95 95.21,38.36 97.79,26.4 v 0 z" />
    </g>
  </g>
</svg>
