<?xml version="1.0" encoding="UTF-8" standalone="no"?>
<!DOCTYPE svg PUBLIC "-//W3C//DTD SVG 1.1//EN" "http://www.w3.org/Graphics/SVG/1.1/DTD/svg11.dtd">
<svg width="100%" height="100%" viewBox="0 0 255 279" version="1.1" xmlns="http://www.w3.org/2000/svg" xmlns:xlink="http://www.w3.org/1999/xlink" xml:space="preserve" xmlns:serif="http://www.serif.com/" style="fill-rule:evenodd;clip-rule:evenodd;stroke-linejoin:round;stroke-miterlimit:2;">
    <path id="path827-2" d="M127.184,278.64C183.503,256.279 210.186,225.986 240.934,196.319C210.126,142.96 230.178,73.355 254.369,22.898C221.451,7.429 187.305,-8.71 149.756,5.457C156.103,12.693 164.877,22.411 162.006,32.569C158.564,44.743 141.022,49.686 127.184,49.712M127.184,278.64C70.865,256.279 44.182,225.986 13.434,196.319C44.243,142.96 24.19,73.355 0,22.898C32.918,7.429 67.064,-8.71 104.612,5.457C98.265,12.693 89.491,22.411 92.363,32.569C95.804,44.743 113.347,49.686 127.184,49.712" style="fill-rule:nonzero;"/>
    <path id="path829" d="M23.705,24.703C40.79,18.242 62.985,11.324 82.108,11.781C78.893,13.948 75.279,35.046 82.432,44.728L207.944,214.623C195.572,227.239 165.265,246.758 165.265,246.758C165.265,246.758 172.995,225.695 164.255,213.928L23.705,24.703Z" style="fill:white;fill-rule:nonzero;"/>
    <path id="path833" d="M104.684,58.283C165.404,71.418 183.982,39.894 172.72,12.569C186.573,11.943 204.436,13.676 239.863,28.997C220.342,67.581 213.376,107.069 215.577,144.354C214.929,148.041 212.678,150.755 208.256,147.837L159.327,100.828C157.243,100.085 157.964,101.686 159.037,102.948L228.434,194.712L215.22,207.212L104.684,58.283ZM18.966,34.535L153.252,215.964C161.766,227.467 157.572,248.044 149.667,253.96C142.901,259.023 135.409,262.891 127.184,266.744L101.552,252.344C75.651,237.793 50.164,213.86 27.765,194.399C34.439,186.174 39.798,160.314 40.22,145.783C40.509,135.852 48.668,138.077 52.987,141.351C62.682,148.699 118.221,212.85 120.22,213.997C122.49,215.3 123.166,213.641 122.363,212.569L38.077,100.069C36.414,81.023 25.898,56.215 18.966,34.535Z" style="fill:url(#_Linear1);fill-rule:nonzero;"/>
    <defs>
        <linearGradient id="_Linear1" x1="0" y1="0" x2="1" y2="0" gradientUnits="userSpaceOnUse" gradientTransform="matrix(222.059,0,0,222.059,18.4902,139.634)"><stop offset="0" style="stop-color:rgb(97,44,117);stop-opacity:1"/><stop offset="0.3" style="stop-color:rgb(123,81,144);stop-opacity:1"/><stop offset="0.5" style="stop-color:rgb(191,153,195);stop-opacity:1"/><stop offset="0.7" style="stop-color:rgb(123,81,144);stop-opacity:1"/><stop offset="1" style="stop-color:rgb(97,44,117);stop-opacity:1"/></linearGradient>
    </defs>
</svg>
