<?xml version="1.0" encoding="UTF-8" standalone="no"?>
<svg
   width="254.369"
   height="278.64017"
   viewBox="0 0 254.369 278.64017"
   version="1.1"
   xml:space="preserve"
   style="clip-rule:evenodd;fill-rule:evenodd;stroke-linejoin:round;stroke-miterlimit:2"
   id="svg5"
   xmlns="http://www.w3.org/2000/svg"
   xmlns:svg="http://www.w3.org/2000/svg">
    <path
   id="path827-2"
   d="m 127.184,278.64017 c 56.319,-22.361 83.002,-52.654 113.75,-82.321 C 210.126,142.96017 230.178,73.355171 254.369,22.898171 221.451,7.4291712 187.305,-8.7098288 149.756,5.4571712 c 6.347,7.2359998 15.121,16.9539998 12.25,27.1119998 -3.442,12.174 -20.984,17.117 -34.822,17.143 m 0,228.927999 c -56.319,-22.361 -83.002,-52.654 -113.75,-82.321 C 44.243,142.96017 24.19,73.355171 0,22.898171 32.918,7.4291712 67.064,-8.7098288 104.612,5.4571712 98.265,12.693171 89.491,22.411171 92.363,32.569171 c 3.441,12.174 20.984,17.117 34.821,17.143"
   style="fill-rule:nonzero" />
    <path
   id="path829"
   d="m 23.705,24.703171 c 17.085,-6.461 39.28,-13.379 58.403,-12.922 -3.215,2.167 -6.829,23.265 0.324,32.947 L 207.944,214.62317 c -12.372,12.616 -42.679,32.135 -42.679,32.135 0,0 7.73,-21.063 -1.01,-32.83 z"
   style="fill:#ffffff;fill-rule:nonzero" />
    <path
   id="path833"
   d="m 104.684,58.283171 c 60.72,13.135 79.298,-18.389 68.036,-45.714 13.853,-0.626 31.716,1.107 67.143,16.428 -19.521,38.584 -26.487,78.071999 -24.286,115.356999 -0.648,3.687 -2.899,6.401 -7.321,3.483 l -48.929,-47.009 c -2.084,-0.743 -1.363,0.858 -0.29,2.12 l 69.397,91.764 -13.214,12.5 z m -85.718,-23.748 134.286,181.428999 c 8.514,11.503 4.32,32.08 -3.585,37.996 -6.766,5.063 -14.258,8.931 -22.483,12.784 l -25.632,-14.4 c -25.901,-14.551 -51.388,-38.484 -73.787,-57.945 6.674,-8.225 12.033,-34.085 12.455,-48.616 0.289,-9.931 8.448,-7.706 12.767,-4.432 9.695,7.348 65.234,71.499 67.233,72.646 2.27,1.303 2.946,-0.356 2.143,-1.428 l -84.286,-112.5 C 36.414,81.023171 25.898,56.215171 18.966,34.535171 Z"
   style="fill:url(#_Linear1);fill-rule:nonzero" />
    <defs
   id="defs5">
        <linearGradient
   id="_Linear1"
   x1="0"
   y1="0"
   x2="1"
   y2="0"
   gradientUnits="userSpaceOnUse"
   gradientTransform="matrix(222.059,0,0,222.059,18.4902,139.63417)"><stop
     offset="0"
     style="stop-color:rgb(97,44,117);stop-opacity:1"
     id="stop1" /><stop
     offset="0.3"
     style="stop-color:rgb(123,81,144);stop-opacity:1"
     id="stop2" /><stop
     offset="0.5"
     style="stop-color:rgb(191,153,195);stop-opacity:1"
     id="stop3" /><stop
     offset="0.7"
     style="stop-color:rgb(123,81,144);stop-opacity:1"
     id="stop4" /><stop
     offset="1"
     style="stop-color:rgb(97,44,117);stop-opacity:1"
     id="stop5" /></linearGradient>
    </defs>
</svg>
