<?xml version="1.0" encoding="UTF-8" standalone="no"?>
<svg
   id="Layer_2"
   data-name="Layer 2"
   viewBox="0 0 280.39 319.89"
   version="1.1"
   width="280.39001"
   height="319.89001"
   xmlns="http://www.w3.org/2000/svg"
   xmlns:svg="http://www.w3.org/2000/svg">
  <defs
     id="defs1">
    <style
       id="style1">
      .cls-1 {
        stroke-width: 0px;
      }
    </style>
  </defs>
  <g
     id="svg1174">
    <path
       class="cls-1"
       d="m 178.42,113.59 c 0.76,-0.65 2.74,1.2 2.74,1.2 0,0 13.98,14.4 21.13,21.44 9.76,9.61 29.72,28.39 29.72,28.39 1.67,1.14 6.74,5.99 10.73,7.97 3.69,1.83 5.83,0.73 6.86,-1.8 1.13,-2.83 0.33,-10.14 0.39,-15.03 0.65,-38.47 11.28,-92.02 30.4,-132.74 C 255.53,10.07 232.55,1.01 189.76,0 208.26,38.16 176.6,58.32 140.19,58.03 103.78,58.31 72.12,38.16 90.62,0 47.84,1.01 24.85,10.07 0,23.01 12.67,50 21.61,82.63 26.39,112.77 c 0,0 105.19,139.76 105.45,140.1 0.26,0.35 1.26,1.86 0.64,2.41 -0.65,0.57 -1.94,-0.51 -2.38,-0.99 -0.44,-0.48 -73.92,-80.14 -73.92,-80.14 -4.94,-5.2 -14.17,-14.39 -20.99,-12.73 -2.68,1.06 -4.74,3.11 -4.89,5.7 -1.42,25.63 -5.64,43.25 -15.27,64.09 35.19,41.83 79.48,69.96 125.17,88.68 45.69,-18.72 89.98,-46.86 125.17,-88.68 -28.05,-38.39 -57.38,-76.49 -86.16,-114.57 -0.83,-1.42 -1.58,-2.37 -0.78,-3.06 z m 44.6,141.67 c -6.66,5.72 -13.5,11.15 -20.61,16.06 -3.71,2.56 -7.55,5.08 -11.43,7.53 0.62,-8.83 -1.51,-17.86 -8.36,-26.91 C 128.49,179.1 30.69,46.83 17.63,29.16 c 4.91,-2.3 10.75,-5.14 15.6,-6.81 8.44,-2.9 17.15,-5.12 25.96,-6.64 5.73,-0.99 12.28,-1.45 18.17,-1.79 v 0 c -2.58,11.95 1.45,25.55 13.37,39.97 l 142.35,192.05 c -3.27,3.16 -6.93,6.64 -10.05,9.32 z"
       id="path1" />
  </g>
</svg>
