<svg xmlns="http://www.w3.org/2000/svg" width="69.217" height="50"><path fill="gray" d="M60.92 50c-4.569 0-11.837-5.051-16.227-9.931 0 0-2.689-2.512-10.02-2.512-7.416 0-10.208 2.579-10.237 2.604C20.216 44.861 12.806 50 8.301 50a5.8 5.8 0 0 1-1.384-.162C-1.17 47.745-.165 37.064.317 31.931c.77-8.154 2.412-19.818 7.826-26.92C10.748 1.593 14.228 0 19.09 0c3.01 0 6.761.424 9.49 3.61H40.64C43.367.424 47.12 0 50.131 0c4.861 0 8.341 1.593 10.942 5.011 5.418 7.102 7.061 18.766 7.823 26.92.485 5.133 1.497 15.814-6.583 17.904Q61.64 50 60.92 50M24.35 21.973a4.12 4.12 0 0 0-4.115 4.117 4.12 4.12 0 0 0 4.115 4.116 4.12 4.12 0 0 0 4.116-4.116 4.124 4.124 0 0 0-4.116-4.117m19.428.909a3.06 3.06 0 0 0-3.055 3.055 3.054 3.054 0 1 0 6.107 0 3.055 3.055 0 0 0-3.052-3.055M14.785 11.499a2.751 2.751 0 0 0 0 5.502 2.755 2.755 0 0 0 2.752-2.752 2.753 2.753 0 0 0-2.752-2.75"/><path d="M60.92 48.752c-4.163 0-11.184-4.938-15.299-9.516-.019-.019-2.864-2.924-10.95-2.924-8.104 0-11.075 2.924-11.104 2.954-4.106 4.569-11.235 9.485-15.267 9.485-.388 0-.756-.043-1.085-.125C.17 46.804 1.11 36.834 1.56 32.046c.753-8.005 2.357-19.438 7.576-26.282 2.381-3.125 5.45-4.517 9.95-4.517 3.068 0 6.5.439 8.895 3.61h13.254c2.397-3.171 5.83-3.61 8.896-3.61 4.502 0 7.571 1.392 9.953 4.517 5.22 6.849 6.82 18.28 7.572 26.282.453 4.788 1.393 14.755-5.654 16.58a4.5 4.5 0 0 1-1.083.126M24.35 20.725a5.37 5.37 0 0 0-5.364 5.365 5.37 5.37 0 0 0 5.364 5.364 5.37 5.37 0 0 0 5.366-5.364 5.373 5.373 0 0 0-5.366-5.365m19.428.909a4.306 4.306 0 0 0-4.3 4.303 4.306 4.306 0 0 0 4.3 4.304 4.31 4.31 0 0 0 4.3-4.304 4.31 4.31 0 0 0-4.3-4.303M54.1 18.371a1.19 1.19 0 1 0 .004 2.38 1.19 1.19 0 0 0-.004-2.38m-39.314-8.12a4 4 0 0 0-3.996 3.998 4 4 0 0 0 3.996 3.997 4.003 4.003 0 0 0 3.998-3.997 4.003 4.003 0 0 0-3.998-3.998m44.474 2.96a1.19 1.19 0 1 0 .004 2.38 1.19 1.19 0 0 0-.004-2.38m-10.324-.152a1.19 1.19 0 1 0 .006 2.378 1.19 1.19 0 0 0-.006-2.378M54.1 8.051a1.19 1.19 0 1 0 .005 2.381 1.19 1.19 0 0 0-.005-2.381"/><path d="M37.327 25.937c0-3.555 2.895-6.451 6.448-6.451a6.46 6.46 0 0 1 6.452 6.451 6.46 6.46 0 0 1-6.452 6.452c-3.553 0-6.448-2.894-6.448-6.452m-20.49.153a7.52 7.52 0 0 1 7.513-7.514c4.143 0 7.512 3.369 7.512 7.514 0 4.141-3.369 7.513-7.512 7.513-4.145 0-7.514-3.373-7.514-7.513m33.922-6.526a3.345 3.345 0 0 1 3.341-3.342 3.346 3.346 0 0 1 3.342 3.342 3.342 3.342 0 0 1-6.683 0m-5.16-5.315c0-1.841 1.5-3.336 3.34-3.336a3.339 3.339 0 1 1-3.34 3.336m-36.96 0c0-3.388 2.761-6.146 6.147-6.146a6.155 6.155 0 0 1 6.148 6.146 6.153 6.153 0 0 1-6.148 6.146 6.154 6.154 0 0 1-6.147-6.146m42.12-5.009A3.344 3.344 0 0 1 54.1 5.902a3.344 3.344 0 0 1 3.342 3.338 3.344 3.344 0 0 1-3.342 3.339 3.344 3.344 0 0 1-3.34-3.339m-8.037-2.77-.36.537H26.858l-.363-.537c-1.498-2.21-3.576-3.073-7.409-3.073-3.867 0-6.257 1.065-8.24 3.672-4.884 6.405-6.418 17.44-7.145 25.18-.635 6.72-.579 13.102 4.053 14.294.156.04.341.064.547.064 3.027-.003 9.552-4.193 13.69-8.802l.012-.012.013-.012c.142-.146 3.535-3.62 12.655-3.62 9.131 0 12.405 3.482 12.546 3.638 4.145 4.608 10.675 8.808 13.701 8.808.205 0 .391-.024.547-.064 4.63-1.192 4.682-7.574 4.052-14.294-.469-4.965-1.265-11.282-3.063-16.864a3.34 3.34 0 0 1-6.534-.983 3.342 3.342 0 0 1 5.064-2.86c-.744-1.642-1.606-3.155-2.61-4.474-1.987-2.606-4.373-3.672-8.243-3.672-3.83 0-5.908.864-7.409 3.074"/><path d="M53.794 7.1c-2.362.007-2.397 3.792-.288 4.291 3.191.739 4.026-4.322.288-4.292M59.128 12.215c-1.727.041-2.842 2.385-1.495 3.638 1.403 2.073 4.86-.341 3.61-2.385-.44-.717-1.252-1.276-2.115-1.253M54.04 17.257c-2.221.074-2.868 3.577-.72 4.345 1.936 1.096 4.084-2.068 2.37-3.521-.41-.473-.994-.889-1.65-.824M48.891 12.06c-2.192-.074-2.956 3.333-.9 4.16 1.77.915 4.025-1.299 2.829-3.024-.401-.66-1.14-1.152-1.929-1.135" style="fill:gray;stroke-width:.216303"/></svg>