<?xml version="1.0" encoding="UTF-8" standalone="no"?>
<!-- Generator: Adobe Illustrator 15.1.0, SVG Export Plug-In . SVG Version: 6.00 Build 0)  -->

<svg
   version="1.1"
   id="Layer_1"
   x="0px"
   y="0px"
   width="260.242"
   height="320.00101"
   viewBox="0 0 260.242 320.00101"
   enable-background="new 0 0 300 350"
   xml:space="preserve"
   xmlns="http://www.w3.org/2000/svg"
   xmlns:svg="http://www.w3.org/2000/svg"><defs
   id="defs4" />
<g
   id="Layer_1_1_"
   transform="translate(-20.544,-16.197)">
</g>
<g
   id="g4"
   transform="translate(-20.544,-16.197)">
	<path
   fill="#808080"
   d="m 150.662,336.198 c 0,0 93.904,-48.932 130.124,-121.247 0,0 -12.476,-22.666 -15.472,-55.047 0,0 -22.571,0.764 -30.564,-4.025 -7.336,-4.396 -12.49,-12.178 -12.49,-21.339 0,-13.513 10.953,-24.466 24.465,-24.466 13.673,0 18.979,9.534 18.979,9.534 l 5.008,-6.079 V 69.566 C 228.017,27.325 179.088,16.197 179.088,16.197 c 0,0 2.156,5.331 2.156,11.308 0,16.89 -13.69,30.582 -30.582,30.582 -16.89,0 -30.58,-13.692 -30.58,-30.582 0,-5.977 2.159,-11.308 2.159,-11.308 0,0 -48.93,11.128 -91.625,53.369 v 43.963 l 5.008,6.079 c 0,0 5.306,-9.534 18.978,-9.534 13.513,0 24.466,10.953 24.466,24.466 0,9.161 -5.154,16.943 -12.49,21.339 -7.993,4.789 -30.564,4.025 -30.564,4.025 -2.998,32.381 -15.47,55.047 -15.47,55.047 36.217,72.316 130.118,121.247 130.118,121.247 z"
   id="path1" />
	<path
   d="m 150.662,326.344 c -17.635,-9.948 -88.972,-52.8 -120.438,-111.48 3.495,-7.486 10.362,-24.28 13.472,-46.33 12.84,-0.311 22.021,-2.073 27.32,-5.249 10.448,-6.26 16.686,-17.006 16.686,-28.745 0,-18.251 -14.848,-33.1 -33.1,-33.1 -6.145,0 -11.261,1.514 -15.35,3.656 V 73.216 C 66.083,47.63 95.25,34.472 111.464,28.599 c 0.58,21.121 17.943,38.122 39.198,38.122 21.26,0 38.621,-17.001 39.203,-38.122 16.21,5.871 45.377,19.028 72.21,44.617 v 31.879 c -4.088,-2.142 -9.203,-3.656 -15.351,-3.656 -18.252,0 -33.1,14.849 -33.1,33.1 0,11.739 6.24,22.485 16.687,28.745 5.301,3.176 14.479,4.938 27.318,5.249 3.111,22.049 9.979,38.843 13.472,46.33 -31.462,58.681 -102.8,101.533 -120.439,111.481 z"
   id="path2" />
	<g
   id="g3">
		<path
   fill="#808080"
   d="m 79.564,170.271 c 0,0 24.182,-24.962 65.7,-10.726 0,0 -25.308,-1.51 -40.764,7.36 0,0 14.436,2.483 19.977,9.562 0,0 -26.75,3.387 -42.482,23.458 0,0 9.697,-0.267 14.696,0.342 25.356,3.087 37.915,22.979 36.249,36.669 -1.116,9.166 -7.797,13.428 -7.797,13.428 0,0 6.793,2.761 11.347,-1.88 0,0 -0.842,15.844 -26.653,20.435 0,0 52.499,13.34 72.742,-20.439 0,0 -6.692,2.868 -12.884,2.114 -6.188,-0.754 -14.934,-4.354 -7.275,-14.658 0,0 -13.871,1.815 -12.639,-8.306 0.578,-4.763 5.746,-7.514 5.746,-7.514 0,0 -13.576,1.366 -12.229,-9.706 0.915,-7.499 8.753,-12.343 8.753,-12.343 0,0 -5.15,-5.339 -20.785,-5.914 0,0 7.106,-5.781 23.656,-3.766 16.546,2.015 35.016,10.063 24.229,23.248 0,0 5.219,-0.209 8.314,0.168 3.095,0.377 27.533,4.076 20.329,26.516 0,0 28.713,-9.552 27.702,-45.919 0,0 -4.476,9.969 -16.289,13.724 0,0 4.35,-11.913 -7.806,-13.273 0,0 1.35,-5.151 1.729,-8.247 0.375,-3.096 0.686,-20.031 -7.646,-30.469 -8.334,-10.438 -34.602,-40.277 -41.646,-52.371 -7.045,-12.093 -6.298,-22.694 -5.706,-26.065 0,0 -5.691,6.557 -6.822,15.842 -1.131,9.285 2.227,12.956 6.169,17.786 3.942,4.829 36.968,40.202 35.464,58.502 0,0 -6.244,-12.72 -16.821,-27.056 -10.577,-14.335 -30.231,-34.489 -38.195,-47.963 -7.964,-13.474 -4.904,-26.692 -4.904,-26.692 0,0 -15.401,19.327 -10.747,45.083 0,0 20.691,20.097 20.298,34.729 0,0 -5.991,-12.328 -22.81,-25.008 -16.526,-12.458 -24.377,-13.116 -39.216,-39.086 0,0 -1.914,9.833 -0.956,19.3 10.159,7.619 16.745,19.756 16.745,33.404 0,14.802 -7.81,28.317 -20.883,36.152 -5.523,3.308 -13.529,5.329 -24.353,6.13 -1.61,8.826 -3.731,16.684 -5.894,23.343 6.842,-6.604 25.589,-22.349 50.87,-24.62 0.001,0 -5.754,-4.326 -16.513,-5.274 z m 88.587,-13.133 c 0,0 2.361,-0.558 5.971,2.539 3.611,3.098 14.146,13.804 14.839,25.972 0,0 -7.823,0.736 -11.999,-3.639 -4.181,-4.374 -13.428,-16.736 -8.811,-24.872 z"
   id="path3" />
	</g>
</g>
</svg>
