<?xml version="1.0" encoding="UTF-8" standalone="no"?>
<!-- Generator: Adobe Illustrator 27.2.0, SVG Export Plug-In . SVG Version: 6.00 Build 0)  -->

<svg
   version="1.1"
   id="Layer_1"
   x="0px"
   y="0px"
   viewBox="0 0 250.8 308.70001"
   xml:space="preserve"
   width="250.8"
   height="308.70001"
   xmlns="http://www.w3.org/2000/svg"
   xmlns:svg="http://www.w3.org/2000/svg"><defs
   id="defs6" />
<style
   type="text/css"
   id="style1">
	.st0{fill:#FFFFFF;}
	.st1{fill:url(#SVGID_1_);}
</style>
<g
   id="Layer_1_1_"
   transform="translate(-24.8,-22.3)">
</g>
<g
   id="g6"
   transform="translate(-24.8,-22.3)">
	<path
   d="M 150.1,331 C 140,325.5 58,279.5 24.8,214.5 c 2.4,-4.7 11.8,-24.5 14.7,-51.8 0.4,0 0.9,0 1.4,0 7.7,0 21.5,-0.6 27.8,-4.3 8.4,-5 13.3,-13.6 13.3,-22.9 0,-14.5 -11.8,-26.3 -26.3,-26.3 -10.1,0 -16,4.9 -18.7,8 L 34.4,114 V 72.5 c 34.1,-33.4 72.5,-46.6 84.5,-50.2 -0.5,2.1 -1,4.9 -1,7.9 0,17.8 14.5,32.3 32.3,32.3 17.8,0 32.3,-14.5 32.3,-32.3 0,-3 -0.5,-5.8 -1,-7.9 12,3.5 50.4,16.8 84.5,50.2 V 114 l -2.6,3.2 c -2.7,-3.1 -8.6,-8 -18.7,-8 -14.5,0 -26.3,11.8 -26.3,26.3 0,9.3 5,17.9 13.3,22.9 6.3,3.8 20.1,4.3 27.8,4.3 0.5,0 1,0 1.4,0 2.9,27.4 12.3,47.1 14.7,51.8 -33.3,65 -115.3,111 -125.5,116.5 z"
   id="path1" />
	<path
   class="st0"
   d="m 80.2,170.7 c 0,0 23.7,-24.6 64.5,-10.7 0,0 -24.9,-1.4 -40,7.4 0,0 14.2,2.4 19.7,9.3 0,0 -26.3,3.4 -41.7,23.2 0,0 9.5,-0.3 14.4,0.3 24.9,3 37.3,22.5 35.7,35.9 -1.1,9 -7.6,13.2 -7.6,13.2 0,0 6.7,2.7 11.1,-1.9 0,0 -0.8,15.6 -26.1,20.2 0,0 51.6,12.9 71.4,-20.3 0,0 -6.6,2.8 -12.6,2.1 -6.1,-0.7 -14.7,-4.2 -7.2,-14.4 0,0 -13.6,1.8 -12.4,-8.1 0.6,-4.7 5.6,-7.4 5.6,-7.4 0,0 -13.3,1.4 -12,-9.5 0.9,-7.4 8.6,-12.2 8.6,-12.2 0,0 -5.1,-5.2 -20.4,-5.7 0,0 7,-5.7 23.2,-3.8 16.3,1.9 34.4,9.8 23.9,22.8 0,0 5.1,-0.2 8.2,0.1 3,0.4 27.1,3.9 20.1,26 0,0 28.2,-9.5 27.1,-45.2 0,0 -4.4,9.8 -16,13.5 0,0 4.2,-11.7 -7.7,-13 0,0 1.3,-5.1 1.7,-8.1 0.4,-3 0.6,-19.7 -7.6,-29.9 C 195.9,144.3 170,115 163,103.2 c -7,-11.9 -6.3,-22.3 -5.7,-25.6 0,0 -5.6,6.5 -6.7,15.6 -1.1,9.1 2.2,12.7 6.1,17.5 3.9,4.7 36.4,39.4 35,57.4 0,0 -6.2,-12.5 -16.6,-26.5 -10.4,-14.1 -29.8,-33.8 -37.7,-47 -7.9,-13.2 -4.9,-26.2 -4.9,-26.2 0,0 -15.1,19 -10.4,44.3 0,0 20.4,19.7 20,34.1 0,0 -5.9,-12.1 -22.5,-24.5 C 103.3,110.1 95.6,109.5 81,84 c 0,0 -4.4,22.7 3.8,32 0,0 -1.9,-1.3 -5.3,-2.7 5.5,5.8 8.9,13.7 8.9,22.3 0,11.5 -6.1,22.1 -16.4,28.2 -5.2,3.1 -14.2,4.9 -26.8,5.2 -2.1,15.2 -6.1,27.8 -9.4,36.5 11.2,-9.4 35.1,-26.8 60.9,-29.6 -0.3,-0.1 -5.9,-4.3 -16.5,-5.2 z m 87,-13.2 c 0,0 2.3,-0.6 5.9,2.5 3.6,3 13.9,13.5 14.7,25.5 0,0 -7.7,0.8 -11.8,-3.5 -4.2,-4.3 -13.3,-16.5 -8.8,-24.5 z"
   id="path2" />
	
		<linearGradient
   id="SVGID_1_"
   gradientUnits="userSpaceOnUse"
   x1="32"
   y1="669.54999"
   x2="268.39999"
   y2="669.54999"
   gradientTransform="translate(0,-492)">
		<stop
   offset="0"
   style="stop-color:#546E78"
   id="stop2" />
		<stop
   offset="0.25"
   style="stop-color:#99AEBD"
   id="stop3" />
		<stop
   offset="0.5"
   style="stop-color:#D9EAF3"
   id="stop4" />
		<stop
   offset="0.75"
   style="stop-color:#99AEBD"
   id="stop5" />
		<stop
   offset="1"
   style="stop-color:#546E78"
   id="stop6" />
	</linearGradient>
	<path
   class="st1"
   d="m 176.1,202.6 c -2.8,-6.2 -16.9,-4.8 -22,-0.6 -1.1,0.9 -5.8,4.5 -6.3,8.5 -0.1,1.2 0,2.1 0.4,2.6 3.7,4.1 18.2,3.3 18.2,3.3 0,0 -11.2,5.7 -12.2,11 -0.1,0.4 -0.1,1.2 0.2,1.6 2.8,3.5 17,0.5 17,0.5 0,0 -8.9,9.6 -7.6,12.7 0.3,0.7 2.3,1.9 5.7,2.2 7.3,0.8 21.8,-7.3 21.8,-7.3 0,0 -4.6,13.9 -12.3,21.5 -10.7,10.5 -26.2,16.3 -46.1,16.3 -25.8,0 -41,-9.6 -41,-9.6 0,0 23.9,-0.1 35.1,-10.5 -8,-0.9 -12.3,-5 -12.3,-5 0,0 12,-3 13.1,-14.3 0.6,-5.6 -1.9,-12.5 -6.7,-18.1 -5.9,-6.8 -14.6,-11.2 -24.7,-12.4 -1.8,-0.2 -4.7,-0.3 -8.4,-0.3 -8.5,0 -15.3,0.5 -15.3,0.5 0,0 5.9,-11.6 25.2,-24.6 l -1,0.1 c -24.2,2.5 -46.8,18.9 -58.2,28.4 l -6.7,5.6 c 31,57.4 100.8,99.3 118.1,109.1 17.3,-9.8 87.4,-51.9 118.3,-109.5 -3.4,-7.4 -10.2,-23.9 -13.2,-45.5 -12.6,-0.3 -21.6,-2 -26.8,-5.2 -10.3,-6.1 -16.4,-16.7 -16.4,-28.2 0,-17.9 14.6,-32.5 32.5,-32.5 6,0 11.1,1.5 15.1,3.6 V 75.2 c -26.4,-25.1 -55,-38.1 -70.9,-43.8 -0.4,15.8 -10.5,29.3 -24.4,34.8 -1.2,3.6 -2.5,9.3 -2.5,16 0,4.1 0.9,10.9 5.4,18.5 4.8,8.2 19.7,25.8 30.6,38.7 4.2,4.9 7.8,9.2 10.1,12 10.6,13.1 8.7,33.4 8.7,33.6 -0.1,1.2 -0.4,2.6 -0.7,4 2.8,1.3 4.5,3.1 5.5,4.7 0.7,1.2 1.2,2.4 1.5,3.6 10.8,-9.2 12.8,-22.6 12.8,-22.6 0,0 2.7,9.4 2.9,17.2 0.7,19.4 -7.7,32.7 -14.6,39.7 -10.4,10.5 -25.2,12.8 -25.2,12.8 0,0 4.1,-6.2 4.1,-14.7 0,-2.2 -0.6,-4.1 -1.6,-5.8 -4,-6.2 -16.1,-10.1 -31.2,-7.4 -0.3,-0.1 7.9,-9.8 6,-13.9 z m -131,-98 c 7,-2.6 20.8,-6.1 30.4,1.6 0,0 -0.7,-5.9 -0.7,-8.7 0,-14.1 4.4,-26.7 4.4,-26.7 0,0 6.8,14.2 15.8,25.3 5.8,7.2 10.9,10.6 17.4,15 1.5,1 3.1,2.1 4.8,3.3 l -0.2,-1 c -2.5,-13.8 0.4,-25.8 3.7,-34.4 2.4,-6.2 6.6,-12 9.5,-15.7 C 119.3,56.7 111.8,44.9 111.5,31.3 95.7,37.1 67,50 40.7,75.2 v 31.3 c 0,0 0.1,-0.1 0.4,-0.2 1.2,-0.6 2.6,-1.2 4,-1.7 z m 96.5,-12.7 c 1,1.8 2.3,3.6 3.8,5.6 -0.1,-1.5 0,-3.2 0.2,-5 1.3,-10.7 8,-19.4 13.4,-24.8 -2.8,0.7 -5.8,1 -8.8,1 -4.3,0 -8.5,-0.7 -12.4,-2.1 -0.5,2 -0.9,4.5 -0.9,7.1 -0.1,4.5 0.6,11.3 4.7,18.2 z"
   id="path6"
   style="fill:url(#SVGID_1_)" />
</g>
</svg>
