<?xml version="1.0" encoding="UTF-8" standalone="no"?>
<!-- Generator: Adobe Illustrator 15.1.0, SVG Export Plug-In . SVG Version: 6.00 Build 0)  -->

<svg
   version="1.1"
   id="Layer_1"
   x="0px"
   y="0px"
   width="260.245"
   height="320.00299"
   viewBox="0 0 260.245 320.00299"
   enable-background="new 0 0 300 350"
   xml:space="preserve"
   xmlns="http://www.w3.org/2000/svg"
   xmlns:svg="http://www.w3.org/2000/svg"><defs
   id="defs16">
	
	
	

		
	</defs>

<path
   id="path3"
   style="display:inline;fill:#000001;fill-opacity:1"
   d="m 101.695,0 c 0,0 -48.93,11.128 -91.625,53.369 v 43.964 l 5.008,6.08 c 0,0 5.307,-9.54 18.979,-9.54 13.513,0 24.466,10.96 24.466,24.47 0,9.16 -5.154,16.94 -12.49,21.34 -7.993,4.79 -30.564,4.02 -30.564,4.02 C 12.471,176.083 0,198.753 0,198.753 c 36.217,72.32 130.115,121.25 130.115,121.25 0,0 93.91,-48.93 130.13,-121.25 0,0 -12.48,-22.67 -15.48,-55.05 0,0 -22.57,0.77 -30.56,-4.02 -7.34,-4.4 -12.49,-12.18 -12.49,-21.34 0,-13.51 10.95,-24.47 24.47,-24.47 13.67,0 18.97,9.54 18.97,9.54 l 5.01,-6.08 V 53.369 C 207.475,11.128 158.545,0 158.545,0 c 0,0 2.15,5.332 2.15,11.309 0,16.89 -13.69,30.582 -30.58,30.582 -16.89,0 -30.58,-13.692 -30.58,-30.582 0,-5.977 2.16,-11.309 2.16,-11.309 z m -10.78,12.403 c 0.58,21.121 17.95,38.121 39.2,38.121 21.26,0 38.62,-17 39.21,-38.121 16.21,5.871 45.37,19.028 72.2,44.617 v 31.883 c -4.08,-2.15 -9.2,-3.66 -15.35,-3.66 -18.25,0 -33.1,14.85 -33.1,33.1 0,11.74 6.24,22.48 16.69,28.74 5.3,3.18 14.48,4.94 27.32,5.25 3.11,22.05 9.98,38.85 13.47,46.33 -31.46,58.68 -102.8,101.54 -120.44,111.48 -17.63,-9.94 -88.969,-52.8 -120.435,-111.48 3.495,-7.48 10.36,-24.28 13.47,-46.33 12.84,-0.31 22.022,-2.07 27.321,-5.25 10.448,-6.25 16.685,-17 16.685,-28.74 0,-18.25 -14.847,-33.1 -33.099,-33.1 -6.145,0 -11.261,1.51 -15.35,3.66 V 57.02 c 26.831,-25.586 56,-38.744 72.208,-44.617 z m 21.56,37.517 c 0,0 -15.4,19.326 -10.74,45.083 0,0 20.69,20.1 20.29,34.73 0,0 -5.99,-12.33 -22.81,-25.01 -16.52,-12.46 -24.372,-13.11 -39.211,-39.084 0,0 -1.915,9.835 -0.957,19.304 10.159,7.62 16.746,19.75 16.746,33.4 0,14.8 -7.812,28.32 -20.885,36.15 -5.523,3.31 -13.527,5.33 -24.351,6.13 -1.61,8.83 -3.732,16.69 -5.895,23.35 6.842,-6.61 25.588,-22.35 50.869,-24.62 0,0 -5.753,-4.33 -16.512,-5.28 0,0 24.186,-24.96 65.696,-10.73 0,0 -25.3,-1.51 -40.76,7.36 0,0 14.44,2.49 19.98,9.57 0,0 -26.754,3.38 -42.486,23.46 0,0 9.698,-0.27 14.697,0.34 25.359,3.08 37.919,22.98 36.249,36.67 -1.12,9.16 -7.8,13.42 -7.8,13.42 0,0 6.8,2.77 11.35,-1.88 0,0 -0.84,15.85 -26.65,20.44 0,0 52.5,13.34 72.74,-20.44 0,0 -6.69,2.87 -12.89,2.11 -6.18,-0.75 -14.93,-4.35 -7.27,-14.65 0,0 -13.87,1.81 -12.64,-8.31 0.58,-4.76 5.75,-7.51 5.75,-7.51 0,0 -13.58,1.36 -12.23,-9.71 0.91,-7.5 8.75,-12.34 8.75,-12.34 0,0 -5.15,-5.34 -20.78,-5.92 0,0 7.1,-5.78 23.65,-3.76 16.55,2.01 35.02,10.06 24.23,23.25 0,0 5.22,-0.21 8.31,0.16 3.1,0.38 27.54,4.08 20.33,26.52 0,0 28.72,-9.55 27.71,-45.92 0,0 -4.48,9.97 -16.29,13.72 0,0 4.35,-11.91 -7.81,-13.27 0,0 1.35,-5.15 1.73,-8.25 0.37,-3.09 0.69,-20.03 -7.65,-30.46 -8.33,-10.44 -34.6,-40.28 -41.64,-52.38 -7.05,-12.089 -6.3,-22.69 -5.71,-26.061 0,0 -5.69,6.557 -6.82,15.842 -1.13,9.289 2.23,12.959 6.17,17.789 3.94,4.83 36.97,40.2 35.46,58.5 0,0 -6.24,-12.72 -16.82,-27.06 -10.57,-14.33 -30.23,-34.49 -38.19,-47.959 -7.97,-13.474 -4.91,-26.694 -4.91,-26.694 z m 35.55,90.983 c 0.84,-0.01 2.84,0.25 5.55,2.58 3.61,3.1 14.15,13.8 14.84,25.97 0,0 -7.82,0.73 -12,-3.64 -4.18,-4.37 -13.43,-16.74 -8.81,-24.87 0,0 0.15,-0.03 0.42,-0.04 z" />
</svg>
