<svg xmlns="http://www.w3.org/2000/svg" width="600" height="646.465"><path d="M359.986 646.465c-10.554 0-19.83-6.885-22.918-16.986-3.103-10.036.744-20.945 9.471-26.893.873-.566 84.154-57.826 102.336-133.834.243-.888.5-1.826.808-2.715-2.65-6.626-2.263-14.384 1.583-21.026 2.522-4.219 13.883-24.485 20.396-49.487-2.084-1.52-3.91-3.281-5.43-5.366a23.69 23.69 0 0 1-4.364-18.053c.324-2.278.824-5.365 1.196-9.034-38.125 27.523-94.303 138.457-123.927 213.382-3.717 9.342-12.622 15.224-22.335 15.224h-33.649c-9.665 0-18.634-5.882-22.287-15.16C231.193 501.528 175 390.595 136.94 363.072a151 151 0 0 0 1.196 9.034 24.1 24.1 0 0 1-4.364 18.053 25.8 25.8 0 0 1-5.414 5.366c6.497 25.066 17.859 45.268 20.315 49.487 3.927 6.642 4.235 14.4 1.584 21.026.372.888.63 1.826.824 2.715 18.246 76.008 101.51 133.269 102.335 133.834 8.776 5.948 12.622 16.857 9.47 26.893-3.038 10.101-12.379 16.986-22.916 16.986-22.223 0-119.257-37.931-182.271-126.19-1.697-2.408-2.958-5.058-3.653-7.838a23.3 23.3 0 0 1-5.867-6.368c-17.81-28.04-30.884-58.78-38.836-91.297-.76-3.216-.873-6.497-.372-9.584-1.713-2.666-2.974-5.689-3.54-8.905C1.826 376.453 0 355.621 0 334.481c0-20.848 1.713-41.293 5.059-60.8.759-4.428 2.715-8.34 5.365-11.49-1.211-4.041-1.26-8.47-.194-12.623 4.3-17.115 10.101-33.843 17.164-49.81 2.343-5.366 6.448-9.406 11.313-11.879-.954-5.301-.13-10.974 2.715-16.097 8.517-15.03 18.554-29.802 29.85-43.943a23 23 0 0 1 6.45-5.609c1.001-2.65 2.456-5.187 4.411-7.385a400 400 0 0 1 15.855-17.18c4.347-4.412 8.776-9.212 13.123-13.818 13.835-14.837 26.958-28.914 40.34-37.124 30.868-18.812 57.648-27.588 58.78-27.976a24.8 24.8 0 0 1 7.385-1.13c6.82 0 13.512 2.973 18.182 8.339a28 28 0 0 1 2.91 4.282C253.914 12.752 275.312 0 299.878 0c24.679 0 46.206 12.752 61.366 30.238.808-1.503 1.826-2.893 2.957-4.282 4.606-5.366 11.297-8.34 18.182-8.34 2.473 0 4.93.388 7.386 1.131 1.148.388 27.911 9.164 58.78 27.976 13.382 8.21 26.521 22.287 40.34 37.124 4.298 4.606 8.775 9.406 13.074 13.818 5.544 5.624 10.86 11.426 15.903 17.18 1.956 2.198 3.41 4.735 4.429 7.385a24.9 24.9 0 0 1 6.432 5.609c11.232 14.141 21.269 28.913 29.802 43.943 2.893 5.123 3.717 10.796 2.78 16.097 4.848 2.473 8.953 6.513 11.297 11.879 7.062 15.967 12.88 32.695 17.163 49.81 1.084 4.153.955 8.582-.243 12.622 2.715 3.152 4.606 7.063 5.366 11.491 3.41 19.507 5.107 39.952 5.107 60.8 0 21.14-1.826 41.972-5.43 61.802-.567 3.216-1.827 6.239-3.54 8.905.453 3.087.388 6.368-.372 9.584-7.952 32.517-21.026 63.257-38.82 91.297a23.6 23.6 0 0 1-5.883 6.368c-.694 2.78-1.956 5.43-3.653 7.838-63.014 88.259-160.097 126.19-182.32 126.19" style="fill:#fff"/><path d="M299.88 163.136v.064h-1.583v-.064c-12.752-.76-21.592-11.168-21.592-31.887 0-21.64 22.416-51.2 22.416-51.2s22.416 29.56 22.416 51.2c0 20.719-8.905 31.127-21.657 31.887m68.235-35.928c-1.632-15.967-2.392-32-9.584-54.351C351.323 50.44 328.535 24 299.881 24c-28.784 0-51.2 26.44-58.393 48.857-7.208 22.351-8.032 38.384-9.6 54.351-1.583 16.049-11.119 87.257 68.122 87.257 79.16 0 69.689-71.208 68.105-87.257m163.459 366.045c15.272-24.113 27.895-52.024 35.733-84.154 0 0-21.592-8.468-34.473-11.426-12.88-3.038-35.168-8.469-35.168-8.469-6.254 33.471-21.963 61.625-25.697 67.928zm-59.346-18.877c-20.703 86.303-112.194 148.105-112.194 148.105 12.121 0 102.788-32.258 162.7-116.17zm98.731-82.392c3.281-17.923 5.06-37.123 5.06-57.503 0-20.267-1.714-39.079-4.736-56.695l-62.449 9.47v-17.615l57.649-14.206c-4.17-16.485-9.536-31.823-15.79-46.029l-21.075 8.21-10.424-9.6-.76-12.751L537.7 183.66c-8.533-14.966-17.939-28.477-27.781-40.857l-29.107 24.437-8.84-11.992 27.781-24.63a383 383 0 0 0-14.966-16.227c-17.163-17.551-34.408-38.384-48.792-47.16-28.735-17.6-53.608-25.632-53.608-25.632 11.992 24 10.037 41.228 14.837 64.016 4.8 22.804 10.796 45.592-6.061 88.84-16.792 43.169-74.36 40.777-74.36 40.777v32.387c127.208 4.413 171.2 69.253 171.2 69.253.582 17.293-1.325 32.13-2.456 39.014 0 0 26.521 3.782 40.84 6.562 14.336 2.78 44.574 9.535 44.574 9.535M316.802 296.47v271.208s79.225-200.436 142.804-230.432c0 0-38.383-40.776-142.804-40.776M127.97 457.132c-3.653-6.303-19.378-34.457-25.633-67.928 0 0-22.286 5.43-35.167 8.47-12.865 2.957-34.457 11.425-34.457 11.425 7.822 32.13 20.445 60.04 35.717 84.154zm-50.764 49.18c59.976 83.91 150.578 116.17 162.764 116.17 0 0-91.475-61.803-112.194-148.106zm-3.652-123.863c14.4-2.78 40.905-6.562 40.905-6.562-1.132-6.885-3.023-21.721-2.457-39.014 0 0 43.992-64.84 171.216-69.253v-32.387s-57.648 2.392-74.44-40.776c-16.792-43.249-10.796-66.037-5.996-88.84 4.8-22.789 2.78-40.017 14.836-64.017 0 0-24.872 8.032-53.592 25.632-14.464 8.776-31.628 29.609-48.872 47.16-4.978 5.188-9.972 10.554-14.966 16.226l27.782 24.63-8.776 11.993-29.172-24.437c-9.842 12.38-19.248 25.891-27.7 40.857l19.248 11.604-.825 12.751-10.344 9.6-21.09-8.21a291.5 291.5 0 0 0-15.855 46.029l57.713 14.206v17.616l-62.448-9.47c-3.087 17.615-4.736 36.427-4.736 56.694 0 20.38 1.778 39.58 5.059 57.503 0 0 30.174-6.755 44.509-9.535m209.665-85.98v271.208s-79.24-200.436-142.804-230.432c0 0 38.383-40.776 142.804-40.776"/></svg>