<svg xmlns="http://www.w3.org/2000/svg" xmlns:xlink="http://www.w3.org/1999/xlink" width="600" height="646.396"><radialGradient id="a" cx="0" cy="0" r="1" fx="0" fy="0" gradientTransform="matrix(17.81088 0 0 -17.81087 429.89 372.094)" gradientUnits="userSpaceOnUse" spreadMethod="pad"><stop offset="0" style="stop-color:#8b723c"/><stop offset=".3" style="stop-color:#d2bb7b"/><stop offset=".5" style="stop-color:#ebd491"/><stop offset=".7" style="stop-color:#d2bb7b"/><stop offset="1" style="stop-color:#8b723c"/></radialGradient><radialGradient xlink:href="#a" id="b" cx="0" cy="0" r="1" fx="0" fy="0" gradientTransform="matrix(287.82196 0 0 287.8217 300.02 323.202)" gradientUnits="userSpaceOnUse" spreadMethod="pad"/><path d="M360.011 646.396c-10.552 0-19.828-6.884-22.914-16.984-3.103-10.036.743-20.944 9.47-26.89.807-.567 84.144-57.82 102.324-133.82.243-.889.5-1.827.808-2.715-2.65-6.626-2.263-14.383 1.583-21.024 2.457-4.218 13.882-24.483 20.394-49.482-2.084-1.519-3.91-3.28-5.43-5.365a23.68 23.68 0 0 1-4.363-18.05c.324-2.28.76-5.366 1.196-9.034-38.121 27.52-94.293 138.442-123.914 213.36-3.717 9.34-12.62 15.222-22.333 15.222h-33.645c-9.663 0-18.632-5.883-22.284-15.158-29.67-74.982-85.858-185.904-123.914-213.424.372 3.668.824 6.755 1.196 9.033a24.1 24.1 0 0 1-4.364 18.051c-1.567 2.085-3.393 3.846-5.413 5.365 6.496 25.064 17.856 45.264 20.313 49.482 3.927 6.641 4.234 14.398 1.583 21.024.324.888.63 1.826.824 2.715 18.244 76 101.5 133.254 102.324 133.82a23.95 23.95 0 0 1 9.47 26.89c-3.103 10.1-12.378 16.984-22.915 16.984-22.22 0-119.243-37.928-182.25-126.177-1.698-2.408-2.958-5.058-3.653-7.837a23.3 23.3 0 0 1-5.866-6.367c-17.873-28.038-30.882-58.774-38.832-91.288-.825-3.215-.873-6.496-.373-9.582-1.777-2.667-2.973-5.689-3.539-8.904C1.891 376.412 0 355.582 0 334.445c0-20.846 1.778-41.288 5.123-60.793.759-4.428 2.715-8.339 5.365-11.49-1.212-4.04-1.26-8.468-.194-12.62 4.298-17.114 10.1-33.84 17.162-49.806 2.343-5.365 6.447-9.405 11.312-11.877-1.02-5.3-.13-10.973 2.714-16.096C50 156.735 60.034 141.965 71.33 127.825a23 23 0 0 1 6.448-5.608c1.001-2.65 2.456-5.187 4.411-7.385a400 400 0 0 1 15.853-17.178c4.282-4.411 8.775-9.21 13.122-13.816 13.833-14.835 26.89-28.91 40.335-37.12 30.865-18.81 57.642-27.585 58.774-27.973a24.8 24.8 0 0 1 7.385-1.13c6.82 0 13.51 2.973 18.18 8.338a28 28 0 0 1 2.908 4.282C253.953 12.75 275.348 0 299.911 0c24.677 0 46.137 12.75 61.36 30.235.808-1.503 1.826-2.892 2.957-4.282 4.605-5.365 11.296-8.339 18.18-8.339 2.472 0 4.928.388 7.385 1.131 1.148.388 27.908 9.163 58.709 27.973 13.445 8.21 26.583 22.285 40.4 37.12 4.298 4.605 8.774 9.405 13.073 13.816 5.543 5.624 10.86 11.425 15.901 17.178 1.955 2.198 3.41 4.735 4.428 7.385a24.9 24.9 0 0 1 6.432 5.608c11.23 14.14 21.266 28.91 29.798 43.938 2.893 5.123 3.717 10.795 2.78 16.096 4.848 2.472 8.952 6.512 11.296 11.877 7.062 15.966 12.88 32.692 17.161 49.805 1.084 4.153.955 8.581-.243 12.62 2.715 3.152 4.606 7.063 5.365 11.49 3.41 19.506 5.107 39.948 5.107 60.794 0 21.137-1.826 41.967-5.43 61.796-.63 3.215-1.826 6.237-3.587 8.904.5 3.086.435 6.367-.323 9.582-7.951 32.514-21.024 63.25-38.816 91.288a23.6 23.6 0 0 1-5.883 6.367c-.759 2.78-1.955 5.43-3.652 7.837-63.007 88.25-160.08 126.177-182.3 126.177"/><path d="M241.527 72.849c-7.207 22.349-8.031 38.38-9.599 54.346-1.584 16.046-11.118 87.247 68.114 87.247 79.151 0 69.681-71.2 68.098-87.247-1.632-15.966-2.392-31.997-9.648-54.346-7.207-22.414-29.928-48.852-58.58-48.852-28.78 0-51.194 26.438-58.385 48.852m56.802 90.269c-12.75-.76-21.59-11.167-21.59-31.884 0-21.638 22.414-51.194 22.414-51.194s22.35 29.556 22.35 51.194c0 20.717-8.84 31.124-21.59 31.884v.065h-1.584zm98.915-57.513c4.8 22.802 10.795 45.587-6.06 88.83-16.79 43.164-74.352 40.772-74.352 40.772v32.385c127.195 4.411 171.182 69.245 171.182 69.245.582 17.29-1.325 32.126-2.456 39.01 0 0 26.518 3.781 40.836 6.56 14.333 2.78 44.569 9.535 44.569 9.535 3.28-17.921 5.058-37.12 5.058-57.497 0-20.264-1.713-39.074-4.735-56.689l-62.49 9.47v-17.614l57.69-14.205c-4.169-16.483-9.534-31.819-15.853-46.023l-21.007 8.209-10.424-9.599-.759-12.75 19.263-11.603c-8.533-14.964-17.938-28.474-27.78-40.852l-29.103 24.434-8.84-11.991 27.78-24.628a383 383 0 0 0-14.965-16.224C467.636 96.83 450.394 76 436.011 67.225c-28.797-17.598-53.602-25.63-53.602-25.63 11.99 23.998 9.97 41.224 14.835 64.01m-233.236-38.38C149.61 76 132.383 96.83 115.205 114.38c-4.977 5.187-9.97 10.552-14.964 16.224l27.779 24.628-8.775 11.99-29.168-24.433c-9.842 12.378-19.247 25.888-27.699 40.852l19.247 11.603-.824 12.75-10.343 9.599-21.088-8.21a291.5 291.5 0 0 0-15.853 46.024l57.707 14.205v17.614l-62.442-9.47c-3.086 17.615-4.735 36.425-4.735 56.69 0 20.377 1.778 39.575 5.058 57.496 0 0 30.17-6.755 44.505-9.534 14.333-2.78 40.9-6.561 40.9-6.561-1.13-6.884-3.086-21.72-2.456-39.01 0 0 43.987-64.834 171.198-69.245v-32.385s-57.642 2.392-74.433-40.771c-16.79-43.244-10.794-66.03-5.995-88.831 4.8-22.786 2.78-40.012 14.835-64.01 0 0-24.87 8.032-53.651 25.63m152.824 500.391s79.216-200.415 142.789-230.408c0 0-38.38-40.77-142.789-40.77zM140.398 337.208c63.622 29.993 142.854 230.408 142.854 230.408V296.437c-104.41 0-142.854 40.771-142.854 40.771m331.585 119.875 59.598 36.117c15.271-24.11 27.892-52.019 35.73-84.145 0 0-21.655-8.467-34.47-11.425-12.879-3.038-35.164-8.467-35.164-8.467-6.318 33.467-21.96 61.617-25.694 67.92M67.226 397.63c-12.863 2.958-34.517 11.425-34.517 11.425 7.886 32.126 20.507 60.034 35.778 84.145l59.533-36.117c-3.652-6.303-19.376-34.453-25.63-67.92 0 0-22.284 5.43-35.164 8.467m292.785 224.784c12.169 0 102.826-32.255 162.73-116.157l-50.5-31.932c-20.7 86.294-112.23 148.09-112.23 148.09M77.261 506.256c59.905 83.902 150.562 116.157 162.747 116.157 0 0-91.465-61.795-112.182-148.089z" style="fill:url(#b)"/></svg>