<svg xmlns="http://www.w3.org/2000/svg" width="600" height="610.963"><path d="M586.693 307.285c-3.819-.367-15.519-2.215-23.568-6.752-10.448-5.91-15.274-13.716-16.48-26.851-.948-10.8-1.727-21.66-2.445-32.458-1.069-14.907-2.2-30.242-3.818-45.455h7.637l4.124-7.699 10.493-19.932 1.68-3.223V.123H319.748l5.972 18.91.352.96h-17l6.14 19.032 13.365 41.882c.411 1.252 39.85 126.851 39.85 219.275 0 76.66-17.184 109.362-57.507 109.362h-7.637c-61.34 0-68.016-90.392-68.016-129.234 0-91.049 38.185-214.02 39.85-219.275l13.365-41.942 6.033-18.97h-19.871L53.888 0H39.33v195.768h26.302c-2.321 17.244-4.23 34.122-5.666 50.297l-.352 3.941c-2.337 27.203-4.476 43.073-20.773 51.84-4.704 2.505-18.07 4.72-25.645 5.438C5.727 307.987 0 314.31 0 321.84c.061 7.515 5.85 13.777 13.304 14.434 6.812.596 18.741 2.75 24.056 5.667 16.817 9.195 25.478 29.83 27.738 44.753 13.838 89.078 59.31 161.63 124.942 199.159 29.357 16.648 64.548 25.11 104.643 25.11h3.818c84.787 0 166.885-55.536 209.194-141.514 14.495-29.357 22.972-59.676 29.953-88.07 5.422-22.194 12.769-33.894 25.355-40.446 5.3-2.81 16.648-4.414 23.033-4.659 7.637-.305 13.777-6.507 13.96-14.205.168-7.637-5.62-14.128-13.303-14.785"/><path d="M556.022 313.18c-14.617-8.171-22.147-20.04-23.873-38.185-2.627-29.418-3.696-58.76-7.515-88.116-.183-1.848-.473-3.757-.717-5.667h15.335l10.554-19.871V14.679H339.56c1.374 4.185 3.88 12.051 6.384 19.872H329.05a36383 36383 0 0 1 13.365 42.003c.428 1.253 40.583 128.104 40.583 223.628 0 49.992-5.193 123.919-72.078 123.919h-7.637c-74.522 0-82.572-100.534-82.572-143.79 0-95.586 40.156-222.376 40.568-223.69 0 0 10.08-31.678 13.365-41.942-13.426 0-220.756-.122-220.756-.122v166.655h28.516l-.84 6.202a1084 1084 0 0 0-7.102 59.966c-2.443 27.798-3.513 53.688-28.7 67.236-9.546 5.193-31.205 7.164-31.205 7.164s19.276 1.603 29.846 7.392c19.856 10.921 31.862 34.077 35.13 55.247 11.578 74.95 49.886 150.068 117.718 188.787 29.54 16.817 63.555 23.263 97.433 23.263h3.819c85.855 0 159.308-58.592 196.18-133.465 13.487-27.387 21.536-55.674 28.822-85.138 5.193-21.063 13.426-39.743 32.748-49.824 10.63-5.544 29.234-6.262 29.234-6.262s-16.816-1.436-29.463-8.6" style="fill:#fff"/><path d="m440.505 100 8.599 18.91 8.645-18.91 18.91-8.645-18.91-8.6-8.645-18.97-8.6 18.97-18.97 8.6zm-283.58 0 8.646 18.91 8.6-18.91 18.97-8.645-18.97-8.6-8.6-18.97-8.645 18.97-18.91 8.6zm23.324 352.984c0 10.86 8.768 19.627 19.567 19.627 10.86 0 19.642-8.767 19.642-19.627s-8.783-19.642-19.642-19.642c-10.8 0-19.567 8.782-19.567 19.642m-37.345-78.463c0 10.86 8.768 19.627 19.628 19.627 10.798 0 19.627-8.767 19.627-19.627s-8.829-19.627-19.628-19.627c-10.86 0-19.627 8.767-19.627 19.627m-11.455-85.138c0 10.86 8.767 19.628 19.627 19.628 10.799 0 19.566-8.768 19.566-19.628s-8.767-19.627-19.566-19.627c-10.86 0-19.627 8.767-19.627 19.627m5.728-88.971c0 10.86 8.767 19.642 19.627 19.642s19.566-8.782 19.566-19.642c0-10.845-8.706-19.627-19.566-19.627s-19.627 8.782-19.627 19.627m88.36 275.544c10.554 34.413 58.836 47.304 58.836 47.304-16.236-20.528-.489-39.667-.489-39.667-28.211 10.02-58.347-7.637-58.347-7.637m81.793 7.149c-10.799 0-19.566 8.828-19.566 19.627s8.767 19.642 19.566 19.642c10.86 0 19.642-8.844 19.642-19.642 0-10.8-8.782-19.627-19.642-19.627m22.972-.473s15.824 19.153-.473 39.743c0 0 48.327-12.953 58.836-47.38 0 0-30.136 17.718-58.362 7.637m83.839-49.29c-10.86 0-19.627 8.783-19.627 19.643s8.767 19.627 19.627 19.627 19.627-8.767 19.627-19.627-8.767-19.643-19.627-19.643m37.345-78.448c-10.86 0-19.627 8.768-19.627 19.628s8.767 19.627 19.627 19.627c10.799 0 19.566-8.767 19.566-19.627s-8.767-19.628-19.566-19.628m11.456-85.137c-10.86 0-19.627 8.767-19.627 19.627s8.767 19.627 19.627 19.627 19.627-8.767 19.627-19.627-8.767-19.627-19.627-19.627m-5.728-88.972c-10.799 0-19.627 8.783-19.627 19.627 0 10.86 8.828 19.643 19.627 19.643 10.86 0 19.627-8.783 19.627-19.643 0-10.844-8.767-19.627-19.627-19.627M305.192 544.324c-153.107 0-191.354-164.548-191.354-246.83 0-82.281 17.245-168.381 17.245-168.381H96.609V46.847h134s-42.126 132.029-42.126 233.464c0 101.374 36.337 176.003 114.8 176.003h7.698c78.402 0 114.724-74.629 114.724-176.003 0-101.435-42.05-233.464-42.05-233.464h133.938v82.266h-34.427s17.244 86.1 17.244 168.382c0 82.281-38.307 246.829-191.4 246.829z"/></svg>