<svg xmlns="http://www.w3.org/2000/svg" xmlns:xlink="http://www.w3.org/1999/xlink" width="600" height="611.528"><linearGradient id="a" x1="0" x2="1" y1="0" y2="0" gradientTransform="scale(37.40723 -37.40723)rotate(40 23.568 7.502)" gradientUnits="userSpaceOnUse" spreadMethod="pad"><stop offset="0" style="stop-color:#536e78"/><stop offset=".3" style="stop-color:#99aebc"/><stop offset=".5" style="stop-color:#d9eaf3"/><stop offset=".7" style="stop-color:#99aebc"/><stop offset="1" style="stop-color:#536e78"/></linearGradient><linearGradient xlink:href="#a" id="b" x1="0" x2="1" y1="0" y2="0" gradientTransform="rotate(40 -16.128 130.945)scale(571.8891)" gradientUnits="userSpaceOnUse" spreadMethod="pad"/><path d="M575.875 326.724c6.987-2.446 14.753-3.042 24.125-3.868 0 0-10.151-.428-22.688-5.259-21.021-8.072-31.233-21.679-33.267-43.892-2.874-30.883-3.944-61.75-7.95-92.632-.167-1.91-.473-3.944-.703-5.916h16.053l11.114-20.9V.123H341.66c1.422 4.419 3.99 12.72 6.62 20.9h-17.734c3.47 10.808 14.034 44.136 14.034 44.136.412 1.315 42.639 134.613 42.639 235.056 0 52.561-5.366 130.256-75.723 130.256h-7.995c-78.352 0-86.776-105.703-86.776-151.155 0-100.443 42.165-233.74 42.639-235.056 0 0 10.564-33.328 14.034-44.137C259.303.122 41.323 0 41.323 0s.062 165.067.062 175.157h29.98l-.963 6.513c-3.042 20.899-5.55 41.92-7.4 63.002-2.858 32.61-3.638 63.248-40.544 74.958-6.512 2.08-14.57 3.104-22.458 3.272 0 0 9.25.061 21.021 3.532 27.229 7.934 43.296 36.6 47.302 62.284 12.124 78.765 52.423 157.728 123.743 198.395 31.05 17.673 66.763 24.415 102.354 24.415h4.051c90.247 0 167.406-61.566 206.162-140.223 14.157-28.773 22.626-58.524 30.27-89.452 6.04-24.43 15.594-46.277 40.973-55.129"/><path d="M387.937 33.924s44.199 138.786 44.199 245.391c0 106.543-38.16 185.002-120.578 185.002H303.5c-82.48 0-120.7-78.459-120.7-185.002 0-106.605 44.305-245.39 44.305-245.39H86.3v86.47h36.187s-18.1 90.536-18.1 177.006c0 86.485 40.253 259.364 201.13 259.364h3.945c160.893 0 201.132-172.879 201.132-259.364 0-86.47-18.086-177.007-18.086-177.007h36.187v-86.47Z" style="fill:url(#b)"/><path d="M174.147 460.802c0 11.343 9.25 20.608 20.593 20.608 11.405 0 20.609-9.265 20.609-20.608 0-11.405-9.204-20.67-20.609-20.67-11.343 0-20.593 9.265-20.593 20.67m-39.183-82.48a20.57 20.57 0 0 0 20.608 20.608c11.344 0 20.593-9.188 20.593-20.608 0-11.405-9.25-20.593-20.593-20.593-11.405 0-20.608 9.188-20.608 20.593M122.9 288.87c0 11.344 9.204 20.609 20.609 20.609 11.344 0 20.593-9.265 20.593-20.608 0-11.405-9.25-20.67-20.593-20.67-11.405 0-20.609 9.264-20.609 20.67m5.978-93.518c0 11.405 9.25 20.593 20.654 20.593 11.344 0 20.548-9.188 20.548-20.593s-9.204-20.609-20.548-20.609c-11.405 0-20.654 9.204-20.654 20.609m4.051-113.118s27.122.123 27.122 27.121c0 0 2.033-27.12 27.167-27.12 0 0-27.167-1.01-27.167-31.173 0 0 0 31.172-27.122 31.172m88.81 402.691c11.099 36.188 61.87 49.748 61.87 49.748-17.076-21.617-.474-41.737-.474-41.737-29.69 10.564-61.397-8.01-61.397-8.01m85.996 7.521c-11.405 0-20.609 9.265-20.609 20.609 0 11.405 9.204 20.608 20.609 20.608s20.654-9.203 20.654-20.608c0-11.344-9.25-20.609-20.654-20.609m24.125-.536s16.603 20.135-.474 41.753c0 0 50.757-13.561 61.81-49.748 0 0-31.661 18.575-61.336 7.995m88.09-51.78c-11.343 0-20.608 9.264-20.608 20.669 0 11.344 9.265 20.608 20.609 20.608 11.405 0 20.654-9.264 20.654-20.608 0-11.405-9.25-20.67-20.654-20.67m39.29-82.403c-11.466 0-20.67 9.188-20.67 20.593 0 11.42 9.204 20.609 20.67 20.609 11.344 0 20.548-9.189 20.548-20.609 0-11.405-9.204-20.593-20.547-20.593m12-89.528c-11.404 0-20.592 9.265-20.592 20.67 0 11.344 9.188 20.608 20.593 20.608s20.608-9.264 20.608-20.608c0-11.405-9.203-20.67-20.608-20.67m-6.024-93.457c-11.359 0-20.608 9.204-20.608 20.609s9.25 20.593 20.608 20.593c11.405 0 20.655-9.188 20.655-20.593s-9.25-20.609-20.655-20.609M454.701 51.062c0 30.164-27.167 31.173-27.167 31.173 25.134 0 27.167 27.12 27.167 27.12 0-26.998 27.121-27.12 27.121-27.12-27.121 0-27.121-31.173-27.121-31.173"/></svg>