<svg xmlns="http://www.w3.org/2000/svg" width="600" height="610.963"><path d="M39.332 0v195.768h26.301c-2.322 17.244-4.23 34.123-5.666 50.298l-.352 3.94c-2.337 27.203-4.476 43.072-20.773 51.84-4.705 2.505-18.069 4.72-25.645 5.437C5.728 307.986 0 314.31 0 321.84c.061 7.515 5.85 13.777 13.305 14.433 6.812.597 18.74 2.751 24.056 5.668 16.817 9.195 25.476 29.83 27.737 44.752 13.838 89.079 59.31 161.632 124.943 199.16 29.357 16.65 64.548 25.11 104.643 25.11h3.818c84.786 0 166.884-55.536 209.193-141.514 14.495-29.357 22.973-59.676 29.953-88.07 5.423-22.193 12.768-33.893 25.354-40.445 5.3-2.81 16.649-4.416 23.033-4.66 7.637-.306 13.778-6.508 13.961-14.206.167-7.637-5.62-14.128-13.303-14.785v.002c-3.818-.366-15.519-2.215-23.568-6.752-10.447-5.91-15.274-13.716-16.48-26.851-.947-10.8-1.726-21.659-2.444-32.457-1.069-14.908-2.201-30.244-3.82-45.457h7.639l4.123-7.698 10.494-19.931 1.68-3.225V.123H319.747l5.973 18.908.351.963h-17l6.139 19.031 13.365 41.881c.412 1.253 39.85 126.852 39.85 219.276 0 76.66-17.183 109.361-57.506 109.361h-7.637c-61.34 0-68.015-90.39-68.015-129.232 0-91.05 38.184-214.022 39.85-219.276l13.364-41.943L294.516.123h-19.871L53.887 0Zm14.555 14.557s207.332.123 220.758.123c-3.284 10.264-13.366 41.941-13.366 41.941-.412 1.314-40.568 128.104-40.568 223.69 0 43.256 8.05 143.79 82.572 143.79h7.637c66.885 0 72.078-73.927 72.078-123.92 0-95.523-40.156-222.374-40.584-223.626 0 0-10.08-31.74-13.363-42.004h16.892c-2.505-7.82-5.01-15.686-6.384-19.871h210.248v146.66l-10.555 19.873h-15.336c.244 1.91.535 3.818.719 5.666 3.818 29.357 4.886 58.7 7.513 88.117 1.726 18.146 9.256 30.012 23.873 38.184h.002c12.647 7.163 29.463 8.6 29.463 8.6s-18.603.718-29.234 6.263c-19.322 10.08-27.553 28.76-32.746 49.822-7.286 29.464-15.335 57.752-28.822 85.139-36.872 74.873-110.326 133.465-196.182 133.465h-3.818c-33.878 0-67.894-6.445-97.434-23.262-67.832-38.72-106.139-113.84-117.717-188.789-3.268-21.17-15.274-44.325-35.13-55.246-10.57-5.789-29.846-7.393-29.846-7.393s21.658-1.97 31.205-7.164c25.187-13.548 26.257-39.437 28.7-67.236a1084 1084 0 0 1 7.102-59.965l.84-6.201H53.887Zm42.722 32.29v82.266h34.473s-17.244 86.1-17.244 168.381 38.246 246.83 191.353 246.83h3.819c153.092 0 191.4-164.548 191.4-246.83 0-82.281-17.244-168.38-17.244-168.38h34.428V46.847h-133.94s42.051 132.027 42.051 233.463c0 101.374-36.323 176.003-114.725 176.003h-7.697c-78.463 0-114.8-74.63-114.8-176.003 0-101.436 42.126-233.463 42.126-233.463zm68.961 16.938 8.6 18.97 18.97 8.6L174.17 100l-8.6 18.91-8.644-18.91-18.91-8.645 18.91-8.6zm283.534 0 8.644 18.97 18.91 8.6-18.91 8.645-8.644 18.91-8.6-18.91-18.97-8.645 18.97-8.6Zm-292.3 117c10.86 0 19.565 8.783 19.565 19.627 0 10.86-8.704 19.643-19.564 19.643s-19.63-8.783-19.63-19.643c0-10.844 8.77-19.627 19.63-19.627m300.41 0c10.86 0 19.628 8.783 19.628 19.627 0 10.86-8.767 19.643-19.627 19.643-10.799 0-19.627-8.783-19.627-19.643 0-10.844 8.828-19.627 19.627-19.627m-306.138 88.97c10.799 0 19.567 8.768 19.567 19.628s-8.768 19.627-19.567 19.627c-10.86 0-19.627-8.767-19.627-19.627s8.767-19.627 19.627-19.627m311.867 0c10.86 0 19.627 8.77 19.627 19.63s-8.767 19.627-19.627 19.627-19.627-8.767-19.627-19.627 8.767-19.63 19.627-19.63m-300.412 85.14c10.799 0 19.627 8.767 19.627 19.626s-8.828 19.627-19.627 19.627c-10.86 0-19.627-8.767-19.627-19.627s8.767-19.626 19.627-19.626m288.955 0c10.8 0 19.567 8.767 19.567 19.626s-8.768 19.627-19.567 19.627c-10.86 0-19.627-8.767-19.627-19.627s8.767-19.626 19.627-19.626m-251.67 78.447c10.86 0 19.641 8.782 19.641 19.642s-8.78 19.627-19.64 19.627c-10.8 0-19.567-8.767-19.567-19.627s8.768-19.642 19.566-19.642m214.327 0c10.86 0 19.627 8.782 19.627 19.642s-8.768 19.627-19.627 19.627c-10.86 0-19.627-8.767-19.627-19.627s8.767-19.642 19.627-19.642m-25.479 41.652c-10.509 34.428-58.834 47.381-58.834 47.381 16.297-20.59.473-39.744.473-39.744 28.226 10.08 58.361-7.637 58.361-7.637m-163.127.963s30.137 17.657 58.348 7.637c0 0-15.748 19.137.488 39.666 0 0-48.282-12.89-58.836-47.303m81.793 7.148c10.86 0 19.643 8.829 19.643 19.627 0 10.8-8.783 19.643-19.643 19.643-10.799 0-19.566-8.844-19.566-19.643 0-10.798 8.767-19.627 19.566-19.627"/></svg>