<?xml version="1.0" encoding="UTF-8"?><svg id="Layer_2" xmlns="http://www.w3.org/2000/svg" width="937.43166" height="600.42377" xmlns:xlink="http://www.w3.org/1999/xlink" viewBox="0 0 937.43166 600.42377"><defs><style>.cls-1{fill:url(#linear-gradient-2);}.cls-2{fill:#fff;}.cls-3{fill:url(#radial-gradient);}.cls-4{fill:url(#radial-gradient-3);}.cls-5{fill:url(#radial-gradient-2);}.cls-6{fill:#fefefe;}.cls-7{fill:url(#linear-gradient);}</style><radialGradient id="radial-gradient" cx="929.53483" cy="141.0266" fx="929.53483" fy="141.0266" r="279.59698" gradientTransform="translate(1197.96759 263.77791) rotate(170) scale(1 1.35)" gradientUnits="userSpaceOnUse"><stop offset="0" stop-color="#bf99c3"/><stop offset=".15778" stop-color="#af86b5"/><stop offset=".47399" stop-color="#865693"/><stop offset=".73" stop-color="#612c75"/></radialGradient><linearGradient id="linear-gradient" x1="657.08696" y1="681.37701" x2="657.08696" y2="544.15436" gradientTransform="translate(0 -190)" gradientUnits="userSpaceOnUse"><stop offset=".2" stop-color="#612c75"/><stop offset=".38086" stop-color="#80508f"/><stop offset=".60796" stop-color="#a277ab"/><stop offset=".789" stop-color="#b790bc"/><stop offset=".9" stop-color="#bf99c3"/></linearGradient><radialGradient id="radial-gradient-2" cx="718.10902" cy="412.16167" fx="718.10902" fy="412.16167" r="281.16684" gradientTransform="translate(54.81155 -411.7618) rotate(8) scale(1 1.35)" xlink:href="#radial-gradient"/><linearGradient id="linear-gradient-2" x1="281.07281" y1="682.94928" x2="281.07281" y2="544.36725" xlink:href="#linear-gradient"/><radialGradient id="radial-gradient-3" cx="469.45289" cy="509.51031" fx="469.45289" fy="509.51031" r="286.05444" gradientTransform="translate(0 -168.63536) scale(1 .93)" gradientUnits="userSpaceOnUse"><stop offset="0" stop-color="#bf99c3"/><stop offset=".21973" stop-color="#bc96c1"/><stop offset=".36889" stop-color="#b48dba"/><stop offset=".4971" stop-color="#a77eaf"/><stop offset=".61345" stop-color="#9568a0"/><stop offset=".72078" stop-color="#7d4c8c"/><stop offset=".82" stop-color="#612c75"/></radialGradient></defs><g id="Layer_2-2"><path class="cls-3" d="M164.50834,500.56158c-1.07031-.60254-3.48047-1.89648-5.81055-3.14844-4.95557-2.66113-7.4082-3.98828-8.48291-4.65918-53.61963-33.43945-90.84229-73.92773-113.7959-123.77734-21.94287-47.65527-30.10645-102.41309-24.95703-167.40332,3.64404-45.98828,8.33057-87.33057,28.85693-127.57471.22559-.44238.53027-1.10547.91162-1.92529.59814-1.28564,1.34424-2.88818,2.21533-4.65137l11.54248-23.3584,7.0498,25.08301c13.09424,46.5874,41.51172,83.37109,76.01757,98.396,13.54883,5.8999,27.47656,8.41699,46.57227,8.41699,6.48438,0,13.08789-.27979,18.69238-.55322,3.41895-.1665,4.18311-.21289,6.29004-.38135l8.62451-.68945,31.52148,138.33545-5.77295,3.81641c-56.46338,37.32617-66.27979,115.80859-64.57178,175.07324l.50928,17.68164-15.4126-8.68066h.00002Z"/><path class="cls-7" d="M698.36871,487.37994c-4.87988-1.56152-10.83691-3.05078-17.70605-4.42578-7.58203-1.51758-15.58887-2.28711-23.79688-2.28711-13.22559,0-26.93555,1.95605-40.74902,5.81445l-13.81836,3.85938,1.16211-14.30078c1.87305-23.04883,8.22754-66.34961,29.74121-97.38477,1.71191-2.46973,6.06348-7.9873,11.0332-13.06152,7.85254-8.01855,13.65527-11.43945,19.40137-11.43945,1.18945,0,2.35938.15723,3.47754.4668,15.76758,4.37207,30.03809,33.24805,30.17773,33.53906,15.19824,31.59961,15.34961,60.65723,14.11621,90.11328l-.54883,13.10352-12.49023-3.99707Z"/><path class="cls-5" d="M758.43023,491.55573c2.50488-85.45898-19.25098-144.38184-64.66504-175.13086l-5.66309-3.83496,32.13672-141.02148,9.52051,1.86963c3.7168.72949,14.57227,2.68506,16.35938,2.94678,6.83398,1.00098,12.60645,1.4873,17.64648,1.48682,13.86816,0,24.51172-3.45752,43.80273-14.22803,39.84277-22.24561,57.7041-60.56689,69.9209-95.11865l8.88184-25.12061,9.83887,24.76123c2.79297,7.02783,5.38184,14.42773,7.29199,20.83594,24.71289,82.93359,30.31934,157.52783,16.66602,221.71045-16.08594,75.61133-58.7793,135.70898-126.89551,178.62402-1.41895.89355-18.85938,10.78223-20.73145,11.62695l-14.57812,6.58105.46777-15.98828Z"/><path class="cls-1" d="M226.42875,479.06354c-.93848-43.97559,1.21826-93.25781,38.9258-121.5166,2.73438-2.0498,6.11768-3.17969,9.5249-3.17969,3.66846,0,7.23145,1.29102,10.03271,3.63574,36.68896,30.71289,45.79492,81.95703,49.45215,117.83008l1.50879,14.79492-14.27051-4.18457c-12.85791-3.76953-25.87012-5.68164-38.6748-5.68164-14.72461,0-29.23486,2.52441-43.12842,7.50293l-13.07471,4.68457-.2959-13.88574h-.00002Z"/><path class="cls-4" d="M461.2012,575.17877c-17.73975-21.54785-33.12109-35.95898-49.87354-46.72754-.78076-.50195-2.33105-1.4375-4.12646-2.52148-19.50928-11.77051-23.7373-14.91406-24.18408-21.46777-.0791-1.16016-.19336-2.99219-.3291-5.1748-.35352-5.67969-.8374-13.45703-1.23926-18.05078-5.17285-59.10156-23.72168-136.09766-82.70947-167.28027l-4.10059-2.16797-42.84961-195.32861,46.25879-71.28564,1.354,31.24756c1.31787,30.41846,9.28271,46.20898,27.49268,54.50292,4.05078,1.84473,6.23926,2.80762,7.84375,2.80762.979,0,2.30518-.31641,4.04346-.96631l103.74072-55.43994,25.67725-54.39551,27.00391,54.30762,106.89743,56.16309c34.21387-5.02588,36.27246-47.875,36.33008-56.61377l.2168-32.56934,44.07324,65.94971,4.39551,7.35938-43.96973,194.37939-4.19043,2.12695c-50.45605,25.60938-69.57715,90.88965-75.45508,117.76758-2.70117,12.34473-3.68652,23.96387-4.72949,36.26465-.41992,4.95215-.85352,10.07227-1.41113,15.33594-.09082.85938-.20215,2.08984-.33301,3.52832-1.05371,11.56543-1.75879,17.2793-3.14941,20.56738-2.09473,4.95312-7.38672,8.24023-15.84668,13.19238-1.61914.94727-3.45312,2.02148-4.18359,2.53418-23.50684,16.49609-42.20508,33.47363-57.16211,51.90137l-7.70996,9.49902-7.7749-9.44531h.00003Z"/><path class="cls-2" d="M52.41119,71.85193c11.9748,42.60651,39.8389,86.6521,81.6523,104.85919,16.91029,7.36346,33.23312,9.24841,50.56508,9.24841,6.23766,0,12.60519-.24408,19.17903-.56476,3.4166-.16663,4.30991-.2182,6.59981-.40143l28.0616,123.1517c-59.07339,39.05249-70.9529,117.78699-69.05321,183.70352-2.7556-1.55179-12.3266-6.5921-13.91-7.57962C50.64929,418.87476,11.71139,325.03226,21.4308,202.36325c3.50919-44.28989,7.7748-84.56747,27.7962-123.82138.6025-1.18134,1.7039-3.69354,3.1842-6.68994M57.56379,16.26764l-23.0838,46.72583c-.9335,1.88971-1.7312,3.60406-2.3136,4.8559-.28441.61108-.63831,1.37177-.7605,1.61456C10.04849,111.33704,5.22299,153.71033,1.4933,200.78354c-10.7202,135.29941,36.19589,233.57932,143.4289,300.4556,1.3356.83289,3.6617,2.0936,9.0472,4.9856,2.1795,1.17041,4.6498,2.49701,5.6326,3.05051l30.8246,17.35867-1.0191-35.3616c-1.6349-56.72748,7.4632-131.65213,60.0909-166.44339l11.54568-7.63269-3.07492-13.49451-28.0616-123.1517-3.8448-16.87311-17.2504,1.38013c-1.98621.15887-2.6568.1994-5.9789.36139-5.4846.26758-11.9361.54108-18.2049.54108-17.6357,0-30.3701-2.26849-42.58051-7.58539-37.4224-16.2951-60.8947-58.17438-70.3829-91.93359l-14.10139-50.17291h0s.00003.00003.00003.00003ZM663.63666,364.15424c.28375,0,.55298.03372.80579.10379,8.48877,2.35352,20.07904,20.42096,23.83789,28.23639,13.55713,28.18875,14.43097,54.43314,13.13623,85.36124-5.82202-1.86337-12.41974-3.43182-18.79065-4.70688-8.47467-1.69598-17.10901-2.48138-25.7608-2.48138-14.68182,0-29.40717,2.26379-43.43768,6.18213,2.48346-30.56018,10.27002-66.931,27.99268-92.49701,3.07343-4.43372,16.07849-20.1983,22.21655-20.1983M663.63666,344.15424c-10.99188,0-19.96063,7.71829-26.54614,14.44244-5.05951,5.16592-9.82281,11.06598-12.10736,14.36172-21.70172,31.306-29.10278,72.89508-31.49005,102.27118l-2.32428,28.60138,27.63812-7.71851c12.93756-3.61304,25.74219-5.44504,38.05817-5.44504,7.55109,0,14.89789.70407,21.83624,2.09256,6.50189,1.30124,12.09338,2.6955,16.61871,4.14389l24.98187,7.99561,1.09711-26.20731c1.237-29.54837,1.09039-61.21295-15.09491-94.86618-2.25037-4.67908-6.65948-12.29858-12.2851-19.65118-8.2627-10.79913-15.96301-16.89682-24.23315-19.18976-1.98914-.55139-4.05768-.83081-6.14917-.83081h-.00006ZM886.9162,71.8584c2.49554,6.27954,5.03925,13.414,7.00134,19.99872,44.17224,148.2355,35.06921,300.1553-105.97516,389.01758-1.88672,1.1886-18.55304,10.53912-19.51593,10.97391,1.95081-66.5654-10.09381-143.78207-69.0553-183.70432l28.461-124.89389c3.62354.71149,14.72369,2.71936,16.83801,3.02899,7.15161,1.0473,13.37274,1.59241,19.09503,1.59241,16.95111,0,29.49841-4.78857,48.67737-15.49683,39.74829-22.19287,59.71442-58.77271,74.47363-100.5166M885.82257,14.95343l-17.76251,50.2381c-16.43457,46.4826-35.98376,73.31506-65.36737,89.72101-17.78784,9.9314-26.883,12.95929-38.92743,12.95929-4.55188,0-9.84998-.45178-16.1972-1.38129-1.55627-.23004-12.10199-2.12305-15.88226-2.8653l-19.04199-3.73914-4.31171,18.92059-28.461,124.89392-3.039,13.336,11.32587,7.66861c42.39459,28.70499,62.6748,84.74298,60.2771,166.55746l-.93732,31.98077,29.15955-13.16711c2.7851-1.2576,20.26886-11.22339,21.94568-12.27979,70.48633-44.40848,114.67712-106.65277,131.34552-185.00409,14.0061-65.8374,8.33228-142.0925-16.86383-226.64688-1.99231-6.6861-4.68506-14.3833-7.58246-21.67371l-19.67963-49.51849h0s0,.00003,0,.00003ZM274.87988,364.36774c1.28912,0,2.57123.43082,3.61493,1.3045,32.0072,26.79382,41.82819,71.02933,45.92151,111.17584-13.70184-4.01743-27.61353-6.08575-41.48987-6.08575-15.66882,0-31.29166,2.63867-46.50012,8.08792-.85239-39.95886.40781-87.43292,34.92545-113.30142,1.0459-.78384,2.29022-1.18109,3.52814-1.18109M274.87985,344.36777c-5.55536,0-11.06793,1.83844-15.52231,5.17667-19.21181,14.39789-32.07899,35.58731-38.24417,62.97971-4.90207,21.78024-5.14751,44.95425-4.6825,66.75259l.59238,27.77075,26.14919-9.36938c12.80756-4.58899,26.18275-6.91583,39.75401-6.91583,11.85251,0,23.91843,1.7757,35.8627,5.27783l28.54092,8.36832-3.01685-29.58908c-2.67288-26.21454-6.983-46.97009-13.56424-65.31879-8.90045-24.81464-22.16193-44.72034-39.41617-59.16412-4.59787-3.849-10.44095-5.96869-16.45288-5.96869h0l-.00009.00003ZM468.43371,45.86096l19.25516,38.72516,112.48166,59.09662c34.57355-2.87921,48.05591-36.0412,48.26062-66.82886l25.83472,38.65906,2.21539,3.70825-42.05133,185.89471c-45.42212,23.0553-70.23755,76.72412-80.69788,124.54858-3.96643,18.13483-4.3927,34.51483-6.31543,52.6846-.46832,4.42542-1.47168,18.23471-2.74762,21.25235-1.29401,3.06024-12.98492,8.92456-16.56384,11.43616-22.08871,15.50079-42.14084,32.78815-59.18402,53.78577-15.37329-18.67377-31.85965-35.71802-52.18552-48.78424-4.28848-2.75671-23.57108-13.75259-23.74179-16.25824-.28131-4.12885-1.01129-16.88458-1.58304-23.41696-5.65411-64.60022-26.51105-142.74481-87.99835-175.24847l-40.96011-186.71716,26.95883-41.54437c1.15375,26.63403,7.19916,51.26544,33.33871,63.17108,4.9147,2.23846,8.18137,3.70691,11.98865,3.70691,2.35599,0,4.91928-.56256,8.20734-1.85303l107.2074-57.29285,18.28049-38.72504M467.96631,0l-17.61871,37.3233-15.45609,32.74188-100.01608,53.44971c-1.04919-.42181-2.60794-1.13177-3.83575-1.69098-14.43387-6.57416-20.5033-19.42517-21.64728-45.83557l-2.70728-62.49524-34.05118,52.47388-26.95882,41.54431-4.54893,7.01001,1.79071,8.16248,40.96011,186.71719,1.98764,9.06082,8.20093,4.33517c55.01013,29.07965,72.46518,102.68457,77.4213,159.31082.3912,4.4679.89023,12.49014,1.22046,17.79858.13742,2.20825.25281,4.06116.3327,5.23386.75906,11.14084,9.53519,16.96567,15.94318,21.21872,4.29001,2.84717,9.35696,5.90424,13.05673,8.13635,1.58328.95526,3.22058,1.94318,3.88095,2.36768,15.84048,10.1828,30.50848,23.96027,47.55951,44.672l15.55048,18.88879,15.41882-18.99634c14.36624-17.69965,32.40399-34.06091,55.14392-50.01874.50128-.33929,2.23108-1.35187,3.49402-2.09119,8.85809-5.18542,16.50824-9.66351,20.00232-17.92694,1.89349-4.47812,2.66644-10.05988,3.89471-23.53683.12634-1.38611.23334-2.57141.32092-3.39978.56787-5.36624,1.00647-10.53799,1.43054-15.53964,1.01483-11.96649,1.97345-23.26941,4.534-34.97647,5.57416-25.48471,23.57404-87.3154,70.21204-110.98788l8.38116-4.254,2.07379-9.16742,42.05127-185.89468,1.76489-7.80261-4.10278-6.86749-2.21545-3.70825-.25952-.43439-.28107-.42065-25.83472-38.65907-36.19513-54.16235-.43304,65.14186c-.08728,13.12164-3.02057,25.02069-8.25964,33.50519-4.22235,6.83801-9.54791,10.95715-16.51721,12.6947l-100.9375-53.03143-16.37512-32.93292L467.96631,0h0Z"/><polygon class="cls-6" points="516.70465 311.35358 585.61664 220.49352 587.71783 220.36537 574.5122 299.16113 516.70465 348.85358 516.70465 311.35358"/><path class="cls-6" d="M416.70462,347.85358l-56.80756-48.69244-13.20746-78.79333c.99924-1.64114,2.23376.2278,2.99371,1.0074,13.04861,13.3866,28.33017,36.78233,40.01862,51.97438,8.98727,11.68121,17.97314,23.35614,27.00269,35.004v39.5Z"/></g></svg>