<?xml version="1.0" encoding="UTF-8"?><svg id="Layer_2" xmlns="http://www.w3.org/2000/svg" width="219.91333" height="208" viewBox="0 0 219.91333 208"><defs><style>.cls-1{fill:#fff;}</style></defs><g id="fixed_copy_3"><path class="cls-1" d="M208.37453,70.85765c4.10199,2.97734,6.29706,4.60671,11.5388,8.36269l-41.75031,128.77966H43.05388l-26.49192-78.91503L0,78.58195,110.60555,0c7.49838,5.43442,43.41495,31.48478,49.23106,35.68,27.11111,19.55556,17.04938,12.32239,48.53792,35.17765ZM106.76058,56.39936V13.89936L13.76296,81.88733l40.28518,12.84378,52.71244-38.33174ZM113.76058,13.89936v42.5l51.96251,38.0905,41.03511-12.60254L113.76058,13.89936ZM141.76058,159.89936l19.46774-60.04863-50.96909-36.93963-51.57423,36.64196,20.07558,60.3463h63ZM46.77266,196.89702l25.60447-33.77083c-.69172-2.14328-3.35994-10.65047-4.35039-13.99298-4.70012-15.86158-10.74397-31.4475-15.7911-47.20891l-40.46511-14.02462,35.00213,108.99733ZM208.75462,87.9037l-41.00323,13.73297-19.45724,62.08704,2.54978,3.36455,22.42165,29.80611,35.48904-108.99067ZM167.76058,201.89936l-25.70629-34.79371h-63.58742s-25.70629,34.79371-25.70629,34.79371h115Z"/><path d="M141.76058,159.89936h-63l-20.07558-60.3463,51.57423-36.64196,50.96909,36.93963-19.46774,60.04863ZM142.05429,167.10565h-63.58742s-25.70629,34.79371-25.70629,34.79371h115l-25.70629-34.79371ZM106.76058,13.89936L13.76296,81.88733l40.28518,12.84378,52.71244-38.33174V13.89936ZM167.75139,101.63667l-19.45724,62.08704,7.29542,9.62662,17.67601,23.54404,35.48904-108.99067-41.00323,13.73297ZM72.37714,163.12619c-.77439-2.32405-3.35994-10.65047-4.35039-13.99298-4.70012-15.86158-10.74397-31.4475-15.7911-47.20891l-40.46511-14.02462,35.00213,108.99733,25.60447-33.77083ZM113.76058,56.39936l51.96251,38.0905,41.03511-12.60254L113.76058,13.89936v42.5Z"/></g></svg>