<?xml version="1.0" encoding="UTF-8"?><svg id="Layer_2" xmlns="http://www.w3.org/2000/svg" width="219.91333" height="208" viewBox="0 0 219.91333 208"><g id="Layer_2-2"><path d="M208.37453,70.85765c4.10199,2.97734,6.29706,4.60671,11.5388,8.36269l-41.75031,128.77966H43.05388l-26.49192-78.91504L0,78.58195,110.60555,0c7.49838,5.43442,43.41496,31.48478,49.23106,35.68,27.11111,19.55556,17.04938,12.32239,48.53792,35.17765ZM106.76058,56.39936V13.89936L13.76296,81.88733l40.28518,12.84378s52.71244-38.33174,52.71244-38.33175ZM113.76058,13.89936v42.5l51.9625,38.0905,41.03511-12.60254L113.76058,13.89936ZM141.76057,159.89935l19.46774-60.04863-50.96909-36.93963-51.57423,36.64196,20.07558,60.3463h63.00001-.00002ZM46.77266,196.89702l25.60447-33.77083c-.69172-2.14328-3.35994-10.65047-4.35039-13.99298-4.70012-15.86157-10.74397-31.4475-15.7911-47.20891l-40.46511-14.02462,35.00213,108.99732v.00002ZM208.75462,87.9037l-41.00323,13.73297-19.45724,62.08704,2.54977,3.36455,22.42165,29.80611,35.48904-108.99067h.00002ZM167.76057,201.89935l-25.70628-34.7937h-63.58742l-25.70629,34.7937h115.00001-.00002Z"/></g></svg>