<svg xmlns="http://www.w3.org/2000/svg" xml:space="preserve" width="150" height="137.231" viewBox="0 0 150 137.231"><g transform="translate(-2.126 -3.676)"><path d="M129.648 25.445V14.077L101.51 3.676s-4.969 18.375-24.384 18.375S52.742 3.676 52.742 3.676L24.603 14.077v11.368L2.126 33.723s7.46 13.85 9.707 22.65c2.774 10.862 3.583 24.268 3.583 24.268l18.028 6.549v9.861l43.683 43.856 43.683-43.856V87.19l18.027-6.549s.809-13.405 3.582-24.268c2.248-8.801 9.707-22.65 9.707-22.65z"/><linearGradient id="a" x1="10.382" x2="143.869" y1="56.322" y2="56.322" gradientUnits="userSpaceOnUse"><stop offset="0" style="stop-color:#8e752f"/><stop offset=".046" style="stop-color:#947b35"/><stop offset=".107" style="stop-color:#a48a45"/><stop offset=".15" style="stop-color:#b39953"/><stop offset=".175" style="stop-color:#b8a058"/><stop offset=".269" style="stop-color:#cab068"/><stop offset=".372" style="stop-color:#d5bb71"/><stop offset=".5" style="stop-color:#d7bd74"/><stop offset=".628" style="stop-color:#d5bb71"/><stop offset=".731" style="stop-color:#cab068"/><stop offset=".825" style="stop-color:#b8a058"/><stop offset=".85" style="stop-color:#b39953"/><stop offset=".852" style="stop-color:#b29952"/><stop offset=".902" style="stop-color:#9e853e"/><stop offset=".952" style="stop-color:#917833"/><stop offset="1" style="stop-color:#8e752f"/></linearGradient><path fill="url(#a)" d="M33.443 53.917v27.002L20.99 76.396c-.454-4.942-1.47-13.741-3.446-21.48-1.435-5.62-4.701-12.892-7.162-17.952l14.221-5.237v16.269zm96.205-22.191v16.269l-8.84 5.923V80.92l12.453-4.523c.455-4.942 1.471-13.741 3.447-21.48 1.434-5.62 4.701-12.892 7.16-17.952z" style="fill:url(#a)"/><linearGradient id="b" x1="77.127" x2="77.127" y1="132.556" y2="57.866" gradientUnits="userSpaceOnUse"><stop offset="0" style="stop-color:#d7bd74"/><stop offset=".107" style="stop-color:#c4aa63"/><stop offset=".2" style="stop-color:#b39953"/><stop offset=".45" style="stop-color:#b39953"/><stop offset=".54" style="stop-color:#ab924b"/><stop offset=".686" style="stop-color:#987e37"/><stop offset=".75" style="stop-color:#8e752f"/><stop offset="1" style="stop-color:#8e752f"/></linearGradient><path fill="url(#b)" d="M55.631 68.782 39.337 57.865v36.751l37.789 37.94 37.79-37.94V57.865L98.621 68.782V97.22l-21.495 21.733L55.631 97.22Z" style="fill:url(#b)"/><linearGradient id="c" x1="30.497" x2="123.756" y1="36.427" y2="36.427" gradientUnits="userSpaceOnUse"><stop offset="0" style="stop-color:#8e752f"/><stop offset=".064" style="stop-color:#987e37"/><stop offset=".21" style="stop-color:#ab924b"/><stop offset=".3" style="stop-color:#b39953"/><stop offset=".318" style="stop-color:#b9a059"/><stop offset=".371" style="stop-color:#c9af68"/><stop offset=".428" style="stop-color:#d4b971"/><stop offset=".5" style="stop-color:#d7bd74"/><stop offset=".572" style="stop-color:#d4b971"/><stop offset=".629" style="stop-color:#c9af68"/><stop offset=".682" style="stop-color:#b9a059"/><stop offset=".7" style="stop-color:#b39953"/><stop offset=".79" style="stop-color:#ab924b"/><stop offset=".936" style="stop-color:#987e37"/><stop offset="1" style="stop-color:#8e752f"/></linearGradient><path fill="url(#c)" d="m77.126 32.68 21.495 21.733v7.275l25.135-16.839V18.182l-18.98-7.016c-4.135 7.716-12.873 16.778-27.649 16.778s-23.515-9.063-27.648-16.778l-18.981 7.016V44.85l25.135 16.839v-7.275z" style="fill:url(#c)"/><path fill="#fff" d="M92.727 56.835 77.126 41.061 61.525 56.835v37.963l15.601 15.773 15.601-15.773z"/></g></svg>