<svg xmlns="http://www.w3.org/2000/svg" xml:space="preserve" width="149.999" height="137.231" viewBox="0 0 149.999 137.231"><g transform="translate(-2.8 -4.135)"><path fill="#fff" d="M130.322 25.904V14.536l-28.14-10.401S97.213 22.51 77.799 22.51c-19.415 0-24.385-18.375-24.385-18.375L25.276 14.536v11.368L2.8 34.182s7.46 13.85 9.707 22.65C15.28 67.694 16.089 81.1 16.089 81.1l18.027 6.549v9.861L77.8 141.366l43.683-43.856v-9.861L139.51 81.1s.809-13.405 3.582-24.268c2.247-8.801 9.707-22.65 9.707-22.65z"/><linearGradient id="a" x1="11.056" x2="144.543" y1="56.781" y2="56.781" gradientUnits="userSpaceOnUse"><stop offset="0" style="stop-color:#622d76"/><stop offset=".037" style="stop-color:#6a397e"/><stop offset=".107" style="stop-color:#764b8b"/><stop offset=".15" style="stop-color:#7b5290"/><stop offset=".163" style="stop-color:#805894"/><stop offset=".221" style="stop-color:#956ea3"/><stop offset=".281" style="stop-color:#a680b0"/><stop offset=".344" style="stop-color:#b48dba"/><stop offset=".413" style="stop-color:#bc96c0"/><stop offset=".5" style="stop-color:#bf99c2"/><stop offset=".587" style="stop-color:#bc96c0"/><stop offset=".656" style="stop-color:#b48dba"/><stop offset=".72" style="stop-color:#a680b0"/><stop offset=".779" style="stop-color:#956ea3"/><stop offset=".837" style="stop-color:#805894"/><stop offset=".85" style="stop-color:#7b5290"/><stop offset=".893" style="stop-color:#764b8b"/><stop offset=".963" style="stop-color:#6a397e"/><stop offset="1" style="stop-color:#622d76"/></linearGradient><path fill="url(#a)" d="M34.116 54.376v27.002l-12.453-4.523c-.453-4.942-1.471-13.741-3.445-21.48-1.436-5.62-4.701-12.892-7.162-17.952l14.221-5.237v16.269zm96.206-22.191v16.269l-8.84 5.923v27.002l12.453-4.523c.454-4.942 1.47-13.741 3.446-21.48 1.435-5.62 4.701-12.892 7.161-17.952z" style="fill:url(#a)"/><linearGradient id="b" x1="77.8" x2="77.8" y1="133.015" y2="58.325" gradientUnits="userSpaceOnUse"><stop offset="0" style="stop-color:#bf99c2"/><stop offset=".05" style="stop-color:#af89b6"/><stop offset=".149" style="stop-color:#8c659d"/><stop offset=".2" style="stop-color:#7b5290"/><stop offset=".45" style="stop-color:#7b5290"/><stop offset=".536" style="stop-color:#764b8b"/><stop offset=".676" style="stop-color:#6a397e"/><stop offset=".75" style="stop-color:#622d76"/><stop offset="1" style="stop-color:#622d76"/></linearGradient><path fill="url(#b)" d="M56.305 69.241 40.011 58.324v36.751l37.789 37.94 37.789-37.94V58.324L99.294 69.241v28.438L77.8 119.412 56.305 97.679Z" style="fill:url(#b)"/><linearGradient id="c" x1="31.17" x2="124.429" y1="36.886" y2="36.886" gradientUnits="userSpaceOnUse"><stop offset="0" style="stop-color:#622d76"/><stop offset=".05" style="stop-color:#6a397e"/><stop offset=".143" style="stop-color:#764b8b"/><stop offset=".2" style="stop-color:#7b5290"/><stop offset=".211" style="stop-color:#805894"/><stop offset=".26" style="stop-color:#956ea3"/><stop offset=".312" style="stop-color:#a680b0"/><stop offset=".366" style="stop-color:#b48dba"/><stop offset=".426" style="stop-color:#bc96c0"/><stop offset=".5" style="stop-color:#bf99c2"/><stop offset=".574" style="stop-color:#bc96c0"/><stop offset=".634" style="stop-color:#b48dba"/><stop offset=".688" style="stop-color:#a680b0"/><stop offset=".74" style="stop-color:#956ea3"/><stop offset=".788" style="stop-color:#805894"/><stop offset=".8" style="stop-color:#7b5290"/><stop offset=".857" style="stop-color:#764b8b"/><stop offset=".95" style="stop-color:#6a397e"/><stop offset="1" style="stop-color:#622d76"/></linearGradient><path fill="url(#c)" d="m77.8 33.139 21.494 21.733v7.275l25.135-16.839V18.641l-18.98-7.016c-4.135 7.716-12.873 16.778-27.648 16.778-14.777 0-23.516-9.063-27.648-16.778L31.17 18.641v26.668l25.135 16.839v-7.275z" style="fill:url(#c)"/><linearGradient id="d" x1="62.198" x2="93.4" y1="76.275" y2="76.275" gradientUnits="userSpaceOnUse"><stop offset="0" style="stop-color:#622d76"/><stop offset=".013" style="stop-color:#68357c"/><stop offset=".043" style="stop-color:#724586"/><stop offset=".072" style="stop-color:#794f8e"/><stop offset=".1" style="stop-color:#7b5290"/><stop offset=".115" style="stop-color:#805894"/><stop offset=".18" style="stop-color:#956ea3"/><stop offset=".249" style="stop-color:#a680b0"/><stop offset=".322" style="stop-color:#b48dba"/><stop offset=".401" style="stop-color:#bc96c0"/><stop offset=".5" style="stop-color:#bf99c2"/><stop offset=".599" style="stop-color:#bc96c0"/><stop offset=".678" style="stop-color:#b48dba"/><stop offset=".751" style="stop-color:#a680b0"/><stop offset=".82" style="stop-color:#956ea3"/><stop offset=".885" style="stop-color:#805894"/><stop offset=".9" style="stop-color:#7b5290"/><stop offset=".926" style="stop-color:#784d8d"/><stop offset=".961" style="stop-color:#6f4183"/><stop offset="1" style="stop-color:#622d76"/></linearGradient><path fill="url(#d)" d="M93.4 57.294 77.8 41.52 62.198 57.294v37.963L77.8 111.03l15.6-15.773Z" style="fill:url(#d)"/></g></svg>