<?xml version="1.0" encoding="UTF-8" standalone="no"?>
<svg
   width="375pt"
   height="302pt"
   viewBox="0 0 375 302"
   version="1.1"
   id="svg2"
   xmlns="http://www.w3.org/2000/svg"
   xmlns:svg="http://www.w3.org/2000/svg">
  <defs
     id="defs2" />
  <path
     d="m 0,47 c 73.751281,0.0063 225.63446,0.164151 248.918,0.201357 L 279.19,66.55 l -43.05,16.41 8.24,14.89 -46.32,0.14 31.3,85.15 25.71,-67.28 5.6,8.52 35.44,-28.46 -7.28,45 27.51,0.25 -46.5,110.76 92.14,0.08 L 362,302 H 0 v -50 l 57.99,-0.01 V 98 L 0,97.59 Z m 118.01,50.98 v 154.01 l 83.22,-0.08 -61.42,-153.84 z"
     id="path1" />
  <path
     d="m 301.95,0 h 24.27 c -4.3,53.24 0,0 -4.3,53.24 41.46,-29.68 0,0 41.46,-29.68 L 375,44.9 c -46.49,19.53 0,0 -46.49,19.53 46.49,21.66 0,0 46.49,21.66 l -10.57,22.08 c -42.36,-30.22 0,0 -42.36,-30.22 6.85,53.06 0,0 6.85,53.06 -24.88,-0.04 0,0 -24.88,-0.04 3.01,-53.04 0,0 3.01,-53.04 -45.01,30.62 0,0 -45.01,30.62 -11.98,-20.25 0,0 -11.98,-20.25 50.23,-22.87 0,0 50.23,-22.87 -48.43,-23.81 0,0 -48.43,-23.81 13.22,-19.99 0,0 13.22,-19.99 41.87,32.41 0,0 41.87,32.41 -5,-54.04 0,0 -5,-54.04 z"
     id="path2" />
</svg>
