<svg xmlns="http://www.w3.org/2000/svg" width="245.203" height="262.279" viewBox="0 0 64.877 69.395"><path d="M43.675 0v5.957l-4.973 7.198c7.735 2.583 11.21 7.838 12.589 13.21-2.817-5.047-6.624-9.681-13.043-10.849 0 0 .056 5.48 0 8.219-.02.97-1.214 3.542-5.81 3.542-4.595 0-5.79-2.572-5.81-3.542-.055-2.739 0-8.219 0-8.219-6.419 1.168-10.225 5.802-13.042 10.849 1.38-5.372 4.853-10.627 12.59-13.21l-4.974-7.198V0C10.42 4.87.34 12.509 0 30.495a6.53 6.53 0 0 1 4.358-1.677 6.532 6.532 0 1 1 0 13.064 7 7 0 0 1-.247-.013c2.906 7.586 7.921 14.658 16.847 19.484-1.208-8.222-5.797-12.389-9.303-17.015 5.117 2.126 15.086 14.8 10.396 22.47.49.63 6.837 2.587 10.387 2.587s9.898-1.956 10.388-2.586c-4.69-7.672 5.279-20.345 10.396-22.47-3.506 4.625-8.095 8.792-9.304 17.014 8.926-4.826 13.942-11.898 16.847-19.484q-.123.008-.247.013a6.532 6.532 0 1 1 0-13.064c1.61.003 3.162.6 4.359 1.677C64.537 12.51 54.456 4.87 43.675 0M20.888 31.393c3.299-.01 6.953 1.36 7.81 2.952.292.542-.737 3.36-.963 4.374-.83-.91-2.408-1.071-2.877-.966-.48.108-2.586.74-3.873.534-1.12-.178-2.301-.645-3.06-1.489-.968-1.077-2.264-3.408-1.476-4.086 1.08-.928 2.71-1.313 4.439-1.319m23.101 0c1.728.006 3.359.39 4.439 1.32.788.677-.509 3.008-1.477 4.085-.758.844-1.94 1.31-3.06 1.489-1.286.205-3.392-.426-3.872-.534-.47-.105-2.047.056-2.878.966-.225-1.014-1.254-3.832-.962-4.374.856-1.593 4.511-2.962 7.81-2.952M27.894 47.017a4 4 0 0 1 1.227.276c.173.08.565.426 1.378.91.355.212.56.488.877.676.412.244.698.265 1.062.265s.65-.021 1.062-.265c.318-.188.523-.463.878-.675.813-.485 1.204-.831 1.377-.91a4 4 0 0 1 1.227-.277c.17-.005.331.01.465.059.156.055.321.152.45.278a.7.7 0 0 1 .232.443c.015.209-.077.412-.218.59-.141.176-.331.327-.513.43-.747.42-1.74-.04-2.562.197-.416.12-.736.471-1.148.604-.346.111-.83.161-1.25.161s-.903-.05-1.25-.161c-.41-.133-.732-.484-1.147-.604-.823-.237-1.815.222-2.562-.198a1.8 1.8 0 0 1-.513-.43c-.141-.177-.233-.38-.219-.589a.7.7 0 0 1 .233-.443c.129-.126.294-.223.45-.278.134-.048.295-.064.464-.06m4.544 8.552c2.084 0 4.98.172 6.203.653l-1.732 2.443a28 28 0 0 1-4.47.34 28 28 0 0 1-4.471-.34l-1.732-2.443c1.223-.481 4.119-.653 6.202-.653" style="stroke-width:.264583"/></svg>