<?xml version="1.0" encoding="UTF-8"?><svg id="Layer_2" xmlns="http://www.w3.org/2000/svg" width="495.30786" height="388.00007" viewBox="0 0 495.30786 388.00007"><defs><style>.cls-1{fill:#700000;}.cls-2{fill:#fe0000;}</style></defs><g id="Layer_2-2"><path class="cls-2" d="M362.85458,148.0125l-51.98605,35.9837,63.57443-28.019,27.41156,14.01025c-11.75742,4.22508-22.72607,10.35847-34.12024,15.3849-13.75153,6.06636-29.13733,11.11989-42.54367,17.45631-21.9147,10.35788-16.83789,24.88312-23.85727,43.14273-7.03867,18.30984-21.26428-4.71683-30.05359-5.92577-7.32159-1.00703-10.23663,4.88663-13.9119,4.88847-2.75925.0014-7.52751-4.30736-11.06636-4.87181-3.19814-.5101-8.04134-.31018-11.17058.70622-6.32602,2.05475-8.7794,10.19223-12.76221,14.23822-3.87489,3.93637-12.08153,5.03857-14.92285,10.07712-4.62868,8.20807,2.65022,21.13522-4.03246,27.96371-5.92609,6.05539-7.82767-3.69156-11.56146-7.53763-3.48486-3.58966-9.33064-6.6778-14.4483-6.54147-4.49278.11969-8.62376,3.30081-13.82286,1.81003-6.08217-1.74399-7.09663-11.38647-20.187-11.83118-18.42339-.62589-21.16813,12.91989-30.12327,23.96201-6.85715,8.4552-12.64816-.04013-21.91603-.89828-20.49618-1.89789-28.21118,8.99115-26.37167,28.36725.66633,7.01868,7.70621,25.49774.84295,30.08557-2.58556,1.72836-10.08335,2.56808-12.03715,4.96277-2.95665,3.62384-1.89598,17.29788-4.91256,19.07971-10.3743,3.48825-12.26732-11.87723-12.88598-19.13452-.44727-5.24686.36559-10.77026-.1384-15.8616-1.51233-15.27783-4.37465-30.60934-10.98974-44.5047,12.58875-2.48734,26.8977-7.97089,38.0258-14.51843,1.29382-.76126,2.51922.17822,1.96898-2.48193-6.63386,1.15958-13.153,3.5184-19.79034,4.69931-8.22243,1.46292-18.48995,2.97903-26.75412,3.33237-3.21958.13763-5.33967-.5491-4.0337-4.08252L171.88155,79.99907c15.82321,11.11657,34.90759,16.31762,53.75555,19.72574,6.6423,1.20107,16.49139.96559,22.49016,2.50984,3.33145.8576,16.88048,10.19713,22.37703,12.62298,20.94522,9.24399,43.83646,13.34064,66.65628,14.34373,7.66351,7.34279,15.95535,14.58826,25.69403,18.81114h-.00003ZM148.5904,143.72875c-.42854.68086-2.33911.95319-3.20114,2.27834-5.17625,7.95718-6.20454,20.79607,3.7878,25.1778,15.09093,6.61749,38.46336-4.23288,50.15518-14.21455,22.14603-18.90677,18.15457-45.40811-15.4798-37.47974-8.93806,2.1069-28.90739,12.39368-34.05118,19.96735-1.02458,1.50858-.59576,3.29358-1.21085,4.27083l-.00002-.00002ZM269.64095,132.2791c-15.99667,1.92514-42.67227,15.93011-45.34418,33.39421-3.20148,20.92552,24.53796,19.96591,38.21423,16.47578,12.86749-3.28374,36.26178-16.40765,38.25906-30.73509,2.69501-19.33253-16.49802-20.89569-31.12912-19.1349ZM128.61689,194.25405c-17.49455,2.03979-51.37465,19.59099-46.543,41.03542,1.04374,4.63245,8.02564,8.02963,12.37534,8.6235,17.66359,2.41164,41.12457-7.76222,52.43604-21.38962,15.33322-18.47253,3.39565-30.79526-18.26837-28.26932l-.00002.00002ZM276.85705,200.01035c-9.36508.71182-19.18961,4.32913-28.27203,7.20311-35.2766,11.1627-71.68719,25.98183-105.09958,41.9101-3.1367,1.49532-7.44058,3.13995-9.62331,5.86647,35.85901-9.25945,70.51839-22.68748,104.67867-36.81111l38.31625-18.16856ZM476.28176,103.58526c16.16196,19.6516-5.65085,51.39124-26.61932,57.71528-16.41702,4.95132-32.20319.14319-47.15784-6.44324-3.33301-1.46796-47.26773-24.66206-45.64032-26.84526,4.54626-1.8379,11.56924-.10712,14.99658-4.00127-35.57309-2.95693-69.68835-10.54215-102.2114-25.29831-19.38628-8.79582-37.88142-20.53246-55.29251-32.70742-1.22659,1.66725,1.39183,4.33925,2.28004,5.71989,3.30959,5.14446,8.10767,9.00969,11.22469,14.26508-15.56291-3.10301-46.44521-9.87398-55.83417-23.65627-8.04291-11.80641,4.96432-35.71611,15.3362-43.33195,14.14252-10.38455,39.79179-.96623,55.70773,3.28868,67.02516,17.91826,142.47249,42.31701,207.56178,66.43822,10.69836,3.96467,18.10477,5.68395,25.64856,14.85657h-.00003ZM452.45574,125.62471c4.53345-8.62198,2.09201-19.51628-6.69415-24.0244-19.22046-9.86189-48.82376,7.72297-47.93088,29.84502.45755,11.33675,12.71725,18.60509,23.02737,15.53979.2847-2.56284.02026-1.59219-1.45142-2.01567-5.03452-1.44872-8.2298-1.31396-11.81186-6.2014-8.08658-11.03348,6.30054-25.37323,16.81085-28.53295,5.2551,5.19681,6.15805,14.11538,2.44073,20.24957l1.996.50714c4.59961-7.08574,6.88724-14.68557,4.02011-22.98204,13.6059-2.25168,20.14777,7.4522,17.00967,19.98528.5621.08,2.50198-2.21517,2.58356-2.37033Z"/><path d="M205.86192,0l36.21532,8.28468c48.41138,13.87555,96.5011,28.89896,144.30429,44.6957,25.53751,8.43897,58.20148,17.13666,82.15833,27.84167,52.06079,23.26314,20.13129,91.88791-27.30698,96.04971-6.42804.56393-11.23395-.84601-16.87125-.95395-7.51416-.14388-53.12512,22.55035-63.8208,27.26108-9.70181,4.27299-21.54349,7.8461-30.67834,12.32166-16.58051,8.12349-9.65277,33.08289-21.45816,44.54184-9.67816,9.39417-20.41537,7.69968-30.87259.78784-1.56619-1.03519-7.34921-6.51666-8.16052-6.57973-1.18304-.09193-4.1261,3.06526-6.21829,3.54008-3.85205.87418-9.84618.37418-13.57997-1.00168-3.01083-1.10947-6.46388-5.32407-9.70619-3.31078-1.29024.80116-5.9203,9.26735-8.99408,12.03267-3.20038,2.87921-7.74962,5.50775-11.89867,6.60022,1.16367,9.82013,2.14902,19.99698-4.11356,28.38754-7.29352,9.77182-20.31763,11.02887-28.52348,1.5264-3.14723-3.64453-3.74422-9.16614-9.8109-8.97-6.84744.22141-9.12709,3.37921-17.65927.44113-5.81845-2.0036-13.03792-11.34604-16.48-11.3938-13.59802-.18866-16.46215,30.15063-34.88302,28.83197-7.17997-.51398-24.49065-11.91125-28.88503-1.68253-3.69454,8.59973,7.46393,29.49146,1.28769,45.29282-3.80776,9.74179-13.12441,8.34061-14.83786,10.67065-.90898,1.23605-1.66198,11.17862-3.47773,15.01373-1.95157,4.12198-4.0769,5.38425-7.72894,7.77112h-15c-1.78602-2.02722-4.71782-2.56052-6.65268-4.34888-15.48085-14.30881-4.87592-59.37405-18.51471-79.98373-6.24695-9.43982-18.66858-12.8797-11.56373-27.89804L161.34681,72.00593c-.53468-3.16764-2.81178-4.60126-4.0022-7.98828-6.96214-19.80906,10.39679-53.37593,30.25819-60.7769l11.25909-3.24075h7.00002ZM476.28176,103.58526c-7.54379-9.17262-14.95016-10.8919-25.64856-14.85657-65.08929-24.12121-140.53659-48.51996-207.56178-66.43822-15.91595-4.25491-41.5652-13.67324-55.70773-3.28868-10.37186,7.61584-23.3791,31.52555-15.3362,43.33195,9.38895,13.78229,40.27126,20.55326,55.83417,23.65627-3.11702-5.2554-7.91508-9.12062-11.22469-14.26508-.88821-1.38064-3.50664-4.05265-2.28004-5.71989,17.4111,12.17495,35.90625,23.9116,55.29251,32.70742,32.52304,14.75616,66.63831,22.34138,102.2114,25.29831-3.42734,3.89415-10.45029,2.16338-14.99658,4.00127-1.62738,2.1832,42.30734,25.3773,45.64032,26.84526,14.95465,6.58643,30.74081,11.39458,47.15784,6.44324,20.96848-6.32404,42.78128-38.06366,26.61932-57.71527h.00003ZM362.85458,148.0125c-9.73868-4.22289-18.03052-11.46835-25.69403-18.81114-22.81982-1.0031-45.71106-5.09975-66.65628-14.34373-5.49655-2.42585-19.04556-11.76538-22.37701-12.62298-5.99876-1.54424-15.84785-1.30876-22.49016-2.50984-18.84798-3.40812-37.93236-8.60916-53.75557-19.72574L14.27852,281.95435c-1.30597,3.53342.81412,4.22018,4.0337,4.08252,8.26418-.3533,18.5317-1.86945,26.75412-3.33237,6.63733-1.18091,13.15648-3.53973,19.79034-4.69931.55024,2.66013-.67516,1.7207-1.96898,2.48193-11.1281,6.54752-25.43705,12.03107-38.0258,14.51843,6.61509,13.89532,9.47741,29.22687,10.98974,44.5047.50398,5.09134-.30888,10.61475.1384,15.8616.61866,7.25729,2.51168,22.62277,12.88598,19.13452,3.01658-1.78183,1.95591-15.45587,4.91256-19.07971,1.9538-2.39468,9.45159-3.23441,12.03715-4.96277,6.86326-4.58783-.17662-23.06686-.84295-30.08557-1.83951-19.3761,5.8755-30.26514,26.37167-28.36725,9.26788.85818,15.05888,9.35349,21.91603.89828,8.95515-11.04211,11.69988-24.58789,30.12328-23.96201,13.09036.44473,14.10483,10.08719,20.187,11.83118,5.1991,1.49078,9.33006-1.69031,13.82286-1.81003,5.11766-.13635,10.96342,2.95181,14.4483,6.54147,3.7338,3.84607,5.63538,13.59302,11.56146,7.53763,6.68269-6.82849-.59622-19.75565,4.03246-27.96371,2.84132-5.03854,11.04796-6.14075,14.92285-10.07712,3.9828-4.04601,6.43617-12.18347,12.76221-14.23822,3.12924-1.0164,7.97243-1.21632,11.17058-.70622,3.53885.56444,8.30711,4.87321,11.06638,4.87181,3.67529-.00186,6.59033-5.89552,13.9119-4.88847,8.78931,1.20892,23.01492,24.23558,30.05359,5.92577,7.01938-18.25963,1.94257-32.78485,23.85727-43.14273,13.40634-6.33644,28.79218-11.38997,42.54367-17.45631,11.39417-5.02643,22.36282-11.15984,34.12024-15.3849l-27.41156-14.01025-63.57443,28.019,51.98605-35.9837v-.00003ZM269.64095,132.2791c14.63107-1.76079,33.82413-.19765,31.12912,19.1349-1.99728,14.32744-25.39157,27.45135-38.25906,30.73509-13.67625,3.49014-41.41571,4.44974-38.21423-16.47578,2.67191-17.46408,29.3475-31.46907,45.34418-33.39421ZM289.59878,161.73655c.89532-.87381,5.76511-9.94128,6.03061-11.46985,2.30112-13.24843-13.59778-14.1263-23.14401-13.14413-13.06766,1.34444-34.83104,12.01886-41.02342,23.97826-10.6749,20.61652,18.93723,19.49529,31.62987,15.62914,6.97116-2.1234,21.60263-10.20683,26.50696-14.99339v-.00002ZM148.5904,143.72875c.6151-.97725.18628-2.76225,1.21085-4.27083,5.14378-7.57367,25.11311-17.86044,34.05118-19.96734,33.63435-7.92837,37.62582,18.57298,15.47978,37.47974-11.69182,9.98167-35.06425,20.83205-50.15518,14.21455-9.99232-4.38171-8.96405-17.2206-3.7878-25.1778.86203-1.32516,2.7726-1.59747,3.20114-2.27834h.00003ZM205.5514,126.31608c-6.88599-6.18618-24.93394-1.29788-32.60002,2.27338-8.11076,3.77841-24.65346,17.77509-26.03297,26.97652-3.33255,22.22816,31.14824,8.93497,40.85957,2.85007,7.56-4.73692,28.23715-22.69965,17.77344-32.09998h-.00002ZM128.61689,194.25405c21.66403-2.52596,33.60161,9.79675,18.26839,28.2693-11.31146,13.6274-34.77245,23.80124-52.43604,21.38962-4.3497-.59387-11.3316-3.99106-12.37534-8.6235-4.83165-21.44443,29.04845-38.99561,46.54301-41.03542h-.00002ZM138.51072,223.64904c12.90469-12.0609,15.85597-26.28714-7.02785-24.52589-10.14805.78104-31.171,10.02805-38.32481,17.17184-.37474.37421-5.15131,8.56268-5.36703,9.13135-4.95236,13.05495,7.71817,14.46307,17.4474,13.4511,6.02104-.62628,10.17689-3.28859,15.37522-4.68283,1.13446-.30428,2.71922.84375,3.11215.63591,1.06225-.56187,13.17883-9.68037,14.78492-11.18146v-.00002ZM276.85705,200.01035l-38.31624,18.16856c-34.16026,14.12364-68.81966,27.55167-104.67867,36.81111,2.18271-2.72652,6.4866-4.37115,9.62331-5.86647,33.41238-15.92828,69.82297-30.74739,105.09956-41.9101,9.08243-2.87398,18.90695-6.49129,28.27203-7.20311ZM452.45574,125.62471c-.0816.15517-2.02145,2.45033-2.58356,2.37033,3.13809-12.53308-3.40378-22.23696-17.00967-19.98528,2.86713,8.29647.5795,15.89629-4.02011,22.98204l-1.996-.50714c3.71732-6.13419,2.81439-15.05276-2.44073-20.24957-10.51035,3.15972-24.89743,17.49947-16.81085,28.53294,3.58206,4.88744,6.77734,4.75269,11.81186,6.2014,1.47168.42348,1.73611-.54716,1.45142,2.01567-10.31015,3.06531-22.56982-4.20303-23.02737-15.53979-.89285-22.12204,28.71042-39.7069,47.93088-29.84501,8.78616,4.50812,11.22757,15.40242,6.69415,24.02441Z"/><path class="cls-1" d="M289.59878,161.73655c-4.90433,4.78654-19.53577,12.87-26.50696,14.99339-12.69266,3.86617-42.30478,4.98738-31.62988-15.62914,6.19238-11.9594,27.95575-22.6338,41.02341-23.97826,9.54623-.98215,25.44516-.10429,23.14401,13.14413-.2655,1.52856-5.13531,10.59604-6.03061,11.46985l.00003.00002ZM205.5514,126.31608c10.46373,9.40032-10.21344,27.36304-17.77344,32.09997-9.71133,6.08488-44.19211,19.37808-40.85957-2.85007,1.37952-9.20143,17.92223-23.1981,26.03297-26.97652,7.66608-3.57126,25.71404-8.45956,32.60002-2.27339h.00002ZM138.51072,223.64904c-1.60609,1.50108-13.72267,10.61958-14.78492,11.18146-.39293.20784-1.97769-.94019-3.11215-.63591-5.19833,1.39424-9.35418,4.05656-15.37522,4.68283-9.72923,1.01198-22.39976-.39615-17.4474-13.4511.21572-.56866,4.99229-8.75713,5.36703-9.13135,7.15381-7.14378,28.17676-16.39081,38.32481-17.17184,22.88383-1.76125,19.93256,12.46501,7.02785,24.52589l.00002.00002Z"/></g></svg>