<?xml version="1.0" encoding="UTF-8"?><svg id="Layer_2" xmlns="http://www.w3.org/2000/svg" width="495.30787" height="388" xmlns:xlink="http://www.w3.org/1999/xlink" viewBox="0 0 495.30787 388"><defs><style>.cls-1{fill:url(#linear-gradient-2);}.cls-2{fill:#fff;}.cls-3{fill:url(#linear-gradient);}</style><linearGradient id="linear-gradient" x1="303.28984" y1="168.93615" x2="385.43959" y2="-132.92536" gradientUnits="userSpaceOnUse"><stop offset=".14" stop-color="#612c75"/><stop offset=".19794" stop-color="#804f8e"/><stop offset=".26094" stop-color="#9b6fa5"/><stop offset=".32197" stop-color="#af86b5"/><stop offset=".37951" stop-color="#ba94bf"/><stop offset=".43" stop-color="#bf99c3"/></linearGradient><linearGradient id="linear-gradient-2" x1="-36.81186" y1="345.75164" x2="471.74411" y2="8.89171" gradientUnits="userSpaceOnUse"><stop offset=".08" stop-color="#612c75"/><stop offset=".09555" stop-color="#713e82"/><stop offset=".12412" stop-color="#895a96"/><stop offset=".15645" stop-color="#9d71a6"/><stop offset=".19353" stop-color="#ac83b3"/><stop offset=".23825" stop-color="#b78fbc"/><stop offset=".2984" stop-color="#bd96c1"/><stop offset=".44" stop-color="#bf99c3"/><stop offset=".48672" stop-color="#ba93be"/><stop offset=".54786" stop-color="#ab82b3"/><stop offset=".617" stop-color="#94679f"/><stop offset=".6915" stop-color="#744284"/><stop offset=".73" stop-color="#612c75"/></linearGradient></defs><g id="Layer_1-2"><path class="cls-2" d="M205.86192,0l36.21532,8.28468c48.41139,13.87555,96.50111,28.89896,144.3043,44.6957,25.53751,8.43897,58.20149,17.13666,82.15833,27.84167,52.06078,23.26314,20.13128,91.8879-27.30699,96.04971-6.42804.56394-11.23396-.84601-16.87126-.95395-7.51416-.14388-53.12513,22.55036-63.8208,27.26108-9.70182,4.27299-21.54349,7.8461-30.67835,12.32165-16.58051,8.12349-9.65278,33.08288-21.45815,44.54185-9.67815,9.39417-20.41536,7.69969-30.87258.78783-1.5662-1.0352-7.34922-6.51667-8.16053-6.57972-1.18304-.09194-4.12611,3.06527-6.21828,3.54007-3.85206.87419-9.84618.37418-13.57997-1.00169-3.01083-1.10946-6.46389-5.32406-9.70619-3.31078-1.29024.80117-5.92031,9.26736-8.99408,12.03266-3.20038,2.87922-7.74962,5.50776-11.89866,6.60022,1.16367,9.82012,2.14901,19.99699-4.11356,28.38755-7.29352,9.77181-20.31763,11.02887-28.52349,1.52639-3.14723-3.64452-3.74421-9.16615-9.8109-8.97001-6.84744.22139-9.12709,3.3792-17.65927.44113-5.81845-2.00359-13.03792-11.34604-16.48-11.3938-13.59802-.18867-16.46215,30.15063-34.88302,28.83198-7.17997-.51397-24.49065-11.91127-28.88503-1.68253-3.69454,8.59973,7.46393,29.49145,1.28769,45.29281-3.80776,9.7418-13.12441,8.34062-14.83786,10.67064-.90898,1.23606-1.66198,11.17861-3.47773,15.01372-1.95157,4.12198-4.0769,5.38424-7.72894,7.77111h-15c-1.78602-2.02721-4.71782-2.56051-6.65268-4.34888-15.48085-14.30882-4.87592-59.37405-18.51471-79.98373-6.24695-9.43981-18.66858-12.87969-11.56373-27.89805L161.34682,72.00593c-.53469-3.16764-2.81179-4.60126-4.0022-7.98828-6.96215-19.80906,10.39679-53.37593,30.2582-60.7769l11.2591-3.24075h7ZM476.28178,103.58526c-7.54378-9.17262-14.95018-10.8919-25.64855-14.85657-65.0893-24.12121-140.53661-48.51996-207.56178-66.43822-15.91595-4.25491-41.56521-13.67324-55.70773-3.28868-10.37186,7.61584-23.3791,31.52555-15.3362,43.33195,9.38894,13.78229,40.27125,20.55326,55.83416,23.65627-3.11702-5.2554-7.91509-9.12062-11.22468-14.26508-.88821-1.38064-3.50664-4.05265-2.28004-5.71989,17.4111,12.17495,35.90625,23.9116,55.29252,32.70742,32.52305,14.75616,66.6383,22.34138,102.2114,25.29831-3.42734,3.89415-10.4503,2.16338-14.99658,4.00127-1.62739,2.18319,42.30733,25.37731,45.64033,26.84526,14.95464,6.58643,30.7408,11.39457,47.15783,6.44324,20.96848-6.32403,42.78128-38.06366,26.61933-57.71527ZM362.85459,148.01249c-9.73867-4.22288-18.03053-11.46835-25.69402-18.81114-22.81982-1.0031-45.71106-5.09975-66.65627-14.34373-5.49654-2.42585-19.04557-11.76538-22.37702-12.62298-5.99876-1.54424-15.84786-1.30876-22.49016-2.50984-18.84797-3.40812-37.93235-8.60916-53.75556-19.72574L14.27853,281.95435c-1.30597,3.53342.81412,4.22017,4.0337,4.08252,8.26418-.35331,18.5317-1.86944,26.75412-3.33236,6.63733-1.1809,13.15648-3.53973,19.79034-4.69931.55024,2.66014-.67516,1.72069-1.96898,2.48194-11.1281,6.54752-25.43705,12.03107-38.0258,14.51842,6.61509,13.89534,9.47741,29.22687,10.98974,44.5047.50398,5.09135-.30888,10.61476.1384,15.8616.61866,7.25729,2.51168,22.62278,12.88598,19.13452,3.01658-1.78184,1.95591-15.45587,4.91256-19.07972,1.9538-2.39469,9.45159-3.23442,12.03715-4.96277,6.86326-4.58783-.17662-23.06688-.84295-30.08556-1.83951-19.3761,5.8755-30.26515,26.37167-28.36726,9.26788.85818,15.05888,9.35349,21.91603.8983,8.95515-11.04211,11.69988-24.5879,30.12327-23.96201,13.09036.44472,14.10483,10.08719,20.187,11.83119,5.19909,1.49079,9.33007-1.69032,13.82286-1.81002,5.11766-.13634,10.96343,2.9518,14.4483,6.54146,3.7338,3.84608,5.63538,13.59302,11.56146,7.53764,6.68269-6.8285-.59622-19.75565,4.03246-27.96372,2.84133-5.03854,11.04796-6.14075,14.92285-10.07712,3.98281-4.046,6.43618-12.18347,12.7622-14.23822,3.12924-1.01641,7.97243-1.21633,11.17057-.70623,3.53885.56444,8.30711,4.87321,11.06636,4.87181,3.67528-.00186,6.59032-5.89552,13.9119-4.88848,8.78931,1.20892,23.01493,24.23558,30.0536,5.92576,7.01937-18.25963,1.94256-32.78486,23.85727-43.14274,13.40633-6.33644,28.79216-11.38997,42.54368-17.45632,11.39416-5.02643,22.36282-11.15983,34.12024-15.38491l-27.41156-14.01026-63.57442,28.019,51.98605-35.9837Z"/><path class="cls-3" d="M476.28178,103.58526c16.16195,19.6516-5.65085,51.39124-26.61933,57.71527-16.41703,4.95132-32.20319.14319-47.15783-6.44324-3.33301-1.46795-47.26772-24.66207-45.64033-26.84526,4.54627-1.8379,11.56924-.10712,14.99658-4.00127-35.5731-2.95693-69.68835-10.54215-102.2114-25.29831-19.38627-8.79582-37.88142-20.53246-55.29252-32.70742-1.2266,1.66725,1.39183,4.33925,2.28004,5.71989,3.30959,5.14446,8.10767,9.00969,11.22468,14.26508-15.56291-3.10301-46.44521-9.87398-55.83416-23.65627-8.04291-11.80641,4.96433-35.71611,15.3362-43.33195,14.14252-10.38455,39.79179-.96623,55.70773,3.28868,67.02517,17.91826,142.47249,42.31701,207.56178,66.43822,10.69837,3.96467,18.10477,5.68395,25.64855,14.85657ZM452.45574,125.62471c4.53344-8.62198,2.09202-19.51628-6.69414-24.0244-19.22046-9.86189-48.82375,7.72297-47.93088,29.84501.45756,11.33675,12.71725,18.60508,23.02738,15.53979.28471-2.56283.02026-1.59219-1.45141-2.01567-5.03452-1.44872-8.2298-1.31396-11.81187-6.2014-8.08657-11.03348,6.30053-25.37323,16.81085-28.53295,5.25511,5.19681,6.15806,14.11538,2.44073,20.24957l1.99599.50714c4.5996-7.08574,6.88723-14.68557,4.02011-22.98204,13.6059-2.25168,20.14777,7.4522,17.00967,19.98528.5621.08,2.50198-2.21517,2.58356-2.37033Z"/><path class="cls-1" d="M362.85459,148.01249l-51.98605,35.9837,63.57442-28.019,27.41156,14.01026c-11.75742,4.22508-22.72608,10.35848-34.12024,15.38491-13.75152,6.06636-29.13734,11.11989-42.54368,17.45632-21.91471,10.35788-16.8379,24.88311-23.85727,43.14274-7.03867,18.30983-21.26428-4.71683-30.0536-5.92576-7.32158-1.00704-10.23662,4.88662-13.9119,4.88848-2.75924.0014-7.52751-4.30736-11.06636-4.87181-3.19814-.5101-8.04133-.31018-11.17057.70623-6.32602,2.05475-8.7794,10.19223-12.7622,14.23822-3.87489,3.93637-12.08153,5.03858-14.92285,10.07712-4.62868,8.20807,2.65022,21.13522-4.03246,27.96372-5.92608,6.05538-7.82766-3.69156-11.56146-7.53764-3.48487-3.58966-9.33065-6.6778-14.4483-6.54146-4.49279.11969-8.62377,3.3008-13.82286,1.81002-6.08217-1.744-7.09663-11.38647-20.187-11.83119-18.42339-.6259-21.16813,12.9199-30.12327,23.96201-6.85715,8.45519-12.64816-.04012-21.91603-.8983-20.49618-1.89789-28.21118,8.99116-26.37167,28.36726.66633,7.01868,7.70621,25.49773.84295,30.08556-2.58556,1.72835-10.08335,2.56808-12.03715,4.96277-2.95665,3.62385-1.89598,17.29788-4.91256,19.07972-10.3743,3.48826-12.26732-11.87723-12.88598-19.13452-.44727-5.24685.36559-10.77026-.1384-15.8616-1.51233-15.27783-4.37465-30.60936-10.98974-44.5047,12.58875-2.48735,26.8977-7.9709,38.0258-14.51842,1.29382-.76125,2.51922.17821,1.96898-2.48194-6.63386,1.15958-13.153,3.5184-19.79034,4.69931-8.22243,1.46292-18.48995,2.97904-26.75412,3.33236-3.21958.13764-5.33967-.54911-4.0337-4.08252L171.88156,79.99906c15.82321,11.11657,34.90759,16.31762,53.75556,19.72574,6.64231,1.20107,16.4914.96559,22.49016,2.50984,3.33145.8576,16.88047,10.19713,22.37702,12.62298,20.94521,9.24399,43.83645,13.34064,66.65627,14.34373,7.6635,7.34279,15.95536,14.58826,25.69402,18.81114ZM148.59041,143.72875c-.42854.68086-2.33911.95318-3.20114,2.27834-5.17626,7.95719-6.20454,20.79607,3.78779,25.17779,15.09092,6.61749,38.46336-4.23288,50.15518-14.21456,22.14603-18.90677,18.15457-45.40811-15.47979-37.47974-8.93806,2.1069-28.9074,12.39367-34.05118,19.96734-1.02458,1.50858-.59576,3.29358-1.21085,4.27083ZM269.64095,132.2791c-15.99668,1.92514-42.67228,15.93012-45.34418,33.39421-3.20148,20.92552,24.53797,19.96592,38.21423,16.47578,12.86748-3.28374,36.26177-16.40765,38.25907-30.73509,2.69502-19.33253-16.49803-20.89569-31.12911-19.1349ZM128.6169,194.25405c-17.49455,2.0398-51.37465,19.59099-46.543,41.03541,1.04374,4.63245,8.02564,8.02964,12.37534,8.62351,17.66359,2.41163,41.12457-7.76222,52.43604-21.38961,15.33322-18.47254,3.39565-30.79526-18.26838-28.26931ZM276.85707,200.01034c-9.36508.71183-19.18961,4.32913-28.27203,7.20311-35.2766,11.1627-71.6872,25.98182-105.09957,41.9101-3.1367,1.49532-7.44059,3.13995-9.6233,5.86647,35.85901-9.25944,70.51839-22.68748,104.67866-36.81111l38.31624-18.16857ZM269.64095,132.2791c14.63108-1.76079,33.82413-.19764,31.12911,19.1349-1.99729,14.32744-25.39158,27.45135-38.25907,30.73509-13.67625,3.49014-41.41571,4.44974-38.21423-16.47578,2.6719-17.46408,29.3475-31.46907,45.34418-33.39421ZM289.59879,161.73654c.89531-.87381,5.76511-9.94128,6.03061-11.46985,2.30113-13.24843-13.59778-14.12629-23.14402-13.14414-13.06767,1.34444-34.83104,12.01886-41.02342,23.97825-10.67489,20.61651,18.93722,19.49529,31.62988,15.62913,6.97117-2.1234,21.60263-10.20684,26.50695-14.99339ZM148.59041,143.72875c.61509-.97725.18628-2.76225,1.21085-4.27083,5.14378-7.57367,25.11312-17.86044,34.05118-19.96734,33.63436-7.92837,37.62582,18.57297,15.47979,37.47974-11.69182,9.98168-35.06426,20.83204-50.15518,14.21456-9.99233-4.38171-8.96405-17.22059-3.78779-25.17779.86203-1.32516,2.7726-1.59748,3.20114-2.27834ZM205.55141,126.31608c-6.88599-6.18618-24.93394-1.29788-32.60002,2.27339-8.11076,3.77841-24.65346,17.77509-26.03298,26.97652-3.33255,22.22816,31.14824,8.93496,40.85957,2.85007,7.55999-4.73692,28.23716-22.69965,17.77344-32.09997ZM128.6169,194.25405c21.66403-2.52595,33.6016,9.79676,18.26838,28.26931-11.31147,13.62739-34.77245,23.80124-52.43604,21.38961-4.3497-.59387-11.3316-3.99106-12.37534-8.62351-4.83165-21.44443,29.04845-38.99561,46.543-41.03541ZM138.51073,223.64904c12.9047-12.06089,15.85598-26.28714-7.02785-24.5259-10.14805.78104-31.171,10.02805-38.32481,17.17185-.37474.37421-5.15131,8.56269-5.36703,9.13135-4.95236,13.05494,7.71817,14.46307,17.4474,13.45109,6.02104-.62628,10.17689-3.28859,15.37522-4.68283,1.13446-.30427,2.71922.84375,3.11215.63591,1.06225-.56187,13.17882-9.68038,14.78492-11.18146Z"/><path class="cls-2" d="M276.85707,200.01034l-38.31624,18.16857c-34.16027,14.12364-68.81965,27.55167-104.67866,36.81111,2.18271-2.72652,6.4866-4.37115,9.6233-5.86647,33.41238-15.92828,69.82297-30.74739,105.09957-41.9101,9.08242-2.87398,18.90695-6.49129,28.27203-7.20311Z"/><path class="cls-2" d="M452.45574,125.62471c-.08159.15517-2.02146,2.45034-2.58356,2.37033,3.13809-12.53308-3.40378-22.23696-17.00967-19.98528,2.86712,8.29647.57949,15.89629-4.02011,22.98204l-1.99599-.50714c3.71733-6.13419,2.81438-15.05276-2.44073-20.24957-10.51033,3.15972-24.89743,17.49947-16.81085,28.53295,3.58206,4.88744,6.77735,4.75268,11.81187,6.2014,1.47167.42348,1.73612-.54716,1.45141,2.01567-10.31014,3.0653-22.56982-4.20303-23.02738-15.53979-.89286-22.12204,28.71042-39.7069,47.93088-29.84501,8.78617,4.50812,11.22758,15.40242,6.69414,24.0244Z"/><path class="cls-2" d="M289.59879,161.73654c-4.90432,4.78655-19.53578,12.86999-26.50695,14.99339-12.69266,3.86616-42.30478,4.98738-31.62988-15.62913,6.19238-11.95939,27.95575-22.6338,41.02342-23.97825,9.54624-.98215,25.44515-.10429,23.14402,13.14414-.2655,1.52857-5.1353,10.59604-6.03061,11.46985ZM172.95139,128.58947c-8.11076,3.77841-24.65346,17.77509-26.03298,26.97652-3.33255,22.22816,31.14824,8.93496,40.85957,2.85007,7.55999-4.73692,28.23716-22.69965,17.77344-32.09997-6.88599-6.18618-24.93394-1.29788-32.60002,2.27339ZM131.48287,199.12314c-10.14805.78104-31.171,10.02805-38.32481,17.17185-.37474.37421-5.15131,8.56269-5.36703,9.13135-4.95236,13.05494,7.71817,14.46307,17.4474,13.45109,6.02104-.62628,10.17689-3.28859,15.37522-4.68283,1.13446-.30427,2.71922.84375,3.11215.63591,1.06225-.56187,13.17882-9.68038,14.78492-11.18146,12.9047-12.06089,15.85598-26.28714-7.02785-24.5259Z"/></g></svg>