<svg xmlns="http://www.w3.org/2000/svg" width="600" height="335.951"><radialGradient id="a" cx="0" cy="0" r="1" fx="0" fy="0" gradientTransform="matrix(23.74843 0 0 -23.74843 483.001 146.384)" gradientUnits="userSpaceOnUse" spreadMethod="pad"><stop offset="0" style="stop-color:#ebd491"/><stop offset=".7" style="stop-color:#d2bb7b"/><stop offset="1" style="stop-color:#8b723c"/></radialGradient><path d="M553.955 335.95c-3.175 0-389.599-97.577-389.599-97.577l-27.627 91.513L4.906 296.462l21.96-93.027c-8.973-2.778-16.551-8.76-21.453-16.947-5.224-8.797-6.747-19.145-4.218-29.095l7.717-30.434c4.329-17.021 19.615-28.92 37.172-28.92 1.836 0 3.72.111 5.593.397l9.046-38.363L120.437 0l70.559 15.72-6.194 19.763c-10.892 34.689-16.154 79.393-7.975 94.503l394.25 99.987c20.484 5.197 32.964 26.104 27.73 46.624l-7.717 30.434c-4.292 17.049-19.615 28.92-37.135 28.92" style="fill:#fff"/><path d="M566.389 248.398 166.009 146.86c-27.868-26.612.654-117.072.654-117.072l-40.135-8.908-48.534 48.784-12.222 51.738-14.926-3.784c-10.347-2.594-20.88 3.683-23.51 14.03l-7.717 30.47c-2.63 10.311 3.646 20.871 13.994 23.474l16.042 4.07-21.96 92.954 96.092 24.378 27.581-91.513 397.824 100.854c10.347 2.631 20.88-3.609 23.473-13.956l7.754-30.47c2.594-10.385-3.683-20.918-14.03-23.511" style="fill:#8b723c"/><path d="m459.492 156.863-1.281-5.445-.145-.594-.589.153-1.618.406a1.496 1.496 0 0 1-1.816-1.078l-.836-3.305a1.48 1.48 0 0 1 .164-1.133c.203-.344.531-.586.918-.683l1.738-.442.571-.144-.133-.575-2.242-9.496 9.281-2.351 2.82 9.363.164.551.559-.141 43.098-10.929q.183-.047.367-.047a1.5 1.5 0 0 1 1.449 1.129l.836 3.3c.098.387.039.789-.168 1.133a1.47 1.47 0 0 1-.918.684l-43.375 11-.152.039-.114.109c-2.82 2.692-.918 10.399-.273 12.672l-3.395.754z" style="fill:url(#a)" transform="matrix(9.23067 0 0 -9.23067 -4158.412 1520.393)"/></svg>