<svg xmlns="http://www.w3.org/2000/svg" width="600" height="435.319"><radialGradient id="a" cx="0" cy="0" r="1" fx="0" fy="0" gradientTransform="matrix(17.17102 0 0 -17.17102 135.125 256.487)" gradientUnits="userSpaceOnUse" spreadMethod="pad"><stop offset="0" style="stop-color:#bf99c3"/><stop offset=".663" style="stop-color:#7b5190"/><stop offset="1" style="stop-color:#612c75"/></radialGradient><path d="M407.556 297.072c10.198 41.66 14.965 61.13 20.917 85.367-6.29-4.767-9.141-6.933-12.667-9.61-.893-8.5-4.256-38.94-8.25-75.757m-215.112-.043c-4.038 36.86-7.357 67.3-8.293 75.8-3.483 2.677-6.334 4.843-12.624 9.61 5.909-24.237 10.72-43.706 20.917-85.41m44.424-234.104s-9.947 35.24-18.022 63.677c-23.257-22.398-83.962-80.894-83.962-80.894S99.089 356.211 96.967 374.45C85.954 381.21 0 433.915 0 433.915h103.682c-.13.087-1.872 1.404-1.872 1.404h139.912s22.865-86.509 30.896-116.905c7.227 2.046 15.356 3.744 25.216 3.744h4.288c9.904 0 17.99-1.698 25.216-3.744 8.032 30.396 30.94 116.905 30.94 116.905H498.19s-1.741-1.317-1.916-1.404H600s-85.997-52.706-97.01-59.465c-2.08-18.24-37.917-328.742-37.917-328.742s-60.705 58.496-83.962 80.894C373.079 98.164 345.23.044 345.23.044S309.305 107.85 300 135.787C290.695 107.85 254.727 0 254.727 0Z" style="fill:#fff"/><path d="M302.122 302.002c24.367 0 38.69-11.47 38.69-11.47l32.985 124.642h64.45l-41.53-31.506-15.78-144.754 24.367-35.794 51.563 210.607H528.5l-44.38-27.207L449.727 88.51l-78.815 75.93-27.207-95.998-32.954 98.84h-21.504l-32.954-98.84-27.207 95.999-78.815-75.93-34.39 298.008-44.424 27.207h71.631l51.564-210.607 24.41 35.794-15.78 144.754-41.573 31.506h64.493l32.942-124.642s14.333 11.47 38.69 11.47z" style="fill:#612c75"/><path d="m136.586 263.773-.113-.343h-2.696l-.117.343-2.512 7.543-2.058-7.257-.227-.801-.601.578-6.516 6.277-3.043-26.383-.027-.238-.207-.129-2.571-1.578h4.418l4.645 18.973.266 1.094.632-.93 2.243-3.293.101-.149-.019-.183-1.45-13.301-.023-.215-.172-.129-2.633-1.996h4.055l2.93 11.082.195.735.598-.473c.011-.008 1.226-.945 3.242-.945h.394c2.02 0 3.235.937 3.246.945l.598.473.195-.735 2.93-11.082h4.051l-2.629 1.996-.172.129-.023.215-1.45 13.301-.023.183.105.149 2.239 3.293.633.93.265-1.094 4.649-18.973h4.418l-2.571 1.578-.207.129-.027.238-3.043 26.383-6.516-6.277-.601-.578-.227.801-2.058 7.261z" style="fill:url(#a)" transform="matrix(10.88297 0 0 -10.88297 -1170.562 3039.669)"/></svg>