<svg xmlns="http://www.w3.org/2000/svg" width="392.717" height="440.935" viewBox="0 0 368.172 413.377"><path d="M184.086 0 16.322 96.883l31.524 9.152c58.24 16.909 92.663 47.936 126.877 78.72l9.363 8.427 9.363-8.426c34.214-30.785 68.637-61.812 126.877-78.72l31.524-9.153zM0 114.576v197.301l11.691 1.955c54.536 9.115 94.102 39.743 133.258 77.023l23.655 22.522V214.936l-11.65-1.983c-58.653-9.987-89.315-33.729-133.28-75.75zm368.172 0-23.674 22.627c-43.965 42.021-74.627 65.763-133.28 75.75l-11.65 1.983v198.441l23.655-22.522c39.156-37.28 78.722-67.908 133.257-77.023l11.692-1.955z" style="fill:gray"/><path d="M184.086 16.166 51.75 92.59c61.273 17.79 98.125 50.975 132.336 81.758 34.21-30.783 71.062-63.969 132.336-81.758zM14 147.324v152.7c58.508 9.778 100.802 42.798 140.604 80.693V226.754C92.97 216.259 58.484 189.84 14 147.324m340.172 0c-44.484 42.517-78.97 68.935-140.604 79.43v153.963c39.802-37.895 82.096-70.915 140.604-80.694z"/></svg>