<svg xmlns="http://www.w3.org/2000/svg" width="294.538" height="330.702"><path d="M147.269 0 13.058 77.506l25.219 7.322c46.592 13.526 74.13 38.349 101.502 62.977l7.49 6.74 7.49-6.74c27.372-24.628 54.91-49.45 101.502-62.977l25.219-7.322ZM0 91.661v157.84l9.353 1.564c43.629 7.292 75.282 31.795 106.606 61.619l18.924 18.017V171.948l-9.32-1.586c-46.922-7.99-71.452-26.983-106.624-60.6zm294.537 0-18.938 18.102c-35.172 33.616-59.702 52.609-106.624 60.6l-9.32 1.586v158.753l18.924-18.017c31.324-29.824 62.978-54.327 106.606-61.619l9.353-1.564V91.661Z"/><linearGradient id="a" x1="257.145" x2="54.981" y1="183.947" y2="-18.217" gradientUnits="userSpaceOnUse"><stop offset=".2" style="stop-color:#8b723c"/><stop offset=".5" style="stop-color:#ebd491"/><stop offset=".8" style="stop-color:#8b723c"/></linearGradient><path fill="url(#a)" d="M147.269 12.933 41.4 74.072c49.02 14.232 78.5 40.78 105.869 65.406 27.369-24.626 56.85-51.174 105.869-65.406z" style="fill:url(#a)"/><linearGradient id="b" x1="184.182" x2="-30.61" y1="211.216" y2="211.216" gradientUnits="userSpaceOnUse"><stop offset=".2" style="stop-color:#8b723c"/><stop offset=".5" style="stop-color:#ebd491"/><stop offset=".8" style="stop-color:#8b723c"/></linearGradient><path fill="url(#b)" d="M11.2 117.86v122.159c46.806 7.823 80.641 34.239 112.482 64.555v-123.17C74.376 173.007 46.786 151.873 11.2 117.86" style="fill:url(#b)"/><linearGradient id="c" x1="590.477" x2="462.771" y1="-47.602" y2="173.591" gradientTransform="matrix(.8 0 0 -.8 -189.977 268.93)" gradientUnits="userSpaceOnUse"><stop offset=".2" style="stop-color:#8b723c"/><stop offset=".5" style="stop-color:#ebd491"/><stop offset=".8" style="stop-color:#8b723c"/></linearGradient><path fill="url(#c)" d="M283.337 117.86c-35.586 34.014-63.176 55.147-112.482 63.544v123.17c31.842-30.315 65.677-56.731 112.482-64.555z" style="fill:url(#c)"/></svg>