<?xml version="1.0" encoding="UTF-8" standalone="no"?>
<!DOCTYPE svg PUBLIC "-//W3C//DTD SVG 1.1//EN" "http://www.w3.org/Graphics/SVG/1.1/DTD/svg11.dtd">
<svg width="100%" height="100%" viewBox="0 0 1000 1000" version="1.1" xmlns="http://www.w3.org/2000/svg" xmlns:xlink="http://www.w3.org/1999/xlink" xml:space="preserve" xmlns:serif="http://www.serif.com/" style="fill-rule:evenodd;clip-rule:evenodd;stroke-linejoin:round;stroke-miterlimit:2;">
    <g id="C" transform="matrix(1,0,0,1,-0.94518,1.89036)">
        <rect x="0.945" y="-1.89" width="1000" height="1000" style="fill:none;"/>
        <g>
            <g transform="matrix(1,0,0,1,-3623.05,-1.89036)">
                <path d="M4124,748.414C4124,748.414 4062.76,737.216 3999.28,842.434L3953.24,822.13C3953.24,822.13 3946.93,824.986 3944.03,851.667C3944.03,851.667 3913.98,817.768 3904.77,798.382C3904.77,798.382 3792.19,734.788 3705.03,676.685C3705.03,676.685 3738.47,532.884 3660.21,453.292C3660.21,453.292 3660.21,439.246 3676.93,403.129C3676.93,403.129 3658.01,395.772 3624,395.103C3624,395.103 3684.29,332.232 3719.07,323.537C3719.07,323.537 3773.25,228.48 3929.09,148.333C3929.09,148.333 3865.4,253.843 3902.72,288.904C3949.04,332.424 4061.51,344.421 4123.59,344.896L4123.59,344.885L4123.82,344.898C4123.88,344.898 4123.94,344.899 4124,344.899C4185.99,344.474 4298.86,332.52 4345.28,288.904C4382.6,253.843 4318.91,148.333 4318.91,148.333C4474.75,228.48 4528.93,323.537 4528.93,323.537C4563.71,332.232 4624,395.103 4624,395.103C4589.98,395.772 4571.07,403.129 4571.07,403.129C4587.79,439.246 4587.79,453.292 4587.79,453.292C4509.53,532.884 4542.97,676.685 4542.97,676.685C4455.81,734.788 4343.23,798.382 4343.23,798.382C4334.02,817.768 4303.97,851.667 4303.97,851.667C4301.07,824.986 4294.77,822.13 4294.77,822.13L4248.72,842.434C4185.24,737.216 4124,748.414 4124,748.414Z" style="fill:white;"/>
            </g>
            <g transform="matrix(1,0,0,1.16535,-3623.05,-2.42564)">
                <path d="M3817.59,563.224C3817.59,563.224 3875.16,347.042 3627.11,336.609C3627.11,336.609 3683.64,261.257 3781.64,263.333C3879.64,265.41 3978.69,340.1 3985.58,343.808C3992.47,347.516 4017.89,368.175 4097.35,376.65C4097.35,376.65 4105,352.2 4124,343.808C4124,343.808 4138.37,347.341 4150.95,376.713C4150.95,376.713 4226.9,374.632 4273.68,338.047C4320.47,301.462 4408.03,263.589 4469.8,263.333C4531.58,263.078 4573.88,288.867 4624,334.449C4624,334.449 4381.86,335.373 4432.42,563.554C4432.42,563.554 4360.79,524.52 4342.42,529.768C4342.42,529.768 4409.98,635.783 4305.03,736.667C4305.03,736.667 4286.01,679.466 4277.48,674.219C4277.48,674.219 4268.3,650.604 4223.04,620.431C4177.78,590.257 4139.76,559.427 4124,531.221C4124,531.221 4081.35,590.257 4030.19,615.839C4030.19,615.839 3997.39,636.173 3971.81,668.971C3946.22,701.768 3944.91,736.667 3944.91,736.667C3944.91,736.667 3837.99,651.26 3906.21,530.565C3906.21,530.565 3870.66,529.632 3817.59,563.224Z"/>
            </g>
            <g>
                <g transform="matrix(1,0,0,1,-3623.05,-1.89036)">
                    <path d="M3938.67,721.806C3938.67,721.806 3894.5,657.663 3937.09,612.973C3937.09,612.973 3945.4,602.833 4012.79,612.217C4012.79,612.217 4095.29,623.689 4086.32,533.145C4086.32,533.145 4148.85,608.415 4011.83,696.628C4011.83,696.628 3986.45,689.712 3938.67,721.806Z" style="fill:white;"/>
                </g>
                <g transform="matrix(-1,0,0,1,4626.5,-1.89036)">
                    <path d="M3938.67,721.806C3938.67,721.806 3894.5,657.663 3937.09,612.973C3937.09,612.973 3945.4,602.833 4012.79,612.217C4012.79,612.217 4095.29,623.689 4086.32,533.145C4086.32,533.145 4148.85,608.415 4011.83,696.628C4011.83,696.628 3986.45,689.712 3938.67,721.806Z" style="fill:white;"/>
                </g>
            </g>
            <g>
                <g transform="matrix(1,0,0,1,-3623.05,-1.89036)">
                    <path d="M3905.04,688.964C3905.04,688.964 3913.71,732.669 3935.21,747.237C3935.21,747.237 3953.25,725.732 3997.3,715.673C3997.3,715.673 3941.8,762.487 3936.25,802.041C3936.25,802.041 3894.63,767.506 3905.04,688.964Z" style="fill:rgb(254,255,255);"/>
                </g>
                <g transform="matrix(-1,0,0,1,4624.28,-1.89036)">
                    <path d="M3905.04,688.964C3905.04,688.964 3913.71,732.669 3935.21,747.237C3935.21,747.237 3953.25,725.732 3997.3,715.673C3997.3,715.673 3941.8,762.487 3936.25,802.041C3936.25,802.041 3894.63,767.506 3905.04,688.964Z" style="fill:rgb(254,255,255);"/>
                </g>
            </g>
            <g transform="matrix(1,0,0,1,-3623.05,-1.89036)">
                <path d="M3990,808.661C3990,808.661 4113.34,606.659 4258.06,808.389L4286.53,793.274C4286.53,793.274 4284.2,759.623 4195.71,694.65C4195.71,694.65 4160.02,674.785 4124.19,614.663C4124.19,614.663 4106.74,650.326 4056.06,694.877C4056.06,694.877 3982.55,739.465 3962.51,794.56L3990,808.661Z"/>
            </g>
            <g transform="matrix(1.10954,0,0,1.20678,-4075.66,-80.1747)">
                <path d="M4124.79,408.172C4122.56,408.74 4106.12,413.788 4097.37,441.129C4097.37,441.129 4018.64,436.078 3972.93,395.438C3933.35,360.239 3883.32,346.661 3882.3,341.052L3882.12,303.845C3882.12,303.845 3926.83,373.214 4124.54,371.898L4124.54,371.895C4124.62,371.895 4124.71,371.896 4124.79,371.896C4124.88,371.896 4124.96,371.895 4125.05,371.895L4125.05,371.898C4322.76,373.214 4367.46,303.845 4367.46,303.845L4367.28,341.052C4366.27,346.661 4316.24,360.239 4276.65,395.438C4230.95,436.078 4152.21,441.129 4152.21,441.129C4143.47,413.788 4127.03,408.74 4124.79,408.172Z"/>
            </g>
            <g transform="matrix(1.03059,0,0,1.03059,-3737.7,-22.5181)">
                <path d="M3705.72,409.428C3705.72,409.428 3856.29,451.317 3817.83,651.01C3817.83,651.01 3856.92,622.355 3907.05,614.994C3907.05,614.994 3868.49,672.8 3889.87,757.659C3889.87,757.659 3843.72,736.835 3738.09,661.296C3738.09,661.296 3760.27,520.281 3690.8,445.684L3705.72,409.428Z"/>
            </g>
            <g transform="matrix(1,0,0,1,-3623.05,-1.89036)">
                <path d="M3858.79,330.656C3858.79,330.656 3835.44,313.003 3763.69,313.573C3763.69,313.573 3788.18,268.587 3869.04,215.059C3869.04,215.059 3853.66,264.6 3858.79,330.656Z"/>
            </g>
            <g transform="matrix(-1.03426,0,0,1.03426,4753.12,-24.657)">
                <path d="M3705.72,409.428C3705.72,409.428 3856.29,451.317 3817.83,651.01C3817.83,651.01 3856.92,622.355 3907.05,614.994C3907.05,614.994 3868.49,672.8 3889.87,757.659C3889.87,757.659 3843.72,736.835 3738.09,661.296C3738.09,661.296 3760.27,520.281 3690.8,445.684L3705.72,409.428Z"/>
            </g>
            <g transform="matrix(-1,0,0,1,4624.95,-1.89036)">
                <path d="M3858.79,330.656C3858.79,330.656 3835.44,313.003 3763.69,313.573C3763.69,313.573 3788.18,268.587 3869.04,215.059C3869.04,215.059 3853.66,264.6 3858.79,330.656Z"/>
            </g>
            <g transform="matrix(1,0,0,1,-3623.05,-1.89036)">
                <path d="M3845.13,608.139C3845.13,608.139 3870.68,421.062 3682.03,377.294C3682.03,377.294 3771.07,270.139 3960.48,418.798C3960.48,418.798 3992.17,455.774 4083.48,467.093C4083.48,467.093 4066.12,505.578 4070.65,524.444C4074.09,530.275 4073.16,577.284 4035.77,587.736C4035.77,587.736 4003.44,579.924 3972.12,579.924C3940.79,579.924 3874.42,588.037 3845.13,608.139ZM3858.89,467.425C3862.51,522.051 4017.39,569.876 4043.16,552.616C4012.69,546.842 3988.31,505.786 3988.31,505.786C3963.62,463.768 3954.34,457.044 3954.34,457.044C3899.36,407.408 3810.24,400.008 3810.24,400.008C3861.14,426.314 3857.24,442.675 3858.89,467.425Z" style="fill:white;"/>
            </g>
            <g transform="matrix(-1,0,0,1,4625.7,-1.89036)">
                <path d="M3845.13,608.139C3845.13,608.139 3870.68,421.062 3682.03,377.294C3682.03,377.294 3771.07,270.139 3960.48,418.798C3960.48,418.798 3992.17,455.774 4083.48,467.093C4083.48,467.093 4066.12,505.578 4070.65,524.444C4074.09,530.275 4073.16,577.284 4035.77,587.736C4035.77,587.736 4003.44,579.924 3972.12,579.924C3940.79,579.924 3874.42,588.037 3845.13,608.139ZM3858.89,467.425C3862.51,522.051 4017.39,569.876 4043.16,552.616C4012.69,546.842 3988.31,505.786 3988.31,505.786C3963.62,463.768 3954.34,457.044 3954.34,457.044C3899.36,407.408 3810.24,400.008 3810.24,400.008C3861.14,426.314 3857.24,442.675 3858.89,467.425Z" style="fill:white;"/>
            </g>
            <g transform="matrix(1,0,0,1,-3623.05,-1.89036)">
                <path d="M3871.63,436.6C3871.63,436.6 3908.48,441.473 3939.24,473.452C3970,505.43 3963.3,511.826 3987.36,533.145C3987.36,533.145 3879.85,514.352 3871.63,436.6Z" style="fill:white;"/>
            </g>
            <g transform="matrix(-1,0,0,1,4625.44,-1.89036)">
                <path d="M3871.63,436.6C3871.63,436.6 3908.48,441.473 3939.24,473.452C3970,505.43 3963.3,511.826 3987.36,533.145C3987.36,533.145 3879.85,514.352 3871.63,436.6Z" style="fill:rgb(254,255,255);"/>
            </g>
            <g transform="matrix(1,0,0,1,-3623.05,-1.89036)">
                <path d="M4124,589.166C4124,589.166 4119.7,543.25 4091.05,505.274C4091.05,505.274 4092.74,468.336 4124,428.977C4124,428.977 4145.25,447.273 4157.33,505.272C4157.33,505.272 4132.78,532.789 4124,589.166Z" style="fill:white;"/>
            </g>
        </g>
    </g>
</svg>
