<svg xmlns="http://www.w3.org/2000/svg" width="1187.977" height="1008.761" viewBox="-50 -50 980.349 846"><path d="M24.246-50h830.12c6.38 19.67 12.93 39.28 19.07 59.02 12.17 40.14 22.53 80.81 32.07 121.64 8.73 39.66 16.93 79.47 23.01 119.62 4.68 29.03 7.21 58.35 8.58 87.7-.03 7.69-.01 15.38-.04 23.07-.05 1.54.29 3 .32 4.38l-.3 1.84c-.94 2.86.32 6.53 0 9.75-.49 51.33-6.96 102.49-16.49 152.91-12.23 67.81-28.59 134.83-47.9 200.96-6.42 21.81-13.7 43.35-20.27 65.11H26.386c-6.86-18.01-14.16-35.87-20.43-54.1-26.67-78.54-45.61-159.66-57.24-241.76-1.42-12.09-2.6-24.2-3.96-36.3-1-12.37-1.57-24.78-2.47-37.16-.55-5.26.16-10.56-.48-15.81-.8-8.42.5-16.94-.73-25.32v-3.02c1.14-6.02-.02-12.17.81-18.22 1.57-72.74 12.47-144.98 27.19-216.14 8.67-42.85 19.83-85.16 31.99-127.13C8.136-2.85 16.276-26.41 24.246-50m34.37 48.51c-4.74 15.29-9.91 30.44-14.39 45.82-7.22 25.33-14.29 50.73-20.14 76.42-4.45 18.12-8.08 36.43-11.9 54.69-.05.53-.17 1.6-.22 2.13-1.15 4.58-1.63 9.3-2.78 13.88-.05.53-.17 1.59-.22 2.12-7.72 40.31-12.92 81.15-16.31 122.02-.02 6.96-1.14 13.86-1.16 20.83-1.17 4.63.34 9.53-.85 14.16-.21 5.81.21 11.65-.57 17.43.01 14.03-.04 28.06.03 42.09.94 5.89-.01 11.87.87 17.76.3 10.2.9 20.38 1.72 30.56.58 3.63.71 7.33 1 11 .47 2.02.3 4.13.76 6.16.25 4.64.73 9.26 1.42 13.86 9.76 79.38 28.91 157.43 54.33 233.21 2.89 8.36 6.33 16.53 9.14 24.92 124.24-.16 248.48-.02 372.72-.07 7.33-.09 14.68.32 21.98-.51 121.04.02 242.09 0 363.13.01 3.97-14.13 9.09-27.91 13.06-42.04 7.96-26.72 15.31-53.64 21.54-80.82 11.71-50.19 22.15-100.73 29.7-151.73.05-.95.12-1.89.2-2.82.49-2.99.77-6 1.03-9.01.27-1.72.45-3.45.74-5.16.3-3.01.43-6.04 1.05-9 .06-1.62.08-3.23.17-4.84.56-2.36.2-4.82.79-7.16.29-5.96 1.22-11.87 1.2-17.84 1.02-3.3-.2-6.86.85-10.16.13-3.18-.11-6.38.39-9.53.69-6.13-.5-12.4.61-18.47.12-14.94.12-29.9 0-44.84-.7-5.61-.62-11.34-1.01-17-.69-3.95-.64-8.01-1.04-12-.54-2.98-.72-6-1.01-9-.52-2.98-.72-6-1-9.01-.52-2.97-.71-5.99-1-8.99-1.85-15.1-4.14-30.14-6.52-45.16-1.79-9.18-3.09-18.45-4.74-27.65-8.66-44.29-18.77-88.31-30.95-131.76-5.07-18.73-10.19-37.46-16.14-55.94-1.93-6.34-4.27-12.58-5.66-19.07-122.46.01-244.92 0-367.38 0-5.33.04-10.68-.24-15.98.48-125.82.06-251.64-.02-377.46.03"/><path d="M111.256 53.47c129.92.07 259.84.01 389.76.03 7.03.11 14.09-.35 21.09.5h176.93c5.66.06 11.35-.27 16.99.48 19.43.04 38.87.02 58.3.01 5.38 15.35 11.45 30.46 16.18 46.03 15.5 49.37 26.43 100.06 34.96 151.07.69 5.61 1.67 11.18 2.23 16.81 2.25 13.9 3.15 27.99 3.96 42.02.94 4.42.18 9.01.4 13.5.77 9.67.78 19.42 0 29.09.32 13.06-.98 26.04-1 39.08-.83 7.13-.29 14.4-1.41 21.49-.1 7.29-1.05 14.54-1.15 21.84-.83 6.97-1.53 13.98-2.04 21-.47 2.02-.3 4.13-.76 6.16-.62 8.38-1.86 16.69-2.99 25.01-2.24 18.36-5.22 36.64-8.48 54.84-4.77 28.65-11.29 56.97-18.53 85.09-5.1 21.11-11.9 41.75-18.29 62.48-225.99-.01-451.97.02-677.95-.01-6.1-21.21-12.36-42.38-17.26-63.9-5.6-23.05-10.43-46.27-15.01-69.53-.05-.53-.16-1.6-.22-2.13-3.56-17.6-6.36-35.34-9.28-53.06-2.38-15.22-4.51-30.48-6.25-45.79-.37-2.04-.4-4.13-.76-6.16-.08-1.29-.12-2.57-.19-3.85-.64-3.29-.74-6.66-1.03-9.99-.65-3.97-.91-7.99-.96-12-.95-2.98.1-6.18-.84-9.16-.17-5.01-.35-10.06-1-15-.3-4.78.27-9.6-.38-14.36-.58-5.04.22-10.15-.47-15.19-.89-6.96.7-13.9.27-20.88.28-6.17-.57-12.46.44-18.56.35-13.37 1.21-26.73 2.94-40 .25-3.35.45-6.71.98-10.02 1.88-13.65 3.76-27.32 6.49-40.83 7.93-43.47 18.22-86.56 32-128.56 6.19-19.65 14.34-38.59 22.33-57.55m140.25 73.04.24 3.13c41.99 25.4 83.61 51.4 125.65 76.71.06.79.19 2.36.25 3.14-28.85.01-57.71.01-86.56 0-.08 127.69.12 255.39-.1 383.08-13.28 7.65-26.38 15.64-39.47 23.62l.08 2.81c65.19.01 130.38-.03 195.57.02 1.19.03 2.35-.12 3.49-.44 8.97.09 17.9-.48 26.84-1.2 2.04-.42 4.14-.42 6.2-.78.92-.07 1.85-.13 2.78-.19 21.22-2.92 42.3-7.78 62.13-16.02 23.37-9.37 44.91-23.29 63.09-40.72 6.74-6.37 12.44-13.7 18.51-20.7 4.51-6.03 8.63-12.35 12.8-18.62 3.11-4.6 5.02-9.85 7.84-14.61 4.23-7.23 6.78-15.25 10.02-22.94 3.1-7.27 4.79-15.03 7.07-22.57 2.86-9.02 3.98-18.45 5.97-27.67.17-1.07.37-2.13.58-3.18.05-.45.14-1.33.19-1.78.5-2.99.76-6.01 1.04-9.02.41-2.04.29-4.13.72-6.16.33-3 .42-6.04 1.07-8.99-.07-6.49.91-12.92.55-19.41 1.29-13.14-.04-26.31-.57-39.44-.73-7.74-1.6-15.51-2.82-23.21-.04-.44-.13-1.32-.18-1.76-.21-1.06-.41-2.11-.58-3.17-6.98-39.98-22.7-78.86-47.88-110.88-13.79-16.61-29.79-31.51-48.04-43.11-32.22-21.09-70.36-31.76-108.49-34.86-8.12-.81-16.28-.29-24.4-1.1-64.53.03-129.06-.02-193.59.02"/><path d="M396.576 172.5c19.85.17 39.72-.45 59.54.52 16.97 1.5 34.04 6.07 48.24 15.77 14.09 9.08 24.97 22.48 32.69 37.25 9.6 18.01 14.75 37.97 18.58 57.9 1.56 10.47 3.38 20.91 4.07 31.48 1.2 7.33.93 14.84 1.81 22.16.06 3.11-.01 6.24.47 9.34.43 8.63-.41 17.32.53 25.94-1.2 8.86.36 17.9-.86 26.72-.16 5.67-.32 11.39-.99 16.99-.14 8.33-1.65 16.56-2.19 24.86-3.61 24.99-8.74 50.13-19.63 73.07-7.36 16.16-18.81 30.54-33.29 40.88-11.87 8.31-25.68 13.81-40.04 15.78-2.31.54-4.68.76-6.99 1.27-20.61 1-41.29.42-61.94.57z"/></svg>