<?xml version="1.0" encoding="UTF-8" standalone="no"?>
<svg
   version="1.2"
   id="Layer_1"
   x="0px"
   y="0px"
   width="375.2182"
   height="300.00201"
   xmlns="http://www.w3.org/2000/svg"
   xmlns:svg="http://www.w3.org/2000/svg">
  <defs
     id="defs5" />
  <g
     id="g5"
     transform="translate(5.9464862e-4)">
    <path
       d="m 366.574,163.509 c -1.773,-0.745 -3.626,-1.102 -5.457,-1.102 -4.545,0 -8.95,2.201 -11.646,6.141 -6.153,8.993 -16.315,14.362 -27.184,14.362 -18.147,0 -32.91,-14.764 -32.91,-32.91 0,-18.147 14.764,-32.91 32.91,-32.91 10.869,0 21.031,5.369 27.184,14.362 2.696,3.94 7.101,6.141 11.646,6.141 1.831,0 3.684,-0.357 5.457,-1.102 6.174,-2.593 9.674,-9.171 8.374,-15.741 C 368.305,87.162 350.066,56.553 323.59,34.561 310.414,23.617 295.617,15.08 279.61,9.189 263.041,3.092 245.612,0 227.809,0 c -0.49,0 -0.978,0.008 -1.466,0.016 l -0.525,0.008 c -3.754,0.049 -7.334,1.594 -9.946,4.291 -2.612,2.697 -4.041,6.324 -3.97,10.079 0.006,0.33 0.013,0.636 0.013,0.942 0,15.728 -7.501,30.358 -20.167,39.571 h -8.276 c -12.666,-9.213 -20.167,-23.843 -20.167,-39.571 0,-0.307 0.007,-0.612 0.012,-0.918 0.071,-3.754 -1.358,-7.394 -3.97,-10.091 -2.612,-2.697 -6.192,-4.254 -9.946,-4.303 L 148.876,0.016 C 148.386,0.008 147.898,0 147.408,0 129.605,0 112.177,3.092 95.608,9.19 79.6,15.081 64.803,23.617 51.628,34.561 25.152,56.554 6.912,87.163 0.269,120.751 c -1.299,6.569 2.2,13.147 8.374,15.741 1.773,0.745 3.626,1.102 5.457,1.102 4.545,0 8.95,-2.201 11.646,-6.141 6.153,-8.993 16.316,-14.362 27.184,-14.362 18.147,0 32.91,14.764 32.91,32.91 0,18.147 -14.764,32.91 -32.91,32.91 -10.869,0 -21.031,-5.369 -27.184,-14.362 -2.696,-3.94 -7.101,-6.141 -11.646,-6.141 -1.831,0 -3.684,0.357 -5.457,1.102 -6.174,2.593 -9.674,9.171 -8.374,15.741 6.643,33.588 24.882,64.197 51.358,86.189 13.175,10.944 27.973,19.481 43.98,25.372 16.569,6.098 33.997,9.19 51.8,9.19 0.49,0 0.978,-0.008 1.466,-0.016 l 0.525,-0.008 c 3.754,-0.049 7.334,-1.594 9.946,-4.291 2.612,-2.697 4.041,-6.324 3.97,-10.078 -0.006,-0.33 -0.013,-0.636 -0.013,-0.943 0,-15.728 7.501,-30.358 20.167,-39.571 h 8.276 c 12.666,9.213 20.167,23.843 20.167,39.571 0,0.307 -0.007,0.613 -0.012,0.918 -0.071,3.754 1.358,7.394 3.97,10.091 2.612,2.697 6.192,4.254 9.946,4.303 l 0.525,0.008 c 0.488,0.008 0.976,0.016 1.466,0.016 17.803,0 35.231,-3.092 51.8,-9.19 16.008,-5.891 30.805,-14.427 43.98,-25.372 26.476,-21.992 44.715,-52.602 51.358,-86.189 1.303,-6.571 -2.196,-13.149 -8.37,-15.742 z"
       id="path1" />
    <linearGradient
       id="SVGID_1_"
       gradientUnits="userSpaceOnUse"
       x1="82.890198"
       y1="254.71851"
       x2="291.97739"
       y2="45.631302">
      <stop
         style="stop-color:#8b723c"
         offset="0"
         id="stop1" />
      <stop
         style="stop-color:#d2bb7b"
         offset="0.3"
         id="stop2" />
      <stop
         style="stop-color:#ebd491"
         offset="0.5"
         id="stop3" />
      <stop
         style="stop-color:#d2bb7b"
         offset="0.7"
         id="stop4" />
      <stop
         style="stop-color:#8b723c"
         offset="1"
         id="stop5" />
    </linearGradient>
    <path
       fill="url(#SVGID_1_)"
       d="m 361.112,176.513 c -12.334,62.36 -67.323,109.383 -133.302,109.383 -0.604,0 -1.204,-0.015 -1.806,-0.023 0.008,-0.402 0.015,-0.804 0.015,-1.208 0,-21.965 -11.24,-41.303 -28.279,-52.584 V 67.919 c 17.039,-11.281 28.279,-30.618 28.279,-52.584 0,-0.404 -0.008,-0.806 -0.015,-1.208 0.602,-0.008 1.202,-0.023 1.806,-0.023 65.979,0 120.969,47.023 133.302,109.383 -8.468,-12.377 -22.696,-20.502 -38.825,-20.502 -25.966,0 -47.015,21.049 -47.015,47.015 0,25.966 21.049,47.015 47.015,47.015 16.129,0 30.356,-8.125 38.825,-20.502 z M 149.199,15.336 c 0,-0.404 0.008,-0.806 0.015,-1.208 -0.602,-0.008 -1.202,-0.023 -1.806,-0.023 -65.979,0 -120.969,47.023 -133.302,109.383 8.468,-12.377 22.696,-20.502 38.825,-20.502 25.966,0 47.015,21.049 47.015,47.015 0,25.966 -21.049,47.015 -47.015,47.015 -16.129,0 -30.356,-8.125 -38.825,-20.502 12.334,62.36 67.323,109.383 133.302,109.383 0.604,0 1.204,-0.015 1.806,-0.023 -0.008,-0.402 -0.015,-0.804 -0.015,-1.208 0,-21.965 11.24,-41.303 28.279,-52.584 V 67.919 C 160.439,56.638 149.199,37.301 149.199,15.336 Z"
       id="path5"
       style="fill:url(#SVGID_1_)" />
  </g>
</svg>
