<?xml version="1.0" encoding="UTF-8" standalone="no"?>
<svg
   version="1.2"
   id="Layer_1"
   x="0px"
   y="0px"
   width="347.00601"
   height="271.793"
   xmlns="http://www.w3.org/2000/svg"
   xmlns:svg="http://www.w3.org/2000/svg">
  <defs
     id="defs1" />
  <path
     d="m 347.006,162.409 c -12.334,62.36 -67.323,109.383 -133.302,109.383 -0.604,0 -1.204,-0.015 -1.806,-0.023 0.008,-0.402 0.015,-0.804 0.015,-1.208 0,-21.965 -11.24,-41.303 -28.279,-52.584 V 53.815 c 17.039,-11.281 28.279,-30.618 28.279,-52.584 0,-0.404 -0.008,-0.806 -0.015,-1.208 C 212.5,0.015 213.1,0 213.704,0 279.683,0 334.673,47.023 347.006,109.383 338.538,97.006 324.31,88.881 308.181,88.881 c -25.966,0 -47.015,21.049 -47.015,47.015 0,25.966 21.049,47.015 47.015,47.015 16.129,0 30.356,-8.125 38.825,-20.502 z M 135.093,1.232 c 0,-0.404 0.008,-0.806 0.015,-1.208 C 134.506,0.016 133.906,0.001 133.302,0.001 67.323,0.001 12.333,47.024 0,109.384 8.468,97.007 22.696,88.882 38.825,88.882 c 25.966,0 47.015,21.049 47.015,47.015 0,25.966 -21.049,47.015 -47.015,47.015 -16.129,0 -30.356,-8.125 -38.825,-20.502 12.334,62.36 67.323,109.383 133.302,109.383 0.604,0 1.204,-0.015 1.806,-0.023 -0.008,-0.402 -0.015,-0.804 -0.015,-1.208 0,-21.965 11.24,-41.303 28.279,-52.584 V 53.815 C 146.333,42.534 135.093,23.197 135.093,1.232 Z"
     id="path1" />
</svg>
