<?xml version="1.0" encoding="UTF-8" standalone="no"?>
<!-- Generator: Adobe Illustrator 27.6.1, SVG Export Plug-In . SVG Version: 6.00 Build 0)  -->

<svg
   version="1.1"
   id="Layer_1"
   x="0px"
   y="0px"
   viewBox="0 0 547.3 500.0025"
   xml:space="preserve"
   width="547.29999"
   height="500.0025"
   xmlns="http://www.w3.org/2000/svg"
   xmlns:svg="http://www.w3.org/2000/svg"><defs
   id="defs1" />
<style
   type="text/css"
   id="style1">
	.st0{fill:#FFFFFF;}
</style>

<path
   id="path2"
   class="st0"
   d="m 357.4,0 -7.2,9.9 -12.9,17.8 C 326.7,42.3 310.8,74 302.1,112.1 v 0.2 c -8.7,38 -9.9,82.7 14.7,118.2 16.5,23.8 16.9,46.5 8.3,63.9 -8.6,17.4 -26.6,29.8 -51.5,30.9 0,0 -0.1,0 -0.1,0 v 0 h -0.4 -0.3 -0.4 v 0 c 0,0 -0.1,0 -0.1,0 -25,-1 -42.9,-13.5 -51.5,-30.9 -8.6,-17.4 -8.2,-40 8.3,-63.9 24.6,-35.6 23.3,-80.3 14.6,-118.4 C 235,74 219.1,42.3 208.5,27.7 L 195.4,9.9 188.2,0 l -0.7,12.2 -1.2,22 c -2.4,44 -3.2,84.3 -26.9,120.3 C 143.7,135.9 126,124.2 107.6,117.3 85.1,109 61.9,107.7 39.3,107.5 L 14,107.3 0,107.2 l 11.6,8 20.9,14.4 C 51.8,143 77,162 89.4,193.5 c 12.4,31.6 13.1,77 -22.1,146.9 0,0 0,0 0,0 l -1.3,2.5 -0.7,1.4 0.4,1.5 0.6,2.7 c 0,0 0,0 0,0 11.2,48.9 40.9,87.3 79.2,113 v 0.1 l 1.9,1.3 c 0.3,0.2 0,0 0.1,0 0.1,0 0.3,0.2 0.1,0.1 -0.1,0 0.1,0 0,0 37.2,25.4 81.3,37.2 125.1,37 0,0 0.2,0 0.5,0 0,0 0,0 0,0 0.1,0 0.1,0 0.1,0 43.8,0.2 87.9,-11.6 125.1,-37.1 -0.1,0 0,0 0.1,-0.1 39.2,-25.7 69.7,-64.6 81,-114.3 v 0 l 0.6,-2.8 0.3,-1.5 -0.7,-1.4 -1.3,-2.5 c -35.2,-69.8 -34.1,-115.2 -21.3,-146.8 12.7,-31.5 38.3,-50.6 57.8,-64 l 20.8,-14.4 11.6,-8 -14.1,0.1 -25.3,0.2 v 0 c -22.5,0.2 -46.1,1.5 -69,9.7 -18.8,6.8 -36.8,18.6 -52.7,37.2 C 362.5,118.3 361.6,78 359.3,34 l -1.2,-22 z" />
<path
   id="path15"
   d="M 198.5,34.8 C 195.9,83.6 195.3,132 159.6,174.6 126,125.1 83.4,119.9 39.3,119.7 c 39.5,27.3 111.2,82.6 38.8,226.2 10.6,46.6 39,82.9 76.1,107.1 35,24 76.7,35.2 118.3,34.9 0.2,0 0.4,0 0.7,0 41.6,0.2 83.4,-11 118.4,-35 37,-24.2 65.4,-60.5 76,-107 -72.4,-143.7 0.9,-199 40.4,-226.2 -44.2,0.3 -88.3,5.5 -121.9,54.9 -35.7,-42.5 -36.3,-91 -38.9,-139.8 -17.8,24.4 -63.8,125.9 -20.4,188.7 37.1,53.7 5,111.5 -52.9,113.8 h -1.1 -1 C 213.9,335 181.8,277.2 218.9,223.5 262.3,160.7 216.3,59.2 198.5,34.8 Z" />
</svg>
