<svg xmlns="http://www.w3.org/2000/svg" xmlns:xlink="http://www.w3.org/1999/xlink" width="600" height="483.929"><radialGradient id="a" cx="0" cy="0" r="1" fx="0" fy="0" gradientTransform="matrix(20.59714 0 0 -20.59714 99.67 371.885)" gradientUnits="userSpaceOnUse" spreadMethod="pad"><stop offset="0" style="stop-color:#612c75"/><stop offset=".3" style="stop-color:#7b5190"/><stop offset=".5" style="stop-color:#bf99c3"/><stop offset=".7" style="stop-color:#7b5190"/><stop offset="1" style="stop-color:#612c75"/></radialGradient><radialGradient xlink:href="#a" id="b" cx="0" cy="0" r="1" fx="0" fy="0" gradientTransform="translate(299.987 244.49)scale(249.18906)" gradientUnits="userSpaceOnUse" spreadMethod="pad"/><path fill="#fff" d="M163.75 48.115C38 109.453 6.194 256.144 4.863 262.387L0 286.244h24.39c11.106 0 15.208 0 36.9 29.641 5.25 7.09 9.836 13.659 14.699 20.652 15.643 22.394 31.855 45.598 69.141 86.853 46.083 50.946 127.407 59.027 151.277 60.358l.616.181h.57s.846 0 2.407-.048c1.56.048 2.36.048 2.36.048l.665-.181h.568c23.822-1.33 105.194-9.412 151.228-60.358 37.335-41.255 53.499-64.46 69.142-86.853 4.863-6.993 9.497-13.562 14.687-20.652 21.692-29.64 25.854-29.64 36.96-29.64H600l-4.924-23.858c-1.27-6.243-32.98-153.454-159.164-214.417-34.444-16.636-84.966-19.805-84.966-19.805-10.26-7.937-22.116-15.401-35.775-21.45L300 0l-15.171 6.715c-13.466 5.952-25.237 13.32-35.4 21.075 0 0-59.124 7.367-85.68 20.325"/><path d="M307.138 382.558S454.87 355.06 454.87 197.068c0 0-35.69 65.27-106.997 97.827V254.16s56.05-27.5 89.648-86.575c0 0-7.09-43.856-25.467-66.262 0 0-19.333 49.905-64.181 79.497v-38.762s22.442-22.394 35.677-45.84c0 0-23.434-47.873-76.412-71.308zM216.45 96.218c13.223 23.446 35.629 45.84 35.629 45.84v38.762c-44.8-29.592-64.181-79.497-64.181-79.497-18.33 22.406-25.467 66.262-25.467 66.262 33.597 59.075 89.648 86.575 89.648 86.575v40.735c-71.32-32.557-106.997-97.827-106.997-97.827 0 157.991 147.78 185.49 147.78 185.49V24.91c-52.978 23.435-76.412 71.307-76.412 71.307m266.44 117.208c0 96.072-70.28 201.133-182.89 202.694-112.67-1.56-182.937-106.622-182.937-202.694 0-91.68 56.05-147.78 56.05-147.78C53.923 122.737 24.39 266.403 24.39 266.403c21.353 0 30.524 7.138 52.93 37.71 22.442 30.524 34.685 52.979 82.558 105.957 41.304 45.695 117.341 52.736 137.57 53.825v.193s.895 0 2.552-.096c1.61.096 2.553.096 2.553.096v-.193c20.18-1.089 96.265-8.13 137.52-53.825 47.922-52.978 60.165-75.433 82.559-105.957 22.406-30.572 31.576-37.71 52.978-37.71 0 0-29.532-143.666-148.772-200.758 0 0 56.051 56.1 56.051 147.78" style="fill:url(#b)"/></svg>