<svg xmlns="http://www.w3.org/2000/svg" xmlns:xlink="http://www.w3.org/1999/xlink" width="600" height="84.886"><linearGradient id="a" x1="0" x2="1" y1="0" y2="0" gradientTransform="rotate(160 21.21 200.046)scale(-56.32325 56.32324)" gradientUnits="userSpaceOnUse" spreadMethod="pad"><stop offset="0" style="stop-color:#536e78"/><stop offset=".3" style="stop-color:#99aebc"/><stop offset=".5" style="stop-color:#d9eaf3"/><stop offset=".7" style="stop-color:#99aebc"/><stop offset="1" style="stop-color:#536e78"/></linearGradient><linearGradient xlink:href="#a" id="b" x1="0" x2="1" y1="0" y2="0" gradientTransform="rotate(20 161.348 175.007)scale(519.90695 519.9068)" gradientUnits="userSpaceOnUse" spreadMethod="pad"/><path d="M55.495 0H41.898L12.914 58.163c-.868 1.81-1.736 3.25-2.594 4.403-.258.037-.618.074-1.154.11L0 63.103v20.843h106.015V63.323s-7.033-.507-8.363-.619a13 13 0 0 1-.221-.322L61.015 0ZM177.12 23.945c.72.258 1.588.941 1.588 3.286 0 2.234-.683 3.498-.942 3.747-.037 0-.176.111-.646.213zM129.923.295h-9.59V21.6h11.75v41.077h-11.252v21.268h114.157V62.852l-9.37-.175c-1.513-.037-1.624-.222-1.947-.656 0 0-5.843-7.606-11.179-14.53 8.908-5.843 11.142-13.809 11.142-20.261 0-8.695-4.69-16.228-13.2-21.203-7.283-4.108-15.61-5.732-29.779-5.732zm203.649 0h-85.421v21.379H259.8c.323 0 .508.037.757.037V62.64h-11.65v21.305h93.36l8.65-38.613h-21.85l-2.132 6.702c-.757 2.455-.969 2.963-1.8 3.97v-18.39h18.028V.295ZM442.218 21.6h2.41v7.357c-3.711-3.35-4.108-3.71-8.179-7.357zM470.88.295h-38.252v17.843L412.828.295h-48.573v20.982l9.813.323s1.624.073 1.947.073v40.782c-.507.11-1.153.185-2.095.222l-9.157.397v20.87h48.61V62.927l-9.305-.286c-1.228 0-2.096-.074-2.816-.148V43.92l45.323 40.966h23.299V21.673c.396-.036.794-.073 1.33-.073l9.267-.36V.295ZM549.49 0h-13.598l-28.984 58.163c-.868 1.81-1.736 3.25-2.603 4.403-.25.037-.573.074-1.154.11l-9.12.426v20.843H600V63.323s-7.025-.507-8.363-.619c-.037-.1-.213-.322-.213-.322L555 0z" style="fill:#fff"/><path d="m537.12 31.015-9.738 19.293h20.732zm10.098 43.339v-2.086c8.687-.111 10.957-.757 10.957-3.286 0-1.044-.498-2.197-1.513-4.071l-6.379-10.819h-24.812l-4.865 9.702c-.868 1.8-1.264 2.806-1.264 3.858 0 3.203 2.815 4.505 9.59 4.616h1.265v2.086h-26.575v-2.086c3.969-.185 5.88-.942 7.79-3.102 1.293-1.624 2.705-3.784 4.108-6.71l26.326-52.828h7.643l33.637 57.554c2.566 4.43 3.323 4.901 7.283 5.086v2.086zM391.883 22.542h-.258v41.713c0 5.954 2.667 7.717 12.157 8.013v2.086h-29.428v-2.086c4.255-.185 7.034-1.053 9.083-2.64 1.55-1.219 2.058-2.557 2.058-4.717.111-.36.111-1.053.111-1.985V17.17l-2.53-2.27c-1.55-1.413-3.091-2.271-4.614-2.53-1.154-.286-1.653-.286-4.616-.396v-2.05h35.27l44.89 40.385h.249V19.69c0-3.388-.397-4.505-1.8-5.622-1.763-1.338-4.578-2.095-8.437-2.095h-1.8v-2.05h28.662v2.05c-7.819.295-10.634 2.095-10.634 6.784v56.539h-9.951zM258.535 74.354v-2.086h2.963c3.564 0 5.834-.656 7.247-2.059 1.153-1.043 1.44-2.381 1.44-5.658V19.8c0-3.388-.286-4.615-1.44-5.658-1.662-1.588-3.683-2.059-8.945-2.059h-2.022v-2.16h75.794v18.065h-2.954c-1.403-9.305-8.04-14.206-19.44-14.206h-15.064v26.067h2.668c8.575 0 12.793-4.329 13.809-14.03h2.954V57.48h-2.954c-.508-5.446-1.773-8.585-4.726-11.105-2.16-2.095-4.579-2.741-9.083-2.741h-2.668V64.91c0 5.187.895 6.055 6.775 6.055h6.776c7.283 0 10.347-.572 14.824-2.557 3.065-1.412 5.622-3.286 7.422-5.483 2.28-2.704 2.926-3.932 4.19-8.003h2.807l-4.32 19.43zm-86.677-33.065c6.49 0 10.2-1.043 12.757-3.6 2.308-2.344 3.72-6.101 3.72-10.458 0-6.85-3.969-11.862-10.246-12.877-1.652-.287-3.314-.397-5.474-.397h-5.123v27.332zm-1.55 3.683h-2.816v19.579c0 3.277.398 4.615 1.551 5.658 1.403 1.403 3.572 2.059 7.283 2.059h2.917v2.086h-48.821v-2.086h2.566c3.461 0 5.87-.656 7.283-2.059 1.043-1.043 1.403-2.381 1.403-5.658V19.689c0-3.277-.36-4.504-1.403-5.621-1.413-1.44-3.72-2.096-7.283-2.096h-3.065V9.923h50.732c12.296 0 19.33 1.228 24.951 4.43 5.483 3.213 8.4 7.607 8.4 12.878 0 8.114-5.335 13.375-16.588 16.403l18.536 24.12c2.27 3.101 5.224 4.403 9.443 4.514v2.086H193.2ZM43.089 31.015l-9.692 19.293h20.695zm10.099 43.339v-2.086c8.695-.111 11.003-.757 11.003-3.286 0-1.044-.508-2.197-1.523-4.071l-6.416-10.819H31.486l-4.874 9.702c-.895 1.8-1.255 2.806-1.255 3.858 0 3.203 2.806 4.505 9.59 4.616h1.256v2.086H9.628v-2.086c3.969-.185 5.88-.942 7.79-3.102 1.302-1.624 2.668-3.784 4.08-6.71L47.815 9.627h7.68l33.61 57.554c2.557 4.43 3.35 4.901 7.283 5.086v2.086z" style="fill:#536e78"/><path d="m544.117 13.31-5.99 12.047 2.168 3.822 11.031 19.283 2.059 3.646.065.11 6.424 10.92c1.117 1.985 1.984 3.785 1.984 5.844 0 .618-.036 1.154-.147 1.661h19.181c-.323-.507-.609-1.015-.969-1.587L547.357 13.31Zm-493.994 0-5.981 12.01 2.16 3.859 10.993 19.283 2.096 3.646.074.11 6.415 10.92c1.154 2.096 1.985 3.785 1.985 5.844 0 .618-.037 1.154-.148 1.661h19.19a27 27 0 0 1-.94-1.587L53.408 13.31Zm337.034.287.895.794.148.11v-.285l6.166 5.547 57.37 51.85h4.827V57.627l-5.04-4.579-43.818-39.452zm-61.588 0c1.662 1.015 3.102 2.234 4.293 3.646v-3.646zm-52.643 0c.868 1.735.932 3.785.932 6.203v44.75c0 2.346-.101 4.395-.895 6.093h20.474c-.646-1.375-1.006-3.249-1.006-5.732V13.597Zm-128.548 0c.794 1.662.979 3.572.979 6.092v44.862c0 2.483-.185 4.43-.942 6.092h20.373c-.794-1.661-.97-3.609-.97-6.092V13.597Zm47.631 13.634c0 5.188-1.689 9.95-4.754 13.09-2.852 2.842-6.526 4.218-12.295 4.54L195 70.644h18.535c-.175-.221-.36-.397-.535-.646l-18.535-24.13-3.351-4.356 5.335-1.45c12.296-3.313 13.883-8.575 13.883-12.83 0-3.895-2.243-7.145-6.563-9.665-4.218-2.418-9.452-3.572-17.963-3.895 3.896 2.99 6.203 7.79 6.203 13.56M307.68 41.686c.905.471 1.81 1.08 2.603 1.874.572.508 1.117 1.016 1.588 1.55v-6.774c-1.154 1.403-2.566 2.483-4.191 3.35m20.483 28.957h3.425l.655-2.815a24.5 24.5 0 0 1-4.08 2.815" style="fill:url(#b)"/></svg>