<svg xmlns="http://www.w3.org/2000/svg" width="599.999" height="832.628"><radialGradient id="a" cx="0" cy="0" r="1" fx="0" fy="0" gradientTransform="translate(299.983 330.47)scale(276.48155)" gradientUnits="userSpaceOnUse" spreadMethod="pad"><stop offset="0" style="stop-color:#d9eaf3"/><stop offset=".663" style="stop-color:#99aebc"/><stop offset="1" style="stop-color:#536e78"/></radialGradient><path d="M599.999 327.285c0-76.83-38.3-157.346-78.954-197.999-55.287-55.37-115.298-72.688-117.817-73.417l-22.606-6.432C363.782 22.377 334.682 0 299.879 0c-34.72 0-63.738 22.377-80.578 49.437l-22.605 6.432c-2.52.728-62.448 18.048-117.817 73.417-40.737 40.737-79.516 121.231-78.871 198 0 76.435 45.94 129.203 45.94 129.203l25.125-39.592 24.562 6.245c54.059 13.842 123.833 161.176 156.18 261.424l7.41 23.022 39.842 125.04 41.632-125.04 7.473-23.022c32.285-100.248 102.142-247.582 156.117-261.424l24.563-6.245 25.54 40.154s45.607-52.852 45.607-129.766" style="fill:#fff"/><path d="M299.879 181.242h-1.791c-13.822-.896-23.418-12.198-23.418-34.72 0-23.48 24.313-55.682 24.313-55.682s24.396 32.202 24.396 55.682c0 22.522-9.68 33.825-23.5 34.72m74.165-39.112c-1.79-17.381-2.602-34.783-10.49-59.096-7.807-24.396-32.536-53.101-63.676-53.101-31.307 0-55.703 28.705-63.51 53.1-7.805 24.314-8.7 41.716-10.407 59.097-1.79 17.402-12.114 94.815 74 94.815s75.79-77.413 74.083-94.815m21.128-57.556c5.204 19.359 6.828 34.97 8.14 48.792l.645 7.057c1.624 15.383 6.516 62.135-23.417 95.377-14.883 16.507-35.45 26.187-60.907 29.517v52.123c186.363 0 233.053 81.16 233.053 81.16 43.9-79.037-2.207-197.666-52.706-248.165-50.561-50.499-104.807-65.86-104.807-65.86m101.81 309.633c-94.484 24.146-177.267 281.179-177.267 281.179V347.04c130.015 0 177.267 47.168 177.267 47.168M100.027 150.435C49.445 200.935 3.339 319.563 47.239 398.6c0 0 46.69-81.16 233.136-81.16v-52.123c-25.458-3.33-46.107-13.01-60.99-29.517-29.933-33.242-24.958-79.994-23.418-95.377l.728-7.057c1.229-13.821 2.935-29.433 8.139-48.792 0 0-54.33 15.362-104.808 65.861m180.18 196.605v328.347s-82.783-257.033-177.182-281.18c0 0 47.252-47.167 177.183-47.167" style="fill:#536e78"/><path d="M245.237 85.865c-6.494 20.503-7.972 36.032-9.346 50.915l-.729 7.89c-1.311 12.176-4.641 44.711 13.489 64.882 10.907 12.031 28.143 18.047 51.394 18.047 23.168 0 40.403-6.016 51.31-18.047 18.214-20.337 14.8-52.768 13.323-66.444l-.562-6.328c-1.374-14.883-2.852-30.412-9.43-50.915-6.265-19.338-27.393-46.586-54.808-46.586-25.686 0-47.314 24.063-54.64 46.586m52.205 104.745c-15.528-1.062-32.202-13.177-32.202-44.088 0-25.936 23.668-57.805 26.353-61.386l7.39-9.825 7.493 9.825c2.664 3.58 26.249 35.45 26.249 61.386 0 26.27-12.032 42.776-32.285 44.088h-2.353zm115.132-58.222.728 7.39c1.707 16.423 6.765 66.194-25.77 102.288-14.55 16.195-34.22 26.686-58.533 31.224v34.887c139.278 2.04 200.101 49.187 221.729 72.771 29.912-73.75-11.137-177.662-57.41-223.935a272.7 272.7 0 0 0-85.136-57.639c2.435 12.51 3.58 23.418 4.392 33.014m-305.97 24.625c-46.274 46.273-87.322 150.185-57.41 223.935 21.71-23.584 82.45-70.731 221.812-72.771V273.29c-24.396-4.538-44.067-15.03-58.617-31.224-32.535-36.094-27.393-85.865-25.77-102.6l.729-6.995c.895-10.012 2.019-20.732 4.392-33.013a270.6 270.6 0 0 0-85.136 57.555M329.062 621.64c27.664-71.48 83.596-196.208 148.645-229.95-20.316-12.532-66.506-33.743-148.645-35.22ZM122.3 391.69c65.049 33.742 120.897 158.47 148.561 229.95V356.47c-82.055 1.477-128.328 22.688-148.561 35.22" style="fill:url(#a);stroke-width:20.8157"/></svg>