<?xml version="1.0" encoding="UTF-8" standalone="no"?>
<svg
   version="1.1"
   id="Layer_1"
   x="0px"
   y="0px"
   width="298.72601"
   height="253.7"
   xmlns="http://www.w3.org/2000/svg"
   xmlns:svg="http://www.w3.org/2000/svg">
  <defs
     id="defs2" />
  <g
     id="g2"
     transform="translate(-0.637,-23.15)">
    <path
       fill="#ffffff"
       d="m 229.239,192.374 33.462,-15.655 36.662,-17.152 h -40.476 -32.44 c 1.448,-7.303 2.19,-14.803 2.19,-22.417 0,-30.451 -11.858,-59.078 -33.39,-80.61 -21.532,-21.532 -50.16,-33.39 -80.61,-33.39 -30.45,0 -59.078,11.858 -80.61,33.39 -21.532,21.532 -33.39,50.16 -33.39,80.61 0,30.45 11.858,59.078 33.39,80.61 21.532,21.532 50.16,33.39 80.61,33.39 24.707,0 48.213,-7.807 67.703,-22.254 l 1.383,9.914 5.306,38.04 12.146,-36.437 7.348,-22.045 25.6,12.754 29.055,14.475 -17.453,-27.37 z"
       id="path1" />
    <path
       d="m 188.512,125.692 -15.06,-71.273 c 15.087,10.745 27.106,25.515 34.498,42.742 z m -86.875,96.875 47.375,-41.25 -93,-16.375 97.75,-5.25 -66.25,-75 79.875,44.25 -2.692,-80.104 C 149.922,40.446 132.841,35.65 114.637,35.65 c -56.057,0 -101.5,45.443 -101.5,101.5 0,56.057 45.443,101.5 101.5,101.5 20.022,0 38.688,-5.8 54.414,-15.807 l 1.086,-26.151 z M 215.559,148 c 0.379,-3.565 0.578,-7.184 0.578,-10.85 0,-8.844 -1.134,-17.424 -3.26,-25.603 l -17.366,44.02 z m 43.328,20.567 h -75.875 l 9.625,69 10.625,-31.875 34.875,17.375 -22,-34.5 z"
       id="path2" />
  </g>
</svg>
