<?xml version="1.0" encoding="UTF-8" standalone="no"?>
<svg
   version="1.1"
   id="Layer_1"
   x="0px"
   y="0px"
   width="245.75"
   height="203"
   xmlns="http://www.w3.org/2000/svg"
   xmlns:svg="http://www.w3.org/2000/svg">
  <defs
     id="defs1" />
  <path
     d="m 175.375,90.042 -15.06,-71.273 c 15.087,10.745 27.106,25.515 34.498,42.742 z m -86.875,96.875 47.375,-41.25 -93,-16.375 97.75,-5.25 -66.25,-75 79.875,44.25 -2.692,-80.104 C 136.785,4.796 119.704,0 101.5,0 45.443,0 0,45.443 0,101.5 0,157.557 45.443,203 101.5,203 c 20.022,0 38.688,-5.8 54.414,-15.807 L 157,161.042 Z M 202.422,112.35 c 0.379,-3.565 0.578,-7.184 0.578,-10.85 0,-8.844 -1.134,-17.424 -3.26,-25.603 l -17.366,44.02 z m 43.328,20.567 h -75.875 l 9.625,69 10.625,-31.875 34.875,17.375 -22,-34.5 z"
     id="path1" />
</svg>
