<?xml version="1.0" encoding="UTF-8" standalone="no"?>
<svg
   version="1.1"
   width="510.96729"
   height="650.26917"
   id="svg1"
   xmlns="http://www.w3.org/2000/svg"
   xmlns:svg="http://www.w3.org/2000/svg">
  <defs
     id="defs1" />
  <path
     d="M 503.10931,223.5255 C 486.50415,138.37638 449.8639,78.19854 449.8639,78.19854 l -112.49774,320.271 c 0,0 8.22092,2.41365 19.34548,7.80352 z m 6.07949,128.44958 c 1.14258,-15.38927 1.77848,-31.68593 1.77848,-48.85367 0,-17.29478 -1.19775,-34.15401 -3.194,-50.32364 L 375.7123,418.03279 c 9.78162,7.09576 22.26726,17.36737 29.70782,28.78229 z M 254.28589,532.94417 c -41.54014,0 -54.44317,37.58393 -54.44317,37.58393 -58.63529,-31.83111 -106.908233,-86.49205 -106.908233,-86.49205 0.48926,-7.1502 1.9781,-13.75597 4.04694,-19.78101 L 5.389874,387.49017 c 9.63644,74.56899 28.854878,118.52278 28.854878,118.52278 0,0 80.666628,58.68973 163.819498,75.78489 0,0 -4.97248,68.47135 53.7354,68.47135 h 7.36798 c 58.63529,0 53.7354,-68.39876 53.7354,-68.39876 83.15287,-17.16775 163.81949,-75.78489 163.81949,-75.78489 0,0 19.21844,-43.95379 28.85488,-118.59537 l -91.59155,76.76487 c 2.06884,6.09763 3.55695,12.7034 4.04694,19.78101 0,0 -48.27294,54.73354 -106.98082,86.49205 0,0 -12.83044,-37.58393 -54.37058,-37.58393 z M 154.25564,406.27306 c 11.12456,-5.46246 19.34548,-7.80352 19.34548,-7.80352 L 61.103377,78.19854 c 0,0 -36.640247,60.17784 -53.245413,145.32696 z m -48.70848,40.54202 c 7.44056,-11.46937 19.9262,-21.68653 29.70782,-28.78229 L 3.26659,252.79777 C 1.19775,268.9674 0,285.82663 0,303.12141 c 0,17.16774 0.635896,33.4644 1.778477,48.85367 z M 68.471357,0 H 442.49592 L 303.12141,420.44643 h -95.27554 z"
     id="path1" />
</svg>
