<svg xmlns="http://www.w3.org/2000/svg" width="600.001" height="510.362"><path d="M419.338 0H179.565l-1.148.153c-16.191 1.748-38.57 13.41-46.046 37.931-20.389 5.627-96.991 27.01-96.991 27.01l-.944.345C21.23 70.53 0 87.576 0 118.771c0 5.575.65 11.61 2.194 18.142L93.7 478.36l2.488 3.381c10.322 13.805 35.533 34.934 64.29 26.768 0 0 128.927-35.482 139.593-38.429 10.615 2.947 139.758 38.48 139.758 38.48 28.554 8.115 53.714-13.014 64.086-26.819l2.488-3.342 91.352-340.834c1.557-6.737 2.246-12.912 2.246-18.59 0-31.45-21.18-48.444-34.334-53.535l-.944-.345s-76.603-21.383-96.991-27.01c-7.476-24.522-29.906-36.183-46.046-37.93L420.537 0Z" style="fill:#fff"/><path d="M180.713 21.728s-29.357 3.19-29.357 33.593L42.218 85.725s-27.265 10.513-18.895 46.2l90.254 336.763s18.896 25.21 40.917 18.883l145.576-40.024 145.538 40.024c22.02 6.328 40.916-18.883 40.916-18.883l90.204-336.764c8.42-35.686-18.845-46.199-18.845-46.199L448.746 55.321c0-30.403-29.408-33.593-29.408-33.593z"/><path d="M181.657 34.346c-1.34.243-5.575 1.187-9.518 3.84-5.626 3.726-8.216 9.161-8.216 17.135v9.57S48.138 97.194 46.454 97.64c-3.05 1.391-12.12 6.878-12.12 21.371 0 2.948.408 6.24 1.25 9.978.153.549 88.009 328.483 89.463 333.765 3.828 4.39 15.247 15.795 26.015 12.759l149.008-41.02 148.97 41.02c10.768 3.036 22.136-8.37 26.014-12.759 1.455-5.282 89.31-333.217 89.464-333.765.842-3.739 1.25-7.03 1.25-9.978 0-14.493-9.122-19.98-12.12-21.37-1.685-.447-117.52-32.752-117.52-32.752V55.32c0-7.974-2.59-13.409-8.166-17.134-3.942-2.654-8.178-3.598-9.569-3.84z" style="fill:#fff"/><path d="M438.73 81.54v323.852s-2.845 20.976-19.597 20.976H328.19l121.704 33.593s7.018 3.496 10.463-4.185l89.552-332.273s3.496-10.462-4.925-13.256zM55.067 110.95c-8.42 2.781-4.886 13.256-4.886 13.256l89.514 332.273c3.534 7.668 10.513 4.185 10.513 4.185l121.705-33.543h-90.905c-16.842 0-19.585-21.039-19.585-21.039V82.242ZM183.1 50.09h234.3c4.886 0 5.575 6.278 5.575 6.278V404.69c0 5.588-5.576 6.979-5.576 6.979H183.1c-4.925 0-4.925-6.98-4.925-6.98V56.369c0-4.185 4.925-6.278 4.925-6.278"/><path d="M372.101 128.928q-4.407 3.15-14.475 4.566t-10.538 3.461-.471 6.453q0 14.154 7.235 52.384 7.235 38.232 9.444 43.263 2.832 20.769 9.122 52.86t11.167 35.398 15.263 3.308q10.384 0 9.127 11.004-6.3 1.268-9.756 1.268-3.15 0-12.588-1.417-9.44-1.416-29.892-1.416-18.878 0-24.697 1.57t-6.452.946q-3.14-3.15-3.14-5.349 0-3.15 12.113-5.823 12.112-2.675 14.629-7.082a18759 18759 0 0 0-8.34-56.475q-4.248-28.475-7.081-29.733t-45.937 4.878-46.57 10.533q-4.398 15.421-8.806 33.67t-4.407 33.353q0 4.408.629 9.286.63 4.877 6.928 4.877l14.47-1.267q3.15.951 3.15 4.095v5.037l-60.1 4.09q-.94-7.24-.941-9.131 0-1.566 1.728-1.254 1.73.313 4.561.946 3.15 0 6.136-2.203 2.986-2.204 11.326-33.512t12.747-47.353q0-.633-.475 1.887-.476 2.52-.476 2.828l30.842-114.842a644 644 0 0 1-18.253-6.606q-44.68-2.2-44.68-12.896a5045 5045 0 0 0 52.544 2.981q27.375 1.417 39.647 1.417 18.561 0 42.792-2.833 24.23-2.832 28.946-2.832 11.646 0 13.53 5.665M248.137 223.95q.942.95 10.063.95 15.421 0 35.716-1.416 20.293-1.416 36.973-3.308 0-15.728-8.498-47.036-8.499-31.308-10.073-32.724-1.575-1.416-4.72-1.417h-5.66q-7.24 0-15.733.159t-16.05.466a11506 11506 0 0 0-14.94 56.009q-7.395 28-7.078 28.317" style="fill:#fff"/></svg>