<svg xmlns="http://www.w3.org/2000/svg" xmlns:xlink="http://www.w3.org/1999/xlink" width="600.001" height="510.378"><radialGradient id="a" cx="0" cy="0" r="1" fx="0" fy="0" gradientTransform="matrix(17.57053 0 0 -17.57053 481.191 483.675)" gradientUnits="userSpaceOnUse" spreadMethod="pad"><stop offset="0" style="stop-color:#ebd491"/><stop offset=".7" style="stop-color:#d2bb7b"/><stop offset="1" style="stop-color:#8b723c"/></radialGradient><radialGradient xlink:href="#a" id="b" cx="0" cy="0" r="1" fx="0" fy="0" gradientTransform="translate(300.075 255.787)scale(224.17579)" gradientUnits="userSpaceOnUse" spreadMethod="pad"/><path d="M419.389 0H179.565l-1.148.153c-16.14 1.748-38.57 13.41-46.046 37.932a242864 242864 0 0 1-96.991 27.01l-.944.396C21.23 70.53 0 87.627 0 118.77c0 5.626.65 11.661 2.194 18.142L93.7 478.398l2.488 3.343c10.36 13.805 35.533 34.984 64.291 26.716 0 0 128.926-35.43 139.592-38.378 10.615 2.948 139.758 38.48 139.758 38.48 28.554 8.166 53.714-13.013 64.087-26.818l2.488-3.343 91.351-340.834c1.557-6.685 2.246-12.86 2.246-18.59 0-31.45-21.18-48.444-34.333-53.483l-.945-.396s-76.602-21.333-96.94-27.01C460.255 13.562 437.876 1.9 421.685.153L420.537 0Z"/><path d="M180.764 21.779s-29.408 3.139-29.408 33.542l-109.1 30.455s-27.303 10.462-18.933 46.148l90.254 336.815s18.896 25.11 40.917 18.832l145.576-40.024 145.538 40.024c22.021 6.277 40.917-18.832 40.917-18.832l90.203-336.815c8.42-35.686-18.844-46.148-18.844-46.148L448.746 55.321c0-30.403-29.357-33.542-29.357-33.542z" style="fill:#8b723c"/><path d="M181.657 34.346c-1.34.242-5.524 1.187-9.518 3.84-5.575 3.726-8.216 9.161-8.216 17.135v9.57S48.138 97.194 46.44 97.64c-2.985 1.443-12.108 6.878-12.108 21.371 0 2.948.409 6.24 1.302 9.978.153.6 87.958 328.483 89.412 333.765 3.828 4.39 15.247 15.796 26.015 12.76l149.008-41.02 149.02 41.019c10.718 3.037 22.124-8.37 25.965-12.759 1.454-5.282 89.31-333.166 89.463-333.765.842-3.739 1.25-7.03 1.25-9.978 0-14.493-9.07-19.928-12.12-21.37-1.684-.447-117.469-32.752-117.469-32.752V55.32c0-7.974-2.64-13.409-8.165-17.134-3.994-2.654-8.23-3.598-9.57-3.84z"/><path d="M438.68 81.54v323.853s-2.794 21.026-19.546 21.026H328.19l121.705 33.542s6.966 3.496 10.462-4.185l89.553-332.272s3.495-10.463-4.874-13.257zM55.066 110.95c-8.37 2.781-4.886 13.307-4.886 13.307l89.514 332.171c3.534 7.72 10.513 4.236 10.513 4.236l121.705-33.542h-90.905c-16.842 0-19.585-21.04-19.585-21.04V82.294ZM183.1 50.09h234.3c4.886 0 5.626 6.278 5.626 6.278v348.374c0 5.537-5.626 6.928-5.626 6.928H183.1c-4.925 0-4.925-6.928-4.925-6.928V56.368c0-4.185 4.925-6.278 4.925-6.278" style="fill:#8b723c"/><path d="M184.4 55.22c-.599.408-1.097.956-1.097 1.199v348.22c0 .856.255 1.953-.153 1.953h233.445c.599-.306 1.301-.855 1.301-1.901l.051-347.673c-.102-.702-.497-1.646-.548-1.799zm259.358 350.862c-1.148 8.828-7.821 25.427-24.624 25.427h-53.268l86.21 23.872c.154.102.805.294 1.455.294.447 0 1.289 0 1.94-1.238l89.616-332.528c.14-.548 1.684-5.677-1.404-6.724l-99.823-26.92ZM56.712 115.784c-3.38 1.136-1.837 6.278-1.595 7.12l89.209 331.43c.956 2.042 1.85 2.042 2.296 2.042.651 0 1.25-.204 2.246-.651l85.266-23.527h-53.127c-16.842 0-23.463-16.586-24.714-26.066V88.965Z" style="fill:url(#b)"/><path d="M369.738 130.613q-4.271 3.052-14.026 4.424-9.756 1.372-10.212 3.354t-.456 6.253q0 13.714 7.011 50.76t9.15 41.92q2.745 20.126 8.84 51.221t10.821 34.301 14.79 3.205 8.843 10.663q-6.104 1.228-9.453 1.228-3.052 0-12.198-1.372t-28.965-1.372q-18.293 0-23.93 1.52-5.64 1.522-6.253.917-3.043-3.051-3.043-5.182 0-3.053 11.738-5.643 11.737-2.592 14.175-6.862a18182 18182 0 0 0-8.08-54.724q-4.119-27.593-6.863-28.811-2.745-1.219-44.512 4.726t-45.126 10.207q-4.262 14.943-8.532 32.626-4.272 17.684-4.271 32.319 0 4.27.61 8.997.609 4.727 6.712 4.727l14.022-1.228q3.052.921 3.052 3.968v4.88l-58.236 3.964q-.912-7.016-.912-8.849 0-1.515 1.675-1.214 1.674.303 4.42.917 3.051 0 5.945-2.136 2.894-2.135 10.974-32.472 8.082-30.337 12.352-45.885 0-.614-.46 1.829-.462 2.442-.461 2.74l29.886-111.28a624 624 0 0 1-17.688-6.402q-43.293-2.13-43.293-12.496a4889 4889 0 0 0 50.913 2.89q26.527 1.371 38.418 1.372 17.985 0 41.465-2.745t28.048-2.745q11.286 0 13.11 5.49zm-120.12 92.076q.913.921 9.751.92 14.943.001 34.608-1.371 19.665-1.373 35.827-3.206 0-15.24-8.235-45.577-8.235-30.338-9.76-31.71-1.527-1.371-4.573-1.372h-5.485q-7.016 0-15.245.153-8.23.154-15.553.452a11150 11150 0 0 0-14.477 54.272q-7.165 27.132-6.858 27.439z" style="fill:#fff;stroke:#8b723c;stroke-width:12.7586;stroke-opacity:.392157"/><path d="M369.738 130.613q-4.271 3.052-14.026 4.424-9.756 1.372-10.212 3.354t-.456 6.253q0 13.714 7.011 50.76t9.15 41.92q2.745 20.126 8.84 51.221t10.821 34.301 14.79 3.205 8.843 10.663q-6.104 1.228-9.453 1.228-3.052 0-12.198-1.372t-28.965-1.372q-18.293 0-23.93 1.52-5.64 1.522-6.253.917-3.043-3.051-3.043-5.182 0-3.053 11.738-5.643 11.737-2.592 14.175-6.862a18182 18182 0 0 0-8.08-54.724q-4.119-27.593-6.863-28.811-2.745-1.219-44.512 4.726t-45.126 10.207q-4.262 14.943-8.532 32.626-4.272 17.684-4.271 32.319 0 4.27.61 8.997.609 4.727 6.712 4.727l14.022-1.228q3.052.921 3.052 3.968v4.88l-58.236 3.964q-.912-7.016-.912-8.849 0-1.515 1.675-1.214 1.674.303 4.42.917 3.051 0 5.945-2.136 2.894-2.135 10.974-32.472 8.082-30.337 12.352-45.885 0-.614-.46 1.829-.462 2.442-.461 2.74l29.886-111.28a624 624 0 0 1-17.688-6.402q-43.293-2.13-43.293-12.496a4889 4889 0 0 0 50.913 2.89q26.527 1.371 38.418 1.372 17.985 0 41.465-2.745t28.048-2.745q11.286 0 13.11 5.49zm-120.12 92.076q.913.921 9.751.92 14.943.001 34.608-1.371 19.665-1.373 35.827-3.206 0-15.24-8.235-45.577-8.235-30.338-9.76-31.71-1.527-1.371-4.573-1.372h-5.485q-7.016 0-15.245.153-8.23.154-15.553.452a11150 11150 0 0 0-14.477 54.272q-7.165 27.132-6.858 27.439z" style="stroke:#8b723c;stroke-width:12.7586;stroke-opacity:0"/></svg>