<svg xmlns="http://www.w3.org/2000/svg" xmlns:xlink="http://www.w3.org/1999/xlink" width="600" height="510.335"><radialGradient id="a" cx="0" cy="0" r="1" fx="0" fy="0" gradientTransform="matrix(17.57053 0 0 -17.57053 397.944 483.675)" gradientUnits="userSpaceOnUse" spreadMethod="pad"><stop offset="0" style="stop-color:#bf99c3"/><stop offset=".7" style="stop-color:#7b5190"/><stop offset="1" style="stop-color:#612c75"/></radialGradient><radialGradient xlink:href="#a" id="b" cx="0" cy="0" r="1" fx="0" fy="0" gradientTransform="translate(300.087 255.766)scale(224.15673)" gradientUnits="userSpaceOnUse" spreadMethod="pad"/><path d="M419.353 0H179.6l-1.148.154c-16.19 1.747-38.617 13.408-46.093 37.928-20.335 5.677-96.932 27.007-96.932 27.007l-.995.395C21.279 70.524 0 87.619 0 118.76c0 5.626.702 11.66 2.245 18.141l91.446 341.457 2.539 3.342c10.308 13.804 35.53 34.981 64.285 26.715 0 0 128.915-35.428 139.53-38.375 10.665 2.947 139.784 38.477 139.784 38.477 28.564 8.164 53.722-13.013 64.094-26.817l2.487-3.342 91.293-340.805c1.595-6.685 2.297-12.86 2.297-18.588 0-31.447-21.178-48.44-34.331-53.48l-.944-.395-96.983-27.007C460.266 13.563 437.838 1.903 421.7.155l-1.148-.154z" style="fill:#fff"/><path d="M180.748 21.778s-29.355 3.138-29.355 33.54L42.253 85.769s-27.25 10.462-18.882 46.144L113.618 468.7s18.894 25.107 40.914 18.83l145.512-40.02 145.577 40.02c22.02 6.277 40.913-18.83 40.913-18.83l90.196-336.787c8.42-35.682-18.894-46.144-18.894-46.144L448.759 55.318c0-30.401-29.355-33.54-29.355-33.54z" style="fill:#612c75"/><path d="M181.693 34.344c-1.34.243-5.576 1.186-9.518 3.84-5.626 3.725-8.228 9.16-8.228 17.133v9.568S48.185 97.187 46.488 97.634c-3.036 1.441-12.107 6.876-12.107 21.369 0 2.947.396 6.238 1.25 9.976.153.6 88.002 328.456 89.405 333.738 3.879 4.388 15.297 15.793 26.013 12.757l149.046-41.015 148.957 41.015c10.768 3.036 22.173-8.369 26.013-12.757 1.442-5.282 89.303-333.138 89.405-333.738.893-3.738 1.301-7.03 1.301-9.976 0-14.493-9.122-19.928-12.12-21.37-1.684-.446-117.458-32.748-117.458-32.748v-9.568c0-7.973-2.641-13.408-8.216-17.133-3.942-2.654-8.178-3.598-9.568-3.84z" style="fill:#fff"/><path d="M438.693 81.534v323.824s-2.794 21.024-19.544 21.024H328.2l121.707 33.54s6.966 3.495 10.461-4.185l89.545-332.245s3.496-10.46-4.873-13.255zM55.113 110.94c-8.37 2.781-4.887 13.306-4.887 13.306l89.507 332.143c3.483 7.718 10.512 4.235 10.512 4.235l121.643-33.54h-90.897c-16.79 0-19.583-21.037-19.583-21.037V82.288Zm127.97-60.853h234.33c4.874 0 5.576 6.276 5.576 6.276v348.345c0 5.537-5.575 6.927-5.575 6.927h-234.33c-4.874 0-4.874-6.927-4.874-6.927V56.363c0-4.184 4.873-6.276 4.873-6.276" style="fill:#612c75"/><path d="M184.384 55.215c-.6.409-1.046.957-1.046 1.2v348.191c0 .855.243 1.952-.204 1.952h233.425c.6-.306 1.352-.854 1.352-1.9l.051-347.644c-.102-.702-.497-1.646-.548-1.799zm259.387 350.833c-1.2 8.828-7.82 25.425-24.673 25.425h-53.263l86.254 23.87c.153.102.804.293 1.454.293.446 0 1.288 0 1.888-1.238l89.61-332.5c.19-.549 1.734-5.677-1.353-6.723l-99.867-26.917ZM56.707 115.775c-3.343 1.136-1.786 6.277-1.544 7.119l89.2 331.403c.907 2.04 1.8 2.04 2.246 2.04.65 0 1.25-.203 2.246-.65l85.258-23.525h-53.122c-16.79 0-23.461-16.585-24.66-26.064V88.958Z" style="fill:url(#b)"/><path d="M369.751 130.597q-4.276 3.062-14.033 4.43-9.747 1.377-10.206 3.347-.46 1.99-.46 6.256 0 13.707 7.012 50.755t9.155 41.916q2.745 20.126 8.838 51.214 6.093 31.098 10.819 34.292 4.735 3.215 14.788 3.215t8.839 10.665q-6.093 1.225-9.451 1.225-3.062 0-12.196-1.378t-28.965-1.367q-18.29 0-23.923 1.53-5.644 1.5-6.256.909-3.042-3.062-3.042-5.185 0-3.051 11.737-5.644t14.176-6.858q-3.98-27.138-8.083-54.715-4.113-27.597-6.858-28.811-2.756-1.225-44.509 4.725-41.763 5.94-45.12 10.206a827 827 0 0 0-8.533 32.619q-4.286 17.676-4.276 32.322 0 4.266.612 8.992.613 4.725 6.716 4.725l14.023-1.225q3.052.919 3.052 3.97v4.879l-58.236 3.96a92 92 0 0 1-.919-8.849q0-1.51 1.684-1.214 1.674.306 4.42.918 3.041 0 5.94-2.143 2.908-2.123 10.971-32.455 8.093-30.333 12.35-45.887 0-.612-.46 1.838-.46 2.429-.46 2.735l29.884-111.277q-8.849-3.061-17.687-6.399-43.274-2.143-43.284-12.492 24.382 1.51 50.908 2.888 26.525 1.378 38.415 1.368 17.994 0 41.457-2.745 23.484-2.746 28.046-2.746 11.288 0 13.115 5.491zm-120.115 92.069q.919.918 9.757.918 14.942 0 34.599-1.367a837 837 0 0 0 35.823-3.205q0-15.248-8.236-45.57-8.226-30.343-9.757-31.71t-4.573-1.378h-5.48a827 827 0 0 0-30.802.612q-7.308 27.138-14.472 54.266-7.165 27.127-6.859 27.434z" style="fill:#fff;stroke:#612c75;stroke-width:12.7575;stroke-opacity:.462745"/><path d="M369.751 130.597q-4.276 3.062-14.033 4.43-9.747 1.377-10.206 3.347-.46 1.99-.46 6.256 0 13.707 7.012 50.755t9.155 41.916q2.745 20.126 8.838 51.214 6.093 31.098 10.819 34.292 4.735 3.215 14.788 3.215t8.839 10.665q-6.093 1.225-9.451 1.225-3.062 0-12.196-1.378t-28.965-1.367q-18.29 0-23.923 1.53-5.644 1.5-6.256.909-3.042-3.062-3.042-5.185 0-3.051 11.737-5.644t14.176-6.858q-3.98-27.138-8.083-54.715-4.113-27.597-6.858-28.811-2.756-1.225-44.509 4.725-41.763 5.94-45.12 10.206a827 827 0 0 0-8.533 32.619q-4.286 17.676-4.276 32.322 0 4.266.612 8.992.613 4.725 6.716 4.725l14.023-1.225q3.052.919 3.052 3.97v4.879l-58.236 3.96a92 92 0 0 1-.919-8.849q0-1.51 1.684-1.214 1.674.306 4.42.918 3.041 0 5.94-2.143 2.908-2.123 10.971-32.455 8.093-30.333 12.35-45.887 0-.612-.46 1.838-.46 2.429-.46 2.735l29.884-111.277q-8.849-3.061-17.687-6.399-43.274-2.143-43.284-12.492 24.382 1.51 50.908 2.888 26.525 1.378 38.415 1.368 17.994 0 41.457-2.745 23.484-2.746 28.046-2.746 11.288 0 13.115 5.491zm-120.115 92.069q.919.918 9.757.918 14.942 0 34.599-1.367a837 837 0 0 0 35.823-3.205q0-15.248-8.236-45.57-8.226-30.343-9.757-31.71t-4.573-1.378h-5.48a827 827 0 0 0-30.802.612q-7.308 27.138-14.472 54.266-7.165 27.127-6.859 27.434z" style="fill:#fff;stroke:#612c75;stroke-width:12.7575;stroke-opacity:0"/></svg>