<svg xmlns="http://www.w3.org/2000/svg" width="556.617" height="466.861"><path d="M158.987 0S129.63 3.19 129.63 33.594L20.493 63.996s-27.266 10.513-18.897 46.2l90.256 336.763s18.895 25.211 40.916 18.883l145.576-40.024 145.538 40.024c22.02 6.328 40.918-18.883 40.918-18.883l90.203-336.764c8.42-35.686-18.846-46.199-18.846-46.199L427.02 33.594C427.02 3.19 397.612 0 397.612 0Zm.945 12.617h236.735c1.39.243 5.628 1.188 9.57 3.842 5.576 3.725 8.164 9.16 8.164 17.135v9.568s115.837 32.305 117.522 32.752c2.998 1.39 12.12 6.875 12.12 21.37 0 2.946-.409 6.24-1.25 9.978-.154.548-88.01 328.483-89.464 333.765-3.879 4.39-15.248 15.795-26.016 12.758l-148.969-41.02-149.007 41.02c-10.769 3.037-22.188-8.369-26.016-12.758-1.454-5.282-89.31-333.216-89.463-333.765-.842-3.739-1.25-7.032-1.25-9.979 0-14.494 9.072-19.978 12.121-21.369 1.684-.446 117.467-32.752 117.467-32.752v-9.568c0-7.974 2.59-13.41 8.217-17.135 3.942-2.654 8.18-3.599 9.52-3.842m1.442 15.744s-4.926 2.093-4.926 6.278v348.324s0 6.978 4.926 6.978h234.3s5.575-1.39 5.575-6.978V34.639s-.69-6.278-5.576-6.278zm255.63 31.452v323.851s-2.845 20.975-19.597 20.975h-90.943l121.705 33.593s7.018 3.496 10.463-4.185l89.552-332.272s3.495-10.461-4.925-13.255zm-277.308.7L33.341 89.222c-8.42 2.781-4.887 13.256-4.887 13.256l89.513 332.273c3.535 7.668 10.514 4.184 10.514 4.184l121.705-33.541H159.28c-16.84 0-19.584-21.04-19.584-21.04zm197.15 41.02q11.647.001 13.53 5.666-4.409 3.15-14.477 4.567-10.067 1.416-10.537 3.46-.47 2.046-.47 6.454 0 14.154 7.234 52.384 7.235 38.23 9.445 43.262 2.832 20.77 9.121 52.86t11.168 35.398q4.877 3.308 15.262 3.309 10.384 0 9.127 11.003-6.3 1.268-9.756 1.268-3.15 0-12.588-1.416-9.44-1.416-29.893-1.416-18.877 0-24.695 1.568-5.82 1.571-6.453.948-3.14-3.15-3.14-5.35 0-3.15 12.113-5.822 12.112-2.675 14.63-7.082a18760 18760 0 0 0-8.34-56.475q-4.25-28.476-7.08-29.734-2.835-1.258-45.939 4.879-43.104 6.135-46.57 10.533-4.398 15.42-8.805 33.67t-4.408 33.353q0 4.409.63 9.285.628 4.876 6.927 4.877l14.47-1.267q3.15.951 3.15 4.096v5.037l-60.099 4.09q-.94-7.24-.94-9.131 0-1.566 1.727-1.254t4.56.945q3.15 0 6.135-2.203 2.987-2.204 11.327-33.512c5.372-20.168 9.46-35.346 12.384-46.013.225-1.135.364-1.696.364-1.34-.1.36-.262.967-.364 1.34-.042.213-.063.28-.113.546q-.476 2.52-.474 2.829l30.841-114.842q-9.13-3.15-18.254-6.606-44.677-2.199-44.677-12.896a5045 5045 0 0 0 52.543 2.982q27.375 1.417 39.646 1.416 18.562 0 42.793-2.832 24.23-2.833 28.945-2.834m-56.634 15.738q-7.24 0-15.733.159-8.494.16-16.05.466a11506 11506 0 0 0-14.94 56.01q-7.395 28-7.078 28.317.941.95 10.064.949 15.42 0 35.715-1.416 20.294-1.416 36.973-3.307 0-15.728-8.498-47.037-8.499-31.308-10.073-32.724-1.575-1.416-4.718-1.417z"/></svg>