<svg xmlns="http://www.w3.org/2000/svg" width="530.692" height="500"><defs><linearGradient id="a" x1="-756.91" x2="-721.214" y1="1239.737" y2="1204.042" gradientTransform="translate(7655.75 -11986.852)scale(9.99968)" gradientUnits="userSpaceOnUse"><stop offset="0" style="stop-color:#8b723c"/><stop offset=".4" style="stop-color:#d2bb7b"/><stop offset=".5" style="stop-color:#ebd491"/><stop offset=".6" style="stop-color:#d2bb7b"/><stop offset="1" style="stop-color:#8b723c"/></linearGradient></defs><path d="m95.575 0-2.5 36.269-.02.53-.04.21c-3.3 41.068-10.2 75.737-20.04 100.347l-26.679-37.67-.57-.78-26.249-36.998-8.44 44.549-.16.88-.02.1c-28.238 146.235.9 250.551 60.86 314.6 50.877 54.348 122.225 78.407 193.492 77.957h.27c71.268.45 142.636-23.6 193.514-77.958 59.958-64.048 89.077-168.364 60.838-314.6v-.1l-.16-.88-8.44-44.548-26.249 36.999-.57.78-26.679 37.669c-9.84-24.61-16.74-59.279-20.04-100.347l-.04-.21-.02-.53L435.134 0l-28.628 22.42-.29.24-.29.21c-38.769 29.208-56.798 61.057-61.068 91.696-4.3 30.69 3.85 58.088 9.73 81.358 5.86 23.269 9.12 41.628 3.98 56.448-3.75 10.82-12.4 22.5-32.75 34.959V90.117l36.99-59.958.08-.11.06-.11.37-.64L380.855.1H149.873l17.52 29.2.39.639.06.11.06.11 37.028 60.008v197.164c-20.369-12.46-29.019-24.15-32.769-34.96-5.14-14.809-1.88-33.178 3.98-56.447 5.88-23.27 14.02-50.659 9.73-81.358-4.28-30.639-22.3-62.488-61.068-91.697l-.29-.21-.29-.24z" style="stroke-width:9.99968"/><path fill="url(#a)" d="m183.932 19.42.39.64 39.88 64.627V318.88c-43.28-18.86-62.929-38.95-70.289-60.168-7.38-21.31-2.42-43.859 3.54-67.488 5.96-23.63 12.91-48.339 9.32-73.958-3.57-25.619-17.75-52.088-53.869-79.207l-.59-.46-.04.74c-4.77 59.118-15.55 107.276-37.188 135.385l-44.51-62.888-.569-.8-.2.95c-27.46 142.246.96 239.083 55.978 297.85 46.74 49.92 112.597 72.338 179.564 71.858 66.968.49 132.846-21.929 179.585-71.857 55.018-58.758 83.437-155.605 55.958-297.85l-.18-.95-.57.8-44.509 62.887c-21.66-28.109-32.419-76.257-37.189-135.385l-.04-.74-.61.46c-36.088 27.119-50.268 53.588-53.848 79.207-3.59 25.62 3.36 50.329 9.32 73.958s10.92 46.168 3.52 67.488c-7.34 21.219-26.99 41.298-70.268 60.168V84.687l39.88-64.628.39-.64H183.961z" style="fill:url(#a);stroke-width:9.99968"/></svg>