<svg xmlns="http://www.w3.org/2000/svg" width="528.168" height="531.898"><path d="M264.084 0C118.111 0-.049 118.919 0 265.945v.008C-.05 412.98 118.11 531.898 264.084 531.898S528.217 412.98 528.168 265.953v-.008C528.217 118.918 410.058 0 264.084 0M379.26 116.355c62.957 1.145 103.722 61.01 103.258 148.147-.284 53.252-30.918 147.32-100.135 147.252-74.055-.072-97.976-82.256-101.028-143.236-2.916-58.276 28.088-153.432 97.905-152.163m-212.016 1.643c20.66-.401 41.338 6.897 59.182 23.547 13.185 12.304 21.729 32.793 23.404 54.723s-3.552 45.355-18.238 63.425c-28.648 35.249-72.856 58.05-110.819 102.729l85.967.914c13.275-4.32 25.05-11.634 31.81-34.744l.266-.908h27.215l-22.468 81.408-183.633-.319-.342-22.576.35-.373c23.735-25.309 54.335-56 80.572-83.818 26.236-27.819 48.15-52.961 54.246-66.35 8.49-18.647 6.753-34.664.592-46.99s-16.857-20.928-26.174-24.355c-13.568-4.992-29.52-1.663-44.283 8.902s-28.253 28.357-36.655 52.03l-.44 1.237-26.46-10.585-1.053-.42.305-1.092c11.672-41.712 38.725-73.232 70.103-87.705 11.767-5.428 24.157-8.44 36.553-8.68m212.461 26.584c-47.228.27-48.68 83.388-48.26 122.596.497 46.186 12.314 115.646 51.383 118.582 44.388 3.335 51.602-74.856 50.045-119.475-1.648-47.236-13.815-121.928-53.168-121.703"/></svg>