<svg xmlns="http://www.w3.org/2000/svg" xmlns:xlink="http://www.w3.org/1999/xlink" width="600" height="421.745"><linearGradient id="a" x1="0" x2="1" y1="0" y2="0" gradientTransform="scale(41.64932 -41.64932)rotate(-45 -4.549 -27.148)" gradientUnits="userSpaceOnUse" spreadMethod="pad"><stop offset="0" style="stop-color:#bf331c"/><stop offset=".3" style="stop-color:#d3641c"/><stop offset=".5" style="stop-color:#f6b91d"/><stop offset=".7" style="stop-color:#d3641c"/><stop offset="1" style="stop-color:#bf331c"/></linearGradient><linearGradient xlink:href="#a" id="b" x1="0" x2="1" y1="0" y2="0" gradientTransform="rotate(-45 586.055 69.374)scale(501.86877)" gradientUnits="userSpaceOnUse" spreadMethod="pad"/><path d="M233.564 289.064c2.024 1.687 3.723 3.76 4.94 6.158.518 1.036 14.026 25.654 61.575 25.702 47.44-.048 60.852-24.618 61.418-25.654a21.1 21.1 0 0 1 4.567-5.88c-20.148-1.928-42.837-3.061-68.25-3.338-24.052.276-45.332 1.265-64.25 3.012m-113.16 30.68c1.373 8.338 18.363 23.545 40.198 37.378-6.592-6.218-13.135-12.797-19.533-19.81-3.808-4.242-5.362-10.122-4.278-16.291a20.2 20.2 0 0 1 8.796-13.412c-18.64 6.627-23.81 10.724-25.184 12.134m335.469-11.098c3.952 3.145 6.59 7.531 7.434 12.424 1.085 6.217-.517 12.146-4.374 16.28-6.724 7.157-13.508 13.94-20.328 20.243 21.979-13.785 39.21-29.04 40.946-37.511-1.603-1.555-7.013-5.41-23.678-11.436m-155.841 113.1c-30.788 0-62.792-10.158-94.001-29.51.096 1.976-.097 4-.567 6.073-2.17 9.038-10.219 15.388-19.581 15.388h-.278l-.988-.048C141.309 411.069 0 396.007 0 312.694c0-44.392 29.281-84.216 82.843-113.486l-.325-5.603-1.18-18.496c-.326-4.29-5.881-106.521 97.254-171.904C181.929 1.085 185.64 0 189.46 0c5.506 0 10.917 2.362 14.724 6.41 6.64 7.146 7.255 17.979 1.519 25.787-.338.47-31.306 43.633-38.415 121.824l-.663 7.194-.422 4.808-4.47 1.928-4.796 2.073c43.21-12.002 92.11-18.593 140.971-18.593 52.574 0 105.762 7.53 152.552 21.786a331 331 0 0 0-4.989-2.205l-7.158-3.061-4.47-1.88-.422-4.856-.663-7.194c-7.06-77.77-38.077-121.402-38.403-121.824-5.747-7.808-5.085-18.593 1.459-25.75C399.67 2.362 405.08 0 410.588 0c3.82 0 7.579 1.084 10.832 3.109 102.569 64.96 97.616 167.614 97.34 171.951l-1.23 18.545-.421 7.013C567.152 228.008 600 266.001 600 312.694c0 83.313-141.249 98.375-184.556 100.954l-.24.048h-1.037a20.134 20.134 0 0 1-19.581-15.388c-.518-2.12-.65-4.241-.518-6.302-31.438 19.63-63.165 29.74-94.037 29.74" style="fill:#fff"/><path d="M297.958 159.528c-71.552 0-142.996 14.255-196.051 39.114-60.479 28.33-93.76 68.865-93.76 114.052 0 76.203 135.464 90.374 176.976 92.868.241 0 .482.049.76.049 5.506 0 10.399-3.82 11.724-9.23 1.362-5.7-1.506-11.58-6.88-13.93-33.041-14.593-78.505-44.958-78.505-63.696 0-5.591 11.58-13.689 51.814-25.642 38.415-11.4 87.23-14.592 133.923-15.207 46.271.615 97.146 4 136.03 15.243 46.79 13.52 53.851 21.895 53.851 25.606 0 18.69-45.476 49.103-78.517 63.696a12.125 12.125 0 0 0-6.868 13.93c1.362 5.41 6.206 9.23 11.712 9.23.29 0 .52-.049.76-.049 41.512-2.494 176.976-16.665 176.976-92.868 0-95.88-149.442-153.166-293.944-153.166m155.046 172.265c2.301-2.446 2.868-6.061 2.301-9.363a12.26 12.26 0 0 0-5.362-8.097c-.94-.615-23.955-15.291-68.624-21.93-.566-.097-1.133-.097-1.7-.097-4.518 0-8.747 2.59-10.868 6.64-.663 1.264-16.099 30.027-68.672 30.124-52.682-.097-68.118-28.86-68.78-30.125-2.061-4.049-6.351-6.64-10.822-6.64-.615 0-1.18 0-1.735.097-44.68 6.64-67.696 21.316-68.684 21.93a12.18 12.18 0 0 0-5.266 8.098c-.615 3.302 0 6.869 2.253 9.363 43.211 47.356 97.303 81.855 152.986 81.855s108.207-33.933 152.973-81.855M400.9 27.401c.278.422 32.619 45.368 39.957 125.91l.664 7.205 6.59 2.82c.278.096 24.052 10.315 44.947 21.184l16.424 8.519 1.18-18.448c.29-4.146 5.363-101.954-93.615-164.566a11.87 11.87 0 0 0-6.41-1.88c-3.29 0-6.495 1.314-8.845 3.82a12.16 12.16 0 0 0-.892 15.436M89.388 174.591c-.277-4.146-5.362-101.87 93.531-164.517l.049-.049c2.024-1.265 4.23-1.88 6.494-1.88 3.242 0 6.447 1.314 8.797 3.82a12.16 12.16 0 0 1 .903 15.436h.039c-.373.422-32.655 45.368-40.006 125.91l-.662 7.205-6.58 2.82c-.24.096-24.015 10.315-44.91 21.184l-16.472 8.567-1.18-18.496z"/><path d="M452.86 152.226s24.195 10.363 45.752 21.557c0 0 6.025-94.037-88.024-153.588 0 0 34.56 46.597 42.271 132.03m-351.422 21.558c21.605-11.194 45.705-21.557 45.705-21.557 7.82-85.434 42.319-132.03 42.319-132.03-94.05 59.55-88.024 153.587-88.024 153.587m-81.24 138.91c0 61.238 113.63 77.662 165.685 80.82 0 0-89.193-39.404-89.193-74.758 0-31.908 103.316-60.527 201.269-61.756 97.905 1.23 205.414 29.848 205.414 61.756 0 35.354-89.157 74.757-89.157 74.757 52.02-3.157 165.638-19.58 165.638-80.818 0-86.892-143.189-141.068-281.895-141.068-138.718 0-277.761 54.176-277.761 141.068m279.834 28.474c-61.756-.145-79.505-36.813-79.505-36.813-42.597 6.35-63.877 20.148-63.877 20.148s54.273 71.31 143.382 71.31c89.096 0 143.369-71.31 143.369-71.31s-21.28-13.797-63.876-20.148c0 0-17.738 36.668-79.493 36.813" style="fill:url(#b)"/></svg>