<svg xmlns="http://www.w3.org/2000/svg" xmlns:xlink="http://www.w3.org/1999/xlink" width="600" height="416.789"><linearGradient id="a" x1="0" x2="1" y1="0" y2="0" gradientTransform="matrix(30.63095 30.63095 30.63095 -30.63094 610.074 464.402)" gradientUnits="userSpaceOnUse" spreadMethod="pad"><stop offset="0" style="stop-color:#536e78"/><stop offset=".3" style="stop-color:#99aebc"/><stop offset=".5" style="stop-color:#d9eaf3"/><stop offset=".7" style="stop-color:#99aebc"/><stop offset="1" style="stop-color:#536e78"/></linearGradient><linearGradient xlink:href="#a" id="b" x1="0" x2="1" y1="0" y2="0" gradientTransform="matrix(364.7196 -364.7196 364.7196 364.71942 117.63 438.42)" gradientUnits="userSpaceOnUse" spreadMethod="pad"/><path d="M297.863 155.587c-73.537 0-146.979 14.645-201.489 40.186C34.184 224.933 0 266.559 0 313.02c0 78.288 139.215 92.838 181.914 95.446h.738c5.727 0 10.704-3.858 12.05-9.49 1.393-5.81-1.536-11.86-7.073-14.277-33.911-15.026-80.646-46.186-80.646-65.487 0-5.728 11.907-14.05 53.248-26.327 39.495-11.716 89.635-15.026 137.632-15.633 47.532.607 99.815 4.096 139.81 15.681 48.045 13.86 55.308 22.516 55.308 26.279 0 19.253-46.699 50.461-80.705 65.487-5.489 2.465-8.465 8.466-7.025 14.277 1.405 5.632 6.382 9.49 12.05 9.49h.797C460.748 405.858 600 391.308 600 313.02c0-98.553-153.623-157.433-302.138-157.433m159.35 177.067c2.322-2.512 2.93-6.239 2.322-9.632-.607-3.441-2.56-6.418-5.489-8.323-.976-.608-24.6-15.717-70.512-22.564-.608-.038-1.155-.085-1.763-.085-4.655 0-8.977 2.643-11.168 6.834-.643 1.298-16.503 30.839-70.596 30.97-54.093-.131-69.953-29.672-70.656-30.97-2.143-4.191-6.513-6.834-11.157-6.834-.559 0-1.166.047-1.774.085-45.853 6.847-69.536 21.957-70.56 22.564-2.881 1.905-4.882 4.882-5.441 8.323-.596 3.393 0 7.072 2.38 9.632 44.366 48.652 99.947 84.135 157.208 84.135 57.2 0 111.198-34.876 157.206-84.135m-53.58-312.841c.32.428 33.53 46.603 41.066 129.404l.703 7.346 6.787 2.93c.227.142 24.648 10.597 46.187 21.765l16.884 8.788 1.203-18.968c.285-4.286 5.489-104.792-96.232-169.125C418.182.655 415.956 0 413.681 0c-3.405 0-6.703 1.357-9.12 3.953-4.096 4.382-4.465 11.026-.93 15.86M83.54 171.078C83.264 166.792 78.002 66.381 179.579 2c.048 0 .096-.047.096-.047C181.771.655 184.045 0 186.331 0c3.346 0 6.644 1.357 9.061 3.953 4.049 4.382 4.465 11.026.94 15.824l.048.038c-.381.43-33.59 46.604-41.126 129.405l-.643 7.346-6.847 2.93c-.227.142-24.647 10.596-46.14 21.765l-16.883 8.787-1.203-18.967z"/><path d="M457.07 148.098s24.838 10.597 46.973 22.182c0 0 6.239-96.648-90.41-157.861 0 0 35.436 47.913 43.437 135.679M95.91 170.28c22.135-11.585 46.973-22.182 46.973-22.182 8.001-87.766 43.496-135.68 43.496-135.68C89.719 73.633 95.91 170.28 95.91 170.28M12.371 313.02c0 62.94 116.747 79.824 170.28 83.027 0 0-91.623-40.46-91.623-76.835 0-32.744 106.186-62.19 206.835-63.44 100.601 1.25 211.074 30.696 211.074 63.44 0 36.375-91.636 76.835-91.636 76.835 53.486-3.203 170.233-20.087 170.233-83.027 0-89.301-147.11-145.014-289.671-145.014S12.37 223.72 12.37 313.02m287.588 29.256c-63.44-.131-81.73-37.852-81.73-37.852-43.71 6.56-65.57 20.741-65.57 20.741s55.712 73.252 147.3 73.252c91.576 0 147.347-73.252 147.347-73.252s-21.86-14.18-65.583-20.741c0 0-18.23 37.72-81.764 37.852" style="fill:url(#b)"/></svg>