<svg xmlns="http://www.w3.org/2000/svg" width="600" height="548.415"><path d="M299.725 219.333c-15.37 0-27.793-12.423-27.793-27.794 0-15.316 12.422-27.794 27.793-27.794 15.33 0 27.753 12.478 27.753 27.794 0 15.371-12.423 27.794-27.753 27.794M575.674 3.223A259 259 0 0 0 534.922 0c-81.31 0-136.212 37.927-138.515 39.53l-26.41 18.54 17.1 13.71s-6.061 3.58-8.255 4.869h-1.07c-22.281-15.152-49.115-23.996-78.047-23.996-28.973 0-55.861 8.899-78.143 24.05h-.316l-8.46-4.922 17.085-13.712-26.354-18.538C201.233 37.927 146.332 0 65.076 0 51.474 0 37.762 1.07 24.27 3.222L0 7.02l4.182 24.215c.644 3.524 16.386 87.728 118.47 143.59l29.836 16.29 3.963-23.352 5.47 3.209.425.81c-.905 6.471-1.55 13.012-1.55 19.758 0 56.45 33.69 104.922 82.052 126.669l.37.59v13.341l-20.513-7.815-2.62 32.126c-.273 3.702-6.69 92.349 59.51 173.001l15.631 18.963 18.703-15.905c2.783-2.304 67.38-58.536 63.787-174.88l-1.07-33.895-22.171 8.405V319.28l.098-.099c49.445-21.322 84.095-70.383 84.095-127.643 0-6.801-.7-13.438-1.604-19.978l6.485-3.798 3.908 23.35 29.837-16.289c102.084-55.861 117.88-140.065 118.47-143.589L600 7.018 575.675 3.22Z" style="fill:gray"/><path d="M246.647 186.342c2.688-26.724 25.34-47.675 52.763-47.675 2.523 0 5.087.22 7.555.548l7.925-32.565-7.185-29.467c-2.728-.22-5.512-.316-8.295-.316-29.302 0-55.971 10.97-76.265 29.028l-52.817-31.07 19.333-15.481S122.556 12.217 28.014 27.108c0 0 13.231 75.62 106.266 126.45l4.127-24.476 50.884 29.946a115 115 0 0 0-4.717 32.62c0 24.311 7.555 46.812 20.403 65.337l27.053-65.337zm163.69-126.998 19.334 15.48-53.558 31.442a113 113 0 0 0-23.886-16.495l-4.236 33.484-17.84 25.325c13.452 9.585 22.282 25.34 22.282 43.069 0 9.269-2.413 17.88-6.582 25.49l18.69 15.37h42.204a114.7 114.7 0 0 0 7.5-40.86c0-11.093-1.604-21.857-4.607-32.03l51.9-30.537 4.127 24.476c93.088-50.83 106.265-126.45 106.265-126.45-94.528-14.89-161.592 32.236-161.592 32.236m-64.541 203.003L372.3 280.35c-12.148 10.01-26.395 17.565-41.985 21.898v64.966l23.187-8.83c3.277 105.991-55.218 155.696-55.218 155.696-60.742-73.961-54.092-155.697-54.092-155.697l23.186 8.83v-65.28c-15.48-4.443-29.562-12.108-41.615-22.173l15.11-6.376 18.265-47.291c9.694 11.353 24.146 18.58 40.27 18.58 11.628 0 22.447-3.8 31.222-10.23z"/></svg>