<svg xmlns="http://www.w3.org/2000/svg" width="600" height="548.415"><linearGradient id="a" x1="0" x2="1" y1="0" y2="0" gradientTransform="scale(37.35059 -37.35059)rotate(20 30.306 51.482)" gradientUnits="userSpaceOnUse" spreadMethod="pad"><stop offset="0" style="stop-color:#8b723c"/><stop offset=".3" style="stop-color:#d2bb7b"/><stop offset=".5" style="stop-color:#ebd491"/><stop offset=".7" style="stop-color:#d2bb7b"/><stop offset="1" style="stop-color:#8b723c"/></linearGradient><path d="M299.725 219.333c-15.37 0-27.793-12.423-27.793-27.794 0-15.316 12.422-27.794 27.793-27.794 15.33 0 27.753 12.478 27.753 27.794 0 15.371-12.423 27.794-27.753 27.794M575.674 3.223A259 259 0 0 0 534.922 0c-81.31 0-136.212 37.927-138.515 39.53l-26.41 18.54 17.1 13.71s-6.061 3.58-8.255 4.869h-1.07c-22.281-15.152-49.115-23.996-78.047-23.996-28.973 0-55.861 8.899-78.143 24.05h-.316l-8.46-4.922 17.085-13.712-26.354-18.538C201.233 37.927 146.332 0 65.076 0 51.474 0 37.762 1.07 24.27 3.222L0 7.02l4.182 24.215c.644 3.524 16.386 87.728 118.47 143.59l29.836 16.29 3.963-23.352 5.47 3.209.425.81c-.905 6.471-1.55 13.012-1.55 19.758 0 56.45 33.69 104.922 82.052 126.669l.37.59v13.341l-20.513-7.815-2.62 32.126c-.273 3.702-6.69 92.349 59.51 173.001l15.631 18.963 18.703-15.905c2.783-2.304 67.38-58.536 63.787-174.88l-1.07-33.895-22.171 8.405V319.28l.098-.099c49.445-21.322 84.095-70.383 84.095-127.643 0-6.801-.7-13.438-1.604-19.978l6.485-3.798 3.908 23.35 29.837-16.289c102.084-55.861 117.88-140.065 118.47-143.589L600 7.018 575.675 3.22Z"/><path d="m756.047 274.973 1.41-1.129-3.902-2.293a8.6 8.6 0 0 1-1.746 1.203l-.313-2.442-1.297-1.847a3.85 3.85 0 0 0 1.621-3.141c0-.676-.172-1.304-.472-1.859l1.359-1.121h3.074c.356.926.547 1.929.547 2.98 0 .809-.113 1.594-.332 2.336l3.785 2.227.301-1.785c6.785 3.707 7.75 9.222 7.75 9.222a17 17 0 0 1-2.703.211c-5.438 0-9.082-2.562-9.082-2.562m-27.883 2.351s.965-5.515 7.75-9.222l.301 1.785 3.715-2.184a8.3 8.3 0 0 1-.348-2.379 8.33 8.33 0 0 1 1.488-4.765l1.973 4.765 1.066.387a3.87 3.87 0 0 0 3.844 3.477c.192 0 .375-.016.555-.04l.578 2.375-.524 2.149a8.323 8.323 0 0 1-6.167-2.094l-3.856 2.266 1.414 1.129s-3.648 2.562-9.086 2.562a17 17 0 0 1-2.703-.211m15.524-17.961-1.102-.465a8.3 8.3 0 0 1 3.035-1.617v-4.761l-1.691.644s-.485-5.961 3.945-11.355c0 0 4.27 3.625 4.027 11.355l-1.691-.644v4.738a8.3 8.3 0 0 1 3.062 1.597l-1.933 1.313-1.106 2.035a3.852 3.852 0 0 0-5.214.609z" style="fill:url(#a)" transform="matrix(13.71173 0 0 -13.71173 -9956.373 3829.7)"/></svg>