<svg xmlns="http://www.w3.org/2000/svg" width="543.917" height="489.881"><path d="M218.634 162.144c2.687-26.724 25.339-47.676 52.762-47.676 2.523 0 5.087.22 7.555.548l7.926-32.565-7.185-29.466c-2.729-.22-5.512-.316-8.296-.316-29.302 0-55.971 10.97-76.264 29.027l-52.818-31.07 19.334-15.48S94.542-11.983 0 2.908c0 0 13.232 75.62 106.266 126.45l4.127-24.476 50.884 29.946a115 115 0 0 0-4.716 32.62c0 24.311 7.555 46.812 20.403 65.337l27.053-65.336zm163.69-126.998 19.334 15.48L348.1 82.067a113 113 0 0 0-23.886-16.495l-4.237 33.484-17.84 25.326c13.452 9.584 22.282 25.339 22.282 43.068 0 9.27-2.413 17.88-6.581 25.49l18.689 15.371h42.205a114.7 114.7 0 0 0 7.5-40.86c0-11.094-1.604-21.857-4.607-32.031l51.899-30.537 4.127 24.476C530.74 78.529 543.917 2.909 543.917 2.909c-94.529-14.89-161.593 32.237-161.593 32.237m-64.541 203.002 26.505 18.003c-12.149 10.01-26.395 17.565-41.986 21.898v64.966l23.187-8.83c3.277 105.991-55.217 155.696-55.217 155.696-60.743-73.96-54.093-155.696-54.093-155.696l23.187 8.83v-65.281c-15.48-4.443-29.563-12.108-41.615-22.172l15.11-6.376 18.264-47.292c9.694 11.353 24.146 18.58 40.271 18.58 11.628 0 22.446-3.799 31.222-10.23z"/></svg>