<svg xmlns="http://www.w3.org/2000/svg" width="557.973" height="408.81"><path d="M355.41 339.475c31.828-42.704 43.02-76.346 43.02-129.655 0-53.275-11.192-86.86-43.02-129.519 55.654 23.984 85.363 69.38 85.148 130.049-.27 60.308-29.81 105.13-85.147 129.125m-75.32 6.288c-36.065 0-65.244-61.716-65.244-137.971 0-76.21 29.179-137.927 65.244-137.927 36.009 0 65.2 61.716 65.2 137.927 0 76.255-29.191 137.971-65.2 137.971M115.566 210.35c-.26-64.106 38.387-114.157 100.464-130.049-40.72 37.238-57.05 74.306-57.05 129.52 0 55.247 16.33 92.315 57.05 129.654-61.761-15.903-100.238-65.29-100.464-129.125m378.966-6.48c0-45.736-24.783-87.165-64.714-116.885 51.505 16.42 95.527 40.945 128.155 71.014C535.038 72.367 418.198 0 278.322 0 138.412 0 22.89 72.367 0 158c32.583-30.07 76.605-54.55 128.065-71.015-39.886 29.72-64.67 71.15-64.67 116.885 0 45.791 24.784 87.13 64.67 116.885C76.605 304.334 32.583 279.775 0 249.706 22.89 335.417 138.411 408.81 278.322 408.81c139.876 0 256.716-73.393 279.651-159.104-32.628 30.07-76.65 54.628-128.155 71.049 39.93-29.754 64.714-71.094 64.714-116.885"/></svg>