<?xml version="1.0" encoding="UTF-8" standalone="no"?>
<svg
   version="1.1"
   width="600"
   height="563.15558"
   id="svg7"
   xmlns:xlink="http://www.w3.org/1999/xlink"
   xmlns="http://www.w3.org/2000/svg"
   xmlns:svg="http://www.w3.org/2000/svg">
  <defs
     id="defs7" />
  <linearGradient
     x1="0"
     y1="0"
     x2="1"
     y2="0"
     id="linearGradient390"
     gradientUnits="userSpaceOnUse"
     gradientTransform="matrix(0,31.739258,31.739258,0,758.76465,467.85205)"
     spreadMethod="pad">
    <stop
       style="stop-color:#f6b91d"
       offset="0"
       id="stop1" />
    <stop
       style="stop-color:#d3641c"
       offset="0.19999699"
       id="stop2" />
    <stop
       style="stop-color:#bf331c"
       offset="0.5"
       id="stop3" />
    <stop
       style="stop-color:#d3641c"
       offset="0.80000299"
       id="stop4" />
    <stop
       style="stop-color:#f6b91d"
       offset="1"
       id="stop5" />
  </linearGradient>
  <linearGradient
     x1="0"
     y1="0"
     x2="1"
     y2="0"
     id="linearGradient2997"
     xlink:href="#linearGradient390"
     gradientUnits="userSpaceOnUse"
     gradientTransform="matrix(0,31.739258,31.739258,0,758.76465,467.85205)"
     spreadMethod="pad" />
  <linearGradient
     x1="0"
     y1="0"
     x2="1"
     y2="0"
     id="linearGradient3000"
     xlink:href="#linearGradient390"
     gradientUnits="userSpaceOnUse"
     gradientTransform="matrix(0,-446.85348,446.85348,0,299.98804,505.02277)"
     spreadMethod="pad" />
  <path
     d="M 300.00704,563.15555 163.7234,357.85719 167.67956,353.90103 0,281.57778 167.67956,209.2686 163.7234,205.29836 300.00704,0 436.22029,205.29836 432.32044,209.2686 600,281.57778 l -167.67956,72.32325 3.89985,3.95616 z"
     id="path5" />
  <path
     d="M 300.00704,550.45639 172.7902,358.80048 l 7.26471,-7.20839 -9.57365,-4.12511 -152.770018,-65.83289 152.770018,-65.93143 9.57365,-4.12512 -7.26471,-7.15207 127.21684,-191.65592 127.14644,191.65592 -7.20839,7.15207 9.57365,4.12512 152.7137,65.93143 -152.7137,65.83289 -9.51733,4.06879 7.15207,7.20839 z"
     id="path6" />
  <path
     d="M 410.37145,360.44737 331.51559,281.57744 410.37145,202.72158 314.46606,58.18771 v 223.38973 223.44604 z m -1.30934,-18.42926 134.07326,-57.79384 -181.37832,10.50285 z m 0,-120.88134 134.07326,57.80792 -181.37832,-10.50286 z M 190.89565,342.01811 56.808316,284.22427 238.24295,294.72712 Z m -1.2671,18.42926 78.79954,-78.86993 -78.79954,-78.85586 95.90539,-144.53387 v 223.38973 223.44604 z m 1.2671,-139.3106 -134.087334,57.80792 181.434634,-10.50286 z"
     style="fill:url(#linearGradient3000)"
     id="path7" />
</svg>
