<svg xmlns="http://www.w3.org/2000/svg" width="600" height="236.29"><path d="M146.75 37.283s-8.076 18-12.867 28.67H105.36v21.13C89.815 91.662 0 118.09 0 118.09l52.108 15.434s37.707 11.068 53.252 15.646v21.166h28.523c4.79 10.68 29.64 65.954 29.64 65.954s18.785-56.326 22.643-67.864h3.536c5.658 18.138 19.938 29.861 29.206 34.477l23.114 11.575V168.97c19.716-3.498 30.535-13.449 35.769-23.4h172.606c5.05 6.6 13.015 11.428 23.188 11.428h112.717l4.79-6.379c1.477-1.984 8.908-12.766 8.908-30.544v-3.896c0-17.741-7.43-28.56-8.908-30.535l-4.79-6.388H473.585c-10.173 0-18.139 4.837-23.188 11.437H277.79c-5.234-9.923-16.053-19.874-35.77-23.409V21.785L218.909 33.36c-9.268 4.615-23.548 16.366-29.206 34.505h-3.536C182.308 56.326 163.523 0 163.523 0Z" style="fill:#fff"/><path d="M584.03 116.178c0-13.301-5.704-20.944-5.704-20.944H473.585c-11.437 0-13.311 11.428-13.311 11.428H266.03s0-24.776-39.988-24.776V47.631s-22.818 11.437-22.818 36.166h-28.56l-13.339-39.988-17.132 38.077h-22.856v17.17l-64.726 19.033v.111l64.726 19.006v17.16h22.856l17.132 38.077 13.339-39.988h28.56c0 24.739 22.818 36.167 22.818 36.167v-34.256c39.988 0 39.988-24.775 39.988-24.775h194.243s1.874 11.437 13.31 11.437h104.742s5.705-7.616 5.705-20.954z"/></svg>