<svg xmlns="http://www.w3.org/2000/svg" xmlns:xlink="http://www.w3.org/1999/xlink" width="600" height="236.29"><radialGradient id="a" cx="0" cy="0" r="1" fx="0" fy="0" gradientTransform="matrix(20.17152 0 0 -20.17152 220.866 370.132)" gradientUnits="userSpaceOnUse" spreadMethod="pad"><stop offset="0" style="stop-color:#ebd491"/><stop offset=".7" style="stop-color:#d2bb7b"/><stop offset="1" style="stop-color:#8b723c"/></radialGradient><radialGradient xlink:href="#a" id="b" cx="0" cy="0" r="1" fx="0" fy="0" gradientTransform="translate(324.943 118.137)scale(186.19868)" gradientUnits="userSpaceOnUse" spreadMethod="pad"/><path d="M146.788 37.283s-8.105 18-12.905 28.67h-28.486v21.13A756662 756662 0 0 1 0 118.09l52.108 15.434s37.744 11.068 53.289 15.646v21.166h28.486c4.8 10.68 29.677 65.954 29.677 65.954s18.785-56.326 22.606-67.864h3.536c5.658 18.138 19.938 29.861 29.243 34.477l23.113 11.575V168.97c19.717-3.498 30.499-13.449 35.733-23.4h172.606c5.086 6.6 13.015 11.428 23.225 11.428h112.68l4.79-6.379c1.514-1.984 8.908-12.766 8.908-30.544v-3.896c0-17.741-7.394-28.56-8.908-30.535l-4.79-6.388h-112.68c-10.21 0-18.139 4.837-23.225 11.437H277.79c-5.234-9.923-16.016-19.874-35.733-23.409V21.785L218.945 33.36c-9.305 4.615-23.585 16.366-29.243 34.505h-3.536C182.345 56.326 163.56 0 163.56 0Z" style="fill:#fff"/><path d="M584.03 116.178c0-13.301-5.704-20.944-5.704-20.944H473.622c-11.437 0-13.348 11.428-13.348 11.428H266.068s0-24.776-39.988-24.776V47.631s-22.855 11.437-22.855 36.166h-28.56l-13.339-39.988-17.132 38.077h-22.856v17.17l-64.726 19.033v.111l64.726 19.006v17.16h22.856l17.132 38.077 13.339-39.988h28.56c0 24.739 22.855 36.167 22.855 36.167v-34.256c39.988 0 39.988-24.775 39.988-24.775h194.206s1.91 11.437 13.348 11.437h104.704s5.705-7.616 5.705-20.954z" style="fill:#8b723c"/><path d="m147.582 83.437-.97 2.206H125.05v16.154l-2.667.794-52.828 15.535 52.828 15.545 2.667.794v16.19h21.563l.97 2.197 13.236 29.419 10.348-31.006.868-2.52h34.901v3.71c0 15.074 9.268 24.665 15.434 29.391v-31.19h3.674c35.557 0 36.314-20.198 36.314-21.102l.074-3.637h197.843l3.064.037.582 3.028c.148.867 1.726 8.326 9.701 8.326h102.656c1.44-2.631 4.07-8.613 4.07-17.234v-3.896c0-8.612-2.63-14.603-4.07-17.233H473.62c-7.975 0-9.553 7.504-9.701 8.363l-.582 3.064h-197.27l-3.637-.037-.074-3.637c0-.867-.757-21.055-36.314-21.055h-3.674V54.415c-6.166 4.727-15.434 14.354-15.434 29.419v3.683h-34.901l-.868-2.53-10.348-31.005z" style="fill:url(#b)"/></svg>