<svg xmlns="http://www.w3.org/2000/svg" width="600" height="509.122"><radialGradient id="a" cx="0" cy="0" r="1" fx="0" fy="0" gradientTransform="translate(300.01 254.6)scale(241.20743)" gradientUnits="userSpaceOnUse" spreadMethod="pad"><stop offset="0" style="stop-color:#f6b91d"/><stop offset=".7" style="stop-color:#d3641c"/><stop offset="1" style="stop-color:#bf331c"/></radialGradient><path d="M147.556 509.122h-47.475v-274.2l22.617-63.386 18.85-19.894H97l-18.595-24.31-33.615-23.713L0 0h600l-44.84 103.72-33.807 23.866-19.04 24.056H458.4l18.952 19.945 22.566 59.605v94.62l-47.832 24.858h-9.444l-41.811 26.653-48.125 25.061h-18.8l-42.41 31.871-48.62 25.304h-18.953l-42.448 31.922z" style="fill:#fff"/><path d="M486.95 122.317h-64.786c-2.291-4.977-3.933-8.605-3.933-8.605H181.769s-1.744 3.78-3.933 8.605H113.05l-11.48-14.472 22.821-23.369H475.61l22.821 23.369zm-53.7 45.388 19.194 20.237H147.556l19.143-20.237zm-47.438 184.404V267.39l9.597-12.83h29.084l9.597 12.83.05 53.992zm-110.02 57.238V267.39l9.596-12.83h29.084l9.597 12.83.05 105.655zm-109.984 57.225V267.39l9.597-12.83h29.033l9.648 12.83.05 162.83zM31.515 20.734l29.987 69.317 31.464 22.274 14.268 18.583h66.682l-14.472 31.922-18.837 19.945-19.792 52.147v253.517h21.675l27.888-14.51 46.635-35.053h20.836l42.563-22.173 46.584-35.002h20.632l42.805-22.325 46.19-29.389h10.399l32.163-16.75v-78.265l-19.74-52.146-18.89-19.945-14.471-31.973h66.224l14.726-18.583 31.464-22.185 29.987-69.406z" style="fill:#bf331c"/><path d="M44.1 29.047 68.105 84.63l26.36 18.596 1.183-1.197 22.822-23.317 2.443-2.482H479.08l2.444 2.482 22.822 23.317 1.183 1.248 26.31-18.494 24.055-55.736zm142.936 92.915-1.693 3.78-2.19 4.824-1.73 3.78-11.392 25.112h259.881l-11.392-25.112-2.278-5.066-1.642-3.538-1.693-3.78zm265.405 74.23H144.333l-15.274 40.322V480.14h11.392l17.056-8.897V264.656l1.641-2.19 9.597-12.817 2.533-3.334h37.332l2.494 3.334 9.597 12.817 1.63 2.19v2.736l.05 162.83v.344h13.428l31.719-16.496V264.656l1.642-2.19 9.597-12.817 2.482-3.334h37.344l2.482 3.334 9.597 12.817 1.641 2.19v2.736l.051 105.656v.343h13.225l31.973-16.597v-92.138l1.641-2.19 9.597-12.817 2.482-3.334h37.332l2.494 3.334 9.648 12.817 1.642 2.19v57.085h2.584l25.902-13.53v-71.748l-15.223-40.271z" style="fill:url(#a);stroke-width:12.728"/><path d="M424.493 254.56h-29.084l-9.597 12.83v84.719l48.329-30.726-.051-53.992zm-220.055 0h-29.033l-9.597 12.83v199.182l48.329-36.351-.051-162.83zm110.034 0h-29.084l-9.597 12.83v141.957l48.329-36.3-.051-105.656zm-166.916-66.618h304.888l-19.194-20.237H166.7ZM124.391 84.476l-22.821 23.369 11.48 14.472h64.786c2.19-4.824 3.933-8.605 3.933-8.605h236.462s1.642 3.628 3.933 8.605h64.786l11.48-14.472-22.821-23.369z" style="fill:#fff"/></svg>