<svg xmlns="http://www.w3.org/2000/svg" width="600" height="509.122"><radialGradient id="a" cx="0" cy="0" r="1" fx="0" fy="0" gradientTransform="translate(299.998 254.588)scale(241.2045)" gradientUnits="userSpaceOnUse" spreadMethod="pad"><stop offset="0" style="stop-color:#d9eaf3"/><stop offset=".663" style="stop-color:#99aebc"/><stop offset="1" style="stop-color:#536e78"/></radialGradient><path d="M147.556 509.122h-47.475v-274.2l22.617-63.386 18.85-19.894H97l-18.595-24.31-33.615-23.713L0 0h600l-44.84 103.72-33.807 23.866-19.04 24.056H458.4l18.952 19.945 22.566 59.605v94.62l-47.832 24.858h-9.444l-41.811 26.653-48.125 25.061h-18.8l-42.41 31.871-48.62 25.304h-18.953l-42.448 31.922z" style="fill:#fff"/><path d="M486.95 122.317h-64.786c-2.291-4.977-3.933-8.605-3.933-8.605H181.769s-1.744 3.78-3.933 8.605h-64.735l-11.531-14.472 22.821-23.369H475.61l22.821 23.369zm-53.7 45.388 19.194 20.237H147.556l19.143-20.237zm-47.438 184.404V267.39l9.597-12.83h29.084l9.597 12.83.05 53.992zm-110.02 57.238V267.39l9.596-12.83h29.084l9.597 12.83.05 105.655zm-109.984 57.225V267.39l9.597-12.83h29.033l9.648 12.83.05 162.83zM31.515 20.734l29.987 69.317 31.464 22.274 14.268 18.583h66.682l-14.472 31.922-18.837 19.945-19.792 52.147v253.517h21.675l27.888-14.51 46.635-35.053h20.836l42.563-22.173 46.584-35.002h20.632l42.805-22.325 46.19-29.389h10.399l32.163-16.75v-78.265l-19.74-52.146-18.89-19.945-14.471-31.973h66.224l14.726-18.583 31.464-22.185 29.987-69.406z" style="fill:#536e78"/><path d="M44.1 29.047 68.156 84.68l26.31 18.596 1.183-1.248 22.821-23.317 2.444-2.482h358.167l2.444 2.482 22.821 23.317 1.184 1.248 26.309-18.545 24.056-55.685zm142.936 92.915-1.693 3.78-2.189 4.824-1.73 3.78-11.341 25.112h259.83l-11.392-25.112-1.68-3.78-2.19-4.824-1.743-3.78zm265.405 74.23H144.334l-15.274 40.233V480.14h11.443l17.004-8.846v-206.64l1.693-2.189 9.584-12.868 2.495-3.334h37.331l2.495 3.334 9.597 12.868 1.63 2.19v2.787l.1 162.779v.344h13.378l31.667-16.496V264.656l1.693-2.19 9.597-12.868 2.482-3.334h37.395l2.431 3.334 9.597 12.868 1.693 2.19v2.787l.05 105.605v.343h13.225l31.922-16.597v-92.138l1.642-2.19 9.597-12.868 2.482-3.334h37.331l2.495 3.334 9.648 12.868 1.642 2.19v57.085h2.635l25.85-13.53v-71.786l-15.222-40.233z" style="fill:url(#a);stroke-width:12.728"/><path d="M424.493 254.56h-29.084l-9.597 12.83v84.719l48.329-30.726-.051-53.992zm-220.055 0h-29.033l-9.597 12.83v199.182l48.329-36.351-.051-162.83zm110.034 0h-29.046l-9.635 12.83v141.957l48.329-36.3-.051-105.656zm-166.916-66.618h304.888l-19.194-20.237H166.7ZM124.391 84.476l-22.821 23.369 11.48 14.472h64.786c2.19-4.824 3.933-8.605 3.933-8.605h236.462s1.642 3.628 3.933 8.605h64.786l11.48-14.472-22.821-23.369z" style="fill:#fff"/></svg>