<svg xmlns="http://www.w3.org/2000/svg" width="600" height="309.778"><path d="m415.596 532.525-.177-1.542-1.538.22c-.004 0-.913.126-2.32.126-3.33 0-9.35-.694-13.432-5.161l3.725-2.354.743.025 1.465.049.087-1.465.187-3.164.077-1.25-1.22-.302-3.199-.792-1.46-.361-.366 1.46-.161.649-3.438 2.359c-2.513-4.698-2.05-7.613-2.045-7.642l.347-1.992-1.993.22c-.312.034-7.641.917-10.835 7.465l-.746 1.549 1.63.546c.043.015 3.829 1.299 6.754 4.58l-19.337 13.262c-.288-2.588.142-4.736 1.284-6.416 2.11-3.096 6.055-3.677 6.099-3.681l1.519-.21-.235-1.514c-.625-4.062-3.638-8.809-10.078-8.809-4.257 0-8.545 2.852-12.695 5.61-3.209 2.129-6.524 4.337-8.852 4.337-3.64 0-5.577-3.067-5.577-5.28 0-1.313.375-2.553 1.23-3.56.625-.74 1.602-1.273 2.51-1.59.825-.288 1.724-.415 2.593-.425.65 0 1.221-.42 1.426-1.03a1.51 1.51 0 0 0-.527-1.68 6.57 6.57 0 0 0-5.792-1.025 7.4 7.4 0 0 0-1.547.653 9.7 9.7 0 0 0-1.47 1.032c-3.74 3.178-3.848 8.266-3.848 8.832v.181c-.038 1.274-.146 4.663 4.497 9.458 4.61 4.765 9.317 7.524 9.517 7.636l2.421 1.406-.161-2.797a7.48 7.48 0 0 1 2.018-5.551c1.225-1.3 2.797-2.042 4.31-2.042 3.067 0 6.632 2.828 6.632 6.474 0 1.456-.366 2.794-1.094 3.985l-4.41 3.023a3.8 3.8 0 0 0-1.273-.225c-2.08 0-3.77 1.69-3.77 3.77a3.766 3.766 0 0 0 7.52.308l2.89-1.822c.61.332 1.372.712 2.538 1.23 1.232.552 5.602 2.335 10.099 2.335 1.518 0 2.905-.21 4.116-.63 1.353-.465 2.617-1.221 3.49-2.374.914-1.211 1.437-2.831 1.104-4.341a1.49 1.49 0 0 0-1.469-1.187c-.342 0-.683.113-.957.338-1.206.986-2.633 1.729-4.175 2.001a7.6 7.6 0 0 1-1.378.123c-2.572 0-4.818-1.217-6.097-2.09l19.824-12.524c2.055 6.406 1.406 10.585-2.442 16.284l-1.011 1.498 1.665.723c.146.064 3.668 1.567 8.218 1.567 4.312 0 8.057-1.313 11.133-3.906 8.203-6.919 7.49-14.267 7.457-14.58" style="fill:gray" transform="matrix(7.38469 0 0 7.38469 -2469.258 -3776.44)"/><path d="M420.679 266.394s58.376 20.27 105.001-15.213c46.736-35.622 50.807-63.785 53.004-84.951 0 0-15.684 38.215-61.912 68.613-27.074 17.815-33.388 21.166-96.093 31.55m116.863-11.14c-56.752 47.852-131.319 15.58-131.319 15.58 30.075-44.492 36.74-79.006 17.816-134.64a102 102 0 0 0-3.36-8.548l-170.41 107.632 2.38 3.286s54.555 51.203 109.082 6.664c0 0 5.547 25.607-26.724 36.748-32.27 11.105-76.763-3.35-96.813-12.258-12.655-5.63-18.646-9.056-23.585-11.899l-32.455 20.474c.258 1.191.396 2.419.396 3.683 0 9.194-7.458 16.662-16.69 16.662-9.193 0-16.661-7.468-16.661-16.662 0-9.23 7.468-16.698 16.662-16.698 3.858 0 7.357 1.338 10.163 3.535l39.988-27.443c5.446-8.179 11.077-20.659 11.077-37.32 0-32.235-30.037-58.949-60.111-58.949-30.038 0-60.075 30.037-57.84 67.856 0 0-34.506-20.012-67.894-54.517-33.388-34.468-30.037-56.751-30.037-63.425s2.234-37.828 24.48-56.752c22.246-18.895 42.296-11.114 51.204-4.44 0 0-57.869 0-57.869 52.284 0 21.166 17.807 50.086 52.284 50.086 43.413 0 105.721-73.45 159.122-73.45 48.97 0 61.191 41.18 63.425 55.635 0 0-83.549 10.93-60.905 104.503l166.847-114.417c-24.489-34.367-62.53-46.837-62.53-46.837 21.13-43.376 71.217-48.933 71.217-48.933s-5.733 28.81 22.43 74.428l38.761-26.575 2.234-8.908 23.622 5.843-1.376 23.363-8.907-.286-41.032 25.92a142 142 0 0 0 3.213 4.108c46.726 58.994 131.281 46.736 131.281 46.736s5.557 50.086-51.167 97.93"/></svg>