<svg xmlns="http://www.w3.org/2000/svg" width="577.744" height="285.944"><path d="M409.566 253.701s58.376 20.271 105-15.212c46.737-35.622 50.807-63.786 53.004-84.952 0 0-15.683 38.216-61.911 68.613-27.074 17.815-33.388 21.166-96.093 31.551m116.862-11.142c-56.75 47.853-131.318 15.582-131.318 15.582 30.074-44.493 36.74-79.007 17.816-134.641a102 102 0 0 0-3.36-8.548L239.155 222.584l2.381 3.286s54.555 51.204 109.082 6.665c0 0 5.547 25.606-26.724 36.748-32.27 11.104-76.764-3.351-96.813-12.259-12.656-5.63-18.646-9.055-23.585-11.898L171.04 265.6c.259 1.19.397 2.418.397 3.683 0 9.194-7.459 16.661-16.69 16.661-9.193 0-16.661-7.467-16.661-16.661 0-9.231 7.468-16.699 16.662-16.699 3.858 0 7.357 1.339 10.163 3.535l39.988-27.443c5.446-8.178 11.077-20.659 11.077-37.32 0-32.234-30.037-58.949-60.112-58.949-30.037 0-60.074 30.038-57.84 67.857 0 0-34.505-20.013-67.893-54.518C-3.257 111.278.094 88.995.094 82.321s2.234-37.828 24.48-56.752C46.82 6.674 66.87 14.456 75.778 21.13c0 0-57.869 0-57.869 52.284 0 21.166 17.807 50.087 52.284 50.087 43.413 0 105.72-73.45 159.121-73.45 48.97 0 61.192 41.179 63.426 55.634 0 0-83.549 10.93-60.906 104.503L398.682 95.77c-24.49-34.366-62.53-46.837-62.53-46.837C357.282 5.557 407.368 0 407.368 0s-5.732 28.81 22.431 74.428l38.76-26.575 2.235-8.908 23.621 5.843-1.375 23.363-8.908-.286-41.03 25.92a142 142 0 0 0 3.211 4.108c46.727 58.994 131.282 46.736 131.282 46.736s5.557 50.086-51.167 97.93"/></svg>