<svg xmlns="http://www.w3.org/2000/svg" width="276.864" height="85.724" viewBox="0 0 73.254 22.681"><path d="M19.724 0c-.582.004-1.164.02-1.744.06-1.15.091-1.742 1.682-.942 2.504.67.844 1.849.505 2.773.58.01 1.16.042 2.324.028 3.488-3.905-.01-7.81-.028-11.712.025q-.085-.465-.166-.932-1.417.014-2.836-.01c-1.164 1.95-1.171 4.646.014 6.586.949-.017 1.902-.018 2.854-.014 0-.23.004-.695.007-.928 3.965-.007 7.93.018 11.896-.017.014 1.824-.01 3.647.074 5.468.434 1.693 2.49 1.11 3.768 1.164.099 1.2-.272 2.54.306 3.64.773 1.235 2.865.544 2.788-.9-.06-1.654.18-3.358-.184-4.98-.705-1.33-2.424-.763-3.634-.826q.005-1.785-.017-3.563c2.25.077 4.508-.084 6.752.078a39.6 39.6 0 0 0 17.632 5.954c-.536-.88-1.06-1.774-1.51-2.702 1.26.914 2.547 1.81 4.018 2.36 2.286.985 4.812.258 7.168-.024-.945-.695-1.887-1.408-2.631-2.322 1.834.762 3.81 1.274 5.813 1.15 1.726-.014 3.162-1.076 4.608-1.876a12.4 12.4 0 0 1-2.72-1.15c1.552.264 3.256.352 4.68-.4 3.359-2.867 5.547-6.96 6.447-11.253-5.606 5.165-12.7 9.031-20.367 9.804-6.515.402-13.232-.43-19.197-3.193-1.002-.395-1.87-1.29-3.02-1.157-2.565.014-5.133.004-7.702.014-.042-1.69.007-3.38-.06-5.07-.014-.76-.624-1.576-1.44-1.537a58 58 0 0 0-1.744-.02M3.132 6.23c-1.52.91-3.08 2.281-3.115 4.2-.177 2.02 1.072 3.72 2.19 5.27 1.436 2.027 1.623 4.765.508 6.98 1.25-.896 2.604-1.877 3.07-3.422.783-2.187-.177-4.555-1.658-6.195-1.591-1.873-2.145-4.597-.995-6.833m18.334.243c.48.787 1.129 1.591 1.026 2.575-.038.882-.575 1.602-1.132 2.237-.41-.71-.914-1.41-1.023-2.243-.04-.988.6-1.8 1.129-2.569"/></svg>