<svg xmlns="http://www.w3.org/2000/svg" width="83.601" height="53.836" viewBox="0 0 22.119 14.244"><path d="M82.097 130.197a37 37 0 0 1-2.417-3.367.26.26 0 0 1 .219-.397h3.14c-.55.773-.941 1.972-.941 3.706zm16.232-3.764h3.17a.259.259 0 0 1 .22.397 36 36 0 0 1-2.448 3.398v-.09c0-1.733-.393-2.932-.943-3.705zm-5.886 10.37q-.87.66-1.759 1.266a42 42 0 0 1-1.756-1.266q.841.13 1.756.13t1.76-.13m3.091-6.567c-1.71.902-3.87 1.25-4.85 1.25-1.004 0-3.252-.367-4.982-1.321 1.881-1.714 3.472-2.137 4.982-2.137 1.485 0 3.016.552 4.85 2.208" style="clip-rule:evenodd;fill-rule:evenodd;stroke-width:.264583;stroke-linejoin:round;stroke-miterlimit:2" transform="translate(-79.64 -123.825)"/><path d="M90.684 132.106c1.855 0 7.703-1.177 7.703-4.769.597 1.403.655 3.643.248 4.635-.975 2.377-4.081 4.46-7.95 4.46-3.87 0-6.977-2.083-7.952-4.46-.406-.992-.349-3.232.249-4.635 0 3.592 5.848 4.769 7.702 4.769m1.692 1.195c.01.01.047.015.082.01.05-.005.089-.055.187-.241.152-.289.3-.459.401-.459.094 0 .112.056.06.192-.055.144-.054.192.008.226.085.045.106.032.173-.11.115-.25.059-.46-.14-.519-.153-.045-.263.001-.429.182-.221.24-.414.647-.342.719m-3.874-.051c.023.022.05.041.06.041.024 0 .372-.22.55-.348.115-.083.136-.11.129-.17-.015-.127-.103-.105-.42.104-.388.257-.41.282-.319.373m7.263-1.413c.025.037.068.068.097.068.125 0 .21-.211.115-.289-.056-.047-.169-.004-.218.084-.034.061-.034.075.006.137m-6.849 2.96c.12.052.34.045.455-.013.22-.113.356-.353.357-.63.002-.198-.068-.339-.204-.412-.122-.066-.502-.057-.716.016-.089.03-.166.056-.172.056a.3.3 0 0 1-.04-.099.5.5 0 0 0-.289-.29c-.128-.042-.38-.034-.587.02l-.179.047.013-.055c.052-.226.052-.219-.017-.288-.057-.057-.09-.067-.222-.067-.176 0-.23.038-.203.143.016.065.05.079.166.07.077-.008.076.04-.006.283-.08.235-.173.398-.261.455-.132.087-.05.257.098.202.084-.032.197-.17.271-.332.07-.152.096-.168.421-.247.455-.112.646-.006.596.33a.42.42 0 0 1-.276.328c-.087.026-.115.022-.219-.028-.16-.077-.212-.065-.212.051 0 .082.012.097.116.15a.56.56 0 0 0 .762-.317c.026-.072.06-.104.153-.143.19-.081.316-.108.505-.108.226 0 .281.045.281.233 0 .164-.034.255-.137.361a.315.315 0 0 1-.345.086c-.103-.034-.185-.018-.208.04-.023.062.013.12.1.157m4.07-.238c.037.046.063.049.13.013q.11-.058.102-.429c-.003-.154.006-.238.03-.27.46-.6.776-.688.903-.25.05.17.031.27-.072.387-.072.083-.14.116-.318.155-.064.015-.072.027-.065.101.007.072.02.086.086.093.186.021.444-.13.54-.316.113-.217.058-.586-.116-.775a.63.63 0 0 0-.321-.16c-.116 0-.368.157-.546.34a2 2 0 0 1-.184.177 1 1 0 0 1-.042-.123c-.051-.162-.137-.189-.298-.094a.6.6 0 0 0-.161.134c-.041.063-.04.07.011.12l.055.055.095-.056a1 1 0 0 1 .104-.056c.005 0 .029.11.053.245q.063.353 0 .598c-.012.045-.007.087.013.111m1.71-.544c.028.073.207.022.598-.168.759-.37 1.6-.872 1.863-1.113.249-.226.373-.526.247-.594-.079-.042-.138.004-.188.149a.6.6 0 0 1-.125.203l-.08.077v-.157a.7.7 0 0 0-.197-.523c-.15-.15-.257-.17-.414-.078-.151.088-.33.295-.436.503a1.3 1.3 0 0 1-.093.166 1 1 0 0 1-.094-.052c-.232-.142-.498.006-.773.429l-.118.18-.055-.115c-.04-.083-.073-.117-.12-.124-.136-.02-.353.17-.335.292.01.079.125.09.19.02.027-.03.057-.054.067-.054.05 0 .209.512.209.67 0 .067-.016.093-.072.12-.074.035-.101.098-.074.169m1.767-1.053c-.05.032-.16.096-.242.143l-.15.085v-.17a1 1 0 0 0-.028-.242c-.023-.061-.012-.103.078-.29.12-.249.34-.505.435-.505.121 0 .246.23.247.452 0 .192-.13.395-.34.527m-1.054.587c-.166.088-.313.16-.326.16s-.04-.09-.06-.2l-.034-.202.09-.168c.115-.215.3-.446.412-.51.081-.048.093-.049.173-.01.113.053.197.225.197.4 0 .1-.018.16-.075.25-.064.101-.12.143-.377.28m-.095-1.407c.093.093.234.01.234-.136a.13.13 0 0 0-.13-.127c-.044 0-.158.122-.158.169 0 .022.024.064.054.094m-9.259-.21c.124.123.294 0 .208-.15-.05-.09-.134-.119-.204-.07-.07.05-.072.151-.004.22m9.33-.278c.038.084.14.091.215.016.1-.1.041-.247-.092-.231a.153.153 0 0 0-.123.215m-9.186 2.205c.326.132.641.104.641-.057 0-.089-.063-.115-.236-.1a.7.7 0 0 1-.248-.019l-.1-.033.076-.039c.3-.153.465-.561.329-.817-.092-.173-.527-.317-.816-.271l-.103.016v-.115a.6.6 0 0 0-.06-.232c-.047-.096-.088-.132-.228-.203a.85.85 0 0 0-.399-.102 2 2 0 0 1-.229-.022c0-.003.03-.059.066-.123.088-.157.06-.237-.105-.31-.137-.06-.243-.057-.285.01-.038.06.006.129.105.161.042.014.08.028.085.031.021.014-.265.425-.36.518-.1.097-.108.1-.154.059-.07-.064-.158-.056-.192.019-.046.1.032.182.566.582.629.472 1.327.916 1.647 1.047zm-.006-.426-.111.026c-.103.024-.225-.03-.545-.24l-.218-.143.087-.05c.048-.029.13-.1.184-.16l.096-.107.217-.01a.86.86 0 0 1 .388.051c.19.067.23.125.199.288-.021.115-.2.322-.297.345zm-.866-.628a.56.56 0 0 1-.348.02 4 4 0 0 1-.305-.213l-.261-.196.083-.092c.046-.05.103-.12.127-.154.042-.06.052-.062.328-.05.406.016.582.112.581.316 0 .108-.122.326-.205.37m6.601 3.321c.058.059.104.051.178-.028.265-.286.373-.89.26-1.451-.062-.305-.063-.863-.003-.997.051-.113.04-.165-.039-.185-.123-.033-.2.14-.222.5-.012.185-.025.233-.088.32a.72.72 0 0 1-.428.274c-.348.09-.614-.06-.614-.346 0-.09.017-.13.092-.213.128-.142.251-.196.406-.178.14.017.191-.017.177-.118-.006-.045-.037-.069-.119-.095-.094-.03-.13-.029-.25.006-.428.124-.632.524-.446.876.166.316.61.406 1.015.206a1 1 0 0 0 .187-.13c.095-.09.095-.09.141.194.07.432-.005.867-.199 1.159-.103.156-.102.152-.048.206z" style="clip-rule:evenodd;fill-rule:evenodd;stroke-width:.264583;stroke-linejoin:round;stroke-miterlimit:2" transform="translate(-79.64 -123.825)"/><path d="M90.684 127.409c-1.71 0-3.522.482-5.683 2.564-.612-.472-1.54-1.172-1.54-2.208 0-1.035.828-2.023 1.574-2.477 1.192-.725 2.655-1.463 5.65-1.463 2.993 0 4.478.9 5.67 1.625.747.453 1.574 1.44 1.574 2.476s-.98 1.741-1.592 2.213c-2.16-2.082-3.943-2.73-5.653-2.73m4.968.48c.18.123.473.097.406.042q-.1-.082.068-.39c.06-.11.112-.204.118-.21.005-.005.033.021.064.06.055.07.163.093.195.04.033-.052-.017-.208-.096-.299-.103-.117-.229-.126-.297-.022l-.044.068-.062-.134a1.7 1.7 0 0 0-.154-.255c-.18-.235-.352-.31-.539-.237l-.101.04-.082-.129a1.3 1.3 0 0 0-.427-.399c-.287-.136-.527.091-.509.48.005.101.001.184-.008.184s-.07-.06-.133-.134c-.093-.108-.126-.13-.171-.117-.076.024-.098.109-.048.185.095.144.27.271.864.627.346.208.777.478.956.6m-.655-1.216c.048.093.052.13.035.302l-.02.194-.229-.13c-.234-.135-.303-.205-.356-.361-.062-.183-.005-.421.1-.421.132 0 .362.204.47.416m.864.9c-.03.067-.063.121-.073.12-.028-.003-.297-.202-.38-.28a.44.44 0 0 1-.154-.349c0-.16.074-.294.168-.305.098-.012.232.116.341.328.15.288.16.343.098.486m-10.688.422c.042.03.088.037.163.025.137-.023.22-.067.435-.23.213-.162.981-.644 1.404-.88.283-.158.306-.177.306-.249s-.007-.077-.105-.078c-.104 0-.105 0-.2-.196a2 2 0 0 1-.113-.28c-.017-.083-.016-.085.07-.085.143 0 .21-.124.1-.183a.5.5 0 0 0-.326.003c-.081.037-.102.099-.08.23l.017.102-.153-.014c-.389-.035-.696.134-.732.403l-.014.105-.18.015a1 1 0 0 0-.496.177c-.264.188-.189.618.14.786a.4.4 0 0 1 .097.062c0 .028-.16.092-.232.092-.082 0-.16.057-.16.118 0 .02.027.054.06.077m.562-.507a1 1 0 0 1-.085.022l-.082-.027a.43.43 0 0 1-.164-.116c-.198-.225-.027-.428.399-.472l.165-.017.12.12c.065.067.132.122.148.122.07 0 .013.058-.194.195-.123.082-.26.16-.307.173m1.07-.646q-.233.121-.33.12c-.24 0-.41-.324-.253-.481.07-.07.307-.13.44-.11.299.047.279.037.35.178.037.073.058.142.046.153-.012.01-.126.074-.253.14m6.677-.167c.059.059.075.062.13.027.03-.018.04-.084.041-.28.002-.141.017-.312.036-.378l.033-.122.086.05c.094.056.16.045.184-.03.02-.064-.032-.143-.148-.224-.126-.087-.229-.077-.283.029l-.046.089a1 1 0 0 1-.154-.126c-.184-.169-.367-.264-.507-.264a.4.4 0 0 0-.285.115c-.029.035-.057.023-.22-.09-.3-.206-.605-.252-.73-.11-.18.205-.161.579.038.784.15.154.434.213.502.105.042-.068-.012-.134-.126-.153a.6.6 0 0 1-.163-.051c-.143-.077-.215-.362-.124-.493.038-.053.058-.059.158-.045.147.02.279.089.434.225.113.1.124.12.124.226a.6.6 0 0 0 .194.415.7.7 0 0 0 .206.096c.131.035.185.021.238-.063.04-.064-.05-.15-.156-.15-.25 0-.378-.454-.162-.575.068-.037.08-.035.217.036.086.045.205.142.29.236l.143.16-.005.169c-.01.271 0 .337.055.392m-8.021-.566c.067.027.104.015.178-.06.088-.087.093-.112.035-.17-.054-.054-.095-.051-.177.014-.074.058-.096.192-.036.216m2.304.382c.168.052.458-.017.497-.117.022-.059-.028-.143-.086-.143a.5.5 0 0 0-.144.04c-.195.081-.352-.033-.375-.272-.012-.121-.006-.139.07-.215.081-.081.087-.083.271-.07.104.007.254.038.334.069.14.053.148.062.19.196.067.212.195.351.29.315.073-.029.075-.112.005-.196-.074-.087-.14-.282-.163-.482l-.015-.131.118.009c.101.008.12.002.135-.047q.037-.11-.14-.157c-.233-.065-.36.006-.335.186.012.096.01.102-.043.085-.262-.084-.563-.086-.71-.003-.186.103-.265.349-.195.602.035.127.189.298.296.331zm4.935-1.273c.063.059.087.067.13.045.094-.051.06-.143-.142-.384-.241-.29-.285-.328-.361-.317-.043.006-.063.028-.069.076-.006.052.035.119.179.288.102.12.22.252.263.292m-7.332 1.296c.102.058.273-.1.219-.202-.038-.07-.106-.07-.195 0-.078.061-.091.165-.024.203zm.472-.311c.06.035.064.034.131-.013.134-.094.133-.22-.001-.22-.147 0-.241.168-.13.233m3.82.949c.068.076.108.1.159.093.095-.01.102-.104.015-.208-.166-.198-.275-.509-.314-.895-.017-.169-.015-.179.03-.16.304.128.545.139.772.034a.52.52 0 0 0 .3-.582c-.025-.097-.196-.276-.317-.331-.119-.054-.354-.064-.44-.019-.18.095-.093.272.099.202.07-.025.112-.025.2.001.241.073.33.278.192.443-.089.106-.216.144-.433.128a.54.54 0 0 1-.307-.095c-.115-.074-.134-.1-.185-.259-.098-.3-.233-.451-.33-.37-.053.043-.048.122.013.199.1.127.157.341.184.684.044.553.157.909.361 1.135m-1.604-2.02c.101.068.187.067.223-.001.025-.047.014-.068-.084-.158-.109-.1-.111-.106-.062-.142.123-.093.381-.021.624.172.158.126.261.134.275.02.006-.059-.017-.09-.141-.187-.381-.3-.724-.35-.92-.137-.047.051-.085.12-.085.152 0 .089.081.223.17.282zm7.322.964q.111.06.17-.01c.086-.103-.095-.284-.226-.225-.1.046-.071.165.056.235z" style="clip-rule:evenodd;fill-rule:evenodd;stroke-width:.264583;stroke-linejoin:round;stroke-miterlimit:2" transform="translate(-79.64 -123.825)"/></svg>