<?xml version="1.0" encoding="UTF-8" standalone="no"?>
<svg
   version="1.1"
   id="Welcome_Deck"
   x="0px"
   y="0px"
   width="482.68973"
   height="246"
   viewBox="6.155 141.5 482.68973 246"
   xmlns="http://www.w3.org/2000/svg"
   xmlns:svg="http://www.w3.org/2000/svg">
  <defs
     id="defs3" />
  <g
     id="uncommon_3_"
     transform="translate(-2.6801496e-4)">
    <path
       fill="#ffffff"
       id="border_2_"
       d="m 40.997,141.73 c 138.406,0 278.384,0 416.792,0 40.857,61.515 40.857,181.653 0,243.54 -139.712,0 -277.08,0 -416.792,0 -38.218,-61.124 -42.858,-177.186 0,-243.54 z" />
    <linearGradient
       id="star_1_"
       gradientUnits="userSpaceOnUse"
       x1="-89.276398"
       y1="626.72852"
       x2="368.60269"
       y2="460.07431"
       gradientTransform="translate(108,-279)">
      <stop
         offset="0"
         style="stop-color:#612c75"
         id="stop1" />
      <stop
         offset="0.5"
         style="stop-color:#bf99c3"
         id="stop2" />
      <stop
         offset="1"
         style="stop-color:#612c75"
         id="stop3" />
    </linearGradient>
    <path
       id="star_2_"
       fill="url(#star_1_)"
       d="m 457.891,141.5 h -421 c -43.291,67.025 -38.604,184.26 0,246 h 421 c 41.272,-62.514 41.272,-183.863 0,-246 z m -11.165,232 H 47.098 c -34.99,-52.865 -36.26,-163.839 0,-218 h 399.625 c 36.226,52.853 36.227,165.146 0.003,218 z m -7.835,-196 c -12.573,0 -25.875,-0.025 -43.899,-0.025 -94.022,5.197 -161.514,39.628 -216.952,72.362 25.667,-0.333 63.009,-4.136 63.3,-1.608 0.291,2.528 -39.721,13.041 -67.387,21.375 22.067,14.277 61.921,40.597 60.549,43.053 -1.372,2.455 -56.864,-21.98 -76.571,-29.166 7.856,19.419 29.096,61.65 26.902,62.639 -2.194,0.989 -26.744,-30.874 -46.827,-52.924 -14.964,23.348 -37.833,60.827 -39.914,60.122 -2.081,-0.705 10.735,-42.259 18.181,-66.634 -25.2,6.453 -70.298,27.608 -71.809,25.242 -1.511,-2.367 42.896,-31.484 63.263,-45.537 -19.069,-11.908 -63.501,-33.452 -62.903,-35.806 0.598,-2.352 47.063,11.892 71.449,17.647 -5.564,-20.033 -23.1,-60.509 -21.06,-61.557 2.04,-1.048 26.978,36.349 41.355,53.012 12.881,-19.908 30.464,-59.172 32.993,-58.527 2.529,0.645 -6.785,42.138 -8.729,53.834 36.793,-24.924 95.356,-51.097 168.152,-65.501 H 53.891 c -24.91,49.924 -26.221,140.517 0,190 h 385 c 23.182,-45.642 26.182,-134.55 0,-182.001 z m -102.953,159 h -71.463 v -4 c 4.683,0 24.139,-5.982 24.139,-17.238 V 224.5 h -23.896 v -4 c 14.019,0 27.37,-7.052 46.174,-23.242 h 5.333 c 0,22.681 0.025,83.165 0.025,118.003 0,9.698 13.271,17.238 19.688,17.238 z"
       style="fill:url(#star_1_)" />
  </g>
  <g
     id="g3"
     transform="translate(-2.6801496e-4)">
    <path
       fill="#ffffff"
       d="m 345.389,243.631 v -46.214 h 89.938 l 0.19,0.671 -44.968,136.821 c -12.785,0 -23.396,1.63 -31.833,4.89 l -0.383,-0.574 56.378,-121.193 h -40.078 c -14.063,0 -23.556,8.534 -28.477,25.6 h -0.767 z"
       id="path3" />
  </g>
</svg>
