<svg xmlns="http://www.w3.org/2000/svg" width="54.164" height="52.799"><path d="M46.523 40.499c.354.053.729.12 1.108.197-4.521 6.462-12.02 10.703-20.488 10.703-8.244 0-15.569-4.017-20.128-10.192 1.926-.474 3.468-.148 5.149-.25 3.804 3.911 9.107 6.351 14.979 6.351 6.034 0 11.463-2.584 15.283-6.686 1.505-.211 2.858-.198 4.097-.123M5.037 33.615c.658-1.183 1.105-2.574 1.521-3.679a21 21 0 0 1-.322-3.538c0-4.132 1.218-7.976 3.293-11.22a2.16 2.16 0 0 1-.996-1.803c.461-1.66 1.723-3.375 3.209-3.604.864-.007 1.782.112 2.542.176 3.551-2.784 8.01-4.459 12.86-4.459 4.446 0 8.564 1.404 11.956 3.783.865-.042 1.497.248 1.904.562.439.336.945.946 1.103 1.993 3.671 3.772 5.946 8.908 5.946 14.574 0 .677-.04 1.345-.104 2.006a61 61 0 0 1 1.415 4.678c.199.591.652 1.015 1.38 1.558a25 25 0 0 0 1.403-8.242c0-13.785-11.217-25-25.003-25S2.142 12.615 2.142 26.4c0 3.183.604 6.226 1.693 9.03.419-.55.908-1.318 1.311-1.971m47.347 4.254c-.647-.68-1.34-1.175-2.009-1.657-1.052-.759-1.961-1.412-2.35-2.565-1.571-6.228-4.601-12.891-6.923-17.07-.194-.831-.253-1.716-.304-2.576a5.9 5.9 0 0 0-.687-2.986c-.729-.56-1.651-.221-1.953-.109-.474.17-1.018.09-1.651 0l-3.181-.365-1.889-.16c-.794 0-1.374.685-1.576 1.321-.061.185-.06.394-.088.573.008.493.231.927.623 1.188.719.474 1.43.961 2.141 1.446.217.324.589.951.589 1.46-.73 1.022-1.421 2.148-2.198 2.989-.178.184-.471.488-.557 1.021.717 1.59.743 1.627-.776.658-.577-.136-1.126.042-1.468.474-.234.417-.415.881-.617 1.305-.011-.005-.021-.005-.035-.013l-1.662-2.893c-3.401-6.018-5.063-8.654-6.662-8.601-2.708.25-5.22.087-7.371-.096-.956.109-2.067 1.42-2.067 2.192.06.62.519.78.874 1 1.993.271 2.155.956 2.155 1.758-.267 1.469-.897 3.016-1.61 4.214a1.15 1.15 0 0 0-.146.52c0 .647 1.164 1.537 1.164 1.537.463.093-1.734.392-1.857.621-1.355 3.984-2.738 7.869-4.268 11.401-1.045 1.691-2.027 3.287-3.978 4.174-.57.312-.637.931-.756 1.428 0 .408.131.802.362 1.111.416.543 1.09.746 1.721.514 2.597-1.33 5.698-2.038 8.267-1.8.897-.458 1.288-.73 1.366-1.67-.269-1.266-.836-1.667-1.863-2.049l-.106-1.223c0-2.571 1.116-5.732 3.41-9.662.223-.325.116-.79.095-1.21-.173-.413-1.079-1.095-1.079-1.095s1.503-.051 1.929-.56c.464-.604.808-1.334 1.11-1.953l.264.104c4.134 1.963 7.951 15.922 8.343 20.312.445 1.228.736 1.716 1.963 1.799.68-.27 1.173-.834 1.788-1.375l3.303-3.037c.809-.619 1.142-1.792 1.103-2.357-.618-1.447-1.215-2.958-1.875-4.222-.376-.746-.56-1.462-.56-2.176 0-.826.234-1.59.506-2.477.38-1.264.604-2.303.659-3.41-.878-1.604-.74-1.482.448-.52 0 0 .669.187 1.119.059.272-.094.386-.246.623-.397.203.029.464.128.746.607 1.79 2.877 3.266 6.19 4.393 9.859.182.884.27 1.54.27 2.048.06.695-.238.92-.6 1.362-.592.527-1.198 1.068-1.71 1.364-.2.117-.397.335-.456.559-.204.679-.224 1.144.224 1.815.808.663 1.254.51 2.081.322.572-.458 1.343-.821 2.354-1.114 1.905-.341 3.564-.309 5.062-.218 1.1.168 2.464.405 3.777.999l.109.04c.802.234 1.574.029 2.017-.533.364-.705.278-1.092.077-1.811-.041-.136-.047-.091-.147-.194" style="stroke:#fff;stroke-width:2.8"/><path d="M46.523 40.499c.354.053.729.12 1.108.197-4.521 6.462-12.02 10.703-20.488 10.703-8.244 0-15.569-4.017-20.128-10.192 1.926-.474 3.468-.148 5.149-.25 3.804 3.911 9.107 6.351 14.979 6.351 6.034 0 11.463-2.584 15.283-6.686 1.505-.211 2.858-.198 4.097-.123M5.037 33.615c.658-1.183 1.105-2.574 1.521-3.679a21 21 0 0 1-.322-3.538c0-4.132 1.218-7.976 3.293-11.22a2.16 2.16 0 0 1-.996-1.803c.461-1.66 1.723-3.375 3.209-3.604.864-.007 1.782.112 2.542.176 3.551-2.784 8.01-4.459 12.86-4.459 4.446 0 8.564 1.404 11.956 3.783.865-.042 1.497.248 1.904.562.439.336.945.946 1.103 1.993 3.671 3.772 5.946 8.908 5.946 14.574 0 .677-.04 1.345-.104 2.006a61 61 0 0 1 1.415 4.678c.199.591.652 1.015 1.38 1.558a25 25 0 0 0 1.403-8.242c0-13.785-11.217-25-25.003-25S2.142 12.615 2.142 26.4c0 3.183.604 6.226 1.693 9.03.419-.55.908-1.318 1.311-1.971m47.347 4.254c-.647-.68-1.34-1.175-2.009-1.657-1.052-.759-1.961-1.412-2.35-2.565-1.571-6.228-4.601-12.891-6.923-17.07-.194-.831-.253-1.716-.304-2.576a5.9 5.9 0 0 0-.687-2.986c-.729-.56-1.651-.221-1.953-.109-.474.17-1.018.09-1.651 0l-3.181-.365-1.889-.16c-.794 0-1.374.685-1.576 1.321-.061.185-.06.394-.088.573.008.493.231.927.623 1.188.719.474 1.43.961 2.141 1.446.217.324.589.951.589 1.46-.73 1.022-1.421 2.148-2.198 2.989-.178.184-.471.488-.557 1.021.717 1.59.743 1.627-.776.658-.577-.136-1.126.042-1.468.474-.234.417-.415.881-.617 1.305-.011-.005-.021-.005-.035-.013l-1.662-2.893c-3.401-6.018-5.063-8.654-6.662-8.601-2.708.25-5.22.087-7.371-.096-.956.109-2.067 1.42-2.067 2.192.06.62.519.78.874 1 1.993.271 2.155.956 2.155 1.758-.267 1.469-.897 3.016-1.61 4.214a1.15 1.15 0 0 0-.146.52c0 .647 1.164 1.537 1.164 1.537.463.093-1.734.392-1.857.621-1.355 3.984-2.738 7.869-4.268 11.401-1.045 1.691-2.027 3.287-3.978 4.174-.57.312-.637.931-.756 1.428 0 .408.131.802.362 1.111.416.543 1.09.746 1.721.514 2.597-1.33 5.698-2.038 8.267-1.8.897-.458 1.288-.73 1.366-1.67-.269-1.266-.836-1.667-1.863-2.049l-.106-1.223c0-2.571 1.116-5.732 3.41-9.662.223-.325.116-.79.095-1.21-.173-.413-1.079-1.095-1.079-1.095s1.503-.051 1.929-.56c.464-.604.808-1.334 1.11-1.953l.264.104c4.134 1.963 7.951 15.922 8.343 20.312.445 1.228.736 1.716 1.963 1.799.68-.27 1.173-.834 1.788-1.375l3.303-3.037c.809-.619 1.142-1.792 1.103-2.357-.618-1.447-1.215-2.958-1.875-4.222-.376-.746-.56-1.462-.56-2.176 0-.826.234-1.59.506-2.477.38-1.264.604-2.303.659-3.41-.878-1.604-.74-1.482.448-.52 0 0 .669.187 1.119.059.272-.094.386-.246.623-.397.203.029.464.128.746.607 1.79 2.877 3.266 6.19 4.393 9.859.342 1.32.365 2.44-.33 3.41-.592.527-1.198 1.068-1.71 1.364-.2.117-.397.335-.456.559-.204.679-.224 1.144.224 1.815.808.663 1.254.51 2.081.322.572-.458 1.343-.821 2.354-1.114 1.905-.341 3.564-.309 5.062-.218 1.1.168 2.464.405 3.777.999l.109.04c.802.234 1.574.029 2.017-.533.364-.705.278-1.092.077-1.811-.041-.136-.047-.091-.147-.194"/></svg>