<svg xmlns="http://www.w3.org/2000/svg" width="51.485" height="49.999"><path fill="#612c75" d="M45.123 39.099c.354.053.729.12 1.108.197-4.521 6.462-12.02 10.703-20.488 10.703-8.244 0-15.569-4.017-20.128-10.192 1.244-.333 2.686-.405 4.358-.202l.498.008c.102-.011.197-.037.293-.056 3.804 3.911 9.107 6.351 14.979 6.351 6.034 0 11.463-2.584 15.283-6.686 1.505-.211 2.858-.198 4.097-.123M3.637 32.215s.178-.28.258-.416c.45-1.132.866-2.208 1.263-3.263a21 21 0 0 1-.322-3.538c0-4.132 1.218-7.976 3.293-11.22a2.16 2.16 0 0 1-.996-1.803v-.128c0-1.484 1.683-3.3 3.209-3.476l.482-.003c.746.069 1.417.131 2.06.179 3.551-2.784 8.01-4.459 12.86-4.459 4.446 0 8.564 1.404 11.956 3.783.865-.042 1.497.248 1.904.562.439.336.945.946 1.103 1.993 3.671 3.772 5.946 8.908 5.946 14.574 0 .677-.04 1.345-.104 2.006a61 61 0 0 1 1.415 4.678c.199.591.652 1.015 1.38 1.558A25 25 0 0 0 50.747 25c0-13.785-11.217-25-25.003-25S.742 11.215.742 25c0 3.183.604 6.226 1.693 9.03.419-.55.799-1.162 1.202-1.815m47.456 4.098c-.647-.68-1.34-1.175-2.009-1.657-1.052-.759-1.961-1.412-2.35-2.565-1.571-6.228-4.601-12.891-6.923-17.07-.194-.831-.253-1.716-.304-2.576 0-.021-.057-.839-.059-.927.002-.078.021-.418.021-.421 0-.775-.218-1.308-.649-1.638-.729-.56-1.651-.221-1.953-.109-.474.17-1.018.09-1.651 0 .027.002-3.181-.365-3.181-.365l-1.889-.16c-.794 0-1.374.685-1.576 1.321a.6.6 0 0 0-.029.128l-.051.304a1 1 0 0 0-.008.141c.008.493.231.927.623 1.188l.783.522 1.358.924c.405.512.589.951.589 1.46v.019l-.245.378c-.563.874-1.09 1.697-1.721 2.336-.032.032-.232.256-.232.256-.178.184-.471.488-.557 1.021a1 1 0 0 0-.011.136c0 .498.259.967.647 1.433-.434-.448-.94-.802-1.412-.911-.577-.136-1.126.042-1.468.474a1.2 1.2 0 0 0-.156.283 5.8 5.8 0 0 1-.461 1.022c-.011-.005-.021-.005-.035-.013l-1.662-2.893c-3.401-6.018-5.063-8.654-6.662-8.601-2.589.301-4.428.162-7.16-.096a1 1 0 0 0-.211 0c-.956.109-2.067 1.42-2.067 2.192v.128a.86.86 0 0 0 .741.853l.133.019c1.993.271 2.155.956 2.155 1.758 0 0-.011.181-.016.29-.52 1.979-1.074 3.058-1.594 3.924a1.15 1.15 0 0 0-.146.52c0 .647.552 1.167 1.164 1.537-.159-.032-.319-.085-.463-.093-.89-.04-1.271.485-1.394.714a2 2 0 0 0-.082.189c-1.068 3.351-2.299 6.753-3.868 10.698l-.318.514c-1.045 1.691-2.027 3.287-3.978 4.174a1.2 1.2 0 0 0-.405.33 1.89 1.89 0 0 0 .011 2.209c.416.543 1.09.746 1.721.514.083-.032.197-.093.267-.149 1.953-1.507 4.497-2.048 7.776-1.654.063.005.159.008.224.003.743-.069 1.292-.679 1.358-1.521l.008-.149c0-.881-.49-1.574-1.22-1.761-.043-.011-.086-.016-.131-.024-.338-.029-.432-.128-.512-.264l-.106-1.223c0-2.571 1.116-5.732 3.41-9.662.051-.085.053-.059.071-.155l.112-.599c.005-.035.008-.051.008-.059 0-.019-.011-.016-.021-.083l-.019-.12a1 1 0 0 0-.056-.194c-.173-.413-.594-.791-1.079-1.095.799.146 1.503-.051 1.929-.56l.325-.472.231-.381.146-.231.211-.386a1 1 0 0 0 .051-.112s.136-.352.146-.371l.264.104c4.134 1.963 7.951 15.922 8.343 20.312v.011c0 .749.429 1.457 1.092 1.729l.871.059c.184.013.115-.014.27-.115l.33-.216 1.188-1.044 3.303-3.037c.815-.578 1.002-1.425 1.101-1.88a1.4 1.4 0 0 0 .002-.477l-.011-.029a.6.6 0 0 0-.034-.109c-.501-1.279-1.073-2.659-1.83-4.084-.376-.746-.56-1.462-.56-2.176 0-.826.234-1.59.506-2.477.288-.943.584-1.913.677-3.114.003-.016.003-.04.003-.061a1 1 0 0 0-.021-.235c-.106-.484-.41-.991-.786-1.436.08.08.115.163.208.242l.136.12.89.554c.131.042.669.187 1.119.059l.011-.005q-.004 0-.008.005a.9.9 0 0 0 .301-.155c.109-.075.213-.16.319-.242.203.029.464.128.746.607 1.79 2.877 3.266 6.19 4.393 9.859.182.884.27 1.54.27 2.048 0 .695-.171.961-.302 1.103l-.298.259c-.592.527-1.198 1.068-1.71 1.364-.2.117-.397.335-.456.559l-.013.064-.109.728.346 1.023c.336.405.851.586 1.524.538.173-.011.421-.109.557-.216.572-.458 1.343-.821 2.354-1.114 1.905-.341 3.564-.309 5.062-.218 1.1.168 2.464.405 3.777.999l.109.04c.802.234 1.574.029 2.017-.533l.322-.935-.245-.876c-.041-.136-.047-.091-.147-.194"/><path fill="url(#a)" d="M41.354 39.866c-4.075 4.278-9.747 6.724-15.61 6.724-5.74 0-11.129-2.232-15.213-6.3-.021.002-.048.002-.069.005-.208-.003-.41-.005-.586-.035l.019.021a14 14 0 0 0-1.686-.106q-.724.002-1.38.088c4.608 5.69 11.598 9.054 18.915 9.054 7.558 0 14.688-3.545 19.292-9.539a28 28 0 0 0-1.444-.045 18 18 0 0 0-2.238.133M9.571 21.89c-1.079 3.386-2.317 6.798-3.935 10.845l-.325.527c-1.049 1.7-2.136 3.46-4.275 4.433a.7.7 0 0 0-.128.106 1.2 1.2 0 0 0-.226.703c0 .256.077.506.224.695a.82.82 0 0 0 .649.341c.102 0 .197-.019.379-.102 1.673-1.292 3.708-1.926 6.225-1.926.646 0 1.335.045 2.129.133.407-.038.698-.389.746-.994 0-.557-.277-.986-.73-1.1-.511-.045-.831-.232-1.041-.607l-.073-.126-.016-.149-.106-1.284c0-2.672 1.126-5.914 3.5-10l.085-.458v-.005l-.029-.144c-.096-.234-.395-.52-.813-.783l-.532-.335-.563-.117-.165-.038c-.069-.019-.131-.037-.245-.042-.42-.002-.618.193-.735.427m-.466-9.912c0 .091.062.163.282.192 1.95.267 2.746.975 2.746 2.467l-.04.432c-.54 2.067-1.118 3.194-1.667 4.102a.6.6 0 0 0-.048.168c0 .389.521.765.836.951l.597.365.49.091q.198.038.378.037c.272 0 .65-.062.863-.314l.301-.429.24-.392.122-.2.227-.424.155-.386.264-.618.62.253.299.123c4.544 2.158 8.354 16.657 8.731 20.938 0 .45.24.874.592 1.06l.594.038.245-.155 1.18-1.031 3.365-3.093c.609-.432.745-1.082.831-1.465l-.011-.224c-.49-1.249-1.05-2.597-1.807-4.025-.426-.847-.631-1.66-.631-2.485 0-.921.258-1.766.532-2.677.277-.906.565-1.838.65-3.061-.069-.291-.245-.629-.512-.98l-.069-.096a1 1 0 0 1-.093-.12l-.125-.167-.017.013c-.367-.381-.77-.65-1.073-.722a1 1 0 0 0-.221-.027c-.232 0-.424.091-.61.346-.162.461-.33.834-.517 1.143l-.637 1.004-.578-1.025c-.349-.615-1.657-2.89-1.66-2.896-2.82-4.987-4.76-8.252-5.99-8.255a25 25 0 0 1-2.931.173c-1.417 0-2.818-.125-4.44-.272-.627.069-1.463 1.089-1.463 1.643m20.11-1.593-.051.328c.003.267.117.49.322.626l.78.522-.059-.016c.202.114.564.365 1.346.892l.162.109.063.083c.512.645.741 1.228.741 1.883v.221l-.109.17-.248.375c-.549.858-1.118 1.745-1.809 2.443l-.231.256c-.149.154-.314.33-.37.682 0 .272.157.6.487.991l-.054.05.059.054c.128.059.234.16.304.277l.046.042.034.043.799.498c.099.026.264.056.435.056a.74.74 0 0 0 .322-.074c.072-.054.146-.115.224-.173l.299-.234.293.046c.503.074.902.381 1.22.921 1.822 2.928 3.324 6.297 4.483 10.085.194.961.282 1.635.282 2.182 0 .716-.154 1.217-.541 1.617l-.287.253c-.672.602-1.276 1.129-1.817 1.441a.5.5 0 0 0-.144.152l-.005-.021c-.017.133-.038.317-.08.573l.247.728c.104.096.31.221.715.221l.167-.008a.5.5 0 0 0 .176-.066c.646-.514 1.489-.917 2.661-1.25a19 19 0 0 1 3.396-.293c.637 0 1.241.024 1.887.069 1.271.192 2.632.456 3.979 1.058.151.045.307.069.45.069.314 0 .583-.106.775-.301l.202-.602-.151-.563-.019-.016c-.583-.615-1.23-1.079-1.915-1.574-1.095-.791-2.134-1.537-2.613-2.954-1.556-6.18-4.561-12.784-6.854-16.905l-.048-.08-.021-.096c-.2-.855-.262-1.724-.32-2.701l-.019-.314a16 16 0 0 1-.04-.666l.019-.397c0-.805-.287-1.026-.381-1.098a.87.87 0 0 0-.554-.173c-.309 0-.604.109-.751.166a2.6 2.6 0 0 1-.882.141c-.341 0-.703-.051-1.002-.102-.059 0-.061 0-3.241-.367l-1.83-.16c-.482-.001-.818.506-.929.881M1.423 24.997c0 2.573.405 5.104 1.207 7.546.133-.216.279-.448.429-.692l.202-.301c.424-1.065.818-2.081 1.19-3.077a22 22 0 0 1-.298-3.476c0-3.9 1.065-7.72 3.085-11.076-.504-.528-.789-1.244-.789-2.073 0-1.843 1.929-3.937 3.887-4.155l.552-.003c.642.062 1.225.115 1.782.16 3.804-2.906 8.318-4.44 13.073-4.44 4.354 0 8.551 1.303 12.163 3.775.991.01 1.697.391 2.112.706.482.373 1.093 1.05 1.321 2.214 3.865 4.043 5.994 9.323 5.994 14.894 0 .612-.029 1.244-.094 1.926a56 56 0 0 1 1.367 4.542c.069.202.187.389.402.607a24.3 24.3 0 0 0 1.055-7.075c0-13.41-10.908-24.318-24.321-24.318C12.331.678 1.423 11.586 1.423 24.997" style="fill:url(#a)"/><radialGradient id="a" cx="-694.092" cy="670.559" r="1.364" gradientTransform="matrix(18.0986 0 0 -18.0986 12587.824 12161.172)" gradientUnits="userSpaceOnUse"><stop offset="0" style="stop-color:#bf99c3"/><stop offset=".7" style="stop-color:#7b5190"/><stop offset="1" style="stop-color:#612c75"/></radialGradient></svg>