<?xml version="1.0" encoding="UTF-8" standalone="no"?>
<svg
   version="1.1"
   id="svg4136"
   x="0px"
   y="0px"
   width="257.133"
   height="305.97"
   viewBox="21.934 -5.174 257.133 305.97001"
   enable-background="new 21.934 -5.174 257.133 304.869"
   xmlns="http://www.w3.org/2000/svg"
   xmlns:svg="http://www.w3.org/2000/svg">
  <defs
     id="defs8" />
  <g
     id="g2"
     transform="translate(0,1.1)">
    <path
       d="m 148.729,293.389 c -0.224,-0.044 -5.524,-1.079 -9.432,-2.234 -30.347,-8.98 -60.902,-26.244 -86.036,-48.611 L 45,235.193 44.993,129.168 32.55,108.5 h 235.901 l -12.445,20.667 -0.006,106.184 -8.482,7.493 c -23.223,20.516 -51.057,36.78 -78.376,45.797 -10.343,3.415 -17.947,4.721 -18.266,4.774 l -1.076,0.182 z"
       id="path1" />
    <path
       fill="#808080"
       d="m 257.834,114.5 -3.914,6.5 -3.914,6.5 -0.003,52.572 -0.003,52.573 -6.455,5.702 c -22.586,19.954 -49.768,35.845 -76.284,44.597 -10.03,3.312 -17.386,4.556 -17.386,4.556 0,0 -5.198,-1.011 -8.875,-2.099 -29.658,-8.776 -59.145,-25.444 -83.75,-47.34 L 51,232.5 50.998,180 50.995,127.5 47.08,121 43.166,114.5 h 214.668 m 21.233,-12 H 257.834 43.167 21.934 l 10.952,18.19 3.914,6.5 2.194,3.645 0.003,49.167 0.003,52.5 v 5.385 l 4.023,3.579 6.25,5.561 c 25.779,22.941 57.146,40.656 88.321,49.882 4.11,1.216 9.4,2.257 9.99,2.371 l 2.141,0.416 2.15,-0.363 c 0.337,-0.057 8.377,-1.437 19.146,-4.992 28.073,-9.266 56.65,-25.957 80.468,-46.999 l 6.454,-5.702 4.056,-3.582 v -5.41 l 0.003,-52.572 0.003,-49.239 2.194,-3.644 3.914,-6.5 z"
       id="path2" />
  </g>
  <g
     id="g4"
     transform="translate(0,1.1)">
    <path
       d="m 150.05,257.163 c -3.223,-1.02 -14.766,-4.753 -21.102,-7.883 -12.605,-6.229 -28.982,-18.162 -37.282,-27.168 l -3.167,-3.435 V 171.62 l -6.857,-16.553 c -2.045,-4.938 -3.946,-9.93 -5.246,-13.415 H 225.14 c -1.379,3.348 -3.329,8.076 -5.374,13.006 l -7.267,17.52 v 47.098 l -7.402,7.007 c -13.656,12.926 -28.995,22.448 -45.592,28.302 -3.502,1.235 -7.686,2.196 -9.455,2.578 z"
       id="path3" />
    <path
       fill="#808080"
       d="m 219.912,145.153 c -1.034,2.504 -2.192,5.306 -3.378,8.165 l -7,16.876 -0.534,1.287 v 1.395 23.953 20.94 l -6.308,5.972 c -13.298,12.587 -28.22,21.854 -44.352,27.543 -2.827,0.998 -6.158,1.813 -8.126,2.259 -4.014,-1.286 -14.076,-4.614 -19.715,-7.4 -12.279,-6.067 -28.206,-17.665 -36.26,-26.403 L 92,217.311 v -21.129 -23.864 -1.393 l -0.533,-1.286 -6.591,-15.909 c -1.222,-2.949 -2.393,-5.922 -3.413,-8.576 h 138.449 m 10.452,-7.001 c 0,0 -146.998,0 -159,0 0.284,0.688 3.42,9.506 7.044,18.255 L 85,172.317 v 23.864 23.863 l 4.093,4.439 c 8.606,9.337 25.286,21.5 38.306,27.934 7.72,3.814 22.477,8.358 22.477,8.358 0,0 5.939,-1.178 10.795,-2.891 16.986,-5.991 32.882,-15.854 46.834,-29.061 l 8.496,-8.043 V 196.827 172.874 L 223,156 c 3.85,-9.282 7.364,-17.847 7.364,-17.847 z"
       id="path4" />
  </g>
  <g
     id="g6"
     transform="translate(0,1.1)">
    <path
       d="m 149.083,251.305 c -0.196,-0.035 -4.851,-0.878 -8.821,-2.539 -14.52,-6.076 -27.498,-14.29 -38.573,-24.413 L 94.5,217.783 V 172.106 L 84.319,146.84 h 132.41 L 206.5,172.688 v 44.941 l -7.154,6.782 c -10.46,9.914 -24.616,18.943 -37.869,24.153 -4.46,1.753 -10.656,2.717 -10.918,2.758 l -0.739,0.113 z"
       id="path5" />
    <path
       fill="#808080"
       d="M 210.109,151.34 202,171.83 v 43.865 l -5.75,5.451 c -10.104,9.577 -23.621,18.199 -36.42,23.23 -4.044,1.59 -9.955,2.498 -9.955,2.498 0,0 -4.317,-0.771 -7.875,-2.261 -14.123,-5.91 -26.52,-13.753 -37.275,-23.583 L 99,215.799 V 171.233 L 90.984,151.34 h 119.125 m 13.242,-9 H 210.11 90.984 77.654 l 4.982,12.363 7.364,18.275 v 42.821 3.967 l 2.928,2.677 5.725,5.232 c 11.458,10.473 24.874,18.965 39.873,25.242 4.347,1.819 9.224,2.721 9.766,2.817 l 1.472,0.264 1.479,-0.228 c 0.706,-0.108 7.042,-1.115 11.881,-3.018 13.968,-5.491 28.299,-14.63 39.318,-25.074 l 5.751,-5.452 2.808,-2.662 v -3.869 -42.149 l 7.478,-18.895 z"
       id="path6" />
  </g>
  <g
     id="g8"
     transform="translate(0,1.1)">
    <path
       d="m 63.277,108 -3.02,-7.226 C 57.483,94.133 53.599,78.349 52.837,70.613 l -1.727,-17.52 14.521,7.071 c 5.749,2.8 19.529,6.707 30.091,8.531 3.15,0.544 5.984,0.809 8.666,0.809 5.262,0 9.991,-1.043 14.883,-3.283 8.288,-3.794 14.104,-11.53 14.104,-14.277 -0.036,-0.691 -1.328,-3.152 -4.308,-5.085 l -9.348,-6.06 30.156,-37.499 30.155,37.499 -9.348,6.061 c -2.979,1.933 -4.271,4.394 -4.308,5.095 0,2.737 5.816,10.473 14.104,14.267 4.892,2.24 9.621,3.283 14.884,3.283 2.681,0 5.516,-0.265 8.665,-0.809 10.562,-1.824 24.341,-5.731 30.091,-8.531 l 14.521,-7.071 -1.727,17.52 c -0.762,7.734 -4.646,23.519 -7.42,30.16 l -3.02,7.226 z"
       id="path7" />
    <path
       fill="#808080"
       d="m 149.875,12.875 21.314,26.505 -3.771,2.445 c -4.165,2.701 -7.043,6.835 -7.043,10.119 0,6.165 8.307,15.476 17.606,19.733 5.629,2.577 11.184,3.827 17.381,3.827 3.045,0 6.245,-0.302 9.687,-0.896 11.217,-1.938 25.42,-5.993 31.696,-9.049 l 4.87,-2.372 -0.674,6.838 c -0.703,7.133 -4.439,22.341 -6.985,28.436 L 232.477,102 H 149.875 67.273 L 65.794,98.461 C 63.248,92.366 59.512,77.158 58.809,70.025 l -0.674,-6.838 4.87,2.372 c 6.276,3.057 20.479,7.112 31.696,9.049 3.44,0.594 6.642,0.896 9.687,0.896 6.197,0 11.751,-1.25 17.38,-3.827 9.299,-4.257 17.606,-13.568 17.606,-19.733 0,-3.284 -2.878,-7.418 -7.043,-10.119 l -3.772,-2.445 21.316,-26.505 m 0,-19.149 -9.352,11.629 -21.315,26.505 -8.33,10.358 11.154,7.231 3.772,2.445 c 0.334,0.216 0.627,0.445 0.876,0.665 -1.63,2.413 -5.424,6.154 -9.907,8.207 -4.136,1.893 -7.956,2.738 -12.385,2.738 -2.335,0 -4.835,-0.236 -7.644,-0.721 C 85.756,60.885 72.913,57.036 68.259,54.77 l -4.871,-2.372 -19.301,-9.399 2.105,21.365 0.674,6.838 c 0.821,8.323 4.858,24.712 7.855,31.885 l 1.479,3.54 3.082,7.373 h 7.991 82.602 82.602 7.99 l 3.081,-7.372 1.479,-3.539 c 2.998,-7.178 7.036,-23.567 7.856,-31.887 l 0.674,-6.838 2.105,-21.365 -19.302,9.399 -4.87,2.371 c -4.655,2.268 -17.498,6.116 -28.485,8.014 -2.809,0.485 -5.309,0.721 -7.644,0.721 -4.43,0 -8.25,-0.845 -12.386,-2.738 -4.483,-2.053 -8.277,-5.794 -9.907,-8.207 0.25,-0.221 0.543,-0.449 0.878,-0.667 l 3.771,-2.444 11.152,-7.231 L 180.54,31.859 159.227,5.354 Z"
       id="path8" />
  </g>
</svg>
