<?xml version="1.0" encoding="UTF-8" standalone="no"?>
<svg
   version="1.1"
   x="0px"
   y="0px"
   width="257.13"
   height="305.97"
   viewBox="299.067 -5.174 257.13 305.97001"
   id="svg8"
   xmlns="http://www.w3.org/2000/svg"
   xmlns:svg="http://www.w3.org/2000/svg">
  <defs
     id="defs8" />
  <g
     id="g5"
     transform="translate(-0.003,1.1)">
    <linearGradient
       id="SVGID_1_"
       gradientUnits="userSpaceOnUse"
       x1="311.52051"
       y1="105.3193"
       x2="534.03491"
       y2="233.7881">
      <stop
         offset="0.1"
         style="stop-color:#8b723c"
         id="stop8" />
      <stop
         offset="0.5"
         style="stop-color:#ebd491"
         id="stop10" />
      <stop
         offset="0.9"
         style="stop-color:#8b723c"
         id="stop12" />
    </linearGradient>
    <path
       fill="url(#SVGID_1_)"
       d="m 425.862,293.389 c -0.224,-0.044 -5.523,-1.079 -9.432,-2.234 -30.347,-8.98 -60.901,-26.244 -86.035,-48.611 l -8.261,-7.351 -0.008,-106.025 -12.441,-20.668 h 235.899 l -12.445,20.667 -0.006,106.184 -8.482,7.493 c -23.222,20.516 -51.057,36.78 -78.375,45.797 -10.344,3.415 -17.948,4.721 -18.267,4.774 l -1.076,0.182 z"
       id="path1"
       style="fill:url(#SVGID_1_)" />
    <path
       d="m 534.967,114.5 -3.914,6.5 -3.914,6.5 -0.002,52.572 -0.004,52.572 -6.455,5.702 c -22.586,19.954 -49.768,35.845 -76.283,44.597 -10.031,3.312 -17.387,4.556 -17.387,4.556 0,0 -5.197,-1.011 -8.875,-2.099 -29.657,-8.776 -59.145,-25.444 -83.749,-47.34 l -6.249,-5.561 -0.004,-52.5 -0.004,-52.5 -3.914,-6.5 -3.913,-6.5 H 534.967 M 556.2,102.5 H 534.967 320.3 299.07 l 10.95,18.189 3.912,6.5 2.195,3.646 0.004,49.167 0.004,52.5 v 5.385 l 4.023,3.579 6.248,5.561 c 25.78,22.941 57.146,40.656 88.321,49.882 4.11,1.216 9.399,2.257 9.989,2.371 l 2.142,0.416 2.15,-0.363 c 0.337,-0.057 8.376,-1.437 19.147,-4.992 28.072,-9.267 56.649,-25.957 80.467,-46.999 l 6.454,-5.702 4.056,-3.582 v -5.41 l 0.004,-52.572 0.002,-49.239 2.194,-3.644 3.914,-6.5 z"
       id="path2" />
  </g>
  <g
     id="g4"
     transform="translate(-0.003,1.1)">
    <linearGradient
       id="SVGID_2_"
       gradientUnits="userSpaceOnUse"
       x1="353.5303"
       y1="199.4082"
       x2="502.27441"
       y2="199.4082">
      <stop
         offset="0.2"
         style="stop-color:#8b723c"
         id="stop21" />
      <stop
         offset="0.5"
         style="stop-color:#ebd491"
         id="stop23" />
      <stop
         offset="0.8"
         style="stop-color:#8b723c"
         id="stop25" />
    </linearGradient>
    <path
       fill="url(#SVGID_2_)"
       d="M 427.184,257.163 C 423.96,256.143 412.418,252.41 406.082,249.28 393.476,243.051 377.1,231.117 368.8,222.112 l -3.167,-3.435 V 171.62 l -6.856,-16.553 c -2.046,-4.938 -3.946,-9.93 -5.246,-13.415 h 148.744 c -1.379,3.348 -3.33,8.075 -5.375,13.006 l -7.267,17.52 v 47.098 l -7.402,7.007 c -13.654,12.926 -28.994,22.447 -45.592,28.302 -3.503,1.235 -7.687,2.196 -9.455,2.578 z"
       id="path3"
       style="fill:url(#SVGID_2_)" />
    <path
       d="m 497.045,145.153 c -1.034,2.504 -2.192,5.306 -3.378,8.165 l -7,16.876 -0.534,1.287 v 1.395 23.953 20.94 l -6.309,5.972 c -13.296,12.586 -28.218,21.854 -44.351,27.543 -2.827,0.998 -6.158,1.813 -8.126,2.259 -4.014,-1.286 -14.075,-4.614 -19.715,-7.4 -12.279,-6.068 -28.206,-17.665 -36.26,-26.403 l -2.24,-2.429 v -21.129 -23.864 -1.393 l -0.533,-1.286 -6.59,-15.91 c -1.222,-2.949 -2.393,-5.921 -3.413,-8.575 h 138.449 m 10.453,-7.001 c 0,0 -146.998,0 -159,0 0.284,0.688 3.42,9.506 7.045,18.255 l 6.59,15.909 v 23.864 23.863 l 4.094,4.439 c 8.605,9.337 25.285,21.5 38.305,27.934 7.721,3.814 22.477,8.358 22.477,8.358 0,0 5.939,-1.178 10.795,-2.891 16.986,-5.991 32.883,-15.854 46.834,-29.061 l 8.496,-8.043 v -23.953 -23.953 l 7,-16.876 c 3.848,-9.28 7.364,-17.845 7.364,-17.845 z"
       id="path4" />
  </g>
  <g
     id="g6"
     transform="translate(-0.003,1.1)">
    <linearGradient
       id="SVGID_3_"
       gradientUnits="userSpaceOnUse"
       x1="362.64261"
       y1="144.7769"
       x2="484.93149"
       y2="215.3804">
      <stop
         offset="0.1"
         style="stop-color:#8b723c"
         id="stop34" />
      <stop
         offset="0.5"
         style="stop-color:#ebd491"
         id="stop36" />
      <stop
         offset="0.9"
         style="stop-color:#8b723c"
         id="stop38" />
    </linearGradient>
    <path
       fill="url(#SVGID_3_)"
       d="m 426.216,251.305 c -0.196,-0.035 -4.85,-0.878 -8.82,-2.539 -14.521,-6.076 -27.498,-14.29 -38.573,-24.413 l -7.189,-6.57 V 172.106 L 361.453,146.84 h 132.41 l -10.229,25.849 v 44.941 l -7.154,6.782 c -10.458,9.913 -24.614,18.942 -37.869,24.153 -4.459,1.753 -10.656,2.717 -10.918,2.758 l -0.739,0.113 z"
       id="path5"
       style="fill:url(#SVGID_3_)" />
    <path
       d="m 487.242,151.34 -8.109,20.49 v 43.865 l -5.75,5.451 c -10.104,9.577 -23.621,18.199 -36.42,23.23 -4.043,1.59 -9.955,2.498 -9.955,2.498 0,0 -4.316,-0.771 -7.875,-2.261 -14.123,-5.91 -26.52,-13.753 -37.274,-23.583 l -5.726,-5.232 v -44.566 l -8.016,-19.893 h 119.125 m 13.241,-8.999 h -13.241 -119.125 -13.33 l 4.982,12.363 7.363,18.274 v 42.821 3.968 l 2.929,2.676 5.726,5.232 c 11.457,10.473 24.872,18.965 39.871,25.242 4.348,1.819 9.225,2.721 9.766,2.817 l 1.473,0.264 1.478,-0.228 c 0.707,-0.108 7.045,-1.115 11.883,-3.018 13.969,-5.491 28.3,-14.631 39.317,-25.074 l 5.751,-5.452 2.808,-2.662 v -3.869 -42.149 l 7.478,-18.895 z"
       id="path6" />
  </g>
  <g
     id="g8"
     transform="translate(-0.003,1.1)">
    <linearGradient
       id="SVGID_4_"
       gradientUnits="userSpaceOnUse"
       x1="328.24411"
       y1="55.650398"
       x2="525.77148"
       y2="55.650398">
      <stop
         offset="0.1"
         style="stop-color:#8b723c"
         id="stop47" />
      <stop
         offset="0.5"
         style="stop-color:#ebd491"
         id="stop49" />
      <stop
         offset="0.9"
         style="stop-color:#8b723c"
         id="stop51" />
    </linearGradient>
    <path
       fill="url(#SVGID_4_)"
       d="m 340.41,108 -3.019,-7.226 c -2.774,-6.64 -6.659,-22.425 -7.421,-30.161 l -1.727,-17.519 14.521,7.07 c 5.75,2.8 19.529,6.707 30.091,8.531 3.15,0.544 5.984,0.809 8.666,0.809 5.262,0 9.991,-1.043 14.884,-3.283 8.287,-3.794 14.103,-11.53 14.103,-14.277 -0.036,-0.691 -1.327,-3.152 -4.308,-5.085 l -9.348,-6.061 30.156,-37.498 30.155,37.499 -9.348,6.061 c -2.979,1.933 -4.271,4.395 -4.308,5.095 0,2.737 5.816,10.473 14.104,14.267 4.892,2.24 9.62,3.283 14.883,3.283 2.682,0 5.516,-0.265 8.665,-0.809 10.561,-1.824 24.341,-5.731 30.092,-8.531 l 14.52,-7.072 -1.727,17.521 c -0.762,7.732 -4.645,23.517 -7.418,30.16 L 513.604,108 Z"
       id="path7"
       style="fill:url(#SVGID_4_)" />
    <path
       d="m 427.008,12.875 21.314,26.505 -3.771,2.445 c -4.164,2.701 -7.043,6.835 -7.043,10.119 0,6.165 8.307,15.476 17.607,19.733 5.628,2.577 11.184,3.827 17.38,3.827 3.046,0 6.246,-0.302 9.687,-0.896 11.217,-1.938 25.42,-5.993 31.697,-9.049 l 4.869,-2.372 -0.674,6.838 c -0.703,7.133 -4.439,22.341 -6.984,28.436 L 509.61,102 h -82.602 -82.602 l -1.479,-3.539 c -2.547,-6.095 -6.283,-21.303 -6.986,-28.436 l -0.674,-6.838 4.871,2.372 c 6.275,3.057 20.479,7.112 31.695,9.049 3.44,0.594 6.643,0.896 9.688,0.896 6.197,0 11.751,-1.25 17.381,-3.827 9.299,-4.257 17.605,-13.568 17.605,-19.733 0,-3.284 -2.877,-7.418 -7.043,-10.119 l -3.771,-2.445 21.315,-26.505 m 0,-19.149 -9.352,11.629 -21.314,26.505 -8.329,10.358 11.152,7.231 3.771,2.445 c 0.334,0.217 0.628,0.445 0.877,0.666 -1.63,2.413 -5.423,6.154 -9.906,8.207 -4.136,1.893 -7.956,2.738 -12.386,2.738 -2.335,0 -4.836,-0.236 -7.645,-0.721 -10.988,-1.898 -23.83,-5.746 -28.483,-8.013 l -4.873,-2.373 -19.301,-9.397 2.105,21.363 0.674,6.838 c 0.82,8.323 4.859,24.713 7.856,31.886 l 1.479,3.538 3.08,7.374 h 7.992 82.602 82.602 7.988 l 3.082,-7.369 1.48,-3.539 c 3,-7.183 7.036,-23.571 7.856,-31.89 l 0.674,-6.838 2.105,-21.367 -19.303,9.401 -4.869,2.372 c -4.654,2.267 -17.498,6.115 -28.485,8.013 -2.809,0.485 -5.309,0.721 -7.644,0.721 -4.43,0 -8.249,-0.844 -12.384,-2.738 -4.484,-2.053 -8.279,-5.794 -9.909,-8.207 0.25,-0.221 0.544,-0.45 0.879,-0.667 l 3.77,-2.444 11.152,-7.231 -8.329,-10.358 -21.313,-26.505 z"
       id="path8" />
  </g>
</svg>
