<?xml version="1.0" encoding="UTF-8" standalone="no"?>
<svg
   version="1.1"
   id="svg4136"
   x="0px"
   y="0px"
   width="214.66797"
   height="274.625"
   xmlns="http://www.w3.org/2000/svg"
   xmlns:svg="http://www.w3.org/2000/svg">
  <defs
     id="defs1" />
  <path
     d="m 106.70899,0 -21.316412,26.505859 3.77148,2.445312 c 4.165,2.701 7.04297,6.835141 7.04297,10.119141 0,6.165 -8.30647,15.475422 -17.605466,19.732422 -5.629,2.577 -11.183859,3.826172 -17.380859,3.826172 -3.045,0 -6.245547,-0.300532 -9.685547,-0.894532 -11.217,-1.936999 -25.421266,-5.993781 -31.697266,-9.050781 l -4.86914,-2.371093 0.673828,6.83789 c 0.703,7.133 4.438375,22.340542 6.984375,28.435552 l 1.480469,3.53906 h 82.601568 82.60156 l 1.47851,-3.53906 c 2.546,-6.09501 6.28333,-21.302552 6.98633,-28.435552 l 0.67383,-6.83789 -4.87109,2.371093 c -6.276,3.056 -20.47832,7.112781 -31.69532,9.050781 -3.442,0.594 -6.6425,0.894532 -9.6875,0.894532 -6.197,0 -11.75186,-1.249172 -17.38085,-3.826172 -9.299,-4.257 -17.60547,-13.567422 -17.60547,-19.732422 0,-3.284 2.87796,-7.418141 7.04297,-10.119141 l 3.77148,-2.445312 z M 0,101.625 l 3.914062,6.5 3.914063,6.5 0.0039,52.5 0.002,52.5 6.25,5.5625 c 24.605,21.896 54.091996,38.56384 83.750004,47.33984 3.677001,1.088 8.875001,2.09766 8.875001,2.09766 0,0 7.35476,-1.24269 17.38476,-4.55469 26.516,-8.752 53.69916,-24.64366 76.28516,-44.59766 l 6.45508,-5.70117 0.002,-52.57422 0.004,-52.57226 3.91406,-6.5 3.91406,-6.5 z m 28.197266,23.65234 H 187.19727 c 0,0 -3.51328,8.56566 -7.36328,17.84766 l -7,16.875 v 23.95312 23.95117 l -8.4961,8.04297 c -13.952,13.207 -29.84798,23.0715 -46.83398,29.0625 -4.856,1.713 -10.79492,2.89063 -10.79492,2.89063 0,0 -14.756572,-4.54342 -22.476572,-8.35742 -13.019982,-6.434 -29.700637,-18.59855 -38.306637,-27.93555 l -4.091797,-4.4375 V 183.30664 159.4414 l -6.591797,-15.9082 c -3.624,-8.749 -6.760923,-17.56786 -7.044921,-18.25586 z m 19.621093,13.1875 8.015625,19.89258 v 44.56641 l 5.72461,5.23046 c 10.755,9.83001 23.152394,17.67399 37.275394,23.58399 3.558002,1.49 7.875002,2.26172 7.875002,2.26172 0,0 5.91107,-0.90805 9.95507,-2.49805 12.799,-5.031 26.31593,-13.65347 36.41993,-23.23047 l 5.75,-5.45117 v -43.86523 l 8.10937,-20.49024 z"
     id="path1" />
</svg>
