<svg xmlns="http://www.w3.org/2000/svg" xmlns:xlink="http://www.w3.org/1999/xlink" id="Layer_2" width="1074.41" height="1023.09" data-name="Layer 2" version="1.1"><defs id="defs25"><linearGradient id="linear-gradient" x1="-421.96" x2="-420.96" y1="1047.97" y2="1047.97" gradientTransform="matrix(678.50665 -196.8676 -313.41542 -1080.1902 614731.91 1049589.1)" gradientUnits="userSpaceOnUse"><stop id="stop11" offset="0" stop-color="#8d742f"/><stop id="stop12" offset=".07" stop-color="#967d38"/><stop id="stop13" offset=".18" stop-color="#ae954f"/><stop id="stop14" offset=".2" stop-color="#b39a54"/><stop id="stop15" offset=".22" stop-color="#b9a059"/><stop id="stop16" offset=".3" stop-color="#cab068"/><stop id="stop17" offset=".39" stop-color="#d4ba71"/><stop id="stop18" offset=".5" stop-color="#d7bd74"/><stop id="stop19" offset=".61" stop-color="#d4ba71"/><stop id="stop20" offset=".7" stop-color="#cab068"/><stop id="stop21" offset=".78" stop-color="#b9a059"/><stop id="stop22" offset=".8" stop-color="#b39a54"/><stop id="stop23" offset=".86" stop-color="#a38a45"/><stop id="stop24" offset=".94" stop-color="#937a35"/><stop id="stop25" offset="1" stop-color="#8d742f"/></linearGradient><linearGradient xlink:href="#linear-gradient" id="linear-gradient-2" y1="1047.97" y2="1047.97" gradientTransform="matrix(-521.27619 -196.97386 313.58874 -829.88853 -547495.02 787250.74)"/><linearGradient xlink:href="#linear-gradient" id="linear-gradient-3" y1="1047.97" y2="1047.97" gradientTransform="matrix(336.32684 -445.18811 -322.59881 -243.71414 480502.32 68057.8)"/><linearGradient xlink:href="#linear-gradient" id="linear-gradient-4" y1="1047.96" y2="1047.96" gradientTransform="matrix(-365.68278 -490.42243 355.3809 -264.98926 -526152.94 71286.41)"/><linearGradient xlink:href="#linear-gradient" id="linear-gradient-5" y1="1047.97" y2="1047.97" gradientTransform="matrix(-4.4071 515.31115 322.34821 2.75683 -339149.31 214989.45)"/><linearGradient xlink:href="#linear-gradient" id="linearGradient37" x1="-421.96" x2="-420.96" y1="1047.97" y2="1047.97" gradientTransform="matrix(678.50665 -196.8676 -313.41542 -1080.1902 614731.91 1049589.1)" gradientUnits="userSpaceOnUse"/><radialGradient id="radial-gradient" cx="-421.96" cy="1047.98" r="1" fx="-421.96" fy="1047.98" gradientTransform="scale(374.76 -374.76)rotate(-19.13 -3323.234 -733.018)" gradientUnits="userSpaceOnUse"><stop id="stop1" offset="0" stop-color="#d7bd74"/><stop id="stop2" offset=".39" stop-color="#d4ba71"/><stop id="stop3" offset=".5" stop-color="#d7bd74"/><stop id="stop4" offset=".61" stop-color="#d4ba71"/><stop id="stop5" offset=".7" stop-color="#cab068"/><stop id="stop6" offset=".78" stop-color="#b9a059"/><stop id="stop7" offset=".8" stop-color="#b39a54"/><stop id="stop8" offset=".86" stop-color="#a38a45"/><stop id="stop9" offset=".94" stop-color="#937a35"/><stop id="stop10" offset="1" stop-color="#8d742f"/></radialGradient><style id="style1">.cls-6{fill-rule:evenodd;stroke:#000;stroke-linecap:round;stroke-linejoin:round;stroke-width:1.08px}</style></defs><g id="Layer_1-2" data-name="Layer 1"><g id="M"><path id="path25" d="m273.78 817.75 50.75-292.58-212.47-206.99 293.57-43.29L537 7.68l131.86 266.7 294.07 43.29-212.47 206.99 50.26 292.08L538 679.41 273.78 817.74Z" class="cls-6"/><g id="Ebene1"><path id="path26" d="m309.97 857.1 227.02 165.45L764.01 857.1 536.99 737.06Z" class="cls-6"/><g id="Ebene11"><path id="path27" d="m.54 632.14 86.62-267.18 183.75 178.65-43.63 253.49Z" class="cls-6"/><path id="path28" d="m.54 632.14 86.62-267.18 183.75 178.65-43.63 253.49Z" class="cls-6"/></g><path id="path29" d="m1073.87 632.95-86.62-267.18L803.5 544.42l43.63 253.49Z" class="cls-6"/><path id="path30" d="M702.78 230.67 588.96 1.16 870.09.54l86.46 265.58Z" class="cls-6"/><path id="path31" d="M372.51 231.29 486.33 1.78 205.2 1.16l-86.46 265.58Z" class="cls-6"/></g><g id="Ebene2"><path id="path32" d="m177.3 338.87 248.17-36.07L536.8 77.02l111.96 225.16 248.79 36.7-179.13 175.4 42.29 248.17-222.67-116.93-223.29 115.69 41.67-246.92-179.13-175.4Z" style="fill-rule:evenodd;stroke:#000;stroke-linecap:round;stroke-linejoin:round;stroke-width:1.08px;fill:url(#radial-gradient)"/><path id="path33" d="m206.12 742.98 32.96-187.84-137.46-134.97-65.31 200.28 169.8 122.53Z" style="fill-rule:evenodd;stroke:#000;stroke-linecap:round;stroke-linejoin:round;stroke-width:1.08px;fill:url(#linearGradient37)"/><path id="path34" d="m868.63 745.41-32.96-187.84L973.13 422.6l65.31 200.28-169.8 122.53z" style="fill-rule:evenodd;stroke:#000;stroke-linecap:round;stroke-linejoin:round;stroke-width:1.08px;fill:url(#linear-gradient-2)"/><path id="path35" d="M912.71 231.18 847.53 32.15H638.05l84.59 171.17 190.08 27.86z" style="fill-rule:evenodd;stroke:#000;stroke-linecap:round;stroke-linejoin:round;stroke-width:1.08px;fill:url(#linear-gradient-3)"/><path id="path36" d="m162.08 230.96 65.18-199.03h209.48L352.15 203.1l-190.08 27.86Z" style="fill-rule:evenodd;stroke:#000;stroke-linecap:round;stroke-linejoin:round;stroke-width:1.08px;fill:url(#linear-gradient-4)"/><path id="path37" d="m367.17 860.65 169.68-88.57 169.18 88.57-168.68 123.4-170.17-123.4Z" style="fill-rule:evenodd;stroke:#000;stroke-linecap:round;stroke-linejoin:round;stroke-width:1.08px;fill:url(#linear-gradient-5)"/></g></g></g></svg>