<svg xmlns="http://www.w3.org/2000/svg" width="1013.507" height="1023.995" viewBox="0 0 1013.507 1023.995"><path d="M897.117 173.725A508 508 0 0 0 606.777 0l-52.255 22.635 25.237 40.292a127.41 127.41 0 0 1 54.077 104.018 126.39 126.39 0 0 1-37.219 89.883 126.18 126.18 0 0 1-89.884 37.22 126.39 126.39 0 0 1-89.884-37.22 126.18 126.18 0 0 1-37.219-89.883c0-41.296 20.218-80.175 54.098-103.998l25.236-40.312L406.69 0C293.515 22.655 190.42 84.374 116.37 173.725A507.6 507.6 0 0 0 0 496.86v.205l36.85 46.99 29.21-31.074a126.8 126.8 0 0 1 112.786-68.54 127.206 127.206 0 0 1 127.103 127.124 127 127 0 0 1-44.061 96.172l-25.667 22.185 21.345 26.342L479.55 990.401l27.182 33.594 27.203-33.594 222.006-274.157 21.323-26.343-25.646-22.164a127 127 0 0 1-44.081-96.192A127.267 127.267 0 0 1 834.64 444.44a126.8 126.8 0 0 1 112.805 68.54l29.21 31.054 36.851-46.99v-.206a507.4 507.4 0 0 0-116.39-323.114" style="fill:#fff;stroke-width:20.484"/><path d="M834.641 402.285c-93.448 0-169.464 76.037-169.464 169.485 0 46.847 19.378 91.461 53.443 123.457L506.733 956.869 294.888 695.227c34.044-32.017 53.422-76.61 53.422-123.457 0-93.469-76.016-169.485-169.464-169.485-54.119 0-104.018 25.482-135.707 67.966C54.55 271.044 193.512 100.167 385.673 48.424c-30.726 31.402-48.404 73.906-48.404 118.52 0 45.27 17.616 87.816 49.633 119.852 32.016 32.017 74.582 49.633 119.852 49.633s87.835-17.616 119.852-49.633c32.016-32.016 49.653-74.582 49.653-119.851 0-44.615-17.698-87.119-48.404-118.52 192.14 51.721 331.103 222.62 342.534 421.826-31.73-42.484-81.609-67.966-135.748-67.966"/></svg>