<svg xmlns="http://www.w3.org/2000/svg" width="927.249" height="908.445" viewBox="0 0 927.249 908.445"><path d="M791.502 353.861c-93.448 0-169.464 76.037-169.464 169.485 0 46.847 19.377 91.46 53.442 123.457L463.594 908.445 251.748 646.803c34.045-32.017 53.423-76.61 53.423-123.457 0-93.469-76.016-169.485-169.464-169.485-54.12 0-104.018 25.482-135.707 67.966C11.41 222.62 150.373 51.743 342.533 0c-30.726 31.402-48.403 73.906-48.403 118.52 0 45.27 17.616 87.815 49.632 119.852 32.017 32.017 74.583 49.633 119.852 49.633s87.836-17.616 119.852-49.633c32.017-32.016 49.653-74.582 49.653-119.852 0-44.614-17.698-87.118-48.403-118.52 192.14 51.722 331.103 222.62 342.533 421.827-31.73-42.484-81.608-67.966-135.747-67.966"/></svg>