<svg xmlns="http://www.w3.org/2000/svg" width="215.559" height="187.316" viewBox="0 0 215.559 187.316"><path d="M151.768 175.32c-39.671-.317-120.11.157-120.36-.24C15.277 174.316.879 159.738 0 143.67V44.89c.888-16.089 15.247-30.662 31.409-31.409.249-.397 80.69.133 120.36-.24 0 0-7.153 7.42-7.673 7.673l-109.57.24c-13.06-.41-25.71 10.712-26.854 23.736-.075.86.053 1.771 0 2.637v93.507c.026.861-.073 1.798 0 2.637 1.083 12.334 12.564 22.954 24.804 23.748l111.033-.024c.303.015.188.01.458.02.353.013 7.801 7.905 7.801 7.905M97.282 52.263c2.711 7.383 3.844 15.528 4.868 23.303l3.105-.226V33.62H67.373l.023 2.135c1.818.287 3.812.9 4.544 2.769.537 36.484.066 73.068.236 109.59-.222 2.568-1.799 4.994-4.54 5.17l-.024 2.374H89.67l-.027-2.131c-2.85-.487-4.022-3.223-4.528-5.78l-.01-52.88.25-.587c2.915.162 4.42 3.443 5.278 5.87 1.68 4.752 2.137 10.214 2.393 15.23l3.118-.241V64.55h-3.118c-.117 4.549-.44 9.684-2.281 13.902-.9 2.06-2.932 4.809-5.39 4.8V41.054c6.868-.883 9.957 5.845 11.927 11.21M51.013 51.06c3.067 7.698 4.248 16.33 5.343 24.507l3.105-.226V33.62H21.578l.024 2.135c2.017.298 3.786.945 4.588 2.964l.192 109.395c-.222 2.568-1.799 4.994-4.54 5.17l-.024 2.374h22.058l-.027-2.131c-2.85-.487-4.022-3.223-4.528-5.78l-.01-52.88.25-.587c2.754.155 4.177 3.148 5.039 5.39 1.886 4.904 2.305 10.498 2.632 15.71l3.118-.241V64.55h-3.118c-.176 4.318-.375 8.95-1.974 13.01-.89 2.26-2.303 4.7-4.738 5.452-.185.057-1.14.579-1.203.102l.243-42.06c6.42-.803 9.44 4.952 11.453 10.005m156.62 29.555-6.234-25.894h-26.134l.24 13.426 19.66-8.63v79.6l-31.644 36.923c-.405-.977-28.885-29.097-42.455-42.065-.524-26.15-.084-52.445-.221-78.649 4.35-5.052 9.518-9.555 14.266-14.265 9.675-9.596 19.282-19.247 29.038-28.76l43.483 42.66c-.288 8.475.386 17.209 0 25.654m-69.531-30.931 25.175.002V23.072Zm25.415 88.714-26.733-.241 26.493 27.333zm0-9.472V54.72l-26.134-.24v31.89l13.904-7.193c3.878 16.223 12.002 48.827 12.23 49.75m33.326-79.24-26.01-25.657 15.342 25.656z" style="fill:#fff"/><path d="M215.42 51.608S166.086 1.45 164.684 0l-12.916 13.242s-7.152 7.419-7.672 7.672l-109.57.24c-13.06-.41-25.71 10.712-26.854 23.736-.045.52-.018 1.06 0 1.596v41.048c-.23 17.848-.537 35.701 0 53.5v.68c-.014.659-.054 1.334 0 1.957 1.083 12.334 12.564 22.954 24.804 23.748l111.033-.024c.325.01.019.001.458.02.344.015 7.801 7.905 7.801 7.905l12.348 11.996c1.792-1.548 3.759-3.148 5.52-4.797 15.534-14.544 30.123-30.614 45.563-45.307l.36-1.079zM59.46 75.34l-3.104.226c-1.095-8.178-2.276-16.81-5.343-24.507C49 46.006 45.981 40.251 39.56 41.054l-.243 42.06c.062.477 1.018-.045 1.203-.102 2.435-.751 3.848-3.193 4.738-5.451 1.6-4.06 1.798-8.693 1.974-13.012l3.118.001v50.59l-3.118.24c-.327-5.21-.746-10.805-2.632-15.71-.862-2.24-2.285-5.234-5.04-5.39l-.25.588.01 52.88c.507 2.557 1.68 5.293 4.528 5.78l.028 2.131H21.818l.024-2.374c2.74-.176 4.318-2.602 4.54-5.17L26.19 38.72c-.802-2.02-2.571-2.666-4.588-2.964l-.024-2.135h37.883zm45.795 0-3.105.226c-1.024-7.775-2.157-15.92-4.868-23.303-1.97-5.364-5.059-12.092-11.927-11.21v42.199c2.458.009 4.49-2.74 5.39-4.8 1.84-4.218 2.164-9.353 2.28-13.903l3.119.001v50.59l-3.118.24c-.256-5.015-.713-10.477-2.393-15.229-.857-2.427-2.363-5.708-5.278-5.87l-.25.587.01 52.88c.506 2.557 1.679 5.293 4.528 5.78l.027 2.131H67.612l.024-2.374c2.741-.176 4.318-2.602 4.54-5.17-.17-36.522.3-73.106-.236-109.59-.732-1.868-2.726-2.482-4.544-2.769l-.023-2.135h37.882zm96.144-20.62h-26.134l.24 13.426 19.66-8.63v79.6l-31.644 36.923c-.405-.977-28.885-29.097-42.455-42.065-.524-26.15-.084-52.445-.221-78.649 4.35-5.052 9.518-9.555 14.266-14.265 9.675-9.596 19.282-19.247 29.038-28.76l43.483 42.66c-.288 8.475.386 17.209 0 25.654zm-38.122-5.035-25.175-.002 25.175-26.611zm7.555-25.656 26.011 25.656h-10.67zm-34.048 114.127 26.733.24-.24 27.093zm26.733-83.436v74.205c-6.085-24.653-8.352-33.526-12.23-49.75l-13.904 7.194V54.48Z"/></svg>