<svg xmlns="http://www.w3.org/2000/svg" width="216.005" height="186.389" viewBox="0 0 216.005 186.389"><path d="M191.133 25.977c8.27 8.165 16.69 16.191 24.828 24.492l.044 85.644-.222.24-51.013 50.036-12.725-12.004-118.807.007C16.157 173.562 1.587 160.203 0 143.07l.013-99.847C1.658 27.113 14.688 14.4 30.64 12.41c40.435-.63 80.942-.086 121.405-.275C154.063 11.022 163.773 1.14 164.885 0c2.529 2.27 4.848 4.95 7.319 7.346 6.344 6.156 12.63 12.411 18.93 18.63M208.09 79.34V53.78l-40.434-39.966-3.093-2.617-43.348 42.829c.137 26.31-.302 52.711.222 78.967l42.853 42.103 31.32-36.836v-79.8l-19.43 8.632c.09-.296-.25-.702-.25-.832V53.42h26.16zm-63.84-59.28H31.57c-.636 0-2.937.632-3.719.841C17.057 23.796 8.966 33.233 7.918 44.41l.002 97.46c1.055 13.175 11.99 23.621 25.078 24.603l111.252-.014-30.852-30.705c.466-28.282-.172-56.676-.005-84.995zm-38.4 12.6-.36-.36h-37.8v2.399c1.957.028 3.953 1.003 4.613 2.948l.195 109.022c-.217 2.78-1.507 5.365-4.558 5.641l-.01 2.63h22.08l-.033-2.367c-1.803-.373-3.298-1.947-3.92-3.64-.116-.312-.607-2.09-.607-2.273v-53.4c2.771-.09 4.357 3 5.219 5.221 1.888 4.87 2.354 10.493 2.566 15.674 1.744-.045 1.51-.05 3.461-.168l-.07-50.262-.29-.192-3.101.192c-.076 3.814-.34 7.622-1.426 11.294-.916 3.095-2.706 6.95-6.36 7.201V39.98c5.925-.88 8.874 3.617 11.007 8.314 3.633 8.002 4.753 17.37 6.034 26.006h3.36zm-45.84 0-.36-.36h-37.8v2.399c2.465-.066 4.81 1.895 4.808 4.432l.003 106.34c-.2 3.238-.975 6.58-4.8 6.839l-.011 2.63h22.32l-.033-2.367c-2.025-.445-3.205-1.742-3.924-3.637-.135-.356-.603-1.796-.603-2.036V93.26c4.046.14 5.545 5.892 6.316 9.164.91 3.866 1.367 7.986 1.364 11.956h3.36V63.5h-3.36c-.005 4.905-.422 10.87-2.927 15.193-1.092 1.887-2.463 3.273-4.753 3.527V39.98c7.829-1.214 11.17 7.988 13.024 13.976 2.02 6.52 3.181 13.54 3.776 20.344h3.6zm77.52 20.76v31.92l14.158-7.2 12.242 49.92V53.42zm-.48 83.76 26.88 27.6v-27.6zM163.93 21.5l-25.44 27.12h25.44zm7.202.96c.994 2.085 2.233 4.082 3.406 6.072 3.965 6.73 8.107 13.358 12.072 20.088h10.92z"/></svg>