<?xml version="1.0" encoding="UTF-8" standalone="no"?>
<svg
   version="1.1"
   width="540.61829"
   height="645.45355"
   id="svg1"
   xmlns="http://www.w3.org/2000/svg"
   xmlns:svg="http://www.w3.org/2000/svg">
  <defs
     id="defs1" />
  <path
     d="m 270.22412,151.3094 v 0 c -0.33305,0 -0.56286,0 -0.89591,0 -0.24979,0 -0.56119,0 -0.89424,0 v 0 c -13.82163,-0.89591 -23.41768,-12.19801 -23.41768,-34.72061 0,-23.48012 24.31275,-55.68202 24.31275,-55.68202 0,0 24.39602,32.2019 24.39602,55.68202 0,22.5226 -9.67931,33.82554 -23.50094,34.72061 M 344.3905,112.19668 C 342.60035,94.81556 341.78853,77.41363 333.89938,53.10088 326.09349,28.70486 301.36442,0 270.22412,0 c -31.30683,0 -55.70284,28.70486 -63.50873,53.10088 -7.8059,24.31275 -8.70097,41.71468 -10.40786,59.0958 -1.79015,17.40193 -12.11474,94.81556 73.99985,94.81556 86.1146,0 75.79001,-77.41363 74.08312,-94.81556 m 21.12795,-57.55544 c 5.20392,19.35861 6.82755,34.97039 8.13894,48.79203 l 0.64612,7.05652 c 1.62362,15.38281 6.51532,62.1349 -23.41768,95.37759 -14.88323,16.50686 -35.44915,26.18616 -60.90677,29.51668 v 52.12254 c 186.36306,0 233.0527,81.16046 233.0527,81.16046 C 566.9321,289.6298 520.8253,171.00106 470.32638,120.50215 419.76502,70.00323 365.51928,54.64124 365.51928,54.64124 m 101.80964,309.6337 C 372.84641,388.42117 290.06233,645.45357 290.06233,645.45357 V 317.10654 c 130.01493,0 177.26659,47.1684 177.26659,47.1684 M 70.373307,120.50215 C 19.791126,171.00106 -26.315675,289.6298 17.58466,368.66706 c 0,0 46.68964,-81.16046 233.13597,-81.16046 v -52.12254 c -25.45761,-3.33052 -46.1068,-13.00982 -60.99003,-29.51668 -29.933,-33.24269 -24.95804,-79.99478 -23.41768,-95.37759 l 0.72772,-7.05652 c 1.22896,-13.82164 2.93501,-29.43342 8.13894,-48.79203 0,0 -54.329,15.36199 -104.807103,65.86091 M 250.55327,317.10654 v 328.34703 c 0,0 -82.78408,-257.0324 -177.183333,-281.17863 0,0 47.251663,-47.1684 177.183333,-47.1684"
     id="path1" />
</svg>
