<svg xmlns="http://www.w3.org/2000/svg" xml:space="preserve" width="600" height="599.996" viewBox="0 0 600 599.996"><g transform="translate(-5.8 -6.722)"><path d="M305.8 606.718c-165.422 0-300-134.573-300-300C5.8 141.3 140.378 6.722 305.8 6.722c165.427 0 300 134.578 300 299.996 0 165.427-134.573 300-300 300"/><linearGradient id="a" x1="452.534" x2="165.163" y1="560.763" y2="63.022" gradientUnits="userSpaceOnUse"><stop offset="0" style="stop-color:#745e40"/><stop offset=".15" style="stop-color:#8a704a"/><stop offset=".25" style="stop-color:#93784e"/><stop offset=".256" style="stop-color:#967b50"/><stop offset=".297" style="stop-color:#a78a5c"/><stop offset=".343" style="stop-color:#b19363"/><stop offset=".4" style="stop-color:#b49665"/><stop offset=".55" style="stop-color:#dac699"/><stop offset=".571" style="stop-color:#dcc99d"/><stop offset=".738" style="stop-color:#ebdeb8"/><stop offset=".887" style="stop-color:#f4ebc8"/><stop offset="1" style="stop-color:#f7efce"/></linearGradient><path fill="url(#a)" d="m75.357 411.151-13.953 34.507C38.04 404.651 24.55 357.291 24.55 306.718c0-113.095 66.861-210.42 163.12-255.08l3.099 3.433c5.594 6.203 9.512 12.442 11.646 18.558.233.664.316 1.314.508 1.973-88.418 39.514-150.248 128.183-150.248 231.116 0 37.243 8.18 72.564 22.682 104.433M434.633 74.695l7.828 19.235c69.955 45.085 116.464 123.551 116.464 212.787 0 19.665-2.398 38.754-6.674 57.138l16.873 41.465c11.508-30.698 17.926-63.886 17.926-98.603 0-110.39-63.693-205.792-156.253-251.825-.147 6.441 1.08 12.964 3.836 19.803m-33.554 466.379c-29.443 12.03-61.569 18.769-95.279 18.769-29.232 0-57.284-5.072-83.423-14.236 4.303 9.274 8.748 16.836 12.351 21.789l9.998 13.752c19.675 4.366 40.082 6.82 61.075 6.82 19.29 0 38.077-2.105 56.259-5.823l20.563-18.2c6.371-5.632 12.953-13.624 18.456-22.871m-9.138 33.399c23.676-20.966 45.996-64.05 31.439-100.049L284.294 130.447l-86.856 214.815h109.781c-38.8 22.613-114.908 74.157-114.908 130.773 0 46.812 20.691 85.382 31.041 99.628C159.934 556.245 106.091 515 70.486 460.7l144.265-356.694c4.696-11.6 5.008-23.396.938-35.024-3.071-8.798-8.409-16.603-14.483-23.332 32.341-12.968 67.616-20.178 104.594-20.178 39.56 0 77.188 8.203 111.337 22.943-1.227 9.393-.237 19.922 4.459 31.549l139.893 343.904c-32.676 71.183-94.144 126.371-169.548 150.605" style="fill:url(#a)"/></g></svg>