<?xml version="1.0" encoding="UTF-8" standalone="no"?>
<svg
   width="1000"
   height="1000"
   viewBox="0 0 1000 1000"
   version="1.1"
   xml:space="preserve"
   style="clip-rule:evenodd;fill-rule:evenodd;stroke-linejoin:round;stroke-miterlimit:2"
   id="svg18"
   xmlns="http://www.w3.org/2000/svg"
   xmlns:svg="http://www.w3.org/2000/svg"><defs
   id="defs18" />
    <g
   id="C"
   transform="translate(-0.94499999,1.89)">
        <rect
   x="0.94499999"
   y="-1.89"
   width="1000"
   height="1000"
   style="fill:none"
   id="rect1" />
        <g
   transform="translate(0.94518,-1.89036)"
   id="g1">
            <path
   d="m 500.26,896.664 c 0,0 -4.004,7.977 -20.458,14.958 -16.454,6.98 -27.424,28.991 -27.922,70.34 0,0 -103.711,-63.215 -99.224,-172.056 0,0 -41.384,-9.618 -97.727,39.245 0,0 7.479,-62.326 -3.989,-99.722 0,0 -9.473,-15.955 -9.972,-29.418 0,0 -6.482,-26.924 -3.49,-37.395 0,0 -31.243,2.493 -99.223,-41.385 0,0 34.733,-26.925 33.735,-38.891 -0.997,-11.967 6.482,-44.376 15.956,-62.825 0,0 -41.385,-16.631 -64.819,-88.254 0,0 40.886,-1.319 51.356,-44.199 0,0 -35.401,-47.368 -46.37,-88.254 0,0 -1.496,-17.451 61.329,-36.897 0,0 -43.379,-84.265 -41.385,-120.663 0,0 43.878,-29.917 126.148,-12.964 0,0 -1.994,-38.393 29.418,-116.674 0,0 68.31,35.899 117.672,108.696 0,0 41.722,-107.734 80.458,-137.784 0,0 42.65,39.953 80.248,139.25 0,0 29.283,-55.913 116.588,-109.265 0,0 27.765,59.034 28.734,114.511 0,0 70.97,-16.733 128.044,14.484 0,0 -1.52,48.13 -41.078,119.795 0,0 45.292,13.759 63.064,34.972 0,0 -14.333,59.335 -48.158,88.29 0,0 3.44,42.142 52.745,46.728 0,0 -21.213,68.798 -66.505,87.144 0,0 12.04,19.493 13.76,46.439 0,0 -4.366,24.339 12.524,34.551 l 25.334,21.996 c 0,0 -55.938,40.493 -98.453,40.493 0,0 1.394,11.152 -5.575,39.03 0,0 -10.455,28.575 -10.455,37.636 0,0 -14.636,53.665 -2.09,91.301 0,0 -71.09,-52.969 -99.665,-39.03 0,0 13.939,94.684 -97.574,171.115 0,0 -5.351,-62.218 -35.476,-73.679 0,0 -4.557,1.647 -17.505,-11.619 z"
   style="fill:#feffff"
   id="path1" />
        </g>
        <g
   transform="translate(0.94518,-1.89036)"
   id="g2">
            <path
   d="m 511.864,634.253 c 0,0 20.95,-1.209 40.289,-13.296 0,0 77.353,108.376 70.907,194.592 -6.446,86.217 -49.958,109.987 -49.958,109.987 0,0 -12.086,-28.202 -41.496,-43.914 0,0 -12.49,-4.029 -19.742,-29.813 z"
   id="path2" />
        </g>
        <g
   transform="matrix(-1,0,0,1,1005.6,-1.89036)"
   id="g3">
            <path
   d="m 511.864,634.253 c 0,0 20.95,-1.209 40.289,-13.296 0,0 77.353,108.376 70.907,194.592 -6.446,86.217 -49.958,109.987 -49.958,109.987 0,0 -12.086,-28.202 -41.496,-43.914 0,0 -12.49,-4.029 -19.742,-29.813 z"
   id="path3" />
        </g>
        <g
   transform="translate(0.94518,-1.89036)"
   id="g4">
            <path
   d="m 457.923,278.642 c 0,0 -5.423,-60.858 -18.076,-73.511 0,0 10.467,-96.409 61.873,-156.062 0,0 52.612,62.666 60.445,155.459 0,0 -19.884,48.205 -16.269,74.114 0,0 -45.191,-15.666 -87.973,0 z"
   id="path4" />
        </g>
        <g
   transform="translate(0.94518,-1.89036)"
   id="g5">
            <path
   d="m 608.538,336.61 c 0,0 -18.028,-27.345 -46.373,-47.548 0,0 8.187,-133.342 120.899,-212.241 0,0 67.414,186.048 -74.526,259.789 z"
   id="path5" />
        </g>
        <g
   transform="matrix(-1,0,0,1,1004.56,-1.89036)"
   id="g6">
            <path
   d="m 608.538,336.61 c 0,0 -18.028,-27.345 -46.373,-47.548 0,0 8.187,-133.342 120.899,-212.241 0,0 67.414,186.048 -74.526,259.789 z"
   id="path6" />
        </g>
        <g
   transform="translate(0.94518,-1.89036)"
   id="g7">
            <path
   d="m 630.614,391.236 c 0,0 3.22,-6.995 -13.769,-36.975 0,0 104.931,-45.138 101.933,-172.386 0,0 53.964,-22.318 103.431,-0.332 0,0 -15.434,151.072 -191.595,209.693"
   id="path7" />
        </g>
        <g
   transform="matrix(-1,0,0,1,1003.47,-1.89036)"
   id="g8">
            <path
   d="m 630.614,391.236 c 0,0 3.22,-6.995 -13.769,-36.975 0,0 104.931,-45.138 101.933,-172.386 0,0 53.964,-22.318 103.431,-0.332 0,0 -15.434,151.072 -191.595,209.693"
   id="path8" />
        </g>
        <g
   transform="translate(0.94518,-1.89036)"
   id="g9">
            <path
   d="m 640.788,446.647 c 0,0 0.313,-28.536 -5.331,-36.689 0,0 94.562,-20.13 149.821,-103.495 0,0 36.68,0.477 58.593,21.437 0,0 -46.507,135.075 -203.083,118.747 z"
   id="path9" />
        </g>
        <g
   transform="matrix(-1,0,0,1,1005.61,-1.89036)"
   id="g10">
            <path
   d="m 640.788,446.647 c 0,0 0.313,-28.536 -5.331,-36.689 0,0 94.562,-20.13 149.821,-103.495 0,0 36.68,0.477 58.593,21.437 0,0 -46.507,135.075 -203.083,118.747 z"
   id="path10" />
        </g>
        <g
   transform="translate(0.94518,-1.89036)"
   id="g11">
            <path
   d="m 707.365,462.971 c 0,0 55.748,-5.287 95.156,-46.617 0,0 13.016,42.772 41.35,53.345 0,0 -23.568,44.214 -53.845,48.539 0,0 -14.898,-22.588 -82.661,-55.267 z"
   id="path11" />
        </g>
        <g
   transform="matrix(-1,0,0,1,1005.56,-1.89036)"
   id="g12">
            <path
   d="m 707.365,462.971 c 0,0 55.748,-5.287 95.156,-46.617 0,0 13.016,42.772 41.35,53.345 0,0 -23.568,44.214 -53.845,48.539 0,0 -14.898,-22.588 -82.661,-55.267 z"
   id="path12" />
        </g>
        <g
   transform="translate(0.94518,-1.89036)"
   id="g13">
            <path
   d="m 818.041,635.48 c 0,0 -29.019,21.15 -65.417,17.215 0,0 -9.398,-69.351 -135.779,-105.749 0,0 17.522,-14.756 18.612,-82.632 0,0 133.399,20.166 158.975,99.847 0,0 7.378,18.199 5.411,36.889 0,0 1.967,28.036 18.198,34.43 z"
   id="path13" />
        </g>
        <g
   transform="matrix(-1,0,0,1,1005.39,-1.89036)"
   id="g14">
            <path
   d="m 818.041,635.48 c 0,0 -29.019,21.15 -65.417,17.215 0,0 -9.398,-69.351 -135.779,-105.749 0,0 17.522,-14.756 18.612,-82.632 0,0 133.399,20.166 158.975,99.847 0,0 7.378,18.199 5.411,36.889 0,0 1.967,28.036 18.198,34.43 z"
   id="path14" />
        </g>
        <g
   transform="translate(0.94518,-1.89036)"
   id="g15">
            <path
   d="m 717.443,794.53 c 0,0 -33.279,-21.804 -78.038,-11.971 0,0 -5.427,-85.121 -70.837,-172.29 0,0 32.491,-23.469 38.049,-45.272 0,0 109.445,29.071 122.698,83.794 0,0 15.818,29.071 1.71,82.511 0,0 -12.2,11.086 -13.582,63.228 z"
   id="path15" />
        </g>
        <g
   transform="matrix(-1,0,0,1,1005.67,-1.89036)"
   id="g16">
            <path
   d="m 717.443,794.53 c 0,0 -33.279,-21.804 -78.038,-11.971 0,0 -5.427,-85.121 -70.837,-172.29 0,0 32.491,-23.469 38.049,-45.272 0,0 109.445,29.071 122.698,83.794 0,0 15.818,29.071 1.71,82.511 0,0 -12.2,11.086 -13.582,63.228 z"
   id="path16" />
        </g>
        <g
   transform="matrix(0.998991,0,0,0.73932,-124.819,-75.2833)"
   id="g17">
            <ellipse
   cx="627.46899"
   cy="709.89899"
   rx="141.897"
   ry="251.11"
   style="fill:#feffff"
   id="ellipse16" />
        </g>
        <g
   transform="matrix(0.794886,0,0,0.622506,2.50807,8.01416)"
   id="g18">
            <ellipse
   cx="627.46899"
   cy="709.89899"
   rx="141.897"
   ry="251.11"
   id="ellipse17" />
        </g>
    </g>
</svg>
