<?xml version="1.0" encoding="UTF-8" standalone="no"?>
<svg
   width="1000"
   height="1000"
   viewBox="0 0 1000 1000"
   version="1.1"
   xml:space="preserve"
   style="clip-rule:evenodd;fill-rule:evenodd;stroke-linejoin:round;stroke-miterlimit:2"
   id="svg3"
   xmlns="http://www.w3.org/2000/svg"
   xmlns:svg="http://www.w3.org/2000/svg"><defs
   id="defs3" />
    <g
   transform="translate(-4831.9967)"
   id="g3">
        <g
   id="WM"
   transform="translate(-0.333333)">
            <rect
   x="4832.3301"
   y="0"
   width="1000"
   height="1000"
   style="fill:none"
   id="rect1" />
            <g
   transform="translate(4832.33)"
   id="g1">
                <path
   d="m 500.26,896.664 c 0,0 -4.004,7.977 -20.458,14.958 -16.454,6.98 -27.424,28.991 -27.922,70.34 0,0 -103.711,-63.215 -99.224,-172.056 0,0 -41.384,-9.618 -97.727,39.245 0,0 7.479,-62.326 -3.989,-99.722 0,0 -9.473,-15.955 -9.972,-29.418 0,0 -6.482,-26.924 -3.49,-37.395 0,0 -31.243,2.493 -99.223,-41.385 0,0 34.733,-26.925 33.735,-38.891 -0.997,-11.967 6.482,-44.376 15.956,-62.825 0,0 -41.385,-16.631 -64.819,-88.254 0,0 40.886,-1.319 51.356,-44.199 0,0 -35.401,-47.368 -46.37,-88.254 0,0 -1.496,-17.451 61.329,-36.897 0,0 -43.379,-84.265 -41.385,-120.663 0,0 43.878,-29.917 126.148,-12.964 0,0 -1.994,-38.393 29.418,-116.674 0,0 68.31,35.899 117.672,108.696 0,0 41.722,-107.734 80.458,-137.784 0,0 42.65,39.953 80.248,139.25 0,0 29.283,-55.913 116.588,-109.265 0,0 27.765,59.034 28.734,114.511 0,0 70.97,-16.733 128.044,14.484 0,0 -1.52,48.13 -41.078,119.795 0,0 45.292,13.759 63.064,34.972 0,0 -14.333,59.335 -48.158,88.29 0,0 3.44,42.142 52.745,46.728 0,0 -21.213,68.798 -66.505,87.144 0,0 12.04,19.493 13.76,46.439 0,0 -4.366,24.339 12.524,34.551 l 25.334,21.996 c 0,0 -55.938,40.493 -98.453,40.493 0,0 1.394,11.152 -5.575,39.03 0,0 -10.455,28.575 -10.455,37.636 0,0 -14.636,53.665 -2.09,91.301 0,0 -71.09,-52.969 -99.665,-39.03 0,0 13.939,94.684 -97.574,171.115 0,0 -5.351,-62.218 -35.476,-73.679 0,0 -4.557,1.647 -17.505,-11.619 z M 608.538,336.61 C 750.478,262.869 683.064,76.821 683.064,76.821 570.352,155.72 562.165,289.062 562.165,289.062 c 28.345,20.203 46.373,47.548 46.373,47.548 z m -115.75,297.643 c 0,0 -20.949,-1.209 -40.288,-13.296 0,0 -77.353,108.376 -70.907,194.592 6.446,86.217 49.957,109.987 49.957,109.987 0,0 12.087,-28.202 41.497,-43.914 0,0 12.49,-4.029 19.741,-29.813 z m -306.386,1.227 c 0,0 29.02,21.15 65.417,17.215 0,0 9.398,-69.351 135.779,-105.749 0,0 -17.522,-14.756 -18.611,-82.632 0,0 -133.399,20.166 -158.976,99.847 0,0 -7.378,18.199 -5.41,36.889 0,0 -1.968,28.036 -18.199,34.43 z M 630.614,391.236 c 176.161,-58.621 191.595,-209.693 191.595,-209.693 -49.467,-21.986 -103.431,0.332 -103.431,0.332 2.998,127.248 -101.933,172.386 -101.933,172.386 16.989,29.98 13.769,36.975 13.769,36.975 z m 10.174,55.411 C 797.364,462.975 843.871,327.9 843.871,327.9 821.958,306.94 785.278,306.463 785.278,306.463 730.019,389.828 635.457,409.958 635.457,409.958 c 5.644,8.153 5.331,36.689 5.331,36.689 z M 371.913,391.236 c 0,0 -3.22,-6.995 13.769,-36.975 0,0 -104.931,-45.138 -101.932,-172.386 0,0 -53.965,-22.318 -103.432,-0.332 0,0 15.434,151.072 191.595,209.693 z m 139.951,243.017 v 217.556 c 7.252,25.784 19.742,29.813 19.742,29.813 29.41,15.712 41.496,43.914 41.496,43.914 0,0 43.512,-23.77 49.958,-109.987 6.446,-86.216 -70.907,-194.592 -70.907,-194.592 -19.339,12.087 -40.289,13.296 -40.289,13.296 z M 457.923,278.642 c 42.782,-15.666 87.973,0 87.973,0 -3.615,-25.909 16.269,-74.114 16.269,-74.114 C 554.332,111.735 501.72,49.069 501.72,49.069 c -51.406,59.653 -61.873,156.062 -61.873,156.062 12.653,12.653 18.076,73.511 18.076,73.511 z m -62.847,57.968 c 0,0 18.027,-27.345 46.373,-47.548 0,0 -8.187,-133.342 -120.899,-212.241 0,0 -67.414,186.048 74.526,259.789 z m -31.2,110.037 c 0,0 -0.313,-28.536 5.331,-36.689 0,0 -94.562,-20.13 -149.821,-103.495 0,0 -36.68,0.477 -58.593,21.437 0,0 46.507,135.075 203.083,118.747 z M 287.281,794.53 c 0,0 33.279,-21.804 78.038,-11.971 0,0 5.427,-85.121 70.838,-172.29 0,0 -32.492,-23.469 -38.05,-45.272 0,0 -109.445,29.071 -122.698,83.794 0,0 -15.818,29.071 -1.71,82.511 0,0 12.2,11.086 13.582,63.228 z m 530.76,-159.05 c -16.231,-6.394 -18.198,-34.43 -18.198,-34.43 1.967,-18.69 -5.411,-36.889 -5.411,-36.889 -25.576,-79.681 -158.975,-99.847 -158.975,-99.847 -1.09,67.876 -18.612,82.632 -18.612,82.632 126.381,36.398 135.779,105.749 135.779,105.749 36.398,3.935 65.417,-17.215 65.417,-17.215 z M 707.365,462.971 c 67.763,32.679 82.661,55.267 82.661,55.267 30.277,-4.325 53.845,-48.539 53.845,-48.539 -28.334,-10.573 -41.35,-53.345 -41.35,-53.345 -39.408,41.33 -95.156,46.617 -95.156,46.617 z M 500.329,295.503 c -62.251,0 -112.792,70.044 -112.792,156.318 0,86.273 50.541,156.317 112.792,156.317 62.252,0 112.792,-70.044 112.792,-156.317 0,-86.274 -50.54,-156.318 -112.792,-156.318 z M 297.253,462.971 c 0,0 -55.748,-5.287 -95.156,-46.617 0,0 -13.015,42.772 -41.35,53.345 0,0 23.568,44.214 53.845,48.539 0,0 14.898,-22.588 82.661,-55.267 z m 420.19,331.559 c 1.382,-52.142 13.582,-63.228 13.582,-63.228 14.108,-53.44 -1.71,-82.511 -1.71,-82.511 -13.253,-54.723 -122.698,-83.794 -122.698,-83.794 -5.558,21.803 -38.049,45.272 -38.049,45.272 65.41,87.169 70.837,172.29 70.837,172.29 44.759,-9.833 78.038,11.971 78.038,11.971 z"
   id="path1" />
            </g>
            <g
   transform="matrix(0.998991,0,0,0.73932,4706.57,-73.393)"
   id="g2">
                <path
   d="m 627.469,458.789 c 78.315,0 141.897,112.519 141.897,251.11 0,138.591 -63.582,251.11 -141.897,251.11 -78.315,0 -141.897,-112.519 -141.897,-251.11 0,-138.591 63.582,-251.11 141.897,-251.11 z m -0.743,40.178 c -62.315,0 -112.906,94.74 -112.906,211.434 0,116.694 50.591,211.434 112.906,211.434 62.314,0 112.905,-94.74 112.905,-211.434 0,-116.694 -50.591,-211.434 -112.905,-211.434 z"
   id="path2" />
            </g>
        </g>
    </g>
</svg>
