<?xml version="1.0" encoding="UTF-8"?>
<svg id="Layer_2" xmlns="http://www.w3.org/2000/svg" viewBox="0 0 595.28 595.28">
  <defs>
    <style>
      .cls-1 {
        fill: none;
      }
    </style>
  </defs>
  <g id="Layer_1-2" data-name="Layer_1">
    <g id="C">
      <rect class="cls-1" width="595.28" height="595.28"/>
      <g>
        <path d="M218.69,231.96c2.13-7.9,4.92-15.38,8.29-22.34-11.81-6.1-59.63-34.93-58.07-101.35,0,0-32.12-13.29-61.57-.2,0,0,9.05,88.36,111.35,123.89Z"/>
        <path d="M232.78,199.07c7.98-12.85,18.11-23.3,29.68-30.41-1.82-15.67-12.82-81.75-71.64-122.93,0,0-39.33,108.6,41.96,153.34Z"/>
        <path d="M298.28,158.22c9.25,0,18.16,1.96,26.49,5.56-.95-15.78,9.88-42.04,9.88-42.04-4.66-55.24-35.98-92.54-35.98-92.54-30.6,35.51-36.83,92.9-36.83,92.9,6.38,6.38,9.67,33.32,10.53,41.43,8.17-3.45,16.87-5.32,25.92-5.32Z"/>
        <path d="M213.92,266.12c.14-7.9.92-15.59,2.26-23-12.92-3.58-57.67-18.58-85.58-60.69,0,0-21.83.28-34.88,12.76,0,0,27.16,78.84,118.2,70.93Z"/>
        <path d="M502.34,195.19c-13.04-12.48-34.88-12.76-34.88-12.76-29.06,43.84-76.38,58.3-87.01,61.08,1.29,7.25,2.04,14.76,2.18,22.48,92.25,8.91,119.7-70.79,119.7-70.79Z"/>
        <path d="M369.62,209.71c3.36,6.95,6.14,14.43,8.26,22.32,102.5-35.48,111.56-123.96,111.56-123.96-29.45-13.09-61.57.2-61.57.2,1.57,66.77-46.77,95.56-58.25,101.44Z"/>
        <path d="M364,199.42c82.16-44.51,42.62-153.7,42.62-153.7-59.48,41.64-70.06,108.73-71.69,123.43,11.34,7.17,21.26,17.56,29.08,30.27Z"/>
        <path d="M232.34,337.69c-15.03,4.67-61.79,21.23-68.39,48.51,0,0-9.42,17.31-1.02,49.12,0,0,7.26,6.6,8.09,37.64,0,0,19.81-12.98,46.45-7.13,0,0,3.13-49.08,40.35-100.1-9.85-7.06-18.51-16.63-25.48-28.04Z"/>
        <path d="M476.13,357.79c1.17-11.13-3.22-21.96-3.22-21.96-13.13-40.9-73.98-55.46-90.49-58.69-1.03,17.99-5.36,34.78-12.19,49.34,72.34,21.89,77.79,62.05,77.79,62.05,21.67,2.34,38.94-10.25,38.94-10.25-9.66-3.81-10.83-20.5-10.83-20.5Z"/>
        <path d="M364.46,337.3c-6.77,11.2-15.17,20.64-24.72,27.71,37.72,51.28,40.89,100.83,40.89,100.83,26.64-5.85,46.45,7.13,46.45,7.13.82-31.04,8.09-37.64,8.09-37.64,8.4-31.81-1.02-49.12-1.02-49.12-6.81-28.12-56.28-44.86-69.69-48.91Z"/>
        <path d="M477.72,247.85c-23.46,24.6-56.64,27.75-56.64,27.75,40.34,19.45,49.21,32.9,49.21,32.9,18.02-2.57,32.05-28.89,32.05-28.89-16.87-6.29-24.61-31.75-24.61-31.75Z"/>
        <path d="M267.85,371.84c-7.93,11.71-44.11,67.91-40.69,113.64,3.84,51.32,29.74,65.47,29.74,65.47,0,0,7.19-16.79,24.7-26.14,0,0,7.43-2.4,11.75-17.75v-128c-8.95-.68-17.52-3.17-25.5-7.22Z"/>
        <path d="M226.5,326.85c-6.89-14.57-11.27-31.4-12.34-49.44-18.24,3.72-76.34,18.56-89.14,58.42,0,0-4.39,10.83-3.22,21.96,0,0-1.17,16.69-10.83,20.5,0,0,17.27,12.59,38.94,10.25,0,0,5.39-39.72,76.59-61.68Z"/>
        <path d="M176.95,275.6s-33.19-3.15-56.64-27.75c0,0-7.75,25.46-24.61,31.75,0,0,14.03,26.32,32.05,28.89,0,0,8.87-13.45,49.21-32.9Z"/>
        <path d="M304.7,378.93v128.13c4.32,15.35,11.75,17.75,11.75,17.75,17.51,9.35,24.7,26.14,24.7,26.14,0,0,25.9-14.15,29.74-65.47,3.48-46.53-34.04-103.9-41.08-114.21-7.85,4.15-16.29,6.8-25.11,7.67Z"/>
        <ellipse cx="297.83" cy="268.96" rx="67.14" ry="93.05"/>
      </g>
    </g>
  </g>
</svg>