<svg xmlns="http://www.w3.org/2000/svg" width="600" height="286.837"><radialGradient id="a" cx="0" cy="0" r="1" fx="0" fy="0" gradientTransform="translate(292.948 175.2)scale(201.74863)" gradientUnits="userSpaceOnUse" spreadMethod="pad"><stop offset="0" style="stop-color:#ebd491"/><stop offset=".7" style="stop-color:#d2bb7b"/><stop offset="1" style="stop-color:#8b723c"/></radialGradient><path d="M546.71 71.575c-11.436 9.877-24.202 19.579-32.528 19.579-1.588 0-2.742-.323-4.256-2.059l-23.4-26.677-3.572 35.336c-.213 1.763-.499 3.932-.72 5.16-1.33 2.446-1.837 2.483-4.219 2.668-2.307 0-6.489-2.271-10.2-4.33a107 107 0 0 0-3.36-1.8l3.499-84.563-34.616 57.554L409.505 0 396.96 79.145l-51.452-52.099 24.84 82.966c-6.739 5.88-15.176 11.363-20.41 11.363-7.356 0-9.738-3.323-10.024-3.757l-3.425-11.464-58.846 9.628 1.837 11.464L0 165.545l8.04 55.92 280.385-38.003 1.698 10.855 48.24-6.203c.683 1.661.979 3.064.868 3.932-.074.757-1.366 1.69-1.948 2.086-5.05 3.499-13.09 5.41-22.606 5.41-3.61 0-6.166-.286-6.563-.324l-22.828-3.065 5.806 22.247c6.166 23.695 34.219 68.437 96.351 68.437 86.575 0 157.172-71.244 193.265-191.604C594.157 50.41 600 9.987 600 9.987s-23.114 35.557-53.29 61.588" style="fill:#fff"/><path d="m421.588 155.335 1.874-.037c25.495-1.19 27.941-26.316 27.941-26.575.074-1.043-.572-1.975-1.588-2.308-.248-.066-.461-.066-.683-.066-.83 0-1.587.397-2.012 1.117-.074.101-8.012 13.228-24.526 14.603-.932.037-1.874.074-2.779.074-15 0-24.692-10.283-24.803-10.385-.47-.47-1.043-.729-1.698-.729-.397 0-.757.074-1.154.259-.895.498-1.33 1.55-1.08 2.557.074.221 6.748 21.489 30.508 21.489m-75.545 16.228-43.015 5.52-1.726-10.93L21.129 204.12l-3.609-25.385 279.665-38.29-1.874-11.898 30.323-4.975s5.52 13.228 24.268 13.228c17.963 0 38.363-22.607 38.363-22.607l-12.979-36.415 26.576 30.572a69 69 0 0 1 7.606-2.16l4.975-44.418 11.65 42.978c2.455.111 4.938.323 7.54.72l17.77-34.292-3.314 37.93c1.514.544 3.065 1.153 4.653 1.808 8.547 3.564 16.984 10.819 26.713 10.062 8.871-.692 13.385-4.763 17.207-12.295.895-1.81 1.652-9.379 1.652-9.379 24.194 27.656 73.883-31.984 73.883-31.984-30.25 124.467-97.966 204.083-184.754 204.083-66.563 0-81.425-56.899-81.425-56.899s24.056 3.397 40.025-7.643c16.015-11.03 6.092-28.126 0-35.298" style="fill:#8b723c"/><path d="M514.145 111.24c-4.579 0-8.797-1.08-12.508-3.212a13 13 0 0 1-.905 2.741c-4.827 9.591-11.104 14.031-20.944 14.825a28 28 0 0 1-1.81.065c-7.421 0-13.984-3.637-19.79-6.813-2.456-1.329-4.837-2.667-7.247-3.674q-2.243-.923-4.366-1.735l-3.387-1.154.286-3.572 1.301-14.742-7.034 13.588-1.513 2.926-3.287-.47a55 55 0 0 0-7.024-.647l-3.397-.147-.859-3.277-5.335-19.579-2.28 20.336-.36 3.313-3.203.683a65 65 0 0 0-7.07 1.985l-2.955 1.08-2.058-2.372-10.597-12.194 4.79 13.45.942 2.593-1.837 2.022c-.904 1.015-22.033 24.156-41.76 24.156-15.646 0-23.437-8.076-26.677-12.756l-22.652 3.673 1.154 7.357.73 4.69-4.653.609-275.123 37.717 2.344 16.227 275.622-37.393 4.477-.573.72 4.431 1.043 6.526 38.585-4.938 2.446-.323 1.624 1.947c2.668 3.102 11.142 14.243 9.554 26.105q-1.301 9.628-10.458 15.97c-10.708 7.356-24.37 8.907-33.923 8.907q-1.08.009-2.059-.037c5.88 14.17 24.914 47.234 74.751 47.234 78.498 0 143.4-68.105 175.745-183.166-12.407 11.972-31.911 27.618-49.043 27.618m-91.911 26.216c13.735-1.117 20.658-11.973 20.99-12.48a6.99 6.99 0 0 1 5.908-3.24l1.376.064.646.222a6.775 6.775 0 0 1 4.827 7.061c-.609 8.188-7.643 29.677-32.372 30.831l-2.021.037c-21.203 0-31.911-15.499-34.902-24.84a6.74 6.74 0 0 1 3.425-7.939 7.04 7.04 0 0 1 8.326 1.487c.11.101 8.51 8.87 21.378 8.87q1.21-.009 2.419-.073" style="fill:url(#a);stroke-width:9.23077"/></svg>