<?xml version="1.0" encoding="UTF-8" standalone="no"?>
<svg
   width="356.91452"
   height="374.73074"
   viewBox="0 0 356.91452 374.73074"
   version="1.1"
   xml:space="preserve"
   style="clip-rule:evenodd;fill-rule:evenodd;stroke-linejoin:round;stroke-miterlimit:2"
   id="svg6"
   xmlns="http://www.w3.org/2000/svg"
   xmlns:svg="http://www.w3.org/2000/svg"
   xmlns:serif="http://www.serif.com/">
    <g
   id="Layer-2"
   serif:id="Layer 2"
   transform="translate(-521.5222,-93.620842)">
        <g
   id="path851"
   transform="scale(0.264583)">
            <path
   d="m 2397.32,353.843 c -217.68,145.981 -388.52,324.238 -426.21,602.363 97.03,61.154 181.46,92.814 188.3,184.254 v 101.24 l -133.63,127.56 416.09,400.89 h 164 v -613.49 l -89.98,-89.22 89.98,-86.94 V 565.429 Z m 496.55,0 -208.55,211.586 V 980.5 l 89.98,86.94 -89.98,89.22 v 613.49 h 164 l 416.09,-400.89 -133.63,-127.56 v -101.24 c 6.84,-91.44 91.27,-123.1 188.3,-184.254 -37.69,-278.125 -208.53,-456.382 -426.21,-602.363 z"
   style="fill-rule:nonzero"
   id="path1" />
        </g>
        <g
   id="path838"
   transform="matrix(0.264583,0,0,0.264583,2.43797e-5,-1.92922)">
            <path
   d="m 2390.14,424.339 c -167.08,106.185 -323.9,284.159 -360.38,502.745 0.08,0.043 94.86,56.174 128.77,90.086 33.93,33.93 54.92,80.8 54.92,132.58 0,50.63 0.62,73.75 0.65,74.78 l 80.2,-80.21 -76.99,-76.99 78.34,-78.349 -160.14,-160.146 277.74,-277.734 140.22,140.215 V 586.052 Z m 510.91,0 -163.33,161.713 v 105.264 l 140.23,-140.215 277.73,277.734 -160.14,160.146 78.35,78.349 -77,76.99 80.21,80.21 c 0.02,-1.03 0.64,-24.15 0.64,-74.78 0,-51.78 20.99,-98.65 54.92,-132.58 33.92,-33.912 128.7,-90.043 128.77,-90.086 -36.48,-218.586 -193.3,-396.56 -360.38,-502.745 z m -487.01,163.064 -241.06,241.061 161,160.999 -78.21,78.207 78.21,78.21 -161,161 241.06,241.05 139.43,-139.43 V 1182.63 L 2437.7,1066.87 2553.47,951.101 V 726.832 Z m 463.11,0 -139.43,139.429 v 224.269 l 115.77,115.769 -115.77,115.76 v 225.87 l 139.43,139.43 241.06,-241.05 -161,-161 78.21,-78.21 -78.21,-78.207 161,-160.999 z m -463.18,129.17 112.5,112.494 -112.5,112.495 -112.49,-112.495 z m 463.25,0 112.48,112.494 -112.48,112.495 -112.5,-112.495 z m -463.25,477.647 112.5,112.49 -112.5,112.49 -112.49,-112.49 z m 463.25,0 112.48,112.49 -112.48,112.49 -112.5,-112.49 z m -725.5,131.18 -44.65,46.24 287.48,277.62 67.29,64.98 h 91.63 V 1448.3 l -139.43,139.43 -189.4,-189.39 0.01,-0.01 z m 987.75,0 -72.93,72.93 v 0.01 l -189.4,189.39 -139.43,-139.43 v 265.94 h 91.63 l 67.29,-64.98 287.49,-277.62 z"
   style="fill:url(#_Radial1);fill-rule:nonzero"
   id="path2" />
        </g>
        <g
   id="path947"
   transform="scale(0.264583)">
            <path
   d="m 2413.03,752.366 -75.76,75.76 75.76,75.755 75.76,-75.755 z m 465.13,0 -75.75,75.76 75.75,75.755 75.76,-75.755 z m -465.13,479.034 -75.76,75.75 75.76,75.76 75.76,-75.76 z m 465.13,0 -75.75,75.75 75.75,75.76 75.76,-75.76 z"
   style="fill:#ffffff;fill-rule:nonzero"
   id="path3" />
        </g>
    </g>
    <defs
   id="defs6">
        <radialGradient
   id="_Radial1"
   cx="0"
   cy="0"
   r="1"
   gradientUnits="userSpaceOnUse"
   gradientTransform="matrix(615.835,0,0,644.951,2645.6,1069.29)"><stop
     offset="0"
     style="stop-color:rgb(97,44,117);stop-opacity:1"
     id="stop3" /><stop
     offset="0"
     style="stop-color:rgb(191,153,195);stop-opacity:1"
     id="stop4" /><stop
     offset="0.7"
     style="stop-color:rgb(123,81,144);stop-opacity:1"
     id="stop5" /><stop
     offset="1"
     style="stop-color:rgb(97,44,117);stop-opacity:1"
     id="stop6" /></radialGradient>
    </defs>
</svg>
