<?xml version="1.0" encoding="UTF-8" standalone="no"?>
<svg
   version="1.1"
   width="552.38531"
   height="562.51196"
   id="svg1"
   xmlns="http://www.w3.org/2000/svg"
   xmlns:svg="http://www.w3.org/2000/svg">
  <defs
     id="defs1" />
  <path
     d="m 302.70125,108.32545 c 0,0 57.96867,6.06072 108.06959,25.04246 0,0 7.11616,-5.24516 10.12253,-14.16834 0,0 -5.11723,30.09574 -2.87844,58.96013 2.62258,33.85371 17.86234,75.89498 64.28525,78.02183 57.45695,2.68655 60.71918,-68.65089 60.71918,-68.65089 0,0 10.61826,22.41988 9.24301,46.23101 -0.75096,13.86451 -8.5074,27.66505 -15.81545,39.09887 -15.41567,24.17893 -37.72362,40.41016 -46.59882,68.84279 -9.05111,29.10427 -14.72804,59.21599 -17.79838,89.43966 -1.99892,19.06169 -3.11831,38.2993 -3.05435,57.47293 0.11514,18.80584 1.43922,36.79611 4.06181,52.78747 l -102.95236,21.10859 c 0,0 -1.37525,-44.83976 -40.96985,-47.52631 0,0 0,-93.70935 23.79514,-167.66937 0,0 64.71702,-17.17472 66.02831,-91.13475 0,0 -76.64657,17.17472 -125.50017,26.41773 l -17.36661,63.40572 -17.11075,-63.40572 c -48.91756,-9.24301 -125.50017,-26.41773 -125.50017,-26.41773 1.31129,73.96003 66.02831,91.13475 66.02831,91.13475 23.79514,73.96002 23.79514,167.66937 23.79514,167.66937 -39.5946,2.68655 -40.90589,47.52631 -40.90589,47.52631 L 79.381958,541.40337 c 2.62258,-15.99136 3.8859,-33.98163 3.99784,-52.78747 0.064,-19.17363 -0.99147,-38.41124 -2.92642,-57.47293 C 77.271098,400.9193 71.642138,370.80758 62.59103,341.70331 53.715827,313.27068 31.407884,297.03945 15.928251,272.86052 8.6202011,261.4267 0.92835807,247.62616 0.11279907,233.76165 -1.1984919,209.95052 9.3558031,187.53064 9.3558031,187.53064 c 0,0 3.3262029,71.33744 60.7191819,68.65089 46.422915,-2.12685 61.726645,-44.16812 64.349225,-78.02183 2.19081,-28.86439 -2.87845,-58.96013 -2.87845,-58.96013 2.94241,8.92318 10.12253,14.16834 10.12253,14.16834 50.10092,-18.98174 108.06959,-25.04246 108.06959,-25.04246 C 257.66959,38.36326 276.09164,0 276.09164,0 c 0,0 19.06169,38.42723 26.60961,108.32545"
     id="path1" />
</svg>
