<svg xmlns="http://www.w3.org/2000/svg" width="212.73" height="153.554" viewBox="80.735 111.276 212.73 153.554"><g fill="gray"><path d="M122.377 262.378c-2.219-2.22-2.491-3.508-1.763-8.364 2.91-19.399 17.879-38.657 37.511-48.257 19.661-9.613 41.977-9.307 61.127.838 17.882 9.473 33.195 30.867 34.279 47.89.485 7.63.373 8-2.879 9.481-3.869 1.763-4.265 1.575-16.771-7.949-15.64-11.91-38.787-17.137-59.589-13.452-16.192 2.868-24.389 6.67-41.665 19.325-5.176 3.793-6.864 3.873-10.25.488"/><path d="M102.55 248.515c-2.922-3.136-3.458-13.382-1.295-24.785 1.397-7.367 2.432-5.473-14.604-26.738l-5.916-7.385 15.821.88 15.821.88 1.861-3.6c1.024-1.98 4.189-6.545 7.033-10.143l5.171-6.543-3.186-15.159c-1.752-8.337-2.955-15.389-2.673-15.67.282-.283 6.656 2.74 14.165 6.716l13.653 7.23 10.131-3.349c5.572-1.84 10.909-3.348 11.861-3.348 1.542 0 9.886-17.91 14.705-31.563.91-2.578 1.963-4.676 2.341-4.662s4.062 7.984 8.187 17.711l7.5 17.686 8.551 2.315c4.703 1.273 10.223 3.18 12.266 4.235 3.613 1.87 4.15 1.718 20.059-5.652 8.989-4.165 16.791-7.572 17.335-7.572s-1.472 7.34-4.48 16.311l-5.471 16.312 6.337 9.34 6.338 9.34 15.042-.85c8.944-.506 14.758-.39 14.341.286-.387.625-5.008 6.48-10.268 13.011-9.124 11.327-9.531 12.105-8.838 16.875.4 2.75 1.059 9.22 1.461 14.375.656 8.386.445 9.738-1.997 12.813-2.642 3.325-6.691 4.375-9.571 2.48-.768-.505-3.455-5.392-5.973-10.859-10.551-22.912-27.221-38.54-48.881-45.82-6.838-2.299-11.481-2.947-21.25-2.965-20.943-.039-37.724 7.262-53.313 23.191-7.329 7.49-16.099 20.935-18.696 28.66-2.976 8.856-8.6 11.35-13.568 6.016"/></g><path d="M135.552 253.407c14.372-11.299 30.59-16.424 51.949-16.417 22.027.007 35.742 4.44 51.71 16.71 9.524 7.318 11.214 7.023 9.354-1.637-3.245-15.113-15.726-31.668-30.285-40.174-17.403-10.169-39.754-10.688-58.81-1.364-8.146 3.985-20.487 15.066-25.485 22.882-4.516 7.063-9.622 21.88-8.524 24.738.887 2.313 1.47 2.04 10.091-4.738"/><path d="M112.375 238.204c18.907-41.699 60.397-61.995 99.736-48.789 12.377 4.154 19.046 8.164 28.872 17.355 9.229 8.633 16.313 18.534 21.83 30.508 4.704 10.21 4.235 9.654 6.533 7.748 2.771-2.299 2.101-16.94-1.265-27.646-.379-1.207 2.35-5.728 6.896-11.422 4.138-5.185 7.523-9.79 7.523-10.236 0-.445-4.922-.475-10.938-.064l-10.938.747-5-8.262c-2.75-4.543-6.213-9.407-7.693-10.808l-2.694-2.547 4.247-12.61c2.336-6.937 4.11-12.737 3.943-12.89-.166-.153-5.928 2.261-12.803 5.364-11.456 5.171-12.813 5.512-16.25 4.083-2.063-.857-8.604-2.984-14.537-4.727l-10.787-3.167-5.387-12.92c-2.962-7.106-5.702-12.912-6.087-12.902s-2.898 5.494-5.582 12.188c-2.684 6.693-5.24 12.588-5.68 13.1s-4.712 1.974-9.495 3.25-10.882 3.251-13.554 4.391l-4.859 2.071-10.454-5.698c-5.75-3.134-10.454-5.04-10.454-4.235s.954 6.096 2.119 11.757l2.119 10.293-6.026 7.996c-3.314 4.398-6.938 9.897-8.053 12.221l-2.027 4.227-11.566-.813c-6.361-.447-11.566-.477-11.566-.064 0 .411 3.429 4.944 7.62 10.073l7.62 9.325-1.37 7.866c-1.524 8.753-1.821 21.17-.537 22.453 1.836 1.831 3.048.494 6.544-7.216"/></svg>