<svg xmlns="http://www.w3.org/2000/svg" width="212.732" height="153.556"><path d="M41.641 151.104c-2.219-2.22-2.491-3.508-1.763-8.363 2.91-19.398 17.879-38.656 37.511-48.258 19.661-9.61 41.979-9.307 61.127.838 17.882 9.475 33.195 30.867 34.279 47.891.484 7.63.373 8-2.879 9.48-3.869 1.764-4.267 1.576-16.771-7.947-15.64-11.91-38.787-17.139-59.589-13.453-16.19 2.87-24.389 6.67-41.665 19.326-5.175 3.791-6.863 3.87-10.25.486"/><path d="M21.814 137.241c-2.922-3.138-3.458-13.384-1.295-24.785 1.397-7.367 2.434-5.474-14.604-26.738L0 78.333l15.82.88 15.82.88 1.861-3.602c1.023-1.979 4.188-6.543 7.033-10.142l5.171-6.543-3.185-15.159c-1.752-8.337-2.955-15.389-2.673-15.67.282-.283 6.656 2.74 14.165 6.716l13.653 7.23 10.131-3.349c5.572-1.842 10.909-3.349 11.861-3.349 1.542 0 9.886-17.91 14.704-31.563.909-2.578 1.964-4.676 2.342-4.662s4.062 7.984 8.187 17.711l7.5 17.687 8.551 2.315c4.703 1.272 10.225 3.18 12.268 4.234 3.612 1.87 4.148 1.72 20.059-5.652 8.989-4.164 16.791-7.57 17.335-7.57s-1.472 7.34-4.479 16.311l-5.473 16.312 6.338 9.34 6.339 9.34 15.042-.85c8.942-.508 14.758-.39 14.341.285-.387.625-5.008 6.48-10.27 13.011-9.124 11.327-9.529 12.104-8.838 16.875.4 2.75 1.061 9.22 1.461 14.375.656 8.387.445 9.737-1.997 12.813-2.642 3.323-6.689 4.375-9.569 2.48-.77-.507-3.455-5.394-5.975-10.859-10.551-22.912-27.221-38.54-48.881-45.822-6.838-2.297-11.479-2.944-21.25-2.963-20.941-.039-37.724 7.262-53.313 23.19-7.329 7.49-16.101 20.935-18.696 28.66-2.976 8.858-8.6 11.35-13.569 6.018"/><g transform="translate(0 .001)"><linearGradient id="a" x1=".091" x2="97.178" y1="105.301" y2="161.354" gradientTransform="matrix(1 0 0 -1 54 268.553)" gradientUnits="userSpaceOnUse"><stop offset=".2" style="stop-color:#536e78"/><stop offset=".5" style="stop-color:#d9eaf3"/><stop offset=".8" style="stop-color:#536e78"/></linearGradient><path fill="url(#a)" d="M54.816 142.132c14.372-11.3 30.592-16.425 51.949-16.417 22.027.007 35.742 4.438 51.71 16.709 9.524 7.318 11.214 7.023 9.354-1.637-3.245-15.112-15.728-31.668-30.285-40.174-17.403-10.169-39.754-10.688-58.811-1.363-8.146 3.983-20.485 15.065-25.483 22.882-4.518 7.063-9.622 21.879-8.524 24.737.887 2.314 1.47 2.041 10.09-4.737" style="fill:url(#a)"/><linearGradient id="b" x1="-26.468" x2="127.582" y1="130.134" y2="219.074" gradientTransform="matrix(1 0 0 -1 54 268.553)" gradientUnits="userSpaceOnUse"><stop offset=".2" style="stop-color:#536e78"/><stop offset=".5" style="stop-color:#d9eaf3"/><stop offset=".8" style="stop-color:#536e78"/></linearGradient><path fill="url(#b)" d="M31.639 126.929C50.546 85.23 92.036 64.934 131.375 78.14c12.377 4.153 19.046 8.164 28.872 17.354 9.229 8.633 16.313 18.534 21.83 30.508 4.703 10.211 4.233 9.654 6.531 7.748 2.771-2.299 2.103-16.938-1.265-27.646-.379-1.207 2.351-5.729 6.896-11.422 4.138-5.186 7.521-9.791 7.521-10.235 0-.445-4.922-.476-10.938-.064l-10.938.746-5-8.262c-2.75-4.543-6.213-9.406-7.692-10.808l-2.693-2.547 4.247-12.611c2.336-6.936 4.108-12.735 3.941-12.889s-5.928 2.261-12.803 5.364c-11.456 5.171-12.813 5.512-16.25 4.082-2.063-.856-8.604-2.983-14.537-4.727l-10.787-3.167-5.387-12.92c-2.962-7.106-5.702-12.912-6.087-12.901-.385.01-2.898 5.493-5.582 12.188-2.685 6.693-5.24 12.588-5.68 13.1s-4.713 1.975-9.495 3.25c-4.783 1.276-10.882 3.252-13.555 4.392l-4.858 2.071-10.454-5.699c-5.75-3.133-10.454-5.039-10.454-4.234s.954 6.096 2.119 11.757l2.119 10.293-6.026 7.996c-3.313 4.397-6.938 9.897-8.053 12.222l-2.027 4.227-11.564-.813c-6.361-.447-11.566-.479-11.566-.064 0 .411 3.429 4.943 7.62 10.072l7.62 9.326-1.37 7.865c-1.524 8.752-1.821 21.17-.537 22.453 1.838 1.831 3.05.495 6.546-7.216" style="fill:url(#b)"/></g></svg>