<svg xmlns="http://www.w3.org/2000/svg" xml:space="preserve" width="272.798" height="314.999" viewBox="37 0 272.798 314.999"><g transform="translate(-26.763 -18.653)"><path d="m200.162 18.653 136.399 78.752v157.498l-136.399 78.749-136.399-78.749V97.405z"/><linearGradient id="a" x1="91.889" x2="308.435" y1="267.006" y2="85.302" gradientUnits="userSpaceOnUse"><stop offset="0" style="stop-color:#8d742f"/><stop offset=".029" style="stop-color:#927934"/><stop offset=".197" style="stop-color:#aa914b"/><stop offset=".3" style="stop-color:#b39a54"/><stop offset=".315" style="stop-color:#b9a059"/><stop offset=".368" style="stop-color:#cab068"/><stop offset=".427" style="stop-color:#d4ba71"/><stop offset=".5" style="stop-color:#d7bd74"/><stop offset=".573" style="stop-color:#d4ba71"/><stop offset=".632" style="stop-color:#cab068"/><stop offset=".685" style="stop-color:#b9a059"/><stop offset=".7" style="stop-color:#b39a54"/><stop offset=".803" style="stop-color:#aa914b"/><stop offset=".971" style="stop-color:#927934"/><stop offset="1" style="stop-color:#8d742f"/></linearGradient><path fill="url(#a)" d="m75.869 247.914 124.293 71.761 124.293-71.761v-143.52L200.162 32.631 75.869 104.394z" style="fill:url(#a)"/><path d="M180.809 114.424c-8.294-26.815 5.594-49.383 5.594-49.383s-1.543 14.465 8.681 27.777 33.758 32.215 46.876 46.106c13.118 13.889 21.412 26.619 21.412 26.619-.771-19.677-40.51-53.048-45.331-57.678-4.823-4.629-8.876-8.103-8.876-18.135 0-10.03 5.212-17.747 5.212-17.747-.194 3.667.383 15.047 9.45 27.009s40.897 40.315 51.121 50.348 12.087 28.102 12.087 31.444c0 3.344-.771 9.004-.771 9.004 13.118-.13 10.029 13.115 10.029 13.115 12.092-5.53 15.563-16.719 15.563-16.719 5.788 38.583-23.536 52.472-23.536 52.472 4.758-24.822-21.733-25.593-25.077-25.593-3.343 0-8.871.901-8.871.901 9.77-15.433-10.933-21.606-28.808-21.606-17.878 0-24.694 7.072-24.694 7.072 16.719-1.414 22.893 3.604 22.893 3.604s-7.718 6.171-7.718 14.273c0 11.962 14.276 8.746 14.276 8.746s-5.145 3.599-5.145 8.744c0 10.933 14.531 7.201 14.531 7.201-6.814 11.96 2.96 14.66 9.646 14.66 6.688 0 13.439-3.921 13.439-3.921-17.17 38.581-74.783 31.187-74.783 31.187 26.877-8.232 25.721-25.204 25.721-25.204-4.246 5.528-11.831 3.471-11.831 3.471s6.557-5.4 6.557-15.305c0-14.789-15.947-34.339-43.34-34.339-5.401 0-15.688 1.547-15.688 1.547 14.146-23.408 42.181-30.482 42.181-30.482-6.816-6.814-22.505-7.585-22.505-7.585 15.304-11.446 42.438-13.118 42.438-13.118C165.505 153.134 143 182.841 143 182.841c11.575-.386 18.262 3.471 18.262 3.471-28.293 6.559-45.655 27.267-45.655 27.267s3.859-20.708-5.015-30.479c-8.874-9.775-26.363-7.332-26.363-7.332 24.434-24.562 42.31-22.247 42.31-32.407 0-14.532-18.391-22.634-18.391-22.634 19.034-5.145 32.666 2.059 32.666 2.059-10.031-9.003-8.23-34.211-8.23-34.211 19.163 25.723 27.604 25.406 46.812 36.523 19.548 11.318 27.522 23.663 27.522 23.663-1.479-15.625-26.109-34.337-26.109-34.337m67.388 68.289c5.018 4.114 13.245 2.313 13.245 2.313-2.312-12.858-14.917-22.89-19.161-25.72-4.241-2.828-6.687-1.929-6.687-1.929-3.858 9.258 7.589 21.222 12.603 25.336"/></g></svg>