<svg xmlns="http://www.w3.org/2000/svg" xml:space="preserve" width="272.8" height="314.997" viewBox="37 0 272.8 314.997"><g transform="translate(-26.56 -18.653)"><path d="M63.56 254.9V97.405l136.4-78.752 136.4 78.752V254.9l-136.4 78.75z" style="fill:#fff;fill-opacity:1"/><linearGradient id="a" x1="91.686" x2="308.23" y1="267.01" y2="85.303" gradientUnits="userSpaceOnUse"><stop offset="0" style="stop-color:#612c75"/><stop offset=".023" style="stop-color:#643078"/><stop offset=".195" style="stop-color:#754889"/><stop offset=".3" style="stop-color:#7b5190"/><stop offset=".323" style="stop-color:#8c639d"/><stop offset=".361" style="stop-color:#a37bae"/><stop offset=".401" style="stop-color:#b38cba"/><stop offset=".445" style="stop-color:#bc96c1"/><stop offset=".5" style="stop-color:#bf99c3"/><stop offset=".555" style="stop-color:#bc96c1"/><stop offset=".599" style="stop-color:#b38cba"/><stop offset=".639" style="stop-color:#a37bae"/><stop offset=".677" style="stop-color:#8c639d"/><stop offset=".7" style="stop-color:#7b5190"/><stop offset=".805" style="stop-color:#754889"/><stop offset=".977" style="stop-color:#643078"/><stop offset="1" style="stop-color:#612c75"/></linearGradient><path fill="url(#a)" d="M199.96 32.631 75.666 104.39v143.52l124.294 71.77 124.29-71.77V104.39z" style="fill:url(#a)"/><path d="M180.61 114.42c-8.3-26.811 5.59-49.379 5.59-49.379s-1.54 14.465 8.68 27.777 33.76 32.212 46.88 46.102c13.11 13.89 21.41 26.62 21.41 26.62-.77-19.67-40.51-53.04-45.33-57.67-4.83-4.63-8.88-8.108-8.88-18.14 0-10.03 5.21-17.747 5.21-17.747-.19 3.667.39 15.047 9.45 27.009 9.07 11.958 40.9 40.318 51.12 50.348 10.23 10.03 12.09 28.1 12.09 31.44 0 3.35-.77 9.01-.77 9.01 13.12-.13 10.03 13.11 10.03 13.11 12.09-5.53 15.56-16.72 15.56-16.72 5.79 38.59-23.53 52.48-23.53 52.48 4.75-24.83-21.74-25.6-25.08-25.6s-8.87.9-8.87.9c9.77-15.43-10.93-21.6-28.81-21.6s-24.69 7.07-24.69 7.07c16.72-1.41 22.89 3.6 22.89 3.6s-7.72 6.18-7.72 14.28c0 11.96 14.28 8.74 14.28 8.74s-5.15 3.6-5.15 8.75c0 10.93 14.53 7.2 14.53 7.2-6.81 11.96 2.96 14.66 9.65 14.66s13.44-3.92 13.44-3.92c-17.17 38.58-74.78 31.18-74.78 31.18 26.87-8.23 25.72-25.2 25.72-25.2-4.25 5.53-11.83 3.47-11.83 3.47s6.55-5.4 6.55-15.3c0-14.79-15.95-34.34-43.34-34.34-5.4 0-15.69 1.54-15.69 1.54 14.15-23.4 42.19-30.48 42.19-30.48-6.82-6.81-22.51-7.58-22.51-7.58 15.3-11.45 42.44-13.12 42.44-13.12-46.04-9.78-68.55 19.93-68.55 19.93 11.58-.38 18.27 3.47 18.27 3.47-28.29 6.56-45.66 27.27-45.66 27.27s3.86-20.71-5.01-30.48c-8.88-9.77-26.365-7.33-26.365-7.33 24.435-24.56 42.305-22.25 42.305-32.41 0-14.53-18.39-22.63-18.39-22.63 19.04-5.15 32.67 2.06 32.67 2.06-10.03-9.01-8.23-34.215-8.23-34.215 19.16 25.725 27.6 25.405 46.81 36.525 19.55 11.32 27.52 23.66 27.52 23.66-1.47-15.62-26.1-34.34-26.1-34.34m67.38 68.29c5.02 4.12 13.25 2.32 13.25 2.32-2.31-12.86-14.92-22.89-19.16-25.72s-6.69-1.93-6.69-1.93c-3.86 9.25 7.59 21.22 12.6 25.33" style="fill:#fff;fill-opacity:1"/></g></svg>