<svg xmlns="http://www.w3.org/2000/svg" width="600" height="600"><radialGradient id="a" cx="0" cy="0" r="1" fx="0" fy="0" gradientTransform="matrix(17.97143 0 0 -17.97143 748 372.093)" gradientUnits="userSpaceOnUse" spreadMethod="pad"><stop offset="0" style="stop-color:#ebd491"/><stop offset=".7" style="stop-color:#d2bb7b"/><stop offset="1" style="stop-color:#8b723c"/></radialGradient><path d="M0 300c0 165.42 134.595 300 300 300s300-134.58 300-300C600 134.595 465.405 0 300 0S0 134.595 0 300" style="fill:#fff"/><path d="M91.755 321.51c.464 2.4.12 4.575.06 7.32-.12 6.45.704 13.065 1.695 19.455 4.17 26.55 16.59 48.51 35.52 67.44 9.54 9.495 19.92 18.165 30.585 26.43 5.325 4.095 10.71 8.145 16.17 12.18 2.685 1.995 6.975 8.145 8.31 1.59 1.184-6.15 1.066-10.38 4.515-16.005 7.44-12.06 29.715 0 30.645 11.145.946 11.13 4.635 42.705 30.585 45.525 26.025 2.745 36.21 6.495 45.525 10.185 6.855 2.76 17.055.586 24.09-.164 9.96-1.066 19.8-2.52 29.64-4.23 3.105-.525 6.75-.465 8.145-3.855 1.41-3.405-1.05-7.215-3.33-9.495-5.565-5.505-14.235-7.92-21.27-10.785-5.865-2.4-11.835-4.8-17.82-6.795-7.2-2.4-14.64-3.51-19.98-9.495-7.905-8.73-9.015-21.39-8.55-32.7.464-12.24 1.935-24.9 8.145-35.73 4.275-7.44 7.62-15.42 11.13-23.265 2.055-4.515 9.615-21.33 4.635-25.425-4.755-3.99-15.48 2.865-16.71 7.845-2.745 11.13-23.19 11.13-23.19 11.13s-34.35-.93-49.23 5.565c-14.82 6.51-55.665-1.815-69.6-21.33-.886-1.335-6.21-.81-7.74-1.755-5.445-3.285-6.09-18.93-.586-22.38 7.44-4.635 0-34.335-26.895-34.335-8.79 0-18.81 1.35-25.665 7.44-4.86 4.275-5.325 9.375-2.985 15.12.99 2.64 2.64 4.98 3.69 7.68.18.585.346 1.11.465 1.695m101.55-191.61s-56.085 13.71-51.45 55.44c0 0-29.355 9.54-37.74 36.435-8.31 26.955 1.875 34.395 13.02 34.395 11.19 0 20.445-4.62 20.445-4.62s16.695-3.69 25.95 2.745c9.315 6.51 49.23 5.565 58.545-7.44 9.255-13.005 30.585 0 39.9 22.335 9.255 22.26 38.025 29.7 47.34 2.745 0 0 8.325-35.265 0-82.62 0 0-28.77-26.01-66.855-32.46-38.085-6.495-43.59-9.315-49.155-26.955m226.395 119.775c0-58.485-61.23-77.985-61.23-77.985s-13.935-2.76-13.935-13.95c0 0-23.79.345-37.68-7.095 0 0-12.42-3.105-12.42-11.415 0-8.385-62.235-24.855-40.365-42.96 0 0 161.535-37.5 244.98 127.86 0 0-34.755-18.105-34.755 30.645 0 33.69 22.56 43.995 41.31 42.12 0 0 33.75 117.195-130.425 179.235 0 0-11.835-3.45-6.975-14.64 4.86-11.07-6.975-11.07-6.975-11.07s-16.695 1.335-16.695-22.335 6.27-25.725 6.27-25.725l25.08-19.5s5.565-4.875.69-11.13c-4.92-6.27-17.4-20.925-17.4-28.545 0-5.565 3.285-10.02 6.975-12.075 0 0 53.55 8.205 53.55-81.435M300 537.84C168.87 537.84 62.175 431.13 62.175 300S168.87 62.175 300 62.175 537.825 168.87 537.825 300 431.13 537.84 300 537.84m0-514.86C147.015 22.98 22.905 147.015 22.905 300c0 153.045 124.11 277.095 277.095 277.095S577.095 453.045 577.095 300c0-152.985-124.11-277.02-277.095-277.02" style="fill:#8b723c"/><path d="M730.027 372.09c0-9.906 8.063-17.969 17.973-17.969 9.906 0 17.973 8.063 17.973 17.969 0 9.91-8.067 17.972-17.973 17.972-9.91 0-17.973-8.062-17.973-17.972m1.618 0c0 9.019 7.335 16.359 16.355 16.359s16.355-7.34 16.355-16.359c0-9.016-7.335-16.352-16.355-16.352s-16.355 7.336-16.355 16.352m13.531 13.125c-.035-.039-.043-.067-.047-.074.019-.289 1.191-.895 1.637-1.125.847-.438 1.363-.704 1.363-1.204 0-.074.238-.222.449-.277l.063-.015.05-.028c.75-.402 2.094-.418 2.243-.418h.535v-.496c0-.324.527-.441.582-.457.043-.012 4.429-1.457 4.429-5.672 0-2.297-.511-3.969-1.523-4.972a3.28 3.28 0 0 0-2.316-.969h-.082a.44.44 0 0 1-.118-.289q.014-.284.907-1.41l.148-.188c.453-.578.184-1.172-.129-1.445l-1.672-1.301-.035-.027c-.047-.078-.191-.395-.191-1.293 0-.301.051-.7.281-.883a.53.53 0 0 1 .336-.106c.102 0 .625-.019.898-.437.129-.195.231-.524.024-1.004-.035-.074-.047-.137-.035-.168a.2.2 0 0 1 .062-.062c8.926 3.464 8.547 9.339 8.274 10.89-1.344.047-2.856.938-2.856 3.324 0 2.418 1.262 2.743 1.863 2.762-3.761 6.539-9.527 7.547-12.718 7.547-1.215 0-2.106-.145-2.422-.203m-7.223-5.422.043-.402-.383-.129c-.015-.004-1.722-.586-2.191-2.106-.309-.992-.152-1.355-.067-1.468.083-.114.239-.172.454-.172.609 0 1.132.257 1.14.257l.055.028.058.015c.016 0 .376.079.813.079.543 0 .988-.118 1.316-.344.094-.067.485-.172 1.125-.172 1.094 0 1.887.281 2.079.547.257.359.632.554 1.066.554.91 0 1.945-.898 2.461-2.136.254-.606.793-1.032 1.312-1.032.524 0 .786.442.899.766.004.024.5 2.207.023 5.129-.453.371-2.074 1.598-4.074 1.938-2.301.394-3.043.621-3.504 1.667-.883-.312-2.824-1.21-2.625-3.019m-3.582-7.871c-.109-.098-.176-.184-.066-.449q.04-.105.097-.203.083-.157.149-.313c.023-.062.039-.125.058-.199a1.5 1.5 0 0 0 .016-.449l-.008-.145c-.004-.43.059-.871.113-1.211.25-1.594.977-2.973 2.223-4.219.539-.539 1.176-1.086 1.992-1.722q.463-.353.926-.7c.043.223.113.454.277.715.227.368.606.575 1.063.575.805 0 1.832-.688 1.906-1.54.133-1.609.672-2.476 1.594-2.578 1.742-.183 2.465-.429 3.168-.711q.133-.053.383-.054c.23 0 .48.035.703.066l.281.035a30 30 0 0 1 1.945.274l.079.011a.1.1 0 0 1-.028.032c-.219.215-.582.355-.937.488l-.317.125c-.383.156-.769.312-1.16.441l-.266.082c-.417.125-.894.266-1.277.688-.687.754-.726 1.805-.695 2.535.027.82.125 1.774.605 2.606.215.39.399.796.582 1.203l.145.32c.234.527.324.836.355 1.008-.097-.055-.203-.129-.226-.172-.27-1.09-1.852-1.121-2.043-1.121l-.285.004c-1.27 0-2.309-.125-2.782-.336-.285-.121-.652-.188-1.093-.188-1.34 0-3.168.575-4.047 1.641-.012 0-.016.004-.024.004-.144.012-.304.023-.457.113-.492.301-.531 1.004-.535 1.211 0 .527.18.941.426 1.066.031.083.019.426-.223.793-.191.29-.566.641-1.238.641-.648 0-1.102-.121-1.379-.367" style="fill:url(#a)" transform="matrix(15 0 0 -15 -10920 5881.41)"/></svg>