<svg xmlns="http://www.w3.org/2000/svg" width="600" height="600"><radialGradient id="a" cx="0" cy="0" r="1" fx="0" fy="0" gradientTransform="matrix(17.9712 0 0 -17.9712 665.501 372.093)" gradientUnits="userSpaceOnUse" spreadMethod="pad"><stop offset="0" style="stop-color:#d9eaf3"/><stop offset=".663" style="stop-color:#99aebc"/><stop offset="1" style="stop-color:#536e78"/></radialGradient><path d="M0 300c0 165.42 134.595 300 300 300s300-134.58 300-300C600 134.595 465.405 0 300 0S0 134.595 0 300" style="fill:#fff"/><path d="M91.755 321.51c.524 2.4.12 4.575.06 7.32-.12 6.45.704 13.065 1.755 19.455 4.11 26.55 16.53 48.51 35.46 67.44 9.54 9.495 19.98 18.165 30.585 26.43 5.325 4.095 10.71 8.145 16.17 12.18 2.745 1.995 7.035 8.145 8.31 1.59 1.23-6.15 1.066-10.38 4.515-16.005 7.44-12.06 29.715 0 30.645 11.145.946 11.13 4.635 42.705 30.645 45.525 25.965 2.745 36.21 6.495 45.465 10.185 6.855 2.76 17.055.586 24.15-.164 9.9-1.066 19.74-2.52 29.58-4.23 3.105-.525 6.75-.465 8.145-3.855 1.41-3.405-1.05-7.215-3.33-9.495-5.565-5.505-14.235-7.92-21.21-10.785-5.925-2.4-11.835-4.8-17.88-6.795-7.2-2.4-14.58-3.51-19.98-9.495-7.905-8.73-8.955-21.39-8.55-32.7.464-12.24 1.935-24.9 8.145-35.73 4.275-7.44 7.62-15.42 11.13-23.265 2.055-4.515 9.675-21.33 4.635-25.425-4.755-3.99-15.42 2.865-16.71 7.845-2.745 11.13-23.145 11.13-23.145 11.13s-34.395-.93-49.215 5.565c-14.88 6.51-55.725-1.815-69.6-21.33-.946-1.335-6.21-.81-7.8-1.755-5.445-3.285-6.09-18.93-.586-22.38 7.44-4.635 0-34.335-26.895-34.335-8.79 0-18.81 1.35-25.665 7.44-4.86 4.275-5.325 9.375-2.985 15.12 1.05 2.64 2.64 4.98 3.69 7.68.18.585.346 1.11.465 1.695m101.55-191.61s-56.085 13.71-51.45 55.44c0 0-29.355 9.54-37.68 36.435-8.37 26.955 1.815 34.395 12.96 34.395 11.19 0 20.445-4.62 20.445-4.62s16.695-3.69 26.01 2.745c9.255 6.51 49.17 5.565 58.485-7.44 9.255-13.005 30.585 0 39.9 22.335 9.255 22.26 38.025 29.7 47.34 2.745 0 0 8.325-35.265 0-82.62 0 0-28.77-26.01-66.855-32.46-38.085-6.495-43.59-9.315-49.155-26.955m226.395 119.775c0-58.485-61.23-77.985-61.23-77.985s-13.875-2.76-13.875-13.95c0 0-23.79.345-37.74-7.095 0 0-12.42-3.105-12.42-11.415 0-8.385-62.175-24.855-40.365-42.96 0 0 161.535-37.5 244.98 127.86 0 0-34.755-18.105-34.755 30.645 0 33.69 22.56 43.995 41.31 42.12 0 0 33.75 117.195-130.425 179.235 0 0-11.835-3.45-6.915-14.64 4.86-11.07-6.975-11.07-6.975-11.07s-16.695 1.335-16.695-22.335 6.27-25.725 6.27-25.725l25.02-19.5s5.565-4.875.69-11.13c-4.92-6.27-17.4-20.925-17.4-28.545 0-5.565 3.345-10.02 7.035-12.075 0 0 53.49 8.205 53.49-81.435M300 537.84C168.87 537.84 62.175 431.13 62.175 300S168.87 62.175 300 62.175 537.825 168.87 537.825 300 431.13 537.84 300 537.84m0-514.86C147.015 22.98 22.905 147.015 22.905 300c0 153.045 124.11 277.095 277.095 277.095 153.045 0 277.095-124.05 277.095-277.095 0-152.985-124.05-277.02-277.095-277.02" style="fill:#536e78"/><path d="M647.527 372.094c0-9.91 8.063-17.973 17.973-17.973s17.973 8.063 17.973 17.973-8.063 17.968-17.973 17.968-17.973-8.058-17.973-17.968m1.618 0c0 9.015 7.335 16.355 16.355 16.355s16.355-7.34 16.355-16.355c0-9.02-7.335-16.36-16.355-16.36s-16.355 7.34-16.355 16.36m13.531 13.117a.2.2 0 0 1-.047-.066c.019-.293 1.195-.903 1.637-1.129.851-.438 1.367-.704 1.367-1.204 0-.074.238-.222.449-.281l.059-.011.05-.032c.75-.398 2.094-.41 2.247-.41h.535v-.504c0-.32.519-.433.578-.449.043-.016 4.429-1.457 4.429-5.676 0-2.301-.511-3.972-1.519-4.972a3.3 3.3 0 0 0-2.32-.973q-.042-.001-.082.004a.44.44 0 0 1-.114-.293c.004-.188.313-.664.914-1.418l.141-.18c.449-.578.18-1.168-.137-1.441l-1.668-1.301-.031-.023c-.047-.075-.191-.383-.191-1.301 0-.297.047-.696.281-.879a.5.5 0 0 1 .312-.102h.02c.102 0 .629-.023.902-.441.125-.191.231-.524.02-1-.035-.078-.047-.145-.031-.172a.2.2 0 0 1 .058-.062c8.93 3.464 8.543 9.343 8.27 10.89-1.34.051-2.852.938-2.852 3.324 0 2.422 1.266 2.743 1.863 2.762-3.761 6.539-9.527 7.547-12.718 7.547-1.219 0-2.11-.148-2.422-.207m-7.223-5.418.043-.402-.387-.129c-.015-.008-1.714-.59-2.187-2.102-.309-.992-.149-1.359-.067-1.472.083-.114.239-.172.454-.172.613 0 1.136.254 1.14.257l.059.028.054.011c.016.004.376.086.817.086.543 0 .984-.117 1.312-.351.094-.063.485-.168 1.125-.168 1.098 0 1.891.281 2.079.547.257.355.636.554 1.066.554.91 0 1.949-.898 2.469-2.136.25-.606.785-1.032 1.304-1.032.524 0 .786.446.903.77.004.02.5 2.207.019 5.125-.453.371-2.074 1.598-4.074 1.938-2.301.39-3.043.621-3.504 1.667-.883-.312-2.824-1.214-2.625-3.019m-3.582-7.871c-.105-.098-.176-.184-.066-.449.027-.071.062-.137.097-.203q.082-.152.153-.321c.023-.066.039-.121.054-.191.036-.176.028-.32.016-.449l-.004-.145a6.8 6.8 0 0 1 .113-1.215c.246-1.59.973-2.972 2.223-4.215.676-.679 1.422-1.277 1.988-1.718.309-.243.617-.473.926-.704.043.219.117.454.277.715a1.21 1.21 0 0 0 1.063.575c.805 0 1.836-.688 1.906-1.536.137-1.613.676-2.48 1.598-2.578 1.73-.187 2.457-.433 3.164-.715q.135-.053.387-.054c.234 0 .48.035.699.062l.281.035c.652.071 1.301.168 1.945.278l.082.011q-.015.013-.031.032c-.219.215-.586.355-.945.492l-.324.125c-.375.156-.758.312-1.145.437l-.269.082c-.418.125-.895.266-1.27.688-.691.754-.73 1.809-.703 2.535.035.82.129 1.774.609 2.609.215.379.395.778.582 1.2l.137.312c.238.528.328.836.359 1.012-.093-.055-.195-.129-.218-.172-.274-1.09-1.852-1.117-2.043-1.117l-.289.004c-1.266 0-2.305-.125-2.782-.332q-.427-.188-1.089-.188c-1.344-.004-3.176.571-4.051 1.637q-.012.005-.024.004c-.148.012-.308.027-.457.113-.492.301-.531 1.004-.535 1.211 0 .527.18.938.426 1.066.035.083.019.426-.219.79-.195.293-.566.644-1.242.644-.648 0-1.098-.121-1.379-.367" style="fill:url(#a)" transform="matrix(15 0 0 -15 -9682.5 5881.41)"/></svg>