<svg xmlns="http://www.w3.org/2000/svg" xml:space="preserve" width="367.253" height="450.003" viewBox="0 0 367.253 450.003"><g transform="translate(-4.337 -5.057)"><path d="M229.48 438.14v-3.9c11.41-2.55 22.23-14.26 22.23-14.26v-1.59c12.57-3.13 23.92-19.26 23.92-19.26v-4.74l4.77-4.12c34.97-30.22 60.33-66.7 75.09-126.68 0 0-14.46 2.3-23.03-7.19 3.31-6.86 6.34-16.07 6.32-29.12 16.49-12.8 23.18-34.28 19.67-63.71l-.64-5.29c4-4.99 6.84-9.87 8.61-14.7 3.35-9.2 5.17-18.48 5.17-27.76 0-26.282-9.74-43.719-9.74-43.719-3.34 3.68-8.22 7.233-8.22 7.233V62.458c-26.92-22.074-78.52-38.289-127.83-43.669 0 0-12.97-13.732-37.84-13.732-24.86 0-37.84 13.732-37.84 13.732-49.3 5.381-100.905 21.596-127.821 43.669v16.876s-4.89-3.553-8.218-7.233c0 0-9.744 17.437-9.744 43.719 0 9.28 1.824 18.56 5.177 27.76 1.764 4.83 4.608 9.71 8.601 14.7l-.633 5.29c-3.52 29.42 3.173 50.91 19.659 63.71-.02 13.05 3.021 22.26 6.332 29.12-8.57 9.49-23.039 7.19-23.039 7.19 14.765 59.98 40.121 96.46 75.09 126.68l4.776 4.12v4.74s11.34 16.13 23.91 19.26v1.59s10.83 11.71 22.23 14.26v3.9s15.45 16.92 41.52 16.92 41.52-16.92 41.52-16.92"/><path fill="#fff" d="M152.16 289.54c-5.63-6.24-9.75-10.47-12.34-12.69l-.3-.26-.62-.54c-5.28-4.54-11.8-8.42-26.66-8.42-13.979 0-32.152-.68-38.594-2.63-13.397-4.42-20.622-16.42-21.671-36.01 13.909 6.9 29.337 11.41 46.287 13.56 6.068.56 5.608-4.68.703-5.88C71.944 229 54.629 222.21 47.01 216.3c-12.861-9.57-17.833-26.57-14.913-50.98 19.591 15.39 35.989 25.85 49.191 31.37 9.884 4.67 11.346-3.14 0-9.03-33.646-19.08-52.959-35.45-57.945-49.12q-7.48-20.52-1.926-40.981 50.612 40.981 95.033 64.051c5.45 2.87 8.84 5.37 10.18 7.5 1.81 3.3 1.9 8.01 1.9 12.53 0 21.26 27.13 44.45 59.42 44.45h.97c31.88-.46 58.46-23.4 58.46-44.45 0-4.52.1-9.23 1.91-12.53q1.995-3.195 10.17-7.5 44.43-23.07 95.04-64.051c3.7 13.651 3.06 27.301-1.93 40.971-4.98 13.68-24.3 30.05-57.95 49.13-11.34 5.89-9.88 13.7 0 9.03 13.2-5.52 29.61-15.97 49.2-31.37 2.91 24.41-2.06 41.4-14.92 50.97-7.61 5.92-24.93 12.71-51.95 20.38-4.91 1.2-5.37 6.43.7 5.88 16.95-2.15 32.38-6.66 46.29-13.57-1.05 19.6-8.27 31.6-21.67 36.02-4.25 1.29-13.62 2.02-23.51 2.37l-1.81.1c-4.51.14-9.08.19-13.28.19-15.73 0-22.11 4.36-27.58 9.23-2.59 2.22-6.7 6.45-12.34 12.69-1.99-19.74-13.92-30.32-35.8-31.75-21.86 1.43-33.79 12.01-35.79 31.75z"/><linearGradient id="a" x1="37.019" x2="338.9" y1="230.05" y2="230.05" gradientUnits="userSpaceOnUse"><stop offset="0" style="stop-color:#626e77"/><stop offset=".051" style="stop-color:#67747d"/><stop offset=".117" style="stop-color:#74838d"/><stop offset=".192" style="stop-color:#8b9da8"/><stop offset=".25" style="stop-color:#a0b6c2"/><stop offset=".253" style="stop-color:#a1b7c3"/><stop offset=".325" style="stop-color:#adc6d4"/><stop offset=".403" style="stop-color:#b5cede"/><stop offset=".5" style="stop-color:#b7d1e1"/><stop offset=".597" style="stop-color:#b5cede"/><stop offset=".675" style="stop-color:#adc6d4"/><stop offset=".747" style="stop-color:#a1b7c3"/><stop offset=".75" style="stop-color:#a0b6c2"/><stop offset=".766" style="stop-color:#99adb9"/><stop offset=".825" style="stop-color:#81929c"/><stop offset=".885" style="stop-color:#707e88"/><stop offset=".944" style="stop-color:#65727b"/><stop offset="1" style="stop-color:#626e77"/></linearGradient><path fill="url(#a)" d="m161.76 431.94-.6-.51V295.64c0-17.85 8.94-27.47 26.8-28.84l.73.1c17.38 1.57 26.07 11.15 26.07 28.77v135.78l-.6.52c-6.61 5.6-15.35 8.4-26.2 8.4-10.86 0-19.59-2.8-26.2-8.4zm-22.83-140.58c4.41 4.68 8.82 9.97 13.23 15.86v113.09c-4.84-.55-9.25-2.73-13.23-6.58zm98.05 0v122.37c-3.98 3.85-8.39 6.03-13.23 6.58V307.22c4.41-5.89 8.82-11.18 13.23-15.86m-121.97-12.62c4.51 0 9.02 1.4 13.53 4.21v121.32c-5.28-2.1-9.79-5.5-13.53-10.24zm145.89 0v115.29c-3.74 4.73-8.25 8.14-13.53 10.24V282.95c4.51-2.81 9.02-4.21 13.53-4.21M54.837 265.81c3.826 5.99 8.321 9.41 13.49 10.28 5.169.86 17.443 1.75 36.823 2.65v100.39c-32.882-28.41-54.964-63.11-66.249-104.12 6.458-.29 11.773-3.35 15.938-9.2zm266.233 0c4.17 5.85 9.48 8.91 15.94 9.2-11.29 41.01-33.37 75.71-66.25 104.12V278.74c19.38-.9 31.66-1.79 36.82-2.65 5.17-.87 9.67-4.29 13.49-10.28m-159.34-55.93-.57-.4V28.635c6.21-5.713 14.5-8.664 24.89-8.859h3.82c10.38.195 18.68 3.146 24.89 8.859V209.48l-.58.4c-6.18 4.28-14.92 6.41-26.22 6.41-11.29 0-20.03-2.13-26.23-6.41m-9.57-156.892V202.9c-6.34-4.61-10.75-12.67-13.23-24.16V74.437q2.94-15.371 13.23-21.447zm71.59 0c6.87 4.052 11.27 11.202 13.23 21.449V178.74c-2.48 11.49-6.89 19.55-13.23 24.16V52.99Zm-95.22 35.526v68.666c-4.47-3.05-8.98-6.06-13.51-9.01v-37.49c0-10.45 4.5-17.833 13.51-22.166m118.84 0c9.02 4.333 13.53 11.716 13.53 22.166v37.49c-4.54 2.95-9.05 5.96-13.53 9.01zm-95.21-55.138v9.011c-13.88 6.202-21.76 17.418-23.62 33.647q-23.22 12.257-23.16 31.916v35.71c-24.047-13.31-46.1-27.8-66.143-43.48l-2.218-1.752V70.351C66.416 50.82 104.8 38.492 152.16 33.374Zm71.59 0c47.37 5.118 85.75 17.445 115.15 36.977v28.076l-2.22 1.741c-20.04 15.69-42.1 30.18-66.15 43.48v-35.7c0-13.104-7.68-23.743-23.16-31.915-1.86-16.229-9.74-27.444-23.63-33.646v-9.015z" style="fill:url(#a)"/></g></svg>