<svg xmlns="http://www.w3.org/2000/svg" width="600" height="510.335"><path d="M419.404 0H179.601l-1.149.153c-16.189 1.748-38.566 13.408-46.041 37.928L35.428 65.09l-.995.396C21.28 70.525 0 87.619 0 118.76c0 5.627.702 11.66 2.245 18.142l91.446 341.455 2.54 3.343c10.32 13.803 35.529 34.981 64.284 26.714 0 0 128.928-35.428 139.542-38.375 10.666 2.947 139.785 38.477 139.785 38.477 28.551 8.165 53.722-13.013 64.08-26.816l2.489-3.343 91.305-340.805c1.595-6.685 2.284-12.86 2.284-18.587 0-31.448-21.178-48.44-34.33-53.48l-.945-.396-96.982-27.008C460.267 13.561 437.839 1.901 421.7.153L420.552 0Z" style="fill:gray"/><path d="M180.749 21.777s-29.355 3.138-29.355 33.54L42.266 85.769S15.003 96.23 23.372 131.913l90.247 336.786s18.894 25.107 40.913 18.83l145.576-40.02 145.513 40.02c22.02 6.277 40.913-18.83 40.913-18.83l90.196-336.786c8.37-35.683-18.88-46.144-18.88-46.144L448.76 55.317c0-30.402-29.407-33.54-29.407-33.54z"/><path d="M181.693 34.343c-1.34.242-5.575 1.187-9.517 3.84-5.626 3.726-8.216 9.16-8.216 17.134v9.568S48.185 97.187 46.5 97.633c-3.049 1.442-12.12 6.877-12.12 21.37 0 2.946.409 6.238 1.25 9.976.154.6 88.015 328.455 89.406 333.737 3.89 4.389 15.296 15.794 26.063 12.758l148.957-41.016 149.047 41.016c10.716 3.036 22.083-8.37 25.961-12.758 1.455-5.282 89.265-333.138 89.456-333.737.856-3.738 1.25-7.03 1.25-9.977 0-14.492-9.121-19.927-12.106-21.369-1.697-.447-117.51-32.748-117.51-32.748v-9.568c0-7.974-2.59-13.408-8.178-17.134-3.98-2.653-8.177-3.597-9.568-3.84z" style="fill:gray"/><path d="M438.694 81.533v323.825s-2.794 21.025-19.583 21.025h-90.898l121.694 33.54s6.979 3.495 10.462-4.185l89.558-332.245s3.482-10.461-4.938-13.255zM55.113 110.94c-8.37 2.78-4.874 13.306-4.874 13.306l89.494 332.142c3.496 7.719 10.513 4.236 10.513 4.236l121.707-33.54h-90.949c-16.802 0-19.545-21.037-19.545-21.037V82.287Zm128.034-60.854h234.267c4.886 0 5.575 6.277 5.575 6.277v348.345c0 5.536-5.575 6.927-5.575 6.927H183.147c-4.937 0-4.937-6.927-4.937-6.927V56.363c0-4.185 4.937-6.277 4.937-6.277"/><path d="M317.673 123.901q5.185-1.225 12.502-1.225 18.902 0 34.293 10.37 15.41 10.37 17.533 23.627 2.144 13.257 2.144 17.524 0 19.513-14.942 33.23a2358 2358 0 0 0-21.943 15.238q22.555 4.286 37.038 22.26 14.472 17.993 14.472 35.976 0 16.768-5.94 30.638a34.7 34.7 0 0 1-19.973 19.36q-14.013 5.482-24.393 7.319-10.348 1.837-20.718 1.827a132.7 132.7 0 0 1-23.78-1.98 388 388 0 0 1-26.372-6.104q-15.707-4.113-28.812-4.113l-10.675.613-27.74 4.878a9.2 9.2 0 0 1-2.144-2.286 5.6 5.6 0 0 1-.908-3.205q0-1.224 1.837-2.745l35.67-10.053q1.225-.919 1.827-8.992.612-8.083.612-21.504 0-28.648-2.143-65.237-2.143-36.578-4.725-49.54-2.593-12.961-22.556-15.697-19.973-2.745-19.973-6.103 0-2.133 1.98-4.715a6.12 6.12 0 0 1 5.032-2.592q9.46 2.123 19.208 4.266 9.757 2.143 18.299 2.133 19.81 0 34.905-8.685 15.094-8.696 40.385-14.493m-41.457 98.764q0 22.26-.306 36.741l-.613 27.587q0 13.421 1.225 20.127t5.491 12.043q4.256 5.327 13.41 7.777 9.135 2.429 20.433 2.429 19.81 0 30.935-5.48 11.124-5.492 16.156-18.147 5.031-12.656 5.031-33.986 0-19.208-18.289-30.486a9083 9083 0 0 1-44.814-19.514 74.5 74.5 0 0 0 28.964-11.737q13.411-8.98 13.411-26.678v-5.185q0-15.85-10.818-26.668-10.84-10.818-27.904-10.818l-7.001.612q-15.86 2.133-20.892 14.472-5.031 12.35-5.031 34.292 0 5.512.306 16.473t.306 16.146" style="fill:gray;stroke-width:10.206"/></svg>