<svg xmlns="http://www.w3.org/2000/svg" xmlns:xlink="http://www.w3.org/1999/xlink" width="600.001" height="510.378"><radialGradient id="a" cx="0" cy="0" r="1" fx="0" fy="0" gradientTransform="matrix(17.57053 0 0 -17.57053 481.191 483.675)" gradientUnits="userSpaceOnUse" spreadMethod="pad"><stop offset="0" style="stop-color:#f6b91d"/><stop offset=".7" style="stop-color:#d3641c"/><stop offset="1" style="stop-color:#bf331c"/></radialGradient><radialGradient xlink:href="#a" id="b" cx="0" cy="0" r="1" fx="0" fy="0" gradientTransform="translate(300.075 255.787)scale(224.1758)" gradientUnits="userSpaceOnUse" spreadMethod="pad"/><path d="M419.389 0H179.565l-1.148.153c-16.14 1.748-38.57 13.41-46.046 37.932-20.337 5.677-96.991 27.01-96.991 27.01l-.944.396C21.23 70.53 0 87.627 0 118.77c0 5.626.65 11.661 2.194 18.142L93.7 478.398l2.488 3.343c10.36 13.805 35.533 34.984 64.291 26.716 0 0 128.926-35.43 139.592-38.378 10.615 2.948 139.758 38.48 139.758 38.48 28.554 8.166 53.714-13.013 64.087-26.818l2.488-3.343 91.351-340.834c1.557-6.685 2.246-12.86 2.246-18.59 0-31.45-21.18-48.444-34.333-53.483l-.945-.396s-76.602-21.333-96.94-27.01C460.255 13.562 437.876 1.9 421.685.153L420.537 0Z"/><path d="M180.764 21.779s-29.408 3.139-29.408 33.542l-109.1 30.455s-27.303 10.462-18.933 46.148l90.254 336.815s18.896 25.11 40.917 18.832l145.576-40.024 145.538 40.024c22.021 6.277 40.917-18.832 40.917-18.832l90.203-336.815c8.421-35.686-18.844-46.148-18.844-46.148L448.746 55.321c0-30.403-29.357-33.542-29.357-33.542z" style="fill:#bf331c"/><path d="M181.657 34.346c-1.34.242-5.524 1.187-9.518 3.84-5.575 3.726-8.216 9.161-8.216 17.135v9.57S48.138 97.194 46.44 97.64c-2.985 1.443-12.108 6.878-12.108 21.371 0 2.948.409 6.24 1.302 9.978.153.6 87.958 328.483 89.412 333.765 3.828 4.39 15.247 15.796 26.015 12.76l149.008-41.02 149.02 41.02c10.718 3.036 22.124-8.37 25.965-12.76 1.454-5.282 89.31-333.166 89.463-333.765.842-3.739 1.25-7.03 1.25-9.978 0-14.493-9.07-19.928-12.12-21.37-1.684-.447-117.469-32.752-117.469-32.752V55.32c0-7.974-2.64-13.409-8.165-17.134-3.994-2.654-8.23-3.598-9.57-3.84z"/><path d="M438.68 81.54v323.853s-2.794 21.026-19.546 21.026H328.19l121.705 33.542s6.966 3.496 10.462-4.185l89.553-332.272s3.495-10.463-4.874-13.257zM55.066 110.95c-8.37 2.781-4.886 13.307-4.886 13.307l89.514 332.171c3.534 7.72 10.513 4.236 10.513 4.236l121.705-33.542h-90.905c-16.842 0-19.585-21.04-19.585-21.04V82.294ZM183.1 50.09h234.3c4.886 0 5.626 6.278 5.626 6.278v348.374c0 5.537-5.626 6.928-5.626 6.928H183.1c-4.925 0-4.925-6.928-4.925-6.928V56.368c0-4.185 4.925-6.278 4.925-6.278" style="fill:#bf331c"/><path d="M184.4 55.22c-.6.408-1.097.956-1.097 1.199v348.22c0 .856.255 1.953-.153 1.953h233.445c.6-.306 1.301-.855 1.301-1.901l.051-347.673c-.102-.702-.497-1.646-.549-1.799zm259.358 350.862c-1.148 8.828-7.821 25.427-24.624 25.427h-53.268l86.21 23.872c.154.102.804.293 1.455.293.447 0 1.289 0 1.94-1.237l89.616-332.528c.14-.549 1.684-5.678-1.404-6.724l-99.823-26.92ZM56.712 115.784c-3.38 1.136-1.837 6.278-1.595 7.12l89.209 331.43c.956 2.042 1.85 2.042 2.296 2.042.65 0 1.25-.204 2.246-.65l85.266-23.528h-53.127c-16.842 0-23.463-16.586-24.714-26.065V88.966Z" style="fill:url(#b)"/><path d="M318.098 123.912q5.185-1.225 12.503-1.225 18.893 0 34.296 10.37 15.412 10.37 17.535 23.63 2.144 13.258 2.144 17.524 0 19.516-14.954 33.234a2358 2358 0 0 0-21.944 15.239q22.557 4.287 37.05 22.261 14.474 17.995 14.474 35.98 0 16.77-5.94 30.64a34.7 34.7 0 0 1-19.975 19.363q-14.025 5.481-24.395 7.318-10.37 1.838-20.72 1.827a132.7 132.7 0 0 1-23.782-1.98 388 388 0 0 1-26.385-6.103q-15.698-4.114-28.804-4.114l-10.676.613-27.742 4.879a9.2 9.2 0 0 1-2.144-2.287 5.6 5.6 0 0 1-.918-3.205q0-1.225 1.837-2.756l35.673-10.043q1.225-.919 1.837-9.003.613-8.073.613-21.495 0-28.651-2.144-65.243-2.143-36.581-4.726-49.544-2.602-12.963-22.557-15.698-19.975-2.746-19.975-6.104 0-2.133 1.98-4.716a6.12 6.12 0 0 1 5.032-2.592q9.452 2.123 19.21 4.266 9.758 2.144 18.3 2.133 19.802 0 34.908-8.686 15.086-8.696 40.389-14.493zm-41.46 98.772q0 22.261-.307 36.745l-.612 27.589q0 13.422 1.225 20.128t5.48 12.044q4.278 5.328 13.413 7.778 9.155 2.43 20.434 2.43 19.822 0 30.947-5.482 11.126-5.491 16.158-18.148t5.032-33.989q0-19.21-18.29-30.488a9084 9084 0 0 1-44.82-19.515 74.5 74.5 0 0 0 28.958-11.738q13.422-8.982 13.422-26.681v-5.185q0-15.852-10.82-26.671-10.84-10.82-27.905-10.82l-7.012.613q-15.852 2.133-20.884 14.473-5.032 12.35-5.032 34.296 0 5.491.306 16.474.307 10.972.307 16.147z" style="fill:#fff;stroke:#bf331c;stroke-width:12.7586;stroke-opacity:.392157"/><path d="M318.098 123.912q5.185-1.225 12.503-1.225 18.893 0 34.296 10.37 15.412 10.37 17.535 23.63 2.144 13.258 2.144 17.524 0 19.516-14.954 33.234a2358 2358 0 0 0-21.944 15.239q22.557 4.287 37.05 22.261 14.474 17.995 14.474 35.98 0 16.77-5.94 30.64a34.7 34.7 0 0 1-19.975 19.363q-14.025 5.481-24.395 7.318-10.37 1.838-20.72 1.827a132.7 132.7 0 0 1-23.782-1.98 388 388 0 0 1-26.385-6.103q-15.698-4.114-28.804-4.114l-10.676.613-27.742 4.879a9.2 9.2 0 0 1-2.144-2.287 5.6 5.6 0 0 1-.918-3.205q0-1.225 1.837-2.756l35.673-10.043q1.225-.919 1.837-9.003.613-8.073.613-21.495 0-28.651-2.144-65.243-2.143-36.581-4.726-49.544-2.602-12.963-22.557-15.698-19.975-2.746-19.975-6.104 0-2.133 1.98-4.716a6.12 6.12 0 0 1 5.032-2.592q9.452 2.123 19.21 4.266 9.758 2.144 18.3 2.133 19.802 0 34.908-8.686 15.086-8.696 40.389-14.493zm-41.46 98.772q0 22.261-.307 36.745l-.612 27.589q0 13.422 1.225 20.128t5.48 12.044q4.278 5.328 13.413 7.778 9.155 2.43 20.434 2.43 19.822 0 30.947-5.482 11.126-5.491 16.158-18.148t5.032-33.989q0-19.21-18.29-30.488a9084 9084 0 0 1-44.82-19.515 74.5 74.5 0 0 0 28.958-11.738q13.422-8.982 13.422-26.681v-5.185q0-15.852-10.82-26.671-10.84-10.82-27.905-10.82l-7.012.613q-15.852 2.133-20.884 14.473-5.032 12.35-5.032 34.296 0 5.491.306 16.474.307 10.972.307 16.147z" style="stroke:#bf331c;stroke-width:12.7586;stroke-opacity:0"/></svg>