<svg xmlns="http://www.w3.org/2000/svg" width="600" height="510.334"><radialGradient id="a" cx="0" cy="0" r="1" fx="0" fy="0" gradientTransform="translate(300.082 255.765)scale(224.15674)" gradientUnits="userSpaceOnUse" spreadMethod="pad"><stop offset="0" style="stop-color:#d9eaf3"/><stop offset=".7" style="stop-color:#99aebc"/><stop offset="1" style="stop-color:#536e78"/></radialGradient><path d="M419.353 0H179.601l-1.149.153c-16.189 1.748-38.617 13.408-46.092 37.928-20.336 5.677-96.932 27.008-96.932 27.008l-.995.395C21.28 70.524 0 87.618 0 118.759c0 5.627.702 11.66 2.245 18.142l91.446 341.455 2.54 3.343c10.307 13.803 35.529 34.981 64.284 26.714 0 0 128.915-35.428 139.53-38.375 10.665 2.947 139.784 38.477 139.784 38.477 28.564 8.165 53.722-13.013 64.094-26.816l2.488-3.343 91.293-340.805c1.594-6.685 2.296-12.86 2.296-18.587 0-31.448-21.178-48.44-34.33-53.48l-.945-.395-96.982-27.008C460.267 13.561 437.839 1.901 421.7.153L420.552 0Z"/><path d="M180.749 21.777s-29.355 3.138-29.355 33.54L42.253 85.769s-27.25 10.461-18.881 46.144l90.247 336.786s18.894 25.107 40.913 18.83l145.513-40.02 145.576 40.02c22.02 6.277 40.913-18.83 40.913-18.83l90.196-336.786c8.42-35.683-18.894-46.144-18.894-46.144L448.76 55.317c0-30.402-29.355-33.54-29.355-33.54z" style="fill:#536e78"/><path d="M181.693 34.343c-1.34.243-5.575 1.187-9.517 3.84-5.626 3.726-8.229 9.16-8.229 17.134v9.568S48.185 97.187 46.488 97.633c-3.036 1.442-12.106 6.877-12.106 21.37 0 2.946.396 6.238 1.25 9.976.153.6 88.001 328.455 89.405 333.737 3.878 4.389 15.296 15.794 26.012 12.758l149.047-41.016 148.957 41.016c10.767 3.036 22.172-8.37 26.012-12.758 1.442-5.282 89.303-333.138 89.405-333.737.893-3.738 1.302-7.03 1.302-9.977 0-14.492-9.122-19.927-12.12-21.369-1.684-.447-117.459-32.748-117.459-32.748v-9.568c0-7.974-2.64-13.408-8.216-17.134-3.942-2.653-8.177-3.597-9.568-3.84z"/><path d="M438.694 81.533v323.825s-2.794 21.025-19.545 21.025h-90.948l121.706 33.54s6.966 3.495 10.462-4.185l89.545-332.245s3.495-10.461-4.874-13.255zM55.113 110.94c-8.37 2.78-4.887 13.306-4.887 13.306l89.507 332.142c3.483 7.719 10.513 4.236 10.513 4.236l121.643-33.54H180.99c-16.789 0-19.583-21.037-19.583-21.037V82.287Zm127.97-60.854h234.331c4.873 0 5.575 6.277 5.575 6.277v348.345c0 5.536-5.575 6.927-5.575 6.927h-234.33c-4.874 0-4.874-6.927-4.874-6.927V56.363c0-4.185 4.873-6.277 4.873-6.277" style="fill:#536e78"/><path d="M184.383 55.216c-.6.409-1.046.957-1.046 1.2v348.191c0 .855.243 1.952-.204 1.952h233.425c.6-.306 1.352-.855 1.352-1.9l.051-347.644c-.102-.702-.497-1.646-.548-1.799zM443.77 406.05c-1.2 8.828-7.82 25.425-24.673 25.425h-53.263l86.254 23.87a3.8 3.8 0 0 0 1.454.293c.446 0 1.288 0 1.888-1.237l89.609-332.5c.191-.549 1.735-5.677-1.352-6.723L443.82 88.258ZM56.706 115.776c-3.343 1.136-1.786 6.277-1.544 7.12l89.201 331.402c.906 2.04 1.799 2.04 2.245 2.04.65 0 1.25-.203 2.246-.65l85.258-23.525H180.99c-16.79 0-23.461-16.584-24.66-26.063V88.96Z" style="fill:url(#a);stroke-width:12.7575"/><path d="M318.704 123.901q5.184-1.225 12.512-1.225 18.892 0 34.293 10.37t17.534 23.627 2.133 17.524q0 19.513-14.942 33.23a2358 2358 0 0 0-21.943 15.238q22.555 4.286 37.038 22.26 14.482 17.993 14.482 35.976 0 16.768-5.95 30.638a34.7 34.7 0 0 1-19.973 19.36q-14.013 5.482-24.393 7.319-10.349 1.837-20.718 1.827a132.7 132.7 0 0 1-23.78-1.98 388 388 0 0 1-26.372-6.104q-15.697-4.113-28.812-4.113l-10.665.613-27.75 4.878a9.2 9.2 0 0 1-2.134-2.286 5.6 5.6 0 0 1-.918-3.205q0-1.224 1.837-2.745l35.67-10.053q1.225-.919 1.827-8.992.612-8.083.612-21.504 0-28.648-2.143-65.237-2.123-36.578-4.725-49.54-2.593-12.961-22.556-15.697-19.973-2.745-19.973-6.103 0-2.133 1.98-4.715a6.12 6.12 0 0 1 5.032-2.592q9.46 2.123 19.207 4.266 9.757 2.143 18.3 2.133 19.81 0 34.904-8.685 15.095-8.696 40.386-14.493zm-41.457 98.764q0 22.26-.306 36.742l-.613 27.587q0 13.42 1.225 20.126 1.225 6.705 5.49 12.043 4.277 5.328 13.412 7.777 9.144 2.429 20.432 2.429 19.81 0 30.945-5.48 11.124-5.491 16.156-18.147t5.021-33.986q0-19.208-18.289-30.485a9083 9083 0 0 1-44.804-19.514 74.5 74.5 0 0 0 28.954-11.737q13.41-8.982 13.41-26.679v-5.174q0-15.86-10.818-26.679T309.56 140.67l-7.001.612q-15.86 2.133-20.892 14.472-5.021 12.35-5.032 34.292 0 5.512.307 16.473.306 10.961.306 16.146z" style="fill:#fff;stroke:#536e78;stroke-width:12.7575;stroke-opacity:.462745"/><path d="M318.704 123.901q5.184-1.225 12.512-1.225 18.892 0 34.293 10.37t17.534 23.627 2.133 17.524q0 19.513-14.942 33.23a2358 2358 0 0 0-21.943 15.238q22.555 4.286 37.038 22.26 14.482 17.993 14.482 35.976 0 16.768-5.95 30.638a34.7 34.7 0 0 1-19.973 19.36q-14.013 5.482-24.393 7.319-10.349 1.837-20.718 1.827a132.7 132.7 0 0 1-23.78-1.98 388 388 0 0 1-26.372-6.104q-15.697-4.113-28.812-4.113l-10.665.613-27.75 4.878a9.2 9.2 0 0 1-2.134-2.286 5.6 5.6 0 0 1-.918-3.205q0-1.224 1.837-2.745l35.67-10.053q1.225-.919 1.827-8.992.612-8.083.612-21.504 0-28.648-2.143-65.237-2.123-36.578-4.725-49.54-2.593-12.961-22.556-15.697-19.973-2.745-19.973-6.103 0-2.133 1.98-4.715a6.12 6.12 0 0 1 5.032-2.592q9.46 2.123 19.207 4.266 9.757 2.143 18.3 2.133 19.81 0 34.904-8.685 15.095-8.696 40.386-14.493zm-41.457 98.764q0 22.26-.306 36.742l-.613 27.587q0 13.42 1.225 20.126 1.225 6.705 5.49 12.043 4.277 5.328 13.412 7.777 9.144 2.429 20.432 2.429 19.81 0 30.945-5.48 11.124-5.491 16.156-18.147t5.021-33.986q0-19.208-18.289-30.485a9083 9083 0 0 1-44.804-19.514 74.5 74.5 0 0 0 28.954-11.737q13.41-8.982 13.41-26.679v-5.174q0-15.86-10.818-26.679T309.56 140.67l-7.001.612q-15.86 2.133-20.892 14.472-5.021 12.35-5.032 34.292 0 5.512.307 16.473.306 10.961.306 16.146z" style="stroke:#536e78;stroke-width:12.7575;stroke-opacity:0"/></svg>