<svg xmlns="http://www.w3.org/2000/svg" xmlns:xlink="http://www.w3.org/1999/xlink" width="600" height="625.391"><radialGradient id="a" cx="0" cy="0" r="1" fx="0" fy="0" gradientTransform="matrix(14.76904 0 0 -14.76904 219.678 146.531)" gradientUnits="userSpaceOnUse" spreadMethod="pad"><stop offset="0" style="stop-color:#ebd491"/><stop offset=".7" style="stop-color:#d2bb7b"/><stop offset="1" style="stop-color:#8b723c"/></radialGradient><radialGradient xlink:href="#a" id="b" cx="0" cy="0" r="1" fx="0" fy="0" gradientTransform="translate(306.687 312.394)scale(230.91062)" gradientUnits="userSpaceOnUse" spreadMethod="pad"/><path d="M222.373 56.676s-16.057 134.787-19.058 159.772C180.363 227.079 0 310.444 0 310.444s180.972 90.51 203.143 101.626c2.689 24.296 23.452 213.32 23.452 213.32s136.976-143.886 154.33-162.022c24.36 5.003 213.869 43.855 213.869 43.855s-91.605-171.857-103.143-193.48C503.565 292.183 600 117.636 600 117.636s-192.573 39.024-216.995 43.902C365.775 143.465 229.159 0 229.159 0Z" style="fill:#fff"/><path d="M249.062 59.912 373.78 190.854l174.61-35.35-87.274 157.989 83.115 155.925-172.53-35.365-124.719 131.003L228.3 394.543l-166.37-83.13 166.37-76.891Z" style="fill:#8b723c"/><path d="m235.991 235.444-.484 4.33-3.972 1.83-151.516 70.06 151.766 75.844 3.784 1.954.422 4.284 16.917 153.721 113.18-118.855 2.924-3.112 4.284.923 156.222 32.004-75.375-141.276-1.954-3.783 2.017-3.659 79.159-143.152-158.068 32.005-4.206.781-2.939-3.111L254.8 77.33z" style="fill:url(#b)"/></svg>