<?xml version="1.0" encoding="UTF-8" standalone="no"?>
<svg
   version="1.1"
   width="556.58276"
   height="466.81018"
   id="svg1"
   xmlns="http://www.w3.org/2000/svg"
   xmlns:svg="http://www.w3.org/2000/svg">
  <defs
     id="defs1" />
  <path
     d="m 158.95223,0 c 0,0 -29.35742,3.139159 -29.35742,33.542969 L 20.495203,63.996094 c 0,0 -27.3035023,10.462547 -18.8828123,46.148436 L 91.817464,446.9082 c 0,0 18.894626,25.21109 40.916016,18.88281 l 145.58789,-40.02343 145.52539,40.02343 c 22.02139,6.32828 40.91797,-18.88281 40.91797,-18.88281 L 554.96786,110.14453 C 563.38855,74.458641 536.13582,63.996094 536.13582,63.996094 L 426.98543,33.542969 C 426.98543,3.139159 397.57723,0 397.57723,0 Z m 0.99609,12.566406 h 236.68555 c 1.39069,0.24241 5.62595,1.187997 9.56836,3.841797 5.57553,3.72552 8.17773,9.160626 8.17773,17.134766 v 9.568359 c 1e-5,0 115.82264,32.305913 117.51954,32.751953 2.98552,1.44173 12.10937,6.875332 12.10937,21.369142 0,2.947237 -0.40988,6.240227 -1.25195,9.978507 -0.1531,0.59966 -88.00841,328.48356 -89.46289,333.76563 -3.87862,4.38897 -15.24735,15.79462 -26.01563,12.70703 L 278.32137,412.71484 129.30184,453.68359 c -10.76828,3.08759 -22.17527,-8.31806 -26.01562,-12.70703 -1.44173,-5.28207 -89.258752,-333.16546 -89.462892,-333.76563 -0.84207,-3.73828 -1.25,-7.03127 -1.25,-9.978507 0,-14.49381 9.122814,-19.927412 12.121094,-21.369142 1.68414,-0.44655 117.466798,-32.751953 117.466798,-32.751953 v -9.568359 c -2e-5,-7.97414 2.64127,-13.409246 8.21679,-17.134766 3.99345,-2.6538 8.17962,-3.599897 9.57031,-3.841797 z m 1.40235,15.744141 c 0,0 -4.9375,2.092514 -4.9375,6.277344 V 382.91211 c 0,0 -9e-5,7.02929 4.9375,7.02929 h 234.28711 c 0,0 5.57617,-1.38998 5.57617,-7.02929 V 34.587891 c 0,0 -0.63858,-6.277344 -5.57617,-6.277344 z M 416.96981,59.761719 V 383.61328 c 0,0 -2.84467,20.97461 -19.58399,20.97461 h -90.95703 l 121.70508,33.59375 c 0,0 6.97979,3.4971 10.46289,-4.1836 l 89.56446,-332.27343 c 0,0 3.48294,-10.461717 -4.88672,-13.255857 z M 139.66122,60.462891 33.30575,89.169923 c -8.36966,2.78138 -4.873047,13.306637 -4.873047,13.306637 L 117.9327,434.69922 c 3.5469,7.66793 10.51367,4.18359 10.51367,4.18359 l 121.70508,-33.54102 h -90.89258 c -16.85415,0 -19.59767,-21.03906 -19.59765,-21.03906 z m 210.70703,48.511719 c 1.99556,2e-4 3.64133,0.44752 4.9375,1.34179 1.29584,0.89463 1.94319,7.82136 1.94336,20.78125 v 15.85352 90.61914 c -1.7e-4,20.3346 1.69471,35.23843 5.08398,44.70898 3.38891,9.47062 11.36321,16.19824 23.92187,20.1836 -0.59648,2.59203 -2.6396,5.08425 -6.1289,7.47851 -3.48967,2.39426 -7.62593,3.5918 -12.4082,3.5918 -2.79298,0 -5.33521,-0.34913 -7.62891,-1.04883 -2.29404,-0.69968 -5.63469,-2.54655 -10.02149,-5.53711 -4.3871,-2.99054 -7.926,-7.52503 -10.61523,-13.60351 -2.68951,-6.07843 -5.52999,-8.81892 -8.52344,-8.22266 -6.77833,6.18192 -14.20522,12.36219 -22.27929,18.54102 -8.0743,6.17886 -16.79593,9.86774 -26.16602,11.0664 -9.37028,1.19864 -19.63766,2.59531 -30.80273,4.18946 -7.17981,-1e-5 -13.91026,-1.34666 -20.18946,-4.03907 -6.27929,-2.69241 -12.70865,-7.22777 -19.28906,-13.60742 -6.58045,-6.37962 -11.36687,-15.95053 -14.35742,-28.71289 -2.99056,-12.76227 -4.48439,-33.09792 -4.48438,-61.00781 v -19.74219 -13.45312 c -1e-5,-13.95779 -0.10155,-22.38118 -0.30273,-25.27149 -0.20077,-2.88999 -0.89817,-6.97713 -2.09375,-12.26172 -1.19561,-5.28425 -4.93364,-9.62049 -11.21289,-13.00976 -6.27924,-3.38891 -9.41795,-7.17692 -9.41797,-11.36328 9.76571,2e-4 18.03909,-0.59716 24.82031,-1.79297 6.78121,-1.19541 13.35971,-2.49293 19.73633,-3.89258 1.59412,2.1e-4 3.23902,0.39848 4.93359,1.19531 1.69452,0.79726 2.54099,4.18511 2.54102,10.16602 -3e-5,5.98129 -0.0993,12.06242 -0.29688,18.24414 -0.19781,6.18206 -0.39688,12.06322 -0.59765,17.64258 -3e-5,6.18205 -0.0498,12.26317 -0.15039,18.24414 -0.10003,5.98123 -0.15049,11.96238 -0.15039,17.94336 -3e-5,32.89923 2.94238,57.42481 8.82617,73.57617 5.8837,16.15146 14.35708,24.87588 25.42187,26.17187 11.06467,1.29602 17.99423,1.94338 20.78711,1.94336 9.7656,2e-5 19.23369,-1.84485 28.40625,-5.53515 9.17233,-3.69025 16.15102,-9.82139 20.9336,-18.39454 2.39718,-5.78027 4.19291,-12.25877 5.38867,-19.43554 1.19547,-7.17665 1.79283,-16.2502 1.79297,-27.22071 -1.4e-4,-9.16931 -0.44841,-18.44024 -1.34571,-27.81054 -0.89759,-9.37008 -1.49496,-17.19609 -1.79296,-23.47852 -0.29824,-6.28215 -0.44737,-11.71311 -0.44727,-16.29492 v -6.2793 c -1.3e-4,-3.58971 -0.0996,-6.383 -0.30078,-8.3789 -0.20087,-1.99555 -0.75106,-4.63692 -1.64844,-7.92578 -0.8976,-3.28852 -3.48896,-6.97655 -7.77539,-11.0625 -4.28669,-4.08558 -6.42981,-6.72694 -6.42969,-7.92579 -1.2e-4,-0.99763 0.64717,-1.79607 1.94336,-2.39257 1.29588,-0.59608 6.38055,-1.54168 15.25196,-2.83789 8.87111,-1.2958 15.5996,-1.94316 20.1875,-1.94336 z"
     id="path4" />
</svg>
