<svg xmlns="http://www.w3.org/2000/svg" width="600" height="784.673"><path d="M106.52 302.452c.528 37.625 17.164 75.858 45.981 105.068 23.364 23.756 65.285 52.102 131.786 52.102 111.737 0 147.813-98.555 147.813-146.283 0-45.903-37.39-83.214-83.293-83.214-45.884 0-83.293 37.311-83.293 83.214 0 28.74 16.164 59.616 36.016 68.973 15.87 7.415 24.757 24.737 21.147 40.98-2.825 12.731-14.634 27.444-38.684 27.444-7.278 0-15.635-1.315-25.443-3.826-54.555-14.575-92.415-35.643-135.415-104.91-7.043-11.339-12.555-24.6-16.616-39.548M300 600C134.63 600 0 465.37 0 300 0 134.571 134.63 0 300 0c165.448 0 300 134.571 300 300 0 165.37-134.552 300-300 300m6.827 184.673c-154.718 0-228.281-74.78-231.341-77.997l-9.73-9.887-4.905-5.14 3.433-6.12 64.069-117.092 4.669-8.436 8.435 4.67 16.556 9.278c.686.392 76.31 41.45 150.952 41.45 71.19 0 126.371-39.763 128.745-41.45l16.321-12.34 8.337-6.355 5.61 8.886 72.642 115.936 3.668 5.826-4.296 5.297-8.572 10.495c-2.688 3.374-69.267 82.979-224.593 82.979" style="fill:#fff"/><path d="M306.827 756.17c143.752 0 202.524-72.406 202.524-72.406l-54.555-87.06s-61.852 47.198-145.831 47.198c-83.98 0-164.742-45.118-164.742-45.118l-48.277 88.119s67.129 69.266 210.88 69.266m-40.92-336.86c-49.729-13.182-80.762-31.406-118.623-92.336-34.643-55.849-14.104-158.465-14.104-158.465s-55.084 44.138-55.084 132.257 75.544 187.282 206.192 187.282S460.544 374.72 460.544 313.339c0-61.694-49.964-111.717-111.737-111.717-61.754 0-111.797 50.023-111.797 111.717 0 39.92 22.148 80.449 52.417 94.71 7.807 3.688 12.947 20.99-23.521 11.26M571.496 300c0 149.97-121.525 271.497-271.496 271.497C150.049 571.497 28.503 449.97 28.503 300 28.503 150.049 150.05 28.425 300 28.425c149.97 0 271.497 121.624 271.497 271.575"/></svg>