<svg xmlns="http://www.w3.org/2000/svg" width="375.216" height="300.002" version="1.2"><g><path d="M366.574 163.509a14.104 14.104 0 0 0-17.103 5.039 32.93 32.93 0 0 1-27.184 14.362c-18.147 0-32.91-14.764-32.91-32.91 0-18.147 14.764-32.91 32.91-32.91a32.93 32.93 0 0 1 27.184 14.362 14.104 14.104 0 0 0 25.477-10.702c-6.643-33.588-24.882-64.197-51.358-86.189-13.176-10.944-27.973-19.481-43.98-25.372C263.041 3.092 245.612 0 227.809 0c-.49 0-.978.008-1.466.016l-.525.008a14.104 14.104 0 0 0-13.916 14.37c.006.33.013.636.013.942 0 15.728-7.501 30.358-20.167 39.571h-8.276c-12.666-9.213-20.167-23.843-20.167-39.571 0-.307.007-.612.012-.918a14.13 14.13 0 0 0-3.97-10.091 14.12 14.12 0 0 0-9.946-4.303l-.525-.008c-.49-.008-.978-.016-1.468-.016-17.803 0-35.231 3.092-51.8 9.19-16.008 5.891-30.805 14.427-43.98 25.371C25.152 56.554 6.912 87.163.269 120.751A14.106 14.106 0 0 0 14.1 137.594c4.545 0 8.95-2.201 11.646-6.141a32.93 32.93 0 0 1 27.184-14.362c18.147 0 32.91 14.764 32.91 32.91 0 18.147-14.764 32.91-32.91 32.91a32.93 32.93 0 0 1-27.184-14.362A14.104 14.104 0 0 0 .269 179.251c6.643 33.588 24.882 64.197 51.358 86.189 13.175 10.944 27.973 19.481 43.98 25.372 16.569 6.098 33.997 9.19 51.8 9.19.49 0 .978-.008 1.466-.016l.525-.008a14.104 14.104 0 0 0 13.916-14.369c-.006-.33-.013-.636-.013-.943 0-15.728 7.501-30.358 20.167-39.571h8.276c12.666 9.213 20.167 23.843 20.167 39.571 0 .307-.007.613-.012.918a14.13 14.13 0 0 0 3.97 10.091 14.12 14.12 0 0 0 9.946 4.303l.525.008c.488.008.976.016 1.466.016 17.803 0 35.231-3.092 51.8-9.19 16.008-5.891 30.805-14.427 43.98-25.372 26.476-21.992 44.715-52.602 51.358-86.189a14.1 14.1 0 0 0-8.37-15.742"/><linearGradient id="a" x1="71.419" x2="303.798" y1="266.19" y2="33.81" gradientUnits="userSpaceOnUse"><stop offset="0" style="stop-color:#bf331c"/><stop offset=".3" style="stop-color:#d3641c"/><stop offset=".5" style="stop-color:#f6b91d"/><stop offset=".7" style="stop-color:#d3641c"/><stop offset="1" style="stop-color:#bf331c"/></linearGradient><path fill="url(#a)" d="M361.112 176.513c-12.334 62.36-67.323 109.383-133.302 109.383-.604 0-1.204-.015-1.806-.023q.013-.602.015-1.208c0-21.965-11.24-41.303-28.279-52.584V67.919c17.039-11.281 28.279-30.618 28.279-52.584 0-.404-.008-.806-.015-1.208.602-.008 1.202-.023 1.806-.023 65.979 0 120.969 47.023 133.302 109.383-8.468-12.377-22.696-20.502-38.825-20.502-25.966 0-47.015 21.049-47.015 47.015s21.049 47.015 47.015 47.015c16.129 0 30.356-8.125 38.825-20.502M149.199 15.336c0-.404.008-.806.015-1.208-.602-.008-1.202-.023-1.806-.023-65.979 0-120.969 47.023-133.302 109.383 8.468-12.377 22.696-20.502 38.825-20.502 25.966 0 47.015 21.049 47.015 47.015s-21.049 47.015-47.015 47.015c-16.129 0-30.356-8.125-38.825-20.502 12.334 62.36 67.323 109.383 133.302 109.383.604 0 1.204-.015 1.806-.023a61 61 0 0 1-.015-1.208c0-21.965 11.24-41.303 28.279-52.584V67.919c-17.039-11.281-28.279-30.618-28.279-52.583" style="fill:url(#a)"/></g></svg>