<svg xmlns="http://www.w3.org/2000/svg" width="543.051" height="500.033"><path d="M316.29.003c-26.906-.174-60.186 6.605-97.807 28.744 0 0 88.702-14.376 152.75 36.94 0 0-40.2 70.76-152.46 111.307-112.218 40.533-190.31-26.055-138.995-129.97 0 0-50.853 47.36-72.405 130.692-21.537 83.29 7.16 161.554 46.64 218.11l3.55 4.447c44.878 52.384 113.501 99.76 199.49 99.76 86.046 0 144.637-37.446 144.637-37.446-113.458 23.731-158.336-68.565-91.012-167.127C378.002 196.942 456.6 175.753 456.6 175.753c33.662 74.816-2.526 157.137-2.526 157.137 82.323-82.322 51.2-162.104 51.2-162.104l37.777-149.43L388.266 19.9S361.132.294 316.29.003m61.15 40.537 137.13.897-30.673 127.213-15.33-26.17-308.545 166.91L407.22 62.193z"/></svg>