<svg xmlns="http://www.w3.org/2000/svg" xml:space="preserve" width="758.814" height="979.44" style="clip-rule:evenodd;fill-rule:evenodd;stroke-linejoin:round;stroke-miterlimit:2" viewBox="0 0 758.814 979.44"><path d="M377.134 894.142s-4.004 7.977-20.458 14.958-27.424 28.991-27.922 70.34c0 0-103.711-63.215-99.224-172.056 0 0-41.384-9.618-97.727 39.245 0 0 7.479-62.326-3.99-99.722 0 0-9.472-15.955-9.971-29.418 0 0-6.482-26.924-3.49-37.395 0 0-31.243 2.493-99.223-41.385 0 0 34.733-26.925 33.735-38.891-.997-11.967 6.482-44.376 15.956-62.825 0 0-41.385-16.631-64.82-88.254 0 0 40.887-1.319 51.357-44.199 0 0-35.401-47.368-46.37-88.254 0 0-1.496-17.451 61.329-36.897 0 0-43.38-84.265-41.385-120.663 0 0 43.878-29.917 126.148-12.964 0 0-1.994-38.393 29.418-116.674 0 0 68.31 35.899 117.672 108.696 0 0 41.722-107.734 80.458-137.784 0 0 42.65 39.953 80.248 139.25 0 0 29.283-55.913 116.588-109.265 0 0 27.765 59.034 28.734 114.511 0 0 70.97-16.733 128.044 14.484 0 0-1.52 48.13-41.078 119.795 0 0 45.292 13.759 63.064 34.972 0 0-14.333 59.335-48.158 88.29 0 0 3.44 42.142 52.745 46.728 0 0-21.213 68.798-66.505 87.144 0 0 12.04 19.493 13.76 46.439 0 0-4.366 24.339 12.524 34.551l25.334 21.996s-55.938 40.493-98.453 40.493c0 0 1.394 11.152-5.575 39.03 0 0-10.455 28.575-10.455 37.636 0 0-14.636 53.665-2.09 91.301 0 0-71.09-52.969-99.665-39.03 0 0 13.939 94.684-97.574 171.115 0 0-5.351-62.218-35.476-73.679 0 0-4.557 1.647-17.505-11.619"/><path d="M388.738 631.731s20.95-1.209 40.289-13.296c0 0 77.353 108.376 70.907 194.592s-49.958 109.987-49.958 109.987-12.086-28.202-41.496-43.914c0 0-12.49-4.029-19.742-29.813z" style="fill:url(#a)"/><path d="M369.67 631.731s-20.95-1.209-40.289-13.296c0 0-77.353 108.376-70.907 194.592s49.958 109.987 49.958 109.987 12.086-28.202 41.496-43.914c0 0 12.49-4.029 19.742-29.813z" style="fill:url(#b)"/><path d="M334.797 276.12s-5.423-60.858-18.076-73.511c0 0 10.467-96.409 61.873-156.062 0 0 52.612 62.666 60.445 155.459 0 0-19.884 48.205-16.269 74.114 0 0-45.191-15.666-87.973 0" style="fill:url(#c)"/><path d="M485.412 334.088s-18.028-27.345-46.373-47.548c0 0 8.187-133.342 120.899-212.241 0 0 67.414 186.048-74.526 259.789" style="fill:url(#d)"/><path d="M271.956 334.088s18.028-27.345 46.373-47.548c0 0-8.187-133.342-120.899-212.241 0 0-67.414 186.048 74.526 259.789" style="fill:url(#e)"/><path d="M507.488 388.714s3.22-6.995-13.769-36.975c0 0 104.931-45.138 101.933-172.386 0 0 53.964-22.318 103.431-.332 0 0-15.434 151.072-191.595 209.693" style="fill:url(#f)"/><path d="M248.79 388.714s-3.22-6.995 13.769-36.975c0 0-104.931-45.138-101.933-172.386 0 0-53.964-22.318-103.431-.332 0 0 15.434 151.072 191.595 209.693" style="fill:url(#g)"/><path d="M517.662 444.125s.313-28.536-5.331-36.689c0 0 94.562-20.13 149.821-103.495 0 0 36.68.477 58.593 21.437 0 0-46.507 135.075-203.083 118.747" style="fill:url(#h)"/><path d="M240.756 444.125s-.313-28.536 5.331-36.689c0 0-94.562-20.13-149.821-103.495 0 0-36.68.477-58.593 21.437 0 0 46.507 135.075 203.083 118.747" style="fill:url(#i)"/><path d="M584.239 460.449s55.748-5.287 95.156-46.617c0 0 13.016 42.772 41.35 53.345 0 0-23.568 44.214-53.845 48.539 0 0-14.898-22.588-82.661-55.267" style="fill:url(#j)"/><path d="M174.129 460.449s-55.748-5.287-95.156-46.617c0 0-13.016 42.772-41.35 53.345 0 0 23.568 44.214 53.845 48.539 0 0 14.898-22.588 82.661-55.267" style="fill:url(#k)"/><path d="M694.915 632.958s-29.019 21.15-65.417 17.215c0 0-9.398-69.351-135.779-105.749 0 0 17.522-14.756 18.612-82.632 0 0 133.399 20.166 158.975 99.847 0 0 7.378 18.199 5.411 36.889 0 0 1.967 28.036 18.198 34.43" style="fill:url(#l)"/><path d="M63.283 632.958s29.019 21.15 65.417 17.215c0 0 9.398-69.351 135.779-105.749 0 0-17.522-14.756-18.612-82.632 0 0-133.399 20.166-158.975 99.847 0 0-7.378 18.199-5.411 36.889 0 0-1.967 28.036-18.198 34.43" style="fill:url(#m)"/><path d="M594.317 792.008s-33.279-21.804-78.038-11.971c0 0-5.427-85.121-70.837-172.29 0 0 32.491-23.469 38.049-45.272 0 0 109.445 29.071 122.698 83.794 0 0 15.818 29.071 1.71 82.511 0 0-12.2 11.086-13.582 63.228" style="fill:url(#n)"/><path d="M164.161 792.008s33.279-21.804 78.038-11.971c0 0 5.427-85.121 70.837-172.29 0 0-32.491-23.469-38.049-45.272 0 0-109.445 29.071-122.698 83.794 0 0-15.818 29.071-1.71 82.511 0 0 12.2 11.086 13.582 63.228" style="fill:url(#o)"/><ellipse cx="377.956" cy="448.928" rx="141.755" ry="185.651" style="stroke-width:.859407"/><ellipse cx="377.213" cy="449.295" rx="112.793" ry="156.316" style="fill:#fff;stroke-width:.703434"/><defs><linearGradient id="a" x1="0" x2="1" y1="0" y2="0" gradientTransform="rotate(-97.153 632.541 262.687)scale(411.2805)" gradientUnits="userSpaceOnUse"><stop offset="0" style="stop-color:#bb2c26;stop-opacity:1"/><stop offset=".04" style="stop-color:#bf3526;stop-opacity:1"/><stop offset=".11" style="stop-color:#cb4d25;stop-opacity:1"/><stop offset=".19" style="stop-color:#de7523;stop-opacity:1"/><stop offset=".21" style="stop-color:#e17a23;stop-opacity:1"/><stop offset=".29" style="stop-color:#ee8b1f;stop-opacity:1"/><stop offset=".38" style="stop-color:#f5951e;stop-opacity:1"/><stop offset=".5" style="stop-color:#ff9915;stop-opacity:1"/><stop offset=".62" style="stop-color:#f5951e;stop-opacity:1"/><stop offset=".71" style="stop-color:#ee8b1f;stop-opacity:1"/><stop offset=".79" style="stop-color:#e17a23;stop-opacity:1"/><stop offset=".8" style="stop-color:#e07823;stop-opacity:1"/><stop offset=".85" style="stop-color:#d35d24;stop-opacity:1"/><stop offset=".91" style="stop-color:#c64225;stop-opacity:1"/><stop offset=".96" style="stop-color:#be3226;stop-opacity:1"/><stop offset="1" style="stop-color:#bb2c26;stop-opacity:1"/></linearGradient><linearGradient id="b" x1="0" x2="1" y1="0" y2="0" gradientTransform="rotate(-82.847 676.918 287.117)scale(411.2805 -411.2805)" gradientUnits="userSpaceOnUse"><stop offset="0" style="stop-color:#bb2c26;stop-opacity:1"/><stop offset=".04" style="stop-color:#bf3526;stop-opacity:1"/><stop offset=".11" style="stop-color:#cb4d25;stop-opacity:1"/><stop offset=".19" style="stop-color:#de7523;stop-opacity:1"/><stop offset=".21" style="stop-color:#e17a23;stop-opacity:1"/><stop offset=".29" style="stop-color:#ee8b1f;stop-opacity:1"/><stop offset=".38" style="stop-color:#f5951e;stop-opacity:1"/><stop offset=".5" style="stop-color:#ff9915;stop-opacity:1"/><stop offset=".62" style="stop-color:#f5951e;stop-opacity:1"/><stop offset=".71" style="stop-color:#ee8b1f;stop-opacity:1"/><stop offset=".79" style="stop-color:#e17a23;stop-opacity:1"/><stop offset=".8" style="stop-color:#e07823;stop-opacity:1"/><stop offset=".85" style="stop-color:#d35d24;stop-opacity:1"/><stop offset=".91" style="stop-color:#c64225;stop-opacity:1"/><stop offset=".96" style="stop-color:#be3226;stop-opacity:1"/><stop offset="1" style="stop-color:#bb2c26;stop-opacity:1"/></linearGradient><linearGradient id="c" x1="0" x2="1" y1="0" y2="0" gradientTransform="rotate(-83.92 389.507 -28.78)scale(288.9088)" gradientUnits="userSpaceOnUse"><stop offset="0" style="stop-color:#bb2c26;stop-opacity:1"/><stop offset=".04" style="stop-color:#bf3526;stop-opacity:1"/><stop offset=".11" style="stop-color:#cb4d25;stop-opacity:1"/><stop offset=".19" style="stop-color:#de7523;stop-opacity:1"/><stop offset=".21" style="stop-color:#e17a23;stop-opacity:1"/><stop offset=".29" style="stop-color:#ee8b1f;stop-opacity:1"/><stop offset=".38" style="stop-color:#f5951e;stop-opacity:1"/><stop offset=".5" style="stop-color:#ff9915;stop-opacity:1"/><stop offset=".62" style="stop-color:#f5951e;stop-opacity:1"/><stop offset=".71" style="stop-color:#ee8b1f;stop-opacity:1"/><stop offset=".79" style="stop-color:#e17a23;stop-opacity:1"/><stop offset=".8" style="stop-color:#e07823;stop-opacity:1"/><stop offset=".85" style="stop-color:#d35d24;stop-opacity:1"/><stop offset=".91" style="stop-color:#c64225;stop-opacity:1"/><stop offset=".96" style="stop-color:#be3226;stop-opacity:1"/><stop offset="1" style="stop-color:#bb2c26;stop-opacity:1"/></linearGradient><linearGradient id="d" x1="0" x2="1" y1="0" y2="0" gradientTransform="rotate(-66.397 508.925 -129.477)scale(298.891)" gradientUnits="userSpaceOnUse"><stop offset="0" style="stop-color:#bb2c26;stop-opacity:1"/><stop offset=".04" style="stop-color:#bf3526;stop-opacity:1"/><stop offset=".11" style="stop-color:#cb4d25;stop-opacity:1"/><stop offset=".19" style="stop-color:#de7523;stop-opacity:1"/><stop offset=".21" style="stop-color:#e17a23;stop-opacity:1"/><stop offset=".29" style="stop-color:#ee8b1f;stop-opacity:1"/><stop offset=".38" style="stop-color:#f5951e;stop-opacity:1"/><stop offset=".5" style="stop-color:#ff9915;stop-opacity:1"/><stop offset=".62" style="stop-color:#f5951e;stop-opacity:1"/><stop offset=".71" style="stop-color:#ee8b1f;stop-opacity:1"/><stop offset=".79" style="stop-color:#e17a23;stop-opacity:1"/><stop offset=".8" style="stop-color:#e07823;stop-opacity:1"/><stop offset=".85" style="stop-color:#d35d24;stop-opacity:1"/><stop offset=".91" style="stop-color:#c64225;stop-opacity:1"/><stop offset=".96" style="stop-color:#be3226;stop-opacity:1"/><stop offset="1" style="stop-color:#bb2c26;stop-opacity:1"/></linearGradient><linearGradient id="e" x1="0" x2="1" y1="0" y2="0" gradientTransform="matrix(-122 -258 -258 122 335.896 372.828)" gradientUnits="userSpaceOnUse"><stop offset="0" style="stop-color:#bb2c26;stop-opacity:1"/><stop offset=".04" style="stop-color:#bf3526;stop-opacity:1"/><stop offset=".11" style="stop-color:#cb4d25;stop-opacity:1"/><stop offset=".19" style="stop-color:#de7523;stop-opacity:1"/><stop offset=".21" style="stop-color:#e17a23;stop-opacity:1"/><stop offset=".29" style="stop-color:#ee8b1f;stop-opacity:1"/><stop offset=".38" style="stop-color:#f5951e;stop-opacity:1"/><stop offset=".5" style="stop-color:#ff9915;stop-opacity:1"/><stop offset=".62" style="stop-color:#f5951e;stop-opacity:1"/><stop offset=".71" style="stop-color:#ee8b1f;stop-opacity:1"/><stop offset=".79" style="stop-color:#e17a23;stop-opacity:1"/><stop offset=".8" style="stop-color:#e07823;stop-opacity:1"/><stop offset=".85" style="stop-color:#d35d24;stop-opacity:1"/><stop offset=".91" style="stop-color:#c64225;stop-opacity:1"/><stop offset=".96" style="stop-color:#be3226;stop-opacity:1"/><stop offset="1" style="stop-color:#bb2c26;stop-opacity:1"/></linearGradient><linearGradient id="f" x1="0" x2="1" y1="0" y2="0" gradientTransform="rotate(-40.258 805.497 -289.5)scale(420.898)" gradientUnits="userSpaceOnUse"><stop offset="0" style="stop-color:#bb2c26;stop-opacity:1"/><stop offset=".04" style="stop-color:#bf3526;stop-opacity:1"/><stop offset=".11" style="stop-color:#cb4d25;stop-opacity:1"/><stop offset=".19" style="stop-color:#de7523;stop-opacity:1"/><stop offset=".21" style="stop-color:#e17a23;stop-opacity:1"/><stop offset=".29" style="stop-color:#ee8b1f;stop-opacity:1"/><stop offset=".38" style="stop-color:#f5951e;stop-opacity:1"/><stop offset=".5" style="stop-color:#ff9915;stop-opacity:1"/><stop offset=".62" style="stop-color:#f5951e;stop-opacity:1"/><stop offset=".71" style="stop-color:#ee8b1f;stop-opacity:1"/><stop offset=".79" style="stop-color:#e17a23;stop-opacity:1"/><stop offset=".8" style="stop-color:#e07823;stop-opacity:1"/><stop offset=".85" style="stop-color:#d35d24;stop-opacity:1"/><stop offset=".91" style="stop-color:#c64225;stop-opacity:1"/><stop offset=".96" style="stop-color:#be3226;stop-opacity:1"/><stop offset="1" style="stop-color:#bb2c26;stop-opacity:1"/></linearGradient><linearGradient id="g" x1="0" x2="1" y1="0" y2="0" gradientTransform="rotate(-139.742 272.03 156.636)scale(420.898 -420.898)" gradientUnits="userSpaceOnUse"><stop offset="0" style="stop-color:#bb2c26;stop-opacity:1"/><stop offset=".04" style="stop-color:#bf3526;stop-opacity:1"/><stop offset=".11" style="stop-color:#cb4d25;stop-opacity:1"/><stop offset=".19" style="stop-color:#de7523;stop-opacity:1"/><stop offset=".21" style="stop-color:#e17a23;stop-opacity:1"/><stop offset=".29" style="stop-color:#ee8b1f;stop-opacity:1"/><stop offset=".38" style="stop-color:#f5951e;stop-opacity:1"/><stop offset=".5" style="stop-color:#ff9915;stop-opacity:1"/><stop offset=".62" style="stop-color:#f5951e;stop-opacity:1"/><stop offset=".71" style="stop-color:#ee8b1f;stop-opacity:1"/><stop offset=".79" style="stop-color:#e17a23;stop-opacity:1"/><stop offset=".8" style="stop-color:#e07823;stop-opacity:1"/><stop offset=".85" style="stop-color:#d35d24;stop-opacity:1"/><stop offset=".91" style="stop-color:#c64225;stop-opacity:1"/><stop offset=".96" style="stop-color:#be3226;stop-opacity:1"/><stop offset="1" style="stop-color:#bb2c26;stop-opacity:1"/></linearGradient><linearGradient id="h" x1="0" x2="1" y1="0" y2="0" gradientTransform="rotate(154.498 323.664 243.764)scale(380.99)" gradientUnits="userSpaceOnUse"><stop offset="0" style="stop-color:#bb2c26;stop-opacity:1"/><stop offset=".04" style="stop-color:#bf3526;stop-opacity:1"/><stop offset=".11" style="stop-color:#cb4d25;stop-opacity:1"/><stop offset=".19" style="stop-color:#de7523;stop-opacity:1"/><stop offset=".21" style="stop-color:#e17a23;stop-opacity:1"/><stop offset=".29" style="stop-color:#ee8b1f;stop-opacity:1"/><stop offset=".38" style="stop-color:#f5951e;stop-opacity:1"/><stop offset=".5" style="stop-color:#ff9915;stop-opacity:1"/><stop offset=".62" style="stop-color:#f5951e;stop-opacity:1"/><stop offset=".71" style="stop-color:#ee8b1f;stop-opacity:1"/><stop offset=".79" style="stop-color:#e17a23;stop-opacity:1"/><stop offset=".8" style="stop-color:#e07823;stop-opacity:1"/><stop offset=".85" style="stop-color:#d35d24;stop-opacity:1"/><stop offset=".91" style="stop-color:#c64225;stop-opacity:1"/><stop offset=".96" style="stop-color:#be3226;stop-opacity:1"/><stop offset="1" style="stop-color:#bb2c26;stop-opacity:1"/></linearGradient><linearGradient id="i" x1="0" x2="1" y1="0" y2="0" gradientTransform="rotate(205.502 55.545 157.95)scale(-380.99 380.99)" gradientUnits="userSpaceOnUse"><stop offset="0" style="stop-color:#bb2c26;stop-opacity:1"/><stop offset=".04" style="stop-color:#bf3526;stop-opacity:1"/><stop offset=".11" style="stop-color:#cb4d25;stop-opacity:1"/><stop offset=".19" style="stop-color:#de7523;stop-opacity:1"/><stop offset=".21" style="stop-color:#e17a23;stop-opacity:1"/><stop offset=".29" style="stop-color:#ee8b1f;stop-opacity:1"/><stop offset=".38" style="stop-color:#f5951e;stop-opacity:1"/><stop offset=".5" style="stop-color:#ff9915;stop-opacity:1"/><stop offset=".62" style="stop-color:#f5951e;stop-opacity:1"/><stop offset=".71" style="stop-color:#ee8b1f;stop-opacity:1"/><stop offset=".79" style="stop-color:#e17a23;stop-opacity:1"/><stop offset=".8" style="stop-color:#e07823;stop-opacity:1"/><stop offset=".85" style="stop-color:#d35d24;stop-opacity:1"/><stop offset=".91" style="stop-color:#c64225;stop-opacity:1"/><stop offset=".96" style="stop-color:#be3226;stop-opacity:1"/><stop offset="1" style="stop-color:#bb2c26;stop-opacity:1"/></linearGradient><linearGradient id="j" x1="0" x2="1" y1="0" y2="0" gradientTransform="matrix(213.4 4.32527 -3.22826 159.275 507.346 460.449)" gradientUnits="userSpaceOnUse"><stop offset="0" style="stop-color:#bb2c26;stop-opacity:1"/><stop offset=".04" style="stop-color:#bf3526;stop-opacity:1"/><stop offset=".11" style="stop-color:#cb4d25;stop-opacity:1"/><stop offset=".19" style="stop-color:#de7523;stop-opacity:1"/><stop offset=".21" style="stop-color:#e17a23;stop-opacity:1"/><stop offset=".29" style="stop-color:#ee8b1f;stop-opacity:1"/><stop offset=".31" style="stop-color:#f5951e;stop-opacity:1"/><stop offset=".5" style="stop-color:#ff9915;stop-opacity:1"/><stop offset=".62" style="stop-color:#f5951e;stop-opacity:1"/><stop offset=".71" style="stop-color:#ee8b1f;stop-opacity:1"/><stop offset=".79" style="stop-color:#e17a23;stop-opacity:1"/><stop offset=".8" style="stop-color:#e07823;stop-opacity:1"/><stop offset=".85" style="stop-color:#d35d24;stop-opacity:1"/><stop offset=".91" style="stop-color:#c64225;stop-opacity:1"/><stop offset=".96" style="stop-color:#be3226;stop-opacity:1"/><stop offset="1" style="stop-color:#bb2c26;stop-opacity:1"/></linearGradient><linearGradient id="k" x1="0" x2="1" y1="0" y2="0" gradientTransform="matrix(-213.4 4.32527 3.22826 159.275 251.022 460.449)" gradientUnits="userSpaceOnUse"><stop offset="0" style="stop-color:#bb2c26;stop-opacity:1"/><stop offset=".04" style="stop-color:#bf3526;stop-opacity:1"/><stop offset=".11" style="stop-color:#cb4d25;stop-opacity:1"/><stop offset=".19" style="stop-color:#de7523;stop-opacity:1"/><stop offset=".21" style="stop-color:#e17a23;stop-opacity:1"/><stop offset=".29" style="stop-color:#ee8b1f;stop-opacity:1"/><stop offset=".31" style="stop-color:#f5951e;stop-opacity:1"/><stop offset=".5" style="stop-color:#ff9915;stop-opacity:1"/><stop offset=".62" style="stop-color:#f5951e;stop-opacity:1"/><stop offset=".71" style="stop-color:#ee8b1f;stop-opacity:1"/><stop offset=".79" style="stop-color:#e17a23;stop-opacity:1"/><stop offset=".8" style="stop-color:#e07823;stop-opacity:1"/><stop offset=".85" style="stop-color:#d35d24;stop-opacity:1"/><stop offset=".91" style="stop-color:#c64225;stop-opacity:1"/><stop offset=".96" style="stop-color:#be3226;stop-opacity:1"/><stop offset="1" style="stop-color:#bb2c26;stop-opacity:1"/></linearGradient><linearGradient id="l" x1="0" x2="1" y1="0" y2="0" gradientTransform="rotate(219.814 447.634 194.45)scale(329.197)" gradientUnits="userSpaceOnUse"><stop offset="0" style="stop-color:#bb2c26;stop-opacity:1"/><stop offset=".04" style="stop-color:#bf3526;stop-opacity:1"/><stop offset=".11" style="stop-color:#cb4d25;stop-opacity:1"/><stop offset=".19" style="stop-color:#de7523;stop-opacity:1"/><stop offset=".21" style="stop-color:#e17a23;stop-opacity:1"/><stop offset=".29" style="stop-color:#ee8b1f;stop-opacity:1"/><stop offset=".38" style="stop-color:#f5951e;stop-opacity:1"/><stop offset=".5" style="stop-color:#ff9915;stop-opacity:1"/><stop offset=".62" style="stop-color:#f5951e;stop-opacity:1"/><stop offset=".71" style="stop-color:#ee8b1f;stop-opacity:1"/><stop offset=".79" style="stop-color:#e17a23;stop-opacity:1"/><stop offset=".8" style="stop-color:#e07823;stop-opacity:1"/><stop offset=".85" style="stop-color:#d35d24;stop-opacity:1"/><stop offset=".91" style="stop-color:#c64225;stop-opacity:1"/><stop offset=".96" style="stop-color:#be3226;stop-opacity:1"/><stop offset="1" style="stop-color:#bb2c26;stop-opacity:1"/></linearGradient><linearGradient id="m" x1="0" x2="1" y1="0" y2="0" gradientTransform="rotate(-39.814 916.056 189.255)scale(329.197 -329.197)" gradientUnits="userSpaceOnUse"><stop offset="0" style="stop-color:#bb2c26;stop-opacity:1"/><stop offset=".04" style="stop-color:#bf3526;stop-opacity:1"/><stop offset=".11" style="stop-color:#cb4d25;stop-opacity:1"/><stop offset=".19" style="stop-color:#de7523;stop-opacity:1"/><stop offset=".21" style="stop-color:#e17a23;stop-opacity:1"/><stop offset=".29" style="stop-color:#ee8b1f;stop-opacity:1"/><stop offset=".38" style="stop-color:#f5951e;stop-opacity:1"/><stop offset=".5" style="stop-color:#ff9915;stop-opacity:1"/><stop offset=".62" style="stop-color:#f5951e;stop-opacity:1"/><stop offset=".71" style="stop-color:#ee8b1f;stop-opacity:1"/><stop offset=".79" style="stop-color:#e17a23;stop-opacity:1"/><stop offset=".8" style="stop-color:#e07823;stop-opacity:1"/><stop offset=".85" style="stop-color:#d35d24;stop-opacity:1"/><stop offset=".91" style="stop-color:#c64225;stop-opacity:1"/><stop offset=".96" style="stop-color:#be3226;stop-opacity:1"/><stop offset="1" style="stop-color:#bb2c26;stop-opacity:1"/></linearGradient><linearGradient id="n" x1="0" x2="1" y1="0" y2="0" gradientTransform="matrix(-182 -308 308 -182 585.659 780.58)" gradientUnits="userSpaceOnUse"><stop offset="0" style="stop-color:#bb2c26;stop-opacity:1"/><stop offset=".04" style="stop-color:#bf3526;stop-opacity:1"/><stop offset=".11" style="stop-color:#cb4d25;stop-opacity:1"/><stop offset=".19" style="stop-color:#de7523;stop-opacity:1"/><stop offset=".21" style="stop-color:#e17a23;stop-opacity:1"/><stop offset=".29" style="stop-color:#ee8b1f;stop-opacity:1"/><stop offset=".38" style="stop-color:#f5951e;stop-opacity:1"/><stop offset=".5" style="stop-color:#ff9915;stop-opacity:1"/><stop offset=".62" style="stop-color:#f5951e;stop-opacity:1"/><stop offset=".71" style="stop-color:#ee8b1f;stop-opacity:1"/><stop offset=".79" style="stop-color:#e17a23;stop-opacity:1"/><stop offset=".8" style="stop-color:#e07823;stop-opacity:1"/><stop offset=".85" style="stop-color:#d35d24;stop-opacity:1"/><stop offset=".91" style="stop-color:#c64225;stop-opacity:1"/><stop offset=".96" style="stop-color:#be3226;stop-opacity:1"/><stop offset="1" style="stop-color:#bb2c26;stop-opacity:1"/></linearGradient><linearGradient id="o" x1="0" x2="1" y1="0" y2="0" gradientTransform="rotate(-61.668 740.157 238.192)scale(317.159 -317.159)" gradientUnits="userSpaceOnUse"><stop offset="0" style="stop-color:#bb2c26;stop-opacity:1"/><stop offset=".04" style="stop-color:#bf3526;stop-opacity:1"/><stop offset=".11" style="stop-color:#cb4d25;stop-opacity:1"/><stop offset=".19" style="stop-color:#de7523;stop-opacity:1"/><stop offset=".21" style="stop-color:#e17a23;stop-opacity:1"/><stop offset=".29" style="stop-color:#ee8b1f;stop-opacity:1"/><stop offset=".38" style="stop-color:#f5951e;stop-opacity:1"/><stop offset=".5" style="stop-color:#ff9915;stop-opacity:1"/><stop offset=".62" style="stop-color:#f5951e;stop-opacity:1"/><stop offset=".71" style="stop-color:#ee8b1f;stop-opacity:1"/><stop offset=".79" style="stop-color:#e17a23;stop-opacity:1"/><stop offset=".8" style="stop-color:#e07823;stop-opacity:1"/><stop offset=".85" style="stop-color:#d35d24;stop-opacity:1"/><stop offset=".91" style="stop-color:#c64225;stop-opacity:1"/><stop offset=".96" style="stop-color:#be3226;stop-opacity:1"/><stop offset="1" style="stop-color:#bb2c26;stop-opacity:1"/></linearGradient></defs></svg>