<?xml version="1.0" encoding="UTF-8"?><svg id="Layer_2" xmlns="http://www.w3.org/2000/svg" width="196.36774" height="215.74938" xmlns:xlink="http://www.w3.org/1999/xlink" viewBox="0 0 196.36774 215.74938"><defs><style>.cls-1{fill:#fff;}.cls-2{fill:url(#linear-gradient);}</style><linearGradient id="linear-gradient" x1="-7.06862" y1="27.88855" x2="202.73981" y2="162.45572" gradientUnits="userSpaceOnUse"><stop offset=".1044" stop-color="#612c75"/><stop offset=".11679" stop-color="#663279"/><stop offset=".19438" stop-color="#865793"/><stop offset=".27218" stop-color="#9f74a8"/><stop offset=".34937" stop-color="#b088b7"/><stop offset=".42565" stop-color="#bb94c0"/><stop offset=".5" stop-color="#bf99c3"/><stop offset=".57801" stop-color="#bc95c0"/><stop offset=".64232" stop-color="#b38bb9"/><stop offset=".70173" stop-color="#a47aad"/><stop offset=".75821" stop-color="#8f629b"/><stop offset=".81212" stop-color="#754385"/><stop offset=".84547" stop-color="#612c75"/></linearGradient></defs><g id="mythic_copy_3"><path class="cls-2" d="M63.28525,11.0278c1.11554,5.52545,5.11769,10.03107,9.89537,12.76383l49.43152.17299c4.71218-2.3486,7.99478-6.08335,9.90261-10.95583.17126-.43738.37477-2.15161.87136-1.95907l38.95545,19.90783c-.96104,12.74661,3.2858,27.22728,14.67155,34.16936-11.10947,22.7136-19.11652,47.26615-20.5223,72.73143l-34.15727,35.3706,14.98256-11.86489,5.60144,10.26947c-19.22135,10.36191-36.92558,23.24627-54.78996,35.72719-17.78956-12.50402-35.49639-25.26514-54.6321-35.68863l-.00696-.72868,5.53435-9.5793,14.14788,11.74181.35435-.35438-33.67684-34.89326c-1.53518-25.35562-9.19918-50.06554-20.71108-72.52943,6.74248-4.29551,11.11788-10.92995,13.27414-18.57648.9233-3.27422,1.70693-7.51508,1.79623-10.91126.02722-1.03525-.4277-4.55555-.0006-5.03582L63.28525,11.0278ZM58.18212,44.88388l-22.14489,21.64429,16.28421,62.52119c14.26889,13.12633,28.2441,26.60613,42.60822,39.62627.4415.40019,2.70715,2.56085,2.88515,2.64193.18442.08401.33747.17328.54629.08647l45.58184-42.18953,16.16007-62.86712-22.14211-21.50727-79.77879.04377Z"/><path d="M81.98709,49.63003v34.28609h32.36482v-34.28609c7.29254.014,14.59334-.05154,21.88705.04911l18.40224,17.80015.17445,1.14453c-1.4208,5.93463-3.21886,11.78976-4.74257,17.68993h-33.32378v35.4849h24.21368c-.46225,1.71726-.74029,3.51229-1.43063,5.16271-8.24568,7.76407-16.91129,15.26713-25.18044,22.88955v-25.65462h-32.36482v25.65462c-8.26834-7.62378-16.92077-15.14042-25.18044-22.88955-.69034-1.65042-.96838-3.44544-1.43063-5.16271h24.21368v-35.4849h-33.32378c-1.52219-5.90127-3.29615-11.76194-4.74264-17.68986l.17452-1.1446,18.40224-17.80015c7.29371-.10065,14.59451-.03511,21.88705-.04911Z"/><path class="cls-1" d="M69.99891,0c.05653,3.43183-.82395,7.09843.23359,10.43616.84064,2.65313,2.93213,5.01838,5.22018,6.52769h45.43364c2.25468-1.47097,4.25546-3.77394,5.15882-6.34929,1.17262-3.34297.22189-7.15245.29495-10.61456l.88973.18712,52.0944,26.54219c.58686.65992-.20194,4.40503-.25256,5.50804-.37901,8.25983,1.98816,18.61771,8.15801,24.4687,2.62329,2.48772,5.96959,3.91428,9.13191,5.54393.03278.35429-.06971.66091-.20652.98018-1.50522,3.51272-4.06194,7.39054-5.77187,11.00947-9.92997,21.0159-15.89603,43.70634-17.4118,66.98302l-19.74531,16.21613,9.45119,17.11346c-22.99289,11.11567-43.42265,26.71227-64.32148,41.19715-.5863-.47559-15.33094-10.65923-22.04667-15.26443-13.68015-9.38095-27.63609-18.79226-42.64741-25.93272l9.45119-17.11346-19.74265-16.21879c-.56863-3.75108-.65562-7.58378-1.1081-11.35946-2.83387-23.6469-10.87025-46.41467-22.26216-67.18823l.02631-.54509c4.86633-2.02064,9.01236-4.52949,12.00996-8.9675,3.94297-5.83765,5.55213-13.92519,5.23106-20.92234-.05061-1.10299-.83941-4.84814-.25256-5.50804L69.99891,0ZM63.28525,11.0278L24.20695,30.80528c-.4271.48027.02782,4.00057.0006,5.03582-.0893,3.39618-.87293,7.63704-1.79623,10.91126-2.15626,7.64653-6.53166,14.28097-13.27414,18.57648,11.51189,22.46389,19.1759,47.17381,20.71108,72.52943l33.67684,34.89326-.35435.35438-14.14788-11.74181-5.53435,9.5793.00696.72868c19.13572,10.42349,36.84254,23.18461,54.6321,35.68863,17.86439-12.48092,35.56861-25.36528,54.78996-35.72719l-5.60144-10.26947-14.98256,11.86489,34.15727-35.3706c1.40578-25.46528,9.41282-50.01783,20.5223-72.73143-11.38576-6.94208-15.6326-21.42275-14.67155-34.16936l-38.95545-19.90783c-.49659-.19254-.70011,1.52169-.87136,1.95907-1.90783,4.87249-5.19043,8.60724-9.90261,10.95583l-49.43152-.17299c-4.77768-2.73276-8.77983-7.23839-9.89537-12.76383ZM58.18212,44.88388l79.77879-.04377,22.14211,21.50727-16.16007,62.86712-45.58184,42.18953c-.20881.08681-.36187-.00246-.54629-.08647-.178-.08109-2.44364-2.24174-2.88515-2.64193-14.36412-13.02014-28.33934-26.49994-42.60822-39.62627l-16.28421-62.52119,22.14489-21.64429ZM46.26592,86.31375c3.04976,11.82343,5.93636,23.69435,9.1101,35.4849.46225,1.71726.74029,3.51229,1.43063,5.16271,8.25968,7.74912,16.9121,15.26577,25.18044,22.88955.03511.03238.02904.37598.2501.5798,5.27933,4.8677,10.60258,9.77976,15.93231,14.53372,5.33036-4.75336,10.65214-9.66682,15.93231-14.53372.22108-.20377.21499-.54744.2501-.5798,8.26915-7.62241,16.93477-15.12548,25.18044-22.88955.69034-1.65042.96838-3.44544,1.43063-5.16271,3.17374-11.79056,6.05696-23.66242,9.1101-35.4849,1.52371-5.90017,3.32177-11.75529,4.74257-17.68993l-.17445-1.14453-18.40224-17.80015c-7.29371-.10065-14.59451-.03511-21.88705-.04911-10.78444-.0207-21.58038-.0207-32.36482,0-7.29254.014-14.59334-.05154-21.88705.04911l-18.40224,17.80015-.17452,1.1446c1.44648,5.92792,3.22045,11.78859,4.74264,17.68986ZM81.98709,49.63003v34.28609h32.36482v-34.28609c-10.78444-.0207-21.58038-.0207-32.36482,0ZM82.23719,150.4307c5.27933,4.8677,10.60258,9.77976,15.93231,14.53372,5.33036-4.75336,10.65214-9.66682,15.93231-14.53372.22108-.20377.21499-.54744.2501-.5798v-25.65462h-32.36482v25.65462c.03511.03238.02904.37598.2501.5798ZM55.37601,121.79865h24.21368v-35.4849h-33.32378c3.04976,11.82343,5.93636,23.69435,9.1101,35.4849ZM116.7493,86.31375v35.4849h24.21368c3.17374-11.79056,6.05696-23.66242,9.1101-35.4849h-33.32378Z"/></g></svg>