<?xml version="1.0" encoding="UTF-8"?><svg id="Layer_2" xmlns="http://www.w3.org/2000/svg" width="196.36772" height="215.74939" viewBox="0 0 196.36772 215.74939"><g id="Layer_2-2"><path d="M58.18213,44.88391l-22.1449,21.64429,16.28424,62.52118c14.26886,13.12634,28.24408,26.60614,42.60822,39.62628.44147.40015,2.70715,2.56085,2.88513,2.64191.18445.08405.33746.17328.54626.08649l45.58185-42.18951,16.1601-62.86713-22.14209-21.50726-79.77881.04376ZM81.98706,49.63v.00006h.00006c10.78442-.02069,21.58038-.02069,32.36481,0v-.00006c1.82312.00348,3.64679.00208,5.4707-.00055-1.82391.00262-3.64758.00409-5.4707.00061v34.28607h-32.36487v-34.28607c-1.82294.00348-3.64636.00195-5.47009-.00061-1.8241-.00262-3.6485-.00635-5.47296-.00739,1.82446.00104,3.64886.00476,5.47296.00739,1.82373.00256,3.64716.00403,5.47009.00055ZM46.26593,86.31378h33.32379v35.48486h-24.21368c-3.17377-11.79053-6.06036-23.66144-9.11011-35.48486ZM114.35193,149.85095c-.0351.03235-.02905.37604-.25012.57977-5.28015,4.86688-10.60193,9.7804-15.93231,14.53375-5.32971-4.75397-10.65295-9.66602-15.93231-14.53375-.22107-.2038-.21497-.54742-.25006-.57977-6.20129-5.71783-12.61859-11.37537-18.92419-17.11603,6.3056,5.74066,12.7229,11.39813,18.92419,17.11597v-25.6546h32.36481v25.6546c4.13458-3.81122,8.36823-7.59253,12.599-11.3916-4.23077,3.79913-8.46442,7.58044-12.599,11.39166ZM150.07312,86.31378c-3.05316,11.82245-5.9364,23.69434-9.11011,35.48486h-24.21368v-35.48486h33.32373c.38092-1.47504.77899-2.94727,1.18408-4.41864-.40503,1.47137-.8031,2.9436-1.18402,4.41864ZM154.81567,68.62384l-.1745-1.14453-18.40222-17.80017,18.40228,17.80017.17444,1.14453ZM187.22968,56.70605c-6.16986-5.85095-8.53705-16.20886-8.15802-24.46869.05066-1.10303.83942-4.84814.25256-5.50806L127.2298.18713l-.88971-.18713c-.07306,3.4621.87769,7.27161-.29492,10.61456-.90338,2.57538-2.90417,4.87836-5.15887,6.3493h-45.43359c-2.28809-1.50934-4.37958-3.87457-5.22021-6.52771-1.0575-3.33771-.17706-7.00433-.23358-10.43616L17.01477,26.72931c-.58685.65991.2019,4.40503.25256,5.50806.32104,6.99713-1.28809,15.08466-5.23108,20.9223-2.99762,4.43805-7.14362,6.9469-12.00995,8.96753l-.02631.5451c11.39191,20.77356,19.42828,43.54132,22.26215,67.18823.45245,3.77563.53949,7.60834,1.10809,11.35944l19.74268,16.21881-9.45123,17.11346c15.01135,7.14044,28.96729,16.55176,42.64746,25.93274,6.7157,4.60516,21.46033,14.78882,22.04663,15.2644,20.89886-14.48486,41.32861-30.08148,64.32147-41.19714l-9.45117-17.11346,19.7453-16.21613c1.51581-23.27667,7.48187-45.9671,17.4118-66.98303,1.70996-3.6189,4.26666-7.4967,5.77191-11.00946.13678-.31927.23926-.62585.20648-.98016-3.16229-1.62964-6.50861-3.05621-9.1319-5.54395ZM166.49084,137.85834l-34.15729,35.37061,14.98254-11.86487,5.60144,10.26947c-19.22131,10.36194-36.9256,23.24628-54.78998,35.72717-17.78955-12.50397-35.49634-25.26514-54.63208-35.6886l-.00696-.7287,5.53436-9.57928,14.14789,11.74182.35431-.35443-33.67682-34.89325c-1.53516-25.35559-9.19922-50.06555-20.71106-72.52942,6.74243-4.29553,11.11786-10.92993,13.27411-18.57648.92328-3.27423,1.70691-7.51508,1.79626-10.91125.02716-1.03528-.42773-4.55554-.00061-5.03583L63.28528,11.02783c1.11554,5.52545,5.11768,10.03107,9.89539,12.76379l49.43152.17303c4.71216-2.34863,7.99475-6.08337,9.90259-10.95587.17126-.43738.37476-2.15161.87134-1.95905l38.95544,19.90784c-.961,12.74658,3.28583,27.22729,14.67157,34.16937-11.1095,22.71356-19.11652,47.26611-20.52228,72.73138Z"/></g></svg>