<?xml version="1.0" encoding="UTF-8" standalone="no"?>
<!-- Generator: Adobe Illustrator 15.1.0, SVG Export Plug-In . SVG Version: 6.00 Build 0)  -->

<svg
   version="1.1"
   id="Layer_1"
   x="0px"
   y="0px"
   width="149.998"
   height="67.823997"
   viewBox="0 0 149.998 67.823997"
   enable-background="new 0 0 160 75"
   xml:space="preserve"
   xmlns="http://www.w3.org/2000/svg"
   xmlns:svg="http://www.w3.org/2000/svg"><defs
   id="defs3" />
<g
   id="Layer_1_1_"
   transform="translate(-4.728,-3.741)">
</g>
<g
   id="Layer_3"
   display="none"
   transform="translate(-4.728,-3.741)">
</g>
<g
   id="g3"
   transform="translate(-4.728,-3.741)">
	<path
   fill="#ffffff"
   d="M 146.819,5.186 145.782,3.741 H 27.755 c -1.641,0 -3.059,1.15 -3.396,2.759 -0.334,1.606 0.5,3.229 2.006,3.892 1.291,0.565 3.945,2.243 4.523,3.738 0.111,0.291 0.143,0.538 -0.041,0.947 L 12.601,55.908 c -2.396,5.361 -6.59,8.939 -6.625,8.969 -0.791,0.661 -1.248,1.637 -1.248,2.666 v 0.552 c 0,1.916 1.554,3.47 3.471,3.47 h 30.6 c 1.57,0 3.037,-0.996 3.443,-2.512 0.402,-1.499 -0.148,-3.025 -1.477,-3.82 -0.369,-0.307 -2.756,-2.539 -2.756,-8.494 0,-4.26 9.314,-10.416 15.609,-13.234 0.08,-0.038 0.158,-0.076 0.236,-0.117 l 6.648,14.879 c 1.643,3.676 -3.148,6.756 -3.338,6.876 -1.32,0.813 -1.941,2.406 -1.516,3.9 0.422,1.491 1.783,2.522 3.336,2.522 h 86.797 l 1.037,-1.443 c 0.324,-0.451 7.908,-11.248 7.908,-32.469 0.002,-21.223 -7.582,-32.018 -7.907,-32.467 z"
   id="path1" />
	<path
   d="m 61.165,67.344 c 2.195,-1.977 5.375,-5.91 3.189,-10.801 L 45.956,15.373 34.468,41.084 h 14.52 c -5.133,2.706 -15.199,8.877 -15.199,15.652 0,5.676 1.824,8.955 3.174,10.606 H 9.533 c 1.535,-1.469 4.784,-4.932 6.921,-9.713 L 34.7,16.798 c 0.621,-1.388 0.662,-2.801 0.125,-4.19 C 34.05,10.599 32.194,9.009 30.622,7.962 h 38.152 c -1.752,1.646 -3.189,4.348 -1.633,7.83 l 19.125,42.8 c 2,4.479 4.85,7.254 6.799,8.753 h -31.9 z"
   id="path2" />
	<path
   d="M 143.599,7.961 H 78.181 c -2.053,0 -4.404,1.332 -5.598,3.166 -0.561,0.867 -1.094,2.208 -0.438,3.68 0.141,0.316 14.221,31.951 18.66,41.754 4.693,10.364 16.771,10.771 18.127,10.783 H 143.6 c 1.172,-1.841 6.908,-11.795 6.908,-29.691 10e-4,-17.896 -5.737,-27.849 -6.909,-29.692 z M 92.243,49.855 c 2.422,-2.873 4.643,-5.625 6.648,-8.258 2.01,-2.63 3.721,-5.132 5.141,-7.508 1.42,-2.371 2.527,-4.585 3.326,-6.646 0.795,-2.062 1.191,-3.954 1.191,-5.688 0,-1.974 -0.463,-3.419 -1.398,-4.337 -0.939,-0.917 -2.045,-1.377 -3.326,-1.377 -0.832,0 -1.561,0.164 -2.182,0.494 -0.621,0.33 -1.125,0.761 -1.504,1.298 -0.385,0.536 -0.668,1.162 -0.859,1.872 -0.189,0.709 -0.287,1.445 -0.287,2.206 0,0.487 0.033,0.96 0.105,1.429 0.068,0.466 0.174,0.875 0.314,1.222 l -0.158,0.151 -5.764,-7.269 c 1.246,-1.214 2.775,-2.225 4.594,-3.039 1.818,-0.813 3.834,-1.218 6.053,-1.218 1.557,0 3.057,0.199 4.492,0.597 1.438,0.396 2.711,0.983 3.818,1.766 1.107,0.778 1.99,1.746 2.65,2.908 0.654,1.158 0.984,2.52 0.984,4.075 0,1.838 -0.406,3.524 -1.223,5.063 -0.811,1.543 -1.918,3.137 -3.322,4.78 -1.402,1.645 -3.063,3.436 -4.986,5.376 -1.92,1.94 -3.99,4.224 -6.205,6.856 h 12.777 l 0.156,-0.056 2.596,-5.658 h 0.207 V 50.061 H 92.345 Z M 129.38,16.042 c -0.799,0 -1.479,0.172 -2.051,0.521 -0.574,0.346 -1.039,0.798 -1.402,1.352 -0.363,0.554 -0.635,1.191 -0.807,1.918 -0.174,0.729 -0.258,1.455 -0.258,2.182 l -0.158,0.055 -4.152,-4.518 c 1.174,-1.387 2.584,-2.46 4.23,-3.222 1.645,-0.761 3.473,-1.141 5.48,-1.141 1.49,0 2.893,0.182 4.207,0.546 1.314,0.363 2.459,0.899 3.428,1.605 0.969,0.71 1.742,1.603 2.313,2.676 0.57,1.074 0.855,2.319 0.855,3.74 0,1.179 -0.201,2.245 -0.598,3.195 -0.398,0.951 -0.91,1.801 -1.531,2.545 -0.625,0.745 -1.336,1.369 -2.129,1.867 -0.795,0.504 -1.596,0.876 -2.389,1.117 v 0.211 c 1.105,0.274 2.146,0.655 3.115,1.141 0.967,0.486 1.809,1.092 2.52,1.818 0.709,0.727 1.264,1.593 1.66,2.596 0.396,1.006 0.6,2.146 0.6,3.427 0,3.36 -1.072,6.021 -3.221,7.977 -2.146,1.957 -5.193,2.934 -9.143,2.934 -2.18,0 -4.111,-0.364 -5.791,-1.091 -1.678,-0.727 -3.072,-1.644 -4.18,-2.75 l 4.469,-5.509 0.15,0.052 c 0,0.831 0.098,1.635 0.289,2.416 0.189,0.777 0.494,1.462 0.91,2.05 0.412,0.588 0.939,1.064 1.584,1.429 0.637,0.364 1.391,0.546 2.256,0.546 1.594,0 2.807,-0.571 3.635,-1.712 0.834,-1.146 1.248,-2.789 1.248,-4.937 0,-1.074 -0.102,-2.101 -0.309,-3.09 -0.207,-0.985 -0.545,-1.852 -1.014,-2.596 -0.471,-0.744 -1.1,-1.344 -1.896,-1.791 -0.797,-0.452 -1.783,-0.677 -2.961,-0.677 l -2.803,-2.651 v -0.207 h 1.297 c 1.143,0 2.141,-0.24 2.984,-0.727 0.85,-0.485 1.545,-1.124 2.08,-1.923 0.537,-0.795 0.943,-1.687 1.223,-2.672 0.273,-0.987 0.414,-1.982 0.414,-2.988 0,-1.974 -0.389,-3.419 -1.172,-4.337 -0.775,-0.917 -1.769,-1.377 -2.982,-1.377 z"
   id="path3" />
</g>
</svg>
