<?xml version="1.0" encoding="UTF-8" standalone="no"?>
<!-- Generator: Adobe Illustrator 15.1.0, SVG Export Plug-In . SVG Version: 6.00 Build 0)  -->

<svg
   version="1.1"
   id="Layer_1"
   x="0px"
   y="0px"
   width="149.99899"
   height="67.823997"
   viewBox="0 0 149.99899 67.823997"
   enable-background="new 0 0 160 75"
   xml:space="preserve"
   xmlns="http://www.w3.org/2000/svg"
   xmlns:svg="http://www.w3.org/2000/svg"><defs
   id="defs19" />
<g
   id="Layer_1_1_"
   transform="translate(-4.854,-3.2)">
</g>
<g
   id="Layer_3"
   display="none"
   transform="translate(-4.854,-3.2)">
</g>
<g
   id="g19"
   transform="translate(-4.854,-3.2)">
	<path
   d="M 146.946,4.645 145.909,3.2 H 27.882 c -1.642,0 -3.06,1.15 -3.397,2.759 -0.334,1.606 0.5,3.229 2.006,3.892 1.292,0.565 3.945,2.243 4.523,3.738 0.112,0.291 0.143,0.538 -0.041,0.947 L 12.727,55.367 c -2.396,5.361 -6.59,8.939 -6.625,8.969 -0.791,0.661 -1.248,1.637 -1.248,2.666 v 0.552 c 0,1.916 1.554,3.47 3.471,3.47 h 30.6 c 1.57,0 3.037,-0.996 3.444,-2.512 0.401,-1.499 -0.149,-3.025 -1.478,-3.82 -0.369,-0.307 -2.756,-2.539 -2.756,-8.494 0,-4.26 9.314,-10.416 15.61,-13.234 0.08,-0.038 0.158,-0.076 0.235,-0.117 l 6.648,14.879 c 1.643,3.676 -3.148,6.756 -3.337,6.876 -1.321,0.813 -1.942,2.406 -1.517,3.9 0.422,1.491 1.783,2.522 3.337,2.522 h 86.797 l 1.037,-1.443 c 0.324,-0.451 7.908,-11.248 7.908,-32.469 0.001,-21.223 -7.582,-32.018 -7.907,-32.467 z"
   id="path1" />
	<path
   fill="#bb2c26"
   d="m 61.291,66.803 c 2.195,-1.977 5.376,-5.91 3.189,-10.801 L 46.083,14.832 34.594,40.543 h 14.521 c -5.134,2.706 -15.2,8.877 -15.2,15.652 0,5.676 1.825,8.955 3.175,10.606 H 9.659 c 1.535,-1.469 4.784,-4.932 6.921,-9.713 L 34.826,16.256 c 0.621,-1.388 0.663,-2.801 0.125,-4.19 C 34.176,10.057 32.321,8.467 30.749,7.42 H 68.9 c -1.752,1.646 -3.188,4.348 -1.633,7.83 l 19.126,42.8 c 2,4.479 4.849,7.254 6.799,8.753 z"
   id="path2" />
	<linearGradient
   id="SVGID_1_"
   gradientUnits="userSpaceOnUse"
   x1="87.164101"
   y1="47.941399"
   x2="149.3273"
   y2="18.954201">
		<stop
   offset="0"
   style="stop-color:#BB2C26"
   id="stop2" />
		<stop
   offset="0.0302"
   style="stop-color:#BE3226"
   id="stop3" />
		<stop
   offset="0.0698"
   style="stop-color:#C64225"
   id="stop4" />
		<stop
   offset="0.1143"
   style="stop-color:#D35D24"
   id="stop5" />
		<stop
   offset="0.15"
   style="stop-color:#E07823"
   id="stop6" />
		<stop
   offset="0.1593"
   style="stop-color:#E17A23"
   id="stop7" />
		<stop
   offset="0.2577"
   style="stop-color:#EE8B1F"
   id="stop8" />
		<stop
   offset="0.3655"
   style="stop-color:#F5951E"
   id="stop9" />
		<stop
   offset="0.5"
   style="stop-color:#F7981D"
   id="stop10" />
		<stop
   offset="0.6345"
   style="stop-color:#F5951E"
   id="stop11" />
		<stop
   offset="0.7423"
   style="stop-color:#EE8B1F"
   id="stop12" />
		<stop
   offset="0.8407"
   style="stop-color:#E17A23"
   id="stop13" />
		<stop
   offset="0.85"
   style="stop-color:#E07823"
   id="stop14" />
		<stop
   offset="0.8603"
   style="stop-color:#DB6E23"
   id="stop15" />
		<stop
   offset="0.896"
   style="stop-color:#CD5125"
   id="stop16" />
		<stop
   offset="0.9314"
   style="stop-color:#C33D25"
   id="stop17" />
		<stop
   offset="0.9663"
   style="stop-color:#BD3026"
   id="stop18" />
		<stop
   offset="1"
   style="stop-color:#BB2C26"
   id="stop19" />
	</linearGradient>
	<path
   fill="url(#SVGID_1_)"
   d="M 143.726,7.42 H 78.307 c -2.053,0 -4.404,1.332 -5.597,3.166 -0.562,0.867 -1.095,2.208 -0.438,3.68 0.141,0.316 14.222,31.951 18.661,41.754 4.692,10.364 16.771,10.771 18.127,10.783 h 34.668 c 1.172,-1.841 6.908,-11.795 6.908,-29.691 0,-17.896 -5.739,-27.849 -6.91,-29.692 z M 92.37,49.314 c 2.422,-2.873 4.642,-5.625 6.648,-8.258 2.009,-2.63 3.72,-5.132 5.14,-7.508 1.421,-2.371 2.528,-4.585 3.327,-6.646 0.794,-2.062 1.19,-3.954 1.19,-5.688 0,-1.974 -0.463,-3.419 -1.397,-4.337 -0.939,-0.917 -2.046,-1.377 -3.327,-1.377 -0.832,0 -1.56,0.164 -2.181,0.494 -0.621,0.33 -1.125,0.761 -1.505,1.298 -0.385,0.536 -0.668,1.162 -0.858,1.872 -0.189,0.709 -0.287,1.445 -0.287,2.206 0,0.487 0.033,0.96 0.105,1.429 0.068,0.466 0.174,0.875 0.313,1.222 l -0.157,0.151 -5.764,-7.269 c 1.246,-1.214 2.775,-2.225 4.594,-3.039 1.817,-0.813 3.833,-1.218 6.052,-1.218 1.557,0 3.058,0.199 4.493,0.597 1.438,0.396 2.71,0.983 3.817,1.766 1.107,0.778 1.991,1.746 2.65,2.908 0.654,1.158 0.984,2.52 0.984,4.075 0,1.838 -0.405,3.524 -1.222,5.063 -0.812,1.543 -1.918,3.137 -3.322,4.78 -1.402,1.645 -3.063,3.436 -4.987,5.376 -1.919,1.94 -3.99,4.224 -6.205,6.856 h 12.777 l 0.157,-0.056 2.596,-5.658 h 0.206 V 49.52 H 92.472 Z m 37.136,-33.813 c -0.798,0 -1.479,0.172 -2.05,0.521 -0.575,0.346 -1.039,0.798 -1.402,1.352 -0.363,0.554 -0.635,1.191 -0.807,1.918 -0.175,0.729 -0.259,1.455 -0.259,2.182 l -0.157,0.055 -4.153,-4.518 c 1.174,-1.387 2.585,-2.46 4.23,-3.222 1.645,-0.761 3.474,-1.141 5.481,-1.141 1.489,0 2.892,0.182 4.206,0.546 1.314,0.363 2.46,0.899 3.429,1.605 0.968,0.71 1.741,1.603 2.313,2.676 0.569,1.074 0.855,2.319 0.855,3.74 0,1.179 -0.201,2.245 -0.599,3.195 -0.398,0.951 -0.909,1.801 -1.531,2.545 -0.624,0.745 -1.335,1.369 -2.129,1.867 -0.795,0.504 -1.595,0.876 -2.389,1.117 v 0.211 c 1.106,0.274 2.147,0.655 3.115,1.141 0.968,0.486 1.81,1.092 2.52,1.818 0.71,0.726 1.264,1.593 1.66,2.596 0.397,1.006 0.601,2.146 0.601,3.427 0,3.36 -1.073,6.021 -3.221,7.977 -2.147,1.957 -5.194,2.934 -9.143,2.934 -2.181,0 -4.112,-0.364 -5.791,-1.091 -1.679,-0.727 -3.073,-1.644 -4.18,-2.75 l 4.468,-5.509 0.151,0.052 c 0,0.831 0.098,1.635 0.288,2.416 0.189,0.777 0.494,1.462 0.91,2.05 0.412,0.588 0.94,1.064 1.584,1.429 0.637,0.364 1.391,0.546 2.257,0.546 1.594,0 2.807,-0.571 3.635,-1.712 0.833,-1.146 1.247,-2.789 1.247,-4.937 0,-1.074 -0.102,-2.101 -0.309,-3.09 -0.207,-0.985 -0.545,-1.852 -1.014,-2.596 -0.47,-0.744 -1.1,-1.344 -1.896,-1.791 -0.798,-0.452 -1.783,-0.677 -2.962,-0.677 l -2.802,-2.651 v -0.207 h 1.297 c 1.142,0 2.14,-0.24 2.984,-0.727 0.85,-0.485 1.544,-1.124 2.079,-1.923 0.538,-0.795 0.943,-1.687 1.223,-2.672 0.274,-0.987 0.414,-1.982 0.414,-2.988 0,-1.974 -0.389,-3.419 -1.171,-4.337 -0.775,-0.917 -1.768,-1.377 -2.982,-1.377 z"
   id="path19"
   style="fill:url(#SVGID_1_)" />
</g>
</svg>
