<?xml version="1.0" encoding="UTF-8" standalone="no"?>
<svg
   width="149.99899"
   height="67.823997"
   viewBox="0 0 149.99899 67.823997"
   version="1.1"
   xml:space="preserve"
   style="clip-rule:evenodd;fill-rule:evenodd;stroke-linejoin:round;stroke-miterlimit:2"
   id="svg1"
   xmlns="http://www.w3.org/2000/svg"
   xmlns:svg="http://www.w3.org/2000/svg"><defs
   id="defs1" />
    <g
   transform="translate(-4.854,-3.2)"
   id="g1">
        <path
   d="m 146.946,4.645 c 0.325,0.449 7.908,11.244 7.907,32.467 0,21.221 -7.584,32.018 -7.908,32.469 l -1.037,1.443 H 59.111 c -1.554,0 -2.915,-1.031 -3.337,-2.522 -0.425,-1.494 0.196,-3.087 1.517,-3.9 0.189,-0.12 4.98,-3.2 3.337,-6.876 L 53.98,42.847 c -0.077,0.041 -0.155,0.079 -0.235,0.117 -6.296,2.818 -15.61,8.974 -15.61,13.234 0,5.955 2.387,8.187 2.756,8.494 1.329,0.795 1.879,2.321 1.478,3.82 -0.407,1.516 -1.874,2.512 -3.444,2.512 h -30.6 c -1.917,0 -3.471,-1.554 -3.471,-3.47 v -0.552 c 0,-1.029 0.457,-2.005 1.248,-2.666 0.035,-0.03 4.229,-3.608 6.625,-8.969 L 30.973,14.536 C 31.157,14.127 31.126,13.88 31.014,13.589 30.436,12.094 27.783,10.416 26.491,9.851 24.985,9.188 24.151,7.565 24.485,5.959 24.822,4.35 26.24,3.2 27.882,3.2 H 145.909 Z M 61.291,66.803 H 93.192 C 91.242,65.304 88.393,62.529 86.393,58.05 L 67.267,15.25 C 65.712,11.768 67.148,9.066 68.9,7.42 H 30.749 c 1.572,1.047 3.427,2.637 4.202,4.646 0.538,1.389 0.496,2.802 -0.125,4.19 L 16.58,57.088 c -2.137,4.781 -5.386,8.244 -6.921,9.713 H 37.09 c -1.35,-1.651 -3.175,-4.93 -3.175,-10.606 0,-6.775 10.066,-12.946 15.2,-15.652 H 34.594 L 46.083,14.832 64.48,56.002 c 2.187,4.891 -0.994,8.824 -3.189,10.801 z M 143.726,7.42 H 78.307 c -2.053,0 -4.404,1.332 -5.597,3.166 -0.562,0.867 -1.095,2.208 -0.438,3.68 0.141,0.316 14.222,31.951 18.661,41.754 4.692,10.364 16.771,10.771 18.127,10.783 h 34.668 c 1.172,-1.841 6.908,-11.795 6.908,-29.691 0,-17.896 -5.739,-27.849 -6.91,-29.692 z M 92.37,49.314 c 2.422,-2.873 4.642,-5.625 6.648,-8.258 2.009,-2.63 3.72,-5.132 5.14,-7.508 1.421,-2.371 2.528,-4.585 3.327,-6.646 0.794,-2.062 1.19,-3.954 1.19,-5.688 0,-1.974 -0.463,-3.419 -1.397,-4.337 -0.939,-0.917 -2.046,-1.377 -3.327,-1.377 -0.832,0 -1.56,0.164 -2.181,0.494 -0.621,0.33 -1.125,0.761 -1.505,1.298 -0.385,0.536 -0.668,1.162 -0.858,1.872 -0.189,0.709 -0.287,1.445 -0.287,2.206 0,0.487 0.033,0.96 0.105,1.429 0.068,0.466 0.174,0.875 0.313,1.222 l -0.157,0.151 -5.764,-7.269 c 1.246,-1.214 2.775,-2.225 4.594,-3.039 1.817,-0.813 3.833,-1.218 6.052,-1.218 1.557,0 3.058,0.199 4.493,0.597 1.438,0.396 2.71,0.983 3.817,1.766 1.107,0.778 1.991,1.746 2.65,2.908 0.654,1.158 0.984,2.52 0.984,4.075 0,1.838 -0.405,3.524 -1.222,5.063 -0.812,1.543 -1.918,3.137 -3.322,4.78 -1.402,1.645 -3.063,3.436 -4.987,5.376 -1.919,1.94 -3.99,4.224 -6.205,6.856 h 12.777 l 0.157,-0.056 2.596,-5.658 h 0.206 V 49.52 H 92.472 Z m 37.136,-33.813 c -0.798,0 -1.479,0.172 -2.05,0.521 -0.575,0.346 -1.039,0.798 -1.402,1.352 -0.363,0.554 -0.635,1.191 -0.807,1.918 -0.175,0.729 -0.259,1.455 -0.259,2.182 l -0.157,0.055 -4.153,-4.518 c 1.174,-1.387 2.585,-2.46 4.23,-3.222 1.645,-0.761 3.474,-1.141 5.481,-1.141 1.489,0 2.892,0.182 4.206,0.546 1.314,0.363 2.46,0.899 3.429,1.605 0.968,0.71 1.741,1.603 2.313,2.676 0.569,1.074 0.855,2.319 0.855,3.74 0,1.179 -0.201,2.245 -0.599,3.195 -0.398,0.951 -0.909,1.801 -1.531,2.545 -0.624,0.745 -1.335,1.369 -2.129,1.867 -0.795,0.504 -1.595,0.876 -2.389,1.117 v 0.211 c 1.106,0.274 2.147,0.655 3.115,1.141 0.968,0.486 1.81,1.092 2.52,1.818 0.71,0.726 1.264,1.593 1.66,2.596 0.397,1.006 0.601,2.146 0.601,3.427 0,3.36 -1.073,6.021 -3.221,7.977 -2.147,1.957 -5.194,2.934 -9.143,2.934 -2.181,0 -4.112,-0.364 -5.791,-1.091 -1.679,-0.727 -3.073,-1.644 -4.18,-2.75 l 4.468,-5.509 0.151,0.052 c 0,0.831 0.098,1.635 0.288,2.416 0.189,0.777 0.494,1.462 0.91,2.05 0.412,0.588 0.94,1.064 1.584,1.429 0.637,0.364 1.391,0.546 2.257,0.546 1.594,0 2.807,-0.571 3.635,-1.712 0.833,-1.146 1.247,-2.789 1.247,-4.937 0,-1.074 -0.102,-2.101 -0.309,-3.09 -0.207,-0.985 -0.545,-1.852 -1.014,-2.596 -0.47,-0.744 -1.1,-1.344 -1.896,-1.791 -0.798,-0.452 -1.783,-0.677 -2.962,-0.677 l -2.802,-2.651 v -0.207 h 1.297 c 1.142,0 2.14,-0.24 2.984,-0.727 0.85,-0.485 1.544,-1.124 2.079,-1.923 0.538,-0.795 0.943,-1.687 1.223,-2.672 0.274,-0.987 0.414,-1.982 0.414,-2.988 0,-1.974 -0.389,-3.419 -1.171,-4.337 -0.775,-0.917 -1.768,-1.377 -2.982,-1.377 z"
   id="path1" />
    </g>
</svg>
