<?xml version="1.0" encoding="UTF-8"?><svg id="Layer_2" xmlns="http://www.w3.org/2000/svg" width="96.13533" height="92.76805" viewBox="0 0 96.13533 92.76805"><g id="Layer_2-2"><g id="Layer_1_copy_5"><path d="M18.1314,42.55717c-1.81921,2.1944-1.89484,4.33716-1.66809,7.07208.66095,7.97144,4.11804,15.45905,9.52557,21.27887,1.45203-2.3924,3.02838-4.83148,5.24805-6.56818l-8.05865-27.04028s-5.04688,5.25751-5.04688,5.25751ZM95.84923,24.18682c-.53876-2.50525-2.02814-4.8407-4.2511-6.15692L55.12548.47735c-2.15515-.86816-4.41553-.63068-5.78766,1.36578-.53058.77191-.75702,1.69415-1.27716,2.46747-.47528-.79877-.72504-1.71722-1.25885-2.48578-1.30573-1.87994-3.51416-2.18677-5.58771-1.44147C29.29711,6.23064,17.23418,11.78875,5.36144,17.72314c-1.89404.94672-2.81073,1.56012-3.909,3.4812-3.8208,6.68347.67218,14.71051,4.5484,20.25696.13617.03363.18054-.08679.25677-.15784.7276-.67822,1.54413-2.17645,2.28955-3.01849.42224-.47699,1.0365-1.07928,1.51514-1.50336.17603-.15594,1.48663-1.26868,1.6106-1.14673-1.82159,6.96039-2.19531,14.61816-.4696,21.64496,4.30377,17.52411,21.87842,27.63055,36.67511,35.46313.32977.09619.58179-.10602.8606-.23914,2.45087-1.1701,5.09656-2.72412,7.46033-4.09412,14.75757-8.5531,29.12274-19.80542,29.8103-38.41541.05164-1.3988.04694-2.9704,0-4.37048-.11145-3.32355-.61938-6.80579-1.56165-9.98859.1311-.10388,1.37598.92535,1.56311,1.09015.54315.47833,1.29669,1.2243,1.77112,1.76776.71515.81921,1.37561,2.06989,2.09692,2.79486.07214.07257.08856.21393.24176.17334,3.41931-4.91925,7.07452-11.01447,5.72833-17.27454v.00003ZM6.51977,34.48759c-2.07098-3.58636-3.88684-9.10675-.50793-12.46082,2.39026.66858,4.45618,3.3645,5.43842,5.55774.21918.48944.8269,2.04767.82532,2.50488-.00128.36206-5.32434,3.51337-5.7558,4.39819h-.00001ZM80.12627,34.90679c.2489,1.22375.68915,2.40149.9577,3.6214,1.04132,4.73108,1.27985,10.14539.53564,14.93481-2.70892,17.43292-19.35522,27.20447-33.55847,34.78857-14.36688-7.79401-31.13037-17.58197-33.56189-35.41058-.60803-4.45825-.37726-9.58008.55676-13.98193.28778-1.35626.79553-2.68652,1.06335-4.03601,1.14746-5.78174-.58954-11.70349-5.48785-15.1629L43.17687,3.99895c.37463-.02289.5993.6814.75659,1.00482,1.46643,3.01532,2.67847,6.2442,4.07672,9.29816l.23279-.13239c1.37677-2.95251,2.53571-6.02155,3.94482-8.95764.1651-.34393.48273-1.23627.86072-1.21295l32.5453,15.55939-2.03229,1.81848c-3.4176,3.70227-4.42993,8.6394-3.43524,13.52997h-.00002ZM89.70562,34.48759l-5.7536-4.39655c.49347-2.38605,1.88715-4.86542,3.66858-6.53033.41095-.38409,2.21759-1.85938,2.73059-1.42548.23004.19458.83105,1.06281.98749,1.35687,1.75317,3.29517.10364,7.99066-1.63306,10.99548h0ZM77.94213,42.39677c1.87952,2.20544,2.04565,4.32953,1.8197,7.12817-.64569,7.99713-4.09283,15.54376-9.52521,21.38324-1.43427-2.36823-2.98126-4.74561-5.16406-6.49799l-.0744-.19147,7.99866-26.91931,4.94531,5.09735h0ZM69.53155,38.67571l-5.49078,24.53357-2.46552-1.64453c-2.1601-1.2807-4.50067-2.1972-6.91071-2.89215l4.17224-34.38019c.07715-.08704.49042.22064.59558.28821,1.90149,1.22162,4.08679,2.74127,5.89166,4.10101,3.22321,2.42816,4.76593,5.92877,4.20752,9.99409ZM37.38854,24.29241l4.17273,34.38141c-3.3736.91785-6.53809,2.43018-9.32629,4.53339l-5.54083-24.53186c-1.05359-7.42133,4.50415-10.37793,9.78699-13.88617.12964-.08606.8233-.59283.9074-.49677ZM48.0783,16.19927c-2.14539,1.17773-5.50818,1.68274-6.92181,3.79352-1.53662,2.29443-.76447,4.53241-.54047,7.05719.92517,10.42651,1.88739,20.86224,2.91681,31.26978,3.00458-.59314,6.15826-.58167,9.15973.00006l3.33093-35.53516c-.22961-4.45508-4.68384-5.05347-7.94519-6.58539Z"/></g></g></svg>