<svg xmlns="http://www.w3.org/2000/svg" xmlns:xlink="http://www.w3.org/1999/xlink" width="299.998" height="286.01"><defs><linearGradient xlink:href="#a" id="b" x1="-512.275" x2="-482.243" y1="599.635" y2="599.635" gradientTransform="matrix(10.2168 0 0 -10.2168 5230.151 6270.654)" gradientUnits="userSpaceOnUse"/></defs><g><path fill="#fff" d="M128.789 31.102c-6.737 12.638-11.129 25.241-13.098 37.366-9.787-.014-14.938.657-14.938.657-1.766.076-42.321 2.379-73.405 39.29C-1.214 142.354-.342 176.403.145 182.879l1.36 18.832s29.67-26.949 63.715-28.358c39.193.018 71.059 28.569 78.719 65.732 3.392 16.785 1.175 46.925 1.175 46.925s18.504-11.792 27.427-31.083c7.721-16.587 9.954-23.594 11.902-35.372 11.182 1.2 14.822-.031 14.822-.031 1.646-.1 42.321-2.379 73.383-39.37 28.439-33.765 27.639-67.861 27.238-74.332l-1.345-18.779-14.928 11.485c-14.182 10.889-31.078 16.721-48.891 16.702-41.199.009-74.084-31.501-79.481-71.54-2.022-15.277.204-43.69.204-43.69s-18.457 15.777-26.656 31.102"/><path d="M35.063 114.93c-26.264 31.196-25.202 62.245-24.86 67.228 15.182-11.809 34.304-18.861 55.032-18.857 49.702-.019 90.032 40.328 90.038 90.09.009 4.053-.336 8.058-.82 12.072l.027-.007c14.628-21.387 31.837-57.7 12.228-92.994-15.514-28.055-30.102-18.475-51.23-46.529-16.598-21.838-14.313-46.751-14.313-46.751s-5.604.254-14.175 2.55c-13.545 3.631-34.426 12.374-51.927 33.198m98.204 1.304c15.507 28.028 30.035 18.436 51.215 46.475 16.546 21.852 14.28 46.731 14.28 46.731s37.562-1.728 66.209-35.774c26.244-31.163 25.188-62.298 24.854-67.142-15.316 11.731-34.371 18.822-55.134 18.799-49.589.016-89.971-40.316-89.964-90.026.004-4.113.301-8.191.825-12.159-14.68 21.402-31.861 57.708-12.285 93.096" style="fill:url(#b)"/><linearGradient id="a" x1="-512.275" x2="-482.243" y1="599.635" y2="599.635" gradientTransform="matrix(10.2168 0 0 -10.2168 5230.151 6270.654)" gradientUnits="userSpaceOnUse"><stop offset="0" style="stop-color:#612c75"/><stop offset=".3" style="stop-color:#7b5190"/><stop offset=".5" style="stop-color:#bf99c3"/><stop offset=".7" style="stop-color:#7b5190"/><stop offset="1" style="stop-color:#612c75"/></linearGradient></g></svg>