<svg xmlns="http://www.w3.org/2000/svg" width="279.837" height="242.325"><path d="M24.969 91.792C-1.295 122.988-.233 154.037.109 159.02c15.182-11.809 34.304-18.861 55.032-18.857 49.702-.019 90.032 40.328 90.038 90.09.009 4.053-.336 8.058-.82 12.072l.027-.007c14.628-21.387 31.837-57.7 12.228-92.994-15.514-28.055-30.102-18.475-51.23-46.529-16.598-21.838-14.313-46.751-14.313-46.751s-5.604.254-14.175 2.55C63.351 62.225 42.47 70.968 24.969 91.792m98.204 1.304c15.507 28.028 30.035 18.436 51.215 46.475 16.546 21.852 14.28 46.731 14.28 46.731s37.562-1.728 66.209-35.774c26.244-31.163 25.188-62.298 24.854-67.142-15.316 11.731-34.371 18.822-55.134 18.799-49.589.016-89.971-40.316-89.964-90.026.004-4.113.301-8.191.825-12.159-14.68 21.402-31.861 57.708-12.285 93.096"/></svg>