<svg xmlns="http://www.w3.org/2000/svg" xml:space="preserve" width="149.801" height="68" viewBox="0 0 149.801 68"><path d="M142 1.4 141 0H23c-1.6 0-3.1 1.2-3.4 2.8s.5 3.2 2 3.9c1.3.6 3.9 2.2 4.5 3.7.1.3.1.5 0 .9L7.8 52.1c-2.4 5.4-6.6 8.9-6.6 9Q0 62.15 0 63.8v.6c0 1.9 1.6 3.5 3.5 3.5h30.6c1.6 0 3-1 3.4-2.5s-.1-3-1.5-3.8c-.4-.3-2.8-2.5-2.8-8.5 0-4.3 9.3-10.4 15.6-13.2.1 0 .2-.1.2-.1l6.6 14.9c1.6 3.7-3.1 6.8-3.3 6.9-1.3.8-1.9 2.4-1.5 3.9s1.8 2.5 3.3 2.5h86.8l1-1.4c.3-.5 7.9-11.2 7.9-32.5.1-21.5-7.5-32.3-7.8-32.7"/><path d="M56.4 63.5c2.2-2 5.4-5.9 3.2-10.8L41.2 11.6 29.7 37.3h14.5C39.1 40 29 46.2 29 53c0 5.7 1.8 9 3.2 10.6H4.7c1.5-1.5 4.8-4.9 6.9-9.7l18.2-40.8c.6-1.4.7-2.8.1-4.2-.7-2.1-2.5-3.7-4.1-4.7H64c-1.8 1.6-3.2 4.3-1.6 7.8l19.1 42.8c2 4.5 4.8 7.3 6.8 8.8z" style="fill:#636f78"/><linearGradient id="a" x1="68.313" x2="151.097" y1="37.653" y2="37.653" gradientTransform="translate(-4.8 -3.8)" gradientUnits="userSpaceOnUse"><stop offset="0" style="stop-color:#636f78"/><stop offset=".04" style="stop-color:#697780"/><stop offset=".11" style="stop-color:#7d8e98"/><stop offset=".2" style="stop-color:#9fb5c1"/><stop offset=".2" style="stop-color:#a1b8c4"/><stop offset=".29" style="stop-color:#aec7d5"/><stop offset=".38" style="stop-color:#b5cede"/><stop offset=".5" style="stop-color:#b7d1e1"/><stop offset=".62" style="stop-color:#b5cede"/><stop offset=".71" style="stop-color:#aec7d5"/><stop offset=".8" style="stop-color:#a1b8c4"/><stop offset=".8" style="stop-color:#a1b7c3"/><stop offset=".85" style="stop-color:#8c9ea9"/><stop offset=".91" style="stop-color:#75838d"/><stop offset=".96" style="stop-color:#68747d"/><stop offset="1" style="stop-color:#636f78"/></linearGradient><path d="M138.8 4.2H73.4c-2.1 0-4.4 1.3-5.6 3.2-.6.9-1.1 2.2-.4 3.7.1.3 14.2 32 18.7 41.8 4.7 10.4 16.8 10.8 18.1 10.8h34.7c1.2-1.8 6.9-11.8 6.9-29.7-.1-18-5.8-28-7-29.8m-30.5 36.6.2-.1 2.6-5.7h.2v11.2H87.5l-.1-.2c2.4-2.9 4.6-5.6 6.6-8.3q3-3.9 5.1-7.5t3.3-6.6q1.2-3.15 1.2-5.7c0-2-.5-3.4-1.4-4.3s-2-1.4-3.3-1.4c-.8 0-1.6.2-2.2.5s-1.1.8-1.5 1.3-.7 1.2-.9 1.9-.3 1.4-.3 2.2c0 .5 0 1 .1 1.4q.15.75.3 1.2l-.2.2-5.8-7.3c1.2-1.2 2.8-2.2 4.6-3s3.8-1.2 6.1-1.2q2.4 0 4.5.6c1.4.4 2.7 1 3.8 1.8s2 1.7 2.6 2.9c.7 1.2 1 2.5 1 4.1q0 2.7-1.2 5.1-1.2 2.25-3.3 4.8c-1.4 1.6-3.1 3.4-5 5.4-1.9 1.9-4 4.2-6.2 6.9h13zm28.4-.8v7.2c-6.6-.1-7.7 1.1-7.7 1.1l.1-9.1h-11.8l-3.8-3.4 22.6-27.4.3-.3v27.5h5.2z" style="fill:url(#a)"/><linearGradient id="b" x1="98.345" x2="145.067" y1="32.457" y2="32.457" gradientTransform="translate(-4.8 -3.8)" gradientUnits="userSpaceOnUse"><stop offset="0" style="stop-color:#636f78"/><stop offset=".04" style="stop-color:#697780"/><stop offset=".11" style="stop-color:#7d8e98"/><stop offset=".2" style="stop-color:#9fb5c1"/><stop offset=".2" style="stop-color:#a1b8c4"/><stop offset=".29" style="stop-color:#aec7d5"/><stop offset=".38" style="stop-color:#b5cede"/><stop offset=".5" style="stop-color:#b7d1e1"/><stop offset=".62" style="stop-color:#b5cede"/><stop offset=".71" style="stop-color:#aec7d5"/><stop offset=".8" style="stop-color:#a1b8c4"/><stop offset=".8" style="stop-color:#a1b7c3"/><stop offset=".85" style="stop-color:#8c9ea9"/><stop offset=".91" style="stop-color:#75838d"/><stop offset=".96" style="stop-color:#68747d"/><stop offset="1" style="stop-color:#636f78"/></linearGradient><path d="M118.3 35.6h10.8V21.7L118.3 35Z" style="fill:url(#b)"/></svg>