<svg xmlns="http://www.w3.org/2000/svg" xml:space="preserve" width="467.883" height="512.961" style="clip-rule:evenodd;fill-rule:evenodd;stroke-linejoin:round;stroke-miterlimit:2"><path d="M155.354 0C78.14 21.945 29.941 77.436 8.941 111.686c-11.5 58.5-12.25 118.25-.25 189.25 58.5 35 68.5 107.5 61.75 144.5 35.416-15.315 72.136-49.667 94.25-100-22.446 3.113-37.586-12.836-29.75-39.75 2.974-10.212 38.444-42.34 38.444-42.34h24.185v109.34s-4.379 41.5-42.879 73.75c4.75 5.75 18.375 12.5 18.375 12.5s-14.482 12.891-22.187 17c43.062 49.367 123.062 49.367 166.125 0-7.705-4.109-22.188-17-22.188-17s13.625-6.75 18.375-12.5c-38.5-32.25-42.878-73.75-42.878-73.75v-109.34h24.185s35.47 32.128 38.443 42.34c7.837 26.914-7.303 42.863-29.75 39.75 22.115 50.333 58.834 84.685 94.25 100-6.75-37 3.25-109.5 61.75-144.5 12-71 11.25-130.75-.25-189.25-21-34.25-69.198-89.741-146.412-111.686 2.712 2.873 8.004 17.514 8.004 17.514l13.658 79.547-40.625 42.625h-17.625l-42-100.526-42 100.526h-17.625l-40.625-42.625 13.66-79.547S152.641 2.873 155.353 0" style="fill-rule:nonzero"/><path d="M132.48 23.188c-77.005 33.894-98.89 79.833-109.396 92.386-9.342 47.709-13.508 103.45-1.31 176.168 46.432 33.659 66.33 89.976 64.578 127.531 26.287-17.969 36.944-28.326 55.713-60.755-22.4-17.246-83.254-84.202-54.395-191.905 2.14-7.983 5.73-10.906 3.84.787-11.416 70.631 6.344 110.592 27.58 143.018 1.166-5.551 4.465-12.569 10.687-22.871 5.5-9.104 39.366-38.854 39.366-38.854h43.26v109.918s0 53.315-33.67 86.057c4.75 5.75 19.435 7.904 19.435 7.904s-15.682 21.653-23.387 25.762c28.321 23.43 52.15 21.812 59.16 21.812 7.012 0 30.84 1.618 59.161-21.812-7.705-4.109-23.387-25.762-23.387-25.762s14.685-2.154 19.435-7.904c-33.669-32.742-33.669-86.057-33.669-86.057V248.693h43.26s33.866 29.75 39.365 38.854c6.222 10.302 9.521 17.32 10.687 22.871 21.236-32.426 38.996-72.387 27.58-143.018-1.89-11.693 1.701-8.77 3.84-.787 28.86 107.703-31.994 174.659-54.395 191.905 18.77 32.429 29.426 42.786 55.713 60.755-1.75-37.555 18.146-93.872 64.578-127.531 12.198-72.718 8.032-128.459-1.31-176.168-10.505-12.553-32.39-58.492-109.395-92.386l12.366 80.113-47.614 50.64h-39.373v-13.902l-26.842-64.154-26.84 64.154v13.902h-39.374l-47.614-50.64z" style="fill:url(#a);fill-rule:nonzero"/><defs><linearGradient id="a" x1="0" x2="1" y1="0" y2="0" gradientTransform="translate(14.224 202.685)scale(439.436)" gradientUnits="userSpaceOnUse"><stop offset="0" style="stop-color:#612c75;stop-opacity:1"/><stop offset=".2" style="stop-color:#7b5190;stop-opacity:1"/><stop offset=".5" style="stop-color:#bf99c3;stop-opacity:1"/><stop offset=".8" style="stop-color:#7b5190;stop-opacity:1"/><stop offset="1" style="stop-color:#612c75;stop-opacity:1"/></linearGradient></defs></svg>