<svg xmlns="http://www.w3.org/2000/svg" width="564.405" height="418.826"><path d="m435.971 281.906 15.043-92.756-74.783 54.9c-18.417-8.079-38.084-13.885-58.228-17.168l-34.801-85.258-34.392 84.326a238.7 238.7 0 0 0-61.91 17.168l-73.499-53.968 14.736 90.984C93.564 310.89 71.33 352.474 71.33 400.273c0 0 3.056 17.576 12.873 17.576 16.815 0 48.503-103.005 195.012-103.005 146.588 0 183.207 103.982 200.022 103.982 9.317 0 13.85-17.838 13.85-17.838 0-47.094-22.462-88.28-57.115-119.082m128.433.273s-2 27.12-16.157 27.12c-15.395 0-9.01-13.315-16.19-31.824-37.46-97.017-128.796-161.597-250.582-161.597S68.26 181.117 32.404 277.339c-8.703 23.348-1.682 31.597-16.554 31.597C1.023 308.936 0 282.179 0 282.179 0 126.353 101.017 0 282.225 0c181.173 0 282.179 126.353 282.179 282.18"/></svg>