<svg xmlns="http://www.w3.org/2000/svg" xmlns:xlink="http://www.w3.org/1999/xlink" width="143pt" height="200pt" viewBox="0 0 143 200"><defs><radialGradient xlink:href="#a" id="b" cx="0" cy="0" r="1" fx="0" fy="0" gradientTransform="matrix(71.5 0 0 -71.5 71.5 100)" gradientUnits="userSpaceOnUse" spreadMethod="pad"/></defs><path fill="url(#a)" d="M134 9v181H10V9z" style="fill:url(#b)"/><radialGradient id="a" cx="0" cy="0" r="1" fx="0" fy="0" gradientTransform="matrix(71.5 0 0 -71.5 71.5 100)" gradientUnits="userSpaceOnUse" spreadMethod="pad"><stop offset="0" style="stop-color:#bf99c3"/><stop offset=".7" style="stop-color:#7b5190"/><stop offset="1" style="stop-color:#612c75"/></radialGradient><path d="M0 0h143v200H0zm10 9v181h124V9z" style="fill:#fff;fill-opacity:1"/><path d="M112.92 39.386q-2.52 1.8-8.28 2.61c-3.84.54-5.843 1.2-6.023 1.979q-.269 1.169-.268 3.688 0 8.091 4.131 29.945 4.14 21.853 5.4 24.732c1.08 7.91 2.82 17.99 5.22 30.21 2.39 12.23 4.52 18.98 6.38 20.24q2.79 1.89 8.73 1.89c3.95 0 5.69 2.1 5.21 6.29-2.4.48-4.26.73-5.57.73q-1.8 0-7.2-.81c-3.6-.54-9.29-.81-17.09-.81-7.191 0-11.897.3-14.114.89q-3.327.9-3.689.54c-1.197-1.2-1.795-2.22-1.795-3.05q0-1.8 6.924-3.33t8.363-4.05q-2.338-16.005-4.767-32.28c-1.62-10.85-2.969-16.52-4.048-17q-1.62-.72-26.259 2.79c-16.427 2.34-25.301 4.34-26.622 6.02-1.675 5.88-3.353 12.29-5.033 19.25-1.679 6.95-2.519 13.31-2.519 19.06q0 2.52.359 5.31.36 2.79 3.961 2.79c2.755-.24 5.512-.48 8.271-.73 1.201.37 1.801 1.15 1.801 2.35v2.87l-34.355 2.34q-.538-4.14-.538-5.22c0-.59.33-.83.988-.71q.987.18 2.607.54 1.8 0 3.507-1.26c1.138-.84 3.296-7.23 6.475-19.16s5.606-20.95 7.286-27.07q0-.36-.272 1.08-.271 1.44-.271 1.62l17.63-65.65q-5.22-1.8-10.434-3.776-25.54-1.257-25.54-7.372a2856 2856 0 0 0 30.035 1.704q15.649.81 22.664.81 10.61 0 24.461-1.619c9.234-1.079 14.754-1.619 16.544-1.619q6.66 0 7.74 3.238M42.054 93.704q.538.544 5.753.544 8.815 0 20.416-.81t21.135-1.891q0-8.99-4.858-26.887t-5.758-18.706q-.9-.81-2.698-.81h-3.235q-4.139 0-8.994.09t-9.175.266a6538 6538 0 0 0-8.54 32.016q-4.227 16.007-4.046 16.187z" style="fill:#fff;fill-opacity:1"/></svg>