<svg xmlns="http://www.w3.org/2000/svg" width="554.705" height="209.631"><path d="m404.096 93.565 1.874-.037c25.495-1.191 27.904-26.317 27.941-26.576.074-1.043-.61-1.975-1.615-2.307-.222-.067-.434-.067-.656-.067-.83 0-1.588.397-2.012 1.117-.074.101-8.013 13.228-24.526 14.603-.97.037-1.874.074-2.779.074-15 0-24.73-10.283-24.803-10.385a2.43 2.43 0 0 0-1.735-.729c-.36 0-.757.074-1.117.259-.896.498-1.366 1.55-1.08 2.557.073.221 6.747 21.49 30.507 21.49m-75.544 16.227-43.016 5.52-1.726-10.93L3.637 142.349 0 116.963l279.692-38.29-1.874-11.898 30.324-4.975s5.52 13.228 24.267 13.228c17.926 0 38.336-22.606 38.336-22.606l-12.951-36.416 26.575 30.572a67 67 0 0 1 7.606-2.16L396.951 0 408.6 42.978a72 72 0 0 1 7.542.72L433.91 9.406l-3.314 37.93c1.514.544 3.065 1.153 4.652 1.809 8.511 3.563 16.948 10.818 26.686 10.061 8.899-.692 13.413-4.763 17.197-12.295.896-1.81 1.653-9.379 1.653-9.379 24.203 27.656 73.92-31.984 73.92-31.984-30.25 124.467-97.967 204.083-184.791 204.083-66.563 0-81.388-56.899-81.388-56.899s24.056 3.397 40.025-7.643c16.015-11.03 6.064-28.126 0-35.298"/></svg>