<?xml version="1.0" encoding="UTF-8" standalone="no"?>
<svg
   height="499.95312"
   width="520.61328"
   version="1.1"
   id="svg1"
   xmlns="http://www.w3.org/2000/svg"
   xmlns:svg="http://www.w3.org/2000/svg">
  <defs
     id="defs1" />
  <path
     d="M 202.14063,0 C 112.81725,32.88397 79.316349,101.44454 72.97461,111.32618 54.30905,140.41066 34.80946,156.15315 0,140.65625 c 1.64741,71.95757 142.60672,153.61757 136.85156,194.03125 -1.02542,7.20064 -6.25009,11.59144 -13.05078,14.30664 23.71029,-5.80448 42.17775,-25.23235 36.00586,-71.01368 51.77678,70.08466 29.84592,134.08767 10.21875,165.65625 24.98561,22.29677 54.52092,40.99984 90.28125,56.31641 35.7603,-15.31656 65.2957,-34.01963 90.28125,-56.31641 -19.6271,-31.56858 -41.55805,-95.57159 10.21875,-165.65625 -6.1719,45.78132 12.29556,65.2092 36.00586,71.01368 -6.8007,-2.71519 -12.02528,-7.106 -13.05078,-14.30664 -5.7551,-40.41368 135.20416,-122.07368 136.85156,-194.03126 -34.8095,15.49692 -54.30901,-0.24558 -72.97461,-29.33007 C 441.29697,101.44453 407.79604,32.88397 318.47266,0 v 49 c 0,30.935615 -24.90425,55.83984 -55.83985,55.83984 h -2.32617 -2.32617 c -30.93561,0 -55.83984,-24.904225 -55.83984,-55.83984 z m -40.33399,76.230465 c 6.91775,26.215035 14.2589,33.619075 25.75,44.749995 -18.80492,9.57602 -55.17486,30.6826 -89.750001,87.75 5.069221,-68.66845 31.088241,-103.77849 64.000001,-132.499995 z m 197,0 c 32.9118,28.721515 58.9308,63.831545 64,132.499995 -34.5751,-57.0674 -70.9451,-78.17398 -89.75,-87.75 11.4911,-11.13092 18.8323,-18.53496 25.75,-44.749995 z m -98.5,81.943355 c 22.89482,14.48016 38.36061,28.59538 52.26758,43.53516 -26.04917,40.37444 -41.26021,78.82878 -52.26758,115.07812 -11.00737,-36.24934 -26.21841,-74.70368 -52.26758,-115.07812 13.90697,-14.93978 29.37276,-29.055 52.26758,-43.53516 z"
     id="path1" />
</svg>
