<svg xmlns="http://www.w3.org/2000/svg" xmlns:xlink="http://www.w3.org/1999/xlink" width="600" height="320.356"><linearGradient xlink:href="#a" id="b" x1="0" x2="1" y1="0" y2="0" gradientTransform="rotate(135 260.504 82.604)scale(574.54154)" gradientUnits="userSpaceOnUse" spreadMethod="pad"/><linearGradient id="a" x1="0" x2="1" y1="0" y2="0" gradientTransform="rotate(45 325.272 962.442)scale(-47.912 47.912)" gradientUnits="userSpaceOnUse" spreadMethod="pad"><stop offset="0" style="stop-color:#bf331c"/><stop offset=".5" style="stop-color:#f6b91d"/><stop offset="1" style="stop-color:#bf331c"/></linearGradient><path d="M560.38 320.356c10.816-20.842 18.73-43.098 26.046-65.343C589.603 241.8 600 204.133 600 162.163c0-41.971-9.977-83.186-13.91-97.288-6.32-22.34-15.925-43.518-24.823-64.875H38.65C29.8 21.357 20.195 42.534 13.911 64.875 9.977 78.977 0 120.192 0 162.162s10.36 79.637 13.586 92.851c7.303 22.245 15.182 44.501 26.046 65.343z" style="fill:#fff"/><path d="m44.688 8.994-2.206 5.157c-7.303 17.28-14.846 35.075-19.954 53.158-2.243 8.107-13.587 50.869-13.587 94.806 0 37.522 8.718 72.237 12.424 87.035l.743 3.046c7.399 22.532 14.246 41.455 23.048 59.167h509.643c9.413-19.067 16.632-39.585 22.808-58.507l.887-3.418c3.754-14.858 12.508-49.61 12.508-87.323 0-43.937-11.333-86.7-13.575-94.806-5.012-17.891-12.555-35.603-19.774-52.69l-2.338-5.625z" style="fill:url(#b);stroke-width:11.9916"/><path d="M457.084 105.67s-10.768 6.38-24.727 17.196c0 0 .744-12.411 2.387-21.597 1.595-9.173.37-13.203.37-13.203s3.61-5.576 10.41-10.78c6.787-5.192 12.59-8.382 15.36-9.605 2.855-1.212 8.623-7.207 23-13.575 0 0 10.122 4.257 15.17 9.593 4.03 4.221 13.215 9.186 16.021 11.992 2.77 2.77 10.589 12.795 15.973 19.21 0 0 1.223 9.978-.371 28.756 0 0-28.385 27.965-35.975 39.585 0 0 10.348 1.175 14.761.371 4.401-.791 11.608-2.758 19.57-2.386 0 0 5.253-7.963 9.654-13.203l7.962 9.221s-15.6 27.173-16.812 43.566c0 0-12.363-1.223-14.378 1.175 0 0 .42-6.751-.384-11.152 0 0-18.778-1.595-34.38-.42-15.6 1.176-33.204 1.596-49.177 2.807 0 0 10.397-9.606 16.812-15.218 6.416-5.576 12.411-11.991 17.988-15.972 5.576-3.982 8.753-6.8 12.783-9.977 3.98-3.19 15.972-17.616 25.95-25.207 0 0 1.642-8.382-.744-16.764-2.434-8.43-8.85-12.423-18.827-20.002-9.977-7.59-23.144-7.59-29.56-4.413 0 0-3.609 13.215 1.164 20.002m-223.523 85.536c5.947 15.23 12.04 30.639 14.377 46.935-5.012 2.722-10.588 4.365-15.36 7.495-10.913 7.075-19.487 17.244-25.77 28.576-5.613-2.482-11.285-5.108-16.153-8.994-.936-2.062-.24-4.497-.288-6.691 1.319-14.438-1.68-28.864-5.9-42.582-4.173-13.215-7.867-26.657-13.683-39.309-7.398-17.52-15.505-35.123-27.82-49.789-2.482-2.206-5.576-7.123-9.27-4.257-4.592 4.21-4.64 11.704-9.605 15.637-6.367 1.787-11.991-2.482-17.424-5.108-3.753-1.967-9.185-4.581-8.058-9.785 2.626-10.445 8.238-19.906 10.912-30.4.24-3.273 1.691-8.525-2.386-9.976-5.528-2.77-11.992-2.902-17.52-5.528-2.254-1.175-2.482-4.125-1.031-6.044 2.758-4.03 5.624-8.286 9.653-11.236 8.382-1.127 16.812.791 25.243.743 13.586.372 27.22-.048 40.795.888 1.175 9.281 6.092 17.472 11.764 24.69 10.217 13.767 16.956 29.932 28.804 42.535 1.594 1.45 3.333 3.37 5.672 3.465 3.741-1.27 6.93-4.125 10.96-4.832 4.737.383 7.639 4.736 10.732 7.83 2.998 3.742 7.675 7.77 6.128 13.119-1.918 5.336-7.11 9.03-7.818 14.846-1.128 9.317-.469 18.97 3.046 27.772m149.427-120.48c11.332-4.676 22.196-10.444 33.816-14.33-.564 16.909.144 33.865-.983 50.773-.144 16.536.756 38.325.516 54.862.24 2.902-1.727 6.643-3.561 8.382-6.74 5.804-12.364 10.396-17.988 17.184-1.403 1.786-7.207 6.703-9.221 7.638 1.499-30.542 2.242-67.033.37-97.575-.047-1.631 1.032-4.869-.802-4.773-7.255-.612-18.683 1.08-25.95.42-.276-3.37-.6-8.239-.371-11.62 6.14-4.498 17.292-7.771 24.175-10.961m3.046 172.331c-.384 4.641-2.818 8.718-4.965 12.7-10.684-1.176-20.805-5.433-31.574-6.092-16.68-2.243-34.008-2.387-50.22 2.578-5.852 1.787-10.817 5.528-16.105 8.574-4.317-4.449-8.766-8.85-12.328-13.91 8.155-8.059 19.343-13.73 23.936-24.835 3.333-9.413-1.919-18.827-5.289-27.485-6.463-17.855-16.392-34.152-23.983-51.48-1.499-2.722-2.674-6.14-5.672-7.542-4.113.551-8.01 4.257-12.22 2.53-4.316-2.818-7.542-7.027-10.78-10.972-2.71-3.082-3.981-7.58-2.242-11.38 2.482-3.838 6.271-6.608 8.85-10.397 3.19-4.725 6.367-9.558 8.526-14.894 1.079-2.386-.42-4.868-2.159-6.367-7.159-5.816-16.069-8.766-23.647-13.923 2.998-5.192 6.32-10.204 9.461-15.265 5.9.42 11.428 2.77 17.328 3.274 8.382.803 16.908.803 25.338.288 4.833-.192 9.33-2.387 14.102-3.094 4.173 1.966 7.867 4.82 11.8 7.267-.504 6.223-3.13 12.123-2.29 18.407 1.079 9.413 3.045 18.875 7.219 27.449 6.367 12.735 14.006 24.87 19.342 38.169 6.98 16.872 15.181 33.313 20.614 50.832 2.614 8.239 3.045 17.892 9.689 24.163 6.14 5.349 13.119 9.558 19.87 14.055 2.854 1.966 5.9 4.077 7.399 7.35m175.749-68.987c.096 6.979-.984 13.814-1.919 20.65-1.031 6.798-1.271 13.73-2.722 20.517-1.499 7.219-3.645 14.246-5.48 21.453-3.37 15.037-9.414 29.331-15.038 43.661-.37 2.159-2.806 1.967-4.449 2.11-151.154-.047-302.272-.047-453.426 0-4.833-.191-9.93.696-14.618-.66-3.753-8.333-7.123-16.86-9.785-25.625 7.77-4.725 16.86-6.32 25.71-7.543 10.217-.791 20.613-.791 30.734 1.031.324-4.82.324-9.689-.096-14.522-4.64-3.177-11.38-5.288-12.603-11.571-1.918-9.174 1.691-18.168 4.03-26.886 2.062-8.706 6.703-16.392 9.929-24.726 2.254-5.996 7.254-11.476 6.14-18.323-.193-3.322-3.61-5.049-6.188-6.464-4.821-2.29-9.786-4.677-15.134-5.24-3.417-.468-6.176 2.386-7.543 5.192-8.993 18.887-13.958 39.309-22.244 58.46-4.353 11.295-9.653 22.723-18.551 31.25-2.998-6.512-3.561-13.78-5.384-20.614-2.159-10.769-3.466-21.681-4.641-32.51-.563-14.893-.467-29.835-.096-44.728 1.223-17.1 4.88-33.913 8.154-50.689 5.013-16.908 10.733-33.672 17.424-49.98 1.643-.18 3.334-.372 5.013-.42 155.47.144 310.894-.096 466.365.096 2.998 4.593 4.677 9.929 6.464 15.085 3.98 12.04 8.43 23.936 11.847 36.203 2.111 11.716 5.013 23.336 6.092 35.231 2.902 16.393 2.015 33.073 2.015 49.562m16.44-54.862c-1.966-10.577-3.37-21.31-6.271-31.706-1.967-12.46-7.123-24.079-10.637-36.118-3.837-10.96-8.85-21.501-13.263-32.27-1.726-.096-3.321-.192-5.012-.24-157.57.048-315.152 0-472.721.048-6.38.048-12.795-.323-19.21.24-3.095 11.476-9.318 21.825-12.784 33.205-5.06 16.213-10.78 32.365-13.826 49.141-3.466 16.297-4.353 32.977-4.497 49.598-.132 16.824-.096 33.684 1.643 50.364 1.45 11.38 4.22 22.437 6.74 33.541 2.865 15.361 9.425 29.691 14.341 44.453 3.142 7.255 6.044 14.558 8.946 21.92 165.544.096 331.124.096 496.62 0 12.136-29.93 23.983-60.425 28.576-92.61 3.514-16.585 2.71-33.59 3.694-50.401-.888-13.071-.563-26.19-2.339-39.165"/></svg>