<svg xmlns="http://www.w3.org/2000/svg" xmlns:xlink="http://www.w3.org/1999/xlink" width="600" height="320.554"><linearGradient id="a" x1="0" x2="1" y1="0" y2="0" gradientTransform="scale(-49.6349 49.6349)rotate(-45 -5.2 16.167)" gradientUnits="userSpaceOnUse" spreadMethod="pad"><stop offset="0" style="stop-color:#536e78"/><stop offset=".5" style="stop-color:#d9eaf3"/><stop offset="1" style="stop-color:#536e78"/></linearGradient><linearGradient xlink:href="#a" id="b" x1="0" x2="1" y1="0" y2="0" gradientTransform="scale(-595.57114)rotate(-45 -.326 1.077)" gradientUnits="userSpaceOnUse" spreadMethod="pad"/><path d="M38.757 0c-8.903 21.37-18.515 42.56-24.79 64.915C10.03 79.025 5.34 93.04 3.792 107.667A492 492 0 0 1 0 135.133v57.08c1.92 7.691 3.144 15.478 4.212 23.35 1.788 13.499 6.191 26.434 9.43 39.609 7.308 22.306 15.18 44.528 26.05 65.382H560.44a456 456 0 0 0 21.142-50.672c3.84-13.45 9.048-26.577 11.244-40.496 3.611-14.807 4.691-30.142 7.175-45.189v-54.595c-2.772-12.42-3.984-25.078-7.031-37.401C587.34 59.995 573.519 30.14 561.423 0Z" style="fill:url(#b);stroke-width:11.999"/><path d="M457.224 105.736s-10.776 6.383-24.79 17.206c0 0 .791-12.42 2.387-21.61 1.596-9.18.372-13.211.372-13.211s3.66-5.58 10.415-10.787c6.84-5.196 12.6-8.388 15.42-9.611 2.807-1.212 8.58-7.212 23.013-13.583 0 0 10.08 4.26 15.18 9.599 3.982 4.224 13.222 9.19 15.981 11.999 2.82 2.772 10.596 12.803 15.983 19.222 0 0 1.224 9.984-.37 28.774 0 0-28.403 27.982-35.998 39.609 0 0 10.403 1.176 14.818.37 4.404-.791 11.567-2.76 19.583-2.386 0 0 5.207-7.968 9.611-13.211l7.967 9.227s-15.61 27.19-16.774 43.592c0 0-12.42-1.223-14.387 1.176 0 0 .371-6.755-.432-11.16 0 0-18.79-1.595-34.4-.42-15.612 1.177-33.179 1.597-49.16 2.809 0 0 10.354-9.612 16.773-15.227 6.42-5.58 12.42-12 18-15.983 5.626-3.984 8.806-6.803 12.79-9.983 3.983-3.192 15.982-17.627 26.014-25.222 0 0 1.596-8.387-.792-16.775-2.388-8.435-8.808-12.43-18.79-20.014-10.032-7.596-23.207-7.596-29.626-4.416 0 0-3.564 13.223 1.212 20.015M233.56 191.324c5.904 15.239 12 30.657 14.34 46.964-5.016 2.724-10.548 4.368-15.372 7.5-10.919 7.079-19.45 17.254-25.737 28.593-5.664-2.484-11.34-5.111-16.163-9-.984-2.063-.24-4.5-.288-6.695 1.272-14.446-1.68-28.881-5.904-42.608-4.223-13.223-7.87-26.674-13.69-39.333-7.452-17.53-15.563-35.145-27.886-49.82-2.484-2.208-5.58-7.128-9.228-4.26-4.643 4.212-4.69 11.71-9.61 15.647-6.372 1.788-12-2.484-17.435-5.112-3.756-1.967-9.192-4.583-8.064-9.79 2.58-10.452 8.196-19.92 10.92-30.418.191-3.276 1.691-8.532-2.388-9.984-5.532-2.771-12-2.903-17.53-5.531-2.305-1.176-2.533-4.128-1.033-6.048 2.76-4.031 5.628-8.291 9.611-11.243 8.436-1.128 16.823.792 25.258.744 13.643.373 27.286-.048 40.87.888 1.127 9.287 6.046 17.483 11.77 24.706 10.211 13.775 16.967 29.95 28.774 42.56 1.644 1.453 3.335 3.372 5.675 3.468 3.792-1.271 6.984-4.127 10.967-4.835 4.728.384 7.692 4.74 10.728 7.835 3.047 3.744 7.69 7.776 6.143 13.127-1.872 5.34-7.127 9.035-7.823 14.855-1.08 9.323-.469 18.982 3.095 27.79M383.033 70.77c11.34-4.68 22.21-10.45 33.838-14.34-.565 16.92.192 33.887-.936 50.805-.192 16.547.708 38.35.516 54.896.228 2.904-1.74 6.648-3.61 8.387-6.709 5.808-12.372 10.404-18 17.195-1.356 1.788-7.21 6.707-9.227 7.643 1.5-30.561 2.244-67.074.42-97.636-.049-1.632 1.031-4.871-.804-4.775-7.308-.613-18.695 1.08-26.014.42-.277-3.373-.564-8.244-.372-11.628 6.192-4.5 17.34-7.775 24.19-10.967m3.096 172.438c-.432 4.644-2.868 8.723-5.015 12.707-10.692-1.176-20.819-5.436-31.594-6.095-16.69-2.244-33.98-2.388-50.204 2.58-5.903 1.787-10.87 5.53-16.127 8.579-4.355-4.452-8.759-8.856-12.37-13.92 8.16-8.063 19.354-13.738 23.95-24.85 3.371-9.418-1.92-18.838-5.244-27.501-6.468-17.867-16.403-34.173-24.046-51.512-1.5-2.724-2.676-6.143-5.628-7.547-4.175.552-8.015 4.26-12.275 2.53-4.32-2.82-7.547-7.03-10.787-10.978-2.664-3.083-3.984-7.583-2.244-11.387 2.532-3.84 6.324-6.611 8.856-10.403 3.24-4.728 6.371-9.563 8.53-14.903 1.08-2.388-.37-4.871-2.159-6.371-7.163-5.82-16.079-8.772-23.662-13.931 3-5.196 6.371-10.211 9.467-15.275 5.904.42 11.435 2.772 17.34 3.276 8.434.804 16.917.804 25.353.288 4.835-.192 9.335-2.388 14.11-3.096 4.176 1.968 7.92 4.824 11.808 7.272-.516 6.227-3.132 12.13-2.292 18.418 1.08 9.42 3.096 18.887 7.223 27.466 6.372 12.743 14.051 24.886 19.355 38.193 6.983 16.882 15.18 33.333 20.626 50.864 2.616 8.243 3.084 17.902 9.695 24.178 6.144 5.35 13.127 9.563 19.87 14.063 2.87 1.967 5.916 4.08 7.464 7.355m175.858-69.03c.096 6.983-1.032 13.822-1.968 20.662-1.032 6.803-1.272 13.739-2.676 20.53-1.547 7.224-3.707 14.255-5.53 21.467-3.373 15.046-9.372 29.35-15 43.688-.42 2.16-2.808 1.968-4.5 2.112-151.2-.048-302.41-.048-453.66 0-4.883-.192-9.946.696-14.674-.66-3.756-8.34-7.127-16.871-9.755-25.642 7.74-4.728 16.834-6.324 25.738-7.548 10.21-.792 20.578-.792 30.705 1.032.324-4.824.372-9.695-.048-14.53-4.69-3.18-11.399-5.292-12.61-11.58-1.92-9.18 1.68-18.178 4.03-26.902 2.065-8.711 6.696-16.402 9.888-24.742 2.244-6 7.26-11.483 6.192-18.334-.192-3.324-3.612-5.052-6.24-6.468-4.823-2.292-9.79-4.68-15.095-5.243-3.467-.468-6.18 2.387-7.595 5.195-9 18.899-13.967 39.333-22.21 58.496-4.404 11.303-9.708 22.738-18.563 31.27-3.048-6.516-3.612-13.788-5.387-20.627-2.16-10.775-3.468-21.695-4.644-32.53-.61-14.902-.515-29.853-.096-44.756 1.224-17.11 4.836-33.933 8.111-50.72 5.016-16.92 10.775-33.693 17.435-50.012 1.692-.18 3.324-.372 5.064-.42 155.567.144 311.087-.096 466.606.096 3.048 4.595 4.68 9.935 6.516 15.094 3.983 12.047 8.387 23.95 11.807 36.225 2.112 11.723 5.015 23.35 6.095 35.254 2.904 16.402 2.016 33.093 2.064 49.592m16.45-54.896c-2.015-10.583-3.37-21.322-6.287-31.725-1.968-12.467-7.115-24.095-10.679-36.142-3.84-10.967-8.82-21.514-13.27-32.29-1.68-.095-3.325-.191-5.016-.24-157.668.049-315.3 0-473.027.049-6.37.048-12.79-.323-19.162.24-3.096 11.483-9.37 21.838-12.803 33.225-5.1 16.223-10.823 32.386-13.823 49.172-3.516 16.307-4.356 32.998-4.5 49.628-.192 16.835-.144 33.706 1.596 50.396 1.452 11.388 4.212 22.45 6.744 33.562 2.916 15.37 9.431 29.71 14.35 44.48 3.18 7.26 6.096 14.567 8.952 21.934 165.635.096 331.33.096 496.928 0 12.143-29.95 24.046-60.463 28.594-92.668 3.516-16.595 2.76-33.61 3.696-50.432-.84-13.08-.565-26.206-2.292-39.19"/></svg>