<svg xmlns="http://www.w3.org/2000/svg" width="600" height="609.415"><path d="M600 609.415V307.04c0-190.092-139.13-270.916-145.026-274.237 0 0-8.212-4.586-15.235-8.578C442.709 15.83 448.24 0 448.24 0H151.455s5.713 15.708 8.745 24.285c-6.962 3.93-15.113 8.517-15.113 8.517C139.19 36.123 0 116.947 0 307.039v302.316z" style="fill:#fff"/><path d="M367.817 437.895h-57.01V315.068h57.01zm-75.217 0h-57.011V315.068h57.01zm18.206-241.678h-18.328l.122 105.337h-57.011V196.399h-18.222v105.155h-48.143v13.514h48.143v122.827h-48.143v12.92h48.143v135.092h18.222V450.815h57.01v135.092h18.207V450.815h57.01v135.092h16.486V450.815h51.724v-12.92h-51.724V315.068h51.724v-13.514h-51.724V196.399h-16.485v105.155h-57.011zm147.113 389.751h120.695V345.066H457.919Zm-432.533-.06h120.695V345.065H25.386ZM457.98 307.084h120.634c0-178.712-133.188-253.929-133.188-253.929l-42.309 112.895s54.863 42.247 54.863 141.034M200.944 166.05 158.635 53.156S25.447 128.373 25.447 307.084h120.634c0-98.786 54.863-141.034 54.863-141.034M186.836 23.386H417.21L367.055 166.05H238.56Z"/></svg>