<svg xmlns="http://www.w3.org/2000/svg" xmlns:xlink="http://www.w3.org/1999/xlink" width="600" height="609.354"><radialGradient id="a" cx="0" cy="0" r="1" fx="0" fy="0" gradientTransform="matrix(10.9596 0 0 -10.9596 483.041 253.63)" gradientUnits="userSpaceOnUse" spreadMethod="pad"><stop offset="0" style="stop-color:#ebd491"/><stop offset=".7" style="stop-color:#d2bb7b"/><stop offset="1" style="stop-color:#8b723c"/></radialGradient><radialGradient id="b" cx="0" cy="0" r="1" fx="0" fy="0" gradientTransform="matrix(17.76189 0 0 -17.76189 483 259.303)" gradientUnits="userSpaceOnUse" spreadMethod="pad"><stop offset="0" style="stop-color:#ebd491"/><stop offset=".7" style="stop-color:#d2bb7b"/><stop offset="1" style="stop-color:#8b723c"/></radialGradient><radialGradient xlink:href="#a" id="d" cx="0" cy="0" r="1" fx="0" fy="0" gradientTransform="translate(300.594 391.055)scale(166.95671)" gradientUnits="userSpaceOnUse" spreadMethod="pad"/><radialGradient xlink:href="#b" id="c" cx="0" cy="0" r="1" fx="0" fy="0" gradientTransform="translate(299.97 304.65)scale(270.58174)" gradientUnits="userSpaceOnUse" spreadMethod="pad"/><path d="M600 609.354V307.008c0-190.073-139.176-270.889-145.072-274.21 0 0-8.21-4.585-15.234-8.576 2.97-8.394 8.5-24.222 8.5-24.222H151.44s5.712 15.706 8.805 24.283a3737 3737 0 0 0-15.112 8.515C139.176 36.12 0 116.935 0 307.008v302.285z" style="fill:#fff"/><path d="M455.873 585.909h120.682V345.03H455.873Zm-432.49-.061h120.683V345.03H23.384Zm432.55-278.795h120.622c0-178.693-133.174-253.902-133.174-253.902l-42.304 112.883s54.857 42.243 54.857 141.02m-257.01-141.02L156.618 53.15S23.445 128.36 23.445 307.053h120.621c0-98.776 54.857-141.02 54.857-141.02M184.817 23.385h230.35l-50.149 142.65H236.536Z" style="fill:#8b723c"/><path d="M196.73 31.778 242.43 157.64h116.692l44.27-125.862Zm214.218 131.757c13.512 12.736 50.76 55.04 53.197 135.079h103.97C564.719 158.478 475.57 85.4 447.602 65.87zM31.884 298.614h103.971c2.438-80.039 39.685-122.343 53.197-135.079l-36.607-97.664c-27.97 19.53-117.102 92.607-120.56 232.743m-.107 278.9h103.895V353.41H31.778Zm432.488 0h103.956V353.41H464.266Z" style="fill:url(#c)"/><path d="m290.448 196.197.122 105.326h-57.005V196.38h-18.159v105.144h-48.2v13.513h48.2V437.85h-48.2v12.918h48.2v135.079h18.16V450.769h57.004v135.079h18.205V450.769h57.005v135.079h16.483V450.769h51.719v-12.918h-51.72V315.036h51.72v-13.513h-51.72V196.38H365.78v105.144h-57.005V196.197Zm18.327 118.839h57.005V437.85h-57.005zm-75.21 0h57.005V437.85h-57.005z" style="fill:url(#d)"/></svg>