<svg xmlns="http://www.w3.org/2000/svg" xmlns:xlink="http://www.w3.org/1999/xlink" width="600" height="609.292"><radialGradient id="b" cx="0" cy="0" r="1" fx="0" fy="0" gradientTransform="matrix(10.9596 0 0 -10.9596 401.041 253.63)" gradientUnits="userSpaceOnUse" spreadMethod="pad"><stop offset="0" style="stop-color:#d9eaf3"/><stop offset=".663" style="stop-color:#99aebc"/><stop offset="1" style="stop-color:#536e78"/></radialGradient><radialGradient id="a" cx="0" cy="0" r="1" fx="0" fy="0" gradientTransform="matrix(17.76189 0 0 -17.76189 401 259.303)" gradientUnits="userSpaceOnUse" spreadMethod="pad"><stop offset="0" style="stop-color:#d9eaf3"/><stop offset=".663" style="stop-color:#99aebc"/><stop offset="1" style="stop-color:#536e78"/></radialGradient><radialGradient xlink:href="#a" id="c" cx="0" cy="0" r="1" fx="0" fy="0" gradientTransform="translate(300 304.62)scale(270.55426)" gradientUnits="userSpaceOnUse" spreadMethod="pad"/><radialGradient xlink:href="#b" id="d" cx="0" cy="0" r="1" fx="0" fy="0" gradientTransform="translate(300.625 391.015)scale(166.93976)" gradientUnits="userSpaceOnUse" spreadMethod="pad"/><path d="M600 609.292V306.976c0-190.053-139.162-270.86-145.057-274.18 0 0-8.21-4.586-15.232-8.577C442.68 15.826 448.21 0 448.21 0H151.484s5.712 15.705 8.804 24.28c-7.022 3.93-15.17 8.515-15.17 8.515C139.222 36.115.06 116.923.06 306.976L0 609.231z" style="fill:#fff"/><path d="M455.887 585.85h120.67V344.995h-120.67Zm-432.445-.062h120.67V344.996H23.443Zm432.506-278.766h120.61c0-178.675-133.161-253.877-133.161-253.877l-42.3 112.872s54.851 42.239 54.851 141.005M198.964 166.017l-42.3-112.872s-133.16 75.202-133.16 253.877h120.609c0-98.766 54.851-141.005 54.851-141.005M184.86 23.382h230.328l-50.145 142.635h-128.47Z" style="fill:#536e78"/><path d="m196.77 31.775 45.698 125.849h116.679l44.265-125.85zm214.197 131.744c13.511 12.734 50.754 55.034 53.191 135.064h103.96c-3.396-140.121-92.535-213.19-120.502-232.719zM31.942 298.583h103.96c2.438-80.03 39.68-122.33 53.192-135.064L152.49 65.864C124.524 85.392 35.4 158.462 31.942 298.584m-.167 278.872H135.72V353.374H31.775Zm432.505 0h103.945V353.374H464.28Z" style="fill:url(#c)"/><path d="m290.48 196.177.122 105.316h-57V196.359h-18.217v105.134H167.25v13.51h48.134v122.804H167.25v12.917h48.134v135.064h18.217V450.724h57v135.064h18.202V450.724h57v135.064h16.48V450.724h51.714v-12.917h-51.713V315.004h51.713v-13.511h-51.713V196.359h-16.482v105.134h-56.999V196.177Zm18.324 118.827h57v122.803h-57zm-75.202 0h57v122.803h-57z" style="fill:url(#d)"/></svg>