<svg xmlns="http://www.w3.org/2000/svg" width="600" height="793.993" viewBox="0 0 600 793.993"><path d="m541.996 153.08-13.5 46.483c-22.807-21.516-41-74.474-41-120.205 0-20.898 4.919-34.034 12.5-55.396 5.5-15.494-5.167-26.824-20.5-23.324-54.893 12.534-94.605 66.984-109.276 128.637-22.578 31.882-49.672 57.63-79.472 72.034-36.252 17.524-43.544 39.268-69.363 53.612v-.126c8.423-20.69 14.613-43.694 14.613-73.226C235.998 101.1 190.637 16.654 120.5.64c-15.332-3.5-25.998 7.83-20.498 23.324C107.583 45.326 112.5 58.462 112.5 79.36c0 45.731-18.192 98.687-41 120.205L58 153.08C20.835 217.72 0 269.284 0 371.162c0 46.991 4.022 74.825 16.27 99.271 12.364 24.676 31.028 42.52 56.86 67.21 11.343 10.842 24.201 23.13 39.105 38.381 42.574 43.564 68.552 72.68 70.346 109.568.724 14.898-.56 29.468-1.692 42.321-1.994 22.65-3.57 40.542 9.21 54.492 6.846 7.472 16.238 11.588 26.444 11.588a32 32 0 0 0 23.335-10.1l71.328-75.987 71.327 75.987a32 32 0 0 0 23.336 10.1c10.204 0 19.598-4.114 26.45-11.582 12.868-14.022 11.364-31.374 9.29-55.39-1.098-12.677-2.34-27.05-1.762-41.72 1.144-28.987 24.098-66.785 70.164-115.539 26.171-27.693 49.14-53.087 65.2-83.443C592.631 453.38 600 416.785 600 371.16c-.004-101.875-20.836-153.44-58.004-218.08" style="fill:gray"/><path d="M486.747 547.8c51.125-54.105 82-90.839 82-176.638 0-56.254-6.345-98.238-18.043-126.95-2.082 4.58-7.342 6.091-29.831-11.165-46.208-35.452-62.5-103.21-64.278-156.7-.672-20.205 10.048-37.185 20.11-48.053-37.832 15.576-83.5 68.972-83.5 154.273 0 28.65 8.434 57.984 24.168 78.636 47.332-6.164 67 23.823 67 39.651 0 16.492-15.5 25.488-36.75 16.908l41.25 51.73c0 58.477-32.684 106.31-67.974 106.31-20.648 0-35.872-4.495-41.4-23.007-3.72-12.458-4.781-25.734-5.875-39.07-2.344-28.575 16.835-51.56 56-69.473-20.843-3.9-38.967-11.09-51.75-24.74 10.125-18.742 25.375-38.362 41.875-54.853-11.126-1.25-36.25 6.495-51.5 14.87-10.967 6.021-18.75 8.745-31.207 11.827-5.168-5.996-5.564-19.602-1.002-30.82 9.752-23.977 22-46.15 20.5-70.805-13.7 13.822-25.656 23.858-33.832 27.822-36.954 17.914-54.166 34.486-67.65 52.351-32.525 20.286-55.291 57.24-83.621 104.73-8.562 14.352-8.062 34.512-1.994 47.933 9.222 20.392 23.598 47.222 59.805 52.51-10.175-7.102-17.913-19.724-17.375-33.778.43-11.198 7.094-18.592 25.665-17.824 15.622.646 26.666 10.84 26.666 29.322 0 23.82-21.708 36.52-50.333 36.984-47.554.776-103.5-48.066-103.5-120.29l41.25-51.729c-21.25 8.58-36.75-.416-36.75-16.908 0-15.828 19.666-45.815 67-39.65 15.734-20.653 24.166-49.987 24.166-78.637 0-85.3-45.666-138.697-83.5-154.273 10.062 10.87 20.782 27.848 20.11 48.054-1.778 53.49-18.068 121.247-64.278 156.7-22.491 17.255-27.75 15.743-29.833 11.163-11.7 28.711-17.292 70.697-17.292 126.95 0 101.294 22.812 99.56 103.875 182.512 41.838 42.813 76.97 80.03 79.416 130.37 2 41.15-9.166 77.964 2 77.964L311.2 661.16l94.665 100.847c11.168 0 .376-36.8 2-77.965 1.62-40.89 30.546-85.088 78.882-136.24"/></svg>