<svg xmlns="http://www.w3.org/2000/svg" xmlns:xlink="http://www.w3.org/1999/xlink" width="600" height="793.993" viewBox="0 0 600 793.993"><linearGradient id="a" x1="13.993" x2="280.677" y1="167.553" y2="219.391" gradientUnits="userSpaceOnUse"><stop offset="0" style="stop-color:#612c75"/><stop offset=".3" style="stop-color:#7b5190"/><stop offset=".5" style="stop-color:#bf99c3"/><stop offset=".7" style="stop-color:#7b5190"/><stop offset="1" style="stop-color:#612c75"/></linearGradient><linearGradient xlink:href="#a" id="b" x1="13.993" x2="280.677" y1="167.553" y2="219.391" gradientTransform="scale(1.99999)" gradientUnits="userSpaceOnUse"/><path fill="#fff" d="m541.996 153.08-13.5 46.483c-22.807-21.516-41-74.474-41-120.205 0-20.898 4.919-34.034 12.5-55.396 5.5-15.494-5.167-26.824-20.5-23.324-54.893 12.534-94.605 66.984-109.276 128.637-22.578 31.882-49.672 57.63-79.472 72.034-36.252 17.524-43.544 39.268-69.363 53.612v-.126c8.423-20.69 14.613-43.694 14.613-73.226C235.998 101.1 190.637 16.654 120.5.64c-15.332-3.5-25.998 7.83-20.498 23.324C107.583 45.326 112.5 58.462 112.5 79.36c0 45.731-18.192 98.687-41 120.205L58 153.08C20.835 217.72 0 269.284 0 371.162c0 46.991 4.022 74.825 16.27 99.271 12.364 24.676 31.028 42.52 56.86 67.21 11.343 10.842 24.201 23.13 39.105 38.381 42.574 43.564 68.552 72.68 70.346 109.568.724 14.898-.56 29.468-1.692 42.321-1.994 22.65-3.57 40.542 9.21 54.492 6.846 7.472 16.238 11.588 26.444 11.588a32 32 0 0 0 23.335-10.1l71.328-75.987 71.327 75.987a32 32 0 0 0 23.336 10.1c10.204 0 19.598-4.114 26.45-11.582 12.868-14.022 11.364-31.374 9.29-55.39-1.098-12.677-2.34-27.05-1.762-41.72 1.144-28.987 24.098-66.785 70.164-115.539 26.171-27.693 49.14-53.087 65.2-83.443C592.631 453.38 600 416.785 600 371.16c-.004-101.875-20.836-153.44-58.004-218.08"/><path d="M486.745 549.647c51.125-54.104 82-90.84 82-176.637 0-56.256-6.345-98.238-18.043-126.95-2.082 4.58-7.342 6.091-29.831-11.165-46.208-35.452-62.5-103.21-64.278-156.7-.672-20.205 10.048-37.185 20.11-48.053-37.832 15.578-83.5 68.972-83.5 154.273 0 28.65 8.434 57.984 24.168 78.638 47.332-6.164 67 23.823 67 39.651 0 16.49-15.5 25.488-36.75 16.908l41.25 51.73c0 58.477-32.684 106.31-67.974 106.31-20.648 0-35.872-4.495-41.4-23.007-3.72-12.458-4.781-25.734-5.875-39.07-2.344-28.575 16.835-51.56 56-69.473-20.843-3.9-38.967-11.09-51.75-24.74 10.125-18.742 25.375-38.362 41.875-54.855-11.126-1.248-36.25 6.497-51.5 14.871-10.967 6.02-18.75 8.746-31.207 11.828-5.168-5.996-5.564-19.602-1.002-30.82 9.752-23.98 22-46.15 20.5-70.805-13.7 13.822-25.656 23.858-33.832 27.822-36.956 17.914-54.166 34.486-67.65 52.35-32.523 20.285-55.291 57.241-83.621 104.73-8.562 14.353-8.062 34.513-1.994 47.934 9.22 20.39 23.6 47.222 59.805 52.51-10.175-7.102-17.913-19.726-17.375-33.778.43-11.198 7.094-18.594 25.667-17.826 15.622.648 26.666 10.842 26.666 29.324 0 23.82-21.708 36.52-50.333 36.986-47.554.774-103.5-48.068-103.5-120.29l41.25-51.73c-21.25 8.58-36.75-.419-36.75-16.909 0-15.828 19.668-45.815 67-39.65 15.734-20.655 24.168-49.989 24.168-78.639 0-85.3-45.668-138.695-83.5-154.273 10.06 10.87 20.782 27.848 20.11 48.054-1.778 53.49-18.068 121.25-64.278 156.7-22.491 17.255-27.75 15.743-29.831 11.163-11.7 28.711-17.292 70.695-17.292 126.95 0 101.292 22.812 99.56 103.875 182.512 41.838 42.811 76.97 80.027 79.418 130.37 2 41.146-9.168 77.964 2 77.964l94.663-100.847 94.665 100.847c11.168 0 .376-36.802 2-77.965 1.614-40.892 30.54-85.09 78.876-136.243" style="fill:url(#b)"/></svg>