<?xml version="1.0" encoding="UTF-8" standalone="no"?>
<svg
   version="1.1"
   width="503.31516"
   height="509.81793"
   id="svg1"
   xmlns="http://www.w3.org/2000/svg"
   xmlns:svg="http://www.w3.org/2000/svg">
  <defs
     id="defs1" />
  <path
     d="m 202.61131,313.54109 c -27.60239,0 -38.25165,-28.56633 -38.25165,-28.56633 l 66.28245,-51.76213 c 15.30066,36.99699 -0.4125,80.32846 -28.0308,80.32846 M 503.31514,392.55368 402.65211,272.78013 426.85775,226.87816 410.30244,198.84735 443.42836,163.16622 428.17361,131.24905 500.80583,12.73015 403.90676,75.18744 426.85775,0 242.11761,175.89637 253.5319,72.67813 212.83215,161.85036 200.0408,105.78875 174.5805,205.18183 154.20003,165.67553 145.29504,230.70332 90.488093,317.36625 0,418.01398 l 24.20564,53.5523 8.904983,-31.85597 26.776152,7.65033 v -14.046 l 19.125818,5.07981 5.07982,-20.38047 21.635127,11.47549 6.39568,-29.28546 34.42648,25.4603 -25.5215,1.31585 v 17.80997 l -28.030797,-2.57051 8.904977,17.87117 -26.714947,-11.4755 -2.570511,22.95099 -31.85597,-3.82516 -8.904983,25.46029 7.650329,16.61652 109.613912,-17.87117 81.5219,-61.20263 v 42.0768 l 19.06462,19.12583 14.10721,-15.30066 12.66895,-6.39568 -3.82517,-28.0308 45.90197,-11.47549 -17.87116,-25.4603 53.5523,-54.80696 z"
     id="path1" />
</svg>
