<svg xmlns="http://www.w3.org/2000/svg" width="300" height="274.798" viewBox="0 0 300 274.798"><defs><linearGradient id="a" x1="34.2" x2="263.386" y1="152.666" y2="152.666" gradientUnits="userSpaceOnUse"><stop offset=".068" stop-color="#b7281b"/><stop offset=".116" stop-color="#c13a16"/><stop offset=".233" stop-color="#d7620c"/><stop offset=".34" stop-color="#e67f05"/><stop offset=".432" stop-color="#f09001"/><stop offset=".5" stop-color="#f49700"/><stop offset=".651" stop-color="#f29400"/><stop offset=".733" stop-color="#ee8c02"/><stop offset=".798" stop-color="#e67f05"/><stop offset=".854" stop-color="#dc6b0a"/><stop offset=".905" stop-color="#ce5210"/><stop offset=".95" stop-color="#bd3417"/><stop offset=".966" stop-color="#b7281b"/></linearGradient></defs><path d="M300 274.798H0L145.507 0ZM150.194 47.934s-2.067 3.67-3.2 5.758L125.68 93.009l93.313 83.389zm-6.201 74.634-22.794-19.699-1.303-1.08-23.03 79.06 3.853-4.353c12.554-16.251 25.87-32.238 38.47-48.405 1.464-1.88 4.804-5.523 4.804-5.523m4.55 12.013-.884-1.519-47.458 61.33 80.996 2.403zm12.356 2.447 34.098 63.71 24.602-9.346c-13.173-13.051-27.58-25.033-41.407-37.485-4.302-3.874-16.735-16.312-17.293-16.88M34.2 257.398h29.1l30.894-107.4zm148.8-.6c15.993-14.866 31.09-30.984 47.98-44.321 1.192-.941 6.388-5.265 6.388-5.265s-4.727-7.395-6.379-9.814l-144.392 60 94.874-.587zm-1.803-50.397-90.821-1.727-12.97 45.524zm17.406 50.394 64.783-.293-21.954-39.25z" style="fill:#010101"/><path d="m86.597 257.398 144.392-60c1.844 2.784 6.379 9.814 6.379 9.814s-5.527 4.573-6.68 5.497c-16.801 13.45-31.695 29.223-47.688 44.09zm60.396-203.706-21.312 39.317 93.313 83.389-68.8-128.464s-2.087 3.733-3.2 5.758m.666 79.37-47.458 61.33 80.996 2.403-32.655-62.214zm-57.283 71.612-12.97 45.524 103.79-43.797zM63.3 257.398l30.894-107.4-59.994 107.4Zm200.086-.896-21.955-39.25-42.828 39.543zM121.199 102.869l-1.303-1.08-23.03 79.06 3.853-4.353c12.554-16.251 25.87-32.238 38.47-48.405 1.464-1.88 4.804-5.523 4.804-5.523zm39.7 34.159 34.098 63.71 24.602-9.346c-13.173-13.051-27.58-25.033-41.407-37.485-4.302-3.874-16.735-16.312-17.293-16.88" style="fill:url(#a)"/></svg>