<svg xmlns="http://www.w3.org/2000/svg" width="300" height="274.798" viewBox="0 0 300 274.798"><path d="M300 274.798H0L145.507 0ZM150.194 47.934s-2.067 3.67-3.2 5.758L125.68 93.009l93.313 83.389zm-6.201 74.634-22.794-19.699-1.303-1.08-23.03 79.06 3.853-4.353c12.554-16.251 25.87-32.238 38.47-48.405 1.464-1.879 4.804-5.523 4.804-5.523m4.55 12.013-.884-1.519-47.458 61.33 80.996 2.403zm12.356 2.447 34.098 63.71 24.602-9.346c-13.173-13.051-27.58-25.033-41.407-37.485-4.302-3.874-16.735-16.312-17.293-16.88M34.2 257.398h29.1l30.894-107.4zm148.8-.6c15.993-14.866 31.09-30.984 47.98-44.321 1.192-.941 6.388-5.265 6.388-5.265s-4.727-7.395-6.379-9.814l-144.392 60 94.874-.587zm-1.803-50.397-90.821-1.727-12.97 45.524zm17.406 50.394 64.783-.293-21.955-39.25z" style="fill:#010101"/></svg>