<svg xmlns="http://www.w3.org/2000/svg" width="600" height="416.788"><path d="M297.862 155.587c-73.536 0-146.978 14.645-201.488 40.185C34.184 224.932 0 266.56 0 313.02c0 78.288 139.215 92.838 181.913 95.446h.739c5.727 0 10.704-3.858 12.05-9.49 1.392-5.81-1.537-11.859-7.073-14.276-33.911-15.027-80.646-46.187-80.646-65.488 0-5.727 11.907-14.05 53.248-26.326 39.495-11.716 89.635-15.027 137.631-15.634 47.533.607 99.816 4.096 139.811 15.682 48.044 13.86 55.307 22.515 55.307 26.278 0 19.253-46.698 50.461-80.704 65.488-5.49 2.465-8.466 8.466-7.025 14.276 1.405 5.632 6.382 9.49 12.05 9.49h.798C460.749 405.857 600 391.307 600 313.019c0-98.553-153.623-157.432-302.137-157.432m159.35 177.067c2.322-2.512 2.929-6.24 2.322-9.633-.607-3.44-2.56-6.418-5.49-8.323-.976-.606-24.6-15.717-70.512-22.563-.607-.038-1.155-.086-1.762-.086-4.656 0-8.978 2.643-11.169 6.835-.643 1.297-16.503 30.838-70.596 30.97-54.093-.132-69.953-29.673-70.655-30.97-2.143-4.192-6.513-6.835-11.157-6.835-.56 0-1.167.048-1.774.086-45.853 6.846-69.536 21.956-70.56 22.563-2.882 1.905-4.882 4.882-5.442 8.323-.595 3.394 0 7.073 2.382 9.633 44.365 48.651 99.946 84.134 157.206 84.134 57.2 0 111.199-34.875 157.207-84.134M403.632 19.813c.322.428 33.53 46.603 41.067 129.404l.702 7.346 6.787 2.93c.225.142 24.647 10.596 46.186 21.765l16.884 8.787 1.203-18.967c.286-4.286 5.489-104.792-96.232-169.125C418.181.655 415.955 0 413.681 0c-3.406 0-6.704 1.357-9.121 3.953-4.096 4.382-4.465 11.026-.929 15.86M83.54 171.078C83.265 166.792 78.002 66.381 179.579 2c.048 0 .096-.047.096-.047C181.77.655 184.045 0 186.33 0c3.346 0 6.644 1.357 9.06 3.953 4.05 4.382 4.466 11.026.941 15.824l.048.038c-.381.43-33.59 46.604-41.127 129.404l-.643 7.347-6.846 2.93c-.227.142-24.647 10.596-46.14 21.765l-16.883 8.787-1.203-18.968Z" style="fill:#fff"/><path d="M447.353 325.164s-21.908-14.18-65.678-20.694c0 0-18.23 37.674-81.67 37.805-63.487-.132-81.728-37.805-81.728-37.805-43.758 6.513-65.619 20.694-65.619 20.694s55.76 73.252 147.348 73.252c91.528 0 147.347-73.252 147.347-73.252m140.18-12.145c0 62.94-116.7 79.824-170.233 83.027 0 0 91.671-40.46 91.671-76.787 0-32.792-110.507-62.238-211.156-63.488-100.601 1.25-206.787 30.696-206.787 63.488 0 36.328 91.624 76.787 91.624 76.787-53.534-3.203-170.233-20.087-170.233-83.027 0-89.301 142.882-145.013 285.396-145.013 142.609 0 289.718 55.712 289.718 145.013M504.09 170.232s6.191-96.6-90.457-157.814c0 0 35.435 47.914 43.436 135.68 0 0 24.838 10.596 47.02 22.134m-361.206-22.135c8.001-87.765 43.448-135.679 43.448-135.679C89.718 73.632 95.91 170.232 95.91 170.232c22.182-11.538 46.973-22.135 46.973-22.135"/></svg>