<?xml version="1.0" encoding="UTF-8"?><svg id="Layer_2" xmlns="http://www.w3.org/2000/svg" width="230" height="230.17548" viewBox="0 0 230 230.17548"><defs><style>.cls-1{fill:#fff;}</style></defs><g id="Layer_2-2"><path d="M222.01007,100.03528c-6.5-47.48004-44.54999-85.54004-92.04004-92.04004l-9.67999-.98999h-10.56C55.17005,9.53528,10.46009,53.85522,7.01007,108.28528c-.01001.16998-.01001,1.52997-.01001,3.31995-.01001,6.48004.40997,12.96002,1.22998,19.39001l.30005,2.29004c7.62994,45.57996,44.43994,81.56995,90.07996,88.47998l6.64001.87c.71997.08997,1.45001.15997,2.17999.19l6.65002.33002c.54999.01996,1.10999.01996,1.65997,0l3.71002-.12c.56-.02002,1.10999-.06006,1.65997-.12006l10.29005-1.14996c46.88995-7.06,84.16998-44.79004,90.60999-91.79004l.98999-9.44995v-10.80005l-.98999-9.68994ZM165.06006,33.18524c14.89001,8.60999,26.94,21.77002,35.12,36.85999.04999.34003-.46997.62-.70001.80005-1.26001.97998-2.87,1.70996-4.17999,2.63995-.91998-1.29999-3.54999-7.44-4.82001-7.91998-.37-.14001-.63.84998-.76996,1.15002-.51001,1.13995-.94,2.53998-1.51001,3.64996-.13.26001-.5.51001-.5.94-11.79004-3.72998-22.79999-14.23999-26.85999-26.01996-.37006-1.05005-.96002-2.15002-.48004-3.24005,1.76001-2.44,2.67999-5.98999,4.32001-8.39996.10999-.16003.14001-.39001.38-.46002ZM187.96008,159.88525l-9.84003-5.28003-13.20001-7.19995.35004-.25c.73999.23999,1.54999-.18005,2.04999-.23004,6.20001-.63,12.14001-1.08997,17.27997-5.03998l4.08002-2.64001c-1.89996,6.70001-1.75,13.79999-.71997,20.64001ZM131.77008,188.53528c-.39001-.06006-.79004-.12006-1.17004-.17004-.44-.06-.88-.10999-1.31-.14996l-8.87-.72003c-.10999-.01001-.21997-.01001-.33997-.02002h-.02002c-.03998,0-.09003-.00995-.13-.00995-2.02002-.04004-4.02997-.04004-6.03998.01996-1.48004.03003-2.95001.09003-4.42004.17999-.91998.04004-1.82996.11005-2.75.19-.10999,0-.21997.01001-.33997.02002-1.12.09003-2.25.20001-3.37.33002-6.91998.76996-13.72003,2.15997-20.35004,4.26001-.79999.25-1.53998.63-2.44995,1.01996-.14001.06-.42999-.12-.72003-.23999,2.02002-3.21997,3.52002-6.71997,5.28003-10.08002,2.60999-4.98999,5.40997-9.89996,7.89996-14.94995.67999-.42999,1.45001-.79004,2.17999-1.13,2.88-1.34003,6.01001-2.23004,9.12-2.88,7.36005-1.54999,15.39001-1.69,22.80005-.23999,2.57001.5,6.49,1.59998,8.87,2.63995,1.97998.86005,2.73999,1.28003,3.83997,3.12,2.29004,3.81006,4.63,8.70001,6.72003,12.72003,1.64996,3.15997,3.85999,6.96002,5.27997,10.08002.09003.17999.32001.88.23999.95996-.37-.09998-.83997-.13995-1.19995-.23999-.40002-.10999-.81-.22998-1.23004-.34998-.69995-.20001-1.41998-.41003-2.14996-.62-4.85999-1.42004-10.32001-2.98999-15.37-3.73999ZM77.21009,192.39526c0,.01001-.01001.01001-.02002.01996-.06.11005-.09998.19-.12.21002-.01001-.02997-.01001-.07001-.02002-.10999-.06-.22003-.15997-.54004-.20001-.71002-.33997-1.32001-1.06995-2.97998-1.63995-4.23999-5.49005-12.21002-16.82001-22.01001-29.56-26,2.45996-1.71002,5.25995-3.10999,7.91998-4.56,4.19-2.28998,8.66998-4.94,12.96002-6.96002.41998-.19995.73999-.69,1.27997-.65997,1.63.64001,3.64001,1.12,5.20001,1.85999.64001.29999,1.71997,1.03003,2.39996,1.44,3.44,2.07001,6.72003,4.90002,9.36005,7.91998.72998.84003,1.5,1.74005,2.15997,2.64001.52002.71002,3.10999,4.5,3,5.06-2.44,4.51001-4.70001,9.12-7.08002,13.66003-.25.47998-.5.95996-.75995,1.42999-.20001.37-.40002.76001-.62006,1.14996-.12994.25-.26996.5-.39996.75-.94,1.78003-1.96002,3.67004-2.73999,5.09003-.11005.20001-.22003.40997-.33002.60999-.34998.64001-.63,1.13-.78998,1.40002h.00002ZM42.77008,139.24524l2.15997,1.44c5.51001,4.56,12.03998,5.71002,18.96002,6.23999.03998,0,.26996.22003.57996.25.67004.06,1.38-.06,2.06006-.01001l-1.20001.96002c-4.48004,1.98999-8.66003,4.63-12.96002,6.96002-3.02002,1.63-6.13,3.12-9.12,4.79999,1.16998-6.83002,1.01001-13.88-.47998-20.64001ZM116.93006,40.84528c0-3.43005-.10999-6.89001.10999-10.32001,10.33002,10.37,24.85004,15.46997,39.48004,13.67999l-3.36005,6.95996c-3.19995,5.5-5.67999,11.42004-8.63995,17.04004-.40002.76996-.98004,1.47998-1.26001,2.33997-1,.35004-2.01001.58002-3.06.78003-2.16003.42999-4,.60999-6.23999.47998-3.78003-.20996-7.86005-1.53998-11.03003-3.59998-1.37-.88-3.21997-2.41003-4.32001-3.60004-.54999-.58997-1.14001-1.21997-1.57996-1.90997-.21002-1.03003-.08002-2.09003-.10004-3.13-.15997-6.21997-.02002-12.5,0-18.71997ZM96.05005,161.56525c.81-1.52002,1.60004-3.03998,2.40002-4.56,2.23999-4.26001,4.70001-8.41998,6.69-12.81.33997-.37,1.67999-.28998,2.19-.39001,5.04999-.95001,10.26996-1.03998,15.35999-.23999.77997.12,2.97998.26001,3.46997.72003,1.98004,4.27997,4.43005,8.31995,6.60004,12.47998.78998,1.51001,1.64001,3.04999,2.39996,4.56.5.96002.83002,2.16998,1.44,3.12-1.81995-.65997-3.64996-1.15997-5.51996-1.67999-10.70001-2.98999-21-2.83002-31.67004.23999-1.60999.46002-3.19,1-4.79999,1.44.5-.95001.92999-1.94,1.44-2.88ZM94.13007,160.60522c-.79999,1.53003-2.02002,3.10004-2.64001,4.80005-.64001-.30005-.58997-.53003-.95996-.72003-.31006-.54999-.62006-1.14996-.96002-1.67999-.51001-.79999-1.10999-1.42999-1.67999-2.15997-3.89001-5.03003-7.83002-8.31-13.44-11.28003-.79999-.42999-1.41003-.60999-2.16003-.96002-.22998-.09998-1.44-.75995-1.44-.83997.31-.44.76001-.59003,1.20001-.84003.98004-.56,2.06-.83997,3.12-1.20001,1.71002-.57996,3.29999-.97998,5.04004-1.67999,2.53998-1.02997,3.70996-1.75,6-3.12,2.95996-1.77997,4.72998-3.13,7.44-5.27997,1.75995-1.40002,1.56995-2.03003,3.67999-.44,1.76996,1.34998,4.64996,4.60999,5.44,6.67999.13.33997.19995.71997.23999,1.08002l-6.47998,13.07996c-1.18005,1.17004-1.65002,3.12-2.40002,4.56h-.00003ZM134.68005,155.56525l-6.37-12.23999c-.14001-.53998.33002-1.88.60999-2.40002.97003-1.77997,4.25-5.35999,6.02002-6.33997,1.14001-.63.98999-.32001,1.90002.33997,2.62994,1.91003,4.56,3.71002,7.44,5.52002,2.07996,1.29999,3.50995,2.10999,5.75995,3.12,1.83002.82001,3.17004,1.28003,5.04004,1.91998,1.21997.42004,2.40997.69,3.59998,1.20001.48999.21002.95001.5,1.44.72003l.47998.35999c-.00995.08002-1.21997.75-1.44.83997-2.09998.93005-3.07996,1.41003-5.03998,2.64001-3.72998,2.35004-6.42999,4.58002-9.35999,7.91998-1.20001,1.37006-2.27002,2.85004-3.35999,4.32001-.45001.62-.80005,1.33002-1.32001,1.92004l-.60004-.48004c-.69995-1.63995-1.57001-3.21997-2.39996-4.79999-.79004-1.52002-1.60004-3.03998-2.40002-4.56ZM130.36004,128.68524l-9.32001-5.08002c.28003-1.03998-.47998-2.19995-.50995-2.97998-.03003-.67999,3.77997-8,4.42999-9.22998.41998-.79999,1.77997-3.63,2.16998-4.06.20001-.22003.25-.33002.58997-.25.27002.67999.93999,1.51996,1.43999,2.04999,1.28003,1.33002,2.94,2.27997,4.10004,3.58997l-7.39001,9.84003,4.48998,6.12v-.00002ZM128.78009,103.96527c2.34998-4.13,4.23999-8.49005,6.37994-12.72003,2.14001-4.21997,4.29004-8.52997,6.48004-12.71997.57996-1.10004,1.33997-2.42004,2.15997-3.36005,2.15002,6.21002,7.26001,11.85004,13.38,14.35004.45001.17999.92999.16998,1.26001.28998.41998.15002,2.58002.95001,2.64001,1.08002-.52002.22998-.96002.53998-1.44.83997-1.52002.96002-3.04999,1.90002-4.56,2.88-1.72003,1.12-3.36005,2.17004-5.04004,3.36005-2.73999,1.94995-5.13,3.78998-7.67999,6-2.51001,2.17999-4.83997,4.56-7.31,6.71997-.77997.02002-4.17999-3.08002-4.81-3.83997-.59998-.72003-1.67999-1.96002-1.45996-2.88ZM146.56006,127.25525c-.94-.60999-4.83002-3.56-4.91998-4.46002-.09003-.79999,2.76996-3.91998,3.47998-4.66998,10.63-11.23999,27.07001-18.70001,42.12-21.59998.01001.88.06,9.98999,0,11.27997-.89001,21.60999-23.19,30.83002-40.67999,19.45001ZM184.85003,75.29523c-1.17999,1.33002-3.14996,3.13-4.56995,4.19-3.57001,2.67999-8.51001,5.28003-12.48004,7.44-1,.54999-2.77997,1.92999-3.83997,1.92004-.29004,0-1.58002-.18005-1.92004-.24005-1.20996-.22998-3.89996-1.13995-5.03998-1.67999-4.40002-2.08997-8.62-6.83997-10.56-11.27997-.28003-.66003-1.22003-3.15002-1.19-3.70001.02002-.31.96997-2.28998,1.19-2.78003,2.56-5.47998,5.83002-11.37,8.64001-16.79999.91998-1.76996,2.06-4.37,3.07001-5.92999.14996-.22998-.03003-.42999.52997-.31,4.53998,12.62,15.02002,22.60999,27.48999,27.35999.10004.13-1.12,1.58002-1.32001,1.81ZM116.93006,83.56525c-.02002-4.47998-.02002-8.96002,0-13.44,0-1.27997-.01001-2.56,0-3.83997.76001.58997,1.41998,1.29999,2.16003,1.91998,5.44,4.59998,11.67999,6.38,18.70996,5.76001,1.29999-.12,2.56-.12,3.84003-.48004-.77002,1.29004-1.26001,2.73999-1.92004,4.08002-2.00995,4.08002-4.15997,8.19-6.23999,12.23999-2.33997,4.56-4.91998,9.01001-7.07001,13.67999-3.42999.97003-7.25995-.79999-9.44-3.52997-.09998-5.46002-.02997-10.92999-.03997-16.39001ZM116.93006,103.24524c2.20001,1.90002,5.04999,2.72998,7.91998,3l-6.35999,12.35999-1.56-.71997v-14.64002ZM120.28009,125.91522l12.95996,6.97003c-2.84998,1.89001-4.63,4.70001-6.70996,7.32001l-6.62006-12.96002c-.23999-.53998-.08997-.98999.37006-1.33002ZM124.61004,141.40527c-3.92999-.52002-7.91998-.95001-11.89001-.73004-1.94995.11005-3.92999.65002-5.87994.61005l6.76996-13.04004c.67999-.08997,1.28003.22003,2,.22003.96002.00995,1.92999-.73004,2.48004.38l6.51996,12.56h-.00002ZM104.45008,140.20526c-1.28003-3.02002-3.81-5.22003-6.23999-7.32001l12.83997-7.04999.48999,1.16998-7.08997,13.20001ZM106.36004,106.24524c2.88-.15997,5.59003-1.08997,7.92999-2.76001v14.28003l-1.57001.81s-6.35999-12.33002-6.35999-12.33002ZM110.87006,120.60522l-.90002,3.16003-8.87994,4.67999,4.26996-6.08002-7.39001-10c1.35004-.60999,2.91003-1.82001,3.97003-2.87.34003-.33997,1.85999-2.70001,2.26001-2.40997l6.66998,13.51996-.00002.00002ZM96.22004,110.65527c-2.66998-2.69-5.42999-5.22003-8.32996-7.65002-2.41003-2.01001-4.85999-3.96997-7.44-5.76001-1.73004-1.19-3.51001-2.25-5.28003-3.35999-1.52997-.96002-3.02997-1.92999-4.56-2.88.08002-.71997.21002-.20001.48004-.47998,6.13995-1.56,11.56-5.89001,14.67999-11.36005.35999-.63995,1.72998-3.87,2-4,.46997.98004,1.04999,1.92004,1.56,2.88,2.46997,4.66003,4.81,9.45001,7.20001,14.16003,2.04999,4.06,4.04999,8.14996,6.18994,12.15997-.31,1.51001-5.38995,6.58002-6.5,6.29004v.00002ZM88.13007,70.47522c-.21002-.17999-1.41998-2.48999-1.67999-2.98999-2.94-5.60999-5.83002-11.37-8.64001-17.03998-.81-1.63-2.12-3.96002-2.75-5.53003-.09998-.25-.19-.42999-.13-.70996,14.54999,1.79999,29.10999-3.35004,39.35999-13.67999l-.22998,32.53998c-.38.52002-.77997,1.06-1.21002,1.53998-.98999,1.09003-2.83997,2.54004-4.07996,3.36005-3.88,2.54999-8.06,3.82001-12.72003,3.83997-2.15997.01001-3.90997-.14996-6-.71997-.57001-.16003-1.47998-.23999-1.91998-.61005l-.00002-.00002ZM75.89008,51.64526c2.89996,5.64996,5.82001,11.34998,8.64001,17.03998.50995,1.03003,1.02997,2.07001,1.56,3.10004.02997.16998-.49005,2.10999-.60004,2.41998-1.97998,5.47998-7.17999,11.39001-12.71997,13.44-.98004.35999-4.07001,1.14001-5.04004,1.20001-1.01001.06-.96997-.15002-1.67999-.48004-1.20001-.54999-2.45001-1.27997-3.59998-1.91998-3.91003-2.19-9.07001-5.10999-12.48004-7.91998-1.18994-.98004-3-2.66003-3.95996-3.84003-.17999-.21002-.85999-1.01001-.72998-1.20001,12.64996-4.85999,22.53998-14.81,27.60999-27.35999,1.01996,1.82001,2.04999,3.66998,3.00001,5.52002ZM87.89008,119.91522c2.26001,2.57001,2.70001,2.64001,0,5.05005-8.14001,7.28998-20.96002,9.44-30.73004,4.32001-9.08997-4.76001-12.23999-11.81006-13.19-21.72003-.27997-2.85999-.29999-5.07001,0-7.91998.11005-1.02002.15002-1.96002.24005-3.12,16.02997,3.13,32.77997,11,43.67999,23.38995v.00002ZM148.12005,181.48523c-2.26001-4.28998-4.17999-8.81-6.71997-12.95996.70996-2.67999,3.07996-4.75,4.31995-7.20001,1.75-1.25,3.67004-3.96002,5.64001-5.52002,1.31-1.02997,3.48999-2.52997,4.92004-3.35999,2.21997-1.28003,4.71997-2.21002,7.12994-3.06l.55005.17999c4.32996,2.31,8.65997,4.60999,12.95996,6.96002,2.60004,1.41998,5.92999,2.94995,8.33002,4.5.23999.14996.42999-.02002.31.53998-12.54999,4.09003-23.62,13.60999-29.23999,25.59003-.60004,1.27997-.96002,2.63-1.47998,3.92999-.13.34998-.29004.73999-.48004,1.20001-.45001.09998-.51001-.17004-.71997-.48004-1.73004-2.57001-3.98999-7.41998-5.52002-10.32001ZM116.92005,19.61523v-.01996c.02002-.13.03003-.23004.04004-.27002,0-.01001,0-.02002.00995-.02002.05005-.03998.53003-.01996,1.37006.06h.00995c.45001.04004,1,.10004,1.63.17004.02002,0,.04004,0,.06.00995,6.74005.81,22.95,3.38,32.02001,6.92004.34003.13.69.26996,1.03003.41998,2.06995.88,8.71997,3.79999,9.66998,5.32001l-4.32001,8.64001-.48999.56995c-.35004.19-.75.25-1.13.33002-13.47003,2.69-28.17999-3.40997-37.72998-12.65997-.07001-.07001-.15002-.14001-.23004-.22003-.54999-.51001-1.45001-1.33997-1.73999-1.94v-.01001c-.02002-.04999-.03998-.09998-.04999-.13995-.01001-.04004-.02002-.08002-.03003-.12-.02997-.12-.04999-.23004-.07996-.36005-.32001-1.78998-.16003-5.57996-.04004-6.67999h.00002ZM114.94007,125.98523c-3.03003-.62-3.01001-5.27997,0-5.88995,4.70001-.95001,5,6.91998,0,5.88995ZM114.16004,100.12524c-2.19995,2.77002-5.69,4.03998-9.19995,3.56-1.87-4.37-4.35004-8.46002-6.51001-12.67999-2.40002-4.67999-4.91003-9.44-7.20001-14.15997-.52002-1.06-1-2.26001-1.44-3.36005.63.15002,1.28998.15002,1.91998.23999,8.02002,1.12006,14.67004-.45996,20.88-5.75995.60999-.52002.91003-.89001,1.44-1.44.39001.25.23004.90997.23999,1.32001.13,10.75,0,21.52997-.13,32.27997ZM69.09008,31.61523c11.94995-6.45001,36.34998-11.04999,43.31-12.13h.01996c.08002-.01001.16003-.01996.23999-.03998.08002-.01001.16003-.03003.24005-.03998.73999-.10004,1.20996-.16003,1.34998-.16003.01001-.01001.03003,0,.03998,0l-.00995,7.54999c-.08002.44-1.5,1.86005-1.91003,2.29004-6.73999,7.04999-17.34998,11.94-27.02997,12.92999-3.99005.28998-7.96002.19-11.92004-.45001-.07001-.02997-.76001-1.20001-.88995-1.44-1.44-2.65997-2.39001-5.63-4.08002-8.15997.20996-.12.41998-.24005.64001-.35004h0ZM66.05005,33.16522c.39001.15002.56.45001.77002.79004,1.25,2.10999,2.81,5.33997,3.78998,7.60999.17004.40002.42004.77002.60004,1.17999-3.79004,13.15002-14.35004,24.16998-27.33002,28.54004l-1.59003-2.36005c.01001-.88995-.88-2.52997-1.32001-3.35999-.63995.01001-4.68994,6.67999-4.67999,7.91998-.20996.15002-3.94995-2.32001-4.39996-2.67999-.34003-.26996-.65002-.40997-.64001-.91998,8.04999-14.91998,20.28998-27.92999,34.79999-36.72003ZM29.81006,72.52527l5.03998,3,.24005.45996c-3.30005,8.79004-5.08002,18.11005-5.28003,27.5-.03998,2-.14001,4.09003,0,6.12.22998,3.10004,1,6.17004,1.44,9.24005-1.35999.00995-2.71997-.01001-4.08002,0-1.01001.00995-6.82001.16998-7.08997-.22003-.63-15.84998,2.77997-31.90002,9.72999-46.09998ZM30.89008,159.41522c-6.10004-11.87-9.82001-24.79999-10.67999-38.16998h11.75995c1.01001,2.92999,2.07001,5.84003,3.56006,8.56,2.16998,3.96002,3.62,5.35999,4.76996,10.10999,1.51001,6.21002,1.67999,12.49005.54999,18.77002-.16998.94-.32996,1.89001-.54999,2.81l-6.40997,3.42999c-1.04004-1.72998-2.08002-3.70996-3.00001-5.51001ZM73.01007,200.68524c-15.09003-7.51001-28.44-19.52002-37.67999-33.59998l6.88995-4.04004c.23004-.06,1.47003.12,1.75.20001,12.62006,3.57001,24.96002,14.98999,29.76001,27.12.67999,1.73999,1.29004,3.54999,1.67004,5.39001l-2.39001,4.92999ZM156.04004,201.87524c-25.41998,11.72998-55.20996,11.73999-80.63.01001.34003-1,1.61005-4.35999,2.22003-4.97998.57001-.56,4.42999-1.64001,5.46002-1.98004,20.25995-6.70996,44.22998-6.83997,64.54998-.23999,1.23999.40002,5.07996,1.48999,5.89001,2.15002.22998.19,2.03998,3.57001,2.26996,4.08997.07001.15002.29004.87.23999.95001ZM167.06006,195.74524c-1.15997.72998-7.91998,4.85999-8.70001,4.66998-.23999-.06995-.27997-.28998-.39996-.44995-.25-.37-2.12-3.95001-2.13-4.19-.06-1.09003,1.62-5.15002,2.13-6.37,4.75-11.35004,16.07001-21.88,27.83997-25.68005.48004-.15997,2.78003-.68994,3.13-.60999.72003.15002,5.62,2.92004,6.47003,3.48999.16998.11005.38.16003.44995.39001-7.14996,11.45001-17.35999,21.5-28.78998,28.75ZM200.81006,158.69525c-.40002.77997-3.25,6.08002-3.59998,6.15997-.15002.03003-.44-.16998-.61005-.16998l-5.52997-3.22998c-.64001-1.5-.73999-3.12-.95001-4.69-.81-6-.53998-11.51001.97998-17.38,1.32001-5.09003,3.91003-7.54999,5.95001-12.04999.88-1.96002,1.58002-4.03003,2.19-6.09003h11.76001c-.79999,12.95001-4.32001,25.91003-10.19,37.45001ZM211.25006,118.01526c-.03003.27002.01001.53998-.22998.72998-.35004.22998-7.10004.10999-8.17999.10004-.96002-.01001-1.92004.00995-2.88,0,.35999-2.24005.95996-4.46002,1.19995-6.72003.78003-7.39001.11005-16-1.31-23.28998-.84998-4.37-2.19995-8.64001-3.64996-12.84003l4.47998-3.22998c.28998-.19.47998-.28003.65002-.42999l.19.42999c4.21997,8.91998,7.31,18.42999,8.71997,28.23999.66998,4.66998,1.56,12.45001,1.01001,17.01001Z"/><path class="cls-1" d="M228.9458,99.05969C222.02453,48.50226,181.50837,7.97546,130.9403,1.05414l-10.30737-1.05414h-11.24445C51.29224,2.69403,3.68445,49.88647.01081,107.84436c-.01062.18103-.01062,1.62915-.01062,3.53516-.01068,6.90002.43652,13.79999,1.30969,20.64673l.31946,2.43848c8.12451,48.53418,47.32031,86.85681,95.9184,94.21472l7.07037.92639c.76666.09583,1.54401.17035,2.32129.20233l7.08105.35138c.58563.02124,1.18195.02124,1.76758,0l3.9505-.12775c.59625-.0213,1.18188-.06396,1.76752-.12787l10.95696-1.22449c49.92908-7.51758,89.62543-47.69305,96.48279-97.73932l1.0542-10.06244v-11.50006l-1.0542-10.31793ZM223.00006,120.52527l-.98999,9.44995c-6.44,47-43.72003,84.73004-90.60999,91.79004l-10.29004,1.14996c-.54999.06-1.09998.10004-1.65997.12006l-3.71002.12c-.54999.01996-1.10999.01996-1.65997,0l-6.65002-.33002c-.72998-.03003-1.46002-.10004-2.17999-.19l-6.64001-.87c-45.64001-6.91003-82.45001-42.90002-90.07996-88.47998l-.30005-2.29004c-.82001-6.42999-1.23999-12.90997-1.22998-19.39001,0-1.78998,0-3.14996.01001-3.31995C10.46009,53.85522,55.17005,9.53528,109.73005,7.00525h10.56l9.67999.98999c47.49005,6.5,85.54004,44.56,92.04004,92.04004l.98999,9.68994v10.80005ZM114.94007,125.98523c-3.03003-.62-3.01001-5.27997,0-5.88995,4.70001-.95001,5,6.91998,0,5.88995ZM106.36004,106.24524l6.35999,12.33002,1.57001-.81v-14.28003c-2.33997,1.67004-5.04999,2.60004-7.93,2.76001ZM116.93006,103.24524v14.64001l1.56.71997,6.35999-12.35999c-2.87-.27002-5.71997-1.09998-7.91998-3v.00002ZM133.26007,112.72522c-1.16003-1.31-2.82001-2.25995-4.10004-3.58997-.5-.53003-1.16998-1.37-1.44-2.04999-.33997-.08002-.38995.02997-.58997.25-.39001.42999-1.75,3.26001-2.16998,4.06-.65002,1.22998-4.46002,8.54999-4.42999,9.22998.02997.78003.78998,1.94.50995,2.97998l9.32001,5.08002-4.48999-6.12s7.39001-9.84003,7.39001-9.84002ZM120.28009,125.91522c-.46002.34003-.61005.79004-.37006,1.33002l6.62006,12.96002c2.07996-2.62,3.85999-5.42999,6.70996-7.32001l-12.95996-6.97003ZM185.25006,161.02527c-2.40002-1.55005-5.72998-3.08002-8.33002-4.5-4.29999-2.35004-8.63-4.65002-12.95996-6.96002l-.55005-.17999c-2.40997.84998-4.90997,1.77997-7.12994,3.06-1.43005.83002-3.61005,2.33002-4.92004,3.35999-1.96997,1.56-3.89001,4.27002-5.64001,5.52002-1.23999,2.45001-3.60999,4.52002-4.31995,7.20001,2.53998,4.14996,4.45996,8.66998,6.71997,12.95996,1.53003,2.90002,3.78998,7.75,5.52002,10.32001.20996.31.26996.58002.71997.48004-.03998-.49005.35004-.85004.48004-1.20001.51996-1.29999.87994-2.65002,1.47998-3.92999,5.62-11.98004,16.69-21.5,29.23999-25.59003.12-.56-.07001-.39001-.31-.53998ZM158.44006,89.80524c-.33002-.12-.81-.10999-1.26001-.28998-6.12-2.5-11.22998-8.14001-13.38-14.35004-.82001.94-1.58002,2.26001-2.15997,3.36005-2.19,4.19-4.34003,8.5-6.48004,12.71997-2.13995,4.22998-4.02997,8.59003-6.37994,12.72003-.22003.91998.85999,2.15997,1.45996,2.88.63.75995,4.03003,3.85999,4.81,3.83997,2.47003-2.15997,4.79999-4.53998,7.31-6.71997,2.54999-2.21002,4.94-4.05005,7.67999-6,1.67999-1.19,3.32001-2.24005,5.04004-3.36005,1.51001-.97998,3.03998-1.91998,4.56-2.88.47998-.29999.91998-.60999,1.44-.83997-.06-.13-2.22003-.92999-2.64001-1.08002ZM137.80005,73.96527c-7.02997.62-13.26996-1.16003-18.70996-5.76001-.74005-.62-1.40002-1.33002-2.16003-1.91998-.01001,1.27997,0,2.56,0,3.83997-.02002,4.47998-.02002,8.96002,0,13.44.01001,5.46002-.06,10.92999.03998,16.39001,2.18005,2.72998,6.01001,4.5,9.44,3.52997,2.15002-4.66998,4.73003-9.12,7.07001-13.67999,2.08002-4.04999,4.23004-8.15997,6.23999-12.23999.66003-1.34003,1.15002-2.78998,1.92004-4.08002-1.28003.36005-2.54004.36005-3.84003.48004h-.00002ZM29.81006,103.48523c.20001-9.38995,1.97998-18.70996,5.28003-27.5l-.24005-.45996-5.03998-3c-6.95001,14.19995-10.35999,30.25-9.72998,46.09998.26996.39001,6.07996.22998,7.08997.22003,1.36005-.01001,2.72003.00995,4.08002,0-.44-3.07001-1.21002-6.14001-1.44-9.24005-.14001-2.02997-.03998-4.12,0-6.12ZM114.29004,67.84528c-.00995-.41003.15002-1.07001-.23999-1.32001-.52997.54999-.83002.91998-1.44,1.44-6.20996,5.29999-12.85999,6.88-20.88,5.75995-.63-.08997-1.28998-.08997-1.91998-.23999.44,1.10004.91998,2.30005,1.44,3.36005,2.28998,4.71997,4.79999,9.47998,7.20001,14.15997,2.15997,4.21997,4.64001,8.31,6.51001,12.67999,3.50995.47998,7-.78998,9.19995-3.56.13-10.75.26001-21.52997.13-32.27997ZM84.53009,68.68524c-2.82001-5.69-5.74005-11.39001-8.64001-17.03998-.95001-1.85004-1.98004-3.70001-3-5.52002-5.07001,12.54999-14.96002,22.5-27.60999,27.35999-.13.19.54999.98999.72998,1.20001.95996,1.17999,2.77002,2.85999,3.95996,3.84003,3.41003,2.81,8.57001,5.72998,12.48004,7.91998,1.14996.64001,2.39996,1.37,3.59998,1.91998.71002.33002.66998.54004,1.67999.48004.97003-.06,4.06-.84003,5.04004-1.20001,5.53998-2.04999,10.73999-7.96002,12.71997-13.44.10999-.31.63-2.25.60004-2.41998-.53003-1.03003-1.05005-2.07001-1.56001-3.10004ZM96.53009,92.20526c-2.39001-4.71002-4.73004-9.5-7.20001-14.16003-.51001-.95996-1.09003-1.89996-1.56-2.88-.27002.13-1.64001,3.36005-2,4-3.12,5.47003-8.54004,9.80005-14.67999,11.36005-.27002.27997-.40002-.23999-.48004.47998,1.53003.95001,3.03003,1.91998,4.56,2.88,1.77002,1.10999,3.54999,2.16998,5.28003,3.35999,2.58002,1.79004,5.02997,3.75,7.44,5.76001,2.89996,2.42999,5.65997,4.96002,8.32996,7.65002,1.11005.28998,6.19-4.78003,6.5-6.29004-2.13995-4.01001-4.13995-8.09998-6.18994-12.15998ZM104.20008,107.08527c-.40002-.29004-1.91998,2.07001-2.26001,2.40997-1.06,1.04999-2.62,2.26001-3.97003,2.87l7.39001,10-4.26996,6.08002,8.87994-4.67999.90002-3.16003-6.66998-13.51996.00002-.00002ZM111.05005,125.83527l-12.83997,7.05c2.42999,2.09998,4.95996,4.29999,6.23999,7.32001l7.08997-13.20001s-.48999-1.16998-.49-1.16999ZM118.09008,128.84528c-.55005-1.11005-1.52002-.37006-2.48004-.38-.71997,0-1.32001-.31-2-.22003l-6.76996,13.04004c1.94995.03998,3.92999-.5,5.87994-.61005,3.97003-.21997,7.96002.21002,11.89001.73004,0,0-6.51996-12.56-6.51995-12.56ZM160.12005,147.40527c-.48999-.22003-.95001-.51001-1.44-.72003-1.19-.51001-2.38-.77997-3.59998-1.20001-1.87-.63995-3.21002-1.09998-5.04004-1.91998-2.25-1.01001-3.67999-1.82001-5.75995-3.12-2.88-1.81-4.81006-3.60999-7.44-5.52002-.91003-.65997-.76001-.96997-1.90002-.33997-1.77002.97998-5.04999,4.56-6.02002,6.33997-.27997.52002-.75,1.86005-.60999,2.40002l6.37,12.23999c.79999,1.52002,1.60999,3.03998,2.40002,4.56.82996,1.58002,1.70001,3.16003,2.39996,4.79999l.60004.48004c.51996-.59003.87-1.30005,1.32001-1.92004,1.08997-1.46997,2.15997-2.94995,3.35999-4.32001,2.92999-3.33997,5.63-5.56995,9.35999-7.91998,1.96002-1.22998,2.94-1.70996,5.03998-2.64001.22003-.08997,1.43005-.75995,1.44-.83997l-.47998-.35999ZM102.77008,141.88525c-.79004-2.07001-3.67004-5.33002-5.44-6.67999-2.11005-1.59003-1.92004-.96002-3.67999.44-2.71002,2.14996-4.48004,3.5-7.44,5.27997-2.29004,1.37-3.46002,2.09003-6,3.12-1.74005.70001-3.33002,1.10004-5.04004,1.67999-1.06.36005-2.13995.64001-3.12,1.20001-.44.25-.89001.40002-1.20001.84003,0,.08002,1.21002.73999,1.44.83997.75.35004,1.36005.53003,2.16003.96002,5.60999,2.97003,9.54999,6.25,13.44,11.28003.57001.72998,1.16998,1.35999,1.67999,2.15997.33997.53003.64996,1.13.96002,1.67999.37.19.31995.41998.95996.72003.62-1.70001,1.84003-3.27002,2.64001-4.80005.75-1.44,1.21997-3.38995,2.40002-4.56l6.47998-13.07996c-.04004-.36005-.10999-.74005-.23999-1.08002h.00003ZM135.16003,161.32526c-.75995-1.51001-1.60999-3.04999-2.39996-4.56-2.16998-4.16003-4.62-8.20001-6.60004-12.47998-.48999-.46002-2.69-.60004-3.46997-.72003-5.09003-.79999-10.31-.71002-15.35999.23999-.51001.10004-1.85004.02002-2.19.39001-1.98999,4.39001-4.45001,8.54999-6.69,12.81-.79999,1.52002-1.59003,3.03998-2.40002,4.56-.51001.94-.94,1.92999-1.44,2.88,1.60999-.44,3.19-.97998,4.79999-1.44,10.67004-3.07001,20.97003-3.22998,31.67004-.23999,1.87.52002,3.70001,1.02002,5.51996,1.67999-.60999-.95001-.94-2.15997-1.44-3.12ZM151.48005,192.52527c-1.41998-3.12-3.63-6.92004-5.27997-10.08002-2.09003-4.02002-4.42999-8.90997-6.72003-12.72003-1.09998-1.83997-1.85999-2.25995-3.83997-3.12-2.38-1.03998-6.29999-2.13995-8.87-2.63995-7.41003-1.45001-15.44-1.31-22.80005.23999-3.10999.64996-6.23999,1.53998-9.12,2.88-.72998.33997-1.5.70001-2.17999,1.13-2.48999,5.04999-5.28998,9.95996-7.89996,14.94995-1.76001,3.36005-3.26001,6.86005-5.28003,10.08002.29004.12.58002.17999.72003.23999.63995-.56,1.64996-.76996,2.44995-1.01996,6.63-2.10004,13.43005-3.49005,20.35004-4.26001,5.70996-.64001,11.40997-.85004,17.16998-.73004l7.44.58002c6.40002.31,16.54999,3.39001,22.90002,5.19.35999.10004.82996.14001,1.19995.23999.08002-.07996-.14996-.77997-.23999-.95996h.00002ZM86.93006,163.24524c-.65997-.89996-1.42999-1.79999-2.15997-2.64001-2.64001-3.01996-5.92004-5.84998-9.36005-7.91998-.67999-.40997-1.75995-1.14001-2.39996-1.44-1.56-.73999-3.57001-1.21997-5.20001-1.85999-.53998-.03003-.85999.46002-1.27997.65997-4.29004,2.02002-8.77002,4.67004-12.96002,6.96002-2.66003,1.45001-5.46002,2.84998-7.91998,4.56,12.73999,3.98999,24.06995,13.78998,29.56,26,.57001,1.26001,1.29999,2.91998,1.63995,4.23999.05005.20001-.03998.48999,0,.72003.23004.08997.45001-.23999.48004-.23999,1.77997-3.46002,3.70996-6.87006,5.51996-10.32001,2.38-4.54004,4.64001-9.15002,7.08002-13.66003.10999-.56-2.47998-4.34998-3-5.06ZM64.47004,147.17523c-.31-.02997-.53998-.25-.57996-.25-6.92004-.52997-13.45001-1.67999-18.96002-6.23999l-2.15997-1.44c1.48999,6.76001,1.64996,13.81.47998,20.64001,2.98999-1.67999,6.09998-3.16998,9.12-4.79999,4.29999-2.33002,8.47998-4.97003,12.96002-6.96002l1.20001-.96002c-.68005-.04999-1.39001.07001-2.06007.01001ZM40.30005,139.91522c-1.14996-4.75-2.59998-6.14996-4.76996-10.10999-1.49005-2.71997-2.55005-5.63-3.56006-8.56h-11.75995c.85999,13.37,4.57996,26.29999,10.67999,38.16998.91998,1.80005,1.95996,3.78003,3,5.51001l6.40997-3.42999c.22003-.91998.38-1.87.54999-2.81,1.13-6.27997.96002-12.56-.54999-18.77002h.00001ZM73.73005,190.36523c-4.79999-12.13-17.13995-23.54999-29.76001-27.12-.27997-.08002-1.51996-.26001-1.75-.20001l-6.88995,4.04004c9.23999,14.07996,22.58997,26.08997,37.67999,33.59998l2.39001-4.92999c-.38-1.84003-.99005-3.65002-1.67004-5.39001ZM155.80005,200.92523c-.22998-.51996-2.03998-3.89996-2.26996-4.08997-.81006-.66003-4.65002-1.75-5.89001-2.15002-20.32001-6.59998-44.29004-6.46997-64.54999.23999-1.03003.34003-4.89001,1.42004-5.46002,1.98004-.60999.62-1.88,3.97998-2.22003,4.97998,25.42004,11.72998,55.21002,11.71997,80.63-.01001.05005-.08002-.16998-.79999-.23999-.95001ZM195.40008,166.60522c-.85004-.56995-5.75-3.33997-6.47003-3.48999-.34998-.07996-2.64996.45001-3.13.60999-11.76996,3.80005-23.08997,14.33002-27.83997,25.68005-.51001,1.21997-2.19,5.27997-2.13,6.37.01001.23999,1.88,3.82001,2.13,4.19.12.15997.15997.38.39996.44995.78003.19,7.54004-3.94,8.70001-4.66998,11.42999-7.25,21.64001-17.29999,28.78998-28.75-.06995-.22998-.27997-.27997-.44995-.39001ZM188.68005,139.24524l-4.08002,2.64001c-5.13995,3.95001-11.07996,4.40997-17.27997,5.03998-.5.04999-1.31.47003-2.04999.23004l-.35004.25,13.20001,7.19995,9.84003,5.28003c-1.03003-6.84003-1.17999-13.94.71997-20.64001ZM199.24006,121.24524c-.60999,2.06-1.31,4.13-2.19,6.09003-2.03998,4.5-4.63,6.95996-5.95001,12.04999-1.51996,5.87-1.78998,11.38-.97998,17.38.21002,1.57001.31,3.19.95001,4.69l5.52997,3.22998c.17004,0,.46002.20001.61005.16998.34998-.07996,3.19995-5.38,3.59998-6.15997,5.87-11.53998,9.39001-24.5,10.19-37.45001h-11.76001ZM210.24006,101.00525c-1.40997-9.81-4.5-19.32001-8.71997-28.23999l-.23999-.22998c-.16003.14996-.37006.22998-.60004.22998l-4.47998,3.22998c1.45001,4.20001,2.79999,8.47003,3.64996,12.84003,1.42004,7.28998,2.09003,15.89996,1.31,23.28998-.23999,2.26001-.83997,4.47998-1.19995,6.72003.95996.00995,1.91998-.01001,2.88,0,1.07996.00995,7.82996.12994,8.17999-.10004.23999-.19.19995-.45996.22998-.72998.54999-4.56-.34003-12.34003-1.01001-17.01001ZM158.68005,46.12524c-.56-.12-.38.08002-.52997.31-1.01001,1.56-2.15002,4.16003-3.07001,5.92999-2.81,5.42999-6.08002,11.32001-8.64001,16.79999-.22003.49005-1.16998,2.47003-1.19,2.78003-.03003.54999.90997,3.03998,1.19,3.70001,1.94,4.44,6.15997,9.19,10.56,11.27997,1.14001.54004,3.83002,1.45001,5.03998,1.67999.34003.06,1.63.24005,1.92004.24005,1.06.00995,2.83997-1.37006,3.83997-1.92004,3.97003-2.15997,8.91003-4.76001,12.48004-7.44,1.41998-1.06,3.38995-2.85999,4.56995-4.19.20001-.22998,1.42004-1.67999,1.32001-1.81-12.46997-4.75-22.95001-14.73999-27.48999-27.36ZM165.06006,33.18524c-.23999.07001-.27002.29999-.38.46002-1.64001,2.40997-2.56,5.95996-4.32001,8.39996-.47998,1.09003.10999,2.19.48004,3.24005,4.06,11.77997,15.06995,22.28998,26.85999,26.01996,0-.42999.37-.67999.5-.94.57001-1.10999,1-2.51001,1.51001-3.64996.13995-.30005.39996-1.29004.76996-1.15002,1.27002.47998,3.90002,6.62,4.82001,7.91998,1.31-.92999,2.91998-1.65997,4.17999-2.63995.23004-.18005.75-.46002.70001-.80005-8.17999-15.08997-20.22998-28.25-35.12-36.85999ZM117.04004,30.52527c-.21997,3.42999-.10999,6.88995-.10999,10.32001-.02002,6.21997-.15997,12.5,0,18.71997.02002,1.03998-.10999,2.09998.10004,3.13.43994.69,1.02997,1.32001,1.57996,1.90997,1.10004,1.19,2.95001,2.72003,4.32001,3.60004,3.16998,2.06,7.25,3.39001,11.03003,3.59998,2.23999.13,4.07996-.04999,6.23999-.47998,1.04999-.20001,2.06-.42999,3.06-.78003.27997-.85999.85999-1.57001,1.26001-2.33997,2.95996-5.62,5.44-11.54004,8.63995-17.04004l3.36005-6.95996c-14.63,1.78998-29.15002-3.31-39.48004-13.67999ZM153.09008,26.88525c-11.15002-4.73999-22.03003-6.87-34.12006-7.40002-.50995-.02997-1.63995-.48999-2-.17999-.10999.09003-.01996.40002-.03998.41998.29999,2.02002-.62,6.22003.47998,7.80005.41003.59998,1.16003,1.06,1.68005,1.56,9.54999,9.25,24.25995,15.34998,37.72998,12.65997.38-.08002.77997-.14001,1.13-.33002l.48999-.56995,4.32001-8.64001c-.95001-1.52002-7.60004-4.44-9.66998-5.32001ZM112.26007,19.49524c-15.82001.31-30.23999,4.77002-43.81,12.47003,1.69,2.52997,2.64001,5.5,4.08002,8.15997.12994.23999.81995,1.41003.88995,1.44,3.96002.64001,7.92999.73999,11.92004.45001,9.67999-.98999,20.28998-5.88,27.02997-12.92999.41003-.42999,1.83002-1.85004,1.91003-2.29004l.00995-7.54999c-.53998-.14996-1.40997.23999-2.02996.25001ZM70.61004,41.56525c-.97998-2.27002-2.53998-5.5-3.78998-7.60999-.21002-.34003-.38-.64001-.77002-.79004-14.51001,8.79004-26.75,21.80005-34.79999,36.72003-.01001.51001.29999.65002.64001.91998.45001.35999,4.19,2.83002,4.39996,2.67999,0-1.26001,4.04004-7.90997,4.67999-7.91998.44.83002,1.33002,2.47003,1.32001,3.35999l1.59003,2.36005c12.97998-4.37006,23.53998-15.39001,27.33002-28.54004-.17999-.40997-.42999-.77997-.60004-1.18ZM74.93006,44.20526c-.06.27997.03003.45996.13.70996.63,1.57001,1.94,3.90002,2.75,5.53003,2.81,5.66998,5.70001,11.42999,8.64001,17.03998.26001.5,1.46997,2.81,1.67999,2.98999.44.37006,1.34998.45001,1.91998.61005,2.09003.57001,3.84003.72998,6,.71997,4.66003-.01996,8.84003-1.28998,12.72003-3.83997,1.23999-.82001,3.08997-2.27002,4.07996-3.36005.43005-.47998.83002-1.01996,1.21002-1.53998l.22998-32.53998c-10.25,10.32996-24.81,15.47998-39.35999,13.67999v.00002ZM187.24006,107.80524c-.89001,21.60999-23.19,30.83002-40.67999,19.45001-.94-.60999-4.83002-3.56-4.91998-4.46002-.09003-.79999,2.76996-3.91998,3.47998-4.66998,10.63-11.23999,27.07001-18.70001,42.12-21.59998.01001.88.06,9.98999,0,11.27997ZM87.89008,119.91522c-10.90002-12.38995-27.65002-20.25995-43.67999-23.38995-.09003,1.15997-.13,2.09998-.24005,3.12-.29999,2.84998-.27997,5.06,0,7.91998.95001,9.90997,4.10004,16.96002,13.19,21.72002,9.77002,5.12,22.59003,2.96997,30.73004-4.32001,2.70001-2.41003,2.26001-2.48004,0-5.05005Z"/></g></svg>