<?xml version="1.0" encoding="UTF-8"?><svg id="Layer_2" xmlns="http://www.w3.org/2000/svg" width="216.00002" height="216" viewBox="0 0 216.00002 216"><defs><style>.cls-1{fill:#da0200;}</style></defs><g id="Layer_1-2"><path class="cls-1" d="M105.09029,6.55063l10.24516.17177c78.08914,5.59385,121.0433,94.49302,76.14476,159.19346-42.80273,61.68031-136.31709,56.80988-172.28668-9.03452C-17.26245,90.14663,29.58364,9.02049,105.09029,6.55063ZM107.05932,18c-15.1586.28029-30.04307,4.27476-43.21105,11.6634l4.49642,9.2367c14.33538,2.7746,29.25588-2.98106,38.71463-13.8201v-7.08ZM109.21894,18v7.08c9.52784,10.87573,24.2308,16.44159,38.63718,13.92402l4.77055-9.12855c-13.05544-7.70242-28.25337-11.5229-43.40771-11.87546h-.00002ZM107.05932,58.68v-30.12c-1.63136,1.09903-2.90726,2.62213-4.44576,3.83345-6.08272,4.78918-14.35301,8.27483-22.07245,9.12363-3.6065.39656-7.07815.16391-10.67773.12546l11.95261,23.80526c.61018,1.0958,2.46181,1.42416,3.63497,1.64439,8.21575,1.54225,16.61001-1.79602,21.60836-8.4122v.00002ZM109.21894,28.56v30.12c5.70959,7.54883,15.78139,10.7123,24.79482,7.5785l12.63847-24.7361c-5.54697.49034-10.95734.29716-16.36722-1.03222-5.88516-1.44617-12.15691-4.52699-16.8602-8.33681-1.19764-.97013-2.36617-2.37829-3.48441-3.23491-.24183-.18525-.30271-.46294-.72148-.35846h.00002ZM61.94378,30.96045c-14.10239,8.18412-25.74528,20.57484-33.24488,35.04337l4.57404,3.11177c1.66866-2.52291,2.45621-5.72615,4.91601-7.67534l2.18505,5.50203c12.356-3.80266,22.16018-14.32895,26.08771-26.5629,0,0-4.51792-9.41892-4.51793-9.41893ZM178.56287,61.44014l4.44244,7.67545,4.62102-3.23194c-6.03209-11.35329-14.5023-21.4141-24.68172-29.25886-.89819-.6922-8.19138-5.96781-8.61018-5.66455l-4.50185,9.43794c3.98334,12.20622,13.72906,22.701,26.07169,26.54409.29608-.46245,2.37544-5.69863,2.65862-5.50214h-.00002ZM68.18251,43.20087c-.54699-.10262-.38078.03386-.53124.30578-.78689,1.42213-1.37235,3.39548-2.21943,4.9785-5.08922,9.51072-13.45282,16.48497-23.40268,20.52013,3.14428,4.62554,8.49246,7.70663,13.27796,10.47609,1.28548.74393,5.94773,3.62026,7.01468,3.78364,1.0125.15504,2.19417-.15947,3.18291-.38699,7.34827-1.69093,12.93672-8.00733,14.86906-15.14414l-12.19127-24.53301h.00002ZM148.56857,43.20059l-.53436.3086-12.13551,24.22998c1.78441,5.97067,5.72148,11.35317,11.48181,13.97249,1.62167.7374,5.11626,1.88216,6.82074,1.55656.90289-.17248,7.16756-3.96989,8.44957-4.74686,4.37256-2.64999,8.83762-5.40277,11.836-9.63844-11.79996-4.15239-21.67723-13.90255-25.91824-25.68232ZM107.05932,62.4c-.41895-.1046-.47964.17345-.72141.35852-1.18079.90385-2.17205,2.07156-3.52365,2.95566-5.62099,3.67675-12.49048,4.74472-19.03298,3.288l14.27638,28.20111c3.32742.90694,6.8919-.89085,9.00166-3.4833,0,0,0-31.32,0-31.31999ZM109.21894,62.4v31.32c2.15403,2.51939,5.66527,4.42491,9.00166,3.4833l14.27638-28.20111c-5.96798,1.36147-12.34348.52417-17.68017-2.48104,0,0-5.59787-4.12114-5.59788-4.12115ZM28.83319,111.6c-.07259-2.0054-.69165-3.92754-.92923-5.91061-1.13734-9.49343.19714-19.48113,2.72946-28.64884.29365-1.0631,1.86976-4.99751,1.80962-5.64023-.02337-.24974-.11105-.31461-.25161-.47795-.30341-.35258-4.33405-2.8286-4.66563-2.77475-6.68158,13.38324-9.80869,28.45251-9.25074,43.45238,0,0,10.55813,0,10.55813,0ZM187.44506,111.6h10.55814c.60487-14.99017-2.46671-30.12499-9.25131-43.45287-.83537.32814-4.86351,2.65136-4.92036,3.25621-.03973.42276,1.33163,3.84525,1.57307,4.67748,2.78539,9.60052,4.19295,19.86352,2.96944,29.84832-.23228,1.89565-.81551,3.75631-.92897,5.67086ZM82.10006,70.56089c-.62406-.11459-.36989.09241-.49747.34024-2.10167,4.08223-3.2168,6.77775-6.93453,9.86187-2.93171,2.43207-5.14055,2.91239-8.50893,4.20951-.25017.09634-.57842.10127-.61185.46443,6.68246,3.66675,12.9848,8.06349,18.71942,13.07973,1.97809,1.7303,3.80539,3.77432,5.8343,5.36977,1.37732-.46565,6.08563-4.80842,5.86962-6.04463l-13.87055-27.28092h-.00002ZM134.65195,70.5596l-14.28359,27.34273c-.20848,1.09708,4.66766,5.80392,5.82197,5.9869.78887.12505,1.01087-.80566,1.49963-1.29488,4.83218-4.83678,10.63116-9.4153,16.34311-13.17403,2.15939-1.42098,4.43195-2.73978,6.69791-3.98338-.03345-.36315-.36168-.36809-.61185-.46442-1.50323-.57883-3.08774-.89445-4.58937-1.64976-4.94618-2.48791-9.17661-7.54557-10.87781-12.76316ZM40.22076,89.09626c-.26438.08699-.31506.29884-.35143.54233-.62463,4.18164-.46659,11.61216.30691,15.77635,2.9128,15.68115,18.78836,23.29813,33.41335,17.94941,4.24925-1.55406,9.27263-4.35784,11.57989-8.32468.08409-.98931-5.69649-6.7836-6.77876-7.76599-10.51785-9.54706-24.36778-15.30221-38.16996-18.17742ZM176.40538,89.04085c-11.52258,2.30516-22.87146,6.67577-32.46809,13.48365-3.87172,2.74661-8.25233,6.43793-11.19661,10.16141-1.37437,1.7381-2.24229,1.88228-.72028,3.82839,6.79276,8.68545,22.34273,10.74194,31.82993,5.68679,13.10474-6.98271,13.59859-19.77643,12.55505-33.16022v-.00002ZM107.05932,110.64v-13.68c-2.20217,1.76816-4.86013,2.65542-7.68086,2.76224l5.76441,11.63776,1.91645-.72ZM109.21894,96.96v13.68l1.91645.72,5.76472-11.63747c-2.79858-.08475-5.44379-1.09962-7.68117-2.76254ZM97.45765,100.56062c-.33541-.07663-.39421.04918-.60299.23293-.89076.78395-1.83378,2.19818-2.87951,3.11997-.69595.61347-1.63042,1.37838-2.5129,1.69017,1.24221,2.00495,6.61114,7.24576,6.9173,9.29347.16288,1.08939-3.23997,4.40576-3.79794,5.58048l8.29133-4.30476.78684-2.83028-6.20212-12.78198v-.00002ZM121.69663,120.47765c.25426-.22575-3.95973-4.59499-3.80906-5.58284.09451-.61964,2.44266-3.74059,2.99409-4.47001,1.23276-1.63066,2.65353-3.11186,3.93047-4.70561-2.21188-1.3951-4.00292-3.12007-5.63504-5.15455-.88126,1.8094-6.58564,11.52845-6.48318,12.73808.06442.76061.75003,1.87737.6612,2.80127,0,0,8.34152,4.37366,8.34151,4.37366ZM107.47361,112.85584c-3.53724.72752-2.44269,6.65952,1.75885,5.35666,2.75406-.85401,2.1663-6.16396-1.75885-5.35666ZM29.43308,113.76h-10.91806c.68522,14.47553,5.35157,28.77224,12.86991,41.05988l6.04276-3.30386c1.55152-5.97578,1.59644-12.27827.41273-18.32484-1.02988-5.2608-2.32873-6.53312-4.72908-10.87008-1.51638-2.7398-2.49038-5.67549-3.67826-8.5611ZM186.72519,113.76c-.92867,3.11001-2.20938,6.21353-3.79823,9.04108-2.1385,3.80571-3.27887,5.04416-4.28439,9.63484-1.38208,6.30981-1.36665,12.98016.29292,19.23515l5.7567,3.13847c.4671.00435,1.06995-1.29878,1.35468-1.76802,5.58636-9.20627,9.72711-21.81111,11.20218-32.47583.25674-1.85623.65813-4.50319.6554-6.31564-.00043-.2808-.01674-.31062-.26117-.49007h-10.91808ZM97.93803,131.75941l6.37635-12.9549-.54376-.45965-12.06752,6.57634c2.7319,1.64883,4.43629,4.30753,6.23493,6.83823v-.00002ZM124.57535,124.56369c-1.79292-.3985-11.2155-6.4298-12.06654-6.21165-.21475.05505-.57301.38814-.61331.6021l6.56464,12.56425,3.11356-4.08143c.75212-.96523,2.0022-1.58004,2.84898-2.37678.20278-.19079.21921-.16506.15266-.49649h.00002ZM116.41652,132.71867l-6.23684-12.13762c-.46521-.50856-2.77439.47678-3.73525-.26435l-6.58381,12.40086,8.2785-.7375,8.27739.73862h.00002ZM85.46025,155.51942l10.95199-21.23943c-1.4009-3.43024-3.78309-6.3814-7.02863-8.23933-2.03006,1.31608-3.76837,3.06496-5.76464,4.47482-3.11425,2.19946-6.73755,4.21413-10.33431,5.50386-2.46241.88297-5.20821,1.11134-7.257,2.82172,8.26535,3.26569,14.55531,9.41144,19.43259,16.67834l.00002.00002ZM150.25098,138.48331c-2.30228-1.17725-4.83174-1.58981-7.25749-2.46387-6.03693-2.17522-11.0645-5.92023-15.93712-9.97857-3.30615,1.74465-5.75584,4.81327-7.19039,8.23914l10.95203,21.2394c1.4684-1.52068,2.49222-3.48808,3.84367-5.15218,3.50627-4.3174,8.14659-7.90862,13.10487-10.4128.37801-.1909,2.91817-.89671,2.48444-1.47115l-.00002.00002ZM61.94614,138.24242c-4.52565-.16841-8.80201-.61047-13.08084-2.15807-3.39504-1.22794-6.53765-3.13649-9.23159-5.52432,1.38424,6.5528,1.61707,13.06554.47992,19.67996,0,0,21.83251-11.99757,21.83251-11.99757ZM176.64568,130.80116l-4.6368,3.15991c-5.52599,3.1431-10.79582,3.96741-17.08316,4.27768-.26984.01332-.6577-.15462-.593.23822l21.83299,11.5219c-1.11217-6.45468-.86565-12.8075.47997-19.19771ZM127.93552,154.55763l-9.94948-18.96629c-2.88131-1.53574-17.88628-1.72035-19.67853.0153l-9.96478,18.951c12.56024-4.89528,27.04584-4.92931,39.59279,0v-.00002ZM71.78815,180.95975l12.1941-22.73888c.14495-.68147-1.80309-3.36229-2.30535-4.07394-4.45893-6.31784-10.89022-11.60701-18.41361-13.75722l-20.63615,11.049c-.22508.31612.28987.40585.47266.49225,2.07274.9796,4.27329,1.64638,6.37495,2.74384,10.3264,5.39232,19.06569,14.9792,22.3134,26.28496ZM174.00568,151.44302c-6.46999-3.02039-12.5658-7.06177-18.94975-10.20815-2.53703-1.2504-2.92448-.74345-5.44585.32343-7.21582,3.05331-13.68513,9.56264-17.30359,16.44139l12.18361,22.96004c3.47652-11.72939,12.45538-21.30745,23.27165-26.76654l6.24391-2.75018.00002.00002ZM39.32778,153.15659l-6.64708,3.68106c8.51564,13.39581,20.72856,24.14088,34.77808,31.46381.24973.12048.48278.15028.73006-.0079.1963-.12558,2.05057-3.82355,2.11353-4.15422.23218-1.21962-1.49182-5.39539-2.07455-6.70093-4.53225-10.15413-13.74438-18.63193-24.04064-22.7551-.91286-.36555-4.13192-1.6604-4.8594-1.5267v-.00002ZM129.79115,157.98413c-10.37982-5.31429-23.47992-6.20398-34.73143-3.30585-2.04808.52754-7.69378,2.28374-8.83681,3.88162l-12.03772,23.11769c21.92932-7.38889,45.98515-7.39803,67.90787,0l-12.30191-23.69347ZM148.1111,188.38354c.37778.27435,4.91519-2.38203,5.66129-2.8222,10.87373-6.41502,21.27348-15.88885,28.34947-26.36549.29514-.43698,1.60883-2.13036,1.37859-2.48291l-6.20599-3.41701c-1.17255-.37643-4.41772,1.1059-5.67892,1.63171-12.29688,5.1268-22.33174,15.76349-25.69322,28.79616l2.18881,4.65974h-.00002ZM146.17241,189.59682l-2.4119-4.66454c-22.37754-8.91646-48.67636-8.81026-71.10807-.10524l-2.55126,4.64854c17.89611,8.53555,38.51054,10.59253,57.87978,6.28979,6.27689-1.39436,12.33916-3.55553,18.19144-6.16856h.00002Z"/><path d="M115.45783,0l10.36413,1.27404c44.54773,7.15487,80.59764,42.65096,88.66275,87.00154l1.5153,10.60442v18.24l-1.5153,10.60443c-8.17053,45.07105-45.17505,80.79887-90.54828,87.27567l-8.4786.99989h-14.6374l-11.56239-1.51556C42.77999,206.37726,6.34898,167.94164.7888,121.04936L.03829,112.32c.08874-2.86926-.12007-5.77353,0-8.64C2.31073,49.42893,46.11989,2.93806,100.82042,0h14.63741ZM105.09029,6.55063C29.58364,9.02049-17.26245,90.14663,19.19353,156.88136c35.9696,65.84438,129.48393,70.71483,172.28668,9.03452,44.89854-64.70045,1.9444-153.59962-76.14476-159.19347l-10.24516-.17177h0ZM95.05972,154.67828c-2.04808.52754-7.69378,2.28374-8.83681,3.88162l-12.03772,23.11769c21.92932-7.38889,45.98515-7.39803,67.90787,0l-12.30191-23.69347c-10.37982-5.31429-23.47992-6.20398-34.73143-3.30585ZM143.76053,184.93228c-22.37754-8.91646-48.67636-8.81026-71.10807-.10524l-2.55126,4.64854c17.89611,8.53555,38.51054,10.59253,57.87978,6.28979,6.27689-1.39436,12.33916-3.55553,18.19142-6.16856l-2.4119-4.66454h.00003ZM39.86933,89.63858c-.62463,4.18164-.46659,11.61216.30691,15.77635,2.9128,15.68115,18.78836,23.29813,33.41335,17.94941,4.24925-1.55406,9.27263-4.35784,11.57989-8.32468.08409-.98931-5.69649-6.7836-6.77876-7.76599-10.51785-9.54706-24.36778-15.30221-38.16996-18.17742-.26438.08699-.31506.29884-.35143.54234ZM143.93729,102.5245c-3.87172,2.74661-8.25233,6.43793-11.19661,10.16141-1.37437,1.7381-2.24229,1.88228-.72028,3.82839,6.79276,8.68545,22.34273,10.74194,31.82993,5.68679,13.10474-6.98271,13.59859-19.77643,12.55505-33.16022-11.52258,2.30516-22.87146,6.67577-32.46809,13.48365v-.00002ZM109.21894,58.68c5.70959,7.54883,15.78139,10.7123,24.79482,7.5785l12.63847-24.7361c-5.54697.49034-10.95734.29716-16.36722-1.03222-5.88516-1.44617-12.15691-4.52699-16.8602-8.33681-1.19764-.97013-2.36617-2.37829-3.48441-3.23491-.24183-.18525-.30271-.46294-.72148-.35846v30.12h.00002ZM107.05932,28.56c-1.63136,1.09903-2.90726,2.62213-4.44576,3.83345-6.08272,4.78918-14.35301,8.27483-22.07245,9.12363-3.6065.39656-7.07815.16391-10.67773.12546l11.95261,23.80526c.61018,1.0958,2.46181,1.42416,3.63497,1.64439,8.21575,1.54225,16.61001-1.79602,21.60836-8.4122v-30.12.00002ZM148.03421,43.50919l-12.13551,24.22998c1.78441,5.97067,5.72148,11.35317,11.48181,13.97249,1.62167.7374,5.11626,1.88216,6.82074,1.55656.90289-.17248,7.16756-3.96989,8.44957-4.74686,4.37256-2.64999,8.83762-5.40277,11.836-9.63844-11.79996-4.15239-21.67723-13.90255-25.91824-25.68233,0,0-.53436.3086-.53436.30861ZM67.65127,43.50665c-.78689,1.42213-1.37235,3.39548-2.21943,4.9785-5.08922,9.51072-13.45282,16.48497-23.40268,20.52013,3.14428,4.62554,8.49246,7.70663,13.27796,10.47609,1.28548.74393,5.94773,3.62026,7.01468,3.78364,1.0125.15504,2.19417-.15947,3.18291-.38699,7.34827-1.69093,12.93672-8.00733,14.86906-15.14414l-12.19127-24.53301c-.54699-.10262-.38078.03386-.53124.30578h.00002ZM155.05593,141.23486c-2.53703-1.2504-2.92448-.74345-5.44585.32343-7.21582,3.05331-13.68513,9.56262-17.30359,16.44139l12.18361,22.96004c3.47652-11.72939,12.45538-21.30745,23.27165-26.76654l6.24391-2.75018c-6.46999-3.02039-12.5658-7.06177-18.94975-10.20815l.00002.00002ZM83.98224,158.22086c.14495-.68147-1.80309-3.36229-2.30535-4.07394-4.45893-6.31784-10.89022-11.60701-18.41361-13.75722l-20.63615,11.049c-.22508.31612.28987.40585.47266.49225,2.07274.9796,4.27329,1.64638,6.37495,2.74384,10.3264,5.39232,19.06569,14.97922,22.31341,26.28496,0,0,12.1941-22.73888,12.19409-22.73888ZM28.6989,66.00382l4.57404,3.11177c1.66866-2.52291,2.45621-5.72615,4.91601-7.67534l2.18505,5.50203c12.356-3.80266,22.16018-14.32895,26.08771-26.5629l-4.51792-9.41892c-14.10239,8.18412-25.74528,20.57484-33.24489,35.04336ZM183.00533,69.11559l4.62102-3.23194c-6.03209-11.35329-14.5023-21.4141-24.68172-29.25886-.89819-.6922-8.19138-5.96781-8.61018-5.66455l-4.50185,9.43794c3.98334,12.20622,13.72906,22.701,26.07169,26.54409.29608-.46245,2.37544-5.69863,2.65862-5.50214l4.44244,7.67545h-.00002ZM109.21894,25.08c9.52784,10.87573,24.2308,16.44159,38.63718,13.92402l4.77055-9.12855c-13.05544-7.70242-28.25337-11.5229-43.40771-11.87546v7.08h-.00002ZM63.84827,29.6634l4.49642,9.2367c14.33538,2.7746,29.25588-2.98106,38.71463-13.8201v-7.08c-15.1586.28029-30.04307,4.27476-43.21105,11.6634ZM32.6807,156.83765c8.51564,13.39581,20.72856,24.14088,34.77808,31.46381.24973.12048.48278.15028.73006-.0079.1963-.12558,2.05057-3.82355,2.11353-4.15422.23218-1.21962-1.49182-5.39539-2.07455-6.70093-4.53225-10.15413-13.74438-18.63193-24.04064-22.7551-.91286-.36555-4.13192-1.6604-4.8594-1.5267l-6.64708,3.68106v-.00002ZM153.77239,185.56136c10.87373-6.41502,21.27348-15.88885,28.34947-26.36549.29514-.43698,1.60883-2.13036,1.37859-2.48291l-6.20599-3.41701c-1.17255-.37643-4.41772,1.1059-5.67892,1.63171-12.29688,5.1268-22.33174,15.76349-25.69322,28.79616l2.18881,4.65974c.37778.27435,4.91519-2.38203,5.66129-2.8222h-.00002ZM18.51502,113.76c.68522,14.47553,5.35157,28.77224,12.86991,41.05988l6.04276-3.30386c1.55152-5.97578,1.59644-12.27827.41273-18.32484-1.02988-5.2608-2.32873-6.53312-4.72908-10.87008-1.51638-2.7398-2.49038-5.67549-3.67825-8.56109,0,0-10.91806,0-10.91807,0ZM182.92696,122.80108c-2.1385,3.80571-3.27887,5.04416-4.28439,9.63483-1.38208,6.30981-1.36665,12.98016.29292,19.23517l5.7567,3.13847c.4671.00435,1.06995-1.29878,1.35468-1.76802,5.58636-9.20627,9.72711-21.81111,11.20218-32.47583.25674-1.85623.65813-4.50319.6554-6.31564-.00043-.2808-.01674-.31062-.26117-.49007h-10.91806c-.92867,3.11001-2.20938,6.21353-3.79823,9.04108h-.00002ZM117.98604,135.59134c-2.88131-1.53574-17.88628-1.72035-19.67853.0153l-9.96478,18.951c12.56024-4.89528,27.04584-4.92931,39.59279,0l-9.94948-18.96629v-.00002ZM109.21894,93.72c2.15403,2.51939,5.66527,4.42491,9.00166,3.4833l14.27638-28.20111c-5.96798,1.36147-12.34348.52417-17.68017-2.48104l-5.59787-4.12114s0,31.32,0,31.31999ZM106.3379,62.75852c-1.18079.90385-2.17205,2.07156-3.52365,2.95566-5.62099,3.67675-12.49048,4.74472-19.03298,3.288l14.27638,28.20111c3.32742.90694,6.8919-.89085,9.00166-3.4833v-31.32c-.41895-.1046-.47964.17345-.72141.35852ZM120.36836,97.90233c-.20848,1.09708,4.66766,5.80392,5.82197,5.9869.78887.12505,1.01087-.80566,1.49963-1.29488,4.83218-4.83678,10.63116-9.4153,16.34311-13.17403,2.15939-1.42098,4.43195-2.73978,6.69791-3.98338-.03345-.36315-.36168-.36809-.61185-.46442-1.50323-.57883-3.08774-.89445-4.58937-1.64976-4.94618-2.48791-9.17661-7.54557-10.87781-12.76315,0,0-14.28359,27.34273-14.28358,27.34272ZM81.60258,70.90113c-2.10167,4.08223-3.2168,6.77775-6.93453,9.86187-2.93171,2.43207-5.14055,2.91239-8.50893,4.20951-.25017.09634-.57842.10127-.61185.46443,6.68246,3.66675,12.9848,8.06349,18.71942,13.07973,1.97809,1.7303,3.80539,3.77432,5.8343,5.36977,1.37732-.46565,6.08563-4.80842,5.86962-6.04463l-13.87055-27.28092c-.62406-.11459-.36989.09241-.49747.34024h-.00002ZM142.99349,136.01945c-6.03693-2.17522-11.0645-5.92023-15.93712-9.97857-3.30615,1.74465-5.75584,4.81327-7.19039,8.23914l10.95203,21.2394c1.4684-1.52068,2.49222-3.48808,3.84367-5.15218,3.50627-4.3174,8.14659-7.90862,13.10487-10.4128.37801-.1909,2.91817-.89671,2.48444-1.47115-2.30228-1.17725-4.83174-1.58981-7.25749-2.46387l-.00002.00002ZM96.41224,134.28c-1.4009-3.43024-3.78309-6.3814-7.02863-8.23933-2.03006,1.31608-3.76837,3.06496-5.76464,4.47482-3.11425,2.19946-6.73755,4.21413-10.33431,5.50386-2.46241.88297-5.20821,1.11134-7.257,2.82172,8.26535,3.26569,14.55531,9.41144,19.43259,16.67834l10.95199-21.23943.00002.00002ZM27.90396,105.68939c-1.13734-9.49343.19714-19.48113,2.72946-28.64884.29365-1.0631,1.86976-4.99751,1.80962-5.64023-.02337-.24974-.11105-.31461-.25161-.47795-.30341-.35258-4.33405-2.8286-4.66563-2.77475-6.68158,13.38324-9.80869,28.45251-9.25074,43.45238h10.55813c-.07259-2.0054-.69165-3.92754-.92923-5.91061ZM198.00319,111.6c.60487-14.99017-2.46671-30.12499-9.25131-43.45287-.83537.32814-4.86351,2.65136-4.92036,3.25621-.03973.42276,1.33163,3.84525,1.57307,4.67748,2.78539,9.60052,4.19295,19.86352,2.96944,29.84832-.23228,1.89565-.81551,3.75631-.92897,5.67086h10.55814ZM48.8653,136.08434c-3.39504-1.22794-6.53765-3.13649-9.23159-5.52432,1.38424,6.5528,1.61707,13.06554.47992,19.67996l21.83251-11.99757c-4.52565-.16841-8.80201-.61047-13.08084-2.15807ZM172.00888,133.96107c-5.52599,3.1431-10.79582,3.96741-17.08316,4.27768-.26984.01332-.6577-.15462-.593.23822l21.83299,11.5219c-1.11217-6.45468-.86565-12.8075.47997-19.19771l-4.6368,3.15991ZM110.17968,120.58105c-.46521-.50856-2.77439.47678-3.73525-.26435l-6.58381,12.40086,8.2785-.7375,8.27739.73862-6.23684-12.13762h.00002ZM96.85466,100.79355c-.89076.78395-1.83378,2.19818-2.87951,3.11997-.69595.61347-1.63042,1.37838-2.5129,1.69017,1.24221,2.00495,6.61114,7.24576,6.9173,9.29347.16288,1.08939-3.23997,4.40576-3.79794,5.58048l8.29133-4.30476.78684-2.83028-6.20212-12.78198c-.33541-.07663-.39421.04918-.603.23293ZM117.88758,114.8948c.09451-.61964,2.44266-3.74059,2.99409-4.47001,1.23276-1.63066,2.65353-3.11186,3.93047-4.70561-2.21188-1.3951-4.00292-3.12007-5.63504-5.15455-.88126,1.8094-6.58564,11.52845-6.48318,12.73808.06442.76061.75003,1.87737.6612,2.80127l8.34152,4.37366c.25426-.22575-3.95973-4.59499-3.80907-5.58284ZM112.50881,118.35204c-.21475.05505-.57301.38814-.61331.6021l6.56464,12.56425,3.11356-4.08143c.75212-.96523,2.0022-1.58004,2.84898-2.37678.20278-.19079.21921-.16506.15266-.49649-1.79292-.3985-11.2155-6.4298-12.06653-6.21165ZM104.31438,118.80451l-.54376-.45965-12.06752,6.57634c2.7319,1.64883,4.43629,4.30753,6.23493,6.83823l6.37635-12.9549v-.00002ZM109.21894,110.64l1.91645.72,5.76472-11.63747c-2.79858-.08475-5.44379-1.09962-7.68117-2.76253,0,0,0,13.68,0,13.67999ZM107.05932,96.96c-2.20217,1.76816-4.86013,2.65542-7.68086,2.76224l5.76441,11.63776,1.91645-.72v-13.68ZM109.23245,118.21249c2.75406-.85401,2.1663-6.16396-1.75885-5.35666-3.53724.72752-2.44269,6.65952,1.75885,5.35666Z"/></g></svg>