<?xml version="1.0" encoding="UTF-8"?><svg id="Layer_2" xmlns="http://www.w3.org/2000/svg" width="230" height="230.17548" xmlns:xlink="http://www.w3.org/1999/xlink" viewBox="0 0 230 230.17548"><defs><style>.cls-1{fill:#fff;}.cls-2{fill:url(#radial-gradient);}</style><radialGradient id="radial-gradient" cx="115.71361" cy="117.06129" fx="115.71361" fy="117.06129" r="95.72475" gradientTransform="translate(0 232) scale(1 -1)" gradientUnits="userSpaceOnUse"><stop offset=".51197" stop-color="#be98c2"/><stop offset=".59381" stop-color="#ba93be"/><stop offset=".68233" stop-color="#ae86b5"/><stop offset=".774" stop-color="#9c71a6"/><stop offset=".86781" stop-color="#815290"/><stop offset=".96243" stop-color="#602c75"/><stop offset=".96292" stop-color="#602c75"/></radialGradient></defs><g id="Layer_2-2"><path d="M222.01007,100.03528c-6.5-47.48004-44.54999-85.54004-92.04004-92.04004l-9.67999-.98999h-10.56C55.17005,9.53528,10.46009,53.85522,7.01007,108.28528c-.01001.16998-.01001,1.52997-.01001,3.31995-.01001,6.48004.40997,12.96002,1.22998,19.39001l.30005,2.29004c7.62994,45.57996,44.43994,81.56995,90.07996,88.47998l6.64001.87c.71997.08997,1.45001.15997,2.17999.19l6.65002.33002c.54999.01996,1.10999.01996,1.65997,0l3.71002-.12c.56-.02002,1.10999-.06006,1.65997-.12006l10.29005-1.14996c46.88995-7.06,84.16998-44.79004,90.60999-91.79004l.98999-9.44995v-10.80005l-.98999-9.68994ZM165.06006,33.18524c14.89001,8.60999,26.94,21.77002,35.12,36.85999.04999.34003-.46997.62-.70001.80005-1.26001.97998-2.87,1.70996-4.17999,2.63995-.91998-1.29999-3.54999-7.44-4.82001-7.91998-.37-.14001-.63.84998-.76996,1.15002-.51001,1.13995-.94,2.53998-1.51001,3.64996-.13.26001-.5.51001-.5.94-11.79004-3.72998-22.79999-14.23999-26.85999-26.01996-.37006-1.05005-.96002-2.15002-.48004-3.24005,1.76001-2.44,2.67999-5.98999,4.32001-8.39996.10999-.16003.14001-.39001.38-.46002ZM187.96008,159.88525l-9.84003-5.28003-13.20001-7.19995.35004-.25c.73999.23999,1.54999-.18005,2.04999-.23004,6.20001-.63,12.14001-1.08997,17.27997-5.03998l4.08002-2.64001c-1.89996,6.70001-1.75,13.79999-.71997,20.64001ZM131.77008,188.53528c-.39001-.06006-.79004-.12006-1.17004-.17004-.44-.06-.88-.10999-1.31-.14996l-8.87-.72003c-.10999-.01001-.21997-.01001-.33997-.02002h-.02002c-.03998,0-.09003-.00995-.13-.00995-2.02002-.04004-4.02997-.04004-6.03998.01996-1.48004.03003-2.95001.09003-4.42004.17999-.91998.04004-1.82996.11005-2.75.19-.10999,0-.21997.01001-.33997.02002-1.12.09003-2.25.20001-3.37.33002-6.91998.76996-13.72003,2.15997-20.35004,4.26001-.79999.25-1.53998.63-2.44995,1.01996-.14001.06-.42999-.12-.72003-.23999,2.02002-3.21997,3.52002-6.71997,5.28003-10.08002,2.60999-4.98999,5.40997-9.89996,7.89996-14.94995.67999-.42999,1.45001-.79004,2.17999-1.13,2.88-1.34003,6.01001-2.23004,9.12-2.88,7.36005-1.54999,15.39001-1.69,22.80005-.23999,2.57001.5,6.49,1.59998,8.87,2.63995,1.97998.86005,2.73999,1.28003,3.83997,3.12,2.29004,3.81006,4.63,8.70001,6.72003,12.72003,1.64996,3.15997,3.85999,6.96002,5.27997,10.08002.09003.17999.32001.88.23999.95996-.37-.09998-.83997-.13995-1.19995-.23999-.40002-.10999-.81-.22998-1.23004-.34998-.69995-.20001-1.41998-.41003-2.14996-.62-4.85999-1.42004-10.32001-2.98999-15.37-3.73999ZM77.21009,192.39526c0,.01001-.01001.01001-.02002.01996-.06.11005-.09998.19-.12.21002-.01001-.02997-.01001-.07001-.02002-.10999-.06-.22003-.15997-.54004-.20001-.71002-.33997-1.32001-1.06995-2.97998-1.63995-4.23999-5.49005-12.21002-16.82001-22.01001-29.56-26,2.45996-1.71002,5.25995-3.10999,7.91998-4.56,4.19-2.28998,8.66998-4.94,12.96002-6.96002.41998-.19995.73999-.69,1.27997-.65997,1.63.64001,3.64001,1.12,5.20001,1.85999.64001.29999,1.71997,1.03003,2.39996,1.44,3.44,2.07001,6.72003,4.90002,9.36005,7.91998.72998.84003,1.5,1.74005,2.15997,2.64001.52002.71002,3.10999,4.5,3,5.06-2.44,4.51001-4.70001,9.12-7.08002,13.66003-.25.47998-.5.95996-.75995,1.42999-.20001.37-.40002.76001-.62006,1.14996-.12994.25-.26996.5-.39996.75-.94,1.78003-1.96002,3.67004-2.73999,5.09003-.11005.20001-.22003.40997-.33002.60999-.34998.64001-.63,1.13-.78998,1.40002h.00002ZM42.77008,139.24524l2.15997,1.44c5.51001,4.56,12.03998,5.71002,18.96002,6.23999.03998,0,.26996.22003.57996.25.67004.06,1.38-.06,2.06006-.01001l-1.20001.96002c-4.48004,1.98999-8.66003,4.63-12.96002,6.96002-3.02002,1.63-6.13,3.12-9.12,4.79999,1.16998-6.83002,1.01001-13.88-.47998-20.64001ZM116.93006,40.84528c0-3.43005-.10999-6.89001.10999-10.32001,10.33002,10.37,24.85004,15.46997,39.48004,13.67999l-3.36005,6.95996c-3.19995,5.5-5.67999,11.42004-8.63995,17.04004-.40002.76996-.98004,1.47998-1.26001,2.33997-1,.35004-2.01001.58002-3.06.78003-2.16003.42999-4,.60999-6.23999.47998-3.78003-.20996-7.86005-1.53998-11.03003-3.59998-1.37-.88-3.21997-2.41003-4.32001-3.60004-.54999-.58997-1.14001-1.21997-1.57996-1.90997-.21002-1.03003-.08002-2.09003-.10004-3.13-.15997-6.21997-.02002-12.5,0-18.71997ZM96.05005,161.56525c.81-1.52002,1.60004-3.03998,2.40002-4.56,2.23999-4.26001,4.70001-8.41998,6.69-12.81.33997-.37,1.67999-.28998,2.19-.39001,5.04999-.95001,10.26996-1.03998,15.35999-.23999.77997.12,2.97998.26001,3.46997.72003,1.98004,4.27997,4.43005,8.31995,6.60004,12.47998.78998,1.51001,1.64001,3.04999,2.39996,4.56.5.96002.83002,2.16998,1.44,3.12-1.81995-.65997-3.64996-1.15997-5.51996-1.67999-10.70001-2.98999-21-2.83002-31.67004.23999-1.60999.46002-3.19,1-4.79999,1.44.5-.95001.92999-1.94,1.44-2.88ZM94.13007,160.60522c-.79999,1.53003-2.02002,3.10004-2.64001,4.80005-.64001-.30005-.58997-.53003-.95996-.72003-.31006-.54999-.62006-1.14996-.96002-1.67999-.51001-.79999-1.10999-1.42999-1.67999-2.15997-3.89001-5.03003-7.83002-8.31-13.44-11.28003-.79999-.42999-1.41003-.60999-2.16003-.96002-.22998-.09998-1.44-.75995-1.44-.83997.31-.44.76001-.59003,1.20001-.84003.98004-.56,2.06-.83997,3.12-1.20001,1.71002-.57996,3.29999-.97998,5.04004-1.67999,2.53998-1.02997,3.70996-1.75,6-3.12,2.95996-1.77997,4.72998-3.13,7.44-5.27997,1.75995-1.40002,1.56995-2.03003,3.67999-.44,1.76996,1.34998,4.64996,4.60999,5.44,6.67999.13.33997.19995.71997.23999,1.08002l-6.47998,13.07996c-1.18005,1.17004-1.65002,3.12-2.40002,4.56h-.00003ZM134.68005,155.56525l-6.37-12.23999c-.14001-.53998.33002-1.88.60999-2.40002.97003-1.77997,4.25-5.35999,6.02002-6.33997,1.14001-.63.98999-.32001,1.90002.33997,2.62994,1.91003,4.56,3.71002,7.44,5.52002,2.07996,1.29999,3.50995,2.10999,5.75995,3.12,1.83002.82001,3.17004,1.28003,5.04004,1.91998,1.21997.42004,2.40997.69,3.59998,1.20001.48999.21002.95001.5,1.44.72003l.47998.35999c-.00995.08002-1.21997.75-1.44.83997-2.09998.93005-3.07996,1.41003-5.03998,2.64001-3.72998,2.35004-6.42999,4.58002-9.35999,7.91998-1.20001,1.37006-2.27002,2.85004-3.35999,4.32001-.45001.62-.80005,1.33002-1.32001,1.92004l-.60004-.48004c-.69995-1.63995-1.57001-3.21997-2.39996-4.79999-.79004-1.52002-1.60004-3.03998-2.40002-4.56ZM130.36004,128.68524l-9.32001-5.08002c.28003-1.03998-.47998-2.19995-.50995-2.97998-.03003-.67999,3.77997-8,4.42999-9.22998.41998-.79999,1.77997-3.63,2.16998-4.06.20001-.22003.25-.33002.58997-.25.27002.67999.93999,1.51996,1.43999,2.04999,1.28003,1.33002,2.94,2.27997,4.10004,3.58997l-7.39001,9.84003,4.48998,6.12v-.00002ZM128.78009,103.96527c2.34998-4.13,4.23999-8.49005,6.37994-12.72003,2.14001-4.21997,4.29004-8.52997,6.48004-12.71997.57996-1.10004,1.33997-2.42004,2.15997-3.36005,2.15002,6.21002,7.26001,11.85004,13.38,14.35004.45001.17999.92999.16998,1.26001.28998.41998.15002,2.58002.95001,2.64001,1.08002-.52002.22998-.96002.53998-1.44.83997-1.52002.96002-3.04999,1.90002-4.56,2.88-1.72003,1.12-3.36005,2.17004-5.04004,3.36005-2.73999,1.94995-5.13,3.78998-7.67999,6-2.51001,2.17999-4.83997,4.56-7.31,6.71997-.77997.02002-4.17999-3.08002-4.81-3.83997-.59998-.72003-1.67999-1.96002-1.45996-2.88ZM146.56006,127.25525c-.94-.60999-4.83002-3.56-4.91998-4.46002-.09003-.79999,2.76996-3.91998,3.47998-4.66998,10.63-11.23999,27.07001-18.70001,42.12-21.59998.01001.88.06,9.98999,0,11.27997-.89001,21.60999-23.19,30.83002-40.67999,19.45001ZM184.85003,75.29523c-1.17999,1.33002-3.14996,3.13-4.56995,4.19-3.57001,2.67999-8.51001,5.28003-12.48004,7.44-1,.54999-2.77997,1.92999-3.83997,1.92004-.29004,0-1.58002-.18005-1.92004-.24005-1.20996-.22998-3.89996-1.13995-5.03998-1.67999-4.40002-2.08997-8.62-6.83997-10.56-11.27997-.28003-.66003-1.22003-3.15002-1.19-3.70001.02002-.31.96997-2.28998,1.19-2.78003,2.56-5.47998,5.83002-11.37,8.64001-16.79999.91998-1.76996,2.06-4.37,3.07001-5.92999.14996-.22998-.03003-.42999.52997-.31,4.53998,12.62,15.02002,22.60999,27.48999,27.35999.10004.13-1.12,1.58002-1.32001,1.81ZM116.93006,83.56525c-.02002-4.47998-.02002-8.96002,0-13.44,0-1.27997-.01001-2.56,0-3.83997.76001.58997,1.41998,1.29999,2.16003,1.91998,5.44,4.59998,11.67999,6.38,18.70996,5.76001,1.29999-.12,2.56-.12,3.84003-.48004-.77002,1.29004-1.26001,2.73999-1.92004,4.08002-2.00995,4.08002-4.15997,8.19-6.23999,12.23999-2.33997,4.56-4.91998,9.01001-7.07001,13.67999-3.42999.97003-7.25995-.79999-9.44-3.52997-.09998-5.46002-.02997-10.92999-.03997-16.39001ZM116.93006,103.24524c2.20001,1.90002,5.04999,2.72998,7.91998,3l-6.35999,12.35999-1.56-.71997v-14.64002ZM120.28009,125.91522l12.95996,6.97003c-2.84998,1.89001-4.63,4.70001-6.70996,7.32001l-6.62006-12.96002c-.23999-.53998-.08997-.98999.37006-1.33002ZM124.61004,141.40527c-3.92999-.52002-7.91998-.95001-11.89001-.73004-1.94995.11005-3.92999.65002-5.87994.61005l6.76996-13.04004c.67999-.08997,1.28003.22003,2,.22003.96002.00995,1.92999-.73004,2.48004.38l6.51996,12.56h-.00002ZM104.45008,140.20526c-1.28003-3.02002-3.81-5.22003-6.23999-7.32001l12.83997-7.04999.48999,1.16998-7.08997,13.20001ZM106.36004,106.24524c2.88-.15997,5.59003-1.08997,7.92999-2.76001v14.28003l-1.57001.81s-6.35999-12.33002-6.35999-12.33002ZM110.87006,120.60522l-.90002,3.16003-8.87994,4.67999,4.26996-6.08002-7.39001-10c1.35004-.60999,2.91003-1.82001,3.97003-2.87.34003-.33997,1.85999-2.70001,2.26001-2.40997l6.66998,13.51996-.00002.00002ZM96.22004,110.65527c-2.66998-2.69-5.42999-5.22003-8.32996-7.65002-2.41003-2.01001-4.85999-3.96997-7.44-5.76001-1.73004-1.19-3.51001-2.25-5.28003-3.35999-1.52997-.96002-3.02997-1.92999-4.56-2.88.08002-.71997.21002-.20001.48004-.47998,6.13995-1.56,11.56-5.89001,14.67999-11.36005.35999-.63995,1.72998-3.87,2-4,.46997.98004,1.04999,1.92004,1.56,2.88,2.46997,4.66003,4.81,9.45001,7.20001,14.16003,2.04999,4.06,4.04999,8.14996,6.18994,12.15997-.31,1.51001-5.38995,6.58002-6.5,6.29004v.00002ZM88.13007,70.47522c-.21002-.17999-1.41998-2.48999-1.67999-2.98999-2.94-5.60999-5.83002-11.37-8.64001-17.03998-.81-1.63-2.12-3.96002-2.75-5.53003-.09998-.25-.19-.42999-.13-.70996,14.54999,1.79999,29.10999-3.35004,39.35999-13.67999l-.22998,32.53998c-.38.52002-.77997,1.06-1.21002,1.53998-.98999,1.09003-2.83997,2.54004-4.07996,3.36005-3.88,2.54999-8.06,3.82001-12.72003,3.83997-2.15997.01001-3.90997-.14996-6-.71997-.57001-.16003-1.47998-.23999-1.91998-.61005l-.00002-.00002ZM75.89008,51.64526c2.89996,5.64996,5.82001,11.34998,8.64001,17.03998.50995,1.03003,1.02997,2.07001,1.56,3.10004.02997.16998-.49005,2.10999-.60004,2.41998-1.97998,5.47998-7.17999,11.39001-12.71997,13.44-.98004.35999-4.07001,1.14001-5.04004,1.20001-1.01001.06-.96997-.15002-1.67999-.48004-1.20001-.54999-2.45001-1.27997-3.59998-1.91998-3.91003-2.19-9.07001-5.10999-12.48004-7.91998-1.18994-.98004-3-2.66003-3.95996-3.84003-.17999-.21002-.85999-1.01001-.72998-1.20001,12.64996-4.85999,22.53998-14.81,27.60999-27.35999,1.01996,1.82001,2.04999,3.66998,3.00001,5.52002ZM87.89008,119.91522c2.26001,2.57001,2.70001,2.64001,0,5.05005-8.14001,7.28998-20.96002,9.44-30.73004,4.32001-9.08997-4.76001-12.23999-11.81006-13.19-21.72003-.27997-2.85999-.29999-5.07001,0-7.91998.11005-1.02002.15002-1.96002.24005-3.12,16.02997,3.13,32.77997,11,43.67999,23.38995v.00002ZM148.12005,181.48523c-2.26001-4.28998-4.17999-8.81-6.71997-12.95996.70996-2.67999,3.07996-4.75,4.31995-7.20001,1.75-1.25,3.67004-3.96002,5.64001-5.52002,1.31-1.02997,3.48999-2.52997,4.92004-3.35999,2.21997-1.28003,4.71997-2.21002,7.12994-3.06l.55005.17999c4.32996,2.31,8.65997,4.60999,12.95996,6.96002,2.60004,1.41998,5.92999,2.94995,8.33002,4.5.23999.14996.42999-.02002.31.53998-12.54999,4.09003-23.62,13.60999-29.23999,25.59003-.60004,1.27997-.96002,2.63-1.47998,3.92999-.13.34998-.29004.73999-.48004,1.20001-.45001.09998-.51001-.17004-.71997-.48004-1.73004-2.57001-3.98999-7.41998-5.52002-10.32001ZM116.92005,19.61523v-.01996c.02002-.13.03003-.23004.04004-.27002,0-.01001,0-.02002.00995-.02002.05005-.03998.53003-.01996,1.37006.06h.00995c.45001.04004,1,.10004,1.63.17004.02002,0,.04004,0,.06.00995,6.74005.81,22.95,3.38,32.02001,6.92004.34003.13.69.26996,1.03003.41998,2.06995.88,8.71997,3.79999,9.66998,5.32001l-4.32001,8.64001-.48999.56995c-.35004.19-.75.25-1.13.33002-13.47003,2.69-28.17999-3.40997-37.72998-12.65997-.07001-.07001-.15002-.14001-.23004-.22003-.54999-.51001-1.45001-1.33997-1.73999-1.94v-.01001c-.02002-.04999-.03998-.09998-.04999-.13995-.01001-.04004-.02002-.08002-.03003-.12-.02997-.12-.04999-.23004-.07996-.36005-.32001-1.78998-.16003-5.57996-.04004-6.67999h.00002ZM114.94007,125.98523c-3.03003-.62-3.01001-5.27997,0-5.88995,4.70001-.95001,5,6.91998,0,5.88995ZM114.16004,100.12524c-2.19995,2.77002-5.69,4.03998-9.19995,3.56-1.87-4.37-4.35004-8.46002-6.51001-12.67999-2.40002-4.67999-4.91003-9.44-7.20001-14.15997-.52002-1.06-1-2.26001-1.44-3.36005.63.15002,1.28998.15002,1.91998.23999,8.02002,1.12006,14.67004-.45996,20.88-5.75995.60999-.52002.91003-.89001,1.44-1.44.39001.25.23004.90997.23999,1.32001.13,10.75,0,21.52997-.13,32.27997ZM69.09008,31.61523c11.94995-6.45001,36.34998-11.04999,43.31-12.13h.01996c.08002-.01001.16003-.01996.23999-.03998.08002-.01001.16003-.03003.24005-.03998.73999-.10004,1.20996-.16003,1.34998-.16003.01001-.01001.03003,0,.03998,0l-.00995,7.54999c-.08002.44-1.5,1.86005-1.91003,2.29004-6.73999,7.04999-17.34998,11.94-27.02997,12.92999-3.99005.28998-7.96002.19-11.92004-.45001-.07001-.02997-.76001-1.20001-.88995-1.44-1.44-2.65997-2.39001-5.63-4.08002-8.15997.20996-.12.41998-.24005.64001-.35004h0ZM66.05005,33.16522c.39001.15002.56.45001.77002.79004,1.25,2.10999,2.81,5.33997,3.78998,7.60999.17004.40002.42004.77002.60004,1.17999-3.79004,13.15002-14.35004,24.16998-27.33002,28.54004l-1.59003-2.36005c.01001-.88995-.88-2.52997-1.32001-3.35999-.63995.01001-4.68994,6.67999-4.67999,7.91998-.20996.15002-3.94995-2.32001-4.39996-2.67999-.34003-.26996-.65002-.40997-.64001-.91998,8.04999-14.91998,20.28998-27.92999,34.79999-36.72003ZM29.81006,72.52527l5.03998,3,.24005.45996c-3.30005,8.79004-5.08002,18.11005-5.28003,27.5-.03998,2-.14001,4.09003,0,6.12.22998,3.10004,1,6.17004,1.44,9.24005-1.35999.00995-2.71997-.01001-4.08002,0-1.01001.00995-6.82001.16998-7.08997-.22003-.63-15.84998,2.77997-31.90002,9.72999-46.09998ZM30.89008,159.41522c-6.10004-11.87-9.82001-24.79999-10.67999-38.16998h11.75995c1.01001,2.92999,2.07001,5.84003,3.56006,8.56,2.16998,3.96002,3.62,5.35999,4.76996,10.10999,1.51001,6.21002,1.67999,12.49005.54999,18.77002-.16998.94-.32996,1.89001-.54999,2.81l-6.40997,3.42999c-1.04004-1.72998-2.08002-3.70996-3.00001-5.51001ZM73.01007,200.68524c-15.09003-7.51001-28.44-19.52002-37.67999-33.59998l6.88995-4.04004c.23004-.06,1.47003.12,1.75.20001,12.62006,3.57001,24.96002,14.98999,29.76001,27.12.67999,1.73999,1.29004,3.54999,1.67004,5.39001l-2.39001,4.92999ZM156.04004,201.87524c-25.41998,11.72998-55.20996,11.73999-80.63.01001.34003-1,1.61005-4.35999,2.22003-4.97998.57001-.56,4.42999-1.64001,5.46002-1.98004,20.25995-6.70996,44.22998-6.83997,64.54998-.23999,1.23999.40002,5.07996,1.48999,5.89001,2.15002.22998.19,2.03998,3.57001,2.26996,4.08997.07001.15002.29004.87.23999.95001ZM167.06006,195.74524c-1.15997.72998-7.91998,4.85999-8.70001,4.66998-.23999-.06995-.27997-.28998-.39996-.44995-.25-.37-2.12-3.95001-2.13-4.19-.06-1.09003,1.62-5.15002,2.13-6.37,4.75-11.35004,16.07001-21.88,27.83997-25.68005.48004-.15997,2.78003-.68994,3.13-.60999.72003.15002,5.62,2.92004,6.47003,3.48999.16998.11005.38.16003.44995.39001-7.14996,11.45001-17.35999,21.5-28.78998,28.75ZM200.81006,158.69525c-.40002.77997-3.25,6.08002-3.59998,6.15997-.15002.03003-.44-.16998-.61005-.16998l-5.52997-3.22998c-.64001-1.5-.73999-3.12-.95001-4.69-.81-6-.53998-11.51001.97998-17.38,1.32001-5.09003,3.91003-7.54999,5.95001-12.04999.88-1.96002,1.58002-4.03003,2.19-6.09003h11.76001c-.79999,12.95001-4.32001,25.91003-10.19,37.45001ZM211.25006,118.01526c-.03003.27002.01001.53998-.22998.72998-.35004.22998-7.10004.10999-8.17999.10004-.96002-.01001-1.92004.00995-2.88,0,.35999-2.24005.95996-4.46002,1.19995-6.72003.78003-7.39001.11005-16-1.31-23.28998-.84998-4.37-2.19995-8.64001-3.64996-12.84003l4.47998-3.22998c.28998-.19.47998-.28003.65002-.42999l.19.42999c4.21997,8.91998,7.31,18.42999,8.71997,28.23999.66998,4.66998,1.56,12.45001,1.01001,17.01001Z"/><path class="cls-1" d="M228.9458,99.05969C222.02453,48.50226,181.50837,7.97546,130.9403,1.05414l-10.30737-1.05414h-11.24445C51.29224,2.69403,3.68445,49.88647.01081,107.84436c-.01062.18103-.01062,1.62915-.01062,3.53516-.01068,6.90002.43652,13.79999,1.30969,20.64673l.31946,2.43848c8.12451,48.53418,47.32031,86.85681,95.9184,94.21472l7.07037.92639c.76666.09583,1.54401.17035,2.32129.20233l7.08105.35138c.58563.02124,1.18195.02124,1.76758,0l3.9505-.12775c.59625-.0213,1.18188-.06396,1.76752-.12787l10.95696-1.22449c49.92908-7.51758,89.62543-47.69305,96.48279-97.73932l1.0542-10.06244v-11.50006l-1.0542-10.31793ZM223.00006,120.52527l-.98999,9.44995c-6.44,47-43.72003,84.73004-90.60999,91.79004l-10.29004,1.14996c-.54999.06-1.09998.10004-1.65997.12006l-3.71002.12c-.54999.01996-1.10999.01996-1.65997,0l-6.65002-.33002c-.72998-.03003-1.46002-.10004-2.17999-.19l-6.64001-.87c-45.64001-6.91003-82.45001-42.90002-90.07996-88.47998l-.30005-2.29004c-.82001-6.42999-1.23999-12.90997-1.22998-19.39001,0-1.78998,0-3.14996.01001-3.31995C10.46009,53.85522,55.17005,9.53528,109.73005,7.00525h10.56l9.67999.98999c47.49005,6.5,85.54004,44.56,92.04004,92.04004l.98999,9.68994v10.80005ZM187.24006,107.80524c-.89001,21.60999-23.19,30.83002-40.67999,19.45001-.94-.60999-4.83002-3.56-4.91998-4.46002-.09003-.79999,2.76996-3.91998,3.47998-4.66998,10.63-11.23999,27.07001-18.70001,42.12-21.59998.01001.88.06,9.98999,0,11.27997ZM87.89008,119.91522c-10.90002-12.38995-27.65002-20.25995-43.67999-23.38995-.09003,1.15997-.13,2.09998-.24005,3.12-.29999,2.84998-.27997,5.06,0,7.91998.95001,9.90997,4.10004,16.96002,13.19,21.72002,9.77002,5.12,22.59003,2.96997,30.73004-4.32001,2.70001-2.41003,2.26001-2.48004,0-5.05005Z"/><path class="cls-2" d="M155.80359,200.92523c.0686.1543.29059.8681.23492.94617-25.41504,11.73206-55.21118,11.74719-80.63068.01385.34161-1.00085,1.61249-4.35889,2.22485-4.9751.56525-.56885,4.4259-1.64435,5.45471-1.98492,20.26666-6.70911,44.23248-6.84314,64.55664-.23999,1.23138.40009,5.07721,1.48907,5.88831,2.15137.22552.18414,2.04169,3.57257,2.27124,4.08862ZM160.83886,45.28967c4.05737,11.77222,15.07574,22.28204,26.8634,26.01837-.00696-.4361.36554-.68219.49963-.94281.5708-1.10944.99847-2.50909,1.51251-3.64734.1358-.3006.39453-1.28851.76398-1.15051,1.27429.47614,3.90338,6.61487,4.81836,7.91541,1.31317-.92975,2.92657-1.65509,4.18457-2.63751.22681-.17719.74719-.45752.69812-.79968-8.18091-15.08838-20.22992-28.25043-35.11493-36.86017-.24194.06842-.27136.29791-.38141.45984-1.64001,2.41315-2.56317,5.96002-4.31976,8.39996-.48761,1.09442.11066,2.18567.47552,3.24445ZM31.88788,70.80731c.45056.35608,4.19318,2.83221,4.39905,2.67749-.00641-1.23932,4.04236-7.90662,4.68274-7.91479.43903.8244,1.33301,2.461,1.31989,3.35522l1.59045,2.35583c12.98145-4.3645,23.5376-15.38477,27.32721-28.53882-.17572-.40411-.42511-.77338-.59912-1.177-.97827-2.2688-2.54083-5.50055-3.79272-7.60815-.20166-.33942-.37878-.63831-.76703-.79187-14.5094,8.79156-26.75031,21.79547-34.79816,36.72004-.00659.51367.29932.6546.63769.92206ZM117.4054,27.52557c.41321.59631,1.16663,1.06287,1.68011,1.55969,9.55804,9.24615,24.26691,15.35095,37.7334,12.6554.38275-.07666.77667-.13763,1.12805-.3205l.49652-.57489,4.31976-8.64001c-.95715-1.52258-7.60449-4.44037-9.67731-5.3222-11.14825-4.74268-22.02344-6.86511-34.1178-7.40039-.50897-.02252-1.64026-.4873-1.99652-.17627-.10681.0932-.02283.4035-.04596.41882.30115,2.02277-.61273,6.22369.47974,7.80035ZM73.42426,41.56415c3.96027.63739,7.92407.74432,11.91211.45013,9.68842-.99207,20.29419-5.87866,27.02954-12.92902.41492-.43433,1.83234-1.85474,1.91455-2.28534l.00531-7.55469c-.53674-.15094-1.4101.23755-2.03058.24988-15.81201.31458-30.23035,4.77179-43.80701,12.47015,1.6933,2.53033,2.64685,5.5047,4.07977,8.15997.12842.23785.8172,1.40851.8963,1.4389v.00002ZM195.40149,166.60522c-.84888-.57489-5.75037-3.33691-6.474-3.49274-.34979-.07526-2.64502.45764-3.12549.61273-11.76794,3.79999-23.0899,14.32605-27.8385,25.68005-.50934,1.21771-2.19751,5.27576-2.1377,6.37201.01282.23474,1.88025,3.82214,2.1377,4.18799.11493.16327.16022.38086.401.44861.77094.19031,7.53931-3.9339,8.69818-4.66895,11.42706-7.24756,21.64001-17.29956,28.78339-28.7511-.06647-.22913-.27722-.27527-.44458-.38861ZM43.96949,163.24524c-.27814-.07861-1.52344-.26294-1.74585-.2049l-6.89368,4.04492c9.24365,14.07581,22.59027,26.08545,37.67797,33.59998l2.39032-4.93237c-.383-1.83722-.98352-3.65045-1.67035-5.38763-4.7959-12.13037-17.14026-23.55414-29.75842-27.12ZM40.84967,158.68524c1.13037-6.28229.95941-12.55804-.5498-18.77014-1.15356-4.74823-2.59485-6.14844-4.77106-10.10876-1.49341-2.71783-2.55334-5.63416-3.55872-8.5611h-11.75934c.86029,13.3714,4.57898,26.29529,10.67432,38.16516.92493,1.80127,1.96198,3.78967,3.00494,5.51483l6.41449-3.42505c.21924-.92804.37628-1.87634.54517-2.81494ZM197.04725,127.33105c-2.03693,4.50874-4.62866,6.95995-5.94745,12.05225-1.51996,5.86914-1.78699,11.38336-.97803,17.38196.21112,1.56543.30682,3.18805.94696,4.69299l5.53271,3.22699c.17157-.00195.45831.20166.60632.16803.3493-.07935,3.19861-5.37659,3.59863-6.16284,5.86975-11.5351,9.39764-24.49261,10.19427-37.44519h-11.75934c-.6145,2.0592-1.30865,4.12592-2.19409,6.08582v-.00002ZM210.24084,101.00513c-1.41461-9.81036-4.50537-19.31775-8.72565-28.23853l-.23145-.23297c-.1684.14978-.37805.23132-.60254.23163l-4.48492,3.23334c1.45636,4.19727,2.80127,8.46271,3.65375,12.83789,1.4198,7.28662,2.08751,15.89685,1.31116,23.28876-.23761,2.26233-.83978,4.47852-1.19897,6.71869.95685.01044,1.922-.00946,2.87891.00134,1.07971.01215,7.83173.13409,8.1748-.1048.24774-.18805.20459-.45966.23639-.72363.5495-4.56067-.33771-12.33923-1.01147-17.01172ZM27.17035,118.84528c1.35718-.00922,2.72302.00787,4.0802-.00116-.4408-3.07019-1.21338-6.13629-1.43805-9.24115-.14648-2.02448-.0448-4.11725-.00226-6.11774.19983-9.39374,1.97675-18.70581,5.27502-27.49536l-.23077-.46429-5.04425-3.00031c-6.948,14.19653-10.35681,30.25488-9.73474,46.09521.27527.39539,6.08057.23163,7.09485.2248ZM117.0326,62.69818c.43536.69006,1.02441,1.31451,1.57294,1.90704,1.10333,1.19177,2.95245,2.71503,4.31982,3.60004,3.17609,2.05573,7.25482,3.38531,11.03937,3.59998,2.23401.12671,4.07104-.05469,6.23969-.47998,1.04083-.2041,2.05841-.43042,3.05896-.78082.2724-.85474.8584-1.57269,1.2608-2.33917,2.95142-5.6217,5.4353-11.54156,8.63959-17.04004l3.35864-6.95868c-14.63397,1.78656-29.14783-3.31543-39.47791-13.68011-.22278,3.42572-.11108,6.88489-.11884,10.31885-.0141,6.22205-.16022,12.50287,0,18.71997.02679,1.04022-.10999,2.10272.10693,3.13293h.00002ZM96.04676,71.80524c4.65918-.01727,8.84821-1.28571,12.7193-3.83997,1.24457-.82117,3.0968-2.26508,4.07983-3.36005.43024-.47925.83069-1.02246,1.21844-1.54144l.22144-32.53851c-10.24713,10.33282-24.8045,15.47662-39.35669,13.68121-.05823.28217.03168.46112.13043.70709.63177,1.57422,1.93683,3.89673,2.74817,5.53168,2.81506,5.67224,5.703,11.43298,8.63959,17.03998.2608.49805,1.47076,2.81305,1.68604,2.99365.4364.36603,1.34302.45013,1.91376.60638,2.09375.57312,3.8382.72803,5.99969.71998ZM163.96319,88.84528c1.05682.00757,2.8396-1.37482,3.83978-1.92004,3.96368-2.16064,8.9118-4.75739,12.47931-7.44,1.41626-1.06494,3.38989-2.86377,4.5661-4.19366.20001-.22607,1.42047-1.6745,1.31769-1.80804-12.46155-4.7464-22.94513-14.74097-27.48602-27.35773-.5603-.12103-.38385.07568-.53442.30865-1.00867,1.56085-2.14575,4.16492-3.06201,5.93079-2.81592,5.42706-6.08136,11.32062-8.63953,16.79999-.229.49054-1.17407,2.47168-1.19354,2.77521-.0354.55139.90656,3.04706,1.19354,3.70483,1.93719,4.44006,6.159,9.19495,10.55945,11.27997,1.13538.53802,3.82489,1.45093,5.03973,1.67999.3407.06427,1.62372.23792,1.91992.24005v-.00002ZM45.28327,73.48303c-.13666.19495.55048.99585.72266,1.20575.96667,1.17871,2.76935,2.85187,3.96326,3.83649,3.40979,2.81189,8.56927,5.73413,12.47931,7.91998,1.15314.64465,2.40442,1.37164,3.59985,1.91998.70898.32526.67401.5415,1.67987.48004.97052-.05939,4.06622-.83948,5.03973-1.20001,5.54633-2.0542,10.73773-7.96143,12.71936-13.44.11188-.30933.62781-2.2514.59863-2.42297-.52399-1.02917-1.04639-2.06378-1.55859-3.09705-2.8208-5.69025-5.73376-11.39056-8.63953-17.03998-.9505-1.84796-1.97748-3.70148-2.99982-5.5152-5.06909,12.5437-14.95557,22.4906-27.60474,27.35298ZM154.36084,192.28485c-.04486-.4892.34491-.84991.48279-1.19958.51208-1.29852.87256-2.64508,1.47382-3.92615,5.62524-11.98608,16.69165-21.50537,29.24402-25.59723.12122-.56049-.07605-.38397-.30865-.53442-2.40424-1.55554-5.73358-3.08325-8.33032-4.5022-4.29938-2.34937-8.63733-4.65192-12.95929-6.96002l-.55151-.17517c-2.41345.84595-4.90955,1.77112-7.12811,3.05518-1.43323.82953-3.61414,2.32941-4.92059,3.35913-1.97589,1.55725-3.89246,4.27026-5.63885,5.52087-1.23907,2.45172-3.61517,4.52222-4.31976,7.20001,2.5368,4.15302,4.45819,8.67157,6.71967,12.95996,1.53009,2.90155,3.78772,7.75159,5.51971,10.32001.20776.30817.26758.57745.7171.47961ZM77.32776,192.28528c1.78296-3.46442,3.71161-6.87067,5.51965-10.32001,2.37994-4.54022,4.63824-9.15332,7.08527-13.66113.10565-.55566-2.48492-4.34613-3.00543-5.0589-.65961-.9032-1.42413-1.79633-2.15991-2.64001-2.63312-3.01923-5.91986-5.84528-9.3595-7.91998-.68195-.41132-1.76257-1.13605-2.3999-1.44-1.56128-.74457-3.57141-1.21918-5.20203-1.86163-.5351-.02435-.85645.46338-1.27759.66162-4.2879,2.01862-8.76727,4.66669-12.95935,6.96002-2.65564,1.45282-5.45959,2.84631-7.91931,4.55743,12.73987,3.99194,24.07214,13.79242,29.56055,26.00018.56647,1.26007,1.30261,2.92639,1.63757,4.24237.0498.1958-.03516.49347.00177.71899.23108.09045.45148-.23895.47821-.23895ZM52.36902,155.08527c4.30292-2.32568,8.48535-4.96918,12.95935-6.96002l1.19873-.95758c-.67664-.05182-1.38342.06689-2.05786.00732-.30896-.02728-.54297-.24683-.58081-.24976-6.9162-.53052-13.44513-1.67908-18.95898-6.23999l-2.15857-1.43884c1.49146,6.763,1.65289,13.81165.48108,20.63885,2.99115-1.67761,6.10223-3.17053,9.11706-4.79999ZM184.60212,141.88525c-5.14569,3.94708-11.08563,4.4082-17.27911,5.03998-.50043.05109-1.31537.46844-2.05627.23474l-.34363.2453,13.19934,7.19995,9.83813,5.27887c-1.03442-6.83691-1.18304-13.93744.72119-20.63647l-4.07965,2.63763ZM82.66352,192.4613c6.62714-2.10095,13.42755-3.48444,20.3429-4.25604,5.70959-.63708,11.41406-.85309,17.17053-.73145l7.43832.58202c6.40279.30556,16.55643,3.38455,22.90862,5.18942.35474.10083.82275.14423,1.19849.23901.07758-.07941-.15674-.77997-.23853-.95898-1.4267-3.12341-3.63202-6.91583-5.27972-10.08002-2.09235-4.01807-4.43359-8.90875-6.71967-12.72003-1.10303-1.83893-1.86346-2.26068-3.83978-3.12-2.38727-1.03796-6.30688-2.13782-8.87952-2.63995-7.40588-1.44568-15.435-1.31104-22.79883.23999-3.10699.65442-6.23663,1.53528-9.11951,2.88-.72943.34021-1.4942.698-2.17334,1.12939-2.49792,5.05219-5.29553,9.96167-7.90613,14.95056-1.75635,3.35657-3.25842,6.86334-5.27972,10.08002.29034.12067.58081.17847.71997.23999.63916-.55896,1.65057-.76862,2.45593-1.02393l-.00003-.00002ZM126.40838,103.48853c2.14789-4.66943,4.73596-9.12006,7.07642-13.68329,2.07867-4.05292,4.22437-8.16266,6.23962-12.23999.65991-1.33502,1.15027-2.78998,1.91986-4.07764-1.28375.354-2.54193.36237-3.83972.47766-7.0307.62439-13.27576-1.15619-18.71906-5.76001-.73889-.625-1.39575-1.32605-2.15747-1.91992-.00842,1.2774.00311,2.5625-.00238,3.8399-.01929,4.47601-.01074,8.96393,0,13.44.01312,5.46039-.05109,10.92944.04907,16.39093,2.17468,2.72968,6.00977,4.49963,9.43365,3.53235h.00002ZM158.44349,89.80524c-.32965-.12134-.80975-.10828-1.26294-.29346-6.11816-2.49976-11.2265-8.13318-13.37921-14.34595-.81866.94092-1.58044,2.2572-2.15698,3.35944-2.19202,4.19061-4.34216,8.50146-6.47968,12.71997-2.14166,4.22681-4.03894,8.58972-6.38007,12.72119-.2276.92334.85889,2.1615,1.4574,2.88177.63177.76038,4.02325,3.8548,4.80884,3.83307,2.46637-2.15955,4.80414-4.53467,7.31348-6.716,2.5451-2.21252,4.93579-4.04834,7.67957-6,1.68005-1.19501,3.31476-2.24341,5.03973-3.36005,1.51111-.97815,3.04132-1.91638,4.55975-2.88.4765-.30237.91876-.60846,1.43878-.83881-.05951-.13171-2.21887-.92657-2.63867-1.08118ZM114.04577,66.52527c-.52466.547-.82959.91803-1.43988,1.44-6.20087,5.30298-12.85883,6.87769-20.87891,5.75995-.62653-.08728-1.29083-.08887-1.91864-.23877.44354,1.10358.92151,2.29388,1.43866,3.35883,2.29419,4.72455,4.79999,9.47845,7.19958,14.15997,2.16278,4.21936,4.64038,8.30737,6.51788,12.68073,3.50604.47656,6.99695-.78674,9.1969-3.56512.12415-10.75049.26147-21.52612.1286-32.27905-.00507-.40582.15381-1.06677-.2442-1.31653v-.00003ZM89.32708,78.04523c-.51154-.96423-1.08478-1.8974-1.55878-2.87885-.26874.12646-1.63702,3.36365-1.99988,4-3.11829,5.46899-8.54156,9.79767-14.68036,11.35889-.26855.2804-.39526-.23981-.47998.47998,1.53149.94885,3.03455,1.92462,4.55975,2.88,1.77277,1.11047,3.55554,2.1698,5.27972,3.35999,2.58746,1.78613,5.03497,3.74518,7.43958,5.76001,2.90222,2.4317,5.66571,4.95728,8.32886,7.65448,1.1095.28345,6.1911-4.78796,6.50616-6.29285-2.13892-4.01648-4.14142-8.104-6.19543-12.16162-2.3844-4.71021-4.72687-9.4989-7.19965-14.16003ZM139.48443,164.92523l.59729.479c.51562-.58551.86353-1.29651,1.32263-1.91901,1.08301-1.46838,2.15735-2.94525,3.3598-4.32001,2.92438-3.3432,5.62134-5.56769,9.3595-7.91998,1.95374-1.22937,2.93579-1.71289,5.03979-2.64001.21466-.0946,1.43121-.75861,1.43567-.84174l-.47577-.35822c-.48877-.21655-.94897-.50952-1.43988-.72003-1.18896-.50977-2.38141-.78088-3.59985-1.20001-1.86963-.64313-3.21472-1.10138-5.03973-1.91998-2.25537-1.01166-3.68402-1.8194-5.7597-3.12-2.88696-1.80902-4.81378-3.60742-7.43958-5.52002-.91187-.66418-.76007-.97253-1.90179-.3399-1.77679.98462-5.05505,4.55762-6.01782,6.3399-.28088.52002-.75348,1.8573-.61914,2.39935l6.37885,12.24066c.7926,1.52081,1.60895,3.03644,2.3999,4.56.82068,1.58087,1.69177,3.16345,2.39984,4.79999ZM103.01403,142.96606c-.04828-.36121-.11884-.74237-.24762-1.08081-.78619-2.06531-3.66278-5.33173-5.44061-6.67926-2.10126-1.59265-1.91174-.96301-3.67896.43927-2.70532,2.14667-4.47491,3.49664-7.43958,5.27997-2.28564,1.37488-3.45599,2.09076-5.99969,3.12-1.73688.70282-3.32996,1.10278-5.03973,1.67999-1.05432.35596-2.14221.64429-3.11981,1.20001-.43311.24622-.89233.39746-1.19513.84003.00067.08313,1.21021.73584,1.43512.83997.75317.34875,1.35706.53491,2.15985.96002,5.61615,2.97406,9.55463,6.25452,13.43927,11.28003.56793.73462,1.16888,1.36163,1.67993,2.15997.34167.53375.64844,1.12579.95996,1.67999.37433.18652.31964.42133.95996.72003.62433-1.70184,1.83887-3.27332,2.63983-4.80005.75623-1.44128,1.22437-3.38898,2.3999-4.56,0,0,6.4873-13.07916,6.4873-13.07916ZM131.0849,162.76526c1.867.52112,3.69629,1.02161,5.51965,1.67755-.61084-.94318-.94904-2.15594-1.43988-3.11755-.76892-1.50653-1.61432-3.0531-2.39984-4.56-2.17102-4.16479-4.62665-8.2027-6.60126-12.47845-.48853-.45978-2.69366-.59802-3.47821-.72156-5.08124-.80011-10.30835-.70935-15.35919.23999-.50732.09534-1.84576.01813-2.18134.39484-1.99487,4.38977-4.45947,8.54688-6.69824,12.80518-.79663,1.51538-1.5907,3.04474-2.39984,4.56-.50348.94281-.94147,1.93182-1.43988,2.87756,1.61597-.43408,3.18884-.97363,4.79968-1.43756,10.67059-3.07324,20.96985-3.22888,31.67834-.23999h.00002ZM115.60572,128.46802c-.71368-.00598-1.31787-.31201-1.99683-.22272l-6.76514,13.03754c1.9502.04126,3.92957-.50189,5.87219-.60754,3.97894-.21631,7.96167.20502,11.88928.72754l-6.51746-12.5589c-.54956-1.11163-1.52234-.36792-2.48206-.37592h.00002ZM129.1587,109.13159c-.50092-.5224-1.16498-1.36615-1.43799-2.04486-.34418-.07684-.38855.03345-.58618.24792-.39423.42786-1.74982,3.26447-2.17444,4.06549-.64966,1.22552-4.45514,8.54315-4.42743,9.22223.03198.78137.78571,1.94086.51056,2.98621l9.31934,5.0766-4.49701-6.1178,7.3938-9.84576c-1.1593-1.31018-2.82141-2.25586-4.10065-3.59003ZM101.93615,109.49493c-1.05737,1.04559-2.61426,2.25696-3.96814,2.87463l7.39038,9.99329-4.27185,6.08002,8.88397-4.6731.90045-3.16492-6.66797-13.51892c-.39917-.29126-1.91919,2.06519-2.26685,2.409v.00002ZM126.52808,140.20465c2.08131-2.62177,3.86504-5.43268,6.71191-7.31946l-12.9585-6.97247c-.4599.34119-.61316.79718-.37085,1.33612,0,0,6.61743,12.95581,6.61744,12.95581ZM98.21131,132.88519c2.42841,2.09912,4.95905,4.29529,6.23804,7.3194l7.09552-13.19702-.49438-1.17328s-12.83917,7.0509-12.83918,7.0509ZM124.8476,106.24762c-2.86713-.26764-5.71429-1.099-7.92194-3.00238v14.64001l1.56073.71552s6.36121-12.35315,6.36121-12.35315ZM114.28576,117.76526v-14.28003c-2.33734,1.67114-5.04419,2.59735-7.92194,2.76245l6.35712,12.32428,1.56482-.8067ZM114.94007,125.98932c5.00049,1.02734,4.70459-6.84393.00201-5.89062-3.013.61084-3.02832,5.26892-.00201,5.89062Z"/></g></svg>