<?xml version="1.0" encoding="UTF-8"?><svg id="Layer_2" xmlns="http://www.w3.org/2000/svg" width="216" height="216" xmlns:xlink="http://www.w3.org/1999/xlink" viewBox="0 0 216 216"><defs><style>.cls-1{fill:#fff;}.cls-2{fill:url(#radial-gradient);}.cls-3{fill:#1f1e1e;}</style><radialGradient id="radial-gradient" cx="108.71355" cy="110.06654" fx="108.71355" fy="110.06654" r="95.72475" gradientTransform="translate(0 218) scale(1 -1)" gradientUnits="userSpaceOnUse"><stop offset=".51197" stop-color="#b6d1e1"/><stop offset=".59463" stop-color="#b2ccdc"/><stop offset=".68403" stop-color="#a8c0cf"/><stop offset=".77661" stop-color="#96acba"/><stop offset=".87071" stop-color="#7e909b"/><stop offset=".96292" stop-color="#616e77"/></radialGradient></defs><g id="Layer_1-2"><g id="Layer_1-3"><path class="cls-3" d="M179.28194,85.2c1.25993-.24891,2.59534-.33121,3.83817-.71916.5177,6.76323,1.22353,13.45265.17191,20.20944-.26492,1.70221-.98145,3.59661-1.13022,5.22972-2.86803,8.37566-9.45842,14.60584-17.75906,17.52-1.62804.57156-3.35762,1.0675-5.03973,1.44-.34071.07545-.85074-.07124-1.19994,0l-4.55975.24001c-1.73749-.31416-3.55206-.35408-5.27972-.72-1.92966-.4087-4.17126-1.16885-5.99968-1.92-2.40408-.98764-5.88145-2.95179-7.91959-4.56-1.59346-1.25734-5.27316-4.91674-5.04395-7.07384.05334-.50204,3.5789-4.71787,4.20065-5.4095,1.11234-1.23739,2.75398-2.97128,3.96313-4.07666,2.14276-1.95888,5.76768-4.85661,8.15958-6.48,1.46327-.99313,3.98709-2.49504,5.51971-3.36,1.48543-.83833,3.50459-1.89234,5.03973-2.64.76416-.37217,1.82848-.83651,2.63986-1.2.70132-.31419,1.45802-.66767,2.1599-.96,1.15067-.47926,2.64503-1.01014,3.8398-1.44,4.53574-1.63189,9.67191-3.14609,14.39925-4.08l-.00005-.00002ZM180.24188,100.8c.39738-.2491.23988-.91073.24416-1.31656.02101-1.9985.02477-4.00851,0-6.00688-.00504-.40611.15378-1.06717-.24416-1.31656-.01263-.87777.01027-1.76312-.00021-2.64086-15.05383,2.90479-31.48926,10.35877-42.12091,21.5975-.70837.74882-3.56761,3.87289-3.48329,4.6747.09445.89815,3.98326,3.84584,4.91978,4.45543,17.49118,11.38518,39.79248,2.16659,40.68463-19.44678v.00002Z"/><path class="cls-3" d="M36.96943,85.44c4.88602.9848,9.80681,2.07846,14.39924,4.08l3.59981,1.2,1.67991.72c.80756.77632,2.26895,1.02639,3.11984,1.44,1.54576.75139,3.54632,1.79364,5.03973,2.64,1.69098.95833,3.63171,2.24298,5.27972,3.36,2.66923,1.8092,5.51411,4.09092,7.91958,6.24,1.41892,1.26768,8.49873,8.36123,8.64376,9.72616.2292,2.15708-3.45038,5.81642-5.04395,7.07384-2.03654,1.60695-5.51721,3.57411-7.91958,4.56-1.51375.62121-4.20824,1.58566-5.7597,1.92-1.51794.3271-3.96156.62462-5.51971.72-1.05442.06454-2.29603.07368-3.35982,0-.61658-.04271-1.8023-.14774-2.39987-.24001-1.53177-.23651-3.55453-.91294-5.03973-1.44-8.64813-3.06901-15.37291-9.60302-17.99905-18.48-.49247-3.62311-1.54526-7.1847-1.45052-10.91021l.02839-5.01114.70453-8.55854c1.34299.33002,2.72366.68702,4.07743.95988v.00002ZM36.96943,92.64c-.30073,2.84872-.27563,5.0574,0,7.92.95449,9.91305,4.09965,16.96218,13.19441,21.7249,9.76509,5.11376,22.58612,2.96695,30.72609-4.32209,2.69565-2.41385,2.26363-2.48054.00352-5.04914-10.9068-12.39549-27.65741-20.26529-43.6839-23.39453.17079,1.09446-.13234,2.09997-.24011,3.12086h-.00001Z"/><path class="cls-1" d="M180.24188,100.8c-.89215,21.61337-23.19347,30.83195-40.68463,19.44678-.93652-.6096-4.82533-3.55728-4.91978-4.45543-.08432-.80181,2.77492-3.92588,3.48329-4.6747,10.63167-11.23874,27.06708-18.69271,42.12091-21.5975.01048.87774-.01241,1.76309.00021,2.64086.04051,2.81475.11552,5.84131,0,8.63999ZM180.48604,99.48344c.02101-1.9985.02477-4.00851,0-6.00688-.00504-.40611.15378-1.06717-.24416-1.31656.04051,2.81475.11552,5.84131,0,8.64.39738-.2491.23988-.91073.24416-1.31656Z"/><path class="cls-1" d="M36.96943,100.56v-7.92c.10777-1.02089.4109-2.0264.24011-3.12086,16.02649,3.12924,32.7771,10.99904,43.6839,23.39453,2.26011,2.5686,2.69212,2.63529-.00352,5.04914-8.13997,7.28904-20.96099,9.43585-30.72609,4.32209-9.09476-4.76272-12.23992-11.81184-13.19441-21.7249h.00002ZM36.96943,92.64c-.30073,2.84872-.27563,5.0574,0,7.92v-7.92Z"/><path d="M112.08547,216h-1.43992v-.24001c.38545-.06088,1.22853-.10999,1.43992.24001ZM105.60581,216h-.23999.23999ZM110.64555,215.75999c-.11276.01781-.212.1257-.23999.24001h.23999v-.24001ZM102.72596,0C48.17027,2.52581,3.45531,46.85318.01137,101.28c-.03501.55336.02429,1.12521,0,1.68.35306.16443.24122.64542.23999.96-.00104.26486.06571.60129-.23999.72v6.72c.30566.12028.23999.45446.23999.72s.06568.59972-.23999.72v1.68l1.51547,11.80445c7.62843,45.57501,44.44622,81.56662,90.07971,88.47554l11.11941,1.24001h7.6796c.02799-.1143.12723-.22218.23999-.24001.38545-.06088,1.22853-.10999,1.43992.24001h1.19994l11.11941-1.24001c46.88287-7.0556,84.16302-44.79298,90.60114-91.79409l.99403-9.44591v-10.8l-.99428-9.68567C208.50854,45.54899,170.46011,7.49277,122.97056.99433l-9.68516-.99433h-10.55944ZM105.25513,12.48986c.62047-.01234,1.49384-.40082,2.03059-.24986.081.02278.19796.41947.41844.46948.26088.05917,2.12892.07201,2.22142.01052.02313-.01538-.06083-.32565.04597-.41888.35623-.31099,1.48755.15375,1.99653.17628,12.09438.53528,22.96954,2.65774,34.11778,7.40042,2.07281.88182,8.72015,3.79962,9.67731,5.32218.06396.10176-.02016.34464.23665.59266.29031.28039,1.2494.67926,1.68324.84734.11002-.16189.13945-.39143.38136-.45984,14.88501,8.60977,26.93405,21.77182,35.11494,36.86018.04907.34214-.4713.62249-.69815.79966l.76762,1.87824c.12622.10149.28856.04195.4323.04176.22446-.0003.43411-.08184.60252-.23162l.23146.233c4.22025,8.92076,7.31099,18.42812,8.72562,28.23852.67375,4.67246,1.561,12.451,1.01146,17.01172-.0318.26394.01137.53556-.23634.72363-.34306.23887-7.09509.11693-8.17482.10475l-.23999,2.16c2.35641-.00644,4.72411-.02897,7.08307-.00417.40581.00427,1.0674-.15324,1.31648.24417-.79668,12.95254-4.32455,25.91013-10.19427,37.44521-.40009.78622-3.24934,6.0835-3.59865,6.16283-.14803.03362-.43475-.16995-.60632-.16803-.70386.00792-1.19736,1.26772-1.19994,1.92.16731.11333.37807.15942.44455.38857-7.14334,11.45155-17.35629,21.50357-28.78336,28.75114-1.15887.73502-7.92726,4.85921-8.6982,4.66896-.24075-.06776-.2861-.28535-.40102-.44865l-2.1599.96001c.06862.15427.29054.86807.23494.94617-25.41508,11.73203-55.21118,11.74718-80.63071.01384-.60856-.2809-1.69939-.85112-2.39987-1.2-15.0877-7.51453-28.43432-19.5242-37.67802-33.59999-.47358-.72115-.99027-1.41624-1.43992-2.16-1.04298-1.72514-2.08-3.71359-3.00497-5.51488-6.0953-11.86986-9.814-24.79375-10.67431-38.16513.24938-.39796.9104-.23914,1.31649-.24417,1.9591-.02427,3.92647.00191,5.88313.00417l-.23999-2.16c-1.01432.00687-6.81963.17063-7.09488-.22475-.62209-15.84035,2.78677-31.89868,9.73474-46.09525.44513-.90951.96347-1.75644,1.43992-2.64,8.0479-14.92453,20.28876-27.92846,34.79817-36.72.70554-.4275,1.64167-.77008,2.39987-1.2,13.57662-7.69837,27.99497-12.15557,43.807-12.47014l.00004-.00003ZM.25136,103.92H.01137v-.96c.35306.16443.24122.64542.23999.96ZM.25136,112.08H.01137v-.72c.30566.12028.23999.45446.23999.72ZM.01137,104.64v-.72h.23999c-.00104.26486.06571.60129-.23999.72ZM.01137,112.8v-.72h.23999c0,.26554.06568.59972-.23999.72ZM112.08547,22.08c9.55805,9.24618,24.26687,15.35095,37.73338,12.6554.38277-.07662.77667-.1376,1.12804-.32048l.49654-.57492,1.91991,1.2c-.48763,1.09441.11063,2.18562.47554,3.24441,4.05734,11.77222,15.07574,22.28207,26.86339,26.01837-.00696-.43607.36554-.68219.4996-.94278,7.69049,12.16266,11.93716,26.50812,12.4794,40.93078.01736.46169-.24651.96307.47992.82922-.23761,2.26235-.83981,4.47849-1.19901,6.71869.95688.01043,1.92201-.00948,2.87892.00131l-.23999,2.16c-1.05942.0029-2.45586-.2043-3.35982.24-.61449,2.05918-1.30865,4.12588-2.19409,6.08579-2.03693,4.50871-4.62863,6.95999-5.94743,12.05225-1.51997,5.86911-1.78697,11.38338-.978,17.38196l-4.31976,6.96001c-11.76794,3.79996-23.08989,14.32603-27.83853,25.68001l-3.11984,1.67999c.51205-1.29852.87256-2.64505,1.47379-3.92613,5.62523-11.98607,16.69167-21.50536,29.24402-25.59724.12123-.5605-.07607-.38396-.30865-.53444-2.40422-1.55551-5.7336-3.08324-8.33032-4.5022-.00471-.75565.56277-1.53355,1.19994-1.92l9.83817,5.27885c-1.03445-6.83691-1.18309-13.93742.72119-20.63647l-4.0797,2.63763c-.42709-.16011-.03928-.7507.06113-1.0174,3.28352-8.72279,3.67226-14.87177,4.49864-23.94261.14877-1.63311.8653-3.52751,1.13022-5.22972,1.05161-6.75678.34579-13.4462-.17191-20.20944-1.24283.38795-2.57822.47025-3.83817.71916-.62299.032-.6144-.34078-.79362-.76707-1.68324-4.00366-2.9245-8.19784-5.20605-11.95293,1.41626-1.06495,3.38986-2.86381,4.56609-4.19367.19998-.2261,1.42047-1.67451,1.31767-1.80808-12.46156-4.7464-22.94511-14.74096-27.48599-27.35769-.5603-.12107-.3839.07567-.53445.30862-1.0087,1.56084-2.14572,4.1649-3.062,5.93081l-1.91991-1.2,3.35866-6.9587c-14.63396,1.78658-29.14783-3.31542-39.47793-13.68011-.22276,3.42573-.11107,6.88486-.11882,10.31881l-2.39987-.24c-.00941-3.01236.17083-6.26449.00192-9.24186-.01637-.28862.13783-.83495-.24191-.83814-10.24715,10.33285-24.80453,15.47664-39.35672,13.68126-.05823.28216.03172.4611.13043.70705.6318,1.57425,1.93683,3.89677,2.74821,5.53169-.43294.59676-1.2061,1.06523-1.9199,1.2-.95049-1.84793-1.97748-3.70145-2.9998-5.51521-5.06909,12.54371-14.95559,22.4906-27.60474,27.35302-.13664.1949.55048.99581.72265,1.20574.96667,1.17866,2.76933,2.85186,3.96326,3.83645l-5.99968,13.92c-1.35377-.27286-2.73443-.62986-4.07743-.95988l-.70453,8.55854-.02839,5.01114c-.09473,3.7255.95805,7.2871,1.45052,10.91021,1.21948,8.97169,1.36481,14.7999,4.25957,23.70197.08957.27545.49149.85672.0602,1.01804l-2.15859-1.43883c1.4915,6.76297,1.65291,13.81161.48112,20.63881,2.99115-1.67757,6.10224-3.17052,9.11708-4.79997l1.19994,1.92c-2.65567,1.45282-5.45961,2.84631-7.91933,4.55742,12.7399,3.99194,24.07218,13.7924,29.56055,26.00021.5665,1.26006,1.30261,2.92635,1.63755,4.24236l-3.11984-1.44c-4.79592-12.13039-17.14027-23.55415-29.75843-27.12-.97786-1.50169-1.86827-3.29858-3.11984-4.56,1.13036-6.28227.95944-12.55804-.54979-18.77019-1.15357-4.74818-2.59485-6.14838-4.77102-10.10872-1.49343-2.71785-2.55336-5.63418-3.55872-8.5611-1.3617-.44362-3.10468-.23831-4.55976-.24l-.23999-2.16c1.35713-.0092,2.72303.00792,4.08016-.00112-.44077-3.07021-1.21336-6.13633-1.43801-9.24116-.14648-2.02446-.04484-4.11723-.00228-6.11772.7322-3.13419,1.15916-6.33411,1.9374-9.4625,2.13375-8.57728,5.77197-16.9102,10.4094-24.40147.13734-.21753.12898-.45147.13255-.69603l1.59043,2.35581c12.98146-4.36451,23.53758-15.38473,27.32722-28.53883-.17574-.4041-.42512-.77338-.59915-1.17699.52513-.62301,1.98959-.66603,1.9199-1.44.12836.23786.81719,1.40848.8963,1.4389,3.96021.63742,7.92406.74432,11.91207.45015,9.68845-.99211,20.29421-5.87867,27.02953-12.92905l3.49016-.00946c.98554.02226,2.2904.66398,3.22949.00946h-.00002ZM192.48125,63.84l.76762,1.87824c.12622.10149.28856.04195.4323.04176l-4.48497,3.23333c1.45639,4.19731,2.80132,8.46271,3.65379,12.83789,1.41975,7.28663,2.08751,15.89688,1.31116,23.28878-.72643.13385-.46255-.36753-.47992-.82922-.54224-14.42267-4.78891-28.76812-12.4794-40.93078.57079-1.10946.99852-2.50912,1.51254-3.64735.13576-.30061.39449-1.28854.76395-1.15049,1.27429.47612,3.9034,6.61486,4.81833,7.9154,1.31319-.92975,2.92662-1.6551,4.18459-2.63756h.00002ZM35.28951,61.92c-.00357.24456.00479.4785-.13255.69603-4.63743,7.49127-8.27565,15.82419-10.4094,24.40147-.77824,3.12839-1.2052,6.32831-1.9374,9.4625.19984-9.39376,1.97674-18.70583,5.27506-27.49536l-.23081-.46431-5.04425-3.00034c.44513-.90951.96347-1.75644,1.43992-2.64-.00658.51369.29936.6546.63775.92205.45054.35609,4.19318,2.83221,4.39899,2.67748-.00636-1.23932,4.04238-7.90661,4.68275-7.91478.43902.8244,1.333,2.46099,1.31994,3.35526ZM150.96342,182.39999c-.50931,1.21776-2.19749,5.2758-2.1377,6.37202.01282.23476,1.88026,3.82217,2.1377,4.18797l-2.1599.96001c-.22957-.5161-2.04573-3.90453-2.27124-4.08864-.81114-.66228-4.65695-1.7513-5.88834-2.15137.62497-.85396,1.92989-1.06854,2.87985-1.44.35475.1008.82272.1442,1.19849.23903.07759-.07945-.15677-.78001-.23854-.95903l2.1599-.72c.20778.30814.26762.57744.71715.4796-.04491-.4892.34489-.84991.48277-1.1996l3.11984-1.67999h.00002ZM69.84769,184.8c.04984.19582-.03516.49347.0018.71898.23108.09042.45144-.23894.47817-.23898.89324-.00183,1.54877.70601,2.15989.96001.29031.12067.58079.17845.71996.24001.9313.41187,2.20882.72061,2.87985,1.44-1.0288.34058-4.88949,1.41603-5.45474,1.98489-.61236.61626-1.88323,3.97426-2.22485,4.97511-.60856-.2809-1.69939-.85112-2.39987-1.2l2.39029-4.93237c-.38299-1.83725-.98352-3.6505-1.67033-5.38763l3.11984,1.44-.00002-.00002ZM189.60139,157.67999c-.70386.00792-1.19736,1.26772-1.19994,1.92-.84888-.57492-5.75038-3.33694-6.47404-3.49275-.34976-.0753-2.64497.4576-3.12544.61275l4.31976-6.96001c.21112,1.56544.30679,3.18806.94696,4.69299l5.5327,3.22701v.00002ZM107.28572,12.24c.081.02278.19796.41947.41844.46948.26088.05917,2.12892.07201,2.22142.01052.30116,2.02272-.61274,6.22368.47976,7.80032.41319.59629,1.16659,1.0629,1.68013,1.55968-.93909.65452-2.24395.0128-3.22949-.00946l-3.49016.00946c.41493-.43434,1.83233-1.85474,1.91456-2.28534,0,0,.00534-7.55466.00534-7.55466ZM36.96943,156.24001c-.27817-.07861-1.52342-.26294-1.74585-.20491l-6.8937,4.04491c-.47358-.72115-.99027-1.41624-1.43992-2.16l6.41447-3.42506c.21928-.92802.37628-1.87634.54516-2.81494,1.25157,1.26141,2.14198,3.0583,3.11984,4.56v.00002ZM65.52792,33.12c.06969.77397-1.39476.81699-1.9199,1.44-.97824-2.26879-2.54084-5.50053-3.79273-7.60814-.20163-.33945-.37876-.63835-.76703-.79186.70554-.4275,1.64167-.77008,2.39987-1.2,1.6933,2.53033,2.64686,5.50472,4.07979,8.16ZM157.68307,26.64c-1.64003,2.41317-2.56322,5.96006-4.31976,8.4l-1.91991-1.2,4.31976-8.64c.06396.10176-.02016.34464.23665.59266.29031.28039,1.2494.67926,1.68324.84734h.00002ZM195.60107,114c2.35641-.00644,4.72411-.02897,7.08307-.00417.40581.00427,1.0674-.15324,1.31648.24417h-11.75938c.90398-.4443,2.30042-.2371,3.35982-.24h.00002ZM20.4103,114c1.45508.00169,3.19806-.20362,4.55976.24h-11.75938c.24938-.39796.9104-.23914,1.31649-.24417,1.9591-.02427,3.92647.00191,5.88313.00417ZM177.60202,134.88c-5.14565,3.94711-11.08562,4.40822-17.27908,5.03999l-1.91869-.1188c2.59038-3.79543,4.51196-8.0183,5.99847-12.3612,8.30064-2.91416,14.89104-9.14434,17.75906-17.52-.82639,9.07085-1.21512,15.21983-4.49864,23.94261-.10039.26669-.48822.85727-.06113,1.0174ZM51.60865,127.44c1.29932,4.35101,3.54115,8.20763,5.76449,12.11571.49604.8719-.24218.20827-.48477.36429-6.9162-.5305-13.44516-1.67912-18.959-6.24001.43129-.1613.02937-.74258-.0602-1.01804-2.89476-8.90208-3.04009-14.73028-4.25957-23.70197,2.62615,8.87698,9.35092,15.41099,17.99905,18.48v.00002ZM55.44845,79.44l-4.07979,10.08c-4.59243-2.00154-9.51322-3.0952-14.39924-4.08l5.99968-13.92c3.40977,2.81192,8.56927,5.73415,12.47935,7.92ZM179.28194,85.2c-4.72734.93391-9.86351,2.44811-14.39925,4.08l-4.07979-9.36c3.9637-2.16065,8.91183-4.75743,12.47934-7.44,2.28156,3.75509,3.52283,7.94927,5.20605,11.95293.17921.42629.17062.79907.79362.76707h.00002ZM79.44719,60.48l-1.9199,1.2c-2.8208-5.69025-5.73375-11.39056-8.63955-17.04.7138-.13477,1.48696-.60324,1.9199-1.2,2.81506,5.67223,5.703,11.43298,8.63955,17.04ZM109.92558,33.84c-.01406,6.2221-.16022,12.50289,0,18.72l-2.4011.00124c-.01247-6.31686.02096-12.64444.00123-18.96124l2.39987.24ZM148.08357,45.36c-2.81592,5.42707-6.08134,11.3206-8.63956,16.8l-1.91991-.96c2.95139-5.62169,5.43527-11.54155,8.63956-17.04l1.91991,1.2ZM171.12236,147.60001c-.63716.38644-1.20465,1.16435-1.19994,1.92-4.29939-2.34937-8.63736-4.65189-12.95932-6.96001l.95995-2.16,13.19931,7.2v.00002ZM58.3283,141.12l1.19994,1.92c-4.28791,2.01862-8.76724,4.66669-12.95932,6.96001l-1.19994-1.92c4.30289-2.32564,8.48531-4.96918,12.95932-6.96001ZM107.52571,33.6c.01973,6.3168-.0137,12.64438-.00123,18.96124l2.4011-.00124c.02681,1.0402-.10996,2.10273.10697,3.13295.43532.69005,1.02439,1.31452,1.57294,1.90705-1.7182.40116-4.0415.40116-5.7597,0,.43026-.47926.83073-1.02249,1.21849-1.54149l.22143-32.53851c.37974.00318.22554.54951.24191.83814.16891,2.97738-.01133,6.2295-.00191,9.24185ZM96.00632,181.2c1.22717.33009,2.69879.58887,3.96269.71712,4.3567.44206,9.31166.57147,13.67407.24059,2.18834-.16599,4.79315-.8627,6.84196-.95769,6.4935-.30106,16.68661,3.23514,23.0388,5.03999-.94997.37146-2.25488.58604-2.87985,1.44-20.32417-6.60318-44.28998-6.46912-64.5566.24001-.67103-.71939-1.94855-1.02814-2.87985-1.44.63917-.55898,1.65057-.76865,2.45591-1.02396,6.62717-2.10095,13.42757-3.48444,20.34289-4.25604v-.00002ZM146.64365,184.8l-2.1599.72c-1.4267-3.12341-3.632-6.91582-5.27972-10.08l1.91991-.96001c1.53011,2.90154,3.78773,7.75156,5.51971,10.31999v.00002ZM77.76728,176.16c-1.75637,3.35652-3.25845,6.86333-5.27972,10.08-.61112-.25398-1.26665-.96182-2.15989-.96001,1.78298-3.46442,3.71162-6.87067,5.51971-10.32001.6295.39214,1.53814.53493,1.9199,1.2v.00002ZM133.20436,64.32l6.23967,4.32c1.93719,4.44009,6.15903,9.19496,10.55943,11.28-.4534.09082.13576.66106.24277.8376.40852.67397.83034,1.34642,1.19716,2.0424-.32965-.12137-.80972-.10829-1.26294-.29347-6.11813-2.49978-11.22649-8.13319-13.37918-14.34596-.81868.9409-1.58047,2.25723-2.157,3.35943l-1.91991-.96c.65987-1.33505,1.15022-2.79,1.91982-4.07763-1.28371.35401-2.54189.36237-3.83971.47763-.98099-1.06196-2.65085-1.37891-3.8398-2.16,2.23399.12671,4.07104-.05469,6.23967-.48l.00002.00002ZM115.92527,61.2c3.1761,2.05575,7.25485,3.38534,11.03942,3.6,1.18895.78109,2.85883,1.09804,3.8398,2.16-7.03069.62439-13.27576-1.15617-18.71901-5.76,1.27218-.2936,2.74198.63362,3.83979,0ZM111.6055,57.6c1.10331,1.19177,2.95243,2.71498,4.31977,3.6-1.09781.63362-2.56762-.2936-3.8398,0-.73892-.62497-1.39579-1.32604-2.15749-1.91994-.00844,1.27743.00309,2.5625-.0024,3.83994h-2.39987c-.01214-1.27654.00994-2.56224-.00125-3.8388-.4422-.12956-.36396.11915-.47872.2388-.52468.54701-.82963.91807-1.43992,1.44-1.24084-.14082-2.68333.70089-3.8398,0,1.24452-.82116,3.09678-2.26505,4.07979-3.36,1.7182.40116,4.0415.40116,5.7597,0ZM139.44403,62.16c-.229.4905-1.17409,2.47164-1.19356,2.77518-.03537.55137.90659,3.04707,1.19356,3.70482l-6.23967-4.32c1.0408-.20412,2.05841-.43044,3.05894-.78083.27242-.85474.85841-1.5727,1.26082-2.33917l1.91991.96ZM89.04668,64.8c-1.42665.62999-2.76419,1.63163-4.31977,1.92-.62652-.08731-1.29079-.08889-1.91865-.23878.44355,1.10355.92156,2.29386,1.43868,3.35878l-1.9199,1.2c-.51153-.96422-1.08479-1.8974-1.55877-2.87886-.26878.12647-1.63706,3.36363-1.9999,4-3.11829,5.46898-8.54157,9.79768-14.68037,11.35886.62956-.65735,1.17347-2.07117,1.67991-2.88,5.54628-2.05416,10.73768-7.9614,12.71933-13.44,1.34385-.75262,2.61351-1.63635,3.92791-2.44392.31295-.19228.76741-.08165.63185-.67608,2.09376.57316,3.8382.72803,5.99968.71999ZM105.60581,60.96c-6.20081,5.303-12.85883,6.87768-20.8789,5.76,1.55558-.28837,2.89312-1.29001,4.31977-1.92,4.65917-.0173,8.8482-1.28575,12.71933-3.84,1.15646.70089,2.59896-.14082,3.8398,0ZM83.047,64.08c.13556.59443-.3189.4838-.63185.67608-1.3144.80757-2.58406,1.6913-3.92791,2.44392.11188-.3093.62781-2.25139.59861-2.42294-.52399-1.0292-1.04634-2.06379-1.55856-3.09706l1.9199-1.2c.26084.49804,1.47079,2.81302,1.68608,2.99362.43636.36606,1.34298.45014,1.91374.60638v.00002ZM164.88269,89.28c-1.19476.42986-2.68913.96074-3.8398,1.44l-4.07979-8.88c1.05687.00758,2.83961-1.37479,3.8398-1.92,0,0,4.07979,9.36,4.07979,9.35999ZM155.04321,81.6c-.46468.24241-.18895.78463-.0544,1.13308,1.12048,2.90174,3.17358,5.77012,3.8942,8.94692-.81139.36349-1.8757.82783-2.63986,1.2l-3.59981-8.16c.47652-.30239.91878-.60849,1.43874-.83881-.05951-.13174-2.21886-.92662-2.63869-1.08119-.36684-.69598-.78864-1.36843-1.19716-2.0424-.10701-.17654-.69617-.74678-.24277-.8376,1.13539.53798,3.82487,1.45094,5.03973,1.68h.00002ZM156.9631,81.84l4.07979,8.88c-.70186.29233-1.45856.64581-2.1599.96-.72061-3.17681-2.77371-6.04519-3.8942-8.94692-.13455-.34844-.41026-.89067.0544-1.13308.34071.06424,1.62373.23787,1.91991.24001ZM59.04826,81.36l-4.07979,9.36-3.59981-1.2,4.07979-10.08c1.15313.64463,2.40441,1.37162,3.59981,1.92ZM65.76791,80.64c-.50645.80883-1.05036,2.22265-1.67991,2.88-.26855.28041-.39527-.23982-.47997.48-.14785,1.25643-.99686,2.28536-1.48228,3.43764-.75808,1.79952-1.28559,3.86668-2.35752,5.44236-.85089-.41361-2.31227-.66368-3.11984-1.44l4.07979-9.6c.97051-.05935,4.06619-.83943,5.03973-1.2ZM60.72817,81.84l-4.07979,9.6-1.67991-.72,4.07979-9.36c.70902.32526.674.54152,1.67991.48ZM164.40272,127.44c-1.48651,4.34291-3.4081,8.56578-5.99847,12.36121l1.91869.1188c-.50043.05106-1.31538.46841-2.05626.23476l-.34361.24525-.95995,2.16-.5515-.17517c-2.41341.84595-4.90956,1.7711-7.12808,3.05518l.96568-1.55421,1.91415-2.28578c.21469-.0946,1.43126-.75865,1.43571-.84175l-.47577-.35825c2.3298-3.68953,4.77003-7.37059,6.23967-11.52,1.68211-.3725,3.4117-.86842,5.03973-1.44v-.00003ZM141.12395,174.48l-1.91991.96001c-2.09236-4.01804-4.43358-8.90872-6.71965-12.72l.03236-.44231,1.88753-.75771c2.53677,4.15305,4.45819,8.67162,6.71965,12.96001h.00002ZM152.16336,141.60001l-1.91415,2.28578-.96568,1.55421c-1.43324.82954-3.61412,2.32944-4.92061,3.35913-1.97586,1.55727-3.89247,4.27025-5.63882,5.52087-1.09364.78317-3.02893,1.81532-4.31976,2.16,1.08299-1.4684,2.15733-2.94527,3.35982-4.32001,3.49451-2.03499,6.64891-4.90887,9.35951-7.92,1.9537-1.22939,2.93575-1.71291,5.03973-2.64h-.00003ZM138.72408,154.32001c-1.23911,2.45174-3.61517,4.52225-4.31976,7.2l-1.88753.75771-.03236.44231c-1.10303-1.83893-1.86349-2.2607-3.8398-3.12l3.8398-1.67999.59724.479c.51562-.58553.86354-1.29652,1.32265-1.91901,1.29083-.34468,3.22614-1.37682,4.31976-2.16v-.00002ZM56.64839,128.88c2.14358,5.6405,5.51008,10.74899,9.35951,15.36-1.56129-.74455-3.57146-1.21919-5.20202-1.86165-.5351-.02432-.85647.46338-1.27764.66165l-1.19994-1.92,1.19873-.95757c-.67662-.05186-1.3834.06685-2.05783.00729-.30898-.02728-.54301-.24683-.58082-.24973.24258-.15604.9808.50763.48477-.36429-2.22334-3.9081-4.46517-7.76469-5.76449-12.11571,1.4852.52706,3.50797,1.20349,5.03973,1.44v-.00002ZM83.52697,157.67999c.37431.18654.31967.42133.95995.72.72059.33614,1.87549.65646,2.70361,1.02831.35691.16026.78547.03346.65622.6517-.72943.34024-1.49423.69801-2.17336,1.12939-2.49789,5.05219-5.29554,9.96169-7.90611,14.95061-.38176-.66507-1.2904-.80788-1.9199-1.2,2.37991-4.54022,4.63821-9.15332,7.08523-13.66112.10564-.55565-2.48492-4.34608-3.00544-5.05888.13406-.4687.73632-.01324.96789.11256.88925.48315,1.73405.87997,2.63191,1.32742ZM59.04826,129.12c1.28165,3.92049,3.74775,7.37801,5.99968,10.8-.43309.24622-.89232.39742-1.1951.84003.00064.08315,1.21019.73586,1.43508.83998l3.11984,4.08c-.68193-.41133-1.76255-1.13606-2.39987-1.44-3.84942-4.61101-7.21593-9.7195-9.35951-15.36.59757.09227,1.78329.1973,2.39987.24001v-.00002ZM67.44782,142.56c3.6279,4.51459,8.3269,8.52094,13.43929,11.28.56789.73466,1.16888,1.36166,1.67991,2.16l-4.79975-2.39999c-2.63311-3.01926-5.91986-5.84529-9.35951-7.92l-3.11984-4.08c.75322.34874,1.35709.53487,2.15989.96001l.00002-.00002ZM82.56702,156c.34167.53375.64846,1.12578.95995,1.67999-.89787-.44746-1.74267-.84427-2.63192-1.32742-.23157-.12582-.83383-.58128-.96789-.11256-.6596-.90323-1.42411-1.79633-2.15989-2.64,0,0,4.79975,2.39999,4.79974,2.39999ZM107.2899,60.83656c.13291,10.75292-.00444,21.52857-.12858,32.27903-2.19993,2.77836-5.69087,4.04172-9.19692,3.56514-1.87747-4.37334-4.35511-8.46136-6.51784-12.68072l-1.9199,1.2c2.05404,4.05762,4.05656,8.14514,6.19543,12.16162-.31502,1.5049-5.39664,6.57629-6.50612,6.29285-2.66315-2.69716-5.42668-5.22275-8.32886-7.65447l-2.87985,9.12c1.41892,1.26768,8.49873,8.36123,8.64376,9.72616.2292,2.15708-3.45038,5.81642-5.04395,7.07384l5.03973,6.72c1.7672-1.40227,1.57766-2.03192,3.67892-.43924,1.77783,1.34753,4.65445,4.61394,5.4406,6.67924,1.25776.29398,2.54697.71642,3.75584,1.16313.43874.16212.83866.07008.80392.75687,5.05084-.94936,10.27798-1.04013,15.35919-.24001l6.23967-2.64c.96277-1.78232,4.24098-5.35533,6.01778-6.3399,1.14173-.63266.98994-.32428,1.9018.3399,1.45982-1.66845,2.49532-3.66033,3.76894-5.4495.24612-.34575.36983-.44079.79083-.5505-1.59346-1.25734-5.27316-4.91674-5.04395-7.07384.05334-.50204,3.5789-4.71787,4.20065-5.4095,1.11234-1.23739,2.75398-2.97128,3.96313-4.07666l-2.1599-8.4c-2.50932,2.18138-4.84708,4.55647-7.31345,6.71603-.78562.02173-4.17706-3.07269-4.80887-3.83308-.59849-.72028-1.68499-1.95844-1.45739-2.88177,2.34115-4.13147,4.2384-8.4944,6.38009-12.72118-.54925-.34841-1.70369-.78583-1.67991-1.44-2.3404,4.5632-4.9285,9.01383-7.07636,13.68325-3.42394.96732-7.25898-.80265-9.43368-3.53234-.10016-5.46149-.03598-10.93055-.04909-16.39091l-2.4011.00124c-.02943-4.47642.04381-8.96507.00123-13.44124-.01214-1.27654.00994-2.56224-.00125-3.8388-.4422-.12956-.36396.11915-.47872.2388.39802.24976.23914.91072.24416,1.31656h0ZM117.8475,99.24235l-6.36116,12.35316-1.56076-.71551v-14.64c2.20767,1.90339,5.05481,2.73471,7.92192,3.00235ZM105.72086,111.56673l-6.35712-12.32431c2.87779-.16508,5.5846-1.0913,7.92198-2.76242v14.28s-1.56487.80673-1.56487.80673ZM103.8709,113.5996l-.90045,3.1649-8.88394,4.67314,4.27183-6.08005-7.3904-9.99324c1.35388-.61773,2.9108-1.82909,3.96813-2.87465.34771-.34384,1.86772-2.70025,2.26689-2.40902,0,0,6.66794,13.51892,6.66794,13.51891ZM122.15861,102.12633c1.27924,1.33417,2.94134,2.27987,4.10068,3.59007l-7.39384,9.84577,4.49706,6.11776-9.31935-5.07659c.27515-1.04533-.47861-2.20481-.51054-2.98618-.02775-.67911,3.77777-7.99674,4.42742-9.22228.42459-.80097,1.7802-3.63763,2.17441-4.06543.19765-.2145.24205-.32482.58618-.24798.273.67875.9371,1.52247,1.43799,2.04487h-.00002ZM107.94001,118.98408c-3.02629-.62172-3.01097-5.2798.00199-5.89061,4.70258-.95334,4.9985,6.91792-.00199,5.89061ZM91.21121,125.87992l12.8392-7.05086.49438,1.17327-7.09552,13.19704c-1.279-3.02411-3.80963-5.22032-6.23806-7.31945ZM112.91057,120.24357c-.2423-.53894-.08903-.99492.37084-1.33609l12.95853,6.97245c-2.84688,1.8868-4.63065,4.69772-6.71195,7.3195,0,0-6.61742-12.95586-6.61742-12.95586ZM105.71587,133.67007c-1.9426.10561-3.92201.64877-5.87217.60751l6.76514-13.03752c.67891-.08928,1.2831.21674,1.9968.2227.9597.00802,1.93252-.73572,2.48208.37595l6.51744,12.55885c-3.9276-.52251-7.91032-.94379-11.88929-.72749ZM145.6837,98.88c-2.39189,1.62339-6.01682,4.52112-8.15958,6.48l-2.1599-8.4c2.54514-2.2125,4.93582-4.04834,7.6796-6l2.63986,7.92h.00002ZM142.32388,126.48l-5.03973,6.96c-2.88699-1.80901-4.81381-3.60741-7.43961-5.52,1.45982-1.66845,2.49532-3.66033,3.76894-5.4495.24612-.34575.36983-.44079.79083-.5505,2.03813,1.60821,5.5155,3.57236,7.91959,4.56h-.00002ZM148.32356,128.39999l-5.27972,8.16c-2.25542-1.01166-3.68405-1.8194-5.7597-3.12l5.03973-6.96c1.82841.75115,4.07002,1.5113,5.99968,1.92001l.00002-.00002ZM153.60329,129.12l-5.51971,9.36c-1.86966-.64314-3.21474-1.10139-5.03973-1.92l5.27972-8.16c1.72768.36592,3.54224.40584,5.27972.72ZM151.20341,95.52c-1.53262.86496-4.05644,2.36687-5.51971,3.36l-2.63986-7.92c1.68002-1.19501,3.31471-2.24339,5.03973-3.36,1.3131,2.51099,2.43958,5.15611,3.11984,7.92ZM156.24315,92.88c-1.53514.74766-3.55431,1.80167-5.03973,2.64-.68027-2.76389-1.80675-5.40901-3.11984-7.92,1.51111-.97815,3.04132-1.9164,4.55975-2.88l3.59981,8.16h.00002ZM158.16304,128.88c-.21188.04323-.57146.31665-.90469.28976-1.23277,3.38452-3.1638,6.41791-5.1116,9.4146-.2309.35522-.57674.54967-.46335,1.09566-1.18893-.50977-2.38139-.78088-3.59981-1.2l5.51971-9.36,4.55975-.24001-.00002-.00002ZM159.36298,128.88c-1.46964,4.14941-3.90987,7.83047-6.23967,11.52-.48878-.21651-.94897-.50951-1.43993-.72-.11339-.54601.23245-.74043.46335-1.09566,1.94781-2.99669,3.87885-6.03008,5.1116-9.4146.33324.02689.69281-.24654.90469-.28976.3492-.07124.85922.07545,1.19994,0l.00002.00002ZM73.4475,90.24c2.58746,1.78614,5.03497,3.74517,7.43961,5.76l-2.87985,9.12c-2.40548-2.14908-5.25035-4.4308-7.91958-6.24,0,0,3.35982-8.64,3.35982-8.64001ZM86.64681,128.64c-2.70536,2.14671-4.47493,3.49666-7.43961,5.28l-5.51971-7.44c2.40238-.98589,5.88304-2.95305,7.91958-4.56,0,0,5.03973,6.72,5.03974,6.72ZM73.68749,126.48l5.51971,7.43999c-2.28565,1.37489-3.45598,2.09074-5.99968,3.12l-5.27972-8.64c1.55146-.33434,4.24595-1.29879,5.75969-1.91999ZM73.4475,90.24l-3.35982,8.64c-1.64802-1.11702-3.58875-2.40167-5.27972-3.36l3.35982-8.64c1.77277,1.11047,3.55554,2.16978,5.27972,3.36ZM67.9278,128.39999l5.27972,8.64c-1.73689.70279-3.32997,1.10277-5.03973,1.67999l-5.7597-9.60001c1.55815-.09538,4.00177-.39288,5.51971-.72v.00002ZM63.60802,84c1.53153.94885,3.03455,1.9246,4.55976,2.88l-3.35982,8.64c-1.49341-.84636-3.49398-1.88861-5.03973-2.64,1.07193-1.57568,1.59944-3.64284,2.35752-5.44236.48542-1.15228,1.33444-2.18121,1.48228-3.43764h-.00001ZM62.40809,129.12l5.7597,9.60001c-1.0543.35594-2.14224.64423-3.11984,1.2-2.25193-3.422-4.71803-6.87952-5.99968-10.8,1.0638.07368,2.3054.06454,3.35983,0ZM120.48503,181.2c-2.04881.09499-4.65361.7917-6.84196.95769-4.36241.33089-9.31737.20148-13.67407-.24059-1.26389-.12823-2.73551-.38701-3.96269-.71712,5.70965-.63708,11.4141-.85306,17.17053-.73145l7.30818.73145v.00002ZM124.08484,155.75999l-4.31977,1.2c-7.40587-1.44563-15.43498-1.31104-22.7988.24001-1.3641-.62917-3.06998-1.08173-4.55976-1.2,10.67057-3.07323,20.96981-3.2289,31.67833-.24001ZM132.48441,157.92l-3.8398,1.67999c-2.38726-1.03798-6.30688-2.13782-8.87953-2.64l4.31977-1.2c1.86701.5211,3.69626,1.02164,5.51968,1.67758-.61086-.94321-.94907-2.15596-1.4399-3.11758.38176-.66507,1.29041-.80788,1.91991-1.2.82068,1.58084,1.69177,3.16345,2.39987,4.8ZM89.04668,154.56c-.50347.94279-.94148,1.93182-1.43988,2.87759,1.616-.43411,3.18887-.97366,4.7997-1.43759,1.48978.11829,3.19566.57085,4.55976,1.2-3.10703.65443-6.23666,1.53529-9.11952,2.88.12926-.61824-.29931-.49144-.65622-.6517-.82812-.37184-1.98302-.69217-2.70361-1.02831.62437-1.70181,1.83886-3.27332,2.63986-4.8l1.9199.96001h.00002ZM134.64429,71.52c-2.19199,4.19065-4.34216,8.50151-6.47966,12.72-.54925-.34841-1.70369-.78583-1.67991-1.44,2.0787-4.05293,4.2244-8.16268,6.23968-12.24l1.91991.96h-.00002ZM109.92558,63.12c-.01925,4.476-.01075,8.96393,0,13.44l-2.4011.00124c-.02943-4.47642.04381-8.96507.00123-13.44124,0,0,2.39987,0,2.39987,0ZM91.44656,84l-1.9199,1.2c-2.3844-4.71022-4.72687-9.49887-7.19962-14.16l1.9199-1.2c2.29422,4.72458,4.80001,9.47849,7.19962,14.16ZM147.12363,144.24001c-2.7106,3.01112-5.86501,5.88501-9.35951,7.92,2.92436-3.34322,5.62134-5.56775,9.35951-7.92ZM80.88711,153.84c-5.1124-2.75906-9.81139-6.76541-13.43929-11.28,5.61613,2.97408,9.55464,6.25452,13.43929,11.28ZM121.92495,133.92c-.28089.52-.7535,1.85728-.61918,2.39932l6.37888,12.24068c-.60758.24149-2.01953.49937-1.9199,1.2-2.17101-4.16476-4.62664-8.2027-6.60122-12.47842-.48857-.45979-2.69367-.59802-3.47825-.72157,0,0,6.23967-2.64,6.23966-2.64ZM100.32609,136.8c-.50729.09535-1.84575.01813-2.18129.39484-1.9949,4.38976-4.45953,8.54688-6.69825,12.80518l-1.9199-.96001,6.48734-13.07919c-.0483-.36122-.11884-.74237-.24767-1.08081,1.25776.29398,2.54697.71642,3.75584,1.16313.43874.16212.83866.07008.80392.75687h.00002ZM127.68465,148.56c.7926,1.5208,1.60892,3.03642,2.39987,4.56-.6295.39214-1.53815.53493-1.91991,1.2-.76895-1.50655-1.61436-3.05312-2.39987-4.56-.09963-.70062,1.31232-.95853,1.91991-1.2ZM91.44656,150c-.79668,1.51538-1.59071,3.04477-2.39987,4.56l-1.9199-.96001c.7562-1.4413,1.22433-3.38901,2.39987-4.56l1.9199.96001Z"/></g><g id="Layer_3_copy_3"><path class="cls-2" d="M148.80353,193.91998c.0686.1543.29059.8681.23492.94617-25.41504,11.73206-55.21118,11.74719-80.63068.01385.34161-1.00085,1.61249-4.35889,2.22485-4.9751.56525-.56885,4.4259-1.64435,5.45471-1.98492,20.26666-6.70911,44.23248-6.84314,64.55664-.23999,1.23138.40009,5.07721,1.48907,5.88831,2.15137.22552.18414,2.04169,3.57257,2.27124,4.08862ZM153.83881,38.28442c4.05737,11.77222,15.07574,22.28204,26.8634,26.01837-.00696-.4361.36554-.68219.49963-.94281.5708-1.10944.99847-2.50909,1.51251-3.64734.1358-.3006.39453-1.28851.76398-1.15051,1.27429.47614,3.90338,6.61487,4.81836,7.91541,1.31317-.92975,2.92657-1.65509,4.18457-2.63751.22681-.17719.74719-.45752.69812-.79968-8.18091-15.08838-20.22992-28.25043-35.11493-36.86017-.24194.06842-.27136.29791-.38141.45984-1.64001,2.41315-2.56317,5.96002-4.31976,8.39996-.48761,1.09442.11066,2.18567.47552,3.24445v-.00002ZM24.88782,63.80206c.45056.35608,4.19318,2.83221,4.39905,2.67749-.00641-1.23932,4.04236-7.90662,4.68274-7.91479.43903.8244,1.33301,2.461,1.31989,3.35522l1.59045,2.35583c12.98145-4.3645,23.5376-15.38477,27.32721-28.53882-.17572-.40411-.42511-.77338-.59912-1.177-.97827-2.2688-2.54083-5.50055-3.79272-7.60815-.20166-.33942-.37878-.63831-.76703-.79187-14.5094,8.79156-26.75031,21.79547-34.79816,36.72003-.00659.51367.29932.6546.6377.92207ZM110.40533,20.52032c.41321.59631,1.16663,1.06287,1.68011,1.55969,9.55804,9.24615,24.26691,15.35095,37.7334,12.6554.38275-.07666.77667-.13763,1.12805-.3205l.49652-.57489,4.31976-8.64001c-.95715-1.52258-7.60449-4.44037-9.67731-5.3222-11.14825-4.74268-22.02344-6.86511-34.1178-7.40039-.50897-.02252-1.64026-.4873-1.99652-.17627-.10681.0932-.02283.4035-.04596.41882.30115,2.02277-.61273,6.22369.47974,7.80035ZM66.42419,34.5589c3.96027.63739,7.92407.74432,11.91211.45013,9.68842-.99207,20.29419-5.87866,27.02954-12.92902.41492-.43433,1.83234-1.85474,1.91455-2.28534l.00531-7.55469c-.53674-.15094-1.4101.23755-2.03058.24988-15.81201.31458-30.23035,4.77179-43.80701,12.47015,1.6933,2.53033,2.64685,5.5047,4.07977,8.15997.12842.23785.8172,1.40851.8963,1.4389v.00002ZM188.40143,159.59998c-.84888-.57489-5.75037-3.33691-6.474-3.49274-.34979-.07526-2.64502.45764-3.12549.61273-11.76794,3.79999-23.0899,14.32605-27.8385,25.68005-.50934,1.21771-2.19751,5.27576-2.1377,6.37201.01282.23474,1.88025,3.82214,2.1377,4.18799.11493.16327.16022.38086.401.44861.77094.19031,7.53931-3.9339,8.69818-4.66895,11.42706-7.24756,21.64001-17.29956,28.78339-28.7511-.06647-.22913-.27722-.27527-.44458-.38861ZM36.96942,156.23999c-.27814-.07861-1.52344-.26294-1.74585-.2049l-6.89368,4.04492c9.24365,14.07581,22.59027,26.08545,37.67798,33.59998l2.39032-4.93237c-.383-1.83722-.98352-3.65045-1.67035-5.38763-4.7959-12.13037-17.14026-23.55414-29.75842-27.12ZM33.84961,151.67999c1.13037-6.28229.95941-12.55804-.5498-18.77014-1.15356-4.74823-2.59485-6.14844-4.77106-10.10876-1.49341-2.71783-2.55334-5.63416-3.55872-8.5611h-11.75934c.86029,13.3714,4.57898,26.29529,10.67432,38.16516.92493,1.80127,1.96198,3.78967,3.00494,5.51483l6.41449-3.42505c.21924-.92804.37628-1.87634.54517-2.81494ZM190.04718,120.32581c-2.03693,4.50873-4.62866,6.95996-5.94745,12.05225-1.51996,5.86914-1.78699,11.38336-.97803,17.38196.21112,1.56543.30682,3.18805.94696,4.69299l5.53271,3.22699c.17157-.00195.45831.20166.60632.16803.3493-.07935,3.19861-5.37659,3.59863-6.16284,5.86975-11.5351,9.39764-24.49261,10.19427-37.44519h-11.75934c-.6145,2.0592-1.30865,4.12592-2.19409,6.08582v-.00002ZM203.24078,93.99988c-1.41461-9.81036-4.50537-19.31775-8.72565-28.23853l-.23145-.23297c-.1684.14978-.37805.23132-.60254.23163l-4.48492,3.23334c1.45636,4.19727,2.80127,8.46271,3.65375,12.83789,1.4198,7.28662,2.08751,15.89685,1.31116,23.28876-.23761,2.26233-.83978,4.47852-1.19897,6.71869.95685.01044,1.922-.00946,2.87891.00134,1.07971.01215,7.83173.13409,8.1748-.1048.24774-.18805.20459-.45966.23639-.72363.5495-4.56067-.33771-12.33923-1.01147-17.01172ZM20.17029,111.84003c1.35718-.00922,2.72302.00787,4.0802-.00116-.4408-3.07019-1.21338-6.13629-1.43805-9.24115-.14648-2.02448-.0448-4.11725-.00226-6.11774.19983-9.39374,1.97675-18.70581,5.27502-27.49536l-.23077-.46429-5.04425-3.00031c-6.948,14.19653-10.35681,30.25488-9.73474,46.09521.27527.39539,6.08057.23163,7.09485.22479ZM110.03253,55.69293c.43536.69006,1.02441,1.31451,1.57294,1.90704,1.10333,1.19177,2.95245,2.71503,4.31982,3.60004,3.17609,2.05573,7.25482,3.38531,11.03937,3.59998,2.23402.12671,4.07104-.05469,6.23969-.47998,1.04083-.2041,2.05841-.43042,3.05896-.78082.2724-.85474.8584-1.57269,1.2608-2.33917,2.95142-5.6217,5.4353-11.54156,8.63959-17.04004l3.35864-6.95868c-14.63397,1.78656-29.14783-3.31543-39.47791-13.68011-.22278,3.42572-.11108,6.88489-.11884,10.31885-.0141,6.22205-.16022,12.50287,0,18.71997.02679,1.04022-.10999,2.10272.10693,3.13293v-.00002ZM89.04669,64.79999c4.65918-.01727,8.84821-1.28571,12.7193-3.83997,1.24457-.82117,3.0968-2.26508,4.07983-3.36005.43024-.47925.83069-1.02246,1.21844-1.54144l.22144-32.53851c-10.24713,10.33282-24.8045,15.47662-39.35669,13.68121-.05823.28217.03168.46112.13043.70709.63177,1.57422,1.93683,3.89673,2.74817,5.53168,2.81506,5.67224,5.703,11.43298,8.63959,17.03998.2608.49805,1.47076,2.81305,1.68604,2.99365.4364.36603,1.34302.45013,1.91376.60638,2.09375.57312,3.8382.72803,5.99969.71998ZM156.96313,81.84003c1.05682.00757,2.8396-1.37482,3.83978-1.92004,3.96368-2.16064,8.9118-4.75739,12.47931-7.44,1.41626-1.06494,3.38989-2.86377,4.5661-4.19366.20001-.22607,1.42047-1.6745,1.31769-1.80804-12.46155-4.7464-22.94513-14.74097-27.48602-27.35773-.5603-.12103-.38385.07568-.53442.30865-1.00867,1.56085-2.14575,4.16492-3.06201,5.93079-2.81592,5.42706-6.08136,11.32062-8.63953,16.79999-.229.49054-1.17407,2.47168-1.19354,2.77521-.0354.55139.90656,3.04706,1.19354,3.70483,1.93719,4.44006,6.159,9.19495,10.55945,11.27997,1.13538.53802,3.82489,1.45093,5.03973,1.67999.3407.06427,1.62372.23792,1.91992.24005v-.00002ZM38.2832,66.47778c-.13666.19495.55048.99585.72266,1.20575.96667,1.17871,2.76935,2.85187,3.96326,3.83649,3.40979,2.81189,8.56927,5.73413,12.47931,7.91998,1.15314.64465,2.40442,1.37164,3.59985,1.91998.70898.32526.67401.5415,1.67987.48004.97052-.05939,4.06622-.83948,5.03973-1.20001,5.54633-2.0542,10.73773-7.96143,12.71936-13.44.11188-.30933.62781-2.2514.59863-2.42297-.52399-1.02917-1.04639-2.06378-1.55859-3.09705-2.8208-5.69025-5.73376-11.39056-8.63953-17.03998-.9505-1.84796-1.97748-3.70148-2.99982-5.5152-5.06909,12.5437-14.95557,22.4906-27.60474,27.35298ZM147.36078,185.2796c-.04486-.4892.34491-.84991.48279-1.19958.51208-1.29852.87256-2.64508,1.47382-3.92615,5.62524-11.98608,16.69165-21.50537,29.24402-25.59723.12122-.56049-.07605-.38397-.30865-.53442-2.40424-1.55554-5.73358-3.08325-8.33032-4.5022-4.29938-2.34937-8.63733-4.65192-12.95929-6.96002l-.55151-.17517c-2.41345.84595-4.90955,1.77112-7.12811,3.05518-1.43323.82953-3.61414,2.32941-4.92059,3.35913-1.97589,1.55725-3.89246,4.27026-5.63885,5.52087-1.23907,2.45172-3.61517,4.52222-4.31976,7.20001,2.5368,4.15302,4.45819,8.67157,6.71967,12.95996,1.53009,2.90155,3.78772,7.75159,5.51971,10.32001.20776.30817.26758.57745.7171.47961ZM70.3277,185.28003c1.78296-3.46442,3.71161-6.87067,5.51965-10.32001,2.37994-4.54022,4.63824-9.15332,7.08527-13.66113.10565-.55566-2.48492-4.34613-3.00543-5.0589-.65961-.9032-1.42413-1.79633-2.15991-2.64001-2.63312-3.01923-5.91986-5.84528-9.3595-7.91998-.68195-.41132-1.76257-1.13605-2.3999-1.44-1.56128-.74457-3.57141-1.21918-5.20203-1.86163-.5351-.02435-.85645.46338-1.27759.66162-4.2879,2.01862-8.76727,4.66669-12.95935,6.96002-2.65564,1.45282-5.45959,2.84631-7.91931,4.55743,12.73987,3.99194,24.07214,13.79242,29.56055,26.00018.56647,1.26007,1.30261,2.92639,1.63757,4.24237.0498.1958-.03516.49347.00177.71899.23108.09045.45148-.23895.47821-.23895ZM45.36896,148.08002c4.30292-2.32568,8.48535-4.96918,12.95935-6.96002l1.19873-.95758c-.67664-.05182-1.38342.06689-2.05786.00732-.30896-.02728-.54297-.24683-.58081-.24976-6.9162-.53052-13.44513-1.67908-18.95898-6.23999l-2.15857-1.43884c1.49146,6.763,1.65289,13.81165.48108,20.63885,2.99115-1.67761,6.10223-3.17053,9.11706-4.79999ZM177.60205,134.88c-5.14569,3.94708-11.08563,4.4082-17.27911,5.03998-.50043.05109-1.31537.46844-2.05627.23474l-.34363.2453,13.19934,7.19995,9.83813,5.27887c-1.03442-6.83691-1.18304-13.93744.72119-20.63647l-4.07965,2.63763ZM75.66345,185.45605c6.62714-2.10095,13.42755-3.48444,20.3429-4.25604,5.70959-.63708,11.41406-.85309,17.17053-.73145l7.30817.73145c6.49347-.30109,16.68658,3.23511,23.03876,5.03998.35474.10083.82275.14423,1.19849.23901.07758-.07941-.15674-.77997-.23853-.95898-1.4267-3.12341-3.63202-6.91583-5.27972-10.08002-2.09235-4.01807-4.43359-8.90875-6.71967-12.72003-1.10303-1.83893-1.86346-2.26068-3.83978-3.12-2.38727-1.03796-6.30688-2.13782-8.87952-2.63995-7.40588-1.44568-15.435-1.31104-22.79883.23999-3.10699.65442-6.23663,1.53528-9.11951,2.88-.72943.34021-1.4942.698-2.17334,1.12939-2.49792,5.05219-5.29553,9.96167-7.90613,14.95056-1.75635,3.35657-3.25842,6.86334-5.27972,10.08002.29034.12067.58081.17847.71997.23999.63916-.55896,1.65057-.76862,2.45592-1.02393ZM119.40833,96.48328c2.14789-4.66943,4.73596-9.12006,7.07642-13.68329,2.07867-4.05292,4.22437-8.16266,6.23962-12.23999.65991-1.33502,1.15027-2.78998,1.91986-4.07764-1.28375.354-2.54193.36237-3.83972.47766-7.0307.62439-13.27576-1.15619-18.71906-5.76001-.73889-.625-1.39575-1.32605-2.15747-1.91992-.00842,1.2774.00311,2.5625-.00238,3.8399-.01929,4.47601-.01074,8.96393,0,13.44.01312,5.46039-.05109,10.92944.04907,16.39093,2.17468,2.72968,6.00977,4.49963,9.43365,3.53236ZM151.44342,82.79999c-.32965-.12134-.80975-.10828-1.26294-.29346-6.11816-2.49976-11.2265-8.13318-13.37921-14.34595-.81866.94092-1.58044,2.2572-2.15698,3.35944-2.19202,4.19061-4.34216,8.50146-6.47968,12.71997-2.14166,4.22681-4.03894,8.58972-6.38007,12.72119-.2276.92334.85889,2.1615,1.4574,2.88177.63177.76038,4.02325,3.8548,4.80885,3.83307,2.46637-2.15955,4.80414-4.53467,7.31348-6.716,2.5451-2.21252,4.93579-4.04834,7.67957-6,1.68005-1.19501,3.31476-2.24341,5.03973-3.36005,1.51111-.97815,3.04132-1.91638,4.55975-2.88.4765-.30237.91876-.60846,1.43878-.83881-.05951-.13171-2.21887-.92657-2.63867-1.08118ZM107.04572,59.52002c-.52466.547-.82959.91803-1.43988,1.44-6.20087,5.30298-12.85883,6.87769-20.87891,5.75995-.62653-.08728-1.29083-.08887-1.91864-.23877.44354,1.10358.92151,2.29388,1.43866,3.35883,2.29419,4.72455,4.79999,9.47845,7.19958,14.15997,2.16278,4.21936,4.64038,8.30737,6.51788,12.68073,3.50604.47656,6.99695-.78674,9.1969-3.56512.12415-10.75049.26147-21.52612.1286-32.27905-.00507-.40582.15381-1.06677-.2442-1.31653l.00002-.00003ZM82.32703,71.03998c-.51154-.96423-1.08478-1.8974-1.55878-2.87885-.26874.12646-1.63702,3.36365-1.99988,4-3.11829,5.46899-8.54156,9.79767-14.68036,11.35889-.26855.2804-.39526-.23981-.47998.47998,1.53149.94885,3.03455,1.92462,4.55975,2.88,1.77277,1.11047,3.55554,2.1698,5.27972,3.35999,2.58746,1.78613,5.03497,3.74518,7.43958,5.76001,2.90222,2.4317,5.66571,4.95728,8.32886,7.65448,1.1095.28345,6.1911-4.78796,6.50616-6.29285-2.13892-4.01648-4.14142-8.104-6.19543-12.16162-2.3844-4.71021-4.72687-9.4989-7.19965-14.16003ZM132.48437,157.91998l.59729.479c.51562-.58551.86353-1.29651,1.32263-1.91901,1.08301-1.46838,2.15735-2.94525,3.3598-4.32001,2.92438-3.3432,5.62134-5.56769,9.3595-7.91998,1.95374-1.22937,2.93579-1.71289,5.03979-2.64001.21466-.0946,1.43121-.75861,1.43567-.84174l-.47577-.35822c-.48877-.21655-.94897-.50952-1.43988-.72003-1.18896-.50977-2.38141-.78088-3.59985-1.20001-1.86963-.64313-3.21472-1.10138-5.03973-1.91998-2.25537-1.01166-3.68402-1.8194-5.7597-3.12-2.88696-1.80902-4.81378-3.60742-7.43958-5.52002-.91187-.66418-.76007-.97253-1.90179-.3399-1.77679.98463-5.05505,4.55762-6.01782,6.3399-.28088.52002-.75348,1.8573-.61914,2.39935l6.37885,12.24066c.7926,1.52081,1.60895,3.03644,2.3999,4.56.82068,1.58087,1.69177,3.16345,2.39984,4.79999h-.00002ZM96.01398,135.96082c-.04828-.36121-.11884-.74237-.24762-1.08081-.78619-2.06531-3.66278-5.33173-5.44061-6.67926-2.10126-1.59265-1.91174-.96301-3.67896.43927-2.70532,2.14667-4.47491,3.49664-7.43958,5.27997-2.28564,1.37488-3.45599,2.09076-5.99969,3.12-1.73688.70282-3.32996,1.10278-5.03973,1.67999-1.05432.35596-2.14221.64429-3.11981,1.20001-.43311.24622-.89233.39746-1.19513.84003.00067.08313,1.21021.73584,1.43512.83997.75317.34875,1.35706.53491,2.15985.96002,5.61615,2.97406,9.55463,6.25452,13.43927,11.28003.56793.73462,1.16888,1.36163,1.67993,2.15997.34167.53375.64844,1.12579.95996,1.67999.37433.18652.31964.42133.95996.72003.62433-1.70184,1.83887-3.27332,2.63983-4.80005.75623-1.44128,1.22437-3.38898,2.3999-4.56,0,0,6.4873-13.07916,6.4873-13.07916ZM124.08484,155.76001c1.867.52112,3.69629,1.02161,5.51965,1.67755-.61084-.94318-.94904-2.15594-1.43988-3.11755-.76892-1.50653-1.61432-3.0531-2.39984-4.56-2.17102-4.16479-4.62665-8.2027-6.60126-12.47845-.48853-.45978-2.69366-.59802-3.47821-.72156-5.08124-.80011-10.30835-.70935-15.35919.23999-.50732.09534-1.84576.01813-2.18134.39484-1.99487,4.38977-4.45947,8.54688-6.69824,12.80518-.79663,1.51538-1.5907,3.04474-2.39984,4.56-.50348.94281-.94147,1.93182-1.43988,2.87756,1.61597-.43408,3.18884-.97363,4.79968-1.43756,10.67059-3.07324,20.96985-3.22888,31.67834-.23999h.00002ZM108.60565,121.46277c-.71368-.00598-1.31787-.31201-1.99683-.22272l-6.76514,13.03754c1.9502.04126,3.92957-.50189,5.87219-.60754,3.97894-.21631,7.96167.20502,11.88928.72754l-6.51746-12.5589c-.54956-1.11163-1.52234-.36792-2.48206-.37592ZM122.15863,102.12634c-.50092-.5224-1.16498-1.36615-1.43799-2.04486-.34418-.07684-.38855.03345-.58618.24792-.39423.42786-1.74982,3.26447-2.17444,4.06549-.64966,1.22552-4.45514,8.54315-4.42743,9.22223.03198.78137.78571,1.94086.51056,2.98621l9.31934,5.0766-4.49701-6.1178,7.3938-9.84576c-1.1593-1.31018-2.82141-2.25586-4.10065-3.59003ZM94.9361,102.48969c-1.05737,1.04559-2.61426,2.25696-3.96814,2.87463l7.39038,9.99329-4.27185,6.08002,8.88397-4.6731.90045-3.16492-6.66797-13.51892c-.39917-.29126-1.91919,2.06519-2.26685,2.409v.00002ZM119.52802,133.1994c2.0813-2.62177,3.86505-5.43268,6.71191-7.31946l-12.9585-6.97247c-.4599.34119-.61316.79718-.37085,1.33612,0,0,6.61743,12.95581,6.61744,12.95581ZM91.21124,125.87994c2.42841,2.09912,4.95905,4.2953,6.23804,7.3194l7.09552-13.19702-.49438-1.17328s-12.83917,7.0509-12.83918,7.0509ZM117.84753,99.24237c-2.86713-.26764-5.71429-1.099-7.92194-3.00238v14.64001l1.56073.71552s6.36121-12.35315,6.36121-12.35315ZM107.28571,110.76001v-14.28003c-2.33734,1.67114-5.04419,2.59735-7.92194,2.76245l6.35712,12.32428s1.56482-.8067,1.56483-.8067ZM107.94,118.98407c5.00049,1.02734,4.70459-6.84393.00201-5.89062-3.013.61084-3.02832,5.26892-.00201,5.89062Z"/></g></g></svg>