<svg xmlns="http://www.w3.org/2000/svg" width="495.308" height="388" viewBox="0 0 495.308 388"><defs><linearGradient id="a" x1="-32.754" x2="455.586" y1="343.064" y2="19.595" gradientUnits="userSpaceOnUse"><stop offset=".08" stop-color="#b7281b"/><stop offset=".097" stop-color="#c23c15"/><stop offset=".125" stop-color="#d1580f"/><stop offset=".158" stop-color="#de6f09"/><stop offset=".195" stop-color="#e88105"/><stop offset=".239" stop-color="#ee8d02"/><stop offset=".299" stop-color="#f29400"/><stop offset=".44" stop-color="#f49700"/><stop offset=".486" stop-color="#f09101"/><stop offset=".547" stop-color="#e78005"/><stop offset=".615" stop-color="#d8650b"/><stop offset=".689" stop-color="#c44015"/><stop offset=".73" stop-color="#b7281b"/></linearGradient><linearGradient id="b" x1="303.671" x2="385.698" y1="167.534" y2="-133.874" gradientUnits="userSpaceOnUse"><stop offset=".14" stop-color="#b7281b"/><stop offset=".2" stop-color="#cb4d11"/><stop offset=".263" stop-color="#dd6d0a"/><stop offset=".323" stop-color="#e98404"/><stop offset=".38" stop-color="#f19201"/><stop offset=".43" stop-color="#f49700"/></linearGradient></defs><path d="m362.855 148.012-51.986 35.984 63.574-28.019 27.412 14.01c-11.758 4.226-22.727 10.359-34.12 15.385-13.752 6.067-29.138 11.12-42.544 17.457-21.915 10.358-16.838 24.883-23.858 43.142-7.038 18.31-21.264-4.716-30.053-5.925-7.322-1.007-10.237 4.886-13.912 4.888-2.76.002-7.528-4.307-11.067-4.872-3.198-.51-8.04-.31-11.17.707-6.326 2.054-8.78 10.192-12.762 14.238-3.875 3.936-12.082 5.038-14.923 10.077-4.629 8.208 2.65 21.135-4.033 27.964-5.926 6.055-7.827-3.692-11.56-7.538-3.486-3.59-9.33-6.678-14.449-6.541-4.493.12-8.624 3.3-13.823 1.81-6.082-1.744-7.097-11.387-20.187-11.832-18.424-.626-21.168 12.92-30.124 23.962-6.857 8.456-12.648-.04-21.916-.898-20.496-1.898-28.21 8.991-26.37 28.367.665 7.019 7.705 25.498.842 30.086-2.586 1.728-10.084 2.568-12.037 4.963-2.957 3.623-1.896 17.298-4.913 19.08-10.374 3.488-12.267-11.878-12.886-19.135-.447-5.247.366-10.77-.138-15.862-1.513-15.278-4.375-30.61-10.99-44.504 12.59-2.488 26.898-7.971 38.026-14.519 1.294-.761 2.52.178 1.97-2.482-6.635 1.16-13.154 3.519-19.79 4.7-8.224 1.462-18.49 2.979-26.756 3.332-3.22.138-5.34-.55-4.033-4.083L171.882 80c15.823 11.117 34.907 16.318 53.755 19.726 6.642 1.2 16.492.965 22.49 2.51 3.332.857 16.88 10.197 22.377 12.623 20.946 9.244 43.837 13.34 66.657 14.343 7.663 7.343 15.955 14.589 25.694 18.811M148.59 143.73c-.428.68-2.339.953-3.2 2.278-5.177 7.957-6.205 20.796 3.787 25.178 15.091 6.617 38.463-4.233 50.155-14.215 22.146-18.906 18.155-45.408-15.48-37.48-8.938 2.107-28.907 12.394-34.05 19.968-1.025 1.509-.596 3.294-1.212 4.27m121.05-11.45c-15.996 1.925-42.67 15.93-45.343 33.394-3.202 20.926 24.538 19.966 38.214 16.476 12.867-3.284 36.262-16.408 38.26-30.735 2.694-19.333-16.499-20.896-31.13-19.135m-141.023 61.975c-17.495 2.04-51.375 19.591-46.543 41.035 1.044 4.633 8.026 8.03 12.375 8.624 17.664 2.412 41.125-7.762 52.436-21.39 15.333-18.472 3.396-30.795-18.268-28.269m148.24 5.756c-9.365.712-19.19 4.33-28.272 7.203-35.277 11.163-71.687 25.982-105.1 41.91-3.136 1.496-7.44 3.14-9.623 5.867 35.86-9.26 70.52-22.687 104.68-36.811z" style="fill:url(#a)"/><path d="M476.282 103.585c16.162 19.652-5.65 51.392-26.62 57.716-16.417 4.95-32.203.143-47.157-6.444-3.333-1.468-47.268-24.662-45.64-26.845 4.546-1.838 11.57-.107 14.996-4.001-35.573-2.957-69.688-10.542-102.212-25.299-19.386-8.795-37.88-20.532-55.292-32.707-1.227 1.667 1.392 4.34 2.28 5.72 3.31 5.144 8.108 9.01 11.225 14.265-15.563-3.103-46.446-9.874-55.834-23.656-8.043-11.807 4.964-35.716 15.336-43.332 14.142-10.385 39.792-.966 55.707 3.288 67.026 17.92 142.473 42.317 207.562 66.44 10.7 3.964 18.105 5.684 25.65 14.856m-23.827 22.04c4.533-8.622 2.092-19.517-6.694-24.025-19.22-9.862-48.824 7.723-47.93 29.845.456 11.337 12.716 18.605 23.026 15.54.285-2.563.02-1.592-1.45-2.016-5.036-1.448-8.23-1.314-11.813-6.201-8.087-11.033 6.3-25.373 16.81-28.533 5.256 5.197 6.16 14.115 2.441 20.25l1.996.507c4.6-7.086 6.888-14.686 4.02-22.982 13.606-2.252 20.148 7.452 17.01 19.985.562.08 2.502-2.215 2.584-2.37" style="fill:url(#b)"/><path d="m205.862 0 36.215 8.285C290.49 22.16 338.578 37.184 386.382 52.98c25.537 8.44 58.201 17.137 82.158 27.842 52.06 23.263 20.131 91.888-27.307 96.05-6.428.564-11.234-.846-16.87-.954-7.516-.144-53.127 22.55-63.822 27.26-9.702 4.274-21.544 7.847-30.679 12.323-16.58 8.123-9.652 33.082-21.458 44.541-9.678 9.395-20.415 7.7-30.872.788-1.566-1.035-7.35-6.516-8.16-6.58-1.184-.091-4.127 3.066-6.22 3.54-3.85.875-9.845.375-13.579-1.001-3.01-1.11-6.464-5.324-9.706-3.31-1.29.8-5.92 9.266-8.994 12.032-3.2 2.879-7.75 5.508-11.899 6.6 1.164 9.82 2.15 19.997-4.114 28.388-7.293 9.771-20.317 11.028-28.523 1.526-3.147-3.645-3.744-9.166-9.81-8.97-6.848.221-9.128 3.38-17.66.441-5.819-2.004-13.038-11.346-16.48-11.394-13.598-.188-16.462 30.15-34.883 28.832-7.18-.514-24.49-11.911-28.885-1.682-3.695 8.6 7.464 29.491 1.287 45.292-3.807 9.742-13.124 8.341-14.837 10.671-.91 1.236-1.662 11.179-3.478 15.014-1.952 4.122-4.077 5.384-7.73 7.771h-15c-1.785-2.027-4.717-2.56-6.652-4.349-15.48-14.309-4.876-59.374-18.514-79.984-6.247-9.44-18.67-12.88-11.564-27.898L161.347 72.006c-.535-3.168-2.812-4.601-4.002-7.988-6.963-19.81 10.396-53.376 30.258-60.777L198.863 0Zm270.42 103.585c-7.544-9.172-14.95-10.892-25.649-14.856-65.09-24.122-140.536-48.52-207.562-66.439-15.915-4.254-41.565-13.673-55.707-3.288-10.372 7.616-23.38 31.525-15.336 43.332 9.388 13.782 40.27 20.553 55.834 23.656-3.117-5.255-7.915-9.12-11.225-14.265-.888-1.38-3.507-4.053-2.28-5.72 17.411 12.175 35.906 23.912 55.292 32.707 32.524 14.757 66.64 22.342 102.212 25.299-3.427 3.894-10.45 2.163-14.997 4.001-1.627 2.183 42.308 25.377 45.64 26.845 14.955 6.587 30.741 11.395 47.158 6.444 20.97-6.324 42.782-38.064 26.62-57.716m-113.427 44.427c-9.74-4.222-18.03-11.468-25.694-18.81-22.82-1.004-45.71-5.1-66.657-14.344-5.496-2.426-19.045-11.766-22.377-12.623-5.998-1.545-15.848-1.31-22.49-2.51-18.848-3.408-37.932-8.61-53.755-19.726L14.28 281.954c-1.306 3.534.814 4.22 4.033 4.083 8.264-.353 18.532-1.87 26.754-3.332 6.638-1.181 13.157-3.54 19.79-4.7.55 2.66-.674 1.72-1.968 2.482-11.128 6.548-25.437 12.031-38.026 14.519 6.615 13.895 9.477 29.226 10.99 44.504.504 5.092-.31 10.615.138 15.862.62 7.257 2.512 22.623 12.886 19.134 3.017-1.781 1.956-15.455 4.913-19.08 1.953-2.394 9.451-3.234 12.037-4.962 6.863-4.588-.177-23.067-.843-30.086-1.84-19.376 5.875-30.265 26.371-28.367 9.268.858 15.06 9.354 21.916.898 8.956-11.042 11.7-24.588 30.124-23.962 13.09.445 14.105 10.088 20.187 11.832 5.2 1.49 9.33-1.69 13.823-1.81 5.117-.137 10.963 2.951 14.448 6.541 3.734 3.846 5.635 13.593 11.561 7.538 6.683-6.829-.596-19.756 4.033-27.964 2.841-5.039 11.048-6.14 14.923-10.077 3.982-4.046 6.436-12.184 12.762-14.238 3.13-1.017 7.972-1.217 11.17-.707 3.54.565 8.308 4.874 11.067 4.872 3.675-.002 6.59-5.895 13.912-4.888 8.79 1.209 23.015 24.235 30.053 5.925 7.02-18.26 1.943-32.784 23.858-43.142 13.406-6.337 28.792-11.39 42.543-17.457 11.394-5.026 22.363-11.16 34.12-15.385l-27.41-14.01-63.575 28.02zM269.64 132.28c14.631-1.76 33.824-.198 31.13 19.135-1.998 14.327-25.393 27.451-38.26 30.735-13.676 3.49-41.416 4.45-38.214-16.476 2.672-17.464 29.347-31.469 45.344-33.394m19.958 29.458c.895-.874 5.765-9.942 6.03-11.47 2.302-13.249-13.597-14.127-23.144-13.144-13.067 1.344-34.83 12.018-41.023 23.978-10.675 20.616 18.937 19.495 31.63 15.629 6.971-2.123 21.602-10.207 26.507-14.993M148.59 143.729c.615-.978.187-2.763 1.211-4.271 5.144-7.574 25.113-17.86 34.051-19.967 33.635-7.929 37.626 18.573 15.48 37.48-11.692 9.981-35.064 20.831-50.155 14.214-9.992-4.382-8.964-17.22-3.788-25.178.862-1.325 2.773-1.597 3.201-2.278m56.961-17.413c-6.886-6.186-24.934-1.298-32.6 2.273-8.11 3.779-24.653 17.776-26.033 26.977-3.332 22.228 31.15 8.935 40.86 2.85 7.56-4.737 28.237-22.7 17.773-32.1m-76.934 67.938c21.664-2.526 33.601 9.797 18.268 28.27-11.31 13.627-34.772 23.8-52.436 21.389-4.35-.594-11.33-3.991-12.375-8.624-4.832-21.444 29.048-38.995 46.543-41.035m9.894 29.395c12.904-12.06 15.856-26.287-7.028-24.526-10.148.781-31.17 10.028-38.325 17.172-.375.374-5.15 8.563-5.367 9.131-4.952 13.055 7.718 14.463 17.447 13.451 6.021-.626 10.177-3.288 15.376-4.682 1.134-.305 2.72.843 3.112.636 1.062-.562 13.18-9.68 14.785-11.182m110.074-16.436c-35.277 11.163-71.687 25.982-105.1 41.91-3.136 1.496-7.44 3.14-9.623 5.867 35.86-9.26 70.52-22.687 104.68-36.811l38.315-18.169c-9.365.712-19.19 4.33-28.272 7.203M445.762 101.6c-19.22-9.862-48.824 7.723-47.93 29.845.456 11.337 12.716 18.605 23.026 15.54.285-2.563.02-1.592-1.45-2.016-5.036-1.448-8.23-1.314-11.813-6.201-8.087-11.033 6.3-25.373 16.81-28.533 5.256 5.197 6.16 14.115 2.441 20.25l1.996.507c4.6-7.086 6.888-14.686 4.02-22.982 13.606-2.252 20.148 7.452 17.01 19.985.562.08 2.502-2.215 2.584-2.37 4.533-8.622 2.092-19.517-6.694-24.025"/><path d="M289.6 161.737c-4.906 4.786-19.537 12.87-26.508 14.993-12.693 3.866-42.305 4.987-31.63-15.63 6.192-11.959 27.956-22.633 41.023-23.977 9.547-.983 25.446-.105 23.144 13.144-.265 1.528-5.135 10.596-6.03 11.47M172.95 128.589c-8.11 3.779-24.653 17.776-26.033 26.977-3.332 22.228 31.15 8.935 40.86 2.85 7.56-4.737 28.237-22.7 17.773-32.1-6.886-6.186-24.934-1.298-32.6 2.273m-41.468 70.534c-10.148.781-31.17 10.028-38.325 17.172-.375.374-5.15 8.563-5.367 9.131-4.952 13.055 7.718 14.463 17.447 13.451 6.021-.626 10.177-3.288 15.376-4.682 1.134-.305 2.72.843 3.112.636 1.062-.562 13.18-9.68 14.785-11.182 12.904-12.06 15.856-26.287-7.028-24.526" style="fill:#b7281b"/></svg>