<svg xmlns="http://www.w3.org/2000/svg" width="495.308" height="388" viewBox="0 0 495.308 388"><path d="m205.862 0 36.215 8.285C290.49 22.16 338.578 37.184 386.382 52.98c25.537 8.44 58.201 17.137 82.158 27.842 52.06 23.263 20.131 91.888-27.307 96.05-6.428.564-11.234-.846-16.87-.954-7.516-.144-53.126 22.55-63.822 27.26-9.702 4.274-21.544 7.847-30.679 12.323-16.58 8.123-9.652 33.082-21.458 44.541-9.678 9.395-20.415 7.7-30.872.788-1.566-1.035-7.35-6.516-8.16-6.58-1.184-.091-4.127 3.066-6.22 3.54-3.85.875-9.845.375-13.579-1.001-3.01-1.11-6.464-5.324-9.706-3.31-1.29.8-5.92 9.266-8.994 12.032-3.2 2.879-7.75 5.508-11.899 6.6 1.164 9.82 2.15 19.997-4.114 28.388-7.293 9.771-20.317 11.028-28.523 1.526-3.147-3.645-3.744-9.166-9.81-8.97-6.848.221-9.128 3.38-17.66.441-5.819-2.004-13.038-11.346-16.48-11.394-13.598-.188-16.462 30.15-34.883 28.832-7.18-.514-24.49-11.911-28.885-1.682-3.695 8.6 7.464 29.491 1.287 45.293-3.807 9.741-13.124 8.34-14.837 10.67-.91 1.236-1.662 11.179-3.478 15.014-1.952 4.122-4.077 5.384-7.73 7.771h-15c-1.785-2.027-4.717-2.56-6.652-4.349-15.48-14.309-4.876-59.374-18.514-79.984-6.247-9.44-18.67-12.88-11.564-27.898L161.347 72.006c-.535-3.168-2.812-4.601-4.002-7.988-6.963-19.81 10.396-53.376 30.258-60.777L198.863 0Zm270.42 103.585c-7.544-9.172-14.95-10.892-25.649-14.856-65.09-24.122-140.536-48.52-207.562-66.439-15.916-4.254-41.565-13.673-55.707-3.288-10.372 7.616-23.38 31.525-15.337 43.332 9.39 13.782 40.272 20.553 55.835 23.656-3.117-5.255-7.915-9.12-11.225-14.265-.888-1.38-3.507-4.053-2.28-5.72 17.411 12.175 35.906 23.912 55.292 32.707 32.523 14.757 66.64 22.342 102.212 25.299-3.427 3.894-10.45 2.163-14.997 4.001-1.627 2.183 42.308 25.377 45.64 26.845 14.955 6.587 30.741 11.395 47.158 6.444 20.97-6.325 42.782-38.064 26.62-57.716m-113.427 44.427c-9.74-4.222-18.03-11.468-25.694-18.81-22.82-1.004-45.712-5.1-66.657-14.344-5.496-2.426-19.045-11.766-22.377-12.623-5.998-1.545-15.848-1.31-22.49-2.51-18.848-3.408-37.932-8.61-53.755-19.726L14.28 281.954c-1.306 3.534.814 4.22 4.033 4.083 8.264-.353 18.532-1.87 26.754-3.333 6.638-1.18 13.157-3.54 19.79-4.699.55 2.66-.674 1.72-1.968 2.482-11.128 6.548-25.437 12.031-38.026 14.519 6.615 13.895 9.477 29.226 10.99 44.504.504 5.092-.31 10.615.138 15.862.62 7.257 2.512 22.623 12.886 19.134 3.017-1.781 1.956-15.456 4.913-19.08 1.953-2.394 9.451-3.234 12.037-4.962 6.863-4.588-.177-23.067-.843-30.086-1.84-19.376 5.875-30.265 26.371-28.367 9.268.858 15.06 9.354 21.916.898 8.956-11.042 11.7-24.588 30.124-23.962 13.09.445 14.105 10.088 20.187 11.832 5.2 1.49 9.33-1.69 13.823-1.81 5.117-.137 10.963 2.951 14.448 6.541 3.734 3.846 5.635 13.593 11.561 7.538 6.683-6.829-.596-19.756 4.033-27.964 2.841-5.039 11.048-6.14 14.923-10.077 3.982-4.046 6.436-12.184 12.762-14.238 3.13-1.017 7.972-1.217 11.17-.707 3.54.565 8.308 4.874 11.067 4.872 3.675-.002 6.59-5.895 13.912-4.888 8.79 1.209 23.015 24.235 30.053 5.925 7.02-18.26 1.943-32.784 23.858-43.142 13.406-6.337 28.792-11.39 42.543-17.457 11.394-5.026 22.363-11.16 34.12-15.385l-27.41-14.01-63.575 28.02zM269.64 132.28c14.631-1.76 33.824-.198 31.13 19.135-1.998 14.327-25.393 27.451-38.26 30.735-13.676 3.49-41.416 4.45-38.214-16.476 2.672-17.464 29.347-31.469 45.344-33.394m19.958 29.458c.895-.874 5.765-9.942 6.03-11.47 2.302-13.249-13.597-14.127-23.144-13.144-13.067 1.344-34.83 12.018-41.023 23.978-10.675 20.616 18.937 19.495 31.63 15.629 6.971-2.123 21.602-10.207 26.507-14.993M148.59 143.729c.615-.978.187-2.763 1.211-4.271 5.144-7.574 25.113-17.86 34.051-19.967 33.635-7.929 37.626 18.573 15.48 37.48-11.692 9.981-35.064 20.831-50.155 14.214-9.992-4.382-8.964-17.22-3.788-25.178.862-1.325 2.773-1.597 3.201-2.278m56.961-17.413c-6.886-6.186-24.934-1.298-32.6 2.273-8.11 3.779-24.653 17.776-26.033 26.977-3.332 22.228 31.15 8.935 40.86 2.85 7.56-4.737 28.237-22.7 17.773-32.1m-76.934 67.938c21.664-2.526 33.602 9.797 18.268 28.27-11.31 13.627-34.772 23.8-52.436 21.389-4.35-.594-11.33-3.991-12.375-8.624-4.832-21.444 29.048-38.995 46.543-41.035m9.894 29.395c12.904-12.06 15.856-26.287-7.028-24.526-10.148.781-31.17 10.028-38.325 17.172-.375.374-5.15 8.563-5.367 9.131-4.952 13.055 7.718 14.463 17.447 13.451 6.021-.626 10.177-3.288 15.376-4.682 1.134-.305 2.72.843 3.112.636 1.062-.562 13.18-9.68 14.785-11.182m138.346-23.639-38.316 18.169c-34.16 14.124-68.82 27.552-104.679 36.811 2.183-2.727 6.487-4.371 9.623-5.866 33.413-15.929 69.823-30.748 105.1-41.91 9.082-2.875 18.907-6.492 28.272-7.204m175.6-74.385c-.083.155-2.023 2.45-2.585 2.37 3.138-12.533-3.404-22.237-17.01-19.985 2.868 8.296.58 15.896-4.02 22.982l-1.996-.507c3.718-6.135 2.815-15.053-2.44-20.25-10.51 3.16-24.898 17.5-16.81 28.533 3.581 4.887 6.776 4.753 11.811 6.201 1.471.424 1.736-.547 1.451 2.016-10.31 3.065-22.57-4.203-23.027-15.54-.893-22.122 28.71-39.707 47.93-29.845 8.787 4.508 11.228 15.403 6.695 24.025"/></svg>