<svg xmlns="http://www.w3.org/2000/svg" width="31.988" height="25.291" viewBox="0 0 31.988 25.291"><path fill="#444" d="M14.158.149c.069-.054.146-.098.218-.149.046.067.083.139.131.204.054.046.125.069.177.119.128.125.196.3.334.417.165.139.312.299.475.442.106.086.14.225.232.322.134.143.242.307.375.45.123-.254.341-.44.515-.657.066-.059.148-.098.221-.149.023.087.101.175.057.267-.041.13-.149.231-.163.37a1.5 1.5 0 0 1-.284.487c.066.018.133.031.198.054.062.061.083.15.134.219.248.21.496.422.758.614.138.103.346.051.461.192.156.113.323.229.515.268.088.046.156.123.246.167-.009-.134-.122-.215-.186-.322.077.046.141.109.206.171l.017-.099c.119.05.237.103.348.171.161.095.346.133.521.191a1 1 0 0 1 .075-.058c.133.045.243.155.39.153.143.004.271.07.401.123a1 1 0 0 1 .05-.157l-.012-.118c.073.075.118.192.234.206.101.051.199-.009.298-.031.04.032.074.07.111.106.083-.044.156-.12.257-.11.119-.024.228.029.332.079.148.058.234.201.359.293.082.059.13.161.224.203.109.017.237.05.329-.032.161.1.317.208.487.292.096.064.181.147.293.184-.006-.085-.019-.17-.03-.254l.123.108q-.039.087-.082.172l.109.032q0 .113.009.226a.46.46 0 0 1 .231.107l.036-.088c.115.073.233.164.249.311l.109.009c.011.063.011.129.035.19q.212.21.45.389.05-.05.102-.098c-.017.12-.028.241-.049.36-.019.072.03.137.034.208-.014.079-.048.152-.07.228l.37-.367c-.038-.042-.107-.069-.109-.132-.031-.156.081-.283.146-.414.053-.117.167-.183.255-.27.129-.166.201-.379.369-.514.066-.063.176-.017.237-.088.102-.105.206-.211.288-.334.058-.092.18-.1.265-.159.141-.061.098-.275.244-.33.112-.035.18-.135.269-.205q.04.096.076.191c.071-.031.14-.065.211-.094-.019.146-.16.221-.224.344l.163.015q-.034.085-.063.171c.075-.009.149-.027.225-.031.072.057.077.174.172.208.065-.023.124-.06.183-.096.07-.046.108-.139.199-.152.043-.018.087.007.129.018.11.048.161-.118.269-.129-.012.079-.033.156-.051.234.048-.014.11-.011.135-.064a.36.36 0 0 1 .255-.17c.104-.016.195.084.204.181-.022.059-.057.112-.087.167l.137.033c.055-.053.116-.103.158-.169-.007-.084-.103-.139-.086-.228-.023-.187.153-.301.287-.392.117.052.178.176.279.252.105-.101.219-.197.352-.26-.01.107-.066.207-.051.316.021.1-.043.185-.074.275l-.191.03q.034.12.09.235c-.088.118-.161.245-.255.359.14-.035.316.034.323.196q.072-.047.149-.084c.02.056.033.113.05.17l.159-.063c.043.076.099.142.157.207.091.103.09.269.21.347.165.052.333.103.507.114a3 3 0 0 0-.246.377c.161.013.271.148.335.285-.028.201-.127.384-.204.569l.112-.014c-.041.139-.063.283-.09.426-.021.098.017.193.032.289.017.087-.021.172-.04.255l.116.014c.018.082.016.179.088.237.037.056.11.045.167.063-.038.088-.077.178-.073.276-.004.096.07.185.044.282-.038.092-.114.163-.172.243l.058.064q.098-.066.202-.125.03.046.058.097c-.041.069-.097.128-.128.202.014.128.102.246.068.379a1.5 1.5 0 0 0-.016.433c.058-.016.115-.038.175-.048.051.011.1.031.151.047-.049.164-.061.348-.194.472a3 3 0 0 0 .33-.051c.001.095.009.191.013.286l.123.029a1.4 1.4 0 0 0-.195.45c-.066.135-.107.28-.147.425-.055.242-.252.432-.258.688-.132.117-.236.281-.425.306q-.009.165-.01.332c-.046.095-.144.155-.176.258a.52.52 0 0 1-.21.279c-.058.012-.117.004-.175.006.019.135-.012.284.065.404.114.191.294.333.398.531-.085.025-.232.016-.229.139.222.106.343.344.39.576.023.116-.093.188-.174.245.002.112-.071.201-.121.295a.58.58 0 0 1 .282.247c.061.08.073.203.172.25.065.041.148.083.159.169-.023.107-.149.114-.231.152.032.133.14.218.233.307.096.088.101.224.13.342-.22-.035-.396-.185-.606-.253-.015.113-.022.227-.04.339-.172-.086-.312-.221-.46-.341l-.099.07c-.096-.058-.175-.149-.288-.174-.229-.057-.377-.273-.606-.329-.196-.037-.349-.174-.515-.275-.128-.076-.23-.187-.352-.27-.055-.05-.12.014-.169.042-.086.047-.133.134-.181.215a1.2 1.2 0 0 0-.099-.263c.115-.123.03-.289-.005-.427-.012-.071-.068-.116-.122-.155l.026-.166c-.128.033-.262.028-.389.06-.127.074-.221.195-.355.259-.029-.057-.069-.105-.098-.161-.091.001-.194-.029-.275.026-.103.069-.191.157-.287.235-.143.119-.318.185-.481.27-.204.107-.43.159-.655.201-.08.015-.14.072-.186.136-.064.09-.164.14-.254.199v.101l.162.008c-.156.098-.276.245-.446.323q.042-.135.092-.265c-.093.026-.189.047-.271.102-.001.091.046.189-.011.273-.037.106-.13.171-.222.227l-.01-.171c-.065.019-.142.026-.178.092-.138.197-.318.357-.498.515-.082.05-.014.159-.076.219-.062.069-.139.123-.21.182-.108.086-.212.193-.355.214-.118.02-.166.142-.243.219l.113.046c-.125.075-.273.112-.371.228l.173.138c-.042.102-.127.174-.187.264-.014.064.021.125.037.186-.123.115-.226.25-.354.36-.126.115-.26.219-.384.336-.334.342-.689.663-1.054.972-.128.083-.088.257-.014.364-.15.037-.268.14-.411.193-.071.032-.146.048-.217.079-.078.113-.121.251-.243.33q.066.107.149.202a.8.8 0 0 0-.154.237c-.05-.014-.099-.031-.15-.038-.062.023-.101.083-.153.121-.145.028-.29.061-.434.09-.086.065-.17.139-.285.14l-.06.134c-.017-.066-.036-.13-.049-.196-.089.06-.251.075-.253.209.051.075.132.123.179.2.037.055.072.115.134.145.044-.014.086-.034.129-.05l-.011.16c.206.085.329.28.527.376.119.065.211.174.338.227.047-.014.087-.045.129-.071-.069.206.089.384.259.474l.053-.082c.164.168.339.324.492.503-.136-.065-.277-.134-.432-.1-.229-.123-.497-.178-.701-.346l-.12.034.024-.104c-.076-.057-.123-.139-.173-.218a.7.7 0 0 1-.169.217q-.001-.09.002-.181a2 2 0 0 0-.17.202c-.062-.031-.126-.063-.165-.123-.069-.109-.2-.145-.308-.203-.008.087-.007.175-.02.261a1 1 0 0 0-.202-.215c-.044-.067-.069-.144-.106-.215l-.003.116-.081-.043-.017-.195c-.063.006-.13-.008-.189.014-.062.062-.075.185-.18.19q-.047-.047-.089-.096l-.002.211c-.072-.105-.133-.223-.247-.288.007-.063.024-.128.005-.191-.238-.137-.48.062-.719.08-.133.039-.247.125-.375.175-.111-.012-.21-.073-.319-.093-.221.082-.461.084-.692.128l-.049-.136c-.083.11-.174.217-.231.344.048.04.091.086.138.128-.136.032-.221-.082-.309-.162l.072-.103c-.087-.011-.174-.024-.261-.017-.094.006-.161.079-.233.131l-.11-.142c-.065.016-.134.025-.194.055-.049.055-.084.121-.133.175-.047-.081-.099-.159-.14-.242-.013-.079.009-.159.014-.238-.103.051-.184.136-.284.193q-.04-.057-.075-.116l-.198-.012c.019-.039.011-.116.074-.101.059.023.111.06.166.092l.097-.099-.132-.085c.088-.1.171-.21.289-.276q.32-.219.608-.478c.036-.039.038-.096.057-.143a2 2 0 0 1-.172-.07c-.06.063-.119.137-.206.162-.121.011-.246-.013-.363.032l.012-.115-.155.06a.8.8 0 0 0-.205-.243q.05-.108.096-.218c-.064-.081-.113-.172-.17-.257l.044-.059q.083.056.171.105a.53.53 0 0 0-.169-.283l-.098.116c-.101-.07-.185.025-.239.106-.015-.068-.011-.149-.07-.197-.07-.054-.153-.087-.232-.124.042.11.113.205.169.308-.129-.06-.253-.129-.384-.184l-.013.146-.079-.009q-.016-.096-.027-.191c-.159-.063-.26-.211-.416-.279-.074-.026-.029-.118-.04-.176a1.3 1.3 0 0 1-.281-.188c-.151-.139-.358-.217-.467-.399.113.065.211.155.329.212.144.069.248.198.393.265a.5.5 0 0 0-.112-.184c.09-.045.12-.165.031-.229-.121-.083-.181-.261-.346-.267.089.156.264.257.298.445-.086-.078-.155-.174-.252-.24-.084-.056-.17-.108-.248-.173l.139.001a3 3 0 0 0-.001-.172q-.062.056-.118.118a.46.46 0 0 1-.172-.191c-.06-.129-.174-.22-.274-.317-.058-.011-.117-.004-.174-.002.045.068.093.134.132.207-.078-.023-.144-.069-.213-.111-.058-.009-.118-.005-.176-.008l.004-.193a.38.38 0 0 0 .31.01c-.139-.171-.366-.221-.573-.25-.139-.05-.305-.032-.413-.147-.338-.222-.559-.574-.877-.82a.56.56 0 0 1-.229-.196l-.042.064c-.103-.067-.197-.176-.332-.155.107.126.248.227.307.387-.123-.059-.262-.103-.362-.2-.058-.052.002-.122.013-.181q-.062-.015-.123-.023c-.041.028-.075.064-.112.097l-.046-.117-.08.13c-.099-.038-.218-.029-.3-.104-.156-.129-.306-.27-.486-.366-.122-.069-.201-.194-.328-.257-.195-.093-.304-.288-.432-.451-.041-.056-.107-.093-.138-.156-.046-.13-.154-.223-.209-.348-.04-.103-.149-.142-.238-.191.001.087.012.174.024.26a3 3 0 0 1-.221-.288c-.044-.067-.126-.09-.187-.137-.034-.043-.059-.092-.09-.137-.072-.029-.152-.02-.228-.013.021-.059.032-.122.051-.181q-.101-.085-.199-.173l-.05.065c-.097-.049-.203-.095-.272-.182-.07-.096-.088-.219-.165-.311l-.141.2c-.022-.05-.047-.099-.063-.15.017-.044.043-.085.064-.127a1.2 1.2 0 0 1-.313-.252l-.199.012.13-.123-.074-.078a.9.9 0 0 0-.178.31l.171.047c-.028.054-.037.131-.102.154-.057-.031-.11-.071-.171-.094-.052.104-.039.218-.008.326l-.119-.107c-.088.085-.165.187-.278.243-.097.049-.191.104-.288.154.041-.053.088-.099.124-.155a1 1 0 0 0-.003-.221.42.42 0 0 1-.273.034c-.077.05-.136.122-.201.186-.108-.011-.217-.041-.325-.025-.073.04-.13.106-.21.132-.204.063-.381.187-.579.267-.09.033-.148.116-.235.155l-.238.1c.027-.112.038-.226.057-.339.027-.081.065-.158.093-.239.028-.116.168-.154.204-.265.017-.082.001-.166-.005-.249l.085-.007c.017-.09.021-.186.072-.265s.114-.152.153-.238c.047-.098.065-.208.128-.299.075-.111.104-.244.147-.369.019-.075.044-.153.029-.23-.03-.072-.085-.131-.113-.204.03-.105.115-.188.129-.298.028-.172.112-.326.185-.481.025-.063.109-.114.08-.188-.02-.081-.114-.102-.161-.162-.078-.104-.08-.241-.13-.356-.04-.059-.097-.104-.135-.164-.038-.097-.024-.206-.06-.303-.049-.131-.132-.248-.165-.385-.033-.125-.037-.264-.12-.369-.089-.14-.262-.199-.334-.353l.114.008a1.6 1.6 0 0 0-.228-.481c.016.104.043.205.057.309-.138-.272-.222-.567-.337-.848C.42 9.928.32 9.74.237 9.544.184 9.426.202 9.29.148 9.173c-.082-.167-.02-.354-.043-.531-.009-.127-.074-.239-.105-.36a.8.8 0 0 1 .103-.229c.059-.022.124-.011.186-.013.021.133.014.269.034.402.031.101.121.17.195.241Q.482 8.585.44 8.489c-.055-.122-.018-.263-.07-.386-.037-.108-.126-.185-.184-.28a.5.5 0 0 1 .07-.15c.087.041.146.122.228.172.097-.049.081-.186.104-.278-.075-.103-.22-.146-.257-.278a.37.37 0 0 1 .067-.37.6.6 0 0 1 .304.198c.074.087.021.204-.004.299-.051.142-.001.291.023.433l.129-.008q.034.108.058.218c.081-.056.167.004.247.03a1 1 0 0 1-.072-.202c-.03-.144-.099-.278-.134-.421.03-.071.121-.123.194-.083.037.055.056.12.095.174.078.06.169.099.255.147.003-.238-.08-.465-.18-.676-.038-.075-.049-.159-.063-.241-.016-.091-.079-.165-.096-.255-.017-.092-.032-.185-.055-.276l.084.07c-.076-.204-.101-.424-.196-.621a.25.25 0 0 0 .222.002c-.045-.15-.089-.3-.123-.452.12.06.206.163.296.259.065.021.137-.004.204-.003.056.037.072.108.107.161.049.098.15.156.196.255.066.139.129.28.225.401.04.023.084.035.127.051.016.043.02.098.068.119.074-.032.145-.072.217-.108q.079.087.163.169l.041-.208.121.161.039-.152q.154.015.31.017l-.036.092q.074.085.136.18l-.181.061.131.088q-.042.045-.08.094c.016.057.086.057.131.078.039.11.11.202.193.284l.022-.195c.159.108.299.242.455.354.062.044.1.111.138.174q.009-.077.02-.152a1 1 0 0 0 .305.169c.171.047.223.242.356.341 0-.166-.089-.306-.139-.458.099.144.152.313.236.465.146-.045.264-.141.377-.24.055.118.098.241.161.356q.039-.04.075-.084c-.006-.086-.033-.171-.011-.258.051.077.088.166.162.225.11.092.188.214.273.328l-.008-.181q.1.062.194.136c.076-.098.022-.22.051-.33.109.028.076.181.141.26a1 1 0 0 1 .207-.145q.062.089.131.173.006-.093.001-.186c.08.033.184.012.244.085.058.07.15.083.232.107.046-.114.05-.235.046-.356q.061.058.119.12c.215.02.375-.14.503-.289l.211.023c.11-.133.246-.24.384-.343l-.019.152a1.6 1.6 0 0 1 .349-.215c.003-.094-.007-.195.053-.274.003.082-.002.165.004.247a.8.8 0 0 0 .126-.187l.086.034c.04-.059.072-.124.122-.175.048-.042.116-.032.174-.041.038-.079.054-.188.147-.221a.4.4 0 0 0 .199-.169q.09-.005.179-.014l-.09-.072c.063-.076.113-.162.173-.24l-.011.197q.171-.141.344-.28l-.053-.17c.086-.012.182-.001.256-.054.083-.069.128-.178.23-.226.087-.04.141-.121.207-.187.077-.011.156-.003.234-.01l.006-.134c.08.005.174.039.24-.026.125-.105.266-.188.408-.268l-.068-.124c.293.02.442-.268.655-.412q.002-.104.014-.206.033.083.059.167.466-.287.95-.543c.134-.068.192-.231.337-.281.288-.102.521-.305.778-.464.159-.103.315-.211.478-.306.183-.111.321-.277.467-.43-.134-.248-.336-.456-.447-.717-.077-.184-.263-.286-.357-.458-.102-.186-.206-.371-.284-.568-.035-.089-.154-.137-.142-.244.009-.094-.02-.184-.036-.276Zm1.792 3.358c-.7.748-1.408 1.49-2.107 2.24-.39.437-.804.851-1.206 1.277-.451.496-.893 1.001-1.354 1.489-.255.279-.525.545-.768.834-.104.148-.242.341-.154.527.392.876.818 1.736 1.268 2.584.168.34.369.665.527 1.01.259.52.488 1.058.81 1.543.374.649.653 1.345.996 2.01.459.808.977 1.581 1.428 2.394.191.322.36.658.585.958.243-.343.48-.69.692-1.053.111-.189.192-.394.293-.589.166-.333.352-.656.514-.99.428-.815.974-1.567 1.34-2.415.215-.502.468-.988.712-1.477.318-.621.64-1.24 1.008-1.833q.404-.76.799-1.522c.101-.208.211-.422.228-.656.021-.175-.108-.312-.198-.447-1.244-1.666-2.735-3.122-4.189-4.599-.417-.42-.804-.868-1.225-1.285ZM.906 8.249c.008.053-.03.144.042.163.056.017.116.012.174.012-.05-.083-.116-.157-.217-.175Zm-.433.49a.35.35 0 0 0 .071.174c.08.099.142.209.212.315-.064-.174-.087-.413-.283-.489m30.16 8.43c-.002.107.121.169.207.209.009-.06.023-.119.029-.179.075-.041.112-.116.125-.198-.127.032-.335-.004-.361.168M9.481 19.336c.028.104.051.223.14.294.162.122.338.236.541.275q.024-.093.045-.187l-.14.064c-.085-.067-.186-.107-.284-.149-.089-.11-.174-.228-.302-.297m.742.557c.039.042.093.063.135.102q-.009-.08-.02-.158zM15.088.488a1 1 0 0 0-.062-.203c-.013.076-.029.171.062.203m1.756 1.981c-.042.031.011.103.054.072.042-.032-.011-.103-.054-.072m1.881.956q-.022.068.047.048.021-.069-.047-.048M3.375 6.944c-.035.03-.015.1.031.107.071-.008.035-.145-.031-.107m.62 8.919c-.054-.003-.057.086-.002.086.054.004.056-.088.002-.086m-.522.096c-.05-.003-.066.087-.008.086.051.003.066-.087.008-.086m.429.035c.006.109.095-.053 0 0m.128.065q-.065.033-.001.066.064-.033.001-.066m-2.286.356c-.027.004-.095.053-.043.073a.14.14 0 0 0 .106-.036c.038-.042-.037-.06-.063-.037m.881 0q-.066.033-.002.065.066-.035.002-.065m3.346 1.181a.7.7 0 0 0 .168.209c-.021-.093-.071-.181-.168-.209m.115.259c-.045.028.002.105.047.071.045-.029-.003-.106-.047-.071m-.096.299c-.046.028 0 .107.045.069.046-.028 0-.106-.045-.069m16.655 1.202c.22-.136.42-.303.62-.466-.22.135-.439.28-.62.466m-2.009 2.631q-.061.138-.127.273c.138-.097.271-.2.419-.281.049-.028.077-.079.11-.122-.133.046-.259.115-.401.13zm-7.882.245c-.055.094.109.01 0 0m5.946 1.393a1 1 0 0 0 .109.034q.02-.155.001-.309-.062.135-.11.275m-1.475.693c.004.11.097-.051 0 0m1.053.396q-.027.08.055.052.026-.08-.055-.052"/></svg>