<svg xmlns="http://www.w3.org/2000/svg" width="431.99" height="274.998" viewBox="0 0 431.99 274.998"><path d="M248.553 0c-43.236-.001-79.11 10.7-110.17 30.133C163.147 17.407 193.306 9.07 225.65 9.07a187 187 0 0 1 23.504 1.479c88.051 11.149 150.75 75.158 142.494 141.74-7.408 59.748-71.041 102.066-147.644 102.066-8.766 0-17.69-.553-26.73-1.697-53.074-6.72-97.618-32.292-122.84-66.125 55.887-14.673 173.33-16.879 290.837-21.42L0 166.59c27.508 3.097 52.748 3.287 63.695 35.008 3.783-4.802 11.127-8.853 21.41-12.303 27.422 49.559 91.034 85.234 165.366 85.7l1.466.003c99.105 0 179.578-62.787 180.051-138.353C432.465 60.71 349.978.632 250.203.005 249.653.004 249.1 0 248.553 0m76.51 23.773c17.547 6.31 33.391 14.688 47.189 24.96.73.542 1.441 1.094 2.156 1.644l-6.537 6.52a157 157 0 0 0-3.723-3.877c-11.323-11.354-24.505-21.176-39.085-29.247m-24.875 17.079c-.635.463-2.35 1.486-4.903 1.336-1.318-.08-2.154-.295-2.963-.506-.998-.258-2.028-.528-4.01-.53-4.57 0-9.514 3.369-9.689 9.614-.172 6.044 3.68 12.47 10.418 12.765 3.91.178 11.736-1.977 15.215-3.459l1.297-2.148c-3.272.979-4.647 1.36-9.69 1.74-.592.046-1.164.068-1.703.068h-.004c-3.06 0-5.307-.739-6.674-2.193-1.693-1.802-1.771-4.331-1.646-6.332.227-3.697 3.302-7.451 5.978-7.281 3.143.207 4.759 1.03 5.368 5.107l.931.248c.451-1.883 1.887-4.815 2.807-5.734-.07-.341-.4-1.54-.733-2.695m-25.198.185c-2.619.608-6.316.824-8.73.824-1.385 0-2.527-.061-3.25-.18l-.418.813c4.318 1.67 4.093 6.418 3.972 8.99-.016.36-.03.679-.03.94 0 5.35-1.311 10.029-3.35 12.006l.38.85c1.363-1.709 4.868-3.05 8.118-3.05 1.285 0 2.43.217 3.324.627l.514-.595c-4.161-3.48-3.95-5.875-3.702-8.64.06-.686.125-1.393.125-2.151 0-4.78.25-8.534 3.344-9.604zm-18.59.494c-.627.456-2.3 1.458-4.806 1.309-1.275-.073-2.527-.325-3.848-.59-1.676-.336-3.402-.682-5.369-.707l-.14-.002c-2.09 0-8.934.701-9.184 9.705-.16 5.687 4.675 11.66 9.761 12.059 1.06.085 2.017-.168 3.159-.47 1.148-.301 2.452-.645 4.265-.784 1.553-.108 3.502 1.041 4.098 2.35l1.258.34c-.012-.177-.031-.375-.049-.589-.223-2.429-.676-7.43 4.502-8.367l-.79-1.328c-.42-.121-1.331-.186-2.58-.186-2.645 0-6.481.311-7.657.717l-.309.836c1.771-.132 3.4.79 3.498 1.945.049.542-.215 1.865-3.63 2.456-2.71.472-4.829-.067-6.257-1.584-2.11-2.24-2.13-5.968-2.039-7.467.201-3.26 2.793-6.75 6.328-6.75.275 0 .555.02.832.062 3.037.45 5.414 1.112 6.018 5.057l.908.238c.443-1.842 1.846-4.711 2.748-5.617-.068-.335-.393-1.505-.717-2.633m-73.908.1-1.006 1.557c.797.392 3.408 1.697 4.055 2.29.914.844 1.191 1.74.78 2.524-1.696 3.24-2.898 4.361-3.352 4.783q-.358.324-.356.664c0 .377.322.671.326.674h.002q.019.021.032.047c.18.174.556.583 1.437 1.539.457.462.625.46 1.3.01.376-.195.72-.29 1.05-.29.51 0 1.23.233 1.76 1.337.186.382.426.867.7 1.431 1.737 3.532 4.968 10.108 5.798 13.21.656 2.444-.384 3.787-4.573 7.343l1.227 1.318c1.963-1.46 5.228-2.263 9.236-2.263 3.172 0 6.594.53 9.658 1.498l.487-1.15c-.584-.675-1.528-1.282-2.524-1.924-1.022-.656-2.076-1.336-2.79-2.135-1.079-1.132-1.273-1.983-1.637-3.528a49 49 0 0 0-.163-.687c-.822-3.396-5.464-13.513-7.13-16.4-2.326-4.002-3.164-8.298-2.166-11.02a35 35 0 0 0-1.373-.736c-1.336.557-3.221.675-4.584.675-2.457 0-5.09-.385-6.194-.767m24.598.156-1.108 1.334c1.703.627 9.891 3.667 11.088 4.6a.2.2 0 0 1 .051.058c1.016 1.614 3.533 9.025 3.758 11.944.105 1.36-.262 2.047-.49 2.334l.96 1.136c.849-.722 2.25-1.117 3.995-1.117 1.775 0 3.773.4 5.644 1.125.193-.257.394-.528.483-.668-3.434-5.056-5.617-10.64-7.285-18.625l-2.088-1.666c-1.152.472-2.86.711-5.076.711-4.006 0-8.584-.784-9.932-1.166m-51.715.703a115 115 0 0 0-1.355 1.752c.836.143 2.798.54 3.667 1.092.994.632.82 1.65.473 3.018-.475 1.863-1.693 4.962-1.746 5.093-.268.48-.359.78-.299.97.061.193.302.341.694.532l2.015.953q.389.165.627.166c.238 0 .43-.108.639-.642l.053-.123c.246-.578.66-1.544 1.136-2.057l.063-.064c.258-.28.549-.596 1.029-.596.246 0 .512.083.813.254 1.104.606 5.917 5.215 9.345 16.646 2.551 8.508 2.148 11.475 1.95 12.217l1.857 1.04c.922-1.638 4.621-5.777 7.607-6.487-.484-2.33-1.485-4.958-2.222-6.89-.328-.865-.612-1.608-.772-2.12-1.41-4.57.686-7.585 1.121-8.144.518-.59.548-1.006.114-1.444l-1.41-1.578c-.017-.019-.297-.38-.715-.38-.238 0-.494.12-.75.355-.48.37-1.11.852-2.204 2.084a.23.23 0 0 1-.162.076.23.23 0 0 1-.166-.068c-1.375-1.41-2.513-3.407-3.72-5.522-.697-1.219-1.416-2.48-2.22-3.695-.442-.674-.855-1.278-1.228-1.828-1.264-1.86-2.122-3.125-2.26-4.282zm54.076 6.95c-.334.06-.596.293-.674.52-.566 1.636-1.55 3.977-3.033 5.849-2.002 2.528-2.227 4.97-.687 7.47.006 0 .103.065.525.065.371 0 .885-.049 1.475-.104.828-.08 1.858-.178 2.931-.178.752 0 1.426.047 2.059.143l.148-.377c1.041-2.652 1.673-4.252 3.19-4.799.414-.174.562-.48.474-.99-.166-.998-.187-1.126-.57-1.836-.14-.28-.402-.412-.805-.412q-.081 0-.134.004c-1.533.114-2.505.509-4.036 1.627a.22.22 0 0 1-.257.006.23.23 0 0 1-.09-.242c.188-.724.539-1.408.912-2.133.424-.822.86-1.674 1.033-2.586.221-.633-.101-.962-.31-1.104q-.008-.008-.02-.015c-.164-.11-1.395-.826-1.777-.905a1 1 0 0 0-.354-.004m172.483 7.132c17.96 15.79 30.132 34.3 35.738 54.117l-17.906 2.68c-4.393-17.272-12.987-33.929-25.48-49.164Zm-226.85.989c-.143 0-.35.046-.496.445 0 .003-.02.053-.022.055-.227.563-.61 1.519-1.48 3.623-.254.607-.613 1.656-1.031 2.869-1.236 3.602-3.11 9.046-5.088 11.558-1.268 1.604-3.232 2.978-3.826 3.375l.617 1.149c1.738-1.444 5.725-2.906 10.062-2.906.9 0 1.793.061 2.666.183v-.885c-.264-.11-.827-.397-1.56-1.058-2.361-2.112-.736-6.15.568-9.397.258-.639.5-1.244.692-1.783.68-1.92 1.46-3.637 1.882-4.56l.104-.229c.349-.915.09-1.073-.48-1.316l-2.028-.932c-.232-.131-.422-.191-.58-.191m63.012 12.902-.139 2.023h.361c.182-.752.561-1.238 1.594-1.238h.297v7.145h-.814v.402h3.77v-.402h-.794v-7.145h.299c1.03 0 1.41.486 1.594 1.238h.36l-.138-2.023h-.396v.207h-5.598v-.207zm30.916 0c-2.691 0-4.797 2.024-4.797 4.607 0 2.385 1.492 3.926 3.8 3.926 1.04 0 1.995-.329 2.915-1.002l.252-.185.644.984h.233v-3.775c0-.365.098-.579.285-.766l-.08-.166a1.3 1.3 0 0 1-.471.105h-3.162v.4h1.52v3.364h-.298c-2.242 0-3.476-1.387-3.476-3.908 0-2.58 1.242-2.967 1.982-2.967.582 0 1.168.35 1.168 1.014 0 .18-.043.349-.117.492l.197.3 2.268-1.454-.203-.307-.393.254-.162-.11c-.799-.534-1.512-.806-2.105-.806m-20.362.123-2.66.918v.148l.447-.154v7.123h-.474v.172h2.713v-.172h-.496V74.6l.058-.079c.307-.418.727-.658 1.147-.658.72 0 1.09.402 1.09 1.192v3.564h-.487v.174h2.686v-.174h-.46v-4.224h-.001c0-.548-.186-1.465-1.426-1.465-.855 0-1.373.383-2.121 1.013l-.486.412V70.98l.47-.167zm40.053 0-2.66.918v.148l.445-.152v7.121h-.472v.174h2.71v-.174h-.496V74.6l.057-.079c.311-.417.73-.658 1.149-.658.72 0 1.085.402 1.085 1.192v3.564h-.482v.174h2.686v-.174h-.46v-4.224h-.001c0-.548-.186-1.465-1.426-1.465-.852 0-1.371.382-2.117 1.013l-.49.412V70.98l.472-.167zm19.621.428c-.41 0-1.082.374-1.082.8 0 .327.192.495.569.495.35-.001 1.35-.146 1.35-.79 0-.164 0-.505-.837-.505m-25.097.496c-.418.833-1.204 1.496-2.163 1.824v.186h.625v4.076c0 .999.37 1.388 1.315 1.388.66 0 1.27-.334 1.799-.703l-.047-.074a1.3 1.3 0 0 1-.502.107c-.41 0-.822-.277-.822-.808V73.52h.998l.076-.403h-1.074v-.806c0-.233.006-.493.04-.756zm41.253.435c-.61 0-.69.156-.79.457l-.23.725-.25-.035a5 5 0 0 1-.296-.053c-.277-.05-.59-.11-1.062-.11-1.18 0-2.553.61-2.553 2.333 0 1.234 1.045 1.829 1.941 1.965l.256.039v.463l-.193.097a14 14 0 0 1-1.924.584l.342.33c.148-.016.297-.023.459-.023.3 0 .61.027 1.006.062l.437.04v.536l-.262.057c-.41.048-.976.354-.976.803 0 .65.663.98 1.976.98.602 0 2.32-.261 2.32-1.425.002-1.163-1.974-1.38-2.923-1.483l-.266-.027-.002-.498.389-.125c1.479-.375 3.006-.765 3.006-2.479 0-.918-.51-1.349-.846-1.633-.199-.167-.353-.298-.353-.511 0-.33.225-.576.525-.576q.154.001.266.04l.115-.529zm-49.125.752-.615 1.672.307.115c.322-.425.731-.923 1.52-.923.704 0 1.144.436 1.144 1.138v.617h-2.05c-1.052 0-1.759.814-1.759 2.026 0 .984.7 1.644 1.735 1.644.682 0 1.2-.364 1.619-.72l.37-.317.198.846h2.031v-.172h-.406V74.75c0-1.226-.682-1.822-2.076-1.822-.529 0-1.02.092-1.43.267l-.611.266.232-.693zm21.622.23c-1.594 0-2.844 1.305-2.844 2.971 0 1.903 1.078 3.086 2.818 3.086 1.117 0 2.033-.44 2.787-1.345l-.097-.108c-.403.351-.942.541-1.553.541-.887 0-1.537-.451-1.885-1.308l-.115-.285 3.65-1.336c-.498-1.47-1.423-2.215-2.761-2.215m7.404 0c-.301 0-.537.735-.647 1.087l-.07.22-.07.2h-.508l-.025-.3v-1.116l-1.971.529v.107l.406-.166v5.131h-.433v.172h2.8v-.172h-.629v-3.488l.05-.074a1.28 1.28 0 0 1 1.097-.608c.314.021.596.102.853.194l.565-1.588-.192-.067-.17.287-.244-.125c-.344-.17-.501-.222-.812-.222m11.38 0c-.765 0-1.35.46-1.966.946l-.483.377-.033-.586v-.644l-2.215.603v.13l.45-.128v4.996h-.45v.172h2.69v-.172h-.498v-4.07l.101-.09c.303-.266.683-.598 1.243-.598.564 0 .972.363.972.86v3.896h-.484v.174h2.662v-.174h-.436v-4.176c0-1.02-.507-1.515-1.552-1.515m-58.837.003c-1.592 0-2.844 1.302-2.844 2.968 0 1.903 1.08 3.088 2.818 3.088 1.104 0 2.041-.452 2.79-1.347l-.1-.108c-.402.352-.94.543-1.553.543-.887-.002-1.537-.453-1.88-1.31l-.12-.285 3.653-1.336c-.5-1.47-1.428-2.213-2.764-2.213m52.135.093-2.2.624v.142l.46-.09v4.922h-.487v.172h2.648v-.172h-.421zm12.689.114c1.244 0 1.65 2.169 1.65 2.916 0 .286 0 1.152-.96 1.152-1.245 0-1.653-2.167-1.653-2.914 0-.285 0-1.154.963-1.154m-65.217.166c.896 0 1.248 1.082 1.438 1.664l.088.27-.258.122-1.969.748-.076-.335a4 4 0 0 0-.069-.262c-.072-.268-.154-.574-.154-.979 0-.77.373-1.228 1-1.228m40.05 0c.894 0 1.248 1.079 1.439 1.66l.087.27-.257.126-1.971.748-.072-.335c-.018-.088-.046-.173-.067-.262a3.4 3.4 0 0 1-.158-.979c0-.77.375-1.228.998-1.228m-19.542 2.183h.67v1.524c0 1.016-.545 1.228-1.002 1.228-.318 0-1.064-.131-1.064-1.355 0-.81.59-1.397 1.396-1.397m44.988 3.452.248.156.04.021c.433.272.878.553.878 1.29 0 .481-.293.769-.783.769-.539 0-.822-.483-.822-.961a1.9 1.9 0 0 1 .277-1.03zM101.82 94.528l-2.076 2.37-43.84 50.028-10.107 11.535h41.685l2.086-2.805 2.553-3.431h4.748l-.933 6.236H258.58l1.871-4.022 3.574-7.681 1.672 6.484 1.344 5.219h58.426l2.086-2.805 2.552-3.431h4.749l-.934 6.236h37.607l.268-6.678 1.988-50.027.285-7.229h-34.265l-2.076 2.371-24.784 28.282 9.631-20.776 4.578-9.877h-35.988l-1.86 4.047-3.593 7.809-1.53-6.496-1.261-5.36h-78.432l-1.867 4.03-2.215 4.773c-3.908-5.842-11.618-8.803-22.927-8.803h-30.526l-1.869 4.03-10.018 21.617.733-18.418.287-7.229h-31.114zm1.125 2.482H133.5l-.186 4.646-1.226 30.84L147.336 99.6l1.2-2.59h28.941c10.584 0 17.654 2.67 21.017 7.935a12.3 12.3 0 0 1 1.76 4.616l4.617-9.961 1.201-2.59h74.881l.813 3.445 3.183 13.525 6.612-14.369 1.197-2.601h30.506l-2.944 6.35-16.894 36.449 36.168-41.276 1.336-1.523h30.554l-.185 4.646-1.99 50.028-.172 4.293h-32.338l.77-5.131.163-1.106h-8.877l-3.298 4.434-1.34 1.803H268.96l-.863-3.356-3.405-13.2-6.498 13.972-1.2 2.584H155.233l-.494-3.91-.162-1.276-1.2 2.594-1.198 2.592H98.816l.77-5.131.166-1.106h-8.88l-3.298 4.436-1.342 1.803H51.273l6.498-7.416 43.838-50.03zm2.026 4.469-43.838 50.029h22.853l4.639-6.237h16.313l-.934 6.237h22.855l1.99-50.03zm46.42 0-23.188 50.029h21.12l7.429-16.059h.393l2.029 16.059h24.904l-5.363-16.256c-.543-1.459-1.506-2.257-2.25-2.986l.19-.399a55 55 0 0 0 3.21-.896q.757-.238 1.47-.492c3.334-1.193 5.978-2.687 8.155-4.772q.467-.446.906-.93a20 20 0 0 0 1.653-2.097v-.002q.388-.566.756-1.176v-.002a28 28 0 0 0 1.892-3.795v-.002c1.69-4.166 1.648-7.418.309-9.88a8 8 0 0 0-.858-1.266 9.4 9.4 0 0 0-1.73-1.616h-.002a12 12 0 0 0-1.43-.892c-1.278-.685-2.766-1.224-4.424-1.627a32 32 0 0 0-4.28-.713 48 48 0 0 0-4.805-.23zm57.535 0-23.19 50.027h40.586l6.375-13.666h-18.836l2.221-4.912h16.629l6.035-13.004h-16.629l2.264-4.778h18.207l6.295-13.667zm47.76 0-23.19 50.029h20.649l11.507-26.276 6.776 26.276h20.648l23.19-50.03h-20.647l-11.678 27.735-6.529-27.734zm86.27 0-43.839 50.029h22.856l4.638-6.237h16.313l-.934 6.237h22.854l1.99-50.03zm-178.247 14.414h1.178c1.82 0 3.43.177 4.148.607.359.215.508.409.567.78.058.37-.027.987-.434 1.87-.785 1.68-1.96 2.565-3.416 3.094-1.458.53-3.202.65-4.943.65h-.332zm181.861 4.136c-.412 1.467-.863 2.93-1.11 4.42v-.01L344 132.65h-6.582zm-237.988.01c-.41 1.464-.86 2.924-1.105 4.41l-1.46 8.202h-6.583zm311.25.139a92.3 92.3 0 0 1 1.373 16.4c-.087 13.791-3.117 27.31-9.006 40.303l-13.562-5.777a104.4 104.4 0 0 0 3.709-17.487 108 108 0 0 0-.602-30.732zm-229.396 10.564c-2.178 1.628-4.595 2.846-7.243 3.82l2.276 6.895zm-10.653 39.461c-7.518.596-14.796 1.238-21.804 1.932q-4.677.463-9.114.95a678 678 0 0 0-16.806 2.042 475 475 0 0 0-14.96 2.25c-7.026 1.179-13.38 2.44-19.095 3.793-5.568 1.318-10.51 2.727-14.893 4.227q-.035.011-.07.021v.002c-3.834 1.315-7.242 2.7-10.207 4.166a56 56 0 0 0-3.28 1.754 42 42 0 0 0-4.206 2.77c-5.48-12.053-13.262-19.07-22.414-23.381Zm215.606 10.063 12.408 5.287c-7.992 14.194-19.175 27.09-33.277 38.37l-4.526-5.811c11.06-11.124 19.705-23.868 25.395-37.846m-137.89 8.21c-7.772 0-13.081 4.48-13.081 11.296 0 6.592 5.277 11.07 12.857 11.07 4.03 0 7.58-1.252 9.946-4.117 2.143-2.615 2.399-5.23 2.463-8.29h-12.442v4.284h5.117c-.256 2.42-2.333 3.645-5.052 3.645-4.125 0-6.366-3.31-6.366-6.565 0-3.2 2.145-6.621 6.27-6.621 2.527 0 4.35 1.336 5.213 3.338l5.95-2.168c-2.08-3.923-5.919-5.871-10.876-5.871m-106.085.696v20.975H165.2v-4.62h-7.515v-16.355zm66.62 0-9.276 20.975h6.652l1.664-3.645h8.635l1.566 3.645h6.686l-9.084-20.975zm63.357 0v11.795c0 2.698.127 5.367 2.525 7.398 2.016 1.724 5.182 2.336 7.996 2.336s5.98-.61 7.996-2.336c2.398-2.03 2.526-4.7 2.526-7.398v-11.795h-6.266v11.043c0 2.726-.227 5.703-4.256 5.703s-4.254-2.977-4.254-5.703v-11.043zm-99.436.002v20.973h13.723v-4.617h-7.451v-3.618h7.068v-4.617h-7.068v-3.506h7.45v-4.615zm136.215 0v20.973h13.72v-4.617h-7.452v-3.618h7.068v-4.617h-7.068v-3.506h7.453v-4.615zm-96.78 6.479h.065l2.559 6.675H218.8Zm141.487 29.113 3.883 4.988c-26.396 18.656-59.085 30.246-94.192 33.512 35.917-4.788 67.311-18.532 90.309-38.5"/></svg>