<svg xmlns="http://www.w3.org/2000/svg" width="30.998" height="32.001" viewBox="0 0 30.998 32.001"><path fill="#444" d="M20.694.001c.728.409 1.158 1.153 1.522 1.874.232.593.257 1.242.252 1.871-.013.807.07 1.643-.224 2.415-.22.809-.89 1.383-1.15 2.176q.31.142.6.322c.423-.147.756-.473 1.185-.603 1.182-.297 2.305-.785 3.486-1.087 1.11-.174 2.372-.117 3.269.647.396.36.845.662 1.364.812-1.098.183-2.264.146-3.284.648-.77.32-1.541.659-2.181 1.204.707-.254 1.506-.408 2.229-.134.478.267.96.55 1.362.925.35.276-.025.708-.091 1.042-.37-.774-1.387-1.227-2.198-.898-.576.23-1.291.291-1.71.792-.383.979-1.071 1.857-1.134 2.941-.014.725.117 1.459-.042 2.178q.08.09.166.178c-.135.379-.19.78-.22 1.179l.157.108c-.262.563-.72.986-1.212 1.348-.392.267-.631.744-1.102.889-.538.63-1.07 1.277-1.742 1.77.755-.949 1.575-1.849 2.265-2.85-.762.621-1.52 1.257-2.203 1.967l-.195-.002c-.372.44-.782.85-1.12 1.32-.241.339-.395.737-.67 1.053-.167.171-.423.145-.64.164l-.164.136c-.035-.017-.103-.053-.137-.071a5 5 0 0 1-.82.514c-1.19.54-2.238 1.387-3.062 2.395-.603 1.008-1.267 2.004-1.625 3.133a41 41 0 0 0-.391 1.644c-.21-.755-.643-1.461-.62-2.267.007-.651-.016-1.305.013-1.956.062-.511.167-1.017.268-1.521.148-.689.688-1.182 1.057-1.755.399-.62.872-1.187 1.27-1.807-.33.03-.64.142-.947.261q-.915.253-1.83.499c-.413.116-.75.398-1.13.585-.63.317-1.136.817-1.685 1.25-.536.514-1.157.939-1.637 1.511-.595.68-.941 1.524-1.423 2.279-.264.427-.398.917-.57 1.385-.052-.456-.08-.916-.163-1.367-.214-1.056.122-2.111.144-3.168a4 4 0 0 1 .375-1.648c.26-.563.432-1.175.8-1.683.409-.569.83-1.131 1.312-1.64.296-.315.677-.534.972-.85.226-.24.435-.496.643-.752-1.412.123-2.885.172-4.192.778-.566.35-1.148.733-1.526 1.296-.54.757-1.201 1.418-1.75 2.167-.257.325-.223.749-.237 1.139-.225-.44-.432-.911-.365-1.419.103-.902-.016-1.823.19-2.713.198-.655.41-1.309.727-1.917.226-.446.589-.801.827-1.241.35-.608.874-1.084 1.307-1.629.263-.314.279-.74.403-1.114.195-.6.428-1.196.473-1.832.06-.702.225-1.404.58-2.018.209-.337.285-.731.443-1.088.26-.308.593-.544.86-.845.362-.474.968-.628 1.422-.989.308-.251.685-.377 1.076-.415.208-.214.427-.434.722-.521.474-.13.767-.604 1.267-.673.622-.09 1.224-.294 1.856-.315l-.041-.127c1.06-.201 2.15-.397 3.229-.21.308.067.61-.203.63-.507.08-.516.236-1.095-.07-1.569-.426-.709-1.284-.892-1.956-1.276.963-.026 1.986.124 2.8.675.344.215.735.414.934.786.242.452.477.918.56 1.43.386-.513.946-.855 1.323-1.373.289-.361.72-.589.969-.985.205-.349.284-.759.294-1.161.005-.565.046-1.146-.141-1.691zm-9.321 10.322c-.463.34-.811.803-1.197 1.223-.366.286-.566.722-.83 1.095-.14.371-.172.777-.301 1.156a2.9 2.9 0 0 0 1.008-.465c.253.096.505.196.76.289a2 2 0 0 1 .38.311c.027-.049.079-.149.105-.199.07.487.464.823.586 1.291l.172.15c.002.335.062.814.516.763-.28.24-.557.484-.84.722-.213.074-.51.054-.65.256-.072.319-.022.648-.002.97q.263-.224.512-.464l.039.316c.213-.285.46-.544.74-.764.309-.313.78-.185 1.17-.289l-.117.182c.234.03.487.057.534.341.437-.248.82-.585 1.285-.781-.375.451-.745.917-1.007 1.445-.086.203-.203.437-.112.658.112.214.29.383.433.575q.244-.123.489-.24c-.074.238-.11.518-.332.671-.178.198-.527.314-.515.624-.051.344.316.539.6.596.32.054.537-.236.726-.444l.19.069c.47-.594 1.26-.767 1.745-1.337l.262-.051c.244.536.678.951.919 1.489.438-.186.794-.523 1.246-.682.32-.14.685-.197.969-.413.322-.307.473-.737.634-1.14l.152.046.035-.148c.103-.069.253-.115.26-.265.097-.583.004-1.175-.04-1.759q-.184.195-.377.382c-.191.294-.376.591-.568.885-.102-.622-.005-1.345-.46-1.848-.156-.191-.183-.444-.24-.675l-.165.067-.067-.217-.148.2c-.418-.688-.897-1.367-1.043-2.177l-.24.227c.132-.922.645-1.705 1.067-2.514-.353-.007-.705-.054-1.06-.061-.422-.014-.79.228-1.147.423l-.227-.108c-.333.092-.694.148-.97.369-.253.216-.335.557-.45.854-.083-.643-.586-1.058-.977-1.521l-.207.384q-.125-.364-.262-.725a5 5 0 0 1-.581-.783c-.822.298-1.654.586-2.402 1.045z"/></svg>