<svg xmlns="http://www.w3.org/2000/svg" xml:space="preserve" width="98.275" height="85.02" overflow="visible" viewBox="0 0 98.275 85.02"><path fill="#231f20" d="M28.273 36.104 49.138 0l20.867 36.104c-5.328-5.368-12.71-8.692-20.869-8.692s-15.537 3.324-20.863 8.692M57.441 85.02h40.834l-20.77-35.936a29.4 29.4 0 0 1 1.035 7.73c0 13.354-8.906 24.622-21.1 28.206M19.737 56.814c0-2.677.364-5.266 1.034-7.73L0 85.02h40.833c-12.191-3.584-21.097-14.852-21.097-28.206M45.8 43.85l-.223-.867s-.465.098-.908.27l-.893.312.504 1.245 1.082-.376.917 2.996s.1-.046.26-.077c.158-.038.37-.088.58-.135.21-.061.426-.084.588-.105l.269-.035-.372-3.11s.28-.05.567-.067l.572-.019-.04-1.343-.296.011c-.177.012-.416.004-.65.042l-.943.124.147.886c-.008-.035-1.16.248-1.16.248m3.51.46-1.106.038.2 2.679.649-.021a3 3 0 0 1 .448.004l.205.015.103-1.788.513.034.277-2.671-1.262-.078Zm2.539-1.521-.084.44-.605-.099-.065.443-.33 2.212s-.485-.084-.487-.069l-.141 1.336.093.004.243.042c.202.034.47.078.736.124.264.068.527.139.724.19.099.023.18.044.236.071l.088.034.284-.85.143-.424.712-2.122.143-.424s-.143-.055-.29-.1l-.296-.08.125-.43s-1.222-.33-1.23-.298m2.548 5.75c.105.06.248.139.374.245l.523.388.841-1.048c.01-.01.373.325.373.325l.593-.672s-.395-.359-.406-.35l1.402-1.743s-.38-.285-.761-.567c-.185-.149-.391-.265-.542-.359-.15-.093-.254-.155-.254-.155l-.542-.326-.643 1.18.49.293-1.622 2.683zm4.181-2.442-1.183 1.347.41.37-1.242 1.29-.351-.319-.592.672.252.23c.159.127.342.327.521.53.18.202.372.397.481.57.122.16.2.271.2.271l.727-.525s-.143-.189-.282-.381a2 2 0 0 0-.206-.25c-.06-.067-.101-.109-.101-.109l1.353-1.175 1.35-1.174s-.318-.355-.639-.704zm2.38 2.688-.258-.35c-.187-.254-.378-.51-.378-.51l-2.452 1.95s.145.197.294.395c.072.101.147.2.2.275.06.072.09.126.09.126l-1.124.738.445.746 1.969-1.059-.544-.918.376-.246.563.952 1.578-.847-.647-1.09s-.04-.066-.112-.162m-.294 4.525c.074.187.103.385.143.53l.057.243 2.18-.508s-.027-.118-.07-.29c-.047-.17-.083-.406-.17-.63l-.308-.895s-.094-.301-.237-.584l-.265-.572-4.032 1.944s.374.787.347.798l.143.41.85-.278-.157-.449 1.257-.475zm2.736 2.765-3.127.164.017.492.895-.007.01.269c-.01.131-.018.265-.018.265l-2.236-.084-.029.433-.015.298c-.016.08-.023.135-.023.135l4.44.563c.033.002.101-1.261.101-1.261l-.896-.032s.01-.15.017-.298l-.008-.296.895-.006zm-4.599 2.395s-.059.43-.072.425l-.22.842.853.267-.162.446.42.151.172-.463 1.28.4.283-1.07c.01.002.093-.544.093-.544l-.44-.078s-.08.528-.092.526l-.437-.095c.013.002.087-.508.087-.508l-.438-.074s-.075.486-.086.485l-.876-.19c.011.002.078-.448.078-.448zm3.01 4.934.278-.568c.065-.143.134-.286.185-.393.05-.105.073-.182.073-.182l.221-.593-.422-.153-.211.575-1.243-.512.193-.519-.843-.305-.178.483-1.242-.514.156-.425-.42-.153-.093.256c-.05.158-.135.355-.238.548l-.256.54-.143.232.387.224.12-.193c.06-.1.101-.204.101-.204l2.783 1.444c.026.015-.596 1.025-.596 1.025l.378.24.376.24s.664-1.077.634-1.093m-.981 1.62-1.1-.772c.027.02.611-.966.611-.966l-1.937-1.118s-.482.817-.507.8l-.367-.256s.071-.088.136-.183c.057-.1.114-.195.114-.195l-.376-.24-.112.186c-.061.09-.128.174-.128.174l-.26.35a7 7 0 0 0-.175.24c-.052.063-.094.103-.094.103l-.291.317 1.644 1.517.363-.393 1.71 1.44c.02.02.769-1.003.769-1.003m-4.687 1.03.271.359.54.712.271.358.54.714s.126-.095.319-.237c.193-.137.416-.364.654-.574.483-.408.897-.891.897-.891l-.656-.603-.33-.306-.329-.301-.375.404-.41.373-.302-.33.397-.36-.317-.316-.945-.952-.337.301-.302-.332-.32.294c-.167.137-.346.262-.346.262l.27.354zm-1.59 1.029.304-.182c.223-.13.44-.261.44-.261l.714 1.137s-.978.597-.994.569l.609 1.196c.015.033 1.1-.626 1.1-.626l.27-.164c.134-.082.26-.181.26-.181l-2.54-3.685s-.084.069-.178.126l-.187.109-.374.223c-.093.054-.187.11-.255.153-.075.032-.124.055-.124.055l.81 1.595zm-2.493 3.713.617-.147s.612-.149.608-.162l.598-.206-1.489-4.221s-.206.07-.414.145c-.1.042-.206.063-.286.08s-.132.03-.132.03l.668 2.601-.54.128zm-.46-2.189-.46-2.19s-.106.024-.211.051l-.216.027-.43.059s-.429.067-.429.05l.165 2.232-1.069.034-.011.895 1.144-.036.035.447-1.187.038-.015.895 1.265-.042c.002.019.63-.069.63-.069l.627-.084-.362-2.208.265-.04c.128-.028.26-.059.26-.059m-6.456.046c-.01.03 1.063.305 1.063.305l.63-2.61s-.844-.214-.834-.239l-.287.848s-.22-.083-.444-.165c-.113-.04-.222-.08-.307-.112l-.134-.063-1.44 3.278c-.01.029 1.18.454 1.18.454zm2.507 2.376c.317.02.632.042.632.042l.27-4.47s-.217-.01-.434-.024c-.216-.017-.43-.063-.43-.063l-.066.443-.449-.073-.515 2.637c-.008.029-1.112-.275-1.112-.275l-.124.434-.124.429-.126.43s1.22.33 1.229.297l.085-.437.086-.439.586.094-.133.885s.31.061.625.09m-7.222-2.893.234.177 1.857-2.526.397.296.748-1.117s-1.05-.773-1.023-.803l-.889 1.006-.364-.33-2.178 2.255s.353.317.704.637c.172.166.374.292.514.405m-1.66-1.492 2.599-2.466.158.176c.08.086.172.162.172.162l.622-.643c-.021.02-.596-.634-.596-.634l-.673.588-.162-.175c-.08-.086-.145-.187-.145-.187l.704-.554-.39-.525c-.105-.126-.177-.273-.238-.376l-.105-.175-.771.456.242.41c.13.197.277.384.277.384l-2.904 2.095s.276.385.572.758c.319.35.638.706.638.706m-2.823-4.332.458.983c.162.358.391.687.535.946l.253.424.748-.493-.605-1.019 3.157-1.692c0 .002-.569-1.178-.535-1.189l-.147-.412-1.276.418.166.467-2.093.788-.838.317.046.126c.03.082.066.202.131.336m-.484-1.336.095.279 2.551-.836s-.047-.118-.084-.244l-.063-.248 1.724-.481s-.088-.315-.159-.634c-.059-.318-.112-.64-.112-.64-.012.003-.044-.43-.044-.43l-2.23.212s.047.532.058.53l.092.527-2.2.408s.072.47.206.927c.059.228.12.456.166.63m-.548-2.81.038.434c.013.117.029.195.029.195l1.774-.248s-.015-.069-.026-.172c-.01-.105-.021-.242-.035-.38l-.047-.55 1.79-.09s-.006-.119-.006-.237v-.239l.895-.004-.002-.435.034-.43-2.675-.224-.044.553-.893-.036-.897-.033v.632l.897-.006s0 .15.002.296c0 .15.006.298.006.298l-.894.044zm1.027-3.63-.884-.152s-.05.313-.097.626c-.046.313-.063.63-.063.63l1.34.112s.04-.574.055-.572l3.106.399.069-.428c.02-.108.034-.215.048-.295l.034-.134.103-.422-4.324-1.15-.153.614.876.19s-.04.144-.065.29zm.393-4.06c-.088.154-.184.37-.275.589-.092.22-.183.435-.254.6-.069.161-.101.276-.101.276l.42.154-.193.58 3.843 1.208s.069-.206.136-.414c.03-.103.074-.204.108-.276l.054-.128-2.069-.855.21-.49c.113-.243.243-.476.243-.476l-1.987-1.034s-.053.107-.135.265m1.003-1.725c-.064.101-.148.235-.234.366l-.338.537 2.328 1.345s-.122.227-.24.454c-.062.113-.12.225-.166.311a1 1 0 0 0-.067.145l1.622.758s.236-.493.517-.956a8 8 0 0 1 .614-.895l-1.416-1.094-.31.41-2.197-1.543s-.052.059-.113.162m1.533-1.885c-.119.135-.277.309-.435.486-.327.348-.605.731-.605.731l1.772 1.368.159-.215c.079-.107.172-.202.172-.202l1.711 1.442s.573-.652.59-.635l-1.574-1.59-1.575-1.59s-.087.08-.215.205m.906-.855c-.122.101-.235.212-.235.212l3.006 3.318s.074-.08.16-.147l.17-.135.338-.271-.81-1.073c-.01-.013.407-.276.407-.276l.761 1.106.726-.475-.657-1.17-.221-.387-.86.557q-.166.107-.32.203l-.255.206c-.15.122-.252.202-.252.202l-1.712-2.069s-.12.1-.246.199m2.326-1.641-.532.341-.533.348s-.53.343-.52.356l1.08 1.43.269.357s.05-.044.131-.102a48.417 48.417 0 0 0 .756-.49l.448-.288-.219-.391-.464.3-.238-.38.48-.311zm-8.056.208q.01-.017.011-.015l-.631-.516-.579.766c-.143.194-.286.385-.393.528a2 2 0 0 0-.168.248l.68.452s.051-.105.16-.238q.087-.114.195-.262l2.663 1.895.611-.816-2.538-2.057zm1.59-2.834 2.45 2.736.274.304s-.097.084-.24.212c-.143.126-.34.29-.506.486-.343.374-.689.748-.689.748l-.31-.267.709-.767c.013-.017 0 0 0 0l-.292-.286-.725.784-1.853-1.599.414-.454-.597-.554.433-.467s.053-.06.136-.145c.076-.094.198-.202.318-.307zm.628-.557c-.092.078-.149.131-.149.131l2.624 3.126s.048-.04.12-.105c.069-.067.164-.149.271-.22l.414-.299.412-.3-.927-1.345.141-.103c.086-.06.197-.149.32-.215l.487-.285-1.26-2.1-.552.324c-.14.076-.266.175-.365.246l-.162.116.696 1.008-.486.353-.725-.987-.515.38c-.136.09-.256.193-.344.275m5.706-.647-.512.237-.177-.369.523-.244-.33-.748-1.088.506v.002l-.561-1.088c-.008-.013-.557.313-.557.313l1.39 2.496-.946.553.664 1.033.88-.518a4 4 0 0 1 .616-.33l.29-.135.462-.214zm1.122 1.284.479-.17v.002l.482-.171c.12-.042.24-.086.33-.119.09-.034.153-.047.153-.047l-.465-1.567.543-.136-.206-.79-.57.143-.464-1.564s-.078.017-.19.059l-.415.145-.603.212.422 1.15-.565.2zm3.727-2.64.213 1.617-.505.075s-.25.038-.506.074l-.494.122-.64-2.786-.584.145-.31-1.183s.463-.116.93-.23c.232-.067.468-.098.646-.127l.295-.042.632-.095.27 2.023-.57.084.065.406zm2.515.245a4 4 0 0 0-.57.006l-.255.015-.105-2.856-1.274.067.406 4.064 1.019-.051.239-.014a3 3 0 0 1 .526-.006l.763.037.071-1.223s-.41-.018-.82-.039m.34-2.435.007-.41-.637-.023.003.409.01 2.04 1.12.05.12-2.04zm1.423 3.786.507.073.061-.405.52.073.6-3.212-.622-.087.063-.405-.633-.09c-.158-.02-.317-.046-.435-.063-.12-.019-.199-.02-.199-.02l-.366 4.066s.065 0 .158.019c.096.013.222.032.346.051m2.385-3.732-.878 3.988.494.122.497.12s.126.023.244.07l.24.087.752-2.334-.275-.095c-.137-.056-.28-.08-.28-.08l.338-1.18-.611-.15.101-.394zm3.357 1.038c-.45-.164-.903-.326-.903-.326l-1.376 3.845.722.254.692.332.52-1.111c.215.101.478.225.743.353.308.15.592.345.815.473l.369.222.652-1.035-.391-.236c-.24-.14-.544-.348-.874-.51l-.794-.378.691-1.478zm1.442.68-.553 1.09s.416.178.792.426l.773.466.652-1.036-.82-.494c-.403-.264-.844-.453-.844-.453m-.076 4.662.815.616.406.302c.107.07.191.17.264.23l.118.11.538-.613s-.048-.048-.122-.114c-.076-.065-.166-.168-.277-.243a33 33 0 0 0-.43-.318l1.997-2.588-1.023-.765zm5.583 1.258-1.572 1.3c.025-.018.647.856.647.856l1.652-1.2s-.7-.977-.727-.956m-.25 4.8.432.928 1.126-.486s.055.124.114.25c.057.124.095.253.095.253l1.521-.597s-.045-.143-.107-.28c-.06-.136-.125-.273-.125-.273l-.02.01 1.145-.495-.54-1.158zm5.431 3.262-.074-.311-.796.177c-.076-.297-.15-.595-.15-.595l-1.583.403s.067.274.138.545l-1.197.268s.03.125.065.251c.037.126.048.258.048.258l1.202-.227 1.607-.303.8-.153s-.014-.16-.06-.313m.407 3.685-.01-.2-1.631.047.007.185c.002.109.025.258.012.403l-.027.588-.815-.027c.008-.166.015-.397.023-.563.015-.141-.008-.279-.01-.384-.003-.107-.007-.177-.007-.177l-.817.025.01.166c.002.1.023.234.01.37l-.026.534.002.002-.41-.015.025-.521-.408-.002-.025.511-.023.508 4.074.265.03-.637s.012-.319.027-.64c.012-.158-.007-.318-.011-.438m-.082 2.355-2.44-.237-.16 1.11 2.42.392zm-.985 4.497c.095-.282.248-.654.33-1.047l.38-1.552-.399-.078-.374 1.52c-.08.386-.23.749-.326 1.027l-.162.46.383.14zm-.384 1.07-.757-.303.019-.053.496-1.391c.174-.506.271-1.038.376-1.426l.158-.652-1.202-.235-.137.557-1.99-.452-.24.988 1.95.58c-.027.09-.054.184-.087.273-.166.476-.335.949-.461 1.302-.006.02-.014.034-.02.051l-.377-.152.376-1.057-1.552-.514-.34.962c.016.006-.205.467-.205.467l1.87.821 1.122.492.746.329s.27-.579.255-.586m-1.263.81.735.356-.412.862-.49.82-.701-.417-.319.525-2.75-1.764.397-.656c.098-.166.2-.324.271-.452l.102-.218.725.376.23-.485 1.474.703-.254.53.729.376zm-2.251 3.642.736-.98-2.692-1.848-.617.814-.305.407-.347.374 1.524 1.359-.778.843 1.435 1.454.866-.94.433-.47-1.88-1.572.338-.447zm-2.475 3.702.957-.848-1.665-1.797c.21-.185.423-.37.557-.533.145-.154.238-.257.238-.257l-.886-.845-.221.24c-.124.153-.323.323-.52.495l-.278-.301-.76.679.258.319.258.316c.01.014-.428.323-.428.323l.496.647s.456-.325.449-.338l.515.633c.01.014-.467.355-.467.355l.99 1.298s.519-.372.508-.387m-2.634 1.801-.82-1.414-1.227-2.116s.217-.132.437-.26c.112-.065.221-.13.303-.175.078-.058.13-.094.13-.094l.826-.6.246.325-.422.308.949 1.328-.464.337h-.002l.227.34s.15-.112.254-.183c.134-.1.221-.162.221-.162l.953 1.328s-.1.069-.245.175c-.148.102-.332.258-.54.376zm-1.122.613c.145-.067.288-.138.397-.19l.172-.099-.968-1.797-.154.09c-.098.047-.227.106-.357.167l-.521.243.851 1.855zm-9.209-1.946-1.019-.044-.237 3.258 1.225.053zm3.023 3.044-.38.057c-.227.032-.527.092-.838.095l-.069-.814c.004.032 1.166-.145 1.166-.145l-.183-1.214s-1.072.17-1.087.14l-.104-1.22-.509.025-.51.028.046 2.04.573-.028.023.404-.588.033.017.816.021.815s.637-.032 1.277-.067c.32-.005.633-.066.872-.099.234-.034.393-.06.393-.06zm-7.118-1.096.563-2.387s-.248-.059-.494-.12c-.126-.03-.25-.061-.342-.082a1 1 0 0 1-.153-.044l-.238.783-.504-.182-1.05 3.092s.115.042.283.1c.057.02.122.045.189.066l.133.047a.3.3 0 0 0 .067.017c.046.018.092.029.14.042.225.061.41.103.41.103v-.001l.622.154.187-.794-.595-.149.211-.788zm-.906-2.807-.481-.17-.481-.171-.462-.216-.336.746-.483-.23-.713 1.469.53.25-.67 1.49.582.27.601.215 1.289-3.437.492.172zm-2.348-.994s-.057-.028-.145-.068c-.082-.048-.189-.115-.3-.182l-.438-.263-1.485 2.442-.635 1.048.82.49c.206.125.432.212.59.292l.271.13.534-1.1s-.1-.049-.254-.121c-.099-.05-.286-.137-.286-.137zm-3.72 2.544c.1.063.171.103.171.103l2.227-3.42-.136-.084-.284-.21c-.204-.15-.41-.297-.41-.297l-2.439 3.27s.258.191.515.378c.132.094.26.191.355.26m.77-4.542s-.285-.254-.573-.507a3.4 3.4 0 0 1-.38-.36l-.164-.176-1.17 1.139.18.192c.103.12.26.262.418.4l.631.556-.265.313-.43-.381-.429-.382a8 8 0 0 1-.397-.414l-1.463 1.426s.213.236.444.457l.475.428.832-.92.441.409-.794.935s.48.423.489.412l2.542-3.197c-.01.012-.386-.33-.388-.33m-2.671-.315 1.206-1.1-.35-.37-.312-.402-.315-.402-.325.246c-.002 0-.332-.408-.316-.418l-1.67 1.176c-.013.01.353.469.353.469l-1.305.98.393.505.397.501.435.47.603-.552-.42-.448.311-.265.41.437.603-.55-.39-.42-.003.002.311-.267zm-3.996-1.22.229.354.002-.002.347.538 1-.706-.324-.503 2.389-1.571-.279-.427c-.069-.107-.137-.214-.19-.294l-.075-.141-3.544 2.022.092.176c.065.1.15.236.235.37v.002zm-.286-7.18 1.599-.33s-.12-.498-.109-.5l-.065-.505-.067-.506-1.624.18.075.557-1.21.17-.082-.594-1.217.134.082.633.087.63s.008.08.035.198c.026.117.063.273.095.43l.141.624 2.382-.573zm-2.823-3.307.056 1.279 1.221-.097-.027-.6 1.224-.057.024.561.813-.063-.02-.536.816-.038s-.053-1.02-.023-1.02l.023-.509-4.078-.196-.029.637 1.224.023c-.02 0 0 .6 0 .6zm.126-2.55c-.02.157-.042.316-.059.436l-.007.199 1.625.131.01-.183.053-.4.08-.583-1.616-.234zm2.029.23c-.021.14-.038.283-.052.39-.005.11-.01.18-.01.18l1.222.099s.002-.069.008-.168c.013-.101.03-.233.05-.364l.072-.533-1.212-.175zm1.713-2.495.789.22.477-1.455-1.909-.73s-.133.41-.269.82l-.187.563c-.051.15-.08.256-.08.256l-1.967-.546-.143.624-.002-.002-.145.622s-.147.622-.132.626l1.206.214c-.015-.004.126-.586.126-.588l.399.086s-.138.569-.122.572l.805.143c-.015-.003.118-.547.118-.547l.397.082s-.132.532-.112.536l1.204.214c-.01-.002.059-.304.105-.498l.002.002.116-.496-.803-.199.01.002zm-2.952-1.48 1.56.486.37-1.116-1.527-.584zm8.414-13.015-.605-1.053-.977.593.654 1.02zm-2.979-1.506.681 1.004.498-.3.993-.6-.605-1.054-.605-1.053-1.094.664.657 1.023zm3.59 1.144.337-.159.49-.233-1.753-3.646s-.29.137-.578.278c-.143.069-.288.138-.4.187-.108.052-.175.098-.175.098l1.93 3.555s.057-.042.148-.08m3.07-2.182.003.002.528-.19-.238-.775-.548.2-.002-.002h.002l-.26-.767-.515-1.532-1.206.431.59 1.504c-.11.042-.214.078-.302.108-.158.052-.259.11-.259.11l-.628-1.493-.58.275.998 2.211.525-.25s.095-.053.25-.103l.292-.105.147.378c-.136.048-.27.098-.37.13a2 2 0 0 0-.163.073l.47 1.12s.059-.035.156-.069c.096-.032.223-.08.35-.124l.51-.181v-.002l.508-.18zm.173-1.349-.596-1.933s.11-.047.286-.086l.643-.162q.158-.04.312-.076v-.002l.211-.052.413-.103.62-.152.322 1.585-.584.147.092.393.359 1.577c.307-.079.534-.134.534-.134l.08.397-1.048.263c-.263.065-.526.128-.725.178-.196.042-.322.093-.322.093l-.12-.385s.127-.054.332-.097c.059-.014.13-.03.2-.05l-.439-1.555-.305.074c-.162.036-.265.08-.265.08m3.76 1.233.325-.048.212-.03v-.002l.536-.078-.242-2.416-.596.086-.204-1.605-1.269.185.704 3.986zm2.153-.218-.206-4.04-.641.031.307 4.034zm1.082-.057-.002-.805q.136-.004.28.01l.842.04.036-.81-.868-.042q-.15-.01-.292-.01v-.402c.096 0 .195 0 .296.01.443.019.885.042.885.042l.096-2.023s-.481-.019-.96-.042a3 3 0 0 0-.32-.01v-.001l-.117.005c-.078.002-.156.008-.225.01-.18.008-.298.015-.298.015l.105 4.042zm3.236.26.535.076c.135.021.269.038.37.052a1 1 0 0 1 .168.032l.467-2.38.584.142.178-.79-.605-.145.158-.796s-.078-.023-.198-.036c-.118-.02-.277-.042-.435-.063l-.636-.094-.175 1.202-.605-.087-.147 1.204.576.084zm3.641-.863h.002c.273.094.548.191.548.191l.124-.385-.56-.193.236-.775.578.2.378-1.154-.605-.21-.191-.061-.43-.105-.622-.153-.975 3.926s.264.063.525.128c.134.03.263.062.365.085.095.035.158.056.158.056l1.025.355.408-1.143-1.082-.374zm1.792.193v.002c-.307-.109-.559-.195-.559-.195l-.135.382s.248.084.55.189l-.579 1.513.158.053c.1.03.224.08.346.14.244.114.492.227.492.227l.815-1.851s-.223-.107-.508-.233l-.03-.013.154-.372c.302.131.548.25.548.25l.653-1.481s-.433-.206-.876-.393l-.909-.317-.541 1.526.564.195zm2.529.233-.558-.258.52-1.097.87.403.834.479-.598 1.059-1.39 2.463s-.236-.135-.47-.273a3 3 0 0 0-.481-.248l.362-.721c-.28-.13-.51-.233-.51-.233l.518-1.1s.24.112.538.247l.363-.723zm1.599.893.622-1.042.83.486.782.563-.7.99-.698.993s-.235-.174-.472-.338l-.223.336c.233.164.462.332.462.332l-.7.992s-.87-.639-.888-.612l.216-.342H61.1l-.477-.276.832-1.391.51.3.432-.682zm.782 3.947c.113.078.223.155.294.227l.126.113 2.57-3.126-.152-.132a3 3 0 0 0-.346-.269l-.52-.378-2.41 3.248s.217.159.438.317m2.195.83 2.236-2.34-.479-.425-.48-.427-2.384 2.755-.264.305.81.716.282-.294-.412-.362.273-.304zm1.954-.305-.409-.443-1.72 1.712.367.4h.002l.367.397.3-.272.375.406-.307.263.183.199c.08.107.164.215.164.215l.327.434.318-.248-.332-.443 1.254-1.021-.18-.237-.198-.215 1.534-1.319-.87-.94zm3.98 2.377-1.685 1.123-.047-.08a1.4 1.4 0 0 0-.113-.169 9 9 0 0 1-.176-.238l.329-.23 1.326-.928-.771-1.025-.39-.511-.625.51.376.497-.642.496.365.483-.324.237-.357-.472-.96.746.336.447.34.448s.083.113.17.224c.043.057.081.116.108.16l.044.076-.672.449.56.927 3.472-2.072zm-2.44 3.777c.05.09.133.2.187.324l.23.489.724-.36.48 1.012.743-.326-.498-1.05.72-.362.516 1.086.74-.325-.532-1.124.724-.362-.277-.578c-.065-.15-.159-.28-.216-.384-.065-.103-.105-.172-.105-.172l-3.524 1.989zm5.117 2.68.384-.125-.433-1.21-.216-.603-.75.307.208.586-1.885.723-.19-.536-1.125.462.181.508.378-.144h-.002l.372 1.039 1.924-.63.1.282c.05.141.097.286.097.286l1.162-.349s-.046-.15-.1-.3zm-1.095 4.01-.796.133-.082-.556-.793.155.076.538.078.534 1.603-.23 2.402-.342-.188-1.27-2.382.46zm2.582.865-4.019.474s.088.534.07.536l.026.542.026.54.808-.034-.03-.561 2.829-.193-.033-.63.403-.036c.017-.002-.08-.638-.08-.638m.162 2.317-.017-.397-.405.015.02.395q.002.107.01.237l-.404.008q-.009-.127-.013-.235l-.017-.387-.807.036s.005.149.017.376c0 .067.006.145.011.225l-.404.006-.03-.592-.808.036.029.57-1.214.024s.03.542.013.542l.808.004-.027.56-.403-.013-.051 1.101.805.067.807.065.056-1.183.402.013-.027.6.81.045.026-.62.405.013c-.015.361-.029.628-.029.628l.405.025.059-1.282c.017-.319-.021-.641-.027-.882m-1.687 2.862c0 .113-.015.262-.04.41l-2.414-.253-.156 1.074.4.06-.055.389c-.047.315-.107.702-.126.698l1.586.324c.021.006.11-.578.11-.578l1.991.36.093-.634-.801-.125.09-.614.801.103.09-.633c.027-.159.042-.32.044-.44.005-.122.01-.2.01-.2l-1.613-.13zm.779 3.03-1.189-.246-.143.585-2.362-.545-.256 1.051.39.113s-.028.135-.072.265l-.09.261.774.239s.045-.136.093-.27c.046-.137.073-.274.073-.274l2.725.769.303-1.244-.395-.094zm-2.176 1.963-.387-.12-.19.548-1.533-.517-.178.513 1.521.555.378.14-.19.559 1.883.738.628-1.817zm-2.194 4.156 2.133 1.157-.646 1.11-1.037-.631-.307.53-2.38-1.534.272-.47.269-.467.377-.641c.107-.172.16-.298.16-.298l.72.369s-.055.127-.166.307q-.05.083-.105.181l.355.195c.038-.065.074-.13.109-.185a3 3 0 0 0 .168-.315l.362.187c-.002-.002-.059.131-.175.318zm.485 2.384s-.06.103-.164.242l-.193.267-1.674-1.137-.666.93-.326-.247.656-.912-.666-.45-.95 1.314.317.25v.002l.952.756.338-.47v-.001h.002l1.288.973.647.49.563-.782c.143-.195.28-.391.385-.536.109-.143.17-.25.17-.25zm-2.786 1.713-1.552-1.297-.357.404.91.802-.38.427-.375.428 1.158 1.127.872.848.428-.481-.893-.824.404-.457.912.802.424-.483s.431-.475.42-.485l-1.582-1.259c.008.01-.387.446-.39.448m-2.453.869c.208-.19.416-.378.545-.544l.235-.262-.595-.55-.223.255c-.125.16-.327.341-.527.522l-.796.735-.395.37c.01.014-.43.332-.43.332l1.52 1.893s.484-.357.473-.37l.445-.408.267.301-.45.416.782.926.475-.433.94-.872zm-.674 4.786 1.023-.773-.762-.947-.486.368-1.718-2.251-.433.328.714.98-.002-.001-.456.347s-.109.094-.233.166l-.244.145 1.548 2.37.274-.166c.14-.08.262-.185.262-.185l-.69-.998.493-.36zm-1.81.723-.539.324-.202-.35.528-.32-1.278-2.064.662-.397c.092-.054.166-.101.212-.14l.078-.059-.46-.668s-.025.023-.074.06a2 2 0 0 1-.206.133l-.638.386-.927.563-.231.139-.244.114.376.72.25-.122.24-.145.199.355-.245.146-.26.124.75 1.434.275-.132c.054-.03.159-.092.268-.15l.19.346.197.355.195.351 1.097-.66zm-3.825.649-.17.08c-.099.053-.24.103-.383.154l-.905-2.253-1.02.362.264.764v.001l-.528.19.736 2.312c.012.054-1.8.489-1.8.489l.186.786s1.565-.374 1.859-.502l.603-.214-.397-1.149.576-.206.426 1.138s.301-.11.603-.216a4 4 0 0 0 .41-.164l.18-.088zm-2.712 1.406-.791-2.717-1.052.26.187.787c-.008.002-.275.07-.544.136l-.168-.792s-.26.082-.53.109l-.534.076.192 1.198.565-.082.296 1.592-.605.087.19 1.2.636-.095c.319-.034.626-.126.626-.126l-.248-1.188.592-.147zm-3.177-.542-.574.084-.218-1.603s-1.07.164-1.072.132l.341 4.032s.321-.004.638-.065c.318-.044.635-.09.635-.09l-.217-1.607.595-.085zm-2.26 1.059-.121-2.017-.554.027-.013-.405-.538.027a2 2 0 0 1-.372.004l-.17-.01-.04 2.832-.304-.015-.917-.042-.077 1.211.96.046c.141.008.28.012.409.017q.048.001.112.006l.14.006h.087c.13-.004.214-.012.214-.012.32-.011.64-.026.64-.026l-.056-1.618zm-2.404.025.096-2.426-1.084-.05-.105 1.213c-.004.015-.569-.067-.569-.067l-.318 2.814s.637.086.637.073l.143-1.612Zm-2.726-1.893 1.11.16.09-.803-1.073-.155.002-.002s-.23-.03-.48-.066l-.056-.008c-.135-.012-.265-.06-.364-.08l-1.218-.296-.416 1.565.565.137-.187.786c-.336-.08-.586-.143-.586-.143l-.103.391-.31 1.174.621.15.624.151.17-.79c.3.079.603.145.836.17l.383.054-.13.801.636.09.22-1.603-.596-.086zm-3.643.376.248-.77.002-.001.538.185.113-.39-.531-.18.124-.386.521.18.113-.39-1.537-.53-.14.38-.287.757h.002l-.141.38.55.19-.132.382-.561-.196-.556-.193-.02-.01-.52-.238-.32.744-.48 1.112.583.268.454-1.126c.288.1.572.2.576.2l-.143.382-.282.757.91.317c.227.076.454.155.624.214s.286.093.286.093l.11-.387s-.11-.034-.278-.094l-.317-.108.123-.386q.172.061.312.107a6 6 0 0 0 .275.094l.342-1.166s-.107-.033-.265-.086zm-1.525-.958.605-1.502-1.477-.677-.177.364-.25-.116c-.193-.079-.367-.191-.502-.267a8 8 0 0 0-.223-.13l-.588 1.06s.093.056.236.136c.142.082.325.203.529.287q.133.058.261.118l-1.07 2.179.584.267 1.017-2.202zm-3.32-1.212 1.025-1.744-.468-.271s-.473-.265-.464-.28l-.444.673c-.006.013.358.22.482.288l-1.068 1.723-.002.002c-.145-.084-.529-.309-.521-.32l-.666 1.017c-.008.013.548.33.548.33l1.11.647.556.32.372-.715-.537-.313.197-.353.527.305.376-.716-.512-.297zm-1.723-.616.484.35.668-1.014-.465-.334.463-.666-.45-.323.239-.326s-.22-.158-.437-.317l-.18-.126-.042-.032c-.038-.021-.072-.05-.107-.077l-.02-.015c-.03-.023-.054-.047-.08-.068l-.005-.006h-.002c-.078-.069-.148-.14-.213-.191l-.19-.17-1.047 1.235.202.18c.128.102.277.266.458.385l.237.17-.244.32-.15-.109c-.087-.067-.217-.145-.322-.248l-.442-.391-.264.31.453.396c.107.105.236.183.326.252.09.067.15.107.15.109l-.244.322-.248-.18c-.192-.127-.349-.295-.482-.404l-.216-.19-.786.927s.09.08.225.196c.141.117.307.29.508.424q.132.099.26.189l.129.093c.221.163.391.285.391.285l.52.374zm-3.471-4.1c.215.236.395.428.395.428l-.582.561-.615-.662-.204-.221-.303.265c.414.45.83.899.83.899l-.292.28-.844-.912h-.002l-.303.265q0 .002-.01-.01l.866.937-.29.283s-.434-.473-.87-.944c-.22-.235-.438-.468-.572-.668-.147-.191-.242-.319-.242-.319l.316-.25.317-.252.082-.065 1.187-.937.351.466 1.244-1.034s.039.055.111.128l.254.273.368.396zm-.518-3.192-.656.47-.338-.449.668-.452-.563-.927-1.038.631.594.977.003-.002-1.677 1.134-.647-1.057-.69.42.667 1.091.771 1.029 2.265-1.703.342.457.952-.752zm-2.99.638 1.021-.659-.603-.992 1.399-.805s-.138-.233-.28-.466l-.235-.488-.36.183-.241-.494-.727.35.246.514-.36.185-.507-1.047-.368.168.515 1.062-.357.185-.526-1.083-.739.334-.736.332.28.578.73-.351.268.559-.72.37.283.576c.164.273.328.55.328.55l1.056-.607zm-.355-4.046c.046.096.079.16.079.16l1.104-.497-.072-.153c-.04-.092-.115-.208-.155-.34h.002l-.112-.301-.077-.204-.19-.508-.187-.506-1.918.643.206.556-1.9.69.45 1.203 2.61-1.101c.042.137.116.26.16.358m.08-3.385-.282-1.046s-.044-.127-.063-.263l-.046-.267-1.189.242.048.28c.012.077.04.188.067.28l-.393.089a2.5 2.5 0 0 1-.088-.39l-.03-.177-.397.08.032.182c.013.11.044.253.088.397l-.395.09a3 3 0 0 1-.09-.403l-.03-.185-.395.08.03.189c.017.11.048.263.092.408l-1.185.273.332 1.238.78-.22.162.602a3 3 0 0 0 .128.405c.038.11.067.183.067.183l.77-.258-.068-.175a3 3 0 0 1-.124-.395c-.076-.289-.156-.579-.156-.58l.39-.111.154.57 1.93-.597zm-.574-2.643-.032-.19-.014-.077-.002-.006-.036-.212-.01-.066c-.022-.266-.041-.521-.041-.521l-.405.04-.403.042.05.559-2.408.303c-.036-.274-.046-.54-.067-.752l-.036-.484-.807.063.038.498c.032.3.038.702.12 1.097l.273 1.58.794-.162s-.046-.254-.107-.613l2.389-.425-.095-.548.4-.063.094.54.397-.069zm-2.954-.788.805-.08-.093-1.177-.807.042zm2.733-1.36-.03-.373c-.008-.1-.003-.17-.003-.17l-.404.012.015-1.103-2.425-.055.007-.61-1.213-.058-.01.643-.004.355-.002.284-.007.641 3.236-.087s-.006.072 0 .175l.033.386.042.559.807-.063zm-1.996-2.85-.03.292-.005.294 2.017.096.006-.271c.017-.134.029-.27.029-.27l-.405-.028.06-.548.402.039.11-1.079-1.2-.175-.059.569-2.813-.34-.131 1.276zm-.786-6.419-.18.615.777.232-.176.598-.78-.216-.18.618c-.05.153-.066.311-.093.428-.025.116-.04.196-.04.196l2.368.527s.015-.073.034-.18c.027-.104.042-.251.088-.389.082-.276.162-.555.162-.557l1.561.428.153-.521.149-.52zm4.415-.261-1.496-.617.212-.54-1.48-.652-.228.578-.748-.31-.467 1.193 3.81 1.357zm-.84-1.157c-.053.092-.074.163-.074.163l.74.326s.022-.069.071-.159c.046-.093.109-.215.17-.335l.366.17.485-.968-1.427-.761c0-.002.253-.523.267-.516l-1.41-.793c-.014-.008-.287.547-.287.547l-.711-.38-.577 1.15 2.563 1.203zm.007-4.196c-.244.397-.492.794-.492.794l.693.414.479-.767.158-.254 1.01.674q-.075.118-.151.242l-.453.73.695.413.435-.702.147-.233.336.223s.034-.057.09-.143c.05-.09.127-.2.211-.305.166-.214.33-.43.33-.43l-3.25-2.41s-.194.256-.387.514a3 3 0 0 0-.253.359l-.105.17.671.45q-.079.129-.164.261m3.815.223.328-.429c.076-.11.166-.214.237-.286.07-.073.114-.122.114-.122l-2.14-1.853s-.054.055-.13.141c-.08.084-.18.198-.272.32v.003l-.31-.256v-.002c.089-.126.192-.244.274-.328l.13-.141-.613-.531-.135.147a4 4 0 0 0-.283.34c-.192.255-.389.51-.389.51l.64.497zm-.716-4.098q.106-.12.21-.228l.573.573c-.07.07-.136.145-.207.221l-.608.662.897.817s.288-.317.58-.63c.145-.16.288-.316.412-.42l.2-.177-.557-.586-1.114-1.175-.279-.294-.221.202a5 5 0 0 0-.464.468l-.653.708.6.544s.314-.344.631-.685m2.483.437L31.71 37.55l.48-.428.476-.425 2.048 2.505.255.313.256.311-1.206 1.09c-.315.26-.582.565-.786.79l-.344.374-.3-.273.35-.38.023-.026-.292-.28c-.04-.04 1.017-.999 1.626-1.545l-.264-.307zm1.02 24.278c-.026.013-.413-.931-.413-.931l-.754.31-.208-.493-.763.288.217.517-2.263.939s.488 1.179.517 1.166l.296.565 1.084-.573-.28-.53 1.102-.54.262.498.36-.193.359-.187-.248-.475zm-.778-1.883-.153-.489-.156-.485-.395.107s-.032-.126-.06-.255l-.056-.256-.794.193.06.267.062.267-2.756.754.193.606.193.611s.196.607.21.603l.763-.29c-.01.004-.114-.322-.196-.58l.381-.13s.183.57.197.567l.765-.288c-.013.004-.189-.544-.189-.544Zm1.838-14.2-2.382-1.581-.31.513-1.04-.647-.33.546 2.474 1.43-.284.468 1.078.582.282-.461.248-.413zm28.194-4.902-.294-.326-.147-.136-.864.867c-.222-.204-.44-.409-.44-.409l-.003.004.002-.004.838-.893s-.235-.217-.472-.433c-.118-.107-.234-.216-.324-.298-.088-.084-.155-.126-.155-.126L60.208 43.4s.057.039.133.11c.077.068.176.163.277.255.128.12.298.275.403.37l-.838.897.376.345a2 2 0 0 1 .26.266q.03.038.066.076l.025.029.338.38 3.062-2.703zM53.405 74.08l.546-.14-.332-1.177-.51.124-.097-.395s-.989.25-.996.222l.73 4.017s.32-.035.626-.124l.62-.153zm3.685-1.353-.367-.729-.971.452-.16-.376.95-.442-.183-.365-.926.43s-.11.06-.233.103l-.24.086-.48.167-.484.172.615 1.949s-.136.051-.273.091l-.277.069.554 1.965s.152-.038.307-.08c.154-.042.301-.1.301-.1l.605-.213-.269-.767.576-.206.294.76.302-.105c.149-.054.292-.128.292-.128l-.952-2.252Zm11.022-17.058 1.22-.074-.032-.641s-.003-.078-.017-.197c-.015-.118-.038-.276-.06-.435l-.096-.633-4.032.635.076.504c.017.126.038.254.052.347.01.094.01.159.01.159l.814-.077.027.536.814-.05-.028-.562 1.217-.11zm.473-4.474-.048-.193c-.04-.113-.091-.265-.145-.416l-.212-.603v.002l-.213-.603-.758.3.204.58-2.307.824-.177-.506-.762.3.172.482-.002.002.172.477c.04.124.084.243.116.332l.038.157.12.496 1.19-.305-.132-.533z"/></svg>