<svg xmlns="http://www.w3.org/2000/svg" xml:space="preserve" width="196.855" height="313.5" style="clip-rule:evenodd;fill-rule:evenodd;stroke-linejoin:round;stroke-miterlimit:2" viewBox="0 0 196.855 313.5"><path d="M59.428 258h9.75l13.5-16.5-24.75-91.5-11.25-12c8.396-21.57 25.103-38.457 37.5-56.25.534-1.645.273-2.601-1.5-2.25-9.295 2.678-13.048 7.906-12.75 15-10.291.154-16.124-11.337-19.5-29.25-.707-3.75 9.308-5.329 55.5-27.75l23.25-20.25c4.36 2.885 7.7 6.5 10.5 10.5l-24.75 18c-11.522-.589-19.838 2.999-24 12-2.365 5.623-4.993 8.087-8.25 3-.32-2.215-1.423-2.854-3.75-1.5-12.14 7.75-14.75 15.5-13.5 23.25 12.987-12.66 22.69-16.036 28.008-7.295 3.935 6.468-1.95 15.145-24.258 45.545l15.75 15.75 13.5-16.5 13.5 16.5 15.75-15.75c-7.745-10.554-17.573-24.624-17.573-24.624l7.093-7.596c13.174 15.526 25.047 31.628 32.98 49.47l-11.25 12-24.75 91.5 13.5 16.5h9.75l-39 55.5zm25.5 49.5-29.25-42h-3.75l-3 4.5c-7.05-.686-10.976 29.521-3 37.5h2.25c3.173 7.235 13.543 6.007 15 0zm27 0 29.25-42h3.75l3 4.5c7.049-.686 10.975 29.521 3 37.5h-2.25c-3.173 7.235-13.544 6.007-15 0zm0-48-10.5-14.25 9.75-70.5-12.75 12.75-12.75-12.75 9.75 70.5-10.5 14.25 13.5 20.25zM55.678 228c-14.522-11.702-21.044-51.29-10.5-83.25l8.25 7.5c-3.642 23.29-3.53 42.699 2.25 56.25zm85.5 0c14.522-11.702 21.044-51.29 10.5-83.25l-8.25 7.5c3.64 23.29 3.528 42.699-2.25 56.25zM63.928 0h-21c-16.29 16.87-30.564 17.677-33.75 2.25C.355 1.877-1.27 30.808 7.678 39l12-10.5c2.752-1.451 3.224 3.109 2.25 3.75-20.111 13.242-25.656 27.778-19.5 42 4.127-4.874 8.73-10.211 14.25-14.25 2.699-1.723 4.612 1.764 2.25 3.75-23.13 19.442-21.644 36.378-13.5 49.5 2.838-8.587 8.042-17.579 15.75-27 1.548-1.315 3.953.835 3 3C-2.226 118.185.084 166.912 15.928 174c.279-24.919 5.396-45.93 17.25-61.5 1.478-.989 2.789.733 2.25 2.25-8.482 6.205-33.438 96.24 6.75 101.25-12.733-41.527-6.533-78.479 18-111-32.023-36.627-18.176-79.856-8.665-86.849C60.265 11.716 64.708 8.218 63.928 0m69 0h21c16.29 16.87 30.564 17.677 33.75 2.25 8.822-.373 10.448 28.558 1.5 36.75l-12-10.5c-2.753-1.451-3.224 3.109-2.25 3.75 20.11 13.242 25.655 27.778 19.5 42-4.128-4.874-8.731-10.211-14.25-14.25-2.7-1.723-4.612 1.764-2.25 3.75 23.129 19.442 21.644 36.378 13.5 49.5-2.838-8.587-8.043-17.579-15.75-27-1.55-1.315-3.954.835-3 3 26.404 28.935 24.094 77.662 8.25 84.75-.28-24.919-5.396-45.93-17.25-61.5-1.48-.989-2.79.733-2.25 2.25 8.48 6.205 33.437 96.24-6.75 101.25 12.732-41.527 6.532-78.479-18-111 32.022-36.627 18.175-79.856 8.664-86.849C136.59 11.716 132.147 8.218 132.928 0m-70.5 129.75 22.5 20.25 2.25 12-27.75-26.25zm72 0-22.5 20.25-2.25 12 27.75-26.25zm-50.25-6-5.25-5.25 19.5-27 19.5 27-5.25 5.25-14.25-18zm57-91.5-21 15c7.03 8.876 7.41 19.915 1.5 33l10.5 13.5c6.109-3.391 10.132-8.868 12-16.5l-6-3c-1.43-.59-.504-3.105.75-3l6 1.5c2.129-5.796 2.365-11.829 1.5-18l-6.75.75c-2.002.36-2.387-2.843-.75-3l6.75-1.5c.482-5.369-.492-11.385-4.5-18.75"/></svg>