<svg xmlns="http://www.w3.org/2000/svg" xml:space="preserve" width="202.5" height="308.25" style="clip-rule:evenodd;fill-rule:evenodd;stroke-linejoin:round;stroke-miterlimit:2" viewBox="0 0 202.5 308.25"><path d="M101.25 280.5 81 240.75v37.5l-9-3v33L36 286.5v-32.25l-9.75-9.75v-44.51a101.4 101.4 0 0 1-18.108-28.173l18.259-.056c14.253 26.757 42.439 44.989 74.849 44.989l.38-.001c32.25-.141 60.271-18.336 74.469-44.988l18.259.056a101.4 101.4 0 0 1-18.108 28.173v44.51l-9.75 9.75v32.25l-36 21.75v-33l-9 3v-37.5zm-63-69.257a101.1 101.1 0 0 0 31.5 17.002v35.005l-9-4.5V291l-13.5-9.75v-31.5l-9-9zm126 0a101.1 101.1 0 0 1-31.5 17.002v35.005l9-4.5V291l13.5-9.75v-31.5l9-9zm-75 21.245h24l-12 25.203zm11.666-41.991c-6.993-.042-13.064.771-18.416 2.253-4.095-12.912-11.827-20.531-25.5-19.5-10.808-12.483-3.533-29.53-10.5-39.75 4.219-7.889 18.118-13.067 38.25-16.5l16.5 16.5 16.5-16.5c20.132 3.433 34.031 8.611 38.25 16.5-6.967 10.22.308 27.267-10.5 39.75-13.673-1.031-21.405 6.588-25.5 19.5-5.437-1.505-11.616-2.321-18.75-2.25zm.334-15.747-12-7.5 12 12.75 12-12.75zM12.228 83.754 23.797 97.57C19.107 108.094 16.5 119.745 16.5 132a84.6 84.6 0 0 0 4.1 26.093L8.142 171.817C2.902 159.594 0 146.133 0 132c0-17.463 4.431-33.899 12.228-48.246m178.044 0L178.703 97.57C183.393 108.094 186 119.745 186 132a84.6 84.6 0 0 1-4.1 26.093l12.458 13.724c5.24-12.223 8.142-25.684 8.142-39.817 0-17.463-4.431-33.899-12.228-48.246M44.25 141.75l-22.5 24.75H48c-1.165-2.341-1.596-5.133-1.5-8.25H39l7.5-7.5c.454-3.516.013-6.648-2.25-9m114 0 22.5 24.75H154.5c1.165-2.341 1.596-5.133 1.5-8.25h7.5l-7.5-7.5c-.454-3.516-.013-6.648 2.25-9M61.5 136.5c6.503 4.08 12.49-1.047 16.5-.75 5.285.391 8.934 3.499 9 7.5.078 4.752-3 7.527-7.5 7.5-4.691-.028-14.362-5.078-18-14.25m79.5 0c-6.503 4.08-12.49-1.047-16.5-.75-5.285.391-8.934 3.499-9 7.5-.078 4.752 3 7.527 7.5 7.5 4.691-.028 14.362-5.078 18-14.25m-40.162-24.734c-35.014 1.406-64.95 15.062-57.338 25.484-32.767-2.147.132-31.371 50.25-38.25.909-19.427-3.745-36.804-15-51.75L101.25 0l22.5 47.25c-11.255 14.946-15.909 32.323-15 51.75 50.118 6.879 83.017 36.103 50.25 38.25 7.642-10.463-22.559-24.185-57.75-25.5zm.412 2.234c3.311 0 6 2.689 6 6s-2.689 6-6 6-6-2.689-6-6 2.689-6 6-6m-42.75-9.75v-9L24 90l15.75 24c5.674-3.971 11.911-7.236 18.75-9.75m85.5 0v-9L178.5 90l-15.75 24c-5.674-3.971-11.911-7.236-18.75-9.75m-82.5-51C92.927 83.398 91.049 75.128 90.75 96c-9.203.85-18.685 3.015-28.5 6.75zm79.5 0C109.573 83.398 111.451 75.128 111.75 96c9.203.85 18.685 3.015 28.5 6.75zM56.558 41.137l-.243 19.009A85.3 85.3 0 0 0 30.088 85.98l-17.86-2.226a101.8 101.8 0 0 1 44.33-42.617m89.384 0 .243 19.009a85.3 85.3 0 0 1 26.227 25.834l17.86-2.226a101.8 101.8 0 0 0-44.33-42.617m-89.384 0c6.637-3.635 13.359-6.383 21.546-7.546l-7.99 19.571zm89.384 0c-6.637-3.635-13.359-6.383-21.546-7.546l7.99 19.571z"/></svg>