<svg xmlns="http://www.w3.org/2000/svg" width="256.375" height="245.059" viewBox="0 0 256.375 245.059"><path d="M145.502 0q-1.792.785-7.72 5.256-7.38 5.591-7.38 7.941-.002.671 2.07 1.957 2.07 1.286 2.069 3.746 0 2.35-1.567 4.027-1.564 1.678-3.914 1.676l-1.678-3.02q-1.679-2.903-4.25-2.904-.783 0-2.123.668-1.344.673-1.789.672-2.576.001-4.476-5.592-1.567-4.584-1.453-6.261-2.575 13.98-2.575 15.322 0 5.033 2.016 5.033.559 0 1.73-.336 1.177-.337 1.737-.336 1.34 0 2.963 1.733t1.623 3.076c0 1.044-.712 2.649-2.127 4.81q-4.136-1.344-4.473-1.343-2.46 0-3.97 2.74-1.509 2.74-3.075 2.74-2.015 0-5.369-1.564-2.575-1.343-5.146-2.688 4.136 5.707 6.152 8.612 4.246 5.819 6.934 5.818 1.563.001 3.353-2.352c1.19-1.562 2.014-2.345 2.461-2.345 2.911 0 4.697 1.718 5.37 5.146-3.58 1.863-5.222 3.954-4.923 6.262q.448 3.131.448 2.683 0 3.802-11.631 6.711c6.857 1.34 11.744 2.012 14.65 2.012q5.705 0 5.594-3.691v-3.018c0-1.936 1.49-2.908 4.473-2.908q2.012 0 3.464 1.68-1.341 2.798-1.34 4.697-.001 2.237 2.57 4.248c1.716 1.341 2.573 2.388 2.573 3.133q-.001 2.015-1.789 5.705-1.57 3.244-3.13 5.254c1.19-.894 3.354-2.46 6.484-4.696q8.836-6.26 8.837-9.283c0-.37-.691-1.009-2.068-1.902q-2.072-1.34-2.072-3.576.001-4.476 5.146-5.26 2.575 5.93 5.817 5.928.669 0 2.068-.668 1.397-.674 1.846-.674 3.24.001 6.15 11.41 2.237-9.954 2.236-14.764.001-5.033-1.37-5.033-.459.001-1.83.334-1.373.338-2.173.338-1.258 0-3.085-1.678c-1.22-1.121-1.83-2.087-1.83-2.908q.001-.893 2.126-4.137 3.803.894 5.034.893c2.013 0 3.353-.91 4.025-2.738q1.009-2.74 2.795-2.742 2.46.002 11.183 4.921c-2.982-4.25-5.181-7.417-6.593-9.51q-3.804-5.593-6.824-5.593-2.46-.001-3.579 2.35-1.116 2.346-2.459 2.347-1.902-.002-3.02-1.344-.448-.444-1.79-2.906l3.805-2.685q2.01-1.341 2.011-2.907c0-.599-.188-1.527-.56-2.797q-.56-1.899-.559-2.683 0-1.677 4.475-3.02 4.918-1.342 7.38-2.011-11.298-2.014-14.874-2.014-5.704 0-6.153 1.566c-.072.15-.019.823.17 2.014q.279 1.788.28 2.123-.001 3.354-3.243 3.356c-1.046 0-2.575-.705-4.588-2.124q1.342-4.47.225-7.046-.335-.894-2.684-3.02-1.903-1.788-1.902-3.355 0-3.02 4.81-9.506m-6.826 24.606q7.158.001 12.415 5.258 5.256 5.259 5.257 12.414.111 7.607-4.98 12.58-5.087 4.976-12.692 4.977-7.156 0-12.582-5.201-5.424-5.198-5.31-12.356.11-7.269 5.367-12.469 5.254-5.202 12.525-5.203m0 1.903q-6.484 0-11.24 4.642-4.752 4.641-4.752 11.127.002 6.602 4.698 11.184 4.695 4.587 11.294 4.586 6.82 0 11.409-4.477c3.057-2.977 4.586-6.745 4.586-11.293q-.001-6.374-4.754-11.07-4.755-4.7-11.24-4.7M37.465 64.705q-10.8 0-14.063 11.138c-1.724-1.873-3.936-2.814-6.639-2.814q-3.714 0-6.187 2.477-2.476 2.476-2.477 6.19 0 3.15 1.239 4.386-2.588 1.351-2.364 4.949-2.813.342-4.556 2.477C1.253 94.936.673 96.584.673 98.461q0 3.039 2.811 5.96C1.158 106.225 0 108.511 0 111.287q.001 2.7 2.699 5.965 2.7 3.263 5.4 3.263 8.324-.001 10.125-6.416c4.502.827 7.725 2.176 9.678 4.051q3.377 3.15 3.377 9.563 0 2.81-.285 3.49-.28.674-2.024 1.517c-1.162.564-2.008.846-2.529.846a4.6 4.6 0 0 1-.9-.113 5 5 0 0 0-.9-.113q-2.028 0-5.852 2.252-3.265 1.912-3.938 2.587l3.149.225q3.037-.674 4.5-.674 3.039 0 6.527 1.123c.971 2.926 1.538 4.5 1.688 4.727h.564q3.037-4.613 4.162-4.727.56 1.462 1.01 2.926 1.017 2.136 2.476 2.926 0-.79 1.239-2.926 1.235-2.136 1.914-2.137.671.001 3.261 2.137c1.726 1.423 3.223 2.174 4.5 2.25q.564-2.25.676-3.373h1.465c.373 0 1.142.147 2.305.45 1.164.298 2.08.448 2.758.448q3.825.001 3.826-1.35l-3.15-1.573q3.935-.9 5.513-.676.338-1.125-1.914-1.801c-1.052-.297-2.064-.451-3.037-.451h-1.35q-1.016.113-1.465.113-.677-.113-3.658-1.07-2.978-.956-3.935-2.361c-.639-.938-.957-2.423-.957-4.446 0-1.275.221-3.262.673-5.963q.788-4.952 2.026-6.302.787-.9 6.076-2.362 4.949-1.463 6.64-1.465l5.288.225c1.122 2.25 2.89 3.377 5.287 3.377 1.5 0 2.835-.601 3.996-1.8q1.743-1.801 1.742-4.052.001-3.263-2.924-4.949c1.05-2.398 1.576-4.277 1.576-5.627q-.001-7.2-7.2-11.252c.597-1.048.9-1.76.9-2.136 0-2.027-.827-3.45-2.475-4.278q-1.691-.56-2.476-.674-1.128-4.5-4.051-7.425-3.378-3.265-7.764-3.264-1.243 0-3.94.508c-.79.147-1.212.25-1.482.334-.147-.208-.568-.693-1.441-1.627q-4.278-4.502-9.904-4.502m201.892 2.517q-11.925 9.815-20.74 22.854-10.806 15.902-10.807 28.322 0 11.55 6.336 19.002 6.705 7.824 18.133 7.822 10.183 0 17.143-7.08 6.954-7.076 6.953-17.388 0-6.951-4.844-14.282c-2.072-2.812-5.093-7.122-9.068-12.918q-4.844-7.326-4.842-15.029c0-2.236.576-6.002 1.736-11.303M33.867 91.707c.37 0 1.462.152 3.264.45v4.95l-3.264-3.713zm12.826 0q3.71 1.687 5.063 2.25.221 4.386-5.063 7.426zm-19.355 4.95a28.4 28.4 0 0 0 2.927 3.94q-1.126 0-3.715-.62c-1.724-.414-3.036-.58-3.937-.508q0-1.574 4.725-2.811m28.13 7.54 2.473 3.037q-5.96 1.125-11.023 3.828a20.7 20.7 0 0 1 3.992-3.658q2.31-1.63 4.558-3.207m189.48 1.9q2.486 1.368 4.349 5.528 1.863 4.164 1.863 7.265 0 6.087-4.596 6.088c-2.9 0-4.346-1.45-4.346-4.347l1.612-4.97q1.492-4.843 1.492-7.452 0-1.365-.373-2.112m-220.31.127q2.585 0 5.12 2.137 2.53 2.137 2.53 4.725v1.463q-7.537-7.2-13.501-6.866 2.7-1.458 5.851-1.459m172.266 60.834c-2.239 0-5.44.274-9.606.81-1.31.158-3.281.773-5.902 1.852q-4.398 1.74-4.398 3.012-.001 5.437 1.966 7.75 5.208 4.398 8.45 6.365-6.365-2.313-7.06-2.546a743 743 0 0 0-4.514-1.041c-.925-3.473-1.583-6.249-1.965-8.333q-13.887 11.226-13.887 28.122-.001 11.342 7.984 12.843 5.783 1.16 7.754 1.621c2.158.464 3.357.735 3.586.811q1.966 2.775 1.967 3.703c0 .153-.08.423-.23.809q-.232.578-.231.927l-.928 13.883c-.155 2.085.157 3.707.928 4.865q1.156 1.733 4.627 1.733a.8.8 0 0 0 .578-.23l.35-2.778q.23-1.389.23-1.734-.001-.462-.289-1.793-.29-1.33-.29-1.793.115-.346 1.39-4.4h.925q2.08 7.522 2.893 11.34c1.543.077 2.852.077 3.936 0l1.386-10.878h1.389q.928-.11 1.156.463v8.217q-.228 0 .58.23a260 260 0 0 0 5.44-3.703q.113-1.388-.348-3.355-.116-.925.24-1.504h1.795c.959 2.467 1.44 3.975 1.44 4.51 0 .39-.102.968-.293 1.738q-.289 1.159-.29 1.736 0 1.275.928 4.748 2.894-.583 5.092-1.045.81-3.93.81-5.67l-.347-3.705c-.23-2.006-.346-3.198-.346-3.587v-9.374q0-3.353 5.553-4.28 8.562-1.388 10.184-2.198 5.554-2.777 5.554-10.416h-.001v-.926q-.117-1.154-.116-3.818-1.275-7.637-4.976-14.235c-.851-1.461-1.968-3.123-3.356-4.974q-2.777-3.703-3.703-3.703.808.001-4.514 2.314c-3.547 1.547-6.248 2.275-8.101 2.197q7.059-3.816 9.951-7.171-8.91-7.408-23.371-7.409m-119.813.586c-1.35 0-3.719.191-7.1.565q-5.976.675-6.425 1.238 3.944.341 5.41.453 14.989 1.351 14.99 5.184-.001 1.468-10.933 3.267c4.131 1.352 6.462 2.032 6.99 2.032 1.726 0 3.642-.567 5.748-1.692q3.152-1.69 4.733-1.691 3.38 0 5.523 3.494 1.915 2.931 1.916 6.537-.001 2.816-1.352 2.816-1.016 0-2.931-2.816a179 179 0 0 0-2.028-3.156 5.6 5.6 0 0 0-.226 1.58c0 3.155 1.444 6.082 4.338 8.789q4.338 4.06 9.074 4.283-.228 3.044-1.576 6.31-1.582 4.287-3.608 5.073-1.353-1.35-1.353-3.83 0-1.127.732-3.494c.49-1.577.733-2.707.733-3.381q-1.128.45-2.537 2.424-1.409 1.97-1.631 3.324c-.526 3.153-.678 5.862-.453 8.115.225 1.956-.603 4.133-2.479 6.54q-2.82 3.604-5.75 3.603-1.916 0-3.494-.79-2.028-1.015-2.027-2.706 0-2.702 4.845-5.522 6.764-4.054 7.893-15.89.336 0-5.863 3.437-6.201 3.438-10.371 3.437-1.014 0-4-.789-2.988-.788-4.79-.787c-5.408 0-9.938 1.899-13.58 5.69q-5.47 5.695-5.468 13.808-.001 7.664 5.298 13.864 5.409 6.537 12.961 6.648 22.992.45 32.797-5.295-1.691 0-8.341-.17-6.65-.168-3.83-.168-.564 0-1.352-.732-.791-.734-.79-1.295 0-1.805 4.733-2.82 3.156-.675 5.864-.676 14.76.001 19.722-11.834 1.239-2.93 1.238-4.399-3.494 3.835-7.775 5.748-1.917.905-8.117 2.592 1.691-2.604 6.312-7.36c3.079-3.17 5.186-5.774 6.31-7.814 1.728-3.017 2.597-6.377 2.597-10.076 0-7.02-3.085-14.461-9.245-22.312.976 2.436 1.69 4.267 2.143 5.484q1.804 4.685 1.805 7.772 0 2.398-1.242 3.425-7.214-26.036-34.038-26.037m-14.2 4.514q-3.832 0-7.89 4.62c-2.556 2.784-4.058 5.52-4.511 8.226q2.254-1.578 3.27-2.366 2.367-1.69 3.38-1.802.676 3.045 1.016 4.732 3.042-5.408 4.621-6.197l2.932-.451q2.251-.565 2.252-2.592 0-4.17-5.07-4.17m9.693 10.592q-.79.001-1.354.562 2.704 1.131 5.299 4.85 2.139 3.044 4.846 3.043 2.028 0 4.113-1.297 2.085-1.295 2.084-3.213 0-3.943-3.719-3.945-1.579 0-2.873 1.578-1.297 1.579-1.86 1.578-.68 0-3.1-1.578c-1.618-1.051-2.76-1.578-3.436-1.578m104.533 10.23q4.975-.001 9.316 4.453 4.34 4.459 4.34 9.434c0 2.777-2.588 4.128-7.754 4.05h-6.365q-4.398-.114-6.826-.816-3.82-1.164-3.82-5.123 0-4.54 3.357-8.27c2.237-2.482 4.82-3.728 7.752-3.728m40.967.117q4.508.002 7.982 3.668 3.47 3.669 3.47 8.328-.001 5.71-7.52 5.825H208.71q-3.937 0-3.936-4.051 0-4.86 4.225-9.316 4.224-4.454 9.086-4.454m-22.914 14.81q.344 0 .576.35v4.047c0-1.077.27 2.47.81 10.649q.232.23.696.23.694 0 .693-1.62l1.273-13.54c1.235 2.779 2.084 4.936 2.547 6.48a113 113 0 0 0 1.62 3.128v3.588q0 6.246-1.159 6.246c-2.081-.925-3.859-1.39-5.32-1.39q-2.203 0-2.664.233-1.156.58-2.082.81-.928-1.157-.926-6.134 0-9.022 3.936-13.076"/></svg>