<svg xmlns="http://www.w3.org/2000/svg" width="140.033" height="150.403"><path d="M29.564 27.84a1.75 1.75 0 0 0-1.032.344l-27.812 21c-.837.632-.934 1.836-.344 2.657l2.406 3.375c.59.82 1.757 1.038 2.594.406l3.969-2.969 29.844 38.25-24.407 34.375c-3.555 5.01-2.995 11.315-.562 16.219s6.813 8.906 12.03 8.906h71.314c4.826 0 8.98-3.729 11.53-8.281 2.552-4.553 3.507-10.505.25-15.25L85.408 91.997l30.282-39.031 3.5 2.656c.836.632 2.034.382 2.625-.438l2.406-3.312c.59-.82.43-2.056-.406-2.688l-27.782-21c-.836-.632-2.003-.382-2.593.438l-2.407 3.344c-.59.82-.493 2.024.344 2.656l4.188 3.156-31.688 38.844c.376-.46-.312.062-1.062.062s-1.435-.515-1.063-.062l-32.22-39.219 3.657-2.75c.836-.632.965-1.867.375-2.687l-2.407-3.344a1.93 1.93 0 0 0-1.593-.781m.03 2.063 2.313 3.188L4.314 53.934l-2.282-3.218zm65.376 0 27.594 20.844-2.313 3.187-27.562-20.812zM26.345 39.81l32.312 39.344c1.253 1.524 2.745 1.531 4.157 1.531 1.41 0 2.905.001 4.156-1.531l31.78-38.97 13.344 10.094-31.25 40.25s-.625.693-.625 1.344c0 .65.562 1.312.562 1.312l24.875 36.25c2.004 2.92 1.48 6.969-.5 10.5-1.98 3.532-5.404 5.969-7.593 5.969H26.25c-2.728 0-6.122-2.621-8-6.406s-2.165-8.235.219-11.594l25.375-35.75s.604-.927.594-1.375-.657-1.312-.657-1.312L12.94 49.934z"/><path d="M54.22 92.122c-2.73.029-4.442.05-5.094.969l-26 36.625c-3.702 5.216 1.417 12.562 6.875 12.562h64.375c5.04 0 10.079-6.967 5.875-13.094L76.314 94.247c-2.266-.098-2.548 1.691-5.563 1.531s-3.516-2.496-6.094-2.469c-2.577.028-1.852 1.761-4.625 1.688-2.773-.074-3.082-2.904-5.812-2.875m5.062 9.437a7.37 7.37 0 0 1 7.375 7.375 7.37 7.37 0 0 1-7.375 7.375 7.37 7.37 0 0 1-7.375-7.375 7.37 7.37 0 0 1 7.375-7.375m-14.187 18.563c2.733 0 4.969 2.204 4.969 4.937a4.98 4.98 0 0 1-4.97 4.969c-2.733 0-4.937-2.235-4.937-4.969a4.93 4.93 0 0 1 4.938-4.937M67 127.028c.166-.017.33 0 .5 0a4.93 4.93 0 0 1 4.938 4.938 4.93 4.93 0 0 1-4.938 4.937 4.93 4.93 0 0 1-4.937-4.937c0-2.563 1.94-4.685 4.437-4.938m18.144-46.197a6.055 6.055 0 1 1-12.11 0 6.055 6.055 0 1 1 12.11 0m3.27-14.275a3.27 3.27 0 1 1-6.54 0 3.27 3.27 0 1 1 6.54 0m19.357-11.888a6.055 6.055 0 1 1-12.11 0 6.055 6.055 0 1 1 12.11 0m7.602-28.151a5.834 5.834 0 1 1-11.668 0 5.834 5.834 0 1 1 11.668 0m22.892-21.965a4.552 4.552 0 1 1-9.104 0 4.552 4.552 0 1 1 9.104 0m1.768 20.771a9.237 9.237 0 1 1-18.473 0 9.237 9.237 0 1 1 18.473 0"/></svg>