<svg xmlns="http://www.w3.org/2000/svg" width="794.547" height="764.355" viewBox="0 0 595.91 573.266"><path d="M200.95.003c-6.248.037-12.487.55-18.63 1.525-19.25 3.44-38.81 11.561-51.38 27.101-.77-7.51.97-15.11 4.18-21.89-15.73 9.96-27.66 24.95-36.52 41.13-5.46 10.23-9.81 21.22-11.35 32.78l-.77-.3c-3.1-7.79-4.21-16.29-4.19-24.64-12.71 17.03-15.47 39.33-14.23 60 1.67 21 8.96 42.65 24.79 57.22-5.76-20.19-2.14-42.05 6.79-60.75 2.19 5.2 3.9 10.6 6.44 15.65 7.3 16.09 19.99 29.35 35.02 38.47 2.57 1.4 4.93 3.42 7.86 3.95-3.51-16.78-1.6-34.31 2.39-50.84.15-2.2-.54-4.34-.88-6.48-2.16-13.49.1-28.01 7.88-39.42 7.45-11.37 20.44-19.26 34.18-19.34 10.59-.4 21.39 3.35 29.06 10.76 8.75 8.52 13.3 20.6 14.44 32.6 1.71 17.45-2.92 35.31-12.52 49.94 14.04 19.11 33.16 33.47 49.76 50.15 15.46-19.64 26.46-42.8 32.13-67.13 5.58-23.63 2.42-48.95-7.54-70.98-8.85-19.53-23.89-36.34-42.84-46.5C238.514 4.082 219.695-.106 200.95.002m-33.08 104.826c-6.07 7.99-8.47 17.98-10.24 27.67-1.58 9.67-2.13 19.54-1.18 29.31.65 5.22 1.34 10.62 3.57 15.42 14.19 8.94 26.95 22.09 30.94 38.84-2.65-4.16-5.06-8.54-8.66-11.98-13.65-13.97-32.12-21.41-48.27-31.9-13.88-8.37-26.84-19.49-33.47-34.63-3.45 14.61-2.32 30.99 6.26 43.7-14.61-4.4-30.05-4.81-45.19-4.34 9.31 5.01 17.26 12.43 23.47 20.95 2.66 4.08 5.68 9.54 3.17 14.33-2.41 3.92-6.6 6.2-10.29 8.74-18.64 11.04-39.21 19.41-55.2 34.43 11.74-1.94 23.96-4.04 35.72-1.04 6.49 1.55 12.7 5.78 15.2 12.15 3.35 7.77 2.34 16.53.62 24.57-1.12 4.28-1.77 8.82-4.19 12.63 2.59-1.45 4.52-3.75 6.79-5.61 7.52-6.31 15.65-11.86 24.04-16.94 12.73-7.57 26.24-14.24 40.82-17.34-8.67-2.93-17.95-4.3-27.08-4.96 7.7-9.16 18.55-15.12 29.63-19.26 16.58-5.83 34.77-8.32 52.12-4.79-16.65.86-33.31 4.83-48.15 12.53-2 1.29-4.69 2.07-5.75 4.38 9.19 1.41 18.23 3.78 27.02 6.75-16.75 7.42-30.47 21.75-37.14 38.81 9.62-5.73 21.24-8.12 32.31-6.22 7.83 1.14 15.64 4.42 21.01 10.37 6.06 6.36 8.15 15.74 6.96 24.27-1.58 9.6-6.46 18.99-14.58 24.61 2.19.12 4.39.11 6.58.02.35.17 1.05.52 1.39.69l-.52-.73c5.14-.27 10.3-1.15 15.11-3.02-1.39 4.08-3.77 7.72-6.59 10.95-3.72 4.2-7.81 8.39-13.21 10.35 9.39.07 18.65-2.43 27.17-6.25 10.74-4.87 21.12-12.31 26.06-23.36-4.93 1.09-10.61 2.28-15.19-.59-2.33-1.34-3.13-4.08-3.13-6.59-.23-7.47 1.89-14.74 3.77-21.89-2.81 3.09-6.82 7.01-11.38 5.19-3.29-1.84-3.94-5.98-3.68-9.4.77-8.25 3.7-16.2 7.79-23.36-9.5-3.01-19.71-4.06-29.64-3.52 9-3.35 18.56-4.83 28.02-6.26 12.18-1.24 24.64-2.58 36.77-.17 3.78.74 8.3 2.74 8.34 7.25-.06 6.77-3.35 13-6.89 18.58 7.34.02 14.72-.05 21.96 1.36 6.77 1.37 14.11 3.41 18.62 9.03 5.21 6.6 5.75 15.91 3.01 23.65 7.58-3.95 13.91-10.01 18.71-17.04 10.14-14.53 15.07-32.82 12.69-50.45-3.53 7.78-10.23 14.86-18.69 17.05 1.18-7.72-5.11-14.31-12.16-16.19 3.01-15.6-2.89-31.4-11.62-44.17-15.43-22.82-39.27-37.85-56.95-58.67-12.73-14.27-23.51-32.18-22.72-51.96-4.02 5.82-5.76 12.86-6.9 19.75-1.22 8.77-1.61 18.29 2.12 26.51 8.34 9.98 18.66 18.06 28.06 27 15.64 14.1 30.67 30.3 37.25 50.75-7.83-15.66-20.83-27.77-33.63-39.36-14.13-12.83-28.91-25.1-41.16-39.81-11.87-14.09-20.99-31.88-19.62-50.79m308.838 92.97c-3.426.023-6.807.686-10.088 1.64-13.86 3.92-25.69 12.6-36.62 21.7-5.95 4.71-11.38 10.15-18 13.96-2.35 1.48-5.17 1.79-7.82 1.05-.43-1.35-1.22-2.7-.72-4.14 2.05-7.2 6.71-13.23 11.04-19.19-16.12 9.11-29.42 22.48-40.96 36.82-10.9 14.24-20.73 29.83-25.36 47.33 18.44-21.66 42.77-37.89 69.06-48.47 18.19-7.1 37.87-11.97 57.49-9.82-5.05.9-10.21 1.02-15.24 2.09-21.28 3.89-41.32 12.99-59.43 24.66-30.3 19.77-56.13 46.04-77.05 75.46 6.99 1.85 13.18 5.91 18.55 10.66 7.56 5.91 14.77 12.25 22.36 18.13 13.66-31.31 31.33-61.04 53.6-87 13.7-16.12 34.97-25.16 56.04-24.61 11.68.2 23.58 3.38 33.01 10.46 6.65-5.35 14.56-8.81 22.62-11.47 11.73-4 23.94-6.62 36.28-7.8 10.14-.75 20.51-.95 30.44 1.61-11.9-12.84-26.66-22.85-42.52-30.16-14.05-6.22-29.31-10.26-44.77-9.89-12.34-.16-24.44 2.94-36.03 6.95-3.69 1.23-7.39 2.6-11.29 2.97-2.76.39-5.09-2.51-4.52-5.15.55-3.14 3.03-5.46 5.24-7.56 4.8-4.22 10.33-7.59 16.16-10.2a27 27 0 0 0-1.472-.03m-246.178 32.86c12.48 4.71 22.41 15.23 26.94 27.71-5.73-.03-11.69-1.67-15.94-5.66-6.17-5.75-8.98-14.09-11-22.05m-167.08 35.87c-12.47 11.67-23.44 24.88-33.42 38.72-12.25 17.52-23.81 36.03-30.03 56.65 8.5-7.06 17.31-13.93 27.25-18.85-10.59 21.93-15.08 46.48-14.95 70.73.55 25.08 5.69 50.15 15.86 73.12 5.79 12.79 12.96 25.2 22.9 35.24 1.85 1.66 3.49 3.84 6.05 4.38-.72-1.52-1.53-3.04-1.73-4.73-.96-6.7-1.56-13.5-.86-20.25l1.61 2.17c8.01 13.33 19.7 24.05 32.29 32.99 18.49 12.96 39.92 21.76 62.24 25.23 20.05 2.79 40.63 1.5 60.29-3.18 21.94-5.24 42.51-15.68 60.07-29.77 26.84-21.63 46.68-50.81 61.37-81.72-16.25-14.59-33.31-28.22-50.07-42.19-10.5 19.01-24.54 36.12-41.43 49.8-12.6 9.92-27.23 18.23-43.42 20.03-14.69 1.32-29.9-2.6-41.9-11.22-11.26-7.94-19.64-19.56-24.49-32.39-7.74-19.9-7.37-42.26-1.51-62.6 7.33-25.56 22.84-48.21 41.93-66.46-4.87-2.45-10.52-2.94-15.9-2.83-13.82.81-26.39 8.45-35.84 18.21-.07-14.94 4.74-29.99 13.57-42.07-13.33 4.62-25.31 12.38-37.12 19.96-12.99 8.89-25.96 18.2-36.27 30.21-.01-10.1 1.37-20.15 3.33-30.05 1.32-7.31 3.52-14.62 3.05-22.12-.01-2.64-1.51-4.87-2.87-7.01m163.4 18c-4.29 8.53-3.69 19.35 1.42 27.41 7.19 10.52 20.18 15.16 27.33 25.71 5.06 7.75 2.95 17.48 5.29 26.05 2.89 13.8 13.45 24.13 24.21 32.4a1449 1449 0 0 1 50.88 42.33c6.73 5.96 11.86 13.89 13.76 22.75 4.43 18.4-2.63 37.42 1.77 55.84 4.4 20.05 20.64 36.59 40.16 42.47-14.88-16.22-14.98-44 .71-59.72 1.03 15.42 6.83 30.41 16.04 42.79 10.7 14.64 26.83 25.3 44.67 28.82 19.07 4.1 39.17 1.25 57.15-5.91 12.5-5.3 25.24-12.19 33.01-23.73-6.61 2.47-13.73 3.05-20.71 2.4-13.48-1.35-26.98-5.79-37.57-14.45 16.41 1.92 33.49.06 48.49-7.13 17.38-7.89 32.01-22.43 38.6-40.49 5.77-15.26 5.24-32.75-1.32-47.67-6.59-15.29-19.04-27.65-33.68-35.35-14.54-7.66-31.28-10.59-47.61-9.47 10.41 2.98 20.04 9.3 25.91 18.54 6.05 9.08 7.16 21.12 2.94 31.18-3.96 9.91-13 16.67-22.55 20.73-12.03 4.8-25.47 6.5-38.22 3.94 9.6-6.94 14.69-18.66 15.63-30.23 1.53-16.08-3.65-33.05-15.1-44.66-2.66-2.5-5.35-5.2-8.85-6.45 5.66 12.91-.5 29.5-13.08 35.78-7.06 3.72-15.74 3.83-23.09.87-8.97-3.32-15.57-10.54-22.97-16.28-16.99-14-33.92-28.06-50.95-42-4.64-3.75-9.13-7.89-14.73-10.16-8.13-3.59-17.18-3.47-25.88-3.83-3.65-.32-7.84-.81-10.32-3.85-4.4-5.58-3.97-13.08-5.95-19.59-1.12-4.6-3.86-8.99-8.17-11.18-10.77-5.57-23.9-1.69-34.57-7.7-7.72-3.5-13.26-11.55-12.65-20.16"/></svg>