<svg xmlns="http://www.w3.org/2000/svg" xml:space="preserve" width="600" height="952.729" viewBox="0 0 158.75 252.076"><path d="M79.275 0c-.671 0-1.34.225-1.354.676-1.81 64.36-12.268 102.792-12.268 102.792l-10.965 1.07S47.98 90.85 44.393 28.054c-.067-1.168-3.44-1.167-3.51 0-3.79 62.87-12.536 82.835-12.536 82.835l-10.195 2.775s-5.955-7.55-10.263-52.081c-.103-1.065-3.138-1.067-3.209 0C1.728 105.865 0 131.372 0 131.372s69.09 21.732 77.921 119.379c.16 1.77 2.57 1.764 2.708 0 7.638-97.497 78.121-119.38 78.121-119.38s-2.288-26.045-5.315-69.789c-.068-.978-2.853-.976-2.942 0-3.892 42.996-11.032 52.08-11.032 52.08l-9.025-2.774s-8.808-15.887-13.236-82.834c-.07-1.056-3.11-1.055-3.176.001-4.172 66.374-10.664 76.484-10.664 76.484l-10.328-1.07S82.384 65.023 80.629.676C80.616.226 79.945 0 79.275 0m.206 87.309 3.816 28.364-12.67 15.698 52.285-9.08-41.341 36.946c6.319 2.617 12.21 5.414 18.555 7.965L82.54 188.854l-3.06 25.812-5.166-28.46 10.59-14.276-29.783-8.32 34.7-26.096-46.613 9.833 32.903-35.645z" style="fill:#000;stroke-width:.378194"/></svg>