<svg xmlns="http://www.w3.org/2000/svg" xml:space="preserve" width="86.15" height="86.495" overflow="visible" viewBox="0 0 86.15 86.495"><path fill="#231f20" d="M43.077 11.913c-7.875 0-14.255 8.748-14.255 19.538s6.38 19.537 14.255 19.537c7.87 0 14.255-8.746 14.255-19.537s-6.384-19.538-14.255-19.538m0 28.688c-5.841 0-10.577-3.034-10.577-6.778s4.736-6.777 10.577-6.777c5.84 0 10.575 3.033 10.575 6.777s-4.736 6.778-10.575 6.778m2.72-33.334A12.63 12.63 0 0 1 54.244 0a13.9 13.9 0 0 0-1.98 7.17c0 1.266.17 2.492.485 3.658-2.07-1.798-4.427-3.037-6.952-3.561m25.561-5.864c8.4 7.716 13.926 18.51 14.792 30.595-1.228-4.674-3.4-9.16-6.813-12.57-4.579-4.58-11.787-5.113-16.566-.744a11.7 11.7 0 0 0-2.85 4.007c-1.22-4.234-3.267-7.895-5.865-10.616.681.088 1.375.137 2.079.137 7.043 0 13.027-4.516 15.223-10.809m1.438 62.956s2.998-9.355-.358-19.566c-3.132-9.53-8.752-11.22-11.867-6.585a33.7 33.7 0 0 0 .608-6.404c0-2.379-.244-4.68-.701-6.859 1.063 1.369 4.007 4.63 9.46 6.994 5.927 2.573 8.927 1.073 8.927 1.073s2.498 14.995-6.07 31.347m-4.14-14.354s-2.142 21.28-19.567 36.49c0 0 12.497-15.925 9.283-31.06-.899-4.232-2.673-4.638-4.142-4.084 2.69-2.883 4.765-6.787 5.922-11.286.734 2.271 3.042 7.858 8.503 9.941M33.403 10.828a14 14 0 0 0 .485-3.658A13.9 13.9 0 0 0 31.908 0a12.65 12.65 0 0 1 8.448 7.267c-2.528.524-4.883 1.763-6.953 3.56m-3.388 1.385c.705 0 1.4-.049 2.08-.137-2.599 2.72-4.641 6.382-5.864 10.616a11.7 11.7 0 0 0-2.85-4.007c-4.781-4.369-11.987-3.837-16.568.744-3.411 3.41-5.585 7.896-6.813 12.57C.868 19.914 6.393 9.119 14.794 1.404c2.194 6.292 8.18 10.808 15.221 10.808m-22.729 20.8s3 1.5 8.927-1.073c5.454-2.364 8.398-5.625 9.46-6.994a33.5 33.5 0 0 0-.702 6.86c0 2.214.213 4.36.61 6.403-3.115-4.635-8.735-2.945-11.869 6.585-3.354 10.211-.356 19.566-.356 19.566-8.569-16.352-6.07-31.347-6.07-31.347m18.715 7.052c1.157 4.499 3.234 8.403 5.92 11.286-1.467-.554-3.243-.148-4.14 4.084-3.214 15.135 9.281 31.06 9.281 31.06-17.423-15.209-19.564-36.489-19.564-36.489 5.461-2.083 7.769-7.67 8.503-9.94m20.615-6.242a3.541 3.541 0 1 1-7.082 0 3.541 3.541 0 0 1 7.082 0"/></svg>