<svg xmlns="http://www.w3.org/2000/svg" width="31.923" height="26.945" viewBox="0 0 31.923 26.945"><title>clan-dromoka</title><path fill="#444" d="M2.341.715C2.879.329 3.519.177 4.145 0 4.668.079 5.2.046 5.728.05L19.6.049c1.306-.039 2.597.211 3.9.276.928.037 1.857.089 2.787.043 1.252.002 2.504.018 3.756.025-1.583.365-3.206.505-4.792.847-.691.073-1.396.156-2.081-.009l.512.212c-1.671.125-3.342.274-5.014.385-.555.087-1.116.118-1.677.146.554.763 1.269 1.389 1.819 2.155.338.371.562.908 1.075 1.07.471.209.969.342 1.47.457q.175.117.356.23c.154.205.316.403.474.603.046.005.139.014.185.02l-.026.307.22.25.424.014a6.5 6.5 0 0 0 1.17-1.139c.435-.581 1.027-1.012 1.553-1.506.163.074.321.167.495.216.582-.05 1.048-.464 1.611-.585.418-.096.789-.321 1.176-.497-.153.158-.318.309-.441.493-.002.159.126.27.201.397l-.023.182c.176.278.364.553.638.743-.124.247-.261.486-.398.726q.37-.223.736-.453c.204-.017.407-.05.612-.081q-.098.128-.193.258l.231.231.218.055-.042.296.139.299q-.099.423-.187.849.171.117.341.239l.349-.103c-.029.405.034.827-.132 1.212q.413-.088.831-.148c-.008.422-.158.812-.493 1.079q.272-.017.543-.029c-.358.291-.706.611-1.144.778l.112.166c-.556.197-1.057.523-1.622.695-.412.111-.676.46-.945.765.239.218.483.433.7.674l-.052.23c.289.279.515.612.756.93q-.162.128-.321.26.232.242.453.494l-.375.067-.073.232q.185.295.356.599c-.403-.07-.811-.106-1.213-.017l.026.207c-.442-.041-.882-.1-1.324-.136-.208.064-.415.123-.622.19-.396-.133-.783-.301-1.201-.351l-.04.42.3.195a4 4 0 0 1-.513.912c-.543.671-1.024 1.405-1.711 1.943.081-.239.187-.479.175-.737l-.232-.027c-.248.31-.31.711-.434 1.077-.188.459-.636.721-.996 1.032-.356.276-.622.657-1.017.883-.586.337-1.092.791-1.649 1.171-.77.489-1.486 1.139-1.838 1.999.878.002 1.753-.141 2.629-.027 1.485.024 2.99.198 4.456-.132-.761.385-1.52.831-2.384.93-.573.06-1.163.144-1.656.47-.447-.002-.866.151-1.283.293-.69.153-1.409.222-2.106.07-.471.012-1.139-.055-1.339.491-1.325.197-2.681-.08-3.996.191-.685.316-1.488.188-2.197.018-.402.06-.812.071-1.205-.047q.415-.083.835-.137c-.317-.052-.672-.052-.919-.289a16 16 0 0 0-.365-.098l.441-.231c-.01-.379-.219-.686-.539-.879l.263-.159c.045-.21.105-.415.154-.624.317.07.62-.027.93-.065 1.092.121 2.191.135 3.287.188.712.14 1.431.016 2.147.007q-.182-.143-.366-.283l.089-.115c-.295-.237-.534-.57-.914-.676-.357-.128-.679-.328-1.018-.493-.227-.515-.788-.72-1.133-1.134-.546-.635-1.221-1.143-1.742-1.8a2 2 0 0 0-.263.281c-.093-.289-.15-.589-.263-.871-.128-.104-.298-.136-.448-.198l-.293.213q.023-.295.055-.588l-.173-.369c-.212.021-.425.014-.635.045-.036-.414-.153-.845-.439-1.157-.293-.232-.642-.381-.934-.616-.329-.244-.572-.577-.832-.886l-.014.12c-.37-.26-.763-.487-1.106-.783q-.265.223-.529.449l-.083-.17c-.407.191-.846.339-1.188.642-.236.203-.524.329-.79.486l.024-.26q-.381.164-.751.355c.273-.405.288-.904.422-1.359.071-.245.172-.478.251-.72l.262-.153q.102-.373.19-.748l-.346.561c.157-.834.429-1.636.648-2.455-.502-.529-1.094-.956-1.654-1.417-.169-.144-.394-.179-.598-.246l.009-.312q.21-.099.414-.204l-.223-.44.088-.145C.235 8.814.116 8.642 0 8.468l.402-.025C.363 7.996.255 7.559.184 7.117c.096.147.185.298.278.448q.146.047.291.096c.12-.18.259-.349.349-.548.049-.284.013-.577.012-.863.479.095.931-.09 1.385-.212l.158-.231-.222-.33c.266.162.587.264.889.125l.042-.294c.049.063.149.187.199.249.386-.214.8-.388 1.147-.666.056.217.108.435.165.651q.241-.033.482-.071c.405.216.88.293 1.322.146q.178.065.348.153a6 6 0 0 0-.044.408q.25.028.502.045-.203.175-.404.354c.25.39.525.768.903 1.043.569-.371 1.11-.786 1.644-1.208.267-.192.376-.509.555-.772.297-.275.695-.396 1.035-.605.332-.248.581-.588.882-.871.503-.496 1.121-.855 1.618-1.358.189-.188.398-.356.607-.521-.361-.067-.725-.14-1.093-.106-.859.05-1.725.036-2.576-.103-.396.019-.797.049-1.169.193-.579.217-1.202.255-1.811.298a29 29 0 0 0-2.478.159c-.553.062-1.146-.069-1.659.202-.174-.233-.298-.497-.457-.74l.267-.101c-.154-.175-.306-.351-.468-.519q.202-.034.405-.066l.151-.127c-.23-.113-.476-.215-.643-.417q.256-.026.514-.044a11 11 0 0 0-.971-.208Zm11.437 4.719c-.381.373-.852.643-1.216 1.037-.343.351-.58.786-.902 1.154-.685.765-1.392 1.51-2.066 2.285.431.853.747 1.757 1.117 2.636.11.252.282.469.425.702.305.484.409 1.062.701 1.553.635.994 1.056 2.102 1.591 3.148.235.43.63.733.926 1.116a29 29 0 0 0 1.349 1.698c.421-1.1.961-2.152 1.489-3.205l.119-.085c.158-.598.511-1.113.773-1.666.281-.538.513-1.101.833-1.617.302-.42.439-.929.71-1.367.185-.321.466-.59.566-.955.176-.623.63-1.112.843-1.719-.402-.539-.888-1.02-1.2-1.621-.246-.356-.478-.728-.812-1.009-.748-.667-1.191-1.614-1.988-2.231-.524-.454-1.008-.952-1.534-1.405-.606.481-1.151 1.032-1.725 1.55Z"/></svg>