<svg xmlns="http://www.w3.org/2000/svg" width="42.596" height="50.021" viewBox="0 0 42.596 50.021"><path d="M30.785 27.322c5.71 7.19 1.06 17.527-8.198 18.516-7.575.81-14.633-5.527-11.598-13.265 1.2-3.061 4.293-5.166 7.351-6.046-.07-1.146-.73-2.032-.852-3.231-.372-3.678.67-5.79 2.76-8.703.986-1.372 2.559-2.655 3.332-4.315.465 1.896-1.467 3.176-2.236 4.454-2.342 3.89-3.504 7.574-.952 11.753 5.694.287 9.49 4.91 7.973 10.56-1.5 5.584-11.086 6.13-12.909.947-1.509-4.291 2.499-8.675 6.736-6.497 2.676 1.375 2.376 6.816-1.715 6.015-1.404-.275-1.812-2.422-.365-2.862-.036 3.047 3.272 1.857 1.929-.853-.977-1.97-4.03-1.116-4.85.677-1.997 4.373 4.775 7.156 8.184 4.124 2.232-1.985 2.059-6.54-.227-8.378-7.032-5.66-16.64 2.624-11.59 10.388 2.28 3.503 7.336 3.865 11.104 3.01 4.866-1.102 6.924-5.053 6.69-9.815-.293-5.98-4.57-6.544-6.74-10.698-3.442-6.587 1.784-8.81 1.207-14.828-.208-2.166-1.323-3.283-2.124-5.166-.709.25-.389 1.153-.532 1.734-1.921 7.78-9.218 8.38-10.439 16.082-.336 2.12.392 3.908 1.176 5.837-.605.645-2.197-2.913-2.282-3.33-.41-2.01-.126-4.808.753-6.681 2.25-4.792 10.069-8.088 9.67-13.997-.07-1.058-.958-1.778-1.21-2.75 2.587-.14 5.07 3.576 5.85 5.737 1.049 2.906.936 4.774 0 7.637-.773 2.36-1.893 3.46-1.487 6.275.537 3.72 3.563 5.115 5.591 7.669m4.287-13.436c-3.442 1.656-7.19 5.232-6.123 9.429.102.398-.24.697.482.58.003-3.675 2.782-7.043 6.212-8.122-.497 3.23-.653 6.13.762 9.155.832 1.78 2.485 3.063 3.237 4.887 1.685 4.086.947 8.56-3.278 10.568.66-2.987.956-6.105.128-9.09-.84-3.031-3.678-6.01-3.722-9.201-.01-.733.396-1.48.244-2.258-1.224.78-1.074 3.277-.891 4.598.385 2.798 2.555 4.965 3.175 7.577 1.014 4.276-.387 10.71-4.112 13.353-7.964 5.655-22.592 3.32-23.64-7.844-.246-2.606.977-5.84.622-8.963-.056-.488-.964-3.026-1.2-3.223-.048-.04-.484-.085-.477.12.018.552.604 1.64.694 2.412.406 3.45-.907 4.624-1.181 7.369-.257 2.569.348 5.077.967 7.538-1.715-.384-3.371-1.863-4.112-3.412-2.414-5.04 3.263-10.375 1.462-16.277-.226-.741-.88-1.263-.932-2.052 3.286 1.198 6.064 3.43 7.097 6.879.154.513.303 3.186.814 1.865.343-.888-.08-3.43-.46-4.37C9.479 22.029 4.231 18.92.645 19.11c-1.479.078 0 .679.353 1.084 5.834 6.69-2.641 12.383-.41 19.046.516 1.539 2.408 3.344 3.866 4.02 1.018.472 2.606.475 3.367.933.775.466 2.317 2.573 3.377 3.314 5.857 4.094 17.872 3.075 22.773-2.23.648-.7 1.833-3.088 2.163-3.331.341-.252.97-.26 1.401-.511 3.708-2.16 5.054-4.136 5.061-8.58.007-3.835-4.713-7.525-5.651-11.573-.567-2.447-.382-4.521 1.096-6.58.3-.418 2.028-1.861 1.665-2.275-.16-.183-4.098 1.2-4.633 1.458"/></svg>