<svg xmlns="http://www.w3.org/2000/svg" width="31.998" height="23.907" viewBox="0 0 31.998 23.907"><title>ability-foretell</title><path fill="#444" d="M15.911.001 16.074 0c.285.962.583 1.919.873 2.88.035.264.286.398.449.578.336.318.532.775.547 1.235.088.407-.008.83.089 1.236.114.604.309 1.234.78 1.659.271.283.66.393 1.031.472a2.03 2.03 0 0 0 1.603-.284c.77-.425 1.059-1.374 1.851-1.769.221-.144.498-.126.747-.089.212.094.395.246.549.418.358.411.8.742 1.259 1.032 1.636 1.028 3.475 1.677 5.322 2.213.277.091.579.118.824.286-.347.315-.788.494-1.179.745-1.742.975-3.575 1.814-5.51 2.324-.114.03-.207-.06-.295-.117-.574-.429-1.162-.839-1.744-1.257-.123.15.007.327.054.481.129.364.275.723.387 1.093.009.091.046.254-.081.275-.75.21-1.474.5-2.186.813a.47.47 0 0 1-.295.024c-.34-.452-.61-.954-.96-1.397l-.166-.124c.003.423.114.837.12 1.261.047.282.073.569.048.854-.188.177-.436.273-.637.433-.283.195-.51.454-.769.677-.392-.7-.694-1.447-1.062-2.159l-.141.12c-.179.882-.041 1.846.457 2.605.642.923 1.713 1.441 2.784 1.682.123.032.093.203-.005.248-.465.37-.911.762-1.353 1.159-.342.272-.622.614-.97.879-.047.044-.137.052-.181.001a14 14 0 0 1-.891-.952c-.083-.108-.193-.182-.335-.175.15.69.288 1.383.424 2.075.021.095-.064.153-.12.214a4.7 4.7 0 0 0-1.038 1.444c-.138.263-.219.554-.364.814-.11-.214-.198-.438-.289-.659a5.2 5.2 0 0 0-1.183-1.671c-.073-.054-.05-.15-.043-.226.105-.457.188-.919.293-1.375q.066-.278.07-.564a.37.37 0 0 0-.303.156 13 13 0 0 1-.97 1.003c-.342-.275-.637-.601-.958-.898-.461-.391-.908-.799-1.38-1.176a.5.5 0 0 1-.18-.241c.755-.227 1.53-.467 2.161-.959.339-.309.692-.625.894-1.045.37-.711.452-1.549.297-2.329l-.139-.131c-.364.71-.688 1.44-1.051 2.15a2 2 0 0 1-.403-.362c-.291-.303-.685-.472-1.013-.725-.042-.391.029-.781.071-1.168.072-.3.027-.612.099-.912l-.166.081c-.354.438-.62.94-.963 1.385-.148.071-.323-.031-.464-.089-.687-.319-1.416-.529-2.121-.796.055-.615.457-1.146.51-1.758-.33.104-.568.368-.853.548-.342.229-.666.48-1.003.716-.082.059-.183.103-.284.065-2.225-.604-4.315-1.62-6.286-2.8A1.6 1.6 0 0 1 0 9.868a1 1 0 0 1 .305-.143 33 33 0 0 0 3.15-1.026c1.112-.445 2.204-.966 3.177-1.67.46-.324.777-.82 1.27-1.097.205-.056.429-.041.638-.008.292.128.536.342.756.569.396.409.666.949 1.177 1.239.402.294.913.421 1.407.374.403-.079.83-.145 1.167-.401.414-.293.629-.775.778-1.244.103-.365.192-.739.175-1.121-.022-.594.044-1.241.441-1.715.188-.269.557-.419.609-.771.272-.954.582-1.898.86-2.85Zm-.079 7.566c-.291.934-.825 1.78-1.502 2.482-.094.076-.027.219.051.28a6.2 6.2 0 0 1 1.534 2.678l.153-.001c.263-1.007.818-1.921 1.523-2.68.06-.07.17-.194.063-.277-.746-.783-1.336-1.739-1.59-2.796-.174.001-.184.187-.232.313Z"/></svg>