<svg xmlns="http://www.w3.org/2000/svg" width="356.193" height="345.058" viewBox="0 0 356.193 345.058"><path d="M138.983 330.689c-30.346-9.486-52.228-13.943-84.605-10.687-18.78 1.889-37.532 6.664-54.378 15.11 11.794-25.467 32.318-47.224 57.868-59.162-19.775-23.444-33.044-52.443-37.174-82.996C5.46 80.274 100.609-15.084 213.524 1.988c92.856 14.04 154.684 101.319 140.697 193.906-9.624 63.704-57.838 116.055-118.648 135.16 25.939-35.68 51.964-74.564 57.095-119.663 6.01-52.812-19.69-109.925-71.382-129.063-67.209-24.883-129.622 28.22-138.288 94.143-7.923 60.276 22.997 107.737 56.353 153.849.485.48.28.612-.368.369m129.584-160.352c-.63-2.33-5.463-16.863-6.812-17.518-9.302-1.396-18.68-.92-27.815 1.324-37.017 9.092-51.843 37.546-48.077 73.791.056.537.374 2.89.863 3.224 8.467-19.632 27.897-33.95 49.954-32.07-2.17 28.54-13.093 56.908-29.413 80.259-1.58 2.26-13.389 17.91-14.695 18.138-.705.123-5.878-6.503-6.708-7.591-20.824-27.322-29.977-62.279-23.539-96.402 14.077-74.614 83.201-64.442 83.201-64.442-34.805-39.58-94.152-31.398-123.802 9.837-33.803 47.01-15.87 103.187 14.008 146.577 15.054 21.86 33.566 40.404 51.73 59.594 13.99-14.665 28.532-28.84 41.09-44.797 28.195-35.824 52.715-83.05 40.015-129.924"/></svg>