<svg xmlns="http://www.w3.org/2000/svg" width="178.625" height="138.397"><path d="m130.563 0-4.344 17.031-12.094-7.125 9.563 14.938-.688-5.125 5.281 4.218 2.688-8.03 2.25 9.906 8.531-4.938-3.469 7.375 6.844 5.688-7.187-1.032-2.438 9.938-2.406-10.282-5.188 6-1.406-3.75-5.406 17.282 9.25-13.344 7.906 18.375.531-19.437 17.344.437-12.937-10.969 7.625-16.187-15.032 8.781zm-25.47 23.563-5.468 5.468A30.2 30.2 0 0 0 87 26.281c-16.746 0-30.312 13.566-30.312 30.313 0 16.746 13.566 30.312 30.312 30.312s30.313-13.566 30.313-30.312c0-4.506-.988-8.782-2.75-12.625l5.468-5.469s-1.554-3.342-4.344-6.75c1.268-.452 2.646-.788 4.063-.906 3.106-.26 6.243.37 8.5 2l2.625-3.657c-3.364-2.429-7.548-3.173-11.5-2.843-2.51.21-4.946.869-7.094 1.906-3.551-3.022-7.187-4.687-7.187-4.687m-.062 3.125q.078-.005.156 0a1.54 1.54 0 0 1 1.451.915 1.54 1.54 0 0 1-.357 1.678L104 31.531c-.531.65-1.64.7-2.23.103-.588-.598-.52-1.706.136-2.228l2.25-2.25c.228-.248.542-.417.875-.468m-20.437 3.53c2.545-.068 5.235.285 8 1.095-16.526.324-22.563 5.503-29.938 21.75 2.36-14.24 10.908-22.546 21.938-22.844m29.031 27.595C112.475 71.976 101.46 84.156 87 84.156c-8.633 0-16.322-3.974-21.375-10.187C70.898 78.683 77.87 81.53 85.5 81.53c14.017 0 24.938-10.684 28.125-23.719M11.438 66.5 10.562 81 0 75.688l7.469 9.218-7.281 7.688 9.187-3.156 1.813 8.25.78 3.5.688-3.532 1.406-7.281 7.22 6.969-3.97-9.156.282 3.5-4.438-4.313-1.281 6.469-1.406-6.375-4.938 1.687L9.47 85l-3.94-4.844 6.407 3.188.53-8.781 2.376 7.406 2.937-3.094-.25 2.844 5.47-10.5-7.5 7.844zm155.75 0-4.063 12.563-7.5-7.844 5.469 10.5-.25-2.844 2.937 3.094 2.375-7.406.531 8.78 6.407-3.187L169.156 85l3.938 4.156-4.938-1.687-1.406 6.375-1.281-6.469-4.438 4.313.281-3.5-3.968 9.156 7.219-6.969 1.406 7.281.687 3.531.781-3.5 1.813-8.25 9.188 3.157-7.282-7.688 7.469-9.219L168.063 81ZM35.844 76.875c-2.199-.005-5.33 2.928-7.719 7.281-1.366-.419-3-.75-4.625-.625-1.732.133-2.705.366-3.437.563-.733.197-1.183.344-2.282.344-1.067 0-1.817-.197-2.281-.376-.464-.178-.562-.28-.562-.28-.41-.328-1.08-.254-1.407.156-.327.409-.253 1.079.156 1.406 0 0 .413.332 1.094.594.681.26 1.686.5 3 .5 1.283 0 2.08-.21 2.813-.407s1.46-.408 3.062-.531c1.14-.088 2.416.169 3.563.5-2.372 5.214-2.651 10.109-.5 11.188.142.07.281.152.437.187l32.875 15.156 26.875-12.375-50.125-23.062a2.1 2.1 0 0 0-.937-.219m106.937 0c-.336 0-.652.076-.937.219l-86.375 39.75c-2.731 1.195-4.94 3.526-6 6.312s-.965 5.98.281 8.688 3.632 4.899 6.438 5.906 6.003.829 8.687-.469l86.594-39.906c.156-.035.295-.116.437-.187 2.151-1.079 1.872-5.974-.5-11.188 1.147-.331 2.423-.588 3.563-.5 1.602.123 2.33.334 3.062.531.733.197 1.53.406 2.813.406 1.314 0 2.319-.238 3-.5a4.4 4.4 0 0 0 1.094-.593c.409-.327.483-.998.156-1.407s-.997-.483-1.406-.156c0 0-.099.103-.563.281s-1.214.376-2.281.376c-1.099 0-1.549-.147-2.281-.344s-1.706-.43-3.438-.563c-1.625-.125-3.26.206-4.625.625-2.39-4.353-5.52-7.286-7.719-7.281M34.813 78.75a1 1 0 0 1 .25 0c1.517.165 1.012 3.976-1.126 8.5s-5.107 8.04-6.624 7.875c-1.518-.165-1.013-3.945 1.125-8.469.036-.076.088-.143.125-.219a26 26 0 0 1 1.812.75c.463.352 1.233.173 1.5-.343s-.04-1.232-.594-1.406c0 0-.71-.392-1.781-.813 1.852-3.284 3.997-5.701 5.313-5.875m108.75 0c1.28-.14 3.586 2.372 5.562 5.875-1.071.421-1.781.813-1.781.813-.554.174-.854.897-.587 1.413s1.03.688 1.493.337c0 0 .78-.368 1.813-.75.036.075.088.142.125.218 2.137 4.524 2.642 8.304 1.125 8.469-1.518.165-4.488-3.35-6.625-7.875-2.138-4.524-2.643-8.335-1.125-8.5m-24.97 36L91.72 127.125l22.031 10.156c2.684 1.298 5.882 1.476 8.688.469 2.805-1.007 5.19-3.198 6.437-5.906s1.341-5.901.281-8.688c-1.06-2.786-3.269-5.117-6-6.312z"/></svg>