<svg xmlns="http://www.w3.org/2000/svg" xml:space="preserve" width="92.541" height="86.74" overflow="visible" version="1.2" viewBox="0 0 92.541 86.74"><path fill="#231f20" d="M26.59 32.491c-.236-5.089 2.708-8.726 2.708-8.726 3.44 1.41 3.772 4.435 3.772 4.435-3.792.672-6.48 4.291-6.48 4.291m2.483-21.459c1.962-.552 2.405-.646 2.728-1.397.322-.753 1.296-4.624 1.563-5.656s.412-2.758-1.734-2.278c-2.15.483-9.71 3.21-14.01 8.105-3.426 3.904-9.338 3.972-11.43 8.908 0 0 1.59-.93 2.89-.297 1.509.736.94 2.337.65 3.625-.278 1.248-3.915 12.451-3.915 12.451s-1.021 3.168-2.2 4.778C2.433 40.881-.25 43.617.019 49.358c0 0 1.127-1.394 2.737-1.394s3.31 1.06 4.36 4.74c1.785 6.24 6.446 10.09 9.186 13.897 3.299 4.583 3.724 12.787 1.318 17.107 2.748-1.515 9.52-11.64 3.007-20.449-6.622-8.954-9.062-13.417-9.325-17.657-.07-1.115.628-2.141 1.692-3.05 0 0-2.675-4.985-1.008-10.796 3.544-12.343 12.31-19.382 17.087-20.724m11.902 49.496a2.13 2.13 0 0 1-.713.853c-1.428.967-3.83-.079-5.364-2.339-1.536-2.262-1.623-4.882-.195-5.85.83-.564 1.99-.441 3.116.2-2.377-3.306-5.237-4.978-6.497-5.593 0 0 1.379-6.845 6.154-8.858 0 0 2.644-10.582 2.703-10.87.056-.289.618-2.655.476-3.359 0 0-2.005 1.534-4.273 6.004-.391.77-1.54 1.71-3.411 3.082-2.58 1.893-6.243 4.792-8.74 10.803-2.446 5.897-1.252 14.414-.445 17.175 0 0 6.04-.344 9.145 4.66 3.107 5.004 1.725 15.817-.345 20.304 0 0 8.915-8.34 8.973-20.65.01-2.06-.208-3.904-.584-5.562M50.98 66.09c.058 12.31 8.973 20.65 8.973 20.65-2.07-4.487-3.452-15.3-.344-20.304s9.144-4.66 9.144-4.66c.807-2.76 2-11.278-.448-17.175-2.494-6.011-6.16-8.91-8.737-10.803-1.871-1.372-3.02-2.312-3.41-3.082-2.268-4.47-4.274-6.004-4.274-6.004-.142.704.42 3.07.476 3.358.06.289 2.704 10.871 2.704 10.871 4.774 2.013 6.155 8.858 6.155 8.858-1.262.615-4.122 2.287-6.5 5.593 1.127-.641 2.287-.764 3.117-.2 1.428.968 1.34 3.588-.195 5.85-1.534 2.26-3.936 3.306-5.364 2.34a2.15 2.15 0 0 1-.715-.854 24.8 24.8 0 0 0-.582 5.562M65.95 32.491c.237-5.089-2.707-8.726-2.707-8.726-3.44 1.41-3.772 4.435-3.772 4.435 3.79.672 6.479 4.291 6.479 4.291m-5.94-13.536c-.346-1.413-3.678-14.871-3.678-14.871s-.23-1.553-1.554-1.67a597 597 0 0 1-4.314-.401S48.22 1.898 48.394 0c0 0-1.035.345-1.152 1.38-.11.987-.758 1.407-.972 1.407-.212 0-.862-.42-.972-1.406C45.182.345 44.148 0 44.148 0c.172 1.898-2.07 2.013-2.07 2.013s-2.99.288-4.314.401c-1.324.117-1.554 1.67-1.554 1.67s-3.333 13.458-3.677 14.871c-.414 1.7-3.742 2.384-3.742 2.384 5.75 1.095 6.556 6.328 6.556 6.328s1.009-3.767 6.294-6.331c0 0 1.546 2.108 1.219 4.174-.12.745-2.163 12.05-3.717 15.788 0 0 2.245 1.268 3.166 3.683.76 1.997.805 4.716.805 4.716s2.1-3.638 1.725-5.177c-.52-2.127-1.437-2.127-.69-3.911.747-1.783 2.013-1.898 2.013-1.898h.218s1.266.115 2.015 1.898c.747 1.784-.175 1.784-.692 3.91-.374 1.54 1.726 5.178 1.726 5.178s.045-2.72.804-4.716c.922-2.415 3.164-3.683 3.164-3.683-1.552-3.738-3.598-15.043-3.716-15.788-.326-2.066 1.22-4.174 1.22-4.174 5.284 2.564 6.292 6.331 6.292 6.331s.807-5.233 6.558-6.328c0 0-3.328-.684-3.742-2.384m20.546 12.801c1.667 5.811-1.008 10.796-1.008 10.796 1.064.909 1.763 1.935 1.692 3.05-.263 4.24-2.704 8.703-9.325 17.657-6.513 8.81.259 18.934 3.007 20.449-2.408-4.32-1.983-12.524 1.318-17.107 2.74-3.806 7.4-7.656 9.183-13.897 1.052-3.679 2.755-4.74 4.363-4.74 1.612 0 2.737 1.394 2.737 1.394.269-5.74-2.414-8.478-3.596-10.087-1.18-1.61-2.2-4.778-2.2-4.778s-3.637-11.203-3.918-12.451c-.288-1.288-.856-2.889.653-3.625 1.299-.632 2.89.297 2.89.297-2.094-4.936-8.002-5.004-11.43-8.908-4.3-4.894-11.863-7.622-14.01-8.105-2.146-.48-2 1.246-1.734 2.278.267 1.032 1.24 4.903 1.563 5.656.323.75.766.845 2.728 1.397 4.778 1.342 13.545 8.38 17.087 20.724"/></svg>