<svg xmlns="http://www.w3.org/2000/svg" width="642.056" height="292.153" viewBox="0 0 642.056 292.153"><g aria-label="GRAND PRIX"><path d="M27.115 59.768q0-12.599 4.148-23.277 4.149-10.755 11.216-17.977 7.145-7.298 16.594-11.293Q68.599 3.15 79.2 3.15q23.584 0 37.105 13.52l-17.44 24.2-.46-.461q.46-4.149.46-6.914 0-8.835-4.762-14.443-4.686-5.685-14.135-5.685-12.292 0-19.59 11.677T53.08 58.232q0 24.506 6.837 36.26 6.837 11.677 21.51 11.677 7.99 0 14.75-3.303V86.349q0-10.755-4.993-16.747-4.993-6.07-14.52-9.22v-.614h41.562v86.58h-.615q-8.68-12.753-21.434-16.517v-23.124l-13.06 9.68h-6.453q-10.755 0-19.743-3.611-8.988-3.61-15.672-10.525-6.683-6.99-10.448-17.823-3.687-10.908-3.687-24.66m103.694 55.082v-.614l8.68-5.378v-85.58h19.514v-.615L130.809 5.378v-.692h43.942q6.53 0 12.446 1.076 5.992.998 11.216 3.303 5.3 2.305 9.065 5.608 3.84 3.304 6.069 8.22 2.228 4.84 2.228 10.755 0 10.141-5.916 17.516-5.915 7.375-15.98 10.218l38.874 68.756q6.683 11.6 15.595 15.365l-.154.537q-1.23.308-2.842.308-5.84 0-13.214-3.304-7.298-3.303-15.057-9.295-7.683-5.916-15.442-15.288-7.682-9.296-13.52-20.435l-22.202-42.33v-.614h4.532q10.832 0 15.442-5.3 4.686-5.378 4.686-15.365 0-9.142-5.378-13.905-5.3-4.763-17.44-4.763h-4.685v80.356q0 3.688.845 6.684t2.15 4.84 3.15 3.303q1.92 1.383 3.535 2.075 1.69.69 3.687 1.229v.614z"/><path d="M229.869 114.85v-.614l7.913-5.378L282.877 0h.69l43.714 108.858 7.836 5.378v.614h-30.653l-12.291-32.88-13.214 8.527h-19.974l-2.228 5.301q-1.69 4.456-1.69 8.067 0 7.759 8.374 10.37v.615zm33.725-35.876h27.503l-12.753-34.647h-.614zm76.599-73.596v-.692h30.345l42.176 60.46h.69V25.044q0-4.532-.536-7.605-.538-3.15-1.46-5.147-.845-1.998-2.766-3.304-1.843-1.383-3.84-2.074-1.998-.768-5.455-1.536v-.692h36.03v.692l-8.604 5.3v111.394h-.692l-60.075-85.427h-.615v57.924q0 5.685.615 9.142.69 3.38 2.612 5.531 1.92 2.074 4.148 3.073 2.305.922 6.607 1.92v.615h-36.03v-.614l8.68-5.378V16.671l-3.917-5.993zM448.156 114.85v-.614l8.68-5.378v-85.58h19.514v-.615L448.156 5.378v-.692h43.25q15.98 0 27.81 6.914 11.908 6.914 18.13 19.36 6.3 12.445 6.3 28.808 0 26.274-13.904 40.716-13.828 14.366-38.335 14.366zm32.265-10.217h10.986q13.367 0 19.82-11.063 6.453-11.139 6.453-33.802 0-23.508-6.376-34.11-6.376-10.678-19.897-10.678H480.42ZM302.633 147.87v-.69h43.943q18.437 0 29.346 8.066t10.909 23.277q0 7.836-3.304 14.29-3.226 6.452-8.68 10.524-5.455 3.995-12.215 6.223-6.684 2.15-13.905 2.15h-.615l-13.214-8.527v70.678h-.614q-3.38-4.994-9.603-9.757-6.223-4.686-13.367-6.76V165.77h19.513v-.615zm32.265 52.855h7.222q19.513 0 19.513-21.28 0-11.062-5.147-16.133t-16.901-5.07h-4.687zm57.537 56.619v-.615l8.68-5.378v-85.58h19.514v-.615l-28.194-17.285v-.691h43.943q6.53 0 12.445 1.075 5.992.999 11.216 3.303 5.3 2.305 9.065 5.609 3.84 3.303 6.07 8.22 2.227 4.84 2.227 10.755 0 10.14-5.915 17.515-5.916 7.375-15.98 10.218l38.873 68.756q6.683 11.6 15.595 15.365l-.154.538q-1.23.307-2.842.307-5.84 0-13.214-3.303-7.298-3.304-15.057-9.296-7.682-5.915-15.441-15.288-7.683-9.295-13.521-20.435l-22.202-42.33v-.614h4.533q10.832 0 15.44-5.3 4.687-5.378 4.687-15.365 0-9.142-5.377-13.905-5.301-4.763-17.44-4.763H424.7v80.357q0 3.687.845 6.683t2.15 4.84q1.307 1.844 3.15 3.304 1.92 1.382 3.534 2.074 1.69.691 3.688 1.229v.615z"/><path d="M489.805 147.87v-.69h40.946v.69l-8.68 5.302V273.86h-.615q-3.38-4.994-9.603-9.757-6.223-4.686-13.367-6.76V153.172Zm50.307 109.474v-.615l8.68-5.378 31.42-45.632-30.804-52.547-7.76-5.301v-.691h31.498l21.895 37.335 14.289-20.819q2.842-3.994 2.842-8.45 0-2.92-1.767-4.917t-5.454-2.458v-.691h35.26v.69l-8.68 5.302-29.73 42.944 32.727 55.389 7.528 5.224v.615h-31.42l-23.508-39.948-16.21 23.43q-2.765 3.995-2.765 8.528 0 6.376 7.22 7.375v.615z"/></g><path d="M181.824 101.712s80.637-40.956 161.583-40.01c145.662 1.704 265.82 93.43 292.656 193.585-11.76-43.89-92.415-180.21-277.367-180.21-85.034 0-148.523 42.371-148.523 42.371l69.278 1.587-92.892 22.048 56.679 59.828-72.43-40.938 17.327 81.875-37.794-69.262-50.388 91.33 29.91-102.356-102.361 23.614 96.056-47.244-61.42-53.546 74.018 31.503-9.44-63.006 29.906 59.852L197.56 37.14z" style="opacity:.75;stroke:#000;stroke-width:6.71;stroke-linecap:round;stroke-miterlimit:11"/></svg>