<svg xmlns="http://www.w3.org/2000/svg" xml:space="preserve" width="51.674" height="86.459" overflow="visible" version="1.2" viewBox="0 0 51.674 86.459"><path fill="#231f20" d="M48.895 37.331c-2.903 1.365-2.847 3.89-2.847 3.89 1.973-.68 2.22-2.408 2.22-2.408.74 1.172.927 5.246-2.776 6.666-2.465.944-3.56 2.16-4.02 2.87 2.238-4.662-.541-7.622-.541-7.622 1.308-.124 1.94.572 1.94.572.572-2.492 1.492-1.715 3.917-3.656 2.746-2.2.738-5.37.738-5.37-.37 1.728-1.663 1.79-3.208 2.282-1.541.495-1.541 2.224-1.541 2.224-.803-2.47 1.43-5.06 3.095-6.046 1.667-.988 2.654-2.778 1.05-4.875-1.604-2.1.297-4.816.297-4.816-.68 2.035 2.037 2.222 3.578 6.356 1.543 4.133 1.137 8.504-1.902 9.934m-35.06-1.912s1.914.432 3.209-1.974-2.406-4.999-1.725-7.836c.677-2.841 2.897-3.828 2.897-3.828s-1.234 3.95 2.594 5c0 0-2.223-2.84.369-4.877 2.592-2.033 6.48-3.948 4.196-9.995 0 0 5.43 2.282 5.8 7.28.37 5-3.64 3.95-4.01 9.444 0 0 1.048-.31 1.357-1.422.308-1.11 1.296-2.713 2.469-2.713 0 0-1.235 1.172-.308 2.836.925 1.668 3.64-.553 3.208-2.343s-1.358-2.162-1.358-2.162 2.469-.616 3.333 1.854c.864 2.467-.126 5.06-1.174 5.922-1.048.864-.553 2.59.372 3.33.926.74 2.344 1.669 2.283 2.843 0 0 .8-1.667.247-2.902-.555-1.234-.493-2.346 1.417-4.256 1.915-1.914 5-7.59 3.58-11.664s-4.195-6.047-3.64-8.516c0 0-1.91 1.667-1.356 4.074s1.973 4.32.617 6.357c0 0-.372-2.84-1.913-3.766-1.543-.925-3.147-2.346-2.346-4.688 0 0-1.79.862-1.79 3.33 0 0 0-4.073-3.64-5.863C24.88 7.097 25.438 1.543 26.856 0c0 0-5.615 2.778-6.787 8.023s1.05 7.898 1.05 7.898-1.95.141-2.994-1.492c-.914-1.431-.62-3.746-.62-3.746s-4.284 3.819-3.175 9.25c0 0-2.652-1.173-1.79-4.257.864-3.088 2.285-5.556-.43-7.53 0 0 2.097 1.911-.432 3.763-2.531 1.851-6.666 5.986-4.505 10.737 2.16 4.752 10.367 7.16 6.664 12.774M4.61 22.177l.032-.024q-.002 0-.032.024m5.71 26.079s-1.067-1.988.81-3.808c1.536-1.488-.687-3.907-.687-3.907s.68 1.482-.432 1.851c-1.11.373-2.593-.184-3.208-1.604-.618-1.419.432-2.283 1.665-1.79 0 0-.308-1.294-2.344-1.787-2.038-.495-4.504-2.84-3.64-6.418 0 0 .185 2.468 2.835 3.27 2.656.8 4.57.431 4.753 2.9 0 0 1.174-2.777-.68-4.814-1.85-2.035-2.59-3.27-2.157-4.38 0 0-1.111 1.974-.68 3.947 0 0-2.714-1.973-2.714-5.552 0-3.14.618-3.858.77-3.987-.414.307-4.89 3.789-4.597 9.972.31 6.48 5.223 8.918 5.223 8.918s-1.907.03-3.185-1.082c0 0-.31 3.221 3.07 4.087 4.292 1.1 1.963 2.715 5.198 4.184m.66 30.097-5.112 4.58 3.8.506 3.685-3.248.176-1.577-.315-2.131zm23.202-11.648.377-1.878 10.615-8.266-1.37-.16.222-1.997-1.016.19-10.701 8.829-2.214.2.153 1.473-3.147 2.078-.158-2.552-1.717-1.747-.927-.004-.19 4.318-2.652-2.286-1.388-3.439-.893 1.541-6.916-5.815-.447-1.207-1.16.258-4.066-3.765 2.47 4.914 5.952 5.195-1.461.4 3.764 3.844 1.543-.032 3.69 3.384-2.332 1.538.062-.993-4.281 4.719-1.42.025.525 2.504-.1 1.367 1.06-.87 4.184-3.29.839.564 2.752-2.22-.223 5.092 1.254 1.282.905 6.56.928-8.9 1.082.49-.205-3.278.847.703 1.302.043 8.079 8.585.434-1.944 3.196.666-5.09-4.629 1.544-.037-5.527-4.97-.05 1.172-4.546-4.008 4.856-3.92zm-.368-9.318c.262.292.576.683.48.81-.16.204-2.356 2.44-7.335 2.44h-1.562c-4.978 0-7.175-2.236-7.333-2.44-.096-.127.217-.518.478-.81-.58-.995-1.592-2.033-2.606-2.775-1.543-1.131-2.525-3.895-2.84-6.418-.327-2.626 1.345-8.022 2.777-8.454.886-.27 1.896-3.2 3.332-4.074 2.573-1.562 6.54-1.726 6.54-1.726h.865s3.97.164 6.542 1.726c1.44.874 2.445 3.805 3.332 4.074 1.433.432 3.104 5.828 2.776 8.454-.316 2.523-1.296 5.287-2.837 6.418-1.014.742-2.03 1.78-2.61 2.775m-.353-13.761c-.926-3.27-4.32-4.997-4.937-4.997s-.862 1.727-1.357 2.22c-.495.495-.803.461-.803.461h-.37s-.31.034-.802-.46-.74-2.22-1.356-2.22-4.013 1.726-4.938 4.996c-.822 2.91-1.153 8.886 3.51 11.175.854-.577 1.593-1.116 1.838-1.404.7-.822 1.728-.863 1.728-.863h.41s1.03.04 1.728.863c.246.288.985.827 1.84 1.404 4.663-2.29 4.33-8.266 3.509-11.175m-5.391-.431c-.745-.384-1.467-.683-2.323-.574-.553.071-1.053.321-1.543.574-1.524.784-2.32 1.938-2.278 3.706.04 1.77.867 2.914 1.825 3.494.458.277 1.825.764 2.22.798l.085.005c.445.006 1.12-.113 1.525-.277.402-.167 1-.38 1.364-.621.967-.647 1.448-1.704 1.488-3.473.042-1.768-.842-2.848-2.363-3.632"/></svg>