<svg xmlns="http://www.w3.org/2000/svg" xml:space="preserve" width="225.944" height="362.9" style="clip-rule:evenodd;fill-rule:evenodd;stroke-linejoin:round;stroke-miterlimit:2" viewBox="0 0 225.944 362.9"><path d="M193.602 329.953q-32.378 32.948-79.757 32.947c-35.448 0-63.569-12.129-84.371-36.403Q-.002 291.823 0 238.091c0-38.522 16.76-82.455 50.276-131.769C77.615 65.881 109.787 30.436 146.776 0c-5.397 24.66-8.085 42.182-8.085 52.584 0 23.893 7.503 47.196 22.527 69.927 18.496 26.964 32.548 47.014 42.19 60.096 15.024 22.741 22.536 44.887 22.536 66.448q0 47.973-32.345 80.899m-.582-123.374c-5.776-12.903-12.521-21.472-20.227-25.716 1.154 2.317 1.736 5.591 1.736 9.829 0 8.094-2.309 19.645-6.939 34.667l-7.503 23.118c0 13.482 6.727 20.227 20.218 20.227 14.248 0 21.382-9.446 21.382-28.321 0-9.622-2.886-20.885-8.667-33.808" style="fill-rule:nonzero"/></svg>