<svg xmlns="http://www.w3.org/2000/svg" width="31.899" height="26.577" viewBox="0 0 31.899 26.577"><title>clan-jeskai</title><path fill="#444" d="M10.865.172c.185-.044.368-.096.542-.172.186.012.376.053.543.138.1.046.21-.054.31-.019.098.057.183.131.272.199-.09.08-.16.181-.256.253a.55.55 0 0 0 .289.189c.057-.051.12-.18.21-.118.106.076.237.114.337.198.059.083.01.177-.09.18-.037-.061-.064-.133-.123-.177a1.3 1.3 0 0 0-.418.038c-.046.056-.035.14-.08.199-.043.056-.092.109-.136.165q.052.033.108.061c.06-.025.107-.071.166-.099.109-.008.227.027.327-.034.108-.066.243-.018.35-.081.158-.083.334-.111.502-.163.14-.041.278-.093.424-.115-.076.05-.163.088-.218.165a.7.7 0 0 0 .257-.03c.11-.035.229.002.342-.021.15-.048.294-.117.448-.153.246-.001.489.058.735.054.11-.019.219-.043.332-.042.114.002.218-.074.333-.046.25.05.509.046.758.111l-.015-.118c.099.042.19.099.29.141.104-.009.047-.147.049-.217a.47.47 0 0 0 .246-.004c.118.065.248.102.369.16l-.03-.113c.183.03.368.024.55.002.063-.011.109.043.164.065.095.055.208.03.312.033L18.97.712a.8.8 0 0 0 .237.003c.13-.044.219.122.35.081.257-.049.475.134.722.154.207-.039.41.041.61.081.188.091.365.237.584.235.102-.001.169-.083.233-.15l.088.055-.085.116.06.046q.09-.072.183-.143a.6.6 0 0 0 .329.032c.154-.03.274.109.425.102.199-.018.364.121.558.141.168.018.309.126.477.144.074.014.155.012.223.051.18.107.352.232.542.322.136.068.3.078.415.185.096.09.207.164.332.207l.045-.122c.134.05.27.099.39.178.157.097.258.265.432.336.23.101.427.262.633.403.098.066.17.169.284.209.157.073.286.195.45.256.486.221.814.663 1.267.933.079.054.147.122.23.17.182.1.3.279.469.397q.19.13.306.33c.085.148.24.23.375.323.128.104.262.218.32.378-.068-.037-.13-.082-.193-.126.053.141.097.329.249.39.14-.028.25.084.32.192.063.112.039.252.108.362.073.113.133.238.235.33.123.116.254.229.334.382-.162-.11-.298-.253-.458-.365.04.252.246.427.37.637.03.107.003.223.038.33.042.19.203.317.288.485.005.136.012.274.067.401l-.164-.038c.023.098-.031.185-.043.28-.03.127.063.237.106.35-.064-.019-.126-.047-.192-.058q-.06.05-.116.104.125.137.23.292c-.053.045-.124.081-.147.153-.017.055-.066.087-.11.119.03.08.059.161.076.245-.065-.057-.117-.126-.176-.188-.051.02-.094.057-.14.087.053.081.118.153.18.226l-.204-.054q.004.112 0 .224c-.128-.033-.193-.164-.315-.211.079.124.224.199.267.346-.097-.041-.19-.095-.294-.116.024.139.216.146.227.283.024.119-.048.233-.028.352.013.115.032.23.026.346-.093-.165-.121-.358-.204-.528-.025-.049-.088-.048-.132-.066-.004.115.084.201.125.303-.071.011-.167-.034-.215.038-.09.095-.12.23-.215.321-.05.082-.197-.023-.2.104.026.151-.04.287-.102.421.102.099.24.184.27.333-.116-.068-.177-.192-.268-.285-.093-.098-.14-.228-.233-.325-.022.055-.062.106-.067.166.048.115.104.226.153.341a1.4 1.4 0 0 0-.517-.207q.04.081.088.161c-.09-.06-.19-.036-.283-.003.038.135.136.238.207.356a3.5 3.5 0 0 1-.456-.451l-.025.099c-.185.014-.365-.039-.55-.03-.093.007-.18-.032-.268-.056-.098-.031-.201-.002-.3.006-.1.023-.174-.064-.266-.085-.085-.004-.163.05-.245.047a1 1 0 0 0-.38-.111c-.103-.004-.126-.163-.234-.143-.05.069-.087.154-.18.173.113.156.17.338.227.52a2 2 0 0 1-.238-.246l-.01.141a3 3 0 0 1-.241-.292q.088.006.178.008a.4.4 0 0 0-.111-.163 2 2 0 0 1-.102.083c-.127-.026-.182-.156-.28-.224-.091-.064-.178-.133-.272-.192-.103-.059-.088-.214-.198-.266-.123-.071-.22-.191-.367-.215.17.406.56.652.858.959.134.101.253.222.402.303l-.038.098c-.101-.054-.152-.16-.234-.234-.104-.098-.231-.168-.335-.265-.111-.102-.248-.172-.353-.281a13 13 0 0 0-.337-.331c-.073-.063-.082-.165-.107-.252l.112-.114c-.061-.022-.141-.063-.19.004.004.061.02.121.032.182a4 4 0 0 1-.325-.285c-.002-.032 0-.063-.007-.094-.085-.123-.223-.192-.32-.304-.074-.083-.142-.178-.247-.224-.15-.077-.264-.214-.426-.266-.1-.036-.174-.117-.262-.173-.225-.144-.423-.325-.625-.498.049-.089-.061-.146-.116-.196-.14-.091-.28-.181-.39-.309-.316-.129-.58-.354-.87-.532-.157-.096-.334-.166-.466-.299-.074-.069-.14-.153-.231-.199-.123-.043-.263-.025-.378-.093-.305-.191-.643-.316-.967-.467-.218-.051-.431-.126-.655-.144-.151-.007-.275-.102-.414-.149-.161-.048-.3-.147-.45-.218l-.074.154a4 4 0 0 0-.106-.2.7.7 0 0 0-.14.111q.003-.093-.007-.186-.107.047-.207.108c-.24-.124-.508-.176-.77-.23-.123-.034-.22.063-.298.14.1.208.222.425.43.54.192.104.388.2.593.272.297.079.402.411.643.572-.045-.122-.116-.234-.146-.361.248.118.289.443.532.563.12.066.16.214.275.289.122.091.279.138.38.254.149.336.348.649.587.928l-.012-.198c.06.072.128.141.17.226.028.094.017.194.046.288.042.08.17.09.182.189.022.133.062.262.104.39.042.121-.037.236-.068.35l.117.201c-.035.084-.112.168-.08.265.034.106.09.203.153.295.025-.144-.004-.289 0-.433.148.063.13.271.286.324 0 .152-.016.303-.031.454-.017.096.052.175.068.266.013.069.019.139.03.209l.093-.171.046.081.105-.054c.002.1.023.199.102.267-.061.186.042.369.01.557a.45.45 0 0 1-.074.209c-.043-.074-.052-.188-.154-.2-.041.11-.103.214-.115.333-.021.258-.097.508-.115.766-.006.233-.192.396-.322.57.05-.139.147-.275.126-.428-.048-.112-.114-.215-.165-.325-.033.036-.094.062-.092.118.015.097.064.184.096.276l-.144.014c-.036-.128-.041-.27-.124-.38-.034.163.015.324.064.478-.067.076-.185.132-.181.248-.015.165-.082.324-.066.491.002.071.02.146-.002.216-.051.111-.168.166-.244.256-.033.063-.038.136-.067.201-.061.061-.144.094-.22.133.023-.108.076-.205.11-.308l-.123-.031c-.096.17-.173.355-.308.499a7 7 0 0 1-.593.559l-.06-.078c-.1.119-.206.233-.33.329.067-.163.123-.33.21-.483a.65.65 0 0 1 .174-.328c-.09-.071-.198-.137-.211-.263-.17.115-.27.301-.411.443-.078.079-.182.127-.255.211-.037.071-.04.154-.07.228-.083.077-.197.111-.278.192-.271.275-.514.586-.837.802-.075-.017-.054-.116-.082-.17-.143-.025-.25.082-.334.182-.06.076-.093.17-.165.236-.06.046-.13.072-.195.108-.104.047-.132.178-.236.227-.254.125-.521.225-.763.372-.13.079-.201.222-.327.304-.126.077-.276-.028-.407.03-.11.046-.205.122-.323.144-.128.034-.273.03-.38.12-.05.042-.112.062-.174.082l.064-.129c-.14-.017-.28.016-.42.014.092-.056.198-.085.287-.146.053-.064.068-.151.114-.22.045-.067.103-.125.154-.187q-.042-.08-.08-.16c.119-.069.248-.121.375-.174l-.053-.166a2 2 0 0 1 .257-.391c.073-.07.024-.175.045-.261.032-.079.084-.147.129-.218l-.044-.154c.135-.148.172-.347.24-.529.033-.097.002-.211.075-.293.11-.132.063-.322-.035-.446-.067-.068-.011-.156-.02-.235-.03-.101-.066-.2-.086-.303l.15.02a1.3 1.3 0 0 0 .018-.295c.002-.149-.166-.208-.227-.329q-.102-.007-.203-.011l.004-.142c-.09-.016-.188-.019-.264-.076-.228-.157-.465-.309-.65-.519a2.1 2.1 0 0 1-.357-.542c-.064-.119-.12-.25-.225-.339-.134-.056-.282-.08-.405-.163-.124-.084-.282-.104-.395-.204a.8.8 0 0 0-.317-.217c-.091-.035-.22.053-.281-.055-.088-.088-.056-.215-.037-.323-.096-.034-.194-.067-.277-.127l.228-.008c-.041-.064-.075-.138-.144-.176-.077-.044-.161-.079-.216-.152.114-.079.295-.171.249-.339-.048-.187-.298.042-.36-.107.033-.053.078-.096.12-.143-.024-.096-.003-.225-.098-.285-.04-.027-.086-.045-.13-.066a.4.4 0 0 1 .122-.178c-.025-.141-.138-.228-.255-.294l.179-.239-.057-.195.11-.143c-.02-.074-.08-.153-.036-.23.045-.14.14-.252.228-.367.055-.162.082-.34.195-.476.103-.126.147-.29.264-.404a.48.48 0 0 0 .143-.337c-.021-.135-.08-.263-.071-.401-.127.022-.233.116-.366.109-.108-.006-.186.082-.274.129-.125.085-.275.119-.404.196-.055.064-.054.16-.103.228q-.051.017-.104.03.01-.1.026-.2-.19.099-.396.159c-.185.067-.282.247-.396.394q.008-.102.02-.204c-.168.126-.327.268-.521.353.083-.085.177-.159.25-.254-.255.082-.461.271-.637.467-.086.084-.222.051-.32.113-.074.069-.132.156-.213.219-.07.059-.16.083-.234.132-.073.066-.114.181-.21.214-.142-.054-.263.063-.371.139-.18.16-.4.262-.592.404-.151.026-.314.017-.46.081-.103.048-.213.078-.32.116-.317.194-.581.459-.872.688-.525.356-1.003.774-1.494 1.173-.12.104-.197.246-.321.345-.17.13-.293.31-.468.432-.158.107-.32.211-.466.335-.223.189-.385.436-.592.641-.11.109-.185.244-.272.37l-.106-.077-.167.081c-.067-.039-.136-.076-.192-.129.026-.104.034-.208-.022-.305-.022-.211.173-.366.174-.573.103-.168.096-.369.16-.551l-.117.03c.079-.1.165-.204.184-.335.044-.266.166-.51.28-.751.065-.127.012-.277.065-.407.058-.065.14-.109.169-.196.079-.197.265-.315.38-.487.076-.115.182-.209.23-.341.08-.136.222-.222.335-.33.139-.149.245-.33.4-.463.156-.135.267-.317.452-.416.149-.08.239-.228.362-.339.062-.054.058-.142.079-.215.082-.009.183.009.244-.062.08-.076.078-.193.115-.29.126-.201.337-.336.44-.554.085-.172.139-.36.246-.521.134-.236.339-.418.545-.59.089-.085.192-.163.247-.277.074-.157.184-.293.26-.448.107-.207.267-.376.42-.547.074-.071.172-.113.238-.193.043-.06.072-.128.11-.191l.063.125c.107-.144.225-.293.396-.365a.4.4 0 0 0 .129-.093L6.5 5.13a.36.36 0 0 0 .263-.054c-.007-.095-.005-.191.054-.271l.029.13c.145-.116.282-.243.44-.342.192-.117.383-.237.565-.37.09-.057.093-.195.2-.23.15-.063.277-.166.409-.259.162-.096.2-.299.336-.422l-.01.127c.05-.041.125-.068.14-.137.023-.086.037-.177.106-.24l.019.183q.06-.074.112-.153l.17.025a.84.84 0 0 1 .183-.367c-.13.059-.26.12-.404.123-.155.011-.243.156-.3.284l-.077-.143c-.13.068-.261.13-.38.213-.117.083-.266.086-.396.134-.083.061-.167.122-.272.134-.183.031-.3.185-.441.29-.137.107-.266.225-.397.339-.074.068-.176.086-.264.126.063-.145.115-.295.195-.433.148-.27.243-.585.498-.778l.078.095c.147-.082.08-.271.096-.408q.203-.026.405-.059c.028-.151.127-.267.214-.388l-.181.044c.03-.095.048-.201.125-.271.124-.119.218-.265.336-.388l.062.085c.11-.038.068-.184.165-.235.133-.099.252-.215.379-.321.089-.075.108-.198.184-.283.06-.034.13-.046.192-.078.047-.04.08-.092.129-.132.055-.001.103.037.156.05.084.031.168-.015.248-.04L9.862.6c.133-.026.265-.066.38-.138q-.07-.065-.138-.131c.136-.046.282-.059.416-.112.11-.052.237-.016.354-.045zm4.519 7.034c.225.069.44.173.677.202a2 2 0 0 1-.016-.339c-.222.029-.457.04-.661.137M13.104.614a.7.7 0 0 1 .3.319l.142-.123c-.136-.083-.281-.15-.411-.242zM8.947.992c-.041.007-.092.059-.067.102.048.027.126-.079.067-.102m-.301.29-.032.042c.03.117.157-.061.032-.042m-.27 2.242q-.027.082.055.052.028-.082-.054-.052M6.526 4.527c.093-.024.144-.101.15-.193a.27.27 0 0 0-.15.193m25.24 5.502c-.02.128-.005.307.133.365-.018-.128-.036-.268-.132-.365m-.107 1.234c-.053.061-.135.085-.202.127q.08.055.17.095c.09-.13.102-.291.102-.444-.025.073-.038.151-.07.221zm-.366.445q.05.099.11.193a.23.23 0 0 0 .105-.189 1 1 0 0 0-.215-.003zm-21.147 1.237c0 .081-.002.176.104.181-.002-.072-.008-.18-.104-.181m-.048.357.1.052.04-.086c-.051-.017-.098.003-.14.034m.75.283c-.04.048.044.105.077.054.039-.049-.045-.105-.077-.054m.375.094a.35.35 0 0 0 .255.173.9.9 0 0 0-.255-.173m14.448 4.159c-.091.011-.201-.002-.27.072-.052.041-.09.117-.164.115-.115.01-.235-.004-.342.048-.202.09-.378.23-.58.322a.8.8 0 0 0-.276.222c-.152.177-.39.232-.578.355-.131.087-.268.178-.348.317-.061.093-.104.204-.2.268a1.4 1.4 0 0 1-.39.174c.11-.16.308-.228.422-.385-.281.069-.522.252-.724.453-.18.174-.43.251-.61.425-.075.068-.14.152-.233.199-.167.083-.362.085-.526.177a2.7 2.7 0 0 0-.533.398.9.9 0 0 1-.297.203c-.251.096-.53.053-.781.149-.298.076-.566.258-.88.265q-.032-.083-.068-.163c-.05.059-.082.131-.135.188a1 1 0 0 1-.425.142l.077.105c-.22-.024-.443-.038-.658.02-.158.051-.324.014-.486.019q.093.061.184.126c-.217.025-.43-.048-.646-.048-.107.001-.228-.011-.313.069-.065.074-.13-.03-.187-.061a1 1 0 0 0 .1-.228 2 2 0 0 0-.168-.014q-.03.134-.053.269c-.136.001-.29.031-.401-.065-.136-.038-.287-.006-.42.041-.18.055-.367-.008-.525-.095-.077.01-.121.098-.198.108-.061-.03-.114-.072-.171-.108-.065.029-.125.078-.198.085-.11-.015-.192-.135-.31-.097-.196.041-.365-.088-.51-.202l.055.171a2 2 0 0 1-.218-.038c-.17-.035-.31-.149-.473-.202-.05.029-.091.075-.148.085-.064-.012-.124-.036-.184-.058l.054-.113c-.133.006-.265.031-.398.019-.163-.012-.316-.077-.476-.105-.197-.034-.381-.111-.57-.173l.14.168c-.11-.038-.198-.114-.297-.172a8.3 8.3 0 0 0-1.307-.528 7 7 0 0 1-.97-.463c-.197-.115-.298-.334-.481-.465.069.126.153.243.209.376l-.136-.048c.02.216.257.311.328.507-.223-.09-.388-.272-.523-.464l.009.149c-.084-.019-.184-.014-.248-.082-.108-.103-.211-.214-.34-.294-.103-.063-.186-.152-.275-.233l-.071.06q-.102-.105-.208-.207c-.101-.105-.253-.126-.366-.215q.042.085.082.172c-.056-.031-.117-.059-.16-.11a1.2 1.2 0 0 0-.397-.296l-.001.125c-.17-.163-.406-.228-.567-.4-.133-.115-.296-.188-.427-.306-.134-.085-.231-.221-.382-.277.006.13.06.247.133.353l-.135-.019c.148.225.362.399.49.638.075.116.1.254.155.379.117.169.335.259.405.462.049.136.124.261.2.384q.024-.102.052-.202c.109.1.102.248.078.381.203.152.398.317.572.502.057.053.064.134.09.203.129.135.317.193.449.324.085.082.162.171.25.25.228.208.518.324.767.502-.083-.021-.164-.046-.248-.063.17.172.393.278.579.43.163.116.28.279.399.436.086.118.248.025.367.027.077.239.242.479.505.528.117.009.206.09.264.187-.085-.03-.167-.069-.252-.1.05.073.1.147.16.214.069.055.157.08.236.119a.32.32 0 0 0 .07.277c.077.129.247.097.36.171.105.064.206.135.316.189-.056-.07-.114-.139-.164-.214.07.012.154.01.204.07.13.136.286.246.414.387.086.1.239.077.335.163.138.114.35.203.34.415a4 4 0 0 0-.186.099l.05.079c.094.015.197.007.283.056.096.08.157.203.276.254.114.047.232.09.354.111.089-.001.177-.021.265-.031l-.091-.168c.106-.016.215-.028.314-.073.07-.03.149-.073.228-.042.167.058.31.166.479.224l-.067-.178c.087.018.177.036.25.09.165.126.333.248.51.356.142.059.295.091.446.118.166-.006.332-.014.498-.005.128.012.24-.055.354-.101.067-.031.14-.004.21-.007.19-.011.379-.051.562-.104.043.023.083.075.138.061.196-.043.389-.095.585-.139l.039.112c.107-.041.162-.143.235-.222.119-.025.242.031.36-.001.075-.025.144-.064.215-.097l.145.113-.004.17c.128-.035.256-.088.392-.065.152.02.32.015.446-.084a2.3 2.3 0 0 1-.496-.039c.128-.1.294-.132.426-.226q.002.102-.004.205c.18-.019.393.097.544-.045.095-.091.23-.074.352-.074.1.007.177-.073.273-.086.114-.015.232-.008.34-.048.067-.03.122-.08.19-.108.123-.011.247-.009.369-.024.027-.079.044-.168.108-.227a.6.6 0 0 1 .24-.079q.044.053.084.113.25-.05.506-.077c.065-.064-.067-.092-.103-.131.08-.081.155-.182.276-.197-.008.114-.09.197-.133.297.11-.015.209-.064.309-.11.004-.077-.031-.174.042-.229.158-.156.403-.129.599-.202.139-.096.205-.278.367-.343.104-.009.218.067.309-.014.126-.114.308-.071.449-.144.032-.114.073-.228.185-.286l-.003.134c.273-.117.504-.312.778-.428l.019-.112c-.073.014-.146.03-.22.039.104-.139.286-.156.43-.229.117-.055.245-.07.366-.109.086-.027.11-.128.185-.173.145-.098.302-.182.422-.312.444-.433.944-.831 1.255-1.378.07-.107.17-.199.207-.326.047-.155.058-.321.133-.467.089-.167.059-.365.132-.537.072-.18.17-.365.132-.565-.041.067-.078.137-.124.202-.022-.154.05-.299.055-.451-.014-.119-.038-.238-.033-.359q-.087.095-.172.191c.012-.139.096-.26.104-.398-.041-.109-.158-.167-.208-.271-.044-.089-.055-.202-.145-.259-.053-.054-.123 0-.183.004-.065-.007-.127-.032-.19-.05q.065-.051.13-.099c-.077-.029-.157-.081-.243-.061-.117.023-.231.059-.35.075l-.006-.198c-.091.021-.181.045-.273.058a1 1 0 0 0-.078-.223c-.155.029-.313-.004-.47.011zM7.029 19.999c.077-.042.163-.072.227-.134.008-.081-.056-.189-.148-.162-.057.087-.058.196-.08.296m6.585-.153.002.106q.07-.051.136-.11a.6.6 0 0 0-.137.004zm7.24 6.002q.086.018.173.033l.002-.096c-.063.007-.15-.016-.174.063m-3.186.43c-.051.032-.063.095-.084.147.099-.005.217-.015.273-.11-.014-.092-.133-.085-.19-.037"/></svg>