<svg xmlns="http://www.w3.org/2000/svg" xml:space="preserve" width="31.927" height="27.6" viewBox="0 0 31.927 27.6"><path d="M9.514 4c.6 0 1.3.1 1.9.3 1 .3 2 .8 2.8 1.4.7.5 1.2 1.3 1.7 2 1-1.7 2.7-3.1 4.7-3.4 1-.2 2-.4 3-.1 1.3.4 2.3 1.5 2.8 2.7.6 1.5.7 3.1.2 4.6s-1.3 3-2.6 3.9c-.2.2-.1.1 0 0 .6-.1 1.3-.7 1.8-1 .6.9 1 2 .6 3.1-.5 2.1-2.2 3.6-3.9 4.9-.7.6-1.6 1-2.3 1.6 3.9-1.3 7.7-4.1 9.2-8 1.1.7 2 1.6 2.4 2.8.4 1.6-.3 3.3-1.5 4.3-.4-.8-1.3-1.6-2.3-1.4-1.1.3-1.9 1.2-2.8 1.9-2.6 2.2-5.8 3.7-9.2 4-3.5-.3-6.8-1.8-9.4-4.1-.9-.7-1.7-1.6-2.7-1.8s-1.8.5-2.3 1.3c-.1 0-.2 0-.2-.1-1-1-1.7-2.6-1.3-4 .3-1.3 1.3-2.3 2.4-3 1.4 3.6 4.7 6.2 8.2 7.7.3.1.7.3 1 .4-2.1-1.3-4.2-2.7-5.5-4.9-.7-1.2-1.1-2.8-.5-4.1.1-.2.2-.6.5-.6.5.4 1.1.8 1.7 1.1-1-1.1-2-2.3-2.4-3.7-.6-1.4-.6-3-.1-4.5.4-1.3 1.4-2.5 2.6-3 .3-.1.7-.2 1-.2.2-.1.4-.1.5-.1m6.5 13.8c-.8-.1-.9.8-1.3 1.2-.3.2-.6-.1-.9-.1.2 2 1 4 2.2 5.7 1.2-1.7 2-3.7 2.2-5.7-.3 0-.6.3-.9.1-.6-.4-.7-1.2-1.3-1.2m-6.2-8.3c-1 .1-.6 0-1.3.2.1.1.2.3.3.4 0 .6 0 1.2.3 1.7.4.8 1.3 1.3 2.2 1.2.6 0 1.3-.3 1.7.3.1-.9.3-1.8.1-2.7-.1-.5-.7-.7-1.1-.8-.5-.1-.7-.1-1.3-.2-.4-.1-.6-.1-.9-.1m12 0h-.9c-.7.1-1.7.1-2.2.8-.4.9-.1 2 0 3 .5-.6 1.3-.3 1.9-.3.9 0 1.8-.6 2.2-1.4.3-.6 0-1.4.5-1.9-.5-.2-1-.2-1.5-.2m-2.7-9.5c.7 0 1.5.1 2.2.3 2.9.8 5.3 3 6.5 5.7.8 1.8 1 3.8 1.1 5.8-.1 1.4-.1 2.8-.6 4.1a9.4 9.4 0 0 1-2 3.5c.5-.8 1-1.7 1.1-2.7.1-1.1-.3-2.3-.9-3.2.8-1.1 1.3-2.4 1.3-3.7.1-2.4-.8-5-2.9-6.2-1-.7-2.2-.8-3.4-.7-2.1.2-4.2 1.2-5.6 2.8-1.5-1.6-3.5-2.6-5.6-2.8-1.2-.1-2.4.1-3.4.7-2.2 1.3-3.1 4.1-2.8 6.6.1 1.2.6 2.4 1.3 3.4-.7.9-1.1 2-.9 3.2.1 1 .6 1.9 1.1 2.7-1.4-1.7-2.3-3.6-2.5-5.7-.3-2.4-.1-5 .7-7.3 1-2.9 3.5-5.2 6.4-6.1 1.7-.5 3.6-.6 5.3.1.1 0 .3.1.4.1.1-.1.3-.1.4-.1.7-.3 1.4-.5 2.2-.5z" style="fill:#444"/></svg>