<svg xmlns="http://www.w3.org/2000/svg" width="605.494" height="325.754" viewBox="0 0 605.494 325.754"><path d="M406.232 172.357c7.183 9.353 170.58 0 170.58 0C414.398-170.888-186.346 61.147 57.474 325.754-35.816 100.2 297.128 30.292 406.232 172.357"/><path d="M605.491 166.386c0-5.531-3.977-7.881-6.369-9.294-4.75-2.76-12.713-4.204-18.123-4.204-6.72 0-12.843 1.4-17.836 4.066-1.879-1.803-4.497-2.805-7.46-2.805h-30.19c-2.818 0-5.25.87-7.078 2.495-1.799-1.536-4.136-2.403-6.637-2.403H489.36c-5.43 0-9.268 3.145-10.247 8.332v.01a21 21 0 0 0-3.142-3.08c-5.503-4.366-11.92-5.262-19.862-5.262h-12.89c-2.664 0-4.998.785-6.796 2.253-1.824-1.512-4.24-2.345-6.942-2.345h-30.19c-1.81 0-3.44.348-4.854 1.013q.025-.39.025-.811c0-3.408-1.275-5.57-3.125-7.25 5.7-1.502 10.707-4.676 14.96-9.503a9.85 9.85 0 0 0 2.897 2.966c.773 3.48 3.941 6.018 7.85 6.018h8.51c4.207 0 7.084-2.246 8.105-6.323l.03-.125.026-.125.608-2.906c.884 2.41 2.284 4.086 3.872 5.17 1.697 5.503 6.057 5.938 7.36 5.938 1.005 0 1.548-.12 2.534-.34l.142-.03.14-.038 8.744-2.344c3.634-.94 6.067-3.928 6.067-7.453 0-1.197-.195-2.014-.482-2.82a9.6 9.6 0 0 0 .732-3.68c0-2.067-.509-3.34-.93-4.395l-4.499-12.458a23 23 0 0 0 2.047-1.712c5.314-4.854 8.745-13.055 8.745-20.917 0-.673-.046-1.331-.098-1.984.224-1.503.346-3.015.346-4.515 0-7.317-2.897-13.65-8.16-17.832-5.52-4.381-11.959-5.28-19.93-5.28H428.01c-5.252 0-8.994 2.92-10.26 7.989l-.688 3.208c-4.145-8.104-12.055-12.736-22.338-12.736-8.984 0-16.416 2.906-22.568 8.848-1.13-4.255-5.008-7.308-9.742-7.308h-22.538c-2.788 0-5.188.837-6.99 2.402-1.785-1.535-4.1-2.402-6.579-2.402h-7.965c-5.376 0-9.316 3.252-10.27 8.428l-1.124 5.289-2.034-6.354-.035-.105c-1.586-4.747-5.07-7.257-10.073-7.257h-6.517c-3.564 0-6.498 1.43-8.349 3.903a10 10 0 0 0-7.943-3.903h-8.779c-5.37 0-9.31 3.247-10.268 8.412l-1.404 6.535a8 8 0 0 0-.2-.83l.215-1.012.026-.133c.13-.661.348-1.94.348-3.077 0-5.55-4.427-9.896-10.079-9.896h-8.96c-1.964 0-3.716.409-5.209 1.187 0-.017-.01-.034-.01-.052.483-1.694.555-3.043.555-4.248 0-5.104-3.894-10.527-11.116-10.527h-37.828c-5.952 0-9.857 3.049-11.294 8.806l-1.897 8.994c-.337 1.854-.439 2.413-.439 3.66 0 3.595 1.721 6.65 4.46 8.53.92 3.686 4.321 6.272 8.633 6.272h6.943l-9.132 42.806c-.89-3.951-4.188-7.55-10.279-7.55h-13.595c-4.077 0-9.003 2.505-10.6 9.536-.562 2.477-.814 5.699-.814 10.448 0 8.615 2.758 15.756 7.656 20.85 4.502 8.094 13.158 12.865 24.5 12.865 11.407 0 21.153-3.99 28.19-11.537 6.518-6.743 9.325-15.227 11.74-26.72l1.36-6.374a20.2 20.2 0 0 0 4.57 6.919c3.538 7.374 11.548 11.572 22.911 11.572 8.567 0 15.421-2.288 20.952-6.996 1.341-1.116 2.464-2.232 3.43-3.402a10 10 0 0 0 2.991 3.146c.78 3.42 3.873 5.986 7.567 5.986h7.964c4.203 0 7.083-2.243 8.104-6.317l.03-.12.026-.121 2.256-10.637 1.68 5.303c.726 2.629 2.158 4.644 4.133 5.94.656 2.348 2.556 5.952 8.028 5.952h5.793c3.137 0 5.535-1.248 6.974-3.572 1.325 2.082 3.675 3.433 6.483 3.549a38 38 0 0 0-2.672 2.063c-8.68 7.398-13.27 17.994-13.27 30.638 0 9.304 2.717 16.95 8.063 22.752a26.6 26.6 0 0 0 4.742 6.148l.026.026.026.026c3.086 2.913 5.273 4.582 13.823 10.023 2.762 1.78 4.782 3.158 6.28 4.289v.137c0 1.66 0 5.115-7.654 5.115-3.61 0-8.395-1.135-11.869-2.808-6.65-3.326-7.504-3.753-10.354-3.753-5.976 0-8.449 4.464-9.38 6.147l1.903 1.158-1.976-1.027-6.48 12.356-.383.827c-.439 1.096-.937 2.339-.937 4.354 0 4.122 2.208 6.718 4.41 8.326.954 4.067 4.964 5.813 6.64 6.532 10.061 4.448 19.155 6.52 28.615 6.52 22.7 0 39.591-12.257 44.197-30.863 1.447 1.556 3.568 2.504 6.01 2.504h29.65c2.035 0 5.342-.574 7.176-3.948 1.334 2.422 3.982 4.039 7.102 4.039h8.473c4.2 0 7.074-2.241 8.098-6.312l.033-.128.025-.128.58-2.773c.89 2.334 2.267 3.96 3.822 5.024 1.702 5.505 6.057 5.938 7.356 5.938 1.002 0 1.543-.12 2.525-.337l.144-.031.143-.04 8.704-2.333a9 9 0 0 0 1.337-.457c1.352.995 3.072 1.576 4.991 1.576h22.26c1.972 0 5.126-.538 6.993-3.627 1.393 2.157 3.871 3.536 6.813 3.536h29.65c1.776 0 4.514-.437 6.402-2.782 6.318 2.758 12.074 4.044 18.086 4.044 8.48 0 15.87-2.607 21.375-7.54 5.631-5.047 8.731-12.196 8.731-20.134q0-1.023-.076-1.983.321-2.212.323-4.516c0-7.784-3.074-13.052-7.15-16.983a8.3 8.3 0 0 0 1.58.148c2.83 0 5.502-1.661 6.83-4.237l3.64-6.927c.621-1.121 1.251-2.295 1.251-4.255 0-1.062-.182-1.967-.49-2.747.413-.97.745-2.176.745-3.753zm-254.016 12.313-.122-.104c-.01-.006-.01-.01-.015-.015 1.41-1.794 3.984-2.7 7.707-2.7 4.125 0 8.722 1.33 12.946 3.743l.158.092.167.084c2.832 1.415 4.393 2.196 6.863 2.196 2.396 0 4.682-1.122 6.264-2.957l-5.094 24.01c-3.852-7.372-10.377-12.26-17.077-16.426-9.802-6.163-9.802-6.163-11.797-7.923m204.007 19.632.01-.026a18.7 18.7 0 0 0 3.742 5.067l.025.025.03.026a31 31 0 0 0 2.92 2.464c-4.11-2.054-5.235-2.615-7.757-2.62z" style="fill:#fff"/><path d="M181.26 60.834c-3.418 0-5.072 1.289-5.898 4.6l-1.818 8.632c-.317 1.74-.35 1.92-.35 2.666 0 2.466 1.91 4.963 5.555 4.963h16.707l-11.846 55.52c-2.143 10.112-4.92 10.95-7.816 10.95-2.177 0-3.606-.304-3.606-4.347 0-.77.344-3.517.748-5.37.194-.552.287-1.168.287-1.87 0-.992-.357-4.224-4.962-4.224h-13.596c-5.85 0-5.85 8.333-5.85 14.42 0 14.727 9.431 23.876 24.615 23.876 10.481 0 19.4-3.638 25.743-10.468 5.248-5.407 8.206-12.22 10.918-25.125l14.148-66.33c.404-1.3.404-2.236.404-2.928 0-2.391-1.738-4.965-5.552-4.965zm215.436 12.102c-9.048 0-16.215 3.56-21.896 10.867-6.87 8.709-11.67 24.745-11.67 38.996 0 13.97 7.352 21.984 20.174 21.984 8.847 0 15.95-3.555 21.726-10.88 6.865-8.795 11.66-24.862 11.66-39.073 0-13.708-7.474-21.894-19.994-21.894m-161.824 1.539c-2.678 0-4.224 1.207-4.87 3.798l-8.43 39.873a37.6 37.6 0 0 0-.99 8.545c0 11.325 7.88 17.82 21.62 17.82 7.758 0 13.914-2.038 18.787-6.2 5.14-4.267 6.595-8.015 8.92-18.711l8.227-38.786c.13-.55.263-1.411.263-2.005 0-2.39-1.986-4.334-4.424-4.334h-8.78c-2.729 0-4.345 1.335-4.817 3.968l-8.598 40.004c-.808 4.133-1.614 5.77-2.562 6.94-1.462 1.783-3.505 2.763-5.748 2.763-4.018 0-4.356-1.782-4.356-3.45 0-1.272.122-1.996.742-5.098l8.248-38.791c.04-.205.242-1.266.242-2.002 0-2.43-1.98-4.334-4.513-4.334zm55.392 0c-2.728 0-4.349 1.336-4.818 3.972l-12.498 58.602c-.197 1.093-.23 1.29-.23 1.86 0 2.39 1.983 4.335 4.423 4.335h7.965c2.671 0 4.218-1.205 4.867-3.793l5.811-27.392 8.742 27.593c.843 3.18 3.024 3.592 4.838 3.592h5.791c2.674 0 4.222-1.207 4.87-3.795l12.397-58.55c.283-.978.283-2.076.283-2.09 0-2.471-1.906-4.334-4.428-4.334h-7.96c-2.729 0-4.35 1.336-4.82 3.972l-5.484 25.834-8.435-26.35c-.81-2.422-2.246-3.456-4.799-3.456zm51.586.002c-2.755 0-4.33 1.29-4.812 3.945l-1.188 5.223c-.198 1.09-.23 1.483-.23 1.863 0 2.43 2.022 4.334 4.603 4.334h1.127l-8.086 38.037h-2.728c-2.672 0-4.22 1.206-4.867 3.795l-1.12 5.312c-.194.97-.247 1.23-.247 1.924 0 2.153 1.614 4.334 4.697 4.334h22.357c3.563 0 4.493-2.254 4.9-4.027l.981-4.817c.284-1.14.354-1.428.354-2.187 0-2.511-1.94-4.334-4.608-4.334h-1.125l8.084-38.037h2.73c2.673 0 4.22-1.207 4.866-3.797l1.113-5.281.074-.416c.096-.554.178-1.032.178-1.54 0-2.47-1.94-4.331-4.514-4.331zm88.135 0c-2.676 0-4.22 1.205-4.867 3.795L412.702 136.8c-.289 1.152-.36 1.438-.36 2.11 0 2.47 2.02 4.333 4.698 4.333h8.51c2.673 0 4.218-1.207 4.865-3.795l4.3-20.496 6.645 22.272c.95 3.174 3.034 3.648 4.192 3.648.638 0 .91-.06 1.812-.26l8.863-2.375c2.67-.667 3.614-2.696 3.614-4.232 0-.988-.18-1.46-.58-2.455l-7.567-20.953c2.83-1.476 4.56-2.66 6.057-4.08 4.607-4.18 7.705-11.61 7.705-18.495 0-5.585-2.154-10.37-6.06-13.474-3.694-2.93-8.31-4.072-16.47-4.072zm-34.824 14.548c1.31 0 2.547 0 2.547 6.256 0 8.61-2.413 19.87-5.62 26.205-3.235 6.46-5.839 7.207-7.519 7.207-1.208 0-2.455 0-2.455-6.166 0-8.687 2.33-19.716 5.533-26.205 3.65-7.297 6.558-7.297 7.514-7.297m45.67 1.36h.92c2.277 0 3.672.14 4.361.445.313.27.72 1.11.72 2.28 0 2.61-1.233 5.46-2.374 6.603-1.1 1.1-2.426 1.73-6.002 1.816zm-79.1 59.523c-25.609 0-41.517 13.74-41.517 35.854 0 8.413 2.55 15.14 7.61 20.023 2.907 2.744 5.008 4.342 13.306 9.625 11.496 7.412 12.045 9.205 12.045 13.752 0 9.292-8.282 10.68-13.217 10.68-4.46 0-10.094-1.332-14.317-3.375-6.372-3.187-6.373-3.188-7.906-3.188-2.7 0-3.706 1.818-4.514 3.278l-6.574 12.533-.062.156c-.35.866-.54 1.343-.54 2.285 0 3.224 3.157 4.578 4.82 5.29 9.637 4.265 18.314 6.25 27.304 6.25 24.796 0 42.114-15.661 42.115-38.09 0-11.634-4.876-18.99-17.969-27.133-10.213-6.418-10.213-6.42-12.59-8.518-2.158-1.836-2.998-3.673-2.998-6.555 0-6.504 4.49-10.234 12.32-10.234 4.763 0 9.811 1.447 14.6 4.184l.164.088c2.681 1.343 3.685 1.843 5.37 1.843 1.844 0 3.604-1.134 4.447-2.828l6.078-11.562c.85-1.528 1.166-2.101 1.166-3.414 0-2.65-1.34-3.44-4.943-5.57-5.19-3.014-15.818-5.374-24.198-5.374m221.246 15.04c-9.452 0-16.824 2.967-21.35 8.224.49-.99.83-1.798.83-2.9 0-1.955-1.493-4.06-4.777-4.06h-30.193c-2.668 0-4.21 1.206-4.857 3.792l-12.364 58.273c-.299 1.204-.353 1.434-.353 2.016 0 2.56 1.97 4.42 4.69 4.42h29.65c3.556 0 4.482-2.25 4.894-4.045l.031-.158c.838.852 1.924 1.316 2.528 1.574 5.995 2.655 11.406 3.89 17.033 3.89 15.76 0 26.771-10.008 26.771-24.337 0-7.567-3.114-12.317-11.476-17.516-6.078-3.82-6.08-3.821-7.455-5.035-1.008-.856-1.348-1.6-1.348-2.953 0-4.02 3.332-4.863 6.127-4.863 2.646 0 5.47.813 8.166 2.353l.16.088c1.67.836 2.506 1.254 3.838 1.254 1.608 0 3.135-.971 3.856-2.416l3.66-6.963c.54-.976.867-1.566.867-2.701 0-2.355-1.366-3.16-3.645-4.506-3.306-1.922-10.022-3.43-15.283-3.43m-181.713 1.264c-2.67 0-4.216 1.205-4.86 3.79l-12.364 58.274c-.3 1.204-.354 1.434-.354 2.016 0 2.56 1.97 4.42 4.69 4.42h29.648c3.555 0 4.486-2.25 4.897-4.045l1.13-5.734.12-.358c.257-.78.256-1.468.256-1.762 0-2.47-1.979-4.33-4.602-4.33h-15.148l2.431-11.257h12.81c2.784 0 4.432-1.336 4.9-3.973l1.21-5.793.121-.365c.26-.78.26-1.474.26-1.77 0-2.51-1.936-4.33-4.6-4.33H410.52l1.823-8.553h15.054c2.233 0 3.844-.956 4.787-2.838l3.153-6.306c.525-1.046.894-1.877.894-3.027 0-1.955-1.494-4.06-4.777-4.06zm43.926.092c-2.673 0-4.215 1.205-4.86 3.793l-12.362 58.273c-.285 1.147-.356 1.434-.356 2.104 0 2.468 2.017 4.328 4.69 4.328h8.472c2.667 0 4.21-1.202 4.86-3.785l4.271-20.354 6.598 22.12c.953 3.168 3.032 3.64 4.187 3.64.637 0 .91-.06 1.803-.254l.072-.018 8.76-2.35c1.478-.37 2.327-1.156 2.797-1.8.582 1.547 2.074 2.803 4.412 2.803h22.26c3.556 0 4.484-2.247 4.892-4.022l.98-4.797c.277-1.11.35-1.425.35-2.18 0-2.507-1.933-4.33-4.597-4.33h-1.108l8.045-37.843h2.703c2.67 0 4.215-1.204 4.862-3.79l1.107-5.26.078-.44c.094-.54.174-1.007.174-1.508 0-2.467-1.939-4.328-4.51-4.328h-22.437c-2.754 0-4.328 1.288-4.807 3.94l-1.183 5.2c-.195 1.087-.233 1.479-.233 1.856 0 2.429 2.022 4.33 4.6 4.33h1.103l-8.045 37.844h-2.703c-2.668 0-4.21 1.203-4.857 3.787l-.828 3.92-7.555-20.912c2.812-1.468 4.532-2.645 6.021-4.057 4.59-4.164 7.674-11.57 7.674-18.424 0-5.57-2.142-10.337-6.037-13.43-3.678-2.92-8.276-4.056-16.404-4.056zm112.307 14.627c-.614 2.154-.93 4.495-.93 7.004 0 5.456 1.68 9.84 5.012 13.06 1.827 1.725 3.131 2.72 8.232 5.967 6.671 4.3 6.672 5.09 6.672 7.197 0 3.407-2.242 5.135-6.664 5.135-2.508 0-5.687-.753-8.06-1.9-3.974-1.986-4.13-2.065-5.368-2.065-2.406 0-3.367 1.728-3.882 2.656l-1.98 3.778c-.476-1.927-2.242-3.28-4.475-3.28h-15.15l2.433-11.257h12.804c2.787 0 4.435-1.338 4.905-3.975l1.21-5.793.116-.353c.264-.786.264-1.482.264-1.78 0-2.51-1.933-4.33-4.6-4.33h-11.29l1.825-8.555h15.05c1.63 0 2.927-.506 3.876-1.51m-101.494 1.24h.904c2.263 0 3.652.14 4.336.443.307.265.705 1.098.705 2.256 0 2.597-1.22 5.43-2.353 6.563-1.092 1.092-2.409 1.718-5.952 1.804zm-190.04 22.764c-.62-.071-1.423.16-2.468.88a5.7 5.7 0 0 1-.87.495 7.35 7.35 0 0 1-3.54.64c-1.662-.093-2.614-.402-3.663-.665-1.332-.332-2.827-.65-5.36-.658-7.623 0-14.817 5.863-15.07 14.953-.25 8.86 5.501 18.64 15.88 19.103 5.47.245 15.89-2.62 20.62-4.652.131-.06 1.067-.88 1.143-.998l2.073-3.44c1.487-2.458.872-4.541-1.838-3.73-4.475 1.332-6.936 1.827-13.409 2.312-10.296.785-9.486-4.363-9.273-7.853.235-3.85 2.861-6.658 4.15-6.572 2.953.196 3.778.477 4.315 4.285.09.674 1.164 1.902 1.81 2.074l1.655.436c1.347.359 2.744-.521 3.033-1.912.445-2.141 2.281-5.64 2.865-6.153.09-.086 1.095-1.35.621-3.185-.098-.401-.239-.92-.385-1.44-.21-.757-.428-3.706-2.289-3.92m-32.338.514c-.143.002-.286.02-.42.053-4.465 1.1-12.334 1.246-14.537.818-.806-.152-2.26.563-2.636 1.305l-.776 1.502c-.743 1.443-.128 3.024 1.391 3.552 2.108.725 2.962 2.236 3.336 4.147.203 1.065.23 2.15.213 3.115-.017 1.137-.092 2.135-.092 2.826 0 3.132-1.087 6.213-1.56 8.774-.488 2.592-1.205 3.94-1.829 4.445-.708.58-1.085 2.185-.709 3.02l.778 1.718c.993 2.227 3.044 2.363 4.32.29 1.256-2.024 8.157-4.055 11.512-2.374.776.393 2.364.07 2.935-.605l.987-1.145c.917-1.066.771-2.73-.313-3.617-3.14-2.57-3.805-4.567-3.935-6.02-.246-2.79.19-4.47.19-5.708 0-3.192.11-5.565.587-7.247.435-1.5 1.033-2.09 1.96-2.355 1.386-.401 2.13-1.902 1.641-3.275l-.562-1.58c-.336-.933-1.474-1.652-2.48-1.64m-23.02.19c-.6-.053-1.35.226-2.296 1.038a6 6 0 0 1-.853.479c-.774.359-1.94.718-3.45.633-1.719-.112-3.414-.488-5.222-.846-2.05-.4-4.208-.786-6.614-.812-6.802-.086-14.339 3.866-14.648 15.064-.245 8.986 7.18 17.59 14.955 18.197.93.076 1.78 0 2.588-.136.715-.121 1.448-.316 2.246-.522 1.327-.357 2.88-.777 5.025-.94.93-.067 2.33.915 2.516 1.385.146.36 1.283 1.373 1.648 1.475l2.106.574c1.784.493 3.15-.605 3.1-2.5a30 30 0 0 0-.266-3.125c-.14-1.058.034-2.561.24-3.45.29-1.287 1.067-1.996 2.727-2.423 3.127-.793 3.828-1.961 2.761-3.771l-1.267-2.14c-.093-.164-1.12-1.02-1.3-1.08-2.483-.878-12.739-.247-15.142.718-.974.392-1.587 1.803-1.767 2.826l-.338 1.682c.212 1.007 1.642 1.894 3.648 1.955l-1.44.008c-6.683 1.153-7.614-4.276-7.349-8.586.213-3.414 3-6.343 5.961-5.907 3.644.545 4.907 1.015 5.364 4.243.093.682 1.16 1.91 1.81 2.082l1.617.427c1.354.367 2.75-.52 3.034-1.904.437-2.107 2.235-5.513 2.798-6.016.087-.08 1.096-1.34.631-3.175-.102-.385-.246-.897-.383-1.41-.21-.735-.643-3.886-2.44-4.043m-94.597.605c-.865.02-1.854.46-2.26 1.1l-1.587 2.433c-.85 1.322-.39 2.944 1.021 3.627.263.128 4.194 2.066 4.768 2.594.096.094.193.105.265.129-.912 1.714-1.674 2.849-2.254 3.609-.572.743-.98 1.154-1.263 1.426-.998.888-1.4 1.97-1.373 2.996-1.063-.128-2.2.195-3.213 1.078-.283.22-.614.477-1.018.844-.57-.82-1.144-1.758-1.75-2.8-1.218-2.081-2.437-4.345-3.865-6.493-1.27-1.938-2.337-3.415-3.096-4.653-.752-1.212-.886-1.722-.896-1.953-.056-1.212-1.237-2.383-2.445-2.408l-15.622-.426c-.752-.044-1.415.205-2.054.955 0 0-1.66 2.238-1.84 2.51-1.57 2.364-1.024 3.757 1.916 4.344.33.062 2.728.69 3.043.793-.035.214-1.827 5.916-2.229 6.957-.828 1.562-.802 2.8-.263 3.773-.862.272-1.649.93-2.11 2.159-.29.7-.766 1.903-1.9 4.632-.644 1.528-1.754 5.08-3.125 8.776-1.382 3.703-2.875 7.143-4.277 8.91-1.567 1.997-4.368 3.798-4.385 3.807-1.017.649-1.434 2.25-.867 3.31l1.076 2.006c.868 1.62 2.6 1.904 3.933.65 1.56-1.46 7.616-3.987 14.457-2.937 1.608.248 2.9-.853 2.9-2.483 0 0 .604-2.662-1.878-4.113a6.3 6.3 0 0 1-1.04-.77c-.553-.494-.884-1.57-.23-4.09.65-2.508 1.91-5.136 2.604-7.1.912-2.568 2.024-4.975 2.463-5.94.548-1.417.49-2.56.062-3.438 1.032-.308 1.868-1.118 2.385-2.38.132-.32.315-.77.541-1.223l.094-.178c1.723 1.636 6.37 7.142 9.918 18.988 1.873 6.23 2.424 9.92 2.535 11.96.052 1.023.064 1.534.025 1.8 0 0-.487 2.466 1.006 3.277l1.418.81.994.554c2.121 1.178 3.91-.82 3.94-.887.674-1.426 5.284-6.51 8.07-7.014 1.343-.25 2.28-1.63 2.018-2.963-.452-2.313-1.297-4.858-2.116-7.103-.765-2.073-1.5-3.873-1.82-4.914-1.378-4.446.54-7.255.918-7.76.623-.724 1.16-1.75 1.17-2.867.825.095 1.625-.153 2.377-.58.86 1.785 2.585 5.232 4.258 8.808 1.717 3.67 3.242 7.223 3.785 9.245.235.878.185 1.245-.256 1.92-.652.988-2.036 2.34-4.887 4.753-1.087.913-1.187 2.586-.21 3.635l1.927 2.074c.817.88 2.475 1 3.41.258 3.494-2.774 13.012-3.44 21.887-.582 1.123.358 2.63-.323 3.09-1.416l.787-1.861c.222-.52-.005-2.123-.36-2.56-.573-.708-1.265-1.29-1.912-1.774a46 46 0 0 0-2.01-1.356c-.619-.402-1.24-.796-1.81-1.213-.545-.394-.975-.77-1.258-1.084-.529-.563-.764-.964-.927-1.4-.265-.718-.413-1.553-.704-2.723-.289-1.21-.906-2.971-1.69-4.968.388.086.83.129 1.327.119.611-.016 1.422-.103 2.348-.188 1.728-.16 3.615-.29 5.371.01.965.163 2.41-.648 2.768-1.562.36-.913.674-1.732.974-2.457.263-.642.517-1.205.785-1.684.47-.852.815-1.014.973-1.064 1.538-.646 2.735-2.177 2.38-4.143.412 1.545.723 2.95.796 3.89.03.4.014.675-.01.854-.03.17-1.21 1.73-.489 3.123l1.946 2.264c.974 1.143 2.652 1.212 3.71.145.79-.803 3.964-1.741 8.897-.137.537.17 2.62 1.11 2.903.726 1.22-1.657 2.705-3.177 2.056-4.115-5.324-7.62-7.86-16.754-9.254-23.95-.15-.783-1.046-1.311-1.209-1.448l-2.36-2.057c-.447-.36-2.01-.597-2.538-.36-3.926 1.726-15.714-.135-17.715-.775-.674-.223-2.247.24-2.7.785l-1.796 2.147c-1.278 1.538-.81 3.288 1.07 3.97.195.074 3.741 1.39 7.211 2.749-.174-.064-.35-.132-.523-.166-2.114-.42-3.882 1.1-4.44 2.713-.506 1.484-1.642 4.395-3.4 6.615-1.34 1.689-2.323 3.593-2.647 5.668-1.63-3.56-3.216-6.752-4.107-8.297-2.556-4.404-3.318-9.092-2.494-11.772.82-2.67-.27-2.74-2.182-3.763l-1.082-.563c-.317-.164-1.844-.207-2.17-.062-2.892 1.28-10.318.46-11.863-.178a2 2 0 0 0-.797-.127m36.25 10.148c2.391.942 4.69 1.877 5.617 2.385.653 1.316 1.776 4.39 2.69 7.395-.13-.371-.253-.724-.42-1.194-.638-1.212-1.714-1.714-2.49-1.894-.59-.13-1.182-.095-1.367-.086l-.39.033c.083-.256.152-.528.206-.793.565-1.887.108-3.866-1.168-4.744 0 0-.788-.335-1.45-.606-.33-.138-.697-.256-.999-.394-.05-.024-.155-.068-.229-.102"/><path d="M265.745 204.449c-.74 0-1.563.32-2.522.98-.156.11-.422.277-.793.45-1.024.466-2.09.675-3.32.6-1.362-.078-2.243-.307-3.096-.53l-.478-.121c-1.344-.335-2.873-.665-5.475-.674-7.428 0-15.273 5.766-15.543 15.414-.262 9.26 5.777 19.117 16.334 19.588q.342.016.71.016c5.678 0 15.543-2.74 20.128-4.711.213-.098 1.22-.977 1.352-1.186l2.072-3.437c.87-1.438 1.09-2.826.592-3.711-.486-.862-1.575-1.135-2.97-.72-4.436 1.322-6.85 1.81-13.31 2.296-.686.054-1.34.08-1.945.08-2.804 0-4.762-.573-5.818-1.701-1.292-1.382-1.154-3.444-1.032-5.262l.03-.467c.225-3.687 2.681-6.13 3.644-6.13 2.776.186 3.382.347 3.88 3.874.113.864 1.322 2.25 2.157 2.47l1.653.437c1.583.423 3.283-.657 3.62-2.274.438-2.114 2.245-5.483 2.73-5.908.285-.276 1.251-1.702.751-3.637-.098-.405-.24-.93-.387-1.457a6 6 0 0 1-.1-.472c-.237-1.236-.728-3.807-2.864-3.807m-32.145.527a2.3 2.3 0 0 0-.508.065c-3.074.758-7.65 1.027-10.633 1.027-1.652 0-3-.08-3.703-.215-.926-.18-2.638.555-3.144 1.553l-.776 1.502c-.427.829-.486 1.727-.166 2.53.315.79.963 1.388 1.823 1.687 1.693.584 2.627 1.753 3.025 3.79.215 1.085.22 2.182.205 3.018-.009.575-.034 1.112-.055 1.592-.02.476-.039.897-.039 1.242 0 2.115-.525 4.272-.988 6.174-.213.878-.418 1.72-.564 2.514-.58 3.09-1.417 3.968-1.662 4.166-.87.712-1.303 2.553-.84 3.582l.777 1.715c.58 1.298 1.527 2.04 2.604 2.04.972 0 1.88-.6 2.55-1.697.78-1.256 4.49-2.773 7.928-2.773 1.193 0 2.22.2 2.967.572.286.145.655.22 1.07.22.791 0 1.893-.294 2.438-.94l.988-1.143a3.02 3.02 0 0 0 .707-2.23 2.98 2.98 0 0 0-1.08-2.063c-3.147-2.574-3.656-4.481-3.764-5.691-.162-1.83-.023-3.162.088-4.233.056-.544.104-1.014.104-1.435 0-3.067.097-5.452.57-7.116.41-1.42.93-1.83 1.635-2.03a2.92 2.92 0 0 0 1.8-1.49c.38-.737.437-1.612.157-2.4l-.563-1.582c-.4-1.108-1.74-1.97-2.95-1.95m-23.137.182c-.748 0-1.552.38-2.42 1.13a5.4 5.4 0 0 1-.787.44c-.978.453-2.06.65-3.218.588-1.465-.094-2.92-.386-4.463-.697l-.7-.14c-2.044-.4-4.245-.792-6.699-.82l-.222-.001c-6.998 0-14.59 4.08-14.905 15.527-.245 8.966 7.235 18.045 15.39 18.68.897.073 1.721.024 2.704-.14.674-.116 1.36-.291 2.084-.48l.223-.058c1.326-.358 2.83-.76 4.98-.92.733 0 1.857.808 1.983 1.09.2.495 1.447 1.609 1.964 1.754l2.104.574c.323.09.644.135.953.135.755 0 1.44-.278 1.934-.783.55-.563.837-1.39.812-2.323-.019-.742-.1-1.966-.27-3.175-.126-.953.021-2.37.233-3.282.208-.926.693-1.633 2.38-2.068 1.963-.496 3.056-1.155 3.438-2.074.287-.687.16-1.47-.384-2.397l-1.264-2.136c-.154-.266-1.279-1.196-1.555-1.287-1.04-.368-3.117-.446-4.675-.446l-.4.002a3 3 0 0 0 .78-1.472c.424-2.045 2.19-5.347 2.65-5.76.228-.204 1.276-1.66.772-3.65l-.384-1.415a7 7 0 0 1-.096-.396c-.27-1.196-.9-4-2.942-4m55.284.236c1.19 0 1.634 1.46 1.935 3.04a8 8 0 0 0 .117.546c.144.515.284 1.03.383 1.434.415 1.609-.476 2.709-.476 2.709-.715.626-2.565 4.243-3.016 6.412-.229 1.1-1.367 1.837-2.45 1.553l-1.654-.436c-.456-.122-1.4-1.205-1.462-1.684-.574-4.072-1.632-4.48-4.844-4.693-1.626 0-4.319 3.013-4.563 7.018l-.029.46c-.128 1.913-.288 4.293 1.285 5.975 1.258 1.347 3.387 2.002 6.508 2.002.63 0 1.306-.028 2.016-.082 6.547-.492 9-.99 13.51-2.332.35-.104.667-.158.94-.158q.688 0 .934.435c.32.567.092 1.647-.578 2.754l-2.047 3.4c-.113.136-.847.777-.95.848-4.686 2.012-15.004 4.87-20.41 4.616-9.975-.445-15.679-9.815-15.43-18.616.253-9.072 7.62-14.494 14.593-14.494 2.494.01 3.96.323 5.25.643l.467.119c.898.236 1.826.478 3.281.559a7.7 7.7 0 0 0 3.772-.684c.44-.204.754-.404.937-.533.78-.538 1.447-.81 1.98-.81m-149.67.38c-.936 0-2.172.454-2.72 1.316l-1.589 2.433c-.486.755-.626 1.622-.396 2.438s.8 1.48 1.605 1.87c1.384.676 4.095 2.067 4.606 2.477-.682 1.246-1.352 2.3-1.995 3.143a12 12 0 0 1-1.203 1.36c-.88.786-1.406 1.78-1.513 2.85-1.09.003-2.152.425-3.106 1.25-.173.136-.365.284-.578.464a47 47 0 0 1-1.432-2.332q-.489-.842-.986-1.715c-.905-1.582-1.842-3.218-2.89-4.8-.549-.834-1.06-1.583-1.522-2.265-.61-.897-1.137-1.674-1.568-2.377-.75-1.21-.825-1.625-.825-1.728-.068-1.465-1.456-2.828-2.908-2.858l-15.795-.431c-.87 0-1.606.37-2.27 1.15-.172.23-1.675 2.257-1.857 2.53-.885 1.334-1.14 2.403-.78 3.265.366.885 1.347 1.476 3.005 1.809.246.044 1.76.438 2.543.652-.412 1.362-1.724 5.527-2.06 6.408-.734 1.384-.894 2.64-.48 3.742-.683.334-1.446.984-1.913 2.23l-.383.942c-.31.764-.77 1.898-1.516 3.688-.34.808-.792 2.123-1.363 3.787-.515 1.497-1.113 3.236-1.77 5.008-1.652 4.425-3.026 7.297-4.205 8.783-1.497 1.908-4.235 3.678-4.27 3.7-1.223.78-1.713 2.656-1.028 3.933l1.074 2.006c.572 1.069 1.504 1.68 2.556 1.68.754 0 1.49-.314 2.122-.91 1.315-1.232 5.668-3.056 10.837-3.056 1.087 0 2.171.082 3.221.243 1.921.298 3.45-1.084 3.436-2.848.235-1.037.1-3.34-2.108-4.63a5.7 5.7 0 0 1-.957-.708c-.545-.49-.576-1.74-.088-3.617.417-1.612 1.105-3.305 1.711-4.8.33-.812.64-1.578.881-2.261.855-2.408 1.878-4.65 2.37-5.728l.09-.201c.477-1.24.558-2.36.24-3.338.96-.44 1.716-1.285 2.202-2.47l.047-.116c.08-.192.176-.422.284-.662 1.77 1.853 5.986 7.16 9.33 18.32 1.887 6.28 2.41 9.908 2.515 11.846.044.879.066 1.47.035 1.685-.023.114-.535 2.82 1.235 3.78l2.416 1.367a3.3 3.3 0 0 0 1.607.433c1.646 0 2.898-1.322 2.994-1.53.638-1.352 5.11-6.28 7.727-6.753a3 3 0 0 0 1.92-1.275 3 3 0 0 0 .478-2.242c-.498-2.546-1.46-5.315-2.138-7.176-.285-.77-.565-1.502-.82-2.174-.428-1.114-.794-2.075-.99-2.717-1.297-4.182.474-6.843.823-7.31.421-.49 1.096-1.447 1.252-2.684.557-.014 1.136-.16 1.723-.43.216.444.47.966.754 1.543.908 1.853 2.111 4.305 3.29 6.823 1.988 4.252 3.286 7.42 3.755 9.164.2.749.172.979-.194 1.537-.623.947-2.013 2.297-4.796 4.652a2.98 2.98 0 0 0-1.047 2.092c-.05.82.238 1.633.793 2.23l1.93 2.073c.936 1.007 2.97 1.166 4.05.304 1.835-1.455 5.55-2.324 9.94-2.324 3.822 0 7.8.63 11.507 1.824.246.08.512.118.788.118 1.23 0 2.442-.757 2.882-1.801l.785-1.86c.29-.68.04-2.472-.425-3.043-.66-.815-1.456-1.45-2.002-1.86a45 45 0 0 0-2.03-1.37l-.318-.205c-.505-.327-1.006-.651-1.475-.994-.495-.358-.916-.718-1.189-1.024-.502-.534-.694-.884-.828-1.24-.17-.463-.29-.99-.445-1.654q-.107-.466-.24-1.014c-.24-1.007-.719-2.445-1.42-4.28q.222.015.456.016h.15c.5-.014 1.13-.073 1.845-.14l.535-.051c1.726-.162 3.744-.253 5.25.006 1.2.204 2.853-.751 3.285-1.855l.244-.62c.261-.666.5-1.275.73-1.832.285-.695.525-1.213.76-1.632.384-.698.634-.822.742-.858.943-.396 1.8-1.128 2.3-2.098.108.55.187 1.048.218 1.448.017.293.016.546.016.658q-.022.044-.07.13c-.304.545-1.107 1.99-.33 3.46l1.943 2.263a3 3 0 0 0 2.28 1.067c.797 0 1.55-.318 2.126-.9.296-.3 1.414-.87 3.527-.87 1.501 0 3.145.289 4.89.854.108.036.284.104.497.187.892.343 1.738.653 2.271.653q.45-.001.66-.284c.218-.298.446-.591.67-.878 1.092-1.405 2.122-2.732 1.391-3.788-4.26-6.1-7.263-13.873-9.178-23.767-.164-.856-.948-1.42-1.36-1.72l-2.376-2.07c-.437-.35-1.46-.558-2.197-.558-.35 0-.63.048-.828.137-1.018.447-2.706.674-5.018.674-4.835 0-10.96-1.02-12.357-1.467a1.9 1.9 0 0 0-.578-.08c-.848 0-2.14.417-2.637 1.014l-1.793 2.148c-.72.868-.983 1.84-.74 2.736.242.894.956 1.597 2.007 1.979l.168.062c.886.329 2.854 1.08 4.645 1.764-1.427.493-2.442 1.71-2.844 2.87-.51 1.495-1.619 4.324-3.324 6.476-1.158 1.46-1.969 2.969-2.426 4.5-1.389-2.978-2.737-5.67-3.547-7.073-2.674-4.605-3.143-9.135-2.449-11.394.79-2.574-.088-3.155-1.707-3.961a22 22 0 0 1-.709-.361l-1.084-.565c-.363-.185-1.26-.201-1.525-.201-.762 0-.98.098-1.05.13-.939.416-2.523.634-4.58.634-3.059 0-6.086-.474-6.917-.82a2.5 2.5 0 0 0-.91-.16m117.566.15c.797.006 1.756.605 2.014 1.322l.564 1.578a2.1 2.1 0 0 1-.107 1.654 1.97 1.97 0 0 1-1.22 1.008c-1.168.335-1.83 1.113-2.284 2.684-.504 1.772-.606 4.229-.606 7.375 0 .393-.047.832-.1 1.34-.114 1.11-.256 2.492-.087 4.412.124 1.38.685 3.542 4.107 6.34.424.349.685.85.735 1.415a2.04 2.04 0 0 1-.48 1.528l-.99 1.148c-.289.34-1.044.608-1.718.608-.263 0-.49-.041-.644-.12-.892-.446-2.035-.673-3.393-.673-3.524 0-7.687 1.534-8.734 3.222-.487.792-1.122 1.246-1.744 1.246-.686 0-1.32-.54-1.74-1.484l-.778-1.715c-.287-.64.037-2.018.574-2.457.843-.68 1.551-2.36 1.996-4.73.144-.776.344-1.601.553-2.461.475-1.953 1.014-4.168 1.014-6.397 0-.334.018-.74.04-1.2.021-.488.045-1.036.055-1.62.016-.88.004-2.041-.222-3.213-.292-1.495-.989-3.59-3.645-4.504-.596-.206-1.042-.613-1.254-1.144-.217-.542-.172-1.163.127-1.743l.778-1.505c.253-.5 1.307-1.065 1.978-1.065a1 1 0 0 1 .145.012c.768.148 2.147.23 3.88.23 3.036 0 7.702-.277 10.858-1.056q.157-.037.328-.036m-23.182.18c1.283 0 1.798 2.285 2.018 3.26.042.188.078.342.105.442l.381 1.4c.41 1.619-.486 2.706-.486 2.706-.703.627-2.51 4.172-2.947 6.273-.226 1.1-1.355 1.837-2.448 1.543l-1.617-.428c-.465-.124-1.395-1.195-1.463-1.69-.499-3.53-1.976-4.078-5.763-4.644-3.197-.466-6.27 2.623-6.502 6.346-.215 3.493.413 6.048 1.867 7.594 1.03 1.095 2.457 1.65 4.242 1.65.558 0 1.162-.053 1.715-.156l1.443-.008.01-.947c-1.8-.054-2.952-.796-3.175-1.496l.316-1.584c.173-.978.75-2.176 1.48-2.47 1.461-.586 6.341-1.103 10.444-1.103 2.098 0 3.645.14 4.332.38.18.096.968.75 1.08.886l1.268 2.139c.384.65.49 1.158.326 1.553-.252.603-1.193 1.114-2.797 1.52-1.82.469-2.74 1.3-3.07 2.776-.225.96-.396 2.5-.247 3.62.165 1.173.242 2.356.26 3.07.018.679-.176 1.26-.545 1.64-.457.469-1.163.614-1.957.397l-2.095-.572c-.267-.096-1.225-.953-1.344-1.198-.253-.634-1.732-1.683-2.862-1.683l-.132.002c-2.18.165-3.73.583-5.108.953l-.203.053c-.705.183-1.37.355-2.004.46-.915.154-1.642.197-2.472.13-7.695-.601-14.75-9.205-14.518-17.71.297-10.766 7.406-14.603 13.96-14.603h.21c2.374.026 4.527.41 6.527.8l.696.14c1.574.318 3.06.617 4.591.716 1.353.072 2.556-.156 3.676-.676.441-.204.746-.394.963-.548.72-.62 1.34-.932 1.846-.932zm-94.392.614c.212 0 .405.03.553.09 1.017.42 4.254.89 7.273.89 1.527 0 3.627-.123 4.955-.712.041-.015.242-.05.676-.05.55 0 1 .058 1.09.093l1.078.562c.26.14.501.258.728.37 1.432.713 1.817.905 1.225 2.837-.935 3.042.084 7.924 2.535 12.147.908 1.576 2.512 4.817 4.088 8.256l.656 1.433.242-1.556c.288-1.843 1.146-3.677 2.55-5.446 1.793-2.265 2.948-5.205 3.476-6.753.477-1.382 2.017-2.782 3.902-2.405.155.03.326.096.492.158.147.058.271.11.416.168.1.045.218.096.284.127.177.08.375.154.576.229q.22.08.437.17c.636.262 1.37.57 1.37.562 1.072.744 1.484 2.517.964 4.256-.05.25-.113.502-.19.742l-.218.68 1.104-.096c.07-.004.19-.01.336-.01.328 0 .625.028.878.082.555.13 1.578.518 2.15 1.594l.141.395c.11.307.19.543.28.804q.333 1.095.611 2.13c.33 1.859-.898 3.102-2.057 3.59-.437.139-.846.56-1.246 1.288-.252.45-.51 1-.808 1.73-.232.562-.472 1.178-.735 1.85l-.242.617c-.269.688-1.488 1.397-2.246 1.268-1.6-.272-3.71-.18-5.494-.014l-.537.05c-.69.066-1.298.123-1.776.136l-.13.002c-.394 0-.76-.037-1.086-.11l-.868-.19.325.827c.847 2.156 1.41 3.803 1.672 4.906q.134.546.238 1.004c.155.67.29 1.25.482 1.772.206.55.502 1.003 1.016 1.55.315.35.775.749 1.33 1.15.481.35.998.685 1.518 1.022l.314.206a45 45 0 0 1 1.984 1.335c.501.377 1.235.963 1.83 1.698.245.3.444 1.717.291 2.076l-.787 1.86c-.35.83-1.64 1.43-2.51 1.15-3.796-1.224-7.877-1.871-11.796-1.871-4.665 0-8.502.924-10.528 2.533-.712.562-2.152.455-2.77-.21l-1.927-2.073a2.03 2.03 0 0 1-.543-1.525c.034-.564.287-1.07.711-1.426 2.896-2.452 4.292-3.814 4.98-4.856.513-.786.585-1.301.317-2.302-.49-1.822-1.773-4.96-3.815-9.323-1.179-2.522-2.384-4.98-3.294-6.838-.38-.777-.71-1.45-.965-1.974l-.219-.457-.44.25c-.75.427-1.42.6-2.09.52l-.523-.06v.528c-.006.855-.39 1.79-1.076 2.588-.417.556-2.424 3.56-.992 8.18.205.67.58 1.646 1.01 2.775.255.668.534 1.4.816 2.164.668 1.83 1.613 4.55 2.098 7.03.1.51-.02 1.067-.332 1.527a2.06 2.06 0 0 1-1.307.879c-2.99.54-7.684 5.735-8.37 7.205-.166.21-1.08 1.06-2.179 1.06-.388 0-.774-.104-1.146-.312l-2.418-1.367c-1.167-.633-.774-2.75-.764-2.791.043-.29.038-.733-.02-1.897-.109-1.99-.64-5.7-2.554-12.066-3.75-12.518-8.636-17.857-10.045-19.196l-.455-.433-.395.742c-.204.412-.375.82-.506 1.135l-.048.119c-.453 1.107-1.174 1.834-2.084 2.105l-.534.16.243.502c.41.84.384 1.87-.065 3.036l-.08.175c-.497 1.09-1.53 3.359-2.4 5.805a53 53 0 0 1-.866 2.22c-.617 1.522-1.317 3.246-1.75 4.917-.599 2.307-.477 3.8.375 4.564.502.444.888.695 1.116.822 2.142 1.253 1.677 3.506 1.644 3.704 0 1.312-1.025 2.22-2.355 2.017a22 22 0 0 0-3.365-.254c-5.424 0-10.06 1.978-11.487 3.313-1.075 1.01-2.497.774-3.193-.528l-1.076-2.005c-.45-.843-.102-2.174.662-2.663.024-.013 2.897-1.837 4.545-3.937 1.24-1.564 2.664-4.52 4.351-9.04.661-1.78 1.26-3.526 1.776-5.03.543-1.582 1.012-2.948 1.341-3.73.747-1.795 1.208-2.93 1.52-3.696l.39-.951c.367-.98.975-1.61 1.81-1.873l.55-.174-.28-.508c-.506-.914-.417-2.032.29-3.373.373-.967 2.207-6.76 2.254-7.05l.064-.401-.387-.127c-.334-.108-2.75-.744-3.095-.807-1.3-.26-2.079-.675-2.313-1.238-.226-.542.01-1.342.697-2.38.142-.213 1.368-1.87 1.807-2.464.467-.55.94-.793 1.531-.793l15.772.432c.957.019 1.94.987 1.984 1.95.011.288.123.827.965 2.185.436.712.975 1.502 1.594 2.412.46.678.968 1.424 1.513 2.256 1.033 1.556 1.96 3.179 2.856 4.748q.5.878.992 1.722c.711 1.22 1.257 2.094 1.77 2.83l.308.442.4-.362c.364-.332.67-.57 1.01-.836.854-.744 1.861-1.086 2.844-.962l.543.064-.014-.547c-.017-.692.18-1.71 1.23-2.644.331-.32.747-.747 1.311-1.48.742-.971 1.514-2.208 2.295-3.673l.16-.52-.523-.18c-.667-.614-4.839-2.652-4.88-2.673-.56-.27-.955-.723-1.11-1.275-.156-.554-.056-1.147.28-1.668l1.59-2.436c.31-.485 1.171-.88 1.923-.88m31.432.223a.9.9 0 0 1 .283.035c1.445.462 7.723 1.514 12.65 1.514 2.444 0 4.26-.256 5.404-.758.055-.025.203-.055.442-.055.676 0 1.43.21 1.59.34l2.367 2.063q.045.038.14.105c.244.177.814.586.907 1.073 1.942 10.026 4.995 17.92 9.332 24.128.333.48-.53 1.59-1.364 2.666-.2.26-.408.525-.609.795-.418-.018-1.38-.388-1.902-.59-.235-.09-.43-.166-.55-.203-1.834-.597-3.576-.898-5.177-.898-2.262 0-3.654.593-4.2 1.15-.829.837-2.25.78-3.015-.117l-1.882-2.172c-.48-.927.12-2.012.376-2.474.09-.161.135-.242.157-.37.037-.271.042-.594.015-.953-.074-.963-.39-2.383-.804-3.937-.013-.071-.01-.137-.028-.21-.17-.748-.388-1.403-.65-2.15-.925-3.02-2.046-6.071-2.682-7.353l-.066-.133-.13-.072c-.959-.524-3.287-1.483-5.794-2.47-.116-.051-.215-.087-.352-.14h-.002a457 457 0 0 0-7.123-2.71l-.17-.061c-.756-.276-1.262-.75-1.42-1.338-.16-.59.035-1.26.553-1.883l1.793-2.15c.245-.294 1.215-.672 1.91-.672m50.083 8.924q.26 0 .518.039c3.661.548 4.558.969 4.965 3.838.103.758 1.034 1.909 1.822 2.338-2.406.204-4.598.533-5.61.94-1.27.51-1.89 2.24-2.054 3.17l-.355 1.777.02.095c.128.61.563 1.143 1.206 1.545a7 7 0 0 1-.248.004c-1.512 0-2.707-.454-3.55-1.351-1.58-1.68-1.749-4.674-1.612-6.89.186-2.983 2.43-5.505 4.898-5.505m-41.199 2.726c.46.204.848.385 1.133.534.398.835.967 2.363 1.55 4.037a4.6 4.6 0 0 0-1.308-.541 5.5 5.5 0 0 0-1.228-.104l.03-.142c.401-1.344.32-2.703-.177-3.784" style="fill:#fff"/><path d="M224.62 243.44a1.4 1.4 0 0 0-.34.078l-4.093 1.409a1.5 1.5 0 0 0-.746.59 1.44 1.44 0 0 0-.934-.616l-.964-.18a1.46 1.46 0 0 0-1.608.89c-.304.742-1.022 1.33-1.922 1.587a1.4 1.4 0 0 0-.66.408c-.778-.708-1.855-1.074-3.215-1.074-.389 0-.772.043-1.138.104-.065-.035-.124-.07-.198-.096l-.964-.315a1.47 1.47 0 0 0-1.827.872l-.677 1.86-.13-.267a1.47 1.47 0 0 0-.874-.742l.21-.137c.33-.204.56-.537.64-.922.075-.384 0-.785-.214-1.11l-.68-1.007a1.46 1.46 0 0 0-1.814-.511c-1.006-.546-1.945-.83-2.838-.82-4.407-.01-7.864 3.338-7.859 7.614 0 1.995.65 3.703 1.887 4.932 1.2 1.196 2.828 1.835 4.724 1.828a7.6 7.6 0 0 0 3.45-.82c.276.35.69.572 1.142.564l.861.008a1.47 1.47 0 0 0 1.307-.828c.724.683 1.725 1.059 2.815 1.059a4.1 4.1 0 0 0 1.793-.4c.207.102.43.162.668.162h3.22a1.43 1.43 0 0 0 1.15-.573c.595.537 1.414.813 2.424.82.911-.008 1.71-.283 2.413-.658.257.255.614.41 1.007.41h4.155c.154 0 .305-.034.45-.076.14.042.29.077.45.077h4.121c.656 0 1.202-.437 1.39-1.034.94.837 2.155 1.273 3.55 1.282 1.29 0 2.47-.37 3.492-1.07.244.487.735.82 1.306.82h4.266c.808 0 1.451-.646 1.451-1.457v-.957c0-.563-.319-1.04-.787-1.288v-1.64c.126.042.247.086.381.146.356.136.744.12 1.096-.017v1.62a1.45 1.45 0 0 0-.614 1.179v.964c0 .804.65 1.452 1.454 1.452h4.078c.224 0 .438-.052.625-.145.19.085.4.145.623.145h4.127c.16 0 .31-.035.463-.086.146.05.3.086.462.086h4.096c.394 0 .755-.162 1.018-.418q.051.048.11.084c-.01.103-.018.197-.018.293 0 .767.273 1.448.796 1.97.737.734 1.885 1.093 3.52 1.084.243 0 2.47-.034 3.805-1.375a3.1 3.1 0 0 0 .933-2.244c0-1.135-.524-1.92-1.254-2.45.87-.707 1.51-1.76 1.51-3.347 0-1.023-.314-1.79-.7-2.353a.2.2 0 0 0 .022-.06l.354-1.64a1.456 1.456 0 0 0-1.297-1.758q-.07-.002-.152-.017c-.163-.008-.362-.033-.567-.033-1.193 0-2.008.425-2.482 1.277a8 8 0 0 0-.82-.04c-1.587 0-3.25.64-4.21 2.005a3.3 3.3 0 0 0-.669-.988c-.674-.676-1.607-1.018-2.774-1.018-.667 0-1.248.162-1.77.393-.03-.033-.057-.07-.09-.096a1.46 1.46 0 0 0-1.265-.244l-3.533.965c.128-.3.187-.625.191-.957 0-.845-.37-1.394-.675-1.7-.517-.504-1.254-.767-2.206-.767-1.237 0-2.927.93-3.16 2.475a1.4 1.4 0 0 0-.937.035 3.2 3.2 0 0 0-.862-.104c-.263 0-.494.052-.708.12-.3-.13-.63-.154-.958-.067l-3.216.86c-.317.084-.58.273-.778.52-.947-.937-2.183-1.433-3.644-1.433a5.31 5.31 0 0 0-4.346 2.229 3.35 3.35 0 0 0-.775-1.24c-.45-.452-1.266-.99-2.594-.99a5 5 0 0 0-1.035.12c.11-.204.176-.441.176-.681v-1.076c0-.47-.232-.912-.61-1.186a1.45 1.45 0 0 0-.982-.268m-64.187.002c-.769 0-1.4.59-1.455 1.35l-.222 3.295c-.028.4.114.793.388 1.092.274.289.66.459 1.063.459h1.156c.087 0 .167-.007.252-.016v3.848a1.45 1.45 0 0 0-1.03 1.382v1.254c0 .804.65 1.453 1.456 1.46l5.488-.007c.656 0 1.203-.436 1.383-1.033a1.45 1.45 0 0 0 1.39 1.04h4.157c.152 0 .307-.035.443-.085.146.05.292.078.451.086h4.123c.656 0 1.205-.444 1.385-1.033.941.828 2.162 1.27 3.555 1.27 2.063 0 3.848-.92 5.162-2.67a1.455 1.455 0 0 0-.102-1.86l-.527-.57a1.443 1.443 0 0 0 .828-1.735c-.824-2.86-2.713-4.43-5.326-4.437-1.81 0-3.373.87-4.346 2.228a3.4 3.4 0 0 0-.773-1.238c-.452-.453-1.264-.99-2.6-.99a5 5 0 0 0-1.033.12q.174-.31.176-.683v-1.076a1.456 1.456 0 0 0-1.93-1.375l-3.352 1.162a1.45 1.45 0 0 0-1.437-1.238h-1.215c-.304 0-.59.094-.824.256h-4.643a1.44 1.44 0 0 0-.826-.256zm7.553 6.17q.122.026.238.026h1.157c.022 0 .04-.008.054-.008v4.343a1.5 1.5 0 0 0-.482.639 1.44 1.44 0 0 0-.967-1.125zm16.053.967.074.05c-.035.018-.07.016-.104.024zm50.336 0c.03.017.05.034.074.05a.5.5 0 0 1-.108.016c.01-.018.03-.04.034-.066m-14.604.28v2.208c-.06-.007-.118-.017-.183-.017v-2.141c.063-.018.122-.025.183-.05m-20.873 1.425h.34v.248a1.7 1.7 0 0 1-.34-.248" style="fill:#fff"/><path d="m160.431 244.893-.228 3.295h1.16c.196-1.05.541-1.562 1.695-1.562v8.234h-1.02v1.256l5.477-.01v-1.246h-.996v-8.234c1.161 0 1.512.51 1.703 1.552l1.16.01-.224-3.295h-1.22v.256h-6.298l.01-.256zm13.998 0-4.095 1.416v.973l.558-.193v8.062l-.597-.008v.963l.011.002h4.157v-.965h-.63v-4.556c.275-.368.674-.666 1.143-.666.752-.01.992.385.992 1.119v4.103h-.605v.963h4.121v-.963h-.574l-.012-4.941c.007-.974-.44-2.213-2.156-2.213-1.237 0-1.99.592-2.908 1.367v-3.183l.595-.206zm25.207 0c-3.562 0-6.404 2.682-6.404 6.163.002 3.218 2.055 5.306 5.154 5.306 1.553 0 2.8-.546 3.883-1.33l.707 1.076h.864v-5.12c0-.426.115-.604.45-.86l-.384-.787c-.243.092-.5.238-.772.238h-4.345v1.246h1.902v3.482c-2.36.01-3.992-1.297-3.992-4.54 0-.77.063-3.355 2.117-3.346.541 0 1.092.28 1.092.896-.004.22-.064.453-.227.606l.594.904 3.482-2.236-.673-1.008-.592.385c-.82-.546-1.846-1.075-2.856-1.075m25.123 0-4.09 1.409v.978l.561-.193v8.056h-.594v.963l.004.002h4.155v-.965h-.63v-4.556c.277-.368.68-.676 1.143-.676.752 0 1 .385.99 1.12v4.112h-.609v.963h4.123v-.963h-.574v-4.941c0-.983-.448-2.22-2.162-2.213-1.24-.007-1.99.592-2.912 1.36v-3.176l.596-.205zm24.286.692c-.687-.007-1.728.589-1.727 1.375 0 .657.443.998 1.086.998.8 0 2.068-.358 2.068-1.365 0-.836-.74-1.015-1.427-1.008m-31.758.572c-.496 1.22-1.617 2.088-2.873 2.44v.878h.793v4.754c0 1.4.563 2.118 2.021 2.118 1.043 0 1.956-.565 2.758-1.153l-.42-.69c-.222.146-.49.257-.765.257-.24 0-.657-.148-.657-.641v-4.645l1.188.01.236-1.253h-1.428v-.65c0-.41.018-.844.112-1.245zm52.06.596c-.87 0-1.15.237-1.343.826l-.196.615c-.448-.067-.91-.213-1.763-.213-1.75 0-3.582.999-3.582 3.31.004 1.683 1.386 2.63 2.763 2.837v.03c-.998.369-2.006.694-3.064.856l1.076 1.04c.675-.094 1.233-.032 2.15.052v.026c-.689.087-1.546.598-1.556 1.384.005 1.296 1.45 1.604 2.86 1.604.964 0 3.288-.418 3.288-2.17 0-1.801-2.682-2.08-4.016-2.225v-.035c1.945-.495 4.27-.99 4.27-3.523-.002-1.878-1.506-2.383-1.506-2.7 0-.177.096-.348.291-.357.28.01.383.135.58.324l.35-1.638c-.198-.018-.409-.043-.602-.043m-61.965.853-1.023 2.79.992.367c.437-.562.851-1.237 1.781-1.237.71 0 1.061.403 1.061 1.06v.4h-2.203c-1.425 0-2.578 1.059-2.578 2.927-.004 1.487 1.09 2.434 2.547 2.434.915 0 1.625-.436 2.28-1l.188.759h3.225v-.965h-.516v-4.488c-.009-1.894-1.195-2.664-2.988-2.664-.66 0-1.347.112-1.945.37l.144-.436zm27.405.377c-2.264.007-3.95 1.886-3.95 4.114 0 2.55 1.497 4.25 3.915 4.25 1.785 0 3.064-.854 3.996-2.092l-.608-.65c-.487.59-1.203.849-1.959.849-.993 0-1.652-.497-2.02-1.41l4.561-1.672c-.567-1.953-1.77-3.39-3.935-3.39m8.02 0-3.225.87h.006v.973l.513-.203v5.52h-.545v.966h4.268v-.965h-.785v-3.898c.315-.495.771-.59 1.06-.6.463.035.882.198 1.3.36l.956-2.715-.879-.307-.193.324c-.448-.22-.706-.318-1.186-.318-.754-.007-1.06 1.343-1.25 1.89h-.04zm7.54 0-3.515.999v.914l.58-.113v5.36h-.612v.964h4.075v-.963h-.528zm5.31 0-3.534.964v.95l.562-.165v5.412h-.562v.963h4.13v-.963h-.626v-4.574c.385-.333.767-.658 1.312-.658.437 0 .852.24.852.709v4.523h-.614v.963h4.094v-.963h-.545v-4.882c-.005-.88-.29-2.27-2.33-2.278-1.104 0-1.927.655-2.74 1.297zm-71.21.007c-2.262 0-3.947 1.88-3.947 4.108-.004 2.55 1.49 4.25 3.912 4.25 1.787 0 3.065-.846 3.998-2.084l-.613-.657c-.482.59-1.204.848-1.958.848-.995.008-1.65-.497-2.023-1.41l4.557-1.664c-.558-1.962-1.76-3.39-3.926-3.39M265.92 249c1.208 0 1.705 2.424 1.705 3.285 0 .766-.24 1.074-.834 1.074-1.208 0-1.703-2.423-1.703-3.285 0-.777.24-1.074.832-1.074m-81.97.203c.868.01 1.235 1.18 1.456 1.87l-2.065.786c-.093-.436-.273-.845-.273-1.476 0-.675.257-1.17.88-1.18m50.346.01c.862-.01 1.23 1.17 1.46 1.854l-2.074.79c-.095-.434-.265-.852-.275-1.482 0-.676.257-1.173.89-1.162m-24.564 2.738h.467v1.547c0 .606-.146 1.17-.885 1.17-.785 0-.965-.71-.965-1.332 0-.82.58-1.385 1.383-1.385m56.654 4.473c.563.35.98.599.98 1.342 0 .392-.208.588-.608.588-.45 0-.655-.437-.655-.836-.005-.385.077-.77.283-1.094"/></svg>