<svg xmlns="http://www.w3.org/2000/svg" width="31.985" height="16.04" viewBox="0 0 31.985 16.04"><path fill="#444" d="M11.096.305c.257-.116.496-.372.801-.288.204.087.411.172.604.282.211.232.378.506.491.799.173.456.425.883.527 1.364.143.368.123.77.249 1.143.193-.62.105-1.268-.038-1.885.22.585.282 1.21.459 1.807.164.329.222.696.386 1.024.136.29.119.622.23.92.239.677.251 1.404.45 2.09.077.856.378 1.672.456 2.528.018.274.171.507.249.764.017.25-.071.494-.061.745.011.337.091.672.054 1.01-.059.417.099.825.282 1.19.12-.457.038-.933.074-1.398.054-.317.175-.618.224-.935.079-.521.021-1.06.173-1.568.065-.63.193-1.254.171-1.89.244-.435.208-.973.118-1.45-.007-.605.251-1.186.24-1.792.299-.57.464-1.202.553-1.837.034-.524.14-1.038.208-1.557l.078.258q.139-.281.247-.574l-.278.018c.057-.12.091-.253.176-.356.111-.104.263-.14.4-.196.204-.223.448-.432.749-.5.303-.04.61-.005.913.018a9 9 0 0 0-.282.203c.25.046.501.009.752.007.136.01.12.178.165.272.048.22.262.335.425.464a10 10 0 0 0-.409-.096c.274.524.828.795 1.262 1.166l-.087.096c.151.354.27.72.495 1.037.193.148.383.3.578.446a9 9 0 0 0-.234.253c.416.024.819-.118 1.222-.201.407-.163.845-.206 1.269-.306.467-.058.855-.345 1.244-.585l.033.35c.111-.151.214-.314.37-.423.142-.094.311-.136.456-.225.137-.102.234-.253.387-.335.181-.095.37-.177.541-.293q-.085.21-.142.429c.165-.063.251-.214.307-.372l.237-.028.1.164c.103-.12.186-.252.237-.401l.106.046c.116-.165.271-.3.482-.313l.118.128.36-.163-.023-.167c.64-.174 1.14-.626 1.735-.895-.273.296-.56.583-.923.768l.12.053-.068.137.317.042c-.261.22-.614.307-.843.567-.155.165-.38.258-.479.473.389-.001.714-.234 1.076-.34-.308.267-.712.389-1.01.668.255-.056.488-.175.723-.286q.103.066.203.136c-.203.143-.425.265-.596.448-.173.132-.356.25-.517.397l.316-.124c-.226.229-.359.53-.62.728.446-.13.745-.52 1.18-.673-.317.36-.748.589-1.062.952q.391-.1.784-.192c-.302.205-.604.413-.932.577-.387.188-.749.43-1.155.579a.96.96 0 0 0-.405.286c.255.099.526.052.764-.071q.053.087.108.173c-.2.12-.403.239-.596.372l.11.065c-.276.235-.547.477-.864.655-.388.312-.786.618-1.221.862-.341.11-.675.24-1.008.376l-.311-.098c.166.445.339.889.449 1.352.089.316.175.643.374.91.207.27.27.615.46.895.183.269.332.563.416.878-.213-.271-.412-.553-.647-.805.129.302.31.58.407.896.091.24-.029.5.055.742.074.25.066.514.055.773-.178-.32-.356-.645-.413-1.012l.009.395c-.198-.46-.586-.815-.713-1.308l.056.45a2.8 2.8 0 0 1-.32-.534l-.028.19a12 12 0 0 1-.167-.435l-.057.265a6 6 0 0 1-.212-.341l-.028.2-.122-.341c-.526-.458-.786-1.131-1.19-1.685.029.215.074.428.099.644-.088-.195-.139-.404-.22-.602-.086-.157-.204-.294-.308-.438.084.355.196.702.314 1.046a13 13 0 0 0-.348-.366c-.22-.144-.266-.41-.327-.645a4 4 0 0 0-.328.37 3 3 0 0 0-.257-.048c-.37-.107-.77-.065-1.141.018l.046-.105-.366.048c-.222.684-.391 1.399-.774 2.016l-.159-.02q-.051.125-.099.25l-.129.085a9 9 0 0 0-.287.75l-.065-.258c-.145.3-.256.615-.364.93-.116.333-.407.553-.616.825-.3.372-.745.579-1.081.91.38-.824.711-1.687.815-2.596.056-.227.27-.384.306-.622.081-.377.206-.76.159-1.15.085-.382.251-.744.316-1.132.032-.491-.054-1.01.167-1.47.226-.478.392-.984.655-1.445-.029-.123-.083-.24-.126-.356a3 3 0 0 0 .124-.247.6.6 0 0 0 .24-.116l-.06-.062a.8.8 0 0 0 .433-.323l-.146-.143c.234-.194.446-.421.737-.532-.202-.137-.413-.39-.684-.27-.271.152-.547.37-.626.686-.066.27-.149.536-.206.807-.067.406-.411.686-.528 1.073-.107.37-.149.757-.2 1.139-.052.397-.236.759-.338 1.143-.083.296-.113.603-.2.898-.077.26-.157.523-.2.793a9 9 0 0 1-.488 2.139c-.14.262-.339.497-.417.79-.108.397-.22.794-.365 1.18-.129.372-.189.764-.325 1.134a3.7 3.7 0 0 0-.575-1.352c-.099-.17-.311-.191-.477-.26q.186.026.374.048c-.55-.516-.977-1.143-1.438-1.737-.151-.25-.392-.44-.486-.722q-.073-.187-.143-.378c-.009.054-.028.164-.036.219-.074-.145-.145-.292-.253-.414-.458-.537-.581-1.266-.991-1.832-.181-.267-.268-.613-.56-.79-.219-.125-.439-.27-.69-.316-.229-.05-.431.096-.65.126-.25-.042-.482-.153-.727-.216.28.216.612.333.95.422-.179.009-.384.086-.546-.024-.164-.107-.327-.216-.524-.25-.015-.216-.077-.503-.359-.468-.326.295-.479.749-.86.99-.286.503-.696.914-1.008 1.398-.315.373-.546.803-.796 1.219-.254.348-.474.72-.755 1.048l.322-.883-.481.848c.111-.585.458-1.112.448-1.722l-.16.149.124-.331q-.16-.027-.323-.05l.231-.518c-.04-.14-.071-.282-.104-.423.179-.23.353-.472.423-.76-.181.132-.316.31-.45.487.151-.255.274-.528.322-.823l-.21.18c.126-.262.229-.537.393-.78.153-.224.157-.504.255-.752-.198-.165-.383-.36-.647-.413a5 5 0 0 0-.09.555 10 10 0 0 0-.71-.61c-.233-.126-.493-.192-.749-.26-.252-.066-.456-.25-.712-.302-.33-.075-.619-.26-.898-.442.352.002.697.099.987.299.264.188.592.218.891.32.142.062.291 0 .431-.035-.232-.331-.64-.4-.983-.557l.262.28c-.311-.19-.604-.44-.982-.482q.143.167.296.327A3.5 3.5 0 0 0 2.77 5.8c-.362-.14-.674-.378-.97-.623.316.173.625.39.989.448-.19-.144-.425-.22-.587-.4q-.337-.344-.704-.653l.103.015c.027-.098.062-.195.079-.296-.063-.187-.155-.368-.12-.573l.279.044a1.7 1.7 0 0 1-.368-.585c-.081-.225-.321-.324-.492-.468.159.052.315.11.474.158a1.03 1.03 0 0 0-.523-.404C.574 2.337.3 2.07.031 1.818c.459.1.848.37 1.292.51.179.066.335.179.496.278-.132-.274-.223-.564-.331-.848-.146-.343-.55-.42-.866-.532C.369 1.166.176.986 0 .806c.382.106.745.26 1.114.4C.898.999.641.844.406.66c.684.403 1.473.573 2.165.963a7 7 0 0 0-.342-.442c.203.13.421.235.636.345.208.1.344.296.535.42.193.147.442.175.661.266.281.104.53.296.837.32-.161-.201-.372-.353-.567-.521.33.036.56.282.796.487.186.164.412.27.647.34q-.097-.137-.197-.273c.22.147.464.253.712.343-.212-.155-.419-.317-.629-.473.745.293 1.466.678 2.052 1.23l.259-.182-.174-.037c.155-.133.292-.286.414-.45l-.276.048c.235-.165.459-.346.655-.557a7 7 0 0 0-.52.159c.311-.192.634-.392.829-.712l-.272.04c.305-.14.595-.31.843-.54.492-.441 1.017-.86 1.623-1.134zM1.707 3.38c.141.288.42.466.708.585l-.027-.175q-.2-.075-.401-.147L1.982 3.5q-.137-.061-.275-.12m9.948.18c-.068.115-.183.218-.193.357.027.226.142.428.216.64.067.184.043.382.063.574.02.32.169.61.249.917.149.56.434 1.077.55 1.647l-.178-.151c.226.398.442.814.775 1.135.131.135.242.287.343.446a4 4 0 0 1-.43-.352q.138.188.248.395l.132.117.024.18c.21.265.24.614.407.9.154.268.307.542.36.849.058.34.29.636.266.992-.044.324.249.528.406.772.275.402.36.898.606 1.316-.068-.24-.131-.481-.214-.715-.079-.222-.221-.413-.31-.63-.08-.221-.071-.466-.18-.677-.136-.258-.208-.542-.292-.82l.292.56c-.103-.356-.283-.693-.323-1.065-.06-.45-.062-.921-.238-1.346-.237-.457-.324-.97-.475-1.456.211.12.392.283.519.492-.029-.145-.062-.292-.152-.413a1.4 1.4 0 0 1-.229-.693l-.148-.098.213-.223a4 4 0 0 1-.536-.532c.043.288.114.577.085.87-.178-.368-.29-.765-.473-1.132-.184-.372-.155-.811-.382-1.163-.173-.46-.458-.863-.634-1.32l-.107-.04c-.024-.155-.128-.26-.261-.33zm8.469.343c-.235.03-.36.245-.477.425.126-.091.243-.195.362-.295q.446.118.858.325l-.159-.311.203.032c-.247-.111-.508-.294-.788-.176zm5.963 3.253.118.07c.288-.11.552-.27.835-.39.214-.09.405-.226.565-.394-.517.212-1.05.403-1.518.714m3.665-2.371c-.259.114-.448.332-.67.5.462-.15.868-.42 1.246-.72-.194.072-.388.137-.576.219z"/></svg>