<svg xmlns="http://www.w3.org/2000/svg" width="30.186" height="29.308" viewBox="0 0 30.186 29.308"><title>school-lorehold</title><path fill="#444" d="M9.325 4.253C11.252 2.839 13.17 1.413 15.097 0q2.886 2.125 5.767 4.255a55 55 0 0 1 6.725-1.132c.52 1.146 1.034 2.293 1.556 3.439.028.085.102.179.05.271a29 29 0 0 0-1.05 2.792c.677.508 1.365 1.002 2.041 1.514-.99.74-1.993 1.463-2.984 2.202a37 37 0 0 0-.574 4.077c-.008.109-.027.224.007.331.767 2.64 1.545 5.278 2.303 7.921-.943-.756-1.876-1.525-2.811-2.291-2.887.215-5.704 1.196-8.148 2.735.075.277.142.557.218.833a12.7 12.7 0 0 0-3.097 2.361 12.8 12.8 0 0 0-3.107-2.356c.074-.279.144-.559.221-.836-2.466-1.551-5.305-2.533-8.215-2.746-.97.789-1.931 1.588-2.909 2.366.815-2.675 1.639-5.348 2.456-8.022.055-.171.006-.351-.003-.525a40 40 0 0 0-.529-3.747C2.012 12.669 1.001 11.91 0 11.138q1.026-.753 2.046-1.512A29 29 0 0 0 .961 6.759c.542-1.212 1.096-2.419 1.637-3.633 2.264.227 4.511.619 6.727 1.128Zm-7.581 6.893q1.987 1.522 3.969 3.048c-.874 2.858-1.754 5.714-2.625 8.574 2.258-1.834 4.507-3.679 6.762-5.515.844.59 1.718 1.144 2.546 1.753.914 2.626 1.785 5.269 2.702 7.894.918-2.632 1.799-5.279 2.721-7.909.78-.614 1.593-1.192 2.388-1.789 2.263 1.856 4.534 3.703 6.801 5.555-.838-2.904-1.689-5.804-2.534-8.706 1.322-.971 2.648-1.937 3.963-2.918-4.448-3.28-8.893-6.566-13.342-9.844-4.45 3.287-8.903 6.567-13.351 9.856ZM3.185 4.17q.529 1.994.83 4.034c1.439-1.051 2.868-2.116 4.304-3.171a54 54 0 0 0-5.134-.863m18.691.862c1.431 1.057 2.858 2.119 4.296 3.166a39 39 0 0 1 .833-4.028c-1.722.206-3.435.49-5.129.862m-3.192 14.581c-.41 1.119-.778 2.253-1.166 3.38 1.003-.642 2.137-1.046 3.273-1.385a10 10 0 0 0-.54 1.92 16.2 16.2 0 0 1 4.57-1.249c-1.551-1.259-3.096-2.525-4.644-3.789-.498.374-1.012.73-1.493 1.123m-13.37 2.655c1.593.191 3.155.617 4.625 1.26a10 10 0 0 0-.536-1.92c1.138.345 2.277.743 3.282 1.392-.351-1.074-.733-2.138-1.085-3.211-.028-.081-.055-.168-.135-.21-.519-.354-1.04-.704-1.557-1.06a1103 1103 0 0 0-4.594 3.749M6.741 9.379c.124 2.529 1.539 5.056 3.841 6.206-1.361-1.452-2.279-3.389-2.256-5.402.385-.212.763-.439 1.149-.65.311 1.055.872 2.048 1.688 2.792 1.047.976 2.481 1.499 3.907 1.495 1.361.002 2.724-.465 3.772-1.338.919-.754 1.56-1.817 1.874-2.958.384.224.773.441 1.16.662.002 2.012-.895 3.962-2.279 5.401 2.309-1.142 3.738-3.686 3.842-6.22a191 191 0 0 0-4.359-3.292c-.068.676-.094 1.355-.168 2.03-.135 1.088-.738 2.118-1.654 2.729a3.9 3.9 0 0 1-3.029.565c-1.352-.303-2.494-1.402-2.833-2.748-.218-.846-.188-1.727-.274-2.591C9.651 7.151 8.177 8.24 6.74 9.377Z"/></svg>