<svg xmlns="http://www.w3.org/2000/svg" xml:space="preserve" width="193.976" height="310.556" style="clip-rule:evenodd;fill-rule:evenodd;stroke-linejoin:round;stroke-miterlimit:2" viewBox="0 0 193.976 310.556"><path d="M96.33 310.512c-27.832.475-48.545-2.875-57.092-12.762 3.374-12.177 44.111-7.98 47.25-37.5v-30l10.5 16.5 10.5-16.5v30c3.14 29.52 43.876 25.323 47.25 37.5-8.614 9.965-29.587 13.289-57.75 12.75zM19.737 66l30 19.5 73.5 114-1.5 9 8.25 2.25c17.561 21.808 24.543 48.831 42 33.75 9.745 27.025-19.464 47.94-44.25 30 13.826-5.699 1.612-21.009-17.25-48.75l.75-10.5-9-1.5-5.25-7.5 9.14-9.14zm62.33 115.926L70.738 199.5l1.5 9-8.25 2.25c-17.562 21.808-24.543 48.831-42 33.75-9.745 27.025 19.464 47.94 44.25 30-13.827-5.699-1.612-21.009 17.25-48.75l-.75-10.5 9-1.5 5.25-7.5zM39.238 115.5l-6.75-9.75c-38.082 34.275-42.962 94.774-13.175 129.75 5.966 7.006 12.415 8.378 16.175 2.25-36.82-39.182-29.936-88.092 3.75-122.25m115.5 0 6.75-9.75c38.081 34.275 42.962 94.774 13.175 129.75-5.967 7.006-12.416 8.378-16.175 2.25 36.82-39.182 29.936-88.092-3.75-122.25m-78.75 57.75-33-50.25c-32.165 28.441-29.965 81.515-3 106.5l15.314-23.929-1.24-8.093 7.722-2.034zm42 0 33-50.25c32.165 28.441 29.964 81.515 3 106.5l-15.314-23.929 1.24-8.093-7.722-2.034zm-15.724-22.648 8.323 11.997L174.238 66l-30 19.5zm-5.135-42.607c12.055-.523 30.337-29.633 54.61-86.245-11.625-5.471-31.388-7.395-53.687-8.212l-1.064-.038c-22.734.795-42.942 2.692-54.75 8.25C66.605 78.584 84.935 107.7 96.988 108zm-.255-11.247c-9.704-.329-31.25-38.99-38.886-55.498 8.266-5.8 23.35-6.487 39-6.75l1.465.026c15.122.285 29.527 1.105 37.535 6.724-7.666 16.572-29.35 55.472-39 55.5zM84.988 126v-6C50.7 74.222 32.776 40.716 24.238 14.25 35.66 3.453 65.818 1.487 96.988 0l2.92.141c30.121 1.478 58.765 3.65 69.83 14.109-8.538 26.466-26.462 59.972-60.75 105.75v6l-12 16.5z"/></svg>