<svg xmlns="http://www.w3.org/2000/svg" width="31.97" height="15.039" viewBox="0 0 31.97 15.039"><path fill="#444" d="M31.328.404c.164-.206.456-.224.642-.404v.031a.8.8 0 0 0-.18.25c-.127.182-.364.295-.406.53l-.051.022-.096-.097c-.05.097-.073.205-.099.31.108-.063.216-.127.337-.162a.87.87 0 0 1-.422.364c-.16.064-.211.251-.354.336-.064.042-.141.069-.184.135q-.09.129-.189.248l-.065-.077c-.03.082-.054.172-.118.234-.083.036-.179.017-.261.055-.043.052-.059.12-.089.18-.042.092-.117.162-.188.232.113-.06.231-.116.333-.195.116-.087.202-.21.331-.28q.182-.098.376-.173c-.071.101-.172.175-.256.265-.062.071-.159.097-.221.166q.018.048.042.094c-.051.039-.107.072-.148.122.028.061.064.118.095.178q.082-.054.171-.094c.094-.036.14-.136.227-.182q.046.012.09.029c.12-.123.241-.247.334-.392.023-.029.042-.074.087-.07.053.006.099.035.148.056-.058.113-.178.165-.258.258a1.2 1.2 0 0 1-.286.247c-.155.082-.237.252-.398.325.035.035.076.065.104.107a.6.6 0 0 1 .03.247q-.104.017-.209.029a3 3 0 0 0-.051.173c.055-.01.113-.015.165-.042.268-.148.476-.384.743-.532a.8.8 0 0 1-.184.213l.099-.009c-.077.068-.172.126-.21.226-.048.131-.206.159-.289.261-.254.283-.613.454-.837.766q.064.032.127.067c.134-.084.236-.205.357-.304l.004.133c.155-.137.277-.309.448-.428a.9.9 0 0 0 .221-.206 1 1 0 0 1 .251-.228c.115-.082.203-.196.319-.278-.09.142-.221.249-.328.376-.069.073-.13.154-.206.218-.144.1-.314.169-.43.304-.02.072.038.155.002.228-.046.091-.122.163-.169.254-.048.099-.128.175-.196.26-.085.113-.23.147-.339.23.04.016.081.035.124.044.067-.007.125-.047.188-.072-.113.138-.216.288-.362.395-.088.06-.104.174-.178.245-.082.079-.173.148-.261.219-.114.081-.184.207-.297.29a.46.46 0 0 0-.142.214l.176-.074c-.161.203-.429.3-.549.539.155-.076.285-.195.445-.262-.071.112-.174.198-.254.304.087-.039.169-.088.255-.127a1 1 0 0 1-.234.196c-.105.061-.195.144-.291.217-.101.076-.154.2-.258.274-.242.17-.498.326-.78.421.049-.074.102-.145.145-.223-.156.048-.254.185-.381.276a1.5 1.5 0 0 1-.459.234c-.16.053-.296.155-.454.21-.119.038-.195.142-.291.214-.042-.015-.088-.097-.13-.048-.099.09-.199.179-.32.238-.287.149-.612.215-.885.392-.157.097-.347.105-.513.18a2.4 2.4 0 0 1-.688.186c-.193.021-.383.076-.579.063-.088-.002-.191-.037-.261.036-.093.053-.054.171-.093.254-.109.035-.232.027-.33.094-.097.052-.162.145-.251.206-.077.025-.159.02-.238.028-.071.152-.144.308-.26.43-.08.082-.224.091-.273.204a1.7 1.7 0 0 0-.105.352c-.025.139-.111.254-.172.379l.111.046-.122.126-.008-.119-.073.004c-.009.088-.008.181-.05.262-.052.095-.154.148-.211.24-.063.105-.086.228-.145.336-.047.084-.123.143-.195.203a2.4 2.4 0 0 0-.299.313c-.074.085-.13.189-.227.252-.099.066-.144.181-.206.277q.062-.023.125-.043a.7.7 0 0 1-.191.217c-.185.135-.284.359-.474.488q-.01-.12-.014-.24-.101.068-.204.131.029-.09.061-.177c-.098.158-.155.342-.281.482-.096.047-.126.158-.193.233-.052.066-.132.099-.197.149-.053.038-.072.104-.102.16l-.073.005.011-.132q-.023.078-.043.155c-.007.086-.122.087-.176.133.015-.134.045-.267.104-.388.106-.226.131-.482.262-.697.151-.329.301-.66.408-1.006.131-.411.259-.823.345-1.246.037-.184.119-.355.153-.539.035-.183-.005-.37.019-.554.021-.221.11-.427.156-.642.017-.125.16-.191.161-.319-.009-.152-.056-.3-.078-.45.002-.115.023-.23.003-.344-.01-.092-.048-.179-.049-.271.034-.118.082-.232.112-.351l-.076.16c-.042-.165-.027-.335-.034-.503-.003-.1-.049-.189-.088-.279-.04-.086-.015-.182-.012-.273l-.082.038a2 2 0 0 1-.014-.312c.005-.114-.142-.169-.124-.288.01-.215-.01-.429-.024-.643-.005-.095-.044-.183-.079-.27.077-.07.163-.139.202-.239-.003-.144-.135-.251-.129-.397.008-.141.112-.247.185-.358.2-.322.574-.476.928-.559.103-.014.169-.096.247-.153.118-.021.238-.005.358-.014.469-.026.908-.207 1.355-.335.418-.114.851.033 1.272-.05.832-.164 1.635-.448 2.463-.629.298-.064.583-.179.849-.326.135-.074.239-.194.383-.255.123-.052.232-.13.344-.2-.034.128-.081.253-.097.385.088-.034.18-.085.214-.179.026-.086.01-.178.027-.266.093-.047.207-.023.3-.075.04-.02.077-.05.12-.064.063-.006.133.017.19-.023.143-.079.214-.231.317-.35.062-.074.159-.095.244-.131.202-.079.361-.235.555-.329-.16.173-.38.287-.507.492.08 0 .173.026.243-.027.064-.048.134-.095.178-.164.008-.054.004-.109.005-.163l.085-.022.048.094q.072-.09.154-.173c.004.104.017.209-.003.313q.111-.13.236-.249c.044-.046.1-.092.104-.162a.7.7 0 0 1 .059-.22l.047.12q.092-.047.182-.1c.054.062.116.12.195.149.019-.1.025-.205.076-.296l.138.06q-.063.11-.129.219c.133-.097.292-.146.447-.195-.109.097-.228.182-.323.294.232-.109.472-.234.625-.446a.7.7 0 0 1 .257-.197c.106-.058.185-.152.265-.24ZM.006.663v.044c.201.291.503.489.815.644.147.068.26.191.41.255.328.143.677.257.965.475-.184-.063-.355-.165-.548-.2-.047-.013-.086.023-.126.042-.097.068-.215-.009-.323.017.147.115.328.175.473.292.09.069.15.169.237.24.063.057.141.11.163.197-.018.053-.07.082-.122.093-.133-.063-.143-.24-.265-.317a.45.45 0 0 0 .054.225c.087.17.296.225.386.395l-.184.033c.188.136.437.19.582.382-.113.013-.22-.029-.33-.049-.1-.015-.166-.108-.266-.124a1 1 0 0 1-.282-.116c-.074-.047-.165-.039-.248-.046a.34.34 0 0 0-.216-.158c.057.262.255.451.412.655l.033-.153c.047.034.103.061.138.108.021.047.032.097.047.146.061.004.13-.011.184.027.149.096.307.186.425.322.061.076.165.099.223.178q.085.104.165.212c-.215-.044-.4-.194-.627-.185.059.083.143.146.199.232.13.213.339.37.439.602.03.069-.054.1-.094.139l-.151-.119c-.037.013-.073.03-.112.037-.068-.053-.11-.133-.179-.184-.056-.029-.118-.041-.177-.06.029-.098.079-.188.124-.279-.066.014-.13.043-.197.05-.08.001-.176-.064-.241.008-.061.054-.057.142-.064.216q.11-.014.221-.036c-.004.141-.041.323.095.417.206.12.441.229.571.438-.02.04-.052.071-.079.105.095.061.201.102.299.159.28.175.533.389.794.591.2.154.367.345.514.548l-.189-.026c.213.251.495.43.727.662.111.109.182.27.336.328.303.121.602.267.842.492.082.069.148.156.229.226.094.064.214.059.32.086.11.024.172.141.286.155.105.016.21.043.3.102.222.137.456.254.682.384.206.115.412.232.625.333.105.051.219.078.334.091.136.013.254.088.383.125.217.066.441.105.659.168.168.049.347.058.508.131q.327.147.665.263c.102.035.216.035.31.092.194.119.361.277.526.432.163.157.332.314.444.514.069.132.21.2.296.317.087.116.169.237.271.341l-.041-.122.05-.058c.094.112.268.125.333.264.072.12.127.248.185.375.084.181.249.303.4.426.325.254.661.497 1.025.692q-.027-.08-.052-.161c.156.052.295.14.441.211.139.068.268.155.388.252s.246.191.397.233a2 2 0 0 0-.104-.259c-.062-.134-.096-.278-.143-.417-.035-.107-.079-.212-.101-.322-.021-.106-.039-.215-.09-.312-.067-.124-.086-.271-.177-.381a3.7 3.7 0 0 1-.417-.621c-.105-.182.008-.41-.103-.591-.159-.274-.27-.571-.388-.864a2 2 0 0 1-.141-.508c-.019-.186-.199-.303-.218-.489-.024-.226-.121-.438-.123-.668-.003-.337-.05-.672-.038-1.009-.003-.29.174-.535.256-.803.056-.213-.034-.423-.079-.629l.114.042c.018-.091.042-.187.01-.277-.027-.098-.104-.181-.1-.286.004-.079-.011-.156-.025-.233-.018-.083.045-.154.057-.234-.039-.076-.127-.103-.194-.146-.004-.044-.002-.089-.014-.131-.082-.064-.186-.089-.271-.149-.042-.059-.05-.139-.103-.192-.141-.154-.331-.252-.52-.335-.181-.118-.422-.019-.599-.147-.074-.055-.168-.064-.251-.098-.105-.061-.196-.144-.303-.199-.147-.073-.334.019-.467-.091-.02-.065-.019-.135-.039-.2-.161-.035-.326.011-.488.019-.275.032-.551.021-.827.039-.207.011-.421.024-.62-.044a2 2 0 0 0-.367-.086c-.198-.026-.404-.005-.596-.07-.157-.053-.311-.115-.475-.144l-.034.087c-.268-.022-.504-.159-.762-.22a2.4 2.4 0 0 1-.415-.143c-.155-.068-.303-.158-.47-.193q.066.094.137.184a1.4 1.4 0 0 1-.264-.22c-.092-.101-.23-.132-.354-.176-.258-.089-.519-.168-.773-.268l-.647-.259a6 6 0 0 1-1.227-.585c-.121-.071-.2-.191-.305-.28-.064-.056-.154-.043-.232-.055-.124-.013-.228-.088-.328-.156-.077-.053-.173-.062-.258-.094-.125-.045-.236-.117-.351-.183.168.2.391.342.59.509a.8.8 0 0 1 .151.165c-.155-.056-.286-.159-.436-.226-.119-.053-.221-.135-.339-.188l-.064.047c-.154-.076-.313-.14-.469-.211-.087-.038-.154-.11-.24-.15C.694 1.017.591 1.016.504.968.335.868.164.771 0 .661Zm29.163.473c.092-.006.148-.072.155-.162a.5.5 0 0 0-.155.162m1.693 1.432q.103.052.201.109c.036-.037.089-.065.1-.12q.039-.174.091-.346c-.154.091-.271.227-.392.356ZM.341 2.372l-.006.132c.064.054.127.111.204.145a.53.53 0 0 0-.198-.277m.28.185c-.036.036-.036.1.011.128.101.061.211.108.318.156-.042-.063-.104-.107-.163-.152-.057-.042-.102-.1-.165-.132Zm-.405.237a.48.48 0 0 0 .162.313l.105-.034a.47.47 0 0 0-.267-.279m.676 1.257c-.035.066-.077.147-.035.221.031.047.054.113.111.132.093-.004.185-.023.277-.039a1 1 0 0 0-.13-.112c-.083-.058-.143-.141-.222-.202Zm1.156.13c.017.069.081.084.143.086.007-.087-.081-.083-.143-.086m.135.65a.7.7 0 0 0 .295.156c-.007-.057-.009-.116-.024-.171-.049-.04-.102-.074-.15-.115q-.062.064-.12.13zm27.705.594c.123-.033.269-.111.277-.254-.128.033-.22.14-.277.254M1.114 5.238a.17.17 0 0 0 .092.103l.004-.105Zm.244.148c.012.071.081.096.141.117a.23.23 0 0 0-.141-.117m28.068.772c.139-.087.276-.189.372-.324-.139.087-.276.19-.372.324m-15.511 1.56c-.015.112-.01.226-.026.338-.018.133-.022.285.07.395.013-.104.01-.212.04-.314.018-.072.05-.142.047-.217a.4.4 0 0 0-.131-.202m.027 1.496c.003.125.039.245.066.366.026.107.046.218.102.315a2.8 2.8 0 0 0-.168-.681m.744 1.811c-.031.126.002.286.134.339q-.062-.172-.134-.339m.092.373c.047.173.136.332.219.49a2.3 2.3 0 0 0-.122-.383c-.017-.048-.058-.079-.097-.108zm.202.528a.6.6 0 0 0 .16.266c-.034-.097-.065-.211-.16-.266m.198.362c-.022.028.004.076.039.075.053-.013.003-.111-.039-.075m.005.139q.065.084.138.162l-.04-.157z"/></svg>