<svg xmlns="http://www.w3.org/2000/svg" xml:space="preserve" width="185.141" height="184.968" style="clip-rule:evenodd;fill-rule:evenodd;stroke-linejoin:round;stroke-miterlimit:2" viewBox="0 0 185.141 184.968"><path d="M91.973 184.966C41.156 184.644 0 143.289 0 92.396c0-22.187 7.823-42.564 20.857-58.51l43.692 54.85a29 29 0 0 0-.235 3.662c0 15.595 12.662 28.256 28.257 28.256l.364-.002c15.427-.195 27.891-12.78 27.891-28.254q-.001-1.86-.235-3.661l43.694-54.851c13.033 15.947 20.856 36.323 20.856 58.512 0 51.09-41.48 92.57-92.57 92.57zM54.318 8.086l20.778 62.11a28.4 28.4 0 0 0-7.632 9.228L30.151 24.06A92.8 92.8 0 0 1 54.32 8.086m76.504 0-20.78 62.11a28.4 28.4 0 0 1 7.632 9.228l37.315-55.364a92.8 92.8 0 0 0-24.167-15.974M86.829.002l2.569 64.315a28 28 0 0 0-7.139 1.767L67.346 3.311A92.2 92.2 0 0 1 86.829.001m11.483 0-2.568 64.315c2.49.279 4.885.882 7.138 1.767L117.795 3.31A92.2 92.2 0 0 0 98.311 0"/></svg>