<svg xmlns="http://www.w3.org/2000/svg" xml:space="preserve" width="347.72" height="387.035" style="clip-rule:evenodd;fill-rule:evenodd;stroke-linejoin:round;stroke-miterlimit:2" viewBox="0 0 347.72 387.035"><path d="M341.482 269.789c-16.833 40.206-50.35 60.271-100.4 60.271-9.169 0-19.163 1.127-29.835 3.457-16.082 3.457-24.123 8.266-24.123 14.353 0 1.879 1.353 4.134 3.983 6.614 2.705 2.48 4.96 3.757 6.914 3.757-9.544 0-3.081.301 19.539.827 22.62.601 36.748.826 42.46.826-33.292 19.539-88.978 28.482-167.059 26.979-25.626-.375-47.645-11.648-65.982-33.892C8.943 331.939 0 308.417 0 282.415c0-27.505 9.244-50.952 27.881-70.341 18.562-19.313 41.633-29.008 69.138-29.008 6.087 0 14.279 1.353 24.424 3.983 10.145 2.706 16.909 3.983 20.365 3.983 14.129 0 31.789-5.862 52.831-17.51s31.037-17.51 29.835-17.51c-3.833 40.205-17.21 67.184-40.206 80.937-16.458 9.544-24.649 18.938-24.649 28.106 0 5.711 3.457 10.371 10.296 13.752q8.003 4.059 17.81 4.059c9.92 0 19.69-6.088 29.309-18.337 9.544-12.25 13.752-23.372 12.625-33.292-1.127-11.498-.376-25.25 2.33-41.332q1.127-6.876 8.341-16.909c4.81-6.688 9.093-10.822 12.926-12.325 0 3.457-1.202 9.169-3.757 17.21-2.48 8.041-3.758 13.978-3.758 17.81 0 8.417 2.255 14.955 6.914 19.539 6.914-2.705 13.001-11.272 18.337-25.851 4.584-11.122 7.289-21.794 8.041-32.164-16.083-.752-31.488-8.042-46.218-21.794-14.729-13.752-22.094-28.707-22.094-44.789 0-2.706.376-5.336 1.127-8.042 2.255 3.457 5.712 8.793 10.296 16.083 6.538 9.544 11.498 14.353 14.955 14.353 4.584 0 6.914-4.809 6.914-14.353 0-12.25-3.232-23.372-9.77-33.292-7.289-11.874-16.683-17.811-28.106-17.811-5.336 0-13.377 2.856-24.123 8.643-10.747 5.711-20.516 8.642-29.309 8.642q-4.058 0-35.621-10.371c37.124-6.087 55.686-11.648 55.686-16.608 0-13.001-25.476-21.793-76.352-26.378-4.96-.375-14.128-1.127-27.58-2.329q2.254-2.818 32.69-6.313C118.737.977 130.837 0 137.675 0c91.082 0 148.873 44.189 173.372 132.64 4.208-3.456 6.312-9.318 6.312-17.434 0-10.446-3.081-23.673-9.168-39.605-2.33-6.162-5.937-15.48-10.897-27.955 31.338 39.98 47.044 77.855 47.044 113.627 0 18.862-4.434 35.921-13.226 51.327-5.712 10.371-16.458 23.672-32.165 39.83-15.706 16.157-26.377 28.632-32.164 37.5 21.042-5.712 34.87-10.146 41.333-13.227 14.504-6.463 27.73-16.232 39.604-29.308 0 4.96-2.104 12.475-6.313 22.394M91.232 44.189c0 6.914-3.832 11.272-11.498 13.226l-14.954 2.33c-5.336 2.705-13.227 13.226-23.522 31.563q-1.691-8.568-5.186-24.123c-3.457.375-9.168 3.457-17.209 9.168-3.457 2.705-9.018 6.688-16.683 12.024 2.329-13.752 9.919-27.73 22.995-41.934C38.928 30.737 52.38 22.921 65.381 22.921c17.209 0 25.851 7.064 25.851 21.268m99.875 52.83c0 6.538-3.532 11.949-10.596 16.383s-14.053 6.613-20.967 6.613c-9.168 0-17.435-5.185-24.649-15.481-8.793-12.625-17.811-20.816-26.979-24.724 1.879-1.879 4.208-2.856 6.914-2.856 3.456 0 9.243 2.706 17.51 8.041 8.191 5.336 13.451 8.041 15.781 8.041 1.879 0 5.035-2.705 9.469-8.041 4.434-5.335 9.243-8.041 14.654-8.041q18.938 0 18.938 20.065" style="fill-rule:nonzero"/></svg>