<svg xmlns="http://www.w3.org/2000/svg" xml:space="preserve" width="175.5" height="313.5" style="clip-rule:evenodd;fill-rule:evenodd;stroke-linejoin:round;stroke-miterlimit:2" viewBox="0 0 175.5 313.5"><path d="M87.32 313.492c-18.179-.434-34.756-10.871-40.07-27.742 15.284 5.422 24.596-11.206 24.55-18.849-.049-7.909-7.762-15.031-23.409-15.235-10.898-.142-29.19 4.138-43.141 16.084-2.906-2.764-5.162-5.943-5.25-10.5l27.75-34.5-3.75 19.5c7.503-.534 9.22-9.716 36.75-31.5l-4.5 25.5H63c9.573-38.088 18.956-76.164 24.75-114l.136.887c5.804 37.543 15.116 75.322 24.614 113.113h6.75l-4.5-25.5c27.53 21.784 29.247 30.966 36.75 31.5l-3.75-19.5 27.75 34.5c-.088 4.557-2.344 7.736-5.25 10.5-13.951-11.946-32.243-16.226-43.141-16.084-15.647.204-23.36 7.326-23.409 15.235-.046 7.643 9.266 24.271 24.55 18.849-5.355 17.004-22.152 27.471-40.5 27.75zm.839-12.016c8.565-.544 14.992-2.987 19.091-7.476-4.663-.536-7.791-3.346-9-9-.59 6.697-4.651 9.142-10.233 9.724l-.267.026c-5.719-.532-9.9-2.947-10.5-9.75-1.209 5.654-4.337 8.464-9 9 4.164 4.56 10.73 7.008 19.5 7.5zm-.302-43.78c2.284-6.369 6.848-11.2 13.393-14.696l-13.5-13.5-13.5 13.5c6.648 3.551 11.253 8.481 13.5 15zm-.233-154.946c-10.704.068-19.374 8.78-19.374 19.5 0 6.72 3.407 12.651 8.585 16.157L76.5 139.5l-9 42 6.75 3-3 10.5c-19.232-6.808-33.002-18.936-39.177-38.461-2.077-6.567-5.545-8.72-9.573-17.039v-35.25l6-7.5v-10.5c.357-2.559 3.869-4.078 5.835-4.09 4.813-.03 10.851 6.721 10.665 9.34V129l7.5 12c1.736.383 2.383-.484 2.25-2.25l-4.5-7.5V24.75c.163-6.041 6.161-9.055 11.249-9.089 4.417-.029 10.166 3.013 10.501 9.089V82.5c1.257 2.13 2.54 2.065 3.846 0V11.904C76.877 4.644 80.542.336 87.75 0l.168.009C95.015.403 98.631 4.7 99.654 11.904V82.5c1.306 2.065 2.589 2.13 3.846 0V20.25c.335-6.076 6.084-9.118 10.501-9.089 5.088.034 11.086 3.048 11.249 9.089V96c.987 1.747 1.987 1.733 3 0V49.5c.908-4.933 5.588-8.285 9.544-8.259 3.794.025 8.362 3.194 9.206 8.259v84.75c-1.105 33.054-17.05 51.653-42.75 60.75l-3-10.5 6.75-3-9-42-.335-1.093c5.178-3.506 8.585-9.437 8.585-16.157 0-10.72-8.67-19.432-19.374-19.5z"/></svg>