<svg xmlns="http://www.w3.org/2000/svg" width="31.872" height="32.001" viewBox="0 0 31.872 32.001"><path fill="#444" d="M11.622 0c.49.26 1.058.479 1.349.986.174.3.408.557.682.767.357-.243.797-.365 1.085-.702.215-.228.472-.409.727-.589l.01.171q.327.02.652.054l.176.252q.144-.189.292-.375c.245.039.509.04.727.175.174.092.336.253.548.18.119.142.22.347.441.273q.014.406.031.811c.399.017.797-.034 1.196-.046.538-.034.999.31 1.529.34.57.057 1.027.433 1.559.605.476.153.917.419 1.423.469.539.054.905.515 1.42.641.421.113.81.32 1.229.44.595.117 1.013.597 1.533.872a8.7 8.7 0 0 1 1.486 1.054c.582.436 1.157.906 1.558 1.522.193.446.477.881.473 1.383-.006.5.053.995.124 1.487-.246.073-.356.33-.531.495a4.2 4.2 0 0 0 .018 1.089c-.249-.203-.515-.404-.843-.45l-.038.371-.367-.155c.054.168.123.331.197.491a32 32 0 0 0-.758-.12l-.146.152-.541-.052.195.216a1.6 1.6 0 0 0-.429.286c-.493.092-.909-.211-1.317-.435-.539-.295-.959-.782-1.547-.993-.68-.235-1.29-.654-1.797-1.161-.572-.693-1.446-1.101-2.328-1.194-.136-.051-.264-.124-.393-.19-.787.1-1.384-.531-2.051-.833.105.778.288 1.548.492 2.305.274.55.265 1.175.445 1.752.177.544.137 1.129.295 1.678.123.587.532 1.07.625 1.667.232 1.099.221 2.23.436 3.332.096.427.238.855.204 1.299-.008.824-.35 1.586-.61 2.351l.224.008c-.235.362-.481.728-.833.989.284.303.679.447 1.064.577l-.262.098c.333.093.672.181 1.022.18.6.014 1.227.162 1.807-.058.391-.147.827-.124 1.204-.312.372-.183.701-.45 1.102-.574.449-.129.712-.545 1.06-.824-.257.495-.645.903-1.009 1.32-.733.783-1.924.844-2.645 1.646l-.101-.211c-.356.271-.8.529-.876 1.015a2.03 2.03 0 0 1-.944.585c-.705.39-1.444.716-2.174 1.055l.248-.008c-.432.331-.747.779-1.088 1.196-.31-.07-.643-.108-.913-.282-.37-.316-.674-.701-.974-1.082.05.537.144 1.084.366 1.577.373.608.67 1.26 1.072 1.849l-.054.227q.108.177.211.359c-.31-.104-.613-.253-.826-.509-.652-.745-1.102-1.689-1.938-2.261-.437-.297-.732-.744-1.108-1.105-.299.19-.643.288-.999.253l.001-.472c-.138.068-.27.244-.441.173a4.3 4.3 0 0 0-1.001-.156c-.387-.015-.737-.194-1.078-.358-.365-.178-.772-.234-1.168-.296.02-.286-.232-.455-.399-.644-.591-.705-1.335-1.258-2.064-1.808-.593-.382-1.171-.79-1.684-1.276l.25.006c-.324-.448-.678-.879-.911-1.385.563.403 1.046.911 1.649 1.262.763.45 1.505.977 2.367 1.217l.055-.362c.554.194 1.168.342 1.747.16.314.12.647.16.98.103-.08-.703-.788-1.054-1.075-1.652-.249-.499-.608-.928-.882-1.411l.435-.009c-.076-.494-.083-.997-.206-1.484a19.7 19.7 0 0 1-.304-4.42c.118-.981.206-1.966.235-2.954l-.257.13c.326-.904.334-1.867.506-2.802.084-.532.322-1.022.429-1.548-.574.158-1.188.111-1.746.323l-.171-.1c-.721.081-1.163.723-1.713 1.123l.086-.381c-.064-.062-.189-.187-.253-.248-.5.122-1.04.165-1.48.46-.262.175-.506.376-.769.551l.089-.319c-.596.286-.997.851-1.625 1.085l.138-.329c-.473.273-.881.677-1.431.796l-.088-.376-.319.108.073-.3c-.34.215-.635.49-.935.754.3-.387.627-.755.955-1.118-.541.417-1.242.606-1.67 1.166.215-.428.367-1.036.875-1.192.168-.2.321-.413.475-.623-.262.16-.518.377-.844.365-.187.132-.366.276-.55.414.559-.888 1.3-1.675 2.193-2.23.37-.302.71-.638 1.083-.936l.267.026q.287-.4.584-.794c-.403.145-.812.276-1.202.454-.418.183-.72.536-1.076.807.328-.673.937-1.131 1.505-1.59.636-.58 1.307-1.129 2.034-1.589.416-.152.778-.405 1.162-.618.407-.233.91-.261 1.275-.569.327-.28.714-.526.898-.932.673-.106 1.364-.14 2.015-.359.287-.097.588-.142.887-.185.293-.355.818-.21 1.22-.26-.165-.734-.692-1.278-1.218-1.775Zm4.28 10.39c-.214.494-.246 1.043-.293 1.573-.037.454-.229.872-.361 1.303-.187.57-.262 1.173-.273 1.772-.014.506-.16.995-.244 1.493l.267-.22c-.087.968-.159 1.938-.131 2.91-.056.936.207 1.843.417 2.743.033.169.117.32.219.457.129.354.296.694.387 1.061.504-.919.986-1.876 1.159-2.922.401-1.393.541-2.878.293-4.309-.08-.734-.048-1.473-.052-2.21.045-1.006-.206-1.996-.177-3.004-.116-.596-.271-1.195-.518-1.752-.186.395-.475.727-.693 1.103z"/></svg>