<svg xmlns="http://www.w3.org/2000/svg" width="112.5" height="143.5"><path d="M45.5 60.5v6.938c-3.68.58-7.17 1.711-10.375 3.344l-4.062-5.594-8.907 6.469 4.063 5.625a35.1 35.1 0 0 0-6.407 8.812l-6.593-2.156-3.375 10.469 6.594 2.125A35.4 35.4 0 0 0 16 102c0 1.856.159 3.69.438 5.468l-6.594 2.125 3.375 10.47 6.594-2.157a35.1 35.1 0 0 0 6.406 8.812l-4.063 5.625 8.907 6.47 4.062-5.595a34.7 34.7 0 0 0 10.375 3.344v6.938h11v-6.938c3.68-.58 7.17-1.71 10.375-3.344l4.063 5.594 8.906-6.469-4.063-5.625a35.1 35.1 0 0 0 6.406-8.812l6.594 2.156 3.375-10.469-6.594-2.125c.279-1.778.438-3.612.438-5.468 0-1.857-.159-3.69-.437-5.47l6.593-2.124-3.375-10.469-6.594 2.156a35.1 35.1 0 0 0-6.406-8.812l4.063-5.625-8.906-6.469-4.063 5.594A34.7 34.7 0 0 0 56.5 67.438v-6.937ZM51 92c5.523 0 10 4.478 10 10s-4.477 10-10 10-10-4.477-10-10 4.477-10 10-10"/><path d="M91 0v17.313l-7.5-6.812-16.5 15s.045 2.712 6 4.28v21.72H62.5v-33L69 13V1h-9v4.5h-5.5V1h-10v4.5H39V1h-9v12l6.5 5.5v33H26V39.53c6.989-1.508 7-4.53 7-4.53L16.5 20 0 35s.011 3.022 7 4.53V51.5H1V103h11.063a10 10 0 0 1-.063-1c0-.899.157-1.747.219-2.625L4.813 97l5.843-18.125 7.406 2.437a39 39 0 0 1 3.063-4.219l-4.562-6.343 15.375-11.157 4.593 6.282a38.5 38.5 0 0 1 4.969-1.594V56.5h19v7.78c1.705.425 3.357.952 4.969 1.595l4.594-6.282L85.437 70.75l-4.562 6.343a39 39 0 0 1 3.063 4.22l7.406-2.438L97.188 97l-7.407 2.375c.062.878.219 1.726.219 2.625 0 .342-.031.668-.062 1H100V51.5h-6V29.78c5.955-1.568 6-4.28 6-4.28l-6-5.47V9.314c.686.332 1.623.617 2.844.563 2.765-.124 5.64-4.983 9.812-5.032 4.173-.048 5.839-1.586 5.844-2.093-3.408-.927-2.852-2.695-5.906-2.75-3.055-.055-4.348 3.456-8.406 3.437-1.931-.009-3.28-.515-4.188-1.031V0Z"/></svg>