<svg xmlns="http://www.w3.org/2000/svg" xml:space="preserve" width="86.443" height="86.426" overflow="visible" viewBox="0 0 86.443 86.426"><path fill="#231f20" d="M29.431 43.212c0-7.603 6.185-13.791 13.79-13.791s13.792 6.188 13.792 13.792c0 7.606-6.187 13.79-13.791 13.79-7.606 0-13.791-6.184-13.791-13.79m37.847 24.06-12.27-8.967-.231 4.922-4.154-2.145-1.419 4.455-3.31-3.016-2.674 23.904-2.674-23.908-3.305 3.009-1.42-4.453-4.153 2.146-.232-4.923-12.271 8.965 8.966-12.27-4.923-.231 2.147-4.154-4.454-1.419 3.01-3.306L0 43.208l23.91-2.674-3.01-3.305 4.453-1.42-2.147-4.154 4.924-.23-8.965-12.273 12.27 8.967.23-4.924 4.154 2.147 1.42-4.454 3.31 3.016L43.223 0l2.675 23.908 3.305-3.012 1.42 4.454 4.152-2.143.232 4.92 12.27-8.965-8.965 12.272 4.922.23-2.145 4.152 4.452 1.42-3.008 3.305 23.91 2.675-23.91 2.676 3.01 3.304-4.454 1.42 2.147 4.154-4.924.23Zm-24.056-8.209c8.74 0 15.851-7.11 15.851-15.851s-7.11-15.852-15.851-15.852c-8.742 0-15.852 7.11-15.852 15.852s7.11 15.851 15.852 15.851"/></svg>