<svg xmlns="http://www.w3.org/2000/svg" width="18.119" height="32.001" viewBox="0 0 18.119 32.001"><path fill="#444" d="M18.06 15.976c.018-1.745-.536-3.507-1.623-4.874-.525-.578-.957-1.237-1.513-1.783-1.226-1.217-3.06-1.298-4.538-2.064-.086-.77-.367-1.54-.197-2.316.052-.258.128-.52-.009-.767-.387-.892-.055-1.861-.123-2.791C10.005.895 10.038.3 9.577 0c-.109 1.011-.48 1.952-.782 2.912-.139.748-.139 1.527-.46 2.232.203.715-.2 1.316-.64 1.844-.969.496-2.12.614-2.964 1.342-.6.51-1.25.957-1.923 1.372-.505.631-1.063 1.24-1.288 2.038C.618 12.829.512 14.291 0 15.566c-.01 1.894.374 3.932 1.584 5.45.865.714 1.47 1.675 2.334 2.39.83.495 1.715.902 2.571 1.348.558.13 1.135.194 1.69.346.451 2.321.758 4.699 1.663 6.901.3-.904.264-1.872.523-2.786.365-1.351-.384-2.756.038-4.082.633-.566 1.688-.198 2.39-.684 1.336-.824 2.75-1.626 3.72-2.887.36-.725 1.118-1.266 1.118-2.135.006-1.171.69-2.267.428-3.45zM8.14 23.137c-.968-.235-1.87-.698-2.682-1.264-.874-.582-1.2-1.669-2.062-2.264-.807-.964-.633-2.28-.963-3.421.133-.796.29-1.586.372-2.392.394-.639 1.001-1.148 1.17-1.917.577-.827 1.456-1.399 2.161-2.116.513-.592 1.33-.342 2.005-.365-.067.653-.12 1.328.043 1.973.08.396.258.786.197 1.2-.135.881.196 1.765-.038 2.636-.47 1.821.043 3.66.088 5.496-.067.813-.105 1.633-.29 2.433zm7.34-3.451c-.64.456-1.188 1.016-1.747 1.562-.973.673-1.934 1.385-3.092 1.721.105-.826.206-1.675-.057-2.484-.646-1.827.146-3.737.28-5.584-.119-1.098-.006-2.27-.51-3.281-.066-.76.263-1.494.485-2.209a7.8 7.8 0 0 1 2.121 1.247c.77.576 1.946.95 2.118 2.024.088.706.86 1.132.838 1.854-.048 1.716.188 3.511-.437 5.149z"/></svg>