<svg xmlns="http://www.w3.org/2000/svg" xml:space="preserve" width="430.084" height="432.338" style="clip-rule:evenodd;fill-rule:evenodd;stroke-linejoin:round;stroke-miterlimit:2" viewBox="0 0 430.084 432.338"><path d="M429.934 247.995c-29.609-16.683-48.547-25.025-56.889-25.025q-9.13 0-14.203 13.978c-3.382 9.319-10.221 13.903-20.441 13.903-4.208 0-12.7-1.503-25.626-4.509-7.215 10.972-10.822 18.036-10.822 21.042 0 4.208 3.081 9.093 9.319 14.804 6.237 5.712 11.423 8.492 15.706 8.492 2.706 0 6.388-.526 11.047-1.728 4.659-1.127 7.741-1.729 9.319-1.729 4.659 0 6.989 8.568 6.989 25.627 0 16.307-3.758 41.332-11.348 75.075-9.845-38.703-20.29-58.016-31.262-58.016-1.503 0-4.66 1.127-9.394 3.457-4.735 2.254-8.267 3.381-10.521 3.381-10.972 0-20.817-10.07-29.609-30.135-17.435 2.63-26.153 11.573-26.153 26.754 0 7.59 3.532 13.677 10.521 18.186 6.989 4.584 10.521 7.816 10.521 9.694 0 10.221-14.954 26.002-44.939 47.195-15.932 11.347-26.904 19.313-32.991 23.897 5.26-6.838 10.596-15.706 15.932-26.753 6.087-12.475 9.093-22.169 9.093-29.008 0-3.758-4.359-9.093-13.076-15.932q-13.076-10.258-13.076-21.643c0-6.463 2.254-14.429 6.838-23.898-4.96-5.711-10.821-8.567-17.66-8.567-15.18 0-22.771 4.96-22.771 14.805v15.33c.376 12.55-9.093 18.788-28.481 18.788-14.805 0-39.605-3.457-74.549-10.221 39.453-9.844 59.143-21.267 59.143-34.118 0 1.503-.752-3.006-2.255-13.677-1.503-11.724 6.839-22.395 25.025-31.864q-5.073-26.152-27.279-26.152c-2.255 0-6.463 3.983-12.475 11.949-6.087 7.966-11.724 11.949-17.059 11.949-9.093 0-20.892-9.845-35.246-29.609-6.838-9.845-17.284-24.424-31.262-43.813 8.717 4.584 17.435 9.093 26.152 13.677 11.348 5.336 20.516 7.966 27.28 7.966 5.335 0 10.521-4.659 15.631-13.978s11.874-13.978 20.215-13.978c1.127 0 8.718 2.255 22.771 6.839 7.214-10.972 10.821-19.163 10.821-24.499 0-4.584-2.78-9.769-8.266-15.631q-8.229-8.793-15.105-8.793c-1.879 0-4.81.602-8.793 1.729s-6.914 1.728-8.792 1.728c-6.839 0-10.221-8.567-10.221-25.626 0-4.584 4.359-30.511 13.076-77.931-.376 5.712 2.104 16.308 7.365 31.864 6.463 18.938 14.053 28.482 22.77 28.482 1.503 0 4.585-1.127 9.094-3.382 4.584-2.254 8.116-3.382 10.821-3.382 8.718 0 15.932 4.96 21.643 14.805l8.568 15.331c7.965 0 14.579-2.856 19.914-8.492 5.336-5.712 7.966-12.55 7.966-20.516 0-8.342-3.532-14.73-10.521-19.088-7.064-4.359-10.521-7.666-10.521-9.92 0-7.966 12.55-21.418 37.575-40.356C229.508 11.573 242.66 2.705 248.672 0c-16.308 22.019-24.499 38.101-24.499 48.321 0 5.336 3.231 10.972 9.694 17.059 7.966 7.215 12.55 12.325 13.677 15.331q5.637 13.076-1.127 35.846c10.221 7.215 18.036 10.822 23.297 10.822 10.972 0 16.458-5.711 16.458-17.059 0-1.127-.451-4.734-1.428-10.822s-1.203-9.469-.827-10.22c1.503-5.336 11.949-7.966 31.263-7.966 12.174 0 37.349 3.382 75.676 10.22-8.342 2.255-20.892 5.712-37.575 10.221q-22.771 6.876-22.771 15.331c0 2.63.977 7.214 2.856 13.677s2.856 11.197 2.856 14.203c0 5.336-3.382 10.221-10.221 14.805l-19.313 13.677c4.584 8.342 7.59 13.302 9.093 14.805 3.757 4.584 8.943 6.838 15.33 6.838 4.585 0 8.718-3.983 12.55-11.949 3.758-7.965 9.845-11.948 18.187-11.948 10.22 0 21.793 9.469 34.719 28.482 7.215 10.671 18.412 26.753 33.517 48.396m-126.252-32.991c0-24.273-8.943-45.315-26.754-63.126-17.81-17.81-38.852-26.753-63.126-26.753-24.649 0-45.916 8.792-63.727 26.453-17.811 17.66-26.904 38.777-27.28 63.426-.375 24.274 8.643 45.241 27.055 62.826 18.411 17.66 39.754 26.453 64.027 26.453 25.777 0 47.345-8.417 64.554-25.326 17.285-16.834 25.702-38.176 25.326-63.953m-8.567 0c0 23.147-7.741 42.31-23.297 57.415-15.556 15.18-34.869 22.77-58.016 22.77-22.394 0-41.558-7.74-57.414-23.296-15.932-15.556-23.898-34.494-23.898-56.889 0-22.019 8.041-40.881 24.198-56.588 16.158-15.706 35.171-23.597 57.19-23.597s41.032 7.966 57.189 23.898c16.082 15.932 24.198 34.719 24.198 56.287" style="fill-rule:nonzero"/></svg>