<svg xmlns="http://www.w3.org/2000/svg" width="17.838" height="32.002" viewBox="0 0 17.838 32.002"><title>planeswalker</title><path fill="#444" d="M8.917 0c.041.076.047.163.063.246.066.441.091.886.125 1.33.076 1.183.137 2.367.211 3.55.125 1.934.268 3.87.548 5.79.137.906.3 1.812.577 2.686.367.027.734.054 1.1.094.181-.535.27-1.095.363-1.651q.123-.78.217-1.563c.249-2.039.423-4.086.611-6.131.043-.421.071-.845.14-1.263.035.09.043.188.058.283.041.286.071.574.102.861.197 1.912.37 3.827.616 5.734a43 43 0 0 0 .405 2.616c.112.566.232 1.134.434 1.677.34.104.678.218 1.005.358.103-.235.18-.48.252-.726.183-.638.31-1.291.42-1.944.239-1.41.379-2.834.566-4.252.049-.323.082-.652.184-.964.05.134.065.277.088.417.09.64.152 1.284.216 1.927.065.699.135 1.397.187 2.096l.008-.032c-.001.098.009.196.019.294q.216 2.528.406 5.058c-.959.363-1.866.861-2.695 1.463a12.9 12.9 0 0 0-2.876 2.916 15 15 0 0 0-1.969 3.791c-.596 1.696-.933 3.474-1.114 5.26-.059.548-.095 1.099-.151 1.647-.02.146-.024.301-.094.434h-.035c-.065-.099-.069-.22-.087-.333-.043-.364-.067-.73-.1-1.094a29 29 0 0 0-.388-2.935c-.302-1.587-.757-3.154-1.468-4.608-.813-1.668-1.933-3.197-3.336-4.417A11.7 11.7 0 0 0 0 16.491c.178-2.348.366-4.695.585-7.04.074-.762.145-1.524.249-2.282.022-.138.039-.278.08-.412l.022.004c.085.274.118.561.161.844.149 1.096.261 2.197.417 3.293.125.878.265 1.755.48 2.616.096.374.201.749.354 1.105.327-.141.666-.253 1.006-.359.127-.338.218-.688.3-1.039.124-.545.222-1.095.31-1.647.356-2.277.564-4.574.796-6.867.042-.412.083-.825.137-1.236.02-.13.031-.263.073-.389.046.287.071.577.1.866.183 1.947.345 3.896.567 5.839.107.923.221 1.847.385 2.762.074.386.147.775.279 1.147.366-.033.732-.066 1.099-.091.274-.862.435-1.755.572-2.648.149-1 .256-2.005.345-3.012.152-1.717.248-3.437.346-5.157.048-.762.084-1.525.165-2.284.021-.169.039-.34.089-.503Z"/></svg>