<svg xmlns="http://www.w3.org/2000/svg" width="29.441" height="30.067" viewBox="0 0 29.441 30.067"><title>school-prismari</title><path fill="#444" d="M19.114.003c1.715.522 3.195 1.746 4.071 3.304 1.023 1.795 1.201 3.934 1.007 5.955-.668.796-1.589 1.329-2.498 1.808-1.404.707-2.904 1.207-4.425 1.59 1.8.237 3.659.188 5.411-.317a7.8 7.8 0 0 0 2.277-1.071c.057 1.009-.138 2.059-.68 2.922 1.171.054 2.347.146 3.495.403.581.135 1.171.303 1.669.644-1.06.349-1.946 1.092-2.649 1.94-.731.884-1.286 1.902-1.712 2.964 1.324.422 2.663 1.045 3.552 2.152a19 19 0 0 0-3.464 2.341c-1.427 1.216-2.69 2.662-3.504 4.363-.897-1.273-2.224-2.262-3.733-2.676-1.329-.372-2.765-.269-4.06.186-1.739.604-3.144 1.957-4.018 3.556-3.202-.711-6.112-2.706-7.893-5.466C.979 23.091.352 21.374 0 19.614c.723.94 1.604 1.765 2.632 2.363 1.515.91 3.343 1.303 5.095 1.056 1.799-.312 3.259-1.532 4.511-2.788 1.109-1.064 2.08-2.29 3.355-3.167-.408-1.236-1.433-2.251-2.688-2.611a3.76 3.76 0 0 0-3.364.58c.707.323 1.369.852 1.654 1.596.298.756.114 1.639-.363 2.279-.585.828-1.609 1.258-2.605 1.26-.604-.015-1.227-.096-1.768-.382-.844-.45-1.424-1.287-1.728-2.177-.526-1.539-.319-3.275.426-4.707.703-1.35 1.915-2.361 3.226-3.094 1.375-.765 2.881-1.283 4.418-1.604 1.318-.244 2.639-.539 3.874-1.073.925-.399 1.854-.97 2.329-1.895.566-1.12.791-2.4.718-3.648-.051-.573-.185-1.182-.608-1.602Zm1.992 15.865c-2.67.828-5.084 2.46-6.873 4.606 1.25-.64 2.596-1.102 3.993-1.281a12.84 12.84 0 0 1 5.807.568 8.77 8.77 0 0 1 2.523-4.379 13.3 13.3 0 0 0-5.45.486m-8.219 6.275c-1.526.713-2.983 1.626-4.642 2.006-1.331.315-2.784.345-4.055-.215 1.709 1.122 3.805 1.534 5.826 1.439 1.821-.05 3.612-.41 5.407-.688 2.25-.316 4.65.5 6.166 2.207.427-1 1.073-1.893 1.829-2.67a13.4 13.4 0 0 1 3.108-2.335c-2.636-1.077-5.516-1.724-8.372-1.39-1.842.206-3.607.843-5.267 1.645zm-8.154 4.07c1.294 1.139 2.832 1.979 4.449 2.564.72-1.036 1.67-1.948 2.848-2.437-2.961.514-6.116-.056-8.681-1.635.386.565.877 1.051 1.384 1.507z"/></svg>