<svg xmlns="http://www.w3.org/2000/svg" width="25.334" height="29.328" viewBox="0 0 25.334 29.328"><path fill="#444" d="M20.4 4.702a12.65 12.65 0 0 1 4.421 6.463c.903 3.042.605 6.426-.836 9.255a12.76 12.76 0 0 1-4.572 5.037c.821 1.293 1.651 2.578 2.472 3.871l-18.438-.001c3.114-4.831 6.142-9.715 9.223-14.566.954 1.534 1.911 3.065 2.847 4.61.76-.468 1.421-1.117 1.84-1.91.58-.924.824-2.042.746-3.125a5.6 5.6 0 0 0-1.394-3.261c1.227-2.126 2.464-4.246 3.69-6.373m-7.735 19.317c-1.255.806-2.72 1.229-4.196 1.374a11.45 11.45 0 0 0 8.421-.007c-1.489-.12-2.958-.569-4.225-1.367m7.352-4.329c-1.127.46-2.357.602-3.565.523-.308.188-.625.368-.918.577a7.9 7.9 0 0 1-2.188 2.75c1.523.884 3.326 1.213 5.073 1.08.99-1.443 1.603-3.17 1.598-4.93m-9.97 1.556c-.724 1.133-1.452 2.261-2.17 3.396 1.434-.023 2.87-.385 4.115-1.105a7.7 7.7 0 0 1-1.945-2.291zm13.956-4.804a9.2 9.2 0 0 1-3.226 2.901c.057 1.491-.299 2.977-.929 4.323 2.221-1.779 3.744-4.406 4.155-7.224m-11.332.703c-.722 1.117-1.43 2.244-2.155 3.361a6.9 6.9 0 0 0 2.153 2.593 6.8 6.8 0 0 0 2.15-2.592c-.715-1.121-1.438-2.238-2.148-3.361zm6.473-.875a7.07 7.07 0 0 1-1.799 3.196 7.1 7.1 0 0 0 2.63-.578 7.2 7.2 0 0 0-.83-2.618zm1.551-5.46a7.6 7.6 0 0 1-1.39 3.397q.032.471.007.942c.741.983 1.194 2.163 1.384 3.374 1.528-.881 2.715-2.279 3.471-3.861-.766-1.575-1.945-2.974-3.473-3.853zm-1.99-.777-.55.945c.44.647.768 1.37.957 2.13.472-.812.748-1.728.862-2.658a7.3 7.3 0 0 0-1.27-.417m2.013-3.473-.318.548c.28.934.41 1.911.38 2.885 1.28.672 2.356 1.686 3.201 2.852a11.57 11.57 0 0 0-3.263-6.285m-.858 1.492c-.262.426-.503.865-.758 1.295q.465.127.916.298a8.4 8.4 0 0 0-.158-1.593m-7.214-4.908.29.004c1.388.064 2.667.272 3.964.798-1.49.126-2.963.568-4.23 1.37-1.27-.807-2.748-1.245-4.24-1.37a12 12 0 0 1 3.066-.743c.513-.053.635-.046 1.15-.06zm4.817 1.538c-.713 1.143-1.452 2.27-2.172 3.409-.48-.89-1.165-1.658-1.947-2.295 1.247-.723 2.685-1.068 4.118-1.114zm-10.097.007h.542c.22.014.438.02.657.041 1.2.116 2.378.461 3.423 1.068a7.7 7.7 0 0 0-1.99 2.377c-.073.13-.12.278-.218.393-.295.201-.613.367-.905.573-1.206-.133-2.433.07-3.56.503.005-1.762.612-3.492 1.61-4.936.146-.007.294-.018.441-.019m5.3 1.548a6.9 6.9 0 0 1 2.155 2.591c-.722 1.117-1.428 2.244-2.156 3.358q-1.07-1.68-2.146-3.355a6.86 6.86 0 0 1 2.146-2.594m-7.179-.561c-.622 1.344-.992 2.825-.92 4.313-1.293.685-2.399 1.701-3.23 2.901a11.44 11.44 0 0 1 4.15-7.213zM8 9.858c-.412.433-.8.896-1.073 1.431a6 6 0 0 0-.73 1.776 6.9 6.9 0 0 1-.83-2.619c.83-.364 1.73-.546 2.633-.588m-3.359.952a7.7 7.7 0 0 0 1.344 3.338c.086.308 0 .647.054.966A7.7 7.7 0 0 0 4.64 18.52c-1.493-.85-2.656-2.205-3.413-3.735l-.043-.129c.741-1.581 1.94-2.965 3.456-3.846m1.581 5.413c.19.762.521 1.485.958 2.137-.186.312-.363.628-.548.941a7 7 0 0 1-1.27-.417 7 7 0 0 1 .86-2.661zm-.909 3.464c.301.12.61.218.923.302-.256.431-.503.868-.758 1.3a9 9 0 0 1-.165-1.603zm-3.949-3.199c.828 1.181 1.922 2.181 3.198 2.858-.045.974.105 1.949.372 2.885l-.314.542a11.38 11.38 0 0 1-3.257-6.284zM12.666 0H3.443l2.48 3.878C3.05 5.676.954 8.669.27 11.991a12.7 12.7 0 0 0 .59 7.201 12.64 12.64 0 0 0 4.073 5.439c1.232-2.123 2.461-4.249 3.696-6.37-.966-1.082-1.495-2.547-1.404-3.997.112-1.736 1.104-3.391 2.587-4.303a478 478 0 0 0 2.86 4.619c3.064-4.865 6.112-9.741 9.217-14.579z"/></svg>