<svg xmlns="http://www.w3.org/2000/svg" xml:space="preserve" width="98.132" height="76.214" overflow="visible" viewBox="0 0 98.132 76.214"><path fill="#231f20" d="M81.566 36.332c3.274-5.257 2.108-12.46 2.108-12.46 2.776.784 4.515 4.6 4.515 4.6 1.126-9.024-6.19-13.689-8.157-15.356-3.383-2.862-3.817-7.287-3.817-7.287-2.254 5.898 3.221 9.922.522 18.132-1.44 4.372-4.36 6.977-6.287 8.292l-.237-.064c.14-1.565.136-3.371-.167-5.311-.97-6.221-7.672-9.046-9.693-15.185C58.335 5.555 62.903.001 62.903.001s-7.955 3.778-9.149 11.865c-.943 6.385 1.014 11.155 3.115 14.79.54.934.52 1.893.195 2.802-1.357-.235-2.296-.392-2.616-.468-1.64-.377-3.49.038-3.49.038s-.978 1.053-.978 2.62l-.017 33.893c0 1.767.57 3.977.57 3.977.378-1.577 1.957-4.23 1.957-4.23 0 2.21 2.084 3.599 2.084 3.599-1.767-4.293 2.02-7.325 3.221-6.883 1.2.444.758 1.833 0 3.725-.759 1.895 1.263 2.844 1.263 2.844-.19-1.77 1.577-2.654 2.4-2.654.822 0 3.536.19 3.852 3.537s-3.158 6.757-3.158 6.757 5.622-1.238 8.112-4.349c4.214 1.754 7.834.682 7.834.682s-2.752-2.026-5.627-6.306c-1.337-1.988-1.664-4.281-1.71-5.807 3.02-.027 3.796-1.308 3.796-1.308s-1.137-1.607-1.137-3.45c0-2.894 2.417-4.98 5.152-4.98 5.366 0 6.867 4.742 12.361 4.742 5.496 0 7.199-2.968 7.199-2.968-10.687-.926-6.55-10.194-16.566-16.137m-14.948 9.815c-.201.903-4.71 5.71-6.612 5.71-1.904 0-1.504-1.802-3.808-3.706 0 0 1.3-2.706 11.021-5.212 0 0-.4 2.306-.601 3.208m-18.464-14.5c0-1.567-.98-2.62-.98-2.62s-1.847-.415-3.49-.038c-.32.076-1.257.233-2.614.468-.326-.91-.346-1.868.195-2.802 2.1-3.635 4.056-8.405 3.113-14.79C43.186 3.778 35.232 0 35.232 0s4.565 5.554 2.547 11.692c-2.02 6.139-8.723 8.964-9.693 15.185-.3 1.94-.305 3.746-.167 5.311l-.235.064c-1.929-1.315-4.848-3.92-6.287-8.292-2.703-8.21 2.776-12.234.52-18.132 0 0-.432 4.425-3.817 7.287-1.97 1.667-9.283 6.332-8.155 15.356 0 0 1.735-3.816 4.51-4.6 0 0-1.163 7.203 2.111 12.46C6.55 42.275 10.689 51.542 0 52.469c0 0 1.705 2.968 7.2 2.968 5.493 0 6.994-4.742 12.36-4.742 2.735 0 5.154 2.086 5.154 4.98 0 1.843-1.139 3.45-1.139 3.45s.778 1.281 3.797 1.308c-.045 1.526-.374 3.819-1.71 5.807-2.874 4.28-5.628 6.306-5.628 6.306s3.62 1.072 7.834-.682c2.49 3.11 8.112 4.35 8.112 4.35s-3.473-3.412-3.158-6.758c.318-3.347 3.032-3.537 3.851-3.537.824 0 2.59.883 2.402 2.654 0 0 2.02-.95 1.263-2.844-.757-1.892-1.199-3.281 0-3.725 1.2-.442 4.989 2.59 3.22 6.883 0 0 2.084-1.39 2.084-3.6 0 0 1.58 2.654 1.959 4.231 0 0 .568-2.21.568-3.977zm-10.026 20.21c-1.904 0-6.413-4.807-6.614-5.71s-.601-3.208-.601-3.208c9.72 2.506 11.023 5.212 11.023 5.212-2.306 1.904-1.906 3.706-3.808 3.706"/></svg>