<svg xmlns="http://www.w3.org/2000/svg" xml:space="preserve" width="262" height="415" style="clip-rule:evenodd;fill-rule:evenodd;stroke-linejoin:round;stroke-miterlimit:2" viewBox="0 0 262 415"><path d="M75 377q14.71-12.86 26-28l30 21 30-21q11.29 15.14 26 28l-56 38zm24-36c7.75-15.693 12.759-37.34 15-65h34c2.241 27.66 7.25 49.307 15 65l-32 19zm-3-239-83 47v136l77 45c7.623-14.891 11.168-32.987 11-54H73c.366-6.253 2.295-10.033 6-11v-14c24.43 6.745 41.415 4.137 42-14 1.157-35.858-65.003-10.62-87-55h68.877c1.023-28.258-.944-55.081-6.877-80m70 0 83 47v136l-77 45c-7.623-14.891-11.168-32.987-11-54h42c-.366-6.253-2.295-10.033-6-11v-6c-37.693-21.093-37.23-46.438 19-78h16v-8h-73.101c-.971-14.525.963-50.92 7.101-71m-50 70c-.419-33.291-2.909-66.011-13.123-96.608l18.257-18.258L131 67l9.866-9.866 18.257 18.258C148.909 105.989 146.419 138.709 146 172ZM101 8H29c-4.069-.064-6.514-2.563-7-8H0v82h22c.96-4.706 3.457-7.876 8-9h58c-2.145-7.479-7.123-11.506-15-12H30c-1.495-.085-2.643-.647-2.704-2.704V23c.061-1.425.778-2.1 2.092-2.092H87c7.122-.403 12.728-3.214 14-12.908m60 0h72c4.069-.064 6.514-2.563 7-8h22v82h-22c-.96-4.706-3.457-7.876-8-9h-58c2.145-7.479 7.123-11.506 15-12h43c1.495-.085 2.643-.647 2.704-2.704V23c-.061-1.425-.778-2.1-2.092-2.092H175c-7.122-.403-12.728-3.214-14-12.908m-53.158 35.241L116.8 52.2 96 73c-3.243-7.087-9.247-13.376-21-18H34V27h52c14.52-1.051 22.257-9.604 22-27h46c-.257 17.396 7.48 25.949 22 27h52v28h-41c-11.753 4.624-17.757 10.913-21 18l-20.8-20.8 8.958-8.959L131 20Z"/></svg>