<svg xmlns="http://www.w3.org/2000/svg" xml:space="preserve" width="88.161" height="84.339" overflow="visible" viewBox="0 0 88.161 84.339"><path fill="#231f20" d="m49.982 9.521 7.72-7.283 2.119 10.594a34.3 34.3 0 0 0-9.839-3.311m18.865 9.975 1.144-10.763-9.511 4.45a35.5 35.5 0 0 1 8.367 6.313m10.137 20.1 7.02-8.006-10.213-2.197a37.5 37.5 0 0 1 3.193 10.203m9.177 6.12-9.063-5.363q.375 2.627.377 5.363-.002 2.736-.377 5.364zM75.45 28.708l4.291-9.862-10.378 1.185a36.8 36.8 0 0 1 6.088 8.677M27.68 13.183l-9.51-4.45 1.145 10.763a35.6 35.6 0 0 1 8.365-6.313M8.685 45.716c0-1.822.132-3.612.378-5.363L0 45.716l9.064 5.364a38.5 38.5 0 0 1-.378-5.364m3.688-16.323L2.157 31.589l7.021 8.006a37.4 37.4 0 0 1 3.195-10.203M38.178 9.52l-7.72-7.283-2.117 10.594a34.2 34.2 0 0 1 9.837-3.311m5.904-.51c1.755 0 3.482.133 5.17.39L44.082 0l-5.175 9.4c1.69-.257 3.416-.39 5.175-.39M18.797 20.03l-10.38-1.185 4.293 9.862a36.8 36.8 0 0 1 6.087-8.677m-6.233 27.304 6.913-2.775-6.913-3.775q.147-1.27.391-2.506c.71.317 1.422.629 2.126.954a95 95 0 0 1 6.149 3.05l13.265-.387-11.296-6.966a94 94 0 0 1-6.853-.428c-.772-.072-1.545-.16-2.319-.241q.412-1.205.913-2.366l7.834.363-4.148-6.74a32 32 0 0 1 1.596-1.967c.456.628.913 1.253 1.364 1.885.87 1.225 1.759 2.434 2.56 3.705.26.41.51.826.763 1.238.102.168.296.675.472.771.006.002 11.683 6.298 11.683 6.298l-6.3-11.681c-1.95-1.2-3.865-2.478-5.715-3.792-.632-.449-1.257-.911-1.884-1.369a33 33 0 0 1 1.968-1.593l6.647 4.241-.269-7.93q1.159-.499 2.364-.911c.082.772.166 1.545.238 2.319.228 2.285.367 4.558.432 6.853l6.968 11.296.385-13.266c-1.09-2.02-2.11-4.082-3.056-6.147-.322-.704-.634-1.417-.949-2.127q1.238-.244 2.506-.391l3.683 7.007 3.68-7.007q1.267.147 2.505.39c-.315.71-.629 1.42-.953 2.126a96 96 0 0 1-3.052 6.15l.387 13.265 6.966-11.296a107 107 0 0 1 .428-6.853c.072-.774.16-1.547.244-2.32q1.204.413 2.363.912l-.269 7.93 6.648-4.24a33 33 0 0 1 1.968 1.592c-.629.456-1.256.917-1.888 1.365a96 96 0 0 1-5.714 3.796l-6.298 11.681L62.78 31.15c1.2-1.95 2.48-3.867 3.792-5.715.45-.632.911-1.258 1.368-1.884q.837.95 1.595 1.968l-4.147 6.74 7.835-.364q.5 1.161.91 2.366c-.772.08-1.544.164-2.317.238a96 96 0 0 1-6.854.431l-11.296 6.966 13.267.387a104 104 0 0 1 6.146-3.055c.705-.324 1.416-.636 2.127-.949q.244 1.236.392 2.506l-6.914 3.775 6.914 2.775q-.15 1.267-.392 2.504l-8.845-3.558-2.28.065c-8.127.644-14.421 5.243-14.421 13.638 0 9.074 7.354 13.717 16.429 13.717h2.843q-.555.582-1.139 1.136s-1.07 1.02-1.922 1.692l-8.023-1.26c1.701 1.483 3.842 2.4 5.538 3.129-.856.608-1.185.791-2.096 1.319a315 315 0 0 1-6.578-3.022l-.476-.226 5.41 4.144q-1.32.673-2.702 1.233l-2.22-1.698.18 2.445c-.88.292-1.212.39-2.124.611l-3.13-1.3.604 1.879a34 34 0 0 1-2.634.373l-.718-2.231-1.814 2.4c-.5.02-.502.013-1.005.013-.506 0-.509.007-1.007-.014l-1.813-2.4-.72 2.232a21 21 0 0 1-2.05-.29l.02-1.962-3.076 1.317a23 23 0 0 1-2.18-.628l.18-2.445-2.216 1.698a20 20 0 0 1-2.084-.95l4.575-4.26q-.062.027-.122.058a274 274 0 0 1-6.649 3.064c-.915-.53-1.314-.759-2.173-1.367 1.755-.75 3.732-1.564 5.842-3.19l-8.292 1.327a22 22 0 0 1-1.949-1.691s-.767-.747-1.139-1.136h2.845c9.073 0 16.43-4.643 16.43-13.717 0-8.395-6.297-12.994-14.424-13.638l-2.28-.065-8.845 3.558a32 32 0 0 1-.39-2.504m34.665 27.074 1.226 3.8 3.645 2.074-.166-2.27zm-4.867 4.092 1.717 3.104 1.714-3.102-1.714-5.318zm-1.435-4.092-4.705 3.604-.17 2.27 3.649-2.074z"/></svg>