<svg xmlns="http://www.w3.org/2000/svg" width="19.348" height="32.001" viewBox="0 0 19.348 32.001"><path fill="#444" d="M4.67.784C5.28.565 5.879.317 6.489.099 7.393-.008 8.304.047 9.21 0c.617.072 1.25.061 1.847.251.949.291 1.923.513 2.837.909.596.204 1.139.55 1.764.668l-.286.101c.72.446 1.25 1.128 1.716 1.822.408.611.88 1.182 1.204 1.844.29.541.389 1.154.569 1.734.147.488.477.929.46 1.458-.002.659.064 1.32-.007 1.977-.041.504.01 1.062-.321 1.486-.581.8-1.121 1.694-2.027 2.167.039-1.041-.176-2.129-.814-2.972-.28-.242-.62-.409-.86-.699-.257-.156-.583-.198-.781-.451l-.42.008.32.209c-.687.422-1.485.606-2.206.955-.582.353-.93.964-1.434 1.406-.44.465-.955.85-1.387 1.323-.532.677-1.07 1.388-1.27 2.243-.11.704-.428 1.351-.74 1.986-.252.479-.271 1.032-.401 1.548-.164.667.06 1.371-.16 2.028-.14.387-.153.808-.09 1.212.19 1.151.436 2.296.806 3.404.206.657.346 1.379.833 1.898.334.357.645.739 1.012 1.065.608.53.98 1.282 1.622 1.778.237.179.426.409.606.643-1.006-.276-2.027-.601-2.89-1.205-.681-.444-1.408-.83-2.008-1.385-.78-.708-1.714-1.267-2.32-2.149-1.375-1.451-2.034-3.374-2.782-5.185-.35-.701-.517-1.468-.732-2.216-.7-1.822-.47-3.811-.504-5.718a15 15 0 0 0-.314-1.764c-.162-.61.086-1.215.258-1.792.353.656.48 1.493 1.112 1.956.38.152.839.238 1.225.055.537-.246 1.175-.349 1.575-.822.589-.691 1.25-1.345 1.648-2.173.219-.682.253-1.451-.027-2.12-.181-.452-.215-.943-.37-1.4-.29-.668-.97-1.182-1.714-1.183-.457-.016-.995-.101-1.361.248C1.645 5.874.787 6.533.303 7.487.29 6.574.463 5.662.753 4.8c.16-.514.537-.916.763-1.397C2.065 2.086 3.34 1.189 4.674.788z"/></svg>