<svg xmlns="http://www.w3.org/2000/svg" width="18.061" height="32.002" viewBox="0 0 18.061 32.002"><path fill="#444" d="M3.638 0c.144.005.311-.022.431.077.1.081.234.093.348.148.14.068.294.1.448.116Q4.803.243 4.743.144c.115.041.223.098.336.143.134.053.28.064.416.108.111.035.2.131.322.133.121.008.248.022.349.094.251.167.532.279.79.434.117.067.251.092.375.141l.062-.133c.106.078.201.17.306.25.041-.117-.007-.231-.037-.344a.7.7 0 0 1 .21.192c.028.085.027.177.044.265l.155-.064a.43.43 0 0 0 .377.324c-.023-.117-.07-.226-.104-.34.05.051.115.096.137.167.021.105-.025.209-.03.313.046.065.131.101.156.181.08.219.193.446.404.563.059.059.152.015.216.058.021.108-.026.24.06.328.115.16.313.254.379.449.052.15.143.285.176.442.046.195.153.367.264.531.062.149.137.293.193.445.054.022.111.038.159.071.025.094.021.199.078.283.085.14.171.282.226.437.049.152.197.231.304.338-.034-.123-.078-.245-.088-.373.1.16.139.349.23.514.106.191.218.378.326.567a.33.33 0 0 0 .163.138c.081.034.129.111.191.17.097.098.24.126.341.22.069.064.136.13.212.187.109.082.197.195.323.252.037-.006.073-.019.111-.029.031.076.03.183.121.216.217.103.362.317.592.397.081.024.133.096.206.133.085.029.172.052.258.081q.03-.113.069-.224.03.127.041.258a.5.5 0 0 1 .22.215c.281.356.754.43 1.164.544.295.044.589-.029.884-.039-.05.059-.082.148-.169.159-.251.051-.499.13-.758.118-.216-.014-.415.091-.629.092-.153.008-.32.004-.451.097-.055.029-.105.087-.173.076-.135-.02-.257-.111-.398-.086a2.6 2.6 0 0 1-.433.01c-.099-.006-.197.067-.293.02a1 1 0 0 0-.273-.056c-.106-.009-.21.032-.315.014a5 5 0 0 1-.794-.193q.01.111.013.222c-.056-.095-.081-.21-.159-.291-.101-.023-.2.018-.299.033l.001.104-.109-.009c-.02-.093-.067-.167-.166-.184-.01.115.009.23.028.343-.089-.138-.132-.299-.211-.442-.057-.041-.128-.052-.193-.073-.114-.03-.21-.104-.317-.149-.087-.029-.181-.03-.267-.06-.125-.037-.209-.149-.331-.192-.174-.053-.356-.075-.529-.134-.116-.04-.206-.125-.298-.202-.077-.068-.186-.073-.272-.124-.121-.062-.212-.172-.342-.216-.212-.073-.342-.272-.54-.37l-.037.135q-.039-.075-.072-.152c-.133.008-.275.009-.39-.068-.116-.074-.238-.136-.359-.201-.052.078-.096.164-.162.232.024-.092.072-.175.109-.261l-.109-.004-.032-.135-.185.003c.004.091.01.183.01.274-.063-.026-.146-.045-.157-.126-.023-.106.086-.169.151-.231-.088-.075-.144-.174-.203-.271-.154-.131-.273-.298-.431-.425a1.6 1.6 0 0 1-.206-.224c-.106-.136-.243-.242-.359-.368-.055.019-.109.042-.167.052-.085-.051-.134-.141-.21-.203-.102-.089-.171-.206-.25-.313-.096-.125-.263-.179-.336-.324-.121-.278-.361-.476-.567-.69-.121-.149-.22-.315-.339-.466l-.144.019c-.076-.123-.149-.256-.271-.34q-.055.024-.106.054c-.122-.084-.232-.202-.385-.227-.093-.022-.189-.029-.279-.063-.203-.113-.342-.305-.476-.488-.067-.092.019-.206-.008-.306-.04-.158-.173-.266-.24-.411q.2.054.386.143a.37.37 0 0 1 .148-.26.8.8 0 0 0-.189-.236 1 1 0 0 0 .04-.201c.004-.071.073-.113.111-.168l-.142-.132c.117-.129.264-.232.354-.384-.163-.045-.334-.069-.482-.154a1.4 1.4 0 0 1 .31-.017c.091-.162.271-.223.437-.278.152.002.299-.035.446-.069.073-.017.123-.077.18-.121.097.013.193.027.291.028Q3.404.2 3.37.09q.155.04.312.071a3 3 0 0 1-.044-.159zm.941 7.44c-.076.042-.162.058-.246.076.011.143.14.303.028.432-.189.212-.476.284-.724.401-.074.029-.082.119-.113.182-.038.107-.123.187-.179.284-.058.109-.039.239-.084.352-.072.11-.18.192-.259.299-.144.169-.23.38-.384.542-.096.105-.237.155-.329.265a3 3 0 0 0-.339.455c-.173.275-.241.6-.413.875-.091.148-.097.33-.181.481a4 4 0 0 0-.337.827c-.124.414-.323.8-.481 1.201-.27.62-.337 1.303-.389 1.97.009.341-.048.677-.127 1.008a3.3 3.3 0 0 0-.006.705l.173-.141c-.027.237-.002.474.016.711-.006.232.107.443.146.668.041.173-.018.349.008.523.011.1.055.194.059.296.021.286.071.569.119.852.021.137.115.245.16.373-.001.088-.027.177-.007.264.028.143.091.28.088.428-.001.185-.007.37.004.555l.079-.079c.051.123.111.247.117.383.007.178-.025.355-.013.533.006.126.106.218.145.334.059.163.157.313.174.49.023.121.001.249.037.367.167.144.293.331.395.525.054.095.004.201-.022.297.088.089.172.184.224.299.064.147.185.256.271.389.055.087.172.117.208.218a1 1 0 0 0 .17.265q-.034.078-.066.157c.06.014.127.014.181.051.034.092.013.208.09.281.066.077.148.138.222.208.078.066.076.18.138.258.099.046.216.055.303.127.37.28.51.763.873 1.051.093.091.238.042.34.117.109.079.167.207.267.296.101.082.117.217.159.332.094.02.187.045.268.099.386.184.679.507 1.045.723.056.021.118.004.176.004a.5.5 0 0 0-.125.324q.107-.11.222-.213a.7.7 0 0 0 .208.213c.087.064.2.054.302.072.018.093-.018.218.08.274.16.111.329.208.479.332l.066-.115c.031.042.06.088.101.122.063.023.132.026.197.043.099.013.167.093.244.149.145.117.325.177.48.28.177.117.379.189.557.304.11.091.25.011.375.017.174-.023.319.088.471.151-.098-.118-.194-.245-.333-.317-.091-.055-.201-.079-.282-.15-.077-.134-.078-.315-.222-.405-.094-.09-.225-.086-.345-.09q.003-.133-.004-.267a.9.9 0 0 1-.211-.173c-.065-.087-.181-.091-.275-.122l-.051-.127c.071-.009.191.048.214-.049a.26.26 0 0 0-.168-.121c-.106-.031-.196.052-.289.087a3 3 0 0 0-.16-.245c.08.028.164.035.236-.017-.126-.048-.262-.08-.367-.169-.06-.058-.059-.152-.119-.209-.175-.169-.318-.367-.474-.553-.123-.145-.198-.319-.279-.488.028-.064.106-.136.049-.205-.086-.114-.209-.2-.266-.336l-.066.203c-.131-.314-.156-.674-.375-.947-.152-.166-.148-.405-.222-.604-.11-.131-.059-.326-.174-.453-.141-.159-.126-.392-.076-.585l-.137-.066a3.2 3.2 0 0 0-.061-.718c.066.087.126.181.217.246 0-.148-.131-.221-.232-.3-.038-.076-.054-.16-.076-.241q.071.091.145.179c.021-.135.01-.272.029-.407.019-.145.115-.264.147-.405-.06.038-.15.066-.162.147-.019.117-.031.238-.089.345-.027-.159-.019-.324-.073-.478-.042-.121.019-.243.033-.362.019-.127.085-.238.129-.357.047-.174-.104-.329-.068-.503.015-.147.144-.236.226-.346l-.165-.028a3 3 0 0 0-.084-.207q.1-.032.198-.069l-.011-.184-.14.092c-.092-.257.08-.487.158-.72-.048-.048-.1-.091-.141-.144-.018-.153.128-.256.157-.396.01-.095.004-.192.019-.286.021-.127.132-.228.122-.363-.006-.108-.028-.214-.035-.321.056-.001.112.014.169.007.039-.065.06-.138.084-.208l-.217.02a3 3 0 0 1-.001-.175c.102-.004.204-.004.305-.015-.102-.072-.201-.155-.237-.28q.098-.03.2-.056c-.001-.111.061-.192.147-.254a1.4 1.4 0 0 1-.185-.186c.118-.003.221.054.32.111-.03-.078-.071-.152-.088-.233.03-.104.099-.191.14-.291-.168.073-.213.267-.328.394-.029-.046-.075-.085-.086-.14a1 1 0 0 1 .156-.227c.108-.067.246-.109.289-.245-.128.053-.245.132-.381.163.07-.082.152-.152.233-.223a3 3 0 0 1-.022-.219q.086.074.165.155c.063-.115.146-.217.207-.333q.096.036.195.066c-.036-.148-.054-.301-.11-.443l.208-.053a2.4 2.4 0 0 1 .143-.723c.076-.09.139-.19.218-.277.088-.027.182-.005.273-.01-.013-.152-.171-.12-.279-.132.101-.088.193-.186.288-.28.046-.007.093-.006.14-.008.066-.13.194-.203.313-.277-.107-.096-.132-.235-.117-.373.202-.052.36-.196.534-.303.006-.083.001-.167.024-.247.063-.051.115.032.172.054.028-.026.034-.065.039-.1q.028-.208.094-.407c.043-.069.125-.1.188-.148.113-.072.161-.211.274-.282.094-.056.229-.036.295-.137s.139-.197.251-.248c-.047.102-.101.202-.12.315.107-.076.21-.16.326-.223.107.006.21.044.318.033.107.008.118-.122.177-.183a.74.74 0 0 1 .306-.149c.159-.044.3-.137.459-.182-.082.087-.172.166-.245.261l.133.089c.119-.137.214-.304.375-.398a.33.33 0 0 1 .257.073l-.079-.069c.107-.068.211-.139.32-.204l.032.122c.177-.032.35-.081.521-.138q.034.077.072.152c.115-.064.221-.143.332-.214.068-.047.153-.018.229-.021.133.008.258-.049.388-.067.081-.015.162.047.242.017.107-.035.211-.086.326-.093.132-.013.259.055.391.03.211-.038.42-.101.601-.218.092.001.189.01.273-.039a.8.8 0 0 1 .382-.082l-.104.144c.172.01.346-.02.51-.072.085-.025.173-.089.264-.05.076.035.113.166.214.123.038-.077.052-.164.091-.24.067-.043.15-.048.227-.063q-.068.06-.14.116l.175.006-.19.121c.255-.01.474-.16.672-.307l-.102-.064q.131-.097.242-.219l-.15-.05c.095-.053.199-.102.256-.201-.101.004-.19.052-.282.085-.128.011-.224-.086-.319-.156.106-.044.213-.106.234-.23-.153.011-.281.139-.44.092-.009-.173.188-.194.287-.291-.131.002-.248.061-.37.099q-.027-.106-.048-.213l-.114-.017q.051-.1.099-.202a4 4 0 0 0-.201.042l.008-.159c-.18.002-.342.095-.52.104-.254.01-.509.002-.763-.008l.032.116c-.136.008-.255.07-.376.122-.076.041-.155-.008-.233-.012-.131 0-.255.042-.38.075a.7.7 0 0 0-.264-.031 3 3 0 0 0-.591.008c.02-.087.044-.172.055-.26-.093.11-.134.259-.264.337l-.07-.132c-.1.01-.201.028-.301.009a1.3 1.3 0 0 0-.604.032c-.045-.041-.081-.104-.148-.102-.184-.026-.39-.092-.464-.281a2 2 0 0 0-.048.209c-.06.005-.123.034-.179.002a1.5 1.5 0 0 0-.49-.121c-.074-.128-.234-.139-.357-.195-.184-.061-.387-.061-.562-.154.066-.073.138-.139.204-.211-.225.102-.496.143-.723.027-.112-.084-.187-.207-.296-.294l-.006.161c-.105-.047-.219-.077-.315-.143-.044-.06-.073-.129-.114-.192q.021.076.046.151c-.133-.035-.268-.062-.39-.129-.164-.089-.348-.145-.496-.262-.083-.061-.075-.173-.095-.263l-.147.124c-.051-.08-.099-.176-.072-.273.037-.079.127-.113.177-.181.033-.06.057-.125.085-.188-.095.044-.219.057-.281.149-.044.149-.027.32-.141.442a5 5 0 0 0-.284-.35c.036-.194.123-.402.025-.593-.035.139-.024.287-.079.421-.044.102-.169.112-.262.14-.142.056-.269-.052-.395-.101q.08-.06.156-.121c-.108-.057-.231-.056-.349-.052l.045-.164a2 2 0 0 0-.403.065l.059-.131c-.112.011-.223.03-.335.041l-.017-.136c-.063 0-.125.004-.187-.005-.175-.069-.244-.29-.435-.327a.33.33 0 0 1-.205-.156c-.029-.039-.046-.103-.107-.095-.158-.002-.331-.027-.474.056zm2.701.573.011.157.071-.001-.011-.13zm1.167.582c-.002.155-.01.311-.075.454.047-.063.1-.123.132-.196.029-.088.014-.181.012-.271l-.068.013zm.573-.038.054.19q.05-.054.1-.105zm1.654.999c.059-.057.069-.13.039-.204-.057.057-.067.129-.039.204m-.286-.017q-.027.08.055.055.026-.08-.055-.055m.229.067c-.05.013-.031.101.021.086.05-.014.031-.102-.021-.086m3.013.198a.24.24 0 0 0 .202-.141c-.084.019-.171.053-.202.141m-3.112-.066-.031.043c.03.116.153-.066.031-.043m1.545.475q-.027.08.054.055.026-.082-.054-.055m.353.314c.039-.069.18-.201.047-.249-.096.054-.075.162-.047.249m2.978 1.778c.148-.022.296-.048.446-.049l-.057-.076c-.13.04-.261.078-.389.125m-2.882.435q-.027.08.055.055.026-.08-.055-.055m-6.298 8.016c-.053.034.01.112.057.074.053-.034-.011-.111-.057-.074m.144.22c-.065.013-.034.116.027.095.067-.013.035-.116-.027-.095m-.251 1.344a.17.17 0 0 0 .148-.001l-.076-.068zM.69 23.423c.113.132-.01.337.147.44.011-.085.008-.17.002-.255.05-.042.108-.077.146-.132-.011-.132-.07-.255-.096-.384-.066.111-.12.229-.2.331zm-.11.054a2 2 0 0 0-.063.188q.052-.03.1-.064c-.003-.044-.027-.082-.037-.124m6.038 3.578c-.038.043.031.123.077.085.035-.044-.03-.126-.077-.085m.127.205.145-.027v-.119zm-.096-.037c-.043.01-.069.087-.012.097.073.019.098-.127.012-.097m-2.947.881c-.054.045.033.112.075.066.051-.047-.033-.112-.075-.066"/></svg>