<svg xmlns="http://www.w3.org/2000/svg" width="233.779" height="252.371"><path d="M85.499 219.498c9.14-7.066 18.99-15.119 29.04-24.365l2.377-2.252 2.504 2.277v-.001c9.976 9.224 19.79 17.281 28.97 24.331-14.825 16.269-27.913 29.222-31.651 32.883-3.691-3.678-16.568-16.634-31.24-32.873M20.55 105.029c5.006 17.305 9.996 33.609 13.274 42.83 2.674 7.083 6.659 14.895 12.718 23.871 7.807-5.18 18.354-12.473 29.435-21.003-16.13-17.849-40.55-47.178-45.568-53.224zm179.166 42.777c3.333-9.178 8.358-25.596 13.383-42.899l-9.646-7.412c-5.04 6.049-29.537 35.38-45.625 53.225 11.142 8.551 21.727 15.912 29.547 21.011 5.9-8.889 9.747-16.813 12.34-23.925m-82.813-33.469c12.553-12.477 41.586-42.049 47.716-48.296L146.714 51.37l17.658-10.352c-8.93-4.721-19.551-9.937-32.05-14.882-2.005-.903-3.46-3.039-5.322-5.887-3.804-6.05-8.091-15.364-10.256-20.249-1.142 2.601-8.382 17.413-10.15 20.252-1.842 2.844-3.262 4.973-5.26 5.874-12.454 4.915-23.078 10.14-31.995 14.813l17.786 10.416-17.986 14.719c6.148 6.248 35.237 35.79 47.764 48.263"/><path d="m123.316 184.766 3.062 2.803c39.48 36.484 77.208 56.44 77.208 56.44s-8.74-13.775-10.066-29.568c-.762-8.641 1.596-25.78 1.596-25.78s-21.737-12.84-45.355-31.309c-8.593 9.299-17.587 18.664-26.445 27.414m93.345-154.12-.02.186-22.062 24.82-18.121-9.902-11.976 7.015 15.18 12.473s-57.59 58.753-70.744 71.021c-30.687 28.972-70.241 52.44-70.241 52.44s2.427 17.056 1.673 25.732c-1.347 15.851-10.103 29.564-10.103 29.564s37.776-19.941 77.25-56.375c31.864-29.245 67.308-71.344 83.004-90.485l11.326-13.702 15.602 11.932 4.193-14.713-12.174-13.35c9.512-10.75 21.588-24.157 21.637-24.165 3.757-4.238 3.557-10.344-.43-13.783-1.788-1.505-3.905-2.24-6.14-2.26l-1.606.116a11.04 11.04 0 0 0-6.248 3.436M3.157 29.354c-4.011 3.456-4.223 9.57-.503 13.765.113-.02 12.269 13.515 21.7 24.188l-12.21 13.38 4.23 14.701 15.55-11.995L43.354 97.12c8.996 10.919 24.276 29.218 41.694 48.38 6.095-4.88 22.869-20.176 25.698-23.009-12.792-12.545-56.583-57.228-56.583-57.228l-.05.009 15.287-12.463-12.068-7.046-18.194 9.88-21.934-24.857-.05.009-.02-.114c-2.11-2.311-5.076-3.544-7.883-3.578l-1.62.105c-1.59.281-3.15 1.021-4.473 2.146"/></svg>