<svg xmlns="http://www.w3.org/2000/svg" width="520.719" height="530.091" viewBox="0 0 390.539 397.569"><path d="M196.295.004C172.77-.1 149.235 1.756 126.06 5.89c-21.29 3.68-42.28 9.611-61.83 18.911.28 3.46 1.8 6.63 2.82 9.91 2.63 8 5.38 15.95 7.86 24 38.73 16.97 77.53 33.81 116.25 50.83 1.75.61 3.63 2.2 5.52 1.14 39.57-17.27 79.08-34.68 118.7-51.86 3.89-11.11 7.2-22.43 11.19-33.5-10.52-5.64-21.881-9.49-33.301-12.87-24.22-6.73-49.26-10.51-74.36-11.7-5.92-.94-11.94-.47-17.91-.7q-2.352-.036-4.704-.047M0 14.191c1.51 9.51 3.4 18.95 5.06 28.43 2.76 16.38 6.2 32.66 8.7 49.07l.47.7c1.06 7.43 2.48 14.8 3.89 22.17 1.38 8.81 3.4 17.51 4.62 26.34 17.83 13.58 35.91 26.85 53.98 40.11 26.73-.06 53.45-.03 80.17-.02-.46-9.58-2.86-18.95-3.68-28.5l-.49-.72c-1.97-16.26-4.85-32.4-7.201-48.61-26.81-12-53.84-23.5-80.7-35.4-5.41-17.26-11.41-34.339-16.82-51.609-4.95-.43-9.96.09-14.87-.76-8-.58-16.07.04-24.03-.97-3.03-.18-6.07-.19-9.1-.23m390.54.04c-9.44 0-18.82 1.11-28.27.94-6.52.58-13.05.87-19.6.89-4.1 11.77-7.91 23.65-11.81 35.49-1.48 4.6-3.05 9.17-4.51 13.77-.51.99-.6 2.47-1.81 2.88-26.53 11.85-53.35 23.08-79.81 35.1-3.52 25.94-7.99 51.75-11.47 77.69 26.94-.03 53.88.02 80.83-.03 17.7-13.35 35.54-26.53 53.4-39.67 2.12-11.93 4.49-23.82 6.32-35.8l.45-.66c5.15-30.24 10.87-60.4 16.28-90.6M197.379 34.266q2.385-.013 4.76.013l.75.54c13.3.04 26.49 3.91 37.97 10.54-13.17 10.89-28.44 18.86-44.04 25.64-1.58.74-3.21-.05-4.67-.65-14.75-6.59-29.29-14.08-41.79-24.44.04-.339.11-1.01.14-1.34 4.64-1.96 9.09-4.39 13.93-5.85 10.597-3.56 21.82-4.389 32.95-4.453m155.34 38.373c-.82 5.11-1.77 10.231-3.17 15.221-28.47 12.76-56.81 25.79-85.29 38.53 1-5.08 1.97-10.16 3.22-15.19 28.43-12.8 56.78-25.81 85.24-38.56m-315.258.08c28.74 12.51 57.19 25.74 85.76 38.66.66 5.02 2.28 9.87 2.6 14.95-28.37-12.85-56.71-25.77-85.11-38.54-1.07-5.03-2.22-10.04-3.25-15.07m7.55 34.44c27.92 13.14 56.23 25.47 84.26 38.38.79 5 2.62 9.84 2.6 14.96-28.37-12.98-56.91-25.62-85.23-38.72-.14-1.11-.28-2.22-.43-3.32-1.16-3.68-1.36-7.59-2.72-11.2.51-.03 1.01-.07 1.52-.1m301.63.321c-1.01 4.83-2.04 9.66-3.1 14.48-28.43 12.87-56.77 25.95-85.32 38.54.53-4.38 1.85-8.62 2.45-12.99-.07-1.54 1.41-2.37 2.59-2.95 26.35-11.96 52.75-23.86 79.1-35.84 1.39-.52 2.82-.93 4.28-1.24m-186.92 2.02c4.13 23.67 8.45 47.3 12.7 70.95.37 2.35.91 4.7.91 7.1-.06 36.69.02 73.38-.05 110.07 14.48.24 28.95.03 43.43.1.84-12.32.25-24.66.38-36.99-.45-6.39.63-12.77-.19-19.14.8-9.33-.68-18.68.16-28.02-.67-6 .64-11.99.06-18-.69-5.67.09-11.37.74-17.01 2.11-9.54 3.31-19.26 5.36-28.81 1.89-11.76 4.22-23.46 6.32-35.18.25-1.65.18-3.33.13-4.98-10.53 5.01-21.37 9.34-31.98 14.16-3.39 1.65-6.6-1.06-9.68-2.17-9.46-3.96-18.71-8.46-28.29-12.08m-134.1 49.12c-.09 3.27.02 6.55.55 9.79 2.62 35.68 5.19 71.41 7.98 107.08 1.26 21.8 3.41 43.55 4.57 65.36 23.97 9.84 47.97 19.62 71.92 29.51.05-42.6.29-85.23-.12-127.83-15.36-8.34-30.66-16.87-45.72-25.75-2.78-12.15-6.74-24-9.59-36.13-9.75-7.48-19.7-14.72-29.59-22.03m338.91.65c-2.64 1.05-4.89 2.79-7.09 4.55-6.98 5.12-13.87 10.35-20.9 15.41-1.22.73-1.87 2.02-2.11 3.39-2.96 11.42-6.32 22.75-9.16 34.21-15.11 8.82-30.36 17.44-45.76 25.72-.42 9.31-.08 18.64-.19 27.96.06 33.3-.11 66.6.08 99.89 23.96-9.94 48-19.7 72-29.56.73-16.83 2.57-33.58 3.48-50.4 2.61-32.57 4.76-65.17 7.33-97.73.6-11.16 1.71-22.28 2.32-33.44m-203.92 54.91c-12.4 9.11-24.49 18.64-37.05 27.52-.42 5.61-.12 11.23-.21 16.85.08 39.05-.15 78.11.12 117.16 8.39 2.94 16.34 7.05 24.8 9.78 3.12-18.83 6.48-37.62 9.51-56.45 24.88-.12 49.77-.03 74.65-.05 2.05 10.83 3.71 21.74 5.66 32.59 1.23 7.93 3.06 15.79 3.76 23.8 8.54-2.35 16.47-6.59 24.78-9.64.04-44.72.15-89.44-.05-134.16-9.58-6.85-18.87-14.1-28.35-21.08-2.88-2.04-5.43-4.63-8.72-6.01-.08 31.85 0 63.71-.04 95.56-22.94.05-45.87.07-68.8-.01-.03-31.95.09-63.91-.06-95.86m7.82 127.09c-3.59 18.64-6.11 37.49-9.81 56.11 24.35.35 48.73.1 73.09.1-2.93-16.67-5.83-33.34-8.55-50.05-.47-2-.74-4.04-.95-6.07-17.93-.13-35.86.04-53.78-.09"/></svg>