<svg xmlns="http://www.w3.org/2000/svg" width="29.332" height="29.305" viewBox="0 0 29.332 29.305"><title>school-witherbloom</title><path fill="#444" d="M8.681 1.263c3.77-1.695 8.252-1.68 12.018.018.167 1.035-.096 2.16-.813 2.943-.733.81-1.799 1.216-2.848 1.422.488-.39.921-.886 1.097-1.498.128-.487.246-1.003.13-1.505-.091-.423-.419-.753-.798-.938-.688-.336-1.466-.407-2.219-.44-.881-.02-1.774-.02-2.636.186-.56.138-1.161.405-1.421.955-.228.536-.102 1.134.034 1.676.164.64.61 1.161 1.119 1.563-1.093-.212-2.212-.646-2.94-1.525-.655-.782-.888-1.862-.722-2.858zm3.973 1.163c-.224.073-.481.16-.601.38-.081.296-.011.606.042.903.063.264.093.577.336.747.398.31.905.664.881 1.232-.024 2.532-.113 5.065-.161 7.597.554-.565.811-1.339 1.01-2.087.328-1.288.429-2.617.518-3.938.144 1.485.216 2.996.677 4.427.182.583.437 1.161.874 1.6-.058-2.252-.114-4.504-.159-6.756-.006-.355-.033-.714.011-1.067.102-.47.537-.737.879-1.025.212-.154.247-.429.306-.666.059-.313.136-.64.058-.957-.097-.199-.321-.288-.517-.36-.701-.225-1.448-.245-2.178-.24-.663-.005-1.337.028-1.978.21zm.89 12.82c.079.484.363.898.579 1.33a3 3 0 0 1-.651-.276 46 46 0 0 0-2.151 2.208c-1.075 1.186-2.215 2.355-2.914 3.815-.29.62-.542 1.316-.394 2.008.161.775.626 1.452 1.179 2.003 1.046 1.015 2.455 1.576 3.878 1.802-.659-.549-1.257-1.184-1.684-1.932-.593-.99-.844-2.202-.588-3.337.303-1.392 1.171-2.579 2.123-3.605.944-.975 1.885-1.974 2.58-3.149.194-.37.423-.788.302-1.219-.134-.535-.699-.896-1.241-.824-.579.044-1.067.59-1.016 1.174zm1.123 3.624c-.719.84-1.436 1.73-1.79 2.792-.206.711-.336 1.471-.189 2.207.125.64.529 1.21 1.074 1.563a1.7 1.7 0 0 0 1.544.124c.718-.29 1.24-.983 1.363-1.744.147-.892-.063-1.802-.405-2.627.877.747 1.654 1.652 2.088 2.731.102.277.232.575.14.873-.322 1.353-1.217 2.497-2.279 3.364a8.8 8.8 0 0 0 2.145-.61c1.058-.466 2.029-1.206 2.617-2.216.346-.59.549-1.307.364-1.986-.28-1.119-.947-2.094-1.647-2.992a68 68 0 0 0-3.361-3.644c-.471.782-1.045 1.495-1.664 2.165m4.365-.818c1.445.878 2.914 1.73 4.484 2.368 1.359.543 2.809 1.023 4.291.89a14.8 14.8 0 0 1-6.038 6.273c-1.678.92-3.535 1.531-5.441 1.722.979-.215 1.956-.484 2.845-.96 1.182-.604 2.266-1.485 2.919-2.658.452-.803.649-1.784.381-2.68-.323-1.13-.997-2.116-1.709-3.034-.531-.68-1.131-1.303-1.731-1.922zM4.175 21.01c2.208-.63 4.222-1.775 6.174-2.957-1.071 1.09-2.11 2.237-2.859 3.578-.471.844-.847 1.82-.657 2.8.254 1.398 1.257 2.536 2.392 3.33a9.1 9.1 0 0 0 3.922 1.523c-.503.031-.996-.095-1.488-.183-3.469-.704-6.641-2.733-8.759-5.567a15 15 0 0 1-1.384-2.23c.896.102 1.797-.053 2.659-.294m13.009-7.18a18.5 18.5 0 0 0 3.64 1.88c1.444.521 2.97.825 4.505.882 1.359.041 2.745-.133 3.993-.695a14.4 14.4 0 0 1-.596 3.122c-1.289.195-2.619.218-3.892-.092-1.45-.355-2.81-.988-4.138-1.654a19 19 0 0 1-3.464-2.244c-.041-.399-.016-.8-.047-1.2zM6.156 16.355c2.167-.38 4.203-1.316 6.029-2.525-.021.4 0 .8-.031 1.198-1.766 1.44-3.806 2.504-5.911 3.354-1.33.53-2.758.857-4.196.768a10.4 10.4 0 0 1-1.453-.15 14.6 14.6 0 0 1-.587-3.124c1.921.863 4.112.85 6.15.478zm16.345-3.926c2.218-.017 4.416-.73 6.248-1.975a14.6 14.6 0 0 1 .583 3.144 14.1 14.1 0 0 1-5.385.902c-2.437-.076-4.798-.975-6.791-2.353.002-.374-.015-.749-.033-1.122 1.659.857 3.506 1.381 5.378 1.405zm-21.916-2c1.833 1.25 4.028 1.974 6.25 2 1.885-.016 3.745-.542 5.414-1.404-.011.37-.001.742-.034 1.11a13 13 0 0 1-4.546 2.065c-2.541.597-5.236.283-7.669-.614a14.7 14.7 0 0 1 .586-3.158zm25.433-5.01c.06.007.103.051.139.096.685.847 1.255 1.78 1.747 2.751-2.052 1.79-4.874 2.683-7.58 2.333a11.8 11.8 0 0 1-3.228-.908c-.013-.322-.004-.643-.018-.964 1.491.364 3.072.465 4.572.095 1.536-.41 2.957-1.309 3.908-2.593.173-.257.39-.5.459-.809zM1.445 8.247A14.5 14.5 0 0 1 3.284 5.38c.731 1.4 1.989 2.501 3.445 3.097 1.752.768 3.755.691 5.582.251-.031.32-.028.64-.024.961-1.936.851-4.128 1.245-6.22.808a9.84 9.84 0 0 1-4.622-2.249M22.452 2.22a14.2 14.2 0 0 1 2.229 1.711 7.9 7.9 0 0 1-3.094 2.995c-1.392.702-3.023.781-4.533.486-.014-.274-.03-.547-.027-.82 1.255-.046 2.566-.324 3.565-1.13a5.62 5.62 0 0 0 1.861-3.242zM4.682 3.89c.65 1.175 1.635 2.157 2.78 2.854 1.448.87 3.231.984 4.86.67q.02-.412.017-.826c-1.277-.043-2.617-.336-3.616-1.179-.93-.837-1.603-1.98-1.796-3.225a16 16 0 0 0-2.244 1.704z"/></svg>