<svg xmlns="http://www.w3.org/2000/svg" xml:space="preserve" width="1024.002" height="750.202" viewBox="0 0 1024.002 750.202"><path d="M665.55 245.585c0-51.6-66.8-67-106.3-63.8-63.2 5.1-121 42.9-159.4 92.1q-.45.6-1.2.6c-.6 0-1.2-.4-1.4-1-23.5-66.9-72.9-122.5-140.6-145.4-.2-.1-.3-.1-.5-.2-1-.6-1.2-1.9-.6-2.8.1-.1.2-.3.3-.4l33.9-32c32.4-26.1 68-45.9 107-59.2 26.6-9.2 54.3-15 82.2-17 56.1-3.9 112.6 7.6 161.1 38.3 37.5 23.7 65 57.7 73.2 101.9.2 1.1-.2 1.9-1.1 2.5l-5.7 3.6-1.3 1.5c-4.5 1-8 3.3-10.6 6.9-.6.8-.7 1.7-.5 2.7 3.5 12 3.1 23.8-1 35.5v.3c.1.2.2.4.5.6.5.3.9.1 1.2-.4 4.5-9.7 5.7-19.9 3.4-30.6-.6-2.9-.5-5.3.5-7.1 1.2-2.2 2.7-2.8 4.7-1.9.7.4 1.1.9 1.1 1.7v9.6c0 .6.5 1.1 1.1 1.1.5 0 .9-.3 1-.7q2.25-5.55 2.1-12.3c1.1-.3 1.3-1.8.7-4.6 1.4-1.9 2.8-2.1 4.4-.5l1.7 26.3c0 .2.1.4.2.6.3.4 1 .4 1.4.1.2-.1.3-.3.3-.5 2.6-10.2 2.7-19.4.4-27.6-3.4-16.4-5.9-26.8-7.7-30.9-36.7-87.8-129.3-122.8-219.2-121.5-24.3.4-48.5 3.4-71.2 8.7-.9.2-1.7.1-2.4-.4l-14.9-9.5c113.7-26.8 253.1-2.4 307.9 114l8.5 28.3c.3.9.8 1.7 1.4 2.2 63.2 56.7 101 127.4 113.4 211.9.2 1.1-.3 1.7-1.5 1.7-10.9-.5-22.2-1.5-33.8-2.9-.2 0-.5-.1-.7-.1l-1.6-6.9h.5l8.7 1.3c.9.1 1.3-.3 1.3-1.2l-.7-11.6c-.1-.8-.5-1.6-1.2-2 1.3-.3 2.5-.8 3.6-1.4 2.3-1.4 4.3-3.6 5.4-7v-.1l2.1-7.2c1.1-3.8.3-6.8-1-9.2s-3.6-4.5-7.4-5.5l-95.9-24.2q-14.55-25.95-34.8-47.7c-12.4-13.4 1.1-43.3 9.1-55.8.4-.6 1-1 1.7-1 1 0 1.9.8 2 1.8 1.8 13.6-2 25.1-11.5 34.7q-.3.3-.3.6c0 .5.5 1 1 1h.3c14.7-4.9 16-33.6 10.6-46.1l-2.6-8.1c-.5-1.7-.9-1.6-1 .1-.2 2.4.5 5.1 2 8-9.3 12.1-15.3 24.4-18.2 36.9-.8 3.4-1.6 6-2.5 7.7-.5.9-.5 1.8-.3 2.8 5.9 21-.2 37.6-18.2 49.8l-30.6 26.6-39.5 6.3c-.2-4.2.3-6.2 3.5-9.4 5-5 7.1-11.1 13.7-15.9 2.1-1.5 3-3.3 2.4-5.8l1.9-.9c.9-.5 1.4-1.1 1.6-2.2.3-1.8-.6-2.8-2.7-2.9-1.2-2.8-1.4-5.6-.6-8.6.2-.9.8-1.4 1.6-1.8 3.3-1.4 5.5-3.7 6.5-6.9.1-.3.1-.6.1-.9 0-1.4-1.2-2.6-2.6-2.6-1 0-1.9.5-2.3 1.3-3 5.3-6 7.8-8.9 7.6-1.2-.1-1.5.4-.9 1.4l.5.8q.45.9 0 1.8c-4.5 8.4-10.1 15.7-17 22.2-.5.5-1 1.1-1.2 1.9-1.5 4.1-3.7 7.7-6.8 10.9-.4.4-.9.6-1.4.6-1.1 0-2-1.1-1.9-2.4 0-.6.3-1.2.6-1.6 7.2-8.3 13.1-17.3 17.9-27.1 0 0 0-.1.1-.1.1-.3-.1-.6-.5-.7h-1c-.6 0-1.2.3-1.6.9-4.2 7.6-8.9 14.9-14.2 21.9-.1.1-.9.7-2.5 1.9-1.2.8-2.3.8-3.4 0-.3-.3-.8-.4-1.2-.4-.9 0-1.6.5-2 1.3-.9 2.3-2.7 3.7-5.3 4.2-1.3.3-1.6-.2-1-1.3l15.5-27.1c3.4 1.7 5.2 1.4 5.4-1 .2-2-1.2-3.7-3.1-4.1-1.4-.2-2.4.3-2.9 1.4-1.6.5-2.8.2-3.7-.6-.6-.5-.7-1.4-.3-2l16.8-31.9c.4-.8.6-1.6.6-2.5v-1.4c0-1.1-.9-2-2-2-.9 0-1.7.6-2 1.5-2 7.9-5.5 15.2-10.4 21.8-3.2 4.3-5.6 8.4-7.1 12.4-3 7.8-6.6 15.3-10.8 22.3q-.75 1.2-2.1 1.2c-1.2 0-2.3-1-2.4-2.2l-1-11.3c-.1-.9-.9-1.6-1.8-1.6-.5 0-.9.2-1.2.5l-1.2 1.2c-.3.3-.7.5-1.1.5-.9 0-1.6-.7-1.6-1.6 0-.2 0-.4.1-.5l22.4-63.4c.5-1.3 0-1.9-1.4-1.8-1 0-1.9.3-2.7.8-.6.4-1.2 1.1-1.6 2.1-7.2 18.7-13.7 38.7-19.5 60.1-.4 1.4-1.7 2.4-3.1 2.4-.9 0-1.8-.4-2.4-1.1-1.3-1.4-2.7-1.7-4.2-1.1-1.2.5-1.7.2-1.4-1.1 2-9.3 6.6-17.6 5.4-27.1-.1-1.3-1.3-2.4-2.6-2.4-1.2 0-2.4.9-2.6 2.1l-16.3 78.5c-.3 1.3-1.3 2.3-2.6 2.6-2.7.5-3.9-.9-3.5-4.1 2.2-18.6 4.4-37.1 6.5-55.7.1-1.1.7-1.5 1.8-1.4 1.8.2 3.1-.7 3.8-2.6.4-1.1.3-2.1-.3-2.9-.6-1-1.6-1.5-3-1.6-.9-.1-1.4-.6-1.5-1.4-.1-.9.2-1.5 1-2 .9-.6 1.2-1.4 1.1-2.4-1-5.9-.8-11.7.7-17.5q.3-1.35 0-2.7c-.7-2.3 0-4.2 2-5.4 20.8-13 53.2-25.2 77.9-14.3 25.7 11.3 48.2 26.9 67.8 46.8.3.4.8.5 1.3.5 1 0 1.8-.7 1.9-1.7l1.3-9.6c-.1-.2-.1-.4.1-.7-4.9-18.1-17.1-30.6-36.6-37.8-59.6-21.8-123.8 4-168.4 45.3-.2.2-.5.3-.7.3-.6 0-1.1-.5-1.1-1.1v-.3c1.2-4.6.5-9-2.1-13.1-.6-1-.5-1.8.4-2.5 25.9-20.8 55-34.5 87.5-41.1 38.3-7.8 93.2-3.1 117.6 32 3.6 5.1 5.4 11.5 5.5 19 .2 2.7 1.3 4.5 3.2 5.4zm-1.1-106.7c2.5-.6 4.4.2 5.8 2.4 1.5 2.4.6 4.5.5 6.7-.3 4.4.9 4.9 3.6 1.4 12.1-15.6-36.3-32.5-14.8 11.8.3.5.3 1 .3 1.6 0 1.9-1.5 3.5-3.4 3.6s-3.4-.4-4.4-1.6c-.7-.8-1.1-1.7-1.3-2.8l-1.2-6.4c-.1-.6-.7-1.1-1.3-1.1s-1.1.4-1.2.9l-2.8 8.1c-.3.8-.1 1.5.4 2.2 5.5 6.6 18.1 11.3 22.7 2.3 3.5-7-1.2-19.4-4.2-26.3-.1-.3-.2-.5-.2-.8 0-1 .6-1.8 1.5-2m-239.5 90.6c8.5-2.1 13.6-11 11.5-19.8s-10.9-14.3-19.3-12.3-13.6 11-11.5 19.8 10.8 14.3 19.3 12.3m4.4-21.8c-4.2-6-11.3-8.3-15.8-5.1s-4.8 10.6-.6 16.6 11.3 8.3 15.8 5.1 4.8-10.5.6-16.6m199.5-23.7-4.5-2.2c-1.6-.8-2.1-.4-1.3 1.3 2.6 6.2 11.9 4.9 11.9-1.4 0-3.3-2.6-6.9-3.4-10.6v-.2c0-.6.5-1.2 1.2-1.2.3 0 .6.1.8.3l3 2.8c.7.7 1.3.6 1.8-.2.2-.4.3-.9.3-1.3-.1-.6-.4-1.1-1.1-1.7-2.4-1.9-4.8-2.4-7.3-1.5-1.9.6-3.1 2.4-3.1 4.4 0 1 .3 2 .9 2.8 1.8 2.4 2.6 5.1 2.3 8.2-.1.7-.6 1-1.5.5m-98.3-14.2-1.1-6.9c-.2-1.5.3-2 1.8-1.5 2.7 1 4.7.5 6-1.3 0-.1.1-.2.1-.2.2-.4-.1-.9-.5-1.1h-6.5c-1.1 0-1.7-.5-1.9-1.6l-.5-3.4v-.3c0-1.1.9-1.9 1.9-2l8.7-.3c.3 0 .6-.3.6-.7v-1.2c0-.7-.5-1.2-1.2-1.2h-.1l-14.1 1.4c-1.5.2-2.1 1-1.8 2.5l4.2 21.9c.2.9.7 1.3 1.6 1.1l13.9-2.5c.8-.1 1.4-.8 1.4-1.6 0-.9-.7-1.7-1.7-1.7h-.2q-3.6.3-7.8 2.1c-.3.1-.5.2-.8.2-1 .1-1.8-.7-2-1.7m109-58.5c-24.7-22.2-44.7 46.3-13.9 43.4 1-.1 1.8.3 2.5 1 3 3.6 6.9 5.9 11.8 6.8.7.2 1.3-.1 1.6-.8.6-1.4.5-2.8-.3-4.1-.5-.9-.6-1.9-.3-2.9l19-54.3c.4-1.2.2-2.2-.8-3l-14.1-12.8c-.3-.3-.7-.5-1.1-.5-.8 0-1.5.7-1.5 1.5q0 .45.3.9l3.2 5.4c.2.4.3.8.2 1.3l-4.5 17.5q-.45 1.95-2.1.6m-3.9 21.9c3-9.7 2.5-18.4-1-19.5s-8.8 5.9-11.7 15.6c-3 9.7-2.5 18.4 1 19.5s8.8-5.9 11.7-15.6m-35.9-31.6 1.3-7.9c.2-1.1-.5-2.2-1.6-2.4l-17.7-4.3h-.4c-1 0-1.9.8-1.9 1.9 0 .5.2 1.1.6 1.4 2.8 2.3 3.8 4.9 3.5 8.8-1 11.7-2.1 23.5-3.4 35.2-.4 3.7-2.4 5.4-6.1 5.3-3.3-.1-6-2.9-6-6.2v-.4c1.4-28 13.4-59.7-33.5-51.2-.9.2-1.7.9-1.9 1.8l-2.6 10.4v.3c0 .7.6 1.3 1.3 1.3.3 0 .7-.2 1-.4 5.4-5.4 11.7-6.7 18.7-4l1.2.6c2.3 1.7 2.8 4.9 1.1 7.2-.3.4-.6.7-1 1-10.5 8.3-22.6 8-25 23.5-2.6 16.8 11.8 24.3 25.9 14.5 1-.7 1.8-.5 2.3.5l1.5 2.6q.75 1.2 2.1 1.2c13.6-.1 26.9 1.8 39.9 5.8.9.3 1.5 0 2-.7l1-1.7c.1-.2.2-.4.2-.6 0-.5-.4-1-.9-1.1-2.6-.5-4.5-1.8-5.9-3.7-.5-.8-.8-1.6-.6-2.6 1.2-8.8-.4-36.1 16.7-27.2q1.35.6 2.4-.3l6.8-6.6c.1-.1.1-.2.2-.2.5-.8.4-1.9-.4-2.4-.1-.1-.2-.1-.3-.2l-7.8-3.8c-.8-.3-1.7-.3-2.4.2l-8.6 5.6c-1.5.9-2.1.5-1.7-1.2m-59.4 28.2c2.8 4.3 10.3 4.9 12.1-.6 1.5-4.6 1.9-11 1.3-19.4-.1-1-.5-1.2-1.4-.8-6.1 3.1-17 13.2-12 20.8m-57.8 30.4-20.2 8.6c-1.4.6-1.7 1.5-.9 2.8l.5.9c.5.7 1 .8 1.5.2 2-2.3 4.1-3 6.1-1.9 1.1.6 2.1 1.9 2.9 3.9 2 5.4 4.2 10.8 6.5 16.1.4.8 1 1.2 1.9 1.1 2.8-.3 3.7-1.6 2.8-4-2.4-6.2-4.9-12.1-7.5-17.6-.6-1.4-.2-3 1.1-3.8l6.6-4c.4-.2.6-.6.6-1.1 0-.7-.5-1.2-1.2-1.2-.3-.2-.5-.1-.7 0m161.8 21.4c.5-1 .5-1.9-.1-2.9l-1.4-2.4c-.1-.2-.2-.4-.2-.7 0-.7.6-1.3 1.3-1.3.3 0 .5.1.8.3l6.5 4.6c1.1.8 1.1 1.6 0 2.3-4.2 2.9-7 6.9-8.5 11.9 0 .1-.1.2-.1.3-.4.6-1.2.8-1.8.4-.1-.1-.2-.1-.3-.2l-.8-.8c-.6-.6-.7-1.5-.3-2.2zm-202.9 10.8c-1.9-1.3-2.9-3-3-5.4-.1-1.1.5-2.1 1.4-2.6 2.8-1.6 5.7-3 8.6-4.4.5-.3.9-.5 1-.9q.3-.75 0-1.5-.9-1.95-2.7-.9l-15.2 9.2c-.8.5-1 1.1-.5 1.9l14.9 22.6c.4.5 1 .9 1.6.9.5 0 1-.2 1.4-.6l1.2-1.1c.6-.6.7-1.4.2-2.1l-6.3-9.2c-.5-.8-.3-1.9.5-2.4l5.8-3.8c.5-.3.7-.8.7-1.4v-1.1c0-.5-.4-.9-.9-.9-.2 0-.3 0-.5.1l-6.1 3.6q-1.05.75-2.1 0m128-22.5c-.8.4-1.6.5-2.4.5-2.6 0-4.9-1.7-5.7-4.2-2.2-7.2-.2-12.4 6-15.3.8-.4 1.6-.3 2.3.1l5.1 3c1 .6 1.7.4 2.1-.7.2-.4.2-.7.1-1.1-.1-.6-.6-1.1-1.4-1.6-6.1-3.5-11.4-3.3-15.9.8-12.5 11.2 4.1 30.4 16.1 18.6.3-.3.4-.6.4-1 0-.7-.6-1.4-1.4-1.4-.2 0-.4 0-.6.1zm-62.6-5.5-7.4 1.5c-1 .2-1.9-.4-2.2-1.4l-1.8-6.7c-.3-1.2-1.1-1.6-2.3-1.3l-2.2.6c-1.2.3-1.6 1.1-1.2 2.2l7.8 23c.4 1.2 1.2 1.5 2.3.9l1.3-.8c1-.6 1.3-1.5 1-2.6l-2.9-9.1c-.1-.2-.1-.4-.1-.6 0-.9.6-1.6 1.4-1.8l6.6-1.7h.1c1-.2 2 .4 2.2 1.4v.1c.5 3.3 1.2 6.3 2 8.8.3 1.1 1.3 1.8 2.4 1.8 1.4 0 2.5-1.1 2.5-2.5 0-.2 0-.4-.1-.7l-4.9-21.9c-.2-.9-.7-1.2-1.6-1.1l-2.7.3q-1.95.15-1.5 2.1l1.9 8.2c.1.6-.1.9-.7 1zm96-.8c0-6.4-5.2-11.6-11.6-11.6s-11.6 5.2-11.6 11.6 5.2 11.6 11.6 11.6 11.6-5.2 11.6-11.6m-5.4 1.5c1.2-5-.6-9.6-4-10.4s-7.1 2.6-8.3 7.5.6 9.6 4 10.4 7.1-2.5 8.3-7.5m-190.8-96.9c.5.2.9.3 1.4.3.7-.1 1.2-.7 1.2-1.4 0-.5-.3-1-.7-1.2l-4.3-2.6c-.2-.1-.5-.2-.7-.2-.7 0-1.4.6-1.4 1.4v.3c.4 2.1 1.5 3.2 3.3 3.2.5-.1.8 0 1.2.2m207.7 97.6c.3.1.5.3.7.6q.3.6 0 1.5c-1.2 4-1.4 8.1-.7 12.4.2 1.1 1.1 1.8 2.1 1.8 1.2 0 2.1-.9 2.2-2.1l.8-17.2v-.2c0-1.9-1.5-3.4-3.4-3.4-1.1 0-2.1.5-2.8 1.4l-10.4 15.1c-.1.2-.2.4-.2.6 0 .6.5 1.1 1.1 1.1.2 0 .4-.1.6-.2 4.1-2.8 7.1-6.5 8.8-11 .3-.6.6-.7 1.2-.4m-171.8-110.1c3.5.6 4.1-1.1 2-5.3-.5-1-1.2-1.2-2-.4l-1.8 1.6-8.3-18.6c-.4-.9-.9-1-1.4-.1-.4.6-.4 1.3-.2 2.2 3 12.1 5.9 24.3 8.5 36.6.2 1-.2 1.4-1.2 1.3-2.7-.5-5.1-1.9-7.2-4.1 3.2-4.9 4-9.9 2.4-14.9-.3-1.1-1-1.4-2.1-1l-18.2 6.5c-4.8-1.6-10-4.1-15.5-7.3-.5-.3-1-.3-1.4-.1-.6.5-.7.9 0 1.3l38.2 27.3c.4.3.6.6.6 1.1 0 .6-.4 1.1-1 1.3l-3.5.8-7.3-6.6c-1.5-1.3-1.9-1.1-1.1.7l3.5 8.4-22.9 10.6-19.9-24.7c-.7-.9-1.5-1-2.5-.5l-9.5 5.1c-1.1.6-1.5 1.5-1.1 2.7l8.4 25.9c.3.9 0 2-.8 2.6-1.5 1.2-3.1 2.1-4.9 2.7-.3.1-.5.3-.7.6l-.5.8v.2c0 .2.2.4.4.4h.1l9.2-2.7 55.7-17.9c1.1-.3 1.5.1 1.3 1.2-.3 1.5-1.1 3.1-2.5 4.8-3-.7-5.4-.4-7.4 1-.9.6-1.1 1.4-.9 2.5l2.5 11c.4 4-.8 8.2-3.5 12.5l-16-20.3c-.6-.8-1.6-1.1-2.6-.8l-25.7 7.2c-1.1.3-1.7 1.5-1.4 2.7l11.7 35.1c.6 1.8.2 2.1-1.1.7-13.9-13.4-27.2-27.3-40.2-41.7-4.4-4.9-4.1-9.7 1.8-12.8.9-.5 1.3-1.2 1-2.2l-.8-3.4c-.5-1.9-1.4-2.3-3-1.1l-39.3 28.8q-1.2.9-.9 2.4c.5 2.5 2.2 3.3 5.3 2.5q.75-.15 1.2-.6c4.5-3.1 8.5-3 12 .2 25.4 22.8 50 45 73.6 66.8 1.2 1.1 2.8 1.8 4.5 1.8 3.6 0 6.6-3 6.6-6.6 0-.6-.1-1.3-.3-1.9l-17.4-59.4c-.7-2.4-.3-2.7 1.4-.8l21 24.5c.6.7.8 1.8.5 2.7l-2.5 6.9c-.1.1-.1.3-.1.4 0 .5.4.9.9.9.4 0 .7-.2.8-.5l2.8-5.3c.6-1.1 1.2-1.1 2-.2l13.7 16.4c.7.9 1.7 1.5 2.7 1.9 3.3 1.2 7.1-.5 8.4-3.8.4-1.1.5-2.2.4-3.3l-6.7-42.7c-.1-.4-.3-.9-.6-1.2-.9-.9-2.3-.9-3.2-.1-.3.3-.5.8-.6 1.2-1.5 8.7-5.1 15.4-10.5 20l20-42.5q.9-1.95 1.8 0l21.3 47.9c-1-.1-1.7-.2-2.3-.4-1.2-.4-1.9-.6-1.9-.7-5.7-13.2-11.5-26.3-17.7-39.2-.2-.3-.3-.5-.5-.6-.2 0-.5 0-.8.2-.7.4-.9 1-.6 1.7 6.6 18.6 11.6 32.1 15.1 40.5 2 5 1.2 8.7-2.6 11.2-.9.6-1 1.3-.2 2.1l.7.7c.6.6 1.4.7 2.2.4 20.3-9.3 41.4-15.3 63.5-17.9 1.1-.1 1.5-.7 1.5-1.8l-.4-16.6v-.2c-.1-.8-.8-1.3-1.6-1.2h-.2l-1 .3c-1 .3-1.7 1.2-1.7 2.2-.2 7.7-3.9 12.3-11 13.9h-.3c-.8 0-1.5-.7-1.5-1.5 0-.1 0-.3.1-.4l15.1-54.3c0-.1.1-.3.1-.4.1-1.1-.7-2-1.8-2.1h-.4l-44.5 6.2c-1.6.2-2.1 1.1-1.7 2.6l2.9 9.9-15.5-11.5c-1.5-1.1-1.4-1.9.5-2.3 20.5-4.7 40.2-9 58.9-13.1.5-.1.8-.3 1-.6.3-.5.2-.8-.5-.7l-54.7 5.8c-.3 0-.5-.3-.5-.5s.1-.3.3-.4c84.1-50.4 192.9-26.4 231.4 69.1.3.9.9 1 1.5.3.5-.5.6-1.1.3-1.9-37.6-96.5-152.6-127.8-239-76.1-.2.1-.4.2-.6.2-.6 0-1.2-.5-1.2-1.2 0-.1 0-.3.1-.3l13.1-37.6q.15-.45-.3-.6c-.2-.1-.5-.2-.7-.2s-.4 0-.5.2l-21.1 41.5c-.7 1.4-1.3 1.3-1.8-.1l-5.1-13.7zm55.6 60.5 6.8-24.4c.3-1.1-.1-1.7-1.3-1.8-10-.7-17.1 3.9-21.6 13.9zm-1.1 4c0-.9-.4-1.6-1.1-2-13.2-8.3-26.6-16.3-40.3-24.2-1.1-.6-1.6-.3-1.7.9-.1 1.7.9 3.5 3.2 5.2 1 0 2.2.4 3.5 1.1q1.5.75 2.1 2.4l14.6 41.4c.3.7.9 1.3 1.6 1.4l7.8 1.5c.8.2 1.7-.3 2-1.1zm-197 400.8-22.3.3c-1.2 0-1.6.6-1 1.7 84.4 158.6 299.8 182.1 413.1 40.3 1.5 1.5 3.5 2.6 6.1 3.1l.5.1-5.1 16.8c-.3 1 .1 1.6 1.1 1.8l80.9 19.4c1.2.3 1.5 1 .7 2-144 198.5-438.5 190.7-568.4-19.2-.1-.1-.1-.2-.1-.3-.3-.7.1-1.6.9-1.9.1 0 .2-.1.3-.1l18.6-2.5c1.1-.1 1.5-.7 1.3-1.8l-2.3-15.4c-.1-.9-.7-1.4-1.6-1.4h-12.4c.3-2.4-4.5-18.1-6.5-20.1s-4.9-3.6-9.1-3.4l-12.9.5-5.1-17.5c-.4-1.5.1-2.4 1.7-2.7 88.7-15.6 184.6-10.2 274.1-4l39.6 3-2.3 8.6-98.3-6.2-45.8 54.8c-.9 1.1-1.8 1.1-2.7.1l-28-30.6c-1-1.1-.9-2 .2-2.9 8.2-6.7 22.3-21.4 33.1-18.1 1 .3 1.1.7.2 1.4-2.6 2-5.1 3.9-7.6 5.7-3.1 2.3-3.9 4.3-2.3 6.1 1 1 2.5 1 3.5.1l12.4-12.5c.8-.8 1.7-.9 2.6-.1l3.6 3c.3.2.6.3 1 .3.5 0 1-.3 1.3-.7l3-4.5c.1-.1.3-.2.5-.2.3 0 .5.2.5.5l.2.9q.15 1.05-.6 1.8c-8.2 7.6-17.6 19.4-26.5 25.4-3 2-2.5 3.8 1.3 5.5 1.2.5 2.6.2 3.5-.7l32.3-32.4c.6-.6.7-1.3.2-2.1l-.6-.9-43.1-1.1q-4.65 5.55-10.5 10.2c-3.2 2.6-8.4 3.4-11.5 7.4-.6.8-1.2.7-1.7-.1zm345.7 133.4-7.1-11.1q-1.2-1.8-3-.6l-3.9 2.5c-.9.5-1.1 1.3-.5 2.2l23.3 35.9c.5.8 1.2 1 2.1.5l4.6-2.8c.1 0 .1-.1.2-.1.8-.6.9-1.8.3-2.6 0-.1-.1-.1-.1-.2-3.7-3.8-6-8.3-6.6-13.5v-.2c0-.8.7-1.5 1.5-1.5.3 0 .7.1.9.3l12.8 9.6c.9.7 2.1.7 3 .1l5.2-3.5c.7-.5.8-1 0-1.5l-22.1-15.7c-1-.7-1.5-1.6-1.5-2.8l-1-16.3c-.1-1.2-.6-1.4-1.6-.8l-4.6 2.8c-.9.5-1.3 1.4-1.2 2.4l1.4 16.4c0 .2 0 .4-.1.6-.3.5-.9.8-1.5.5-.2-.2-.4-.4-.5-.6m-303.3 5.4-3.6 24c0 .3-.1.5-.1.7 0 2.6 2.1 4.6 4.6 4.6 1.6 0 3.2-.9 4-2.3l20.4-33.9c.5-.9.3-2.1-.6-2.7l-3.8-2.4c-.9-.5-1.6-.3-2.1.5l-11.9 20.6c-.1.2-.4.3-.6.3-.4 0-.7-.3-.7-.7v-.1l4.4-24.7c.2-1 0-2-.4-2.9-1.1-2.5-4.1-3.5-6.5-2.4-.9.4-1.7 1.1-2.2 2l-20.3 33.9q-1.05 1.8.6 3l2.3 1.8c.4.3.9.5 1.5.5.9 0 1.7-.5 2.1-1.2l11.4-19.2c1.4-1.8 1.8-1.7 1.5.6m264.6 29.9c6.6 3.2 11.7 17 20 9 .6-.6.7-1.2 0-1.8l-11.5-11.5c-.7-.7-.8-1.9-.3-2.7 6.3-9.6-.6-21.7-11.8-22.4-3.1-.2-8.3 1.9-15.8 6.4-.9.5-1.1 1.2-.7 2.1l16.2 38.8c.3.8.9 1 1.7.7l5.2-2.2c.6-.3 1-.9 1-1.6 0-.3-.1-.5-.2-.7l-5.6-12.6q-1.05-2.85 1.8-1.5m-8.6-17 2.7 7.8c.4 1 1.5 1.6 2.6 1.2l.8-.3c3.4-1.2 5.4-4.6 4.4-7.5l-.3-.9c-1-2.9-4.7-4.4-8.2-3.2l-.7.2c-.8.3-1.4 1.1-1.4 1.9 0 .3 0 .6.1.8m-204.9 8.1c-.9-.9-1.3-2.1-1.3-3.4 0-2.7 2.2-5 5-5 1.1 0 2.1.3 2.9 1 2.9 2.1 6 2.9 9.1 2.6 1.1-.1 1.8-.8 2-1.9l.5-2.7c.2-1.2-.2-1.9-1.3-2.3l-18.4-6.9c-.2-.1-.4-.1-.6-.1-.7 0-1.4.5-1.6 1.2l-14.7 39.6c-.4 1-.1 1.7 1 2.1l19.3 7.3c1.1.4 2.3-.1 2.7-1.2l1.5-3.7c.1-.2.1-.5.1-.7 0-.8-.5-1.6-1.3-1.9l-11.4-4.2c-.8-.3-1.3-1-1.3-1.9 0-.3 0-.5.1-.7l3.1-8.3c.3-.6.9-1.1 1.6-1.1.4 0 .7.1 1 .3 2.5 1.6 4.7 2.2 6.7 1.8 1.8-.4 3-2 3-3.7 0-1.9-1.4-3.5-3.3-3.8-1.8-.4-3.3-1.2-4.4-2.4m-91.9-59.4c-.3-.3-.4-.7-.3-1.1l4.2-11.1c0-.1.1-.2.1-.3 0-.5-.5-1-1-1-.2 0-.4 0-.5.1l-10.2 6c-.4.2-.8.2-1.1-.1l-9.3-7.5c-.2-.1-.4-.2-.6-.2-.5 0-1 .5-1 1v.2l2.6 11.6c.1.4-.1.8-.4 1l-10 6.5c-.3.2-.4.5-.4.8 0 .5.4.9.9 1l11.8 1.2c.4 0 .7.3.8.7l3.1 11.5c.1.4.5.7 1 .7q.6 0 .9-.6l4.8-10.9c.2-.4.5-.6 1-.6l11.9.6h.1c.5 0 1-.5 1-1 0-.3-.1-.5-.4-.7zm148.9 65.5 5.4 1c.9.2 1.7-.3 2-1.2l1.4-4.5c.4-1.3-.1-2.1-1.4-2.3l-23.4-4.4c-1.1-.2-1.8.2-2 1.3l-1.5 6.1v.3c0 .7.6 1.3 1.3 1.3.1 0 .3 0 .4-.1 3.4-1.2 5.6-.7 6.6 1.3.5 1.1.5 2.8 0 5.2-1.9 9.7-3.7 19.5-5.4 29.3-.2 1.3.3 2 1.6 2.1l4.2.3c1.2.1 2.3-.8 2.6-2l5.9-32.3c.2-1.1 1-1.6 2.3-1.4m261.3-69.2c-.3-.2-.5-.6-.5-1l2-11.8v-.2c0-.5-.5-1-1-1-.3 0-.5.1-.7.3l-8.8 8.2c-.3.3-.8.3-1.1.2l-10.6-5.6c-.1-.1-.3-.1-.5-.1-.5 0-1 .5-1 1 0 .1 0 .3.1.4l5.1 10.9c.2.4.1.8-.2 1.1l-8.6 8.4c-.2.2-.3.4-.3.7 0 .5.5 1 1 1h.1l11.9-1.4c.4-.1.8.2 1 .5l5.3 10.8c.2.3.5.5.9.5.5 0 .9-.3 1-.8l2.3-11.8c.1-.4.4-.7.8-.8l11.9-1.7c.5-.1.8-.5.8-1 0-.3-.2-.7-.5-.8zm-152.1 104.8c8.3-1.7 13.1-13.7 10.5-26.6s-11.5-22.1-19.9-20.5-13.1 13.7-10.5 26.6 11.6 22.1 19.9 20.5m1.7-24.8c-1.7-8.2-5.9-14.3-9.4-13.6s-5 8-3.3 16.2 5.9 14.3 9.4 13.6 5-8 3.3-16.2m-73.6 9.2-2.5-22.1c-.2-1.5-1-2.2-2.5-2.2h-4.2c-1.1 0-1.6.6-1.4 1.7l7.3 41.2c.4 1.9 2 3.2 3.9 3.2s3.5-1.3 3.9-3.2l4.2-23.6c.1-.3.3-.5.6-.5s.5.2.6.5c1.9 7.9 3.7 15.5 5.6 22.8.7 2.8 2.6 3.8 5.6 2.9 1-.3 1.7-1.1 1.9-2.1l6.1-41.8c.2-1.6-.5-2.3-2-2l-4.5.8c-.8.1-1.3.6-1.4 1.4l-2.3 23.9c-.1.4-.4.6-.8.6s-.7-.3-.8-.6c-.9-7.5-3-14.8-3.9-22.3-.3-2.3-1.7-3.5-4.3-3.7-1.8-.1-3.4 1.1-3.8 2.9l-4.2 22.2c-.1.3-.4.5-.7.5s-.4-.1-.4-.5m-103.1-419.3c-5.7-19.7-14.1-37.5-25.3-53.3-.4-.6-1.1-1-1.9-1-.5 0-1 .2-1.3.4-9.8 7.2-18.6 15.5-26.4 24.8-.6.8-.6 1.5.1 2.2l24.8 24.6c.3.5 30 2.3 30 2.3m-39.3-2.4-18.8-21.4c-.7-.8-1.4-.7-2 .1l-13.4 17.3c-.6.8-.8 1.7-.4 2.7 1 2.3 2.8 3.6 5.3 3.8.9.1 1.7.5 2.4 1.1l2 2.1.2-5c0-1.2.6-1.8 1.8-1.7zm-25.1 12.6-11.5-9c-1.1-.9-2-.7-2.8.4l-2.2 3q-.75 1.05.3 1.8l11 7.4c.8.5 1.6.7 2.6.6l2-.3q1.35-2.7.6-3.9m-11.3 7.3c2.9.5 3.3-.2 1.1-2.2-2.3-2.1-4.9-3.8-7.9-5.1-1-.4-1.7-.2-2.2.7l-2.9 5c-.2.3-.2.5-.2.8 0 .9.7 1.6 1.6 1.6.2 0 .4 0 .5-.1 3.3-1.1 6.6-1.3 10-.7m131.6 224.3c.1-.2.2-.5.3-.8q.15-.45.6-.6c.5-.2 1.2.2 1.4.9.1.3.1.7 0 1l-29.9 88.9c-.4 1.2-1.2 1.5-2.4 1l-17.9-8.1c-1.1-.5-1.4-1.3-.9-2.5 10.8-23.4 21.8-46.6 32.9-69.6 1.6-3.4 2.9-8.3 6.5-11 .3-.2.7-.3 1.1-.3 1 0 1.8.8 1.8 1.8 0 .2 0 .4-.1.6l-3.8 10.1c0 .1 0 .1-.1.2-.1.6.3 1.3.9 1.4h.2c1.8.1 3-.8 3.5-2.7 1-3.7 2.8-6.8 5.4-9.4.2-.4.3-.6.5-.9m154.5 70.9-28-49.2c-.4-.7-.6-1.4-.6-2.2 0-2.4 2-4.4 4.4-4.4.8 0 1.5.2 2.2.6l2 1.1c.8.5 1.6.7 2.5.6 9-.5 17.8.6 26.3 3.4.8.3 1.6.8 2.1 1.4 7 7.9 15.5-7.5 22.9 4.9 0 .1.1.2.2.2.4.4 1.1.4 1.5 0l.2-.2c.1-.3.2-.5.3-.8.1-1.3.9-1.9 2.2-1.7l32.6 3.6c.1 0 .3 0 .4.1.5.3.8 1 .5 1.5-.1.1-.1.2-.2.3l-23.2 22.6c-.8.7-1.7 1.2-2.8 1.4-5.4 1-6.2 5.4-9.9 8.2-9.3 7-18.9 13.2-29.1 18.6-1.7.9-2.2.5-1.5-1.3 1.2-3.1.3-5.3-2.8-6.8-.9-.3-1.6-1-2.2-1.9m31.5-27.7c1.4 1.3 2.6 1.2 3.7-.3.6-.8.7-1.8.2-2.7-.4-.7-.9-1.3-1.6-1.7-.6-.3-1.3-.5-2.1-.4-1.8.1-3.1 1.3-3 2.7q0 .9.9 1.5.75.6 1.2.6c.2 0 .5.1.7.3m-154.7 8.7c-3.8 5.2-5 11.9-3.5 19.9 0 .3.1.5.1.8 0 2.2-1.8 3.9-3.9 3.9-.6 0-1.2-.1-1.7-.4-1.1-.5-1.5-2.5-1-5.7 2.4-14.4 2.6-28.9.5-43.4q-.15-1.65-1.8-1.8c-5.6-.7-6.4 3.6-6.6 8.4q-.15 9-4.8 16.5c-.5.8-1.3 1.2-2.2 1.2-1.4 0-2.6-1.2-2.6-2.6 0-.2 0-.3.1-.5l6.5-28.2v-.2c0-.5-.5-1-1-1q-.6 0-.9.6l-9.8 25.9c-.2.5-.6.7-1.1.6l-1-.2c-.4 0-.6-.3-.6-.7v-.2l4.6-15.7c.1-.3 0-.6-.4-.7-.3-.1-.6-.2-1-.3-.3-.1-.4 0-.5.3l-19.4 62.8c-.4 1.3.3 2.7 1.6 3.1 39.6 13.5 80.1 16.3 121.5 8.6 11.3-2.1 22-5.6 32-10.5.8-.4 1.1-1.3.7-2.1l-11-22.9c-.3-.6-1-1.1-1.7-1.1l-10.4-.2c-5-.1-6.7 2.2-5 6.9l6.2 17.2c.4 1.1 0 1.9-1 2.4l-1.3.6c-.5.2-1 0-1.2-.5l-10-25.9c-.4-1-1.3-1.7-2.3-1.7-16-1.3-32-.7-47.9 1.8-1 .1-1.5-.3-1.6-1.2l-1.3-14.7-3.8.2c1.2 16-.3 31.5-4.4 46.7-.3.9-1.1 1.4-2 1.3-1.5-.1-2.3-1.1-2.2-2.8.2-14.5.1-29.1-.4-43.7-.8 0-1.7-.2-2.5-.8m-114.3-1.2q-.75.9-1.8.6l-4.1-.9h-.3c-.8 0-1.5.7-1.5 1.5 0 .4.2.8.5 1.1 10.1 9.3 21.3 17.3 33.4 23.9q1.2.75 1.8-.6l15.2-29.4c.3-.6.1-1-.6-1.1l-1.3-.1c-1-.1-1.5.3-1.7 1.3-.5 2.3-1.7 3.8-3.7 4.5-.2.1-.4.1-.6.1-.9 0-1.6-.7-1.6-1.6 0-.3.1-.5.2-.8l13.2-24.5c.7-1.3.3-2-1.2-2h-2.1c-.9 0-1.5.5-1.7 1.3q-2.25 9.3-11.7 9.3c-1.1 0-1.9.5-2.4 1.4-4.8 9.1-10.4 17.6-16.7 25.7-.3.4-.6.6-.9.7-.4.1-.7.2-1 .1-1.4-.3-1.8-1-1-2.2l18.5-29.1q.3-.45.3-.9c.3-3.1-1-5-3.8-5.7-1-.2-1.7 0-2.3.8l-9.3 11.3c-.7.8-.6 1.6.1 2.4l.7.7c.3.3.4.7.4 1.1 0 .8-.7 1.5-1.5 1.5h-3.5c-.7 0-1.3.3-1.7.9-2.1 3.1-4.1 5.9-6.3 8.7m212-1.3h-.1c-.5 0-.8.3-.9.7-.8 6.7 1 12.3 5.4 17 .6.7 1.2 1.5 1.5 2.3l7.4 18.6c.6 1.5 1.6 1.9 3 1.1l8.7-5c1.2-.6 1.4-1.6.7-2.7l-16.8-29.5c-.5-.9-1.2-1.3-2.1-1.5zm-331.5-186.2c-4.1-1.3-8.4-1.6-13.1-1 10.2-72.3-46.9-88.5-101.9-61.7-.8.4-1.2 1.1-1 2l9.8 72.2c3.7 25.8 8 52.7 12.8 80.8 3.7 21.8 8.6 43.2 14.6 64.3.5 1.9 2.3 3.2 4.3 3.1l31.7-1.3c1.1-.1 1.7.5 1.6 1.6-.1 3.3.7 6.3 2.6 9 .9 1.2.5 1.9-1 2.1-44.2 5.4-88.2 12.4-131.9 20.8-.2 0-.4.1-.6.1-1.6 0-3-1.2-3.1-2.8l-.7-8c-.1-1 .5-1.9 1.5-2.2l19.7-5.9c1.8-.5 2.9-2.2 2.8-4.1-3.5-49.6-13.3-98.2-20.7-146.8-4.6-29.4-8.7-62.3-18.2-89.4-.3-1-1-1.4-2-1.5l-22.3-.9c-1.1 0-1.7-.6-1.9-1.6l-1.5-8.4c-.2-1.3.3-2 1.6-2.2 62.2-7.8 111.9-18.6 168-28.3 26.9-4.7 61.6-3.9 82.8 16.2 22.9 21.6 27.8 56.5 19.3 86.2-17.1 55.7-78.8 74.4-131 74.5-1.3 0-1.9-.6-1.7-1.9l3.7-26.7c.2-1.1.8-1.7 1.9-1.8l22.8-1.7c-1.4 3.2-2 5.8-1.8 7.7 0 .1 0 .2.1.3.2.5.9.8 1.4.6.1 0 .2-.1.3-.2l17.8-14.3c.7-.6 1.7-.6 2.4-.2l18.9 11.1c.2.1.4.2.6.2.6 0 1.2-.5 1.2-1.2 0-.1 0-.3-.1-.4l-7.7-20.4q-.6-1.5.6-2.4zm2.2-45.7-6.6.3c-.4 0-.7.1-1 .4-.8.6-.9 1.7-.3 2.5q.3.45.9.6c3.2 1 5.9 4.6 5.9 4.6s.1 4.9-2 8.1c-.1.2-.2.5-.2.7 0 .7.6 1.2 1.2 1.2.3 0 .5-.1.8-.3l6.9-5.3c.6-.5 1.4-.5 2-.2l6.4 3.6c.3.1.5.2.8.2.8-.1 1.5-.8 1.4-1.6 0-.3-.1-.6-.3-.8-2-2.8-2.3-7.2-2.3-7.2s2.6-4.3 6.3-5.7c.5-.2.8-.6.8-1.1 0-.7-.5-1.2-1.2-1.2h-8.2c-1 0-1.8-.5-2.2-1.4l-2.7-6c-.2-.5-.8-.8-1.3-.8-.7 0-1.2.5-1.4 1.1l-1.7 6.8c-.3.8-1.1 1.4-2 1.5m152.2 13.5 5.2-46.7c.1-1.1 1-2 2.1-2.1l20.9-2.4c1-.1 1.5-.6 1.5-1.6l.9-10.5c.1-1.2-.5-1.9-1.7-2l-93.8-5c-1.3-.1-2 .5-2 1.9v10.5c0 1.1.6 1.9 1.7 2.2 4 1.1 12.5 2.7 15 5.9 1.5 2 .2 6.6.2 6.6l5.8 9.8 6.8-.4s.4-.1.6-.1c.9 0 1.5.7 1.5 1.5 0 .4-.2.8-.5 1.1l-5.7 4.8c-.6.5-.8 1.4-.5 2.1l2.9 7.6q.9 2.4-1.5 1.5l-9.9-3.7c1.9 4.2 2.2 9 1.2 14.5-2 33.5-1.5 65.9-8.5 100.3-.2.9-1 1.7-1.9 1.8l-12.3 1.8c-1.8.3-3.2 1.8-3.2 3.6l-.2 9.2c0 .9.7 1.7 1.7 1.8l160.2 7.8c1.3.1 2.1-.5 2.5-1.8l9.2-33.6c.3-1.1-.1-1.9-1-2.5l-4.8-2.7c-1.2-.7-2.8-.3-3.6.9l-5.8 8.9c-.5.8-1.2 1.3-2.2 1.5-27 5.3-54 5.7-81 1.4-2.2-.3-3.2-1.6-3.1-3.8l3.2-90.2zm374.2 29.9 17.8 19q1.95 2.1-.9 1.8l-31.2-3.8c-.9-.1-1.6.2-2 1l-6.4 11.2c4.4 11.7 18 40.5 14.8 51.5-7.5 26-16.3 51.5-26.4 76.8-.4 1-1.1 1.5-2.2 1.5-7.4.2-14.8-.7-22-2.6-6.9-1.9-12.3.5-11.2 8.3.1.7.5 1.2 1.2 1.3 45.5 10 90.2 21.9 135.2 33.9.2 0 .3.1.5.1 1 0 2-.7 2.1-1.8l1.2-5.9c.3-1.5-.2-2.5-1.6-3l-26.1-10.5c-1-.4-1.3-1.1-1.1-2.1 4.1-21.5 8.8-42.9 14-64.2 2.4-10 4.2-19.5 12.3-26.7 32.7-28.9 65.1-58 97.1-87.2 18.8-16.6 37.8-32.8 57.2-48.4 9.7-7.9 19.8-5.6 31.2-3.7 1.1.2 2.2-.6 2.4-1.7l1.3-6.7c.2-.8-.2-1.3-1-1.5l-85.8-21.7c-.1 0-.3-.1-.5-.1-.8 0-1.5.5-1.7 1.3l-1.4 5.8c-.3 1 .3 2.1 1.2 2.6l15.2 7.8c.1 0 .2.1.2.1.8.6 1.1 1.8.5 2.6l-.2.2-46.5 48.8-85.3 82.3c-.5.4-1 .7-1.6.7-1 0-1.9-.6-2.2-1.6l-22.8-67.3-12.6-55.1v-.5c0-1.1 1-2.1 2.1-2.1h.4l19.2 3.6c1.2.2 1.9-.2 2.2-1.3l2.1-7.1c.3-.9-.1-1.5-1-1.8l-119.2-30c-.2 0-.3-.1-.5-.1-.9 0-1.7.6-1.9 1.5l-2.3 9.3c-.2.8.2 1.7 1 2.1l19.7 8.7q1.2.6 1.8 1.8l13.4 27.1 26.2 22.4c.8.7 1.9.8 2.8.4l28.5-13.6c.2-.1.3-.1.5-.1.6 0 1.2.5 1.2 1.2 0 .2 0 .4-.1.5l-13.2 28.1c-.5 1-.4 2 .2 3 1.1 1.3 2.4 2.7 4.2 3.9m-128.3-29.4q28.65 64.95 64.5 128.7c.5.9 1.2 1.3 2.3 1.1 4-.5 8.1-.4 12.3.6 1 .2 2 .8 2.6 1.6 1.8 2 1.6 5.2-.5 7-.8.7-1.8 1.1-2.8 1.2l-86.5 8.5h-.5c-2.7 0-5-2.2-5-5 0-2.1 1.3-4 3.3-4.7l10.5-3.7c2.3-.8 3.5-3.4 2.7-5.7l-7-19.8 7.8 3.6c.2.1.3.1.5.1.6 0 1.2-.5 1.2-1.1 0-.2 0-.3-.1-.4l-3.9-9.7c-.4-1-.2-1.8.6-2.5l7.7-6.9c1.3-1.1 1.1-1.7-.6-1.7h-10.5c-1.1 0-1.9-.5-2.3-1.5l-4.2-9.9c-.2-.5-.6-.7-1.1-.7-.6 0-1.2.5-1.2 1.1-.1 2-2.8 8.9-2.8 8.9s-6.6-13.1-7.6-13.1l-65.9 6.5c-.9.1-1.4.6-1.6 1.5l-22.5 111.6c-.3 1.5.6 3.1 2.2 3.5l13.7 3.8c1.2.3 2.1 1.1 2.8 2 1.6 2.3 1.1 5.6-1.3 7.2-1 .7-2.2 1-3.4.9-20.2-1.7-40.3-1.5-60.4.6-.3 0-.5.1-.7.1-2.9 0-5.3-2.4-5.3-5.3 0-2.5 1.8-4.7 4.3-5.2 4.3-1 8.1-2.5 11.5-4.6 1-.6 1.6-1.5 1.9-2.6l42-157.8 21.5-80c.5-1.8 1.6-2.9 3.5-3.1l52.9-7.4c.9-.1 1.7.4 2.1 1.1zm-78.4 37.9-4.6 21.9v.4c0 1.1.9 2 2 2h.2l49-5.2h.3c1-.3 1.5-1.2 1.3-2.2 0-.1-.1-.2-.1-.3l-19.3-44.4-11.2-26.3c-.6-1.3-1.9-2.2-3.4-2.2-1.8 0-3.3 1.2-3.6 3zm80 23.3c-1-.5-1.8-.4-2.6.2-.1.1-.2.2-.3.4-.5.7-.3 1.7.5 2.1.1.1.3.2.4.2 4.7 1.3 5.9 4.2 3.4 8.6-.3.5-.2 1 .2 1.4l.8.8q.3.3.6.3c.3 0 .5-.1.7-.4 3-4.4 6.3-4.5 10-.5.2.2.5.4.9.4.7 0 1.2-.5 1.2-1.2v-.3l-1.7-5.4c-.3-.8 0-1.7.6-2.3l3.8-3.2c.3-.2.4-.6.4-.9 0-.7-.5-1.2-1.2-1.2h-.3c-5.1 1.2-7.8-.5-8.2-5.1 0-.5-.2-.8-.4-1-.3-.3-.8-.5-1.3-.5-.7 0-1.3.6-1.3 1.4.1 2.8-.9 4.8-2.9 6.2-1.2.5-2.2.6-3.3 0m-597.1-75.6c-.7-2.6-1.3-5.1-2.1-7.7l-34.3 8.5c-3.4 1.8-5.5 4.8-6.5 8.8-.2 1 .2 1.4 1.1 1.1.1 0 41.8-10.7 41.8-10.7m142.4-73.8c.7-.1 1.4-.3 2.1-.4 29.8-5.2 68.2-3.4 91.7 18.9l.7.7c14.3-28.9 40.6-57 64.6-76.1q1.2-.9.3-2.1c-18.9-25.1-43-43.6-72.1-55.4-1.8-.7-3.8-.4-5.1.9-35.2 32.2-62.6 70-82.2 113.5m112.2 44.5c1.4 3.2 2.7 6.5 3.7 9.8 4-.4 7.9-.1 11.7 1l22.3.8h.1c.2 0 .5 0 .7-.1-1.4-2.4-2.6-5.4-3.5-9.1l-.3-1.2zm109.5 7.2-1.1 9.9 6.5.6 125.3 14.9 2.5-9.3zm240.5 31.3s3 6.9 4.3 9.8l70.2 9.5c1 .1-1.3-9.1-2.6-9.3zm152 18 2.3 10.1 74 3.4 9.4-9.1zm-724.5 176.4c-.3-3.3-.6-6.6-1-9.9l-38.1 8c-3.5 2.8-6 6.6-7.6 11.5-.3 1 0 1.4 1.1 1.2zm553.5-79.4 1.5-1.4c-.5.3-1.1.7-1.5 1.4m59.7 74.3c.7-1.5 1.6-2.8 2.6-3.8 2.2-2.5 5.4-4.3 9.2-5.1l-131.8-10-1.3 7.6c-.2 1.2.3 1.8 1.5 1.9zm279.6-166.1-13.2-.1-11.4 9.9 29.9-.4zm-114 165.7h-19.5l-2 9.9 27.3.4z"/></svg>