<?xml version="1.0" encoding="UTF-8" standalone="no"?>
<svg
   version="1.1"
   width="555.41681"
   height="457.45166"
   id="svg1"
   xmlns="http://www.w3.org/2000/svg"
   xmlns:svg="http://www.w3.org/2000/svg">
  <defs
     id="defs1" />
  <path
     d="m 465.91458,211.91014 -58.73504,118.92161 h 116.1352 z M 89.554097,100.6868 30.832011,219.60842 H 146.91538 Z M 381.9722,325.91989 440.74612,214.03559 c -50.3758,-9.81078 -74.17049,-32.19282 -95.12692,-49.00203 -21.00828,-16.75738 -43.4292,-9.7719 -43.4292,-9.7719 l 11.23638,139.87806 h 51.78845 L 345.6192,342.7291 h -37.81749 v 64.34676 h 51.78844 l 20.9694,50.3758 H 158.11288 l 23.78173,-50.3758 h 47.58938 V 342.7291 h -33.60546 l -20.9694,-50.3758 h 53.16222 l 8.39812,-160.88633 c 0,0 -27.99375,-8.34628 -51.78844,-6.98548 -23.74286,1.37377 -60.13474,-4.19906 -60.13474,-4.19906 l 51.73661,97.91334 c 0,0 3.13634,5.61171 3.13634,16.80921 0,0 -26.93103,57.34832 -89.865143,57.34832 C 26.632948,292.3533 0,239.20405 0,230.79296 0,226.24398 4.212024,218.19577 4.212024,218.19577 L 68.59766,95.07509 c 0,0 -9.823734,-8.00932 -9.823734,-20.25659 0,-0.10368 -1.360808,-31.49298 30.780171,-31.49298 32.153943,0 30.780173,30.78017 30.780173,30.78017 0,0 29.36752,12.61015 54.57486,5.57284 25.16846,-6.98548 68.54582,-15.33177 68.54582,-15.33177 V 37.76565 L 270.03606,0 298.02981,39.12646 v 34.97923 c 18.18298,0 62.93411,26.58111 88.14145,57.36128 25.16846,30.78017 54.57486,41.97767 54.57486,41.97767 0,0 11.18455,-18.18298 27.99376,-18.18298 16.75737,0 29.31568,13.97096 29.31568,29.41937 0,15.33176 -11.18454,23.74285 -11.18454,23.74285 l 65.7594,124.53333 c 0,0 2.78642,4.86002 2.78642,12.55831 0,0 -23.74285,58.77392 -88.08961,58.77392 -64.34676,0 -90.92786,-51.78844 -90.92786,-61.56034 0,-6.63555 5.57283,-16.80921 5.57283,-16.80921"
     id="path1" />
</svg>
