<svg xmlns="http://www.w3.org/2000/svg" xmlns:xlink="http://www.w3.org/1999/xlink" width="600" height="334.218"><radialGradient id="a" cx="0" cy="0" r="1" fx="0" fy="0" gradientTransform="matrix(23.34552 0 0 -23.34552 662.468 482.294)" gradientUnits="userSpaceOnUse" spreadMethod="pad"><stop offset="0" style="stop-color:#bf99c3"/><stop offset=".663" style="stop-color:#7b5190"/><stop offset="1" style="stop-color:#612c75"/></radialGradient><radialGradient xlink:href="#a" id="b" cx="0" cy="0" r="1" fx="0" fy="0" gradientTransform="translate(292.853 167.11)scale(215.49711)" gradientUnits="userSpaceOnUse" spreadMethod="pad"/><path d="M285.942 136.91h25.163c24.341 0 33.858-3.932 36.637-5.445l5.843-13.634 15.83 8.474c.176.11 19.034 10.024 50.447 10.024 20.695 0 34.07-7.034 34.07-17.88 0-8.658-7.929-31.089-44.28-31.089-55.421 0-98.003 30.73-98.437 31.052zm0 60.398 25.273 18.489c.434.332 43.016 31.09 98.437 31.09 36.351 0 44.28-22.432 44.28-31.118 0-10.855-13.375-17.889-34.07-17.889-31.413 0-50.234 9.914-50.447 10.025l-15.72 8.473-5.953-13.596c-2.779-1.551-12.296-5.474-36.637-5.474zm172.929 136.91c-154.33 0-193.163-136.91-193.163-136.91H48.572l-21.314 9.554-20.907-30.508L0 167.086l27.295-39.738 21.277 9.563h217.173S305.732 0 458.87 0C555.83 0 600 88.874 600 88.874l-29.815 1.45c-41.613 2.011-42.083 26.5-42.083 27.544 0 2.926 1.8 9.849 3.969 16.338l24.84 11.714v42.37l-24.84 11.722c-2.17 6.526-3.97 13.413-3.97 16.366 0 1.044.47 25.533 42.084 27.508L600 245.298s-42.978 88.92-141.13 88.92" style="fill:#fff"/><path d="m19.837 167.086 13.19-19.218 12.047 5.409h266.068c45.036 0 50.446-12.619 50.446-12.619s21.6 12.01 58.237 12.01c36.664 0 50.473-18 50.473-34.219 0-16.227-13.809-47.455-60.646-47.455-61.874 0-108.138 34.255-108.138 34.255 30.037-55.274 87.692-88.92 157.357-88.92 69.664 0 110.52 57.656 110.52 57.656-50.446 2.418-57.656 34.255-57.656 43.846 0 9.627 7.21 28.237 7.21 28.237l21.637 10.2v21.674l-21.637 10.2s-7.21 18.609-7.21 28.236c0 9.591 7.21 41.428 57.656 43.847 0 0-40.856 57.655-110.52 57.655-69.665 0-127.32-33.637-157.357-88.883 0 0 46.264 34.218 108.138 34.218 46.837 0 60.646-31.227 60.646-47.446 0-16.19-13.809-34.218-50.473-34.218-36.637 0-58.237 12-58.237 12s-5.41-12.619-50.446-12.619H45.074l-12.046 5.41z" style="fill:#612c75"/><path d="M315.794 91.043c19.218-10.348 53.04-24.665 93.821-24.665 47.89 0 65.299 31.117 65.299 52.071 0 17.917-14.419 38.87-55.052 38.87-29.391 0-49.367-7.467-57.047-10.928-5.16 4.726-18.35 11.538-51.673 11.538H44.068l-.905-.434-8.51-3.858-9.231 13.45 9.23 13.485 8.511-3.858.905-.397h267.074c33.323 0 46.513 6.812 51.673 11.501 7.68-3.461 27.656-10.883 57.047-10.883 40.633 0 55.052 20.908 55.052 38.834 0 20.945-17.41 52.062-65.299 52.062-40.781 0-74.603-14.28-93.821-24.665 31.403 44.206 83.548 70.099 143.077 70.099 52.467 0 88.449-34.505 101.4-49.182-41.76-5.372-53.151-32.954-53.151-47.742 0-10.31 7.21-29.058 7.495-29.852l.683-1.735 1.699-.794 18.97-8.945v-15.821l-18.97-8.945-1.699-.794-.683-1.735c-.286-.757-7.495-19.505-7.495-29.89 0-14.713 11.39-42.332 53.15-47.704-12.95-14.677-48.932-49.181-101.4-49.181-59.528 0-111.673 25.892-143.076 70.098" style="fill:url(#b)"/></svg>