<svg xmlns="http://www.w3.org/2000/svg" width="1355.463" height="612.858"><path d="M70 0h1211.891s73.572 160.35 73.572 306.428c0 146.077-73.572 306.43-73.572 306.43H70S0 452.504 0 306.427 70 0 70 0" style="fill:#fff"/><path d="M94.258 35.719S35.477 160.36 35.477 306.438s58.78 270 58.78 270h1165.845s60.718-123.923 60.718-270-60.718-270.72-60.718-270.72zm821.5 52.994c47.939 0 104.985 27.917 104.97 76.262-.013 48.344-3.248 53.397-121.449 180.496h89.805l19.998-45.838s9.843-2.6 11.647 0v102.969H816.5l-3.986-8.666c97.607-110.875 134.828-189.614 134.828-220.22 0-30.604-7.492-50.036-33.549-50.036s-33.451 29.588-33.451 39.771.4 16.244 5.646 24.13l-10.06 11.624-54.143-70.172c23.14-19.824 51.797-40.32 93.973-40.32m249.023 0h13.274V333.29c0 32.332 21.09 53.477 43.994 53.477v15.834h-159.52v-15.834l44.49-15.713V160.35h-44.49v-15.711c44.504-12.816 68.344-28.097 102.252-55.926m-930.117 4.506h165.188c5.033 0 9.51 2.457 11.312 6.906.005.013.026.018.031.031l69.938 174.594c2.897 7.233 5.105 7.304 8.219.25l.125-.25 48.906-112.812c.53-1.226 1.055-2.433 1.562-3.657 6.372-15.382 9.158-31.12-33.75-58.437.062-.004.126.004.188 0-3.816-2.822-7.14-6.625 4.156-6.625h190.813c7.417 0 7.918 2.83.687 7.344.007.011.024.019.031.03l-2.218 1.376c-25.954 16.203-28.942 34.195-13.688 71.937l100.844 249.532c.085.211.164.414.25.625 9.745 23.86 22.009 39.543 50.5 70.53.783.852 1.488 1.602 2.125 2.313 4.457 4.98 4.995 6.648-2.813 6.656H629.695c-7.013-.206-9.789-2.093 1.063-9.28 31.43-23.678 28.597-46.924 12.125-87.97l-.125-.28-58.469-145.438-.781-1.906c-3.9-8.756-6.922-8.282-11.25 1.375-.082.183-.167.34-.25.53L457.789 521.876c-.151.1-.212.211-.156.313-5.948 13.603-7.797 13.789-13.156.625-.088-.217-.16-.402-.25-.625.083-.13.011-.278-.157-.407L338.914 260.594l-.312-.719c-4.186-10.031-7.294-9.885-11.875.469-.04.089-.086.16-.125.25L263.57 404.625l-.125.281c-13.732 31.728.67 56.28 46.125 90.844-.021.03-.041.065-.062.094 5.733 4.115 7.984 7.719-2.469 7.719H123.852c-6.738 0-7.146-.957-1.407-6.97 26.143-27.41 46.206-50.617 59-79.5l99.22-224.03c-.009-.004-.024.004-.032 0 1.125-2.54 2.228-4.965 3.25-7.313 15.329-35.225 17.53-50.023-38.906-78.969l-10.97-5.625-.124-.062c-6.966-3.62-7.784-7.875.781-7.875" style="fill:#000"/></svg>