<svg xmlns="http://www.w3.org/2000/svg" xml:space="preserve" width="150" height="150" viewBox="0 0 150 150"><g transform="translate(-2.394 -2.617)"><path fill="#fff" d="m59.115 152.617-2.832-20.296a59 59 0 0 1-2.648-1.094l-16.346 12.347-25.854-25.852 12.349-16.349a60 60 0 0 1-1.095-2.649L2.394 95.897V59.335l20.296-2.828q.516-1.34 1.094-2.647L11.435 37.509l25.856-25.853 16.346 12.352q1.306-.577 2.646-1.093l2.829-20.298h36.56l2.832 20.294q1.34.515 2.646 1.093l16.35-12.349 25.852 25.851-12.346 16.349q.58 1.308 1.094 2.65l20.294 2.829v36.562l-20.291 2.827a60 60 0 0 1-1.095 2.651l12.348 16.349-25.856 25.852-16.346-12.348q-1.31.58-2.65 1.095l-2.827 20.295z"/><path fill="#612c75" d="m62.462 148.771-2.689-19.277a55 55 0 0 1-6.609-2.73l-15.521 11.724-21.121-21.118 11.726-15.524a54 54 0 0 1-2.731-6.609L6.239 92.55V62.684l19.276-2.688a55 55 0 0 1 2.731-6.607L16.521 37.862l21.121-21.119 15.522 11.728a55 55 0 0 1 6.607-2.729L62.46 6.463h29.865l2.689 19.275a54.5 54.5 0 0 1 6.606 2.73l15.526-11.727 21.117 21.116-11.724 15.525a54 54 0 0 1 2.731 6.61l19.275 2.687v29.866l-19.273 2.686a55 55 0 0 1-2.729 6.613l11.724 15.523-21.121 21.119-15.521-11.724a55 55 0 0 1-6.611 2.729l-2.686 19.277H62.462Z"/><linearGradient id="a" x1="29.347" x2="125.442" y1="29.568" y2="125.663" gradientUnits="userSpaceOnUse"><stop offset="0" style="stop-color:#612c75"/><stop offset=".07" style="stop-color:#67357c"/><stop offset=".184" style="stop-color:#784d8d"/><stop offset=".2" style="stop-color:#7b5190"/><stop offset=".234" style="stop-color:#8c639d"/><stop offset=".291" style="stop-color:#a37bae"/><stop offset=".352" style="stop-color:#b38cba"/><stop offset=".418" style="stop-color:#bc96c1"/><stop offset=".5" style="stop-color:#bf99c3"/><stop offset=".582" style="stop-color:#bc96c1"/><stop offset=".648" style="stop-color:#b38cba"/><stop offset=".709" style="stop-color:#a37bae"/><stop offset=".766" style="stop-color:#8c639d"/><stop offset=".8" style="stop-color:#7b5190"/><stop offset=".855" style="stop-color:#714285"/><stop offset=".937" style="stop-color:#653279"/><stop offset="1" style="stop-color:#612c75"/></linearGradient><path fill="url(#a)" d="M145.343 89.758V65.471L126.83 62.89a51 51 0 0 0-4.063-9.827l11.26-14.91-17.174-17.173-14.91 11.262a51.2 51.2 0 0 0-9.822-4.062L89.537 9.668H65.249L62.67 28.182a51.3 51.3 0 0 0-9.825 4.063L37.936 20.982 20.759 38.156l11.262 14.912a51.2 51.2 0 0 0-4.063 9.824l-18.512 2.58V89.76l18.512 2.579a51.3 51.3 0 0 0 4.063 9.825l-11.262 14.91 17.177 17.174 14.906-11.259a51.4 51.4 0 0 0 9.828 4.063l2.582 18.513h24.287l2.581-18.513a51.3 51.3 0 0 0 9.828-4.063l14.904 11.259 17.177-17.174-11.26-14.909a51 51 0 0 0 4.061-9.829zm-26.07-9.576c-2.963 0-5.848.34-8.624.964-1.642 15.652-14.075 28.085-29.727 29.727a39.2 39.2 0 0 0-.965 8.622c0 1.416-2.564 5.128-2.564 5.128s-2.564-3.712-2.564-5.128c0-2.962-.339-5.846-.964-8.622-15.647-1.642-28.083-14.074-29.725-29.726a39.3 39.3 0 0 0-8.627-.965c-1.416 0-5.128-2.564-5.128-2.564s3.712-2.564 5.128-2.564c2.964 0 5.849-.34 8.627-.965 1.642-15.651 14.077-28.084 29.725-29.726a39.3 39.3 0 0 0 .964-8.627c0-1.416 2.564-5.128 2.564-5.128s2.564 3.712 2.564 5.128c0 2.965.34 5.85.966 8.627 15.65 1.642 28.084 14.074 29.726 29.726a39.2 39.2 0 0 0 8.624.965c1.417 0 5.128 2.564 5.128 2.564s-3.711 2.564-5.128 2.564m0-2.565c-23.13 0-41.88 18.749-41.88 41.877 0-23.128-18.749-41.877-41.88-41.877 23.131 0 41.88-18.75 41.88-41.882.001 23.132 18.751 41.882 41.88 41.882" style="fill:url(#a)"/></g></svg>