<?xml version="1.0" encoding="UTF-8" standalone="no"?>
<!-- Generator: Adobe Illustrator 28.0.0, SVG Export Plug-In . SVG Version: 6.00 Build 0)  -->

<svg
   version="1.1"
   id="Layer_1"
   x="0px"
   y="0px"
   viewBox="0 0 600 640.4"
   xml:space="preserve"
   width="600"
   height="640.40002"
   xmlns="http://www.w3.org/2000/svg"
   xmlns:svg="http://www.w3.org/2000/svg"><defs
   id="defs12" />
<style
   type="text/css"
   id="style1">
	.st0{fill:url(#SVGID_1_);}
</style>
<path
   d="m 0,250.9 c 0,69.6 47.1,136.8 75,165.5 22.5,23.1 56.4,45.5 90.7,59.8 24.6,10.3 66.2,43.9 79.8,59.3 39.3,44.3 54.5,104.9 54.5,104.9 0,0 17,-61.9 54.5,-104.9 13.4,-15.4 55.2,-49 79.8,-59.3 34.3,-14.3 68.2,-36.7 90.7,-59.8 27.8,-28.7 75,-95.9 75,-165.5 0,-93.6 -60.6,-127.7 -60.6,-127.7 0,0 -24.1,42.5 -70.5,42.5 -21.3,0 -44.6,-7.9 -69.2,-23.7 C 349.4,110 327.8,66.6 321.8,53.1 310.1,27 299.9,0 299.9,0 c 0,0 -8.4,25.9 -22.1,53.9 -6.8,14.1 -28.1,56.7 -77.5,88.1 -24.6,15.8 -48,23.7 -69.2,23.7 -38.2,0 -70.5,-42.5 -70.5,-42.5 0,0 -60.6,35.4 -60.6,127.7"
   id="path1" />
<path
   d="M 300.2,614.8 C 291.9,592.5 276.4,558.4 251.4,530.2 236.7,513.5 194.5,479.7 168.8,468.9 135.5,455 102.6,433.3 80.7,410.9 53.7,383 8,318 8,250.9 c 0,-71 36.8,-106.1 51.1,-117 11,12.4 39,39.8 71.9,39.8 22.8,0 47.6,-8.4 73.5,-25 34.4,-21.9 61.5,-52.6 80.5,-91.3 6.3,-12.8 11.4,-25.1 15.2,-34.8 3.9,9.8 8.9,21.9 14.3,33.8 9.6,21.3 32.8,61.7 80.9,92.3 26,16.6 50.7,25 73.6,25 38.6,0 62.9,-26.3 72.6,-39.4 14.7,11.2 50.4,45.6 50.4,116.6 0,67 -45.7,132.1 -72.7,159.9 -21.9,22.5 -54.7,44.1 -88,58 -25.5,10.6 -68.2,44.7 -82.8,61.3 -24,27.7 -39.8,62.2 -48.3,84.7"
   id="path2" />
<linearGradient
   id="SVGID_1_"
   gradientUnits="userSpaceOnUse"
   x1="-657.81812"
   y1="860.60718"
   x2="-656.81799"
   y2="860.60718"
   gradientTransform="matrix(557.5607,0,0,-557.5607,366794.72,480162.09)">
	<stop
   offset="0"
   style="stop-color:#BF331C"
   id="stop2" />
	<stop
   offset="0.1"
   style="stop-color:#F6B91D"
   id="stop3" />
	<stop
   offset="0.2"
   style="stop-color:#BF331C"
   id="stop4" />
	<stop
   offset="0.3"
   style="stop-color:#F6B91D"
   id="stop5" />
	<stop
   offset="0.4"
   style="stop-color:#BF331C"
   id="stop6" />
	<stop
   offset="0.5"
   style="stop-color:#F6B91D"
   id="stop7" />
	<stop
   offset="0.6"
   style="stop-color:#BF331C"
   id="stop8" />
	<stop
   offset="0.7"
   style="stop-color:#F6B91D"
   id="stop9" />
	<stop
   offset="0.8"
   style="stop-color:#BF331C"
   id="stop10" />
	<stop
   offset="0.9"
   style="stop-color:#F6B91D"
   id="stop11" />
	<stop
   offset="1"
   style="stop-color:#BF331C"
   id="stop12" />
</linearGradient>
<path
   class="st0"
   d="m 212.3,159.5 c 79.9,92.6 69.6,249.7 0.9,320.1 v 0 c 20.5,14.4 40.2,31.6 49,42.7 v 0 c 14.6,18.6 26.6,35.1 37.8,64.4 v 0 c 11.3,-29.2 23.2,-45.8 37.8,-64.4 v 0 c 8.9,-11.3 29.1,-28.8 50,-43.4 v 0 C 318.1,409 307.3,252.5 387.5,159.5 v 0 C 320.5,116.4 300,55.8 300,55.8 v 0 c 0,0 -20.5,60.6 -87.7,103.7 m 273.6,26 c -4.9,53.8 21.4,103.2 74.8,140.3 v 0 c 10.5,-23 18.1,-48.7 18.1,-74.9 v 0 c 0,-65 -37.2,-97.6 -37.2,-97.6 v 0 c -14.1,16.6 -33,28.3 -55.7,32.2 M 21.2,250.9 c 0,26.3 7.6,52.1 18.1,75.1 v 0 c 52.5,-36.9 79.2,-87.3 74.8,-140.5 v 0 C 91.3,181.6 72.5,169.9 58.4,153.3 v 0 c 0,0 -37.2,32.6 -37.2,97.6 M 424,457.6 c 0.7,-0.3 1.4,-0.6 2.1,-0.9 v 0 c 28.6,-11.9 61.1,-31.8 83.7,-55.1 v 0 c 8.7,-9 21.1,-23.9 32.9,-42.5 v 0 C 468,309.3 438.8,256.2 449.9,185.3 v 0 c -8.6,-1.4 -17.6,-4 -26.9,-7.5 v 0 c -74.9,68.2 -70.1,219.9 1,279.8 M 150.2,185.2 c 11,70.3 -20.3,123 -93.6,172.5 v 0 c 12.1,19.2 24.8,34.6 33.7,43.8 v 0 c 22.6,23.3 55.1,43.2 83.6,55.1 v 0 c 0.1,0.1 0.2,0.1 0.3,0.1 v 0 c 70.4,-60.3 77.2,-211.1 2.9,-279 v 0 c -9.4,3.6 -18.4,6.1 -26.9,7.5"
   id="path12"
   style="fill:url(#SVGID_1_)" />
</svg>
