<?xml version="1.0" encoding="utf-8"?>
<!-- Generator: Adobe Illustrator 28.0.0, SVG Export Plug-In . SVG Version: 6.00 Build 0)  -->
<svg version="1.1" id="Layer_1" xmlns="http://www.w3.org/2000/svg" xmlns:xlink="http://www.w3.org/1999/xlink" x="0px" y="0px"
	 viewBox="0 0 600 640.4" style="enable-background:new 0 0 600 640.4;" xml:space="preserve">
<style type="text/css">
	.st0{fill:url(#SVGID_1_);}
</style>
<path d="M0,250.9c0,69.6,47.1,136.8,75,165.5c22.5,23.1,56.4,45.5,90.7,59.8c24.6,10.3,66.2,43.9,79.8,59.3
	c39.3,44.3,54.5,104.9,54.5,104.9s17-61.9,54.5-104.9c13.4-15.4,55.2-49,79.8-59.3c34.3-14.3,68.2-36.7,90.7-59.8
	c27.8-28.7,75-95.9,75-165.5c0-93.6-60.6-127.7-60.6-127.7s-24.1,42.5-70.5,42.5c-21.3,0-44.6-7.9-69.2-23.7
	c-50.3-32-71.9-75.4-77.9-88.9C310.1,27,299.9,0,299.9,0s-8.4,25.9-22.1,53.9C271,68,249.7,110.6,200.3,142
	c-24.6,15.8-48,23.7-69.2,23.7c-38.2,0-70.5-42.5-70.5-42.5S0,158.6,0,250.9"/>
<path d="M300.2,614.8c-8.3-22.3-23.8-56.4-48.8-84.6c-14.7-16.7-56.9-50.5-82.6-61.3c-33.3-13.9-66.2-35.6-88.1-58
	C53.7,383,8,318,8,250.9c0-71,36.8-106.1,51.1-117c11,12.4,39,39.8,71.9,39.8c22.8,0,47.6-8.4,73.5-25
	c34.4-21.9,61.5-52.6,80.5-91.3c6.3-12.8,11.4-25.1,15.2-34.8c3.9,9.8,8.9,21.9,14.3,33.8c9.6,21.3,32.8,61.7,80.9,92.3
	c26,16.6,50.7,25,73.6,25c38.6,0,62.9-26.3,72.6-39.4c14.7,11.2,50.4,45.6,50.4,116.6c0,67-45.7,132.1-72.7,159.9
	c-21.9,22.5-54.7,44.1-88,58c-25.5,10.6-68.2,44.7-82.8,61.3C324.5,557.8,308.7,592.3,300.2,614.8"/>
<linearGradient id="SVGID_1_" gradientUnits="userSpaceOnUse" x1="-657.8181" y1="860.6072" x2="-656.818" y2="860.6072" gradientTransform="matrix(557.5607 0 0 -557.5607 366794.7188 480162.0938)">
	<stop  offset="0" style="stop-color:#BF331C"/>
	<stop  offset="0.1" style="stop-color:#F6B91D"/>
	<stop  offset="0.2" style="stop-color:#BF331C"/>
	<stop  offset="0.3" style="stop-color:#F6B91D"/>
	<stop  offset="0.4" style="stop-color:#BF331C"/>
	<stop  offset="0.5" style="stop-color:#F6B91D"/>
	<stop  offset="0.6" style="stop-color:#BF331C"/>
	<stop  offset="0.7" style="stop-color:#F6B91D"/>
	<stop  offset="0.8" style="stop-color:#BF331C"/>
	<stop  offset="0.9" style="stop-color:#F6B91D"/>
	<stop  offset="1" style="stop-color:#BF331C"/>
</linearGradient>
<path class="st0" d="M212.3,159.5c79.9,92.6,69.6,249.7,0.9,320.1l0,0c20.5,14.4,40.2,31.6,49,42.7l0,0
	c14.6,18.6,26.6,35.1,37.8,64.4l0,0c11.3-29.2,23.2-45.8,37.8-64.4l0,0c8.9-11.3,29.1-28.8,50-43.4l0,0
	c-69.7-69.9-80.5-226.4-0.3-319.4l0,0C320.5,116.4,300,55.8,300,55.8l0,0C300,55.8,279.5,116.4,212.3,159.5 M485.9,185.5
	c-4.9,53.8,21.4,103.2,74.8,140.3l0,0c10.5-23,18.1-48.7,18.1-74.9l0,0c0-65-37.2-97.6-37.2-97.6l0,0
	C527.5,169.9,508.6,181.6,485.9,185.5 M21.2,250.9c0,26.3,7.6,52.1,18.1,75.1l0,0c52.5-36.9,79.2-87.3,74.8-140.5l0,0
	c-22.8-3.9-41.6-15.6-55.7-32.2l0,0C58.4,153.3,21.2,185.9,21.2,250.9 M424,457.6c0.7-0.3,1.4-0.6,2.1-0.9l0,0
	c28.6-11.9,61.1-31.8,83.7-55.1l0,0c8.7-9,21.1-23.9,32.9-42.5l0,0c-74.7-49.8-103.9-102.9-92.8-173.8l0,0c-8.6-1.4-17.6-4-26.9-7.5
	l0,0C348.1,246,352.9,397.7,424,457.6 M150.2,185.2c11,70.3-20.3,123-93.6,172.5l0,0c12.1,19.2,24.8,34.6,33.7,43.8l0,0
	c22.6,23.3,55.1,43.2,83.6,55.1l0,0c0.1,0.1,0.2,0.1,0.3,0.1l0,0c70.4-60.3,77.2-211.1,2.9-279l0,0
	C167.7,181.3,158.7,183.8,150.2,185.2"/>
</svg>
