<?xml version="1.0" encoding="UTF-8" standalone="no"?>
<svg
   version="1.1"
   width="557.46771"
   height="530.84497"
   id="svg1"
   xmlns="http://www.w3.org/2000/svg"
   xmlns:svg="http://www.w3.org/2000/svg">
  <defs
     id="defs1" />
  <path
     d="M 92.911071,129.63368 C 70.147542,125.75972 51.273979,114.00976 37.138817,97.42536 37.138817,97.42536 0,130.01788 0,195.04282 0,221.31213 7.555829,247.13321 18.121182,270.13687 70.595769,233.25418 97.361331,182.84464 92.911071,129.63368 M 366.36162,103.68453 C 299.2076,60.54267 278.76524,0 278.76524,0 c 0,0 -20.45837,60.54267 -87.67642,103.68453 79.97652,92.60692 69.60326,249.69451 0.81705,320.09819 20.57042,14.43931 40.2604,31.584 49.01684,42.70964 14.58339,18.5694 26.52544,35.1378 37.84317,64.3526 11.2537,-29.2148 23.19575,-45.7832 37.82717,-64.3526 8.8845,-11.31774 29.07073,-28.76658 50.02534,-43.39799 -69.73133,-69.90742 -80.5368,-226.35469 -0.25613,-319.40984 m 62.22353,25.70903 c -8.56434,-1.44073 -17.57691,-3.954 -26.89363,-7.50781 -74.78989,68.21056 -70.03548,219.91943 1.07319,279.82178 0.68771,-0.30479 1.37669,-0.62496 2.06504,-0.92847 28.57448,-11.94205 61.08695,-31.84013 83.65839,-55.09992 8.75644,-8.99655 21.08268,-23.8841 32.89667,-42.51754 -74.5978,-49.83325 -103.92466,-102.86812 -92.79902,-173.76804 m 91.72647,-31.9682 c -14.05512,16.5844 -32.94469,28.27033 -55.64419,32.20832 -4.88247,53.77124 21.38684,103.17227 74.78989,140.3271 10.50133,-22.95563 18.00913,-48.71268 18.00913,-74.91796 0,-65.02494 -37.15483,-97.61746 -37.15483,-97.61746 M 152.94277,400.89112 c -0.064,0 -0.17673,-0.0512 -0.30479,-0.11526 C 124.11152,388.83381 91.599051,368.93573 69.027614,345.67594 60.07908,336.48729 47.400657,321.10349 35.330541,301.90977 108.6797,252.38067 139.81548,199.73 128.92996,129.39036 c 8.56434,-1.44073 17.57691,-3.95401 26.89363,-7.50781 74.34167,67.90641 67.47419,218.6708 -2.88146,279.00537"
     id="path1" />
</svg>
