<svg xmlns="http://www.w3.org/2000/svg" width="41.034" height="45.883" viewBox="0 0 41.034 45.883"><path d="M18.462 45.698c-3-.656-5.701-2.938-7.128-6.018-.261-.563-.516-.93-.646-.931-.118-.001-1.72.286-3.56.638s-3.377.606-3.417.567.435-1.28 1.054-2.759l1.126-2.688 1.74 1.136c.957.624 3.227 2.116 5.045 3.314s4.37 2.876 5.673 3.729l2.367 1.552 7.06-4.81c3.884-2.646 7.107-4.764 7.163-4.707.107.108 2.304 5.179 2.265 5.227-.012.016-1.54-.216-3.392-.514-1.853-.298-3.493-.542-3.645-.543-.201 0-.36.197-.592.733-.814 1.882-2.632 3.973-4.301 4.947-1.971 1.153-4.66 1.598-6.812 1.127m-4.717-8.513-6.921-4.56V14.009l6.74-4.644 6.742-4.644 6.998 4.533 6.998 4.533v18.685l-6.611 4.52c-3.636 2.485-6.704 4.571-6.817 4.635-.152.087-2.111-1.135-7.13-4.442m9.606-1.819c3.573-.914 6.732-3.785 8.127-7.388.565-1.459.825-2.919.825-4.632 0-3.573-1.157-6.506-3.512-8.902-2.48-2.522-5.252-3.628-8.738-3.483-2.55.106-4.735.963-6.811 2.67-2.006 1.65-3.59 4.325-4.146 7.009-.3 1.44-.3 3.932 0 5.372 1.033 4.976 4.94 8.807 9.774 9.583 1.006.161 3.443.036 4.48-.229m-4.476-3.177c-2.427-.513-4.73-2.326-5.833-4.594-.775-1.593-1.026-2.665-1.015-4.339.036-5.32 4.013-9.266 9.052-8.978 2.998.171 5.715 2.013 7.078 4.798.76 1.553.979 2.502.979 4.249 0 1.749-.218 2.692-.986 4.27-.45.923-.807 1.406-1.686 2.285-1.302 1.301-2.553 1.986-4.243 2.323-1.288.258-2.078.255-3.346-.014m-14.081.502c-.041 0-.701-.512-1.331-1.137C2.1 30.202 1.206 28.753.635 26.975c-1.466-4.571-.348-9.439 2.9-12.637.52-.511 1.228-.93 1.304-.93zM36.38 13.579c.008-.02.327.213.709.517 1.557 1.24 3.053 3.77 3.638 6.148.41 1.673.41 4.331 0 5.869-.617 2.309-1.376 3.729-2.83 5.292-.655.706-1.382 1.145-1.382 1.145M6.063 11.382c-.12-.286-.657-1.56-1.195-2.83s-.942-2.344-.9-2.387c.066-.065 5.944.797 6.793.998.236.055.329-.04.515-.527.468-1.225 1.516-2.792 2.559-3.825C15.047 1.609 16.218.882 17.773.366 18.73.049 19.1 0 20.597 0s1.866.049 2.823.366a10.2 10.2 0 0 1 3.734 2.209c.986.903 2.24 2.694 2.73 3.902.18.442.41.82.513.841.102.021 1.792-.273 3.755-.653 1.963-.381 3.58-.676 3.595-.657.037.052-2.336 5.72-2.438 5.82-.047.048-3.443-2.088-7.544-4.747-4.385-2.842-7.525-4.794-7.623-4.736-.263.155-12.927 8.867-13.417 9.23l-.444.329z"/></svg>