<?xml version="1.0" encoding="UTF-8" standalone="no"?>
<svg
   version="1.1"
   width="517.92017"
   height="544.15173"
   id="svg1"
   xmlns="http://www.w3.org/2000/svg"
   xmlns:svg="http://www.w3.org/2000/svg">
  <defs
     id="defs1" />
  <path
     d="m 268.13143,455.54009 h 88.83532 V 351.73236 h -88.83532 z m 0,-120.06264 h 88.83532 V 231.72938 h -88.83532 z m -18.34269,16.25491 h -88.89497 v 103.80773 h 88.89497 z m 0,-120.00298 h -88.89497 v 103.74807 h 88.89497 z M 277.21331,36.52135 c 10.37928,6.71074 21.0419,9.15643 29.24392,21.90684 8.51518,13.28727 6.59144,28.31933 6.59144,28.31933 h 44.27598 c 0,0 29.18428,36.52135 54.4614,64.76612 41.35309,46.19973 106.13412,32.74842 106.13412,32.74842 L 504.6329,219.67987 H 400.54183 v 241.39285 h 30.98872 c 0,0 7.75463,14.56977 7.75463,25.91838 0,11.42317 -7.99323,26.05259 -7.99323,26.05259 h -11.64687 l -18.7006,31.10802 H 116.90113 L 98.215437,513.04369 h -11.66178 c 0,0 -7.97832,-14.62942 -7.97832,-26.05259 0,-11.34861 7.81428,-25.91838 7.81428,-25.91838 H 117.31869 V 219.67987 H 13.272357 L 0,184.26206 c 0,0 64.706467,13.45131 106.07447,-32.74842 25.33678,-28.24477 54.4614,-64.76612 54.4614,-64.76612 h 44.27598 c 0,0 -1.92374,-15.03206 6.57653,-28.31933 8.21693,-12.75041 18.87956,-15.1961 29.24392,-21.90684 C 256.12666,26.51488 258.87061,0 258.87061,0 c 0,0 2.84834,26.51488 18.3427,36.52135"
     id="path1" />
</svg>
