<?xml version="1.0" encoding="UTF-8" standalone="no"?>
<svg
   x="0px"
   y="0px"
   width="293.88"
   height="387.10001"
   version="1.1"
   id="svg4"
   xmlns="http://www.w3.org/2000/svg"
   xmlns:svg="http://www.w3.org/2000/svg">
  <defs
     id="defs4" />
  <path
     d="m 48.92,0.01 c 24.55,3.01 49.28,4.51 74.011,5 23,-0.189 46.01,0.52 68.989,-0.68 17.72,-0.75 35.42,-2.16 53.03,-4.33 2.56,12.25 5.939,24.32 9.91,36.189 -7.92,2.061 -16.211,4.93 -21.73,11.301 -6.109,6.92 -6.62,18.18 -0.92,25.5 4.18,5.549 10.68,8.729 17.12,10.879 9.29,3.051 19.12,3.781 28.819,4.261 -13.449,18.06 -32,31.899 -52.16,41.68 C 205.1,118.991 189.83,98.06 186.399,74.741 160.089,74.77 133.78,74.79 107.479,74.731 104.04,98.05 88.799,119.001 67.899,129.8 47.719,120.071 29.2,106.18 15.729,88.14 25.919,87.619 36.28,86.86 45.959,83.369 52.109,81.18 58.259,77.89 62.068,72.4 67.349,65.099 66.718,54.219 60.738,47.5 55.238,41.119 46.929,38.279 39.019,36.189 42.989,24.321 46.36,12.25 48.92,0.01 Z"
     id="path1" />
  <path
     d="m 0,95.21 c 14.749,21.021 35.64,37 58.26,48.771 1.87,4.739 2.55,9.869 4.181,14.709 7.359,26.95 18.47,52.75 31.709,77.311 -14.879,10.47 -27.1,24.359 -36.83,39.66 -1.5,2.22 -2.549,4.75 -4.379,6.729 C 52.01,281.22 51.26,279.92 50.56,278.619 20.03,222.42 2.229,159.17 0,95.21 Z"
     id="path2" />
  <path
     d="m 235.61,143.96 c 22.629,-11.74 43.5,-27.75 58.27,-48.75 -1.72,50.25 -13.199,100.021 -32.66,146.329 -6.08,13.941 -12.4,27.861 -20.279,40.881 -5.561,-8.391 -10.83,-17.07 -17.551,-24.641 -7,-8.149 -14.88,-15.58 -23.67,-21.77 13.07,-24.34 24.18,-49.84 31.48,-76.52 1.699,-5.109 2.47,-10.508 4.41,-15.529 z"
     id="path3" />
  <path
     d="m 101.479,251.77 c 0.98,-0.83 1.76,-0.66 2.33,0.52 12.381,19.721 26.561,38.421 43.131,54.82 15.16,-15.029 28.33,-31.99 39.97,-49.85 1.37,-2.04 2.44,-4.311 4.149,-6.09 1.211,0.24 2.101,1.17 3.07,1.88 15.561,12.53 28.01,28.92 36.37,47.01 -21.69,34.101 -49.3,65.181 -83.569,87.04 C 112.559,365.26 85.169,334 63.18,300.03 72.3,281.491 84.899,264.3 101.479,251.77 Z"
     id="path4" />
</svg>
