<svg xmlns="http://www.w3.org/2000/svg" width="600" height="435.319"><path d="M407.556 297.072c10.198 41.66 14.965 61.13 20.917 85.367-6.29-4.767-9.141-6.933-12.667-9.61-.893-8.5-4.256-38.94-8.25-75.757m-215.112-.043c-4.038 36.86-7.357 67.3-8.293 75.8-3.483 2.677-6.334 4.843-12.624 9.61 5.909-24.237 10.72-43.706 20.917-85.41m44.424-234.104s-9.947 35.24-18.022 63.677a655743 655743 0 0 1-83.962-80.894S99.089 356.211 96.967 374.45C85.954 381.21 0 433.915 0 433.915h103.682c-.13.087-1.872 1.404-1.872 1.404h139.912s22.865-86.509 30.896-116.905c7.227 2.046 15.356 3.744 25.216 3.744h4.288c9.904 0 17.99-1.698 25.216-3.744 8.032 30.396 30.94 116.905 30.94 116.905H498.19s-1.741-1.317-1.916-1.404H600s-85.997-52.706-97.01-59.465c-2.08-18.24-37.917-328.742-37.917-328.742s-60.705 58.496-83.962 80.894C373.079 98.164 345.23.044 345.23.044S309.305 107.85 300 135.787A737566 737566 0 0 0 254.727 0Z" style="fill:gray"/><path d="M302.122 302.002c24.367 0 38.69-11.47 38.69-11.47l32.985 124.642h64.45l-41.53-31.506-15.77-144.754 24.357-35.794 51.563 210.607H528.5l-44.38-27.207-34.393-298.01-78.815 75.93-27.207-95.998-32.954 98.84h-21.504l-32.954-98.84-27.207 95.999-78.815-75.93-34.39 298.008-44.424 27.207h71.631l51.564-210.607 24.4 35.794-15.77 144.754-41.573 31.506h64.493l32.942-124.642s14.322 11.47 38.69 11.47z"/></svg>