<?xml version="1.0" encoding="UTF-8" standalone="no"?>
<svg
   id="Layer_2"
   data-name="Layer 2"
   viewBox="0 0 1061.16 600.21999"
   version="1.1"
   width="1061.16"
   height="600.21997"
   xmlns:xlink="http://www.w3.org/1999/xlink"
   xmlns="http://www.w3.org/2000/svg"
   xmlns:svg="http://www.w3.org/2000/svg">
  <defs
     id="defs16">
    <style
       id="style1">
      .cls-1 {
        fill: url(#linear-gradient);
      }

      .cls-1, .cls-2, .cls-3, .cls-4 {
        stroke-width: 0px;
      }

      .cls-3 {
        fill: url(#New_Gradient_Swatch_16);
      }

      .cls-4 {
        fill: url(#New_Gradient_Swatch_16-2);
      }
    </style>
    <linearGradient
       id="linear-gradient"
       x1="511.37"
       y1="147.95"
       x2="1078.04"
       y2="147.95"
       gradientTransform="matrix(1,0,0,-1,-264.12,448.07)"
       gradientUnits="userSpaceOnUse">
      <stop
         offset="0"
         stop-color="#927443"
         id="stop1" />
      <stop
         offset=".04"
         stop-color="#967946"
         id="stop2" />
      <stop
         offset=".18"
         stop-color="#a68c53"
         id="stop3" />
      <stop
         offset=".3"
         stop-color="#bea160"
         id="stop4" />
      <stop
         offset=".41"
         stop-color="#cfaf69"
         id="stop5" />
      <stop
         offset=".5"
         stop-color="#d5b46d"
         id="stop6" />
      <stop
         offset=".59"
         stop-color="#cfaf69"
         id="stop7" />
      <stop
         offset=".7"
         stop-color="#bea161"
         id="stop8" />
      <stop
         offset=".82"
         stop-color="#a68c54"
         id="stop9" />
      <stop
         offset=".96"
         stop-color="#967946"
         id="stop10" />
      <stop
         offset="1"
         stop-color="#927443"
         id="stop11" />
    </linearGradient>
    <linearGradient
       id="New_Gradient_Swatch_16"
       data-name="New Gradient Swatch 16"
       x1="312.62"
       y1="170.62"
       x2="637.07001"
       y2="170.62"
       gradientTransform="matrix(1,0,0,-1,-264.12,448.07)"
       gradientUnits="userSpaceOnUse">
      <stop
         offset="0"
         stop-color="#927443"
         id="stop12" />
      <stop
         offset=".13"
         stop-color="#a0814c"
         id="stop13" />
      <stop
         offset=".44"
         stop-color="#bd9d5e"
         id="stop14" />
      <stop
         offset=".71"
         stop-color="#ceae69"
         id="stop15" />
      <stop
         offset=".91"
         stop-color="#d5b46d"
         id="stop16" />
    </linearGradient>
    <linearGradient
       id="New_Gradient_Swatch_16-2"
       data-name="New Gradient Swatch 16"
       x1="-8481.6299"
       x2="-8157.1802"
       gradientTransform="rotate(180,-3734.48,224.035)"
       xlink:href="#New_Gradient_Swatch_16" />
    <linearGradient
       xlink:href="#New_Gradient_Swatch_16"
       id="linearGradient16"
       gradientUnits="userSpaceOnUse"
       gradientTransform="matrix(1,0,0,-1,-264.12,448.07)"
       x1="312.62"
       y1="170.62"
       x2="637.07001"
       y2="170.62" />
  </defs>
  <g
     id="Layer_1-2"
     data-name="Layer 1">
    <g
       id="g16">
      <path
         id="p1"
         class="cls-2"
         d="M 390.09,0 372.23,33.48 H 20.48 c 0,0 -3.84,11.65 18.91,32.13 L 146.48,162.01 0,394.57 h 113.29 l 319.77,163.73 39.53,41.92 H 588.57 L 628.1,558.3 947.87,394.57 h 113.29 L 914.69,162.01 1021.78,65.61 c 22.74,-20.48 18.91,-32.13 18.91,-32.13 H 688.94 L 671.07,0 Z" />
      <path
         id="p2"
         class="cls-1"
         d="M 406.53,23.91 249.6,313.11 c -3.52,6.49 -2.97,11.66 0.9,15.77 l 233.16,247.43 h 93.86 L 810.68,328.88 c 3.87,-4.1 4.42,-9.28 0.9,-15.77 L 654.63,23.91 Z m 124.05,23.17 c 6.99,0 2.15,116.28 30.04,234.73 6.98,0.48 13.92,1.06 20.77,1.87 19.48,-65.79 19.15,-178.3 25.71,-178.3 6.56,0 2.69,121.63 34.6,190.04 4.17,1.14 8.31,2.33 12.41,3.59 24.69,-42.35 23.82,-132.2 29.52,-132.2 6.05,0 10.48,113.26 21.52,174.19 C 627.89,362.59 553.69,437.57 530.58,547.33 507.47,437.57 433.27,362.6 356.01,341 c 11.04,-60.93 15.47,-174.19 21.52,-174.19 5.7,0 4.83,89.84 29.52,132.2 4.09,-1.26 8.24,-2.45 12.41,-3.59 31.91,-68.4 27.99,-190.04 34.6,-190.04 6.61,0 6.22,112.51 25.71,178.3 6.85,-0.81 13.8,-1.39 20.77,-1.87 27.89,-118.45 23.05,-234.73 30.04,-234.73 z"
         style="fill:url(#linear-gradient)" />
      <path
         id="p3"
         class="cls-3"
         d="m 76.3,57.39 c -5.6,0 -2.36,5.69 -1.79,6.2 l 104.7,93.64 -128.62,205.21 c -3.62,5.77 -2.7,8.22 3.89,8.22 h 66.88 l 245.11,125.62 c 4.5,2.31 9.65,1.63 3.96,-4.41 L 215.52,327.61 359.52,57.39 Z"
         style="fill:url(#linearGradient16)" />
      <g
         id="u1">
        <path
           id="p3-2"
           data-name="p3"
           class="cls-4"
           d="m 984.86,57.39 c 5.6,0 2.36,5.69 1.79,6.2 l -104.7,93.64 128.61,205.21 c 3.62,5.77 2.7,8.22 -3.89,8.22 H 939.79 L 694.68,496.28 c -4.5,2.31 -9.65,1.63 -3.96,-4.41 L 845.63,327.61 701.64,57.39 h 283.23 z"
           style="fill:url(#New_Gradient_Swatch_16-2)" />
      </g>
    </g>
  </g>
</svg>
