<?xml version="1.0" encoding="UTF-8"?>
<svg id="Layer_2" data-name="Layer 2" xmlns="http://www.w3.org/2000/svg" xmlns:xlink="http://www.w3.org/1999/xlink" viewBox="0 0 1061.16 600.23">
  <defs>
    <style>
      .cls-1 {
        fill: url(#linear-gradient);
      }

      .cls-1, .cls-2, .cls-3, .cls-4 {
        stroke-width: 0px;
      }

      .cls-3 {
        fill: url(#New_Gradient_Swatch_13);
      }

      .cls-4 {
        fill: url(#New_Gradient_Swatch_13-2);
      }
    </style>
    <linearGradient id="linear-gradient" x1="511.37" y1="147.95" x2="1078.04" y2="147.95" gradientTransform="translate(-264.12 448.07) scale(1 -1)" gradientUnits="userSpaceOnUse">
      <stop offset="0" stop-color="#612c75"/>
      <stop offset=".1" stop-color="#7b498b"/>
      <stop offset=".18" stop-color="#8c5c99"/>
      <stop offset=".22" stop-color="#9567a1"/>
      <stop offset=".33" stop-color="#ac82b3"/>
      <stop offset=".43" stop-color="#ba93bf"/>
      <stop offset=".5" stop-color="#bf99c3"/>
      <stop offset=".57" stop-color="#ba93bf"/>
      <stop offset=".67" stop-color="#ac82b3"/>
      <stop offset=".78" stop-color="#9567a1"/>
      <stop offset=".82" stop-color="#8c5c99"/>
      <stop offset=".9" stop-color="#7b498b"/>
      <stop offset="1" stop-color="#612c75"/>
    </linearGradient>
    <linearGradient id="New_Gradient_Swatch_13" data-name="New Gradient Swatch 13" x1="312.62" y1="170.62" x2="637.07" y2="170.62" gradientTransform="translate(-264.12 448.07) scale(1 -1)" gradientUnits="userSpaceOnUse">
      <stop offset="0" stop-color="#612c75"/>
      <stop offset=".09" stop-color="#6f3c80"/>
      <stop offset=".34" stop-color="#91649d"/>
      <stop offset=".57" stop-color="#aa81b1"/>
      <stop offset=".76" stop-color="#b992be"/>
      <stop offset=".91" stop-color="#bf99c3"/>
    </linearGradient>
    <linearGradient id="New_Gradient_Swatch_13-2" data-name="New Gradient Swatch 13" x1="-13361.63" x2="-13037.18" gradientTransform="translate(-12348.96 448.07) rotate(-180)" xlink:href="#New_Gradient_Swatch_13"/>
  </defs>
  <g id="Layer_1-2" data-name="Layer 1">
    <g>
      <path id="p1" class="cls-2" d="M390.09,0l-17.86,33.48H20.48s-3.84,11.65,18.91,32.13l107.09,96.4L0,394.57h113.29l319.77,163.73,39.53,41.92h115.98l39.53-41.92,319.77-163.73h113.29l-146.47-232.56,107.09-96.4c22.74-20.48,18.91-32.13,18.91-32.13h-351.75L671.07,0h-280.98Z"/>
      <path id="p2" class="cls-1" d="M406.53,23.91l-156.93,289.2c-3.52,6.49-2.97,11.66.9,15.77l233.16,247.43h93.86l233.16-247.43c3.87-4.1,4.42-9.28.9-15.77L654.63,23.91h-248.1ZM530.58,47.08c6.99,0,2.15,116.28,30.04,234.73,6.98.48,13.92,1.06,20.77,1.87,19.48-65.79,19.15-178.3,25.71-178.3s2.69,121.63,34.6,190.04c4.17,1.14,8.31,2.33,12.41,3.59,24.69-42.35,23.82-132.2,29.52-132.2,6.05,0,10.48,113.26,21.52,174.19-77.26,21.59-151.46,96.57-174.57,206.33-23.11-109.76-97.31-184.73-174.57-206.33,11.04-60.93,15.47-174.19,21.52-174.19,5.7,0,4.83,89.84,29.52,132.2,4.09-1.26,8.24-2.45,12.41-3.59,31.91-68.4,27.99-190.04,34.6-190.04s6.22,112.51,25.71,178.3c6.85-.81,13.8-1.39,20.77-1.87,27.89-118.45,23.05-234.73,30.04-234.73Z"/>
      <path id="p3" class="cls-3" d="M76.3,57.39c-5.6,0-2.36,5.69-1.79,6.2l104.7,93.64L50.59,362.44c-3.62,5.77-2.7,8.22,3.89,8.22h66.88l245.11,125.62c4.5,2.31,9.65,1.63,3.96-4.41l-154.91-164.26L359.52,57.39H76.3Z"/>
      <g id="u1">
        <path id="p3-2" data-name="p3" class="cls-4" d="M984.86,57.39c5.6,0,2.36,5.69,1.79,6.2l-104.7,93.64,128.61,205.21c3.62,5.77,2.7,8.22-3.89,8.22h-66.88l-245.11,125.62c-4.5,2.31-9.65,1.63-3.96-4.41l154.91-164.26L701.64,57.39h283.23Z"/>
      </g>
    </g>
  </g>
</svg>