<?xml version="1.0" encoding="UTF-8"?>
<svg id="Layer_2" data-name="Layer 2" xmlns="http://www.w3.org/2000/svg" viewBox="0 0 964.17 552.4">
  <defs>
    <style>
      .cls-1 {
        stroke-width: 0px;
      }
    </style>
  </defs>
  <g id="Layer_1-2" data-name="Layer 1">
    <g>
      <path id="p2" class="cls-1" d="M358.03,0l-156.93,289.2c-3.52,6.49-2.97,11.66.9,15.77l233.16,247.43h93.86l233.16-247.43c3.87-4.1,4.42-9.28.9-15.77L606.14,0h-248.1ZM482.08,23.17c6.99,0,2.15,116.28,30.04,234.73,6.98.48,13.92,1.06,20.77,1.87,19.48-65.79,19.15-178.3,25.71-178.3s2.69,121.63,34.6,190.04c4.17,1.14,8.31,2.33,12.41,3.59,24.69-42.35,23.82-132.2,29.52-132.2,6.05,0,10.48,113.26,21.52,174.19-77.26,21.59-151.46,96.57-174.57,206.33-23.11-109.76-97.31-184.73-174.57-206.33,11.04-60.93,15.47-174.19,21.52-174.19,5.7,0,4.83,89.84,29.52,132.2,4.09-1.26,8.24-2.45,12.41-3.59,31.91-68.4,27.99-190.04,34.6-190.04s6.22,112.51,25.71,178.3c6.85-.81,13.8-1.39,20.77-1.87,27.89-118.45,23.05-234.73,30.04-234.73Z"/>
      <path id="p3" class="cls-1" d="M27.8,33.48c-5.6,0-2.36,5.69-1.79,6.2l104.7,93.64L2.1,338.53c-3.62,5.77-2.7,8.22,3.89,8.22h66.88l245.11,125.62c4.5,2.31,9.65,1.63,3.96-4.41l-154.91-164.26L311.03,33.48H27.8Z"/>
      <g id="u1">
        <path id="p3-2" data-name="p3" class="cls-1" d="M936.37,33.48c5.6,0,2.36,5.69,1.79,6.2l-104.7,93.64,128.61,205.21c3.62,5.77,2.7,8.22-3.89,8.22h-66.88l-245.11,125.62c-4.5,2.31-9.65,1.63-3.96-4.41l154.91-164.26L653.14,33.48h283.23Z"/>
      </g>
    </g>
  </g>
</svg>