<svg xmlns="http://www.w3.org/2000/svg" xml:space="preserve" width="150.001" height="164.478" viewBox="0 0 150.001 164.478"><path fill="#5d5e61" d="M75 164.478c8.407-4.461 23.085-12.66 35.375-20.781 12.315-8.136 24.843-19.812 24.843-19.812l-3.847-3.667V95.401c3.364-2.942 9.649-8.645 14.435-14.223l1.426-1.668.11-2.146c.009-.171.873-16.913 2.31-29.195l.349-2.96-2.122-2.192c-.882-.913-8.841-8.746-30.264-17.881v-9.887L90.593 0S89.402 17.259 75 17.259 59.407 0 59.407 0L32.386 15.249v9.885C10.963 34.27 3.004 42.103 2.122 43.015L0 45.207l.348 2.96c1.437 12.282 2.301 29.024 2.31 29.195l.11 2.146 1.426 1.668c4.785 5.579 11.071 11.281 14.435 14.223v24.817l-3.847 3.667s12.527 11.676 24.843 19.812c12.29 8.123 26.968 16.322 35.375 20.783"/><path d="M31.751 84.15a108 108 0 0 0-8.565 6.521c-3.776-3.434-9.938-9.323-13.626-13.626 0 0-.865-16.967-2.344-29.602 0 0 8.143-8.424 32.082-18.018V18.973l15.464-8.737s4.024 11.004 16.493 13.756l-.346.566c-.042.067-1.731 2.852-3.705 6.663l-2.825.708c-12.881 3.232-19.722 11.74-22.902 19.208l-3.976-5.302s-9.502 10.319-9.502 23.768c0 7.563 2.064 12.096 3.752 14.547m8.551.348c-4.678 2.661-9.679 6.138-14.971 10.656l.209.491v18.254l12.152 10.475h1.275v10.354c9.734 8.092 26.12 16.984 33.635 20.861v-14.047c.001-13.533-9.537-43.072-32.3-57.044m77.947-.348a108 108 0 0 1 8.564 6.521c3.777-3.434 9.938-9.323 13.627-13.626 0 0 .865-16.967 2.344-29.602 0 0-8.143-8.424-32.082-18.018V18.973l-15.464-8.737S91.214 21.24 78.745 23.992l.346.566a123 123 0 0 1 3.705 6.663l2.824.708c12.882 3.231 19.723 11.739 22.902 19.207l3.977-5.302s9.502 10.319 9.502 23.768c0 7.564-2.064 12.097-3.752 14.548m-40.852 57.392v14.047c7.515-3.877 23.9-12.77 33.635-20.861v-10.354h1.275l12.152-10.475V95.645l.209-.491c-5.293-4.519-10.293-7.995-14.971-10.656-22.762 13.972-32.3 43.511-32.3 57.044"/><path fill="#fff" d="M75 27.057c3.714 6.081 9.222 17.143 9.222 21.869 0 7.493-4.361 9.197-9.222 9.197s-9.222-1.705-9.222-9.197c0-4.726 5.508-15.788 9.222-21.869M45.204 81.944c14.007 9.49 22.643 23.963 27.399 36.869V75.738c-6.539.074-15.843.709-27.399 6.206m27.399-19.175c-7.413-.858-11.618-5.787-11.618-13.843 0-3.222 1.584-7.759 3.487-12.047-19.137 5.444-20.497 23.406-20.497 23.406s-3.53-2.534-6.326-6.262c0 0-4.857 6.991-4.857 15.58 0 6.616 1.809 10.262 2.991 11.942 13.838-8.419 25.81-10.361 36.82-10.585zm4.794 12.969v43.075c4.756-12.906 13.392-27.379 27.398-36.869-11.556-5.497-20.858-6.132-27.398-6.206m0-4.778c11.01.224 22.981 2.166 36.819 10.585 1.183-1.681 2.991-5.327 2.991-11.942 0-8.589-4.857-15.58-4.857-15.58-2.797 3.729-6.326 6.262-6.326 6.262s-1.359-17.962-20.496-23.406c1.902 4.288 3.486 8.825 3.486 12.047 0 8.056-4.205 12.985-11.617 13.843z"/></svg>