<svg xmlns="http://www.w3.org/2000/svg" xmlns:xlink="http://www.w3.org/1999/xlink" width="600" height="684.19"><linearGradient id="a" x1="0" x2="1" y1="0" y2="0" gradientTransform="matrix(0 36.22656 36.22656 0 692.39 16.77)" gradientUnits="userSpaceOnUse" spreadMethod="pad"><stop offset="0" style="stop-color:#8b723c"/><stop offset=".3" style="stop-color:#d2bb7b"/><stop offset=".5" style="stop-color:#ebd491"/><stop offset=".7" style="stop-color:#d2bb7b"/><stop offset="1" style="stop-color:#8b723c"/></linearGradient><linearGradient xlink:href="#a" id="b" x1="0" x2="1" y1="0" y2="0" gradientTransform="rotate(-90 475.94 175.964)scale(619.64587)" gradientUnits="userSpaceOnUse" spreadMethod="pad"/><path d="M300 684.19 76.492 583.63l22.322-66.468L0 586.915V97.223l98.814 69.822-22.322-66.486L300 0l223.422 100.559-22.322 66.486L600 97.223v489.692l-98.9-69.753 22.322 66.469z"/><path d="m236.182 60.944 35.356 250.02h-43.241L182.268 85.2l-69.36 31.267 65.29 194.498H124.06L75.43 186.493l-46.045-32.482V530.11l46.046-32.465 48.629-124.47h54.136L112.908 567.74l69.36 31.2 46.029-225.766h43.24l-35.355 250.02L300 651.913l63.732-28.719-35.338-250.02h43.292l45.977 225.766 69.343-31.2-65.272-194.566h54.12l48.714 124.471 46.029 32.465V154.011l-46.029 32.482-48.714 124.471h-54.12l65.272-194.498L417.663 85.2l-45.977 225.765h-43.292l35.338-250.02L300 32.277Z" style="fill:url(#b)"/></svg>