<?xml version="1.0" encoding="UTF-8" standalone="no"?>
<svg
   id="Layer_2"
   data-name="Layer 2"
   viewBox="0 0 915.24 1047.83"
   version="1.1"
   width="915.23999"
   height="1047.83"
   xmlns="http://www.w3.org/2000/svg"
   xmlns:svg="http://www.w3.org/2000/svg">
  <defs
     id="defs16">
    <style
       id="style1">
      .cls-1, .cls-2 {
        fill-rule: evenodd;
        stroke-width: 0px;
      }

      .cls-2 {
        fill: url(#linear-gradient);
      }
    </style>
    <linearGradient
       id="linear-gradient"
       x1="-502.38"
       y1="1063.87"
       x2="-501.38"
       y2="1063.87"
       gradientTransform="matrix(764.63698,587.78746,587.78746,-764.63698,-241124.52,1109044)"
       gradientUnits="userSpaceOnUse">
      <stop
         offset="0"
         stop-color="#bb2c26"
         id="stop1" />
      <stop
         offset=".04"
         stop-color="#bf3526"
         id="stop2" />
      <stop
         offset=".11"
         stop-color="#cb4d25"
         id="stop3" />
      <stop
         offset=".19"
         stop-color="#de7523"
         id="stop4" />
      <stop
         offset=".21"
         stop-color="#e17a23"
         id="stop5" />
      <stop
         offset=".29"
         stop-color="#ee8b1f"
         id="stop6" />
      <stop
         offset=".38"
         stop-color="#f5951e"
         id="stop7" />
      <stop
         offset=".5"
         stop-color="#ff9915"
         id="stop8" />
      <stop
         offset=".62"
         stop-color="#f5951e"
         id="stop9" />
      <stop
         offset=".71"
         stop-color="#ee8b1f"
         id="stop10" />
      <stop
         offset=".79"
         stop-color="#e17a23"
         id="stop11" />
      <stop
         offset=".8"
         stop-color="#e07823"
         id="stop12" />
      <stop
         offset=".85"
         stop-color="#d35d24"
         id="stop13" />
      <stop
         offset=".91"
         stop-color="#c64225"
         id="stop14" />
      <stop
         offset=".96"
         stop-color="#be3226"
         id="stop15" />
      <stop
         offset="1"
         stop-color="#bb2c26"
         id="stop16" />
    </linearGradient>
  </defs>
  <g
     id="Layer_1-2"
     data-name="Layer 1">
    <g
       id="Mythic1">
      <path
         class="cls-1"
         d="M 359.8,142.18 V 74.61 L 457.62,0 555.44,74.6 v 67.57 l 359.8,117.18 -13.99,148.39 -31.26,-9.94 -44.46,432.49 31.14,-6.62 L 846.51,957.6 457.63,1047.83 68.75,957.6 58.59,823.67 89.73,830.29 45.27,397.8 14.01,407.74 0,259.36 Z"
         id="path16" />
      <path
         class="cls-2"
         d="M 457.62,222.3 51.3,351.37 45.43,289.19 457.62,154.93 l 412.19,134.26 -5.87,62.18 z m 0,-103.81 -55.39,18.78 V 95.61 l 55.39,-42.24 55.39,42.24 v 41.66 z m 0,885.79 -348.94,-80.96 -3.52,-46.34 352.45,74.95 352.45,-74.95 -3.52,46.34 -348.94,80.96 v 0 z M 441.46,264.49 V 915.21 L 133.8,844.34 85.58,375.2 441.45,264.49 v 0 z M 272.38,509.22 402.23,489.48 V 334.12 l -134.24,38.1 z M 233.89,381.9 132.67,410.63 143,528.9 237.27,514.56 Z M 473.78,264.49 829.65,375.2 781.43,844.34 473.77,915.21 V 264.49 Z m 169.08,244.73 4.39,-137 -134.24,-38.1 v 155.36 z m -105.79,24.25 1.45,106.93 80.26,-1.92 1.92,-98.52 z m 144.28,-151.57 -3.38,132.66 94.27,14.34 10.33,-118.27 z"
         id="path17"
         style="fill:url(#linear-gradient)" />
    </g>
  </g>
</svg>
