<?xml version="1.0" encoding="UTF-8" standalone="no"?>
<svg
   id="Layer_2"
   data-name="Layer 2"
   viewBox="0 0 915.24 1047.83"
   version="1.1"
   width="915.23999"
   height="1047.83"
   xmlns="http://www.w3.org/2000/svg"
   xmlns:svg="http://www.w3.org/2000/svg">
  <defs
     id="defs15">
    <style
       id="style1">
      .cls-1, .cls-2 {
        fill-rule: evenodd;
        stroke-width: 0px;
      }

      .cls-2 {
        fill: url(#linear-gradient);
      }
    </style>
    <linearGradient
       id="linear-gradient"
       x1="-496.78"
       y1="1063.87"
       x2="-495.78"
       y2="1063.87"
       gradientTransform="matrix(764.63698,587.78746,587.78746,-764.63698,-245409.56,1105750.1)"
       gradientUnits="userSpaceOnUse">
      <stop
         offset="0"
         stop-color="#8d742f"
         id="stop1" />
      <stop
         offset=".07"
         stop-color="#967d38"
         id="stop2" />
      <stop
         offset=".18"
         stop-color="#ae954f"
         id="stop3" />
      <stop
         offset=".2"
         stop-color="#b39a54"
         id="stop4" />
      <stop
         offset=".22"
         stop-color="#b9a059"
         id="stop5" />
      <stop
         offset=".3"
         stop-color="#cab068"
         id="stop6" />
      <stop
         offset=".39"
         stop-color="#d4ba71"
         id="stop7" />
      <stop
         offset=".5"
         stop-color="#d7bd74"
         id="stop8" />
      <stop
         offset=".61"
         stop-color="#d4ba71"
         id="stop9" />
      <stop
         offset=".7"
         stop-color="#cab068"
         id="stop10" />
      <stop
         offset=".78"
         stop-color="#b9a059"
         id="stop11" />
      <stop
         offset=".8"
         stop-color="#b39a54"
         id="stop12" />
      <stop
         offset=".86"
         stop-color="#a38a45"
         id="stop13" />
      <stop
         offset=".94"
         stop-color="#937a35"
         id="stop14" />
      <stop
         offset="1"
         stop-color="#8d742f"
         id="stop15" />
    </linearGradient>
  </defs>
  <g
     id="Layer_1-2"
     data-name="Layer 1">
    <path
       class="cls-1"
       d="M 359.8,142.18 V 74.61 L 457.62,0 555.43,74.6 v 67.57 l 359.81,117.18 -14,148.39 -31.26,-9.94 -44.45,432.49 31.14,-6.62 L 846.49,957.6 457.62,1047.83 68.74,957.6 58.56,823.67 89.7,830.29 45.25,397.8 13.99,407.74 0,259.36 Z"
       id="path15" />
    <path
       class="cls-2"
       d="M 457.62,222.3 51.29,351.37 45.43,289.19 457.62,154.93 l 412.19,134.26 -5.87,62.18 z m 0,-103.81 -55.39,18.78 V 95.61 l 55.39,-42.24 55.39,42.24 v 41.66 z m 0,885.79 -348.94,-80.96 -3.52,-46.34 352.45,74.95 352.45,-74.95 -3.53,46.34 -348.92,80.96 z M 441.46,264.49 V 915.21 L 133.8,844.34 85.58,375.2 441.45,264.49 v 0 z M 272.38,509.22 402.23,489.48 V 334.12 l -134.26,38.1 4.4,137 z M 233.89,381.9 132.67,410.63 142.99,528.9 237.27,514.56 Z M 473.77,264.49 829.65,375.2 781.42,844.34 473.76,915.21 V 264.49 Z m 63.3,268.98 1.44,106.93 80.27,-1.92 1.92,-98.52 z m 105.78,-24.25 4.4,-137 -134.24,-38.1 v 155.36 z m 38.5,-127.32 -3.38,132.66 94.27,14.34 10.33,-118.27 z"
       id="path16"
       style="fill:url(#linear-gradient)" />
  </g>
</svg>
