<?xml version="1.0" encoding="UTF-8"?>
<svg id="Layer_2" data-name="Layer 2" xmlns="http://www.w3.org/2000/svg" xmlns:xlink="http://www.w3.org/1999/xlink" viewBox="0 0 915.24 1047.84">
  <defs>
    <style>
      .cls-1, .cls-2 {
        fill-rule: evenodd;
        stroke-width: 0px;
      }

      .cls-2 {
        fill: url(#linear-gradient);
      }
    </style>
    <linearGradient id="linear-gradient" x1="-502.38" y1="1063.87" x2="-501.38" y2="1063.87" gradientTransform="translate(-241124.52 1109044.02) rotate(37.55) scale(964.45 -964.45)" gradientUnits="userSpaceOnUse">
      <stop offset="0" stop-color="#612c75"/>
      <stop offset=".13" stop-color="#80508f"/>
      <stop offset=".29" stop-color="#a277ab"/>
      <stop offset=".42" stop-color="#b790bc"/>
      <stop offset=".5" stop-color="#bf99c3"/>
      <stop offset=".58" stop-color="#b790bc"/>
      <stop offset=".71" stop-color="#a277ab"/>
      <stop offset=".87" stop-color="#80508f"/>
      <stop offset="1" stop-color="#612c75"/>
    </linearGradient>
  </defs>
  <g id="Layer_1-2" data-name="Layer 1">
    <g id="Mythic1">
      <path class="cls-1" d="M359.8,142.18v-67.57L457.62,0l97.82,74.6v67.57l359.8,117.18-13.99,148.39-31.26-9.94-44.46,432.49,31.14-6.62-10.16,133.93-388.88,90.23-388.88-90.23-10.16-133.93,31.14,6.62-44.46-432.49-31.26,9.94L0,259.36l359.8-117.18h0Z"/>
      <path class="cls-2" d="M457.62,222.3L51.3,351.37l-5.87-62.18,412.19-134.26,412.19,134.26-5.87,62.18-406.32-129.07h0ZM457.62,118.49l-55.39,18.78v-41.66l55.39-42.24,55.39,42.24v41.66l-55.39-18.78h0ZM457.62,1004.28l-348.94-80.96-3.52-46.34,352.45,74.95,352.45-74.95-3.52,46.34-348.94,80.96h0ZM441.46,264.49v650.72l-307.66-70.87-48.22-469.14,355.87-110.71h0ZM272.38,509.22l129.85-19.74v-155.36l-134.24,38.1,4.39,137h0ZM233.89,381.9l-101.22,28.73,10.33,118.27,94.27-14.34-3.38-132.66h0ZM473.78,264.49l355.87,110.71-48.22,469.14-307.66,70.87V264.49ZM642.86,509.22l4.39-137-134.24-38.1v155.36l129.85,19.74ZM537.07,533.47l1.45,106.93,80.26-1.92,1.92-98.52-83.63-6.49ZM681.35,381.9l-3.38,132.66,94.27,14.34,10.33-118.27-101.22-28.73Z"/>
    </g>
  </g>
</svg>