<?xml version="1.0" encoding="UTF-8" standalone="no"?>
<svg
   id="Layer_2"
   data-name="Layer 2"
   viewBox="0 0 915.24 1047.83"
   version="1.1"
   width="915.23999"
   height="1047.83"
   xmlns="http://www.w3.org/2000/svg"
   xmlns:svg="http://www.w3.org/2000/svg">
  <defs
     id="defs17">
    <style
       id="style1">
      .cls-1, .cls-2 {
        fill-rule: evenodd;
        stroke-width: 0px;
      }

      .cls-2 {
        fill: url(#linear-gradient);
      }
    </style>
    <linearGradient
       id="linear-gradient"
       x1="-497.16"
       y1="1063.87"
       x2="-496.16"
       y2="1063.87"
       gradientTransform="matrix(764.63698,587.78746,587.78746,-764.63698,-245115.89,1105975.8)"
       gradientUnits="userSpaceOnUse">
      <stop
         offset="0"
         stop-color="#626e77"
         id="stop1" />
      <stop
         offset=".04"
         stop-color="#697780"
         id="stop2" />
      <stop
         offset=".11"
         stop-color="#7d8e98"
         id="stop3" />
      <stop
         offset=".2"
         stop-color="#9eb4c0"
         id="stop4" />
      <stop
         offset=".2"
         stop-color="#a0b6c2"
         id="stop5" />
      <stop
         offset=".2"
         stop-color="#a1b7c3"
         id="stop6" />
      <stop
         offset=".29"
         stop-color="#adc6d4"
         id="stop7" />
      <stop
         offset=".38"
         stop-color="#b5cede"
         id="stop8" />
      <stop
         offset=".5"
         stop-color="#b7d1e1"
         id="stop9" />
      <stop
         offset=".62"
         stop-color="#b5cede"
         id="stop10" />
      <stop
         offset=".71"
         stop-color="#adc6d4"
         id="stop11" />
      <stop
         offset=".8"
         stop-color="#a1b7c3"
         id="stop12" />
      <stop
         offset=".8"
         stop-color="#a0b6c2"
         id="stop13" />
      <stop
         offset=".85"
         stop-color="#8b9da8"
         id="stop14" />
      <stop
         offset=".91"
         stop-color="#74838d"
         id="stop15" />
      <stop
         offset=".96"
         stop-color="#67747d"
         id="stop16" />
      <stop
         offset="1"
         stop-color="#626e77"
         id="stop17" />
    </linearGradient>
  </defs>
  <g
     id="Layer_1-2"
     data-name="Layer 1">
    <path
       class="cls-1"
       d="M 359.81,142.18 V 74.61 L 457.62,0 555.44,74.6 v 67.57 l 359.8,117.18 -13.99,148.39 -31.26,-9.94 -44.45,432.49 31.14,-6.62 L 846.5,957.6 457.62,1047.83 68.75,957.6 58.57,823.67 89.71,830.29 45.26,397.8 14,407.74 0,259.36 Z"
       id="path17" />
    <path
       class="cls-2"
       d="M 457.62,222.3 51.3,351.37 45.43,289.19 457.62,154.93 l 412.19,134.26 -5.86,62.18 z m 0,-103.81 -55.39,18.78 V 95.61 l 55.39,-42.24 55.39,42.24 v 41.66 z m 0,885.79 -348.92,-80.96 -3.53,-46.34 352.45,74.95 352.45,-74.95 -3.52,46.34 -348.94,80.96 z M 441.47,264.49 V 915.21 L 133.81,844.34 85.58,375.2 441.46,264.49 v 0 z M 272.39,509.22 402.23,489.48 V 334.12 l -134.24,38.1 z M 233.89,381.9 132.67,410.63 143,528.9 237.27,514.56 Z M 473.78,264.49 829.65,375.2 781.43,844.34 473.77,915.21 V 264.49 Z m 169.08,244.73 4.4,-137 L 513,334.12 v 155.36 l 129.85,19.74 z m -105.78,24.25 1.44,106.93 80.27,-1.92 1.92,-98.52 z m 144.27,-151.57 -3.38,132.66 94.28,14.34 10.32,-118.27 z"
       id="path18"
       style="fill:url(#linear-gradient)" />
  </g>
</svg>
