<?xml version="1.0" encoding="UTF-8" standalone="no"?>
<svg
   id="Layer_2"
   data-name="Layer 2"
   viewBox="0 0 824.38 950.92"
   version="1.1"
   width="824.38"
   height="950.91998"
   xmlns="http://www.w3.org/2000/svg"
   xmlns:svg="http://www.w3.org/2000/svg">
  <defs
     id="defs1">
    <style
       id="style1">
      .cls-1 {
        fill-rule: evenodd;
        stroke-width: 0px;
      }
    </style>
  </defs>
  <g
     id="Layer_1-2"
     data-name="Layer 1">
    <path
       class="cls-1"
       d="M 412.19,168.94 5.86,298.01 0,235.82 412.19,101.57 l 412.19,134.26 -5.87,62.18 z m 0,-103.82 L 356.8,83.9 V 42.24 L 412.19,0 467.58,42.24 V 83.9 Z m 0,885.8 -348.94,-80.96 -3.52,-46.34 352.45,74.95 352.45,-74.95 -3.53,46.34 -348.92,80.96 z M 396.02,211.13 V 861.85 L 88.36,790.98 40.14,321.84 396.01,211.13 v 0 z M 188.46,328.54 87.24,357.27 97.56,475.54 191.84,461.2 Z m 38.48,127.32 129.85,-19.74 V 280.76 l -134.26,38.1 4.4,137 z m 201.4,-244.73 355.88,110.71 -48.23,469.14 -307.66,70.87 v -650.72 0 z m 207.58,117.41 -3.38,132.66 94.27,14.34 10.33,-118.27 z m -144.28,151.57 1.44,106.93 80.27,-1.92 1.92,-98.52 z m 105.78,-24.25 4.4,-137 -134.24,-38.1 v 155.36 z"
       id="path1" />
  </g>
</svg>
