<svg xmlns="http://www.w3.org/2000/svg" width="348.17" height="316.005" viewBox="0 0 261.128 237.004"><path d="M106.36.014c15.99-.03 31.98 0 47.98-.01 3.04 32.68 6.09 65.35 9.12 98.03 16.43 3.87 31.43 12.21 44.68 22.52 15.43-4.54 30.86-9.11 46.29-13.65-4.65 16.28-9.36 32.55-14 48.83 10.23 16.24 16.92 34.69 19.47 53.71 1.32 9.12 1.31 18.36 1.16 27.56H.19c-1.41-27.98 5.01-56.54 20.04-80.33-4.7-16.7-9.48-33.38-14.2-50.08 15.67 4.66 31.34 9.35 47.01 14.01 13.02-10.14 27.75-18.37 43.85-22.39 3.08-32.74 6.34-65.46 9.47-98.2" style="fill:gray"/><path d="M68.88 156.064c10.34-8.56 23.18-13.21 35.65-17.71-.81 14.92-1.65 29.83-2.47 44.75-11.06-9.02-22.15-18-33.18-27.04m13.55.53c4.13 3.42 8.32 6.78 12.47 10.19.3-5.49.61-10.98.91-16.47-4.56 1.87-9.05 3.92-13.38 6.28m73.17-18.61c12.75 4.41 25.84 9.11 36.42 17.76-11.32 9.17-22.65 18.33-33.99 27.47-.83-15.07-1.63-30.15-2.43-45.23m8.69 11.83c.3 5.71.63 11.42.92 17.14 4.39-3.55 8.79-7.1 13.19-10.66-4.55-2.48-9.29-4.59-14.11-6.48m15.24 55.38c8.59-11.48 17.64-22.62 26.43-33.94 7.73 12.03 13.23 25.43 17.24 39.12-14.56-1.7-29.1-3.54-43.67-5.18m15.21-6.49q8.4 1.02 16.8 2.01c-1.98-5.1-4.15-10.13-6.58-15.04-3.41 4.33-6.81 8.68-10.22 13.03m-156.63 11.33c3.96-13.31 9.26-26.35 16.69-38.12 8.66 11.04 17.29 22.11 25.92 33.18-14.2 1.68-28.4 3.31-42.61 4.94m11.71-9.61c5.19-.59 10.37-1.2 15.56-1.79-3.15-4.08-6.34-8.13-9.51-12.2-2.23 4.57-4.16 9.27-6.05 13.99" style="fill:gray"/><path d="M113.67 8.204c2.62-.01 5.25-.02 7.88-.02.01 31.57.03 63.14-.01 94.71 5.84-.14 11.67-.11 17.51 0 .02-31.57 0-63.14.01-94.7q3.975-.015 7.95 0c3.01 32.21 5.99 64.42 9.01 96.63 18.77 3.26 35.84 12.76 50.4 24.78 12.06-3.53 24.11-7.13 36.17-10.65-3.65 12.7-7.29 25.41-10.94 38.11 14.19 21.02 21.67 46.38 21.46 71.72-38.02.08-76.03.02-114.05.03-.02-30.78.01-61.56-.01-92.34-5.83-.21-11.67-.21-17.5.06.01 30.76.01 61.52 0 92.29-37.81-.03-75.62.04-113.43-.04-.19-24.98 7.05-49.97 20.88-70.8-3.72-13.11-7.46-26.2-11.16-39.31 12.31 3.64 24.61 7.35 36.92 10.98 14.32-11.84 31.06-21.28 49.51-24.66 3.15-32.26 6.27-64.53 9.4-96.79m-44.79 147.86c11.03 9.04 22.12 18.02 33.18 27.04.82-14.92 1.66-29.83 2.47-44.75-12.47 4.5-25.31 9.15-35.65 17.71m86.72-18.08c.8 15.08 1.6 30.16 2.43 45.23 11.34-9.14 22.67-18.3 33.99-27.47-10.58-8.65-23.67-13.35-36.42-17.76m23.93 67.21c14.57 1.64 29.11 3.48 43.67 5.18-4.01-13.69-9.51-27.09-17.24-39.12-8.79 11.32-17.84 22.46-26.43 33.94m-141.42 4.84c14.21-1.63 28.41-3.26 42.61-4.94-8.63-11.07-17.26-22.14-25.92-33.18-7.43 11.77-12.73 24.81-16.69 38.12"/></svg>