<svg xmlns="http://www.w3.org/2000/svg" width="216" height="172.018" viewBox="0 0 216 172.018"><path d="M95.759 14.171c-2.098 4.62-3.458 9.34-1.902 14.38.299.254 6.37-1.4 7.373-1.59 17.696-3.369 35.578-.376 50.383 9.956 7.742 5.403 13.908 12.685 21.068 18.772.28-.15.072-.715.009-.97-.759-3.069-2.615-6.165-4.21-8.867 1.901-.11 3.986-.419 5.87-.492 11.625-.453 23.53.225 34.93 2.412-4.875 9.845-13.355 18.198-21.726 25.192-21.732 18.156-50.404 32.541-76.442 43.558-26.885 11.376-68.364 26.11-97.513 21.93-1.176-.17-5.361-.797-6.161-1.28-.4-.242.152-.907.29-1.155.972-1.76 2.346-3.707 3.499-5.38 6.134-8.9 13.616-16.978 21.296-24.545.572-.103.3.261.347.605a59 59 0 0 0 2.173 9.713l.361-.236c1.387-8.709 1.953-17.537 3.552-26.209C44.754 58.503 63.08 34.015 90.02 17.43c1.865-1.148 3.762-2.311 5.739-3.259m51.124 56.879c-9.138-26.96-41.835-38.277-65.89-22.567-19.059 12.448-25.735 38.212-14.753 58.324l-11.279 3.84c3.846-.483 7.698-1.403 11.476-2.32 32.436-7.883 63.292-22.405 90.042-42.198l-.354-.116zm-17.928 77.955c19.068-13.55 34.119-33.244 40.003-56.115-7.998 4.868-16.096 9.592-24.464 13.814-9.975 17.752-30.19 27.194-50.272 22.19-9.728 3.571-19.567 6.957-29.663 9.357-.118.563.077.385.31.537 8.847 5.735 22.53 8.182 32.94 7.632 6.332-.335 12.452-2.159 18.57-3.593 2.163 5.139.366 10.148-1.898 14.862.598.597 13.216-7.79 14.475-8.684" style="fill:red"/><path d="M0 138.73c6.065-11.534 14.393-21.637 23.274-31.087l9.24-8.758c1.873-42.87 29.564-76.882 67.884-93.637 3.615-1.581 8.612-3.874 12.275-5.005.287-.089.864-.424 1.086-.114-5.394 6.743-12.862 12.676-14.878 21.48 14.13-3.802 29.2-3.173 42.711 2.529 8.8 3.713 16.515 9.942 23.215 16.634 12.928-1.262 26.17-1.323 39.033.558 4.108.6 8.172 1.47 12.16 2.6v1.44c-1.539 5.604-4.76 10.555-8.305 15.095-8.707 11.15-20.447 19.952-31.884 28.116-3.273 14.036-9.068 27.254-17.455 38.945-15.155 21.124-36.506 34.217-60.274 43.886-.588.24-1.457.765-2.08.559 5.88-6.986 13.486-13.221 15.838-22.439-18.677 4.772-38.742 1.76-54.594-9.253-13.944 2.9-28.9 5.464-43.175 3.7-4.89-.604-9.797-1.806-14.071-4.29zM95.759 14.17c-1.977.948-3.874 2.11-5.739 3.26-26.94 16.584-45.266 41.072-51.064 72.534-1.599 8.672-2.165 17.5-3.552 26.209l-.361.236a59 59 0 0 1-2.173-9.713c-.048-.344.225-.708-.347-.605-7.68 7.567-15.162 15.645-21.296 24.545-1.153 1.673-2.527 3.62-3.5 5.38-.137.248-.69.913-.29 1.155.8.483 4.986 1.11 6.162 1.28 29.149 4.18 70.628-10.554 97.513-21.93 26.038-11.017 54.71-25.402 76.442-43.558 8.371-6.994 16.851-15.347 21.726-25.192-11.4-2.187-23.305-2.865-34.93-2.412-1.884.073-3.969.382-5.87.492 1.595 2.702 3.451 5.798 4.21 8.868.063.254.271.819-.009.969-7.16-6.087-13.326-13.37-21.068-18.772-14.805-10.332-32.687-13.325-50.383-9.957-1.003.191-7.074 1.845-7.373 1.591-1.556-5.04-.196-9.761 1.902-14.38m18.722 143.518c.598.597 13.216-7.79 14.474-8.684 19.068-13.55 34.119-33.244 40.003-56.115-7.998 4.868-16.096 9.592-24.464 13.814-9.975 17.752-30.19 27.194-50.272 22.19-9.728 3.571-19.567 6.957-29.663 9.357-.118.563.077.385.31.537 8.847 5.735 22.53 8.182 32.94 7.632 6.332-.335 12.452-2.159 18.57-3.593 2.163 5.139.366 10.148-1.898 14.862M80.993 48.483C61.934 60.931 55.258 86.695 66.24 106.807l-11.279 3.84c3.846-.483 7.698-1.403 11.476-2.32 32.436-7.883 63.292-22.405 90.042-42.198l-.354-.116-9.242 5.037c-9.138-26.96-41.835-38.277-65.89-22.567"/></svg>