<svg xmlns="http://www.w3.org/2000/svg" xml:space="preserve" style="fill-rule:evenodd;clip-rule:evenodd;stroke-linejoin:round;stroke-miterlimit:2" viewBox="0 0 90 90"><path d="M0 0h90v90H0z" style="fill:none"/><path d="M5.607 33.204c3.997-7.03 8.903-10.907 14.491-11.877 5.481-.952 11.806.914 18.872 6a2.64 2.64 0 0 1 1.094 2.32l-2.921 44.728a2.648 2.648 0 0 1-3.235 2.406c-5.831-1.345-11.545-5.529-16.302-11.342-6.861-8.385-11.753-20.131-12.34-30.782a2.64 2.64 0 0 1 .341-1.453m79.131 1.453c-.588 10.651-5.48 22.397-12.34 30.782-4.757 5.813-10.472 9.997-16.302 11.342a2.646 2.646 0 0 1-3.235-2.406l-2.922-44.728a2.65 2.65 0 0 1 1.095-2.32c7.066-5.086 13.391-6.952 18.872-6 5.587.97 10.494 4.847 14.49 11.877.252.441.37.946.342 1.453"/><path d="M7.908 34.511c7.032-12.369 16.842-14.158 29.516-5.037l-2.922 44.728C21.18 71.13 8.839 51.385 7.908 34.511m74.188 0c-.931 16.874-13.272 36.619-26.595 39.691L52.58 29.474c12.674-9.121 22.484-7.332 29.516 5.037" style="fill:#65327a"/><path d="M56.745 6.329c4.328 0 11.606-3.383 14.65-5.174L73.336.012l1.438 1.734c3.697 4.457 6.22 7.517 7.733 11.895 1.868 5.405 3.307 14.032 3.208 20.277l-.092 5.847-4.331-3.93c-1.404-1.273-2.451-1.853-3.352-1.61-1.116.301-1.549 1.699-1.549 2.706 0 1.918 1.146 3.603 2.485 4.891 1.375 1.323 2.995 2.277 4.162 2.434l3.29.442-1.165 3.109c-1.907 5.09-4.64 10.137-8.748 15.112l-2.098 2.54-2.028-2.597s-3.51-4.474-8.251-1.211c-.394.271-.661.769-.845 1.336-.381 1.171-.318 2.66.424 4.059.96 1.812 2.822 2.286 5.675 2.372l5.163.156-3.144 4.099c-3.975 5.184-18.947 13.642-25.482 15.797l-.829.273-.829-.273c-6.535-2.155-21.507-10.613-25.482-15.797l-3.144-4.099 5.163-.156c2.853-.086 4.715-.56 5.675-2.372.742-1.399.805-2.888.424-4.059-.184-.567-.451-1.065-.845-1.336-4.741-3.263-8.251 1.211-8.251 1.211l-2.028 2.597-2.098-2.54c-4.108-4.975-6.841-10.022-8.748-15.112l-1.165-3.109 3.29-.442c1.167-.157 2.787-1.111 4.162-2.434 1.339-1.288 2.485-2.973 2.485-4.891 0-1.007-.433-2.405-1.549-2.706-.901-.243-1.948.337-3.352 1.61l-4.331 3.93-.092-5.847c-.099-6.245 1.34-14.872 3.208-20.277 1.513-4.378 4.036-7.438 7.733-11.895L16.664.012l1.941 1.143c3.044 1.791 10.322 5.174 14.65 5.174z"/><path d="M56.745 8.976c4.714 0 12.677-3.589 15.992-5.541 3.451 4.161 5.857 6.984 7.269 11.071 1.784 5.162 3.158 13.404 3.064 19.37-5.871-5.327-9.325-.348-9.325 3.055 0 5.285 5.81 9.526 8.94 9.947-1.812 4.836-4.408 9.63-8.311 14.356 0 0-5.032-6.446-11.836-1.763-2.042 1.405-3.121 5.302-1.26 8.814 1.372 2.588 3.858 3.655 7.934 3.778C65.443 76.978 51.196 84.914 45 86.957c-6.196-2.043-20.443-9.979-24.212-14.894 4.076-.123 6.562-1.19 7.934-3.778 1.861-3.512.782-7.409-1.26-8.814-6.804-4.683-11.836 1.763-11.836 1.763-3.903-4.726-6.499-9.52-8.311-14.356 3.13-.421 8.94-4.662 8.94-9.947 0-3.403-3.454-8.382-9.325-3.055-.094-5.966 1.28-14.208 3.064-19.37 1.412-4.087 3.818-6.91 7.269-11.071 3.315 1.952 11.278 5.541 15.992 5.541z" style="fill:url(#a)"/><path d="M45 16.439h.002c12.142.001 22.404 5.776 25.789 14.99v9.348C68.91 49.253 58.998 56.17 45.002 56.17H45c-13.996 0-23.747-6.192-25.789-15.393v-9.348C22.596 22.215 32.858 16.44 45 16.439m0 26.104c6.509 0 12.124-2.134 16.897-5.779-4.959-2.816-10.563-4.207-16.897-4.207s-11.938 1.391-16.897 4.207c4.773 3.645 10.388 5.779 16.897 5.779"/><path d="M45.002 30.091c-9.014 0-18.748 2.907-23.369 11.45 0 0 0-5.999.002-8.741 0-.903.269-1.785.772-2.534C27.973 21.982 34.69 18.567 45 18.567zm0 0 .002-11.524c10.31 0 17.026 3.415 22.592 11.699.504.749.773 1.631.773 2.534l.001 8.741c-4.62-8.543-14.354-11.45-23.368-11.45m0 14.909c8.249 0 14.337-3.05 18.128-7.278 0 0 3.159 3.417 3.159 5.545 0 4.568-7.407 10.573-21.287 10.573zM45 45v8.84c-13.88 0-21.287-6.005-21.287-10.573 0-2.128 3.159-5.545 3.159-5.545C30.662 41.95 36.75 45 45 45" style="fill:#fff"/><defs><linearGradient id="a" x1="0" x2="1" y1="0" y2="0" gradientTransform="translate(6.926 45.196)scale(76.1484)" gradientUnits="userSpaceOnUse"><stop offset="0" style="stop-color:#612c75;stop-opacity:1"/><stop offset=".3" style="stop-color:#7b5190;stop-opacity:1"/><stop offset=".5" style="stop-color:#bf99c3;stop-opacity:1"/><stop offset=".7" style="stop-color:#7b5190;stop-opacity:1"/><stop offset="1" style="stop-color:#612c75;stop-opacity:1"/></linearGradient></defs></svg>