<svg xmlns="http://www.w3.org/2000/svg" xml:space="preserve" width="90" height="90" style="clip-rule:evenodd;fill-rule:evenodd;stroke-linejoin:round;stroke-miterlimit:2"><path d="M0 0h90v90H0z" style="fill:none"/><path d="M9.317 43.259a46 46 0 0 1-1.257-6.835l.648-.589c1.403-1.273 2.45-1.853 3.352-1.61 1.116.301 1.549 1.699 1.549 2.706 0 1.918-1.146 3.603-2.485 4.891a12 12 0 0 1-1.807 1.437m72.626-6.832a46 46 0 0 1-1.258 6.834 12 12 0 0 1-1.809-1.439c-1.339-1.288-2.485-2.973-2.485-4.891 0-1.007.433-2.405 1.548-2.706.902-.243 1.949.337 3.352 1.61zM71.605 62.159c-1.876 2.505-3.932 4.75-6.107 6.62-.82-.36-1.445-.908-1.882-1.733-.742-1.399-.804-2.888-.424-4.059.185-.567.452-1.065.846-1.336 3.497-2.408 6.325-.604 7.567.508m-47.101 6.619c-2.175-1.871-4.231-4.115-6.108-6.621 1.244-1.112 4.07-2.912 7.566-.506.394.271.661.769.845 1.336.381 1.171.318 2.66-.424 4.059-.437.824-1.06 1.372-1.879 1.732"/><path d="M56.745 8.976c4.714 0 12.676-3.589 15.992-5.541 3.451 4.161 5.857 6.984 7.269 11.071 1.784 5.162 3.158 13.404 3.063 19.37-5.871-5.327-9.324-.348-9.324 3.055 0 5.285 5.81 9.526 8.94 9.947-1.812 4.836-4.408 9.63-8.311 14.356 0 0-5.033-6.446-11.837-1.763-2.042 1.405-3.121 5.302-1.259 8.814 1.372 2.588 3.858 3.655 7.933 3.778C65.443 76.978 51.196 84.914 45 86.957c-6.197-2.043-20.443-9.979-24.212-14.894 4.075-.123 6.562-1.19 7.933-3.778 1.862-3.512.783-7.409-1.259-8.814-6.804-4.683-11.837 1.763-11.837 1.763-3.903-4.726-6.499-9.52-8.311-14.356 3.13-.421 8.941-4.662 8.941-9.947 0-3.403-3.454-8.382-9.325-3.055-.094-5.966 1.28-14.208 3.064-19.37 1.412-4.087 3.818-6.91 7.268-11.071 3.316 1.952 11.278 5.541 15.992 5.541ZM45 16.439c-12.142.001-22.404 5.776-25.789 14.99v9.348C21.253 49.978 31.004 56.17 45 56.17h.002c13.995 0 23.908-6.917 25.788-15.393v-9.348c-3.384-9.214-13.646-14.989-25.788-14.99Zm0 26.104c-6.509 0-12.124-2.134-16.897-5.779 4.959-2.816 10.562-4.207 16.897-4.207s11.937 1.391 16.896 4.207C57.124 40.409 51.509 42.543 45 42.543"/><path d="m45.002 30.091.001-11.524c10.311 0 17.027 3.415 22.593 11.699.503.749.772 1.631.772 2.534.002 2.742.002 8.741.002 8.741-4.621-8.543-14.355-11.45-23.368-11.45m0 0c-9.014 0-18.748 2.907-23.369 11.45 0 0 0-5.999.002-8.741 0-.903.269-1.785.772-2.534C27.973 21.982 34.689 18.567 45 18.567Zm0 14.909c8.249 0 14.337-3.05 18.127-7.278 0 0 3.16 3.417 3.16 5.545 0 4.568-7.408 10.573-21.287 10.573zM45 45v8.84c-13.88 0-21.287-6.005-21.287-10.573 0-2.128 3.159-5.545 3.159-5.545C30.662 41.95 36.75 45 45 45"/></svg>