<?xml version="1.0" encoding="UTF-8" standalone="no"?>
<!-- Generator: Adobe Illustrator 15.1.0, SVG Export Plug-In . SVG Version: 6.00 Build 0)  -->

<svg
   version="1.1"
   id="Layer_1"
   x="0px"
   y="0px"
   width="150.00002"
   height="93.507004"
   viewBox="0 0 150.00002 93.507004"
   enable-background="new 0 0 155 100"
   xml:space="preserve"
   xmlns="http://www.w3.org/2000/svg"
   xmlns:svg="http://www.w3.org/2000/svg"><defs
   id="defs20" />
<g
   id="Layer_1_1_"
   transform="translate(-1.9999977,-2.896)">
</g>
<g
   id="Layer_3"
   display="none"
   transform="translate(-1.9999977,-2.896)">
</g>
<g
   id="g20"
   transform="translate(-1.9999977,-2.896)">
	<path
   fill="#ffffff"
   d="m 77,63.487 c -8.402,0 -15.238,-6.837 -15.238,-15.239 0,-8.402 6.836,-15.238 15.238,-15.238 8.402,0 15.238,6.836 15.238,15.238 0,8.402 -6.836,15.239 -15.238,15.239 z M 54.447,48.248 c 0,-11.188 8.197,-20.474 18.896,-22.229 V 2.896 C 57.344,4.231 48.352,13.91 48.352,13.91 45.1,11.472 40.63,8.83 40.63,8.83 38.192,11.879 29.455,20.412 21.124,20.412 c -8.331,0 -14.832,-5.689 -14.832,-5.689 0,0 -4.673,9.346 -4.267,21.943 0.407,12.599 1.625,15.443 4.876,17.881 3.251,2.438 14.223,8.94 22.147,11.582 0,0 -4.471,3.86 -8.737,9.753 0,0 4.268,2.642 8.331,6.095 4.063,3.454 12.395,10.361 16.457,14.426 0,0 13.969,-14.813 28.243,-10.316 V 70.478 C 62.645,68.722 54.447,59.437 54.447,48.248 Z m 97.528,-11.582 c -0.406,12.599 -1.625,15.443 -4.876,17.881 -3.251,2.438 -14.223,8.94 -22.147,11.582 0,0 4.471,3.86 8.737,9.753 0,0 -4.268,2.642 -8.331,6.095 -4.063,3.454 -12.395,10.361 -16.457,14.426 0,0 -13.969,-14.813 -28.243,-10.316 V 70.478 C 91.356,68.722 99.554,59.437 99.554,48.249 99.554,37.061 91.357,27.775 80.658,26.02 V 2.896 c 15.999,1.335 24.991,11.014 24.991,11.014 3.252,-2.438 7.722,-5.08 7.722,-5.08 2.438,3.049 11.175,11.582 19.506,11.582 8.331,0 14.832,-5.689 14.832,-5.689 0,0 4.672,9.345 4.266,21.943 z"
   id="path1" />
	<linearGradient
   id="SVGID_1_"
   gradientUnits="userSpaceOnUse"
   x1="5.6577001"
   y1="49.234402"
   x2="148.3428"
   y2="49.234402">
		<stop
   offset="0"
   style="stop-color:#622D76"
   id="stop1" />
		<stop
   offset="0.0531"
   style="stop-color:#653179"
   id="stop2" />
		<stop
   offset="0.1225"
   style="stop-color:#6D3E81"
   id="stop3" />
		<stop
   offset="0.2"
   style="stop-color:#7B5290"
   id="stop4" />
		<stop
   offset="0.2115"
   style="stop-color:#805894"
   id="stop5" />
		<stop
   offset="0.2604"
   style="stop-color:#956EA3"
   id="stop6" />
		<stop
   offset="0.3118"
   style="stop-color:#A680B0"
   id="stop7" />
		<stop
   offset="0.3663"
   style="stop-color:#B48DBA"
   id="stop8" />
		<stop
   offset="0.4259"
   style="stop-color:#BC96C0"
   id="stop9" />
		<stop
   offset="0.5"
   style="stop-color:#BF99C2"
   id="stop10" />
		<stop
   offset="0.5741"
   style="stop-color:#BC96C0"
   id="stop11" />
		<stop
   offset="0.6337"
   style="stop-color:#B48DBA"
   id="stop12" />
		<stop
   offset="0.6882"
   style="stop-color:#A680B0"
   id="stop13" />
		<stop
   offset="0.7396"
   style="stop-color:#956EA3"
   id="stop14" />
		<stop
   offset="0.7885"
   style="stop-color:#805894"
   id="stop15" />
		<stop
   offset="0.8"
   style="stop-color:#7B5290"
   id="stop16" />
		<stop
   offset="0.826"
   style="stop-color:#754989"
   id="stop17" />
		<stop
   offset="0.8852"
   style="stop-color:#6A397E"
   id="stop18" />
		<stop
   offset="0.9436"
   style="stop-color:#643078"
   id="stop19" />
		<stop
   offset="1"
   style="stop-color:#622D76"
   id="stop20" />
	</linearGradient>
	<path
   fill="url(#SVGID_1_)"
   d="m 88.582,48.248 c 0,6.396 -5.186,11.581 -11.582,11.581 -6.396,0 -11.582,-5.186 -11.582,-11.581 0,-6.396 5.186,-11.582 11.582,-11.582 6.396,0 11.582,5.186 11.582,11.582 z m -37.793,0 c 0,-11.912 7.996,-21.976 18.896,-25.152 V 7.094 C 57.852,9.338 51.103,16.323 51.033,16.397 l -2.24,2.416 -2.637,-1.977 c -1.535,-1.151 -3.387,-2.369 -4.853,-3.297 -4.186,4.25 -12.113,10.53 -20.18,10.53 -5.341,0 -9.982,-1.96 -13.102,-3.744 -1.177,3.604 -2.562,9.394 -2.342,16.224 0.395,12.201 1.555,13.677 3.417,15.072 2.871,2.153 16.154,9.544 23.609,12.171 7.455,2.626 16.256,4.774 16.256,4.774 -10.465,-0.406 -15.747,-1.422 -15.747,-1.422 -0.033,0.028 -4.507,4.137 -7.608,7.88 1.565,1.104 3.5,2.547 5.405,4.166 l 2.29,1.937 c 3.618,3.054 8.29,6.997 11.824,10.248 4.196,-3.614 12.822,-9.813 22.627,-9.813 0.651,0 1.294,0.037 1.934,0.092 V 73.399 C 58.785,70.224 50.789,60.16 50.789,48.248 Z m 95.189,-27.923 c -3.119,1.784 -7.761,3.744 -13.102,3.744 -8.066,0 -15.994,-6.28 -20.18,-10.53 -1.466,0.928 -3.317,2.146 -4.853,3.297 l -2.637,1.977 -2.24,-2.416 C 102.896,16.323 96.147,9.338 84.314,7.094 v 16.002 c 10.9,3.177 18.896,13.24 18.896,25.152 0,11.912 -7.996,21.976 -18.896,25.151 v 8.255 c 0.64,-0.055 1.282,-0.092 1.934,-0.092 9.805,0 18.431,6.198 22.627,9.813 3.534,-3.251 8.206,-7.194 11.824,-10.248 l 2.29,-1.937 c 1.905,-1.619 3.84,-3.062 5.406,-4.166 -3.103,-3.743 -7.576,-7.852 -7.609,-7.88 0,0 -5.282,1.016 -15.747,1.422 0,0 8.801,-2.148 16.256,-4.774 7.455,-2.627 20.738,-10.018 23.609,-12.171 1.861,-1.396 3.021,-2.871 3.415,-15.072 0.22,-6.83 -1.165,-12.619 -2.341,-16.224 z"
   id="path20"
   style="fill:url(#SVGID_1_)" />
</g>
</svg>
