<?xml version="1.0" encoding="UTF-8" standalone="no"?>
<!-- Generator: Adobe Illustrator 15.1.0, SVG Export Plug-In . SVG Version: 6.00 Build 0)  -->

<svg
   version="1.1"
   id="Layer_1"
   x="0px"
   y="0px"
   width="150.00055"
   height="88.600998"
   viewBox="0 0 150.00055 88.600998"
   enable-background="new 0 0 155 100"
   xml:space="preserve"
   xmlns="http://www.w3.org/2000/svg"
   xmlns:svg="http://www.w3.org/2000/svg"><defs
   id="defs1" />
<g
   id="Layer_1_1_"
   transform="translate(-2.5006268,-5.934)">
</g>
<g
   id="Layer_3"
   display="none"
   transform="translate(-2.5006268,-5.934)">
</g>
<g
   id="g1"
   transform="translate(-2.5006268,-5.934)">
	<path
   fill="#000000"
   d="m 89.676,49.197 c 0,6.724 -5.451,12.175 -12.176,12.175 -6.725,0 -12.176,-5.451 -12.176,-12.175 0,-6.724 5.451,-12.176 12.176,-12.176 6.725,0 12.176,5.452 12.176,12.176 z m -39.731,0 c 0,-12.522 8.406,-23.102 19.865,-26.441 V 5.934 C 57.371,8.293 50.275,15.635 50.202,15.713 l -2.355,2.54 -2.771,-2.078 c -1.614,-1.21 -3.561,-2.49 -5.102,-3.466 -4.4,4.468 -12.734,11.07 -21.214,11.07 -5.614,0 -10.494,-2.061 -13.773,-3.936 -1.237,3.789 -2.693,9.875 -2.462,17.055 0.414,12.827 1.633,14.378 3.59,15.845 3.019,2.264 16.983,10.033 24.82,12.795 7.837,2.761 17.089,5.02 17.089,5.02 C 37.023,70.131 31.47,69.063 31.47,69.063 c -0.035,0.03 -4.738,4.349 -7.999,8.284 1.646,1.161 3.679,2.678 5.682,4.38 l 2.408,2.035 c 3.804,3.211 8.715,7.356 12.43,10.773 4.412,-3.799 13.48,-10.315 23.787,-10.315 0.685,0 1.36,0.039 2.033,0.097 V 75.639 C 58.352,72.3 49.945,61.721 49.945,49.197 Z M 150.014,19.843 c -3.279,1.875 -8.158,3.936 -13.773,3.936 -8.479,0 -16.814,-6.603 -21.214,-11.07 -1.541,0.976 -3.487,2.256 -5.102,3.466 l -2.771,2.078 -2.355,-2.54 C 104.726,15.635 97.63,8.293 85.191,5.934 v 16.822 c 11.459,3.339 19.865,13.919 19.865,26.441 0,12.523 -8.406,23.103 -19.865,26.441 v 8.678 c 0.672,-0.058 1.348,-0.097 2.033,-0.097 10.307,0 19.375,6.517 23.787,10.315 3.715,-3.417 8.626,-7.563 12.43,-10.773 l 2.408,-2.035 c 2.002,-1.702 4.036,-3.219 5.683,-4.38 -3.262,-3.936 -7.964,-8.254 -7.999,-8.284 0,0 -5.553,1.068 -16.555,1.495 0,0 9.252,-2.259 17.09,-5.02 7.836,-2.762 21.801,-10.531 24.819,-12.795 1.956,-1.467 3.177,-3.018 3.59,-15.845 0.23,-7.179 -1.226,-13.265 -2.463,-17.054 z"
   id="path1" />
</g>
</svg>
