<?xml version="1.0" encoding="UTF-8" standalone="no"?>
<!-- Generator: Adobe Illustrator 15.1.0, SVG Export Plug-In . SVG Version: 6.00 Build 0)  -->

<svg
   version="1.1"
   id="Layer_1"
   x="0px"
   y="0px"
   width="150.00101"
   height="164.478"
   viewBox="0 0 150.00101 164.478"
   enable-background="new 0 0 160 180"
   xml:space="preserve"
   xmlns="http://www.w3.org/2000/svg"
   xmlns:svg="http://www.w3.org/2000/svg"><defs
   id="defs3" />
<g
   id="Layer_1_1_"
   transform="translate(-4.583,-7.411)">
</g>
<g
   id="Layer_3"
   display="none"
   transform="translate(-4.583,-7.411)">
</g>
<g
   id="g3"
   transform="translate(-4.583,-7.411)">
	<path
   fill="#5d5e61"
   d="m 79.583,171.889 c 8.407,-4.461 23.085,-12.66 35.375,-20.781 12.315,-8.136 24.843,-19.812 24.843,-19.812 l -3.847,-3.667 v -24.817 c 3.364,-2.942 9.649,-8.645 14.435,-14.223 l 1.426,-1.668 0.11,-2.146 c 0.009,-0.171 0.873,-16.913 2.31,-29.195 l 0.349,-2.96 -2.122,-2.192 C 151.58,49.515 143.621,41.682 122.198,32.547 V 22.66 L 95.176,7.411 c 0,0 -1.191,17.259 -15.593,17.259 C 65.182,24.67 63.99,7.411 63.99,7.411 L 36.969,22.66 v 9.885 C 15.546,41.681 7.587,49.514 6.705,50.426 l -2.122,2.192 0.348,2.96 c 1.437,12.282 2.301,29.024 2.31,29.195 l 0.11,2.146 1.426,1.668 c 4.785,5.579 11.071,11.281 14.435,14.223 v 24.817 l -3.847,3.667 c 0,0 12.527,11.676 24.843,19.812 12.29,8.123 26.968,16.322 35.375,20.783 z"
   id="path1" />
	<path
   d="m 36.334,91.561 c -2.779,1.898 -5.63,4.055 -8.565,6.521 -3.776,-3.434 -9.938,-9.323 -13.626,-13.626 0,0 -0.865,-16.967 -2.344,-29.602 0,0 8.143,-8.424 32.082,-18.018 V 26.384 l 15.464,-8.737 c 0,0 4.024,11.004 16.493,13.756 l -0.346,0.566 c -0.042,0.067 -1.731,2.852 -3.705,6.663 -1.291,0.324 -2.825,0.708 -2.825,0.708 C 56.081,42.572 49.24,51.08 46.06,58.548 l -3.976,-5.302 c 0,0 -9.502,10.319 -9.502,23.768 0,7.563 2.064,12.096 3.752,14.547 z m 8.551,0.348 c -4.678,2.661 -9.679,6.138 -14.971,10.656 l 0.209,0.491 v 18.254 l 12.152,10.475 h 1.275 v 10.354 c 9.734,8.092 26.12,16.984 33.635,20.861 v -14.047 c 0.001,-13.533 -9.537,-43.072 -32.3,-57.044 z m 77.947,-0.348 c 2.779,1.898 5.631,4.055 8.564,6.521 3.777,-3.434 9.938,-9.323 13.627,-13.626 0,0 0.865,-16.967 2.344,-29.602 0,0 -8.143,-8.424 -32.082,-18.018 V 26.384 L 99.821,17.647 c 0,0 -4.024,11.004 -16.493,13.756 l 0.346,0.566 c 0.041,0.067 1.731,2.852 3.705,6.663 1.291,0.324 2.824,0.708 2.824,0.708 12.882,3.231 19.723,11.739 22.902,19.207 l 3.977,-5.302 c 0,0 9.502,10.319 9.502,23.768 0,7.564 -2.064,12.097 -3.752,14.548 z M 81.98,148.953 V 163 c 7.515,-3.877 23.9,-12.77 33.635,-20.861 v -10.354 h 1.275 l 12.152,-10.475 v -18.254 l 0.209,-0.491 C 123.958,98.046 118.958,94.57 114.28,91.909 91.518,105.881 81.98,135.42 81.98,148.953 Z"
   id="path2" />
	<path
   fill="#ffffff"
   d="m 79.583,34.468 c 3.714,6.081 9.222,17.143 9.222,21.869 0,7.493 -4.361,9.197 -9.222,9.197 -4.86,0 -9.222,-1.705 -9.222,-9.197 0,-4.726 5.508,-15.788 9.222,-21.869 z M 49.787,89.355 c 14.007,9.49 22.643,23.963 27.399,36.869 V 83.149 c -6.539,0.074 -15.843,0.709 -27.399,6.206 z M 77.186,70.18 C 69.773,69.322 65.568,64.393 65.568,56.337 c 0,-3.222 1.584,-7.759 3.487,-12.047 v 0 c -19.137,5.444 -20.497,23.406 -20.497,23.406 0,0 -3.53,-2.534 -6.326,-6.262 0,0 -4.857,6.991 -4.857,15.58 0,6.616 1.809,10.262 2.991,11.942 13.838,-8.419 25.81,-10.361 36.82,-10.585 z m 4.794,12.969 v 43.075 C 86.736,113.318 95.372,98.845 109.378,89.355 97.822,83.858 88.52,83.223 81.98,83.149 Z m 0,-4.778 c 11.01,0.224 22.981,2.166 36.819,10.585 1.183,-1.681 2.991,-5.327 2.991,-11.942 0,-8.589 -4.857,-15.58 -4.857,-15.58 -2.797,3.729 -6.326,6.262 -6.326,6.262 0,0 -1.359,-17.962 -20.496,-23.406 v 0 c 1.902,4.288 3.486,8.825 3.486,12.047 0,8.056 -4.205,12.985 -11.617,13.843 z"
   id="path3" />
</g>
</svg>
