<?xml version="1.0" encoding="UTF-8" standalone="no"?>
<!-- Generator: Adobe Illustrator 15.1.0, SVG Export Plug-In . SVG Version: 6.00 Build 0)  -->

<svg
   version="1.1"
   id="Layer_1"
   x="0px"
   y="0px"
   width="150.00101"
   height="160.825"
   viewBox="0 0 150.00101 160.825"
   enable-background="new 0 0 160 180"
   xml:space="preserve"
   xmlns="http://www.w3.org/2000/svg"
   xmlns:svg="http://www.w3.org/2000/svg"><defs
   id="defs2" />
<g
   id="Layer_1_1_"
   transform="translate(-4.583,-10.081)">
</g>
<g
   id="Layer_3"
   display="none"
   transform="translate(-4.583,-10.081)">
</g>
<path
   d="m 27.147,81.78 c -3.075,2.102 -6.229,4.487 -9.476,7.217 C 13.492,85.197 6.675,78.681 2.593,73.92 c 0,0 -0.957,-18.773 -2.593,-32.753 0,0 9.01,-9.321 35.497,-19.936 V 9.667 L 52.607,0 c 0,0 4.453,12.176 18.25,15.22 l -0.383,0.627 c -0.045,0.074 -1.916,3.155 -4.1,7.372 -1.428,0.358 -3.125,0.784 -3.125,0.784 -14.253,3.575 -21.821,12.989 -25.34,21.252 L 33.51,39.389 c 0,0 -10.514,11.417 -10.514,26.297 0,8.368 2.284,13.384 4.151,16.094 z m 9.462,0.386 C 31.433,85.11 25.9,88.957 20.044,93.957 l 0.231,0.543 v 20.197 l 13.445,11.589 h 1.412 v 11.457 c 10.771,8.952 28.9,18.791 37.216,23.082 v -15.543 c 0,-14.973 -10.554,-47.657 -35.739,-63.116 z m 86.244,-0.386 c 3.075,2.102 6.229,4.487 9.477,7.217 4.179,-3.8 10.996,-10.316 15.077,-15.077 0,0 0.957,-18.773 2.594,-32.753 0,0 -9.01,-9.321 -35.497,-19.936 V 9.667 L 97.394,0 c 0,0 -4.452,12.176 -18.249,15.22 l 0.383,0.627 c 0.046,0.074 1.915,3.155 4.1,7.372 1.428,0.358 3.125,0.784 3.125,0.784 14.253,3.575 21.821,12.989 25.34,21.252 l 4.399,-5.866 c 0,0 10.515,11.417 10.515,26.297 -0.002,8.368 -2.286,13.384 -4.154,16.094 z m -45.201,63.502 v 15.543 c 8.314,-4.291 26.444,-14.13 37.215,-23.082 v -11.457 h 1.412 l 13.445,-11.589 V 94.5 l 0.231,-0.543 c -5.855,-5 -11.39,-8.847 -16.564,-11.791 -25.185,15.459 -35.739,48.143 -35.739,63.116 z"
   id="path1" />
<path
   d="m 75,18.611 c 4.109,6.729 10.203,18.968 10.203,24.197 0,8.29 -4.826,10.176 -10.203,10.176 -5.377,0 -10.203,-1.886 -10.203,-10.176 0,-5.229 6.094,-17.469 10.203,-24.197 z m -32.968,60.73 c 15.499,10.5 25.053,26.514 30.316,40.795 V 72.474 c -7.235,0.081 -17.529,0.785 -30.316,6.867 z M 72.348,58.125 c -8.202,-0.95 -12.855,-6.403 -12.855,-15.316 0,-3.565 1.753,-8.585 3.859,-13.329 v -0.001 c -21.175,6.023 -22.679,25.897 -22.679,25.897 0,0 -3.905,-2.803 -7,-6.929 0,0 -5.374,7.735 -5.374,17.238 0,7.32 2.001,11.354 3.309,13.214 15.312,-9.315 28.558,-11.464 40.74,-11.711 z m 5.304,14.349 v 47.662 C 82.915,105.855 92.469,89.841 107.967,79.341 95.181,73.259 84.888,72.555 77.652,72.474 Z m 0,-5.286 c 12.182,0.248 25.428,2.396 40.739,11.711 1.308,-1.86 3.309,-5.894 3.309,-13.214 0,-9.503 -5.374,-17.238 -5.374,-17.238 -3.094,4.125 -6.999,6.929 -6.999,6.929 0,0 -1.504,-19.874 -22.679,-25.898 v 10e-4 c 2.105,4.744 3.858,9.764 3.858,13.329 0,8.914 -4.652,14.367 -12.854,15.316 z"
   id="path2" />
</svg>
