<svg xmlns="http://www.w3.org/2000/svg" width="600" height="624.647"><path d="M243.55 0h-4.712s-55.522 93.84-59.85 101.193c-8.611.143-125.973 1.847-125.973 1.847L0 204.964s51.203 100.15 54.826 107.154c-3.623 7.005-54.79 107.18-54.79 107.18l52.979 101.925s114.783 1.713 122.84 1.82c4.498 6.72 67.793 101.604 67.793 101.604l114.756-.107 2.4-4.007c5.65-9.379 55.354-91.886 57.38-95.401 0 0 .66-1.116 1.15-2.026 8.71-.134 127.678-1.883 127.678-1.883L600 419.3s-51.203-100.176-54.8-107.18c3.597-7.006 54.8-107.155 54.8-107.155l-52.988-101.888s-116.354-1.74-124.438-1.848L355.264 0h-4.462z"/><path d="M243.55 8.299c-6.38 10.7-59.815 101.086-59.815 101.086s-112.525 1.677-125.634 1.847c-5.675 10.913-43.779 84.282-48.758 93.804 5.22 10.173 54.755 107.082 54.755 107.082S14.563 409.054 9.343 419.272c4.98 9.477 43.083 82.855 48.758 93.76 13.073.178 122.252 1.784 122.252 1.784s61.1 91.636 67.721 101.54c11.092 0 93.947-.07 105.655-.07 18.23-30.296 55.566-92.341 57.306-95.304l3.49-6.104s114.265-1.668 127.4-1.847c5.685-10.904 43.815-84.282 48.732-93.76-5.193-10.217-54.728-107.153-54.728-107.153s49.535-96.91 54.728-107.082c-4.917-9.522-43.047-82.89-48.731-93.804-13.109-.143-123.85-1.812-123.85-1.812S357.423 18.16 350.802 8.3z" style="fill:#d1d3d4"/><path d="M311.592 39.808h-29.6l-2.4 4.185c-.803 1.392-15.759 28.127-23.95 60.51-6.8-14.01-20.596-42.35-20.596-42.35l-24.96 43.154s27.744 70.763 28.583 72.887c.17 1.499 1.74 18.373 3.096 33.356-12.823-9.057-27.886-19.73-29.064-20.533-1.365-1.704-49.713-60.644-49.713-60.644l-49.81.731s18.06 25.932 26.984 38.791c-32.277-8.674-62.991-8.78-64.598-8.78h-4.81l-16.383 29.349 1.437 3.658c6.657 16.768 26.101 36.32 41.298 49.811-15.58-.9-45.974-2.614-45.974-2.614l22.237 43.43s75.788 7.113 80.178 7.496c2.543 1.955 16.205 12.377 25.37 19.347-9.058 7.219-22.862 18.302-25.477 20.426-4.605.454-80.07 7.495-80.07 7.495L51.131 382.98s30.393-1.74 45.974-2.65c-15.197 13.492-34.641 33.08-41.298 49.846l-1.437 3.659 16.384 29.323h4.81c1.606 0 32.32-.107 64.597-8.79l-26.985 38.8 49.811.696s48-58.494 49.606-60.44c1.464-.945 17.704-11.368 30.081-19.319v31.41a503905 503905 0 0 0-32.803 76.306l27.048 40.575s13.322-27.368 20.149-41.414c4.364 19.801 11.957 46.322 23.326 60.377l2.472 3.025h33.606l2.329-4.176c.803-1.392 15.759-28.163 23.986-60.52a56827 56827 0 0 0 20.596 42.325l24.923-43.083s-27.324-69.791-28.44-72.61v-30.296c11.744 7.388 26.147 16.49 27.575 17.4 1.668 2.017 49.597 60.44 49.597 60.44l49.775-.696s-18.052-25.968-26.94-38.8c32.276 8.683 62.982 8.79 64.588 8.79h4.81l16.42-29.323-1.464-3.659c-6.657-16.767-26.11-36.354-41.307-49.846 15.58.91 45.974 2.65 45.974 2.65l-22.202-43.467s-75.671-7.112-80.169-7.495c-2.579-2.053-17.749-13.77-27.68-21.506 10.181-6.764 24.994-16.66 27.368-18.23 3.935-.349 80.481-7.532 80.481-7.532l22.202-43.431s-30.394 1.713-45.974 2.614c15.197-13.492 34.65-33.043 41.307-49.81l1.463-3.66-16.419-29.277-4.81-.072c-1.606 0-32.312.107-64.588 8.781 8.888-12.859 26.94-38.79 26.94-38.79l-49.775-.732s-48 58.556-49.597 60.51c-1.5.937-18.65 11.958-31.233 20.007-.178-14.153-.42-31.929-.455-34.267 1.392-3.168 32.838-74.208 32.838-74.208L361.5 61.805s-13.314 27.359-20.14 41.413c-4.364-19.837-11.958-46.366-23.327-60.376l-2.472-3.034z"/><path d="m207.053 427.178-47.929 58.387-30.26-.482 32.384-46.572C123.145 455.135 75.6 454.859 75.6 454.859L63.473 433.21c10.53-26.422 58.208-62.607 58.208-62.607l-56.602 3.284 13.555-26.566 78.01-7.317 35.73-28.582-35.73-27.154-78.01-7.326L65.08 250.42l56.602 3.24s-47.678-36.186-58.208-62.608l12.127-21.64s47.545-.285 85.648 16.312l-32.383-46.572 30.26-.454 47.928 58.386 44.581 31.616-4.81-52.425-27.609-70.309 15.197-26.208 24.816 51.025c4.114-41.334 27.574-82.713 27.574-82.713h24.825c17.91 22.033 26.173 81.32 26.173 81.32l24.816-50.997 16.562 24.86-31.723 71.665.696 50.998 44.868-28.796 47.892-58.422 30.251.49-32.41 46.536c38.13-16.597 85.675-16.312 85.675-16.312l12.136 21.64c-10.494 26.422-58.217 62.607-58.217 62.607l56.61-3.24-13.563 26.522-78.045 7.326-38.657 25.753 38.657 29.983 78.045 7.317 13.563 26.566-56.61-3.284s47.723 36.185 58.217 62.607l-12.136 21.649s-47.545.276-85.675-16.348l32.41 46.572-30.25.482-47.893-58.387-41.45-26.173v46.885l27.61 70.335-15.162 26.217-24.825-51.07c-4.14 41.38-27.565 82.722-27.565 82.722h-24.825c-17.918-22.032-26.173-81.32-26.173-81.32l-24.825 50.989-16.589-24.817 31.76-73.726v-48.276z" style="fill:#eaeaea"/><path d="m324.031 446.524-22.059-103.423h-11.056l-17.919 106.18c6.943 63.402 17.919 82.686 17.919 82.686h11.056c13.76-37.193 22.06-85.443 22.06-85.443m110.115-88.084-100.595-32.517-5.514 9.584 83.033 68.532c58.387 25.682 80.588 25.79 80.588 25.79l5.515-9.584c-25.343-30.537-63.027-61.805-63.027-61.805m-332.222 61.805 5.505 9.583s22.238-.134 80.624-25.789l83.034-68.532-5.542-9.584-100.568 32.517s-37.684 31.268-63.053 61.805m395.25-215.736-5.516-9.584s-22.201.108-80.588 25.798l-83.033 68.524 5.514 9.584 100.595-32.553s37.684-31.268 63.027-61.769m-332.196 61.769 100.568 32.553 5.542-9.584-83.034-68.524c-58.386-25.69-80.624-25.762-80.624-25.762l-5.505 9.548c25.37 30.501 63.053 61.769 63.053 61.769M295.065 90.806h11.048s11.02 19.31 17.918 82.72L306.113 279.7h-11.048l-22.068-103.424s8.3-48.276 22.068-85.47"/><path d="M283.143 449.451c4.079 36.605 9.522 57.762 13.038 68.497 9.833-30.117 16.24-63.616 17.606-71.28-.633-2.856-11.083-51.972-16.803-78.885-4.703 27.743-13.421 79.509-13.84 81.668M416.3 395.357c33.704 14.741 54.764 20.569 65.811 22.898-21.157-23.559-47.018-45.867-52.952-50.856-2.784-.9-50.578-16.348-76.751-24.852 21.684 17.919 62.188 51.346 63.892 52.81m-246.37-27.958c-5.925 4.989-31.794 27.297-52.916 50.856 11.048-2.33 32.107-8.157 65.775-22.898 1.705-1.464 42.244-34.927 63.929-52.81-26.173 8.504-74.003 23.951-76.787 24.852m0-110.08c2.784.946 50.614 16.42 76.787 24.852-21.685-17.883-62.224-51.346-63.929-52.774-33.668-14.742-54.763-20.595-65.775-22.898 21.122 23.558 46.991 45.84 52.917 50.82m246.37-27.922c-1.705 1.428-42.209 34.864-63.893 52.774 26.208-8.504 73.967-23.942 76.751-24.852 5.934-4.98 31.795-27.262 52.952-50.82-11.047 2.303-32.107 8.156-65.81 22.898m-133.015-53.264c.59 2.864 11.048 52.015 16.803 78.92 4.667-27.744 13.412-79.545 13.796-81.74-4.078-36.569-9.477-57.727-13.028-68.462-9.834 30.117-16.25 63.652-17.57 71.282" style="fill:#c4c4c4"/></svg>