<svg xmlns="http://www.w3.org/2000/svg" width="200.918" height="174"><path d="m100.459 0 100.459 174H0Z" style="fill:#fff"/><path d="M100.459 20 64.928 81.563c8.997-9.28 21.585-15.063 35.531-15.063s26.534 5.783 35.531 15.063zm0 52c-9.624 0-18.507 3.102-25.75 8.344l4.656 5.875A36.3 36.3 0 0 1 100.46 79.5c.483 0 .959.044 1.437.063l.72-7.5a44 44 0 0 0-2.157-.063m6.125.438-.688 7.468c13.81 2.063 25.077 11.862 29.282 24.844l7.281-1.906c-5-15.988-18.892-28.036-35.875-30.406M71.553 82.844c-7.104 6.194-12.174 14.61-14.157 24.187l7.407 1.188c1.67-7.68 5.769-14.461 11.437-19.5zM100.459 84c-12.2 0-22.789 6.833-28.188 16.875l6.375 2.938C82.924 96.173 91.081 91 100.46 91c8.383 0 15.777 4.137 20.312 10.469l6.032-3.625C121.03 89.478 111.392 84 100.459 84m0 12c-2.374 0-4.637.428-6.75 1.188l3.25 6.812c1.11-.323 2.285-.5 3.5-.5 1.284 0 2.522.203 3.687.563l3.313-6.782a19.9 19.9 0 0 0-7-1.281m-10.375 2.906c-5.767 3.51-9.625 9.85-9.625 17.094 0 6.847 3.44 12.895 8.687 16.5l3.625-6.656c-2.92-2.288-4.812-5.847-4.812-9.844 0-4.258 2.124-8.024 5.375-10.281zm20.969.156-3.344 6.75a12.54 12.54 0 0 1 4.594 6.188l7.437-1.25a20.02 20.02 0 0 0-8.687-11.687m17.812 2.22-6.031 3.593A24.9 24.9 0 0 1 125.459 116c0 13.807-11.193 25-25 25-.684 0-1.361-.04-2.031-.094l-1.125 6.938a33 33 0 0 0 3.156.156c17.673 0 32-14.327 32-32a31.85 31.85 0 0 0-3.594-14.719M52.834 102.5l-35.5 61.5h71.031c-21.492-5.397-37.406-24.834-37.406-48 0-4.681.66-9.207 1.875-13.5m95.25 0a49.5 49.5 0 0 1 1.875 13.5c0 23.166-15.914 42.603-37.406 48h71.03zm-77.5 2.031A31.9 31.9 0 0 0 68.459 116c0 15.231 10.653 27.956 24.906 31.188l1.125-6.907C83.566 137.604 75.46 127.75 75.46 116c0-2.996.534-5.87 1.5-8.531zm72.875 2.156-7.25 1.907a36.6 36.6 0 0 1 .75 7.406c0 4.92-.985 9.623-2.75 13.906l6.781 3.25A43.9 43.9 0 0 0 144.46 116c0-3.194-.354-6.312-1-9.312M56.74 111a44 44 0 0 0-.281 5c0 11.839 4.676 22.591 12.281 30.5l5.188-5.437c-6.183-6.54-9.97-15.354-9.97-25.063 0-1.291.058-2.556.188-3.812zm63.656 3.688-7.437 1.25V116c0 6.904-5.596 12.5-12.5 12.5-1.458 0-2.855-.26-4.156-.719l-3.657 6.656c2.4 1.02 5.042 1.563 7.813 1.563 11.046 0 20-8.954 20-20 0-.443-.034-.877-.063-1.312m12.094 18.843a36.64 36.64 0 0 1-15.187 14.844l3.093 6.844a44.2 44.2 0 0 0 18.844-18.469zm-55.656 10.25-5.188 5.469C79.365 155.94 89.443 160 100.46 160a43.9 43.9 0 0 0 16.281-3.125l-3.094-6.844a36.5 36.5 0 0 1-13.187 2.469c-9.02 0-17.255-3.296-23.625-8.719"/></svg>