<svg xmlns="http://www.w3.org/2000/svg" width="600" height="459.596"><path d="M264.772 459.596c-62.666 0-149.242-9.962-206.06-57.496-43.087-36.032-64.987-90.207-57.14-141.325 5.482-35.412 24.06-66.021 38.699-85.416l4.527-6.01 82.141-.413-.46-106.006 6.113-4.63C184.342 19.257 244.125 1.264 326.346.092c2.965-.046 5.93-.092 8.882-.092 62.62 0 149.242 9.962 206.06 57.495 43.087 36.044 64.987 90.22 57.14 141.338-5.436 35.412-24.06 66.02-38.699 85.416l-4.527 6.055-82.176.356.494 106.018-6.113 4.619c-51.75 39.042-111.532 57.047-193.754 58.207-2.964.046-5.929.092-8.881.092" style="fill:#fff"/><path d="M473.29 228.764c-5.066 2.838-10.271 5.216-15.706 7.319-.092-23.784-.23-47.488-.31-71.226-13.558-9.743-28.058-18.223-43.27-25.14-18.718-8.525-38.515-14.718-58.668-18.579l.276 62.034c-63.551.265-127.113.54-190.664.804.046-10.996 2.827-22.037 8.124-30.92 15.35-25.587 51.75-33.216 85.507-37.973 59.415-8.353 110.499-7.951 165.168-1.62 17.499 2.022 35.366 4.676 51.164 12.616 20.647 10.364 37.79 29.758 38.457 48.97.77 20.773-17.81 41.283-40.077 53.715M173.52 215.309c22.624-3.86 46.408-4.274 69.215-5.078 38.733-1.39 74.5-3.907 115.347 2.286 25.807 3.907 53.59 11.318 67.101 29.897.495.632.897 1.252 1.299 1.884-22.624 3.86-46.408 4.263-69.215 5.067-38.733 1.39-74.5 3.953-115.347-2.286-25.807-3.907-53.59-11.352-67.136-29.886-.46-.632-.861-1.263-1.264-1.884m253.41 91.241c-15.35 25.623-51.797 33.218-85.508 37.975-59.414 8.387-110.498 7.939-165.167 1.608-17.5-2.01-35.366-4.665-51.165-12.604-20.647-10.376-37.79-29.805-38.456-48.97-.77-20.785 17.809-41.249 40.076-53.727 5.067-2.827 10.272-5.205 15.707-7.273l.31 71.191c13.558 9.732 28.058 18.177 43.27 25.129 18.718 8.525 38.515 14.718 58.668 18.625l-.276-62.069c63.551-.275 127.113-.54 190.664-.85-.046 11.042-2.827 22.118-8.124 30.965M531.544 69.17c-51.119-42.732-132.042-54.98-204.98-53.911C258.084 16.293 196.636 29 141.75 70.468c.127 37.882.31 75.764.494 113.646-29.943.126-59.874.264-89.863.402-17.499 23.244-31.505 50.854-35.768 78.59-7.319 47.707 14.133 95.826 51.843 127.332 51.118 42.73 132.042 54.979 204.98 53.899 68.48-.988 129.927-13.777 184.814-55.163-.126-37.917-.31-75.8-.493-113.681 29.942-.092 59.874-.23 89.862-.403 17.5-23.21 31.506-50.854 35.768-78.59 7.32-47.707-14.132-95.826-51.842-127.332"/></svg>