<svg xmlns="http://www.w3.org/2000/svg" width="630.039" height="864.985"><path d="M312.17 3.006c.22-1.34 1.18-3.189 2.79-2.99 2.041-.24 2.88 2.21 3.07 3.84 19.75 121.42 39.56 242.83 59.33 364.25 10.92 1.2 21.811 2.69 32.641 4.52 20.97-88.06 39.149-176.87 51.439-266.58.29-1.83 1.609-3.78 3.689-3.65 2.9 1.07 2.53 4.61 3.17 7.07 18.261 99.88 36.621 199.74 54.891 299.62 6.95 3.74 13.77 7.73 20.399 12.03 16.45-62.37 32.94-124.74 49.36-187.11 1.41-3.08 5.12-.65 4.95 2.021 10.8 96.13 21.439 192.28 32.14 288.42-39.09 21.11-76.42 45.56-110.93 73.56 23.27 19.19 41.09 45.16 49.52 74.2 11.061 37.75 7.561 80.08-11.739 114.59-14.28 25.9-37.22 46.58-63.79 59.34-31.59 15.291-67.36 20.2-102.16 18.541-44.77-2.45-89.8-18.95-122.18-50.61-80.56-.02-161.11 0-241.67-.01-7.49-14.84-14.97-29.68-22.46-44.51 43.97-48.16 87.66-96.94 124.42-150.96C90.58 581.515 47 549.807 0 524.445c10.63-95.85 21.33-191.7 32-287.54-.45-2.79 3.19-6.35 5.06-2.95 16.44 62.34 32.91 124.7 49.36 187.06 6.67-4.34 13.54-8.35 20.56-12.09 18.54-101.21 37.02-202.44 55.55-303.65a3.58 3.58 0 0 1 2.43-2.9c2.05-.03 3.32 1.9 3.63 3.72 13.5 89.48 31.8 178.18 51.52 266.48 10.81-1.82 21.67-3.3 32.57-4.48 19.83-121.7 39.63-243.4 59.49-365.09m-150.56 415.2c-31.09 4.59-60.38 18.31-85.5 36.94-15.76 11.99-30.53 26.18-39.66 43.98 29.76 15.97 57.42 35.5 84.21 55.99 2.32-2.26 4.63-4.53 6.91-6.83-4.75-17.222-6.9-35.88-1.65-53.25 3.15-10.71 9.95-20.84 20.17-25.87 12.9-6.3 28.75-5.24 41.27 1.48 10.92 5.738 18.74 16.5 21.61 28.41 3.66 14.978 1.57 30.72-2.36 45.43-5.84 20.89-16.11 40.21-27.5 58.56-18.16 28.9-39.42 55.71-61.2 81.94-26.34 31.59-53.87 62.18-81.47 92.67 1.35 2.7 2.71 5.39 4.08 8.09 75.94 0 151.89.02 227.84-.01 19.47-31.23 38.98-62.44 58.45-93.672-3.41.19-6.93-.5-10.271.32-15.22 6.061-30.279 12.53-45.549 18.43-40.15.271-80.31.051-120.47.101 31.53-34 66.86-64.16 101.98-94.33 12.97-11.33 25.9-22.93 36.32-36.72 9.2-12.03 15.92-26.07 18.61-41.03 3.26-18.21 2.13-37.43-4.59-54.76-5.98-15.52-16.43-29.21-29.57-39.359-15.7-12.26-34.64-19.81-54.04-23.82-18.91-3.7-38.46-5.21-57.62-2.69m339.43 44.98q-84.342-.013-168.67 0c-7.26 66.211-14.53 132.41-21.79 198.621 32.12-.2 64.83 2.33 95.259 13.28 17.741 6.51 34.94 16.27 46.94 31.18 9.23 11.34 14.63 26 13.7 40.7-.47 13.23-5.5 26.84-15.92 35.42-11.979 10.04-28.44 12.6-43.61 11.43-15.729-1.12-31.43-7.92-41.55-20.28-11.01-13.1-14.86-30.77-14.26-47.55-3-1-6-1.99-9-2.98-15.49 23.45-30.95 46.93-46.43 70.4 27.589 27.75 66.81 41.45 105.39 43.11 22.3.82 44.9-1.43 66.199-8.31 25.641-8.12 49.32-24.12 64.011-46.95 21.12-32.14 23.33-74.8 8.489-109.93-11.43-27.52-33.899-49.41-60.049-63.142-34.661-18.319-74.301-24.62-113.101-25.719 1.53-14.8 3.07-29.6 4.601-44.4 56.839-.01 113.67 0 170.5-.01-4.57-33.48-9.131-66.96-13.721-100.43-3.15-.01-6.29-.01-9.43-.01-5.868 8.51-11.698 17.05-17.558 25.57"/><g fill="#fff"><path d="M316.54 692.386c-15.22 6.061-30.279 12.53-45.549 18.43-40.15.271-80.31.051-120.47.101 31.53-34 66.86-64.16 101.98-94.33 12.97-11.33 25.9-22.93 36.32-36.72 9.2-12.03 15.92-26.07 18.61-41.03 3.26-18.21 2.13-37.43-4.59-54.76-5.98-15.52-16.43-29.21-29.57-39.359-15.7-12.26-34.64-19.81-54.04-23.82-18.91-3.7-38.46-5.21-57.62-2.69-31.09 4.59-60.38 18.31-85.5 36.94-15.76 11.988-30.53 26.18-39.66 43.978 29.76 15.97 57.42 35.5 84.21 55.99 2.32-2.26 4.63-4.53 6.91-6.83-4.75-17.22-6.9-35.88-1.65-53.25 3.15-10.71 9.95-20.84 20.17-25.87 12.9-6.3 28.75-5.239 41.27 1.48 10.92 5.74 18.74 16.5 21.61 28.41 3.66 14.98 1.57 30.72-2.36 45.43-5.84 20.89-16.11 40.21-27.5 58.56-18.16 28.9-39.42 55.71-61.2 81.94-26.34 31.59-53.87 62.18-81.47 92.67 1.35 2.7 2.71 5.39 4.08 8.09 75.94 0 151.89.02 227.84-.01 19.47-31.23 38.98-62.44 58.45-93.67-3.411.19-6.931-.5-10.271.32"/><path d="M539.799 671.326c-11.43-27.52-33.899-49.41-60.049-63.14-34.661-18.32-74.301-24.62-113.101-25.72 1.53-14.8 3.07-29.6 4.601-44.4 56.839-.01 113.67 0 170.5-.01-4.57-33.48-9.131-66.96-13.721-100.43-3.15-.01-6.29-.01-9.43-.01-5.87 8.51-11.7 17.05-17.561 25.568q-84.342-.013-168.67 0c-7.26 66.211-14.53 132.41-21.79 198.621 32.12-.2 64.83 2.33 95.259 13.28 17.741 6.51 34.94 16.27 46.94 31.18 9.23 11.34 14.63 26 13.7 40.7-.47 13.23-5.5 26.84-15.92 35.42-11.979 10.04-28.44 12.6-43.61 11.43-15.729-1.12-31.43-7.92-41.55-20.28-11.01-13.1-14.86-30.77-14.26-47.55-3-1-6-1.99-9-2.98-15.49 23.45-30.95 46.93-46.43 70.4 27.589 27.75 66.81 41.45 105.39 43.11 22.3.82 44.9-1.43 66.199-8.31 25.641-8.12 49.32-24.12 64.011-46.95 21.123-32.139 23.333-74.799 8.492-109.929"/></g></svg>