<svg xmlns="http://www.w3.org/2000/svg" xmlns:xlink="http://www.w3.org/1999/xlink" width="630.038" height="864.985"><defs><linearGradient xlink:href="#a" id="b" x1="438.04" x2="-2.65" y1="353.329" y2="794.019" gradientUnits="userSpaceOnUse"/><linearGradient xlink:href="#a" id="c" x1="438.04" x2="-2.65" y1="353.329" y2="794.019" gradientUnits="userSpaceOnUse"/></defs><path d="M312.17 3.006c.22-1.34 1.18-3.189 2.789-2.99 2.04-.24 2.881 2.21 3.07 3.84 19.75 121.42 39.561 242.83 59.33 364.25 10.92 1.2 21.811 2.69 32.64 4.52 20.971-88.06 39.15-176.87 51.44-266.58.29-1.83 1.61-3.78 3.689-3.65 2.9 1.07 2.53 4.61 3.171 7.07 18.26 99.88 36.62 199.74 54.89 299.62 6.95 3.74 13.77 7.73 20.4 12.03 16.449-62.37 32.939-124.74 49.36-187.11 1.409-3.08 5.119-.65 4.949 2.021 10.801 96.13 21.44 192.28 32.14 288.42-39.089 21.11-76.42 45.56-110.93 73.56 23.27 19.19 41.091 45.16 49.52 74.2 11.061 37.75 7.561 80.08-11.739 114.59-14.28 25.9-37.22 46.58-63.79 59.34-31.59 15.291-67.36 20.2-102.16 18.541-44.77-2.45-89.8-18.95-122.18-50.61-80.561-.02-161.11 0-241.67-.01-7.49-14.84-14.971-29.68-22.46-44.51 43.97-48.16 87.659-96.94 124.419-150.96C90.579 581.515 47 549.807 0 524.445c10.63-95.85 21.329-191.7 32-287.54-.45-2.79 3.189-6.35 5.06-2.95 16.44 62.34 32.91 124.7 49.36 187.06 6.67-4.34 13.539-8.35 20.56-12.09 18.54-101.21 37.021-202.44 55.55-303.65a3.58 3.58 0 0 1 2.43-2.9c2.051-.03 3.32 1.9 3.631 3.72 13.5 89.48 31.8 178.18 51.52 266.48 10.811-1.82 21.67-3.3 32.57-4.48 19.829-121.7 39.629-243.4 59.489-365.09m-150.561 415.2c-31.09 4.59-60.38 18.31-85.5 36.94-15.76 11.99-30.53 26.18-39.66 43.98 29.76 15.97 57.42 35.5 84.211 55.99 2.319-2.26 4.629-4.53 6.909-6.83-4.75-17.222-6.899-35.88-1.649-53.25 3.149-10.71 9.949-20.84 20.17-25.87 12.9-6.3 28.75-5.24 41.27 1.48 10.92 5.738 18.74 16.5 21.61 28.41 3.659 14.978 1.569 30.72-2.36 45.43-5.84 20.89-16.109 40.21-27.5 58.56-18.16 28.9-39.42 55.71-61.199 81.94-26.341 31.59-53.871 62.18-81.471 92.67 1.35 2.7 2.71 5.39 4.08 8.09 75.939 0 151.891.02 227.84-.01 19.47-31.23 38.98-62.44 58.45-93.672-3.41.19-6.931-.5-10.271.32-15.22 6.061-30.279 12.53-45.549 18.43-40.15.271-80.311.051-120.471.101 31.529-34 66.859-64.16 101.979-94.33 12.971-11.33 25.9-22.93 36.32-36.72 9.2-12.03 15.921-26.07 18.61-41.03 3.26-18.21 2.13-37.43-4.59-54.76-5.98-15.52-16.43-29.21-29.57-39.359-15.7-12.26-34.641-19.81-54.04-23.82-18.909-3.7-38.458-5.21-57.619-2.69m339.43 44.98c-56.229-.009-112.449-.009-168.67 0-7.26 66.211-14.529 132.41-21.79 198.621 32.121-.2 64.831 2.33 95.261 13.28 17.739 6.51 34.939 16.27 46.939 31.18 9.23 11.34 14.63 26 13.7 40.7-.47 13.23-5.5 26.84-15.92 35.42-11.98 10.04-28.44 12.6-43.609 11.43-15.73-1.12-31.431-7.92-41.551-20.28-11.01-13.1-14.86-30.77-14.26-47.55-3-1-6-1.99-9-2.98-15.49 23.45-30.95 46.93-46.431 70.4 27.591 27.75 66.811 41.45 105.391 43.11 22.3.82 44.899-1.43 66.2-8.31 25.64-8.12 49.319-24.12 64.01-46.95 21.12-32.14 23.33-74.8 8.49-109.93-11.431-27.52-33.9-49.41-60.051-63.142-34.659-18.319-74.299-24.62-113.1-25.719 1.53-14.8 3.07-29.6 4.6-44.4 56.841-.01 113.671 0 170.5-.01-4.569-33.48-9.13-66.96-13.72-100.43-3.15-.01-6.29-.01-9.43-.01-5.869 8.51-11.699 17.05-17.559 25.57"/><g><linearGradient id="a" x1="438.04" x2="-2.65" y1="353.329" y2="794.019" gradientUnits="userSpaceOnUse"><stop offset=".1" style="stop-color:#8f743f"/><stop offset=".17" style="stop-color:#ac9259"/><stop offset=".254" style="stop-color:#c7af71"/><stop offset=".338" style="stop-color:#dbc383"/><stop offset=".42" style="stop-color:#e7d08d"/><stop offset=".5" style="stop-color:#ebd491"/><stop offset=".58" style="stop-color:#e7d08d"/><stop offset=".662" style="stop-color:#dbc383"/><stop offset=".746" style="stop-color:#c7af71"/><stop offset=".83" style="stop-color:#ac9259"/><stop offset=".9" style="stop-color:#8f743f"/></linearGradient><path fill="url(#a)" d="M316.539 692.386c-15.22 6.061-30.279 12.53-45.549 18.43-40.15.271-80.311.051-120.471.101 31.529-34 66.859-64.16 101.979-94.33 12.971-11.33 25.9-22.93 36.32-36.72 9.2-12.03 15.921-26.07 18.61-41.03 3.26-18.21 2.13-37.43-4.59-54.76-5.98-15.52-16.43-29.21-29.57-39.359-15.7-12.261-34.641-19.811-54.04-23.821-18.91-3.7-38.46-5.21-57.62-2.69-31.09 4.59-60.38 18.31-85.5 36.94-15.76 11.989-30.53 26.18-39.66 43.979 29.76 15.97 57.42 35.5 84.211 55.99 2.319-2.26 4.629-4.53 6.909-6.83-4.75-17.221-6.899-35.88-1.649-53.25 3.149-10.71 9.949-20.84 20.17-25.87 12.9-6.3 28.75-5.239 41.27 1.48 10.92 5.739 18.74 16.5 21.61 28.41 3.659 14.979 1.569 30.72-2.36 45.43-5.84 20.89-16.109 40.21-27.5 58.56-18.16 28.9-39.42 55.71-61.199 81.94-26.341 31.59-53.871 62.18-81.471 92.67 1.35 2.7 2.71 5.39 4.08 8.09 75.939 0 151.891.02 227.84-.01 19.47-31.23 38.98-62.44 58.45-93.671-3.41.191-6.93-.5-10.27.321" style="fill:url(#b)"/><path fill="url(#a)" d="M539.8 671.326c-11.431-27.52-33.9-49.41-60.051-63.141-34.659-18.319-74.299-24.62-113.1-25.719 1.53-14.801 3.07-29.601 4.6-44.401 56.841-.009 113.671 0 170.5-.009-4.569-33.48-9.13-66.961-13.72-100.431-3.15-.01-6.29-.01-9.43-.01-5.87 8.51-11.7 17.05-17.561 25.569-56.229-.009-112.449-.009-168.67 0-7.26 66.211-14.529 132.41-21.79 198.621 32.121-.2 64.831 2.329 95.261 13.279 17.739 6.51 34.939 16.271 46.939 31.18 9.23 11.341 14.63 26 13.7 40.7-.47 13.23-5.5 26.841-15.92 35.42-11.98 10.041-28.44 12.601-43.609 11.43-15.73-1.119-31.431-7.919-41.551-20.279-11.01-13.101-14.86-30.771-14.26-47.55-3-1-6-1.99-9-2.98-15.49 23.45-30.95 46.93-46.431 70.4 27.591 27.75 66.811 41.45 105.391 43.109 22.3.82 44.899-1.43 66.2-8.31 25.64-8.12 49.319-24.12 64.01-46.95 21.122-32.138 23.332-74.798 8.492-109.928" style="fill:url(#c)"/></g></svg>