<svg xmlns="http://www.w3.org/2000/svg" xmlns:xlink="http://www.w3.org/1999/xlink" width="630.04" height="864.985"><defs><linearGradient xlink:href="#a" id="b" x1="486.848" x2="-6.941" y1="304.523" y2="798.313" gradientUnits="userSpaceOnUse"/><linearGradient xlink:href="#a" id="c" x1="486.848" x2="-6.941" y1="304.523" y2="798.313" gradientUnits="userSpaceOnUse"/></defs><path d="M312.17 3.006c.221-1.34 1.181-3.189 2.791-2.99 2.039-.24 2.879 2.21 3.069 3.84 19.75 121.42 39.56 242.83 59.33 364.25 10.92 1.2 21.81 2.69 32.64 4.52 20.971-88.06 39.15-176.87 51.44-266.58.29-1.83 1.61-3.78 3.69-3.65 2.899 1.07 2.529 4.61 3.17 7.07 18.26 99.88 36.619 199.74 54.89 299.62 6.95 3.74 13.771 7.73 20.399 12.03 16.451-62.37 32.94-124.74 49.361-187.11 1.409-3.08 5.119-.65 4.949 2.021 10.801 96.13 21.439 192.28 32.141 288.42-39.09 21.11-76.421 45.56-110.931 73.56 23.271 19.19 41.091 45.16 49.521 74.2 11.06 37.75 7.56 80.08-11.74 114.59-14.28 25.9-37.221 46.58-63.79 59.34-31.59 15.291-67.36 20.2-102.16 18.541-44.771-2.45-89.8-18.95-122.18-50.61-80.561-.02-161.11 0-241.67-.01-7.49-14.84-14.971-29.68-22.46-44.51 43.97-48.16 87.66-96.94 124.419-150.96C90.58 581.515 47 549.807 0 524.445c10.631-95.85 21.33-191.7 32-287.54-.449-2.79 3.19-6.35 5.061-2.95 16.439 62.34 32.91 124.7 49.359 187.06 6.67-4.34 13.541-8.35 20.561-12.09 18.54-101.21 37.02-202.44 55.55-303.65a3.58 3.58 0 0 1 2.431-2.9c2.05-.03 3.319 1.9 3.629 3.72 13.5 89.48 31.801 178.18 51.521 266.48 10.81-1.82 21.67-3.3 32.57-4.48 19.829-121.7 39.629-243.4 59.488-365.09m-150.56 415.2c-31.09 4.59-60.38 18.31-85.5 36.94-15.76 11.99-30.53 26.18-39.66 43.98 29.761 15.97 57.42 35.5 84.21 55.99 2.32-2.26 4.631-4.53 6.91-6.83-4.75-17.222-6.9-35.88-1.65-53.25 3.15-10.71 9.95-20.84 20.17-25.87 12.9-6.3 28.75-5.24 41.271 1.48 10.92 5.738 18.74 16.5 21.61 28.41 3.66 14.978 1.57 30.72-2.36 45.43-5.84 20.89-16.11 40.21-27.5 58.56-18.16 28.9-39.42 55.71-61.2 81.94-26.34 31.59-53.869 62.18-81.47 92.67 1.351 2.7 2.71 5.39 4.08 8.09 75.94 0 151.89.02 227.84-.01 19.47-31.23 38.979-62.44 58.45-93.672-3.41.19-6.93-.5-10.27.32-15.221 6.061-30.28 12.53-45.551 18.43-40.15.271-80.31.051-120.47.101 31.529-34 66.86-64.16 101.979-94.33 12.971-11.33 25.9-22.93 36.32-36.72 9.2-12.03 15.92-26.07 18.61-41.03 3.26-18.21 2.13-37.43-4.591-54.76-5.979-15.52-16.43-29.21-29.569-39.359-15.7-12.26-34.64-19.81-54.04-23.82-18.909-3.7-38.458-5.21-57.619-2.69m339.431 44.98q-84.343-.013-168.671 0c-7.26 66.211-14.53 132.41-21.79 198.621 32.121-.2 64.83 2.33 95.26 13.28 17.74 6.51 34.94 16.27 46.94 31.18 9.23 11.34 14.63 26 13.7 40.7-.47 13.23-5.5 26.84-15.92 35.42-11.98 10.04-28.44 12.6-43.609 11.43-15.73-1.12-31.431-7.92-41.551-20.28-11.01-13.1-14.859-30.77-14.26-47.55-3-1-6-1.99-9-2.98-15.49 23.45-30.95 46.93-46.43 70.4 27.59 27.75 66.81 41.45 105.39 43.11 22.3.82 44.899-1.43 66.2-8.31 25.64-8.12 49.319-24.12 64.01-46.95 21.12-32.14 23.33-74.8 8.49-109.93-11.431-27.52-33.9-49.41-60.051-63.142-34.66-18.319-74.299-24.62-113.1-25.719 1.53-14.8 3.07-29.6 4.6-44.4 56.84-.01 113.67 0 170.5-.01-4.569-33.48-9.13-66.96-13.72-100.43-3.149-.01-6.29-.01-9.43-.01-5.869 8.51-11.699 17.05-17.558 25.57"/><g><linearGradient id="a" x1="486.848" x2="-6.941" y1="304.523" y2="798.313" gradientUnits="userSpaceOnUse"><stop offset=".1" style="stop-color:#6d7984"/><stop offset=".157" style="stop-color:#7f8f9b"/><stop offset=".244" style="stop-color:#96aab8"/><stop offset=".331" style="stop-color:#a7bdcc"/><stop offset=".417" style="stop-color:#b1c9d9"/><stop offset=".5" style="stop-color:#b4cddd"/><stop offset=".583" style="stop-color:#b1c9d9"/><stop offset=".669" style="stop-color:#a7bdcc"/><stop offset=".756" style="stop-color:#96aab8"/><stop offset=".843" style="stop-color:#7f8f9b"/><stop offset=".9" style="stop-color:#6d7984"/></linearGradient><path fill="url(#a)" d="M316.541 692.386c-15.221 6.061-30.28 12.53-45.551 18.43-40.15.271-80.31.051-120.47.101 31.529-34 66.86-64.16 101.979-94.33 12.971-11.33 25.9-22.93 36.32-36.72 9.2-12.03 15.92-26.07 18.61-41.03 3.26-18.21 2.13-37.43-4.591-54.76-5.979-15.52-16.43-29.21-29.569-39.359-15.7-12.261-34.64-19.811-54.04-23.821-18.91-3.7-38.46-5.21-57.62-2.69-31.09 4.59-60.38 18.31-85.5 36.94-15.76 11.989-30.53 26.18-39.66 43.979 29.761 15.97 57.42 35.5 84.21 55.99 2.32-2.26 4.631-4.53 6.91-6.83-4.75-17.221-6.9-35.88-1.65-53.25 3.15-10.71 9.95-20.84 20.17-25.87 12.9-6.3 28.75-5.239 41.271 1.48 10.92 5.739 18.74 16.5 21.61 28.41 3.66 14.979 1.57 30.72-2.36 45.43-5.84 20.89-16.11 40.21-27.5 58.56-18.16 28.9-39.42 55.71-61.2 81.94-26.34 31.59-53.869 62.18-81.47 92.67 1.351 2.7 2.71 5.39 4.08 8.09 75.94 0 151.89.02 227.84-.01 19.47-31.23 38.979-62.44 58.45-93.671-3.41.191-6.929-.5-10.269.321" style="fill:url(#b)"/><path fill="url(#a)" d="M539.801 671.326c-11.431-27.52-33.9-49.41-60.051-63.141-34.66-18.319-74.299-24.62-113.1-25.719 1.53-14.801 3.07-29.601 4.6-44.401 56.84-.009 113.67 0 170.5-.009-4.569-33.48-9.13-66.961-13.72-100.431-3.149-.01-6.29-.01-9.43-.01-5.87 8.51-11.7 17.05-17.56 25.569-56.23-.009-112.451-.009-168.671 0-7.26 66.211-14.53 132.41-21.79 198.621 32.121-.2 64.83 2.329 95.26 13.279 17.74 6.51 34.94 16.271 46.94 31.18 9.23 11.341 14.63 26 13.7 40.7-.47 13.23-5.5 26.841-15.92 35.42-11.98 10.041-28.44 12.601-43.609 11.43-15.73-1.119-31.431-7.919-41.551-20.279-11.01-13.101-14.859-30.771-14.26-47.55-3-1-6-1.99-9-2.98-15.49 23.45-30.95 46.93-46.43 70.4 27.59 27.75 66.81 41.45 105.39 43.109 22.3.82 44.899-1.43 66.2-8.31 25.64-8.12 49.319-24.12 64.01-46.95 21.122-32.138 23.332-74.798 8.492-109.928" style="fill:url(#c)"/></g></svg>