<svg xmlns="http://www.w3.org/2000/svg" width="216" height="130.56" viewBox="0 0 216 130.56"><defs><linearGradient id="a" x1="-15.767" x2="229.239" y1="26.064" y2="125.075" gradientUnits="userSpaceOnUse"><stop offset=".128" stop-color="#b7281b"/><stop offset=".15" stop-color="#bd3417"/><stop offset=".221" stop-color="#d1570f"/><stop offset=".292" stop-color="#e07308"/><stop offset=".364" stop-color="#eb8703"/><stop offset=".437" stop-color="#f19300"/><stop offset=".511" stop-color="#f49700"/><stop offset=".576" stop-color="#f29300"/><stop offset=".633" stop-color="#ec8803"/><stop offset=".687" stop-color="#e27607"/><stop offset=".74" stop-color="#d45d0d"/><stop offset=".79" stop-color="#c23d15"/><stop offset=".818" stop-color="#b7281b"/></linearGradient></defs><path d="m149.28 0-7.92 21.6H216l-40.32 108.96h-80.4l7.92-21.6H33.48l-8.04 21.6H0L48.24 0zM66 5.28H52.08l-44.4 120H21.6zm75.6 0H108L96.72 36.24h33.24zm21.84 52.56h33.36l11.52-30.96h-33.24zM59.76 38.16 47.52 70.8h34.2l12.12-32.64zm101.04 21.6h-33.84l-11.64 32.88h33.12zM83.04 72.72l-11.52 30.96h33.6l11.28-30.72.12-.481zm88.8 52.56 11.426-30.703-.266-.497h-32.88l-11.88 31.2z" style="fill:#010101"/><path d="m66 5.28-44.4 120H7.68l44.4-120zm-6.24 32.88L47.52 70.8h34.2l12.12-32.64zm67.2 21.6-11.64 32.88h33.12l12.36-32.88zm56.306 34.817L183 94.08h-32.88l-11.88 31.2h33.6zM83.04 72.72l-11.52 30.96h33.6l11.467-31.23zM196.8 57.84l11.52-30.96h-33.24l-11.64 30.96zM108 5.28 96.72 36.24h33.24L141.6 5.28z" style="fill:url(#a)"/></svg>