<svg xmlns="http://www.w3.org/2000/svg" xmlns:xlink="http://www.w3.org/1999/xlink" width="600" height="579.67"><linearGradient id="a" x1="0" x2="1" y1="0" y2="0" gradientTransform="matrix(38.3545 0 0 -38.3545 147.73 311.54)" gradientUnits="userSpaceOnUse" spreadMethod="pad"><stop offset="0" style="stop-color:#8b723c"/><stop offset=".4" style="stop-color:#d2bb7b"/><stop offset=".5" style="stop-color:#ebd491"/><stop offset=".7" style="stop-color:#d2bb7b"/><stop offset="1" style="stop-color:#8b723c"/></linearGradient><linearGradient xlink:href="#a" id="b" x1="0" x2="1" y1="0" y2="0" gradientTransform="translate(22.083 289.82)scale(555.82304)" gradientUnits="userSpaceOnUse" spreadMethod="pad"/><path d="m526.288 579.67-1.696-.058c-4.985-.39-18.173-3-32.824-18.564-4.87-5.217-11.158-11.1-16.086-15.68a7.44 7.44 0 0 0-5.086-1.985H343.953c-2.261 0-4.348 1.014-5.768 2.767a16 16 0 0 0-1.42 1.812c-5.32 8.782-14.883 20.955-24.506 27.404a22.36 22.36 0 0 1-12.29 3.68c-4.361 0-8.55-1.304-12.23-3.68-9.666-6.449-19.187-18.622-24.39-27.114-.173-.333-.797-1.189-1.536-2.102a7.36 7.36 0 0 0-5.767-2.767H129.359c-1.87 0-3.68.68-5.043 1.985-4.927 4.58-11.202 10.463-16.071 15.68-14.724 15.622-27.854 18.173-32.84 18.564l-1.694.058c-10.87 0-20.26-8.159-21.854-18.854-1.637-11.434-.797-22.868 2.55-33.968.624-1.913.39-4.073-.622-5.826-22.868-39.968-15.738-66.401-14.042-71.328 2.55-7.42 9-12.956 16.752-14.434 2.275-.39 4.203-1.87 5.275-3.855a7.66 7.66 0 0 0 .116-6.565C39.236 375.54 9.296 262.663.688 229.202c-1.986-7.811.39-16.13 6.332-21.622 4.087-3.797 9.463-5.941 15.057-5.941 2.39 0 4.768.39 7.029 1.13 9.39 3.116 18.955 12.622 47.779 42.229l1.13 1.13c7.13 7.246 16.985 17.332 26.825 27.056a7.44 7.44 0 0 0 5.217 2.16c1.13 0 2.202-.29 3.275-.798a7.36 7.36 0 0 0 4.13-7.463c-1.073-9.623-2.32-19.535-3.391-28.708l-.565-4.42-.74-5.71c-1.521-12.449-3.057-25.245-4.463-37.766-5.434-49.808-6.173-94.863-6.231-96.732-.174-9.115 5.202-17.332 13.636-20.84 2.667-1.014 5.493-1.579 8.435-1.579a22.12 22.12 0 0 1 15.91 6.797c14.319 14.883 33.289 43.011 53.33 72.85 4.754 7.014 9.508 14.1 14.203 20.998l8.318 12.115a7.34 7.34 0 0 0 6.058 3.174c.463 0 .913 0 1.362-.116a7.54 7.54 0 0 0 5.884-5.55l.623-2.652 1.03-4.188 6.507-26.506c15.448-61.923 41.663-133.077 41.939-133.758C282.422 5.768 290.799 0 300.03 0c9.405.058 17.723 5.942 20.839 14.724 6.449 18.564 27.563 80.095 41.664 133.251 3.275 12.231 5.883 22.578 8.086 31.418l.507 1.87c.68 2.768 3 4.927 5.84 5.434.449.116.898.16 1.348.16 2.39 0 4.65-1.188 6.115-3.217l5.493-8.043 2.492-3.623c4.695-6.898 9.463-13.985 14.216-20.999 20.202-30.055 39.114-58.082 53.258-72.85 4.144-4.304 9.97-6.796 15.97-6.796 2.94 0 5.767.566 8.376 1.58 8.492 3.506 13.868 11.723 13.694 20.839 0 1.869-.782 46.924-6.275 96.732-1.594 14.448-3.405 29.215-5.16 43.475-1.245 10.304-2.651 21.912-3.955 33.128a7.34 7.34 0 0 0 4.188 7.463c1.015.507 2.145.798 3.232.798 1.87 0 3.782-.74 5.202-2.16 9.348-9.158 18.564-18.679 25.535-25.809l2.319-2.377c28.867-29.606 38.49-39.113 47.938-42.229a21.9 21.9 0 0 1 6.97-1.13 22.1 22.1 0 0 1 15.058 5.942c5.94 5.492 8.318 13.81 6.333 21.68-6.101 23.606-37.635 144.178-61.242 195.58-.957 2.101-.914 4.536.173 6.565 1.073 1.985 3 3.463 5.203 3.854a22.14 22.14 0 0 1 16.81 14.492c1.638 4.87 8.884 31.186-14.042 71.27-1.015 1.754-1.246 3.855-.667 5.826 3.39 11.217 4.246 22.65 2.536 33.91-1.58 10.754-10.926 18.912-21.795 18.912"/><path d="M258.756 153.627c-15.057 60.518-17.202 76.256-26.433 78.69-8.594 2.32-24.564-20.882-43.012-47.938-23.55-34.534-48.967-74.169-65.17-90.98 0 0 .74 45.52 6.116 94.66 6.913 62.431 18.115 132.223 9.855 137.716-14.724 9.854-105.123-97.761-118.035-102.066 0 0 44.272 172.148 66.4 204.131 0 0 102.066-8.594 138.976-22.129 0 0 11.434-21.737 26.448-70.082 14.94-48.402 32.548-132.802 46.07-132.802 13.534 0 31.2 84.4 46.14 132.802 14.942 48.345 26.434 70.082 26.434 70.082 36.91 13.535 138.975 22.129 138.975 22.129 22.13-31.983 66.402-204.13 66.402-204.13-12.913 4.303-103.312 111.92-118.036 102.065-8.26-5.493 2.957-75.285 9.797-137.715 5.434-49.142 6.173-94.66 6.173-94.66-16.187 16.81-41.606 56.445-65.155 90.979-18.462 27.056-34.417 50.257-43.084 47.939-9.216-2.435-10.42-18.448-26.432-78.69C325.215 93.4 300.028 22.07 300.028 22.07s-26.26 71.503-41.272 131.556m16.65 235.274c-11.491 37.75-12.288 46.75-19.694 54.112-7.361 7.362-47.562 9.854-195.073 13.926 0 0-8.434 24.404 19.868 64.996 0 0-9.854 14.709-6.796 35.664 0 0 7.985-.623 18.448-11.666 10.477-11.1 25.824-24.621 25.824-24.621h150.004s9.23 7.347 14.158 15.332c4.927 8.043 12.275 16.65 17.825 20.332h.058c5.492-3.681 12.912-12.29 17.84-20.332 4.869-7.985 14.085-15.332 14.085-15.332h150.019s15.39 13.52 25.81 24.621c10.535 11.043 18.505 11.666 18.505 11.666 3.058-20.955-6.782-35.664-6.782-35.664 28.303-40.592 19.869-64.996 19.869-64.996-147.526-4.072-187.712-6.564-195.074-13.926-7.42-7.362-8.376-16.361-19.708-54.112-11.32-37.766-24.622-62.271-24.622-62.271s-13.071 24.563-24.563 62.27" style="fill:url(#b)"/></svg>