<svg xmlns="http://www.w3.org/2000/svg" xmlns:xlink="http://www.w3.org/1999/xlink" width="599.999" height="579.648"><linearGradient id="a" x1="0" x2="1" y1="0" y2="0" gradientTransform="matrix(38.3545 0 0 -38.3545 80.397 311.54)" gradientUnits="userSpaceOnUse" spreadMethod="pad"><stop offset="0" style="stop-color:#536e78"/><stop offset=".4" style="stop-color:#99aebc"/><stop offset=".5" style="stop-color:#d9eaf3"/><stop offset=".7" style="stop-color:#99aebc"/><stop offset="1" style="stop-color:#536e78"/></linearGradient><linearGradient xlink:href="#a" id="b" x1="0" x2="1" y1="0" y2="0" gradientTransform="translate(22.113 289.81)scale(555.80208)" gradientUnits="userSpaceOnUse" spreadMethod="pad"/><path d="m526.276 579.648-1.652-.058c-4.985-.392-18.172-3-32.822-18.563-4.927-5.217-11.217-11.1-16.144-15.68-1.347-1.304-3.159-1.985-5.028-1.985H343.934c-2.26 0-4.348 1.014-5.71 2.768a16 16 0 0 0-1.42 1.811c-5.376 8.782-14.882 20.955-24.563 27.403a22.03 22.03 0 0 1-12.23 3.68 22.3 22.3 0 0 1-12.23-3.68c-9.68-6.448-19.245-18.621-24.447-27.113-.174-.333-.739-1.188-1.522-2.101-1.362-1.754-3.52-2.768-5.724-2.768H129.406c-1.87 0-3.68.682-5.1 1.985-4.928 4.58-11.145 10.463-16.014 15.68-14.723 15.621-27.91 18.172-32.837 18.563l-1.695.058c-10.868 0-20.273-8.159-21.853-18.853-1.637-11.434-.797-22.867 2.55-33.967a7.27 7.27 0 0 0-.623-5.826c-22.867-39.967-15.737-66.398-14.042-71.325 2.55-7.42 9-12.956 16.752-14.434 2.217-.39 4.188-1.869 5.275-3.854a7.66 7.66 0 0 0 .116-6.565C39.227 375.525 9.346 262.654.68 229.194c-1.985-7.812.45-16.13 6.333-21.622 4.144-3.796 9.52-5.941 15.114-5.941 2.377 0 4.71.39 6.97 1.13 9.39 3.116 19.013 12.622 47.836 42.228l1.13 1.13c7.072 7.245 16.926 17.331 26.823 27.055a7.34 7.34 0 0 0 5.217 2.16c1.13 0 2.203-.29 3.217-.798 2.9-1.363 4.536-4.362 4.145-7.463a2881 2881 0 0 0-3.406-28.707l-.564-4.42-.682-5.71c-1.52-12.448-3.115-25.243-4.463-37.764-5.434-49.806-6.23-94.86-6.23-96.729-.233-9.114 5.201-17.331 13.635-20.838a23.1 23.1 0 0 1 8.39-1.58c6 0 11.825 2.493 15.897 6.797 14.317 14.882 33.344 43.01 53.386 72.847 4.753 7.014 9.448 14.1 14.143 20.998l8.332 12.115c1.406 2.043 3.667 3.173 6.101 3.173.464 0 .856 0 1.362-.116 2.826-.566 5.16-2.71 5.84-5.55l.667-2.652 1.03-4.188 6.506-26.504c15.39-61.921 41.604-133.073 41.894-133.754C282.463 5.767 290.794 0 300.01 0c9.463.058 17.78 5.941 20.838 14.723 6.507 18.563 27.62 80.093 41.662 133.247a1864 1864 0 0 1 8.144 31.416l.45 1.87c.737 2.768 3.013 4.927 5.897 5.434a5.4 5.4 0 0 0 1.348.159c2.39 0 4.651-1.188 6.057-3.217l5.55-8.043 2.493-3.623a4983 4983 0 0 1 14.215-20.997c20.201-30.055 39.054-58.081 53.255-72.848 4.145-4.303 9.97-6.796 15.97-6.796 2.884 0 5.71.565 8.318 1.58 8.492 3.506 13.868 11.723 13.752 20.838-.058 1.87-.783 46.922-6.275 96.729-1.594 14.447-3.405 29.214-5.217 43.473-1.246 10.303-2.652 21.91-3.898 33.127a7.38 7.38 0 0 0 4.13 7.463c1.015.508 2.145.798 3.232.798a7.33 7.33 0 0 0 5.202-2.16c9.347-9.158 18.621-18.679 25.592-25.808l2.318-2.377c28.867-29.605 38.43-39.112 47.937-42.227a21.8 21.8 0 0 1 6.912-1.13c5.666 0 11.043 2.144 15.057 5.94 5.941 5.493 8.375 13.81 6.347 21.68-6.058 23.606-37.59 144.172-61.197 195.573-.956 2.1-.913 4.535.116 6.564 1.073 1.985 3 3.464 5.26 3.855 7.753 1.478 14.202 7.014 16.752 14.491 1.696 4.869 8.942 31.185-14.04 71.268-.958 1.753-1.233 3.854-.61 5.825 3.391 11.216 4.231 22.65 2.536 33.91-1.58 10.752-10.97 18.91-21.838 18.91"/><path d="M258.798 153.622c-15.056 60.515-17.2 76.252-26.432 78.687-8.65 2.318-24.563-20.882-43.01-47.937-23.562-34.533-49.023-74.166-65.21-90.976 0 0 .724 45.517 6.16 94.657 6.911 62.428 18.113 132.217 9.853 137.71-14.78 9.853-105.12-97.758-118.03-102.062 0 0 44.27 172.14 66.398 204.123 0 0 102.017-8.593 138.912-22.128 0 0 11.492-21.737 26.446-70.08 15-48.4 32.606-132.797 46.126-132.797 13.535 0 31.2 84.397 46.14 132.797 14.94 48.343 26.432 70.08 26.432 70.08 36.91 13.535 138.97 22.128 138.97 22.128 22.07-31.982 66.34-204.123 66.34-204.123-12.91 4.304-103.249 111.915-118.03 102.061-8.26-5.492 3-75.281 9.854-137.71 5.434-49.139 6.173-94.656 6.173-94.656-16.186 16.81-41.662 56.443-65.21 90.976-18.447 27.055-34.359 50.255-43.024 47.937-9.23-2.435-10.463-18.448-26.432-78.687C325.254 93.396 300.01 22.07 300.01 22.07s-26.258 71.5-41.213 131.55m16.65 235.265c-11.49 37.75-12.346 46.749-19.693 54.11-7.42 7.362-47.56 9.854-195.124 13.926 0 0-8.376 24.403 19.867 64.993 0 0-9.854 14.709-6.738 35.663 0 0 7.985-.623 18.447-11.665 10.42-11.1 25.824-24.621 25.824-24.621h149.998s9.23 7.347 14.158 15.332c4.927 8.042 12.274 16.65 17.824 20.33 5.55-3.68 12.912-12.288 17.84-20.33 4.926-7.985 14.142-15.332 14.142-15.332h150.013s15.39 13.52 25.808 24.62c10.478 11.043 18.462 11.666 18.462 11.666 3.101-20.954-6.738-35.663-6.738-35.663 28.243-40.59 19.867-64.993 19.867-64.993-147.578-4.072-187.704-6.564-195.124-13.926-7.36-7.361-8.317-16.36-19.65-54.11-11.375-37.764-24.62-62.269-24.62-62.269s-13.13 24.563-24.563 62.27" style="fill:url(#b)"/></svg>