<svg xmlns="http://www.w3.org/2000/svg" width="555.764" height="535.506"><path d="M236.67 131.55c-15.057 60.516-17.201 76.253-26.432 78.688-8.652 2.318-24.563-20.882-43.01-47.937-23.563-34.532-49.024-74.108-65.167-90.976 0 0 .74 45.517 6.115 94.657 6.855 62.486 18.114 132.217 9.854 137.71C103.25 313.544 12.912 205.933 0 201.63c0 0 44.27 172.14 66.355 204.122 0 0 102.105-8.593 138.956-22.128 0 0 11.491-21.736 26.446-70.079 14.94-48.342 32.605-132.797 46.125-132.797 13.535 0 31.2 84.455 46.14 132.797 14.94 48.343 26.432 70.08 26.432 70.08 36.851 13.534 138.97 22.127 138.97 22.127 22.07-31.982 66.34-204.122 66.34-204.122-12.853 4.304-103.249 111.915-118.03 102.061-8.26-5.492 3-75.223 9.854-137.71 5.435-49.139 6.174-94.656 6.174-94.656-16.187 16.868-41.662 56.444-65.21 90.976-18.448 27.055-34.36 50.255-43.025 47.937-9.23-2.435-10.419-18.448-26.432-78.687C303.126 71.325 277.882 0 277.882 0s-26.258 71.5-41.212 131.55m260.739 368.294s9.84 14.766 6.738 35.662c0 0-7.984-.622-18.461-11.723-10.42-11.042-25.81-24.563-25.81-24.563H309.865s-9.216 7.347-14.143 15.39c-4.927 7.985-12.288 16.592-17.839 20.273-5.55-3.68-12.897-12.288-17.824-20.273-4.927-8.043-14.158-15.39-14.158-15.39H95.902s-15.404 13.52-25.823 24.563c-10.462 11.1-18.447 11.723-18.447 11.723-3.058-20.896 6.738-35.662 6.738-35.662-28.243-40.59-19.867-64.993-19.867-64.993 147.563-4.072 187.704-6.507 195.123-13.926 7.347-7.362 8.202-16.36 19.636-54.11 11.491-37.706 24.62-62.269 24.62-62.269s13.303 24.505 24.62 62.269c11.333 37.75 12.29 46.748 19.65 54.11 7.42 7.42 47.546 9.854 195.124 13.926 0 0 8.376 24.403-19.867 64.993"/></svg>