<svg xmlns="http://www.w3.org/2000/svg" width="600" height="547.445"><path d="M561.556 212.765c-8.924 0-21.761 2.244-37.049 6.637C521.73 97.938 422.08 0 299.973 0 177.92 0 78.27 97.938 75.438 219.402c-15.287-4.393-28.125-6.637-37.048-6.637H0v334.68h600v-334.68z" style="fill:#fff"/><path d="M377.23 351.131c-40.154 42.55-63.571 78.531-77.257 105.37-13.687-26.839-37.103-62.82-77.259-105.37C158.35 282.961 62.286 251.21 38.39 251.21V509h523.166V251.209c-23.896 0-119.96 31.752-184.325 99.922M114.033 233.034c-.11-2.833-.164-5.612-.164-8.445 0-102.81 83.293-186.158 186.104-186.158 102.81 0 186.158 83.348 186.158 186.158 0 2.833-.11 5.612-.219 8.445-44.165 18.394-96.446 49.188-136.642 91.738-18.668 19.776-35.132 39.512-49.297 59.015-14.166-19.503-30.63-39.239-49.298-59.015-40.141-42.55-92.477-73.344-136.642-91.738"/></svg>