<svg xmlns="http://www.w3.org/2000/svg" width="1024" height="973.82" viewBox="0 0 1024 973.82"><path fill="#fff" d="M663.43.209 360.77 0l-69.11 186.03-198.162 8.49L0 482.23l155.5 123.09-53.11 190.65 244.77 177.85L512.1 864.31l164.95 109.51 244.74-177.85-53.1-190.65L1024 482.23l-93.3-287.7-198.18-8.5Z"/><path d="m612.4 736.38 337.98-269.95-65.98-203.7-129.36-6.11 16.3 218.23L619.48 70.01l-214.33-.169-45.58 121.3 212.49 52.05-431.92 19.46-66.525 203.84 101.04 80.55 115.13-186.37-114.67 417.06 173.29 126.25 107.93-71.3-141.77-167 361.3 238.14 173.51-125.97-34.44-124.75z"/></svg>