<?xml version="1.0" encoding="UTF-8" standalone="no"?>
<!-- Generator: Adobe Illustrator 28.0.0, SVG Export Plug-In . SVG Version: 6.00 Build 0)  -->

<svg
   version="1.1"
   id="Layer_1"
   x="0px"
   y="0px"
   viewBox="0 0 149.80098 68"
   xml:space="preserve"
   width="149.80098"
   height="68"
   xmlns:xlink="http://www.w3.org/1999/xlink"
   xmlns="http://www.w3.org/2000/svg"
   xmlns:svg="http://www.w3.org/2000/svg"><defs
   id="defs34" />
<style
   type="text/css"
   id="style1">
	.st0{display:none;}
	.st1{fill:#C03726;}
	.st2{fill:url(#SVGID_1_);}
	.st3{fill:url(#SVGID_00000168075758584971187340000008791019815863695767_);}
</style>
<g
   id="Layer_1_1_"
   transform="translate(-4.8,-3.8)">
</g>
<g
   id="Layer_3"
   class="st0"
   transform="translate(-4.8,-3.8)">
</g>
<g
   id="g34"
   transform="translate(-4.8,-3.8)">
	<path
   d="m 146.8,5.2 -1,-1.4 h -118 c -1.6,0 -3.1,1.2 -3.4,2.8 -0.3,1.6 0.5,3.2 2,3.9 1.3,0.6 3.9,2.2 4.5,3.7 0.1,0.3 0.1,0.5 0,0.9 L 12.6,55.9 C 10.2,61.3 6,64.8 6,64.9 5.2,65.6 4.8,66.5 4.8,67.6 v 0.6 c 0,1.9 1.6,3.5 3.5,3.5 h 30.6 c 1.6,0 3,-1 3.4,-2.5 0.4,-1.5 -0.1,-3 -1.5,-3.8 -0.4,-0.3 -2.8,-2.5 -2.8,-8.5 0,-4.3 9.3,-10.4 15.6,-13.2 0.1,0 0.2,-0.1 0.2,-0.1 l 6.6,14.9 c 1.6,3.7 -3.1,6.8 -3.3,6.9 -1.3,0.8 -1.9,2.4 -1.5,3.9 0.4,1.5 1.8,2.5 3.3,2.5 h 86.8 l 1,-1.4 c 0.3,-0.5 7.9,-11.2 7.9,-32.5 0.1,-21.5 -7.5,-32.3 -7.8,-32.7 z"
   id="path1" />
	<path
   class="st1"
   d="m 61.2,67.3 c 2.2,-2 5.4,-5.9 3.2,-10.8 L 46,15.4 34.5,41.1 H 49 c -5.1,2.7 -15.2,8.9 -15.2,15.7 0,5.7 1.8,9 3.2,10.6 H 9.5 c 1.5,-1.5 4.8,-4.9 6.9,-9.7 L 34.6,16.9 c 0.6,-1.4 0.7,-2.8 0.1,-4.2 C 34,10.6 32.2,9 30.6,8 h 38.2 c -1.8,1.6 -3.2,4.3 -1.6,7.8 l 19.1,42.8 c 2,4.5 4.8,7.3 6.8,8.8 z"
   id="path2" />
	<g
   id="g33">
		<linearGradient
   id="SVGID_1_"
   gradientUnits="userSpaceOnUse"
   x1="68.313301"
   y1="37.6525"
   x2="151.0972"
   y2="37.6525">
			<stop
   offset="0"
   style="stop-color:#BC2D26"
   id="stop2" />
			<stop
   offset="4.000000e-02"
   style="stop-color:#C03726"
   id="stop3" />
			<stop
   offset="0.11"
   style="stop-color:#CD4D26"
   id="stop4" />
			<stop
   offset="0.19"
   style="stop-color:#DE7524"
   id="stop5" />
			<stop
   offset="0.21"
   style="stop-color:#E27A24"
   id="stop6" />
			<stop
   offset="0.29"
   style="stop-color:#EE8C1F"
   id="stop7" />
			<stop
   offset="0.38"
   style="stop-color:#F49622"
   id="stop8" />
			<stop
   offset="0.5"
   style="stop-color:#F49824"
   id="stop9" />
			<stop
   offset="0.62"
   style="stop-color:#F49622"
   id="stop10" />
			<stop
   offset="0.71"
   style="stop-color:#EE8C1F"
   id="stop11" />
			<stop
   offset="0.79"
   style="stop-color:#E27A24"
   id="stop12" />
			<stop
   offset="0.8"
   style="stop-color:#E17924"
   id="stop13" />
			<stop
   offset="0.85"
   style="stop-color:#D35D25"
   id="stop14" />
			<stop
   offset="0.91"
   style="stop-color:#C74426"
   id="stop15" />
			<stop
   offset="0.96"
   style="stop-color:#BF3326"
   id="stop16" />
			<stop
   offset="1"
   style="stop-color:#BC2D26"
   id="stop17" />
		</linearGradient>
		<path
   class="st2"
   d="M 143.6,8 H 78.2 c -2.1,0 -4.4,1.3 -5.6,3.2 -0.6,0.9 -1.1,2.2 -0.4,3.7 0.1,0.3 14.2,32 18.7,41.8 4.7,10.4 16.8,10.8 18.1,10.8 h 34.7 c 1.2,-1.8 6.9,-11.8 6.9,-29.7 -0.1,-18 -5.8,-28 -7,-29.8 z m -30.5,36.6 0.2,-0.1 2.6,-5.7 h 0.2 V 50 H 92.3 l -0.1,-0.2 c 2.4,-2.9 4.6,-5.6 6.6,-8.3 2,-2.6 3.7,-5.1 5.1,-7.5 1.4,-2.4 2.5,-4.6 3.3,-6.6 0.8,-2.1 1.2,-4 1.2,-5.7 0,-2 -0.5,-3.4 -1.4,-4.3 -0.9,-0.9 -2,-1.4 -3.3,-1.4 -0.8,0 -1.6,0.2 -2.2,0.5 -0.6,0.3 -1.1,0.8 -1.5,1.3 -0.4,0.5 -0.7,1.2 -0.9,1.9 -0.2,0.7 -0.3,1.4 -0.3,2.2 0,0.5 0,1 0.1,1.4 0.1,0.5 0.2,0.9 0.3,1.2 L 99,24.7 93.2,17.4 c 1.2,-1.2 2.8,-2.2 4.6,-3 1.8,-0.8 3.8,-1.2 6.1,-1.2 1.6,0 3.1,0.2 4.5,0.6 1.4,0.4 2.7,1 3.8,1.8 1.1,0.8 2,1.7 2.6,2.9 0.7,1.2 1,2.5 1,4.1 0,1.8 -0.4,3.5 -1.2,5.1 -0.8,1.5 -1.9,3.1 -3.3,4.8 -1.4,1.6 -3.1,3.4 -5,5.4 -1.9,1.9 -4,4.2 -6.2,6.9 h 13 z m 28.4,-0.8 V 51 c -6.6,-0.1 -7.7,1.1 -7.7,1.1 l 0.1,-9.1 h -11.8 l -3.8,-3.4 22.6,-27.4 0.3,-0.3 v 1.5 26 h 5.2 z"
   id="path17"
   style="fill:url(#SVGID_1_)" />
		
			<linearGradient
   id="SVGID_00000081611817282247580480000003168225595911375287_"
   gradientUnits="userSpaceOnUse"
   x1="98.345398"
   y1="32.457199"
   x2="143.5224"
   y2="32.457199">
			<stop
   offset="0"
   style="stop-color:#BC2D26"
   id="stop18" />
			<stop
   offset="4.000000e-02"
   style="stop-color:#C03726"
   id="stop19" />
			<stop
   offset="0.11"
   style="stop-color:#CD4D26"
   id="stop20" />
			<stop
   offset="0.19"
   style="stop-color:#DE7524"
   id="stop21" />
			<stop
   offset="0.21"
   style="stop-color:#E27A24"
   id="stop22" />
			<stop
   offset="0.29"
   style="stop-color:#EE8C1F"
   id="stop23" />
			<stop
   offset="0.38"
   style="stop-color:#F49622"
   id="stop24" />
			<stop
   offset="0.5"
   style="stop-color:#F49824"
   id="stop25" />
			<stop
   offset="0.62"
   style="stop-color:#F49622"
   id="stop26" />
			<stop
   offset="0.71"
   style="stop-color:#EE8C1F"
   id="stop27" />
			<stop
   offset="0.79"
   style="stop-color:#E27A24"
   id="stop28" />
			<stop
   offset="0.8"
   style="stop-color:#E17924"
   id="stop29" />
			<stop
   offset="0.85"
   style="stop-color:#D35D25"
   id="stop30" />
			<stop
   offset="0.91"
   style="stop-color:#C74426"
   id="stop31" />
			<stop
   offset="0.96"
   style="stop-color:#BF3326"
   id="stop32" />
			<stop
   offset="1"
   style="stop-color:#BC2D26"
   id="stop33" />
		</linearGradient>
		<polygon
   style="fill:url(#SVGID_00000081611817282247580480000003168225595911375287_)"
   points="133.9,25.5 123.1,38.8 123.1,39.4 133.9,39.4 "
   id="polygon33" />
	</g>
</g>
<image
   style="display:none;overflow:visible"
   width="163.35706"
   height="80.337921"
   xlink:href="../../../../../art/ezgif.com-webp-to-png.png"
   id="image34"
   x="-5.8929"
   y="-5.6155">
</image>
</svg>
