<?xml version="1.0" encoding="UTF-8" standalone="no"?>
<!DOCTYPE svg PUBLIC "-//W3C//DTD SVG 1.1//EN" "http://www.w3.org/Graphics/SVG/1.1/DTD/svg11.dtd">
<svg width="100%" height="100%" viewBox="0 0 160 75" version="1.1" xmlns="http://www.w3.org/2000/svg" xmlns:xlink="http://www.w3.org/1999/xlink" xml:space="preserve" xmlns:serif="http://www.serif.com/" style="fill-rule:evenodd;clip-rule:evenodd;stroke-linejoin:round;stroke-miterlimit:2;">
    <g transform="matrix(1,0,0,1,0.299511,-0.3)">
        <path d="M146.8,5.2L145.8,3.8L27.8,3.8C26.2,3.8 24.7,5 24.4,6.6C24.1,8.2 24.9,9.8 26.4,10.5C27.7,11.1 30.3,12.7 30.9,14.2C31,14.5 31,14.7 30.9,15.1L12.6,55.9C10.2,61.3 6,64.8 6,64.9C5.2,65.6 4.8,66.5 4.8,67.6L4.8,68.2C4.8,70.1 6.4,71.7 8.3,71.7L38.9,71.7C40.5,71.7 41.9,70.7 42.3,69.2C42.7,67.7 42.2,66.2 40.8,65.4C40.4,65.1 38,62.9 38,56.9C38,52.6 47.3,46.5 53.6,43.7C53.7,43.7 53.8,43.6 53.8,43.6L60.4,58.5C62,62.2 57.3,65.3 57.1,65.4C55.8,66.2 55.2,67.8 55.6,69.3C56,70.8 57.4,71.8 58.9,71.8L145.7,71.8L146.7,70.4C147,69.9 154.6,59.2 154.6,37.9C154.7,16.4 147.1,5.6 146.8,5.2Z" style="fill-rule:nonzero;"/>
        <path d="M61.2,67.3C63.4,65.3 66.6,61.4 64.4,56.5L46,15.4L34.5,41.1L49,41.1C43.9,43.8 33.8,50 33.8,56.8C33.8,62.5 35.6,65.8 37,67.4L9.5,67.4C11,65.9 14.3,62.5 16.4,57.7L34.6,16.9C35.2,15.5 35.3,14.1 34.7,12.7C34,10.6 32.2,9 30.6,8L68.8,8C67,9.6 65.6,12.3 67.2,15.8L86.3,58.6C88.3,63.1 91.1,65.9 93.1,67.4L61.2,67.3Z" style="fill:rgb(99,46,119);fill-rule:nonzero;"/>
        <g>
            <path d="M143.6,8L78.2,8C76.1,8 73.8,9.3 72.6,11.2C72,12.1 71.5,13.4 72.2,14.9C72.3,15.2 86.4,46.9 90.9,56.7C95.6,67.1 107.7,67.5 109,67.5L143.7,67.5C144.9,65.7 150.6,55.7 150.6,37.8C150.5,19.8 144.8,9.8 143.6,8ZM113.1,44.6L113.3,44.5L115.9,38.8L116.1,38.8L116.1,50L92.3,50L92.2,49.8C94.6,46.9 96.8,44.2 98.8,41.5C100.8,38.9 102.5,36.4 103.9,34C105.3,31.6 106.4,29.4 107.2,27.4C108,25.3 108.4,23.4 108.4,21.7C108.4,19.7 107.9,18.3 107,17.4C106.1,16.5 105,16 103.7,16C102.9,16 102.1,16.2 101.5,16.5C100.9,16.8 100.4,17.3 100,17.8C99.6,18.3 99.3,19 99.1,19.7C98.9,20.4 98.8,21.1 98.8,21.9C98.8,22.4 98.8,22.9 98.9,23.3C99,23.8 99.1,24.2 99.2,24.5L99,24.7L93.2,17.4C94.4,16.2 96,15.2 97.8,14.4C99.6,13.6 101.6,13.2 103.9,13.2C105.5,13.2 107,13.4 108.4,13.8C109.8,14.2 111.1,14.8 112.2,15.6C113.3,16.4 114.2,17.3 114.8,18.5C115.5,19.7 115.8,21 115.8,22.6C115.8,24.4 115.4,26.1 114.6,27.7C113.8,29.2 112.7,30.8 111.3,32.5C109.9,34.1 108.2,35.9 106.3,37.9C104.4,39.8 102.3,42.1 100.1,44.8L113.1,44.8L113.1,44.6ZM141.5,43.8L141.5,51C134.9,50.9 133.8,52.1 133.8,52.1L133.9,43L122.1,43L118.3,39.6L140.9,12.2L141.2,11.9L141.2,39.4L146.4,39.4L141.5,43.8Z" style="fill:url(#_Linear1);fill-rule:nonzero;"/>
            <path d="M123.1,39.4L133.9,39.4L133.9,25.5L123.1,38.8L123.1,39.4Z" style="fill:url(#_Linear2);fill-rule:nonzero;"/>
        </g>
    </g>
    <defs>
        <linearGradient id="_Linear1" x1="0" y1="0" x2="1" y2="0" gradientUnits="userSpaceOnUse" gradientTransform="matrix(82.7839,0,0,82.7839,68.3133,37.6525)"><stop offset="0" style="stop-color:rgb(97,44,117);stop-opacity:1"/><stop offset="0.3" style="stop-color:rgb(123,81,144);stop-opacity:1"/><stop offset="0.5" style="stop-color:rgb(191,153,195);stop-opacity:1"/><stop offset="0.7" style="stop-color:rgb(123,81,144);stop-opacity:1"/><stop offset="1" style="stop-color:rgb(97,44,117);stop-opacity:1"/></linearGradient>
        <linearGradient id="_Linear2" x1="0" y1="0" x2="1" y2="0" gradientUnits="userSpaceOnUse" gradientTransform="matrix(45.177,0,0,45.177,98.3454,32.4572)"><stop offset="0" style="stop-color:rgb(97,44,117);stop-opacity:1"/><stop offset="0.3" style="stop-color:rgb(123,81,144);stop-opacity:1"/><stop offset="0.5" style="stop-color:rgb(191,153,195);stop-opacity:1"/><stop offset="0.7" style="stop-color:rgb(123,81,144);stop-opacity:1"/><stop offset="1" style="stop-color:rgb(97,44,117);stop-opacity:1"/></linearGradient>
    </defs>
</svg>
