<svg xmlns="http://www.w3.org/2000/svg" width="600" height="338.656"><path d="m470.917 338.656 37.607-38.909c25.717-26.576 23.51-35.188 22.218-37.173-2.095-3.286-8.907-7.93-18.932-10.458-4.477-1.117-9.231-1.69-14.17-1.69-11.077 0-23.372 2.807-37.468 8.539-28.7 11.723-55.164 31.81-74.605 56.576L369.09 336.57l-7.93-25.46c-4.08-13.052-11.15-25.025-20.99-35.594-9.12-9.766-18.24-15.794-26.392-17.345-1.735-.323-3.609-.461-5.667-.461-8.29 0-17.955 2.806-27.112 5.732-8.114 2.52-14.852 4.828-21.13 7.754l-32.345 14.963 13.487-33c1.329-3.24 2.418-6.85 3.498-11.604 2.271-10.135 2.483-17.308.683-21.388-2.917-6.415-14.492-11.972-26.899-12.868a55 55 0 0 0-3.498-.11c-8.363 0-16.625 2.16-25.136 6.674l-62.309 28.883 45.832-51.14c4.652-4.68 8.658-10.384 12.554-17.88 2.63-5.012 6.018-12.332 5.335-17.852-.683-5.511-5.695-12.074-11.898-15.573-4.653-2.63-10.745-3.858-19.118-3.858-4.357 0-9.009.323-13.09.646-6.812.544-14.058 1.154-20.907 2.668l-55.57 12.406 43.486-36.776c5.447-4.579 10.311-10.459 14.89-17.964 2.705-4.43 6.314-10.957 6.35-16.763.038-5.732-3.138-12.517-7.79-16.477-5.88-4.976-15.896-6.674-25.56-8.336-11.18-1.874-22.755-3.784-34.118-3.784h-1.948L0 53.4l59.567-28.016C94.793 8.871 132.261.037 167.883 0h.434c30.97 0 62.992 6.526 95.088 19.394 48.785 19.58 97.82 54.38 139.36 98.624 8.298-7.034 16.19-12.582 24.267-17.096 11.862-6.6 23.3-10.422 34.838-11.64 2.742-.259 5.548-.435 8.363-.435 18.028 0 37.93 6.02 57.583 17.345l29.927 17.272-33.527 8.437c-32.53 8.178-54.527 25.025-65.918 40.385 2.917-.11 5.981-.185 9.194-.185 5.298 0 11.03.148 18.572.398 37.893 1.403 80.153 5.594 101.9 37.68 11.355 16.8 15.075 38.337 9.444 54.85-5.299 15.5-18.351 26.392-30.434 34.977-15.758 11.178-29.816 18.462-44.272 22.856z" style="fill:gray"/><path d="M518.622 309.486c24.056-24.877 31.875-42.084 23.908-54.481-4.975-7.717-16.043-13.634-27.296-16.487-20.123-5.04-40.893-.424-60.36 7.505-31.478 12.84-59.531 34.33-80.338 60.906-4.726-15.111-12.914-28.92-24.13-40.967-9.48-10.163-21.194-19.071-33.997-21.527-12.766-2.446-26.65 1.514-39.628 5.622-7.902 2.456-15.434 5.013-22.792 8.446 1.8-4.514 3.065-9.055 4.182-13.846 2.27-10.136 3.72-21.499-.213-30.259-5.769-12.73-23.003-19.939-38.659-21.056-13.19-.978-25.237 2.382-36.167 8.151 6.102-6.203 10.893-13.348 15-21.314 4.293-8.188 7.94-17.271 6.822-26.031-1.301-10.533-9.341-20.66-18.895-26.032-12.01-6.784-26.466-6.064-40.173-4.984-7.791.618-15.36 1.301-22.856 3 7.061-6.028 12.83-13.311 17.77-21.425 4.55-7.348 8.335-15.425 8.409-23.936.1-10.062-5.013-20.705-12.693-27.26-8.732-7.43-20.77-9.526-32.345-11.473-13.127-2.197-25.708-4.219-38.66-3.96 31.737-14.936 67.211-24.02 102.409-24.093 30.794-.074 61.367 6.822 90.25 18.388 56.652 22.754 106.85 63.647 143.663 105.399 10.67-10.237 20.982-18.49 32.022-24.628 9.259-5.114 19.034-8.834 29.493-9.914 17.917-1.874 37.893 3.784 57.472 15.074-54.481 13.735-81.703 48.536-85.202 70.46 14.604-2.991 31.478-2.927 49.903-2.234 33.647 1.218 72.481 4.394 90.832 31.514 8.225 12.148 12.333 29.133 7.791 42.435-3.97 11.65-14.566 20.483-25.274 28.09-12.84 9.166-25.782 16.486-40.247 20.917"/></svg>