<svg xmlns="http://www.w3.org/2000/svg" xmlns:xlink="http://www.w3.org/1999/xlink" width="600" height="338.656"><linearGradient id="a" x1="0" x2="1" y1="0" y2="0" gradientTransform="scale(41.55663 -41.55663)rotate(75 6.606 6.868)" gradientUnits="userSpaceOnUse" spreadMethod="pad"><stop offset="0" style="stop-color:#bf331c"/><stop offset=".3" style="stop-color:#d3641c"/><stop offset=".5" style="stop-color:#f6b91d"/><stop offset=".7" style="stop-color:#d3641c"/><stop offset="1" style="stop-color:#bf331c"/></linearGradient><linearGradient xlink:href="#a" id="b" x1="0" x2="1" y1="0" y2="0" gradientTransform="scale(383.60704)rotate(75 .408 .447)" gradientUnits="userSpaceOnUse" spreadMethod="pad"/><path d="m470.917 338.656 37.607-38.909c25.717-26.576 23.51-35.188 22.218-37.173-2.095-3.286-8.907-7.93-18.932-10.458-4.477-1.117-9.231-1.69-14.17-1.69-11.077 0-23.372 2.807-37.468 8.539-28.7 11.723-55.164 31.81-74.605 56.576L369.09 336.57l-7.93-25.46c-4.08-13.052-11.15-25.025-20.99-35.594-9.12-9.766-18.24-15.794-26.392-17.345-1.735-.323-3.609-.461-5.667-.461-8.29 0-17.955 2.806-27.112 5.732-8.114 2.52-14.852 4.828-21.13 7.754l-32.345 14.963 13.487-33c1.329-3.24 2.418-6.85 3.498-11.604 2.271-10.135 2.483-17.308.683-21.388-2.917-6.415-14.492-11.972-26.899-12.868a55 55 0 0 0-3.498-.11c-8.363 0-16.625 2.16-25.136 6.674l-62.309 28.883 45.832-51.14c4.652-4.68 8.658-10.384 12.554-17.88 2.63-5.012 6.018-12.332 5.335-17.852-.683-5.511-5.695-12.074-11.898-15.573-4.653-2.63-10.745-3.858-19.118-3.858-4.357 0-9.009.323-13.09.646-6.812.544-14.058 1.154-20.907 2.668l-55.57 12.406 43.486-36.776c5.447-4.579 10.311-10.459 14.89-17.964 2.705-4.43 6.314-10.957 6.35-16.763.038-5.732-3.138-12.517-7.79-16.477-5.88-4.976-15.896-6.674-25.56-8.336-11.18-1.874-22.755-3.784-34.118-3.784h-1.948L0 53.4l59.567-28.016C94.793 8.871 132.261.037 167.883 0h.434c30.97 0 62.992 6.526 95.088 19.394 48.785 19.58 97.82 54.38 139.36 98.624 8.298-7.034 16.19-12.582 24.267-17.096 11.862-6.6 23.3-10.422 34.838-11.64 2.742-.259 5.548-.435 8.363-.435 18.028 0 37.93 6.02 57.583 17.345l29.927 17.272-33.527 8.437c-32.53 8.178-54.527 25.025-65.918 40.385 2.917-.11 5.981-.185 9.194-.185 5.298 0 11.03.148 18.572.398 37.893 1.403 80.153 5.594 101.9 37.68 11.355 16.8 15.075 38.337 9.444 54.85-5.299 15.5-18.351 26.392-30.434 34.977-15.758 11.178-29.816 18.462-44.272 22.856z"/><path d="M167.92 13.985c-35.197.074-70.672 9.194-102.408 24.093 12.951-.259 25.533 1.763 38.66 3.96 11.575 1.947 23.612 4.043 32.344 11.474 7.68 6.554 12.795 17.197 12.693 27.259-.074 8.474-3.895 16.588-8.41 23.936-4.938 8.114-10.707 15.434-17.769 21.425 7.496-1.699 15.065-2.382 22.856-3 13.708-1.08 28.127-1.8 40.173 4.984 9.554 5.373 17.594 15.5 18.896 26.032 1.08 8.76-2.53 17.843-6.822 26.03-4.108 7.94-8.87 15.112-15 21.315 10.93-5.77 22.976-9.13 36.167-8.15 15.655 1.116 32.89 8.325 38.659 21.055 3.932 8.76 2.483 20.123.212 30.259-1.117 4.79-2.381 9.332-4.182 13.81 7.32-3.397 14.89-5.954 22.792-8.41 12.978-4.108 26.862-8.04 39.628-5.622 12.831 2.456 24.518 11.364 33.998 21.527 11.215 12.046 19.403 25.856 24.13 40.967 20.843-26.576 48.859-48.066 80.336-60.906 19.468-7.93 40.238-12.545 60.361-7.505 11.253 2.853 22.32 8.733 27.296 16.487 7.967 12.434.148 29.604-23.908 54.48 14.465-4.402 27.407-11.787 40.247-20.916 10.708-7.607 21.305-16.44 25.275-28.09 4.541-13.302.433-30.287-7.791-42.435-18.352-27.12-57.186-30.296-90.833-31.514-18.425-.693-35.3-.757-49.902 2.234 3.498-21.924 30.72-56.725 85.201-70.46-19.579-11.29-39.554-16.948-57.472-15.074-10.458 1.117-20.197 4.8-29.493 9.914-11.04 6.166-21.35 14.39-32.022 24.628-36.813-41.752-87.01-82.645-143.66-105.362-28.774-11.576-59.208-18.425-89.892-18.425Z" style="fill:url(#b)"/></svg>