<svg xmlns="http://www.w3.org/2000/svg" xml:space="preserve" width="131.192" height="150"><path fill="#5d5e61" d="m123.771 2.185-15.582 25.192-20.041 7.152 5.565-31.883-9.003 2.649-9.517 17.175h-12.81c-12.438 0-24.889 1.962-37.026 5.833l-.39-1.871H0l8.36 46.336.332.221 3.882 58.985L46.73 150h27.079l42.271-21.803 7.917-58.695.679-1.03L131.192 0z"/><path d="M63.03 64.572v50.546h-4.263V80.277l-5.241-20.056Zm-5.816 65.56-4.277 16.117h10.094v-16.117zm-2.8-9.472V91.609l-11.248 9.473v41.624l5.882 2.735 4.519-19.056h9.464v-5.726zM125.606 8.294l-5.57 58.544-51.55 78.358V82.497l7.617-7.533c2.398-2.517 5.518-5.64 8.185-6.366l25.017-8.849.312-4.786-26.906 10.042 1.238-6.747 26.066-9.409.33-5.058-25.303 8.505 2.33-12.422 23.996-8.562zm-18.926 63.26L71.099 84.74l7.844 16.255zM48.992 40.862s6.74-2.189 14.038-2.465V27.266c-12.607-.07-25.092 1.899-37.456 5.986l2.047 11.02L63.03 60.726V48.734Zm62.688 84.232 6.595-48.88-46.142 69.261zM72.578 45.465l-4.092 13.564v18.953l9.037-10.352 10.06-57.632L73.29 35.829h-4.804v9.636zM23.806 92.342l-1.202-10.531-8.907-5.453 3.466 52.65 21.969 11.688V102.36Zm4.866-11.752L12.698 69.924 5.712 31.206h15.371l3.11 14.995 24.069 11.993 5.9 22.396zM17.861 53.783l25.558 10.691-.823-4.388-25.089-10.527Zm1.183 9.336L45.26 74.307l-.79-4.221-25.773-10.895z"/></svg>