<?xml version="1.0" encoding="UTF-8" standalone="no"?>
<svg
   version="1.1"
   width="600"
   height="517.92493"
   id="svg5"
   xmlns:xlink="http://www.w3.org/1999/xlink"
   xmlns="http://www.w3.org/2000/svg"
   xmlns:svg="http://www.w3.org/2000/svg">
  <defs
     id="defs5" />
  <radialGradient
     cx="0"
     cy="0"
     r="1"
     fx="0"
     fy="0"
     id="radialGradient586"
     gradientUnits="userSpaceOnUse"
     gradientTransform="matrix(19.172806,0,0,-19.172806,218.38379,259.30273)"
     spreadMethod="pad">
    <stop
       style="stop-color:#d9eaf3"
       offset="0"
       id="stop1" />
    <stop
       style="stop-color:#99aebc"
       offset="0.7"
       id="stop2" />
    <stop
       style="stop-color:#536e78"
       offset="1"
       id="stop3" />
  </radialGradient>
  <radialGradient
     cx="0"
     cy="0"
     r="1"
     fx="0"
     fy="0"
     id="radialGradient2995"
     xlink:href="#radialGradient586"
     gradientUnits="userSpaceOnUse"
     gradientTransform="matrix(19.172806,0,0,-19.172806,218.38379,259.30273)"
     spreadMethod="pad" />
  <radialGradient
     cx="0"
     cy="0"
     r="1"
     fx="0"
     fy="0"
     id="radialGradient2998"
     xlink:href="#radialGradient586"
     gradientUnits="userSpaceOnUse"
     gradientTransform="matrix(245.187,0,0,245.187,299.98452,258.94033)"
     spreadMethod="pad" />
  <path
     d="m 260.25406,129.8393 43.41617,110.38834 45.55182,-110.38834 z m 314.1694,388.0856 H 25.57654 V 386.60216 H 182.88503 L 73.43024,129.92882 H 0 V 0 H 600 V 129.92882 H 524.81777 L 417.4091,387.94493 h 157.01436 z"
     id="path3" />
  <path
     d="m 303.06918,313.70903 87.216,-211.35172 H 219.89428 Z M 53.04574,414.07136 H 224.48527 L 91.56401,102.45962 H 27.4692 V 27.43084 h 545.04881 v 75.02878 h -66.03862 l -130.2741,312.9673 h 170.73618 v 74.97762 H 53.04574 Z"
     style="fill:#536e78"
     id="path4" />
  <path
     d="m 35.11659,35.11659 v 59.64449 h 56.44742 5.03857 l 2.00776,4.65493 132.92127,311.6629 4.55262,10.69099 H 224.48527 60.74428 v 60.9361 h 478.5626 V 423.11267 H 376.20529 364.70864 l 4.39916,-10.63984 130.28689,-313.00567 1.94382,-4.70608 h 5.14088 58.35287 V 35.11659 Z M 295.92054,316.50966 212.70728,105.15794 208.60224,94.67156 h 11.29204 170.3909 11.49665 l -4.39916,10.63984 -87.216,211.35172 -7.25095,17.63502 z"
     style="fill:url(#radialGradient2998)"
     id="path5" />
</svg>
