<svg xmlns="http://www.w3.org/2000/svg" id="Layer_2" width="216.224" height="196.067" viewBox="0 0 216.224 196.067"><defs id="defs1"><style id="style1">.cls-1{fill:#d81a1a}</style></defs><g id="Layer_1-2"><g id="red"><path id="path1" d="M55.705 173.201c-10.169-8.677-18.813-19.398-24.612-31.482-20.898-7.38-33.863-28.347-30.59-50.48 2.46-16.63 14.583-30.87 30.35-36.416C53.615 7.74 110.499-13.09 158.616 8.576c58.057 26.143 76.067 100.615 36.271 150.696-33.86 42.612-97.515 49.486-139.182 13.93m55.76 14.964c-.898-15.895 12.737-26.198 25.894-31.76 15.221-6.434 25.978-11.074 37.04-24.091 18.832-22.158 15.33-53.68-2.876-75.037-3.114-3.653-6.634-6.675-9.569-10.57-6.902-9.157-11.308-20.225-8.88-31.857-11.92-5.22-25.453-7.908-38.494-6.95 1.686 5.96 6.657 11.879 11.265 15.943 2.731 2.41 5.925 4.224 8.4 6.942 8.02 8.801 9.319 20.758 5.747 31.87 19.11 29.342 11.532 68.443-16.944 88.549-24.976 17.634-58.863 15.322-81.346-5.23-.167.186 1.463 2.57 1.72 2.953 15.089 22.468 40.93 37.445 68.043 39.238M108.588 8.378c-24.672 2.29-47.903 15.807-62.672 35.499-1.1 1.465-2.413 3.244-3.358 4.793-.166.272-.987 1.509-.856 1.658 15.9-14.425 37.62-20.246 58.69-15.417 12.045 2.76 22.901 9.264 31.687 17.814.377-7.869-2.371-15.898-7.546-21.817-2.682-3.069-6.238-5.431-9-8.5-3.484-3.873-6.674-8.653-6.945-14.03m8.391 180.264c42.463.929 80.391-29.526 89.499-70.758 4.646-21.034 2.236-39.665-6.823-59.012-8.427-17.995-23.147-32.684-40.844-41.623-.119 6.948 1.94 14.206 5.444 20.207 4.536 7.77 11.48 11.315 17.097 17.903 20.63 24.197 24.293 63.151.482 86.546-11.6 11.398-22.892 14.858-37.65 20.126-12.338 4.404-24.594 12.946-27.205 26.611m-65.69-44.589c16.638 12.3 37.48 15.307 56.741 7.237 45.688-19.141 47.112-83.981 2.321-105.243-19.61-9.308-41.787-6.621-59.06 6.203-.06.325.43.364.66.411 6.48 1.346 10.928 2.152 16.844 5.453 28.69 16.005 31.68 56.31 5.62 76.344-7.623 5.86-13.341 7.225-22.509 9.137-.287.06-.57.11-.616.458m33.56-44.345c.653-7.517-1.691-15.655-5.651-22.032-16.403-26.416-55.82-23.734-68.468 4.613-11.313 25.355 7.356 54.725 35.161 54.833 20.786.08 32.756-23.796 24.782-41.813-7.568-17.1-32.892-20.163-40.598-1.349-4.29 10.476-.35 20.428 7.067 28.164-1.422-.013-3.243-1.046-4.475-1.758-13.011-7.526-14.284-23.558-6.796-35.644 13.386-21.607 45.484-14.509 55.835 6.267Z"/><path id="path2" d="m84.85 99.708-3.143-8.72c-10.351-20.775-42.45-27.873-55.835-6.266-7.488 12.086-6.215 28.118 6.796 35.644 1.232.712 3.053 1.745 4.475 1.758-7.417-7.736-11.357-17.688-7.067-28.164 7.706-18.814 33.03-15.75 40.598 1.349 7.974 18.017-3.996 41.894-24.782 41.813-27.805-.108-46.474-29.478-35.16-54.833 12.648-28.347 52.064-31.03 68.467-4.613 3.96 6.377 6.304 14.515 5.651 22.032" class="cls-1"/><path id="path3" d="M111.465 188.165c-27.113-1.793-52.954-16.77-68.043-39.238-.257-.383-1.887-2.767-1.72-2.953 22.483 20.552 56.37 22.864 81.346 5.23 28.476-20.106 36.055-59.207 16.944-88.548 3.572-11.113 2.273-23.07-5.746-31.87-2.477-2.719-5.67-4.534-8.4-6.943-4.609-4.064-9.58-9.984-11.266-15.943 13.04-.958 26.573 1.73 38.495 6.95-2.43 11.632 1.977 22.7 8.88 31.858 2.934 3.894 6.454 6.916 9.568 10.569 18.205 21.356 21.708 52.879 2.877 75.037-11.063 13.017-21.82 17.657-37.04 24.091-13.158 5.562-26.793 15.865-25.895 31.76m95.013-70.281c4.646-21.034 2.236-39.665-6.823-59.012-8.427-17.995-23.147-32.684-40.844-41.623-.119 6.948 1.94 14.206 5.444 20.207 4.536 7.77 11.48 11.315 17.097 17.903 20.63 24.197 24.293 63.151.482 86.546-11.6 11.398-22.892 14.858-37.65 20.126-12.338 4.404-24.594 12.946-27.205 26.611 42.463.929 80.391-29.526 89.499-70.758M45.916 43.877c-1.1 1.465-2.413 3.244-3.358 4.793-.166.272-.987 1.509-.856 1.658 15.9-14.425 37.62-20.246 58.69-15.417 12.045 2.76 22.901 9.264 31.688 17.814.376-7.869-2.372-15.898-7.547-21.817-2.682-3.069-6.238-5.431-9-8.5-3.484-3.873-6.674-8.653-6.945-14.03-24.672 2.29-47.903 15.807-62.672 35.499" class="cls-1"/></g></g></svg>