<svg xmlns="http://www.w3.org/2000/svg" width="216.224" height="196.067" viewBox="0 0 216.224 196.067"><path d="M55.706 173.2c-10.17-8.677-18.813-19.398-24.612-31.482-20.898-7.38-33.863-28.347-30.59-50.48 2.46-16.63 14.583-30.87 30.35-36.416C53.616 7.74 110.5-13.09 158.617 8.575c58.057 26.143 76.067 100.615 36.27 150.696-33.86 42.612-97.514 49.486-139.181 13.93m55.76 14.964c-.898-15.895 12.737-26.198 25.894-31.76 15.22-6.434 25.978-11.074 37.04-24.09 18.832-22.159 15.33-53.68-2.876-75.038-3.114-3.653-6.634-6.675-9.57-10.57-6.901-9.157-11.307-20.225-8.88-31.857-11.92-5.22-25.452-7.908-38.493-6.95 1.686 5.96 6.657 11.88 11.265 15.943 2.73 2.41 5.925 4.224 8.4 6.942 8.02 8.801 9.319 20.758 5.747 31.87 19.11 29.342 11.532 68.443-16.944 88.55-24.976 17.633-58.863 15.321-81.346-5.23-.167.185 1.463 2.57 1.72 2.952 15.089 22.468 40.93 37.445 68.043 39.238M108.589 8.377c-24.672 2.29-47.903 15.807-62.672 35.5-1.1 1.464-2.413 3.243-3.358 4.792-.166.272-.987 1.51-.856 1.658 15.9-14.425 37.62-20.246 58.69-15.417 12.045 2.76 22.9 9.264 31.688 17.814.376-7.869-2.372-15.898-7.547-21.817-2.682-3.069-6.238-5.43-9-8.5-3.484-3.873-6.674-8.653-6.945-14.03m8.39 180.264c42.464.93 80.392-29.526 89.5-70.758 4.646-21.034 2.236-39.665-6.823-59.012-8.427-17.995-23.147-32.684-40.844-41.623-.12 6.948 1.94 14.206 5.444 20.207 4.536 7.77 11.48 11.315 17.097 17.903 20.63 24.197 24.293 63.151.482 86.546-11.6 11.398-22.892 14.858-37.65 20.126-12.338 4.404-24.594 12.946-27.205 26.611m-65.69-44.589c16.638 12.3 37.48 15.307 56.74 7.237 45.689-19.14 47.113-83.98 2.322-105.243-19.61-9.308-41.787-6.62-59.06 6.203-.06.325.43.364.66.411 6.48 1.346 10.928 2.152 16.844 5.453 28.69 16.005 31.68 56.31 5.62 76.344-7.623 5.86-13.341 7.225-22.51 9.137-.286.06-.57.11-.615.458m33.56-44.345c.653-7.517-1.691-15.655-5.651-22.032-16.403-26.416-55.82-23.734-68.468 4.613-11.313 25.355 7.356 54.725 35.16 54.833 20.787.08 32.757-23.796 24.783-41.813-7.568-17.1-32.892-20.163-40.598-1.349-4.29 10.476-.35 20.428 7.067 28.164-1.422-.013-3.243-1.046-4.475-1.758-13.011-7.526-14.284-23.558-6.796-35.644 13.386-21.607 45.484-14.509 55.835 6.267z"/></svg>