<svg xmlns="http://www.w3.org/2000/svg" width="600" height="705.488"><path d="M299.974 705.488c-5.045 0-9.86-2.01-13.37-5.661L99.757 508.639c-6.614-6.808-7.16-17.425-1.235-24.798l8.96-11.235L6.067 378.918C2.205 375.338 0 370.38 0 365.143c0-89.562 34.445-174.308 99.474-244.998 48.855-53.124 97.428-79.58 99.42-80.673 2.823-1.517 5.856-2.205 8.89-2.205 5.238 0 10.406 2.135 14.057 6.332 5.714 6.473 6.19 16.12 1.164 23.228-.76 1.094-80.32 114.43-80.32 248.015 0 89.226 23.281 142.473 62.277 142.473 18.043 0 28.801-10.812 28.801-28.802 0-32.17-40.935-33.475-45.61-33.475-5.925-.07-11.516-2.892-15.026-7.725-3.44-4.744-4.55-10.882-2.752-16.597l111.75-357.63C284.594 5.292 291.843 0 300.045 0c8.112 0 15.361 5.291 17.83 13.087l111.75 357.63c1.728 5.714.688 11.852-2.822 16.596-3.44 4.833-9.03 7.655-14.957 7.725-4.674 0-45.662 1.305-45.662 33.475 0 17.99 10.811 28.802 28.784 28.802 39.066 0 62.347-53.247 62.347-142.473 0-134.008-79.49-246.921-80.32-248.015-5.097-7.107-4.55-16.684 1.164-23.228a18.6 18.6 0 0 1 14.057-6.402c3.034 0 6.067.759 8.89 2.275 1.992 1.094 50.565 27.55 99.42 80.673C565.555 190.835 600 275.58 600 365.143c0 5.238-2.205 10.194-6.05 13.775l-101.413 93.688 8.942 11.235c5.926 7.373 5.379 17.99-1.235 24.798l-186.92 191.188c-3.509 3.65-8.324 5.661-13.35 5.661" style="fill:gray"/><path d="M299.974 686.74 113.125 495.552l19.842-24.868L18.73 365.143c0-207.378 189.053-309.215 189.053-309.215s-83.847 117.41-83.847 258.914c0 141.574 54.093 161.15 81.025 161.15 27.073 0 47.532-17.707 47.532-47.531 0-52.154-64.27-52.154-64.27-52.154L300.044 18.66l111.732 357.647s-64.27 0-64.27 52.154c0 29.824 20.459 47.532 47.462 47.532 27.02 0 81.025-19.577 81.025-161.151 0-141.504-83.777-258.914-83.777-258.914S581.27 157.765 581.27 365.143L467.033 470.684l19.842 24.868z"/></svg>