<svg xmlns="http://www.w3.org/2000/svg" xmlns:xlink="http://www.w3.org/1999/xlink" width="600" height="705.488"><linearGradient id="a" x1="0" x2="1" y1="0" y2="0" gradientTransform="matrix(31.89502 0 0 -31.89502 384.738 146.398)" gradientUnits="userSpaceOnUse" spreadMethod="pad"><stop offset="0" style="stop-color:#612c75"/><stop offset=".3" style="stop-color:#7b5190"/><stop offset=".5" style="stop-color:#bf99c3"/><stop offset=".7" style="stop-color:#7b5190"/><stop offset="1" style="stop-color:#612c75"/></linearGradient><linearGradient xlink:href="#a" id="b" x1="0" x2="1" y1="0" y2="0" gradientTransform="translate(18.727 352.736)scale(562.53879)" gradientUnits="userSpaceOnUse" spreadMethod="pad"/><path fill="#fff" d="M299.973 705.488c-5.044 0-9.859-2.01-13.369-5.662L99.756 508.64c-6.614-6.808-7.16-17.425-1.235-24.798l8.96-11.235L6.067 378.918C2.205 375.338 0 370.38 0 365.143c0-89.562 34.445-174.309 99.474-244.998 48.855-53.124 97.428-79.58 99.42-80.673 2.822-1.517 5.856-2.205 8.89-2.205 5.238 0 10.406 2.134 14.057 6.332 5.714 6.473 6.19 16.12 1.164 23.228-.76 1.094-80.32 114.43-80.32 248.015 0 89.226 23.281 142.473 62.277 142.473 18.043 0 28.801-10.812 28.801-28.802 0-32.17-40.936-33.475-45.61-33.475-5.925-.07-11.516-2.893-15.026-7.725-3.44-4.745-4.55-10.882-2.752-16.597l111.75-357.63C284.594 5.292 291.843 0 300.044 0c8.184 0 15.362 5.291 17.831 13.087l111.75 357.63c1.728 5.714.688 11.851-2.822 16.596-3.44 4.832-9.03 7.654-14.957 7.725-4.674 0-45.61 1.305-45.61 33.475 0 17.99 10.76 28.802 28.802 28.802 38.996 0 62.277-53.247 62.277-142.473 0-134.008-79.562-246.921-80.32-248.015-5.097-7.107-4.55-16.684 1.164-23.228a18.6 18.6 0 0 1 14.057-6.402c3.034 0 6.067.759 8.819 2.275 2.063 1.094 50.636 27.55 99.491 80.673C565.554 190.835 600 275.58 600 365.143c0 5.238-2.205 10.194-6.05 13.775l-101.414 93.688 8.943 11.235c5.926 7.373 5.379 17.99-1.235 24.798L313.325 699.826c-3.51 3.651-8.325 5.662-13.351 5.662"/><path d="M188.224 376.36s64.27 0 64.27 52.1c0 29.825-20.46 47.533-47.462 47.533s-81.096-19.578-81.096-161.151c0-141.504 83.848-258.914 83.848-258.914S18.73 157.765 18.73 365.143l114.236 105.54-19.842 24.87L299.973 686.74l186.902-191.188-19.842-24.868 114.236-105.541c0-207.378-189.053-309.215-189.053-309.215s83.777 117.41 83.777 258.914c0 141.573-54.006 161.15-81.026 161.15-27.002 0-47.461-17.707-47.461-47.532 0-52.1 64.27-52.1 64.27-52.1L299.973 18.66Z" style="fill:url(#b)"/></svg>