<svg xmlns="http://www.w3.org/2000/svg" width="562.539" height="668.08"><path d="M281.243 668.08 94.394 476.892l19.842-24.868L0 346.483C0 139.105 189.053 37.267 189.053 37.267s-83.847 117.411-83.847 258.915c0 141.573 54.093 161.15 81.025 161.15 27.073 0 47.532-17.707 47.532-47.532 0-52.153-64.27-52.153-64.27-52.153L281.314 0l111.732 357.647s-64.27 0-64.27 52.153c0 29.825 20.46 47.533 47.462 47.533 27.02 0 81.025-19.578 81.025-161.151 0-141.504-83.777-258.915-83.777-258.915S562.54 139.105 562.54 346.483l-114.237 105.54 19.842 24.87z"/></svg>