<svg xmlns="http://www.w3.org/2000/svg" xmlns:xlink="http://www.w3.org/1999/xlink" width="600" height="648.789"><linearGradient id="a" x1="0" x2="1" y1="0" y2="0" gradientTransform="matrix(33.13379 0 0 -33.13379 149.867 34.72)" gradientUnits="userSpaceOnUse" spreadMethod="pad"><stop offset="0" style="stop-color:#8b723c"/><stop offset=".4" style="stop-color:#d2bb7b"/><stop offset=".5" style="stop-color:#ebd491"/><stop offset=".7" style="stop-color:#d2bb7b"/><stop offset="1" style="stop-color:#8b723c"/></linearGradient><linearGradient xlink:href="#a" id="b" x1="0" x2="1" y1="0" y2="0" gradientTransform="translate(31.285 326.455)scale(537.42099)" gradientUnits="userSpaceOnUse" spreadMethod="pad"/><path d="M600 648.789H0V503.444l15.003-7.98V201.287l153.65-73.67V69.63L300 0l131.331 69.631v57.986l153.65 73.67v294.177l15.019 7.98z"/><path d="M200.022 88.44v301.298l99.979-53.045 99.978 53.032V88.441L300 35.499Zm235.562 319.335 118.093 56.639V220.988l-118.093-56.574ZM46.376 220.988v243.426l118.028-56.64v-243.36Zm-15.09 301.298v95.151H568.69v-95.164L300 379.526Z" style="fill:url(#b);stroke-width:12.9758"/></svg>