<svg xmlns="http://www.w3.org/2000/svg" xmlns:xlink="http://www.w3.org/1999/xlink" width="600" height="648.789"><linearGradient id="a" x1="0" x2="1" y1="0" y2="0" gradientTransform="matrix(33.13379 0 0 -33.13379 82.867 34.72)" gradientUnits="userSpaceOnUse" spreadMethod="pad"><stop offset="0" style="stop-color:#536e78"/><stop offset=".4" style="stop-color:#99aebc"/><stop offset=".5" style="stop-color:#d9eaf3"/><stop offset=".7" style="stop-color:#99aebc"/><stop offset="1" style="stop-color:#536e78"/></linearGradient><linearGradient xlink:href="#a" id="b" x1="0" x2="1" y1="0" y2="0" gradientTransform="translate(31.29 326.46)scale(537.42088)" gradientUnits="userSpaceOnUse" spreadMethod="pad"/><path d="M600 648.789H0V503.444l15.003-7.98V201.287l153.65-73.67V69.63L300 0l131.331 69.631v57.986l153.65 73.67v294.177l15.019 7.98z"/><path d="M200.022 88.446v301.282L300 336.689l100.043 53.039V88.446L300 35.49ZM435.58 407.78l118.03 56.64V220.993l-118.03-56.575ZM46.372 220.994v243.425l118.031-56.639V164.42ZM31.288 522.275v95.161h537.408v-95.16L300 379.525Z" style="fill:url(#b)"/></svg>