<?xml version="1.0" encoding="UTF-8" standalone="no"?>
<svg
   version="1.1"
   id="Layer_1"
   x="0px"
   y="0px"
   width="180.64301"
   height="300"
   xmlns="http://www.w3.org/2000/svg"
   xmlns:svg="http://www.w3.org/2000/svg">
  <defs
     id="defs2" />
  <polygon
     points="174.02,170.072 89.474,217.973 10.52,170.741 90.724,10.438 "
     id="polygon1"
     transform="translate(-0.178)" />
  <path
     fill="#ffffff"
     d="M 90.635,20.876 167.508,168.201 89.362,212.476 16.561,168.926 90.635,20.876 M 90.457,0 4.122,172.556 l 85.109,50.913 90.944,-51.526 z"
     id="path1" />
  <polygon
     points="89.635,250.653 171.598,203.01 136.421,295.25 40.81,295.25 8.892,203.718 "
     id="polygon2"
     transform="translate(-0.178)" />
  <path
     fill="#ffffff"
     d="M 162.196,213.866 132.97,290.5 H 44.006 l -26.58,-76.223 67.257,39.096 4.774,2.775 4.774,-2.775 67.965,-39.507 M 180.643,192.154 89.456,245.159 0,193.159 37.258,300 h 102.258 z"
     id="path2" />
</svg>
