<?xml version="1.0" encoding="UTF-8" standalone="no"?>
<svg
   version="1.1"
   width="601.34357"
   height="386.94046"
   id="svg3"
   xmlns="http://www.w3.org/2000/svg"
   xmlns:svg="http://www.w3.org/2000/svg">
  <defs
     id="defs3" />
  <g
     transform="matrix(1.9933555,0,0,-1.9933555,1.6682494,385.94459)"
     id="g3">
    <g
       transform="translate(234.2695,3)"
       id="g1">
      <path
         d="m 0,0 c -0.28,6.858 -1.517,13.625 -3.688,20.154 l -0.063,0.172 C -10.527,37.192 -22.276,50.22 -37.729,58 l -0.334,0.168 -0.364,0.081 C -43.598,59.398 -54.755,60 -59.285,60 H -76.174 L -84.269,157.394 -92.365,60 h -16.889 c -4.531,0 -15.689,-0.602 -20.86,-1.751 l -0.365,-0.081 -0.333,-0.168 c -15.452,-7.78 -27.202,-20.808 -33.978,-37.674 l -0.063,-0.172 C -167.025,13.621 -168.263,6.855 -168.542,0 h -60.706 l 70.52,131 H -117.1 L -84.27,183.971 -51.439,131 H -9.812 L 60.708,0 Z"
         id="path1" />
    </g>
    <g
       transform="translate(233.3701,24.2754)"
       style="fill:#ffffff"
       id="g2">
      <path
         d="m 0,0 c -7.089,17.621 -18.957,31.082 -36.147,39.74 -3.948,0.878 -8.047,1.267 -12.219,1.561 L -8.067,101.826 56.586,-18.275 H 3.725 C 3.221,-11.858 1.957,-5.904 0,0 m -60.698,41.725 h -9.936 l -12.735,94.394 -12.737,-94.394 h -9.936 l -43.275,65 h 34.787 l 31.16,50.276 31.16,-50.276 34.789,-10e-4 z M -130.595,39.74 C -147.784,31.083 -159.652,17.623 -166.742,0 c -1.953,-5.892 -3.221,-11.844 -3.727,-18.275 h -52.857 l 64.654,120.103 40.298,-60.527 c -4.167,-0.293 -8.3,-0.689 -12.221,-1.561 m 123.475,72.984 -41.75,10e-4 -34.5,55.666 -34.5,-55.666 h -41.75 l -73.75,-137 h 68.666 c 0,7.767 1.277,15.23 3.598,22.208 6.306,15.697 17.505,28.541 32.543,36.112 4.892,1.088 15.861,1.68 20.209,1.68 h 16.484 l 8.5,62.999 8.5,-62.999 h 16.482 c 4.348,0 15.317,-0.592 20.209,-1.68 15.037,-7.571 26.237,-20.415 32.543,-36.112 2.321,-6.978 3.596,-14.441 3.596,-22.208 h 68.67 z"
         style="fill:#ffffff;stroke:#ffffff"
         id="path2" />
    </g>
  </g>
</svg>
