<?xml version="1.0" encoding="UTF-8" standalone="no"?>
<svg
   version="1.1"
   width="601.34357"
   height="386.93958"
   id="svg5"
   xmlns:xlink="http://www.w3.org/1999/xlink"
   xmlns="http://www.w3.org/2000/svg"
   xmlns:svg="http://www.w3.org/2000/svg">
  <defs
     id="defs5" />
  <radialGradient
     cx="0"
     cy="0"
     r="1"
     fx="0"
     fy="0"
     id="radialGradient24"
     gradientUnits="userSpaceOnUse"
     gradientTransform="matrix(119.08626,0,0,-119.08626,150,94.8125)"
     spreadMethod="pad">
    <stop
       style="stop-color:#f6b91d"
       offset="0"
       id="stop1" />
    <stop
       style="stop-color:#d3641c"
       offset="0.7"
       id="stop2" />
    <stop
       style="stop-color:#bf331c"
       offset="1"
       id="stop3" />
  </radialGradient>
  <radialGradient
     cx="0"
     cy="0"
     r="1"
     fx="0"
     fy="0"
     id="radialGradient3839"
     xlink:href="#radialGradient24"
     gradientUnits="userSpaceOnUse"
     gradientTransform="matrix(237.38045,0,0,237.38045,300.67178,197.94439)"
     spreadMethod="pad" />
  <path
     d="M 236.89457,121.82339 H 154.03903 L 16.685337,376.97204 H 129.84377 c 0.80132,-13.34547 3.43454,-26.52749 7.44715,-38.38791 v 0 c 13.33949,-33.60189 36.79324,-60.54598 70.25758,-77.40971 v 0 c 12.68368,-2.80863 73.95922,-4.47109 73.95922,-4.47109 v 0 L 300.70766,66.220912 319.85178,256.84088 c 0,0 63.95859,2.12291 73.93929,4.33354 v 0 c 33.52414,16.89363 56.94599,43.8756 70.25757,77.40971 v 0 c 4.01858,11.87836 6.64384,25.06038 7.44516,38.38791 v 0 H 584.65819 L 447.30649,121.82339 H 364.44896 L 300.67178,18.918741 Z"
     style="fill:url(#radialGradient3839)"
     id="path3" />
  <path
     d="m 472.47352,335.49324 c -14.19463,-35.62114 -39.36864,-64.56856 -75.64559,-82.83162 -6.53619,-1.45116 -14.73284,-2.45581 -22.59262,-3.12358 l 72.78315,-109.32322 122.62285,227.78795 h -89.92595 c -1.28372,-11.24449 -3.6857,-21.83913 -7.24184,-32.50953 M 349.8447,248.40183 H 325.25275 L 300.67077,66.22171 276.09079,248.40183 H 251.49884 L 173.19611,130.79426 h 68.6928 l 58.78186,-94.847529 58.78386,94.847529 68.6908,0.002 -78.30073,117.60558 z m -145.33308,4.25979 c -35.95403,18.09961 -61.33335,46.91546 -75.64559,82.83162 -3.54218,10.62854 -5.95613,21.2192 -7.24383,32.50953 H 31.702231 L 154.32508,140.21482 227.10225,249.52808 c -7.63254,0.63986 -15.81125,1.62657 -22.59063,3.13354 m 248.152,-139.80551 -83.22231,-0.002 L 300.67077,1.892341 231.90024,112.85411 H 148.67792 L 1.6684432,385.9429 H 138.54573 c 0,-15.48434 2.54551,-30.3607 7.17008,-44.2683 12.57205,-31.29159 34.89556,-56.89217 64.86955,-71.9858 9.75345,-2.16877 31.6165,-3.34684 40.28359,-3.34684 h 32.85836 l 16.94346,-125.58097 16.94347,125.58097 h 32.85637 c 8.66708,0 30.53013,1.17807 40.28358,3.34684 29.97399,15.09363 52.29751,40.69421 64.86956,71.9858 4.62457,13.9076 7.16808,28.78396 7.16808,44.2683 H 599.6751 L 452.66362,112.8561 Z"
     style="stroke:#ffffff;stroke-width:1.99335;stroke-opacity:0"
     id="path4" />
  <path
     d="m 464.04844,338.58452 c -13.31159,-33.5341 -36.73344,-60.51607 -70.25758,-77.4097 -9.55013,-2.11495 -23.62517,-3.09169 -33.33676,-3.52823 L 448.90297,124.79587 584.658,376.97244 H 471.4916 c -0.79933,-13.32753 -3.42457,-26.50955 -7.44316,-38.38792 M 319.92333,257.37151 300.67157,114.67165 281.41981,257.37151 c -17.61722,0.002 -31.74209,0.006 -32.32215,0.0144 L 158.8448,121.82384 h 78.04957 l 63.7772,-102.904649 63.7772,102.904649 78.04957,0.002 -90.25285,135.55968 c -0.58406,-0.008 -14.70693,-0.0112 -32.32216,-0.0143 m -112.37504,3.80331 c -33.46434,16.86373 -56.91808,43.80982 -70.25757,77.40971 -4.01261,11.86042 -6.64583,25.04244 -7.44715,38.38791 H 16.685138 L 152.44017,124.7935 240.88905,257.64621 c -9.7116,0.43654 -23.79062,1.41328 -33.34076,3.52823 M 452.66442,112.85571 369.44211,112.85371 300.67157,1.891951 231.90104,112.85371 H 148.67872 L 1.6692405,385.9425 H 138.54453 c 0,-15.48434 2.54551,-30.3607 7.17207,-44.26829 12.57006,-31.2896 34.89557,-56.89217 64.86956,-71.98581 9.76143,-2.16877 31.63843,-3.34683 40.28358,-3.34683 h 36.37862 l 13.42321,-99.49202 13.42321,99.49202 h 36.37463 c 8.63718,0 30.51817,1.17607 40.28359,3.34683 29.97598,15.09364 52.29949,40.69621 64.86955,71.98581 4.62656,13.90759 7.16808,28.78395 7.16808,44.26829 H 599.6739 Z"
     style="fill:#ffffff;stroke:#ffffff;stroke-width:1.99335"
     id="path5" />
</svg>
