<?xml version="1.0" encoding="UTF-8" standalone="no"?>
<svg
   version="1.1"
   width="577.98541"
   height="366.7196"
   id="svg2"
   xmlns="http://www.w3.org/2000/svg"
   xmlns:svg="http://www.w3.org/2000/svg">
  <defs
     id="defs2" />
  <g
     transform="matrix(1.9933555,0,0,-1.9933555,-10.009635,372.69967)"
     id="g2">
    <g
       transform="translate(234.2695,3)"
       id="g1">
      <path
         d="m 0,0 c -0.28,6.858 -1.517,13.625 -3.688,20.154 l -0.063,0.172 C -10.527,37.192 -22.276,50.22 -37.729,58 l -0.334,0.168 -0.364,0.081 C -43.598,59.398 -54.755,60 -59.285,60 H -76.174 L -84.269,157.394 -92.365,60 h -16.889 c -4.531,0 -15.689,-0.602 -20.86,-1.751 l -0.365,-0.081 -0.333,-0.168 c -15.452,-7.78 -27.202,-20.808 -33.978,-37.674 l -0.063,-0.172 C -167.025,13.621 -168.263,6.855 -168.542,0 h -60.706 l 70.52,131 H -117.1 L -84.27,183.971 -51.439,131 H -9.812 L 60.708,0 Z"
         id="path1" />
    </g>
  </g>
</svg>
