<svg xmlns="http://www.w3.org/2000/svg" width="1023.989" height="948.919" viewBox="0 0 1023.989 948.919"><path d="M816.012 712.34c-2.297 0-4.63-.57-6.851-1.519L278.213 461.943c-5.617-2.637-9.242-8.255-9.318-14.442-1.385-103.26 26.36-200.123 78.094-272.695C408.23 88.931 500.427 40.48 613.629 34.73a340 340 0 0 1 17.176-.418c21.75 0 89.653 2.467 135.484 31.124 3.625-9.793 6.377-21.863 7.78-34.787.76-6.433 5.144-11.804 11.312-13.72 1.518-.494 3.208-.722 4.802-.722a16.16 16.16 0 0 1 12.278 5.637c18.39 21.369 37.634 65.683 40.348 117.701 28.448 39.968 58.262 88.609 63.158 158.808 4.536 65.095 50.368 132.58 83.845 181.866 5.447 8.028 10.609 15.581 15.24 22.641a16.4 16.4 0 0 1 2.619 7.743c.948 13.36-3.89 26.152-13.968 36.95-14.025 15.05-36.704 24.406-59.136 24.406-6.376 0-12.525-.76-18.276-2.296-2.694-.76-5.143-2.088-7.135-4.024-3-2.903-6.263-6.168-9.83-9.697-16.986-16.91-40.5-40.29-71.567-61.83 47.73 64.771 46.515 126.43 2.62 209.573a16.27 16.27 0 0 1-14.367 8.654"/><path d="M790.183 32.395c17.554 20.383 35.128 63.653 36.646 112.654 27.272 37.88 58.206 85.61 62.988 154.424 5.599 80.277 67.638 160.402 101.684 212.288 1.708 25.165-28.903 44.029-56.953 44.029q-7.325 0-14.138-1.708c-28.809-27.898-82.744-88.286-170.631-117.057 104.17 88.4 122.654 152.413 66.252 259.164L285.083 447.274C282.616 262.257 378 62.894 614.427 50.899q7.952-.418 16.36-.418c50.082 0 110.357 11.084 141.12 39.399 10.836-15.277 16.226-38.677 18.276-57.485m0-32.395a32.45 32.45 0 0 0-32.206 28.866c-.57 4.402-1.139 8.748-1.936 12.848-47.445-21.54-105.08-23.59-125.236-23.59-6.073 0-12.145.152-17.99.436C494.504 24.577 398.02 75.362 333.8 165.431c-53.727 75.343-82.536 175.585-81.093 282.298 0 12.374 7.401 23.609 18.636 28.866l530.948 248.858a32.376 32.376 0 0 0 42.397-14.196c32.3-61.128 41.846-109.522 30.687-156.188 4.517 4.383 8.71 8.559 12.544 12.354q5.39 5.371 9.964 9.85c3.985 3.852 8.9 6.642 14.252 8.046 7.117 1.898 14.651 2.847 22.432 2.847 26.778 0 53.993-11.349 70.997-29.587 13.038-13.948 19.51-31.39 18.276-49.115a32.26 32.26 0 0 0-5.22-15.486q-7.116-10.798-15.39-22.868c-32.434-47.749-76.842-113.147-81.074-173.896-4.802-68.985-32.737-119.447-63.463-163.267-3.397-47.787-20.173-95.08-43.934-122.693A32.45 32.45 0 0 0 790.183 0" style="fill:#fff;stroke-width:18.978"/><path d="M594.652 932.693c-6.224 0-12.013-3.587-14.69-9.375a16.2 16.2 0 0 1 4.196-19.13c36.36-30.991 48.62-54.96 40.897-80.106-16.207-53.025-94.32-79.442-253.3-85.705-165.45-6.51-264.135-64.089-286.093-166.684-38.772-22.033-66.84-70.579-69.307-121.383-2.107-43.137 15.562-83.541 43.839-102.671 1.233-87.185 89.709-172.984 191.943-183.327h1.708c4.935 0 9.64 2.258 12.735 6.186a16.29 16.29 0 0 1 2.524 15.43c-17.46 49.19 1.328 115.158 44.617 156.929 68.852 66.347 179.722 123.698 329.496 170.403 166.703 52.019 201.698 152.166 201.698 227.034 0 96.427-90.24 166.513-247.568 192.285-.95 0-1.708.19-2.62.19z"/><path d="M253.75 180.443c-20.856 58.756 3.74 130.72 48.641 173.99 80.467 77.544 204.26 133.15 335.93 174.237 135.123 42.17 190.292 118.916 190.292 211.548 0 91.436-92.973 153.21-233.96 176.306 36.608-31.2 56.725-61.736 45.888-97.149-19.794-64.772-107.966-90.848-268.159-97.148-146.68-5.77-253.774-53.063-272.315-161.294-35.755-16.492-65.152-62.077-67.562-111.382-2.012-41.353 16.796-79.879 44.067-92.708-5.295-81.112 78.797-166.475 177.179-176.4m.019-32.396c-1.14 0-2.183 0-3.265.19-54.011 5.466-107.643 31.295-147.136 70.864-35.204 35.261-56.08 78.17-59.022 120.264C15.54 363.087-2.016 405.939.185 451.164c2.6 53.347 31.105 104.664 71.225 130.815 13.531 54.448 47.502 96.921 101.172 126.432 49.912 27.442 116.714 43.004 198.528 46.211 148.997 5.864 224.776 29.454 238.46 74.242 3.89 12.734 2.656 30.175-35.945 63.045a32.357 32.357 0 0 0 21.008 57.01c1.708 0 3.511 0 5.257-.38 76.956-12.601 138.767-35.583 183.688-68.301 50.672-36.894 77.43-85.288 77.43-139.963 0-80.277-36.95-187.54-213.046-242.463-147.365-46.04-256.07-102.102-323.1-166.684-38.963-37.557-56.024-96.37-40.595-139.849a32.357 32.357 0 0 0-30.497-43.232m604.259 400.341a15.37 15.37 0 0 1-13.626-8.274c-22.49-43.175-71.908-72.136-119.732-100.11-59.364-34.729-120.738-70.692-123.168-134.876-2.144-56.592 48.508-79.1 50.653-80.03a15.372 15.372 0 0 1 12.24 28.182c-1.518.76-33.553 15.448-32.205 50.71 1.708 47.369 51.013 76.177 107.985 109.522 51.582 30.175 104.891 61.393 131.46 112.425a15.37 15.37 0 0 1-6.547 20.724 15.2 15.2 0 0 1-7.06 1.708z" style="fill:#fff;stroke-width:18.978"/></svg>