<svg xmlns="http://www.w3.org/2000/svg" width="959.07" height="884.129" viewBox="0 0 959.07 884.129"><path d="M757.701 0c-2.05 18.805-7.44 42.205-18.27 57.48-30.77-28.313-91.04-39.394-141.1-39.394-5.6 0-11.07.132-16.36.416-175.58 8.907-273.3 121.177-311 254.127 6.15 9.41 13.36 18.23 21.53 26.11 67.03 64.58 175.74 120.64 323.1 166.68 109.05 34.01 164.72 88.09 191.32 143.41 16.34-53.46 7.49-96.97-28.67-143.09-24.4-22.07-55.55-40.32-86.06-58.16-59.36-34.73-120.72-70.7-123.15-134.86-2.14-56.59 48.5-79.1 50.65-80.03 7.78-3.38 16.82.19 20.16 8.01 3.36 7.76-.19 16.77-7.93 20.17-1.52.76-33.55 15.45-32.2 50.7 1.71 47.36 51 76.17 107.98 109.51 34.68 20.29 70.15 41.06 97.73 68 38.12 26.59 64.95 55.58 82.48 72.55 4.52 1.14 9.28 1.71 14.14 1.71 28.05 0 58.66-18.86 56.95-44.02-34.04-51.87-96.09-132-101.68-212.26-4.79-68.81-35.71-116.54-62.97-154.42-1.52-48.991-19.09-92.259-36.65-112.639" style="display:inline;fill:#000;fill-opacity:1;stroke-width:18.9771"/><path d="M221.391 148.049c-98.38 9.93-182.473 95.29-177.178 176.4-27.27 12.83-46.078 51.36-44.066 92.71 2.41 49.31 31.806 94.89 67.564 111.38 18.54 108.24 125.63 155.53 272.31 161.3 160.2 6.3 248.37 32.37 268.16 97.15 10.84 35.41-9.28 65.94-45.89 97.14 140.99-23.09 233.96-84.87 233.96-176.3 0-92.63-55.17-169.38-190.29-211.55-131.67-41.09-255.46-96.69-335.93-174.24-44.9-43.27-69.5-115.23-48.64-173.99" style="display:inline;fill:#000;fill-opacity:1;stroke-width:18.978"/></svg>