<svg xmlns="http://www.w3.org/2000/svg" width="600.001" height="451.118" viewBox="0 0 600.001 451.118"><path d="m540.45 451.11-39.71-25.41c-44.954-54.23-119.8-87.174-200.738-87.174-80.94 0-155.788 32.944-200.74 87.176L59.54 451.118C54.11 282.666 173.62 184.038 300 184.038c127.624 0 245.966 99.938 240.45 267.072m53.6-120.426c19.318-88.466-8.466-182.508-82.398-250.226-117.09-107.263-306.18-107.291-423.3 0-73.505 67.33-101.833 161.226-82.4 250.226l22.18 35.15 17.973-29.96c20.791-65.722 63.121-112.408 121.881-147.914-7.166-46.882.386 2.522-6.532-42.726 37.306 27.1 29.878 21.708 38.306 27.826 33.158-11.964 48.652-14.876 79.458-18.168 4.3-10.308.686-1.648 20.782-49.786 18.794 45.02 16.118 38.612 20.782 49.786 30.804 3.292 46.13 6.142 79.458 18.168 8.374-6.08 1.064-.77 38.306-27.826-6.916 45.24.632-4.152-6.532 42.726 58.756 35.502 101.088 82.186 121.882 147.914l17.974 29.96z" style="fill:#fff"/><path d="M524.212 428.636c-46.478-66.15-131.728-106.992-224.214-106.992-92.482 0-177.73 40.842-224.212 106.986-.352-60.078 22.188-116.53 63.856-159.558C182.2 225.122 239.148 200.92 300 200.92c60.878 0 117.842 24.22 160.398 68.204 41.684 43.076 64.21 99.51 63.814 159.512m49.33-85.606c-17.682-67.164-62.206-126.458-123.134-163.676l10.936-71.552-63.792 46.34a288.7 288.7 0 0 0-65.042-14.976L300 61.278l-32.512 77.886a288.7 288.7 0 0 0-65.042 14.976l-63.792-46.34 10.936 71.552C88.662 216.57 44.14 275.864 26.457 343.028a239 239 0 0 1-9.556-66.936c0-142.896 126.997-259.152 283.1-259.152 156.1 0 283.098 116.256 283.098 259.154a239 239 0 0 1-9.558 66.936"/><path d="M300 18.94c75.152 0 145.788 26.793 198.896 75.44 53.01 48.559 82.204 113.093 82.204 181.715a237 237 0 0 1-7.568 59.436c-18.866-64.36-62.278-120.962-120.946-157.186l10.012-65.506 1.448-9.47-7.752 5.63-59.064 42.906a290.6 290.6 0 0 0-63.326-14.596l-30.212-72.38L300 56.087l-3.692 8.844-30.212 72.38a290.6 290.6 0 0 0-63.326 14.596L143.706 109l-7.752-5.63 1.448 9.47 10.012 65.506c-58.666 36.222-102.08 92.826-120.946 157.186a237 237 0 0 1-7.568-59.436c0-68.624 29.194-133.156 82.204-181.714C154.212 45.733 224.848 18.94 300 18.94m0 183.98c60.332 0 116.786 24.006 158.96 67.594 39.874 41.208 62.062 94.748 63.21 151.898-47.578-63.684-131.43-102.768-222.172-102.768-90.738 0-174.586 39.08-222.166 102.756 1.188-57.22 23.388-110.776 63.248-151.938 42.176-43.556 98.616-67.542 158.92-67.542m0-187.98c-157.458 0-285.1 116.922-285.1 261.154 0 25.852 4.122 50.82 11.762 74.406 16.712-71.574 62.684-132.406 125.108-170.13l-10.414-68.134 60.772 44.146a286 286 0 0 1 66.752-15.358L300 66.47l31.122 74.554a286 286 0 0 1 66.752 15.358l60.772-44.146-10.414 68.134c62.424 37.724 108.394 98.556 125.108 170.13a240.8 240.8 0 0 0 11.762-74.406C585.098 131.863 457.458 14.94 300 14.94m0 183.98c-127.226 0-230.272 106.152-226.092 236.028C117.6 368.629 202.462 323.645 300 323.645c97.536 0 182.396 44.984 226.09 111.302C530.35 305.589 427.624 198.92 300 198.92" style="fill:#fff;stroke-width:2"/></svg>