<svg xmlns="http://www.w3.org/2000/svg" xmlns:xlink="http://www.w3.org/1999/xlink" width="599.999" height="451.12" viewBox="0 0 599.999 451.12"><linearGradient id="a" x1="108.917" x2="261.786" y1="238.828" y2="106.367" gradientUnits="userSpaceOnUse"><stop offset="0" style="stop-color:#612c75"/><stop offset=".3" style="stop-color:#7b5190"/><stop offset=".5" style="stop-color:#bf99c3"/><stop offset=".7" style="stop-color:#7b5190"/><stop offset="1" style="stop-color:#612c75"/></linearGradient><linearGradient xlink:href="#a" id="b" x1="108.917" x2="261.786" y1="238.828" y2="106.367" gradientTransform="matrix(2 0 0 2 0 -76.288)" gradientUnits="userSpaceOnUse"/><path fill="#fff" d="m540.453 451.112-39.71-25.41c-44.954-54.23-119.8-87.175-200.74-87.175-80.938 0-155.787 32.945-200.74 87.177L59.54 451.12C54.11 282.665 173.62 184.04 300 184.04c127.626 0 245.966 99.937 240.452 267.072m53.598-120.427c19.316-88.466-8.466-182.508-82.398-250.226-117.09-107.265-306.18-107.293-423.301 0C14.847 147.79-13.481 241.685 5.953 330.685l22.178 35.15 17.974-29.96c20.792-65.722 63.122-112.408 121.882-147.914-7.166-46.882.386 2.522-6.532-42.726 37.306 27.1 29.878 21.708 38.306 27.826 33.158-11.964 48.652-14.876 79.458-18.168 4.3-10.308.686-1.648 20.782-49.786 18.795 45.02 16.119 38.612 20.783 49.786 30.804 3.292 46.13 6.142 79.458 18.168 8.374-6.08 1.064-.77 38.306-27.826-6.916 45.24.632-4.152-6.532 42.726 58.756 35.502 101.088 82.186 121.882 147.914l17.974 29.96z"/><path d="M524.215 428.638C477.735 362.488 392.487 321.645 300 321.645c-92.482 0-177.73 40.843-224.21 106.987-.354-60.078 22.188-116.53 63.856-159.559 42.556-43.95 99.506-68.152 160.356-68.152 60.879 0 117.843 24.22 160.399 68.204 41.682 43.076 64.208 99.51 63.814 159.513m49.328-85.607c-17.682-67.164-62.206-126.458-123.134-163.676l10.938-71.552-63.792 46.34a288.7 288.7 0 0 0-65.042-14.976L300 61.28l-32.512 77.886a288.7 288.7 0 0 0-65.042 14.976l-63.792-46.34 10.938 71.552C88.663 216.571 44.139 275.865 26.459 343.03a239 239 0 0 1-9.556-66.936C16.9 133.197 143.898 16.941 300 16.941s283.1 116.256 283.1 259.154c0 22.682-3.213 45.164-9.557 66.936" style="fill:url(#b)"/><path fill="#fff" d="M300 18.94c75.15 0 145.789 26.793 198.895 75.44 53.012 48.56 82.206 113.094 82.206 181.716 0 20.09-2.542 40.022-7.566 59.436-18.868-64.36-62.28-120.962-120.948-157.186l10.012-65.506 1.45-9.47-7.754 5.63-59.064 42.906a290.5 290.5 0 0 0-63.324-14.596l-30.213-72.38L300 56.087l-3.692 8.844-30.212 72.38a290.5 290.5 0 0 0-63.324 14.596L143.708 109l-7.754-5.63 1.45 9.47 10.012 65.506c-58.668 36.222-102.08 92.826-120.948 157.186a237 237 0 0 1-7.566-59.436c0-68.624 29.194-133.156 82.206-181.714C154.21 45.733 224.85 18.94 300 18.94m0 183.98c60.333 0 116.787 24.006 158.96 67.594 39.875 41.208 62.06 94.75 63.21 151.9-47.577-63.685-131.43-102.77-222.172-102.77-90.738 0-174.586 39.08-222.166 102.757 1.188-57.22 23.388-110.777 63.248-151.939 42.178-43.556 98.616-67.542 158.92-67.542m0-187.98c-157.458 0-285.1 116.922-285.1 261.154 0 25.852 4.122 50.82 11.762 74.407 16.712-71.575 62.684-132.407 125.108-170.13l-10.414-68.135 60.772 44.146a286.2 286.2 0 0 1 66.752-15.358L300 66.47l31.124 74.554a286 286 0 0 1 66.752 15.358l60.772-44.146-10.414 68.134c62.424 37.724 108.394 98.556 125.108 170.13 7.64-23.586 11.762-48.554 11.762-74.406C585.1 131.864 457.459 14.941 300 14.941m0 183.98c-127.226 0-230.272 106.152-226.092 236.03 43.692-66.319 128.552-111.304 226.09-111.304s182.398 44.985 226.092 111.303c4.262-129.36-98.464-236.03-226.09-236.03"/></svg>