<svg xmlns="http://www.w3.org/2000/svg" width="570.202" height="420.008" viewBox="0 0 570.202 420.008"><path d="M509.311 413.695c-46.478-66.15-131.728-106.992-224.213-106.992-92.482 0-177.73 40.842-224.212 106.986-.352-60.078 22.188-116.53 63.856-159.557 42.558-43.95 99.506-68.152 160.358-68.152 60.877 0 117.841 24.22 160.397 68.204 41.684 43.075 64.21 99.51 63.814 159.511m49.33-85.606c-17.682-67.163-62.206-126.457-123.134-163.675l10.936-71.552-63.792 46.34a288.7 288.7 0 0 0-65.042-14.976L285.1 46.338l-32.511 77.886a288.7 288.7 0 0 0-65.042 14.976l-63.792-46.34 10.936 71.552C73.762 201.63 29.238 260.924 11.556 328.087A239 239 0 0 1 2 261.152C2 118.256 128.998 2 285.1 2c156.1 0 283.099 116.256 283.099 259.154a239 239 0 0 1-9.558 66.935"/><path d="M285.1 4c75.152 0 145.788 26.792 198.896 75.44 53.01 48.558 82.204 113.092 82.204 181.714a237 237 0 0 1-7.568 59.436c-18.866-64.36-62.278-120.962-120.946-157.186l10.012-65.506 1.448-9.47-7.752 5.63-59.064 42.906a290.6 290.6 0 0 0-63.326-14.596l-30.212-72.38-3.692-8.842-3.692 8.844-30.212 72.38a290.6 290.6 0 0 0-63.326 14.596L128.806 94.06l-7.752-5.63 1.448 9.47 10.012 65.506c-58.666 36.222-102.08 92.826-120.946 157.186A237 237 0 0 1 4 261.156C4 192.532 33.194 128 86.204 79.442 139.312 30.792 209.948 4 285.1 4m0 183.98c60.332 0 116.786 24.006 158.96 67.594 39.874 41.208 62.062 94.748 63.21 151.898-47.578-63.684-131.43-102.768-222.172-102.768-90.738 0-174.586 39.08-222.166 102.756 1.188-57.22 23.388-110.776 63.248-151.938 42.176-43.556 98.616-67.542 158.92-67.542M285.1 0C127.642 0 0 116.922 0 261.154c0 25.852 4.122 50.82 11.762 74.406 16.712-71.574 62.684-132.406 125.108-170.13l-10.414-68.134 60.772 44.146a286 286 0 0 1 66.752-15.358L285.1 51.53l31.122 74.554a286 286 0 0 1 66.752 15.358l60.772-44.146-10.414 68.134c62.424 37.724 108.394 98.556 125.108 170.13a240.8 240.8 0 0 0 11.762-74.406C570.198 116.922 442.558 0 285.1 0m0 183.98c-127.226 0-230.272 106.152-226.092 236.028C102.7 353.688 187.562 308.704 285.1 308.704c97.536 0 182.396 44.984 226.09 111.302 4.26-129.358-98.466-236.026-226.09-236.026" style="fill:#fff;stroke-width:2"/></svg>