<svg xmlns="http://www.w3.org/2000/svg" xmlns:xlink="http://www.w3.org/1999/xlink" width="600" height="599.977"><radialGradient id="a" cx="0" cy="0" r="1" fx="0" fy="0" gradientTransform="matrix(15.42071 0 0 -15.42071 397.938 372.092)" gradientUnits="userSpaceOnUse" spreadMethod="pad"><stop offset="0" style="stop-color:#d9eaf3"/><stop offset=".663" style="stop-color:#99aebc"/><stop offset="1" style="stop-color:#536e78"/></radialGradient><radialGradient xlink:href="#a" id="b" cx="0" cy="0" r="1" fx="0" fy="0" gradientTransform="translate(300.001 300.017)scale(231.30124)" gradientUnits="userSpaceOnUse" spreadMethod="pad"/><path d="m582.634 319.742-61.572-19.694 61.572-19.8c11.715-3.81 18.99-15.524 17.055-27.718-1.935-12.18-12.42-21.09-24.72-21.09h-.06l-64.692.24 52.438-37.798c10.02-7.2 13.305-20.624 7.68-31.634-4.335-8.564-13.065-13.664-22.26-13.664-2.579 0-5.219.42-7.799 1.29l-61.467 20.22 38.203-52.199c7.335-9.96 6.27-23.669-2.46-32.413-4.86-4.86-11.25-7.32-17.7-7.32-5.144 0-10.304 1.59-14.758 4.815l-46.049 33.748-.824-11.61 14.88-45.402c3.87-11.67-1.396-24.494-12.36-30.06a25.3 25.3 0 0 0-11.37-2.7c-7.784 0-15.404 3.63-20.264 10.38l-10.844 15.045c-8.085-.75-16.995-1.17-26.774-1.29l.06-26.009c.06-12.3-8.91-22.844-21.09-24.779-1.29-.18-2.64-.3-3.87-.3-10.724 0-20.458 6.915-23.848 17.4l-11.655 36.268c-5.16.645-10.26 1.47-15.42 2.46l-12.419-38.729C276.857 6.915 267.183 0 256.458 0c-1.29 0-2.58.12-3.93.3-12.179 1.935-21.089 12.48-21.089 24.779l.24 52.153c-2.235 1.17-4.334 2.4-6.39 3.63l-31.408-43.529c-4.86-6.75-12.48-10.38-20.264-10.38-3.87 0-7.74.886-11.37 2.7-10.964 5.566-16.23 18.39-12.36 30.06l20.205 61.512-52.198-38.248c-4.395-3.225-9.615-4.815-14.774-4.815-6.435 0-12.825 2.46-17.625 7.32-8.73 8.744-9.794 22.454-2.52 32.413l38.204 52.198-61.408-20.22c-2.64-.87-5.22-1.289-7.86-1.289-9.134 0-17.864 5.1-22.258 13.664-5.565 11.01-2.34 24.434 7.68 31.634l52.497 37.799-64.752-.24h-.108c-12.255 0-22.74 8.91-24.674 21.089-1.875 12.194 5.325 23.909 17.054 27.719l61.573 19.799-61.573 19.694C5.62 323.492-1.58 335.266.296 347.446 2.23 359.64 12.716 368.55 24.97 368.55h.108l64.692-.24-52.438 37.843c-10.02 7.215-13.244 20.625-7.68 31.59 4.395 8.549 13.125 13.649 22.26 13.649 2.64 0 5.28-.405 7.86-1.23l61.407-20.22-38.204 52.153c-7.274 9.96-6.21 23.73 2.52 32.459 4.8 4.86 11.19 7.32 17.625 7.32 5.16 0 10.38-1.575 14.774-4.86l28.364-20.744 2.625 23.789c.18 2.4 1.005 6.63 4.11 10.604l-3.105 9.615c-3.87 11.715 1.395 24.494 12.36 30.059 3.629 1.875 7.499 2.745 11.369 2.745 7.784 0 15.404-3.69 20.264-10.365l10.664-14.82c6.975.75 14.475 1.11 22.74 1.11 1.41 0 2.864-.06 4.274-.12l-.12 26.01c0 12.314 8.91 22.859 21.09 24.794 1.35.225 2.64.285 3.93.285a24.98 24.98 0 0 0 23.788-17.34l12.6-39.193c4.515-.765 9.074-1.41 13.59-2.354l13.304 41.548c3.39 10.484 13.124 17.34 23.849 17.34 1.23 0 2.58-.06 3.87-.286 12.18-1.935 21.149-12.48 21.089-24.794l-.18-55.243c1.635-.826 3.225-1.695 4.86-2.58l32.878 45.583c4.86 6.735 12.48 10.425 20.264 10.425 3.87 0 7.74-.87 11.37-2.745 10.964-5.565 16.23-18.344 12.36-30.059l-20.205-61.467 52.198 38.203a24.75 24.75 0 0 0 14.76 4.86c6.45 0 12.839-2.46 17.699-7.32 8.73-8.73 9.794-22.499 2.46-32.459l-38.204-52.153 61.468 20.22c2.58.825 5.22 1.23 7.8 1.23 9.194 0 17.924-5.1 22.259-13.65 5.624-10.964 2.34-24.374-7.62-31.589l-52.498-37.843 64.692.24h.06c12.3 0 22.784-8.91 24.72-21.104 1.934-12.18-5.34-23.954-17.055-27.704"/><path d="M444.655 390.164c0 85.902-95.276 131.485-169.088 139.09-25.664 2.64-58.663 5.46-83.847-.225-8.444-1.875-16.109-4.215-23.084-6.915-2.115-.884-3.105-1.935-3.105-3.165l-10.2-92.11c0-2.04 1.05-3.106 3.166-3.106l15.18 8.145c2.1.646 11.654 56.023 56.937 66.792 29.37 7.035 62.232 0 89.831-9.66 32.924-11.669 66.147-35.623 66.147-74.231 0-35.399-23.609-64.108-70.722-86.202-59.007-27.479-142.089-56.832-142.089-135.04 0-84.37 83.442-122.35 156.384-125.094 26.43-.945 57.072-1.995 83.021 3.285 2.115.404 3.165 1.455 3.165 3.15l6.975 97.976c0 2.1-1.05 3.164-3.165 3.164l-17.804-11.31c-2.115 0-14.94-36.733-20.564-47.112-24.494-44.938-93.642-26.37-126.505-1.47-30.344 22.979-31.349 69.552-9.78 97.33 46.288 59.818 138.97 54.074 182.273 119.051 10.784 16.17 16.874 38.144 16.874 57.658m52.198 106.69-40.483-55.242c-2.745 6.374-6.09 12.54-9.84 18.389zm-240.395 78.162 7.034-21.974c-2.28.18-4.634.42-6.974.524zm169.913-26.954-15.81-48.223c-3.99 3.165-8.084 6.225-12.374 9.15zm-82.842 26.954-.12-38.308a426 426 0 0 1-10.95 3.69zM103.12 103.121l50.098 68.443c1.47-9.435 3.75-18.345 6.975-26.67zm310.487 95.397-5.504-3.465-14.535-9.255a17.3 17.3 0 0 1-5.22-3.225l-6.494 4.8 2.805-8.67c-4.395-5.79-8.025-14.94-13.245-27.884a490 490 0 0 0-5.85-14.534l-22.559 31.289.225-53.203c-3.63-.93-7.845-1.575-13.005-1.575-5.04 0-10.2.644-15.344 1.575l-14.88 46.408-12.135-37.798c-7.44 3.404-14.01 7.334-19.05 11.084-6.03 4.56-9.599 10.305-11.894 15.87l.06 17.639-3.33-4.575c-1.41 13.08 2.16 27.014 9.6 36.688 18.63 24.074 48.103 36.209 79.272 48.973 36.448 15 77.756 31.934 103.945 71.368 4.635 6.914 8.265 14.819 11.43 23.084l117.07.464-135.76-43.588 135.76-43.528-142.554.525 115.66-83.381-135.474 44.593 15.3-20.91c-2.4.75-4.98 1.23-7.74 1.23zm32.22-26.43v.766l51.027-69.732-53.188 38.968 2.1 29.174.06.826zM466.508 399.6l81.567 26.834-83.562-60.237c1.53 7.98 2.64 16.064 2.64 23.969 0 3.225-.404 6.27-.645 9.434m-269.99 28.89 21.675-15.885-12.54 37.963c5.16 9.615 12.015 18.105 21.63 23.024l29.698-41.188-.164 46.588c9.66-.06 20.384-1.53 31.753-4.17l11.43-35.608 9.48 29.639c1.17-.346 2.294-.646 3.524-1.05 7.38-2.64 19.455-7.86 30.06-15.945l-.06-19.454 8.55 11.895c7.32-7.785 12.54-17.52 12.54-29.52 0-9.554 0-38.728-57.779-65.802-5.505-2.58-11.25-5.16-17.04-7.8-55.137-24.898-129.43-58.587-137.169-134.574L51.911 173.604l115.66 83.381-142.554-.525 135.76 43.528-135.76 43.588 142.554-.584-115.66 83.441 135.475-44.593-16.77 22.86 12.96 6.974c8.204 3.915 11.13 11.474 12.944 16.814M426.37 51.913l-.524.826c.06.06.18.06.24.12l.286-.946zM343.53 25.02l-6.63 20.684c2.174-.06 4.35-.12 6.57-.225zM103.118 496.855l34.514-25.244-2.04-19.049zM256.458 25.02l.12 34.813c3.285-1.184 6.554-2.355 9.96-3.345zm-82.842 523.043.286-.464h-.12l-.165.464zm27.599-457.826c-4.05 3.285-7.92 6.735-11.55 10.425l-16.049-48.749z" style="fill:#536e78"/><path d="M330.405 74.471c-74.937 2.82-150.579 40.723-150.579 119.065 0 66.958 64.393 96.026 121.165 121.69 5.97 2.64 11.775 5.325 17.4 7.905 49.273 23.084 74.172 53.968 74.172 91.646 0 49.618-49.033 72.417-70.123 79.917-24.374 8.49-46.708 12.825-66.387 12.825-9.435 0-18.464-.99-26.834-2.925-40.543-9.735-54.673-52.033-59.292-65.923l-.825-2.46-7.095-3.81 9.21 84.267c6.734 2.565 14.054 4.74 21.794 6.495 9.54 2.115 20.744 3.165 34.333 3.165 16.17 0 33.164-1.515 47.578-3.045 65.788-6.795 163.764-47.863 163.764-133.12 0-18.809-6.105-39.613-15.885-54.312-21.449-32.174-55.302-46.049-91.106-60.823-33.284-13.71-67.677-27.824-91.001-57.883-12.36-16.004-18.105-38.143-15.225-59.172 2.52-19.23 11.835-35.744 26.19-46.648 17.804-13.47 48.972-27.014 78.566-27.014 26.309 0 46.003 10.5 56.773 30.419 2.76 5.1 6.914 15.404 10.904 25.363 3.105 7.905 7.38 18.63 7.68 19.575l11.355 7.2-6.435-89.577c-12.9-2.46-27.959-3.645-47.233-3.645-11.25 0-22.38.42-32.864.825m-10.904 45.238-13.77 42.884-5.73 17.819-5.684-17.82-10.02-31.168a82.5 82.5 0 0 0-11.835 7.44 30.45 30.45 0 0 0-9.554 12.299l.06 16.41.06 18.809-.825-1.23c1.47 4.05 3.405 7.74 5.805 10.904 17.624 22.724 46.348 34.559 76.931 47.098 29.94 12.36 63.103 25.964 89.112 52.213l3.345-1.125 98.786-31.634-103.766.36-18.69.045 15.165-10.89 84.207-60.702-98.621 32.46-17.745 5.864 11.01-15.06 7.44-10.14h-3.33l-1.47-.944-5.505-3.45-13.424-8.73a19.5 19.5 0 0 1-2.985-1.41l-3.105 2.235-15.06 11.01 5.865-17.76 1.875-5.79c-4.05-6.389-7.56-15.119-12.194-26.728-.525-1.395-1.17-2.865-1.755-4.395l-16.23 22.5-10.904 15.179.06-18.69.12-48.283a60 60 0 0 0-6.915-.465c-3.345 0-6.855.3-10.724.885m130.374 25.244.81 11.13 18.404-25.124zm-299.823 12.075c.825-3.45 1.875-6.675 2.94-9.9l-21.974-16.11zm3.87 82.736a123 123 0 0 1-7.32-28.708L86.89 191.42zm8.67 54.478 17.82 5.745-17.82 5.745-98.786 31.693 103.766-.405 18.749-.06-15.164 10.965-84.312 60.688 98.666-32.46 17.744-5.849-11.01 15.06-12.659 17.339 6.63 3.57c6.675 3.165 10.545 8.324 12.944 12.9l15.465-11.37 15.12-11.085-5.866 17.76-11.654 35.443q5.88 10.29 13.41 15.644l26.488-36.673 10.905-15.18-.06 18.75-.12 40.318q9.57-.69 21.089-3.045l10.38-32.354L300 419.517l5.73 17.864 7.62 23.85a112.5 112.5 0 0 0 23.729-12.36l-.06-16.41-.06-18.749 10.904 15.18 3.99 5.505c4.155-6.09 6.21-12.705 6.21-19.62 0-8.624 0-34.933-54.313-60.417-5.1-2.34-10.44-4.74-16.994-7.725-40.663-18.404-92.291-41.728-120.52-83.667l-102.431-.36Zm288.918 22.5c3.75 5.624 7.155 12.254 10.425 20.398l74.247.285-90.762-29.173q3.09 4.124 6.09 8.49m21.614 73.421q.03 2.61-.225 5.16l40.199 13.245-40.559-29.19q.6 5.61.585 10.785m-18.629 68.263 14.594 10.664-11.594-15.884a165 165 0 0 1-3 5.22" style="fill:url(#b);stroke-width:14.9994"/></svg>