<?xml version="1.0" encoding="UTF-8"?>
<svg id="Layer_2" data-name="Layer 2" xmlns="http://www.w3.org/2000/svg" xmlns:xlink="http://www.w3.org/1999/xlink" viewBox="0 0 1072.03 358.82">
  <defs>
    <style>
      .cls-1 {
        fill: url(#linear-gradient);
      }

      .cls-1, .cls-2 {
        stroke-width: 0px;
      }
    </style>
    <linearGradient id="linear-gradient" x1="822.5" y1="-143.38" x2="172.37" y2="506.74" gradientTransform="translate(0 360) scale(1 -1)" gradientUnits="userSpaceOnUse">
      <stop offset="0" stop-color="#626e77"/>
      <stop offset=".5" stop-color="#c7e1f1"/>
      <stop offset="1" stop-color="#626e77"/>
    </linearGradient>
  </defs>
  <g id="Layer_2-2" data-name="Layer 2">
    <g id="Layer_1-2" data-name="Layer 1-2">
      <g>
        <path class="cls-1" d="M909.64,347.85c-39.14,0-70.74-9.81-94.21-29.19v25.59h-103.38l-3.29-4.54c-9.22-12.71-19.23-30.86-30.61-55.48l-17.6-38.59c-6.06-13.16-9.97-19.3-12.18-22.13-2.6-3.33-5.18-5.63-7.48-6.67-1.15-.52-4.79-1.73-13.83-1.73h-2.07v61.57c0,13.6.81,19.1,1.29,21.16.53,2.29,1.43,3.97,2.73,5.14.42.38,2.97,2.38,12.08,4.74l8.24,2.14v34.39h-140.32v-34.3l8.13-2.2c5.89-1.59,9.16-3.01,10.87-3.92,1.25-.67,2.06-1.45,2.61-2.53.64-1.25,1.49-3.61,1.88-7.75.42-4.36.63-10.04.63-16.87V82.4c0-6.75-.18-12.45-.53-16.95-.32-4.1-1.1-6.32-1.7-7.47-.38-.73-1.11-1.83-3-2.93-1.96-1.14-4.31-2.01-6.82-2.8-2.14.72-4.36,1.65-6.72,2.81-1.2.69-2.01,1.52-2.63,2.67-.65,1.22-1.51,3.52-1.9,7.56-.42,4.36-.63,10.04-.63,16.88v140.86c0,19.41-1.62,36-4.81,49.33-3.34,13.93-8.66,25.91-15.82,35.63-7.22,9.79-16.31,17.8-27.03,23.81-10.38,5.81-22.14,10.01-34.96,12.47-12.35,2.37-26.32,3.58-41.52,3.58-22.31,0-41.58-2.39-57.26-7.12-16.35-4.92-29.95-12.55-40.43-22.69-10.45-10.11-18.27-22.51-23.25-36.87-2.49-7.16-4.34-15.37-5.55-24.57l-4.56,87.63H11.01v-34.3l8.13-2.2c5.89-1.59,9.16-3.01,10.87-3.92,1.25-.67,2.06-1.45,2.61-2.53.64-1.25,1.49-3.62,1.88-7.75.42-4.36.63-10.04.63-16.88V82.4c0-6.75-.18-12.45-.53-16.95-.32-4.1-1.1-6.32-1.7-7.46-.39-.73-1.11-1.83-3-2.93-1.62-.94-4.79-2.39-10.68-3.94l-8.2-2.16V14.61h362.05v34.31l-8.15,2.19c-6.6,1.77-9.44,3.22-10.55,3.93-1.38.89-2.36,1.86-2.97,2.96-.57,1.03-1.36,3.04-1.88,6.75-.53,3.84-.8,9.78-.8,17.65v148.75c0,11.26.71,21.61,2.13,30.78,1.29,8.39,3.62,15.57,6.91,21.36,2.96,5.19,6.94,9.06,12.17,11.85,5.42,2.88,12.86,4.35,22.1,4.35,12.65,0,21.82-2.27,27.28-6.75,5.77-4.73,9.79-11.36,12.27-20.26,2.8-10.03,4.22-25.68,4.22-46.51V82.18c0-13.66-.76-19.14-1.21-21.18-.5-2.26-1.34-3.92-2.57-5.09-.09-.09-2.39-2.19-12.01-4.81l-8.11-2.21V14.61h239.49c18.37,0,34.3,1.32,47.34,3.93,13.44,2.69,25.45,6.9,35.7,12.52,8.92,4.8,16.66,11.02,22.94,18.43,6.27,7.4,11.15,16.09,14.51,25.83,3.14,9.09,4.81,19.59,4.98,31.23,1.81-5.44,3.84-10.67,6.09-15.69,11.64-25.95,29.08-46.01,51.84-59.6,22.52-13.44,49.51-20.26,80.24-20.26,48.03,0,84.86,14.27,109.47,42.41,24.24,27.71,36.53,68.78,36.53,122.07,0,29.43-3.56,55.19-10.58,76.57-7.16,21.81-17.58,40.07-30.96,54.26-13.47,14.28-29.81,24.94-48.58,31.66-18.32,6.56-38.94,9.88-61.29,9.88h.02ZM723.73,194.27c5.16,3.63,9.81,7.73,13.91,12.25,7.98,8.8,15.21,19.97,21.5,33.21l14.25,30.75c5.81,12.6,11.52,22,16.97,27.97,3.77,4.14,7.97,6.88,12.76,8.33-.45-.5-.89-1.01-1.33-1.53-23.82-27.77-35.89-69.23-35.89-123.23,0-10.21.48-20.03,1.44-29.46-5.82,11.38-13.67,21.03-23.33,28.72-5.65,4.5-12.44,8.84-20.27,12.99h0ZM913.02,59.37c-17.7,0-30.01,8.01-38.77,25.2-9.75,19.15-14.69,49.89-14.69,91.36s5.12,75.92,15.21,96.46c9.09,18.49,21.81,27.09,40.05,27.09,9.16,0,16.63-2.31,22.82-7.07,6.62-5.09,12.13-12.47,16.39-21.93,4.58-10.2,7.94-22.58,9.96-36.82,2.1-14.75,3.16-31.21,3.16-48.94,0-28.91-2.29-53.36-6.81-72.65-4.27-18.23-10.58-31.96-18.77-40.78-7.43-8.02-16.77-11.92-28.56-11.92h.01ZM164.9,295.88c4.56,0,8.35-.28,11.27-.83,2.36-.44,4.45-1.18,6.21-2.2,1.88-1.09,3.78-2.67,5.64-4.69,2.14-2.32,4.06-4.86,5.7-7.54,1.72-2.8,3.62-6.69,5.64-11.55,2.08-4.99,4.44-12.09,7.01-21.1l2.28-7.98h48.45c-.18-3.79-.26-7.72-.26-11.76V82.4c0-4.79-.09-9.05-.27-12.73v38.61h-49.7l-2.57-7.39c-5.75-16.54-9.32-23.46-11.3-26.34-2.59-3.77-5.55-6.65-9.05-8.78-1.07-.65-5.6-2.79-18.84-2.79h-38.13v86.18h18.75c6.37,0,9.4-1.04,10.63-1.66,1.78-.89,3.32-2.51,4.71-4.95,1.35-2.38,3.49-7.34,5.98-17.47l2.06-8.37h45.09v113.5h-45.13l-2.03-8.42c-2.32-9.6-4.49-14.63-5.9-17.17-1.53-2.74-3.16-4.6-4.85-5.54-.66-.36-3.37-1.55-10.56-1.55h-18.75v98.35h37.92ZM636.3,166.74c10.52,0,19.11-1.35,25.55-4.01,6.11-2.53,10.75-5.86,14.18-10.19,3.57-4.5,5.97-9.72,7.35-15.94,1.55-7,2.33-14.84,2.33-23.32,0-17.44-3.85-30.38-11.43-38.44-7.51-7.98-18.9-11.87-34.81-11.87-6.14,0-10.85.04-14.47.09v103.67h11.31-.01Z"/>
        <path class="cls-2" d="M915.04,22c44.93,0,78.66,12.88,101.19,38.65,22.54,25.77,33.81,64.04,33.81,114.83,0,28.4-3.34,52.78-10.03,73.13-6.69,20.36-16.19,37.08-28.51,50.15s-27.08,22.69-44.29,28.85c-17.2,6.16-36.4,9.24-57.58,9.24-44.17,0-77.34-12.92-99.5-38.77-22.16-25.84-33.24-64.53-33.24-116.07,0-33.81,5.37-62.69,16.11-86.66s26.56-42.18,47.44-54.65c20.89-12.47,45.75-18.71,74.6-18.71M914.82,310.48c11.57,0,21.41-3.12,29.52-9.35,8.11-6.24,14.69-14.95,19.72-26.14,5.03-11.19,8.64-24.45,10.82-39.78s3.27-32.15,3.27-50.48c0-29.9-2.37-54.95-7.1-75.16-4.73-20.21-11.87-35.46-21.41-45.75s-21.75-15.44-36.62-15.44c-21.79,0-37.98,10.4-48.57,31.21-10.59,20.81-15.89,52.93-15.89,96.35s5.45,79.15,16.34,101.31,27.53,33.24,49.92,33.24M651.4,25.61c17.73,0,32.79,1.24,45.19,3.72s23.25,6.27,32.57,11.38c7.81,4.21,14.42,9.5,19.83,15.89,5.41,6.39,9.58,13.82,12.51,22.31s4.39,18.37,4.39,29.64c0,14.73-2.59,27.35-7.78,37.86s-12.17,19.27-20.96,26.26c-8.79,6.99-20.55,13.56-35.27,19.72v2.25c11.12,4.81,20.32,11.23,27.61,19.27,7.29,8.04,13.86,18.22,19.72,30.54l14.2,30.65c6.31,13.67,12.58,23.93,18.82,30.76,6.23,6.84,13.63,11.01,22.2,12.51v14.88h-86.77c-8.71-12.02-18.56-29.9-29.53-53.64l-17.58-38.54c-5.26-11.42-9.77-19.53-13.52-24.34-3.76-4.81-7.62-8.11-11.61-9.92-3.98-1.8-10.1-2.71-18.37-2.71h-13.07v72.57c0,11.27.53,19.16,1.58,23.66,1.05,4.51,3.08,8.11,6.08,10.82,3,2.71,8.56,5.11,16.68,7.21v14.88h-118.32v-14.88c5.56-1.5,9.95-3.12,13.18-4.84,3.23-1.73,5.63-4.13,7.21-7.21s2.59-6.99,3.04-11.72c.45-4.73.68-10.71.68-17.92V82.4c0-7.06-.19-13-.56-17.81s-1.35-8.71-2.93-11.72c-1.58-3-3.98-5.45-7.21-7.32-3.84-2.23-8.11-3.55-12.35-4.77-4.1,1.08-8.03,2.67-11.83,4.54-3.15,1.73-5.56,4.13-7.21,7.21s-2.7,6.99-3.15,11.72c-.45,4.73-.68,10.71-.68,17.92v140.86c0,18.63-1.5,34.22-4.51,46.77s-7.66,23.1-13.97,31.67c-6.31,8.56-14.16,15.48-23.55,20.73-9.39,5.26-19.95,9.02-31.67,11.27s-24.87,3.38-39.44,3.38c-21.34,0-39.37-2.22-54.09-6.65-14.73-4.43-26.71-11.12-35.95-20.06-9.24-8.94-16.08-19.8-20.51-32.57-4.43-12.77-6.65-29.22-6.65-49.36V82.4c0-7.06-.19-13-.56-17.81-.37-4.81-1.35-8.71-2.93-11.72-1.58-3-3.98-5.45-7.21-7.32-3.6-2.08-7.58-3.4-11.56-4.54v56.26h-30.88c-4.96-14.27-9.17-23.93-12.62-28.96-3.46-5.03-7.59-9.02-12.4-11.95s-13-4.39-24.57-4.39h-49.13v108.18h29.75c6.61,0,11.8-.94,15.55-2.82,3.76-1.88,6.87-5,9.35-9.35,2.48-4.36,4.85-11.12,7.1-20.28h25.47v91.5h-25.47c-2.1-8.71-4.43-15.36-6.99-19.94-2.55-4.58-5.6-7.85-9.13-9.8s-8.83-2.93-15.89-2.93h-29.75v120.35h48.91c5.26,0,9.69-.34,13.3-1.01,3.61-.68,6.84-1.84,9.69-3.49s5.6-3.91,8.23-6.76c2.63-2.85,4.96-5.93,6.99-9.24s4.17-7.66,6.42-13.07,4.73-12.85,7.44-22.31h30.88l-4.28,82.26H22.01v-14.88c5.56-1.5,9.96-3.12,13.19-4.84s5.63-4.13,7.21-7.21c1.58-3.08,2.59-6.99,3.04-11.72s.68-10.71.68-17.92V82.4c0-7.06-.19-13-.56-17.81-.38-4.81-1.35-8.71-2.93-11.72-1.58-3-3.98-5.45-7.21-7.32-3.23-1.88-7.7-3.57-13.41-5.07v-14.88h340.05v14.88c-6.16,1.65-10.71,3.42-13.64,5.3-2.93,1.88-5.15,4.17-6.65,6.87-1.5,2.7-2.55,6.23-3.16,10.59-.6,4.36-.9,10.74-.9,19.16v148.75c0,11.87.75,22.69,2.25,32.45,1.5,9.77,4.24,18.14,8.23,25.13,3.98,6.99,9.5,12.36,16.57,16.11,7.06,3.76,16.15,5.63,27.27,5.63,15.33,0,26.75-3.08,34.26-9.24s12.81-14.76,15.89-25.81c3.08-11.04,4.62-27.53,4.62-49.47V82.18c0-11.27-.49-19.12-1.47-23.55-.98-4.43-2.89-8-5.75-10.71-2.85-2.7-8.41-5.18-16.68-7.44v-14.88h228.49M613.99,177.74h22.31c12.02,0,21.94-1.62,29.75-4.85,7.81-3.23,14.01-7.74,18.59-13.52,4.58-5.79,7.74-12.58,9.47-20.4,1.73-7.81,2.59-16.38,2.59-25.69,0-20.43-4.81-35.76-14.42-45.98-9.62-10.22-23.89-15.33-42.82-15.33-12.92,0-21.41.15-25.47.45v125.31M915.04,0c-32.74,0-61.63,7.34-85.88,21.82-19.61,11.71-35.56,27.77-47.59,47.9-3.78-10.23-9.09-19.42-15.8-27.34-7.15-8.44-15.94-15.51-26.12-21-11.22-6.14-24.25-10.72-38.75-13.62-13.76-2.75-30.41-4.15-49.5-4.15h-250.49v53.68l16.21,4.42c3.46.94,5.6,1.73,6.84,2.26.27,1.66.84,6.53.84,18.21v143.79c0,24.71-2.07,37.33-3.81,43.56-1.85,6.64-4.68,11.45-8.65,14.71-1.56,1.28-6.66,4.25-20.31,4.25-9.25,0-14.32-1.66-16.94-3.06-3.39-1.8-5.86-4.21-7.78-7.59-2.63-4.61-4.51-10.52-5.59-17.58-1.33-8.62-2-18.41-2-29.11V82.4c0-9.18.38-13.85.7-16.15.14-.99.29-1.71.41-2.21.91-.42,2.98-1.25,6.93-2.31l16.3-4.37V3.61H.01v53.84l16.41,4.31c3.63.95,5.77,1.78,6.93,2.3.1.53.21,1.27.28,2.25.33,4.22.5,9.64.5,16.09v194.27c0,6.48-.19,11.81-.58,15.83-.1,1-.22,1.78-.34,2.36-1.37.56-3.57,1.35-6.94,2.26l-16.27,4.39v53.72h264.43l1.09-20.86,1.23-23.71c3.8,5.5,8.13,10.6,12.95,15.27,11.74,11.36,26.85,19.88,44.9,25.31,16.71,5.03,37.05,7.58,60.43,7.58,15.9,0,30.57-1.27,43.59-3.78,13.98-2.69,26.86-7.29,38.26-13.68,12.1-6.77,22.36-15.82,30.51-26.88.2-.27.39-.54.59-.81v41.53h162.32v-53.9l-16.48-4.27c-3.6-.93-5.76-1.73-6.96-2.24-.28-1.55-.9-6.34-.9-18.16v-49.89c.18.04.32.08.42.1.35.23,1.5,1.09,3.29,3.38,1.52,1.94,4.94,7.11,10.87,19.97l17.56,38.5.02.05.02.05c11.68,25.27,22.04,44.02,31.69,57.33l6.59,9.09h119.99v-15.72c22.74,12.84,50.57,19.32,83.21,19.32,23.62,0,45.49-3.54,65-10.53,20.42-7.31,38.21-18.91,52.88-34.47,14.5-15.38,25.73-35.02,33.4-58.37,7.38-22.48,11.13-49.4,11.13-80,0-27.38-3.15-51.94-9.35-73.01-6.51-22.12-16.57-41.07-29.9-56.3C1006,15.53,966.39,0,915.04,0h0ZM521.1,64.05s.08-.03.12-.05c.04.02.08.04.12.05.1.54.21,1.28.28,2.26.33,4.22.5,9.63.5,16.09v194.27c0,6.48-.19,11.81-.58,15.83-.1,1-.22,1.78-.34,2.36-1.37.56-3.57,1.35-6.94,2.26l-7.69,2.08c3.55-7.38,6.39-15.5,8.5-24.28,3.44-14.36,5.11-31.34,5.11-51.89V82.18c0-6.49.19-11.81.58-15.83.09-1,.22-1.75.34-2.29h0ZM914.82,288.48c-9.83,0-21.1-2.49-30.18-20.95-9.35-19.01-14.08-49.83-14.08-91.6,0-49.47,7.34-74.27,13.5-86.37,6.85-13.45,15.51-19.19,28.96-19.19,8.79,0,15.11,2.59,20.49,8.39,6.87,7.41,12.29,19.46,16.12,35.81,4.33,18.47,6.52,42.07,6.52,70.15,0,17.21-1.03,33.16-3.05,47.39-1.88,13.21-4.94,24.6-9.1,33.85-3.5,7.79-7.9,13.75-13.06,17.72-4.26,3.27-9.38,4.79-16.12,4.79h0ZM635.99,73.98h3.47c12.54,0,21.55,2.83,26.8,8.41,5.6,5.95,8.44,16.35,8.44,30.9,0,7.68-.7,14.72-2.07,20.94-1.01,4.56-2.72,8.32-5.23,11.49-2.23,2.82-5.43,5.06-9.76,6.85-3.5,1.45-10.05,3.18-21.34,3.18h-.31v-81.76h0ZM137.99,73.98h27.13c9.17,0,12.68,1.09,13.39,1.35,2.03,1.29,3.81,3.08,5.44,5.44.82,1.2,3.97,6.45,9.98,23.73l.42,1.21h-33.85l-4.12,16.75c-2.46,10-4.34,13.74-4.86,14.65-.15.26-.27.46-.38.6-.77.17-2.46.45-5.41.45h-7.75v-64.18h.01ZM225.21,119.28h20.64v109.7h-20.64v-109.71h0ZM742.66,195.84c2.9-1.94,5.63-3.92,8.19-5.96,1.39-1.11,2.75-2.25,4.07-3.42.11,8.98.55,17.65,1.32,25.97-3.32-4.85-6.8-9.29-10.44-13.3-1.02-1.12-2.06-2.22-3.14-3.29h0ZM137.99,208.53h7.75c2.6,0,4.22.19,5.11.34.18.26.42.62.69,1.11.71,1.28,2.61,5.24,4.81,14.39l4.06,16.84h36.45l-1.07,3.74c-2.46,8.6-4.67,15.29-6.59,19.89-2.25,5.4-3.89,8.43-4.87,10.03-1.28,2.08-2.76,4.04-4.42,5.84-1.39,1.51-2.44,2.26-3.07,2.63-.67.39-1.59.7-2.72.91-1.55.29-4.41.64-9.24.64h-26.91v-76.35h.02Z"/>
      </g>
    </g>
  </g>
</svg>