<?xml version="1.0" encoding="UTF-8"?>
<svg id="Layer_2" data-name="Layer 2" xmlns="http://www.w3.org/2000/svg" viewBox="0 0 1028.03 314.86">
  <defs>
    <style>
      .cls-1 {
        stroke-width: 0px;
      }
    </style>
  </defs>
  <g id="Layer_2-2" data-name="Layer 2">
    <g>
      <path class="cls-1" d="M989.49,276.77c12.32-13.07,21.82-29.79,28.51-50.15,6.69-20.35,10.03-44.73,10.03-73.13,0-50.79-11.27-89.06-33.81-114.83C971.69,12.89,937.96,0,893.03,0h0c-28.85,0-53.71,6.23-74.6,18.7-20.88,12.47-36.7,30.68-47.44,54.65-10.74,23.97-16.11,52.85-16.11,86.66,0,51.54,11.08,90.23,33.24,116.07,22.16,25.85,55.33,38.77,99.5,38.77,21.18,0,40.38-3.08,57.58-9.24,17.21-6.16,31.97-15.78,44.29-28.85ZM952.87,213.22c-2.18,15.33-5.79,28.59-10.82,39.78-5.03,11.19-11.61,19.9-19.72,26.14-8.11,6.23-17.95,9.35-29.52,9.35h0c-22.39,0-39.03-11.07-49.92-33.23-10.89-22.16-16.34-57.89-16.34-101.31s5.3-75.54,15.89-96.35,26.78-31.21,48.57-31.21c14.87,0,27.08,5.15,36.62,15.44,9.54,10.29,16.68,25.54,21.41,45.75,4.73,20.21,7.1,45.26,7.1,75.16,0,18.33-1.09,35.15-3.27,50.48Z"/>
      <path class="cls-1" d="M666.12,257.62c10.97,23.74,20.82,41.62,29.53,53.64h86.77v-14.88c-8.57-1.5-15.97-5.67-22.2-12.51-6.24-6.83-12.51-17.09-18.82-30.76l-14.2-30.65c-5.86-12.32-12.43-22.5-19.72-30.54-7.29-8.04-16.49-14.46-27.61-19.27v-2.25c14.72-6.16,26.48-12.73,35.27-19.72,8.79-6.99,15.77-15.75,20.96-26.26s7.78-23.13,7.78-37.86c0-11.27-1.46-21.15-4.39-29.64s-7.1-15.92-12.51-22.31c-5.41-6.39-12.02-11.68-19.83-15.89-9.32-5.11-20.17-8.9-32.57-11.38-12.4-2.48-27.46-3.72-45.19-3.72h0s-228.49-.01-228.49-.01v14.88c8.27,2.26,13.83,4.74,16.68,7.44,2.86,2.71,4.77,6.28,5.75,10.71.98,4.43,1.47,12.28,1.47,23.55v143.77c0,21.94-1.54,38.43-4.62,49.47-3.08,11.05-8.38,19.65-15.89,25.81-7.51,6.16-18.93,9.24-34.26,9.24-11.12,0-20.21-1.87-27.27-5.63-7.07-3.75-12.59-9.12-16.57-16.11-3.99-6.99-6.73-15.36-8.23-25.13-1.5-9.76-2.25-20.58-2.25-32.45V60.41c0-8.42.3-14.8.9-19.16.61-4.36,1.66-7.89,3.16-10.59s3.72-4.99,6.65-6.87c2.93-1.88,7.48-3.65,13.64-5.3V3.61H.01v14.88c5.71,1.5,10.18,3.19,13.41,5.07,3.23,1.87,5.63,4.32,7.21,7.32,1.58,3.01,2.55,6.91,2.93,11.72.37,4.81.56,10.75.56,17.81v194.29c0,7.21-.23,13.19-.68,17.92-.45,4.73-1.46,8.64-3.04,11.72-1.58,3.08-3.98,5.49-7.21,7.21-3.23,1.72-7.63,3.34-13.19,4.84v14.88h221.55l4.28-82.26h-30.88c-2.71,9.46-5.19,16.9-7.44,22.31-2.25,5.41-4.39,9.76-6.42,13.07-2.03,3.31-4.36,6.39-6.99,9.24-2.63,2.85-5.38,5.11-8.23,6.76-2.85,1.65-6.08,2.81-9.69,3.49-3.61.67-8.04,1.01-13.3,1.01h-48.91v-120.35h29.75c7.06,0,12.36.98,15.89,2.93,3.53,1.95,6.58,5.22,9.13,9.8,2.56,4.58,4.89,11.23,6.99,19.94h25.47v-91.5h-25.47c-2.25,9.16-4.62,15.92-7.1,20.28-2.48,4.35-5.59,7.47-9.35,9.35-3.75,1.88-8.94,2.82-15.55,2.82h-29.75V29.98h49.13c11.57,0,19.76,1.46,24.57,4.39s8.94,6.92,12.4,11.95c3.45,5.03,7.66,14.69,12.62,28.96h30.88V19.02c3.98,1.14,7.96,2.46,11.56,4.54,3.23,1.87,5.63,4.32,7.21,7.32,1.58,3.01,2.56,6.91,2.93,11.72s.56,10.75.56,17.81v145.81c0,20.14,2.22,36.59,6.65,49.36,4.43,12.77,11.27,23.63,20.51,32.57,9.24,8.94,21.22,15.63,35.95,20.06,14.72,4.43,32.75,6.65,54.09,6.65,14.57,0,27.72-1.13,39.44-3.38,11.72-2.25,22.28-6.01,31.67-11.27,9.39-5.25,17.24-12.17,23.55-20.73,6.31-8.57,10.96-19.12,13.97-31.67s4.51-28.14,4.51-46.77V60.18c0-7.21.23-13.19.68-17.92.45-4.73,1.5-8.64,3.15-11.72,1.65-3.08,4.06-5.48,7.21-7.21,3.8-1.87,7.73-3.46,11.83-4.54,4.24,1.22,8.51,2.54,12.35,4.77,3.23,1.87,5.63,4.32,7.21,7.32,1.58,3.01,2.56,6.91,2.93,11.72s.56,10.75.56,17.81v194.27c0,7.21-.23,13.19-.68,17.92-.45,4.73-1.46,8.64-3.04,11.72-1.58,3.08-3.98,5.48-7.21,7.21-3.23,1.72-7.62,3.34-13.18,4.84v14.88h118.32v-14.88c-8.12-2.1-13.68-4.5-16.68-7.21-3-2.71-5.03-6.31-6.08-10.82-1.05-4.5-1.58-12.39-1.58-23.66v-72.57h13.07c8.27,0,14.39.91,18.37,2.71,3.99,1.81,7.85,5.11,11.61,9.92,3.75,4.81,8.26,12.92,13.52,24.34l17.58,38.54ZM614.29,155.75h-22.31,0V30.43c4.06-.3,12.55-.45,25.47-.45,18.93,0,33.2,5.11,42.82,15.33,9.61,10.22,14.42,25.55,14.42,45.98,0,9.31-.86,17.88-2.59,25.69-1.73,7.82-4.89,14.61-9.47,20.4-4.58,5.78-10.78,10.29-18.59,13.52-7.81,3.23-17.73,4.85-29.75,4.85Z"/>
    </g>
  </g>
</svg>