<?xml version="1.0" encoding="UTF-8" standalone="no"?>
<svg
   id="Layer_2"
   data-name="Layer 2"
   viewBox="0 0 1028.03 314.86"
   version="1.1"
   width="1028.03"
   height="314.85999"
   xmlns="http://www.w3.org/2000/svg"
   xmlns:svg="http://www.w3.org/2000/svg">
  <defs
     id="defs1">
    <style
       id="style1">
      .cls-1 {
        stroke-width: 0px;
      }
    </style>
  </defs>
  <g
     id="Layer_2-2"
     data-name="Layer 2">
    <g
       id="g2">
      <path
         class="cls-1"
         d="m 989.49,276.77 c 12.32,-13.07 21.82,-29.79 28.51,-50.15 6.69,-20.35 10.03,-44.73 10.03,-73.13 0,-50.79 -11.27,-89.06 -33.81,-114.83 C 971.69,12.89 937.96,0 893.03,0 v 0 c -28.85,0 -53.71,6.23 -74.6,18.7 -20.88,12.47 -36.7,30.68 -47.44,54.65 -10.74,23.97 -16.11,52.85 -16.11,86.66 0,51.54 11.08,90.23 33.24,116.07 22.16,25.85 55.33,38.77 99.5,38.77 21.18,0 40.38,-3.08 57.58,-9.24 17.21,-6.16 31.97,-15.78 44.29,-28.85 z m -36.62,-63.55 c -2.18,15.33 -5.79,28.59 -10.82,39.78 -5.03,11.19 -11.61,19.9 -19.72,26.14 -8.11,6.23 -17.95,9.35 -29.52,9.35 v 0 c -22.39,0 -39.03,-11.07 -49.92,-33.23 C 832,233.1 826.55,197.37 826.55,153.95 c 0,-43.42 5.3,-75.54 15.89,-96.35 10.59,-20.81 26.78,-31.21 48.57,-31.21 14.87,0 27.08,5.15 36.62,15.44 9.54,10.29 16.68,25.54 21.41,45.75 4.73,20.21 7.1,45.26 7.1,75.16 0,18.33 -1.09,35.15 -3.27,50.48 z"
         id="path1" />
      <path
         class="cls-1"
         d="m 666.12,257.62 c 10.97,23.74 20.82,41.62 29.53,53.64 h 86.77 v -14.88 c -8.57,-1.5 -15.97,-5.67 -22.2,-12.51 -6.24,-6.83 -12.51,-17.09 -18.82,-30.76 l -14.2,-30.65 c -5.86,-12.32 -12.43,-22.5 -19.72,-30.54 -7.29,-8.04 -16.49,-14.46 -27.61,-19.27 v -2.25 c 14.72,-6.16 26.48,-12.73 35.27,-19.72 8.79,-6.99 15.77,-15.75 20.96,-26.26 5.19,-10.51 7.78,-23.13 7.78,-37.86 0,-11.27 -1.46,-21.15 -4.39,-29.64 C 736.56,48.43 732.39,41 726.98,34.61 721.57,28.22 714.96,22.93 707.15,18.72 697.83,13.61 686.98,9.82 674.58,7.34 662.18,4.86 647.12,3.62 629.39,3.62 v 0 c 0,0 -228.49,-0.01 -228.49,-0.01 v 14.88 c 8.27,2.26 13.83,4.74 16.68,7.44 2.86,2.71 4.77,6.28 5.75,10.71 0.98,4.43 1.47,12.28 1.47,23.55 v 143.77 c 0,21.94 -1.54,38.43 -4.62,49.47 -3.08,11.05 -8.38,19.65 -15.89,25.81 -7.51,6.16 -18.93,9.24 -34.26,9.24 -11.12,0 -20.21,-1.87 -27.27,-5.63 -7.07,-3.75 -12.59,-9.12 -16.57,-16.11 -3.99,-6.99 -6.73,-15.36 -8.23,-25.13 -1.5,-9.76 -2.25,-20.58 -2.25,-32.45 V 60.41 c 0,-8.42 0.3,-14.8 0.9,-19.16 0.61,-4.36 1.66,-7.89 3.16,-10.59 1.5,-2.7 3.72,-4.99 6.65,-6.87 2.93,-1.88 7.48,-3.65 13.64,-5.3 V 3.61 H 0.01 v 14.88 c 5.71,1.5 10.18,3.19 13.41,5.07 3.23,1.87 5.63,4.32 7.21,7.32 1.58,3.01 2.55,6.91 2.93,11.72 0.37,4.81 0.56,10.75 0.56,17.81 V 254.7 c 0,7.21 -0.23,13.19 -0.68,17.92 -0.45,4.73 -1.46,8.64 -3.04,11.72 -1.58,3.08 -3.98,5.49 -7.21,7.21 -3.23,1.72 -7.63,3.34 -13.19,4.84 v 14.88 h 221.55 l 4.28,-82.26 h -30.88 c -2.71,9.46 -5.19,16.9 -7.44,22.31 -2.25,5.41 -4.39,9.76 -6.42,13.07 -2.03,3.31 -4.36,6.39 -6.99,9.24 -2.63,2.85 -5.38,5.11 -8.23,6.76 -2.85,1.65 -6.08,2.81 -9.69,3.49 -3.61,0.67 -8.04,1.01 -13.3,1.01 H 93.97 V 164.54 h 29.75 c 7.06,0 12.36,0.98 15.89,2.93 3.53,1.95 6.58,5.22 9.13,9.8 2.56,4.58 4.89,11.23 6.99,19.94 h 25.47 v -91.5 h -25.47 c -2.25,9.16 -4.62,15.92 -7.1,20.28 -2.48,4.35 -5.59,7.47 -9.35,9.35 -3.75,1.88 -8.94,2.82 -15.55,2.82 H 93.98 V 29.98 h 49.13 c 11.57,0 19.76,1.46 24.57,4.39 4.81,2.93 8.94,6.92 12.4,11.95 3.45,5.03 7.66,14.69 12.62,28.96 h 30.88 V 19.02 c 3.98,1.14 7.96,2.46 11.56,4.54 3.23,1.87 5.63,4.32 7.21,7.32 1.58,3.01 2.56,6.91 2.93,11.72 0.37,4.81 0.56,10.75 0.56,17.81 v 145.81 c 0,20.14 2.22,36.59 6.65,49.36 4.43,12.77 11.27,23.63 20.51,32.57 9.24,8.94 21.22,15.63 35.95,20.06 14.72,4.43 32.75,6.65 54.09,6.65 14.57,0 27.72,-1.13 39.44,-3.38 11.72,-2.25 22.28,-6.01 31.67,-11.27 9.39,-5.25 17.24,-12.17 23.55,-20.73 6.31,-8.57 10.96,-19.12 13.97,-31.67 3.01,-12.55 4.51,-28.14 4.51,-46.77 V 60.18 c 0,-7.21 0.23,-13.19 0.68,-17.92 0.45,-4.73 1.5,-8.64 3.15,-11.72 1.65,-3.08 4.06,-5.48 7.21,-7.21 3.8,-1.87 7.73,-3.46 11.83,-4.54 4.24,1.22 8.51,2.54 12.35,4.77 3.23,1.87 5.63,4.32 7.21,7.32 1.58,3.01 2.56,6.91 2.93,11.72 0.37,4.81 0.56,10.75 0.56,17.81 v 194.27 c 0,7.21 -0.23,13.19 -0.68,17.92 -0.45,4.73 -1.46,8.64 -3.04,11.72 -1.58,3.08 -3.98,5.48 -7.21,7.21 -3.23,1.72 -7.62,3.34 -13.18,4.84 v 14.88 h 118.32 v -14.88 c -8.12,-2.1 -13.68,-4.5 -16.68,-7.21 -3,-2.71 -5.03,-6.31 -6.08,-10.82 -1.05,-4.5 -1.58,-12.39 -1.58,-23.66 v -72.57 h 13.07 c 8.27,0 14.39,0.91 18.37,2.71 3.99,1.81 7.85,5.11 11.61,9.92 3.75,4.81 8.26,12.92 13.52,24.34 z M 614.29,155.75 h -22.31 v 0 -125.32 c 4.06,-0.3 12.55,-0.45 25.47,-0.45 18.93,0 33.2,5.11 42.82,15.33 9.61,10.22 14.42,25.55 14.42,45.98 0,9.31 -0.86,17.88 -2.59,25.69 -1.73,7.82 -4.89,14.61 -9.47,20.4 -4.58,5.78 -10.78,10.29 -18.59,13.52 -7.81,3.23 -17.73,4.85 -29.75,4.85 z"
         id="path2" />
    </g>
  </g>
</svg>
