<?xml version="1.0" encoding="UTF-8" standalone="no"?>
<!-- Generator: Adobe Illustrator 15.1.0, SVG Export Plug-In . SVG Version: 6.00 Build 0)  -->

<svg
   version="1.1"
   id="Layer_1"
   x="0px"
   y="0px"
   width="369.48062"
   height="304.12"
   viewBox="0 0 369.48062 304.12"
   enable-background="new 0 0 400 350"
   xml:space="preserve"
   xmlns="http://www.w3.org/2000/svg"
   xmlns:svg="http://www.w3.org/2000/svg"><defs
   id="defs2" />
<g
   id="Layer_1_1_"
   transform="translate(-15.205831,-22.575)">
</g>
<path
   fill="#ffffff"
   d="m 172.39817,175.844 c -7.056,3.372 -20.575,10.173 -29.637,22.861 -18.099,25.369 -21.249,48.542 -22.869,58.394 -3.939,23.963 -9.202,47.021 -25.118001,47.021 h -79.783 c -5.9740002,0 -11.3690002,-3.545 -13.7410002,-9.029 -2.376,-5.378 -1.31499997,-11.743 2.755,-16.135 37.5770002,-40.771 46.9510002,-79.979 47.0420002,-80.374 1.106,-4.836 1.883,-16.464 -10.859,-22.738 -4.835,-2.376 -8.001,-7.17 -7.594,-12.54 0.033,-0.478 3.532,-46.873 6.316,-72.978 0.687,-6.418 6.102,-11.291 12.561,-11.291 h 1.217 c 5.316,0 9.901,3.297 11.755,8.001 1.205,-12.364 1.459,-20.225 1.464,-20.394 0.206,-6.83 5.797,-12.261 12.627,-12.261 h 1.563 c 5.16,0 9.633,3.104 11.586,7.594 l 0.222,-4.35 c 0.761,-15.147 1.361,-27.108 14.382001,-27.108 0,0 4.84,-30.517 21.442,-30.517 h 109.781 c 5.009,0 9.654,2.488 12.435,6.653 2.697,3.894 3.313,9.095 1.521,13.737 l -2.516,6.447 c -0.502,1.34 -1.012,3.487 -1.012,4.313 0,4.634 0,7.985 2.097,12.894 1.99,4.716 26.29,59.813 45.813,104.079 l 5.781,13.084 c 14.703,33.329 27.383,62.094 29.464,66.888 5.781,13.281 15.723,31.307 26.249,42.03 l 7.845,7.993 c 4.293,4.407 5.477,10.838 3.051,16.43 -2.113,5.345 -7.565,9.046 -13.741,9.046 h -124.503 c -5.049,0 -9.736,-2.533 -12.524,-6.776 -2.895,-4.556 -3.215,-9.967 -0.979,-14.646 0,0 3.125,-6.652 3.133,-6.669 1.151,-2.541 4.367,-11.003 4.367,-17.417 0,-4.26 -1.176,-11.907 -6.801,-24.095 -0.781,-1.694 -20.994,-47.729 -27.244,-61.823 0,0 -9.835,-0.016 -17.548,3.676 z"
   id="path1" />
<path
   d="m 229.99417,290.963 c -0.789,0 -1.529,-0.411 -1.974,-1.086 -0.428,-0.674 -0.477,-1.546 -0.132,-2.27 l 3.142,-6.693 c 0.065,-0.115 5.592,-12.138 5.592,-22.828 0,-8.06 -2.681,-17.943 -7.96,-29.391 -3.372,-7.302 -72.201,-162.735 -75.523,-170.893 -3.717,-9.169 -12.187,-26.273 -19.062,-33.148 l -8.01,-8.001 c -0.674,-0.683 -0.872,-1.694 -0.51,-2.574 0.362,-0.872 1.217,-1.447 2.171,-1.447 h 109.781 c 0.773,0 1.497,0.387 1.925,1.028 0.444,0.641 0.526,1.455 0.246,2.179 l -2.499,6.406 c -0.017,0.041 -1.875,4.885 -1.875,8.906 0,5.197 0,10.567 3.108,17.853 2.121,5.016 28.14,64.006 49.044,111.406 l 2.614,5.904 c 14.688,33.288 27.352,62.021 29.424,66.806 3.026,6.941 14.045,30.805 28.831,45.854 l 7.845,7.993 c 0.658,0.675 0.855,1.678 0.477,2.55 -0.345,0.871 -1.2,1.447 -2.154,1.447 h -124.501 z m -215.003001,0.526 c -0.937,0 -1.776,-0.56 -2.146,-1.415 -0.378,-0.855 -0.214,-1.842 0.419,-2.532 40.442,-43.88 50.014,-85.753 50.104,-86.181 0.197,-0.855 0.855,-1.546 1.719,-1.76 0.181,-0.05 0.387,-0.082 0.584,-0.082 0.658,0 1.316,0.296 1.76,0.806 1.233,1.397 30.056,35.015 29.686,88.828 0,1.283 -1.052,2.336 -2.343,2.336 z M 106.28617,260.06 c 1.805,0 0.419,-32.581 26.196,-68.698 9.309,-13.025 22.812,-21.907 34.916,-27.12 0,0 -3.503,-46.363 -6.283,-72.575 h -1.233 c 0,0 -1.694,31.886 -9.013,58.365 0,0 -2.006,-0.74 -5.378,-1.776 -10.329,-42.646 -11.447,-81.243 -11.447,-81.243 h -1.563 c -2.451,41.968 -6.529,66.26 -8.487,76.062 -2.195,-0.378 -4.44,-0.708 -6.702,-0.97 -0.925,-4.885 -2.656,-14.736 -4.548,-28.914 -2.792,-20.937 -3.671,-35.619 -4.358,-48.521 -0.707,-12.911 -0.884,-21.521 -2.101,-21.521 -1.225,0 -1.394,8.61 -2.097,21.521 -0.699,12.902 -1.571,27.585 -4.367001,48.521 -1.887,14.177 -3.61,24.029 -4.543,28.914 -2.261,0.263 -4.498,0.592 -6.702,0.97 -1.958,-9.802 -6.024,-34.094 -8.482,-76.062 h -1.563 c 0,0 -1.123,38.596 -11.439,81.243 -3.372,1.036 -5.386,1.776 -5.386,1.776 -7.331,-26.479 -9.021,-58.365 -9.021,-58.365 h -1.217 c -2.796,26.212 -6.283,72.575 -6.283,72.575 12.101,5.213 25.604,14.095 34.908,27.12 25.782001,36.117 24.389001,68.698 26.193001,68.698 z"
   id="path2" />
</svg>
