<?xml version="1.0" encoding="UTF-8" standalone="no"?>
<svg
   version="1.1"
   width="600"
   height="650.58282"
   id="svg7"
   xmlns="http://www.w3.org/2000/svg"
   xmlns:svg="http://www.w3.org/2000/svg">
  <defs
     id="defs7" />
  <radialGradient
     cx="0"
     cy="0"
     r="1"
     fx="0"
     fy="0"
     id="radialGradient446"
     gradientUnits="userSpaceOnUse"
     gradientTransform="matrix(15.8638,0,0,-15.8638,482.99219,372.09277)"
     spreadMethod="pad">
    <stop
       style="stop-color:#ebd491"
       offset="0"
       id="stop1" />
    <stop
       style="stop-color:#d2bb7b"
       offset="0.7"
       id="stop2" />
    <stop
       style="stop-color:#8b723c"
       offset="1"
       id="stop3" />
  </radialGradient>
  <path
     d="M 542.0656,0 H 0 c 0,0 241.54513,533.49417 242.43969,535.5923 -9.0919,12.19843 -14.62185,26.93413 -14.62185,42.95473 0,19.24098 7.49796,37.34345 21.09514,50.94063 13.59719,13.59718 31.71592,21.09515 50.9569,21.09515 19.25725,0 37.35972,-7.49797 50.9569,-21.09515 13.59718,-13.59718 21.09515,-31.69965 21.09515,-50.94063 0,-16.96395 -6.35945,-32.41529 -16.5248,-44.9878 C 355.85253,532.66402 600,0 600,0 Z"
     style="fill:#ffffff"
     id="path3" />
  <path
     d="m 286.84196,546.1968 c -12.76769,5.15587 -21.84332,17.66332 -21.84332,32.35023 0,19.24098 15.63026,34.87124 34.87124,34.87124 19.25725,0 34.88751,-15.63026 34.88751,-34.87124 0,-14.62185 -9.02684,-27.19436 -21.85959,-32.35023 v -31.43942 h 10.23042 L 542.0656,37.16454 H 472.68094 57.690431 L 273.83031,514.75738 h 13.01165 z"
     style="fill:#8b723c"
     id="path4" />
  <g
     transform="matrix(16.26457,0,0,-16.26457,-7555.7875,6377.2404)"
     id="g5">
    <path
       d="m 493.617,389.406 h -24.894 l 12.925,-28.558 h 0.543 0.403 v -0.403 -1.933 -0.27 l -0.254,-0.101 c -0.66,-0.266 -1.09,-0.903 -1.09,-1.618 v 0 c 0,-0.961 0.781,-1.746 1.742,-1.746 v 0 c 0.961,0 1.742,0.785 1.742,1.746 v 0 c 0,0.715 -0.429,1.348 -1.093,1.618 v 0 l -0.25,0.101 v 0.27 1.933 0.403 h 0.402 0.371 l 13.098,28.558 z"
       style="fill:url(#radialGradient446)"
       id="path5" />
  </g>
  <path
     d="m 313.85741,445.81187 h -4.19626 -19.50122 -4.19625 L 284.17457,442.00596 121.15478,84.5107 116.95853,75.35375 h 10.16535 99.81567 6.53836 v 6.48956 7.93711 6.27813 l -6.29439,0.19517 c -11.23882,0.39035 -14.60559,2.73245 -15.50014,4.57035 -2.73244,5.85524 4.19626,21.9897 7.56303,29.7479 l 1.7891,4.17999 c 0.70003,1.65899 59.70724,133.67851 78.96449,176.69829 78.39523,-177.26755 78.39523,-177.26755 78.72052,-177.83681 0.56861,-1.77284 2.09813,-4.76552 3.61074,-7.87205 3.49688,-7.05882 7.18894,-14.42667 6.48956,-21.03009 -0.56861,-5.22093 -6.03416,-8.13229 -16.19951,-8.45758 l -6.22933,-0.24331 V 89.78108 81.84396 75.3544 h 6.4733 99.81566 10.1003 l -4.19626,9.15695 -163.01979,357.49526 -1.70778,3.80591 z"
     style="fill:#8b723c"
     id="path6" />
  <path
     d="m 300,327.45459 c 0,0 84.12036,-190.08403 84.18542,-190.21415 4.1312,-10.29547 12.32854,-21.53429 11.04364,-33.22852 -1.20358,-11.25508 -12.76769,-13.92247 -22.36378,-14.2315 v -7.93711 h 99.81566 L 309.66115,439.27351 H 290.15993 L 127.05882,81.84331 h 99.88073 v 7.93711 c -6.86365,0.19518 -17.72838,1.13852 -21.09515,8.26241 -4.57034,9.775 5.26972,29.73163 9.14069,39.19761 0,0.0651 85.01491,190.21415 85.01491,190.21415"
     style="fill:#ffffff"
     id="path7" />
</svg>
