<?xml version="1.0" encoding="UTF-8" standalone="no"?>
<svg
   version="1.1"
   width="600"
   height="650.58282"
   id="svg7"
   xmlns="http://www.w3.org/2000/svg"
   xmlns:svg="http://www.w3.org/2000/svg">
  <defs
     id="defs7" />
  <radialGradient
     cx="0"
     cy="0"
     r="1"
     fx="0"
     fy="0"
     id="radialGradient426"
     gradientUnits="userSpaceOnUse"
     gradientTransform="matrix(15.864502,0,0,-15.864502,400.99023,372.09326)"
     spreadMethod="pad">
    <stop
       style="stop-color:#d9eaf3"
       offset="0"
       id="stop1" />
    <stop
       style="stop-color:#99aebc"
       offset="0.66291797"
       id="stop2" />
    <stop
       style="stop-color:#536e78"
       offset="1"
       id="stop3" />
  </radialGradient>
  <path
     d="M 542.0656,0 H 0 c 0,0 241.48008,533.49417 242.43969,535.5923 -9.0919,12.19843 -14.62185,26.93413 -14.62185,42.95473 0,19.24098 7.49796,37.34345 21.09514,50.94063 13.59719,13.59718 31.71592,21.09515 50.9569,21.09515 19.25725,0 37.35972,-7.49797 50.89184,-21.09515 13.66224,-13.59718 21.16021,-31.69965 21.16021,-50.94063 0,-16.96395 -6.35945,-32.41529 -16.5248,-44.9878 C 355.78748,532.66402 600,0 600,0 Z"
     style="fill:#ffffff"
     id="path3" />
  <path
     d="m 286.84196,546.1968 c -12.76769,5.15587 -21.84332,17.66332 -21.84332,32.35023 0,19.24098 15.5652,34.87124 34.87124,34.87124 19.25725,0 34.82245,-15.63026 34.82245,-34.87124 0,-14.62185 -8.96178,-27.19436 -21.79453,-32.35023 v -31.43942 h 10.23042 L 542.0656,37.16454 H 472.68094 57.690431 L 273.83031,514.75738 h 13.01165 z"
     style="fill:#536e78"
     id="path4" />
  <g
     transform="matrix(16.26457,0,0,-16.26457,-6222.0927,6377.2404)"
     id="g5">
    <path
       d="m 411.613,389.406 h -24.89 l 12.925,-28.558 h 0.543 0.403 v -0.403 -1.933 -0.27 l -0.254,-0.101 c -0.664,-0.266 -1.094,-0.903 -1.094,-1.618 v 0 c 0,-0.961 0.785,-1.746 1.746,-1.746 v 0 c 0.961,0 1.742,0.785 1.742,1.746 v 0 c 0,0.715 -0.429,1.348 -1.089,1.618 v 0 l -0.254,0.101 v 0.27 1.933 0.403 h 0.402 0.371 l 13.094,28.558 z"
       style="fill:url(#radialGradient426)"
       id="path5" />
  </g>
  <path
     d="m 313.85741,445.81187 h -4.19626 -19.50122 -4.26131 L 284.23963,442.00596 121.15478,84.5595 116.89347,75.35375 h 10.16535 99.88073 6.4733 v 6.48956 7.93711 6.22933 l -6.22933,0.24332 c -11.17376,0.39035 -14.60559,2.66739 -15.43508,4.57035 -2.7975,5.85524 4.06614,21.85958 7.36785,29.55272 l 1.91922,4.44023 c 0.70003,1.59393 59.70724,133.74356 78.96449,176.63323 18.99702,-43.01979 77.45188,-175.23448 78.15126,-176.81214 1.13852,-2.73245 2.60233,-5.72513 4.1312,-8.83166 3.54568,-7.12388 7.23774,-14.42668 6.4733,-21.09515 -0.19517,-1.96801 -0.83014,-7.88832 -16.13445,-8.45758 l -6.29439,-0.24332 v -6.22933 -7.93711 -6.48956 h 6.53836 99.81566 10.1003 l -4.24505,9.15695 -162.971,357.4302 z"
     style="fill:#536e78"
     id="path6" />
  <path
     d="m 300,327.45459 c 0,0 84.12036,-190.08403 84.18542,-190.21415 4.1312,-10.29547 12.32854,-21.53429 11.04364,-33.22852 -1.20358,-11.25508 -12.76769,-13.92247 -22.36378,-14.2315 v -7.93711 h 99.75061 L 309.66115,439.27351 H 290.15993 L 127.05882,81.84331 h 99.88073 v 7.93711 c -6.86365,0.19518 -17.79344,1.13852 -21.09515,8.26241 -4.6354,9.775 5.20466,29.73163 9.0919,39.19761 0.052,0.0651 85.0637,190.21415 85.0637,190.21415"
     style="fill:#ffffff"
     id="path7" />
</svg>
