<?xml version="1.0" encoding="UTF-8" standalone="no"?>
<svg
   version="1.1"
   width="484.375"
   height="576.25391"
   id="svg1"
   xmlns="http://www.w3.org/2000/svg"
   xmlns:svg="http://www.w3.org/2000/svg">
  <defs
     id="defs1" />
  <path
     d="m 0,0 216.13867,477.59375 h 13.01172 v 31.43946 c -12.83274,5.15587 -21.84375,17.6627 -21.84375,32.34961 0,19.24098 15.56505,34.87109 34.87109,34.87109 19.25725,0 34.82227,-15.63012 34.82227,-34.87109 0,-14.62185 -9.02528,-27.19374 -21.79297,-32.34961 v -31.43946 h 10.16406 L 484.375,0 h -69.45118 z m 69.367184,44.679688 h 99.880856 v 7.9375 c -6.86365,0.19518 -17.79399,1.137829 -21.0957,8.261719 -4.6354,9.775001 5.20456,29.731281 9.0918,39.197263 0,0.0651 85.06445,190.21485 85.06445,190.21485 0,0 84.05603,-190.08473 84.12109,-190.21485 4.19626,-10.295472 12.39233,-21.534282 11.10743,-33.228512 -1.20358,-11.255081 -12.7672,-13.92144 -22.36329,-14.23047 v -7.9375 h 99.75 L 251.9707,402.10938 h -19.50195 z"
     id="path1" />
</svg>
