<svg xmlns="http://www.w3.org/2000/svg" width="678.26" height="904.5" data-name="Layer 2" viewBox="0 0 678.26 904.5"><defs><linearGradient id="a" x1="531.86" x2="97.95" y1="759.53" y2="7.96" gradientUnits="userSpaceOnUse"><stop offset="0" stop-color="#612c75"/><stop offset=".13" stop-color="#80508f"/><stop offset=".29" stop-color="#a277ab"/><stop offset=".42" stop-color="#b790bc"/><stop offset=".5" stop-color="#bf99c3"/><stop offset="1" stop-color="#612c75"/></linearGradient></defs><g data-name="Layer 1"><path d="M283.65 46.44c-30.7 0-61.27 3.53-90.86 10.49a390.7 390.7 0 0 0-76.03 26.4c-3.83-2.12-8.91-5.24-14.51-9.54-15.73-12.08-28.7-28.89-40.57-47.47S48.27 0 48.27 0 34.85 15.23 30.21 25.81C23.8 40.41 19.22 51.92 18.46 78.8c-.48 16.74 2.42 32.26 8.61 46.13 6.72 15.04 17.17 27.88 31.13 38.24l17.3 83.08c-22.49 24.3-40.37 52.03-53.24 82.57C7.49 363.87 0 401.11 0 439.5s7.42 75.19 22.05 110.1c14.13 33.71 34.37 64.04 60.16 90.16 25.77 26.11 55.83 46.73 89.34 61.3 31.47 13.68 64.77 21.46 99.12 23.18l42.82 62.49c11.8 58.24-7.3 117.77-7.3 117.77s16.65-4.19 33.81-12.54 41.22-24.93 61.37-51.57c8.83-11.68 15.6-22.59 19.55-29.36 25.1-9.31 49.28-21.22 71.98-35.49 25.08-15.76 48.53-34.49 69.7-55.68 74.58-74.55 115.66-173.58 115.66-278.85 0-217.57-177.02-394.58-394.61-394.58Z" style="stroke-width:0"/><path d="M47.59 37.03c24.53 51.63 69.19 68.5 69.19 68.5 51.23-25.58 108.06-39.09 166.87-39.09 206.56 0 374.61 168.03 374.61 374.58 0 99.94-39 193.93-109.8 264.71-40.61 40.64-88.81 70.71-141.32 89 0 0-33.23 63.42-74.04 78.46 0 0 13.61-47.6-1.35-95.21l-50.3-73.4C136.7 702.57 20 584.65 20 439.51 20 366.5 49.43 300.4 97.23 252.5L76.14 151.23C13.67 111.84 47.59 37.04 47.59 37.04Zm236.06 94.65c-51.33 0-99.92 12.66-142.64 34.88l8.8 44.74c39.29-22.88 85.08-36.13 133.84-36.13 146.88 0 265.86 119 265.86 265.86 0 121.21-81.13 223.43-192.09 255.41l23.1 38.33c123.29-40.71 212.49-157.01 212.49-293.75 0-170.63-138.74-309.34-309.37-309.34Zm-3.14 154.71-5.19.55c-10.13 1.36-20.51 4.22-31.14 8.59q-15.945 6.555-41.79 21L96.26 377.81l7.92 13.72 3.1-1.31c12.27-7.09 22.74-8.96 31.41-5.62q13.005 5.01 25.92 27.39l78.58 136.1c8.75 15.16 12.41 27.33 10.97 36.51s-8.37 17.19-20.78 24.03l-2.89 1.67 7.92 13.72 112.63-65.03-7.92-13.72-4.48 3.07c-12.27 7.09-22.74 8.96-31.41 5.62q-13.005-5.01-26.34-28.11l-35.22-61.01 10.68-5.68c4.09-2.36 7.72-4.14 10.89-5.32 3.17-1.19 5.63-1.65 7.39-1.38 3.38.3 8.72 1.62 16.02 3.99q10.95 3.54 28.71 10.14l54.54 21.94c9.95 3.89 18.57 7.01 25.87 9.37s13.54 4.14 18.71 5.32c7.45 1.79 14.86 1.85 22.23.16s15.14-4.89 23.33-9.62l28.88-16.67-7.71-13.36c-1.44.83-2.62 1.43-3.53 1.8s-1.92.71-3.02 1.02q-1.29.27-2.4.42-1.11.165-2.97.27c-2.86.05-5.51.05-7.94 0a90 90 0 0 1-7.21-.41c-3.04-.81-6.48-1.63-10.33-2.46s-8.05-1.85-12.6-3.07c-7.97-2.14-14.49-3.99-19.57-5.55-5.07-1.56-8.82-2.77-11.24-3.62l-53.18-17.91c-7.11-2.31-13.18-4.34-18.2-6.1-5.02-1.75-8.81-3.18-11.37-4.27-1.14-.3-2.12-.62-2.95-.94s-1.55-.47-2.17-.43l-.29-.08-.28-.08-1.99-.53c-.57-.15-1.35-.26-2.35-.33q4.065-3.795 7.26-6.6c2.13-1.87 4.02-3.6 5.66-5.2 1.17-1.32 2.37-2.57 3.6-3.76 1.24-1.19 2.25-2.5 3.03-3.92a49 49 0 0 0 4.01-4.72c1.27-1.69 2.59-3.58 3.96-5.65q11.505-16.755 12.48-36.33t-8.61-36.18c-6.67-11.55-16.13-20.29-28.37-26.22-7.52-3.61-15.63-5.87-23.96-6.49-3.37-.25-6.76 0-10.14-.01zm-27.56 33.92c9.31-.12 17.92 2.6 26.09 6.84 9.28 5.23 16.84 12.9 22.67 23.01 5.56 9.63 8.28 19.2 8.17 28.74-.11 9.53-3.17 18.28-9.16 26.23-1.17 1.32-2.27 2.6-3.32 3.84a172 172 0 0 0-2.96 3.63c-3.64 3.7-8.06 7.3-13.27 10.79q-7.815 5.235-24.99 14.67l-19.49 11.26-57.32-99.28 20.06-11.1c8.91-5.14 15.93-8.96 21.07-11.44 5.14-2.49 10.3-4.26 15.46-5.32 1.96-.49 3.99-.86 6.1-1.11s4.39-.45 6.87-.6l4.01-.15z" style="fill:url(#a);stroke-width:0"/></g></svg>