<svg xmlns="http://www.w3.org/2000/svg" width="638.26" height="836.16" data-name="Layer 2" viewBox="0 0 638.26 836.16"><path d="M27.59 0c24.53 51.63 69.19 68.5 69.19 68.5 51.23-25.58 108.06-39.09 166.87-39.09 206.56 0 374.61 168.03 374.61 374.58 0 99.94-39 193.93-109.8 264.71-40.61 40.64-88.81 70.71-141.32 89 0 0-33.23 63.42-74.04 78.46 0 0 13.61-47.6-1.35-95.21l-50.3-73.4C116.69 665.53 0 547.61 0 402.47c0-73.01 29.43-139.11 77.23-187.01L56.14 114.19C-6.33 74.8 27.59 0 27.59 0m236.06 94.64c-51.33 0-99.92 12.66-142.64 34.88l8.8 44.74c39.29-22.88 85.08-36.13 133.84-36.13 146.88 0 265.86 119 265.86 265.86 0 121.21-81.13 223.43-192.09 255.41l23.1 38.33c123.29-40.71 212.49-157.01 212.49-293.75 0-170.63-138.74-309.34-309.37-309.34Zm-3.14 154.72-5.19.55c-10.13 1.36-20.51 4.22-31.14 8.59q-15.945 6.555-41.79 21L76.26 340.78l7.92 13.72 3.1-1.31c12.27-7.09 22.74-8.96 31.41-5.62q13.005 5.01 25.92 27.39l78.58 136.1c8.75 15.16 12.41 27.33 10.97 36.51s-8.37 17.19-20.78 24.03l-2.89 1.67 7.92 13.72 112.63-65.03-7.92-13.72-4.48 3.07c-12.27 7.09-22.74 8.96-31.41 5.62q-13.005-5.01-26.34-28.11l-35.22-61.01 10.68-5.68c4.09-2.36 7.72-4.14 10.89-5.32 3.17-1.19 5.63-1.65 7.39-1.38 3.38.3 8.72 1.62 16.02 3.99q10.95 3.54 28.71 10.14l54.54 21.94c9.95 3.89 18.57 7.01 25.87 9.37s13.54 4.14 18.71 5.32c7.45 1.79 14.86 1.85 22.23.16s15.14-4.89 23.33-9.62l28.88-16.67-7.71-13.36c-1.44.83-2.62 1.43-3.53 1.8s-1.92.71-3.02 1.02q-1.29.27-2.4.42-1.11.165-2.97.27c-2.86.05-5.51.05-7.94 0a90 90 0 0 1-7.21-.41c-3.04-.81-6.48-1.63-10.33-2.46s-8.05-1.85-12.6-3.07c-7.97-2.14-14.49-3.99-19.57-5.55-5.07-1.56-8.82-2.77-11.24-3.62l-53.18-17.91c-7.11-2.31-13.18-4.34-18.2-6.1-5.02-1.75-8.81-3.18-11.37-4.27-1.14-.3-2.12-.62-2.95-.94s-1.55-.47-2.17-.43l-.29-.08-.28-.08-1.99-.53c-.57-.15-1.35-.26-2.35-.33q4.065-3.795 7.26-6.6c2.13-1.87 4.02-3.6 5.66-5.2 1.17-1.32 2.37-2.57 3.6-3.76 1.24-1.19 2.25-2.5 3.03-3.92a49 49 0 0 0 4.01-4.72c1.27-1.69 2.59-3.58 3.96-5.65q11.505-16.755 12.48-36.33t-8.61-36.18c-6.67-11.55-16.13-20.29-28.37-26.22-7.52-3.61-15.63-5.87-23.96-6.49-3.37-.25-6.76 0-10.14-.01zm-27.56 33.92c9.31-.12 17.92 2.6 26.09 6.84 9.28 5.23 16.84 12.9 22.67 23.01 5.56 9.63 8.28 19.2 8.17 28.74-.11 9.53-3.17 18.28-9.16 26.23-1.17 1.32-2.27 2.6-3.32 3.84a172 172 0 0 0-2.96 3.63c-3.64 3.7-8.06 7.3-13.27 10.79q-7.815 5.235-24.99 14.67l-19.49 11.26-57.32-99.28 20.06-11.1c8.91-5.14 15.93-8.96 21.07-11.44 5.14-2.49 10.3-4.26 15.46-5.32 1.96-.49 3.99-.86 6.1-1.11s4.39-.45 6.87-.6l4.01-.15z" data-name="Layer 1" style="stroke-width:0"/></svg>