<svg xmlns="http://www.w3.org/2000/svg" xml:space="preserve" width="127.25" height="150"><path fill="#fff" d="M63.626 150c22.695-31.724 44.632-39.181 44.632-39.181s1.57-9.302 5.119-23.022l13.873-54.033s-7.801 2.85-10.047 3.188c0 0-1.426-1.798-1.426-4.461 0-6.012 6.641-10.046 6.641-10.046l-4.28-3.475c-3.147-2.554-6.79-5.172-10.838-7.787l.978-1.098L89.084 0s-8.472 7.753-25.458 7.753S38.167 0 38.167 0L18.974 10.086l.978 1.098c-4.048 2.615-7.691 5.232-10.838 7.787l-4.282 3.475s6.641 4.034 6.641 10.046c0 2.663-1.425 4.461-1.425 4.461C7.802 36.614 0 33.765 0 33.765l13.875 54.031c3.549 13.722 5.119 23.022 5.119 23.022S40.931 118.277 63.626 150"/><path d="M100.765 23.6c0-4.369 2.731-8.05 3.354-8.833 3.621 2.316 7.465 4.98 11.035 7.878 0 0-4.111 3.728-4.111 9.847 0 1.921.33 3.373.884 4.482-4.067-.701-11.162-3.358-11.162-13.374m-74.279 0c0-4.335-2.736-8.049-3.355-8.833-3.621 2.315-7.465 4.98-11.035 7.878 0 0 4.11 3.728 4.11 9.847 0 1.921-.332 3.373-.883 4.482 4.068-.701 11.163-3.357 11.163-13.374m37.14 103.089-3.266-3.115c-8.755-8.349-30.407-24.683-39.821-27.595 1.683 7.262 2.582 11.494 2.582 11.494 22.433 9.942 40.502 34.542 40.502 34.542s18.071-24.6 40.504-34.542c0 0 .898-4.232 2.58-11.493-9.416 2.914-31.063 19.246-39.815 27.594zm-4.59-30.701C43.473 93.756 31.503 80.41 31.503 64.231s11.971-29.526 27.533-31.758v-.364l3.66-19.636c-15.333-.264-24.882-6.942-24.882-6.942l-11.28 5.928s4.684 5.258 4.684 12.141c0 15.87-13.862 18.355-18.547 18.355-3.059 0-5.927-.956-5.927-.956l12.811 49.903c10.079 1.44 33.952 19.975 42.944 28.199l-3.462-22.749Zm27.535-31.759c0-11.08-7.896-20.349-18.356-22.481V86.71c10.46-2.132 18.354-11.4 18.356-22.481m33.935-23.23s-2.867.956-5.928.956c-4.685 0-18.545-2.485-18.545-18.355 0-6.883 4.684-12.141 4.684-12.141L89.436 5.531s-9.531 6.668-24.845 6.942l3.622 19.636v.364c15.563 2.232 27.533 15.578 27.533 31.757 0 16.178-11.973 29.525-27.533 31.758v.364l-3.463 22.752c8.988-8.226 32.867-26.763 42.945-28.202zm-79.825 23.23c0 11.081 7.894 20.349 18.356 22.481V41.748c-10.461 2.133-18.356 11.401-18.356 22.481"/></svg>