<svg xmlns="http://www.w3.org/2000/svg" xml:space="preserve" width="134.031" height="150"><g transform="translate(-3.003 -3.417)"><path d="M123.858 42.837c-.358 0-1.388-.03-2.733-.254-.63-1.19-1.004-2.779-1.004-4.897 0-6.466 4.344-10.405 4.344-10.405-3.869-3.14-8.047-6.029-11.958-8.519 2.087-2.931 4.359-4.721 4.359-4.721L96.714 3.417s-7.403 8.004-26.697 8.004S43.32 3.417 43.32 3.417L23.167 14.041s2.273 1.79 4.359 4.721c-3.911 2.489-8.089 5.379-11.958 8.519 0 0 4.344 3.939 4.344 10.405 0 2.118-.374 3.707-1.003 4.897a18 18 0 0 1-2.734.254c-6.516 0-13.172-3.575-13.172-3.575l16.555 64.486 3.205.458c.52.074 1.086.208 1.687.384 1.806 7.787 2.77 12.327 2.77 12.327 23.704 10.506 42.798 36.5 42.798 36.5s19.094-25.994 42.798-36.5c0 0 .965-4.54 2.771-12.327.6-.176 1.166-.31 1.686-.384l3.207-.458 16.554-64.486c-.003 0-6.66 3.575-13.176 3.575"/><linearGradient id="a" x1="9.912" x2="130.121" y1="68.365" y2="68.365" gradientUnits="userSpaceOnUse"><stop offset="0" style="stop-color:#bb2c26"/><stop offset=".05" style="stop-color:#be3226"/><stop offset=".116" style="stop-color:#c64225"/><stop offset=".191" style="stop-color:#d35d24"/><stop offset=".25" style="stop-color:#e07823"/><stop offset=".257" style="stop-color:#e17a23"/><stop offset=".327" style="stop-color:#ee8b1f"/><stop offset=".404" style="stop-color:#f5951e"/><stop offset=".5" style="stop-color:#f7981d"/><stop offset=".596" style="stop-color:#f5951e"/><stop offset=".673" style="stop-color:#ee8b1f"/><stop offset=".743" style="stop-color:#e17a23"/><stop offset=".75" style="stop-color:#e07823"/><stop offset=".767" style="stop-color:#db6e23"/><stop offset=".827" style="stop-color:#cd5125"/><stop offset=".886" style="stop-color:#c33d25"/><stop offset=".944" style="stop-color:#bd3026"/><stop offset="1" style="stop-color:#bb2c26"/></linearGradient><path fill="url(#a)" d="m62.335 107.594 3.737 19.938c-9.067-7.887-31.498-26.535-42.624-28.125L9.912 46.676s3.03 1.01 6.263 1.01c4.95 0 19.598-2.626 19.598-19.395 0-7.273-4.95-12.829-4.95-12.829l11.92-6.264s7.658 6.23 23.976 6.994l-4.303 18.641c-16.863 3.519-29.572 18.495-29.572 36.39-.001 17.865 12.667 32.822 29.491 36.371m28.693-36.371c0-8.722-5.345-16.216-12.931-19.391v38.781c7.587-3.174 12.931-10.668 12.931-19.39m-42.023 0c0 8.723 5.345 16.217 12.931 19.391V51.832c-7.586 3.175-12.931 10.669-12.931 19.391m81.116-24.547s-3.03 1.01-6.263 1.01c-4.95 0-19.597-2.626-19.597-19.395 0-7.273 4.949-12.829 4.949-12.829L97.29 9.198s-7.658 6.23-23.976 6.994l4.303 18.641c16.863 3.519 29.572 18.495 29.572 36.39 0 17.865-12.668 32.822-29.491 36.371l-3.738 19.938c9.068-7.887 31.498-26.535 42.624-28.125z" style="fill:url(#a)"/><path fill="#fff" d="M103.958 71.223c0-17.096-12.648-31.198-29.093-33.557v-.385L70.017 16.27l-4.849 21.012v.385c-16.443 2.358-29.093 16.461-29.093 33.557s12.649 31.198 29.093 33.557v.385l4.849 25.86 4.849-25.86v-.385c16.444-2.36 29.092-16.463 29.092-33.558m-58.186 0c0-11.708 8.342-21.502 19.396-23.755v47.51c-11.054-2.253-19.396-12.046-19.396-23.755m29.093 23.755v-47.51c11.054 2.253 19.396 12.047 19.396 23.755 0 11.709-8.342 21.502-19.396 23.755"/></g></svg>