<?xml version="1.0" encoding="UTF-8" standalone="no"?>
<svg
   width="997.77002"
   height="724.92999"
   viewBox="0 0 997.77002 724.92999"
   version="1.1"
   xml:space="preserve"
   style="clip-rule:evenodd;fill-rule:evenodd;stroke-linejoin:round;stroke-miterlimit:2"
   id="svg16"
   xmlns="http://www.w3.org/2000/svg"
   xmlns:svg="http://www.w3.org/2000/svg">
    <path
   d="m 732.24,445.94 265.53,-83.69 -265.64,-83.5 c -4.42,-12.28 -9.78,-24.11 -16,-35.4 L 756.49,202.7 C 728.93,161.37 696.62,127.75 656.58,102.36 l -41.39,41.6 c -9.12,-4.84 -18.57,-9.13 -28.33,-12.82 V 115.81 L 498.92,0 410.89,115.81 v 15.71 c -10.07,3.86 -19.83,8.34 -29.21,13.43 L 339.36,102.44 C 298.03,130 264.41,163.58 239.02,203.63 l 42.21,42.32 c -5.57,10.4 -10.42,21.24 -14.47,32.46 L 0,362.24 266.66,446.29 c 4.12,11.45 9.06,22.5 14.76,33.09 l -42.2,42.41 c 28.14,42.41 60.97,77.11 100.34,100.84 l 42.24,-42.54 c 9.35,5.06 19.08,9.53 29.11,13.38 v 15.67 l 87.99,115.79 87.98,-115.79 v -15.29 c 9.81,-3.71 19.32,-8.02 28.48,-12.9 l 41.52,41.63 c 42.41,-28.14 76.27,-61.42 100,-100.79 l -40.47,-40.65 c 6.15,-11.23 11.46,-23 15.83,-35.2 z"
   style="fill:url(#_Radial1);fill-rule:nonzero"
   id="path1" />
    <path
   d="M 498.98,217 35.6,362.43 498.84,508.37 962.08,362.5 498.97,217 Z M 108.03,362.43 499.01,239.4 889.77,362.5 498.9,484.66 Z"
   style="fill:#1d1d1b;fill-rule:nonzero"
   id="path2" />
    <ellipse
   cx="498.55002"
   cy="362.37"
   rx="236.19"
   ry="237.50999"
   style="fill:#1d1d1b"
   id="ellipse2" />
    <path
   d="m 498.9,17.78 -77.09,102.86 v 484.58 l 77.06,101.32 77.05,-101.32 V 120.12 L 498.9,17.77 Z m 0,652.49 -54.6,-72.31 v -4.35 c 6.17,2.12 53.97,13.29 109.2,0.14 v 4.22 z m 54.6,-538.94 c -6.17,-2.12 -53.97,-13.31 -109.2,-0.17 v -4.22 l 54.61,-72.28 54.59,72.32 z"
   style="fill:#1d1d1b;fill-rule:nonzero"
   id="path3" />
    <path
   d="m 498.89,147.18 c -118.89,0 -215.28,96.38 -215.28,215.28 0,118.9 96.38,215.28 215.28,215.28 118.9,0 215.28,-96.38 215.28,-215.28 0,-118.9 -96.38,-215.28 -215.28,-215.28 z m 0,394.65 c -99.08,0 -179.4,-80.32 -179.4,-179.4 0,-99.08 80.32,-179.4 179.4,-179.4 99.08,0 179.4,80.32 179.4,179.4 0,99.08 -80.32,179.4 -179.4,179.4 z"
   style="fill:#66337a;fill-rule:nonzero"
   id="path4" />
    <path
   d="m 253.13,201.29 c 28.43,-41.01 50.92,-60.36 84.86,-84.35 l 404.69,406.6 c -26.12,38.97 -46.14,57.48 -84.79,84.72 0.09,-0.09 -404.68,-407.06 -404.77,-406.97 z"
   style="fill:#1d1d1b;fill-rule:nonzero"
   id="path5" />
    <path
   d="M 337.45,608.47 C 296.44,580.04 277.09,557.55 253.1,523.61 L 657.73,116.94 c 38.97,26.12 57.45,46.11 84.69,84.76 -0.09,-0.09 -405.06,406.68 -404.97,406.77 z"
   style="fill:#1d1d1b;fill-rule:nonzero"
   id="path6" />
    <path
   d="M 335.84,584.94 C 307.41,565.23 294.3,548.83 276.86,525.39 L 659.73,140.41 c 26.39,18.07 38.63,33.01 59.02,59.8 -0.06,-0.06 -382.97,384.68 -382.91,384.74 z"
   style="fill:#a780b1;fill-rule:nonzero"
   id="path7" />
    <path
   d="m 719.09,525.21 c -17.61,25.39 -32.44,38.93 -59.57,59.8 L 276.73,199.6 c 17.63,-24.58 31.68,-37.89 59.12,-60.01 z"
   style="fill:#a780b1;fill-rule:nonzero"
   id="path8" />
    <ellipse
   cx="498.89001"
   cy="362.45999"
   rx="179.39999"
   ry="180.39999"
   style="fill:#1d1d1b"
   id="ellipse8" />
    <path
   d="m 360.75,341.89 c 94.83,-95.17 187.58,-94.17 276.89,1.09 -15.59,-79.37 -77.44,-121.03 -138.73,-121.39 -77.16,4.25 -125.94,51.95 -138.16,120.3 z"
   style="fill:#a780b1;fill-rule:nonzero"
   id="path9" />
    <path
   d="M 637.01,383.56 C 542.16,478.71 449.3,477.57 360,382.3 c 15.57,79.37 76.87,120.5 138.15,120.86 77.16,-4.24 126.62,-51.25 138.86,-119.61 z"
   style="fill:#a780b1;fill-rule:nonzero"
   id="path10" />
    <circle
   cx="499.20001"
   cy="362.37"
   r="69.040001"
   style="fill:#66337a"
   id="circle10" />
    <circle
   cx="499.20001"
   cy="362.37"
   r="45.240002"
   style="fill:#1d1d1b"
   id="circle11" />
    <circle
   cx="499.20001"
   cy="362.37"
   r="33.07"
   style="fill:#a780b1"
   id="circle12" />
    <defs
   id="defs16">
        <radialGradient
   id="_Radial1"
   cx="0"
   cy="0"
   r="1"
   gradientUnits="userSpaceOnUse"
   gradientTransform="matrix(312.78,-305.611,250.601,256.48,500.087,363.668)"><stop
     offset="0"
     style="stop-color:rgb(97,44,117);stop-opacity:1"
     id="stop12" /><stop
     offset="0.3"
     style="stop-color:rgb(123,81,144);stop-opacity:1"
     id="stop13" /><stop
     offset="0.5"
     style="stop-color:rgb(191,153,195);stop-opacity:1"
     id="stop14" /><stop
     offset="0.7"
     style="stop-color:rgb(123,81,144);stop-opacity:1"
     id="stop15" /><stop
     offset="1"
     style="stop-color:rgb(97,44,117);stop-opacity:1"
     id="stop16" /></radialGradient>
    </defs>
</svg>
