<?xml version="1.0" encoding="UTF-8" standalone="no"?>
<svg
   id="Ebene_3"
   data-name="Ebene 3"
   viewBox="0 0 997.77002 724.94"
   version="1.1"
   width="997.77002"
   height="724.94"
   xmlns="http://www.w3.org/2000/svg"
   xmlns:svg="http://www.w3.org/2000/svg">
  <defs
     id="defs15">
    <style
       id="style1">
      .cls-1 {
        fill: #c3e2ed;
      }

      .cls-1, .cls-2, .cls-3, .cls-4 {
        stroke-width: 0px;
      }

      .cls-2 {
        fill: url(#Unbenannter_Verlauf_26);
      }

      .cls-3 {
        fill: #596771;
      }

      .cls-4 {
        fill: #000000;
      }
    </style>
    <radialGradient
       id="Unbenannter_Verlauf_26"
       data-name="Unbenannter Verlauf 26"
       cx="499.76001"
       cy="500.34"
       fx="499.76001"
       fy="500.34"
       r="403.73999"
       gradientTransform="matrix(0.71824775,-0.69578745,0.57054571,0.58896315,-144.33,416.72)"
       gradientUnits="userSpaceOnUse">
      <stop
         offset="0"
         stop-color="#636f78"
         id="stop1" />
      <stop
         offset=".04"
         stop-color="#697780"
         id="stop2" />
      <stop
         offset=".11"
         stop-color="#7d8e98"
         id="stop3" />
      <stop
         offset=".21"
         stop-color="#aec7d5"
         id="stop4" />
      <stop
         offset=".23"
         stop-color="#a1b8c4"
         id="stop5" />
      <stop
         offset=".29"
         stop-color="#b5cede"
         id="stop6" />
      <stop
         offset=".38"
         stop-color="#b7d1e1"
         id="stop7" />
      <stop
         offset=".5"
         stop-color="#b5cede"
         id="stop8" />
      <stop
         offset=".62"
         stop-color="#aec7d5"
         id="stop9" />
      <stop
         offset=".71"
         stop-color="#a1b7c3"
         id="stop10" />
      <stop
         offset=".79"
         stop-color="#8c9ea9"
         id="stop11" />
      <stop
         offset=".8"
         stop-color="#8c9ea9"
         id="stop12" />
      <stop
         offset=".85"
         stop-color="#75838d"
         id="stop13" />
      <stop
         offset=".91"
         stop-color="#75838d"
         id="stop14" />
      <stop
         offset=".96"
         stop-color="#68747d"
         id="stop15" />
    </radialGradient>
  </defs>
  <path
     class="cls-2"
     d="m 732.24,445.94 265.53,-83.69 -265.64,-83.5 c -4.42,-12.28 -9.78,-24.11 -16,-35.4 L 756.49,202.7 C 728.93,161.37 696.62,127.75 656.58,102.36 l -41.39,41.6 c -9.12,-4.84 -18.57,-9.13 -28.33,-12.82 V 115.81 L 498.92,0 410.89,115.81 v 15.71 c -10.07,3.86 -19.83,8.34 -29.21,13.43 L 339.36,102.44 C 298.03,130 264.41,163.58 239.02,203.63 l 42.21,42.32 c -5.57,10.4 -10.42,21.24 -14.47,32.46 L 0,362.25 266.66,446.3 c 4.12,11.45 9.06,22.5 14.76,33.09 l -42.2,42.41 c 28.14,42.41 60.97,77.11 100.34,100.84 L 381.8,580.1 c 9.35,5.06 19.08,9.53 29.11,13.38 v 15.67 l 87.99,115.79 87.98,-115.79 v -15.29 c 9.81,-3.71 19.32,-8.02 28.48,-12.9 l 41.52,41.63 c 42.41,-28.14 76.27,-61.42 100,-100.79 l -40.47,-40.65 c 6.15,-11.23 11.46,-23 15.83,-35.2 z"
     id="path15"
     style="fill:url(#Unbenannter_Verlauf_26)" />
  <path
     class="cls-4"
     d="M 499.02,217.01 35.64,362.44 498.88,508.38 962.12,362.51 499.01,217.01 Z M 108.07,362.44 499.05,239.41 889.81,362.51 498.94,484.67 Z"
     id="path16" />
  <ellipse
     class="cls-4"
     cx="498.88"
     cy="362.38"
     rx="236.19"
     ry="237.50999"
     id="ellipse16" />
  <path
     class="cls-4"
     d="m 498.92,17.78 -77.09,102.86 v 484.58 l 77.06,101.32 77.05,-101.32 V 120.12 L 498.92,17.77 Z m 0,652.49 -54.6,-72.31 v -4.35 c 6.17,2.12 53.97,13.29 109.2,0.14 v 4.22 c 0,0 -54.6,72.3 -54.6,72.3 z m 54.6,-538.94 c -6.17,-2.12 -53.97,-13.31 -109.2,-0.17 v -4.22 l 54.61,-72.28 54.59,72.32 z"
     id="path17" />
  <path
     class="cls-3"
     d="m 498.88,147.19 c -118.89,0 -215.28,96.38 -215.28,215.28 0,118.9 96.38,215.28 215.28,215.28 118.9,0 215.28,-96.38 215.28,-215.28 0,-118.9 -96.38,-215.28 -215.28,-215.28 z m 0,394.65 c -99.08,0 -179.4,-80.32 -179.4,-179.4 0,-99.08 80.32,-179.4 179.4,-179.4 99.08,0 179.4,80.32 179.4,179.4 0,99.08 -80.32,179.4 -179.4,179.4 z"
     id="path18" />
  <path
     class="cls-4"
     d="m 254.11,201.3 c 28.43,-41.01 50.92,-60.36 84.86,-84.35 l 404.69,406.6 c -26.12,38.97 -46.14,57.48 -84.79,84.72 C 658.96,608.18 254.19,201.21 254.1,201.3 Z"
     id="path19" />
  <path
     class="cls-4"
     d="M 338.57,608.48 C 297.56,580.05 278.21,557.56 254.22,523.62 L 658.85,116.95 c 38.97,26.12 57.45,46.11 84.69,84.76 -0.09,-0.09 -405.06,406.68 -404.97,406.77 z"
     id="path20" />
  <path
     class="cls-1"
     d="M 336.92,584.95 C 308.49,565.24 295.38,548.84 277.94,525.4 L 660.81,140.42 c 26.39,18.07 38.63,33.01 59.02,59.8 -0.06,-0.06 -382.97,384.68 -382.91,384.74 z"
     id="path21" />
  <path
     class="cls-1"
     d="m 720.07,525.22 c -17.61,25.39 -32.44,38.93 -59.57,59.8 L 277.71,199.61 c 17.63,-24.58 31.68,-37.89 59.12,-60.01 z"
     id="path22" />
  <ellipse
     class="cls-4"
     cx="498.88"
     cy="362.47"
     rx="179.39999"
     ry="180.39999"
     id="ellipse22" />
  <path
     class="cls-1"
     d="m 360.44,341.9 c 94.83,-95.17 187.58,-94.17 276.89,1.09 C 621.74,263.62 559.89,221.96 498.6,221.6 421.44,225.85 372.66,273.55 360.44,341.9 Z"
     id="path23" />
  <path
     class="cls-1"
     d="m 637.39,383.57 c -94.85,95.15 -187.71,94.01 -277.01,-1.26 15.57,79.37 76.87,120.5 138.15,120.86 77.16,-4.24 126.62,-51.25 138.86,-119.61 z"
     id="path24" />
  <circle
     class="cls-3"
     cx="498.88"
     cy="362.38"
     r="69.040001"
     id="circle24" />
  <circle
     class="cls-4"
     cx="498.88"
     cy="362.38"
     r="45.240002"
     id="circle25" />
  <circle
     class="cls-1"
     cx="498.88"
     cy="362.38"
     r="33.07"
     id="circle26" />
</svg>
