<?xml version="1.0" encoding="UTF-8" standalone="no"?>
<svg
   id="Ebene_5"
   data-name="Ebene 5"
   viewBox="0 0 997.77002 724.94"
   version="1.1"
   width="997.77002"
   height="724.94"
   xmlns="http://www.w3.org/2000/svg"
   xmlns:svg="http://www.w3.org/2000/svg">
  <defs
     id="defs1">
    <style
       id="style1">
      .cls-1 {
        fill: #000000;
        stroke-width: 0px;
      }
    </style>
  </defs>
  <g
     id="g2"
     transform="translate(-1.33,-137.47)">
    <path
       class="cls-1"
       d="M 730.12,550.44 890.14,500.43 730.08,450.01 c 3.48,16.22 5.33,33.04 5.33,50.3 0,17.26 -1.83,33.97 -5.29,50.13 z"
       id="path1" />
    <path
       class="cls-1"
       d="m 108.4,500.36 v 0 l 159.9,50 c -3.44,-16.14 -5.27,-32.88 -5.27,-50.05 0,-17.17 1.85,-34.07 5.32,-50.28 z"
       id="path2" />
  </g>
  <g
     id="g4"
     transform="translate(-1.33,-137.47)">
    <path
       class="cls-1"
       d="m 488.96,263.03 c 0.43,-0.02 0.85,-0.03 1.28,-0.05 1.15,-0.04 2.29,-0.08 3.42,-0.1 0.43,-0.01 0.86,-0.02 1.29,-0.03 1.35,-0.02 2.69,-0.04 4.01,-0.04 0.08,0 0.17,0 0.25,0 0.04,0 0.08,0 0.12,0 27.83,-0.02 48.35,4.58 53.77,6.22 0.25,0.06 0.5,0.12 0.75,0.18 v -4.29 l -54.59,-72.32 -54.61,72.28 v 4.22 c 13.95,-3.32 27.42,-5.08 39.87,-5.84 0.14,0 0.27,-0.02 0.41,-0.02 1.36,-0.08 2.7,-0.15 4.03,-0.21 z"
       id="path3" />
    <path
       class="cls-1"
       d="m 444.65,731.54 v 4.35 l 54.6,72.31 54.6,-72.3 v -4.22 c -55.23,13.15 -103.03,1.98 -109.2,-0.14 z"
       id="path4" />
  </g>
  <path
     class="cls-1"
     d="m 732.24,445.95 v 0 c 0,0 265.53,-83.7 265.53,-83.7 l -265.64,-83.5 c -4.42,-12.28 -9.78,-24.11 -16,-35.4 L 756.49,202.7 C 728.93,161.37 696.62,127.75 656.58,102.36 l -41.39,41.6 c -9.12,-4.84 -18.57,-9.13 -28.33,-12.82 V 115.81 L 498.92,0 410.89,115.81 v 15.71 c -10.07,3.86 -19.83,8.34 -29.21,13.43 L 339.36,102.44 C 298.03,130 264.41,163.58 239.02,203.63 l 42.21,42.32 c -5.57,10.4 -10.42,21.24 -14.47,32.46 L 0,362.25 266.66,446.3 c 4.12,11.45 9.06,22.5 14.76,33.09 l -42.2,42.41 c 28.14,42.41 60.97,77.11 100.34,100.84 L 381.8,580.1 c 9.35,5.06 19.08,9.53 29.11,13.38 v 15.67 l 87.99,115.79 87.98,-115.79 v -15.29 c 9.81,-3.71 19.32,-8.02 28.48,-12.9 l 41.52,41.63 c 42.41,-28.14 76.27,-61.42 100,-100.79 l -40.47,-40.65 c 6.15,-11.23 11.46,-23 15.83,-35.2 z m 11.43,77.59 c -26.12,38.97 -46.14,57.48 -84.79,84.72 0.02,-0.02 -15.56,-15.71 -40.62,-40.92 -13.33,7.87 -27.49,14.47 -42.32,19.61 v 18.27 L 498.89,706.54 421.83,605.22 v -18.27 c -14.85,-5.15 -29.02,-11.76 -42.36,-19.64 -25.21,25.35 -40.91,41.14 -40.89,41.16 -41.01,-28.43 -60.36,-50.92 -84.35,-84.86 l 40.89,-41.1 C 286.91,468.46 280.09,453.5 274.86,437.79 L 35.65,362.43 274.73,287.4 c 5.23,-15.81 12.08,-30.88 20.33,-45.02 -25.22,-25.33 -40.93,-41.1 -40.95,-41.08 v 0 c 28.43,-41.01 50.92,-60.36 84.86,-84.35 l 40.38,40.57 c 13.37,-7.91 27.58,-14.54 42.47,-19.7 V 120.65 L 498.91,17.79 v 0 c 0,0 77.02,102.34 77.02,102.34 v 17.69 c 14.91,5.17 29.13,11.81 42.52,19.73 l 40.4,-40.6 c 38.97,26.12 57.45,46.11 84.69,84.76 -0.02,-0.02 -15.64,15.65 -40.73,40.83 8.21,14.09 15.03,29.1 20.24,44.86 l 239.08,75.11 -239.23,75.33 c -5.21,15.65 -12.01,30.56 -20.18,44.57 l 40.95,41.14 z"
     id="path5" />
  <path
     class="cls-1"
     d="m 420.37,200.19 c 23.46,-11.32 49.75,-17.67 77.51,-17.67 27.76,0 54.1,6.35 77.57,17.69 l 25.95,-26.08 c -30.72,-16.88 -65.99,-26.49 -103.52,-26.49 -37.53,0 -72.76,9.6 -103.47,26.46 l 10.37,10.42 15.58,15.65 z"
     id="path6" />
  <path
     class="cls-1"
     d="m 319.18,378.77 c -0.02,-0.2 -0.04,-0.4 -0.05,-0.6 -0.12,-1.38 -0.21,-2.77 -0.3,-4.16 -0.02,-0.34 -0.05,-0.68 -0.06,-1.02 -0.07,-1.32 -0.13,-2.64 -0.17,-3.96 -0.01,-0.37 -0.03,-0.74 -0.04,-1.11 -0.04,-1.66 -0.07,-3.32 -0.07,-5 0,0 0,0 0,-0.01 0,0 0,0 0,0 0,-0.05 0,-0.1 0,-0.15 0,-1.6 0.03,-3.2 0.07,-4.8 0.01,-0.49 0.04,-0.98 0.06,-1.47 0.04,-1.18 0.09,-2.36 0.15,-3.53 0.03,-0.48 0.06,-0.97 0.09,-1.45 0.08,-1.22 0.16,-2.44 0.26,-3.65 0.03,-0.37 0.07,-0.74 0.1,-1.11 0.12,-1.39 0.26,-2.78 0.42,-4.17 0.02,-0.17 0.04,-0.33 0.06,-0.5 2.32,-20.22 7.95,-39.43 16.35,-57.05 -0.2,-0.2 -0.4,-0.4 -0.6,-0.6 -0.23,-0.23 -0.46,-0.46 -0.69,-0.69 -2.21,-2.22 -4.39,-4.42 -6.54,-6.58 -4.99,-5.02 -9.81,-9.86 -14.43,-14.5 -0.58,-0.59 -1.16,-1.17 -1.74,-1.75 -0.81,-0.81 -1.62,-1.63 -2.42,-2.43 -17.2,30.94 -27.01,66.55 -27.01,104.46 0,37.91 9.81,73.52 27.01,104.46 l 26.42,-26.55 c -9.1,-19.07 -14.95,-40 -16.86,-62.07 z"
     id="path7" />
  <g
     id="g9"
     transform="translate(-1.33,-137.47)">
    <path
       class="cls-1"
       d="m 398.09,661.68 c 0.66,-0.66 1.33,-1.34 2,-2.01 1.95,-1.96 3.93,-3.95 5.95,-5.98 -24.17,-14.72 -44.58,-35 -59.46,-59.05 l -12.4,12.47 -28.77,28.93 v 0 l -27.12,27.27 c 17.44,23.44 30.55,39.84 58.98,59.55 v 0 c 0,0 0.03,-0.02 0.07,-0.06 0,-0.01 0.02,-0.02 0.03,-0.03 0.05,-0.05 0.12,-0.12 0.21,-0.22 0,0 0.02,-0.02 0.02,-0.02 0.1,-0.1 0.22,-0.22 0.36,-0.36 0,0 0.02,-0.02 0.02,-0.02 0.13,-0.13 0.29,-0.29 0.45,-0.46 0.05,-0.05 0.1,-0.1 0.16,-0.16 0.83,-0.83 2.03,-2.04 3.58,-3.61 0.11,-0.11 0.22,-0.22 0.33,-0.34 2.37,-2.39 5.49,-5.53 9.3,-9.36 0.11,-0.11 0.22,-0.22 0.33,-0.33 7.17,-7.21 16.68,-16.78 27.99,-28.14 v 0 c 2.56,-2.58 5.23,-5.26 7.97,-8.01 1.64,-1.65 3.31,-3.33 5.01,-5.04 1.63,-1.64 3.3,-3.32 4.99,-5.01 z"
       id="path8" />
    <path
       class="cls-1"
       d="m 664.03,394.48 c 1.79,-1.79 3.54,-3.55 5.26,-5.28 0.76,-0.76 1.51,-1.52 2.25,-2.26 0.2,-0.2 0.39,-0.39 0.59,-0.59 2.01,-2.02 3.97,-3.99 5.88,-5.9 v 0 c 6.34,-6.36 12.1,-12.15 17.18,-17.25 1.06,-1.06 2.09,-2.1 3.09,-3.1 0.49,-0.49 0.97,-0.98 1.45,-1.46 0.89,-0.89 1.76,-1.76 2.6,-2.61 0.88,-0.88 1.72,-1.73 2.54,-2.55 0.68,-0.69 1.35,-1.35 1.99,-2 0.09,-0.09 0.18,-0.18 0.27,-0.27 0.19,-0.19 0.38,-0.38 0.56,-0.57 0.4,-0.41 0.79,-0.8 1.18,-1.18 1.5,-1.51 2.87,-2.88 4.09,-4.1 0.2,-0.2 0.4,-0.41 0.6,-0.6 0.19,-0.19 0.37,-0.37 0.55,-0.55 0.33,-0.33 0.64,-0.64 0.94,-0.94 0.1,-0.1 0.21,-0.21 0.31,-0.31 0.07,-0.07 0.13,-0.13 0.2,-0.2 0.4,-0.4 0.77,-0.77 1.12,-1.12 0.18,-0.18 0.35,-0.35 0.52,-0.52 0.51,-0.51 0.96,-0.96 1.34,-1.35 0.1,-0.1 0.2,-0.2 0.29,-0.29 0.08,-0.08 0.15,-0.15 0.22,-0.22 0.14,-0.14 0.27,-0.27 0.38,-0.38 0.02,-0.02 0.03,-0.03 0.05,-0.05 0.14,-0.14 0.27,-0.27 0.37,-0.36 0,0 0.01,-0.01 0.02,-0.02 0.1,-0.1 0.17,-0.17 0.22,-0.22 0,0 0.02,-0.02 0.02,-0.02 0.04,-0.04 0.07,-0.07 0.07,-0.07 -20.39,-26.79 -32.63,-41.73 -59.02,-59.8 l -26.94,27.09 v 0 l -37.71,37.92 -3.83,3.85 c 24.18,14.78 44.58,35.13 59.44,59.26 0.91,-0.91 1.8,-1.81 2.69,-2.7 0.53,-0.53 1.06,-1.06 1.58,-1.59 2.61,-2.63 5.17,-5.19 7.66,-7.69 z"
       id="path9" />
  </g>
  <path
     class="cls-1"
     d="m 497.89,543.32 c -27.76,0 -54.05,-6.34 -77.51,-17.67 -9.21,9.26 -17.92,18.01 -25.96,26.09 30.71,16.86 65.97,26.46 103.48,26.46 37.51,0 72.74,-9.59 103.44,-26.44 -8.04,-8.09 -16.74,-16.84 -25.95,-26.1 -23.46,11.32 -49.74,17.66 -77.49,17.66 z"
     id="path10" />
  <path
     class="cls-1"
     d="m 686.24,258.62 c -8.18,8.21 -17.04,17.11 -26.43,26.54 8.37,17.6 13.98,36.78 16.29,56.97 0.02,0.15 0.04,0.31 0.05,0.46 0.16,1.39 0.29,2.79 0.42,4.19 0.03,0.36 0.07,0.72 0.1,1.08 0.1,1.22 0.18,2.44 0.26,3.67 0.03,0.48 0.06,0.95 0.09,1.43 0.06,1.17 0.11,2.35 0.15,3.53 0.02,0.49 0.04,0.98 0.06,1.47 0.04,1.59 0.07,3.19 0.07,4.79 0,0.05 0,0.1 0,0.16 0,0 0,0 0,0 0,0 0,0 0,0.01 0,1.67 -0.03,3.33 -0.07,4.99 -0.01,0.37 -0.03,0.74 -0.04,1.1 -0.04,1.32 -0.1,2.64 -0.17,3.96 -0.02,0.34 -0.04,0.67 -0.06,1.01 -0.08,1.39 -0.18,2.79 -0.3,4.17 -0.02,0.19 -0.03,0.39 -0.05,0.58 -1.9,22.04 -7.74,42.94 -16.81,61.99 l 26.43,26.56 c 17.16,-30.91 26.95,-66.49 26.95,-104.35 0,-37.86 -9.78,-73.41 -26.93,-104.31 z"
     id="path11" />
  <g
     id="g13"
     transform="translate(-1.33,-137.47)">
    <path
       class="cls-1"
       d="m 380.3,320.93 -43.14,-43.41 c -27.44,22.12 -41.49,35.43 -59.12,60.01 l 42.49,42.78 v 0 l 25.88,26.06 c 14.93,-24.22 35.45,-44.62 59.76,-59.4 l -25.86,-26.03 v 0 z"
       id="path12" />
    <path
       class="cls-1"
       d="m 720.4,663.14 -27.18,-27.35 v 0 l -40.97,-41.22 v 0 l -0.21,-0.21 c -14.95,24.25 -35.5,44.68 -59.85,59.47 l 24.68,24.85 16.78,16.89 v 0 l 27.18,27.36 c 27.13,-20.87 41.96,-34.41 59.57,-59.8 v 0 z"
       id="path13" />
  </g>
  <path
     class="cls-1"
     d="m 359.44,342.35 c 94.83,-95.17 187.58,-94.17 276.89,1.09 C 620.74,264.07 558.89,222.41 497.6,222.05 420.44,226.3 371.66,274 359.44,342.35 Z"
     id="path14" />
  <path
     class="cls-1"
     d="m 636.39,384.02 c -94.85,95.15 -187.71,94.01 -277.01,-1.26 15.57,79.37 76.87,120.5 138.15,120.86 77.16,-4.24 126.62,-51.25 138.86,-119.61 v 0 z"
     id="path15" />
  <path
     class="cls-1"
     d="m 497.89,293.8 c -38.13,0 -69.04,30.91 -69.04,69.04 0,38.13 30.91,69.04 69.04,69.04 38.13,0 69.04,-30.91 69.04,-69.04 0,-38.13 -30.91,-69.04 -69.04,-69.04 z m 0,114.28 c -24.99,0 -45.24,-20.25 -45.24,-45.24 0,-24.99 20.25,-45.24 45.24,-45.24 24.99,0 45.24,20.25 45.24,45.24 0,24.99 -20.25,45.24 -45.24,45.24 z"
     id="path16" />
  <circle
     class="cls-1"
     cx="497.89001"
     cy="362.84"
     r="33.07"
     id="circle16" />
</svg>
