<svg xmlns="http://www.w3.org/2000/svg" xmlns:xlink="http://www.w3.org/1999/xlink" width="84.789" height="96.2"><path id="a" d="M16.498 0h51.793c1.67 2.187 6.944 7.87 16.498 8.781-.54 12.202-5.76 21.352-12.182 27.356-5.134 4.8-11.075 7.437-15.539 8.101 1.462-2.46 2.51-4.886 2.717-7.193.31-3.466-.757-6.611-2.535-9.102-3.555-4.98-9.63-7.693-14.855-7.693s-11.3 2.712-14.856 7.693c-1.778 2.49-2.846 5.636-2.535 9.102.207 2.307 1.255 4.733 2.717 7.193-4.464-.664-10.405-3.301-15.54-8.101C5.76 30.133.54 20.983 0 8.78 9.554 7.871 14.828 2.187 16.498 0"/><use xlink:href="#a" width="130" height="113" transform="rotate(180 42.395 48.1)"/></svg>