<svg xmlns="http://www.w3.org/2000/svg" width="189.69" height="131.377" viewBox="0 0 50.189 34.761"><path d="M7.14 0c1.316.66 2.59 1.753 4.167 1.517 3.372-.388 6.83-1.969 10.212-.713 1.828.579 2.992 2.184 3.902 3.775 1.972-2.11 4.96-2.766 7.747-2.639 3.274-.035 6.558 1.267 9.797.307.14.572.092 1.231.413 1.74.758.458 1.622.716 2.37 1.202.25.48.332 1.027.43 1.556a3813 3813 0 0 0 3.927 24.366c.138.621.222 1.733-.716 1.644-4.914-.388-9.853-1.069-14.792-.6-2.09.237-4.21.682-6.04 1.754-1.562.935-3.49.995-5.238.68-1.496-.377-2.738-1.4-4.24-1.777-4.957-1.372-10.14-.674-15.188-.328-1.295.12-2.596.395-3.891.151.875-7.351 2.138-14.657 3.17-21.992.34-1.813.488-3.665.929-5.454.783-.546 1.69-.867 2.55-1.263.16-1.308.318-2.62.49-3.926m8.038 1.986c-2.3.505-4.897 1.496-7.11.173-.955 8.308-1.837 16.63-2.871 24.93 6.428-1.428 13.805-1.146 19.213 3.02.03-7.782-.014-15.564.017-23.346.13-1.76-.931-3.43-2.36-4.378-2.056-1.288-4.642-.879-6.89-.399m10.7 3.831c-.08 8.072.08 16.158.074 24.236 5.412-4.025 12.697-4.388 19.079-2.956-1-7.786-2.05-15.565-2.978-23.358-3.803.36-7.55-1.05-11.35-.5-1.84.24-3.7 1.05-4.825 2.578m-20.694.766c-1.04 7.955-2.067 15.914-3.15 23.862 5.27-1.535 10.89-2.389 16.337-1.351 2.07.493 4.269 1.097 5.86 2.585-.364-.87-1.454-1.195-2.198-1.693-5.73-2.745-12.4-2.364-18.48-1.192.96-7.592 1.963-15.18 2.905-22.776q-.64.28-1.274.565m38.372-.554c.995 7.606 2.12 15.198 3.193 22.796-4.082-1.005-8.358-1.372-12.531-.765-2.907.44-5.85 1.415-8.09 3.38 1.85-1.172 3.867-2.1 6.026-2.516 5.39-1.062 11.003-.158 16.126 1.68-1.157-7.977-2.244-15.964-3.45-23.936q-.64-.325-1.274-.639"/></svg>