<svg xmlns="http://www.w3.org/2000/svg" width="299.606" height="261.949" viewBox="-144.341 -145.052 299.606 261.949"><path fill="gray" d="M154.311-9.604c-4.807-35.311-34.843-57.824-52.368-68.111l-.259-.13c-4.138-2.249-13.055-7.367-21.609-13.157 7.471-1.913 13.078-6.928 15.974-14.346 3.853-9.926-2.224-20.576-9.226-27.245-8.143-7.806-20.448-12.459-32.96-12.459-12.354 0-24.503 4.913-32.567 13.132-6.204 6.281-9.538 14.191-9.384 22.178.207 10.107 5.3 17.5 11.037 24.763 3.205 4.11 13.027 10.573 21.74 16.259 4.858 3.153 9.484 6.204 12.174 8.323-17.99 2.12-27.193 13.958-30.062 18.327-4.344-9.435-7.91-20.912-12.46-37.195-2.042-7.238-7.962-28.021-7.962-28.021l-.905-3.102-.956 3.102S-1.4-86.503-3.418-79.265C-7.993-62.982-11.56-51.505-15.9-42.07c-2.817-4.369-12.07-16.208-30.062-18.327 2.688-2.119 7.341-5.17 12.174-8.323 8.686-5.687 18.534-12.149 21.74-16.259 5.712-7.264 10.881-14.656 11.036-24.763.156-7.987-3.179-15.896-9.383-22.178-8.064-8.219-20.239-13.132-32.569-13.132-12.51 0-24.814 4.653-32.957 12.459-7.005 6.669-13.054 17.319-9.229 27.245 2.896 7.418 8.504 12.433 15.948 14.346-8.504 5.79-17.42 10.908-21.583 13.157l-.258.13c-17.526 10.288-47.587 32.801-52.343 68.111-4.394 32.62 6.436 63.56 31.405 89.461 8.375 8.686 30.786 28.976 58.366 30.216 7.987.338 17.835-2.507 29.416-8.477 2.663-1.682 20.626 1.42 29.002 14.14l.671 1.161.596-1.188c8.4-12.717 26.365-15.819 29.027-14.14 11.58 5.997 21.43 8.814 29.39 8.479 27.582-1.242 50.02-21.506 58.366-30.219 24.998-25.873 35.854-56.813 31.46-89.433"/><path d="M145.912-8.467C141.644-40.235 113.86-60.888 97.703-70.4c0 0-29.622-15.897-40.658-28.745-3.077-3.567-4.783-7.573-4.292-11.347.75-5.506 9.254-10.21 16.258-4.369 8.014 6.695-2.944 15.147-2.944 15.147s16.567 5.531 22.1-8.711c2.247-5.816-2.276-13.364-7.16-18.017-6.618-6.332-16.777-10.131-27.143-10.131-17.497 0-33.706 11.967-33.446 26.675.128 6.695 3.05 12.174 9.125 19.516 7.856 9.59 44.742 26.495 68.858 55.988 15.305 18.637 21.558 46.786 15.354 70.18-5.943 22.28-25.15 44.976-50.609 45.492-2.095.053-5.17.414-8.169-2.275-3.309-3.05-2.74-10.597 1.914-17.111 4.29-5.944 13.646-11.553 22.8-15.275 10.645-4.344 22.796-9.952 23.081-19.464.205-5.972-1.656-9.668-1.656-9.668s-3.282 7.107-9.796 6.746c-3.9-.206-7.729-1.085-9.1-3.515-4.238-7.42 11.66-25.564 3.232-37.688C77.13-28.889 58-28.526 55.312-36.668c-3.8-11.554 11.53-14.476 11.53-14.476-15.976-4.239-26.419 6.023-30.529 10.21-7.158 7.29-2.455 17.268 2.198 20.085C53.451-11.698 56.913 1.768 55.21 7.56c-1.525 4.987-6.488 8.916-11.375 8.943 1.655-4.421 3.645-14.062-5.557-25.41C22.59-28.267 15.66-41.347 6.15-77.122l-.724-2.506-.672 2.506C-4.76-41.348-11.66-28.292-27.377-8.907c-9.202 11.348-7.212 20.989-5.558 25.41-4.886-.027-9.848-3.956-11.373-8.919-1.733-5.816 1.732-19.256 16.698-28.432 4.626-2.818 9.383-12.795 2.224-20.085-4.137-4.187-14.605-14.423-30.554-10.21 0 0 15.33 2.895 11.502 14.449-2.663 8.169-21.764 7.806-30.088 19.723-8.45 12.123 7.42 30.268 3.206 37.661-1.37 2.456-5.195 3.335-9.072 3.541-6.54.361-9.849-6.746-9.849-6.746s-1.835 3.696-1.654 9.668c.31 9.512 12.433 15.12 23.057 19.464 9.202 3.747 18.56 9.355 22.824 15.275 4.68 6.488 5.221 14.037 1.94 17.111-2.974 2.689-6.075 2.328-8.196 2.275-25.435-.517-44.667-23.212-50.585-45.492-6.204-23.421.026-51.542 15.33-70.18 24.141-29.493 61.027-46.397 68.91-55.988 6.075-7.367 8.97-12.847 9.1-19.542.258-14.708-15.948-26.676-33.474-26.676-10.392 0-20.498 3.8-27.116 10.133-4.859 4.653-9.408 12.226-7.16 18.042 5.533 14.243 22.101 8.711 22.101 8.711s-10.96-8.453-2.973-15.147c7.03-5.842 15.51-1.137 16.284 4.369.491 3.774-1.188 7.779-4.29 11.322-11.038 12.873-40.66 28.77-40.66 28.77-16.182 9.512-43.944 30.165-48.208 61.933-4.032 29.983 6.022 58.469 29.104 82.404 12.874 13.338 35.362 29.105 55.006 27.529 7.91-.569 19.128-3.128 27.865-11.607 3.49-3.411 4.99-7.624 4.55-12.639-.88-9.177-8.66-18.999-15.537-23.574-17.886-11.865-21.325-22.67-21.48-28.821 4.265 3.567 14.682 6.593 14.682 6.593 22.462 7.546 27.994 20.058 36.033 48.827l.646 2.353.75-2.327c4.784-15.484 7.421-26.752.7-41.695-4.834-10.829-6.798-19.826-6.255-28.33C-8.3.476-1.709-7.744 5.451-15.162 12.611-7.743 19.227.476 19.85 10.246c.57 8.53-1.448 17.552-6.308 28.33-6.72 14.942-4.057 26.211.75 41.694l.697 2.327.647-2.353c8.063-28.77 13.596-41.281 36.032-48.827 0 0 10.443-3.025 14.682-6.593-.155 6.151-3.566 16.956-21.454 28.821-6.849 4.575-14.63 14.397-15.509 23.574-.49 4.989 1.061 9.229 4.523 12.639 8.736 8.479 20.008 11.038 27.864 11.607 19.645 1.576 42.158-14.191 55.032-27.529 23.058-23.934 33.165-52.419 29.108-82.403"/></svg>