<svg xmlns="http://www.w3.org/2000/svg" width="282.665" height="238.175" viewBox="-144.341 -145.052 282.665 238.175"><path d="M137.449-16.919c-4.267-31.768-32.053-52.421-48.208-61.933 0 0-29.622-15.897-40.658-28.745-3.077-3.567-4.783-7.573-4.292-11.347.749-5.506 9.254-10.21 16.258-4.369 8.014 6.695-2.944 15.147-2.944 15.147s16.567 5.531 22.1-8.711c2.247-5.816-2.276-13.364-7.16-18.017-6.618-6.332-16.777-10.131-27.143-10.131-17.497 0-33.706 11.967-33.446 26.675.128 6.695 3.05 12.174 9.125 19.516 7.856 9.59 44.742 26.495 68.858 55.988 15.305 18.637 21.558 46.786 15.354 70.18-5.943 22.28-25.15 44.976-50.61 45.492-2.094.053-5.17.414-8.168-2.275-3.31-3.05-2.74-10.597 1.914-17.111 4.29-5.944 13.646-11.553 22.799-15.275 10.646-4.344 22.797-9.952 23.082-19.464.205-5.972-1.656-9.668-1.656-9.668s-3.282 7.107-9.796 6.746c-3.901-.206-7.73-1.085-9.1-3.515-4.238-7.42 11.66-25.564 3.232-37.688-8.323-11.917-27.452-11.554-30.14-19.696-3.801-11.554 11.53-14.476 11.53-14.476-15.976-4.239-26.42 6.023-30.53 10.21-7.157 7.29-2.454 17.268 2.199 20.085C44.989-20.15 48.45-6.684 46.747-.892c-1.525 4.987-6.488 8.916-11.375 8.943 1.655-4.421 3.645-14.062-5.557-25.41-15.69-19.36-22.617-32.44-32.13-68.215l-.723-2.506-.672 2.506c-9.512 35.774-16.414 48.83-32.13 68.215-9.201 11.348-7.211 20.989-5.556 25.41-4.886-.027-9.848-3.956-11.373-8.919-1.733-5.816 1.732-19.256 16.698-28.432 4.626-2.818 9.383-12.795 2.224-20.085-4.137-4.187-14.605-14.423-30.554-10.21 0 0 15.329 2.895 11.502 14.449-2.663 8.169-21.764 7.806-30.088 19.723-8.451 12.123 7.419 30.268 3.206 37.661-1.37 2.456-5.195 3.335-9.072 3.541-6.54.361-9.85-6.746-9.85-6.746s-1.834 3.696-1.653 9.668c.31 9.512 12.433 15.12 23.057 19.464 9.202 3.747 18.559 9.355 22.824 15.275 4.679 6.488 5.22 14.037 1.939 17.111-2.973 2.689-6.074 2.328-8.195 2.275-25.435-.517-44.667-23.212-50.585-45.492-6.204-23.421.026-51.542 15.329-70.18 24.142-29.493 61.028-46.397 68.91-55.988 6.076-7.367 8.97-12.847 9.1-19.542.259-14.708-15.947-26.676-33.473-26.676-10.392 0-20.498 3.8-27.116 10.133-4.86 4.653-9.408 12.226-7.16 18.042 5.533 14.243 22.1 8.711 22.1 8.711s-10.96-8.453-2.972-15.147c7.03-5.842 15.51-1.137 16.284 4.369.49 3.774-1.188 7.779-4.29 11.322-11.038 12.873-40.661 28.77-40.661 28.77-16.181 9.512-43.943 30.165-48.207 61.933-4.032 29.983 6.022 58.469 29.104 82.404 12.874 13.338 35.362 29.105 55.006 27.529 7.91-.569 19.128-3.128 27.865-11.607 3.49-3.411 4.989-7.624 4.549-12.639-.88-9.177-8.66-18.999-15.536-23.574-17.886-11.865-21.325-22.67-21.48-28.821 4.265 3.567 14.682 6.593 14.682 6.593 22.462 7.546 27.994 20.058 36.033 48.827l.646 2.353.749-2.327c4.785-15.484 7.422-26.752.7-41.695-4.833-10.829-6.797-19.826-6.254-28.33.647-9.77 7.238-17.99 14.398-25.408C4.148-16.195 10.765-7.976 11.386 1.794c.569 8.53-1.448 17.552-6.308 28.33-6.72 14.942-4.057 26.211.75 41.694l.697 2.327.647-2.353c8.063-28.77 13.596-41.281 36.032-48.827 0 0 10.443-3.025 14.682-6.593-.155 6.151-3.566 16.956-21.454 28.821-6.85 4.575-14.63 14.397-15.51 23.574-.49 4.989 1.062 9.229 4.524 12.639 8.736 8.479 20.008 11.038 27.864 11.607 19.645 1.576 42.158-14.191 55.032-27.529 23.057-23.934 33.165-52.419 29.107-82.403"/></svg>