<svg xmlns="http://www.w3.org/2000/svg" xmlns:xlink="http://www.w3.org/1999/xlink" width="600" height="784.673"><linearGradient id="a" x1="0" x2="1" y1="0" y2="0" gradientTransform="matrix(21.07715 0 0 -21.07715 616.136 419.861)" gradientUnits="userSpaceOnUse" spreadMethod="pad"><stop offset="0" style="stop-color:#612c75"/><stop offset=".3" style="stop-color:#7b5190"/><stop offset=".5" style="stop-color:#bf99c3"/><stop offset=".7" style="stop-color:#7b5190"/><stop offset="1" style="stop-color:#612c75"/></linearGradient><radialGradient id="b" cx="0" cy="0" r="1" fx="0" fy="0" gradientTransform="matrix(13.8413 0 0 -13.8413 626.54 439.052)" gradientUnits="userSpaceOnUse" spreadMethod="pad"><stop offset="0" style="stop-color:#bf99c3"/><stop offset=".85" style="stop-color:#7b5190"/><stop offset="1" style="stop-color:#612c75"/></radialGradient><linearGradient xlink:href="#a" id="d" x1="0" x2="1" y1="0" y2="0" gradientTransform="translate(95.921 676.44)scale(413.46658)" gradientUnits="userSpaceOnUse" spreadMethod="pad"/><radialGradient xlink:href="#b" id="c" cx="0" cy="0" r="1" fx="0" fy="0" gradientTransform="translate(300.02 299.976)scale(271.52244)" gradientUnits="userSpaceOnUse" spreadMethod="pad"/><path fill="#fff" d="M106.52 302.452c.528 37.625 17.164 75.858 45.981 105.068 23.364 23.756 65.285 52.102 131.786 52.102 111.737 0 147.813-98.555 147.813-146.283 0-45.903-37.39-83.214-83.293-83.214-45.884 0-83.293 37.311-83.293 83.214 0 28.74 16.164 59.616 36.016 68.973 15.87 7.415 24.757 24.737 21.147 40.98-2.825 12.731-14.634 27.444-38.684 27.444-7.278 0-15.635-1.315-25.443-3.826-54.555-14.575-92.415-35.643-135.415-104.91-7.043-11.339-12.555-24.6-16.616-39.548M300 600C134.63 600 0 465.37 0 300 0 134.571 134.63 0 300 0c165.448 0 300 134.571 300 300 0 165.37-134.552 300-300 300m6.827 184.673c-154.718 0-228.281-74.78-231.341-77.997l-9.73-9.887-4.905-5.14 3.433-6.12 64.069-117.092 4.669-8.436 8.435 4.67 16.556 9.278c.686.392 76.31 41.45 150.952 41.45 71.19 0 126.371-39.763 128.745-41.45l16.321-12.34 8.337-6.355 5.61 8.886 72.642 115.936 3.668 5.826-4.296 5.297-8.572 10.495c-2.688 3.374-69.267 82.979-224.593 82.979"/><path d="M28.503 300c0 149.97 121.546 271.497 271.497 271.497 149.97 0 271.575-121.526 271.575-271.497 0-149.95-121.604-271.575-271.575-271.575C150.049 28.425 28.503 150.05 28.503 300m49.592.765c0-88.197 55.084-132.256 55.084-132.256s-20.54 102.615 14.104 158.464c37.86 60.93 68.894 79.154 118.623 92.337 36.468 9.73 31.328-7.572 23.52-11.26-30.268-14.262-52.416-54.79-52.416-94.71 0-61.695 50.121-111.718 111.797-111.718 61.773 0 111.737 50.023 111.737 111.718 0 61.38-45.61 174.707-176.257 174.707-130.648 0-206.192-99.163-206.192-187.282" style="fill:url(#c)"/><path d="M308.965 643.903c-83.98 0-164.742-45.119-164.742-45.119l-48.277 88.197s67.129 69.189 210.88 69.189c143.753 0 202.603-72.327 202.603-72.327l-54.633-87.138s-61.93 47.198-145.831 47.198" style="fill:url(#d)"/></svg>