<svg xmlns="http://www.w3.org/2000/svg" width="599.999" height="875.048"><radialGradient id="a" cx="0" cy="0" r="1" fx="0" fy="0" gradientTransform="translate(299.989 437.543)scale(325.82193)" gradientUnits="userSpaceOnUse" spreadMethod="pad"><stop offset="0" style="stop-color:#f6b91d"/><stop offset=".7" style="stop-color:#d3641c"/><stop offset="1" style="stop-color:#bf331c"/></radialGradient><path d="M452.356 875.045c-17.085 0-34.696-5.469-49.746-10.676l-4.18-1.377c-23.08-7.175-45.283-11.354-65.89-12.557a508 508 0 0 0-25.026-.59c-12.141 0-24.195.35-36.227.678l-2.32.087c-12.381.438-24.785.767-37.342.767-4.44 0-8.97-.088-13.497-.175h-3.763c-10.085 0-40.602.35-108.178 4.025-3.347.175-6.41.262-9.406.262-45.897 0-67.16-20.432-76.83-37.605C5.164 792.07 6.105 766.87 12.6 746.7c-3.587-5.206-6.824-11.288-9.143-18.2-4.528-13.673-6.825-35.374 7.525-61.363 22.817-41.171 54.953-64.841 83.24-85.711 9.384-6.826 18.463-13.498 27.082-20.673-.35-2.472-.942-5.12-1.881-7.766-.853-2.057-3.588-3.85-14.79-9.582l-6.41-3.325c-13.146-6.935-35.022-18.551-45.873-42.046-21.285-46.071 14.438-86.39 40.493-111.437-13.498-27.936-30.32-73.395-30.32-125.263C62.523 117.256 179.757 0 323.746 0c144.076 0 261.31 117.256 261.31 261.333 0 58.365-33.317 103.386-55.958 127.144 15.97 13.41 27.432 30.67 32.9 50.928 8.117 29.314-1.465 73.416-21.284 98.18-2.144 2.581-4.266 5.053-6.585 7.438 29.992 11.966 51.453 34.52 60.838 63.922 10.697 33.58 4.112 72.213-17.59 103.234-2.405 3.412-6.168 8.794-11.374 14.525 1.29 4.879 2.23 9.823 2.56 14.789 1.29 24.939-8.883 51.43-27.434 71.01-9.56 10.085-20.673 17.523-32.551 21.876l-.33.942-3.26 6.234-2.56 5.12c-4.2 8.465-17.696 28.373-50.073 28.373" style="fill:#fff"/><path d="M129.945 458.282c-11.2 24.698 19.82 21.876 35.199 30.78 10.085 5.797 19.316 12.82 24.96 22.642 6.563 11.528 16.998 32.814 18.442 43.665 0 0 35.46-11.53 51.803-53.838 0 0 56.637 4.113 77.835-1.356 21.11-5.47 34.018-14.373 34.018-14.373-25.224 1.378-51.781-3.412-51.781-3.412s15.707-38.196 43.315-62.632c42.81-37.78 143.989-29.992 160.396 29.992 4.878 18.026-2.472 48.697-14.09 63.223-10.784 13.432-26.25 23.166-40.426 32.66-30.67 20.411-63.42 31.524-98.88 40.493-42.812 10.939-98.771 8.204-98.771 8.204s-57.337 27.258-109.906 44.693c-31.698 10.435-55.456 35.374-66.22 68.035 1.97 0 68.277-59.569 168.338-52.218 23.254 1.706 47.515 5.731 70.507.679 55.98-12.142 61.69-46.312 83.326-57.163 29.993-14.963 65.104-29.992 98.859-17.873 49.812 17.873 53.925 72.476 28.286 109.228-5.885 8.444-15.292 20.585-27.608 23.32 0 0 11.113 18.792 11.79 30.67 1.466 28.133-26.732 65.038-57.577 54.188-17.96-6.41-25.223-30.343-21.023-47.34 2.472-9.91 7.854-15.904 17.764-18.464 23.079-5.819 35.46 10.938 35.46 10.938-2.734-19.054 3.173-38.633-36.576-47.602-37.168-8.379-58.606 8.116-82.19 8.028-35.482-.07-57.271 0-95.38-4.681-39.99-5.054-98.354 6.06-118.852 14.263-13.257 5.294-38.284 16.057-43.074 32.902-10.61 37.167 69.719 4.878 79.979 2.56 44.605-9.823 86.564-10.501 132.285-10.939 24.108-.175 54.603 1.38 74.948 4.354 2.822 50.337 19.229 62.565 58.103 75.472-1.97 3.829-3.85 7.766-5.82 11.617-7.853 15.729-46.727-.35-57.337-3.588-24.348-7.438-49.987-12.645-75.363-14.11-38.961-2.297-76.567 1.619-115.616.677 0 0-26.492-.765-115.112 4.025-28.964 1.62-43.49-6.234-49.9-17.523-18.725-32.989 7.767-60.4 7.767-60.4-3.063-1.291-35.724-16.932-16.408-51.89 28.199-50.928 73.745-68.954 114.26-106.887 0 0 4.44-19.142-3.588-40.34-7.263-19.054-23.167-25.048-39.574-33.58-10.413-5.556-23.233-12.556-28.46-23.757-14.68-31.961 35.57-67.947 53.77-87.505 0 0-40.01-59.131-40.01-132.788 0-122.638 99.383-222.021 221.933-222.021 122.703 0 222 99.383 222 222.021 0 68.188-60.926 114.762-60.926 114.762-50.84-15.641-90.502-6.322-122.288 12.82-57.753 34.761-71.863 91.945-71.863 91.945-44.78-6.76-94.155-31.195-123.294-60.334 0 0-35.046 32.464-37.43 37.758" style="fill:#bf331c"/><path d="M112.75 261.243c0 69.304 37.693 126.204 38.131 126.816l4.769 7.176-5.797 6.322c-3.675 3.916-8.641 8.532-14.023 13.585-18.463 17.348-46.4 43.315-37.846 61.866 3.763 8.203 15.292 14.263 23.583 18.704l5.797 2.91c15.313 7.787 31.02 15.729 39.071 36.489 9.057 24.02 4.178 45.809 3.916 46.662l-.766 3.238-2.384 2.318c-14.286 13.323-28.986 24.174-43.25 34.696-26.492 19.47-51.43 37.933-68.953 69.479-4.529 8.116-5.82 15.291-3.763 21.263 3.238 9.91 14.613 15.139 15.116 15.314l14.023 6.388-10.588 11.2c-.853.853-20.607 22.226-6.17 47.428 4.53 8.116 15.642 12.14 33.165 12.14 2.144 0 4.266 0 6.672-.087 68.954-3.762 100.565-4.178 111.088-4.178h4.769q6.125.197 12.228.153c12.645 0 25.29-.328 37.868-.765 12.557-.416 25.114-.766 37.67-.766q14.09 0 28.287.766c24.523 1.378 50.687 6.234 77.857 14.525 1.444.525 3.5 1.204 5.885 1.97 8.728 2.996 23.167 7.94 33.251 7.94 3.938 0 5.207-.765 5.207-.765l.35-.504c-32.486-12.644-48.806-28.964-52.984-71.863-17.348-1.969-40.165-3.172-61.013-3.172l-3.675.088c-47.952.35-87.942 1.378-130.054 10.588-1.378.35-4.2 1.29-8.05 2.494-14.767 4.856-39.552 12.972-57.84 12.972q-16.933 0-24.108-9.472c-2.975-4.025-5.972-11.113-2.822-22.226 5.731-20.258 29.489-32.049 49.571-40.078 19.557-7.853 63.572-16.32 100.827-16.32 8.204 0 16.08.438 23.43 1.292 36.227 4.528 56.812 4.615 91.005 4.681h2.997c7.263 0 14.766-2.034 25.53-4.856 11.2-2.822 22.225-5.47 35.81-5.47 7.788 0 15.38.766 23.255 2.648 19.316 4.265 29.905 11.528 35.877 19.644l9.581-2.122c9.232-2.056 17.676-14.285 20.936-18.9 12.557-18.114 16.735-40.844 10.85-59.285-4.965-15.642-16.757-27.28-33.93-33.427-7-2.56-14.35-3.763-22.291-3.763-23.517 0-47.428 10.938-67.948 21.286-5.469 2.647-9.997 7.941-15.882 14.788-12.491 14.526-29.576 34.433-70.003 43.14a131.3 131.3 0 0 1-27.411 2.735c-11.026 0-21.964-1.007-32.574-2.035-4.528-.437-9.144-.853-13.585-1.116a197 197 0 0 0-16.145-.612c-34.52 0-87.089 8.378-141.692 48.456-3.828 2.822-5.972 4.375-9.734 4.375H80.724l4.682-14.373c11.966-36.227 38.633-63.572 73.154-74.926 51.365-17.107 108.177-44.015 108.702-44.277l2.472-1.203 2.735.175c.175 0 6.234.262 15.816.262 17.851 0 51.956-1.028 79.717-8.028 29.577-7.613 63.922-18.026 95.555-39.137l3.5-2.319c12.557-8.378 25.64-17.085 34.433-28.023 9.823-12.316 15.904-39.312 12.054-53.575-9.057-33.164-48.193-44.955-79.06-44.955-25.29 0-49.047 7.613-63.485 20.345-15.729 13.913-27.608 33.054-34.17 45.633 7.175.766 16.494 1.532 25.966 1.532q4.463-.022 8.882-.175l39.05-2.122-32.29 22.029c-.59.437-14.788 9.997-37.605 15.904-8.291 2.144-21.198 3.15-39.312 3.15-13.235 0-26.23-.59-34.17-1.006-19.054 40.58-53.838 52.371-55.456 52.896l-12.58 4.179-1.618-13.257c-1.028-7.679-9.647-26.558-17.085-39.552-3.85-6.76-10.523-12.645-20.936-18.639-3.237-1.881-8.378-3.238-13.41-4.703-10.61-2.888-22.642-6.235-27.608-16.998-3.084-6.585-2.647-14.35 1.291-23.08.919-1.946 3.325-7.262 39.99-41.258l7.678-7.175 7.438 7.503c25.902 25.902 68.45 47.515 108.178 55.631a176.1 176.1 0 0 1 73.679-88.948 149.4 149.4 0 0 1 78.273-22.226 175 175 0 0 1 46.99 6.672c13.082-11.529 52.634-50.753 52.634-102.709 0-116.315-94.68-210.995-210.974-210.995-116.381 0-211.083 94.68-211.083 210.995M513.96 733.2c.262 2.734.437 5.469.765 8.29l2.144 14.855q1.794-6.279 1.532-12.032c-.241-3.675-2.297-9.407-4.682-14.876zm-42.812 9.472c-5.731 1.466-8.291 4.288-9.822 10.523-3.085 12.469 2.384 30.167 14.022 34.345q3.785 1.29 7.591 1.29c7.35 0 15.051-3.85 21.702-10.85 2.318-2.494 4.462-5.294 6.344-8.203l-15.817-20.17a22.1 22.1 0 0 0-17.085-7.788 28.4 28.4 0 0 0-6.935.853" style="fill:url(#a);stroke-width:21.8762"/></svg>