<svg xmlns="http://www.w3.org/2000/svg" width="599.999" height="875.048"><radialGradient id="a" cx="0" cy="0" r="1" fx="0" fy="0" gradientTransform="translate(299.988 437.543)scale(325.82193)" gradientUnits="userSpaceOnUse" spreadMethod="pad"><stop offset="0" style="stop-color:#bf99c3"/><stop offset=".663" style="stop-color:#7b5190"/><stop offset="1" style="stop-color:#612c75"/></radialGradient><path d="M452.356 875.045c-17.085 0-34.696-5.469-49.746-10.676l-4.18-1.377c-23.08-7.175-45.283-11.354-65.89-12.557a508 508 0 0 0-25.026-.59c-12.141 0-24.195.35-36.25.678l-2.296.087c-12.382.438-24.786.767-37.343.767-4.44 0-8.97-.088-13.497-.175h-3.763c-10.085 0-40.602.35-108.178 4.025-3.347.175-6.41.262-9.406.262-45.897 0-67.16-20.432-76.83-37.605C5.164 792.07 6.105 766.87 12.6 746.7c-3.587-5.206-6.824-11.288-9.143-18.2-4.528-13.673-6.825-35.374 7.525-61.363 22.817-41.171 54.953-64.841 83.24-85.711 9.384-6.826 18.44-13.498 27.082-20.673-.35-2.472-.942-5.12-1.881-7.766-.853-2.057-3.588-3.85-14.79-9.582l-6.41-3.325c-13.146-6.935-35.022-18.551-45.873-42.046-21.285-46.071 14.438-86.39 40.493-111.437-13.498-27.936-30.32-73.395-30.32-125.263C62.523 117.256 179.757 0 323.746 0c144.076 0 261.31 117.256 261.31 261.333 0 58.365-33.317 103.386-55.958 127.144 15.97 13.41 27.432 30.67 32.9 50.928 8.117 29.314-1.465 73.416-21.284 98.18-2.144 2.581-4.266 5.053-6.585 7.438 29.992 11.966 51.453 34.52 60.838 63.922 10.697 33.58 4.112 72.213-17.59 103.234-2.405 3.412-6.168 8.794-11.374 14.525 1.29 4.879 2.23 9.823 2.56 14.789 1.29 24.939-8.883 51.43-27.434 71.01-9.56 10.085-20.673 17.523-32.551 21.876l-.33.942-3.26 6.234-2.56 5.12c-4.177 8.465-17.696 28.373-50.073 28.373" style="fill:#fff"/><path d="M129.945 458.282c-11.2 24.698 19.82 21.876 35.199 30.78 10.085 5.797 19.316 12.82 24.96 22.642 6.563 11.528 16.998 32.814 18.442 43.665 0 0 35.46-11.53 51.78-53.838 0 0 56.66 4.113 77.858-1.356 21.11-5.47 34.018-14.373 34.018-14.373-25.224 1.378-51.781-3.412-51.781-3.412s15.707-38.196 43.315-62.632c42.81-37.78 143.989-29.992 160.396 29.992 4.878 18.026-2.472 48.697-14.09 63.223-10.784 13.432-26.25 23.166-40.426 32.66-30.67 20.411-63.42 31.524-98.88 40.493-42.812 10.939-98.771 8.204-98.771 8.204s-57.337 27.258-109.906 44.693c-31.698 10.435-55.456 35.374-66.22 68.035 1.97 0 68.277-59.569 168.338-52.218 23.254 1.706 47.515 5.731 70.507.679 55.98-12.142 61.69-46.312 83.326-57.163 29.993-14.963 65.104-29.992 98.859-17.873 49.812 17.873 53.925 72.476 28.286 109.228-5.907 8.444-15.292 20.585-27.608 23.32 0 0 11.113 18.792 11.79 30.67 1.466 28.133-26.732 65.038-57.577 54.188-17.96-6.41-25.223-30.343-21.023-47.34 2.472-9.91 7.854-15.904 17.764-18.464 23.079-5.819 35.46 10.938 35.46 10.938-2.734-19.054 3.173-38.633-36.576-47.602-37.168-8.379-58.606 8.116-82.19 8.028-35.482-.07-57.271 0-95.38-4.681-39.99-5.054-98.354 6.06-118.852 14.263-13.257 5.294-38.284 16.057-43.074 32.902-10.61 37.167 69.719 4.878 79.979 2.56 44.605-9.823 86.564-10.501 132.285-10.939 24.086-.175 54.603 1.38 74.948 4.354 2.822 50.337 19.229 62.565 58.103 75.472-1.97 3.829-3.85 7.766-5.82 11.617-7.853 15.729-46.727-.35-57.337-3.588-24.348-7.438-49.987-12.645-75.363-14.11-38.961-2.297-76.567 1.619-115.616.677 0 0-26.492-.765-115.112 4.025-28.964 1.62-43.49-6.234-49.9-17.523-18.725-32.989 7.767-60.4 7.767-60.4-3.063-1.291-35.724-16.932-16.408-51.89 28.199-50.928 73.745-68.954 114.26-106.887 0 0 4.44-19.142-3.588-40.34-7.263-19.054-23.167-25.048-39.574-33.58-10.413-5.556-23.233-12.556-28.44-23.757-14.7-31.961 35.528-67.947 53.75-87.505 0 0-40.011-59.131-40.011-132.788 0-122.638 99.384-222.021 221.934-222.021 122.703 0 222 99.383 222 222.021 0 68.188-60.926 114.762-60.926 114.762-50.84-15.641-90.48-6.322-122.288 12.82-57.753 34.761-71.863 91.945-71.863 91.945-44.78-6.76-94.155-31.195-123.316-60.334 0 0-35.024 32.464-37.408 37.758" style="fill:#612c75"/><path d="M112.75 261.243c0 69.304 37.693 126.204 38.043 126.816l4.856 7.176-5.797 6.322c-3.675 3.916-8.641 8.532-14.023 13.585-18.463 17.26-46.399 43.315-37.758 61.866 3.653 8.203 15.204 14.263 23.583 18.704l5.71 2.91c15.313 7.787 31.02 15.729 38.983 36.489 9.144 24.02 4.265 45.809 4.003 46.662l-.766 3.238-2.384 2.318c-14.285 13.323-28.986 24.174-43.25 34.696-26.491 19.47-51.518 37.933-68.953 69.479-4.528 8.116-5.82 15.291-3.763 21.263 3.238 9.91 14.614 15.139 15.03 15.314l14.022 6.388-10.5 11.2c-.876.853-20.608 22.226-6.17 47.428q6.847 12.163 33.164 12.14 3.063.023 6.673-.087c68.953-3.762 100.652-4.178 111-4.178h4.878q6.103.197 12.207.153c12.644 0 25.288-.328 37.867-.765 12.557-.416 25.027-.766 37.671-.766q14.088 0 28.286.766c24.523 1.378 50.687 6.234 77.857 14.525l5.797 1.97c8.729 2.996 23.255 7.94 33.34 7.94 4.09 0 5.294-.853 5.294-.853l.175-.416c-32.399-12.644-48.718-28.964-52.897-71.863-17.348-1.969-40.164-3.172-61.012-3.172l-3.676.088c-47.952.35-87.942 1.378-130.054 10.588a109 109 0 0 0-8.05 2.581c-14.766 4.77-39.552 12.885-57.753 12.885q-17.107 0-24.195-9.472c-3.063-4.025-5.972-11.113-2.822-22.226 5.731-20.258 29.489-32.049 49.484-40.078 19.666-7.853 63.747-16.32 100.915-16.32 8.116 0 16.166.438 23.429 1.292 36.227 4.528 56.812 4.615 91.005 4.681h2.997c7.328 0 14.854-2.034 25.551-4.856 11.091-2.822 22.205-5.47 35.702-5.47 7.788 0 15.38.766 23.342 2.648 19.23 4.265 29.905 11.528 35.877 19.644l9.494-2.122c9.232-2.056 17.851-14.372 21.11-18.9 12.558-18.027 16.67-40.756 10.764-59.285-4.966-15.642-16.67-27.28-33.93-33.427-7-2.56-14.351-3.763-22.292-3.763-23.583 0-47.428 10.938-67.947 21.198-5.47 2.735-9.998 8.029-15.795 14.876-12.579 14.526-29.664 34.433-70.091 43.14a131.3 131.3 0 0 1-27.433 2.735c-11.004 0-21.942-1.007-32.552-2.035-4.528-.437-9.144-.853-13.585-1.116q-8.313-.634-16.232-.612c-34.433 0-87.001 8.378-141.517 48.456-3.85 2.822-6.06 4.375-9.822 4.375H80.723l4.682-14.373c11.966-36.227 38.633-63.572 73.154-74.926 51.365-17.107 108.112-44.015 108.702-44.277l2.472-1.203 2.735.175c.087 0 6.147.262 15.729.262 17.85 0 52.043-1.028 79.892-8.028 29.489-7.526 63.834-18.026 95.467-39.137l3.5-2.319c12.557-8.378 25.64-17.085 34.434-28.023 9.822-12.316 15.97-39.312 12.053-53.575-9.056-33.164-48.193-44.955-79.06-44.955-25.289 0-49.134 7.613-63.485 20.345-15.816 13.913-27.608 33.054-34.258 45.633 7.263.766 16.56 1.532 26.055 1.532q4.462-.022 8.881-.175l39.071-2.122-32.31 22.029c-.592.437-14.79 9.997-37.606 15.904-8.291 2.144-21.198 3.15-39.311 3.15-13.236 0-26.23-.59-34.084-1.006-19.141 40.58-53.924 52.371-55.543 52.896l-12.579 4.179-1.706-13.257c-.941-7.679-9.56-26.558-16.998-39.552-3.85-6.673-10.5-12.645-20.936-18.639-3.26-1.881-8.466-3.238-13.41-4.703-10.61-2.888-22.663-6.235-27.607-16.998-3.085-6.585-2.647-14.35 1.29-23.08.941-1.946 3.325-7.262 39.99-41.258l7.678-7.175 7.438 7.503c25.902 25.902 68.363 47.515 108.178 55.631a176.32 176.32 0 0 1 73.591-88.948c24.524-14.788 50.928-22.226 78.36-22.226 15.117 0 31.021 2.231 47.078 6.672 13.082-11.529 52.547-50.753 52.547-102.709 0-116.315-94.68-210.995-211.061-210.995-116.294 0-210.996 94.68-210.996 210.995m401.209 472.044c.175 2.735.35 5.47.766 8.204l2.056 14.941c1.29-4.178 1.794-8.29 1.619-12.12-.24-3.587-2.21-9.318-4.682-14.787zm-42.812 9.385c-5.71 1.466-8.29 4.288-9.822 10.523-3.172 12.469 2.384 30.167 14.023 34.345q3.784 1.29 7.59 1.29c7.351 0 15.051-3.85 21.702-10.85a53 53 0 0 0 6.256-8.203l-15.729-20.17a22.1 22.1 0 0 0-17.085-7.788 28.4 28.4 0 0 0-6.935.853" style="fill:url(#a);stroke-width:21.8762"/></svg>