<svg xmlns="http://www.w3.org/2000/svg" width="255.676" height="255.676"><circle cx="127.838" cy="127.838" r="127.838"/><linearGradient id="a" x1="211.644" x2="44.075" y1="44.11" y2="211.678" gradientUnits="userSpaceOnUse"><stop offset=".1" style="stop-color:#6d7984"/><stop offset=".5" style="stop-color:#b4cddd"/><stop offset=".9" style="stop-color:#6d7984"/></linearGradient><path fill="url(#a)" d="M11.666 148.865q-3.764-18.294-1.076-36.592 2.686-18.294 10.492-34.708 7.803-16.41 20.314-30.134a115.8 115.8 0 0 1 28.654-22.87 1572 1572 0 0 1 14.395 19.507c4.751 6.55 9.506 13.049 14.26 19.507a3931 3931 0 0 1 14.261 19.506c4.751 6.55 9.552 13.049 14.395 19.507a626 626 0 0 0 14.663-19.641l14.26-19.911a9964 9964 0 0 0 14.126-19.775 983 983 0 0 1 14.26-19.507q19.909 10.764 33.901 28.251c9.324 11.662 16.366 24.484 21.121 38.476q7.126 20.988 6.457 43.317-.673 22.337-10.358 42.781a92.1 92.1 0 0 1-15.336 25.021 193 193 0 0 1-20.986 20.986 665 665 0 0 0-10.493-16.547 2343 2343 0 0 1-10.763-16.547 226.5 226.5 0 0 0 17.488-24.08c5.382-8.518 8.518-17.893 9.417-28.117q2.152-13.718-1.883-26.771a579 579 0 0 0-8.61-25.695 503 503 0 0 0-15.067 19.103 1109 1109 0 0 0-14.395 19.641 1349 1349 0 0 0-13.99 19.911 2673 2673 0 0 1-13.856 19.91 1781 1781 0 0 0 22.466 35.246 1034 1034 0 0 1 22.197 35.516c-8.609 3.947-16.908 7.088-24.888 9.416q-11.974 3.5-29.73 3.498c-9.147 0-18.208-1.164-27.175-3.498q-13.455-3.494-26.367-9.416a905 905 0 0 1 22.332-35.516 1202 1202 0 0 0 22.6-35.516q-7-9.683-14.125-19.508a4063 4063 0 0 0-14.26-19.506 2749 2749 0 0 0-14.395-19.372 786 786 0 0 0-14.799-19.103q-6.999 12.917-9.282 26.906-2.289 13.993 0 27.847 2.284 13.861 8.745 26.504c4.305 8.432 9.861 16.143 16.682 23.139a1279 1279 0 0 0-10.764 16.412 1331 1331 0 0 1-10.762 16.412 160 160 0 0 1-15.605-15.605 137.4 137.4 0 0 1-13.049-17.623 120 120 0 0 1-9.82-19.506 95 95 0 0 1-5.652-21.256M127.36 10.3h-6.727a133 133 0 0 0-23.812 3.767 145 145 0 0 0-22.735 7.803l53.273 39.013 52.196-37.937 1.346-1.076a169 169 0 0 0-22.87-7.938q-11.572-3.09-23.946-3.632z" style="fill:url(#a)"/></svg>