<svg xmlns="http://www.w3.org/2000/svg" width="600.002" height="452"><path d="M251.736 111.356c37.14 0 70.926 14.318 96.19 37.712a42.2 42.2 0 0 1 9.32 15.086c3.63 10.164 3.152 20.714-.534 29.58-20.704-36.586-59.944-61.296-104.976-61.296-66.588 0-120.568 53.986-120.568 120.588 0 27.966 9.544 53.688 25.518 74.144a142 142 0 0 0-18.502 10.554c-17.642-23.63-28.092-52.942-28.092-84.7 0-78.24 63.416-141.668 141.644-141.668M253.796 0C113.632 0 0 113.65 0 253.846 0 328.926 32.598 401.122 84.4 452h515.334C608.792 72.12 386.292 0 253.798 0" style="fill:#fff;stroke-width:2"/><path d="M253.802 91.742c25.707 0 50.017 5.96 71.653 16.544a123.5 123.5 0 0 0 1.784-20.804c0-21.31-5.436-41.25-14.878-58.335-18.706-4.864-38.332-7.458-58.56-7.458-128.195 0-232.117 103.94-232.117 232.157 0 50.904 16.392 97.972 44.166 136.233 9.842-22.9 24.738-43.1 43.258-59.251-11.874-22.642-18.624-48.394-18.624-75.736 0-90.214 73.12-163.35 163.317-163.35"/><path d="M371.388 45.106c4.872 13.112 7.574 27.402 7.574 42.376 0 18.978-4.322 36.858-11.932 52.615a67 67 0 0 1 9.176 16.79c11.976 32.03-2.116 66.906-31.474 77.958-7.774-45.824-47.63-80.73-95.66-80.73-53.6 0-97.053 43.46-97.053 97.072 0 36.864 20.544 68.926 50.802 85.368-50.18 6.1-91.708 43.666-102.28 93.763h477.494c-2.35-213.339-67.777-330.978-206.647-385.212"/></svg>