<svg xmlns="http://www.w3.org/2000/svg" width="600" height="452"><linearGradient id="a" x1="0" x2="1" y1="0" y2="0" gradientTransform="matrix(385.55664 0 0 305.55664 21.68 205.882)" gradientUnits="userSpaceOnUse" spreadMethod="pad"><stop offset="0" style="stop-color:#8b723c"/><stop offset="0" style="stop-color:#536e78"/><stop offset=".3" style="stop-color:#99aebc"/><stop offset=".5" style="stop-color:#d9eaf3"/><stop offset=".7" style="stop-color:#99aebc"/><stop offset="1" style="stop-color:#536e78"/></linearGradient><linearGradient id="b" x1="0" x2="1" y1="0" y2="0" gradientTransform="matrix(577.4961 0 0 477.4961 100.54 237.71)" gradientUnits="userSpaceOnUse" spreadMethod="pad"><stop offset="0" style="stop-color:#8b723c"/><stop offset="0" style="stop-color:#536e78"/><stop offset=".3" style="stop-color:#99aebc"/><stop offset=".5" style="stop-color:#d9eaf3"/><stop offset=".7" style="stop-color:#99aebc"/><stop offset="1" style="stop-color:#536e78"/></linearGradient><path d="M251.734 111.356c37.14 0 70.928 14.318 96.192 37.712 3.984 4.134 7.222 9.22 9.322 15.086 3.626 10.164 3.148 20.714-.538 29.582-20.702-36.588-59.944-61.298-104.976-61.298-66.586 0-120.566 53.986-120.566 120.588 0 27.966 9.542 53.688 25.518 74.144a142 142 0 0 0-18.502 10.554c-17.644-23.63-28.092-52.942-28.092-84.698 0-78.242 63.416-141.67 141.642-141.67M253.796 0C113.628 0 0 113.65 0 253.846 0 328.928 32.598 401.122 84.398 452h515.334C608.79 72.122 386.29 0 253.796 0"/><path d="M21.68 253.846c0 50.904 16.394 97.97 44.168 136.234 9.842-22.9 24.738-43.1 43.258-59.252A162.6 162.6 0 0 1 90.48 255.09c0-90.214 73.122-163.35 163.32-163.35 25.708 0 50.018 5.962 71.652 16.544a124 124 0 0 0 1.786-20.802c0-21.31-5.436-41.25-14.878-58.338a232.4 232.4 0 0 0-58.562-7.458c-128.194 0-232.118 103.942-232.118 232.16" style="fill:url(#a);stroke-width:2"/><path d="M378.962 87.482c0 18.976-4.322 36.856-11.934 52.614a67 67 0 0 1 9.178 16.79c11.974 32.032-2.118 66.906-31.476 77.958-7.774-45.824-47.63-80.73-95.66-80.73-53.6 0-97.054 43.462-97.054 97.072 0 36.864 20.544 68.928 50.804 85.37-50.182 6.098-91.708 43.666-102.28 93.764h477.496c-2.352-213.342-67.78-330.982-206.65-385.216a121.6 121.6 0 0 1 7.576 42.378" style="fill:url(#b);stroke-width:2"/></svg>