<svg xmlns="http://www.w3.org/2000/svg" xml:space="preserve" width="989.18" height="996.613" style="clip-rule:evenodd;fill-rule:evenodd;stroke-linejoin:round;stroke-miterlimit:2" viewBox="0 0 989.18 996.613"><circle cx="-494.629" cy="-497.93" r="417.145" style="fill:#fff" transform="scale(-1)"/><path d="m251.958 837.769-47.191 63.707s103.267 96.164 289.862 95.129c188.024-1.044 292.333-97.926 291.045-94.062l-47.32-65.836s53.835-37.72 93.611-93.611l63.779 46.977s92.605-107.817 93.431-292.143c.818-182.74-92.506-290.398-92.506-293.204l-64.586 47.538s-23.938-39.543-93.046-93.873l45.637-66.066S664.537 2.595 494.629.052c-169.865-2.542-290.07 89.752-290.07 93.606l47.213 64.355s-64.507 45.92-93.48 94.027l-64.507-48.107S0 312.259 0 497.93C0 683.6 93.424 789.668 93.424 789.668l63.921-47.765s30.477 51.245 94.613 95.866" style="fill:#fff"/><circle cx="494.629" cy="497.927" r="386.143" style="stroke-width:.92568"/><path d="m340.23 728.417-93.178 129.802 488.87-9.838-84.954-118.5z" style="fill:#fff"/><path d="M253.283 892.947 357.697 751.09s10.9 7.616 25.594 12.145l95.584 198.364s-121.104 1.218-225.592-68.65m483.984-.454L631.8 751.093s-11.01 7.592-25.852 12.106l-96.073 198.405s121.85.535 227.392-69.11"/><path d="m747.768 131.858-499.917 7.728 95.097 131.619 302.201 1.324z" style="fill:#fff"/><path d="m733.576 102.655-103.1 141.808s-10.482-7.415-24.992-11.911L511.456 34.709s118.947-1.416 222.12 67.946m-476.23 0 102.216 141.808s10.762-8.331 25.272-12.827L478.492 34.71s-117.972-1.418-221.146 67.944"/><path d="m727.328 340.152 107.969-83.642.145 480.192-119.266-86.007z" style="fill:#fff"/><path d="M886.603 252.158 746.384 358.71s8.171 11.868 12.667 26.743l194.89 96.943s2.023-124.467-67.339-230.24m-.55 487.613L744.795 636.465s7.46-10.63 11.995-25.193l197.352-96.17s1.905 121.12-68.09 224.668"/><path d="M262.092 655.878 260.8 337.657l-123.942-91.463-22.188 264.353 43.39 222.178z" style="fill:#fff"/><path d="m103.302 740.757 140.83-103.983s-7.56-10.763-12.057-25.272l-196.686-95.6s-1.448 121.68 67.914 224.855m-.001-486.5 140.082 105.58s-7.562 11.168-12.058 25.884L35.4 482.034s-1.46-123.135 67.902-227.776"/><path d="M383.361 764.985c-68.315-29.37-123.105-84.83-152.167-154.015L.172 497.93l230.452-112.761c29.005-70.05 84.332-126.185 153.411-155.672L494.631 3.47l110.328 225.478c69.89 29.423 125.852 86.07 154.966 156.85L989.091 497.93 759.359 610.339c-29.175 69.916-84.601 125.888-153.728 155.2l-111 226.85z" style="fill:#fff"/><path d="M402.008 741.084c-67.311-26.453-120.971-80.742-147.19-148.893L62.176 497.93l192.195-94.043c26.126-68.894 80.246-123.77 148.213-150.29L494.635 65.47l91.842 187.699c68.663 26.423 123.335 81.736 149.525 151.258l191.093 93.503-191.538 93.72c-26.285 68.779-80.496 123.507-148.505 149.867L494.635 930.39z"/><ellipse cx="495.077" cy="497.456" rx="191.77" ry="194.327" style="fill:#fff;stroke-width:.462775"/><ellipse cx="495.077" cy="497.454" rx="162.77" ry="164.939" style="stroke-width:.392791"/><ellipse cx="495.079" cy="497.455" rx="112.162" ry="113.655" style="fill:#fff;stroke-width:.270664"/><ellipse cx="495.082" cy="497.454" rx="83.846" ry="84.96" style="stroke-width:.202331"/></svg>