<svg xmlns="http://www.w3.org/2000/svg" xml:space="preserve" width="989.18" height="996.613" style="clip-rule:evenodd;fill-rule:evenodd;stroke-linejoin:round;stroke-miterlimit:2" viewBox="0 0 989.18 996.613"><circle cx="-494.629" cy="-497.93" r="417.145" transform="scale(-1)"/><path d="m251.958 837.769-47.191 63.707s103.267 96.164 289.862 95.129c188.024-1.044 292.333-97.926 291.045-94.062l-47.32-65.836s53.835-37.72 93.611-93.611l63.779 46.977s92.605-107.817 93.431-292.143c.818-182.74-92.506-290.398-92.506-293.204l-64.586 47.538s-23.938-39.543-93.046-93.873l45.637-66.066S664.537 2.595 494.629.052c-169.865-2.542-290.07 89.752-290.07 93.606l47.213 64.355s-64.507 45.92-93.48 94.027l-64.507-48.107S0 312.259 0 497.93C0 683.6 93.424 789.668 93.424 789.668l63.921-47.765s30.477 51.245 94.613 95.866"/><circle cx="494.626" cy="497.927" r="386.143" style="fill:#66337a;stroke-width:.92568"/><path d="m340.23 728.417-93.178 129.802 488.87-9.838-84.954-118.5z"/><path d="m253.282 892.947 104.415-141.858s10.9 7.616 25.594 12.145l95.584 198.363s-121.104 1.218-225.593-68.65" style="fill:url(#a);stroke-width:1.01002"/><path d="M737.267 892.495 631.8 751.093s-11.01 7.592-25.852 12.106l-96.073 198.405s121.85.534 227.392-69.11" style="fill:url(#b);stroke-width:1.01346"/><path d="m747.768 131.858-499.917 7.728 95.097 131.619 302.201 1.324z"/><path d="M733.577 102.656 630.476 244.464s-10.481-7.415-24.991-11.911L511.457 34.71s118.947-1.416 222.12 67.946" style="fill:url(#c)"/><path d="m257.346 102.655 102.216 141.808s10.762-8.331 25.272-12.827L478.492 34.71s-117.972-1.418-221.146 67.944" style="fill:url(#d)"/><path d="m727.326 340.204 107.968-83.643.148 480.193-119.267-86.007z"/><path d="M886.598 252.158 746.379 358.71s8.171 11.867 12.667 26.743l194.889 96.943s2.025-124.467-67.337-230.24" style="fill:url(#e);stroke-width:1.01251"/><path d="M886.047 739.77 744.79 636.464s7.46-10.63 11.995-25.193L954.137 515.1s1.905 121.12-68.09 224.668" style="fill:url(#f);stroke-width:1.00637"/><path d="M262.092 655.878 260.8 337.657l-123.942-91.463-22.188 264.353 43.39 222.178z"/><path d="m103.294 740.758 140.83-103.983s-7.561-10.763-12.057-25.272l-196.687-95.6s-1.448 121.68 67.914 224.855" style="fill:url(#g)"/><path d="m103.294 254.258 140.082 105.578s-7.562 11.168-12.058 25.884L35.392 482.033s-1.46-123.135 67.902-227.775" style="fill:url(#h);stroke-width:1.00708"/><path d="M383.359 764.985c-68.315-29.37-123.105-84.83-152.167-154.015L.169 497.93l230.452-112.76c29.005-70.05 84.332-126.186 153.41-155.673L494.629 3.47l110.328 225.478c69.89 29.423 125.852 86.07 154.966 156.85L989.089 497.93 759.357 610.34c-29.175 69.914-84.601 125.886-153.728 155.2l-111 226.85z"/><path d="M402.001 741.083c-67.31-26.453-120.97-80.742-147.19-148.894L62.17 497.93l192.195-94.042c26.126-68.894 80.246-123.77 148.213-150.29l92.05-188.127 91.843 187.698c68.663 26.423 123.334 81.737 149.524 151.258l191.093 93.503-191.538 93.72c-26.285 68.778-80.496 123.506-148.505 149.867L494.63 930.389z" style="fill:#fff;stroke-width:.87461"/><ellipse cx="495.077" cy="497.456" rx="191.77" ry="194.327" style="stroke-width:.462775"/><ellipse cx="495.077" cy="497.454" rx="162.77" ry="164.939" style="fill:#846699;stroke-width:.392791"/><ellipse cx="495.079" cy="497.455" rx="112.162" ry="113.655" style="stroke-width:.270664"/><ellipse cx="495.082" cy="497.454" rx="83.846" ry="84.96" style="fill:#fff;stroke-width:.202331"/><defs><linearGradient id="a" x1="0" x2="1" y1="0" y2="0" gradientTransform="matrix(777.2901 0 0 773.11484 104.055 856.344)" gradientUnits="userSpaceOnUse"><stop offset="0" style="stop-color:#612c75;stop-opacity:1"/><stop offset=".3" style="stop-color:#7b5190;stop-opacity:1"/><stop offset=".5" style="stop-color:#bf99c3;stop-opacity:1"/><stop offset=".7" style="stop-color:#7b5190;stop-opacity:1"/><stop offset="1" style="stop-color:#612c75;stop-opacity:1"/></linearGradient><linearGradient id="b" x1="0" x2="1" y1="0" y2="0" gradientTransform="matrix(777.29367 0 0 -762.94001 104.056 856.348)" gradientUnits="userSpaceOnUse"><stop offset="0" style="stop-color:#612c75;stop-opacity:1"/><stop offset=".3" style="stop-color:#7b5190;stop-opacity:1"/><stop offset=".5" style="stop-color:#bf99c3;stop-opacity:1"/><stop offset=".7" style="stop-color:#7b5190;stop-opacity:1"/><stop offset="1" style="stop-color:#612c75;stop-opacity:1"/></linearGradient><linearGradient id="c" x1="0" x2="1" y1="0" y2="0" gradientTransform="translate(117.125 139.586)scale(756.675)" gradientUnits="userSpaceOnUse"><stop offset="0" style="stop-color:#612c75;stop-opacity:1"/><stop offset=".3" style="stop-color:#7b5190;stop-opacity:1"/><stop offset=".5" style="stop-color:#bf99c3;stop-opacity:1"/><stop offset=".7" style="stop-color:#7b5190;stop-opacity:1"/><stop offset="1" style="stop-color:#612c75;stop-opacity:1"/></linearGradient><linearGradient id="d" x1="0" x2="1" y1="0" y2="0" gradientTransform="matrix(756.675 0 0 -756.675 117.124 139.585)" gradientUnits="userSpaceOnUse"><stop offset="0" style="stop-color:#612c75;stop-opacity:1"/><stop offset=".3" style="stop-color:#7b5190;stop-opacity:1"/><stop offset=".5" style="stop-color:#bf99c3;stop-opacity:1"/><stop offset=".7" style="stop-color:#7b5190;stop-opacity:1"/><stop offset="1" style="stop-color:#612c75;stop-opacity:1"/></linearGradient><linearGradient id="e" x1="0" x2="1" y1="0" y2="0" gradientTransform="matrix(-1000 0 0 1025.18 994.631 497.936)" gradientUnits="userSpaceOnUse"><stop offset="0" style="stop-color:#612c75;stop-opacity:1"/><stop offset=".3" style="stop-color:#7b5190;stop-opacity:1"/><stop offset=".5" style="stop-color:#bf99c3;stop-opacity:1"/><stop offset=".7" style="stop-color:#7b5190;stop-opacity:1"/><stop offset="1" style="stop-color:#612c75;stop-opacity:1"/></linearGradient><linearGradient id="f" x1="0" x2="1" y1="0" y2="0" gradientTransform="matrix(-999.99756 0 0 -994.54728 994.622 497.934)" gradientUnits="userSpaceOnUse"><stop offset="0" style="stop-color:#612c75;stop-opacity:1"/><stop offset=".3" style="stop-color:#7b5190;stop-opacity:1"/><stop offset=".5" style="stop-color:#bf99c3;stop-opacity:1"/><stop offset=".7" style="stop-color:#7b5190;stop-opacity:1"/><stop offset="1" style="stop-color:#612c75;stop-opacity:1"/></linearGradient><linearGradient id="g" x1="0" x2="1" y1="0" y2="0" gradientTransform="matrix(-1000 0 0 1000 994.629 497.926)" gradientUnits="userSpaceOnUse"><stop offset="0" style="stop-color:#612c75;stop-opacity:1"/><stop offset=".3" style="stop-color:#7b5190;stop-opacity:1"/><stop offset=".5" style="stop-color:#bf99c3;stop-opacity:1"/><stop offset=".7" style="stop-color:#7b5190;stop-opacity:1"/><stop offset="1" style="stop-color:#612c75;stop-opacity:1"/></linearGradient><linearGradient id="h" x1="0" x2="1" y1="0" y2="0" gradientTransform="matrix(-1000 0 0 -1014.21 994.629 497.932)" gradientUnits="userSpaceOnUse"><stop offset="0" style="stop-color:#612c75;stop-opacity:1"/><stop offset=".3" style="stop-color:#7b5190;stop-opacity:1"/><stop offset=".5" style="stop-color:#bf99c3;stop-opacity:1"/><stop offset=".7" style="stop-color:#7b5190;stop-opacity:1"/><stop offset="1" style="stop-color:#612c75;stop-opacity:1"/></linearGradient></defs></svg>