<svg xmlns="http://www.w3.org/2000/svg" xml:space="preserve" width="995.043" height="996.613" style="clip-rule:evenodd;fill-rule:evenodd;stroke-linejoin:round;stroke-miterlimit:2" viewBox="0 0 995.043 996.613"><path d="M499.26 662.574c-90.14 0-163.324-74.158-163.324-165.5 0-91.343 73.182-165.5 163.324-165.5 90.14 0 163.324 74.157 163.324 165.5 0 91.342-73.184 165.5-163.324 165.5m0-360.487c-106.202 0-192.423 87.371-192.423 194.987 0 107.615 86.221 194.986 192.423 194.986 106.2 0 192.422-87.37 192.422-194.986S605.46 302.087 499.26 302.087"/><path d="M499.26 582.323c-46.433 0-84.128-38.2-84.128-85.249 0-47.05 37.695-85.248 84.128-85.248 46.43 0 84.128 38.197 84.128 85.248 0 47.05-37.697 85.25-84.128 85.25m0-199.29c-62.113 0-112.543 51.1-112.543 114.04s50.43 114.04 112.543 114.04 112.54-51.1 112.54-114.04-50.427-114.042-112.54-114.042"/><path d="M891.302 739.766 749.208 636.462s7.503-10.632 12.067-25.193l198.52-96.173s1.918 121.123-68.493 224.67m-174.72 71.893-59.493-77.67c31.38-20.085 58.028-45.358 79.55-76.25l77.63 57.287s-37.564 56.084-97.688 96.633M512.894 961.601l96.643-198.404c14.93-4.516 26.005-12.107 26.005-12.107L741.633 892.49c-106.166 69.643-228.74 69.11-228.74 69.11m-108.51-220.517c-67.71-26.453-121.687-80.742-148.062-148.893L62.538 497.93l193.333-94.042c26.282-68.895 80.723-123.77 149.091-150.29L497.561 65.47l92.385 187.698c69.07 26.424 124.066 81.738 150.41 151.259l192.227 93.503-192.672 93.72c-26.442 68.78-80.975 123.508-149.387 149.867L497.56 930.39Zm-149.6 151.864L359.817 751.09s10.965 7.616 25.746 12.145l96.15 198.365s-121.822 1.216-226.93-68.652m-77.77-171.697 77.537-59.91c20.515 30.993 46.201 57.232 77.49 78.32l-56.853 77.736s-56.788-36.782-98.173-96.146m-73.107 19.51C34.133 637.589 35.59 515.909 35.59 515.909l197.852 95.6c4.522 14.508 12.128 25.27 12.128 25.27zm0-486.504 140.91 105.578s-7.606 11.168-12.128 25.885L35.6 482.03s-1.468-123.135 68.306-227.774m172.593-77.92 59.175 77.908c-31.46 19.96-58.211 45.125-79.858 75.93l-77.395-57.597s37.79-55.935 98.078-96.242M481.327 34.711l-94.213 196.925c-14.596 4.496-25.422 12.827-25.422 12.827L258.871 102.656C362.656 33.293 481.327 34.71 481.327 34.71m256.597 67.945L634.21 244.463s-10.544-7.415-25.14-11.911L514.488 34.709s119.65-1.416 223.437 67.947m77.08 173.689-77.63 59.786c-20.467-31.025-46.11-57.306-77.363-78.442l56.977-77.646s56.729 36.873 98.016 96.302m76.848-24.195c69.773 105.773 67.736 230.24 67.736 230.24l-196.044-96.944c-4.522-14.873-12.743-26.741-12.743-26.741Zm10.131-47.425-64.968 47.54s-24.081-39.544-93.6-93.874l45.909-66.066S668.476 2.595 497.56.052C326.689-2.49 205.77 89.804 205.77 93.659l47.493 64.354s-64.889 45.92-94.034 94.026l-64.89-48.107S0 312.26 0 497.93C0 683.6 93.977 789.669 93.977 789.669l64.3-47.765s30.657 51.244 95.175 95.865l-47.472 63.708s103.879 96.164 291.58 95.128c185.267-1.022 289.719-93.985 292.7-94.158l-47.531-65.74s54.155-37.719 94.165-93.61l64.158 46.976s93.154-107.817 93.985-292.143c.823-182.74-93.054-290.398-93.054-293.205" style="fill-rule:nonzero;stroke-width:1.393"/></svg>