<svg xmlns="http://www.w3.org/2000/svg" xmlns:xlink="http://www.w3.org/1999/xlink" width="600" height="436.158" viewBox="0 0 600 436.158"><linearGradient id="a"><stop offset=".25" style="stop-color:#bf331c"/><stop offset=".5" style="stop-color:#f6b91d"/><stop offset=".75" style="stop-color:#bf331c"/></linearGradient><linearGradient xlink:href="#a" id="b" x1="26.529" x2="571.918" y1="226.807" y2="226.807" gradientTransform="translate(-.015 .002)" gradientUnits="userSpaceOnUse"/><path d="M600 436.158H465.05c10.991-55.088-3.812-108.134-24.905-149.84-18.337 35.477-37.03 79.077-8.305 149.84H164.356c20.082-41.357 24.914-87.722-4.5-149.84-22.49 33.741-38.75 100.876-27.331 149.84H0C21.93 396.947 157.439 141.86 187.543 84.765c25.263 0 40.834.174 59.51.174L298.959 0c5.661 9.988 50.002 83.395 50.002 83.395h61.412C475.317 204.013 537.044 321.272 600 436.158M303.293 269.516c0-38.566 1.753-89.353-4.327-106.808-5.705 17.638-4.388 66.428-4.388 106.817-18.685 2.172-33.183 18.049-33.183 37.31 0 20.744 16.827 37.571 37.571 37.571 20.753 0 37.572-16.827 37.572-37.571-.008-19.27-14.542-35.164-33.245-37.319" style="fill:#fff"/><path d="m299.563 26-5.313 8.781-38.312 63.532h-45.813l6.156 9.312 50.125 75.938-91.5 95.5-3.156 3.312 2.344 3.906c8.188 13.718 15.666 36.523 18.781 60.313s1.847 48.623-6 66.75l-3.625 8.406h229.906l-3.031-8.125c-15.263-40.665-2.757-100.656 13.844-127.344l2.437-3.937-3.219-3.375-91.218-95.406 50.531-75.938 6.219-9.312H340.53l-35.906-63.407Zm-.532 58.313 16.781 100.312.407 71.906v3.844l3.5 1.594c17.31 7.853 29.406 25.265 29.406 45.594 0 27.716-22.345 50.062-50.062 50.062S249 335.279 249 307.563c0-20.171 11.889-37.49 29-45.438l3.438-1.594.03-3.781.657-71.781zm-110.437 27.624-4.781 8.907L27.25 412.906l-4.75 8.844h94.469l-.438-6.406c-4.596-67.848 19.383-121.336 47.375-158.906 13.996-18.786 29.011-33.56 41.813-43.97 12.802-10.408 23.994-16.488 27.812-17.624l7.719-2.313-4.406-6.719-42.719-65.406zm221.281 0-5.531 8.47-42.75 65.406-4.406 6.75 7.718 2.28c3.818 1.137 15.011 7.248 27.813 17.657s27.816 25.153 41.812 43.938c27.993 37.57 51.972 91.063 47.375 158.906l-.437 6.406h94.469l-4.72-8.844-156.593-292.031z" style="stroke-width:12"/><path d="m290.125 64.875-25.656 42.531-1.75 2.906h-30.281l39.906 60.438zm17.906.438L325.75 171.25l40.594-60.937H333.53l-1.75-3.032zm-118.406 70.125L42.531 409.75h61.75c-2.918-68.06 21.594-122.342 50-160.469 14.65-19.661 30.328-35.11 43.875-46.125 9.722-7.905 17.988-13.408 24.719-16.781zm219.219 0-33.281 50.937c6.734 3.372 14.987 8.9 24.718 16.813 13.548 11.015 29.226 26.432 43.875 46.093 28.407 38.126 52.919 92.413 50 160.469h61.75zm-80.969 61.25.313 56.25c19.548 10.448 32.937 30.96 32.937 54.625 0 34.201-27.862 62.062-62.062 62.062-34.202 0-62.063-27.86-62.063-62.062 0-23.49 13.18-43.879 32.5-54.407l.5-56.031-83.5 87.188c8.453 15.746 15.238 37.48 18.281 60.718 2.883 22.014 2.485 45.066-3.781 64.719h195.219c-12.513-42.924-1.537-95.579 15.312-125.594z" style="fill:url(#b);stroke-width:12;marker-end:none"/></svg>