<svg xmlns="http://www.w3.org/2000/svg" xmlns:xlink="http://www.w3.org/1999/xlink" width="600" height="436.158" viewBox="0 0 600 436.158"><linearGradient id="a"><stop offset=".25" style="stop-color:#612c75"/><stop offset=".5" style="stop-color:#bf99c3"/><stop offset=".75" style="stop-color:#612c75"/></linearGradient><linearGradient xlink:href="#a" id="b" x1="26.529" x2="571.918" y1="226.807" y2="226.807" gradientUnits="userSpaceOnUse"/><path d="M600 436.158H465.05c10.991-55.088-3.812-108.134-24.905-149.84-18.337 35.477-37.03 79.077-8.305 149.84H164.356c20.082-41.357 24.914-87.722-4.5-149.84-22.49 33.741-38.75 100.876-27.331 149.84H0C21.93 396.947 157.439 141.86 187.543 84.765c25.263 0 40.834.174 59.51.174L298.959 0c5.661 9.988 50.002 83.395 50.002 83.395h61.412C475.317 204.013 537.044 321.272 600 436.158M303.293 269.516c0-38.566 1.753-89.353-4.327-106.808-5.705 17.638-4.388 66.428-4.388 106.817-18.685 2.172-33.183 18.049-33.183 37.31 0 20.744 16.827 37.571 37.571 37.571 20.753 0 37.572-16.827 37.572-37.571-.008-19.27-14.542-35.164-33.245-37.319" style="fill:#fff"/><path d="m299.394 37.877 37.623 66.437h40.494l-53.203 79.932 94.552 98.879c-17.918 28.804-30.628 89.266-14.359 132.612H192.385c17.054-39.395 4.527-102.918-13.147-132.525l94.814-98.966-52.776-79.932h38.06zm67.213 151.219c22.812 6.787 130.693 87.713 121.28 226.64h78.03L409.352 123.698Zm-177.502-65.408L32.529 415.737h78.022c-9.413-138.937 98.469-219.863 121.28-226.65ZM355.11 307.576c0-22.707-13.504-42.264-32.905-51.066l-.401-72.517-22.75-135.997-22.934 136.511-.646 72.186c-19.174 8.907-32.477 28.342-32.477 50.875 0 30.959 25.097 56.056 56.057 56.056 30.959 0 56.056-25.089 56.056-56.048" style="fill:url(#b);stroke-width:12;stroke-linecap:square;stroke-miterlimit:4;marker-end:none"/></svg>