<?xml version="1.0" encoding="UTF-8" standalone="no"?>
<svg
   version="1.1"
   id="Layer_1"
   x="0px"
   y="0px"
   width="58.787998"
   height="50.000313"
   xmlns:xlink="http://www.w3.org/1999/xlink"
   xmlns="http://www.w3.org/2000/svg"
   xmlns:svg="http://www.w3.org/2000/svg">
  <defs
     id="defs7">
    <radialGradient
       xlink:href="#SVGID_8_"
       id="radialGradient7"
       gradientUnits="userSpaceOnUse"
       gradientTransform="matrix(17.5713,0,0,-17.5713,913.412,2097.533)"
       cx="-50.310501"
       cy="117.9463"
       r="1.2497" />
    <radialGradient
       xlink:href="#SVGID_8_"
       id="radialGradient8"
       gradientUnits="userSpaceOnUse"
       gradientTransform="matrix(17.5713,0,0,-17.5713,913.412,2097.533)"
       cx="-50.310501"
       cy="117.9463"
       r="1.2497" />
  </defs>
  <path
     d="M 41.089,0 H 17.595 L 17.483,0.015 C 15.899,0.183 13.703,1.328 12.97,3.727 10.977,4.285 3.471,6.376 3.471,6.376 L 3.376,6.411 C 2.084,6.907 0,8.577 0,11.634 c 0,0.548 0.068,1.141 0.217,1.777 l 8.963,33.456 0.246,0.329 c 1.014,1.351 3.481,3.426 6.298,2.621 0,0 12.636,-3.476 13.679,-3.761 1.041,0.285 13.691,3.766 13.691,3.766 2.798,0.8 5.264,-1.273 6.278,-2.626 l 0.247,-0.329 8.946,-33.395 c 0.153,-0.653 0.223,-1.261 0.223,-1.821 0,-3.08 -2.075,-4.745 -3.364,-5.24 L 55.329,6.376 c 0,0 -7.507,-2.092 -9.5,-2.649 C 45.097,1.328 42.9,0.183 41.315,0.011 L 41.203,0 Z"
     id="path1" />
  <path
     fill="url(#SVGID_8_)"
     d="m 17.71,2.13 c 0,0 -2.879,0.309 -2.879,3.289 L 4.141,8.4 c 0,0 -2.674,1.027 -1.852,4.521 l 8.841,32.997 c 0,0 1.851,2.468 4.009,1.853 l 14.264,-3.924 14.258,3.924 c 2.157,0.615 4.009,-1.853 4.009,-1.853 L 56.511,12.921 C 57.331,9.428 54.661,8.4 54.661,8.4 L 43.969,5.419 c 0,-2.98 -2.88,-3.289 -2.88,-3.289 z"
     id="path2"
     style="fill:url(#radialGradient7)" />
  <path
     d="m 17.804,3.363 c -0.136,0.024 -0.548,0.114 -0.937,0.374 -0.549,0.369 -0.803,0.902 -0.803,1.682 v 0.938 c 0,0 -11.346,3.164 -11.51,3.208 -0.296,0.139 -1.188,0.674 -1.188,2.095 0,0.288 0.038,0.61 0.123,0.975 0.016,0.059 8.621,32.185 8.761,32.702 0.381,0.428 1.496,1.547 2.549,1.248 l 14.603,-4.019 14.597,4.019 c 1.054,0.299 2.168,-0.82 2.549,-1.248 0.14,-0.518 8.747,-32.644 8.763,-32.702 0.084,-0.364 0.122,-0.687 0.122,-0.975 0,-1.421 -0.893,-1.956 -1.188,-2.095 C 54.083,9.521 42.734,6.357 42.734,6.357 V 5.419 c 0,-0.779 -0.256,-1.313 -0.802,-1.682 -0.388,-0.26 -0.801,-0.35 -0.938,-0.374 z"
     id="path3" />
  <path
     fill="url(#SVGID_8_)"
     d="m 17.939,4.906 h 22.957 c 0.48,0 0.547,0.614 0.547,0.614 v 34.129 c 0,0.549 -0.547,0.685 -0.547,0.685 H 17.939 c -0.479,0 -0.479,-0.685 -0.479,-0.685 V 5.521 c 10e-4,-0.41 0.479,-0.615 0.479,-0.615 M 5.397,10.868 C 4.576,11.141 4.918,12.17 4.918,12.17 l 8.77,32.551 c 0.345,0.751 1.03,0.41 1.03,0.41 l 11.925,-3.288 h -8.909 c -1.646,0 -1.919,-2.058 -1.919,-2.058 V 8.056 Z M 42.983,7.987 v 31.729 c 0,0 -0.274,2.056 -1.919,2.056 h -8.907 l 11.922,3.29 c 0,0 0.686,0.345 1.028,-0.41 l 8.772,-32.554 c 0,0 0.343,-1.027 -0.48,-1.299 z"
     id="path4"
     style="fill:url(#radialGradient8)" />
  <radialGradient
     id="SVGID_8_"
     cx="-50.310501"
     cy="117.9463"
     r="1.2497"
     gradientTransform="matrix(17.5713,0,0,-17.5713,913.412,2097.533)"
     gradientUnits="userSpaceOnUse">
    <stop
       style="stop-color:#d9eaf3"
       offset="0"
       id="stop4" />
    <stop
       style="stop-color:#99aebc"
       offset="0.7"
       id="stop5" />
    <stop
       style="stop-color:#536e78"
       offset="1"
       id="stop6" />
  </radialGradient>
  <path
     fill="#536e78"
     d="M 36.855,34.682 H 20.363 v -0.39 c 5.057,-5.131 8.126,-8.584 9.208,-10.357 1.081,-1.773 1.62,-3.505 1.62,-5.197 0,-1.233 -0.445,-2.258 -1.344,-3.074 -0.893,-0.815 -1.988,-1.224 -3.285,-1.224 -2.121,0 -3.768,0.903 -4.939,2.714 l -0.764,-0.23 c 0.744,-2.256 1.875,-3.923 3.389,-5.004 1.517,-1.08 3.265,-1.619 5.249,-1.619 1.421,0 2.716,0.28 3.887,0.844 1.172,0.564 2.088,1.336 2.747,2.316 0.661,0.983 0.993,1.9 0.993,2.757 0,1.563 -0.509,3.149 -1.53,4.759 -1.39,2.172 -4.429,5.202 -9.114,9.091 h 6.058 c 1.486,0 2.456,-0.053 2.902,-0.159 0.448,-0.106 0.815,-0.284 1.106,-0.536 0.288,-0.254 0.668,-0.786 1.135,-1.595 h 0.745 z"
     id="path6" />
  <path
     d="M 36.455,34.181 H 21.177 c 4.856,-4.948 7.743,-8.216 8.823,-9.984 1.121,-1.846 1.689,-3.683 1.689,-5.46 0,-1.378 -0.508,-2.534 -1.506,-3.442 -0.984,-0.898 -2.202,-1.354 -3.62,-1.354 -2.052,0 -3.717,0.793 -4.95,2.364 0.702,-1.755 1.684,-3.09 2.927,-3.979 1.42,-1.013 3.085,-1.527 4.957,-1.527 1.336,0 2.571,0.267 3.668,0.795 1.088,0.524 1.945,1.245 2.551,2.146 0.603,0.893 0.908,1.727 0.908,2.479 0,1.459 -0.488,2.973 -1.452,4.491 -1.355,2.115 -4.388,5.136 -9.01,8.97 l -1.065,0.886 h 1.386 6.055 c 1.545,0 2.534,-0.056 3.018,-0.17 0.521,-0.125 0.964,-0.341 1.318,-0.643 0.244,-0.215 0.515,-0.559 0.831,-1.05 z"
     id="path7" />
</svg>
