<?xml version="1.0" encoding="UTF-8" standalone="no"?>
<svg
   version="1.1"
   id="Layer_1"
   x="0px"
   y="0px"
   width="54.534786"
   height="45.739037"
   viewBox="0 0 54.534787 45.739037"
   xmlns="http://www.w3.org/2000/svg"
   xmlns:svg="http://www.w3.org/2000/svg">
  <defs
     id="defs1" />
  <path
     d="m 15.575262,0 c 0,0 -2.878906,0.3090625 -2.878906,3.2890625 L 2.0088561,6.2695312 c 0,0 -2.67456255,1.0274844 -1.85156255,4.5214848 L 8.9990901,43.78711 c 0,0 1.8488129,2.468515 4.0078129,1.853515 l 14.261719,-3.923828 14.259765,3.923828 c 2.157,0.615 4.009766,-1.853515 4.009766,-1.853515 l 8.839844,-32.996094 c 0.821,-3.4930004 -1.84961,-4.5214848 -1.84961,-4.5214848 L 41.836981,3.2890625 C 41.836981,0.3090625 38.956122,0 38.956122,0 Z m 0.0957,1.2324218 h 23.189454 c 0.136999,0.024 0.550453,0.1130469 0.939453,0.3730469 0.546,0.369 0.800781,0.9045938 0.800781,1.6835938 v 0.9375 c 0,0 11.348719,3.1630312 11.511719,3.2070312 0.295,0.139 1.1875,0.6747029 1.1875,2.0957029 0,0.288 -0.03709,0.6106104 -0.121094,0.9746104 -0.016,0.058 -8.623672,32.185125 -8.763672,32.703125 -0.381,0.428 -1.494828,1.547046 -2.548828,1.248047 L 27.268622,40.435547 12.667059,44.455079 c -1.053,0.298999 -2.168828,-0.820047 -2.548828,-1.248047 -0.1399999,-0.517 -8.7457185,-32.644125 -8.7617187,-32.703125 -0.087,-0.365 -0.1230468,-0.6866104 -0.1230468,-0.9746104 0,-1.421 0.8934531,-1.9567029 1.1894531,-2.0957029 0.162,-0.044 11.5058594,-3.2070312 11.5058594,-3.2070312 v -0.9375 c 0,-0.78 0.255641,-1.3145938 0.806641,-1.6835938 0.387,-0.26 0.799546,-0.3490467 0.935546,-0.3730469 z m 0.136722,1.5429688 c 0,0 -0.479516,0.2052344 -0.478515,0.6152344 v 34.126954 c 0,0 -4.85e-4,0.685546 0.478515,0.685546 h 22.957031 c 0,0 0.546875,-0.136547 0.546875,-0.685546 V 3.3886718 c 0,2e-7 -0.06688,-0.6132812 -0.546875,-0.6132812 z M 40.850653,5.8554687 V 37.585938 c 0,0 -0.272969,2.054687 -1.917969,2.054687 h -8.908203 l 11.921875,3.291016 c 0,0 0.687297,0.344844 1.029297,-0.410156 L 51.747137,9.9667966 c 0,0 0.343531,-1.026828 -0.480468,-1.298828 z M 13.684637,5.9257812 3.2666686,8.7363286 c -0.822,0.273997 -0.4785156,1.3027344 -0.4785156,1.3027344 l 8.769531,32.550781 C 11.902684,43.340844 12.586981,43 12.586981,43 l 11.923828,-3.287109 h -8.908203 c -1.646,0 -1.917969,-2.058594 -1.917969,-2.058594 z m 13.679688,2.2441404 c 1.422,0 2.717672,0.27975 3.888672,0.84375 1.172,0.564 2.087093,1.3364044 2.746093,2.3164074 0.661,0.982998 0.992188,1.900812 0.992188,2.757812 0,1.563 -0.508297,3.147813 -1.529297,4.757812 -1.39,2.172002 -4.429281,5.202797 -9.113281,9.091797 h 6.05664 c 1.486,0 2.456344,-0.05416 2.902344,-0.160156 0.448,-0.106 0.816422,-0.283156 1.107422,-0.535156 0.288,-0.254 0.666766,-0.786703 1.134766,-1.595703 h 0.74414 L 34.7237,32.550782 H 18.231512 V 32.16211 c 5.058,-5.131 8.126032,-8.584422 9.207031,-10.357422 1.081,-1.773 1.621094,-3.505266 1.621094,-5.197266 0,-1.233 -0.44475,-2.258218 -1.34375,-3.074219 -0.894,-0.814998 -1.991156,-1.224609 -3.285156,-1.224609 -2.121,0 -3.766453,0.903844 -4.939453,2.714844 l -0.763672,-0.230469 c 0.743,-2.256 1.872672,-3.922906 3.388672,-5.0039064 1.514,-1.08 3.266047,-1.619141 5.248047,-1.619141 z"
     id="path1" />
</svg>
