<svg xmlns="http://www.w3.org/2000/svg" width="600" height="569.401"><radialGradient id="a" cx="0" cy="0" r="1" fx="0" fy="0" gradientTransform="translate(281.006 243.934)scale(238.77462)" gradientUnits="userSpaceOnUse" spreadMethod="pad"><stop offset="0" style="stop-color:#ebd491"/><stop offset=".7" style="stop-color:#d2bb7b"/><stop offset="1" style="stop-color:#8b723c"/></radialGradient><path d="M242.232 59.389c-12.613-9.01-30.748-17.566-54.649-17.566-28.256 0-57.509 17.296-74.52 44.043-8.612 13.623-12.897 28.47-13.338 43.36-16.911-3.658-37.766-4.057-56.997 7.345-21.182 12.513-43.545 42.15-42.705 77.68.442 18.79 8.555 54.222 57.88 80.243l4.113 2.164h67.56C150.87 309 600 569.401 600 569.401S473.72 436.232 442.646 403.42c6.449.954 76 10.904 76 10.904S427.515 328.8 393.323 296.658H504.64l1.608-.27c19.303-3.46 55.773-22.92 55.773-71.731 0-25.979-11.231-46.99-31.573-59.232-14.463-8.67-32.2-11.445-47.716-8.342-9.623-8.897-23.687-16.84-40.043-19.174 2.349-8.285 4.114-17.41 4.114-26.976C446.803 79.36 413.835 0 335.926 0c-50.477 0-79.232 34.306-93.694 59.388" style="fill:#fff"/><path d="m497.195 488.162-105.097-110.82 70.563 10.007-116.67-109.424h156.983s40.314-7.175 40.314-53.268c0-46.107-44.655-57.552-66.222-46.107 0 0-27.36-37.424-64.84-17.238 0 0 15.844-24.456 15.844-50.378 0-24.684-27.36-92.186-92.144-92.186-64.826 0-87.844 72-87.844 72S227.897 60.5 187.583 60.5c-40.313 0-86.363 48.997-63.345 97.923 0 0-40.314-24.47-72.001-5.723-31.644 18.677-61.894 84.912 14.392 125.226h158.42l51.83 38.918-95.032-11.502z" style="fill:#8b723c"/><path d="m253.461 92.53-3.601 11.133-6.506-9.68c-.783-1.167-19.131-27.801-55.772-27.801-19.801 0-41.481 13.181-53.894 32.755-6.662 10.505-16.114 31.914-4.27 57.04l8 17.024-16.129-9.736c-.213-.114-20.128-11.958-41.808-11.958-9.125 0-17.295 2.121-24.356 6.292-15.687 9.224-31.246 31.516-30.69 56.043.555 23.246 15.615 43.488 43.644 58.606h158.806l1.565 1.11 51.816 38.933 17.068 12.783-21.125-2.605-67.56-8.185L465.876 463.48l-77.95-82.193-11.232-11.886 16.17 2.277 52.67 7.502-103.431-97.083-10.506-9.85h14.392l155.987.114c1.438-.328 35.63-7.118 35.63-47.702 0-30.59-21.965-44.484-42.306-44.484-5.837 0-11.346 1.167-15.573 3.445l-4.342 2.334-2.947-3.957c-.156-.214-15.672-20.954-37.922-20.954-6.505 0-13.068 1.78-19.573 5.281l-19.46 10.449 11.958-18.52c.171-.27 14.961-23.46 14.961-47.317 0-23.858-26.59-86.52-86.477-86.52-59.83 0-82.236 67.402-82.464 68.114" style="fill:url(#a);stroke-width:14.235"/><path d="m450.419 451.25-36.03-21.139-164.641-96.641-21.908-12.84 25.239 2.22 48.769 4.4-52.442-45.154-11.673-10.064 15.403.056 69.837.156h2.277l1.623 1.51 95.36 88.968 13.182 12.285-17.85-2.448-49.994-6.947 53.822 55.659z" style="fill:#8b723c"/><path d="m322.973 277.925 95.36 88.969-66.392-9.182 65.338 67.502-164.7-96.641 66.45 5.893-65.893-56.712z" style="fill:#fff"/></svg>