<svg xmlns="http://www.w3.org/2000/svg" width="600" height="569.401"><radialGradient id="a" cx="0" cy="0" r="1" fx="0" fy="0" gradientTransform="translate(281.007 243.962)scale(238.78743)" gradientUnits="userSpaceOnUse" spreadMethod="pad"><stop offset="0" style="stop-color:#bf99c3"/><stop offset=".663" style="stop-color:#7b5190"/><stop offset="1" style="stop-color:#612c75"/></radialGradient><path d="M242.232 59.389c-12.613-9.01-30.748-17.566-54.649-17.566-28.313 0-57.495 17.296-74.52 44.043-8.612 13.623-12.897 28.47-13.338 43.36-16.911-3.658-37.822-4.057-56.997 7.345-21.196 12.513-43.545 42.15-42.705 77.68.442 18.79 8.555 54.222 57.88 80.243l4.113 2.164h67.56C150.87 309 600 569.401 600 569.401S473.721 436.232 442.646 403.42c6.449.954 76 10.904 76 10.904S427.515 328.8 393.323 296.658h111.26l1.666-.27c19.303-3.46 55.773-22.92 55.773-71.731 0-25.979-11.231-46.99-31.587-59.232-14.506-8.67-32.186-11.445-47.702-8.342-9.623-8.897-23.687-16.84-40.043-19.174 2.334-8.285 4.128-17.41 4.128-26.976C446.817 79.36 413.835 0 335.927 0c-50.478 0-79.29 34.306-93.695 59.388" style="fill:#fff"/><path d="m497.195 488.162-105.097-110.82 70.563 10.007-116.67-109.424h156.983s40.314-7.175 40.314-53.268c0-46.107-44.655-57.552-66.236-46.107 0 0-27.345-37.424-64.826-17.238 0 0 15.844-24.456 15.844-50.378 0-24.684-27.36-92.186-92.144-92.186-64.826 0-87.844 72-87.844 72S227.897 60.5 187.583 60.5c-40.313 0-86.363 48.997-63.345 97.923 0 0-40.314-24.47-72.001-5.723-31.701 18.677-61.95 84.912 14.392 125.226h158.42l51.83 38.918-95.032-11.502z" style="fill:#612c75"/><path d="m253.462 92.53-3.602 11.132-6.505-9.68c-.783-1.167-19.132-27.801-55.773-27.801-19.8 0-41.495 13.181-53.893 32.755-6.662 10.505-16.114 31.914-4.27 57.04L137.36 173l-16.071-9.736c-.157-.114-20.128-11.958-41.808-11.958-9.182 0-17.353 2.121-24.356 6.292-15.687 9.224-31.246 31.516-30.691 56.043.612 23.246 15.616 43.488 43.644 58.606h158.863l1.509 1.11 51.815 38.933 17.082 12.783-21.139-2.605-67.559-8.185 257.284 149.254-78.008-82.293-11.232-11.843 16.171 2.277 52.67 7.445-103.432-97.026-10.505-9.85h14.391l155.973.114c1.452-.328 35.645-7.118 35.645-47.702 0-30.59-21.965-44.484-42.307-44.484-5.836 0-11.402 1.167-15.573 3.445l-4.341 2.334-2.947-3.957c-.157-.214-15.673-20.954-37.922-20.954-6.506 0-13.068 1.78-19.573 5.281l-19.516 10.449 12.014-18.52c.17-.27 14.96-23.46 14.96-47.317 0-23.858-26.59-86.52-86.477-86.52-59.83 0-82.235 67.402-82.463 68.114" style="fill:url(#a);stroke-width:14.235"/><path d="m450.476 451.25-36.086-21.139-164.7-96.641-21.907-12.84 25.296 2.22 48.769 4.4-52.499-45.154-11.616-10.064 15.403.056 69.837.156h2.234l1.666 1.51 95.36 88.968 13.125 12.285-17.794-2.448-50.05-6.947 53.822 55.659z" style="fill:#612c75"/><path d="m322.973 277.925 95.374 88.969-66.406-9.182 65.338 67.502-164.699-96.641 66.45 5.893-65.894-56.712z" style="fill:#fff"/></svg>