<?xml version="1.0" encoding="UTF-8"?>
<svg id="Layer_2" data-name="Layer 2" xmlns="http://www.w3.org/2000/svg" viewBox="0 0 542.28 542.39">
  <defs>
    <style>
      .cls-1 {
        stroke-width: 0px;
      }
    </style>
  </defs>
  <g id="Layer_1-2" data-name="Layer 1">
    <path class="cls-1" d="M137.81,238.85c-1.23,7.26-1.82,14.72-1.82,22.26,0,14.48,2.24,28.55,6.57,41.9l29.18-11.72c-3.57-10.49-5.57-21.74-5.57-33.51,0-3.81.24-7.56.64-11.25l-29.01-7.68h0ZM167.46,174.45c-12.42,14.88-21.74,32.46-26.9,51.74l28.24,8.33c3.57-15.47,10.6-29.66,20.26-41.6l-21.61-18.47ZM196.64,184.59c13.95-13.89,31.81-23.79,51.85-27.95l-11.25-26.37c-23.37,6.03-44.29,18.23-60.99,34.68l20.38,19.64h0ZM147.12,315.21c6.69,15.29,16.23,29.36,28.43,41.49,8.21,8.19,17.28,15.23,27.01,21.03l16.57-29.78c-19.03-10.61-34.33-27.06-43.53-46.92l-28.49,14.18ZM215.04,384.23c17.4,7.92,36.39,12.08,56.07,12.08,2.46,0,4.92-.06,7.38-.18l-4.45-35.15c-1.52.06-3.05.06-4.62.06-13.61,0-26.61-2.64-38.51-7.44l-15.87,30.63h0ZM290.44,394.96c26.25-3.75,50.68-15.06,70.67-32.93l-24.9-25.43c-14.17,12-31.65,20.21-50.8,23.25l5.04,35.1h0ZM369.19,354.19c16.29-17.12,27.54-37.8,33.11-60.25l-34.39-5.04c-4.92,15.77-13.59,29.88-24.9,41.37l26.19,23.91h0ZM404.47,283.39c1.17-7.28,1.82-14.72,1.82-22.28,0-19.5-4.17-38.09-11.67-54.91l-27.83,17.12c3.81,10.79,5.91,22.38,5.91,34.46,0,7.73-.87,15.23-2.46,22.5l34.23,3.11h0ZM388.41,194.09c-13.07-22.92-32.68-41.55-56.31-53.57l-14.42,25.97c19.35,10.2,34.99,26.37,44.6,45.99l26.13-18.39ZM322.08,135.96c-15.75-6.45-32.92-9.96-50.97-9.96-7.38,0-14.7.58-21.8,1.76l10.24,27.24c3.29-.29,6.57-.47,9.86-.47,14.3,0,27.89,2.87,40.24,8.15l12.42-26.72h0ZM28.41,209.96c-3.22,16.01-4.92,32.52-4.92,49.52,0,29.66,5.1,58.54,15,85.61l89.54-36.33c-4.7-14.64-7.21-30.12-7.21-45.93,0-9.44.94-18.69,2.64-27.72l-95.04-25.14ZM81.56,99.62c-22.67,27.06-39.72,59.06-49.28,94.04l94.28,28.25c6.1-21.21,16.76-40.43,30.88-56.6l-75.89-65.69h0ZM166.35,155.94c18.27-17.64,41.07-30.65,66.38-37.16l-39.96-95.45c-38.25,12.95-72.3,34.98-99.72,63.52l73.3,69.1ZM46.29,363.97c12.18,26.37,29.06,50.69,50.21,71.84,15.64,15.65,32.94,28.95,51.63,39.66l46.88-83.96c-11.07-6.45-21.33-14.3-30.65-23.61-13.49-13.49-24.03-29.13-31.41-46.19l-86.65,42.26ZM163.18,483.57c33.69,16.52,71.01,25.25,109.62,25.25,6.39,0,12.78-.22,19.11-.71l-11.73-97.03c-3.57.22-7.14.34-10.77.34-21.63,0-42.6-4.64-61.71-13.37l-44.52,85.51h0ZM306.21,506.66c50.26-6.75,97.04-28.55,134.88-63.17l-70.79-71.56c-21.86,20.28-48.87,33.29-77.98,37.74l13.89,96.98h0ZM453.22,431.53c32.34-33.87,54.08-75.25,63.51-120.13l-102.36-15.71c-5.62,25.2-17.82,48.47-35.62,67.81l74.48,68.03h0ZM519.78,294.12c1.53-11.37,2.34-22.98,2.34-34.64,0-41.6-10.24-80.87-28.29-115.32l-89.48,56.36c8.79,18.93,13.65,40.02,13.65,62.3,0,7.32-.52,14.58-1.53,21.68l103.31,9.62h0ZM484.45,127.81c-23.33-37.38-56.31-68.21-95.4-88.9l-51.33,91.94c24.92,12.95,45.77,32.75,59.96,56.96l86.78-60.01h0ZM371.43,30.47c-30.24-13.13-63.59-20.39-98.62-20.39-22.26,0-43.83,2.93-64.33,8.45l36.86,97.61c7.86-1.29,15.89-1.94,24.09-1.94,20.39,0,39.84,4.17,57.54,11.61l44.47-95.35ZM271.11,0c72.3,0,140.39,28.31,191.65,79.58,51.27,51.28,79.51,119.31,79.51,191.61s-28.18,140.58-79.46,191.79c-51.15,51.23-119.29,79.4-191.71,79.4s-140.51-28.17-191.71-79.4C28.19,411.72,0,343.62,0,271.2,0,121.66,121.57,0,271.11,0"/>
  </g>
</svg>