<?xml version="1.0" encoding="UTF-8" standalone="no"?>
<svg
   id="Layer_2"
   data-name="Layer 2"
   viewBox="0 0 542.26999 542.37999"
   version="1.1"
   width="542.27002"
   height="542.38"
   xmlns="http://www.w3.org/2000/svg"
   xmlns:svg="http://www.w3.org/2000/svg">
  <defs
     id="defs1">
    <style
       id="style1">
      .cls-1 {
        stroke-width: 0px;
      }
    </style>
  </defs>
  <g
     id="Layer_1-2"
     data-name="Layer 1">
    <path
       class="cls-1"
       d="m 137.81,238.85 c -1.23,7.26 -1.82,14.72 -1.82,22.26 0,14.48 2.24,28.55 6.57,41.9 l 29.18,-11.72 c -3.57,-10.49 -5.57,-21.74 -5.57,-33.51 0,-3.81 0.24,-7.56 0.64,-11.25 l -29.01,-7.68 v 0 z m 29.65,-64.4 c -12.42,14.88 -21.74,32.46 -26.9,51.74 l 28.24,8.33 c 3.57,-15.47 10.6,-29.66 20.26,-41.6 l -21.61,-18.47 z m 29.18,10.14 c 13.95,-13.89 31.81,-23.79 51.85,-27.95 l -11.25,-26.37 c -23.37,6.03 -44.29,18.23 -60.99,34.68 l 20.38,19.64 v 0 z m -49.52,130.62 c 6.69,15.29 16.23,29.36 28.43,41.49 8.21,8.19 17.28,15.23 27.01,21.03 l 16.57,-29.78 C 200.1,337.34 184.8,320.89 175.6,301.03 l -28.49,14.18 z m 67.92,69.02 c 17.4,7.92 36.39,12.08 56.07,12.08 2.46,0 4.92,-0.06 7.38,-0.18 l -4.45,-35.15 c -1.52,0.06 -3.05,0.06 -4.62,0.06 -13.61,0 -26.61,-2.64 -38.51,-7.44 z m 75.4,10.73 c 26.25,-3.75 50.68,-15.06 70.67,-32.93 l -24.9,-25.43 c -14.17,12 -31.65,20.21 -50.8,23.25 l 5.04,35.1 v 0 z m 78.75,-40.77 c 16.29,-17.12 27.54,-37.8 33.11,-60.25 l -34.39,-5.04 c -4.92,15.77 -13.59,29.88 -24.9,41.37 l 26.19,23.91 v 0 z m 35.28,-70.8 c 1.17,-7.28 1.82,-14.72 1.82,-22.28 0,-19.5 -4.17,-38.09 -11.67,-54.91 l -27.83,17.12 c 3.81,10.79 5.91,22.38 5.91,34.46 0,7.73 -0.87,15.23 -2.46,22.5 z m -16.06,-89.3 C 375.34,171.17 355.73,152.54 332.1,140.52 l -14.42,25.97 c 19.35,10.2 34.99,26.37 44.6,45.99 z M 322.08,135.96 C 306.33,129.51 289.16,126 271.11,126 c -7.38,0 -14.7,0.58 -21.8,1.76 L 259.55,155 c 3.29,-0.29 6.57,-0.47 9.86,-0.47 14.3,0 27.89,2.87 40.24,8.15 l 12.42,-26.72 v 0 z m -293.67,74 c -3.22,16.01 -4.92,32.52 -4.92,49.52 0,29.66 5.1,58.54 15,85.61 l 89.54,-36.33 c -4.7,-14.64 -7.21,-30.12 -7.21,-45.93 0,-9.44 0.94,-18.69 2.64,-27.72 L 28.42,209.97 Z M 81.56,99.62 c -22.67,27.06 -39.72,59.06 -49.28,94.04 l 94.28,28.25 c 6.1,-21.21 16.76,-40.43 30.88,-56.6 L 81.55,99.62 v 0 z m 84.79,56.32 c 18.27,-17.64 41.07,-30.65 66.38,-37.16 L 192.77,23.33 c -38.25,12.95 -72.3,34.98 -99.72,63.52 l 73.3,69.1 z M 46.29,363.97 c 12.18,26.37 29.06,50.69 50.21,71.84 15.64,15.65 32.94,28.95 51.63,39.66 l 46.88,-83.96 c -11.07,-6.45 -21.33,-14.3 -30.65,-23.61 -13.49,-13.49 -24.03,-29.13 -31.41,-46.19 L 46.3,363.97 Z m 116.89,119.6 c 33.69,16.52 71.01,25.25 109.62,25.25 6.39,0 12.78,-0.22 19.11,-0.71 l -11.73,-97.03 c -3.57,0.22 -7.14,0.34 -10.77,0.34 -21.63,0 -42.6,-4.64 -61.71,-13.37 l -44.52,85.51 v 0 z m 143.03,23.09 c 50.26,-6.75 97.04,-28.55 134.88,-63.17 L 370.3,371.93 c -21.86,20.28 -48.87,33.29 -77.98,37.74 l 13.89,96.98 v 0 z M 453.22,431.53 C 485.56,397.66 507.3,356.28 516.73,311.4 L 414.37,295.69 c -5.62,25.2 -17.82,48.47 -35.62,67.81 l 74.48,68.03 v 0 z m 66.56,-137.41 c 1.53,-11.37 2.34,-22.98 2.34,-34.64 0,-41.6 -10.24,-80.87 -28.29,-115.32 l -89.48,56.36 c 8.79,18.93 13.65,40.02 13.65,62.3 0,7.32 -0.52,14.58 -1.53,21.68 z M 484.45,127.81 C 461.12,90.43 428.14,59.6 389.05,38.91 l -51.33,91.94 c 24.92,12.95 45.77,32.75 59.96,56.96 l 86.78,-60.01 v 0 z M 371.43,30.47 C 341.19,17.34 307.84,10.08 272.81,10.08 c -22.26,0 -43.83,2.93 -64.33,8.45 l 36.86,97.61 c 7.86,-1.29 15.89,-1.94 24.09,-1.94 20.39,0 39.84,4.17 57.54,11.61 L 371.44,30.46 Z M 271.11,0 c 72.3,0 140.39,28.31 191.65,79.58 51.27,51.28 79.51,119.31 79.51,191.61 0,72.3 -28.18,140.58 -79.46,191.79 -51.15,51.23 -119.29,79.4 -191.71,79.4 -72.42,0 -140.51,-28.17 -191.71,-79.4 C 28.19,411.72 0,343.62 0,271.2 0,121.66 121.57,0 271.11,0"
       id="path1" />
  </g>
</svg>
