<svg xmlns="http://www.w3.org/2000/svg" width="162.866" height="203.47"><path fill="#fff" d="M53.08 46.4C58.58 30.99 63.72 15.45 69.12 0c1.7 21.77 5.38 43.64 2.9 65.5-.72 7.12-3.06 14.07-6.89 20.12-7.37 12.19-19.63 20.85-25.84 33.78 1.97 1.62 4 3.17 6.23 4.4 12.11 7.16 25.46 12.64 35.79 22.45 12.25-11.69 28.97-16.71 42.28-26.83-5.82-12.28-17.23-20.64-24.6-31.9-4.51-6.54-7.36-14.19-8.13-22.11-2.45-21.83 1.2-43.66 2.91-65.41 5.52 15.75 10.72 31.6 16.37 47.29 2.42 6.83 5.29 13.59 9.53 19.51 7.33 10.02 18.02 16.66 27.24 24.73 7.98 7.3 15.4 16.7 15.9 27.96.61 8.99-3.87 17.5-10.07 23.72-16.63 16.86-41.8 22.43-56.9 41.11-4.96 5.34-7.08 12.41-9.38 19.14-3.36.01-6.72.01-10.07.01-1.92-5.34-3.33-10.99-6.67-15.67-3.17-4.47-6.96-8.49-11.16-12-14.16-11.72-32.16-17.78-45.86-30.12C6.05 139.75.67 131.77 0 122.67v-3.47c.55-7.94 4.53-15.2 9.64-21.15 8.39-10.08 20.29-16.31 29.11-25.95 7.03-7.08 11.07-16.42 14.33-25.7m12.93-20.42c-4.31 11.84-7.73 24.05-13.17 35.44-5.21 11.33-14.73 19.81-24.42 27.29-6.44 4.86-12.8 10.08-17.46 16.75-4.08 5.67-6.61 12.92-5.01 19.92 1.75 7.73 7.46 13.78 13.47 18.58 13.37 10.43 29.63 16.47 42.66 27.38 8.3 6.96 15.4 15.81 18.17 26.47h2.39c2.07-7.34 5.82-14.14 11.11-19.66 12.94-14.63 31.91-21.23 47.44-32.45 6.67-4.94 13.2-11.09 15.51-19.33 2.15-7.5-.66-15.42-5.17-21.47-8.36-11.66-21.71-18.14-31.23-28.68-13.22-13.68-16.84-33.07-23.42-50.25-.97 9.46-1.67 18.97-1.29 28.48.29 8.11.77 16.54 4.5 23.92 6.87 14.08 20.82 23.17 27.72 37.19 1.33 2.75 1.49 6.48-1.14 8.53-5.87 5.17-13.19 8.24-19.92 12.1-9.2 5.1-19.08 10.09-25.48 18.74-7.68-10.43-19.99-15.67-30.94-21.87-5.35-3.1-11.4-5.62-15.41-10.5-2.28-4.39 1.06-9.06 3.39-12.69 8.95-12.86 22.91-22.78 27.11-38.53 3.11-14.9 2.05-30.31.59-45.36"/><path d="M66.01 25.98c1.46 15.05 2.52 30.46-.59 45.36-4.2 15.75-18.16 25.67-27.11 38.53-2.33 3.63-5.67 8.3-3.39 12.69 4.01 4.88 10.06 7.4 15.41 10.5 10.95 6.2 23.26 11.44 30.94 21.87 6.4-8.65 16.28-13.64 25.48-18.74 6.73-3.86 14.05-6.93 19.92-12.1 2.63-2.05 2.47-5.78 1.14-8.53-6.9-14.02-20.85-23.11-27.72-37.19-3.73-7.38-4.21-15.81-4.5-23.92-.38-9.51.32-19.02 1.29-28.48 6.58 17.18 10.2 36.57 23.42 50.25 9.52 10.54 22.87 17.02 31.23 28.68 4.51 6.05 7.32 13.97 5.17 21.47-2.31 8.24-8.84 14.39-15.51 19.33-15.53 11.22-34.5 17.82-47.44 32.45-5.29 5.52-9.04 12.32-11.11 19.66h-2.39c-2.77-10.66-9.87-19.51-18.17-26.47-13.03-10.91-29.29-16.95-42.66-27.38-6.01-4.8-11.72-10.85-13.47-18.58-1.6-7 .93-14.25 5.01-19.92 4.66-6.67 11.02-11.89 17.46-16.75 9.69-7.48 19.21-15.96 24.42-27.29 5.44-11.39 8.86-23.6 13.17-35.44"/></svg>