<?xml version="1.0" encoding="UTF-8"?>
<svg id="Layer_2" data-name="Layer 2" xmlns="http://www.w3.org/2000/svg" xmlns:xlink="http://www.w3.org/1999/xlink" viewBox="0 0 1031.05 1080">
  <defs>
    <style>
      .cls-1, .cls-2, .cls-3, .cls-4 {
        fill-rule: evenodd;
        stroke-width: 0px;
      }

      .cls-2 {
        fill: url(#linear-gradient);
      }

      .cls-3 {
        fill: #fff;
      }

      .cls-4 {
        fill: url(#linear-gradient-2);
      }
    </style>
    <linearGradient id="linear-gradient" x1="-439.26" y1="1079.93" x2="-438.26" y2="1079.93" gradientTransform="translate(402699.09 1118399.21) scale(916.64 -1035.08)" gradientUnits="userSpaceOnUse">
      <stop offset="0" stop-color="#626e77"/>
      <stop offset=".04" stop-color="#697780"/>
      <stop offset=".11" stop-color="#7d8e98"/>
      <stop offset=".2" stop-color="#9eb4c0"/>
      <stop offset=".2" stop-color="#a0b6c2"/>
      <stop offset=".2" stop-color="#a1b7c3"/>
      <stop offset=".29" stop-color="#adc6d4"/>
      <stop offset=".38" stop-color="#b5cede"/>
      <stop offset=".5" stop-color="#b7d1e1"/>
      <stop offset=".62" stop-color="#b5cede"/>
      <stop offset=".71" stop-color="#adc6d4"/>
      <stop offset=".8" stop-color="#a1b7c3"/>
      <stop offset=".8" stop-color="#a0b6c2"/>
      <stop offset=".85" stop-color="#8b9da8"/>
      <stop offset=".91" stop-color="#74838d"/>
      <stop offset=".96" stop-color="#67747d"/>
      <stop offset="1" stop-color="#626e77"/>
    </linearGradient>
    <linearGradient id="linear-gradient-2" y1="1080.21" y2="1080.21" gradientTransform="translate(651084.55 1601895.99) scale(1482.79 -1482.79)" xlink:href="#linear-gradient"/>
  </defs>
  <g id="Layer_1-2" data-name="Layer 1">
    <path class="cls-1" d="M515.52,215.26c50.83-89.94,101.22-95.36,170.29-117.92,50.66-16.55,150.73-61.55,172.62-97.33,50.76,36.91,108.58,64.1,172.62,82.75-67.26,229.76-87.2,461.12-57.2,694.13-148.28,110.93-299.66,215.03-458.33,303.12-158.65-88.09-310.03-192.19-458.32-303.12C87.19,543.88,67.26,312.52,0,82.75,64.03,64.1,121.86,36.91,172.62,0c21.89,35.78,121.96,80.78,172.62,97.33,69.06,22.56,119.46,27.98,170.28,117.92h0Z"/>
    <path class="cls-2" d="M515.52,1035.07c-101.63-56.42-199.85-122.42-296.08-193.99,19.14-211.24,11.94-426.64-26.84-647.03,47.9,16.81,100.18,36.1,179.35,63.68,34.92,46.62,78.32,82.81,143.57,82.81s108.66-36.19,143.58-82.81c79.18-27.59,131.44-46.87,179.34-63.68-38.78,220.39-45.98,435.79-26.83,647.03-96.23,71.57-194.45,137.57-296.09,193.99ZM185.51,815.56c-25.37-19.3-50.62-38.95-75.76-58.88,12-213.16-5.22-413.04-43.14-603.5,32.41,9.6,60,18.38,86.99,27.47,39.89,216.25,48.82,427.63,31.91,634.92ZM845.54,815.56c-16.92-207.29-7.98-418.67,31.9-634.92,26.99-9.08,54.59-17.87,86.99-27.47-37.92,190.46-55.13,390.35-43.13,603.5-25.14,19.93-50.39,39.59-75.76,58.88h0Z"/>
    <path class="cls-4" d="M515.5,303.01c-52.72-.01-98.22-31.08-119.21-75.88L57.2,97.18c36.25-15.08,75.07-38.17,111.32-61.63,21.48,19.14,107.52,73.07,179.22,91.14,98.3,24.79,156.58,83.72,167.77,163.94,11.21-80.22,69.48-139.15,167.78-163.94,71.7-18.07,157.74-72,179.22-91.14,36.25,23.46,75.07,46.55,111.32,61.63l-339.08,129.96c-20.99,44.8-66.5,75.86-119.21,75.88h-.06,0Z"/>
    <path class="cls-1" d="M551.59,441.48c42.53,78.41,90.58,144.68,144.47,198.47l30.3,30.24-31.5,28.99c-59.6,54.86-107,119.12-142.37,192.64l-36.97,76.87-36.97-76.87c-35.36-73.51-82.75-137.77-142.37-192.64l-31.49-28.99,30.29-30.24c53.89-53.78,101.95-120.06,144.48-198.47l36.06-66.5,36.07,66.5h0Z"/>
    <path class="cls-3" d="M515.52,461.04c44.58,82.19,95.08,151.57,151.56,207.95-63.46,58.4-113.92,126.79-151.56,205.04-37.63-78.25-88.1-146.64-151.55-205.04,56.48-56.38,106.98-125.76,151.55-207.95h0Z"/>
  </g>
</svg>