<?xml version="1.0" encoding="UTF-8" standalone="no"?>
<svg
   id="Layer_2"
   data-name="Layer 2"
   viewBox="0 0 1031.05 1080.01"
   version="1.1"
   width="1031.05"
   height="1080.01"
   xmlns:xlink="http://www.w3.org/1999/xlink"
   xmlns="http://www.w3.org/2000/svg"
   xmlns:svg="http://www.w3.org/2000/svg">
  <defs
     id="defs17">
    <style
       id="style1">
      .cls-1, .cls-2, .cls-3, .cls-4 {
        fill-rule: evenodd;
        stroke-width: 0px;
      }

      .cls-2 {
        fill: url(#linear-gradient);
      }

      .cls-3 {
        fill: #fff;
      }

      .cls-4 {
        fill: url(#linear-gradient-2);
      }
    </style>
    <linearGradient
       id="linear-gradient"
       x1="-439.26001"
       y1="1079.9301"
       x2="-438.26001"
       y2="1079.9301"
       gradientTransform="matrix(916.64,0,0,-1035.08,402699.09,1118399.2)"
       gradientUnits="userSpaceOnUse">
      <stop
         offset="0"
         stop-color="#626e77"
         id="stop1" />
      <stop
         offset=".04"
         stop-color="#697780"
         id="stop2" />
      <stop
         offset=".11"
         stop-color="#7d8e98"
         id="stop3" />
      <stop
         offset=".2"
         stop-color="#9eb4c0"
         id="stop4" />
      <stop
         offset=".2"
         stop-color="#a0b6c2"
         id="stop5" />
      <stop
         offset=".2"
         stop-color="#a1b7c3"
         id="stop6" />
      <stop
         offset=".29"
         stop-color="#adc6d4"
         id="stop7" />
      <stop
         offset=".38"
         stop-color="#b5cede"
         id="stop8" />
      <stop
         offset=".5"
         stop-color="#b7d1e1"
         id="stop9" />
      <stop
         offset=".62"
         stop-color="#b5cede"
         id="stop10" />
      <stop
         offset=".71"
         stop-color="#adc6d4"
         id="stop11" />
      <stop
         offset=".8"
         stop-color="#a1b7c3"
         id="stop12" />
      <stop
         offset=".8"
         stop-color="#a0b6c2"
         id="stop13" />
      <stop
         offset=".85"
         stop-color="#8b9da8"
         id="stop14" />
      <stop
         offset=".91"
         stop-color="#74838d"
         id="stop15" />
      <stop
         offset=".96"
         stop-color="#67747d"
         id="stop16" />
      <stop
         offset="1"
         stop-color="#626e77"
         id="stop17" />
    </linearGradient>
    <linearGradient
       id="linear-gradient-2"
       y1="1080.21"
       y2="1080.21"
       gradientTransform="matrix(1482.79,0,0,-1482.79,651084.55,1601896)"
       xlink:href="#linear-gradient" />
    <linearGradient
       xlink:href="#linear-gradient"
       id="linearGradient21"
       gradientUnits="userSpaceOnUse"
       gradientTransform="matrix(916.64,0,0,-1035.08,402699.09,1118399.2)"
       x1="-439.26001"
       y1="1079.9301"
       x2="-438.26001"
       y2="1079.9301" />
  </defs>
  <g
     id="Layer_1-2"
     data-name="Layer 1">
    <path
       class="cls-1"
       d="M 515.52,215.26 C 566.35,125.32 616.74,119.9 685.81,97.34 736.47,80.79 836.54,35.79 858.43,0.01 c 50.76,36.91 108.58,64.1 172.62,82.75 -67.26,229.76 -87.2,461.12 -57.2,694.13 C 825.57,887.82 674.19,991.92 515.52,1080.01 356.87,991.92 205.49,887.82 57.2,776.89 87.19,543.88 67.26,312.52 0,82.75 64.03,64.1 121.86,36.91 172.62,0 c 21.89,35.78 121.96,80.78 172.62,97.33 69.06,22.56 119.46,27.98 170.28,117.92 v 0 z"
       id="path17" />
    <path
       class="cls-2"
       d="M 515.52,1035.07 C 413.89,978.65 315.67,912.65 219.44,841.08 238.58,629.84 231.38,414.44 192.6,194.05 c 47.9,16.81 100.18,36.1 179.35,63.68 34.92,46.62 78.32,82.81 143.57,82.81 65.25,0 108.66,-36.19 143.58,-82.81 79.18,-27.59 131.44,-46.87 179.34,-63.68 -38.78,220.39 -45.98,435.79 -26.83,647.03 -96.23,71.57 -194.45,137.57 -296.09,193.99 z M 185.51,815.56 c -25.37,-19.3 -50.62,-38.95 -75.76,-58.88 12,-213.16 -5.22,-413.04 -43.14,-603.5 32.41,9.6 60,18.38 86.99,27.47 39.89,216.25 48.82,427.63 31.91,634.92 z m 660.03,0 c -16.92,-207.29 -7.98,-418.67 31.9,-634.92 26.99,-9.08 54.59,-17.87 86.99,-27.47 -37.92,190.46 -55.13,390.35 -43.13,603.5 -25.14,19.93 -50.39,39.59 -75.76,58.88 v 0 z"
       id="path18"
       style="fill:url(#linearGradient21)" />
    <path
       class="cls-4"
       d="M 515.5,303.01 C 462.78,303 417.28,271.93 396.29,227.13 L 57.2,97.18 C 93.45,82.1 132.27,59.01 168.52,35.55 c 21.48,19.14 107.52,73.07 179.22,91.14 98.3,24.79 156.58,83.72 167.77,163.94 11.21,-80.22 69.48,-139.15 167.78,-163.94 71.7,-18.07 157.74,-72 179.22,-91.14 36.25,23.46 75.07,46.55 111.32,61.63 L 634.75,227.14 c -20.99,44.8 -66.5,75.86 -119.21,75.88 h -0.06 v 0 z"
       id="path19"
       style="fill:url(#linear-gradient-2)" />
    <path
       class="cls-1"
       d="m 551.59,441.48 c 42.53,78.41 90.58,144.68 144.47,198.47 l 30.3,30.24 -31.5,28.99 c -59.6,54.86 -107,119.12 -142.37,192.64 l -36.97,76.87 -36.97,-76.87 C 443.19,818.31 395.8,754.05 336.18,699.18 l -31.49,-28.99 30.29,-30.24 C 388.87,586.17 436.93,519.89 479.46,441.48 l 36.06,-66.5 z"
       id="path20" />
    <path
       class="cls-3"
       d="M 515.52,461.04 C 560.1,543.23 610.6,612.61 667.08,668.99 603.62,727.39 553.16,795.78 515.52,874.03 477.89,795.78 427.42,727.39 363.97,668.99 420.45,612.61 470.95,543.23 515.52,461.04 Z"
       id="path21" />
  </g>
</svg>
