<svg xmlns="http://www.w3.org/2000/svg" width="491.491" height="644.536" viewBox="0 0 491.491 644.536"><path d="M133.84 243.417c10.37-16.09 23.66-30.37 39.4-41.31 21.15-14.84 46.8-23.39 72.7-23.26 26.31-.04 52.331 8.89 73.63 24.22 14.83 10.58 27.45 24.14 37.409 39.37 23.991-50.29 57.2-96.11 97.431-134.65-11.91-17.2-26.53-32.41-42.46-45.91-38.16-32.22-85.71-52.98-135.19-59.5-13.89-1.75-27.93-3.07-41.919-1.98-42.34 2.52-84.13 15.04-120.58 36.79-30.09 18.01-57 41.82-77.19 70.59 40.839 38.22 73.379 84.92 96.769 135.64M7.41 269.757c26.75 14.81 52.68 31.14 77.42 49.12 21.65 15.89 42.6 33.03 60.44 53.2-2.71-13.69-6.15-27.23-10.12-40.61-18.61-62.06-48.1-121.67-91.19-170.44-6.39 5.83-12.54 11.96-17.9 18.75-3.36 4.35-6.62 8.97-8.03 14.36 24.1 29.83 46.64 60.89 68.36 92.49-20.42-15.96-40.71-32.08-61.25-47.89-8.25 8.75-14.1 19.59-17.73 31.02m440.1-108.73c-26.899 30.34-48.479 65.15-65.43 101.91-15.98 34.89-28.28 71.52-35.891 109.149 16.61-18.81 35.971-34.96 56.021-49.95 26.05-19.29 53.49-36.67 81.84-52.37-3.62-11.44-9.479-22.25-17.71-31.03-20.55 15.79-40.85 31.92-61.26 47.9a2225 2225 0 0 1 31.75-44.89c11.77-16.24 24.23-31.96 36.641-47.71-1.65-5.67-5.11-10.55-8.741-15.12-5.211-6.45-11.11-12.3-17.22-17.89"/><path d="M313.07 412.597c1.72-44.11 11.689-87.66 26.65-129.1-5.261-12.99-12.57-25.2-21.86-35.71-14.49-16.51-34.171-28.84-55.9-32.88-20.37-3.95-41.96-.12-60.05 9.93-23.75 13.01-41.35 35.55-50.95 60.63 14.44 40.93 24.16 83.669 27.48 126.99 8.91 11.59 17.15 23.73 24.41 36.44 17.64 30.739 31.52 63.53 42.88 97.07 5.68-16.94 12.13-33.61 19.28-49.98 12.99-29.37 28.04-58.14 48.06-83.39M96.02 368.706c-22.42-20.28-46.54-38.79-72.57-54.2-11.72 24.48-18.63 51-23.45 77.62 22.5 14.45 43.62 31.17 62.13 50.49 23.05 24.08 42.17 52.48 52.79 84.24 5.44 16.59 9.04 34.029 8.31 51.56 25.23 33.86 63.91 55.98 104.45 66.12-.18-39.37-7.32-78.67-20.9-115.61-22.56-61.71-62.3-116.24-110.76-160.22m371.999-54.2c-25.979 15.37-50.04 33.85-72.42 54.07-47.949 43.47-87.359 97.25-110.089 158.12-14.109 37.59-21.53 77.67-21.729 117.82 14.409-3.45 28.38-8.67 41.67-15.2 24.2-11.95 46.44-28.76 62.5-50.62.12-11 .93-22.2 3.42-33.02 7-32.52 23.43-62.41 44.49-87.92 21.36-25.89 47.489-47.53 75.63-65.67-4.901-26.6-11.741-53.11-23.472-77.58"/></svg>