<svg xmlns="http://www.w3.org/2000/svg" width="344.204" height="400.918"><path d="M0 324.135c14.35 24.384 33.914 45.428 58.963 59.71 21.711 12.358 46.682 17.073 71.568 17.073h2.834c63.103 0 117.055-43.049 144.154-98.049 9.9-20.118 15.821-40.923 21.167-62.549 4.222-17.082 10.903-32.357 28.648-38.547 4.885-1.71 10.316-2.127 16.87-2.705 0 0-7.1-.3-15.866-3.677-14.699-5.645-21.838-15.16-23.26-30.692-2.01-21.594-2.76-43.175-5.56-64.77-.118-1.336-.33-2.757-.49-4.136h11.224l7.771-14.613V0Zm191-194.672c2.657 18.177 4.42 36.656 4.42 53.773 0 36.753-3.754 91.078-52.95 91.078h-5.59c-26.483 0-41.521-17.283-50.01-38.718z"/><path d="M26.957 296.66s56.105 65.965 111.334 65.965h2.8c112.46 0 140.597-120.882 140.597-181.355 0-60.463-12.647-123.77-12.647-123.77h25.303V24.135ZM220.322 99.578c3.822 22.922 6.547 46.965 6.547 69.045 0 74.499-26.725 129.36-84.355 129.36h-5.633c-31.81 0-54.2-16.697-67.889-44.167z" style="fill:#d4a83a"/><path d="M249.959 95.504c-7.943 0-14.41 6.435-14.41 14.41s6.467 14.399 14.41 14.399c7.975 0 14.443-6.424 14.443-14.399s-6.468-14.41-14.443-14.41m4.213 65.348c-7.932 0-14.4 6.478-14.4 14.453 0 7.932 6.468 14.41 14.4 14.41 7.975 0 14.41-6.478 14.41-14.41 0-7.975-6.435-14.453-14.41-14.453m-8.393 62.6c-8.017 0-14.453 6.425-14.453 14.4 0 7.985 6.436 14.41 14.453 14.41 7.932 0 14.368-6.425 14.368-14.41 0-7.975-6.436-14.4-14.368-14.4m-27.472 57.618c-7.932 0-14.41 6.479-14.41 14.453 0 7.932 6.478 14.41 14.41 14.41 7.974 0 14.441-6.478 14.441-14.41 0-7.974-6.467-14.453-14.441-14.453m-157.432.002c-7.975 0-14.4 6.477-14.4 14.451 0 7.932 6.425 14.41 14.4 14.41 7.932 0 14.367-6.478 14.367-14.41 0-7.974-6.435-14.45-14.367-14.45M199.6 311.688s-22.14 12.987-42.89 5.59c0 0 11.61 14.079-.331 29.195 0 0 35.492-9.482 43.22-34.785m-119.89.705c7.762 25.303 43.263 34.785 43.263 34.785-11.941-15.116-.332-29.184-.332-29.184-20.76 7.387-42.93-5.601-42.93-5.601m60.132 5.26c-7.975 0-14.41 6.478-14.41 14.41a14.39 14.39 0 0 0 14.41 14.41c7.974 0 14.441-6.436 14.441-14.41 0-7.932-6.467-14.41-14.441-14.41"/></svg>