<svg xmlns="http://www.w3.org/2000/svg" width="600" height="709.264"><path d="m48.476 96.896-.071.976c-.196 4.007-.338 8.103-.338 12.11 0 63.795 27.571 131.117 83.05 157.358-4.645 3.476-9.22 6.933-13.51 10.532-11.082 9.291-25.355 22.163-36.986 39.557-12.465 18.688-17.59 39.468-17.59 59.911 0 25.071 8.033 49.38 19.735 69.043C42.252 469.858 0 513.777 0 585.603c0 66.56 37.34 96.471 59.628 108.386 41.152 22.022 98.35 18.28 123.989 1.17l16.135-12.73c5.744-5 14.397-12.411 17.66-11.986l9.06.958c25.496 2.978 51.88 5.957 80.425 3.404 22.571-2.074 41.755-6.862 58.653-14.752l17.66-9.557c2.286-1.312 5-2.836 7.481-4.166 6.508 5.886 16.011 14.273 30.48 19.255 18.563 6.312 39.751 4.362 58.598-3.6 13.493 9.416 27.98 13.795 43.688 10.39 29.859-6.293 54.38-26.17 67.323-54.574 6.17-13.44 9.22-27.978 9.22-42.393 0-16.756-4.149-33.44-12.394-48.263-26.737-48.35-83.12-66.01-133.67-69.822 17.66-7.678 33.794-18.972 43.564-35.656 6.294-10.674 9.415-22.163 9.415-33.954 0-14.326-4.646-28.936-13.777-42.66-32.553-48.759-89.627-45.709-117.056-44.255-7.961.425-16.685.976-25.834 1.808 4.362-1.454 8.653-3.599 13.014-4.574l24.947-5.124c67.873-13.298 170.443-33.387 170.443-116.153 0-31.507-13.847-60.815-39.06-82.553-34.29-29.645-87.003-43.422-137.553-36.01-50.355 7.41-63.245 3.102-97.518-8.245-18.422-6.241-38.44-9.291-59.29-9.15 0 0-17.11 2.5-23.547 3.405-2.766-2.854-16.134-16.915-16.134-16.915C170.514 15.585 147.18 0 117.323 0c-29.025 0-64.54 16.844-68.848 96.897" style="fill:gray"/><path d="M139.345 471.932s-93.28 22.039-93.28 113.67 96.684 81.436 111.914 71.259c15.302-10.177 33.937-35.674 64.486-32.27 26.738 2.98 53.334 6.791 80.266 4.291 14.823-1.312 29.787-4.29 43.369-10.603 20-9.344 37.465-27.003 61.082-16.684 11.01 4.84 17.517 16.49 28.883 20.355 12.464 4.237 28.05-.622 37.535-9.202 20.426-18.635 23.9 18.067 40.372 14.61 34.078-7.27 49.876-47.997 33.316-77.908-26.312-47.518-109.149-51.95-155.479-43.848-27.925 4.911-57.837 11.082-84.503 20.638-66.135 23.688-225.639 32.199-167.961-54.308M188.67 91.914c10.869 1.738 25.266-4.982 36.844-4.982 15.018-.142 30.195 1.933 44.468 6.72 40.71 13.564 61.082 18.617 118.777 10.177 57.695-8.528 123.83 20.355 123.83 72.926s-106.862 64.485-159.504 76.33c-52.571 11.914-103.475 50.904-123.83 79.716-20.372 28.812-8.457 47.517 52.57 28.812 31.153-9.486 64.274-13.085 96.685-14.823 27.358-1.454 58.937-2.145 76.241 23.83 28.883 43.35-54.574 57.748-79.645 55.745-30.957-2.483-62.057-1.313-92.872 2.429-29.858 3.599-55.763 14.68-84.291 22.996-29.362 8.653-55.957.763-73.138-24.521-15.993-23.475-22.784-58.865-5.816-84.291 7.624-11.418 17.66-20.993 28.192-29.716 21.542-17.997 46.258-32.34 71.134-45.16 10.87-5.603 21.88-10.869 32.961-16.064 4.717-2.216 46.827-14.397 34.291-26.525-7.553-7.269-35.745 2.288-44.397 3.387-23.9 2.926-50.78 7.145-74.663 2.092-55.904-11.72-74.805-82.216-72.11-130.567.69-12.607 2.429-54.29 22.925-54.29 14.894 0 28.405 8.58 39.823 17.446 9.433 7.482 17.394 24.592 29.858 27.979.55.141 1.1.212 1.667.354"/></svg>