<svg xmlns="http://www.w3.org/2000/svg" xmlns:xlink="http://www.w3.org/1999/xlink" width="600" height="709.349"><radialGradient id="a" cx="0" cy="0" r="1" fx="0" fy="0" gradientTransform="matrix(15.4394 0 0 -15.4394 665.501 259.299)" gradientUnits="userSpaceOnUse" spreadMethod="pad"><stop offset="0" style="stop-color:#bf99c3"/><stop offset=".663" style="stop-color:#7b5190"/><stop offset="1" style="stop-color:#612c75"/></radialGradient><radialGradient xlink:href="#a" id="b" cx="0" cy="0" r="1" fx="0" fy="0" gradientTransform="translate(300.018 354.76)scale(273.78072)" gradientUnits="userSpaceOnUse" spreadMethod="pad"/><path d="m48.482 96.908-.071.976c-.195 4.007-.338 8.104-.338 12.111 0 63.802 27.574 131.133 83.06 157.377-4.646 3.476-9.221 6.933-13.513 10.533-11.154 9.292-25.357 22.166-36.99 39.562-12.466 18.69-17.662 39.472-17.662 59.918 0 25.074 8.033 49.385 19.808 69.05C42.256 469.915 0 513.838 0 585.673c0 66.568 37.345 96.483 59.635 108.4 41.157 22.023 98.362 18.282 123.933 1.17l16.207-12.732c5.746-5 14.4-12.413 17.662-11.987l9.008.957c25.553 2.98 51.939 5.958 80.488 3.405 22.574-2.075 41.76-6.863 58.66-14.754l17.662-9.558c2.287-1.312 5-2.837 7.483-4.167 6.508 5.887 16.012 14.275 30.482 19.258 18.566 6.313 39.756 4.362 58.606-3.6 13.495 9.416 27.911 13.796 43.693 10.391 29.862-6.295 54.315-26.173 67.331-54.58 6.17-13.442 9.15-27.983 9.15-42.4 0-16.756-4.078-33.443-12.324-48.267-26.812-48.357-83.13-66.019-133.686-69.831 17.59-7.678 33.727-18.974 43.569-35.66 6.295-10.676 9.345-22.166 9.345-33.958 0-14.328-4.575-28.94-13.778-42.665-32.486-48.765-89.568-45.715-117-44.26-8.033.425-16.686.975-25.836 1.808 4.362-1.454 8.653-3.6 13.015-4.575l24.88-5.125c67.88-13.299 170.534-33.39 170.534-116.166 0-31.51-13.92-60.823-39.065-82.563-34.295-29.649-87.067-43.427-137.57-36.015-50.36 7.413-63.252 3.104-97.53-8.245-18.423-6.242-38.443-9.292-59.297-9.15 0 0-17.112 2.5-23.549 3.404-2.766-2.855-16.207-16.917-16.207-16.917C170.534 15.587 147.198 0 117.337 0 88.255 0 52.79 16.846 48.48 96.909" style="fill:#fff"/><path d="M139.361 471.988S46 494.029 46 585.67s96.767 81.446 112 71.268c15.302-10.179 33.94-35.678 64.493-32.274 26.74 2.98 53.268 6.792 80.275 4.292 14.824-1.313 29.79-4.292 43.374-10.604 20.002-9.346 37.398-27.007 61.089-16.687 11.012 4.841 17.52 16.491 28.886 20.357 12.466 4.238 28.053-.621 37.54-9.203 20.428-18.637 23.904 18.07 40.377 14.612 34.082-7.27 49.882-48.003 33.32-77.917-26.316-47.524-109.162-51.957-155.568-43.853-27.858 4.912-57.773 11.083-84.443 20.64-66.213 23.691-225.665 32.203-167.98-54.314m49.331-380.063c10.87 1.738 25.216-4.983 36.849-4.983 15.02-.142 30.198 1.933 44.473 6.72 40.714 13.566 61.089 18.62 118.72 10.18 57.701-8.53 123.915 20.356 123.915 72.934s-106.945 64.493-159.522 76.338c-52.578 11.917-103.488 50.91-123.845 79.726-20.375 28.816-8.458 47.523 52.577 28.816 31.156-9.487 64.21-13.087 96.696-14.825 27.361-1.454 58.943-2.146 76.25 23.833 28.887 43.356-54.58 57.755-79.655 55.75-30.96-2.482-62.064-1.311-92.883 2.43-29.862 3.6-55.769 14.683-84.3 23-29.366 8.653-55.965.763-73.148-24.525-15.994-23.478-22.786-58.872-5.816-84.3 7.625-11.42 17.662-20.996 28.124-29.72 21.545-17.999 46.335-32.345 71.214-45.165 10.87-5.604 21.882-10.87 32.965-16.066 4.717-2.216 46.832-14.399 34.295-26.528-7.554-7.27-35.75 2.288-44.403 3.387-23.903 2.926-50.786 7.146-74.672 2.092-55.91-11.72-74.813-82.226-72.118-130.582.69-12.608 2.43-54.298 22.928-54.298 14.896 0 28.408 8.583 39.828 17.45 9.433 7.483 17.395 24.594 29.861 27.981.55.142 1.1.213 1.667.355" style="fill:#612c75"/><path d="M103.275 100.933c-2.287 41.14 13.37 110.545 65.043 121.415 6.863 1.454 14.417 2.146 23.142 2.146 13.778 0 28.123-1.72 41.83-3.529l6.792-.833c1.933-.195 4.859-.958 8.388-1.791 8.245-1.95 18.566-4.363 27.22-4.363 7.199 0 12.465 1.72 16.065 5.196 5.55 5.39 5.338 11.154 4.717 14.062-2.288 10.8-16.208 17.804-37.824 25.553-1.667.62-2.979 1.046-3.528 1.312-11.012 5.196-21.971 10.391-32.7 15.942-30.127 15.445-51.53 29.01-69.547 44.047-8.316 6.934-18.76 16.279-26.457 27.84-15.232 22.858-7.696 54.652 5.746 74.406 10.675 15.712 25.765 24.028 43.64 24.028 6.241 0 12.82-1.028 19.612-2.979 8.228-2.43 16.207-5.054 24.17-7.678 19.452-6.384 39.543-13.034 61.585-15.658 20.694-2.5 40.997-3.813 60.326-3.813 11.633 0 23.141.408 34.348 1.384 1.33.07 2.713.141 4.362.141 23.904 0 62.135-9.291 70.31-24.382 1.667-3.192 3.12-8.458-3.121-17.874-9.487-14.275-24.861-20.357-51.247-20.357-5.816 0-11.562.266-17.112.55-39.42 2.074-68.572 6.507-94.55 14.47-17.183 5.266-31.387 7.908-42.523 7.908-17.875 0-25.287-7.075-28.337-13.034-3.458-6.65-4.788-18.566 8.388-37.327 22.024-31.174 74.796-70.93 129.182-83.272 7.82-1.72 16.757-3.529 26.386-5.39 50.29-9.842 126.132-24.738 126.132-62.277 0-41.07-48.144-65.522-94.692-65.522-6.366 0-12.803.407-18.974 1.312-19.666 2.908-35.182 4.291-48.694 4.291-27.84 0-47.381-5.887-74.193-14.824-12.395-4.15-26.032-6.225-41.548-6.225-4.096 0-9.15 1.17-14.487 2.412-6.082 1.383-12.466 2.855-18.566 2.855-1.791 0-3.6-.142-5.249-.426l-2.163-.407-.48-.071c-10.603-2.908-17.732-11.846-24.098-19.808-3.12-3.883-6.17-7.625-8.937-9.77-9.292-7.27-21.474-15.587-34.366-15.587-2.624 0-11.703 3.245-13.99 45.927M54.935 585.6c0 62.206 48.836 68.91 69.814 68.91 15.728 0 26.049-3.388 28.336-4.913 3.458-2.287 6.987-5.408 10.87-8.724 12.395-10.746 29.365-25.358 52.914-25.358 2.235 0 4.38.142 6.597.426l8.99.957c17.112 2.022 34.703 4.026 51.957 4.026 5.816 0 11.632-.213 17.52-.834 16.154-1.383 29.382-4.646 40.465-9.77 4.504-2.075 8.796-4.629 13.158-7.129 11.296-6.65 23.07-13.512 37.185-13.512 6.03 0 12.058 1.312 17.946 3.883 6.578 2.838 11.632 7.413 16.012 11.42 4.291 3.884 8.033 7.217 12.324 8.671 2.075.692 4.433 1.029 6.863 1.029 7.536 0 16.136-3.245 21.74-8.44 5.621-5.126 11.083-7.626 16.704-7.626 9.682 0 15.57 7.341 20.499 13.37 1.862 2.359 5.39 6.721 7.341 6.721 12.608-2.624 23.07-11.295 28.674-23.62 6.1-13.441 5.603-28.815-1.242-41.21-14.753-26.67-55.148-42.612-107.991-42.612-13.37 0-26.599 1.118-38.231 3.121-24.259 4.22-55.628 10.392-83.06 20.304-28.124 10.037-68.856 16.545-103.771 16.545-31.156 0-71.125-5.125-84.283-29.65-5.125-9.699-5.48-20.835-1.188-33.443-25.482 11.916-66.143 39.898-66.143 97.458" style="fill:url(#b)"/></svg>