<svg xmlns="http://www.w3.org/2000/svg" xmlns:xlink="http://www.w3.org/1999/xlink" width="849" height="515.104"><defs><linearGradient id="a"><stop offset="0" style="stop-color:#7f6e41"/><stop offset=".3" style="stop-color:#ae975f"/><stop offset=".5" style="stop-color:#e3cd99"/><stop offset=".7" style="stop-color:#ae975f"/><stop offset="1" style="stop-color:#7f6e41"/></linearGradient><linearGradient id="b"><stop offset="0" style="stop-color:#7f6e41"/><stop offset=".1" style="stop-color:#ae975f"/><stop offset=".5" style="stop-color:#e3cd99"/><stop offset=".9" style="stop-color:#ae975f"/><stop offset="1" style="stop-color:#7f6e41"/></linearGradient><linearGradient xlink:href="#a" id="c" x1="721.305" x2="1144.695" y1="324.68" y2="324.68" gradientTransform="translate(-508.5 -118.613)" gradientUnits="userSpaceOnUse"/><linearGradient xlink:href="#b" id="d" x1="574.5" x2="1291.5" y1="355.64" y2="355.64" gradientTransform="translate(-508.5 -118.613)" gradientUnits="userSpaceOnUse"/></defs><path d="M378.39 0a242.5 242.5 0 0 0-162.548 115.313C149.958 157.319 79.014 197.75 0 237.527c168.5 80.065 324.795 189.014 424.5 277.577 99.705-88.563 256-197.512 424.5-277.577-79.014-39.776-149.958-80.208-215.842-122.214A242.5 242.5 0 0 0 470.61 0c-3.847.334-4.038 4.955-.556 7.658-.008.026-.019.045-.028.07a71 71 0 0 1 25.475 54.3 71 71 0 0 1-71 71 71 71 0 0 1-71-71 71 71 0 0 1 25.475-54.3c-.01-.025-.02-.044-.028-.07 3.482-2.703 3.29-7.324-.556-7.658" style="fill:#000"/><path d="M327.943 49.17a211.7 211.7 0 0 0-108.886 138.398c7.44 4.52 44.172 26.838 65.697 39.914 4.42 2.686 11.246 12.122 11.246 18.51v32.518l128.5 84.453L553 278.51v-32.518c0-6.388 6.825-15.824 11.246-18.51 21.525-13.076 58.257-35.393 65.697-39.914A211.7 211.7 0 0 0 521.057 49.17a98 98 0 0 1 .959 12.857c0 53.857-43.66 97.516-97.516 97.516s-97.515-43.66-97.516-97.516a97 97 0 0 1 .96-12.857M213.195 229.52q-.27 4-.39 8.006.116 7.146.713 14.268zm422.61 0-.323 22.274q.598-7.122.713-14.268-.12-4.006-.39-8.006" style="fill:url(#c)"/><path d="M193.926 164.2C151.529 191.56 108.6 216.766 66 237.526c123.751 59.16 285.443 171.357 358.5 236.5 73.057-65.143 234.749-177.34 358.5-236.5-42.601-20.76-85.529-45.968-127.926-73.328a242.5 242.5 0 0 1 8.293 32.815c.01 3.087-1.502 5.252-4.119 6.841l-75.998 46.172v44L424.5 398.363 265.75 294.027v-44l-75.998-46.172c-2.617-1.59-4.126-3.754-4.12-6.841a242.5 242.5 0 0 1 8.294-32.815" style="fill:url(#d)"/></svg>