<svg xmlns="http://www.w3.org/2000/svg" width="600" height="508.709"><path d="M278.307 508.709c-80.39 0-153.572-33.444-206.085-94.024C27.02 362.462 0 292.449 0 227.393 0 112.643 57.571 68.98 60.013 67.164c3.968-2.892 8.634-4.36 13.285-4.36s9.374 1.468 13.284 4.36c7.95 5.8 11.134 16.075 7.95 25.377-.116.407-13.735 40.377-13.735 72.004 0 101.219 67.44 153.747 107.701 176.057v-53.37c0-35.828-65.521-67.79-88.457-76.132-7.209-2.675-12.601-8.867-14.258-16.352-1.584-7.558.74-15.392 6.25-20.784L262.58 6.424C266.839 2.224 272.522 0 278.307 0c2.907 0 5.858.508 8.692 1.7 6.468 2.733 11.25 8.358 12.95 14.942C302.551 7.049 311.301 0 321.693 0c80.39 0 153.572 33.328 206.041 93.908C572.98 146.145 600 216.2 600 281.272c0 114.736-57.571 158.398-60.013 160.214-3.968 2.893-8.62 4.317-13.285 4.375-4.709 0-9.36-1.482-13.342-4.433-7.893-5.784-11.12-16.06-7.893-25.377.117-.334 13.692-40.362 13.692-71.99 0-102.134-67.339-154.255-107.7-176.289v53.603c0 33.328 59.605 65.74 88.456 76.19 7.267 2.617 12.602 8.794 14.244 16.352 1.7 7.5-.684 15.334-6.192 20.726L337.42 502.241c-4.317 4.2-9.941 6.468-15.726 6.468-2.95 0-5.901-.625-8.692-1.76a22.56 22.56 0 0 1-12.994-14.926c-2.558 9.593-11.308 16.686-21.7 16.686" style="fill:gray"/><path d="M321.693 22.427v463.797L492.24 318.626s-103.21-37.354-103.21-97.25v-88.24s152.613 49.345 152.613 210.925c0 35.944-15 79.315-15 79.315s50.871-37.353 50.871-142.104c0-115.2-92.716-258.845-255.822-258.845M22.427 227.393c0-104.75 50.87-142.162 50.87-142.162s-14.926 43.429-14.926 79.314c0 161.58 152.612 210.97 152.612 210.97V287.23c0-59.838-103.282-97.25-103.282-97.25L278.307 22.427v463.797c-163.106 0-255.88-143.63-255.88-258.831"/></svg>