<svg xmlns="http://www.w3.org/2000/svg" xmlns:xlink="http://www.w3.org/1999/xlink" width="600" height="508.709"><linearGradient id="a" x1="0" x2="1" y1="0" y2="0" gradientTransform="scale(34.77842 -34.77842)rotate(-45 -9.405 -23.575)" gradientUnits="userSpaceOnUse" spreadMethod="pad"><stop offset="0" style="stop-color:#bf331c"/><stop offset=".15" style="stop-color:#f6b91d"/><stop offset=".3" style="stop-color:#d3641c"/><stop offset=".5" style="stop-color:#bf331c"/><stop offset=".7" style="stop-color:#d3641c"/><stop offset=".85" style="stop-color:#f6b91d"/><stop offset="1" style="stop-color:#bf331c"/></linearGradient><linearGradient xlink:href="#a" id="b" x1="0" x2="1" y1="0" y2="0" gradientTransform="rotate(-45 583.383 70.12)scale(505.48804)" gradientUnits="userSpaceOnUse" spreadMethod="pad"/><path d="M278.264 508.71c-80.347 0-153.529-33.445-206.042-94.025C27.02 362.462 0 292.45 0 227.393 0 112.643 57.571 68.98 60.013 67.164c3.91-2.892 8.634-4.36 13.285-4.36a22.46 22.46 0 0 1 13.284 4.36c7.95 5.8 11.134 16.075 7.95 25.377-.116.407-13.735 40.377-13.735 72.004 0 101.22 67.44 153.747 107.701 176.057v-53.37c0-35.828-65.521-67.79-88.457-76.132-7.209-2.675-12.601-8.867-14.258-16.352-1.643-7.558.74-15.392 6.192-20.784L262.58 6.424A22.35 22.35 0 0 1 278.264 0c2.95 0 5.9.508 8.735 1.7 6.468 2.733 11.25 8.358 12.95 14.942A22.456 22.456 0 0 1 321.693 0c80.39 0 153.514 33.328 206.041 93.908C572.98 146.145 600 216.2 600 281.272c0 114.736-57.63 158.398-60.013 160.214-3.968 2.893-8.62 4.317-13.343 4.375-4.65 0-9.302-1.482-13.284-4.433-7.893-5.784-11.12-16.06-7.95-25.377.174-.334 13.749-40.362 13.749-71.99 0-102.134-67.339-154.255-107.7-176.289v53.603c0 33.328 59.547 65.74 88.456 76.19 7.267 2.617 12.602 8.794 14.244 16.352a22.32 22.32 0 0 1-6.192 20.726L337.42 502.241c-4.317 4.2-10 6.468-15.726 6.468-2.95 0-5.901-.625-8.692-1.76a22.56 22.56 0 0 1-12.994-14.926c-2.558 9.593-11.308 16.686-21.743 16.686"/><path d="M321.693 486.223 492.24 318.626s-103.21-37.354-103.21-97.25v-88.24s152.613 49.403 152.613 210.925c0 35.944-15 79.315-15 79.315s50.871-37.354 50.871-142.104c0-115.259-92.76-258.846-255.822-258.846zM107.7 189.981s103.282 37.411 103.282 97.25v88.283S58.371 326.125 58.371 164.545c0-35.886 14.927-79.315 14.927-79.315s-50.871 37.412-50.871 142.162c0 115.201 92.774 258.831 255.837 258.831V22.426Z" style="fill:url(#b)"/></svg>