<?xml version="1.0" encoding="UTF-8" standalone="no"?>
<svg
   version="1.1"
   id="Layer_1"
   x="0px"
   y="0px"
   width="327.64801"
   height="300"
   xmlns="http://www.w3.org/2000/svg"
   xmlns:svg="http://www.w3.org/2000/svg">
  <defs
     id="defs4" />
  <path
     fill="#ffffff"
     d="m 182.361,299.979 145.287,-5.871 -57.67,-75.099 z M 0,294.107 145.356,300 57.723,219.049 Z M 172.478,292.902 290.667,181.142 234.757,143.483 184.37,0.001 172.479,0.016 Z M 92.924,143.483 37.064,181.178 155.251,292.886 V 0 l -11.944,0.02 z"
     id="path1" />
  <polygon
     points="268.634,236.744 214.649,286.658 304.193,283.047 "
     id="polygon1"
     transform="translate(-0.176)" />
  <polygon
     points="59.385,236.765 23.829,283.02 113.423,286.66 "
     id="polygon2"
     transform="translate(-0.176)" />
  <polygon
     points="271.69,182.753 224.971,151.225 184.641,36.435 184.667,265.032 "
     id="polygon3"
     transform="translate(-0.176)" />
  <polygon
     points="143.391,265.072 143.4,36.417 103.092,151.221 56.378,182.738 "
     id="polygon4"
     transform="translate(-0.176)" />
</svg>
