<?xml version="1.0" encoding="UTF-8"?><svg id="Layer_2" xmlns="http://www.w3.org/2000/svg" width="216" height="130.56" xmlns:xlink="http://www.w3.org/1999/xlink" viewBox="0 0 216 130.56"><defs><style>.cls-1{fill:#010101;}.cls-2{fill:url(#linear-gradient);}</style><linearGradient id="linear-gradient" x1="-15.76651" y1="26.06406" x2="229.23928" y2="125.07465" gradientUnits="userSpaceOnUse"><stop offset=".12759" stop-color="#b7281b"/><stop offset=".14985" stop-color="#bd3417"/><stop offset=".22057" stop-color="#d1570f"/><stop offset=".29216" stop-color="#e07308"/><stop offset=".36409" stop-color="#eb8703"/><stop offset=".4366" stop-color="#f19300"/><stop offset=".51059" stop-color="#f49700"/><stop offset=".57582" stop-color="#f29300"/><stop offset=".63305" stop-color="#ec8803"/><stop offset=".68726" stop-color="#e27607"/><stop offset=".73963" stop-color="#d45d0d"/><stop offset=".79022" stop-color="#c23d15"/><stop offset=".81805" stop-color="#b7281b"/></linearGradient></defs><g id="Layer_1_copy_3"><path class="cls-1" d="M149.28,0l-7.92,21.6h74.64l-40.32,108.96h-80.4l7.92-21.6H33.48l-8.04,21.6H0L48.24,0h101.04ZM66,5.28h-13.92L7.68,125.28h13.92L66,5.28ZM141.6,5.28h-33.6l-11.28,30.96h33.24l11.64-30.96ZM163.44,57.84h33.36l11.52-30.96h-33.24l-11.64,30.96ZM59.76,38.16l-12.24,32.64h34.2l12.12-32.64h-34.08ZM160.8,59.76h-33.84l-11.64,32.88h33.12l12.36-32.88ZM83.04,72.72l-11.52,30.96h33.6l11.28-30.72.11916-.48122-33.47916.24122ZM171.84,125.28l11.42553-30.70263-.26553-.49737h-32.88l-11.88,31.2h33.6Z"/><path class="cls-2" d="M66,5.28L21.6,125.28H7.68L52.08,5.28h13.92ZM59.76,38.16l-12.24,32.64h34.2l12.12-32.64h-34.08ZM126.96,59.76l-11.64,32.88h33.12l12.36-32.88h-33.84ZM183.26553,94.57737l-.26553-.49737h-32.88l-11.88,31.2h33.6l11.42553-30.70263ZM83.04,72.72l-11.52,30.96h33.6l11.46708-31.22948-33.54708.26948ZM196.8,57.84l11.52-30.96h-33.24l-11.64,30.96h33.36ZM108,5.28l-11.28,30.96h33.24l11.64-30.96h-33.6Z"/></g></svg>