<?xml version="1.0" encoding="UTF-8"?><svg id="Layer_2" xmlns="http://www.w3.org/2000/svg" width="216" height="130.56" xmlns:xlink="http://www.w3.org/1999/xlink" viewBox="0 0 216 130.56"><defs><style>.cls-1{fill:#010101;}.cls-2{fill:url(#linear-gradient);}</style><linearGradient id="linear-gradient" x1="-15.76651" y1="26.06406" x2="229.23928" y2="125.07465" gradientUnits="userSpaceOnUse"><stop offset=".12759" stop-color="#85723e"/><stop offset=".1931" stop-color="#a28c52"/><stop offset=".27109" stop-color="#bda465"/><stop offset=".34996" stop-color="#d1b673"/><stop offset=".42946" stop-color="#ddc07b"/><stop offset=".51059" stop-color="#e1c47e"/><stop offset=".58153" stop-color="#ddc07b"/><stop offset=".64376" stop-color="#d2b774"/><stop offset=".70274" stop-color="#c0a767"/><stop offset=".75968" stop-color="#a79056"/><stop offset=".81474" stop-color="#87733f"/><stop offset=".81805" stop-color="#85723e"/></linearGradient></defs><g id="Layer_1_copy_4"><path class="cls-1" d="M149.28,0l-7.92,21.6h74.64l-40.32,108.96h-80.4l7.92-21.6H33.48l-8.04,21.6H0L48.24,0h101.04ZM66,5.28h-13.92L7.68,125.28h13.92L66,5.28ZM141.6,5.28h-33.6l-11.28,30.96h33.24l11.64-30.96ZM163.44,57.84h33.36l11.52-30.96h-33.24l-11.64,30.96ZM59.76,38.16l-12.24,32.64h34.2l12.12-32.64h-34.08ZM160.8,59.76h-33.84l-11.64,32.88h33.12l12.36-32.88ZM83.04,72.72l-11.52,30.96h33.6l11.28-30.72.11916-.48122-33.47916.24122ZM171.84,125.28l11.42553-30.70263-.26553-.49737h-32.88l-11.88,31.2h33.6Z"/><path class="cls-2" d="M66,5.28L21.6,125.28H7.68L52.08,5.28h13.92ZM59.76,38.16l-12.24,32.64h34.2l12.12-32.64h-34.08ZM126.96,59.76l-11.64,32.88h33.12l12.36-32.88h-33.84ZM183.26553,94.57737l-.26553-.49737h-32.88l-11.88,31.2h33.6l11.42553-30.70263ZM83.04,72.72l-11.52,30.96h33.6l11.46708-31.22948-33.54708.26948ZM196.8,57.84l11.52-30.96h-33.24l-11.64,30.96h33.36ZM108,5.28l-11.28,30.96h33.24l11.64-30.96h-33.6Z"/></g></svg>