<?xml version="1.0" encoding="UTF-8"?><svg id="Layer_2" xmlns="http://www.w3.org/2000/svg" width="216" height="130.56" viewBox="0 0 216 130.56"><defs><style>.cls-1{fill:#010101;}</style></defs><g id="Layer_2-2"><g id="Layer_1_copy_2"><path class="cls-1" d="M149.28,0l-7.92,21.6h74.64l-40.32001,108.96h-80.4l7.92-21.6H33.48l-8.04,21.6H0L48.24,0h101.04ZM66,5.28h-13.92L7.68,125.28h13.92L66,5.28ZM141.60001,5.28h-33.6l-11.28,30.96h33.24s11.64-30.96,11.64-30.96ZM163.44,57.84h33.36l11.52-30.96h-33.24001l-11.64,30.96ZM59.76,38.16l-12.24,32.64h34.2l12.12-32.64s-34.08,0-34.08001,0ZM160.8,59.76h-33.84l-11.64,32.88h33.12l12.36-32.88ZM83.04,72.72l-11.52,30.96h33.6l11.28-30.72.11916-.48122s-33.47916.24122-33.47916.24122ZM171.84,125.28l11.42554-30.70263-.26553-.49737h-32.88l-11.88,31.2h33.60001Z"/></g></g></svg>