<svg xmlns="http://www.w3.org/2000/svg" width="412.46" height="259.018" viewBox="0 0 412.46 259.018"><g style="fill:#fff;fill-opacity:1"><path d="M9.24 122.36c-1.79-.51-5.455-2.91-7.17-4.81l-2.74-3.04-3.475 2.88c-5.674 4.69-15.223 4.07-20.625-1.09l-3.75-3.58-10.495-.39c-19.703-.73-31.963-6.26-36.78-17.731l-1.485-4.105h-44.18l-22.63-52.504h-21.15L-190.1-7.776-165.31-54h21.44l22.44-52.49h85.96l2.955-4.29c22.78-33.07 74.581-33.07 97.29 0l2.955 4.3h85.96l22.44 52.49h21.43l24.8 46.224L197.5 38h-21.14l-22.65 52.503h-44.17c-1.31 0-1.48 4.107-1.48 4.107-3.71 12.28-13.835 17.68-36.785 17.73-7.55 0-11.365.44-12.245 2.09-3.59 6.7-16.353 8.16-22.625 2.97l-3.475-2.88-2.74 3.04c-4.32 5.5-12.78 7.2-20.95 4.84z" style="fill:#fff;fill-opacity:1" transform="translate(190.1 135.583)"/><path d="M23.02 122.36c1.79-.51 5.455-2.9 7.17-4.8l2.74-3.04 3.475 2.88c5.674 4.69 15.223 4.06 20.625-1.1l3.75-3.58 10.495-.38c19.704-.72 32.545-6.03 36.785-17.73l1.48-4.104h44.17l22.65-52.503h21.14l24.86-45.766-24.8-46.224h-21.43l-22.44-52.483H67.73l-2.955-4.28c-22.797-33.06-74.55-33.06-97.29 0l-2.955 4.29h-85.96L-143.87-54h-21.44L-190.1-7.776l24.86 45.766h21.15l22.63 52.504h44.18c1.31 0 1.485 4.105 1.485 4.105 3.7 12.281 13.83 17.681 36.78 17.731 7.55 0 11.365.43 12.245 2.08 3.59 6.7 16.353 8.17 22.625 2.98l3.475-2.88 2.74 3.04c4.32 5.5 12.78 7.19 20.95 4.83z" style="fill:#fff;fill-opacity:1" transform="translate(190.1 135.583)"/></g><path d="M252.26 173.493c-3.83.14-7.45.92-10.26 3.78-4.45 5.22-3.64 12.53-4.31 18.81-.8 6.04 1.13 13.2 7.34 16.14 8.06 2.52 16.71 2.71 25.13 3.17 22.04.59 44.09.23 66.11.32 6.03-14.04 12.13-28.06 18.19-42.1h-29.85c-6.29 8.28-15.89 14.62-26.85 15.52-13.35 1.43-26.53-5.24-34.04-15.48-3.62.25-7.66-.28-11.48-.15zm-94.69-.04c-3.23 0-6.51.29-9.43.18-7.51 10.21-20.69 16.9-34.05 15.47-10.94-.91-20.569-7.24-26.801-15.52H57.41c6.08 14.03 12.11 28.06 18.17 42.08 28.45-.54 57.08 1.53 85.36-2a13.995 13.187 0 0 0 13.24-12.83c-.15-7.33.27-15.12-2.96-21.93-3.08-4.7-8.28-5.47-13.65-5.47zm168.05-80.94a38.399 36.18 0 0 1-.75 37.27c6.63 9.75 8.7 22.01 5.2 33.17h51.04c6.26-11.73 12.61-23.45 18.9-35.17-6.3-11.76-12.66-23.48-18.91-35.231-18.49-.04-36.99.06-55.48-.04zm-239.35-.009c-18.49.08-36.959 0-55.469.04-6.28 11.772-12.67 23.492-18.91 35.302 6.38 11.67 12.57 23.41 18.91 35.09H81.84a42.862 40.384 0 0 1 5.211-33.164 38.422 36.201 0 0 1-.781-37.268m25.74-52.814c-12.134.203-24.271 0-36.401.134v-.02C69.52 53.888 63.49 67.931 57.4 81.983h39.412C94.097 66.64 99.517 50.069 112.01 39.69m187.88-.04v.03c12.5 10.37 17.89 26.938 15.2 42.292h39.42c-6.08-14.066-12.19-28.11-18.23-42.177-12.11-.145-24.27.116-36.39-.145" style="display:inline;fill:#000;fill-opacity:1;stroke-width:11.7725"/><path d="M206.99 10.47a46.488 43.799 0 0 0-25.64 6.615v.03c-10.88 6.3-18.66 16.7-22.31 28.153-5.78-3.288-12.32-5.686-19.17-5.414-12.87.03-24.81 8.12-29.88 19.11-4.49 9.112-4.18 19.82-.11 28.993-6.49 1.886-12.54 5.772-15.597 11.634-5.913 10.181-2.02 23.691 8.027 30.191-7.967 5.83-12.94 15.34-11.648 24.92.995 12.72 12.798 24.21 26.618 24.08 10.82.32 20.35-6.75 24.78-15.73 7.33.14 14.69-.26 22.06.14 8.06 1.35 15.57 6.86 18 14.38 2.31 6.98 2.4 14.37 2.63 21.62.43 10.4-6.7 21.66-17.94 23.99-14.18 3.18-28.87 2.69-43.32 3.18 2.79 5.29 8.01 9.45 14.39 10.15 9.36 1.01 18.83-.18 28.22.63 5.13.84 4.13 8.83 9.72 8.73 3.68.43 4.51-3.44 6.26-5.59 1.69-3.48 6.56-3.89 10.08-3.04 4.24 1.05 5.14 5.63 7.5 8.56 2.02 3.17 6.77 3.08 10.11 2.1 4.69-2.34 4.5-9.4 10.07-10.69 3.47-.8 8.23-.39 9.93 3.03 1.79 2.18 2.65 6.12 6.36 5.61 5.52.02 4.53-7.76 9.56-8.71 9.39-.85 18.88.37 28.27-.64 6.38-.67 11.62-4.85 14.41-10.16-14.04-.43-28.27-.08-42.09-2.91-6.94-1.03-12.7-5.63-15.91-11.4-4.66-7.65-3.14-16.82-2.53-25.2.63-7.37 3.11-15.39 10.04-19.64 9.14-6.76 21.3-3.36 31.93-4.17 4.45 8.99 14.02 16.09 24.87 15.74 13.8.09 25.55-11.4 26.54-24.09 1.31-9.6-3.71-19.09-11.64-24.91 7.49-5.11 12.06-13.96 10.55-22.69-1.13-9.182-8.8-16.736-18.15-19.114 6.77-14.228 2.55-32.567-10.96-41.92-10.82-8.105-26.87-8.106-38.15-.793-4.28-13.53-14.5-25.56-28.43-31.17a46.488 43.799 0 0 0-17.45-3.605m-14.26 74.24v33.473a87.516 82.456 0 0 0-23.04-21.405h.03a60.316 56.829 0 0 1 23.01-12.068m26.47.012h.04a60.837 57.32 0 0 1 23 12.047 87.747 82.674 0 0 0-23.04 21.424zm34.66 26.63a71.728 67.581 0 0 1 6.6 20.63c-11.11-.66-22.47.98-32.21 6.27 6-10.79 14.3-20.7 25.61-26.9m-95.84.01.01.01c11.31 6.18 19.68 16.08 25.62 26.9-9.74-5.3-21.12-6.91-32.23-6.3a72.723 68.517 0 0 1 6.6-20.61" style="display:inline;fill:#000;fill-opacity:1;stroke-width:11.7725"/></svg>