<svg xmlns="http://www.w3.org/2000/svg" width="143pt" height="200pt" viewBox="0 0 143 200"><path fill="url(#a)" d="M10 190V9h124v181z" style="fill:url(#a)"/><radialGradient id="a" cx="0" cy="0" r="1" fx="0" fy="0" gradientTransform="matrix(71.5 0 0 -71.5 71.5 100)" gradientUnits="userSpaceOnUse" spreadMethod="pad"><stop offset="0" style="stop-color:#bf99c3"/><stop offset=".7" style="stop-color:#7b5190"/><stop offset="1" style="stop-color:#612c75"/></radialGradient><path d="M0 0h143v200H0zm10.02 9.02q-.045 90.48 0 180.96h123.96V9.02c-41.32-.03-82.64-.04-123.96 0" style="fill:#fff;fill-opacity:1"/><path d="M84.78 35.76c4.96-3.88 9.65-9.09 16.15-10.07 1.42 5.99 1.22 12.19 1.33 18.31-.33 14-.58 28.01-.57 42.02.13 3.78-.81 7.93.84 11.46 8.08 2.65 16.98-1.01 25.07 1.85 1.83.65 2.3 2.86 2.03 4.57-.57 4.23-2.65 8.02-4.68 11.7-7.61-1.26-15.15-3.3-22.91-3.36-1.34 16.2.22 32.52-.85 48.75-.22 5.66-4.51 10.49-9.41 12.86-3.73 1.81-6.31-2.72-6.42-5.87-.32-17.34-.29-34.7-1.27-52.03-.33-1.69.08-4.24-1.89-5.02-2.96-1.11-6.16-1.27-9.27-1.5-16.31-.83-32.65-.34-48.97-.1-3.66.19-7.35.11-10.98-.45.78-2.87 2.34-5.42 4.49-7.46 21.76-22.54 44.41-44.24 67.31-65.66M62.42 65.43c-9.68 10.3-20.06 19.95-29.52 30.45 5.98 1.11 12.08 1.09 18.13 1.3 10.92.03 21.96.48 32.76-1.34.64-2.21 1.2-4.46 1.22-6.77.13-15.15-.22-30.29-.37-45.43-8.08 6.52-14.66 14.68-22.22 21.79" style="fill:#fff;fill-opacity:1"/></svg>