<?xml version="1.0" encoding="UTF-8" standalone="no"?>
<svg
   version="1.1"
   id="Layer_1"
   x="0px"
   y="0px"
   width="334.36813"
   height="267.892"
   xmlns="http://www.w3.org/2000/svg"
   xmlns:svg="http://www.w3.org/2000/svg">
  <defs
     id="defs1" />
  <g
     id="g1"
     transform="translate(-10.838864,-10.741)">
    <path
       d="m 10.839,177.971 c -0.046,37.089 11.562,71.686 33.546,100.662 2.514,-6.056 5.439,-11.906 8.821,-17.596 L 30.857,149.999 45.801,170.27 c 0.366,0.479 27.605,35.604 40.951,50.937 0.868,-0.868 1.875,-1.646 2.833,-2.468 -0.274,-24.863 -7.541,-107.86 -7.632,-108.798 l -3.246,-27.126 13.3,23.927 c 0.366,0.662 33.044,59.187 49.452,85.649 2.514,-0.709 5.027,-1.28 7.586,-1.783 9.416,-39.67 24.406,-112.546 24.498,-113.414 l 5.621,-29.433 4.937,29.57 c 0.182,0.822 13.711,74.132 22.852,113.231 l 0.32,0.045 c 2.559,0.457 5.027,0.96 7.449,1.6 17.688,-27.444 52.057,-77.308 52.467,-77.925 l 13.986,-20.909 -4.251,24.794 c -0.045,0.822 -9.599,69.47 -10.421,97.532 1.555,1.12 3.199,2.331 4.892,3.633 12.796,-13.413 40.31,-39.213 40.31,-39.213 l 14.169,-14.671 -21.298,90.082 c 3.932,5.896 7.404,12.111 10.328,18.51 19.836,-28.108 30.303,-61.175 30.303,-96.001 0,-92.229 -75.092,-167.276 -167.23,-167.298 -6.947,0.022 -13.803,0.434 -20.521,1.256 C 74.915,22.121 10.793,92.71 10.839,177.971"
       id="path1" />
  </g>
</svg>
