<?xml version="1.0" encoding="UTF-8"?><svg id="Layer_2" xmlns="http://www.w3.org/2000/svg" width="215.55914" height="187.31607" viewBox="0 0 215.55914 187.31607"><defs><style>.cls-1{fill:#fff;}</style></defs><g id="Layer_9_copy"><path class="cls-1" d="M151.76825,175.31961c-39.67169-.31647-120.11053.15729-120.35962-.23975-16.13306-.76355-30.53101-15.34155-31.40863-31.40857V44.89004C.88843,28.80123,15.24652,14.22842,31.40863,13.48147c.24939-.39764,80.69043.13239,120.35962-.23981,0,0-7.15179,7.41919-7.6723,7.67236l-109.57043.23975c-13.05908-.40906-25.7099,10.71191-26.85315,23.73627-.07544.85962.0528,1.77136,0,2.63739v93.50647c.026.86133-.07373,1.79779,0,2.63739,1.08264,12.33411,12.56323,22.9538,24.80383,23.74762l111.0329-.02393c.30287.01549.18834.01017.45837.02017.35294.01307,7.80079,7.90445,7.80079,7.90445ZM97.28204,52.26339c2.711,7.38269,3.84442,15.52734,4.8678,23.30304l3.10492-.22687v-41.71826h-37.88208l.02368,2.13477c1.8172.28644,3.81134.90082,4.54333,2.76874.53687,36.48376.06592,73.06842.23669,109.59052-.22211,2.56726-1.79926,4.99402-4.54034,5.16943l-.02362,2.37451h22.05792l-.02759-2.13147c-2.84888-.48669-4.02203-3.22308-4.52783-5.78064l-.01044-52.87927.25018-.58722c2.91516.16193,4.4209,3.44366,5.27856,5.8703,1.67963,4.75244,2.13641,10.21417,2.39252,15.22974l3.1181-.24091v-50.58942l-3.1181-.00122c-.11664,4.54962-.44043,9.68463-2.28107,13.90271-.89886,2.06-2.93152,4.80902-5.39001,4.7998v-42.19781c6.86835-.88306,9.9577,5.84558,11.92737,11.20953ZM51.01349,51.05941c3.06647,7.6972,4.2475,16.3288,5.3421,24.50708l3.10498-.22693v-41.71826H21.57843l.02368,2.13477c2.01642.29797,3.78564.9447,4.58801,2.96387l.19202,109.39539c-.22205,2.56726-1.79919,4.99402-4.54028,5.16943l-.02362,2.37451h22.05792l-.02765-2.13147c-2.84882-.48669-4.02197-3.22308-4.52783-5.78064l-.01038-52.87927.25018-.58722c2.75488.15521,4.17712,3.14838,5.03931,5.39026,1.88617,4.90454,2.3053,10.49829,2.63184,15.70984l3.11804-.24097v-50.58942l-3.1181-.00122c-.17554,4.31879-.37415,8.95172-1.97369,13.01135-.88989,2.25861-2.30298,4.70038-4.73834,5.45142-.18451.05688-1.14008.57904-1.20239.10217l.24335-42.06024c6.42041-.80255,9.43958,4.95172,11.453,10.00555ZM207.63239,80.61435l-6.23376-25.8941h-26.13385l.24103,13.42578,19.65906-8.63062v79.6004l-31.64392,36.92322c-.40527-.97723-28.88446-29.09729-42.45508-42.065-.5238-26.14984-.08417-52.44458-.22131-78.64905,4.35004-5.05243,9.51819-9.5545,14.26672-14.26477,9.67438-9.59637,19.2821-19.24756,29.03754-28.76019l43.48358,42.65997c-.28821,8.47546.38605,17.20856,0,25.65436ZM138.10199,49.68283l25.17474.00244v-26.6134l-25.17474,26.61096ZM163.51654,138.39651l-26.73248-.24097,26.49268,27.33392.23981-27.09296ZM163.5177,128.92526l-.00116-74.20502-26.13391-.23981v31.88812l13.90472-7.19269c3.87793,16.22321,12.00168,48.82752,12.23035,49.74939ZM196.8432,49.68527l-26.01166-25.65668,15.34229,25.65668h10.66937Z"/><path d="M215.42023,51.60775S166.0863,1.45139,164.68352,0l-12.91527,13.24166s-7.15179,7.41919-7.6723,7.67236l-109.57043.23975c-13.05908-.40906-25.7099,10.71191-26.85315,23.73627-.04565.52032-.01825,1.05933,0,1.59619v41.04816c-.23022,17.84802-.53784,35.70105,0,53.49951v.6795c-.0141.65912-.05469,1.33508,0,1.95789,1.08264,12.33411,12.56323,22.9538,24.80383,23.74762l111.0329-.02393c.32498.00963.01889.0011.45837.02017.34382.01492,7.80079,7.90445,7.80079,7.90445l12.34766,11.99646c1.79218-1.54791,3.75891-3.14771,5.52081-4.7973,15.53345-14.54364,30.12189-30.61365,45.56226-45.30688l.36017-1.07843-.13892-84.5257ZM59.46057,75.33956l-3.10498.22693c-1.0946-8.17828-2.27563-16.80988-5.3421-24.50708-2.01343-5.05383-5.03259-10.80811-11.453-10.00555l-.24335,42.06024c.06232.47687,1.01788-.04529,1.20239-.10217,2.43536-.75104,3.84845-3.19281,4.73834-5.45142,1.59955-4.05963,1.79816-8.69257,1.97369-13.01135l3.1181.00122v50.58942l-3.11804.24097c-.32654-5.21155-.74567-10.8053-2.63184-15.70984-.86218-2.24188-2.28442-5.23505-5.03931-5.39026l-.25018.58722.01038,52.87927c.50586,2.55756,1.67902,5.29395,4.52783,5.78064l.02765,2.13147h-22.05792l.02362-2.37451c2.74109-.17542,4.31824-2.60217,4.54028-5.16943l-.19202-109.39539c-.80237-2.01917-2.57159-2.66589-4.58801-2.96387l-.02368-2.13477h37.88214v41.71826ZM105.25476,75.33956l-3.10492.22687c-1.02338-7.7757-2.1568-15.92035-4.8678-23.30304-1.96967-5.36395-5.05902-12.09259-11.92737-11.20953v42.19781c2.4585.00922,4.49115-2.73981,5.39001-4.7998,1.84064-4.21808,2.16443-9.35309,2.28107-13.90271l3.1181.00122v50.58942l-3.1181.24091c-.2561-5.01556-.71289-10.47729-2.39252-15.22974-.85767-2.42664-2.3634-5.70837-5.27856-5.8703l-.25018.58722.01044,52.87927c.5058,2.55756,1.67896,5.29395,4.52783,5.78064l.02759,2.13147h-22.05792l.02362-2.37451c2.74109-.17542,4.31824-2.60217,4.54034-5.16943-.17078-36.52209.30017-73.10675-.23669-109.59052-.73199-1.86792-2.72614-2.4823-4.54333-2.76874l-.02368-2.13477h37.88208v41.71826ZM201.39862,54.72024h-26.13385l.24103,13.42578,19.65906-8.63062v79.6004l-31.64392,36.92322c-.40527-.97723-28.88446-29.09729-42.45508-42.065-.5238-26.14984-.08417-52.44458-.22131-78.64905,4.35004-5.05243,9.51819-9.5545,14.26672-14.26477,9.67438-9.59637,19.2821-19.24756,29.03754-28.76019l43.48358,42.65997c-.28821,8.47546.38605,17.20856,0,25.65436l-6.23376-25.8941ZM163.27673,49.68527l-25.17474-.00244,25.17474-26.61096v26.6134ZM170.83154,24.02859l26.01166,25.65668h-10.66937l-15.34229-25.65668ZM136.78406,138.15554l26.73248.24097-.23981,27.09296-26.49268-27.33392ZM163.51654,54.72024l.00116,74.20502c-6.08586-24.65357-8.35242-33.52618-12.23035-49.74939l-13.90472,7.19269v-31.88812l26.13391.23981Z"/></g></svg>