<?xml version="1.0" encoding="UTF-8"?><svg id="Layer_2" xmlns="http://www.w3.org/2000/svg" width="216.00463" height="186.38852" xmlns:xlink="http://www.w3.org/1999/xlink" viewBox="0 0 216.00463 186.38852"><defs><style>.cls-1{fill:url(#linear-gradient);}</style><linearGradient id="linear-gradient" x1=".78447" y1="170.8754" x2="218.15224" y2="1.56635" gradientUnits="userSpaceOnUse"><stop offset=".07194" stop-color="#85723e"/><stop offset=".077" stop-color="#87743f"/><stop offset=".15019" stop-color="#a79056"/><stop offset=".22598" stop-color="#c0a767"/><stop offset=".30455" stop-color="#d2b774"/><stop offset=".38762" stop-color="#ddc07b"/><stop offset=".48278" stop-color="#e1c47e"/><stop offset=".5709" stop-color="#ddc07b"/><stop offset=".65124" stop-color="#d2b673"/><stop offset=".72854" stop-color="#bfa666"/><stop offset=".8035" stop-color="#a58f54"/><stop offset=".87641" stop-color="#85723e"/></linearGradient></defs><g id="Layer_1_copy_3"><path class="cls-1" d="M144.24983,20.06005l-30.857,30.69773c-.16726,28.31949.47157,56.71369.00476,84.99496l30.85218,30.70491-111.25153.01399c-13.0876-.98153-24.02325-11.42812-25.07824-24.60176l-.00155-97.46122c1.04759-11.17565,9.1383-20.61276,19.93256-23.50744.7816-.2096,3.08333-.84117,3.71883-.84117h112.68ZM60.00983,74.30005v-41.64l-.36-.36H21.84983l.00104,2.39871c2.46422-.06549,4.80971,1.89524,4.80751,4.43273l.00303,106.34014c-.201,3.23782-.97529,6.57899-4.80111,6.83832l-.01048,2.63009h22.32l-.03247-2.36728c-2.02517-.44472-3.20509-1.74208-3.9239-3.63634-.13529-.35654-.60363-1.79604-.60363-2.03637v-53.64c4.04624.14076,5.54547,5.89226,6.31611,9.16389.9106,3.86581,1.36752,7.9863,1.36389,11.95611h3.36v-50.88h-3.36c-.00456,4.90449-.4223,10.86981-2.92662,15.19338-1.09252,1.88618-2.4629,3.27222-4.75338,3.52662v-42.24c7.82871-1.21391,11.16925,7.98758,13.02395,13.97605,2.01949,6.52055,3.18159,13.54061,3.77605,20.34395h3.6ZM105.84983,74.30005v-41.64l-.36-.36h-37.8l.00105,2.39871c1.95644.02782,3.95184,1.00319,4.61174,2.94851l.19584,109.02141c-.21786,2.77963-1.50737,5.36512-4.55808,5.64138l-.01055,2.62999h22.08l-.03257-2.3672c-1.80298-.37243-3.29864-1.94658-3.92105-3.63918-.11504-.31286-.60638-2.09058-.60638-2.27362v-53.4c2.77135-.09026,4.35717,2.99998,5.2187,5.2213,1.88855,4.86938,2.35401,10.4929,2.56605,15.67394,1.09621-.0322,1.65674-.05728,3.46173-.16876l-.07123-50.26172-.2888-.1913-3.1017.1913c-.07571,3.8143-.33926,7.62268-1.42578,11.29421-.91602,3.09541-2.70626,6.95062-6.35897,7.20103v-42.24c5.92445-.87998,8.87292,3.61665,11.00579,8.31421,3.63323,8.002,4.75386,17.37069,6.03421,26.00579h3.36ZM208.08983,79.34005l-6-25.92h-26.16v12.84c0,.13031.34045.53603.25026.83223l19.42974-8.63223v79.8l-31.32006,36.83582-42.85302-42.10274c-.52419-26.25596-.08454-52.65693-.22138-78.96754l43.3474-42.82818,3.09339,2.61631,40.43367,39.96633v25.56ZM163.92983,48.62005v-27.12l-25.44,27.12h25.44ZM197.52983,48.62005l-26.39764-26.15991c.99422,2.08514,2.23279,4.0821,3.40545,6.0721,3.96526,6.72906,8.10736,13.35777,12.0722,20.0878h10.92ZM163.92983,53.42005h-26.4v31.92l14.15789-7.20025,12.24211,49.92025V53.42005ZM163.92983,137.18005h-26.88l26.88,27.6v-27.6Z"/><path d="M191.13309,25.97682c8.26946,8.16475,16.689,16.19146,24.82758,24.49238l.04395,85.64362-.22171.24031-51.01308,50.03539-12.72534-12.00313-118.80613.00613c-17.08176-.82862-31.65147-14.18837-33.23836-31.32164L.01292,43.22313C1.65788,27.11302,14.68759,14.39962,30.63975,12.40997c40.43538-.62932,80.94236-.08612,121.40474-.27526,2.01823-1.11305,11.72824-10.9951,12.8412-12.13471,2.52785,2.26979,4.84774,4.95012,7.31781,7.34638,6.34496,6.15537,12.63012,12.41073,18.92959,18.63044ZM208.08983,79.34005v-25.56l-40.43367-39.96633-3.09339-2.61631-43.3474,42.82818c.13683,26.31062-.30282,52.71159.22138,78.96754l42.85302,42.10274,31.32006-36.83582V58.46005l-19.42974,8.63223c.0902-.2962-.25026-.70192-.25026-.83223v-12.84h26.16l6,25.92ZM144.24983,20.06005H31.56983c-.6355,0-2.93723.63157-3.71883.84117-10.79426,2.89468-18.88496,12.33179-19.93256,23.50744l.00155,97.46122c1.05499,13.17364,11.99064,23.62023,25.07824,24.60176l111.25153-.01399-30.85218-30.70491c.46681-28.28127-.17202-56.67547-.00476-84.99496l30.857-30.69773ZM105.84983,32.66005l-.36-.36h-37.8l.00105,2.39871c1.95644.02782,3.95184,1.00319,4.61174,2.94851l.19584,109.02141c-.21786,2.77963-1.50737,5.36512-4.55808,5.64138l-.01055,2.62999h22.08l-.03257-2.3672c-1.80298-.37243-3.29864-1.94658-3.92105-3.63918-.11504-.31286-.60638-2.09058-.60638-2.27362v-53.4c2.77135-.09026,4.35717,2.99998,5.2187,5.2213,1.88855,4.86938,2.35401,10.4929,2.56605,15.67394,1.74486-.04536,1.50956-.05059,3.46173-.16876l-.07123-50.26172-.2888-.1913-3.1017.1913c-.07571,3.8143-.33926,7.62268-1.42578,11.29421-.91602,3.09541-2.70626,6.95062-6.35897,7.20103v-42.24c5.92445-.87998,8.87292,3.61665,11.00579,8.31421,3.63323,8.002,4.75386,17.37069,6.03421,26.00579h3.36v-41.64ZM60.00983,32.66005l-.36-.36H21.84983l.00104,2.39871c2.46422-.06549,4.80971,1.89524,4.80751,4.43273l.00303,106.34014c-.201,3.23782-.97529,6.57899-4.80111,6.83832l-.01048,2.63009h22.32l-.03247-2.36728c-2.02517-.44472-3.20509-1.74208-3.9239-3.63634-.13529-.35654-.60363-1.79604-.60363-2.03637v-53.64c4.04624.14076,5.54547,5.89226,6.31611,9.16389.9106,3.86581,1.36752,7.9863,1.36389,11.95611h3.36v-50.88h-3.36c-.00456,4.90449-.4223,10.86981-2.92662,15.19338-1.09252,1.88618-2.4629,3.27222-4.75338,3.52662v-42.24c7.82871-1.21391,11.16925,7.98758,13.02395,13.97605,2.01949,6.52055,3.18159,13.54061,3.77605,20.34395h3.6v-41.64ZM137.52983,53.42005v31.92l14.15789-7.20025,12.24211,49.92025V53.42005h-26.4ZM137.04983,137.18005l26.88,27.6v-27.6h-26.88ZM163.92983,21.50005l-25.44,27.12h25.44v-27.12ZM171.13219,22.46014c.99422,2.08514,2.23279,4.0821,3.40545,6.0721,3.96526,6.72906,8.10736,13.35777,12.0722,20.0878h10.92l-26.39764-26.15991Z"/></g></svg>