<?xml version="1.0" encoding="UTF-8"?><svg id="Layer_2" xmlns="http://www.w3.org/2000/svg" width="216.00462" height="186.38852" viewBox="0 0 216.00462 186.38852"><g id="Layer_2-2"><path d="M191.1331,25.97682c8.26945,8.16475,16.689,16.19146,24.82758,24.49238l.04395,85.64362-.22171.24031-51.01308,50.03539-12.72534-12.00313-118.80613.00613c-17.08176-.82861-31.65147-14.18837-33.23836-31.32164L.01293,43.22313C1.65789,27.11302,14.6876,14.39962,30.63976,12.40997c40.43538-.62932,80.94236-.08612,121.40475-.27526,2.01823-1.11305,11.72824-10.9951,12.8412-12.13471,2.52785,2.26979,4.84773,4.95012,7.31781,7.34638,6.34496,6.15537,12.63013,12.41073,18.9296,18.63044h-.00002ZM208.08984,79.34005v-25.56l-40.43367-39.96633-3.09338-2.61631-43.3474,42.82818c.13683,26.31062-.30282,52.71159.22138,78.96754l42.85302,42.10274,31.32005-36.83582V58.46005l-19.42975,8.63223c.09019-.2962-.25026-.70192-.25026-.83223v-12.84h26.16l6,25.92ZM144.24984,20.06005H31.56984c-.6355,0-2.93723.63157-3.71883.84117-10.79426,2.89468-18.88496,12.33179-19.93256,23.50744l.00155,97.46121c1.05499,13.17365,11.99064,23.62022,25.07824,24.60176l111.25153-.01399-30.85218-30.70491c.46681-28.28127-.17202-56.67547-.00476-84.99496l30.857-30.69773h.00002ZM105.84984,32.66005l-.36-.36h-37.8l.00105,2.39871c1.95644.02782,3.95184,1.00319,4.61174,2.94851l.19584,109.0214c-.21786,2.77963-1.50737,5.36511-4.55808,5.64137l-.01055,2.62999h22.08l-.03257-2.3672c-1.80298-.37244-3.29864-1.94658-3.92105-3.63918-.11504-.31287-.60638-2.09058-.60638-2.27362v-53.4c2.77135-.09026,4.35717,2.99998,5.2187,5.2213,1.88855,4.86938,2.35401,10.4929,2.56605,15.67394,1.74486-.04536,1.50956-.05059,3.46173-.16876l-.07123-50.26172-.2888-.1913-3.1017.1913c-.07571,3.8143-.33926,7.62268-1.42578,11.29421-.91602,3.09541-2.70626,6.95062-6.35897,7.20103v-42.24c5.92445-.87998,8.87292,3.61665,11.00579,8.31421,3.63323,8.002,4.75386,17.37069,6.03421,26.00579h3.36v-41.64.00002ZM60.00984,32.66005l-.36-.36H21.84984l.00104,2.39871c2.46422-.06549,4.80971,1.89524,4.80751,4.43273l.00303,106.34015c-.201,3.23782-.97529,6.57899-4.80111,6.83832l-.01048,2.6301h22.32l-.03247-2.36728c-2.02517-.44472-3.20509-1.74208-3.9239-3.63634-.13529-.35654-.60363-1.79604-.60363-2.03638v-53.64c4.04624.14076,5.54547,5.89226,6.31611,9.16389.9106,3.86581,1.36752,7.9863,1.36389,11.95611h3.36v-50.88h-3.36c-.00456,4.90449-.4223,10.86981-2.92662,15.19338-1.09252,1.88618-2.4629,3.27222-4.75338,3.52662v-42.24c7.82871-1.21391,11.16925,7.98758,13.02395,13.97605,2.01949,6.52055,3.18159,13.54061,3.77605,20.34395h3.6v-41.64h.00001ZM137.52984,53.42005v31.92l14.15788-7.20025,12.24211,49.92026V53.42005h-26.39999ZM137.04985,137.18005l26.88,27.60001v-27.60001h-26.88ZM163.92984,21.50005l-25.44,27.12h25.44s0-27.12,0-27.12ZM171.1322,22.46014c.99422,2.08514,2.23279,4.0821,3.40546,6.0721,3.96526,6.72906,8.10736,13.35777,12.0722,20.0878h10.92l-26.39764-26.15991h-.00002Z"/></g></svg>