<svg xmlns="http://www.w3.org/2000/svg" width="600" height="589.332"><path d="M599.96 331.558c-.34-25.43-4.479-72.856-26.99-105.947-27.788-40.973-66.007-46.395-66.007-46.395s10.594 41.209 2.991 66.992c-5.702 19.463-18.136 35.625-28.833 45.408a130.7 130.7 0 0 1-26.593 18.947l-11.39-9.326c-10.475-8.516-17.267-18.02-20.095-28.2-3.212-11.462-1.724-24.413 3.64-31.426 3.107-4.037 8.736-7.823 14.776-11.86 5.643-3.801 12.037-8.06 17.842-13.584 19.11-18.181 29.423-48.163 26.83-78.322-2.078-24.576-12.553-48.458-31.883-72.915-20.317-25.725-44.775-44.613-70.735-54.676C366.01 3.462 346.563 0 325.788 0c-55.883 0-82.418 22.159-82.418 22.159s31.662 2.475 66.654 26.358c14.954 10.195 27.507 22.394 35.05 37.363 6.497 12.995 8.737 25.371 5.982 33.15-3.109 8.62-14.792 17.606-29.703 22.837-9.03 3.167-18.652 4.67-28.715 6.276-11.05 1.724-22.453 3.566-33.9 7.661-18.02 6.439-35.744 18.58-52.776 36.141-1.208-11.344-.515-22.969 2.137-33.96 3.212-13.407 10.298-26.24 18.24-39.19 22.335-36.318 50.535-60.319 50.535-60.319s-43.405-3.86-85.984 24.973c-21.702 14.734-41.96 31.088-58.358 50.315-28.038 32.796-46.395 72.104-53.07 113.711-8.633 54.336 3.11 109.174 31.485 146.758a160 160 0 0 0 15.19 17.15c-1.03.059-2.018.059-2.99.059-.93 0-1.842 0-2.756-.06-13.009-.457-26.534-4.316-40.177-11.565-55.19-29.584-78.794-83.685-78.794-83.685s-13.01 69.939 39.721 139.922c19.33 25.724 38.955 46.896 61.114 60.878 28.317 17.842 60.892 25.783 82.875 30.395 23.543 4.95 40.752 8.177 47.883 9.43 11.344 9.266 24.06 16.869 37.805 22.335a146 146 0 0 0 53.762 10.24c13.864 0 27.802-1.945 41.21-6.041 11.506-3.448 22.497-8.34 32.736-14.439 13.585-1.62 55.663-8.87 99.568-38.16 38.277-25.547 68.377-60.376 83.92-99.449 12.937-32.752 18.52-63.485 17.946-99.685" style="fill:#fff"/><path d="M449.356 444.886c0 27.213-9.208 54.263-25.783 75.965-15.882 20.715-38.395 36.2-63.368 43.743-26.814 8.06-56.119 6.615-82.123-3.683-24.354-9.68-45.305-27.168-59.346-49.268-15.072-23.824-21.584-52.54-18.534-80.518 2.887-26.593 14.512-51.743 32.693-71.309 18.475-19.963 43.286-33.312 70.042-38.041 26.77-4.656 54.557-.398 78.676 12.096 41.09 21.172 67.743 64.68 67.743 111.015m34.756-6.969c0-37.348-13.127-73.548-37.069-102.263 17.268-6.792 33.386-16.752 47.31-29.585 16.471-15.146 29.937-34.181 34.71-55.544 3.11-13.525 2.638-27.964 0-41.607 10.535 7.764 20.42 17.09 27.787 27.743 17.268 25.208 23.087 63.073 23.544 95.192.515 33.96-4.656 62.1-16.634 92.2-14.38 36.259-42.52 68.245-76.303 90.183-10.888 7.072-22.395 13.054-34.255 18.122a159.64 159.64 0 0 0 30.91-94.44M428.803 317.06c-36.597-31.647-85.585-44.951-133.174-36.258a149 149 0 0 1-6.85-1.9c-31.486-9.666-60.893-31.766-73.034-63.192-.515-1.326-1.03-2.652-1.444-4.022.81-.929 1.68-1.842 2.476-2.77 13.937-14.969 30.335-28.14 48.575-34.697 19.566-7.028 41.21-6.453 62.514-13.879 18.004-6.32 35.728-18.357 41.606-34.697 5.35-14.792.914-33.032-6.968-48.575-13.349-26.476-36.598-45.01-62.44-55.545 25.267-3.786 52.48-2.298 76.363 6.97 24.634 9.546 45.702 27.388 62.454 48.575 14.44 18.299 25.724 39.131 27.743 62.44 1.944 22.453-4.789 47.19-20.848 62.44-10.814 10.312-25.886 16.294-34.638 27.8-9.665 12.671-11.566 32.12-6.969 48.577 4.317 15.307 14.277 28.081 26.535 38.1zm-170.066-24.752a159.95 159.95 0 0 0-62.955 50.815 160.5 160.5 0 0 0-29.938 75.17c-14.837-9.783-28.539-21.761-39.25-35.905-27.153-35.92-35.05-86.102-27.728-131.863 6.203-38.955 23.47-74.757 48.561-104.047 22.675-26.593 51.802-47.883 83.287-62.44-19.565 18.58-35.286 42.698-41.665 69.35-6.04 25.253-3.684 52.775 6.954 76.363 12.2 27.168 35.463 49.032 62.454 62.44.047.058.163.058.28.117m-93.924 153.035c1.385 29.982 11.227 58.933 28.317 83.626-1.385-.295-2.71-.575-4.08-.81-26.992-5.526-53.586-13.408-76.32-27.802-21.98-13.865-40.398-33.784-55.544-55.471-14.954-21.526-26.755-44.775-34.697-69.409 12.833 17.032 29.467 31.53 48.576 41.607 15.072 8 31.706 13.23 48.576 13.864 7.072.295 14.158-.22 21.171-1.43a210 210 0 0 0 24 15.824"/></svg>