<svg xmlns="http://www.w3.org/2000/svg" width="557.94" height="550.181"><path d="M426.867 425.296c0 27.213-9.208 54.263-25.783 75.965-15.883 20.715-38.395 36.2-63.368 43.743-26.815 8.06-56.12 6.616-82.124-3.683-24.354-9.68-45.304-27.168-59.345-49.268-15.072-23.824-21.584-52.54-18.535-80.517 2.888-26.594 14.513-51.744 32.693-71.31 18.476-19.963 43.287-33.311 70.043-38.04 26.77-4.657 54.557-.4 78.675 12.095 41.091 21.172 67.744 64.68 67.744 111.015m34.756-6.968c0-37.35-13.128-73.55-37.07-102.264 17.268-6.792 33.386-16.752 47.31-29.585 16.471-15.145 29.937-34.18 34.711-55.544 3.109-13.525 2.637-27.964 0-41.607 10.534 7.765 20.42 17.09 27.787 27.743 17.267 25.209 23.087 63.073 23.544 95.192.515 33.96-4.656 62.1-16.634 92.2-14.38 36.26-42.52 68.245-76.304 90.183-10.888 7.072-22.394 13.054-34.255 18.122a159.64 159.64 0 0 0 30.91-94.44M406.315 297.47c-36.598-31.647-85.586-44.95-133.174-36.258a149 149 0 0 1-6.851-1.9c-31.485-9.666-60.893-31.766-73.033-63.192-.515-1.326-1.031-2.652-1.444-4.022.81-.93 1.68-1.842 2.475-2.77 13.938-14.97 30.336-28.14 48.576-34.697 19.566-7.027 41.209-6.453 62.513-13.878 18.004-6.321 35.728-18.358 41.607-34.697 5.348-14.793.913-33.032-6.969-48.576-13.348-26.476-36.597-45.01-62.44-55.544 25.268-3.787 52.48-2.3 76.363 6.968 24.634 9.548 45.703 27.39 62.455 48.576 14.438 18.299 25.724 39.132 27.742 62.44 1.945 22.453-4.788 47.19-20.847 62.44-10.815 10.313-25.887 16.294-34.638 27.8-9.665 12.67-11.566 32.12-6.97 48.577 4.318 15.308 14.277 28.08 26.536 38.1zm-170.067-24.75a159.95 159.95 0 0 0-62.956 50.815 160.5 160.5 0 0 0-29.938 75.169c-14.836-9.783-28.538-21.761-39.25-35.905-27.153-35.92-35.05-86.101-27.727-131.863 6.202-38.955 23.47-74.757 48.56-104.046 22.675-26.594 51.803-47.884 83.288-62.44-19.566 18.579-35.286 42.697-41.666 69.35-6.04 25.252-3.683 52.774 6.954 76.362 12.2 27.168 35.463 49.032 62.455 62.44.047.059.162.059.28.118m-93.924 153.034c1.384 29.982 11.226 58.933 28.317 83.626-1.385-.294-2.711-.575-4.081-.81-26.992-5.526-53.585-13.408-76.319-27.802-21.982-13.864-40.398-33.784-55.544-55.471C19.743 403.77 7.94 380.52 0 355.887c12.833 17.032 29.467 31.53 48.576 41.607 15.072 8 31.706 13.23 48.575 13.864 7.072.295 14.159-.22 21.172-1.43a210 210 0 0 0 24 15.825"/></svg>