<?xml version="1.0" encoding="UTF-8" standalone="no"?>
<!DOCTYPE svg PUBLIC "-//W3C//DTD SVG 1.1//EN" "http://www.w3.org/Graphics/SVG/1.1/DTD/svg11.dtd">
<svg width="100%" height="100%" viewBox="0 0 1000 1000" version="1.1" xmlns="http://www.w3.org/2000/svg" xmlns:xlink="http://www.w3.org/1999/xlink" xml:space="preserve" xmlns:serif="http://www.serif.com/" style="fill-rule:evenodd;clip-rule:evenodd;stroke-linejoin:round;stroke-miterlimit:2;">
    <g transform="matrix(1,0,0,1,-2416,0)">
        <g id="R" transform="matrix(1,0,0,1,-0.333333,0)">
            <rect x="2416.33" y="0" width="1000" height="1000" style="fill:none;"/>
            <g transform="matrix(1,0,0,1,-1207.67,0)">
                <path d="M3817.59,563.224C3817.59,563.224 3875.16,347.042 3627.11,336.609C3627.11,336.609 3683.64,261.257 3781.64,263.333C3879.64,265.41 3978.69,340.1 3985.58,343.808C3992.47,347.516 4017.89,368.175 4097.35,376.65C4097.35,376.65 4105,352.2 4124,343.808C4124,343.808 4138.37,347.341 4150.95,376.713C4150.95,376.713 4226.9,374.632 4273.68,338.047C4320.47,301.462 4408.03,263.589 4469.8,263.333C4531.58,263.078 4573.88,288.867 4624,334.449C4624,334.449 4381.86,335.373 4432.42,563.554C4432.42,563.554 4360.79,524.52 4342.42,529.768C4342.42,529.768 4409.98,635.783 4305.03,736.667C4305.03,736.667 4286.01,679.466 4277.48,674.219C4277.48,674.219 4268.3,650.604 4223.04,620.431C4177.78,590.257 4139.76,559.427 4124,531.221C4124,531.221 4081.35,590.257 4030.19,615.839C4030.19,615.839 3997.39,636.173 3971.81,668.971C3946.22,701.768 3944.91,736.667 3944.91,736.667C3944.91,736.667 3837.99,651.26 3906.21,530.565C3906.21,530.565 3870.66,529.632 3817.59,563.224Z"/>
            </g>
            <g transform="matrix(1,0,0,1,-1208,0)">
                <g transform="matrix(1,0,0,1,0.333333,0)">
                    <path d="M3845.7,522.713C3845.7,522.713 3876.81,363.626 3683.69,317.406C3683.69,317.406 3779.29,232.606 3944.54,346.419C3944.54,346.419 4001.77,393.359 4083.43,397.86C4083.43,397.86 4065.23,424.223 4069.08,457.66C4067.05,456.439 4067.84,496.018 4038,502.876C4038,502.876 3883.38,488.28 3845.7,522.713ZM3804.64,334.974C3804.64,334.974 3855.88,351.885 3853.34,399.372C3853.34,399.372 3904.38,480.875 4041.21,472.483C4041.21,472.483 4007.64,466.07 3967.14,404.876C3967.14,404.876 3936.22,343.05 3804.64,334.974Z" style="fill:url(#_Linear1);"/>
                </g>
                <g transform="matrix(1,0,0,1,0.333333,0)">
                    <path d="M3871.67,374.142C3871.67,374.142 3886.89,429.959 3969.6,446.704C3969.6,446.704 3947.78,415.82 3936.11,404.876C3924.44,393.932 3911.25,380.231 3871.67,374.142Z" style="fill:url(#_Linear2);"/>
                </g>
            </g>
            <g transform="matrix(-1,0,0,1,7040.63,0)">
                <g transform="matrix(1,0,0,1,0.333333,0)">
                    <path d="M3845.7,522.713C3845.7,522.713 3876.81,363.626 3683.69,317.406C3683.69,317.406 3779.29,232.606 3944.54,346.419C3944.54,346.419 4001.77,393.359 4083.43,397.86C4083.43,397.86 4065.23,424.223 4069.08,457.66C4067.05,456.439 4067.84,496.018 4038,502.876C4038,502.876 3883.38,488.28 3845.7,522.713ZM3804.64,334.974C3804.64,334.974 3855.88,351.885 3853.34,399.372C3853.34,399.372 3904.38,480.875 4041.21,472.483C4041.21,472.483 4007.64,466.07 3967.14,404.876C3967.14,404.876 3936.22,343.05 3804.64,334.974Z" style="fill:url(#_Linear3);"/>
                </g>
                <g transform="matrix(1,0,0,1,0.333333,0)">
                    <path d="M3871.67,374.142C3871.67,374.142 3886.89,429.959 3969.6,446.704C3969.6,446.704 3947.78,415.82 3936.11,404.876C3924.44,393.932 3911.25,380.231 3871.67,374.142Z" style="fill:url(#_Linear4);"/>
                </g>
            </g>
            <g transform="matrix(1,0,0,1,-1207.67,0)">
                <path d="M4092.18,433.282C4092.18,433.282 4101.32,383.47 4124,366.475C4124,366.475 4144.92,378.782 4154.88,433.868C4154.88,433.868 4131.8,456.136 4124,506.534C4124,506.534 4112.69,450.862 4092.18,433.282Z" style="fill:url(#_Linear5);"/>
            </g>
            <g transform="matrix(1,0,0,1,-1207.67,0)">
                <path d="M3943.25,526.212C3943.25,526.212 3935.8,554.595 3949.28,590.783C3949.28,590.783 3988.66,570.915 4034.78,580.849C4034.78,580.849 4138.36,528.332 4086.4,458.162C4086.4,458.162 4096.73,506.114 4042.97,526.298L3943.25,526.212Z" style="fill:url(#_Linear6);"/>
            </g>
            <g transform="matrix(-1,0,0,1,7040.32,0)">
                <path d="M3943.25,526.212C3943.25,526.212 3935.8,554.595 3949.28,590.783C3949.28,590.783 3988.66,570.915 4034.78,580.849C4034.78,580.849 4138.36,528.332 4086.4,458.162C4086.4,458.162 4096.73,506.114 4042.97,526.298L3943.25,526.212Z" style="fill:url(#_Linear7);"/>
            </g>
            <g transform="matrix(1,0,0,1,-1207.67,0)">
                <path d="M3936.08,691.718C3936.08,691.718 3878.72,632.692 3925.33,544.712C3925.33,544.712 3924.34,582.674 3941.19,613.599C3941.19,613.599 3960.27,595.57 4016.71,594.575C4016.71,594.575 3939.5,652.797 3936.08,691.718Z" style="fill:url(#_Linear8);"/>
            </g>
            <g transform="matrix(-1,0,0,1,7040.32,0)">
                <path d="M3936.08,691.718C3936.08,691.718 3878.72,632.692 3925.33,544.712C3925.33,544.712 3924.34,582.674 3941.19,613.599C3941.19,613.599 3960.27,595.57 4016.71,594.575C4016.71,594.575 3939.5,652.797 3936.08,691.718Z" style="fill:url(#_Linear9);"/>
            </g>
        </g>
    </g>
    <defs>
        <linearGradient id="_Linear1" x1="0" y1="0" x2="1" y2="0" gradientUnits="userSpaceOnUse" gradientTransform="matrix(822.836,460.075,-460.075,822.836,3690.4,263.291)"><stop offset="0" style="stop-color:rgb(141,116,47);stop-opacity:1"/><stop offset="0.07" style="stop-color:rgb(150,125,56);stop-opacity:1"/><stop offset="0.18" style="stop-color:rgb(174,149,79);stop-opacity:1"/><stop offset="0.2" style="stop-color:rgb(179,154,84);stop-opacity:1"/><stop offset="0.22" style="stop-color:rgb(185,160,89);stop-opacity:1"/><stop offset="0.3" style="stop-color:rgb(202,176,104);stop-opacity:1"/><stop offset="0.39" style="stop-color:rgb(212,186,113);stop-opacity:1"/><stop offset="0.5" style="stop-color:rgb(215,189,116);stop-opacity:1"/><stop offset="0.61" style="stop-color:rgb(212,186,113);stop-opacity:1"/><stop offset="0.7" style="stop-color:rgb(202,176,104);stop-opacity:1"/><stop offset="0.78" style="stop-color:rgb(185,160,89);stop-opacity:1"/><stop offset="0.8" style="stop-color:rgb(179,154,84);stop-opacity:1"/><stop offset="0.86" style="stop-color:rgb(163,138,69);stop-opacity:1"/><stop offset="0.94" style="stop-color:rgb(147,122,53);stop-opacity:1"/><stop offset="1" style="stop-color:rgb(141,116,47);stop-opacity:1"/></linearGradient>
        <linearGradient id="_Linear2" x1="0" y1="0" x2="1" y2="0" gradientUnits="userSpaceOnUse" gradientTransform="matrix(97.9326,0,0,72.5614,3871.67,410.423)"><stop offset="0" style="stop-color:rgb(141,116,47);stop-opacity:1"/><stop offset="1" style="stop-color:rgb(141,116,47);stop-opacity:1"/></linearGradient>
        <linearGradient id="_Linear3" x1="0" y1="0" x2="1" y2="0" gradientUnits="userSpaceOnUse" gradientTransform="matrix(822.836,460.075,-460.075,822.836,3690.4,263.291)"><stop offset="0" style="stop-color:rgb(141,116,47);stop-opacity:1"/><stop offset="0.07" style="stop-color:rgb(150,125,56);stop-opacity:1"/><stop offset="0.18" style="stop-color:rgb(174,149,79);stop-opacity:1"/><stop offset="0.2" style="stop-color:rgb(179,154,84);stop-opacity:1"/><stop offset="0.22" style="stop-color:rgb(185,160,89);stop-opacity:1"/><stop offset="0.3" style="stop-color:rgb(202,176,104);stop-opacity:1"/><stop offset="0.39" style="stop-color:rgb(212,186,113);stop-opacity:1"/><stop offset="0.5" style="stop-color:rgb(215,189,116);stop-opacity:1"/><stop offset="0.61" style="stop-color:rgb(212,186,113);stop-opacity:1"/><stop offset="0.7" style="stop-color:rgb(202,176,104);stop-opacity:1"/><stop offset="0.78" style="stop-color:rgb(185,160,89);stop-opacity:1"/><stop offset="0.8" style="stop-color:rgb(179,154,84);stop-opacity:1"/><stop offset="0.86" style="stop-color:rgb(163,138,69);stop-opacity:1"/><stop offset="0.94" style="stop-color:rgb(147,122,53);stop-opacity:1"/><stop offset="1" style="stop-color:rgb(141,116,47);stop-opacity:1"/></linearGradient>
        <linearGradient id="_Linear4" x1="0" y1="0" x2="1" y2="0" gradientUnits="userSpaceOnUse" gradientTransform="matrix(97.9326,0,0,72.5614,3871.67,410.423)"><stop offset="0" style="stop-color:rgb(141,116,47);stop-opacity:1"/><stop offset="1" style="stop-color:rgb(141,116,47);stop-opacity:1"/></linearGradient>
        <linearGradient id="_Linear5" x1="0" y1="0" x2="1" y2="0" gradientUnits="userSpaceOnUse" gradientTransform="matrix(2.02322,-439.024,439.024,2.02322,4123.53,778.269)"><stop offset="0" style="stop-color:rgb(141,116,47);stop-opacity:1"/><stop offset="0.07" style="stop-color:rgb(150,125,56);stop-opacity:1"/><stop offset="0.18" style="stop-color:rgb(174,149,79);stop-opacity:1"/><stop offset="0.2" style="stop-color:rgb(179,154,84);stop-opacity:1"/><stop offset="0.22" style="stop-color:rgb(185,160,89);stop-opacity:1"/><stop offset="0.3" style="stop-color:rgb(202,176,104);stop-opacity:1"/><stop offset="0.39" style="stop-color:rgb(212,186,113);stop-opacity:1"/><stop offset="0.5" style="stop-color:rgb(215,189,116);stop-opacity:1"/><stop offset="0.61" style="stop-color:rgb(212,186,113);stop-opacity:1"/><stop offset="0.7" style="stop-color:rgb(202,176,104);stop-opacity:1"/><stop offset="0.78" style="stop-color:rgb(185,160,89);stop-opacity:1"/><stop offset="0.8" style="stop-color:rgb(179,154,84);stop-opacity:1"/><stop offset="0.86" style="stop-color:rgb(163,138,69);stop-opacity:1"/><stop offset="0.94" style="stop-color:rgb(147,122,53);stop-opacity:1"/><stop offset="1" style="stop-color:rgb(141,116,47);stop-opacity:1"/></linearGradient>
        <linearGradient id="_Linear6" x1="0" y1="0" x2="1" y2="0" gradientUnits="userSpaceOnUse" gradientTransform="matrix(-290.459,208.767,-208.767,-290.459,4098.68,456.874)"><stop offset="0" style="stop-color:rgb(141,116,47);stop-opacity:1"/><stop offset="0.07" style="stop-color:rgb(150,125,56);stop-opacity:1"/><stop offset="0.18" style="stop-color:rgb(174,149,79);stop-opacity:1"/><stop offset="0.2" style="stop-color:rgb(179,154,84);stop-opacity:1"/><stop offset="0.22" style="stop-color:rgb(185,160,89);stop-opacity:1"/><stop offset="0.3" style="stop-color:rgb(202,176,104);stop-opacity:1"/><stop offset="0.39" style="stop-color:rgb(212,186,113);stop-opacity:1"/><stop offset="0.5" style="stop-color:rgb(215,189,116);stop-opacity:1"/><stop offset="0.61" style="stop-color:rgb(212,186,113);stop-opacity:1"/><stop offset="0.7" style="stop-color:rgb(202,176,104);stop-opacity:1"/><stop offset="0.78" style="stop-color:rgb(185,160,89);stop-opacity:1"/><stop offset="0.8" style="stop-color:rgb(179,154,84);stop-opacity:1"/><stop offset="0.86" style="stop-color:rgb(163,138,69);stop-opacity:1"/><stop offset="0.94" style="stop-color:rgb(147,122,53);stop-opacity:1"/><stop offset="1" style="stop-color:rgb(141,116,47);stop-opacity:1"/></linearGradient>
        <linearGradient id="_Linear7" x1="0" y1="0" x2="1" y2="0" gradientUnits="userSpaceOnUse" gradientTransform="matrix(-290.459,208.767,-208.767,-290.459,4098.68,456.874)"><stop offset="0" style="stop-color:rgb(141,116,47);stop-opacity:1"/><stop offset="0.07" style="stop-color:rgb(150,125,56);stop-opacity:1"/><stop offset="0.18" style="stop-color:rgb(174,149,79);stop-opacity:1"/><stop offset="0.2" style="stop-color:rgb(179,154,84);stop-opacity:1"/><stop offset="0.22" style="stop-color:rgb(185,160,89);stop-opacity:1"/><stop offset="0.3" style="stop-color:rgb(202,176,104);stop-opacity:1"/><stop offset="0.39" style="stop-color:rgb(212,186,113);stop-opacity:1"/><stop offset="0.5" style="stop-color:rgb(215,189,116);stop-opacity:1"/><stop offset="0.61" style="stop-color:rgb(212,186,113);stop-opacity:1"/><stop offset="0.7" style="stop-color:rgb(202,176,104);stop-opacity:1"/><stop offset="0.78" style="stop-color:rgb(185,160,89);stop-opacity:1"/><stop offset="0.8" style="stop-color:rgb(179,154,84);stop-opacity:1"/><stop offset="0.86" style="stop-color:rgb(163,138,69);stop-opacity:1"/><stop offset="0.94" style="stop-color:rgb(147,122,53);stop-opacity:1"/><stop offset="1" style="stop-color:rgb(141,116,47);stop-opacity:1"/></linearGradient>
        <linearGradient id="_Linear8" x1="0" y1="0" x2="1" y2="0" gradientUnits="userSpaceOnUse" gradientTransform="matrix(109.632,0,0,147.006,3907.07,618.215)"><stop offset="0" style="stop-color:rgb(141,116,47);stop-opacity:1"/><stop offset="1" style="stop-color:rgb(141,116,47);stop-opacity:1"/></linearGradient>
        <linearGradient id="_Linear9" x1="0" y1="0" x2="1" y2="0" gradientUnits="userSpaceOnUse" gradientTransform="matrix(109.632,0,0,147.006,3907.07,618.215)"><stop offset="0" style="stop-color:rgb(141,116,47);stop-opacity:1"/><stop offset="1" style="stop-color:rgb(141,116,47);stop-opacity:1"/></linearGradient>
    </defs>
</svg>
