<?xml version="1.0" encoding="UTF-8" standalone="no"?>
<!DOCTYPE svg PUBLIC "-//W3C//DTD SVG 1.1//EN" "http://www.w3.org/Graphics/SVG/1.1/DTD/svg11.dtd">
<svg width="100%" height="100%" viewBox="0 0 1000 1000" version="1.1" xmlns="http://www.w3.org/2000/svg" xmlns:xlink="http://www.w3.org/1999/xlink" xml:space="preserve" xmlns:serif="http://www.serif.com/" style="fill-rule:evenodd;clip-rule:evenodd;stroke-linejoin:round;stroke-miterlimit:2;">
    <g transform="matrix(1,0,0,1,-4832,0)">
        <g id="WM" transform="matrix(1,0,0,1,-0.333333,0)">
            <rect x="4832.33" y="0" width="1000" height="1000" style="fill:none;"/>
            <g transform="matrix(1,0,0,1,1208,0)">
                <g transform="matrix(1,0,0,1,0.333333,0)">
                    <path d="M3845.7,522.713C3845.7,522.713 3876.81,363.626 3683.69,317.406C3683.69,317.406 3779.29,232.606 3944.54,346.419C3944.54,346.419 4001.77,393.359 4083.43,397.86C4083.43,397.86 4065.23,424.223 4069.08,457.66C4067.05,456.439 4067.84,496.018 4038,502.876C4038,502.876 3883.38,488.28 3845.7,522.713ZM3804.64,334.974C3804.64,334.974 3855.88,351.885 3853.34,399.372C3853.34,399.372 3904.38,480.875 4041.21,472.483C4041.21,472.483 4007.64,466.07 3967.14,404.876C3967.14,404.876 3936.22,343.05 3804.64,334.974Z"/>
                </g>
                <g transform="matrix(1,0,0,1,0.333333,0)">
                    <path d="M3871.67,374.142C3871.67,374.142 3886.89,429.959 3969.6,446.704C3969.6,446.704 3947.78,415.82 3936.11,404.876C3924.44,393.932 3911.25,380.231 3871.67,374.142Z"/>
                </g>
            </g>
            <g transform="matrix(-1,0,0,1,9456.63,0)">
                <g transform="matrix(1,0,0,1,0.333333,0)">
                    <path d="M3845.7,522.713C3845.7,522.713 3876.81,363.626 3683.69,317.406C3683.69,317.406 3779.29,232.606 3944.54,346.419C3944.54,346.419 4001.77,393.359 4083.43,397.86C4083.43,397.86 4065.23,424.223 4069.08,457.66C4067.05,456.439 4067.84,496.018 4038,502.876C4038,502.876 3883.38,488.28 3845.7,522.713ZM3804.64,334.974C3804.64,334.974 3855.88,351.885 3853.34,399.372C3853.34,399.372 3904.38,480.875 4041.21,472.483C4041.21,472.483 4007.64,466.07 3967.14,404.876C3967.14,404.876 3936.22,343.05 3804.64,334.974Z"/>
                </g>
                <g transform="matrix(1,0,0,1,0.333333,0)">
                    <path d="M3871.67,374.142C3871.67,374.142 3886.89,429.959 3969.6,446.704C3969.6,446.704 3947.78,415.82 3936.11,404.876C3924.44,393.932 3911.25,380.231 3871.67,374.142Z"/>
                </g>
            </g>
            <g transform="matrix(1,0,0,1,1208.33,0)">
                <path d="M4092.18,433.282C4092.18,433.282 4101.32,383.47 4124,366.475C4124,366.475 4144.92,378.782 4154.88,433.868C4154.88,433.868 4131.8,456.136 4124,506.534C4124,506.534 4112.69,450.862 4092.18,433.282Z"/>
            </g>
            <g transform="matrix(1,0,0,1,1208.33,0)">
                <path d="M3943.25,526.212C3943.25,526.212 3935.8,554.595 3949.28,590.783C3949.28,590.783 3988.66,570.915 4034.78,580.849C4034.78,580.849 4138.36,528.332 4086.4,458.162C4086.4,458.162 4096.73,506.114 4042.97,526.298L3943.25,526.212Z"/>
            </g>
            <g transform="matrix(-1,0,0,1,9456.32,0)">
                <path d="M3943.25,526.212C3943.25,526.212 3935.8,554.595 3949.28,590.783C3949.28,590.783 3988.66,570.915 4034.78,580.849C4034.78,580.849 4138.36,528.332 4086.4,458.162C4086.4,458.162 4096.73,506.114 4042.97,526.298L3943.25,526.212Z"/>
            </g>
            <g transform="matrix(1,0,0,1,1208.33,0)">
                <path d="M3936.08,691.718C3936.08,691.718 3878.72,632.692 3925.33,544.712C3925.33,544.712 3924.34,582.674 3941.19,613.599C3941.19,613.599 3960.27,595.57 4016.71,594.575C4016.71,594.575 3939.5,652.797 3936.08,691.718Z"/>
            </g>
            <g transform="matrix(-1,0,0,1,9456.32,0)">
                <path d="M3936.08,691.718C3936.08,691.718 3878.72,632.692 3925.33,544.712C3925.33,544.712 3924.34,582.674 3941.19,613.599C3941.19,613.599 3960.27,595.57 4016.71,594.575C4016.71,594.575 3939.5,652.797 3936.08,691.718Z"/>
            </g>
        </g>
    </g>
</svg>
