<svg xmlns="http://www.w3.org/2000/svg" xmlns:xlink="http://www.w3.org/1999/xlink" width="600" height="829.265"><radialGradient id="a" cx="0" cy="0" r="1" fx="0" fy="0" gradientTransform="matrix(15.08492 0 0 -15.08492 747.354 259.263)" gradientUnits="userSpaceOnUse" spreadMethod="pad"><stop offset="0" style="stop-color:#ebd491"/><stop offset=".7" style="stop-color:#d2bb7b"/><stop offset="1" style="stop-color:#8b723c"/></radialGradient><radialGradient xlink:href="#a" id="b" cx="0" cy="0" r="1" fx="0" fy="0" gradientTransform="matrix(15.08492 0 0 -15.08492 747.354 259.263)" gradientUnits="userSpaceOnUse" spreadMethod="pad"/><path d="M131.226 829.264c-10.366 0-20.089-2.985-28.34-8.583-12.066-8.251-19.28-22.017-19.612-37.648-.312-17.913 8.189-35.804 21.706-45.838 5.349-3.98 10.2-7.38 14.989-10.78 4.125-2.986 8.417-5.992 13.123-9.475l2.01-1.368c5.93-18.638 18.224-55.478 34.664-97.19 14.99-37.98 30.289-74.986 45.527-111.66 11.817-28.59 23.323-56.204 34.414-83.901-4.374 1.058-8.914 1.7-13.455 1.7-8.5 0-16.44-2.115-23.55-6.075-33.938-19.529-25.19-58.96-22.287-71.918.975-4.374 1.554-9.142 2.197-13.848.974-6.8 1.95-13.6 3.235-19.675 5.66-25.52 22.1-52.72 51.497-52.72 17.58 0 29.729 7.857 36.446 13.35 5.1.83 10.283 1.225 15.798 1.225 1.534 0 2.985-.083 4.54-.083 8.417-26.163 15.383-49.797 21.623-72.955-62.05 9.869-156.379 38.79-205.388 55.146a217 217 0 0 1-3.711 5.577c-11.9 17.249-34.27 36.115-60.267 36.115-18.057 0-34.643-9.06-45.589-24.94-25.417-37.483.725-72.79 10.532-86.078 1.534-2.032 3.006-3.96 4.291-5.909 13.29-20.171 26.89-37.98 40.012-55.146 17.083-22.514 33.274-43.66 47.704-68.435 5.908-10.117 6.074-19.529 6.074-19.674.066-11.174 5.1-22.204 13.766-29.398C140.203 3.317 148.869 0 157.866 0c2.032 0 4.126.166 6.24.498.393.082 39.038 7.11 81.227 9.308 35.555 1.866 221.393 2.426 277.513 2.592h22.93c34.082 0 50.046 20.98 53.28 38.954 6.406 35.14-21.457 56.763-33.274 65.989-1.535 1.224-3.09 2.363-4.375 3.483-11.506 9.806-20.98 20.338-29.003 32.32-14.16 20.732-24.775 44.387-36.032 69.41-4.623 10.449-9.308 20.815-14.242 31.014l-1.95 4.209c30.124 7.94 36.53 31.097 37.732 39.183 2.343 15.238.727 52.326-64.786 72.81a611 611 0 0 1-27.366 7.774c-.331.975-.726 1.948-1.058 2.923-12.149 33.357-22.017 70.943-32.549 110.79l-8.5 31.906c-16.295 60.246-10.78 171.761-10.697 172.88.81 15.321-7.774 29.647-21.706 36.219l-175.804 82.926-4.623 2.177c-10.698 5.349-23.966 11.9-39.598 11.9"/><path d="M561.801 58.151c-1.285-7.131-11.257-7.857-16.025-7.94h-22.992c-78.718-.166-245.068-.808-279.4-2.591-45.34-2.26-86.16-9.806-86.16-9.806s.809 18.886-11.175 39.452c-27.138 46.48-59.21 80.5-88.835 125.364-9.33 13.994-27.635 31.326-15.072 49.714 13.123 19.198 34.498 1.39 43.578-11.65 3.068-4.458 5.992-9.413 8.251-14.74 0 0 203.917-70.55 275.337-65.036 0 0 3.566 10.615-6.551 48.906-9.164 34.58-19.446 67.71-30.455 100.175-21.789 3.09-41.629 4.292-63.978-.725-5.66-1.285-9.225-11.174-21.063-11.174-7.194 0-13.102 16.938-14.409 23.012-2.26 10.366-3.15 23.157-5.431 33.44-2.426 11.009-5.743 25.334 4.063 30.932 9.226 5.349 30.206-9.806 32.88-11.092 14.492-7.297 34.726-11.9 49.321-12.563h.229c-33.772 91.198-72.395 177.774-108.924 270.403-22.743 57.82-37.649 106.975-37.649 106.975l-11.817 8.355c-10.137 7.36-17.974 12.625-28.112 20.089-5.494 4.042-9.308 17.56-3.068 21.768 8.583 5.908 23.157-2.903 34.974-8.5 11.755-5.577 175.825-82.927 175.825-82.927s-6.074-117.735 11.983-184.718c14.098-52.39 25.997-101.71 41.94-145.682 2.757-7.629 5.763-14.989 8.749-22.286 14.097-3.234 28.506-6.8 44.055-11.734 8.665-2.757 41.297-13.849 38.623-30.683-2.426-15.963-42.998-8.355-55.064-7.132-2.01.166-4.042.56-6.074.976 8.749-18.638 18.223-37.815 28.672-59.52 17-35.39 30.848-72.727 52.97-105.297 10.116-14.968 22.099-28.174 35.782-39.825 9.806-8.438 27.78-18.804 25.023-33.938" style="fill:#8b723c"/><path d="M740.406 275.297c-.769-1.32-1.633-2.449-2.468-3.543-.61-.801-1.239-1.625-1.836-2.527-.082-.125-.18-.258-.278-.391-.496-.672-.707-1.027-.453-1.398.113-.168.195-.168.231-.168.253 0 .683.332.968.734.141.211.258.414.34.609l.094.231.234.078c.375.129 9.25 3.18 13.051 3.18q.241 0 .453-.012l.36-.031.117-.344c.054-.156.187-.809-.305-2.676a76 76 0 0 0-1.476-4.871l-.11-.32-.34-.047a12 12 0 0 0-1.644-.133c-.571 0-1.102.059-1.637.18-.246.054-.41.207-.543.328-.105.097-.172.152-.242.179a2.4 2.4 0 0 1-.27-.66c-.05-.234-.086-.5-.121-.765-.043-.293-.082-.586-.14-.86-.121-.543-.145-.843-.11-.867.114 0 .371.074.953.442q.118.07.161.093c.82.41 1.894.625 2.593.657l.844.039-.289-.778c-.965-2.601-2.031-5.183-3.066-7.679a347 347 0 0 1-2.192-5.375c-1.078-2.735-1.797-5.094-1.805-5.118l-.054-.179-.153-.11-.562-.394c-.242-.18-.457-.332-.676-.485-.215-.156-.433-.308-.668-.48a.4.4 0 0 1-.07-.148c.207.035.523.191.781.32l.254.125c.5.234 6.645 3.129 8.152 3.84-.046 1.328-.152 5.879.614 8.715l.414 1.558c.519 1.961 1.008 3.813 1.625 5.512q.193.532.41 1.047l.125.312.281.067c.586.132 1.293.304 2.078.55 1.106.352 1.508.758 1.531.797-.003 0-.128.094-.636.094a9 9 0 0 1-1.16-.102l-.301-.035a2 2 0 0 1-.149-.019l-.125-.02-1.019-.156.441.934c.266.554.539 1.121.832 1.722l.555 1.149c.23.476.445.961.664 1.441.559 1.25 1.141 2.539 1.934 3.707.507.75 1.101 1.414 1.82 2.031q.137.114.297.239c.308.242.683.531.73.789-.05.011-.129.023-.234.023h-1.113c-2.719.008-11.731.031-13.504.121-1.496.078-2.875.27-3.629.391a4.6 4.6 0 0 0-.559-1.543" style="fill:url(#b)" transform="matrix(20.73162 0 0 -20.73162 -15193.901 5790.363)"/></svg>