<svg xmlns="http://www.w3.org/2000/svg" width="600" height="829.23"><radialGradient id="a" cx="0" cy="0" r="1" fx="0" fy="0" gradientTransform="matrix(15.08453 0 0 -15.08453 663.952 259.263)" gradientUnits="userSpaceOnUse" spreadMethod="pad"><stop offset="0" style="stop-color:#d9eaf3"/><stop offset=".663" style="stop-color:#99aebc"/><stop offset="1" style="stop-color:#536e78"/></radialGradient><path d="M131.163 829.23c-10.303 0-20.088-2.985-28.277-8.582-12.065-8.251-19.258-22.016-19.59-37.647-.332-17.912 8.189-35.802 21.622-45.836 5.432-3.98 10.2-7.38 15.071-10.78 4.126-2.985 8.334-5.991 13.102-9.474l1.949-1.368c5.991-18.637 18.305-55.475 34.662-97.186 15.07-37.978 30.37-74.983 45.587-111.655 11.837-28.588 23.322-56.202 34.413-83.898-4.375 1.057-8.894 1.7-13.434 1.7-8.5 0-16.44-2.114-23.57-6.074-34-19.528-25.189-58.958-22.266-71.915.89-4.374 1.534-9.142 2.177-13.848.892-6.8 1.949-13.6 3.255-19.674 5.576-25.519 22.099-52.718 51.412-52.718 17.663 0 29.81 7.857 36.528 13.35 5.1.83 10.282 1.223 15.796 1.223 1.452 0 2.986-.083 4.52-.083 8.437-26.162 15.403-49.795 21.622-72.951-62.026 9.868-156.372 38.787-205.442 55.144a107 107 0 0 1-3.648 5.576c-11.983 17.248-34.248 36.113-60.244 36.113-18.14 0-34.745-9.06-45.587-24.94-25.436-37.48.642-72.785 10.531-86.073 1.535-2.032 2.986-3.96 4.292-5.908 13.267-20.171 26.887-37.98 39.99-55.144 17.102-22.514 33.293-43.659 47.7-68.432 5.909-10.117 6.075-19.529 6.075-19.674.083-11.174 5.1-22.202 13.765-29.396C140.14 3.317 148.888 0 157.885 0c2.011 0 4.126.166 6.22.498.331.082 39.035 7.11 81.222 9.308 35.47 1.865 221.405 2.425 277.523 2.591h22.928c33.998 0 49.961 20.98 53.278 38.953 6.406 35.139-21.456 56.76-33.294 65.986-1.617 1.224-3.068 2.363-4.374 3.483-11.485 9.805-20.959 20.337-28.981 32.319-14.18 20.73-24.774 44.384-36.03 69.406-4.623 10.449-9.309 20.814-14.263 31.014l-2.011 4.208c30.205 7.94 36.59 31.096 37.813 39.181 2.342 15.237.725 52.324-64.784 72.806-9.805 3.006-18.948 5.598-27.364 7.774-.415.974-.747 1.95-1.141 2.924-12.066 33.355-21.954 70.94-32.485 110.785l-8.5 31.904c-16.274 60.244-10.842 171.754-10.676 172.874.726 15.32-7.857 29.645-21.705 36.216l-175.818 82.923-4.602 2.177c-10.697 5.349-23.985 11.9-39.679 11.9"/><path d="M561.803 58.15c-1.286-7.13-11.257-7.856-16.025-7.94h-23.094c-78.632-.165-244.955-.809-279.368-2.59-45.358-2.26-86.094-9.806-86.094-9.806s.807 18.885-11.174 39.45c-27.116 46.479-59.186 80.498-88.831 125.359-9.308 13.993-27.614 31.324-15.05 49.712 13.039 19.197 34.495 1.388 43.554-11.65 3.09-4.457 5.992-9.412 8.272-14.74 0 0 203.908-70.547 275.325-65.032 0 0 3.566 10.614-6.572 48.904-9.142 34.578-19.507 67.706-30.432 100.17-21.788 3.09-41.628 4.292-63.976-.726-5.68-1.285-9.245-11.174-21.062-11.174-7.214 0-13.123 16.937-14.408 23.011-2.342 10.366-3.172 23.157-5.514 33.44-2.426 11.007-5.66 25.332 4.125 30.93 9.246 5.348 30.205-9.806 32.88-11.092 14.51-7.297 34.661-11.9 49.318-12.562h.248c-33.77 91.194-72.391 177.766-108.919 270.39-22.762 57.819-37.647 106.971-37.647 106.971l-11.92 8.355c-10.117 7.36-17.89 12.625-28.007 20.088-5.515 4.042-9.308 17.559-3.09 21.767 8.604 5.908 23.178-2.902 34.911-8.5 11.734-5.576 175.88-82.923 175.88-82.923s-6.136-117.73 12.003-184.71c14.076-52.387 25.976-101.705 41.855-145.675 2.84-7.63 5.826-14.989 8.832-22.286 14.097-3.234 28.422-6.8 44.052-11.733 8.666-2.758 41.213-13.849 38.622-30.682-2.509-15.963-42.996-8.354-55.061-7.131-2.115.166-4.042.559-6.157.975 8.831-18.637 18.305-37.813 28.754-59.518 16.916-35.387 30.764-72.724 52.946-105.292 10.137-14.967 22.12-28.173 35.802-39.823 9.805-8.438 27.779-18.803 25.022-33.936" style="fill:#536e78"/><path d="M657.004 275.297c-.774-1.317-1.633-2.449-2.469-3.539-.609-.801-1.238-1.629-1.836-2.531a7 7 0 0 0-.277-.387c-.496-.676-.703-1.031-.453-1.402.113-.168.195-.168.23-.168.25 0 .684.332.969.734q.211.31.34.609l.094.231.234.078c.375.129 9.25 3.18 13.051 3.18.16 0 .308-.004.453-.012l.359-.031.117-.344c.055-.156.192-.809-.3-2.676a76 76 0 0 0-1.485-4.871l-.109-.32-.336-.047a12 12 0 0 0-1.648-.133c-.567 0-1.098.059-1.633.18-.246.054-.41.207-.543.332-.11.097-.172.152-.242.175a2.3 2.3 0 0 1-.27-.66c-.051-.234-.086-.5-.121-.761-.043-.297-.082-.59-.145-.864-.117-.543-.14-.843-.105-.867.113 0 .371.074.949.442l.16.093c.824.41 1.903.625 2.598.657l.844.039-.289-.778c-.965-2.597-2.032-5.176-3.063-7.664a310 310 0 0 1-2.195-5.39c-1.078-2.735-1.797-5.094-1.805-5.118l-.055-.179-.152-.11-.562-.394c-.239-.176-.45-.324-.657-.473-.222-.156-.445-.312-.687-.492a.4.4 0 0 1-.07-.148c.207.035.523.191.785.32l.25.125 8.152 3.84c-.051 1.328-.152 5.879.609 8.715l.414 1.539c.516 1.968 1.008 3.824 1.625 5.531.11.301.223.59.344.879l.086.215.11.265.281.067c.547.125 1.273.3 2.078.55 1.105.352 1.504.758 1.527.797 0 0-.125.094-.633.094-.394 0-.839-.059-1.16-.102l-.301-.035c-.05-.004-.097-.011-.152-.019l-.121-.02-1.019-.156.441.934c.25.527.512 1.066.785 1.628l.602 1.243c.226.476.441.961.664 1.441.558 1.25 1.136 2.539 1.929 3.707.508.754 1.11 1.414 1.829 2.031.085.075.187.157.292.239.309.242.688.535.731.789a1 1 0 0 1-.234.023h-1.114c-2.718.008-11.73.031-13.504.121-1.496.078-2.875.27-3.629.391a4.6 4.6 0 0 0-.558-1.543" style="fill:url(#a)" transform="matrix(20.73074 0 0 -20.73074 -13464.241 5790.117)"/></svg>