<svg xmlns="http://www.w3.org/2000/svg" width="524.225" height="753.529"><path d="M523.946 20.337c-1.307-7.132-11.257-7.857-16.129-7.94h-22.99c-78.714-.166-245.036-.808-279.387-2.591C160.102 7.546 119.367 0 119.367 0s.724 18.886-11.174 39.45c-27.22 46.478-59.29 80.497-88.914 125.358-9.246 13.994-27.53 31.324-15.071 49.713 13.123 19.196 34.579 1.39 43.576-11.651 3.15-4.457 5.991-9.412 8.25-14.74 0 0 203.99-70.546 275.324-65.032 0 0 3.649 10.615-6.55 48.904-9.143 34.579-19.425 67.706-30.454 100.17-21.705 3.09-41.544 4.292-63.975-.724-5.576-1.286-9.142-11.174-20.958-11.174-7.298 0-13.123 16.937-14.512 23.01-2.26 10.366-3.151 23.157-5.41 33.44-2.426 11.007-5.764 25.332 4.125 30.93 9.225 5.348 30.121-9.806 32.879-11.091 14.407-7.298 34.661-11.9 49.235-12.563h.249c-33.688 91.194-72.413 177.765-108.92 270.39-22.761 57.817-37.667 106.97-37.667 106.97l-11.816 8.354c-10.117 7.36-17.89 12.625-28.028 20.088-5.494 4.042-9.308 17.559-3.068 21.767 8.582 5.908 23.073-2.902 34.91-8.5 11.734-5.576 175.796-82.922 175.796-82.922s-6.074-117.73 11.982-184.71c14.097-52.386 26.08-101.704 41.96-145.674 2.736-7.629 5.741-14.988 8.727-22.285 14.18-3.234 28.504-6.8 44.052-11.734 8.749-2.757 41.316-13.848 38.725-30.681-2.508-15.963-43.016-8.355-55.081-7.132-2.094.166-4.126.56-6.136.974 8.727-18.637 18.201-37.813 28.65-59.518 17.02-35.387 30.867-72.723 52.966-105.29 10.2-14.968 22.099-28.174 35.802-39.824 9.785-8.438 27.841-18.803 25.105-33.936"/></svg>