<?xml version="1.0" encoding="UTF-8" standalone="no"?>
<svg
   version="1.1"
   width="508.27286"
   height="436.84839"
   id="svg1"
   xmlns="http://www.w3.org/2000/svg"
   xmlns:svg="http://www.w3.org/2000/svg">
  <defs
     id="defs1" />
  <path
     d="m 254.11168,188.44028 22.28225,6.37166 c 3.32811,0.96503 42.96849,12.66909 92.64269,43.98301 19.2387,-24.99175 30.7448,-56.35516 30.7448,-90.3291 C 399.78142,66.45084 333.28109,0 251.26608,0 169.30056,0 102.80023,66.45084 102.80023,148.46585 c 0,35.08743 12.22369,67.36638 32.613,92.79116 51.48053,-33.15737 93.0386,-45.48004 96.46568,-46.44507 z m 14.30221,34.2585 V 436.8484 H 508.27284 C 428.28687,268.37677 268.41389,222.69878 268.41389,222.69878 m -28.55494,0 V 436.8484 H 0 C 79.985974,268.37677 239.85895,222.69878 239.85895,222.69878"
     id="path1" />
</svg>
