<svg xmlns="http://www.w3.org/2000/svg" width="600" height="818.75"><path d="M353.085 196.684c-.552 5.363-.961 10.562-.961 15.597 0 53.485 15.76 92.273 27.182 120.582 1.679 4.155 3.214 7.9 4.647 11.503a2055 2055 0 0 1 14.47 38.788c6.469-15.126 10.788-29.024 10.788-38.788 0-46.771-56.125-147.682-56.125-147.682m153.126 33.917C566.247 277.126 600 337.898 600 411.217c0 82.039-29.188 137.284-50.455 177.668-5.2 9.825-9.682 18.381-12.957 25.812-2.395 5.444-5.035 11.687-8.003 18.4-26.139 61.325-52.216 118.494-82.428 145.513-44.847 40.14-94.115 40.14-110.347 40.14-11.503 0-30.376-.41-50.455-.8-19.732-.491-40.12-.88-52.196-.88-34.715 0-68.775-21.266-93.48-58.376-9.518-14.226-14.636-27.735-19.098-39.566-4.728-12.547-8.474-22.31-16.948-33.507-1.208-1.515-2.558-3.193-4.012-5.036C72.357 645.4 0 551.858 0 450.312 0 300.87 101.873 232.914 101.873 232.914c7.819 39.648 20.55 71.088 20.55 71.088 2.477-96.285 44.847-169.748 123.284-223.887C341.97 13.673 442.8 0 442.8 0c-71.804 94.75-84.843 171.016-84.843 171.016s89.797 14.328 148.255 59.585" style="fill:#fff"/><path d="M405.935 220.366s39.095 74.998 39.095 124c0 48.859-57.005 130.406-57.005 130.406-3.275-26.138-26.057-88.097-37.499-117.45-11.442-29.27-34.223-76.593-34.223-145.04 0-68.448 47.262-148.4 47.262-148.4C195.66 119.293 158.16 222.046 158.16 313.357c0 91.229 66.83 213.55 66.83 213.55-22.781-26.138-58.683-65.234-88.036-104.35-29.331-39.095-52.195-118.964-52.195-118.964S35.901 355.726 35.901 450.23c0 94.586 74.998 185.897 96.183 213.571 21.185 27.817 21.185 50.599 37.499 74.997 16.231 24.46 39.095 42.37 63.576 42.37.88 0 1.842 0 2.701.083L163.033 561.13l140.17 26.138-86.358-295.118 211.872 376.605L269.06 645.89l66.196 136.956h.551c22.864 0 55.41-3.275 86.44-30.948 31.03-27.736 63.555-110.9 81.465-151.592 17.992-40.856 60.383-96.264 60.383-189.172 0-149.995-158.162-190.769-158.162-190.769"/></svg>