<svg xmlns="http://www.w3.org/2000/svg" xmlns:xlink="http://www.w3.org/1999/xlink" width="600" height="818.75"><linearGradient id="a" x1="0" x2="1" y1="0" y2="0" gradientTransform="scale(25.4961 -25.4961)rotate(10 41.106 75.224)" gradientUnits="userSpaceOnUse" spreadMethod="pad"><stop offset="0" style="stop-color:#536e78"/><stop offset=".3" style="stop-color:#99aebc"/><stop offset=".5" style="stop-color:#d9eaf3"/><stop offset=".7" style="stop-color:#99aebc"/><stop offset="1" style="stop-color:#536e78"/></linearGradient><linearGradient xlink:href="#a" id="b" x1="0" x2="1" y1="0" y2="0" gradientTransform="rotate(10 -2139.227 443.525)scale(521.87273)" gradientUnits="userSpaceOnUse" spreadMethod="pad"/><path d="M353.086 196.684c-.551 5.363-.962 10.562-.962 15.597 0 53.485 15.76 92.273 27.182 120.582 1.679 4.155 3.214 7.9 4.647 11.503a2055 2055 0 0 1 14.47 38.788c6.469-15.126 10.788-29.024 10.788-38.788 0-46.771-56.125-147.682-56.125-147.682m153.126 33.917C566.247 277.126 600 337.898 600 411.217c0 82.039-29.188 137.284-50.455 177.668-5.2 9.825-9.682 18.381-12.957 25.812-2.395 5.444-5.035 11.687-8.003 18.4-26.139 61.325-52.216 118.494-82.428 145.513-44.847 40.14-94.115 40.14-110.347 40.14-11.503 0-30.376-.41-50.455-.8-19.732-.491-40.12-.88-52.196-.88-34.715 0-68.775-21.266-93.48-58.376-9.518-14.226-14.636-27.735-19.098-39.566-4.728-12.547-8.474-22.31-16.948-33.507-1.208-1.515-2.558-3.193-4.012-5.036C72.357 645.4 0 551.858 0 450.312 0 300.87 101.873 232.914 101.873 232.914c7.819 39.648 20.55 71.088 20.55 71.088 2.477-96.285 44.847-169.748 123.284-223.887C341.97 13.673 442.8 0 442.8 0c-71.804 94.75-84.843 171.016-84.843 171.016s89.797 14.328 148.255 59.585"/><path d="M158.163 313.356c0 91.31 66.83 213.55 66.83 213.55-22.863-26.138-58.684-65.152-88.036-104.35C107.625 383.38 84.762 303.51 84.762 303.51s-48.859 52.216-48.859 146.72c0 94.586 74.916 185.897 96.183 213.571 21.185 27.735 21.185 50.517 37.498 74.997 16.232 24.542 39.096 42.453 63.576 42.453h2.702L163.034 561.13l140.232 26.057-86.42-295.037 211.872 376.604-159.656-22.781 66.196 136.874h.553c22.863 0 55.409-3.193 86.44-31.03 31.03-27.654 63.555-110.818 81.465-151.592 17.992-40.692 60.383-96.1 60.383-189.008 0-149.995-158.162-190.769-158.162-190.769s39.095 74.916 39.095 123.836c0 48.94-57.005 130.406-57.005 130.406-3.275-26.056-26.139-87.954-37.5-117.285-11.441-29.434-34.223-76.676-34.223-145.124 0-68.53 47.262-148.398 47.262-148.398-167.905 55.409-205.403 158.162-205.403 249.473" style="fill:url(#b)"/></svg>