<?xml version="1.0" encoding="UTF-8" standalone="no"?>
<svg
   version="1.1"
   id="Layer_1"
   x="0px"
   y="0px"
   width="927.24921"
   height="908.44495"
   viewBox="0 0 927.24921 908.44495"
   xmlns="http://www.w3.org/2000/svg"
   xmlns:svg="http://www.w3.org/2000/svg">
  <defs
     id="defs15" />
  <g
     transform="matrix(0,-20.484,20.484,0,-43.139304,975.77582)"
     id="g10">
    <g
       transform="rotate(90,25,25)"
       id="g8">
      <g
         id="g6">
        <path
           d="m 40.746,19.639 c -4.562,0 -8.273,3.712 -8.273,8.274 0,2.287 0.946,4.465 2.609,6.027 L 24.738,46.713 14.396,33.94 c 1.662,-1.563 2.608,-3.74 2.608,-6.027 0,-4.563 -3.711,-8.274 -8.273,-8.274 -2.642,0 -5.078,1.244 -6.625,3.318 C 2.663,13.232 9.447,4.89 18.828,2.364 c -1.5,1.533 -2.363,3.608 -2.363,5.786 0,2.21 0.86,4.287 2.423,5.851 1.563,1.563 3.641,2.423 5.851,2.423 2.21,0 4.288,-0.86 5.851,-2.423 1.563,-1.563 2.424,-3.641 2.424,-5.851 0,-2.178 -0.864,-4.253 -2.363,-5.786 9.38,2.525 16.164,10.868 16.722,20.593 -1.549,-2.074 -3.984,-3.318 -6.627,-3.318 z"
           id="path4" />
      </g>
    </g>
  </g>
</svg>
