<svg xmlns="http://www.w3.org/2000/svg" width="600" height="320.003" viewBox="0 0 600 320.003"><path d="M39.866 0C14.509 47.098 0 101.735 0 160.002c0 58.266 14.509 112.903 39.866 160.001h520.268C585.491 272.905 600 218.268 600 160.002S585.485 47.098 560.134 0Z"/><path d="M535.955 37.997c16.685 36.89 26.048 78.273 26.048 122.005 0 44.525-9.722 86.612-26.983 124.001H64.98c-17.261-37.389-26.976-79.476-26.976-124.001 0-43.725 9.363-85.115 26.048-122.005zm12.256-18.995H51.796L46.74 30.17C28.333 70.85 19.002 114.536 19.002 160.002c0 46.272 9.67 90.676 28.73 131.963l5.094 11.04h494.348l5.094-11.04c19.066-41.287 28.73-85.69 28.73-131.963 0-45.466-9.33-89.153-27.738-129.838z" style="fill:#fff;stroke-width:6.40007"/><path d="M42.004 244.003c12.525-9.818 20.915-23.072 27.949-42.599 6.534-18.112 10.97-35.584 19.2-52.25 2.08-4.211 7.13-7.533 12.602-4.903 3.859 1.856 7.693 3.981 11.917 5.914 4.441 2.035 5.363 5.888 3.334 10.637-5.862 13.69-13.14 26.79-17.83 40.864-4.666 14.004-5.338 30.337 11.161 34.676v12.999c-30.784-3.725-49.223.684-60.903 10.662zM87.668 77.339c16.084 2.003 27.91 3.91 22.164 18.822a352 352 0 0 1-10.004 23.175c-1.984 4.224-1.542 8.915 3.335 12.16 3.27 2.182 10.336 5.735 14.003 7.162 4.915 1.92 7.949-.077 9.498-3.661 1.139-2.637 3.712-7.77 4.998-10.336 2.42-4.813 6.656-3.776 9.664.499 19.117 27.232 37.198 65.249 48.5 110.676 3.13 12.577 3.002 22.836-.832 29.166a51.8 51.8 0 0 0 18.503 8.665c8.019-15.066 21.946-26.95 40.832-36.16-3.872-15.476-8.845-30.727-15.334-45.665-6.535-21.037-2.58-32.013 4-40.34 1.798-2.271 1.836-5.286 0-8.185-3.52-5.549-7.36-9.965-11.335-13.312-2.797-2.362-6.464-2.855-9.498.16-1.792 1.785-3.353 3.801-5.497 5.338-21.67-25.665-40.167-53.166-47.002-72.5L96.999 60.5C92.5 65.25 89 71.003 87.67 77.34m162.075 6.937c3.923 3.386 4.006 7.066 1.433 11.15-5.005 7.961-9.843 14.323-15.34 19.071-2.868 2.477-2.426 6.663-.666 10.004 3.859 7.302 9.817 11.898 15.833 15.002 4.973-4.973 9.952-6.676 12.832-1.165 10.618 20.288 18.554 40.858 28.167 59.828 8.403 16.589 6.227 28.013-3.168 35.674-6.56 5.35-12.89 9.779-18.003 15.001a186 186 0 0 0 13.67 12.826c22.055-17.99 55.495-17.018 96.168-4a71.7 71.7 0 0 1 6.33-14.003c-14.254-12.788-29.12-15.885-34.33-28.327-2.759-6.58-4.129-19.891-7.489-28.372-11.014-27.808-21.35-48.634-38.515-83.968-7.7-15.853-5.965-31.265-2.003-39.84-5.748-2.452-10.209-5.403-13.498-8.788-7.668 7.622-38.17 7.789-54.042 0a115 115 0 0 1-11.124 15.75c9.933 4.205 17.87 9.082 23.745 14.157m110.26 9.562h27.834v99.33l27.418-27.412V56.16c-15.642 10.138-34.573 18.598-55.252 26.176zm139.528-45.056 28.02 15.469c-6.292 19.29-2.03 42.022-2.567 79.079l15.296-.006 5.274-4.666 5.549 7.168s-6.65 13.319-11.008 20.116c-8.602-2.24-9.735-1.799-15.655-1.293-1.35 11.232 2.029 44.525 2.029 44.525s-14.35-1.62-32.058 8.058c1.331-11.437 3.475-40.807 2.003-52.986-10.01.467-34.234 1.894-57.114 4.87l-12.052-8.704c.679.858 68.628-62.157 72.283-111.63m-2.432 95.15s1.011-22.33 0-39.994c0 0-17.466 27.61-30.253 40.199 4.057 1.42 30.253-.205 30.253-.205" style="fill:#fff;stroke-width:6.40007"/></svg>