<?xml version="1.0" encoding="UTF-8" standalone="no"?>
<!-- Generator: Adobe Illustrator 15.1.0, SVG Export Plug-In . SVG Version: 6.00 Build 0)  -->

<svg
   version="1.1"
   id="Layer_1"
   x="0px"
   y="0px"
   width="146.11301"
   height="150"
   viewBox="0 0 146.11301 150"
   enable-background="new 0 0 150 160"
   xml:space="preserve"
   xmlns="http://www.w3.org/2000/svg"
   xmlns:svg="http://www.w3.org/2000/svg"><defs
   id="defs3" />
<g
   id="Layer_1_1_"
   transform="translate(-1.812,-4.609)">
</g>
<g
   id="Layer_3"
   display="none"
   transform="translate(-1.812,-4.609)">
</g>
<g
   id="g3"
   transform="translate(-1.812,-4.609)">
	<path
   fill="#5d5e61"
   d="M 15.014,97.446 V 51.896 L 1.812,38.997 38.788,4.609 h 23.865 l 2.194,3.5 c 2.189,3.487 5.936,5.571 10.021,5.571 4.085,0 7.83,-2.083 10.02,-5.572 l 2.195,-3.499 h 23.865 l 36.977,34.388 -13.202,12.899 v 45.55 l -59.854,57.163 z"
   id="path1" />
	<path
   d="M 19.089,95.704 V 50.181 L 7.717,39.07 40.391,8.684 h 20.008 l 0.998,1.591 c 2.94,4.685 7.977,7.48 13.472,7.48 5.495,0 10.531,-2.796 13.471,-7.48 l 0.997,-1.591 h 20.01 L 142.02,39.07 130.648,50.18 v 45.523 l -55.779,53.271 z"
   id="path2" />
	<path
   fill="#5d5e61"
   d="m 105.995,80.99 c -0.642,2.166 -1.5,4.239 -2.557,6.188 l 7.089,9.387 -10.813,10.815 -9.386,-7.09 c -1.949,1.058 -4.024,1.914 -6.188,2.558 l -1.625,11.657 H 67.223 l -1.626,-11.657 c -2.164,-0.644 -4.237,-1.5 -6.188,-2.558 L 50.022,107.38 39.208,96.565 46.3,87.177 C 45.242,85.229 44.386,83.156 43.741,80.99 L 32.085,79.365 V 64.075 L 43.741,62.45 c 0.645,-2.166 1.501,-4.238 2.559,-6.187 l -7.092,-9.388 10.814,-10.814 9.388,7.091 c 1.95,-1.057 4.022,-1.912 6.187,-2.557 l 1.625,-11.658 h 15.292 l 1.626,11.656 c 2.164,0.644 4.236,1.5 6.185,2.558 l 9.39,-7.091 10.813,10.813 -7.09,9.388 c 1.058,1.949 1.914,4.022 2.559,6.188 l 11.656,1.624 V 79.365 Z M 74.868,50.665 c -11.627,0 -21.057,9.426 -21.057,21.057 0,11.631 9.43,21.056 21.057,21.056 11.63,0 21.057,-9.425 21.057,-21.056 0,-11.631 -9.427,-21.057 -21.057,-21.057 z M 90.32,71.722 c 0,8.535 -6.917,15.452 -15.452,15.452 -8.532,0 -15.452,-6.917 -15.452,-15.452 0,-8.535 6.92,-15.452 15.452,-15.452 8.535,0 15.452,6.917 15.452,15.452 z M 74.868,66.379 c -2.95,0 -5.343,2.393 -5.343,5.343 0,2.949 2.393,5.343 5.343,5.343 2.95,0 5.343,-2.394 5.343,-5.343 0,-2.951 -2.393,-5.343 -5.343,-5.343 z"
   id="path3" />
</g>
</svg>
