<?xml version="1.0" encoding="UTF-8" standalone="no"?>
<!-- Generator: Adobe Illustrator 15.1.0, SVG Export Plug-In . SVG Version: 6.00 Build 0)  -->

<svg
   version="1.1"
   id="Layer_1"
   x="0px"
   y="0px"
   width="146.11301"
   height="150"
   viewBox="0 0 146.11301 150"
   enable-background="new 0 0 150 160"
   xml:space="preserve"
   xmlns="http://www.w3.org/2000/svg"
   xmlns:svg="http://www.w3.org/2000/svg"><defs
   id="defs3" />
<g
   id="Layer_1_1_"
   transform="translate(-2.351,-5.157)">
</g>
<g
   id="Layer_3"
   display="none"
   transform="translate(-2.351,-5.157)">
</g>
<g
   id="g3"
   transform="translate(-2.351,-5.157)">
	<path
   fill="#ffffff"
   d="M 15.553,97.994 V 52.444 L 2.351,39.545 39.327,5.157 h 23.865 l 2.194,3.5 c 2.189,3.487 5.936,5.571 10.021,5.571 4.085,0 7.829,-2.083 10.02,-5.572 l 2.195,-3.499 h 23.864 l 36.978,34.388 -13.202,12.899 v 45.55 l -59.854,57.163 z"
   id="path1" />
	<path
   d="M 19.628,96.252 V 50.729 L 8.256,39.619 40.93,9.231 h 20.008 l 0.998,1.591 c 2.94,4.685 7.977,7.479 13.472,7.479 5.494,0 10.531,-2.796 13.471,-7.479 l 0.997,-1.591 h 20.011 l 32.674,30.387 -11.373,11.11 V 96.251 L 75.41,149.522 Z"
   id="path2" />
	<path
   fill="#ffffff"
   d="m 106.534,81.538 c -0.642,2.166 -1.5,4.239 -2.558,6.188 l 7.09,9.387 -10.813,10.813 -9.386,-7.09 c -1.949,1.058 -4.024,1.914 -6.188,2.558 l -1.625,11.657 H 67.762 l -1.626,-11.657 c -2.164,-0.644 -4.237,-1.5 -6.188,-2.558 l -9.387,7.09 -10.814,-10.813 7.092,-9.389 C 45.781,85.777 44.925,83.703 44.28,81.537 L 32.624,79.912 V 64.622 L 44.28,62.997 c 0.645,-2.166 1.501,-4.238 2.559,-6.187 l -7.092,-9.388 10.814,-10.814 9.388,7.091 c 1.95,-1.057 4.022,-1.912 6.187,-2.557 L 67.761,29.484 H 83.053 L 84.68,41.14 c 2.163,0.644 4.235,1.5 6.184,2.558 l 9.391,-7.091 10.813,10.813 -7.09,9.388 c 1.059,1.949 1.914,4.022 2.56,6.188 l 11.655,1.624 V 79.912 Z M 75.407,51.213 c -11.627,0 -21.057,9.426 -21.057,21.057 0,11.63 9.43,21.056 21.057,21.056 11.63,0 21.057,-9.426 21.057,-21.056 0,-11.631 -9.427,-21.057 -21.057,-21.057 z M 90.859,72.27 c 0,8.535 -6.918,15.453 -15.452,15.453 -8.532,0 -15.452,-6.918 -15.452,-15.453 0,-8.535 6.92,-15.452 15.452,-15.452 8.534,-10e-4 15.452,6.916 15.452,15.452 z M 75.407,66.927 c -2.95,0 -5.343,2.393 -5.343,5.343 0,2.949 2.393,5.343 5.343,5.343 2.95,0 5.343,-2.394 5.343,-5.343 0,-2.951 -2.393,-5.343 -5.343,-5.343 z"
   id="path3" />
</g>
</svg>
