<?xml version="1.0" encoding="UTF-8" standalone="no"?>
<!-- Generator: Adobe Illustrator 15.1.0, SVG Export Plug-In . SVG Version: 6.00 Build 0)  -->

<svg
   version="1.1"
   id="Layer_1"
   x="0px"
   y="0px"
   width="146.11301"
   height="150"
   viewBox="0 0 146.11301 150"
   enable-background="new 0 0 150 160"
   xml:space="preserve"
   xmlns="http://www.w3.org/2000/svg"
   xmlns:svg="http://www.w3.org/2000/svg"><defs
   id="defs20" />
<g
   id="Layer_1_1_"
   transform="translate(-1.812,-5.157)">
</g>
<g
   id="Layer_3"
   display="none"
   transform="translate(-1.812,-5.157)">
</g>
<g
   id="g20"
   transform="translate(-1.812,-5.157)">
	<path
   fill="#ffffff"
   d="M 15.014,97.994 V 52.444 L 1.812,39.545 38.788,5.157 h 23.865 l 2.194,3.5 c 2.189,3.487 5.936,5.571 10.021,5.571 4.085,0 7.83,-2.083 10.02,-5.572 l 2.195,-3.499 h 23.865 l 36.977,34.388 -13.202,12.899 v 45.55 l -59.854,57.163 z"
   id="path1" />
	<path
   fill="#bb2c26"
   d="M 19.089,96.252 V 50.729 L 7.717,39.618 40.391,9.231 h 20.008 l 0.998,1.591 c 2.94,4.685 7.977,7.48 13.472,7.48 5.495,0 10.531,-2.796 13.471,-7.48 l 0.997,-1.591 h 20.01 l 32.674,30.387 -11.372,11.11 V 96.251 L 74.87,149.522 Z"
   id="path2" />
	<linearGradient
   id="SVGID_1_"
   gradientUnits="userSpaceOnUse"
   x1="12.6367"
   y1="78.727097"
   x2="137.0986"
   y2="78.727097">
		<stop
   offset="0"
   style="stop-color:#BB2C26"
   id="stop2" />
		<stop
   offset="0.0414"
   style="stop-color:#BF3526"
   id="stop3" />
		<stop
   offset="0.1088"
   style="stop-color:#CB4D25"
   id="stop4" />
		<stop
   offset="0.1935"
   style="stop-color:#DE7523"
   id="stop5" />
		<stop
   offset="0.2"
   style="stop-color:#E07823"
   id="stop6" />
		<stop
   offset="0.208"
   style="stop-color:#E17A23"
   id="stop7" />
		<stop
   offset="0.2924"
   style="stop-color:#EE8B1F"
   id="stop8" />
		<stop
   offset="0.3848"
   style="stop-color:#F5951E"
   id="stop9" />
		<stop
   offset="0.5"
   style="stop-color:#F7981D"
   id="stop10" />
		<stop
   offset="0.6152"
   style="stop-color:#F5951E"
   id="stop11" />
		<stop
   offset="0.7076"
   style="stop-color:#EE8B1F"
   id="stop12" />
		<stop
   offset="0.792"
   style="stop-color:#E17A23"
   id="stop13" />
		<stop
   offset="0.8"
   style="stop-color:#E07823"
   id="stop14" />
		<stop
   offset="0.8476"
   style="stop-color:#D35D24"
   id="stop15" />
		<stop
   offset="0.9069"
   style="stop-color:#C64225"
   id="stop16" />
		<stop
   offset="0.9597"
   style="stop-color:#BE3226"
   id="stop17" />
		<stop
   offset="1"
   style="stop-color:#BB2C26"
   id="stop18" />
	</linearGradient>
	<path
   fill="url(#SVGID_1_)"
   d="m 74.868,144.827 52.384,-50.028 v -45.5 l 9.847,-9.62 -29.087,-27.052 H 91.215 c -3.414,5.441 -9.449,9.071 -16.347,9.071 -6.898,0 -12.933,-3.63 -16.348,-9.071 H 41.725 l -29.088,27.052 9.848,9.62 v 45.5 z"
   id="path18"
   style="fill:url(#SVGID_1_)" />
	<path
   fill="#bb2c26"
   d="m 64.268,118.448 -1.743,-12.494 c -0.934,-0.341 -1.853,-0.721 -2.75,-1.137 L 49.71,112.419 34.72,97.426 42.321,87.361 C 41.905,86.465 41.526,85.546 41.185,84.612 L 28.689,82.87 V 61.668 l 12.494,-1.742 c 0.341,-0.935 0.72,-1.853 1.136,-2.749 l -7.601,-10.064 14.99,-14.994 10.066,7.604 c 0.896,-0.416 1.813,-0.795 2.749,-1.136 l 1.742,-12.496 h 21.202 l 1.743,12.493 c 0.934,0.341 1.852,0.721 2.748,1.136 l 10.064,-7.601 14.993,14.991 -7.601,10.063 c 0.416,0.897 0.795,1.816 1.136,2.752 l 12.494,1.741 v 21.202 l -12.491,1.742 c -0.343,0.935 -0.722,1.854 -1.139,2.752 l 7.601,10.063 -14.99,14.993 -10.063,-7.602 c -0.898,0.416 -1.816,0.796 -2.752,1.137 l -1.742,12.494 h -21.2 z"
   id="path19" />
	<path
   fill="#ffffff"
   d="m 105.995,81.538 c -0.642,2.166 -1.5,4.239 -2.557,6.188 l 7.089,9.387 -10.813,10.814 -9.386,-7.09 c -1.949,1.058 -4.024,1.914 -6.188,2.558 l -1.625,11.657 H 67.223 l -1.626,-11.657 c -2.164,-0.644 -4.237,-1.5 -6.188,-2.558 l -9.387,7.09 L 39.208,97.113 46.3,87.725 C 45.242,85.777 44.386,83.704 43.741,81.538 L 32.085,79.913 V 64.623 L 43.741,62.998 C 44.386,60.832 45.242,58.76 46.3,56.811 L 39.208,47.423 50.022,36.609 59.41,43.7 c 1.95,-1.057 4.022,-1.912 6.187,-2.557 l 1.625,-11.658 h 15.292 l 1.626,11.656 c 2.164,0.644 4.236,1.5 6.185,2.558 l 9.39,-7.091 10.813,10.813 -7.09,9.388 c 1.058,1.949 1.914,4.022 2.559,6.188 l 11.656,1.624 V 79.913 Z M 74.868,51.213 c -11.627,0 -21.057,9.426 -21.057,21.057 0,11.631 9.43,21.056 21.057,21.056 11.63,0 21.057,-9.425 21.057,-21.056 0,-11.631 -9.427,-21.057 -21.057,-21.057 z M 90.32,72.27 c 0,8.535 -6.917,15.452 -15.452,15.452 -8.532,0 -15.452,-6.917 -15.452,-15.452 0,-8.535 6.92,-15.452 15.452,-15.452 8.535,-10e-4 15.452,6.916 15.452,15.452 z M 74.868,66.927 c -2.95,0 -5.343,2.393 -5.343,5.343 0,2.949 2.393,5.343 5.343,5.343 2.95,0 5.343,-2.394 5.343,-5.343 0,-2.951 -2.393,-5.343 -5.343,-5.343 z"
   id="path20" />
</g>
</svg>
