<?xml version="1.0" encoding="UTF-8" standalone="no"?>
<!-- Generator: Adobe Illustrator 15.1.0, SVG Export Plug-In . SVG Version: 6.00 Build 0)  -->

<svg
   version="1.1"
   id="Layer_1"
   x="0px"
   y="0px"
   width="146.114"
   height="150"
   viewBox="0 0 146.114 150"
   enable-background="new 0 0 150 160"
   xml:space="preserve"
   xmlns="http://www.w3.org/2000/svg"
   xmlns:svg="http://www.w3.org/2000/svg"><defs
   id="defs20" />
<g
   id="Layer_1_1_"
   transform="translate(-2,-4.609)">
</g>
<g
   id="Layer_3"
   display="none"
   transform="translate(-2,-4.609)">
</g>
<g
   id="g20"
   transform="translate(-2,-4.609)">
	<path
   fill="#ffffff"
   d="M 15.202,97.446 V 51.896 L 2,38.997 38.977,4.609 h 23.865 l 2.194,3.5 c 2.189,3.487 5.936,5.571 10.021,5.571 4.085,0 7.83,-2.083 10.02,-5.572 l 2.195,-3.499 h 23.865 l 36.977,34.388 -13.202,12.899 v 45.55 l -59.854,57.163 z"
   id="path1" />
	<path
   fill="#612c75"
   d="M 19.277,95.704 V 50.181 L 7.905,39.07 40.579,8.684 h 20.008 l 0.998,1.591 c 2.94,4.685 7.977,7.48 13.472,7.48 5.495,0 10.531,-2.796 13.471,-7.48 l 0.997,-1.591 h 20.01 l 32.674,30.387 -11.372,11.11 v 45.523 l -55.779,53.271 z"
   id="path2" />
	<linearGradient
   id="SVGID_1_"
   gradientUnits="userSpaceOnUse"
   x1="12.8252"
   y1="78.179199"
   x2="137.28709"
   y2="78.179199">
		<stop
   offset="0"
   style="stop-color:#612C75"
   id="stop2" />
		<stop
   offset="0.0703"
   style="stop-color:#67357C"
   id="stop3" />
		<stop
   offset="0.1845"
   style="stop-color:#784D8D"
   id="stop4" />
		<stop
   offset="0.2"
   style="stop-color:#7B5190"
   id="stop5" />
		<stop
   offset="0.2344"
   style="stop-color:#8C639D"
   id="stop6" />
		<stop
   offset="0.2911"
   style="stop-color:#A37BAE"
   id="stop7" />
		<stop
   offset="0.3516"
   style="stop-color:#B38CBA"
   id="stop8" />
		<stop
   offset="0.4177"
   style="stop-color:#BC96C1"
   id="stop9" />
		<stop
   offset="0.5"
   style="stop-color:#BF99C3"
   id="stop10" />
		<stop
   offset="0.5823"
   style="stop-color:#BC96C1"
   id="stop11" />
		<stop
   offset="0.6484"
   style="stop-color:#B38CBA"
   id="stop12" />
		<stop
   offset="0.7089"
   style="stop-color:#A37BAE"
   id="stop13" />
		<stop
   offset="0.7656"
   style="stop-color:#8C639D"
   id="stop14" />
		<stop
   offset="0.8"
   style="stop-color:#7B5190"
   id="stop15" />
		<stop
   offset="0.8547"
   style="stop-color:#714285"
   id="stop16" />
		<stop
   offset="0.937"
   style="stop-color:#653279"
   id="stop17" />
		<stop
   offset="1"
   style="stop-color:#612C75"
   id="stop18" />
	</linearGradient>
	<path
   fill="url(#SVGID_1_)"
   d="m 75.057,144.279 52.384,-50.028 v -45.5 l 9.847,-9.62 L 108.2,12.079 H 91.403 c -3.414,5.441 -9.449,9.071 -16.347,9.071 -6.898,0 -12.933,-3.63 -16.348,-9.071 H 41.913 l -29.088,27.052 9.848,9.62 v 45.5 z"
   id="path18"
   style="fill:url(#SVGID_1_)" />
	<path
   fill="#612c75"
   d="m 64.456,117.9 -1.743,-12.494 c -0.934,-0.341 -1.853,-0.721 -2.75,-1.137 L 49.898,111.871 34.908,96.878 42.509,86.813 C 42.093,85.917 41.714,84.998 41.373,84.064 L 28.879,82.323 V 61.12 l 12.494,-1.742 c 0.341,-0.935 0.72,-1.853 1.136,-2.749 l -7.601,-10.064 14.99,-14.994 10.066,7.604 c 0.896,-0.416 1.813,-0.795 2.749,-1.136 L 64.455,25.543 H 85.657 L 87.4,38.035 c 0.934,0.341 1.852,0.721 2.748,1.136 l 10.064,-7.601 14.993,14.991 -7.601,10.063 c 0.416,0.897 0.795,1.816 1.136,2.752 l 12.494,1.741 V 82.32 l -12.491,1.742 c -0.343,0.935 -0.722,1.854 -1.139,2.752 l 7.601,10.063 -14.99,14.993 -10.063,-7.602 c -0.898,0.416 -1.816,0.796 -2.752,1.137 L 85.658,117.9 Z"
   id="path19" />
	<path
   fill="#ffffff"
   d="m 106.184,80.99 c -0.642,2.166 -1.5,4.239 -2.557,6.188 l 7.089,9.387 -10.814,10.815 -9.386,-7.09 c -1.949,1.058 -4.024,1.914 -6.188,2.558 l -1.625,11.657 H 67.411 l -1.626,-11.657 c -2.164,-0.644 -4.237,-1.5 -6.188,-2.558 L 50.21,107.38 39.396,96.565 46.488,87.177 C 45.43,85.229 44.574,83.156 43.929,80.99 L 32.273,79.365 V 64.075 L 43.93,62.45 c 0.645,-2.166 1.501,-4.238 2.559,-6.187 l -7.092,-9.388 10.814,-10.814 9.388,7.091 c 1.95,-1.057 4.022,-1.912 6.187,-2.557 l 1.625,-11.658 h 15.292 l 1.626,11.656 c 2.164,0.644 4.236,1.5 6.185,2.558 l 9.39,-7.091 10.813,10.813 -7.09,9.388 c 1.058,1.949 1.914,4.022 2.559,6.188 l 11.656,1.624 V 79.365 Z M 75.057,50.665 C 63.43,50.665 54,60.091 54,71.722 c 0,11.631 9.43,21.056 21.057,21.056 11.63,0 21.057,-9.425 21.057,-21.056 0,-11.631 -9.427,-21.057 -21.057,-21.057 z m 15.452,21.057 c 0,8.535 -6.917,15.452 -15.452,15.452 -8.532,0 -15.452,-6.917 -15.452,-15.452 0,-8.535 6.92,-15.452 15.452,-15.452 8.535,0 15.452,6.917 15.452,15.452 z M 75.057,66.379 c -2.95,0 -5.343,2.393 -5.343,5.343 0,2.949 2.393,5.343 5.343,5.343 2.95,0 5.343,-2.394 5.343,-5.343 -0.001,-2.951 -2.393,-5.343 -5.343,-5.343 z"
   id="path20" />
</g>
</svg>
