<?xml version="1.0" encoding="UTF-8" standalone="no"?>
<!-- Generator: Adobe Illustrator 15.1.0, SVG Export Plug-In . SVG Version: 6.00 Build 0)  -->

<svg
   version="1.1"
   id="Layer_1"
   x="0px"
   y="0px"
   width="146.11301"
   height="150"
   viewBox="0 0 146.11301 150"
   enable-background="new 0 0 150 160"
   xml:space="preserve"
   xmlns="http://www.w3.org/2000/svg"
   xmlns:svg="http://www.w3.org/2000/svg"><defs
   id="defs20" />
<g
   id="Layer_1_1_"
   transform="translate(-1.513,-5.157)">
</g>
<g
   id="Layer_3"
   display="none"
   transform="translate(-1.513,-5.157)">
</g>
<g
   id="g20"
   transform="translate(-1.513,-5.157)">
	<path
   fill="#ffffff"
   d="M 14.715,97.994 V 52.444 L 1.513,39.545 38.489,5.157 h 23.865 l 2.194,3.5 c 2.189,3.487 5.936,5.571 10.021,5.571 4.085,0 7.83,-2.083 10.02,-5.572 l 2.195,-3.499 h 23.865 l 36.977,34.388 -13.202,12.899 v 45.55 L 74.57,155.157 Z"
   id="path1" />
	<path
   fill="#626e77"
   d="M 18.79,96.252 V 50.729 L 7.418,39.618 40.092,9.231 H 60.1 l 0.998,1.591 c 2.94,4.685 7.977,7.48 13.472,7.48 5.495,0 10.531,-2.796 13.471,-7.48 l 0.997,-1.591 h 20.01 l 32.674,30.387 -11.372,11.11 v 45.523 l -55.779,53.271 z"
   id="path2" />
	<linearGradient
   id="SVGID_1_"
   gradientUnits="userSpaceOnUse"
   x1="12.3379"
   y1="78.727097"
   x2="136.7998"
   y2="78.727097">
		<stop
   offset="0"
   style="stop-color:#626E77"
   id="stop2" />
		<stop
   offset="0.0418"
   style="stop-color:#697780"
   id="stop3" />
		<stop
   offset="0.1099"
   style="stop-color:#7D8E98"
   id="stop4" />
		<stop
   offset="0.1954"
   style="stop-color:#9EB4C0"
   id="stop5" />
		<stop
   offset="0.2"
   style="stop-color:#A0B6C2"
   id="stop6" />
		<stop
   offset="0.2041"
   style="stop-color:#A1B7C3"
   id="stop7" />
		<stop
   offset="0.2896"
   style="stop-color:#ADC6D4"
   id="stop8" />
		<stop
   offset="0.3832"
   style="stop-color:#B5CEDE"
   id="stop9" />
		<stop
   offset="0.5"
   style="stop-color:#B7D1E1"
   id="stop10" />
		<stop
   offset="0.6168"
   style="stop-color:#B5CEDE"
   id="stop11" />
		<stop
   offset="0.7104"
   style="stop-color:#ADC6D4"
   id="stop12" />
		<stop
   offset="0.7959"
   style="stop-color:#A1B7C3"
   id="stop13" />
		<stop
   offset="0.8"
   style="stop-color:#A0B6C2"
   id="stop14" />
		<stop
   offset="0.8463"
   style="stop-color:#8B9DA8"
   id="stop15" />
		<stop
   offset="0.9062"
   style="stop-color:#74838D"
   id="stop16" />
		<stop
   offset="0.9594"
   style="stop-color:#67747D"
   id="stop17" />
		<stop
   offset="1"
   style="stop-color:#626E77"
   id="stop18" />
	</linearGradient>
	<path
   fill="url(#SVGID_1_)"
   d="m 74.569,144.827 52.384,-50.028 v -45.5 L 136.8,39.679 107.713,12.627 H 90.916 c -3.414,5.441 -9.449,9.071 -16.347,9.071 -6.898,0 -12.933,-3.63 -16.348,-9.071 H 41.426 l -29.088,27.052 9.848,9.62 v 45.5 z"
   id="path18"
   style="fill:url(#SVGID_1_)" />
	<path
   fill="#626e77"
   d="m 63.969,118.448 -1.743,-12.494 c -0.934,-0.341 -1.853,-0.721 -2.75,-1.137 L 49.411,112.419 34.42,97.426 42.021,87.361 C 41.605,86.465 41.226,85.546 40.885,84.612 L 28.391,82.87 V 61.668 l 12.494,-1.742 c 0.341,-0.935 0.72,-1.853 1.136,-2.749 L 34.42,47.112 49.41,32.118 59.476,39.722 c 0.896,-0.416 1.813,-0.795 2.749,-1.136 L 63.967,26.09 H 85.17 l 1.743,12.493 c 0.934,0.341 1.852,0.721 2.748,1.136 l 10.064,-7.601 14.993,14.991 -7.601,10.063 c 0.416,0.897 0.795,1.816 1.136,2.752 l 12.494,1.741 v 21.202 l -12.491,1.742 c -0.343,0.935 -0.722,1.854 -1.139,2.752 l 7.601,10.063 -14.99,14.993 -10.063,-7.602 c -0.898,0.416 -1.816,0.796 -2.752,1.137 l -1.742,12.494 H 63.969 Z"
   id="path19" />
	<path
   fill="#ffffff"
   d="m 105.696,81.538 c -0.642,2.166 -1.5,4.239 -2.557,6.188 l 7.089,9.387 -10.813,10.814 -9.386,-7.09 c -1.949,1.058 -4.024,1.914 -6.188,2.558 l -1.625,11.657 H 66.924 l -1.626,-11.657 c -2.164,-0.644 -4.237,-1.5 -6.188,-2.558 l -9.387,7.09 -10.814,-10.814 7.092,-9.388 C 44.943,85.777 44.087,83.704 43.442,81.538 L 31.786,79.913 v -15.29 l 11.656,-1.625 c 0.645,-2.166 1.501,-4.238 2.559,-6.187 L 38.909,47.423 49.723,36.609 59.111,43.7 c 1.95,-1.057 4.022,-1.912 6.187,-2.557 l 1.625,-11.658 h 15.292 l 1.626,11.656 c 2.164,0.644 4.236,1.5 6.185,2.558 l 9.39,-7.091 10.813,10.813 -7.09,9.388 c 1.058,1.949 1.914,4.022 2.559,6.188 l 11.656,1.624 V 79.913 Z M 74.569,51.213 c -11.627,0 -21.057,9.426 -21.057,21.057 0,11.631 9.43,21.056 21.057,21.056 11.63,0 21.057,-9.425 21.057,-21.056 0,-11.631 -9.427,-21.057 -21.057,-21.057 z M 90.021,72.27 c 0,8.535 -6.917,15.452 -15.452,15.452 -8.532,0 -15.452,-6.917 -15.452,-15.452 0,-8.535 6.92,-15.452 15.452,-15.452 8.535,-10e-4 15.452,6.916 15.452,15.452 z M 74.569,66.927 c -2.95,0 -5.343,2.393 -5.343,5.343 0,2.949 2.393,5.343 5.343,5.343 2.95,0 5.343,-2.394 5.343,-5.343 0,-2.951 -2.392,-5.343 -5.343,-5.343 z"
   id="path20" />
</g>
</svg>
