<?xml version="1.0" encoding="UTF-8" standalone="no"?>
<!-- Generator: Adobe Illustrator 15.1.0, SVG Export Plug-In . SVG Version: 6.00 Build 0)  -->

<svg
   version="1.1"
   id="Layer_1"
   x="0px"
   y="0px"
   width="141.22"
   height="150.00101"
   viewBox="0 0 141.22 150.00101"
   enable-background="new 0 0 150 160"
   xml:space="preserve"
   xmlns="http://www.w3.org/2000/svg"
   xmlns:svg="http://www.w3.org/2000/svg"><defs
   id="defs1" />
<g
   id="Layer_1_1_"
   transform="translate(-3.959,-5.179)">
</g>
<g
   id="Layer_3"
   display="none"
   transform="translate(-3.959,-5.179)">
</g>
<path
   d="M 11.173,93.236 V 41.61 L 0,30.694 33.004,0 H 52.061 C 55.936,6.174 62.784,10.292 70.61,10.292 78.436,10.292 85.284,6.173 89.158,0 h 19.059 L 141.22,30.694 130.047,41.61 V 93.236 L 70.61,150.001 Z M 119.154,76.346 V 58.995 l -13.226,-1.843 c -0.731,-2.458 -1.703,-4.81 -2.903,-7.021 L 111.069,39.479 98.802,27.211 88.148,35.256 c -2.211,-1.2 -4.562,-2.172 -7.018,-2.902 L 79.285,19.128 h -17.35 l -1.844,13.228 c -2.456,0.731 -4.807,1.702 -7.02,2.901 l -10.652,-8.045 -12.27,12.27 8.046,10.652 c -1.2,2.21 -2.171,4.562 -2.903,7.02 l -13.226,1.844 v 17.35 l 13.226,1.844 c 0.731,2.457 1.703,4.809 2.903,7.02 l -8.046,10.651 12.271,12.271 10.65,-8.044 c 2.213,1.199 4.565,2.171 7.021,2.901 l 1.845,13.227 h 17.351 l 1.844,-13.227 c 2.456,-0.73 4.811,-1.702 7.022,-2.901 l 10.649,8.044 12.27,-12.271 -8.044,-10.65 c 1.199,-2.212 2.173,-4.564 2.901,-7.021 z M 94.502,67.673 c 0,13.197 -10.695,23.891 -23.892,23.891 -13.192,0 -23.892,-10.694 -23.892,-23.891 0,-13.197 10.7,-23.892 23.892,-23.892 13.197,0 23.892,10.695 23.892,23.892 z M 70.61,50.14 c -9.681,0 -17.533,7.849 -17.533,17.533 0,9.684 7.852,17.533 17.533,17.533 9.685,0 17.533,-7.849 17.533,-17.533 0,-9.684 -7.848,-17.533 -17.533,-17.533 z m 6.063,17.533 c 0,3.347 -2.715,6.063 -6.063,6.063 -3.347,0 -6.062,-2.716 -6.062,-6.063 0,-3.347 2.715,-6.062 6.062,-6.062 3.348,0 6.063,2.715 6.063,6.062 z"
   id="path1" />
</svg>
