<?xml version="1.0" encoding="UTF-8"?>
<svg id="Layer_2" data-name="Layer 2" xmlns="http://www.w3.org/2000/svg" viewBox="0 0 989.6 1549.82">
  <defs>
    <style>
      .cls-1 {
        stroke-width: 0px;
      }
    </style>
  </defs>
  <g id="Layer_1-2" data-name="Layer 1">
    <path class="cls-1" d="m55.84,341.18c-21.16,1.04-48.64-1.33-54.44,62.38-6.67,73.57,12.41,204.37,15.71,273.36,2.26,46.79,4.17,107.55,4.23,140.54.06,19.19-.99,55.14,1.28,74.21,3.25,27.71,10.09,55.77,18.26,91.95,10.49,46.61,28.7,124.82,39.77,171.09,8.52,35.6,12.87,62.44,20.64,86.33,4.35,13.33,21.97,43.77,25.92,57.22,5.62,19.42,11.77,52.59,13.97,79.37,3.42,40.99,6.49,166.45,6.49,166.45l430.94,5.74s11.31-105.46,37.4-149.81c29.28-49.74,100.65-101.11,138.16-148.71,33.39-42.38,63.43-91.89,86.79-136.71,21.92-42.03,35.08-88.13,53.22-131.96,20.76-50.21,57.8-135.78,71.31-169.41,4.23-10.49,10.15-21.1,9.97-32.41-.41-20-12.75-58.61-12.29-87.6.46-28.99,6.55-50.5,10.96-70.67,2.61-11.94,16.18-38.15,15.42-50.32-1.62-25.57-23.02-40.76-38.55-45.45s-41.4,3.54-54.67,17.28c-21.92,22.73-63.14,79.72-76.82,119.2-12.81,37.05-8.64,77.11-17.74,103.03-6.84,19.6-26.09,37.92-36.64,52.7-10.15,14.26-9.22,38.84-14.2,50.61-3.3,7.77-8.35,19.07-15.77,19.83s-26.09-4.75-28.87-15.31c-8.06-30.61-15.54-112.48-19.54-168.37-4-55.48-3.77-111.2-4.64-166.86-.93-57.75,1.86-119.78-.99-179.56-3.07-63.83-11.13-155.03-17.28-203.62-3.77-29.86-9.68-70.96-19.71-88.07-7.25-12.41-26.26-15.71-40.53-14.55-43.02,3.65-51.6,33.86-57.34,55.89-7.36,28.23-4.7,69.86-6.73,106.97-2.09,38.5-5.68,90.39-7.42,130.33-2.67,61.69-3.3,195.09-8.7,239.97-1.04,8.46-11.07,19.71-17.57,18.67s-20-14.09-21.39-24.99c-4.99-38.9-7.25-141.12-13.22-210.4-6.2-71.89-15.94-136.83-23.94-197.01-6.49-48.87-15.54-126.97-33.16-151.49-10.49-14.61-40-24.58-55.19-19.83s-36.87,13.28-43.37,37.86c-7.77,29.22-12.35,95.31-9.8,139.78,5.33,92.82,24.93,348.33,28.18,423.58.41,9.74-4.12,27.08-8.7,27.89s-17.51-13.28-18.84-23.13c-5.45-40.29-14.96-151.2-20.93-224.02-8.17-99.55-22.44-160.65-32.64-203.38-10.15-42.27-38.67-40.18-49.69-39.19s-40.99,18.9-44.64,32.06c-8.64,31.19-4.58,100.18-7.19,154.97-2.78,57.75,1.68,113.4,5.74,173.87,4.06,60.24,16.35,155.78,18.78,188.89.52,6.9-4.81,18.38-8.23,19.07s-11.07-8.46-12.23-14.78c-10.15-54.32-31.77-252.9-48.7-311.34-6.09-20.99-32.82-43.25-50.67-42.38l-.17.23Z"/>
  </g>
</svg>