<?xml version="1.0" encoding="UTF-8" standalone="no"?>
<svg xmlns="http://www.w3.org/2000/svg" version="1.1" id="svg2" width="248.00394" height="224.26109" viewBox="0 0 248.00393 224.2611">
  <path d="M 34.592325,41.48043 20.165161,56.03346 0,36.88509 36.265348,3.53209 60.734566,23.82623 102.64889,3.53209 147.16317,33.20728 197.19966,0 l 38.79792,35.18559 -2.92876,145.72563 14.93512,19.29343 -19.62502,22.17756 -25.04232,-24.53356 12.51822,-14.88751 1.07587,-135.83805 -27.25551,-23.864 -37.05789,27.602 -0.53795,127.45757 13.67256,19.83643 -25.14854,26.106 -29.46701,-29.84446 16.54154,-16.94206 1.44946,-130.35148 -30.176709,-23.864 -31.763356,27.602 1.250297,120.34312 16.339832,21.34335 -33.344698,31.71353 -26.784744,-36.59717 14.890352,-19.96797 0.642502,-116.83486 z"/>
</svg>
