<?xml version="1.0" encoding="UTF-8" standalone="no"?>
<svg xmlns="http://www.w3.org/2000/svg" width="98.939941pt" height="146.94873pt" viewBox="0 0 98.939941 146.94873" version="1.1">
  <path d="M 49.727052,0 C 38.873779,0 9.4082116,2.24919 0,14.882813 H 17.922364 C 25.804981,4.6128301 40.03661,3.8820826 51.884767,4.0971676 c 6.348067,0.5397675 25.04004,2.1360075 25.04004,9.1596674 0,7.286618 -27.148758,12.636563 -38.087403,22.861815 C 37.304831,37.689421 27.4292,50.869276 27.4292,60.143551 h 33.963864 c 0,-7.319595 -0.33387,-16.456155 5.509283,-22.299315 C 78.478492,26.26809 98.93994,22.285148 98.93994,16.05615 98.93994,10.344053 85.116382,0.25434 49.727052,0 Z M 22.357911,86.096191 10.469239,146.94873 H 78.354495 L 66.464354,86.096191 Z"/>
</svg>
