<?xml version="1.0" encoding="UTF-8"?>
<svg id="Layer_2" data-name="Layer 2" xmlns="http://www.w3.org/2000/svg" viewBox="0 0 1012 640.11">
  <defs>
    <style>
      .cls-1 {
        stroke-width: 0px;
      }
    </style>
  </defs>
  <g id="Layer_1-2" data-name="Layer 1">
    <path class="cls-1" d="m33.2,487.32c32.42-17.36,228.23-62.97,281.65-81.92,9.11-3.23,9.87-13.06,17.77-19.13,5.76-4.4,20.24-6.74,26.5-9.93,19.61-9.93,1.8-19.86,23.34-36.88,13.54-10.72,26.47.82,36.09-5.85,12.97-8.98-4.27-31.06,19.48-49.06,16.35-12.4,33.72,4.65,40.67-3.35,8.32-9.52-15.31-31.47,5.22-53.48,12.65-13.57,33.78-5.72,36.78-16.67,5.76-20.97-12.08-18.53-1.96-50.13,2.21-6.89,10.06-7.69,15.72-16.7,2.72-4.33-8.82-8.07-6.99-22.27,1.49-11.73,6.29-24.04,6.99-33.81.7-9.61-.95-16.6,3.42-31.25,5.69-19.13,6.42-49.28,26.22-51.84,57.28-7.37,252.42-5.91,320.17-.57,29.79,2.34,57.97,18.53,76.41,20.27,8.63.82,27.48-8.48,34.22-9.87,5.57-1.14,19.01-1.2,16.86,2.69s-23.37,10.25-29.67,20.49c-6.77,11.01-10.88,29.95-10.88,45.54,0,58.35,11.29,231.61,10.88,304.58-.25,44.6-9.11,110.26-13.32,133.15-.76,4.11-9.24,1.01-11.83,4.33-3.38,4.33-9.49,13.25-9.71,18.82-.19,4.52,3.8,12.75,3.64,17.3-.44,12.15-1.61,55.89-8.95,56.55-4.62.41-10.37.6-17.02.63-4.93.03-2.21-8.67-12.97-8.89-9.27-.16-7.56,5.16-11.96,7.34-3.89,1.93-11.07.06-14.49-.06-5.66-.19-5.31-10.79-15.4-11.1-11.8-.38-11.39,10.85-17.46,10.66-6.99-.25-14.11-.47-21.19-.7-5-.16-1.33-11.39-13.95-11.83-12.4-.44-10.09,11.29-14.55,11.26-9.87-.09-11.67.79-21.79.7-6.48-.06-8.67-10.94-19.01-11.01-11.48-.06-12.75,8.07-16.38,12.11-1.55,1.71-9.71.82-12.4.82-3.86,0-6.96-8.86-14.68-8.95-11.99-.19-12.46,9.99-15.88,9.99s-7.84.95-9.71.47c-5.38-1.36-7.15-7.24-16.7-7.5-10.5-.28-9.65,6.99-14.39,7.46-139.99,13.41-361.7,22.3-466.48,19.96-5.53-.13-7.72-8.73-17.84-9.14-11.73-.47-9.05,8.29-13.98,8.07-7.91-.35-15.97-.76-24.01-1.23-4.87-.28-3.83-8.29-14.74-8.95-13.38-.79-10.85,7.21-16.23,6.77-6.83-.57-13.47-1.17-19.8-1.83-4.84-.51-.82-7.18-12.15-8.54-10.97-1.3-8.95,6.01-12.3,5.53-5.91-.89-11.26-1.8-15.88-2.75-17.11-3.61-37.92-11.83-44.31-28.12-7.27-18.5-4.17-64.17.63-82.87,3.38-13.16,15.28-22.33,28.31-29.32l-.06-.03ZM564.2,109.11c-7.08,0-12.81,5.72-12.81,12.81s5.72,12.81,12.81,12.81,12.81-5.72,12.81-12.81-5.72-12.81-12.81-12.81Zm-161.71,251.73c-7.05,0-12.81,5.72-12.81,12.81s5.72,12.81,12.81,12.81,12.81-5.72,12.81-12.81-5.72-12.81-12.81-12.81Zm144.82-195.24c-7.08,0-12.81,5.72-12.81,12.81s5.72,12.81,12.81,12.81,12.81-5.72,12.81-12.81-5.72-12.81-12.81-12.81Zm-89.25,141.63c-7.08,0-12.81,5.72-12.81,12.81s5.72,12.81,12.81,12.81,12.81-5.72,12.81-12.81-5.72-12.81-12.81-12.81Zm47.92-66.17c-7.05,0-12.81,5.72-12.81,12.81s5.72,12.81,12.81,12.81,12.81-5.72,12.81-12.81-5.72-12.81-12.81-12.81ZM937.47,54.3c-27.71-7.4-119.78-22.52-159.66-27.23-24.99-2.94-50.26,2.78-75.4,3.51-27.26.82-72.74-.16-88.27,1.36-3.04.32-5.47,4.84-4.81,7.81.85,3.86,9.05,9.27,9.84,15.24.89,6.42-1.27,16.6-4.62,23.25s-14.39,9.14-15.53,16.64c-1.49,9.74,8.67,30.84,6.61,41.88-1.87,10.15-16.73,14.42-18.91,24.54-2.37,10.91,7.46,30.43,4.65,41.02-2.69,10.06-14.58,19.01-21.57,22.58-6.04,3.1-15.88-3.19-20.27-1.17s-6.23,8.48-6.17,13.41c.09,8,9.2,23.59,6.8,34.51s-13.79,25.84-21.16,31c-6.29,4.43-19.23-2.91-23.06,0s-4.74,14.04,0,17.36c13.85,9.77,50.32,33.78,83.12,41.24,11.83,2.69,26.22,2.37,36.37,1.36,8.51-.82,25.27-3.13,24.58-7.37s-16.13-14.33-23.15-17.27c-4.11-1.71-22.27.35-25.87-2.28-11.04-8.1-42.6-30.24-45.96-47.06-3.35-16.83,12.75-48.01,32.83-51.78,23.21-4.33,65.25,23.09,88.37,26.06,11.01,1.39,60.88-4.65,50.42-8.35-48.11-16.92-102.98-45.54-119.52-74.04-8.82-15.21,3.76-42.7,20.27-48.74,20.02-7.34,79.42,5.25,99.82,4.78,7.97-.19,20.62-3.7,22.61-7.75s-4.62-14.23-10.79-16.41c-19.99-7.02-93.37-14.58-109.18-25.78-11.89-8.41-.32-40.61,14.23-41.34,52.34-2.53,158.84-8.32,299.87,26.09,4.14,1.01-2.37-16-6.48-17.11v.03ZM384.11,604.63c-14.04,2.12,91.91,10.41,297.05-15.47,115.76-14.61,197.39,3.76,234.3-2.47,10.22-1.74-2.34-43.3,3.8-63.48,1.83-6.01,15.24-9.58,16.73-15.66,6.33-25.9,19.67-117.81,21.13-139.73.41-6.33-10.69,7.88-13.16,13.69-5.95,14.14-12.81,58.95-22.52,71.1-7.43,9.33-24.86-10.6-31.69-.82-22.2,31.82-69.49,55.57-88.97,66.77-4.27,2.47-34.25,11.35-44.6,13.35-68.85,13.28-307.33,62.97-372.14,72.71h.06Zm-41.24-200.02c-7.08,0-12.81,5.72-12.81,12.81s5.72,12.81,12.81,12.81,12.81-5.72,12.81-12.81-5.72-12.81-12.81-12.81ZM572.93,44.53c-7.08,0-12.81,5.72-12.81,12.81s5.72,12.81,12.81,12.81,12.81-5.72,12.81-12.81-5.72-12.81-12.81-12.81Zm-94.95,322.1c-4.33-2.69-15.53-5.66-19.93-.66-5.09,5.79-16.6,24.61-10.6,35.33,7.97,14.26,43.3,39.03,58.51,50.23,9.87,7.27,27.39,17.81,32.7,16.86s3.1-16.13-.92-22.46c-9.11-14.39-36.44-44.15-47.38-56.58-7.88-8.98-8.07-20.02-12.4-22.71Zm-72.37,48.45c-5.28-13.38-26.92,24.16-21.41,37.45,15.15,36.44,89.29,70.18,84.79,64.55-19.48-24.51-46.15-58.16-63.41-102h.03Zm-365.65,108.17c-7.94,12.94-11.89,57.56-7.59,68.7,4.3,11.13,79.39,16.35,119.68,19.17,46.24,3.26,135.72,2.12,157.67.32,21.95-1.8-20.21-7.81-29.32-8.67-19.26-1.8-56.74,2.69-86.28-2.25-87.83-14.68-146.25-90.2-154.19-77.27h.03Z"/>
  </g>
</svg>