<?xml version="1.0" encoding="UTF-8" standalone="no"?>
<svg xmlns="http://www.w3.org/2000/svg" version="1.1" id="svg2" width="195.33051" height="195.33051" viewBox="0 0 195.33051 195.33051">
  <path d="M 97.666016,0 A 97.665253,97.665253 0 0 0 0,97.666016 97.665253,97.665253 0 0 0 97.666016,195.33008 97.665253,97.665253 0 0 0 195.33008,97.666016 97.665253,97.665253 0 0 0 97.666016,0 Z M 68.996094,41.396484 A 13.137712,13.137712 0 0 1 82.132812,54.533203 13.137712,13.137712 0 0 1 68.996094,67.671875 13.137712,13.137712 0 0 1 55.857422,54.533203 13.137712,13.137712 0 0 1 68.996094,41.396484 Z m 63.955076,0 A 13.137712,13.137712 0 0 1 146.08984,54.533203 13.137712,13.137712 0 0 1 132.95117,67.671875 13.137712,13.137712 0 0 1 119.81445,54.533203 13.137712,13.137712 0 0 1 132.95117,41.396484 Z M 98.162109,89.732422 a 68.911018,68.911018 0 0 1 67.589841,55.568358 h -8.80078 A 60.359001,60.359001 0 0 0 98.162109,98.285156 60.359001,60.359001 0 0 0 39.349609,145.30078 H 30.617188 A 68.911018,68.911018 0 0 1 98.162109,89.732422 Z"/>
</svg>
