<?xml version="1.0" encoding="UTF-8"?>
<svg id="Layer_2" data-name="Layer 2" xmlns="http://www.w3.org/2000/svg" viewBox="0 0 1012.03 934">
  <defs>
    <style>
      .cls-1, .cls-2 {
        stroke-width: 0px;
      }

      .cls-2 {
        opacity: .3;
      }
    </style>
  </defs>
  <g id="Layer_1-2" data-name="Layer 1">
    <path class="cls-2" d="m750.16,111.89c-2.24,1.36-4.54,2.41-6.74,3.59-89.18,47.67-191.41,198.66-201.27,213.43-4.57-1.19-9.35-2.13-14.33-2.88-7.15-1.12-14.74-1.69-22.53-1.69-12.67,0-24.7,1.56-35.44,4.37-9.86-14.74-112.09-165.73-201.27-213.43-2.2-1.19-4.54-2.24-6.74-3.59C167.94,54.59,24.81,6.78,16.58,17.66c-4.71,6.2,25.35,133.27,350.49,401.49.17.14.3.27.47.37-.95,7.42-1.36,15.72-1.22,24.9.68,40.32-67.63,32.83-70.14,92.5-.75,18.03-.03,30.66,13.93,78.81,7.96,27.45,8.91,41.47,8.78,55.98-.17,16.03-13.55,23.82-5.79,43,5.79,14.43,19.38,8.67,32.6,25.45,5.83,7.42,10.03,15.32,14.47,22.26,19.35,30.36,42.56,56.76,72.44,76.24l-.03.03c14.37,37.27,32.83,65.5,56.48,75.32,4,2.1,8.61,3.39,14.06,3.56,1.19.1,2.37.2,3.56.2,7.76.2,13.96-1.8,19.01-5.22,22.23-10.78,39.71-38.02,53.5-73.53,30.02-19.48,53.27-45.98,72.68-76.41,4.44-6.95,8.64-14.84,14.47-22.26,13.21-16.77,26.8-11.05,32.6-25.45,7.73-19.21-5.66-27.01-5.79-43-.14-14.5.81-28.53,8.78-55.98,13.96-48.15,14.67-60.79,13.89-78.81-2.51-59.67-70.82-52.18-70.14-92.5.17-9.22-.27-17.48-1.22-24.9.17-.14.3-.24.47-.37C970.07,151.1,1000.13,24.07,995.42,17.86c-8.27-10.84-151.39,36.93-245.25,94.03Z"/>
    <path class="cls-1" d="m661.42,426.77c.41,5.66.54,11.69.44,18.16-.1,6.27,3.63,9.96,8.06,13.38,5.29,4.07,11.69,7.62,18.09,11.55,21.38,13.11,42.42,29.75,43.98,66.62.81,19.18.3,32.7-14.54,84-7.29,25.18-8.27,38.02-8.13,51.3.07,5.86,3.05,10.1,4.81,14.74,3.66,9.66,5.69,19.89-.17,34.46-4.2,10.44-10.47,15.21-18.23,18.91-4.68,2.24-10.88,3.15-16.67,10.5-5.49,6.98-9.39,14.43-13.55,20.97-19.72,30.9-43.27,57.91-73.12,78.34-15.11,37.17-34.97,64.96-58.62,76.92-7.39,4.74-16.3,7.62-27.45,7.35-1.42-.03-2.85-.1-4.2-.24-7.69-.3-14.23-2.13-19.92-5.05-25.51-10.94-46.83-39.88-62.82-79.36-29.75-20.43-53.23-47.37-72.88-78.2-4.17-6.54-8.06-13.99-13.55-20.97-5.76-7.35-11.96-8.27-16.67-10.5-7.76-3.69-14.03-8.47-18.23-18.91-5.86-14.57-3.83-24.84-.17-34.46,1.76-4.68,4.78-8.88,4.81-14.74.14-13.28-.85-26.12-8.13-51.3-14.84-51.27-15.35-64.82-14.54-84,1.56-36.83,22.6-53.5,43.98-66.62,6.4-3.93,12.81-7.45,18.09-11.55,4.44-3.42,8.17-7.12,8.06-13.38-.1-6.47.07-12.54.44-18.16C91.22,211.51,20.58,86.11,4.75,41.45.38,29.08-.26,21.02.08,17.46c.44-4.71,2.2-7.76,3.59-9.59C6.01,4.79,10.04,1.5,16.78.38c4.47-.75,12.23-.47,22.53,1.52,44.9,8.71,154.07,49.23,230.92,95.96,1.97,1.19,4.03,2.1,6,3.15,81.93,43.81,174.94,172.2,200.86,209.57,8.91-1.56,18.37-2.44,28.23-2.44,8.64,0,17.01.64,24.84,1.86,1.59.24,3.19.47,4.78.78,25.92-37.37,118.93-165.76,200.86-209.57,1.97-1.05,4.03-1.97,6-3.15C818.64,51.34,927.82,10.82,972.71,2.11c10.3-2,18.06-2.27,22.53-1.52,6.74,1.15,10.78,4.4,13.11,7.49,1.39,1.83,3.15,4.85,3.59,9.59.34,3.56-.27,11.62-4.68,23.99-15.82,44.66-86.47,170.06-345.85,385.09v.03Zm-228.85,411.93c14.37,37.27,32.83,65.5,56.48,75.32,4,2.1,8.61,3.39,14.06,3.56,1.19.1,2.37.2,3.56.2,7.76.2,13.96-1.8,19.01-5.22,22.23-10.78,39.71-38.02,53.5-73.53,30.02-19.48,53.27-45.98,72.68-76.41,4.44-6.95,8.64-14.84,14.47-22.26,13.21-16.77,26.8-11.05,32.6-25.45,7.73-19.21-5.66-27.01-5.79-43-.14-14.5.81-28.53,8.78-55.98,13.96-48.15,14.67-60.79,13.89-78.81-2.51-59.67-70.82-52.18-70.14-92.5.17-9.22-.27-17.48-1.22-24.9.17-.14.3-.24.47-.37C970.07,151.1,1000.13,24.07,995.42,17.86c-8.27-10.84-151.39,36.93-245.25,94.03-2.24,1.36-4.54,2.41-6.74,3.59-89.18,47.67-191.41,198.66-201.27,213.43-4.57-1.19-9.35-2.13-14.33-2.88-7.15-1.12-14.74-1.69-22.53-1.69-12.67,0-24.7,1.56-35.44,4.37-9.86-14.74-112.09-165.73-201.27-213.43-2.2-1.19-4.54-2.24-6.74-3.59C167.94,54.59,24.81,6.78,16.58,17.66c-4.71,6.2,25.35,133.27,350.49,401.49.17.14.3.27.47.37-.95,7.42-1.36,15.72-1.22,24.9.68,40.32-67.63,32.83-70.14,92.5-.75,18.03-.03,30.66,13.93,78.81,7.96,27.45,8.91,41.47,8.78,55.98-.17,16.03-13.55,23.82-5.79,43,5.79,14.43,19.38,8.67,32.6,25.45,5.83,7.42,10.03,15.32,14.47,22.26,19.35,30.36,42.56,56.76,72.44,76.24l-.03.03Zm-64.31-291.67c7.93-5.73,53.64,15.15,78.64,54.99,25.01,39.85,30.94,75.39,18.53,96.37-1.97,3.32-61.4-17.04-86.4-56.89s-17.96-89.28-10.78-94.47Zm271.51,0c7.18,5.18,14.23,54.62-10.78,94.47s-84.47,60.21-86.4,56.89c-12.4-20.97-6.47-56.52,18.53-96.37s70.75-60.69,78.64-54.99Z"/>
  </g>
</svg>