<svg xmlns="http://www.w3.org/2000/svg" width="600" height="607.474"><path d="M263.688 590.637a15 15 0 0 1-2.37.182c.653-.06 1.9-.06 2.37-.182m-173.1-93.43c0-2.14.35-4.403 1.368-6.833-.897 2.202-1.124 4.51-1.367 6.88v-.05M343.966 272.06c1.776-.532 12.741-4.8 25.498-14.655 2.49 1.959 4.92 3.918 7.594 5.467 3.386 1.96 7.472 2.84 11.633 2.84 5.573 20.41 16.781 43.723 38.088 63.42 2.719 2.552 3.903 6.758 3.903 11.983 0 20-17.13 55.887-33.623 78.85-.896 1.063-33.64 41.17-112.003 41.17-55.948 0-112.185-26.044-136.514-82.585 6.834 5.103 14.533 9.902 23.433 14.412a25.08 25.08 0 0 0 24.45-.88c7.063-4.33 11.27-11.922 11.74-20.123 6.88 0 13.41-4.39 18.513-9.37 2.733-2.612 4.45-6.348 5.634-10.373 19.637 17.313 44.133 22.947 63.952 12.985 6.105-3.022 10.737-8.474 12.757-15.005.774-2.43 1.123-4.92 1.123-7.41 0-4.284-1.063-8.49-3.143-12.226-2.49-4.632-6.06-13.06-8.186-21.778 2.43-.532 4.8-.35 7.29-1.412 3.508-1.55 6.59-3.797 9.082-6.652.591-.654 10.327-12.226 20.35-27.944 2.84.182 5.634.12 8.429-.714M27.639 294.369l-2.43 2.43c.592-.654 1.246-1.245 2.43-2.43m355.584-59.623c0-1.9 1.017-3.615 1.428-5.452-.349 2.49-.652 5.102-.652 8.124-.122-.896-.774-1.716-.774-2.672M340.337.428c-19.636 3.615-56.707 23.25-71.059 73.55-5.589 19.515-16.326 24.86-34.763 32.636-11.101 4.678-28.596 13.41-39.637 22.25-8.186 6.514-3.554 13.227-5.984 19.924-.364-1.594-.364-3.326-1.079-4.8-4.738-9.916-15.247-15.672-26.09-14.123-2.856.41-70.012 10.859-131.29 98.183-1.777 2.309-12.94 18.27-12.94 39.5 0 12.166.304 21.126 5.756 31.21-5.452 5.467-16.493 16.493-16.493 16.493a24.2 24.2 0 0 0-3.083 3.797C1.306 322.555 0 329.906 0 340.172c0 34.459 15.43 101.022 60.869 156.424.836 1.079 1.837 2.08 2.84 3.037 2.445 2.066 13.653 10.798 29.371 14.23 3.493 10.327 11.147 27.352 27.822 39.805 19.515 14.655 58.378 17.86 75.691 18.695 3.57 4.389 7.244 7.41 9.021 8.596 13.532 9.02 33.047 10.448 46.335 10.205 9.31 7.776 24.147 16.31 47.049 16.31 22.598 0 36.95-7.942 46.031-15.307h15.248c10.023 0 19.15-5.984 23.069-15.233-2.187 5.149-4.8 6.515-4.921 6.515 0 0 2.248-1.063 8.307-1.063 9.082 0 17.495-5.042 21.945-12.94 2.141-3.735 6.591-8.96 9.203-10.144 3.964-1.534 18.498-2.551 30.374-1.96 5.33.183 10.676-1.244 15.126-4.206 2.78-1.898 25.62-18.39 43.191-45.56 23.19-11.026 72.426-39.152 72.426-79.852 0-3.736-.591-7.411-1.184-11.026 3.857-4.283 6.47-9.613 6.758-15.718.53-11.284 1.777-42.356 1.777-62.95 0-5.512-.11-9.901-.35-13.35l1.898-3.264c4.268-7.062 10.798-17.8 11.983-33.988.121-1.55.121-3.022.121-4.51 0-20.108-9.674-34.763-15.597-43.784 0 0-3.037-4.92-3.144-5.103v-.29c0-1.184-.546-5.694-.546-5.694-.82-9.37-2.126-23.494-10.494-35.127.836-1.534 2.308-2.552 2.84-4.328 1.078-3.266 1.488-6.516 1.488-9.78 0-12.165-6.044-23.434-11.147-30.025-.304-.88-2.552-7.821-2.552-7.821l-7.715-20.123c-7.532-12.635-38.27-32.5-66.503-39.334-5.938-1.412-11.572-1.837-17.206-2.126 1.549-4.328 2.855-8.49 5.877-13.713 2.248-3.903 3.447-8.292 3.447-12.681 0-4.344-1.138-8.611-3.325-12.53a25.27 25.27 0 0 0-21.84-12.574c-5.163 0-49.584.774-80.383 20.472-2.369-3.57-4.556-9.264-4.556-13.471 0-.836.049-1.595.29-2.248.774-2.43 1.123-4.981 1.123-7.487 0-6.105-2.187-12.028-6.287-16.66A25.11 25.11 0 0 0 340.336.427" style="fill:#fff"/><path d="M317.92 170.63c6.637-13.288 16.493-22.31 17.435-43.07 0 0-73.383 3.023-69.769 65.85 0 0 36.783 8.308 52.334-22.78m56.647 387.857s-2.9 4.206-5.391 5.922c-4.283 2.795-8.9 2.612-8.9 2.612h-25.104s-9.72 15.37-36.175 15.37c-26.47 0-37.617-16.736-37.617-16.736s-29.25 2.794-41.825-5.574c-4.207-2.78-7.943-10.858-7.943-10.858s1.656-5.392 2.005-6.227c1.367-3.554 1.55-7.123 2.263-10.92.47-2.368.35-4.677 1.367-6.88.88-1.897 3.326-4.388 5.103-5.861 1.594-1.245 4.085-3.387 5.862-4.571 4.04-2.612 8.14-4.1 11.876-7.123 3.903-3.144 11.33-10.388 11.33-10.388l-2.324-3.083s-5.741 3.858-6.576 4.45c-3.858 2.977-7.244 5.817-11.694 7.897-4.39 2.08-13.76 7.35-13.76 7.35s-1.837-2.08-2.96-3.796c-1.96-2.9-4.39-5.164-6.06-8.307-.881-1.777-5.696-7.108-5.696-7.108l-1.837 2.309s5.103 10.737 5.406 12.878c.35 2.187 2.78 6.94 2.37 9.006-1.656 8.246-3.205 13.41-4.04 21.778-.35 3.797-1.413 6.88-1.413 6.88s-50.131-1.367-66.867-13.881c-16.66-12.575-20.882-33.457-20.882-33.457s4.222-9.735-9.72-9.735-25.103-9.72-25.103-9.72c-57.118-69.707-55.706-147.721-55.706-147.721l20.882-20.882s8.368-13.942 2.795-20.882c-5.574-7.001-5.574-9.735-5.574-23.676 0-13.942 8.353-25.09 8.353-25.09 55.705-79.365 114.205-87.733 114.205-87.733s-54.278 48.704-54.278 158.748 80.794 172.75 174.117 172.75c93.308 0 132.338-51.5 132.338-51.5s64.073-89.161 26.47-123.984c-37.617-34.823-34.823-78.015-34.823-78.015-5.589 0-19.515 8.368-19.515 8.368-9.735-5.634-19.53-19.515-19.53-19.515-15.293 20.882-33.396 26.456-33.396 26.456l-11.147-8.353c-11.163 23.66-29.25 44.543-29.25 44.543-9.796 4.207-22.31-2.734-22.31-2.734-8.367 26.47 11.163 61.294 11.163 61.294-11.162 5.513-26.47 1.413-39.045-11.162-12.514-12.575-22.25-19.515-32.03-9.72-9.734 9.72-4.16 25.028-4.16 25.028-8.353-1.367-20.867-8.307-20.867-8.307-5.589 11.102-5.589 32.029-5.589 32.029-79.427-40.397-23.722-86.428-23.722-86.428 1.428-34.824 4.207-54.278 27.883-66.852 23.661-12.514 32.03-22.25 27.883-33.396-4.222-11.163-9.325-27.185.942-38.028 16.31-17.328 63.116-16.326 77.058-65.09 13.941-48.75 51.559-55.706 51.559-55.706-7.001 22.31 13.88 64.073 38.97 45.986 25.102-18.15 69.645-18.15 69.645-18.15-19.453 33.458-12.513 57.12-12.513 57.12 33.396-20.882 86.383 16.736 90.529 23.676 4.206 7 7 25.089 11.147 29.31 4.16 4.147 11.162 19.455 2.794 20.883-8.368 1.412-12.514 11.147 0 19.454 12.575 8.414 8.368 30.662 12.575 40.397 4.161 9.78 18.102 22.31 16.675 41.824-1.367 19.515-15.308 26.456-13.942 39.03 1.428 12.514-1.366 75.22-1.366 75.22-9.796-20.881-41.825-37.662-41.825-37.662s36.251 33.456 36.251 65.485c0 32.105-64.073 59.927-64.073 59.927-15.37 27.883-40.397 44.604-40.397 44.604s-29.25-1.428-41.825 4.16c-11.147 4.982-19.044 17.679-20.593 20.397 0 0-7.411-11.922-3.144-36.6 0 0-15.779 18.148-9.31 38.27"/></svg>