<svg xmlns="http://www.w3.org/2000/svg" width="600" height="607.472"><radialGradient id="a" cx="0" cy="0" r="1" fx="0" fy="0" gradientTransform="translate(299.742 305.621)scale(268.35837)" gradientUnits="userSpaceOnUse" spreadMethod="pad"><stop offset="0" style="stop-color:#d9eaf3"/><stop offset=".663" style="stop-color:#99aebc"/><stop offset="1" style="stop-color:#536e78"/></radialGradient><path d="M263.69 590.63a15 15 0 0 1-2.37.183c.653-.06 1.898-.06 2.37-.182m-173.1-93.43c0-2.14.35-4.405 1.367-6.835-.897 2.202-1.124 4.51-1.367 6.88v-.049m253.377-225.144c1.716-.532 12.741-4.8 25.498-14.655 2.43 1.96 4.875 3.918 7.594 5.467 3.386 1.96 7.472 2.84 11.633 2.84 5.573 20.41 16.72 43.723 38.088 63.42 2.719 2.551 3.903 6.758 3.903 11.982 0 20.001-17.13 55.888-33.623 78.85-.896 1.063-33.639 41.172-112.003 41.172-55.948 0-112.185-26.046-136.514-82.586 6.834 5.103 14.534 9.902 23.433 14.412a25.08 25.08 0 0 0 24.45-.88c7.063-4.329 11.27-11.922 11.74-20.123 6.88 0 13.41-4.39 18.513-9.37 2.734-2.613 4.45-6.349 5.634-10.373 19.637 17.313 44.133 22.947 63.952 12.985 6.105-3.023 10.737-8.475 12.696-15.005.774-2.43 1.185-4.92 1.185-7.41 0-4.284-1.063-8.49-3.144-12.226-2.49-4.632-6.06-13.06-8.186-21.778 2.43-.533 4.8-.35 7.23-1.413 3.568-1.549 6.651-3.796 9.142-6.652.591-.653 10.266-12.225 20.35-27.943 2.78.182 5.634.121 8.429-.715M27.64 294.363l-2.43 2.43c.591-.654 1.245-1.246 2.43-2.43m355.538-59.624c0-1.898 1.063-3.614 1.473-5.452-.348 2.49-.652 5.103-.652 8.125-.122-.896-.82-1.716-.82-2.673M340.337.426c-19.636 3.614-56.707 23.25-71.12 73.55-5.589 19.514-16.265 24.86-34.702 32.636-11.101 4.677-28.596 13.41-39.637 22.25-8.186 6.514-3.554 13.226-5.984 19.924-.364-1.595-.364-3.326-1.079-4.8-4.738-9.916-15.247-15.672-26.09-14.123-2.856.41-70.012 10.858-131.29 98.183-1.777 2.308-12.94 18.27-12.94 39.5 0 12.165.304 21.125 5.756 31.21-5.452 5.467-16.493 16.492-16.493 16.492a24.2 24.2 0 0 0-3.083 3.797C1.306 322.553 0 329.905 0 340.17c0 34.46 15.43 101.022 60.869 156.424.836 1.08 1.837 2.08 2.84 3.037 2.445 2.066 13.653 10.798 29.371 14.23 3.493 10.327 11.147 27.352 27.822 39.805 19.515 14.655 58.378 17.86 75.691 18.695 3.57 4.39 7.244 7.411 9.021 8.596 13.532 9.02 33.047 10.448 46.335 10.205 9.31 7.776 24.147 16.31 46.988 16.31 22.659 0 37.01-7.942 46.092-15.307h15.187a25.13 25.13 0 0 0 23.13-15.233c-2.248 5.15-4.8 6.515-4.921 6.515 0 0 2.248-1.063 8.307-1.063 9.021 0 17.495-5.042 21.945-12.939 2.141-3.736 6.591-8.96 9.143-10.145 3.979-1.534 18.558-2.55 30.373-1.959 5.392.182 10.737-1.245 15.187-4.207 2.78-1.898 25.62-18.39 43.13-45.56 23.252-11.026 72.487-39.152 72.487-79.852 0-3.736-.591-7.41-1.184-11.026 3.857-4.283 6.47-9.613 6.697-15.718.547-11.284 1.838-42.356 1.838-62.95 0-5.512-.168-9.9-.35-13.349.652-1.124 1.898-3.265 1.898-3.265 4.268-7.062 10.798-17.799 11.983-33.988.121-1.549.121-3.022.121-4.51 0-20.108-9.674-34.763-15.597-43.784 0 0-3.098-4.92-3.204-5.103 0 0 .06-.11.06-.289 0-1.185-.546-5.695-.546-5.695-.881-9.37-2.187-23.494-10.494-35.127.835-1.534 2.247-2.552 2.84-4.328 1.078-3.266 1.488-6.516 1.488-9.78 0-12.165-6.105-23.434-11.208-30.025-.243-.88-2.49-7.82-2.49-7.82l-7.716-20.124c-7.532-12.635-38.316-32.5-66.503-39.334-5.983-1.412-11.633-1.837-17.206-2.126 1.549-4.328 2.794-8.49 5.877-13.713a25.43 25.43 0 0 0 3.387-12.68c0-4.345-1.139-8.612-3.265-12.53a25.27 25.27 0 0 0-21.84-12.575c-5.163 0-49.584.774-80.383 20.472-2.369-3.57-4.556-9.264-4.556-13.47 0-.837.049-1.596.29-2.249.774-2.43 1.123-4.98 1.123-7.487 0-6.105-2.248-12.028-6.287-16.66-5.923-6.652-14.762-9.674-23.434-8.064" style="fill:#fff"/><path d="M317.921 170.624c6.637-13.288 16.493-22.31 17.374-43.07 0 0-73.322 3.023-69.707 65.85 0 0 36.782 8.308 52.333-22.78m56.647 387.856s-2.961 4.207-5.391 5.923c-4.283 2.794-8.96 2.612-8.96 2.612h-25.043s-9.78 15.37-36.175 15.37c-26.471 0-37.679-16.737-37.679-16.737s-29.189 2.795-41.764-5.573c-4.206-2.78-7.942-10.859-7.942-10.859s1.655-5.39 2.004-6.226c1.367-3.554 1.55-7.123 2.263-10.92.47-2.369.35-4.677 1.367-6.88.88-1.898 3.326-4.388 5.103-5.86 1.594-1.247 4.085-3.388 5.862-4.573 4.04-2.612 8.14-4.1 11.876-7.122 3.903-3.144 11.33-10.388 11.33-10.388l-2.324-3.083s-5.74 3.858-6.576 4.45c-3.858 2.976-7.244 5.816-11.694 7.897-4.389 2.08-13.76 7.35-13.76 7.35s-1.837-2.08-2.96-3.796c-1.96-2.9-4.39-5.164-6.06-8.307-.881-1.777-5.695-7.108-5.695-7.108l-1.838 2.308s5.103 10.738 5.407 12.88c.35 2.186 2.779 6.94 2.369 9.005-1.656 8.246-3.205 13.41-4.04 21.778-.35 3.796-1.412 6.88-1.412 6.88s-50.132-1.368-66.868-13.882c-16.66-12.574-20.882-33.456-20.882-33.456s4.222-9.735-9.72-9.735c-13.94 0-25.103-9.72-25.103-9.72-57.118-69.707-55.705-147.722-55.705-147.722l20.882-20.88s8.367-13.943 2.794-20.883c-5.574-7-5.574-9.735-5.574-23.677s8.353-25.088 8.353-25.088c55.705-79.366 114.205-87.734 114.205-87.734S110.94 203.428 110.94 313.47s80.794 172.75 174.117 172.75c93.308 0 132.338-51.498 132.338-51.498s64.073-89.162 26.41-123.985c-37.618-34.824-34.824-78.015-34.824-78.015-5.528 0-19.454 8.368-19.454 8.368-9.795-5.634-19.53-19.515-19.53-19.515-15.293 20.882-33.396 26.455-33.396 26.455l-11.208-8.352c-11.101 23.66-29.25 44.543-29.25 44.543-9.734 4.206-22.248-2.734-22.248-2.734-8.368 26.47 11.162 61.294 11.162 61.294-11.162 5.513-26.47 1.412-39.045-11.162-12.514-12.575-22.249-19.515-32.03-9.72-9.734 9.72-4.16 25.028-4.16 25.028-8.353-1.367-20.867-8.307-20.867-8.307-5.589 11.101-5.589 32.03-5.589 32.03-79.427-40.398-23.722-86.429-23.722-86.429 1.428-34.824 4.207-54.278 27.883-66.853 23.661-12.514 32.03-22.248 27.883-33.396-4.222-11.162-9.324-27.184.942-38.027 16.31-17.328 63.116-16.326 77.058-65.09 13.941-48.75 51.498-55.706 51.498-55.706-6.94 22.31 13.942 64.073 39.03 45.985 25.043-18.148 69.647-18.148 69.647-18.148-19.515 33.457-12.514 57.118-12.514 57.118 33.396-20.882 86.383 16.736 90.529 23.676 4.207 7.001 6.94 25.09 11.147 29.31 4.161 4.147 11.101 19.455 2.794 20.882-8.368 1.413-12.574 11.148 0 19.455 12.514 8.413 8.307 30.662 12.514 40.397 4.222 9.78 18.164 22.31 16.736 41.824-1.427 19.515-15.369 26.456-13.941 39.03 1.427 12.514-1.428 75.22-1.428 75.22-9.735-20.88-41.764-37.663-41.764-37.663s36.19 33.457 36.19 65.486c0 32.105-64.073 59.927-64.073 59.927-15.308 27.883-40.397 44.604-40.397 44.604s-29.25-1.428-41.763 4.16c-11.147 4.982-19.045 17.678-20.594 20.397 0 0-7.41-11.922-3.143-36.6 0 0-15.78 18.148-9.31 38.27" style="fill:#536e78"/><path d="M300.653 82.937c-10.327 36.19-37.618 47.884-57.543 56.358-9.142 3.919-16.964 7.305-21.246 11.8-6.758 7.184-3.676 18.756.653 30.207 7.183 19.211-11.861 32.394-31.437 42.766-19.819 10.51-22.476 26.456-23.783 60.52l-.182 3.31-2.551 2.202c-.243.183-18.21 15.415-16.129 33.989 1.352 12.043 10.783 23.433 28.05 33.988.775-7.29 2.37-16.311 5.696-22.887l3.508-7.062 6.94 3.797a91 91 0 0 0 8.064 3.964c.182-6.166 1.96-13.395 7.882-19.394q6.85-6.788 15.141-6.819c9.31 0 17.496 6.348 27.701 16.615 7.123 7.046 15.354 11.208 22.72 11.268-5.635-12.878-14.124-37.496-7.472-58.378l2.718-8.778 8.186 4.45c1.61.88 6.834 3.144 11.572 3.144q1.413-.016 2.552-.304c4.267-5.103 17.98-22.416 26.88-41.278l3.964-8.368 7.487 5.513 7.7 5.817c5.406-2.552 16.432-9.021 26.167-22.31l6.226-8.535 6.12 8.657c2.066 2.9 7.822 10.327 13.638 14.943 5.635-3.143 13.881-7 19.166-7h8.064l-.531 8.079c0 .349-1.899 40.154 32.393 71.955 42.053 38.908-22.674 130.09-25.514 134.13-1.655 2.202-42.416 54.581-138.397 54.581q-14.443 0-28.004-1.777l.47.593 3.98 5.33-4.815 4.632s-7.7 7.593-11.86 10.92a50 50 0 0 1-8.126 5.102c-1.427.76-2.9 1.534-4.389 2.552-1.184.698-2.733 2.004-3.979 3.022l-1.184.941a15.2 15.2 0 0 0-3.022 3.205 7.6 7.6 0 0 0-.365 2.263c-.106.88-.167 1.837-.41 2.779l-.47 3.022c-.472 2.794-.958 5.938-2.203 9.385l-.88 2.613c1.366 2.369 3.021 4.616 3.963 5.33 4.51 2.961 14.184 4.754 26.47 4.754 5.923 0 10.252-.486 10.373-.486l4.51-.35 2.491 3.675c.426.532 9.674 13.41 31.391 13.41 21.475 0 29.539-11.39 29.827-11.86l2.324-3.448h29.25s2.49-.06 4.495-1.427a7.6 7.6 0 0 0 1.367-1.307c-4.678-22.127 11.223-40.685 11.922-41.46l17.86-20.471-4.618 26.759a71.4 71.4 0 0 0-1.078 18.27c3.858-3.98 8.611-7.943 14.185-10.373 9.248-4.161 25.088-4.996 36.721-4.996 2.309 0 4.39.06 5.817.06 5.923-4.389 24.253-19.044 36.114-40.579l1.26-2.248 2.37-1.063c15.414-6.712 59.502-30.86 59.502-52.926 0-28.293-33.457-59.562-33.76-59.85l-41.643-38.56 50.238 26.212c1.078.547 17.981 9.492 31.574 22.902.713-20.517 1.351-45.97.531-52.972-.896-8.595 2.9-14.898 6.637-21.003 3.265-5.452 6.773-11.026 7.305-19.333.82-11.39-4.921-20.168-10.084-27.944a70 70 0 0 1-6-10.327c-1.958-4.51-2.43-9.962-2.96-15.9-.836-8.307-1.61-17.738-6.82-21.17-12.164-8.065-11.693-17.207-10.98-20.715 1.185-5.695 5.574-10.13 11.269-11.983-.653-2.718-2.673-7.107-4.207-8.717-3.508-3.432-5.285-9.127-7.958-18.148-1.351-4.754-2.961-10.084-4.267-12.347-3.326-4.45-33.517-26.395-60.747-26.395-7.412 0-13.942 1.716-19.333 5.042l-8.49 5.346-2.84-9.613c-.303-1.018-5.998-21.414 7.002-50.967-14.306 1.367-37.436 5.224-52.395 15.961-5.391 3.918-11.026 5.938-16.781 5.938-9.082 0-17.739-5.042-24.451-14.245a60 60 0 0 1-11.147-32.5c-10.798 5.513-27.23 18.21-35.355 46.502m-36.783 117.82-5.573-1.246-.365-5.695c-1.002-18.983 4.162-34.945 15.49-47.398 22.25-24.557 59.974-26.395 61.583-26.455l8.308-.365-.426 8.307c-.774 17.207-7.122 27.595-12.757 36.661a122 122 0 0 0-5.39 9.431c-12.166 24.39-35.417 28.005-48.234 28.005-7.123 0-12.043-1.124-12.636-1.246M57.072 246.97c-.061.121-6.82 9.492-6.82 20.578 0 13.835.061 14.124 3.904 18.938 8.428 10.555-.35 26.455-2.187 29.538l-.471.775-.653.653-18.634 18.619c.47 14.594 5.406 80.627 53.032 138.883.06.122 9.264 7.882 20.123 7.882 7.472 0 12.741 2.324 15.779 6.82a14.73 14.73 0 0 1 1.837 10.69c1.306 4.678 5.984 18.498 17.556 27.17 10.494 7.882 39.987 11.208 56.176 12.15.653-6.288 1.716-11.026 2.795-16.008l1.306-4.935c-.122-.82-.593-1.838-.957-2.78-.592-1.776-1.185-3.447-1.367-4.57-.35-1.368-2.779-6.82-4.86-11.148l-2.02-4.282 2.977-3.676 1.838-2.369 5.513-7.062 6.044 6.713c3.69 4.024 5.999 7.001 6.834 8.717.592 1.185 1.595 2.37 2.658 3.736.546.714 1.078 1.306 1.61 2.02 2.9-1.55 6.348-3.387 8.474-4.39 2.976-1.366 5.528-3.264 8.428-5.573l1.717-1.26c.485-.41 2.612-1.944 4.51-3.19-83.588-17.145-138.868-84.727-138.868-176.075 0-71.91 22.355-118.29 39.03-142.969-21.231 10.023-53.746 31.437-85.304 76.405" style="fill:url(#a);stroke-width:15.1868"/></svg>