<svg xmlns="http://www.w3.org/2000/svg" width="550.339" height="557.235"><path d="M293.367 145.474c6.636-13.288 16.493-22.309 17.434-43.07 0 0-73.382 3.023-69.768 65.85 0 0 36.783 8.308 52.334-22.78m56.647 387.856s-2.9 4.207-5.392 5.923c-4.282 2.795-8.9 2.612-8.9 2.612H310.62s-9.72 15.37-36.175 15.37c-26.47 0-37.618-16.736-37.618-16.736s-29.25 2.794-41.824-5.574c-4.207-2.78-7.943-10.858-7.943-10.858s1.655-5.392 2.005-6.227c1.367-3.554 1.55-7.123 2.263-10.92.47-2.369.35-4.677 1.366-6.879.881-1.898 3.326-4.389 5.103-5.862 1.595-1.245 4.085-3.387 5.862-4.571 4.04-2.612 8.14-4.1 11.876-7.123 3.903-3.144 11.33-10.388 11.33-10.388l-2.324-3.083s-5.74 3.858-6.576 4.45c-3.857 2.977-7.244 5.817-11.694 7.897-4.389 2.08-13.759 7.35-13.759 7.35s-1.837-2.08-2.96-3.796c-1.96-2.9-4.39-5.164-6.06-8.307-.88-1.777-5.696-7.108-5.696-7.108l-1.837 2.309s5.102 10.737 5.406 12.878c.35 2.187 2.78 6.94 2.37 9.006-1.656 8.246-3.205 13.41-4.04 21.778-.35 3.797-1.413 6.88-1.413 6.88s-50.132-1.367-66.867-13.881c-16.66-12.575-20.882-33.457-20.882-33.457s4.222-9.735-9.72-9.735-25.104-9.72-25.104-9.72C-1.409 385.852.003 307.838.003 307.838l20.882-20.882s8.368-13.942 2.794-20.882c-5.573-7.001-5.573-9.735-5.573-23.676 0-13.942 8.353-25.089 8.353-25.089 55.705-79.366 114.204-87.734 114.204-87.734s-54.277 48.704-54.277 158.748 80.794 172.75 174.117 172.75c93.307 0 132.337-51.499 132.337-51.499s64.074-89.162 26.471-123.985c-37.618-34.823-34.823-78.015-34.823-78.015-5.59 0-19.515 8.368-19.515 8.368-9.735-5.634-19.53-19.515-19.53-19.515-15.294 20.882-33.396 26.456-33.396 26.456L300.9 214.53c-11.162 23.661-29.25 44.543-29.25 44.543-9.795 4.207-22.309-2.734-22.309-2.734-8.368 26.47 11.163 61.294 11.163 61.294-11.163 5.513-26.47 1.413-39.046-11.162-12.514-12.575-22.248-19.515-32.029-9.72-9.734 9.72-4.16 25.028-4.16 25.028-8.354-1.367-20.868-8.307-20.868-8.307-5.588 11.102-5.588 32.029-5.588 32.029-79.427-40.397-23.722-86.428-23.722-86.428 1.427-34.824 4.207-54.278 27.883-66.853 23.66-12.513 32.03-22.248 27.883-33.395-4.222-11.163-9.325-27.185.941-38.028 16.311-17.328 63.117-16.326 77.058-65.09C282.797 6.955 320.415 0 320.415 0c-7.002 22.31 13.88 64.073 38.97 45.986 25.103-18.149 69.646-18.149 69.646-18.149-19.455 33.457-12.514 57.118-12.514 57.118 33.395-20.882 86.382 16.736 90.528 23.676 4.207 7.001 7.001 25.089 11.147 29.31 4.162 4.147 11.163 19.455 2.795 20.883-8.368 1.412-12.514 11.147 0 19.454 12.574 8.413 8.368 30.662 12.574 40.397 4.162 9.78 18.103 22.31 16.676 41.824-1.367 19.515-15.309 26.456-13.942 39.03 1.428 12.514-1.367 75.22-1.367 75.22-9.795-20.881-41.824-37.663-41.824-37.663s36.25 33.457 36.25 65.486c0 32.105-64.072 59.927-64.072 59.927-15.37 27.883-40.397 44.604-40.397 44.604s-29.25-1.428-41.825 4.161c-11.147 4.981-19.044 17.677-20.593 20.396 0 0-7.41-11.922-3.144-36.6 0 0-15.779 18.148-9.31 38.27"/></svg>