<svg xmlns="http://www.w3.org/2000/svg" xmlns:xlink="http://www.w3.org/1999/xlink" width="600" height="608"><linearGradient id="a" x1="0" x2="1" y1="0" y2="0" gradientTransform="matrix(284.40039 0 0 -284.40039 7.8 153.455)" gradientUnits="userSpaceOnUse" spreadMethod="pad"><stop offset="0" style="stop-color:#8b723c"/><stop offset=".3" style="stop-color:#d2bb7b"/><stop offset=".5" style="stop-color:#ebd491"/><stop offset=".7" style="stop-color:#d2bb7b"/><stop offset="1" style="stop-color:#8b723c"/></linearGradient><linearGradient xlink:href="#a" id="b" x1="0" x2="1" y1="0" y2="0" gradientTransform="matrix(284.40039 0 0 -284.40039 7.8 153.455)" gradientUnits="userSpaceOnUse" spreadMethod="pad"/><path d="m214.473 296.201-44.674-44.67v-70.152l27.236 27.231c3.791-7.377 5.765-15.536 5.765-24 0-29.114-23.686-52.798-52.8-52.798-29.115 0-52.8 23.684-52.8 52.798 0 8.458 1.976 16.613 5.773 23.994l27.227-27.225v70.152l-44.672 44.67H7.799v-79.425l32.632 32.628h21.738l2.125-2.125a106.23 106.23 0 0 1-20.495-62.672c0-47.777 32.439-89.854 78.001-102.389V37.249L150 10.71l28.2 26.539v44.969c45.562 12.535 78 54.612 78 102.389 0 22.574-7.229 44.568-20.481 62.685l2.112 2.112h21.738l32.631-32.628v79.425z" style="fill:url(#b)" transform="matrix(2 0 0 -2 0 608)"/><path d="M600 0H422.484l-9.138 9.136-80.208 80.202L324 98.476v184.422l53.262-53.252 10.582-10.58c1.43 6.404 2.156 13 2.156 19.716 0 49.624-40.374 89.994-90 89.994s-90-40.37-90-89.994c0-6.71.73-13.306 2.164-19.712l10.574 10.574L276 282.902V98.476l-9.138-9.138-80.206-80.202L177.518 0H0v212.108l53.262-53.258 34.062-34.058h15.266C82.69 159.242 72 198.59 72 238.786c0 52.596 18.35 103.922 51.668 144.514 27.374 33.352 63.78 58.282 104.332 71.814v85.128l9.816 9.238 40.802 38.396L300 608l21.382-20.124 40.802-38.396 9.816-9.238v-85.128c40.55-13.532 76.958-38.462 104.332-71.814C509.65 342.708 528 291.382 528 238.786c0-40.2-10.678-79.546-30.56-113.994h15.236l34.062 34.058L600 212.108V31.2Zm-31.202 31.2v105.59L525.6 93.594h-56.4l-18.57 18.568c28.806 34.222 46.17 78.388 46.17 126.624 0 94.688-66.896 173.734-156 192.52v95.456L300 565.158l-40.8-38.396v-95.456c-89.106-18.786-156-97.832-156-192.52 0-48.236 17.384-92.384 46.198-126.598L130.8 93.594H74.4L31.2 136.79V31.2h133.394l80.206 80.198v96.186l-41.616-41.612c-15.286 20.27-24.384 45.464-24.384 72.81 0 66.932 54.262 121.19 121.2 121.19s121.2-54.258 121.2-121.19c0-27.346-9.082-52.556-24.366-72.826L355.2 207.584v-96.186L435.408 31.2z"/></svg>