<svg xmlns="http://www.w3.org/2000/svg" width="537.6" height="533.955"><path d="M0 0v105.592l43.2-43.197h56.398l18.597 18.593c-28.812 34.21-46.197 78.36-46.197 126.596 0 94.684 66.894 173.731 156 192.521v95.454l40.8 38.396L309.6 495.56v-95.454c89.104-18.79 156-97.837 156-192.521 0-48.232-17.364-92.403-46.17-126.623L438 62.395h56.398l43.202 43.197V0H404.207l-80.209 80.2v96.18l41.635-41.63c15.284 20.274 24.365 45.484 24.365 72.834 0 66.93-54.263 121.187-121.2 121.187S147.6 274.514 147.6 207.584c0-27.35 9.098-52.54 24.38-72.814l41.62 41.61V80.2L133.393 0Z"/></svg>