<?xml version="1.0" encoding="UTF-8" standalone="no"?>
<!-- Generator: Adobe Illustrator 15.1.0, SVG Export Plug-In . SVG Version: 6.00 Build 0)  -->

<svg
   version="1.1"
   id="svg8"
   x="0px"
   y="0px"
   width="237.09436"
   height="175.00064"
   viewBox="17.138 -0.294 237.09436 175.00064"
   enable-background="new 17.138 -0.294 250 180"
   xml:space="preserve"
   xmlns="http://www.w3.org/2000/svg"
   xmlns:svg="http://www.w3.org/2000/svg"><defs
   id="defs2" />

<g
   id="g2"
   transform="translate(-7.9033221,-3.6166476)">
	<path
   fill="#808080"
   d="m 82.46,175.309 c -2.727,-0.112 -4.873,-2.358 -4.868,-5.079 -0.021,0 -0.043,-0.002 -0.065,-0.002 -31.438,-1.285 -53.496,-20.781 -52.45,-46.353 1.396,-34.139 40.732,-71.285 97.881,-92.438 0.638,-0.235 1.308,-0.338 1.969,-0.311 L 125.865,8.19 c 0.115,-2.8 2.478,-4.978 5.28,-4.863 l 73.572,3.009 c 2.726,0.111 4.872,2.359 4.867,5.078 0.021,10e-4 0.044,0.002 0.064,0.003 31.438,1.286 53.498,20.78 52.452,46.353 -1.397,34.139 -40.733,71.285 -97.884,92.436 -0.636,0.237 -1.308,0.34 -1.969,0.311 l -0.939,22.937 c -0.113,2.803 -2.475,4.979 -5.274,4.865 z m 82.207,-80.133 c 12.847,0.408 23.866,-13.669 24.593,-31.48 0.698,-17.033 -8.738,-31.694 -20.963,-33.306 -13.761,-1.814 -25.195,14.649 -25.883,31.389 l 18.354,0.751 c 2.803,0.114 4.979,2.479 4.864,5.278 l -1.121,27.352 c 0.056,0.005 0.107,0.009 0.156,0.016 z M 122.509,86.47 c -12.85,-0.409 -23.867,13.666 -24.595,31.476 -0.697,17.036 8.741,31.696 20.964,33.31 13.762,1.813 25.199,-14.651 25.883,-31.39 l -18.354,-0.75 c -2.801,-0.116 -4.979,-2.479 -4.864,-5.28 l 1.119,-27.349 c -0.053,-0.007 -0.103,-0.011 -0.153,-0.017 z"
   id="path1" />
	<path
   d="m 128.775,61.222 2.16,-52.822 73.572,3.009 c -41.595,0.206 -56.932,23.075 -56.932,23.075 l 0.014,-0.004 c -5.886,6.624 -9.855,17.573 -10.245,27.094 z m 71.969,55.854 3.449,-84.354 c 3.792,-1.425 8.007,-2.14 12.426,-1.958 15.654,0.64 27.893,12.275 27.332,25.987 -0.334,8.206 -5.166,15.317 -12.37,19.528 -0.748,0.438 -2.004,0.209 -2.334,-0.664 -0.36,-0.94 0.447,-2.318 1.24,-2.957 2.188,-1.762 8.038,-7.437 8.394,-16.115 0.436,-10.653 -9.637,-20.184 -22.47,-20.708 -2.534,-0.104 -4.982,0.141 -7.291,0.685 l -3.305,80.767 c -0.115,2.798 -2.479,4.977 -5.277,4.863 l -37.066,-1.518 -1.014,24.816 c 53.288,-19.723 93.207,-54.604 94.57,-87.883 0.88,-21.536 -17.766,-39.855 -47.585,-41.075 -24.828,-1.015 -40.596,8.856 -40.596,8.856 14.983,1.628 26.304,18.53 25.486,38.559 -0.846,20.68 -14.317,36.979 -30.028,36.336 0,0 -3.416,-0.354 -5.045,-0.813 l 1.302,-31.826 -74.128,-3.033 -3.452,84.358 c -3.791,1.424 -8.007,2.137 -12.423,1.957 -15.656,-0.641 -27.893,-12.275 -27.333,-25.987 0.335,-8.203 5.167,-15.318 12.37,-19.529 0.748,-0.437 2.003,-0.209 2.335,0.664 0.358,0.94 -0.448,2.317 -1.241,2.958 -2.191,1.761 -8.039,7.438 -8.394,16.114 -0.436,10.652 9.634,20.182 22.469,20.705 2.532,0.105 4.984,-0.138 7.294,-0.684 l 3.303,-80.764 c 0.113,-2.802 2.477,-4.978 5.277,-4.864 l 37.065,1.516 1.015,-24.816 C 71.433,55.92 31.51,90.801 30.148,124.081 c -0.881,21.538 17.766,39.858 47.586,41.077 24.827,1.017 40.595,-8.857 40.595,-8.857 -14.987,-1.627 -26.306,-18.53 -25.487,-38.557 0.845,-20.681 14.315,-36.981 30.028,-36.338 0,0 3.413,0.355 5.044,0.814 l -1.303,31.826 z m -50.912,2.999 c -0.391,9.521 -4.359,20.47 -10.245,27.093 l 0.014,-0.005 c 0,0 -15.336,22.869 -56.932,23.074 l 73.573,3.012 2.16,-52.823 z"
   id="path2" />
</g>
</svg>
