<?xml version="1.0" encoding="UTF-8" standalone="no"?>
<!-- Generator: Adobe Illustrator 15.1.0, SVG Export Plug-In . SVG Version: 6.00 Build 0)  -->

<svg
   version="1.1"
   id="svg8"
   x="0px"
   y="0px"
   width="237.09436"
   height="175.00163"
   viewBox="17.138 -0.294 237.09436 175.00163"
   enable-background="new 17.138 -0.294 250 180"
   xml:space="preserve"
   xmlns="http://www.w3.org/2000/svg"
   xmlns:svg="http://www.w3.org/2000/svg"><defs
   id="defs5" />

<g
   id="g5"
   transform="translate(-7.4033221,-3.6166457)">
	<path
   d="m 81.96,175.309 c -2.728,-0.111 -4.873,-2.358 -4.868,-5.079 -0.021,0 -0.043,-0.002 -0.065,-0.002 -31.438,-1.285 -53.496,-20.781 -52.45,-46.353 1.396,-34.139 40.732,-71.285 97.881,-92.438 0.638,-0.236 1.308,-0.338 1.969,-0.311 L 125.365,8.19 c 0.115,-2.801 2.478,-4.978 5.28,-4.863 l 73.573,3.009 c 2.726,0.112 4.872,2.36 4.867,5.078 0.021,10e-4 0.043,0.002 0.063,0.003 31.438,1.286 53.498,20.78 52.452,46.354 -1.396,34.139 -40.732,71.285 -97.884,92.436 -0.636,0.237 -1.308,0.34 -1.969,0.311 l -0.938,22.937 c -0.114,2.803 -2.475,4.979 -5.275,4.865 z m 82.207,-80.133 c 12.847,0.407 23.866,-13.669 24.594,-31.48 0.697,-17.033 -8.739,-31.694 -20.964,-33.306 -13.761,-1.814 -25.195,14.649 -25.882,31.39 l 18.354,0.75 c 2.803,0.114 4.979,2.478 4.864,5.279 l -1.121,27.35 c 0.055,0.006 0.106,0.01 0.155,0.017 z M 122.009,86.47 c -12.85,-0.409 -23.867,13.666 -24.595,31.477 -0.697,17.035 8.741,31.696 20.963,33.31 13.762,1.813 25.2,-14.652 25.883,-31.392 l -18.354,-0.749 c -2.8,-0.116 -4.979,-2.479 -4.864,-5.28 l 1.119,-27.349 c -0.052,-0.007 -0.102,-0.011 -0.152,-0.017 z"
   id="path1" />
	<linearGradient
   id="SVGID_1_"
   gradientUnits="userSpaceOnUse"
   x1="59.2817"
   y1="51.744598"
   x2="226.8929"
   y2="129.903">
<stop
   style="stop-color:#bf331c"
   offset="0"
   id="stop1" />
<stop
   style="stop-color:#d3641c"
   offset="0.25"
   id="stop2" />
<stop
   style="stop-color:#f4a51f"
   offset="0.5"
   id="stop3" />
<stop
   style="stop-color:#d3641c"
   offset="0.75"
   id="stop4" />
<stop
   style="stop-color:#bf331c"
   offset="1"
   id="stop5" />
	</linearGradient>
	<path
   fill="url(#SVGID_1_)"
   d="m 128.275,61.222 2.16,-52.822 73.572,3.009 c -41.595,0.206 -56.932,23.075 -56.932,23.075 l 0.014,-0.004 c -5.885,6.624 -9.855,17.573 -10.245,27.094 z m 71.968,55.854 3.45,-84.354 c 3.792,-1.425 8.008,-2.14 12.426,-1.958 15.654,0.64 27.893,12.275 27.332,25.987 -0.335,8.206 -5.165,15.317 -12.37,19.528 -0.748,0.439 -2.003,0.21 -2.334,-0.663 -0.359,-0.94 0.447,-2.318 1.24,-2.957 2.189,-1.762 8.039,-7.438 8.395,-16.116 0.435,-10.653 -9.637,-20.183 -22.47,-20.708 -2.534,-0.104 -4.983,0.142 -7.292,0.685 l -3.304,80.767 c -0.117,2.798 -2.479,4.977 -5.278,4.862 l -37.066,-1.518 -1.014,24.817 c 53.288,-19.722 93.208,-54.604 94.57,-87.883 0.88,-21.536 -17.767,-39.854 -47.585,-41.075 -24.828,-1.015 -40.597,8.856 -40.597,8.856 14.984,1.628 26.305,18.53 25.487,38.559 -0.846,20.68 -14.317,36.979 -30.028,36.337 0,0 -3.416,-0.355 -5.045,-0.813 l 1.301,-31.826 -74.127,-3.033 -3.452,84.358 c -3.791,1.424 -8.007,2.138 -12.423,1.957 -15.656,-0.64 -27.893,-12.275 -27.333,-25.988 0.335,-8.203 5.167,-15.316 12.37,-19.527 0.749,-0.438 2.003,-0.21 2.335,0.663 0.358,0.94 -0.448,2.317 -1.241,2.957 -2.191,1.762 -8.039,7.438 -8.393,16.115 -0.437,10.652 9.634,20.182 22.469,20.706 2.531,0.104 4.984,-0.139 7.294,-0.684 l 3.303,-80.765 c 0.114,-2.802 2.477,-4.978 5.277,-4.864 l 37.064,1.517 1.015,-24.817 C 70.933,55.92 31.01,90.801 29.648,124.081 c -0.882,21.538 17.766,39.858 47.586,41.077 24.827,1.017 40.595,-8.856 40.595,-8.856 -14.987,-1.627 -26.306,-18.53 -25.487,-38.558 0.845,-20.681 14.315,-36.981 30.028,-36.339 0,0 3.413,0.355 5.045,0.815 l -1.304,31.826 z m -50.911,2.999 c -0.39,9.521 -4.359,20.469 -10.245,27.094 l 0.014,-0.005 c 0,0 -15.336,22.868 -56.932,23.073 l 73.573,3.013 2.16,-52.824 z"
   id="path5"
   style="fill:url(#SVGID_1_)" />
</g>
</svg>
