<?xml version="1.0" encoding="UTF-8" standalone="no"?>
<!-- Generator: Adobe Illustrator 15.1.0, SVG Export Plug-In . SVG Version: 6.00 Build 0)  -->

<svg
   version="1.1"
   id="svg8"
   x="0px"
   y="0px"
   width="226.9398"
   height="164.8566"
   viewBox="17.138 -0.294 226.9398 164.8566"
   enable-background="new 17.138 -0.294 250 180"
   xml:space="preserve"
   xmlns="http://www.w3.org/2000/svg"
   xmlns:svg="http://www.w3.org/2000/svg"><defs
   id="defs10">
	
	
</defs>

<path
   id="path3"
   d="m 117.94797,-0.294 -2.15,52.8226 8.54,0.355 c 0.39,-9.521 4.36,-20.47 10.25,-27.094 0,0 15.34,-22.868 56.94,-23.074 z m 73.96,8.0236 c -22.19,0.248 -36.04,8.924 -36.04,8.924 14.98,1.628 26.3,18.529 25.48,38.558 -0.84,20.68 -14.31,36.971 -30.03,36.331 0,0 -3.41,-0.35 -5.04,-0.807 l 1.3,-31.827 -74.122999,-3.033 -3.453,84.357 c -3.791,1.42 -8.006,2.14 -12.422,1.95 -15.656,-0.63 -27.894,-12.27 -27.334,-25.98 0.335,-8.21 5.166,-15.32 12.369,-19.53 0.749,-0.44 2.004,-0.21 2.336,0.66 0.358,0.94 -0.447,2.32 -1.24,2.96 -2.191,1.76 -8.041,7.44 -8.395,16.11 -0.437,10.66 9.636,20.19 22.471,20.71 2.531,0.1 4.983,-0.14 7.293,-0.68 l 3.303,-80.764 c 0.114,-2.802 2.477,-4.977 5.277,-4.863 l 37.057999,1.516 1.02,-24.817 c -53.284999,19.722 -93.207999,54.602 -94.569999,87.878 -0.882,21.54 17.766,39.86 47.586,41.08 24.826,1.02 40.593999,-8.86 40.593999,-8.86 -14.988999,-1.62 -26.305999,-18.53 -25.486999,-38.56 0.845,-20.674 14.319,-36.973 30.026999,-36.331 0,0 3.41,0.355 5.05,0.815 l -1.31,31.826 74.13,3.03 3.45,-84.354 c 3.79,-1.425 8.01,-2.139 12.43,-1.957 15.65,0.64 27.89,12.274 27.33,25.986 -0.33,8.206 -5.16,15.316 -12.37,19.527 -0.75,0.439 -2,0.211 -2.33,-0.662 -0.36,-0.94 0.44,-2.318 1.24,-2.957 2.19,-1.762 8.04,-7.437 8.39,-16.115 0.44,-10.653 -9.64,-20.184 -22.47,-20.709 -2.53,-0.104 -4.98,0.142 -7.29,0.685 l -3.3,80.766 c -0.12,2.8 -2.48,4.97 -5.28,4.86 l -37.07,-1.52 -1.01,24.82 c 53.29,-19.72 93.21,-54.602 94.57,-87.881 0.88,-21.536 -17.77,-39.855 -47.59,-41.076 -1.55,-0.063 -3.07,-0.083 -4.55,-0.066 z m -55.06,103.643 c -0.39,9.53 -4.36,20.47 -10.24,27.1 0,0 -15.34,22.87 -56.928999,23.08 l 73.568999,3.01 2.16,-52.82 z" />
</svg>
