<svg xmlns="http://www.w3.org/2000/svg" width="253.365" height="186.355"><path d="m253.365 71.067-18.679 8.417h-14.54l-45.15 71.197-27.494 25.872 7.436-65.794 41.87-69.792 22.27 15.863 12.216 5.073zM112.59 101.099l5.491 9.153.738 6.527 7.863 69.576 7.864-69.577.738-6.527 5.491-9.153 32.55-54.257 23.484-5.876-27.207-19.379L158.073 0l-31.391 52.814L95.291.002 83.762 21.588 56.555 40.966l23.484 5.876ZM56.555 40.966l-22.27 15.863-12.216 5.073L0 71.067l18.679 8.417h14.54l45.15 71.197 27.494 25.872-7.436-65.794z"/></svg>