<svg xmlns="http://www.w3.org/2000/svg" xmlns:xlink="http://www.w3.org/1999/xlink" width="600" height="518.403"><radialGradient id="a" cx="0" cy="0" r="1" fx="0" fy="0" gradientTransform="matrix(19.05115 0 0 -19.05115 747.998 371.282)" gradientUnits="userSpaceOnUse" spreadMethod="pad"><stop offset="0" style="stop-color:#ebd491"/><stop offset=".7" style="stop-color:#d2bb7b"/><stop offset="1" style="stop-color:#8b723c"/></radialGradient><radialGradient xlink:href="#a" id="b" cx="0" cy="0" r="1" fx="0" fy="0" gradientTransform="translate(299.972 269.726)scale(246.90424)" gradientUnits="userSpaceOnUse" spreadMethod="pad"/><path d="M487.973 301.426c9.966 20.71 13.361 27.747 22.019 45.71h-44.648c8.904-18.066 12.403-25.052 22.629-45.71m-139.114-83.022c1.66.855 3.28 1.309 5.055 2.682l5.52 4.459c16.045 13.102 37.416 29.717 70.97 41.148-7.996 15.293-12.403 23.652-23.536 44.803h-50.57c-1.879-23.276-5.223-64.697-7.439-93.092M221.941 283.1l2.126-4.51v-4.95c0-15.799-4.666-25.22-6.027-27.748 0 0-17.068-32.193-32.154-60.705 7.699.363 15.5.61 22.382.207 8.658-.506 18.624.714 27.23 2.23-1.31 24.857-4.9 93.403-6.377 121.047h-24.443c11.03-13.116 16.706-24.404 17.263-25.57m-110.368-92.898c9.967 20.71 13.362 27.747 22.071 45.71H88.997c8.903-18.067 12.403-25.052 22.576-45.71M274.028 25.778l-30.625 43.533v15.384C228.266 87.844 206.7 92.548 191.2 96.85c-9.007 2.476-19.946 1.011-28.797-1.218-1.983-6.636-5.418-14.075-11.742-20.697-6.688-6.999-18.844-15.293-38.841-15.293-19.687 0-31.792 8.204-38.362 15.033-13.57 14.023-14.736 32.4-14.736 38.272 0 .504.052 1.218.052 1.218 0 8.553 2.735 15.487 5.975 21.358C54.419 155.223 6.674 246.5 6.674 246.5 4.2 251.361 0 260.718 0 269.427c0 19.544 34.824 83.891 111.82 83.891 25.92 0 46.474-8.048 62.778-18.43.506 1.219 28.655 68.806 28.655 68.806h26.18v19.686h-39.387l-44.854 95.023H436.34l-39.593-95.023h-44.35v-19.686h30.43l.144-.454c13.426 26.373 47.395 62.014 106.622 62.014 78.525 0 107.634-69.764 108.787-72.706l1.62-4.044v-4.355c0-12.661-4.355-21.319-5.664-23.639 0 0-48.25-91.33-58.877-111.43 3.849-6.688 7.245-14.982 7.245-25.817 0-28.499-23.186-51.685-51.75-51.685-13.815 0-24.754 6.17-32.646 12.805-9.008-5.521-21.164-14.425-32.608-28.409-19.686-24.092-54.627-50.22-83.126-60.64V70.62L292.16 0Z" style="fill:#fff"/><path d="m488.18 250.545-58.735 118.921H545.58ZM111.82 139.32 53.097 258.243h116.084zm292.418 225.233 58.774-111.884c-50.376-9.81-74.171-32.193-95.127-49.002-21.009-16.757-43.43-9.772-43.43-9.772l11.237 139.878h51.788l-19.595 47.59h-37.818v64.346h51.789l20.969 50.376H180.378l23.782-50.376h47.59v-64.346h-33.606l-20.97-50.376h53.163l8.398-160.887s-27.994-8.346-51.789-6.985c-23.742 1.374-60.134-4.2-60.134-4.2l51.736 97.914s3.137 5.612 3.137 16.81c0 0-26.931 57.348-89.866 57.348-62.92 0-89.554-53.15-89.554-61.56 0-4.55 4.212-12.598 4.212-12.598l64.386-123.12s-9.824-8.01-9.824-20.257c0-.104-1.36-31.493 30.78-31.493 32.154 0 30.78 30.78 30.78 30.78s29.368 12.61 54.576 5.573c25.168-6.985 68.545-15.332 68.545-15.332V76.4l26.581-37.767 27.994 39.127v34.98c18.183 0 62.934 26.58 88.142 57.36 25.168 30.78 54.575 41.978 54.575 41.978s11.184-18.183 27.993-18.183c16.758 0 29.316 13.971 29.316 29.42 0 15.331-11.185 23.742-11.185 23.742l65.76 124.534s2.786 4.86 2.786 12.558c0 0-23.743 58.774-88.09 58.774-64.346 0-90.927-51.789-90.927-61.56 0-6.636 5.573-16.81 5.573-16.81" style="fill:#8b723c"/><path d="M272.199 78.423v29.873l-5.262 1.01c-.402.104-43.377 8.45-68.04 15.293a68.7 68.7 0 0 1-18.378 2.32c-21.008 0-39.683-7.892-40.5-8.255l-4.043-1.711.194-4.458c0-.104.311-10.783-6.428-17.717-3.992-4.199-10.018-6.337-17.924-6.337-7.737 0-13.66 2.138-17.716 6.285-6.83 7.09-6.584 18.378-6.584 18.728 0 8.916 7.4 15.24 7.452 15.293l3.992 3.343-2.372 4.653-64.347 123.173c-1.672 3.084-3.499 7.789-3.499 9.421.765 8.14 26.53 55.172 83.074 55.172 53.616 0 79.03-44.039 83.385-52.346-.246-8.048-2.333-12.196-2.384-12.247l-51.737-97.966-6.026-11.392 12.713 1.932c.298.051 28.603 4.406 50.933 4.406 2.683 0 5.366-.104 7.841-.26 1.97-.103 4.005-.155 5.923-.155 23.082 0 47.084 7.09 48.147 7.4l4.86 1.465-.311 5.067-8.398 160.938-.299 6.118h-49.572l15.604 37.415h35.68v77.307h-49.91l-17.665 37.468h202.502L377.55 452.19h-53.965v-77.307h39.89l14.283-34.629h-48.043l-.506-5.923-11.184-139.93-.415-5.158 4.912-1.516c.557-.207 5.832-1.724 13.621-1.724a56.64 56.64 0 0 1 35.744 12.65l5.715 4.613c19.855 16.148 42.328 34.37 86.625 43.027l8.554 1.672-4.044 7.699L409.9 367.69c-2.022 3.655-4.808 10.278-4.808 13.621.31 8.204 24.805 55.133 84.5 55.133 54.872 0 77.915-45.412 81.609-53.564-.26-5.016-1.931-8.152-1.983-8.256l-65.811-124.533-2.476-4.86 4.303-3.344c.35-.246 8.657-6.778 8.657-18.572 0-11.094-9.214-22.939-22.939-22.939-12.908 0-22.37 14.982-22.473 15.085l-2.786 4.562-5.016-1.879c-1.257-.505-31.285-12.195-57.296-43.934-24.819-30.327-68.002-54.99-83.087-54.99h-6.48V79.835L292.352 49.82ZM47.277 255.353l58.722-118.908 5.923-11.897 5.728 11.949 57.348 118.96 4.459 9.267H42.624Zm376.347 111.224 58.723-118.857 5.87-11.897 5.78 11.897 57.4 118.96 4.46 9.267H419.023Z" style="fill:url(#b);stroke-width:12.9601"/></svg>