<svg xmlns="http://www.w3.org/2000/svg" width="600" height="518.403"><radialGradient id="a" cx="0" cy="0" r="1" fx="0" fy="0" gradientTransform="translate(299.96 269.713)scale(246.9054)" gradientUnits="userSpaceOnUse" spreadMethod="pad"><stop offset="0" style="stop-color:#d9eaf3"/><stop offset=".663" style="stop-color:#99aebc"/><stop offset="1" style="stop-color:#536e78"/></radialGradient><path d="M487.973 301.426c9.966 20.71 13.361 27.747 22.019 45.71h-44.648c8.904-18.066 12.403-25.052 22.629-45.71m-139.114-83.022c1.66.855 3.28 1.309 5.055 2.682l5.52 4.459c16.045 13.102 37.416 29.717 70.97 41.148-7.996 15.293-12.403 23.652-23.536 44.803h-50.57c-1.879-23.276-5.223-64.697-7.439-93.092M221.941 283.1l2.126-4.51v-4.95c0-15.799-4.666-25.22-6.027-27.748 0 0-17.068-32.193-32.154-60.705 7.699.363 15.5.61 22.382.207 8.658-.506 18.624.714 27.23 2.23-1.31 24.857-4.9 93.403-6.377 121.047h-24.443c11.03-13.116 16.706-24.404 17.263-25.57m-110.368-92.898c9.967 20.71 13.362 27.747 22.071 45.71H88.997c8.903-18.067 12.403-25.052 22.576-45.71M274.028 25.778l-30.625 43.533v15.384C228.266 87.844 206.7 92.548 191.2 96.85c-9.007 2.476-19.946 1.011-28.797-1.218-1.983-6.636-5.418-14.075-11.742-20.697-6.688-6.999-18.844-15.293-38.841-15.293-19.687 0-31.792 8.203-38.362 15.033-13.57 14.023-14.736 32.4-14.736 38.272 0 .504.052 1.218.052 1.218 0 8.553 2.735 15.487 5.975 21.358C54.419 155.223 6.674 246.5 6.674 246.5 4.2 251.361 0 260.718 0 269.427c0 19.544 34.824 83.891 111.82 83.891 25.92 0 46.474-8.048 62.778-18.43.506 1.219 28.655 68.806 28.655 68.806h26.18v19.686h-39.387l-44.854 95.023H436.34l-39.593-95.023h-44.35v-19.686h30.43l.144-.454c13.426 26.373 47.395 62.014 106.622 62.014 78.525 0 107.634-69.764 108.787-72.706l1.62-4.044v-4.355c0-12.661-4.355-21.319-5.664-23.639 0 0-48.25-91.33-58.877-111.43 3.849-6.688 7.245-14.982 7.245-25.817 0-28.499-23.186-51.685-51.75-51.685-13.815 0-24.754 6.17-32.646 12.805-9.008-5.521-21.164-14.425-32.608-28.409-19.686-24.092-54.627-50.22-83.126-60.64V70.62L292.16 0Z" style="fill:#fff"/><path d="m488.18 250.545-58.735 118.921H545.58ZM111.82 139.32 53.097 258.243h116.084zm292.418 225.233 58.774-111.884c-50.376-9.81-74.171-32.193-95.127-49.002-21.009-16.757-43.43-9.772-43.43-9.772l11.237 139.878h51.788l-19.595 47.59h-37.818v64.346h51.789l20.969 50.376H180.378l23.782-50.376h47.59v-64.346h-33.606l-20.97-50.376h53.163l8.398-160.887s-27.994-8.346-51.789-6.985c-23.742 1.374-60.134-4.2-60.134-4.2l51.736 97.914s3.137 5.612 3.137 16.81c0 0-26.931 57.348-89.866 57.348-62.92 0-89.554-53.15-89.554-61.56 0-4.55 4.212-12.598 4.212-12.598l64.386-123.12s-9.824-8.01-9.824-20.257c0-.104-1.36-31.493 30.78-31.493 32.154 0 30.78 30.78 30.78 30.78s29.368 12.61 54.576 5.573c25.168-6.985 68.545-15.332 68.545-15.332V76.4l26.581-37.767 27.994 39.127v34.98c18.183 0 62.934 26.58 88.142 57.36 25.168 30.78 54.575 41.978 54.575 41.978s11.184-18.183 27.993-18.183c16.758 0 29.316 13.971 29.316 29.42 0 15.331-11.185 23.742-11.185 23.742l65.76 124.534s2.786 4.86 2.786 12.558c0 0-23.743 58.774-88.09 58.774-64.346 0-90.927-51.789-90.927-61.56 0-6.636 5.573-16.81 5.573-16.81" style="fill:#536e78"/><path d="M272.251 78.423v29.924l-5.314 1.011c-.401.052-43.377 8.347-68.04 15.241a68.7 68.7 0 0 1-18.43 2.372c-21.007 0-39.58-7.944-40.448-8.255l-3.991-1.763.09-4.458c0-.104.312-10.835-6.376-17.717-3.992-4.199-10.018-6.337-17.872-6.337-7.737 0-13.712 2.138-17.768 6.337-6.83 7.038-6.584 18.326-6.584 18.676 0 8.864 7.4 15.24 7.452 15.293l3.992 3.395-2.372 4.601-64.346 123.069c-1.62 3.188-3.5 7.893-3.552 9.474.817 8.19 26.582 55.223 83.178 55.223 53.512 0 78.927-43.935 83.333-52.346-.207-8.048-2.28-12.196-2.384-12.247l-51.737-97.966-6.026-11.392 12.765 1.932c.247.051 28.551 4.354 50.882 4.354 2.734 0 5.417-.052 7.84-.207q3.007-.156 6.027-.156c23.03 0 47.032 7.09 48.043 7.4l4.912 1.465-.311 5.12-8.398 160.885-.298 6.17h-49.676l15.604 37.363h35.782v77.359h-49.96l-17.665 37.364h202.5l-15.551-37.364h-53.966v-77.359h39.891l14.282-34.577h-48.043l-.454-5.975-11.288-139.93-.363-5.158 4.912-1.516c.557-.207 5.832-1.724 13.57-1.724 9.11 0 22.731 2.178 35.847 12.597l5.663 4.666c19.855 16.096 42.328 34.37 86.626 43.027l8.553 1.672-4.004 7.699L409.9 367.69c-2.022 3.655-4.808 10.278-4.808 13.673.363 8.152 24.857 55.029 84.5 55.029 54.769 0 77.864-45.205 81.609-53.46-.26-5.016-1.88-8.204-1.983-8.308l-65.76-124.533-2.526-4.86 4.354-3.344c.298-.246 8.606-6.83 8.606-18.572 0-11.094-9.215-22.939-22.94-22.939-12.856 0-22.317 14.943-22.42 15.137l-2.839 4.51-4.964-1.93c-1.257-.454-31.389-12.144-57.31-43.883-24.856-30.327-68.078-54.99-83.125-54.99h-6.532V79.784l-21.41-29.964ZM47.277 255.353l58.774-118.908 5.871-11.897 5.78 11.949L175 255.405l4.51 9.319H42.625Zm376.296 111.224 58.774-118.857 5.923-11.897 5.728 11.936 57.361 118.87 4.497 9.318H418.972Z" style="fill:url(#a);stroke-width:12.9601"/></svg>