<?xml version="1.0" encoding="utf-8"?>
<!-- Generator: Adobe Illustrator 15.1.0, SVG Export Plug-In . SVG Version: 6.00 Build 0)  -->
<!DOCTYPE svg PUBLIC "-//W3C//DTD SVG 1.1//EN" "http://www.w3.org/Graphics/SVG/1.1/DTD/svg11.dtd">
<svg version="1.1" id="Layer_1" xmlns="http://www.w3.org/2000/svg" xmlns:xlink="http://www.w3.org/1999/xlink" x="0px" y="0px"
	 width="160px" height="95px" viewBox="0 0 160 95" enable-background="new 0 0 160 95" xml:space="preserve">
<g id="Layer_1_1_">
</g>
<g id="Layer_3" display="none">
</g>
<g>
	<g>
		<path fill="#FFFFFF" d="M39.305,91.271c-14.092,0-27.129-2.187-27.259-2.207l-2.512-0.424L6.363,55.137l10.747,4.457l0.452,0.434
			c0.019,0.02,0.479,0.451,1.301,1.111l9.577-25.454l2.281-0.015c0.021,0,6.497-0.047,11.337-0.047c1.162,0,2.686-0.019,4.409-0.153
			c0.733-0.765,2.007-2.367,2.007-4.27c0-3.841-4.35-6.044-11.934-6.044c-11.647,0-19.237,6.754-19.313,6.821l-0.359,0.329
			l-0.444,0.216c-2.176,1.046-4.978,2.7-5.096,2.771L5.36,38.836l4.523-31.55l2.315-0.452c0.507-0.101,12.587-2.446,25.377-2.446
			c7.761,0,16.767,0.344,24.728,2.896c7.69,2.467,12.831,6.546,15.322,12.15c1.021-1.218,2.121-2.377,3.287-3.464
			c7.855-7.329,18.791-11.366,30.789-11.366s22.932,4.037,30.789,11.366c8.42,7.855,12.871,18.847,12.871,31.784
			c0,12.938-4.451,23.928-12.871,31.784c-7.857,7.329-18.791,11.366-30.789,11.366s-22.934-4.037-30.789-11.366
			c-0.685-0.64-1.352-1.31-1.996-2.005c-3.412,4.316-8.344,7.799-14.377,10.133C58.354,90.059,49.864,91.271,39.305,91.271z
			 M21.026,62.752c3.626,2.518,9.725,5.868,16.489,5.868c9.495,0,15.164-2.409,15.164-6.446c0-5.341-7.409-6.138-11.825-6.138
			c-8.921,0-15.056,3.724-15.116,3.761L21.026,62.752z"/>
	</g>
	<path d="M89.908,47.692c0,24.375,14.838,36.181,30.928,36.181c6.202,0,12.576-1.91,18.068-5.594
		c8.072-6.816,13.136-17.195,13.136-30.525c0-14.481-5.978-25.48-15.292-32.212c-4.918-2.757-10.428-4.186-15.912-4.186
		C104.282,11.356,89.908,23.318,89.908,47.692z M136.275,46.78c0,17.155-8.439,26.149-21.144,26.149
		c-12.705,0-21.144-9.365-21.144-26.149s8.438-26.15,21.144-26.15C127.836,20.63,136.275,29.624,136.275,46.78z M63.341,84.568
		c-7.959,3.078-19.082,3.625-28.885,3.299c19.299-1.355,31.621-11.15,31.621-21.612c0-9.83-7.233-19.846-20.958-19.846
		c-11.911,0-19.36,8.352-21.123,10.559c-0.013,0.009-0.021,0.013-0.021,0.013l6.77-17.989c0,0,6.491-0.046,11.314-0.046
		c1.253,0,3.371-0.017,5.819-0.268C54.85,37.962,64.5,35.338,64.5,25.729c0-12.982-15.811-16.923-35.888-16.923
		c-5.508,0-10.978,0.561-15.775,1.295l-0.002,0.001l0.001-0.01c0,0,12.19-2.385,24.74-2.385c12.55,0,37.866,0.727,38.454,19.723
		c0.382,12.347-11.252,14.898-14.498,15.918v0.324c0,0,10.201,0.789,16.414,9.689C84.159,62.268,80.96,77.752,63.341,84.568z"/>
	<path d="M126.412,85.247c-4.559,1.539-9.52,2.335-14.711,2.335c-12.952,0-24.477-4.953-31.857-14.046
		c0.816-1.443,1.473-2.961,1.955-4.541c1.801-5.903,0.951-11.988-2.332-16.692c-2.375-3.404-5.27-5.705-8.03-7.264
		c0.081-1.517,0.229-2.993,0.442-4.427c3.363-2.62,6.206-6.727,6.004-13.239c-0.026-0.834-0.096-1.644-0.207-2.43
		C84.84,13.962,97.4,7.925,111.701,7.925c4.563,0,8.947,0.616,13.037,1.81c-1.301-0.154-2.605-0.233-3.902-0.233
		c-9.033,0-17.209,3.414-23.023,9.614c-6.383,6.806-9.758,16.688-9.758,28.577c0,26.274,16.463,38.036,32.781,38.036
		C122.703,85.729,124.568,85.564,126.412,85.247z M14.981,29.531c0,0,8.299-7.696,21.56-7.696c13.261,0,15.255,6.213,15.255,9.365
		c0,2.21-0.938,4.046-1.896,5.346c8.458-1.326,12.746-4.958,12.746-10.816c0-5.3-3.027-9.098-9.254-11.61
		c-5.687-2.296-14.024-3.46-24.78-3.46c-4.737,0-9.928,0.426-15.428,1.266l-0.631,0.144l-2.92,20.368
		C9.633,32.438,12.601,30.677,14.981,29.531z M56,62.174c0,5.873-6.121,9.768-18.485,9.768c-12.364,0-22.256-9.521-22.256-9.521
		l-5.069-2.103l2.382,25.168c3.604,0.279,8.726,0.535,15.983,0.675c0.434,0.008,0.863,0.012,1.291,0.012
		c21.518,0,34.376-10.128,34.376-19.918c0-8.94-6.562-17.989-19.104-17.989c-7.497,0-13.149,3.637-16.504,6.59
		c2.961-1.067,7.188-2.141,12.239-2.141C50.93,52.715,56,56.301,56,62.174z M115.133,69.453c0.406,0,0.092-9.211,5.912-15.971
		c2.102-2.442,5.148-4.104,7.881-5.08c0,0-0.787-8.681-1.418-13.588h-0.275c0,0-0.381,5.969-2.037,10.927
		c0,0-0.455-0.138-1.215-0.332c-2.33-7.987-2.582-15.211-2.582-15.211h-0.354c-0.555,7.856-1.475,12.403-1.917,14.241
		c-0.494-0.071-1-0.132-1.512-0.181c-0.209-0.916-0.599-2.763-1.026-5.417c-0.63-3.92-0.828-6.666-0.984-9.084
		c-0.157-2.417-0.196-4.029-0.473-4.029c-0.277,0-0.316,1.612-0.474,4.029c-0.159,2.418-0.354,5.164-0.986,9.084
		c-0.426,2.654-0.815,4.501-1.024,5.417c-0.512,0.049-1.018,0.109-1.512,0.181c-0.443-1.838-1.363-6.385-1.916-14.241h-0.354
		c0,0-0.25,7.224-2.581,15.211c-0.76,0.194-1.217,0.332-1.217,0.332c-1.654-4.958-2.035-10.927-2.035-10.927h-0.276
		c-0.629,4.907-1.418,13.588-1.418,13.588c2.731,0.978,5.78,2.638,7.884,5.08C115.039,60.242,114.725,69.453,115.133,69.453z"/>
</g>
</svg>
