<?xml version="1.0" encoding="utf-8"?>
<!-- Generator: Adobe Illustrator 15.1.0, SVG Export Plug-In . SVG Version: 6.00 Build 0)  -->
<!DOCTYPE svg PUBLIC "-//W3C//DTD SVG 1.1//EN" "http://www.w3.org/Graphics/SVG/1.1/DTD/svg11.dtd">
<svg version="1.1" id="Layer_1" xmlns="http://www.w3.org/2000/svg" xmlns:xlink="http://www.w3.org/1999/xlink" x="0px" y="0px"
	 width="160px" height="95px" viewBox="0 0 160 95" enable-background="new 0 0 160 95" xml:space="preserve">
<g id="Layer_1_1_">
</g>
<g id="Layer_3" display="none">
</g>
<g>
	<g>
		<path d="M38.972,91.271c-14.092,0-27.129-2.186-27.259-2.207l-2.512-0.424L6.03,55.137l10.747,4.457l0.452,0.434
			c0.019,0.019,0.479,0.45,1.301,1.11l9.577-25.453l2.281-0.015c0.021,0,6.497-0.047,11.337-0.047c1.162,0,2.686-0.019,4.409-0.153
			c0.733-0.765,2.007-2.367,2.007-4.27c0-3.841-4.35-6.044-11.934-6.044c-11.647,0-19.237,6.754-19.313,6.821l-0.359,0.329
			l-0.444,0.216c-2.176,1.046-4.978,2.7-5.096,2.771l-5.968,3.543L9.55,7.286l2.315-0.452c0.507-0.101,12.587-2.446,25.377-2.446
			c7.761,0,16.767,0.344,24.728,2.896c7.689,2.467,12.83,6.546,15.321,12.15c1.021-1.218,2.121-2.377,3.286-3.464
			c7.857-7.329,18.791-11.366,30.789-11.366S134.3,8.641,142.156,15.97c8.42,7.855,12.871,18.847,12.871,31.784
			s-4.451,23.928-12.87,31.784c-7.857,7.329-18.792,11.366-30.79,11.366s-22.932-4.037-30.789-11.366
			c-0.685-0.639-1.352-1.31-1.996-2.005c-3.412,4.316-8.344,7.799-14.377,10.133C58.02,90.058,49.53,91.271,38.972,91.271z
			 M20.692,62.752c3.626,2.517,9.725,5.868,16.489,5.868c9.495,0,15.164-2.409,15.164-6.446c0-5.341-7.409-6.138-11.825-6.138
			c-8.921,0-15.056,3.724-15.116,3.761L20.692,62.752z"/>
	</g>
	<linearGradient id="SVGID_1_" gradientUnits="userSpaceOnUse" x1="12.5015" y1="47.8291" x2="151.707" y2="47.8291">
		<stop  offset="0" style="stop-color:#8D742F"/>
		<stop  offset="0.1123" style="stop-color:#917833"/>
		<stop  offset="0.2285" style="stop-color:#9E853F"/>
		<stop  offset="0.3463" style="stop-color:#B29953"/>
		<stop  offset="0.35" style="stop-color:#B39A54"/>
		<stop  offset="0.3891" style="stop-color:#C1A760"/>
		<stop  offset="0.4519" style="stop-color:#D1B76F"/>
		<stop  offset="0.5" style="stop-color:#D7BD74"/>
		<stop  offset="0.5481" style="stop-color:#D1B76F"/>
		<stop  offset="0.6109" style="stop-color:#C1A760"/>
		<stop  offset="0.65" style="stop-color:#B39A54"/>
		<stop  offset="0.7499" style="stop-color:#A38A45"/>
		<stop  offset="0.8915" style="stop-color:#937A35"/>
		<stop  offset="1" style="stop-color:#8D742F"/>
	</linearGradient>
	<path fill="url(#SVGID_1_)" d="M89.575,47.692c0,24.374,14.837,36.181,30.927,36.181c6.203,0,12.576-1.91,18.069-5.594
		c8.071-6.816,13.136-17.195,13.136-30.525c0-14.481-5.977-25.48-15.293-32.212c-4.918-2.757-10.428-4.186-15.912-4.186
		C103.949,11.356,89.575,23.318,89.575,47.692z M135.941,46.78c0,17.155-8.438,26.15-21.143,26.15
		c-12.705,0-21.143-9.365-21.143-26.15c0-16.784,8.438-26.15,21.143-26.15C127.503,20.63,135.941,29.624,135.941,46.78z
		 M63.008,84.568c-7.959,3.079-19.083,3.626-28.886,3.299c19.299-1.355,31.621-11.15,31.621-21.612
		c0-9.83-7.233-19.846-20.958-19.846c-11.911,0-19.36,8.352-21.123,10.559c-0.013,0.009-0.021,0.013-0.021,0.013l6.77-17.99
		c0,0,6.491-0.046,11.314-0.046c1.253,0,3.371-0.017,5.819-0.268c6.972-0.715,16.621-3.339,16.621-12.947
		c0-12.982-15.811-16.923-35.887-16.923c-5.508,0-10.978,0.561-15.775,1.295l-0.002,0.001l0.001-0.01c0,0,12.19-2.385,24.74-2.385
		c12.55,0,37.867,0.727,38.455,19.723c0.381,12.347-11.252,14.898-14.498,15.918v0.324c0,0,10.201,0.789,16.414,9.69
		C83.826,62.267,80.627,77.752,63.008,84.568z"/>
	<linearGradient id="SVGID_2_" gradientUnits="userSpaceOnUse" x1="9.2998" y1="47.7534" x2="128.5928" y2="47.7534">
		<stop  offset="0" style="stop-color:#D7BD74"/>
		<stop  offset="0.1076" style="stop-color:#CEB46C"/>
		<stop  offset="0.2825" style="stop-color:#B69D57"/>
		<stop  offset="0.3" style="stop-color:#B39A54"/>
		<stop  offset="0.3186" style="stop-color:#AB924C"/>
		<stop  offset="0.371" style="stop-color:#9A813C"/>
		<stop  offset="0.4285" style="stop-color:#907732"/>
		<stop  offset="0.5" style="stop-color:#8D742F"/>
		<stop  offset="0.5715" style="stop-color:#907732"/>
		<stop  offset="0.629" style="stop-color:#9A813C"/>
		<stop  offset="0.6814" style="stop-color:#AB924C"/>
		<stop  offset="0.7" style="stop-color:#B39A54"/>
		<stop  offset="0.7783" style="stop-color:#C1A760"/>
		<stop  offset="0.9038" style="stop-color:#D1B76F"/>
		<stop  offset="1" style="stop-color:#D7BD74"/>
	</linearGradient>
	<path fill="url(#SVGID_2_)" d="M126.079,85.247c-4.559,1.539-9.521,2.335-14.712,2.335c-12.951,0-24.477-4.953-31.857-14.046
		c0.816-1.443,1.473-2.961,1.955-4.541c1.802-5.903,0.952-11.988-2.332-16.692c-2.375-3.404-5.27-5.705-8.029-7.264
		c0.08-1.517,0.229-2.993,0.442-4.427c3.363-2.62,6.206-6.727,6.005-13.239c-0.026-0.834-0.096-1.644-0.207-2.43
		c7.162-10.981,19.725-17.019,34.023-17.019c4.563,0,8.947,0.616,13.038,1.81c-1.302-0.154-2.605-0.233-3.903-0.233
		c-9.032,0-17.209,3.414-23.023,9.614c-6.383,6.806-9.758,16.688-9.758,28.577c0,26.274,16.464,38.035,32.781,38.035
		C122.369,85.728,124.236,85.564,126.079,85.247z M14.647,29.531c0,0,8.3-7.696,21.561-7.696s15.255,6.213,15.255,9.365
		c0,2.21-0.939,4.046-1.896,5.346c8.458-1.326,12.746-4.958,12.746-10.816c0-5.3-3.027-9.098-9.255-11.61
		c-5.687-2.295-14.023-3.459-24.779-3.459c-4.737,0-9.928,0.426-15.428,1.266l-0.631,0.144L9.3,32.438
		C9.3,32.438,12.267,30.677,14.647,29.531z M55.666,62.174c0,5.873-6.121,9.767-18.485,9.767c-12.364,0-22.256-9.52-22.256-9.52
		l-5.069-2.102l2.382,25.168c3.604,0.278,8.726,0.535,15.983,0.674c0.434,0.008,0.862,0.012,1.291,0.012
		c21.518,0,34.376-10.128,34.376-19.918c0-8.94-6.563-17.99-19.104-17.99c-7.497,0-13.149,3.638-16.504,6.591
		c2.961-1.068,7.188-2.141,12.239-2.141C50.597,52.715,55.666,56.301,55.666,62.174z M114.799,69.453
		c0.406,0,0.092-9.211,5.912-15.97c2.102-2.443,5.15-4.104,7.882-5.08c0,0-0.788-8.682-1.419-13.589h-0.275
		c0,0-0.381,5.969-2.037,10.927c0,0-0.455-0.138-1.215-0.332c-2.33-7.987-2.582-15.211-2.582-15.211h-0.354
		c-0.555,7.856-1.474,12.403-1.916,14.241c-0.494-0.071-1-0.132-1.512-0.181c-0.209-0.916-0.6-2.763-1.027-5.417
		c-0.629-3.92-0.828-6.666-0.984-9.084c-0.158-2.417-0.197-4.029-0.473-4.029c-0.276,0-0.316,1.612-0.473,4.029
		c-0.159,2.418-0.355,5.164-0.986,9.084c-0.426,2.654-0.816,4.501-1.025,5.417c-0.512,0.049-1.018,0.109-1.512,0.181
		c-0.442-1.838-1.362-6.385-1.916-14.241h-0.355c0,0-0.25,7.224-2.58,15.211c-0.76,0.194-1.216,0.332-1.216,0.332
		c-1.655-4.958-2.036-10.927-2.036-10.927h-0.277c-0.629,4.907-1.417,13.589-1.417,13.589c2.731,0.977,5.78,2.637,7.882,5.08
		C114.705,60.242,114.391,69.453,114.799,69.453z"/>
</g>
</svg>
