<?xml version="1.0" encoding="UTF-8" standalone="no"?>
<!-- Generator: Adobe Illustrator 15.1.0, SVG Export Plug-In . SVG Version: 6.00 Build 0)  -->

<svg
   version="1.1"
   id="Layer_1"
   x="0px"
   y="0px"
   width="150"
   height="86.883003"
   viewBox="0 0 150 86.883003"
   enable-background="new 0 0 160 95"
   xml:space="preserve"
   xmlns="http://www.w3.org/2000/svg"
   xmlns:svg="http://www.w3.org/2000/svg"><defs
   id="defs29" />
<g
   id="Layer_1_1_"
   transform="translate(-5.027,-4.388)">
</g>
<g
   id="Layer_3"
   display="none"
   transform="translate(-5.027,-4.388)">
</g>
<g
   id="g29"
   transform="translate(-5.027,-4.388)">
	<g
   id="g1">
		<path
   d="m 38.972,91.271 c -14.092,0 -27.129,-2.186 -27.259,-2.207 L 9.201,88.64 6.03,55.137 l 10.747,4.457 0.452,0.434 c 0.019,0.019 0.479,0.45 1.301,1.11 l 9.577,-25.453 2.281,-0.015 c 0.021,0 6.497,-0.047 11.337,-0.047 1.162,0 2.686,-0.019 4.409,-0.153 0.733,-0.765 2.007,-2.367 2.007,-4.27 0,-3.841 -4.35,-6.044 -11.934,-6.044 -11.647,0 -19.237,6.754 -19.313,6.821 l -0.359,0.329 -0.444,0.216 c -2.176,1.046 -4.978,2.7 -5.096,2.771 L 5.027,38.836 9.55,7.286 11.865,6.834 c 0.507,-0.101 12.587,-2.446 25.377,-2.446 7.761,0 16.767,0.344 24.728,2.896 7.689,2.467 12.83,6.546 15.321,12.15 1.021,-1.218 2.121,-2.377 3.286,-3.464 7.857,-7.329 18.791,-11.366 30.789,-11.366 11.998,0 22.934,4.037 30.79,11.366 8.42,7.855 12.871,18.847 12.871,31.784 0,12.937 -4.451,23.928 -12.87,31.784 -7.857,7.329 -18.792,11.366 -30.79,11.366 -11.998,0 -22.932,-4.037 -30.789,-11.366 -0.685,-0.639 -1.352,-1.31 -1.996,-2.005 -3.412,4.316 -8.344,7.799 -14.377,10.133 -6.185,2.392 -14.675,3.605 -25.233,3.605 z M 20.692,62.752 c 3.626,2.517 9.725,5.868 16.489,5.868 9.495,0 15.164,-2.409 15.164,-6.446 0,-5.341 -7.409,-6.138 -11.825,-6.138 -8.921,0 -15.056,3.724 -15.116,3.761 z"
   id="path1" />
	</g>
	<linearGradient
   id="SVGID_1_"
   gradientUnits="userSpaceOnUse"
   x1="12.5015"
   y1="47.829102"
   x2="151.707"
   y2="47.829102">
		<stop
   offset="0"
   style="stop-color:#8D742F"
   id="stop1" />
		<stop
   offset="0.1123"
   style="stop-color:#917833"
   id="stop2" />
		<stop
   offset="0.2285"
   style="stop-color:#9E853F"
   id="stop3" />
		<stop
   offset="0.3463"
   style="stop-color:#B29953"
   id="stop4" />
		<stop
   offset="0.35"
   style="stop-color:#B39A54"
   id="stop5" />
		<stop
   offset="0.3891"
   style="stop-color:#C1A760"
   id="stop6" />
		<stop
   offset="0.4519"
   style="stop-color:#D1B76F"
   id="stop7" />
		<stop
   offset="0.5"
   style="stop-color:#D7BD74"
   id="stop8" />
		<stop
   offset="0.5481"
   style="stop-color:#D1B76F"
   id="stop9" />
		<stop
   offset="0.6109"
   style="stop-color:#C1A760"
   id="stop10" />
		<stop
   offset="0.65"
   style="stop-color:#B39A54"
   id="stop11" />
		<stop
   offset="0.7499"
   style="stop-color:#A38A45"
   id="stop12" />
		<stop
   offset="0.8915"
   style="stop-color:#937A35"
   id="stop13" />
		<stop
   offset="1"
   style="stop-color:#8D742F"
   id="stop14" />
	</linearGradient>
	<path
   fill="url(#SVGID_1_)"
   d="m 89.575,47.692 c 0,24.374 14.837,36.181 30.927,36.181 6.203,0 12.576,-1.91 18.069,-5.594 8.071,-6.816 13.136,-17.195 13.136,-30.525 0,-14.481 -5.977,-25.48 -15.293,-32.212 -4.918,-2.757 -10.428,-4.186 -15.912,-4.186 -16.553,0 -30.927,11.962 -30.927,36.336 z m 46.366,-0.912 c 0,17.155 -8.438,26.15 -21.143,26.15 -12.705,0 -21.143,-9.365 -21.143,-26.15 0,-16.784 8.438,-26.15 21.143,-26.15 12.705,0 21.143,8.994 21.143,26.15 z M 63.008,84.568 c -7.959,3.079 -19.083,3.626 -28.886,3.299 19.299,-1.355 31.621,-11.15 31.621,-21.612 0,-9.83 -7.233,-19.846 -20.958,-19.846 -11.911,0 -19.36,8.352 -21.123,10.559 -0.013,0.009 -0.021,0.013 -0.021,0.013 l 6.77,-17.99 c 0,0 6.491,-0.046 11.314,-0.046 1.253,0 3.371,-0.017 5.819,-0.268 C 54.516,37.962 64.165,35.338 64.165,25.73 64.165,12.748 48.354,8.807 28.278,8.807 22.77,8.807 17.3,9.368 12.503,10.102 l -0.002,10e-4 0.001,-0.01 c 0,0 12.19,-2.385 24.74,-2.385 12.55,0 37.867,0.727 38.455,19.723 0.381,12.347 -11.252,14.898 -14.498,15.918 v 0.324 c 0,0 10.201,0.789 16.414,9.69 6.213,8.904 3.014,24.389 -14.605,31.205 z"
   id="path14"
   style="fill:url(#SVGID_1_)" />
	<linearGradient
   id="SVGID_2_"
   gradientUnits="userSpaceOnUse"
   x1="9.2997999"
   y1="47.753399"
   x2="128.5928"
   y2="47.753399">
		<stop
   offset="0"
   style="stop-color:#D7BD74"
   id="stop15" />
		<stop
   offset="0.1076"
   style="stop-color:#CEB46C"
   id="stop16" />
		<stop
   offset="0.2825"
   style="stop-color:#B69D57"
   id="stop17" />
		<stop
   offset="0.3"
   style="stop-color:#B39A54"
   id="stop18" />
		<stop
   offset="0.3186"
   style="stop-color:#AB924C"
   id="stop19" />
		<stop
   offset="0.371"
   style="stop-color:#9A813C"
   id="stop20" />
		<stop
   offset="0.4285"
   style="stop-color:#907732"
   id="stop21" />
		<stop
   offset="0.5"
   style="stop-color:#8D742F"
   id="stop22" />
		<stop
   offset="0.5715"
   style="stop-color:#907732"
   id="stop23" />
		<stop
   offset="0.629"
   style="stop-color:#9A813C"
   id="stop24" />
		<stop
   offset="0.6814"
   style="stop-color:#AB924C"
   id="stop25" />
		<stop
   offset="0.7"
   style="stop-color:#B39A54"
   id="stop26" />
		<stop
   offset="0.7783"
   style="stop-color:#C1A760"
   id="stop27" />
		<stop
   offset="0.9038"
   style="stop-color:#D1B76F"
   id="stop28" />
		<stop
   offset="1"
   style="stop-color:#D7BD74"
   id="stop29" />
	</linearGradient>
	<path
   fill="url(#SVGID_2_)"
   d="m 126.079,85.247 c -4.559,1.539 -9.521,2.335 -14.712,2.335 -12.951,0 -24.477,-4.953 -31.857,-14.046 0.816,-1.443 1.473,-2.961 1.955,-4.541 1.802,-5.903 0.952,-11.988 -2.332,-16.692 -2.375,-3.404 -5.27,-5.705 -8.029,-7.264 0.08,-1.517 0.229,-2.993 0.442,-4.427 3.363,-2.62 6.206,-6.727 6.005,-13.239 -0.026,-0.834 -0.096,-1.644 -0.207,-2.43 7.162,-10.981 19.725,-17.019 34.023,-17.019 4.563,0 8.947,0.616 13.038,1.81 -1.302,-0.154 -2.605,-0.233 -3.903,-0.233 -9.032,0 -17.209,3.414 -23.023,9.614 -6.383,6.806 -9.758,16.688 -9.758,28.577 0,26.274 16.464,38.035 32.781,38.035 1.867,10e-4 3.734,-0.163 5.577,-0.48 z M 14.647,29.531 c 0,0 8.3,-7.696 21.561,-7.696 13.261,0 15.255,6.213 15.255,9.365 0,2.21 -0.939,4.046 -1.896,5.346 8.458,-1.326 12.746,-4.958 12.746,-10.816 0,-5.3 -3.027,-9.098 -9.255,-11.61 -5.687,-2.295 -14.023,-3.459 -24.779,-3.459 -4.737,0 -9.928,0.426 -15.428,1.266 L 12.22,12.071 9.3,32.438 c 0,0 2.967,-1.761 5.347,-2.907 z m 41.019,32.643 c 0,5.873 -6.121,9.767 -18.485,9.767 -12.364,0 -22.256,-9.52 -22.256,-9.52 l -5.069,-2.102 2.382,25.168 c 3.604,0.278 8.726,0.535 15.983,0.674 0.434,0.008 0.862,0.012 1.291,0.012 21.518,0 34.376,-10.128 34.376,-19.918 0,-8.94 -6.563,-17.99 -19.104,-17.99 -7.497,0 -13.149,3.638 -16.504,6.591 2.961,-1.068 7.188,-2.141 12.239,-2.141 10.078,0 15.147,3.586 15.147,9.459 z m 59.133,7.279 c 0.406,0 0.092,-9.211 5.912,-15.97 2.102,-2.443 5.15,-4.104 7.882,-5.08 0,0 -0.788,-8.682 -1.419,-13.589 h -0.275 c 0,0 -0.381,5.969 -2.037,10.927 0,0 -0.455,-0.138 -1.215,-0.332 -2.33,-7.987 -2.582,-15.211 -2.582,-15.211 h -0.354 c -0.555,7.856 -1.474,12.403 -1.916,14.241 -0.494,-0.071 -1,-0.132 -1.512,-0.181 -0.209,-0.916 -0.6,-2.763 -1.027,-5.417 -0.629,-3.92 -0.828,-6.666 -0.984,-9.084 -0.158,-2.417 -0.197,-4.029 -0.473,-4.029 -0.276,0 -0.316,1.612 -0.473,4.029 -0.159,2.418 -0.355,5.164 -0.986,9.084 -0.426,2.654 -0.816,4.501 -1.025,5.417 -0.512,0.049 -1.018,0.109 -1.512,0.181 -0.442,-1.838 -1.362,-6.385 -1.916,-14.241 h -0.355 c 0,0 -0.25,7.224 -2.58,15.211 -0.76,0.194 -1.216,0.332 -1.216,0.332 C 103.081,40.783 102.7,34.814 102.7,34.814 h -0.277 c -0.629,4.907 -1.417,13.589 -1.417,13.589 2.731,0.977 5.78,2.637 7.882,5.08 5.817,6.759 5.503,15.97 5.911,15.97 z"
   id="path29"
   style="fill:url(#SVGID_2_)" />
</g>
</svg>
