<?xml version="1.0" encoding="utf-8"?>
<!-- Generator: Adobe Illustrator 15.1.0, SVG Export Plug-In . SVG Version: 6.00 Build 0)  -->
<!DOCTYPE svg PUBLIC "-//W3C//DTD SVG 1.1//EN" "http://www.w3.org/Graphics/SVG/1.1/DTD/svg11.dtd">
<svg version="1.1" id="Layer_1" xmlns="http://www.w3.org/2000/svg" xmlns:xlink="http://www.w3.org/1999/xlink" x="0px" y="0px"
	 width="160px" height="95px" viewBox="0 0 160 95" enable-background="new 0 0 160 95" xml:space="preserve">
<g id="Layer_1_1_">
</g>
<g id="Layer_3" display="none">
</g>
<g>
	<g>
		<path d="M39.305,91.271c-14.092,0-27.129-2.186-27.259-2.207l-2.512-0.424L6.363,55.137l10.747,4.457l0.452,0.434
			c0.019,0.019,0.479,0.45,1.301,1.11l9.577-25.453l2.281-0.015c0.021,0,6.497-0.047,11.337-0.047c1.162,0,2.686-0.019,4.409-0.153
			c0.733-0.765,2.007-2.367,2.007-4.27c0-3.841-4.35-6.044-11.934-6.044c-11.647,0-19.237,6.754-19.313,6.821l-0.359,0.329
			l-0.444,0.216c-2.176,1.046-4.978,2.7-5.096,2.771l-5.968,3.543l4.523-31.55l2.315-0.452c0.507-0.101,12.587-2.446,25.377-2.446
			c7.761,0,16.767,0.344,24.728,2.896c7.69,2.467,12.831,6.546,15.322,12.15c1.021-1.218,2.121-2.377,3.287-3.464
			c7.856-7.329,18.791-11.366,30.789-11.366s22.932,4.037,30.789,11.366c8.42,7.855,12.871,18.847,12.871,31.784
			s-4.451,23.928-12.871,31.784c-7.857,7.329-18.791,11.366-30.789,11.366s-22.933-4.037-30.789-11.366
			c-0.685-0.639-1.353-1.31-1.996-2.005c-3.412,4.316-8.344,7.799-14.377,10.133C58.354,90.058,49.864,91.271,39.305,91.271z
			 M21.026,62.752c3.626,2.517,9.725,5.868,16.489,5.868c9.495,0,15.164-2.409,15.164-6.446c0-5.341-7.409-6.138-11.825-6.138
			c-8.921,0-15.056,3.724-15.116,3.761L21.026,62.752z"/>
	</g>
	<linearGradient id="SVGID_1_" gradientUnits="userSpaceOnUse" x1="12.835" y1="47.8291" x2="152.04" y2="47.8291">
		<stop  offset="0" style="stop-color:#626E77"/>
		<stop  offset="0.0791" style="stop-color:#65727B"/>
		<stop  offset="0.1611" style="stop-color:#707E88"/>
		<stop  offset="0.2444" style="stop-color:#81929C"/>
		<stop  offset="0.3281" style="stop-color:#99ADB9"/>
		<stop  offset="0.35" style="stop-color:#A0B6C2"/>
		<stop  offset="0.3783" style="stop-color:#A7BECB"/>
		<stop  offset="0.4472" style="stop-color:#B3CCDB"/>
		<stop  offset="0.5" style="stop-color:#B7D1E1"/>
		<stop  offset="0.5528" style="stop-color:#B3CCDB"/>
		<stop  offset="0.6217" style="stop-color:#A7BECB"/>
		<stop  offset="0.65" style="stop-color:#A0B6C2"/>
		<stop  offset="0.7311" style="stop-color:#8B9DA8"/>
		<stop  offset="0.8358" style="stop-color:#74838D"/>
		<stop  offset="0.9289" style="stop-color:#67747D"/>
		<stop  offset="1" style="stop-color:#626E77"/>
	</linearGradient>
	<path fill="url(#SVGID_1_)" d="M89.908,47.692c0,24.374,14.838,36.181,30.928,36.181c6.202,0,12.576-1.91,18.068-5.594
		c8.072-6.816,13.136-17.195,13.136-30.525c0-14.481-5.977-25.48-15.292-32.212c-4.918-2.757-10.428-4.186-15.912-4.186
		C104.282,11.356,89.908,23.318,89.908,47.692z M136.275,46.78c0,17.155-8.439,26.15-21.143,26.15
		c-12.705,0-21.144-9.365-21.144-26.15c0-16.784,8.438-26.15,21.144-26.15C127.836,20.63,136.275,29.624,136.275,46.78z
		 M63.341,84.568c-7.959,3.079-19.082,3.626-28.885,3.299c19.299-1.355,31.621-11.15,31.621-21.612
		c0-9.83-7.233-19.846-20.958-19.846c-11.911,0-19.36,8.352-21.123,10.559c-0.013,0.009-0.021,0.013-0.021,0.013l6.77-17.99
		c0,0,6.491-0.046,11.314-0.046c1.253,0,3.371-0.017,5.819-0.268C54.85,37.962,64.5,35.338,64.5,25.729
		c0-12.982-15.811-16.923-35.888-16.923c-5.508,0-10.978,0.561-15.775,1.295l-0.002,0.001l0.001-0.01c0,0,12.19-2.385,24.74-2.385
		c12.55,0,37.866,0.727,38.454,19.723c0.382,12.347-11.252,14.898-14.498,15.918v0.324c0,0,10.201,0.789,16.414,9.69
		C84.159,62.267,80.96,77.752,63.341,84.568z"/>
	<linearGradient id="SVGID_2_" gradientUnits="userSpaceOnUse" x1="9.6333" y1="47.7534" x2="128.9258" y2="47.7534">
		<stop  offset="0" style="stop-color:#B7D1E1"/>
		<stop  offset="0.1201" style="stop-color:#B0C9D8"/>
		<stop  offset="0.3" style="stop-color:#A0B6C2"/>
		<stop  offset="0.3259" style="stop-color:#8EA2AD"/>
		<stop  offset="0.3631" style="stop-color:#7B8B95"/>
		<stop  offset="0.4027" style="stop-color:#6D7B84"/>
		<stop  offset="0.4461" style="stop-color:#65717A"/>
		<stop  offset="0.5" style="stop-color:#626E77"/>
		<stop  offset="0.5539" style="stop-color:#65717A"/>
		<stop  offset="0.5973" style="stop-color:#6D7B84"/>
		<stop  offset="0.6369" style="stop-color:#7B8B95"/>
		<stop  offset="0.6741" style="stop-color:#8EA2AD"/>
		<stop  offset="0.7" style="stop-color:#A0B6C2"/>
		<stop  offset="0.7567" style="stop-color:#A7BECB"/>
		<stop  offset="0.8945" style="stop-color:#B3CCDB"/>
		<stop  offset="1" style="stop-color:#B7D1E1"/>
	</linearGradient>
	<path fill="url(#SVGID_2_)" d="M126.412,85.247c-4.559,1.539-9.52,2.335-14.711,2.335c-12.952,0-24.477-4.953-31.857-14.046
		c0.816-1.443,1.473-2.961,1.955-4.541c1.801-5.903,0.951-11.988-2.332-16.692c-2.375-3.404-5.27-5.705-8.03-7.264
		c0.081-1.517,0.229-2.993,0.442-4.427c3.363-2.62,6.206-6.727,6.004-13.239c-0.026-0.834-0.096-1.644-0.207-2.43
		C84.84,13.962,97.401,7.925,111.701,7.925c4.563,0,8.947,0.616,13.037,1.81c-1.301-0.154-2.605-0.233-3.902-0.233
		c-9.033,0-17.209,3.414-23.023,9.614c-6.384,6.806-9.758,16.688-9.758,28.577c0,26.274,16.463,38.035,32.781,38.035
		C122.703,85.728,124.569,85.564,126.412,85.247z M14.98,29.531c0,0,8.3-7.696,21.561-7.696s15.255,6.213,15.255,9.365
		c0,2.21-0.938,4.046-1.896,5.346c8.458-1.326,12.746-4.958,12.746-10.816c0-5.3-3.027-9.098-9.254-11.61
		c-5.687-2.295-14.023-3.459-24.779-3.459c-4.737,0-9.928,0.426-15.428,1.266l-0.631,0.144l-2.92,20.368
		C9.633,32.438,12.601,30.677,14.98,29.531z M56,62.174c0,5.873-6.121,9.767-18.485,9.767s-22.256-9.52-22.256-9.52l-5.069-2.102
		l2.382,25.168c3.604,0.278,8.726,0.535,15.983,0.674c0.434,0.008,0.862,0.012,1.291,0.012c21.518,0,34.376-10.128,34.376-19.918
		c0-8.94-6.562-17.99-19.104-17.99c-7.497,0-13.149,3.638-16.504,6.591c2.961-1.068,7.188-2.141,12.239-2.141
		C50.93,52.715,56,56.301,56,62.174z M115.133,69.453c0.406,0,0.092-9.211,5.912-15.97c2.102-2.443,5.149-4.104,7.881-5.08
		c0,0-0.787-8.682-1.418-13.589h-0.275c0,0-0.382,5.969-2.037,10.927c0,0-0.456-0.138-1.215-0.332
		c-2.33-7.987-2.582-15.211-2.582-15.211h-0.354c-0.555,7.856-1.475,12.403-1.917,14.241c-0.494-0.071-1-0.132-1.512-0.181
		c-0.209-0.916-0.599-2.763-1.026-5.417c-0.63-3.92-0.828-6.666-0.984-9.084c-0.158-2.417-0.197-4.029-0.473-4.029
		c-0.277,0-0.316,1.612-0.474,4.029c-0.159,2.418-0.354,5.164-0.986,9.084c-0.426,2.654-0.815,4.501-1.024,5.417
		c-0.512,0.049-1.018,0.109-1.512,0.181c-0.443-1.838-1.363-6.385-1.916-14.241h-0.355c0,0-0.25,7.224-2.581,15.211
		c-0.76,0.194-1.216,0.332-1.216,0.332c-1.655-4.958-2.036-10.927-2.036-10.927h-0.276c-0.629,4.907-1.418,13.589-1.418,13.589
		c2.732,0.977,5.78,2.637,7.883,5.08C115.039,60.242,114.725,69.453,115.133,69.453z"/>
</g>
</svg>
