<?xml version="1.0" encoding="UTF-8" standalone="no"?>
<!-- Generator: Adobe Illustrator 15.1.0, SVG Export Plug-In . SVG Version: 6.00 Build 0)  -->

<svg
   version="1.1"
   id="Layer_1"
   x="0px"
   y="0px"
   width="150.00101"
   height="86.883003"
   viewBox="0 0 150.00101 86.883003"
   enable-background="new 0 0 160 95"
   xml:space="preserve"
   xmlns="http://www.w3.org/2000/svg"
   xmlns:svg="http://www.w3.org/2000/svg"><defs
   id="defs32" />
<g
   id="Layer_1_1_"
   transform="translate(-5.36,-4.388)">
</g>
<g
   id="Layer_3"
   display="none"
   transform="translate(-5.36,-4.388)">
</g>
<g
   id="g32"
   transform="translate(-5.36,-4.388)">
	<g
   id="g1">
		<path
   d="m 39.305,91.271 c -14.092,0 -27.129,-2.186 -27.259,-2.207 L 9.534,88.64 6.363,55.137 l 10.747,4.457 0.452,0.434 c 0.019,0.019 0.479,0.45 1.301,1.11 L 28.44,35.685 30.721,35.67 c 0.021,0 6.497,-0.047 11.337,-0.047 1.162,0 2.686,-0.019 4.409,-0.153 0.733,-0.765 2.007,-2.367 2.007,-4.27 0,-3.841 -4.35,-6.044 -11.934,-6.044 -11.647,0 -19.237,6.754 -19.313,6.821 l -0.359,0.329 -0.444,0.216 c -2.176,1.046 -4.978,2.7 -5.096,2.771 L 5.36,38.836 9.883,7.286 12.198,6.834 c 0.507,-0.101 12.587,-2.446 25.377,-2.446 7.761,0 16.767,0.344 24.728,2.896 7.69,2.467 12.831,6.546 15.322,12.15 1.021,-1.218 2.121,-2.377 3.287,-3.464 7.856,-7.329 18.791,-11.366 30.789,-11.366 11.998,0 22.932,4.037 30.789,11.366 8.42,7.855 12.871,18.847 12.871,31.784 0,12.937 -4.451,23.928 -12.871,31.784 -7.857,7.329 -18.791,11.366 -30.789,11.366 -11.998,0 -22.933,-4.037 -30.789,-11.366 -0.685,-0.639 -1.353,-1.31 -1.996,-2.005 -3.412,4.316 -8.344,7.799 -14.377,10.133 -6.185,2.392 -14.675,3.605 -25.234,3.605 z M 21.026,62.752 c 3.626,2.517 9.725,5.868 16.489,5.868 9.495,0 15.164,-2.409 15.164,-6.446 0,-5.341 -7.409,-6.138 -11.825,-6.138 -8.921,0 -15.056,3.724 -15.116,3.761 z"
   id="path1" />
	</g>
	<linearGradient
   id="SVGID_1_"
   gradientUnits="userSpaceOnUse"
   x1="12.835"
   y1="47.829102"
   x2="152.03999"
   y2="47.829102">
		<stop
   offset="0"
   style="stop-color:#626E77"
   id="stop1" />
		<stop
   offset="0.0791"
   style="stop-color:#65727B"
   id="stop2" />
		<stop
   offset="0.1611"
   style="stop-color:#707E88"
   id="stop3" />
		<stop
   offset="0.2444"
   style="stop-color:#81929C"
   id="stop4" />
		<stop
   offset="0.3281"
   style="stop-color:#99ADB9"
   id="stop5" />
		<stop
   offset="0.35"
   style="stop-color:#A0B6C2"
   id="stop6" />
		<stop
   offset="0.3783"
   style="stop-color:#A7BECB"
   id="stop7" />
		<stop
   offset="0.4472"
   style="stop-color:#B3CCDB"
   id="stop8" />
		<stop
   offset="0.5"
   style="stop-color:#B7D1E1"
   id="stop9" />
		<stop
   offset="0.5528"
   style="stop-color:#B3CCDB"
   id="stop10" />
		<stop
   offset="0.6217"
   style="stop-color:#A7BECB"
   id="stop11" />
		<stop
   offset="0.65"
   style="stop-color:#A0B6C2"
   id="stop12" />
		<stop
   offset="0.7311"
   style="stop-color:#8B9DA8"
   id="stop13" />
		<stop
   offset="0.8358"
   style="stop-color:#74838D"
   id="stop14" />
		<stop
   offset="0.9289"
   style="stop-color:#67747D"
   id="stop15" />
		<stop
   offset="1"
   style="stop-color:#626E77"
   id="stop16" />
	</linearGradient>
	<path
   fill="url(#SVGID_1_)"
   d="m 89.908,47.692 c 0,24.374 14.838,36.181 30.928,36.181 6.202,0 12.576,-1.91 18.068,-5.594 8.072,-6.816 13.136,-17.195 13.136,-30.525 0,-14.481 -5.977,-25.48 -15.292,-32.212 -4.918,-2.757 -10.428,-4.186 -15.912,-4.186 -16.554,0 -30.928,11.962 -30.928,36.336 z m 46.367,-0.912 c 0,17.155 -8.439,26.15 -21.143,26.15 -12.705,0 -21.144,-9.365 -21.144,-26.15 0,-16.784 8.438,-26.15 21.144,-26.15 12.704,0 21.143,8.994 21.143,26.15 z M 63.341,84.568 c -7.959,3.079 -19.082,3.626 -28.885,3.299 19.299,-1.355 31.621,-11.15 31.621,-21.612 0,-9.83 -7.233,-19.846 -20.958,-19.846 -11.911,0 -19.36,8.352 -21.123,10.559 -0.013,0.009 -0.021,0.013 -0.021,0.013 l 6.77,-17.99 c 0,0 6.491,-0.046 11.314,-0.046 1.253,0 3.371,-0.017 5.819,-0.268 C 54.85,37.962 64.5,35.338 64.5,25.729 64.5,12.747 48.689,8.806 28.612,8.806 c -5.508,0 -10.978,0.561 -15.775,1.295 l -0.002,10e-4 10e-4,-0.01 c 0,0 12.19,-2.385 24.74,-2.385 12.55,0 37.866,0.727 38.454,19.723 0.382,12.347 -11.252,14.898 -14.498,15.918 v 0.324 c 0,0 10.201,0.789 16.414,9.69 6.213,8.905 3.014,24.39 -14.605,31.206 z"
   id="path16"
   style="fill:url(#SVGID_1_)" />
	<linearGradient
   id="SVGID_2_"
   gradientUnits="userSpaceOnUse"
   x1="9.6332998"
   y1="47.753399"
   x2="128.9258"
   y2="47.753399">
		<stop
   offset="0"
   style="stop-color:#B7D1E1"
   id="stop17" />
		<stop
   offset="0.1201"
   style="stop-color:#B0C9D8"
   id="stop18" />
		<stop
   offset="0.3"
   style="stop-color:#A0B6C2"
   id="stop19" />
		<stop
   offset="0.3259"
   style="stop-color:#8EA2AD"
   id="stop20" />
		<stop
   offset="0.3631"
   style="stop-color:#7B8B95"
   id="stop21" />
		<stop
   offset="0.4027"
   style="stop-color:#6D7B84"
   id="stop22" />
		<stop
   offset="0.4461"
   style="stop-color:#65717A"
   id="stop23" />
		<stop
   offset="0.5"
   style="stop-color:#626E77"
   id="stop24" />
		<stop
   offset="0.5539"
   style="stop-color:#65717A"
   id="stop25" />
		<stop
   offset="0.5973"
   style="stop-color:#6D7B84"
   id="stop26" />
		<stop
   offset="0.6369"
   style="stop-color:#7B8B95"
   id="stop27" />
		<stop
   offset="0.6741"
   style="stop-color:#8EA2AD"
   id="stop28" />
		<stop
   offset="0.7"
   style="stop-color:#A0B6C2"
   id="stop29" />
		<stop
   offset="0.7567"
   style="stop-color:#A7BECB"
   id="stop30" />
		<stop
   offset="0.8945"
   style="stop-color:#B3CCDB"
   id="stop31" />
		<stop
   offset="1"
   style="stop-color:#B7D1E1"
   id="stop32" />
	</linearGradient>
	<path
   fill="url(#SVGID_2_)"
   d="m 126.412,85.247 c -4.559,1.539 -9.52,2.335 -14.711,2.335 -12.952,0 -24.477,-4.953 -31.857,-14.046 0.816,-1.443 1.473,-2.961 1.955,-4.541 1.801,-5.903 0.951,-11.988 -2.332,-16.692 -2.375,-3.404 -5.27,-5.705 -8.03,-7.264 0.081,-1.517 0.229,-2.993 0.442,-4.427 3.363,-2.62 6.206,-6.727 6.004,-13.239 -0.026,-0.834 -0.096,-1.644 -0.207,-2.43 7.164,-10.981 19.725,-17.018 34.025,-17.018 4.563,0 8.947,0.616 13.037,1.81 -1.301,-0.154 -2.605,-0.233 -3.902,-0.233 -9.033,0 -17.209,3.414 -23.023,9.614 -6.384,6.806 -9.758,16.688 -9.758,28.577 0,26.274 16.463,38.035 32.781,38.035 1.867,0 3.733,-0.164 5.576,-0.481 z M 14.98,29.531 c 0,0 8.3,-7.696 21.561,-7.696 13.261,0 15.255,6.213 15.255,9.365 0,2.21 -0.938,4.046 -1.896,5.346 8.458,-1.326 12.746,-4.958 12.746,-10.816 0,-5.3 -3.027,-9.098 -9.254,-11.61 -5.687,-2.295 -14.023,-3.459 -24.779,-3.459 -4.737,0 -9.928,0.426 -15.428,1.266 l -0.631,0.144 -2.92,20.368 C 9.633,32.438 12.601,30.677 14.98,29.531 Z M 56,62.174 c 0,5.873 -6.121,9.767 -18.485,9.767 -12.364,0 -22.256,-9.52 -22.256,-9.52 l -5.069,-2.102 2.382,25.168 c 3.604,0.278 8.726,0.535 15.983,0.674 0.434,0.008 0.862,0.012 1.291,0.012 21.518,0 34.376,-10.128 34.376,-19.918 0,-8.94 -6.562,-17.99 -19.104,-17.99 -7.497,0 -13.149,3.638 -16.504,6.591 2.961,-1.068 7.188,-2.141 12.239,-2.141 10.077,0 15.147,3.586 15.147,9.459 z m 59.133,7.279 c 0.406,0 0.092,-9.211 5.912,-15.97 2.102,-2.443 5.149,-4.104 7.881,-5.08 0,0 -0.787,-8.682 -1.418,-13.589 h -0.275 c 0,0 -0.382,5.969 -2.037,10.927 0,0 -0.456,-0.138 -1.215,-0.332 -2.33,-7.987 -2.582,-15.211 -2.582,-15.211 h -0.354 c -0.555,7.856 -1.475,12.403 -1.917,14.241 -0.494,-0.071 -1,-0.132 -1.512,-0.181 -0.209,-0.916 -0.599,-2.763 -1.026,-5.417 -0.63,-3.92 -0.828,-6.666 -0.984,-9.084 -0.158,-2.417 -0.197,-4.029 -0.473,-4.029 -0.277,0 -0.316,1.612 -0.474,4.029 -0.159,2.418 -0.354,5.164 -0.986,9.084 -0.426,2.654 -0.815,4.501 -1.024,5.417 -0.512,0.049 -1.018,0.109 -1.512,0.181 -0.443,-1.838 -1.363,-6.385 -1.916,-14.241 h -0.355 c 0,0 -0.25,7.224 -2.581,15.211 -0.76,0.194 -1.216,0.332 -1.216,0.332 -1.655,-4.958 -2.036,-10.927 -2.036,-10.927 h -0.276 c -0.629,4.907 -1.418,13.589 -1.418,13.589 2.732,0.977 5.78,2.637 7.883,5.08 5.817,6.759 5.503,15.97 5.911,15.97 z"
   id="path32"
   style="fill:url(#SVGID_2_)" />
</g>
</svg>
