<?xml version="1.0" encoding="utf-8"?>
<!-- Generator: Adobe Illustrator 15.1.0, SVG Export Plug-In . SVG Version: 6.00 Build 0)  -->
<!DOCTYPE svg PUBLIC "-//W3C//DTD SVG 1.1//EN" "http://www.w3.org/Graphics/SVG/1.1/DTD/svg11.dtd">
<svg version="1.1" id="Layer_1" xmlns="http://www.w3.org/2000/svg" xmlns:xlink="http://www.w3.org/1999/xlink" x="0px" y="0px"
	 width="160px" height="95px" viewBox="0 0 160 95" enable-background="new 0 0 160 95" xml:space="preserve">
<g id="Layer_1_1_">
</g>
<g id="Layer_3" display="none">
</g>
<g>
	<path d="M89.393,47.307c0,25.673,15.629,38.109,32.576,38.109c6.533,0,13.246-2.012,19.032-5.892
		c8.502-7.181,13.836-18.112,13.836-32.153c0-15.254-6.296-26.839-16.108-33.93c-5.18-2.903-10.982-4.408-16.76-4.408
		C104.532,9.033,89.393,21.633,89.393,47.307z M138.231,46.346c0,18.069-8.89,27.545-22.271,27.545
		c-13.382,0-22.271-9.865-22.271-27.545s8.889-27.545,22.271-27.545C129.342,18.801,138.231,28.274,138.231,46.346z M61.408,86.148
		c-8.383,3.243-20.099,3.819-30.425,3.475C51.311,88.195,64.29,77.878,64.29,66.858c0-10.354-7.619-20.904-22.075-20.904
		c-12.546,0-20.393,8.797-22.249,11.122c-0.014,0.009-0.021,0.014-0.021,0.014l7.13-18.95c0,0,6.837-0.048,11.917-0.048
		c1.32,0,3.551-0.018,6.13-0.282c7.343-0.753,17.508-3.517,17.508-13.638c0-13.674-16.654-17.825-37.801-17.825
		c-5.802,0-11.563,0.591-16.616,1.364L8.209,7.712l0.001-0.01c0,0,12.841-2.513,26.059-2.513c13.219,0,39.885,0.766,40.504,20.774
		c0.402,13.005-11.852,15.693-15.271,16.767v0.342c0,0,10.745,0.831,17.289,10.207C83.336,62.657,79.967,78.969,61.408,86.148z"/>
	<path d="M127.843,86.863c-4.802,1.621-10.028,2.46-15.497,2.46c-13.642,0-25.78-5.218-33.555-14.795
		c0.859-1.521,1.55-3.119,2.059-4.783c1.898-6.219,1.003-12.628-2.456-17.583c-2.502-3.586-5.551-6.009-8.458-7.65
		c0.084-1.598,0.241-3.153,0.466-4.663c3.542-2.76,6.537-7.085,6.325-13.945c-0.027-0.878-0.101-1.731-0.218-2.56
		c7.544-11.566,20.777-17.926,35.837-17.926c4.807,0,9.426,0.649,13.734,1.906c-1.371-0.162-2.744-0.246-4.111-0.246
		c-9.514,0-18.127,3.597-24.252,10.127c-6.723,7.169-10.277,17.578-10.277,30.102c0,27.675,17.342,40.063,34.529,40.063
		C123.936,87.369,125.901,87.197,127.843,86.863z M10.469,28.177c0,0,8.743-8.106,22.71-8.106s16.068,6.544,16.068,9.864
		c0,2.328-0.989,4.262-1.998,5.631c8.909-1.396,13.426-5.223,13.426-11.394c0-5.582-3.189-9.582-9.748-12.229
		C44.938,9.525,36.157,8.3,24.828,8.3c-4.99,0-10.457,0.448-16.251,1.333l-0.665,0.15L4.837,31.238
		C4.837,31.238,7.962,29.383,10.469,28.177z M53.675,62.56c0,6.187-6.447,10.288-19.471,10.288S10.762,62.82,10.762,62.82
		l-5.339-2.214l2.509,26.51c3.796,0.293,9.191,0.563,16.836,0.71c0.457,0.008,0.908,0.013,1.359,0.013
		c22.666,0,36.209-10.668,36.209-20.98c0-9.417-6.912-18.949-20.122-18.949c-7.896,0-13.851,3.831-17.385,6.942
		c3.119-1.126,7.572-2.255,12.892-2.255C48.335,52.597,53.675,56.374,53.675,62.56z M115.961,70.228
		c0.429,0,0.097-9.702,6.228-16.821c2.214-2.574,5.425-4.322,8.302-5.352c0,0-0.83-9.145-1.494-14.313h-0.291
		c0,0-0.4,6.287-2.145,11.51c0,0-0.48-0.146-1.28-0.35c-2.454-8.413-2.72-16.022-2.72-16.022h-0.372
		c-0.584,8.275-1.552,13.065-2.019,15.001c-0.521-0.075-1.054-0.139-1.593-0.19c-0.22-0.965-0.63-2.91-1.081-5.706
		c-0.663-4.129-0.872-7.021-1.037-9.568c-0.167-2.546-0.208-4.244-0.498-4.244c-0.291,0-0.333,1.698-0.498,4.244
		c-0.168,2.547-0.373,5.439-1.039,9.568c-0.449,2.796-0.859,4.741-1.08,5.706c-0.539,0.052-1.071,0.115-1.592,0.19
		c-0.467-1.936-1.436-6.726-2.018-15.001h-0.375c0,0-0.264,7.609-2.719,16.022c-0.8,0.204-1.279,0.35-1.279,0.35
		c-1.744-5.223-2.146-11.51-2.146-11.51h-0.292c-0.662,5.169-1.492,14.313-1.492,14.313c2.877,1.029,6.088,2.777,8.303,5.352
		C115.863,60.525,115.531,70.228,115.961,70.228z"/>
</g>
</svg>
