<?xml version="1.0" encoding="UTF-8" standalone="no"?>
<!-- Generator: Adobe Illustrator 15.1.0, SVG Export Plug-In . SVG Version: 6.00 Build 0)  -->

<svg
   version="1.1"
   id="Layer_1"
   x="0px"
   y="0px"
   width="150"
   height="84.521324"
   viewBox="0 0 150 84.521324"
   enable-background="new 0 0 160 95"
   xml:space="preserve"
   xmlns="http://www.w3.org/2000/svg"
   xmlns:svg="http://www.w3.org/2000/svg"><defs
   id="defs2" />
<g
   id="Layer_1_1_"
   transform="translate(-4.837,-5.189)">
</g>
<g
   id="Layer_3"
   display="none"
   transform="translate(-4.837,-5.189)">
</g>
<g
   id="g2"
   transform="translate(-4.837,-5.189)">
	<path
   d="m 89.393,47.307 c 0,25.673 15.629,38.109 32.576,38.109 6.533,0 13.246,-2.012 19.032,-5.892 8.502,-7.181 13.836,-18.112 13.836,-32.153 0,-15.254 -6.296,-26.839 -16.108,-33.93 -5.18,-2.903 -10.982,-4.408 -16.76,-4.408 -17.437,0 -32.576,12.6 -32.576,38.274 z m 48.838,-0.961 c 0,18.069 -8.89,27.545 -22.271,27.545 -13.382,0 -22.271,-9.865 -22.271,-27.545 0,-17.68 8.889,-27.545 22.271,-27.545 13.382,0 22.271,9.473 22.271,27.545 z M 61.408,86.148 C 53.025,89.391 41.309,89.967 30.983,89.623 51.311,88.195 64.29,77.878 64.29,66.858 c 0,-10.354 -7.619,-20.904 -22.075,-20.904 -12.546,0 -20.393,8.797 -22.249,11.122 -0.014,0.009 -0.021,0.014 -0.021,0.014 l 7.13,-18.95 c 0,0 6.837,-0.048 11.917,-0.048 1.32,0 3.551,-0.018 6.13,-0.282 C 52.465,37.057 62.63,34.293 62.63,24.172 62.63,10.498 45.976,6.347 24.829,6.347 19.027,6.347 13.266,6.938 8.213,7.711 L 8.209,7.712 8.21,7.702 c 0,0 12.841,-2.513 26.059,-2.513 13.219,0 39.885,0.766 40.504,20.774 0.402,13.005 -11.852,15.693 -15.271,16.767 v 0.342 c 0,0 10.745,0.831 17.289,10.207 6.545,9.378 3.176,25.69 -15.383,32.869 z"
   id="path1" />
	<path
   d="m 127.843,86.863 c -4.802,1.621 -10.028,2.46 -15.497,2.46 -13.642,0 -25.78,-5.218 -33.555,-14.795 0.859,-1.521 1.55,-3.119 2.059,-4.783 1.898,-6.219 1.003,-12.628 -2.456,-17.583 -2.502,-3.586 -5.551,-6.009 -8.458,-7.65 0.084,-1.598 0.241,-3.153 0.466,-4.663 3.542,-2.76 6.537,-7.085 6.325,-13.945 -0.027,-0.878 -0.101,-1.731 -0.218,-2.56 7.544,-11.566 20.777,-17.926 35.837,-17.926 4.807,0 9.426,0.649 13.734,1.906 -1.371,-0.162 -2.744,-0.246 -4.111,-0.246 -9.514,0 -18.127,3.597 -24.252,10.127 -6.723,7.169 -10.277,17.578 -10.277,30.102 0,27.675 17.342,40.063 34.529,40.063 1.967,-0.001 3.932,-0.173 5.874,-0.507 z M 10.469,28.177 c 0,0 8.743,-8.106 22.71,-8.106 13.967,0 16.068,6.544 16.068,9.864 0,2.328 -0.989,4.262 -1.998,5.631 8.909,-1.396 13.426,-5.223 13.426,-11.394 0,-5.582 -3.189,-9.582 -9.748,-12.229 C 44.938,9.525 36.157,8.3 24.828,8.3 19.838,8.3 14.371,8.748 8.577,9.633 L 7.912,9.783 4.837,31.238 c 0,0 3.125,-1.855 5.632,-3.061 z M 53.675,62.56 c 0,6.187 -6.447,10.288 -19.471,10.288 C 21.18,72.848 10.762,62.82 10.762,62.82 l -5.339,-2.214 2.509,26.51 c 3.796,0.293 9.191,0.563 16.836,0.71 0.457,0.008 0.908,0.013 1.359,0.013 22.666,0 36.209,-10.668 36.209,-20.98 0,-9.417 -6.912,-18.949 -20.122,-18.949 -7.896,0 -13.851,3.831 -17.385,6.942 3.119,-1.126 7.572,-2.255 12.892,-2.255 10.614,0 15.954,3.777 15.954,9.963 z m 62.286,7.668 c 0.429,0 0.097,-9.702 6.228,-16.821 2.214,-2.574 5.425,-4.322 8.302,-5.352 0,0 -0.83,-9.145 -1.494,-14.313 h -0.291 c 0,0 -0.4,6.287 -2.145,11.51 0,0 -0.48,-0.146 -1.28,-0.35 -2.454,-8.413 -2.72,-16.022 -2.72,-16.022 h -0.372 c -0.584,8.275 -1.552,13.065 -2.019,15.001 -0.521,-0.075 -1.054,-0.139 -1.593,-0.19 -0.22,-0.965 -0.63,-2.91 -1.081,-5.706 -0.663,-4.129 -0.872,-7.021 -1.037,-9.568 -0.167,-2.546 -0.208,-4.244 -0.498,-4.244 -0.291,0 -0.333,1.698 -0.498,4.244 -0.168,2.547 -0.373,5.439 -1.039,9.568 -0.449,2.796 -0.859,4.741 -1.08,5.706 -0.539,0.052 -1.071,0.115 -1.592,0.19 -0.467,-1.936 -1.436,-6.726 -2.018,-15.001 h -0.375 c 0,0 -0.264,7.609 -2.719,16.022 -0.8,0.204 -1.279,0.35 -1.279,0.35 -1.744,-5.223 -2.146,-11.51 -2.146,-11.51 h -0.292 c -0.662,5.169 -1.492,14.313 -1.492,14.313 2.877,1.029 6.088,2.777 8.303,5.352 6.129,7.118 5.797,16.821 6.227,16.821 z"
   id="path2" />
</g>
</svg>
