<?xml version="1.0" encoding="UTF-8" standalone="no"?>
<svg
   version="1.1"
   width="564.40381"
   height="418.82635"
   id="svg1"
   xmlns="http://www.w3.org/2000/svg"
   xmlns:svg="http://www.w3.org/2000/svg">
  <defs
     id="defs1" />
  <path
     d="m 435.97114,281.90649 15.04289,-92.75691 -74.78271,54.89973 c -18.41731,-8.07817 -38.08442,-13.884 -58.22871,-17.16753 l -34.80089,-85.25819 -34.39186,84.32653 c -21.48498,2.91996 -42.3905,8.78259 -61.9099,17.16753 l -73.49884,-53.96807 14.73613,90.98449 c -34.573656,30.75612 -56.808499,72.33994 -56.808499,120.13861 0,0 3.056297,17.57655 12.872803,17.57655 16.815316,0 48.503096,-103.00517 195.012216,-103.00517 146.58865,0 183.2074,103.98228 200.02272,103.98228 9.31659,0 13.84991,-17.83787 13.84991,-17.83787 0,-47.09425 -22.46208,-88.28041 -57.11526,-119.08198 m 128.43265,0.27268 c 0,0 -1.99966,27.12038 -16.15634,27.12038 -15.3951,0 -9.00982,-13.31591 -16.19042,-31.82412 C 494.59751,180.45788 403.2608,115.87797 281.47474,115.87797 c -121.78605,0 -213.213648,65.23888 -249.071172,161.46112 -8.703062,23.34829 -1.681532,31.59689 -16.553997,31.59689 C 1.022553,308.93598 0,282.17917 0,282.17917 0,126.35346 101.01687,0 282.22462,0 463.39828,0 564.40379,126.35346 564.40379,282.17917"
     id="path1" />
</svg>
