<svg xmlns="http://www.w3.org/2000/svg" xml:space="preserve" width="143.998" height="118.102"><g transform="translate(-3.338 -6.196)"><path d="M89.229 124.297c-26.165-.001-51.614-10.779-69.822-29.57-1.063-1.097-1.647-2.57-1.606-4.044.038-1.382.605-2.651 1.599-3.57l6.497-6.058a5.16 5.16 0 0 1 3.52-1.377 5.36 5.36 0 0 1 3.169 1.05c1.677-2.681 4.191-5.564 7.923-7.775L3.338 63.349h57.007l2.814-7.729c1.428-3.924.835-4.53-2.014-7.436-1.731-1.768-3.887-3.967-5.813-7.421-3.067-5.501-3.366-10.77-2.794-14.855-2.513-.152-4.596-2.051-4.912-4.536l-1.086-8.846c-.167-1.332.212-2.667 1.073-3.75.917-1.155 2.312-1.907 3.828-2.064a98 98 0 0 1 10.005-.516c26.164 0 51.613 10.777 69.823 29.571 1.059 1.093 1.646 2.565 1.604 4.039a5 5 0 0 1-1.598 3.574l-6.498 6.06a5.16 5.16 0 0 1-3.518 1.376 5.35 5.35 0 0 1-3.171-1.052c-1.677 2.683-4.192 5.567-7.924 7.778l37.172 9.604-57.006-.004-2.813 7.73c-1.429 3.925-.835 4.528 2.014 7.437 1.731 1.767 3.888 3.966 5.813 7.421 3.067 5.5 3.365 10.769 2.791 14.856 2.517.153 4.6 2.051 4.915 4.537l1.085 8.845c.169 1.329-.212 2.668-1.074 3.751-.917 1.153-2.312 1.905-3.828 2.062a97 97 0 0 1-9.998.517z"/><linearGradient id="a" x1="35.94" x2="114.735" y1="50.906" y2="79.585" gradientUnits="userSpaceOnUse"><stop offset="0" style="stop-color:#bb2c26"/><stop offset=".041" style="stop-color:#bf3526"/><stop offset=".109" style="stop-color:#cb4d25"/><stop offset=".194" style="stop-color:#de7523"/><stop offset=".2" style="stop-color:#e07823"/><stop offset=".208" style="stop-color:#e17a23"/><stop offset=".292" style="stop-color:#ee8b1f"/><stop offset=".385" style="stop-color:#f5951e"/><stop offset=".5" style="stop-color:#f7981d"/><stop offset=".615" style="stop-color:#f5951e"/><stop offset=".708" style="stop-color:#ee8b1f"/><stop offset=".792" style="stop-color:#e17a23"/><stop offset=".8" style="stop-color:#e07823"/><stop offset=".848" style="stop-color:#d35d24"/><stop offset=".907" style="stop-color:#c64225"/><stop offset=".96" style="stop-color:#be3226"/><stop offset="1" style="stop-color:#bb2c26"/></linearGradient><path fill="url(#a)" d="M100.453 118.419q-.54-4.415-1.083-8.831c-.104-.813-.882-1.384-1.738-1.296a82 82 0 0 1-4.321.326c1.354-3.616 2.68-10.117-1.205-17.083-4.818-8.642-11.496-8.525-8.072-17.931l2.383-6.547-53.905-.002 22.213 5.739c-2.496.263-5.484.424-9.128 1.813-7.454 2.838-10.615 8.67-11.905 12.311a81 81 0 0 1-3.101-3.029c-.599-.619-1.563-.679-2.164-.124l-6.507 6.069c-.602.555-.54 1.598.151 2.312a93.52 93.52 0 0 0 76.782 27.945c.988-.101 1.704-.86 1.6-1.672M56.871 93.312c-7.975 6.369-15.567-.107-15.567-.107 1.766-6.921 7.122-10.871 15.076-11.54 9.627-.809 12.8-7.178 12.8-7.178-3.036 9.244-5.132 13.09-12.309 18.825m26.567 15.228s-9.98.08-11.994-9.925c-1.813-9.006-.946-13.297 2.671-22.333 0 0-1.664 6.919 5.191 13.727 5.665 5.624 7.228 12.094 4.132 18.531m33.547-64.967a85 85 0 0 1 3.102 3.028c.598.619 1.562.681 2.163.124q3.255-3.032 6.507-6.067c.602-.557.54-1.599-.15-2.312a93.53 93.53 0 0 0-76.783-27.948c-.987.102-1.705.861-1.602 1.674l1.084 8.832c.103.812.881 1.386 1.738 1.295a82 82 0 0 1 4.321-.328c-1.353 3.619-2.679 10.118 1.207 17.085 4.819 8.642 11.496 8.524 8.072 17.931l-2.383 6.548h53.905l-22.213-5.74c2.495-.262 5.483-.424 9.129-1.811 7.452-2.839 10.613-8.67 11.903-12.311m-14.859 1.603c-2.132.915-12.329-1.765-15.828-3.04l-5.613-2.044c-3.499-1.271-11.92-5.37-12.966-7.442-2.421-4.8-.772-7.104-.032-9.142.117-.321.358-.823.684-1.44a81.7 81.7 0 0 1 40.059 14.58c-.148.683-.287 1.221-.403 1.543-.741 2.037-.961 4.863-5.901 6.985" style="fill:url(#a)"/></g></svg>