<svg xmlns="http://www.w3.org/2000/svg" xml:space="preserve" width="143.999" height="118.104"><g transform="translate(-3.011 -6.194)"><path d="M88.903 124.297c-26.165-.001-51.614-10.779-69.822-29.57-1.063-1.097-1.647-2.57-1.606-4.044.038-1.382.605-2.651 1.599-3.57l6.497-6.058a5.16 5.16 0 0 1 3.52-1.377 5.36 5.36 0 0 1 3.169 1.05c1.677-2.681 4.191-5.564 7.923-7.775L3.011 63.349h57.007l2.814-7.729c1.428-3.924.835-4.53-2.014-7.436-1.731-1.768-3.887-3.967-5.813-7.421-3.067-5.501-3.366-10.77-2.794-14.855-2.513-.152-4.596-2.051-4.912-4.536l-1.086-8.846c-.167-1.332.212-2.667 1.073-3.75.919-1.156 2.314-1.908 3.829-2.066a98 98 0 0 1 10.005-.516c26.165 0 51.614 10.777 69.823 29.571 1.059 1.093 1.646 2.565 1.606 4.039a5 5 0 0 1-1.6 3.574l-6.498 6.06a5.15 5.15 0 0 1-3.518 1.376 5.35 5.35 0 0 1-3.171-1.052c-1.677 2.683-4.19 5.567-7.924 7.778l37.172 9.604-57.008-.002-2.814 7.73c-1.427 3.925-.834 4.528 2.014 7.437 1.733 1.767 3.888 3.966 5.813 7.421 3.068 5.5 3.366 10.769 2.794 14.856 2.515.153 4.598 2.051 4.913 4.537l1.085 8.845c.169 1.329-.212 2.668-1.072 3.751-.917 1.153-2.313 1.905-3.83 2.062-3.31.343-6.674.517-9.998.517z"/><linearGradient id="a" x1="35.614" x2="114.41" y1="50.906" y2="79.585" gradientUnits="userSpaceOnUse"><stop offset="0" style="stop-color:#626e77"/><stop offset=".042" style="stop-color:#697780"/><stop offset=".11" style="stop-color:#7d8e98"/><stop offset=".195" style="stop-color:#9eb4c0"/><stop offset=".2" style="stop-color:#a0b6c2"/><stop offset=".204" style="stop-color:#a1b7c3"/><stop offset=".29" style="stop-color:#adc6d4"/><stop offset=".383" style="stop-color:#b5cede"/><stop offset=".5" style="stop-color:#b7d1e1"/><stop offset=".617" style="stop-color:#b5cede"/><stop offset=".71" style="stop-color:#adc6d4"/><stop offset=".796" style="stop-color:#a1b7c3"/><stop offset=".8" style="stop-color:#a0b6c2"/><stop offset=".846" style="stop-color:#8b9da8"/><stop offset=".906" style="stop-color:#74838d"/><stop offset=".959" style="stop-color:#67747d"/><stop offset="1" style="stop-color:#626e77"/></linearGradient><path fill="url(#a)" d="m100.129 118.419-1.085-8.831c-.102-.813-.882-1.384-1.738-1.296q-2.161.22-4.32.326c1.352-3.616 2.678-10.117-1.207-17.083-4.817-8.642-11.496-8.525-8.072-17.931l2.383-6.547-53.904-.002 22.213 5.739c-2.496.263-5.484.424-9.128 1.813-7.454 2.838-10.615 8.67-11.905 12.311a80 80 0 0 1-3.1-3.029c-.599-.619-1.563-.679-2.164-.124l-6.507 6.069c-.602.555-.54 1.598.151 2.312a93.52 93.52 0 0 0 76.783 27.945c.986-.101 1.701-.86 1.6-1.672M56.544 93.312c-7.975 6.369-15.567-.107-15.567-.107 1.766-6.921 7.123-10.871 15.076-11.54 9.628-.809 12.8-7.178 12.8-7.178-3.035 9.244-5.131 13.09-12.309 18.825m26.567 15.228s-9.98.08-11.994-9.925c-1.813-9.006-.946-13.297 2.671-22.333 0 0-1.663 6.919 5.193 13.727 5.663 5.624 7.228 12.094 4.13 18.531m33.548-64.967a84 84 0 0 1 3.102 3.028c.6.619 1.562.681 2.163.124q3.255-3.032 6.509-6.067c.6-.557.54-1.599-.152-2.312a93.53 93.53 0 0 0-76.784-27.948c-.987.102-1.705.861-1.602 1.674l1.084 8.832c.103.812.881 1.386 1.738 1.295a82 82 0 0 1 4.321-.328c-1.353 3.619-2.679 10.118 1.207 17.085 4.819 8.642 11.496 8.524 8.072 17.931l-2.383 6.548h53.907l-22.216-5.74c2.496-.262 5.486-.424 9.13-1.811 7.455-2.839 10.616-8.67 11.904-12.311m-14.857 1.603c-2.134.915-12.332-1.765-15.831-3.04l-5.613-2.044c-3.499-1.271-11.92-5.37-12.965-7.442-2.421-4.8-.773-7.104-.031-9.142.116-.321.358-.823.683-1.44a81.7 81.7 0 0 1 40.06 14.58c-.148.683-.285 1.221-.403 1.543-.742 2.037-.962 4.863-5.9 6.985" style="fill:url(#a)"/></g></svg>