<svg xmlns="http://www.w3.org/2000/svg" xml:space="preserve" width="116.723" height="120"><path d="M85.591 117.647q-.587-4.786-1.176-9.574c-.11-.88-.955-1.5-1.884-1.404a89 89 0 0 1-4.686.354c1.468-3.923 2.904-10.969-1.308-18.52-5.223-9.37-12.463-9.243-8.75-19.44l2.583-7.099-58.44-.002 24.082 6.222c-2.706.285-5.947.46-9.897 1.965-8.08 3.078-11.509 9.4-12.906 13.348a88 88 0 0 1-3.36-3.284c-.65-.67-1.695-.737-2.347-.134L.446 86.66c-.65.602-.584 1.731.165 2.505a101.4 101.4 0 0 0 83.244 30.298c1.071-.11 1.847-.934 1.736-1.815M38.34 90.427c-8.645 6.905-16.877-.117-16.877-.117 1.914-7.502 7.722-11.786 16.345-12.51 10.437-.878 13.877-7.782 13.877-7.782-3.29 10.023-5.563 14.192-13.345 20.41m28.804 16.51s-10.82.087-13.003-10.759c-1.966-9.764-1.025-14.418 2.896-24.213 0 0-1.804 7.5 5.628 14.881 6.14 6.098 7.835 13.112 4.48 20.09m36.371-70.435a90 90 0 0 1 3.361 3.284c.65.67 1.693.738 2.346.134l7.055-6.579c.651-.603.585-1.733-.164-2.506A101.4 101.4 0 0 0 32.868.538c-1.07.11-1.849.933-1.737 1.815l1.175 9.574c.112.881.955 1.502 1.884 1.406a89 89 0 0 1 4.685-.356C37.41 16.9 35.971 23.947 40.183 31.5c5.224 9.37 12.463 9.242 8.752 19.44l-2.584 7.097 58.441.001-24.082-6.222c2.704-.285 5.945-.459 9.896-1.964 8.082-3.079 11.51-9.4 12.908-13.349m-16.11 1.74c-2.313.991-13.368-1.914-17.16-3.295l-6.087-2.216c-3.794-1.379-12.924-5.822-14.057-8.068-2.625-5.205-.838-7.703-.034-9.912.127-.349.39-.893.741-1.56A88.57 88.57 0 0 1 94.24 28.996c-.162.74-.312 1.323-.438 1.673-.804 2.207-1.04 5.27-6.398 7.571"/></svg>