<?xml version="1.0" encoding="UTF-8" standalone="no"?>
<!-- Generator: Adobe Illustrator 15.1.0, SVG Export Plug-In . SVG Version: 6.00 Build 0)  -->

<svg
   version="1.1"
   id="Layer_1"
   x="0px"
   y="0px"
   width="340.30658"
   height="420.603"
   viewBox="0 0 340.2973 420.603"
   enable-background="new 0 0 375 460"
   xml:space="preserve"
   xmlns="http://www.w3.org/2000/svg"
   xmlns:svg="http://www.w3.org/2000/svg"><defs
   id="defs13">
	
	
	
</defs>
<path
   id="path2"
   style="stroke-width:1"
   d="m 168.24844,0 c -10.39,0.195 -18.68,3.146 -24.89,8.859 v 180.844 l 0.57,0.4 c 6.2,4.28 14.94,6.41 26.23,6.41 11.29,0 20.03,-2.13 26.22,-6.41 l 0.57,-0.4 V 8.859 c -6.21,-5.713 -14.5,-8.664 -24.89,-8.859 h -0.94 -0.96 -0.96 z m -33.9,13.599 C 86.978439,18.716 48.610439,31.045 19.214439,50.576 v 28.078 l 2.216,1.752 c 20.042,15.677 42.097,30.167 66.138,43.477 v -35.02 -0.69 c -0.03,-13.102 7.69,-23.742 23.160001,-31.913 1.87,-16.23 9.73,-27.445 23.62,-33.647 v -9.012 z m 71.58,0 v 9.016 c 13.89,6.203 21.77,17.415 23.63,33.645 15.48,8.172 23.16,18.812 23.16,31.913 v 0.69 35.01 c 24.05,-13.3 46.11,-27.79 66.15,-43.477 l 2.22,-1.742 V 50.578 c -29.4,-19.532 -67.78,-31.859 -115.15,-36.977 z m 0.01,19.614 v 0.002 149.908 c 6.34,-4.61 10.75,-12.67 13.22,-24.16 V 54.662 c -1.95,-10.247 -6.35,-17.397 -13.22,-21.449 z m -71.59,0.002 c -6.86,4.05 -11.27,11.2 -13.23,21.447 v 104.291 c 2.48,11.5 6.89,19.56 13.23,24.17 z m -23.62,35.525 c -9.02,4.333 -13.520001,11.716 -13.520001,22.163 v 37.49 c 4.530001,2.95 9.050001,5.96 13.520001,9.01 z m 118.83,0 v 68.663 c 4.49,-3.05 9,-6.06 13.53,-9.02 v -37.48 c 0,-10.447 -4.5,-17.83 -13.53,-22.163 z m -226.6610009,6.846 -0.506,1.869 c -3.754,13.838 -3.09500003,27.878 1.959,41.738 5.14,14.09 24.2779999,30.38 58.5489999,49.78 6.081,3.16 7.518,6.35 7.262,7.4 -0.144,0.57 -1.027,0.67 -1.543,0.67 -0.838,0 -2.317,-0.22 -4.651,-1.33 -13.028,-5.44 -29.479,-15.93 -48.898,-31.19 l -1.766,-1.39 -0.265,2.23 c -2.963,24.78 2.221,42.32 15.39,52.12 7.82,6.07 24.956,12.8 52.428,20.6 2.049,0.51 2.899,1.75 2.799,2.43 -0.07,0.61 -0.99,1.01 -2.33,1.01 h -0.709 c -16.731,-2.12 -32.169,-6.64 -45.887,-13.44 l -1.935,-0.96 0.115,2.16 c 1.075,20.06 8.656,32.56 22.564,37.14 6.518,1.98 24.399,2.69 38.955,2.69 15.110001,0 21.260001,4.19 25.830001,8.1 l 0.93,0.82 c 2.54,2.17 6.65,6.4 12.22,12.58 l 1.91,2.19 0.29,-2.83 c 1.94,-19.21 13.27,-29.22 34.45,-30.62 21.36,1.4 32.69,11.41 34.63,30.62 l 0.29,2.83 1.9,-2.11 c 5.58,-6.18 9.69,-10.41 12.24,-12.6 5.27,-4.69 11.28,-8.9 26.74,-8.9 4.21,0 8.79,-0.06 13.33,-0.2 l 1.8,-0.1 c 8.18,-0.28 18.96,-0.93 23.87,-2.43 13.87,-4.58 21.45,-17.08 22.53,-37.15 l 0.11,-2.15 -1.93,0.96 c -13.73,6.8 -29.16,11.32 -45.84,13.43 h -0.76 c -1.34,0 -2.23,-0.4 -2.33,-1.01 -0.08,-0.68 0.75,-1.92 2.84,-2.44 27.43,-7.79 44.57,-14.52 52.37,-20.57 13.19,-9.82 18.37,-27.36 15.41,-52.14 l -0.27,-2.23 -1.76,1.39 c -19.41,15.25 -35.86,25.74 -48.96,31.22 -2.28,1.08 -3.75,1.3 -4.59,1.3 -0.52,0 -1.4,-0.09 -1.55,-0.67 -0.25,-1.05 1.19,-4.24 7.31,-7.42 34.23,-19.42 53.37,-35.7 58.51,-49.79 5.05,-13.86 5.71,-27.9 1.96,-41.738 l -0.51,-1.869 -1.51,1.217 c -33.51,27.13 -65.41,48.63 -94.83,63.92 -5.71,3 -9.19,5.59 -10.69,8 -1.91,3.48 -2.06,8.21 -2.06,13.14 0,19.6 -25,42.73 -57.21,43.19 h -0.96 c -32.75,0 -58.16,-23.21 -58.16,-43.19 0,-4.94 -0.15,-9.66 -2.09,-13.2 -1.47,-2.35 -4.96,-4.94 -10.670001,-7.95 -29.4,-15.27 -61.301,-36.78 -94.8149999,-63.909 z m 4.311,12.067 c 31.2989999,24.78 61.2009999,44.63 88.8999999,59.02 6.660001,3.5 7.930001,5.35 8.030001,5.48 1.11,2.05 1.11,6.66 1.11,9.71 0,25.65 31.54,49.91 64.9,49.91 h 1 c 33.43,-0.48 63.88,-24.27 63.88,-49.91 0,-3.23 0,-7.66 1.19,-9.83 0.01,-0.02 1.35,-1.88 7.97,-5.36 27.71,-14.39 57.6,-34.24 88.9,-59.01 1.24,9.71 0.07,19.53 -3.45,29.21 -4.51,12.35 -23.19,27.91 -55.47,46.22 -7.77,4.03 -11.82,9.74 -10.57,14.89 0.69,2.81 3.17,5.81 8.09,5.81 2.22,0 4.73,-0.66 7.42,-1.93 11.59,-4.84 25.79,-13.52 42.21,-25.83 0.43,16.98 -4.11,29.12 -13.5,36.11 -7.07,5.48 -23.95,12.04 -50.12,19.46 -5.03,1.24 -8.26,5.34 -7.74,9.74 0.43,3.45 3.38,6.93 9.01,6.93 0.43,0 0.9,-0.1 1.43,-0.1 13.97,-1.77 27.13,-5.15 39.18,-10.05 -2.3,11.73 -7.81,18.89 -16.8,21.86 -3.13,0.95 -11.35,1.73 -22.01,2.11 l -1.8,0.1 c -4.46,0.09 -8.97,0.19 -13.11,0.19 -17.81,0 -25.19,5.24 -31.2,10.59 -1.44,1.23 -3.26,3 -5.57,5.37 -5.29,-15.57 -18.58,-24.47 -38.59,-25.78 l -0.28,-0.03 h -0.43 c -20,1.31 -33.3,10.21 -38.59,25.78 -2.29,-2.36 -4.14,-4.14 -5.62,-5.41 l -0.89,-0.78 c -5.92,-5.08 -13.68,-9.77 -30.260001,-9.77 -17.421,0 -32.29,-0.96 -36.97,-2.39 -8.962,-2.95 -14.451,-10.11 -16.737,-21.83 12.023,4.9 25.146,8.28 39.082,10.04 0.635,0.1 1.093,0.1 1.522,0.1 5.633,0 8.583,-3.48 9.003,-6.93 0.54,-4.41 -2.78,-8.52 -7.814,-9.76 -26.13,-7.42 -42.936,-13.94 -49.978,-19.41 -9.419,-7.01 -13.974,-19.16 -13.553,-36.14 16.44,12.31 30.691,21.03 42.334,25.89 2.582,1.22 5.106,1.87 7.299,1.87 4.913,0 7.396,-3 8.084,-5.81 1.257,-5.15 -2.842,-10.88 -10.658,-14.94 -32.235,-18.28 -50.863,-33.82 -55.371,-46.17 -3.5339999,-9.68 -4.6949999,-19.5 -3.4629999,-29.22 z m 29.8239999,158.38 c 0,0 0.002,0 0.002,0 0,0 0.002,0 0.002,0 z m 0.002,0 c -4.166,5.85 -9.48,8.91 -15.938,9.2 11.284,41.01 33.366,75.71 66.252,104.12 v -100.39 c -19.383,-0.9 -31.658,-1.79 -36.826,-2.65 -5.168,-0.87 -9.662,-4.29 -13.488,-10.28 z m 266.234001,0 c -3.82,5.99 -8.32,9.42 -13.49,10.28 -5.16,0.86 -17.44,1.75 -36.82,2.65 v 100.39 c 32.88,-28.41 54.95,-63.11 66.25,-104.12 -6.46,-0.29 -11.77,-3.35 -15.94,-9.2 z m -133.12,1 c -17.87,1.36 -26.8,10.98 -26.8,28.83 v 135.78 l 0.6,0.52 0.01,0.04 c 6.6,5.6 15.33,8.4 26.19,8.4 10.85,0 19.59,-2.8 26.2,-8.4 l 0.6,-0.52 v -135.78 c 0,-17.62 -8.69,-27.2 -26.07,-28.77 z m -72.940001,11.93 v 115.29 c 3.740001,4.73 8.250001,8.14 13.520001,10.24 v -121.32 c -4.5,-2.81 -9.01,-4.21 -13.520001,-4.21 z m 145.880001,0 c -4.5,0 -9.02,1.4 -13.53,4.21 v 121.32 c 5.28,-2.1 9.79,-5.51 13.53,-10.24 z m -121.97,12.62 v 122.37 c 3.98,3.85 8.39,6.03 13.23,6.58 v -113.09 c -4.41,-5.89 -8.82,-11.18 -13.23,-15.86 z m 98.04,0 c -4.4,4.68 -8.81,9.97 -13.22,15.86 v 113.09 c 4.84,-0.55 9.25,-2.73 13.22,-6.58 z" />
</svg>
