<?xml version="1.0" encoding="UTF-8" standalone="no"?>
<svg
   version="1.1"
   width="206"
   height="236.125"
   id="svg2"
   xmlns="http://www.w3.org/2000/svg"
   xmlns:svg="http://www.w3.org/2000/svg">
  <defs
     id="defs2" />
  <path
     d="M 15.5,47.25 C 11.76903,60.05958 1.7735697,99.68155 1.2499997,126.375 12.63525,113.93985 33,99.09375 33,99.09375 33.75,97.125 33.75,97.125 33,95.3125 Z m 175,0 -17.5,48.0625 c -0.75,1.8125 -0.75,1.8125 0,3.78125 0,0 20.36475,14.8461 31.75,27.28125 C 204.22643,99.68155 194.23097,60.05958 190.5,47.25 Z"
     id="path1" />
  <path
     d="M 103,0 84.125,124.375 c 0,0 -12.42547,3.03135 -18.625,10.75 14.08558,5.36513 31.487644,22.37724 37.5,41.875 6.01236,-19.49776 23.41442,-36.50987 37.5,-41.875 -6.19953,-7.71865 -18.625,-10.75 -18.625,-10.75 z m -43.8125,20.28125 -14.875,84.6875 c 0,0 -44.3125,23.87096 -44.3125,46.125 0,41.37904 78.26475,27.71021 103,85.03125 24.73525,-57.32104 103,-43.65221 103,-85.03125 0,-22.25404 -44.3125,-46.125 -44.3125,-46.125 l -14.875,-84.6875 -15.78125,95.375 c 0,0 36.0625,16.14264 36.0625,31.125 0,19.23236 -37.84367,12.21582 -64.09375,44.0625 -26.25008,-31.84668 -64.09375,-24.83014 -64.09375,-44.0625 0,-14.98236 36.0625,-31.125 36.0625,-31.125 z"
     id="path2" />
</svg>
