<svg xmlns="http://www.w3.org/2000/svg" width="618.41" height="465.642"><path d="M309.206 51.455 276.16 167.116l-70.953-11.663c13.607-80.672 67.065-142.877 67.065-142.877-115.662 20.411-148.709 104.97-148.709 104.97S66.22 103.941 16.65 124.352c85.759 61.386 111.988 131.995 187.711 244.532a1503 1503 0 0 0 18.341 26.642l-17.495-172.035 56.373 43.738 47.625 171.063 48.598-169.12 55.4-45.68-17.495 172.034C496.79 240.013 538.583 160.314 601.76 124.351c-35.962-15.55-106.913-6.804-106.913-6.804s-29.159-79.7-148.709-104.97c44.71 43.737 67.065 142.876 67.065 142.876l-70.953 11.663z" style="fill:none;stroke:gray;stroke-width:14.8894;stroke-miterlimit:100"/><path d="m309.204 51.455 33.046 115.661 70.953-11.663c-13.608-80.672-67.065-142.877-67.065-142.877 115.662 20.411 148.709 104.97 148.709 104.97s57.344-13.606 106.913 6.805C509.425 190.444 486.1 267.23 395.708 395.525l17.495-172.035-56.373 43.738-47.625 171.063-48.598-169.12-55.4-45.68 17.495 172.034a6803 6803 0 0 1-17.449-26.989C116.565 230.674 76.063 158.171 16.65 124.351c35.962-15.55 106.913-6.804 106.913-6.804s29.159-79.7 148.709-104.97c-44.71 43.737-67.065 142.876-67.065 142.876l70.953 11.663z" style="stroke:gray;stroke-width:14.8894;stroke-miterlimit:100"/></svg>