<svg xmlns="http://www.w3.org/2000/svg" xmlns:xlink="http://www.w3.org/1999/xlink" width="617.02" height="465.641"><linearGradient id="a"><stop offset="0" style="stop-color:#612c75"/><stop offset=".468" style="stop-color:#bf99c3"/><stop offset="1" style="stop-color:#612c75"/></linearGradient><linearGradient xlink:href="#a" id="b" x1="68" x2="198" y1="124.55" y2="48.05" gradientTransform="translate(-10.648 -14.72)scale(2.48157)" gradientUnits="userSpaceOnUse"/><path d="m309.204 51.455 33.046 115.661 70.953-11.663c-13.608-80.672-67.065-142.877-67.065-142.877 115.662 20.411 148.709 104.97 148.709 104.97s57.344-13.606 106.913 6.805C509.425 190.444 486.1 267.23 395.708 395.525l17.495-172.035-56.373 43.738-47.625 171.063-48.598-169.12-55.4-45.68 17.495 172.034C121.62 240.013 79.826 160.315 16.65 124.351c35.962-15.55 106.913-6.804 106.913-6.804s29.159-79.7 148.709-104.97c-44.71 43.737-67.065 142.876-67.065 142.876l70.953 11.663z" style="fill:url(#b);stroke:#fff;stroke-width:14.8894;stroke-miterlimit:100"/></svg>