<svg xmlns="http://www.w3.org/2000/svg" width="456.762" height="462.102"><path d="M255.739 4.316a228.4 228.4 0 0 0-78.35 4.34L106.012.045a6 6 0 0 0-6.688 5.247l-4.957 41.083a228.38 228.38 0 0 0-92.722 157.32 228.38 228.38 0 0 0 199.378 254.094 228.4 228.4 0 0 0 78.35-4.343l71.377 8.613a6 6 0 0 0 6.688-5.247l4.957-41.083a228.38 228.38 0 0 0 92.722-157.318A228.38 228.38 0 0 0 255.74 4.316" style="fill:#fff"/><path d="M308.268 33.232 305.727 54.3c78.005 34.125 124.433 115.335 114.265 199.87-2.385 18.657-8.319 40.103-17.053 58.784-5.365 11.477-16.85 8.8-12.091-.9 8.968-18.28 14.574-37.375 17.726-59.262 13.458-111.533-106.34-169.543-112.34-119.82l-3.908 32.385 92.871 11.205a6 6 0 0 1 5.248 6.69L364.9 394.97a213.58 213.58 0 0 0 75.53-138.334c11.438-95.766-42.722-187.317-132.162-223.404M91.86 67.132a213.58 213.58 0 0 0-75.529 138.334C4.893 301.232 59.054 392.783 148.494 428.87l2.541-21.068C73.03 373.677 26.601 292.467 36.77 207.932c2.385-18.657 8.319-40.103 17.052-58.784 5.366-11.477 16.85-8.8 12.092.9-8.968 18.28-14.574 37.375-17.727 59.262-13.457 111.533 106.34 169.543 112.34 119.82l3.909-32.385-92.872-11.205a6 6 0 0 1-5.248-6.69z" style="fill:#000"/><path d="M193.26 78.476c-29.477-.427-56.493 30.684-61.48 72.021-4.743 39.672 12.5 75.631 40.189 83.819L181.176 158a6 6 0 0 1 6.687-5.248l57.032 6.883c3.32-41.743-17.413-77.211-47.272-80.865a41 41 0 0 0-4.363-.295m91.533 149.31-9.207 76.315a6 6 0 0 1-6.688 5.248l-57.03-6.883c-3.322 41.743 17.412 77.211 47.27 80.865 31.132 3.757 60.611-28.356 65.844-71.726 4.743-39.672-12.5-75.631-40.189-83.819" style="fill:#000"/><path d="M113.406 16.612 82.461 273.087l179.893 21.707 1.914-15.867 7.05-58.443a9.34 9.34 0 0 1 8-8.15q.225.02.448.042a54 54 0 0 1 5.386 1.043l.004-.031q.158.046.315.094.513.093 1.025.197l-.012.101c35.411 8.932 58.072 51.964 52.397 99.5-6.16 51.047-42.612 88.632-81.42 83.95-37.475-4.55-63.67-46.987-59.531-96.446l-19.344-2.334-15.123 125.334 179.893 21.705L374.3 189.015l-179.893-21.707-1.914 15.867-7.05 58.443a9.34 9.34 0 0 1-8 8.15q-.225-.02-.448-.042a54 54 0 0 1-5.387-1.043l-.004.03q-.157-.045-.314-.093a54 54 0 0 1-1.025-.197l.013-.102c-35.41-8.93-58.073-51.963-52.398-99.5 6.16-51.046 42.612-88.631 81.42-83.949 37.475 4.55 63.67 46.987 59.531 96.446l19.344 2.333 15.123-125.333z" style="fill:#000"/></svg>