<svg xmlns="http://www.w3.org/2000/svg" width="600" height="652.919"><path d="M558.36 469.155 600 316.519l-42.015-133.081L300 0 42.015 183.438 0 316.518l41.575 152.637L300 652.919Z" style="fill:gray"/><path d="m236.814 76.196-94.82 70.71v359.041l94.82 70.711-37.935-63.823V140.02ZM97.742 171.652v309.631l-37.87-25.317L21.939 316.96l37.935-120.056Zm265.444 405.006 94.82-70.711v-359.04l-94.82-70.711 37.87 63.823v372.816ZM300 613.956l56.87-113.738V152.652L300 38.898l-56.87 113.754v347.566Zm202.193-132.673v-309.63l37.934 25.251 37.87 120.056-37.87 139.006z"/></svg>