<?xml version="1.0" encoding="UTF-8"?><svg id="Layer_2" xmlns="http://www.w3.org/2000/svg" width="500" height="212.98323" xmlns:xlink="http://www.w3.org/1999/xlink" viewBox="0 0 500 212.98323"><defs><style>.cls-1{fill:url(#linear-gradient);}</style><linearGradient id="linear-gradient" x1="19.65994" y1="42.51419" x2="565.98535" y2="279.78547" gradientUnits="userSpaceOnUse"><stop offset=".02484" stop-color="#4d6773"/><stop offset=".05337" stop-color="#5a7581"/><stop offset=".10766" stop-color="#7e9ba7"/><stop offset=".18151" stop-color="#b9d7e3"/><stop offset=".19335" stop-color="#c3e2ee"/><stop offset=".3311" stop-color="#6e8a96"/><stop offset=".39406" stop-color="#4d6773"/><stop offset=".56008" stop-color="#4d6773"/><stop offset=".67454" stop-color="#67828e"/><stop offset=".92025" stop-color="#abc9d5"/><stop offset="1" stop-color="#c3e2ee"/></linearGradient></defs><g id="uncommon"><path d="M499.98153,183.9601c-.33199-6.4357-4.73345-17.18975-7.47373-23.21035-19.47336-43.14012-58.33695-81.67173-99.77483-103.96849-58.1294-31.30674-130.16848-37.45202-193.69556-19.8056-15.32126,4.23522-29.56293,10.46337-44.09528,16.77465-.20755-.08312-.24912-.24912-.24912-.45692-.16625-.78891,1.12089-4.56721,1.41157-5.68836,3.11407-10.46312,7.7231-20.59425,10.46337-31.18231,1.24558-4.7332,3.48788-13.45276-2.6574-15.69481-.62266-.20755-1.28714-.3738-1.9098-.53979-1.07959-.29068-3.36319-.20755-4.44278,0-1.41183.24912-2.57428.83047-3.73699,1.78537-3.15564,2.53272-7.05862,10.42181-9.09311,14.20011-6.85081,12.70542-12.82985,25.86775-19.88847,38.40692-.45667.12468-1.28714-1.41157-1.4947-1.74381-6.60195-11.75051-10.1727-26.36573-17.18975-37.90869-3.23876-5.35612-7.72284-8.96842-14.28323-6.18659-6.06216,2.53272-3.15564,10.9616-2.07605,15.94417,2.8234,13.49432,6.89237,26.73953,8.76087,40.44141-12.91297-5.77148-25.12015-12.91297-37.86713-19.01669-2.20048-1.03802-4.35965-2.15917-6.60195-3.11407-5.39768-2.36673-15.90236-6.47727-18.72576,1.41183-3.07277,8.63619,8.38707,14.78147,14.07543,18.892,4.65033,3.32163,9.30092,6.68482,13.95125,10.00645,6.64326,4.81658,14.24167,9.88202,20.51138,15.03058.70579.58135,2.2836,1.8685,2.74027,2.53297.12468.16599.20755.24912.16599.49823-.08287.33199-2.57428,1.61913-3.07251,1.9098-24.49724,13.41145-52.31636,21.63253-76.48161,36.08176-2.90652,1.74406-6.10372,3.23876-7.01706,6.68482-.16599.58135-.33224,1.95162-.16599,2.57454.08287.41511.16599.66422.24912.99646,1.9098,8.47019,13.53589,5.39768,19.51467,3.86142,21.67409-5.64679,42.64215-13.90969,64.10843-20.09627,1.24583-.33199,9.79915-2.8234,10.1727-2.49116-.9549,4.31809-2.4496,8.51175-3.90298,12.66385-6.6017,19.30737-14.78147,38.11625-20.46982,57.75585-1.45313,5.06544-5.06544,15.65324-.53979,19.68091,1.16271,1.03802,2.40829,1.57782,3.82011,1.86824.62266.16625,1.95137.16625,2.57428,0,1.07933-.24912,2.15892-.53954,3.23851-.99646.33224-.16599,1.3287-.70579,1.3287-.70579.41511-.24912.83047-.49823,1.20402-.83047.29068-.24912.78891-.74735,1.03802-1.03802,4.77502-5.56367,7.80597-13.49432,11.00317-20.13758,7.97196-16.35928,14.82303-33.29992,23.25166-49.36853.83047-1.61938,1.66094-3.32163,2.49141-4.89945.08287-.08312.24912-.62292.58135-.58135.24912,0,.37355.24912.41511.3738,4.27653,9.50822,8.51175,19.93003,12.91297,29.85361,3.23876,7.43217,6.51883,15.11345,10.08957,22.37963,1.37026,2.82365,4.35965,9.6329,7.10018,10.83717,1.41157.62266,2.32517,1.20402,4.94101,1.37001h2.20048c.16625,0,2.2423.04156,3.90298-1.20402.24912-.16599.70604-.58135.87203-.83047,1.57782-2.2836,1.16271-2.94783,1.20402-4.77476v-1.8685c0-.33224-.16599-1.74381-.20755-2.03449-.62266-4.40122-2.07605-9.17623-3.28007-13.49432-3.1972-11.41827-7.22461-22.54587-10.5465-33.96415-1.12089-3.82011-2.4496-7.80597-2.98939-11.70895,0-.12468-.33224-.41536-.16599-.70604.29042-.08287.37355.12468.49823.20781,1.28714.5811,2.65715,1.20402,3.90298,1.86824.37355.16625.66422.3738.87178.49849,2.07605,1.07933,4.23522,2.24204,6.26971,3.4045.33224.16625.62292.3738.87203.49823,1.28714.7476,2.61584,1.45339,3.90298,2.20073.29068.16599.5811.3738.87178.53979,7.3493,4.27653,14.86459,8.80243,22.0892,13.32833,2.57428,1.61913,5.31481,3.90298,8.01352,5.19012.24912.12443,1.07959.62266,1.16271.66422.37355.20755.62266.3738.87203.53979,2.4496,1.3287,5.14856,2.6574,7.97196,2.86496.37355.04156,1.41157.16599,1.53626.16599.91334,0,1.82693.04156,2.74027,0,.08312,0,1.03802-.12443,1.37026-.16599,3.1972-.87203,4.27678-4.5259,4.73345-7.47373v-1.7025c-.66448-3.98585-2.74053-6.14503-5.60549-8.76087-11.95807-10.9616-26.69797-20.42826-39.52782-30.51783-2.2836-1.78563-6.0206-4.40122-7.93065-6.35283-.24912-.24912-.37355-.49823-.49823-.78891-.29068-.62266-.08287-.66422.49823-.99646.41536-.24912,1.74406-.78891,2.03449-.87203,19.72247-5.64679,40.52453-8.42863,60.57925-12.99609,5.02413-1.16246,10.46337-2.20048,15.2797-3.98585.62292-.24912,3.15564-1.20427,4.11054-2.03449.20755-.20781.66448-.62292.83047-.87203,1.95162-2.49116,1.99293-6.26971.83047-9.21779-1.95162-4.89945-6.93394-4.52565-11.37671-4.56721h-1.20427c-.78891,0-5.43924.33224-5.77123.3738-9.75759.49823-19.55648,3.48762-29.35538,4.23497-1.49495.12468-2.98964.24912-4.48434,0-.08312-.29068.08312-.33199.24912-.49823,1.20402-1.16246,7.76441-3.40475,9.71602-4.11054,13.74344-4.98257,28.60777-9.09311,43.09882-11.37671l1.03802-.16599c.74735-.12468,1.45313-.24912,2.20048-.33224.41511-.08312,4.81632-.70579,4.94101-.70579,1.28714-.16625,2.61584-.33224,2.69897-.33224,1.16246-.12468,5.06544-.53979,8.17951-.83047,1.28714-.12443,12.12406-.62292,13.61901-.70579,2.8234-.12468,5.64679,0,8.47019,0,1.16246,0,15.15527.83047,17.18975,1.03802.99646.08287,9.13467.99646,9.17598,1.03802.3738,0,3.69543.49823,3.73699.49823.78891.04156,1.37026.20755,2.07605.33224.3738.08287.74735.12443,1.16246.16599.24937.04156.99672.16599,1.03802.16599,15.03083,2.6574,29.77074,6.3944,44.05397,11.75051.12443.04156,11.04447,4.65033,12.41474,5.27325.24912.08287,9.13467,4.44278,9.67446,4.7332.5811.33224,1.16246.58135,1.70225.87203.3738.16599,5.31481,2.94808,5.81304,3.23876.24912.12443.5811.33199.83022.49823,9.17623,5.39768,17.9371,11.50114,26.19974,18.18622.20781.16599,8.88555,7.68128,9.17623,7.97196.41536.37355.87203.70579,1.37026,1.20402s.99646,1.03802,1.53626,1.53626c1.8685,1.78537,3.65387,3.571,5.43924,5.43924.53979.58135,1.12115,1.12115,1.70225,1.7025.45692.49823.83047.99646,1.20427,1.37026.29068.29042,9.30066,10.79536,10.00645,11.7087.04156.08312.49823.62292.53979.70604,5.23169,6.80925,10.13113,13.99256,14.49079,21.46628,5.72992,9.96514,10.29738,20.55294,15.69506,30.72564.62266,1.20402,1.37026,2.69871,2.2836,3.73674.33224.3738.58135.83047,1.20402,1.16271,1.07959.70579,1.57782,1.03802,2.90652,1.16246.33224.04156,1.7025.12468,1.78537.12468,1.53626,0,2.74053.12443,4.1521-.41536,2.6574-1.03802,4.69189-3.19694,4.94101-6.31102.04156-.53979,0-1.28714,0-1.8685ZM493.17202,184.915c-1.20402,2.6574-4.11054-2.74027-4.7332-3.7783-4.19366-6.9755-7.1833-14.94771-11.00317-22.17232-30.97476-58.21252-87.1941-96.70231-152.25743-107.08256-49.90832-7.93065-95.8721-2.32517-142.04342,17.64642-5.107,2.20048-16.94064,7.05862-20.55294,10.71249-3.69518,3.73674,2.74053,2.65715,4.77502,2.57428,15.48725-.58135,30.76695-3.23876,46.08821-5.06569,5.68836-.70579,12.04119-1.70225,17.68799-1.91006,1.37026-.04131,5.56393-.20755,6.56039.62292.74735.62292.87203,1.78537.04156,2.40829-1.3287,1.07959-8.47045,2.69871-10.5465,3.23851-24.58036,6.3944-50.57254,8.80243-74.69623,16.64996-.78891.24912-6.31102,1.99293-6.31102,2.49141,7.47373,7.43217,15.81949,14.11699,24.165,20.55269,10.62962,8.22133,22.00633,15.81949,32.13747,24.66348,1.45313,1.28714,5.68836,4.69189,5.60523,6.64351-.04156,1.53626-1.45313,1.28714-2.53272.99646-5.27325-1.53626-14.36636-7.68154-19.39023-10.71249-8.96868-5.35612-17.72955-11.00291-26.65666-16.35928-7.84753-4.69189-15.77793-9.21754-23.70833-13.785.91334,7.14174,2.74027,14.1588,4.65033,21.1343,3.32163,12.0825,7.39061,23.999,11.04447,36.0402,1.41183,4.69189,5.39768,15.86105,4.85789,20.26227-.16599,1.37026-.78891,2.98939-2.2836,1.61938-1.12089-1.03802-2.86496-5.02413-3.61231-6.56039-10.38025-21.7154-30.26872-68.67564-30.26872-68.67564-.53979,0-4.44278,8.38707-4.94101,9.38353-11.37671,22.50456-20.51138,46.17158-32.42789,68.38522-1.57782,2.94808-4.35965,8.76087-6.64351,10.87848-1.37001,1.28714-3.65387,1.12115-3.65387-.91334,0-1.49495,1.03802-4.56746,1.53651-6.14528,7.05837-22.46275,16.69127-44.80107,24.49724-67.13938,2.40829-6.85107,4.94101-13.74344,6.64351-20.80206-28.60803,6.4357-55.80423,17.77111-83.99715,25.61838-2.74027.74735-7.22461,2.28386-9.84046,2.57428-1.4947.12468-4.40122.08312-2.78184-2.11736,1.28714-1.78563,10.79536-6.10372,13.36964-7.39086,20.67763-10.04801,42.06079-18.60133,62.86285-28.40022,3.98611-1.91006,8.59488-3.86168,12.37318-6.0206,1.8685-1.07959,3.36319-1.66094,1.37026-3.73699-13.24521-11.04447-27.48688-20.71894-41.31344-30.97476-4.40122-3.23851-10.08957-7.05837-14.07543-10.62937-3.28032-2.94783-3.03121-4.98232,1.82693-3.48762,5.31456,1.57782,11.21047,5.68836,16.19304,8.3042,12.33187,6.47727,24.99572,12.74698,37.65958,18.64289,1.99293.91359,4.31809,2.07605,6.4357,2.74027.45667.16625,2.94808,1.07959,2.94808.12468-1.28714-5.97903-2.49141-11.99963-3.77855-18.02022-2.61584-12.04094-5.89591-24.08213-8.22108-36.12307-.29068-1.41183-1.41157-6.26971-.74735-7.26617,1.07959-1.49495,3.28007,1.70225,3.81986,2.49116,3.61231,5.31481,6.8095,12.74698,9.34222,18.68445,4.65033,10.79536,8.42888,22.58743,13.49432,33.09237,1.24558,2.49116,2.2423.83022,3.40475-.7476,9.09311-11.99938,15.86105-29.81205,22.91967-43.38924,1.95137-3.82011,8.01352-16.06861,11.29359-17.97866.62292-.33224,1.57782-.74735,1.99318.12443.33199.7476-.7476,4.23522-1.03802,5.27325-4.65033,17.31419-12.08275,34.13039-16.52553,51.44458-.16599.66422-.99646,3.61231-.74735,3.94455,6.26971-2.20073,11.99963-5.60549,17.97866-8.47045,40.10917-19.22424,81.00751-27.69443,125.68414-24.99547,74.07332,4.48409,148.81111,45.05018,187.42559,108.99262,6.18659,10.25556,13.57745,23.87457,17.56355,35.1266.66422,1.82693,1.86824,4.94101,1.07933,6.76794Z"/><path class="cls-1" d="M493.17202,184.915c-1.20402,2.6574-4.11054-2.74027-4.7332-3.7783-4.19366-6.9755-7.1833-14.94771-11.00317-22.17232-30.97476-58.21252-87.1941-96.70231-152.25743-107.08256-49.90832-7.93065-95.8721-2.32517-142.04342,17.64642-5.107,2.20048-16.94064,7.05862-20.55294,10.71249-3.69518,3.73674,2.74053,2.65715,4.77502,2.57428,15.48725-.58135,30.76695-3.23876,46.08821-5.06569,5.68836-.70579,12.04119-1.70225,17.68799-1.91006,1.37026-.04131,5.56393-.20755,6.56039.62292.74735.62292.87203,1.78537.04156,2.40829-1.3287,1.07959-8.47045,2.69871-10.5465,3.23851-24.58036,6.3944-50.57254,8.80243-74.69623,16.64996-.78891.24912-6.31102,1.99293-6.31102,2.49141,7.47373,7.43217,15.81949,14.11699,24.165,20.55269,10.62962,8.22133,22.00633,15.81949,32.13747,24.66348,1.45313,1.28714,5.68836,4.69189,5.60523,6.64351-.04156,1.53626-1.45313,1.28714-2.53272.99646-5.27325-1.53626-14.36636-7.68154-19.39023-10.71249-8.96868-5.35612-17.72955-11.00291-26.65666-16.35928-7.84753-4.69189-15.77793-9.21754-23.70833-13.785.91334,7.14174,2.74027,14.1588,4.65033,21.1343,3.32163,12.0825,7.39061,23.999,11.04447,36.0402,1.41183,4.69189,5.39768,15.86105,4.85789,20.26227-.16599,1.37026-.78891,2.98939-2.2836,1.61938-1.12089-1.03802-2.86496-5.02413-3.61231-6.56039-10.38025-21.7154-30.26872-68.67564-30.26872-68.67564-.53979,0-4.44278,8.38707-4.94101,9.38353-11.37671,22.50456-20.51138,46.17158-32.42789,68.38522-1.57782,2.94808-4.35965,8.76087-6.64351,10.87848-1.37001,1.28714-3.65387,1.12115-3.65387-.91334,0-1.49495,1.03802-4.56746,1.53651-6.14528,7.05837-22.46275,16.69127-44.80107,24.49724-67.13938,2.40829-6.85107,4.94101-13.74344,6.64351-20.80206-28.60803,6.4357-55.80423,17.77111-83.99715,25.61838-2.74027.74735-7.22461,2.28386-9.84046,2.57428-1.4947.12468-4.40122.08312-2.78184-2.11736,1.28714-1.78563,10.79536-6.10372,13.36964-7.39086,20.67763-10.04801,42.06079-18.60133,62.86285-28.40022,3.98611-1.91006,8.59488-3.86168,12.37318-6.0206,1.8685-1.07959,3.36319-1.66094,1.37026-3.73699-13.24521-11.04447-27.48688-20.71894-41.31344-30.97476-4.40122-3.23851-10.08957-7.05837-14.07543-10.62937-3.28032-2.94783-3.03121-4.98232,1.82693-3.48762,5.31456,1.57782,11.21047,5.68836,16.19304,8.3042,12.33187,6.47727,24.99572,12.74698,37.65958,18.64289,1.99293.91359,4.31809,2.07605,6.4357,2.74027.45667.16625,2.94808,1.07959,2.94808.12468-1.28714-5.97903-2.49141-11.99963-3.77855-18.02022-2.61584-12.04094-5.89591-24.08213-8.22108-36.12307-.29068-1.41183-1.41157-6.26971-.74735-7.26617,1.07959-1.49495,3.28007,1.70225,3.81986,2.49116,3.61231,5.31481,6.8095,12.74698,9.34222,18.68445,4.65033,10.79536,8.42888,22.58743,13.49432,33.09237,1.24558,2.49116,2.2423.83022,3.40475-.7476,9.09311-11.99938,15.86105-29.81205,22.91967-43.38924,1.95137-3.82011,8.01352-16.06861,11.29359-17.97866.62292-.33224,1.57782-.74735,1.99318.12443.33199.7476-.7476,4.23522-1.03802,5.27325-4.65033,17.31419-12.08275,34.13039-16.52553,51.44458-.16599.66422-.99646,3.61231-.74735,3.94455,6.26971-2.20073,11.99963-5.60549,17.97866-8.47045,40.10917-19.22424,81.00751-27.69443,125.68414-24.99547,74.07332,4.48409,148.81111,45.05018,187.42559,108.99262,6.18659,10.25556,13.57745,23.87457,17.56355,35.1266.66422,1.82693,1.86824,4.94101,1.07933,6.76794Z"/></g></svg>