<svg xmlns="http://www.w3.org/2000/svg" width="413.458" height="413.458" viewBox="0 0 310.094 310.094"><path fill="#fff" stroke="#fff" stroke-width=".094" d="M88.297.047h217.2c-.12 19.85-.14 39.7-.15 59.56-7.84 7.71-15.97 15.13-23.91 22.75-2.91 14.44-2.11 29.32-.03 43.81 4.14 28.2 12.99 55.38 20.56 82.77 3.45 12.71 6.98 25.5 8.08 38.68v5.21c-1.53 17.13-8.15 35.13-22.61 45.48-12.62 9.21-28.74 10.65-43.83 11.74h-3.99c-68.29-5.47-136.42-12.58-204.61-19.1-5.69-.29-10.57-3.68-14.92-7.04-10.98-9.05-18.15-22.5-20.04-36.55v-5.97c1.46-16.25 11.68-30.36 23.8-40.6 17.08.4 34.16 1.19 51.24 1.66 1.69.11 3.14-.96 4.52-1.78 6.14-4.17 10.54-10.39 14.06-16.81 5.77-10.8 9.15-22.7 11.53-34.66 4.36-22.63 5.11-45.79 4.64-68.78-7.2-6.96-14.31-14.01-21.52-20.97-.06-19.8-.01-39.6-.02-59.4m13.39 13.3c.07 13.49.01 26.99.03 40.49 7.16 7.02 14.34 14.02 21.52 21.02.21 28.51-.59 57.23-6.15 85.28-2.88 13.31-6.61 26.94-14.8 38.06-2.98 4.15-7.1 7.23-11.4 9.89 19.38.32 38.79.69 58.16.92 5.95.56 11.94.26 17.9.55-.09-22.55.02-45.09-.05-67.64 7.2-7.79 14.72-15.29 21.89-23.11.89-.99 1.9-1.87 2.96-2.67 7.68 8.72 16.06 16.79 23.89 25.37.46 1.48.18 3.07.26 4.59-.07 21.49.07 42.97-.07 64.46 8.8.53 17.62.97 26.31 2.47 10.1 1.75 20.46 4.62 28.5 11.27 6.73 5.52 10.95 14.01 11.2 22.73.66 12.56-3.98 25.84-13.89 33.94-6.89 5.71-16.1 7.76-24.89 7.59-8.58-.07-17.27-2.99-23.62-8.86-7.09-6.49-12.35-15.78-11.95-25.6.26-7.59 5.04-14.33 11.1-18.58 9.2-6.47 20.32-10 31.47-10.94-9.75-2.91-19.94-3.84-30.07-4.03-63.68-2.01-127.34-4.34-191.02-6.23-8.77 8.03-15.82 19.43-15.27 31.73.88 12.88 9.35 24.21 19.72 31.32 62.88 6.11 125.78 12.09 188.67 18.2 17.29 1.6 35.69 2.73 51.88-4.74 10.88-4.86 18.42-15.44 20.99-26.91 4.16-17.39-.04-35.37-5.59-51.95-7.47-21.64-13.83-43.67-18.68-66.04-3.11-15.07-5.94-30.47-4.43-45.9.41-8.47 1.55-16.9 3.6-25.12 7.38-6.93 14.66-13.95 22.05-20.86-.07-13.59-.06-27.18-.01-40.76-9.12.1-18.25.03-27.38.04.08 7.84.02 15.68.04 23.52-8.78-.04-17.56-.01-26.35-.01.01-7.84-.01-15.67.01-23.5-9.29-.01-18.58.03-27.86-.03.08 7.85 0 15.69.04 23.54-9.19-.17-18.39.26-27.56-.22.04-2.53.1-5.06.19-7.58-.1-5.26-.14-10.51-.07-15.77-9.26.1-18.51.09-27.76.01.08 7.85-.01 15.7.05 23.55-8.98-.02-17.96 0-26.93-.01.02-7.83-.02-15.67.02-23.5-8.88.03-17.77-.01-26.65.02m140.42 221.97c4.92 2.47 10.85 3.68 14.37 8.28 4 5.06 5.66 13.54.43 18.35-4.43 3.82-10.54 1.9-15.79 2.32-5.66 1.09-10.99 3.46-16.05 6.16 6.99 7.45 17.93 11.16 27.97 8.83 14.14-3.61 23.33-20.24 18.67-34.12-4.07-11.46-19.44-16.22-29.6-9.82m-23.32 14.32c-1.19 4.35-.64 9.06.82 13.28 8.64-6.27 18.94-10.13 29.44-11.77-4.83-5.23-11.62-9.56-19.01-8.95-4.63.32-9.76 2.71-11.25 7.44z"/><g stroke="#000" stroke-width=".094"><path d="M101.687 13.347c8.88-.03 17.77.01 26.65-.02-.04 7.83 0 15.67-.02 23.5 8.97.01 17.95-.01 26.93.01-.06-7.85.03-15.7-.05-23.55 9.25.08 18.5.09 27.76-.01-.07 5.26-.03 10.51.07 15.77a382 382 0 0 0-.19 7.58c9.17.48 18.37.05 27.56.22-.04-7.85.04-15.69-.04-23.54 9.28.06 18.57.02 27.86.03-.02 7.83 0 15.66-.01 23.5 8.79 0 17.57-.03 26.35.01-.02-7.84.04-15.68-.04-23.52 9.13-.01 18.26.06 27.38-.04-.05 13.58-.06 27.17.01 40.76-7.39 6.91-14.67 13.93-22.05 20.86-2.05 8.22-3.19 16.65-3.6 25.12-1.51 15.43 1.32 30.83 4.43 45.9 4.85 22.37 11.21 44.4 18.68 66.04 5.55 16.58 9.75 34.56 5.59 51.95-2.57 11.47-10.11 22.05-20.99 26.91-16.19 7.47-34.59 6.34-51.88 4.74-62.89-6.11-125.79-12.09-188.67-18.2-10.37-7.11-18.84-18.44-19.72-31.32-.55-12.3 6.5-23.7 15.27-31.73 63.68 1.89 127.34 4.22 191.02 6.23 10.13.19 20.32 1.12 30.07 4.03-11.15.94-22.27 4.47-31.47 10.94-6.06 4.25-10.84 10.99-11.1 18.58-.4 9.82 4.86 19.11 11.95 25.6 6.35 5.87 15.04 8.79 23.62 8.86 8.79.17 18-1.88 24.89-7.59 9.91-8.1 14.55-21.38 13.89-33.94-.25-8.72-4.47-17.21-11.2-22.73-8.04-6.65-18.4-9.52-28.5-11.27-8.69-1.5-17.51-1.94-26.31-2.47.14-21.49 0-42.97.07-64.46-.08-1.52.2-3.11-.26-4.59-7.83-8.58-16.21-16.65-23.89-25.37-1.06.8-2.07 1.68-2.96 2.67-7.17 7.82-14.69 15.32-21.89 23.11.07 22.55-.04 45.09.05 67.64-5.96-.29-11.95.01-17.9-.55-19.37-.23-38.78-.6-58.16-.92 4.3-2.66 8.42-5.74 11.4-9.89 8.19-11.12 11.92-24.75 14.8-38.06 5.56-28.05 6.36-56.77 6.15-85.28-7.18-7-14.36-14-21.52-21.02-.02-13.5.04-27-.03-40.49z"/><path d="M242.107 235.317c10.16-6.4 25.53-1.64 29.6 9.82 4.66 13.88-4.53 30.51-18.67 34.12-10.04 2.33-20.98-1.38-27.97-8.83 5.06-2.7 10.39-5.07 16.05-6.16 5.25-.42 11.36 1.5 15.79-2.32 5.23-4.81 3.57-13.29-.43-18.35-3.52-4.6-9.45-5.81-14.37-8.28z"/><path d="M218.787 249.637c1.49-4.73 6.62-7.12 11.25-7.44 7.39-.61 14.18 3.72 19.01 8.95-10.5 1.64-20.8 5.5-29.44 11.77-1.46-4.22-2.01-8.93-.82-13.28z"/></g></svg>