<svg xmlns="http://www.w3.org/2000/svg" width="227.792" height="227.789"><linearGradient id="a" x1="214.825" x2="48.119" y1="205.564" y2="38.857" gradientUnits="userSpaceOnUse"><stop offset=".2" style="stop-color:#bf331c"/><stop offset=".5" style="stop-color:#f6b91d"/><stop offset=".8" style="stop-color:#bf331c"/></linearGradient><path d="M192.475 226.639c18.474-3.318 30.555-15.043 34.459-33.443 2.342-11.038.092-24.608-9.235-55.694-2.99-9.963-4.974-17.069-5.718-20.5-.42-1.925-1.79-8.226-3.045-14-1.787-8.212-2.303-13.845-2.373-25.854l-.088-15.355 9.25-8.763 9.25-8.764V0h-160v44.456l7.693 7.739 7.694 7.739-.148 10.283c-.344 23.773-1.874 35.959-6.44 51.283-2.205 7.404-7.681 18.383-10.648 21.35-5.158 5.158-5.23 5.17-25.908 4.479l-19.348-.647-4.995 4.909C1.734 162.541-2.62 176.939 1.565 189c3.793 10.932 10.067 18.744 18.514 23.053 4.02 2.053 6.209 2.338 37.396 4.905 6.05.497 15.05 1.373 20 1.944 4.95.572 16.425 1.746 25.5 2.607 9.076.862 21 2.041 26.5 2.618 5.5.578 13.826 1.276 18.5 1.556 4.676.274 10.976.854 14 1.286 8.492 1.215 22.762 1.058 30.5-.33"/><path d="M217.975 185.857c0 16.035-5.539 25.723-18 31.477-4.998 2.308-6.672 2.856-14.474 3.109-4.031.43-8.41.519-13.169.234l-.468-.009c-4.872.021-8.632-.038-9.39-.169-1.1-.189-7.399-.848-14-1.459-6.6-.611-18.524-1.757-26.5-2.545-31.872-3.146-62.214-6.061-73-7.01-10.781-.949-17.034-1.598-21.071-2.429a21 21 0 0 0-.913-.056c-.572 0-1.305-.269-2.137-.738-2.155-.722-3.479-1.619-4.883-2.887-5.753-5.197-9.994-13.998-9.994-20.738 0-6.486 3.239-14.248 8.121-19.457l3.111-3.318 21.134.604c11.624.332 39.584 1.25 62.134 2.04 22.55.789 47.076 1.634 54.5 1.875 11.334.369 20.845 1.597 23.081 2.853l1.419.324-.921.246a.33.33 0 0 1-.05.151c-.267.432-2.361 1.084-4.654 1.451-4.963.793-13.256 4.186-17.223 7.043-3.536 2.55-6.866 8.165-7.526 12.387a18 18 0 0 0-.04 2.98c.74 7.302 6.465 15.833 13.291 19.473 5.896 3.144 20.309 3.172 26.123.053a25.4 25.4 0 0 0 3.935-2.603c.134-.111.269-.216.403-.331a26 26 0 0 0 2.571-2.544c3.821-4.438 5.924-10.393 6.382-18.04.385-6.464.111-8.395-1.733-12.206-1.146-2.367-2.528-4.407-4.253-6.177-.278-.278-.557-.559-.847-.824l-.083-.073a27 27 0 0 0-.942-.805c-5.416-4.38-13.711-6.844-27.183-8.514l-9.81-1.216-1.94-.009v-.231l-1-.124v-25.873l-.482-24.811-8.025-8.623-5.729-6.156-2.867-2.893-8.903 9.22-8.92 9.235-.037 24.506-.038 24.75v.313l-7.556-.313h-6.786c-2.07 0-4.468-.021-7.01-.058l-4.898-.013c-14.438-.039-27.085-.397-28.106-.801a8 8 0 0 1-.307-.129h-.697l.037-.031-1.177-.002.709-.455.497-.425c.226-.491 1.08-1.211 2.726-2.467a24 24 0 0 0 2.337-2.035 41 41 0 0 0 1.606-1.772c2.541-3.106 4.626-7.221 6.86-13.313 5.423-14.784 7.646-29.865 8.398-57l.366-13.192v-6.994l-6.528-6.434-.972-.946-7.5-7.298v-.104l-1-.985V13h21v17h18.955l.045-1.365V13h17.47l2.452-.072.003.072h1.076v17h18.92l.08-2.286V13h18.485l2.515-.07V13h1v17h18V13h21v29.972l-8.398 8.264c-8.247 8.114-8.419 8.383-9.5 14.846-.978 5.846-1.265 14.082-.901 21.852.207 3.712.56 7.479 1.057 11.154q.154.987.325 1.913c2.479 13.301 8.147 35.221 12.931 50 6.416 19.829 7.486 24.817 7.486 34.856m-45.5 21.206c10.396 4.67 21.726.268 26.524-10.309 2.358-5.195 2.498-10.588.392-15.008-3.078-6.455-12.227-10.311-18.399-7.753-.982.407-1.705.782-2.187 1.131l-1.328.555.633.323c-.053.533.677.985 2.203 1.368.448.112.889.261 1.323.43l1.165.595q.741.379 1.42.793c4.492 3.075 7.394 8.852 5.736 12.856-1.377 3.323-4.867 4.821-10.982 4.712-2.608-.047-6.556.831-9.396 2.09-4.89 2.168-4.896 2.176-3 4.297 1.043 1.168 3.697 2.932 5.896 3.92m-11.834-11.729c.133.132.248.243.361.333l.029.155.109-.058c.657.403 1.441-.031 5.156-2.17 2.299-1.323 6.879-3.212 10.178-4.198 1.319-.394 2.568-.779 3.611-1.112 1.317-.287 2.352-.643 2.724-.936a1 1 0 0 0 .075-.04c1.047-.754-3.592-4.404-7.488-5.893-6.186-2.361-11.405-.974-13.879 3.069-.975 1.314-1.543 2.956-1.543 4.888q0 .394.016.801c-.003.101-.016.193-.016.295.001 2.309.302 4.499.667 4.866" style="fill:url(#a)" transform="translate(0 -3)"/></svg>