<svg xmlns="http://www.w3.org/2000/svg" width="266" height="270.5" data-name="Layer 2" viewBox="0 0 266 270.5"><defs><linearGradient id="a" x1="369" x2="603" y1="82.7" y2="82.7" gradientTransform="matrix(1 0 0 -1 -353 217)" gradientUnits="userSpaceOnUse"><stop offset="0" stop-color="#612c75"/><stop offset=".08" stop-color="#784788"/><stop offset=".2" stop-color="#976aa1"/><stop offset=".31" stop-color="#ad84b4"/><stop offset=".42" stop-color="#ba93bf"/><stop offset=".5" stop-color="#bf99c3"/><stop offset=".58" stop-color="#ba93bf"/><stop offset=".69" stop-color="#ad84b4"/><stop offset=".8" stop-color="#976aa1"/><stop offset=".92" stop-color="#784788"/><stop offset="1" stop-color="#612c75"/></linearGradient></defs><path d="M133 0c-14.29 0-27.53 4.47-38.41 12.09C74.9 7.17 50.94 2.45 30.81 2.31c-7.86-.05-15.13.58-21.31 2.19v14S7.99 17 0 17v212l115 41.5h36L266 229V17c-7.99 0-9.5 1.5-9.5 1.5v-14c-22.01-5.71-57.74.74-85.12 7.59A66.7 66.7 0 0 0 133 0" style="fill:#fff;stroke-width:0"/><path d="M27.38 8.59c-3.8 0-7.61.12-11.38.41v213c96.41 2.41 117 38 117 38s20.59-35.59 117-38V9c-26.96-2.03-55.97 4.02-72.16 8.22C191.45 29.48 200 47.24 200 67c0 24.59-13.25 46.1-33 57.75v19.5c8.93 9.59 14.47 22.91 14.47 37.66 0 20.14-10.34 37.64-25.53 46.56 4.93-7.06 7.91-16.41 7.91-26.66 0-17.47-8.72-32.32-20.84-37.69v-55.81c18.65-4.5 32.5-21.28 32.5-41.31 0-23.47-19.03-42.5-42.5-42.5S90.51 43.53 90.51 67c0 20.03 13.85 36.82 32.5 41.31v55.81c-12.12 5.37-20.84 20.21-20.84 37.69 0 10.25 2.98 19.6 7.91 26.66-15.19-8.92-25.53-26.42-25.53-46.56 0-14.75 5.54-28.07 14.47-37.66v-19.5c-19.75-11.65-33-33.16-33-57.75 0-19.75 8.53-37.52 22.12-49.78C74.21 13.6 50.81 8.63 27.39 8.6zM133 51c8.84 0 16 7.16 16 16s-7.16 16-16 16-16-7.16-16-16 7.16-16 16-16" style="fill:url(#a);stroke-width:0"/></svg>