<svg xmlns="http://www.w3.org/2000/svg" id="Layer_2" width="266" height="270.5" data-name="Layer 2" viewBox="0 0 266 270.5"><defs id="defs1"><style id="style1">.cls-1{stroke-width:0}</style></defs><g id="svg2"><g id="g1"><circle id="circle1" cx="133" cy="67" r="16" class="cls-1"/><path id="path1" d="M256.5 18.5v-14c-22.01-5.71-57.74.74-85.12 7.59A66.7 66.7 0 0 0 133 0c-14.28 0-27.53 4.47-38.41 12.09C74.9 7.17 50.94 2.45 30.81 2.31c-7.86-.05-15.13.58-21.31 2.19v14S7.99 17 0 17v212l115 41.5h36L266 229V17c-7.99 0-9.5 1.5-9.5 1.5M250 222c-96.41 2.41-117 38-117 38s-20.59-35.59-117-38V9c3.76-.28 7.57-.41 11.38-.41 23.42.03 46.82 5.01 60.75 8.62-13.6 12.26-22.12 30.03-22.12 49.78 0 24.59 13.25 46.1 33 57.75v19.5c-8.93 9.59-14.47 22.91-14.47 37.66 0 20.14 10.34 37.64 25.53 46.56-4.93-7.06-7.91-16.41-7.91-26.66 0-17.47 8.72-32.32 20.84-37.69V108.3c-18.65-4.5-32.5-21.28-32.5-41.31 0-23.47 19.03-42.5 42.5-42.5s42.5 19.03 42.5 42.5c0 20.03-13.85 36.82-32.5 41.31v55.81c12.12 5.37 20.84 20.21 20.84 37.69 0 10.25-2.98 19.6-7.91 26.66 15.19-8.92 25.53-26.42 25.53-46.56 0-14.75-5.54-28.07-14.47-37.66v-19.5c19.75-11.65 33-33.16 33-57.75 0-19.76-8.55-37.52-22.16-49.78 16.19-4.2 45.2-10.25 72.16-8.22v213z" class="cls-1"/></g></g></svg>