<svg xmlns="http://www.w3.org/2000/svg" width="600" height="600"><path d="M300 600C134.606 600 0 465.403 0 299.974 0 134.571 134.606 0 300 0c165.403 0 300 134.571 300 299.974C600 465.403 465.403 600 300 600" style="fill:#fff"/><path d="M576.703 299.974C576.703 452.786 452.82 576.67 300 576.67c-152.811 0-276.694-123.883-276.694-276.695 0-152.82 123.883-276.703 276.694-276.703 152.82 0 276.703 123.883 276.703 276.703"/><path d="M457.474 316.843c-6.531 26.786-19.86 50.828-38.074 70.251l74.134 72.823c34.115-36.094 57.72-82.234 65.923-133.526zM263.846 127.706l-30.103-83.64c-41.683 13.028-78.686 36.531-108.077 67.431l68.734 55.989c19.054-18.72 42.857-32.649 69.446-39.78m176.52 72.385 81.223-52.431c-24.943-38.203-59.898-69.274-101.186-89.434l-40.877 83.005c25.243 13.698 46.303 34.123 60.84 58.86m-135.712-77.777c22.14 0 43.166 4.586 62.28 12.823l40.749-82.731c-30.232-12.729-63.48-19.826-98.374-19.826a252.8 252.8 0 0 0-62.075 7.74l30.369 84.334c8.811-1.5 17.846-2.34 27.051-2.34m157.303 157.269c0 7.963-.634 15.831-1.774 23.503l101.151 9.437c.9-8.7 1.372-17.537 1.372-26.512 0-46.071-12.326-89.228-33.815-126.428l-82.002 52.903c9.642 20.357 15.068 43.123 15.068 67.097m-314.597 0c0-7.372.531-14.666 1.577-21.797l-89.031-16.312c-2.546 14.469-3.952 29.332-3.952 44.537 0 31.775 5.889 62.178 16.569 90.163l84.514-42.248a156.8 156.8 0 0 1-9.677-54.343m157.294 157.294c-23.571 0-45.934-5.22-66.025-14.528l-44.126 89.528c34.483 17.546 73.457 27.523 114.806 27.523 7.2 0 14.297-.369 21.334-.969l-13.097-102.12c-4.252.334-8.537.566-12.892.566m26.76-2.34 13.157 102.386c53.538-7.466 101.683-31.637 139.08-67.097L409.39 396.9c-21.498 19.217-48.309 32.58-77.975 37.637m-168.951-87.694L77.88 389.134c21.771 48.815 58.466 89.4 104.331 116.083l44.032-89.297c-27.686-15.969-50.023-40.08-63.78-69.077M151.474 244.02l-88.723-16.234c9.343-39.746 27.96-75.806 53.572-105.875l68.537 55.852a156.54 156.54 0 0 0-33.386 66.257" style="fill:#d1d3d4"/><path d="M401.889 369.917a132.5 132.5 0 0 0 30.84-55.346l-27.12-2.511a106.2 106.2 0 0 1-22.766 39.137zm1.371-129.274c4.757 12.086 7.44 25.208 7.44 38.94 0 6.394-.609 12.617-1.714 18.711l26.751 2.512a138.6 138.6 0 0 0 1.749-21.223 132.7 132.7 0 0 0-11.392-53.64zm-30.531 120.231c-13.492 11.315-29.872 19.355-47.812 22.766l3.377 26.589c24.077-4.355 45.875-15.172 63.549-30.575zm-135.635 32.983 11.846-24.077c-17.64-10.877-31.834-26.889-40.577-45.866l-23.94 11.983c11.348 24.172 29.803 44.4 52.671 57.96m-35.16-140.597c4.149-16.166 12.052-30.866 22.672-43.123L203.88 193.26a132.6 132.6 0 0 0-28.294 55.183zm32.546-53.1c13.123-11.589 29.16-19.989 46.843-23.974l-9.146-25.346c-22.328 5.657-42.386 16.946-58.62 32.28zm51.566-52.029 9.334 25.878c3.051-.266 6.163-.438 9.274-.438 13.997 0 27.36 2.752 39.583 7.672l11.846-24.078c-15.832-6.66-33.18-10.345-51.429-10.405-6.325.034-12.514.497-18.608 1.371m82.594 15.129-11.846 24.077a105.74 105.74 0 0 1 40.406 40.577l22.5-14.494c-12.12-21.026-29.76-38.435-51.06-50.16m-165.3 147.523c-3.043-9.84-4.689-20.323-4.689-31.2 0-4.252.275-8.443.772-12.558L173.04 262.2a130 130 0 0 0-1.174 17.383c0 15.162 2.58 29.725 7.303 43.285zm101.314 101.622a133.05 133.05 0 0 1-55.174-12.051l11.82-24.009c13.26 5.923 27.926 9.275 43.354 9.275 2.143 0 4.26-.103 6.369-.206l3.411 26.554c-3.248.266-6.497.438-9.78.438" style="fill:#fff"/><path d="M442.14 279.583c0 7.363-.609 14.631-1.714 21.66l10.448.968a148 148 0 0 0 1.74-22.628c-.034-22.132-4.954-43.097-13.688-61.946l-8.846 5.692a136.8 136.8 0 0 1 12.06 56.254M270.574 146.39l-3.548-9.848c-24.977 6.566-47.315 19.491-65.289 36.934l8.134 6.626c16.775-16.003 37.569-27.823 60.703-33.712m-70.345 43.895-8.075-6.6c-15.025 17.614-25.98 38.743-31.44 62.04l10.252 1.877c5.117-21.523 15.334-41.083 29.263-57.317m-33.052 89.297c0-6.163.437-12.257 1.277-18.249l-10.311-1.877a153 153 0 0 0-1.44 20.126 148.7 148.7 0 0 0 8.768 50.117l9.446-4.689a137 137 0 0 1-7.74-45.428m13.029 58.388-9.343 4.689c12.857 27.154 33.686 49.757 59.528 64.826l4.62-9.377c-23.802-14.032-42.985-34.989-54.805-60.138m243.48-127.131 8.743-5.657a148.4 148.4 0 0 0-57.086-55.517l-4.629 9.377c22.072 12.086 40.38 30.068 52.972 51.797m-119.032-68.7c18.986 0 37.072 3.814 53.512 10.809l4.62-9.378c-17.846-7.662-37.466-11.88-58.132-11.948-8.1.034-16.071.703-23.837 2.006l3.617 9.977c6.6-.969 13.363-1.466 20.22-1.466m24.249 272.777 1.337 10.38a147.7 147.7 0 0 0 72.42-34.988l-7.431-7.338c-18.42 16.14-41.186 27.455-66.326 31.946m-24.249 2.177c-20.417 0-39.805-4.525-57.248-12.523l-4.62 9.343c18.814 8.7 39.771 13.595 61.868 13.655 3.952 0 7.843-.197 11.726-.532l-1.346-10.38c-3.411.231-6.891.438-10.38.438M437.511 315l10.552 1.012c-6.266 24.505-18.617 46.568-35.357 64.517l-7.432-7.303c15.129-16.234 26.383-36.12 32.237-58.226" style="fill:#d1d3d4"/><path d="M478.226 375.137c-11.049 10.312-30.729 10.346-42.215 9.343a133 133 0 0 1-3.317 4.089l59.529 54.737s-4.654-20.392 5.828-35.555c10.483-15.137 34.955-36.094 34.955-36.094l-15.137-18.686s-23.298 7.003-39.643 22.166m-5.957-88.757 33.951-12.591 15.437 23.871 30.866 3.214s-10.774-44.563-38.134-66.728l-4.689 15.163s-28.723-2.443-43.226-13.355c3.857 14.092 5.966 28.895 5.966 44.229 0 2.074-.103 4.114-.171 6.197m-27.986-99.24 63.111-42.694s-27.96-20.957-59.434-22.132l-3.514 17.477-11.615-10.482-30.908 14.202a169.9 169.9 0 0 1 42.36 43.629m-81.6-64.423 31.971-66.797s-35.22-1.174-56.211 1.14c-20.957 2.374-31.44 24.471-31.44 24.471l20.957-3.48s-17.109 24.412-24.54 34.389h1.209c20.451 0 39.977 3.617 58.054 10.277M227.486 56.186s-34.655 12.557-48.652 59.168l32.606 1.132.369 23.94a169.8 169.8 0 0 1 40.483-19.62zm-98.743 146.52c-22.132 3.48-39.609 1.774-47.777 19.551l62.477 11.554c5.76-20.022 15.103-38.537 27.351-54.711-6.994 6.266-24.771 20.863-42.051 23.606" style="fill:#fff"/></svg>