<svg xmlns="http://www.w3.org/2000/svg" xmlns:xlink="http://www.w3.org/1999/xlink" width="600" height="600"><linearGradient id="b"><stop offset="0" style="stop-color:#536e78"/><stop offset=".75" style="stop-color:#99aebc"/><stop offset="1" style="stop-color:#d9eaf3"/></linearGradient><linearGradient id="a"><stop offset="0" style="stop-color:#d9eaf3"/><stop offset=".75" style="stop-color:#99aebc"/><stop offset="1" style="stop-color:#536e78"/></linearGradient><radialGradient xlink:href="#a" id="c" cx="276.237" cy="271.561" r="253.376" fx="276.237" fy="271.561" gradientTransform="matrix(-.0069 -1.00039 1.01433 -.007 36.56 563.645)" gradientUnits="userSpaceOnUse"/><radialGradient xlink:href="#b" id="d" cx="289.084" cy="244.111" r="235.781" fx="289.084" fy="244.111" gradientTransform="matrix(0 -.97976 .98987 0 68.469 568.629)" gradientUnits="userSpaceOnUse"/><path d="M300 0C134.606 0 0 134.566 0 299.969 0 465.397 134.606 600 300 600c165.403 0 300-134.603 300-300.031C600 134.566 465.403 0 300 0M158.906 150H458.25v272.031H158.906Z" style="fill:#fff"/><path d="M576.703 299.974C576.703 452.786 452.82 576.67 300 576.67c-152.811 0-276.694-123.883-276.694-276.695 0-152.82 123.883-276.703 276.694-276.703 152.82 0 276.703 123.883 276.703 276.703"/><path d="M300 23.281c-152.811 0-276.687 123.868-276.687 276.688 0 152.811 123.876 276.687 276.687 276.687 152.82 0 276.688-123.876 276.688-276.687C576.688 147.149 452.82 23.28 300 23.28m1.938 170.844c.726-.018 1.456 0 2.187 0 46.757 0 84.656 38.009 84.656 84.906s-37.899 84.907-84.656 84.907-84.656-38.01-84.656-84.907c0-46.164 36.721-83.744 82.469-84.906"/><path d="M309.313 32.594a253 253 0 0 0-62.094 7.718l30.375 84.344c8.811-1.5 17.857-2.344 27.062-2.344 22.14 0 43.167 4.576 62.281 12.813l40.75-82.719c-30.23-12.728-63.48-19.812-98.375-19.812M233.75 44.062C192.067 57.093 155.048 80.6 125.656 111.5l68.75 56c19.055-18.72 42.85-32.65 69.438-39.781zM420.406 58.22l-40.875 83c25.243 13.697 46.307 34.138 60.844 58.875l81.219-52.438c-24.943-38.203-59.9-69.277-101.188-89.437m-304.093 63.687c-25.612 30.069-44.22 66.13-53.563 105.875l88.719 16.25a156.7 156.7 0 0 1 33.406-66.281zm188.343 9.719c-8.1.034-16.078.697-23.844 2l3.625 9.969c6.6-.969 13.362-1.469 20.22-1.469 18.985 0 37.06 3.818 53.5 10.813l4.624-9.375c-17.845-7.663-37.459-11.87-58.125-11.938m-37.625 4.906c-24.977 6.566-47.307 19.495-65.281 36.938l8.125 6.625c16.774-16.003 37.553-27.8 60.688-33.688zm37.625 10.219c-6.325.034-12.53.5-18.625 1.375L295.375 174c3.051-.266 6.17-.437 9.281-.437 13.997 0 27.371 2.767 39.594 7.687l11.844-24.094c-15.832-6.66-33.19-10.346-51.438-10.406m70.688 2.906-4.625 9.375c22.071 12.086 40.377 30.084 52.969 51.813l8.75-5.656a148.44 148.44 0 0 0-57.094-55.532m-103.156 1.188c-22.33 5.657-42.391 16.947-58.625 32.281l20.906 17.031a106 106 0 0 1 46.844-23.969zm256.718 8.75L446.875 212.5c9.643 20.357 15.094 43.12 15.094 67.094 0 7.963-.641 15.828-1.781 23.5l101.156 9.437c.9-8.7 1.375-17.557 1.375-26.531 0-46.071-12.324-89.206-33.813-126.406m-160.281 3.656-11.844 24.094a105.7 105.7 0 0 1 40.406 40.562l22.5-14.5c-12.12-21.025-29.762-38.43-51.062-50.156m-176.469 20.438c-15.025 17.614-25.977 38.734-31.437 62.03l10.25 1.876c5.117-21.523 15.321-41.078 29.25-57.313zm11.719 9.562a132.6 132.6 0 0 0-28.281 55.188l26.344 4.812c4.148-16.166 12.036-30.868 22.656-43.125zm235.063 24.375-8.844 5.719c7.74 17.211 12.031 36.227 12.031 56.25 0 7.363-.582 14.627-1.687 21.656l10.437.969a148 148 0 0 0 1.75-22.625c-.034-22.132-4.953-43.12-13.687-61.969m-12.844 8.313-22.844 14.718c4.757 12.086 7.438 25.206 7.438 38.938 0 6.394-.583 12.593-1.688 18.687l26.75 2.531a138.5 138.5 0 0 0 1.75-21.218 132.8 132.8 0 0 0-11.406-53.656m-366.188 15.53c-2.545 14.47-3.937 29.326-3.937 44.532 0 31.774 5.882 62.202 16.562 90.188l84.5-42.25c-6.231-16.912-9.656-35.196-9.656-54.344 0-7.372.517-14.681 1.563-21.813zm98.25 18c-.908 6.6-1.434 13.329-1.469 20.126a148.6 148.6 0 0 0 8.782 50.094l9.437-4.688a136.8 136.8 0 0 1-7.719-45.406c0-6.163.441-12.259 1.282-18.25zm14.875 2.72a130 130 0 0 0-1.156 17.406c0 15.163 2.558 29.721 7.281 43.281l24.188-12.094c-3.043-9.84-4.688-20.31-4.688-31.187 0-4.252.284-8.448.781-12.563zm232.563 49.875a106.1 106.1 0 0 1-22.75 39.125l19.031 18.718a132.5 132.5 0 0 0 30.844-55.344zM437.5 315c-5.854 22.106-17.09 41.984-32.219 58.219l7.438 7.312c16.74-17.948 29.078-40.025 35.344-64.531zm19.969 1.844c-6.532 26.785-19.848 50.827-38.063 70.25l74.125 72.812c34.115-36.094 57.735-82.208 65.938-133.5zm-249.094 7.062-23.937 12c11.348 24.172 29.787 44.378 52.656 57.938l11.844-24.063c-17.64-10.877-31.82-26.898-40.563-45.875m-28.156 14.063-9.344 4.687c12.857 27.155 33.688 49.775 59.531 64.844l4.594-9.406c-23.803-14.032-42.961-34.977-54.781-60.125m-17.75 8.875-84.594 42.281c21.771 48.814 58.478 89.41 104.344 116.094l44.031-89.313c-27.686-15.968-50.024-40.065-63.781-69.062m210.25 14.031c-13.492 11.314-29.873 19.339-47.813 22.75l3.375 26.594c24.077-4.355 45.888-15.16 63.563-30.563zm-111.406 15.469-11.844 24a133.1 133.1 0 0 0 55.187 12.062c3.283 0 6.533-.171 9.781-.437l-3.406-26.563c-2.108.103-4.232.219-6.375.219-15.428 0-30.084-3.358-43.344-9.281m133.906 6.625c-18.42 16.14-41.173 27.446-66.313 31.937l1.344 10.406a147.7 147.7 0 0 0 72.406-35zm14.156 13.937c-21.497 19.217-48.303 32.568-77.969 37.625l13.156 102.407c53.538-7.466 101.697-31.665 139.094-67.125zm-161.969 7.656-4.625 9.344c18.815 8.7 39.778 13.596 61.875 13.656 3.952 0 7.836-.196 11.719-.53l-1.344-10.376c-3.411.231-6.886.438-10.375.438-20.417 0-39.807-4.534-57.25-12.531m-8.781 17.782-44.124 89.53c34.483 17.546 73.464 27.531 114.813 27.531 7.2 0 14.306-.369 21.343-.968l-13.125-102.125c-4.251.333-8.52.562-12.875.562-23.571 0-45.94-5.223-66.031-14.531" style="fill:url(#c)"/><path d="M374.406 55.625c-11.429-.004-25.473.28-35.969 1.438C317.48 59.437 307 81.53 307 81.53l20.969-3.469s-17.131 24.398-24.563 34.376h1.219c20.451 0 39.985 3.62 58.063 10.28l31.968-66.812s-8.82-.277-20.25-.281m-146.906.563s-34.66 12.544-48.656 59.156l32.594 1.156.375 23.938a169.7 169.7 0 0 1 40.468-19.625zm220.469 66.125-3.531 17.468-11.594-10.469-30.906 14.188c16.61 11.854 30.952 26.645 42.343 43.625l63.125-42.687s-27.963-20.951-59.437-22.125m-277.188 56.78c-6.994 6.266-24.751 20.883-42.031 23.626-22.131 3.48-39.613 1.754-47.781 19.531l62.469 11.563c5.76-20.023 15.095-38.545 27.343-54.72m343.594 55.063-4.687 15.156s-28.716-2.432-43.22-13.343c3.858 14.091 5.97 28.884 5.97 44.219 0 2.074-.088 4.104-.157 6.187l33.938-12.594 15.437 23.875 30.875 3.219s-10.796-44.553-38.156-66.719m3.5 118.813s-23.31 6.993-39.656 22.156c-11.049 10.311-30.733 10.347-42.219 9.344a133 133 0 0 1-3.312 4.094l59.53 54.75s-4.638-20.4 5.844-35.563C508.546 392.613 533 371.656 533 371.656Z" style="fill:url(#d)"/></svg>