<?xml version="1.0" encoding="UTF-8" standalone="no"?>
<svg
   version="1.1"
   width="600"
   height="246.70358"
   id="svg5"
   xmlns:xlink="http://www.w3.org/1999/xlink"
   xmlns="http://www.w3.org/2000/svg"
   xmlns:svg="http://www.w3.org/2000/svg">
  <defs
     id="defs5" />
  <radialGradient
     cx="0"
     cy="0"
     r="1"
     fx="0"
     fy="0"
     id="radialGradient604"
     gradientUnits="userSpaceOnUse"
     gradientTransform="matrix(22.964081,0,0,-22.964081,747.99902,259.30273)"
     spreadMethod="pad">
    <stop
       style="stop-color:#f6b91d"
       offset="0"
       id="stop1" />
    <stop
       style="stop-color:#d3641c"
       offset="0.7"
       id="stop2" />
    <stop
       style="stop-color:#bf331c"
       offset="1"
       id="stop3" />
  </radialGradient>
  <radialGradient
     cx="0"
     cy="0"
     r="1"
     fx="0"
     fy="0"
     id="radialGradient2995"
     xlink:href="#radialGradient604"
     gradientUnits="userSpaceOnUse"
     gradientTransform="matrix(22.964081,0,0,-22.964081,747.99902,259.30273)"
     spreadMethod="pad" />
  <radialGradient
     cx="0"
     cy="0"
     r="1"
     fx="0"
     fy="0"
     id="radialGradient2998"
     xlink:href="#radialGradient604"
     gradientUnits="userSpaceOnUse"
     gradientTransform="matrix(211.97626,0,0,211.97626,299.99151,123.33488)"
     spreadMethod="pad" />
  <path
     d="M 299.3544,0 C 211.94819,0.43422 149.60354,34.46772 120.72044,54.23081 114.51736,43.66157 104.09582,37.75387 90.86812,37.75387 c -14.390778,0 -22.938475,5.76924 -27.553863,10.59693 -8.400005,8.87078 -9.267698,19.68925 -9.267698,23.6954 0,0.49846 0.03692,1.21846 0.03692,1.21846 0,0.69194 0.258462,1.19077 0.295385,1.88308 H 43.48655 l 0.359631,14.70463 c 0.07385,2.45538 0.110769,5.01231 0.110769,7.61539 0,11.06769 -0.581908,22.64309 -1.624616,30.72001 H 0 v 72.18466 l 16.006164,-1.36615 c 0.221538,-0.0369 5.335388,-0.43348 9.627698,3.48923 5.409234,4.97539 8.372313,15.58155 8.372313,29.82464 v 14.38154 H 171.09241 l -0.24886,-14.63077 c 0,-0.3973 -0.22154,-38.47387 28.05233,-67.18158 22.09847,-22.42156 55.89234,-33.82156 100.4216,-33.82156 h 1.32923 c 44.56618,0 78.36005,11.4 100.4216,33.82156 28.31079,28.67078 28.05232,66.78465 28.05232,67.18158 l -0.21267,14.56616 137.08623,0.0665 v -14.38155 c 0,-14.24309 2.96308,-24.84925 8.33539,-29.82463 4.32924,-3.92271 9.44309,-3.52579 9.66463,-3.48887 l 15.57231,1.32923 L 600,184.72852 v -56.53849 h -42.33233 c -1.08,-8.07693 -1.62462,-19.65232 -1.62462,-30.75694 0,-2.60308 0,-5.12308 0.0738,-7.57847 L 556.47648,75.15 c 0,0 -6.81231,0 -10.95693,0 0.0665,-0.94154 0.43347,-1.66154 0.43347,-2.6677 v -0.86769 c 0,-3.38769 -0.79384,-14.35385 -9.26769,-23.26155 -4.61539,-4.8277 -13.16309,-10.59693 -27.55387,-10.59693 -13.2277,0 -23.68617,5.90769 -29.88925,16.47693 C 450.3222,34.46993 387.9037,0.3253 300.3221,0.00222 h -0.0738 -0.89539 z"
     style="fill:#ffffff"
     id="path3" />
  <path
     d="m 459.1391,141.88625 h -9.73846 c 0,0 -4.61539,-8.94463 -18.46155,-19.72617 l 0.0369,-49.4308 c 12.48001,6.67385 21.96001,13.01539 28.20002,17.48309 l -0.0369,51.67388 z M 389.87137,100.4216 C 379.0529,96.24006 367.58828,92.48314 353.09596,89.75083 v -45.1108 c 13.26463,2.74154 25.56002,6.24 36.77541,10.13539 z M 315.23132,85.23698 c -6.01846,-0.32271 -12.29539,-0.49846 -18.85847,-0.49846 -6.34154,0 -12.94155,0.17575 -18.82155,0.46154 l 0.0369,-45.68311 c 5.94462,-0.43421 12.11078,-0.64615 18.35078,-0.68308 h 0.65576 c 6.34154,0.0369 12.58154,0.24887 18.63693,0.68308 v 45.72003 z m -113.58468,15.65539 0.0369,-45.72926 c 11.07693,-3.88615 23.22463,-7.38462 36.38772,-10.16308 l 0.10117,45.17541 c -13.87386,2.81539 -26.17848,6.52616 -36.52618,10.71693 m -40.02464,23.53848 C 149.6216,134.71393 145.40314,142.8924 145.40314,142.8924 H 133.64313 V 90.21237 c 6.16616,-4.4677 15.61847,-10.74463 27.97848,-17.37232 z m 380.95408,18.10155 c -5.44616,-12.90462 -4.40308,-53.04003 -4.40308,-53.04003 h -19.03386 c 0,0 8.83385,-4.07078 8.83385,-17.01232 0,0 1.00616,-20.38155 -22.4677,-20.38155 -23.47386,0 -21.4154,26.51078 -21.4154,26.51078 0,0 -70.89235,-63.79388 -187.43088,-64.25542 h -0.82154 c -116.36315,0.57231 -187.14473,64.25542 -187.14473,64.25542 0,0 2.05846,-26.51078 -21.378473,-26.51078 -23.47386,0 -22.467706,20.38155 -22.467706,20.38155 0,12.94154 8.833852,17.01232 8.833852,17.01232 H 54.646165 c 0,0 1.006154,40.13541 -4.440003,53.04003 H 10.763061 v 42.19387 c 0,0 33.996944,-4.76308 33.996944,47.59388 H 152.89853 c 0,0 -2.70462,-115.60623 142.82778,-115.63392 h 1.32923 c 145.56932,0 142.82778,115.63392 142.82778,115.63392 h 108.17545 c 0,-52.35696 33.96002,-47.59388 33.96002,-47.59388 V 142.5324 Z"
     style="fill:#bf331c"
     id="path4" />
  <path
     d="m 115.38506,82.0339 -8.51078,7.64308 0.83077,-11.40001 c 0,-0.13846 0.68308,-10.92 -5.04923,-17.12308 v 0 C 99.840434,58.16312 95.98197,56.71388 90.905044,56.71388 v 0 c -6.129235,0 -10.781546,1.55077 -13.781547,4.65232 v 0 c -4.246157,4.47692 -4.070772,10.85539 -4.070772,11.14154 v 0 c 0,9.59078 5.981542,12.69232 6.240004,12.80309 v 0 l 17.446164,8.79692 H 77.271189 62.917334 c 0.110769,11.46463 -0.138462,39.09234 -4.864618,50.23388 v 0 l -1.19077,2.80616 H 53.797328 18.969615 v 32.92617 c 10.061544,0.79385 32.344635,7.17231 33.923097,47.6308 v 0 h 99.092368 c 0.75692,-12.51693 5.22462,-47.30772 33.06463,-75.83082 v 0 c 25.81848,-26.39078 64.2185,-39.77541 114.23084,-39.77541 v 0 h 1.36616 c 50.04926,0 88.48621,13.38463 114.30468,39.77541 v 0 c 27.8031,28.48617 32.30772,63.31389 33.02772,75.83082 v 0 h 99.12929 c 1.57846,-40.45849 23.83386,-46.83695 33.88617,-47.6308 v 0 -32.92617 h -34.82771 -3.06462 l -1.19077,-2.80616 c -4.68923,-11.14154 -4.93846,-38.76925 -4.82769,-50.23388 v 0 h -14.35386 l -19.44001,-0.0369 17.41847,-8.76 c 0.25846,-0.11077 6.24001,-3.21231 6.24001,-12.97847 v 0 c 0,-0.11077 0.17538,-6.48924 -4.1077,-10.96616 v 0 c -3,-3.10155 -7.61539,-4.65232 -13.7077,-4.65232 v 0 c -5.15077,0 -8.97231,1.44924 -11.75078,4.44001 v 0 c -5.80615,6.20308 -5.12308,17.02155 -5.12308,17.12308 v 0 L 493.0899,89.677 484.57913,82.03392 C 483.93297,81.41546 413.51139,19.4308 299.45594,18.96927 v 0 C 186.37895,19.54157 116.06813,81.41546 115.38506,82.03392 m 161.14163,3.16616 0.0369,-45.68311 v -4.32923 l 4.32923,-0.32308 c 6.01847,-0.39692 12.29539,-0.60923 19.29232,-0.64615 v 0 c 6.48923,0.0369 12.79385,0.24923 18.96001,0.64615 v 0 l 4.29231,0.32308 v 4.32923 45.75695 4.83693 l -4.86462,-0.25846 c -5.95385,-0.32308 -12.15693,-0.49847 -18.60924,-0.49847 v 0 c -6.27693,0 -12.76616,0.17539 -18.57232,0.49847 v 0 l -4.86462,0.25846 v -4.91077 z m 115.27392,19.51385 C 379.25599,99.84009 368.11444,96.63701 355.81905,94.29239 v 0 l -3.74769,-0.72 V 89.75085 44.67697 39.00928 l 5.51077,1.12615 c 12.48001,2.55693 25.06155,5.98155 37.39387,10.23693 v 0 l 3.13846,1.08 v 3.28616 45.6831 6.73847 z m -191.17858,-3.82154 0.0369,-45.69233 v -3.27693 l 3.10154,-1.08 c 12.08309,-4.25539 24.48925,-7.71693 36.9231,-10.3477 v 0 l 5.55693,-1.19077 0.0369,5.69539 0.13847,45.14772 0.0369,3.82154 -3.7477,0.72 c -12.94154,2.63077 -24.95078,6.16616 -35.73233,10.45847 v 0 l -6.35077,2.59385 v -6.84924 z m 249.62785,45.57234 -1.29231,-2.44616 c -0.0369,-0.0739 -4.54154,-8.29846 -17.23386,-18.17539 v 0 l -1.80923,-1.41231 v -2.27077 l 0.0369,-49.4308 v -7.68001 l 6.81231,3.60001 c 12.95078,6.92308 22.75387,13.52308 28.70771,17.81539 v 0 l 1.91078,1.37539 v 2.37231 l -0.0369,51.63695 v 4.61539 h -4.61539 -9.73846 -2.74154 z M 132.61891,142.89242 V 90.21239 87.84008 l 1.91077,-1.37539 c 5.91693,-4.25539 15.6554,-10.81847 28.48617,-17.70462 v 0 l 6.81232,-3.67385 v 7.75385 51.5908 2.13231 l -1.61539,1.36615 c -11.04001,9.45232 -15.07385,17.02155 -15.11078,17.0954 v 0 l -1.33846,2.48308 h -2.76923 -11.76001 -4.61539 z"
     style="fill:url(#radialGradient2998)"
     id="path5" />
</svg>
