<?xml version="1.0" encoding="UTF-8" standalone="no"?>
<svg
   version="1.1"
   width="571.25574"
   height="217.96629"
   id="svg1"
   xmlns="http://www.w3.org/2000/svg"
   xmlns:svg="http://www.w3.org/2000/svg">
  <defs
     id="defs1" />
  <path
     d="m 448.3753,127.53239 h -9.73846 c 0,0 -4.61539,-8.94463 -18.46155,-19.72617 l 0.0369,-49.4308 c 12.48001,6.67385 21.96001,13.01539 28.20002,17.48309 l -0.0369,51.67388 z M 379.10757,86.06774 C 368.2891,81.8862 356.82448,78.12928 342.33216,75.39697 v -45.1108 c 13.26463,2.74154 25.56002,6.24 36.77541,10.13539 z M 304.46752,70.88312 c -6.01846,-0.32271 -12.29539,-0.49846 -18.85847,-0.49846 -6.34154,0 -12.94155,0.17575 -18.82155,0.46154 l 0.0369,-45.68311 c 5.94462,-0.43421 12.11078,-0.64615 18.35078,-0.68308 h 0.65576 c 6.34154,0.0369 12.58154,0.24887 18.63693,0.68308 v 45.72003 z m -113.58468,15.65539 0.0369,-45.72926 c 11.07693,-3.88615 23.22463,-7.38462 36.38772,-10.16308 l 0.1019,45.17541 c -13.87385,2.81539 -26.17847,6.52616 -36.52617,10.71693 m -40.02464,23.53848 c -12.00001,10.28308 -16.21847,18.46155 -16.21847,18.46155 H 122.88007 V 75.85851 c 6.16616,-4.4677 15.61847,-10.74463 27.97848,-17.37232 z m 380.95408,18.10155 c -5.44616,-12.90462 -4.40308,-53.04003 -4.40308,-53.04003 h -19.03386 c 0,0 8.83385,-4.07078 8.83385,-17.01232 0,0 1.00616,-20.38155 -22.4677,-20.38155 -23.47386,0 -21.4154,26.51078 -21.4154,26.51078 0,0 -70.89235,-63.79388 -187.43089,-64.25542 h -0.82153 C 168.71087,0.57231 97.929284,64.25542 97.929284,64.25542 c 0,0 2.05847,-26.51078 -21.378467,-26.51078 -23.473861,0 -22.467706,20.38155 -22.467706,20.38155 0,12.94154 8.833851,17.01232 8.833851,17.01232 H 43.883104 c 0,0 1.006155,40.13541 -4.440002,53.04003 H 0 v 42.19387 c 0,0 33.996944,-4.76308 33.996944,47.59388 H 142.13547 c 0,0 -2.70462,-115.60623 142.82778,-115.63392 h 1.32923 c 145.56932,0 142.82778,115.63392 142.82778,115.63392 h 108.17545 c 0,-52.35696 33.96002,-47.59388 33.96002,-47.59388 v -42.19387 z"
     id="path1" />
</svg>
