<svg xmlns="http://www.w3.org/2000/svg" width="305.057" height="302.074" viewBox="0 0 285.991 283.195"><path d="M143.425 0S48.674 109.447 47.536 110.978c3.422 2.246 96.57 60.378 96.57 60.378s90.535-55.646 96.454-59.43C239.475 110.71 143.425-.001 143.425-.001m98.454 139.818c-4.764 2.795-94.595 56.521-98.3 58.71-1.903-1.03-94.755-56.245-97.085-57.531C46.434 140.999 0 195.34 0 195.34l144.305 87.854 141.686-87.362s-40.476-51.802-44.112-56.015" style="fill:#fff"/><path d="M143.481 7.79S57.343 107.286 56.31 108.678c3.11 2.042 87.791 54.887 87.791 54.887s82.305-50.587 87.686-54.027C230.8 108.434 143.48 7.79 143.48 7.79m96.68 139.498c-4.33 2.541-93.268 55.931-96.637 57.92-1.728-.938-93.41-55.678-95.528-56.847a.26.26 0 0 0-.129.033c-.742.492-39.413 44.824-39.413 44.824l134.822 83.504 134.26-82.147s-34.069-43.457-37.375-47.287"/><path d="M136.536 34.35c-.213-.015-57.869 72.746-58.702 73.832.952.627 56.974 36.07 58.702 37.107V89.566ZM50.722 166.79l-22.22 24.668s107.031 65.796 108.034 66.396l-.002-19.814-.002-19.75z" style="fill:#fff"/></svg>