<svg xmlns="http://www.w3.org/2000/svg" width="305.057" height="302.074" viewBox="0 0 285.991 283.194"><linearGradient id="a" x1="225.315" x2="94.08" y1="137.519" y2="61.751" gradientUnits="userSpaceOnUse"><stop offset=".2" style="stop-color:#536e78"/><stop offset=".5" style="stop-color:#d9eaf3"/><stop offset=".8" style="stop-color:#536e78"/></linearGradient><linearGradient id="b" x1="254.928" x2="53.704" y1="253.658" y2="137.482" gradientUnits="userSpaceOnUse"><stop offset=".2" style="stop-color:#536e78"/><stop offset=".5" style="stop-color:#d9eaf3"/><stop offset=".8" style="stop-color:#536e78"/></linearGradient><path d="M142.412 198.529c-3.706-2.188-93.536-55.917-98.3-58.712C40.475 144.03 0 195.833 0 195.833l141.686 87.361 144.305-87.854s-46.435-54.341-46.495-54.343c-2.331 1.286-95.183 56.501-97.084 57.532"/><path d="M45.43 111.925c5.919 3.785 96.454 59.431 96.454 59.431s93.148-58.132 96.57-60.378C237.316 109.448 142.565 0 142.565 0S46.515 110.711 45.43 111.925"/><path d="M61.75 117.75c5.381 3.44 87.686 54.027 87.686 54.027s84.68-52.847 87.791-54.889C236.192 115.497 150.055 16 150.055 16S62.736 116.646 61.75 117.75" style="fill:url(#a)" transform="translate(-7.546 -8.211)"/><path d="M150.012 213.42c-3.369-1.989-92.306-55.379-96.637-57.92C50.069 159.33 16 202.787 16 202.787l134.26 82.146 134.822-83.504s-38.672-44.332-39.414-44.824a.24.24 0 0 0-.127-.033c-2.118 1.169-93.801 55.91-95.529 56.848" style="fill:url(#b)" transform="translate(-7.546 -8.211)"/><path d="M257.487 191.457s-107.03 65.795-108.033 66.395l.002-19.813.002-19.75 85.811-51.5zM208.155 108.182c-.953.627-56.973 36.071-58.701 37.107V34.351c.213-.016 57.867 72.745 58.701 73.831"/></svg>