<svg xmlns="http://www.w3.org/2000/svg" id="Layer_2" width="952.83" height="1077.96" data-name="Layer 2" version="1.1"><defs id="defs16"><linearGradient id="linear-gradient" x1="172.54" x2="853.67" y1="692.85" y2="11.72" gradientTransform="matrix(1 0 0 -1 0 1079.38)" gradientUnits="userSpaceOnUse"><stop id="stop1" offset="0" stop-color="#626e77"/><stop id="stop2" offset=".04" stop-color="#697780"/><stop id="stop3" offset=".11" stop-color="#7d8e98"/><stop id="stop4" offset=".2" stop-color="#9eb4c0"/><stop id="stop5" offset=".2" stop-color="#a1b7c3"/><stop id="stop6" offset=".29" stop-color="#adc6d4"/><stop id="stop7" offset=".38" stop-color="#b5cede"/><stop id="stop8" offset=".5" stop-color="#b7d1e1"/><stop id="stop9" offset=".62" stop-color="#b5cede"/><stop id="stop10" offset=".71" stop-color="#adc6d4"/><stop id="stop11" offset=".8" stop-color="#a1b7c3"/><stop id="stop12" offset=".8" stop-color="#a0b6c2"/><stop id="stop13" offset=".85" stop-color="#8b9da8"/><stop id="stop14" offset=".91" stop-color="#74838d"/><stop id="stop15" offset=".96" stop-color="#67747d"/><stop id="stop16" offset="1" stop-color="#626e77"/></linearGradient><style id="style1">.cls-2{stroke-width:0}</style></defs><g id="Layer_1-2" data-name="Layer 1"><g id="U"><g id="g21"><path id="path16" d="M951.77 801.9c-10.82-49.18-63.62-67.33-63.62-67.33-34.97-69.79-94.87-70.81-94.87-70.81l-58.33-75.55-58.3 75.42C654.28 666.1 636.2 676 636 676V569.44h.06v-23.25h120.77l73.58 89.28L919.4 533h1.02V400.95h-.02v-85.16h1.21L829.8 188.5l-91.81 127.29h1.22v85.16H635.97v-56.43h62.43L506.42 0l-192 344.51h62.37v167.66h-49.6L227.92 86.43l-99.27 425.74H73.29v52.65H0v513.14h952.83V801.9ZM228.32 693.15c-26.75 0-48.43-21.9-48.43-48.93s21.68-48.92 48.43-48.92 48.43 21.9 48.43 48.92-21.68 48.93-48.43 48.93m277.84-168.08c-26.75 0-48.43-21.9-48.43-48.92s21.68-48.92 48.43-48.92 48.43 21.9 48.43 48.92-21.68 48.92-48.43 48.92M636.01 801.9v-41.97c.04 23.11.08 41.96.08 41.96h3.57-3.65zm98.77 73.87c-26.75 0-48.43-21.9-48.43-48.93s21.68-48.92 48.43-48.92 48.43 21.9 48.43 48.92-21.68 48.93-48.43 48.93" style="stroke-width:0;fill-rule:evenodd"/><path id="path17" d="M920.76 808.91c-17.04-47.16-55.38-46.76-55.38-46.76-30.41-74.16-88.47-67.31-88.47-67.31l-42.48-53.81-42.26 53.49c-67.21 1.68-88.56 67.17-88.56 67.17l.06 47.23h-.06V668.88h.01V513.77h168.11l58.75 70.86 58.75-70.86V322.89l-59.4-80.46-59.4 80.46v109.92h-166.8V312.14h39.61L505.82 68.01 369.63 312.14h38.14v232.82H299.68l-71.67-312.01-71.2 312.01h-52.45v38.1H31.21v463.54h889.57V808.93zM228.32 693.15c-26.75 0-48.43-21.9-48.43-48.93s21.68-48.92 48.43-48.92 48.43 21.9 48.43 48.92-21.68 48.93-48.43 48.93m277.84-168.08c-26.75 0-48.43-21.9-48.43-48.92s21.68-48.92 48.43-48.92 48.43 21.9 48.43 48.92-21.68 48.92-48.43 48.92m228.62 350.7c-26.75 0-48.43-21.9-48.43-48.93s21.68-48.92 48.43-48.92 48.43 21.9 48.43 48.92-21.68 48.93-48.43 48.93" style="stroke-width:0;fill-rule:evenodd;fill:url(#linear-gradient)"/><g id="g20"><path id="path18" d="M228.32 574.11c-38.33 0-69.41 31.39-69.41 70.11s31.07 70.11 69.41 70.11 69.41-31.39 69.41-70.11-31.07-70.11-69.41-70.11m0 119.04c-26.75 0-48.43-21.9-48.43-48.93s21.68-48.92 48.43-48.92 48.43 21.9 48.43 48.92-21.68 48.93-48.43 48.93" class="cls-2"/><path id="path19" d="M506.16 406.03c-38.33 0-69.41 31.39-69.41 70.11s31.07 70.11 69.41 70.11 69.41-31.39 69.41-70.11-31.07-70.11-69.41-70.11m0 119.04c-26.75 0-48.43-21.9-48.43-48.92s21.68-48.92 48.43-48.92 48.43 21.9 48.43 48.92-21.68 48.92-48.43 48.92" class="cls-2"/><path id="path20" d="M734.78 756.73c-38.33 0-69.41 31.39-69.41 70.11s31.07 70.11 69.41 70.11 69.41-31.39 69.41-70.11-31.07-70.11-69.41-70.11m0 119.04c-26.75 0-48.43-21.9-48.43-48.93s21.68-48.92 48.43-48.92 48.43 21.9 48.43 48.92-21.68 48.93-48.43 48.93" class="cls-2"/></g></g></g></g></svg>