<?xml version="1.0" encoding="UTF-8" standalone="no"?>
<svg
   version="1.1"
   width="600"
   height="503.19629"
   id="svg1"
   xmlns="http://www.w3.org/2000/svg"
   xmlns:svg="http://www.w3.org/2000/svg">
  <defs
     id="defs1" />
  <path
     d="m 171.37649,0 c 0,0 -31.64648,3.34133 -31.64648,36.15625 L 22.140165,68.986328 c 0,0 -29.4439147,11.276701 -20.4218747,49.744142 L 99.007352,481.74414 c 0,0 20.367608,27.17506 44.105468,20.35352 l 156.9375,-43.14258 156.86719,43.14258 c 23.73786,6.82154 44.10742,-20.35352 44.10742,-20.35352 L 598.25931,118.73047 C 607.33636,80.263029 577.95852,68.986328 577.95852,68.986328 L 460.35696,36.15625 C 460.35696,3.34133 428.65579,0 428.65579,0 Z m 1.01758,13.546875 h 255.24414 c 1.44408,0.26131 6.00974,1.27811 10.31445,4.125 5.95511,4.02966 8.80274,9.888675 8.80274,18.484375 v 10.316406 c 0,0 124.80951,34.807625 126.63867,35.302735 3.27324,1.49909 13.05078,7.413579 13.05078,23.037109 0,3.17696 -0.42565,6.72458 -1.34765,10.69922 -0.16504,0.70141 -94.86965,354.1441 -96.4375,359.83789 -4.12593,4.73107 -16.43373,16.9705 -27.98633,13.69727 l -160.62305,-44.2168 -160.63672,44.2168 c -11.55261,3.27323 -23.90328,-8.9662 -28.04297,-13.69727 -1.56785,-5.69379 -96.215826,-359.13703 -96.380856,-359.83789 -0.96272,-3.97464 -1.402343,-7.52226 -1.402343,-10.69922 0,-15.62353 9.832473,-21.538019 13.064453,-23.037109 1.81541,-0.49511 126.624996,-35.302735 126.624996,-35.302735 V 36.15625 c 0,-8.5957 2.84732,-14.454715 8.85743,-18.484375 4.30472,-2.84689 8.81568,-3.86424 10.25976,-4.125 z m 1.56836,16.970703 c 0,0 -5.32227,2.256558 -5.32227,6.767578 V 412.75781 c 0,0 -1.8e-4,7.57813 5.32227,7.57813 h 252.54688 c 0,0 6.0664,-1.55427 6.0664,-7.57813 V 37.285156 c 0,0 -0.79896,-6.767578 -6.0664,-6.767578 z M 449.5054,64.419922 V 413.51562 c 0,10e-6 -3.01224,22.60938 -21.11133,22.60938 h -98.04492 l 131.18945,36.21094 c 0,0 7.57776,3.75585 11.27735,-4.50977 L 569.36282,109.6543 c 0,0 3.75446,-11.279089 -5.26758,-14.291019 z M 150.58157,65.175781 35.935087,96.121094 c -9.02204,2.99818 -5.212891,14.289066 -5.212891,14.289066 L 127.1597,468.58203 c 3.82336,8.26562 11.33203,4.51172 11.33203,4.51172 l 131.20508,-36.1582 H 171.6929 c -18.1541,0 -21.11133,-22.67774 -21.11133,-22.67774 z M 327.8179,82.849609 c 20.73968,0 37.71133,5.583047 50.87305,16.654297 13.10671,11.167524 19.7207,25.195984 19.7207,42.277344 0,13.64308 -4.73131,25.56635 -14.17969,35.82617 -9.46214,10.25982 -26.91369,21.22051 -52.43945,32.82813 28.799,29.28036 43.19922,53.82956 43.19922,73.75781 0,19.66695 -7.85434,37.17481 -23.58789,52.55078 -15.6923,15.30721 -37.28383,22.99609 -64.625,22.99609 -26.81856,0 -47.76497,-7.20596 -62.75586,-21.60546 -14.99089,-14.3995 -22.51367,-29.817 -22.51367,-46.25196 0,-16.06363 7.46875,-31.05427 22.34961,-45.01367 14.89462,-13.91814 35.52258,-25.41741 61.79101,-34.43945 -24.45302,-23.97167 -36.69336,-45.50843 -36.69336,-64.58399 0,-17.98907 7.83927,-33.35121 23.47656,-45.97656 15.67854,-12.680357 34.10871,-19.019531 55.38477,-19.019531 z m -2.79297,14.88086 c -12.8454,0 -23.58658,4.084641 -32.07227,12.240231 -8.59568,8.16935 -12.78906,17.35606 -12.78906,27.50586 0,7.04159 1.99378,13.80727 6.02344,20.3125 4.08468,6.4502 13.69735,18.00221 28.89453,34.49219 l 4.36133,4.77344 c 33.25501,-16.97134 49.9082,-36.30793 49.9082,-57.91407 0,-12.07523 -4.3047,-22.01871 -12.90039,-29.76171 -8.59569,-7.78426 -19.07549,-11.648441 -31.42578,-11.648441 z M 298.16556,226.07422 c -22.29379,9.72345 -39.00264,20.29822 -50.12891,31.64453 -11.16752,11.38757 -16.75195,23.79369 -16.75195,37.23047 0,14.39951 5.58443,26.26809 16.75195,35.77148 11.18128,9.40713 24.65895,14.13865 40.40625,14.13868 15.47225,-10e-6 28.35932,-4.67719 38.61914,-14.0293 10.25982,-9.35211 15.41602,-20.40915 15.41602,-33.14453 0,-18.5942 -14.77083,-42.496 -44.3125,-71.61133 z"
     id="path1" />
</svg>
