<svg xmlns="http://www.w3.org/2000/svg" xmlns:xlink="http://www.w3.org/1999/xlink" width="600" height="829.265"><radialGradient id="a" cx="0" cy="0" r="1" fx="0" fy="0" gradientTransform="matrix(15.08492 0 0 -15.08492 747.354 259.263)" gradientUnits="userSpaceOnUse" spreadMethod="pad"><stop offset="0" style="stop-color:#ebd491"/><stop offset=".7" style="stop-color:#d2bb7b"/><stop offset="1" style="stop-color:#8b723c"/></radialGradient><radialGradient xlink:href="#a" id="b" cx="0" cy="0" r="1" fx="0" fy="0" gradientTransform="translate(299.958 415.421)scale(312.73483)" gradientUnits="userSpaceOnUse" spreadMethod="pad"/><path d="M131.226 829.264c-10.366 0-20.089-2.985-28.34-8.583-12.066-8.251-19.28-22.017-19.612-37.648-.312-17.913 8.189-35.804 21.706-45.838 5.349-3.98 10.2-7.38 14.989-10.78 4.125-2.986 8.417-5.992 13.123-9.475l2.01-1.368c5.93-18.638 18.224-55.478 34.664-97.19 14.99-37.98 30.289-74.986 45.527-111.66 11.817-28.59 23.323-56.204 34.414-83.901-4.374 1.058-8.914 1.7-13.455 1.7-8.5 0-16.44-2.115-23.55-6.075-33.938-19.529-25.19-58.96-22.287-71.918.975-4.374 1.554-9.142 2.197-13.848.974-6.8 1.95-13.6 3.235-19.675 5.66-25.52 22.1-52.72 51.497-52.72 17.58 0 29.729 7.857 36.446 13.35 5.1.83 10.283 1.225 15.798 1.225 1.534 0 2.985-.083 4.54-.083 8.417-26.163 15.383-49.797 21.623-72.955-62.05 9.869-156.379 38.79-205.388 55.146a217 217 0 0 1-3.711 5.577c-11.9 17.249-34.27 36.115-60.267 36.115-18.057 0-34.643-9.06-45.589-24.94-25.417-37.483.725-72.79 10.532-86.078 1.534-2.032 3.006-3.96 4.291-5.909 13.29-20.171 26.89-37.98 40.012-55.146 17.083-22.514 33.274-43.66 47.704-68.435 5.908-10.117 6.074-19.529 6.074-19.674.066-11.174 5.1-22.204 13.766-29.398C140.203 3.317 148.869 0 157.866 0c2.032 0 4.126.166 6.24.498.393.082 39.038 7.11 81.227 9.308 35.555 1.866 221.393 2.426 277.513 2.592h22.93c34.082 0 50.046 20.98 53.28 38.954 6.406 35.14-21.457 56.763-33.274 65.989-1.535 1.224-3.09 2.363-4.375 3.483-11.506 9.806-20.98 20.338-29.003 32.32-14.16 20.732-24.775 44.387-36.032 69.41-4.623 10.449-9.308 20.815-14.242 31.014l-1.95 4.209c30.124 7.94 36.53 31.097 37.732 39.183 2.343 15.238.727 52.326-64.786 72.81a611 611 0 0 1-27.366 7.774c-.331.975-.726 1.948-1.058 2.923-12.149 33.357-22.017 70.943-32.549 110.79l-8.5 31.906c-16.295 60.246-10.78 171.761-10.697 172.88.81 15.321-7.774 29.647-21.706 36.219l-175.804 82.926-4.623 2.177c-10.698 5.349-23.966 11.9-39.598 11.9"/><path d="M561.801 58.151c-1.285-7.131-11.257-7.857-16.025-7.94h-22.992c-78.718-.166-245.068-.808-279.4-2.591-45.34-2.26-86.16-9.806-86.16-9.806s.809 18.886-11.175 39.452c-27.138 46.48-59.21 80.5-88.835 125.364-9.33 13.994-27.635 31.326-15.072 49.714 13.123 19.198 34.498 1.39 43.578-11.65 3.068-4.458 5.992-9.413 8.251-14.74 0 0 203.917-70.55 275.337-65.036 0 0 3.566 10.615-6.551 48.906-9.164 34.58-19.446 67.71-30.455 100.175-21.789 3.09-41.629 4.292-63.978-.725-5.66-1.285-9.225-11.174-21.063-11.174-7.194 0-13.102 16.938-14.409 23.012-2.26 10.366-3.15 23.157-5.431 33.44-2.426 11.009-5.743 25.334 4.063 30.932 9.226 5.349 30.206-9.806 32.88-11.092 14.492-7.297 34.726-11.9 49.321-12.563h.229c-33.772 91.198-72.395 177.774-108.924 270.403-22.743 57.82-37.649 106.975-37.649 106.975l-11.817 8.355c-10.137 7.36-17.974 12.625-28.112 20.089-5.494 4.042-9.308 17.56-3.068 21.768 8.583 5.908 23.157-2.903 34.974-8.5 11.755-5.577 175.825-82.927 175.825-82.927s-6.074-117.735 11.983-184.718c14.098-52.39 25.997-101.71 41.94-145.682 2.757-7.629 5.763-14.989 8.749-22.286 14.097-3.234 28.506-6.8 44.055-11.734 8.665-2.757 41.297-13.849 38.623-30.683-2.426-15.963-42.998-8.355-55.064-7.132-2.01.166-4.042.56-6.074.976 8.749-18.638 18.223-37.815 28.672-59.52 17-35.39 30.848-72.727 52.97-105.297 10.116-14.968 22.099-28.174 35.782-39.825 9.806-8.438 27.78-18.804 25.023-33.938" style="fill:#8b723c"/><path d="M155.915 83.01c-15.943 27.366-33.855 50.772-51.166 73.452-12.646 16.606-25.686 33.69-38.063 52.39-1.7 2.59-3.732 5.348-5.763 8.105C50.64 230.89 46.265 238.25 51.53 245.94c2.343 3.483 4.043 3.483 4.79 3.483 5.244 0 14.159-6.883 20.067-15.217 2.923-4.374 5.35-8.583 7.05-12.626l1.948-4.789 4.851-1.617c7.774-2.674 191.768-65.926 270.568-65.926q4.997 0 9.392.249l7.463.642 2.426 7.132c1.12 3.234 3.877 16.772-6.323 55.478a1576 1576 0 0 1-30.6 100.983l-2.28 6.635-7.05.974a249 249 0 0 1-34.082 2.757c-11.838 0-22.846-1.223-33.938-3.731-5.1-1.12-8.5-4.292-11.257-6.8-2.177-2.011-3.566-3.152-5.017-3.711a49.8 49.8 0 0 0-5.598 13.682c-1.036 4.852-1.783 10.366-2.508 15.86-.892 6.075-1.7 12.149-2.903 17.83-2.508 11.257-3.006 17.476-2.28 17.974 2.363 0 7.691-1.534 19.757-9.164q2.446-1.45 3.338-1.928c17-8.5 39.266-12.957 53.757-13.62l17.497-.809-5.991 16.13c-20.006 53.922-42.106 107.451-63.563 159.197A7194 7194 0 0 0 215.6 636.441c-22.349 56.7-37.255 105.607-37.42 106.104l-1.12 3.711-3.172 2.28-11.651 8.169c-5.017 3.732-9.474 6.883-14.015 10.055-4.457 3.234-8.976 6.385-13.848 9.951a8.3 8.3 0 0 0-1.452 3.068c4.292-.725 10.843-3.96 16.192-6.634l5.266-2.591c10.366-4.852 137.761-64.87 169.004-79.61-.954-27.531-3.151-121.881 12.73-180.676l8.582-32.3c10.76-40.654 20.897-79.05 33.689-114.272q4.001-11.03 8.5-21.706l2.591-6.469 5.826-1.389c12.149-2.736 26.806-6.302 43.08-11.402 22.93-7.298 31.263-15.715 31.74-16.523-.062 0-2.653-1.949-13.185-1.949a187 187 0 0 0-24.049 2.115l-6.24.725a42 42 0 0 0-3.089.394l-2.591.415-21.126 3.234 9.143-19.363a6538 6538 0 0 1 17.248-35.7l11.506-23.82c4.769-9.87 9.226-19.924 13.766-29.875 11.59-25.915 23.655-52.638 40.095-76.852 10.511-15.549 22.826-29.315 37.732-42.106q2.84-2.364 6.157-4.955c6.385-5.017 14.16-11.009 15.134-16.357-1.036-.228-2.674-.477-4.851-.477h-23.074c-56.37-.166-243.203-.643-279.96-2.509-31.015-1.617-59.604-5.597-75.235-8.106a95.4 95.4 0 0 1-11.59 31.99" style="fill:url(#b);stroke-width:20.7316"/></svg>