<?xml version="1.0" encoding="UTF-8" standalone="no"?>
<svg
   version="1.1"
   id="Layer_1"
   x="0px"
   y="0px"
   width="408.48532"
   height="371.45627"
   xmlns="http://www.w3.org/2000/svg"
   xmlns:svg="http://www.w3.org/2000/svg">
  <defs
     id="defs3" />
  <linearGradient
     id="SVGID_1_"
     gradientUnits="userSpaceOnUse"
     x1="392.53519"
     y1="341.41211"
     x2="114.848"
     y2="63.724899">
    <stop
       offset="0.1"
       style="stop-color:#612c75"
       id="stop1" />
    <stop
       offset="0.5"
       style="stop-color:#bf99c3"
       id="stop2" />
    <stop
       offset="0.9"
       style="stop-color:#612c75"
       id="stop3" />
  </linearGradient>
  <path
     d="m 258.81133,11.811492 c 15.581,-8.4100001 33.551,-10.3500001 50.921,-11.60000006 7.14,0.11 15.319,-1.61000004 21.39,3.19999996 4.12,3.08 4.8,8.5000001 4.46,13.2900001 0.511,7.64 -2.46,14.82 -3.83,22.2 -8.42,40.88 -10.08,82.789998 -9.34,124.409998 27.63,-7.88 55,-16.88 81.5,-28.04 0.901,-0.398 4.573,-2.367 4.573,-2.367 0,0 -0.031,0.891 -0.104,1.917 -0.53,8.98 -2.699,17.79 -5.41,26.33 -3.129,8.67 -7.189,17.31 -13.85,23.84 -5.9,5.45 -13.05,9.47 -20.6,12.16 -9.73,3.21 -19.99,4.25 -30.04,6.04 -4.74,0.72 -9.4,1.94 -14.19,2.329 1.38,28.261 3.68,56.471 6.38,84.641 2.16,16.43 3,33.34 8.99,48.971 1.08,4.259 1.771,10.13 -2.851,12.55 -8.829,4.539 -19,5.05 -28.68,6.27 -5.13,0.311 -10.28,0.431 -15.419,0.38 -6.521,-0.04 -12.241,-4.729 -14.911,-10.47 -5.939,-11.5 -3.659,-24.82 -5.31,-37.18 -0.54,-16.681 -2.01,-33.291 -2.521,-49.971 -1.06,-7.41 -0.449,-14.92 -1.37,-22.34 -0.569,-7.27 -0.229,-14.59 -1.259,-21.82 -21.73,3.891 -43.541,7.34 -65.38,10.61 2.37,34.109 4.78,68.221 7.81,102.271 0.699,7.409 1.46,14.819 2.62,22.17 0.159,4.81 1.209,11.03 -3.601,14.05 -7.35,3.88 -15.94,4.21 -24.02,5.41 -8.65,0.63 -17.34,0.3 -26,0.359 -4.98,-0.28 -10.33,0.65 -14.85,-2 -6.63,-3.75 -10.06,-11.229 -11.22,-18.489 -2.93,-19.67 -3.6,-39.57 -5.22,-59.36 -1.01,-18.56 -2.36,-37.11 -3.17,-55.67 -10.51,0.439 -20.98,1.54 -31.510004,1.48 -23.66,0.089 -47.74,1.06 -70.82,-5.101 -7.72,-2.08 -15.9199998,-5.2 -20.5499998,-12.141 -2.55,-5.359 -1.58000004,-12.17 2.05,-16.84 4.94,-6.369 11.4999998,-11.28 18.3299998,-15.46 14.53,-8.669 30.58,-14.49 46.84,-19.02 16.7,-4.52 33.690004,-8.27 50.920004,-10.08 -0.31,-16.21 -1.85,-32.33 -2.66,-48.5 -1.22,-15.869998 -2.18,-31.749998 -3.6,-47.599998 -0.25,-6.72 -2.9,-13.75 -8.66,-17.62 -2.37,-1.43 -5.410004,-1.99 -7.020004,-4.45 -0.87,-2.66 0.38,-5.74 2.770004,-7.16 19.05,-12.31 41.05,-19.23 63.18,-23.4900001 9.08,-1.58 18.3,-4.13 27.56,-2.38 4.42,1.18 8.17,4.5400001 9.58,8.9200001 3.24,9.18 0.42,18.85 0.39,28.25 -1,5.96 -0.53,12.03 -1.48,17.99 -1.48,30.14 -3.19,60.349998 -1.72,90.529998 0.3,12.01 0.85,24 1.52,35.99 20.98,-3.359 41.89,-7.18 62.71,-11.45 1.27,-0.38 2.729,-0.38 3.81,-1.23 -1.101,-12.57 -0.48,-25.21 -0.87,-37.8 0.14,-34.37 0.32,-68.739998 0.21,-103.119998 -0.06,-4 -0.97,-8 -2.609,-11.66 -1.311,-2.88 -3.771,-4.99 -5.32,-7.72 -0.188,-1.609 -0.368,-3.679 1.451,-4.429 z M 92.532326,186.22149 c -4.91,1.98 -10.03,4.141 -13.44,8.381 2.59,1.72 5.38,3.38 8.56,3.56 11.48,1.83 23.120004,0.66 34.630004,0.05 -0.61,-7.05 -1.21,-14.1 -1.22,-21.18 -9.64,2.619 -19.26,5.429 -28.530004,9.189 z"
     id="path3" />
</svg>
