<?xml version="1.0" encoding="UTF-8" standalone="no"?>
<svg
   version="1.1"
   id="svg4142"
   x="0px"
   y="0px"
   width="212.73204"
   height="153.55586"
   xmlns="http://www.w3.org/2000/svg"
   xmlns:svg="http://www.w3.org/2000/svg">
  <defs
     id="defs7" />
  <g
     id="g2"
     transform="translate(0,0.00106966)">
    <path
       d="m 41.641,151.103 c -2.219,-2.22 -2.491,-3.508 -1.763,-8.363 2.91,-19.398 17.879,-38.656 37.511,-48.258 19.661,-9.611 41.979,-9.307 61.127,0.838 17.882,9.475 33.195,30.867 34.279,47.891 0.484,7.63 0.373,8 -2.879,9.48 -3.869,1.764 -4.267,1.576 -16.771,-7.947 -15.64,-11.91 -38.787,-17.139 -59.589,-13.453 -16.19,2.869 -24.389,6.67 -41.665,19.326 -5.175,3.791 -6.863,3.87 -10.25,0.486 z"
       id="path1" />
    <path
       d="m 21.814,137.24 c -2.922,-3.138 -3.458,-13.384 -1.295,-24.785 1.397,-7.367 2.434,-5.474 -14.604,-26.738 L 0,78.332 l 15.82,0.879 15.82,0.88 1.861,-3.601 c 1.023,-1.979 4.188,-6.543 7.033,-10.142 L 45.705,59.805 42.52,44.646 c -1.752,-8.337 -2.955,-15.389 -2.673,-15.671 0.282,-0.282 6.656,2.741 14.165,6.717 l 13.653,7.229 10.131,-3.348 c 5.572,-1.842 10.909,-3.349 11.861,-3.349 1.542,0 9.886,-17.91 14.704,-31.563 0.909,-2.578 1.964,-4.676 2.342,-4.662 0.378,0.015 4.062,7.984 8.187,17.711 l 7.5,17.687 8.551,2.315 c 4.703,1.272 10.225,3.179 12.268,4.234 3.612,1.869 4.148,1.719 20.059,-5.652 8.989,-4.164 16.791,-7.571 17.335,-7.571 0.545,0 -1.472,7.34 -4.479,16.312 l -5.473,16.312 6.338,9.34 6.339,9.339 15.042,-0.85 c 8.942,-0.507 14.758,-0.39 14.341,0.286 -0.387,0.625 -5.008,6.479 -10.27,13.011 -9.124,11.327 -9.529,12.104 -8.838,16.875 0.4,2.75 1.061,9.219 1.461,14.375 0.656,8.387 0.445,9.737 -1.997,12.813 -2.642,3.323 -6.689,4.375 -9.569,2.479 -0.77,-0.506 -3.455,-5.393 -5.975,-10.858 -10.551,-22.912 -27.221,-38.541 -48.881,-45.822 -6.838,-2.297 -11.479,-2.944 -21.25,-2.963 -20.941,-0.039 -37.724,7.262 -53.313,23.19 -7.329,7.49 -16.101,20.935 -18.696,28.66 -2.976,8.858 -8.6,11.35 -13.569,6.018 z"
       id="path2" />
  </g>
  <g
     id="g7"
     transform="translate(0,0.00106966)">
    <linearGradient
       id="SVGID_1_"
       gradientUnits="userSpaceOnUse"
       x1="0.0911"
       y1="105.3008"
       x2="97.178101"
       y2="161.354"
       gradientTransform="matrix(1,0,0,-1,54,268.5527)">
      <stop
         offset="0.2"
         style="stop-color:#536e78"
         id="stop2" />
      <stop
         offset="0.5"
         style="stop-color:#d9eaf3"
         id="stop3" />
      <stop
         offset="0.8"
         style="stop-color:#536e78"
         id="stop4" />
    </linearGradient>
    <path
       fill="url(#SVGID_1_)"
       d="m 54.816,142.132 c 14.372,-11.3 30.592,-16.425 51.949,-16.417 22.027,0.007 35.742,4.438 51.71,16.709 9.524,7.318 11.214,7.023 9.354,-1.637 -3.245,-15.112 -15.728,-31.668 -30.285,-40.174 C 120.141,90.444 97.79,89.925 78.733,99.25 c -8.146,3.983 -20.485,15.065 -25.483,22.882 -4.518,7.063 -9.622,21.879 -8.524,24.737 0.887,2.314 1.47,2.041 10.09,-4.737 z"
       id="path4"
       style="fill:url(#SVGID_1_)" />
    <linearGradient
       id="SVGID_2_"
       gradientUnits="userSpaceOnUse"
       x1="-26.467501"
       y1="130.1338"
       x2="127.5818"
       y2="219.0742"
       gradientTransform="matrix(1,0,0,-1,54,268.5527)">
      <stop
         offset="0.2"
         style="stop-color:#536e78"
         id="stop5" />
      <stop
         offset="0.5"
         style="stop-color:#d9eaf3"
         id="stop6" />
      <stop
         offset="0.8"
         style="stop-color:#536e78"
         id="stop7" />
    </linearGradient>
    <path
       fill="url(#SVGID_2_)"
       d="M 31.639,126.929 C 50.546,85.23 92.036,64.934 131.375,78.14 c 12.377,4.153 19.046,8.164 28.872,17.354 9.229,8.633 16.313,18.534 21.83,30.508 4.703,10.211 4.233,9.654 6.531,7.748 2.771,-2.299 2.103,-16.938 -1.265,-27.646 -0.379,-1.207 2.351,-5.729 6.896,-11.422 4.138,-5.186 7.521,-9.791 7.521,-10.235 0,-0.445 -4.922,-0.476 -10.938,-0.064 l -10.938,0.746 -5,-8.262 c -2.75,-4.543 -6.213,-9.406 -7.692,-10.808 l -2.693,-2.547 4.247,-12.611 c 2.336,-6.936 4.108,-12.735 3.941,-12.889 -0.166,-0.153 -5.928,2.261 -12.803,5.364 -11.456,5.171 -12.813,5.512 -16.25,4.082 -2.063,-0.856 -8.604,-2.983 -14.537,-4.727 l -10.787,-3.167 -5.387,-12.92 c -2.962,-7.106 -5.702,-12.912 -6.087,-12.901 -0.385,0.01 -2.898,5.493 -5.582,12.188 -2.685,6.693 -5.24,12.588 -5.68,13.1 -0.44,0.512 -4.713,1.975 -9.495,3.25 -4.783,1.276 -10.882,3.252 -13.555,4.392 l -4.858,2.071 -10.454,-5.699 c -5.75,-3.133 -10.454,-5.039 -10.454,-4.234 0,0.805 0.954,6.096 2.119,11.757 l 2.119,10.293 -6.026,7.996 c -3.313,4.397 -6.938,9.897 -8.053,12.222 L 34.89,85.306 23.326,84.493 C 16.965,84.046 11.76,84.014 11.76,84.429 c 0,0.411 3.429,4.943 7.62,10.072 l 7.62,9.326 -1.37,7.865 c -1.524,8.752 -1.821,21.17 -0.537,22.453 1.838,1.831 3.05,0.495 6.546,-7.216 z"
       id="path7"
       style="fill:url(#SVGID_2_)" />
  </g>
</svg>
