<?xml version="1.0" encoding="UTF-8" standalone="no"?>
<svg
   version="1.1"
   id="svg4142"
   x="0px"
   y="0px"
   width="190.002"
   height="134.43639"
   viewBox="80.735 111.276 190.002 134.43639"
   xmlns="http://www.w3.org/2000/svg"
   xmlns:svg="http://www.w3.org/2000/svg">
  <defs
     id="defs2" />
  <path
     d="m 123.789,239.66401 c 14.372,-11.299 30.59,-16.424 51.949,-16.417 22.027,0.007 35.742,4.439 51.71,16.709 9.524,7.319 11.214,7.024 9.354,-1.636 -3.245,-15.113 -15.726,-31.668 -30.285,-40.174 -17.403,-10.169 -39.754,-10.688 -58.81,-1.364 -8.146,3.985 -20.487,15.066 -25.485,22.882 -4.516,7.063 -9.622,21.879 -8.524,24.738 0.887,2.313 1.47,2.04 10.091,-4.738 z"
     id="path1" />
  <path
     d="m 100.612,224.46101 c 18.907,-41.699 60.397,-61.995 99.736,-48.789 12.377,4.154 19.046,8.164 28.872,17.355 9.229,8.633 16.313,18.534 21.83,30.508 4.704,10.21 4.235,9.654 6.533,7.748 2.771,-2.299 2.101,-16.94 -1.265,-27.646 -0.379,-1.207 2.35,-5.728 6.896,-11.422 4.138,-5.185 7.523,-9.791 7.523,-10.236 0,-0.445 -4.922,-0.475 -10.938,-0.064 l -10.938,0.747 -5,-8.262 c -2.75,-4.543 -6.213,-9.407 -7.693,-10.808 l -2.694,-2.547 4.247,-12.611 c 2.336,-6.936 4.11,-12.736 3.943,-12.889 -0.166,-0.153 -5.928,2.261 -12.803,5.364 -11.456,5.171 -12.813,5.512 -16.25,4.083 -2.063,-0.857 -8.604,-2.984 -14.537,-4.727 l -10.787,-3.167 -5.387,-12.92 c -2.962,-7.106 -5.702,-12.912 -6.087,-12.902 -0.385,0.01 -2.898,5.494 -5.582,12.188 -2.684,6.693 -5.24,12.588 -5.68,13.1 -0.44,0.512 -4.712,1.974 -9.495,3.25 -4.783,1.276 -10.882,3.251 -13.554,4.391 l -4.859,2.071 -10.454,-5.698 c -5.75,-3.134 -10.454,-5.04 -10.454,-4.235 0,0.805 0.954,6.096 2.119,11.757 l 2.119,10.293 -6.026,7.996 c -3.314,4.398 -6.938,9.897 -8.053,12.221 l -2.027,4.227 -11.566,-0.813 c -6.361,-0.447 -11.566,-0.477 -11.566,-0.064 0,0.411 3.429,4.944 7.62,10.073 l 7.62,9.325 -1.37,7.866 c -1.524,8.753 -1.821,21.17 -0.537,22.453 1.836,1.831 3.048,0.494 6.544,-7.216 z"
     id="path2" />
</svg>
