<svg xmlns="http://www.w3.org/2000/svg" width="112.044" height="125.308" viewBox="0 0 112.044 125.308"><defs><linearGradient id="a" x1="-2.505" x2="114.767" y1="61.636" y2="61.636" gradientUnits="userSpaceOnUse"><stop offset=".044" stop-color="#612c75"/><stop offset=".105" stop-color="#744284"/><stop offset=".222" stop-color="#94679f"/><stop offset=".331" stop-color="#ab82b3"/><stop offset=".427" stop-color="#ba93be"/><stop offset=".5" stop-color="#bf99c3"/><stop offset=".585" stop-color="#bb94c0"/><stop offset=".672" stop-color="#b088b7"/><stop offset=".761" stop-color="#9e73a8"/><stop offset=".852" stop-color="#855693"/><stop offset=".942" stop-color="#653179"/><stop offset=".954" stop-color="#612c75"/></linearGradient></defs><path d="M23.617 0c-3.678 7.105-7.32 13.908-9.292 21.747-1.412 5.615-2.325 11.777-1.627 17.537l8.997 6.228c.35-11.032 5.403-21.054 11.863-29.728.199-.267-.005-.597.617-.452-.547 3.728-1.403 7.432-1.884 11.172-.727 5.652-1.268 11.813-.245 17.422l8.006 6.312 12.125-7.12v4.55h7.68v-4.55l12.124 7.12 8.006-6.312c1.037-5.625.48-11.757-.245-17.422-.478-3.74-1.314-7.45-1.884-11.172.622-.145.419.185.618.452 6.476 8.697 11.522 18.658 11.862 29.728l8.998-6.228c.715-5.752-.21-11.93-1.628-17.537C95.724 13.9 92.114 7.107 88.417 0h.48c3.617 2.55 6.989 4.8 9.963 8.141 8.64 9.705 12.306 23.336 10.798 36.176l-17.88 13.057.302.41 18.828 8.518c.33.155.57.405.683.755.162.5.317 2.552.355 3.239 1.26 22.219-9.716 43.273-28.8 54.635-.318.19-.49.47-.97.347 11.085-15.004 18.653-33.22 18.201-52.18l-5.958-2.912c.946 10.162-.76 20.47-6.143 29.204-3.557 5.772-8.646 10.053-13.537 14.632-.083-.405.116-.697.278-1.037 1.153-2.419 2.747-4.693 3.924-7.103 4.328-8.855 5.816-19.3 4.641-29.075-.104-.87-.486-3.79-.912-4.359l-9.612-5.137-6.054 22.105-11.075 11.893-10.896-11.896c-2.275-7.167-3.831-14.575-6.053-21.752-.08-.262.168-.429-.359-.346l-9.353 5.277c-2.277 10.382-1.244 22.309 3.186 32.01 1.292 2.83 3.28 5.572 4.576 8.369.12.262.468.83.148 1.05-4.798-4.724-9.84-8.82-13.421-14.631-3.905-6.337-6.061-13.964-6.39-21.41-.116-2.608.256-5.199.131-7.793l-5.891 3.034c-.26 18.872 7.097 37.046 18.248 51.94l-.361.124c-8.428-5.73-15.91-11.907-21.191-20.771C2.48 94.744-.605 81.43.099 70.068c.053-.854.208-3.103.73-3.583l19.427-8.759-.498-.816L2.48 44.452C.488 30.01 5.668 13.811 17.024 4.319 18.932 2.724 21.284 1.67 23.137 0zM9.457 19.403c-1.34 2.751-2.866 5.717-3.12 8.863-.398.642-.53 1.599-.65 2.345-.528 3.26-.897 7.942-.564 11.203.144 1.411.46.926 1.214 1.543 1.017.835 2.065 1.61 3.12 2.396 1.006.749 2.111 1.416 3.12 2.155 1.665 1.221 3.378 2.381 5.04 3.594 1.604 1.17 3.194 2.411 4.8 3.593 1.266.932 2.484 1.956 3.842 2.757.068.346-.193.404-.418.54-.9.547-2.42 1.024-3.424 1.493-1.608.751-3.203 1.662-4.8 2.396-1.613.74-3.387 1.396-5.04 2.156-1.04.477-2.083.96-3.12 1.437-1.043.478-2.083.95-3.12 1.437-.981.46-2.045.925-3.093 1.224-.831 8.199.473 16.437 3.093 24.168.858 2.534 1.628 5.164 3.12 7.426.161 1.159 2.37 4.166 3.12 5.27 1.274 1.874 2.551 3.706 4.073 5.395.268.298.797.946 1.209.95L12.577 99.17c-.18-1.928-1.277-4.515-1.759-6.509-.514-2.129-.805-4.31-1.361-6.426-.106-2.352-.615-4.711-.73-7.057-.126-2.548.127-5.132-.009-7.684l.062-.314c.211-.123.461-.16.677-.276 1.026-.55 2.086-1.152 3.12-1.676 1.645-.835 3.384-1.562 5.04-2.396 1.594-.803 3.204-1.595 4.8-2.395 1.531-.769 3.036-1.629 4.56-2.396 2.37-1.193 4.881-2.179 7.202-3.475.087-.35-.235-.39-.404-.555-1.562-1.525-4.88-3.456-6.798-4.833-1.493-1.071-3.075-2.05-4.56-3.114-1.613-1.154-3.183-2.43-4.8-3.593-1.673-1.203-3.378-2.374-5.04-3.593-.434-.318-2.537-1.647-2.654-1.843-.425-.71.043-1.626-.466-2.23v-6.467c.376-1.29.332-2.805.514-4.158.768-5.703 2.528-11.194 4.528-16.56-.123-.318-.494.28-.578.382-1.93 2.335-3.157 4.715-4.464 7.4m91.92 4.312c.192 2.987 1.033 5.972 1.197 8.985.146 2.677.008 5.398-.338 8.046-.075.273-.623.753-.86.934-1.03.793-2.48 1.581-3.6 2.396-1.286.936-2.552 1.95-3.84 2.874-1.197.86-2.434 1.8-3.6 2.635-1.456 1.045-3.07 2.047-4.56 3.114-2.203 1.579-4.55 3.039-6.693 4.697-.34.263-1.228.745-1.229 1.17 2.632 1.322 5.288 2.631 7.923 3.954 1.498.753 3.068 1.409 4.56 2.156 1.201.603 2.39 1.308 3.6 1.917 1.275.641 2.564 1.274 3.84 1.916 1.168.588 2.456 1.075 3.6 1.677.59.31 1.145.846 1.88.996l.057.312c-.031 3.526.067 7.038-.259 10.548-.32 3.464-1.444 7.094-1.678 10.421-1.232 3.734-2.186 7.585-3.6 11.259-1.048 2.72-2.436 5.349-3.603 8.022.467-.055 1.016-.727 1.326-1.072.785-.873 1.56-1.94 2.277-2.878.817-1.07 3.419-4.384 3.6-5.51 1.811-2.417 2.807-5.332 3.84-8.144 1.105-3.013 1.752-5.224 2.4-8.384 1.161-5.672 1.818-11.287 1.215-17.101-.07-.26-.918-.245-1.215-.386-.802-.38-1.576-.815-2.4-1.197-1.269-.589-2.58-1.096-3.84-1.677-1.198-.552-2.397-1.125-3.6-1.677-1.265-.58-2.612-1.116-3.84-1.677-1.184-.54-2.403-1.131-3.6-1.676-1.517-.691-2.962-1.626-4.56-2.156v-.48c1.62-.808 3.093-2.051 4.56-3.113 1.201-.871 2.398-1.765 3.6-2.635 1.294-.939 2.553-1.936 3.84-2.875 1.203-.878 2.4-1.751 3.6-2.635 1.237-.912 2.617-1.674 3.84-2.635.405-.318 1.51-.961 1.635-1.362.348-4.906.065-9.841-1.079-14.643-.12-.501-.174-1.107-.556-1.481-.24-2.788-2.441-6.872-3.84-9.342-.994-1.754-1.973-3.443-3.265-5.006-.084-.101-.455-.7-.578-.382zm-74.4 10.54c-1.208 3.601-2.879 9.029-2.415 12.83.105.861 1.671 1.687 2.415 2.26 1.49 1.151 3.065 2.218 4.56 3.354 1.675 1.275 3.368 2.553 5.04 3.833.537.411 2.883 2.066 2.882 2.513-1.015.39-1.931 1.074-2.882 1.56-1.643.836-3.386 1.56-5.04 2.395-1.535.774-3.04 1.604-4.56 2.395-1.586.824-2.973 1.482-4.56 2.395-.35.201-1.208.228-1.441.659-.165.918-.38 1.892-.476 2.818-.627 5.96.182 11.924 1.917 17.603 1.092 3.578 2.424 7.115 4.797 10.06-.545-1.944-1.05-3.939-1.368-5.938-1.31-8.234-.892-14.942 1.13-22.806 1.591-.64 3.06-1.584 4.56-2.396 1.693-.914 3.399-1.984 5.04-2.874 1.816-.984 3.7-1.876 5.52-2.875 1.578-.865 3.228-1.65 4.803-2.517.001-.516-4.087-3.395-4.802-3.95-1.8-1.397-3.761-2.712-5.52-4.072-1.646-1.272-3.456-2.573-5.04-3.833-.36-.287-2.12-1.764-2.222-1.975-.287-.586-.556-2.69-.628-3.446-.397-4.181.095-8.578.207-12.783l-1.074 2.158c-.371.843-.554 1.768-.843 2.632m53.52 13.414c-2.219 1.761-4.676 3.515-6.96 5.27-2.453 1.883-5.859 3.921-8.036 5.993-.182.174-.433.287-.367.592 2.762 1.534 5.628 2.922 8.403 4.434a949 949 0 0 1 6.96 3.832c1.61.895 3.208 1.844 4.888 2.61l.392.983c.193 3.147 1.042 6.288 1.197 9.465.294 6.025-.652 11.99-1.915 17.842l2.92-5.107c1.121-2.482 1.745-4.722 2.358-7.348 1.365-5.853 1.983-12.004.653-17.908-.184-.16-.457-.18-.653-.297-1.463-.87-3.05-1.61-4.56-2.395-1.741-.906-3.527-1.753-5.28-2.635-2.291-1.154-4.688-2.184-6.96-3.354-.295-.152-.608-.48-.963-.601-.006-.431.629-.794.963-1.076 2.078-1.752 4.74-3.581 6.96-5.27a340 340 0 0 0 5.28-4.072c.606-.48 1.56-.447 1.695-1.542.37-3.028-.706-7.556-1.695-10.435-.092-1.06-.396-1.78-.716-2.76l-1.922-4.425.492 8.015c-.486 2.085.105 6.66-1 8.366-.105.16-1.8 1.557-2.134 1.823m-31.92.958c-1.692.934-4.193 2.377-5.697 3.525-.13.099-.441-.014-.305.425.11.356 5.25 3.92 6.002 4.434.433.296.787.758 1.262 1.016l12.191.076 7.425-5.408c.077-.344-.033-.388-.248-.585-1.405-1.282-4.564-2.37-6.112-3.72l-.118 2.153h-13.92l-.003-2.155c-.035-.051-.373.182-.477.239M70.659 65.4l-8.773-4.547-12.097.122-8.414 4.425 6.432 22.68 8.122 8.677 8.35-8.623z" style="fill:#fff"/><path d="m61.886 60.854 8.773 4.547-6.38 22.734-8.35 8.623-8.122-8.677-6.432-22.68 8.414-4.425zm28.45 7.176c-1.462-.87-3.049-1.61-4.56-2.395-1.74-.906-3.526-1.753-5.28-2.635-2.29-1.154-4.687-2.184-6.96-3.354-.294-.152-.607-.48-.962-.601-.006-.431.629-.794.963-1.076 2.078-1.752 4.74-3.581 6.96-5.27a339 339 0 0 0 5.28-4.072c.606-.48 1.56-.447 1.695-1.542.37-3.028-.706-7.556-1.695-10.435-.092-1.06-.396-1.78-.716-2.76l-1.922-4.425.492 8.015c-.486 2.085.105 6.66-1.001 8.366-.104.16-1.798 1.557-2.133 1.823-2.219 1.761-4.676 3.515-6.96 5.27-2.453 1.883-5.859 3.921-8.036 5.993-.182.174-.433.287-.367.592 2.762 1.534 5.628 2.922 8.403 4.434a948 948 0 0 1 6.96 3.832c1.61.895 3.208 1.844 4.888 2.61l.392.983c.193 3.147 1.042 6.288 1.197 9.465.294 6.025-.652 11.99-1.915 17.842l2.92-5.107c1.121-2.482 1.745-4.722 2.358-7.348 1.365-5.853 1.983-12.004.653-17.908-.184-.16-.457-.18-.653-.297m18.496.625c-.069-.26-.918-.245-1.215-.386-.802-.38-1.576-.815-2.4-1.197-1.27-.589-2.58-1.096-3.84-1.677-1.198-.552-2.397-1.125-3.6-1.677-1.265-.58-2.612-1.116-3.84-1.677-1.184-.54-2.403-1.131-3.6-1.676-1.517-.691-2.962-1.626-4.56-2.156v-.48c1.62-.808 3.093-2.051 4.56-3.113 1.201-.871 2.398-1.765 3.6-2.635 1.294-.939 2.553-1.936 3.84-2.875 1.203-.878 2.4-1.751 3.6-2.635 1.237-.912 2.617-1.674 3.84-2.635.405-.318 1.51-.961 1.635-1.362.349-4.906.065-9.841-1.079-14.643-.12-.501-.174-1.107-.556-1.481-.24-2.788-2.441-6.872-3.84-9.342-.994-1.754-1.973-3.443-3.265-5.006-.084-.101-.455-.7-.578-.382l3.843 12.095c.191 2.987 1.033 5.972 1.197 8.985.146 2.677.008 5.398-.338 8.046-.075.273-.624.753-.86.934-1.03.793-2.48 1.581-3.6 2.396-1.286.936-2.552 1.95-3.84 2.874-1.197.86-2.434 1.8-3.6 2.635-1.456 1.045-3.07 2.047-4.56 3.114-2.203 1.579-4.55 3.039-6.693 4.697-.34.263-1.228.746-1.229 1.17 2.632 1.322 5.288 2.631 7.923 3.954 1.498.753 3.068 1.409 4.56 2.156 1.201.603 2.39 1.308 3.6 1.917 1.275.641 2.564 1.274 3.84 1.916 1.168.588 2.456 1.075 3.6 1.677.59.31 1.145.846 1.88.996l.057.312c-.031 3.526.067 7.038-.259 10.548-.32 3.464-1.444 7.094-1.678 10.421-1.232 3.734-2.186 7.585-3.6 11.259-1.048 2.72-2.436 5.349-3.603 8.022.467-.055 1.016-.727 1.326-1.072.785-.873 1.56-1.94 2.277-2.878.817-1.07 3.419-4.384 3.6-5.51 1.811-2.417 2.807-5.332 3.84-8.144 1.105-3.013 1.752-5.224 2.4-8.384 1.162-5.672 1.818-11.287 1.215-17.101M46.9 59.524c.001-.516-4.087-3.395-4.802-3.95-1.8-1.397-3.761-2.712-5.52-4.072-1.646-1.272-3.456-2.573-5.04-3.833-.36-.287-2.12-1.764-2.222-1.975-.287-.586-.556-2.69-.628-3.446-.397-4.181.095-8.578.207-12.783l-1.074 2.158c-.371.843-.554 1.768-.843 2.632-1.208 3.601-2.879 9.029-2.415 12.83.105.861 1.671 1.687 2.415 2.26 1.49 1.151 3.065 2.218 4.56 3.354 1.675 1.275 3.368 2.553 5.04 3.833.537.411 2.883 2.066 2.882 2.513-1.015.39-1.931 1.074-2.882 1.56-1.643.836-3.386 1.56-5.04 2.395-1.535.774-3.04 1.604-4.56 2.395-1.586.824-2.973 1.482-4.56 2.395-.35.201-1.208.228-1.441.659-.165.918-.38 1.892-.476 2.818-.627 5.96.182 11.924 1.917 17.603 1.092 3.578 2.424 7.115 4.797 10.06-.545-1.944-1.05-3.939-1.368-5.937-1.31-8.235-.892-14.943 1.13-22.807 1.591-.64 3.06-1.584 4.56-2.396 1.693-.914 3.399-1.984 5.04-2.874 1.816-.984 3.7-1.876 5.52-2.875 1.578-.865 3.228-1.65 4.803-2.517M10.82 92.66c-.515-2.129-.806-4.31-1.362-6.426-.106-2.352-.615-4.711-.73-7.057-.126-2.548.127-5.132-.009-7.684l.062-.314c.211-.123.461-.16.677-.276 1.026-.55 2.086-1.152 3.12-1.676 1.645-.835 3.384-1.562 5.04-2.396 1.594-.803 3.204-1.595 4.8-2.395 1.531-.769 3.036-1.629 4.56-2.396 2.37-1.193 4.881-2.179 7.202-3.475.087-.35-.235-.39-.404-.555-1.562-1.525-4.88-3.456-6.798-4.833-1.493-1.071-3.075-2.05-4.56-3.114-1.613-1.154-3.183-2.43-4.8-3.593-1.673-1.203-3.378-2.374-5.04-3.593-.434-.318-2.537-1.647-2.654-1.843-.425-.71.043-1.626-.466-2.23v-6.467c.376-1.29.332-2.805.514-4.158.768-5.703 2.528-11.194 4.528-16.56-.123-.319-.494.28-.578.382-1.93 2.335-3.157 4.715-4.464 7.4-1.34 2.752-2.866 5.718-3.12 8.864-.398.642-.53 1.599-.65 2.345-.528 3.26-.897 7.942-.564 11.203.144 1.411.46.926 1.214 1.543 1.017.835 2.065 1.61 3.12 2.395 1.006.75 2.111 1.417 3.12 2.156 1.665 1.221 3.378 2.381 5.04 3.594 1.604 1.17 3.194 2.411 4.8 3.593 1.266.932 2.484 1.956 3.842 2.757.067.346-.193.404-.418.54-.9.547-2.42 1.024-3.424 1.493-1.608.751-3.203 1.662-4.8 2.396-1.613.74-3.387 1.396-5.04 2.156-1.04.477-2.083.96-3.12 1.437-1.043.478-2.083.95-3.12 1.437-.981.46-2.045.925-3.093 1.224-.831 8.199.473 16.437 3.093 24.168.858 2.534 1.628 5.164 3.12 7.426.161 1.159 2.37 4.166 3.12 5.27 1.274 1.874 2.551 3.706 4.073 5.395.268.298.797.946 1.209.95L12.577 99.17c-.18-1.928-1.277-4.515-1.759-6.509m37.758-35.65c.433.296.787.758 1.262 1.016l12.191.076 7.425-5.408c.077-.344-.033-.388-.248-.585-1.405-1.282-4.564-2.37-6.112-3.72l-.118 2.153h-13.92l-.003-2.155c-.035-.051-.373.182-.477.239-1.692.934-4.193 2.377-5.697 3.525-.13.099-.441-.014-.305.425.11.356 5.25 3.92 6.002 4.434" style="fill:url(#a)"/></svg>