<svg xmlns="http://www.w3.org/2000/svg" width="599.999" height="252.98" viewBox="619.5 -276.009 599.999 252.98"><path d="M1219.499-242.86c0-18.291-14.858-33.149-33.14-33.149-18.254 0-33.104 14.858-33.104 33.147a32.97 32.97 0 0 0 3.72 15.247l-4.773-.223-13.221-5.125c-5.246-1.951-52.515-19.446-102.788-19.446-25.479 0-47.776 4.486-66.317 13.267l-5.921 2.822-4.126 1.979-.936 4.45-1.379 6.395c-.037.109-1.22 5.781-2.274 14.423-71.591-39.432-139.86-51.209-175.313-54.715-10.445-1.018-21.898-1.555-34.047-1.555-23.49 0-69.167 4.737-69.167 4.737 39.209 16.19 82.646 40.801 82.646 40.801-79.973 24.61-139.859 59.48-139.859 59.48s106.035-6.468 141.238-6.468c99.199 0 191.717 53.56 195.557 55.835 15.035 8.892 28.478 10.731 37.183 10.731 6.69 0 12.973-1.119 18.181-3.283 19.114-7.846 25.517-25.729 26.674-39.83 15.136 2.896 29.633 8.716 43.076 17.209l7.087 4.662-44.058 76.106 31.696 22.334 110.402-179.754-1.806-7.014c.547 0 1.082.037 1.63.037 18.281.003 33.139-14.892 33.139-33.1m-108.274 102.668s-3.33-10.409-10.195-25.156c0 0 19.05-21.029 45.574-34.759z"/><linearGradient id="a" x1="732.113" x2="1175.699" y1="-52.95" y2="-309.055" gradientTransform="translate(-.001)" gradientUnits="userSpaceOnUse"><stop offset=".15" style="stop-color:#536e78"/><stop offset=".35" style="stop-color:#d9eaf3"/><stop offset=".5" style="stop-color:#536e78"/><stop offset=".65" style="stop-color:#d9e9f2"/><stop offset=".85" style="stop-color:#536e78"/></linearGradient><path fill="url(#a)" d="M1186.359-266.72c-13.156 0-23.853 10.667-23.853 23.86 0 6.568 2.674 12.499 6.977 16.838l-4.7 7.984-14.497-.574c-6.754-2.609-14.6-5.682-14.6-5.682-3.941-1.518-97.469-37.071-161.834-6.467l-5.931 2.821-1.369 6.394c-.146.833-2.6 12.722-3.396 27.682-76.799-45.674-152.441-57.563-184.139-60.708-33.963-3.358-67.76-.074-67.76-.074 45.215 21.141 72.895 38.525 72.895 38.525s-41.447 5.671-120.561 44.491l74.338-3.47c110.735-9.326 218.538 53.485 223.091 56.159 18.363 10.88 36.684 11.204 47.092 6.864 25.404-10.445 20.778-41.957 20.778-41.957 16.912 1.703 36.972 7.125 57.537 20.169l14.488 9.428-44.232 76.401 16.699 11.785 103.217-168.056-1.988-7.836 4.735-8.058c2.239.685 4.553 1.192 7.015 1.192 13.191 0 23.851-10.705 23.851-23.851 0-13.193-10.66-23.86-23.853-23.86m-75.134 126.528s-3.33-10.409-10.195-25.156c0 0 19.05-21.029 45.574-34.759z" style="fill:url(#a)"/></svg>