<?xml version="1.0" encoding="UTF-8" standalone="no"?>
<svg
   version="1.1"
   width="538.52277"
   height="242.99065"
   id="svg1"
   xmlns="http://www.w3.org/2000/svg"
   xmlns:svg="http://www.w3.org/2000/svg">
  <defs
     id="defs1" />
  <path
     d="M 319.47675,165.93221 531.52587,89.74149 234.81218,0 37.43075,63.16612 Z m -19.11692,72.5815 c -2.0123,-6.95999 -3.49846,-15.0646 -3.52615,-23.87075 0,-10.44923 2.04924,-20.54768 6.19385,-30.13845 L 6.239997,76.40303 C 5.91729,76.97534 5.593844,77.63072 5.270767,78.3138 2.852307,83.39995 0,91.3661 0,100.44917 c 0.03692,8.58461 2.418461,16.58769 7.283073,24.37845 z m 26.36307,4.47693 c -3.13846,-6.6 -6.81231,-16.7723 -6.78462,-28.37537 0,-9.6 2.38154,-18.43384 7.25539,-26.93537 l 200.76912,-72.08304 c -0.83077,4.21846 -1.26462,8.51076 -1.26462,12.6923 0,8.11384 1.62462,15.43384 4.79077,21.81229 1.80923,3.64616 4.19077,6.96 7.03384,9.84923 z"
     id="path1" />
</svg>
