<svg xmlns="http://www.w3.org/2000/svg" xmlns:xlink="http://www.w3.org/1999/xlink" width="600" height="246.704"><radialGradient id="a" cx="0" cy="0" r="1" fx="0" fy="0" gradientTransform="matrix(22.96408 0 0 -22.96408 747.999 259.303)" gradientUnits="userSpaceOnUse" spreadMethod="pad"><stop offset="0" style="stop-color:#f6b91d"/><stop offset=".7" style="stop-color:#d3641c"/><stop offset="1" style="stop-color:#bf331c"/></radialGradient><radialGradient xlink:href="#a" id="b" cx="0" cy="0" r="1" fx="0" fy="0" gradientTransform="translate(299.992 123.335)scale(211.97626)" gradientUnits="userSpaceOnUse" spreadMethod="pad"/><path d="M299.354 0c-87.406.434-149.75 34.468-178.634 54.23-6.203-10.568-16.624-16.476-29.852-16.476-14.39 0-22.938 5.77-27.554 10.597-8.4 8.87-9.267 19.69-9.267 23.695 0 .499.036 1.219.036 1.219 0 .692.259 1.19.296 1.883H43.487l.36 14.704c.073 2.456.11 5.013.11 7.616 0 11.067-.582 22.643-1.625 30.72H0v72.184l16.006-1.366c.222-.037 5.336-.433 9.628 3.49 5.41 4.975 8.372 15.581 8.372 29.824v14.382h137.086l-.248-14.631c0-.397-.222-38.474 28.052-67.182 22.098-22.421 55.892-33.821 100.421-33.821h1.33c44.566 0 78.36 11.4 100.421 33.821 28.311 28.671 28.053 66.785 28.053 67.182l-.213 14.566 137.086.067v-14.382c0-14.243 2.963-24.85 8.336-29.825 4.329-3.922 9.443-3.525 9.664-3.488l15.573 1.329.433-15.61V128.19h-42.332c-1.08-8.077-1.625-19.652-1.625-30.757 0-2.603 0-5.123.074-7.578l.36-14.705H545.52c.066-.942.433-1.662.433-2.668v-.867c0-3.388-.794-14.354-9.268-23.262-4.615-4.828-13.163-10.597-27.554-10.597-13.227 0-23.686 5.908-29.889 16.477C450.322 34.47 387.904.325 300.322.003h-.969z" style="fill:#fff"/><path d="M459.14 141.886h-9.74s-4.615-8.944-18.46-19.726l.036-49.43c12.48 6.673 21.96 13.015 28.2 17.482zm-69.269-41.464c-10.818-4.182-22.283-7.939-36.775-10.671V44.64a293 293 0 0 1 36.775 10.135zm-74.64-15.185a352 352 0 0 0-18.858-.498c-6.342 0-12.942.175-18.822.461l.037-45.683c5.945-.434 12.111-.646 18.351-.683h.656c6.341.037 12.581.249 18.637.683zm-113.584 15.655.037-45.729A292 292 0 0 1 238.07 45l.101 45.175c-13.873 2.816-26.178 6.527-36.526 10.717m-40.024 23.539c-12 10.283-16.219 18.461-16.219 18.461h-11.76v-52.68c6.166-4.467 15.619-10.744 27.979-17.372zm380.954 18.101c-5.446-12.904-4.403-53.04-4.403-53.04h-19.034s8.834-4.07 8.834-17.012c0 0 1.006-20.381-22.468-20.381s-21.416 26.51-21.416 26.51-70.892-63.794-187.43-64.255h-.822c-116.363.572-187.145 64.255-187.145 64.255s2.059-26.51-21.378-26.51c-23.474 0-22.468 20.381-22.468 20.381 0 12.942 8.834 17.012 8.834 17.012H54.646s1.006 40.136-4.44 53.04H10.763v42.194s33.997-4.763 33.997 47.594h108.139s-2.705-115.606 142.827-115.634h1.33c145.569 0 142.827 115.634 142.827 115.634H548.06c0-52.357 33.96-47.594 33.96-47.594v-42.194Z" style="fill:#bf331c"/><path d="m115.385 82.034-8.51 7.643.83-11.4c0-.138.683-10.92-5.05-17.123-2.815-2.99-6.673-4.44-11.75-4.44-6.13 0-10.782 1.55-13.782 4.652-4.246 4.477-4.07 10.856-4.07 11.142 0 9.59 5.981 12.692 6.24 12.803l17.446 8.797H62.917c.111 11.464-.138 39.092-4.864 50.234l-1.191 2.806H18.97v32.926c10.061.794 32.344 7.172 33.923 47.63h99.092c.757-12.516 5.225-47.307 33.065-75.83 25.818-26.39 64.218-39.775 114.23-39.775h1.367c50.049 0 88.486 13.384 114.304 39.775 27.803 28.486 32.308 63.314 33.028 75.83h99.13c1.578-40.458 23.833-46.836 33.886-47.63v-32.926h-37.893l-1.19-2.806c-4.69-11.142-4.939-38.77-4.828-50.234H522.73l-19.44-.037 17.418-8.76c.259-.11 6.24-3.212 6.24-12.979 0-.11.176-6.489-4.107-10.966-3-3.101-7.616-4.652-13.708-4.652-5.15 0-8.972 1.45-11.75 4.44-5.807 6.203-5.124 17.021-5.124 17.123l.83 11.4-8.51-7.643c-.646-.619-71.068-62.603-185.123-63.065-113.077.573-183.388 62.446-184.07 63.065m161.14 3.166.038-45.683v-4.33l4.329-.322c6.018-.397 12.295-.61 19.292-.646 6.49.036 12.794.249 18.96.646l4.292.323V90.11l-4.864-.259a343 343 0 0 0-18.61-.498c-6.276 0-12.766.175-18.572.498l-4.864.259zm115.275 19.514c-12.545-4.874-23.687-8.077-35.982-10.422l-3.748-.72V39.01l5.511 1.126a299 299 0 0 1 37.394 10.237l3.138 1.08v55.708zm-191.179-3.822.037-45.692v-3.277l3.101-1.08a296 296 0 0 1 36.924-10.348l5.557-1.19.036 5.695.139 45.148.037 3.821-3.748.72c-12.941 2.631-24.95 6.166-35.732 10.459l-6.351 2.594zm249.628 45.573-1.292-2.446c-.037-.074-4.542-8.299-17.234-18.176l-1.81-1.412v-2.27l.037-49.432v-7.68l6.813 3.6c12.95 6.923 22.754 13.523 28.707 17.816l1.911 1.375v2.372l-.037 51.637v4.616H450.25m-317.631-3.573V87.84l1.91-1.375c5.918-4.256 15.656-10.819 28.487-17.705l6.812-3.674v61.477l-1.615 1.366c-11.04 9.453-15.074 17.022-15.111 17.096l-1.338 2.483h-19.145z" style="fill:url(#b)"/></svg>