<svg xmlns="http://www.w3.org/2000/svg" xmlns:xlink="http://www.w3.org/1999/xlink" width="600" height="246.704"><radialGradient id="a" cx="0" cy="0" r="1" fx="0" fy="0" gradientTransform="matrix(22.96455 0 0 -22.96455 665.499 259.303)" gradientUnits="userSpaceOnUse" spreadMethod="pad"><stop offset="0" style="stop-color:#d9eaf3"/><stop offset=".663" style="stop-color:#99aebc"/><stop offset="1" style="stop-color:#536e78"/></radialGradient><radialGradient xlink:href="#a" id="b" cx="0" cy="0" r="1" fx="0" fy="0" gradientTransform="translate(299.992 123.335)scale(211.98063)" gradientUnits="userSpaceOnUse" spreadMethod="pad"/><path d="M299.354 0c-87.406.434-149.75 34.468-178.634 54.23-6.203-10.568-16.624-16.476-29.852-16.476-14.39 0-22.938 5.77-27.554 10.597-8.4 8.87-9.267 19.69-9.267 23.695 0 .499.036 1.219.036 1.219 0 .692.259 1.19.296 1.883H43.487l.36 14.704c.073 2.456.11 5.013.11 7.616 0 11.067-.582 22.643-1.625 30.72H0v72.184l16.006-1.366c.222-.037 5.336-.433 9.628 3.49 5.41 4.975 8.372 15.581 8.372 29.824v14.382h137.086l-.248-14.631c0-.397-.222-38.474 28.052-67.182 22.098-22.421 55.892-33.821 100.421-33.821h1.33c44.566 0 78.36 11.4 100.421 33.821 28.311 28.671 28.053 66.785 28.053 67.182l-.213 14.566 137.086.067v-14.382c0-14.243 2.963-24.85 8.336-29.825 4.329-3.922 9.443-3.525 9.664-3.488l15.573 1.329.433-15.61V128.19h-42.332c-1.08-8.077-1.625-19.652-1.625-30.757 0-2.603 0-5.123.074-7.578l.36-14.705H545.52c.066-.942.433-1.662.433-2.668v-.867c0-3.388-.794-14.354-9.268-23.262-4.615-4.828-13.163-10.597-27.554-10.597-13.227 0-23.686 5.908-29.889 16.477C450.322 34.47 387.904.325 300.322.003h-.969z" style="fill:#fff"/><path d="M462.73 141.886h-9.739s-4.615-8.944-18.461-19.726l.037-49.43c12.48 6.673 21.96 13.015 28.2 17.482zm-69.268-41.464c-10.818-4.182-22.283-7.939-36.775-10.671V44.64a293 293 0 0 1 36.775 10.135zm-74.64-15.185a352 352 0 0 0-18.858-.498c-6.342 0-12.942.175-18.822.461l.037-45.683c5.945-.434 12.11-.646 18.35-.683h.657c6.341.037 12.581.249 18.636.683zm-113.585 15.655.037-45.729A292 292 0 0 1 241.662 45l.101 45.175c-13.874 2.816-26.178 6.527-36.526 10.717m-40.025 23.539c-12 10.283-16.218 18.461-16.218 18.461h-11.76v-52.68c6.166-4.467 15.618-10.744 27.978-17.372zm380.954 18.101c-5.446-12.904-4.403-53.04-4.403-53.04H522.73s8.833-4.07 8.833-17.012c0 0 1.007-20.381-22.467-20.381s-21.416 26.51-21.416 26.51-70.892-63.794-187.43-64.255h-.822c-116.363.572-187.145 64.255-187.145 64.255s2.059-26.51-21.378-26.51c-23.474 0-22.468 20.381-22.468 20.381 0 12.942 8.834 17.012 8.834 17.012H58.237s1.006 40.136-4.44 53.04H14.354v42.194s33.997-4.763 33.997 47.594h108.138s-2.704-115.606 142.828-115.634h1.33c145.569 0 142.827 115.634 142.827 115.634H551.65c0-52.357 33.96-47.594 33.96-47.594v-42.194Z" style="fill:#536e78"/><path d="m115.385 82.034-8.51 7.643.793-11.4c.037-.138.72-10.957-5.05-17.123-2.74-2.99-6.6-4.44-11.713-4.44-6.166 0-10.782 1.55-13.782 4.652-4.246 4.44-4.07 10.856-4.07 11.142 0 9.59 5.981 12.692 6.24 12.84l17.418 8.76H62.917c.111 11.464-.175 39.092-4.864 50.234l-1.191 2.843H18.97v32.889c10.089.83 32.372 7.172 33.923 47.668h99.129c.72-12.554 5.188-47.382 33.028-75.868 25.781-26.39 64.255-39.775 114.267-39.775h1.33c50.049 0 88.486 13.384 114.267 39.775 27.84 28.523 32.345 63.314 33.065 75.868h99.13c1.55-40.496 23.833-46.837 33.886-47.668v-32.89h-37.893l-1.19-2.842c-4.69-11.142-4.939-38.77-4.828-50.234H522.73l-19.403-.037 17.344-8.723c.259-.148 6.314-3.25 6.314-13.053 0-.073.139-6.452-4.107-10.929-3.037-3.101-7.616-4.652-13.782-4.652-5.114 0-8.972 1.45-11.75 4.44-5.77 6.166-5.087 16.985-5.05 17.123l.757 11.4-8.474-7.643c-.683-.619-71.03-62.566-185.123-63.065-113.105.536-183.388 62.446-184.07 63.065m161.178 3.203v-50.05l4.292-.285a318 318 0 0 1 19.33-.683c6.451.036 12.756.286 18.922.683l4.33.286v54.959l-4.865-.295a343 343 0 0 0-18.61-.498c-6.276 0-12.766.175-18.572.498l-4.827.259zM391.8 104.714c-8.474-3.286-20.225-7.468-35.982-10.422l-3.748-.72V39.01l5.511 1.089c12.656 2.63 25.246 6.055 37.394 10.31l3.102 1.043v55.708zm-191.142-3.822V51.923l3.065-1.08a290 290 0 0 1 36.96-10.348l5.557-1.153V45l.175 45.148v3.784l-3.674.794c-13.09 2.631-25.135 6.166-35.732 10.422l-6.351 2.594zm249.59 45.573-1.291-2.446c-.037-.074-4.542-8.299-17.234-18.213l-1.773-1.412V65.012l6.776 3.637a254 254 0 0 1 28.744 17.816l1.911 1.403v2.344l-.074 51.637v4.616H450.25m-317.63-3.573V87.868l1.91-1.403c5.955-4.293 15.684-10.819 28.487-17.705l6.812-3.6v61.403l-1.578 1.403c-11.077 9.416-15.111 16.985-15.148 17.059l-1.338 2.483h-19.145z" style="fill:url(#b)"/></svg>