<svg xmlns="http://www.w3.org/2000/svg" width="571.256" height="217.966"><path d="M448.375 127.532h-9.738s-4.616-8.944-18.462-19.726l.037-49.43c12.48 6.673 21.96 13.015 28.2 17.483zm-69.267-41.464c-10.819-4.182-22.284-7.939-36.776-10.671v-45.11a293 293 0 0 1 36.776 10.135zm-74.64-15.185a352 352 0 0 0-18.859-.498c-6.341 0-12.942.175-18.822.461l.037-45.683c5.945-.434 12.111-.646 18.351-.683h.656c6.341.037 12.581.249 18.637.683zM190.883 86.54l.037-45.73a292 292 0 0 1 36.387-10.163l.102 45.176c-13.873 2.815-26.178 6.526-36.526 10.717m-40.024 23.538c-12 10.283-16.219 18.462-16.219 18.462h-11.76v-52.68c6.166-4.468 15.619-10.745 27.979-17.373zm380.954 18.102c-5.447-12.905-4.403-53.04-4.403-53.04h-19.034s8.834-4.071 8.834-17.013c0 0 1.006-20.381-22.468-20.381s-21.416 26.51-21.416 26.51S402.434.462 285.896 0h-.822C168.711.572 97.929 64.255 97.929 64.255s2.059-26.51-21.378-26.51c-23.474 0-22.468 20.381-22.468 20.381 0 12.942 8.834 17.013 8.834 17.013H43.883s1.006 40.135-4.44 53.04H0v42.193s33.997-4.763 33.997 47.594h108.138s-2.704-115.606 142.828-115.634h1.33c145.569 0 142.827 115.634 142.827 115.634h108.176c0-52.357 33.96-47.594 33.96-47.594V128.18z"/></svg>