<svg xmlns="http://www.w3.org/2000/svg" width="600" height="431.492"><radialGradient id="a" cx="0" cy="0" r="1" fx="0" fy="0" gradientTransform="translate(299.978 215.765)scale(228.10573)" gradientUnits="userSpaceOnUse" spreadMethod="pad"><stop offset="0" style="stop-color:#f6b91d"/><stop offset=".7" style="stop-color:#d3641c"/><stop offset="1" style="stop-color:#bf331c"/></radialGradient><path d="M246.468 305.119h-44.713v-98.218c21.704 47.658 32.362 71.131 44.713 98.218M373.931 126.33c-9.946 22.125-14.164 31.478-26.213 58.198-12.6-26.634-16.936-35.9-27.519-58.198zM0 0v126.417h52.717v178.626c-12.772.044-52.717.119-52.717.119v126.33h578.76V303.986H455.04a804073 804073 0 0 0 82.847-177.57H600V0z"/><path d="m348.31 249.5 67.756-150.386h-138.8ZM182.63 99.2h-8.09v233.146h114.183Zm229.65 232.003h139.264v73.073H27.216v-71.93l52.718-.172V99.2H27.216V27.228h545.568V99.2h-52.21z" style="fill:#bf331c"/><path d="M33.667 33.711v58.996h52.761v245.917l-6.451.044-46.31.118v59.04H545.05v-60.13H402.118l4.304-9.233L514.716 96.46l1.769-3.754h49.805V33.71zm308.786 218.615-71.002-150.429-4.38-9.233h158.984l-4.088 9.147-67.755 150.386-5.772 12.815zm-174.365 80.02V92.707h18.705l1.726 3.83L294.623 329.65l4.174 9.136H168.088z" style="fill:url(#a)"/></svg>