<?xml version="1.0" encoding="UTF-8"?>
<svg id="Layer_2" data-name="Layer 2" xmlns="http://www.w3.org/2000/svg" xmlns:xlink="http://www.w3.org/1999/xlink" viewBox="0 0 929.62 391.48">
  <defs>
    <style>
      .cls-1 {
        fill: url(#linear-gradient);
      }

      .cls-1, .cls-2 {
        stroke-width: 0px;
      }
    </style>
    <linearGradient id="linear-gradient" x1="-8.95" y1="73.75" x2="915.93" y2="321.57" gradientUnits="userSpaceOnUse">
      <stop offset="0" stop-color="#bb2c26"/>
      <stop offset=".5" stop-color="#f7981d"/>
      <stop offset="1" stop-color="#bb2c26"/>
    </linearGradient>
  </defs>
  <g id="Layer_1-2" data-name="Layer 1">
    <g>
      <path class="cls-1" d="m787,384.98c-26.01,0-48.75-4.87-72.83-10.02-6.28-1.35-12.78-2.74-19.47-4.07l-5.23-1.04v-5.33c0-21.13-.14-66.58-.22-69.47l-.18-6.88,6.88.21c1.73.05,11.75.18,19.31.18,4.5,0,6.41-.05,7.2-.08l6.85-2.46,1.02,8.03c.21,1.64.41,3.28.6,4.92,3.36,28.02,6.01,50.15,67.28,51.44h.33c6.92,0,21.12-3.93,31.84-14.77,8.91-9,13.35-20.69,13.21-34.76v-.14c.39-34.24-24.59-48.76-56.21-67.15-27.93-16.24-59.23-34.45-81.22-70.17-7.69,15.07-20.68,32.08-42.53,44.04-27.31,14.94-55.43,20.14-113.62,20.64-.02,20.81-.08,85.21-.05,93.86.06,17.44,5.69,19.07,34.39,19.67l6.37.13-.02,32.68-308.85.04v-32.85h8.87c9.18,0,15.4-.21,18.07-2.98,2.27-2.36,3.28-7.73,2.98-15.98-.73-20.08-.14-146.83.19-207.17l-91.14,208.65-42.01-.02L94.11,117.04v206.44c.22,7.17,2.02,14.73,13.44,16.68.65.1,7.45,1,11.57,1.54l5.65.74v32.03l-118,.48-.23-32.67,5.87-.61c5.96-.62,16.18-2.29,19.21-3.9,6.65-3.55,10.02-8.32,10.02-14.18-.04-37.26-.03-195.63-.01-239.84.01-15.3-.69-25.57-4.19-29.5-3.11-3.49-10.7-4.32-24.54-4.7l-6.35-.17.15-34.08h145.59l76.93,195.39L316.35,15.28l4.25.03c1.65.01,166.51,1.2,268.39,1.2,9.85,0,19.12-.01,27.63-.03h.48c10.64,0,31.38,1.23,50.77,9.5,16.1,6.87,28.03,17,35.6,30.22,6.48-8.93,15.09-18.72,27.06-27.31,20.67-14.84,46.32-22.37,76.24-22.38h.54c51.85,0,60.58,3.79,89.52,16.33l6.63,2.87.17,71.08h-36.33l-.95-5.36c-7.05-39.7-17.25-49.4-52.02-49.4-1.84,0-3.8.03-5.81.09-10.73.34-19.28,4.15-25.4,11.35-10.19,11.97-11.95,30.71-10.19,44.25,1.37,10.55,7.85,26.14,30.96,40.5,7.55,4.7,15.29,9.25,22.76,13.66,24.24,14.26,47.13,27.73,64.88,46.36,20.15,21.15,30.46,46.35,31.51,77.03,2.06,63.71-41.96,103.5-120.78,109.17-5.07.37-10.21.55-15.27.55ZM431.02,52.35c-18.73,0-27.08,2.29-27.08,15.85.18,85.38.12,254.2.12,255.89,0,7.3,3.21,14.77,27.06,14.77,27.28,0,27.42-10.33,27.42-13.82-.51-31.04-.28-134.08-.12-202.28.05-24.03.1-43.86.1-54.96s-7.19-15.46-27.49-15.46Zm119.02,139.44c23.61-.32,42-2.61,54.52-11.08,14.67-9.92,21.51-28.84,21.51-59.54,0-62.86-28.56-69.9-76.03-70.39v141Z"/>
      <path class="cls-2" d="m807.31,13c52.1,0,59.19,3.79,89.66,16.98l.14,60.3h-24.37c-7.33-41.29-19.14-54.76-58.42-54.76-1.94,0-3.94.03-6.01.1-36.57,1.15-45.15,37.34-41.83,62.93,1.67,12.88,9.66,30.07,33.98,45.19,54.94,34.22,113.53,56.9,116.09,131.74,2.04,62.82-43.31,97.32-114.75,102.47-5.08.37-10,.54-14.81.54-31.97,0-58.66-7.51-91.03-13.97,0-21.05-.14-66.66-.22-69.64,1.86.06,11.93.18,19.5.18,4.59,0,8.26-.05,8.64-.18,3.84,30.11,3.46,60.55,74.19,62.04.15,0,.31,0,.47,0,14.78,0,51.98-13.96,51.55-56.09.82-72.93-100.49-64.48-144.64-151.99-6.71,18.22-19.89,39.21-44.94,52.93-27.66,15.13-56.13,19.71-116.99,19.88,0,0-.09,89.92-.05,100.35.08,24.33,13.14,25.57,40.75,26.15v19.81s-295.87.04-295.87.04v-19.85c.8,0,1.59,0,2.37,0,18.12,0,28.45-.51,27.55-25.69-.95-26.12.38-238.48.38-238.48l-102.07,233.69h-33.39S87.62,83.98,87.62,83.98v239.6c.14,5.26.94,19.93,18.85,22.99,1.08.17,11.81,1.58,11.81,1.58v19.85l-105.05.43-.14-20.28s16.03-1.66,21.6-4.63c7.64-4.07,13.46-10.57,13.46-19.92-.04-37.41-.03-197.33-.01-239.83.03-36.78-3.9-39.85-35.05-40.7l.09-21.25h134.69l80.98,205.69L320.56,21.81s165.39,1.2,268.47,1.2c9.84,0,19.11-.01,27.62-.03.15,0,.31,0,.46,0,28.36,0,71.78,8.48,85.3,46.43,11.89-18.8,38.44-56.38,104.37-56.4.18,0,.36,0,.54,0m-263.77,185.34c53.73,0,89.03-6.9,89.03-77.16s-35.95-76.92-89.03-76.92v154.08m-112.42,147.03c13.5,0,33.92-2.36,33.92-20.38-.69-41.76-.03-214.43-.03-257.18,0-20.15-18.59-21.96-33.99-21.96s-33.59.8-33.59,22.35c.18,86.37.12,255.89.12,255.89,0,18.52,18.35,21.28,33.56,21.28M807.31,0h-.55c-31.3.01-58.22,7.95-80.02,23.6-9.47,6.8-16.92,14.27-22.92,21.52-8.2-10.66-19.48-19.19-33.4-25.13-19.43-8.29-39.72-10.03-53.32-10.03h-.49c-8.24.02-17.52.04-27.58.04-101.86,0-266.72-1.18-268.38-1.2l-8.5-.06-3.46,7.77-79.09,177.39L159.96,17.05l-3.24-8.24H.23l-.06,12.94-.09,21.25-.05,12.71,12.7.35c11.98.33,18.66,1.18,19.86,2.52.1.11.95,1.17,1.61,5.42.66,4.24.94,10.15.93,19.75-.01,42.43-.03,202.23.01,239.86,0,1.33,0,4.91-6.53,8.41-2.12.98-10.13,2.5-16.87,3.2l-11.75,1.21.08,11.81.14,20.28.09,12.96,12.96-.05,105.05-.43,12.95-.05v-44.2l-11.31-1.49c-4.92-.65-10.42-1.38-11.43-1.52-5.82-1.02-7.7-3.47-7.94-10.36v-173.28s70.55,172.48,70.55,172.48l3.3,8.08h8.72s33.39.02,33.39.02h8.51s3.41-7.8,3.41-7.8l76.81-175.86c-.32,64.95-.65,158.79-.02,175.92.29,8.07-.88,10.69-1.15,11.18-1.95,1.03-9.66,1.03-13.4,1.03h-1.15s-1.21,0-1.21,0h-13v45.86h13s295.86-.04,295.86-.04h12.99s0-12.99,0-12.99v-19.81s.02-12.74.02-12.74l-12.74-.26c-9.13-.19-20.5-.43-25.07-2.75-.87-.44-2.92-1.49-2.95-10.44-.03-7.89.02-62.16.04-87.42,55.11-.85,82.91-6.41,110.24-21.36,18.77-10.28,31.39-24.05,39.85-37.4,22.55,31.48,52.57,48.93,77.52,63.44,34.05,19.81,53.3,32.42,52.98,61.46v.14s0,.14,0,.14c.12,12.27-3.69,22.4-11.33,30.12-9.61,9.7-22.49,12.84-27.23,12.84h-.2c-26.31-.56-43.08-5.2-51.27-14.2-6.81-7.49-8.15-18.62-9.69-31.52-.2-1.65-.4-3.31-.61-4.97l-2.05-16.06-13.5,4.85c-1.02.02-2.84.05-5.99.05-7.52,0-17.41-.13-19.1-.18l-13.76-.42.36,13.76c.07,2.59.22,47.23.22,69.3v10.66l10.46,2.09c6.64,1.33,13.12,2.71,19.38,4.05,24.42,5.23,47.49,10.17,74.19,10.17,5.21,0,10.51-.19,15.75-.57,39.29-2.83,70.39-13.83,92.44-32.69,23.59-20.18,35.47-48.94,34.36-83.16-2.45-71.63-51.83-100.69-99.59-128.79-7.44-4.38-15.14-8.91-22.62-13.57-20.96-13.03-26.77-26.67-27.96-35.83-1.5-11.61-.13-28.84,8.69-39.2,4.95-5.82,11.71-8.78,20.66-9.06,1.94-.06,3.83-.09,5.6-.09,31.44,0,39.12,7.41,45.62,44.03l1.9,10.73h48.3l-.03-13.03-.14-60.3-.02-8.52-7.81-3.38-2.73-1.18c-30.83-13.37-41.01-16.87-92.1-16.87h0Zm-250.77,185.17V57.43c19.66.58,34.24,2.82,44.25,9.45,8.06,5.33,18.78,16.77,18.78,54.3,0,53.08-19.35,62.72-63.03,63.99h0Zm-125.42,147.19c-7.73,0-13.45-.84-17.02-2.49-2.5-1.15-3.54-2.21-3.54-5.79,0-1.69.06-170.52-.12-255.92,0-6.2,0-9.32,20.59-9.32,5.77,0,12.97.26,17.42,2.27,1.76.79,3.57,1.61,3.57,6.69,0,11.08-.05,31.41-.1,54.95-.15,68.18-.39,171.17.13,202.34,0,1.73-.08,3.23-3.92,4.84-2.65,1.11-7.74,2.43-17.01,2.43h0Z"/>
    </g>
  </g>
</svg>