<?xml version="1.0" encoding="UTF-8" standalone="no"?>
<svg
   id="Layer_2"
   data-name="Layer 2"
   viewBox="0 0 929.59125 391.51998"
   version="1.1"
   width="929.59125"
   height="391.51999"
   xmlns="http://www.w3.org/2000/svg"
   xmlns:svg="http://www.w3.org/2000/svg">
  <defs
     id="defs3">
    <style
       id="style1">
      .cls-1 {
        fill: url(#linear-gradient);
      }

      .cls-1, .cls-2 {
        stroke-width: 0px;
      }
    </style>
    <linearGradient
       id="linear-gradient"
       x1="-8.9499998"
       y1="73.75"
       x2="915.92999"
       y2="321.57001"
       gradientUnits="userSpaceOnUse">
      <stop
         offset="0"
         stop-color="#8d742f"
         id="stop1" />
      <stop
         offset=".5"
         stop-color="#d7bd74"
         id="stop2" />
      <stop
         offset="1"
         stop-color="#8d742f"
         id="stop3" />
    </linearGradient>
  </defs>
  <g
     id="Layer_1-2"
     data-name="Layer 1"
     transform="translate(0.01)">
    <g
       id="g4">
      <path
         class="cls-1"
         d="m 787,384.98 c -26.01,0 -48.75,-4.87 -72.83,-10.02 -6.28,-1.35 -12.78,-2.74 -19.47,-4.07 l -5.23,-1.04 v -5.33 c 0,-21.13 -0.14,-66.58 -0.22,-69.47 l -0.18,-6.88 6.88,0.21 c 1.73,0.05 11.75,0.18 19.31,0.18 4.5,0 6.41,-0.05 7.2,-0.08 l 6.85,-2.46 1.02,8.03 c 0.21,1.64 0.41,3.28 0.6,4.92 3.36,28.02 6.01,50.15 67.28,51.44 h 0.33 c 6.92,0 21.12,-3.93 31.84,-14.77 8.91,-9 13.35,-20.69 13.21,-34.76 v -0.14 c 0.39,-34.24 -24.59,-48.76 -56.21,-67.15 -27.93,-16.24 -59.23,-34.45 -81.22,-70.17 -7.69,15.07 -20.68,32.08 -42.53,44.04 -27.31,14.94 -55.43,20.14 -113.62,20.64 -0.02,20.81 -0.08,85.21 -0.05,93.86 0.06,17.44 5.69,19.07 34.39,19.67 l 6.37,0.13 -0.02,32.68 -308.85,0.04 v -32.85 h 8.87 c 9.18,0 15.4,-0.21 18.07,-2.98 2.27,-2.36 3.28,-7.73 2.98,-15.98 -0.73,-20.08 -0.14,-146.83 0.19,-207.17 l -91.14,208.65 -42.01,-0.02 -84.7,-207.09 v 206.44 c 0.22,7.17 2.02,14.73 13.44,16.68 0.65,0.1 7.45,1 11.57,1.54 l 5.65,0.74 v 32.03 l -118,0.48 -0.23,-32.67 5.87,-0.61 c 5.96,-0.62 16.18,-2.29 19.21,-3.9 6.65,-3.55 10.02,-8.32 10.02,-14.19 C 41.6,286.33 41.61,127.96 41.63,83.74 41.64,68.44 40.94,58.17 37.44,54.24 34.33,50.75 26.74,49.92 12.9,49.54 L 6.55,49.37 6.7,15.3 h 145.59 l 76.93,195.39 87.13,-195.41 4.25,0.03 c 1.65,0.01 166.51,1.2 268.39,1.2 9.85,0 19.12,-0.01 27.63,-0.03 h 0.48 c 10.64,0 31.38,1.23 50.77,9.5 16.1,6.87 28.03,17 35.6,30.22 6.48,-8.93 15.09,-18.72 27.06,-27.31 C 751.2,14.05 776.85,6.52 806.77,6.51 h 0.55 c 51.84,0 60.57,3.79 89.5,16.33 l 6.64,2.87 0.17,71.08 H 867.3 l -0.95,-5.36 c -7.05,-39.7 -17.25,-49.4 -52.02,-49.4 -1.84,0 -3.8,0.03 -5.81,0.09 -10.73,0.34 -19.28,4.15 -25.4,11.35 -10.19,11.97 -11.95,30.71 -10.19,44.25 1.37,10.55 7.85,26.14 30.96,40.5 7.55,4.7 15.29,9.25 22.76,13.66 24.24,14.26 47.13,27.73 64.88,46.36 20.15,21.15 30.46,46.35 31.51,77.03 2.06,63.71 -41.96,103.5 -120.78,109.17 -5.07,0.37 -10.21,0.55 -15.27,0.55 z M 431.02,52.35 c -18.73,0 -27.08,2.29 -27.08,15.85 0.18,85.38 0.12,254.2 0.12,255.89 0,7.3 3.21,14.77 27.06,14.77 27.28,0 27.42,-10.33 27.42,-13.82 -0.51,-31.04 -0.28,-134.08 -0.12,-202.28 0.05,-24.03 0.1,-43.86 0.1,-54.96 0,-11.1 -7.19,-15.46 -27.49,-15.46 z m 119.02,139.44 c 23.61,-0.32 42,-2.61 54.52,-11.08 14.67,-9.92 21.51,-28.84 21.51,-59.54 0,-62.86 -28.56,-69.9 -76.03,-70.39 v 141 z"
         id="path3"
         style="fill:url(#linear-gradient)" />
      <path
         class="cls-2"
         d="m 807.31,13 c 52.1,0 59.19,3.79 89.66,16.98 l 0.14,60.3 H 872.74 C 865.41,48.99 853.6,35.52 814.32,35.52 c -1.94,0 -3.94,0.03 -6.01,0.1 -36.57,1.15 -45.15,37.34 -41.83,62.93 1.67,12.88 9.66,30.07 33.98,45.19 54.94,34.22 113.53,56.9 116.09,131.74 2.04,62.82 -43.31,97.32 -114.75,102.47 -5.08,0.37 -10,0.54 -14.81,0.54 -31.97,0 -58.66,-7.51 -91.03,-13.97 0,-21.05 -0.14,-66.66 -0.22,-69.64 1.86,0.06 11.93,0.18 19.5,0.18 4.59,0 8.26,-0.05 8.64,-0.18 3.84,30.11 3.46,60.55 74.19,62.04 0.15,0 0.31,0 0.47,0 14.78,0 51.98,-13.96 51.55,-56.09 0.82,-72.93 -100.49,-64.48 -144.64,-151.99 -6.71,18.22 -19.89,39.21 -44.94,52.93 -27.66,15.13 -56.13,19.71 -116.99,19.88 0,0 -0.09,89.92 -0.05,100.35 0.08,24.33 13.14,25.57 40.75,26.15 v 19.81 c 0,0 -295.87,0.04 -295.87,0.04 v -19.85 c 0.8,0 1.59,0 2.37,0 18.12,0 28.45,-0.51 27.55,-25.69 -0.95,-26.12 0.38,-238.48 0.38,-238.48 L 216.58,317.67 h -33.39 c 0,0 -95.57,-233.69 -95.57,-233.69 v 239.6 c 0.14,5.26 0.94,19.93 18.85,22.99 1.08,0.17 11.81,1.58 11.81,1.58 V 368 l -105.05,0.43 -0.14,-20.28 c 0,0 16.03,-1.66 21.6,-4.63 7.64,-4.07 13.46,-10.57 13.46,-19.92 C 48.11,286.19 48.12,126.27 48.14,83.77 48.17,46.99 44.24,43.92 13.09,43.07 l 0.09,-21.25 h 134.69 l 80.98,205.69 91.71,-205.7 c 0,0 165.39,1.2 268.47,1.2 9.84,0 19.11,-0.01 27.62,-0.03 0.15,0 0.31,0 0.46,0 28.36,0 71.78,8.48 85.3,46.43 11.89,-18.8 38.44,-56.38 104.37,-56.4 0.18,0 0.36,0 0.54,0 M 543.55,198.35 c 53.73,0 89.03,-6.9 89.03,-77.16 0,-70.26 -35.95,-76.92 -89.03,-76.92 V 198.35 M 431.13,345.38 c 13.5,0 33.92,-2.36 33.92,-20.38 -0.69,-41.76 -0.03,-214.43 -0.03,-257.18 0,-20.15 -18.59,-21.96 -33.99,-21.96 -15.4,0 -33.59,0.8 -33.59,22.35 0.18,86.37 0.12,255.89 0.12,255.89 0,18.52 18.35,21.28 33.56,21.28 M 807.31,0 h -0.55 c -31.3,0.01 -58.22,7.95 -80.02,23.6 -9.47,6.8 -16.92,14.27 -22.92,21.52 C 695.62,34.46 684.34,25.93 670.42,19.99 650.99,11.7 630.7,9.96 617.1,9.96 h -0.49 C 608.37,9.98 599.09,10 589.03,10 487.17,10 322.31,8.82 320.65,8.8 l -8.5,-0.06 -3.46,7.77 L 229.6,193.9 159.96,17.05 156.72,8.81 H 0.23 L 0.17,21.75 0.08,43 0.03,55.71 l 12.7,0.35 c 11.98,0.33 18.66,1.18 19.86,2.52 0.1,0.11 0.95,1.17 1.61,5.42 0.66,4.24 0.94,10.15 0.93,19.75 -0.01,42.56 -0.03,202.53 0.01,239.86 0,1.33 0,4.91 -6.53,8.41 -2.12,0.98 -10.13,2.5 -16.87,3.2 l -11.75,1.21 0.08,11.81 0.14,20.28 0.09,12.96 12.96,-0.05 105.05,-0.43 12.95,-0.05 v -44.2 l -11.31,-1.49 c -4.92,-0.65 -10.43,-1.38 -11.44,-1.52 -5.82,-1.02 -7.7,-3.47 -7.93,-10.36 V 150.1 c 0,0 70.55,172.48 70.55,172.48 l 3.3,8.08 h 8.72 c 0,0 33.39,0.02 33.39,0.02 h 8.51 c 0,0 3.41,-7.8 3.41,-7.8 l 76.81,-175.86 c -0.32,64.95 -0.65,158.79 -0.02,175.92 0.29,8.07 -0.88,10.69 -1.15,11.18 -1.95,1.03 -9.66,1.03 -13.4,1.03 h -1.15 c 0,0 -1.21,0 -1.21,0 h -13 v 45.86 h 13 c 0,0 295.86,-0.04 295.86,-0.04 h 12.99 c 0,0 0,-12.99 0,-12.99 v -19.81 c 0,0 0.02,-12.74 0.02,-12.74 l -12.74,-0.26 c -9.13,-0.19 -20.5,-0.43 -25.07,-2.75 -0.87,-0.44 -2.92,-1.49 -2.95,-10.44 -0.03,-7.89 0.02,-62.16 0.04,-87.42 55.11,-0.85 82.91,-6.41 110.24,-21.36 18.77,-10.28 31.39,-24.05 39.85,-37.4 22.55,31.48 52.57,48.93 77.52,63.44 34.05,19.81 53.3,32.42 52.98,61.46 v 0.14 c 0,0 0,0.14 0,0.14 0.12,12.27 -3.69,22.4 -11.33,30.12 -9.61,9.7 -22.49,12.84 -27.23,12.84 h -0.2 c -26.31,-0.56 -43.08,-5.2 -51.27,-14.2 -6.81,-7.49 -8.15,-18.62 -9.69,-31.52 -0.2,-1.65 -0.4,-3.31 -0.61,-4.97 l -2.05,-16.06 -13.5,4.85 c -1.02,0.02 -2.84,0.05 -5.99,0.05 -7.52,0 -17.41,-0.13 -19.1,-0.18 l -13.76,-0.42 0.36,13.76 c 0.07,2.59 0.22,47.23 0.22,69.3 v 10.66 l 10.46,2.09 c 6.64,1.33 13.12,2.71 19.38,4.05 24.42,5.23 47.49,10.17 74.19,10.17 5.22,0 10.51,-0.19 15.75,-0.57 39.29,-2.83 70.39,-13.83 92.44,-32.69 23.59,-20.18 35.47,-48.94 34.36,-83.16 -2.45,-71.63 -51.83,-100.69 -99.59,-128.79 -7.44,-4.38 -15.14,-8.91 -22.62,-13.57 -20.96,-13.03 -26.77,-26.67 -27.96,-35.83 -1.5,-11.61 -0.13,-28.84 8.69,-39.2 4.95,-5.82 11.71,-8.78 20.66,-9.06 1.94,-0.06 3.83,-0.09 5.6,-0.09 31.44,0 39.12,7.41 45.62,44.03 l 1.9,10.73 h 48.3 l -0.03,-13.03 -0.14,-60.3 -0.02,-8.52 -7.81,-3.38 -2.73,-1.18 C 868.55,3.54 858.37,0.04 807.28,0.04 v 0 z M 556.54,185.17 V 57.43 c 19.66,0.58 34.24,2.82 44.25,9.45 8.06,5.33 18.78,16.77 18.78,54.3 0,53.08 -19.35,62.72 -63.03,63.99 z M 431.12,332.36 c -7.73,0 -13.45,-0.84 -17.02,-2.49 -2.5,-1.15 -3.54,-2.21 -3.54,-5.79 0,-1.69 0.06,-170.52 -0.12,-255.92 0,-6.2 0,-9.32 20.59,-9.32 5.77,0 12.97,0.26 17.42,2.27 1.76,0.79 3.57,1.61 3.57,6.69 0,11.08 -0.05,31.41 -0.1,54.95 -0.15,68.18 -0.39,171.17 0.13,202.34 0,1.73 -0.08,3.23 -3.92,4.84 -2.65,1.11 -7.74,2.43 -17.01,2.43 z"
         id="path4" />
    </g>
  </g>
</svg>
