<?xml version="1.0" encoding="UTF-8" standalone="no"?>
<svg
   id="Layer_2"
   data-name="Layer 2"
   viewBox="0 0 903.53609 365.47847"
   version="1.1"
   width="903.53607"
   height="365.47849"
   xmlns="http://www.w3.org/2000/svg"
   xmlns:svg="http://www.w3.org/2000/svg">
  <defs
     id="defs1">
    <style
       id="style1">
      .cls-1 {
        stroke-width: 0px;
      }
    </style>
  </defs>
  <g
     id="Layer_1-2"
     data-name="Layer 1"
     transform="translate(0,1.7682268e-4)">
    <path
       class="cls-1"
       d="m 571.14,335.15 v 19.81 c 0,0 -295.87,0.04 -295.87,0.04 v -19.85 c 19.58,0 30.86,0.56 29.92,-25.69 -0.95,-26.12 0.38,-238.48 0.38,-238.48 L 203.5,304.67 h -33.39 c 0,0 -95.58,-233.69 -95.58,-233.69 v 239.6 c 0.14,5.26 0.94,19.93 18.85,22.99 1.08,0.17 11.81,1.58 11.81,1.58 V 355 L 0.14,355.43 0,335.15 c 0,0 16.03,-1.66 21.6,-4.63 7.64,-4.07 13.46,-10.57 13.46,-19.92 C 35.02,273.19 35.03,113.27 35.05,70.77 35.08,33.99 31.15,30.92 0,30.07 L 0.09,8.81 H 134.78 L 215.76,214.5 307.47,8.81 c 0,0 198.47,1.44 296.09,1.16 28.35,-0.09 72.17,8.28 85.76,46.43 C 701.21,37.61 727.76,0.03 793.69,0 c 52.58,-0.03 59.63,3.75 90.2,16.98 l 0.14,60.3 h -24.37 c -7.69,-43.32 -20.31,-56.02 -64.43,-54.67 -36.57,1.15 -45.15,37.34 -41.83,62.93 1.67,12.88 9.66,30.07 33.98,45.19 54.94,34.22 113.53,56.9 116.09,131.74 2.04,62.82 -43.31,97.32 -114.75,102.47 -38.88,2.82 -68.61,-6 -105.83,-13.43 0,-21.05 -0.14,-66.66 -0.22,-69.64 2.99,0.09 27.12,0.37 28.14,0 3.84,30.11 3.46,60.55 74.19,62.04 14.45,0.3 52.45,-13.51 52.02,-56.09 0.82,-72.93 -100.49,-64.48 -144.64,-151.99 -6.71,18.22 -19.89,39.21 -44.94,52.93 -27.66,15.13 -56.13,19.71 -116.99,19.88 0,0 -0.09,89.92 -0.05,100.35 0.08,24.33 13.14,25.57 40.75,26.14 z M 451.93,54.81 c 0,-20.15 -18.59,-21.95 -33.99,-21.95 -15.4,0 -33.59,0.8 -33.59,22.35 0.18,86.37 0.12,255.89 0.12,255.89 0,18.52 18.35,21.28 33.56,21.28 13.5,0 33.92,-2.36 33.92,-20.38 -0.69,-41.76 -0.03,-214.43 -0.03,-257.18 z m 78.53,130.53 c 53.73,0 89.03,-6.9 89.03,-77.16 0,-70.26 -35.95,-76.92 -89.03,-76.92 z"
       id="path1" />
  </g>
</svg>
