<?xml version="1.0" encoding="UTF-8"?>
<svg id="Layer_2" data-name="Layer 2" xmlns="http://www.w3.org/2000/svg" viewBox="0 0 903.54 365.48">
  <defs>
    <style>
      .cls-1 {
        stroke-width: 0px;
      }
    </style>
  </defs>
  <g id="Layer_1-2" data-name="Layer 1">
    <path class="cls-1" d="m571.14,335.15v19.81s-295.87.04-295.87.04v-19.85c19.58,0,30.86.56,29.92-25.69-.95-26.12.38-238.48.38-238.48l-102.07,233.69h-33.39S74.53,70.98,74.53,70.98v239.6c.14,5.26.94,19.93,18.85,22.99,1.08.17,11.81,1.58,11.81,1.58v19.85l-105.05.43-.14-20.28s16.03-1.66,21.6-4.63c7.64-4.07,13.46-10.57,13.46-19.92-.04-37.41-.03-197.33-.01-239.83.03-36.78-3.9-39.85-35.05-40.7L.09,8.81h134.69l80.98,205.69L307.47,8.81s198.47,1.44,296.09,1.16c28.35-.09,72.17,8.28,85.76,46.43C701.21,37.61,727.76.03,793.69,0c52.58-.03,59.63,3.75,90.2,16.98l.14,60.3h-24.37c-7.69-43.32-20.31-56.02-64.43-54.67-36.57,1.15-45.15,37.34-41.83,62.93,1.67,12.88,9.66,30.07,33.98,45.19,54.94,34.22,113.53,56.9,116.09,131.74,2.04,62.82-43.31,97.32-114.75,102.47-38.88,2.82-68.61-6-105.83-13.43,0-21.05-.14-66.66-.22-69.64,2.99.09,27.12.37,28.14,0,3.84,30.11,3.46,60.55,74.19,62.04,14.45.3,52.45-13.51,52.02-56.09.82-72.93-100.49-64.48-144.64-151.99-6.71,18.22-19.89,39.21-44.94,52.93-27.66,15.13-56.13,19.71-116.99,19.88,0,0-.09,89.92-.05,100.35.08,24.33,13.14,25.57,40.75,26.14ZM451.93,54.81c0-20.15-18.59-21.95-33.99-21.95s-33.59.8-33.59,22.35c.18,86.37.12,255.89.12,255.89,0,18.52,18.35,21.28,33.56,21.28,13.5,0,33.92-2.36,33.92-20.38-.69-41.76-.03-214.43-.03-257.18Zm78.53,130.53c53.73,0,89.03-6.9,89.03-77.16s-35.95-76.92-89.03-76.92v154.08Z"/>
  </g>
</svg>