<svg xmlns="http://www.w3.org/2000/svg" width="313.785" height="313.783"><path d="M313.817 156.925a7 7 0 0 0-2.047-4.875L161.949 2.23a6.97 6.97 0 0 0-4.875-2.047L157 .108l-.074.074a6.98 6.98 0 0 0-4.876 2.047L2.229 152.05a7 7 0 0 0-2.046 4.876L.107 157l.075.074c.02 1.83.751 3.58 2.046 4.876L152.05 311.771a6.98 6.98 0 0 0 4.876 2.046l.074.074.074-.074a6.98 6.98 0 0 0 4.875-2.046L311.77 161.95a7 7 0 0 0 2.047-4.875l.075-.075Z" style="fill:#fff" transform="translate(-.107 -.108)"/><path d="m81.982 89.053-67.84 67.839 67.84 67.84 28.241-28.242-39.598-39.598 39.598-39.598zM224.732 81.981l-67.839-67.839-67.84 67.839 28.241 28.242 39.599-39.598 39.598 39.598zM299.643 156.892l-67.84-67.839-28.242 28.241 39.598 39.598-39.598 39.598 28.242 28.241zM156.893 299.642l67.839-67.839-28.241-28.242-39.598 39.598-39.599-39.598-28.241 28.242z"/><path d="m84.766 156.892 72.125-72.124 72.124 72.124-72.124 72.124z"/></svg>