<svg xmlns="http://www.w3.org/2000/svg" width="313.786" height="313.785"><g transform="translate(-.107 -.108)"><path d="m75.018 231.911 7.071 7.071 74.91 74.911L313.893 157 156.999.108l-74.91 74.91-7.071 7.071L.107 157z"/><linearGradient id="a" x1="-1575.785" x2="-1510.227" y1="1579.193" y2="1513.635" gradientTransform="rotate(-134.999 -1025.264 518.057)" gradientUnits="userSpaceOnUse"><stop offset="0" style="stop-color:#536e78"/><stop offset=".5" style="stop-color:#d9eaf3"/><stop offset="1" style="stop-color:#536e78"/></linearGradient><path d="m82.089 224.839 28.241-28.241L70.732 157l39.598-39.598-28.241-28.241L14.25 157z" style="fill:url(#a)"/><linearGradient id="b" x1="99.171" x2="205.111" y1="-587.198" y2="-693.138" gradientTransform="rotate(45.001 -693.373 -283.063)" gradientUnits="userSpaceOnUse"><stop offset="0" style="stop-color:#536e78"/><stop offset=".5" style="stop-color:#d9eaf3"/><stop offset="1" style="stop-color:#536e78"/></linearGradient><path d="m89.16 82.089 28.241 28.242 39.598-39.598 39.598 39.598 28.241-28.242-67.839-67.839z" style="fill:url(#b)"/><linearGradient id="c" x1="249.278" x2="314.837" y1="-603.365" y2="-668.924" gradientTransform="rotate(45.001 -693.373 -283.063)" gradientUnits="userSpaceOnUse"><stop offset="0" style="stop-color:#536e78"/><stop offset=".5" style="stop-color:#d9eaf3"/><stop offset="1" style="stop-color:#536e78"/></linearGradient><path d="m299.75 157-67.841-67.839-28.241 28.241L243.266 157l-39.598 39.598 28.241 28.241z" style="fill:url(#c)"/><linearGradient id="d" x1="233.111" x2="339.052" y1="-453.258" y2="-559.198" gradientTransform="rotate(45.001 -693.373 -283.063)" gradientUnits="userSpaceOnUse"><stop offset="0" style="stop-color:#536e78"/><stop offset=".5" style="stop-color:#d9eaf3"/><stop offset="1" style="stop-color:#536e78"/></linearGradient><path d="m156.999 299.75 67.839-67.839-28.241-28.242-39.598 39.598-39.598-39.598-28.241 28.242z" style="fill:url(#d)"/><linearGradient id="e" x1="163.11" x2="275.11" y1="-517.198" y2="-629.198" gradientTransform="rotate(45.001 -693.373 -283.063)" gradientUnits="userSpaceOnUse"><stop offset="0" style="stop-color:#536e78"/><stop offset=".5" style="stop-color:#d9eaf3"/><stop offset="1" style="stop-color:#536e78"/></linearGradient><path d="M156.999 84.875 84.875 157l72.124 72.125L229.123 157z" style="fill:url(#e)"/></g></svg>