<svg xmlns="http://www.w3.org/2000/svg" xmlns:xlink="http://www.w3.org/1999/xlink" width="600" height="451.12"><linearGradient id="a" x1="120.71" x2="259.59" y1="235.738" y2="105.547" gradientUnits="userSpaceOnUse"><stop offset="0" style="stop-color:#bf331c"/><stop offset=".3" style="stop-color:#d3641c"/><stop offset=".5" style="stop-color:#f6b91d"/><stop offset=".7" style="stop-color:#d3641c"/><stop offset="1" style="stop-color:#bf331c"/></linearGradient><linearGradient xlink:href="#a" id="b" x1="120.71" x2="259.59" y1="235.738" y2="105.547" gradientTransform="matrix(2 0 0 2 -.001 -76.288)" gradientUnits="userSpaceOnUse"/><path d="m540.452 451.112-39.71-25.41c-44.954-54.23-119.8-87.175-200.739-87.175s-155.788 32.945-200.74 87.177L59.539 451.12C54.11 282.665 173.62 184.039 300 184.039c127.625 0 245.965 99.938 240.451 267.073m53.598-120.427c19.316-88.466-8.466-182.508-82.398-250.226-117.09-107.265-306.18-107.293-423.301 0-73.504 67.33-101.832 161.226-82.398 250.226l22.178 35.15 17.974-29.96c20.792-65.722 63.122-112.408 121.882-147.914-7.166-46.882.386 2.522-6.532-42.726 37.306 27.1 29.878 21.708 38.306 27.826 33.158-11.964 48.652-14.876 79.458-18.168 4.3-10.308.686-1.648 20.782-49.786 18.795 45.02 16.119 38.612 20.783 49.786 30.804 3.292 46.13 6.142 79.458 18.168 8.374-6.08 1.064-.77 38.306-27.826-6.916 45.24.632-4.152-6.532 42.726 58.756 35.502 101.088 82.186 121.882 147.914l17.974 29.96z" style="fill:#fff"/><path d="M520.812 418.562C472.62 356.406 389.648 318.395 300 318.395c-89.644 0-172.61 38.003-220.802 100.153 2.082-55.442 24.046-107.213 62.782-147.215 41.94-43.31 98.058-67.162 158.022-67.162 59.99 0 116.127 23.87 158.063 67.212 38.746 40.046 60.702 91.803 62.748 147.179m52.602-87.735c-19.526-62.594-62.216-117.53-119.466-153.11l11.788-77.12-68.708 49.912a292 292 0 0 0-62.25-14.358l-34.779-83.31-34.776 83.31a292 292 0 0 0-62.25 14.358l-68.708-49.912 11.788 77.12c-57.25 35.58-99.942 90.516-119.466 153.11a235.6 235.6 0 0 1-6.436-54.73C20.15 134.991 145.69 20.193 300 20.193S579.852 134.99 579.852 276.097a235.7 235.7 0 0 1-6.438 54.73" style="fill:url(#b)"/><path d="M300 25.44c73.522 0 142.598 26.187 194.504 73.733 51.65 47.312 80.096 110.144 80.096 176.922 0 11.68-.882 23.302-2.636 34.798-21.622-55.064-61.09-103.09-112.306-135.786l9.368-61.288 3.8-24.866-20.352 14.786-56.322 40.914a297.2 297.2 0 0 0-57.706-13.342L309.69 62.423 300 39.213l-9.69 23.212-28.757 68.888a297.3 297.3 0 0 0-57.706 13.342l-56.32-40.912-20.352-14.786 3.8 24.866 9.368 61.288c-51.216 32.696-90.686 80.72-112.306 135.786A230.6 230.6 0 0 1 25.4 276.1c0-66.778 28.446-129.61 80.096-176.922C157.4 51.627 226.477 25.44 299.999 25.44m0 183.98c58.555 0 113.35 23.302 154.29 65.614 34.063 35.202 54.835 79.68 60.101 127.657-50.196-55.89-129.366-89.545-214.389-89.545-85.012 0-164.176 33.647-214.372 89.523 5.292-48.03 26.07-92.519 60.122-127.683 40.94-42.282 95.72-65.566 154.248-65.566m0-194.48c-157.458 0-285.1 116.922-285.1 261.154 0 25.852 4.122 50.82 11.762 74.407 16.712-71.575 62.684-132.407 125.108-170.131l-10.414-68.134 60.772 44.146a286.2 286.2 0 0 1 66.752-15.358L300 66.47l31.123 74.554a286 286 0 0 1 66.752 15.358l60.772-44.146-10.414 68.134c62.424 37.724 108.394 98.556 125.108 170.13 7.64-23.586 11.762-48.554 11.762-74.406C585.1 131.863 457.458 14.941 300 14.941m0 183.98c-127.226 0-230.272 106.152-226.092 236.029C117.6 368.632 202.46 323.647 299.999 323.647c97.537 0 182.397 44.985 226.091 111.303C530.352 305.59 427.626 198.92 300 198.92"/></svg>