<svg xmlns="http://www.w3.org/2000/svg" width="570.201" height="420.007"><path d="M509.311 413.695c-46.478-66.15-131.728-106.992-224.213-106.992-92.482 0-177.73 40.842-224.212 106.986-.352-60.078 22.188-116.53 63.856-159.557 42.558-43.95 99.506-68.152 160.358-68.152 60.877 0 117.841 24.22 160.397 68.204 41.684 43.075 64.21 99.51 63.814 159.511m49.33-85.606c-17.682-67.163-62.206-126.457-123.134-163.675l10.936-71.552-63.792 46.34a288.7 288.7 0 0 0-65.042-14.976L285.1 46.338l-32.511 77.886a288.7 288.7 0 0 0-65.042 14.976l-63.792-46.34 10.936 71.552C73.762 201.63 29.238 260.924 11.556 328.087A239 239 0 0 1 2 261.152C2 118.256 128.998 2 285.1 2 441.2 2 568.199 118.256 568.199 261.154a239 239 0 0 1-9.558 66.935"/><path d="M150 47.614c37.576 0 72.894 13.396 99.448 37.72 26.505 24.279 41.102 56.546 41.102 90.857a118.5 118.5 0 0 1-3.784 29.718c-9.433-32.18-31.139-60.481-60.473-78.593l5.006-32.753.724-4.735-3.876 2.815-29.532 21.453a145.3 145.3 0 0 0-31.663-7.298l-15.106-36.19L150 66.187l-1.846 4.422-15.106 36.19a145.3 145.3 0 0 0-31.663 7.298L71.853 92.644l-3.876-2.815.724 4.735 5.006 32.753c-29.333 18.111-51.04 46.413-60.473 78.593a118.5 118.5 0 0 1-3.784-29.718c0-34.312 14.597-66.578 41.102-90.857C77.106 61.01 112.424 47.614 150 47.614m0 91.99c30.166 0 58.393 12.003 79.48 33.797 19.937 20.604 31.031 47.374 31.605 75.949-23.789-31.842-65.715-51.384-111.086-51.384-45.369 0-87.293 19.54-111.083 51.378.594-28.61 11.694-55.388 31.624-75.969 21.088-21.778 49.308-33.771 79.46-33.771m0-93.99c-78.729 0-142.55 58.461-142.55 130.577 0 12.926 2.061 25.41 5.881 37.203 8.356-35.787 31.342-66.203 62.554-85.065l-5.207-34.067 30.386 22.073a143 143 0 0 1 33.376-7.679L150 71.379l15.561 37.277a143 143 0 0 1 33.376 7.679l30.386-22.073-5.207 34.067c31.212 18.862 54.197 49.278 62.554 85.065a120.4 120.4 0 0 0 5.881-37.203C292.549 104.075 228.729 45.614 150 45.614m0 91.99c-63.613 0-115.136 53.076-113.046 118.014C58.8 222.458 101.231 199.966 150 199.966c48.768 0 91.198 22.492 113.045 55.651 2.13-64.679-49.233-118.013-113.045-118.013" style="fill:#fff" transform="matrix(2 0 0 2 -14.9 -91.228)"/></svg>