<?xml version="1.0" encoding="UTF-8"?>
<svg id="Layer_2" data-name="Layer 2" xmlns="http://www.w3.org/2000/svg" xmlns:xlink="http://www.w3.org/1999/xlink" viewBox="0 0 1074.41 1023.09">
  <defs>
    <style>
      .cls-1 {
        fill: url(#linear-gradient);
      }

      .cls-1, .cls-2, .cls-3, .cls-4, .cls-5, .cls-6, .cls-7 {
        fill-rule: evenodd;
        stroke: #000;
        stroke-linecap: round;
        stroke-linejoin: round;
        stroke-width: 1.08px;
      }

      .cls-2 {
        fill: url(#linear-gradient-4);
      }

      .cls-3 {
        fill: url(#linear-gradient-2);
      }

      .cls-4 {
        fill: url(#linear-gradient-5);
      }

      .cls-5 {
        fill: url(#radial-gradient);
      }

      .cls-7 {
        fill: url(#linear-gradient-3);
      }
    </style>
    <radialGradient id="radial-gradient" cx="-421.96" cy="1047.98" fx="-421.96" fy="1047.98" r="1" gradientTransform="translate(21249.62 423308.23) rotate(19.13) scale(374.76 -374.76)" gradientUnits="userSpaceOnUse">
      <stop offset="0" stop-color="#d7bd74"/>
      <stop offset=".39" stop-color="#d4ba71"/>
      <stop offset=".5" stop-color="#d7bd74"/>
      <stop offset=".61" stop-color="#d4ba71"/>
      <stop offset=".7" stop-color="#cab068"/>
      <stop offset=".78" stop-color="#b9a059"/>
      <stop offset=".8" stop-color="#b39a54"/>
      <stop offset=".86" stop-color="#a38a45"/>
      <stop offset=".94" stop-color="#937a35"/>
      <stop offset="1" stop-color="#8d742f"/>
    </radialGradient>
    <linearGradient id="linear-gradient" x1="-421.96" y1="1047.97" x2="-420.96" y2="1047.97" gradientTransform="translate(614731.91 1049589.14) rotate(-16.18) scale(706.49 -1124.74)" gradientUnits="userSpaceOnUse">
      <stop offset="0" stop-color="#8d742f"/>
      <stop offset=".07" stop-color="#967d38"/>
      <stop offset=".18" stop-color="#ae954f"/>
      <stop offset=".2" stop-color="#b39a54"/>
      <stop offset=".22" stop-color="#b9a059"/>
      <stop offset=".3" stop-color="#cab068"/>
      <stop offset=".39" stop-color="#d4ba71"/>
      <stop offset=".5" stop-color="#d7bd74"/>
      <stop offset=".61" stop-color="#d4ba71"/>
      <stop offset=".7" stop-color="#cab068"/>
      <stop offset=".78" stop-color="#b9a059"/>
      <stop offset=".8" stop-color="#b39a54"/>
      <stop offset=".86" stop-color="#a38a45"/>
      <stop offset=".94" stop-color="#937a35"/>
      <stop offset="1" stop-color="#8d742f"/>
    </linearGradient>
    <linearGradient id="linear-gradient-2" y1="1047.97" y2="1047.97" gradientTransform="translate(-547495.02 787250.74) rotate(-159.3) scale(557.25 887.16)" xlink:href="#linear-gradient"/>
    <linearGradient id="linear-gradient-3" y1="1047.97" y2="1047.97" gradientTransform="translate(480502.32 68057.8) rotate(-52.93) scale(557.95 -404.31)" xlink:href="#linear-gradient"/>
    <linearGradient id="linear-gradient-4" y1="1047.96" y2="1047.96" gradientTransform="translate(-526152.94 71286.41) rotate(-126.71) scale(611.75 443.3)" xlink:href="#linear-gradient"/>
    <linearGradient id="linear-gradient-5" y1="1047.97" y2="1047.97" gradientTransform="translate(-339149.31 214989.45) rotate(90.49) scale(515.33 -322.36)" xlink:href="#linear-gradient"/>
  </defs>
  <g id="Layer_1-2" data-name="Layer 1">
    <g id="M">
      <path class="cls-6" d="M273.78,817.75l50.75-292.58-212.47-206.99,293.57-43.29L537,7.68l131.86,266.7,294.07,43.29-212.47,206.99,50.26,292.08-262.72-137.33-264.22,138.33Z"/>
      <g id="Ebene1">
        <path class="cls-6" d="M309.97,857.1l227.02,165.45,227.02-165.45-227.02-120.04-227.02,120.04Z"/>
        <g id="Ebene11">
          <path class="cls-6" d="M.54,632.14l86.62-267.18,183.75,178.65-43.63,253.49L.54,632.14Z"/>
          <path class="cls-6" d="M.54,632.14l86.62-267.18,183.75,178.65-43.63,253.49L.54,632.14Z"/>
        </g>
        <path class="cls-6" d="M1073.87,632.95l-86.62-267.18-183.75,178.65,43.63,253.49,226.74-164.96Z"/>
        <path class="cls-6" d="M702.78,230.67L588.96,1.16l281.13-.62,86.46,265.58-253.77-35.45Z"/>
        <path class="cls-6" d="M372.51,231.29L486.33,1.78l-281.13-.62-86.46,265.58,253.77-35.45Z"/>
      </g>
      <g id="Ebene2">
        <path class="cls-5" d="M177.3,338.87l248.17-36.07,111.33-225.78,111.96,225.16,248.79,36.7-179.13,175.4,42.29,248.17-222.67-116.93-223.29,115.69,41.67-246.92-179.13-175.4Z"/>
        <path class="cls-1" d="M206.12,742.98l32.96-187.84-137.46-134.97-65.31,200.28,169.8,122.53Z"/>
        <path class="cls-3" d="M868.63,745.41l-32.96-187.84,137.46-134.97,65.31,200.28-169.8,122.53Z"/>
        <path class="cls-7" d="M912.71,231.18l-65.18-199.03h-209.48l84.59,171.17,190.08,27.86Z"/>
        <path class="cls-2" d="M162.08,230.96L227.26,31.93h209.48l-84.59,171.17-190.08,27.86Z"/>
        <path class="cls-4" d="M367.17,860.65l169.68-88.57,169.18,88.57-168.68,123.4-170.17-123.4Z"/>
      </g>
    </g>
  </g>
</svg>