<?xml version="1.0" encoding="UTF-8"?>
<svg id="Layer_2" data-name="Layer 2" xmlns="http://www.w3.org/2000/svg" viewBox="0 0 1003.18 953.2">
  <defs>
    <style>
      .cls-1 {
        stroke-width: 0px;
      }

      .cls-1, .cls-2 {
        fill-rule: evenodd;
      }

      .cls-2 {
        stroke: #000;
        stroke-linecap: round;
        stroke-linejoin: round;
        stroke-width: 1.08px;
      }
    </style>
  </defs>
  <g id="Layer_1-2" data-name="Layer 1">
    <g id="M">
      <g id="Ebene2">
        <path class="cls-1" d="M141.52,307.48l248.17-36.07,111.33-225.78,111.96,225.16,248.79,36.7-179.13,175.4,42.29,248.17-222.67-116.93-223.29,115.69,41.67-246.92-179.13-175.4Z"/>
        <path class="cls-2" d="M170.34,711.59l32.96-187.84-137.46-134.97L.54,589.07l169.8,122.53Z"/>
        <path class="cls-2" d="M832.84,714.02l-32.96-187.84,137.46-134.97,65.31,200.28-169.8,122.53Z"/>
        <path class="cls-2" d="M876.92,199.79L811.74.76h-209.48l84.59,171.17,190.08,27.86Z"/>
        <path class="cls-2" d="M126.29,199.57L191.48.54h209.48l-84.59,171.17-190.08,27.86Z"/>
        <path class="cls-2" d="M331.39,829.26l169.68-88.57,169.18,88.57-168.68,123.4-170.17-123.4Z"/>
      </g>
    </g>
  </g>
</svg>