<?xml version="1.0" encoding="UTF-8"?>
<svg id="Layer_2" data-name="Layer 2" xmlns="http://www.w3.org/2000/svg" viewBox="0 0 753.8 898.46">
  <defs>
    <style>
      .cls-1, .cls-2 {
        stroke-width: 0px;
      }

      .cls-2 {
        fill: #fff;
      }
    </style>
  </defs>
  <g id="Layer_1-2" data-name="Layer 1">
    <path class="cls-2" d="M151.41,630.9c.01-.17.1-.28.25-.36,3.44-1.75,6.87-3.44,10.28-5.1.41-.19.74-.47,1-.85.24-.33.46-.55.67-.67,3.41-1.93,6.75-3.76,10.04-5.49.87-.45,1.32-1.43,1.09-2.39-2.79-11.81-5.72-23.97-8.82-36.48-1.41-5.73-5.02-16.86-10.81-33.38-9.78-27.89-22.35-52.77-37.72-74.69-3.35-4.78-7.3-10.04-11.83-15.76-4.31-5.45-8.77-10.4-13.39-14.85-10.09-9.73-19.95-17.73-29.58-23.99-11.3-7.35-23.96-13.33-38-17.92-7.71-2.53-15.49-4.92-23.35-7.16-.44-.12-.8-.44-1-.85-.43-.9-.27-1.6.47-2.11.33-.21.61-.42.86-.61,25.11-18.9,49.8-37.52,74.03-55.85.54-.41.53-1.23-.03-1.61-15.87-10.88-31.81-20-47.86-27.39-6.81-3.13-13.67-6.22-20.57-9.28-1.94-.86-2.24-2.11-.92-3.77L166,90.26c.71-.89,1.95-1.15,2.95-.61,2.82,1.49,5.68,3.1,8.59,4.83,3.76,2.23,9.99,5.51,18.72,9.86,34.61,17.2,70.12,27.62,107.72,31.39,6.18.43,19.5,2.1,26.9,2.07,6.16-.03,6.8.83,8.01-5.69,5.45-22.36,1.81-12.81,9-34.32.3-.89,4.66-8.7,4.9-9.55,2.2-7.5,3.95-9.39,6.71-17.03,2.76-7.63,5.56-13.32,8-18.84,3.03-6.84,5.63-17.89,8.29-24.26.21-.52,5.94,0,6.16.52,6.24,14.01,2.41,8.05,7.74,22.45,1.09,2.94,1.27,5.96,2.32,9.29,1,3.19,2.19,10.72,3.35,13.94,1.33,3.69,3.05,8.96,4.13,12.65,1.92,6.61,2.67,10.32,4.65,16.77,3.78,13.38,3.9,18.33,7.7,28.24,2.88,7.51,10.37,5.93,21.7,4.93,8.91-.41,12.34-.69,17.68-1.18,10.41-1.34,17.87-2.45,22.41-3.32,23.25-4.44,46.27-11.49,69.06-21.13,6.18-2.62,12.89-5.86,20.14-9.73,7.57-4.05,15.01-8.1,22.31-12.14.68-.38,1.53-.2,2.01.42,3.51,4.6,7.15,9.2,10.9,13.81,11.99,14.66,23.61,29.08,34.88,43.27,37.28,46.89,75.49,94.83,114.6,143.82.69.85.7,1.73.03,2.62-.17.23-.39.42-.67.53-6.26,2.76-12.49,5.57-18.72,8.41-17.56,8.04-34.33,17.59-50.31,28.64-.41.28-.54.8-.34,1.24.07.15.17.26.29.35,24.66,18.55,49.7,37.45,75.13,56.71,1.21.91,1.12,1.66-.29,2.22-.6.24-1.18.45-1.77.63-8.27,2.51-15.87,4.92-22.81,7.21-22.38,7.37-42.19,19.02-59.41,34.94-7.39,6.82-14.93,14.45-21.28,22.34-8.99,11.19-16.99,23.07-24.04,35.65-6.51,11.63-12.71,23.97-17.67,36.31-11.16,27.75-19.88,56.46-26.15,86.15-.37,1.75.2,3.06,1.7,3.9,10.16,5.74,20.2,11.37,30.1,16.88,1.03.58,1.51,1.79,1.16,2.91-8.56,27.1-17.61,54.75-27.19,82.93-.18.54-.72.87-1.27.8-1.89-.23-3.51-.47-5.29-1.27-3.88-1.75-7.63-3.37-11.28-4.87-1.12-.46-1.66-.09-1.6,1.12.06,1.45-.43,14.69-.56,16.09-.41,4.45-1,29.02-1,35.03-26.63-3.13-61.02.73-75.33,3.53-11.72,2.29-22.97,5.64-33.74,10.07-10.61,4.38-20.15,10.13-29.13,17.01-.69.53-1.04,1.25-1.03,2.14.06,5.42.03,10.8-.05,16.16-.04,2.64.61,5.1,1.37,7.54.58,1.85,9.71,29.74,13.05,40.14.41,1.27.74,2.57,1.01,3.89.18.89-.15,1.52-.97,1.91-19.36,8.84-39.72,18.03-61.07,27.57-1.15.51-2.41.45-3.79-.17-22.27-10.12-42.47-19.18-60.6-27.2-.71-.32-1.08-1.11-.86-1.85l2.27-7.41c.07-.23.18-.43.33-.6.26-.32.35-.7.27-1.15-.06-.3-.01-.63.12-.91.38-.82.71-1.69.98-2.59,3.38-11.19,6.89-22.37,10.53-33.55.76-2.31,1.11-4.6,1.06-6.88-.09-4.63-.1-9.42-.03-14.33.01-1.09-.43-1.95-1.31-2.59-7.94-5.81-16.16-11.21-25.34-15.27-12.73-5.63-26.04-9.69-39.92-12.19-15.2-3.11-31.85-4.1-47.67-4.57-8.26-.09-15.9.44-25.21,1.31.18-3.76-.74-16.23-.95-32.7-.37-4.47-.52-15.18-.6-18.46-.02-.92-.97-1.54-1.83-1.17l-14.48,6.25c-1.65.71-2.74.21-3.29-1.49l-24.29-74.96c-.06-.19-.08-.39-.06-.6.06-.53-.09-.96-.45-1.29-.15-.14-.26-.3-.32-.48l-1.67-5c-.33-.98.07-2.05.94-2.59,1.73-1.07,3.62-2.04,5.68-2.9.54-.23,1.04-.52,1.48-.88.48-.39.98-.59,1.51-.58.28,0,.43-.14.46-.42ZM376.94,331.18c3.48,58.91,6.98,117.77,10.51,176.58.02.35.18.62.48.8l66.27,38.55c.17.1.39-.02.38-.23-4.91-102.98-16.01-203.44-33.35-301.38-10.74-60.67-25.03-122.66-44.16-181.57-.06-.17-.27-.21-.39-.09-.24.26-.42.55-.53.9-23.12,72.53-39.11,147.17-50.91,222.22-13.39,85.09-22.17,171.68-26.35,259.75-.01.44.17.54.54.32l66.23-38.55c.19-.11.32-.32.33-.53,3.55-58.94,7.1-117.88,10.65-176.8.01-.08.06-.12.14-.12h0c.1,0,.16.05.17.15ZM144.4,156.1l-60.08,75.52-41.97,52.75c-.11.14-.08.33.07.42,14.03,8.65,27.49,18.22,40.38,28.7,16.18,13.14,30.97,27.7,44.35,43.67,27.1,32.22,45.45,68.99,52.67,109.43.02.12-.02.2-.15.24h-.01c-.12.03-.2-.02-.24-.15-4.8-17.3-11.65-33.75-20.53-49.37-16-27.3-36.41-50.82-61.21-70.59-.09-.08-.23-.08-.33,0l-46.75,35.27c-.25.19-.2.58.08.71,29.31,13.71,54.11,33.25,74.39,58.64,11.78,14.75,21.78,29.8,29.96,45.16,19.72,36.99,33.16,77.38,41.76,118.39.07.32.43.48.71.33l50.01-28.02c.44-.25.65-.63.63-1.14-2.9-69.45-17.99-139.31-48.88-200.63-16.77-33.29-38.71-64.34-66.3-89.41-5.84-5.15-12.04-9.7-18.6-13.61-.8-.48-.92-1.11-.37-1.86l27.05-36.89,35.25-47.62c.24-.33.69-.44,1.05-.26,14.08,6.86,28.56,12.93,43.44,18.25,28.09,10.16,57.83,17.32,87.73,19.2,1.03.06,2.06.06,3.11-.01.39-.03.62-.24.7-.63,3.66-19.34,7.93-39.61,12.77-60.85.11-.48-.26-.95-.76-.96-36.29-.29-71.91-7.7-105.76-20.29-15.45-5.83-30.38-12.71-44.78-20.63-.26-.15-.5-.1-.69.14l-28.71,36.1ZM531.82,141.59c-32.59,11.91-67.98,19.23-102.79,19.16-.37,0-.53.19-.45.56l12.9,61.62c.06.27.3.45.58.44,32.15-1.51,64.51-9.45,94.58-20.73,13.32-4.89,26.41-10.48,39.25-16.73.56-.27,1.24-.11,1.61.39l30,40.81,32.21,43.8c.28.38.18.94-.24,1.2-9.46,5.81-18.16,12.7-26.06,20.68-15.42,15.42-28.99,32.33-40.75,50.77-7.68,12.03-14.66,24.48-20.96,37.37-9.52,19.6-17.14,38.69-22.86,57.27-13.9,45.13-21.65,91.27-23.24,138.42-.01.21.08.37.27.47l50.25,28.28c.17.1.39.03.48-.14.05-.09.09-.19.12-.32,6.71-31.42,16.24-61.88,28.59-91.37,2.06-4.19,4.07-8.4,6.03-12.62,12.12-26.03,27.71-49.62,46.74-70.78,18.57-20.24,40.17-36.04,64.8-47.4.32-.15.37-.59.09-.79l-46.75-35.17c-.23-.16-.52-.16-.73.01-7.88,6.42-15.36,13.28-22.42,20.61-20.9,20.78-37.31,44.53-49.27,71.23-3.94,9.08-7.13,18.4-9.55,27.99-.05.17-.16.24-.34.19h-.01c-.17-.03-.24-.15-.2-.33,5.23-28.03,15.34-54.17,30.32-78.41,4.32-7,8.87-13.67,13.66-19.99,10.32-13.53,21.59-26.11,33.85-37.73,5.4-5.06,11.01-10.02,16.81-14.9,13.46-11.29,27.71-21.48,42.72-30.56.28-.17.33-.38.11-.64l-57.73-72.45-47.93-60.26-24.92-31.44c-.24-.3-.65-.38-.98-.2-15.57,8.51-31.5,15.73-47.79,21.67ZM425.37,623.12c2.72,27.82-18.02,52.63-46.13,54.15-26.3,1.42-49.38-19.1-51.2-45.3-1.58-22.87,11.37-42.75,33.03-50.56.37-.14.55-.39.55-.79v-41.49c0-.42-.44-.68-.8-.47l-87.25,50.72c-.67.38-.88,1.25-.46,1.91,17.22,26.7,31.81,56.7,40.63,87.6,2.9,10.13,4.92,20.88,6.07,32.26.06.47.32.71.79.71l112.55.03c.21,0,.39-.16.42-.37,1.57-15.11,4.89-30.12,10-45.03,8.77-25.58,21.13-50.77,37.07-75.58.21-.34.12-.79-.2-1.01-1.38-.92-2.74-1.78-4.09-2.57-26.99-15.71-54.93-31.96-83.85-48.76-.26-.15-.59.03-.59.34v41.81c-.01.33.15.54.46.65,18.27,6.43,31.13,22.45,33.01,41.75ZM236.35,643.77c.33-.15.72-.07.97.19l16.64,17.46c.18.18.44.24.68.15l23.49-9.64c.37-.15.54-.58.38-.94-7.45-16.59-16.27-32.87-26.47-48.85-.1-.16-.32-.2-.48-.11l-81.32,45.66c-.34.19-.48.59-.37.96l13.49,41.64c.11.34.48.51.81.37l13.66-5.65c.27-.11.45-.37.44-.67l-.83-21.62c-.02-.73.29-1.25.96-1.56l37.96-17.4ZM556.1,662.66l-.78,21.47c-.01.47.19.8.63.98l13.57,5.62c.29.12.62-.03.72-.33l13.46-41.8c.1-.34-.03-.7-.34-.87l-81.41-45.72c-.16-.09-.36-.05-.46.11-10,15.58-18.87,31.89-26.61,48.91-.15.32,0,.7.33.82l23.6,9.71c.26.1.5.06.69-.15l16.81-17.54c.21-.23.54-.28.81-.16l38.07,17.48c.62.28.92.77.9,1.45ZM402.24,628.03c0-14.08-11.41-25.5-25.5-25.5s-25.5,11.41-25.5,25.5,11.41,25.5,25.5,25.5,25.5-11.41,25.5-25.5ZM296.83,734.66c.94-20.56-2.18-40.75-9.35-60.59-.09-.23-.35-.34-.58-.25l-37.81,15.63c-.46.19-1,.08-1.35-.29l-15.78-16.63c-.34-.36-.73-.44-1.17-.23l-8.83,4.1c-.3.15-.45.38-.44.72l.81,22.76c.01.41-.23.78-.61.94l-10.04,3.98c-.38.16-.62.54-.59.95.89,11.99,1.47,24.12,1.71,36.38.01.48.27.73.76.73,39.3-.17,81.36,7.26,114.79,27.45.51.3.76.16.76-.42v-33.88c-.01-.37-.19-.55-.56-.55h-30.97c-.53-.01-.78-.27-.76-.8ZM455.94,735.45h-31.04c-.41.01-.61.21-.61.62l.09,34.28c0,.28.11.35.35.2,34.24-20.66,75.69-27.65,115.51-27.75.19,0,.34-.15.35-.33l1.67-36.36c.03-.67-.25-1.13-.87-1.38l-9.39-3.85c-.5-.2-.81-.7-.79-1.23l.87-22.34c.01-.42-.23-.8-.6-.98l-8.81-4.09c-.37-.17-.71-.11-.99.19l-15.86,16.63c-.41.42-1.01.55-1.56.33l-37.79-15.65c-.17-.07-.36.01-.42.18-4.61,13-7.57,25.97-8.86,38.9-.71,7.13-.46,14.73-.52,21.88,0,.48-.25.73-.73.73ZM400.77,735.98c0-.28-.24-.52-.52-.52h-47.14c-.28,0-.52.24-.52.52v12.74c0,.28.24.52.52.52h47.14c.28,0,.52-.24.52-.52v-12.74ZM400.77,765.5c0-.26-.21-.47-.47-.47h-47.23c-.26,0-.47.21-.47.47v13.64c0,.26.21.47.47.47h47.23c.26,0,.47-.21.47-.47v-13.64ZM400.79,795.76c0-.26-.2-.46-.46-.46h-47.27c-.26,0-.46.2-.46.46v12.83c0,.26.2.46.46.46h47.27c.26,0,.46-.2.46-.46v-12.83ZM404.21,833.26c-.09-.29-.37-.5-.69-.5l-53.49.06c-.32,0-.6.2-.69.5l-7.34,22.86c-.11.36.05.73.38.88l34.09,15.3c.18.09.41.09.59,0l34.12-15.29c.33-.15.5-.52.38-.88l-7.36-22.93Z"/>
    <path class="cls-2" d="M376.9,360.48c-.01-.11.04-30.67-.07-30.67h0c-.08,0,.08,42.78.07,42.86-3.71,61.71-2.87,64.26-10.15,122.83-.01.22-.14.44-.34.56l-70.58,39.92c-.39.24-.58.13-.57-.33,4.38-92.24,13.58-162.85,27.6-251.98,12.37-78.6,29.11-156.78,53.33-232.75.12-.37.02-3.86.27-4.13.13-.13,2.04.77,2.1.95,20.03,61.7,33.61,128.96,44.85,192.5,18.15,102.58,29.79,187.72,34.93,295.58.01.21-.22.34-.4.24l-78.56-40.9c-.32-.19-.48-.47-.51-.84-3.7-61.59,1.68-72.14-1.97-133.84Z"/>
    <path class="cls-1" d="M607.6,382c20.9-32,54.2-64.8,90.2-88.9,6.9-4.6,12.4-8.8,12.2-9.3-.1-.6-115.8-146.4-129.8-163.7-.2-.2-4.7,1.9-10.1,4.7-39.6,20.3-86.9,33.4-125.8,34.9l-16.1.6-4.8-19.9c-6.7-27.6-18.2-67.4-25.8-89.4-6.6-18.9-19.7-51-20.9-51-.3,0-3.8,7.5-7.7,16.7h0c-12.7,30-26,72.4-37.8,119.8-3.1,12.6-6,23.4-6.5,23.9-1.1,1.2-29.5-1-43.8-3.4-32.9-5.6-68.2-17.3-97.4-32.2-5.4-2.8-9.9-4.9-10.1-4.7-.2.2-29.4,37-64.9,81.6-35.6,44.7-64.8,81.7-64.9,82.2-.2.5,3.9,3.7,9.1,7.1,62.6,41.2,106.7,96.9,122.7,154.9,4.3,15.7,4.3,17.2-.1,5.1-8.6-23.8-24-49.8-41.7-70.5-8.9-10.4-23.9-25.3-31.9-31.5l-3.5-2.9-23.7,17.7c-13,9.7-23.6,17.9-23.7,18.2,0,.3,3.7,2.3,8.2,4.5,52.9,25.9,95.8,82,122,159.5,5.2,15.5,11.5,37.5,14.3,50.5,1,4.4,1.9,8.1,2,8.3.1.1,11.6-6.2,25.6-14.1l25.4-14.3-.3-8.5c-.2-4.6-1-15.4-1.8-23.9-8.6-90.8-37.1-168.4-83.5-227.1-10.5-13.4-31.3-34-40.7-40.4-4-2.7-7.1-5.4-6.8-6,.4-1.2,59.1-81.2,61-83.3,1-1,3-.4,10.1,2.9,22.5,10.4,48.7,19.5,72.7,25.4,15,3.7,38.1,7.5,45.8,7.5,7.3,0,7.4.2,5.2,12.4-1.1,5.9-2.1,10.8-2.3,11-.7.7-20.5-1.4-31.9-3.5-25-4.3-52-12.2-78.4-22.8-7.1-2.8-13-5-13.1-4.9-.1.2-8.6,11.6-18.8,25.5l-18.5,25.1,13.2,13.4c14.8,14.8,25.9,28.4,37.6,45.7,39.9,59.6,64.7,136,72.1,221.6.6,7.7,1.3,14.2,1.5,14.4.7.8,29.7-15.2,65.9-36.2,20.9-12.2,38.6-22.1,39.5-22.1.8,0,18.7,10,39.8,22.2,36.4,21.2,64.9,36.9,65.6,36.1.2-.2.9-6.7,1.5-14.4,6.4-74.2,26.5-143.4,57.6-198,15.4-27.2,31.7-48.9,52.1-69.3l13.2-13.4-18.5-25.1c-10.2-13.9-18.7-25.3-18.8-25.5-.1-.1-6,2.1-13.1,4.9-34.1,13.6-70.9,23.1-99.9,25.8-5.5.5-10.2.7-10.4.5-.4-.3-4-19-4.1-21.1,0-.7,2.3-1.4,5.8-1.8,40.1-4.4,78.8-15,116.7-32.1,9.4-4.3,12.2-5.1,13.1-4.1,1.9,1.9,60.6,82,61,83.2.3.6-2.8,3.4-6.8,6.2-9.7,6.7-22.2,18.5-32.7,30.8-47.6,55.4-78.5,131.1-89.6,219-2.9,22.9-4.8,48.6-3.6,49.8,1,1,50.4,28.8,50.6,28.5,0-.2,2-8.2,4.4-17.8,24.1-98.5,70.8-168.6,133.4-200.3l8.9-4.5-3.9-3c-2.1-1.7-12.8-9.8-23.7-18.1l-20-15-3.5,2.9c-8,6.2-23,21.1-31.9,31.5-17.5,20.5-33.3,47.1-41.7,70.5-4.4,12.2-4.4,10.6-.1-5.1,5.9-21.3,16.2-43.7,29.4-63.9ZM444.8,417.5c4.8,48.1,8.9,105.5,7.6,105.5-.5,0-65.9-37.9-66.2-38.3,0-.1-2-33.5-4.4-74.2-2.4-40.7-4.6-74.3-4.9-74.7-.4-.4-2.6,32.6-5,73.5-3.7,63-5.04,70.12-5.73,75.38-2.6,2.5-64.47,38.52-65.17,37.82-.3-.3.2-12.2,1.2-26.3,10.8-155.4,34.2-298,67.3-409,3.6-12.2,6.9-22.2,7.3-22.2s1.4,2.4,2.2,5.2c14.9,50.4,20.4,71.5,29.2,111.3,15.9,72,28.1,150.6,36.6,236Z"/>
    <path class="cls-1" d="M369,16.7c-12.7,30-26,72.4-37.8,119.8-3.1,12.6-6,23.4-6.5,23.9-1.1,1.2-29.5-1-43.8-3.4-32.9-5.6-68.2-17.3-97.4-32.2-5.4-2.8-9.9-4.9-10.1-4.7-.2.2-29.4,37-64.9,81.6-35.6,44.7-64.8,81.7-64.9,82.2-.2.5,3.9,3.7,9.1,7.1,62.6,41.2,106.7,96.9,122.7,154.9,4.3,15.7,4.3,17.2-.1,5.1-8.6-23.8-24-49.8-41.7-70.5-8.9-10.4-23.9-25.3-31.9-31.5l-3.5-2.9-23.7,17.7c-13,9.7-23.6,17.9-23.7,18.2,0,.3,3.7,2.3,8.2,4.5,52.9,25.9,95.8,82,122,159.5,5.2,15.5,11.5,37.5,14.3,50.5,1,4.4,1.9,8.1,2,8.3.1.1,11.6-6.2,25.6-14.1l25.4-14.3-.3-8.5c-.2-4.6-1-15.4-1.8-23.9-8.6-90.8-37.1-168.4-83.5-227.1-10.5-13.4-31.3-34-40.7-40.4-4-2.7-7.1-5.4-6.8-6,.4-1.2,59.1-81.2,61-83.3,1-1,3-.4,10.1,2.9,22.5,10.4,48.7,19.5,72.7,25.4,15,3.7,38.1,7.5,45.8,7.5,7.3,0,7.4.2,5.2,12.4-1.1,5.9-2.1,10.8-2.3,11-.7.7-20.5-1.4-31.9-3.5-25-4.3-52-12.2-78.4-22.8-7.1-2.8-13-5-13.1-4.9-.1.2-8.6,11.6-18.8,25.5l-18.5,25.1,13.2,13.4c14.8,14.8,25.9,28.4,37.6,45.7,39.9,59.6,64.7,136,72.1,221.6.6,7.7,1.3,14.2,1.5,14.4.7.8,29.7-15.2,65.9-36.2,20.9-12.2,38.6-22.1,39.5-22.1.8,0,18.7,10,39.8,22.2,36.4,21.2,64.9,36.9,65.6,36.1.2-.2.9-6.7,1.5-14.4,6.4-74.2,26.5-143.4,57.6-198,15.4-27.2,31.7-48.9,52.1-69.3l13.2-13.4-18.5-25.1c-10.2-13.9-18.7-25.3-18.8-25.5-.1-.1-6,2.1-13.1,4.9-34.1,13.6-70.9,23.1-99.9,25.8-5.5.5-10.2.7-10.4.5-.4-.3-4-19-4.1-21.1,0-.7,2.3-1.4,5.8-1.8,40.1-4.4,78.8-15,116.7-32.1,9.4-4.3,12.2-5.1,13.1-4.1,1.9,1.9,60.6,82,61,83.2.3.6-2.8,3.4-6.8,6.2-9.7,6.7-22.2,18.5-32.7,30.8-47.6,55.4-78.5,131.1-89.6,219-2.9,22.9-4.8,48.6-3.6,49.8,1,1,50.4,28.8,50.6,28.5,0-.2,2-8.2,4.4-17.8,24.1-98.5,70.8-168.6,133.4-200.3l8.9-4.5-3.9-3c-2.1-1.7-12.8-9.8-23.7-18.1l-20-15-3.5,2.9c-8,6.2-23,21.1-31.9,31.5-17.5,20.5-33.3,47.1-41.7,70.5-4.4,12.2-4.4,10.6-.1-5.1,5.9-21.3,16.2-43.7,29.4-63.9,20.9-32,54.2-64.8,90.2-88.9,6.9-4.6,12.4-8.8,12.2-9.3-.1-.6-115.8-146.4-129.8-163.7-.2-.2-4.7,1.9-10.1,4.7-39.6,20.3-86.9,33.4-125.8,34.9l-16.1.6-4.8-19.9c-6.7-27.6-18.2-67.4-25.8-89.4C391,32.1,377.9,0,376.7,0c-.3,0-3.8,7.5-7.7,16.7h0ZM379,70.2c14.9,50.4,20.4,71.5,29.2,111.3,15.9,72,28.1,150.6,36.6,236,4.8,48.1,8.9,105.5,7.6,105.5-.5,0-65.9-37.9-66.2-38.3,0-.1-2-33.5-4.4-74.2s-4.6-74.3-4.9-74.7c-.4-.4-2.6,32.6-5,73.5-3.7,63-2.95,67.85-4.24,77.6-2.6,2.5-65.96,36.3-66.66,35.6-.3-.3.2-12.2,1.2-26.3,10.8-155.4,34.2-298,67.3-409,3.6-12.2,6.9-22.2,7.3-22.2s1.4,2.4,2.2,5.2Z"/>
    <g>
      <path class="cls-1" d="M376.8,714.5c-16.2,0-31-.08-41.67-.21-5.49-.07-9.77-.16-12.72-.25-5.18-.17-6.11-.2-6.11-1.83-.03-.5-.73-5.27-1.4-9.88l-.09-.61c-4.68-30.64-19.45-67.48-41.6-103.73l-5.72-9.5,3.54-2.5c1.34-.93,21.9-13.13,46.51-27.47,38.38-22.36,43.99-25.42,45.2-25.84v-.02s.17-.04.17-.04h.19c1.77,0,2.19,0,2.19,25.7v25.36l-4.7,1.65c-9.09,3.25-18.4,11.64-23.16,20.87-7.02,13.63-6.98,29.05.12,42.32,7.08,13.23,19.84,21.8,35.01,23.5,1.44.17,2.92.25,4.38.25,18.61,0,36.89-13.67,42.52-31.81,6.84-21.87-5.48-47.63-26.38-55.14l-4.79-1.64v-25.47c0-9.71.08-15.37.26-18.95.2-4.01.43-6.47,2.44-6.47.22,0,.45.04.66.13,2.19.92,87.97,51,90.91,53.07l3.53,2.5-7.71,12.99c-17.52,29.5-28.36,54-35.14,79.42-2.51,9.21-5.95,27.87-5.95,31.31,0,1.63-.93,1.67-6.1,1.83-2.95.1-7.22.18-12.69.25-10.66.14-25.47.21-41.71.21ZM570.7,694.5c-1.09,0-8.43-3.1-9.89-3.72l-9.51-3.98v-23.54l-14.33-6.7c-4.18-1.94-8.26-3.81-11.47-5.28-3.27-1.5-5.63-2.58-6.36-2.94-.4-.18-.67-.27-.86-.27-1.07,0-3.93,2.85-8.91,7.88l-9.72,9.72-14.63-6.09c-14.72-6.01-14.72-7.43-14.72-8.29,0-2.8,15.81-32.82,21.81-42.87,7.43-11.93,7.65-11.93,8.69-11.93h.14c.38.04,1.16.11,43.49,24.12,42.6,24.16,42.69,24.49,42.91,25.27.13.51.34,1.36-6.99,24.02-2.72,8.42-7.44,22.72-8.41,23.96l-.45.58-.79.05ZM181.86,694.42l-.52-.46c-.33-.33-.57-.57-8.17-24.3l-7.98-24.36,14.28-8c7.87-4.48,30.07-16.96,42.6-24,29.89-16.79,30.21-16.79,30.73-16.79.98,0,2.32,0,16.53,26.17,3.28,6.03,13.97,25.94,13.97,28.73,0,1.02,0,1.98-14.92,8.18l-14.85,5.98-9.4-9.73c-4.72-4.89-7.57-7.84-8.58-7.84-.22,0-.55.14-.99.35-1.41.6-9.37,4.24-17.81,8.21l-14.44,6.7v23.44l-9.92,4.19c-1.41.59-8.49,3.54-9.91,3.54h-.62Z"/>
      <path class="cls-1" d="M363.11,534.1c.4,0,.69,10.86.69,24.2v24.3l-3.7,1.3c-9.5,3.4-19.1,12.1-24,21.6-15.2,29.5,3.4,64.3,36.3,68,1.51.18,3.03.26,4.55.26,19.2,0,38.02-13.77,43.95-32.86,7.1-22.7-5.6-49.2-27.3-57l-3.8-1.3v-24.4c0-18.44.28-23.92,1.2-23.92.03,0,.07,0,.1.02,1.9.8,87.9,51,90.6,52.9l2.4,1.7-7,11.8c-17.7,29.8-28.5,54.3-35.3,79.8-2.4,8.8-6,27.9-6,31.7,0,.5-26.5.8-59,.8s-59-.3-59-.8c0-.4-.7-5.2-1.5-10.7-4.7-30.8-19.5-67.8-41.8-104.3l-5-8.3,2.4-1.7c1.3-.9,22.2-13.3,46.4-27.4,24.2-14.1,44.3-25.7,44.8-25.7,0,0,0,0,0,0M500.8,598c1.1.1,84.9,47.6,85.1,48.3.3,1.2-14.4,46.7-15.2,46.7-.4,0-4.6-1.6-9.3-3.6l-8.6-3.6v-23.5l-15.2-7.1c-8.4-3.9-16.4-7.5-17.8-8.2-.56-.26-1.03-.43-1.53-.43-1.62,0-3.54,1.82-9.97,8.33l-9,9-13.7-5.7c-7.6-3.1-13.8-6.2-13.8-6.9,0-2,14.5-30.2,21.6-42.1,3.8-6.1,7.1-11.2,7.4-11.2M252.8,598c1.9,0,29,49.9,29,53.4,0,.6-6.3,3.6-14,6.8l-13.9,5.6-8.7-9c-6.24-6.47-8.07-8.3-9.66-8.3-.52,0-1.02.2-1.64.5-1.4.6-9.5,4.3-17.8,8.2l-15.3,7.1v23.4l-9,3.8c-4.7,1.97-8.69,3.42-9.32,3.42-.04,0-.07,0-.08-.02-.2-.2-3.7-10.9-7.8-23.7l-7.6-23.2,13.2-7.4c7.2-4.1,26.4-14.9,42.6-24,16.2-9.1,29.7-16.6,30-16.6M363.11,531.1h-.33l-.09.02c-.93.13-2.62,1.06-14.59,7.94-7.61,4.37-18.43,10.65-31.3,18.15-22.84,13.31-45.09,26.48-46.6,27.53l-2.43,1.72-2.27,1.61,1.44,2.39,5,8.3c22.06,36.1,36.76,72.75,41.4,103.2l.07.46c.62,4.28,1.33,9.11,1.4,9.9.08,2.78,3.02,2.99,3.99,3.05.81.06,2.02.11,3.57.16,2.96.1,7.25.18,12.75.25,10.68.14,25.48.21,41.69.21s31.06-.08,41.73-.21c5.49-.07,9.77-.16,12.72-.25,1.55-.05,2.75-.11,3.56-.16.99-.07,3.99-.28,3.99-3.17,0-3.28,3.47-22,5.89-30.91,6.75-25.3,17.54-49.68,34.99-79.06l7-11.8,1.41-2.38-2.26-1.6-2.4-1.7c-2.95-2.08-89-52.3-91.17-53.22-.44-.18-.85-.26-1.27-.26-3.54,0-3.75,4.19-3.94,7.9-.18,3.6-.26,9.29-.26,19.02v26.54l2.03.69,3.8,1.3c20.12,7.23,32.02,32.13,25.41,53.27-5.45,17.54-23.11,30.76-41.09,30.76-1.41,0-2.82-.08-4.2-.24-14.68-1.65-27.02-9.93-33.87-22.72-6.87-12.82-6.91-27.74-.11-40.93,4.6-8.91,13.58-17.01,22.34-20.15l3.68-1.29,2.01-.7v-26.43c0-6.54-.07-12.64-.2-17.19-.06-2.27-.14-4.06-.23-5.31-.11-1.64-.32-4.7-3.27-4.7h0ZM500.94,595h-.14c-1.83,0-2.54,1.08-4.9,4.67-1.28,1.95-3.03,4.7-5.05,7.95l-.02.02v.02c-3.3,5.51-8.62,15.29-13.57,24.93-8.47,16.49-8.47,17.88-8.47,18.71,0,2.15,1.74,3.25,5.71,5.23,2.68,1.34,6.21,2.92,9.96,4.44l13.68,5.69,1.85.77,1.42-1.42,9-9c3.15-3.19,6.69-6.77,7.88-7.4.05.02.12.05.21.09.8.4,3.04,1.42,6.38,2.95,3.24,1.48,7.28,3.33,11.45,5.26l13.46,6.29v23.59l1.84.77,8.6,3.6c9.01,3.83,10.06,3.83,10.46,3.83.94,0,1.83-.44,2.42-1.2.35-.45,1.28-1.63,8.65-24.43,7.47-23.07,7.27-23.83,7.03-24.8v-.05s-.03-.05-.03-.05c-.36-1.28-.63-1.43-5.03-4.03-2.24-1.32-5.46-3.2-9.59-5.57-7.58-4.37-17.88-10.25-29-16.56-10.98-6.23-21.34-12.07-29.17-16.44-13.9-7.77-14.07-7.78-14.92-7.86h-.14ZM252.8,595q-.99,0-10.49,5.26c-5.33,2.95-12.58,7.01-20.98,11.72-12.51,7.03-34.67,19.49-42.62,24.01l-13.18,7.39-2.15,1.21.77,2.34,7.6,23.2c7.71,24.07,7.87,24.22,8.53,24.89.58.58,1.36.9,2.2.9,1.19,0,4.71-1.23,10.48-3.65l9.01-3.8,1.83-.77v-23.47l13.56-6.29c8.43-3.96,16.37-7.59,17.72-8.16l.06-.03.06-.03c.13-.06.22-.1.3-.14,1.14.68,4.26,3.91,7.55,7.32l8.7,9,1.4,1.45,1.87-.76,13.9-5.6c3.9-1.62,7.47-3.2,10.07-4.46,3.92-1.89,5.81-2.9,5.81-5.13,0-.82,0-1.95-4.58-11.16-2.5-5.03-5.9-11.53-9.57-18.29-3.67-6.76-7.2-13.03-9.94-17.64-5.05-8.52-5.95-9.32-7.91-9.32h0Z"/>
    </g>
    <g>
      <path class="cls-1" d="M357.39,866.87c-17.27-7.78-19.62-9.21-19.28-11.77.34-1.72,5.95-20.12,7.77-25.39.64-1.6,1.61-2.08,17.96-2.08,3.58,0,7.86.02,12.97.07l30.18.31,4.73,14.52c4.79,14.17,3.84,15.12,3.33,15.62-.88.88-15.12,7.12-19.46,9.01l-18.8,8.37-19.41-8.67ZM348.3,811.5v-21h57v21h-57ZM377.09,782.3l-28.24-.32-.35-9.83c-.13-2.97-.23-8.97.29-10.38l.04-.09c.74-1.63,2.45-2.05,16.35-2.05,3.24,0,7.14.02,11.83.07l27.74.32.69,22.5-28.36-.21ZM420.3,730.5h32v-5.8c0-13.65,2.9-30.82,8.16-48.33,1.5-4.9,2.33-7.6,4.91-7.6.36,0,.74.06,1.21.18,1.29.35,10.76,4.12,20.29,8.06l17.04,7.1,7.59-8.14,9.02-9.78,4.18,1.83c1.75.68,4.83,2.1,6.85,3.28l4.25,2.31v23.65l4.42,1.64,6.37,2.4-.7,8.23c-.32,4.16-.9,13.32-1.2,20.63l-.77,14.97-14.95.77c-42.09,2.19-75.17,10.83-101.11,26.39l-7.57,4.57v-46.36ZM325.84,772.19c-26.32-15.5-59.43-24.1-101.21-26.29l-15.06-.77-.66-15.97c-.31-6.12-.87-16.94-1.2-20.53l-.71-7.12,6.46-2.51,4.37-1.81.6-24.24,14.21-6.88,17.04,18.05,18.04-7.5c12.85-5.38,19.81-8.12,20.68-8.12,1.07,0,2.08,0,5.11,9.72,1.71,5.48,3.49,12.39,4.76,18.48,1.09,5.17,2.32,15.23,2.73,22.42l.53,11.39h31.77v46.14l-7.47-4.45ZM348.85,752l-.7-21.5h57.3l-.7,21.5h-55.9ZM376.8,656.5c-8.36,0-16.35-3.59-21.93-9.85-5.51-6.19-8.12-14.4-7.16-22.52,1.37-11.97,8.44-20.7,20.46-25.23,1.86-.71,5.04-1.15,8.3-1.15.65,0,1.29.02,1.92.05,11.36.73,21.09,7.69,25.42,18.15,4.3,10.38,2.35,22.09-5.08,30.54-6.08,6.83-13.05,10.01-21.93,10.01Z"/>
      <path class="cls-1" d="M376.47,599.25c.62,0,1.23.02,1.83.05,23.2,1.5,34.6,28.8,19.3,46.2-5.7,6.4-12.3,9.5-20.8,9.5-16.6,0-29.5-14.5-27.6-30.7,1.3-11.4,8.1-19.7,19.5-24,1.74-.66,4.78-1.05,7.77-1.05M232.3,667.9l8.5,9,8.5,9,19-7.9c10.5-4.4,19.5-8,20.1-8,1.3,0,5.7,14.1,8.4,27,1.1,5.2,2.3,15.2,2.7,22.2l.6,12.8h31.7v42l-5.2-3.1c-26.5-15.6-60-24.3-101.9-26.5l-13.7-.7-.6-14.6c-.4-8-.9-17.3-1.2-20.6l-.6-6,5.4-2.1,5.3-2.2.3-12.1.3-12.2,6.2-3,6.2-3M520.9,668l3.2,1.4c1.8.7,4.8,2.1,6.7,3.2l3.5,1.9v23.8l5.4,2,5.3,2-.6,7.1c-.3,3.9-.9,13.2-1.2,20.7l-.7,13.6-13.6.7c-42.2,2.2-75.8,11-101.8,26.6l-5.3,3.2v-42.2h32v-7.3c0-13.6,2.9-30.6,8.1-47.9,1.59-5.2,2.2-6.53,3.48-6.53.25,0,.52.05.82.13,1.1.3,10.2,3.9,20.1,8l18,7.5,8.3-8.9,8.3-9M403.9,732h0M403.9,732l-.3,9.2-.3,9.3h-53l-.3-9.3-.3-9.2h54.2M365.2,761.13c3.23,0,7.13.02,11.81.07l26.3.3.3,9.8.3,9.7-26.8-.2-26.8-.3-.3-8.4c-.2-4.6-.1-9,.2-9.8.39-.86,3.52-1.17,14.99-1.17M403.8,792v18h-54v-18h54M363.85,829.13c3.57,0,7.85.02,12.95.07l29.1.3,4.4,13.5c2.5,7.4,4.1,13.7,3.7,14.1-.4.4-8.9,4.3-19,8.7l-18.2,8.1-18.8-8.4c-15.1-6.8-18.6-8.7-18.4-10.2.3-1.5,5.9-19.9,7.7-25.1.31-.78,4.23-1.07,16.55-1.07M376.47,596.25c-3.48,0-6.78.47-8.83,1.25-12.57,4.74-19.98,13.89-21.41,26.46-1,8.54,1.74,17.17,7.53,23.68,5.85,6.58,14.25,10.36,23.05,10.36s16.74-3.44,23.04-10.5c7.83-8.9,9.87-21.2,5.35-32.12-4.55-10.99-14.78-18.3-26.7-19.07-.67-.04-1.34-.06-2.03-.06h0ZM232.98,664.24l-1.98.96-6.2,3-6.2,3-1.65.8-.04,1.83-.3,12.2-.25,10.15-3.47,1.44-5.37,2.09-2.12.83.23,2.27.6,6c.24,2.61.66,9.89,1.19,20.45l.6,14.57.11,2.73,2.73.14,13.7.7c41.53,2.18,74.41,10.71,100.53,26.09l5.19,3.09,4.54,2.7v-50.28h-31.84l-.47-9.94c-.42-7.29-1.65-17.45-2.76-22.68-1.3-6.22-3.05-13-4.8-18.61-2.87-9.21-4.15-10.77-6.54-10.77-.6,0-1.61,0-21.26,8.23l-17.08,7.1-7.08-7.5-8.5-9-1.51-1.6h0ZM520.15,664.39l-1.45,1.57-8.3,9-6.87,7.36-16.07-6.7c-8.69-3.6-18.98-7.72-20.46-8.12-.62-.16-1.12-.24-1.61-.24-3.69,0-4.75,3.44-6.35,8.65-5.31,17.67-8.23,34.98-8.23,48.78v4.3h-32v50.52l4.55-2.75,5.3-3.2c25.71-15.43,58.56-23.99,100.41-26.17l13.6-.7,2.7-.14.14-2.7.7-13.6c.29-7.32.88-16.46,1.2-20.62l.6-7.08.19-2.26-2.12-.8-5.3-2-3.46-1.28v-23.5l-1.57-.85-3.46-1.88c-2.06-1.19-5.17-2.63-7.03-3.36l-3.14-1.37-1.96-.86h0ZM407,729h-60.4l.1,3.1.3,9.2.3,9.3.09,2.9h58.81l.09-2.9.3-9.3.3-9.2.1-3.1h0ZM403.91,729h0,0ZM403.9,735h0,0ZM365.2,758.13c-13.71,0-16.5.23-17.72,2.93l-.04.09-.04.1c-.74,1.97-.45,9.5-.39,10.98l.3,8.38.1,2.86,2.86.03,26.8.3,26.81.2,3.12.02-.1-3.12-.3-9.7-.3-9.8-.09-2.88-2.88-.03-26.3-.3c-5-.05-8.76-.07-11.84-.07h0ZM406.8,789h-60v24h60v-24h0ZM363.85,826.13c-6.37,0-10.38.08-12.98.25-2.54.17-5.42.36-6.36,2.7l-.03.07-.02.07c-1.68,4.85-7.44,23.67-7.81,25.49l-.02.1v.1c-.43,3.15,2.82,4.95,4.97,6.13,2.62,1.45,6.87,3.46,15.16,7.2l18.81,8.4,1.22.55,1.22-.54,18.2-8.1c18.75-8.17,19.56-8.98,19.9-9.32,1.13-1.13,2.11-2.11-2.98-17.18l-4.39-13.47-.67-2.05-2.15-.02-29.1-.3c-5.32-.05-9.57-.07-12.98-.07h0Z"/>
    </g>
  </g>
</svg>