<?xml version="1.0" encoding="UTF-8" standalone="no"?>
<svg
   id="Layer_2"
   data-name="Layer 2"
   viewBox="0 0 753.77821 898.49314"
   version="1.1"
   width="753.7782"
   height="898.49316"
   xmlns="http://www.w3.org/2000/svg"
   xmlns:svg="http://www.w3.org/2000/svg">
  <defs
     id="defs1">
    <style
       id="style1">
      .cls-1, .cls-2 {
        stroke-width: 0px;
      }

      .cls-2 {
        fill: #fff;
      }
    </style>
  </defs>
  <g
     id="Layer_1-2"
     data-name="Layer 1"
     transform="translate(-0.00447147)">
    <path
       class="cls-2"
       d="m 151.41,630.9 c 0.01,-0.17 0.1,-0.28 0.25,-0.36 3.44,-1.75 6.87,-3.44 10.28,-5.1 0.41,-0.19 0.74,-0.47 1,-0.85 0.24,-0.33 0.46,-0.55 0.67,-0.67 3.41,-1.93 6.75,-3.76 10.04,-5.49 0.87,-0.45 1.32,-1.43 1.09,-2.39 -2.79,-11.81 -5.72,-23.97 -8.82,-36.48 -1.41,-5.73 -5.02,-16.86 -10.81,-33.38 -9.78,-27.89 -22.35,-52.77 -37.72,-74.69 -3.35,-4.78 -7.3,-10.04 -11.83,-15.76 -4.31,-5.45 -8.77,-10.4 -13.39,-14.85 -10.09,-9.73 -19.95,-17.73 -29.58,-23.99 -11.3,-7.35 -23.96,-13.33 -38,-17.92 -7.71,-2.53 -15.49,-4.92 -23.35,-7.16 -0.44,-0.12 -0.8,-0.44 -1,-0.85 -0.43,-0.9 -0.27,-1.6 0.47,-2.11 0.33,-0.21 0.61,-0.42 0.86,-0.61 25.11,-18.9 49.8,-37.52 74.03,-55.85 0.54,-0.41 0.53,-1.23 -0.03,-1.61 C 59.7,319.9 43.76,310.78 27.71,303.39 20.9,300.26 14.04,297.17 7.14,294.11 5.2,293.25 4.9,292 6.22,290.34 L 166,90.26 c 0.71,-0.89 1.95,-1.15 2.95,-0.61 2.82,1.49 5.68,3.1 8.59,4.83 3.76,2.23 9.99,5.51 18.72,9.86 34.61,17.2 70.12,27.62 107.72,31.39 6.18,0.43 19.5,2.1 26.9,2.07 6.16,-0.03 6.8,0.83 8.01,-5.69 5.45,-22.36 1.81,-12.81 9,-34.32 0.3,-0.89 4.66,-8.7 4.9,-9.55 2.2,-7.5 3.95,-9.39 6.71,-17.03 2.76,-7.63 5.56,-13.32 8,-18.84 3.03,-6.84 5.63,-17.89 8.29,-24.26 0.21,-0.52 5.94,0 6.16,0.52 6.24,14.01 2.41,8.05 7.74,22.45 1.09,2.94 1.27,5.96 2.32,9.29 1,3.19 2.19,10.72 3.35,13.94 1.33,3.69 3.05,8.96 4.13,12.65 1.92,6.61 2.67,10.32 4.65,16.77 3.78,13.38 3.9,18.33 7.7,28.24 2.88,7.51 10.37,5.93 21.7,4.93 8.91,-0.41 12.34,-0.69 17.68,-1.18 10.41,-1.34 17.87,-2.45 22.41,-3.32 23.25,-4.44 46.27,-11.49 69.06,-21.13 6.18,-2.62 12.89,-5.86 20.14,-9.73 7.57,-4.05 15.01,-8.1 22.31,-12.14 0.68,-0.38 1.53,-0.2 2.01,0.42 3.51,4.6 7.15,9.2 10.9,13.81 11.99,14.66 23.61,29.08 34.88,43.27 37.28,46.89 75.49,94.83 114.6,143.82 0.69,0.85 0.7,1.73 0.03,2.62 -0.17,0.23 -0.39,0.42 -0.67,0.53 -6.26,2.76 -12.49,5.57 -18.72,8.41 -17.56,8.04 -34.33,17.59 -50.31,28.64 -0.41,0.28 -0.54,0.8 -0.34,1.24 0.07,0.15 0.17,0.26 0.29,0.35 24.66,18.55 49.7,37.45 75.13,56.71 1.21,0.91 1.12,1.66 -0.29,2.22 -0.6,0.24 -1.18,0.45 -1.77,0.63 -8.27,2.51 -15.87,4.92 -22.81,7.21 -22.38,7.37 -42.19,19.02 -59.41,34.94 -7.39,6.82 -14.93,14.45 -21.28,22.34 -8.99,11.19 -16.99,23.07 -24.04,35.65 -6.51,11.63 -12.71,23.97 -17.67,36.31 -11.16,27.75 -19.88,56.46 -26.15,86.15 -0.37,1.75 0.2,3.06 1.7,3.9 10.16,5.74 20.2,11.37 30.1,16.88 1.03,0.58 1.51,1.79 1.16,2.91 -8.56,27.1 -17.61,54.75 -27.19,82.93 -0.18,0.54 -0.72,0.87 -1.27,0.8 -1.89,-0.23 -3.51,-0.47 -5.29,-1.27 -3.88,-1.75 -7.63,-3.37 -11.28,-4.87 -1.12,-0.46 -1.66,-0.09 -1.6,1.12 0.06,1.45 -0.43,14.69 -0.56,16.09 -0.41,4.45 -1,29.02 -1,35.03 -26.63,-3.13 -61.02,0.73 -75.33,3.53 -11.72,2.29 -22.97,5.64 -33.74,10.07 -10.61,4.38 -20.15,10.13 -29.13,17.01 -0.69,0.53 -1.04,1.25 -1.03,2.14 0.06,5.42 0.03,10.8 -0.05,16.16 -0.04,2.64 0.61,5.1 1.37,7.54 0.58,1.85 9.71,29.74 13.05,40.14 0.41,1.27 0.74,2.57 1.01,3.89 0.18,0.89 -0.15,1.52 -0.97,1.91 -19.36,8.84 -39.72,18.03 -61.07,27.57 -1.15,0.51 -2.41,0.45 -3.79,-0.17 -22.27,-10.12 -42.47,-19.18 -60.6,-27.2 -0.71,-0.32 -1.08,-1.11 -0.86,-1.85 l 2.27,-7.41 c 0.07,-0.23 0.18,-0.43 0.33,-0.6 0.26,-0.32 0.35,-0.7 0.27,-1.15 -0.06,-0.3 -0.01,-0.63 0.12,-0.91 0.38,-0.82 0.71,-1.69 0.98,-2.59 3.38,-11.19 6.89,-22.37 10.53,-33.55 0.76,-2.31 1.11,-4.6 1.06,-6.88 -0.09,-4.63 -0.1,-9.42 -0.03,-14.33 0.01,-1.09 -0.43,-1.95 -1.31,-2.59 -7.94,-5.81 -16.16,-11.21 -25.34,-15.27 -12.73,-5.63 -26.04,-9.69 -39.92,-12.19 -15.2,-3.11 -31.85,-4.1 -47.67,-4.57 -8.26,-0.09 -15.9,0.44 -25.21,1.31 0.18,-3.76 -0.74,-16.23 -0.95,-32.7 -0.37,-4.47 -0.52,-15.18 -0.6,-18.46 -0.02,-0.92 -0.97,-1.54 -1.83,-1.17 l -14.48,6.25 c -1.65,0.71 -2.74,0.21 -3.29,-1.49 l -24.29,-74.96 c -0.06,-0.19 -0.08,-0.39 -0.06,-0.6 0.06,-0.53 -0.09,-0.96 -0.45,-1.29 -0.15,-0.14 -0.26,-0.3 -0.32,-0.48 l -1.67,-5 c -0.33,-0.98 0.07,-2.05 0.94,-2.59 1.73,-1.07 3.62,-2.04 5.68,-2.9 0.54,-0.23 1.04,-0.52 1.48,-0.88 0.48,-0.39 0.98,-0.59 1.51,-0.58 0.28,0 0.43,-0.14 0.46,-0.42 z M 376.94,331.18 c 3.48,58.91 6.98,117.77 10.51,176.58 0.02,0.35 0.18,0.62 0.48,0.8 l 66.27,38.55 c 0.17,0.1 0.39,-0.02 0.38,-0.23 C 449.67,443.9 438.57,343.44 421.23,245.5 410.49,184.83 396.2,122.84 377.07,63.93 c -0.06,-0.17 -0.27,-0.21 -0.39,-0.09 -0.24,0.26 -0.42,0.55 -0.53,0.9 -23.12,72.53 -39.11,147.17 -50.91,222.22 -13.39,85.09 -22.17,171.68 -26.35,259.75 -0.01,0.44 0.17,0.54 0.54,0.32 l 66.23,-38.55 c 0.19,-0.11 0.32,-0.32 0.33,-0.53 3.55,-58.94 7.1,-117.88 10.65,-176.8 0.01,-0.08 0.06,-0.12 0.14,-0.12 v 0 c 0.1,0 0.16,0.05 0.17,0.15 z M 144.4,156.1 84.32,231.62 42.35,284.37 c -0.11,0.14 -0.08,0.33 0.07,0.42 14.03,8.65 27.49,18.22 40.38,28.7 16.18,13.14 30.97,27.7 44.35,43.67 27.1,32.22 45.45,68.99 52.67,109.43 0.02,0.12 -0.02,0.2 -0.15,0.24 h -0.01 c -0.12,0.03 -0.2,-0.02 -0.24,-0.15 -4.8,-17.3 -11.65,-33.75 -20.53,-49.37 -16,-27.3 -36.41,-50.82 -61.21,-70.59 -0.09,-0.08 -0.23,-0.08 -0.33,0 L 50.6,381.99 c -0.25,0.19 -0.2,0.58 0.08,0.71 29.31,13.71 54.11,33.25 74.39,58.64 11.78,14.75 21.78,29.8 29.96,45.16 19.72,36.99 33.16,77.38 41.76,118.39 0.07,0.32 0.43,0.48 0.71,0.33 l 50.01,-28.02 c 0.44,-0.25 0.65,-0.63 0.63,-1.14 -2.9,-69.45 -17.99,-139.31 -48.88,-200.63 -16.77,-33.29 -38.71,-64.34 -66.3,-89.41 -5.84,-5.15 -12.04,-9.7 -18.6,-13.61 -0.8,-0.48 -0.92,-1.11 -0.37,-1.86 l 27.05,-36.89 35.25,-47.62 c 0.24,-0.33 0.69,-0.44 1.05,-0.26 14.08,6.86 28.56,12.93 43.44,18.25 28.09,10.16 57.83,17.32 87.73,19.2 1.03,0.06 2.06,0.06 3.11,-0.01 0.39,-0.03 0.62,-0.24 0.7,-0.63 3.66,-19.34 7.93,-39.61 12.77,-60.85 0.11,-0.48 -0.26,-0.95 -0.76,-0.96 -36.29,-0.29 -71.91,-7.7 -105.76,-20.29 -15.45,-5.83 -30.38,-12.71 -44.78,-20.63 -0.26,-0.15 -0.5,-0.1 -0.69,0.14 l -28.71,36.1 z m 387.42,-14.51 c -32.59,11.91 -67.98,19.23 -102.79,19.16 -0.37,0 -0.53,0.19 -0.45,0.56 l 12.9,61.62 c 0.06,0.27 0.3,0.45 0.58,0.44 32.15,-1.51 64.51,-9.45 94.58,-20.73 13.32,-4.89 26.41,-10.48 39.25,-16.73 0.56,-0.27 1.24,-0.11 1.61,0.39 l 30,40.81 32.21,43.8 c 0.28,0.38 0.18,0.94 -0.24,1.2 -9.46,5.81 -18.16,12.7 -26.06,20.68 -15.42,15.42 -28.99,32.33 -40.75,50.77 -7.68,12.03 -14.66,24.48 -20.96,37.37 -9.52,19.6 -17.14,38.69 -22.86,57.27 -13.9,45.13 -21.65,91.27 -23.24,138.42 -0.01,0.21 0.08,0.37 0.27,0.47 l 50.25,28.28 c 0.17,0.1 0.39,0.03 0.48,-0.14 0.05,-0.09 0.09,-0.19 0.12,-0.32 6.71,-31.42 16.24,-61.88 28.59,-91.37 2.06,-4.19 4.07,-8.4 6.03,-12.62 12.12,-26.03 27.71,-49.62 46.74,-70.78 18.57,-20.24 40.17,-36.04 64.8,-47.4 0.32,-0.15 0.37,-0.59 0.09,-0.79 l -46.75,-35.17 c -0.23,-0.16 -0.52,-0.16 -0.73,0.01 -7.88,6.42 -15.36,13.28 -22.42,20.61 -20.9,20.78 -37.31,44.53 -49.27,71.23 -3.94,9.08 -7.13,18.4 -9.55,27.99 -0.05,0.17 -0.16,0.24 -0.34,0.19 h -0.01 c -0.17,-0.03 -0.24,-0.15 -0.2,-0.33 5.23,-28.03 15.34,-54.17 30.32,-78.41 4.32,-7 8.87,-13.67 13.66,-19.99 10.32,-13.53 21.59,-26.11 33.85,-37.73 5.4,-5.06 11.01,-10.02 16.81,-14.9 13.46,-11.29 27.71,-21.48 42.72,-30.56 0.28,-0.17 0.33,-0.38 0.11,-0.64 L 653.44,211.8 605.51,151.54 580.59,120.1 c -0.24,-0.3 -0.65,-0.38 -0.98,-0.2 -15.57,8.51 -31.5,15.73 -47.79,21.67 z M 425.37,623.12 c 2.72,27.82 -18.02,52.63 -46.13,54.15 -26.3,1.42 -49.38,-19.1 -51.2,-45.3 -1.58,-22.87 11.37,-42.75 33.03,-50.56 0.37,-0.14 0.55,-0.39 0.55,-0.79 v -41.49 c 0,-0.42 -0.44,-0.68 -0.8,-0.47 l -87.25,50.72 c -0.67,0.38 -0.88,1.25 -0.46,1.91 17.22,26.7 31.81,56.7 40.63,87.6 2.9,10.13 4.92,20.88 6.07,32.26 0.06,0.47 0.32,0.71 0.79,0.71 l 112.55,0.03 c 0.21,0 0.39,-0.16 0.42,-0.37 1.57,-15.11 4.89,-30.12 10,-45.03 8.77,-25.58 21.13,-50.77 37.07,-75.58 0.21,-0.34 0.12,-0.79 -0.2,-1.01 -1.38,-0.92 -2.74,-1.78 -4.09,-2.57 -26.99,-15.71 -54.93,-31.96 -83.85,-48.76 -0.26,-0.15 -0.59,0.03 -0.59,0.34 v 41.81 c -0.01,0.33 0.15,0.54 0.46,0.65 18.27,6.43 31.13,22.45 33.01,41.75 z m -189.02,20.65 c 0.33,-0.15 0.72,-0.07 0.97,0.19 l 16.64,17.46 c 0.18,0.18 0.44,0.24 0.68,0.15 l 23.49,-9.64 c 0.37,-0.15 0.54,-0.58 0.38,-0.94 -7.45,-16.59 -16.27,-32.87 -26.47,-48.85 -0.1,-0.16 -0.32,-0.2 -0.48,-0.11 l -81.32,45.66 c -0.34,0.19 -0.48,0.59 -0.37,0.96 l 13.49,41.64 c 0.11,0.34 0.48,0.51 0.81,0.37 l 13.66,-5.65 c 0.27,-0.11 0.45,-0.37 0.44,-0.67 l -0.83,-21.62 c -0.02,-0.73 0.29,-1.25 0.96,-1.56 l 37.96,-17.4 z m 319.75,18.89 -0.78,21.47 c -0.01,0.47 0.19,0.8 0.63,0.98 l 13.57,5.62 c 0.29,0.12 0.62,-0.03 0.72,-0.33 l 13.46,-41.8 c 0.1,-0.34 -0.03,-0.7 -0.34,-0.87 l -81.41,-45.72 c -0.16,-0.09 -0.36,-0.05 -0.46,0.11 -10,15.58 -18.87,31.89 -26.61,48.91 -0.15,0.32 0,0.7 0.33,0.82 l 23.6,9.71 c 0.26,0.1 0.5,0.06 0.69,-0.15 l 16.81,-17.54 c 0.21,-0.23 0.54,-0.28 0.81,-0.16 l 38.07,17.48 c 0.62,0.28 0.92,0.77 0.9,1.45 z M 402.24,628.03 c 0,-14.08 -11.41,-25.5 -25.5,-25.5 -14.09,0 -25.5,11.41 -25.5,25.5 0,14.09 11.41,25.5 25.5,25.5 14.09,0 25.5,-11.41 25.5,-25.5 z M 296.83,734.66 c 0.94,-20.56 -2.18,-40.75 -9.35,-60.59 -0.09,-0.23 -0.35,-0.34 -0.58,-0.25 l -37.81,15.63 c -0.46,0.19 -1,0.08 -1.35,-0.29 l -15.78,-16.63 c -0.34,-0.36 -0.73,-0.44 -1.17,-0.23 l -8.83,4.1 c -0.3,0.15 -0.45,0.38 -0.44,0.72 l 0.81,22.76 c 0.01,0.41 -0.23,0.78 -0.61,0.94 l -10.04,3.98 c -0.38,0.16 -0.62,0.54 -0.59,0.95 0.89,11.99 1.47,24.12 1.71,36.38 0.01,0.48 0.27,0.73 0.76,0.73 39.3,-0.17 81.36,7.26 114.79,27.45 0.51,0.3 0.76,0.16 0.76,-0.42 v -33.88 c -0.01,-0.37 -0.19,-0.55 -0.56,-0.55 h -30.97 c -0.53,-0.01 -0.78,-0.27 -0.76,-0.8 z m 159.11,0.79 H 424.9 c -0.41,0.01 -0.61,0.21 -0.61,0.62 l 0.09,34.28 c 0,0.28 0.11,0.35 0.35,0.2 34.24,-20.66 75.69,-27.65 115.51,-27.75 0.19,0 0.34,-0.15 0.35,-0.33 l 1.67,-36.36 c 0.03,-0.67 -0.25,-1.13 -0.87,-1.38 L 532,700.88 c -0.5,-0.2 -0.81,-0.7 -0.79,-1.23 l 0.87,-22.34 c 0.01,-0.42 -0.23,-0.8 -0.6,-0.98 l -8.81,-4.09 c -0.37,-0.17 -0.71,-0.11 -0.99,0.19 l -15.86,16.63 c -0.41,0.42 -1.01,0.55 -1.56,0.33 l -37.79,-15.65 c -0.17,-0.07 -0.36,0.01 -0.42,0.18 -4.61,13 -7.57,25.97 -8.86,38.9 -0.71,7.13 -0.46,14.73 -0.52,21.88 0,0.48 -0.25,0.73 -0.73,0.73 z m -55.17,0.53 c 0,-0.28 -0.24,-0.52 -0.52,-0.52 h -47.14 c -0.28,0 -0.52,0.24 -0.52,0.52 v 12.74 c 0,0.28 0.24,0.52 0.52,0.52 h 47.14 c 0.28,0 0.52,-0.24 0.52,-0.52 z m 0,29.52 c 0,-0.26 -0.21,-0.47 -0.47,-0.47 h -47.23 c -0.26,0 -0.47,0.21 -0.47,0.47 v 13.64 c 0,0.26 0.21,0.47 0.47,0.47 h 47.23 c 0.26,0 0.47,-0.21 0.47,-0.47 z m 0.02,30.26 c 0,-0.26 -0.2,-0.46 -0.46,-0.46 h -47.27 c -0.26,0 -0.46,0.2 -0.46,0.46 v 12.83 c 0,0.26 0.2,0.46 0.46,0.46 h 47.27 c 0.26,0 0.46,-0.2 0.46,-0.46 z m 3.42,37.5 c -0.09,-0.29 -0.37,-0.5 -0.69,-0.5 l -53.49,0.06 c -0.32,0 -0.6,0.2 -0.69,0.5 L 342,856.18 c -0.11,0.36 0.05,0.73 0.38,0.88 l 34.09,15.3 c 0.18,0.09 0.41,0.09 0.59,0 l 34.12,-15.29 c 0.33,-0.15 0.5,-0.52 0.38,-0.88 l -7.36,-22.93 z"
       id="path1" />
    <path
       class="cls-2"
       d="m 376.9,360.48 c -0.01,-0.11 0.04,-30.67 -0.07,-30.67 v 0 c -0.08,0 0.08,42.78 0.07,42.86 -3.71,61.71 -2.87,64.26 -10.15,122.83 -0.01,0.22 -0.14,0.44 -0.34,0.56 l -70.58,39.92 c -0.39,0.24 -0.58,0.13 -0.57,-0.33 4.38,-92.24 13.58,-162.85 27.6,-251.98 12.37,-78.6 29.11,-156.78 53.33,-232.75 0.12,-0.37 0.02,-3.86 0.27,-4.13 0.13,-0.13 2.04,0.77 2.1,0.95 20.03,61.7 33.61,128.96 44.85,192.5 18.15,102.58 29.79,187.72 34.93,295.58 0.01,0.21 -0.22,0.34 -0.4,0.24 l -78.56,-40.9 c -0.32,-0.19 -0.48,-0.47 -0.51,-0.84 -3.7,-61.59 1.68,-72.14 -1.97,-133.84 z"
       id="path2" />
    <path
       class="cls-1"
       d="m 607.6,382 c 20.9,-32 54.2,-64.8 90.2,-88.9 6.9,-4.6 12.4,-8.8 12.2,-9.3 -0.1,-0.6 -115.8,-146.4 -129.8,-163.7 -0.2,-0.2 -4.7,1.9 -10.1,4.7 -39.6,20.3 -86.9,33.4 -125.8,34.9 l -16.1,0.6 -4.8,-19.9 C 416.7,112.8 405.2,73 397.6,51 391,32.1 377.9,0 376.7,0 376.4,0 372.9,7.5 369,16.7 v 0 c -12.7,30 -26,72.4 -37.8,119.8 -3.1,12.6 -6,23.4 -6.5,23.9 -1.1,1.2 -29.5,-1 -43.8,-3.4 -32.9,-5.6 -68.2,-17.3 -97.4,-32.2 -5.4,-2.8 -9.9,-4.9 -10.1,-4.7 -0.2,0.2 -29.4,37 -64.9,81.6 -35.6,44.7 -64.8,81.7 -64.9,82.2 -0.2,0.5 3.9,3.7 9.1,7.1 62.6,41.2 106.7,96.9 122.7,154.9 4.3,15.7 4.3,17.2 -0.1,5.1 -8.6,-23.8 -24,-49.8 -41.7,-70.5 -8.9,-10.4 -23.9,-25.3 -31.9,-31.5 l -3.5,-2.9 -23.7,17.7 c -13,9.7 -23.6,17.9 -23.7,18.2 0,0.3 3.7,2.3 8.2,4.5 52.9,25.9 95.8,82 122,159.5 5.2,15.5 11.5,37.5 14.3,50.5 1,4.4 1.9,8.1 2,8.3 0.1,0.1 11.6,-6.2 25.6,-14.1 l 25.4,-14.3 -0.3,-8.5 c -0.2,-4.6 -1,-15.4 -1.8,-23.9 -8.6,-90.8 -37.1,-168.4 -83.5,-227.1 -10.5,-13.4 -31.3,-34 -40.7,-40.4 -4,-2.7 -7.1,-5.4 -6.8,-6 0.4,-1.2 59.1,-81.2 61,-83.3 1,-1 3,-0.4 10.1,2.9 22.5,10.4 48.7,19.5 72.7,25.4 15,3.7 38.1,7.5 45.8,7.5 7.3,0 7.4,0.2 5.2,12.4 -1.1,5.9 -2.1,10.8 -2.3,11 -0.7,0.7 -20.5,-1.4 -31.9,-3.5 -25,-4.3 -52,-12.2 -78.4,-22.8 -7.1,-2.8 -13,-5 -13.1,-4.9 -0.1,0.2 -8.6,11.6 -18.8,25.5 l -18.5,25.1 13.2,13.4 c 14.8,14.8 25.9,28.4 37.6,45.7 39.9,59.6 64.7,136 72.1,221.6 0.6,7.7 1.3,14.2 1.5,14.4 0.7,0.8 29.7,-15.2 65.9,-36.2 20.9,-12.2 38.6,-22.1 39.5,-22.1 0.8,0 18.7,10 39.8,22.2 36.4,21.2 64.9,36.9 65.6,36.1 0.2,-0.2 0.9,-6.7 1.5,-14.4 6.4,-74.2 26.5,-143.4 57.6,-198 15.4,-27.2 31.7,-48.9 52.1,-69.3 l 13.2,-13.4 -18.5,-25.1 c -10.2,-13.9 -18.7,-25.3 -18.8,-25.5 -0.1,-0.1 -6,2.1 -13.1,4.9 -34.1,13.6 -70.9,23.1 -99.9,25.8 -5.5,0.5 -10.2,0.7 -10.4,0.5 -0.4,-0.3 -4,-19 -4.1,-21.1 0,-0.7 2.3,-1.4 5.8,-1.8 40.1,-4.4 78.8,-15 116.7,-32.1 9.4,-4.3 12.2,-5.1 13.1,-4.1 1.9,1.9 60.6,82 61,83.2 0.3,0.6 -2.8,3.4 -6.8,6.2 -9.7,6.7 -22.2,18.5 -32.7,30.8 -47.6,55.4 -78.5,131.1 -89.6,219 -2.9,22.9 -4.8,48.6 -3.6,49.8 1,1 50.4,28.8 50.6,28.5 0,-0.2 2,-8.2 4.4,-17.8 24.1,-98.5 70.8,-168.6 133.4,-200.3 l 8.9,-4.5 -3.9,-3 c -2.1,-1.7 -12.8,-9.8 -23.7,-18.1 l -20,-15 -3.5,2.9 c -8,6.2 -23,21.1 -31.9,31.5 -17.5,20.5 -33.3,47.1 -41.7,70.5 -4.4,12.2 -4.4,10.6 -0.1,-5.1 5.9,-21.3 16.2,-43.7 29.4,-63.9 z m -162.8,35.5 c 4.8,48.1 8.9,105.5 7.6,105.5 -0.5,0 -65.9,-37.9 -66.2,-38.3 0,-0.1 -2,-33.5 -4.4,-74.2 -2.4,-40.7 -4.6,-74.3 -4.9,-74.7 -0.4,-0.4 -2.6,32.6 -5,73.5 -3.7,63 -5.04,70.12 -5.73,75.38 -2.6,2.5 -64.47,38.52 -65.17,37.82 -0.3,-0.3 0.2,-12.2 1.2,-26.3 10.8,-155.4 34.2,-298 67.3,-409 3.6,-12.2 6.9,-22.2 7.3,-22.2 0.4,0 1.4,2.4 2.2,5.2 14.9,50.4 20.4,71.5 29.2,111.3 15.9,72 28.1,150.6 36.6,236 z"
       id="path3" />
    <path
       class="cls-1"
       d="m 369,16.7 c -12.7,30 -26,72.4 -37.8,119.8 -3.1,12.6 -6,23.4 -6.5,23.9 -1.1,1.2 -29.5,-1 -43.8,-3.4 -32.9,-5.6 -68.2,-17.3 -97.4,-32.2 -5.4,-2.8 -9.9,-4.9 -10.1,-4.7 -0.2,0.2 -29.4,37 -64.9,81.6 -35.6,44.7 -64.8,81.7 -64.9,82.2 -0.2,0.5 3.9,3.7 9.1,7.1 62.6,41.2 106.7,96.9 122.7,154.9 4.3,15.7 4.3,17.2 -0.1,5.1 -8.6,-23.8 -24,-49.8 -41.7,-70.5 -8.9,-10.4 -23.9,-25.3 -31.9,-31.5 l -3.5,-2.9 -23.7,17.7 c -13,9.7 -23.6,17.9 -23.7,18.2 0,0.3 3.7,2.3 8.2,4.5 52.9,25.9 95.8,82 122,159.5 5.2,15.5 11.5,37.5 14.3,50.5 1,4.4 1.9,8.1 2,8.3 0.1,0.1 11.6,-6.2 25.6,-14.1 l 25.4,-14.3 -0.3,-8.5 c -0.2,-4.6 -1,-15.4 -1.8,-23.9 -8.6,-90.8 -37.1,-168.4 -83.5,-227.1 -10.5,-13.4 -31.3,-34 -40.7,-40.4 -4,-2.7 -7.1,-5.4 -6.8,-6 0.4,-1.2 59.1,-81.2 61,-83.3 1,-1 3,-0.4 10.1,2.9 22.5,10.4 48.7,19.5 72.7,25.4 15,3.7 38.1,7.5 45.8,7.5 7.3,0 7.4,0.2 5.2,12.4 -1.1,5.9 -2.1,10.8 -2.3,11 -0.7,0.7 -20.5,-1.4 -31.9,-3.5 -25,-4.3 -52,-12.2 -78.4,-22.8 -7.1,-2.8 -13,-5 -13.1,-4.9 -0.1,0.2 -8.6,11.6 -18.8,25.5 l -18.5,25.1 13.2,13.4 c 14.8,14.8 25.9,28.4 37.6,45.7 39.9,59.6 64.7,136 72.1,221.6 0.6,7.7 1.3,14.2 1.5,14.4 0.7,0.8 29.7,-15.2 65.9,-36.2 20.9,-12.2 38.6,-22.1 39.5,-22.1 0.8,0 18.7,10 39.8,22.2 36.4,21.2 64.9,36.9 65.6,36.1 0.2,-0.2 0.9,-6.7 1.5,-14.4 6.4,-74.2 26.5,-143.4 57.6,-198 15.4,-27.2 31.7,-48.9 52.1,-69.3 l 13.2,-13.4 -18.5,-25.1 c -10.2,-13.9 -18.7,-25.3 -18.8,-25.5 -0.1,-0.1 -6,2.1 -13.1,4.9 -34.1,13.6 -70.9,23.1 -99.9,25.8 -5.5,0.5 -10.2,0.7 -10.4,0.5 -0.4,-0.3 -4,-19 -4.1,-21.1 0,-0.7 2.3,-1.4 5.8,-1.8 40.1,-4.4 78.8,-15 116.7,-32.1 9.4,-4.3 12.2,-5.1 13.1,-4.1 1.9,1.9 60.6,82 61,83.2 0.3,0.6 -2.8,3.4 -6.8,6.2 -9.7,6.7 -22.2,18.5 -32.7,30.8 -47.6,55.4 -78.5,131.1 -89.6,219 -2.9,22.9 -4.8,48.6 -3.6,49.8 1,1 50.4,28.8 50.6,28.5 0,-0.2 2,-8.2 4.4,-17.8 24.1,-98.5 70.8,-168.6 133.4,-200.3 l 8.9,-4.5 -3.9,-3 c -2.1,-1.7 -12.8,-9.8 -23.7,-18.1 l -20,-15 -3.5,2.9 c -8,6.2 -23,21.1 -31.9,31.5 -17.5,20.5 -33.3,47.1 -41.7,70.5 -4.4,12.2 -4.4,10.6 -0.1,-5.1 5.9,-21.3 16.2,-43.7 29.4,-63.9 20.9,-32 54.2,-64.8 90.2,-88.9 6.9,-4.6 12.4,-8.8 12.2,-9.3 -0.1,-0.6 -115.8,-146.4 -129.8,-163.7 -0.2,-0.2 -4.7,1.9 -10.1,4.7 -39.6,20.3 -86.9,33.4 -125.8,34.9 l -16.1,0.6 -4.8,-19.9 C 416.7,112.8 405.2,73 397.6,51 391,32.1 377.9,0 376.7,0 376.4,0 372.9,7.5 369,16.7 Z m 10,53.5 c 14.9,50.4 20.4,71.5 29.2,111.3 15.9,72 28.1,150.6 36.6,236 4.8,48.1 8.9,105.5 7.6,105.5 -0.5,0 -65.9,-37.9 -66.2,-38.3 0,-0.1 -2,-33.5 -4.4,-74.2 -2.4,-40.7 -4.6,-74.3 -4.9,-74.7 -0.4,-0.4 -2.6,32.6 -5,73.5 -3.7,63 -2.95,67.85 -4.24,77.6 -2.6,2.5 -65.96,36.3 -66.66,35.6 -0.3,-0.3 0.2,-12.2 1.2,-26.3 10.8,-155.4 34.2,-298 67.3,-409 3.6,-12.2 6.9,-22.2 7.3,-22.2 0.4,0 1.4,2.4 2.2,5.2 z"
       id="path4" />
    <g
       id="g6">
      <path
         class="cls-1"
         d="m 376.8,714.5 c -16.2,0 -31,-0.08 -41.67,-0.21 -5.49,-0.07 -9.77,-0.16 -12.72,-0.25 -5.18,-0.17 -6.11,-0.2 -6.11,-1.83 -0.03,-0.5 -0.73,-5.27 -1.4,-9.88 l -0.09,-0.61 c -4.68,-30.64 -19.45,-67.48 -41.6,-103.73 l -5.72,-9.5 3.54,-2.5 c 1.34,-0.93 21.9,-13.13 46.51,-27.47 38.38,-22.36 43.99,-25.42 45.2,-25.84 v -0.02 c 0,0 0.17,-0.04 0.17,-0.04 h 0.19 c 1.77,0 2.19,0 2.19,25.7 v 25.36 l -4.7,1.65 c -9.09,3.25 -18.4,11.64 -23.16,20.87 -7.02,13.63 -6.98,29.05 0.12,42.32 7.08,13.23 19.84,21.8 35.01,23.5 1.44,0.17 2.92,0.25 4.38,0.25 18.61,0 36.89,-13.67 42.52,-31.81 6.84,-21.87 -5.48,-47.63 -26.38,-55.14 l -4.79,-1.64 v -25.47 c 0,-9.71 0.08,-15.37 0.26,-18.95 0.2,-4.01 0.43,-6.47 2.44,-6.47 0.22,0 0.45,0.04 0.66,0.13 2.19,0.92 87.97,51 90.91,53.07 l 3.53,2.5 -7.71,12.99 c -17.52,29.5 -28.36,54 -35.14,79.42 -2.51,9.21 -5.95,27.87 -5.95,31.31 0,1.63 -0.93,1.67 -6.1,1.83 -2.95,0.1 -7.22,0.18 -12.69,0.25 -10.66,0.14 -25.47,0.21 -41.71,0.21 z m 193.9,-20 c -1.09,0 -8.43,-3.1 -9.89,-3.72 l -9.51,-3.98 v -23.54 l -14.33,-6.7 c -4.18,-1.94 -8.26,-3.81 -11.47,-5.28 -3.27,-1.5 -5.63,-2.58 -6.36,-2.94 -0.4,-0.18 -0.67,-0.27 -0.86,-0.27 -1.07,0 -3.93,2.85 -8.91,7.88 l -9.72,9.72 -14.63,-6.09 c -14.72,-6.01 -14.72,-7.43 -14.72,-8.29 0,-2.8 15.81,-32.82 21.81,-42.87 7.43,-11.93 7.65,-11.93 8.69,-11.93 h 0.14 c 0.38,0.04 1.16,0.11 43.49,24.12 42.6,24.16 42.69,24.49 42.91,25.27 0.13,0.51 0.34,1.36 -6.99,24.02 -2.72,8.42 -7.44,22.72 -8.41,23.96 l -0.45,0.58 -0.79,0.05 z m -388.84,-0.08 -0.52,-0.46 c -0.33,-0.33 -0.57,-0.57 -8.17,-24.3 l -7.98,-24.36 14.28,-8 c 7.87,-4.48 30.07,-16.96 42.6,-24 29.89,-16.79 30.21,-16.79 30.73,-16.79 0.98,0 2.32,0 16.53,26.17 3.28,6.03 13.97,25.94 13.97,28.73 0,1.02 0,1.98 -14.92,8.18 l -14.85,5.98 -9.4,-9.73 c -4.72,-4.89 -7.57,-7.84 -8.58,-7.84 -0.22,0 -0.55,0.14 -0.99,0.35 -1.41,0.6 -9.37,4.24 -17.81,8.21 l -14.44,6.7 v 23.44 l -9.92,4.19 c -1.41,0.59 -8.49,3.54 -9.91,3.54 h -0.62 z"
         id="path5" />
      <path
         class="cls-1"
         d="m 363.11,534.1 c 0.4,0 0.69,10.86 0.69,24.2 v 24.3 l -3.7,1.3 c -9.5,3.4 -19.1,12.1 -24,21.6 -15.2,29.5 3.4,64.3 36.3,68 1.51,0.18 3.03,0.26 4.55,0.26 19.2,0 38.02,-13.77 43.95,-32.86 7.1,-22.7 -5.6,-49.2 -27.3,-57 l -3.8,-1.3 v -24.4 c 0,-18.44 0.28,-23.92 1.2,-23.92 0.03,0 0.07,0 0.1,0.02 1.9,0.8 87.9,51 90.6,52.9 l 2.4,1.7 -7,11.8 c -17.7,29.8 -28.5,54.3 -35.3,79.8 -2.4,8.8 -6,27.9 -6,31.7 0,0.5 -26.5,0.8 -59,0.8 -32.5,0 -59,-0.3 -59,-0.8 0,-0.4 -0.7,-5.2 -1.5,-10.7 -4.7,-30.8 -19.5,-67.8 -41.8,-104.3 l -5,-8.3 2.4,-1.7 c 1.3,-0.9 22.2,-13.3 46.4,-27.4 24.2,-14.1 44.3,-25.7 44.8,-25.7 0,0 0,0 0,0 M 500.8,598 c 1.1,0.1 84.9,47.6 85.1,48.3 0.3,1.2 -14.4,46.7 -15.2,46.7 -0.4,0 -4.6,-1.6 -9.3,-3.6 l -8.6,-3.6 v -23.5 l -15.2,-7.1 c -8.4,-3.9 -16.4,-7.5 -17.8,-8.2 -0.56,-0.26 -1.03,-0.43 -1.53,-0.43 -1.62,0 -3.54,1.82 -9.97,8.33 l -9,9 -13.7,-5.7 c -7.6,-3.1 -13.8,-6.2 -13.8,-6.9 0,-2 14.5,-30.2 21.6,-42.1 3.8,-6.1 7.1,-11.2 7.4,-11.2 m -248,0 c 1.9,0 29,49.9 29,53.4 0,0.6 -6.3,3.6 -14,6.8 l -13.9,5.6 -8.7,-9 c -6.24,-6.47 -8.07,-8.3 -9.66,-8.3 -0.52,0 -1.02,0.2 -1.64,0.5 -1.4,0.6 -9.5,4.3 -17.8,8.2 l -15.3,7.1 v 23.4 l -9,3.8 c -4.7,1.97 -8.69,3.42 -9.32,3.42 -0.04,0 -0.07,0 -0.08,-0.02 -0.2,-0.2 -3.7,-10.9 -7.8,-23.7 L 167,646 l 13.2,-7.4 c 7.2,-4.1 26.4,-14.9 42.6,-24 16.2,-9.1 29.7,-16.6 30,-16.6 m 110.31,-66.9 h -0.33 l -0.09,0.02 c -0.93,0.13 -2.62,1.06 -14.59,7.94 -7.61,4.37 -18.43,10.65 -31.3,18.15 -22.84,13.31 -45.09,26.48 -46.6,27.53 l -2.43,1.72 -2.27,1.61 1.44,2.39 5,8.3 c 22.06,36.1 36.76,72.75 41.4,103.2 l 0.07,0.46 c 0.62,4.28 1.33,9.11 1.4,9.9 0.08,2.78 3.02,2.99 3.99,3.05 0.81,0.06 2.02,0.11 3.57,0.16 2.96,0.1 7.25,0.18 12.75,0.25 10.68,0.14 25.48,0.21 41.69,0.21 16.21,0 31.06,-0.08 41.73,-0.21 5.49,-0.07 9.77,-0.16 12.72,-0.25 1.55,-0.05 2.75,-0.11 3.56,-0.16 0.99,-0.07 3.99,-0.28 3.99,-3.17 0,-3.28 3.47,-22 5.89,-30.91 6.75,-25.3 17.54,-49.68 34.99,-79.06 l 7,-11.8 1.41,-2.38 -2.26,-1.6 -2.4,-1.7 c -2.95,-2.08 -89,-52.3 -91.17,-53.22 -0.44,-0.18 -0.85,-0.26 -1.27,-0.26 -3.54,0 -3.75,4.19 -3.94,7.9 -0.18,3.6 -0.26,9.29 -0.26,19.02 v 26.54 l 2.03,0.69 3.8,1.3 c 20.12,7.23 32.02,32.13 25.41,53.27 -5.45,17.54 -23.11,30.76 -41.09,30.76 -1.41,0 -2.82,-0.08 -4.2,-0.24 -14.68,-1.65 -27.02,-9.93 -33.87,-22.72 -6.87,-12.82 -6.91,-27.74 -0.11,-40.93 4.6,-8.91 13.58,-17.01 22.34,-20.15 l 3.68,-1.29 2.01,-0.7 v -26.43 c 0,-6.54 -0.07,-12.64 -0.2,-17.19 -0.06,-2.27 -0.14,-4.06 -0.23,-5.31 -0.11,-1.64 -0.32,-4.7 -3.27,-4.7 v 0 z M 500.94,595 h -0.14 c -1.83,0 -2.54,1.08 -4.9,4.67 -1.28,1.95 -3.03,4.7 -5.05,7.95 l -0.02,0.02 v 0.02 c -3.3,5.51 -8.62,15.29 -13.57,24.93 -8.47,16.49 -8.47,17.88 -8.47,18.71 0,2.15 1.74,3.25 5.71,5.23 2.68,1.34 6.21,2.92 9.96,4.44 l 13.68,5.69 1.85,0.77 1.42,-1.42 9,-9 c 3.15,-3.19 6.69,-6.77 7.88,-7.4 0.05,0.02 0.12,0.05 0.21,0.09 0.8,0.4 3.04,1.42 6.38,2.95 3.24,1.48 7.28,3.33 11.45,5.26 l 13.46,6.29 v 23.59 l 1.84,0.77 8.6,3.6 c 9.01,3.83 10.06,3.83 10.46,3.83 0.94,0 1.83,-0.44 2.42,-1.2 0.35,-0.45 1.28,-1.63 8.65,-24.43 7.47,-23.07 7.27,-23.83 7.03,-24.8 v -0.05 c 0,0 -0.03,-0.05 -0.03,-0.05 -0.36,-1.28 -0.63,-1.43 -5.03,-4.03 -2.24,-1.32 -5.46,-3.2 -9.59,-5.57 -7.58,-4.37 -17.88,-10.25 -29,-16.56 -10.98,-6.23 -21.34,-12.07 -29.17,-16.44 -13.9,-7.77 -14.07,-7.78 -14.92,-7.86 h -0.14 z m -248.14,0 q -0.99,0 -10.49,5.26 c -5.33,2.95 -12.58,7.01 -20.98,11.72 -12.51,7.03 -34.67,19.49 -42.62,24.01 l -13.18,7.39 -2.15,1.21 0.77,2.34 7.6,23.2 c 7.71,24.07 7.87,24.22 8.53,24.89 0.58,0.58 1.36,0.9 2.2,0.9 1.19,0 4.71,-1.23 10.48,-3.65 l 9.01,-3.8 1.83,-0.77 v -23.47 l 13.56,-6.29 c 8.43,-3.96 16.37,-7.59 17.72,-8.16 l 0.06,-0.03 0.06,-0.03 c 0.13,-0.06 0.22,-0.1 0.3,-0.14 1.14,0.68 4.26,3.91 7.55,7.32 l 8.7,9 1.4,1.45 1.87,-0.76 13.9,-5.6 c 3.9,-1.62 7.47,-3.2 10.07,-4.46 3.92,-1.89 5.81,-2.9 5.81,-5.13 0,-0.82 0,-1.95 -4.58,-11.16 -2.5,-5.03 -5.9,-11.53 -9.57,-18.29 -3.67,-6.76 -7.2,-13.03 -9.94,-17.64 -5.05,-8.52 -5.95,-9.32 -7.91,-9.32 v 0 z"
         id="path6" />
    </g>
    <g
       id="g8">
      <path
         class="cls-1"
         d="m 357.39,866.87 c -17.27,-7.78 -19.62,-9.21 -19.28,-11.77 0.34,-1.72 5.95,-20.12 7.77,-25.39 0.64,-1.6 1.61,-2.08 17.96,-2.08 3.58,0 7.86,0.02 12.97,0.07 l 30.18,0.31 4.73,14.52 c 4.79,14.17 3.84,15.12 3.33,15.62 -0.88,0.88 -15.12,7.12 -19.46,9.01 l -18.8,8.37 -19.41,-8.67 z M 348.3,811.5 v -21 h 57 v 21 z m 28.79,-29.2 -28.24,-0.32 -0.35,-9.83 c -0.13,-2.97 -0.23,-8.97 0.29,-10.38 l 0.04,-0.09 c 0.74,-1.63 2.45,-2.05 16.35,-2.05 3.24,0 7.14,0.02 11.83,0.07 l 27.74,0.32 0.69,22.5 -28.36,-0.21 z m 43.21,-51.8 h 32 v -5.8 c 0,-13.65 2.9,-30.82 8.16,-48.33 1.5,-4.9 2.33,-7.6 4.91,-7.6 0.36,0 0.74,0.06 1.21,0.18 1.29,0.35 10.76,4.12 20.29,8.06 l 17.04,7.1 7.59,-8.14 9.02,-9.78 4.18,1.83 c 1.75,0.68 4.83,2.1 6.85,3.28 l 4.25,2.31 v 23.65 l 4.42,1.64 6.37,2.4 -0.7,8.23 c -0.32,4.16 -0.9,13.32 -1.2,20.63 l -0.77,14.97 -14.95,0.77 c -42.09,2.19 -75.17,10.83 -101.11,26.39 l -7.57,4.57 V 730.5 Z m -94.46,41.69 c -26.32,-15.5 -59.43,-24.1 -101.21,-26.29 l -15.06,-0.77 -0.66,-15.97 c -0.31,-6.12 -0.87,-16.94 -1.2,-20.53 l -0.71,-7.12 6.46,-2.51 4.37,-1.81 0.6,-24.24 14.21,-6.88 17.04,18.05 18.04,-7.5 c 12.85,-5.38 19.81,-8.12 20.68,-8.12 1.07,0 2.08,0 5.11,9.72 1.71,5.48 3.49,12.39 4.76,18.48 1.09,5.17 2.32,15.23 2.73,22.42 l 0.53,11.39 h 31.77 v 46.14 l -7.47,-4.45 z m 23.01,-20.19 -0.7,-21.5 h 57.3 l -0.7,21.5 z m 27.95,-95.5 c -8.36,0 -16.35,-3.59 -21.93,-9.85 -5.51,-6.19 -8.12,-14.4 -7.16,-22.52 1.37,-11.97 8.44,-20.7 20.46,-25.23 1.86,-0.71 5.04,-1.15 8.3,-1.15 0.65,0 1.29,0.02 1.92,0.05 11.36,0.73 21.09,7.69 25.42,18.15 4.3,10.38 2.35,22.09 -5.08,30.54 -6.08,6.83 -13.05,10.01 -21.93,10.01 z"
         id="path7" />
      <path
         class="cls-1"
         d="m 376.47,599.25 c 0.62,0 1.23,0.02 1.83,0.05 23.2,1.5 34.6,28.8 19.3,46.2 -5.7,6.4 -12.3,9.5 -20.8,9.5 -16.6,0 -29.5,-14.5 -27.6,-30.7 1.3,-11.4 8.1,-19.7 19.5,-24 1.74,-0.66 4.78,-1.05 7.77,-1.05 m -144.17,68.65 8.5,9 8.5,9 19,-7.9 c 10.5,-4.4 19.5,-8 20.1,-8 1.3,0 5.7,14.1 8.4,27 1.1,5.2 2.3,15.2 2.7,22.2 l 0.6,12.8 h 31.7 v 42 l -5.2,-3.1 c -26.5,-15.6 -60,-24.3 -101.9,-26.5 l -13.7,-0.7 -0.6,-14.6 c -0.4,-8 -0.9,-17.3 -1.2,-20.6 l -0.6,-6 5.4,-2.1 5.3,-2.2 0.3,-12.1 0.3,-12.2 6.2,-3 6.2,-3 m 288.6,0.1 3.2,1.4 c 1.8,0.7 4.8,2.1 6.7,3.2 l 3.5,1.9 v 23.8 l 5.4,2 5.3,2 -0.6,7.1 c -0.3,3.9 -0.9,13.2 -1.2,20.7 l -0.7,13.6 -13.6,0.7 c -42.2,2.2 -75.8,11 -101.8,26.6 l -5.3,3.2 V 732 h 32 v -7.3 c 0,-13.6 2.9,-30.6 8.1,-47.9 1.59,-5.2 2.2,-6.53 3.48,-6.53 0.25,0 0.52,0.05 0.82,0.13 1.1,0.3 10.2,3.9 20.1,8 l 18,7.5 8.3,-8.9 8.3,-9 m -117,64 v 0 m 0,0 -0.3,9.2 -0.3,9.3 h -53 l -0.3,-9.3 -0.3,-9.2 h 54.2 m -38.7,29.13 c 3.23,0 7.13,0.02 11.81,0.07 l 26.3,0.3 0.3,9.8 0.3,9.7 -26.8,-0.2 -26.8,-0.3 -0.3,-8.4 c -0.2,-4.6 -0.1,-9 0.2,-9.8 0.39,-0.86 3.52,-1.17 14.99,-1.17 M 403.8,792 v 18 h -54 v -18 h 54 m -39.95,37.13 c 3.57,0 7.85,0.02 12.95,0.07 l 29.1,0.3 4.4,13.5 c 2.5,7.4 4.1,13.7 3.7,14.1 -0.4,0.4 -8.9,4.3 -19,8.7 l -18.2,8.1 -18.8,-8.4 c -15.1,-6.8 -18.6,-8.7 -18.4,-10.2 0.3,-1.5 5.9,-19.9 7.7,-25.1 0.31,-0.78 4.23,-1.07 16.55,-1.07 m 12.62,-232.88 c -3.48,0 -6.78,0.47 -8.83,1.25 -12.57,4.74 -19.98,13.89 -21.41,26.46 -1,8.54 1.74,17.17 7.53,23.68 5.85,6.58 14.25,10.36 23.05,10.36 8.8,0 16.74,-3.44 23.04,-10.5 7.83,-8.9 9.87,-21.2 5.35,-32.12 -4.55,-10.99 -14.78,-18.3 -26.7,-19.07 -0.67,-0.04 -1.34,-0.06 -2.03,-0.06 z m -143.49,67.99 -1.98,0.96 -6.2,3 -6.2,3 -1.65,0.8 -0.04,1.83 -0.3,12.2 -0.25,10.15 -3.47,1.44 -5.37,2.09 -2.12,0.83 0.23,2.27 0.6,6 c 0.24,2.61 0.66,9.89 1.19,20.45 l 0.6,14.57 0.11,2.73 2.73,0.14 13.7,0.7 c 41.53,2.18 74.41,10.71 100.53,26.09 l 5.19,3.09 4.54,2.7 V 729 h -31.84 l -0.47,-9.94 c -0.42,-7.29 -1.65,-17.45 -2.76,-22.68 -1.3,-6.22 -3.05,-13 -4.8,-18.61 -2.87,-9.21 -4.15,-10.77 -6.54,-10.77 -0.6,0 -1.61,0 -21.26,8.23 l -17.08,7.1 -7.08,-7.5 -8.5,-9 -1.51,-1.6 v 0 z m 287.17,0.15 -1.45,1.57 -8.3,9 -6.87,7.36 -16.07,-6.7 c -8.69,-3.6 -18.98,-7.72 -20.46,-8.12 -0.62,-0.16 -1.12,-0.24 -1.61,-0.24 -3.69,0 -4.75,3.44 -6.35,8.65 -5.31,17.67 -8.23,34.98 -8.23,48.78 v 4.3 h -32 v 50.52 l 4.55,-2.75 5.3,-3.2 c 25.71,-15.43 58.56,-23.99 100.41,-26.17 l 13.6,-0.7 2.7,-0.14 0.14,-2.7 0.7,-13.6 c 0.29,-7.32 0.88,-16.46 1.2,-20.62 l 0.6,-7.08 0.19,-2.26 -2.12,-0.8 -5.3,-2 -3.46,-1.28 v -23.5 l -1.57,-0.85 -3.46,-1.88 c -2.06,-1.19 -5.17,-2.63 -7.03,-3.36 l -3.14,-1.37 -1.96,-0.86 v 0 z M 407,729 h -60.4 l 0.1,3.1 0.3,9.2 0.3,9.3 0.09,2.9 h 58.81 l 0.09,-2.9 0.3,-9.3 0.3,-9.2 0.1,-3.1 v 0 z m -3.09,0 z m -0.01,6 z m -38.7,23.13 c -13.71,0 -16.5,0.23 -17.72,2.93 l -0.04,0.09 -0.04,0.1 c -0.74,1.97 -0.45,9.5 -0.39,10.98 l 0.3,8.38 0.1,2.86 2.86,0.03 26.8,0.3 26.81,0.2 3.12,0.02 -0.1,-3.12 -0.3,-9.7 -0.3,-9.8 -0.09,-2.88 -2.88,-0.03 -26.3,-0.3 c -5,-0.05 -8.76,-0.07 -11.84,-0.07 v 0 z M 406.8,789 h -60 v 24 h 60 z m -42.95,37.13 c -6.37,0 -10.38,0.08 -12.98,0.25 -2.54,0.17 -5.42,0.36 -6.36,2.7 l -0.03,0.07 -0.02,0.07 c -1.68,4.85 -7.44,23.67 -7.81,25.49 l -0.02,0.1 v 0.1 c -0.43,3.15 2.82,4.95 4.97,6.13 2.62,1.45 6.87,3.46 15.16,7.2 l 18.81,8.4 1.22,0.55 1.22,-0.54 18.2,-8.1 c 18.75,-8.17 19.56,-8.98 19.9,-9.32 1.13,-1.13 2.11,-2.11 -2.98,-17.18 l -4.39,-13.47 -0.67,-2.05 -2.15,-0.02 -29.1,-0.3 c -5.32,-0.05 -9.57,-0.07 -12.98,-0.07 v 0 z"
         id="path8" />
    </g>
  </g>
</svg>
