<?xml version="1.0" encoding="UTF-8"?>
<svg id="Layer_2" data-name="Layer 2" xmlns="http://www.w3.org/2000/svg" xmlns:xlink="http://www.w3.org/1999/xlink" viewBox="0 0 668.46 798.07">
  <defs>
    <style>
      .cls-1 {
        fill: url(#linear-gradient);
      }

      .cls-1, .cls-2, .cls-3, .cls-4 {
        stroke-width: 0px;
      }

      .cls-3 {
        fill: #be371a;
      }

      .cls-4 {
        fill: #fff;
      }
    </style>
    <linearGradient id="linear-gradient" x1="37.49" y1="441.27" x2="630.77" y2="441.27" gradientUnits="userSpaceOnUse">
      <stop offset="0" stop-color="#c03726"/>
      <stop offset=".09" stop-color="#cc4c23"/>
      <stop offset=".27" stop-color="#e27320"/>
      <stop offset=".41" stop-color="#ef8c1d"/>
      <stop offset=".5" stop-color="#f5951d"/>
      <stop offset=".59" stop-color="#ef8c1d"/>
      <stop offset=".73" stop-color="#e27320"/>
      <stop offset=".91" stop-color="#cc4c23"/>
      <stop offset="1" stop-color="#c03726"/>
    </linearGradient>
  </defs>
  <g id="Layer_1-2" data-name="Layer 1">
    <path class="cls-2" d="M134.27,560.81c0-.15.09-.25.22-.32,3.05-1.55,6.09-3.05,9.12-4.52.36-.17.66-.42.89-.75.21-.29.41-.49.59-.59,3.02-1.71,5.99-3.33,8.9-4.87.77-.4,1.17-1.27.97-2.12-2.47-10.47-5.07-21.26-7.82-32.35-1.25-5.08-4.45-14.95-9.59-29.6-8.67-24.73-19.82-46.8-33.45-66.23-2.97-4.24-6.47-8.9-10.49-13.98-3.82-4.83-7.78-9.22-11.87-13.17-8.95-8.63-17.69-15.72-26.23-21.27-10.02-6.52-21.25-11.82-33.7-15.89-6.84-2.24-13.74-4.36-20.71-6.35-.39-.11-.71-.39-.89-.75-.38-.8-.24-1.42.42-1.87.29-.19.54-.37.76-.54,22.27-16.76,44.16-33.27,65.65-49.53.48-.36.47-1.09-.03-1.43-14.07-9.65-28.21-17.74-42.44-24.29-6.04-2.78-12.12-5.52-18.24-8.23-1.72-.76-1.99-1.87-.82-3.34L147.21,81.37c.63-.79,1.73-1.02,2.62-.54,2.5,1.32,5.04,2.75,7.62,4.28,3.33,1.98,8.86,4.89,16.6,8.74,30.69,15.25,62.18,24.5,95.52,27.84,5.48.38,10.53.71,17.1.68,5.46-.03,7.23-.35,8.3-6.14,4.83-19.83,10.43-39.28,16.81-58.36.27-.79.51-1.55.73-2.3,1.95-6.65,4.15-13.37,6.6-20.15,2.45-6.77,4.75-12.6,6.91-17.49,2.69-6.07,5.21-11.92,7.57-17.57.19-.46.85-.48,1.05-.02,5.53,12.42,10.67,25.02,15.4,37.79.97,2.61,1.91,5.39,2.84,8.34.89,2.83,1.85,5.68,2.88,8.53,1.18,3.27,2.25,6.54,3.21,9.81,1.71,5.86,3.48,11.83,5.23,17.55,3.35,11.86,6.33,22.93,8.63,32.05,1.56,7.85,5.61,8.45,13.01,8.18,4.69-.02,9.58-.49,14.31-.92,9.23-1.19,15.85-2.17,19.87-2.94,20.62-3.94,41.03-10.19,61.24-18.74,5.48-2.32,11.43-5.2,17.86-8.63,6.71-3.59,13.31-7.18,19.78-10.77.6-.34,1.36-.18,1.78.37,3.11,4.08,6.34,8.16,9.67,12.25,10.63,13,20.94,25.79,30.93,38.37,33.06,41.58,66.94,84.09,101.63,127.54.61.75.62,1.53.03,2.32-.15.2-.35.37-.59.47-5.55,2.45-11.08,4.94-16.6,7.46-15.57,7.13-30.44,15.6-44.61,25.4-.36.25-.48.71-.3,1.1.06.13.15.23.26.31,21.87,16.45,44.07,33.21,66.62,50.29,1.07.81.99,1.47-.26,1.97-.53.21-1.05.4-1.57.56-7.33,2.23-14.07,4.36-20.23,6.39-19.85,6.54-37.41,16.87-52.68,30.98-6.55,6.05-13.24,12.81-18.87,19.81-7.97,9.92-15.07,20.46-21.32,31.61-5.77,10.31-11.27,21.26-15.67,32.2-9.9,24.61-17.63,50.07-23.19,76.4-.33,1.55.18,2.71,1.51,3.46,9.01,5.09,17.91,10.08,26.69,14.97.91.51,1.34,1.59,1.03,2.58-7.59,24.03-15.62,48.55-24.11,73.54-.16.48-.64.77-1.13.71-1.68-.2-3.11-.42-4.69-1.13-3.44-1.55-6.77-2.99-10-4.32-.99-.41-1.47-.08-1.42.99.05,1.29-.38,13.03-.5,14.27-.37,3.95-.89,25.73-.89,31.06-23.61-2.78-54.11.64-66.8,3.13-10.39,2.03-20.37,5-29.92,8.93-9.41,3.88-17.87,8.98-25.83,15.08-.61.47-.92,1.11-.91,1.9.05,4.81.03,9.58-.04,14.33-.03,2.34.54,4.52,1.22,6.68.51,1.64,8.61,26.38,11.57,35.6.36,1.13.66,2.28.9,3.45.16.79-.13,1.35-.86,1.69-17.17,7.84-35.22,15.99-54.16,24.45-1.02.45-2.14.4-3.36-.15-19.75-8.97-37.66-17.01-53.74-24.12-.63-.28-.96-.98-.76-1.64l2.01-6.57c.06-.2.16-.38.29-.53.23-.28.31-.62.24-1.02-.05-.27-.01-.56.11-.81.34-.73.63-1.5.87-2.3,3-9.92,6.11-19.84,9.34-29.75.67-2.05.98-4.08.94-6.1-.08-4.11-.09-8.35-.03-12.71.01-.97-.38-1.73-1.16-2.3-7.04-5.15-14.33-9.94-22.47-13.54-11.29-4.99-23.09-8.59-35.4-10.81-13.48-2.76-28.24-3.63-42.27-4.06-7.32-.08-14.1.39-22.36,1.16.16-3.33-.66-14.39-.84-29-.33-3.96-.46-13.46-.53-16.37-.02-.82-.86-1.37-1.62-1.04l-12.84,5.54c-1.46.63-2.43.19-2.92-1.32l-21.54-66.47c-.05-.17-.07-.35-.05-.53.05-.47-.08-.85-.4-1.14-.13-.12-.23-.27-.28-.43l-1.48-4.43c-.29-.87.06-1.82.83-2.3,1.53-.95,3.21-1.81,5.04-2.57.48-.2.92-.46,1.31-.78.43-.35.87-.52,1.34-.51.25,0,.38-.12.41-.37ZM334.27,295.02c3.09,52.24,6.19,104.44,9.32,156.59.02.31.16.55.43.71l58.77,34.19c.15.09.35-.02.34-.2-4.35-91.32-14.2-180.41-29.57-267.26-9.52-53.8-22.2-108.77-39.16-161.01-.05-.15-.24-.19-.35-.08-.21.23-.37.49-.47.8-20.5,64.32-34.68,130.51-45.15,197.06-11.87,75.46-19.66,152.24-23.37,230.34,0,.39.15.48.48.28l58.73-34.19c.17-.1.28-.28.29-.47,3.15-52.27,6.3-104.53,9.44-156.78.01-.07.05-.11.12-.11h0c.09,0,.14.04.15.13ZM128.05,139.76l-53.28,66.97-37.22,46.78c-.1.12-.07.29.06.37,12.44,7.67,24.38,16.16,35.81,25.45,14.35,11.65,27.46,24.56,39.33,38.73,24.03,28.57,40.3,61.18,46.71,97.04.02.11-.02.18-.13.21h0c-.11.03-.18-.02-.21-.13-4.26-15.34-10.33-29.93-18.21-43.78-14.19-24.21-32.29-45.07-54.28-62.6-.08-.07-.2-.07-.29,0l-41.46,31.28c-.22.17-.18.51.07.63,25.99,12.16,47.98,29.49,65.97,52,10.45,13.08,19.31,26.43,26.57,40.05,17.49,32.8,29.41,68.62,37.03,104.99.06.28.38.43.63.29l44.35-24.85c.39-.22.58-.56.56-1.01-2.57-61.59-15.95-123.54-43.35-177.92-14.87-29.52-34.33-57.06-58.79-79.29-5.18-4.57-10.68-8.6-16.49-12.07-.71-.43-.82-.98-.33-1.65l23.99-32.71,31.26-42.23c.21-.29.61-.39.93-.23,12.49,6.08,25.33,11.47,38.52,16.18,24.91,9.01,51.28,15.36,77.8,17.03.91.05,1.83.05,2.76,0,.35-.03.55-.21.62-.56,3.25-17.15,7.03-35.13,11.32-53.96.1-.43-.23-.84-.67-.85-32.18-.26-63.77-6.83-93.79-17.99-13.7-5.17-26.94-11.27-39.71-18.29-.23-.13-.44-.09-.61.12l-25.46,32.01ZM471.61,126.89c-28.9,10.56-60.28,17.05-91.15,16.99-.33,0-.47.17-.4.5l11.44,54.64c.05.24.27.4.51.39,28.51-1.34,57.21-8.38,83.87-18.38,11.81-4.34,23.42-9.29,34.81-14.84.5-.24,1.1-.1,1.43.35l26.6,36.19,28.56,38.84c.25.34.16.83-.21,1.06-8.39,5.15-16.1,11.26-23.11,18.34-13.67,13.67-25.71,28.67-36.14,45.02-6.81,10.67-13,21.71-18.59,33.14-8.44,17.38-15.2,34.31-20.27,50.79-12.33,40.02-19.2,80.94-20.61,122.75-.01.19.07.33.24.42l44.56,25.08c.15.09.35.03.43-.12.04-.08.08-.17.11-.28,5.95-27.86,14.4-54.87,25.35-81.03,1.83-3.72,3.61-7.45,5.35-11.19,10.75-23.08,24.57-44,41.45-62.77,16.47-17.95,35.62-31.96,57.46-42.03.28-.13.33-.52.08-.7l-41.46-31.19c-.2-.14-.46-.14-.65,0-6.99,5.69-13.62,11.78-19.88,18.28-18.53,18.43-33.09,39.49-43.69,63.17-3.49,8.05-6.32,16.32-8.47,24.82-.04.15-.14.21-.3.17h-.01c-.15-.03-.21-.13-.18-.29,4.64-24.86,13.6-48.04,26.89-69.53,3.83-6.21,7.87-12.12,12.11-17.73,9.15-12,19.15-23.15,30.02-33.46,4.79-4.49,9.76-8.89,14.91-13.21,11.94-10.01,24.57-19.05,37.88-27.1.25-.15.29-.34.1-.57l-51.19-64.25-42.5-53.44-22.1-27.88c-.21-.27-.58-.34-.87-.18-13.81,7.55-27.93,13.95-42.38,19.22ZM377.21,553.91c2.41,24.67-15.98,46.67-40.91,48.02-23.32,1.26-43.79-16.94-45.4-40.17-1.4-20.28,10.08-37.91,29.29-44.84.33-.12.49-.35.49-.7v-36.79c0-.37-.39-.6-.71-.42l-77.37,44.98c-.59.34-.78,1.11-.41,1.69,15.27,23.68,28.21,50.28,36.03,77.68,2.57,8.98,4.36,18.52,5.38,28.61.05.42.28.63.7.63l99.81.03c.19,0,.35-.14.37-.33,1.39-13.4,4.34-26.71,8.87-39.93,7.78-22.68,18.74-45.02,32.87-67.02.19-.3.11-.7-.18-.9-1.22-.82-2.43-1.58-3.63-2.28-23.93-13.93-48.71-28.34-74.36-43.24-.23-.13-.52.03-.52.3v37.08c0,.29.13.48.41.58,16.2,5.7,27.61,19.91,29.27,37.02ZM209.59,572.22c.29-.13.64-.06.86.17l14.76,15.48c.16.16.39.21.6.13l20.83-8.55c.33-.13.48-.51.34-.83-6.61-14.71-14.43-29.15-23.47-43.32-.09-.14-.28-.18-.43-.1l-72.11,40.49c-.3.17-.43.52-.33.85l11.96,36.93c.1.3.43.45.72.33l12.11-5.01c.24-.1.4-.33.39-.59l-.74-19.17c-.02-.65.26-1.11.85-1.38l33.66-15.43ZM493.14,588.97l-.69,19.04c0,.42.17.71.56.87l12.03,4.98c.26.11.55-.03.64-.29l11.94-37.07c.09-.3-.03-.62-.3-.77l-72.19-40.54c-.14-.08-.32-.04-.41.1-8.87,13.82-16.73,28.28-23.6,43.37-.13.28,0,.62.29.73l20.93,8.61c.23.09.44.05.61-.13l14.91-15.55c.19-.2.48-.25.72-.14l33.76,15.5c.55.25.82.68.8,1.29ZM356.7,558.26c0-12.49-10.12-22.61-22.61-22.61s-22.61,10.12-22.61,22.61,10.12,22.61,22.61,22.61,22.61-10.12,22.61-22.61ZM263.23,652.82c.83-18.23-1.93-36.14-8.29-53.73-.08-.2-.31-.3-.51-.22l-33.53,13.86c-.41.17-.89.07-1.2-.26l-13.99-14.75c-.3-.32-.65-.39-1.04-.2l-7.83,3.64c-.27.13-.4.34-.39.64l.72,20.18c0,.36-.2.69-.54.83l-8.9,3.53c-.34.14-.55.48-.52.84.79,10.63,1.3,21.39,1.52,32.26,0,.43.24.65.67.65,34.85-.15,72.15,6.44,101.79,24.34.45.27.67.14.67-.37v-30.04c-.01-.33-.17-.49-.5-.49h-27.46c-.47-.01-.69-.24-.67-.71ZM404.32,653.52h-27.53c-.36.01-.54.19-.54.55l.08,30.4c0,.25.1.31.31.18,30.36-18.32,67.12-24.52,102.43-24.61.17,0,.3-.13.31-.29l1.48-32.24c.03-.59-.22-1-.77-1.22l-8.33-3.41c-.44-.18-.72-.62-.7-1.09l.77-19.81c.01-.37-.2-.71-.53-.87l-7.81-3.63c-.33-.15-.63-.1-.88.17l-14.06,14.75c-.36.37-.9.49-1.38.29l-33.51-13.88c-.15-.06-.32.01-.37.16-4.09,11.53-6.71,23.03-7.86,34.5-.63,6.32-.41,13.06-.46,19.4,0,.43-.22.65-.65.65ZM355.4,653.99c0-.25-.21-.46-.46-.46h-41.8c-.25,0-.46.21-.46.46v11.3c0,.25.21.46.46.46h41.8c.25,0,.46-.21.46-.46v-11.3ZM355.4,680.17c0-.23-.19-.42-.42-.42h-41.88c-.23,0-.42.19-.42.42v12.1c0,.23.19.42.42.42h41.88c.23,0,.42-.19.42-.42v-12.1ZM355.42,707c0-.23-.18-.41-.41-.41h-41.92c-.23,0-.41.18-.41.41v11.38c0,.23.18.41.41.41h41.92c.23,0,.41-.18.41-.41v-11.38ZM358.45,740.26c-.08-.26-.33-.44-.61-.44l-47.43.05c-.28,0-.53.18-.61.44l-6.51,20.27c-.1.32.04.65.34.78l30.23,13.57c.16.08.36.08.52,0l30.26-13.56c.29-.13.44-.46.34-.78l-6.53-20.33Z"/>
    <path class="cls-4" d="M334.27,295.02c-.01-.09-.06-.13-.15-.13h0c-.07,0-.11.04-.12.11-3.14,52.25-6.29,104.51-9.44,156.78,0,.19-.12.37-.29.47l-58.73,34.19c-.33.2-.49.11-.48-.28,3.71-78.1,11.5-154.88,23.37-230.34,10.47-66.55,24.65-132.74,45.15-197.06.1-.31.26-.57.47-.8.11-.11.3-.07.35.08,16.96,52.24,29.64,107.21,39.16,161.01,15.37,86.85,25.22,175.94,29.57,267.26.01.18-.19.29-.34.2l-58.77-34.19c-.27-.16-.41-.4-.43-.71-3.13-52.15-6.23-104.35-9.32-156.59Z"/>
    <circle class="cls-3" cx="334.09" cy="558.26" r="22.61"/>
    <path class="cls-1" d="M193.83,125.92l-1.11.26c-.44.11-.5.32-.17.63.08.08.14.17.17.28.07.28.06.58-.01.91-.48,2.15-.62,4.31-.41,6.5.03.33,0,.66-.11.97-.11.32-.18.65-.19,1-.17,4.99-.16,9.76.03,14.31.01.33-.11.59-.37.79-.25.19-.37.44-.38.76-.04,1.85-.04,3.64,0,5.37,0,.23-.06.45-.17.66-.17.33-.11.59.2.79.19.11.21.26.08.43-.1.13-.15.27-.14.43.11,3.39.19,6.64.24,9.75.02,1.48.5,2.72,1.43,3.71.18.19.25.45.19.7-.23,1.11.01,2.06.7,2.85.16.18.18.38.07.6-.06.11-.1.23-.12.36-.04.35.07.65.34.9.36.33.51.76.44,1.27-.05.35.04.65.26.92l1,1.19c-13.19-4.71-26.03-10.1-38.52-16.18-.32-.16-.72-.06-.93.23l-31.26,42.23-2.37.93c-.33.13-.6.06-.83-.21-.19-.23-.49-.38-.9-.45-.78-.12-.82-.26-.13-.43l.47-.11c.32-.07.55-.35.56-.68.03-1.01.33-1.9.89-2.67.23-.32.34-.68.32-1.07-.07-1.19.12-2.37.58-3.53.25-.63.39-1.32.43-2.09.03-.69.12-1.41.26-2.15.25-1.29.35-2.44.32-3.43-.13-3.98-.19-7.92-.18-11.83.01-2.55.12-5.13.35-7.74.22-2.54.33-5.05.34-7.54.01-6.57.01-13.14,0-19.7,0-.33.11-.63.32-.89,1.03-1.25,1.97-2.5,2.83-3.76.07-.09.04-.16-.07-.2-.03,0-.06,0-.09.02-.17.21-.21.18-.14-.07.13-.41.13-.81.02-1.18l25.46-32.01c.17-.21.38-.25.61-.12,12.77,7.02,26.01,13.12,39.71,18.29ZM536.96,135.73l-.17.64c-.1.39-.23.41-.39.04-.11-.23-.24-.32-.41-.25-.17.07-.24.2-.19.38.09.35.26.64.51.85.06.04.11.03.15-.03.05-.08.11-.15.19-.2.07-.04.17-.02.21.05.2.34.21.68.03,1.01-.11.19-.1.38.02.57.44.66.94,1.2,1.49,1.61.21.15.32.36.34.62.07,1.02-.01,2.05-.26,3.09-.1.42-.15.85-.15,1.28,0,5.4-.04,10.85-.13,16.35,0,.81.45,1.28.23,2.1-.12.43-.19.88-.2,1.34-.09,3.04-.03,6.16.18,9.35.12,1.71-.47,3.31-.35,5.07.25,3.52-.04,6.96.62,10.45.34,1.78.59,3.64.76,5.58.03.33-.05.63-.22.92-.41.7-.46,1.35-.15,1.96.9,1.77.78,3.18-.35,4.22l-26.6-36.19c-.33-.45-.93-.59-1.43-.35-11.39,5.55-23,10.5-34.81,14.84-.17-.87-.49-1.24-.96-1.09-.29.09-.54.01-.73-.23-.36-.45-.44-.92-.24-1.4.11-.25.15-.5.13-.77-.05-.69-.12-1.36-.23-2.02-.12-.77.17-1.33.87-1.69.24-.13.32-.32.25-.58-.01-.04-.03-.06-.06-.07-.36-.14-.44-.37-.25-.69.2-.33.41-.66.64-.99.21-.29.29-.62.26-.99-.08-.9-.07-1.82.04-2.76.02-.17.1-.31.23-.4.19-.12.26-.29.23-.51-.23-1.71-.37-3.48-.4-5.33-.01-.55.09-1.07.3-1.56.13-.31.19-.63.17-.96-.13-2.59-.04-5.02.28-7.29.21-1.54.29-2.89.24-4.06-.06-1.24-.14-2.45-.24-3.62-.04-.45.09-.85.4-1.19.22-.25.22-.49,0-.74-.46-.54-.54-1.12-.25-1.75.21-.43.16-.82-.14-1.18-.78-.94-1.17-2.14-1.11-3.36.02-.41-.15-.72-.51-.92-.24-.14-.28-.33-.13-.56.44-.63.75-1.4.93-2.3.03-.17-.01-.32-.11-.45-.85-1.11-1.12-2.33-.81-3.68.08-.32.26-.39.54-.22.07.04.14-.01.19-.15.09-.21.02-.35-.2-.4-1.13-.27-2.33-.35-3.61-.23,14.45-5.27,28.57-11.67,42.38-19.22.29-.16.66-.09.87.18l22.1,27.88ZM193.83,125.92c30.02,11.16,61.61,17.73,93.79,17.99.44.01.77.42.67.85-4.29,18.83-8.07,36.81-11.32,53.96-.07.35-.27.53-.62.56-.93.06-1.85.06-2.76,0-26.52-1.67-52.89-8.02-77.8-17.03l-1-1.19c-.22-.27-.31-.57-.26-.92.07-.51-.08-.94-.44-1.27-.27-.25-.38-.55-.34-.9.02-.13.06-.25.12-.36.11-.22.09-.42-.07-.6-.69-.79-.93-1.74-.7-2.85.06-.25-.01-.51-.19-.7-.93-.99-1.41-2.23-1.43-3.71-.05-3.11-.13-6.36-.24-9.75-.01-.16.04-.3.14-.43.13-.17.11-.32-.08-.43-.31-.2-.37-.46-.2-.79.11-.21.17-.43.17-.66-.03-1.73-.03-3.52,0-5.37.01-.32.13-.57.38-.76.26-.2.38-.46.37-.79-.19-4.55-.2-9.32-.03-14.31.01-.35.08-.68.19-1,.11-.31.14-.64.11-.97-.21-2.19-.07-4.35.41-6.5.07-.33.08-.63.01-.91-.03-.11-.09-.2-.17-.28-.33-.31-.27-.52.17-.63l1.11-.26ZM471.61,126.89c1.28-.12,2.48-.04,3.61.23.22.05.29.19.2.4-.05.14-.12.19-.19.15-.28-.17-.46-.1-.54.22-.31,1.35-.04,2.57.81,3.68.1.13.14.28.11.45-.18.9-.49,1.67-.93,2.3-.15.23-.11.42.13.56.36.2.53.51.51.92-.06,1.22.33,2.42,1.11,3.36.3.36.35.75.14,1.18-.29.63-.21,1.21.25,1.75.21.25.21.49,0,.74-.31.34-.44.74-.4,1.19.1,1.17.18,2.38.24,3.62.05,1.17-.03,2.52-.24,4.06-.32,2.27-.41,4.7-.28,7.29.02.33-.04.65-.17.96-.21.49-.31,1.01-.3,1.56.03,1.85.17,3.62.4,5.33.03.22-.04.39-.23.51-.13.09-.21.23-.23.4-.11.94-.12,1.86-.04,2.76.03.37-.05.7-.26.99-.23.33-.44.66-.64.99-.19.32-.11.55.25.69.03,0,.05.03.06.07.07.26-.01.45-.25.58-.7.36-.99.92-.87,1.69.11.66.18,1.33.23,2.02.02.27-.02.52-.13.77-.2.48-.12.95.24,1.4.19.24.44.32.73.23.47-.15.79.22.96,1.09-26.66,10-55.36,17.04-83.87,18.38-.24.01-.46-.15-.51-.39l-11.44-54.64c-.07-.33.07-.5.4-.5,30.87.06,62.25-6.43,91.15-16.99ZM536.96,135.73l42.5,53.44c-.51-.39-1.06.07-1.65,1.38-.25.57-.37,1.23-.34,1.98.09,2.39.13,4.77.12,7.16-.01,1.71.03,3.41.12,5.1.13,2.63-.29,5.19-.05,7.8.07.76.09,1.65.07,2.67-.11,5.53-.12,11.7-.03,18.5.01.99.05,1.99.1,3,.05.99.07,1.98.06,2.99-.01,1.65.04,3.39.15,5.21.1,1.63.12,3.36.06,5.19-.14,4.09-.21,8.12-.22,12.11-.01,4.5-.04,9-.1,13.51-.02,1.65-.77,2.89-.77,4.35.01,1.59-.32,4.63.12,6.04.07.21.04.42-.07.61-.17.29-.23.61-.18.95l.91,6.58c-10.87,10.31-20.87,21.46-30.02,33.46l-.67-3.95c-.05-.31,0-.62.11-.9.6-1.32.73-2.6.38-3.84-.34-1.25-.51-2.5-.51-3.77,0-1.6-.13-3.09-.39-4.47-.31-1.71-.43-3.35-.35-4.91.22-4.13.24-8.6.07-13.4-.07-1.84-.01-3.64.18-5.39,0-.11.07-.19.18-.24.03-.01.07-.02.1-.01.17.05.25-.01.23-.19-.39-4.12-.54-8.56-.46-13.31.03-1.75-.09-3.57-.37-5.46-.16-1.1-.26-2.2-.31-3.29-.04-1.04-.23-2.12-.56-3.24-.02-.07-.05-.12-.1-.17-.08-.09-.13-.05-.14.14-.01.21-.12.31-.34.29-.39-.03-.66-.26-.83-.68,7.01-7.08,14.72-13.19,23.11-18.34.37-.23.46-.72.21-1.06l-28.56-38.84c1.13-1.04,1.25-2.45.35-4.22-.31-.61-.26-1.26.15-1.96.17-.29.25-.59.22-.92-.17-1.94-.42-3.8-.76-5.58-.66-3.49-.37-6.93-.62-10.45-.12-1.76.47-3.36.35-5.07-.21-3.19-.27-6.31-.18-9.35.01-.46.08-.91.2-1.34.22-.82-.24-1.29-.23-2.1.09-5.5.13-10.95.13-16.35,0-.43.05-.86.15-1.28.25-1.04.33-2.07.26-3.09-.02-.26-.13-.47-.34-.62-.55-.41-1.05-.95-1.49-1.61-.12-.19-.13-.38-.02-.57.18-.33.17-.67-.03-1.01-.04-.07-.14-.09-.21-.05-.08.05-.14.12-.19.2-.04.06-.09.07-.15.03-.25-.21-.42-.5-.51-.85-.05-.18.02-.31.19-.38.17-.07.3.02.41.25.16.37.29.35.39-.04l.17-.64ZM128.05,139.76c.11.37.11.77-.02,1.18-.07.25-.03.28.14.07.03-.03.06-.03.09-.02.11.04.14.11.07.2-.86,1.26-1.8,2.51-2.83,3.76-.21.26-.32.56-.32.89.02,6.56.02,13.13,0,19.7,0,2.49-.12,5-.34,7.54-.23,2.61-.34,5.19-.35,7.74,0,3.91.05,7.85.18,11.83.03.99-.07,2.14-.32,3.43-.14.74-.23,1.46-.26,2.15-.04.77-.18,1.46-.43,2.09-.46,1.16-.65,2.34-.58,3.53.02.39-.09.75-.32,1.07-.56.77-.86,1.66-.89,2.67,0,.33-.24.61-.56.68l-.47.11c-.69.17-.65.31.13.43.41.07.71.22.9.45.23.27.5.34.83.21l2.37-.93-23.99,32.71c-.49.67-.38,1.22.33,1.65,5.81,3.47,11.31,7.5,16.49,12.07l-2.71.2c-.34.02-.55.2-.64.53-.27,1.03-.32,2.07-.17,3.13.15,1.07.24,2.21.26,3.4.08,4.87.17,9.7.28,14.48.05,2.14-.32,4.21-.2,6.32.02.35-.15.56-.5.61-.43.07-.67.33-.74.79-.05.38,0,.74.16,1.08.15.33.15.67-.02,1-.2.4-.09.53.34.39.09-.03.19-.06.29-.07.38-.04.56.13.55.51-.31,9.21-.27,17.45.13,24.72.05.8-.07,1.49-.34,2.06-.14.29-.2.6-.17.92l.1,1.24c.02.29-.11.49-.38.6-.49.2-.96.59-1.4,1.18-11.87-14.17-24.98-27.08-39.33-38.73-.85-1.21-.81-2.56.1-4.04.17-.28.25-.59.24-.92-.25-5.31-.32-10.53-.21-15.66.11-5.03.1-10.29-.03-15.78-.11-4.71-.04-9.26.21-13.64.13-2.19.15-4.53.08-7.02-.08-2.5-.04-4.84.13-7.03.04-.46-.16-.97-.46-1.31-.24-.27-.28-.57-.13-.9.15-.32.18-.65.08-.99-.15-.5-.35-.52-.6-.06-.54,1-1.22,1.82-2.03,2.46-.22.17-.34.44-.3.72.03.23-.02.42-.15.59-1.03,1.35-2.22,2.53-3.58,3.56,0,0-.03,0-.05,0,0-.02,0-.04,0-.05.71-1.07,1.45-2.15,2.22-3.26.21-.29.36-.61.46-.95.1-.35.32-.61.65-.79.21-.11.38-.29.48-.5l1.06-2.17c.16-.33.39-.6.69-.81,1.43-1.01,2.26-2.36,2.49-4.05l53.28-66.97ZM579.46,189.17l51.19,64.25c.19.23.15.42-.1.57-13.31,8.05-25.94,17.09-37.88,27.1-5.15,4.32-10.12,8.72-14.91,13.21l-.91-6.58c-.05-.34.01-.66.18-.95.11-.19.14-.4.07-.61-.44-1.41-.11-4.45-.12-6.04,0-1.46.75-2.7.77-4.35.06-4.51.09-9.01.1-13.51.01-3.99.08-8.02.22-12.11.06-1.83.04-3.56-.06-5.19-.11-1.82-.16-3.56-.15-5.21.01-1.01-.01-2-.06-2.99-.05-1.01-.09-2.01-.1-3-.09-6.8-.08-12.97.03-18.5.02-1.02,0-1.91-.07-2.67-.24-2.61.18-5.17.05-7.8-.09-1.69-.13-3.39-.12-5.1.01-2.39-.03-4.77-.12-7.16-.03-.75.09-1.41.34-1.98.59-1.31,1.14-1.77,1.65-1.38ZM74.77,206.73c-.23,1.69-1.06,3.04-2.49,4.05-.3.21-.53.48-.69.81l-1.06,2.17c-.1.21-.27.39-.48.5-.33.18-.55.44-.65.79-.1.34-.25.66-.46.95-.77,1.11-1.51,2.19-2.22,3.26,0,0,0,.03,0,.05.02,0,.04,0,.05,0,1.36-1.03,2.55-2.21,3.58-3.56.13-.17.18-.36.15-.59-.04-.28.08-.55.3-.72.81-.64,1.49-1.46,2.03-2.46.25-.46.45-.44.6.06.1.34.07.67-.08.99-.15.33-.11.63.13.9.3.34.5.85.46,1.31-.17,2.19-.21,4.53-.13,7.03.07,2.49.05,4.83-.08,7.02-.25,4.38-.32,8.93-.21,13.64.13,5.49.14,10.75.03,15.78-.11,5.13-.04,10.35.21,15.66,0,.33-.07.64-.24.92-.91,1.48-.95,2.83-.1,4.04-11.43-9.29-23.37-17.78-35.81-25.45-.13-.08-.16-.25-.06-.37l37.22-46.78ZM117.91,254.97c24.46,22.23,43.92,49.77,58.79,79.29,27.4,54.38,40.78,116.33,43.35,177.92.02.45-.17.79-.56,1.01l-44.35,24.85c-.25.14-.57-.01-.63-.29-7.62-36.37-19.54-72.19-37.03-104.99.47-.19.39-.59-.24-1.21-.37-.37-.32-.66.17-.86.27-.11.54-.23.79-.35.47-.22.61-.57.4-1.04-.65-1.49-.65-3.28-.02-5.37.22-.75.33-1.53.33-2.35,0-.69.1-1.37.31-2.04.11-.35.07-.68-.1-1-.53-.95-.78-2.07-.77-3.34,0-.14.06-.25.19-.32.03-.03.07-.03.12-.01.4.17.61.03.63-.4.09-2.33-.01-4.58-.3-6.73-.05-.31,0-.64.13-.93.6-1.32.74-2.67.43-4.06-.07-.33-.05-.66.07-.98.2-.52.19-1.03-.04-1.54-.14-.31-.16-.62-.06-.95.19-.58.26-1.25.23-2.02-.2-5.07-.51-9.62-.93-13.67-.05-.45-.27-.6-.66-.45-.17.07-.33-.01-.49-.23-.19-.26-.29-.55-.29-.88.02-2.02,0-4.32-.04-6.9-.01-.54.07-1.04.25-1.51.21-.56.34-1.16.39-1.8.02-.29.18-.48.48-.56.47-.13.62.04.43.49-.12.28-.06.52.17.72.13.11.23.09.31-.06.11-.21.25-.22.43-.04.1.1.16.08.19-.06.03-.13,0-.22-.12-.28-.19-.11-.21-.25-.07-.42.19-.23.55-.3,1.1-.21,7.88,13.85,13.95,28.44,18.21,43.78.03.11.1.16.21.13h0c.11-.03.15-.1.13-.21-6.41-35.86-22.68-68.47-46.71-97.04.44-.59.91-.98,1.4-1.18.27-.11.4-.31.38-.6l-.1-1.24c-.03-.32.03-.63.17-.92.27-.57.39-1.26.34-2.06-.4-7.27-.44-15.51-.13-24.72,0-.38-.17-.55-.55-.51-.1,0-.2.04-.29.07-.43.14-.54,0-.34-.39.17-.33.17-.67.02-1-.16-.34-.21-.7-.16-1.08.07-.46.31-.72.74-.79.35-.05.52-.26.5-.61-.12-2.11.25-4.18.2-6.32-.11-4.78-.2-9.61-.28-14.48-.02-1.19-.11-2.33-.26-3.4-.15-1.06-.1-2.1.17-3.13.09-.33.3-.51.64-.53l2.71-.2ZM543.96,260.97c.17.42.44.65.83.68.22.02.33-.08.34-.29,0-.19.06-.23.14-.14.05.05.08.1.1.17.33,1.12.52,2.2.56,3.24.05,1.09.15,2.19.31,3.29.28,1.89.4,3.71.37,5.46-.08,4.75.07,9.19.46,13.31.02.18-.06.24-.23.19-.03-.01-.07,0-.1.01-.11.05-.17.13-.18.24-.19,1.75-.25,3.55-.18,5.39.17,4.8.15,9.27-.07,13.4-.08,1.56.04,3.2.35,4.91.26,1.38.39,2.87.39,4.47,0,1.27.17,2.52.51,3.77.35,1.24.22,2.52-.38,3.84-.12.28-.16.59-.11.9l.67,3.95c-4.24,5.61-8.28,11.52-12.11,17.73-13.29,21.49-22.25,44.67-26.89,69.53-.03.16.03.26.18.29h.01c.16.04.26-.02.3-.17,2.15-8.5,4.98-16.77,8.47-24.82.25.77.25,1.61,0,2.54-.02.05-.01.06.04.04.03-.01-.01-.08-.14-.19-.03-.03-.03-.07.01-.1.66-.5.96-1.13.9-1.9-.04-.57.18-.72.67-.43.25.15.46.11.63-.1.23-.28.38-.24.43.12.02.16,0,.31-.06.46-.11.26-.03.35.24.26.54-.18,1.01-.02,1.42.49.22.26.22.64.01.9l-1.05,1.31c-.21.27-.3.58-.25.91.14.98.46,1.9.95,2.77.09.17.08.37-.03.53-.37.52-.39,1.08-.07,1.68.15.28.11.53-.14.74-.13.11-.23.25-.28.42-.11.34.01.45.34.34.17-.05.33.05.46.32.14.29.2.59.18.9-.42,5.39-.32,11.03.31,16.94.16,1.47.24,2.97.23,4.5-.01,1.5-.04,2.98-.1,4.44-.02.45-.2.82-.55,1.11-.05.04-.06.09-.03.15.05.1.11.16.2.17.26.05.4.21.41.48.19,3.61.45,7.16.79,10.66.13,1.31.01,2.61-.34,3.9-.09.29-.09.59-.02.88.08.36-.04.62-.37.78-.25.13-.27.29-.06.48.31.27.36.56.13.88-1.04,1.49-1.94,3.54-2.69,6.15-.02.07-.06.13-.11.17-.79.67-1.02,1.58-.71,2.72-10.95,26.16-19.4,53.17-25.35,81.03.07-1.44-.18-2.44-.75-2.99-.24-.23-.34-.5-.31-.83.07-.85.3-1.6.69-2.26.16-.28.21-.58.15-.9-.13-.74.01-1.42.43-2.05.16-.23.16-.46.01-.69l-.15-.24c-.15-.24-.2-.53-.12-.8.27-.91.34-1.82.22-2.74-.16-1.17.09-1.92.34-2.99.03-.15-.02-.2-.17-.17-.03.01-.06.03-.09.04-.26.15-.4.08-.43-.22-.3-3.43-.29-6.9.03-10.41.12-1.33-.12-2.6-.1-3.94,0-.23.06-.46.16-.67.13-.28.1-.55-.09-.8-.2-.26-.3-.55-.3-.88l-.03-11.2c0-.37-.09-.71-.26-1.03-.23-.45-.32-.9-.29-1.37.03-.37.16-.71.39-1.01.17-.21.23-.45.19-.7-.04-.3-.16-.56-.37-.78-.51-.56-.57-1.41-.15-2.04.49-.73.52-1.49.11-2.27-.28-.51-.42-1.06-.42-1.66,0-.65.09-1.29.28-1.9.21-.69.32-1.39.32-2.09-.09-14.9-.06-30.21.1-45.93.1-9.85.1-19.6.01-29.24-.1-11.07-.14-23.05-.12-35.92.01-2.42.09-4.64.26-6.66.29-3.35.39-5.58.3-6.68-.19-2.55-.38-5.2-.55-7.95-.05-.84-.21-1.65-.48-2.42-.54-1.55-.2-3.16-.7-4.81-.12-.39-.37-.5-.74-.32l-1.83.88c5.59-11.43,11.78-22.47,18.59-33.14,10.43-16.35,22.47-31.35,36.14-45.02ZM140.9,371.4c-.55-.09-.91-.02-1.1.21-.14.17-.12.31.07.42.11.06.15.15.12.28-.03.14-.09.16-.19.06-.18-.18-.32-.17-.43.04-.08.15-.18.17-.31.06-.23-.2-.29-.44-.17-.72.19-.45.04-.62-.43-.49-.3.08-.46.27-.48.56-.05.64-.18,1.24-.39,1.8-.18.47-.26.97-.25,1.51.05,2.58.06,4.88.04,6.9,0,.33.1.62.29.88.16.22.32.3.49.23.39-.15.61,0,.66.45.42,4.05.73,8.6.93,13.67.03.77-.04,1.44-.23,2.02-.1.33-.08.64.06.95.23.51.24,1.02.04,1.54-.12.32-.14.65-.07.98.31,1.39.17,2.74-.43,4.06-.13.29-.18.62-.13.93.29,2.15.39,4.4.3,6.73-.02.43-.23.57-.63.4-.05-.02-.09-.02-.12.01-.13.07-.19.18-.19.32,0,1.27.24,2.39.77,3.34.17.32.21.65.1,1-.21.67-.32,1.35-.31,2.04,0,.82-.11,1.6-.33,2.35-.63,2.09-.63,3.88.02,5.37.21.47.07.82-.4,1.04-.25.12-.52.24-.79.35-.49.2-.54.49-.17.86.63.62.71,1.02.24,1.21-7.26-13.62-16.12-26.97-26.57-40.05-17.99-22.51-39.98-39.84-65.97-52-.25-.12-.29-.46-.07-.63l41.46-31.28c.09-.07.21-.07.29,0,21.99,17.53,40.09,38.39,54.28,62.6ZM565.84,382.78l.17-.38c.1-.22.04-.39-.18-.5-.14-.07-.25-.06-.32.03-.27.36-.43.32-.48-.13-.21-1.81-.38-3.62-.51-5.44-.11-1.55-.96-2.83-.36-4.4.11-.31.14-.62.08-.94-.34-1.82-.46-3.74-.36-5.77.12-2.35.23-4.69.33-7.03.07-1.73-.46-3.8-.16-5.81.19-1.27-.2-2.36-.13-3.66.19-3.34.16-6.67-.08-9.98-.11-1.45.41-2.68-.05-4.09-.09-.29-.1-.57-.01-.86.54-1.77.51-3.57-.08-5.39-.02-.04,0-.07.04-.09.11-.05.18-.14.21-.27.01-.07,0-.15-.05-.21-.55-.73-1.38-.96-2.51-.71,6.26-6.5,12.89-12.59,19.88-18.28.19-.15.45-.15.65,0l41.46,31.19c.25.18.2.57-.08.7-21.84,10.07-40.99,24.08-57.46,42.03ZM565.84,382.78c-16.88,18.77-30.7,39.69-41.45,62.77-1.74,3.74-3.52,7.47-5.35,11.19-.31-1.14-.08-2.05.71-2.72.05-.04.09-.1.11-.17.75-2.61,1.65-4.66,2.69-6.15.23-.32.18-.61-.13-.88-.21-.19-.19-.35.06-.48.33-.16.45-.42.37-.78-.07-.29-.07-.59.02-.88.35-1.29.47-2.59.34-3.9-.34-3.5-.6-7.05-.79-10.66-.01-.27-.15-.43-.41-.48-.09-.01-.15-.07-.2-.17-.03-.06-.02-.11.03-.15.35-.29.53-.66.55-1.11.06-1.46.09-2.94.1-4.44.01-1.53-.07-3.03-.23-4.5-.63-5.91-.73-11.55-.31-16.94.02-.31-.04-.61-.18-.9-.13-.27-.29-.37-.46-.32-.33.11-.45,0-.34-.34.05-.17.15-.31.28-.42.25-.21.29-.46.14-.74-.32-.6-.3-1.16.07-1.68.11-.16.12-.36.03-.53-.49-.87-.81-1.79-.95-2.77-.05-.33.04-.64.25-.91l1.05-1.31c.21-.26.21-.64-.01-.9-.41-.51-.88-.67-1.42-.49-.27.09-.35,0-.24-.26.06-.15.08-.3.06-.46-.05-.36-.2-.4-.43-.12-.17.21-.38.25-.63.1-.49-.29-.71-.14-.67.43.06.77-.24,1.4-.9,1.9-.04.03-.04.07-.01.1.13.11.17.18.14.19-.05.02-.06,0-.04-.04.26-.93.26-1.77,0-2.54,10.6-23.68,25.16-44.74,43.69-63.17,1.13-.25,1.96-.02,2.51.71.04.06.06.14.05.21-.03.13-.1.22-.21.27-.05.02-.06.05-.04.09.59,1.82.62,3.62.08,5.39-.09.29-.08.57.01.86.46,1.41-.06,2.64.05,4.09.24,3.31.27,6.64.08,9.98-.07,1.3.32,2.39.13,3.66-.3,2.01.23,4.08.16,5.81-.1,2.34-.21,4.68-.33,7.03-.1,2.03.02,3.95.36,5.77.06.32.03.63-.08.94-.6,1.57.25,2.85.36,4.4.13,1.82.3,3.63.51,5.44.05.45.21.49.48.13.07-.09.18-.1.32-.03.22.11.28.28.18.5l-.17.38ZM493.69,537.77c-.03.11-.07.2-.11.28-.08.15-.28.21-.43.12l-44.56-25.08c-.17-.09-.25-.23-.24-.42,1.41-41.81,8.28-82.73,20.61-122.75,5.07-16.48,11.83-33.41,20.27-50.79l1.83-.88c.37-.18.62-.07.74.32.5,1.65.16,3.26.7,4.81.27.77.43,1.58.48,2.42.17,2.75.36,5.4.55,7.95.09,1.1-.01,3.33-.3,6.68-.17,2.02-.25,4.24-.26,6.66-.02,12.87.02,24.85.12,35.92.09,9.64.09,19.39-.01,29.24-.16,15.72-.19,31.03-.1,45.93,0,.7-.11,1.4-.32,2.09-.19.61-.28,1.25-.28,1.9,0,.6.14,1.15.42,1.66.41.78.38,1.54-.11,2.27-.42.63-.36,1.48.15,2.04.21.22.33.48.37.78.04.25-.02.49-.19.7-.23.3-.36.64-.39,1.01-.03.47.06.92.29,1.37.17.32.26.66.26,1.03l.03,11.2c0,.33.1.62.3.88.19.25.22.52.09.8-.1.21-.15.44-.16.67-.02,1.34.22,2.61.1,3.94-.32,3.51-.33,6.98-.03,10.41.03.3.17.37.43.22.03-.01.06-.03.09-.04.15-.03.2.02.17.17-.25,1.07-.5,1.82-.34,2.99.12.92.05,1.83-.22,2.74-.08.27-.03.56.12.8l.15.24c.15.23.15.46-.01.69-.42.63-.56,1.31-.43,2.05.06.32.01.62-.15.9-.39.66-.62,1.41-.69,2.26-.03.33.07.6.31.83.57.55.82,1.55.75,2.99ZM336.3,601.93c24.93-1.35,43.32-23.35,40.91-48.02-1.66-17.11-13.07-31.32-29.27-37.02-.28-.1-.42-.29-.42-.58v-37.08c0-.27.3-.43.53-.3,25.65,14.9,50.43,29.31,74.36,43.24,1.2.7,2.41,1.46,3.63,2.28.29.2.37.6.18.9-14.13,22-25.09,44.34-32.87,67.02-4.53,13.22-7.48,26.53-8.87,39.93-.02.19-.18.33-.37.33l-99.81-.03c-.42,0-.65-.21-.7-.63-1.02-10.09-2.81-19.63-5.38-28.61-7.82-27.4-20.76-54-36.03-77.68-.37-.58-.18-1.35.41-1.69l77.37-44.98c.32-.18.71.05.71.42v36.79c0,.35-.16.58-.49.7-19.21,6.93-30.69,24.56-29.29,44.84,1.61,23.23,22.08,41.43,45.4,40.17ZM209.59,572.22l-33.66,15.43c-.59.27-.87.73-.85,1.38l.74,19.17c0,.26-.15.49-.39.59l-12.11,5.01c-.29.12-.62-.03-.72-.33l-11.96-36.93c-.1-.33.03-.68.33-.85l72.11-40.49c.15-.08.34-.04.43.1,9.04,14.17,16.86,28.61,23.47,43.32.14.32-.01.7-.34.83l-20.83,8.55c-.21.08-.44.03-.6-.13l-14.76-15.48c-.22-.23-.57-.3-.86-.17ZM492.34,587.68l-33.76-15.5c-.24-.11-.53-.06-.72.14l-14.91,15.55c-.17.18-.38.22-.61.13l-20.93-8.61c-.29-.11-.42-.45-.29-.73,6.87-15.09,14.73-29.55,23.6-43.37.09-.14.27-.18.41-.1l72.19,40.54c.27.15.39.47.3.77l-11.94,37.07c-.09.26-.38.4-.64.29l-12.03-4.98c-.39-.16-.57-.45-.56-.87l.69-19.04c.02-.61-.25-1.04-.8-1.29ZM263.9,653.52h27.46c.33.01.49.17.49.5v30.04c.01.51-.21.64-.66.37-29.64-17.9-66.94-24.49-101.79-24.34-.43,0-.66-.22-.67-.65-.22-10.87-.73-21.63-1.52-32.26-.03-.36.18-.7.52-.84l8.9-3.53c.34-.14.55-.47.54-.83l-.72-20.18c-.01-.3.12-.51.39-.64l7.83-3.64c.39-.19.74-.12,1.04.2l13.99,14.75c.31.33.79.43,1.2.26l33.53-13.86c.2-.08.43.02.51.22,6.36,17.59,9.12,35.5,8.29,53.73-.02.47.2.7.67.7ZM404.97,652.87c.05-6.34-.17-13.08.46-19.4,1.15-11.47,3.77-22.97,7.86-34.5.05-.15.22-.22.37-.16l33.51,13.88c.48.2,1.02.08,1.38-.29l14.06-14.75c.25-.27.55-.32.88-.17l7.81,3.63c.33.16.54.5.53.87l-.77,19.81c-.02.47.26.91.7,1.09l8.33,3.41c.55.22.8.63.77,1.22l-1.48,32.24c-.01.16-.14.29-.31.29-35.31.09-72.07,6.29-102.43,24.61-.21.13-.31.07-.31-.18l-.08-30.4c0-.36.18-.54.54-.54h27.53c.43-.01.65-.23.65-.66ZM313.14,653.53h41.8c.25,0,.46.21.46.46v11.3c0,.25-.21.46-.46.46h-41.8c-.25,0-.46-.21-.46-.46v-11.3c0-.25.21-.46.46-.46ZM313.1,679.75h41.88c.23,0,.42.19.42.42v12.1c0,.23-.19.42-.42.42h-41.88c-.23,0-.42-.19-.42-.42v-12.1c0-.23.19-.42.42-.42ZM313.09,706.59h41.92c.23,0,.41.18.41.41v11.38c0,.23-.18.41-.41.41h-41.92c-.23,0-.41-.18-.41-.41v-11.38c0-.23.18-.41.41-.41ZM358.45,740.26l6.53,20.33c.1.32-.05.65-.34.78l-30.26,13.56c-.16.08-.36.08-.52,0l-30.23-13.57c-.3-.13-.44-.46-.34-.78l6.51-20.27c.08-.26.33-.44.61-.44l47.43-.05c.28,0,.53.18.61.44Z"/>
  </g>
</svg>