<?xml version="1.0" encoding="UTF-8" standalone="no"?>
<svg
   id="Layer_2"
   data-name="Layer 2"
   viewBox="0 0 668.46293 798.05889"
   version="1.1"
   width="668.46295"
   height="798.0589"
   xmlns="http://www.w3.org/2000/svg"
   xmlns:svg="http://www.w3.org/2000/svg">
  <defs
     id="defs9">
    <style
       id="style1">
      .cls-1 {
        fill: url(#linear-gradient);
      }

      .cls-1, .cls-2, .cls-3, .cls-4 {
        stroke-width: 0px;
      }

      .cls-3 {
        fill: #be371a;
      }

      .cls-4 {
        fill: #fff;
      }
    </style>
    <linearGradient
       id="linear-gradient"
       x1="37.490002"
       y1="441.26999"
       x2="630.77002"
       y2="441.26999"
       gradientUnits="userSpaceOnUse">
      <stop
         offset="0"
         stop-color="#612c75"
         id="stop1" />
      <stop
         offset=".13"
         stop-color="#80508f"
         id="stop2" />
      <stop
         offset=".29"
         stop-color="#a277ab"
         id="stop3" />
      <stop
         offset=".42"
         stop-color="#b790bc"
         id="stop4" />
      <stop
         offset=".5"
         stop-color="#bf99c3"
         id="stop5" />
      <stop
         offset=".58"
         stop-color="#b790bc"
         id="stop6" />
      <stop
         offset=".71"
         stop-color="#a277ab"
         id="stop7" />
      <stop
         offset=".87"
         stop-color="#80508f"
         id="stop8" />
      <stop
         offset="1"
         stop-color="#612c75"
         id="stop9" />
    </linearGradient>
  </defs>
  <g
     id="Layer_1-2"
     data-name="Layer 1"
     transform="translate(-0.00173077,-0.00483701)">
    <path
       class="cls-2"
       d="m 134.27,560.81 c 0,-0.15 0.09,-0.25 0.22,-0.32 3.05,-1.55 6.09,-3.05 9.12,-4.52 0.36,-0.17 0.66,-0.42 0.89,-0.75 0.21,-0.29 0.41,-0.49 0.59,-0.59 3.02,-1.71 5.99,-3.33 8.9,-4.87 0.77,-0.4 1.17,-1.27 0.97,-2.12 -2.47,-10.47 -5.07,-21.26 -7.82,-32.35 -1.25,-5.08 -4.45,-14.95 -9.59,-29.6 -8.67,-24.73 -19.82,-46.8 -33.45,-66.23 -2.97,-4.24 -6.47,-8.9 -10.49,-13.98 -3.82,-4.83 -7.78,-9.22 -11.87,-13.17 C 72.79,383.68 64.05,376.59 55.51,371.04 45.49,364.52 34.26,359.22 21.81,355.15 14.97,352.91 8.07,350.79 1.1,348.8 c -0.39,-0.11 -0.71,-0.39 -0.89,-0.75 -0.38,-0.8 -0.24,-1.42 0.42,-1.87 0.29,-0.19 0.54,-0.37 0.76,-0.54 22.27,-16.76 44.16,-33.27 65.65,-49.53 0.48,-0.36 0.47,-1.09 -0.03,-1.43 C 52.94,285.03 38.8,276.94 24.57,270.39 18.53,267.61 12.45,264.87 6.33,262.16 4.61,261.4 4.34,260.29 5.51,258.82 L 147.21,81.37 c 0.63,-0.79 1.73,-1.02 2.62,-0.54 2.5,1.32 5.04,2.75 7.62,4.28 3.33,1.98 8.86,4.89 16.6,8.74 30.69,15.25 62.18,24.5 95.52,27.84 5.48,0.38 10.53,0.71 17.1,0.68 5.46,-0.03 7.23,-0.35 8.3,-6.14 4.83,-19.83 10.43,-39.28 16.81,-58.36 0.27,-0.79 0.51,-1.55 0.73,-2.3 1.95,-6.65 4.15,-13.37 6.6,-20.15 2.45,-6.77 4.75,-12.6 6.91,-17.49 2.69,-6.07 5.21,-11.92 7.57,-17.57 0.19,-0.46 0.85,-0.48 1.05,-0.02 5.53,12.42 10.67,25.02 15.4,37.79 0.97,2.61 1.91,5.39 2.84,8.34 0.89,2.83 1.85,5.68 2.88,8.53 1.18,3.27 2.25,6.54 3.21,9.81 1.71,5.86 3.48,11.83 5.23,17.55 3.35,11.86 6.33,22.93 8.63,32.05 1.56,7.85 5.61,8.45 13.01,8.18 4.69,-0.02 9.58,-0.49 14.31,-0.92 9.23,-1.19 15.85,-2.17 19.87,-2.94 20.62,-3.94 41.03,-10.19 61.24,-18.74 5.48,-2.32 11.43,-5.2 17.86,-8.63 6.71,-3.59 13.31,-7.18 19.78,-10.77 0.6,-0.34 1.36,-0.18 1.78,0.37 3.11,4.08 6.34,8.16 9.67,12.25 10.63,13 20.94,25.79 30.93,38.37 33.06,41.58 66.94,84.09 101.63,127.54 0.61,0.75 0.62,1.53 0.03,2.32 -0.15,0.2 -0.35,0.37 -0.59,0.47 -5.55,2.45 -11.08,4.94 -16.6,7.46 -15.57,7.13 -30.44,15.6 -44.61,25.4 -0.36,0.25 -0.48,0.71 -0.3,1.1 0.06,0.13 0.15,0.23 0.26,0.31 21.87,16.45 44.07,33.21 66.62,50.29 1.07,0.81 0.99,1.47 -0.26,1.97 -0.53,0.21 -1.05,0.4 -1.57,0.56 -7.33,2.23 -14.07,4.36 -20.23,6.39 -19.85,6.54 -37.41,16.87 -52.68,30.98 -6.55,6.05 -13.24,12.81 -18.87,19.81 -7.97,9.92 -15.07,20.46 -21.32,31.61 -5.77,10.31 -11.27,21.26 -15.67,32.2 -9.9,24.61 -17.63,50.07 -23.19,76.4 -0.33,1.55 0.18,2.71 1.51,3.46 9.01,5.09 17.91,10.08 26.69,14.97 0.91,0.51 1.34,1.59 1.03,2.58 -7.59,24.03 -15.62,48.55 -24.11,73.54 -0.16,0.48 -0.64,0.77 -1.13,0.71 -1.68,-0.2 -3.11,-0.42 -4.69,-1.13 -3.44,-1.55 -6.77,-2.99 -10,-4.32 -0.99,-0.41 -1.47,-0.08 -1.42,0.99 0.05,1.29 -0.38,13.03 -0.5,14.27 -0.37,3.95 -0.89,25.73 -0.89,31.06 -23.61,-2.78 -54.11,0.64 -66.8,3.13 -10.39,2.03 -20.37,5 -29.92,8.93 -9.41,3.88 -17.87,8.98 -25.83,15.08 -0.61,0.47 -0.92,1.11 -0.91,1.9 0.05,4.81 0.03,9.58 -0.04,14.33 -0.03,2.34 0.54,4.52 1.22,6.68 0.51,1.64 8.61,26.38 11.57,35.6 0.36,1.13 0.66,2.28 0.9,3.45 0.16,0.79 -0.13,1.35 -0.86,1.69 -17.17,7.84 -35.22,15.99 -54.16,24.45 -1.02,0.45 -2.14,0.4 -3.36,-0.15 -19.75,-8.97 -37.66,-17.01 -53.74,-24.12 -0.63,-0.28 -0.96,-0.98 -0.76,-1.64 l 2.01,-6.57 c 0.06,-0.2 0.16,-0.38 0.29,-0.53 0.23,-0.28 0.31,-0.62 0.24,-1.02 -0.05,-0.27 -0.01,-0.56 0.11,-0.81 0.34,-0.73 0.63,-1.5 0.87,-2.3 3,-9.92 6.11,-19.84 9.34,-29.75 0.67,-2.05 0.98,-4.08 0.94,-6.1 -0.08,-4.11 -0.09,-8.35 -0.03,-12.71 0.01,-0.97 -0.38,-1.73 -1.16,-2.3 -7.04,-5.15 -14.33,-9.94 -22.47,-13.54 -11.29,-4.99 -23.09,-8.59 -35.4,-10.81 -13.48,-2.76 -28.24,-3.63 -42.27,-4.06 -7.32,-0.08 -14.1,0.39 -22.36,1.16 0.16,-3.33 -0.66,-14.39 -0.84,-29 -0.33,-3.96 -0.46,-13.46 -0.53,-16.37 -0.02,-0.82 -0.86,-1.37 -1.62,-1.04 l -12.84,5.54 c -1.46,0.63 -2.43,0.19 -2.92,-1.32 l -21.54,-66.47 c -0.05,-0.17 -0.07,-0.35 -0.05,-0.53 0.05,-0.47 -0.08,-0.85 -0.4,-1.14 -0.13,-0.12 -0.23,-0.27 -0.28,-0.43 l -1.48,-4.43 c -0.29,-0.87 0.06,-1.82 0.83,-2.3 1.53,-0.95 3.21,-1.81 5.04,-2.57 0.48,-0.2 0.92,-0.46 1.31,-0.78 0.43,-0.35 0.87,-0.52 1.34,-0.51 0.25,0 0.38,-0.12 0.41,-0.37 z m 200,-265.79 c 3.09,52.24 6.19,104.44 9.32,156.59 0.02,0.31 0.16,0.55 0.43,0.71 l 58.77,34.19 c 0.15,0.09 0.35,-0.02 0.34,-0.2 -4.35,-91.32 -14.2,-180.41 -29.57,-267.26 -9.52,-53.8 -22.2,-108.77 -39.16,-161.01 -0.05,-0.15 -0.24,-0.19 -0.35,-0.08 -0.21,0.23 -0.37,0.49 -0.47,0.8 -20.5,64.32 -34.68,130.51 -45.15,197.06 -11.87,75.46 -19.66,152.24 -23.37,230.34 0,0.39 0.15,0.48 0.48,0.28 l 58.73,-34.19 c 0.17,-0.1 0.28,-0.28 0.29,-0.47 3.15,-52.27 6.3,-104.53 9.44,-156.78 0.01,-0.07 0.05,-0.11 0.12,-0.11 v 0 c 0.09,0 0.14,0.04 0.15,0.13 z M 128.05,139.76 74.77,206.73 37.55,253.51 c -0.1,0.12 -0.07,0.29 0.06,0.37 12.44,7.67 24.38,16.16 35.81,25.45 14.35,11.65 27.46,24.56 39.33,38.73 24.03,28.57 40.3,61.18 46.71,97.04 0.02,0.11 -0.02,0.18 -0.13,0.21 v 0 c -0.11,0.03 -0.18,-0.02 -0.21,-0.13 -4.26,-15.34 -10.33,-29.93 -18.21,-43.78 -14.19,-24.21 -32.29,-45.07 -54.28,-62.6 -0.08,-0.07 -0.2,-0.07 -0.29,0 l -41.46,31.28 c -0.22,0.17 -0.18,0.51 0.07,0.63 25.99,12.16 47.98,29.49 65.97,52 10.45,13.08 19.31,26.43 26.57,40.05 17.49,32.8 29.41,68.62 37.03,104.99 0.06,0.28 0.38,0.43 0.63,0.29 l 44.35,-24.85 c 0.39,-0.22 0.58,-0.56 0.56,-1.01 -2.57,-61.59 -15.95,-123.54 -43.35,-177.92 -14.87,-29.52 -34.33,-57.06 -58.79,-79.29 -5.18,-4.57 -10.68,-8.6 -16.49,-12.07 -0.71,-0.43 -0.82,-0.98 -0.33,-1.65 l 23.99,-32.71 31.26,-42.23 c 0.21,-0.29 0.61,-0.39 0.93,-0.23 12.49,6.08 25.33,11.47 38.52,16.18 24.91,9.01 51.28,15.36 77.8,17.03 0.91,0.05 1.83,0.05 2.76,0 0.35,-0.03 0.55,-0.21 0.62,-0.56 3.25,-17.15 7.03,-35.13 11.32,-53.96 0.1,-0.43 -0.23,-0.84 -0.67,-0.85 -32.18,-0.26 -63.77,-6.83 -93.79,-17.99 -13.7,-5.17 -26.94,-11.27 -39.71,-18.29 -0.23,-0.13 -0.44,-0.09 -0.61,0.12 l -25.46,32.01 z m 343.56,-12.87 c -28.9,10.56 -60.28,17.05 -91.15,16.99 -0.33,0 -0.47,0.17 -0.4,0.5 l 11.44,54.64 c 0.05,0.24 0.27,0.4 0.51,0.39 28.51,-1.34 57.21,-8.38 83.87,-18.38 11.81,-4.34 23.42,-9.29 34.81,-14.84 0.5,-0.24 1.1,-0.1 1.43,0.35 l 26.6,36.19 28.56,38.84 c 0.25,0.34 0.16,0.83 -0.21,1.06 -8.39,5.15 -16.1,11.26 -23.11,18.34 -13.67,13.67 -25.71,28.67 -36.14,45.02 -6.81,10.67 -13,21.71 -18.59,33.14 -8.44,17.38 -15.2,34.31 -20.27,50.79 -12.33,40.02 -19.2,80.94 -20.61,122.75 -0.01,0.19 0.07,0.33 0.24,0.42 l 44.56,25.08 c 0.15,0.09 0.35,0.03 0.43,-0.12 0.04,-0.08 0.08,-0.17 0.11,-0.28 5.95,-27.86 14.4,-54.87 25.35,-81.03 1.83,-3.72 3.61,-7.45 5.35,-11.19 10.75,-23.08 24.57,-44 41.45,-62.77 16.47,-17.95 35.62,-31.96 57.46,-42.03 0.28,-0.13 0.33,-0.52 0.08,-0.7 l -41.46,-31.19 c -0.2,-0.14 -0.46,-0.14 -0.65,0 -6.99,5.69 -13.62,11.78 -19.88,18.28 -18.53,18.43 -33.09,39.49 -43.69,63.17 -3.49,8.05 -6.32,16.32 -8.47,24.82 -0.04,0.15 -0.14,0.21 -0.3,0.17 h -0.01 c -0.15,-0.03 -0.21,-0.13 -0.18,-0.29 4.64,-24.86 13.6,-48.04 26.89,-69.53 3.83,-6.21 7.87,-12.12 12.11,-17.73 9.15,-12 19.15,-23.15 30.02,-33.46 4.79,-4.49 9.76,-8.89 14.91,-13.21 11.94,-10.01 24.57,-19.05 37.88,-27.1 0.25,-0.15 0.29,-0.34 0.1,-0.57 l -51.19,-64.25 -42.5,-53.44 -22.1,-27.88 c -0.21,-0.27 -0.58,-0.34 -0.87,-0.18 -13.81,7.55 -27.93,13.95 -42.38,19.22 z m -94.4,427.02 c 2.41,24.67 -15.98,46.67 -40.91,48.02 -23.32,1.26 -43.79,-16.94 -45.4,-40.17 -1.4,-20.28 10.08,-37.91 29.29,-44.84 0.33,-0.12 0.49,-0.35 0.49,-0.7 v -36.79 c 0,-0.37 -0.39,-0.6 -0.71,-0.42 l -77.37,44.98 c -0.59,0.34 -0.78,1.11 -0.41,1.69 15.27,23.68 28.21,50.28 36.03,77.68 2.57,8.98 4.36,18.52 5.38,28.61 0.05,0.42 0.28,0.63 0.7,0.63 l 99.81,0.03 c 0.19,0 0.35,-0.14 0.37,-0.33 1.39,-13.4 4.34,-26.71 8.87,-39.93 7.78,-22.68 18.74,-45.02 32.87,-67.02 0.19,-0.3 0.11,-0.7 -0.18,-0.9 -1.22,-0.82 -2.43,-1.58 -3.63,-2.28 -23.93,-13.93 -48.71,-28.34 -74.36,-43.24 -0.23,-0.13 -0.52,0.03 -0.52,0.3 v 37.08 c 0,0.29 0.13,0.48 0.41,0.58 16.2,5.7 27.61,19.91 29.27,37.02 z m -167.62,18.31 c 0.29,-0.13 0.64,-0.06 0.86,0.17 l 14.76,15.48 c 0.16,0.16 0.39,0.21 0.6,0.13 l 20.83,-8.55 c 0.33,-0.13 0.48,-0.51 0.34,-0.83 -6.61,-14.71 -14.43,-29.15 -23.47,-43.32 -0.09,-0.14 -0.28,-0.18 -0.43,-0.1 l -72.11,40.49 c -0.3,0.17 -0.43,0.52 -0.33,0.85 l 11.96,36.93 c 0.1,0.3 0.43,0.45 0.72,0.33 l 12.11,-5.01 c 0.24,-0.1 0.4,-0.33 0.39,-0.59 l -0.74,-19.17 c -0.02,-0.65 0.26,-1.11 0.85,-1.38 z m 283.55,16.75 -0.69,19.04 c 0,0.42 0.17,0.71 0.56,0.87 l 12.03,4.98 c 0.26,0.11 0.55,-0.03 0.64,-0.29 l 11.94,-37.07 c 0.09,-0.3 -0.03,-0.62 -0.3,-0.77 l -72.19,-40.54 c -0.14,-0.08 -0.32,-0.04 -0.41,0.1 -8.87,13.82 -16.73,28.28 -23.6,43.37 -0.13,0.28 0,0.62 0.29,0.73 l 20.93,8.61 c 0.23,0.09 0.44,0.05 0.61,-0.13 l 14.91,-15.55 c 0.19,-0.2 0.48,-0.25 0.72,-0.14 l 33.76,15.5 c 0.55,0.25 0.82,0.68 0.8,1.29 z M 356.7,558.26 c 0,-12.49 -10.12,-22.61 -22.61,-22.61 -12.49,0 -22.61,10.12 -22.61,22.61 0,12.49 10.12,22.61 22.61,22.61 12.49,0 22.61,-10.12 22.61,-22.61 z m -93.47,94.56 c 0.83,-18.23 -1.93,-36.14 -8.29,-53.73 -0.08,-0.2 -0.31,-0.3 -0.51,-0.22 l -33.53,13.86 c -0.41,0.17 -0.89,0.07 -1.2,-0.26 l -13.99,-14.75 c -0.3,-0.32 -0.65,-0.39 -1.04,-0.2 l -7.83,3.64 c -0.27,0.13 -0.4,0.34 -0.39,0.64 l 0.72,20.18 c 0,0.36 -0.2,0.69 -0.54,0.83 l -8.9,3.53 c -0.34,0.14 -0.55,0.48 -0.52,0.84 0.79,10.63 1.3,21.39 1.52,32.26 0,0.43 0.24,0.65 0.67,0.65 34.85,-0.15 72.15,6.44 101.79,24.34 0.45,0.27 0.67,0.14 0.67,-0.37 v -30.04 c -0.01,-0.33 -0.17,-0.49 -0.5,-0.49 H 263.9 c -0.47,-0.01 -0.69,-0.24 -0.67,-0.71 z m 141.09,0.7 h -27.53 c -0.36,0.01 -0.54,0.19 -0.54,0.55 l 0.08,30.4 c 0,0.25 0.1,0.31 0.31,0.18 30.36,-18.32 67.12,-24.52 102.43,-24.61 0.17,0 0.3,-0.13 0.31,-0.29 l 1.48,-32.24 c 0.03,-0.59 -0.22,-1 -0.77,-1.22 l -8.33,-3.41 c -0.44,-0.18 -0.72,-0.62 -0.7,-1.09 l 0.77,-19.81 c 0.01,-0.37 -0.2,-0.71 -0.53,-0.87 l -7.81,-3.63 c -0.33,-0.15 -0.63,-0.1 -0.88,0.17 l -14.06,14.75 c -0.36,0.37 -0.9,0.49 -1.38,0.29 l -33.51,-13.88 c -0.15,-0.06 -0.32,0.01 -0.37,0.16 -4.09,11.53 -6.71,23.03 -7.86,34.5 -0.63,6.32 -0.41,13.06 -0.46,19.4 0,0.43 -0.22,0.65 -0.65,0.65 z m -48.92,0.47 c 0,-0.25 -0.21,-0.46 -0.46,-0.46 h -41.8 c -0.25,0 -0.46,0.21 -0.46,0.46 v 11.3 c 0,0.25 0.21,0.46 0.46,0.46 h 41.8 c 0.25,0 0.46,-0.21 0.46,-0.46 z m 0,26.18 c 0,-0.23 -0.19,-0.42 -0.42,-0.42 H 313.1 c -0.23,0 -0.42,0.19 -0.42,0.42 v 12.1 c 0,0.23 0.19,0.42 0.42,0.42 h 41.88 c 0.23,0 0.42,-0.19 0.42,-0.42 z m 0.02,26.83 c 0,-0.23 -0.18,-0.41 -0.41,-0.41 h -41.92 c -0.23,0 -0.41,0.18 -0.41,0.41 v 11.38 c 0,0.23 0.18,0.41 0.41,0.41 h 41.92 c 0.23,0 0.41,-0.18 0.41,-0.41 z m 3.03,33.26 c -0.08,-0.26 -0.33,-0.44 -0.61,-0.44 l -47.43,0.05 c -0.28,0 -0.53,0.18 -0.61,0.44 l -6.51,20.27 c -0.1,0.32 0.04,0.65 0.34,0.78 l 30.23,13.57 c 0.16,0.08 0.36,0.08 0.52,0 l 30.26,-13.56 c 0.29,-0.13 0.44,-0.46 0.34,-0.78 z"
       id="path9" />
    <path
       class="cls-4"
       d="m 334.27,295.02 c -0.01,-0.09 -0.06,-0.13 -0.15,-0.13 v 0 c -0.07,0 -0.11,0.04 -0.12,0.11 -3.14,52.25 -6.29,104.51 -9.44,156.78 0,0.19 -0.12,0.37 -0.29,0.47 l -58.73,34.19 c -0.33,0.2 -0.49,0.11 -0.48,-0.28 3.71,-78.1 11.5,-154.88 23.37,-230.34 10.47,-66.55 24.65,-132.74 45.15,-197.06 0.1,-0.31 0.26,-0.57 0.47,-0.8 0.11,-0.11 0.3,-0.07 0.35,0.08 16.96,52.24 29.64,107.21 39.16,161.01 15.37,86.85 25.22,175.94 29.57,267.26 0.01,0.18 -0.19,0.29 -0.34,0.2 l -58.77,-34.19 c -0.27,-0.16 -0.41,-0.4 -0.43,-0.71 -3.13,-52.15 -6.23,-104.35 -9.32,-156.59 z"
       id="path10" />
    <circle
       class="cls-3"
       cx="334.09"
       cy="558.26001"
       r="22.610001"
       id="circle10" />
    <path
       class="cls-1"
       d="m 193.83,125.92 -1.11,0.26 c -0.44,0.11 -0.5,0.32 -0.17,0.63 0.08,0.08 0.14,0.17 0.17,0.28 0.07,0.28 0.06,0.58 -0.01,0.91 -0.48,2.15 -0.62,4.31 -0.41,6.5 0.03,0.33 0,0.66 -0.11,0.97 -0.11,0.32 -0.18,0.65 -0.19,1 -0.17,4.99 -0.16,9.76 0.03,14.31 0.01,0.33 -0.11,0.59 -0.37,0.79 -0.25,0.19 -0.37,0.44 -0.38,0.76 -0.04,1.85 -0.04,3.64 0,5.37 0,0.23 -0.06,0.45 -0.17,0.66 -0.17,0.33 -0.11,0.59 0.2,0.79 0.19,0.11 0.21,0.26 0.08,0.43 -0.1,0.13 -0.15,0.27 -0.14,0.43 0.11,3.39 0.19,6.64 0.24,9.75 0.02,1.48 0.5,2.72 1.43,3.71 0.18,0.19 0.25,0.45 0.19,0.7 -0.23,1.11 0.01,2.06 0.7,2.85 0.16,0.18 0.18,0.38 0.07,0.6 -0.06,0.11 -0.1,0.23 -0.12,0.36 -0.04,0.35 0.07,0.65 0.34,0.9 0.36,0.33 0.51,0.76 0.44,1.27 -0.05,0.35 0.04,0.65 0.26,0.92 l 1,1.19 c -13.19,-4.71 -26.03,-10.1 -38.52,-16.18 -0.32,-0.16 -0.72,-0.06 -0.93,0.23 l -31.26,42.23 -2.37,0.93 c -0.33,0.13 -0.6,0.06 -0.83,-0.21 -0.19,-0.23 -0.49,-0.38 -0.9,-0.45 -0.78,-0.12 -0.82,-0.26 -0.13,-0.43 l 0.47,-0.11 c 0.32,-0.07 0.55,-0.35 0.56,-0.68 0.03,-1.01 0.33,-1.9 0.89,-2.67 0.23,-0.32 0.34,-0.68 0.32,-1.07 -0.07,-1.19 0.12,-2.37 0.58,-3.53 0.25,-0.63 0.39,-1.32 0.43,-2.09 0.03,-0.69 0.12,-1.41 0.26,-2.15 0.25,-1.29 0.35,-2.44 0.32,-3.43 -0.13,-3.98 -0.19,-7.92 -0.18,-11.83 0.01,-2.55 0.12,-5.13 0.35,-7.74 0.22,-2.54 0.33,-5.05 0.34,-7.54 0.01,-6.57 0.01,-13.14 0,-19.7 0,-0.33 0.11,-0.63 0.32,-0.89 1.03,-1.25 1.97,-2.5 2.83,-3.76 0.07,-0.09 0.04,-0.16 -0.07,-0.2 -0.03,0 -0.06,0 -0.09,0.02 -0.17,0.21 -0.21,0.18 -0.14,-0.07 0.13,-0.41 0.13,-0.81 0.02,-1.18 l 25.46,-32.01 c 0.17,-0.21 0.38,-0.25 0.61,-0.12 12.77,7.02 26.01,13.12 39.71,18.29 z m 343.13,9.81 -0.17,0.64 c -0.1,0.39 -0.23,0.41 -0.39,0.04 -0.11,-0.23 -0.24,-0.32 -0.41,-0.25 -0.17,0.07 -0.24,0.2 -0.19,0.38 0.09,0.35 0.26,0.64 0.51,0.85 0.06,0.04 0.11,0.03 0.15,-0.03 0.05,-0.08 0.11,-0.15 0.19,-0.2 0.07,-0.04 0.17,-0.02 0.21,0.05 0.2,0.34 0.21,0.68 0.03,1.01 -0.11,0.19 -0.1,0.38 0.02,0.57 0.44,0.66 0.94,1.2 1.49,1.61 0.21,0.15 0.32,0.36 0.34,0.62 0.07,1.02 -0.01,2.05 -0.26,3.09 -0.1,0.42 -0.15,0.85 -0.15,1.28 0,5.4 -0.04,10.85 -0.13,16.35 0,0.81 0.45,1.28 0.23,2.1 -0.12,0.43 -0.19,0.88 -0.2,1.34 -0.09,3.04 -0.03,6.16 0.18,9.35 0.12,1.71 -0.47,3.31 -0.35,5.07 0.25,3.52 -0.04,6.96 0.62,10.45 0.34,1.78 0.59,3.64 0.76,5.58 0.03,0.33 -0.05,0.63 -0.22,0.92 -0.41,0.7 -0.46,1.35 -0.15,1.96 0.9,1.77 0.78,3.18 -0.35,4.22 l -26.6,-36.19 c -0.33,-0.45 -0.93,-0.59 -1.43,-0.35 -11.39,5.55 -23,10.5 -34.81,14.84 -0.17,-0.87 -0.49,-1.24 -0.96,-1.09 -0.29,0.09 -0.54,0.01 -0.73,-0.23 -0.36,-0.45 -0.44,-0.92 -0.24,-1.4 0.11,-0.25 0.15,-0.5 0.13,-0.77 -0.05,-0.69 -0.12,-1.36 -0.23,-2.02 -0.12,-0.77 0.17,-1.33 0.87,-1.69 0.24,-0.13 0.32,-0.32 0.25,-0.58 -0.01,-0.04 -0.03,-0.06 -0.06,-0.07 -0.36,-0.14 -0.44,-0.37 -0.25,-0.69 0.2,-0.33 0.41,-0.66 0.64,-0.99 0.21,-0.29 0.29,-0.62 0.26,-0.99 -0.08,-0.9 -0.07,-1.82 0.04,-2.76 0.02,-0.17 0.1,-0.31 0.23,-0.4 0.19,-0.12 0.26,-0.29 0.23,-0.51 -0.23,-1.71 -0.37,-3.48 -0.4,-5.33 -0.01,-0.55 0.09,-1.07 0.3,-1.56 0.13,-0.31 0.19,-0.63 0.17,-0.96 -0.13,-2.59 -0.04,-5.02 0.28,-7.29 0.21,-1.54 0.29,-2.89 0.24,-4.06 -0.06,-1.24 -0.14,-2.45 -0.24,-3.62 -0.04,-0.45 0.09,-0.85 0.4,-1.19 0.22,-0.25 0.22,-0.49 0,-0.74 -0.46,-0.54 -0.54,-1.12 -0.25,-1.75 0.21,-0.43 0.16,-0.82 -0.14,-1.18 -0.78,-0.94 -1.17,-2.14 -1.11,-3.36 0.02,-0.41 -0.15,-0.72 -0.51,-0.92 -0.24,-0.14 -0.28,-0.33 -0.13,-0.56 0.44,-0.63 0.75,-1.4 0.93,-2.3 0.03,-0.17 -0.01,-0.32 -0.11,-0.45 -0.85,-1.11 -1.12,-2.33 -0.81,-3.68 0.08,-0.32 0.26,-0.39 0.54,-0.22 0.07,0.04 0.14,-0.01 0.19,-0.15 0.09,-0.21 0.02,-0.35 -0.2,-0.4 -1.13,-0.27 -2.33,-0.35 -3.61,-0.23 14.45,-5.27 28.57,-11.67 42.38,-19.22 0.29,-0.16 0.66,-0.09 0.87,0.18 l 22.1,27.88 z m -343.13,-9.81 c 30.02,11.16 61.61,17.73 93.79,17.99 0.44,0.01 0.77,0.42 0.67,0.85 -4.29,18.83 -8.07,36.81 -11.32,53.96 -0.07,0.35 -0.27,0.53 -0.62,0.56 -0.93,0.06 -1.85,0.06 -2.76,0 -26.52,-1.67 -52.89,-8.02 -77.8,-17.03 l -1,-1.19 c -0.22,-0.27 -0.31,-0.57 -0.26,-0.92 0.07,-0.51 -0.08,-0.94 -0.44,-1.27 -0.27,-0.25 -0.38,-0.55 -0.34,-0.9 0.02,-0.13 0.06,-0.25 0.12,-0.36 0.11,-0.22 0.09,-0.42 -0.07,-0.6 -0.69,-0.79 -0.93,-1.74 -0.7,-2.85 0.06,-0.25 -0.01,-0.51 -0.19,-0.7 -0.93,-0.99 -1.41,-2.23 -1.43,-3.71 -0.05,-3.11 -0.13,-6.36 -0.24,-9.75 -0.01,-0.16 0.04,-0.3 0.14,-0.43 0.13,-0.17 0.11,-0.32 -0.08,-0.43 -0.31,-0.2 -0.37,-0.46 -0.2,-0.79 0.11,-0.21 0.17,-0.43 0.17,-0.66 -0.03,-1.73 -0.03,-3.52 0,-5.37 0.01,-0.32 0.13,-0.57 0.38,-0.76 0.26,-0.2 0.38,-0.46 0.37,-0.79 -0.19,-4.55 -0.2,-9.32 -0.03,-14.31 0.01,-0.35 0.08,-0.68 0.19,-1 0.11,-0.31 0.14,-0.64 0.11,-0.97 -0.21,-2.19 -0.07,-4.35 0.41,-6.5 0.07,-0.33 0.08,-0.63 0.01,-0.91 -0.03,-0.11 -0.09,-0.2 -0.17,-0.28 -0.33,-0.31 -0.27,-0.52 0.17,-0.63 l 1.11,-0.26 z m 277.78,0.97 c 1.28,-0.12 2.48,-0.04 3.61,0.23 0.22,0.05 0.29,0.19 0.2,0.4 -0.05,0.14 -0.12,0.19 -0.19,0.15 -0.28,-0.17 -0.46,-0.1 -0.54,0.22 -0.31,1.35 -0.04,2.57 0.81,3.68 0.1,0.13 0.14,0.28 0.11,0.45 -0.18,0.9 -0.49,1.67 -0.93,2.3 -0.15,0.23 -0.11,0.42 0.13,0.56 0.36,0.2 0.53,0.51 0.51,0.92 -0.06,1.22 0.33,2.42 1.11,3.36 0.3,0.36 0.35,0.75 0.14,1.18 -0.29,0.63 -0.21,1.21 0.25,1.75 0.21,0.25 0.21,0.49 0,0.74 -0.31,0.34 -0.44,0.74 -0.4,1.19 0.1,1.17 0.18,2.38 0.24,3.62 0.05,1.17 -0.03,2.52 -0.24,4.06 -0.32,2.27 -0.41,4.7 -0.28,7.29 0.02,0.33 -0.04,0.65 -0.17,0.96 -0.21,0.49 -0.31,1.01 -0.3,1.56 0.03,1.85 0.17,3.62 0.4,5.33 0.03,0.22 -0.04,0.39 -0.23,0.51 -0.13,0.09 -0.21,0.23 -0.23,0.4 -0.11,0.94 -0.12,1.86 -0.04,2.76 0.03,0.37 -0.05,0.7 -0.26,0.99 -0.23,0.33 -0.44,0.66 -0.64,0.99 -0.19,0.32 -0.11,0.55 0.25,0.69 0.03,0 0.05,0.03 0.06,0.07 0.07,0.26 -0.01,0.45 -0.25,0.58 -0.7,0.36 -0.99,0.92 -0.87,1.69 0.11,0.66 0.18,1.33 0.23,2.02 0.02,0.27 -0.02,0.52 -0.13,0.77 -0.2,0.48 -0.12,0.95 0.24,1.4 0.19,0.24 0.44,0.32 0.73,0.23 0.47,-0.15 0.79,0.22 0.96,1.09 -26.66,10 -55.36,17.04 -83.87,18.38 -0.24,0.01 -0.46,-0.15 -0.51,-0.39 l -11.44,-54.64 c -0.07,-0.33 0.07,-0.5 0.4,-0.5 30.87,0.06 62.25,-6.43 91.15,-16.99 z m 65.35,8.84 42.5,53.44 c -0.51,-0.39 -1.06,0.07 -1.65,1.38 -0.25,0.57 -0.37,1.23 -0.34,1.98 0.09,2.39 0.13,4.77 0.12,7.16 -0.01,1.71 0.03,3.41 0.12,5.1 0.13,2.63 -0.29,5.19 -0.05,7.8 0.07,0.76 0.09,1.65 0.07,2.67 -0.11,5.53 -0.12,11.7 -0.03,18.5 0.01,0.99 0.05,1.99 0.1,3 0.05,0.99 0.07,1.98 0.06,2.99 -0.01,1.65 0.04,3.39 0.15,5.21 0.1,1.63 0.12,3.36 0.06,5.19 -0.14,4.09 -0.21,8.12 -0.22,12.11 -0.01,4.5 -0.04,9 -0.1,13.51 -0.02,1.65 -0.77,2.89 -0.77,4.35 0.01,1.59 -0.32,4.63 0.12,6.04 0.07,0.21 0.04,0.42 -0.07,0.61 -0.17,0.29 -0.23,0.61 -0.18,0.95 l 0.91,6.58 c -10.87,10.31 -20.87,21.46 -30.02,33.46 l -0.67,-3.95 c -0.05,-0.31 0,-0.62 0.11,-0.9 0.6,-1.32 0.73,-2.6 0.38,-3.84 -0.34,-1.25 -0.51,-2.5 -0.51,-3.77 0,-1.6 -0.13,-3.09 -0.39,-4.47 -0.31,-1.71 -0.43,-3.35 -0.35,-4.91 0.22,-4.13 0.24,-8.6 0.07,-13.4 -0.07,-1.84 -0.01,-3.64 0.18,-5.39 0,-0.11 0.07,-0.19 0.18,-0.24 0.03,-0.01 0.07,-0.02 0.1,-0.01 0.17,0.05 0.25,-0.01 0.23,-0.19 -0.39,-4.12 -0.54,-8.56 -0.46,-13.31 0.03,-1.75 -0.09,-3.57 -0.37,-5.46 -0.16,-1.1 -0.26,-2.2 -0.31,-3.29 -0.04,-1.04 -0.23,-2.12 -0.56,-3.24 -0.02,-0.07 -0.05,-0.12 -0.1,-0.17 -0.08,-0.09 -0.13,-0.05 -0.14,0.14 -0.01,0.21 -0.12,0.31 -0.34,0.29 -0.39,-0.03 -0.66,-0.26 -0.83,-0.68 7.01,-7.08 14.72,-13.19 23.11,-18.34 0.37,-0.23 0.46,-0.72 0.21,-1.06 l -28.56,-38.84 c 1.13,-1.04 1.25,-2.45 0.35,-4.22 -0.31,-0.61 -0.26,-1.26 0.15,-1.96 0.17,-0.29 0.25,-0.59 0.22,-0.92 -0.17,-1.94 -0.42,-3.8 -0.76,-5.58 -0.66,-3.49 -0.37,-6.93 -0.62,-10.45 -0.12,-1.76 0.47,-3.36 0.35,-5.07 -0.21,-3.19 -0.27,-6.31 -0.18,-9.35 0.01,-0.46 0.08,-0.91 0.2,-1.34 0.22,-0.82 -0.24,-1.29 -0.23,-2.1 0.09,-5.5 0.13,-10.95 0.13,-16.35 0,-0.43 0.05,-0.86 0.15,-1.28 0.25,-1.04 0.33,-2.07 0.26,-3.09 -0.02,-0.26 -0.13,-0.47 -0.34,-0.62 -0.55,-0.41 -1.05,-0.95 -1.49,-1.61 -0.12,-0.19 -0.13,-0.38 -0.02,-0.57 0.18,-0.33 0.17,-0.67 -0.03,-1.01 -0.04,-0.07 -0.14,-0.09 -0.21,-0.05 -0.08,0.05 -0.14,0.12 -0.19,0.2 -0.04,0.06 -0.09,0.07 -0.15,0.03 -0.25,-0.21 -0.42,-0.5 -0.51,-0.85 -0.05,-0.18 0.02,-0.31 0.19,-0.38 0.17,-0.07 0.3,0.02 0.41,0.25 0.16,0.37 0.29,0.35 0.39,-0.04 z m -408.91,4.03 c 0.11,0.37 0.11,0.77 -0.02,1.18 -0.07,0.25 -0.03,0.28 0.14,0.07 0.03,-0.03 0.06,-0.03 0.09,-0.02 0.11,0.04 0.14,0.11 0.07,0.2 -0.86,1.26 -1.8,2.51 -2.83,3.76 -0.21,0.26 -0.32,0.56 -0.32,0.89 0.02,6.56 0.02,13.13 0,19.7 0,2.49 -0.12,5 -0.34,7.54 -0.23,2.61 -0.34,5.19 -0.35,7.74 0,3.91 0.05,7.85 0.18,11.83 0.03,0.99 -0.07,2.14 -0.32,3.43 -0.14,0.74 -0.23,1.46 -0.26,2.15 -0.04,0.77 -0.18,1.46 -0.43,2.09 -0.46,1.16 -0.65,2.34 -0.58,3.53 0.02,0.39 -0.09,0.75 -0.32,1.07 -0.56,0.77 -0.86,1.66 -0.89,2.67 0,0.33 -0.24,0.61 -0.56,0.68 l -0.47,0.11 c -0.69,0.17 -0.65,0.31 0.13,0.43 0.41,0.07 0.71,0.22 0.9,0.45 0.23,0.27 0.5,0.34 0.83,0.21 l 2.37,-0.93 -23.99,32.71 c -0.49,0.67 -0.38,1.22 0.33,1.65 5.81,3.47 11.31,7.5 16.49,12.07 l -2.71,0.2 c -0.34,0.02 -0.55,0.2 -0.64,0.53 -0.27,1.03 -0.32,2.07 -0.17,3.13 0.15,1.07 0.24,2.21 0.26,3.4 0.08,4.87 0.17,9.7 0.28,14.48 0.05,2.14 -0.32,4.21 -0.2,6.32 0.02,0.35 -0.15,0.56 -0.5,0.61 -0.43,0.07 -0.67,0.33 -0.74,0.79 -0.05,0.38 0,0.74 0.16,1.08 0.15,0.33 0.15,0.67 -0.02,1 -0.2,0.4 -0.09,0.53 0.34,0.39 0.09,-0.03 0.19,-0.06 0.29,-0.07 0.38,-0.04 0.56,0.13 0.55,0.51 -0.31,9.21 -0.27,17.45 0.13,24.72 0.05,0.8 -0.07,1.49 -0.34,2.06 -0.14,0.29 -0.2,0.6 -0.17,0.92 l 0.1,1.24 c 0.02,0.29 -0.11,0.49 -0.38,0.6 -0.49,0.2 -0.96,0.59 -1.4,1.18 -11.87,-14.17 -24.98,-27.08 -39.33,-38.73 -0.85,-1.21 -0.81,-2.56 0.1,-4.04 0.17,-0.28 0.25,-0.59 0.24,-0.92 -0.25,-5.31 -0.32,-10.53 -0.21,-15.66 0.11,-5.03 0.1,-10.29 -0.03,-15.78 -0.11,-4.71 -0.04,-9.26 0.21,-13.64 0.13,-2.19 0.15,-4.53 0.08,-7.02 -0.08,-2.5 -0.04,-4.84 0.13,-7.03 0.04,-0.46 -0.16,-0.97 -0.46,-1.31 -0.24,-0.27 -0.28,-0.57 -0.13,-0.9 0.15,-0.32 0.18,-0.65 0.08,-0.99 -0.15,-0.5 -0.35,-0.52 -0.6,-0.06 -0.54,1 -1.22,1.82 -2.03,2.46 -0.22,0.17 -0.34,0.44 -0.3,0.72 0.03,0.23 -0.02,0.42 -0.15,0.59 -1.03,1.35 -2.22,2.53 -3.58,3.56 0,0 -0.03,0 -0.05,0 0,-0.02 0,-0.04 0,-0.05 0.71,-1.07 1.45,-2.15 2.22,-3.26 0.21,-0.29 0.36,-0.61 0.46,-0.95 0.1,-0.35 0.32,-0.61 0.65,-0.79 0.21,-0.11 0.38,-0.29 0.48,-0.5 l 1.06,-2.17 c 0.16,-0.33 0.39,-0.6 0.69,-0.81 1.43,-1.01 2.26,-2.36 2.49,-4.05 l 53.28,-66.97 z m 451.41,49.41 51.19,64.25 c 0.19,0.23 0.15,0.42 -0.1,0.57 -13.31,8.05 -25.94,17.09 -37.88,27.1 -5.15,4.32 -10.12,8.72 -14.91,13.21 l -0.91,-6.58 c -0.05,-0.34 0.01,-0.66 0.18,-0.95 0.11,-0.19 0.14,-0.4 0.07,-0.61 -0.44,-1.41 -0.11,-4.45 -0.12,-6.04 0,-1.46 0.75,-2.7 0.77,-4.35 0.06,-4.51 0.09,-9.01 0.1,-13.51 0.01,-3.99 0.08,-8.02 0.22,-12.11 0.06,-1.83 0.04,-3.56 -0.06,-5.19 -0.11,-1.82 -0.16,-3.56 -0.15,-5.21 0.01,-1.01 -0.01,-2 -0.06,-2.99 -0.05,-1.01 -0.09,-2.01 -0.1,-3 -0.09,-6.8 -0.08,-12.97 0.03,-18.5 0.02,-1.02 0,-1.91 -0.07,-2.67 -0.24,-2.61 0.18,-5.17 0.05,-7.8 -0.09,-1.69 -0.13,-3.39 -0.12,-5.1 0.01,-2.39 -0.03,-4.77 -0.12,-7.16 -0.03,-0.75 0.09,-1.41 0.34,-1.98 0.59,-1.31 1.14,-1.77 1.65,-1.38 z M 74.77,206.73 c -0.23,1.69 -1.06,3.04 -2.49,4.05 -0.3,0.21 -0.53,0.48 -0.69,0.81 l -1.06,2.17 c -0.1,0.21 -0.27,0.39 -0.48,0.5 -0.33,0.18 -0.55,0.44 -0.65,0.79 -0.1,0.34 -0.25,0.66 -0.46,0.95 -0.77,1.11 -1.51,2.19 -2.22,3.26 0,0 0,0.03 0,0.05 0.02,0 0.04,0 0.05,0 1.36,-1.03 2.55,-2.21 3.58,-3.56 0.13,-0.17 0.18,-0.36 0.15,-0.59 -0.04,-0.28 0.08,-0.55 0.3,-0.72 0.81,-0.64 1.49,-1.46 2.03,-2.46 0.25,-0.46 0.45,-0.44 0.6,0.06 0.1,0.34 0.07,0.67 -0.08,0.99 -0.15,0.33 -0.11,0.63 0.13,0.9 0.3,0.34 0.5,0.85 0.46,1.31 -0.17,2.19 -0.21,4.53 -0.13,7.03 0.07,2.49 0.05,4.83 -0.08,7.02 -0.25,4.38 -0.32,8.93 -0.21,13.64 0.13,5.49 0.14,10.75 0.03,15.78 -0.11,5.13 -0.04,10.35 0.21,15.66 0,0.33 -0.07,0.64 -0.24,0.92 -0.91,1.48 -0.95,2.83 -0.1,4.04 -11.43,-9.29 -23.37,-17.78 -35.81,-25.45 -0.13,-0.08 -0.16,-0.25 -0.06,-0.37 z m 43.14,48.24 c 24.46,22.23 43.92,49.77 58.79,79.29 27.4,54.38 40.78,116.33 43.35,177.92 0.02,0.45 -0.17,0.79 -0.56,1.01 l -44.35,24.85 c -0.25,0.14 -0.57,-0.01 -0.63,-0.29 -7.62,-36.37 -19.54,-72.19 -37.03,-104.99 0.47,-0.19 0.39,-0.59 -0.24,-1.21 -0.37,-0.37 -0.32,-0.66 0.17,-0.86 0.27,-0.11 0.54,-0.23 0.79,-0.35 0.47,-0.22 0.61,-0.57 0.4,-1.04 -0.65,-1.49 -0.65,-3.28 -0.02,-5.37 0.22,-0.75 0.33,-1.53 0.33,-2.35 0,-0.69 0.1,-1.37 0.31,-2.04 0.11,-0.35 0.07,-0.68 -0.1,-1 -0.53,-0.95 -0.78,-2.07 -0.77,-3.34 0,-0.14 0.06,-0.25 0.19,-0.32 0.03,-0.03 0.07,-0.03 0.12,-0.01 0.4,0.17 0.61,0.03 0.63,-0.4 0.09,-2.33 -0.01,-4.58 -0.3,-6.73 -0.05,-0.31 0,-0.64 0.13,-0.93 0.6,-1.32 0.74,-2.67 0.43,-4.06 -0.07,-0.33 -0.05,-0.66 0.07,-0.98 0.2,-0.52 0.19,-1.03 -0.04,-1.54 -0.14,-0.31 -0.16,-0.62 -0.06,-0.95 0.19,-0.58 0.26,-1.25 0.23,-2.02 -0.2,-5.07 -0.51,-9.62 -0.93,-13.67 -0.05,-0.45 -0.27,-0.6 -0.66,-0.45 -0.17,0.07 -0.33,-0.01 -0.49,-0.23 -0.19,-0.26 -0.29,-0.55 -0.29,-0.88 0.02,-2.02 0,-4.32 -0.04,-6.9 -0.01,-0.54 0.07,-1.04 0.25,-1.51 0.21,-0.56 0.34,-1.16 0.39,-1.8 0.02,-0.29 0.18,-0.48 0.48,-0.56 0.47,-0.13 0.62,0.04 0.43,0.49 -0.12,0.28 -0.06,0.52 0.17,0.72 0.13,0.11 0.23,0.09 0.31,-0.06 0.11,-0.21 0.25,-0.22 0.43,-0.04 0.1,0.1 0.16,0.08 0.19,-0.06 0.03,-0.13 0,-0.22 -0.12,-0.28 -0.19,-0.11 -0.21,-0.25 -0.07,-0.42 0.19,-0.23 0.55,-0.3 1.1,-0.21 7.88,13.85 13.95,28.44 18.21,43.78 0.03,0.11 0.1,0.16 0.21,0.13 v 0 c 0.11,-0.03 0.15,-0.1 0.13,-0.21 -6.41,-35.86 -22.68,-68.47 -46.71,-97.04 0.44,-0.59 0.91,-0.98 1.4,-1.18 0.27,-0.11 0.4,-0.31 0.38,-0.6 l -0.1,-1.24 c -0.03,-0.32 0.03,-0.63 0.17,-0.92 0.27,-0.57 0.39,-1.26 0.34,-2.06 -0.4,-7.27 -0.44,-15.51 -0.13,-24.72 0,-0.38 -0.17,-0.55 -0.55,-0.51 -0.1,0 -0.2,0.04 -0.29,0.07 -0.43,0.14 -0.54,0 -0.34,-0.39 0.17,-0.33 0.17,-0.67 0.02,-1 -0.16,-0.34 -0.21,-0.7 -0.16,-1.08 0.07,-0.46 0.31,-0.72 0.74,-0.79 0.35,-0.05 0.52,-0.26 0.5,-0.61 -0.12,-2.11 0.25,-4.18 0.2,-6.32 -0.11,-4.78 -0.2,-9.61 -0.28,-14.48 -0.02,-1.19 -0.11,-2.33 -0.26,-3.4 -0.15,-1.06 -0.1,-2.1 0.17,-3.13 0.09,-0.33 0.3,-0.51 0.64,-0.53 l 2.71,-0.2 z m 426.05,6 c 0.17,0.42 0.44,0.65 0.83,0.68 0.22,0.02 0.33,-0.08 0.34,-0.29 0,-0.19 0.06,-0.23 0.14,-0.14 0.05,0.05 0.08,0.1 0.1,0.17 0.33,1.12 0.52,2.2 0.56,3.24 0.05,1.09 0.15,2.19 0.31,3.29 0.28,1.89 0.4,3.71 0.37,5.46 -0.08,4.75 0.07,9.19 0.46,13.31 0.02,0.18 -0.06,0.24 -0.23,0.19 -0.03,-0.01 -0.07,0 -0.1,0.01 -0.11,0.05 -0.17,0.13 -0.18,0.24 -0.19,1.75 -0.25,3.55 -0.18,5.39 0.17,4.8 0.15,9.27 -0.07,13.4 -0.08,1.56 0.04,3.2 0.35,4.91 0.26,1.38 0.39,2.87 0.39,4.47 0,1.27 0.17,2.52 0.51,3.77 0.35,1.24 0.22,2.52 -0.38,3.84 -0.12,0.28 -0.16,0.59 -0.11,0.9 l 0.67,3.95 c -4.24,5.61 -8.28,11.52 -12.11,17.73 -13.29,21.49 -22.25,44.67 -26.89,69.53 -0.03,0.16 0.03,0.26 0.18,0.29 h 0.01 c 0.16,0.04 0.26,-0.02 0.3,-0.17 2.15,-8.5 4.98,-16.77 8.47,-24.82 0.25,0.77 0.25,1.61 0,2.54 -0.02,0.05 -0.01,0.06 0.04,0.04 0.03,-0.01 -0.01,-0.08 -0.14,-0.19 -0.03,-0.03 -0.03,-0.07 0.01,-0.1 0.66,-0.5 0.96,-1.13 0.9,-1.9 -0.04,-0.57 0.18,-0.72 0.67,-0.43 0.25,0.15 0.46,0.11 0.63,-0.1 0.23,-0.28 0.38,-0.24 0.43,0.12 0.02,0.16 0,0.31 -0.06,0.46 -0.11,0.26 -0.03,0.35 0.24,0.26 0.54,-0.18 1.01,-0.02 1.42,0.49 0.22,0.26 0.22,0.64 0.01,0.9 l -1.05,1.31 c -0.21,0.27 -0.3,0.58 -0.25,0.91 0.14,0.98 0.46,1.9 0.95,2.77 0.09,0.17 0.08,0.37 -0.03,0.53 -0.37,0.52 -0.39,1.08 -0.07,1.68 0.15,0.28 0.11,0.53 -0.14,0.74 -0.13,0.11 -0.23,0.25 -0.28,0.42 -0.11,0.34 0.01,0.45 0.34,0.34 0.17,-0.05 0.33,0.05 0.46,0.32 0.14,0.29 0.2,0.59 0.18,0.9 -0.42,5.39 -0.32,11.03 0.31,16.94 0.16,1.47 0.24,2.97 0.23,4.5 -0.01,1.5 -0.04,2.98 -0.1,4.44 -0.02,0.45 -0.2,0.82 -0.55,1.11 -0.05,0.04 -0.06,0.09 -0.03,0.15 0.05,0.1 0.11,0.16 0.2,0.17 0.26,0.05 0.4,0.21 0.41,0.48 0.19,3.61 0.45,7.16 0.79,10.66 0.13,1.31 0.01,2.61 -0.34,3.9 -0.09,0.29 -0.09,0.59 -0.02,0.88 0.08,0.36 -0.04,0.62 -0.37,0.78 -0.25,0.13 -0.27,0.29 -0.06,0.48 0.31,0.27 0.36,0.56 0.13,0.88 -1.04,1.49 -1.94,3.54 -2.69,6.15 -0.02,0.07 -0.06,0.13 -0.11,0.17 -0.79,0.67 -1.02,1.58 -0.71,2.72 -10.95,26.16 -19.4,53.17 -25.35,81.03 0.07,-1.44 -0.18,-2.44 -0.75,-2.99 -0.24,-0.23 -0.34,-0.5 -0.31,-0.83 0.07,-0.85 0.3,-1.6 0.69,-2.26 0.16,-0.28 0.21,-0.58 0.15,-0.9 -0.13,-0.74 0.01,-1.42 0.43,-2.05 0.16,-0.23 0.16,-0.46 0.01,-0.69 l -0.15,-0.24 c -0.15,-0.24 -0.2,-0.53 -0.12,-0.8 0.27,-0.91 0.34,-1.82 0.22,-2.74 -0.16,-1.17 0.09,-1.92 0.34,-2.99 0.03,-0.15 -0.02,-0.2 -0.17,-0.17 -0.03,0.01 -0.06,0.03 -0.09,0.04 -0.26,0.15 -0.4,0.08 -0.43,-0.22 -0.3,-3.43 -0.29,-6.9 0.03,-10.41 0.12,-1.33 -0.12,-2.6 -0.1,-3.94 0,-0.23 0.06,-0.46 0.16,-0.67 0.13,-0.28 0.1,-0.55 -0.09,-0.8 -0.2,-0.26 -0.3,-0.55 -0.3,-0.88 l -0.03,-11.2 c 0,-0.37 -0.09,-0.71 -0.26,-1.03 -0.23,-0.45 -0.32,-0.9 -0.29,-1.37 0.03,-0.37 0.16,-0.71 0.39,-1.01 0.17,-0.21 0.23,-0.45 0.19,-0.7 -0.04,-0.3 -0.16,-0.56 -0.37,-0.78 -0.51,-0.56 -0.57,-1.41 -0.15,-2.04 0.49,-0.73 0.52,-1.49 0.11,-2.27 -0.28,-0.51 -0.42,-1.06 -0.42,-1.66 0,-0.65 0.09,-1.29 0.28,-1.9 0.21,-0.69 0.32,-1.39 0.32,-2.09 -0.09,-14.9 -0.06,-30.21 0.1,-45.93 0.1,-9.85 0.1,-19.6 0.01,-29.24 -0.1,-11.07 -0.14,-23.05 -0.12,-35.92 0.01,-2.42 0.09,-4.64 0.26,-6.66 0.29,-3.35 0.39,-5.58 0.3,-6.68 -0.19,-2.55 -0.38,-5.2 -0.55,-7.95 -0.05,-0.84 -0.21,-1.65 -0.48,-2.42 -0.54,-1.55 -0.2,-3.16 -0.7,-4.81 -0.12,-0.39 -0.37,-0.5 -0.74,-0.32 l -1.83,0.88 c 5.59,-11.43 11.78,-22.47 18.59,-33.14 10.43,-16.35 22.47,-31.35 36.14,-45.02 z M 140.9,371.4 c -0.55,-0.09 -0.91,-0.02 -1.1,0.21 -0.14,0.17 -0.12,0.31 0.07,0.42 0.11,0.06 0.15,0.15 0.12,0.28 -0.03,0.14 -0.09,0.16 -0.19,0.06 -0.18,-0.18 -0.32,-0.17 -0.43,0.04 -0.08,0.15 -0.18,0.17 -0.31,0.06 -0.23,-0.2 -0.29,-0.44 -0.17,-0.72 0.19,-0.45 0.04,-0.62 -0.43,-0.49 -0.3,0.08 -0.46,0.27 -0.48,0.56 -0.05,0.64 -0.18,1.24 -0.39,1.8 -0.18,0.47 -0.26,0.97 -0.25,1.51 0.05,2.58 0.06,4.88 0.04,6.9 0,0.33 0.1,0.62 0.29,0.88 0.16,0.22 0.32,0.3 0.49,0.23 0.39,-0.15 0.61,0 0.66,0.45 0.42,4.05 0.73,8.6 0.93,13.67 0.03,0.77 -0.04,1.44 -0.23,2.02 -0.1,0.33 -0.08,0.64 0.06,0.95 0.23,0.51 0.24,1.02 0.04,1.54 -0.12,0.32 -0.14,0.65 -0.07,0.98 0.31,1.39 0.17,2.74 -0.43,4.06 -0.13,0.29 -0.18,0.62 -0.13,0.93 0.29,2.15 0.39,4.4 0.3,6.73 -0.02,0.43 -0.23,0.57 -0.63,0.4 -0.05,-0.02 -0.09,-0.02 -0.12,0.01 -0.13,0.07 -0.19,0.18 -0.19,0.32 0,1.27 0.24,2.39 0.77,3.34 0.17,0.32 0.21,0.65 0.1,1 -0.21,0.67 -0.32,1.35 -0.31,2.04 0,0.82 -0.11,1.6 -0.33,2.35 -0.63,2.09 -0.63,3.88 0.02,5.37 0.21,0.47 0.07,0.82 -0.4,1.04 -0.25,0.12 -0.52,0.24 -0.79,0.35 -0.49,0.2 -0.54,0.49 -0.17,0.86 0.63,0.62 0.71,1.02 0.24,1.21 -7.26,-13.62 -16.12,-26.97 -26.57,-40.05 -17.99,-22.51 -39.98,-39.84 -65.97,-52 -0.25,-0.12 -0.29,-0.46 -0.07,-0.63 L 86.33,308.8 c 0.09,-0.07 0.21,-0.07 0.29,0 21.99,17.53 40.09,38.39 54.28,62.6 z m 424.94,11.38 0.17,-0.38 c 0.1,-0.22 0.04,-0.39 -0.18,-0.5 -0.14,-0.07 -0.25,-0.06 -0.32,0.03 -0.27,0.36 -0.43,0.32 -0.48,-0.13 -0.21,-1.81 -0.38,-3.62 -0.51,-5.44 -0.11,-1.55 -0.96,-2.83 -0.36,-4.4 0.11,-0.31 0.14,-0.62 0.08,-0.94 -0.34,-1.82 -0.46,-3.74 -0.36,-5.77 0.12,-2.35 0.23,-4.69 0.33,-7.03 0.07,-1.73 -0.46,-3.8 -0.16,-5.81 0.19,-1.27 -0.2,-2.36 -0.13,-3.66 0.19,-3.34 0.16,-6.67 -0.08,-9.98 -0.11,-1.45 0.41,-2.68 -0.05,-4.09 -0.09,-0.29 -0.1,-0.57 -0.01,-0.86 0.54,-1.77 0.51,-3.57 -0.08,-5.39 -0.02,-0.04 0,-0.07 0.04,-0.09 0.11,-0.05 0.18,-0.14 0.21,-0.27 0.01,-0.07 0,-0.15 -0.05,-0.21 -0.55,-0.73 -1.38,-0.96 -2.51,-0.71 6.26,-6.5 12.89,-12.59 19.88,-18.28 0.19,-0.15 0.45,-0.15 0.65,0 l 41.46,31.19 c 0.25,0.18 0.2,0.57 -0.08,0.7 -21.84,10.07 -40.99,24.08 -57.46,42.03 z m 0,0 c -16.88,18.77 -30.7,39.69 -41.45,62.77 -1.74,3.74 -3.52,7.47 -5.35,11.19 -0.31,-1.14 -0.08,-2.05 0.71,-2.72 0.05,-0.04 0.09,-0.1 0.11,-0.17 0.75,-2.61 1.65,-4.66 2.69,-6.15 0.23,-0.32 0.18,-0.61 -0.13,-0.88 -0.21,-0.19 -0.19,-0.35 0.06,-0.48 0.33,-0.16 0.45,-0.42 0.37,-0.78 -0.07,-0.29 -0.07,-0.59 0.02,-0.88 0.35,-1.29 0.47,-2.59 0.34,-3.9 -0.34,-3.5 -0.6,-7.05 -0.79,-10.66 -0.01,-0.27 -0.15,-0.43 -0.41,-0.48 -0.09,-0.01 -0.15,-0.07 -0.2,-0.17 -0.03,-0.06 -0.02,-0.11 0.03,-0.15 0.35,-0.29 0.53,-0.66 0.55,-1.11 0.06,-1.46 0.09,-2.94 0.1,-4.44 0.01,-1.53 -0.07,-3.03 -0.23,-4.5 -0.63,-5.91 -0.73,-11.55 -0.31,-16.94 0.02,-0.31 -0.04,-0.61 -0.18,-0.9 -0.13,-0.27 -0.29,-0.37 -0.46,-0.32 -0.33,0.11 -0.45,0 -0.34,-0.34 0.05,-0.17 0.15,-0.31 0.28,-0.42 0.25,-0.21 0.29,-0.46 0.14,-0.74 -0.32,-0.6 -0.3,-1.16 0.07,-1.68 0.11,-0.16 0.12,-0.36 0.03,-0.53 -0.49,-0.87 -0.81,-1.79 -0.95,-2.77 -0.05,-0.33 0.04,-0.64 0.25,-0.91 l 1.05,-1.31 c 0.21,-0.26 0.21,-0.64 -0.01,-0.9 -0.41,-0.51 -0.88,-0.67 -1.42,-0.49 -0.27,0.09 -0.35,0 -0.24,-0.26 0.06,-0.15 0.08,-0.3 0.06,-0.46 -0.05,-0.36 -0.2,-0.4 -0.43,-0.12 -0.17,0.21 -0.38,0.25 -0.63,0.1 -0.49,-0.29 -0.71,-0.14 -0.67,0.43 0.06,0.77 -0.24,1.4 -0.9,1.9 -0.04,0.03 -0.04,0.07 -0.01,0.1 0.13,0.11 0.17,0.18 0.14,0.19 -0.05,0.02 -0.06,0 -0.04,-0.04 0.26,-0.93 0.26,-1.77 0,-2.54 10.6,-23.68 25.16,-44.74 43.69,-63.17 1.13,-0.25 1.96,-0.02 2.51,0.71 0.04,0.06 0.06,0.14 0.05,0.21 -0.03,0.13 -0.1,0.22 -0.21,0.27 -0.05,0.02 -0.06,0.05 -0.04,0.09 0.59,1.82 0.62,3.62 0.08,5.39 -0.09,0.29 -0.08,0.57 0.01,0.86 0.46,1.41 -0.06,2.64 0.05,4.09 0.24,3.31 0.27,6.64 0.08,9.98 -0.07,1.3 0.32,2.39 0.13,3.66 -0.3,2.01 0.23,4.08 0.16,5.81 -0.1,2.34 -0.21,4.68 -0.33,7.03 -0.1,2.03 0.02,3.95 0.36,5.77 0.06,0.32 0.03,0.63 -0.08,0.94 -0.6,1.57 0.25,2.85 0.36,4.4 0.13,1.82 0.3,3.63 0.51,5.44 0.05,0.45 0.21,0.49 0.48,0.13 0.07,-0.09 0.18,-0.1 0.32,-0.03 0.22,0.11 0.28,0.28 0.18,0.5 l -0.17,0.38 z m -72.15,154.99 c -0.03,0.11 -0.07,0.2 -0.11,0.28 -0.08,0.15 -0.28,0.21 -0.43,0.12 l -44.56,-25.08 c -0.17,-0.09 -0.25,-0.23 -0.24,-0.42 1.41,-41.81 8.28,-82.73 20.61,-122.75 5.07,-16.48 11.83,-33.41 20.27,-50.79 l 1.83,-0.88 c 0.37,-0.18 0.62,-0.07 0.74,0.32 0.5,1.65 0.16,3.26 0.7,4.81 0.27,0.77 0.43,1.58 0.48,2.42 0.17,2.75 0.36,5.4 0.55,7.95 0.09,1.1 -0.01,3.33 -0.3,6.68 -0.17,2.02 -0.25,4.24 -0.26,6.66 -0.02,12.87 0.02,24.85 0.12,35.92 0.09,9.64 0.09,19.39 -0.01,29.24 -0.16,15.72 -0.19,31.03 -0.1,45.93 0,0.7 -0.11,1.4 -0.32,2.09 -0.19,0.61 -0.28,1.25 -0.28,1.9 0,0.6 0.14,1.15 0.42,1.66 0.41,0.78 0.38,1.54 -0.11,2.27 -0.42,0.63 -0.36,1.48 0.15,2.04 0.21,0.22 0.33,0.48 0.37,0.78 0.04,0.25 -0.02,0.49 -0.19,0.7 -0.23,0.3 -0.36,0.64 -0.39,1.01 -0.03,0.47 0.06,0.92 0.29,1.37 0.17,0.32 0.26,0.66 0.26,1.03 l 0.03,11.2 c 0,0.33 0.1,0.62 0.3,0.88 0.19,0.25 0.22,0.52 0.09,0.8 -0.1,0.21 -0.15,0.44 -0.16,0.67 -0.02,1.34 0.22,2.61 0.1,3.94 -0.32,3.51 -0.33,6.98 -0.03,10.41 0.03,0.3 0.17,0.37 0.43,0.22 0.03,-0.01 0.06,-0.03 0.09,-0.04 0.15,-0.03 0.2,0.02 0.17,0.17 -0.25,1.07 -0.5,1.82 -0.34,2.99 0.12,0.92 0.05,1.83 -0.22,2.74 -0.08,0.27 -0.03,0.56 0.12,0.8 l 0.15,0.24 c 0.15,0.23 0.15,0.46 -0.01,0.69 -0.42,0.63 -0.56,1.31 -0.43,2.05 0.06,0.32 0.01,0.62 -0.15,0.9 -0.39,0.66 -0.62,1.41 -0.69,2.26 -0.03,0.33 0.07,0.6 0.31,0.83 0.57,0.55 0.82,1.55 0.75,2.99 z M 336.3,601.93 c 24.93,-1.35 43.32,-23.35 40.91,-48.02 -1.66,-17.11 -13.07,-31.32 -29.27,-37.02 -0.28,-0.1 -0.42,-0.29 -0.42,-0.58 v -37.08 c 0,-0.27 0.3,-0.43 0.53,-0.3 25.65,14.9 50.43,29.31 74.36,43.24 1.2,0.7 2.41,1.46 3.63,2.28 0.29,0.2 0.37,0.6 0.18,0.9 -14.13,22 -25.09,44.34 -32.87,67.02 -4.53,13.22 -7.48,26.53 -8.87,39.93 -0.02,0.19 -0.18,0.33 -0.37,0.33 L 284.3,632.6 c -0.42,0 -0.65,-0.21 -0.7,-0.63 -1.02,-10.09 -2.81,-19.63 -5.38,-28.61 -7.82,-27.4 -20.76,-54 -36.03,-77.68 -0.37,-0.58 -0.18,-1.35 0.41,-1.69 l 77.37,-44.98 c 0.32,-0.18 0.71,0.05 0.71,0.42 v 36.79 c 0,0.35 -0.16,0.58 -0.49,0.7 -19.21,6.93 -30.69,24.56 -29.29,44.84 1.61,23.23 22.08,41.43 45.4,40.17 z m -126.71,-29.71 -33.66,15.43 c -0.59,0.27 -0.87,0.73 -0.85,1.38 l 0.74,19.17 c 0,0.26 -0.15,0.49 -0.39,0.59 l -12.11,5.01 c -0.29,0.12 -0.62,-0.03 -0.72,-0.33 l -11.96,-36.93 c -0.1,-0.33 0.03,-0.68 0.33,-0.85 l 72.11,-40.49 c 0.15,-0.08 0.34,-0.04 0.43,0.1 9.04,14.17 16.86,28.61 23.47,43.32 0.14,0.32 -0.01,0.7 -0.34,0.83 L 225.81,588 c -0.21,0.08 -0.44,0.03 -0.6,-0.13 l -14.76,-15.48 c -0.22,-0.23 -0.57,-0.3 -0.86,-0.17 z m 282.75,15.46 -33.76,-15.5 c -0.24,-0.11 -0.53,-0.06 -0.72,0.14 l -14.91,15.55 c -0.17,0.18 -0.38,0.22 -0.61,0.13 l -20.93,-8.61 c -0.29,-0.11 -0.42,-0.45 -0.29,-0.73 6.87,-15.09 14.73,-29.55 23.6,-43.37 0.09,-0.14 0.27,-0.18 0.41,-0.1 l 72.19,40.54 c 0.27,0.15 0.39,0.47 0.3,0.77 l -11.94,37.07 c -0.09,0.26 -0.38,0.4 -0.64,0.29 l -12.03,-4.98 c -0.39,-0.16 -0.57,-0.45 -0.56,-0.87 l 0.69,-19.04 c 0.02,-0.61 -0.25,-1.04 -0.8,-1.29 z M 263.9,653.52 h 27.46 c 0.33,0.01 0.49,0.17 0.49,0.5 v 30.04 c 0.01,0.51 -0.21,0.64 -0.66,0.37 -29.64,-17.9 -66.94,-24.49 -101.79,-24.34 -0.43,0 -0.66,-0.22 -0.67,-0.65 -0.22,-10.87 -0.73,-21.63 -1.52,-32.26 -0.03,-0.36 0.18,-0.7 0.52,-0.84 l 8.9,-3.53 c 0.34,-0.14 0.55,-0.47 0.54,-0.83 l -0.72,-20.18 c -0.01,-0.3 0.12,-0.51 0.39,-0.64 l 7.83,-3.64 c 0.39,-0.19 0.74,-0.12 1.04,0.2 l 13.99,14.75 c 0.31,0.33 0.79,0.43 1.2,0.26 l 33.53,-13.86 c 0.2,-0.08 0.43,0.02 0.51,0.22 6.36,17.59 9.12,35.5 8.29,53.73 -0.02,0.47 0.2,0.7 0.67,0.7 z m 141.07,-0.65 c 0.05,-6.34 -0.17,-13.08 0.46,-19.4 1.15,-11.47 3.77,-22.97 7.86,-34.5 0.05,-0.15 0.22,-0.22 0.37,-0.16 l 33.51,13.88 c 0.48,0.2 1.02,0.08 1.38,-0.29 l 14.06,-14.75 c 0.25,-0.27 0.55,-0.32 0.88,-0.17 l 7.81,3.63 c 0.33,0.16 0.54,0.5 0.53,0.87 l -0.77,19.81 c -0.02,0.47 0.26,0.91 0.7,1.09 l 8.33,3.41 c 0.55,0.22 0.8,0.63 0.77,1.22 l -1.48,32.24 c -0.01,0.16 -0.14,0.29 -0.31,0.29 -35.31,0.09 -72.07,6.29 -102.43,24.61 -0.21,0.13 -0.31,0.07 -0.31,-0.18 l -0.08,-30.4 c 0,-0.36 0.18,-0.54 0.54,-0.54 h 27.53 c 0.43,-0.01 0.65,-0.23 0.65,-0.66 z m -91.83,0.66 h 41.8 c 0.25,0 0.46,0.21 0.46,0.46 v 11.3 c 0,0.25 -0.21,0.46 -0.46,0.46 h -41.8 c -0.25,0 -0.46,-0.21 -0.46,-0.46 v -11.3 c 0,-0.25 0.21,-0.46 0.46,-0.46 z m -0.04,26.22 h 41.88 c 0.23,0 0.42,0.19 0.42,0.42 v 12.1 c 0,0.23 -0.19,0.42 -0.42,0.42 H 313.1 c -0.23,0 -0.42,-0.19 -0.42,-0.42 v -12.1 c 0,-0.23 0.19,-0.42 0.42,-0.42 z m -0.01,26.84 h 41.92 c 0.23,0 0.41,0.18 0.41,0.41 v 11.38 c 0,0.23 -0.18,0.41 -0.41,0.41 h -41.92 c -0.23,0 -0.41,-0.18 -0.41,-0.41 V 707 c 0,-0.23 0.18,-0.41 0.41,-0.41 z m 45.36,33.67 6.53,20.33 c 0.1,0.32 -0.05,0.65 -0.34,0.78 l -30.26,13.56 c -0.16,0.08 -0.36,0.08 -0.52,0 l -30.23,-13.57 c -0.3,-0.13 -0.44,-0.46 -0.34,-0.78 l 6.51,-20.27 c 0.08,-0.26 0.33,-0.44 0.61,-0.44 l 47.43,-0.05 c 0.28,0 0.53,0.18 0.61,0.44 z"
       id="path11"
       style="fill:url(#linear-gradient)" />
  </g>
</svg>
