<svg xmlns="http://www.w3.org/2000/svg" width="600" height="483.929"><path d="M163.75 48.115C38 109.453 6.194 256.144 4.863 262.387L0 286.244h24.39c11.106 0 15.208 0 36.9 29.641 5.25 7.09 9.836 13.659 14.699 20.652 15.643 22.394 31.855 45.598 69.141 86.853 46.083 50.946 127.407 59.027 151.277 60.358l.616.181h.57s.846 0 2.407-.048c1.56.048 2.36.048 2.36.048l.665-.181h.568c23.822-1.33 105.194-9.412 151.228-60.358 37.335-41.255 53.499-64.46 69.142-86.853 4.863-6.993 9.497-13.562 14.687-20.652 21.692-29.64 25.854-29.64 36.96-29.64H600l-4.924-23.858c-1.27-6.243-32.98-153.454-159.164-214.417-34.444-16.636-84.966-19.805-84.966-19.805-10.26-7.937-22.116-15.401-35.775-21.45L300 0l-15.171 6.715c-13.466 5.952-25.237 13.32-35.4 21.075 0 0-59.124 7.367-85.68 20.325" style="fill:#fff"/><path d="M426.838 65.645s56.051 56.1 56.051 147.78c0 96.024-70.279 201.133-182.889 202.694-112.67-1.56-182.89-106.67-182.89-202.694 0-91.68 56.004-147.78 56.004-147.78C53.922 122.737 24.342 266.403 24.342 266.403c21.401 0 30.572 7.138 52.978 37.71 22.442 30.524 34.685 52.979 82.558 105.957 41.304 45.695 117.341 52.736 137.57 53.825v.193s.895 0 2.552-.096c1.61.096 2.553.096 2.553.096v-.193c20.228-1.089 96.265-8.13 137.52-53.825 47.922-52.978 60.117-75.433 82.559-105.957 22.406-30.572 31.576-37.71 52.978-37.71 0 0-29.532-143.666-148.772-200.758M216.45 96.217c13.223 23.447 35.629 45.84 35.629 45.84v38.763c-44.8-29.592-64.181-79.497-64.181-79.497-18.33 22.406-25.467 66.262-25.467 66.262 33.597 59.075 89.648 86.575 89.648 86.575v40.735c-71.32-32.557-106.997-97.827-106.997-97.827 0 157.991 147.78 185.49 147.78 185.49V24.91c-52.978 23.435-76.412 71.307-76.412 71.307m167.1 0c-13.283 23.447-35.677 45.84-35.677 45.84v38.763c44.848-29.592 64.18-79.497 64.18-79.497 18.378 22.406 25.516 66.262 25.516 66.262-33.645 59.075-89.696 86.575-89.696 86.575v40.735c71.307-32.557 106.997-97.827 106.997-97.827 0 157.991-147.732 185.49-147.732 185.49V24.91c52.978 23.435 76.412 71.307 76.412 71.307"/></svg>