<svg xmlns="http://www.w3.org/2000/svg" xmlns:xlink="http://www.w3.org/1999/xlink" width="600" height="483.929"><radialGradient id="a" cx="0" cy="0" r="1" fx="0" fy="0" gradientTransform="matrix(20.59714 0 0 -20.59714 233.739 371.885)" gradientUnits="userSpaceOnUse" spreadMethod="pad"><stop offset="0" style="stop-color:#bf331c"/><stop offset=".3" style="stop-color:#d3641c"/><stop offset=".5" style="stop-color:#f6b91d"/><stop offset=".7" style="stop-color:#d3641c"/><stop offset="1" style="stop-color:#bf331c"/></radialGradient><radialGradient xlink:href="#a" id="b" cx="0" cy="0" r="1" fx="0" fy="0" gradientTransform="translate(300.01 244.49)scale(249.18926)" gradientUnits="userSpaceOnUse" spreadMethod="pad"/><path d="M163.798 48.115C38.05 109.453 6.194 256.145 4.924 262.387L0 286.245h24.39c11.106 0 15.268 0 36.96 29.64 5.19 7.09 9.824 13.66 14.651 20.652 15.692 22.394 31.843 45.598 69.178 86.853 46.034 50.946 127.37 59.028 151.228 60.358l.617.181h.569s.847 0 2.407-.048c1.56.048 2.42.048 2.42.048l.605-.18h.568c23.87-1.331 105.194-9.413 151.276-60.359 37.287-41.255 53.499-64.46 69.142-86.853 4.863-6.993 9.449-13.562 14.65-20.652 21.693-29.64 25.855-29.64 36.961-29.64H600l-4.912-23.858c-1.282-6.243-32.992-153.454-159.116-214.417-34.504-16.636-85.027-19.805-85.027-19.805-10.21-7.937-22.115-15.401-35.774-21.45L300.001 0l-15.172 6.715c-13.465 5.952-25.237 13.32-35.351 21.075 0 0-59.112 7.368-85.68 20.325" style="fill:#fff"/><path d="m298.113 476.659-1.319-.194c-23.156-1.222-102.085-9.073-146.22-57.987-37.008-40.928-53.123-63.89-68.62-86.151-4.876-6.993-9.498-13.61-14.748-20.797-21.547-29.35-27.742-32.557-42.816-32.557H8.94l3.074-15.122c1.27-6.05 32.556-149.486 154.954-209.215 25.14-12.292 82.8-19.563 83.417-19.612l1.936-.242 1.61-1.221a165.6 165.6 0 0 1 33.838-20.229L300 7.985l12.244 5.347a165.2 165.2 0 0 1 34.262 20.555l1.754 1.367 2.214.145c.52 0 49.579 3.303 82.329 19.14C555.346 113.71 586.729 257.753 587.999 263.85l3.121 15.122h-15.497c-15.087 0-21.27 3.207-42.828 32.557a1187 1187 0 0 0-14.736 20.845c-15.51 22.213-31.576 45.175-68.573 86.103-44.195 48.914-123.112 56.765-146.268 57.987l-.798.049-.763.145-1.415-.049z"/><path d="M307.138 382.559s147.732-27.5 147.732-185.49c0 0-35.63 65.27-106.949 97.826V254.16s56.003-27.5 89.648-86.575c0 0-7.125-43.856-25.466-66.262 0 0-19.382 49.905-64.182 79.497v-38.762s22.406-22.394 35.642-45.84c0 0-23.447-47.873-76.425-71.308zM216.45 96.217c13.235 23.447 35.677 45.84 35.677 45.84v38.763c-44.848-29.592-64.217-79.497-64.217-79.497-18.293 22.406-25.479 66.262-25.479 66.262 33.645 59.076 89.696 86.575 89.696 86.575v40.735c-71.307-32.557-106.984-97.827-106.984-97.827 0 157.991 147.72 185.49 147.72 185.49V24.91c-52.967 23.435-76.413 71.307-76.413 71.307m266.44 117.208c0 96.072-70.219 201.134-182.89 202.694-112.61-1.56-182.889-106.622-182.889-202.694 0-91.68 56.051-147.78 56.051-147.78C53.922 122.737 24.39 266.403 24.39 266.403c21.414 0 30.572 7.138 52.978 37.71 22.406 30.525 34.638 52.979 82.51 105.957 41.304 45.695 117.341 52.736 137.57 53.825v.194s.907 0 2.552-.097c1.658.097 2.553.097 2.553.097v-.194c20.228-1.089 96.266-8.13 137.52-53.825 47.922-52.978 60.165-75.432 82.62-105.956 22.345-30.573 31.564-37.71 52.93-37.71 0 0-29.544-143.667-148.724-200.759 0 0 55.99 56.1 55.99 147.78" style="fill:url(#b)"/></svg>