<svg xmlns="http://www.w3.org/2000/svg" width="551.268" height="439.178"><path d="M402.496 40.735s56.051 56.1 56.051 147.78c0 96.023-70.278 201.133-182.889 202.694-112.67-1.561-182.889-106.67-182.889-202.694 0-91.68 56.003-147.78 56.003-147.78C29.58 97.826 0 241.493 0 241.493c21.402 0 30.572 7.138 52.978 37.71 22.442 30.524 34.686 52.978 82.559 105.956 41.303 45.696 117.34 52.737 137.569 53.826v.193s.895 0 2.552-.097c1.61.097 2.553.097 2.553.097v-.193c20.228-1.09 96.266-8.13 137.52-53.826 47.922-52.978 60.117-75.432 82.56-105.956 22.405-30.572 31.576-37.71 52.977-37.71 0 0-29.532-143.667-148.772-200.758M192.108 71.307c13.223 23.446 35.63 45.84 35.63 45.84v38.763c-44.8-29.592-64.182-79.498-64.182-79.498-18.329 22.406-25.467 66.263-25.467 66.263 33.597 59.075 89.648 86.574 89.648 86.574v40.735c-71.319-32.556-106.997-97.826-106.997-97.826 0 157.99 147.78 185.49 147.78 185.49V0c-52.978 23.434-76.412 71.307-76.412 71.307m167.1 0c-13.283 23.446-35.677 45.84-35.677 45.84v38.763c44.848-29.592 64.181-79.498 64.181-79.498 18.377 22.406 25.515 66.263 25.515 66.263-33.645 59.075-89.696 86.574-89.696 86.574v40.735c71.307-32.556 106.997-97.826 106.997-97.826 0 157.99-147.732 185.49-147.732 185.49V0c52.978 23.434 76.413 71.307 76.413 71.307"/></svg>