<svg xmlns="http://www.w3.org/2000/svg" width="116.659" height="50" viewBox="0 0 116.659 50"><path d="M16.971 50c-.359 0-.719-.066-1.065-.21a2.78 2.78 0 0 1-1.602-3.343L18.84 30.94 3.403 34.502A2.78 2.78 0 0 1 .16 32.727a2.78 2.78 0 0 1 1.394-3.426l15.074-7.414-8.889-7.756a2.774 2.774 0 0 1 1.83-4.867c.364 0 .728.07 1.084.223l9.934 4.229-1.112-7.436a2.774 2.774 0 0 1 1.911-3.058c.276-.092.56-.132.834-.132 1.03 0 2.006.574 2.49 1.538l3.476 6.954L33.664 1.46A2.79 2.79 0 0 1 36.105 0a2.785 2.785 0 0 1 2.703 3.439l-1.763 7.212C42.716 8.478 52.4 5.56 63.573 5.56c22.972 0 48.562 12.439 53.038 36.215a2.774 2.774 0 0 1-2.735 3.286 2.77 2.77 0 0 1-2.582-1.761c-.467-1.188-11.875-29.099-46.484-29.099-5.396 0-10.015.797-13.74 1.827l1.147.026a2.78 2.78 0 0 1 2.704 2.484 2.776 2.776 0 0 1-2.125 2.993l-13.515 3.212 7.794 8.225a2.79 2.79 0 0 1 .175 3.624 2.785 2.785 0 0 1-3.556.706l-8.846-4.995 2.124 10.03a2.776 2.776 0 0 1-1.755 3.177 2.8 2.8 0 0 1-.964.175 2.78 2.78 0 0 1-2.438-1.451l-4.98-9.131L19.4 48.568A2.77 2.77 0 0 1 16.971 50" style="fill:gray"/><path d="M33.024 15.437s13.577-7.099 30.554-7.099c22.835 0 46.293 12.654 50.305 33.95 0 0-12.037-30.865-49.07-30.865-16.666 0-26.233 7.098-26.233 7.098l13.577.311-18.205 4.321L45.06 34.878l-14.195-8.023 3.396 16.046-7.407-13.574-9.875 17.899 5.862-20.06-20.06 4.628 18.824-9.259L9.568 12.041l14.506 6.174-1.85-12.348 5.86 11.73L36.11 2.782z"/></svg>