<svg xmlns="http://www.w3.org/2000/svg" width="116.659" height="50"><g><path d="M16.972 50c-.359 0-.719-.066-1.065-.21a2.78 2.78 0 0 1-1.602-3.343l4.536-15.508-15.437 3.563a2.78 2.78 0 0 1-3.243-1.776A2.78 2.78 0 0 1 1.555 29.3l15.074-7.414-8.889-7.755a2.775 2.775 0 0 1 2.914-4.645l9.934 4.229-1.112-7.436a2.775 2.775 0 0 1 1.911-3.059c.276-.092.559-.131.834-.131 1.03 0 2.006.574 2.489 1.538l3.477 6.954 5.478-10.122A2.79 2.79 0 0 1 36.106 0a2.785 2.785 0 0 1 2.703 3.439l-1.763 7.212C42.717 8.478 52.4 5.56 63.575 5.56c22.969 0 48.562 12.439 53.037 36.215a2.77 2.77 0 0 1-1.963 3.177q-.382.111-.771.11a2.78 2.78 0 0 1-2.582-1.763C110.829 42.111 99.421 14.2 64.812 14.2c-5.396 0-10.015.797-13.741 1.827l1.148.026a2.784 2.784 0 0 1 2.704 2.484 2.776 2.776 0 0 1-2.125 2.993l-13.515 3.212 7.794 8.225a2.79 2.79 0 0 1 .175 3.624 2.785 2.785 0 0 1-3.556.706l-8.846-4.995 2.124 10.03a2.775 2.775 0 0 1-1.755 3.177 2.8 2.8 0 0 1-.964.176 2.78 2.78 0 0 1-2.438-1.451l-4.981-9.131-7.433 13.465A2.77 2.77 0 0 1 16.972 50"/><path d="m28.086 17.597-5.864-11.73 1.853 12.348-14.506-6.174 12.033 10.494-18.823 9.259 20.061-4.627-5.863 20.056 9.876-17.896L34.261 42.9l-3.399-16.045 14.199 8.022-11.112-11.724 18.208-4.321-13.577-.311s9.565-7.098 26.235-7.098c37.032 0 49.068 30.865 49.068 30.865-4.011-21.295-27.468-33.954-50.306-33.954-16.977 0-30.552 7.103-30.552 7.103l3.084-12.655Z" style="fill:url(#a)"/><linearGradient id="a" x1="-86.849" x2="-84.606" y1="-363.978" y2="-363.978" gradientTransform="rotate(-60 7986.64 -7494.493)scale(29.125)" gradientUnits="userSpaceOnUse"><stop offset="0" style="stop-color:#8b723c"/><stop offset=".3" style="stop-color:#d2bb7b"/><stop offset=".5" style="stop-color:#ebd491"/><stop offset=".7" style="stop-color:#d2bb7b"/><stop offset="1" style="stop-color:#8b723c"/></linearGradient></g></svg>