<?xml version="1.0" encoding="UTF-8" standalone="no"?>
<svg
   version="1.1"
   width="600"
   height="120.34809"
   id="svg7"
   xmlns:xlink="http://www.w3.org/1999/xlink"
   xmlns="http://www.w3.org/2000/svg"
   xmlns:svg="http://www.w3.org/2000/svg">
  <defs
     id="defs7" />
  <linearGradient
     x1="0"
     y1="0"
     x2="1"
     y2="0"
     id="linearGradient486"
     gradientUnits="userSpaceOnUse"
     gradientTransform="matrix(1.874863,-10.632843,-10.632843,-1.874863,690.64648,377.125)"
     spreadMethod="pad">
    <stop
       style="stop-color:#8b723c"
       offset="0"
       id="stop1" />
    <stop
       style="stop-color:#d2bb7b"
       offset="0.3"
       id="stop2" />
    <stop
       style="stop-color:#ebd491"
       offset="0.5"
       id="stop3" />
    <stop
       style="stop-color:#d2bb7b"
       offset="0.7"
       id="stop4" />
    <stop
       style="stop-color:#8b723c"
       offset="1"
       id="stop5" />
  </linearGradient>
  <linearGradient
     x1="0"
     y1="0"
     x2="1"
     y2="0"
     id="linearGradient2997"
     xlink:href="#linearGradient486"
     gradientUnits="userSpaceOnUse"
     gradientTransform="matrix(1.874863,-10.632843,-10.632843,-1.874863,690.64648,377.125)"
     spreadMethod="pad" />
  <linearGradient
     x1="0"
     y1="0"
     x2="1"
     y2="0"
     id="linearGradient3000"
     xlink:href="#linearGradient486"
     gradientUnits="userSpaceOnUse"
     gradientTransform="matrix(21.632968,122.68627,-122.68627,21.632968,287.98158,-6.5769)"
     spreadMethod="pad" />
  <path
     d="m 121.41886,120.34578 -4.01538,-3.06922 -10.18843,-7.78844 C 106.99536,109.34966 68.642096,83.249743 16.534565,83.249743 H 0 L 0.03692296,36.461425 H 16.536872 c 52.280609,0 90.461258,-26.134535 90.865108,-26.411457 L 117.80964,2.80384 121.77886,0 l 8.79228,14.376878 c 0.21969,0.184614 14.06534,16.361488 56.69982,16.361488 h 4.6846 c 5.72306,-8.330744 12.80766,-10.903813 15.0115,-11.492273 l 1.67307,-0.45046 0.62307,-0.172615 0.63415,0.03692 h 1.70769 l 306.3106,7.349978 3.83075,-0.04615 h 3.70384 3.83076 c 22.93839,0 70.71901,0 70.71901,31.419134 0,15.819182 -12.40381,26.192227 -36.87681,30.784521 -14.19226,2.699991 -30.46144,3.288451 -41.23833,3.692296 l -3.56538,0.138461 -306.62213,8.965362 -1.98461,0.0923 h -0.71538 l -0.72739,-0.21877 -1.8923,-0.58892 c -2.03076,-0.587996 -8.82689,-3.161526 -14.37688,-11.273039 h -4.73075 c -42.55372,0 -56.4806,16.142259 -57.01136,16.857639 l -8.83844,14.51534 z"
     id="path5" />
  <path
     d="m 115.86887,74.999768 c 11.05382,0 21.46148,-7.753822 21.46148,-15.496106 0,-7.707669 -10.40766,-15.415337 -21.46148,-15.415337 -10.31535,0 -18.784553,6.761517 -19.823012,13.973034 h -79.46514 v -0.727383 h -0.04615 v 4.32691 h 79.638216 c 1.407688,6.946132 9.692276,13.33842 19.696086,13.33842"
     style="fill:#ffffff"
     id="path6" />
  <path
     d="m 16.534565,52.961374 v 4.373064 0.726921 h 79.511293 c 1.038459,-7.211517 9.507662,-13.973034 19.823012,-13.973034 v 0 c 11.05382,0 21.46148,7.753822 21.46148,15.415337 v 0 c 0,7.742284 -10.40766,15.496106 -21.46148,15.496106 v 0 c -10.00381,0 -18.288401,-6.392288 -19.696089,-13.338421 v 0 H 16.534565 v 0.542307 4.511524 c 58.638281,0 100.326615,29.376833 100.326615,29.376833 v 0 c 0,0 16.0038,-23.653774 70.40747,-23.653774 v 0 -25.199922 c -54.40367,0 -70.40747,-23.665312 -70.40747,-23.665312 v 0 c 0,0 -41.642181,29.388371 -100.326615,29.388371 m 184.430205,6.669211 c 0,21.680702 10.23458,24.842231 10.23458,24.842231 v 0 L 517.69456,75.49592 C 536.4445,74.734384 583.4982,73.96131 583.4982,57.380591 v 0 c 0,-16.626871 -48.44985,-14.826877 -65.80364,-14.826877 v 0 L 211.19935,35.203737 c 0,0 -10.23458,2.699991 -10.23458,24.426848"
     style="fill:url(#linearGradient3000)"
     id="path7" />
</svg>
