<?xml version="1.0" encoding="UTF-8" standalone="no"?>
<svg
   version="1.1"
   width="566.96582"
   height="72.519287"
   id="svg1"
   xmlns="http://www.w3.org/2000/svg"
   xmlns:svg="http://www.w3.org/2000/svg">
  <defs
     id="defs1" />
  <path
     d="M 170.73475,23.665403 C 116.33086,23.665403 100.327,0 100.327,0 100.327,0 58.638506,29.388484 0,29.388484 v 4.37308 0.727386 h 79.511599 c 1.038463,-7.211544 9.507698,-13.973088 19.823088,-13.973088 11.053863,0 21.461563,7.753852 21.461563,15.415396 0,7.742314 -10.4077,15.496166 -21.461563,15.496166 -10.00385,0 -18.253856,-6.392312 -19.696165,-13.338472 H 0 v 0.541847 4.511542 c 58.638506,0 100.327,29.376945 100.327,29.376945 0,0 16.00386,-23.653864 70.40775,-23.653864 z m 13.69616,12.392317 c 0,-21.72694 10.23463,-24.426942 10.23463,-24.426942 l 306.49639,7.350006 c 17.38847,0 65.80389,-1.800002 65.80389,14.826934 0,16.580782 -47.05388,17.35386 -65.80389,18.115399 l -306.49639,8.97693 c 0,0 -10.23463,-3.115387 -10.23463,-24.842327"
     id="path1" />
</svg>
