<svg xmlns="http://www.w3.org/2000/svg" width="600" height="710.925" viewBox="0 0 600 710.925"><g transform="translate(-.006)scale(14.2185)"><path fill="#fff" d="M25.321 26.269c4.69.13 6.046-.305 7.295-1.269 1.454-1.122 1.465-2.926 2.302-2.921.833.004 1.388 1.3 1.846 2.605.458.934 1.697 1.621 1.715 2.757.021 1.412-1.004 1.814-1.649 2.758-.687 1.002-.804 2.757-1.933 2.75-1.334-.008-.282-2.708-3.817-3.914-2.206-.753-5.517-.034-7.451.121-.521 1.563.738 2.975-.76 3.561.717 1.868 1.954 1.889 3.076 3.501-.688.776-1.086.927-2.272.733.106 5.286.106 10.756-2.779 13.049-1.281-.912-.738-2.323-1.237-3.734-.956-.5-2.207-1.312-2.932-2.02 1.411-1.368.065-2.475-.912-3.756.63-1.042 2.063-1.477 2.367-2.214-.326-.456-1.397-.775-1.477-2.128 1.338-.011 2.667-2.418 2.714-3.191.043-.717-.758-.314-.898-.945.198-1.379.654-1.684.117-2.768-.738-.26-4.364-.977-7.517.135-2.87 1.013-2.153 3.624-3.18 3.624-1.094 0-1.938-2.296-2.505-3.151-.589-.889-1.259-1.326-1.259-2.388 0-1.259 1.219-1.39 1.693-2.67.651-1.759 1.37-2.736 1.997-2.736 1.174 0 .29 1.998 3.083 3.518 1.237.673 2.915.66 5.775.673C5.65 21.21 12.664 4.232.006 8.792c-.195-2.931 4.786-5.265 8.793-2.91 7.057 4.147 5.168 12.745 9.943 13.179-.495-3.074.381-13.386 2.42-19.061 2.286 5.703 2.484 16.053 2.209 19.018C28.708 18.692 26.2 9.15 34.245 5.34c3.476-1.646 8.174.749 7.946 3.496-12.766-4.756-5.211 12.223-16.87 17.433"/><linearGradient id="a" x1="1.382" x2="40.794" y1="25.884" y2="25.884" gradientUnits="userSpaceOnUse"><stop offset=".1" style="stop-color:#612c75"/><stop offset=".5" style="stop-color:#bf99c3"/><stop offset=".9" style="stop-color:#612c75"/></linearGradient><path d="M20.973 48.637c-.074-.242-.105-.547-.143-.96-.046-.517-.099-1.102-.315-1.716a.9.9 0 0 0-.438-.504 15.4 15.4 0 0 1-2.105-1.341c.778-1.436-.277-2.757-.979-3.611.208-.183.453-.354.694-.521.533-.372 1.085-.756 1.334-1.36a.91.91 0 0 0-.101-.877c-.171-.238-.39-.408-.602-.573-.202-.157-.363-.287-.48-.436 1.435-.811 2.438-2.921 2.487-3.725.027-.452-.101-1.032-.817-1.353.036-.159.074-.304.112-.445.182-.679.353-1.321-.17-2.375a.9.9 0 0 0-.513-.455c-.57-.201-2.146-.52-3.952-.52-1.535 0-2.939.22-4.171.655-2.17.766-2.701 2.321-3.019 3.25l-.059.169c-.345-.37-.822-1.281-1.025-1.667-.182-.346-.353-.673-.52-.924a10 10 0 0 0-.535-.718c-.406-.509-.572-.733-.572-1.167 0-.274.095-.392.499-.774.359-.34.852-.806 1.139-1.58.434-1.173.82-1.756 1.048-2.005l.053.142c.287.78.768 2.084 2.688 3.129 1.402.763 3.115.77 5.952.783l.259.001a.91.91 0 0 0 .378-1.742c-4.651-2.116-5.866-6.6-6.938-10.556C9.13 11.051 8.063 7.11 3.686 7.11c-.703 0-1.465.102-2.304.307q.075-.094.149-.172c.817-.874 2.243-1.417 3.721-1.417 1.083 0 2.15.29 3.085.84 3.406 2.002 4.555 5.123 5.568 7.876.978 2.657 1.9 5.166 4.755 5.425q.041.004.082.004a.91.91 0 0 0 .9-1.057c-.382-2.375.134-10.059 1.544-15.786 1.371 5.599 1.51 13.296 1.277 15.803a.91.91 0 0 0 .908.997l.055-.002c3.105-.189 4.043-2.82 5.036-5.604 1.052-2.952 2.245-6.299 6.173-8.16a4.86 4.86 0 0 1 2.097-.452c1.511 0 3.055.618 3.935 1.573q.064.069.128.148c-.883-.228-1.679-.34-2.404-.34-4.231 0-5.188 3.646-6.2 7.506-1.059 4.037-2.259 8.612-7.24 10.838a.911.911 0 0 0 .348 1.744c.547.015 1.059.023 1.522.023 3.748 0 5.081-.499 6.354-1.481.909-.702 1.344-1.59 1.66-2.238.058-.118.128-.261.19-.376.171.196.459.683.879 1.879a1 1 0 0 0 .042.1c.23.471.568.846.896 1.208.387.429.721.8.727 1.161.009.57-.216.823-.724 1.339-.245.25-.522.531-.768.889-.289.423-.484.917-.656 1.354-.105.269-.288.732-.433.924-.043-.103-.09-.232-.129-.339-.35-.965-.936-2.58-3.484-3.45-.763-.26-1.668-.386-2.767-.386-1.233 0-2.487.158-3.594.297-.535.067-1.04.131-1.458.165a.91.91 0 0 0-.793.621c-.277.833-.178 1.583-.097 2.188.032.249.082.624.039.723-.001 0-.043.039-.169.089a.913.913 0 0 0-.52 1.176c.5 1.303 1.249 1.899 1.909 2.426.252.2.495.395.731.629a1 1 0 0 1-.214.017c-.154 0-.358-.021-.625-.064a.9.9 0 0 0-.744.211.9.9 0 0 0-.314.708c.084 4.139.186 9.204-1.786 11.663" style="fill:url(#a)"/></g></svg>