<svg xmlns="http://www.w3.org/2000/svg" width="560.393" height="647.041" viewBox="0 0 560.393 647.041"><path d="M278.554 647.041c-1.053-3.44-1.493-7.777-2.034-13.65-.654-7.35-1.407-15.668-4.478-24.398a12.97 12.97 0 0 0-6.228-7.167c-8.844-4.62-20.574-11.844-29.93-19.067 11.062-20.417-3.939-39.2-13.92-51.343 2.957-2.602 6.441-5.033 9.868-7.407 7.578-5.29 15.427-10.75 18.967-19.338a13 13 0 0 0-1.436-12.47c-2.431-3.383-5.545-5.8-8.56-8.146-2.872-2.233-5.16-4.081-6.824-6.2 20.403-11.53 34.664-41.532 35.361-52.964.384-6.426-1.436-14.673-11.616-19.237.511-2.26 1.052-4.323 1.592-6.327 2.588-9.655 5.02-18.783-2.417-33.77a12.9 12.9 0 0 0-7.294-6.469c-8.105-2.858-30.513-7.393-56.192-7.393-21.825 0-41.788 3.128-59.305 9.313-30.854 10.891-38.404 33-42.926 46.21-.27.753-.54 1.578-.839 2.403-4.905-5.261-11.687-18.214-14.574-23.702-2.587-4.92-5.019-9.57-7.393-13.138-2.616-3.953-5.261-7.28-7.607-10.21-5.773-7.236-8.133-10.421-8.133-16.592 0-3.896 1.35-5.574 7.095-11.005 5.104-4.835 12.114-11.46 16.195-22.466 6.17-16.678 11.659-24.967 14.9-28.508.27.697.527 1.394.754 2.02 4.081 11.09 10.92 29.63 38.22 44.489 19.934 10.849 44.29 10.948 84.628 11.133l3.683.014c6.1 0 11.375-4.237 12.668-10.194 1.323-5.972-1.734-12.043-7.294-14.574-66.13-30.087-83.405-93.842-98.648-150.09C110.164 112.624 94.993 56.59 32.759 56.59c-9.995 0-20.83 1.45-32.759 4.365a42 42 0 0 1 2.119-2.446c11.615-12.427 31.89-20.147 52.906-20.147a86.6 86.6 0 0 1 43.864 11.943c48.428 28.465 64.765 72.841 79.168 111.985 13.906 37.779 27.015 73.453 67.61 77.135.383.029.781.057 1.165.057a12.956 12.956 0 0 0 12.797-15.029C254.197 190.684 261.534 81.43 281.582 0c19.494 79.61 21.47 189.05 18.157 224.695-.341 3.768.953 7.507 3.597 10.223a12.96 12.96 0 0 0 9.314 3.953c.256 0 .511-.014.782-.029 44.148-2.687 57.485-40.096 71.604-79.68 14.958-41.973 31.92-89.562 87.77-116.023 9.001-4.266 19.04-6.427 29.817-6.427 21.484 0 43.437 8.787 55.95 22.366.597.654 1.223 1.35 1.82 2.104-12.555-3.242-23.873-4.834-34.182-4.834-60.158 0-73.765 51.84-88.154 106.724-15.058 57.4-32.12 122.45-102.942 154.1-5.531 2.474-8.588 8.432-7.408 14.375a12.93 12.93 0 0 0 12.356 10.422c7.777.213 15.057.327 21.64.327 53.291 0 72.245-7.095 90.345-21.057 12.924-9.982 19.11-22.608 23.602-31.821.825-1.678 1.82-3.711 2.702-5.347 2.431 2.787 6.526 9.712 12.498 26.717.17.483.356.953.597 1.422 3.27 6.697 8.076 12.029 12.74 17.176 5.503 6.1 10.252 11.375 10.337 16.507.128 8.105-3.071 11.702-10.294 19.039-3.484 3.555-7.422 7.55-10.92 12.64-4.11 6.015-6.882 13.039-9.327 19.252-1.493 3.825-4.095 10.408-6.157 13.138-.611-1.464-1.28-3.299-1.834-4.82-4.977-13.72-13.309-36.684-49.538-49.054-10.848-3.697-23.716-5.488-39.342-5.488-17.532 0-35.362 2.246-51.101 4.223-7.607.952-14.788 1.862-20.731 2.346a12.96 12.96 0 0 0-11.275 8.83c-3.939 11.843-2.531 22.507-1.38 31.11.456 3.54 1.166 8.872.555 10.28-.014 0-.611.554-2.403 1.265-6.64 2.602-9.939 10.067-7.393 16.72 7.109 18.528 17.758 27.002 27.143 34.495 3.583 2.844 7.038 5.616 10.393 8.943-.938.228-1.905.242-3.042.242-2.19 0-5.09-.298-8.887-.91a13 13 0 0 0-2.076-.17c-3.1 0-6.128 1.109-8.503 3.17a12.92 12.92 0 0 0-4.464 10.067c1.194 58.85 2.645 130.867-25.394 165.83"/></svg>