<svg xmlns="http://www.w3.org/2000/svg" width="600" height="569.401"><path d="M242.232 59.389c-12.613-9.01-30.748-17.566-54.649-17.566-28.256 0-57.509 17.296-74.52 44.043-8.612 13.623-12.897 28.47-13.338 43.36-16.911-3.658-37.766-4.057-56.997 7.345-21.182 12.513-43.545 42.15-42.705 77.68.442 18.79 8.555 54.222 57.88 80.243l4.113 2.164h67.56C150.87 309 600 569.401 600 569.401S473.721 436.232 442.646 403.42c6.449.954 76 10.904 76 10.904S427.515 328.8 393.323 296.658H504.64l1.608-.27c19.303-3.46 55.773-22.92 55.773-71.731 0-25.979-11.231-46.99-31.573-59.232-14.463-8.67-32.2-11.445-47.716-8.342-9.623-8.897-23.687-16.84-40.043-19.174 2.349-8.285 4.114-17.41 4.114-26.976C446.803 79.36 413.835 0 335.926 0c-50.477 0-79.232 34.306-93.694 59.388" style="fill:#fff"/><path d="m497.195 488.162-105.097-110.82 70.563 10.007-116.67-109.424h156.983s40.314-7.175 40.314-53.268c0-46.107-44.655-57.552-66.222-46.107 0 0-27.36-37.424-64.84-17.238 0 0 15.844-24.456 15.844-50.378 0-24.684-27.36-92.186-92.144-92.186-64.826 0-87.844 72-87.844 72S227.897 60.5 187.583 60.5c-40.313 0-86.363 48.997-63.345 97.923 0 0-40.314-24.47-72.001-5.723-31.644 18.677-61.894 84.912 14.392 125.226h158.42l51.83 38.918-95.032-11.502z"/><path d="m322.973 277.925 95.36 88.969-66.392-9.182 65.338 67.502-164.699-96.641 66.45 5.893-65.894-56.712z" style="fill:#fff"/></svg>