<svg xmlns="http://www.w3.org/2000/svg" width="600" height="569.401"><radialGradient id="a" cx="0" cy="0" r="1" fx="0" fy="0" gradientTransform="matrix(16.77377 0 0 -16.77377 217.915 262.169)" gradientUnits="userSpaceOnUse" spreadMethod="pad"><stop offset="0" style="stop-color:#ebd491"/><stop offset=".7" style="stop-color:#d2bb7b"/><stop offset="1" style="stop-color:#8b723c"/></radialGradient><path d="M242.232 59.389c-12.613-9.01-30.748-17.566-54.649-17.566-28.256 0-57.509 17.296-74.52 44.043-8.612 13.623-12.897 28.47-13.338 43.36-16.911-3.658-37.766-4.057-56.997 7.345-21.182 12.513-43.545 42.15-42.705 77.68.442 18.79 8.555 54.222 57.88 80.243l4.113 2.164h67.56C150.87 309 600 569.401 600 569.401S473.721 436.232 442.646 403.42c6.449.954 76 10.904 76 10.904S427.515 328.8 393.323 296.658H504.64l1.608-.27c19.303-3.46 55.773-22.92 55.773-71.731 0-25.979-11.231-46.99-31.573-59.232-14.463-8.67-32.2-11.445-47.716-8.342-9.623-8.897-23.687-16.84-40.043-19.174 2.349-8.285 4.114-17.41 4.114-26.976C446.803 79.36 413.835 0 335.926 0c-50.477 0-79.232 34.306-93.694 59.388" style="fill:#fff"/><path d="m497.195 488.162-105.097-110.82 70.563 10.007-116.67-109.424h156.983s40.314-7.175 40.314-53.268c0-46.107-44.655-57.552-66.222-46.107 0 0-27.36-37.424-64.84-17.238 0 0 15.844-24.456 15.844-50.378 0-24.684-27.36-92.186-92.144-92.186-64.826 0-87.844 72-87.844 72S227.897 60.5 187.583 60.5c-40.313 0-86.363 48.997-63.345 97.923 0 0-40.314-24.47-72.001-5.723-31.644 18.677-61.894 84.912 14.392 125.226h158.42l51.83 38.918-95.032-11.502z" style="fill:#8b723c"/><path d="m215.98 272.805-.253-.782-.457.68c-.055.082-1.344 1.953-3.918 1.953-1.391 0-2.914-.926-3.786-2.301-.468-.738-1.132-2.242-.3-4.007l.562-1.196-1.133.684c-.015.008-1.414.84-2.937.84-.641 0-1.215-.149-1.711-.442-1.102-.648-2.195-2.214-2.156-3.937.039-1.633 1.097-3.055 3.066-4.117h11.156l.11-.078 3.64-2.735 1.199-.898-1.484.183-4.746.575 18.07-10.481-5.476 5.774-.789.835 1.136-.16 3.7-.527-7.266 6.82-.738.692h1.011l10.958-.008c.101.023 2.503.5 2.503 3.351 0 2.149-1.543 3.125-2.972 3.125-.41 0-.797-.082-1.094-.242l-.305-.164-.207.278c-.011.015-1.101 1.472-2.664 1.472-.457 0-.918-.125-1.375-.371l-1.367-.734.84 1.301c.012.019 1.051 1.648 1.051 3.324s-1.868 6.078-6.075 6.078c-4.203 0-5.777-4.735-5.793-4.785" style="fill:url(#a)" transform="matrix(14.235 0 0 -14.235 -2821.014 3975.91)"/><path d="m450.419 451.25-36.03-21.139-164.641-96.641-21.908-12.84 25.239 2.22 48.769 4.4-52.442-45.154-11.673-10.064 15.403.056 69.837.156h2.277l1.623 1.51 95.36 88.968 13.182 12.285-17.85-2.448-49.994-6.947 53.822 55.659z" style="fill:#8b723c"/><path d="m322.973 277.925 95.36 88.969-66.392-9.182 65.338 67.502-164.699-96.641 66.45 5.893-65.894-56.712z" style="fill:#fff"/></svg>