<svg xmlns="http://www.w3.org/2000/svg" width="400.422" height="178.778" viewBox="0 0 400.422 178.778"><defs><linearGradient id="a" x1="187.503" x2="406.038" y1="131.971" y2="23.192" gradientUnits="userSpaceOnUse"><stop offset=".109" stop-color="#85723e"/><stop offset=".135" stop-color="#947f48"/><stop offset=".192" stop-color="#b0985b"/><stop offset=".254" stop-color="#c5ab6b"/><stop offset=".322" stop-color="#d5b975"/><stop offset=".4" stop-color="#dec17c"/><stop offset=".515" stop-color="#e1c47e"/><stop offset=".646" stop-color="#dec17c"/><stop offset=".728" stop-color="#d5ba76"/><stop offset=".796" stop-color="#c7ad6c"/><stop offset=".856" stop-color="#b29a5d"/><stop offset=".911" stop-color="#98834b"/><stop offset=".944" stop-color="#85723e"/></linearGradient></defs><path d="m366.8 167.247-100.51.064c-19.479-1.192-30.515-10.504-39.377-27.256-13.686-33.397-32.905-65.907-46.224-99.27-4.16-10.42-4.236-19.454-.02-29.936l186.204-.21c11.394 18.967 19.11 40.288 21.498 62.425 3.602 33.4-5.567 65.248-21.57 94.183M364.336 14.23c-.813-.19-.811.295-1.189.708-1.085 1.191-3.806 5.829-4.922 6.043l-42.81-.006-5.909 52.509c-.06.88.01.543.626.633 3.385.491 8.068.033 11.767.473 15.54 1.846 34.156 10.343 32.312 28.83-.627 6.286-5.482 11.61-11.382 13.5-12.744 4.083-24.894-4.221-24.88-17.711l-.838-.21-10.79 16.866c9.734 10.354 26.47 12.86 39.79 9.397 18.554-4.824 27.459-21.654 23.001-40.109-5.067-20.976-28.144-29.52-47.79-29.175l1.685-18.975h41.33zm-113.865 94.887c8.819-10.85 19.232-20.32 28.472-30.78 8.653-9.794 18.186-21.943 15.695-35.949-3.872-21.76-31.834-26.145-49.45-19.735-5.46 1.987-10.908 5.317-14.953 9.5l16.234 20.45c.933.168.628-.371.585-1.004-.412-6.125-1.919-9.345.881-15.656 4.972-11.206 20.923-9.639 24.441 2.138 5.01 16.775-11.075 40.174-20.296 53.457-7.878 11.35-16.521 22.221-25.44 32.761l.425.844h68.109v-31.63l-1.297.262-7.349 15.342z" style="fill:url(#a)"/><path d="M168.656 10.434c-3.853 11.738-3.546 23.548 1.068 34.99 14.11 34.981 33.766 69.29 48.476 104.188 3.755 6.407 8.015 12.467 13.293 17.703h-82.658c8-6.992 9.764-15.165 6.437-25.203L108.766 40.799 79.672 94.357h32.051c-9.04 10.114-19.014 19.388-28.266 29.299-3.586 3.84-8.048 8.41-9.566 13.628-2.798 9.611.393 21.22 4.516 30.031h-68.32c6.29-7.097 10.931-14.997 15.123-23.465 17.312-34.97 31.358-71.649 48.457-106.738 3.22-8.991 1.553-17.98-1.586-26.678z" style="fill:#85723e"/><path d="m72.675 0 298.009.728c4.177 4.642 6.137 6.648 10.514 14.224 28.889 50 23.115 104.864-3.333 154.611-1.95 3.667-2.827 5.514-5.028 8.732l-222.967.004c-8.883-.085-14.49-8.66-9.815-16.6 1.271-2.16 4.763-4.662 5.438-6.371.832-2.109.241-5.409.54-7.734l-20.018-44.122c-1.092-1.594-4.5-2.039-6.091-1.125-1.437.825-6.989 6.978-8.633 8.657-7.358 7.513-17.375 16.746-23.822 24.677-1.343 1.652-2.845 4.017-3.122 6.156-1.282 9.905 1.401 13.344 4.064 22.012 2.304 7.5-3.725 13.919-11.043 14.446-21.323-1.19-44.27 1.532-65.4.003-4.809-.347-9.736-2.842-11.357-7.621-2.788-8.224 4.645-12.736 8.558-18.83 3.046-4.743 5.184-10.144 7.59-15.183 13.375-28.014 25.564-56.649 38.242-84.901 4.465-9.948 11.754-19.646 9.303-31.232-.567-2.68-2.278-5.46-2.654-8.307-.512-3.867 1.023-7.406 3.752-9.712C67.416.81 70.038.002 72.675 0m95.981 10.434H72.081c3.139 8.697 4.805 17.687 1.586 26.678-17.1 35.09-31.145 71.767-48.457 106.738-4.192 8.468-8.833 16.368-15.122 23.465h68.32c-4.124-8.81-7.315-20.42-4.518-30.03 1.52-5.218 5.981-9.788 9.567-13.63 9.252-9.91 19.225-19.184 28.266-29.298h-32.05L108.765 40.8l46.506 101.313c3.327 10.038 1.562 18.211-6.437 25.203h82.658c-5.278-5.236-9.538-11.296-13.293-17.703-14.71-34.898-34.367-69.207-48.476-104.189-4.614-11.44-4.92-23.25-1.068-34.989M366.8 167.247c16.004-28.935 25.173-60.782 21.57-94.183-2.387-22.137-10.103-43.458-21.497-62.426l-186.204.211c-4.216 10.482-4.14 19.516.02 29.935 13.32 33.364 32.538 65.874 46.224 99.271 8.862 16.752 19.898 26.064 39.376 27.256zm-3.653-152.309c-1.085 1.191-3.806 5.829-4.922 6.043l-42.81-.006-5.909 52.509c-.06.88.01.543.626.633 3.385.491 8.068.033 11.767.473 15.54 1.846 34.156 10.343 32.312 28.83-.627 6.286-5.482 11.61-11.382 13.5-12.744 4.083-24.894-4.221-24.88-17.711l-.838-.21-10.79 16.866c9.734 10.354 26.47 12.86 39.79 9.397 18.554-4.824 27.459-21.654 23.001-40.109-5.067-20.976-28.144-29.52-47.79-29.175l1.685-18.975h41.33V14.23c-.814-.19-.812.295-1.19.708m-84.204 63.4c8.653-9.795 18.186-21.944 15.695-35.95-3.872-21.76-31.834-26.145-49.45-19.735-5.46 1.987-10.908 5.317-14.953 9.5l16.234 20.45c.933.168.628-.371.585-1.004-.412-6.125-1.919-9.345.881-15.656 4.972-11.206 20.923-9.639 24.441 2.138 5.01 16.775-11.075 40.174-20.296 53.457-7.878 11.35-16.521 22.221-25.44 32.761l.425.844h68.109v-31.63l-1.297.262-7.349 15.342h-36.057c8.819-10.85 19.232-20.32 28.472-30.78"/></svg>