<?xml version="1.0" encoding="UTF-8" standalone="no"?>
<!-- Generator: Adobe Illustrator 15.1.0, SVG Export Plug-In . SVG Version: 6.00 Build 0)  -->

<svg
   version="1.1"
   id="Layer_1"
   x="0px"
   y="0px"
   width="272.798"
   height="314.99899"
   viewBox="37 0 272.798 314.99899"
   enable-background="new 37 0 325 350"
   xml:space="preserve"
   xmlns="http://www.w3.org/2000/svg"
   xmlns:svg="http://www.w3.org/2000/svg"><defs
   id="defs2" />
<g
   id="Layer_1_1_"
   transform="translate(-26.694,-18.653)">
</g>
<g
   id="g2"
   transform="translate(-26.694,-18.653)">
	<polygon
   fill="#808080"
   points="200.094,18.653 336.492,97.405 336.492,254.903 200.094,333.652 63.694,254.903 63.694,97.405 "
   id="polygon1" />
	<polygon
   points="75.8,247.914 200.094,319.675 324.387,247.914 324.387,104.394 200.094,32.631 75.8,104.394 "
   id="polygon2" />
	<path
   fill="#808080"
   d="m 180.741,114.424 c -8.296,-26.815 5.594,-49.383 5.594,-49.383 0,0 -1.544,14.465 8.681,27.777 10.222,13.312 33.758,32.215 46.875,46.106 13.118,13.889 21.412,26.619 21.412,26.619 -0.771,-19.677 -40.509,-53.048 -45.333,-57.678 -4.82,-4.629 -8.873,-8.103 -8.873,-18.135 0,-10.03 5.209,-17.747 5.209,-17.747 -0.191,3.667 0.385,15.047 9.452,27.009 9.068,11.961 40.897,40.315 51.122,50.348 10.224,10.033 12.087,28.102 12.087,31.444 0,3.344 -0.771,9.004 -0.771,9.004 13.118,-0.13 10.03,13.115 10.03,13.115 12.092,-5.53 15.563,-16.719 15.563,-16.719 5.788,38.583 -23.535,52.472 -23.535,52.472 4.757,-24.822 -21.734,-25.593 -25.077,-25.593 -3.344,0 -8.876,0.901 -8.876,0.901 9.774,-15.433 -10.929,-21.606 -28.806,-21.606 -17.878,0 -24.692,7.072 -24.692,7.072 16.717,-1.414 22.893,3.604 22.893,3.604 0,0 -7.718,6.171 -7.718,14.273 0,11.962 14.276,8.746 14.276,8.746 0,0 -5.145,3.599 -5.145,8.744 0,10.933 14.531,7.201 14.531,7.201 -6.816,11.96 2.958,14.66 9.647,14.66 6.687,0 13.439,-3.921 13.439,-3.921 -17.171,38.581 -74.785,31.187 -74.785,31.187 26.876,-8.232 25.72,-25.204 25.72,-25.204 -4.244,5.528 -11.831,3.471 -11.831,3.471 0,0 6.559,-5.4 6.559,-15.305 0,-14.789 -15.947,-34.339 -43.34,-34.339 -5.402,0 -15.689,1.547 -15.689,1.547 14.146,-23.408 42.183,-30.482 42.183,-30.482 -6.816,-6.814 -22.506,-7.585 -22.506,-7.585 15.304,-11.446 42.438,-13.118 42.438,-13.118 -46.041,-9.775 -68.545,19.932 -68.545,19.932 11.574,-0.386 18.262,3.471 18.262,3.471 -28.294,6.559 -45.655,27.267 -45.655,27.267 0,0 3.857,-20.708 -5.016,-30.479 -8.874,-9.775 -26.363,-7.332 -26.363,-7.332 24.435,-24.562 42.31,-22.247 42.31,-32.407 0,-14.532 -18.389,-22.634 -18.389,-22.634 19.032,-5.145 32.666,2.059 32.666,2.059 -10.031,-9.003 -8.232,-34.211 -8.232,-34.211 19.163,25.723 27.606,25.406 46.812,36.523 19.548,11.318 27.521,23.663 27.521,23.663 -1.475,-15.625 -26.105,-34.337 -26.105,-34.337 z m 67.388,68.289 c 5.018,4.114 13.246,2.313 13.246,2.313 -2.315,-12.858 -14.917,-22.89 -19.161,-25.72 -4.244,-2.828 -6.687,-1.929 -6.687,-1.929 -3.859,9.258 7.587,21.222 12.602,25.336 z"
   id="path2" />
</g>
</svg>
