<?xml version="1.0" encoding="UTF-8" standalone="no"?>
<!-- Generator: Adobe Illustrator 27.6.1, SVG Export Plug-In . SVG Version: 6.00 Build 0)  -->

<svg
   version="1.1"
   id="Layer_1"
   x="0px"
   y="0px"
   viewBox="0 0 258.79999 298.79999"
   xml:space="preserve"
   width="258.79999"
   height="298.79999"
   xmlns="http://www.w3.org/2000/svg"
   xmlns:svg="http://www.w3.org/2000/svg"><defs
   id="defs17" />
<style
   type="text/css"
   id="style1">
	.st0{fill:url(#SVGID_1_);}
</style>
<g
   id="Layer_1_1_"
   transform="translate(-33.3,-26.8)">
</g>
<g
   id="g17"
   transform="translate(-33.3,-26.8)">
	<polygon
   points="162.7,26.8 292.1,101.5 292.1,250.9 162.7,325.6 33.3,250.9 33.3,101.5 "
   id="polygon1" />
	
		<linearGradient
   id="SVGID_1_"
   gradientUnits="userSpaceOnUse"
   x1="58.134899"
   y1="88.109497"
   x2="267.25809"
   y2="263.5845"
   gradientTransform="matrix(1,0,0,-1,0,352)">
		<stop
   offset="0"
   style="stop-color:#BB2C26"
   id="stop1" />
		<stop
   offset="9.800000e-03"
   style="stop-color:#BD2F26"
   id="stop2" />
		<stop
   offset="0.1368"
   style="stop-color:#D05724"
   id="stop3" />
		<stop
   offset="0.238"
   style="stop-color:#DC6F23"
   id="stop4" />
		<stop
   offset="0.3"
   style="stop-color:#E07823"
   id="stop5" />
		<stop
   offset="0.3053"
   style="stop-color:#E17A23"
   id="stop6" />
		<stop
   offset="0.3616"
   style="stop-color:#EE8B1F"
   id="stop7" />
		<stop
   offset="0.4232"
   style="stop-color:#F5951E"
   id="stop8" />
		<stop
   offset="0.5"
   style="stop-color:#F7981D"
   id="stop9" />
		<stop
   offset="0.5768"
   style="stop-color:#F5951E"
   id="stop10" />
		<stop
   offset="0.6384"
   style="stop-color:#EE8B1F"
   id="stop11" />
		<stop
   offset="0.6947"
   style="stop-color:#E17A23"
   id="stop12" />
		<stop
   offset="0.7"
   style="stop-color:#E07823"
   id="stop13" />
		<stop
   offset="0.762"
   style="stop-color:#DC6F23"
   id="stop14" />
		<stop
   offset="0.8632"
   style="stop-color:#D05724"
   id="stop15" />
		<stop
   offset="0.9902"
   style="stop-color:#BD2F26"
   id="stop16" />
		<stop
   offset="1"
   style="stop-color:#BB2C26"
   id="stop17" />
	</linearGradient>
	<polygon
   class="st0"
   points="42.7,245.5 162.7,314.8 282.7,245.5 282.7,106.9 162.7,37.6 42.7,106.9 "
   id="polygon17"
   style="fill:url(#SVGID_1_)" />
	<path
   d="m 144,116.5 c -8,-25.9 5.4,-47.7 5.4,-47.7 0,0 -1.5,14 8.4,26.8 9.9,12.9 32.6,31.1 45.3,44.5 12.7,13.4 20.7,25.7 20.7,25.7 -0.7,-19 -39.1,-51.2 -43.8,-55.7 -4.7,-4.5 -8.6,-7.8 -8.6,-17.5 0,-9.7 5,-17.1 5,-17.1 -0.2,3.5 0.4,14.5 9.1,26.1 8.8,11.6 39.5,38.9 49.4,48.6 9.9,9.7 11.7,27.1 11.7,30.4 0,3.2 -0.7,8.7 -0.7,8.7 12.7,-0.1 9.7,12.7 9.7,12.7 11.7,-5.3 15,-16.1 15,-16.1 5.6,37.3 -22.7,50.7 -22.7,50.7 4.6,-24 -21,-24.7 -24.2,-24.7 -3.2,0 -8.6,0.9 -8.6,0.9 9.4,-14.9 -10.6,-20.9 -27.8,-20.9 -17.3,0 -23.8,6.8 -23.8,6.8 16.1,-1.4 22.1,3.5 22.1,3.5 0,0 -7.5,6 -7.5,13.8 0,11.6 13.8,8.4 13.8,8.4 0,0 -5,3.5 -5,8.4 0,10.6 14,7 14,7 -6.6,11.6 2.9,14.2 9.3,14.2 6.4,0 13,-3.8 13,-3.8 -16.6,37.3 -72.2,30.1 -72.2,30.1 26,-7.9 24.8,-24.3 24.8,-24.3 -4.1,5.3 -11.4,3.4 -11.4,3.4 0,0 6.3,-5.2 6.3,-14.8 0,-14.3 -15.4,-33.2 -41.9,-33.2 -5.2,0 -15.1,1.5 -15.1,1.5 13.7,-22.6 40.7,-29.4 40.7,-29.4 -6.6,-6.6 -21.7,-7.3 -21.7,-7.3 14.8,-11.1 41,-12.7 41,-12.7 -44.5,-9.4 -66.2,19.2 -66.2,19.2 11.2,-0.4 17.6,3.4 17.6,3.4 -27.3,6.2 -44.1,26.2 -44.1,26.2 0,0 3.7,-20 -4.8,-29.4 -8.6,-9.4 -25.5,-7.1 -25.5,-7.1 23.6,-23.7 40.9,-21.5 40.9,-31.3 0,-14 -17.8,-21.9 -17.8,-21.9 18.4,-5 31.5,2 31.5,2 -9.7,-8.7 -7.9,-33 -7.9,-33 18.5,24.8 26.7,24.5 45.2,35.3 18.9,10.9 26.6,22.9 26.6,22.9 C 167.8,134.6 144,116.5 144,116.5 Z m 65.1,66 c 4.8,4 12.8,2.2 12.8,2.2 -2.2,-12.4 -14.4,-22.1 -18.5,-24.8 -4.1,-2.7 -6.5,-1.9 -6.5,-1.9 -3.7,9 7.3,20.5 12.2,24.5 z"
   id="path17" />
</g>
</svg>
