<?xml version="1.0" encoding="UTF-8" standalone="no"?>
<!-- Generator: Adobe Illustrator 15.1.0, SVG Export Plug-In . SVG Version: 6.00 Build 0)  -->

<svg
   version="1.1"
   id="Layer_1"
   x="0px"
   y="0px"
   width="272.798"
   height="314.99899"
   viewBox="37 0 272.798 314.99899"
   enable-background="new 37 0 325 350"
   xml:space="preserve"
   xmlns="http://www.w3.org/2000/svg"
   xmlns:svg="http://www.w3.org/2000/svg"><defs
   id="defs15" />
<g
   id="Layer_1_1_"
   transform="translate(-26.763,-18.653)">
</g>
<g
   id="g15"
   transform="translate(-26.763,-18.653)">
	<polygon
   points="200.162,18.653 336.561,97.405 336.561,254.903 200.162,333.652 63.763,254.903 63.763,97.405 "
   id="polygon1" />
	<linearGradient
   id="SVGID_1_"
   gradientUnits="userSpaceOnUse"
   x1="91.888702"
   y1="267.00589"
   x2="308.435"
   y2="85.301903">
		<stop
   offset="0"
   style="stop-color:#8D742F"
   id="stop1" />
		<stop
   offset="0.0286"
   style="stop-color:#927934"
   id="stop2" />
		<stop
   offset="0.1967"
   style="stop-color:#AA914B"
   id="stop3" />
		<stop
   offset="0.3"
   style="stop-color:#B39A54"
   id="stop4" />
		<stop
   offset="0.3145"
   style="stop-color:#B9A059"
   id="stop5" />
		<stop
   offset="0.3681"
   style="stop-color:#CAB068"
   id="stop6" />
		<stop
   offset="0.4268"
   style="stop-color:#D4BA71"
   id="stop7" />
		<stop
   offset="0.5"
   style="stop-color:#D7BD74"
   id="stop8" />
		<stop
   offset="0.5732"
   style="stop-color:#D4BA71"
   id="stop9" />
		<stop
   offset="0.6319"
   style="stop-color:#CAB068"
   id="stop10" />
		<stop
   offset="0.6855"
   style="stop-color:#B9A059"
   id="stop11" />
		<stop
   offset="0.7"
   style="stop-color:#B39A54"
   id="stop12" />
		<stop
   offset="0.8033"
   style="stop-color:#AA914B"
   id="stop13" />
		<stop
   offset="0.9714"
   style="stop-color:#927934"
   id="stop14" />
		<stop
   offset="1"
   style="stop-color:#8D742F"
   id="stop15" />
	</linearGradient>
	<polygon
   fill="url(#SVGID_1_)"
   points="75.869,247.914 200.162,319.675 324.455,247.914 324.455,104.394 200.162,32.631 75.869,104.394 "
   id="polygon15"
   style="fill:url(#SVGID_1_)" />
	<path
   d="m 180.809,114.424 c -8.294,-26.815 5.594,-49.383 5.594,-49.383 0,0 -1.543,14.465 8.681,27.777 10.223,13.312 33.758,32.215 46.876,46.106 13.118,13.889 21.412,26.619 21.412,26.619 -0.771,-19.677 -40.51,-53.048 -45.331,-57.678 -4.823,-4.629 -8.876,-8.103 -8.876,-18.135 0,-10.03 5.212,-17.747 5.212,-17.747 -0.194,3.667 0.383,15.047 9.45,27.009 9.067,11.961 40.897,40.315 51.121,50.348 10.224,10.033 12.087,28.102 12.087,31.444 0,3.344 -0.771,9.004 -0.771,9.004 13.118,-0.13 10.029,13.115 10.029,13.115 12.092,-5.53 15.563,-16.719 15.563,-16.719 5.788,38.583 -23.536,52.472 -23.536,52.472 4.758,-24.822 -21.733,-25.593 -25.077,-25.593 -3.343,0 -8.871,0.901 -8.871,0.901 9.77,-15.433 -10.933,-21.606 -28.808,-21.606 -17.878,0 -24.694,7.072 -24.694,7.072 16.719,-1.414 22.893,3.604 22.893,3.604 0,0 -7.718,6.171 -7.718,14.273 0,11.962 14.276,8.746 14.276,8.746 0,0 -5.145,3.599 -5.145,8.744 0,10.933 14.531,7.201 14.531,7.201 -6.814,11.96 2.96,14.66 9.646,14.66 6.688,0 13.439,-3.921 13.439,-3.921 -17.17,38.581 -74.783,31.187 -74.783,31.187 26.877,-8.232 25.721,-25.204 25.721,-25.204 -4.246,5.528 -11.831,3.471 -11.831,3.471 0,0 6.557,-5.4 6.557,-15.305 0,-14.789 -15.947,-34.339 -43.34,-34.339 -5.401,0 -15.688,1.547 -15.688,1.547 14.146,-23.408 42.181,-30.482 42.181,-30.482 -6.816,-6.814 -22.505,-7.585 -22.505,-7.585 15.304,-11.446 42.438,-13.118 42.438,-13.118 C 165.505,153.134 143,182.841 143,182.841 c 11.575,-0.386 18.262,3.471 18.262,3.471 -28.293,6.559 -45.655,27.267 -45.655,27.267 0,0 3.859,-20.708 -5.015,-30.479 -8.874,-9.775 -26.363,-7.332 -26.363,-7.332 24.434,-24.562 42.31,-22.247 42.31,-32.407 0,-14.532 -18.391,-22.634 -18.391,-22.634 19.034,-5.145 32.666,2.059 32.666,2.059 -10.031,-9.003 -8.23,-34.211 -8.23,-34.211 19.163,25.723 27.604,25.406 46.812,36.523 19.548,11.318 27.522,23.663 27.522,23.663 -1.479,-15.625 -26.109,-34.337 -26.109,-34.337 z m 67.388,68.289 c 5.018,4.114 13.245,2.313 13.245,2.313 -2.312,-12.858 -14.917,-22.89 -19.161,-25.72 -4.241,-2.828 -6.687,-1.929 -6.687,-1.929 -3.858,9.258 7.589,21.222 12.603,25.336 z"
   id="path15" />
</g>
</svg>
