<?xml version="1.0" encoding="UTF-8" standalone="no"?>
<!-- Generator: Adobe Illustrator 15.1.0, SVG Export Plug-In . SVG Version: 6.00 Build 0)  -->

<svg
   version="1.1"
   id="Layer_1"
   x="0px"
   y="0px"
   width="272.79901"
   height="314.99899"
   viewBox="37 0 272.79901 314.99899"
   enable-background="new 37 0 325 350"
   xml:space="preserve"
   xmlns="http://www.w3.org/2000/svg"
   xmlns:svg="http://www.w3.org/2000/svg"><defs
   id="defs17" />
<g
   id="Layer_1_1_"
   transform="translate(-27.229,-18.653)">
</g>
<g
   id="g17"
   transform="translate(-27.229,-18.653)">
	<polygon
   points="200.628,18.653 337.028,97.405 337.028,254.903 200.628,333.652 64.229,254.903 64.229,97.405 "
   id="polygon1" />
	<linearGradient
   id="SVGID_1_"
   gradientUnits="userSpaceOnUse"
   x1="92.355499"
   y1="267.00681"
   x2="308.90289"
   y2="85.302002">
		<stop
   offset="0"
   style="stop-color:#626E77"
   id="stop1" />
		<stop
   offset="0.0069"
   style="stop-color:#647079"
   id="stop2" />
		<stop
   offset="0.1352"
   style="stop-color:#8496A1"
   id="stop3" />
		<stop
   offset="0.2374"
   style="stop-color:#99ADB9"
   id="stop4" />
		<stop
   offset="0.3"
   style="stop-color:#A0B6C2"
   id="stop5" />
		<stop
   offset="0.3027"
   style="stop-color:#A1B7C3"
   id="stop6" />
		<stop
   offset="0.3597"
   style="stop-color:#ADC6D4"
   id="stop7" />
		<stop
   offset="0.4222"
   style="stop-color:#B5CEDE"
   id="stop8" />
		<stop
   offset="0.5"
   style="stop-color:#B7D1E1"
   id="stop9" />
		<stop
   offset="0.5778"
   style="stop-color:#B5CEDE"
   id="stop10" />
		<stop
   offset="0.6403"
   style="stop-color:#ADC6D4"
   id="stop11" />
		<stop
   offset="0.6973"
   style="stop-color:#A1B7C3"
   id="stop12" />
		<stop
   offset="0.7"
   style="stop-color:#A0B6C2"
   id="stop13" />
		<stop
   offset="0.7626"
   style="stop-color:#99ADB9"
   id="stop14" />
		<stop
   offset="0.8648"
   style="stop-color:#8496A1"
   id="stop15" />
		<stop
   offset="0.9931"
   style="stop-color:#647079"
   id="stop16" />
		<stop
   offset="1"
   style="stop-color:#626E77"
   id="stop17" />
	</linearGradient>
	<polygon
   fill="url(#SVGID_1_)"
   points="76.334,247.914 200.628,319.675 324.923,247.914 324.923,104.394 200.628,32.631 76.334,104.394 "
   id="polygon17"
   style="fill:url(#SVGID_1_)" />
	<path
   d="m 181.275,114.424 c -8.294,-26.815 5.594,-49.383 5.594,-49.383 0,0 -1.543,14.465 8.681,27.777 10.226,13.312 33.761,32.215 46.876,46.106 13.118,13.889 21.415,26.619 21.415,26.619 -0.773,-19.677 -40.513,-53.048 -45.336,-57.678 -4.821,-4.629 -8.871,-8.103 -8.871,-18.135 0,-10.03 5.206,-17.747 5.206,-17.747 -0.193,3.667 0.388,15.047 9.453,27.009 9.065,11.961 40.896,40.315 51.119,50.348 10.226,10.033 12.092,28.102 12.092,31.444 0,3.344 -0.773,9.004 -0.773,9.004 13.118,-0.13 10.032,13.115 10.032,13.115 12.087,-5.53 15.561,-16.719 15.561,-16.719 5.788,38.583 -23.536,52.472 -23.536,52.472 4.76,-24.822 -21.731,-25.593 -25.077,-25.593 -3.346,0 -8.873,0.901 -8.873,0.901 9.774,-15.433 -10.931,-21.606 -28.809,-21.606 -17.875,0 -24.691,7.072 -24.691,7.072 16.719,-1.414 22.893,3.604 22.893,3.604 0,0 -7.716,6.171 -7.716,14.273 0,11.962 14.274,8.746 14.274,8.746 0,0 -5.145,3.599 -5.145,8.744 0,10.933 14.534,7.201 14.534,7.201 -6.819,11.96 2.955,14.66 9.642,14.66 6.689,0 13.439,-3.921 13.439,-3.921 -17.166,38.581 -74.781,31.187 -74.781,31.187 26.877,-8.232 25.719,-25.204 25.719,-25.204 -4.242,5.528 -11.832,3.471 -11.832,3.471 0,0 6.56,-5.4 6.56,-15.305 0,-14.789 -15.947,-34.339 -43.34,-34.339 -5.401,0 -15.688,1.547 -15.688,1.547 14.146,-23.408 42.181,-30.482 42.181,-30.482 -6.816,-6.814 -22.505,-7.585 -22.505,-7.585 15.304,-11.446 42.44,-13.118 42.44,-13.118 -46.042,-9.775 -68.547,19.932 -68.547,19.932 11.575,-0.386 18.262,3.471 18.262,3.471 -28.293,6.559 -45.655,27.267 -45.655,27.267 0,0 3.859,-20.708 -5.015,-30.479 -8.874,-9.775 -26.363,-7.332 -26.363,-7.332 24.434,-24.562 42.31,-22.247 42.31,-32.407 0,-14.532 -18.391,-22.634 -18.391,-22.634 19.034,-5.145 32.666,2.059 32.666,2.059 -10.031,-9.003 -8.23,-34.211 -8.23,-34.211 19.163,25.723 27.604,25.406 46.812,36.523 19.548,11.318 27.522,23.663 27.522,23.663 -1.482,-15.625 -26.109,-34.337 -26.109,-34.337 z m 67.391,68.289 c 5.012,4.114 13.245,2.313 13.245,2.313 -2.317,-12.858 -14.92,-22.89 -19.161,-25.72 -4.247,-2.828 -6.689,-1.929 -6.689,-1.929 -3.859,9.258 7.587,21.222 12.605,25.336 z"
   id="path17" />
</g>
</svg>
