<?xml version="1.0" encoding="UTF-8" standalone="no"?>
<svg
   version="1.1"
   width="556.55261"
   height="466.75934"
   id="svg1"
   xmlns="http://www.w3.org/2000/svg"
   xmlns:svg="http://www.w3.org/2000/svg">
  <defs
     id="defs1" />
  <path
     d="m 158.97323,0 c 0,0 -29.35352,3.137842 -29.35352,33.539062 L 20.490804,63.992187 c 0,0 -27.2634706,10.459728 -18.8945306,46.142583 L 91.844319,446.92188 c 0,0 18.892591,25.10679 40.912111,18.83008 l 145.57813,-40.01953 145.51171,40.01953 c 22.01952,6.27671 40.91407,-18.83008 40.91407,-18.83008 L 554.95565,110.13477 C 563.32459,74.451915 536.07479,63.992187 536.07479,63.992187 L 426.98495,33.539062 C 426.98495,3.137842 397.5787,0 397.5787,0 Z m 0.94531,12.566406 h 236.71484 c 1.39057,0.24239 5.588,1.186274 9.56836,3.839844 5.5878,3.7252 8.17774,9.159352 8.17774,17.132812 v 9.56836 c 0,0 115.81301,32.301028 117.50976,32.748046 2.98526,1.441602 12.10742,6.876568 12.10742,21.369138 0,2.946994 -0.39474,6.238614 -1.25,9.976574 -0.19136,0.59961 -88.00267,328.45665 -89.45703,333.73828 -3.8783,4.38859 -15.2446,15.79215 -25.96093,12.75586 L 278.28182,412.68164 129.32479,453.69532 c -10.76736,3.03629 -22.17145,-8.36727 -26.0625,-12.75586 -1.39057,-5.28163 -89.253162,-333.13816 -89.406252,-333.73828 -0.842,-3.73796 -1.25,-7.02958 -1.25,-9.976574 0,-14.49257 9.072044,-19.927538 12.121094,-21.369138 1.68399,-0.446509 117.457028,-32.748046 117.457028,-32.748046 v -9.56836 c 0,-7.97346 2.59073,-13.407612 8.2168,-17.132812 3.94208,-2.65357 8.17804,-3.597964 9.51758,-3.839844 z m 1.45312,15.742188 c 0,0 -4.93554,2.092873 -4.93554,6.277343 V 382.92969 c 0,0 -0.002,6.92774 4.93554,6.92774 h 234.26758 c 0,0 5.57422,-1.39097 5.57422,-6.92774 V 34.585937 c 0,0 -0.68808,-6.277343 -5.57422,-6.277343 z M 416.91854,59.755859 V 383.58008 c 0,0 -2.7931,21.02539 -19.58203,21.02539 h -90.89844 l 121.69531,33.53907 c 0,-1e-5 6.97813,3.49644 10.46094,-4.1836 l 89.55664,-332.24609 c 0,0 3.48443,-10.460004 -4.93555,-13.253914 z M 139.68416,60.509765 33.33846,89.162106 c -8.36895,2.78114 -4.875,13.306644 -4.875,13.306644 l 89.49414,332.14258 c 3.49557,7.71832 10.51367,4.23438 10.51367,4.23438 L 250.1783,405.30664 h -90.94921 c -16.80168,0 -19.54493,-21.0371 -19.54493,-21.0371 z m 168.72071,40.388675 c 12.59694,2.1e-4 24.02785,3.45482 34.29297,10.36719 10.26481,6.91277 16.10958,14.78871 17.5332,23.62695 1.42327,8.83859 2.13461,14.68062 2.13476,17.52735 -1.6e-4,13.00659 -4.98052,24.08597 -14.9414,33.23437 -11.79091,8.13147 -19.10672,13.21021 -21.94727,15.23828 15.04066,2.84702 27.38682,10.26754 37.04102,22.25977 9.65386,11.99243 14.48223,23.98152 14.48242,35.9707 -1.9e-4,11.17678 -1.98216,21.38897 -5.94531,30.63672 -3.96351,9.24779 -10.62074,15.70191 -19.9707,19.36133 -9.35027,3.65941 -17.47934,6.09958 -24.38868,7.31836 -6.9096,1.21877 -13.81916,1.82812 -20.72851,1.82812 -8.73929,0 -16.66525,-0.66129 -23.7793,-1.98242 -7.11425,-1.32111 -15.90462,-3.35309 -26.37109,-6.09766 -10.46661,-2.74454 -20.06945,-4.11717 -28.8086,-4.11718 l -10.67187,0.61328 -27.74414,4.875 c -0.8125,-0.60788 -1.52384,-1.36835 -2.13477,-2.28321 -0.61094,-0.91487 -0.91601,-1.98319 -0.91601,-3.20507 0,-0.8125 0.61015,-1.72694 1.83203,-2.74414 l 35.66992,-10.0586 c 0.81251,-0.60777 1.42183,-3.60537 1.82812,-8.99219 0.4062,-5.38674 0.60928,-12.55219 0.60938,-21.49609 -3e-5,-19.10333 -0.71137,-40.84839 -2.13477,-65.23633 -1.42349,-24.3877 -2.99922,-40.90091 -4.72656,-49.54101 -1.7274,-8.63978 -9.24711,-13.87243 -22.56055,-15.69922 -13.31344,-1.82642 -19.97069,-3.86035 -19.9707,-6.09961 1e-5,-1.42016 0.66129,-2.99314 1.98242,-4.7207 1.32112,-1.72718 2.99883,-2.5916 5.03321,-2.5918 6.30163,1.42055 12.7038,2.84237 19.20703,4.26562 6.50319,1.42364 12.60108,2.13496 18.29492,2.13477 13.20486,1.9e-4 24.83888,-2.89621 34.90234,-8.68945 10.06331,-5.79283 23.52816,-10.62007 40.39258,-14.48438 3.45463,-0.8123 7.62251,-1.21854 12.50391,-1.21875 z m -21.65039,17.99219 -7.00391,0.60547 c -10.56898,1.42674 -17.53129,6.25397 -20.88672,14.48437 -3.35557,8.23076 -5.03326,19.66167 -5.0332,34.29297 -6e-5,3.65957 0.1019,9.1473 0.30664,16.46289 0.20463,7.31586 0.30664,12.70163 0.30664,16.15625 -6e-5,14.83624 -0.10201,27.08043 -0.30664,36.73438 -0.20474,9.65411 -0.4107,18.85071 -0.61523,27.58984 -7e-5,8.9439 0.4089,15.6531 1.2246,20.125 0.81556,4.47196 2.64442,8.48592 5.48829,12.04297 2.84373,3.5571 7.31505,6.14842 13.41211,7.77344 6.09684,1.62503 12.90607,2.43751 20.42968,2.4375 13.211,10e-6 23.52515,-1.82885 30.94336,-5.48828 7.41793,-3.6594 12.8037,-9.7065 16.15625,-18.13868 3.35225,-8.43213 5.02913,-19.76187 5.0293,-33.99023 -1.7e-4,-12.80788 -6.09725,-22.97089 -18.29102,-30.48828 -15.04095,-6.50001 -29.98037,-13.00334 -44.8164,-19.50977 10.3641,-1.8296 20.01892,-5.74159 28.96289,-11.73633 8.94373,-5.9945 13.41587,-14.88682 13.41601,-26.67773 v -5.18164 c -1.4e-4,-10.56873 -3.60786,-19.46025 -10.82422,-26.67383 -7.21662,-7.21319 -16.51714,-10.8201 -27.89843,-10.82031 z"
     id="path1" />
</svg>
