<svg xmlns="http://www.w3.org/2000/svg" xml:space="preserve" width="240.5" height="175" viewBox="0 0 240.5 175"><path fill="#747678" d="M235.98 99.574c-2.814 1.021-30.208 10.533-30.208 10.533L183.53 87.5l22.242-22.608s27.394 9.512 30.208 10.531c1.86.676 3.57.85 4.034.296 1.884-2.217-2.25-9.308-3.462-11.513C214.175 23.45 169.58 9.218 167.804 8.511c-3.312-1.315-14.11-4.981-15.168-2.635-.864 1.921-.037 2.86 2.146 4.516 3.711 2.816 9.028 8.598 9.028 12.833 0 2.292-1.568 8.241-8.746 8.241-2.354 0-4.547-1.163-6.759-2.952L120.251 0 92.197 28.512c-2.215 1.79-4.409 2.955-6.759 2.955-7.178 0-8.75-5.949-8.75-8.241 0-4.235 5.318-10.017 9.032-12.833 2.182-1.656 3.011-2.595 2.146-4.516-1.06-2.347-11.855 1.32-15.167 2.635-1.78.706-46.372 14.938-68.752 55.694-1.212 2.205-5.344 9.296-3.463 11.513.47.554 2.178.38 4.037-.296 2.813-1.019 30.206-10.531 30.206-10.531L56.97 87.5l-22.244 22.607S7.333 100.595 4.52 99.574C2.661 98.9.952 98.726.483 99.278c-1.88 2.22 2.251 9.308 3.463 11.513 22.38 40.756 66.972 54.988 68.751 55.697 3.312 1.315 14.107 4.981 15.167 2.633.865-1.921.036-2.86-2.146-4.516-3.713-2.816-9.032-8.599-9.032-12.833 0-2.293 1.572-8.241 8.75-8.241 2.35 0 4.543 1.162 6.757 2.952L120.25 175l28.056-28.52c2.212-1.787 4.405-2.949 6.76-2.949 7.177 0 8.745 5.948 8.745 8.241 0 4.234-5.317 10.017-9.028 12.833-2.184 1.655-3.01 2.595-2.146 4.516 1.058 2.349 11.856-1.317 15.168-2.633 1.775-.709 46.371-14.941 68.748-55.697 1.212-2.205 5.346-9.293 3.462-11.513-.465-.552-2.175-.378-4.035.296M130.512 54.856l-10.262 10.43-10.26-10.43 10.26-10.43zm-20.522 65.287 10.261-10.431 10.262 10.431-10.262 10.43z"/><path d="m66.278 120.143 17.128 17.408c-8.754.99-12.815 8.337-12.815 14.221 0 5.533 2.596 8.243 2.596 8.243S30.74 146.917 9.29 107.857l27.094 9.259L65.524 87.5l-29.14-29.617L9.29 67.141c21.45-39.062 63.897-52.158 63.897-52.158s-2.596 2.71-2.596 8.241c0 5.883 4.061 13.232 12.815 14.221l-17.128 17.41 32.116 32.644zm107.942 0-17.126 17.408c8.756.99 12.814 8.337 12.814 14.221 0 5.533-2.598 8.243-2.598 8.243s42.448-13.098 63.9-52.158l-27.098 9.259L174.976 87.5l29.138-29.616 27.098 9.258c-21.452-39.062-63.9-52.158-63.9-52.158s2.598 2.71 2.598 8.241c0 5.883-4.059 13.232-12.814 14.221l17.126 17.41L142.105 87.5zm-49.696-14.777 14.538 14.777-18.812 19.12-18.814-19.12 64.235-65.287-45.42-46.164-45.422 46.164 27.842 28.299 13.303-13.523-14.537-14.775 18.814-19.122 18.812 19.122-64.233 65.287 45.421 46.164 45.421-46.164-27.84-28.299z"/></svg>