<svg xmlns="http://www.w3.org/2000/svg" xml:space="preserve" width="240.502" height="175.002" viewBox="0 0 240.502 175.002"><path fill="#fff" d="M235.978 99.574c-2.813 1.021-30.205 10.533-30.205 10.533L183.53 87.5l22.244-22.608s27.395 9.512 30.205 10.531c1.86.676 3.568.851 4.037.296 1.881-2.217-2.25-9.308-3.462-11.513-22.38-40.755-66.974-54.988-68.75-55.695-3.314-1.316-14.108-4.982-15.168-2.635-.864 1.921-.037 2.86 2.146 4.516 3.713 2.816 9.03 8.598 9.03 12.833 0 2.292-1.57 8.241-8.749 8.241-2.352 0-4.544-1.163-6.757-2.952L120.25 0 92.196 28.512c-2.215 1.79-4.408 2.955-6.759 2.955-7.177 0-8.75-5.949-8.75-8.241 0-4.235 5.32-10.017 9.032-12.833 2.182-1.656 3.011-2.595 2.146-4.516-1.059-2.347-11.854 1.319-15.167 2.635-1.779.707-46.37 14.939-68.75 55.695C2.735 66.412-1.398 73.503.483 75.72c.47.554 2.178.38 4.037-.296 2.813-1.02 30.206-10.531 30.206-10.531l22.245 22.608-22.244 22.607S7.334 100.595 4.521 99.575C2.662 98.9.953 98.727.484 99.279c-1.88 2.221 2.251 9.309 3.463 11.514 22.38 40.756 66.972 54.987 68.751 55.696 3.312 1.315 14.107 4.981 15.167 2.633.866-1.921.037-2.86-2.146-4.517-3.713-2.815-9.032-8.598-9.032-12.832 0-2.293 1.573-8.241 8.75-8.241 2.35 0 4.543 1.162 6.757 2.951l28.058 28.519 28.056-28.521c2.213-1.787 4.405-2.949 6.757-2.949 7.178 0 8.75 5.948 8.75 8.241 0 4.234-5.318 10.017-9.03 12.832-2.185 1.656-3.012 2.596-2.147 4.517 1.06 2.349 11.854-1.317 15.167-2.633 1.777-.709 46.371-14.94 68.751-55.696 1.212-2.205 5.343-9.293 3.462-11.514-.47-.552-2.179-.379-4.04.295M130.512 54.857l-10.263 10.43-10.26-10.431 10.26-10.43zm-20.522 65.287 10.26-10.432 10.262 10.432-10.262 10.431z"/><path d="m66.278 120.144 17.13 17.408c-8.755.99-12.816 8.338-12.816 14.221 0 5.533 2.596 8.242 2.596 8.242s-42.447-13.097-63.897-52.157l27.094 9.259 29.14-29.616-29.14-29.617-27.094 9.258c21.45-39.063 63.897-52.158 63.897-52.158s-2.596 2.71-2.596 8.242c0 5.883 4.061 13.232 12.815 14.221l-17.129 17.41 32.116 32.644zm107.944 0-17.128 17.408c8.755.99 12.815 8.338 12.815 14.221 0 5.533-2.598 8.242-2.598 8.242s42.448-13.098 63.898-52.157l-27.096 9.259-29.139-29.616 29.14-29.616 27.095 9.258c-21.449-39.062-63.897-52.158-63.897-52.158s2.598 2.71 2.598 8.242c0 5.883-4.062 13.232-12.815 14.221l17.128 17.41-32.118 32.644zm-49.698-14.778 14.538 14.777-18.813 19.12-18.813-19.12 64.232-65.287-45.42-46.164-45.42 46.165 27.842 28.298 13.303-13.523-14.537-14.775 18.813-19.122 18.813 19.122-64.233 65.287 45.42 46.164 45.42-46.164-27.839-28.299z"/></svg>