<svg xmlns="http://www.w3.org/2000/svg" xml:space="preserve" width="240.5" height="175" viewBox="0 0 240.5 175"><g transform="translate(-2.635 -2.35)"><path d="M238.615 101.924c-2.814 1.021-30.208 10.533-30.208 10.533L186.165 89.85l22.242-22.608s27.394 9.512 30.208 10.531c1.859.676 3.569.85 4.034.296 1.884-2.217-2.25-9.308-3.462-11.513-22.377-40.756-66.973-54.988-68.748-55.695-3.312-1.315-14.11-4.981-15.168-2.635-.864 1.921-.037 2.86 2.146 4.516 3.711 2.816 9.028 8.598 9.028 12.833 0 2.292-1.568 8.241-8.746 8.241-2.354 0-4.547-1.163-6.759-2.952L122.886 2.35 94.832 30.862c-2.215 1.79-4.409 2.955-6.759 2.955-7.178 0-8.75-5.949-8.75-8.241 0-4.235 5.318-10.017 9.032-12.833 2.182-1.656 3.011-2.595 2.146-4.516-1.06-2.347-11.855 1.32-15.167 2.635-1.78.706-46.372 14.938-68.752 55.694-1.212 2.205-5.344 9.296-3.463 11.513.469.554 2.178.38 4.037-.296 2.813-1.019 30.206-10.531 30.206-10.531L59.605 89.85l-22.244 22.607s-27.393-9.512-30.206-10.533c-1.859-.674-3.568-.848-4.037-.296-1.881 2.22 2.251 9.308 3.463 11.513 22.38 40.756 66.972 54.988 68.751 55.697 3.312 1.315 14.107 4.981 15.167 2.633.865-1.921.036-2.86-2.146-4.516-3.713-2.816-9.032-8.599-9.032-12.833 0-2.293 1.572-8.241 8.75-8.241 2.35 0 4.543 1.162 6.757 2.952l28.057 28.517 28.056-28.52c2.212-1.787 4.405-2.949 6.759-2.949 7.178 0 8.746 5.948 8.746 8.241 0 4.234-5.317 10.017-9.028 12.833-2.184 1.655-3.011 2.595-2.146 4.516 1.058 2.349 11.856-1.317 15.168-2.633 1.775-.709 46.371-14.941 68.748-55.697 1.212-2.205 5.346-9.293 3.462-11.513-.465-.552-2.175-.378-4.035.296M133.147 57.206l-10.262 10.43-10.261-10.43 10.261-10.43zm-20.522 65.287 10.261-10.431 10.262 10.431-10.262 10.43z"/><radialGradient id="a" cx="122.886" cy="89.85" r="96.237" gradientUnits="userSpaceOnUse"><stop offset="0" style="stop-color:#b7d1e1"/><stop offset=".37" style="stop-color:#b5cfdf"/><stop offset=".527" style="stop-color:#b0c9d8"/><stop offset=".643" style="stop-color:#a7becb"/><stop offset=".7" style="stop-color:#a0b6c2"/><stop offset=".768" style="stop-color:#9db2be"/><stop offset=".838" style="stop-color:#92a6b1"/><stop offset=".909" style="stop-color:#81929d"/><stop offset=".981" style="stop-color:#697780"/><stop offset="1" style="stop-color:#626e77"/></radialGradient><path fill="url(#a)" d="m68.913 122.493 17.128 17.408c-8.754.99-12.815 8.337-12.815 14.221 0 5.533 2.596 8.243 2.596 8.243s-42.448-13.098-63.897-52.158l27.094 9.259L68.158 89.85 39.019 60.233l-27.094 9.258c21.45-39.062 63.897-52.158 63.897-52.158s-2.596 2.71-2.596 8.241c0 5.883 4.061 13.232 12.815 14.221l-17.128 17.41 32.116 32.644zm107.942 0-17.126 17.408c8.756.99 12.814 8.337 12.814 14.221 0 5.533-2.598 8.243-2.598 8.243s42.448-13.098 63.9-52.158l-27.098 9.259-29.136-29.616 29.138-29.616 27.098 9.258c-21.452-39.062-63.9-52.158-63.9-52.158s2.598 2.71 2.598 8.241c0 5.883-4.059 13.232-12.814 14.221l17.126 17.41L144.74 89.85zm-49.696-14.777 14.538 14.777-18.812 19.12-18.814-19.12 64.235-65.287-45.421-46.164-45.421 46.164 27.842 28.299 13.303-13.523-14.537-14.775 18.814-19.122 18.812 19.122-64.233 65.287 45.421 46.164 45.421-46.164-27.841-28.299z" style="fill:url(#a)"/></g></svg>