<svg xmlns="http://www.w3.org/2000/svg" xml:space="preserve" width="240.001" height="170.455" viewBox="0 0 240.001 170.455"><path d="m61.63 120.53 18.524 18.826c-9.467 1.071-13.859 9.017-13.859 15.379 0 5.984 2.808 8.915 2.808 8.915S23.197 149.485 0 107.243l29.301 10.013 31.513-32.028-31.513-32.029L0 63.211C23.197 20.967 69.103 6.805 69.103 6.805s-2.808 2.931-2.808 8.913c0 6.362 4.392 14.31 13.859 15.379L61.63 49.925l34.733 35.303Zm116.736 0-18.521 18.826c9.47 1.071 13.859 9.017 13.859 15.379 0 5.984-2.811 8.915-2.811 8.915S216.8 149.485 240 107.243l-29.306 10.013-31.511-32.028 31.512-32.029 29.306 10.012c-23.2-42.244-69.107-56.406-69.107-56.406s2.811 2.931 2.811 8.913c0 6.362-4.39 14.31-13.859 15.379l18.521 18.829-34.732 35.302zm-53.744-15.981 15.723 15.981L120 141.208 99.653 120.53l69.468-70.605L120 0 70.878 49.925l30.11 30.604 14.387-14.625-15.722-15.979L120 29.245l20.345 20.68-69.466 70.605 49.122 49.925 49.121-49.925-30.108-30.604z"/></svg>