<svg xmlns="http://www.w3.org/2000/svg" width="257.13" height="305.97" viewBox="299.067 -5.174 257.13 305.97"><g transform="translate(-.003 1.1)"><linearGradient id="a" x1="311.521" x2="534.035" y1="105.319" y2="233.788" gradientUnits="userSpaceOnUse"><stop offset=".1" style="stop-color:#612c75"/><stop offset=".5" style="stop-color:#bf99c3"/><stop offset=".9" style="stop-color:#612c75"/></linearGradient><path fill="url(#a)" d="M425.862 293.389c-.224-.044-5.523-1.079-9.432-2.234-30.347-8.98-60.901-26.244-86.035-48.611l-8.261-7.351-.008-106.025-12.441-20.668h235.899l-12.445 20.667-.006 106.184-8.482 7.493c-23.222 20.516-51.057 36.78-78.375 45.797-10.344 3.415-17.948 4.721-18.267 4.774l-1.076.182z" style="fill:url(#a)"/><path fill="#fff" d="m534.967 114.5-3.914 6.5-3.914 6.5-.002 52.572-.004 52.572-6.455 5.702c-22.586 19.954-49.768 35.845-76.283 44.597-10.031 3.312-17.387 4.556-17.387 4.556s-5.197-1.011-8.875-2.099c-29.657-8.776-59.145-25.444-83.749-47.34l-6.249-5.561-.004-52.5-.004-52.5-3.914-6.5-3.913-6.5h214.667M556.2 102.5H299.07l10.95 18.189 3.912 6.5 2.195 3.646.004 49.167.004 52.5v5.385l4.023 3.579 6.248 5.561c25.78 22.941 57.146 40.656 88.321 49.882 4.11 1.216 9.399 2.257 9.989 2.371l2.142.416 2.15-.363c.337-.057 8.376-1.437 19.147-4.992 28.072-9.267 56.649-25.957 80.467-46.999l6.454-5.702 4.056-3.582v-5.41l.004-52.572.002-49.239 2.194-3.644 3.914-6.5z"/></g><g transform="translate(-.003 1.1)"><linearGradient id="b" x1="353.53" x2="502.274" y1="199.408" y2="199.408" gradientUnits="userSpaceOnUse"><stop offset=".2" style="stop-color:#612c75"/><stop offset=".5" style="stop-color:#bf99c3"/><stop offset=".8" style="stop-color:#612c75"/></linearGradient><path fill="url(#b)" d="M427.184 257.163c-3.224-1.02-14.766-4.753-21.102-7.883-12.606-6.229-28.982-18.163-37.282-27.168l-3.167-3.435V171.62l-6.856-16.553c-2.046-4.938-3.946-9.93-5.246-13.415h148.744c-1.379 3.348-3.33 8.075-5.375 13.006l-7.267 17.52v47.098l-7.402 7.007c-13.654 12.926-28.994 22.447-45.592 28.302-3.503 1.235-7.687 2.196-9.455 2.578" style="fill:url(#b)"/><path fill="#fff" d="M497.045 145.153a5484 5484 0 0 1-3.378 8.165l-7 16.876-.534 1.287v46.288l-6.309 5.972c-13.296 12.586-28.218 21.854-44.351 27.543-2.827.998-6.158 1.813-8.126 2.259-4.014-1.286-14.075-4.614-19.715-7.4-12.279-6.068-28.206-17.665-36.26-26.403l-2.24-2.429v-46.386l-.533-1.286-6.59-15.91a361 361 0 0 1-3.413-8.575h138.449m10.453-7.001h-159c.284.688 3.42 9.506 7.045 18.255l6.59 15.909v47.727l4.094 4.439c8.605 9.337 25.285 21.5 38.305 27.934 7.721 3.814 22.477 8.358 22.477 8.358s5.939-1.178 10.795-2.891c16.986-5.991 32.883-15.854 46.834-29.061l8.496-8.043v-47.906l7-16.876c3.848-9.28 7.364-17.845 7.364-17.845"/></g><g transform="translate(-.003 1.1)"><linearGradient id="c" x1="362.643" x2="484.931" y1="144.777" y2="215.38" gradientUnits="userSpaceOnUse"><stop offset=".1" style="stop-color:#612c75"/><stop offset=".5" style="stop-color:#bf99c3"/><stop offset=".9" style="stop-color:#612c75"/></linearGradient><path fill="url(#c)" d="M426.216 251.305c-.196-.035-4.85-.878-8.82-2.539-14.521-6.076-27.498-14.29-38.573-24.413l-7.189-6.57v-45.677l-10.181-25.266h132.41l-10.229 25.849v44.941l-7.154 6.782c-10.458 9.913-24.614 18.942-37.869 24.153-4.459 1.753-10.656 2.717-10.918 2.758l-.739.113z" style="fill:url(#c)"/><path fill="#fff" d="m487.242 151.34-8.109 20.49v43.865l-5.75 5.451c-10.104 9.577-23.621 18.199-36.42 23.23-4.043 1.59-9.955 2.498-9.955 2.498s-4.316-.771-7.875-2.261c-14.123-5.91-26.52-13.753-37.274-23.583l-5.726-5.232v-44.566l-8.016-19.893h119.125m13.241-8.999H354.787l4.982 12.363 7.363 18.274v46.789l2.929 2.676 5.726 5.232c11.457 10.473 24.872 18.965 39.871 25.242 4.348 1.819 9.225 2.721 9.766 2.817l1.473.264 1.478-.228c.707-.108 7.045-1.115 11.883-3.018 13.969-5.491 28.3-14.631 39.317-25.074l5.751-5.452 2.808-2.662v-46.018l7.478-18.895z"/></g><g transform="translate(-.003 1.1)"><linearGradient id="d" x1="328.244" x2="525.771" y1="55.65" y2="55.65" gradientUnits="userSpaceOnUse"><stop offset=".1" style="stop-color:#612c75"/><stop offset=".5" style="stop-color:#bf99c3"/><stop offset=".9" style="stop-color:#612c75"/></linearGradient><path fill="url(#d)" d="m340.41 108-3.019-7.226c-2.774-6.64-6.659-22.425-7.421-30.161l-1.727-17.519 14.521 7.07c5.75 2.8 19.529 6.707 30.091 8.531 3.15.544 5.984.809 8.666.809 5.262 0 9.991-1.043 14.884-3.283 8.287-3.794 14.103-11.53 14.103-14.277-.036-.691-1.327-3.152-4.308-5.085l-9.348-6.061L427.008 3.3l30.155 37.499-9.348 6.061c-2.979 1.933-4.271 4.395-4.308 5.095 0 2.737 5.816 10.473 14.104 14.267 4.892 2.24 9.62 3.283 14.883 3.283 2.682 0 5.516-.265 8.665-.809 10.561-1.824 24.341-5.731 30.092-8.531l14.52-7.072-1.727 17.521c-.762 7.732-4.645 23.517-7.418 30.16L513.604 108Z" style="fill:url(#d)"/><path fill="#fff" d="m427.008 12.875 21.314 26.505-3.771 2.445c-4.164 2.701-7.043 6.835-7.043 10.119 0 6.165 8.307 15.476 17.607 19.733 5.628 2.577 11.184 3.827 17.38 3.827 3.046 0 6.246-.302 9.687-.896 11.217-1.938 25.42-5.993 31.697-9.049l4.869-2.372-.674 6.838c-.703 7.133-4.439 22.341-6.984 28.436L509.61 102H344.406l-1.479-3.539c-2.547-6.095-6.283-21.303-6.986-28.436l-.674-6.838 4.871 2.372c6.275 3.057 20.479 7.112 31.695 9.049 3.44.594 6.643.896 9.688.896 6.197 0 11.751-1.25 17.381-3.827 9.299-4.257 17.605-13.568 17.605-19.733 0-3.284-2.877-7.418-7.043-10.119l-3.771-2.445zm0-19.149-9.352 11.629-21.314 26.505-8.329 10.358 11.152 7.231 3.771 2.445a7.4 7.4 0 0 1 .877.666c-1.63 2.413-5.423 6.154-9.906 8.207-4.136 1.893-7.956 2.738-12.386 2.738-2.335 0-4.836-.236-7.645-.721-10.988-1.898-23.83-5.746-28.483-8.013l-4.873-2.373-19.301-9.397 2.105 21.363.674 6.838c.82 8.323 4.859 24.713 7.856 31.886l1.479 3.538 3.08 7.374h181.184l3.082-7.369 1.48-3.539c3-7.183 7.036-23.571 7.856-31.89l.674-6.838 2.105-21.367-19.303 9.401-4.869 2.372c-4.654 2.267-17.498 6.115-28.485 8.013-2.809.485-5.309.721-7.644.721-4.43 0-8.249-.844-12.384-2.738-4.484-2.053-8.279-5.794-9.909-8.207.25-.221.544-.45.879-.667l3.77-2.444 11.152-7.231-8.329-10.358-21.313-26.505z"/></g></svg>