<svg xmlns="http://www.w3.org/2000/svg" xml:space="preserve" width="150" height="93.507"><path fill="#5e5f62" d="M75 60.591c-8.402 0-15.238-6.837-15.238-15.239S66.598 30.114 75 30.114s15.238 6.836 15.238 15.238S83.402 60.591 75 60.591M52.447 45.352c0-11.188 8.197-20.474 18.896-22.229V0C55.344 1.335 46.352 11.014 46.352 11.014c-3.252-2.438-7.722-5.08-7.722-5.08-2.438 3.049-11.175 11.582-19.506 11.582S4.292 11.827 4.292 11.827-.381 21.173.025 33.77C.432 46.369 1.65 49.213 4.901 51.651s14.223 8.94 22.147 11.582c0 0-4.471 3.86-8.737 9.753 0 0 4.268 2.642 8.331 6.095 4.063 3.454 12.395 10.361 16.457 14.426 0 0 13.969-14.813 28.243-10.316V67.582c-10.697-1.756-18.895-11.041-18.895-22.23m97.528-11.582c-.406 12.599-1.625 15.443-4.876 17.881s-14.223 8.94-22.147 11.582c0 0 4.471 3.86 8.737 9.753 0 0-4.268 2.642-8.331 6.095-4.063 3.454-12.395 10.361-16.457 14.426 0 0-13.969-14.813-28.243-10.316V67.582c10.698-1.756 18.896-11.041 18.896-22.229s-8.197-20.474-18.896-22.229V0c15.999 1.335 24.991 11.014 24.991 11.014 3.252-2.438 7.722-5.08 7.722-5.08 2.438 3.049 11.175 11.582 19.506 11.582s14.832-5.689 14.832-5.689 4.672 9.345 4.266 21.943"/><path d="M86.582 45.352c0 6.396-5.186 11.581-11.582 11.581s-11.582-5.186-11.582-11.581c0-6.396 5.186-11.582 11.582-11.582s11.582 5.186 11.582 11.582m-37.793 0c0-11.912 7.996-21.976 18.896-25.152V4.198c-11.833 2.244-18.582 9.229-18.652 9.303l-2.24 2.416-2.637-1.977c-1.535-1.151-3.387-2.369-4.853-3.297-4.186 4.25-12.113 10.53-20.18 10.53-5.341 0-9.982-1.96-13.102-3.744-1.177 3.604-2.562 9.394-2.342 16.224.395 12.201 1.555 13.677 3.417 15.072 2.871 2.153 16.154 9.544 23.609 12.171s16.256 4.774 16.256 4.774c-10.465-.406-15.747-1.422-15.747-1.422-.033.028-4.507 4.137-7.608 7.88a77 77 0 0 1 5.405 4.166l2.29 1.937c3.618 3.054 8.29 6.997 11.824 10.248 4.196-3.614 12.822-9.813 22.627-9.813.651 0 1.294.037 1.934.092v-8.255c-10.901-3.175-18.897-13.239-18.897-25.151m95.189-27.923c-3.119 1.784-7.761 3.744-13.102 3.744-8.066 0-15.994-6.28-20.18-10.53-1.466.928-3.317 2.146-4.853 3.297l-2.637 1.977-2.24-2.416c-.07-.074-6.819-7.059-18.652-9.303V20.2c10.9 3.177 18.896 13.24 18.896 25.152s-7.996 21.976-18.896 25.151v8.255c.64-.055 1.282-.092 1.934-.092 9.805 0 18.431 6.198 22.627 9.813 3.534-3.251 8.206-7.194 11.824-10.248l2.29-1.937a77 77 0 0 1 5.406-4.166c-3.103-3.743-7.576-7.852-7.609-7.88 0 0-5.282 1.016-15.747 1.422 0 0 8.801-2.148 16.256-4.774s20.738-10.018 23.609-12.171c1.861-1.396 3.021-2.871 3.415-15.072.22-6.83-1.165-12.619-2.341-16.224"/></svg>