<svg xmlns="http://www.w3.org/2000/svg" xml:space="preserve" width="150" height="93.507"><g transform="translate(-2 -3.396)"><path d="M77 63.987c-8.402 0-15.238-6.837-15.238-15.239S68.598 33.51 77 33.51s15.238 6.836 15.238 15.238S85.402 63.987 77 63.987M54.447 48.748c0-11.188 8.197-20.474 18.896-22.229V3.396C57.344 4.731 48.352 14.41 48.352 14.41 45.1 11.972 40.63 9.33 40.63 9.33c-2.438 3.049-11.175 11.582-19.506 11.582S6.292 15.223 6.292 15.223s-4.673 9.346-4.267 21.943c.407 12.599 1.625 15.443 4.876 17.881s14.223 8.94 22.147 11.582c0 0-4.471 3.86-8.737 9.753 0 0 4.268 2.642 8.331 6.095 4.063 3.454 12.395 10.361 16.457 14.426 0 0 13.969-14.813 28.243-10.316V70.978c-10.697-1.756-18.895-11.041-18.895-22.23m97.528-11.582c-.406 12.599-1.625 15.443-4.876 17.881s-14.223 8.94-22.147 11.582c0 0 4.471 3.86 8.737 9.753 0 0-4.268 2.642-8.331 6.095-4.063 3.454-12.395 10.361-16.457 14.426 0 0-13.969-14.813-28.243-10.316V70.978c10.698-1.756 18.896-11.041 18.896-22.229S91.357 28.275 80.658 26.52V3.396c15.999 1.335 24.991 11.014 24.991 11.014 3.252-2.438 7.722-5.08 7.722-5.08 2.438 3.049 11.175 11.582 19.506 11.582s14.832-5.689 14.832-5.689 4.672 9.345 4.266 21.943"/><linearGradient id="a" x1="5.658" x2="148.343" y1="49.734" y2="49.734" gradientUnits="userSpaceOnUse"><stop offset="0" style="stop-color:#bb2f27"/><stop offset=".039" style="stop-color:#bd3527"/><stop offset=".089" style="stop-color:#c44527"/><stop offset=".146" style="stop-color:#cf5c27"/><stop offset=".2" style="stop-color:#e07826"/><stop offset=".236" style="stop-color:#e58025"/><stop offset=".312" style="stop-color:#ee8d23"/><stop offset=".396" style="stop-color:#f49621"/><stop offset=".5" style="stop-color:#f79820"/><stop offset=".604" style="stop-color:#f49621"/><stop offset=".688" style="stop-color:#ee8d23"/><stop offset=".764" style="stop-color:#e58025"/><stop offset=".8" style="stop-color:#e07826"/><stop offset=".821" style="stop-color:#d76b27"/><stop offset=".866" style="stop-color:#ca5227"/><stop offset=".912" style="stop-color:#c23f27"/><stop offset=".957" style="stop-color:#bd3327"/><stop offset="1" style="stop-color:#bb2f27"/></linearGradient><path fill="url(#a)" d="M88.582 48.748c0 6.396-5.186 11.581-11.582 11.581s-11.582-5.186-11.582-11.581c0-6.396 5.186-11.582 11.582-11.582s11.582 5.186 11.582 11.582m-37.793 0c0-11.912 7.996-21.976 18.896-25.152V7.594c-11.833 2.244-18.582 9.229-18.652 9.303l-2.24 2.416-2.637-1.977c-1.535-1.151-3.387-2.369-4.853-3.297-4.186 4.25-12.113 10.53-20.18 10.53-5.341 0-9.982-1.96-13.102-3.744-1.177 3.604-2.562 9.394-2.342 16.224.395 12.201 1.555 13.677 3.417 15.072 2.871 2.153 16.154 9.544 23.609 12.171s16.256 4.774 16.256 4.774c-10.465-.406-15.747-1.422-15.747-1.422-.033.028-4.507 4.137-7.608 7.88a77 77 0 0 1 5.405 4.166l2.29 1.937c3.618 3.054 8.29 6.997 11.824 10.248 4.196-3.614 12.822-9.813 22.627-9.813.651 0 1.294.037 1.934.092v-8.255C58.785 70.724 50.789 60.66 50.789 48.748m95.189-27.923c-3.119 1.784-7.761 3.744-13.102 3.744-8.066 0-15.994-6.28-20.18-10.53-1.466.928-3.317 2.146-4.853 3.297l-2.637 1.977-2.24-2.416c-.07-.074-6.819-7.059-18.652-9.303v16.002c10.9 3.177 18.896 13.24 18.896 25.152s-7.996 21.976-18.896 25.151v8.255c.64-.055 1.282-.092 1.934-.092 9.805 0 18.431 6.198 22.627 9.813 3.534-3.251 8.206-7.194 11.824-10.248l2.29-1.937a77 77 0 0 1 5.406-4.166c-3.103-3.743-7.576-7.852-7.609-7.88 0 0-5.282 1.016-15.747 1.422 0 0 8.801-2.148 16.256-4.774s20.738-10.018 23.609-12.171c1.861-1.396 3.021-2.871 3.415-15.072.22-6.83-1.165-12.619-2.341-16.224" style="fill:url(#a)"/></g></svg>