<svg xmlns="http://www.w3.org/2000/svg" width="374.244" height="278.239" viewBox="0 0 374.244 278.239"><path d="m374.244 216.904-92.058-19.448 43.405 80.783H25.441l47.806-89.977L0 113.68l101.783 22.072L175.516 0l64.233 119.434 134.495 96.722zM191.94 75.96c-5.059-9.417-9.762-20.335-15.148-29.378-.31-.523-.85-2.059-1.653-1.356l-55.383 104.35 28.348 5.903 28.91-52.257 32.01 56.634 76.149 19.64-61.031-45.592c-11.253-19.065-21.841-38.66-32.202-57.944m-59.462 134.96h89.072l-44.174-81.532zM60.62 257.295h229.79l-41.926-76.66-31.423-7.111 26.194 50.111H110.771l29.941-56.841-74.85-16.455 33.672 34.757z"/></svg>