<?xml version="1.0" encoding="UTF-8" standalone="no"?>
<svg
   version="1.1"
   width="530.84375"
   height="674.9007"
   id="svg1"
   xmlns="http://www.w3.org/2000/svg"
   xmlns:svg="http://www.w3.org/2000/svg">
  <defs
     id="defs1" />
  <path
     d="m 260.04648,470.72857 h -80.64956 c -24.62639,51.01978 -18.09779,133.32474 -18.09779,133.32474 0,0 -57.60418,-77.37597 -57.60418,-167.90212 0,-90.52616 64.22577,-181.05232 64.22577,-181.05232 14.8242,-6.54719 64.15137,-8.22119 64.15137,-8.22119 0,0 -37.85098,-80.64956 -106.94995,-59.20377 -69.173366,21.35279 -90.526156,98.72875 -90.526156,98.72875 29.648386,-18.09779 93.799756,-21.42719 93.799756,-21.42719 0,0 -59.296773,69.17337 -59.296773,167.90212 0,98.74735 111.971953,241.94868 111.971953,241.94868 C 181.07092,674.82627 0,638.64929 0,345.62503 0,55.20477 226.39909,0.9486 264.04548,0 h 1.8042 c 34.59598,0 264.99407,52.67517 264.99407,345.69943 0,292.94986 -181.07091,329.20124 -181.07091,329.20124 0,0 111.97194,-143.20133 111.97194,-242.02308 0,-98.72875 -59.29677,-167.90212 -59.29677,-167.90212 0,0 64.15137,3.3294 93.79976,21.42719 0,0 -21.35279,-77.37596 -90.52616,-98.72875 -69.09897,-21.44579 -106.94995,59.20377 -106.94995,59.20377 0,0 49.32718,1.674 64.15137,8.22119 0,0 64.22577,90.60056 64.22577,181.12672 0,90.52615 -57.60417,167.82772 -57.60417,167.82772 0,0 6.52859,-82.30496 -18.0978,-133.32474 h -80.64956 z"
     id="path1" />
</svg>
