<svg xmlns="http://www.w3.org/2000/svg" xml:space="preserve" width="150.001" height="150"><g transform="translate(-2.312 -2.834)"><path fill="none" d="m77.305 68.935 8.897 8.897-8.898 8.898-8.897-8.897z"/><path d="m38.927 90.492-22.084 31.727C-2.532 95.892-2.532 59.776 16.842 33.45l22.083 31.726-12.657 12.658ZM77.312 26.79l12.659 12.658 31.727-22.083c-26.328-19.375-62.444-19.375-88.77 0l31.727 22.083Zm-.001 102.086L64.655 116.22l-31.727 22.084c26.326 19.373 62.441 19.373 88.767 0l-31.727-22.085Zm60.47-95.426-22.082 31.727 12.656 12.656-12.658 12.657 22.084 31.727c19.375-26.325 19.375-62.441 0-88.767m12.946 117.798-42.77-61.446 11.969-11.969-11.969-11.968 42.77-61.446-61.446 42.77L77.312 35.22l-11.97 11.969L3.898 4.42l42.769 61.445-11.97 11.969 11.971 11.97-42.77 61.444 61.446-42.769 11.968 11.967 11.97-11.969zM77.311 86.73l-8.897-8.896 8.898-8.897 8.897 8.896z"/><linearGradient id="a" x1="27.791" x2="126.834" y1="127.356" y2="28.313" gradientUnits="userSpaceOnUse"><stop offset="0" style="stop-color:#626e77"/><stop offset=".004" style="stop-color:#647079"/><stop offset=".068" style="stop-color:#8496a1"/><stop offset=".119" style="stop-color:#99adb9"/><stop offset=".15" style="stop-color:#a0b6c2"/><stop offset=".155" style="stop-color:#a1b7c3"/><stop offset=".255" style="stop-color:#adc6d4"/><stop offset=".364" style="stop-color:#b5cede"/><stop offset=".5" style="stop-color:#b7d1e1"/><stop offset=".636" style="stop-color:#b5cede"/><stop offset=".746" style="stop-color:#adc6d4"/><stop offset=".845" style="stop-color:#a1b7c3"/><stop offset=".85" style="stop-color:#a0b6c2"/><stop offset=".881" style="stop-color:#99adb9"/><stop offset=".932" style="stop-color:#8496a1"/><stop offset=".997" style="stop-color:#647079"/><stop offset="1" style="stop-color:#626e77"/></linearGradient><path fill="url(#a)" d="m31.185 91.18-14.139 20.312c-11.631-20.845-11.631-46.47 0-67.314L31.184 64.49 17.839 77.834Zm106.393-47.002-14.139 20.311 13.344 13.345-13.344 13.345 14.139 20.313c11.629-20.846 11.629-46.471 0-67.314M77.312 18.361l13.346 13.347 20.313-14.14c-20.848-11.632-46.47-11.632-67.317 0l20.313 14.139Zm-.001 118.944-13.345-13.344L43.655 138.1c20.845 11.63 46.468 11.63 67.314 0l-20.313-14.14Zm34.185-59.472-11.281 11.281 26.619 38.24-38.242-26.617-11.281 11.28-11.28-11.279-38.24 26.616 26.617-38.239-11.282-11.281 11.281-11.281-26.617-38.24L66.03 54.93l11.281-11.281 11.282 11.282 38.24-26.618-26.617 38.24ZM77.312 60.507 59.985 77.834 77.311 95.16l17.328-17.327Z" style="fill:url(#a)"/></g></svg>