<?xml version="1.0" encoding="UTF-8"?><svg id="Layer_2" xmlns="http://www.w3.org/2000/svg" width="176.14685" height="176.62441" viewBox="0 0 176.14685 176.62441"><defs><style>.cls-1{fill:red;}</style></defs><g id="RED"><path d="M130.21043,87.44021c-10.22003-1.29004-16.79004-5.28003-27.54004-.87-.44995.19-.89996.37-1.37.58997-1.46997.69-7.14996,3.17999-5.09998,4.87,9.33002,7.67999,27.14001,5.53003,34.71997-4.44995-.19-.05005-.32001-.08002-.70996-.14001ZM130.21043,87.44021c-10.22003-1.29004-16.79004-5.28003-27.54004-.87-.44995.19-.89996.37-1.37.58997-1.46997.69-7.14996,3.17999-5.09998,4.87,9.33002,7.67999,27.14001,5.53003,34.71997-4.44995-.19-.05005-.32001-.08002-.70996-.14001ZM130.21043,87.44021c-10.22003-1.29004-16.79004-5.28003-27.54004-.87-.44995.19-.89996.37-1.37.58997-1.46997.69-7.14996,3.17999-5.09998,4.87,9.33002,7.67999,27.14001,5.53003,34.71997-4.44995-.19-.05005-.32001-.08002-.70996-.14001ZM130.21043,87.44021c-10.22003-1.29004-16.79004-5.28003-27.54004-.87-.44995.19-.89996.37-1.37.58997-1.46997.69-7.14996,3.17999-5.09998,4.87,9.33002,7.67999,27.14001,5.53003,34.71997-4.44995-.19-.05005-.32001-.08002-.70996-.14001ZM130.21043,87.44021c-10.22003-1.29004-16.79004-5.28003-27.54004-.87-.44995.19-.89996.37-1.37.58997-1.46997.69-7.14996,3.17999-5.09998,4.87,9.33002,7.67999,27.14001,5.53003,34.71997-4.44995-.19-.05005-.32001-.08002-.70996-.14001ZM175.94041,147.3102c-1.20001-9.75-10.27002-29.32001-13.46997-40.54004-2.55005-8.97998-4.63-18.12-6.79004-27.20996-7.54999-31.64001-2.58997-46.95001-33.82001-65.17999C112.82042,9.10018,99.13041-.04978,88.81041.0002c-10.41998.06-45.15997,19.85999-52.14001,27.52997-10.82996,11.88-12.17999,36.28003-15.96997,52.03003-2.16998,9.03998-4.26001,18.27002-6.79004,27.20996-3.39996,11.99005-11.72998,29.63-13.47998,40.52002-1.14996,7.16998-.32001,8.66003,6.52002,10,17.34998,3.38,34.20001,4.39001,51.65997,9.34003,8.23004,2.33997,22.22003,9.85999,29.06,9.98999,7.89001.14996,11.32001-3.73999,18-6.09003,22.17999-7.82001,66.23004-13.75,68.48004-14.51996,2.25-.77002,2.16998-5.57001,1.78998-8.70001ZM14.1804,128.04018c2.06-13.52997,9.45001-31.04999,12.92999-45.07001,2.92004-11.72998,4.34003-25.32996,7.58002-36.41998,6.03003-20.63,34.38-34.34998,53.5-40v47c-22.37,4.65002-39.84003,20.96997-51.81,39.69-6.90002,10.78998-12.84998,25.45001-20.72998,35.27002-1.05005,1.29999-1.81,1.75995-1.47003-.47003ZM81.17039,91.05019c-10.12,8.26001-27.66998,9.47998-34.97998-2.97998.5-2.23999,10.65002-4.13,12.82001-4.25,7.54999-.45001,16.40997,2.10999,22.15997,7.22998ZM132.47044,135.33022c-.97003,2.72998-1.82001,5-3.75,7.25-7.53003,8.82996-28.89001,19.12994-40.53003,18.96997-.03998,2.66998.06,5.40997.07001,8.51001,0,1.33002.10999,1.71997-1.57001,1.5-2.78998-.35999-7.14001-3.60004-10.22998-4.78003-5.64001-2.13-11.48999-4.03998-17.27002-5.72998-13.32001-3.89001-33.65997-5.59998-45.01001-9.98999-1.5-.57001-4-1.96002-3.83002-3.82001l26.83002-40.69c2.72003,9.40997,3.63,21.28003,7.27002,30.23999,5.02002,12.32001,30.69,24.58002,43.73999,24.76001.46997-33.65002-.78003-67.39001.51001-101.01001,11.58002-.5,35.52997,18.03003,39.47998,23.52002,1.28003,1.59998,1.92999,2.35999,2.25,2.77002.03003.02997.41003.59998.47998.71997,0,.01001.01001.02002.01001.03003.75,1.23999,8.92999,15.46997,8.97003,17.26996.08002,3.91998-5.76001,25.84003-7.41998,30.48004ZM102.67039,86.57021c-.44995.19-.89996.37-1.37.58997-1.46997.69-7.14996,3.17999-5.09998,4.87,9.33002,7.67999,27.14001,5.53003,34.71997-4.44995-.19-.05005-.32001-.08002-.70996-.14001-10.22003-1.29004-16.79004-5.28003-27.54004-.87ZM130.21043,87.44021c-10.22003-1.29004-16.79004-5.28003-27.54004-.87-.44995.19-.89996.37-1.37.58997-1.46997.69-7.14996,3.17999-5.09998,4.87,9.33002,7.67999,27.14001,5.53003,34.71997-4.44995-.19-.05005-.32001-.08002-.70996-.14001ZM130.21043,87.44021c-10.22003-1.29004-16.79004-5.28003-27.54004-.87-.44995.19-.89996.37-1.37.58997-1.46997.69-7.14996,3.17999-5.09998,4.87,9.33002,7.67999,27.14001,5.53003,34.71997-4.44995-.19-.05005-.32001-.08002-.70996-.14001ZM130.21043,87.44021c-10.22003-1.29004-16.79004-5.28003-27.54004-.87-.44995.19-.89996.37-1.37.58997-1.46997.69-7.14996,3.17999-5.09998,4.87,9.33002,7.67999,27.14001,5.53003,34.71997-4.44995-.19-.05005-.32001-.08002-.70996-.14001Z"/><path class="cls-1" d="M86.69041,171.5602c-2.78998-.35999-7.14001-3.60004-10.22998-4.78003-5.64001-2.13-11.48999-4.03998-17.27002-5.72998-13.32001-3.89001-33.65997-5.59998-45.01001-9.98999-1.5-.57001-4-1.96002-3.83002-3.82001l26.83002-40.69c2.72003,9.40997,3.63,21.28003,7.27002,30.23999,5.02002,12.32001,30.69,24.58002,43.73999,24.76001-.03998,2.66998.06,5.40997.07001,8.51001,0,1.33002.10999,1.71997-1.57001,1.5ZM130.92039,87.07916c-7.57996,9.97998-25.38995,12.12994-34.71997,4.44995-2.04999-1.69,3.63-4.17999,5.09998-4.87.47003-.21997.92004-.39996,1.37-.58997,10.75-4.41003,17.32001-.42004,27.54004.87.38995.06.51996.08997.70996.14001,0-.01001-.01001-.02002-.01001-.03003-.06995-.12-.44995-.69-.47998-.71997-.32001-.41003-.96997-1.17004-2.25-2.77002-3.95001-5.48999-27.89996-24.02002-39.47998-23.52002-1.29004,33.62-.04004,67.35999-.51001,101.01001,11.64001.15997,33-10.14001,40.53003-18.96997,1.92999-2.25,2.77997-4.52002,3.75-7.25,1.65997-4.64001,7.5-26.56006,7.41998-30.48004-.04004-1.79999-8.22003-16.02997-8.97003-17.26996ZM59.01042,83.31915c-2.16998.12-12.32001,2.01001-12.82001,4.25,7.31,12.45996,24.85999,11.23999,34.97998,2.97998-5.75-5.12-14.60999-7.67999-22.15997-7.22998ZM34.69041,46.04913c-3.23999,11.09003-4.65997,24.69-7.58002,36.41998-3.47998,14.02002-10.87,31.54004-12.92999,45.07001-.33997,2.22998.41998,1.77002,1.47003.47003,7.88-9.82001,13.82996-24.48004,20.72998-35.27002,11.96997-18.72003,29.44-35.03998,51.81-39.69V6.04913c-19.12,5.65002-47.46997,19.37-53.5,40Z"/></g></svg>