<?xml version="1.0" encoding="UTF-8"?><svg id="Layer_2" xmlns="http://www.w3.org/2000/svg" width="176.14723" height="176.6206" viewBox="0 0 176.14723 176.6206"><g id="WM"><path d="M130.21043,87.4364c.38995.06.51996.08997.70996.14001-7.57996,9.97998-25.38995,12.12994-34.71997,4.44995-2.04999-1.69,3.63-4.17999,5.09998-4.87.47003-.21997.92004-.39996,1.37-.58997,10.75-4.41003,17.32001-.42004,27.54004.87ZM174.15043,156.00641c-2.25189.76508-46.30005,6.69995-68.48004,14.51996-6.67999,2.35004-10.10999,6.23999-18,6.09003-6.83997-.13-20.82996-7.65002-29.06-9.98999-17.45996-4.95001-34.31-5.96002-51.65997-9.34003-6.84003-1.33997-7.66998-2.83002-6.52002-10,1.75-10.89001,10.08002-28.52997,13.47998-40.52002,2.53003-8.93994,4.62006-18.16998,6.79004-27.20996,3.78998-15.75,5.14001-40.15002,15.96997-52.03003C43.65043,19.85638,78.38554.05511,88.81242.00024c10.32104-.05432,24.008,9.09613,33.04797,14.37616,31.23004,18.22998,26.27002,33.53998,33.82001,65.17999,2.16003,9.08997,4.23999,18.22998,6.79004,27.20996,3.19995,11.22003,12.26996,30.79004,13.46997,40.54004.38,3.13.46191,7.93494-1.78998,8.70001ZM15.65043,128.50641c7.88-9.82001,13.82996-24.48004,20.72998-35.27002,11.96997-18.72003,29.44-35.03998,51.81-39.69V6.54638c-19.12,5.65002-47.46997,19.37-53.5,40-3.23999,11.09003-4.65997,24.69-7.58002,36.41998-3.47998,14.02002-10.87,31.54004-12.92999,45.07001-.33997,2.22998.41998,1.77002,1.47003.47003ZM59.01042,83.8164c-2.16998.12-12.32001,2.01001-12.82001,4.25,7.31,12.45996,24.85999,11.23999,34.97998,2.97998-5.75-5.12-14.60999-7.67999-22.15997-7.22998ZM139.89042,104.84637c-.04004-1.79999-8.22003-16.02997-8.97003-17.26996,0-.01001-.01001-.02002-.01001-.03003-.06995-.12-.44995-.69-.47998-.71997-.32001-.41003-.96997-1.17004-2.25-2.77002-3.95001-5.48999-27.89996-24.02002-39.47998-23.52002-1.29004,33.62-.04004,67.35999-.51001,101.01001-13.04999-.17999-38.71997-12.44-43.73999-24.76001-3.64001-8.95996-4.54999-20.83002-7.27002-30.23999l-26.83002,40.69c-.16998,1.85999,2.33002,3.25,3.83002,3.82001,11.35004,4.39001,31.69,6.09998,45.01001,9.98999,5.78003,1.69,11.63,3.59998,17.27002,5.72998,3.08997,1.17999,7.44,4.42004,10.22998,4.78003,1.67999.21997,1.57001-.16998,1.57001-1.5-.01001-3.10004-.10999-5.84003-.07001-8.51001,11.64001.15997,33-10.14001,40.53003-18.96997,1.92999-2.25,2.77997-4.52002,3.75-7.25,1.65997-4.64001,7.5-26.56006,7.41998-30.48004Z"/></g></svg>