<svg xmlns="http://www.w3.org/2000/svg" width="370.729" height="370.713" viewBox="0 0 278.047 278.035"><path d="M124.494 5.58c6.43-6.26 16.98-7.28 24.71-2.92 8.18 4.48 11.76 14.35 11.23 23.27-.05 5.57-2.37 10.72-3.29 16.14 2.64 3.59 4.16 7.82 4.94 12.19a92.5 92.5 0 0 1 19.08 7.75c4.28-3.64 9.68-5.92 15.34-5.89 2.73-3.63 4.11-8.08 7.02-11.59 4.86-6.3 12.31-11.18 20.5-11 10.74.04 20.17 9.8 20.2 20.47.2 8.12-4.54 15.54-10.64 20.55-3.69 3.17-8.27 4.97-12.23 7.75-.86 4.88-2.97 9.42-5.98 13.33 3.5 6.18 6.23 12.77 8.21 19.59 4.97.79 9.82 2.67 13.46 6.24 4.41-.61 8.45-2.72 12.88-3.2 8.09-1.17 17.09.86 22.81 7.01 6.39 6.74 6.99 17.86 1.94 25.54-4.41 6.82-12.77 10.07-20.66 10.05-6.23.31-12.01-2.24-18.03-3.31-3.64 2.64-7.91 4.2-12.32 4.95-1.9 6.6-4.52 12.98-7.83 19 3.63 4.32 6.09 9.67 6.06 15.39 3.76 2.8 8.38 4.2 11.98 7.26 6.26 4.95 11.02 12.57 10.59 20.78-.34 10.55-9.95 19.7-20.47 19.7-8.19.12-15.68-4.65-20.68-10.86-3.1-3.68-4.86-8.23-7.67-12.11-5.02-.75-9.66-3-13.59-6.17a93 93 0 0 1-19.21 7.98c-.76 5.01-2.67 9.9-6.26 13.57.67 4.76 3.05 9.11 3.36 13.94.92 8.47-1.67 18.01-8.84 23.19-9 6.71-23.28 4.46-29.47-5.01-3.84-5.58-4.94-12.64-4.25-19.27.4-4.78 2.39-9.21 3.11-13.92-2.68-3.67-4.25-7.99-4.96-12.45a91.4 91.4 0 0 1-18.75-7.7c-4.36 3.74-9.85 6.17-15.66 6.1-2.64 3.57-4.02 7.9-6.82 11.37-4.96 6.56-12.76 11.62-21.24 11.2-10.52-.36-19.62-9.97-19.64-20.46-.18-8.21 4.65-15.7 10.85-20.72 3.68-3.1 8.24-4.85 12.11-7.67.76-5.05 3.04-9.71 6.22-13.66-3.15-5.67-5.66-11.67-7.58-17.85-5.18-.71-10.24-2.63-14-6.36-4.45.59-8.5 2.74-12.96 3.2-7.92 1.1-16.72-.7-22.44-6.59-6.16-6.27-7.27-16.52-3.28-24.22 4.17-8.21 13.81-12.12 22.66-11.78 5.9-.12 11.36 2.33 17.09 3.29 3.55-2.59 7.72-4.12 12.02-4.89a92 92 0 0 1 7.81-19.5c-3.03-3.84-5.42-8.36-5.64-13.35-.09-2.76-3.42-3.47-5.35-4.71-9.1-4.16-16.92-12.88-17.36-23.23-.59-10.48 8.18-20.24 18.54-21.27 8.54-.98 16.74 3.73 22.1 10.11 3.38 3.81 5.23 8.63 8.17 12.73 4.62.74 8.92 2.73 12.67 5.5 6.22-3.52 12.83-6.37 19.71-8.34.77-5.06 2.67-10.04 6.33-13.73-.67-4.46-2.83-8.54-3.28-13.05-1.05-7.89.81-16.67 6.68-22.36" style="fill:gray"/><path d="M130.564 14.59c3.41-5.17 11.72-5.42 15.81-.95 2.59 2.77 3.49 6.69 3.57 10.38.22 6.86-3.65 13.09-3.27 19.98-.29 3.26 2.58 5.45 4.01 8.08-8.31-1.61-16.79-1.23-25.11.17 1.57-2.18 3.54-4 5.79-5.45.39-4.91.07-9.94-1.67-14.59-2.08-5.62-2.54-12.42.87-17.62m78.26 41.39c2.55-5.43 7.02-10.66 13.18-11.82 6.51-1.26 12.78 5.37 11.61 11.78-1.03 5.81-5.6 10.28-10.55 13.1-4.45 2.44-9.08 5.02-12.13 9.2-.46 2.74-.68 5.52-1.51 8.19-5.45-6.99-11.73-13.31-18.83-18.61 2.96-1.1 6.1-1.26 9.14-.3 3.67-3.28 7.06-7 9.09-11.54m-164.6 1.12c-1.51-6.64 5.32-13.18 11.87-11.86 6.09 1.14 10.65 6.12 13.44 11.4 2.2 4.31 5.02 8.33 8.76 11.45 2.54.09 5.06.46 7.53 1.05-6.77 5.57-12.99 11.76-18.32 18.72-.79-2.87-.79-5.85.05-8.72-3.33-3.74-7.13-7.17-11.75-9.23-5.33-2.47-10.29-6.88-11.58-12.81m86.37 4.72c15.18-1.68 30.84 1.21 44.37 8.32 15.09 7.86 27.47 20.81 34.6 36.27 7.77 16.6 9.26 36 4.27 53.63-4.51 16.18-14.51 30.73-27.92 40.84-12.57 9.59-28.14 15.16-43.94 15.68-15.11.59-30.36-3.37-43.25-11.28-15.08-9.17-26.89-23.61-32.78-40.25-6.61-18.38-5.89-39.25 1.99-57.12 10.76-25.03 35.52-43.37 62.66-46.09m-1.03 16c-13.59 2.08-26.36 8.92-35.71 18.99-9.67 10.31-15.65 24.01-16.51 38.13-1.01 14.43 3.31 29.14 11.95 40.74 9.21 12.55 23.29 21.43 38.62 24.19 13.22 2.46 27.24.44 39.21-5.7 13.57-6.88 24.43-18.94 29.81-33.18 5.39-13.99 5.39-29.96.02-43.96-5.12-13.55-15.18-25.13-27.83-32.16-11.91-6.68-26.08-9.18-39.56-7.05"/><path d="M131.164 88.25a46.3 46.3 0 0 1 15.92.01c.24 10.22-.49 20.49.4 30.68 7.66-6.78 14.54-14.38 21.93-21.44 4.21 3.24 7.99 7.01 11.22 11.24-6.13 6.18-12.3 12.32-18.47 18.45-1.22 1.16-2.13 2.6-2.81 4.13 10.16.45 20.35.07 30.52.21.89 5.28.82 10.65-.11 15.92-8.58.01-17.16.03-25.73-.02-1.62.07-3.39-.21-4.81.75 6.77 7.38 14.14 14.21 21.13 21.4-3.28 4.21-7.06 8.01-11.34 11.21-5.94-5.95-11.92-11.87-17.82-17.86-1.34-1.39-2.85-2.6-4.48-3.62-.43 10.15-.06 20.32-.2 30.48-5.28.89-10.66.8-15.92-.13-.2-10.29.38-20.61-.32-30.88-7.46 6.95-14.45 14.37-21.73 21.49-4.21-3.27-8.01-7.05-11.22-11.33 7.05-7.08 14.15-14.11 21.18-21.21-10.02-.05-20.03 0-30.05-.03-.93-5.27-1.07-10.64-.17-15.92 10.12-.13 20.25.23 30.36-.2-.8-1.52-1.87-2.88-3.08-4.09-6.15-6.08-12.25-12.21-18.36-18.33 3.21-4.27 7-8.06 11.22-11.33 7.17 6.92 13.89 14.34 21.31 20.99.32-.25.95-.76 1.27-1.02.37-9.83.01-19.7.16-29.55m4.36 41.53c-6.76 2.31-8.5 12.2-2.9 16.65 5.2 4.97 14.82 1.79 16.1-5.26 2.04-7.32-6.25-14.5-13.2-11.39m90.37-3.7c2.15 1.51 3.96 3.43 5.34 5.68 5 .38 10.12.05 14.85-1.75 5.65-2.03 12.62-2.51 17.7 1.2 5.2 3.8 4.91 12.55-.23 16.26-5.08 3.73-11.97 3.35-17.73 1.66-4.64-1.51-9.5-2.36-14.38-1.96-1.74 1.41-3.56 2.7-5.42 3.93 1.4-8.3 1.38-16.73-.13-25.02m-179.31 5.99c1.75-1.42 3.59-2.72 5.49-3.93-1.56 8.35-1.07 16.86.33 25.2a19.8 19.8 0 0 1-5.62-5.88c-4.89-.34-9.9-.07-14.53 1.66-5.58 2.06-12.33 2.57-17.53-.75-5.48-3.47-5.58-12.31-.63-16.28 4.98-4.03 12.06-3.74 17.91-2.05 4.7 1.52 9.63 2.42 14.58 2.03m144.9 77.42c6.94-5.46 13.27-11.67 18.57-18.74 1.1 2.99 1.36 6.2.43 9.28 2.14 2.35 4.33 4.7 6.95 6.52 3.37 2.41 7.48 3.63 10.59 6.44 2.94 2.57 5.44 5.99 5.92 9.95.75 5.65-4.34 11.03-9.91 11.18-3.49.12-6.77-1.54-9.39-3.72-6.44-5.16-7.91-14.39-14.88-19.05-2.8-.45-5.62-.82-8.28-1.86m-123.15-18.33c5.62 6.97 11.85 13.45 19.04 18.83-2.99 1.32-6.24 1.53-9.35.5-2.21 2-4.42 4.03-6.17 6.45-2.64 3.48-3.88 7.83-6.83 11.1-2.76 3.19-6.6 5.9-10.97 5.97-4.69.08-8.84-3.75-9.9-8.18-.91-4.05.94-8.13 3.51-11.18 5.15-6.44 14.35-7.93 19.03-14.88.47-2.88.66-5.83 1.64-8.61m58.56 34.67c8.33 1.6 16.82 1.38 25.15-.04a19.4 19.4 0 0 1-5.75 5.45c-.4 4.99-.07 10.11 1.74 14.83 1.99 5.49 2.39 12.06-.81 17.18-2.87 4.62-9.6 5.5-14.04 2.73-3.09-1.93-4.7-5.48-5.22-8.97-1.57-8.75 4.24-16.77 2.91-25.56-1.45-1.79-2.76-3.68-3.98-5.62"/></svg>