<svg xmlns="http://www.w3.org/2000/svg" xmlns:xlink="http://www.w3.org/1999/xlink" width="1024.005" height="1008.7"><linearGradient id="a"><stop offset="0" style="stop-color:#612c75"/><stop offset=".3" style="stop-color:#7b5190"/><stop offset=".5" style="stop-color:#bf99c3"/><stop offset=".7" style="stop-color:#7b5190"/><stop offset="1" style="stop-color:#612c75"/></linearGradient><linearGradient xlink:href="#a" id="b" x1=".863" x2="32.75" y1="14.451" y2="14.438" gradientTransform="translate(.003)scale(30.567)" gradientUnits="userSpaceOnUse"/><path d="m289.433 0-5.73 64.955C274.253 174.8 211.123 227 144.243 273.19c-33.44 23.1-66.984 43.49-94.563 68.78S.334 400.08.003 441.31c-.316 40.55 28.853 73.25 66.87 108.9 38.02 35.64 87.77 73.65 141.37 115.58 107.2 83.86 226.69 183.75 282.75 299.94l21.01 42.97 21.01-42.97c56.06-116.19 175.55-216.08 282.75-299.94 53.6-41.93 103.35-79.94 141.37-115.58 38.02-35.65 67.17-68.35 66.87-108.9-.3-41.23-22.1-74.05-49.67-99.34-27.58-25.29-61.13-45.68-94.57-68.78-66.88-46.19-130.01-98.39-139.46-208.235L734.573 0l-36.3 54.447c-34.59 51.293-42.78 100.853-33.43 145.193 9.34 44.34 34.87 82.61 63.04 114.63s59.6 59.04 83.1 81.19c11.76 11.07 21.7 20.94 27.7 28.66 6.01 7.71 6.7 12.24 6.69 11.46 0-2.23-1.33 4.45-8.6 13.37s-18.78 20.13-33.43 32.48c-29.29 24.71-70.61 53.5-112.71 82.15-42.11 28.65-84.76 57.26-120.36 82.15-26.72 18.67-42.96 32.58-58.27 47.76-15.31-15.18-31.55-29.09-58.27-47.76-35.6-24.89-78.25-53.5-120.36-82.15-42.1-28.65-83.42-57.44-112.71-82.15-14.65-12.35-26.16-23.56-33.43-32.48s-8.57-15.6-8.6-13.37c0 .78.68-3.75 6.69-11.46 6-7.72 15.94-17.59 27.7-28.66 23.5-22.15 54.93-49.17 83.1-81.19s53.7-70.29 63.04-114.63c9.35-44.34 1.16-93.9-33.43-145.193zm222.57 4.776-21.01 53.492-141.38 356.302-5.73 14.32 10.51 10.51 141.37 139.46 16.24 16.24 16.24-16.24 141.37-139.46 10.51-10.51-5.73-14.32-141.38-356.302zm0 123.224 114.63 289.43-114.63 112.72-114.63-112.72z" style="fill:#fff;stroke-width:30.567"/><path d="M306.633 66.865C286.283 303.31 24.005 305.99 22.933 441.31c-.876 110.82 370.5 269.08 489.07 514.86 118.57-245.78 489.9-404.04 489.1-514.86-1.1-135.32-263.38-138-283.73-374.445-127.24 188.675 150.19 306.825 150.93 368.715.73 61.89-320.17 235.23-356.3 287.52-36.13-52.29-357.03-225.63-356.3-287.52.74-61.89 278.17-180.04 150.93-368.715m205.37 0L370.633 423.16l141.37 139.46 141.37-139.46z" style="fill:url(#b);stroke-width:30.567"/></svg>