<svg xmlns="http://www.w3.org/2000/svg" width="655.978" height="620.747" viewBox="0 0 491.983 465.56"><path fill="#fff" d="M141.027.02c-20.381-.324-40.909 3.397-59.65 11.812l-.188.084-.181.094c-6.053 3.138-13.158 6.143-19.828 11.224-8.021 5.003-14.367 11.095-20.588 16.28l-.215.18-.201.194C20.756 58.778 8.802 83.44 2.72 108.685l-.032.131-.025.131c-4.374 21.616-2.894 43.575 1.063 64.467l.03.164.038.162c5.104 21.522 13.819 41.95 24.555 61.049l.035.064.037.065c14.776 25.087 32.146 48.34 49.7 71.082l.071.094.077.091c6.777 8.213 13.588 16.352 20.351 24.51l.096.113.097.11c33.695 37.444 69.88 73.094 109.752 104.728l.026.02.004.004c10.882 8.723 21.838 17.092 32.111 25.91l4.639 3.98 4.72-3.88c13.994-11.501 29.359-22.043 44.05-34.02l.02-.018c17.369-13.566 33.594-28.251 49.382-43.181l.037-.035c16.923-15.626 32.404-32.37 47.814-48.844l.11-.115.101-.12c18.82-21.96 36.968-44.645 53.254-68.72 22.234-30.97 39.458-66.352 45.166-104.574l.012-.079.01-.076c2.508-19.662 3.434-40.567-2.313-60.9-5.751-22.23-17.99-42.21-33.477-58.777l-.027-.03-.025-.027c-17.385-18.208-40.239-30.565-64.309-37.24C372.984 0 355.461-.693 338.561.594l-.069.005-.068.006c-26.167 2.488-51.195 12.868-71.498 28.899-8.027 5.985-14.838 13.006-20.969 20.302-21.197-25.073-51.284-43.14-84.648-48.136l-.01-.002h-.01A157 157 0 0 0 141.027.019"/><path d="M140.812 14.576c6.147.094 12.29.597 18.36 1.488h.002c32.342 4.849 61.918 23.788 80.957 49.608l5.703 7.734 5.898-7.588c7.24-9.315 14.931-17.986 23.95-24.697l.086-.065.084-.066c18.123-14.336 40.641-23.667 63.884-25.89 15.724-1.191 31.477-.465 46.092 3.8l.049.014.049.014c21.895 6.062 42.445 17.291 57.7 33.257 14.113 15.105 25.002 33.094 30.015 52.524l.021.084.023.084c4.934 17.39 4.301 36.295 1.909 55.094-5.287 35.305-21.393 68.692-42.666 98.294l-.06.084-.06.086c-15.829 23.405-33.6 45.64-52.18 67.327-15.418 16.485-30.642 32.926-46.98 48.007l-.033.03-.031.029c-15.658 14.81-31.578 29.207-48.426 42.365l-.06.047-.06.049c-12.598 10.28-26.215 19.943-39.458 30.469-9.272-7.728-18.718-15.095-27.912-22.465l-.016-.012-.013-.012c-39.042-30.971-74.642-66.014-107.928-102.998-6.722-8.108-13.456-16.155-20.121-24.23-17.427-22.58-34.38-45.33-48.6-69.463-10.165-18.098-18.275-37.222-22.996-57.055-3.697-19.606-4.91-39.575-1.084-58.584 5.566-23.004 16.396-45.007 33.3-61.504 6.586-5.507 12.407-10.952 18.68-14.863l.335-.209.31-.242c4.77-3.746 11.085-6.536 17.877-10.043 16.551-7.417 34.986-10.785 53.4-10.502"/></svg>