<svg xmlns="http://www.w3.org/2000/svg" width="617.123" height="576.264" viewBox="0 0 462.842 432.198"><path d="M126.247.016c6.146.095 12.289.597 18.359 1.489h.002c32.342 4.848 61.918 23.788 80.957 49.607l5.703 7.734 5.899-7.587c7.239-9.316 14.93-17.986 23.949-24.698l.086-.064.084-.067C279.409 12.094 301.928 2.763 325.17.54c15.724-1.191 31.477-.465 46.092 3.8l.05.014.048.014c21.895 6.062 42.445 17.292 57.701 33.258 14.112 15.105 25 33.093 30.014 52.523l.021.084.024.084c4.933 17.39 4.3 36.296 1.908 55.094-5.287 35.305-21.393 68.692-42.666 98.295l-.06.084-.06.086c-15.829 23.405-33.6 45.64-52.179 67.326-15.42 16.485-30.643 32.927-46.98 48.008l-.034.03-.03.028c-15.66 14.81-31.58 29.208-48.427 42.366l-.06.047-.06.048c-12.598 10.28-26.214 19.943-39.458 30.47-9.272-7.729-18.718-15.095-27.912-22.466l-.015-.011-.014-.012c-39.041-30.972-74.642-66.015-107.928-102.998-6.722-8.109-13.455-16.155-20.121-24.23-17.427-22.58-34.38-45.33-48.6-69.464C16.26 194.92 8.15 175.796 3.428 155.964c-3.697-19.607-4.91-39.575-1.084-58.584C7.91 74.375 18.74 52.373 35.645 35.876c6.585-5.507 12.406-10.953 18.68-14.863l.334-.21.31-.242c4.77-3.746 11.085-6.535 17.877-10.043C89.397 3.102 107.833-.266 126.246.016"/></svg>