<?xml version="1.0" encoding="UTF-8"?>
<svg id="Layer_2" xmlns="http://www.w3.org/2000/svg" viewBox="0 0 595.28 595.28">
  <defs>
    <style>
      .cls-1 {
        fill: none;
      }

      .cls-2, .cls-3 {
        fill-rule: evenodd;
      }

      .cls-2, .cls-4 {
        fill: #feffff;
      }
    </style>
  </defs>
  <g id="Layer_1-2" data-name="Layer_1">
    <g id="C">
      <rect class="cls-1" width="595.28" height="595.28"/>
      <ellipse class="cls-4" cx="315.48" cy="294.73" rx="276.36" ry="277.64"/>
      <path class="cls-3" d="M315.29,42.68c138.45,0,250.86,112.4,250.86,250.86s-112.41,250.86-250.86,250.86-250.86-112.4-250.86-250.86S176.84,42.68,315.29,42.68ZM315.66,71.1c-123.38,0-223.55,100-223.55,223.18s100.17,223.18,223.55,223.18,223.55-100,223.55-223.18-100.17-223.18-223.55-223.18Z"/>
      <ellipse cx="315.66" cy="294.63" rx="211.48" ry="211.49"/>
      <path class="cls-2" d="M35.16,134.55h246.81v320.22H34.63s-23.42-43.37-32.1-83.94h47.36s-11.31-32.15-10.53-80.56c.79-48.41,11.31-72.36,11.31-72.36H2.01s13.42-52.79,33.15-83.36ZM76.86,217.63c-27.42,91.02.28,153.73.28,153.73h64.84c7.27-1.7,8.62-10.49,8.62-10.49v-32.33s-16.17-7.37-17.87-33.52c-1.7-26.14,17.02-33.42,17.02-33.42v-35.74c-2.27-5.67-7.77-8.23-7.77-8.23h-65.13Z"/>
      <path class="cls-3" d="M221.9,257.54s14.57-41.25,56.95-57.39c0,0-3.85-31.08-3.65-48.02H47.24s-18.13,33.87-20.72,47.82h115.47s19.64-.42,26.61,24.11v141.12s-3.64,22.71-25.05,25.23H26.39s7.35,26.1,20.5,46.37h229.22s-3.34-22.01,4.34-47.56c0,0-39.44-11.2-58.79-58.06-19.35-46.86.23-73.62.23-73.62Z"/>
      <path class="cls-2" d="M278.85,201.37s.09.83-4.15-49.12c0,0,1-40.26,41.22-42.08,40.21-1.82,40.51,44.19,40.51,44.19,0,0-2.12,34.51-4.84,45.41-2.72,10.9-5.75,19.68-5.75,19.68l-16.65,38.75h-32.36s-17.47-46.15-17.98-56.83Z"/>
      <path class="cls-2" d="M278.85,387.74s.09-.83-4.15,49.12c0,0,1,40.26,41.22,42.08,40.21,1.82,40.51-44.19,40.51-44.19,0,0-2.12-34.51-4.84-45.41-2.72-10.9-5.75-19.68-5.75-19.68l-16.65-38.75h-32.36s-17.47,46.15-17.98,56.83Z"/>
      <path class="cls-2" d="M408.86,257.91s-.83.09,49.12-4.15c0,0,40.26,1,42.08,41.22,1.82,40.21-44.19,40.51-44.19,40.51,0,0-34.51-2.12-45.41-4.84-10.9-2.72-19.68-5.75-19.68-5.75l-38.75-16.65v-32.36s46.15-17.47,56.83-17.98Z"/>
      <path class="cls-2" d="M222.72,258.3s.83.09-49.12-4.15c0,0-40.26,1-42.08,41.22-1.82,40.21,44.19,40.51,44.19,40.51,0,0,34.51-2.12,45.41-4.84,10.9-2.72,19.68-5.75,19.68-5.75l38.75-16.65v-32.36s-46.15-17.47-56.83-17.98Z"/>
      <ellipse class="cls-4" cx="315.84" cy="295.02" rx="101.4" ry="100.27"/>
      <path class="cls-3" d="M326.18,240.2s9.38-43.82,11.24-78.89c1.86-35.07-21.7-31.97-21.7-31.97,0,0-23.47-3.09-22.03,31.56,1.44,34.66,10.76,73.46,11.57,79.43,0,0,9.48-4.17,20.92-.13Z"/>
      <path class="cls-3" d="M326.53,348.45s9.38,43.82,11.24,78.89c1.86,35.07-21.7,31.97-21.7,31.97,0,0-23.47,3.09-22.03-31.56,1.44-34.66,10.76-73.46,11.57-79.43,0,0,9.48,4.17,20.92.13Z"/>
      <path class="cls-3" d="M261.59,283.74s-.08-.02-.23-.05h0s-45.03-9.95-80.1-11.81c-35.07-1.86-31.97,21.7-31.97,21.7,0,0-1.79,13.72,12.86,19.53,4.63,2.16,11.09,3.49,20.14,3.12,34.66-1.44,73.46-10.76,79.43-11.57,0,0-4.17-9.48-.13-20.92Z"/>
      <path class="cls-3" d="M370.21,283.74s43.82-9.38,78.89-11.24c35.07-1.86,31.97,21.7,31.97,21.7,0,0,3.09,23.47-31.56,22.03-34.66-1.44-73.46-10.76-79.43-11.57,0,0,4.17-9.48.13-20.92Z"/>
      <circle class="cls-4" cx="315.92" cy="294.64" r="55.64" transform="translate(-3.77 585.18) rotate(-85.27)"/>
      <ellipse cx="315.59" cy="294.35" rx="36.74" ry="36.81"/>
    </g>
  </g>
</svg>