<?xml version="1.0" encoding="UTF-8" standalone="no"?>
<svg
   width="1000"
   height="1000"
   viewBox="0 0 1000 1000"
   version="1.1"
   xml:space="preserve"
   style="clip-rule:evenodd;fill-rule:evenodd;stroke-linejoin:round;stroke-miterlimit:2"
   id="svg161"
   xmlns="http://www.w3.org/2000/svg"
   xmlns:svg="http://www.w3.org/2000/svg">
    <g
   transform="translate(-3623.9967)"
   id="g18">
        <g
   id="M"
   transform="translate(-0.333333)">
            <rect
   x="3624.3301"
   y="0"
   width="1000"
   height="1000"
   style="fill:none"
   id="rect1" />
            <g
   transform="matrix(1.25175,0,0,1.25757,3504.16,-126.198)"
   id="g1">
                <circle
   cx="522.565"
   cy="494.18399"
   r="370.879"
   id="circle1" />
            </g>
            <g
   transform="translate(3626.96,-6.40488)"
   id="g2">
                <path
   d="m 531.007,78.271 c 232.583,0 421.412,188.828 421.412,421.412 0,232.583 -188.829,421.411 -421.412,421.411 -232.583,0 -421.411,-188.828 -421.411,-421.411 0,-232.584 188.828,-421.412 421.411,-421.412 z m 0.621,47.735 c -207.267,0 -375.541,167.996 -375.541,374.92 0,206.924 168.274,374.92 375.541,374.92 207.268,0 375.542,-167.996 375.542,-374.92 0,-206.924 -168.274,-374.92 -375.542,-374.92 z"
   style="fill:url(#_Linear1)"
   id="path1" />
            </g>
            <g
   transform="matrix(0.976826,0,0,0.976897,3473.96,-112.884)"
   id="g3">
                <circle
   cx="700.87097"
   cy="622.37201"
   r="363.69101"
   style="fill:url(#_Linear2)"
   id="circle2" />
            </g>
            <g
   transform="translate(3626.96,-6.40488)"
   id="g4">
                <path
   d="M 60.422,232.606 H 475.029 V 770.534 H 59.538 c 0,0 -39.339,-72.854 -53.925,-141.002 h 79.562 c 0,0 -19.007,-54.002 -17.681,-135.333 1.326,-81.33 19.007,-121.553 19.007,-121.553 H 4.729 c 0,0 22.542,-88.69 55.693,-140.04 z m 70.05,139.566 c -46.064,152.901 0.476,258.247 0.476,258.247 h 108.931 c 12.207,-2.859 14.475,-17.629 14.475,-17.629 v -54.318 c 0,0 -27.159,-12.388 -30.017,-56.307 -2.859,-43.919 28.588,-56.14 28.588,-56.14 V 385.99 c -3.812,-9.529 -13.046,-13.818 -13.046,-13.818 z"
   id="path3" />
            </g>
            <g
   transform="translate(3626.96,-6.40488)"
   id="g5">
                <path
   d="m 374.133,439.207 c 0,0 24.468,-69.302 95.663,-96.417 0,0 -6.465,-52.219 -6.13,-80.672 H 80.722 c 0,0 -30.461,56.906 -34.813,80.338 h 193.97 c 0,0 32.985,-0.712 44.701,40.503 v 237.064 c 0,0 -6.112,38.158 -42.087,42.39 h -196.8 c 0,0 12.344,43.849 34.441,77.9 h 385.068 c 0,0 -5.606,-36.97 7.296,-79.904 0,0 -66.254,-18.808 -98.753,-97.533 -32.499,-78.726 0.388,-123.669 0.388,-123.669 z"
   style="fill:url(#_Linear3)"
   id="path4" />
            </g>
            <g
   transform="translate(3626.96,-6.40488)"
   id="g6">
                <path
   d="m 469.796,344.848 c 0,0 0.153,1.39 -6.966,-82.514 0,0 1.687,-67.632 69.238,-70.683 67.551,-3.051 68.06,74.242 68.06,74.242 0,0 -3.56,57.97 -8.136,76.277 -4.577,18.306 -9.662,33.053 -9.662,33.053 l -27.968,65.089 H 500 c 0,0 -29.34,-77.53 -30.204,-95.464 z"
   id="path5" />
            </g>
            <g
   transform="matrix(1,0,0,-1,3626.96,996.366)"
   id="g7">
                <path
   d="m 469.796,344.848 c 0,0 0.153,1.39 -6.966,-82.514 0,0 1.687,-67.632 69.238,-70.683 67.551,-3.051 68.06,74.242 68.06,74.242 0,0 -3.56,57.97 -8.136,76.277 -4.577,18.306 -9.662,33.053 -9.662,33.053 l -27.968,65.089 H 500 c 0,0 -29.34,-77.53 -30.204,-95.464 z"
   id="path6" />
            </g>
            <g
   transform="rotate(90,2348.1849,2311.8151)"
   id="g8">
                <path
   d="m 469.796,344.848 c 0,0 0.153,1.39 -6.966,-82.514 0,0 1.687,-67.632 69.238,-70.683 67.551,-3.051 68.06,74.242 68.06,74.242 0,0 -3.56,57.97 -8.136,76.277 -4.577,18.306 -9.662,33.053 -9.662,33.053 l -27.968,65.089 H 500 c 0,0 -29.34,-77.53 -30.204,-95.464 z"
   id="path7" />
            </g>
            <g
   transform="matrix(0,1,1,0,3657.61,-35.7187)"
   id="g9">
                <path
   d="m 469.796,344.848 c 0,0 0.153,1.39 -6.966,-82.514 0,0 1.687,-67.632 69.238,-70.683 67.551,-3.051 68.06,74.242 68.06,74.242 0,0 -3.56,57.97 -8.136,76.277 -4.577,18.306 -9.662,33.053 -9.662,33.053 l -27.968,65.089 H 500 c 0,0 -29.34,-77.53 -30.204,-95.464 z"
   id="path8" />
            </g>
            <g
   transform="matrix(0.929883,0,0,0.919548,3597.12,-15.7404)"
   id="g10">
                <circle
   cx="604.13202"
   cy="556.25201"
   r="183.17799"
   id="circle9" />
            </g>
            <g
   transform="translate(3626.96,-6.40488)"
   id="g11">
                <path
   d="m 549.298,410.086 c 0,0 15.764,-73.608 18.883,-132.52 3.119,-58.912 -36.458,-53.714 -36.458,-53.714 0,0 -39.435,-5.198 -37.009,53.021 2.426,58.218 18.075,123.407 19.434,133.437 0,0 15.921,-7.012 35.15,-0.224 z"
   style="fill:url(#_Linear4)"
   id="path10" />
            </g>
            <g
   transform="matrix(1,0,0,-1,3627.54,995.617)"
   id="g12">
                <path
   d="m 549.298,410.086 c 0,0 15.764,-73.608 18.883,-132.52 3.119,-58.912 -36.458,-53.714 -36.458,-53.714 0,0 -39.435,-5.198 -37.009,53.021 2.426,58.218 18.075,123.407 19.434,133.437 0,0 15.921,-7.012 35.15,-0.224 z"
   style="fill:url(#_Linear5)"
   id="path11" />
            </g>
            <g
   transform="rotate(-90,2340.16,-1315.08)"
   id="g13">
                <path
   d="m 549.298,410.086 c 0,0 15.764,-73.608 18.883,-132.52 3.119,-58.912 -36.458,-53.714 -36.458,-53.714 0,0 -39.435,-5.198 -37.009,53.021 2.426,58.218 18.075,123.407 19.434,133.437 0,0 15.921,-7.012 35.15,-0.224 z"
   style="fill:url(#_Linear6)"
   id="path12" />
            </g>
            <g
   transform="rotate(-90,2341.89,-1315.77)"
   id="g14">
                <path
   d="m 549.298,410.086 c 0,0 15.764,-73.608 18.883,-132.52 3.119,-58.912 -36.458,-53.714 -36.458,-53.714 0,0 -39.435,-5.198 -37.009,53.021 2.426,58.218 18.075,123.407 19.434,133.437 0,0 15.921,-7.012 35.15,-0.224 z"
   style="fill:url(#_Linear7)"
   id="path13" />
            </g>
            <g
   transform="matrix(0,-1,-1,0,4660.31,1026.12)"
   id="g15">
                <path
   d="m 549.298,410.086 c 0,0 15.764,-73.608 18.883,-132.52 3.119,-58.912 -36.458,-53.714 -36.458,-53.714 0,0 -39.435,-5.198 -37.009,53.021 2.426,58.218 18.075,123.407 19.434,133.437 0,0 15.921,-7.012 35.15,-0.224 z"
   style="fill:url(#_Linear8)"
   id="path14" />
            </g>
            <g
   transform="matrix(1.11791,0,0,1.11791,3545.12,-58.3118)"
   id="g16">
                <circle
   cx="549.15802"
   cy="495.06201"
   r="83.615997"
   id="circle15" />
            </g>
            <g
   transform="matrix(1.09505,0,0,1.09699,3562.91,-64.8384)"
   id="g17">
                <circle
   cx="543.87"
   cy="510.008"
   r="56.367001"
   style="fill:url(#_Linear9)"
   id="circle16" />
            </g>
        </g>
    </g>
    <defs
   id="defs161">
        <linearGradient
   id="_Linear1"
   x1="0"
   y1="0"
   x2="1"
   y2="0"
   gradientUnits="userSpaceOnUse"
   gradientTransform="matrix(904.397,600.073,-534.653,805.8,57.9035,191.563)"><stop
     offset="0"
     style="stop-color:rgb(187,44,38);stop-opacity:1"
     id="stop18" /><stop
     offset="0.04"
     style="stop-color:rgb(191,53,38);stop-opacity:1"
     id="stop19" /><stop
     offset="0.11"
     style="stop-color:rgb(203,77,37);stop-opacity:1"
     id="stop20" /><stop
     offset="0.19"
     style="stop-color:rgb(222,117,35);stop-opacity:1"
     id="stop21" /><stop
     offset="0.21"
     style="stop-color:rgb(225,122,35);stop-opacity:1"
     id="stop22" /><stop
     offset="0.29"
     style="stop-color:rgb(238,139,31);stop-opacity:1"
     id="stop23" /><stop
     offset="0.38"
     style="stop-color:rgb(245,149,30);stop-opacity:1"
     id="stop24" /><stop
     offset="0.5"
     style="stop-color:rgb(255,153,21);stop-opacity:1"
     id="stop25" /><stop
     offset="0.62"
     style="stop-color:rgb(245,149,30);stop-opacity:1"
     id="stop26" /><stop
     offset="0.71"
     style="stop-color:rgb(238,139,31);stop-opacity:1"
     id="stop27" /><stop
     offset="0.79"
     style="stop-color:rgb(225,122,35);stop-opacity:1"
     id="stop28" /><stop
     offset="0.8"
     style="stop-color:rgb(224,120,35);stop-opacity:1"
     id="stop29" /><stop
     offset="0.85"
     style="stop-color:rgb(211,93,36);stop-opacity:1"
     id="stop30" /><stop
     offset="0.91"
     style="stop-color:rgb(198,66,37);stop-opacity:1"
     id="stop31" /><stop
     offset="0.96"
     style="stop-color:rgb(190,50,38);stop-opacity:1"
     id="stop32" /><stop
     offset="1"
     style="stop-color:rgb(187,44,38);stop-opacity:1"
     id="stop33" /></linearGradient>
        <linearGradient
   id="_Linear2"
   x1="0"
   y1="0"
   x2="1"
   y2="0"
   gradientUnits="userSpaceOnUse"
   gradientTransform="matrix(925.853,614.265,-547.338,824.857,215.905,305.091)"><stop
     offset="0"
     style="stop-color:rgb(187,44,38);stop-opacity:1"
     id="stop34" /><stop
     offset="0.04"
     style="stop-color:rgb(191,53,38);stop-opacity:1"
     id="stop35" /><stop
     offset="0.11"
     style="stop-color:rgb(203,77,37);stop-opacity:1"
     id="stop36" /><stop
     offset="0.19"
     style="stop-color:rgb(222,117,35);stop-opacity:1"
     id="stop37" /><stop
     offset="0.21"
     style="stop-color:rgb(225,122,35);stop-opacity:1"
     id="stop38" /><stop
     offset="0.29"
     style="stop-color:rgb(238,139,31);stop-opacity:1"
     id="stop39" /><stop
     offset="0.38"
     style="stop-color:rgb(245,149,30);stop-opacity:1"
     id="stop40" /><stop
     offset="0.5"
     style="stop-color:rgb(255,153,21);stop-opacity:1"
     id="stop41" /><stop
     offset="0.62"
     style="stop-color:rgb(245,149,30);stop-opacity:1"
     id="stop42" /><stop
     offset="0.71"
     style="stop-color:rgb(238,139,31);stop-opacity:1"
     id="stop43" /><stop
     offset="0.79"
     style="stop-color:rgb(225,122,35);stop-opacity:1"
     id="stop44" /><stop
     offset="0.8"
     style="stop-color:rgb(224,120,35);stop-opacity:1"
     id="stop45" /><stop
     offset="0.85"
     style="stop-color:rgb(211,93,36);stop-opacity:1"
     id="stop46" /><stop
     offset="0.91"
     style="stop-color:rgb(198,66,37);stop-opacity:1"
     id="stop47" /><stop
     offset="0.96"
     style="stop-color:rgb(190,50,38);stop-opacity:1"
     id="stop48" /><stop
     offset="1"
     style="stop-color:rgb(187,44,38);stop-opacity:1"
     id="stop49" /></linearGradient>
        <linearGradient
   id="_Linear3"
   x1="0"
   y1="0"
   x2="1"
   y2="0"
   gradientUnits="userSpaceOnUse"
   gradientTransform="matrix(904.397,600.073,-534.653,805.8,57.9035,191.563)"><stop
     offset="0"
     style="stop-color:rgb(187,44,38);stop-opacity:1"
     id="stop50" /><stop
     offset="0.04"
     style="stop-color:rgb(191,53,38);stop-opacity:1"
     id="stop51" /><stop
     offset="0.11"
     style="stop-color:rgb(203,77,37);stop-opacity:1"
     id="stop52" /><stop
     offset="0.19"
     style="stop-color:rgb(222,117,35);stop-opacity:1"
     id="stop53" /><stop
     offset="0.21"
     style="stop-color:rgb(225,122,35);stop-opacity:1"
     id="stop54" /><stop
     offset="0.29"
     style="stop-color:rgb(238,139,31);stop-opacity:1"
     id="stop55" /><stop
     offset="0.38"
     style="stop-color:rgb(245,149,30);stop-opacity:1"
     id="stop56" /><stop
     offset="0.5"
     style="stop-color:rgb(255,153,21);stop-opacity:1"
     id="stop57" /><stop
     offset="0.62"
     style="stop-color:rgb(245,149,30);stop-opacity:1"
     id="stop58" /><stop
     offset="0.71"
     style="stop-color:rgb(238,139,31);stop-opacity:1"
     id="stop59" /><stop
     offset="0.79"
     style="stop-color:rgb(225,122,35);stop-opacity:1"
     id="stop60" /><stop
     offset="0.8"
     style="stop-color:rgb(224,120,35);stop-opacity:1"
     id="stop61" /><stop
     offset="0.85"
     style="stop-color:rgb(211,93,36);stop-opacity:1"
     id="stop62" /><stop
     offset="0.91"
     style="stop-color:rgb(198,66,37);stop-opacity:1"
     id="stop63" /><stop
     offset="0.96"
     style="stop-color:rgb(190,50,38);stop-opacity:1"
     id="stop64" /><stop
     offset="1"
     style="stop-color:rgb(187,44,38);stop-opacity:1"
     id="stop65" /></linearGradient>
        <linearGradient
   id="_Linear4"
   x1="0"
   y1="0"
   x2="1"
   y2="0"
   gradientUnits="userSpaceOnUse"
   gradientTransform="matrix(904.397,600.073,-534.653,805.8,57.9035,191.563)"><stop
     offset="0"
     style="stop-color:rgb(187,44,38);stop-opacity:1"
     id="stop66" /><stop
     offset="0.04"
     style="stop-color:rgb(191,53,38);stop-opacity:1"
     id="stop67" /><stop
     offset="0.11"
     style="stop-color:rgb(203,77,37);stop-opacity:1"
     id="stop68" /><stop
     offset="0.19"
     style="stop-color:rgb(222,117,35);stop-opacity:1"
     id="stop69" /><stop
     offset="0.21"
     style="stop-color:rgb(225,122,35);stop-opacity:1"
     id="stop70" /><stop
     offset="0.29"
     style="stop-color:rgb(238,139,31);stop-opacity:1"
     id="stop71" /><stop
     offset="0.38"
     style="stop-color:rgb(245,149,30);stop-opacity:1"
     id="stop72" /><stop
     offset="0.5"
     style="stop-color:rgb(255,153,21);stop-opacity:1"
     id="stop73" /><stop
     offset="0.62"
     style="stop-color:rgb(245,149,30);stop-opacity:1"
     id="stop74" /><stop
     offset="0.71"
     style="stop-color:rgb(238,139,31);stop-opacity:1"
     id="stop75" /><stop
     offset="0.79"
     style="stop-color:rgb(225,122,35);stop-opacity:1"
     id="stop76" /><stop
     offset="0.8"
     style="stop-color:rgb(224,120,35);stop-opacity:1"
     id="stop77" /><stop
     offset="0.85"
     style="stop-color:rgb(211,93,36);stop-opacity:1"
     id="stop78" /><stop
     offset="0.91"
     style="stop-color:rgb(198,66,37);stop-opacity:1"
     id="stop79" /><stop
     offset="0.96"
     style="stop-color:rgb(190,50,38);stop-opacity:1"
     id="stop80" /><stop
     offset="1"
     style="stop-color:rgb(187,44,38);stop-opacity:1"
     id="stop81" /></linearGradient>
        <linearGradient
   id="_Linear5"
   x1="0"
   y1="0"
   x2="1"
   y2="0"
   gradientUnits="userSpaceOnUse"
   gradientTransform="matrix(904.397,-600.073,-534.653,-805.8,57.3168,810.459)"><stop
     offset="0"
     style="stop-color:rgb(187,44,38);stop-opacity:1"
     id="stop82" /><stop
     offset="0.04"
     style="stop-color:rgb(191,53,38);stop-opacity:1"
     id="stop83" /><stop
     offset="0.11"
     style="stop-color:rgb(203,77,37);stop-opacity:1"
     id="stop84" /><stop
     offset="0.19"
     style="stop-color:rgb(222,117,35);stop-opacity:1"
     id="stop85" /><stop
     offset="0.21"
     style="stop-color:rgb(225,122,35);stop-opacity:1"
     id="stop86" /><stop
     offset="0.29"
     style="stop-color:rgb(238,139,31);stop-opacity:1"
     id="stop87" /><stop
     offset="0.38"
     style="stop-color:rgb(245,149,30);stop-opacity:1"
     id="stop88" /><stop
     offset="0.5"
     style="stop-color:rgb(255,153,21);stop-opacity:1"
     id="stop89" /><stop
     offset="0.62"
     style="stop-color:rgb(245,149,30);stop-opacity:1"
     id="stop90" /><stop
     offset="0.71"
     style="stop-color:rgb(238,139,31);stop-opacity:1"
     id="stop91" /><stop
     offset="0.79"
     style="stop-color:rgb(225,122,35);stop-opacity:1"
     id="stop92" /><stop
     offset="0.8"
     style="stop-color:rgb(224,120,35);stop-opacity:1"
     id="stop93" /><stop
     offset="0.85"
     style="stop-color:rgb(211,93,36);stop-opacity:1"
     id="stop94" /><stop
     offset="0.91"
     style="stop-color:rgb(198,66,37);stop-opacity:1"
     id="stop95" /><stop
     offset="0.96"
     style="stop-color:rgb(190,50,38);stop-opacity:1"
     id="stop96" /><stop
     offset="1"
     style="stop-color:rgb(187,44,38);stop-opacity:1"
     id="stop97" /></linearGradient>
        <linearGradient
   id="_Linear6"
   x1="0"
   y1="0"
   x2="1"
   y2="0"
   gradientUnits="userSpaceOnUse"
   gradientTransform="matrix(-600.073,904.397,-805.8,-534.653,839.919,29.6207)"><stop
     offset="0"
     style="stop-color:rgb(187,44,38);stop-opacity:1"
     id="stop98" /><stop
     offset="0.04"
     style="stop-color:rgb(191,53,38);stop-opacity:1"
     id="stop99" /><stop
     offset="0.11"
     style="stop-color:rgb(203,77,37);stop-opacity:1"
     id="stop100" /><stop
     offset="0.19"
     style="stop-color:rgb(222,117,35);stop-opacity:1"
     id="stop101" /><stop
     offset="0.21"
     style="stop-color:rgb(225,122,35);stop-opacity:1"
     id="stop102" /><stop
     offset="0.29"
     style="stop-color:rgb(238,139,31);stop-opacity:1"
     id="stop103" /><stop
     offset="0.38"
     style="stop-color:rgb(245,149,30);stop-opacity:1"
     id="stop104" /><stop
     offset="0.5"
     style="stop-color:rgb(255,153,21);stop-opacity:1"
     id="stop105" /><stop
     offset="0.62"
     style="stop-color:rgb(245,149,30);stop-opacity:1"
     id="stop106" /><stop
     offset="0.71"
     style="stop-color:rgb(238,139,31);stop-opacity:1"
     id="stop107" /><stop
     offset="0.79"
     style="stop-color:rgb(225,122,35);stop-opacity:1"
     id="stop108" /><stop
     offset="0.8"
     style="stop-color:rgb(224,120,35);stop-opacity:1"
     id="stop109" /><stop
     offset="0.85"
     style="stop-color:rgb(211,93,36);stop-opacity:1"
     id="stop110" /><stop
     offset="0.91"
     style="stop-color:rgb(198,66,37);stop-opacity:1"
     id="stop111" /><stop
     offset="0.96"
     style="stop-color:rgb(190,50,38);stop-opacity:1"
     id="stop112" /><stop
     offset="1"
     style="stop-color:rgb(187,44,38);stop-opacity:1"
     id="stop113" /></linearGradient>
        <linearGradient
   id="_Linear7"
   x1="0"
   y1="0"
   x2="1"
   y2="0"
   gradientUnits="userSpaceOnUse"
   gradientTransform="matrix(-600.073,904.397,-805.8,-534.653,840.96,27.1971)"><stop
     offset="0"
     style="stop-color:rgb(187,44,38);stop-opacity:1"
     id="stop114" /><stop
     offset="0.04"
     style="stop-color:rgb(191,53,38);stop-opacity:1"
     id="stop115" /><stop
     offset="0.11"
     style="stop-color:rgb(203,77,37);stop-opacity:1"
     id="stop116" /><stop
     offset="0.19"
     style="stop-color:rgb(222,117,35);stop-opacity:1"
     id="stop117" /><stop
     offset="0.21"
     style="stop-color:rgb(225,122,35);stop-opacity:1"
     id="stop118" /><stop
     offset="0.29"
     style="stop-color:rgb(238,139,31);stop-opacity:1"
     id="stop119" /><stop
     offset="0.38"
     style="stop-color:rgb(245,149,30);stop-opacity:1"
     id="stop120" /><stop
     offset="0.5"
     style="stop-color:rgb(255,153,21);stop-opacity:1"
     id="stop121" /><stop
     offset="0.62"
     style="stop-color:rgb(245,149,30);stop-opacity:1"
     id="stop122" /><stop
     offset="0.71"
     style="stop-color:rgb(238,139,31);stop-opacity:1"
     id="stop123" /><stop
     offset="0.79"
     style="stop-color:rgb(225,122,35);stop-opacity:1"
     id="stop124" /><stop
     offset="0.8"
     style="stop-color:rgb(224,120,35);stop-opacity:1"
     id="stop125" /><stop
     offset="0.85"
     style="stop-color:rgb(211,93,36);stop-opacity:1"
     id="stop126" /><stop
     offset="0.91"
     style="stop-color:rgb(198,66,37);stop-opacity:1"
     id="stop127" /><stop
     offset="0.96"
     style="stop-color:rgb(190,50,38);stop-opacity:1"
     id="stop128" /><stop
     offset="1"
     style="stop-color:rgb(187,44,38);stop-opacity:1"
     id="stop129" /></linearGradient>
        <linearGradient
   id="_Linear8"
   x1="0"
   y1="0"
   x2="1"
   y2="0"
   gradientUnits="userSpaceOnUse"
   gradientTransform="matrix(-600.073,-904.397,-805.8,534.653,840.96,975.452)"><stop
     offset="0"
     style="stop-color:rgb(187,44,38);stop-opacity:1"
     id="stop130" /><stop
     offset="0.04"
     style="stop-color:rgb(191,53,38);stop-opacity:1"
     id="stop131" /><stop
     offset="0.11"
     style="stop-color:rgb(203,77,37);stop-opacity:1"
     id="stop132" /><stop
     offset="0.19"
     style="stop-color:rgb(222,117,35);stop-opacity:1"
     id="stop133" /><stop
     offset="0.21"
     style="stop-color:rgb(225,122,35);stop-opacity:1"
     id="stop134" /><stop
     offset="0.29"
     style="stop-color:rgb(238,139,31);stop-opacity:1"
     id="stop135" /><stop
     offset="0.38"
     style="stop-color:rgb(245,149,30);stop-opacity:1"
     id="stop136" /><stop
     offset="0.5"
     style="stop-color:rgb(255,153,21);stop-opacity:1"
     id="stop137" /><stop
     offset="0.62"
     style="stop-color:rgb(245,149,30);stop-opacity:1"
     id="stop138" /><stop
     offset="0.71"
     style="stop-color:rgb(238,139,31);stop-opacity:1"
     id="stop139" /><stop
     offset="0.79"
     style="stop-color:rgb(225,122,35);stop-opacity:1"
     id="stop140" /><stop
     offset="0.8"
     style="stop-color:rgb(224,120,35);stop-opacity:1"
     id="stop141" /><stop
     offset="0.85"
     style="stop-color:rgb(211,93,36);stop-opacity:1"
     id="stop142" /><stop
     offset="0.91"
     style="stop-color:rgb(198,66,37);stop-opacity:1"
     id="stop143" /><stop
     offset="0.96"
     style="stop-color:rgb(190,50,38);stop-opacity:1"
     id="stop144" /><stop
     offset="1"
     style="stop-color:rgb(187,44,38);stop-opacity:1"
     id="stop145" /></linearGradient>
        <linearGradient
   id="_Linear9"
   x1="0"
   y1="0"
   x2="1"
   y2="0"
   gradientUnits="userSpaceOnUse"
   gradientTransform="matrix(825.893,547.016,-488.244,734.553,111.363,227.892)"><stop
     offset="0"
     style="stop-color:rgb(187,44,38);stop-opacity:1"
     id="stop146" /><stop
     offset="0.04"
     style="stop-color:rgb(191,53,38);stop-opacity:1"
     id="stop147" /><stop
     offset="0.11"
     style="stop-color:rgb(203,77,37);stop-opacity:1"
     id="stop148" /><stop
     offset="0.19"
     style="stop-color:rgb(222,117,35);stop-opacity:1"
     id="stop149" /><stop
     offset="0.21"
     style="stop-color:rgb(225,122,35);stop-opacity:1"
     id="stop150" /><stop
     offset="0.29"
     style="stop-color:rgb(238,139,31);stop-opacity:1"
     id="stop151" /><stop
     offset="0.38"
     style="stop-color:rgb(245,149,30);stop-opacity:1"
     id="stop152" /><stop
     offset="0.5"
     style="stop-color:rgb(255,153,21);stop-opacity:1"
     id="stop153" /><stop
     offset="0.62"
     style="stop-color:rgb(245,149,30);stop-opacity:1"
     id="stop154" /><stop
     offset="0.71"
     style="stop-color:rgb(238,139,31);stop-opacity:1"
     id="stop155" /><stop
     offset="0.79"
     style="stop-color:rgb(225,122,35);stop-opacity:1"
     id="stop156" /><stop
     offset="0.8"
     style="stop-color:rgb(224,120,35);stop-opacity:1"
     id="stop157" /><stop
     offset="0.85"
     style="stop-color:rgb(211,93,36);stop-opacity:1"
     id="stop158" /><stop
     offset="0.91"
     style="stop-color:rgb(198,66,37);stop-opacity:1"
     id="stop159" /><stop
     offset="0.96"
     style="stop-color:rgb(190,50,38);stop-opacity:1"
     id="stop160" /><stop
     offset="1"
     style="stop-color:rgb(187,44,38);stop-opacity:1"
     id="stop161" /></linearGradient>
    </defs>
</svg>
