<?xml version="1.0" encoding="UTF-8" standalone="no"?>
<!DOCTYPE svg PUBLIC "-//W3C//DTD SVG 1.1//EN" "http://www.w3.org/Graphics/SVG/1.1/DTD/svg11.dtd">
<svg width="100%" height="100%" viewBox="0 0 1000 1000" version="1.1" xmlns="http://www.w3.org/2000/svg" xmlns:xlink="http://www.w3.org/1999/xlink" xml:space="preserve" xmlns:serif="http://www.serif.com/" style="fill-rule:evenodd;clip-rule:evenodd;stroke-linejoin:round;stroke-miterlimit:2;">
    <g transform="matrix(1,0,0,1,-3624,0)">
        <g id="M" transform="matrix(1,0,0,1,-0.333333,0)">
            <rect x="3624.33" y="0" width="1000" height="1000" style="fill:none;"/>
            <g transform="matrix(1.25175,0,0,1.25757,3504.16,-126.198)">
                <circle cx="522.565" cy="494.184" r="370.879"/>
            </g>
            <g transform="matrix(1,0,0,1,3626.96,-6.40488)">
                <path d="M531.007,78.271C763.59,78.271 952.419,267.099 952.419,499.683C952.419,732.266 763.59,921.094 531.007,921.094C298.424,921.094 109.596,732.266 109.596,499.683C109.596,267.099 298.424,78.271 531.007,78.271ZM531.628,126.006C324.361,126.006 156.087,294.002 156.087,500.926C156.087,707.85 324.361,875.846 531.628,875.846C738.896,875.846 907.17,707.85 907.17,500.926C907.17,294.002 738.896,126.006 531.628,126.006Z" style="fill:url(#_Linear1);"/>
            </g>
            <g transform="matrix(0.976826,0,0,0.976897,3473.96,-112.884)">
                <circle cx="700.871" cy="622.372" r="363.691" style="fill:url(#_Linear2);"/>
            </g>
            <g transform="matrix(1,0,0,1,3626.96,-6.40488)">
                <path d="M60.422,232.606L475.029,232.606L475.029,770.534L59.538,770.534C59.538,770.534 20.199,697.68 5.613,629.532L85.175,629.532C85.175,629.532 66.168,575.53 67.494,494.199C68.82,412.869 86.501,372.646 86.501,372.646L4.729,372.646C4.729,372.646 27.271,283.956 60.422,232.606ZM130.472,372.172C84.408,525.073 130.948,630.419 130.948,630.419L239.879,630.419C252.086,627.56 254.354,612.79 254.354,612.79L254.354,558.472C254.354,558.472 227.195,546.084 224.337,502.165C221.478,458.246 252.925,446.025 252.925,446.025L252.925,385.99C249.113,376.461 239.879,372.172 239.879,372.172L130.472,372.172Z"/>
            </g>
            <g transform="matrix(1,0,0,1,3626.96,-6.40488)">
                <path d="M374.133,439.207C374.133,439.207 398.601,369.905 469.796,342.79C469.796,342.79 463.331,290.571 463.666,262.118L80.722,262.118C80.722,262.118 50.261,319.024 45.909,342.456L239.879,342.456C239.879,342.456 272.864,341.744 284.58,382.959L284.58,620.023C284.58,620.023 278.468,658.181 242.493,662.413L45.693,662.413C45.693,662.413 58.037,706.262 80.134,740.313L465.202,740.313C465.202,740.313 459.596,703.343 472.498,660.409C472.498,660.409 406.244,641.601 373.745,562.876C341.246,484.15 374.133,439.207 374.133,439.207Z" style="fill:url(#_Linear3);"/>
            </g>
            <g transform="matrix(1,0,0,1,3626.96,-6.40488)">
                <path d="M469.796,344.848C469.796,344.848 469.949,346.238 462.83,262.334C462.83,262.334 464.517,194.702 532.068,191.651C599.619,188.6 600.128,265.893 600.128,265.893C600.128,265.893 596.568,323.863 591.992,342.17C587.415,360.476 582.33,375.223 582.33,375.223L554.362,440.312L500,440.312C500,440.312 470.66,362.782 469.796,344.848Z"/>
            </g>
            <g transform="matrix(1,0,0,-1,3626.96,996.366)">
                <path d="M469.796,344.848C469.796,344.848 469.949,346.238 462.83,262.334C462.83,262.334 464.517,194.702 532.068,191.651C599.619,188.6 600.128,265.893 600.128,265.893C600.128,265.893 596.568,323.863 591.992,342.17C587.415,360.476 582.33,375.223 582.33,375.223L554.362,440.312L500,440.312C500,440.312 470.66,362.782 469.796,344.848Z"/>
            </g>
            <g transform="matrix(6.12323e-17,1,-1,6.12323e-17,4660,-36.3698)">
                <path d="M469.796,344.848C469.796,344.848 469.949,346.238 462.83,262.334C462.83,262.334 464.517,194.702 532.068,191.651C599.619,188.6 600.128,265.893 600.128,265.893C600.128,265.893 596.568,323.863 591.992,342.17C587.415,360.476 582.33,375.223 582.33,375.223L554.362,440.312L500,440.312C500,440.312 470.66,362.782 469.796,344.848Z"/>
            </g>
            <g transform="matrix(-6.12323e-17,1,1,6.12323e-17,3657.61,-35.7187)">
                <path d="M469.796,344.848C469.796,344.848 469.949,346.238 462.83,262.334C462.83,262.334 464.517,194.702 532.068,191.651C599.619,188.6 600.128,265.893 600.128,265.893C600.128,265.893 596.568,323.863 591.992,342.17C587.415,360.476 582.33,375.223 582.33,375.223L554.362,440.312L500,440.312C500,440.312 470.66,362.782 469.796,344.848Z"/>
            </g>
            <g transform="matrix(0.929883,0,0,0.919548,3597.12,-15.7404)">
                <circle cx="604.132" cy="556.252" r="183.178"/>
            </g>
            <g transform="matrix(1,0,0,1,3626.96,-6.40488)">
                <path d="M549.298,410.086C549.298,410.086 565.062,336.478 568.181,277.566C571.3,218.654 531.723,223.852 531.723,223.852C531.723,223.852 492.288,218.654 494.714,276.873C497.14,335.091 512.789,400.28 514.148,410.31C514.148,410.31 530.069,403.298 549.298,410.086Z" style="fill:url(#_Linear4);"/>
            </g>
            <g transform="matrix(1,0,0,-1,3627.54,995.617)">
                <path d="M549.298,410.086C549.298,410.086 565.062,336.478 568.181,277.566C571.3,218.654 531.723,223.852 531.723,223.852C531.723,223.852 492.288,218.654 494.714,276.873C497.14,335.091 512.789,400.28 514.148,410.31C514.148,410.31 530.069,403.298 549.298,410.086Z" style="fill:url(#_Linear5);"/>
            </g>
            <g transform="matrix(6.12323e-17,-1,1,6.12323e-17,3655.24,1025.08)">
                <path d="M549.298,410.086C549.298,410.086 565.062,336.478 568.181,277.566C571.3,218.654 531.723,223.852 531.723,223.852C531.723,223.852 492.288,218.654 494.714,276.873C497.14,335.091 512.789,400.28 514.148,410.31C514.148,410.31 530.069,403.298 549.298,410.086Z" style="fill:url(#_Linear6);"/>
            </g>
            <g transform="matrix(6.12323e-17,-1,1,6.12323e-17,3657.66,1026.12)">
                <path d="M549.298,410.086C549.298,410.086 565.062,336.478 568.181,277.566C571.3,218.654 531.723,223.852 531.723,223.852C531.723,223.852 492.288,218.654 494.714,276.873C497.14,335.091 512.789,400.28 514.148,410.31C514.148,410.31 530.069,403.298 549.298,410.086Z" style="fill:url(#_Linear7);"/>
            </g>
            <g transform="matrix(-6.12323e-17,-1,-1,6.12323e-17,4660.31,1026.12)">
                <path d="M549.298,410.086C549.298,410.086 565.062,336.478 568.181,277.566C571.3,218.654 531.723,223.852 531.723,223.852C531.723,223.852 492.288,218.654 494.714,276.873C497.14,335.091 512.789,400.28 514.148,410.31C514.148,410.31 530.069,403.298 549.298,410.086Z" style="fill:url(#_Linear8);"/>
            </g>
            <g transform="matrix(1.11791,0,0,1.11791,3545.12,-58.3118)">
                <circle cx="549.158" cy="495.062" r="83.616"/>
            </g>
            <g transform="matrix(1.09505,0,0,1.09699,3562.91,-64.8384)">
                <circle cx="543.87" cy="510.008" r="56.367" style="fill:url(#_Linear9);"/>
            </g>
        </g>
    </g>
    <defs>
        <linearGradient id="_Linear1" x1="0" y1="0" x2="1" y2="0" gradientUnits="userSpaceOnUse" gradientTransform="matrix(904.397,600.073,-534.653,805.8,57.9035,191.563)"><stop offset="0" style="stop-color:rgb(187,44,38);stop-opacity:1"/><stop offset="0.04" style="stop-color:rgb(191,53,38);stop-opacity:1"/><stop offset="0.11" style="stop-color:rgb(203,77,37);stop-opacity:1"/><stop offset="0.19" style="stop-color:rgb(222,117,35);stop-opacity:1"/><stop offset="0.21" style="stop-color:rgb(225,122,35);stop-opacity:1"/><stop offset="0.29" style="stop-color:rgb(238,139,31);stop-opacity:1"/><stop offset="0.38" style="stop-color:rgb(245,149,30);stop-opacity:1"/><stop offset="0.5" style="stop-color:rgb(255,153,21);stop-opacity:1"/><stop offset="0.62" style="stop-color:rgb(245,149,30);stop-opacity:1"/><stop offset="0.71" style="stop-color:rgb(238,139,31);stop-opacity:1"/><stop offset="0.79" style="stop-color:rgb(225,122,35);stop-opacity:1"/><stop offset="0.8" style="stop-color:rgb(224,120,35);stop-opacity:1"/><stop offset="0.85" style="stop-color:rgb(211,93,36);stop-opacity:1"/><stop offset="0.91" style="stop-color:rgb(198,66,37);stop-opacity:1"/><stop offset="0.96" style="stop-color:rgb(190,50,38);stop-opacity:1"/><stop offset="1" style="stop-color:rgb(187,44,38);stop-opacity:1"/></linearGradient>
        <linearGradient id="_Linear2" x1="0" y1="0" x2="1" y2="0" gradientUnits="userSpaceOnUse" gradientTransform="matrix(925.853,614.265,-547.338,824.857,215.905,305.091)"><stop offset="0" style="stop-color:rgb(187,44,38);stop-opacity:1"/><stop offset="0.04" style="stop-color:rgb(191,53,38);stop-opacity:1"/><stop offset="0.11" style="stop-color:rgb(203,77,37);stop-opacity:1"/><stop offset="0.19" style="stop-color:rgb(222,117,35);stop-opacity:1"/><stop offset="0.21" style="stop-color:rgb(225,122,35);stop-opacity:1"/><stop offset="0.29" style="stop-color:rgb(238,139,31);stop-opacity:1"/><stop offset="0.38" style="stop-color:rgb(245,149,30);stop-opacity:1"/><stop offset="0.5" style="stop-color:rgb(255,153,21);stop-opacity:1"/><stop offset="0.62" style="stop-color:rgb(245,149,30);stop-opacity:1"/><stop offset="0.71" style="stop-color:rgb(238,139,31);stop-opacity:1"/><stop offset="0.79" style="stop-color:rgb(225,122,35);stop-opacity:1"/><stop offset="0.8" style="stop-color:rgb(224,120,35);stop-opacity:1"/><stop offset="0.85" style="stop-color:rgb(211,93,36);stop-opacity:1"/><stop offset="0.91" style="stop-color:rgb(198,66,37);stop-opacity:1"/><stop offset="0.96" style="stop-color:rgb(190,50,38);stop-opacity:1"/><stop offset="1" style="stop-color:rgb(187,44,38);stop-opacity:1"/></linearGradient>
        <linearGradient id="_Linear3" x1="0" y1="0" x2="1" y2="0" gradientUnits="userSpaceOnUse" gradientTransform="matrix(904.397,600.073,-534.653,805.8,57.9035,191.563)"><stop offset="0" style="stop-color:rgb(187,44,38);stop-opacity:1"/><stop offset="0.04" style="stop-color:rgb(191,53,38);stop-opacity:1"/><stop offset="0.11" style="stop-color:rgb(203,77,37);stop-opacity:1"/><stop offset="0.19" style="stop-color:rgb(222,117,35);stop-opacity:1"/><stop offset="0.21" style="stop-color:rgb(225,122,35);stop-opacity:1"/><stop offset="0.29" style="stop-color:rgb(238,139,31);stop-opacity:1"/><stop offset="0.38" style="stop-color:rgb(245,149,30);stop-opacity:1"/><stop offset="0.5" style="stop-color:rgb(255,153,21);stop-opacity:1"/><stop offset="0.62" style="stop-color:rgb(245,149,30);stop-opacity:1"/><stop offset="0.71" style="stop-color:rgb(238,139,31);stop-opacity:1"/><stop offset="0.79" style="stop-color:rgb(225,122,35);stop-opacity:1"/><stop offset="0.8" style="stop-color:rgb(224,120,35);stop-opacity:1"/><stop offset="0.85" style="stop-color:rgb(211,93,36);stop-opacity:1"/><stop offset="0.91" style="stop-color:rgb(198,66,37);stop-opacity:1"/><stop offset="0.96" style="stop-color:rgb(190,50,38);stop-opacity:1"/><stop offset="1" style="stop-color:rgb(187,44,38);stop-opacity:1"/></linearGradient>
        <linearGradient id="_Linear4" x1="0" y1="0" x2="1" y2="0" gradientUnits="userSpaceOnUse" gradientTransform="matrix(904.397,600.073,-534.653,805.8,57.9035,191.563)"><stop offset="0" style="stop-color:rgb(187,44,38);stop-opacity:1"/><stop offset="0.04" style="stop-color:rgb(191,53,38);stop-opacity:1"/><stop offset="0.11" style="stop-color:rgb(203,77,37);stop-opacity:1"/><stop offset="0.19" style="stop-color:rgb(222,117,35);stop-opacity:1"/><stop offset="0.21" style="stop-color:rgb(225,122,35);stop-opacity:1"/><stop offset="0.29" style="stop-color:rgb(238,139,31);stop-opacity:1"/><stop offset="0.38" style="stop-color:rgb(245,149,30);stop-opacity:1"/><stop offset="0.5" style="stop-color:rgb(255,153,21);stop-opacity:1"/><stop offset="0.62" style="stop-color:rgb(245,149,30);stop-opacity:1"/><stop offset="0.71" style="stop-color:rgb(238,139,31);stop-opacity:1"/><stop offset="0.79" style="stop-color:rgb(225,122,35);stop-opacity:1"/><stop offset="0.8" style="stop-color:rgb(224,120,35);stop-opacity:1"/><stop offset="0.85" style="stop-color:rgb(211,93,36);stop-opacity:1"/><stop offset="0.91" style="stop-color:rgb(198,66,37);stop-opacity:1"/><stop offset="0.96" style="stop-color:rgb(190,50,38);stop-opacity:1"/><stop offset="1" style="stop-color:rgb(187,44,38);stop-opacity:1"/></linearGradient>
        <linearGradient id="_Linear5" x1="0" y1="0" x2="1" y2="0" gradientUnits="userSpaceOnUse" gradientTransform="matrix(904.397,-600.073,-534.653,-805.8,57.3168,810.459)"><stop offset="0" style="stop-color:rgb(187,44,38);stop-opacity:1"/><stop offset="0.04" style="stop-color:rgb(191,53,38);stop-opacity:1"/><stop offset="0.11" style="stop-color:rgb(203,77,37);stop-opacity:1"/><stop offset="0.19" style="stop-color:rgb(222,117,35);stop-opacity:1"/><stop offset="0.21" style="stop-color:rgb(225,122,35);stop-opacity:1"/><stop offset="0.29" style="stop-color:rgb(238,139,31);stop-opacity:1"/><stop offset="0.38" style="stop-color:rgb(245,149,30);stop-opacity:1"/><stop offset="0.5" style="stop-color:rgb(255,153,21);stop-opacity:1"/><stop offset="0.62" style="stop-color:rgb(245,149,30);stop-opacity:1"/><stop offset="0.71" style="stop-color:rgb(238,139,31);stop-opacity:1"/><stop offset="0.79" style="stop-color:rgb(225,122,35);stop-opacity:1"/><stop offset="0.8" style="stop-color:rgb(224,120,35);stop-opacity:1"/><stop offset="0.85" style="stop-color:rgb(211,93,36);stop-opacity:1"/><stop offset="0.91" style="stop-color:rgb(198,66,37);stop-opacity:1"/><stop offset="0.96" style="stop-color:rgb(190,50,38);stop-opacity:1"/><stop offset="1" style="stop-color:rgb(187,44,38);stop-opacity:1"/></linearGradient>
        <linearGradient id="_Linear6" x1="0" y1="0" x2="1" y2="0" gradientUnits="userSpaceOnUse" gradientTransform="matrix(-600.073,904.397,-805.8,-534.653,839.919,29.6207)"><stop offset="0" style="stop-color:rgb(187,44,38);stop-opacity:1"/><stop offset="0.04" style="stop-color:rgb(191,53,38);stop-opacity:1"/><stop offset="0.11" style="stop-color:rgb(203,77,37);stop-opacity:1"/><stop offset="0.19" style="stop-color:rgb(222,117,35);stop-opacity:1"/><stop offset="0.21" style="stop-color:rgb(225,122,35);stop-opacity:1"/><stop offset="0.29" style="stop-color:rgb(238,139,31);stop-opacity:1"/><stop offset="0.38" style="stop-color:rgb(245,149,30);stop-opacity:1"/><stop offset="0.5" style="stop-color:rgb(255,153,21);stop-opacity:1"/><stop offset="0.62" style="stop-color:rgb(245,149,30);stop-opacity:1"/><stop offset="0.71" style="stop-color:rgb(238,139,31);stop-opacity:1"/><stop offset="0.79" style="stop-color:rgb(225,122,35);stop-opacity:1"/><stop offset="0.8" style="stop-color:rgb(224,120,35);stop-opacity:1"/><stop offset="0.85" style="stop-color:rgb(211,93,36);stop-opacity:1"/><stop offset="0.91" style="stop-color:rgb(198,66,37);stop-opacity:1"/><stop offset="0.96" style="stop-color:rgb(190,50,38);stop-opacity:1"/><stop offset="1" style="stop-color:rgb(187,44,38);stop-opacity:1"/></linearGradient>
        <linearGradient id="_Linear7" x1="0" y1="0" x2="1" y2="0" gradientUnits="userSpaceOnUse" gradientTransform="matrix(-600.073,904.397,-805.8,-534.653,840.96,27.1971)"><stop offset="0" style="stop-color:rgb(187,44,38);stop-opacity:1"/><stop offset="0.04" style="stop-color:rgb(191,53,38);stop-opacity:1"/><stop offset="0.11" style="stop-color:rgb(203,77,37);stop-opacity:1"/><stop offset="0.19" style="stop-color:rgb(222,117,35);stop-opacity:1"/><stop offset="0.21" style="stop-color:rgb(225,122,35);stop-opacity:1"/><stop offset="0.29" style="stop-color:rgb(238,139,31);stop-opacity:1"/><stop offset="0.38" style="stop-color:rgb(245,149,30);stop-opacity:1"/><stop offset="0.5" style="stop-color:rgb(255,153,21);stop-opacity:1"/><stop offset="0.62" style="stop-color:rgb(245,149,30);stop-opacity:1"/><stop offset="0.71" style="stop-color:rgb(238,139,31);stop-opacity:1"/><stop offset="0.79" style="stop-color:rgb(225,122,35);stop-opacity:1"/><stop offset="0.8" style="stop-color:rgb(224,120,35);stop-opacity:1"/><stop offset="0.85" style="stop-color:rgb(211,93,36);stop-opacity:1"/><stop offset="0.91" style="stop-color:rgb(198,66,37);stop-opacity:1"/><stop offset="0.96" style="stop-color:rgb(190,50,38);stop-opacity:1"/><stop offset="1" style="stop-color:rgb(187,44,38);stop-opacity:1"/></linearGradient>
        <linearGradient id="_Linear8" x1="0" y1="0" x2="1" y2="0" gradientUnits="userSpaceOnUse" gradientTransform="matrix(-600.073,-904.397,-805.8,534.653,840.96,975.452)"><stop offset="0" style="stop-color:rgb(187,44,38);stop-opacity:1"/><stop offset="0.04" style="stop-color:rgb(191,53,38);stop-opacity:1"/><stop offset="0.11" style="stop-color:rgb(203,77,37);stop-opacity:1"/><stop offset="0.19" style="stop-color:rgb(222,117,35);stop-opacity:1"/><stop offset="0.21" style="stop-color:rgb(225,122,35);stop-opacity:1"/><stop offset="0.29" style="stop-color:rgb(238,139,31);stop-opacity:1"/><stop offset="0.38" style="stop-color:rgb(245,149,30);stop-opacity:1"/><stop offset="0.5" style="stop-color:rgb(255,153,21);stop-opacity:1"/><stop offset="0.62" style="stop-color:rgb(245,149,30);stop-opacity:1"/><stop offset="0.71" style="stop-color:rgb(238,139,31);stop-opacity:1"/><stop offset="0.79" style="stop-color:rgb(225,122,35);stop-opacity:1"/><stop offset="0.8" style="stop-color:rgb(224,120,35);stop-opacity:1"/><stop offset="0.85" style="stop-color:rgb(211,93,36);stop-opacity:1"/><stop offset="0.91" style="stop-color:rgb(198,66,37);stop-opacity:1"/><stop offset="0.96" style="stop-color:rgb(190,50,38);stop-opacity:1"/><stop offset="1" style="stop-color:rgb(187,44,38);stop-opacity:1"/></linearGradient>
        <linearGradient id="_Linear9" x1="0" y1="0" x2="1" y2="0" gradientUnits="userSpaceOnUse" gradientTransform="matrix(825.893,547.016,-488.244,734.553,111.363,227.892)"><stop offset="0" style="stop-color:rgb(187,44,38);stop-opacity:1"/><stop offset="0.04" style="stop-color:rgb(191,53,38);stop-opacity:1"/><stop offset="0.11" style="stop-color:rgb(203,77,37);stop-opacity:1"/><stop offset="0.19" style="stop-color:rgb(222,117,35);stop-opacity:1"/><stop offset="0.21" style="stop-color:rgb(225,122,35);stop-opacity:1"/><stop offset="0.29" style="stop-color:rgb(238,139,31);stop-opacity:1"/><stop offset="0.38" style="stop-color:rgb(245,149,30);stop-opacity:1"/><stop offset="0.5" style="stop-color:rgb(255,153,21);stop-opacity:1"/><stop offset="0.62" style="stop-color:rgb(245,149,30);stop-opacity:1"/><stop offset="0.71" style="stop-color:rgb(238,139,31);stop-opacity:1"/><stop offset="0.79" style="stop-color:rgb(225,122,35);stop-opacity:1"/><stop offset="0.8" style="stop-color:rgb(224,120,35);stop-opacity:1"/><stop offset="0.85" style="stop-color:rgb(211,93,36);stop-opacity:1"/><stop offset="0.91" style="stop-color:rgb(198,66,37);stop-opacity:1"/><stop offset="0.96" style="stop-color:rgb(190,50,38);stop-opacity:1"/><stop offset="1" style="stop-color:rgb(187,44,38);stop-opacity:1"/></linearGradient>
    </defs>
</svg>
