<?xml version="1.0" encoding="UTF-8" standalone="no"?>
<svg
   width="1000"
   height="1000"
   viewBox="0 0 1000 1000"
   version="1.1"
   xml:space="preserve"
   style="clip-rule:evenodd;fill-rule:evenodd;stroke-linejoin:round;stroke-miterlimit:2"
   id="svg13"
   xmlns="http://www.w3.org/2000/svg"
   xmlns:svg="http://www.w3.org/2000/svg"><defs
   id="defs13" />
    <g
   transform="translate(-4831.9967)"
   id="g13">
        <g
   id="WM"
   transform="translate(-0.333333)">
            <rect
   x="4832.3301"
   y="0"
   width="1000"
   height="1000"
   style="fill:none"
   id="rect1" />
            <g
   transform="translate(4828.23,-6.56838)"
   id="g1">
                <path
   d="M 60.422,232.606 H 475.029 V 770.534 H 59.538 c 0,0 -39.339,-72.854 -53.925,-141.002 h 79.562 c 0,0 -19.007,-54.002 -17.681,-135.333 1.326,-81.33 19.007,-121.553 19.007,-121.553 H 4.729 c 0,0 22.542,-88.69 55.693,-140.04 z M 284.58,569.005 v 51.018 c 0,0 -6.112,38.158 -42.087,42.39 h -196.8 c 0,0 12.344,43.849 34.441,77.9 h 385.068 c 0,0 -5.606,-36.97 7.296,-79.904 0,0 -66,-18.736 -98.566,-97.081 1.048,-0.215 2.015,-0.431 2.891,-0.65 18.306,-4.577 33.053,-9.662 33.053,-9.662 l 65.089,-27.968 v -54.362 c 0,0 -77.53,-29.339 -95.464,-30.204 -0.025,0 -0.446,-0.03 -5.904,-0.487 0.343,-0.524 0.536,-0.788 0.536,-0.788 0,0 24.468,-69.302 95.663,-96.417 0,0 -6.465,-52.219 -6.13,-80.672 H 80.722 c 0,0 -30.461,56.906 -34.813,80.338 h 193.97 c 0,0 32.985,-0.712 44.701,40.503 v 52.235 c -19.677,4.14 -56.057,18.43 -58.276,67.56 -0.382,8.443 0.492,15.838 2.313,22.316 -2.135,-6.454 -3.703,-14.037 -4.28,-22.905 -2.859,-43.919 28.588,-56.14 28.588,-56.14 V 385.99 c -3.812,-9.529 -13.046,-13.818 -13.046,-13.818 H 130.472 c -46.064,152.901 0.476,258.247 0.476,258.247 h 108.931 c 12.207,-2.859 14.475,-17.629 14.475,-17.629 v -54.318 c 0,0 -7.986,-3.643 -15.752,-13.98 12.609,15.537 32.209,21.904 45.978,24.513 z"
   id="path1" />
            </g>
            <g
   transform="matrix(1.25175,0,0,1.25757,4709.43,-126.361)"
   id="g2">
                <path
   d="m 173.75,620.4 c -14.278,-39.405 -22.065,-81.908 -22.065,-126.216 0,-44.457 7.839,-87.098 22.21,-126.615 h 36.011 c -15.641,38.642 -24.252,80.842 -24.252,125.029 0,45.246 9.029,88.41 25.389,127.802 z m 77.502,0 c -18.251,-38.49 -28.457,-81.477 -28.457,-126.814 0,-45.024 10.066,-87.731 28.081,-126.017 h 18.127 c -19.197,38.062 -30.005,81.027 -30.005,126.485 0,45.403 10.782,88.318 29.934,126.346 z m 61.792,63.879 c 51.921,56.695 126.7,92.295 209.765,92.295 156.64,0 283.812,-126.593 283.812,-282.52 0,-155.927 -127.172,-282.52 -283.812,-282.52 -82.997,0 -157.721,35.541 -209.638,92.156 h -21.579 c 55.047,-66.096 138.218,-108.235 231.216,-108.235 165.581,0 300.012,133.588 300.012,298.131 0,164.543 -134.431,298.131 -300.012,298.131 -92.624,0 -175.5,-41.8 -230.551,-107.438 z m -66.838,0 c 60.88,86.681 161.888,143.419 276.105,143.419 185.806,0 336.657,-150.153 336.657,-335.1 0,-184.947 -150.851,-335.1 -336.657,-335.1 -115.43,0 -217.37,57.95 -278.032,146.192 H 204.348 C 269.201,195.66 387.5,123.305 522.565,123.305 c 204.693,0 370.879,166.185 370.879,370.879 0,204.694 -166.186,370.879 -370.879,370.879 -135.232,0 -253.655,-72.533 -318.457,-180.784 z"
   id="path2" />
            </g>
            <g
   transform="translate(0.333333)"
   id="g3">
                <path
   d="m 5308.88,401.742 c 0,0 -21.51,-105.75 -14.16,-146.622 7.35,-40.872 20.28,-66.595 68.65,-72.126 48.37,-5.531 65.77,39.428 68.65,71.445 2.88,32.016 -19.6,147.303 -19.6,147.303 h -29.97 c 0,0 23.33,-127.548 17.8,-147.303 -5.54,-19.755 -6.42,-37.677 -36.29,-39.275 -29.87,-1.597 -36.19,27.695 -37.46,39.956 -1.27,12.262 9.63,117.493 19.17,146.622 z"
   id="path3" />
            </g>
            <g
   transform="matrix(1,0,0,-1,0.333333,989.135)"
   id="g4">
                <path
   d="m 5308.88,401.742 c 0,0 -21.51,-105.75 -14.16,-146.622 7.35,-40.872 20.28,-66.595 68.65,-72.126 48.37,-5.531 65.77,39.428 68.65,71.445 2.88,32.016 -19.6,147.303 -19.6,147.303 h -29.97 c 0,0 23.33,-127.548 17.8,-147.303 -5.54,-19.755 -6.42,-37.677 -36.29,-39.275 -29.87,-1.597 -36.19,27.695 -37.46,39.956 -1.27,12.262 9.63,117.493 19.17,146.622 z"
   id="path4" />
            </g>
            <g
   transform="rotate(90,5364.095,495.415)"
   id="g5">
                <path
   d="m 5308.88,401.742 c 0,0 -21.51,-105.75 -14.16,-146.622 7.35,-40.872 20.28,-66.595 68.65,-72.126 48.37,-5.531 65.77,39.428 68.65,71.445 2.88,32.016 -19.6,147.303 -19.6,147.303 h -29.97 c 0,0 23.33,-127.548 17.8,-147.303 -5.54,-19.755 -6.42,-37.677 -36.29,-39.275 -29.87,-1.597 -36.19,27.695 -37.46,39.956 -1.27,12.262 9.63,117.493 19.17,146.622 z"
   id="path5" />
            </g>
            <g
   transform="matrix(0,1,1,0,4866.2,-4867.73)"
   id="g6">
                <path
   d="m 5308.88,401.742 c 0,0 -21.51,-105.75 -14.16,-146.622 7.35,-40.872 20.28,-66.595 68.65,-72.126 48.37,-5.531 65.77,39.428 68.65,71.445 2.88,32.016 -19.6,147.303 -19.6,147.303 h -29.97 c 0,0 23.33,-127.548 17.8,-147.303 -5.54,-19.755 -6.42,-37.677 -36.29,-39.275 -29.87,-1.597 -36.19,27.695 -37.46,39.956 -1.27,12.262 9.63,117.493 19.17,146.622 z"
   id="path6" />
            </g>
            <g
   transform="matrix(0.929883,0,0,0.919548,4802.39,-15.9039)"
   id="g7">
                <path
   d="m 784.375,589.056 c -13.521,74.66 -72.357,133.63 -146.948,147.35 -6.083,-44.093 -13.992,-81.442 -13.992,-81.442 -20.679,7.383 -37.801,-0.244 -37.801,-0.244 -0.974,7.269 -8.771,41.17 -14.637,81.715 -74.395,-13.616 -133.148,-72.237 -146.959,-146.564 22.396,-3.255 66.093,-10.257 79.713,-17.11 l -0.025,-0.01 0.025,-0.003 c 0,0 -7.542,-17.314 -0.241,-38.226 0,0 -36.113,-7.821 -79.078,-13.943 14.496,-73.318 72.803,-130.967 146.465,-144.491 5.795,38.931 13.161,71.047 14.106,78.098 0,0 17.122,-7.626 37.801,-0.244 0,0 7.507,-35.447 13.518,-78.043 74.512,13.231 133.512,71.575 147.718,145.748 -43.166,6.131 -79.536,14.007 -79.536,14.007 7.3,20.912 -0.241,38.226 -0.241,38.226 0.333,0.046 0.722,0.106 1.166,0.181 10.433,2.805 76.277,14.52 78.946,14.995 z M 603.686,487.786 c -36.635,0 -66.379,30.131 -66.379,67.244 0,37.113 29.744,67.245 66.379,67.245 36.636,0 66.38,-30.132 66.38,-67.245 0,-37.113 -29.744,-67.244 -66.38,-67.244 z"
   id="path7" />
            </g>
            <g
   transform="matrix(1.11791,0,0,1.11791,4750.39,-58.4753)"
   id="g8">
                <path
   d="m 549.158,411.445 c 46.15,0 83.617,37.468 83.617,83.617 0,46.149 -37.467,83.616 -83.617,83.616 -46.149,0 -83.616,-37.467 -83.616,-83.616 0,-46.149 37.467,-83.617 83.616,-83.617 z m -0.489,27.87 c -30.474,0 -55.214,24.785 -55.214,55.313 0,30.528 24.74,55.313 55.214,55.313 30.474,0 55.215,-24.785 55.215,-55.313 0,-30.528 -24.741,-55.313 -55.215,-55.313 z"
   id="path8" />
            </g>
            <g
   transform="translate(0.333333)"
   id="g9">
                <path
   d="m 5202.82,559.044 c 0,0 -2.06,-4.252 -1.69,-4.665 0.37,-0.413 4.5,0.66 4.5,0.66 z"
   id="path9" />
            </g>
            <g
   transform="translate(0.333333)"
   id="g10">
                <path
   d="m 5267,477.737 c 0,0 2.43,0.768 2.8,1.108 0.38,0.341 1.85,-3.789 1.85,-3.789 l -4.61,-0.192 z"
   id="path10" />
            </g>
            <g
   transform="translate(0.333333)"
   id="g11">
                <path
   d="m 5508.83,495.518 35.84,25.89"
   style="fill:none"
   id="path11" />
            </g>
            <g
   transform="translate(0.333333)"
   id="g12">
                <path
   d="m 5544.67,521.408 -13.16,4.367"
   style="fill:none"
   id="path12" />
            </g>
            <g
   id="Ebene1">
            </g>
        </g>
    </g>
</svg>
