<svg xmlns="http://www.w3.org/2000/svg" width="600" height="329.711"><path d="M548.751 329.71h-.04c-11.913 0-29.627-2.8-46.455-16.159-23.088-18.343-21.373-44.192-13.936-63.631-16.28-2.762-35.21-5.294-53.473-7.198l-5.872 16.668c-2.462 7.008-9.082 11.644-16.399 11.644-.348 0-.698 0-1.047-.04-19.628-1.137-31.551-12.541-32.867-13.827a17.48 17.48 0 0 1-4.127-18.143l3.34-9.43c-28.382-.54-105.062-6.032-187.615-45.678C96.334 138.786 32.941 85.433 1.948 25.35-1.76 18.223-.046 9.58 5.996 4.287A17.47 17.47 0 0 1 17.48 0c3.509 0 7.008 1.017 10.048 3.12.309.23 35.669 24.105 118.072 26.278 6.769.2 12.85 4.327 15.531 10.557 2.732 6.23 1.525 13.478-2.99 18.532l-.469.47c20.716 12.85 61.449 33.066 112.619 33.066 22.23 0 44.54-3.818 66.313-11.374a17.9 17.9 0 0 1 5.682-.937 17.37 17.37 0 0 1 10.477 3.509l60.75 45.517 3.35-9.46c2.492-6.968 9.072-11.644 16.469-11.644 20.635 0 33.057 13.01 34.422 14.525a17.4 17.4 0 0 1 3.43 17.834l-3.51 9.351c115.42 45.478 130.732 72.703 130.732 91.465 0 17.096-10.208 29.049-30.415 35.598 3.58 1.595 10.238 3.31 15.691 3.699 5.762.388 10.986 3.579 13.907 8.563 2.881 4.985 3.23 11.066.778 16.28-7.009 14.793-26.916 24.762-49.616 24.762" style="fill:gray"/><path d="m433.292 125.08-42.288 119.746s7.985 7.985 21.532 8.762l10.398-29.518s100.546 8.763 118.929 23.128c0 0-12.78 26.368-29.558-5.572 0 0-26.328 36.725.817 58.258 27.146 21.572 63.043 11.175 69.433-2.373 0 0-26.367-1.595-32.747-15.192-6.35-13.548.817-19.15 6.38-20.756 5.612-1.595 24.772-4.745 24.772-20.755 0-15.92-34.352-43.065-135.676-81.386l9.58-25.54s-8.025-8.803-21.572-8.803m-136.484 13.867s51.868 7.437 76.63 13.817l-32.708-31.651s-19.429 10.358-43.922 17.834m-15.97 2.104c-98.992-7.985-155.646-64.65-155.646-64.65 51.868 110.127 155.644 64.649 155.644 64.649M17.44 17.326S54.943 44.47 145.13 46.884l-13.558 15.152s91.006 76.631 210.713 35.12l70.25 52.686-22.35 62.236s-90.966 4.825-192.37-43.893C96.454 119.507 42.99 66.82 17.44 17.325"/></svg>