<svg xmlns="http://www.w3.org/2000/svg" width="600" height="329.711"><linearGradient id="a" x1="0" x2="1" y1="0" y2="0" gradientTransform="translate(17.43 164.814)scale(565.12554)" gradientUnits="userSpaceOnUse" spreadMethod="pad"><stop offset="0" style="stop-color:#536e78"/><stop offset=".3" style="stop-color:#99aebc"/><stop offset=".5" style="stop-color:#d9eaf3"/><stop offset=".7" style="stop-color:#99aebc"/><stop offset="1" style="stop-color:#536e78"/></linearGradient><path d="M548.751 329.71h-.04c-11.913 0-29.627-2.8-46.455-16.159-23.088-18.343-21.373-44.192-13.936-63.631-16.28-2.762-35.21-5.294-53.473-7.198l-5.882 16.668a17.39 17.39 0 0 1-16.389 11.644c-.348 0-.698 0-1.057-.04-19.618-1.137-31.541-12.541-32.857-13.827a17.48 17.48 0 0 1-4.127-18.143l3.35-9.43c-28.392-.54-105.072-6.032-187.625-45.678C96.334 138.786 32.941 85.433 1.948 25.35-1.76 18.223-.046 9.58 5.996 4.287A17.47 17.47 0 0 1 17.48 0c3.509 0 7.008 1.017 10.048 3.12.309.23 35.669 24.105 118.072 26.278 6.769.2 12.85 4.327 15.531 10.557 2.732 6.23 1.525 13.478-2.99 18.532l-.469.47c20.716 12.85 61.449 33.066 112.619 33.066 22.23 0 44.54-3.818 66.313-11.374a17.9 17.9 0 0 1 5.682-.937 17.37 17.37 0 0 1 10.477 3.509l60.75 45.517 3.35-9.46c2.492-6.968 9.072-11.644 16.469-11.644 20.635 0 33.057 13.01 34.422 14.525a17.4 17.4 0 0 1 3.43 17.834l-3.51 9.351c115.42 45.478 130.732 72.703 130.732 91.465 0 17.096-10.208 29.049-30.415 35.598 3.58 1.595 10.238 3.31 15.691 3.699 5.762.388 10.986 3.579 13.907 8.563 2.881 4.985 3.23 11.066.778 16.28-7.009 14.793-26.916 24.762-49.616 24.762"/><path d="M197.817 168.183c101.403 48.718 192.37 43.893 192.37 43.893l22.35-62.236-70.251-52.685c-119.706 41.51-210.712-35.12-210.712-35.12l13.557-15.153C54.943 44.469 17.44 17.324 17.44 17.324c25.55 49.495 79.013 102.181 180.377 150.859M125.194 76.4s56.653 56.663 155.644 64.648c0 0-21.224 9.3-49.296 9.3-33.954 0-77.927-13.627-106.348-73.948m171.614 62.544a275 275 0 0 0 43.923-17.834l32.708 31.651c-24.763-6.38-76.631-13.817-76.631-13.817m94.196 105.88s7.985 7.985 21.533 8.802l10.397-29.557s100.546 8.762 118.929 23.127c0 0-12.78 26.368-29.558-5.572 0 0-26.328 36.725.818 58.258 27.145 21.573 63.043 11.175 69.433-2.373 0 0-26.368-1.595-32.708-15.192-6.39-13.548.778-19.15 6.34-20.755 5.613-1.596 24.773-4.746 24.773-20.756 0-15.92-34.353-43.065-135.677-81.386l9.58-25.54s-8.024-8.802-21.572-8.802z" style="fill:url(#a);stroke-width:9.96888"/></svg>