<svg xmlns="http://www.w3.org/2000/svg" xml:space="preserve" width="990.449" height="649.572" style="clip-rule:evenodd;fill-rule:evenodd;stroke-linejoin:round;stroke-miterlimit:2" viewBox="0 0 990.449 649.572"><path d="M514.433 649.572h428s-372.19-71.892 40-243.892c-1.31.295 34.62-14.342-35.8-133l-118-218s-19-45-84-3l-172 94-87-145.68h-429s374.45 81.68-33 236.68c0 0-55.46 15 3.54 102l148 261s17 47 80 0l170-98z" style="fill:#fff"/><path d="M384.423 418.382s-136.21 61.099-184-43c-44.84-97.684 59.18-154.637 57-159 0 0 132-99 212 25l-89 54s-32 14-2 42l139 252s10 37 54 8l371-210s33-12 3-46l-136-249s-18-38-57-6l-144 79s-39.5 20.999-6 51.499c0 0 12.09 11.808 37.49-1.702 0 0 177.84-47.279 164.81 109.607-14.26 171.696-199.62 148.076-221.24 132.857 0 0-42.49-17.375-52.56-46.062l87.15-57.23s17.8-15.309-2.52-48.728L486.063 67.548s-19.56-52.374-74.46-5.049l-351.47 194.35s-42.28 11.358-8.84 52.374l139.46 254.295s15.14 32.813 56.16 0l140.08-82.662s27.76-13.251 20.82-26.502z"/><path d="M376.043 399.968s-152.61 54.64-163.24-75.182c0 0-5.9-81.805 102.1-114.713 81.8-24.922 110.77 20.86 110.77 20.86l-99.26 77.684zm247.25-151.505s152.61-54.64 163.24 75.182c0 0 5.9 81.805-102.1 114.713-81.8 24.922-110.77-20.86-110.77-20.86l99.26-77.684z"/></svg>