<svg xmlns="http://www.w3.org/2000/svg" width="600" height="429.723"><radialGradient id="a" cx="0" cy="0" r="1" fx="0" fy="0" gradientTransform="translate(299.905 241.385)scale(228.78478)" gradientUnits="userSpaceOnUse" spreadMethod="pad"><stop offset="0" style="stop-color:#bf99c3"/><stop offset=".7" style="stop-color:#7b5190"/><stop offset="1" style="stop-color:#612c75"/></radialGradient><path d="M525.924 131.85h-28.91c-.463-.215-16.535-8.057-16.535-8.057l-8.143-26.44-.172.086v-.043l-16.696 9.186c-.085.043-9.153 4.995-21.991 8.938-.333.086-.967.215-2.138.215-4.115 0-10.25-1.558-17.34-3.363-11.41-2.976-25.72-6.628-42.76-6.628-20.562 0-42.597 3.738-56.273 6.542-8.402-17.5-21.616-32.39-47.766-32.39-11.162 0-23.453 2.427-39.61 5.833a33 33 0 0 1-3.278.462c-5.2.376-9.69-1.053-13.558-3.61-14.181-9.82-20.058-35.464-20.187-35.797h-.043c-.034-.172-6.79-22.12-8.852-41.513-1.042-9.604-11.249-3.148-11.249-3.148-4.523 19.607-10.195 44.242-10.238 44.36h-.086l-7.757 33.702-16.287-14.02-8.939 37.817-10.614 3.782-1.139 3.395-10.743 3.814-.58 2.148a3364 3364 0 0 0-12.087 4.32s-2.267 9.486-2.482 10.367H71.508L0 406.518h237.57a35.8 35.8 0 0 0 4.91 6.585c10.249 11.045 27.578 16.62 51.46 16.62 35.293 0 51.322-11.205 58.542-20.939H600Z" style="fill:#fff"/><path d="M337.248 373.91s6.832 24.926-41.846 24.926c-48.722 0-40.793-27.192-40.793-27.192H49.645l60.142-233.627 5.662-2.02-59.175 231.661s47.003-9.99 70.38-13.43c23.421-3.48 129.094-19.939 174.42 20.81 0 0 30.544-15.813 95.09-15.813s114.408 11.29 144.994 7.885l-56.231-214.783 7.929 3.395 56.242 218.19zM120.402 130.927l6.295-2.267-52.546 222.422s65.31-14.643 118.608-13.977c53.287.634 81.919 16.244 81.919 16.244s-44.199-13.01-89.063-11.034c-44.854 1.923-91.234 10.82-121.777 17.953zm11.033-6.8 6.93-2.514-49.603 214.192s38.354-4.32 52.665-6.5c14.9-2.267 82.51-16.244 142.984 21.444 0 0-57.875-23.42-111.796-18.22-53.975 5.21-76.053 9.786-92.33 13.01zm17.254-17.5 11.625 9.646-41.76 198.883s23.13 1.01 54.77-5.5c31.016-6.372 83.262 7.22 118.511 40.33 0 0-53.588-40.202-128.964-29.125-29.201 4.243-65.675 7.767-65.675 7.767.043-.086 51.493-222.002 51.493-222.002m27.783-33.402s8.476 33.402 42.179 35.378c33.691 2.01 71.637-25.73 80.156 32.016l-2.31 203.835c0-1.3-6.09-5.253-6.929-5.962-6.339-4.953-13.128-9.444-20.1-13.516-20.693-12.204-43.942-22.948-68.2-24.677-14.139-1-28.116 1.181-41.921 3.91-19.972 3.857-32.735 2.89-32.735 2.89zm130.264 63.913.505-.129c.376-.086 34.701-8.853 63.998-8.853 14.225 0 26.44 3.148 37.183 5.877 12 3.105 22.368 5.748 31.64 2.89 6.543-2.009 13.182-4.609 18.715-6.962l60.85 217.931s-158.54-27.19-212.934 13.558zm171.143 9.443 56.479 216.588s-26.053 0-86.657-7.39c-60.604-7.339-127.407 4.576-127.407 4.576s59.465-28.91 206.683-6.253L468.22 142.046zm36.882 4.19-20.186-.117-11.249-4.996-1.085-3.782L467.63 135l-4.652-14.772s-10.152 5.662-24.892 10.196c-14.73 4.534-36.26-9.068-66.846-9.068-30.555 0-65.675 9.068-65.675 9.068-14.697-40.793-31.693-38.526-74.753-29.459-43.006 9.057-55.479-50.956-55.479-50.956l-13.59 58.885-16.416-14.138-4.985 21.143-11.42 3.985-1.054 3.363-10.281 3.696-.795 2.804-11.324 4.534-3.115 13.14H83.595L20.144 390.91h228.803s-1.719 23.204 45.026 23.204c46.712 0 48.98-20.939 48.98-20.939h236.731z" style="fill:#612c75"/><path d="m175.813 57-11.438 54.688-.719 3.124-4-3.468-12.437-10.688-.125.5 3.687 3.031 11.594 9.626 1.344 1.093-40.781 195.125-.407 1.97c7.392 0 26.403-.603 50.156-5.47 5.125-1.096 10.834-1.625 17-1.625 27.16 0 70.783 11.186 104.313 42.75l3.25 3-.125-.187c.954.91 1.773 1.698 2.25 2.156l1.625 1.563 2.469 2.343a64 64 0 0 0 5.125 5.281c5.35-2.462 3.04-1.852 16.219-6.75 11.71-4.157 41.2-12.338 93.156-12.843l-4.947-21.614-11.532 4.755c-.45 2.055-1.072 8.378 16.479 16.86 0 0 57.818-.036 103.187 7.093l-61.75-223.594c-4.276 2.062-10.458 4.73-20.406 7.75-2.3.752-4.81 1.125-7.625 1.125-6.543 0-13.727-1.852-22.031-4-11.002-2.804-23.408-6-38.094-6-29.76 0-64.499 8.851-64.875 8.937l-2.844.75-1-2.78c-9.948-27.526-20.14-32.75-35.375-32.75-9.314 0-21.13 2.333-35.656 5.405-3.19.623-6.305.97-9.281.97-22.454.042-35.648-17.974-42.781-33.25l.187.53c.019.086.16.59.25.906-1.32-3.523-2.797-8.737-4.062-16.312m-33.188 61.47-.219.061-.906 3.844-48.594 209.688h.344l.813-4.063c.042-.043.012-.163 48.562-209.53m-56.562 32.186-61.75 237.032h224.593l3.406.03-.187 3.407c0 .172-.167 4.681 4.281 9.344 4.534 4.78 14.733 10.468 37.563 10.468 42.683 0 45.75-17.963 45.75-18.125l.406-2.875H575.5L512.281 153.97l-16.531-.094.219 1.063 56.219 218.187 1.062 4.031H340.813c-.043 3.062-.786 7.4-4.063 11.72-6.672 8.733-20.585 13.187-41.406 13.187-20.015 0-33.516-4.492-40.188-13.344-3.738-5.039-4.347-10.332-4.219-13.813H45.47l1.031-4.062 56.75-220.188h-.906zM279.53 352.344l23 12.594-21.094-6.25c7.682 3.523 14.42 7.707 20.125 12.53a124 124 0 0 1 8.782-3.343l-2.688-2.03-1.875.343-2.312 1.718v-1.312l-5.5.97 5.5-2.689v-2.125l-2.313-1.75-17.969-7.28c-.043-.044-1.389-.538-3.656-1.376m55.688 9.062c-8.896 1.171-14.258 2.094-14.344 2.094l-7.719 1.375 2.219 1.344a218 218 0 0 1 19.844-4.813" style="fill:url(#a)"/><path d="m296.268 354.043 2.835-238.227m7.455 249.032.182-233.155" style="stroke:#612c75;stroke-width:6.5"/><path d="m299.2 107.678 7.557 3.008-.217 276.32-10.591-6.09z" style="fill:#fff"/></svg>