<svg xmlns="http://www.w3.org/2000/svg" width="89.579" height="35"><path d="M70.786 35 67.45 20.993 64.15 35H50.903l-2.101-13.248C47.404 30.335 41.514 35 31.868 35H0V0h31.868c3.651 0 10.71.847 14.572 6.855L45.354 0h13.091l.845 10.709L61.483 0H73.45l2.193 10.708L76.488 0h13.091L84.03 35Zm-38.918-9.098c1.403 0 5.041-1.506 5.041-8.386 0-6.906-3.638-8.418-5.04-8.418h-5.36v16.804z"/><g transform="translate(0 -7.5)"><path d="M14.245 41.023H1.476V8.977h12.77zm2.049-32.046v32.048h15.574c9.263 0 15.783-4.549 15.783-16.008 0-14.074-10.304-16.04-15.783-16.04zm8.739 25.9V15.123h6.835c1.681 0 6.516 1.599 6.516 9.894 0 8.303-4.835 9.86-6.517 9.86zm27.13 6.146h10.819l4.46-18.934 4.508 18.934h10.82l5.082-32.047h-10l-1.557 19.752-4.048-19.751h-9.559L58.639 28.73 57.081 8.977h-9.998z" style="fill:url(#a)"/><linearGradient id="a" x1="-3.258" x2="63.419" y1="-66.653" y2="-66.653" gradientTransform="rotate(-68.811 -2.89 45.56)scale(1.082 -1.2019)" gradientUnits="userSpaceOnUse"><stop offset="0" style="stop-color:#536e78"/><stop offset=".3" style="stop-color:#99aebc"/><stop offset=".5" style="stop-color:#d9eaf3"/><stop offset=".7" style="stop-color:#99aebc"/><stop offset="1" style="stop-color:#536e78"/></linearGradient></g></svg>