<?xml version="1.0" encoding="UTF-8"?><svg id="Layer_2" xmlns="http://www.w3.org/2000/svg" width="494.15989" height="378.82322" viewBox="0 0 494.15989 378.82322"><defs><style>.cls-1{fill:#fff;}</style></defs><g id="Layer_1_copy_2"><path d="M487.50834,231.32108c-1.77222-4.97565-7.83759-14.31628-8.5365-17.4635-3.71741-16.7395-.63934-29.35645-8.35144-47.64856-2.11426-5.01471-8.26752-12.97858-9.40417-16.59583-5.14014-16.35773-3.30493-34.31085-10.97058-53.02942C419.69041,21.9716,330.42417-12.44045,254.75199,4.05582c-44.34064,9.66614-81.74292,35.97113-105.49377,74.50629-7.13953-27.01575-24.22327-51.2066-50.13861-62.85229-5.80255-2.60748-16.7171-6.45007-22.85681-7.14319-10.12689-1.14319-22.15594.84534-32.5,0,11.52856,12.82928,20.66974,23.02094,25.28241,40.21759,4.77789,17.81268,1.38068,33.51257,3.83386,51.16614.71381,5.13629,2.32849,10.65967,3.88348,15.60663-25.77112,1.63379-49.22174,15.40887-65.97278,34.53662-2.06744,2.36084-9.53534,11.35059-10.51398,13.5152-2.11975,4.68842,8.56134,11.21198,12.17169,13.77313,28.11176,19.94226,66.09924,28.83557,99.30548,17.18518-2.17694,5.96222.18054,13.71643-1.23285,19.25684-1.16229,4.55627-7.698,13.87665-9.79102,20.20898-23.30444,70.50488,25.99408,109.98987,89.65729,120.4101,4.56622.74744,11.21613.22742,15.66931,1.33069,3.41339.84564,12.57965,7.02344,17.03339,8.96661,40.10413,17.4975,92.87103,18.69128,133.92145,3.57404,7.38361-2.71912,20.07526-11.20813,25.45935-12.54065,8.20746-2.03131,19.1767-1.59052,28.47925-3.52075,61.21747-12.70245,99.31116-57.0553,76.5592-120.93188ZM402.59446,180.40873c-17.04059,8.83435-35.78308,11.66205-54.83136,10.14789,2.03394-7.18317,43.20618-39.81464,45.91455-37.93298,2.51959,4.62231,11.46802,23.70764,8.91681,27.7851ZM241.76249,190.55662c-14.09271.88977-27.6842.17438-41.20886-4.28082-2.8927-.95288-14.492-5.30621-14.58862-7.97076-.12671-3.49341,6.83923-22.32343,9.3078-24.75128,1.12012-1.10156,1.06104-1.01392,2.52734-.59729,2.09406.59491,12.31122,8.26837,14.87732,10.1955,10.6665,8.01044,20.59363,17.18701,29.08502,27.40466ZM177.24967,66.55735C237.86393-2.94967,356.33817-2.10427,414.13944,70.20249c1.95935,2.45111,10.40948,9.79224,8.16595,13.35767-.92065,1.4632-15.15918,9.67255-17.87024,11.17883-40.3858,22.43817-89.95972,33.9187-136.00641,27.66168-35.823-4.8678-73.75494-18.3114-102.4248-40.32495-.09369-1.35193,9.52368-13.54364,11.24573-15.51837ZM430.73002,330.03385c-3.74481,1.57446-24.70605,9.19525-26.96716,7.52258,8.21234-10.79102,15.81726-23.00305,16.5047-36.98499-15.73663,30.30194-44.91083,48.18549-77.28925,56.71069-60.8244,16.01508-141.03021,2.38757-173.72028-56.71069-.6073,9.33685,3.88287,18.62439,8.33606,26.66388,1.42963,2.58099,5.5744,6.92395,6.15405,8.85107.45935,1.52704-.07977,1.62201-1.44263,1.45471-13.47021-1.65387-37.69287-13.13251-48.45905-21.55817-29.21765-22.86597-28.20496-63.26202-10.93671-93.28491,11.01721,3.12384,21.52258,7.65503,32.63708,10.58453,20.25995,5.34003,41.22681,7.86798,62.21094,7.28931l-12.98853,16.50116c-.16022.74274,1.02203.67059,1.47705.48224,2.64331-1.09406,7.96497-5.95856,11.21124-7.79388,43.80011-24.76312,107.0119-25.92743,151.3266-1.71613,2.06842,1.13007,15.2052,10.22485,15.97827,9.51154l-13.99939-16.98016c32.4248,1.14221,64.5033-5.72308,94.37592-17.82764,3.4306.66663,10.24493,20.65961,11.13477,24.8067,8.77716,40.90723-8.54047,66.92035-45.5437,82.47815Z"/><path class="cls-1" d="M217.75778,240.57188l-12.98853,16.50113c-.1602.74278,1.02204.67062,1.4771.48227,2.6433-1.09409,7.96494-5.95854,11.21122-7.79388,43.80011-24.7631,107.01187-25.92746,151.32659-1.71613,2.06839,1.13007,15.20522,10.22486,15.97828,9.51152l-13.99937-16.98015c32.42476,1.14223,64.50328-5.72307,94.3759-17.82761,3.43057.66659,10.24494,20.65956,11.13476,24.80668,8.77713,40.90724-8.5405,66.92037-45.54373,82.47813-3.74479,1.57447-24.70604,9.1953-26.96714,7.52261,8.21236-10.79103,15.81726-23.00303,16.5047-36.98499-15.73666,30.30196-44.91081,48.18548-77.28923,56.71071-60.82441,16.01505-141.03025,2.38757-173.7203-56.71069-.60729,9.33682,3.88292,18.6244,8.33607,26.66387,1.42963,2.58098,5.57439,6.92397,6.15406,8.85105.45934,1.52704-.07976,1.62204-1.4426,1.45471-13.47022-1.65384-37.6929-13.13252-48.45904-21.55817-29.21766-22.86594-28.20501-63.26199-10.93673-93.2849,11.0172,3.12387,21.52261,7.65501,32.6371,10.58453,20.25991,5.34003,41.22678,7.86801,62.21091,7.28933ZM177.2497,66.55734c-1.7221,1.97475-11.33942,14.16643-11.24576,15.51839,28.66986,22.01356,66.60179,35.45716,102.42481,40.32494,46.0467,6.25702,95.62063-5.22349,136.00639-27.66171,2.71111-1.50628,16.94959-9.71563,17.87028-11.17881,2.2435-3.56545-6.20659-10.90653-8.16598-13.35765C356.33818-2.10426,237.86394-2.94965,177.2497,66.55734ZM241.76251,190.55661c-14.09273.88976-27.68423.17441-41.20887-4.28083-2.89269-.9529-14.49202-5.30623-14.58866-7.97077-.1267-3.49336,6.83924-22.32341,9.30784-24.75125,1.12008-1.10159,1.061-1.01392,2.52735-.59732,2.09404.59493,12.31119,8.26839,14.87731,10.19551,10.6665,8.01042,20.5936,17.18699,29.08504,27.40466ZM347.76307,190.55661c19.04833,1.51415,37.79079-1.31352,54.83136-10.14789,2.55126-4.07742-6.39718-23.1628-8.9168-27.78508-2.70835-1.88165-43.88057,30.74979-45.91456,37.93297Z"/></g></svg>