<?xml version="1.0" encoding="UTF-8"?><svg id="Layer_2" xmlns="http://www.w3.org/2000/svg" width="494.1599" height="378.8232" xmlns:xlink="http://www.w3.org/1999/xlink" viewBox="0 0 494.1599 378.8232"><defs><style>.cls-1{fill:#fff;}.cls-2{fill:url(#radial-gradient);}.cls-3{fill:#85723e;}</style><radialGradient id="radial-gradient" cx="295.29892" cy="187.33774" fx="295.29892" fy="187.33774" r="224.35345" gradientTransform="translate(0 22.66044) scale(1 .87904)" gradientUnits="userSpaceOnUse"><stop offset="0" stop-color="#e1c47e"/><stop offset=".42989" stop-color="#dfc27c"/><stop offset=".58473" stop-color="#d8bc77"/><stop offset=".69512" stop-color="#ccb16f"/><stop offset=".78438" stop-color="#bba264"/><stop offset=".86079" stop-color="#a58f54"/><stop offset=".92729" stop-color="#8b7742"/><stop offset=".94" stop-color="#85723e"/></radialGradient></defs><g id="Layer_1_copy_3"><path class="cls-2" d="M217.75779,240.57186l-12.98853,16.50113c-.1602.74278,1.02204.67062,1.4771.48227,2.6433-1.09409,7.96494-5.95854,11.21122-7.79388,43.80011-24.7631,107.01187-25.92746,151.32659-1.71613,2.06839,1.13007,15.20522,10.22486,15.97828,9.51152l-13.99937-16.98015c32.42476,1.14223,64.50328-5.72307,94.3759-17.82761,3.43057.66659,10.24494,20.65956,11.13476,24.80668,8.77713,40.90724-8.5405,66.92037-45.54373,82.47813-3.74479,1.57447-24.70604,9.1953-26.96714,7.52261,8.21236-10.79103,15.81726-23.00303,16.5047-36.98499-15.73666,30.30196-44.91081,48.18548-77.28923,56.71071-60.82441,16.01505-141.03025,2.38757-173.7203-56.71069-.60729,9.33682,3.88292,18.6244,8.33607,26.66387,1.42963,2.58098,5.57439,6.92397,6.15406,8.85105.45934,1.52704-.07976,1.62204-1.4426,1.45471-13.47022-1.65384-37.6929-13.13252-48.45904-21.55817-29.21766-22.86594-28.20501-63.26199-10.93673-93.2849,11.0172,3.12387,21.52261,7.65501,32.6371,10.58453,20.25991,5.34003,41.22678,7.86801,62.21091,7.28933ZM177.24971,66.55732c-1.7221,1.97475-11.33942,14.16643-11.24576,15.51839,28.66986,22.01356,66.60179,35.45716,102.42481,40.32494,46.0467,6.25702,95.62063-5.22349,136.00639-27.66171,2.71111-1.50628,16.94959-9.71563,17.87028-11.17881,2.2435-3.56545-6.20659-10.90653-8.16598-13.35765C356.33819-2.10429,237.86395-2.94968,177.24971,66.55732Z"/><path class="cls-3" d="M223.5109,126.94105c16.57434,5.18896,32.59298,9.86047,50.75715,11.62031,54.63187,5.29303,113.06844-12.41188,158.00334-42.96417,7.48244,12.78125,9.88479,28.07786,12.32546,42.63537.85904,5.1238.49175,11.95387,1.63306,16.36694.93793,3.62663,5.04185,7.08861,6.72644,10.27356,6.63964,12.55314,10.86393,26.67869,9.67309,41.05975-19.07712,9.40292-42.2015,15.45459-63.50909,18.49133-12.41763,1.76975-37.09351,4.85125-48.79504,3.07996-4.6706-.707-13.3941-5.53641-18.90882-7.09119-24.98322-7.04361-51.59783-6.40043-76.42074.88663-5.81335,1.70658-13.08975,5.78607-18.67994,6.31995-8.04862.76866-22.62262-.34334-31.04329-1.06261-27.27104-2.32941-54.21977-9.78806-79.34593-20.14393l-.26941-1.33737c1.15092-12.50009,2.51445-23.74677,7.9301-35.18449,1.77255-3.74359,7.78352-10.67428,8.70955-13.25185,2.13575-5.94482,3.05272-22.29254,2.59702-28.63229-.09894-1.37641,7.40477-22.27969,8.76649-25.21465.89958-1.93889,1.12888-4.45577,2.63478-6.21516.98778-1.60203,1.09509-.64051,2.12646-.2019,5.51243,2.34427,13.66924,9.13189,19.65258,12.38002,15.74017,8.54473,28.65407,12.9316,45.43675,18.18579ZM342.18071,179.98433c-4.40574,5.13542-8.79788,10.66605-11.40401,17.04016.47297,2.17809,17.43263,4.40702,20.44423,4.58389,16.693.98037,44.15419-3.33687,58.23373-12.84993,2.58689-1.74788,3.89183-2.23125,4.35586-5.6383.621-4.55962-2.45602-16.28477-4.03531-21.06593-1.11095-3.36331-11.32641-23.96444-13.54454-24.49173-19.4148,11.921-39.12247,25.02208-54.04995,42.42185ZM232.06323,166.25923c-7.22178-6.4853-12.50999-11.82662-20.98396-17.50908-3.29515-2.20965-12.32413-8.54594-15.3587-9.66146-1.11384-.40945-2.07661-.88578-3.29704-.43085-5.18757,7.89734-10.78644,16.15793-13.70833,25.36115-2.247,7.0775-3.53208,14.38624-2.97014,21.84161,17.69042,11.91416,40.35672,16.95597,61.55968,15.74787,2.98585-.17013,21.27723-2.35345,21.43325-4.53407-2.32143-4.61255-5.06002-8.75098-8.16376-12.86576-5.62993-7.46386-11.99998-12.10238-18.511-17.94941ZM78.76754,25.57216c5.02653,11.54912,9.18741,23.78938,9.98487,36.50481,1.31585,20.98134-5.52559,38.75341,3.25069,59.74946,4.13011,9.88071,10.65238,16.96553,18.75958,23.73006-6.1481.27506-12.7366-3.30252-17.47587-7.01388-8.09677-6.34066-4.87023-9.00825-18.00869-7.95956-13.18023,1.05203-26.34755,7.41377-36.83029,15.16859-6.50418,4.8116-13.11692,10.80766-17.74414,17.32918.00422,2.28798,11.60182,8.54817,14.17996,9.86495,25.07292,12.80591,53.36629,15.87467,79.64681,4.38845,2.26055-6.07373,4.55747-12.29145,7.35537-18.14458,1.65725-3.46692,5.4075-7.18721,6.41166-10.58834,1.8644-6.31485,1.51538-15.50768,2.74174-22.25826,3.08195-16.96479,8.54069-22.66789,4.22801-40.78086-3.11946-13.10152-8.74135-25.01283-17.08034-35.41585-9.58409-11.95631-23.93541-22.68833-39.41936-24.57416Z"/><path d="M76.26281,8.56661c6.13972.6931,17.05424,4.5357,22.85679,7.14321,25.91536,11.64564,42.99908,35.83652,50.1386,62.85225C173.00906,40.02693,210.41136,13.72195,254.75203,4.05583c75.67215-16.49628,164.93842,17.91575,195.49363,92.52793,7.66564,18.71857,5.83046,36.67167,10.9706,53.0294,1.13666,3.61725,7.28991,11.58116,9.40415,16.59585,7.71211,18.29208,4.63403,30.90905,8.35144,47.64856.69892,3.14724,6.76426,12.48784,8.53652,17.46348,22.75191,63.87661-15.34177,108.22945-76.55923,120.93189-9.30252,1.93025-20.2718,1.48945-28.47926,3.52074-5.38405,1.33252-18.07574,9.82153-25.45936,12.54064-41.05037,15.1173-93.81729,13.92346-133.92143-3.574-4.45371-1.94316-13.61999-8.12101-17.03335-8.96665-4.45322-1.10326-11.10311-.58324-15.66937-1.33063-63.66319-10.42024-112.96172-49.90525-89.65728-120.41015,2.09306-6.33233,8.62877-15.65271,9.79107-20.20893,1.41338-5.54045-.9441-13.29466,1.23284-19.25688-33.20623,11.65042-71.19378,2.75708-99.30551-17.18516-3.61035-2.56115-14.29143-9.08473-12.1717-13.77311.97868-2.16464,8.44654-11.15441,10.514-13.51522,16.75103-19.12775,40.20163-32.90285,65.97278-34.53663-1.555-4.94695-3.1697-10.47035-3.88347-15.60666-2.45324-17.65354.94404-33.35344-3.83389-51.16611-4.61269-17.19666-13.75385-27.38832-25.28241-40.21759,10.34407.84536,22.3731-1.1432,32.5,0ZM414.13944,70.20249C356.33819-2.10429,237.86395-2.94968,177.24971,66.55732c-1.7221,1.97475-11.33942,14.16643-11.24576,15.51839,28.66986,22.01356,66.60179,35.45716,102.42481,40.32494,46.0467,6.25702,95.62063-5.22349,136.00639-27.66171,2.71111-1.50628,16.94959-9.71563,17.87028-11.17881,2.2435-3.56545-6.20659-10.90653-8.16598-13.35765ZM118.1869,50.14632c-9.58409-11.95631-23.93541-22.68833-39.41936-24.57416,5.02653,11.54912,9.18741,23.78938,9.98487,36.50481,1.31585,20.98134-5.52559,38.75341,3.25069,59.74946,4.13011,9.88071,10.65238,16.96553,18.75958,23.73006-6.1481.27506-12.7366-3.30252-17.47587-7.01388-8.09677-6.34066-4.87023-9.00825-18.00869-7.95956-13.18023,1.05203-26.34755,7.41377-36.83029,15.16859-6.50418,4.8116-13.11692,10.80766-17.74414,17.32918.00422,2.28798,11.60182,8.54817,14.17996,9.86495,25.07292,12.80591,53.36629,15.87467,79.64681,4.38845,2.26055-6.07373,4.55747-12.29145,7.35537-18.14458,1.65725-3.46692,5.4075-7.18721,6.41166-10.58834,1.8644-6.31485,1.51538-15.50768,2.74174-22.25826,3.08195-16.96479,8.54069-22.66789,4.22801-40.78086-3.11946-13.10152-8.74135-25.01283-17.08034-35.41585ZM223.5109,126.94105c-16.78268-5.25418-29.69658-9.64105-45.43675-18.18579-5.98334-3.24813-14.14015-10.03575-19.65258-12.38002-1.03137-.43861-1.13868-1.40013-2.12646.2019-1.5059,1.75939-1.73521,4.27627-2.63478,6.21516-1.36172,2.93496-8.86543,23.83824-8.76649,25.21465.45571,6.33976-.46126,22.68747-2.59702,28.63229-.92602,2.57756-6.93699,9.50825-8.70955,13.25185-5.41565,11.43772-6.77917,22.6844-7.9301,35.18449l.26941,1.33737c25.12616,10.35588,52.07489,17.81452,79.34593,20.14393,8.42067.71927,22.99468,1.83127,31.04329,1.06261,5.59019-.53387,12.86658-4.61337,18.67994-6.31995,24.82292-7.28706,51.43752-7.93024,76.42074-.88663,5.51471,1.55478,14.23821,6.38419,18.90882,7.09119,11.70152,1.77129,36.37741-1.31022,48.79504-3.07996,21.30759-3.03674,44.43197-9.08841,63.50909-18.49133,1.19085-14.38107-3.03344-28.50662-9.67309-41.05975-1.68459-3.18495-5.78851-6.64693-6.72644-10.27356-1.14132-4.41307-.77402-11.24314-1.63306-16.36694-2.44067-14.55751-4.84301-29.85412-12.32546-42.63537-44.9349,30.55229-103.37147,48.25719-158.00334,42.96417-18.16417-1.75984-34.18281-6.43136-50.75715-11.62031ZM217.75779,240.57186c-20.98413.57868-41.951-1.9493-62.21091-7.28933-11.11449-2.92952-21.6199-7.46066-32.6371-10.58453-17.26828,30.02291-18.28093,70.41896,10.93673,93.2849,10.76615,8.42566,34.98882,19.90433,48.45904,21.55817,1.36284.16733,1.90194.07233,1.4426-1.45471-.57967-1.92708-4.72443-6.27007-6.15406-8.85105-4.45315-8.03947-8.94336-17.32705-8.33607-26.66387,32.69005,59.09826,112.8959,72.72574,173.7203,56.71069,32.37842-8.52523,61.55258-26.40875,77.28923-56.71071-.68744,13.98197-8.29234,26.19396-16.5047,36.98499,2.2611,1.67269,23.22235-5.94814,26.96714-7.52261,37.00324-15.55776,54.32087-41.5709,45.54373-82.47813-.88981-4.14711-7.70419-24.14009-11.13476-24.80668-29.87262,12.10454-61.95114,18.96984-94.3759,17.82761l13.99937,16.98015c-.77306.71335-13.90989-8.38145-15.97828-9.51152-44.31472-24.21133-107.52648-23.04697-151.32659,1.71613-3.24628,1.83534-8.56792,6.6998-11.21122,7.79388-.45506.18835-1.6373.26051-1.4771-.48227l12.98853-16.50113ZM232.06323,166.25923c6.51103,5.84703,12.88107,10.48555,18.511,17.94941,3.10374,4.11478,5.84233,8.25321,8.16376,12.86576-.15602,2.18062-18.4474,4.36394-21.43325,4.53407-21.20296,1.2081-43.86926-3.83371-61.55968-15.74787-.56193-7.45537.72314-14.76411,2.97014-21.84161,2.92189-9.20321,8.52075-17.46381,13.70833-25.36115,1.22043-.45493,2.1832.02139,3.29704.43085,3.03457,1.11552,12.06355,7.4518,15.3587,9.66146,8.47397,5.68246,13.76218,11.02378,20.98396,17.50908ZM241.76253,190.55659c-8.49144-10.21767-18.41855-19.39423-29.08504-27.40466-2.56612-1.92713-12.78327-9.60058-14.87731-10.19551-1.46634-.4166-1.40726-.50427-2.52735.59732-2.4686,2.42784-9.43454,21.25789-9.30784,24.75125.09664,2.66454,11.69597,7.01787,14.58866,7.97077,13.52464,4.45524,27.11615,5.17059,41.20887,4.28083ZM342.18071,179.98433c14.92748-17.39977,34.63516-30.50085,54.04995-42.42185,2.21813.52729,12.43359,21.12842,13.54454,24.49173,1.57929,4.78117,4.65631,16.50631,4.03531,21.06593-.46402,3.40705-1.76896,3.89042-4.35586,5.6383-14.07954,9.51306-41.54073,13.8303-58.23373,12.84993-3.01159-.17687-19.97125-2.4058-20.44423-4.58389,2.60613-6.37411,6.99827-11.90474,11.40401-17.04016ZM393.67765,152.62362c-2.70835-1.88165-43.88057,30.74979-45.91456,37.93297,19.04833,1.51415,37.79079-1.31352,54.83136-10.14789,2.55126-4.07742-6.39718-23.1628-8.9168-27.78508Z"/><path class="cls-1" d="M241.76253,190.55659c-14.09273.88976-27.68423.17441-41.20887-4.28083-2.89269-.9529-14.49202-5.30623-14.58866-7.97077-.1267-3.49336,6.83924-22.32341,9.30784-24.75125,1.12008-1.10159,1.061-1.01392,2.52735-.59732,2.09404.59493,12.31119,8.26839,14.87731,10.19551,10.6665,8.01042,20.5936,17.18699,29.08504,27.40466ZM347.76309,190.55659c19.04833,1.51415,37.79079-1.31352,54.83136-10.14789,2.55126-4.07742-6.39718-23.1628-8.9168-27.78508-2.70835-1.88165-43.88057,30.74979-45.91456,37.93297Z"/></g></svg>