<?xml version="1.0" encoding="UTF-8"?><svg id="Layer_2" xmlns="http://www.w3.org/2000/svg" width="494.15991" height="378.82324" viewBox="0 0 494.15991 378.82324"><g id="Layer_2-2"><g id="Layer_1_copy"><path d="M76.26278,8.56661c6.13972.6931,17.05424,4.5357,22.85679,7.14321,25.91536,11.64564,42.99908,35.83652,50.1386,62.85225C173.00904,40.02693,210.41134,13.72195,254.752,4.05583c75.67216-16.49628,164.9384,17.91575,195.49364,92.52793,7.66565,18.71857,5.83047,36.67167,10.97061,53.0294,1.13666,3.61725,7.28992,11.58116,9.40414,16.59586,7.7121,18.29208,4.63403,30.90906,8.35144,47.64856.69891,3.14725,6.76425,12.48784,8.53653,17.46349,22.75192,63.8766-15.34177,108.22945-76.55923,120.9319-9.30252,1.93024-20.27179,1.48944-28.47925,3.52075-5.38406,1.33252-18.07574,9.82153-25.45935,12.54065-41.05035,15.11731-93.81729,13.92346-133.92143-3.57401-4.4537-1.94315-13.62-8.121-17.03336-8.96664-4.45322-1.10327-11.1031-.58325-15.66937-1.33063-63.66319-10.42023-112.96172-49.90524-89.65728-120.41016,2.09306-6.33234,8.62877-15.65271,9.79107-20.20892,1.41338-5.54045-.9441-13.29466,1.23284-19.25688-33.20623,11.65042-71.19378,2.75708-99.30551-17.18517-3.61035-2.56116-14.29143-9.08473-12.1717-13.77312.97868-2.16464,8.44654-11.1544,10.514-13.51521,16.75103-19.12775,40.20163-32.90285,65.97278-34.53663-1.555-4.94695-3.1697-10.47035-3.88347-15.60666-2.45324-17.65354.94404-33.35344-3.83389-51.16611-4.61269-17.19666-13.75385-27.38832-25.28241-40.21759,10.34407.84536,22.3731-1.1432,32.5,0l-.00002-.00003ZM414.13941,70.20249C356.33817-2.10429,237.86393-2.94968,177.24968,66.55732c-1.72211,1.97475-11.33942,14.16643-11.24576,15.51839,28.66986,22.01356,66.60179,35.45716,102.42482,40.32494,46.04669,6.25702,95.62064-5.22349,136.00641-27.66171,2.71112-1.50628,16.94958-9.71563,17.87027-11.17881,2.2435-3.56545-6.2066-10.90653-8.16599-13.35765l-.00003.00002ZM118.18687,50.14632c-9.58409-11.95631-23.93541-22.68833-39.41936-24.57416,5.02653,11.54912,9.18741,23.78938,9.98487,36.50481,1.31585,20.98134-5.52559,38.75341,3.25069,59.74946,4.13011,9.88071,10.65238,16.96553,18.75958,23.73006-6.1481.27505-12.7366-3.30252-17.47587-7.01389-8.09677-6.34067-4.87023-9.00826-18.00869-7.95956-13.18023,1.05203-26.34755,7.41377-36.83029,15.16859-6.50418,4.8116-13.11692,10.80766-17.74414,17.32918.00422,2.28798,11.60182,8.54817,14.17996,9.86494,25.07292,12.80591,53.36629,15.87466,79.64681,4.38844,2.26055-6.07373,4.55747-12.29144,7.35537-18.14458,1.65725-3.46692,5.4075-7.18721,6.41166-10.58833,1.8644-6.31485,1.51538-15.50768,2.74174-22.25826,3.08195-16.96479,8.5407-22.66789,4.22801-40.78086-3.11946-13.10152-8.74135-25.01283-17.08035-35.41584ZM223.51087,126.94104c-16.78268-5.25418-29.69658-9.64105-45.43675-18.18579-5.98334-3.24813-14.14015-10.03575-19.65257-12.38002-1.03137-.43861-1.13869-1.40013-2.12646.2019-1.50591,1.75939-1.73521,4.27627-2.63478,6.21516-1.36172,2.93496-8.86543,23.83824-8.76649,25.21465.4557,6.33977-.46126,22.68747-2.59702,28.63229-.92603,2.57756-6.937,9.50826-8.70955,13.25185-5.41565,11.43771-6.77917,22.6844-7.9301,35.18449l.26941,1.33737c25.12616,10.35588,52.07489,17.81451,79.34593,20.14394,8.42067.71927,22.99467,1.83127,31.04329,1.06261,5.59019-.53387,12.86658-4.61337,18.67993-6.31995,24.82291-7.28706,51.43753-7.93024,76.42075-.88663,5.51471,1.55478,14.23822,6.38419,18.90881,7.09119,11.70151,1.77129,36.37741-1.31023,48.79504-3.07996,21.30759-3.03674,44.43198-9.08841,63.50909-18.49133,1.19086-14.38107-3.03345-28.50662-9.6731-41.05975-1.6846-3.18495-5.78851-6.64693-6.72644-10.27356-1.14133-4.41307-.77402-11.24313-1.63306-16.36694-2.44067-14.55751-4.84302-29.85412-12.32547-42.63537-44.93491,30.55229-103.37146,48.25719-158.00336,42.96416-18.16418-1.75984-34.18282-6.43137-50.75714-11.62031h.00003ZM217.75777,240.57185c-20.98413.57867-41.951-1.9493-62.21091-7.28934-11.11449-2.92952-21.6199-7.46066-32.6371-10.58453-17.26828,30.0229-18.28093,70.41896,10.93674,93.2849,10.76614,8.42566,34.98882,19.90433,48.45905,21.55817,1.36284.16733,1.90195.07233,1.4426-1.45471-.57967-1.92709-4.72443-6.27008-6.15405-8.85104-4.45316-8.03946-8.94336-17.32706-8.33607-26.66388,32.69005,59.09827,112.89589,72.72574,173.72029,56.71069,32.37842-8.52524,61.55258-26.40875,77.28925-56.71069-.68744,13.98196-8.29233,26.19397-16.5047,36.98499,2.26111,1.6727,23.22235-5.94815,26.96713-7.52261,37.00323-15.55777,54.32086-41.57089,45.54373-82.47812-.8898-4.14711-7.70419-24.14009-11.13477-24.80669-29.87262,12.10454-61.95114,18.96983-94.37592,17.82761l13.99936,16.98015c-.77307.71335-13.90988-8.38145-15.97827-9.51152-44.31473-24.21133-107.52649-23.04697-151.32658,1.71613-3.24628,1.83534-8.56792,6.69981-11.21123,7.79387-.45506.18835-1.6373.2605-1.4771-.48227l12.98853-16.50113.00003.00005ZM232.06321,166.25923c6.51103,5.84703,12.88107,10.48555,18.511,17.94942,3.10374,4.11478,5.84233,8.2532,8.16377,12.86575-.15601,2.18062-18.4474,4.36394-21.43326,4.53407-21.20296,1.2081-43.86926-3.83371-61.55968-15.74786-.56194-7.45537.72314-14.76411,2.97014-21.84161,2.92189-9.20322,8.52075-17.46381,13.70833-25.36115,1.22043-.45493,2.1832.02139,3.29704.43085,3.03458,1.11552,12.06355,7.4518,15.3587,9.66145,8.47397,5.68246,13.76218,11.02377,20.98396,17.50908h-.00002ZM241.7625,190.55659c-8.49144-10.21767-18.41855-19.39423-29.08504-27.40466-2.56612-1.92712-12.78326-9.60059-14.8773-10.19551-1.46634-.4166-1.40726-.50427-2.52734.59732-2.4686,2.42784-9.43454,21.25789-9.30785,24.75125.09663,2.66454,11.69597,7.01787,14.58865,7.97076,13.52464,4.45525,27.11615,5.17059,41.20886,4.28082l.00002.00002ZM342.1807,179.98433c14.92749-17.39977,34.63516-30.50085,54.04996-42.42184,2.21814.52728,12.43359,21.12842,13.54453,24.49173,1.57928,4.78117,4.65631,16.5063,4.03531,21.06593-.46402,3.40704-1.76895,3.89043-4.35587,5.63831-14.07953,9.51306-41.54074,13.83031-58.23373,12.84993-3.0116-.17686-19.97125-2.40581-20.44424-4.58389,2.60614-6.37411,6.99826-11.90474,11.40402-17.04016h.00003ZM393.67762,152.62362c-2.70834-1.88165-43.88058,30.74979-45.91455,37.93297,19.04834,1.51414,37.7908-1.31352,54.83136-10.14789,2.55127-4.07742-6.39719-23.1628-8.91681-27.78508Z"/></g></g></svg>