<svg xmlns="http://www.w3.org/2000/svg" xml:space="preserve" style="fill-rule:evenodd;clip-rule:evenodd;stroke-linejoin:round;stroke-miterlimit:2" viewBox="0 0 1000 1000"><path d="M4832.33 0h1000v1000h-1000z" style="fill:none" transform="translate(-4832.333)"/><path d="M500.257 896.664s-4.004 7.977-20.458 14.958-27.424 28.991-27.922 70.34c0 0-103.711-63.215-99.224-172.056 0 0-41.384-9.618-97.727 39.245 0 0 7.479-62.326-3.99-99.722 0 0-9.472-15.955-9.971-29.418 0 0-6.482-26.924-3.49-37.395 0 0-31.243 2.493-99.223-41.385 0 0 34.733-26.925 33.735-38.891-.997-11.967 6.482-44.376 15.956-62.825 0 0-41.385-16.631-64.82-88.254 0 0 40.887-1.319 51.357-44.199 0 0-35.401-47.368-46.37-88.254 0 0-1.496-17.451 61.329-36.897 0 0-43.38-84.265-41.385-120.663 0 0 43.878-29.917 126.148-12.964 0 0-1.994-38.393 29.418-116.674 0 0 68.31 35.899 117.672 108.696 0 0 41.722-107.734 80.458-137.784 0 0 42.65 39.953 80.248 139.25 0 0 29.283-55.913 116.588-109.265 0 0 27.765 59.034 28.734 114.511 0 0 70.97-16.733 128.044 14.484 0 0-1.52 48.13-41.078 119.795 0 0 45.292 13.759 63.064 34.972 0 0-14.333 59.335-48.158 88.29 0 0 3.44 42.142 52.745 46.728 0 0-21.213 68.798-66.505 87.144 0 0 12.04 19.493 13.76 46.439 0 0-4.366 24.339 12.524 34.551l25.334 21.996s-55.938 40.493-98.453 40.493c0 0 1.394 11.152-5.575 39.03 0 0-10.455 28.575-10.455 37.636 0 0-14.636 53.665-2.09 91.301 0 0-71.09-52.969-99.665-39.03 0 0 13.939 94.684-97.574 171.115 0 0-5.351-62.218-35.476-73.679 0 0-4.557 1.647-17.505-11.619M608.535 336.61c141.94-73.741 74.526-259.789 74.526-259.789-112.712 78.899-120.9 212.241-120.9 212.241 28.346 20.203 46.374 47.548 46.374 47.548m-115.75 297.643s-20.95-1.209-40.288-13.296c0 0-77.353 108.376-70.907 194.592s49.957 109.987 49.957 109.987 12.087-28.202 41.497-43.914c0 0 12.49-4.029 19.74-29.813zm-306.386 1.227s29.02 21.15 65.417 17.215c0 0 9.398-69.351 135.779-105.749 0 0-17.522-14.756-18.611-82.632 0 0-133.4 20.166-158.976 99.847 0 0-7.378 18.199-5.41 36.889 0 0-1.968 28.036-18.2 34.43M630.61 391.236c176.16-58.621 191.595-209.693 191.595-209.693-49.467-21.986-103.431.332-103.431.332 2.998 127.248-101.933 172.386-101.933 172.386 16.989 29.98 13.769 36.975 13.769 36.975m10.174 55.411C797.36 462.975 843.868 327.9 843.868 327.9c-21.913-20.96-58.593-21.437-58.593-21.437-55.26 83.365-149.821 103.495-149.821 103.495 5.644 8.153 5.33 36.689 5.33 36.689M371.91 391.236s-3.22-6.995 13.769-36.975c0 0-104.931-45.138-101.932-172.386 0 0-53.965-22.318-103.432-.332 0 0 15.434 151.072 191.595 209.693m139.95 243.017v217.556c7.253 25.784 19.743 29.813 19.743 29.813 29.41 15.712 41.496 43.914 41.496 43.914s43.512-23.77 49.958-109.987c6.446-86.216-70.907-194.592-70.907-194.592-19.34 12.087-40.29 13.296-40.29 13.296m-53.94-355.611c42.782-15.666 87.973 0 87.973 0-3.615-25.909 16.269-74.114 16.269-74.114-7.833-92.793-60.445-155.459-60.445-155.459-51.406 59.653-61.873 156.062-61.873 156.062 12.653 12.653 18.076 73.511 18.076 73.511m-62.847 57.968s18.027-27.345 46.373-47.548c0 0-8.187-133.342-120.9-212.241 0 0-67.413 186.048 74.527 259.789m-31.2 110.037s-.313-28.536 5.33-36.689c0 0-94.561-20.13-149.82-103.495 0 0-36.68.477-58.593 21.437 0 0 46.507 135.075 203.083 118.747M287.278 794.53s33.279-21.804 78.038-11.971c0 0 5.427-85.121 70.838-172.29 0 0-32.492-23.469-38.05-45.272 0 0-109.445 29.071-122.698 83.794 0 0-15.818 29.071-1.71 82.511 0 0 12.2 11.086 13.582 63.228m530.76-159.05c-16.231-6.394-18.198-34.43-18.198-34.43 1.967-18.69-5.411-36.889-5.411-36.889-25.576-79.681-158.975-99.847-158.975-99.847-1.09 67.876-18.612 82.632-18.612 82.632 126.38 36.398 135.779 105.749 135.779 105.749 36.398 3.935 65.417-17.215 65.417-17.215M707.362 462.971c67.763 32.679 82.66 55.267 82.66 55.267 30.278-4.325 53.846-48.539 53.846-48.539-28.334-10.573-41.35-53.345-41.35-53.345-39.408 41.33-95.156 46.617-95.156 46.617M500.326 295.503c-62.251 0-112.792 70.044-112.792 156.318 0 86.273 50.54 156.317 112.792 156.317s112.792-70.044 112.792-156.317-50.54-156.318-112.792-156.318M297.25 462.971s-55.748-5.287-95.156-46.617c0 0-13.015 42.772-41.35 53.345 0 0 23.568 44.214 53.845 48.539 0 0 14.898-22.588 82.66-55.267M717.44 794.53c1.382-52.142 13.582-63.228 13.582-63.228 14.108-53.44-1.71-82.511-1.71-82.511-13.253-54.723-122.698-83.794-122.698-83.794-5.558 21.803-38.05 45.272-38.05 45.272 65.41 87.169 70.838 172.29 70.838 172.29 44.759-9.833 78.038 11.971 78.038 11.971"/><path d="M501.073 265.799c78.236 0 141.753 83.187 141.753 185.65S579.31 637.1 501.073 637.1s-141.754-83.187-141.754-185.65 63.518-185.651 141.754-185.651m-.743 29.704c-62.252 0-112.792 70.043-112.792 156.318 0 86.274 50.54 156.317 112.792 156.317 62.251 0 112.791-70.043 112.791-156.317 0-86.275-50.54-156.318-112.79-156.318"/></svg>