<svg xmlns="http://www.w3.org/2000/svg" xmlns:xlink="http://www.w3.org/1999/xlink" width="600" height="793.995"><linearGradient id="a" x1="297.214" x2="30.53" y1="167.553" y2="219.391" gradientTransform="matrix(-1 0 0 1 311.207 0)" gradientUnits="userSpaceOnUse"><stop offset="0" style="stop-color:#bf331c"/><stop offset=".3" style="stop-color:#d3641c"/><stop offset=".5" style="stop-color:#f6b91d"/><stop offset=".7" style="stop-color:#d3641c"/><stop offset="1" style="stop-color:#bf331c"/></linearGradient><linearGradient xlink:href="#a" id="b" x1="297.214" x2="30.53" y1="167.553" y2="219.391" gradientTransform="matrix(-1.99999 0 0 1.99999 622.41 0)" gradientUnits="userSpaceOnUse"/><path d="m541.996 153.08-13.5 46.48c-22.807-21.515-41-74.47-41-120.202 0-20.898 4.919-34.034 12.5-55.396 5.5-15.494-5.167-26.824-20.5-23.324-54.893 12.534-94.605 66.986-109.276 128.64-22.578 31.881-49.672 57.627-79.472 72.03-36.252 17.525-43.544 39.269-69.363 53.613v-.124c8.423-20.694 14.613-43.698 14.613-73.23 0-80.47-45.361-164.915-115.499-180.929-15.332-3.5-25.998 7.83-20.498 23.324C107.583 45.324 112.5 58.46 112.5 79.358c0 45.731-18.192 98.687-41 120.203L58 153.079C20.835 217.72 0 269.286 0 371.164c0 46.99 4.022 74.823 16.27 99.273 12.364 24.676 31.028 42.516 56.86 67.208 11.343 10.842 24.201 23.13 39.105 38.381 42.574 43.566 68.552 72.684 70.346 109.568.724 14.898-.56 29.468-1.692 42.323-1.994 22.648-3.57 40.542 9.21 54.49 6.846 7.474 16.238 11.588 26.444 11.588 8.84 0 17.285-3.654 23.335-10.1l71.328-75.987 71.327 75.987a32 32 0 0 0 23.336 10.1c10.204 0 19.598-4.112 26.45-11.582 12.868-14.022 11.364-31.37 9.29-55.388-1.098-12.68-2.34-27.047-1.762-41.721 1.144-28.988 24.098-66.782 70.164-115.54 26.171-27.693 49.14-53.087 65.2-83.443C592.631 453.381 600 416.789 600 371.164c-.004-101.878-20.836-153.445-58.004-218.085" style="fill:#fff"/><path d="M175.917 59.708c-14.288-17.848-31.76-31.632-49.198-38.812a9.997 9.997 0 0 0-12.016 3.54 10 10 0 0 0 .874 12.498c6.784 7.328 18.072 22.39 17.456 40.93-.618 18.558-3.042 37.541-7.016 54.905a10 10 0 0 0 1.928 8.46 10 10 0 0 0 7.818 3.766h65.092a9.998 9.998 0 0 0 9.734-12.282c-6.452-27.48-18.44-52.725-34.672-73.005M487.079 30.142a9.993 9.993 0 0 0-11.294-9.914 10 10 0 0 0-2.738.762c-17.364 7.206-34.75 20.948-48.976 38.72-16.232 20.278-28.22 45.524-34.67 73.005a9.998 9.998 0 0 0 9.734 12.282h65.092a9.998 9.998 0 0 0 9.746-12.226c-3.972-17.363-6.398-36.347-7.016-54.905-.614-18.428 10.536-33.418 17.33-40.796a9.96 9.96 0 0 0 2.792-6.928"/><path d="M417.373 263.053c47.332-6.166 67 23.821 67 39.65 0 16.491-15.626 20.81-36.75 10.911l41.25 61.726c0 58.477-32.684 102.31-67.974 102.31-20.648 0-35.872-4.493-41.4-23.007-3.72-12.456-4.781-25.734-5.875-39.07-2.344-28.575 16.835-51.561 56-69.471-20.843-3.902-38.967-11.092-51.75-24.74 10.125-18.744 25.375-38.362 41.875-54.856-11.126-1.25-36.25 6.498-51.5 14.87-10.967 6.02-18.75 8.746-31.207 11.83-5.168-5.998-5.564-19.604-1.002-30.821 9.752-23.978 20.708-43.958 20.5-70.804-13.7 13.822-25.736 23.694-33.832 27.82-36.588 18.65-54.166 34.488-67.65 52.351-32.523 20.286-55.291 57.24-83.621 104.73-8.562 14.354-8.062 34.514-1.994 47.933 9.22 20.394 23.6 47.222 59.805 52.512-10.175-7.104-17.913-19.726-17.375-33.778.43-11.2 7.094-18.594 25.667-17.826 15.622.646 26.666 10.84 26.666 29.322 0 23.82-21.708 36.52-50.333 36.986-47.554.776-103.5-44.068-103.5-116.291l41.25-61.726c-21.126 9.898-36.75 5.58-36.75-10.912 0-15.828 19.668-45.815 67-39.65 15.734-20.653 24.168-49.99 24.168-78.637 0-85.301-45.668-138.697-83.5-154.273 10.06 10.87 20.782 27.848 20.11 48.054-1.778 53.49-18.068 121.249-64.278 156.699-22.491 17.256-27.75 15.744-29.831 11.164-11.7 28.713-17.292 70.697-17.292 126.95 0 101.294 22.812 99.56 103.875 182.514 41.838 42.811 76.97 80.027 79.418 130.367 2 41.15-9.168 77.965 2 77.965l94.663-100.847 94.665 100.847c11.168 0 .376-36.8 2-77.965 1.616-40.89 30.542-85.088 78.876-136.241 51.125-54.104 82-90.84 82-176.637 0-56.254-6.345-98.236-18.043-126.951-2.082 4.58-7.342 6.092-29.831-11.164-46.208-35.452-62.5-103.21-64.278-156.7-.672-20.205 10.048-37.183 20.11-48.053-37.832 15.576-83.5 68.972-83.5 154.273 0 28.646 8.432 57.982 24.168 78.636" style="fill:url(#b)"/><path d="M417.373 263.053c47.332-6.166 67 23.821 67 39.65 0 16.491-15.626 20.81-36.75 10.911l41.25 61.726c0 58.477-32.684 102.31-67.974 102.31-20.648 0-35.872-4.493-41.4-23.007-3.72-12.456-4.781-25.734-5.875-39.07-2.344-28.575 16.835-51.561 56-69.471-20.843-3.902-38.967-11.092-51.75-24.74 10.125-18.744 25.375-38.362 41.875-54.856-11.126-1.25-36.25 6.498-51.5 14.87-10.967 6.02-18.75 8.746-31.207 11.83-5.168-5.998-5.564-19.604-1.002-30.821 9.752-23.978 20.708-43.958 20.5-70.804-13.7 13.822-25.736 23.694-33.832 27.82-36.588 18.65-54.166 34.488-67.65 52.351-32.523 20.286-55.291 57.24-83.621 104.73-8.562 14.354-8.062 34.514-1.994 47.933 9.22 20.394 23.6 47.222 59.805 52.512-10.175-7.104-17.913-19.726-17.375-33.778.43-11.2 7.094-18.594 25.667-17.826 15.622.646 26.666 10.84 26.666 29.322 0 23.82-21.708 36.52-50.333 36.986-47.554.776-103.5-44.068-103.5-116.291l41.25-61.726c-21.126 9.898-36.75 5.58-36.75-10.912 0-15.828 19.668-45.815 67-39.65 15.734-20.653 24.168-49.99 24.168-78.637 0-85.301-45.668-138.697-83.5-154.273 10.06 10.87 20.782 27.848 20.11 48.054-1.778 53.49-18.068 121.249-64.278 156.699-22.491 17.256-27.75 15.744-29.831 11.164-11.7 28.713-17.292 70.697-17.292 126.95 0 101.294 22.812 99.56 103.875 182.514 41.838 42.811 76.97 80.027 79.418 130.367 2 41.15-9.168 77.965 2 77.965l94.663-100.847 94.665 100.847c11.168 0 .376-36.8 2-77.965 1.616-40.89 30.542-85.088 78.876-136.241 51.125-54.104 82-90.84 82-176.637 0-56.254-6.345-98.236-18.043-126.951-2.082 4.58-7.342 6.092-29.831-11.164-46.208-35.452-62.5-103.21-64.278-156.7-.672-20.205 10.048-37.183 20.11-48.053-37.832 15.576-83.5 68.972-83.5 154.273 0 28.646 8.432 57.982 24.168 78.636z" style="fill:none;stroke:#000;stroke-width:15.9969"/><path d="M476.705 30.142c-10.06 10.87-20.782 27.848-20.11 48.054 1.778 53.49 18.068 121.249 64.278 156.699 13.967 10.716 21.29 14.196 25.331 14.196 2.464 0 3.71-1.294 4.5-3.032 11.7 28.713 18.042 70.697 18.042 126.95 0 85.798-30.876 122.536-82 176.638-48.335 51.153-77.26 95.351-78.875 136.24-1.626 41.166 9.168 77.966-2 77.966l-94.665-100.847-94.663 100.847c-11.168 0 0-36.816-2-77.965-2.448-50.34-37.58-87.554-79.418-130.367C54.064 472.567 31.25 474.303 31.25 373.008c0-56.254 5.594-98.236 17.292-126.951.79 1.736 2.034 3.032 4.5 3.032 4.042 0 11.364-3.478 25.331-14.196 46.208-35.452 62.5-103.21 64.278-156.7.672-20.205-10.048-37.183-20.11-48.053 37.832 15.576 83.5 68.972 83.5 154.273 0 28.648-8.434 57.984-24.168 78.638-4.31-.562-8.388-.822-12.246-.822-38.502 0-54.754 26.085-54.754 40.471 0 10.6 6.454 16.17 16.674 16.17 5.682 0 12.53-1.722 20.076-5.258l-41.25 61.726c0 71.61 54.996 116.299 102.284 116.299.404 0 .812-.004 1.216-.01 28.625-.466 50.333-13.166 50.333-36.986 0-18.482-11.044-28.676-26.666-29.322a60 60 0 0 0-2.574-.054c-16.62 0-22.683 7.214-23.093 17.88-.54 14.05 7.2 26.674 17.375 33.778-36.207-5.29-50.585-32.118-59.805-52.512-6.068-13.42-6.568-33.58 1.994-47.933 28.328-47.49 51.098-84.446 83.621-104.73 13.484-17.863 31.062-33.701 67.65-52.351 8.096-4.126 20.132-13.998 33.832-27.82.208 26.848-10.748 46.826-20.5 70.804-4.562 11.217-4.166 24.823 1.002 30.821 12.458-3.084 20.238-5.81 31.208-11.83 14.153-7.77 36.813-15.001 48.893-15.001.934 0 1.806.042 2.606.132-16.5 16.493-31.75 36.111-41.876 54.855 12.784 13.648 30.908 20.838 51.75 24.74-39.164 17.91-58.343 40.896-56 69.472 1.094 13.335 2.154 26.615 5.876 39.07 5.53 18.513 20.752 23.005 41.4 23.005 35.292 0 67.974-43.832 67.974-102.31l-41.25-61.725c7.546 3.538 14.394 5.258 20.076 5.258 10.22 0 16.674-5.57 16.674-16.17 0-14.388-16.246-40.471-54.754-40.471-3.856 0-7.94.262-12.246.822-15.734-20.654-24.168-49.99-24.168-78.638 0-85.297 45.668-138.693 83.5-154.269m-3.808-9.244c-22.586 9.3-44.682 29.33-60.62 54.954-19.02 30.578-29.072 68.117-29.072 108.563 0 26.992 6.814 53.208 18.968 73.878-13.358 2.934-28.65 8.781-38.737 14.32-7.198 3.95-12.79 6.367-20.444 8.64-.404-3.963.022-9.485 2.306-15.104 1.636-4.024 3.34-8.008 4.986-11.86 8.456-19.776 16.44-38.452 16.25-62.79l-.188-24.024-16.912 17.064c-12.742 12.856-24.14 22.316-31.272 25.95-33.178 16.912-53.606 32.586-69.972 53.774-34.895 22.52-59.41 63.62-85.343 107.095-11.09 18.586-9.078 42.666-2.518 57.173 6.35 14.046 18.428 40.762 47.842 52.958-20.05-1.356-41.142-11.654-57.24-28.132-19.056-19.506-29.834-46.057-30.528-75.037l39.53-59.152 19.938-29.832-32.492 15.224c-7.61 3.564-12.81 4.312-15.834 4.312-5.642 0-6.676-2.078-6.676-6.172 0-7.81 11.018-30.474 44.756-30.474 3.504 0 7.188.248 10.956.738l5.738.748 3.506-4.604c16.658-21.867 26.212-52.737 26.212-84.697 0-40.446-10.052-77.987-29.072-108.563-15.938-25.626-38.034-45.654-60.62-54.954L115.201 36.93c6.784 7.33 18.07 22.392 17.456 40.93-.822 24.744-7.606 108.617-60.371 149.099-8.586 6.586-13.646 9.602-16.452 10.982l-7.796-17.152-8.758 21.494c-12.132 29.781-18.032 72.541-18.032 130.72 0 43.252 4.12 68.326 14.692 89.428 10.652 21.266 27.258 37.136 52.391 61.162 11.47 10.964 24.472 23.39 39.638 38.912 38.186 39.075 74.254 75.983 76.582 123.865.796 16.398-.616 32.431-1.75 45.315-1.698 19.268-2.72 30.896 3.518 37.71 2.63 2.872 6.258 4.452 10.218 4.452h4.328l2.96-3.156 87.375-93.08 87.375 93.082 2.96 3.154h4.328c3.962 0 7.6-1.584 10.236-4.458 6.324-6.894 5.292-18.84 3.578-38.628-1.094-12.666-2.458-28.427-1.824-44.481 1.382-35.014 25.582-76.248 76.154-129.77 52.533-55.593 84.73-94.2 84.73-183.504 0-56.152-6.319-100.134-18.783-130.721l-8.758-21.494-7.796 17.152c-2.804-1.38-7.866-4.396-16.452-10.982-52.765-40.482-59.547-124.357-60.371-149.1-.616-18.54 10.672-33.601 17.456-40.929zm-44.744 251.344q.738-.014 1.464-.014c33.738 0 44.756 22.664 44.756 30.474 0 4.094-1.034 6.172-6.676 6.172-3.024 0-8.224-.748-15.834-4.312l-32.492-15.224 19.938 29.832 14.188 21.232-22.036-4.126c-17.71-3.314-31.208-8.842-40.998-16.816 9.242-15.42 21.944-31.476 36.352-45.88zm-7.256 195.411c-22.55 0-28.894-6.072-31.82-15.87-3.382-11.324-4.39-23.608-5.458-36.61l-.034-.415c-1.948-23.744 14.47-43.228 50.194-59.564l22.674-10.37 22.388 33.504c-.502 24.556-7.19 47.337-18.958 64.425-10.898 15.824-25.106 24.9-38.986 24.9m-190.18 11.81 4.253-10.734c-8.326-5.812-13.47-15.704-13.107-25.198.148-3.874.318-8.266 13.103-8.266q1.048 0 2.162.046c11.174.46 17.08 7.146 17.08 19.332 0 15.264-12.094 21.93-23.492 24.82"/><path d="M233.412 468.848c3.845 2.801 8.57 5.272 13.604 7.627l-20.88 9.303z" style="stroke:#000;stroke-width:1.99999px"/></svg>