<svg xmlns="http://www.w3.org/2000/svg" width="537.502" height="733.713"><path d="M455.503 519.507c51.126-54.106 82-90.84 82-176.64 0-56.253-6.345-98.237-18.042-126.95-2.082 4.58-7.342 6.092-29.832-11.164-46.208-35.452-62.5-103.21-64.278-156.7C424.68 27.849 435.4 10.869 445.461 0c-37.832 15.576-83.5 68.972-83.5 154.273 0 28.65 8.435 57.984 24.168 78.635 47.332-6.163 67 23.824 67 39.652 0 16.492-15.5 25.488-36.75 16.908l41.25 51.73c0 58.477-32.684 106.309-67.974 106.309-20.647 0-35.871-4.494-41.4-23.006-3.72-12.458-4.781-25.734-5.875-39.072-2.344-28.573 16.836-51.56 56-69.471-20.843-3.9-38.966-11.09-51.75-24.74 10.126-18.742 25.376-38.362 41.875-54.854-11.126-1.25-36.25 6.496-51.5 14.87-10.967 6.022-18.75 8.746-31.207 11.828-5.168-5.996-5.564-19.602-1.002-30.82 9.752-23.977 22-46.15 20.5-70.805-13.7 13.822-25.656 23.858-33.832 27.822-36.954 17.914-54.166 34.486-67.65 52.351-32.525 20.286-55.291 57.24-83.62 104.73-8.563 14.352-8.063 34.511-1.995 47.933 9.222 20.392 23.598 47.222 59.806 52.51-10.176-7.102-17.914-19.724-17.376-33.778.43-11.198 7.094-18.592 25.666-17.824 15.622.646 26.665 10.84 26.665 29.322 0 23.82-21.707 36.52-50.333 36.984-47.554.776-103.5-48.066-103.5-120.29l41.25-51.729c-21.25 8.58-36.75-.416-36.75-16.908 0-15.828 19.666-45.815 67-39.652 15.734-20.651 24.166-49.985 24.166-78.635 0-85.301-45.666-138.697-83.5-154.273 10.062 10.87 20.782 27.848 20.11 48.054-1.778 53.49-18.068 121.247-64.277 156.699-22.492 17.256-27.75 15.744-29.834 11.164C5.592 244.628 0 286.614 0 342.867c0 101.294 22.812 99.56 103.875 182.511 41.838 42.814 76.97 80.03 79.416 130.37 2 41.15-9.166 77.965 2 77.965l94.665-100.847 94.666 100.847c11.167 0 .376-36.8 2-77.965 1.62-40.89 30.545-85.088 78.881-136.241"/></svg>