<?xml version="1.0" encoding="UTF-8"?><svg id="Layer_2" xmlns="http://www.w3.org/2000/svg" width="257.40997" height="199.73999" viewBox="0 0 257.40997 199.73999"><defs><style>.cls-1{fill:#fff;}</style></defs><g id="Layer_3_copy_4"><path class="cls-1" d="M256.90002,51.5l-9.01001-.22003c-.27002-.00995-.48004-.21997-.5-.47998-1.35004-20.58002-16.63-35.15002-28.35004-50.59998-.09998-.13-.25-.20001-.40997-.20001l-89.92999.14001-89.91998-.14001c-.16003,0-.31006.07001-.41003.20001C26.65002,15.64996,11.37,30.21997,10.02002,50.79999c-.02002.26001-.23999.47003-.5.47998l-9.02002.22003c-.28003.01001-.5.23999-.5.52002v26.22998c0,.27997.21997.51001.51001.51001,1.63.01001,6.77997.03998,9.08002.07001.25.00995.45996.19.5.44.95996,6.56995,12.46997,85.51996,13.13995,90.13995.02002.13-.01996.27002-.09998.38-7.25,9.23004-10.47998,18.89001-14.78998,29.90002,0,0,28.37.01001,30.10999.04999.06,0,.10999-.01001.16998-.02002,3.34003-1,7.54999-15.73999,13.40002-16.98999.04999-.01001.07996-.01001.13-.01001,1.64996.01001,36.73999.26001,73.31.53003,0,0,2.15997.02997,3.23999.02002,1.08002.00995,3.23999-.02002,3.23999-.02002,36.57001-.27002,71.65997-.52002,73.32001-.53003.03998,0,.08002,0,.12.01001,5.85999,1.25,10.06,15.98999,13.40002,16.98999.06.01001.10999.02002.16998.02002,1.73999-.03998,30.13-.06,30.13-.06-4.31-11-7.56-20.65997-14.79999-29.89001-.09003-.10999-.13-.25-.11005-.38.67004-4.62,12.19-83.57001,13.14001-90.13995.03998-.25.25-.43005.51001-.44,2.29999-.03003,7.44-.06,9.08002-.07001.27997,0,.50995-.23004.50995-.51001v-26.22998c0-.28003-.22998-.51001-.50995-.52002ZM173.03998,8.14001h34.63c.15002,0,.29999.07996.40002.19995,9.46997,12.01001,19.79999,26.59003,21.66998,42.40002.04004.29999-.20996.58002-.52002.58002h-41.60999c-.26001,0-.47998-.20001-.51001-.46002-1.56-14.51001-6.75-29.58997-14.5-41.92999-.21997-.34003.03003-.78998.44-.78998ZM131.94,8.08002c0-.30005.25-.53003.53998-.52002,5.52002.33002,26.91003.32001,29.90002.31.21002,0,.39001.13.46997.33002,1.29004,3.44,12.41003,33.19,12.98004,42.57996.01996.30005-.22003.54004-.52002.54004h-42.84998c-.28003,0-.52002-.23004-.52002-.52002V8.08002ZM95.03003,7.87c2.97998.01001,24.37.02002,29.88995-.31.29999-.01001.54004.21997.54004.52002v42.71997c0,.28998-.23004.52002-.52002.52002h-42.84998c-.30005,0-.54004-.23999-.52002-.54004.58002-9.38995,11.69-39.13995,12.98999-42.57996.07001-.20001.26001-.33002.47003-.33002ZM49.33002,8.33997c.09998-.12.25-.19995.40997-.19995h34.63c.41003,0,.65002.44995.42999.78998-7.73999,12.34003-12.94,27.41998-14.5,41.92999-.01996.26001-.23999.46002-.51001.46002H28.19c-.32001,0-.56-.28003-.53003-.58002,1.87006-15.81,12.21002-30.39001,21.67004-42.40002ZM27.59998,80.02002c-.00995-.29004-.29029-1.75008-.00031-1.76009l54.68036-.63993c.32996-.01001.60602.28339.52997.59998-.64828,2.69867-3.88519,12.50705-5.15089,19.09552-.83528,4.34799-2.38908,19.88452-2.38908,19.88452,0,.26996-.20001.47998-.46002.51996-1.84003.23999-2.14001-1-3.26001-2.07001-9.84998-9.38995-14.08002-15.07996-27.16998-21.63995-8.16998-4.09003-16.19-2.28003-16.78003-13.98999ZM88.44,170.17999h-43.47003c-.25,0-.45996-.17999-.50995-.42999l-11.63-68.47998c-.08002-.44.39996-.76001.77997-.52002,6.40002,4.02997,13.58002,6.20996,19.98999,10.33997,21.21002,13.71002,30.69,34.37,35.36005,58.47003.06.32001-.19.62-.52002.62ZM163.76328,163.02381c-.78985,3.86726-2,7.88889-2,7.88889l-65.66667-.73271s-.15661-3.59003-1.70659-7.22003c-.73999-1.72998-2.31-8.85999-2.40002-14.91998-.01001-.42999.5-.66998.84003-.40997,8.57001,6.65997,10.96997,7.56,14.48999,8.45996,7.10999,1.84003,12.96002,2.94,18.46002,3.31,0,0,1.93994.15002,2.91998.13.97998.02002,2.91998-.13,2.91998-.13,5.5-.37,11.35999-1.46997,18.46002-3.31,3.51996-.89996,5.92999-1.79999,14.48999-8.45996.34998-.26001.84998-.02002.84998.40997-.08997,6.06-1.26824,13.08182-1.65671,14.98384ZM128.70001,146.95001c-49.81-1.01001-51.06-74.20001-6.04999-80.29004,1.98999-.26996,3.92999-.41998,5.81995-.45001h.47003c1.88.03003,3.82001.18005,5.82001.45001,45.01001,6.09003,43.75,79.28003-6.06,80.29004ZM212.94,169.75c-.03998.25-.26001.42999-.51001.42999h-43.46997c-.33002,0-.57001-.29999-.51001-.62,4.66998-24.10004,14.14001-44.76001,35.34998-58.47003,6.41003-4.13,13.60004-6.31,19.98999-10.33997.38-.23999.86005.08002.79004.52002l-11.64001,68.47998ZM213.02002,94.01001c-13.08002,6.56-17.31,12.25-27.17004,21.63995-1.12,1.07001-1.41998,2.31-3.25,2.07001-.26996-.03998-.46997-.25-.46997-.51996l-2.19312-17.57898c-.48875-2.9932-4.72687-18.09107-5.34686-21.40107-.06-.32001.19995-.60999.52997-.59998l54.62422-.00025c.29004.01001.07579,2.11024.05577,2.40028-.58997,11.70996-8.60999,9.89996-16.77997,13.98999Z"/><path d="M229.73999,50.73999c.04004.29999-.20996.58002-.52002.58002h-41.60999c-.26001,0-.47998-.20001-.51001-.46002-1.56-14.51001-6.75-29.58997-14.5-41.92999-.21997-.34003.03003-.78998.44-.78998h34.63c.15002,0,.29999.07996.40002.19995,9.46997,12.01001,19.79999,26.59003,21.66998,42.40002ZM229.74421,77.61974l-54.62422.00025c-.33002-.01001-.58997.27997-.52997.59998.62,3.31,4.91062,18.74164,5.37792,21.65002l2.16206,17.33002c0,.26996.20001.47998.46997.51996,1.83002.23999,2.13-1,3.25-2.07001,9.86005-9.38995,14.09003-15.07996,27.17004-21.63995,8.16998-4.09003,16.19-2.28003,16.77997-13.98999.02002-.29004.23427-2.39027-.05577-2.40028ZM223.78998,100.75c-6.38995,4.02997-13.57996,6.20996-19.98999,10.33997-21.20996,13.71002-30.67999,34.37-35.34998,58.47003-.06.32001.17999.62.51001.62h43.46997c.25,0,.47003-.17999.51001-.42999l11.64001-68.47998c.07001-.44-.41003-.76001-.79004-.52002ZM164.57001,147.63c-8.56,6.65997-10.97003,7.56-14.48999,8.45996-7.10004,1.84003-12.96002,2.94-18.46002,3.31,0,0-1.94.15002-2.91998.13-.98004.02002-2.91998-.13-2.91998-.13-5.5-.37-11.35004-1.46997-18.46002-3.31-3.52002-.89996-5.91998-1.79999-14.48999-8.45996-.34003-.26001-.85004-.02002-.84003.40997.09003,6.06,1.90622,13.10434,2.40002,14.91998.98437,3.61941,1.73437,7.48052,1.73437,7.48052l65.63889.47222s1.01773-4.06597,2-7.88889c.51069-1.98755,1.56674-8.92384,1.65671-14.98384,0-.42999-.5-.66998-.84998-.40997ZM162.84998,8.20001c-.07996-.20001-.25995-.33002-.46997-.33002-2.98999.01001-24.38.02002-29.90002-.31-.28998-.01001-.53998.21997-.53998.52002v42.71997c0,.28998.23999.52002.52002.52002h42.84998c.29999,0,.53998-.23999.52002-.54004-.57001-9.38995-11.69-39.13995-12.98004-42.57996ZM134.76001,66.65997c-2-.26996-3.94-.41998-5.82001-.45001h-.47003c-1.88995.03003-3.82996.18005-5.81995.45001-45.01001,6.09003-43.76001,79.28003,6.04999,80.29004,49.81-1.01001,51.07001-74.20001,6.06-80.29004ZM124.91998,7.56c-5.51996.33002-26.90997.32001-29.88995.31-.21002,0-.40002.13-.47003.33002-1.29999,3.44-12.40997,33.19-12.98999,42.57996-.02002.30005.21997.54004.52002.54004h42.84998c.28998,0,.52002-.23004.52002-.52002V8.08002c0-.30005-.24005-.53003-.54004-.52002ZM84.37,8.14001h-34.63c-.15997,0-.31.07996-.40997.19995-9.46002,12.01001-19.79999,26.59003-21.67004,42.40002-.02997.29999.21002.58002.53003.58002h41.59998c.27002,0,.49005-.20001.51001-.46002,1.56-14.51001,6.76001-29.58997,14.5-41.92999.22003-.34003-.01996-.78998-.42999-.78998ZM82.28003,77.62l-54.68036.63993c-.28998.01001-.00964,1.47006.00031,1.76009.59003,11.70996,8.61005,9.89996,16.78003,13.98999,13.08997,6.56,17.32001,12.25,27.16998,21.63995,1.12,1.07001,1.41998,2.31,3.26001,2.07001.26001-.03998.46002-.25.46002-.51996l2.07779-17.99238c0-2.91998,4.8422-17.67766,5.46219-20.98766.06-.32001-.20001-.60999-.52997-.59998ZM53.59998,111.08997c-6.40997-4.13-13.58997-6.31-19.98999-10.33997-.38-.23999-.85999.08002-.77997.52002l11.63,68.47998c.04999.25.25995.42999.50995.42999h43.47003c.33002,0,.58002-.29999.52002-.62-4.67004-24.10004-14.15002-44.76001-35.36005-58.47003Z"/></g></svg>