<?xml version="1.0" encoding="UTF-8" standalone="no"?>
<svg
   viewBox="0 0 1023.3079 715.97199"
   version="1.1"
   width="1023.308"
   height="715.97198"
   id="svg1"
   xmlns="http://www.w3.org/2000/svg"
   xmlns:svg="http://www.w3.org/2000/svg">
  <defs
     id="defs1" />
  <path
     d="m 704.69201,420.244 c 0,106.838 -86.61,193.446 -193.448,193.446 -106.836,0 -193.446,-86.608 -193.446,-193.446 0,-106.836 86.61,-193.446 193.446,-193.446 106.838,0 193.448,86.61 193.448,193.446 z m 67.506,112.306 -12.186,182.906 H 970.51797 L 1009.074,379.372 C 900.42401,405.388 841.00601,469.06 772.20201,532.546 Z m -527.846,-89.146 C 172.30001,389.174 86.726012,333.194 3.976,297.034 L 0,262.374 286.70001,258.41 c -20.53941,27.70721 -31.9748,54.02756 -37.87206,82.9092 -6.09336,29.84204 -6.27415,62.41856 -4.47594,102.0848 z m 5.936,89.146 12.184,182.906 H 51.976002 L 13.42,379.372 c 108.65001,26.016 168.06801,89.688 236.87201,153.174 z m 129.262,103.376 h -50.906 v 80.046 h 364.658 v -80.046 h -50.904 c -35.666,27.776 -81.47,44.47 -131.424,44.47 -49.954,0 -95.758,-16.694 -131.424,-44.47 z m 399.406,-192.944 c 72.052,-54.232 157.626,-110.212 240.37599,-146.37 l 3.976,-34.662 -286.69999,-3.964 c 19.63976,26.49359 30.95556,52.07316 37.06496,79.69105 6.88168,31.10897 7.15751,64.80415 5.28304,105.30495 z m -7.61,-442.938 c 21.74,56.472 35.072,116.88 35.008,177.532 L 1011.946,177.588 892.93401,0.052 Z m -236.866,-0.016 c 3.284,36.892 4.214,73.968002 4.37,110.988 -0.092,22.188 -0.37,44.384 -1.53,66.546 l 199.288,0.01 c -0.318,-37.182 -5.398,-71.438 -15.664,-107.245998 C 713.84201,46.404 706.12601,22.574 695.28201,0.038 Z m -222.258,-0.016 c -10.868,22.496 -18.71,46.376 -25.676,70.314002 -9.4,34.965998 -16.268,70.865998 -15.666,107.221998 l 189.004,0.01 c -1.13,-22.16 -1.486,-44.356 -1.53,-66.542 0.152,-37.031998 1.154,-74.088 4.37,-110.994 z M 121.04401,0 2.032,177.534 l 199.10401,0.01 c 0.176,-60.712 13.214,-120.978 35.022,-177.536 z"
     id="path1" />
</svg>
