<svg xmlns="http://www.w3.org/2000/svg" width="482.689" height="246" viewBox="6.155 141.5 482.689 246"><g><path d="M40.997 141.73h416.791c40.858 61.515 40.858 181.653 0 243.54H40.997c-38.218-61.124-42.858-177.186 0-243.54"/><linearGradient id="a" x1="217.28" x2="639.844" y1="-565.933" y2="-321.965" gradientTransform="matrix(1 0 0 -1 -181.1 -179.49)" gradientUnits="userSpaceOnUse"><stop offset="0" style="stop-color:#bf331c"/><stop offset=".5" style="stop-color:#f6b91d"/><stop offset="1" style="stop-color:#bf331c"/></linearGradient><path fill="url(#a)" d="M457.891 141.5h-421c-43.291 67.025-38.604 184.26 0 246h421c41.271-62.514 41.271-183.863 0-246m-11.165 232H47.098c-34.99-52.865-36.26-163.839 0-218h399.625c36.225 52.853 36.226 165.146.003 218m-7.835-196c-12.573 0-25.875-.025-43.899-.025-94.021 5.197-161.514 39.628-216.951 72.362 25.667-.333 63.009-4.136 63.3-1.608s-39.721 13.041-67.387 21.375c22.066 14.277 61.921 40.598 60.549 43.053s-56.864-21.979-76.571-29.165c7.856 19.419 29.096 61.649 26.902 62.639-2.194.987-26.744-30.874-46.827-52.924-14.964 23.348-37.833 60.827-39.914 60.122s10.735-42.26 18.181-66.635c-25.2 6.453-70.298 27.609-71.809 25.242s42.896-31.483 63.263-45.537c-19.069-11.907-63.501-33.454-62.903-35.805.599-2.352 47.063 11.892 71.449 17.647-5.563-20.033-23.1-60.509-21.06-61.557s26.978 36.349 41.354 53.012c12.881-19.908 30.464-59.172 32.993-58.527s-6.785 42.138-8.729 53.834c36.793-24.924 95.355-51.097 168.151-65.501H53.891c-24.91 49.924-26.221 140.518 0 190h385c23.182-45.643 26.182-134.551 0-182.002m-102.953 159h-71.463v-4c4.683 0 24.139-5.982 24.139-17.238V224.5h-23.896v-4c14.019 0 27.37-7.052 46.174-23.242h5.333c0 22.681.024 83.165.024 118.003 0 9.698 13.271 17.238 19.688 17.238z" style="fill:url(#a)"/></g><path d="M345.389 243.631v-46.214h89.938l.19.671-44.968 136.821q-19.178 0-31.833 4.89l-.383-.574 56.378-121.193h-40.078q-21.095 0-28.477 25.6z"/></svg>