<svg xmlns="http://www.w3.org/2000/svg" xml:space="preserve" width="390.268" height="326.785" style="clip-rule:evenodd;fill-rule:evenodd;stroke-linejoin:round;stroke-miterlimit:2" viewBox="0 0 390.268 326.785"><path d="m346.34 79.821 22.5 161.25 21.428 20.223c-6.708 23.069-15.246 30.681-38.571 36.027l-11.92 29.33-19.286-24.776c-23.349-3.368-36.854-5.174-47.009-24.375l8.17-14.197c-52.214 5.203-74.534 2.334-79.665-18.988-.877-4.605-1.786-11.515-1.786-11.515-27.121-2.868-50.477.505-76.183 6.932l-.067 4.018 20.96 17.41c-5.914 23.92-17.882 30.037-39.643 37.233l-10.714 28.392-18.75-25.178c-24.993.271-34.406-3.674-48.08-24.107l15.267-23.438L20.224 91.205 0 73.928c3.325-27.171 13.492-35.591 35.247-37.719L47.947 0l22.941 31.326c23.008-.911 32.834 1.285 43.422 25.492 20.516-6.05 61.422-10.968 87.119-.97 9.456 2.906 11.8 20.712 13.929 32.411 15.101-.142 28.735-.479 43.124-2.947l-14.039-12.331c4.53-25.697 12.911-33.41 35.223-36.83L292.579.473l23.509 31.326c22.06-2.544 31.347-.336 44.004 25.411z" style="fill-rule:nonzero"/><path d="M9.361 70.115c5.831-19.877 12.033-23.966 32.956-25.191l8.902-24.054 13.826 19.698c21.566-.701 30.035-4.003 38.639 16.478-.5 1.35-1.476 3.287-2.841 4.356-9.242 2.666-43.745 22.621-40.632 27.217 1.078 1.077 2.166 1.315 3.518.692 20.562-15.069 47.206-22.659 69.88-27.151 10.476-1.24 45.959-5.174 64.208 2.841 4.176 3.882 4.537 8.67 5.983 13.316 4.781 15.364 7.675 39.479 8.696 47.482.459.388 1.341.483 1.799.095 1.922-5.835-1.154-17.146 2.191-24.707.751-1.699 2.086-3.33 3.777-4.099 31.798.373 53.07-2.167 75.76-14.899 1.303-.785 3.057-1.343 3.646-2.746.234-.558.137-1.324-.237-1.8-.324-.412-.947-.507-1.468-.568-11.186 2.589-17.3 3.652-27.605 5.54l-15.91-12.69c6.792-22.214 11.108-22.36 32.767-25.001l9.091-24.054 13.827 20.266c21.594-.596 28.271-4.862 38.827 15.72L335.324 78.07l24.623 171.031 18.94 15.72c-5.171 17.001-18.957 20.225-35.418 25.002l-6.819 17.425-10.985-14.395c-21.449-.573-28.465 1.471-41.48-15.341l10.607-16.857c7.799-4.631 22.491-12.249 24.649-16.079.266-.693.315-1.606-.095-2.226-2.515-2.26-6.126 1.047-8.332 2.507-15.763 8.468-27.59 10.125-50.504 12.01-11.57.827-41.855 3.032-47.919-9.66-2.119-3.799 5.714-10.825 7.765-11.08 1.018-14.689-.441-38.111-2.203-56.927-.203-1.536-.045-2.934-1.689-2.929-1.801.006-1.545 1.009-1.823 3.318-.375 4.102-2.739 26.9-4.941 36.784-2.202 9.883-6.645 8.577-6.645 8.577-32.932-5.673-63.893-.774-92.339 9.767-4.996 1.922-25.469 8.957-26.583 12.33-.229.815.374 1.83 1.079 2.298.835.555 2.015.276 3.007.122 9.026-3.267 16.95-5.357 26.205-7.319v4.8l19.943 17.683c-6.499 18.978-17.351 19.571-36.555 25.948l-5.682 16.857-11.365-14.773c-17.263-.459-33.674.478-41.479-15.531l14.016-20.456L28.49 85.266Z" style="fill:url(#a);fill-rule:nonzero"/><defs><linearGradient id="a" x1="0" x2="1" y1="0" y2="0" gradientTransform="rotate(-8.578 1231.893 -193.611)scale(304.7503)" gradientUnits="userSpaceOnUse"><stop offset="0" style="stop-color:#612c75;stop-opacity:1"/><stop offset=".3" style="stop-color:#7b5190;stop-opacity:1"/><stop offset=".5" style="stop-color:#bf99c3;stop-opacity:1"/><stop offset=".7" style="stop-color:#7b5190;stop-opacity:1"/><stop offset="1" style="stop-color:#612c75;stop-opacity:1"/></linearGradient></defs></svg>