<svg xmlns="http://www.w3.org/2000/svg" width="600" height="600"><path d="M485.549 224.13C475.493 98.85 370.619 0 243.179 0 109.079 0 0 109.335 0 243.75c0 103.59 64.888 192.315 156.023 227.52C96.283 547.74 84.357 600 84.357 600H600V199.395s-43.144-1.695-114.451 24.735" style="fill:gray"/><path d="M187.36 434.13C105.233 409.98 45.254 333.87 45.254 243.75c0-109.62 88.621-198.45 197.925-198.45 109.018 0 197.416 88.35 197.94 197.52-40.39 19.035-87.051 46.35-138.021 85.605-48.277 37.14-86.168 72.945-115.738 105.705m135.027-67.62c-133.86 104.64-174.729 188.205-174.729 188.205h407.208V247.68s-98.603 14.115-232.479 118.83"/></svg>