<?xml version="1.0" encoding="UTF-8" standalone="no"?>
<svg
   version="1.1"
   width="600"
   height="648.59344"
   id="svg6"
   xmlns:xlink="http://www.w3.org/1999/xlink"
   xmlns="http://www.w3.org/2000/svg"
   xmlns:svg="http://www.w3.org/2000/svg">
  <defs
     id="defs6" />
  <linearGradient
     x1="0"
     y1="0"
     x2="1"
     y2="0"
     id="linearGradient748"
     gradientUnits="userSpaceOnUse"
     gradientTransform="matrix(33.133789,0,0,-33.133789,216.36719,34.720703)"
     spreadMethod="pad">
    <stop
       style="stop-color:#bf331c"
       offset="0"
       id="stop1" />
    <stop
       style="stop-color:#d3641c"
       offset="0.39999399"
       id="stop2" />
    <stop
       style="stop-color:#f6b91d"
       offset="0.5"
       id="stop3" />
    <stop
       style="stop-color:#d3641c"
       offset="0.69999701"
       id="stop4" />
    <stop
       style="stop-color:#bf331c"
       offset="1"
       id="stop5" />
  </linearGradient>
  <linearGradient
     x1="0"
     y1="0"
     x2="1"
     y2="0"
     id="linearGradient2998"
     xlink:href="#linearGradient748"
     gradientUnits="userSpaceOnUse"
     gradientTransform="matrix(526.04449,0,0,526.04449,36.979096,326.73637)"
     spreadMethod="pad" />
  <path
     d="M 593.64945,642.24288 H 6.3505502 V 499.97468 L 21.036198,492.1635 V 204.21367 L 171.43311,132.10317 V 75.345119 L 300,7.1878394 428.55102,75.345119 v 56.758051 l 150.39691,72.1105 V 492.1635 l 14.70152,7.81118 z"
     style="stroke:#ffffff;stroke-width:12.7011"
     id="path5" />
  <path
     d="M 202.13802,93.761719 V 388.6654 L 300,336.74965 397.86198,388.6654 V 93.761719 L 300,41.925349 Z m 230.57261,312.574091 115.53238,55.4403 V 223.50346 L 432.71063,168.12666 Z M 51.741109,223.50346 V 461.77611 L 167.2735,406.33581 V 168.12666 Z M 36.97608,518.40715 v 93.1467 h 526.03196 v -93.1467 L 300,378.67916 Z"
     style="fill:url(#linearGradient2998)"
     id="path6" />
</svg>
