<?xml version="1.0" encoding="UTF-8" standalone="no"?>
<svg
   version="1.1"
   width="600"
   height="648.78894"
   id="svg6"
   xmlns:xlink="http://www.w3.org/1999/xlink"
   xmlns="http://www.w3.org/2000/svg"
   xmlns:svg="http://www.w3.org/2000/svg">
  <defs
     id="defs6" />
  <linearGradient
     x1="0"
     y1="0"
     x2="1"
     y2="0"
     id="linearGradient730"
     gradientUnits="userSpaceOnUse"
     gradientTransform="matrix(33.133789,0,0,-33.133789,149.86719,34.720703)"
     spreadMethod="pad">
    <stop
       style="stop-color:#8b723c"
       offset="0"
       id="stop1" />
    <stop
       style="stop-color:#d2bb7b"
       offset="0.39999399"
       id="stop2" />
    <stop
       style="stop-color:#ebd491"
       offset="0.5"
       id="stop3" />
    <stop
       style="stop-color:#d2bb7b"
       offset="0.69999701"
       id="stop4" />
    <stop
       style="stop-color:#8b723c"
       offset="1"
       id="stop5" />
  </linearGradient>
  <linearGradient
     x1="0"
     y1="0"
     x2="1"
     y2="0"
     id="linearGradient2993"
     xlink:href="#linearGradient730"
     gradientUnits="userSpaceOnUse"
     gradientTransform="matrix(41.417236,0,0,41.417236,354.29149,532.5213)"
     spreadMethod="pad" />
  <g
     transform="matrix(12.975779,0,0,12.975779,-4565.9171,-6583.4195)"
     id="g6">
    <path
       d="m 398.12,557.36218 h -46.24 v -11.20125 l 1.15625,-0.615 v -22.67125 l 11.84125,-5.6775 v -4.46875 L 375,507.36218 l 10.12125,5.36625 v 4.46875 l 11.84125,5.6775 v 22.67125 l 1.1575,0.615 z"
       id="path5" />
    <path
       d="m 367.295,514.17843 v 23.21875 l 7.705,-4.0875 7.705,4.0875 V 514.17843 L 375,510.09718 Z m 18.15375,24.61 9.10125,4.365 v -18.76 l -9.10125,-4.36 z m -29.995,-14.395 v 18.76 l 9.09625,-4.365 v -18.755 z m -1.1625,23.21875 v 7.33375 h 41.41625 v -7.33375 L 375,536.61093 Z"
       style="fill:url(#linearGradient2993)"
       id="path6" />
  </g>
</svg>
