<?xml version="1.0" encoding="UTF-8" standalone="no"?>
<svg
   version="1.1"
   width="600"
   height="648.78894"
   id="svg6"
   xmlns:xlink="http://www.w3.org/1999/xlink"
   xmlns="http://www.w3.org/2000/svg"
   xmlns:svg="http://www.w3.org/2000/svg">
  <defs
     id="defs6" />
  <linearGradient
     x1="0"
     y1="0"
     x2="1"
     y2="0"
     id="linearGradient712"
     gradientUnits="userSpaceOnUse"
     gradientTransform="matrix(33.133789,0,0,-33.133789,82.867187,34.720703)"
     spreadMethod="pad">
    <stop
       style="stop-color:#536e78"
       offset="0"
       id="stop1" />
    <stop
       style="stop-color:#99aebc"
       offset="0.39999399"
       id="stop2" />
    <stop
       style="stop-color:#d9eaf3"
       offset="0.5"
       id="stop3" />
    <stop
       style="stop-color:#99aebc"
       offset="0.69999701"
       id="stop4" />
    <stop
       style="stop-color:#536e78"
       offset="1"
       id="stop5" />
  </linearGradient>
  <linearGradient
     x1="0"
     y1="0"
     x2="1"
     y2="0"
     id="linearGradient2995"
     xlink:href="#linearGradient712"
     gradientUnits="userSpaceOnUse"
     gradientTransform="matrix(33.133789,0,0,-33.133789,82.867187,34.720703)"
     spreadMethod="pad" />
  <linearGradient
     x1="0"
     y1="0"
     x2="1"
     y2="0"
     id="linearGradient2998"
     xlink:href="#linearGradient712"
     gradientUnits="userSpaceOnUse"
     gradientTransform="matrix(537.42088,0,0,537.42088,31.29088,326.45919)"
     spreadMethod="pad" />
  <path
     d="M 600,648.78893 H 0 V 503.44399 l 15.003244,-7.9801 V 201.28677 L 168.65268,127.61678 V 69.63127 L 300,0 431.3311,69.63127 v 57.98551 l 153.64944,73.66999 V 495.46389 L 600,503.44399 Z"
     id="path5" />
  <path
     d="M 200.02163,88.44615 V 389.72751 L 300,336.68902 400.04325,389.72751 V 88.44615 L 300,35.48876 Z m 235.55904,319.33391 118.03092,56.63928 V 220.99373 L 435.58067,164.41934 Z M 46.372189,220.99373 V 464.41934 L 164.40311,407.78006 V 164.41934 Z M 31.287846,522.27509 v 95.16112 H 568.69593 V 522.27509 L 300,379.52531 Z"
     style="fill:url(#linearGradient2998)"
     id="path6" />
</svg>
