<svg xmlns="http://www.w3.org/2000/svg" xmlns:xlink="http://www.w3.org/1999/xlink" width="600" height="494.886"><linearGradient id="a" x1="0" x2="1" y1="0" y2="0" gradientTransform="scale(39.06934 -39.06934)rotate(18 29.244 49.12)" gradientUnits="userSpaceOnUse" spreadMethod="pad"><stop offset="0" style="stop-color:#612c75"/><stop offset=".3" style="stop-color:#7b5190"/><stop offset=".5" style="stop-color:#bf99c3"/><stop offset=".7" style="stop-color:#7b5190"/><stop offset="1" style="stop-color:#612c75"/></linearGradient><linearGradient xlink:href="#a" id="b" x1="0" x2="1" y1="0" y2="0" gradientTransform="scale(483.3719)rotate(18 -1.361 1.04)" gradientUnits="userSpaceOnUse" spreadMethod="pad"/><path fill="#fff" d="M580.328 453.464c-37.933-79.936-92.308-133.916-141.401-169.35 22.418-29.718 35.706-66.636 35.706-106.66C474.633 79.64 394.993 0 297.13 0c-97.864 0-177.467 79.64-177.467 177.454 0 41.224 14.117 79.17 37.748 109.27-48.09 35.472-100.722 88.783-137.74 166.74L0 494.886h600z"/><path d="M148.664 177.454c0 35.137 12.224 67.416 32.613 92.84 51.48-33.157 93.038-45.48 96.465-46.445l22.233-6.371 22.283 6.371c3.328.965 42.968 12.67 92.642 44.033 19.239-25.041 30.696-56.405 30.696-90.428 0-81.966-66.451-148.417-148.466-148.417S148.664 95.488 148.664 177.454m165.613 288.432h239.86c-79.987-168.472-239.86-214.15-239.86-214.15zm-268.413 0h239.859v-214.15S125.8 297.414 45.863 465.886" style="fill:url(#b)"/></svg>