<svg xmlns="http://www.w3.org/2000/svg" width="600" height="329.711"><linearGradient id="a" x1="0" x2="1" y1="0" y2="0" gradientTransform="matrix(56.68897 0 0 -56.68897 190.906 483.725)" gradientUnits="userSpaceOnUse" spreadMethod="pad"><stop offset="0" style="stop-color:#8b723c"/><stop offset=".3" style="stop-color:#d2bb7b"/><stop offset=".5" style="stop-color:#ebd491"/><stop offset=".7" style="stop-color:#d2bb7b"/><stop offset="1" style="stop-color:#8b723c"/></linearGradient><path d="M548.751 329.71h-.04c-11.913 0-29.627-2.8-46.455-16.159-23.088-18.343-21.373-44.192-13.936-63.631-16.28-2.762-35.21-5.294-53.473-7.198l-5.872 16.668c-2.462 7.008-9.082 11.644-16.399 11.644-.348 0-.698 0-1.047-.04-19.628-1.137-31.551-12.541-32.867-13.827a17.48 17.48 0 0 1-4.127-18.143l3.34-9.43c-28.382-.54-105.062-6.032-187.615-45.678C96.334 138.786 32.941 85.433 1.948 25.35-1.76 18.223-.046 9.58 5.996 4.287A17.47 17.47 0 0 1 17.48 0c3.509 0 7.008 1.017 10.048 3.12.309.23 35.669 24.105 118.072 26.278 6.769.2 12.85 4.327 15.531 10.557 2.732 6.23 1.525 13.478-2.99 18.532l-.469.47c20.716 12.85 61.449 33.066 112.619 33.066 22.23 0 44.54-3.818 66.313-11.374a17.9 17.9 0 0 1 5.682-.937 17.37 17.37 0 0 1 10.477 3.509l60.75 45.517 3.35-9.46c2.492-6.968 9.072-11.644 16.469-11.644 20.635 0 33.057 13.01 34.422 14.525a17.4 17.4 0 0 1 3.43 17.834l-3.51 9.351c115.42 45.478 130.732 72.703 130.732 91.465 0 17.096-10.208 29.049-30.415 35.598 3.58 1.595 10.238 3.31 15.691 3.699 5.762.388 10.986 3.579 13.907 8.563 2.881 4.985 3.23 11.066.778 16.28-7.009 14.793-26.916 24.762-49.616 24.762"/><path d="M209 483.387c10.172-4.887 19.297-4.403 19.297-4.403l2.242 6.243-7.047 5.285c-12.008-4.164-21.137 3.523-21.137 3.523l1.36 1.52c-9.047.242-12.809 2.965-12.809 2.965 2.563-4.965 7.926-10.25 18.094-15.133m-7.285 9.207s5.683-5.684 15.613-6.485c0 0-2.129-.933-4.945-.933-3.406 0-7.817 1.367-10.668 7.418m17.215-6.274a27.6 27.6 0 0 1 4.406 1.789l3.281-3.175c-2.484.64-7.687 1.386-7.687 1.386m9.449-10.621s.801-.801 2.16-.883l1.043 2.965s10.086-.879 11.926-2.32c0 0-1.278-2.645-2.961.559 0 0-2.641-3.684.082-5.844 2.723-2.164 6.324-1.121 6.965.238 0 0-2.645.16-3.285 1.524-.637 1.359.082 1.921.64 2.082.563.16 2.485.476 2.485 2.082 0 1.597-3.446 4.32-13.61 8.164l.961 2.562s-.805.883-2.164.883z" style="fill:url(#a)" transform="matrix(9.96888 0 0 -9.96888 -1885.678 4987.01)"/></svg>