<svg xmlns="http://www.w3.org/2000/svg" width="565.116" height="294.957"><path d="M415.852 107.754 373.564 227.5s7.985 7.985 21.532 8.762l10.398-29.517s100.546 8.762 118.929 23.127c0 0-12.78 26.368-29.558-5.572 0 0-26.328 36.725.817 58.258 27.146 21.572 63.044 11.175 69.434-2.373 0 0-26.368-1.595-32.748-15.192-6.35-13.548.817-19.15 6.38-20.756 5.612-1.595 24.773-4.745 24.773-20.755 0-15.92-34.353-43.065-135.677-81.386l9.58-25.54s-8.025-8.802-21.572-8.802M279.368 121.62s51.868 7.437 76.63 13.817l-32.707-31.651s-19.43 10.358-43.923 17.834m-15.97 2.104c-98.991-7.985-155.644-64.648-155.644-64.648 51.868 110.126 155.644 64.648 155.644 64.648M0 0s37.503 27.145 127.691 29.558L114.134 44.71s91.006 76.631 210.712 35.12l70.25 52.686-22.35 62.236s-90.966 4.825-192.37-43.893C79.014 102.181 25.55 49.495 0 0"/></svg>