<?xml version="1.0" encoding="UTF-8" standalone="no"?>
<!-- Generator: Adobe Illustrator 15.1.0, SVG Export Plug-In . SVG Version: 6.00 Build 0)  -->

<svg
   version="1.1"
   id="Layer_1"
   x="0px"
   y="0px"
   width="131.192"
   height="150"
   viewBox="0 0 131.192 150"
   enable-background="new 0 0 135 155"
   xml:space="preserve"
   xmlns="http://www.w3.org/2000/svg"
   xmlns:svg="http://www.w3.org/2000/svg"><defs
   id="defs2" />
<g
   id="Layer_1_1_"
   transform="translate(-1.994,-2.58)">
</g>
<g
   id="Layer_3"
   display="none"
   transform="translate(-1.994,-2.58)">
</g>
<g
   id="g2"
   transform="translate(-1.994,-2.58)">
	<path
   fill="#ffffff"
   d="M 125.766,4.766 110.184,29.958 90.143,37.109 95.708,5.226 86.705,7.875 77.188,25.05 h -12.81 c -12.438,0 -24.889,1.962 -37.026,5.833 l -0.39,-1.871 H 1.994 l 8.36,46.336 0.332,0.221 3.882,58.986 34.156,18.025 h 27.079 l 42.271,-21.803 7.917,-58.695 0.679,-1.03 6.516,-68.472 z"
   id="path1" />
	<path
   d="m 65.023,67.152 v 50.546 H 60.761 V 82.857 L 55.52,62.801 Z m -5.815,65.561 -4.277,16.117 h 10.094 v -16.117 z m -2.8,-9.473 V 94.189 l -11.248,9.473 v 41.624 l 5.882,2.735 4.519,-19.057 h 9.464 v -5.726 z M 127.602,10.875 122.032,69.419 70.48,147.777 V 85.078 l 7.617,-7.533 c 2.398,-2.517 5.519,-5.64 8.186,-6.366 l 25.017,-8.849 0.312,-4.786 -26.907,10.042 1.238,-6.747 26.065,-9.409 0.33,-5.058 -25.303,8.505 2.33,-12.422 23.995,-8.562 z m -18.927,63.26 -35.581,13.185 7.844,16.255 z M 50.986,43.442 c 0,0 6.74,-2.189 14.038,-2.465 v -11.13 c -12.606,-0.07 -25.091,1.899 -37.456,5.986 l 2.047,11.02 35.408,16.454 V 51.314 Z m 62.689,84.233 6.595,-48.88 -46.142,69.262 z M 74.572,48.046 70.48,61.61 V 80.563 L 79.517,70.211 89.577,12.579 75.284,38.41 H 70.48 v 9.636 z m -48.771,46.877 -1.202,-10.53 -8.907,-5.453 3.466,52.649 21.969,11.688 V 104.941 Z M 30.666,83.171 14.692,72.505 7.706,33.787 h 15.371 l 3.11,14.995 24.069,11.993 5.9,22.396 H 30.666 Z M 19.855,56.363 45.413,67.054 44.59,62.666 19.501,52.14 Z M 21.038,65.7 47.254,76.888 46.464,72.666 20.691,61.771 Z"
   id="path2" />
</g>
</svg>
