<?xml version="1.0" encoding="UTF-8" standalone="no"?>
<!-- Generator: Adobe Illustrator 15.1.0, SVG Export Plug-In . SVG Version: 6.00 Build 0)  -->

<svg
   version="1.1"
   id="Layer_1"
   x="0px"
   y="0px"
   width="131.192"
   height="150"
   viewBox="0 0 131.192 150"
   enable-background="new 0 0 135 155"
   xml:space="preserve"
   xmlns="http://www.w3.org/2000/svg"
   xmlns:svg="http://www.w3.org/2000/svg"><defs
   id="defs16" />
<g
   id="Layer_1_1_"
   transform="translate(-1.953,-2.08)">
</g>
<g
   id="Layer_3"
   display="none"
   transform="translate(-1.953,-2.08)">
</g>
<g
   id="g16"
   transform="translate(-1.953,-2.08)">
	<path
   d="M 125.725,4.266 110.143,29.458 90.102,36.609 95.667,4.726 86.664,7.375 77.147,24.55 h -12.81 c -12.438,0 -24.889,1.962 -37.026,5.833 l -0.39,-1.871 H 1.953 l 8.36,46.336 0.332,0.221 3.882,58.985 34.156,18.026 h 27.079 l 42.271,-21.803 7.917,-58.695 0.679,-1.03 6.516,-68.472 z"
   id="path1" />
	<linearGradient
   id="SVGID_1_"
   gradientUnits="userSpaceOnUse"
   x1="21.779301"
   y1="19.1733"
   x2="121.7078"
   y2="119.1019">
		<stop
   offset="0"
   style="stop-color:#8D742F"
   id="stop1" />
		<stop
   offset="0.0775"
   style="stop-color:#937A35"
   id="stop2" />
		<stop
   offset="0.1787"
   style="stop-color:#A38A45"
   id="stop3" />
		<stop
   offset="0.25"
   style="stop-color:#B39A54"
   id="stop4" />
		<stop
   offset="0.2682"
   style="stop-color:#B9A059"
   id="stop5" />
		<stop
   offset="0.3351"
   style="stop-color:#CAB068"
   id="stop6" />
		<stop
   offset="0.4086"
   style="stop-color:#D4BA71"
   id="stop7" />
		<stop
   offset="0.5"
   style="stop-color:#D7BD74"
   id="stop8" />
		<stop
   offset="0.5914"
   style="stop-color:#D4BA71"
   id="stop9" />
		<stop
   offset="0.6649"
   style="stop-color:#CAB068"
   id="stop10" />
		<stop
   offset="0.7318"
   style="stop-color:#B9A059"
   id="stop11" />
		<stop
   offset="0.75"
   style="stop-color:#B39A54"
   id="stop12" />
		<stop
   offset="0.7526"
   style="stop-color:#B29953"
   id="stop13" />
		<stop
   offset="0.8368"
   style="stop-color:#9E853F"
   id="stop14" />
		<stop
   offset="0.9198"
   style="stop-color:#917833"
   id="stop15" />
		<stop
   offset="1"
   style="stop-color:#8D742F"
   id="stop16" />
	</linearGradient>
	<path
   fill="url(#SVGID_1_)"
   d="m 64.983,66.652 v 50.546 H 60.72 V 82.357 L 55.479,62.301 Z m -5.816,65.561 -4.277,16.117 h 10.094 v -16.117 z m -2.8,-9.473 V 93.689 l -11.248,9.473 v 41.624 l 5.882,2.735 4.519,-19.056 h 9.464 v -5.726 H 56.367 Z M 127.56,10.375 121.99,68.919 70.44,147.277 V 84.578 l 7.617,-7.533 c 2.398,-2.517 5.518,-5.64 8.185,-6.366 l 25.017,-8.849 0.312,-4.786 -26.907,10.042 1.238,-6.747 26.066,-9.409 0.33,-5.058 -25.303,8.505 2.33,-12.422 23.996,-8.562 z m -18.926,63.26 -35.581,13.185 7.844,16.255 z M 50.945,42.942 c 0,0 6.74,-2.189 14.038,-2.465 v -11.13 c -12.607,-0.07 -25.092,1.899 -37.456,5.986 l 2.047,11.02 35.409,16.454 V 50.814 Z m 62.689,84.233 6.595,-48.88 -46.142,69.261 z M 74.531,47.546 70.439,61.11 V 80.063 L 79.476,69.711 89.536,12.079 75.243,37.91 h -4.804 v 9.636 z M 25.76,94.423 24.558,83.892 l -8.907,-5.453 3.466,52.65 21.969,11.688 V 104.441 Z M 30.625,82.671 14.651,72.005 7.665,33.287 h 15.371 l 3.11,14.995 24.069,11.993 5.9,22.396 H 30.625 Z M 19.814,55.863 45.372,66.554 44.549,62.166 19.46,51.64 Z M 20.997,65.2 47.213,76.388 46.423,72.167 20.65,61.271 Z"
   id="path16"
   style="fill:url(#SVGID_1_)" />
</g>
</svg>
