<?xml version="1.0" encoding="UTF-8" standalone="no"?>
<!-- Generator: Adobe Illustrator 15.1.0, SVG Export Plug-In . SVG Version: 6.00 Build 0)  -->

<svg
   version="1.1"
   id="Layer_1"
   x="0px"
   y="0px"
   width="130.36301"
   height="149.99899"
   viewBox="0 0 130.36301 149.99899"
   enable-background="new 0 0 135 155"
   xml:space="preserve"
   xmlns="http://www.w3.org/2000/svg"
   xmlns:svg="http://www.w3.org/2000/svg"><defs
   id="defs1" />
<g
   id="Layer_1_1_"
   transform="translate(-2.729,-2.633)">
</g>
<g
   id="Layer_3"
   display="none"
   transform="translate(-2.729,-2.633)">
</g>
<g
   id="g1"
   transform="translate(-2.729,-2.633)">
	<path
   d="m 65.052,63.824 v 54.959 H 60.417 V 80.9 L 54.718,59.093 Z m -6.324,71.284 -4.651,17.524 H 65.052 V 135.108 Z M 55.683,124.809 V 93.222 l -12.23,10.3 v 45.258 l 6.396,2.975 4.913,-20.72 h 10.29 v -6.226 z m 77.409,-122.176 -6.057,63.655 -56.051,85.2 V 83.314 l 8.282,-8.19 c 2.607,-2.736 5.999,-6.133 8.899,-6.922 l 27.2,-9.622 0.339,-5.203 -29.253,10.918 1.346,-7.336 28.343,-10.23 0.358,-5.5 -27.512,9.248 2.534,-13.507 26.092,-9.309 z m -20.578,68.783 -38.689,14.337 8.529,17.674 z M 49.788,38.043 c 0,0 7.329,-2.38 15.264,-2.68 V 23.261 C 51.344,23.185 37.769,25.326 24.325,29.77 l 2.226,11.981 38.501,17.891 V 46.604 Z m 68.162,91.588 7.17,-53.148 -50.17,75.309 z M 75.434,43.049 70.985,57.798 V 78.406 L 80.811,67.15 91.748,4.487 76.207,32.572 h -5.223 v 10.477 z m -53.031,50.97 -1.307,-11.45 -9.685,-5.93 3.768,57.248 23.887,12.709 V 104.912 Z M 27.693,81.241 10.325,69.644 2.729,27.545 h 16.713 l 3.382,16.304 26.171,13.04 6.416,24.352 z M 15.939,52.093 43.728,63.718 42.833,58.947 15.554,47.5 Z M 17.225,62.245 45.729,74.41 44.87,69.821 16.848,57.973 Z"
   id="path1" />
</g>
</svg>
