<?xml version="1.0" encoding="UTF-8" standalone="no"?>
<svg xmlns="http://www.w3.org/2000/svg" version="1.1" x="0px" y="0px" width="431.99005" height="274.99799" viewBox="0 0 431.99005 274.99799">
  <path d="m 248.55273,0 c -43.236,-0.001 -79.10892,10.699813 -110.16992,30.132812 24.764,-12.725999 54.92358,-21.0614995 87.26758,-21.0624995 7.725,0 15.57191,0.4745157 23.50391,1.4785155 88.051,11.149 150.75014,75.158236 142.49414,141.740232 -7.408,59.748 -71.04153,102.06641 -147.64453,102.06641 -8.766,0 -17.69047,-0.55327 -26.73047,-1.69727 C 164.20049,245.93825 119.65648,220.36561 94.433594,186.5332 150.32076,171.8598 267.76374,169.65424 385.27148,165.11328 L 0,166.58984 c 27.508,3.097 52.748312,3.28682 63.695312,35.00782 3.782251,-4.80203 11.127183,-8.85273 21.410157,-12.30274 27.421541,49.55867 91.033501,85.23384 165.365231,85.69922 0.486,0.002 0.9818,0.004 1.4668,0.004 99.105,0 179.57778,-62.78752 180.05078,-138.35352 C 432.46528,60.711442 349.97812,0.63185937 250.20312,0.00585938 249.65212,0.00285937 249.09873,0 248.55273,0 Z m 76.50977,23.773438 c 17.547,6.309999 33.39145,14.687984 47.18945,24.958984 0.73,0.543 1.44125,1.094531 2.15625,1.644531 l -6.53711,6.519531 c -1.213,-1.303 -2.44865,-2.598953 -3.72265,-3.876953 -11.323,-11.354 -24.50594,-21.175094 -39.08594,-29.246093 z m -24.875,17.078124 c -0.635,0.463001 -2.35034,1.485938 -4.90234,1.335938 -1.318,-0.079 -2.15389,-0.294859 -2.96289,-0.505859 -0.998,-0.258 -2.02877,-0.527297 -4.00977,-0.529297 -4.57,0 -9.51445,3.368281 -9.68945,9.613281 -0.172,6.044 3.67997,12.470625 10.41797,12.765625 3.91,0.178 11.73584,-1.976984 15.21484,-3.458984 l 1.29687,-2.148438 c -3.272,0.979 -4.64645,1.359235 -9.68945,1.740234 -0.592,0.046 -1.16412,0.06836 -1.70312,0.06836 h -0.004 c -3.061,0 -5.30683,-0.739358 -6.67383,-2.19336 -1.693,-1.801999 -1.77148,-4.331031 -1.64648,-6.332031 0.227,-3.697 3.30251,-7.45125 5.97851,-7.28125 3.143,0.207 4.75819,1.029422 5.36719,5.107422 l 0.93164,0.248047 c 0.451,-1.883 1.88664,-4.815375 2.80664,-5.734375 -0.07,-0.341 -0.40042,-1.540313 -0.73242,-2.695313 z m -25.19727,0.185547 c -2.619,0.608 -6.31646,0.824219 -8.73046,0.824219 -1.385,0 -2.527,-0.06169 -3.25,-0.179687 l -0.41797,0.8125 c 4.318,1.67 4.09365,6.418234 3.97265,8.990234 -0.016,0.359 -0.0312,0.678453 -0.0312,0.939453 0,5.351 -1.31061,10.028858 -3.34961,12.00586 l 0.38086,0.849609 c 1.363,-1.708 4.86719,-3.048828 8.11719,-3.048828 1.285,0 2.43022,0.216953 3.32422,0.626953 l 0.51367,-0.595703 c -4.161,-3.48 -3.94917,-5.874625 -3.70117,-8.640625 0.059,-0.685 0.125,-1.392391 0.125,-2.150391 0,-4.779 0.24975,-8.533516 3.34375,-9.603515 z m -18.58984,0.494141 c -0.627,0.456 -2.30064,1.457594 -4.80664,1.308594 -1.275,-0.073 -2.52666,-0.324844 -3.84766,-0.589844 -1.676,-0.336 -3.40214,-0.682031 -5.36914,-0.707031 l -0.14062,-0.002 c -2.09,0 -8.9336,0.701078 -9.1836,9.705078 -0.16,5.687 4.67572,11.660593 9.76172,12.058594 1.059,0.085 2.01621,-0.167752 3.15821,-0.46875 1.148,-0.302 2.45262,-0.646157 4.26562,-0.785157 1.553,-0.108 3.50166,1.04161 4.09766,2.34961 l 1.25781,0.339843 c -0.012,-0.176 -0.0308,-0.37389 -0.0488,-0.58789 -0.223,-2.429 -0.67604,-7.431188 4.50196,-8.367188 l -0.78907,-1.328125 c -0.421,-0.121 -1.33208,-0.185547 -2.58008,-0.185547 -2.646,0 -6.4822,0.310797 -7.6582,0.716797 l -0.30859,0.835938 c 1.771,-0.132 3.40004,0.790312 3.49804,1.945312 0.049,0.542 -0.21484,1.864078 -3.63086,2.455078 -2.709,0.472 -4.82785,-0.06698 -6.25585,-1.583984 -2.111,-2.24 -2.13107,-5.967797 -2.03907,-7.466797 0.201,-3.26 2.79313,-6.75 6.32813,-6.75 0.275,0 0.55503,0.0205 0.83203,0.0625 3.037,0.449 5.41358,1.111641 6.01758,5.056641 l 0.9082,0.238281 c 0.443,-1.842 1.84605,-4.711187 2.74805,-5.617188 -0.068,-0.335 -0.3928,-1.504812 -0.7168,-2.632812 z m -73.9082,0.09961 -1.00586,1.556641 c 0.797,0.392 3.40769,1.697016 4.05469,2.291016 0.914,0.843 1.19129,1.739437 0.77929,2.523437 -1.695,3.24 -2.89756,4.361203 -3.35156,4.783203 -0.238,0.215 -0.35747,0.438063 -0.35547,0.664063 0,0.377 0.32217,0.670828 0.32617,0.673828 h 0.002 c 0.012,0.014 0.0234,0.02987 0.0312,0.04687 0.18,0.174 0.5565,0.583062 1.4375,1.539062 0.457,0.462 0.62478,0.460732 1.30078,0.0098 0.375,-0.195 0.71883,-0.289063 1.04883,-0.289062 0.51,0 1.22976,0.231937 1.75976,1.335937 0.186,0.382 0.42617,0.867641 0.70117,1.431641 1.736,3.532 4.96688,10.107984 5.79688,13.208984 0.656,2.445 -0.38327,3.78775 -4.57227,7.34375 l 1.22657,1.318359 c 1.96298,-1.461 5.22832,-2.263672 9.23632,-2.263671 3.172,0 6.59421,0.530046 9.65821,1.498046 l 0.48632,-1.15039 c -0.584,-0.674 -1.52743,-1.281828 -2.52343,-1.923828 -1.022,-0.656 -2.07602,-1.335766 -2.79102,-2.134766 -1.078,-1.132 -1.27272,-1.982344 -1.63672,-3.527344 -0.049,-0.214 -0.10211,-0.4415 -0.16211,-0.6875 -0.822,-3.396 -5.46486,-13.51339 -7.13086,-16.40039 -2.326,-4.002 -3.16401,-8.297532 -2.16601,-11.019532 -0.248,-0.146 -0.82205,-0.453328 -1.37305,-0.736328 -1.336,0.557 -3.22098,0.675782 -4.58398,0.675782 -2.457,0 -5.09036,-0.385579 -6.19336,-0.767579 z m 24.59765,0.15625 -1.10742,1.333985 c 1.703,0.627 9.89089,3.666609 11.08789,4.599609 0.021,0.017 0.0368,0.03559 0.0508,0.05859 1.016,1.614 3.53282,9.024359 3.75782,11.943359 0.105,1.361 -0.26224,2.046985 -0.49024,2.333985 l 0.96094,1.136718 c 0.848,-0.722 2.25014,-1.117187 3.99414,-1.117187 1.775,0 3.77353,0.399 5.64453,1.125 0.193,-0.257 0.39342,-0.527969 0.48242,-0.667969 -3.434,-5.056 -5.61715,-10.641 -7.28515,-18.625 l -2.08789,-1.666015 c -1.152,0.472 -2.85918,0.710937 -5.07618,0.710937 -4.006,0 -8.58364,-0.784016 -9.93164,-1.166016 z M 155.375,42.490234 c -0.441,0.562 -1.05147,1.343952 -1.35547,1.751954 0.836,0.143 2.79897,0.539796 3.66797,1.091796 0.994,0.632 0.81966,1.649579 0.47266,3.017578 -0.475,1.863 -1.6931,4.96275 -1.7461,5.09375 -0.268,0.48 -0.35883,0.778752 -0.29883,0.96875 0.061,0.194002 0.30136,0.342204 0.69336,0.533204 l 2.01563,0.953125 c 0.26,0.109 0.46695,0.166015 0.62695,0.166015 0.238,0 0.42967,-0.108578 0.63867,-0.642578 l 0.0527,-0.123047 c 0.246,-0.578 0.65972,-1.54364 1.13672,-2.05664 l 0.0625,-0.06445 c 0.258,-0.280001 0.54929,-0.595704 1.02929,-0.595704 0.246,0 0.5115,0.08291 0.8125,0.253907 1.104,0.606 5.91771,5.215484 9.34571,16.646484 2.551,8.508 2.14822,11.474797 1.94922,12.216797 l 1.85742,1.039062 c 0.922,-1.637 4.62142,-5.776328 7.60742,-6.486328 -0.484,-2.33 -1.48566,-4.957625 -2.22266,-6.890625 -0.328,-0.864 -0.61148,-1.60714 -0.77148,-2.11914 -1.41,-4.57 0.68609,-7.585532 1.12109,-8.144532 0.518,-0.59 0.54728,-1.005359 0.11328,-1.443359 l -1.41015,-1.578125 c -0.016,-0.019 -0.29685,-0.380859 -0.71485,-0.380859 -0.238,0 -0.494,0.120468 -0.75,0.355468 -0.48,0.37 -1.10912,0.851985 -2.20312,2.083985 -0.041,0.046 -0.10011,0.07417 -0.16211,0.07617 -0.061,0.003 -0.12102,-0.02436 -0.16602,-0.06836 -1.375,-1.41 -2.5137,-3.406484 -3.7207,-5.521484 -0.697,-1.219 -1.41575,-2.480313 -2.21875,-3.695313 -0.443,-0.674 -0.85551,-1.278125 -1.22851,-1.828125 -1.26402,-1.859 -2.12277,-3.12425 -2.25977,-4.28125 z m 54.07617,6.949219 c -0.33389,0.06066 -0.59658,0.293483 -0.67383,0.521485 -0.566,1.634999 -1.5512,3.975656 -3.0332,5.847656 -2.002,2.528 -2.2275,4.970703 -0.6875,7.470703 0.006,0 0.10339,0.06445 0.52539,0.06445 0.371,0 0.88461,-0.04852 1.47461,-0.103516 0.828,-0.08 1.85864,-0.177734 2.93164,-0.177734 0.752,0 1.42558,0.04658 2.0586,0.142578 l 0.14843,-0.376953 c 1.041,-2.652 1.67246,-4.251828 3.18946,-4.798828 0.414,-0.174 0.56259,-0.480233 0.47461,-0.990235 -0.166,-0.997999 -0.18732,-1.125937 -0.57032,-1.835937 -0.141,-0.28 -0.4017,-0.412109 -0.80468,-0.412109 -0.053,0 -0.0998,0.0019 -0.13477,0.0039 -1.533,0.114 -2.50416,0.508953 -4.03516,1.626953 -0.076,0.056 -0.17781,0.05882 -0.25781,0.0059 -0.078,-0.053 -0.11288,-0.150187 -0.0898,-0.242187 0.188,-0.724 0.53911,-1.407813 0.91211,-2.132813 0.424,-0.822 0.8592,-1.673937 1.0332,-2.585937 0.221,-0.633 -0.10155,-0.961516 -0.31055,-1.103516 -0.006,-0.005 -0.0115,-0.01163 -0.0195,-0.01563 -0.164,-0.11 -1.39534,-0.825297 -1.77734,-0.904297 -0.123,-0.0245 -0.24222,-0.02413 -0.35352,-0.0039 z m 172.48242,7.132813 c 17.96,15.79 30.13229,34.300187 35.73829,54.117184 l -17.90626,2.67969 c -4.393,-17.271999 -12.98646,-33.929062 -25.48046,-49.164062 z m -226.84961,0.988281 c -0.143,0 -0.35009,0.04631 -0.49609,0.445312 0,0.003 -0.0205,0.05269 -0.0215,0.05469 -0.227,0.563 -0.60947,1.519047 -1.48047,3.623047 -0.254,0.607 -0.61325,1.65614 -1.03125,2.86914 -1.236,3.602 -3.10889,9.046594 -5.08789,11.558594 -1.268,1.604 -3.23217,2.978 -3.82618,3.375 l 0.61719,1.148438 c 1.738,-1.444 5.7255,-2.90625 10.0625,-2.90625 0.9,0 1.79302,0.06159 2.66602,0.183593 v -0.884765 c -0.264,-0.11 -0.82755,-0.397594 -1.56055,-1.058594 -2.361,-2.112 -0.73564,-6.150484 0.56836,-9.396484 0.258,-0.639 0.50041,-1.244203 0.69141,-1.783204 0.68,-1.92 1.46081,-3.637546 1.88281,-4.560546 L 158.17188,60 c 0.34898,-0.915 0.0905,-1.073406 -0.48047,-1.316406 l -2.02735,-0.931641 c -0.232,-0.131 -0.42208,-0.191406 -0.58008,-0.191406 z m 63.01172,12.902344 -0.13867,2.023437 h 0.36133 c 0.182,-0.752 0.56075,-1.238281 1.59375,-1.238281 h 0.29687 v 7.144531 h -0.81445 v 0.402344 h 3.76953 v -0.402344 h -0.79297 v -7.144531 h 0.29883 c 1.031,0 1.40975,0.486281 1.59375,1.238281 h 0.35938 l -0.13672,-2.023437 h -0.39649 v 0.207031 h -5.59765 v -0.207031 z m 30.91602,0 c -2.691,0 -4.79688,2.024422 -4.79688,4.607421 0,2.385002 1.4918,3.925782 3.80078,3.925782 1.039,0 1.99407,-0.328953 2.91407,-1.001953 l 0.25195,-0.185547 0.64453,0.984375 h 0.23242 v -3.775391 c 0,-0.365 0.0982,-0.578625 0.28516,-0.765625 l -0.0801,-0.166015 c -0.143,0.057 -0.2947,0.105468 -0.4707,0.105468 h -3.16211 v 0.400391 h 1.51953 v 3.363281 h -0.29687 c -2.242,0 -3.47657,-1.387203 -3.47657,-3.908203 0,-2.58 1.24242,-2.966797 1.98243,-2.966797 0.58198,0 1.16796,0.349672 1.16796,1.013672 0,0.181 -0.0432,0.349187 -0.11718,0.492188 l 0.19726,0.300781 2.26758,-1.455078 -0.20312,-0.306641 -0.39258,0.253906 -0.16211,-0.109375 c -0.799,-0.535 -1.51247,-0.80664 -2.10547,-0.80664 z m -20.36133,0.123047 -2.66016,0.917968 v 0.148438 l 0.44727,-0.154297 v 7.123047 h -0.47461 v 0.171875 h 2.71289 v -0.171875 h -0.49609 v -4.021485 l 0.0586,-0.07813 c 0.307,-0.418 0.72649,-0.658203 1.14649,-0.658203 0.721,0 1.08984,0.401407 1.08984,1.191407 v 3.564453 h -0.48633 v 0.173828 h 2.68555 v -0.173828 h -0.45899 v -4.22461 h -0.002 c 0,-0.548 -0.18578,-1.464843 -1.42578,-1.464843 -0.855,0 -1.37309,0.383671 -2.12109,1.013671 l -0.48633,0.41211 v -3.376953 l 0.4707,-0.166016 z m 40.05273,0 -2.66015,0.917968 v 0.148438 L 266.48828,71.5 v 7.121094 h -0.47266 v 0.173828 h 2.71094 v -0.173828 h -0.49609 v -4.021485 l 0.0566,-0.07813 c 0.311,-0.417 0.72944,-0.658203 1.14844,-0.658203 0.721,0 1.08593,0.401407 1.08593,1.191407 v 3.564453 h -0.48242 v 0.173828 h 2.68555 v -0.173828 h -0.45899 v -4.22461 h -0.002 c 0,-0.548 -0.18578,-1.464844 -1.42578,-1.464843 -0.852,0 -1.37119,0.382671 -2.11719,1.013671 l -0.49023,0.41211 v -3.376953 l 0.47265,-0.166016 z m 19.6211,0.427734 c -0.41,0 -1.08203,0.374781 -1.08203,0.800781 0,0.327 0.19136,0.494141 0.56836,0.494141 0.35,-0.001 1.34961,-0.146063 1.34961,-0.789063 0,-0.165 6e-5,-0.505859 -0.83594,-0.505859 z m -25.09766,0.496094 c -0.418,0.833 -1.20311,1.496218 -2.16211,1.824218 v 0.185547 h 0.625 v 4.076172 c 0,0.999 0.37046,1.388672 1.31446,1.388672 0.66,0 1.27082,-0.334125 1.79882,-0.703125 l -0.0469,-0.07422 c -0.148,0.061 -0.32095,0.107422 -0.50195,0.107422 -0.41,0 -0.82227,-0.277594 -0.82227,-0.808594 v -3.986328 h 0.99805 l 0.0762,-0.402343 h -1.07422 v -0.806641 c 0,-0.233 0.006,-0.492859 0.041,-0.755859 z m 41.25391,0.435546 c -0.611,0 -0.69102,0.156032 -0.79102,0.457032 l -0.22851,0.724609 -0.25,-0.03516 c -0.096,-0.014 -0.19488,-0.03173 -0.29688,-0.05273 -0.277,-0.051 -0.5905,-0.109375 -1.0625,-0.109374 -1.18,0 -2.55273,0.610031 -2.55273,2.332031 0,1.234 1.0454,1.828844 1.9414,1.964843 l 0.25586,0.03906 v 0.462891 l -0.19336,0.09766 c -0.525,0.195 -1.19282,0.425984 -1.92382,0.583984 l 0.34179,0.330078 c 0.148,-0.016 0.29699,-0.02344 0.45899,-0.02344 0.301,0 0.61086,0.0275 1.00586,0.0625 l 0.4375,0.03906 v 0.53711 l -0.26172,0.05664 c -0.41,0.048 -0.97656,0.353735 -0.97656,0.802735 0,0.65 0.66356,0.980469 1.97656,0.980468 0.602,0 2.32031,-0.261781 2.32031,-1.425781 10e-4,-1.163 -1.97483,-1.379422 -2.92383,-1.482422 l -0.26562,-0.02734 -0.002,-0.498047 0.38868,-0.125 c 1.479,-0.375 3.00586,-0.764516 3.00586,-2.478516 0,-0.918 -0.50971,-1.348812 -0.84571,-1.632812 -0.199,-0.167 -0.35351,-0.298719 -0.35351,-0.511719 0,-0.329 0.22539,-0.576172 0.52539,-0.576172 0.104,0 0.19062,0.01502 0.26562,0.04102 l 0.11524,-0.529297 c -0.039,-0.003 -0.0783,-0.0039 -0.11133,-0.0039 z m -49.125,0.751954 -0.61524,1.671875 0.30665,0.115234 c 0.322,-0.425 0.73153,-0.923828 1.51953,-0.923828 0.705,0 1.14453,0.436672 1.14453,1.138672 v 0.617187 h -2.05078 c -1.051,0 -1.75782,0.813391 -1.75782,2.025391 0,0.984 0.69938,1.644531 1.73438,1.644531 0.682,0 1.20114,-0.364703 1.61914,-0.720703 l 0.37109,-0.316406 0.19727,0.845703 h 2.03125 v -0.171875 h -0.40625 V 74.75 c 0,-1.226 -0.68217,-1.822266 -2.07617,-1.822266 -0.529,0 -1.02069,0.09258 -1.42969,0.267578 l -0.61133,0.265626 0.23242,-0.69336 z m 21.62109,0.230468 c -1.594,0 -2.84375,1.304704 -2.84375,2.970704 0,1.903 1.07836,3.085937 2.81836,3.085937 1.117,0 2.03311,-0.440703 2.78711,-1.345703 l -0.0977,-0.107422 c -0.403,0.351 -0.94173,0.541016 -1.55273,0.541016 -0.887,0 -1.53676,-0.451594 -1.88477,-1.308594 l -0.11523,-0.285156 3.65039,-1.335938 c -0.498,-1.47 -1.42372,-2.214844 -2.76172,-2.214844 z m 7.4043,0 c -0.301,0 -0.53648,0.733938 -0.64648,1.085938 -0.025,0.083 -0.0513,0.157703 -0.0703,0.220703 l -0.0703,0.199219 h -0.50781 l -0.0254,-0.298828 v -1.117188 l -1.97071,0.529297 v 0.107422 l 0.40625,-0.166016 v 5.13086 h -0.43359 v 0.171875 h 2.80078 v -0.171875 h -0.6289 v -3.488282 l 0.0488,-0.07422 c 0.344,-0.528 0.83566,-0.607422 1.09766,-0.607422 0.314,0.021 0.59651,0.101359 0.85352,0.193359 l 0.56445,-1.58789 -0.19141,-0.06641 -0.16992,0.28711 -0.24414,-0.125 c -0.344,-0.171 -0.5015,-0.222657 -0.8125,-0.222657 z m 11.38086,0 c -0.766,0 -1.3498,0.459313 -1.9668,0.945313 L 293.3125,74.25 293.2793,73.664062 v -0.644531 l -2.21485,0.603516 v 0.130859 L 291.51367,73.625 v 4.996094 h -0.44922 v 0.171875 h 2.68946 v -0.171875 h -0.49805 v -4.070313 l 0.10156,-0.08984 c 0.303,-0.266002 0.68219,-0.597657 1.24219,-0.597657 0.564,0 0.97266,0.362375 0.97266,0.859375 v 3.896485 h -0.48438 v 0.173828 H 297.75 v -0.173828 h -0.43555 v -4.175782 c 0,-1.02 -0.50773,-1.515625 -1.55273,-1.515625 z m -58.83789,0.002 c -1.592,0 -2.84375,1.302749 -2.84375,2.96875 0,1.903 1.08036,3.08789 2.81836,3.08789 1.104,0 2.04106,-0.452656 2.78906,-1.347656 l -0.0996,-0.107422 c -0.402,0.352 -0.94073,0.542969 -1.55273,0.542969 -0.887,-0.002 -1.53686,-0.453547 -1.88086,-1.310547 l -0.11914,-0.285156 3.65234,-1.335938 c -0.5,-1.47 -1.42767,-2.212891 -2.76367,-2.21289 z m 52.13476,0.09375 -2.19921,0.623046 v 0.142578 l 0.45898,-0.08984 v 4.921875 h -0.48633 v 0.171875 h 2.64844 v -0.171875 h -0.42188 z m 12.68946,0.113281 c 1.244,0 1.65039,2.169015 1.65039,2.916015 0,0.286 6e-5,1.152344 -0.96094,1.152344 -1.244,-0.001 -1.65234,-2.167062 -1.65234,-2.914062 0,-0.285 -1.1e-4,-1.154297 0.96289,-1.154297 z m -65.2168,0.166015 c 0.896,0 1.2475,1.082063 1.4375,1.664063 l 0.0879,0.269531 -0.25781,0.123047 -1.96875,0.748047 -0.0762,-0.335938 c -0.02,-0.088 -0.0414,-0.172718 -0.0684,-0.261718 -0.072,-0.268 -0.1543,-0.573516 -0.1543,-0.978516 0,-0.77 0.373,-1.228516 1,-1.228516 z m 40.04883,0 c 0.895,0 1.24845,1.079157 1.43945,1.660157 l 0.0879,0.269531 -0.25781,0.126953 -1.9707,0.748047 -0.0723,-0.335938 c -0.018,-0.088 -0.0454,-0.172718 -0.0664,-0.261718 -0.076,-0.268 -0.1582,-0.573516 -0.1582,-0.978516 0,-0.77 0.37505,-1.228516 0.99805,-1.228516 z m -19.54102,2.183594 h 0.66992 v 1.523438 c 0,1.016 -0.54495,1.228515 -1.00195,1.228515 -0.318,0 -1.06445,-0.131468 -1.06445,-1.355469 0,-0.808999 0.59048,-1.396484 1.39648,-1.396484 z m 44.98828,3.451172 0.24805,0.15625 0.0391,0.02148 c 0.434,0.272 0.87891,0.553063 0.87891,1.289063 0,0.482 -0.2932,0.769531 -0.7832,0.769531 -0.539,0 -0.82227,-0.482937 -0.82227,-0.960937 0,-0.397 0.0963,-0.743297 0.27734,-1.029297 z M 101.82031,94.527344 99.744141,96.898438 55.904297,146.92578 45.796875,158.46094 h 15.337891 22.853515 3.494141 l 2.085937,-2.80469 2.552735,-3.43164 h 4.748047 l -0.933594,6.23633 h 8.070313 13.31445 10.88477 21.11914 4.44531 5.40625 15.67578 10.88672 36.875 10.88477 20.64843 4.4336 l 1.87109,-4.02149 3.57422,-7.68164 1.67188,6.48438 1.34375,5.21875 h 5.38867 11.35156 15.33789 22.85547 3.49219 l 2.08593,-2.80469 2.55274,-3.43164 h 4.74805 l -0.9336,6.23633 h 8.07227 22.85351 6.68164 l 0.26758,-6.67774 1.98828,-50.02734 0.28516,-7.228516 h -7.23438 -23.8789 -3.15235 l -2.07617,2.371094 -24.7832,28.281252 9.63086,-20.77539 4.57812,-9.876956 h -10.88672 -20.64648 -4.45508 l -1.85937,4.046875 -3.59375,7.808591 -1.5293,-6.496091 -1.26172,-5.359375 h -5.50781 -17.67383 -10.85351 -39.95704 -4.43945 l -1.86719,4.029297 -2.21484,4.773439 c -3.908,-5.842004 -11.61873,-8.802736 -22.92773,-8.802736 h -26.08594 -4.43946 l -1.86914,4.029297 -10.01757,21.617189 0.73242,-18.41797 0.28711,-7.228516 h -7.23438 -23.8789 z m 1.125,2.482422 h 2.02539 23.87891 4.65039 l -0.18555,4.646484 -1.22656,30.83984 15.24805,-32.896481 1.19922,-2.589843 h 2.85546 26.08594 c 10.584,0 17.65458,2.670546 21.01758,7.935544 0.75,1.176 1.43777,2.70424 1.75977,4.61524 l 4.61718,-9.960941 1.20118,-2.589843 h 2.85351 39.95703 6.97852 0.82422 20.72656 3.54101 l 0.8125,3.445314 3.1836,13.52539 6.61133,-14.369142 1.19726,-2.601562 h 2.86133 20.64648 6.99805 l -2.94336,6.349614 -16.89453,36.44921 36.16797,-41.275387 1.33594,-1.523437 h 2.02539 23.8789 4.6504 l -0.18555,4.646484 -1.99024,50.02734 -0.17187,4.29297 h -4.29492 -22.85547 -5.1875 l 0.76953,-5.13086 0.16406,-1.10547 h -8.87695 l -3.29883,4.4336 -1.33984,1.80273 h -2.2461 -22.85547 -9.85937 -16.83008 -3.46484 l -0.86328,-3.35547 -3.4043,-13.19921 -6.49805,13.9707 -1.20117,2.58398 h -2.85156 -20.64844 -6.99805 -0.17578 -40.58593 -6.99805 -19.5625 -3.93945 l -0.49415,-3.91015 -0.16211,-1.27539 -1.19921,2.59375 -1.19922,2.59179 h -2.85742 -21.11915 -6.99804 -17.19922 -5.189454 l 0.769532,-5.13086 0.166015,-1.10547 h -8.880859 l -3.296875,4.43555 -1.341797,1.80274 H 83.986328 61.132812 51.273438 l 6.498046,-7.41602 43.837896,-50.029297 z m 2.02539,4.468754 -43.837888,50.02929 H 83.986328 L 88.625,145.27148 h 16.3125 l -0.93359,6.23633 h 22.85547 l 1.99023,-50.02929 z m 46.41992,0 -23.1875,50.02929 h 21.11915 l 7.42968,-16.05859 h 0.39258 l 2.0293,16.05859 h 24.90429 l -5.36328,-16.25586 c -0.543,-1.459 -1.506,-2.25732 -2.25,-2.98633 l 0.18946,-0.39843 c 1.13212,-0.282 2.20124,-0.57875 3.21093,-0.89649 0.50485,-0.15887 0.99456,-0.32185 1.47071,-0.49218 3.33306,-1.19248 5.97744,-2.68684 8.15429,-4.77149 0.31098,-0.29781 0.61377,-0.60693 0.90625,-0.92969 0.58463,-0.64513 1.13398,-1.34276 1.65235,-2.09765 3e-4,-4.5e-4 -3.1e-4,-0.002 0,-0.002 0.25901,-0.37725 0.51148,-0.76859 0.75586,-1.17578 2.8e-4,-4.7e-4 -2.9e-4,-0.001 0,-0.002 0.48928,-0.81539 0.95042,-1.69122 1.38867,-2.63672 0.18243,-0.39341 0.35038,-0.77995 0.50391,-1.1582 2.3e-4,-5.8e-4 -2.4e-4,-0.001 0,-0.002 1.69067,-4.16645 1.64804,-7.41829 0.30859,-9.88085 -0.24354,-0.44774 -0.53082,-0.86937 -0.85742,-1.26563 -0.4896,-0.59401 -1.06899,-1.13273 -1.73047,-1.61523 -4.3e-4,-3.2e-4 -0.002,3.1e-4 -0.002,0 -0.44134,-0.32183 -0.91845,-0.61851 -1.42969,-0.89258 -1.27811,-0.68519 -2.76635,-1.22394 -4.42383,-1.62695 -1.32598,-0.32242 -2.75983,-0.55765 -4.28125,-0.7129 -1.52142,-0.15524 -3.12994,-0.23046 -4.80469,-0.23046 z m 57.53516,0 -23.18945,50.02734 h 40.58594 l 6.375,-13.66602 h -18.83594 l 2.2207,-4.91211 h 16.62891 l 6.03515,-13.0039 h -16.6289 l 2.26367,-4.77735 h 18.20703 l 6.29492,-13.66796 z m 47.75977,0 -23.18946,50.02929 h 20.64844 l 11.50781,-26.27539 6.77539,26.27539 h 20.64844 l 23.18945,-50.02929 h -20.64648 l -11.67773,27.73437 -6.5293,-27.73437 z m 86.26953,0 -43.83789,50.02929 h 22.85547 l 4.63867,-6.23633 h 16.3125 l -0.9336,6.23633 h 22.85352 l 1.99023,-50.02929 z m -178.2461,14.41406 h 1.17774 c 1.82025,0 3.43067,0.17759 4.14844,0.60742 0.35888,0.21492 0.50783,0.40858 0.5664,0.7793 0.0586,0.37072 -0.0269,0.98744 -0.43359,1.87109 -0.78488,1.67871 -1.95971,2.56504 -3.41602,3.09375 -1.45758,0.52917 -3.20234,0.65039 -4.94336,0.65039 h -0.33203 z m 181.86133,4.13672 c -0.41205,1.46661 -0.86378,2.93024 -1.10937,4.41992 v -0.01 L 344,132.65039 h -6.58203 z m -237.98828,0.01 c -0.41027,1.4637 -0.85983,2.92372 -1.10547,4.41016 l -1.45898,8.20117 h -6.583986 z m 311.25,0.13867 c 0.938,5.4 1.40805,10.8734 1.37305,16.40039 -0.087,13.791 -3.11686,27.30974 -9.00586,40.30274 l -13.5625,-5.77734 c 1.717,-5.662 2.96698,-11.49733 3.70898,-17.48633 1.277,-10.298 1.05144,-20.59242 -0.60156,-30.73242 z m -229.39648,10.56446 c -2.178,1.628 -4.59419,2.84531 -7.24219,3.82031 l 2.27539,6.89453 z m -10.65235,39.46093 c -7.518,0.59602 -14.79668,1.23765 -21.80468,1.93165 -3.11794,0.30875 -6.15516,0.62493 -9.11329,0.94921 -5.91624,0.64857 -11.51563,1.32844 -16.80664,2.04297 -5.291,0.71456 -10.27451,1.46433 -14.95898,2.25 -7.02672,1.17846 -13.38108,2.44011 -19.095704,3.79297 -5.568059,1.31822 -10.510732,2.72688 -14.892578,4.22656 -0.02241,0.008 -0.04794,0.0138 -0.07031,0.0215 v 0.002 c -3.833812,1.3149 -7.24204,2.69969 -10.207032,4.16602 -1.157688,0.57252 -2.249862,1.1572 -3.279296,1.7539 -1.544151,0.89507 -2.944875,1.81824 -4.207032,2.76954 -5.479,-12.053 -13.262062,-19.06986 -22.414062,-23.38086 z m 215.60547,10.0625 12.40821,5.28711 c -7.99201,14.194 -19.17535,27.08915 -33.27735,38.36915 l -4.52539,-5.81055 c 11.059,-11.124 19.70453,-23.8677 25.39453,-37.84571 z m -137.89062,8.21094 c -7.771,0 -13.08008,4.47992 -13.08008,11.29492 0,6.592 5.27742,11.07032 12.85742,11.07032 4.029,0 7.58031,-1.25219 9.94531,-4.11719 2.143,-2.615 2.39889,-5.22906 2.46289,-8.28906 h -12.4414 v 4.2832 h 5.11719 c -0.256,2.42 -2.33374,3.64453 -5.05274,3.64453 -4.125,0 -6.36523,-3.31045 -6.36523,-6.56445 0,-3.2 2.14453,-6.6211 6.26953,-6.6211 2.527,0 4.34989,1.3359 5.21289,3.33789 l 5.94922,-2.16796 c -2.08,-3.923 -5.918,-5.8711 -10.875,-5.8711 z m -106.08399,0.69532 v 20.9746 h 13.78516 v -4.61914 h -7.51563 v -16.35546 z m 66.61914,0 -9.27539,20.9746 h 6.65235 l 1.66406,-3.64453 h 8.63476 l 1.56641,3.64453 h 6.68555 l -9.08399,-20.9746 z m 63.35742,0 v 11.79492 c 0,2.698 0.1274,5.36743 2.5254,7.39843 2.016,1.724 5.18209,2.33594 7.99609,2.33594 2.814,0 5.98009,-0.61094 7.99609,-2.33594 2.398,-2.03 2.52539,-4.70043 2.52539,-7.39843 v -11.79492 h -6.26562 v 11.04296 c 0,2.726 -0.22686,5.70313 -4.25586,5.70313 -4.029,0 -4.25391,-2.97713 -4.25391,-5.70313 v -11.04296 z m -99.43554,0.002 v 20.97265 h 13.72265 v -4.61718 h -7.45117 v -3.61719 h 7.06836 v -4.61719 h -7.06836 v -3.50586 h 7.45117 v -4.61523 z m 136.21484,0 v 20.97265 h 13.7207 v -4.61718 h -7.45312 v -3.61719 h 7.06836 v -4.61719 h -7.06836 v -3.50586 h 7.45312 v -4.61523 z m -96.7793,6.47851 h 0.0645 l 2.55859,6.67578 h -5.21289 z m 141.48633,29.11328 3.88282,4.98829 c -26.396,18.656 -59.08441,30.24572 -94.19141,33.51171 35.917,-4.788 67.31059,-18.532 90.30859,-38.5 z"/>
</svg>
