<?xml version="1.0" encoding="UTF-8" standalone="no"?>
<svg xmlns="http://www.w3.org/2000/svg" version="1.1" id="svg2" width="266" height="266" viewBox="0 0 266 266">
  <path d="M 150.59961 10.59375 C 149.40471 11.116738 146.83165 12.86857 142.88086 15.849609 C 137.96033 19.577899 135.5 22.223815 135.5 23.791016 C 135.5 24.237769 136.18839 24.890875 137.57031 25.748047 C 138.95049 26.605217 139.63867 27.854259 139.63867 29.494141 C 139.63867 31.059561 139.11647 32.402818 138.07227 33.521484 C 137.02983 34.640153 135.72362 35.197266 134.1582 35.197266 L 132.48047 32.177734 C 131.36003 30.242669 129.94482 29.273438 128.23047 29.273438 C 127.70837 29.273438 127.00093 29.494641 126.10742 29.941406 C 125.21214 30.389928 124.61443 30.613281 124.31836 30.613281 C 122.60047 30.613281 121.10938 28.750666 119.8418 25.021484 C 118.79758 21.965981 118.31237 19.876659 118.38867 18.759766 C 116.67345 28.080499 115.81445 33.186743 115.81445 34.082031 C 115.81445 37.437146 116.48627 39.115234 117.83008 39.115234 C 118.20238 39.115234 118.77961 39.00268 119.56055 38.779297 C 120.34503 38.554147 120.92281 38.443359 121.29688 38.443359 C 122.19217 38.443359 123.17745 39.020773 124.25977 40.175781 C 125.34031 41.33257 125.88281 42.35666 125.88281 43.251953 C 125.88281 44.296155 125.17058 45.900517 123.75586 48.0625 C 120.9982 47.165441 119.50834 46.71875 119.2832 46.71875 C 117.6433 46.71875 116.31859 47.632063 115.3125 49.458984 C 114.30641 51.285897 113.28251 52.199219 112.23828 52.199219 C 110.89447 52.199219 109.1056 51.677191 106.86914 50.634766 C 105.15303 49.738593 103.43702 48.844334 101.72266 47.947266 C 104.48032 51.750909 106.53118 54.622647 107.875 56.558594 C 110.70534 60.438467 113.018 62.376953 114.80859 62.376953 C 115.85102 62.376953 116.96899 61.595243 118.16211 60.025391 C 119.35259 58.462623 120.17628 57.679688 120.62305 57.679688 C 123.53406 57.679688 125.32028 59.39838 125.99219 62.826172 C 122.41369 64.689436 120.7707 66.779645 121.07031 69.087891 C 121.36815 71.176307 121.51758 72.069327 121.51758 71.771484 C 121.51758 74.30577 117.64115 76.542933 109.88672 78.482422 C 116.74409 79.822704 121.63053 80.494141 124.53711 80.494141 C 128.34075 80.494141 130.20356 79.263452 130.13086 76.802734 L 130.13086 73.785156 C 130.13086 71.849205 131.62072 70.876953 134.60352 70.876953 C 135.94647 70.876953 137.0986 71.437975 138.06836 72.556641 C 137.17308 74.423451 136.72852 75.988094 136.72852 77.253906 C 136.72852 78.744869 137.58273 80.161683 139.29883 81.501953 C 141.01407 82.843123 141.87109 83.890176 141.87109 84.634766 C 141.87109 85.978586 141.27336 87.880014 140.08203 90.339844 C 139.03515 92.503604 137.99183 94.25348 136.95117 95.59375 C 138.14163 94.70024 140.30558 93.134888 143.43555 90.898438 C 149.32583 86.724267 152.27344 83.630074 152.27344 81.615234 C 152.27344 81.244714 151.58171 80.606406 150.20508 79.712891 C 148.82316 78.819374 148.13281 77.629454 148.13281 76.136719 C 148.13281 73.152133 149.84974 71.399944 153.2793 70.876953 C 154.99542 74.831289 156.9346 76.804688 159.0957 76.804688 C 159.54247 76.804688 160.23066 76.581703 161.16406 76.136719 C 162.09569 75.686418 162.71017 75.462891 163.00977 75.462891 C 165.17087 75.462891 167.22066 79.26753 169.16016 86.873047 C 170.65199 80.237287 171.39648 75.315572 171.39648 72.109375 C 171.39648 68.754264 170.94106 67.076172 170.02539 67.076172 C 169.72135 67.076172 169.10921 67.188554 168.19531 67.410156 C 167.27964 67.63531 166.55708 67.748047 166.02344 67.748047 C 165.184 67.748047 164.15635 67.188981 162.9375 66.070312 C 161.71868 64.948988 161.10742 63.982938 161.10742 63.162109 C 161.10742 62.566441 161.81787 61.188263 163.23438 59.025391 C 165.76956 59.621066 167.44676 59.917969 168.26758 59.917969 C 170.28065 59.917969 171.62104 59.008381 172.29297 57.179688 C 172.96576 55.353656 173.89655 54.4375 175.08789 54.4375 C 176.72689 54.4375 180.45564 56.080501 186.27148 59.359375 C 183.28865 55.109863 181.08981 51.94157 179.67773 49.849609 C 177.14343 46.120431 174.8657 44.255859 172.85352 44.255859 C 171.21452 44.255859 170.01999 45.03828 169.27539 46.605469 C 168.52991 48.17001 167.71169 48.953125 166.81641 48.953125 C 165.54793 48.953125 164.54148 48.502896 163.79688 47.609375 C 163.49727 47.313314 162.90115 46.344778 162.00586 44.703125 L 165.81055 42.017578 C 167.15171 41.124953 167.82227 40.153759 167.82227 39.111328 C 167.82227 38.512112 167.634 37.583817 167.26172 36.314453 C 166.88766 35.047755 166.70312 34.153851 166.70312 33.630859 C 166.70313 32.513084 168.19492 31.506613 171.17773 30.611328 C 174.45661 29.71604 176.91693 29.046368 178.55859 28.599609 C 171.02576 27.256674 166.06894 26.585938 163.68359 26.585938 C 159.8817 26.585938 157.82909 27.108131 157.53125 28.152344 C 157.45856 28.302143 157.51235 28.974667 157.70117 30.166016 C 157.8864 31.358258 157.98047 32.065675 157.98047 32.289062 C 157.98047 34.523731 156.8976 35.644531 154.73828 35.644531 C 153.6923 35.644531 152.16345 34.939757 150.15039 33.521484 C 151.04392 30.54044 151.1196 28.192505 150.375 26.474609 C 150.15162 25.87894 149.25685 24.871581 147.69141 23.455078 C 146.42206 22.263722 145.78906 21.143814 145.78906 20.099609 C 145.78906 18.084772 147.39341 14.918614 150.59961 10.59375 z M 143.77344 35.201172 C 148.54505 35.201172 152.68348 36.954951 156.1875 40.458984 C 159.69155 43.964786 161.44531 48.103201 161.44531 52.873047 C 161.51799 57.94427 159.85985 62.137902 156.46484 65.453125 C 153.07338 68.770126 148.84291 70.429688 143.77344 70.429688 C 139.00272 70.429687 134.80803 68.696205 131.19141 65.228516 C 127.5748 61.764381 125.80456 57.644666 125.88086 52.873047 C 125.95354 48.027861 127.74402 43.870212 131.24805 40.404297 C 134.75031 36.93661 138.9256 35.201172 143.77344 35.201172 z M 143.77344 37.103516 C 139.44858 37.103516 135.70481 38.652479 132.5332 41.746094 C 129.36511 44.838828 127.78125 48.54996 127.78125 52.873047 C 127.78125 57.272361 129.34856 61.002912 132.47852 64.056641 C 135.60849 67.11569 139.37412 68.642578 143.77344 68.642578 C 148.31991 68.642578 152.1226 67.150597 155.18164 64.166016 C 158.23891 61.188521 159.76758 57.42128 159.76758 52.873047 C 159.76758 48.622647 158.18174 44.934466 155.01367 41.802734 C 151.84382 38.669231 148.09654 37.103516 143.77344 37.103516 z M 42.5625 75.298828 C 35.363798 75.298828 30.676179 79.011816 28.5 86.4375 C 26.775991 84.563966 24.56354 83.623047 21.861328 83.623047 C 19.386091 83.623047 17.322186 84.449454 15.673828 86.099609 C 14.023673 87.749755 13.197266 89.813834 13.197266 92.289062 C 13.197266 94.389589 13.610465 95.852506 14.435547 96.675781 C 12.709731 97.576525 11.922741 99.227236 12.072266 101.625 C 10.196926 101.85199 8.678477 102.6802 7.515625 104.10156 C 6.350976 105.53013 5.7714844 107.17756 5.7714844 109.05469 C 5.7714844 111.07955 6.7084972 113.06824 8.5820312 115.01562 C 6.2563183 116.8189 5.0976562 119.10478 5.0976562 121.88086 C 5.0976562 123.68054 5.999002 125.66952 7.796875 127.8457 C 9.596555 130.02189 11.395788 131.10938 13.197266 131.10938 C 18.745812 131.10938 22.122482 128.96827 23.322266 124.69336 C 27.824148 125.52023 31.0472 126.86881 33 128.74414 C 35.25184 130.84466 36.376953 134.03173 36.376953 138.30664 C 36.376953 140.18198 36.281849 141.34291 36.091797 141.79688 C 35.90534 142.24544 35.23121 142.75329 34.068359 143.31445 C 32.905507 143.8783 32.059694 144.16016 31.539062 144.16016 C 31.313886 144.16016 31.011576 144.12437 30.638672 144.04688 C 30.258559 143.97298 29.959871 143.93359 29.738281 143.93359 C 28.387184 143.93359 26.435811 144.68492 23.886719 146.18555 C 21.71054 147.46099 20.397784 148.32306 19.949219 148.77344 L 23.097656 148.99805 C 25.122513 148.54948 26.623049 148.32422 27.597656 148.32422 C 29.624319 148.32422 31.799296 148.69786 34.125 149.44727 C 35.095993 152.37287 35.662984 153.94685 35.8125 154.17383 L 36.376953 154.17383 C 38.400012 151.09871 39.789651 149.52297 40.539062 149.44727 C 40.911976 150.42188 41.249779 151.39665 41.548828 152.37305 C 42.227981 153.79621 43.050784 154.77281 44.025391 155.29883 C 44.025391 154.77281 44.436792 153.79621 45.263672 152.37305 C 46.086947 150.94988 46.725565 150.23633 47.177734 150.23633 C 47.626299 150.23633 48.71183 150.94988 50.439453 152.37305 C 52.16527 153.79621 53.662201 154.54735 54.939453 154.62305 C 55.314163 153.12242 55.541354 151.99942 55.615234 151.25 L 57.080078 151.25 C 57.452982 151.25 58.221914 151.39657 59.384766 151.69922 C 60.548521 151.99827 61.465223 152.14844 62.142578 152.14844 C 64.691661 152.14844 65.96875 151.69956 65.96875 150.79883 L 62.818359 149.22461 C 65.443112 148.62476 67.279974 148.39931 68.332031 148.54883 C 68.557217 147.7976 67.9186 147.19842 66.417969 146.74805 C 65.365913 146.45081 64.353649 146.29688 63.380859 146.29688 L 62.03125 146.29688 C 61.353895 146.37256 60.865446 146.41016 60.566406 146.41016 C 60.116035 146.3354 58.89433 145.97666 56.908203 145.33984 C 54.922067 144.70301 53.611292 143.91619 52.972656 142.97852 C 52.33404 142.04085 52.015625 140.55627 52.015625 138.5332 C 52.015625 137.25777 52.237275 135.27073 52.689453 132.57031 C 53.215477 129.27002 53.889771 127.16651 54.714844 126.26758 C 55.23907 125.66769 57.265519 124.88085 60.791016 123.90625 C 64.089519 122.93164 66.303914 122.44141 67.431641 122.44141 L 72.71875 122.66602 C 73.841075 124.91606 75.60809 126.04297 78.005859 126.04297 C 79.50649 126.04297 80.840908 125.44197 82.001953 124.24219 C 83.164814 123.04061 83.744141 121.69385 83.744141 120.19141 C 83.744141 118.01704 82.771316 116.36541 80.820312 115.24219 C 81.870571 112.84351 82.396484 110.96454 82.396484 109.61523 C 82.396484 104.8143 79.994446 101.06369 75.195312 98.363281 C 75.793402 97.314829 76.095703 96.60306 76.095703 96.226562 C 76.095703 94.19989 75.269452 92.777906 73.621094 91.949219 C 72.495174 91.574518 71.666959 91.351061 71.144531 91.275391 C 70.393312 88.274121 69.042945 85.800602 67.09375 83.849609 C 64.8419 81.673421 62.253871 80.585938 59.330078 80.585938 C 58.501391 80.585937 57.188498 80.755981 55.390625 81.09375 C 54.600012 81.241353 54.178243 81.344684 53.908203 81.427734 C 53.761267 81.219577 53.3401 80.735495 52.466797 79.800781 C 49.61507 76.79952 46.313181 75.298828 42.5625 75.298828 z M 244.45508 77.816406 C 236.50515 84.358156 229.59175 91.977632 223.71484 100.66992 C 216.51115 111.27048 212.9082 120.71275 212.9082 128.99219 C 212.9082 136.6911 215.0196 143.02532 219.24414 147.99414 C 223.71482 153.21107 229.75846 155.81641 237.37695 155.81641 C 244.16487 155.81641 249.88024 153.45706 254.51953 148.73633 C 259.15498 144.01947 261.47466 138.22184 261.47266 131.34766 C 261.47266 126.71318 259.85812 121.95383 256.62891 117.06641 C 254.55686 114.25395 251.53601 109.94395 247.56055 104.14844 C 244.33135 99.262967 242.71875 94.254661 242.71875 89.119141 C 242.71875 86.883314 243.29501 83.11667 244.45508 77.816406 z M 38.964844 102.30078 C 39.335949 102.30078 40.427048 102.45291 42.228516 102.75195 L 42.228516 107.70117 L 38.964844 103.98828 L 38.964844 102.30078 z M 51.791016 102.30078 C 54.264446 103.42491 55.952782 104.17607 56.853516 104.55078 C 57.001243 107.47458 55.314714 109.94991 51.791016 111.97656 L 51.791016 102.30078 z M 32.435547 107.25195 C 33.262427 108.60126 34.237361 109.91415 35.363281 111.19141 C 34.612062 111.19141 33.372456 110.98375 31.648438 110.57031 C 29.924428 110.15689 28.611671 109.9904 27.710938 110.0625 C 27.710938 109.01404 29.284761 108.07703 32.435547 107.25195 z M 60.566406 114.79102 L 63.039062 117.82812 C 59.066799 118.57934 55.390684 119.85296 52.015625 121.65625 C 53.137941 120.30784 54.468452 119.08524 56.007812 117.99805 C 57.547182 116.91086 59.067573 115.84218 60.566406 114.79102 z M 250.04688 116.69141 C 251.70317 117.60336 253.15305 119.44602 254.39453 122.21875 C 255.63697 124.99633 256.25781 127.41621 256.25781 129.48438 C 256.25781 133.54123 254.72463 135.57227 251.66211 135.57227 C 248.76243 135.57227 247.31641 134.12237 247.31641 131.22461 L 248.92773 126.25586 C 249.92304 123.02665 250.41992 120.54233 250.41992 118.80273 C 250.41992 117.89172 250.295 117.18953 250.04688 116.69141 z M 29.736328 116.81836 C 31.460347 116.81836 33.166584 117.53011 34.855469 118.95508 C 36.542556 120.38005 37.386719 121.95568 37.386719 123.67969 L 37.386719 125.14258 C 32.362399 120.34344 27.859721 118.05397 23.884766 118.27734 C 25.686243 117.30455 27.634003 116.81836 29.736328 116.81836 z M 202.00195 177.65234 C 199.76343 177.65234 196.5616 177.92585 192.39648 178.46289 C 191.08529 178.61973 189.11465 179.23485 186.49414 180.31445 C 183.56173 181.47337 182.0957 182.47727 182.0957 183.32617 C 182.0957 186.95153 182.7504 189.53338 184.0625 191.07617 C 187.53471 194.00948 190.34889 196.12932 192.51172 197.44141 C 188.26815 195.89864 185.91623 195.04957 185.45117 194.89453 C 183.13884 194.35567 181.63323 194.01037 180.9375 193.85352 C 180.01294 190.38133 179.35466 187.60496 178.97266 185.52148 C 169.71502 193.0047 165.08594 202.37898 165.08594 213.64258 C 165.08594 221.20424 167.7453 225.48609 173.07031 226.48633 C 176.9245 227.25954 179.51029 227.79925 180.82422 228.10742 C 182.98155 228.57065 184.18133 228.84227 184.41016 228.91797 C 185.72041 230.76893 186.37695 232.00288 186.37695 232.62109 C 186.37695 232.77426 186.2978 233.04399 186.14648 233.42969 C 185.99151 233.81538 185.91602 234.12487 185.91602 234.35742 L 184.98828 248.24023 C 184.83327 250.32464 185.14463 251.94655 185.91602 253.10547 C 186.68557 254.26073 188.22882 254.83789 190.54297 254.83789 C 190.77367 254.83789 190.96605 254.76059 191.12109 254.60742 L 191.4707 251.83008 C 191.62388 250.90368 191.70117 250.32638 191.70117 250.0957 C 191.70117 249.78754 191.60312 249.19039 191.41211 248.30273 C 191.21839 247.41602 191.12109 246.81798 191.12109 246.50977 C 191.1986 246.2791 191.66097 244.81199 192.51172 242.10938 L 193.4375 242.10938 C 194.82528 247.12527 195.78752 250.90437 196.33008 253.44922 C 197.87287 253.52672 199.18233 253.52672 200.26562 253.44922 L 201.65234 242.57227 L 203.04102 242.57227 C 203.65924 242.49937 204.04595 242.65128 204.19727 243.03516 L 204.19727 251.25195 C 204.04595 251.25195 204.23664 251.32927 204.77734 251.48242 C 207.09151 249.93966 208.9047 248.70571 210.2168 247.7793 C 210.29246 246.85289 210.17733 245.73594 209.86914 244.42383 C 209.79163 243.80746 209.87131 243.30563 210.10938 242.91992 L 211.9043 242.91992 C 212.863 245.38727 213.34375 246.89451 213.34375 247.42969 C 213.34375 247.81907 213.24178 248.39843 213.05078 249.16797 C 212.85887 249.9403 212.76172 250.52045 212.76172 250.9043 C 212.76172 251.75504 213.07125 253.3354 213.68945 255.65234 C 215.61792 255.26204 217.31596 254.91559 218.78125 254.60742 C 219.32196 251.9869 219.5918 250.09551 219.5918 248.9375 L 219.24414 245.23242 C 219.01344 243.22641 218.89844 242.03394 218.89844 241.64453 L 218.89844 232.27148 C 218.89844 230.03667 220.74924 228.60844 224.45117 227.99023 C 230.16002 227.06382 233.55333 226.33367 234.63477 225.79297 C 238.33671 223.94201 240.18945 220.46851 240.18945 215.37695 L 240.1875 215.37695 L 240.1875 214.45117 C 240.11006 213.68161 240.07227 212.40997 240.07227 210.63281 C 239.22151 205.54127 237.56305 200.79795 235.0957 196.39844 C 234.24495 194.93685 233.128 193.2748 231.74023 191.42383 C 229.88925 188.95647 228.65349 187.7207 228.03711 187.7207 C 228.57598 187.7207 227.07035 188.49421 223.52344 190.03516 C 219.97558 191.58162 217.2747 192.30992 215.42188 192.23242 C 220.12682 189.68665 223.44641 187.29907 225.37305 185.06055 C 219.43351 180.12311 211.6434 177.65234 202.00195 177.65234 z M 82.189453 178.23828 C 80.838324 178.23828 78.470307 178.42907 75.089844 178.80273 C 71.10554 179.25339 68.963324 179.6656 68.664062 180.04102 C 71.293699 180.26767 73.095839 180.41964 74.074219 180.49414 C 84.065966 181.39461 89.064453 183.12335 89.064453 185.67773 C 89.064453 186.6561 85.417713 187.7456 78.130859 188.94531 C 82.262138 190.29731 84.593394 190.97656 85.121094 190.97656 C 86.846741 190.97656 88.762769 190.41049 90.869141 189.28516 C 92.970201 188.15804 94.548819 187.59375 95.601562 187.59375 C 97.854909 187.59375 99.696823 188.7584 101.125 191.08789 C 102.40088 193.04197 103.04102 195.22115 103.04102 197.625 C 103.04102 199.50295 102.58902 200.44141 101.68945 200.44141 C 101.01123 200.44141 100.03547 199.50295 98.757812 197.625 C 97.856468 196.19863 97.180264 195.14519 96.730469 194.46875 C 96.57641 194.99557 96.503906 195.52291 96.503906 196.04883 C 96.503906 199.20352 97.948279 202.13123 100.8418 204.83789 C 103.73353 207.54457 106.7587 208.97056 109.91602 209.12109 C 109.76375 211.14954 109.23941 213.25443 108.33984 215.43164 C 107.28533 218.28881 106.08264 219.97975 104.73242 220.50391 C 103.83018 219.60345 103.37891 218.32687 103.37891 216.67383 C 103.37891 215.92388 103.62169 214.75658 104.11133 213.17969 C 104.60096 211.60279 104.84375 210.4735 104.84375 209.79883 C 104.09205 210.09986 103.24606 210.90694 102.30664 212.22266 C 101.36724 213.53658 100.82454 214.64378 100.67578 215.54688 C 100.14982 218.69981 99.997756 221.40876 100.22266 223.66211 C 100.44757 225.61796 99.620304 227.79465 97.744141 230.20117 C 95.864438 232.60503 93.948226 233.80469 91.994141 233.80469 C 90.716508 233.80469 89.551858 233.54244 88.5 233.01562 C 87.147996 232.33917 86.472656 231.43572 86.472656 230.30859 C 86.472656 228.5068 88.088423 226.66682 91.318359 224.78711 C 95.828594 222.08485 98.458339 216.78718 99.210938 208.89648 C 99.435824 208.89648 97.478944 210.04256 93.347656 212.33398 C 89.214598 214.62717 85.755831 215.77148 82.976562 215.77148 C 82.301887 215.77148 80.966939 215.50835 78.976562 214.98242 C 76.984407 214.45649 75.388989 214.19531 74.1875 214.19531 C 68.77858 214.19531 64.249084 216.0935 60.607422 219.88477 C 56.960459 223.6805 55.138672 228.28532 55.138672 233.69336 C 55.138672 238.80213 56.902972 243.4227 60.4375 247.55664 C 64.043735 251.91459 68.362274 254.13078 73.398438 254.20508 C 88.725617 254.50434 99.658374 252.7404 106.19531 248.91016 C 105.06733 248.91016 102.28763 248.85265 97.853516 248.74023 C 93.421186 248.62779 92.143725 248.57227 94.023438 248.57227 C 93.648909 248.57227 93.196033 248.32947 92.671875 247.83984 C 92.144175 247.35022 91.882812 246.92033 91.882812 246.54492 C 91.882812 245.34256 93.459662 244.40105 96.615234 243.72461 C 98.718066 243.27482 100.67495 243.04883 102.47852 243.04883 C 112.31976 243.04883 118.89331 239.10555 122.20117 231.21484 C 123.02725 229.26253 123.43945 227.79566 123.43945 226.81641 C 121.10819 229.37168 118.51771 231.28947 115.66406 232.56445 C 114.38643 233.16653 111.67991 234.03089 107.54688 235.15625 C 108.67488 233.41996 110.77818 230.96661 113.85938 227.79688 C 116.93793 224.62535 119.04547 222.0215 120.16992 219.98242 C 121.89734 216.96498 122.76562 213.60545 122.76562 209.90625 C 122.76562 202.88588 119.68122 195.44461 113.52148 187.59375 C 114.4972 190.03037 115.21073 191.86069 115.66406 193.07812 C 116.86554 196.20093 117.46875 198.79192 117.46875 200.84961 C 117.46875 202.44776 117.05353 203.59097 116.22656 204.27539 C 111.41793 186.91886 100.07193 178.23828 82.189453 178.23828 z M 67.988281 182.75195 C 65.433903 182.75195 62.804512 184.29255 60.099609 187.37109 C 57.543451 190.15568 56.041219 192.89277 55.587891 195.59766 C 57.090412 194.5458 58.180986 193.75835 58.857422 193.23242 C 60.436103 192.10531 61.561837 191.50589 62.238281 191.42969 C 62.688943 193.45994 63.027247 195.03678 63.253906 196.16211 C 65.282364 192.55677 66.822256 190.49077 67.875 189.96484 L 70.806641 189.51367 C 72.307401 189.13825 73.058594 188.27212 73.058594 186.92188 C 73.058594 184.14262 71.368753 182.75195 67.988281 182.75195 z M 77.681641 193.34375 C 77.154826 193.34375 76.70353 193.53261 76.328125 193.90625 C 78.131686 194.66062 79.895986 196.27585 81.626953 198.75586 C 83.052445 200.7852 84.669103 201.79883 86.472656 201.79883 C 87.824668 201.79883 89.195853 201.36698 90.585938 200.50195 C 91.976014 199.63868 92.669922 198.5667 92.669922 197.28906 C 92.669922 194.6603 91.4303 193.34464 88.951172 193.34375 C 87.898428 193.34375 86.941386 193.86999 86.078125 194.92188 C 85.213083 195.9746 84.594162 196.5 84.21875 196.5 C 83.765422 196.5 82.732151 195.9746 81.117188 194.92188 C 79.500442 193.87091 78.358084 193.34375 77.681641 193.34375 z M 182.21484 203.57422 C 185.53108 203.57422 188.63668 205.05712 191.53125 208.02734 C 194.42398 210.99941 195.87109 214.14468 195.87109 217.46094 C 195.87109 220.2383 193.28255 221.58922 188.11719 221.51172 L 181.75195 221.51172 C 178.81863 221.43606 176.54606 221.1622 174.92578 220.69531 C 172.37908 219.92024 171.10547 218.21032 171.10547 215.57227 C 171.10547 212.54485 172.22438 209.7876 174.46289 207.30273 C 176.70048 204.8197 179.28242 203.57422 182.21484 203.57422 z M 223.18164 203.69141 C 226.18693 203.69141 228.84804 204.91601 231.16406 207.35938 C 233.47824 209.80456 234.63477 212.5807 234.63477 215.6875 C 234.63477 219.4937 232.12642 221.43602 227.11328 221.51172 L 213.80664 221.51172 C 211.18244 221.51172 209.87109 220.16265 209.87109 217.46094 C 209.87109 214.22035 211.27865 211.11476 214.0957 208.14453 C 216.91091 205.17431 219.94105 203.69141 223.18164 203.69141 z M 200.26758 218.50195 C 200.49826 218.50195 200.68873 218.61719 200.84375 218.85156 L 200.84375 222.89844 C 200.84375 221.82073 201.1136 225.36883 201.6543 233.54688 C 201.80932 233.70001 202.04141 233.77734 202.34961 233.77734 C 202.81282 233.77734 203.04297 233.23767 203.04297 232.15625 L 204.31641 218.61719 C 205.551 221.3955 206.40008 223.55305 206.86328 225.09766 C 207.40216 226.17908 207.94354 227.22252 208.48242 228.22461 L 208.48242 231.8125 C 208.48242 235.97671 208.09561 238.05859 207.32422 238.05859 C 205.24258 237.13404 203.4655 236.66992 202.00391 236.66992 C 200.53496 236.66992 199.64803 236.74732 199.33984 236.90234 C 198.56845 237.28804 197.87604 237.55971 197.25781 237.71289 C 196.63775 236.94058 196.33203 234.89622 196.33203 231.57812 C 196.33203 225.56202 197.64338 221.20552 200.26758 218.50195 z "/>
</svg>
