<?xml version="1.0" encoding="UTF-8"?>
<svg id="Layer_2" data-name="Layer 2" xmlns="http://www.w3.org/2000/svg" viewBox="0 0 999.76 1130.38">
  <defs>
    <style>
      .cls-1 {
        stroke-width: 0px;
      }
    </style>
  </defs>
  <g id="Layer_1-2" data-name="Layer 1">
    <path class="cls-1" d="m74.62,875.38c-19.38-13.27-31.55-29.09-36.56-47.46-10.73-39.87-23.07-70.74-20.23-113.28,1.23-18.41.55-34.78-2.04-49.07-8.82-48.09-4.67-93.3-10.31-142.79-4.45-39.36,5.26-77.14.3-114.08-11.54-86.22-10.31-154.25,46.27-224.31,36.13-44.83,73.67-96.95,128.54-107.81,44.83-8.91,87.83-11.75,135.03-6.49,29.05,3.27,53.95-2.93,76.42-13.06,53.65-24.09,98.39-13.95,151.11-28.97,67.3-19.04,212.64-49.58,272.65-5.17,70.23,52.04,121.04,100.51,122.65,185.42.81,46.14,7.59,90.8,23.79,133.59,10.81,28.84,9.84,59.12,19.04,85.33,33.21,94.32,15.9,215.19-7.29,310.44-9.2,37.87-35.33,60.52-48.39,96.44-19.34,53.52-34.73,97.88-67.52,148.69-21.97,34.01-39.7,77.44-66.29,102.55-88.47,83.38-201.19,33.72-304.33-11.11-70.06-30.45-142.88-32.49-218.54-6.19-3.27,1.19-6.87,1.15-10.14-.08-94.32-35.03-102.84-136.56-184.23-192.63l.04.04ZM486.16,101.27c-148.86,9.54-254.25,26.12-312.94,80.88C55.79,291.69,41.28,422.44,41.28,570.24c0,106.7,22.69,203.44,83.76,281.56,76.93,98.48,169.85,181.47,374.82,183.81,70.32.81,137.32.98,190.72-20.95,152.89-62.89,283.85-254.25,275.2-455.65-9.8-228.21-50.13-244.11-175.07-366-47.41-46.23-40.29-84.69-96.36-105.43-59.2-21.88-144.36,9.54-208.23,13.66l.04.04Zm26.8,51.44c230.46,0,417.57,187.11,417.57,417.57s-187.11,417.57-417.57,417.57S95.4,800.74,95.4,570.29s187.11-417.57,417.57-417.57Zm0,67.81c-193.05,0-349.76,156.71-349.76,349.76s156.71,349.76,349.76,349.76,349.76-156.71,349.76-349.76-156.71-349.76-349.76-349.76Zm-158.32,355.91c1.87,12.17,13.15,14.8,19.17,14.25,5.39-.47,14.67-4.96,14.67-17.22v-108.99c0-12.77,10.35-23.11,23.11-23.11h46.18c12.77,0,23.11,10.35,23.11,23.11v104.12c1.19,11.2,6.96,20.31,24.09,20.27,12.68,0,22.48-3.69,24.09-20.14l10.18-105.26c1.19-12.17,12.04-22.05,24.22-22.05h44.15c12.17,0,21.12,9.88,19.93,22.05l-10.6,109.42c-.17,6.79-.76,16.41,11.75,17.22,14.93.98,15.99-8.48,17.69-15.01l18.87-95.93c2.21-11.24,13.15-20.36,24.39-20.36h40.76c11.24,0,18.58,9.12,16.37,20.36l-25.06,127.27c-2.21,11.24-13.15,20.36-24.39,20.36h-391.28c-11.07,0-22.05-8.99-24.6-20.02l-26.59-116.8c-2.5-11.07,4.41-20.02,15.44-20.02h40.04c11.07,0,22.05,8.95,24.6,20.02l19.68,86.43.04.04Zm359.47-201.15c18.24,0,33.08,14.8,33.08,33.08s-14.8,33.08-33.08,33.08-33.08-14.8-33.08-33.08,14.8-33.08,33.08-33.08Zm0,296.15v67.64c0,9.75-7.93,17.69-17.69,17.69h-391.83c-9.75,0-17.69-7.93-17.69-17.69v-67.64c0-9.75,7.93-17.69,17.69-17.69h391.83c9.75,0,17.69,7.93,17.69,17.69Zm-279.14-320.11c18.24,0,33.08,14.8,33.08,33.08s-14.8,33.08-33.08,33.08-33.08-14.8-33.08-33.08,14.8-33.08,33.08-33.08Zm-140.84,33.08c18.24,0,33.08,14.8,33.08,33.08s-14.8,33.08-33.08,33.08-33.08-14.8-33.08-33.08,14.8-33.08,33.08-33.08Zm285.84-33.08c18.24,0,33.08,14.8,33.08,33.08s-14.8,33.08-33.08,33.08-33.08-14.8-33.08-33.08,14.8-33.08,33.08-33.08Z"/>
  </g>
</svg>