<?xml version="1.0" encoding="UTF-8" standalone="no"?>
<svg xmlns="http://www.w3.org/2000/svg" width="595.90997pt" height="573.26526pt" viewBox="0 0 595.90997 573.26526" version="1.1">
   <path d="m 200.95019,0.00146484 c -6.24781,0.03625 -12.48738,0.54990233 -18.62988,1.52490226 -19.25,3.4400001 -38.81086,11.5610739 -51.38086,27.1010739 -0.77,-7.51 0.97067,-15.110625 4.18067,-21.8906247 -15.73001,9.9599997 -27.66002,24.9498827 -36.520021,41.1298827 -5.46,10.23 -9.80961,21.220272 -11.349615,32.780275 l -0.770505,-0.300293 c -3.099998,-7.790003 -4.20945,-16.290139 -4.189455,-24.640138 -12.709998,17.03 -15.470955,39.329998 -14.230954,59.999997 1.669999,21 8.961011,42.6512 24.791014,57.22119 -5.76,-20.19 -2.140448,-42.04999 6.789555,-60.75 2.190001,5.20001 3.899451,10.59893 6.439451,15.64893 7.3,16.09 19.99002,29.34973 35.02002,38.46973 2.57,1.39999 4.93035,3.42068 7.86035,3.95068 -3.51,-16.78 -1.59938,-34.31034 2.39062,-50.84034 0.15,-2.19999 -0.54036,-4.33899 -0.88037,-6.479 -2.16,-13.489994 0.0994,-28.010406 7.8794,-39.420406 7.45,-11.370001 20.44066,-19.260332 34.18066,-19.340333 10.59,-0.399999 21.38957,3.350742 29.05957,10.760742 8.75,8.520001 13.30043,20.598636 14.44043,32.598636 1.71,17.449991 -2.92002,35.310911 -12.52002,49.940921 14.04,19.11 33.15928,33.47038 49.75928,50.15038 15.46,-19.63999 26.45988,-42.80086 32.12988,-67.13086 5.58,-23.63 2.42045,-48.950464 -7.53955,-70.980463 C 289.00986,39.976346 273.9705,23.166348 255.0205,13.006348 238.513,4.0813475 219.69363,-0.10728516 200.95019,0.00146484 Z M 167.86963,104.82715 c -6.07,7.98999 -8.46926,17.97943 -10.23926,27.66943 -1.58,9.67 -2.13067,19.54006 -1.18066,29.31006 0.65,5.22 1.33982,10.62041 3.56982,15.42041 14.19,8.94 26.95043,22.09033 30.94043,38.84033 -2.65,-4.16 -5.06015,-8.54096 -8.66015,-11.98096 -13.65,-13.97 -32.11954,-21.4099 -48.26954,-31.8999 -13.88,-8.37 -26.84021,-19.48891 -33.47021,-34.6289 -3.450001,14.61 -2.320726,30.98921 6.25927,43.69921 -14.609996,-4.4 -30.048956,-4.81032 -45.18896,-4.34033 9.310001,5.01 17.259729,12.4302 23.469729,20.9502 2.659995,4.08 5.679922,9.54056 3.16992,14.33056 -2.409998,3.92 -6.600525,6.19926 -10.290525,8.73926 -18.640003,11.04 -39.209709,19.41115 -55.199709,34.43115 11.74,-1.94 23.960214,-4.04003 35.720214,-1.04003 6.49,1.54999 12.700684,5.77941 15.200684,12.1494 3.349996,7.77 2.339626,16.52983 0.619629,24.56983 -1.12,4.28 -1.770918,8.81988 -4.190919,12.62988 2.590001,-1.45 4.521016,-3.75034 6.791018,-5.61034 7.519995,-6.31001 15.649545,-11.85946 24.039549,-16.93946 12.73,-7.57 26.23933,-14.23936 40.81933,-17.33935 -8.67,-2.93001 -17.94909,-4.29996 -27.0791,-4.95996 7.7,-9.16001 18.5494,-15.12123 29.6294,-19.26123 16.58,-5.83001 34.7706,-8.32005 52.1206,-4.79004 -16.65,0.85999 -33.31087,4.83027 -48.15088,12.53027 -1.99999,1.29 -4.68951,2.06988 -5.7495,4.37988 9.18999,1.41 18.2305,3.78 27.0205,6.75 -16.75,7.42 -30.46965,21.75103 -37.13965,38.81104 9.62001,-5.73 21.24006,-8.1212 32.31006,-6.22119 7.83,1.14 15.63879,4.42109 21.00879,10.37109 6.06,6.36 8.15093,15.73953 6.96094,24.26953 -1.58,9.6 -6.46105,18.98937 -14.58106,24.60938 2.19,0.12 4.39008,0.1105 6.58008,0.0205 0.35,0.17 1.05014,0.51995 1.39014,0.68994 l -0.52002,-0.72949 c 5.14,-0.27 10.29986,-1.1505 15.10986,-3.02051 -1.39,4.08 -3.76887,7.71971 -6.58887,10.94971 -3.72,4.2 -7.80996,8.39059 -13.20996,10.35058 9.39,0.07 18.64992,-2.43048 27.16992,-6.25048 10.74,-4.87001 21.11957,-12.30986 26.05958,-23.35987 -4.93001,1.09001 -10.61043,2.27967 -15.19044,-0.59033 -2.33,-1.34 -3.13037,-4.07887 -3.13037,-6.58886 -0.22999,-7.47 1.89051,-14.74063 3.77051,-21.89063 -2.81,3.09 -6.82037,7.00994 -11.38037,5.18994 -3.29,-1.84 -3.93969,-5.9799 -3.67969,-9.3999 0.77,-8.25 3.70004,-16.19986 7.79004,-23.35987 -9.5,-3.00999 -19.70964,-4.06002 -29.63964,-3.52002 9,-3.34999 18.55953,-4.83074 28.01952,-6.26073 12.18,-1.24001 24.64051,-2.57993 36.77051,-0.16993 3.78,0.74 8.29936,2.74098 8.33935,7.25098 -0.06,6.77 -3.34915,13.00008 -6.88915,18.58008 7.33999,0.02 14.71947,-0.0506 21.95947,1.35937 6.77,1.37 14.10963,3.41076 18.61963,9.03077 5.21,6.6 5.75025,15.9099 3.01025,23.6499 7.58,-3.95001 13.91045,-10.01053 18.71045,-17.04053 10.14,-14.53 15.06994,-32.81922 12.68995,-50.44922 -3.53001,7.78 -10.22995,14.85931 -18.68995,17.04931 1.18,-7.71999 -5.10967,-14.30945 -12.15967,-16.18944 3.01001,-15.6 -2.8906,-31.40091 -11.6206,-44.17091 -15.43,-22.81999 -39.2702,-37.84992 -56.9502,-58.66992 -12.72999,-14.27 -23.50972,-32.17947 -22.71972,-51.95947 -4.02,5.82001 -5.75942,12.85903 -6.89942,19.74903 -1.22,8.77 -1.61037,18.29074 2.11963,26.51074 8.34,9.98 18.65908,18.06 28.05908,27 15.64001,14.09999 30.67098,30.29951 37.25098,50.74951 -7.83,-15.66 -20.82989,-27.76889 -33.62988,-39.35889 -14.13,-12.82999 -28.91065,-25.10005 -41.16064,-39.81006 -11.87001,-14.08999 -20.99012,-31.88053 -19.62012,-50.79052 z m 308.83886,92.96924 c -3.42672,0.0235 -6.80713,0.68687 -10.08838,1.64062 -13.86,3.92 -25.68963,12.6002 -36.61963,21.70019 -5.95,4.71 -11.38,10.14996 -18,13.95996 -2.35,1.48 -5.1708,1.7903 -7.8208,1.0503 -0.43,-1.35 -1.21924,-2.70111 -0.71923,-4.14111 2.04999,-7.2 6.70905,-13.22946 11.03906,-19.18946 -16.12001,9.11 -29.41997,22.48031 -40.95997,36.82031 -10.89999,14.24001 -20.72937,29.83057 -25.35937,47.33057 18.44,-21.66 42.77006,-37.89021 69.06006,-48.47021 18.19,-7.10001 37.86926,-11.97032 57.48926,-9.82032 -5.05001,0.9 -10.20878,1.02033 -15.23877,2.09034 -21.28001,3.88999 -41.32018,12.98917 -59.43018,24.65917 -30.3,19.77 -56.13078,46.03997 -77.05078,75.45996 6.99,1.85 13.18078,5.90967 18.55078,10.65968 7.56,5.91 14.76938,12.25036 22.35938,18.13036 13.66,-31.30999 31.3301,-61.03999 53.60009,-87 13.70001,-16.12 34.97053,-25.15937 56.04053,-24.60937 11.68,0.2 23.57879,3.37899 33.00879,10.45899 6.65,-5.35001 14.56012,-8.80974 22.62012,-11.46973 11.73,-4.00001 23.94124,-6.6203 36.28125,-7.80029 10.14,-0.75 20.50944,-0.94868 30.43945,1.61132 -11.9,-12.84 -26.66002,-22.85113 -42.52002,-30.16113 -14.05,-6.22 -29.31002,-10.25916 -44.77002,-9.88916 -12.34,-0.16 -24.44076,2.93922 -36.03076,6.94922 -3.69,1.23 -7.38955,2.6007 -11.28955,2.9707 -2.76,0.39 -5.09051,-2.51039 -4.52051,-5.15039 0.55,-3.14 3.03121,-5.46006 5.24121,-7.56006 4.8,-4.22 10.33016,-7.58971 16.16016,-10.19971 -0.49125,-0.0238 -0.98264,-0.0341 -1.47217,-0.0308 z m -246.17871,32.86083 c 12.48,4.71 22.40994,15.23045 26.93994,27.71045 -5.73,-0.03 -11.69043,-1.67015 -15.94043,-5.66015 -6.16999,-5.75001 -8.97951,-14.0903 -10.99951,-22.0503 z M 63.449706,266.52685 c -12.47,11.67 -23.44041,24.88022 -33.42041,38.72021 C 17.779297,322.76706 6.22,341.27697 0,361.89697 c 8.5000004,-7.06 17.310488,-13.92961 27.250488,-18.84961 -10.59,21.93 -15.080195,46.47998 -14.950195,70.72997 0.55,25.08001 5.689863,50.14915 15.859863,73.11915 5.79,12.79 12.959902,25.20121 22.899902,35.24121 1.85,1.66 3.489805,3.83988 6.049804,4.37988 -0.72,-1.52 -1.52998,-3.03998 -1.72998,-4.72998 -0.96,-6.7 -1.559863,-13.5 -0.859863,-20.25 0.4,0.54 1.209863,1.62943 1.609863,2.16944 8.01,13.33 19.699549,24.04974 32.289552,32.98974 18.489996,12.96 39.921206,21.76047 62.241206,25.23047 20.05,2.79 40.63004,1.49982 60.29004,-3.18018 21.94,-5.23999 42.50885,-15.68002 60.06885,-29.77002 26.84,-21.63 46.68109,-50.8107 61.37109,-81.7207 -16.25,-14.59 -33.31129,-28.21896 -50.07129,-42.18897 -10.5,19.01001 -24.53871,36.1203 -41.42871,49.8003 -12.6,9.92 -27.23089,18.22881 -43.4209,20.02881 -14.69,1.32 -29.90039,-2.59924 -41.90039,-11.21924 -11.25999,-7.94 -19.63926,-19.56062 -24.48925,-32.39062 -7.74,-19.90001 -7.37026,-42.2601 -1.51025,-62.6001 7.32999,-25.56 22.83968,-48.20996 41.92968,-66.45996 -4.87,-2.45 -10.51941,-2.94008 -15.89941,-2.83008 -13.82,0.81 -26.39033,8.45094 -35.84033,18.21094 -0.07,-14.94 4.7403,-29.99031 13.57031,-42.07032 -13.33001,4.62 -25.31061,12.37997 -37.120606,19.95996 -12.99,8.89001 -25.959533,18.19948 -36.269533,30.20948 -0.01,-10.1 1.36959,-20.14981 3.329589,-30.04981 1.32,-7.30999 3.519805,-14.61913 3.049805,-22.11913 -0.01,-2.64 -1.509629,-4.87075 -2.869629,-7.01075 z m 163.400394,18 c -4.29,8.53 -3.69057,19.35016 1.41943,27.41016 7.19,10.52 20.18105,15.15947 27.33105,25.70947 5.06,7.75 2.94956,17.48078 5.28956,26.05078 2.88999,13.8 13.44947,24.12941 24.20946,32.39942 17.29001,13.71999 34.23989,27.84105 50.87989,42.33105 6.73,5.96 11.86074,13.88902 13.76074,22.74902 4.43,18.4 -2.63047,37.41985 1.76953,55.83985 4.4,20.04999 20.64016,36.59021 40.16015,42.47021 -14.88,-16.22 -14.97954,-44.00021 0.71046,-59.72021 1.02999,15.42 6.83004,30.41101 16.04004,42.79101 10.69999,14.64 26.82894,25.29933 44.66894,28.81934 19.07,4.09999 39.17088,1.25082 57.15088,-5.90919 12.5,-5.3 25.24025,-12.19046 33.01025,-23.73046 -6.61,2.47 -13.72996,3.04941 -20.70996,2.39941 -13.48,-1.35 -26.98031,-5.78921 -37.57031,-14.44922 16.41,1.92 33.48926,0.0591 48.48926,-7.13085 17.38,-7.89 32.01009,-22.42975 38.60009,-40.48975 5.77,-15.26 5.24017,-32.75041 -1.31982,-47.67041 -6.59,-15.29 -19.03969,-27.64961 -33.67969,-35.34961 -14.54,-7.66 -31.28035,-10.59022 -47.61035,-9.47021 10.41,2.97999 20.04016,9.30052 25.91015,18.54052 6.05001,9.08 7.15995,21.1192 2.93995,31.1792 -3.96,9.91 -12.99981,16.67047 -22.54981,20.73047 -12.03,4.8 -25.4707,6.50043 -38.2207,3.94043 9.6,-6.94 14.69135,-18.65998 15.63135,-30.22998 1.53,-16.08 -3.65108,-33.05016 -15.10108,-44.66016 -2.65999,-2.5 -5.34912,-5.1997 -8.84911,-6.44971 5.65999,12.91001 -0.50106,29.50028 -13.08106,35.78028 -7.06,3.72 -15.73887,3.82865 -23.08887,0.86865 -8.97,-3.32 -15.57021,-10.53881 -22.97021,-16.27881 -16.99,-14 -33.9202,-28.05999 -50.95019,-41.99999 -4.64001,-3.75 -9.13047,-7.89016 -14.73048,-10.16016 -8.13,-3.59 -17.17939,-3.47057 -25.87939,-3.83057 -3.65,-0.32 -7.83983,-0.80961 -10.31982,-3.84961 -4.4,-5.58 -3.9702,-13.08081 -5.9502,-19.59081 -1.12,-4.60001 -3.8609,-8.98969 -8.1709,-11.1797 -10.77,-5.56999 -23.89885,-1.68922 -34.56885,-7.69921 -7.72,-3.50001 -13.26039,-11.55065 -12.65038,-20.16065 z"/>
</svg>
