<?xml version="1.0" encoding="UTF-8"?>
<svg id="Layer_2" data-name="Layer 2" xmlns="http://www.w3.org/2000/svg" viewBox="0 0 1015.87 320.27">
  <defs>
    <style>
      .cls-1 {
        stroke-width: 0px;
      }
    </style>
  </defs>
  <g id="Layer_1-2" data-name="Layer 1">
    <path class="cls-1" d="m419.13,177.04l-36.45,72.04c-1.37,2.67-4.1,4.35-7.08,4.35l-65.25.1h-.03c-1.49,0-2.73-1.24-2.73-2.73,0-.44.1-.86.29-1.24l110.55-217.2c1.21-2.35,3.62-3.84,6.25-3.84l90.93-.35c2.19,0,4-1.75,4.13-3.94.29-5.91.41-11.49.29-16.76-.1-4,1.46-6.1,4.67-6.32,19.4-1.37,38.77-1.49,58.13-.44,1.02.06,1.52.6,1.56,1.62l.83,21.21c.13,2.86,1.59,4.25,4.44,4.25l84.11.06c1.81,0,3.27,1.46,3.27,3.27v35.24c0,2.41-1.97,4.38-4.35,4.41l-30.35.48c18.35,22.26,36.23,44.51,53.59,66.83.41.54.79,1.75,1.21,3.65l63.4-.06c1.52,0,2.79-1.27,2.79-2.79l-.06-21.27c0-2.67-1.33-4-4-4h-77.25c-2.03,0-3.68-1.65-3.71-3.68l-.32-34.77c0-2.79,1.37-4.19,4.16-4.22,1.4,0,190.79.32,191.68.32,3.68,0,4.51.64,6.45,3.27,8.79,11.94,15.59,23.37,24.35,34.7,3.59,4.64-2.1,4.51-2.29,4.51h-64.29c-2.29.03-3.94,1.4-3.97,3.68l-.03,18.86v.03c0,2.83,2.32,5.14,5.14,5.18,24.38.03,85.25.19,85.25.19,0,0,1.68-.6,4.64,3.08.35.41,23.08,32.8,23.08,32.8,0,0,3.52,4.44-4.1,4.41h-109.57c-3.59-.19-4.03,2.86-4.03,4.95l.13,20.51s.03,2.1.03,2.1c.03,3.3,2.73,3.94,6,3.91h.06c.48,0,129.95-.03,131.29-.06,4.38,0,5.24,1.65,8.1,5.33.38.51,34.35,49.09,34.99,50.77,2.64,6.92-1.84,5.62-2.79,5.84-.13.03-361.09.03-361.09.03l-29.37,14.26c-20.16,11.05-40.67,21.08-61.56,30.07-6.03,2.6-18.03-3.71-23.62-6.45-30.42-14.83-60.96-29.4-91.63-43.72-5.84-2.73-6.29-6.98-8.13-14.1-3.78-14.64-7.4-29.91-10.86-45.85-1.05-10.45-3.37-21.27-6.95-32.51h.1Zm269.81,8.32l-6.16,27.97h75.53c5.27.35,5.84-1.81,5.75-4.79l-.32-23.5c0-1.56-1.3-2.86-2.86-2.86h-69.37c-.73,0-2.19,1.02-2.57,3.17Zm-229.01,61.75c.25,1.11,1.02,2.06,2.06,2.57l91.5,44.04c1.05.51,2.29.51,3.33-.03l91.06-44.29c1.05-.51,1.81-1.46,2.06-2.6l22-98.52c.25-1.14-.03-2.32-.76-3.24l-63.31-78.39c-.73-.89-1.81-1.4-2.95-1.43l-101.31.1c-1.17,0-2.25.54-2.98,1.43l-62.77,78.77c-.73.92-.98,2.1-.73,3.24l22.86,98.33-.06.03Zm107.63-92.23l-97.79,8.1c-.35.03-.7-.25-.73-.6l-5.84-40.58c-.06-.38.22-.73.57-.76l142.11-23.56c.22-.03.48.03.64.19l40.51,42.35c.22.25.25.6.06.89l-54.45,73.95c-.1.13-.13.25-.13.41,0,.25.13.48.35.6l26.67,13.81c.22.13.38.35.38.6,0,.16-.06.32-.16.44l-37.69,42.35c-.22.25-.64.32-.92.1l-85.12-62.77c-.29-.19-.38-.6-.19-.89l20.32-32.86c.19-.29.57-.41.89-.22l28.96,15.14c.32.19.73.06.92-.25l21.27-35.37c.06-.1.1-.25.1-.38,0-.38-.32-.7-.7-.7h-.06.03ZM228.89,55.43l20.03-.03c0,2.57,2.64,3.33,2.64,3.33h26.61s2.92-.03,2.64,2.22l.19,8.35c0,.89-.19,1.84-1.81,1.81h-25.21c-.79.03-1.37.57-1.4,1.87,0,.16.03.35.03.51-.1,1.59,1.27,1.84,1.27,1.84h24.51c2.1.03,3.87,1.4,4.13,3.49,0,.13.03,26.42.03,26.73-.03,3.84-3.52,4.13-3.52,4.13h-24.67s-1.78.06-1.81,2c-.06,2.98,2.38,2.51,2.38,2.51,0,0,33.85.16,50.77-.19h.03s.98.25,1.46-.57c.48-.86-.76-1.62-1.11-1.75l-16.29-5.75c-1.02-.41-2.79-1.08-2.48-4.25v-8.51c-.03-1.62,1.71-2.73,3.37-2.76h.06l73.82-.1c1.49-.6,1.52.57.1,3.52-11.56,24-36.1,69.6-36.1,69.6l-17.21-.03s-8.67-.67-8.67,5.33c0,18.26-13.62,18.1-13.62,18.1h-69.72s-2.73.54-2.64-2.67v-12c-.19-3.08,2.92-2.64,2.92-2.64l46.74-.16c.89,0,2.41-.29,2.32-1.78-.16-2.64-2.54-2.22-2.54-2.22,0,0-47.78-.32-66.96-.32-.79,0-1.71-1.33-1.75-2.13l-.03-10.29s.03-2.41,2.1-2.29h67.53s1.71.13,1.68-1.97c-.03-2.13-1.68-2.25-1.68-2.25l-67.47.06c-1.02,0-2.13-.79-2.13-1.84v-11.56c0-1.56.79-2.1,2.32-2.1h66.74s1.59.16,1.59-1.87c0-1.91-1.62-2.79-1.62-2.79l-13.56.03.1,2.29-25.97-.03-.06-2.19-27.15.06s-2.25.19-2.35-2.29l.06-8.64c0-.79.64-1.08,1.46-1.08h25.4s1.78-1.11,1.78-2.16-.76-2.32-1.81-2.32l-22.54-.03c-2.48-.06-4.73-.25-4.35-4.35v-26.42c.03-1.81,1.68-3.52,3.46-3.56h23.65s1.33-.16,1.37-1.94c.06-2.44-1.49-2.25-1.49-2.25,0,0-20.7.06-25.65.22-.89.03-1.33-.41-1.33-1.3l.03-9.43c-.03-1.75,2-1.91,2-1.91,0,0,16.83-.19,25.4,0,1.84.03,4.25-1.24,4.13-3.3l-.13-.03Zm-3.37,31.97c.03-1.24-.95-2.38-3.49-2.32-2.29.06-3.37.89-3.37,2.1,0,1.08,1.17,1.91,3.46,1.91s3.37-1.05,3.4-1.68Zm75.44,41.59c.03,1.59,2.19,1.71,2.19,1.71h38.45s1.68.06,1.65-1.81c-.03-1.91-1.27-1.46-1.91-1.87-.29-.16-36.16,0-36.16,0,0,0-4.25-.57-4.22,1.97Zm33.66,19.62v-.38c0-1.08-.89-1.94-1.94-1.94l-28.73-.06c-1.08,0-1.94.89-1.94,1.94v.38c0,1.08.92,1.78,2,1.78h28.58c1.08,0,2.06-.64,2.06-1.71h-.03Zm-108.81-48.7c-.35-1.52-1.3-2.35-3.75-2.48-1.65-.1-3.4.95-3.33,2.38-.03,1.27,1.75,1.91,3.4,2,3.18.19,3.68-1.87,3.68-1.87v-.03Zm34.96-.16s-.76-2.32-3.62-2.32c-1.65,0-3.84.7-3.84,2.32,0,1.24.89,1.84,3.91,1.94,2.64.1,3.56-.89,3.56-1.94Zm71.18,4.13l1.71,1.49c.6.51,1.24.54,1.87.03l2.95-2.29c.13-.1.22-.22.29-.38.25-.51.03-1.14-.51-1.4-.13-.06-.29-.1-.44-.1h-10.76c-.29,0-.57.1-.83.29-.51.41-.64,1.08-.29,1.49.16.19.41.32.7.32l4.13.06c.44,0,.86.19,1.21.48h-.03Zm-71.66-16.8s-.76-2.25-3.84-2.19c-2.51.06-3.37,1.33-3.43,1.91.03,1.27,1.27,2.44,3.91,2.41,1.87-.03,3.37-.7,3.4-2.13h-.03Zm-74.04,26.96c.25.03.54.06.51.06h-73.63c-.98,0-1.46.48-1.46,1.46v1.37c0,.98.48,1.46,1.46,1.46l56.04-.03c2.51,0,4.6,2.1,4.6,4.6l-.13,38.74c0,1.94-1.59,3.52-3.52,3.56l-58.1.13c-.86,0-1.52,1.17-1.52,2.03,0,.67.29,1.52.92,1.75.86.29,2.1.19,3.49.22,19.97.35,43.62,0,63.6.44,2.95.06,3.46,2.13,3.49,3.11l.19,12.13v.03c0,.95-.76,1.71-1.71,1.75h-.03c-29.59-.1-59.15-.06-88.71.03-12.16.03-14.83-3.05-14.45-17.02.06-2.79-1.37-4.41-4.1-4.44l-53.05-.13c-1.46,0-2.64-1.21-2.64-2.67l-.03-40.61c0-1.71.79-3.52,3.14-3.62.38,0,1.14-.03,1.14-.03l54.96.03s1.52.16,1.43-2.44c-.06-2.25-1.43-2.35-1.81-2.38l-74.77.38c-.86,0-1.56-.73-1.56-1.56l.19-26.07c.03-3.75,3.11-8.7,8.73-8.67,23.5.16,67.47,0,67.47,0,0,0,1.46.13,1.3-2.67-.06-1.21-1.43-1.71-1.43-1.71,0,0-37.59.16-57.02,0-.57,0-1.97-.44-1.97-1.02v-13.37c0-1.46,1.21-2.67,2.67-2.67h151.99c1.02,0,1.87.86,1.87,1.87v10.7c0,2.51-.48,4.48-2.98,4.48h-58.07c-.92,0-1.49.38-1.68,1.27v1.46c-.16.86.16,1.62,1.02,1.62,23.75-.1,43.78-.06,68.04,0,7.75.03,8.06,6.13,8.16,8.06l.03,25.27s.38,3.18-1.97,3.08h-.1Zm-74.61-20.29c-.29.48-.67,14.16-.1,13.56,1.11-1.17,7.4-7.56,8.1-7.59.35-.03,1.08-.06,1.08-.06h34.96c1.11,0,2.86.22,2.95-2.06.03-.76.19-1.27.06-2.41.38-2.67-2.06-2.38-2.79-2.38-6.83,0-35.53-.06-42.7.03-.64,0-1.24.35-1.56.92Zm-80.99,1.11l-.1,11.56c-.03,1.43.41,1.59,1.37.51l4.98-5.87c.41-.48,1.14-1.4,1.81-1.4,11.14.03,25.46-.06,37.31,0,1.81,0,1.75-1.97,1.78-3.11v-2.03c.06-.89-.6-1.65-1.46-1.71h-.06c-14.67-.38-28.45-.1-43.05-.22-1.02,0-2.64.67-2.51,2.29h-.06Zm46.26,39.34c0-.44-.35-.79-.79-.79h-31.91c-.44,0-.79.35-.79.79v.57c0,.44.35.79.79.79h31.91c.44,0,.79-.35.79-.79v-.57Zm68.71.29c0-.54-.44-1.02-1.02-1.02l-31.78-.06c-.54,0-1.02.44-1.02,1.02v.1c0,.54.44,1.02,1.02,1.02l31.78.06c.54,0,1.02-.44,1.02-1.02v-.1Zm-68.68,12.38c0-.32-.25-.57-.57-.57l-32.26-.13c-.32,0-.57.25-.57.57v1.11c0,.32.25.57.57.57l32.26.13c.32,0,.57-.25.57-.57v-1.11Zm68.64.38c0-.51-.41-.92-.92-.92l-32-.06c-.51,0-.92.41-.92.92v.25c0,.51.41.92.92.92l32,.06c.51,0,.92-.41.92-.92v-.25Zm226.41-68.74c-1.02,3.71-2.54,6.38-4.54,8.03l-23.21-.29c-.6,0-1.11-.51-1.11-1.14v-10.67c0-.73-.35-1.08-1.08-1.08l-23.97.1c-.57,0-1.17.19-1.24.76l-.25,10.16c-.13,1.05-.98,1.81-2.03,1.81l-25.78.03c-.76,0-1.43-.64-1.43-1.4l-.1-26.1c0-.92.35-2.73,2.16-2.54h80.49s2.54.22,2.57,2.54l-.51,19.78h.03Zm-88.33,125.22l11.33-.06c.06,0,.13-.06.13-.13l-.03-5.81c0-.06.06-.13.13-.13l4.89-.06c.06,0,.13.06.13.13l.1,16.26h0c0,.06-.06.13-.13.13h0l-4.98-.06c-.06,0-.13-.06-.13-.13l.06-6.64h0c0-.06-.06-.13-.13-.13h0l-11.4.16c-.06,0-.13.06-.13.13l.03,6.7c0,.06-.06.13-.13.13h0l-4.95-.13c-.06,0-.13-.06-.13-.13v-16.16c0-.06.06-.13.13-.13l4.79.06c.06,0,.13.06.13.13l.13,5.75c0,.06.06.13.13.13h.03Zm-8.73,6.57h0c0,2.06-1.68,3.75-3.75,3.78l-14.03.06c-2.06,0-3.75-1.68-3.78-3.75l-.03-8.83h0c0-2.06,1.68-3.75,3.75-3.75l14.03-.06c2.06,0,3.75,1.68,3.78,3.75l.03,8.83v-.03Zm-5.21-8.79c0-.16-.16-.32-.32-.32l-10.8.06c-.16,0-.32.16-.32.32l.06,8.86c0,.16.16.32.32.32l10.8-.06c.16,0,.32-.16.32-.32l-.06-8.86Zm-119.92,6.76l.03,6.03c0,.16-.1.25-.25.25h-4.51c-.19,0-.29-.1-.29-.29l-.03-15.94c0-.1.06-.16.16-.16l4.76-.03c.1,0,.16.06.16.16l.06,4.76c0,.41.19.51.57.32,3.18-1.68,6.29-3.33,9.37-4.92.32-.16,1.11-.41,1.11-.41,0,0,4.89-.19,6.73-.13.76.03.76.19.1.48-.29.13-.79.35-1.43.7-4.16,2.16-8.29,4.35-12.41,6.57-.13.06-.13.16,0,.22l14.45,8.41s.03.03.03.06-.03.06-.06.06l-6.99.03c-.16,0-.29-.03-.41-.1l-10.86-6.25c-.16-.1-.25-.06-.25.13l-.03.03Zm69.34-6.48l-4.86,12.26c-.03.06-.06.1-.13.1l-7.4.06c-.06,0-.1-.03-.13-.1l-5.18-12.7c-.03-.06-.06-.1-.13-.1s-.13.06-.13.13l.13,12.57c0,.06-.06.13-.13.13h-4.95c-.06,0-.13-.06-.13-.13v-16c0-.06.06-.13.13-.13h9.05c.06,0,.1.03.13.1l4.83,12.54c.03.06.06.1.13.1s.1-.03.13-.1l5.24-12.54c.03-.06.06-.1.13-.1h8.54c.06,0,.13.06.13.13l.13,15.97c0,.06-.06.13-.13.13h0l-5.02-.1c-.06,0-.13-.06-.13-.13l.03-12.1c0-.06-.06-.13-.13-.13s-.1.03-.13.1l-.03.03Zm13.97,6.64l.13,5.52c0,.16-.06.22-.22.22h-4.79c-.13,0-.22-.06-.22-.22v-10.41c0-4.29.95-5.56,5.18-5.62,6.38-.1,10.6-.1,12.7,0,2.76.13,4.13,1.62,4.13,4.48,0,3.87-.03,7.75-.06,11.59,0,.1-.1.19-.19.19h-4.79c-.13,0-.19-.06-.19-.19l.03-5.59c0-.13-.06-.22-.19-.22h-11.24c-.16,0-.25.1-.25.25Zm11.68-6.95c0-.06-.06-.1-.1-.1h-11.37c-.06,0-.1.06-.1.1v3.14c0,.06.06.1.1.1h11.37c.06,0,.1-.06.1-.1v-3.14Zm-67.95-2.67v14.83c0,.41-.35.76-.76.76h-3.43c-.41,0-.76-.35-.76-.76v-14.83c0-.41.35-.76.76-.76h3.43c.41,0,.76.35.76.76Zm-52.26,3.18v1.94c0,.22.1.32.32.32l16.1-.03c.16,0,.25.1.25.25v2.98c0,.19-.1.29-.25.29l-16.22.06c-.13,0-.19.06-.19.19l.03,2.83c0,.13.13.25.25.25l16.22-.06h0c.13,0,.25.13.25.25h0l-.13,3.14c0,.13-.06.19-.19.19h-15.62c-2.54,0-5.91-.51-5.97-3.68-.06-3.05-.1-6.1-.06-9.11,0-2.67,2.67-3.52,4.89-3.52,5.59.03,11.18,0,16.76-.03.16,0,.22.06.22.22v2.95c0,.13-.06.19-.19.19l-16.29.22c-.13,0-.19.06-.19.19v-.03Zm-75.76.1v1.9c0,.19.1.32.32.32h16.07c.16,0,.32.16.32.32v2.86c0,.16-.1.25-.25.25l-16.07.03c-.22,0-.35.13-.35.35v2.89c0,.13.06.19.19.19h16.16c.22,0,.32.1.32.32v2.83c0,.13-.06.22-.19.22h-16.41c-3.75,0-5.33-.86-5.33-4.7,0-2.54,0-5.08.06-7.59.06-3.27,2.89-3.87,5.49-3.87,5.4,0,10.76,0,16.16-.03.16,0,.25.1.25.22v2.86c0,.16-.06.22-.22.22l-16.13.06c-.19,0-.32.1-.32.32l-.06.03Zm25.15,12.51h-4.79c-.1,0-.19-.1-.19-.19l-.13-15.94h0c0-.1.06-.16.16-.16h0l6.73.06c.06,0,.1.03.13.06l8.83,9.56s.06.06.13.06c.1,0,.16-.06.16-.16l.22-9.37c0-.1.1-.16.19-.16h5.02c.1,0,.19.1.19.19l.13,15.91c0,.1-.06.19-.16.19h-4.83c-.06,0-.1-.03-.13-.06l-11.14-11.72s-.06-.06-.13-.06c-.1,0-.19.1-.19.19l-.06,11.46c0,.1-.06.19-.16.19l.03-.06Zm25.3-12.41v8.73c0,.1.1.19.19.19h11.02c.16,0,.25-.1.25-.25l.1-2.89c0-.13-.06-.22-.19-.22h-5.46c-.1,0-.16-.06-.16-.16v-3.08c0-.13.06-.22.22-.22h10.48c.13,0,.22.06.22.22v9.87c0,.13-.06.16-.16.16-5.59,0-11.21.03-16.83.03-3.27,0-4.89-1.43-4.89-4.73v-7.11c-.03-2.83,1.33-4.38,4.25-4.41,7.75-.06,13.56-.06,17.4-.03.13,0,.19.06.19.19l.06,3.05c0,.16-.06.22-.22.22h-16.1c-.29,0-.41.13-.41.41l.03.03Zm-81.15-3.59c0-.06.03-.1.1-.1h0l17.4.03c2.51,0,4.6,1.81,4.6,4v8.32c0,2.19-2.1,4-4.6,3.97l-17.4-.03c-.06,0-.1-.03-.1-.1l.03-16.13-.03.03Zm16.86,3.75c0-.32-.25-.57-.57-.57l-10.54.06c-.32,0-.57.25-.57.57l.03,8.35c0,.32.25.57.57.57l10.54-.06c.32,0,.57-.25.57-.57,0,0-.03-8.35-.03-8.35Zm157.64,2.13v2.19c0,.32-.25.57-.57.57h-11.14c-.32,0-.57-.25-.57-.57v-2.19c0-.32.25-.57.57-.57h11.14c.32,0,.57.25.57.57Z"/>
  </g>
</svg>