<?xml version="1.0" encoding="UTF-8"?><svg id="Layer_1" xmlns="http://www.w3.org/2000/svg" width="43.64554" height="43.49668" viewBox="0 0 43.64554 43.49668"><path d="M23.97616,42.93163c-1.01099-.95051-.50012-4.63185-.52121-6.03229-.0232-1.54002-1.16088-5.30929,1.10759-5.8017,1.25782-.27303,2.6616.02451,3.77316-.02933.56935-.02758,1.09298-.25998,1.66237-.26945,1.84721-.03074,5.21461-.19408,6.88836.29953,1.01869.30042.91734,1.63545-.44297,1.8448-2.78627.42882-7.11017-.20396-9.99959-.2049-1.61191-.50277-1.55189,2.85712-1.32695,3.08032.37409.37121,4.77888-.10255,5.58278.22463,1.37718-.17334,7.0157-.58106,7.89239.03954.44878.31769.5703,1.25811.27223,1.67206-.4956.68826-6.25481.19439-7.41834.20785-1.89264.02189-3.80357.18322-5.69057.29979-.68915.32774-.59851,2.61545.07001,2.94114.62666.30529,7.89217.16585,9.21002.12905,1.61065-.04498,3.95227-.06377,5.47204-.27222,1.06734-.1464,1.14003-.86677,1.19027-1.85404.38759-7.61639-3.77969-15.96923-6.32226-23.08385-1.07639-3.01196-3.16302-11.72216-5.50399-13.37211-.29356-.2069-.77091-.49175-1.11264-.55992-.6748-.13461-2.30429-.26236-3.06259-.30326-2.65051-.14294-7.86506-.15714-10.44199.30947-1.7506.31698-2.48663.60425-3.23476,2.26098-1.55395,3.4412-2.49804,8.14539-3.76058,11.77008-1.47935,4.24713-3.348,8.42171-4.76318,12.6793-1.12902,3.39668-1.87961,7.48789-1.30907,11.08568.32362,2.04072,4.35533,1.2877,6.07493,1.3299,1.93853.04758,4.29986.31444,6.21563.23861,1.10332-.04368,2.43425-.52962,3.5866-.32405.58951-.13847.7118-3.31658-.54053-3.2212-1.7973.24872-3.62789.20479-5.43262.22031-1.0062.00865-2.36342-.22486-3.34916-.21247-.67815.00853-1.41195.41019-2.12394.4037-2.5126-.02292-2.7755-2.01098-.48093-2.33975,4.07209-.58346,8.14763.30913,12.17768-.48457.30781-.44235.03268-2.48015-.50937-2.61318l-10.68821.40975c-.93709-.30473-.75598-1.78842-.00063-2.0669l12.44101-.12633c.77952.32095.90772,2.27715.96552,3.06641.12955,1.76901.21856,5.40628.05828,7.17946-.2356,2.60635-2.72986,1.70775-4.65497,1.77367-3.98613.13649-8.18909.32725-12.18947.25455-1.50507-.02735-2.99147-.83908-3.41273-2.3415-.19336-.68962-.27723-2.93113-.3101-3.77265-.24906-6.37627,2.95997-12.18846,5.0366-18.13501.80234-2.29754,1.55896-4.62002,2.3907-6.92788.90174-2.5021,2.24388-8.03013,3.6986-9.92087.07776-.10107,1.33917-1.38585,1.41926-1.44799C13.76184.00138,17.21634.29532,18.76028.22624,21.685.09536,24.67208-.04013,27.59152.0111c4.09104.07179,5.21672,2.66899,6.46847,5.95792,3.28251,8.62465,5.70595,17.63084,9.15276,26.21008-.28896,3.55769,2.41472,10.61679-2.92213,11.06265-3.90299.32607-9.43746.21304-13.42914.14051-.56828-.01032-2.56087-.1456-2.88532-.45063ZM20.62201,15.68674c-.93144,4.13284,5.30436,4.65372,6.5686.59814,1.28504-4.12229-3.12132-7.0576-6.92329-6.20615-1.13998.2553-3.04586,2.05494-3.56386,3.12455-3.97812,8.21441,7.935,14.64164,13.66292,7.21159C37.2698,11.46003,24.25413.75473,15.6695,7.63162c-10.10618,8.09576-1.57359,23.26097,10.64234,19.71987.80189-.23245,5.28825-2.75004,4.52999-3.71094-4.02956,3.08649-9.15054,3.89621-13.54448,1.0026-1.44688-.95284-2.89836-2.81267-3.43411-4.45084-3.64347-11.14054,11.05975-17.86439,15.58701-7.94282,1.56372,3.42692.01838,7.68105-3.46334,9.0425-1.49784.5857-3.17069.56937-4.70521.08393-1.23342-.39019-2.44597-1.8793-2.9146-3.05935-1.36864-3.44629,1.64621-7.81765,5.30559-6.2609,1.85964.79112,2.76677,5.02814-.1426,5.35654-2.67967.30247-2.6357-2.63701-.33314-1.89673.60645-.5278-2.08555-2.0002-2.57494.17126Z"/></svg>