<?xml version="1.0" encoding="UTF-8"?><svg id="Layer_1" xmlns="http://www.w3.org/2000/svg" width="42.59625" height="50.02242" viewBox="0 0 42.59625 50.02242"><path d="M30.78615,27.32176c5.7094,7.19073,1.05903,17.52759-8.19847,18.5165-7.57484.80916-14.63281-5.52749-11.59737-13.26572,1.2006-3.06068,4.29244-5.16576,7.35112-6.04548-.06971-1.14573-.73068-2.03228-.85206-3.23112-.37237-3.67794.6687-5.79012,2.7602-8.70308.98513-1.37205,2.55827-2.65476,3.3311-4.3149.46514,1.89583-1.46708,3.17638-2.23612,4.45414-2.34184,3.89098-3.50369,7.57411-.95167,11.7527,5.69393.28674,9.49034,4.90955,7.97288,10.5613-1.49885,5.58244-11.08561,6.1289-12.90832.94558-1.50894-4.29102,2.49824-8.67443,6.73596-6.49687,2.67583,1.37498,2.37521,6.81573-1.71521,6.01518-1.40413-.2748-1.81265-2.42152-.3656-2.86152-.03581,3.04643,3.27215,1.85631,1.92893-.85328-.97654-1.96991-4.02979-1.11598-4.849.67723-1.99765,4.37277,4.77427,7.15602,8.18383,4.12333,2.23123-1.9846,2.05868-6.53857-.2269-8.37787-7.03246-5.65932-16.64068,2.6243-11.58963,10.38836,2.27857,3.50242,7.33486,3.865,11.10315,3.01064,4.86566-1.10316,6.92424-5.05372,6.69069-9.81551-.29331-5.9801-4.57106-6.54448-6.74158-10.69872-3.44154-6.58689,1.78533-8.80975,1.20757-14.82786-.20789-2.16549-1.32215-3.28262-2.12355-5.16557-.70904.25104-.38898,1.1526-.53253,1.73393-1.92104,7.77919-9.21714,8.37892-10.43828,16.08184-.33632,2.12147.39207,3.90754,1.17603,5.8373-.6053.64477-2.19753-2.91322-2.28254-3.33009-.40991-2.01029-.12584-4.80776.75343-6.6813,2.24895-4.79205,10.06862-8.08775,9.67026-13.99674-.07132-1.05791-.95798-1.77855-1.20959-2.7504,2.58662-.13844,5.06884,3.57597,5.84889,5.73715,1.04905,2.90649.93617,4.7743-.00059,7.63754-.77192,2.35938-1.8924,3.45925-1.48591,6.27448.53707,3.71957,3.56296,5.11475,5.59088,7.66883ZM35.07337,13.88569c-3.44284,1.65672-7.19118,5.23272-6.12299,9.42923.10144.3985-.24132.69743.48197.58072.00229-3.67545,2.78152-7.04399,6.21207-8.12229-.49747,3.22988-.65356,6.12903.76148,9.15495.83237,1.77993,2.48542,3.06291,3.23729,4.8866,1.68479,4.08655.94643,8.56088-3.27828,10.56784.66065-2.98722.95604-6.10485.12851-9.09059-.83998-3.03065-3.67799-6.00964-3.72259-9.20023-.01025-.73312.39602-1.4791.24433-2.25757-1.22377.77944-1.07379,3.27618-.89163,4.59737.38581,2.79823,2.5558,4.96505,3.17537,7.57703,1.01442,4.27659-.38712,10.70946-4.11156,13.35373-7.96399,5.65428-22.59186,3.32059-23.64099-7.84409-.24494-2.60657.97773-5.83953.62234-8.96351-.05552-.48801-.96359-3.02572-1.19994-3.22306-.04728-.03948-.48399-.08481-.47705.12106.01857.55142.60408,1.64007.6948,2.41162.40562,3.44993-.90752,4.6231-1.1819,7.36832-.25676,2.56891.34852,5.07751.96744,7.53839-1.71481-.38459-3.37112-1.86351-4.11238-3.41173-2.41329-5.04053,3.26336-10.37582,1.46284-16.27699-.2263-.74168-.88106-1.26364-.93203-2.05226,3.28601,1.19824,6.06375,3.43103,7.09688,6.87856.15373.51298.30268,3.18587.8136,1.86534.34344-.88767-.0795-3.42944-.45916-4.37022-1.36187-3.37471-6.61143-6.48287-10.19726-6.29303-1.47823.07826.00037.67885.35343,1.08375,5.8341,6.69082-2.64092,12.38301-.40905,19.04618.51543,1.53881,2.40715,3.3437,3.86505,4.01995,1.01797.4722,2.60559.47519,3.36655.93324.775.4665,2.3173,2.57298,3.37738,3.31397,5.85697,4.09405,17.87188,3.07489,22.77328-2.22889.6481-.70131,1.83268-3.08883,2.16306-3.33251.34073-.2513.96899-.25907,1.40085-.51065,3.70765-2.15995,5.05374-4.13568,5.06114-8.57842.00639-3.8368-4.71291-7.52634-5.65137-11.5744-.56728-2.44698-.38203-4.52158,1.09568-6.58073.29976-.4177,2.02884-1.86054,1.66571-2.27426-.16053-.1829-4.09789,1.20013-4.63289,1.45758Z"/></svg>