<?xml version="1.0" encoding="UTF-8" standalone="no"?>
<svg xmlns="http://www.w3.org/2000/svg" version="1.1" id="svg2" width="642.05518" height="292.15384" viewBox="0 0 642.05518 292.15384">
  <g aria-label="GRAND PRIX">
    <path d="m 27.113698,59.768228 q 0,-12.598958 4.148437,-23.277343 4.148438,-10.755208 11.216146,-17.976562 7.144531,-7.298176 16.593749,-11.2929679 9.526042,-4.0716144 20.127604,-4.0716144 23.584636,0 37.105466,13.5208333 L 98.8663,40.869792 98.405362,40.408854 q 0.460938,-4.148437 0.460938,-6.914062 0,-8.834635 -4.763021,-14.442708 -4.686198,-5.684896 -14.135416,-5.684896 -12.291666,0 -19.589843,11.677083 -7.298177,11.677083 -7.298177,33.187499 0,24.50651 6.837239,36.260416 6.83724,11.677084 21.510416,11.677084 7.989583,0 14.75,-3.30339 V 86.348957 q 0,-10.755208 -4.993489,-16.747396 -4.99349,-6.06901 -14.519531,-9.218749 v -0.614584 h 41.561192 v 86.579422 h -0.61458 q -8.68099,-12.7526 -21.433592,-16.51692 v -23.1237 l -13.059895,9.67969 h -6.453125 q -10.755208,0 -19.743489,-3.61068 -8.988281,-3.61068 -15.671875,-10.52474 -6.683593,-6.990885 -10.447916,-17.822916 -3.6875,-10.908854 -3.6875,-24.660156 z"/>
    <path d="m 130.80765,114.85026 v -0.61459 l 8.68099,-5.3776 V 23.277344 h 19.51302 V 22.662761 L 130.80765,5.3776052 V 4.6861989 h 43.94271 q 6.52995,0 12.44531,1.0755208 5.99219,0.9986979 11.21615,3.3033853 5.30078,2.304687 9.0651,5.608073 3.84115,3.303385 6.06901,8.220052 2.22787,4.839843 2.22787,10.755208 0,10.140624 -5.91537,17.515624 -5.91536,7.375 -15.97916,10.217448 l 38.87239,68.75651 q 6.68359,11.60026 15.59505,15.36458 l -0.15364,0.53776 q -1.22917,0.30729 -2.84245,0.30729 -5.83854,0 -13.21354,-3.30338 -7.29818,-3.30339 -15.05729,-9.29558 -7.6823,-5.91536 -15.44141,-15.28776 -7.68229,-9.29557 -13.52083,-20.43489 L 165.91572,55.696614 v -0.614583 h 4.53256 q 10.83203,0 15.4414,-5.300781 4.6862,-5.377604 4.6862,-15.364583 0,-9.141927 -5.3776,-13.904948 -5.30079,-4.76302 -17.43881,-4.76302 h -4.68619 v 80.356768 q 0,3.6875 0.84505,6.683593 0.84505,2.99609 2.15104,4.83984 1.30599,1.84375 3.14974,3.30339 1.92057,1.38281 3.53385,2.07422 1.69011,0.6914 3.6875,1.22916 v 0.61459 z"/>
    <path d="m 229.86822,114.85026 v -0.61459 l 7.91276,-5.3776 L 282.87603,1.1697412e-6 h 0.6914 L 327.27967,108.85807 l 7.83594,5.3776 v 0.61459 H 304.46326 L 292.1716,81.970051 278.95806,90.497394 H 258.9841 l -2.22787,5.300781 q -1.6901,4.455725 -1.6901,8.066405 0,7.75912 8.3737,10.37109 v 0.61459 z m 33.72525,-35.876303 h 27.50261 L 278.34347,44.326823 h -0.61458 z"/>
    <path d="M 340.19208,5.3776052 V 4.6861989 h 30.34505 l 42.17578,60.4596331 h 0.6914 V 25.044271 q 0,-4.532552 -0.53776,-7.605468 -0.53776,-3.14974 -1.45963,-5.147136 -0.84505,-1.997395 -2.76563,-3.3033849 -1.84375,-1.3828124 -3.84114,-2.0742187 -1.9974,-0.7682291 -5.45443,-1.5364582 V 4.6861989 h 36.02995 V 5.3776052 L 426.7715,10.678386 V 122.07161 h -0.6914 L 366.00458,36.644531 h -0.61459 v 57.924478 q 0,5.684891 0.61459,9.141931 0.6914,3.3802 2.61198,5.53125 1.92057,2.07421 4.14843,3.07291 2.30469,0.92188 6.60677,1.92057 v 0.61459 h -36.02994 v -0.61459 l 8.68099,-5.3776 V 16.670574 l -3.91797,-5.992188 z"/>
    <path d="m 448.15471,114.85026 v -0.61459 l 8.68099,-5.3776 V 23.277344 h 19.51302 V 22.662761 L 448.15471,5.3776052 V 4.6861989 h 43.2513 q 15.97917,0 27.8099,6.9140621 11.90755,6.914062 18.13021,19.359375 6.29948,12.445312 6.29948,28.808592 0,26.273437 -13.90495,40.716142 -13.82813,14.36589 -38.33464,14.36589 z m 32.26563,-10.21745 h 10.98567 q 13.36719,0 19.82032,-11.062499 6.45312,-11.139323 6.45312,-33.802083 0,-23.507811 -6.3763,-34.109373 -6.3763,-10.678386 -19.89714,-10.678386 h -10.98567 z"/>
    <path d="m 302.63183,147.87093 v -0.69141 h 43.9427 q 18.4375,0 29.34636,8.06641 10.90885,8.06641 10.90885,23.27734 0,7.83594 -3.30339,14.28906 -3.22656,6.45313 -8.68099,10.52474 -5.45442,3.9948 -12.21484,6.22266 -6.68359,2.15104 -13.90495,2.15104 h -0.61458 l -13.21354,-8.52734 v 70.67708 h -0.61458 q -3.38021,-4.99349 -9.60287,-9.75651 -6.22265,-4.6862 -13.36719,-6.76042 v -91.57291 h 19.51303 v -0.61458 z m 32.26562,52.85416 h 7.22135 q 19.51302,0 19.51302,-21.27994 0,-11.0625 -5.14713,-16.13281 -5.14714,-5.07032 -16.90104,-5.07032 h -4.6862 z"/>
    <path d="M 392.43389,257.34358 V 256.729 l 8.68099,-5.3776 v -85.58073 h 19.51302 v -0.61458 l -28.19401,-17.28516 v -0.69141 h 43.94271 q 6.52994,0 12.44531,1.07552 5.99218,0.9987 11.21614,3.30339 5.30078,2.30469 9.06511,5.60807 3.84114,3.30339 6.06901,8.22005 2.22786,4.83985 2.22786,10.75521 0,10.14063 -5.91536,17.51563 -5.91537,7.375 -15.97917,10.21744 l 38.8724,68.75651 q 6.68359,11.60026 15.59505,15.36459 l -0.15365,0.53776 q -1.22917,0.30729 -2.84245,0.30729 -5.83854,0 -13.21354,-3.30339 -7.29817,-3.30338 -15.05729,-9.29557 -7.68229,-5.91537 -15.4414,-15.28776 -7.6823,-9.29557 -13.52084,-20.4349 l -22.20182,-42.32942 v -0.61458 h 4.53255 q 10.83203,0 15.44141,-5.30079 4.6862,-5.3776 4.6862,-15.36458 0,-9.14193 -5.37761,-13.90495 -5.30078,-4.76302 -17.4388,-4.76302 h -4.6862 v 80.35677 q 0,3.6875 0.84505,6.68359 0.84506,2.9961 2.15105,4.83985 1.30599,1.84375 3.14974,3.30338 1.92057,1.38282 3.53385,2.07422 1.6901,0.69141 3.6875,1.22917 v 0.61458 z"/>
    <path d="m 489.8037,147.87093 v -0.69141 h 40.94661 v 0.69141 l -8.68099,5.30078 v 120.6888 h -0.61458 q -3.38021,-4.99349 -9.60286,-9.75651 -6.22266,-4.6862 -13.36719,-6.76042 V 153.17171 Z"/>
    <path d="M 540.11118,257.34358 V 256.729 l 8.68098,-5.3776 31.42058,-45.63282 -30.80599,-52.54687 -7.75912,-5.30078 v -0.69141 h 31.4974 l 21.89453,37.33594 14.28906,-20.81901 q 2.84245,-3.99479 2.84245,-8.45052 0,-2.91927 -1.76693,-4.91667 -1.76693,-1.99739 -5.45442,-2.45833 v -0.69141 h 35.26171 v 0.69141 l -8.68099,5.30078 -29.73046,42.94401 32.72656,55.38932 7.52864,5.22396 v 0.61458 h -31.42057 l -23.50781,-39.94791 -16.20964,23.43099 q -2.76562,3.99479 -2.76562,8.52734 0,6.3763 7.22135,7.375 v 0.61458 z"/>
  </g>
  <path d="m 181.82263,101.71201 c 0,0 80.63704,-40.956209 161.58299,-40.009559 145.66253,1.7035 265.8196,93.428859 292.65618,193.584299 -11.76018,-43.8895 -92.41517,-180.209589 -277.36643,-180.209589 -85.03388,0 -148.52302,42.371069 -148.52302,42.371069 l 69.27723,1.5869 -92.8918,22.04808 56.67905,59.82734 -72.43058,-40.9378 17.32822,81.8754 -37.79454,-69.2619 -50.387601,91.3305 29.911111,-102.357 -102.362111,23.6146 96.055361,-47.24451 -61.419301,-53.546079 74.017481,31.503099 -9.4397,-63.006189 29.906,59.852829 40.93769,-75.594179 z" style="opacity:0.75;stroke:#000000;stroke-width:6.71;stroke-linecap:round;stroke-miterlimit:11"/>
</svg>
