<?xml version="1.0" encoding="UTF-8"?>
<svg id="Layer_2" data-name="Layer 2" xmlns="http://www.w3.org/2000/svg" viewBox="0 0 1014 489.26">
  <defs>
    <style>
      .cls-1 {
        stroke-width: 0px;
      }
    </style>
  </defs>
  <g id="Layer_1-2" data-name="Layer 1">
    <path class="cls-1" d="m468.38.54s14.39-.54,18.63-.54c6.59,0,20.91.54,20.91.54,100.1,4.85,206.82,45.66,266.9,129.57.32.44.92.63,1.46.41,5.67-2.38,10.87-5.51,15.62-9.41.51-.44.92-.35,1.2.25,25.32,54.98,86.35,57.51,138.85,60.3.32,0,.6.25.63.6.06.92-.25,1.14-.92.7-.38-.22-.76-.35-1.2-.35-270.83.79-541.66,1.55-812.48,2.22-37.45.1-76.9.67-111.47.35-.22,0-.44-.16-.57-.41-.1-.22-.03-.32.19-.32l167.28-4.34c.44,0,.82-.29,1.01-.7C221.22,61.73,350.22,6.65,468.41.57l-.03-.03Zm287.21,135.75c-73.13-76.49-180.46-109.26-284.36-101.05-91.99,7.29-187.49,51.62-225.64,141.1-.06.16-.1.32-.1.48,0,.67.57,1.24,1.24,1.24h.03c129.06-3.26,258.6-7.64,387.21-19.8,42.08-3.96,83.4-10.04,121.04-19.99.54-.13.89-.6.89-1.17,0-.32-.13-.6-.35-.82l.03.03Zm-393.11-31.5c.32,0,.7.13,1.14.38l3.99,1.84c1.11.48,1.62.79.95,2.6l-.19.44c-.82,1.81-2.38,5.2-3.71,8.97-.38,1.05-.86,2.25-1.36,3.52-2.57,6.37-5.77,14.32-1.11,18.47,1.43,1.3,2.53,1.87,3.07,2.09v1.74c-1.71-.25-3.49-.35-5.23-.35-8.52,0-16.35,2.88-19.77,5.7l-1.2-2.25c1.17-.79,5.04-3.49,7.51-6.62,3.9-4.94,7.57-15.62,10.01-22.72.82-2.38,1.52-4.44,2.03-5.64,1.71-4.12,2.47-6.02,2.92-7.13l.03-.1c.29-.79.7-.89.98-.89l-.06-.06Zm116.1,21.96h.79v.41h11v-.41h.79l.25,3.96h-.7c-.35-1.49-1.11-2.44-3.14-2.44h-.6v14.04h1.55v.79h-7.41v-.79h1.58v-14.04h-.57c-2.03,0-2.79.95-3.14,2.44h-.7s.29-3.96.29-3.96Zm55.23-.1c1.17,0,2.57.54,4.15,1.58l.32.22.76-.51.41.6-4.47,2.85-.38-.6c.16-.29.22-.6.22-.95,0-1.3-1.14-2-2.28-2-1.46,0-3.9.76-3.9,5.83s2.44,7.67,6.84,7.67h.57v-6.62h-2.98v-.79h6.21c.35,0,.63-.1.92-.22l.16.32c-.38.38-.57.79-.57,1.49v7.41h-.44l-1.27-1.93-.51.35c-1.81,1.33-3.68,1.96-5.74,1.96-4.53,0-7.48-3.04-7.48-7.7,0-5.07,4.15-9.06,9.41-9.06l.03.1Zm-36.63.32v.44l-.92.32v6.62l.95-.82c1.46-1.24,2.47-2,4.18-2,2.44,0,2.79,1.81,2.79,2.88h0v8.3h.89v.35h-5.29v-.35h.95v-7c0-1.55-.73-2.34-2.15-2.34-.82,0-1.65.48-2.25,1.3l-.13.16v7.89h.98v.35h-5.32v-.35h.92v-14.01l-.89.32v-.29l5.23-1.81.06.03Zm71.52,0v.44l-.92.32v6.62l.95-.82c1.46-1.24,2.47-2,4.15-2,2.44,0,2.79,1.81,2.79,2.88h0v8.3h.89v.35h-5.29v-.35h.95v-7c0-1.55-.73-2.34-2.12-2.34-.82,0-1.65.48-2.25,1.3l-.1.16v7.89h.98v.35h-5.32v-.35h.92v-14.01l-.89.29v-.29l5.23-1.81.03.06Zm34.79,1.96c1.65,0,1.65.67,1.65.98,0,1.27-1.96,1.55-2.66,1.55s-1.11-.32-1.11-.98c0-.82,1.33-1.58,2.12-1.58v.03Zm-44.52-.19l.48.1c-.06.51-.1,1.01-.1,1.49v1.58h2.12l-.16.79h-1.96v7.83c0,1.05.82,1.58,1.62,1.58.35,0,.7-.1.98-.22l.1.16c-1.05.73-2.25,1.39-3.55,1.39-1.84,0-2.57-.76-2.57-2.73v-8.02h-1.24v-.35c1.87-.63,3.42-1.93,4.25-3.58l.03-.03Zm73.48.92h.22l-.22,1.05c-.16-.06-.32-.1-.51-.1-.6,0-1.05.48-1.05,1.14,0,.41.32.67.7,1.01.67.57,1.65,1.39,1.65,3.2,0,3.36-3.01,4.12-5.89,4.88l-.76.25v.98l.51.06c1.87.19,5.74.63,5.74,2.92s-3.39,2.79-4.56,2.79c-2.57,0-3.9-.67-3.9-1.93,0-.89,1.11-1.49,1.93-1.58l.51-.13v-1.05l-.86-.06c-.79-.06-1.39-.13-1.96-.13-.32,0-.6,0-.89.03l-.67-.63c1.43-.32,2.76-.76,3.77-1.14l.38-.19v-.92l-.51-.06c-1.74-.25-3.8-1.43-3.8-3.87,0-3.39,2.69-4.59,5.01-4.59.92,0,1.55.13,2.09.22.19.03.38.06.57.1l.51.06.44-1.43c.19-.6.35-.89,1.55-.89Zm-5.39,2.34c-1.9,0-1.9,1.71-1.9,2.28,0,1.46.79,5.74,3.23,5.74,1.9,0,1.9-1.71,1.9-2.25,0-1.46-.79-5.74-3.23-5.74v-.03Zm.57,11.38l-.32.48c-.35.57-.54,1.24-.54,2.03,0,.95.57,1.9,1.62,1.9.95,0,1.55-.57,1.55-1.52,0-1.46-.89-2-1.74-2.53l-.06-.03-.48-.32h-.03Zm-115.66-11.79c2.63,0,4.44,1.46,5.42,4.34l-7.16,2.63.22.57c.67,1.68,1.96,2.57,3.71,2.57,1.2,0,2.25-.38,3.04-1.08l.19.22c-1.46,1.74-3.3,2.66-5.48,2.66-3.42,0-5.55-2.31-5.55-6.05,0-3.26,2.47-5.83,5.58-5.83l.03-.03Zm-.79.73c-1.24,0-1.96.89-1.96,2.41,0,.79.16,1.39.32,1.93.06.19.1.35.13.51l.16.67,3.87-1.46.51-.25-.16-.54c-.38-1.14-1.08-3.26-2.82-3.26h-.03Zm93.82-.54v11h.82v.35h-5.2v-.35h.95v-9.66l-.89.19v-.29l4.31-1.24Zm-60.62-.73l.41.13-.44,1.36,1.2-.51c.79-.35,1.77-.54,2.82-.54,2.76,0,4.09,1.17,4.09,3.58v7.6h.79v.35h-3.99l-.38-1.65-.73.63c-.82.7-1.84,1.43-3.17,1.43-2.03,0-3.42-1.3-3.42-3.23,0-2.38,1.39-3.99,3.45-3.99h4.02v-1.2c0-1.36-.86-2.25-2.25-2.25-1.55,0-2.34.98-2.98,1.81l-.6-.22,1.2-3.3h-.03Zm3.3,5.48c-1.58,0-2.76,1.14-2.76,2.76,0,2.41,1.46,2.66,2.09,2.66.89,0,1.96-.41,1.96-2.41v-2.98h-1.33l.03-.03Zm35.74-4.94c2.63,0,4.44,1.46,5.42,4.34l-7.16,2.63.22.57c.7,1.68,1.96,2.57,3.71,2.57,1.2,0,2.25-.38,3.04-1.08l.19.22c-1.49,1.77-3.3,2.63-5.48,2.63-3.42,0-5.55-2.31-5.55-6.05,0-3.26,2.44-5.83,5.58-5.83h.03Zm-.79.73c-1.24,0-1.96.89-1.96,2.41,0,.79.16,1.39.32,1.93.03.16.1.35.13.51l.13.67,3.87-1.46.51-.25-.16-.54c-.38-1.14-1.08-3.26-2.82-3.26Zm14.1-.82c.6,0,.92.1,1.58.44l.48.25.35-.57.38.13-1.11,3.11c-.51-.19-1.05-.35-1.68-.38-.51,0-1.49.16-2.15,1.2l-.1.16v6.84h1.24v.35h-5.51v-.35h.86v-10.08l-.79.32v-.22l3.87-1.05v2.19l.06.6h.98l.13-.38c.03-.13.1-.25.13-.44.22-.7.67-2.12,1.27-2.12h.03Zm20.44.1c2.06,0,3.04.98,3.04,2.98v8.21h.86v.35h-5.23v-.35h.95v-7.67c0-.98-.79-1.68-1.9-1.68s-1.84.67-2.44,1.17l-.19.19v7.99h.98v.35h-5.29v-.35h.89v-9.82l-.89.25v-.25l4.34-1.17v1.27l.06,1.14.95-.73c1.2-.95,2.34-1.87,3.87-1.87Zm11.79-60.36c.67,2.28,1.3,4.63,1.43,5.29-1.81,1.81-4.63,7.57-5.51,11.28l-1.84-.48c-1.2-8.02-4.37-9.63-10.55-10.04-5.26-.35-11.31,7.03-11.76,14.29-.25,3.93-.1,8.9,3.23,12.45,2.69,2.85,7.1,4.31,13.12,4.31h0c1.05,0,2.19-.03,3.36-.13,9.92-.76,12.61-1.49,19.04-3.42l-2.53,4.21c-6.84,2.92-22.21,7.16-29.88,6.78-13.25-.57-20.82-13.21-20.47-25.06.35-12.26,10.04-18.89,19.04-18.89,3.9,0,5.93.54,7.89,1.05,1.58.41,3.23.82,5.83.98,5.01.29,8.4-1.71,9.63-2.63h-.03Zm-46.58,1.2l.57,1.62c-6.08,2.09-6.56,9.47-6.56,18.85,0,1.49-.13,2.88-.25,4.21-.48,5.42-.89,10.14,7.26,16.98l-1.01,1.17c-1.74-.79-3.99-1.24-6.53-1.24-6.37,0-13.28,2.63-15.94,5.99l-.76-1.68c3.99-3.9,6.59-13.09,6.59-23.58,0-.51.03-1.14.06-1.84.25-5.04.67-14.39-7.79-17.65l.82-1.58c1.43.22,3.68.35,6.37.35,4.75,0,12.01-.41,17.14-1.62h.03Zm-33.49,1.01c.63,2.22,1.27,4.53,1.39,5.16-1.77,1.77-4.53,7.41-5.39,11.03l-1.77-.48c-1.17-7.76-5.86-9.06-11.82-9.95-.54-.1-1.11-.13-1.65-.13-6.94,0-12.04,6.84-12.42,13.28-.19,2.95-.13,10.27,3.99,14.67,2.82,2.98,6.97,4.02,12.29,3.11,6.72-1.17,7.22-3.77,7.13-4.82-.19-2.28-3.39-4.09-6.88-3.83l.6-1.65c2.31-.79,9.85-1.39,15.05-1.39,2.44,0,4.25.13,5.07.35l1.55,2.6c-10.17,1.84-9.28,11.66-8.84,16.45.03.41.06.82.1,1.17l-2.47-.67c-1.17-2.57-5.01-4.82-8.05-4.63-3.55.29-6.12.95-8.37,1.55s-4.12,1.08-6.21.92c-9.98-.79-19.49-12.52-19.17-23.7.51-17.68,13.94-19.08,18.03-19.08h.29c3.87.06,7.26.73,10.55,1.39,2.6.51,5.07,1.01,7.57,1.17,4.91.29,8.21-1.68,9.44-2.57l-.03.03Zm-92.02,0c2.66.76,11.63,2.28,19.52,2.28,4.34,0,7.7-.48,9.98-1.39l4.09,3.26c3.26,15.69,7.57,26.65,14.32,36.6-.16.29-.57.79-.95,1.3-3.68-1.43-7.6-2.22-11.09-2.22s-6.18.76-7.86,2.19l-1.9-2.22c.44-.57,1.17-1.9.95-4.59-.44-5.74-5.39-20.28-7.38-23.48-.03-.03-.06-.1-.1-.13-2.34-1.84-18.44-7.79-21.8-9.03l2.19-2.63.03.06Zm-93.82,1.71l23.51.63c.25,2.28,1.96,4.75,4.44,8.4.73,1.08,1.55,2.28,2.41,3.58,1.58,2.38,2.98,4.88,4.37,7.26,2.38,4.15,4.59,8.08,7.32,10.84.1.1.22.13.32.13s.25-.06.32-.16c2.15-2.41,3.39-3.36,4.34-4.09.51-.48,1.01-.7,1.46-.7.82,0,1.36.7,1.39.76l2.76,3.11c.86.86.79,1.68-.22,2.82-.86,1.11-4.97,7.03-2.22,16,.32,1.01.86,2.47,1.52,4.15,1.46,3.8,3.42,8.97,4.37,13.53-5.86,1.39-13.15,9.54-14.96,12.74l-3.64-2.03c.38-1.46,1.17-7.29-3.83-23.99-6.75-22.47-16.19-31.53-18.35-32.7-.6-.35-1.11-.51-1.58-.51-.95,0-1.52.63-2.03,1.17l-.13.13c-.95,1.01-1.74,2.92-2.22,4.06l-.1.25c-.41,1.05-.79,1.27-1.27,1.27-.32,0-.73-.13-1.24-.32l-3.96-1.87c-.76-.38-1.24-.67-1.36-1.05s.06-.95.6-1.9c.1-.25,2.5-6.34,3.42-10.01.7-2.69,1.01-4.69-.92-5.93-1.71-1.08-5.58-1.87-7.19-2.15.6-.79,1.81-2.34,2.66-3.45v.03Zm87.9,34.76c-.19-2.95.92-5.93,3.3-8.94,2.92-3.68,4.85-8.27,5.96-11.5.16-.44.67-.92,1.33-1.01.22-.03.44-.03.7,0,.76.16,3.17,1.55,3.49,1.77.03,0,.03.03.03.03.41.29,1.05.92.6,2.15-.35,1.81-1.2,3.45-2.03,5.07-.73,1.43-1.43,2.76-1.81,4.18-.03.19.03.38.19.48s.35.1.51,0c3.01-2.19,4.91-2.98,7.92-3.2h.25c.79,0,1.3.25,1.58.82.76,1.39.79,1.65,1.11,3.61.16,1.01-.13,1.62-.92,1.93-2.98,1.08-4.21,4.21-6.27,9.44l-.29.73c-1.24-.19-2.57-.29-4.06-.29-2.12,0-4.12.19-5.77.35-1.17.1-2.15.19-2.88.19h-.38c2.31,5.36,4.28,10.39,4.94,13.18.13.48.22.92.32,1.36.73,3.04,1.11,4.72,3.2,6.94,1.39,1.58,3.49,2.92,5.48,4.18,1.96,1.27,3.8,2.47,4.94,3.77l-.95,2.25c-6.02-1.9-12.74-2.95-18.98-2.95-7.89,0-14.29,1.58-18.16,4.44l-2.41-2.6c8.24-6.97,10.27-9.63,9-14.42-1.65-6.08-7.99-19.01-11.38-25.95-.54-1.11-1.01-2.06-1.36-2.82-1.05-2.15-2.44-2.63-3.45-2.63-.63,0-1.33.19-2.06.57-1.33.89-1.65.89-2.57-.03-1.74-1.87-2.47-2.69-2.82-3.01-.03-.03-.03-.06-.06-.1h0s-.63-.57-.63-1.33c0-.44.22-.89.7-1.3.89-.82,3.26-3.04,6.59-9.41.82-1.55.25-3.3-1.52-4.94-1.27-1.17-6.4-3.74-7.95-4.5l1.96-3.07c2.15.76,7.35,1.52,12.17,1.52,2.69,0,6.37-.22,9-1.33,1.08.57,2.22,1.17,2.69,1.46-1.96,5.36-.32,13.78,4.25,21.64,1.43,2.47,3.96,7.6,6.46,13.18l.03.06Zm-91.48-68.95c-1.01.19-2.28.57-3.87,1.17-68.16,25.89-128.49,67.37-159.29,135.87-.06.13-.1.25-.1.41,0,.54.44,1.01,1.01,1.01h0l24.91-.6c1.01-.03,1.9-.7,2.22-1.65,21.71-62.61,73.45-109.86,134.92-135.02,1.17-.48,2.22-.86,3.11-1.08.32-.1.51-.38.51-.7,0-.38-.32-.73-.73-.73h-.1c-.73.13-1.27.35-1.62.7-.29.32-.63.51-1.05.57l.06.03ZM71.79,265.79h-14.54c-.7,0-.89-.32-.6-.92l8.9-19.8c.29-.57.73-.86,1.36-.86h57.26c1.01,0,1.3.48.92,1.39-8.75,20.88-22.75,35.81-42.02,44.81-18.76,8.75-40.69,12.93-60.65,7.26-13.88-3.96-21.33-11.85-22.31-23.7-1.68-20.53,15.59-42.11,32.45-53.46,14.13-9.47,29.72-14.89,46.77-16.22,15.18-1.17,44.46,3.45,48.23,22.53.13.6-.13.98-.73,1.14l-39.61,11.12c-.6.19-1.05-.03-1.3-.6-3.42-8.18-14.96-6.84-21.67-4.28-12.42,4.75-20.22,13.09-23.42,25.03-1.36,5.04-.41,8.97,2.82,11.82,7.79,6.88,21.42,2.57,28.8-3.2,1.68-1.33,1.46-2-.7-2l.03-.06Zm186.13,22.34l-7.19,9.95c-.35.51-.86.73-1.46.73h-80.64c-1.05,0-1.9-.79-2.06-1.81l-3.42-27.47c0-.13-.06-.25-.13-.35-.25-.35-.73-.41-1.05-.19-.1.06-.19.19-.25.32l-12.61,27.95c-.41.95-1.36,1.55-2.41,1.55h-34.57c-.89,0-1.14-.41-.76-1.2l41-91.32c.22-.51.7-.82,1.27-.82,15.78-.13,31.66-.1,47.59.06,15.84.16,37.87,5.67,30.32,27.6-5.45,15.84-16.41,25.29-32.89,28.36-.63.13-1.08.67-1.08,1.3,0,.44.22.82.57,1.08,5.13,3.68,9.92,25.06,12.45,31.88.32.86.79.95,1.39.25l76.24-89.9c.41-.48.92-.7,1.52-.7h40.84c.73,0,1.08.38,1.05,1.11l-3.58,91.04c-.03.82-.48,1.27-1.3,1.27h-38.06c-1.08,0-1.52-.54-1.36-1.55l1.3-8.9c.1-.67-.19-.98-.86-.98h-28.33c-.63,0-1.11.25-1.46.76h-.1Zm-68-56.66l-8.97-1.11c-.95-.13-1.65.25-2.06,1.14l-6.4,14.01c-.32.67-.1,1.05.6,1.14,8.87,1.46,18.16-1.58,19.52-11.66.03-.13.03-.29.03-.41,0-1.58-1.17-2.92-2.76-3.11h.03Zm107.17,5.48v-.13c0-.41-.35-.73-.73-.73-.22,0-.44.13-.6.29l-19.61,27.82c-.1.13-.13.29-.13.41,0,.41.32.73.73.73h14.2c.35,0,.67-.25.73-.6l5.42-27.82v.03Zm92.43,12.58c-.06-.03-.13-.06-.19-.06-.19,0-.35.13-.38.29-5.32,16.64-12.07,32.73-20.18,48.26-.29.54-.73.82-1.36.82h-34.13c-.82,0-1.08-.38-.73-1.14l41.07-91.42c.25-.57.7-.86,1.3-.86h35.2c.63,0,1.05.32,1.17.92l11.44,50.22c.1.51.54.86,1.05.86s.95-.38,1.05-.89c3.71-17.65,12.04-33.9,19.42-50.13.29-.67.79-.98,1.52-.98h34.35c.89,0,1.14.41.76,1.2l-40.88,91.16c-.32.7-.86,1.05-1.65,1.05h-34.92c-.73,0-1.17-.35-1.33-1.05-3.87-15.72-7.73-31.34-11.57-46.83-.16-.67-.51-1.14-1.05-1.46l.03.03Zm102.79-43.76c.06-.13.19-.22.35-.22,23.58-.32,96.9-8.75,85.08,37.33-6.78,26.4-30.13,46.1-55.67,52.92-19.52,5.2-47.75,3.2-70.15,3.01-.92,0-1.17-.44-.82-1.27l41.22-91.73v-.03Zm25.35,29.31l-15.69,34.95c-.25.57-.06.89.57.92,15.72,1.17,30.61-6.59,34.6-22.47,3.26-12.77-10.04-14.92-18.92-13.88-.25.03-.48.19-.57.44v.03Zm124.53-29.34c.06-.16.22-.25.38-.25,17.46-.13,34.95-.1,52.47.06,17.9.19,35.01,10.84,25.82,31.34-8.4,18.76-22.37,29.72-41.92,32.95-8.08,1.33-18.73.73-28.04.82-.6,0-1.01.29-1.27.82l-11.95,26.52c-.25.57-.7.86-1.33.86h-35.05c-.38,0-.7-.32-.7-.7,0-.1.03-.19.06-.29l41.45-92.15h.06Zm25.92,25l-6.88,15.24c-.29.63-.1,1.01.6,1.08,8.81,1.14,21.01-1.08,21.96-11.6.19-2.03-1.33-3.87-3.39-4.06l-11.6-1.11c-.35-.03-.57.13-.73.44h.03Zm87.04,38.69c0-.13-.06-.25-.13-.35-.22-.32-.7-.38-1.01-.16-.1.06-.19.16-.22.29l-13.09,28.93c-.22.44-.57.7-1.08.7h-35.58c-.82,0-1.08-.38-.73-1.14l41.07-91.48c.25-.54.67-.82,1.27-.82,15.46.03,30.8.06,46.01.06,16.89.03,39.51,4.97,31.59,28.42-4.94,14.67-15.72,23.92-32.35,27.79-.57.13-.98.67-.98,1.27,0,.35.13.67.38.92,5.86,5.77,10.17,25.63,12.67,34.06.19.63-.06.92-.7.92h-42.62c-.54,0-.86-.25-.89-.79l-3.55-28.61h-.06Zm15.53-37.74l-6.08,13.69c-.25.57-.06.92.54,1.01,17.81,3.64,29.28-18.54,7.03-15.81-.7.1-1.2.48-1.49,1.11Zm80.14-26.27h37.2c.32,0,.57.25.57.57,0,.06-.03.16-.06.22l-41.41,92.27c-.1.19-.29.35-.51.35h-37.23c-.32,0-.57-.25-.57-.57,0-.1.03-.16.06-.22l41.45-92.27c.1-.19.29-.35.51-.35Zm93.16,20.72c.03.1.13.19.22.19.06,0,.13-.03.16-.06l19.99-20.28c.35-.35.86-.57,1.36-.57h40.08c1.55,0,1.74.51.54,1.49l-50.45,41.48c-.51.41-.63.95-.44,1.55l15.27,47.97c.19.6-.03.92-.67.92h-42.02c-.6,0-1.14-.44-1.27-1.08l-3.68-24.02c-.06-.29-.16-.32-.38-.13l-26.17,24.59c-.44.44-1.01.67-1.62.67h-41c-.98,0-1.11-.32-.35-.95l57.77-47.94c.48-.41.6-.89.41-1.49l-13.44-41.76c-.29-.86.03-1.27.92-1.27h41.22c.76,0,1.2.38,1.3,1.17l2.25,19.55-.03-.03Zm-427.39,262.59c-19.17,1.17-57.61,0-57.61,0-93.57-6.46-184.04-42.49-246.71-113.63-.86-.95-1.81-1.11-2.92-.41l-13.44,8.37c-.41.25-.73.19-.98-.22-13.56-24.08-28.23-39.93-55.39-48.26-27.41-8.43-57.45-10.36-85.9-12.01-.25,0-.41-.13-.41-.32,0-.06,0-.1.03-.16.06-.16.06-.22.1-.22l960.4-2.57c.25,0,.32.1.19.32-.19.29-.41.41-.63.41-169.33,4.02-338.8,7.57-508,15.91-74.34,3.68-149.06,9.03-222.73,20.03-.41.06-.73.44-.73.86,0,.19.06.41.19.57,95.44,111.57,275.04,139.3,405.4,79.22,1.58-.73,4.5-2.85,6.94-3.64.03,0,.1-.03.13-.03.25,0,.44.19.44.44,0,.16-.1.29-.22.38-53.77,32.95-123.01,51.74-178.11,55.07l-.03-.1Zm-140.31-37.11c-44.96-20.69-86.03-51.14-116.51-90.34-.57-.73-1.3-.98-2.19-.76l-24.53,5.83c-1.24.29-1.43.92-.54,1.84,42.4,45,95.76,73.61,155.27,89.29.06.03.13,0,.13-.06.06-.16.1-.29.13-.44.13-.41-.03-.7-.44-.86-3.87-1.3-7.64-2.82-11.34-4.5h.03Z"/>
  </g>
</svg>