<?xml version="1.0" encoding="UTF-8"?>
<svg id="Layer_2" data-name="Layer 2" xmlns="http://www.w3.org/2000/svg" viewBox="0 0 1006.45 608">
  <defs>
    <style>
      .cls-1 {
        stroke-width: 0px;
      }
    </style>
  </defs>
  <g id="Layer_1-2" data-name="Layer 1">
    <path class="cls-1" d="m795.15,260.67c.16-34.41-11.73-150.61-194.83-145.08-95.1,2.86-208.83,53.9-235.18,73.5-39.47-6.98-61.45,5-61.45,5,0,0-34.69-14.4-81.39-12.58C316.02,87.82,450.02,34.8,529.72,14.57c40.82-10.38,103.38-19.44,147.72-11.64,142.22,25.07,164.36,112.06,132.75,226.94-3.33,12.14-7.36,25.35-11.07,31.95.16.35.25.72.25,1.13l.47,50.29,52.77,6.23c1.2.16,2.17,1.04,2.39,2.23s-.35,2.39-1.42,2.96l-65.98,35.38-7.86,30.95c36.67-20.69,75.86-22.96,90.7-3.87,16.39,21.04-2.7,60.6-42.27,87.65-39.56,27.05-85.64,31.95-101.99,10.91-16.1-20.66,2.04-59.22,40.19-86.2l-18.49-14.81-65.95,107.12c-.94,1.48-2.64,2.42-4.43,2.42h-33.59c-2.58,0-3.24-1.07-1.98-3.18l57.55-94.51-33.02,12.55-49.72,82.96c-.85,1.48-2.17,2.2-3.93,2.17l-34.53-.06c-.28,0-.53-.03-.79-.09-1.35-.41-2.11-1.79-1.7-3.08.06-.22.19-.44.35-.66,17.77-24.09,33.09-49.5,45.95-76.2.35-.69.5-1.45.5-2.2,0-2.48-1.82-4.65-4.4-5.22-22.33-5-36.01,4.21-46.99,22.83-12.45,21.04-25.19,41.86-38.24,62.46-.94,1.48-2.3,2.2-4.12,2.2l-32.36.06c-3.24.03-4.03-1.26-2.42-3.9l66.48-107.56c.79-1.26,1.92-2.04,3.37-2.33,14.97-2.99,29.12-1.57,42.49,4.28,1.73.79,3.77.72,5.5-.16,16.13-8.24,57.18-16.89,60.57,7.71l35.1-46.04-12.55-26.32c-.38-.79-.35-1.67.03-2.45s1.1-1.29,1.95-1.45l46.73-8.55,50.98-46.48c.13-.13.25-.19.38-.28l.06-.03Zm-22.11,134.35l9.53-37.49c.19-.75.69-1.38,1.35-1.76l59.35-31.83-46.48-5.5c-1.38-.16-2.42-1.32-2.42-2.7l-.44-46.58-47.02,42.87c-.38.35-.85.57-1.35.66l-44,8.05,11.73,24.59c.44.94.35,2.04-.28,2.86l-40.07,52.52,68.91-26.2c.91-.35,1.95-.19,2.7.44l26.57,21.29c.63-.41,1.26-.82,1.92-1.23Zm-4.5-79.1l-1.67,18.4,21.98.53-26.29,14.81-1.13,17.2-14.22-10.38-28.18,10.72,16.61-21.76-5.79-10.6,18.18-2.61,20.51-16.35v.03Zm.19,152.88c8.84,7.14,29.78-1.89,46.39-19.97s22.99-38.81,14.15-45.95c-8.84-7.11-29.78,1.89-46.39,19.97s-22.99,38.81-14.15,45.95Zm-419.26-100.1l-27.02,1.54h-.25c-2.45,0-4.43-1.89-4.43-4.15,0-.82.25-1.64.75-2.33l13.77-19.03c1.2-1.7,2.89-2.55,5.06-2.58l71.55-.94h.06c1.32,0,2.42,1.04,2.42,2.26,0,.41-.13.82-.35,1.16-31.32,50.04-62.33,100.45-93.06,151.24-29.81,49.44-71.27,72.84-134.79,59.97-1.76-.35-2.23-1.29-1.42-2.8l15.47-27.3c.72-1.32,2.42-1.89,3.87-1.32,40,15.85,58.91-2.64,78.37-34.78,23.74-39.28,47.96-78.22,72.62-116.84.25-.41.41-.88.41-1.38,0-1.51-1.32-2.74-2.92-2.74h-.16.03Zm64.94,97.18c21.83,2.52,31.67-4.06,42.93-21.7,13.05-20.47,25.66-41.29,37.87-62.46.6-1.04,1.76-1.73,3.05-1.79l35.88-1.1c1.95-.06,2.45.69,1.51,2.33l-67.33,110.67c-.91,1.48-2.58,2.42-4.4,2.42h-23.52c-1.76,0-3.37-.5-4.78-1.48l-8.93-6.32c-1.26-.88-2.96-.94-4.21-.16-23.9,14.69-86.74,22.49-56.26-29.34,14.81-25.22,30.13-50.16,45.92-74.82.82-1.29,2.04-1.98,3.65-2.08l33.97-1.79h.19c1.42,0,2.58,1.1,2.58,2.42,0,.44-.13.85-.35,1.23l-44.16,71.99c-.75,1.23-1.13,2.61-1.13,4.03,0,4.06,3.27,7.52,7.55,8.02v-.06Zm536.97-74.82c-.13.28-.19.57-.19.85,0,1.1.97,2.01,2.14,2.01.47,0,.94-.16,1.32-.44,14.53-10.76,31.29-15.76,50.35-15.03,1.42.06,1.79.69,1.07,1.86l-19.47,31.2c-.75,1.2-1.86,1.82-3.3,1.89l-43.78,1.89c-2.42.13-4.62,1.38-5.91,3.37l-45.85,73.69c-.85,1.38-2.14,2.04-3.84,2.01l-33.09-.44c-2.99-.03-3.74-1.29-2.26-3.74l67.11-108.5c.79-1.26,1.98-1.95,3.55-2.04l31.86-1.79h.22c2.33,0,4.21,1.79,4.21,3.96,0,.57-.13,1.13-.38,1.64,0,0-3.77,7.64-3.77,7.64Zm-757.44-64.79c-48.37,23.78-89.88,4.12-41.86-45.79,18.4-19.12,61.3-23.65,86.33-23.02,3.74.09,7.04-2.42,7.86-5.98,5.35-24.31-56.61-6.86-66.48-2.45-.31.16-.66.22-1.01.22-1.26,0-2.3-.97-2.3-2.2,0-.44.13-.88.41-1.23l17.99-25.76c.69-.94,1.73-1.64,2.96-1.89,17.27-3.37,115.36-17.05,90.23,28.27-16.07,29-33.15,57.46-51.2,85.39-1.01,1.57-2.45,2.36-4.34,2.36h-27.64c-1.79,0-3.46-1.01-4.25-2.58l-1.89-3.77c-1.04-2.11-2.64-2.61-4.78-1.54l-.03-.03Zm32.8-44c-2.89-5.72-16.83-5.03-30.85,1.51-14.03,6.54-23.15,16.64-20.25,22.36,2.89,5.72,16.83,5.03,30.85-1.51s23.15-16.64,20.25-22.36Zm147.15-57.77c16.1-7.96,40.29-16.98,55.82-5.6,36.73,26.98-60.95,142.12-123.38,110.33-2.11-1.07-3.74-.6-4.91,1.38l-24.63,42.11c-1.13,1.92-2.83,2.89-5.13,2.89h-32.14c-3.18,0-3.93-1.29-2.33-3.9l92.4-152.69c.88-1.42,2.45-2.3,4.12-2.3l25.69-.06c2.01-.03,3.65.69,4.97,2.14l4.28,4.75c1.48,1.64,3.24,1.95,5.25.97l-.03-.03Zm9.25,18.27c-33.65-7.74-51.55,37.39-65.1,60.04-.25.41-.38.88-.38,1.35,0,1.35,1.04,2.52,2.45,2.7,37.61,5.5,58.69-20.19,70.6-50.48,2.86-7.26.35-11.83-7.58-13.62Zm91.55,82.93c-20.57,9.66-54.38,21.01-65.86-5.03-.75-1.6-.79-3.24-.16-4.91,18.93-50.7,62.3-55.95,110.8-59.5,4.34-.35,7.74-3.87,7.74-8.05s-3.11-7.42-7.23-7.99c-20.63-2.74-40.13.03-58.53,8.27-1.6.69-2.2.22-1.79-1.38,3.9-16.67,11.86-26.7,23.9-30.07,12.49-3.52,107.43-13.52,85.2,27.46-14.34,26.45-29.72,52.36-46.14,77.68-.91,1.45-1.51,3.05-1.73,4.75-.6,4.37-3.37,6.76-8.3,7.11-5.16.35-13.93.38-26.35.06-1.89-.06-3.3-.91-4.18-2.52l-2.3-4.28c-1.16-2.14-2.83-2.67-5.06-1.6Zm32.27-43.72c-2.89-5.72-16.95-4.97-31.14,1.67-14.18,6.64-23.46,16.79-20.54,22.52s16.98,4.97,31.14-1.67c14.18-6.64,23.46-16.79,20.54-22.52Zm161.43-27.05c.19-.31.35-.66.47-1.01,1.42-3.65-.53-7.8-4.31-9.18-.35-.13-.69-.22-1.07-.31-22.14-4.53-33.93,5.13-44.94,23.71-12.3,20.85-24.69,41.7-37.11,62.62-1.16,1.95-2.96,2.96-5.35,2.99l-31.17.53c-.25,0-.53-.03-.79-.09-1.51-.38-2.45-1.95-2.04-3.43.06-.25.16-.47.28-.69l66.61-111.02c.91-1.51,2.58-2.45,4.4-2.45h29.31c1.95,0,3.27.88,3.96,2.67l1.89,4.69c.91,2.39,2.45,2.86,4.56,1.45,23.9-15.82,84-22.23,55.85,27.08-15.16,26.58-30.66,52.93-46.48,79.06-.97,1.6-2.77,2.58-4.69,2.58h-29.75c-.31,0-.63-.03-.91-.09-1.79-.47-2.89-2.33-2.39-4.12.06-.28.19-.53.35-.82l43.34-74.22-.03.06ZM104.83,343.41c11.57,10.47,27.77,19.4,51.99,21.73-30.73,42.65-51.89,92.27-60.7,141.46-4.25,23.9-2.55,49.53-.82,74.41.09,1.35-.25,1.51-1.1.44-47.77-59.6-48.94-126.27-27.64-199.74,1.42-4.91,6.32-16.92,12.64-22.93.66-.6,1.23-1.73,2.3-1.89,9.78-1.35,24.18-10.44,23.37-13.55l-.03.06Zm287.99,214.24v46.95c0,1.01-.82,1.79-1.79,1.79h-17.14c-.97,0-1.79-.79-1.79-1.79v-46.95h-12.3c-1.01,0-1.79-.79-1.79-1.79v-13.77c0-1.01.79-1.79,1.79-1.79h45.29c.97,0,1.79.79,1.79,1.79v13.77c0,1.01-.82,1.79-1.79,1.79h-12.3.03Zm11.64,25.32c0-3.43.72-6.64,2.2-9.62s3.46-5.54,6.04-7.71c2.55-2.14,5.57-3.87,9.09-5.09,3.49-1.23,7.26-1.86,11.38-1.86s7.83.6,11.29,1.79c3.52,1.2,6.54,2.89,9.12,5.03,2.61,2.2,4.65,4.78,6.1,7.83s2.2,6.35,2.2,10.03-.75,7.01-2.23,10.03-3.52,5.6-6.1,7.8c-2.55,2.17-5.63,3.84-9.21,5.03-3.52,1.16-7.33,1.76-11.45,1.76s-7.8-.6-11.23-1.76c-3.49-1.2-6.51-2.86-9.03-5.06s-4.56-4.84-6.01-7.93c-1.45-3.08-2.17-6.48-2.17-10.25v-.03Zm20.32.19c0,1.16.22,2.23.66,3.18.47,1.01,1.07,1.86,1.82,2.58s1.64,1.29,2.64,1.7c1.04.41,2.14.63,3.3.63s2.26-.19,3.33-.63c1.04-.41,1.92-.97,2.64-1.7s1.35-1.6,1.82-2.58c.44-.94.66-1.98.66-3.08s-.22-2.08-.66-3.02c-.47-.97-1.07-1.86-1.82-2.58s-1.64-1.29-2.64-1.7c-1.04-.41-2.14-.63-3.33-.63s-2.26.22-3.3.63-1.92.97-2.64,1.7-1.35,1.57-1.82,2.55c-.44.91-.66,1.92-.66,2.96Zm62.08-21.07v23.96c0,2.04.44,3.62,1.48,4.62s2.67,1.45,4.78,1.45,3.71-.44,4.78-1.45,1.48-2.58,1.48-4.62v-23.96c0-.97.82-1.79,1.79-1.79h15.82c1.01,0,1.79.82,1.79,1.79v26.86c0,6.42-2.3,11.2-6.73,14.37-4.21,3.05-10.54,4.65-18.93,4.65s-14.69-1.6-18.93-4.65c-4.47-3.21-6.73-7.99-6.73-14.37v-26.86c0-.97.82-1.79,1.79-1.79h15.82c1.01,0,1.79.82,1.79,1.79Zm40.88-1.79h15.82c.97,0,1.79.82,1.79,1.79v2.11c1.1-1.01,2.26-1.86,3.55-2.55,2.7-1.48,5.85-2.26,9.43-2.26h1.35c.6,0,1.26.06,2.01.19.85.16,1.48.91,1.48,1.76v14.34c0,.6-.31,1.2-.82,1.51s-1.16.38-1.73.09c-1.86-.88-3.87-1.32-6.04-1.32-3.05,0-5.38.79-6.92,2.52-1.6,1.79-2.3,4.43-2.3,7.89v18.24c0,1.01-.82,1.79-1.79,1.79h-15.82c-1.01,0-1.79-.79-1.79-1.79v-42.52c0-.97.79-1.79,1.79-1.79h-.03Zm40.76,0h15.82c1.01,0,1.79.82,1.79,1.79,0,0,0,1.16,0,1.13,1.35-1.1,2.74-1.92,4.12-2.45,2.39-.94,5.22-1.42,8.43-1.42,3.43,0,6.35.53,8.81,1.6,2.48,1.07,4.62,2.58,6.35,4.56,1.48,1.67,2.48,3.49,3.02,5.54.5,1.92.75,4.09.75,6.51v27.02c0,1.01-.82,1.79-1.79,1.79h-15.82c-.97,0-1.79-.79-1.79-1.79v-21.48c0-1.92-.13-3.49-.44-4.69-.22-.94-.6-1.7-1.2-2.23-.5-.47-1.04-.82-1.67-1.01-.69-.22-1.45-.35-2.26-.35-2.11,0-3.74.53-4.84,1.73-1.16,1.23-1.67,2.99-1.67,5.28v22.71c0,1.01-.79,1.79-1.79,1.79h-15.82c-.97,0-1.79-.79-1.79-1.79v-42.52c0-.97.82-1.79,1.79-1.79v.06Zm92.68,0h15.91c1.01,0,1.79.82,1.79,1.79v42.52c0,1.01-.79,1.79-1.79,1.79h-15.91c-1.01,0-1.79-.79-1.79-1.79v-.57c-3.27,2.45-7.23,3.68-11.95,3.68-3.52,0-6.73-.63-9.69-1.82s-5.57-2.96-7.77-5.16-3.93-4.81-5.16-7.8-1.82-6.23-1.82-9.72c0-3.27.6-6.38,1.79-9.34s2.86-5.54,5-7.74,4.69-3.96,7.64-5.25,6.23-1.92,9.81-1.92c4.65,0,8.68,1.2,12.11,3.52v-.41c0-.97.79-1.79,1.79-1.79h.03Zm-18.15,22.93c0,1.13.22,2.17.63,3.11s1.01,1.82,1.76,2.55c.72.72,1.64,1.29,2.64,1.7s2.2.63,3.4.63,2.26-.19,3.33-.63,1.92-.97,2.64-1.7c.75-.72,1.35-1.6,1.82-2.55.44-.91.66-1.92.66-2.96s-.22-2.08-.66-3.02c-.47-.97-1.07-1.86-1.82-2.58s-1.64-1.29-2.64-1.7c-1.04-.41-2.14-.63-3.33-.63s-2.36.19-3.4.63-1.92.97-2.64,1.7c-.75.72-1.35,1.57-1.76,2.48-.41.91-.63,1.89-.63,2.96Zm44.82-22.93h15.82c.97,0,1.79.82,1.79,1.79,0,0,0,1.54,0,1.51,3.87-2.64,8.15-3.96,12.74-3.96,6.42,0,11.48,2.26,15.22,6.76,3.77-4.56,8.87-6.82,15.22-6.82,2.3,0,4.43.31,6.48.94,2.14.66,3.96,1.7,5.5,3.14s2.74,3.24,3.65,5.5c.85,2.17,1.29,4.78,1.29,7.86v27.61c0,1.01-.82,1.79-1.79,1.79h-15.82c-.97,0-1.79-.79-1.79-1.79v-20.98c0-1.98-.13-3.62-.44-4.91-.25-1.07-.6-1.92-1.07-2.52-.38-.47-.82-.82-1.32-1.01-.63-.22-1.32-.31-2.04-.31-1.51,0-2.74.38-3.65,1.23-1.54,1.42-2.17,3.96-2.17,7.52v20.98c0,1.01-.79,1.79-1.79,1.79h-15.82c-1.01,0-1.79-.79-1.79-1.79v-20.98c0-2.01-.13-3.68-.41-5-.25-1.13-.57-2.04-1.01-2.74-.31-.47-.72-.82-1.26-1.01-.69-.25-1.54-.35-2.48-.35-.79,0-1.54.09-2.26.35-.57.19-1.04.53-1.48,1.07-.53.63-.91,1.51-1.23,2.64-.35,1.29-.5,2.99-.5,5.06v20.98c0,1.01-.82,1.79-1.79,1.79h-15.82c-1.01,0-1.79-.79-1.79-1.79v-42.52c0-.97.79-1.79,1.79-1.79l.03-.06Zm136.11,24.03v1.54c0,1.64-1.79,1.82-1.79,1.82h-31.42c.22,1.79.79,3.21,1.79,4.21,1.32,1.32,3.3,1.89,5.94,1.89s4.87-1.04,6.29-3.18c.35-.5.88-.82,1.48-.82h15.32c.57,0,1.1.28,1.45.72s.44,1.07.25,1.6c-3.33,10.47-11.57,15.85-24.88,15.85-3.99,0-7.67-.57-10.98-1.7-3.4-1.16-6.29-2.83-8.71-4.97s-4.31-4.75-5.66-7.74c-1.32-2.99-1.98-6.32-1.98-10s.63-7.2,1.89-10.25c1.26-3.08,3.08-5.72,5.44-7.89s5.16-3.81,8.46-4.97c3.24-1.13,6.89-1.73,10.94-1.73s7.61.57,10.82,1.73c3.3,1.16,6.07,2.86,8.33,5.09s4.03,4.94,5.25,8.15c1.16,3.14,1.76,6.7,1.76,10.63Zm-19.22-8.93c-.44-.72-1.01-1.32-1.67-1.86-1.32-1.04-2.96-1.54-4.84-1.54-1.98,0-3.62.44-4.87,1.45-.66.53-1.2,1.16-1.57,1.95h12.99-.03Zm26.45-15.1h15.82c1.01,0,1.79.82,1.79,1.79,0,0,0,1.16,0,1.13,1.35-1.1,2.74-1.92,4.12-2.45,2.39-.94,5.22-1.42,8.43-1.42,3.43,0,6.35.53,8.81,1.6,2.48,1.07,4.62,2.58,6.35,4.56,1.48,1.67,2.48,3.49,3.02,5.54.5,1.92.75,4.09.75,6.51v27.02c0,1.01-.82,1.79-1.79,1.79h-15.82c-.97,0-1.79-.79-1.79-1.79v-21.48c0-1.92-.13-3.49-.44-4.69-.22-.94-.6-1.7-1.2-2.23-.5-.47-1.04-.82-1.67-1.01-.69-.22-1.45-.35-2.26-.35-2.11,0-3.74.53-4.87,1.73-1.16,1.23-1.67,2.99-1.67,5.28v22.71c0,1.01-.79,1.79-1.79,1.79h-15.82c-1.01,0-1.79-.79-1.79-1.79v-42.52c0-.97.79-1.79,1.79-1.79l.03.06Zm77.52,16.1v28.21c0,1.01-.82,1.79-1.79,1.79h-15.82c-.97,0-1.79-.79-1.79-1.79v-28.21h-3.46c-1.01,0-1.79-.79-1.79-1.79v-12.52c0-.97.79-1.79,1.79-1.79h3.46v-10.98c0-.97.82-1.79,1.79-1.79h15.82c.97,0,1.79.82,1.79,1.79v10.98h7.2c1.01,0,1.79.82,1.79,1.79v12.52c0,1.01-.79,1.79-1.79,1.79h-7.2ZM165.81,142.92l-26.92,1.92h-.22c-1.38,0-2.52-1.07-2.52-2.42,0-.41.13-.82.31-1.2l14.56-24.88c.97-1.7,2.45-2.58,4.5-2.58h72.77c1.79,0,2.23.75,1.35,2.23-34.03,58.34-69.06,116.05-105.1,173.16-25.91,41.07-74.66,54.06-122.5,43.43-2.08-.47-2.58-1.57-1.51-3.37l16.39-26.23c1.23-1.98,2.99-2.61,5.28-1.82,47.08,16.61,59.25-9.88,81.99-46.39,22.11-35.48,43.62-71.33,64.53-107.56.16-.25.25-.53.31-.82.35-1.57-.72-3.14-2.39-3.49-.28-.06-.6-.09-.88-.06l.03.06Z"/>
  </g>
</svg>