<?xml version="1.0" encoding="UTF-8"?>
<svg id="Layer_2" data-name="Layer 2" xmlns="http://www.w3.org/2000/svg" viewBox="0 0 1010 546.59">
  <defs>
    <style>
      .cls-1 {
        stroke-width: 0px;
      }
    </style>
  </defs>
  <g id="Layer_1-2" data-name="Layer 1">
    <path class="cls-1" d="m475.91,90.27l.38,15.18h12.25l-2.46-68.74h-14.33l-43.24,68.74h13.29l9.25-15.18s24.87,0,24.87,0Zm-.28-11.42h-18.81l18.27-27.68.54,27.68Zm32,26.64h-12.94l20.89-68.74h25.53c4.54,0,8.05.6,10.57,1.77s4.39,3.12,5.62,5.81c1.23,2.71,1.64,5.93,1.23,9.69-.38,3.47-1.39,6.85-2.97,10.13s-3.41,5.9-5.4,7.89c-2.02,1.96-4.1,3.47-6.25,4.48s-5.02,1.8-8.55,2.34c-2.05.32-5.87.47-11.46.47h-8.27l-7.95,26.23-.06-.06Zm11.39-37.62h3.98c6.82,0,11.42-.47,13.82-1.42s4.36-2.43,5.9-4.51,2.46-4.32,2.75-6.79c.19-1.64,0-3.03-.54-4.07s-1.42-1.83-2.56-2.34c-1.17-.47-3.85-.73-8.05-.73h-9.25s-6.06,19.85-6.06,19.85Zm70.51,22.41h-24.87l-9.25,15.18h-13.29l43.24-68.74h14.33l2.46,68.74h-12.25s-.38-15.18-.38-15.18Zm-.28-11.42l-.54-27.68-18.27,27.68h18.81Zm64.04,1.86c-1.89,4.67-4.36,8.17-7.42,10.54s-6.25,3.57-9.59,3.57c-3.6,0-6.44-1.51-8.52-4.51s-2.81-7.26-2.18-12.75c.57-5.05,2.05-10.07,4.48-15.12s5.3-8.77,8.68-11.14,6.82-3.57,10.38-3.57c3.25,0,5.74.88,7.51,2.68s2.75,4.7,2.97,8.71l12.53-1.33c.03-6.88-1.83-12.31-5.59-16.29s-9.03-5.96-15.81-5.96c-6.06,0-11.84,1.7-17.36,5.14s-10.1,8.39-13.73,14.9c-3.63,6.5-5.87,13.63-6.75,21.46-1.07,9.63.25,16.98,4.01,22.03s9.47,7.61,17.14,7.61c6.82,0,13-2.05,18.56-6.12s10-9.97,13.41-17.71l-12.78-2.15h.06Zm-239.89,25.63c-.16-3.09.6-6.22,2.3-8.93l43.24-68.74c2.78-4.42,7.61-7.07,12.81-7.07h14.33c7.13,0,13.13,4.92,14.74,11.61l.25-.85c1.93-6.38,7.83-10.73,14.49-10.73h25.53c7.32,0,12.94,1.29,16.98,3.19,4.51,2.11,8.21,5.24,10.95,9.5l3.53-5.59c2.78-4.42,7.61-7.07,12.81-7.07h14.33c8.14,0,14.83,6.47,15.15,14.61v.35c3.19-3.41,6.69-6.31,10.51-8.68,7.01-4.36,14.3-6.75,21.9-7.32C269.73-82.34-207.18,217.08,96.43,546.59,10.52,338.9,140.05,209.85,304.66,175.1l6.91-32.38h-11.65c-7.23,0-12.94-4.32-14.49-10.51-4.61-3.16-7.48-8.27-7.48-14.33,0-2.08.16-3.03.73-6.15l3.19-15.09c2.4-9.66,8.96-14.77,18.94-14.77h63.47c12.12,0,18.65,9.09,18.65,17.67,0,2.02-.13,4.29-.95,7.13,0,.03.03.06.03.09,2.49-1.29,5.46-1.99,8.74-1.99h15.02c2.71,0,5.27.6,7.54,1.67l.06-.13ZM675.4,29.01c.76.66,1.48,1.39,2.21,2.15,6.19,6.6,9.75,15.37,9.69,26.73-.03,6.66-4.36,12.37-10.48,14.33,1.01,1.01,1.86,2.18,2.56,3.44,2.21,4.1,2.4,9.03.5,13.29-2.34,5.27-5.08,9.91-8.21,13.89,12.69,2.34,22.5,9.53,28.12,20.55l1.17-5.4c2.11-8.52,8.4-13.41,17.23-13.41h21.71c13.38,0,24.18,1.51,33.45,8.87,8.84,7.01,13.7,17.64,13.7,29.92,0,2.52-.19,5.05-.57,7.57.09,1.1.16,2.21.16,3.31,0,13.19-5.74,26.95-14.68,35.09-1.1,1.04-2.24,1.99-3.44,2.87l7.54,20.89c.69,1.77,1.55,3.91,1.55,7.39,0,2.18-.44,4.26-1.23,6.19.47,1.36.82,2.71.82,4.73,0,5.9-4.07,10.92-10.19,12.5l-15.15,4.04c-1.64.38-2.56.57-4.26.57-2.18,0-9.5-.73-12.34-9.97-2.65-1.83-5.02-4.64-6.5-8.68l-1.01,4.89-.03.22-.06.22c-1.7,6.85-6.53,10.6-13.6,10.6h-14.27c-6.56,0-11.87-4.26-13.16-10.1-1.96-1.29-3.63-3-4.86-4.99-7.13,8.11-15.53,13.41-25.09,15.94,3.09,2.81,5.24,6.44,5.24,12.15,0,.47,0,.92-.03,1.36,2.37-1.1,5.11-1.7,8.14-1.7h50.65c4.54,0,8.58,1.39,11.65,3.95,3.03-2.46,6.94-3.79,11.39-3.79h21.62c13.32,0,24.08,1.51,33.33,8.84,1.96,1.55,3.72,3.28,5.27,5.18v-.03c1.64-8.71,8.08-13.98,17.2-13.98h37.65c4.2,0,8.11,1.45,11.14,4.04,3.06-2.71,7.16-4.2,11.87-4.2h50.65c4.99,0,9.37,1.67,12.53,4.7,2.49-1.33,5.18-2.49,7.98-3.44-65.99-120.34-166.32-193.97-277.54-230.83l-.03.13Zm-371.21,72.97c-5.74,0-8.52,2.18-9.91,7.73l-3.06,14.49c-.54,2.9-.6,3.22-.6,4.48,0,4.13,3.19,8.33,9.31,8.33h28.03l-19.88,93.17c-3.6,16.98-8.27,18.37-13.13,18.37-3.66,0-6.06-.5-6.06-7.29,0-1.29.57-5.9,1.26-9.03.32-.92.47-1.96.47-3.12,0-1.67-.6-7.1-8.33-7.1h-22.82c-9.82,0-9.82,13.98-9.82,24.21,0,24.71,15.81,40.05,41.31,40.05,17.58,0,32.54-6.09,43.21-17.58,8.81-9.06,13.76-20.51,18.3-42.16l23.73-111.28c.66-2.18.66-3.76.66-4.92,0-4.01-2.9-8.33-9.31-8.33h-63.47.09Zm361.46,20.32c21.02,0,33.55,13.73,33.55,36.74s-8.05,50.81-19.57,65.55c-9.69,12.28-21.62,18.24-36.45,18.24-21.52,0-33.86-13.44-33.86-36.89s8.05-50.81,19.57-65.42c9.53-12.25,21.56-18.24,36.74-18.24l.03.03Zm-2.56,26.98c-1.61,0-6.47,0-12.59,12.25-5.37,10.89-9.28,29.38-9.28,43.96,0,10.35,2.08,10.35,4.13,10.35,2.81,0,7.2-1.26,12.62-12.09,5.4-10.64,9.44-29.51,9.44-43.96,0-10.51-2.08-10.51-4.26-10.51h-.06Zm-268.96-24.4c-4.48,0-7.1,2.02-8.17,6.38l-14.14,66.91c-1.1,4.73-1.67,9.56-1.67,14.33,0,19,13.22,29.89,36.26,29.89,13,0,23.35-3.41,31.53-10.41,8.62-7.16,11.08-13.44,14.96-31.4l13.79-65.08c.22-.92.44-2.37.44-3.38,0-4.01-3.35-7.26-7.42-7.26h-14.74c-4.58,0-7.29,2.24-8.08,6.66l-14.42,67.13c-1.36,6.94-2.71,9.69-4.29,11.65-2.46,3-5.87,4.64-9.66,4.64-6.75,0-7.32-3-7.32-5.78,0-2.15.22-3.35,1.23-8.55l13.82-65.08c.06-.35.41-2.11.41-3.35,0-4.07-3.31-7.26-7.57-7.26h-15.02l.06-.03Zm92.94,0c-4.58,0-7.29,2.24-8.08,6.66l-20.96,98.34c-.32,1.83-.38,2.18-.38,3.12,0,4.01,3.31,7.26,7.42,7.26h13.35c4.48,0,7.07-2.02,8.17-6.38l9.75-45.95,14.68,46.3c1.42,5.33,5.08,6.03,8.11,6.03h9.72c4.48,0,7.07-2.02,8.17-6.38l20.8-98.25c.47-1.64.47-3.47.47-3.5,0-4.13-3.19-7.26-7.42-7.26h-13.35c-4.58,0-7.29,2.24-8.08,6.66l-9.18,43.33-14.14-44.22c-1.36-4.07-3.76-5.81-8.05-5.81h-10.92l-.09.03Zm86.54,0c-4.61,0-7.26,2.18-8.08,6.63l-1.99,8.77c-.35,1.83-.38,2.49-.38,3.12,0,4.07,3.41,7.26,7.73,7.26h1.89l-13.57,63.81h-4.58c-4.48,0-7.07,2.02-8.17,6.38l-1.89,8.9c-.32,1.64-.41,2.05-.41,3.22,0,3.6,2.71,7.26,7.89,7.26h37.52c5.96,0,7.54-3.79,8.21-6.75l1.64-8.08c.47-1.93.6-2.4.6-3.66,0-4.2-3.25-7.26-7.73-7.26h-1.89l13.57-63.81h4.58c4.48,0,7.07-2.02,8.17-6.38l1.86-8.87.13-.69c.16-.92.28-1.74.28-2.59,0-4.13-3.25-7.26-7.57-7.26h-37.81Zm147.89,0h21.71c13.7,0,21.43,1.93,27.65,6.82,6.56,5.21,10.16,13.22,10.16,22.6,0,11.55-5.21,24.02-12.94,31.02-2.52,2.37-5.43,4.36-10.16,6.85l12.69,35.16c.66,1.67.98,2.46.98,4.1,0,2.59-1.58,6-6.06,7.1l-14.86,3.98c-1.51.35-1.96.44-3.03.44-1.96,0-5.43-.79-7.04-6.12l-11.14-37.37-7.23,34.4c-1.07,4.36-3.69,6.38-8.17,6.38h-14.27c-4.48,0-7.89-3.12-7.89-7.26,0-1.14.13-1.61.6-3.53l20.83-98.22c1.07-4.36,3.69-6.38,8.17-6.38v.03Zm18.21,26.67l-3.98,18.68c6-.16,8.24-1.2,10.07-3.06,1.93-1.93,3.98-6.69,3.98-11.08,0-1.96-.69-3.38-1.2-3.82-1.17-.5-3.5-.76-7.32-.76h-1.55v.03Zm-132.74,99.89c-42.95,0-69.65,23.04-69.65,60.15,0,14.11,4.29,25.41,12.78,33.61,4.89,4.61,8.4,7.29,22.31,16.16,19.28,12.43,20.2,15.43,20.2,23.07,0,15.59-13.89,17.93-22.19,17.93-7.48,0-16.95-2.24-24.02-5.65q-10.7-5.33-13.26-5.33c-4.54,0-6.22,3.06-7.57,5.49l-11.01,21.02-.09.25c-.57,1.45-.92,2.24-.92,3.85,0,5.4,5.3,7.67,8.08,8.87,16.16,7.16,30.74,10.48,45.83,10.48,41.6,0,70.66-26.29,70.66-63.91,0-19.54-8.17-31.88-30.14-45.54q-17.14-10.76-21.11-14.3c-3.63-3.09-5.02-6.15-5.02-10.98,0-10.92,7.54-17.17,20.67-17.17,7.98,0,16.47,2.43,24.49,7.01l.28.16c4.51,2.24,6.19,3.09,8.99,3.09,3.09,0,6.06-1.89,7.45-4.73l10.19-19.41c1.42-2.56,1.96-3.53,1.96-5.71,0-4.45-2.24-5.78-8.3-9.34-8.71-5.05-26.54-9.03-40.59-9.03l-.03-.03Zm371.24,25.25c8.84,0,20.1,2.52,25.66,5.74,3.82,2.27,6.12,3.6,6.12,7.57,0,1.89-.54,2.9-1.45,4.54l-6.15,11.68c-1.2,2.43-3.76,4.04-6.47,4.04-2.24,0-3.63-.69-6.44-2.11l-.28-.16c-4.51-2.59-9.25-3.95-13.7-3.95-4.7,0-10.29,1.42-10.29,8.17,0,2.27.57,3.5,2.27,4.95q2.3,2.05,12.5,8.46c14.04,8.71,19.25,16.7,19.25,29.38,0,24.05-18.46,40.84-44.91,40.84-9.44,0-18.53-2.08-28.59-6.53-1.01-.44-2.84-1.2-4.23-2.65l-.06.25c-.69,3-2.24,6.79-8.21,6.79h-49.74c-4.58,0-7.86-3.12-7.86-7.42,0-.98.09-1.36.6-3.38l20.73-97.77c1.07-4.32,3.66-6.38,8.14-6.38h50.65c5.52,0,8.02,3.53,8.02,6.82,0,1.86-.57,3.22-1.39,4.86,7.61-8.84,19.98-13.79,35.82-13.79v.03Zm-42.76,26.79c-1.58,1.67-3.76,2.52-6.5,2.52h-25.25l-3.06,14.36h18.94c4.48,0,7.73,3.06,7.73,7.26,0,.5,0,1.67-.44,3l-.19.6-2.02,9.72c-.79,4.42-3.57,6.66-8.24,6.66h-21.49l-4.07,18.9h25.41c3.76,0,6.72,2.27,7.51,5.49l3.31-6.34c.85-1.55,2.46-4.45,6.5-4.45,2.08,0,2.34.13,8.99,3.47,3.98,1.93,9.31,3.19,13.54,3.19,7.42,0,11.17-2.9,11.17-8.62,0-3.53,0-4.86-11.2-12.09-8.55-5.46-10.76-7.13-13.82-10-5.59-5.4-8.4-12.75-8.4-21.9,0-4.2.54-8.14,1.55-11.74l.03-.03Zm-262.14-24.68c-4.48,0-7.07,2.02-8.14,6.38l-20.73,97.77c-.5,2.02-.6,2.4-.6,3.38,0,4.29,3.31,7.42,7.86,7.42h49.74c5.96,0,7.51-3.79,8.21-6.79l1.89-9.63.19-.6c.44-1.29.44-2.46.44-2.97,0-4.13-3.31-7.26-7.73-7.26h-25.41l4.07-18.9h21.49c4.67,0,7.45-2.24,8.21-6.66l2.02-9.72.19-.6c.44-1.29.44-2.46.44-2.97,0-4.2-3.25-7.26-7.73-7.26h-18.94l3.06-14.36h25.25c3.76,0,6.44-1.61,8.05-4.77l5.3-10.57c.88-1.77,1.51-3.16,1.51-5.08,0-3.28-2.49-6.82-8.02-6.82h-50.65.03Zm73.69.16h21.62c13.63,0,21.37,1.89,27.52,6.82,6.53,5.18,10.13,13.19,10.13,22.53,0,11.49-5.18,23.92-12.88,30.93-2.49,2.37-5.4,4.36-10.1,6.82,0,0,12.66,35.06,12.69,35.09l1.39-6.56c1.07-4.32,3.66-6.34,8.14-6.34h4.54l13.51-63.5h-1.86c-4.32,0-7.73-3.19-7.73-7.26,0-.63.06-1.29.38-3.12l1.99-8.74c.82-4.45,3.44-6.6,8.08-6.6h37.65c4.32,0,7.57,3.12,7.57,7.26,0,.85-.13,1.61-.28,2.52l-.13.73-1.86,8.84c-1.07,4.32-3.69,6.34-8.14,6.34h-4.54l-13.51,63.5h1.86c4.48,0,7.7,3.06,7.7,7.26,0,1.26-.13,1.8-.6,3.66l-1.64,8.05c-.69,2.97-2.24,6.75-8.21,6.75h-37.34c-3.91,0-6.44-2.11-7.42-4.7-.79,1.07-2.21,2.4-4.7,3.03l-14.83,3.98c-1.48.32-1.96.44-3.03.44-1.93,0-5.43-.79-7.04-6.12l-11.08-37.11-7.16,34.15c-1.1,4.32-3.69,6.34-8.14,6.34h-14.2c-4.48,0-7.86-3.12-7.86-7.26,0-1.14.13-1.61.6-3.53l20.73-97.77c1.07-4.36,3.66-6.38,8.14-6.38l.03-.03Zm18.15,26.61l-3.95,18.56c5.93-.16,8.14-1.2,9.97-3.03s3.95-6.66,3.95-11.01c0-1.96-.66-3.35-1.2-3.79-1.14-.5-3.47-.76-7.26-.76h-1.51v.03Zm-318.85,38.22c-1.04-.13-2.4.25-4.13,1.48-.32.22-.82.54-1.45.82-1.36.63-3.35,1.23-5.93,1.07-2.78-.16-4.39-.66-6.15-1.1-2.24-.57-4.73-1.1-8.99-1.1-12.78,0-24.87,9.85-25.28,25.09-.41,14.86,9.22,31.28,26.64,32.07,9.18.41,26.67-4.39,34.59-7.8.22-.09,1.8-1.48,1.93-1.67l3.47-5.78c2.49-4.13,1.45-7.61-3.09-6.25-7.51,2.24-11.65,3.06-22.5,3.88-17.26,1.33-15.91-7.32-15.56-13.19.38-6.47,4.8-11.17,6.97-11.01,4.95.32,6.34.79,7.23,7.2.16,1.14,1.96,3.19,3.03,3.47l2.78.73c2.27.6,4.61-.88,5.08-3.22.76-3.6,3.82-9.47,4.8-10.32.16-.16,1.83-2.27,1.04-5.33-.16-.66-.41-1.55-.63-2.43-.35-1.26-.73-6.22-3.85-6.56l.03-.03Zm-54.25.85c-.25,0-.47.03-.69.09-7.48,1.83-20.7,2.08-24.4,1.39-1.36-.25-3.79.95-4.42,2.18l-1.29,2.52c-1.26,2.43-.22,5.08,2.34,5.96,3.53,1.23,4.99,3.76,5.59,6.94.35,1.8.38,3.6.35,5.24-.03,1.89-.16,3.57-.16,4.73,0,5.24-1.83,10.41-2.62,14.71-.82,4.36-2.02,6.63-3.06,7.45-1.2.98-1.83,3.66-1.2,5.08l1.29,2.87c1.67,3.72,5.11,3.98,7.26.47,2.11-3.41,13.7-6.82,19.31-3.98,1.29.66,3.98.13,4.92-1.01l1.64-1.93c1.55-1.8,1.29-4.58-.54-6.06-5.27-4.32-6.38-7.67-6.6-10.1-.41-4.67.32-7.51.32-9.59,0-5.37.19-9.34.98-12.15.73-2.52,1.74-3.5,3.28-3.95,2.34-.66,3.57-3.19,2.75-5.49l-.95-2.65c-.57-1.58-2.46-2.78-4.17-2.75h.06Zm-38.63.32c-1.01-.09-2.27.38-3.85,1.74-.35.22-.82.5-1.42.79-1.29.6-3.25,1.2-5.78,1.07-2.87-.19-5.74-.82-8.77-1.42-3.44-.66-7.07-1.33-11.11-1.36-11.42-.16-24.05,6.5-24.59,25.28-.41,15.09,12.06,29.51,25.09,30.52,1.55.13,3,0,4.36-.22,1.2-.19,2.43-.54,3.76-.88,2.21-.6,4.83-1.29,8.43-1.58,1.55-.13,3.91,1.55,4.23,2.34.25.6,2.15,2.3,2.78,2.46l3.53.98c3,.82,5.27-1.01,5.21-4.2-.03-1.17-.16-3.19-.44-5.24-.25-1.77.06-4.29.41-5.78.47-2.15,1.8-3.35,4.58-4.07,5.24-1.33,6.44-3.28,4.64-6.31l-2.11-3.6c-.16-.28-1.89-1.7-2.18-1.8-4.17-1.48-21.37-.41-25.41,1.2-1.64.66-2.65,3.03-2.97,4.73l-.57,2.81c.35,1.7,2.75,3.19,6.12,3.28h-2.43c-11.2,1.93-12.78-7.16-12.34-14.39.35-5.71,5.02-10.64,10-9.91,6.12.92,8.24,1.7,8.99,7.13.16,1.14,1.96,3.22,3.03,3.5l2.71.73c2.27.63,4.61-.88,5.08-3.19.73-3.53,3.76-9.25,4.7-10.1.16-.13,1.83-2.24,1.07-5.33-.16-.63-.41-1.51-.63-2.37-.35-1.23-1.07-6.53-4.1-6.79l-.03-.03Zm-158.72,1.01c.47,0,.95.06,1.33.22,2.59,1.07,15.05,2.46,19.91.28.54-.25,3.09-.16,3.63.09,0,0,.92.47,1.83.95,3.22,1.7,5.05,1.83,3.66,6.31s-.09,12.37,4.2,19.76c1.48,2.59,4.17,7.95,6.88,13.92.54-3.47,2.18-6.69,4.45-9.5,2.94-3.72,4.86-8.62,5.71-11.11.95-2.71,3.91-5.24,7.45-4.54.28.06.6.16.88.28-5.81-2.27-11.77-4.48-12.09-4.61-3.16-1.14-3.95-4.07-1.8-6.66l3-3.6c.76-.92,3.41-1.7,4.54-1.33,3.35,1.07,23.13,4.2,29.73,1.29.88-.41,3.5,0,4.26.6l3.95,3.44c.28.22,1.77,1.1,2.02,2.43,2.34,12.09,6.6,27.39,15.53,40.18,1.07,1.58-1.42,4.13-3.44,6.91-.47.63-3.98-.95-4.86-1.23-8.27-2.68-13.6-1.1-14.93.22-1.77,1.8-4.61,1.67-6.22-.25l-3.25-3.79c-1.2-2.34.76-4.95.82-5.24s.06-.76.03-1.42c-.13-1.58-.63-3.95-1.33-6.53.6,3.31-1.42,5.87-4.01,6.94-.25.09-.85.35-1.64,1.8-.44.79-.88,1.74-1.33,2.84-.5,1.23-1.04,2.59-1.64,4.13s-3.03,2.9-4.64,2.62c-2.94-.5-6.12-.28-9.03-.03-1.55.16-2.9.28-3.95.32-.82.03-1.58-.06-2.24-.19,1.33,3.35,2.37,6.31,2.84,8.33.47,1.96.73,3.38,1.17,4.58.28.73.66,1.42,1.55,2.34.47.54,1.2,1.17,2.11,1.83.95.69,1.99,1.36,3.03,2.02,1.17.76,2.34,1.51,3.38,2.27,1.07.82,2.24,1.8,3.22,2.97.6.73.98,3.41.6,4.29l-1.33,3.12c-.79,1.83-3.31,2.97-5.18,2.37-14.9-4.8-30.87-3.69-36.74.98-1.58,1.23-4.36,1.04-5.71-.44l-3.25-3.47c-1.64-1.77-1.48-4.58.35-6.09,4.8-4.04,7.1-6.31,8.21-7.98.73-1.14.82-1.74.44-3.22-.92-3.41-3.47-9.34-6.34-15.5-2.81-6-5.71-11.77-7.13-14.77-1.26.73-2.62,1.14-3.98.98-.03,1.86-.92,3.6-1.96,4.8-.63.85-3.85,5.55-1.55,13.03.54,1.74,1.77,4.77,3.06,8.24,1.39,3.76,2.78,8.05,3.53,11.93.44,2.24-1.14,4.54-3.38,4.99-4.67.85-12.4,9.37-13.54,11.77-.06.13-3.06,3.47-6.6,1.48l-1.67-.92-2.37-1.36c-2.49-1.36-1.67-5.49-1.67-5.49.06-.44.03-1.29-.03-3.03-.19-3.41-1.1-9.63-4.26-20.07-5.96-19.88-13.76-29.1-16.63-31.84l-.16.28c-.38.76-.69,1.51-.92,2.05-.85,2.11-2.27,3.47-4.01,4.01.73,1.48.82,3.38-.09,5.78-.73,1.61-2.59,5.65-4.13,9.97-1.17,3.28-3.28,7.7-4.36,11.93s-.54,6.03.38,6.85c.82.73,1.42,1.1,1.74,1.29,4.17,2.43,3.16,6.91,3.16,6.91,0,2.75-2.18,4.58-4.86,4.17-11.49-1.77-21.65,2.49-24.27,4.92-2.24,2.11-5.14,1.64-6.6-1.1l-1.8-3.38c-.95-1.77-.25-4.48,1.45-5.55.03,0,4.73-3.03,7.35-6.38,2.37-2.97,4.86-8.74,7.16-14.96s4.17-12.15,5.24-14.74c1.89-4.58,2.71-6.6,3.19-7.76.76-2.05,2.08-3.16,3.53-3.63-.92-1.64-.95-3.72.44-6.34.66-1.74,3.69-11.3,3.76-11.68-.54-.16-4.54-1.23-5.11-1.33-4.92-.98-5.84-3.31-3.22-7.29.32-.44,3.09-4.2,3.09-4.2,1.07-1.26,2.18-1.67,3.44-1.61l26.19.73c2.02.03,4.01,2.02,4.1,4.04.03.38.25,1.23,1.51,3.28,1.26,2.08,3.06,4.54,5.21,7.8,2.4,3.6,4.45,7.42,6.47,10.89,1.01,1.74,1.99,3.31,2.94,4.7.66-.63,1.23-1.04,1.7-1.42,1.7-1.48,3.6-2.02,5.4-1.8-.03-1.7.63-3.53,2.3-5.02.47-.44,1.17-1.14,2.11-2.4s2.24-3.19,3.79-6.06c-.13-.03-.28-.06-.44-.22-.95-.88-7.54-4.13-7.98-4.36-2.37-1.14-3.12-3.88-1.7-6.09l2.65-4.07c.69-1.07,2.34-1.8,3.79-1.86h-.06Zm60.82,17.04c.13.06.28.13.38.16.5.22,1.14.44,1.67.66,1.1.44,2.43,1.01,2.43,1.01,2.15,1.48,2.9,4.8,1.96,7.95-.09.44-.22.92-.35,1.33l.66-.06c.32,0,1.29-.06,2.3.16,1.29.32,3.09,1.14,4.17,3.19.28.79.47,1.39.69,1.99-1.55-5.05-3.41-10.19-4.51-12.4-1.55-.85-5.43-2.43-9.44-4.01l.03.03Zm13.7,47.81l-.38,5.52h1.96c.32-1.77.92-2.62,2.84-2.62v13.82h-1.7v2.11l9.18-.03v-2.08h-1.67v-13.82c1.96,0,2.52.85,2.87,2.62l1.96.03-.38-5.52h-2.05v.44h-10.57l.03-.44h-2.05l-.03-.03Zm23.48,0l-6.88,2.37v1.64l.95-.32v13.54h-1.01v1.61h7.01v-1.61h-1.04v-7.64c.47-.63,1.14-1.1,1.93-1.1,1.26-.03,1.67.63,1.67,1.86v6.88h-1.01v1.61h6.91v-1.61h-.95l-.03-8.3c0-1.64-.73-3.72-3.63-3.72-2.08,0-3.35.98-4.89,2.3v-5.33l1.01-.35v-1.8l-.03-.03Zm42.32,0c-5.96,0-10.73,4.51-10.73,10.35,0,5.4,3.44,8.9,8.65,8.9,2.62,0,4.7-.92,6.5-2.24l1.2,1.8h1.45v-8.58c0-.73.19-1.01.76-1.45l-.63-1.33c-.41.16-.85.41-1.29.41h-7.29v2.08h3.19v5.84c-3.98,0-6.69-2.18-6.69-7.61,0-1.29.09-5.62,3.57-5.62.92,0,1.83.47,1.83,1.51,0,.38-.09.76-.38,1.01l1.01,1.51,5.84-3.76-1.14-1.7-.98.63c-1.39-.92-3.09-1.8-4.8-1.8l-.06.03Zm42.13,0l-6.85,2.37v1.64l.95-.32v13.51h-1.01v1.61h6.97v-1.61h-1.07v-7.64c.47-.63,1.14-1.14,1.93-1.14,1.26,0,1.67.63,1.67,1.89v6.91h-1.01v1.61h6.91v-1.61h-.95v-8.3c0-1.64-.76-3.72-3.63-3.72-2.08,0-3.35.98-4.89,2.27v-5.33l1.01-.35v-1.8h-.03Zm40.74,1.17c-1.14,0-2.9.98-2.9,2.3,0,1.1.76,1.67,1.83,1.67,1.36,0,3.47-.6,3.47-2.3,0-1.39-1.23-1.7-2.4-1.7v.03Zm-53.27.95c-.82,2.05-2.71,3.5-4.83,4.1v1.48h1.33v7.98c0,2.34.95,3.57,3.38,3.57,1.74,0,3.28-.95,4.64-1.93l-.69-1.17c-.38.25-.82.44-1.29.44-.41,0-1.1-.25-1.1-1.07v-7.8l1.99.03.41-2.11h-2.4v-1.1c0-.69.03-1.42.19-2.08l-1.61-.32v-.03Zm87.36,1.01c-1.45,0-1.93.41-2.24,1.39l-.32,1.04c-.76-.13-1.51-.35-2.97-.35-2.94,0-6,1.67-6,5.55,0,2.81,2.34,4.42,4.64,4.77v.06c-1.67.63-3.38,1.17-5.14,1.42l1.8,1.74c1.14-.16,2.08-.06,3.6.09v.03c-1.17.16-2.59,1.01-2.62,2.34,0,2.18,2.43,2.68,4.8,2.68,1.61,0,5.52-.69,5.52-3.63s-4.51-3.5-6.72-3.72v-.06c3.25-.82,7.16-1.67,7.16-5.9,0-3.16-2.52-4.01-2.52-4.54,0-.28.16-.57.47-.6.47,0,.63.22.98.54l.6-2.75c-.35-.03-.69-.06-1.01-.06l-.03-.03Zm-4.99,16.22c-.35.54-.47,1.2-.47,1.83s.35,1.39,1.1,1.39c.66,0,1.01-.32,1.01-.98,0-1.26-.69-1.67-1.64-2.24Zm-.79-12.47c-.98,0-1.39.5-1.39,1.8,0,1.45.82,5.52,2.87,5.52,1.01,0,1.39-.5,1.39-1.8,0-1.45-.82-5.52-2.87-5.52Zm-98.22-2.34l-1.7,4.67,1.67.6c.73-.95,1.42-2.08,3-2.08,1.2,0,1.77.66,1.77,1.77v.66h-3.69c-2.4,0-4.32,1.77-4.32,4.92,0,2.49,1.83,4.07,4.26,4.07,1.55,0,2.71-.73,3.82-1.67l.32,1.26h5.4v-1.61h-.85v-7.54c0-3.19-2.02-4.48-5.02-4.48-1.1,0-2.27.19-3.25.63l.25-.73-1.61-.54-.03.06Zm3.95,7.29c-1.36,0-2.3.95-2.3,2.34,0,1.04.32,2.24,1.61,2.24s1.48-.95,1.48-1.96v-2.59h-.79v-.03Zm42.04-6.66c3.63,0,5.65,2.4,6.6,5.68l-7.67,2.81c.63,1.55,1.74,2.37,3.38,2.37,1.26,0,2.46-.44,3.28-1.42l1.01,1.07c-1.58,2.08-3.72,3.5-6.69,3.5-4.07,0-6.56-2.84-6.56-7.13,0-3.72,2.84-6.88,6.63-6.91l.03.03Zm-.82,2.05c-1.07-.03-1.48.82-1.48,1.96.03,1.07.32,1.77.47,2.49l3.47-1.33c-.38-1.14-1.01-3.12-2.46-3.12Zm14.3-2.05l-5.4,1.45v1.64l.85-.35v9.28h-.92v1.61h7.16v-1.61h-1.33v-6.53c.54-.82,1.29-.98,1.77-1.01.79.06,1.48.35,2.18.6l1.61-4.54-1.48-.5-.32.54c-.76-.38-1.2-.54-1.99-.54-1.26,0-1.77,2.24-2.08,3.19h-.06v-3.22Zm12.66,0l-5.9,1.67v1.55l.98-.19v8.99h-1.04v1.61h6.85v-1.61h-.88s0-12.02,0-12.02Zm8.9,0l-5.93,1.61v1.58l.95-.28v9.09h-.95v1.61h6.94v-1.61h-1.04v-7.67c.63-.57,1.29-1.1,2.21-1.1.73,0,1.42.41,1.42,1.2v7.57h-1.04v1.61h6.88v-1.61h-.92v-8.21c0-1.48-.47-3.82-3.91-3.82-1.86,0-3.22,1.1-4.61,2.18v-2.18.03Zm-119.49,0c3.63,0,5.65,2.4,6.6,5.68l-7.64,2.78c.63,1.55,1.74,2.37,3.41,2.37,1.26,0,2.46-.44,3.28-1.42l1.04,1.1c-1.58,2.08-3.72,3.5-6.72,3.5-4.07,0-6.56-2.84-6.56-7.13,0-3.72,2.84-6.88,6.63-6.88h-.03Zm-.85,2.05c-1.04.03-1.48.85-1.48,1.99,0,1.07.32,1.74.44,2.46l3.47-1.33c-.38-1.17-.98-3.12-2.43-3.12Z"/>
  </g>
</svg>