<?xml version="1.0" encoding="UTF-8"?>
<svg id="Layer_2" data-name="Layer 2" xmlns="http://www.w3.org/2000/svg" viewBox="0 0 1010.54 556">
  <defs>
    <style>
      .cls-1 {
        stroke-width: 0px;
      }
    </style>
  </defs>
  <g id="Layer_1-2" data-name="Layer 1">
    <path class="cls-1" d="m473.26,225.12l.06-.32.03-.16h0c.35-1.67.69-3.32,1.07-4.96-.06.09-.13.16-.19.25-15.35,20.68-44.65,25.52-68.02,20.34-10.52-2.34-17.81-6.92-22.77-12.76-4.77,24.57-22.07,43.45-47.21,52.04-29.46,10.04-61.74,5.02-89.33-8.72-4.01-1.99-6.03-4.39-7.17-6.6-1.48-2.87-1.77-5.91-.95-9.19.51-2.02,1.71-4.33,3.03-6.88,4.23-8.08,8.65-16.04,13.26-23.9,1.48-2.56,3.66-4.2,6.6-4.89,4.33-1.04,8.68-.51,13.01,1.86h.03c9.16,4.99,17.59,8.56,27.69,9.47,4.42.38,9.35.22,13.58-1.36,2.91-1.07,5.49-2.91,6.6-6.19,2.27-6.73-2.37-11.08-7.83-14.59-8.08-5.15-16.14-10.36-24.13-15.66-2.24-1.48-4.42-3.06-6.44-4.71C120.69,232.61-5.82,365.93,128.45,556-168.92,332.14,107.96,72.25,373.6,16.01c239.71-50.75,567.68,17.3,627.55,230.21,0,0-11.75-10.45-28.07-12-22.39-2.12-32.9,3.63-41.02,4.93-52.42.41-118.86-.41-191.11,0-.47-.03-.95-.06-1.42-.09-.73.38-1.48.69-2.31.92-.32.09-.66.16-.95.22-7.33,1.36-14.81,2.65-22.42,3.85-2.08.35-3.88.63-5.37.57-2.81-.09-5.18-.98-7.23-2.65-1.64-1.33-3.28-3.35-4.29-6.79-.85-2.87-1.67-5.75-2.53-8.62-.16-.06-.38-.95-.69-2.34-1.36-4.64-2.72-9.28-4.04-13.93-.51,2.37-1.01,4.74-1.52,7.11-1.04,4.8-2.05,9.6-3.09,14.4-.19.82-.51,2.05-1.04,3.66-1.29,3.98-4.99,6.76-9.22,6.82-.54.13-.06,0-.06,0,0,0-19.17.03-23.56.03h-33.79s.03.03.06.06c2.4,1.83,3.98,3.92,4.89,6.13.03,0,.06,0,.06-.03.32-.16.88-.25,1.58-.32s1.48-.16,2.37-.16c-.28,0-.54.03-.79.06h.03c.25-.03.51-.06.76-.06h.03v.03h.13s-.09-.03-.13-.03c22.52-.06,45.03-.06,67.58,0,2.49,0,4.83.88,6.66,2.34,1.99-1.52,4.45-2.46,7.55-2.46h0c12.22.03,24.63-.25,36.82.41,13.64.73,25.8,5.24,33.41,14.27.35-1.58.69-3.16,1.04-4.77-.25,1.17-.19,2.15.09,3,.22.79.6,1.55,1.14,2.18.88,1.11,2.15,1.86,3.51,2.18-.76,3.54-1.45,7.07-2.12,10.64-.38,1.99.09,3.44.95,4.45s2.15,1.77,4.17,1.77l5.12.06-15.98,74.68c-3.19.03-6.82-.28-9.57.41-1.17.28-2.12,1.17-2.53,2.31-.06.19-.13.38-.19.57-3.73-10.07-7.45-20.12-11.21-30.19,2.21-.98,4.42-2.12,6.63-3.38,13.89-7.89,21.32-24.73,21.03-40.1-.38-21.44-16.58-30.92-35.78-31.93-12.09-.66-24.38-.35-36.5-.41h0c-1.67,0-3.03.51-4.07,1.42-.98.82-1.71,2.02-2.08,3.69-13.33,62.08-21.82,101.71-25.42,118.89h0c-.19.88-.22,2.05.03,3.57v.03c.16.85.54,1.48,1.04,1.96s1.07.79,1.86.92l28.07.28v-.16c1.26-.22,2.12-1.01,2.59-2.34v-.03c.35-1.01.66-2.21.95-3.6,3.13-14.53,6.22-29.05,9.32-43.61h.13c4.45,15.44,8.97,30.85,13.48,46.26,1.07,3.66,2.62,6.32,6.79,5.78,4.55-.57,11.46-1.71,20.78-3.44.54.41,1.14.69,1.83.82.88.16,35.65.28,48.73.25h0c1.77,0,2.94-.35,3.79-.79h0l.35-.22h0c.19-.13.35-.25.51-.38.09-.09.22-.13.35-.13l3.32-12.19v-.03c.54-2.59,1.01-5.18,1.52-7.77.09-.57.13-1.58,0-2.97-.16-1.61-1.04-2.62-2.62-3.03-2.21-.57-5.05-.54-7.64-.47l15.98-74.75h7.96c2.12,0,3.98-1.45,4.48-3.54,1.39-5.65,2.68-11.46,3.85-17.46h0c.32-1.64.16-3.13-.41-4.48v-.03c-.51-1.2-1.61-2.02-2.87-2.18-1.11-.16-2.21-.22-3.35-.22-14.65-.03-29.34-.03-43.99,0-1.39,0-2.53-.03-3.44.16-1.17.22-2.12.73-2.87,1.55-.66.69-1.23,1.71-1.58,3.25h0c-.35,1.52-.66,3.06-1.01,4.58-1.64-2.53-4.74-7.07-5.02-5.94.66-2.97,1.86-4.8,3.13-6.13,1.67-1.8,3.69-2.87,6.16-3.38,1.2-.25,2.75-.28,4.61-.28,14.68-.03,29.37-.03,44.02,0,1.42,0,2.81.09,4.2.28,2.21.32,4.23,1.36,5.75,2.94,1.61-1.55,3.54-2.53,5.87-2.97,1.17-.22,2.62-.25,4.33-.25,21.25-.03,42.5-.03,63.72,0,1.55,0,3.06.13,4.58.38h.09c2.27.41,4.17,1.45,5.72,3.13.63.69,1.14,1.39,1.58,2.08,3.09-1.74,6.38-3.16,9.79-4.29,13.8-4.61,29.87-4.52,43.1-1.29h0c3.19.76,13.86,4.33,18.88,8.53,5.72,4.8,6.76,10.61,4.04,15.92h0c-2.27,4.42-4.64,8.81-7.04,13.2-1.11,2.02-2.18,3.85-3.32,5.15-1.93,2.15-4.2,3.51-6.88,4.04-2.27.47-5.05.41-8.56-1.17-5.68-2.59-10.8-5.49-17.43-6.16h0c-1.86-.19-3.85-.09-5.62.47-1.61.51-3.09,1.45-3.38,3.38h0c-.13.73.63.98,1.2,1.48,7.77,6.73,17.34,11.27,24.79,17.37,9.63,7.93,16.42,17.87,15.44,34.58-1.74,29.81-26.81,47.46-54.6,48.44-13.23.47-25.89-1.89-38.02-7.14-1.83,3.13-5.31,4.99-8.91,4.8-.32.03-1.29.16-1.77.16-21.54.03-43.07.03-64.58,0-4.52,0-7.23-1.52-8.97-3.35l.22-.22h-.06l-.47-.09c.09.09.19.22.28.32-.13.13-.28.25-.41.38-1.61,1.42-4.01,2.94-8.72,2.97h-.03c-15.13.03-30.25.03-45.35.03.38,0,0-.09,0-.09,0,.06-.03.09-.03.09,0,0-3.35-.16-4.55-.38-.57-.09-1.07-.25-1.61-.44-8.43,1.55-14.78,2.59-19.07,3.13-3.54.44-6.13-.38-8.15-1.8-2.46-1.71-4.23-4.61-5.31-8.37-2.24-7.64-4.48-15.32-6.69-22.96-1.42,6.63-2.84,13.23-4.26,19.86-.35,1.67-.73,3.09-1.14,4.26,0,.03-.03.06-.03.09-1.48,4.29-4.48,6.47-9.03,6.54h-.13c-5.75.06-11.49.09-17.21.09-1.71.03-8.59.19-10.2-.22-.16,0-.28-.03-.44-.03h-.03c-2.24-.25-3.95-1.14-5.31-2.34-.38.28-.76.57-1.17.82-1.42.88-3.54,1.77-7.29,1.77-21.13.03-65.08-.09-65.08-.09-7.55,18.19-22.8,32.08-43.29,39.06-29.46,10.04-61.74,5.02-89.33-8.72-4.01-1.99-6.03-4.39-7.17-6.6-1.48-2.87-1.77-5.91-.95-9.19.51-2.02,1.71-4.33,3.03-6.88,4.23-8.08,8.65-16.04,13.26-23.9,1.48-2.56,3.66-4.2,6.6-4.89,4.33-1.04,8.68-.51,13.04,1.86h.03c9.16,4.99,17.59,8.56,27.69,9.47,4.42.41,9.35.22,13.58-1.36,2.91-1.07,5.49-2.91,6.6-6.19,2.27-6.73-2.37-11.08-7.83-14.59-8.08-5.15-16.14-10.36-24.13-15.66-14.37-9.51-25.01-21.95-27-40.14-2.78-25.45,7.11-47.37,25.52-60.85-.25.03-.47.03-.73.03l-22.99-.03s-2.72.09-4.2-.03h-.57c.06,0,.13-.03.19-.03-.09,0-.19-.03-.25-.03-.03,0-.06,0-.06-.03-5.24-.88-9.13-5.65-8.81-11.05,0-.22.03-.47.06-.63.06-.6.16-1.2.25-1.8h0l.03-.22c.16-1.11.38-2.18.6-3.22-.03.19-.06.38-.09.57l.09-.51v-.09h0v-.06s-.03.03-.03.06l-.1-.13Zm306.18,32.62c-.22,1.01-.19,2.02.09,3,.76,2.37,3.16,3.57,4.67,4.14.06-.32.13-.63.19-.95l-4.96-6.19v.03-.03Zm27.98,105.06s6.28-.09,8.37.06c-.88,4.77-1.86,9.51-2.94,14.24-.09.44-.22,1.01-.32,1.42-.13,0-.25,0-.38.03-15.13.03-30.22.06-45.35.03-.47,0-.92,0-1.29-.03-.19-.28-.41-.54-.69-.73-.69-.54-1.58-.76-2.46-.6-9.88,1.86-17.21,3.09-21.98,3.69-.13-.38-.35-.95-.47-1.36-4.71-16.07-9.44-32.18-14.05-48.28-.44-1.58-1.96-2.65-3.63-2.53l-4.23.28h-.03c-.88.06-1.55.41-2.08.85s-.95,1.07-1.11,1.93c-3.19,15.19-6.44,30.35-9.73,45.54-.09.41-.19.82-.28,1.17-7.33.09-14.68.09-22.01,0h-.06c3.69-17.56,12.13-56.94,25.26-118.13,0-.06.03-.16.06-.25h0c12.03.03,24.19-.25,36.19.38,15.85.85,29.62,8.18,29.94,25.89.25,13.26-5.97,27.85-17.9,34.64-2.72,1.55-5.43,2.87-8.15,3.98h-.03c-1.04.44-1.64,1.14-1.99,1.89s-.44,1.67-.03,2.75c5.27,14.08,10.48,28.2,15.66,42.28.47,1.29,1.77,2.12,3.13,2.02s2.53-1.14,2.78-2.49c.51-2.56,1.01-5.12,1.52-7.67.06-.28.16-.6.25-.98,2.84-.35,6.35.13,9.13-.09.88-.06,1.58-.41,2.12-.88s.98-1.11,1.17-1.99c0,.03,17.08-79.89,17.08-79.89h0c.03-.13.03-.22.06-.35.19-1.86-1.17-3.57-3-3.76-.09,0-.22-.03-.35-.03l-7.42-.09c.98-5.18,2.05-10.29,3.19-15.41,0-.03.03-.09.03-.13.44,0,1.23-.03,1.86-.03,14.65-.03,29.3-.03,43.96,0h.47c-1.07,5.34-2.21,10.52-3.41,15.57h-8.81c-.95,0-1.71.32-2.27.79s-1.04,1.14-1.23,2.05l-17.08,79.89h0c-.28,1.36.13,2.34.66,3.03.41.51.95.95,1.77,1.17l.13.13Zm-78.22-83.34l-6.44,30.41c-.03.19.03.32.25.32,4.36.32,8.15.16,11.31-.54,9.79-2.12,14.72-11.31,14.3-20.97-.47-11.02-11.37-9.63-19.04-9.51-.19,0-.32.09-.35.28h-.03Zm-85.2-79.42l2.94-13.77c-1.58,1.04-3.54,1.74-5.97,1.74h-25.93c-.76,3.54-1.67,7.86-2.53,11.81h29.05c.85,0,1.67.06,2.43.19v.03Zm123.16,150.72c1.29-.16,2.72-.22,4.14-.25l7.52-35.12c-4.01,6.73-9.51,12.47-16.36,16.39-.66.38-1.29.73-1.96,1.07,2.21,5.97,4.45,11.94,6.66,17.9Zm-380.23-215.43c-1.58,1.86-3.32,3.13-5.15,3.95-3.13,1.39-6.85,1.8-11.62,0-3.69-1.42-7.36-3-10.93-4.77-6.47-3.16-17.02-6.13-25.7-4.64-3.85.66-7.33,2.34-8.87,6.32-1.45,3.76.19,6.47,2.4,8.72,2.65,2.68,6.03,4.83,9.06,6.79,9.66,6.25,20.65,12.44,29.49,20.3,4.11,3.63,7.74,7.61,10.74,12.03.06-.35.16-.69.22-1.07,3.44-15.88,6.88-31.77,10.33-47.65l.03.03Zm87.79,90.72l-.88-.92c.25.19.54.51.88.92Zm179.81-75.28l2.46-11.59c-.57.09-1.14.13-1.74.13h-29.78l-1.33,6.35h20.53c4.52,0,7.33,1.89,9.09,4.11.25.32.51.66.73,1.01h.03Zm52.36,239.99h0s0-.06,0,0Zm-188.24-154.07c5.15-2.65,10.77-4.77,16.8-6.25,6.95-1.71,14.72-2.84,22.77-3.19.54-2.78,1.33-6.6,2.37-11.46,2.37-11.02,4.71-22.04,7.07-33.03-11.27,7.55-25.01,10.04-39,10.2l-8.72,40.48v.03c-.25,1.17-.69,2.24-1.26,3.22h-.03Zm163.2,53.08c-8.87,0-17.78.03-26.65.06l-1.23,5.87h20.49c6,0,10.93,4.93,10.93,10.93v.44c1.23-5.78,2.56-11.84,3.92-18.25-1.52.63-3.19.95-5.05.95h-2.02l-.44.03v-.03h.06Zm-5.68,60.54c1.26-5.87,2.65-12.44,4.23-19.74-1.48,4.17-5.49,7.07-10.01,7.07l-25.42.03-2.4,11.24h26.75c1.17,0,2.46.19,3.51.32h.06c1.2.16,2.31.54,3.32,1.07h-.03Zm-246.94-255.72c.03-.25.03-.51.03-.76,0-4.58-3.73-8.34-8.31-8.43-8.31-.13-16.67-.16-25.07-.03h0c-2.81.03-4.67.76-6.06,1.64-.13.06-.22.16-.32.22,2.59,1.42,5.02,3,7.33,4.74,1.52,1.17,2.72,2.43,3.63,3.76,1.45-.66,3.25-1.11,5.65-1.17,7.74-.09,15.44-.09,23.12,0v.03Zm395.39,286.54c.13.47.32.88.54,1.26.79,1.23,2.27,2.31,5.18,2.31,21.5,0,43.04.03,64.58,0h0c.63,0,1.26-.06,1.99-.16,2.08-.28,2.91-.66,3.54-2.02,0,0,0-.03.03-.03.47-1.04.92-2.43,1.29-4.2h0c.06-.35.16-.66.22-1.01.63.41,1.33.76,2.08,1.14,12.47,6.16,25.61,9,39.38,8.53,24.63-.88,47.11-16.2,48.66-42.63.82-14.24-5.02-22.7-13.2-29.43-7.48-6.16-17.12-10.74-24.88-17.49-2.34-2.02-3.73-4.2-3.25-7.11,1.2-7.55,9.03-9.63,15.69-9,7.33.73,13.07,3.79,19.39,6.66,1.96.88,3.51,1.01,4.77.76,1.39-.28,2.53-1.01,3.51-2.08.88-1.01,1.67-2.46,2.53-4.01,2.37-4.33,4.71-8.65,6.95-13.04,1.45-2.81.54-5.81-2.53-8.37-4.33-3.63-13.64-6.6-16.39-7.26-12.19-2.94-27-3.06-39.69,1.17-7.71,2.59-14.65,6.73-19.83,12.82,1.29-3,2.34-5.43,3.03-7.33.63-1.64.41-3.32-1.07-4.96-.6-.66-1.33-1.07-2.21-1.23h-.03c-1.2-.19-2.37-.28-3.57-.28-21.22,0-42.47-.03-63.72,0h0c-1.26,0-2.34-.03-3.22.13-1.14.22-2.05.66-2.81,1.42-.66.66-1.26,1.64-1.61,3.19-8.05,37.52-16.07,75.03-24.06,112.54h0c-.35,1.64-.69,3.28-1.01,4.93l-.06-.06c-.13.85-.32,2.75-.16,4.93l-.03-.06Zm32.94-115.99l-.51.41c.28.47.47.76.51.82v-1.23Zm52.14,24.66c-.28,2.49-.41,4.93-.35,7.26-.6-.32-1.26-.54-1.93-.73-.06-.03-.16-.03-.22-.06-1.2-.28-2.49-.57-3.69-.57h-.06c-6.57-.03-13.14-.03-19.7-.03l1.23-5.87c8.27,0,16.52,0,24.73-.03v.03Zm-4.64,82.14c.44.25,1.2.66,1.74.92,11.53,5.72,23.68,8.34,36.41,7.86,21.47-.76,41.37-13.8,42.73-36.85.82-14.24-6.51-21.47-15.5-27.73-6.63-4.61-14.15-8.72-20.49-14.21-4.14-3.57-6.13-7.58-5.31-12.76,1.77-11.02,12.63-15.13,22.39-14.15,8.05.79,14.4,4.04,21.35,7.2.28.13.54.22.76.28.06,0,.13.03.19.03.09-.09.38-.41.54-.63.47-.69.88-1.52,1.36-2.4,2.31-4.2,4.58-8.43,6.79-12.69-.16-.22-.57-.69-.92-1.01-.98-.82-2.27-1.58-3.69-2.27-3.85-1.89-8.46-3.32-10.17-3.73-11.15-2.68-24.69-2.87-36.31,1.01-11.18,3.73-20.56,11.27-23.78,24.16-3.76,14.84.38,26.3,13.01,34.64,6.19,4.07,12.38,8.15,18.57,12.19,7.86,5.12,10.67,15.76,5.08,23.43-3.41,4.67-8.81,6.92-14.81,7.45-8.21.73-17.53-1.77-23.37-4.71-2.27-1.14-4.61-2.21-6.98-3.25-.06-.03-.16-.06-.22-.06-.09.09-.19.25-.28.38-3.13,5.43-6.16,10.96-9.03,16.58-.03.09-.09.16-.13.25l.09.06Zm79.74-93.57c-.03.06-.06.09-.09.13.03-.03.06-.13.09-.13h0Zm-89.87,100.13s3-11.94,3.98-17.21c-12.57,0-25.17-.06-37.74-.09h0c-1.26,0-2.05-.57-2.56-1.2s-.92-1.52-.66-2.78v-.03l6.19-28.8c.38-1.8,1.96-3.09,3.79-3.09l30.82-.03c1.33-5.78,2.59-11.53,3.76-17.27-9.51-.03-30.41-.06-30.41-.06-1.67-.35-2.87-1.89-2.72-3.66,0-.13.03-.22.06-.35l4.96-23.75v-.03c.35-1.61,1.8-2.72,3.38-2.72,11.97.03,23.94,0,35.84-.03.13,0,.28-.03.41-.03.06-.16.19-.41.25-.57.16-.41.35-.85.57-1.29,3.06-6.6,5.34-11.72,6.82-15.35h-.41c-21.22-.03-42.47-.03-63.69,0h0c-.54,0-1.2,0-1.64.03l-.47,2.21c-7.89,36.73-15.76,73.45-23.56,110.18-.41,1.96-.82,3.92-1.2,5.87,19.36.03,64.17,0,64.23,0v.06Zm0,0h0c.16,0,.13-.03,0,0Zm10.2-22.55l-1.11-.13c.51.63,1.11,1.14,1.8,1.55-.19.32-.38.66-.54.98-.41-1.42-1.58-2.59-3.09-2.94-.79-.19-1.77-.28-2.97-.28-11.49,0-22.99-.03-34.48-.09,1.33-6.16,4.04-18.85,5.05-23.56l30.06-.03c1.26,0,2.27-.38,3.03-1.01s1.39-1.52,1.67-2.75c1.11-4.8,3.85-17.68,4.17-19.26h0c.32-1.61.16-2.97-.32-4.04v-.03c-.47-1.04-1.36-1.8-2.46-2.08-.03,0-.06,0-.06-.03-.76-.19-1.58-.41-2.34-.41h-.03c-9.13-.03-18.22-.03-27.28,0l3.79-18.22c11.24,0,22.45,0,33.66-.03,1.55,0,2.62-.32,3.44-.76.09-.06.22-.13.32-.19-.06.28-.16.54-.22.82-4.45,17.72.51,31.33,15.6,41.3,6.19,4.11,12.41,8.15,18.6,12.19,4.93,3.22,6.98,9.82,3.47,14.62-2.37,3.22-6.19,4.58-10.36,4.96-7.04.63-15.06-1.58-20.05-4.07-2.37-1.2-4.8-2.31-7.26-3.38h0c-1.77-.76-3.38-.79-4.77-.28-1.33.47-2.56,1.45-3.54,3.16h0c-.6,1.04-1.17,2.05-1.77,3.09l-3.25-5.62c.32.09.63.19.92.28-.57-.82-1.01-1.23-1.23-.85,1.83-3.19,4.26-4.96,6.76-5.87,2.75-.98,5.87-1.07,9.32.41h.03c2.56,1.11,5.05,2.27,7.52,3.51h0c4.2,2.08,10.86,3.98,16.77,3.44,2.34-.22,4.61-.63,5.94-2.46,1.42-1.96.16-4.52-1.86-5.84-6.22-4.04-12.44-8.12-18.63-12.22-7.01-4.64-12.16-9.98-15.47-16.01-1.04,5.05-2.18,10.11-3.35,15.19-.63,2.81-2.08,4.77-3.85,6.19s-4.01,2.34-6.88,2.34h-25.07c-.73,3.35-1.61,7.48-2.4,11.24,8.97.03,17.94.03,26.87.06,1.61,0,2.97.16,4.07.38.06-.13.16-.25.22-.38-.06.13-.16.25-.22.38h0c-.28.6-.47,1.23-.54,1.86-.19,1.99,1.01,3.6,2.37,4.74l-.03.16Zm-1.26-6.47l-.32-.57s-.03.03-.03.06c-.06.13-.16.25-.22.38.09,0,.16.03.25.06.09.03.22.06.32.09v-.03Zm1.26,6.47c.35.28.69.54,1.04.79.13-.22.22-.41.35-.63l-1.39-.16Zm-297.78,28.64c19.29.06,38.59.09,57.85.06,2.08,0,3.28-.35,4.07-.82s2.68-5.43,2.68-5.43c1.29-5.91,2.49-11.91,3.63-18.03.06-.25.06-.51.06-.79,0-2.12-1.58-3.95-3.69-4.23h-.03c-.79-.09-1.77-.25-2.65-.25h-34.36l5.05-23.59,30.41-.03c2.08,0,3.92-1.48,4.36-3.51l4.42-20.3c.06-.32.09-.66.09-1.01,0-2.62-2.15-4.77-4.77-4.77l-28.07-.03,3.79-18.19c10.33-.03,20.72-.06,31.07-.06h2.97l.76-.03c2.24-.22,3.92-1.45,4.96-3.73,2.43-5.4,4.86-10.86,7.23-16.29.76-1.74,1.48-3.44,1.33-5.27h0c-.19-2.34-2.18-4.17-4.55-4.17-22.29-.03-44.56-.06-66.79,0v-.06c-.25,0-.51.03-.76.03v.03c-1.17,0-2.12.16-2.84.44t-.03-.06c-.06.03-.13.03-.19.06v.06c-.63.25-1.11.6-1.52.95-1.07.98-1.55,2.59-2.08,5.08-6.98,32.4-13.89,64.83-20.81,97.26-1.11-13.26-7.83-23.02-16.8-31.01-8.62-7.64-19.33-13.64-28.77-19.74-3.38-2.18-7.14-4.64-10.11-7.64-3.85-3.88-6.32-8.78-3.79-15.28,2.4-6.19,7.58-9.13,13.58-10.17,9.95-1.74,22.07,1.55,29.49,5.18,3.41,1.67,6.88,3.19,10.42,4.55,2.81,1.07,5.02.98,6.88.16,1.74-.79,3.25-2.31,4.58-4.71,2.75-4.99,5.49-10.01,8.24-15.03l3.32-6.06h0c1.17-2.15,1.45-4.14,1.07-5.94s-1.45-3.54-3.38-4.99c-6.98-5.31-15.54-8.91-24.76-11.12h46.42c.85,0,4.48.13,5.97-2.21v-.03c.51-1.07.85-2.18,1.11-3.35,1.26-5.94,2.46-11.91,3.57-17.9h0c.28-1.48.19-2.56,0-3.19v-.03c-.66-2.21-2.18-3.32-4.48-3.32h-36.66c1.33-6.16,4.11-19.04,5.18-24.13l30.88-.03c1.23,0,2.21-.38,2.94-.98s1.33-1.45,1.58-2.68l4.36-19.99c.44-2.05-.03-3.57-.85-4.58s-2.21-1.83-4.29-1.83l-28.1.03,3.92-18.69h34.8c2.4,0,4.58-1.39,5.56-3.57,2.46-5.43,4.99-11.05,7.58-16.83l.03-.06c.57-1.26.98-2.62,1.29-4.11v-.03c0-.06.03-.16.03-.22.35-2.4-1.33-4.64-3.69-4.99-.06,0-.16-.03-.22-.03-.95-.09-2.08-.16-3.32-.16h0c-22.1-.06-44.24-.09-66.35-.06h0c-1.67,0-2.81.35-3.63.85-1.04.6-1.71,1.45-2.18,2.62-.35.85-.51,1.96-.82,3.38-1.58,7.39-3.16,14.78-4.77,22.2-.76-6.82-3.28-12.54-7.23-16.99-6.06-6.88-15.6-10.96-27.82-11.68-13.11-.76-26.37-.38-39.82-.32-2.31,0-4.36,1.58-4.96,3.82-.98,3.66-18.44,85.39-25.67,119.46h0c-.25,1.26-.47,2.56-.66,3.92-.03.54-.09,1.96.22,3.09.63,1.45,2.05,2.53,3.76,2.62h.06l1.01-.03v-.03h1.07l24.25.03c2.34,0,4.36-1.64,4.86-3.92h0l9.76-45.38c19.42.44,39.06-2.78,51.35-19.55,1.26-1.71,2.4-3.47,3.41-5.31-3.95,18.38-7.89,36.79-11.81,55.17-1.2,5.65-2.08,9.88-2.59,12.69h0c-.22,1.26-.06,2.43.47,3.51-.76,0-6.13.13-6.47.16-7.45.38-14.65,1.42-21.09,3-31.17,7.64-50.08,33.63-46.55,65.94,1.77,16.23,11.46,27.19,24.25,35.68,7.96,5.27,15.98,10.48,24.03,15.6h0c7.96,5.08,13.67,11.97,10.36,21.76-1.77,5.18-5.65,8.27-10.29,9.98-5.05,1.86-10.96,2.18-16.26,1.71-10.96-.98-20.15-4.8-30.09-10.2h0c-.35-.19-.69-.35-1.04-.51-2.56-1.14-5.08-1.36-7.61-.76-1.2.28-2.08.95-2.68,1.99-.16.25-.28.51-.44.76-4.39,7.55-8.62,15.16-12.66,22.89-.66,1.26-1.33,2.46-1.8,3.54-.28.6-.47,1.2-.63,1.77-.03.06-.03.16-.06.22-.44,1.74-.32,3.35.44,4.86.69,1.33,1.99,2.72,4.42,3.92h0c26.12,13.04,56.68,17.94,84.6,8.4,18.32-6.25,32.12-18.47,39.13-34.58,0,0,.03,0,.03.03l.88-2.12h-.03c.51-1.26.95-2.53,1.36-3.82.57.51,1.29.85,2.05.95h0c.06,0,.13,0,.19.03l8.87.16.03-.06Zm-121.99-156.94c7.23-34.07,24.54-114.94,25.42-118.42,13.01-.06,25.93-.41,38.65.32,10.29.6,18.44,3.79,23.56,9.6,5.05,5.75,7.01,13.96,5.37,24.32-1.17,7.42-3.95,14.12-8.27,20.08-11.46,15.66-30.28,17.68-48.38,16.96-1.67-.06-3.19,1.11-3.54,2.75l-10.04,46.61h-23.15c.13-.76.25-1.48.41-2.21h-.03Zm47.65-98.52l-6.73,30.85v.09c0,.22.19.41.41.41,3.51.06,7.01-.25,10.48-.95,9.76-1.96,15.28-10.67,15.63-20.12.22-5.43-1.86-9.22-7.45-10.07-3.95-.6-7.96-.76-12-.51-.19,0-.28.09-.35.28Zm132.22,249.37h0s3-12.16,3.95-17.27h-37.93c-.09,0-.19,0-.32-.03-1.8-.22-3.03-1.86-2.84-3.57,0-.13.03-.25.06-.35l6.22-29.08v-.03c.38-1.67,1.89-2.87,3.6-2.87l31.04-.03,3.76-17.27-30.63-.19c-.76-.22-1.29-.66-1.67-1.14-.57-.69-.98-1.67-.69-3.09h0s4.86-23.37,4.86-23.34c.19-.88.63-1.52,1.17-1.99s1.23-.79,2.15-.79h.06c12.09-.03,24.16-.06,36.25-.09h0c.06,0,.09-.06.13-.16,2.43-5.4,4.83-10.8,7.2-16.23.13-.28.28-.54.41-.82-21.85-.06-43.7-.06-65.52,0h-.28c-.09.44-.25,1.14-.38,1.67-8.34,38.81-16.64,77.65-24.88,116.49,19.36.09,63.28.09,64.29.09v.09Zm-2.05-269.2c-.19,0-67.07-.06-67.14-.06-.09.47-16.14,75.31-23.37,109.1-1.07,4.96-1.86,8.81-2.37,11.53.16,0,.28.03.41.03h64.7c.28,0,.6-.03.88-.03.06-.22.13-.44.16-.69,1.2-5.65,2.34-11.31,3.41-16.99h-38.46c-1.33,0-2.12-.6-2.65-1.26s-.88-1.52-.63-2.78v-.03l6.22-29.02c-.06-1.93.79-3.38,3.51-3.38l31.86-.03,3.85-17.72-30.47.03h-.03c-.09,0-.22,0-.32-.03-1.86-.19-3.19-1.86-3-3.69,0-.13.03-.25.06-.35,0,0,5.05-24.22,5.05-24.19.19-.92.63-1.55,1.2-2.02s1.26-.79,2.21-.79h36.95c1.67-3.66,7.8-17.37,7.89-17.65l.06.03Zm-97.83,130.07c-.28.03-.57.06-.85.06-9.22-.03-18.25,1.04-26.08,2.97-28.04,6.88-45.06,30.22-41.9,59.27,1.55,14.27,10.26,23.75,21.54,31.2,7.71,5.08,15.41,10.11,23.18,15.06.25.16.51.32.76.47h0c10.48,6.69,17.24,16.04,12.88,28.96-4.67,13.7-20.15,16.99-32.94,15.82-11.81-1.04-21.79-5.08-32.49-10.93h0c-1.17-.63-2.37-.95-3.54-.82-4.36,7.45-8.53,15-12.5,22.61v.03c-.6,1.14-1.2,2.18-1.61,3.16-.13.32-.25.63-.35.92,0,.03,0,.06-.03.06-.06.19-.13.38-.03.54.09.19.25.38.47.54.28.22.69.44,1.2.69h0c24.66,12.28,53.49,17.08,79.86,8.08,26.08-8.91,42.03-31.14,40.01-59.34,0-.13-.03-.28-.03-.41-.95-11.56-6.95-19.96-14.75-26.9-8.37-7.45-18.85-13.23-28.01-19.17-3.73-2.4-7.86-5.18-11.12-8.46-5.49-5.56-8.75-12.57-5.15-21.85,3.25-8.43,10.14-12.6,18.25-14.02,11.21-1.93,24.92,1.64,33.25,5.72,3.25,1.58,6.54,3.03,9.92,4.29.88.35,1.58.54,2.15.28.69-.32,1.17-1.07,1.71-2.05,3.85-7.01,7.71-14.02,11.53-21.06.35-.63.57-1.2.47-1.77s-.51-.92-1.07-1.33c-11.75-8.94-28.45-12.6-44.65-12.73l-.06.09Zm-189.66-157.92c-20.4-11.97-50.43-12.44-72-7.14-30.82,7.58-49.55,33.28-46.07,65.24.82,7.42,3.32,13.7,7.07,19.1-.44-1.89-.76-3.88-.98-5.94-3.88-35.56,16.93-64.17,51.22-72.6,17.87-4.39,41.15-4.77,60.79,1.33h-.03Zm272.65,154.58s27.19.22,27.22-.09c1.23-.28,2.27-1.2,2.65-2.43.44-1.33.73-2.34.85-3.03h0c2.84-13.29,5.68-26.59,8.53-39.88l1.11.82,1.48-1.58c4.23,14.53,8.46,29.05,12.69,43.58.54,1.86,1.39,3,2.27,3.73,1.01.82,2.18,1.23,3.57,1.26,1.17.03,2.56-.22,4.17-.47,7.55-1.2,14.97-2.49,22.23-3.82.13-.03.28-.06.44-.09,2.75-.76,4.39-3.63,3.63-6.38-.03-.13-.09-.28-.13-.41h0l-17.46-47.05c9.54-4.04,17.18-9.95,22.1-19.58,10.74-21,8.94-48.25-18.44-55.2-5.34-1.36-10.8-2.08-16.33-2.18-11.4-.19-22.7-.19-33.88,0-2.34.03-4.36,1.71-4.83,3.98l-26.37,123.31c-.06.32-.09.63-.09.98,0,2.53,2.08,4.61,4.58,4.61h0v-.06Zm24.54-6.16h-22.61l25.77-120.57c10.83-.16,21.76-.16,32.78.03,5.05.09,10.01.76,14.9,1.99,22.86,5.78,23.46,28.86,14.46,46.42-4.61,9-12.06,14.12-21.28,17.65h-.03c-1.8.69-2.65,2.72-1.99,4.45,0-.03,15.28,41.18,17.97,48.41-6.76,1.26-23.59,3.98-23.84,4.01-.06-.16-10.33-35.3-14.78-50.56v-.03c-.44-1.55-1.89-2.59-3.54-2.56h-.06l-4.23.22c-1.61.06-3,1.26-3.32,2.84-3.25,15.66-10.14,47.43-10.2,47.68Zm24.76-100.99l-6.54,31.01c-.03.22.06.35.28.38,3.95.28,7.77.09,11.46-.63,10.01-1.96,14.78-11.56,14.62-21-.19-11.46-11.65-10.17-19.52-10.01-.16,0-.28.09-.32.25Zm-236.87-18.13h0c-4.64,21.54-9.25,42.95-13.8,64.23-1.42,6.63-3.09,15.32-6.76,21.95-3.22,5.81-8.15,9.95-16.33,8.72-2.56-.38-4.36-1.17-5.53-2.37-1.29-1.36-1.74-3.22-1.83-5.27-.13-2.59.38-5.49,1.01-8.37,5.65-25.89,11.31-51.79,16.89-77.71.44-2.02.82-4.01,1.11-6,.03-.22.06-.47.06-.69,0-2.43-1.96-4.42-4.39-4.45-8.27-.13-16.61-.16-24.95-.03-1.83.03-3.06.44-3.98,1.04-1.04.66-1.77,1.58-2.24,2.78-.38.98-.6,2.24-.92,3.73-5.46,25.33-10.93,50.65-16.42,75.98-2.91,13.42-2.87,26.43,3.13,35.97,4.11,6.54,10.99,11.59,21.82,13.99,21.16,4.71,47.81.76,61.7-17.97,4.61-6.19,7.52-14.94,9.16-22.64,6.16-28.8,12.28-57.95,18.41-87.41h0c.35-1.77-.09-3.03-.82-3.92s-1.86-1.58-3.66-1.58h-25.36c-2.4,0-4.48,1.67-4.99,4.04h0c-.35,1.55-.66,3.06-1.01,4.61h0c-.09.44-.22.95-.32,1.42v-.03Zm29.68-3.88h-22.55c-5.02,23.3-10.01,46.45-14.94,69.41-1.55,7.17-3.44,16.48-7.42,23.65-4.45,8.02-11.34,13.52-22.64,11.81-4.23-.63-7.14-2.18-9.06-4.2-1.89-1.99-2.97-4.45-3.38-7.29-.54-3.57.03-7.77.95-11.94,5.65-25.89,11.31-51.79,16.89-77.71.28-1.26.51-2.49.73-3.69-7.58-.09-15.16-.13-22.8,0-.19,0-.44.03-.6.06-.06.22-.16.6-.22.88-.09.54-.22,1.11-.35,1.74-5.46,25.33-10.93,50.68-16.42,76.01-2.53,11.68-2.91,23.05,2.31,31.36,3.35,5.34,9.09,9.28,17.94,11.27,18.95,4.23,42.98,1.14,55.42-15.63,4.11-5.53,6.6-13.36,8.08-20.24,6.03-28.17,12.03-56.65,18.03-85.45l.03-.03Zm193.83,182.78h0v.09-.09Zm-439.41-33.38c-.03.06-.03.13-.06.22-.44,1.74-.32,3.35.44,4.86.69,1.33,1.99,2.72,4.42,3.92h0c26.12,13.01,56.68,17.94,84.6,8.4,28.8-9.82,46.42-34.45,44.18-65.62-.98-13.52-7.77-23.4-16.86-31.48-8.62-7.64-19.33-13.64-28.77-19.74-3.38-2.18-7.14-4.64-10.11-7.64-3.85-3.88-6.32-8.78-3.79-15.28,2.4-6.19,7.58-9.13,13.55-10.17,9.95-1.71,22.07,1.55,29.49,5.18,3.41,1.67,6.88,3.19,10.42,4.55,2.81,1.07,5.02.98,6.88.16,1.74-.79,3.25-2.31,4.58-4.71,3.88-7.01,7.71-14.05,11.56-21.09h0c1.17-2.15,1.45-4.14,1.07-5.94-.16-.76-.44-1.48-.85-2.21-.57-1.01-1.39-1.93-2.53-2.78-20.05-15.25-53.4-16.52-76.77-10.77-31.17,7.64-50.08,33.63-46.55,65.94,1.77,16.23,11.46,27.19,24.25,35.68,7.96,5.27,15.98,10.48,24.03,15.6h0c7.96,5.08,13.67,11.97,10.36,21.76-1.77,5.18-5.65,8.27-10.29,9.98-5.05,1.86-10.96,2.18-16.26,1.71-10.96-.98-20.15-4.8-30.09-10.2h0c-.35-.19-.69-.35-1.04-.51-2.56-1.14-5.08-1.36-7.61-.76-1.2.28-2.08.95-2.68,1.99-.16.25-.28.51-.44.76-4.39,7.55-8.62,15.16-12.66,22.89-.66,1.26-1.33,2.46-1.8,3.54-.28.6-.47,1.2-.63,1.77h-.03Zm5.94,1.64s0,.06-.03.06c-.06.19-.13.38-.03.54.09.19.25.38.47.54.28.22.69.44,1.2.69h0c24.66,12.28,53.49,17.08,79.86,8.08,26.08-8.91,42.03-31.14,40.01-59.34-.85-11.75-6.88-20.27-14.78-27.32-8.37-7.45-18.85-13.23-28.01-19.17-3.73-2.4-7.86-5.18-11.12-8.46-5.49-5.56-8.75-12.57-5.15-21.85,3.25-8.43,10.14-12.6,18.25-14.02,11.21-1.93,24.92,1.64,33.25,5.72,3.25,1.58,6.54,3.03,9.92,4.29.88.35,1.58.54,2.15.28.69-.32,1.17-1.07,1.71-2.05,3.85-7.01,7.71-14.02,11.53-21.06.35-.63.57-1.2.47-1.77s-.51-.92-1.07-1.33c-18.69-14.21-49.8-15.03-71.59-9.69-28.04,6.88-45.06,30.22-41.9,59.27,1.55,14.27,10.26,23.75,21.54,31.2,7.71,5.08,15.41,10.11,23.18,15.06.25.16.51.32.76.47h0c10.48,6.69,17.24,16.04,12.88,28.96-4.67,13.7-20.15,16.99-32.94,15.82-11.81-1.04-21.79-5.08-32.49-10.93h0c-1.2-.63-2.37-.95-3.54-.82-4.36,7.45-8.53,15-12.5,22.61v.03c-.6,1.14-1.2,2.18-1.61,3.16-.13.32-.25.63-.35.92l-.06.09Zm586.57,30.09c-.57.09-1.11.13-1.71.13h-2.97l-13.42,62.71c.57.09,1.07.19,1.61.32,1.01.25,1.93.6,2.75,1.04,4.58-21.41,9.16-42.82,13.74-64.23v.03Zm-191.27-69.28h.03-.03Zm94.01-113.68c-4.04-8.53-11.78-15.35-24.09-18.47h0c-5.65-1.42-11.4-2.18-17.21-2.31-11.46-.19-22.8-.19-34.04,0-1.77.03-3.47.6-4.86,1.55-1.01-.66-2.15-1.14-3.41-1.33-.16-.03-.28-.03-.44-.06-1.04-.09-2.31-.16-3.69-.16-22.14-.06-44.24-.09-66.38-.06-2.62,0-4.39.63-5.65,1.42-2.46,1.45-3.85,4.01-4.83,8.56-.57,2.68-1.14,5.37-1.74,8.05-1.01-1.67-2.15-3.22-3.41-4.64-6.66-7.58-17.12-12.22-30.57-13.01-13.17-.76-26.53-.38-40.07-.32h0c-4.11.03-7.71,2.81-8.75,6.76h0c-.09.38-.19.76-.28,1.17-.25-1.55-.92-2.78-1.74-3.76-1.33-1.64-3.41-3.03-6.73-3.03h-25.36c-4.23,0-7.96,2.97-8.87,7.14v.03c-9.88-.66-10.93,2.21-16.7,2.12,5.78.09,10.45,4.86,10.45,10.61,0,.54-.03,1.11-.13,1.64-.32,2.08-.73,4.2-1.17,6.35-5.59,25.93-11.24,51.82-16.89,77.75-.51,2.34-.95,4.67-.85,6.79.03.47-.16.95.13,1.26.41.41,1.11.41,1.99.54,5.08.76,8.02-2.02,10.04-5.62,3.41-6.13,4.83-14.15,6.13-20.24,4.99-23.21,10.01-46.61,15.09-70.2v.25l.13-.51s-.09.06-.09.16c1.14-5.18,5.75-8.87,11.02-8.87h25.36c4.17,0,6.79,1.8,8.43,3.85.44.54.85,1.14,1.2,1.8,2.05-2.02,4.86-3.22,7.86-3.25h0c13.58-.06,27-.44,40.2.35,14.15.82,25.07,5.81,32.08,13.77.22.25.44.51.66.76l.66-3.16c.38-1.8.66-3.25,1.11-4.33.98-2.49,2.53-4.33,4.74-5.65,1.55-.92,3.63-1.74,6.79-1.74,22.14-.03,44.27,0,66.38.06,1.45,0,2.78.06,3.88.16.19.03.38.03.54.06,1.11.16,2.15.51,3.09.98,1.45-.73,3.13-1.17,4.83-1.2,11.27-.19,22.61-.19,34.1,0,6,.09,11.91.88,17.72,2.37,5.18,1.33,9.6,3.25,13.33,5.68l.03-.06Zm-293.3,184.48c-1.07-.13-2.49.28-4.29,1.55-.35.25-.85.57-1.52.88-1.39.63-3.47,1.29-6.16,1.14-2.91-.16-4.55-.69-6.38-1.17-2.31-.6-4.93-1.14-9.35-1.17-13.26,0-25.8,10.33-26.24,26.34-.44,15.6,9.57,32.84,27.66,33.66,9.54.44,27.66-4.61,35.9-8.21.22-.09,1.86-1.55,1.99-1.77l3.6-6.06c2.59-4.33,1.52-7.99-3.19-6.57-7.8,2.34-12.06,3.22-23.34,4.07-17.94,1.39-16.52-7.67-16.14-13.83.41-6.79,4.99-11.72,7.23-11.59,5.15.35,6.57.85,7.52,7.55.16,1.2,2.02,3.35,3.16,3.66l2.87.76c2.34.63,4.77-.92,5.27-3.38.79-3.76,3.98-9.95,4.99-10.83.16-.16,1.89-2.37,1.07-5.62-.16-.69-.41-1.61-.66-2.53-.38-1.33-.76-6.54-3.98-6.92l-.03.03Zm-56.34.88c-.25,0-.51.03-.73.09-7.77,1.93-21.47,2.21-25.33,1.45-1.39-.25-3.95.98-4.58,2.31l-1.36,2.65c-1.29,2.56-.22,5.34,2.43,6.25,3.66,1.26,5.15,3.95,5.81,7.29.35,1.86.41,3.79.38,5.49-.03,1.99-.16,3.76-.16,4.99,0,5.53-1.89,10.96-2.72,15.44-.85,4.58-2.08,6.95-3.19,7.83-1.23,1.01-1.89,3.85-1.23,5.34l1.36,3.03c1.74,3.92,5.31,4.17,7.52.51,2.18-3.57,14.21-7.14,20.05-4.17,1.36.69,4.11.13,5.12-1.07l1.71-2.02c1.61-1.86,1.36-4.8-.54-6.38-5.46-4.52-6.63-8.05-6.85-10.61-.44-4.93.35-7.86.35-10.07,0-5.62.19-9.79,1.01-12.76.76-2.65,1.8-3.69,3.41-4.14,2.43-.69,3.69-3.35,2.87-5.78l-.98-2.78c-.6-1.64-2.56-2.91-4.33-2.87l-.03-.03Zm-40.07.35c-1.04-.09-2.34.41-4.01,1.83-.35.25-.85.54-1.48.85-1.36.63-3.38,1.26-6,1.11-3-.19-5.94-.85-9.09-1.48-3.57-.69-7.33-1.39-11.53-1.42-11.84-.16-24.98,6.82-25.52,26.53-.44,15.82,12.5,30.98,26.05,32.05,1.61.13,3.09,0,4.52-.25,1.23-.22,2.53-.57,3.92-.92,2.31-.63,5.02-1.36,8.75-1.64,1.61-.13,4.04,1.61,4.39,2.43.25.63,2.24,2.43,2.87,2.59l3.66,1.01c3.09.85,5.49-1.07,5.4-4.39-.03-1.23-.16-3.35-.47-5.49-.25-1.86.06-4.52.41-6.06.51-2.27,1.86-3.51,4.74-4.26,5.43-1.39,6.66-3.44,4.8-6.63l-2.21-3.76c-.16-.28-1.96-1.8-2.27-1.89-4.33-1.55-22.2-.44-26.37,1.26-1.71.69-2.78,3.19-3.06,4.99l-.6,2.97c.38,1.77,2.87,3.35,6.35,3.44h-2.49c-11.65,2.02-13.26-7.55-12.79-15.13.38-6,5.21-11.18,10.39-10.39,6.35.95,8.56,1.8,9.35,7.48.16,1.2,2.02,3.38,3.16,3.66l2.81.76c2.37.63,4.8-.92,5.27-3.35.76-3.73,3.88-9.73,4.86-10.61.16-.13,1.89-2.37,1.11-5.59-.19-.66-.44-1.58-.66-2.49-.38-1.29-1.14-6.85-4.26-7.14l.03-.06Zm-164.74,1.07c.51,0,.98.06,1.39.22,2.68,1.14,15.63,2.56,20.65.32.57-.25,3.22-.19,3.79.09,0,0,.95.51,1.89.98,3.32,1.8,5.21,1.93,3.79,6.63s-.09,12.98,4.36,20.75c1.55,2.72,4.33,8.34,7.14,14.62.57-3.66,2.27-7.01,4.61-9.98,3.06-3.92,5.05-9.03,5.94-11.65.98-2.84,4.04-5.53,7.74-4.77.28.06.6.19.92.28-6.03-2.4-12.22-4.71-12.57-4.83-3.28-1.2-4.11-4.29-1.86-6.98l3.13-3.79c.79-.95,3.54-1.77,4.71-1.39,3.47,1.14,24,4.42,30.85,1.36.92-.41,3.63,0,4.42.63l4.11,3.63c.28.25,1.83,1.17,2.12,2.56,2.43,12.66,6.85,28.77,16.1,42.19,1.14,1.64-1.45,4.33-3.57,7.26-.51.66-4.11-.98-5.05-1.29-8.59-2.84-14.12-1.17-15.5.25-1.83,1.89-4.77,1.77-6.47-.25l-3.38-3.98c-1.26-2.46.79-5.21.85-5.49s.06-.79.03-1.52c-.13-1.64-.66-4.14-1.39-6.85.63,3.47-1.45,6.16-4.14,7.29-.28.09-.88.38-1.71,1.86-.47.85-.92,1.83-1.36,2.97-.54,1.26-1.07,2.72-1.71,4.33s-3.13,3.03-4.83,2.75c-3.06-.54-6.35-.32-9.35-.03-1.61.16-3.03.32-4.11.35-.85.03-1.64-.06-2.31-.22,1.36,3.51,2.43,6.63,2.94,8.75.51,2.05.76,3.54,1.23,4.8.28.76.69,1.48,1.61,2.46.51.57,1.23,1.2,2.18,1.89,1.01.73,2.08,1.42,3.16,2.15,1.2.79,2.43,1.58,3.51,2.4,1.14.85,2.34,1.86,3.32,3.13.63.76,1.01,3.6.63,4.52l-1.36,3.28c-.79,1.93-3.44,3.13-5.37,2.49-15.44-5.05-32.02-3.85-38.11,1.01-1.64,1.29-4.52,1.11-5.94-.44l-3.35-3.66c-1.71-1.86-1.52-4.8.38-6.41,4.96-4.26,7.39-6.63,8.49-8.37.76-1.2.85-1.83.44-3.38-.95-3.57-3.6-9.82-6.6-16.29-2.91-6.32-5.91-12.38-7.42-15.5-1.33.76-2.72,1.2-4.14,1.01-.03,1.96-.95,3.79-2.05,5.05-.66.88-4.01,5.84-1.61,13.67.57,1.83,1.83,5.02,3.16,8.65,1.42,3.95,2.91,8.43,3.69,12.5.44,2.34-1.17,4.77-3.51,5.21-4.86.88-12.88,9.85-14.05,12.35-.06.13-3.16,3.63-6.85,1.55l-1.74-.98-2.46-1.42c-2.59-1.42-1.74-5.78-1.74-5.78.06-.47.03-1.36-.03-3.16-.19-3.6-1.17-10.11-4.42-21.06-6.19-20.87-14.27-30.57-17.27-33.44l-.16.32c-.41.79-.73,1.58-.95,2.15-.92,2.21-2.37,3.66-4.17,4.2.76,1.55.85,3.57-.09,6.06-.76,1.71-2.72,5.94-4.29,10.45-1.2,3.47-3.41,8.08-4.55,12.5s-.57,6.35.41,7.2c.85.76,1.45,1.17,1.8,1.36,4.33,2.56,3.28,7.23,3.28,7.23,0,2.87-2.24,4.8-5.05,4.39-11.91-1.86-22.45,2.59-25.17,5.18-2.34,2.21-5.34,1.71-6.85-1.14l-1.86-3.54c-.98-1.86-.25-4.67,1.52-5.84.03,0,4.89-3.19,7.64-6.69,2.43-3.13,5.05-9.19,7.45-15.69s4.33-12.76,5.43-15.47c1.99-4.8,2.81-6.92,3.32-8.15.79-2.18,2.18-3.32,3.66-3.79-.95-1.71-.98-3.88.44-6.63.69-1.83,3.82-11.87,3.88-12.25-.54-.19-4.74-1.29-5.31-1.39-5.12-1.04-6.06-3.47-3.35-7.64.32-.47,3.19-4.42,3.19-4.42,1.11-1.33,2.27-1.77,3.57-1.67l27.19.76c2.12.03,4.17,2.12,4.26,4.23,0,.41.25,1.29,1.55,3.44,1.33,2.18,3.19,4.77,5.4,8.21,2.49,3.79,4.61,7.77,6.73,11.43,1.04,1.83,2.05,3.47,3.03,4.93.69-.63,1.26-1.11,1.77-1.48,1.77-1.55,3.76-2.12,5.59-1.89-.03-1.8.66-3.73,2.4-5.27.51-.47,1.2-1.2,2.21-2.53s2.34-3.35,3.92-6.35c-.13-.03-.28-.06-.47-.22-1.01-.92-7.83-4.36-8.31-4.58-2.46-1.2-3.25-4.07-1.77-6.38l2.75-4.29c.69-1.14,2.43-1.89,3.95-1.93l.06-.06Zm63.12,17.87c.13.06.32.13.41.19.54.25,1.17.44,1.74.69,1.17.47,2.53,1.07,2.53,1.07,2.21,1.55,3.03,5.02,2.02,8.37-.09.47-.22.95-.35,1.39l.66-.06c.32,0,1.36-.06,2.37.16,1.36.32,3.22,1.2,4.33,3.35.28.82.51,1.45.73,2.12-1.58-5.31-3.54-10.71-4.67-13.04-1.61-.88-5.62-2.56-9.79-4.2l.03-.03Zm16.2,48.44l-.41,5.81h2.05c.35-1.86.95-2.75,3-2.75v14.49h-1.8v2.21l9.66-.03v-2.21h-1.77v-14.49c2.05,0,2.65.92,3,2.75l2.05.03-.38-5.81h-2.15v.44h-11.08l.03-.44h-2.21Zm24.66,0l-7.23,2.49v1.71l.98-.35v14.21h-1.04v1.71h7.36v-1.71h-1.11v-8.02c.47-.66,1.2-1.17,2.02-1.17,1.33-.03,1.74.69,1.74,1.96v7.23h-1.07v1.71h7.26v-1.71h-1.01l-.03-8.72c0-1.71-.76-3.88-3.79-3.88-2.18,0-3.51,1.04-5.12,2.4v-5.62l1.04-.35v-1.89Zm44.4,0c-6.28,0-11.27,4.74-11.27,10.86,0,5.68,3.63,9.35,9.09,9.35,2.75,0,4.93-.95,6.85-2.34l1.23,1.89h1.52v-9.03c0-.76.19-1.07.79-1.52l-.66-1.39c-.44.16-.88.41-1.36.41h-7.64v2.21h3.35v6.13c-4.17,0-7.04-2.27-7.04-7.99,0-1.36.13-5.91,3.73-5.91.95,0,1.93.51,1.93,1.58,0,.38-.13.79-.41,1.07l1.04,1.58,6.13-3.95-1.2-1.77-1.04.66c-1.45-.95-3.25-1.89-5.02-1.89v.03Zm44.24,0l-7.2,2.49v1.74l.98-.35v14.18h-1.04v1.71h7.33v-1.71h-1.11v-8.02c.47-.66,1.2-1.2,2.02-1.2,1.33,0,1.77.66,1.74,1.96v7.23h-1.07v1.71h7.26v-1.71h-1.01v-8.72c0-1.74-.79-3.92-3.82-3.88-2.18,0-3.51,1.04-5.12,2.4v-5.59l1.04-.38v-1.89.03Zm42.79,1.23c-1.2,0-3.03,1.04-3.03,2.43,0,1.17.79,1.77,1.93,1.77,1.42,0,3.63-.63,3.63-2.4,0-1.48-1.29-1.8-2.53-1.77v-.03Zm-55.93,1.01c-.88,2.15-2.84,3.66-5.05,4.29v1.55h1.39v8.37c0,2.46.98,3.73,3.57,3.73,1.83,0,3.44-.98,4.86-2.02l-.73-1.2c-.38.25-.85.44-1.36.44-.41,0-1.17-.25-1.17-1.14v-8.18l2.08.03.41-2.21h-2.53v-1.14c0-.73.03-1.48.19-2.18l-1.71-.32.03-.03Zm91.7,1.04c.35,0,.73.03,1.07.06l-.63,2.87c-.35-.35-.54-.57-1.01-.57-.35,0-.51.32-.51.63,0,.57,2.65,1.45,2.65,4.77,0,4.45-4.11,5.34-7.52,6.22v.06c2.34.25,7.07.76,7.07,3.92s-4.11,3.82-5.81,3.82c-2.49,0-5.02-.54-5.02-2.84.03-1.39,1.52-2.27,2.75-2.43v-.03c-1.61-.16-2.59-.25-3.79-.09l-1.89-1.83c1.86-.28,3.63-.85,5.4-1.52v-.06c-2.43-.38-4.86-2.02-4.86-4.99,0-4.07,3.22-5.84,6.32-5.84,1.52,0,2.31.25,3.09.38l.35-1.07c.35-1.04.82-1.45,2.37-1.45h-.03Zm-6.03,3.95c-1.04,0-1.45.54-1.45,1.89,0,1.52.88,5.78,3,5.78,1.04,0,1.48-.54,1.48-1.89,0-1.52-.88-5.78-3-5.78h-.03Zm.82,13.07c-.35.57-.51,1.26-.51,1.93s.35,1.48,1.17,1.48c.69,0,1.07-.35,1.07-1.04,0-1.29-.73-1.74-1.74-2.37Zm-103.96-15.5l1.71.57-.25.76c1.04-.44,2.27-.66,3.41-.66,3.16,0,5.24,1.36,5.27,4.71v7.89h.92v1.71h-5.68l-.32-1.33c-1.17.98-2.4,1.77-4.01,1.77-2.56,0-4.48-1.67-4.48-4.29,0-3.28,2.02-5.15,4.55-5.15h3.88v-.69c0-1.17-.63-1.86-1.86-1.86-1.64,0-2.37,1.2-3.13,2.18l-1.74-.63,1.8-4.93-.06-.03Zm4.14,7.64c-1.42,0-2.43.98-2.43,2.43,0,1.11.32,2.34,1.71,2.34,1.29,0,1.55-.98,1.55-2.05v-2.72s-.82,0-.82,0Zm44.15-6.98c3.82,0,5.94,2.53,6.95,5.97l-8.05,2.94c.66,1.61,1.8,2.49,3.57,2.49,1.33,0,2.59-.44,3.44-1.48l1.07,1.14c-1.64,2.18-3.88,3.69-7.04,3.69-4.26,0-6.88-3-6.88-7.48,0-3.92,2.97-7.23,6.95-7.23v-.03Zm-.88,2.15c-1.11-.03-1.58.85-1.58,2.05.03,1.11.32,1.83.47,2.62l3.66-1.39c-.41-1.2-1.04-3.28-2.56-3.25v-.03Zm15-2.15l-5.68,1.52v1.71l.92-.35v9.73h-.95v1.71h7.52v-1.71h-1.39v-6.85c.57-.88,1.36-1.04,1.86-1.04.82.06,1.55.35,2.27.63l1.67-4.77-1.55-.54-.35.57c-.79-.38-1.23-.57-2.08-.57-1.33,0-1.86,2.37-2.21,3.32h-.06v-3.35h.03Zm13.29,0l-6.19,1.77v1.61l1.01-.19v9.44h-1.07v1.71h7.17v-1.71h-.92v-12.63Zm9.35,0l-6.22,1.71v1.67l.98-.28v9.54h-.98v1.71h7.26v-1.71h-1.11v-8.05c.66-.6,1.36-1.17,2.31-1.17.76,0,1.48.41,1.48,1.26v7.96h-1.07v1.71h7.2v-1.71h-.95v-8.59c0-1.55-.51-4.01-4.11-4.01-1.96,0-3.38,1.17-4.83,2.27v-2.27l.03-.03Zm-125.43,0c3.82,0,5.94,2.53,6.92,5.97l-8.02,2.94c.66,1.61,1.8,2.49,3.57,2.49,1.33,0,2.59-.44,3.44-1.48l1.07,1.17c-1.64,2.18-3.88,3.66-7.04,3.66-4.26,0-6.92-3-6.88-7.48,0-3.92,2.97-7.23,6.95-7.23v-.03Zm-.88,2.15c-1.11.03-1.55.88-1.55,2.08,0,1.11.32,1.83.47,2.59l3.63-1.39c-.38-1.2-1.04-3.28-2.56-3.28Z"/>
  </g>
</svg>