<?xml version="1.0" encoding="UTF-8" standalone="no"?>
<svg xmlns="http://www.w3.org/2000/svg" version="1.1" x="0px" y="0px" width="605.49402" height="325.754" viewBox="0 0 605.49402 325.75399">
  <path d="m 406.23201,172.35708 c 7.18297,9.35295 170.57972,0 170.57972,0 C 414.3983,-170.88849 -186.3459,61.148138 57.474007,325.754 -35.815635,100.20078 297.12782,30.292399 406.23201,172.35708 Z"/>
  <path style="fill:#ffffff" d="m 605.49101,166.386 c 0,-5.531 -3.977,-7.881 -6.369,-9.294 -4.751,-2.76 -12.713,-4.204 -18.123,-4.204 -6.721,0 -12.843,1.401 -17.836,4.066 -1.879,-1.803 -4.497,-2.805 -7.461,-2.805 h -30.189 c -2.818,0 -5.25,0.871 -7.078,2.495 -1.799,-1.536 -4.136,-2.403 -6.637,-2.403 h -22.439 c -5.43,0 -9.268,3.145 -10.247,8.332 v 0.011 c -0.93,-1.126 -1.977,-2.154 -3.142,-3.08 -5.503,-4.367 -11.92,-5.263 -19.862,-5.263 h -12.89 c -2.664,0 -4.998,0.785 -6.796,2.253 -1.824,-1.512 -4.241,-2.345 -6.942,-2.345 h -30.19 c -1.81,0 -3.441,0.348 -4.854,1.013 0.017,-0.26 0.025,-0.529 0.025,-0.811 0,-3.408 -1.275,-5.57 -3.125,-7.249 5.7,-1.503 10.707,-4.677 14.96,-9.504 0.739,1.178 1.726,2.188 2.897,2.966 0.773,3.48 3.941,6.018 7.85,6.018 h 8.51 c 4.207,0 7.084,-2.246 8.105,-6.323 l 0.03,-0.125 0.026,-0.125 0.608,-2.906 c 0.884,2.411 2.284,4.086 3.872,5.171 1.697,5.502 6.057,5.937 7.359,5.937 1.006,0 1.549,-0.119 2.535,-0.339 l 0.142,-0.031 0.14,-0.038 8.744,-2.344 c 3.634,-0.94 6.067,-3.928 6.067,-7.453 0,-1.197 -0.195,-2.014 -0.482,-2.82 0.472,-1.141 0.732,-2.38 0.732,-3.679 0,-2.068 -0.509,-3.341 -0.931,-4.396 l -4.498,-12.458 c 0.717,-0.533 1.396,-1.097 2.047,-1.712 5.314,-4.854 8.745,-13.055006 8.745,-20.917006 0,-0.673 -0.046,-1.331 -0.098,-1.984 0.224,-1.503 0.346,-3.015 0.346,-4.515 0,-7.317 -2.897,-13.65 -8.16,-17.832 -5.521,-4.381 -11.959,-5.279 -19.931,-5.279 h -12.941 c -5.252,0 -8.994,2.919 -10.261,7.988 l -0.687,3.208 c -4.145,-8.104 -12.055,-12.736 -22.338,-12.736 -8.984,0 -16.416,2.906 -22.568,8.848 -1.131,-4.255 -5.008,-7.308 -9.742,-7.308 h -22.538 c -2.788,0 -5.188,0.837 -6.991,2.402 -1.784,-1.535 -4.099,-2.402 -6.578,-2.402 h -7.965 c -5.376,0 -9.316,3.252 -10.27,8.428 l -1.124,5.289 -2.034,-6.354 -0.035,-0.105 c -1.586,-4.747 -5.07,-7.257 -10.073,-7.257 h -6.517 c -3.564,0 -6.498,1.431 -8.349,3.903 -1.826,-2.371 -4.707,-3.903 -7.943,-3.903 h -8.779 c -5.37,0 -9.31,3.247 -10.268,8.412 l -1.404,6.535 c -0.052,-0.283 -0.118,-0.56 -0.2,-0.829 l 0.215,-1.013 0.026,-0.133 c 0.13,-0.661 0.348,-1.939 0.348,-3.077 0,-5.549 -4.427,-9.896 -10.079,-9.896 h -8.96 c -1.964,0 -3.716,0.409 -5.209,1.187 0,-0.017 -0.01,-0.034 -0.011,-0.052 0.484,-1.694 0.556,-3.043 0.556,-4.248 0,-5.104 -3.894,-10.527 -11.116,-10.527 h -37.828 c -5.952,0 -9.857,3.049 -11.294,8.806 l -1.897,8.994 c -0.337,1.854 -0.439,2.413 -0.439,3.661 0,3.594 1.721,6.649 4.459,8.53 0.921,3.685 4.322,6.271 8.634,6.271 h 6.943 l -9.132,42.806006 c -0.891,-3.951 -4.188,-7.549 -10.279,-7.549 h -13.595 c -4.077,0 -9.003,2.504 -10.601,9.535 -0.561,2.477 -0.813,5.699 -0.813,10.448 0,8.615 2.758,15.756 7.656,20.851 4.502,8.093 13.158,12.864 24.5,12.864 11.407,0 21.153,-3.989 28.19,-11.537 6.518,-6.743 9.325,-15.227 11.74,-26.719 l 1.36,-6.375 c 1.054,2.644 2.592,4.96 4.57,6.919 3.538,7.374 11.548,11.572 22.911,11.572 8.567,0 15.421,-2.288 20.952,-6.996 1.341,-1.116 2.464,-2.232 3.429,-3.402 0.754,1.254 1.775,2.328 2.992,3.146 0.78,3.421 3.873,5.986 7.567,5.986 h 7.964 c 4.203,0 7.083,-2.243 8.104,-6.317 l 0.03,-0.12 0.026,-0.121 2.256,-10.637 1.68,5.303 c 0.726,2.629 2.158,4.644 4.133,5.941 0.656,2.347 2.556,5.951 8.028,5.951 h 5.793 c 3.137,0 5.535,-1.248 6.974,-3.572 1.325,2.082 3.675,3.433 6.483,3.549 -0.924,0.655 -1.819,1.337 -2.672,2.063 -8.68,7.398 -13.27,17.994 -13.27,30.638 0,9.304 2.717,16.95 8.063,22.752 1.271,2.266 2.85,4.321 4.742,6.148 l 0.026,0.026 0.026,0.026 c 3.086,2.913 5.273,4.582 13.823,10.023 2.762,1.781 4.782,3.158 6.28,4.289 0,0.045 0,0.089 0,0.137 0,1.66 0,5.115 -7.654,5.115 -3.611,0 -8.395,-1.135 -11.869,-2.808 -6.65,-3.326 -7.504,-3.753 -10.354,-3.753 -5.976,0 -8.449,4.464 -9.381,6.147 l 1.904,1.158 -1.976,-1.027 -6.48,12.356 -0.383,0.827 c -0.439,1.096 -0.937,2.339 -0.937,4.354 0,4.122 2.208,6.718 4.41,8.326 0.954,4.067 4.964,5.813 6.639,6.532 10.062,4.448 19.156,6.521 28.616,6.521 22.699,0 39.591,-12.258 44.197,-30.864 1.447,1.556 3.568,2.504 6.01,2.504 h 29.65 c 2.035,0 5.342,-0.574 7.176,-3.948 1.334,2.422 3.982,4.039 7.102,4.039 h 8.473 c 4.199,0 7.074,-2.241 8.098,-6.312 l 0.033,-0.128 0.025,-0.128 0.58,-2.773 c 0.889,2.334 2.267,3.961 3.822,5.024 1.702,5.505 6.057,5.938 7.356,5.938 1.002,0 1.543,-0.12 2.525,-0.337 l 0.144,-0.031 0.143,-0.039 8.704,-2.334 c 0.485,-0.124 0.931,-0.279 1.337,-0.457 1.352,0.995 3.072,1.576 4.991,1.576 h 22.26 c 1.972,0 5.126,-0.538 6.993,-3.627 1.393,2.157 3.871,3.536 6.813,3.536 h 29.65 c 1.776,0 4.514,-0.437 6.402,-2.782 6.318,2.758 12.074,4.044 18.086,4.044 8.479,0 15.87,-2.607 21.375,-7.54 5.631,-5.047 8.731,-12.196 8.731,-20.134 0,-0.683 -0.026,-1.342 -0.076,-1.983 0.213,-1.474 0.323,-2.98 0.323,-4.516 0,-7.784 -3.074,-13.052 -7.151,-16.983 0.491,0.094 1.009,0.148 1.58,0.148 2.831,0 5.503,-1.661 6.83,-4.237 l 3.64,-6.927 c 0.622,-1.121 1.252,-2.295 1.252,-4.255 0,-1.062 -0.182,-1.967 -0.49,-2.747 0.413,-0.97 0.745,-2.176 0.745,-3.753 z m -254.016,12.313 -0.122,-0.104 c -0.01,-0.006 -0.011,-0.009 -0.015,-0.015 1.41,-1.794 3.984,-2.7 7.707,-2.7 4.125,0 8.722,1.33 12.946,3.743 l 0.158,0.092 0.167,0.084 c 2.832,1.415 4.393,2.196 6.863,2.196 2.396,0 4.682,-1.122 6.264,-2.957 l -5.094,24.011 c -3.852,-7.373 -10.377,-12.261 -17.077,-16.427 -9.802,-6.163 -9.802,-6.163 -11.797,-7.923 z m 204.007,19.632 0.01,-0.026 c 0.951,1.886 2.199,3.577 3.742,5.067 l 0.025,0.025 0.029,0.026 c 0.949,0.897 1.808,1.633 2.92,2.464 -4.109,-2.054 -5.234,-2.615 -7.756,-2.62 z"/>
  <path d="m 181.26054,60.833963 c -3.419,0 -5.07244,1.288609 -5.89844,4.599609 l -1.81836,8.632813 c -0.317,1.739 -0.34961,1.921015 -0.34961,2.666015 0,2.466 1.90869,4.962891 5.55469,4.962891 h 16.70703 l -11.8457,55.519539 c -2.143,10.112 -4.91941,10.94922 -7.81641,10.94922 -2.177,0 -3.60546,-0.30271 -3.60546,-4.34571 0,-0.77 0.34404,-3.51709 0.74804,-5.37109 0.194,-0.551 0.28711,-1.16714 0.28711,-1.86914 0,-0.992 -0.35789,-4.22461 -4.96289,-4.22461 h -13.5957 c -5.85,0 -5.84961,8.33392 -5.84961,14.41992 0,14.728 9.43123,23.87696 24.61523,23.87696 10.481,0 19.39919,-3.63875 25.74219,-10.46876 5.248,-5.407 8.20597,-12.21899 10.91797,-25.125 l 14.14844,-66.330079 c 0.404,-1.3 0.40429,-2.235734 0.40429,-2.927735 0,-2.390999 -1.73873,-4.964843 -5.55273,-4.964843 z m 215.43555,12.101562 c -9.048,0 -16.21549,3.561188 -21.89649,10.867188 -6.871,8.709 -11.66992,24.745097 -11.66992,38.996097 0,13.971 7.35183,21.98438 20.17383,21.98438 8.847,0 15.95056,-3.55491 21.72656,-10.87891 6.865,-8.796 11.66016,-24.86322 11.66016,-39.074224 0,-13.708 -7.47414,-21.894531 -19.99414,-21.894531 z m -161.82422,1.539063 c -2.678,0 -4.22414,1.207828 -4.86914,3.798828 l -8.43164,39.873054 c -0.658,2.816 -0.99024,5.69092 -0.99024,8.54492 0,11.325 7.8801,17.82031 21.6211,17.82031 7.758,0 13.91411,-2.03822 18.78711,-6.19922 5.139,-4.268 6.59492,-8.01689 8.91992,-18.71289 l 8.22656,-38.785158 c 0.131,-0.549 0.26367,-1.41186 0.26367,-2.00586 0,-2.389 -1.98583,-4.333984 -4.42382,-4.333984 h -8.78126 c -2.728,0 -4.3444,1.33575 -4.8164,3.96875 l -8.59766,40.003912 c -0.808,4.133 -1.6145,5.77045 -2.5625,6.93945 -1.462,1.783 -3.50504,2.76368 -5.74804,2.76368 -4.018,0 -4.35547,-1.78218 -4.35547,-3.45118 0,-1.271 0.12218,-1.99565 0.74218,-5.09765 l 8.24805,-38.791025 c 0.039,-0.205 0.24219,-1.265953 0.24219,-2.001953 0,-2.43 -1.98167,-4.333984 -4.51367,-4.333984 z m 55.39258,0 c -2.728,0 -4.34936,1.336656 -4.81836,3.972656 l -12.49805,58.601566 c -0.197,1.093 -0.23047,1.29033 -0.23047,1.86133 0,2.39 1.98383,4.33398 4.42383,4.33398 h 7.96484 c 2.671,0 4.21819,-1.20496 4.86719,-3.79296 l 5.81055,-27.39258 8.74219,27.59375 c 0.843,3.181 3.02389,3.59179 4.83789,3.59179 h 5.79101 c 2.674,0 4.22214,-1.20692 4.86914,-3.79492 l 12.39844,-58.548831 c 0.283,-0.979 0.2832,-2.077797 0.2832,-2.091797 0,-2.471 -1.90573,-4.333984 -4.42773,-4.333984 h -7.96094 c -2.728,0 -4.34931,1.336656 -4.82031,3.972656 l -5.48242,25.833986 -8.43555,-26.349611 c -0.81,-2.423 -2.24583,-3.457031 -4.79883,-3.457031 z m 51.58594,0.002 c -2.755,0 -4.3305,1.290312 -4.8125,3.945312 l -1.1875,5.222657 c -0.19801,1.091 -0.23047,1.483281 -0.23047,1.863281 0,2.43 2.02251,4.333984 4.60351,4.333984 h 1.12696 l -8.08594,38.037118 h -2.72852 c -2.672,0 -4.22019,1.20592 -4.86719,3.79492 l -1.12109,5.3125 c -0.193,0.969 -0.24609,1.22983 -0.24609,1.92383 0,2.153 1.61426,4.33398 4.69726,4.33398 h 22.35742 c 3.563,0 4.49244,-2.25434 4.89844,-4.02734 l 0.98242,-4.8164 c 0.284,-1.14 0.35352,-1.42851 0.35352,-2.1875 0,-2.511 -1.93942,-4.33399 -4.60742,-4.33399 h -1.125 l 8.08398,-38.037118 h 2.72852 c 2.674,0 4.22019,-1.206875 4.86719,-3.796875 l 1.11328,-5.28125 0.0742,-0.416015 c 0.096,-0.554 0.17773,-1.032063 0.17773,-1.539063 0,-2.471 -1.93967,-4.332031 -4.51367,-4.332031 z m 88.13476,0 c -2.676,0 -4.22119,1.204922 -4.86719,3.794922 l -12.41601,58.52931 c -0.289,1.152 -0.35938,1.43837 -0.35938,2.10937 0,2.471 2.01927,4.33398 4.69727,4.33398 h 8.50976 c 2.673,1e-5 4.21824,-1.20692 4.86524,-3.79492 l 4.30078,-20.49609 6.64453,22.27148 c 0.949,3.174 3.03341,3.64844 4.19141,3.64844 0.638,0 0.9105,-0.0598 1.8125,-0.25976 l 8.86328,-2.375 c 2.669,-0.667 3.61328,-2.69643 3.61328,-4.23243 0,-0.988 -0.18108,-1.45907 -0.58008,-2.45507 l -7.56641,-20.95313 c 2.83001,-1.476 4.55965,-2.66008 6.05665,-4.08008 4.607,-4.179 7.70507,-11.610147 7.70507,-18.494147 0,-5.585 -2.15354,-10.37061 -6.06054,-13.47461 -3.693,-2.93 -8.30971,-4.072265 -16.47071,-4.072265 z m -34.82422,14.548828 c 1.31,0 2.54688,-0.0011 2.54688,6.255859 0,8.610005 -2.4131,19.869085 -5.6211,26.205085 -3.234,6.459 -5.83757,7.20703 -7.51758,7.20703 -1.208,0 -2.45507,-1e-5 -2.45507,-6.16601 0,-8.687 2.3302,-19.71609 5.5332,-26.205089 3.649,-7.297 6.55767,-7.296875 7.51367,-7.296875 z m 45.66992,1.359375 h 0.91993 c 2.277,0 3.67232,0.140312 4.36132,0.445312 0.313,0.269001 0.71875,1.110297 0.71875,2.279297 0,2.612 -1.23204,5.461516 -2.37304,6.603516 -1.1,1.100004 -2.42596,1.731404 -6.00196,1.816404 z m -79.09961,59.523449 c -25.609,0 -41.51757,13.73951 -41.51757,35.85351 0,8.413 2.54937,15.14044 7.60937,20.02344 2.908,2.744 5.00864,4.342 13.30664,9.625 11.496,7.412 12.04492,9.20495 12.04492,13.75195 0,9.292 -8.28179,10.67969 -13.21679,10.67969 -4.46,0 -10.09341,-1.332 -14.31641,-3.375 -6.372,-3.187 -6.37325,-3.1875 -7.90625,-3.1875 -2.7,0 -3.70567,1.81734 -4.51367,3.27734 l -6.57422,12.53321 -0.0625,0.15625 c -0.349,0.866 -0.53906,1.34315 -0.53906,2.28515 0,3.224 3.15636,4.57807 4.81836,5.28907 9.638,4.266 18.31468,6.25195 27.30468,6.25195 24.796,0 42.11424,-15.66184 42.11524,-38.08984 0,-11.635 -4.87575,-18.99077 -17.96875,-27.13477 -10.213,-6.418 -10.21284,-6.41958 -12.58984,-8.51758 -2.15801,-1.836 -2.99805,-3.67268 -2.99805,-6.55468 0,-6.50401 4.48936,-10.23438 12.31836,-10.23438 4.764,0 9.81256,1.44659 14.60156,4.18359 l 0.16406,0.0879 c 2.681,1.343 3.68514,1.84375 5.36914,1.84375 1.845,0 3.60427,-1.13412 4.44727,-2.82812 l 6.07812,-11.5625 c 0.85,-1.528 1.16602,-2.10106 1.16602,-3.41406 0,-2.65 -1.33936,-3.44032 -4.94336,-5.57032 -5.189,-3.013 -15.81727,-5.37304 -24.19727,-5.37304 z m 221.2461,15.04101 c -9.452,0 -16.82461,2.96566 -21.34961,8.22266 0.489,-0.989 0.83008,-1.79839 0.83008,-2.90039 0,-1.955 -1.49335,-4.05859 -4.77735,-4.05859 H 527.4871 c -2.668,-1e-5 -4.21142,1.20501 -4.85742,3.79101 l -12.36328,58.27344 c -0.299,1.204 -0.35351,1.43362 -0.35351,2.01562 -1e-5,2.56 1.97045,4.41993 4.68945,4.41993 h 29.65039 c 3.556,0 4.48253,-2.24993 4.89453,-4.04493 l 0.0312,-0.1582 c 0.838,0.852 1.92334,1.31622 2.52734,1.57422 5.995,2.655 11.40621,3.89062 17.03321,3.89062 15.76,0 26.77148,-10.00889 26.77148,-24.33789 0,-7.567 -3.11456,-12.31662 -11.47656,-17.51562 -6.078,-3.821 -6.07908,-3.82116 -7.45508,-5.03516 -1.008,-0.856 -1.34766,-1.60012 -1.34766,-2.95312 0,-4.019 3.33196,-4.86328 6.12696,-4.86328 2.646,0 5.47001,0.81351 8.16601,2.35351 l 0.16016,0.0879 c 1.669,0.836 2.50589,1.25391 3.83789,1.25391 1.608,0 3.13447,-0.97102 3.85547,-2.41602 l 3.66016,-6.96289 c 0.54099,-0.976 0.86718,-1.56617 0.86718,-2.70117 0,-2.355 -1.36553,-3.15886 -3.64453,-4.50586 -3.306,-1.922 -10.0222,-3.42969 -15.2832,-3.42969 z m -181.71289,1.26368 c -2.671,0 -4.21633,1.20501 -4.86133,3.79101 l -12.36328,58.27344 c -0.299,1.204 -0.35352,1.43362 -0.35352,2.01562 0,2.56 1.97046,4.41993 4.68946,4.41993 h 29.64843 c 3.555,0 4.48549,-2.24993 4.89649,-4.04493 l 1.1289,-5.73437 0.1211,-0.35742 c 0.257,-0.78 0.25586,-1.46772 0.25586,-1.76172 0,-2.469 -1.97857,-4.33008 -4.60157,-4.33008 h -15.14843 l 2.43164,-11.25781 h 12.81054 c 2.783,0 4.43144,-1.33566 4.89844,-3.97266 l 1.21094,-5.79297 0.12109,-0.36523 c 0.259,-0.78 0.25977,-1.47353 0.25977,-1.76953 0,-2.509 -1.93561,-4.33008 -4.59961,-4.33008 h -11.28906 l 1.82226,-8.55274 h 15.05469 c 2.233,0 3.84411,-0.95589 4.78711,-2.83789 l 3.15234,-6.30664 c 0.525,-1.046 0.89453,-1.87734 0.89453,-3.02734 0,-1.955 -1.49434,-4.05859 -4.77734,-4.05859 z m 43.92578,0.0918 c -2.673,0 -4.21538,1.20497 -4.85938,3.79297 l -12.36328,58.27344 c -0.285,1.147 -0.35547,1.43351 -0.35547,2.10351 0,2.468 2.01646,4.32813 4.68946,4.32813 h 8.47265 c 2.667,0 4.21038,-1.20216 4.85938,-3.78516 l 4.27148,-20.35351 6.59766,22.12109 c 0.953,3.167 3.0325,3.64063 4.1875,3.64063 0.637,0 0.90973,-0.0599 1.80273,-0.25586 l 0.0723,-0.0176 8.75976,-2.34961 c 1.478,-0.371 2.32688,-1.15678 2.79688,-1.80078 0.582,1.547 2.07411,2.80273 4.41211,2.80273 h 22.25976 c 3.556,0 4.48458,-2.24648 4.89258,-4.02148 l 0.98047,-4.79688 c 0.276,-1.109 0.34961,-1.42569 0.34961,-2.17969 0,-2.50799 -1.93366,-4.33007 -4.59766,-4.33007 h -1.10742 l 8.04492,-37.84375 h 2.70313 c 2.669,0 4.21433,-1.20407 4.86133,-3.78907 l 1.10742,-5.26171 0.0781,-0.43946 c 0.094,-0.539 0.17383,-1.00681 0.17383,-1.50781 0,-2.467 -1.93876,-4.32813 -4.50976,-4.32813 h -22.4375 c -2.754,0 -4.32764,1.28846 -4.80664,3.93946 l -1.1836,5.20117 c -0.195,1.087 -0.23242,1.47847 -0.23242,1.85547 0,2.429 2.02161,4.33008 4.59961,4.33008 h 1.10352 l -8.04493,37.84375 h -2.70312 c -2.668,0 -4.20942,1.20311 -4.85742,3.78711 l -0.82813,3.91992 c -0.006,-0.018 -7.55469,-20.91211 -7.55469,-20.91211 2.812,-1.468 4.53249,-2.64464 6.02149,-4.05664 4.59,-4.164 7.67383,-11.56883 7.67383,-18.42383 0,-5.569 -2.14211,-10.33669 -6.03711,-13.42969 -3.678,-2.92 -8.2763,-4.05664 -16.4043,-4.05664 z m 112.30664,14.62695 c -0.614,2.15401 -0.92969,4.49491 -0.92969,7.00391 0,5.456 1.67872,9.83955 5.01172,13.06055 1.827,1.725 3.13142,2.72079 8.23242,5.9668 6.671,4.301 6.67188,5.09126 6.67188,7.19726 0,3.407 -2.24206,5.13477 -6.66407,5.13477 -2.50799,0 -5.68754,-0.75339 -8.06054,-1.90039 -3.974,-1.986 -4.12919,-2.06446 -5.36719,-2.06446 -2.406,0 -3.36781,1.72825 -3.88281,2.65625 l -1.98047,3.77735 c -0.475,-1.927 -2.24161,-3.2793 -4.47461,-3.2793 h -15.15039 l 2.43359,-11.25781 h 12.80469 c 2.787,0 4.4343,-1.33761 4.9043,-3.97461 l 1.20898,-5.79297 0.11719,-0.35352 c 0.264,-0.786 0.26367,-1.48129 0.26367,-1.77929 0,-2.509 -1.93261,-4.33008 -4.59961,-4.33008 h -11.28906 l 1.82422,-8.55469 h 15.05078 c 1.628,0 2.926,-0.50677 3.875,-1.50977 z m -101.49414,1.24024 h 0.9043 c 2.263,0 3.65193,0.13936 4.33593,0.44336 0.307,0.265 0.70508,1.09786 0.70508,2.25586 0,2.597 -1.21951,5.4305 -2.35351,6.5625 -1.092,1.092 -2.40818,1.71869 -5.95118,1.80469 z"/>
  <path d="m 265.96339,204.93525 c -0.62008,-0.0714 -1.4235,0.15991 -2.46875,0.87891 -0.196,0.139 -0.48414,0.31609 -0.86914,0.49609 -0.804,0.367 -1.99402,0.73463 -3.54102,0.64063 -1.661,-0.094 -2.61311,-0.40302 -3.66211,-0.66602 -1.332,-0.332 -2.82733,-0.6492 -5.36133,-0.6582 -7.622,0 -14.81631,5.86312 -15.07031,14.95312 -0.25,8.861 5.50186,18.64052 15.88086,19.10352 5.47,0.245 15.89014,-2.62034 20.61914,-4.65234 0.132,-0.06 1.06853,-0.87905 1.14453,-0.99805 l 2.07227,-3.43945 c 1.487,-2.458 0.87211,-4.54147 -1.83789,-3.73047 -4.475,1.332 -6.93521,1.8275 -13.40821,2.3125 -10.296,0.785 -9.48643,-4.36352 -9.27343,-7.85352 0.235,-3.849 2.86139,-6.65827 4.15039,-6.57227 2.953,0.196 3.77745,0.47716 4.31445,4.28516 0.089,0.674 1.16455,1.90222 1.81055,2.07422 l 1.65429,0.43555 c 1.347,0.359 2.74421,-0.52111 3.03321,-1.91211 0.445,-2.141 2.28123,-5.64035 2.86523,-6.15235 0.089,-0.086 1.09509,-1.35054 0.62109,-3.18554 -0.098,-0.401 -0.23876,-0.91946 -0.38476,-1.43946 -0.21,-0.75675 -0.42883,-3.70584 -2.28906,-3.91992 z m -32.33789,0.51367 c -0.14382,0.002 -0.28613,0.0195 -0.42188,0.0527 -4.464,1.1 -12.33215,1.24636 -14.53515,0.81836 -0.806,-0.152 -2.26072,0.56269 -2.63672,1.30468 l -0.77539,1.50196 c -0.743,1.443 -0.12838,3.02473 1.39062,3.55273 2.108,0.725 2.96194,2.23549 3.33594,4.14649 0.203,1.065 0.23089,2.15123 0.21289,3.11523 -0.017,1.137 -0.0918,2.13517 -0.0918,2.82617 0,3.132 -1.08655,6.21244 -1.56054,8.77344 -0.48701,2.592 -1.20413,3.94131 -1.82813,4.44531 -0.708,0.581 -1.08498,2.18549 -0.70898,3.02149 l 0.77734,1.71679 c 0.993,2.227 3.04431,2.36307 4.32031,0.28907 1.256,-2.023 8.15672,-4.05405 11.51172,-2.37305 0.776,0.393 2.36455,0.0705 2.93555,-0.60547 l 0.98633,-1.14453 c 0.917,-1.066 0.7715,-2.73019 -0.3125,-3.61719 -3.141,-2.569 -3.80555,-4.56753 -3.93555,-6.01953 -0.246,-2.79 0.18945,-4.47098 0.18945,-5.70898 0,-3.192 0.10989,-5.5641 0.58789,-7.2461 0.435,-1.501 1.03299,-2.09047 1.95899,-2.35547 1.387,-0.401 2.12957,-1.90239 1.64258,-3.27539 l -0.5625,-1.58007 c -0.336,-0.93275 -1.47379,-1.65166 -2.48047,-1.63868 z m -23.02149,0.18946 c -0.59917,-0.0526 -1.35017,0.22631 -2.29492,1.03906 -0.198,0.137 -0.48652,0.30852 -0.85352,0.47852 -0.774,0.359 -1.93921,0.71781 -3.44921,0.63281 -1.719,-0.112 -3.41466,-0.48771 -5.22266,-0.84571 -2.05,-0.401 -4.20728,-0.7865 -6.61328,-0.8125 -6.802,-0.086 -14.33944,3.86646 -14.64844,15.06446 -0.245,8.986 7.18008,17.59126 14.95508,18.19726 0.93,0.076 1.77889,-7.2e-4 2.58789,-0.13672 0.715,-0.121 1.44809,-0.31548 2.24609,-0.52148 1.327,-0.357 2.88039,-0.77745 5.02539,-0.93945 0.93,-0.068 2.32863,0.91476 2.51563,1.38476 0.146,0.359 1.28344,1.37261 1.64844,1.47461 l 2.10547,0.57422 c 1.78399,0.493 3.1496,-0.605 3.0996,-2.5 -0.017,-0.693 -0.0946,-1.904 -0.26562,-3.125 -0.141,-1.058 0.0342,-2.56122 0.24023,-3.44922 0.29,-1.288 1.06657,-1.99683 2.72657,-2.42383 3.127,-0.793 3.82872,-1.96148 2.76172,-3.77148 l -1.26758,-2.14063 c -0.093,-0.163 -1.12078,-1.01812 -1.30078,-1.07812 -2.482,-0.879 -12.73763,-0.2482 -15.14063,0.7168 -0.974,0.392 -1.58758,1.80317 -1.76758,2.82617 l -0.33789,1.68164 c 0.212,1.007 1.64244,1.89408 3.64844,1.95508 l -1.44141,0.008 c -6.682,1.153 -7.61265,-4.27594 -7.34765,-8.58594 0.213,-3.414 2.99893,-6.34225 5.96093,-5.90625 3.644,0.545 4.90629,1.01419 5.36329,4.24219 0.093,0.682 1.16054,1.91103 1.81054,2.08203 l 1.61719,0.42773 c 1.354,0.367 2.7482,-0.52129 3.0332,-1.90429 0.437,-2.107 2.23583,-5.51263 2.79883,-6.01563 0.087,-0.079 1.09586,-1.34078 0.63086,-3.17578 -0.102,-0.385 -0.24581,-0.8962 -0.38281,-1.4082 -0.21,-0.7365 -0.64389,-3.88709 -2.44141,-4.04492 z m -94.5957,0.60547 c -0.86484,0.0209 -1.85447,0.46106 -2.26172,1.10156 l -1.58594,2.43164 c -0.849,1.322 -0.38951,2.94395 1.02149,3.62695 0.263,0.128 4.19358,2.06575 4.76757,2.59375 0.096,0.094 0.19363,0.10491 0.26563,0.12891 -0.912,1.714 -1.67391,2.84937 -2.25391,3.60937 -0.572,0.743 -0.98067,1.15378 -1.26367,1.42578 -0.998,0.888 -1.39904,1.9711 -1.37305,2.9961 -1.063,-0.128 -2.19989,0.19512 -3.21289,1.07812 -0.283,0.221 -0.61357,0.47675 -1.01757,0.84375 -0.57,-0.819 -1.144,-1.75783 -1.75,-2.79882 -1.218,-2.08201 -2.43724,-4.34615 -3.86524,-6.49415 -1.271,-1.938 -2.3367,-3.41434 -3.0957,-4.65234 -0.752002,-1.212 -0.886487,-1.72212 -0.896487,-1.95312 -0.056,-1.212 -1.237312,-2.38321 -2.445312,-2.40821 l -15.621094,-0.42578 c -0.752,-0.044 -1.415687,0.20508 -2.054687,0.95508 0,0 -1.659844,2.23777 -1.839844,2.50976 -1.569,2.364 -1.023984,3.75676 1.916015,4.34376 0.33,0.062 2.727969,0.68996 3.042969,0.79296 -0.035,0.214 -1.826515,5.91604 -2.228515,6.95704 -0.828,1.562 -0.802672,2.79943 -0.263672,3.77343 -0.862,0.272 -1.648375,0.92921 -2.109375,2.15821 -0.291,0.7 -0.766391,1.90381 -1.900391,4.63281 -0.644,1.528 -1.754,5.07939 -3.125,8.77539 -1.382,3.703 -2.875344,7.14316 -4.277344,8.91016 -1.567,1.99699 -4.367765,3.79764 -4.384765,3.80664 -1.017,0.649 -1.434188,2.25154 -0.867188,3.31054 l 1.076172,2.00586 c 0.868,1.621 2.599594,1.90439 3.933594,0.65039 1.559,-1.46 7.616031,-3.9875 14.457031,-2.9375 1.608,0.248 2.900391,-0.85242 2.900391,-2.48242 0,0 0.603093,-2.66228 -1.878907,-4.11328 -0.197999,-0.112 -0.559015,-0.34253 -1.041015,-0.76953 -0.552,-0.495 -0.882516,-1.57085 -0.228516,-4.08985 0.65,-2.509 1.910516,-5.13661 2.603516,-7.09961 0.912,-2.56899 2.023891,-4.9764 2.462891,-5.9414 0.548,-1.417 0.490499,-2.5585 0.0625,-3.4375 1.032,-0.308 1.867765,-1.11786 2.384765,-2.38086 0.132,-0.318 0.315016,-0.76966 0.541016,-1.22266 l 0.09375,-0.17773 c 1.723,1.636 6.368968,7.14228 9.917972,18.98828 1.873,6.23 2.42415,9.91898 2.53515,11.95898 0.052,1.024 0.0644,1.53479 0.0254,1.80079 0,0 -0.48714,2.46634 1.00586,3.27734 l 1.41797,0.81055 0.99414,0.55273 c 2.121,1.178 3.90946,-0.81872 3.93946,-0.88672 0.674,-1.426 5.28431,-6.51067 8.07031,-7.01367 1.343,-0.249 2.28058,-1.63089 2.01758,-2.96289 -0.452,-2.313 -1.29624,-4.85852 -2.11524,-7.10352 -0.765,-2.073 -1.50131,-3.87306 -1.82031,-4.91406 -1.378,-4.446 0.53997,-7.25476 0.91797,-7.75976 0.623,-0.724 1.15992,-1.74919 1.16992,-2.86719 0.825,0.095 1.62495,-0.15308 2.37695,-0.58008 0.861,1.785 2.58482,5.23259 4.25782,8.80859 1.717,3.67 3.24215,7.22214 3.78515,9.24414 0.235,0.878 0.18514,1.24593 -0.25586,1.91993 -0.652,0.989 -2.03572,2.3399 -4.88672,4.7539 -1.087,0.913 -1.18693,2.58577 -0.21093,3.63477 l 1.92773,2.07422 c 0.817,0.88 2.47516,0.99981 3.41016,0.25781 3.494,-2.774 13.01172,-3.44103 21.88672,-0.58203 1.123,0.358 2.62884,-0.32302 3.08984,-1.41602 l 0.78711,-1.86133 c 0.222,-0.52 -0.005,-2.12259 -0.35938,-2.55859 -0.574,-0.709 -1.26511,-1.28939 -1.9121,-1.77539 -0.62101,-0.452 -1.31472,-0.90347 -2.01172,-1.35547 -0.618,-0.402 -1.23855,-0.79589 -1.81055,-1.21289 -0.543,-0.394 -0.97286,-0.76998 -1.25586,-1.08398 -0.529,-0.563 -0.76473,-0.96439 -0.92773,-1.40039 -0.265,-0.718 -0.41213,-1.55266 -0.70313,-2.72266 -0.289,-1.211 -0.90641,-2.97175 -1.69141,-4.96875 0.389,0.086 0.83013,0.12914 1.32813,0.11914 0.611,-0.016 1.42166,-0.1025 2.34766,-0.1875 1.728,-0.161 3.61509,-0.29023 5.37109,0.01 0.965,0.163 2.40958,-0.6485 2.76758,-1.5625 0.359,-0.913 0.67461,-1.73204 0.97461,-2.45704 0.263,-0.642 0.51715,-1.20459 0.78515,-1.68359 0.469,-0.852 0.81466,-1.01445 0.97266,-1.06445 1.5379,-0.6454 2.73496,-2.17678 2.37891,-4.14258 0.41288,1.54445 0.72401,2.9513 0.79687,3.89062 0.031,0.4 0.0142,0.67452 -0.01,0.85352 -0.03,0.171 -1.21029,1.73105 -0.48829,3.12305 l 1.94532,2.26367 c 0.974,1.143 2.65193,1.21153 3.71093,0.14453 0.788,-0.803 3.96349,-1.74072 8.89649,-0.13672 0.537,0.17 2.61934,1.11056 2.90234,0.72656 1.219,-1.657 2.70564,-3.17723 2.05664,-4.11523 -5.324,-7.621 -7.8609,-16.75422 -9.2539,-23.94922 -0.15,-0.784 -1.04599,-1.31222 -1.20899,-1.44922 l -2.35937,-2.05664 c -0.448,-0.359 -2.01107,-0.59737 -2.53907,-0.35937 -3.926,1.725 -15.71384,-0.13539 -17.71484,-0.77539 -0.674,-0.223 -2.24717,0.24015 -2.70117,0.78515 l -1.79492,2.14649 c -1.278,1.538 -0.80969,3.2877 1.07031,3.9707 0.19513,0.0732 3.74084,1.39039 7.21094,2.74805 -0.17464,-0.0638 -0.35163,-0.13216 -0.52344,-0.16602 -2.114,-0.419 -3.88145,1.09989 -4.43945,2.71289 -0.506,1.484 -1.64239,4.39524 -3.40039,6.61524 -1.339,1.689 -2.32249,3.59296 -2.64649,5.66796 -1.63,-3.56 -3.21642,-6.75187 -4.10742,-8.29687 -2.556,-4.404 -3.31814,-9.09148 -2.49414,-11.77149 0.819,-2.671 -0.26964,-2.74067 -2.18164,-3.76367 -0.542,-0.281 -1.08203,-0.5625 -1.08203,-0.5625 -0.317,-0.164 -1.84393,-0.2075 -2.16992,-0.0625 -2.89201,1.281 -10.31829,0.46127 -11.86329,-0.17773 -0.23475,-0.094 -0.50859,-0.13392 -0.79687,-0.12695 z m 36.25,10.14843 c 2.39085,0.94177 4.69012,1.87718 5.61719,2.38477 0.65245,1.31606 1.77522,4.39119 2.68945,7.39453 -0.12905,-0.37063 -0.25247,-0.72393 -0.41992,-1.19336 -0.638,-1.212 -1.71424,-1.71453 -2.49024,-1.89453 -0.591,-0.129 -1.18218,-0.0949 -1.36718,-0.0859 l -0.38868,0.0332 c 0.082,-0.256 0.15108,-0.52797 0.20508,-0.79297 0.565,-1.887 0.10803,-3.86614 -1.16797,-4.74414 0,0 -0.78817,-0.33447 -1.45117,-0.60547 -0.329,-0.138 -0.69605,-0.25653 -0.99805,-0.39453 -0.0511,-0.0243 -0.15507,-0.0675 -0.22851,-0.10157 z"/>
  <path d="m 265.74464,204.44892 c -0.739,0 -1.56249,0.32147 -2.52149,0.98047 -0.156,0.11 -0.42197,0.27622 -0.79297,0.44922 -1.024,0.466 -2.09031,0.67561 -3.32031,0.59961 -1.362,-0.077 -2.2427,-0.3063 -3.0957,-0.5293 l -0.47852,-0.12109 c -1.344,-0.335 -2.87261,-0.66483 -5.47461,-0.67383 -7.428,0 -15.27297,5.76606 -15.54297,15.41406 -0.262,9.259 5.77699,19.11689 16.33399,19.5879 0.228,0.011 0.46398,0.0156 0.70898,0.0156 5.679,0 15.54391,-2.73994 20.12891,-4.71094 0.213,-0.098 1.21956,-0.97654 1.35156,-1.18554 l 2.07227,-3.4375 c 0.869,-1.438 1.09079,-2.82594 0.59179,-3.71094 -0.486,-0.862 -1.5747,-1.13475 -2.9707,-0.71875 -4.435,1.321 -6.84959,1.80992 -13.30859,2.29492 -0.686,0.054 -1.34032,0.0801 -1.94531,0.0801 -2.80401,0 -4.76236,-0.57317 -5.81836,-1.70117 -1.292,-1.382 -1.15325,-3.44372 -1.03125,-5.26172 l 0.0293,-0.4668 c 0.225,-3.687 2.68153,-6.12891 3.64453,-6.12891 2.776,0.185 3.38191,0.34605 3.87891,3.87305 0.114,0.864 1.3232,2.2487 2.1582,2.4707 l 1.65235,0.43555 c 1.583,0.423 3.28314,-0.65644 3.61914,-2.27344 0.439,-2.114 2.24647,-5.4832 2.73047,-5.9082 0.286,-0.276 1.25195,-1.70172 0.75195,-3.63672 -0.098,-0.405 -0.24072,-0.93103 -0.38672,-1.45703 -0.032,-0.112 -0.0636,-0.27566 -0.10156,-0.47266 -0.236,-1.236 -0.72728,-3.80664 -2.86328,-3.80664 z m -32.14453,0.52735 c -0.17297,0.003 -0.34332,0.024 -0.50782,0.0644 -3.074,0.758 -7.64981,1.02734 -10.63281,1.02734 -1.652,0 -3.00112,-0.0788 -3.70312,-0.21484 -0.926,-0.179 -2.63854,0.55474 -3.14454,1.55274 l -0.77539,1.50195 c -0.427,0.829 -0.48601,1.7273 -0.16601,2.52929 0.315,0.79001 0.96226,1.3885 1.82226,1.6875 1.693,0.58401 2.62739,1.75302 3.02539,3.79102 0.215,1.084 0.22008,2.18158 0.20508,3.01758 -0.009,0.575 -0.0337,1.1118 -0.0547,1.5918 -0.021,0.476 -0.0391,0.89718 -0.0391,1.24218 0,2.115 -0.52528,4.27183 -0.98828,6.17383 -0.213,0.878 -0.41845,1.72067 -0.56445,2.51367 -0.579,3.09 -1.41711,3.96802 -1.66211,4.16602 -0.871,0.712 -1.30284,2.55303 -0.83985,3.58203 l 0.77735,1.71484 c 0.579,1.298 1.52651,2.04102 2.60351,2.04102 0.972,0 1.87979,-0.60127 2.55079,-1.69727 0.78,-1.256 4.48973,-2.77343 7.92773,-2.77343 1.193,0 2.2198,0.19926 2.9668,0.57226 0.286,0.145 0.65531,0.22071 1.07031,0.22071 0.791,0 1.8925,-0.29446 2.4375,-0.93946 l 0.98828,-1.14453 c 0.521,-0.605 0.77903,-1.41651 0.70703,-2.22851 -0.073,-0.821 -0.45608,-1.55446 -1.08008,-2.06446 -3.147,-2.574 -3.65567,-4.4814 -3.76367,-5.6914 -0.162,-1.829 -0.0231,-3.16143 0.0879,-4.23243 0.056,-0.544 0.10352,-1.01454 0.10352,-1.43554 0,-3.067 0.0973,-5.45124 0.57031,-7.11524 0.411,-1.421 0.92977,-1.83025 1.63477,-2.03125 0.786,-0.227 1.42578,-0.75628 1.80078,-1.48828 0.38,-0.738 0.43625,-1.61239 0.15625,-2.40039 l -0.5625,-1.58203 c -0.39988,-1.10863 -1.74041,-1.97022 -2.95117,-1.95117 z m -23.13672,0.18164 c -0.748,0 -1.55288,0.38086 -2.42188,1.13086 -0.122,0.084 -0.38515,0.25345 -0.78515,0.43945 -0.978,0.453 -2.06175,0.64889 -3.21875,0.58789 -1.465,-0.094 -2.92089,-0.38626 -4.4629,-0.69726 l -0.69921,-0.14063 c -2.045,-0.399 -4.24522,-0.79136 -6.69922,-0.81836 l -0.22266,-0.002 c -6.998,0 -14.5893,4.08034 -14.9043,15.52734 -0.245,8.966 7.23468,18.04469 15.38868,18.67969 0.898,0.073 1.72207,0.0244 2.70507,-0.14063 0.674,-0.115 1.35899,-0.29051 2.08399,-0.47851 l 0.22265,-0.0586 c 1.326,-0.35799 2.82947,-0.76092 4.98047,-0.91992 0.733,0 1.85643,0.80785 1.98243,1.08985 0.201,0.495 1.44784,1.6089 1.96484,1.7539 l 2.10352,0.57422 c 0.323,0.09 0.64412,0.13477 0.95312,0.13477 0.755,0 1.44059,-0.27821 1.93359,-0.78321 0.549,-0.563 0.8375,-1.38826 0.8125,-2.32226 -0.019,-0.742 -0.0995,-1.96678 -0.26953,-3.17578 -0.127,-0.953 0.0204,-2.37025 0.23242,-3.28125 0.208,-0.926 0.69286,-1.63336 2.38086,-2.06836 1.962,-0.496 3.0555,-1.15522 3.4375,-2.07422 0.287,-0.687 0.16024,-1.47049 -0.38476,-2.39648 l -1.26367,-2.13672 c -0.154,-0.266 -1.27869,-1.19611 -1.55469,-1.28711 -1.041,-0.368 -3.11778,-0.44532 -4.67578,-0.44532 -0.131,0 -0.26539,9.6e-4 -0.40039,0.002 0.384,-0.396 0.66325,-0.90266 0.78125,-1.47266 0.424,-2.045 2.18939,-5.34676 2.65039,-5.75976 0.227,-0.204 1.27548,-1.66044 0.77148,-3.64844 l -0.38476,-1.41602 c -0.028,-0.093 -0.0587,-0.23048 -0.0957,-0.39648 -0.27,-1.196 -0.9004,-4 -2.9414,-4 z m 55.2832,0.23633 c 1.189,0 1.63455,1.46106 1.93555,3.03906 0.044,0.229 0.0802,0.41587 0.11718,0.54687 0.144,0.515 0.28382,1.0306 0.38282,1.4336 0.415,1.609 -0.47657,2.70898 -0.47657,2.70898 -0.715,0.626 -2.56462,4.24311 -3.01562,6.41211 -0.229,1.101 -1.36717,1.83674 -2.45117,1.55274 l -1.65235,-0.43555 c -0.456,-0.122 -1.39989,-1.20459 -1.46289,-1.68359 -0.574,-4.07201 -1.63175,-4.48136 -4.84375,-4.69336 -1.626,0 -4.3185,3.01257 -4.5625,7.01757 l -0.0293,0.46094 c -0.128,1.912 -0.28785,4.29261 1.28515,5.97461 1.258,1.347 3.38681,2.00195 6.50782,2.00195 0.629,0 1.30562,-0.028 2.01562,-0.082 6.547,-0.492 8.99977,-0.98903 13.50977,-2.33203 0.35,-0.104 0.6674,-0.1582 0.9414,-0.1582 0.457,0 0.7706,0.14754 0.9336,0.43555 0.319,0.567 0.0919,1.6469 -0.57813,2.7539 l -2.04687,3.40039 c -0.113,0.135 -0.84718,0.77666 -0.95118,0.84766 -4.685,2.012 -15.00315,4.86923 -20.41015,4.61523 -9.974,-0.445 -15.67769,-9.81423 -15.42969,-18.61523 0.254,-9.072 7.61975,-14.49414 14.59375,-14.49414 2.494,0.009 3.959,0.32258 5.25,0.64258 l 0.4668,0.11914 c 0.898,0.236 1.82625,0.47759 3.28125,0.55859 1.377,0.085 2.60348,-0.15259 3.77148,-0.68359 0.439,-0.204 0.7545,-0.40421 0.9375,-0.53321 0.78,-0.538 1.44647,-0.81054 1.98047,-0.81054 z m -149.66992,0.38086 c -0.936,0 -2.1717,0.45245 -2.7207,1.31445 l -1.5879,2.43359 c -0.486,0.755 -0.62648,1.6215 -0.39648,2.4375 0.23,0.817 0.80047,1.4811 1.60547,1.8711 1.384,0.675 4.09447,2.06656 4.60547,2.47656 -0.682,1.246 -1.35114,2.30058 -1.99414,3.14258 -0.525,0.683 -0.91113,1.07833 -1.20313,1.36132 -0.881,0.78501 -1.40667,1.78061 -1.51367,2.84961 -1.091,0.002 -2.15147,0.424 -3.10547,1.25 -0.173,0.135 -0.36512,0.28289 -0.57812,0.46289 -0.416,-0.626 -0.86964,-1.36703 -1.43164,-2.33203 -0.326,-0.561 -0.65433,-1.13284 -0.98633,-1.71484 -0.905,-1.582 -1.84163,-3.21783 -2.89063,-4.79883 -0.548,-0.835 -1.05848,-1.58362 -1.52148,-2.26562 -0.609,-0.897 -1.13736,-1.67396 -1.56836,-2.37696 -0.751,-1.21 -0.824221,-1.62551 -0.824221,-1.72851 -0.068,-1.465 -1.456203,-2.82742 -2.908203,-2.85742 l -15.794922,-0.43164 c -0.87,0 -1.606483,0.36939 -2.271484,1.15039 -0.171,0.229 -1.673469,2.25725 -1.855469,2.53125 -0.885,1.333 -1.140249,2.40167 -0.78125,3.26367 0.367001,0.885 1.347859,1.47559 3.005859,1.80859 0.246,0.044 1.759969,0.43835 2.542969,0.65235 -0.412,1.362 -1.723546,5.5272 -2.060547,6.4082 -0.733,1.384 -0.893468,2.64019 -0.480469,3.74219 -0.682,0.334 -1.445109,0.98346 -1.912109,2.23047 l -0.382813,0.9414 c -0.310998,0.764 -0.770623,1.8975 -1.515624,3.6875 -0.340001,0.808 -0.792282,2.12311 -1.363282,3.78711 -0.515,1.497 -1.112531,3.23581 -1.769531,5.00781 -1.652,4.425 -3.026078,7.29721 -4.205078,8.78321 -1.497,1.908 -4.235531,3.67822 -4.269531,3.69921 -1.223999,0.781 -1.714297,2.6566 -1.029297,3.9336 l 1.074219,2.00586 c 0.572,1.069 1.504641,1.68164 2.55664,1.68164 0.754001,0 1.488095,-0.31516 2.121094,-0.91016 1.315,-1.233 5.668891,-3.05664 10.83789,-3.05664 1.087001,0 2.170704,0.0812 3.220704,0.24219 1.921001,0.298 3.449546,-1.08366 3.435546,-2.84766 0.235001,-1.037 0.100579,-3.33986 -2.107421,-4.63086 -0.159999,-0.089 -0.498031,-0.30103 -0.957032,-0.70703 -0.545,-0.49 -0.57589,-1.74018 -0.08789,-3.61718 0.417,-1.612 1.104938,-3.30483 1.710937,-4.79883 0.33,-0.813 0.63986,-1.57872 0.88086,-2.26172 0.855001,-2.408 1.87814,-4.65052 2.36914,-5.72852 l 0.08984,-0.20117 c 0.478,-1.239 0.559234,-2.35889 0.240234,-3.33789 0.961,-0.44 1.717125,-1.2847 2.203125,-2.4707 l 0.04687,-0.11524 c 0.079,-0.192 0.175203,-0.42211 0.283204,-0.66211 1.771,1.853 5.986078,7.15932 9.330082,18.32032 1.887,6.279 2.41062,9.9077 2.51562,11.8457 0.044,0.879 0.0662,1.47055 0.0352,1.68555 -0.023,0.114 -0.53562,2.81929 1.23438,3.77929 l 2.41602,1.36719 c 0.514,0.286 1.05642,0.43359 1.60742,0.43359 1.646,0 2.89814,-1.32225 2.99414,-1.53125 0.638,-1.351 5.10956,-6.27895 7.72656,-6.75195 0.765,-0.141 1.46492,-0.60639 1.91992,-1.27539 0.454,-0.669 0.62752,-1.48519 0.47852,-2.24219 -0.498,-2.546 -1.45967,-5.31478 -2.13867,-7.17578 -0.285,-0.77 -0.56431,-1.50183 -0.82031,-2.17383 -0.427,-1.114 -0.79324,-2.07479 -0.99024,-2.71679 -1.296,-4.182 0.47522,-6.84355 0.82422,-7.31055 0.421,-0.489 1.09595,-1.44659 1.25195,-2.68359 0.557,-0.014 1.13566,-0.15869 1.72266,-0.42969 0.216,0.444 0.47091,0.96597 0.75391,1.54297 0.908,1.853 2.11106,4.30426 3.28906,6.82226 1.989,4.252 3.28686,7.42007 3.75586,9.16406 0.2,0.74901 0.17264,0.97911 -0.19336,1.53711 -0.623,0.947 -2.01388,2.29735 -4.79688,4.65235 -0.614,0.517 -0.99687,1.2778 -1.04687,2.0918 -0.051,0.81999 0.23797,1.63346 0.79297,2.23046 l 1.92968,2.07227 c 0.937,1.007 2.96979,1.16669 4.05079,0.30469 1.835,-1.455 5.54945,-2.32422 9.93945,-2.32422 3.822,0 7.80081,0.63022 11.50781,1.82422 0.246,0.079 0.51111,0.11718 0.78711,0.11718 1.23,0 2.44281,-0.75678 2.88281,-1.80078 l 0.78516,-1.85937 c 0.29,-0.679 0.0392,-2.47197 -0.42578,-3.04297 -0.659,-0.815 -1.45596,-1.44938 -2.00196,-1.85938 -0.62799,-0.458 -1.32724,-0.91509 -2.03124,-1.37109 l -0.31641,-0.20508 c -0.505,-0.327 -1.00561,-0.65114 -1.47461,-0.99414 -0.495,-0.358 -0.91645,-0.71744 -1.18945,-1.02344 -0.502,-0.534 -0.69413,-0.88423 -0.82813,-1.24023 -0.171,-0.463 -0.29131,-0.9893 -0.44531,-1.6543 -0.072,-0.311 -0.14924,-0.64767 -0.24024,-1.01367 -0.24,-1.007 -0.71792,-2.4453 -1.41992,-4.2793 0.148,0.01 0.30203,0.0156 0.45703,0.0156 h 0.15039 c 0.498,-0.014 1.12775,-0.0736 1.84375,-0.14063 l 0.53516,-0.0508 c 1.726,-0.162 3.744,-0.25314 5.25,0.006 1.201,0.204 2.85316,-0.75147 3.28516,-1.85547 l 0.24414,-0.61914 c 0.261,-0.666 0.49851,-1.27503 0.72851,-1.83203 0.286,-0.695 0.52672,-1.21381 0.76172,-1.63281 0.384,-0.698 0.63419,-0.82142 0.74219,-0.85742 0.94203,-0.39575 1.8,-1.12861 2.29883,-2.09766 0.10829,0.5499 0.18782,1.04798 0.21875,1.44727 0.017,0.293 0.0156,0.5462 0.0156,0.6582 -0.013,0.029 -0.0383,0.0729 -0.0703,0.13086 -0.303,0.544 -1.10608,1.98998 -0.33008,3.45898 l 1.94336,2.26368 c 0.579,0.678 1.41025,1.0664 2.28125,1.0664 0.796,0 1.55,-0.31744 2.125,-0.89844 0.296,-0.301 1.41435,-0.87109 3.52734,-0.87109 1.501,0 3.14468,0.28852 4.88868,0.85352 0.109,0.036 0.28504,0.1045 0.49804,0.1875 0.892,0.343 1.73849,0.65234 2.27149,0.65234 0.299,0 0.5192,-0.0952 0.6582,-0.2832 0.219,-0.298 0.44692,-0.59191 0.66992,-0.87891 1.093,-1.405 2.12358,-2.73111 1.39258,-3.78711 -4.26,-6.099 -7.26273,-13.87358 -9.17773,-23.76758 -0.164,-0.856 -0.94833,-1.41975 -1.36133,-1.71875 l -2.375,-2.07031 c -0.437,-0.35 -1.46127,-0.55859 -2.19727,-0.55859 -0.35,0 -0.63012,0.0477 -0.82812,0.13672 -1.018,0.447 -2.70558,0.67382 -5.01759,0.67382 -4.835,0 -10.96042,-1.01879 -12.35741,-1.46679 -0.16301,-0.053 -0.35714,-0.0801 -0.57813,-0.0801 -0.848,0 -2.13972,0.41667 -2.63672,1.01367 l -1.79296,2.14844 c -0.72,0.868 -0.98324,1.84033 -0.74024,2.73633 0.242,0.894 0.95681,1.59651 2.00781,1.97851 l 0.16797,0.0625 c 0.88513,0.3285 2.85395,1.08056 4.64453,1.76367 -1.42661,0.49277 -2.44206,1.71023 -2.84375,2.8711 -0.51,1.494 -1.61921,4.32261 -3.32421,6.47461 -1.158,1.46 -1.96879,2.969 -2.42579,4.5 -1.389,-2.978 -2.73687,-5.66827 -3.54687,-7.07227 -2.674,-4.605 -3.14322,-9.13553 -2.44922,-11.39453 0.79,-2.574 -0.088,-3.15494 -1.70703,-3.96094 -0.219,-0.108 -0.45399,-0.22433 -0.70899,-0.36133 l -1.08398,-0.56445 c -0.363,-0.185 -1.25939,-0.20117 -1.52539,-0.20117 -0.762,0 -0.97978,0.0979 -1.05078,0.13086 -0.938,0.415 -2.52208,0.63281 -4.58008,0.63281 -3.058,0 -6.08502,-0.47336 -6.91602,-0.81836 -0.268,-0.106 -0.57415,-0.16015 -0.91015,-0.16015 z m 117.5664,0.14843 c 0.79703,0.006 1.75555,0.60564 2.01368,1.32227 l 0.56445,1.57812 c 0.192,0.544 0.15358,1.1463 -0.10742,1.6543 -0.255,0.497 -0.68871,0.85581 -1.22071,1.00781 -1.167,0.335 -1.8282,1.1126 -2.2832,2.6836 -0.504,1.772 -0.60547,4.229 -0.60547,7.375 0,0.393 -0.0476,0.83284 -0.0996,1.33984 -0.115,1.11 -0.25689,2.49211 -0.0879,4.41211 0.124,1.381 0.68542,3.5428 4.10742,6.3418 0.424,0.348 0.68438,0.85006 0.73438,1.41406 0.051,0.566 -0.12147,1.10934 -0.48047,1.52734 l -0.99023,1.14844 c -0.288,0.341 -1.0428,0.60742 -1.7168,0.60742 -0.263,0 -0.49153,-0.0411 -0.64453,-0.11914 -0.892,-0.447 -2.03458,-0.67383 -3.39258,-0.67383 -3.524,0 -7.68738,1.53466 -8.73438,3.22266 -0.48699,0.792 -1.12214,1.24609 -1.74414,1.24609 -0.686,0.001 -1.31923,-0.54037 -1.74023,-1.48437 L 216.438,238.8122 c -0.287,-0.63899 0.0372,-2.01803 0.57421,-2.45703 0.843,-0.679 1.5511,-2.35946 1.9961,-4.73047 0.144,-0.77599 0.34373,-1.60093 0.55273,-2.46093 0.475,-1.953 1.01367,-4.16749 1.01367,-6.39649 0,-0.334 0.0181,-0.74022 0.0391,-1.19922 0.022,-0.489 0.0466,-1.03714 0.0566,-1.61914 0.016,-0.882 0.004,-2.04284 -0.22266,-3.21484 -0.292,-1.495 -0.98853,-3.58891 -3.64453,-4.50391 -0.596,-0.206 -1.04191,-0.61353 -1.25391,-1.14453 -0.217,-0.542 -0.17204,-1.16218 0.12696,-1.74218 l 0.77734,-1.50586 c 0.253,-0.499 1.30752,-1.06446 1.97852,-1.06446 0.052,0 0.10253,0.003 0.14453,0.0117 0.768,0.148 2.14686,0.23047 3.88086,0.23047 3.035,0 7.70142,-0.27764 10.85742,-1.05664 0.10475,-0.0249 0.21426,-0.036 0.32812,-0.0352 z m -23.18164,0.18164 c 1.283,0 1.79758,2.28377 2.01758,3.25977 0.042,0.187 0.0775,0.34141 0.10547,0.44141 l 0.38086,1.40039 c 0.41,1.618 -0.48633,2.70507 -0.48633,2.70507 -0.703,0.627 -2.51126,4.17244 -2.94726,6.27344 -0.226,1.099 -1.35427,1.83697 -2.44727,1.54297 l -1.61719,-0.42773 c -0.465,-0.124 -1.39489,-1.19546 -1.46289,-1.68946 -0.499,-3.531 -1.97667,-4.07853 -5.76367,-4.64453 -3.197,-0.466 -6.26995,2.6227 -6.50195,6.3457 -0.215,3.493 0.41318,6.04776 1.86719,7.59376 1.02999,1.095 2.45718,1.65039 4.24218,1.65039 0.558,0 1.16185,-0.0532 1.71485,-0.15625 l 1.44336,-0.008 0.01,-0.94726 c -1.801,-0.054 -2.95278,-0.7961 -3.17578,-1.4961 l 0.31641,-1.58398 c 0.173,-0.978 0.74951,-2.17575 1.47851,-2.46875 1.462,-0.587 6.34231,-1.10352 10.44531,-1.10352 2.098,0 3.64504,0.13986 4.33204,0.38086 0.179,0.095 0.96807,0.74877 1.08007,0.88477 l 1.26758,2.13867 c 0.384,0.651 0.49017,1.15773 0.32617,1.55273 -0.252,0.603 -1.19287,1.11449 -2.79687,1.52149 -1.82,0.468 -2.73931,1.29939 -3.07031,2.77539 -0.224,0.961 -0.3951,2.50109 -0.2461,3.62109 0.165,1.172 0.24177,2.35432 0.25977,3.07032 0.018,0.677 -0.17592,1.25867 -0.54492,1.63867 -0.457,0.469 -1.16303,0.61348 -1.95703,0.39648 l -2.09571,-0.57226 c -0.267,-0.096 -1.22475,-0.95227 -1.34375,-1.19727 -0.253,-0.634 -1.73133,-1.68359 -2.86133,-1.68359 l -0.13281,0.002 c -2.18,0.165 -3.73042,0.58313 -5.10742,0.95313 l -0.20313,0.0527 c -0.705,0.183 -1.3709,0.35494 -2.0039,0.46094 -0.915,0.153 -1.64266,0.19686 -2.47266,0.13086 -7.695,-0.602 -14.75058,-9.20694 -14.51758,-17.71094 0.297,-10.767 7.40599,-14.60352 13.95899,-14.60352 h 0.21094 c 2.374,0.026 4.52734,0.40979 6.52734,0.80079 l 0.69531,0.14062 c 1.574,0.317 3.0598,0.61584 4.5918,0.71484 1.353,0.072 2.55578,-0.15578 3.67578,-0.67578 0.441,-0.204 0.74589,-0.39483 0.96289,-0.54883 0.719,-0.619 1.3407,-0.93164 1.8457,-0.93164 z m -94.39257,0.61329 c 0.212,0 0.40473,0.0298 0.55273,0.0898 1.017,0.421 4.25444,0.89062 7.27344,0.89062 1.527,0 3.62708,-0.12389 4.95508,-0.71289 0.041,-0.015 0.24178,-0.0508 0.67578,-0.0508 0.549,0 0.99984,0.0588 1.08984,0.0937 l 1.07813,0.5625 c 0.259,0.14 0.50151,0.2581 0.72851,0.3711 1.432,0.712 1.81661,0.90393 1.22461,2.83593 -0.935,3.042 0.0842,7.92349 2.53516,12.14649 0.908,1.576 2.51189,4.81686 4.08789,8.25586 l 0.65625,1.43359 0.24219,-1.55664 c 0.288,-1.843 1.14582,-3.67631 2.54882,-5.44531 1.794,-2.265 2.94857,-5.20591 3.47657,-6.75391 0.477,-1.382 2.01734,-2.7813 3.90234,-2.4043 0.15507,0.0307 0.32571,0.0958 0.49219,0.15821 0.14611,0.0572 0.27093,0.11089 0.41601,0.16797 0.0981,0.0446 0.2174,0.0956 0.28321,0.12695 0.177,0.081 0.37517,0.15352 0.57617,0.22852 0.145,0.055 0.2935,0.10892 0.4375,0.16992 0.636,0.262 1.36914,0.5715 1.36914,0.5625 1.073,0.744 1.48484,2.51686 0.96484,4.25586 -0.05,0.249 -0.1134,0.50218 -0.1914,0.74218 l -0.2168,0.67969 1.10351,-0.0957 c 0.071,-0.004 0.18994,-0.01 0.33594,-0.01 0.328,0 0.62591,0.028 0.87891,0.082 0.555,0.13 1.57739,0.51775 2.15039,1.59375 l 0.14062,0.39454 c 0.11012,0.30715 0.1882,0.54338 0.2793,0.80468 0.22222,0.73007 0.42547,1.43896 0.61133,2.13086 0.32909,1.85768 -0.89818,3.10111 -2.05664,3.58985 -0.437,0.138 -0.8461,0.5601 -1.2461,1.28711 -0.252,0.451 -0.50959,1.00046 -0.80859,1.73046 -0.232,0.561 -0.47137,1.17761 -0.73437,1.84961 l -0.24219,0.61719 c -0.269,0.688 -1.4881,1.39658 -2.2461,1.26758 -1.6,-0.272 -3.71114,-0.18067 -5.49414,-0.0137 l -0.53711,0.0508 c -0.691,0.065 -1.29739,0.12176 -1.77539,0.13476 l -0.13086,0.002 c -0.394,0 -0.75993,-0.0364 -1.08593,-0.10938 l -0.86719,-0.18945 0.32422,0.82617 c 0.847,2.156 1.40887,3.80325 1.67187,4.90625 0.091,0.365 0.16828,0.69791 0.23828,1.00391 0.155,0.67 0.28943,1.25048 0.48243,1.77148 0.206,0.55 0.50162,1.00278 1.01562,1.55078 0.315,0.35 0.77508,0.74839 1.33008,1.15039 0.481,0.35 0.99758,0.68449 1.51758,1.02149 l 0.31445,0.20508 c 0.691,0.446 1.37538,0.89393 1.98438,1.33593 0.501,0.377 1.23507,0.96227 1.83007,1.69727 0.245,0.301 0.44402,1.71717 0.29102,2.07617 l -0.78711,1.85938 c -0.35,0.831 -1.64177,1.43039 -2.50977,1.15039 -3.797,-1.224 -7.87787,-1.8711 -11.79687,-1.8711 -4.665,0 -8.50134,0.92421 -10.52734,2.53321 -0.712,0.562 -2.15254,0.45501 -2.76954,-0.20899 l -1.92773,-2.07388 c -0.385,-0.413 -0.57797,-0.95539 -0.54297,-1.52539 0.034,-0.564 0.28694,-1.06978 0.71094,-1.42578 2.896,-2.452 4.29151,-3.81347 4.97851,-4.85547 0.514,-0.786 0.58636,-1.30173 0.31836,-2.30273 -0.489,-1.822 -1.77245,-4.95927 -3.81445,-9.32227 -1.179,-2.522 -2.38492,-4.98089 -3.29492,-6.83789 -0.381,-0.777 -0.71084,-1.44961 -0.96485,-1.97461 l -0.21874,-0.45703 -0.43946,0.25 c -0.751,0.427 -1.42079,0.59949 -2.0918,0.52148 l -0.52148,-0.0605 v 0.52734 c -0.006,0.855 -0.39117,1.78989 -1.07617,2.58789 -0.417,0.556 -2.42419,3.55969 -0.99219,8.17969 0.205,0.671 0.57877,1.64639 1.00977,2.77539 0.255,0.668 0.5344,1.39906 0.8164,2.16406 0.668,1.831 1.61266,4.55025 2.09766,7.03125 0.1,0.51 -0.02,1.06539 -0.33203,1.52539 -0.315,0.463 -0.79064,0.78291 -1.30664,0.87891 -2.991,0.54 -7.68414,5.73508 -8.36914,7.20508 -0.167,0.21 -1.08169,1.06054 -2.17969,1.06054 -0.388,1e-5 -0.77449,-0.10449 -1.14649,-0.3125 l -2.41796,-1.36718 c -1.167,-0.633 -0.77368,-2.74902 -0.76368,-2.79102 0.043,-0.289 0.0375,-0.73248 -0.0215,-1.89648 -0.108,-1.99 -0.63873,-5.70041 -2.55273,-12.06641 -3.750005,-12.518 -8.635927,-17.85631 -10.044927,-19.19531 l -0.455078,-0.4336 -0.394532,0.74219 c -0.204,0.412 -0.374859,0.82077 -0.505859,1.13477 l -0.04883,0.11914 c -0.453,1.107 -1.173985,1.83447 -2.083985,2.10547 l -0.533203,0.16015 0.242188,0.50196 c 0.41,0.84 0.384547,1.86915 -0.06445,3.03515 l -0.08008,0.17578 c -0.497,1.091 -1.531391,3.35869 -2.400391,5.80469 -0.237,0.673 -0.541234,1.4227 -0.865234,2.2207 -0.617,1.52101 -1.317,3.24502 -1.75,4.91602 -0.599,2.307 -0.477,3.80045 0.375,4.56445 0.502,0.444 0.887234,0.69527 1.115234,0.82227 2.142,1.253 1.677531,3.50512 1.644531,3.70312 0,1.312 -1.025469,2.21958 -2.355468,2.01758 -1.098,-0.168 -2.231235,-0.2539 -3.365235,-0.2539 -5.424,0 -10.060328,1.9775 -11.486328,3.3125 -1.075,1.011 -2.497359,0.77465 -3.193359,-0.52735 l -1.076172,-2.00586 c -0.45,-0.843 -0.101891,-2.17311 0.662109,-2.66211 0.024,-0.013 2.896922,-1.8375 4.544922,-3.9375 1.24,-1.564 2.664563,-4.51906 4.351563,-9.03906 0.660999,-1.78 1.25839,-3.52725 1.77539,-5.03125 0.543001,-1.582 1.012798,-2.94751 1.341797,-3.72851 0.747,-1.796 1.207531,-2.93127 1.519531,-3.69727 l 0.388672,-0.95117 c 0.368,-0.979 0.976547,-1.61005 1.810547,-1.87305 l 0.550781,-0.17383 -0.279297,-0.50781 c -0.507,-0.914 -0.417937,-2.03205 0.289063,-3.37305 0.373,-0.967 2.206906,-6.75878 2.253906,-7.05078 l 0.06445,-0.40039 -0.386719,-0.12695 c -0.334,-0.108 -2.749703,-0.74364 -3.095703,-0.80664 -1.301,-0.26 -2.0785,-0.67528 -2.3125,-1.23828 -0.226,-0.542 0.0093,-1.34191 0.697266,-2.37891 0.142,-0.214 1.367641,-1.87084 1.806641,-2.46484 0.467,-0.549 0.93925,-0.79297 1.53125,-0.79297 l 15.771484,0.43164 c 0.957,0.019 1.939375,0.98722 1.984375,1.94922 0.011,0.289 0.122844,0.82754 0.964844,2.18554 0.435996,0.712 0.974746,1.50211 1.593746,2.41211 0.461,0.678 0.96868,1.42386 1.51368,2.25586 1.033,1.556 1.95947,3.17905 2.85547,4.74805 0.334,0.584 0.66319,1.15966 0.99219,1.72266 0.711,1.221 1.25653,2.09407 1.76953,2.83007 l 0.30859,0.44141 0.39844,-0.36133 c 0.365,-0.332 0.67072,-0.56994 1.01172,-0.83593 0.854,-0.74401 1.86075,-1.0869 2.84375,-0.9629 l 0.54297,0.0645 -0.0137,-0.54688 c -0.017,-0.692 0.17951,-1.70953 1.22851,-2.64453 0.332,-0.32 0.7485,-0.74651 1.3125,-1.47851 0.742,-0.972 1.51392,-2.20883 2.29492,-3.67383 l 0.15821,-0.51953 -0.52149,-0.18164 c -0.667,-0.613 -4.83886,-2.65088 -4.88086,-2.67188 -0.559,-0.27 -0.95437,-0.72339 -1.10937,-1.27539 -0.156,-0.554 -0.0557,-1.14697 0.27929,-1.66797 l 1.58985,-2.43555 c 0.31,-0.485 1.17183,-0.88085 1.92383,-0.88085 z m 31.43164,0.22265 c 0.155,0 0.2412,0.0212 0.2832,0.0352 1.445,0.462 7.72339,1.51367 12.65039,1.51367 2.444,0 4.2603,-0.25581 5.4043,-0.75781 0.055,-0.025 0.2024,-0.0547 0.4414,-0.0547 0.676,0 1.42885,0.20984 1.58985,0.33984 l 2.36718,2.0625 c 0.03,0.025 0.0776,0.0615 0.14063,0.10547 0.244,0.177 0.81325,0.58527 0.90625,1.07227 1.942,10.026 4.99503,17.9209 9.33203,24.1289 0.333,0.481 -0.52928,1.59102 -1.36328,2.66602 -0.201,0.26 -0.40838,0.52492 -0.60938,0.79492 -0.418,-0.018 -1.38034,-0.38884 -1.90234,-0.58984 -0.235,-0.091 -0.43083,-0.16613 -0.54883,-0.20313 -1.835,-0.597 -3.57673,-0.89843 -5.17773,-0.89843 -2.262,0 -3.65417,0.59339 -4.20117,1.15039 -0.828,0.837 -2.24868,0.78081 -3.01368,-0.11719 l -1.88281,-2.17188 c -0.481,-0.927 0.11995,-2.01261 0.37696,-2.47461 0.09,-0.161 0.13425,-0.24214 0.15624,-0.36914 0.037,-0.272 0.0426,-0.59412 0.0156,-0.95312 -0.0748,-0.96362 -0.38992,-2.38328 -0.80469,-3.9375 -0.0128,-0.0709 -0.0108,-0.13702 -0.0273,-0.20899 -0.17181,-0.7488 -0.38858,-1.40385 -0.65039,-2.15039 -0.92527,-3.01954 -2.04612,-6.07197 -2.68164,-7.35351 l -0.0664,-0.13282 -0.13086,-0.0723 c -0.95764,-0.5243 -3.2856,-1.48298 -5.79297,-2.46875 -0.11588,-0.0517 -0.21462,-0.0884 -0.35156,-0.14063 -5.7e-4,-2.1e-4 -0.001,2.2e-4 -0.002,0 -2.6507,-1.03738 -5.46295,-2.09313 -7.12305,-2.70898 l -0.16992,-0.0625 c -0.757,-0.276 -1.26288,-0.74889 -1.42188,-1.33789 -0.16,-0.59 0.0367,-1.26081 0.55469,-1.88281 l 1.79297,-2.15039 c 0.245,-0.294 1.21516,-0.67188 1.91016,-0.67188 z m 50.08398,8.92383 c 0.172,0 0.34558,0.0141 0.51758,0.0391 3.661,0.548 4.55784,0.96889 4.96484,3.83789 0.103,0.758 1.03427,1.90889 1.82227,2.33789 -2.406,0.204 -4.59833,0.53346 -5.61133,0.93946 -1.27,0.512 -1.88873,2.24087 -2.05273,3.17187 l -0.35547,1.77539 0.0195,0.0957 c 0.129,0.60901 0.56403,1.14293 1.20703,1.54493 -0.084,0.003 -0.16605,0.004 -0.24805,0.004 -1.512,0 -2.70678,-0.45456 -3.55078,-1.35156 -1.579,-1.68 -1.74833,-4.67367 -1.61133,-6.88867 0.186,-2.984 2.42944,-5.50586 4.89844,-5.50586 z m -41.19922,2.72656 c 0.45829,0.20342 0.8478,0.38455 1.13281,0.5332 0.39832,0.83524 0.96644,2.36355 1.54883,4.03711 -0.48804,-0.29696 -0.96494,-0.46176 -1.30664,-0.54101 -0.367,-0.08 -0.83151,-0.11352 -1.22851,-0.10352 0.01,-0.049 0.0193,-0.0966 0.0293,-0.14258 0.40214,-1.34404 0.32065,-2.70292 -0.17578,-3.7832 z" style="fill:#ffffff"/>
  <path d="m 224.6188,243.44027 c -0.11486,0.0114 -0.22884,0.0374 -0.33984,0.0781 l -4.0918,1.4082 c -0.315,0.111 -0.56909,0.32485 -0.74609,0.58985 -0.217,-0.317 -0.5496,-0.54824 -0.9336,-0.61524 l -0.96484,-0.17969 c -0.678,-0.117 -1.35142,0.24768 -1.60742,0.88868 -0.304,0.743 -1.02188,1.33089 -1.92188,1.58789 -0.261,0.068 -0.48115,0.2212 -0.66016,0.4082 -0.77799,-0.708 -1.85484,-1.07422 -3.21484,-1.07422 -0.389,0 -0.77267,0.0425 -1.13867,0.10352 -0.065,-0.035 -0.12327,-0.0687 -0.19727,-0.0957 l -0.96484,-0.31445 c -0.741,-0.248 -1.54817,0.14509 -1.82617,0.87109 l -0.67774,1.86133 -0.13086,-0.26758 c -0.181,-0.367 -0.50504,-0.62218 -0.87304,-0.74218 l 0.20898,-0.13672 c 0.331,-0.204 0.56063,-0.53688 0.64063,-0.92188 0.076,-0.384 1.1e-4,-0.78537 -0.21289,-1.10937 l -0.67969,-1.00781 c -0.4,-0.598 -1.17245,-0.80172 -1.81445,-0.51172 -1.006,-0.546 -1.94489,-0.82836 -2.83789,-0.81836 -4.40701,-0.01 -7.86438,3.33728 -7.85938,7.61328 0,1.995 0.64972,3.70264 1.88672,4.93164 1.201,1.196 2.82861,1.83512 4.72461,1.82812 1.221,0 2.35522,-0.27331 3.44922,-0.82031 0.276,0.351 0.69058,0.57246 1.14257,0.56446 l 0.86133,0.008 c 0.578,-0.008 1.06764,-0.34213 1.30664,-0.82813 0.724,0.683 1.72446,1.0586 2.81446,1.0586 0.685,0.009 1.27997,-0.16139 1.79297,-0.40039 0.207,0.103 0.42896,0.16211 0.66796,0.16211 h 3.22071 c 0.474,0 0.88343,-0.22327 1.14843,-0.57227 0.59601,0.537 1.41579,0.81231 2.42579,0.82031 0.911,-0.009 1.70811,-0.2832 2.41211,-0.6582 0.257,0.255 0.61481,0.41015 1.00781,0.41016 h 4.15429 c 0.154,0 0.30522,-0.0342 0.44922,-0.0762 0.141,0.042 0.29022,0.0762 0.44922,0.0762 h 4.12305 c 0.656,0 1.20162,-0.43621 1.39062,-1.03321 0.939,0.837 2.15383,1.27225 3.54883,1.28125 1.291,0 2.46919,-0.36936 3.49219,-1.06836 0.244,0.486 0.73564,0.82032 1.30664,0.82032 h 4.26563 c 0.808,0 1.45117,-0.64799 1.45117,-1.45899 v -0.95703 c 0,-0.563 -0.31911,-1.03911 -0.78711,-1.28711 v -1.64063 c 0.126,0.042 0.24686,0.0865 0.38086,0.14649 0.356,0.136 0.7437,0.11942 1.0957,-0.0176 v 1.62109 c -0.372,0.266 -0.61328,0.69074 -0.61328,1.17774 v 0.96484 c 0,0.804 0.65012,1.45118 1.45312,1.45118 h 4.07813 c 0.224,0 0.438,-0.0515 0.625,-0.14454 0.189,0.085 0.40105,0.14454 0.62305,0.14454 h 4.12695 c 0.161,0 0.31089,-0.0349 0.46289,-0.0859 0.146,0.051 0.29989,0.0859 0.46289,0.0859 h 4.0957 c 0.394,0 0.75458,-0.16197 1.01758,-0.41797 0.033,0.033 0.0724,0.059 0.10938,0.084 -0.01,0.103 -0.0176,0.19697 -0.0176,0.29297 0,0.767 0.27387,1.4487 0.79687,1.9707 0.737,0.734 1.88454,1.09299 3.51954,1.08399 0.24299,0 2.47068,-0.034 3.80468,-1.375 0.611,-0.614 0.9336,-1.38014 0.9336,-2.24414 0,-1.135 -0.52391,-1.92022 -1.25391,-2.44922 0.869,-0.708 1.50977,-1.75966 1.50977,-3.34766 0,-1.023 -0.31422,-1.79051 -0.69922,-2.35351 0.01,-0.017 0.0175,-0.0426 0.0215,-0.0606 l 0.35352,-1.63867 c 0.093,-0.41 -5e-5,-0.83793 -0.24805,-1.16992 -0.254,-0.34101 -0.63583,-0.5549 -1.04883,-0.5879 -0.046,0 -0.0983,-0.009 -0.15234,-0.0176 -0.163,-0.008 -0.36141,-0.0332 -0.56641,-0.0332 -1.193,0 -2.00842,0.42535 -2.48242,1.27735 -0.239,-0.025 -0.50931,-0.041 -0.82031,-0.041 -1.586,0 -3.25094,0.63986 -4.21094,2.00586 -0.196,-0.436 -0.43797,-0.75828 -0.66797,-0.98828 -0.674,-0.676 -1.60644,-1.01758 -2.77344,-1.01758 -0.667,0 -1.24853,0.16158 -1.76953,0.39258 -0.032,-0.033 -0.0578,-0.0687 -0.0918,-0.0957 -0.359,-0.271 -0.82668,-0.36314 -1.26368,-0.24414 l -3.5332,0.96484 c 0.128,-0.3 0.18741,-0.62503 0.19141,-0.95703 0,-0.845 -0.37178,-1.39422 -0.67578,-1.69922 -0.517,-0.505 -1.25308,-0.76758 -2.20508,-0.76758 -1.237,0 -2.92716,0.92961 -3.16016,2.47461 -0.315,-0.103 -0.6485,-0.0758 -0.9375,0.0352 -0.248,-0.068 -0.53033,-0.10352 -0.86133,-0.10352 -0.263,0 -0.49498,0.0521 -0.70898,0.11914 -0.3,-0.128 -0.63003,-0.1534 -0.95703,-0.0664 l -3.2168,0.85937 c -0.317,0.085 -0.57934,0.27348 -0.77734,0.52148 -0.947,-0.93799 -2.18353,-1.43359 -3.64453,-1.43359 -1.804,0 -3.36771,0.87052 -4.34571,2.22852 -0.174,-0.479 -0.43439,-0.89728 -0.77539,-1.23828 -0.45,-0.453 -1.26575,-0.99024 -2.59375,-0.99024 -0.376,0 -0.71715,0.0521 -1.03515,0.11914 0.109,-0.204 0.17578,-0.44164 0.17578,-0.68164 v -1.07617 c 0,-0.47 -0.23138,-0.91155 -0.60938,-1.18555 -0.28875,-0.2055 -0.63784,-0.30184 -0.98242,-0.26758 z m -64.18555,0.002 c -0.769,0 -1.40008,0.58961 -1.45508,1.34961 l -0.22265,3.29492 c -0.028,0.4 0.11467,0.7928 0.38867,1.0918 0.274,0.289 0.6605,0.45898 1.0625,0.45898 h 1.15625 c 0.087,0 0.16695,-0.007 0.25195,-0.0156 v 3.84765 c -0.598,0.188 -1.02929,0.73381 -1.02929,1.38281 v 1.25391 c 0,0.804 0.64907,1.45294 1.45507,1.46094 l 5.48829,-0.008 c 0.656,0 1.20281,-0.43621 1.38281,-1.03321 0.178,0.598 0.72762,1.04102 1.39062,1.04102 h 4.15625 c 0.152,0 0.30736,-0.0359 0.44336,-0.0859 0.146,0.05 0.29218,0.0779 0.45117,0.0859 h 4.12305 c 0.656,0 1.20477,-0.44421 1.38477,-1.03321 0.941,0.828 2.16168,1.27149 3.55468,1.27149 2.063,0 3.84811,-0.92092 5.16211,-2.66992 0.422,-0.555 0.37644,-1.34033 -0.10156,-1.86133 l -0.52734,-0.57031 c 0.676,-0.282 1.03212,-1.02638 0.82812,-1.73438 -0.824,-2.859 -2.71317,-4.4295 -5.32617,-4.4375 -1.81,0 -3.3727,0.87052 -4.3457,2.22852 -0.174,-0.47 -0.43344,-0.89728 -0.77344,-1.23828 -0.452,-0.453 -1.26361,-0.99024 -2.59961,-0.99024 -0.376,0 -0.7132,0.0521 -1.0332,0.11914 0.115,-0.204 0.17578,-0.43364 0.17578,-0.68164 v -1.07617 c 0,-0.47 -0.22828,-0.91155 -0.61328,-1.18555 -0.378,-0.265 -0.86641,-0.34345 -1.31641,-0.18945 l -3.35156,1.16211 c -0.111,-0.709 -0.7055,-1.23828 -1.4375,-1.23828 h -1.21484 c -0.304,0 -0.58922,0.0939 -0.82422,0.25586 h -4.64258 c -0.232,-0.162 -0.51717,-0.25586 -0.82617,-0.25586 z m 7.55274,6.16992 c 0.0789,0.0183 0.16152,0.0254 0.23828,0.0254 h 1.15625 c 0.022,0 0.0397,-0.008 0.0547,-0.008 v 4.34375 c -0.217,0.161 -0.37843,0.38467 -0.48243,0.63867 -0.089,-0.527 -0.46879,-0.963 -0.96679,-1.125 z m 16.05273,0.9668 c 0.021,0.017 0.0472,0.0338 0.0742,0.0508 -0.035,0.017 -0.0695,0.0154 -0.10351,0.0234 0.01,-0.026 0.0183,-0.0482 0.0293,-0.0742 z m 50.33594,0 c 0.03,0.017 0.0502,0.0338 0.0742,0.0508 -0.035,0.008 -0.0704,0.0156 -0.10742,0.0156 0.01,-0.018 0.0282,-0.0404 0.0332,-0.0664 z m -14.60352,0.27929 v 2.20899 c -0.0597,-0.007 -0.11829,-0.0172 -0.18359,-0.0176 v -2.14063 c 0.063,-0.018 0.12259,-0.0248 0.18359,-0.0508 z m -20.87304,1.42578 h 0.33984 v 0.24805 c -0.126,-0.068 -0.23784,-0.15305 -0.33984,-0.24805 z" style="fill:#ffffff"/>
  <path d="m 160.4313,244.8934 -0.22852,3.29492 h 1.16016 c 0.196,-1.05 0.54131,-1.5625 1.69531,-1.5625 v 8.23438 h -1.02148 v 1.25586 l 5.47851,-0.01 v -1.24609 h -0.99609 v -8.23438 c 1.161,0 1.51213,0.51174 1.70313,1.55274 l 1.1582,0.01 -0.22266,-3.29492 h -1.2207 v 0.25586 h -6.29688 l 0.01,-0.25586 z m 13.99805,0 -4.09571,1.41602 v 0.97265 l 0.5586,-0.19336 v 8.0625 l -0.59766,-0.008 v 0.96289 l 0.0117,0.002 h 4.15627 v -0.96484 h -0.62891 v -4.55664 c 0.274,-0.368 0.67358,-0.66602 1.14258,-0.66602 0.752,-0.01 0.99219,0.38514 0.99219,1.11914 v 4.10352 h -0.60547 v 0.96289 h 4.12109 v -0.96289 h -0.57421 l -0.0117,-4.94141 c 0.007,-0.974 -0.43925,-2.21289 -2.15625,-2.21289 -1.237,0 -1.98921,0.59219 -2.90821,1.36719 v -3.18359 l 0.59571,-0.20508 z m 25.20703,0 c -3.562,0 -6.4043,2.68111 -6.4043,6.16211 0.002,3.218 2.0553,5.30664 5.1543,5.30664 1.553,0 2.79881,-0.54608 3.88281,-1.33008 l 0.70703,1.07617 h 0.86328 v -5.12109 c 0,-0.425 0.11522,-0.60338 0.44922,-0.85938 l -0.38281,-0.78711 c -0.243,0.092 -0.50049,0.23829 -0.77148,0.23829 h -4.34571 v 1.24609 h 1.90235 v 3.48242 c -2.36,0.009 -3.99219,-1.29706 -3.99219,-4.53906 0,-0.77 0.0632,-3.35666 2.11719,-3.34766 0.541,0 1.09179,0.27949 1.09179,0.89649 -0.004,0.221 -0.0636,0.45247 -0.22656,0.60547 l 0.59375,0.90429 3.48242,-2.23633 -0.67383,-1.00781 -0.59179,0.38477 c -0.819,-0.546 -1.84547,-1.07422 -2.85547,-1.07422 z m 25.12305,0 -4.08985,1.4082 v 0.97852 l 0.56055,-0.19336 v 8.05664 h -0.59375 v 0.96289 l 0.004,0.002 h 4.1543 v -0.96484 h -0.63086 v -4.55664 c 0.278,-0.368 0.67953,-0.67578 1.14453,-0.67578 0.752,0 0.99928,0.38514 0.98828,1.11914 v 4.11328 h -0.60742 v 0.96289 h 4.12305 v -0.96289 h -0.57422 v -4.94141 c 0,-0.983 -0.44811,-2.21989 -2.16211,-2.21289 -1.239,-0.007 -1.99111,0.59138 -2.91211,1.35938 v -3.17578 l 0.59571,-0.20508 z m 24.28515,0.69141 c -0.687,-0.007 -1.72756,0.589 -1.72656,1.375 0,0.657 0.44294,0.99804 1.08594,0.99804 0.8,0 2.06836,-0.35823 2.06836,-1.36523 0,-0.836 -0.74074,-1.01481 -1.42774,-1.00781 z m -31.75781,0.57226 c -0.496,1.219 -1.61705,2.08745 -2.87305,2.43945 v 0.87891 h 0.78711 0.006 v 4.75391 c 0,1.4 0.56349,2.11718 2.02148,2.11718 1.04301,0 1.95582,-0.56434 2.75782,-1.15234 l -0.41992,-0.68945 c -0.222,0.145 -0.49163,0.25586 -0.76563,0.25586 -0.239,0 -0.65625,-0.14763 -0.65625,-0.64063 v -4.64453 l 1.1875,0.01 0.23633,-1.25391 h -1.42774 v -0.65039 c 0,-0.409 0.0173,-0.84314 0.11133,-1.24414 z m 52.06055,0.5957 c -0.871,0 -1.15075,0.23718 -1.34375,0.82618 l -0.19532,0.61523 c -0.448,-0.067 -0.90967,-0.21289 -1.76367,-0.21289 -1.749,0 -3.58203,0.99855 -3.58203,3.31055 0.004,1.682 1.38667,2.62993 2.76367,2.83593 v 0.0312 c -0.998,0.368 -2.00645,0.69347 -3.06445,0.85547 l 1.07617,1.04102 c 0.675,-0.095 1.23339,-0.0332 2.15039,0.0508 v 0.0254 c -0.689,0.087 -1.54664,0.59877 -1.55664,1.38477 0.005,1.296 1.44938,1.60351 2.85938,1.60351 0.965,0 3.28906,-0.41792 3.28906,-2.16992 0,-1.801 -2.68163,-2.08061 -4.01563,-2.22461 v -0.0352 c 1.945,-0.495 4.26953,-0.98943 4.26953,-3.52343 -0.002,-1.878 -1.50586,-2.38322 -1.50586,-2.69922 0,-0.178 0.096,-0.34842 0.29102,-0.35742 0.28,0.009 0.38308,0.13522 0.58008,0.32422 l 0.34961,-1.63868 c -0.198,-0.018 -0.40856,-0.043 -0.60156,-0.043 z m -61.96485,0.85352 -1.02344,2.79102 0.99219,0.36523 c 0.437,-0.562 0.85125,-1.23633 1.78125,-1.23633 0.709,0 1.06055,0.40255 1.06055,1.06055 v 0.39844 h -2.20313 c -1.425,0 -2.57812,1.05973 -2.57812,2.92773 -0.004,1.487 1.08887,2.43359 2.54687,2.43359 0.915,0 1.62525,-0.43504 2.28125,-0.99804 l 0.1875,0.75781 h 3.22461 v -0.96484 h -0.51562 v -4.48829 c -0.009,-1.89399 -1.19528,-2.66406 -2.98828,-2.66406 -0.66,0 -1.34732,0.11214 -1.94532,0.36914 l 0.14454,-0.43554 z m 27.4043,0.37695 c -2.264,0.007 -3.95117,1.88528 -3.95117,4.11328 0,2.551 1.49801,4.25 3.91601,4.25 1.785,0 3.0641,-0.85379 3.9961,-2.09179 l -0.60743,-0.64844 c -0.487,0.589 -1.20298,0.84766 -1.95898,0.84766 -0.993,0 -1.65248,-0.49716 -2.02148,-1.41016 l 4.5625,-1.67187 c -0.567,-1.95301 -1.77055,-3.38868 -3.93555,-3.38868 z m 8.01953,0 -3.22461,0.86914 h 0.006 v 0.97266 l 0.51367,-0.20312 v 5.52148 h -0.54492 v 0.96484 h 4.26758 v -0.96484 h -0.78516 v -3.89844 c 0.315,-0.495 0.77155,-0.59061 1.06055,-0.59961 0.463,0.035 0.88183,0.19738 1.29883,0.35938 l 0.95703,-2.71485 -0.87891,-0.30664 -0.19336,0.32422 c -0.448,-0.221 -0.70554,-0.31836 -1.18554,-0.31836 -0.754,-0.007 -1.061,1.34263 -1.25,1.89063 h -0.041 z m 7.54102,0 -3.51563,0.99805 v 0.91406 l 0.58008,-0.11328 v 5.36133 h -0.61133 v 0.96289 h 4.07422 v -0.96289 h -0.52734 z m 5.30859,0 -3.5332,0.96289 v 0.94922 l 0.5625,-0.16406 v 5.41211 h -0.5625 v 0.96289 h 4.1289 v -0.96289 h -0.625 v -4.57422 c 0.385,-0.333 0.7675,-0.6582 1.3125,-0.6582 0.437,0 0.85156,0.24098 0.85156,0.70898 v 4.52344 h -0.61328 v 0.96289 h 4.09375 v -0.96289 h -0.54492 v -4.88281 c -0.005,-0.879 -0.29108,-2.27035 -2.33008,-2.27735 -1.104,0 -1.92723,0.65488 -2.74023,1.29688 z m -71.20898,0.006 c -2.26201,0 -3.94727,1.87942 -3.94727,4.10742 -0.004,2.551 1.48911,4.25 3.91211,4.25 1.787,0 3.06505,-0.84598 3.99805,-2.08398 l -0.61329,-0.65625 c -0.482,0.589 -1.20303,0.84766 -1.95703,0.84766 -0.995,0.008 -1.65143,-0.49716 -2.02343,-1.41016 l 4.55664,-1.66406 c -0.558,-1.962 -1.76079,-3.39063 -3.92578,-3.39063 z m 81.4707,1.00977 c 1.208,0 1.70508,2.42415 1.70508,3.28515 0,0.766 -0.24099,1.07422 -0.83399,1.07422 -1.208,0 -1.70312,-2.42315 -1.70312,-3.28515 0,-0.777 0.24003,-1.07422 0.83203,-1.07422 z m -81.9707,0.20312 c 0.86899,0.011 1.23603,1.18014 1.45703,1.86914 l -2.06446,0.78711 c -0.093,-0.436 -0.27343,-0.84556 -0.27343,-1.47656 0,-0.675 0.25686,-1.16869 0.88086,-1.17969 z m 50.3457,0.01 c 0.862,-0.01 1.22898,1.16951 1.45898,1.85351 l -2.07226,0.79102 c -0.095,-0.435 -0.26539,-0.85242 -0.27539,-1.48242 0,-0.676 0.25667,-1.17311 0.88867,-1.16211 z m -24.5625,2.73828 h 0.4668 v 1.54688 c 0,0.60599 -0.14577,1.16992 -0.88477,1.16992 -0.785,0 -0.96484,-0.71003 -0.96484,-1.33203 0,-0.821 0.57881,-1.38477 1.38281,-1.38477 z m 56.6543,4.47266 c 0.56299,0.35 0.98046,0.59879 0.98046,1.34179 0,0.392 -0.20937,0.58789 -0.60937,0.58789 -0.45,0 -0.6543,-0.43693 -0.6543,-0.83593 -0.005,-0.385 0.0772,-0.76875 0.28321,-1.09375 z"/>
</svg>
