<?xml version="1.0" encoding="UTF-8"?>
<svg id="Layer_2" data-name="Layer 2" xmlns="http://www.w3.org/2000/svg" viewBox="0 0 1008 408.33">
  <defs>
    <style>
      .cls-1 {
        stroke-width: 0px;
      }
    </style>
  </defs>
  <g id="Layer_1-2" data-name="Layer 1">
    <path class="cls-1" d="m900.17.13c17.32,0,33.89.91,49.68,2.77,15.78,1.86,33.8,5.1,54.05,9.8v84.73h-40.04c-3.69-15.37-8.41-27.59-14.17-36.67-5.76-9.07-12.91-15.72-21.48-20-8.57-4.28-19.37-6.43-32.41-6.43-11.09,0-21.04,1.95-29.8,5.86s-15.69,9.7-20.76,17.39c-5.07,7.69-7.59,16.98-7.59,27.91s2.2,21.07,6.58,29.36,11.75,16.35,22.05,24.25c10.33,7.87,25.33,16.88,44.98,27.03,23.97,12.47,42.81,24.7,56.54,36.67,13.73,11.97,23.85,25.04,30.4,39.15,6.52,14.11,9.8,30.52,9.8,49.23,0,23.97-5.54,44.76-16.66,62.37-11.12,17.61-27.28,31.15-48.51,40.6-21.23,9.45-45.77,14.17-73.62,14.17-19.88,0-40.57-1.13-62.09-3.37s-41.74-5.51-60.61-9.8v-90h40.04c4.88,23.18,13.01,40.48,24.38,51.85s28.1,17.1,50.12,17.1c11.5,0,21.83-1.95,30.96-5.86s16.51-10.17,22.05-18.84,8.32-19.53,8.32-32.57c0-12.06-2.24-22.55-6.71-31.41s-11.69-17.29-21.61-25.26c-9.92-8-23.75-16.44-41.49-25.42-15.18-7.59-28.92-15.5-41.2-23.66-12.29-8.16-22.74-17.2-31.41-27.03-8.28-9.04-14.4-19.75-19.5-30.84-1.98,9.64-6.8,18.36-11.53,26.87-11.5,19.09-28.13,33.55-49.96,43.38s-49.08,14.74-81.81,14.74c-18.9,0-34.37-.38-46.46-1.17v93.49c0,12.85.47,21.96,1.45,27.31s2.58,9.64,4.82,12.85c2.24,3.21,5.45,5.89,9.64,8.03s10.68,4,19.44,5.54v19.28h-305.17v-19.28c8.57-2.33,14.52-4.38,17.83-6.14s5.89-4.03,7.75-6.87,3.21-7.12,4.09-12.85,1.32-15.25,1.32-28.48v-143.17c0-15.78.28-34.37.88-55.79s1.17-36.6,1.76-45.58h-6.14c-2.33,7.78-4.82,15.43-7.47,22.93s-7.56,20.88-14.74,40.16l-78.31,210.92h-51.41L94.09,122.5c-4.88-13.45-9.17-26.77-12.85-40.04h-5.26c1.95,32.13,2.93,70.12,2.93,113.94v134.38c0,14.4.69,24.44,2.05,30.08s4.09,10.33,8.19,14.02c4.09,3.72,11.21,6.8,21.33,9.36v19.28H.03v-19.28c7.21-1.95,12.91-4.09,17.1-6.43,4.19-2.33,7.34-5.45,9.48-9.36s3.46-8.85,3.94-14.9.72-13.73.72-23.09V77.74c0-14.8-.63-24.92-1.89-30.4s-3.75-9.92-7.47-13.45c-3.69-3.5-10.99-6.8-21.92-9.92V4.69h145.21l80.92,239.87L313.77,4.69h304.89c49.27,0,86.18,8.82,110.72,26.43,13.61,10.11,25.14,23.94,30.24,40.32,7.78-16.16,3.87-9.54,10.84-20.32,11.88-16.76,29.07-29.45,51.57-38.11S870.56,0,900.17,0v.13Zm-450.29,24.22c-7.21,1.89-14.14,4.76-20.13,9.23-3.72,3.4-6.27,8-7.75,13.73s-2.2,15.91-2.2,30.52v252.72c0,11.88.6,21.29,1.76,28.19s3.56,12.16,7.15,15.78c5.86,5.2,13.7,7.47,21.1,9.51,5.61-1.42,10.99-3.5,16.16-6.02,4.19-2.24,7.31-5.35,9.36-9.36s3.37-9.04,3.94-15.18c.6-6.14.88-13.89.88-23.22V78.43c0-9.17-.25-16.85-.72-23.09s-1.76-11.31-3.81-15.18c-2.05-3.91-5.17-7.06-9.36-9.48-5.1-2.96-10.77-4.69-16.41-6.3l.03-.03Zm152.4,14.62c-13.64,0-24.16.19-31.56.6v164.49h25.14c19.47,0,34.96-2.77,46.46-8.32,11.5-5.54,20-14.36,25.58-26.43s8.32-28.35,8.32-48.79-2.77-36.38-8.32-48.35c-5.54-11.97-13.67-20.51-24.38-25.58s-24.44-7.59-41.2-7.59l-.03-.03Z"/>
  </g>
</svg>