<?xml version="1.0" encoding="UTF-8"?>
<svg id="Layer_2" data-name="Layer 2" xmlns="http://www.w3.org/2000/svg" viewBox="0 0 1010 287.72">
  <defs>
    <style>
      .cls-1 {
        stroke-width: 0px;
      }
    </style>
  </defs>
  <g id="Layer_1-2" data-name="Layer 1">
    <path class="cls-1" d="m827.76,135.01c5.05,16.29.47,27.43-13.76,33.36-7.35,3.06-13-.95-20.36-1.17-16.6-.54-28.41,8.14-40.81,17.8-.6.47-1.29.73-2.08.76-24.02.76-30.08-17.2-30.81-37.5-.03-.79.28-1.36.98-1.74,6-3.25,13.13-6.19,16.82-11.77,11.65-17.55,4.96-57.67,2.65-77.8-.22-1.77-1.29-3.31-2.87-4.13l-13.67-7.01c-.76-.38-1.42-.28-1.99.35-8.68,9.6-13.54,20.93-14.58,34.03-.16,2.08.79,2.9,2.81,2.46,14.42-3.12,29.1,11.43,28.6,25.66-.06,2.27-.88,6.82-2.43,13.57-.16.73-.66,1.36-1.36,1.64-11.55,5.49-23.42,10.86-18.81,26.7,2.18,7.51,4.67,14.65,7.42,21.37v.03c.54,1.39-.16,3-1.55,3.57h-.03c-17.04,6.53-35.16,15.02-48.67-3.22-9.78-13.19-34.72,1.55-47.19,3-21.68,2.49-37.97-8.21-55.68-22.47-.66-.54-1.1-.38-1.29.47-2.37,11.49-8.68,18.09-18.91,19.85-9.66,1.67-22.06-3.79-31.82-4.77-6.88-.69-14.24.6-22.03,3.95-.73.28-1.48.38-2.24.22-16.76-3.16-25.19-13.48-25.28-31,0-.76-.35-1.01-1.07-.79-4.42,1.29-7.29,3.28-8.62,5.93-15.53,31.15-27.9,27.08-59.28,28.06-.82.03-1.14.44-.92,1.23,2.97,10.83,5.59,28,15.53,34.53,10.38,6.82,26.32,16.95,30.14,28.75,6.91,21.4-15.15,35.73-34.06,28.75-22.63-8.33-61.01-13.19-82.1,1.8-2.97,2.11-5.71,3.28-8.21,3.54-24.62,2.49-33.3-18.43-25.31-38.98.25-.6.66-1.07,1.23-1.42,6.82-3.88,13.07-8.52,18.75-13.95.6-.57.85-1.26.79-2.08-2.21-27.27-20.14-62.21-33.84-84.97-.79-1.29-2.18-2.05-3.66-2.05-1.96,0-3.69,1.36-4.17,3.25-4.1,16.57-13.48,33.84-4.8,50.94,5.05,9.94,9.6,20.07,13.64,30.46,5.33,13.64-.69,26.17-10.92,35.23-9,7.99-17.96,16.03-26.89,24.15-8.46,7.7-15.06,12.18-19.76,13.41-14.93,3.91-27.37-9.34-29.29-24.08-4.89-37.06-16.29-73.67-31.03-108.8-6.22-14.84-14.01-28.15-23.42-39.93-.03-.03-.06-.06-.09-.09-.44-.44-1.17-.41-1.61.03-.03.03-.06.06-.09.09l-7.2,9.28c-.57.73-.85,1.58-.85,2.49v9.44c0,.69-.19,1.39-.54,1.99-14.17,23.89-26.99,47.54-29.45,75.56-.16,1.67.76,3.28,2.3,3.98,19.57,9.37,18.81,40.02-2.78,46.49-3.06.92-7.92,1.1-14.58.51-21.34-1.93-34.22,2.62-52.36,13.32-11.24,6.63-24.9,1.52-30.84-9.5-5.4-9.94-4.48-20.14,2.68-30.55.44-.63,1.04-1.1,1.74-1.39,17.99-7.42,28.88-22.76,36.96-40.37,7.48-16.32,17.58-44.06,30.27-83.2.22-.69.69-1.29,1.33-1.7,4.32-2.78,5.05-6.57,2.18-11.39-.41-.66-.38-1.52.06-2.18,7.1-10.38,12.31-21.68,15.62-33.87.03-.16.06-.32.06-.51,0-.92-.69-1.7-1.61-1.86l-24.75-3.72h-.03c-1.07-.19-1.8-1.2-1.64-2.27v-.03c1.64-9.63,2.87-21.05,8.27-28.72,7.2-10.29,16.1-14.46,29.23-13.7,13.19.76,26.39,1.04,39.55.82,12.22-.19,22.38-2.3,32.42,6.03,5.49,4.51,11.39,11.62,17.71,21.27,11.55,17.61,22.44,35.6,32.67,54.01.22.38.63.63,1.07.63.28,0,.57-.09.76-.28,3.09-2.46,6.63-3.72,10.64-3.76.47,0,.85-.19,1.17-.57l20.9-26.29c.41-.54.63-1.17.63-1.83,0-1.07-.6-2.08-1.55-2.59-7.8-4.26-21.81-11.87-24.08-21.08-3.85-15.5,6.34-34.47,24.75-33.46,14.3.79,28.53,2.24,42.67,4.36,14.84,2.24,28.53-8.33,39.55,8.96,8.52,13.45.51,32.42,8.33,47,8.43,15.66,16.35,31.69,23.74,48.07.13.28.41.44.73.44.28,0,.54-.13.66-.35,4.58-7.32,9.12-14.77,13.64-22.28,6.75-11.14,5.3-21.56,16.76-31.09.03-.03.09-.06.13-.13.38-.41.32-1.07-.13-1.45-.03-.03-.06-.06-.13-.09l-17.93-11.62c-.63-.41-1.07-.98-1.36-1.67-8.14-21.43,1.14-27.24,14.84-39.96,1.55-1.42,3.16-1.83,4.86-1.17,25.6,9.56,49.62,10.13,77.65,8.77,27.9-1.36,39.55,5.24,44.41,33.62,3.25,18.91,5.74,35.26,14.14,53,.03.16.16.25.32.25.19,0,.35-.16.35-.35v-.09c-5.68-42.26,12.91-79.79,56.34-90.37,23.29-5.68,45.64-3.88,67.04,5.4,10.57,4.61,18.72-4.36,27.21-9.66.66-.41,1.36-.47,2.11-.22,9.47,3.06,16.95,8.68,22.44,16.86.57.85,1.1.82,1.55-.13,5.56-11.71,16.54-19.1,29.61-15.72,13.54,3.47,27.02,3.6,40.5.32,24.11-5.84,30.93,4.55,39.61,25.06.22.54.76.88,1.33.88.41,0,.82-.19,1.07-.47,29.89-32.86,66.6-35.07,107.41-19.6.6.22,1.29.03,1.67-.51l7.13-10.45c.44-.66,1.07-.95,1.89-.79,26.01,4.45,38.22,20.14,36.58,47.06-.06,1.01-.54,1.74-1.52,2.11-5.4,2.21-9.91,5.52-13.57,10.01-.41.51-.66,1.14-.69,1.77-.38,6.94.35,12.94-3.76,18.84-12.63,18.15-35.6,12.4-44.22-5.02-.28-.6-.41-1.26-.32-1.93l1.61-12.28v-.16c0-.63-.47-1.14-1.1-1.2-22.38-1.86-32.98,8.08-29.29,30.71,6.6,40.69,64.01,23.89,89.61,16.63,25.88-7.35,35.98,26.29,14.05,39.11-49.71,28.94-96.81,41.98-148.95,11.05-8.08-4.8-14.96-12.15-20.58-22.09-1.17-2.05-1.39-1.96-.69.32v.03Zm-12.5-86.26c-2.59,23.96-6.06,50.25,0,73.89.19.79.73,1.48,1.45,1.83l6.47,3.28c1.1.57,1.42.28.95-.88-11.68-27.46-12.66-61.68,3.19-87.81,1.1-1.8.82-2.05-.79-.69l-10.1,8.24c-.66.54-1.07,1.26-1.17,2.15ZM950.63,7.68l-7.2,9.78c-.47.66-1.36.95-2.11.6-30.81-12.63-60.95-16.67-89.83,3.25-39.99,27.52-40.91,94.66-5.71,126.57,8.27,7.51,19.98,11.9,30.81,15.62,42.58,14.68,82.51.19,119.19-22.63,15.72-9.82,9.15-34.97-10.67-29.1-31.94,9.44-91.76,24.81-96.87-26.61-1.17-11.87,5.52-28.03,19.19-30.08,6.82-1.01,13.82-1.07,20.96-.16.98.13,1.42.69,1.36,1.67l-.88,15.06c-.06.73.06,1.42.35,2.08,7.89,18.56,36.14,14.42,36.2-5.97.06-10.38,5.18-17.55,15.4-21.53.57-.22.95-.76,1.01-1.36,1.52-21.15-7.8-33.93-28-38.38-1.29-.28-2.37.13-3.16,1.2l-.03-.03Zm-104.41,118.49c-32.95-55.84,6.38-121.62,73.51-101.29,12.44,3.76,27.59,13.26,37.18-2.21.41-.66,1.26-.88,1.93-.51,5.4,2.81,8.55,7.26,9.47,13.38.13.76-.16,1.36-.79,1.8-10.04,6.91-15.15,16.48-15.31,28.72-.03,1.77-.73,3.19-2.15,4.26-2.56,1.96-4.83,1.96-6.79-.06-.57-.6-.76-1.29-.57-2.11,2.62-10.57.82-27.11-13.35-27.65-15.43-.57-30.55-2.43-42.04,10.29-10.07,11.11-14.2,23.52-12.4,37.15,8.08,60.95,73.89,49.52,114.17,36.74.35-.09.69-.09,1.04.03.85.28,1.33,1.23,1.01,2.08-.13.35-.35.63-.66.82-27.14,17.99-61.04,32.61-94.79,26.17-18.91-3.6-39.55-10.83-49.52-27.65l.06.03Zm-471.56.03c-8.55-20.42-18.24-40.34-29.04-59.81-4.86-8.77-3.44-20.74-3.85-32.45-.44-13.45-10.57-24.08-24.68-20.2-4.64,1.29-7.54,2.05-12.59,1.17-10.38-1.74-45.61-7.32-53.88-2.15-10.38,6.5-16.22,25.41-4.17,32.7,5.87,3.5,11.96,7.54,18.28,12.12,2.27,1.64,2.9,4.83,1.39,7.23-5.4,8.59-18.94,20.61-20.93,30.18-.16.73-.6,1.07-1.36.98-6.91-.92-12.5,1.26-16.76,6.53-.06.06-.09.13-.16.16-.51.41-1.26.35-1.67-.16-.06-.06-.09-.13-.13-.19-10.92-19.06-22.32-37.81-34.12-56.31-8.87-13.89-20.07-29.29-36.24-28.19-15.37,1.07-30.81,1.07-46.24-.03-8.05-.57-13.79-.19-17.23,1.14-12.63,4.83-17.52,19.16-18.62,32.23-.06.73.28,1.17,1.01,1.33l22.32,3.98c.69.13,1.33.51,1.74,1.1,5.59,7.73-8.27,32.76-12.85,40.02-.38.63-.51,1.36-.32,2.08l1.83,7.26c.22.88-.09,1.83-.79,2.4-3.6,3.09-5.68,5.56-6.25,7.32-10.86,33.62-21.53,62.31-32.04,86.14-6.63,15.06-17.36,26.96-32.13,35.64-22.19,13.1-3.06,47.91,19.19,32.51,18.65-12.91,38.26-13.13,60.13-11.74,22.28,1.45,24.59-33.87,3.63-38.86-.76-.19-1.17-.66-1.2-1.45-1.33-28.57,12.66-56.15,27.37-80.27,3.16-5.14,2.62-9.78.73-15.06-.32-.82-.09-1.48.63-1.99,5.52-3.72,9.53-8.68,12.06-14.9.35-.85.88-1.01,1.64-.51,11.58,8.18,20.45,25.03,26.26,37.69,16.92,36.74,28.69,75.03,35.32,114.83,1.29,7.89,3.03,13.32,5.11,16.26,6.63,9.22,18.62,9.72,27.21,2.05,12.31-11.02,24.59-22.06,36.84-33.14,7.92-7.16,11.8-17.45,7.76-28-4.45-11.49-21.18-40.59-18.15-50.41,3.88-12.75,7.2-25.66,9.94-38.73.13-.6.51-.95,1.1-1.01l11.24-1.45c.69-.09,1.26.16,1.64.76,13.54,21.46,24.56,45.36,33.08,71.59,2.53,7.83,3.88,15.15,4.07,21.97.03.88-.28,1.64-.88,2.27-5.68,5.78-11.99,10.7-18.94,14.77-.63.38-1.1.95-1.42,1.64-5.08,12.18-3.09,21.34,6.03,27.49,14.49,9.82,26.42-6.15,40.84-8.4,23.14-3.54,45.55-1.39,67.17,6.44,19.13,6.91,35.54-13,21.94-29.35-9.09-10.92-30.68-18.72-34.63-32.51-2.97-10.42-6.06-20.77-9.25-31.03-.25-.76.03-1.14.82-1.1,7.7.22,17.99.25,30.93.13,16.03-.16,23.23-8.49,29.89-22.57,4.17-8.87,14.9-8.4,14.2-19-.06-1.14.47-1.77,1.61-1.86l2.97-.22c.85-.06,1.33.32,1.42,1.2,1.14,14.93-2.43,33.77,16.38,39.27,2.53.73,5.81.54,9.78-.57,13.13-3.69,25.76-1.86,38.92,1.67,15.31,4.13,26.36-3.88,25.19-20.77v-.22c0-1.64,1.36-3,3-3,.82,0,1.58.32,2.15.92,13.26,13.57,33.27,27.46,53.37,26.48,2.9-.16,8.74-1.64,17.58-4.48,7.92-2.56,16.1-4.07,24.53-4.51,9.63-.51,15.09,12.72,24.11,15.88,8.77,3.06,20.04-2.49,28.12-5.52.63-.22,1.04-.82,1.04-1.48,0-.22-.06-.44-.13-.63-10.13-22.57-13.1-36.9,12.53-49.14.73-.35,1.2-.92,1.45-1.67,4.55-13.73,1.26-23.39-9.88-29.04-6.63-3.35-14.99-1.83-22.19-.98-.09,0-.22.03-.32.03-1.77,0-3.22-1.45-3.22-3.22,0-1.33.82-2.53,2.05-3,2.68-.95,4.26-4.17,4.64-7.13,1.52-12.37,6.44-23.17,14.74-32.42.51-.57.76-1.26.76-2.02-.22-15.25-7.39-25.35-21.46-30.24-.82-.28-1.61-.19-2.34.35-8.3,5.97-17.33,13.38-28.22,8.68-21.43-9.22-43.43-11.05-66-5.49-47.66,11.77-60.44,60.51-47.63,102.9.19.54.16,1.1-.03,1.64-.47,1.26-1.93,1.89-3.19,1.42-.54-.19-.98-.57-1.26-1.04-12.63-20.67-20.48-43.12-23.61-67.29-3.85-30.02-12.63-35.23-43.12-33.21-25.5,1.64-50.38.03-74.43-8.87-.76-.25-1.45-.16-2.11.32-8.4,6.15-15.94,12.85-15.15,24.37.79,11.43,15.91,17.8,24.75,22,1.01.47,1.67,1.52,1.67,2.65,0,1.07-.6,2.08-1.55,2.59-15.81,8.46-11.99,20.93-19.82,32.32-7.1,10.38-13.32,21.12-18.62,32.2-.13.25-.38.38-.63.38s-.54-.16-.63-.41l-.06.06Zm84.24-53.85l8.24,20.67c.13.32.19.66.19,1.01,0,1.55-1.26,2.84-2.84,2.84-.76,0-1.45-.28-1.99-.82-4.32-4.26-9.56-6.34-15.72-6.22h0c-.66,0-1.23-.57-1.23-1.23,0-.09,0-.19.03-.28,1.74-7.1.63-13.67-3.31-19.76-.09-.16-.16-.38-.16-.57,0-.57.47-1.07,1.07-1.07.09,0,.22.03.32.03l14.14,4.23c.57.19,1.01.6,1.26,1.14v.03Zm-6.44,2.08c-.28-.22-.47-.19-.6.16-2.59,7.16-.6,11.21,6.03,12.12.85.13,1.2-.25,1.07-1.07-.82-4.61-3-8.33-6.47-11.21h-.03Zm-34.88,45.77c.16,1.01,1.07,1.77,2.08,1.77.57,0,1.1-.22,1.48-.6,9.03-8.81,38.57-36.36,33.74,2.81-.09.76-.47,1.42-1.07,1.89-3.31,2.53-6.72,4.36-8.93,7.99-3.25,5.3-7.7,16.26-13.1,19-6.75,3.44-22.28,1.93-30.14,1.86-33.36-.32,3.69-51.58,8.43-61.17,2.49-5.02,3.12-17.49,10.95-19.13,3.79-.79,7.16-.03,10.16,2.3.63.51,1.04,1.17,1.2,1.96,3.06,14.8-16.98,29.42-14.84,41.35l.03-.03ZM87.11,230.71l10.38,4.07c.22.09.41.25.54.47,1.99,3.38,1.86,6.63-.44,9.72-.63.85-1.67,1.29-2.75,1.1-25.5-4.32-48.83.57-69.98,14.61-.76.51-1.77.47-2.49-.09-2.97-2.3-3.76-5.24-2.37-8.77.22-.6.63-1.07,1.23-1.36,20.33-10.29,34.81-31.47,43.05-52.11,10.07-25.22,19.35-50.57,27.84-75.97.51-1.52,2.02-2.43,3.63-2.21,6.6.95,12.18,3.82,16.76,8.59.57.6.66,1.48.28,2.21-13.45,24.08-38.63,69.69-26.89,98.54.22.54.66.95,1.17,1.17l.03.03ZM622.91,62.03c3.16-4.13,5.08-6.72,10.73-6.98,10.79-.47,21.21,1.14,31.25,4.86,1.58.57,2.56,2.18,2.4,3.85l-1.26,11.99c-.13,1.07.25,1.96,1.1,2.62l6.88,5.4c.76.63,1.23,1.55,1.23,2.56,0,1.8-1.48,3.25-3.25,3.25-.25,0-.51-.03-.76-.09-24.94-6.22-28.06,15.02-31.31,33.11-.16.88-.98,1.52-1.89,1.45-11.58-.95-19-7.39-22.88-18.43-5.33-15.31-2.75-29.86,7.73-43.62l.03.03Zm5.9,1.2c-7.7,8.52-11.36,17.93-10.95,28.22.47,12.28,3.5,22.98,16.13,26.89.85.25,1.36-.06,1.55-.92,3.79-17.52,6.53-32.67,27.46-34.4.76-.06.88-.38.32-.92l-2.4-2.4c-.63-.6-.88-1.36-.76-2.24l1.55-11.87c.13-.73-.19-1.23-.88-1.48-7.67-2.75-25.79-7.83-32.04-.88h.03ZM99.51,99.75c11.65-19.92,28.03-53.12-9.25-58.9-.63-.09-1.07-.63-1.07-1.26,0-.16.03-.32.09-.47,2.24-5.56,6.38-8.84,12.85-8.11,19.16,2.05,37.72,2.27,55.68.63,2.46-.22,4.86.69,6.57,2.43,20.9,21.59,35.64,52.43,56.66,88.22,7.16,12.18,15.53-6.09,17.14-11.02.38-1.23,1.52-2.05,2.81-2.05.41,0,.82.09,1.2.25,11.96,5.4,16,14.27,12.18,26.61-6.47,20.83-12.22,34.28-3.63,52.33,5.21,10.98,10.01,21.46,14.39,31.41,1.89,4.32.82,9.41-2.68,12.53l-38.92,34.94c-.16.13-.32.25-.51.38-1.86,1.23-4.39.69-5.62-1.17-.13-.19-.22-.35-.32-.57-2.37-5.21-2.56-12.63-3.31-16.57-7.58-40.56-33.68-146.71-78.47-161.13-1.99-.63-4.1.38-4.86,2.3-1.83,4.58-6.82,16.16-11.43,18.46-5.87,2.97-15.69-2.71-19.32-7.16-.47-.57-.54-1.42-.16-2.08h-.03Zm580.49-44.38c-5.78-13.57-40.31-15.37-52.43-14.08-2.78.28-6.09,2.34-9.91,6.12-17.11,16.98-22.22,37.43-15.34,61.3,4.61,16.07,15.21,25.66,31.75,28.75,12.63,2.4,55.14,2.97,40.53-23.42-.28-.51-.73-.85-1.26-.98l-14.49-3.72c-.63-.16-.95-.57-.98-1.2-.19-4.17,2.53-5.84,6.53-5.65,11.39.57,27.52.13,48.39-1.39,4.89-.35,7.2,2.11,6.98,7.42-.03.69-.35,1.23-.95,1.61-21.49,13.32-26.7,26.96-18.81,51.48.41,1.23-.03,1.89-1.36,1.93l-6.79.16c-.6,0-1.17-.28-1.52-.79-15.81-24.46-41.35-14.17-63.76-7.45-7.16,2.15-14.74,1.14-22.76-3.06-35.26-18.34-48.32-47.22-39.27-86.61,9.53-41.44,59.28-47.79,92.86-35.13,15.06,5.68,25.76,6.34,37.97-4.26.6-.51,1.36-.79,2.11-.79,1.23,0,2.37.69,2.9,1.8l3.91,8.02c.41.88.32,1.74-.28,2.49-7.86,9.6-12.63,20.58-14.27,32.98-.16,1.04-.73,1.58-1.8,1.61l-5.84.22h-.03c-.88,0-1.64-.73-1.64-1.64,0-.16.03-.32.06-.44,1.58-5.49,1.39-10.57-.6-15.25l.06-.03Zm-291.43,150.91c4.48,15.75,26.36,25.41,37.81,37.18.57.57.82,1.39.66,2.21-1.14,5.74-5.78,5.4-10.35,3.72-27.9-10.13-72.38-14.49-98.23,4.07-.79.54-1.7.85-2.65.85-1.99,0-3.79-1.33-4.36-3.25-2.05-6.72,12.31-14.58,16.73-18.72,21.78-20.48-22.51-100.15-34.85-118.62-2.65-3.98-6.79-6-12.44-6.06-.69,0-1.39.25-1.89.79-7.1,7.58-17.45-2.65-19.92-9.28-.54-1.42-.22-3.03.82-4.13,6.94-7.39,13.13-15.37,18.62-23.96,7.07-11.02-.19-21.46-9.6-28.09-5.52-3.88-15.78-7.89-14.96-13.86.41-2.97,3.09-5.18,6.09-4.99,14.65.88,29.48,2.34,44.47,4.36,6.15.82,11.39-.32,17.2-1.86.19-.06.41-.09.6-.13,2.59-.35,5.02,1.52,5.37,4.1.03.19.03.41.03.63.06,12.85-.09,30.93,6.34,42.64,23.14,42.04,41.32,86.17,54.48,132.38Zm83.39-138.98c-1.93-4.04-5.78-9.15-10.7-10.2-18.56-4.04-36.17-10.61-52.87-19.7-5.74-3.16-6.82-8.08-1.1-11.87.63-.41,1.29-.54,2.02-.32,27.74,7.54,55.49,9.6,83.27,6.25,13-1.58,15.81,5.46,17.77,16.95,2.11,12.34,3.57,25.66,7.35,37.02,7.2,21.62,17.45,41.76,30.77,60.38,2.81,3.95,1.96,9.31-4.13,7.99-17.61-3.82-28.31-6.75-47.85-2.02-7.01,1.7-8.52-5.21-8.46-10.83.35-25.76-4.99-50.28-16.07-73.64v-.03ZM738.43,10.81c-12.06,3.98-16.38,16.95-13,28.69.19.6.57,1.07,1.1,1.42l17.11,9.85c.79.44,1.23,1.1,1.36,2.02,3.25,23.07,10.13,68.21-5.05,87.56-3.31,4.23-9.34,6.15-13.95,9.37-.66.47-.98,1.26-.88,2.05,2.43,15.72,4.45,28.57,23.93,28.85.79,0,1.48-.25,2.11-.73,15.43-12.53,29.61-20.52,50.03-16.63,20.58,3.88,28.5-12.97,20.01-30.43-.35-.69-.88-1.2-1.64-1.45-4.92-1.67-8.55-3.79-9.82-9.34-5.78-25.5-1.77-50.75.35-75.75.06-.85.51-1.64,1.17-2.18l13-10.48c.54-.44.66-.98.41-1.61-6.75-16.57-12.25-25.95-31.94-21.27-13.92,3.28-27.87,3.44-41.92.44-5.46-1.17-9.6-1.29-12.4-.35l.03-.03Zm.63,16.32c1.74-2.65,4.17-3.6,7.32-2.9,17.23,3.95,34.31,3.66,51.26-.79,5.24-1.36,8.9-.51,10.23,4.99.19.69-.13,1.45-.73,1.83-7.1,4.67-10.83,10.35-11.14,17.11-1.07,22.85-9.91,79.48,11.3,93.05,3.5,2.24,5.65,5.49,2.62,8.96-.57.63-1.26.88-2.11.69-22.73-4.8-42.71.25-59.94,15.15-1.2,1.04-2.97,1.1-4.26.16-2.24-1.64-3.38-3.82-3.31-6.6,0-.76.32-1.33.95-1.74,31.15-20.45,21.65-72.41,18.34-102.99-1.1-10.29-9.82-17.45-18.65-21.08-1.48-.6-2.49-2.08-2.49-3.69,0-.76.22-1.52.63-2.18v.03Zm-265.01,177.89c-2.4,1.17-3.91,3.16-4.58,5.9-.19.69-.82,1.2-1.55,1.2h-3.25c-.98-.03-1.74-.88-1.7-1.86v-.06l1.14-12.78c.03-.19.06-.38.13-.54.41-1.26,1.8-1.99,3.06-1.55.19.06.35.16.54.25,6.69,4.1,20.2,2.53,27.93,2.49.41,0,.82-.13,1.17-.35l2.43-1.64c.57-.38,1.26-.6,1.96-.6,1.83,0,3.38,1.45,3.5,3.28l.69,11.96v.09c0,.76-.63,1.39-1.39,1.39h-.03l-4.07-.06c-.88-.03-1.36-.47-1.42-1.36-.16-3-1.74-4.83-4.64-5.49-.03,0-.06,0-.13-.03-.6-.06-1.14.35-1.2.92v.13l-.06,34.25c0,.79.35,1.39,1.07,1.77.35.19.63.28.82.32.82.13,1.55.54,2.08,1.17,1.17,1.42.95,3.57-.47,4.77-.63.54-1.45.82-2.27.79h-19.66c-.92,0-1.42-.44-1.55-1.36l-.38-3.09c-.13-.95.22-1.64,1.07-2.11l1.48-.79c.85-.47,1.29-1.2,1.29-2.21v-33.62c0-.09,0-.19-.03-.32-.16-.73-.92-1.17-1.64-1.01-.09.03-.19.06-.28.09l-.06.06Zm173.29,33.02l.66-12.44c.06-1.07-.47-1.61-1.55-1.61h-5.33c-1.01,0-1.55-.51-1.55-1.55v-3.76c0-.85.41-1.26,1.26-1.26l20.01-.06h.06c1.33.03,2.4,1.14,2.37,2.46v.06l-1.01,27.59c-.03.82-.66,1.48-1.45,1.55-2.71.22-4.39-1.04-5.05-3.85-.13-.44-.54-.76-.98-.76-.19,0-.38.06-.54.16-20.01,12.44-39.17,2.59-38.54-20.52.57-19.32,19.92-33.3,38.54-24.46,1.52.73,2.81,1.01,3.79.88.57-.09,1.17,0,1.7.22,1.58.66,2.34,2.46,1.7,3.95-.22.51-.6.95-1.07,1.29l-11.58,7.73c-1.58,1.07-3.76.66-4.86-.92-.98-1.42-1.07-2.94-.25-4.55.28-.57.16-1.29-.32-1.74-13-12.69-19.35,33.36,2.68,32.7.76-.03,1.17-.41,1.23-1.17l.06.03Zm-119.66-22.69c24.68-16.38,22.35,11.84,22.09,24.84-.03.76.28,1.52.85,2.05,1.48,1.45,2.18,3.19,2.05,5.21-.03.95-.82,1.7-1.77,1.74l-15.53.32c-.98.03-1.61-.44-1.89-1.39-.57-1.96-.16-3.72,1.26-5.27.6-.63.88-1.39.88-2.27l-.03-17.55c0-.76-.44-1.42-1.14-1.74-2.43-1.07-4.73-.73-6.91,1.07-.51.41-.79.95-.79,1.61v17.14c0,.66.25,1.29.69,1.74,1.36,1.39,1.93,3.09,1.64,5.08-.13.79-.6,1.2-1.39,1.23l-16.1.38c-1.04.03-1.45-.47-1.26-1.52,2.56-12.5,3.16-25.16,1.8-38-.09-.92-.51-1.64-1.26-2.15-1.1-.76-1.55-1.86-1.26-3.31.19-.92.85-1.67,1.74-1.96l15.78-5.24c.88-.28,1.48,0,1.8.88.6,1.83.19,3.31-1.2,4.39-.57.44-.85,1.01-.88,1.74l-.41,10.32c-.03,1.01.38,1.23,1.2.69l.03-.03Zm231.21-.19c23.29-16.38,22.92,11.43,22.28,25.57-.03.85.28,1.58.98,2.11,1.55,1.2,2.02,2.87,1.42,4.99-.28.98-.95,1.48-1.99,1.48h-16c-.76,0-1.45-.54-1.58-1.29-.41-1.99.09-3.66,1.52-5.02.69-.66,1.04-1.48,1.04-2.43l-.03-16.76h0c0-1.74-1.42-3.16-3.16-3.16-.28,0-.6.03-.88.13l-3.31.95c-.88.25-1.52,1.1-1.52,2.02v17.2c0,.28.09.57.25.79l2.49,3.44c1.99,2.78,1.29,4.17-2.11,4.17h-15.69c-.88,0-1.67-.6-1.93-1.45-.66-2.18-.19-3.88,1.39-5.11.79-.63,1.2-1.45,1.23-2.49l.28-29.92c0-.76-.28-1.42-.88-1.93l-1.89-1.64c-.51-.44-.82-1.1-.82-1.8,0-1.04.66-1.96,1.64-2.27l16.76-5.4c.16-.06.32-.06.47-.06.69,0,1.29.44,1.52,1.1.63,2.02.06,3.57-1.64,4.61-.66.44-1.07,1.17-1.07,1.96v9.53c0,.98.41,1.17,1.2.6l.03.09Zm111.93-15.34c4.04-1.23,8.05.09,8.9,2.94s-1.74,6.15-5.78,7.39-8.05-.09-8.9-2.94,1.74-6.15,5.78-7.39Zm-139.32,41.32h3.79c1.17,0,2.15.98,2.15,2.15,0,.54-.19,1.04-.57,1.45-5.21,5.71-20.99,9.56-21.08-2.87-.06-6.91-.06-13.86-.06-20.8.03-.79-.32-1.36-1.04-1.7l-2.02-.98c-.85-.41-1.14-1.07-.85-1.99,1.17-3.79,9.82-7.73,12.81-12.63.51-.82,1.39-1.29,2.34-1.29,1.48,0,2.68,1.17,2.75,2.65l.22,5.97c.03.63.54,1.14,1.17,1.14h3.41c.79,0,1.23.41,1.26,1.2.28,3.95-1.36,5.97-4.89,6.03-.69.03-1.04.38-1.04,1.07l.03,19.1c0,.85.69,1.55,1.55,1.55l.09-.03Zm225.87,1.64c5.81-.13,10.16,2.27,13,7.16.44.76.57,1.64.35,2.49-3.41,13.38-31.19,13.95-27.97.47.19-.73.57-1.36,1.14-1.86l2.02-1.74c.22-.22.38-.54.38-.85,0-.63-.54-1.17-1.17-1.17-.13,0-.28.03-.38.06-3.72,1.48-6.66.6-8.81-2.62-.63-.95-.41-1.58.69-1.93l9.06-2.68c1.26-.35,1.29-.79.06-1.33-21.53-9.19-6-31.72,13.41-27.71.79.16,1.33-.13,1.55-.92,1.26-4.2,4.2-6.03,8.87-5.49.63.06,1.1.57,1.17,1.17.28,3.09-.85,5.37-3.41,6.79-.35.19-.54.54-.54.92,0,.25.09.47.25.66,11.77,13.76,1.8,21.46-10.01,26.92-.32.13-.51.44-.51.79,0,.47.38.85.85.85h.03-.06Zm-.82-8.21c2.21-.63,2.84-5.27,1.42-10.23-1.42-4.96-4.45-8.52-6.66-7.89s-2.84,5.27-1.42,10.23,4.45,8.52,6.66,7.89Zm-2.18,16.82c-1.55,2.34-1.36,4.29.51,5.84.28.22.63.35.98.35.85,0,1.58-.73,1.58-1.58,0-.13-.03-.25-.03-.38l-.95-3.88c-.13-.51-.6-.88-1.14-.88-.38,0-.76.19-.98.54h.03Zm-264.6-28.57c-.16-1.86-1.2-3.06-3.12-3.6-.69-.19-1.39-.06-1.99.28l-6.34,4.01c-.51.32-1.07.47-1.67.47-1.7,0-3.12-1.42-3.12-3.12,0-.41.06-.79.22-1.17l3.63-9.09c.35-.85,1.33-1.26,2.18-.92l3.85,1.55c.6.22,1.2.25,1.83.09,7.16-2.05,13.19-.22,17.99,5.49.44.51.69,1.17.69,1.83l.06,21.75c0,.69.25,1.33.73,1.83,1.42,1.48,2.18,3.25,2.27,5.27.03.63-.41,1.2-1.01,1.36-5.33,1.36-10.38.98-15.21-1.1-.92-.38-1.8-.35-2.68.09-21.78,11.33-30.52-25.12.51-23.8h.06c.63,0,1.14-.57,1.14-1.2v-.06.03Zm-.47,17.08l.73-8.68v-.09c0-.6-.47-1.07-1.04-1.14l-.54-.06c-2.81-.22-5.33,1.93-5.59,4.77l-.06.57c-.22,2.84,1.89,5.37,4.7,5.62l.54.06h.09c.6,0,1.07-.47,1.14-1.04h.03Zm115.65-4.32c4.42,5.65,9.28,6.25,14.58,1.77.51-.41,1.1-.66,1.77-.66,1.55-.03,2.84,1.2,2.87,2.78.03.63-.19,1.26-.57,1.8-11.39,15.02-35.95,10.54-35.51-10.7.44-21.91,27.24-27.65,35.45-6.98.76,1.93.19,3.28-1.77,4.04l-16.29,6.25c-.95.38-1.14.98-.51,1.77l-.03-.06Zm-2.11-8.24l5.78-1.83c.69-.22,1.1-.98.88-1.67l-.09-.32c-1.2-3.72-3.98-6.22-6.19-5.52h0l-.32.09c-2.21.69-3.03,4.36-1.83,8.11l.09.32c.19.57.69.95,1.29.95.16,0,.28-.03.41-.06l-.03-.06Zm-228.87,8.59c4.51,5.33,9.41,5.74,14.74,1.23.92-.79,2.27-.76,3.12.06,1.48,1.39,1.61,3.06.38,4.99-1.14,1.77-3.5,3.57-7.07,5.33-15.15,7.54-29.32-2.11-27.74-19.19,1.93-20.8,26.26-23.7,34.94-5.3.03.03.03.06.06.09.73,1.7-.06,3.69-1.77,4.42-.03.03-.06.03-.13.06l-16,6.15c-1.17.44-1.36,1.17-.54,2.11v.03Zm-2.9-8.59l7.07-2.02c.28-.09.44-.38.35-.63l-.19-.69c-1.14-3.95-3.88-6.69-6.09-6.06h-.03c-2.21.63-3.12,4.42-1.99,8.36h0l.19.69c.06.22.25.38.51.38.06,0,.09,0,.16-.03h.03Zm274.76-1.7l-.22,15.47c0,.41.41.98,1.26,1.74.35.28.79.51,1.36.6,1.39.32,2.37,1.55,2.37,2.97,0,1.64-1.33,3-2.97,3.03l-17.14-.19c-.73-.03-1.17-.38-1.33-1.07-.47-2.34,0-4.36,1.48-6.03.54-.6.82-1.36.82-2.18v-14.83c0-.69-.54-1.29-1.26-1.36-1.96-.16-3.06-.95-3.31-2.4-.19-1.01.22-2.11,1.2-3.35,1.86-2.34,3.79-4.64,5.71-6.88.57-.63,1.55-.73,2.21-.22l6.22,4.83c.69.54,1.29.44,1.77-.25,3.35-4.92,8.36-6.22,15.12-3.88.95.32,1.29.98.98,1.93l-3.19,9.72c-.22.66-.88,1.1-1.58,1.07l-7.64-.51c-1.23-.06-1.86.51-1.89,1.74l.03.06Zm19.35,14.27v-18.4c0-.66-.28-1.2-.82-1.61l-1.17-.88c-.19-.16-.38-.35-.54-.54-.73-1.04-.47-2.53.57-3.25.22-.16.44-.25.69-.32l13.98-4.04c.98-.28,1.45.06,1.45,1.07v29.07c0,.63.25,1.17.73,1.58,1.61,1.39,2.11,3.22,1.45,5.49-.28.95-.92,1.42-1.93,1.39l-15.91-.41c-.95-.03-1.7-.79-1.7-1.74,0-.25.06-.51.16-.76l2.87-6.06c.09-.19.16-.41.16-.6Zm41.41-24.21c5.59-4.8,14.14-7.48,19.22-1.67,4.29,4.92,2.56,19.85,2.56,26.61,0,.79.35,1.52.95,1.99,1.83,1.45,2.37,3.31,1.55,5.62-.25.73-.95,1.23-1.74,1.2l-16.13-.25c-1.61-.03-2.08-.79-1.45-2.27l2.59-6.06c.06-.13.06-.25.06-.41v-18.43c-.09-.92-.95-1.58-1.83-1.48-.06,0-.13.03-.19.03l-5.59,1.33c-.79.19-1.2.69-1.2,1.55v17.58c0,.69.25,1.26.79,1.74,1.83,1.58,2.21,3.47,1.14,5.68-.35.73-.95,1.1-1.77,1.07l-15.81-.44c-1.7-.06-2.24-.88-1.58-2.43l2.05-5.02c.28-.73.44-1.48.44-2.24v-17.71c0-.69-.32-1.33-.82-1.77-.98-.82-1.48-1.8-1.48-2.97,0-1.1.73-2.05,1.8-2.37l13.48-3.72c.13-.03.25-.06.41-.06.76,0,1.39.63,1.39,1.39v2.94c0,1.07.41,1.26,1.26.57l-.09.03Z"/>
  </g>
</svg>