<?xml version="1.0" encoding="UTF-8"?>
<svg id="Layer_2" data-name="Layer 2" xmlns="http://www.w3.org/2000/svg" viewBox="0 0 1014.03 996.3">
  <defs>
    <style>
      .cls-1 {
        stroke-width: 0px;
      }
    </style>
  </defs>
  <g id="Layer_1-2" data-name="Layer 1">
    <path class="cls-1" d="m146.79,633.43c-16.57-122.63,26.43-249.83,113.41-336.82,53.01-53.05,115.44-88.51,187.21-106.41-28.55-72.95,4.66-166.14,87.74-186.9,7.35-1.84,25.51-4.75,34.95-2.47,8.27,1.96,13.91,6.5,17.37,11.66.35.6,10.55,19.17-5.55,31.43-2.25,1.71-13.5,10.24-14.96,11.19-.03.03-.1.06-.06.06-13.59,9.03-22.06,20.98-23.1,33.81-.98,12.39,5.36,24.72,18.09,34.98,31.31,25.26,62.81,31.02,98.52,42.53h0c52.19,16.83,96.93,39.26,134.26,67.08,44.93,33.49,72.44,64.14,99.15,108.15h0c24.18,39.86,45.19,87.55,53.39,130.59,18.89,98.61,12.17,211.71-29.63,304.27-7.8,17.27-17.94,45.16-18.51,69.97-.25,11.19.76,21.9,8.37,28.39,17.84,15.21,46.04,10.05,63.31-3.23.03-.03.1-.06.13-.1,4.53-3.45,10.08-5.29,15.75-5.29,9.98,0,19.14,5.74,23.48,14.74v.03c5.07,10.49,5.32,21.52-.06,33.08-18.51,39.67-46.11,70.44-92.09,76.21-27.19,3.42-65.12-11.22-84.61-25.22h-.03c-12.1-8.71-24.84-21.39-38.44-25.22-16.92-4.69-30.71.82-44.62,7.22-13.12,6.05-26.24,13.15-40.59,18.35h0c-77.29,27.92-162.28,34.98-243.84,28.58-113.44-8.94-208.98-73.96-269.32-169.18h0c-6.02-9.51-10.84-19.65-16.29-29.09-5.23-9.09-10.77-17.81-21.93-21.86h-.03c-17.59-6.4-40.75-8.71-55.93,3.11-19.52,15.21-32.04,34.89-37.52,59.07,0,.03-.03.1-.03.13-2.54,10.87-8.59,15.53-11.72,17.46-.06.03-.1.06-.13.1-.35.19-.67.41-1.01.57-12.9,7.07-29.38,2.28-36.47-10.68-.16-.32-.32-.6-.48-.92v-.03c-18.66-37.55-19.68-78.43-4.31-117.5,21.01-53.46,76.69-93.39,136.04-91.74l.06-.1Zm129.73-320.53c-88.19,88.19-128.4,220.2-102.32,343.6.25,1.24-.22,1.87-1.49,1.84-4.47-.03-10.39-.48-17.84-1.27-52.95-5.89-103.97,29.12-122.6,76.53-12.93,32.83-12.2,67.24,3.49,98.8.03.03.03.1.06.13,1.01,1.84,3.36,2.54,5.17,1.52.06-.03.1-.06.13-.1.51-.32.95-1.33,1.36-3.04,6.72-29.53,21.99-53.58,45.82-72.15,21.23-16.51,53.46-15.53,78.02-6.56,28.01,10.2,35.17,37.2,49.78,60.3,56.44,89.08,145.58,150.2,251.67,158.54,78.33,6.18,159.96-.48,234.21-27.28,34.32-12.42,61.16-36.73,99.25-26.11,15.97,4.47,31.5,18.47,45.73,28.71,15.78,11.34,46.26,23.83,68.26,21.07,37.42-4.69,59-30.8,74.06-63.06,2.19-4.66,2.25-9.09.19-13.31-.51-1.05-1.55-1.71-2.73-1.71-.67,0-1.3.22-1.84.6-25.16,19.33-66.32,24.69-92.34,2.5-31.69-27-10.52-93.01,4.09-125.39,39.9-88.35,46.01-196.34,27.98-290.46-7.76-40.56-27.7-85.43-50.48-122.98-25.1-41.35-50.99-70.13-93.23-101.62-35.46-26.43-77.98-47.63-127.58-63.63-38.5-12.39-72.15-19.3-105.9-46.52-39.39-31.75-33.84-79,6.69-105.93h0c1.49-.98,14.16-10.65,14.16-10.65-3.36-5.04-21.23-1.2-27.57.38-77.86,19.42-101.91,115.69-60.52,177.96.25.35.38.79.38,1.2,0,1.08-.76,2-1.81,2.19-78.65,14.39-146.08,49.69-202.27,105.9h.03Zm529.19,538.7c-2.22.67-3.64,2.47-3.17,4.02s2.66,2.28,4.88,1.62,3.64-2.47,3.17-4.02c-.48-1.55-2.66-2.28-4.88-1.62Zm-104.22-78.9c1.11,2.57,1.2,5.36.35,8.33-.03.1-.03.16-.03.25,0,.48.41.89.89.89h.03l3.2-.13c.57-.03.89-.32.98-.89.89-6.78,3.49-12.8,7.8-18.03.35-.41.38-.86.16-1.36l-2.15-4.37c-.29-.6-.92-.98-1.58-.98-.41,0-.82.16-1.17.44-6.69,5.77-12.52,5.42-20.76,2.31-18.35-6.91-45.54-3.45-50.73,19.2-4.94,21.52,2.22,37.3,21.45,47.31,4.37,2.28,8.52,2.82,12.45,1.68,12.23-3.68,26.17-9.32,34.83,4.06.19.29.51.44.82.44l3.71-.06c.73-.03.95-.38.73-1.05-4.31-13.4-1.46-20.85,10.27-28.14.32-.19.51-.51.51-.89.13-2.88-1.14-4.25-3.83-4.06-11.41.82-20.22,1.08-26.43.76-2.19-.1-3.68.79-3.55,3.07,0,.35.19.57.54.67l7.92,2.03c.29.06.54.29.7.54,7.99,14.42-15.24,14.1-22.15,12.8-9.06-1.71-14.83-6.94-17.37-15.72-3.77-13.06-.95-24.21,8.4-33.49,2.09-2.06,3.9-3.2,5.42-3.33,6.62-.7,25.51.29,28.65,7.7h-.03Zm-159.2,82.45c-7.19-25.22-17.11-49.34-29.76-72.31-3.52-6.4-3.42-16.26-3.45-23.29,0-.13,0-.22-.03-.35-.19-1.43-1.52-2.44-2.95-2.25-.13,0-.22.03-.35.06-3.17.82-6.02,1.46-9.38,1.01-8.21-1.11-16.29-1.9-24.3-2.38-1.65-.1-3.11,1.11-3.33,2.73-.44,3.26,5.13,5.42,8.18,7.57,5.13,3.61,9.09,9.32,5.23,15.34-2.98,4.69-6.37,9.03-10.17,13.09-.57.6-.73,1.49-.44,2.25,1.33,3.61,7,9.22,10.87,5.07.29-.29.63-.44,1.05-.41,3.07.03,5.36,1.14,6.81,3.33,6.75,10.08,30.93,53.62,19.04,64.8-2.41,2.28-10.27,6.56-9.13,10.24.32,1.05,1.3,1.77,2.38,1.77.51,0,1.01-.16,1.46-.48,14.13-10.14,38.44-7.76,53.68-2.22,2.5.92,5.04,1.11,5.64-2.03.1-.44-.06-.89-.35-1.2-6.27-6.43-18.22-11.69-20.66-20.31l-.03-.03Zm15.84-47.03c-1.17-6.53,9.76-14.48,8.11-22.59-.1-.44-.32-.79-.67-1.08-1.65-1.27-3.49-1.71-5.55-1.27-4.28.89-4.63,7.7-5.99,10.46-2.57,5.26-22.85,33.24-4.59,33.43,4.28.03,12.77.86,16.48-1.01,2.95-1.49,5.39-7.48,7.16-10.36,1.2-1.96,3.07-2.98,4.88-4.37.32-.25.54-.63.6-1.05,2.63-21.42-13.5-6.34-18.44-1.52-.22.22-.51.35-.82.35-.57,0-1.05-.41-1.14-.95l-.03-.03Zm35.43-142.72c2.12.76,5.74,1.39,6.37,1.36,6.37-.29,9.41-3.77,10.93-6.75,1.93-2.73,3.42-6.72,1.39-12.33-.03-.1-.06-.16-.1-.25-4.69-12.26-14.16-16.07-25.95-15.81-.92,0-1.84.13-2.69.32-1.39-.79-3.04-1.39-5.1-1.77-4.4-.79-8.52-.86-12.36-.32h0c-10.77,1.55-20.85,4.02-30.52,7.42l-4.59-14.93c-.22-.73.03-1.17.79-1.27,13.21-1.93,80.08-9.16,91.48-8.94.67,0,1.2.51,1.3,1.17,1.49,12.3,6.31,22.75,14.35,31.37,7.48,8.02,18.19,11.53,28.68,13.28,5.07.82,9.06-.41,14.64-2.06,16.35-4.85,26.49-16.1,30.42-33.72,5.61-25.16,2.95-66.51-25.7-77.79-23.07-9.06-48.23.54-64.99,18.22-.38.38-80.04-7.99-79.92-8.87,0,0,27.76-176.88,28.42-176.88l220.55.57c.6,0,.22,70.09-.03,70.09l-146.37,1.08c-.98,0-8.65,49.72-8.49,49.66,14.99-5.96,30.29-9.89,45.92-11.79,3.52-.44,6.94-.16,10.39-.86,15.37-3.2,42.49,5.36,57.01,12.23,45.12,21.36,66.17,67.4,55.83,116.96-4.82,23.1-13.88,43.89-29.41,60.65-.25-.06-.51-.13-.76-.19-4.53-1.05-9.51-.16-14.23,2.98-3.42,2.28-6.91,6.34-9.38,9.44-1.74-.86-3.64-1.36-5.61-1.46l-7.19-.41h-.03c-3.14-.16-6.24.7-8.84,2.44-1.96-.54-4.34-.63-7.16.1-1.62.41-3.42,1.11-5.36,2-3.45-3.96-8.87-6.37-15.75-5.96-5.42.32-12.36,2.79-16.98,4.75-1.05-1.24-2.31-2.31-3.77-3.17-.63-.38-1.33-.73-2.03-1.01-5.42-2.19-10.46-1.81-14.8.54-1.49-.41-3.26-.63-5.29-.51h-.1l-11.47.73c0,.22,0,.48-.06.7-.38,1.74-2.57,2.76-4.85,2.25-1.55-.35-2.76-1.3-3.23-2.44l-2.38.16h-.06c-1.2.1-2.34.32-3.45.67-1.52-.82-3.3-1.36-5.48-1.52-1.68-.13-5.7.19-11.25,3.26,0,0-.03,0-.03.03-1.49.82-3.3,1.87-5.45,3.11-1.93-3.77-5.39-6.72-9.7-7.76-6.53-1.62-12.42-1.36-18.41,1.62-2.28-1.52-4.98-2.41-7.86-2.41-2,0-3.93.41-5.77,1.2-.16.06-.29.13-.44.19-4.75-4.02-9.19-8.62-13.82-13.5-.19-.19-.29-.44-.29-.7,0-.57.44-1.01.98-1.01.06,0,.13,0,.19.03,4.78.98,7.32-2.34,7.51-6.08,3.14-1.58,7.29-3.39,12.39-5.51.82-.13,2.47-.38,3.64-.67.19.13.38.25.57.35l12.68,7.35s.06.03.1.06c.22.13.51.25.82.38.32.16.67.32,1.05.44-.32-.13-.6-.25-.92-.41v-.09Zm-.13-.03c-1.39-.67-2.47-1.46-3.33-2.22,1.11.89,2.25,1.68,3.42,2.28-.03,0-.1-.03-.13-.03l.03-.03Zm151.15,194.63c-.44.32-.67.19-.67-.35v-5.2c0-.44.22-.82.6-1.08.95-.57,1.24-1.39.89-2.5-.13-.35-.44-.6-.82-.6-.1,0-.19,0-.25.03l-9.16,2.95c-.54.19-.89.67-.89,1.24,0,.38.16.73.44.98l1.05.89c.32.29.48.63.48,1.05l-.16,16.35c0,.57-.22,1.01-.67,1.36-.86.67-1.11,1.58-.76,2.79.13.48.57.79,1.05.79h8.56c1.87,0,2.25-.76,1.17-2.28l-1.36-1.87c-.1-.13-.16-.29-.13-.44v-9.38c0-.51.35-.95.82-1.11l1.81-.51c.16-.03.32-.06.48-.06.95,0,1.71.76,1.71,1.71h0v9.16c0,.54-.19.95-.57,1.33-.76.73-1.05,1.65-.82,2.73.1.41.44.7.86.7h8.75c.57,0,.92-.29,1.08-.82.35-1.14.06-2.06-.76-2.73-.38-.29-.54-.67-.54-1.14.35-7.73.54-22.91-12.17-13.97Zm-163.86-78.02c-.13-.29-.38-.51-.7-.63l-7.73-2.31c-.06,0-.1-.03-.16-.03-.32,0-.57.25-.57.57,0,.1.03.22.1.32,2.15,3.33,2.76,6.94,1.81,10.81,0,.06-.03.1-.03.16,0,.38.32.67.67.67h0c3.36-.06,6.21,1.08,8.59,3.39.29.29.67.44,1.08.44.86,0,1.55-.7,1.55-1.55,0-.19-.03-.38-.1-.57l-4.5-11.28v.03Zm37.55,78.11c-.44.32-.67.19-.67-.38l.22-5.64c.03-.38.19-.7.48-.95.76-.6.98-1.39.67-2.41-.16-.48-.48-.67-.98-.48l-8.62,2.85c-.48.16-.86.57-.95,1.08-.16.79.06,1.39.7,1.81.41.29.63.67.7,1.17.76,7,.41,13.94-.98,20.76-.13.57.13.82.7.82l8.78-.22c.44,0,.7-.22.76-.67.16-1.08-.13-2.03-.89-2.79-.25-.25-.38-.6-.38-.95v-9.35c0-.35.13-.67.41-.89,1.17-.98,2.44-1.17,3.77-.57.38.16.63.54.63.95v9.6c0,.48-.16.89-.48,1.24-.79.86-1.01,1.81-.7,2.88.16.51.51.76,1.05.76l8.49-.16c.51,0,.95-.41.98-.95.06-1.11-.32-2.06-1.11-2.85-.32-.29-.48-.7-.48-1.11.13-7.1,1.43-22.5-12.07-13.56h-.03Zm115.47-102.8c-.22.35-.35.76-.35,1.17,0,.89.54,1.68,1.36,2.03,4.82,1.96,9.6,5.89,10.2,11.5,1.81,16.7,7,45.09-10.01,56.25-.35.22-.51.54-.51.95-.03,1.52.6,2.69,1.81,3.61.7.51,1.68.48,2.31-.1,9.41-8.14,20.31-10.9,32.73-8.27.44.1.82-.03,1.14-.38,1.65-1.87.48-3.68-1.43-4.88-11.6-7.42-6.75-38.34-6.18-50.83.16-3.68,2.22-6.78,6.08-9.35.35-.22.51-.63.41-1.01-.73-2.98-2.73-3.49-5.58-2.73-9.25,2.44-18.6,2.6-28.01.44-1.71-.38-3.04.13-3.99,1.58Zm-349.36,39.67c-.22.35-.16.82.1,1.14,2,2.44,7.35,5.55,10.55,3.93,2.5-1.27,5.26-7.57,6.24-10.08.41-1.05,1.58-1.58,2.66-1.27,24.46,7.89,38.72,65.88,42.87,88.03.41,2.15.51,6.21,1.81,9.06.03.1.1.19.16.32.67,1.01,2.06,1.3,3.07.63.1-.06.19-.13.25-.19l21.26-19.08c1.93-1.71,2.5-4.5,1.46-6.84-2.41-5.42-5.01-11.15-7.86-17.14-4.69-9.89-1.55-17.21,2-28.58,2.09-6.75-.13-11.6-6.65-14.54-.22-.1-.44-.13-.67-.13-.7,0-1.33.44-1.52,1.11-.86,2.69-5.45,12.68-9.35,6.02-11.47-19.55-19.52-36.41-30.93-48.2-.92-.95-2.25-1.46-3.58-1.33-9.82.89-19.96.76-30.42-.35-3.55-.38-5.8,1.39-7.03,4.44-.03.1-.06.16-.06.25,0,.35.25.63.6.7,20.34,3.17,11.41,21.29,5.04,32.2v-.1Zm299.26,75.51c-.03.41-.25.63-.67.63-12.04.35-8.59-24.81-1.46-17.87.25.25.32.63.16.95-.44.89-.41,1.71.13,2.5.6.86,1.81,1.08,2.66.51l6.34-4.25c.25-.16.48-.41.57-.7.35-.82-.06-1.81-.95-2.15-.29-.13-.63-.16-.92-.13-.54.06-1.24-.1-2.09-.48-10.17-4.85-20.76,2.79-21.07,13.34-.35,12.61,10.11,18,21.04,11.19.1-.06.19-.1.29-.1.25,0,.48.16.54.41.35,1.52,1.27,2.22,2.76,2.09.44-.03.79-.41.79-.86l.54-15.08v-.03c0-.73-.57-1.33-1.3-1.36h-.03l-10.93.03c-.48,0-.7.22-.7.7v2.06c0,.57.29.82.82.82h2.92c.57,0,.86.29.82.89l-.35,6.78.1.09Zm-306.05-3.99c-.29-.13-.51-.35-.63-.63-6.43-15.78,7.35-40.69,14.67-53.84.22-.38.16-.89-.16-1.2-2.5-2.6-5.55-4.18-9.16-4.69-.86-.13-1.71.38-1.96,1.2-4.63,13.88-9.7,27.73-15.21,41.51-4.5,11.28-12.42,22.85-23.51,28.46-.32.16-.54.41-.67.73-.76,1.93-.32,3.55,1.3,4.78.38.32.95.32,1.36.06,11.53-7.67,24.27-10.33,38.22-7.99.57.1,1.17-.13,1.49-.6,1.27-1.68,1.33-3.45.25-5.29-.06-.13-.16-.22-.29-.25l-5.67-2.22-.03-.03Zm211.39-14.04c.06-.03.1-.03.16-.06.41-.1.79.16.89.54,0,.06.03.13.03.16v18.35c0,.54-.22.95-.7,1.2l-.82.41c-.48.25-.67.63-.6,1.14l.22,1.68c.06.51.35.76.82.76h10.74c.44,0,.89-.13,1.24-.44.79-.67.92-1.84.25-2.6-.29-.35-.7-.57-1.14-.63-.1-.03-.25-.06-.44-.19-.38-.19-.6-.54-.6-.95l.03-18.7v-.06c.03-.32.35-.54.67-.51h.06c1.58.35,2.44,1.36,2.54,3.01.03.48.29.73.76.73l2.22.03h0c.41,0,.76-.35.76-.76v-.06l-.38-6.53c-.06-1.01-.89-1.81-1.9-1.81-.38,0-.76.13-1.08.32l-1.33.89c-.19.13-.41.19-.63.19-4.25,0-11.6.89-15.27-1.36-.1-.06-.19-.1-.29-.13-.7-.22-1.43.16-1.68.86-.03.1-.06.19-.06.32l-.63,6.97v.03c-.03.54.41.98.92,1.01h1.77c.41,0,.76-.29.86-.67.35-1.52,1.2-2.57,2.5-3.23l.13.1Zm-1.14-75.23c6.05,12.77,8.97,26.17,8.78,40.24-.03,3.04.79,6.84,4.63,5.89,10.68-2.57,16.51-.98,26.14,1.11,3.33.73,3.8-2.22,2.25-4.37-7.29-10.17-12.9-21.17-16.83-32.99-2.06-6.21-2.85-13.47-4.02-20.22-1.05-6.27-2.6-10.11-9.7-9.25-15.18,1.84-30.33.7-45.47-3.39-.38-.13-.76-.06-1.11.19-3.11,2.06-2.54,4.75.6,6.46,9.13,4.98,18.76,8.56,28.87,10.77,2.69.57,4.82,3.36,5.83,5.58l.03-.03Zm-221.34-469.81c-.22.22-2.19,1.36-5.86,3.39-4.12,2.28-7.61,3.45-10.39,3.45-.67,0-2-.25-3.99-.79s-3.58-.79-4.78-.79c-5.42,0-9.95,1.9-13.59,5.7s-5.48,8.4-5.48,13.82c0,5.1,1.77,9.73,5.29,13.88,3.61,4.37,7.92,6.59,12.96,6.65,15.34.29,26.27-1.46,32.83-5.29-1.14,0-3.9-.06-8.37-.16s-5.7-.16-3.83-.16c-.38,0-.82-.25-1.36-.73s-.79-.92-.79-1.3c0-1.2,1.58-2.15,4.72-2.82,2.09-.44,4.06-.67,5.86-.67,9.86,0,16.41-3.96,19.74-11.85.82-1.96,1.24-3.42,1.24-4.4-2.34,2.57-4.91,4.47-7.8,5.77-1.27.6-3.99,1.46-8.11,2.6,1.14-1.74,3.23-4.18,6.31-7.35s5.2-5.77,6.31-7.83c1.74-3.01,2.6-6.37,2.6-10.08,0-7.03-3.07-14.48-9.25-22.34.98,2.44,1.68,4.28,2.15,5.48,1.2,3.14,1.81,5.7,1.81,7.76,0,1.58-.41,2.76-1.24,3.42-4.82-17.37-16.16-26.05-34.06-26.05-1.36,0-3.71.19-7.1.57-3.99.44-6.15.86-6.43,1.24,2.63.22,4.44.38,5.42.44,10.01.89,15.02,2.63,15.02,5.2,0,.98-3.64,2.06-10.93,3.26,4.12,1.36,6.46,2.03,7,2.03,1.74,0,3.64-.57,5.77-1.68s3.68-1.68,4.72-1.68c2.25,0,4.09,1.17,5.55,3.49,1.27,1.96,1.93,4.15,1.93,6.56,0,1.87-.44,2.82-1.36,2.82-.67,0-1.65-.95-2.95-2.82-.89-1.43-1.58-2.47-2.03-3.17-.16.54-.22,1.05-.22,1.58,0,3.17,1.46,6.08,4.34,8.81s5.93,4.15,9.09,4.28c-.16,2.03-.67,4.15-1.58,6.31-1.05,2.85-2.25,4.56-3.61,5.07-.92-.89-1.36-2.19-1.36-3.83,0-.76.25-1.93.73-3.49s.73-2.69.73-3.39c-.76.32-1.58,1.11-2.54,2.44s-1.49,2.41-1.65,3.33c-.54,3.17-.67,5.86-.44,8.11.22,1.96-.6,4.15-2.47,6.56s-3.8,3.61-5.77,3.61c-1.27,0-2.44-.25-3.49-.79-1.36-.67-2.03-1.58-2.03-2.69,0-1.81,1.62-3.64,4.85-5.51,4.5-2.69,7.13-7.99,7.89-15.88l.03-.1Zm0,0s.03-.03,0-.03v.03Zm425.57,556.32c0-.67.35-.98,1.05-.95l4.18.29c.38.03.73-.22.86-.57l1.74-5.32c.16-.54,0-.89-.54-1.05-3.68-1.27-6.43-.57-8.27,2.12-.25.38-.6.44-.98.13l-3.39-2.63c-.35-.29-.89-.25-1.2.13-1.05,1.24-2.09,2.47-3.14,3.77-.54.67-.76,1.27-.67,1.84.16.79.76,1.24,1.81,1.3.38.03.7.35.7.73v8.11c0,.44-.16.86-.44,1.17-.82.92-1.08,2-.82,3.3.1.38.32.57.73.6l9.38.1c.89-.03,1.62-.76,1.62-1.65,0-.76-.54-1.46-1.3-1.62-.32-.06-.57-.16-.76-.35-.48-.41-.7-.73-.7-.95l.13-8.46.03-.03Zm10.55,7.8c0,.13-.03.22-.06.35l-1.58,3.33c-.06.13-.1.25-.1.41,0,.51.41.95.92.95l8.68.22c.54,0,.89-.25,1.05-.76.35-1.24.1-2.25-.79-3.01-.25-.22-.41-.51-.41-.86v-15.88c0-.54-.25-.76-.79-.6l-7.64,2.22c-.13.03-.25.1-.38.19-.57.38-.7,1.2-.32,1.77.1.13.19.22.29.29l.63.48c.32.22.44.51.44.89v10.05l.06-.03Zm22.63-13.25c-.44.38-.7.29-.7-.32v-1.62c0-.41-.35-.76-.76-.76-.06,0-.16,0-.22.03l-7.38,2.03c-.57.16-.98.7-.98,1.3s.29,1.17.82,1.62c.29.25.44.6.44.98v9.66c0,.41-.1.82-.25,1.24l-1.11,2.73c-.35.86-.06,1.3.86,1.33l8.65.25c.44.03.76-.19.95-.57.57-1.2.38-2.25-.63-3.11-.29-.25-.41-.57-.41-.95v-9.6c0-.44.22-.73.67-.82l3.07-.73s.06,0,.13-.03c.51-.06.95.32,1.01.79v10.05c0,.06,0,.16-.03.22l-1.39,3.33c-.35.82-.06,1.24.79,1.24l8.81.13c.41,0,.79-.25.95-.67.44-1.27.16-2.28-.86-3.07-.32-.25-.51-.67-.51-1.08,0-3.68.95-11.85-1.39-14.54-2.79-3.17-7.45-1.71-10.49.92l-.03.03Zm16.22-246.69l-19.39,9.92v9.25h-7.13v14.1h7.13v17.78c0,5.64.54,9.73,1.65,12.23s2.79,4.4,5.07,5.64,5.83,1.84,10.65,1.84c4.15,0,8.62-.51,13.4-1.55l-1.43-13.34c-2.57.82-4.56,1.24-5.99,1.24-1.58,0-2.69-.54-3.33-1.62-.41-.7-.6-2.12-.6-4.28v-17.9h10.65v-14.1h-10.65v-19.2h-.03Zm19.87,0v69.65h19.33v-24.24c0-4.59.73-7.76,2.19-9.54s3.36-2.66,5.7-2.66c2.12,0,3.77.67,4.94,1.96s1.74,3.55,1.74,6.72v27.73h19.42v-32.07c0-6.62-1.52-11.53-4.53-14.74-3.01-3.2-7.16-4.78-12.42-4.78-3.55,0-6.62.57-9.22,1.74s-5.2,3.11-7.83,5.83v-25.67h-19.33v.06Zm-411.19,80.36l6.34,5.96c.38.35.79.41,1.24.22,4.98-2.22,9.06-6.5,12.23-8.75,9.09-6.53,18.25-12.99,27.47-19.33,22.56-15.5,44.71-25.07,71.43-28.8,2.63-.38,5.45-.29,8.46.25.89.16.89.35.03.6-1.55.44-3.39.35-4.75.89-10.81,4.34-18,7.8-21.58,10.3-19.27,13.63-35.97,28.61-50.13,44.97-10.27,11.85-18.35,21.04-24.24,27.57-3.26,3.61-8.4,12.55-11.91,14.51-3.33,1.84-4.94-1.68-4.31-4.44.95-4.37,2.28-8.43,1.27-12.9-.92-3.99-1.84-9.25-5.32-11.91-.38-.32-.95-.32-1.33,0-4.18,3.07-11.41,8.81-21.71,17.21-9.6,7.83-22.44,15.78-38.44,23.92-1.93.98-23.61,10.43-44.24,7.83-5.36-.67-11.09-1.39-16.1-3.3-9.22-3.49-10.36-10.46-8.9-19.2.1-.51-.06-.92-.48-1.27-6.5-5.13-11.63-11.28-12.14-19.87-.25-4.18,1.3-15.69,5.74-22.28,5.89-8.75,11.47-13.66,17.9-17.62,7.89-4.82,12.9-7,20.15-9.47,8.33-2.85,19.01-2.54,27.09-6.72,15.24-7.95,30.67-12.74,46.23-14.35,6.72-.7,26.02,1.36,29.66,9.09,5.39,11.41.19,27.92-9.6,35.65-.48.38-.51.79-.03,1.2l-.03.03Zm-130.84,21.36c0,.57-.32,3.83-.29,3.96.6,5.99.57,11.57,6.69,14.01.35.13.51.03.51-.35-.06-7.8,4.94-21.1,9.28-27.63,7.73-11.63,16.92-20.19,27.73-29.95,1.43-1.3,2.79-2.15,4.34-3.11,3.52-2.12,3.23-2.76-.76-1.96-18.54,3.71-45.41,24.24-47.5,44.93,0,.03,0,.06,0,.1Zm10.77,28.39c6.69,21.29,41.54,15.37,55.26,8.75,8.59-4.12,19.04-10.49,31.43-19.11,10.96-7.64,23.29-18.19,35.24-27,.44-.32.51-.73.19-1.2l-3.61-5.13c-.6-.86-1.58-1.36-2.63-1.36-.82,0-1.65.32-2.25.92-19.52,19.17-37.58,32.04-63.95,39.55-16.54,4.72-31.82,7.16-48.26,3.04-.1-.03-.19-.03-.29-.03-.67,0-1.24.54-1.24,1.24,0,.13.03.25.06.38l.03-.03Zm136.39-17.4c.32-.16.67-.35,1.05-.54.32-.16.6-.44.89-.79,12.36-16,26.36-31.62,42.15-44.27,8.9-7.13,17.33-15.37,27.35-21.1,5.48-3.14,11.12-6.24,16.86-9.25.32-.16.51-.51.51-.86,0-.54-.44-.98-.98-.98-.1,0-.16,0-.25.03-14.58,3.93-27.47,9.51-40.59,18.06-18.44,11.98-37.2,25.86-52.32,41.92-.48.51-.63,1.08-.44,1.74l4.15,15.34c.13.51.57.86,1.08.86.19,0,.38-.06.54-.16h.03Zm34.35-43.86c.73-.86.57-1.05-.44-.57-5.07,2.47-9.79,5.48-14.16,9.03-.44.35-.41.63.16.79,6.43,1.9,10.52-4.5,14.45-9.28v.03Zm-167.82,53.2c4.12,1.84,7.61,3.8,12.2,4.12,38.56,2.85,69.05-22.09,96.05-46.3.29-.25.29-.51,0-.79-6.88-6.24-13.25-12.07-21.9-15.97-12.2-5.48-20.85-9.28-33.27-8.94-9.57.25-30.01,20.69-36.22,28.14-6.43,7.8-18.82,27.92-17.65,38.63.06.51.32.86.79,1.08v.03Zm57.99-70.73c21.58,2.88,36.35,9.57,55.74,23.86.38.29.95.25,1.3-.06,8.18-7.22,15.08-17.97,7.03-28.46-9.79-12.8-54.19-7.1-64.39,3.77-.03.03-.06.1-.1.13-.13.25,0,.57.25.7.06.03.1.03.16.06Zm196.72-19.11l13.02,7.35c.1.06.19.1.32.1.35,0,.63-.29.63-.63,0-.06,0-.16-.03-.22-2.41-6.18-7.7-7.38-13.78-7.26-.19,0-.35.16-.35.35,0,.13.06.25.19.32Zm180.24,93.07c.03.06.06.1.06.16.44.76,1.43,1.01,2.19.6.06-.03.1-.06.16-.1,13.25-9.73,27.03-20.03,38.15-32.2.32-.35.73-.6,1.17-.7,2.44-.6,16.19-6.91,16.57-6.78.48.16.79.57.79,1.08,0,.32-.13.6-.35.79-10.55,10.33-20.95,20.31-31.21,30.01-.63.57-1.55,2.03-2.82,4.37-.22.44-.22.82.1,1.24,1.55,2,3.52,1.39,5.23-.13,13.66-12.07,28.01-23.26,43.13-33.53,2.31-1.55,5.01-2.31,7.54-3.39.89-.38.98-.22.25.41-7.76,6.75-14.64,14.8-24.08,20.41-5.29,3.14-8.71,6.72-12.87,10.84-1.68,1.65-4.06,2.06-5.42,3.77-4.53,5.67-10.68,7.64-18.44,5.83-.48-.13-.82-.38-1.08-.82-.89-1.62-.67-3.2.63-4.78.13-.16.22-.35.25-.54.1-.6-.35-1.14-.95-1.24-.19-.03-.41,0-.6.06l-18.22,8.05c-.48.22-1.01.32-1.52.32-2.06,0-3.77-1.71-3.77-3.77v-4.88c0-.7-.35-1.05-1.05-1.05-2.95-.03-5.77.92-8.49,2.85-8.18,5.89-21.77,11.03-31.37,4.94-11.95-7.57,13.97-18.44,18.32-20.28,2.92-1.27,4.72-3.71,7.92-4.94.44-.16.79-.44,1.08-.79,3.14-4.09,6.75-7.64,10.81-10.68,2.31-1.71,4.21-3.55,5.74-5.45,2.54-3.17,8.05-11.12,12.64-10.08.48.1.82.54.82,1.05,0,.29-.13.54-.32.76-5.36,5.42-13.18,12.39-15.43,19.58-2.44,7.7-4.63,13.85-9.32,20.5-.16.22-.25.48-.25.73-.03.73.57,1.36,1.3,1.39.25,0,.51-.06.76-.19,7.38-4.4,13.97-11.15,20.22-15.97,3.39-2.63,6.65-5.42,9.79-8.37,3.71-3.52,22.18-13.75,26.59-9.41.25.25.41.63.41,1.01,0,.73-.57,1.33-1.3,1.39-3.39.29-5.83.03-8.75,1.93-10.11,6.53-18.85,13.47-26.21,20.79-1.87,1.87-8.9,10.36-9.03,13.63-.03.7.06,1.24.22,1.62v-.06Zm-40.94.03c7.61,1.71,11.95-.57,17.11-6.56,5.13-5.93,10.84-11.76,13.15-19.46.03-.1.03-.16.03-.25,0-.41-.29-.76-.67-.86l-3.04-.76c-.44-.13-.82.03-1.11.41-2.92,3.93-5.48,7.99-9.44,10.9-5.32,3.9-13.56,7.48-17.52,12.49-.35.44-.54,1.01-.54,1.58,0,1.2.82,2.25,2,2.5h.03Zm-159.33-30.01c-.06.03-.16.03-.25,0-.22-.06-.38-.29-.32-.51.03-.1.06-.16.13-.22l9.66-8.87c.32-.29.48-.67.48-1.08,0-.79-.63-1.43-1.43-1.43-.19,0-.41.03-.6.13-5.01,2.09-8.71,4.25-12.96,7.95-8.52,7.48-17.11,14.89-25.79,22.25-5.01,4.25-11.19,7.32-16.79,11.15-.41.29-.41.54,0,.82.79.54,1.55.63,2.34.25,5.45-2.6,10.96-5.36,16.48-8.18,1.27-.63,1.52-.38.76.82l-3.45,5.55c-.16.22-.22.51-.22.79,0,.82.67,1.49,1.49,1.49.22,0,.48-.06.67-.16.54-.29,1.14-.73,1.81-1.33,11.12-10.55,23.42-22.18,36.44-29.44,5.99-3.33,12.3-6.31,18.85-8.87.16-.06.29-.06.44-.03.48.06.79.51.7.98-.03.16-.1.29-.19.41-3.64,4.21-7.07,7.64-11.98,11.15-7.92,5.64-21.77,14.64-17.94,26.08.25.76.92,1.3,1.71,1.39,10.27,1.27,15.02-5.36,23.32-9.44.1-.06.19-.06.29-.06.35,0,.67.29.67.67v.13l-1.33,7.13c-.1.44.19.92.63,1.01,8.75,2.25,20.19-4.78,27.25-9.51.1-.06.19-.1.29-.1.29,0,.51.22.51.51,0,.06,0,.13-.03.19-.92,2.38-1.14,4.85-.67,7.35.19.95.95,1.71,1.93,1.84,4.78.67,9.28-.13,13.53-2.38,17.4-9.16,32.2-21.42,44.4-36.73.06-.06.13-.16.16-.25.54-.95.22-2.15-.7-2.69-.1-.06-.16-.1-.25-.13-3.01-1.17-5.45.54-7.22,3.14-6.15,9.06-39.39,36.7-47.15,36.63-.76,0-.98-.35-.67-1.01,3.36-7.35,15.97-19.87,25.13-24.97,5.64-3.14,10.77-7.1,15.43-11.79.76-.76.6-1.11-.48-1.05l-22.56,1.36c-.92.06-1.65.82-1.65,1.77,0,.82.54,1.52,1.33,1.71,3.68.92,8.43-2.73,11.28-.98.32.19.51.54.51.92,0,.44-.25.82-.63.98-10.55,4.78-18.6,9.76-28.8,17.18-7.16,5.2-13.53,9.57-21.61,10.49h-.03c-.57.06-1.11-.38-1.17-.95v-.03c-.35-5.36,7.13-9.76,10.87-12.42,6.91-4.91,12.04-9.86,16.76-15.31,3.99-4.63,3.3-5.48-2.09-2.6-1.58.86-3.52,1.93-5.83,3.23-4.5,2.54-8.33,6.37-12.3,9.73-5.55,4.66-12.14,8.46-17.97,13.21-6.05,4.91-9.57,7.13-16.64,8.05h-.19c-.86,0-1.55-.7-1.55-1.55,0-.22.03-.44.13-.63,3.26-7.26,11.53-13.37,20.03-19.39,5.86-4.12,9.38-7.48,10.46-14.16.13-.86-.41-1.71-1.27-1.9-4.21-1.01-7.95-.79-11.88,1.77-6.34,4.12-13.06,7.42-20.25,9.92Zm-57.7,4.09c-1.2.67-1.27.6-.16-.25l16.57-12.68c.19-.16.32-.38.32-.63,0-.44-.38-.82-.82-.82h-.16c-15.31,3.17-26.08,18.22-37.14,29.22-1.52,1.52-2.82,4.94-3.9,10.27-.1.44.1.76.54.89,1.84.63,3.42.22,4.72-1.27,7.48-8.49,13.21-14.8,22.97-20.88,9.35-5.83,18.63-11.53,27.82-17.11.22-.13.44-.19.7-.19.73,0,1.36.6,1.36,1.36,0,.22-.06.44-.16.63-1.77,3.33-4.21,6.05-7.35,8.24-6.69,4.66-12.93,9.86-18.73,15.62-4.12,4.12-6.12,7.92-4.31,13.53.32.95,1.24,1.62,2.25,1.62,1.3,0,2.38-1.08,2.38-2.38v-.06c-.38-8.49,14.32-18.66,22.02-23.92,5.29-3.61,8.43-8.94,9.38-16,.06-.41-.13-.63-.54-.73-16.07-2.57-25,8.43-37.77,15.56Zm198.88-10.96c.25.13.41.38.41.67,0,.22-.1.41-.25.57-4.34,3.93-9.25,7-14.67,9.22-.22.1-.44.29-.57.51-.32.54-.13,1.27.44,1.55.22.13.48.16.73.13,8.37-1.36,14.23-5.89,17.52-13.56.19-.41.16-.92-.1-1.3-3.39-5.36-18.95,1.71-22.09,3.3-5.7,2.88-36.85,27.06-25.89,36.57,6.81,5.89,16.64-.98,22.59-4.12.6-.32.92-.73.98-1.24v-.13c0-.63-.54-1.17-1.17-1.17-.19,0-.38.06-.57.13-3.68,1.93-7.26,3.83-10.81,5.64-.76.41-1.46.6-2.12.57-.95-.03-1.65-.29-2.15-.73-1.71-1.55-2.03-4.15-.73-6.05,4.4-6.46,29.44-35.05,38.41-30.52l.03-.03Zm8.21,13.69c-1.24.6-1.33.48-.29-.44,4.09-3.64,8.3-7.13,12.61-10.49.92-.73,1.58-1.65,2-2.79.19-.51.03-.7-.51-.57-12.42,3.11-37.36,25.54-38.18,39.04v.06c0,.67.57,1.24,1.24,1.24.35,0,.67-.13.89-.38,13.59-14.26,28.65-26.49,45.12-36.76,2.09-1.3,5.2-1.52,9.35-.67.03.03.6-.16,1.3-.41,1.58-.54,1.96-1.65,1.11-3.26-.19-.35-.51-.54-.89-.57l-7.54-.44c-.35-.03-.7.1-.98.29-3.49,2.63-7.19,4.94-11.06,6.91-4.91,2.54-9.03,6.59-14.2,9.19l.03.06Zm148.62-11.44c.51-.51.79-1.17.79-1.9,0-1.46-1.2-2.66-2.66-2.66-.19,0-.35.03-.54.06-2.76.54-5.64,1.71-8.65,3.52-10.71,6.34-42.3,24.05-45.47,35.97-.03.16-.06.32-.06.51,0,1.11.92,2.03,2.03,2.03.6,0,1.17-.25,1.55-.73,11.79-14.39,28.36-24.46,43.6-35.59.82-.6,1.68-.98,2.54-1.11,2.06-.29,5.58,1.17,6.84-.06l.03-.03Zm-460.62-65.06c7.86-2.31,15.75-3.87,23.67-4.69h0c6.08-.63,20.19.48,29.72,4.66,6.56,2.88,11.28,7.29,13.56,12.14.86,1.81,1.52,3.71,2.03,5.67,6.65-2.73,13.5-5.13,20.44-7.57.54-.19,3.83-2.95,3.83-3.55.03-7.83-.1-189.56,1.11-274.17,0-.44-75.54-.41-75.64-.19-12.17,25.32-34.32,46.8-59.76,60.94-3.71,2.06-12.3,10.9-26.11,16.7-.98.41-2.03,71.71-2.03,74.37,0,.67,29.31-14.42,44.52-23.58,6.84-4.15,13.85-10.05,22.63-13.82.1-.03.22-.06.32-.06.44,0,.79.35.79.79v.03l.89,152.29.03.03Zm-69.81-356.02c-2.57,0-5.2,1.55-7.89,4.63-2.57,2.79-4.06,5.51-4.53,8.24,1.49-1.05,2.6-1.84,3.26-2.38,1.58-1.14,2.69-1.74,3.39-1.81.44,2.03.79,3.61,1.01,4.72,2.03-3.61,3.58-5.67,4.63-6.21l2.95-.44c1.49-.38,2.25-1.24,2.25-2.6,0-2.79-1.68-4.18-5.07-4.18v.03Zm9.73,10.62c-.54,0-.98.19-1.36.57,1.81.76,3.58,2.38,5.29,4.85,1.43,2.03,3.04,3.04,4.85,3.04,1.36,0,2.73-.44,4.12-1.3s2.09-1.93,2.09-3.2c0-2.63-1.24-3.96-3.71-3.96-1.05,0-2,.54-2.88,1.58s-1.49,1.58-1.87,1.58c-.44,0-1.49-.54-3.11-1.58s-2.76-1.58-3.45-1.58h.03Zm-49.81,78.59c.63.03,1.87,1.27,3.68,3.71,1.39,1.87,2.5,3.52,3.36,4.98,2.47,4.4,4.15,9.16,5.01,14.26,0,1.77.03,3.04.13,3.83v.92c0,5.1-1.87,8.59-5.58,10.46-1.08.54-4.5,1.27-10.2,2.22-3.71.63-5.58,2.06-5.58,4.28v9.41c0,.38.13,1.58.35,3.61l.35,3.71c0,1.17-.29,3.04-.82,5.67-1.46.32-3.17.67-5.1,1.05-.63-2.31-.92-3.9-.92-4.75,0-.38.1-.95.29-1.74s.29-1.36.29-1.74c0-.54-.48-2.06-1.46-4.53h-1.81c-.25.38-.32.89-.25,1.52.32,1.33.41,2.44.35,3.36-1.33.92-3.14,2.15-5.45,3.71-.54-.16-.73-.22-.57-.22v-8.24c-.16-.38-.54-.54-1.17-.48h-1.39l-1.39,10.9c-1.08.06-2.41.06-3.96,0-.54-2.57-1.52-6.34-2.92-11.38h-.92c-.86,2.73-1.33,4.18-1.39,4.4,0,.32.1.92.29,1.81s.29,1.49.29,1.81c0,.22-.06.82-.22,1.74l-.35,2.79c-.16.16-.35.22-.57.22-2.31,0-3.87-.57-4.63-1.74s-1.08-2.79-.92-4.88l.92-13.91c0-.22.06-.54.22-.92s.22-.67.22-.82c0-.63-.67-1.87-1.96-3.71-.22-.06-1.43-.35-3.61-.82-1.33-.32-3.9-.86-7.76-1.62-5.32-1.01-8.02-5.29-8.02-12.87,0-11.28,4.63-20.69,13.91-28.2.38,2.09,1.05,4.88,1.96,8.37.7.16,2.22.51,4.53,1.05.48.16,2.82,1.01,7.07,2.57-2.15-1.33-5.01-3.45-8.46-6.37-1.33-1.55-1.96-4.15-1.96-7.76,0-.86,1.46-1.87,4.4-3.01,2.63-1.08,4.59-1.71,5.93-1.87,4.18-.54,7.38-.82,9.63-.82,9.66,0,17.49,2.47,23.45,7.42-1.93,2.25-5.26,4.63-9.98,7.19,1.87.06,4.56-.67,8.11-2.22,3.49-1.52,5.01-2.28,4.56-2.31h.06Zm-27.89,30.86c-2.63,2.73-3.96,7.07-3.96,13.12,0,3.33.32,5.39.92,6.15.63-.16,1.3-.44,2.09-.82.32-.16,1.2-.22,2.66-.22s3.23.48,5.32,1.39c.76,0,1.17-2.09,1.17-6.27v-3.61c-.54-1.01-1.08-2.06-1.62-3.14-.48-1.55-1.3-3.71-2.57-6.5l-1.27,13.56c0,1.08-.22,1.62-.7,1.62-.32,0-.54-.06-.7-.22-.54-8.21-.82-11.76-.82-10.68v-4.06c-.16-.22-.35-.35-.57-.35l.03.03Zm22.97-14.86c-3.26,0-6.27,1.49-9.13,4.47s-4.25,6.08-4.25,9.35c0,2.69,1.3,4.06,3.96,4.06h13.34c5.04-.06,7.54-2.03,7.54-5.83,0-3.11-1.17-5.89-3.49-8.37s-5.01-3.68-8.02-3.68h.03Zm-41.07-.13c-2.95,0-5.55,1.24-7.76,3.74s-3.36,5.26-3.36,8.3c0,2.66,1.27,4.37,3.83,5.13,1.62.48,3.9.73,6.84.82h6.37c5.17.06,7.76-1.27,7.76-4.06,0-3.33-1.46-6.46-4.34-9.47s-6.02-4.47-9.35-4.47Zm-28.3,175.49c-3.11,4.21-4.69,7.29-4.69,9.25,0,1.01.6,2.09,1.84,3.26,1.52,1.36,2.41,2.34,2.6,2.95.73,1.68.67,3.96-.22,6.84,1.96,1.39,3.45,2.06,4.47,2.06,2.09,0,3.14-1.08,3.14-3.26,0-.22-.1-.92-.29-2.06s-.22-1.81-.16-1.96c.29-1.01,2.28-1.52,5.99-1.52,2.31,0,7.13.67,14.45,1.96-1.58.44-3.99,1.08-7.16,1.96-2.92.86-4.34,1.84-4.34,2.95,0,.51.19,1.36.54,2.6s.54,2.12.54,2.73c0,1.01-.67,1.96-1.96,2.82l-3.71,2.6c.86,1.58,1.46,2.54,1.74,2.82.73.86,1.71,1.3,2.95,1.3.86,0,1.68-.76,2.38-2.28s1.87-2.28,3.49-2.28c1.96,0,4.18,1.81,6.62,5.45,1.36,2.03,3.52,5.1,6.4,9.25-5.64-3.2-9.28-4.78-10.87-4.78-1.17,0-2.06.89-2.73,2.66s-1.96,2.66-3.93,2.66c-.79,0-2.44-.29-4.88-.86-1.36,2.09-2.06,3.45-2.06,4.02,0,.79.6,1.74,1.77,2.82s2.19,1.62,3.01,1.62c.51,0,1.24-.1,2.12-.32s1.49-.32,1.77-.32c.89,0,1.33,1.62,1.33,4.88s-.73,7.89-2.19,14.35c-1.9-7.38-3.87-11.09-5.99-11.09-.29,0-.89.22-1.81.67s-1.58.63-2,.63c-2.09,0-3.99-1.93-5.64-5.77-3.33.51-5.01,2.22-5.01,5.1,0,1.46.67,2.6,2.03,3.49s2,1.49,2,1.84c0,1.96-2.85,4.98-8.59,9.03-3.04,2.19-5.13,3.71-6.31,4.56,1.01-1.3,2.03-3.01,3.04-5.1,1.17-2.41,1.74-4.25,1.74-5.55,0-.73-.82-1.74-2.5-3.04s-2.5-2.69-2.5-4.12c0-1.24.44-2.76,1.3-4.56-.95-1.08-2.06-1.65-3.36-1.65-2.92,0-4.34.95-4.34,2.82v2.95c.06,2.41-1.74,3.58-5.45,3.58-2.82,0-7.57-.67-14.23-1.96,7.54-1.87,11.31-4.06,11.31-6.53,0,.29-.16-.57-.44-2.6-.29-2.25,1.3-4.28,4.78-6.08-.67-3.33-2.38-5.01-5.23-5.01-.44,0-1.24.76-2.41,2.28s-2.25,2.28-3.26,2.28c-1.74,0-3.99-1.87-6.75-5.64-1.3-1.87-3.3-4.66-5.99-8.37,1.68.89,3.33,1.74,5.01,2.6,2.19,1.01,3.9,1.52,5.23,1.52,1.01,0,2-.89,2.98-2.66s2.28-2.66,3.87-2.66c.22,0,1.68.44,4.34,1.3,1.36-2.09,2.06-3.68,2.06-4.69,0-.86-.54-1.87-1.58-2.98s-2-1.68-2.88-1.68c-.35,0-.92.1-1.68.32s-1.33.32-1.68.32c-1.3,0-1.96-1.65-1.96-4.88,0-.86.82-5.83,2.5-14.89-.06,1.08.41,3.11,1.43,6.08,1.24,3.61,2.69,5.45,4.34,5.45.29,0,.86-.22,1.74-.67s1.55-.63,2.06-.63c1.68,0,3.04.95,4.12,2.82l1.62,2.95c1.52,0,2.79-.54,3.8-1.62s1.52-2.41,1.52-3.93-.67-2.82-2-3.64-2.03-1.46-2.03-1.9c0-1.52,2.38-4.09,7.16-7.73,3.83-2.88,6.34-4.59,7.51-5.1l.16-.03Zm-6.62,23.92c-4.72,0-8.78,1.68-12.17,5.07s-5.13,7.42-5.23,12.14c-.06,4.63,1.65,8.65,5.17,12.01s7.61,5.07,12.23,5.07c4.94,0,9.03-1.62,12.33-4.85s4.91-7.29,4.85-12.23c0-4.63-1.71-8.65-5.1-12.07s-7.42-5.1-12.07-5.1v-.03Zm0,1.84c-4.21,0-7.86,1.52-10.93,4.5s-4.63,6.62-4.63,10.81,1.52,7.89,4.56,10.87,6.72,4.47,10.96,4.47,8.11-1.46,11.09-4.34,4.47-6.56,4.47-10.96c0-4.12-1.55-7.73-4.63-10.77s-6.72-4.56-10.93-4.56h.03Zm237.44-366.13c3.71,0,6.94,1.49,9.76,4.44.86.92,1.27,1.39,1.43,1.62.25-.1.7-.19,1.46-.32,1.77-.35,3.07-.51,3.9-.51,2.88,0,5.45,1.08,7.67,3.23,1.93,1.93,3.26,4.37,3.99,7.32.51.06,1.33.29,2.44.67,1.62.82,2.44,2.22,2.44,4.21,0,.38-.29,1.08-.89,2.09,4.72,2.66,7.1,6.37,7.1,11.09,0,1.33-.51,3.17-1.55,5.55,1.93,1.11,2.88,2.73,2.88,4.88,0,1.49-.57,2.82-1.71,3.99s-2.47,1.77-3.93,1.77c-2.38,0-4.12-1.11-5.23-3.33l-5.2-.22c-1.11,0-3.3.48-6.56,1.46-3.49.95-5.48,1.74-5.99,2.31-.82.89-1.49,2.95-2,6.21-.44,2.66-.67,4.63-.67,5.89,0,2,.32,3.45.95,4.37s1.93,1.71,3.87,2.31c1.96.63,3.17.98,3.61,1.05.29,0,.76-.03,1.46-.13h1.33c.95,0,1.96.16,2.98.44,1.49.44,2.12,1.05,1.9,1.77-1.05-.16-2.85.06-5.45.67l3.11,1.55c0,.89-1.27,1.33-3.77,1.33-.67,0-1.58-.16-2.73-.44s-1.9-.44-2.28-.44h-1.46c-.06.73-.29,1.84-.67,3.33-1.27-.06-2.73-.82-4.44-2.22s-2.79-2.09-3.2-2.09c-.44,0-1.08.7-1.9,2.09s-1.24,2.38-1.24,2.88c-.95-.51-1.77-1.49-2.44-2.88-.29-.95-.63-1.93-.98-2.88-.73.06-2.12,1.62-4.12,4.66h-.57c-.16-.22-.7-1.77-1.68-4.66-2.28-.73-4.44-1.11-6.43-1.11-.95,0-2.44.22-4.44.67l-3.11-.22c.44-.44,1.74-1.3,3.9-2.57,2.5-1.49,4.44-2.22,5.77-2.22.22,0,.51.03.89.13s.67.13.89.13c.51,0,1.36-.29,2.5-.82s1.81-1.05,2-1.49.29-1.58.29-3.45c0-4.21-1.11-7.35-3.33-9.44-1.93-1.84-5.1-3.17-9.54-3.99-1.17,4.21-4.5,6.34-9.98,6.34-1.77,0-3.55-1.08-5.32-3.23s-2.66-4.12-2.66-5.89c0-2.73,1.14-5.01,3.42-6.78-1.84-1.93-2.76-3.87-2.76-5.86,0-1.84.57-3.49,1.71-4.88s2.63-2.22,4.5-2.44c-.16-2.38.63-3.99,2.34-4.88-.82-.82-1.24-2.25-1.24-4.31,0-2.44.82-4.47,2.44-6.12s3.68-2.44,6.12-2.44c2.66,0,4.85.92,6.56,2.79,2.15-7.32,6.78-11,13.88-11l-.03.03Zm-12.64,40.91c-2.06,0-3.99.48-5.77,1.43,3.93-.22,8.37,2.03,13.31,6.78v-1.46c0-1.71-.82-3.26-2.5-4.66s-3.36-2.09-5.04-2.09Zm9.09-14.29c.38,0,1.46.16,3.23.44v4.88l-3.23-3.68v-1.68.03Zm21.29,12.3c-1.49,1.05-2.98,2.09-4.5,3.17s-2.82,2.28-3.93,3.61c3.33-1.77,6.94-3.04,10.87-3.77,0,0-2.44-3.01-2.44-3.01Zm-8.65-12.3c2.44,1.11,4.12,1.84,5.01,2.22.16,2.88-1.52,5.32-5.01,7.32v-9.54Zm-19.08,4.88c-3.11.82-4.66,1.74-4.66,2.76.89-.06,2.19.1,3.9.51s2.92.6,3.68.6c-1.11-1.27-2.06-2.57-2.88-3.9l-.03.03Zm-212.79,199.54c-1.14,5.26-1.71,9-1.71,11.22,0,5.1,1.62,10.05,4.82,14.89,3.93,5.74,6.94,10.01,9,12.8,3.2,4.85,4.82,9.57,4.82,14.16,0,6.81-2.31,12.58-6.91,17.24-4.59,4.66-10.27,7.03-16.98,7.03-7.54,0-13.56-2.6-18-7.76-4.18-4.94-6.27-11.22-6.27-18.85,0-8.21,3.58-17.59,10.71-28.08,5.83-8.62,12.68-16.19,20.57-22.66h-.03Zm5.55,38.56c.25.51.38,1.2.38,2.09,0,1.71-.51,4.18-1.49,7.38l-1.58,4.94c0,2.88,1.43,4.31,4.31,4.31,3.04,0,4.56-2.03,4.56-6.05,0-2.06-.6-4.44-1.84-7.19s-2.66-4.56-4.31-5.48h-.03Zm495.13,381.15c-.48,0-.82-.38-.82-.82v-10.43c0-.38.19-.57.57-.6,1.93-.03,2.82-1.14,2.66-3.3-.03-.44-.25-.67-.7-.67h-1.87c-.35,0-.6-.29-.63-.63l-.13-3.26c-.03-.79-.7-1.46-1.52-1.46-.51,0-1.01.25-1.27.7-1.65,2.66-6.37,4.85-7,6.91-.16.48,0,.86.48,1.08l1.11.54c.38.19.57.51.57.92-.03,3.8,0,7.61.03,11.38.06,6.81,8.68,4.69,11.5,1.58.19-.22.32-.51.32-.79,0-.63-.54-1.17-1.17-1.17h-2.09l-.03.03Zm123.36.92c3.17-.06,5.55,1.24,7.1,3.93.25.41.32.89.19,1.36-1.87,7.32-17.05,7.61-15.27.25.1-.41.32-.73.63-1.01l1.11-.95c.13-.13.19-.29.19-.48,0-.35-.29-.63-.63-.63-.06,0-.16,0-.22.03-2.03.82-3.64.32-4.82-1.43-.35-.51-.22-.86.38-1.05l4.94-1.46c.7-.19.7-.44.03-.73-11.76-5.01-3.26-17.33,7.32-15.15.44.1.73-.06.86-.51.7-2.28,2.31-3.3,4.85-3.01.35.03.6.32.63.63.16,1.68-.48,2.92-1.87,3.71-.19.1-.29.29-.29.51,0,.13.03.25.13.35,6.43,7.51.98,11.72-5.48,14.7-.16.06-.29.25-.29.41,0,.25.22.48.48.48h.03v.03Zm-.41-4.5c1.2-.35,1.55-2.88.76-5.58s-2.44-4.66-3.64-4.31-1.55,2.88-.76,5.58c.79,2.73,2.44,4.66,3.64,4.31Zm-1.2,9.19c-.86,1.27-.76,2.34.29,3.2.16.13.35.19.54.19.48,0,.86-.38.86-.86,0-.06,0-.13-.03-.19l-.51-2.12c-.06-.29-.32-.48-.6-.48-.22,0-.41.13-.54.29v-.03Zm-144.53-15.59c-.1-1.01-.67-1.68-1.71-1.96-.38-.1-.76-.03-1.08.16l-3.49,2.19c-.29.16-.6.25-.92.25-.92,0-1.71-.76-1.71-1.71,0-.22.03-.44.13-.63l2-4.98c.19-.48.73-.7,1.2-.51l2.09.86c.32.13.67.16.98.06,3.93-1.14,7.19-.13,9.82,3.01.25.29.38.63.38,1.01l.03,11.88c0,.38.13.73.41.98.76.82,1.2,1.77,1.24,2.88,0,.35-.22.67-.54.73-2.92.73-5.67.54-8.3-.6-.51-.22-.98-.19-1.46.06-11.88,6.18-16.67-13.72.29-12.99h.03c.35,0,.63-.32.63-.67v-.03h-.03Zm-.29,9.35l.41-4.75v-.06c0-.32-.25-.6-.57-.6l-.29-.03c-1.55-.13-2.92,1.05-3.04,2.6l-.03.32c-.13,1.55,1.05,2.95,2.57,3.07l.29.03h.06c.32,0,.6-.25.6-.57Zm63.19-2.38c2.41,3.07,5.07,3.42,7.95.98.25-.22.6-.35.95-.38.86-.03,1.55.67,1.58,1.52,0,.35-.1.7-.32.98-6.24,8.21-19.65,5.77-19.39-5.83.25-11.95,14.89-15.12,19.36-3.83.41,1.05.1,1.81-.98,2.22l-8.9,3.39c-.54.22-.6.54-.29.98l.03-.03Zm-1.17-4.5l3.14-1.01c.38-.13.6-.54.48-.92l-.06-.19c-.67-2.03-2.19-3.39-3.39-3.01h0l-.19.06c-1.2.38-1.65,2.38-.98,4.44l.06.16c.1.32.38.51.7.51.06,0,.16,0,.22-.03h.03Zm-125.01,4.69c2.47,2.92,5.13,3.14,8.05.67.51-.41,1.24-.41,1.71.03.82.76.89,1.68.19,2.73-.63.98-1.9,1.93-3.87,2.92-8.27,4.12-16-1.17-15.15-10.49,1.05-11.38,14.35-12.93,19.08-2.88,0,.03.03.03.03.06.41.92-.03,2.03-.95,2.41-.03,0-.03.03-.06.03l-8.75,3.36c-.63.25-.73.63-.29,1.17Zm-1.58-4.69l3.87-1.11c.16-.03.22-.19.19-.35l-.1-.38c-.6-2.15-2.12-3.68-3.33-3.33h0c-1.2.35-1.71,2.41-1.08,4.56h0l.1.38c.03.13.16.19.29.19h.1l-.03.03Zm143.9-80.14c-4.59-.32-8.9-1.49-12.14-4.37-.1-.1-.13-.19-.13-.32,0-.22.19-.44.44-.44.06,0,.1,0,.16.03,3.99,1.65,7.99,2.57,11.88,2.88,2.25-20.57,20.53-36.09,46.39-28.27,3.14.95,6.56,2.54,9.86,3.2,7.86-6.43,16.38-14.51,25.6-24.15v-.06s-.03-.1-.1-.1h-.03c-7.19,3.87-12.52,7.73-21.04,7.95-1.58.06-2.98-1.17-3.11-2.79-.51-6.21,4.18-12.04,8.81-15.91,4.5-3.77,8.9-9.13,12.55-12.17,5.61-4.72,11.82-8.21,18.63-10.46.06-.03.16-.03.22-.03.41,0,.73.32.73.73,0,.22-.1.41-.25.54-12.42,10.46-25.1,20.09-34.83,32.83-.22.32-.35.67-.35,1.08,0,.79.54,1.49,1.33,1.68,9.51,2.31,38.69-26.08,46.01-32.83,2.25-2.06,6.84-4.44,9.28-4.06,1.46.25,1.62.79.41,1.68-7.19,5.2-13.5,11.22-19.01,18-9.38,11.57-20.91,23.54-32.42,33.87,2.38,1.55,3.8,3.8,4.25,6.75.06.41-.1.73-.41.98-5.48,3.77-8.27,9-8.37,15.69,0,.95-.41,1.74-1.17,2.34-1.39,1.08-2.63,1.08-3.71-.03-.32-.32-.41-.7-.32-1.14,1.11-4.44.79-10.77-2.92-13.63-2.82,2.41-5.7,4.63-9.06,6.37-7.95,4.12-16.32,8.59-25.03,11.28-.32,2.19-.35,4.47-.03,6.78,4.4,33.3,40.37,27.06,62.36,20.09.19-.06.38-.06.57,0,.48.16.73.67.57,1.14-.06.19-.19.35-.35.44-14.83,9.82-33.37,17.81-51.78,14.29-10.33-1.96-21.61-5.89-27.06-15.08-4.85-8.24-6.84-16.86-6.43-24.88l-.03.06Zm49.72-21.99c-7.67-.35-15.08-.67-20.82,5.7-2.88,3.17-4.88,6.53-5.96,10.08,7.83-3.2,15.31-7.86,22.34-12.61,1.46-.98,2.95-2.06,4.47-3.17h-.03Z"/>
  </g>
</svg>