<?xml version="1.0" encoding="UTF-8" standalone="no"?>
<svg xmlns="http://www.w3.org/2000/svg" width="480.55371pt" height="220.07518pt" viewBox="0 0 480.55371 220.07518" version="1.1">
  <path d="m 151.79487,61.916417 c 2.87,-0.54 5.86,-1.32 8.79,-0.65 2.07,1.18 0.85,3.6 0.4,5.34 -13.09,40.230003 -26.28,80.420003 -39.34,120.660003 -6.97,1.39 -13.87,3.29 -20.93,4.2 -5.239995,0.94 -7.779995,-4.47 -9.939995,-8.18 -9.27,-16.09 -18.57,-32.16 -27.88,-48.23 -1.21,-2.09 -2.25,-4.3 -3.86,-6.12 -6.72,20.13 -13.23,40.33 -19.87,60.49 -1.01,3.49 -2.91,6.99 -2.09,10.73 0.91,1.67 2.9,1.89 4.6,2.08 -0.24,0.51 -0.73,1.51 -0.97,2.01 -9.48,2.47 -19.19,4.03 -28.73,6.27 -3.3700001,0.59 -6.8600001,1.7 -10.2700001,0.87 -2.55000004,-0.86 -1.62000004,-4.11 -1.12000004,-6.01 11.71000014,-35.97 23.50000014,-71.91 35.20000014,-107.880003 0.58,-2 1.08,-4.15 0.48,-6.19 -0.88,-1.65 -2.86,-1.84 -4.51,-2.04 0.24,-1.43 1.03,-2.24 2.36,-2.44 11.9,-2.57 23.81,-5.06 35.73,-7.55 2.99,-0.87 6.18,0.34 7.68,3.09 9.91,16.5 19.24,33.340003 29.219995,49.790003 6.02,-17.11 11.39,-34.470003 17.12,-51.680003 0.79,-2.6 1.8,-5.46 0.85,-8.14 -0.79,-1.66 -2.99,-1.33 -4.48,-1.77 0.37,-1.49 1.37,-2.52 2.95,-2.6 9.53,-2.02 19.08,-3.99 28.61,-6.05 z m 19.13,12.72 c 26.26,-5.33 52.47,-10.88 78.72,-16.26 -2,6.1 -3.2,14.78 -10.73,16.38 -12.45,3.04 -25.13,5.07 -37.65,7.84 -2.35,7.58 -5.08,15.04 -7.21,22.690003 13.95,-2.88 27.85,-6.020003 41.77,-9.040003 -1.64,4.380003 -2.89,8.920003 -4.74,13.220003 -1.13,2.55 -3.87,3.75 -6.42,4.37 -9.65,2.33 -19.4,4.25 -29.04,6.61 -4.02,0.94 -7.88,3.48 -9.13,7.6 -2.79,8.4 -5.58,16.8 -8.19,25.26 14,-2.76 27.94,-5.87 41.92,-8.77 4.84,-1.21 10.4,-1.9 13.84,-5.95 0.93,-1.23 2.21,-2.03 3.72,-2.39 -1.18,4.72 -2.86,9.31 -4.29,13.97 -0.92,2.73 -1.89,5.75 -4.4,7.46 -3.04,1.99 -6.71,2.57 -10.19,3.38 -23.69,4.97 -47.37,10.02 -71.07,15.01 -1.67,0.22 -3.59,0.82 -5.11,-0.2 -1.37,-1.53 -0.2,-3.71 0.14,-5.41 9.39,-28.53 18.64,-57.1 28.02,-85.630003 0.69,-2.06 1.12,-4.27 0.67,-6.42 -0.81,-1.29 -2.66,-1.17 -3.88,-1.82 0.83,-1.1 1.91,-1.73 3.25,-1.9 z m 165.26,-34.63 c 7.09,-1.1 14.98,-2.83 21.66,0.78 4.43,2.36 5.81,7.75 5.51,12.42 -0.69,11.91 -7.18,22.98 -16.01,30.76 -6.43,5.74 -14.77,8.4 -22.71,11.25 3.19,6.570003 7.22,12.710003 10.7,19.140003 1.16,2.07 2.5,4.92 5.34,4.71 3.09,-0.27 6.09,-1.12 9.15,-1.64 -1.71,4.61 -2.79,9.46 -4.86,13.93 -1.95,3.81 -6.54,4.54 -10.29,5.41 -6,1.06 -11.87,2.83 -17.93,3.5 -2.96,0.4 -5.63,-1.68 -6.58,-4.4 -5.02,-11.5 -10.17,-22.94 -15.08,-34.49 -3.76,0.58 -7.44,1.52 -11.16,2.24 -3.89,11.69 -7.64,23.43 -11.51,35.12 -0.75,2.39 -1.82,4.85 -1.36,7.42 0.76,1.37 2.46,1.27 3.78,1.7 -0.22,0.43 -0.65,1.29 -0.87,1.72 -10.2,2.17 -20.4,4.32 -30.6,6.48 -1.78,0.24 -4.13,0.95 -5.35,-0.84 -0.22,-3.07 1.14,-5.94 2.01,-8.81 8.91,-27.09 17.76,-54.210003 26.64,-81.310003 0.7,-2.32 1.72,-4.99 0.52,-7.31 -1.16,-0.48 -2.34,-0.92 -3.53,-1.3 0.85,-1.67 2.76,-1.73 4.33,-2.13 22.74,-4.73 45.45,-9.62 68.2,-14.35 m -38.91,22.53 c -2.84,8.65 -5.64,17.32 -8.48,25.98 7.01,-1.46 14.05,-2.82 21.01,-4.52 6.16,-1.63 12.48,-4.02 16.89,-8.8 3.55,-3.95 5.13,-9.65 4.04,-14.85 -1.29,-3.16 -5.3,-3.09 -8.14,-2.82 -8.55,1.07 -16.87,3.41 -25.32,5.01 z m 156.39,-24.79 c 4.85,-1.04 9.87,-1.87 14.21,-4.42 8.3,8.11 13.62,19.71 12.54,31.45 -1.2,13.12 -7.74,25.06 -15.58,35.380003 -9.77,12.8 -21.85,23.63 -34.59,33.4 -31.96,24.08 -68.34,41.7 -105.78,55.47 -40.46,14.68 -82.7,24.46 -125.52,28.84 -20.64,1.99 -41.44,2.92 -62.16,1.58 -22.15,-1.43 -44.489995,-4.83 -65.159995,-13.26 -2.3,-0.96 -4.61,-1.9 -6.99,-2.66 26.92,6.02 54.699995,7.02 82.149995,5.55 35.76,-2.08 71.31,-8.07 105.8,-17.8 39.29,-11.17 77.65,-26.79 111.91,-49.24 2.89,-1.71 5.29,-4.44 8.69,-5.14 6.74,-1.39 13.47,-2.83 20.21,-4.26 0.92,-3.48 2.35,-6.84 2.89,-10.42 -0.37,-0.59 -1.1,-1.78 -1.47,-2.37 -0.47,-0.2 -1.41,-0.59 -1.88,-0.79 10.29,-9.93 19.78,-22.060003 22.33,-36.480003 8.72,-2.22 17.61,-3.72 26.39,-5.72 5.23,-0.91 11.35,-2.67 13.59,-8.06 2.12,-6.29 4.13,-12.63 6.09,-18.98 0.7,-1.79 -0.75,-3.37 -1.46,-4.89 -15.49,3.22 -30.99,6.43 -46.44,9.84 1.08,-3.01 2.14,-6.03 2.94,-9.13 12.43,-2.63 24.85,-5.3 37.29,-7.89 z m -73.2,-7.15 c 29.7,-6.23 59.37,-12.55 89.07,-18.79 -1.3,3.75 -2.15,7.67 -3.67,11.34 -1.56,3.66 -5.73,4.75 -9.22,5.61 -15.2,3.3 -30.43,6.46 -45.64,9.69 -2.5,7.62 -4.98,15.24 -7.37,22.89 16.57,-3.3 33.09,-6.91 49.63,-10.42 -1.45,4.15 -2.53,8.44 -4.1,12.55 -1.25,3.24 -4.78,4.47 -7.88,5.14 -11.45,2.52 -22.94,4.82 -34.39,7.33 -4.66,0.96 -9.56,3.59 -10.93,8.49 -3.81,11.91 -7.83,23.780003 -11.4,35.760003 -0.57,2.77 1.97,3.48 4.14,3.79 -0.77,0.9 -1.52,1.95 -2.84,1.97 -10.04,2.06 -20.04,4.3 -30.08,6.3 -2.39,0.87 -5.16,-1.31 -3.76,-3.81 8.93,-27.97 18.17,-55.850003 27.24,-83.780003 0.95,-3.34 2.73,-6.68 2.11,-10.25 -0.81,-1.34 -2.6,-1.29 -3.87,-1.88 0.66,-1.1 1.65,-1.79 2.96,-1.93 z m -77.79,-28.5200002 c 10.32,-0.96 20.68,-1.76999997 31.07,-1.68999997 11.65,-0.9 23.33,0.01 34.99,0.34 23.14,1.51999997 46.3,5.32999997 68.12,13.39000017 -20.78,4.13 -41.45,8.83 -62.22,12.99 -0.7,2.68 -1.53,5.32 -2.35,7.96 -31.67,-10.42 -65.47,-11.94 -98.55,-10.99 -10.37,0.51 -20.71,1.27 -31.06,2.15 -43.36,5.04 -86.33,14.45 -127.46,29.22 -3.53,1.24 -6.94,2.79 -10.54,3.77 21.25,-10.45 42.93,-20.11 65.35,-27.81 42.87,-14.89 87.48,-24.8700002 132.65,-29.3300002 z"/>
</svg>
