<?xml version="1.0" encoding="UTF-8"?>
<svg id="Layer_2" data-name="Layer 2" xmlns="http://www.w3.org/2000/svg" viewBox="0 0 1012.34 563.14">
  <defs>
    <style>
      .cls-1 {
        stroke-width: 0px;
      }
    </style>
  </defs>
  <g id="Layer_1-2" data-name="Layer 1">
    <path class="cls-1" d="m743.65,230.39c2.92-5.95,8.8-9.86,15.8-9.86l47.52.04c3.69,0,6.5.91,8.69,2.26,2.48-1.5,5.47-2.3,9.02-2.3l47.78.04c2.01,0,3.72.29,5.26.77,1.64-.44,3.39-.69,4.96-.73h.15s42.89-.11,60.23.22c14.71.29,29.2,5.11,38.29,14.89,6.86,7.37,11.31,17.48,10.48,31.39-1.2,20.37-13.8,37.27-30.62,44.97-.69.33-1.39.62-2.08.91,2.88,8.8,7.3,22.27,7.37,22.48,2.3,10.29-4.6,19.2-14.45,20.29-.33.04-48.07.11-48.07.11h0c-3.36,0-6.68-1.17-9.49-3.14-2.74,2.08-6.13,3.14-10.26,3.14-14.53.04-47.52-.26-47.52-.26h0c-4.82-.55-9.31-3.5-12.01-7.63-3.32,1.9-6.9,3.58-10.62,4.96-11.86,4.45-25.44,5.88-38.95,5.84-15.99-.04-39.13-3.61-51.25-18.03-3.25-3.83-5.69-7.85-7.45-11.94-3.18,3.32-6.5,6.39-9.86,9.23-14.31,12.01-31.46,19.35-50.01,21.61h0c-12.37,1.5-25.4,1.61-37.63.26-21.21-2.34-42.08-12.59-46.98-36.14-.73-3.47-1.13-6.94-1.2-10.4l-14.89,32.67c-2.7,5.95-8.47,9.82-15.22,9.78h-48.33c-8.03-.11-15.4-6.68-16.39-14.67-.4-3.14.11-6.24,1.35-8.94h0l19.38-42.56c-7.41-.8-14.05-7.08-14.97-14.56-.4-3.14.11-6.24,1.35-8.94l16.21-35.7c2.7-5.95,8.47-9.82,15.22-9.78l93.22.04h.18c6.53.07,12.63,4.45,15.22,10.4,12.96-7.08,27.3-10.77,42.6-11.86,11.28-.8,21.28-.8,30,0h0c17.96,1.64,34.35,8.54,43.22,21.79,1.39-3.03,4.02-8.76,4.56-9.96-.04.04-.04.07-.04.11.04-.11.22-.47.29-.66l-.07-.15Zm0,0q.07-.18-.15.33c.04-.11.11-.22.15-.33Zm-234.99,51.47l-24.38,53.47c-.66,1.46-.95,3.1-.73,4.78.55,4.27,4.49,7.81,8.76,7.85h48.22c3.61.04,6.68-2.04,8.14-5.22l27.74-60.88h9.31c-6.13,12.7-9.05,26.61-6.24,40.22,4.16,19.93,22.27,28.03,40.22,30,11.64,1.28,24.05,1.2,35.84-.22,17.05-2.08,32.81-8.8,45.95-19.82,6.83-5.69,13.36-12.56,18.94-20.15.29,8.14,3.03,16.35,9.31,23.83,10.66,12.7,31.24,15.26,45.3,15.26,12.56,0,25.19-1.2,36.21-5.37,7.59-2.85,14.23-6.9,19.97-11.86l-.77,1.79c-.58,1.35-.84,2.96-.66,4.56.51,3.98,3.94,7.26,7.74,7.7l.22.04h.22c.88.07,1.79.07,2.7.07,14.45.07,28.94.11,43.47.07,4.05,0,6.86-1.86,8.39-5.55.69-1.61,1.39-3.25,2.12-4.85.07.77.26,2.37.26,2.37v.07c.55,4.49,4.74,7.96,9.02,7.96,0,0,46.87-.04,47.19-.07,5.29-.58,8.94-5.37,7.74-10.84-.07-.29-9.6-29.16-9.6-29.16,3.03-.77,5.95-1.75,8.69-2.99,14.38-6.57,25.08-21.02,26.1-38.36.69-11.32-2.81-19.64-8.39-25.62-7.74-8.32-20.18-12.15-32.7-12.41-17.3-.33-60.08-.22-60.08-.22-1.82.04-4.16.55-5.47,1.31-1.2-.8-2.81-1.35-4.93-1.35l-47.78-.04c-4.05,0-6.79,1.86-8.39,5.37h0l-.55,1.24c-.33-1.06-.84-2.01-1.39-2.77-1.2-1.72-3.32-3.8-7.34-3.8l-47.52-.04c-3.98,0-7.3,2.23-8.91,5.66h0c-4.23,9.23-8.47,18.47-12.74,27.74-1.82-22.67-21.28-32.89-42.92-34.89-8.36-.77-17.92-.77-28.73,0-19.53,1.42-37.38,7.26-52.56,19.86-.26.22-.47.4-.73.62l2.88-6.35c.66-1.46.95-3.1.73-4.78-.55-4.27-4.49-7.81-8.76-7.85l-93.29-.04c-3.61-.04-6.68,2.04-8.14,5.22l-16.21,35.7c-.66,1.46-.95,3.1-.73,4.78.55,4.31,4.6,7.85,8.87,7.85h10.4v.11Zm13.32-8.76c.11,0,.18.07.18.18v.07l-29.89,65.59v.07c0,.11.11.18.18.18h48.11c.07,0,.11-.04.15-.07l30.04-65.96c.04-.07.07-.07.15-.07h20.55c.07,0,.11-.04.15-.07l16.21-35.66v-.07c0-.11-.11-.18-.18-.18l-93.18-.04c-.07,0-.11.04-.15.07l-16.21,35.7v.07c0,.11.11.18.18.18,0,0,23.73,0,23.73,0Zm316.56,66.03s-.07-.04-.07-.07,0-.04,0-.04l43.4-101.58c.07-.15.18-.22.33-.22,23.1-.26,43.29-.18,60.52.15,16.83.33,33.8,7.67,32.56,28.76-.84,13.98-9.45,25.62-21.02,30.92-4.85,2.23-10.55,3.43-16.13,3.94h-.04c-.22.04-.33.22-.26.44v.04l12.41,37.6v.04s0,.11-.04.15l.07.22h-46.79c-1.46-13.47-3.54-27.3-3.07-40.62v-.04s-.04-.07-.07-.07-.07.04-.07.07c-1.35,5.15-2.88,9.78-5.04,14.89-3.54,8.5-7.12,16.97-10.8,25.4-.07.15-.18.26-.37.26-14.49.04-28.94,0-43.4-.07-.73,0-1.46-.04-2.19-.07l.07-.07Zm76.98-72.2l-5.95,13.58c-.07.18,0,.29.18.29,6.61.55,13.72.26,18.47-4.34,2.48-2.41,4.42-9.16-1.75-9.67-3.65-.29-7.15-.37-10.55-.15-.22,0-.33.11-.44.29h.04Zm-66.32,21.86c7.81-17.12,15.8-34.6,23.65-51.72.07-.18-48.47-.26-48.55-.04-8.07,17.56-16.21,35.48-24.27,53.07-2.3,5-3.69,8.29-7.01,11.13-2.66,2.3-8.61,3.94-12.08,1.28-1.68-1.28-1.97-3.14-.88-5.55,6.42-14.34,15.51-34.16,27.16-59.57.07-.18,0-.26-.18-.26l-47.52-.04c-.44,0-.8.22-.95.58-8.39,18.25-16.75,36.54-25.11,54.9-5.26,11.53-6.86,25.7,3.1,37.52,9.05,10.73,26.72,12.12,38.62,12.15,11.46,0,23.03-1.02,33.11-4.78,14.45-5.44,24.86-15.7,31.54-28.84,2.96-5.8,6.13-12.41,9.49-19.82l-.11-.04Zm-261.16,31.5c-5.29-25.33,12.59-51.5,31.13-66.87,13.76-11.39,29.93-16.57,47.63-17.85,10.26-.73,19.35-.77,27.3-.04,19.09,1.75,36.83,10.73,34.97,33.14-1.86,21.97-16.75,42.85-33.18,56.61-11.86,9.93-26.02,15.99-41.39,17.85-11.13,1.35-22.81,1.42-33.84.22-14.31-1.57-29.31-7.23-32.63-23.07Zm61.5-42.12c-4.67,4.2-18.51,20.84-10.4,26.75,1.24.91,3.94,1.79,5.37,1.93,14.71,1.28,25.37-8.58,31.97-20.84,2.74-5.11,4.74-13.1-3.36-14.82-8.87-1.86-17.12,1.17-23.58,6.97Zm-3.65,20c10.66.62,18.03-7.34,22.89-16.32.29-.58.62-1.53.88-2.34-5.37-.58-10.29,1.61-14.31,5.18-1.93,1.72-5.69,6.02-8.21,10.48-.47.84-.95,2.04-1.28,2.99h.04ZM72.31,230.68c3.14-6.61,8.43-10.15,16.1-10.15,19.27-.04,38.33-.04,57.09,0,15.62.04,32.89,2.08,44.75,14.02,0,0,.91.99,1.2,1.28,0,0,.07.07.04.04-.69-1.68,2.26-14.75,15.55-15.22h.15c23.29-.26,43.62-.18,61.03.15,14.71.29,29.2,5.11,38.29,14.89,2.3,2.48,4.34,5.29,5.99,8.43,1.97-1.86,3.98-3.65,5.99-5.33,16.46-13.65,35.77-20.11,56.98-21.64,11.28-.8,21.28-.8,30,0h0c16.61,1.53,31.9,7.63,41.06,18.94,6.39,7.92,10,18.43,8.87,32.05-2.19,26.21-19.42,51.5-39.06,67.93-14.31,12.01-31.46,19.35-50.01,21.61h0c-12.37,1.5-25.4,1.61-37.63.22-13.87-1.53-27.59-6.46-36.79-16.24-1.02,7.45-6.97,13.18-14.75,14.05-.33.04-48.07.11-48.07.11h0c-3.36,0-6.72-1.17-9.49-3.14-2.74,2.08-6.13,3.14-10.26,3.14-14.2.04-47.3-.26-47.52-.26h0c-7.19-.84-13.61-6.97-14.56-14.45-.37-3.07.11-6.06,1.2-8.58l3.03-7.08c-6.75,1.82-14.02,2.77-21.79,2.92-5.69.11-11.39.15-17.08.15l-7.92,17.41c-2.7,5.99-8.54,9.96-15.44,9.93h-47.45c-7.67,0-11.68-3.87-14.02-7.19-2.63-3.76-4.89-9.34-1.5-16.86h0l45.92-100.63c-.26.55.04-.07.18-.4l-.07-.07Zm0,0c.11-.22.15-.29-.11.26.04-.07.07-.18.11-.26Zm119.5,19.97c-.33-.77-.66-1.53-1.06-2.26-9.45-18.14-28.65-20.04-45.26-20.08-18.76-.04-37.78-.04-57.05,0-4.38,0-7.41,2.04-9.16,5.88h0l-45.99,100.74c-1.86,4.09-.66,7.12.77,9.16,1.28,1.79,3.47,3.87,7.67,3.87h47.45c3.76,0,6.86-2.12,8.36-5.37l10-21.97c7.3.04,14.64,0,21.97-.15,14.16-.26,26.39-3.47,36.72-9.89l-10.66,24.93c-.58,1.35-.84,2.96-.66,4.56.51,3.98,3.94,7.26,7.74,7.7l.22.04s31.9.22,46.39.18c4.05,0,6.86-1.86,8.4-5.55.69-1.61,1.39-3.25,2.12-4.85.07.77.18,1.57.26,2.34v.15c.55,4.49,4.75,7.96,9.02,7.96,0,0,46.87-.04,47.19-.07,5.26-.58,8.94-5.37,7.74-10.84-.07-.29-9.6-29.16-9.6-29.16,3.03-.77,5.95-1.75,8.69-2.99,1.97-.91,3.83-1.93,5.66-3.1-.8,6.06-.69,12.23.58,18.32,4.16,19.93,22.27,28.03,40.22,30,11.64,1.28,24.05,1.2,35.84-.22,17.05-2.08,32.81-8.8,45.95-19.82,18.1-15.18,34.24-38.4,36.28-62.6,2.37-28.11-18.94-40.41-42.89-42.6-8.36-.77-17.92-.77-28.73,0-19.53,1.42-37.38,7.26-52.56,19.86-5,4.16-9.93,9.02-14.42,14.42-.88-7.67-3.94-13.61-8.21-18.25-7.74-8.32-20.18-12.15-32.7-12.41-17.3-.33-37.56-.37-60.77-.15h-.04c-3.94.07-6.64,1.93-8.21,5.44l-.04.04-7.15,16.75h-.07Zm-150.09,88.59c-.51,0-.66-.22-.47-.66l45.95-100.74c.22-.51.62-.77,1.2-.77,19.27-.04,38.29-.04,57.05,0,13.61.04,29.78.51,37.52,15.37,5.84,11.13.88,25.59-4.85,34.2-11.17,16.86-27.59,24.75-48.8,25.11-9.05.15-18.1.18-27.19.11-.18,0-.29.07-.36.22l-12.26,26.94c-.07.15-.22.22-.36.22h-47.45.04Zm95.37-69.17c-.62-4.85-11.24-3.61-14.16-3.58-.18,0-.33.07-.4.26l-7.3,15.95c-.07.11,0,.18.15.18,7.34.44,13.76.22,18.94-4.67,2.26-2.15,3.18-4.89,2.77-8.14Zm160.75,48.29c-5.29-25.33,12.59-51.5,31.13-66.87,13.76-11.39,29.93-16.61,47.63-17.89,10.26-.73,19.35-.73,27.3-.04,19.09,1.75,36.83,10.73,34.97,33.14-1.86,21.97-16.75,42.85-33.18,56.61-11.86,9.93-26.02,15.99-41.39,17.85-11.13,1.35-22.81,1.42-33.84.22-14.31-1.57-29.31-7.23-32.63-23.07v.04Zm61.5-42.16c-4.67,4.2-18.51,20.84-10.4,26.75,1.24.91,3.94,1.79,5.37,1.93,14.71,1.28,25.37-8.58,31.97-20.84,2.74-5.11,4.75-13.1-3.36-14.82-8.87-1.86-17.12,1.17-23.58,6.97Zm-3.65,20c10.66.62,18.03-7.34,22.89-16.32.29-.58.62-1.53.88-2.34-5.37-.58-10.29,1.61-14.31,5.18-1.93,1.72-5.69,6.02-8.21,10.48-.47.84-.95,2.04-1.28,2.99h.04Zm-192.03,42.89s-.07-.04-.07-.07,0-.04,0-.04l43.44-101.76h1.09c1.06,0,2.85-.04,5.15-.04,20.66-.18,38.84-.11,54.6.18,16.83.33,33.8,7.67,32.56,28.76-.84,13.98-9.45,25.62-21.02,30.92-4.85,2.23-10.59,3.43-16.13,3.94h-.04c-.18.04-.33.22-.26.44v.04l12.45,37.6v.18l.11.29-46.68-.07c0-.07-.04-.18-.04-.26-.04-.04-.07-.11-.07-.15h0c-1.46-13.47-3.61-26.9-3.14-40.22v-.04s-.04-.07-.07-.07-.07.04-.07.07c-1.35,5.15-2.88,9.78-5.04,14.89-3.54,8.5-7.19,16.94-10.8,25.4-.07.15-.18.22-.37.22-14.49.04-28.94,0-43.4-.07-.73,0-1.46-.04-2.19-.07v-.07Zm76.94-72.2l-5.95,13.58c-.07.18,0,.29.18.29,6.61.55,13.72.26,18.47-4.34,2.48-2.41,4.42-9.16-1.75-9.67-3.65-.29-7.15-.37-10.55-.15-.22,0-.33.11-.44.29h.04ZM30.3,210.09l108.08-2.81c.51,0,.95-.33,1.17-.8C193.41,71.03,341.93,7.63,477.97.62c0,0,16.57-.62,21.43-.62,7.59,0,24.09.62,24.09.62,115.23,5.58,238.05,52.56,307.26,149.14.37.51,1.06.73,1.68.47,6.53-2.74,12.52-6.35,17.96-10.84.58-.51,1.06-.4,1.39.29,29.16,63.29,99.39,66.21,159.83,69.42.37,0,.69.29.73.69.07,1.06-.29,1.31-1.06.8-.4-.26-.88-.4-1.39-.4-311.75.91-623.49,1.79-935.24,2.55-14.64.04-29.53.15-44.38.26v-1.06c0-.55.04-1.17.07-1.83l-.04-.04Zm778.25-53.25c-84.17-88.04-207.72-125.78-327.33-116.29-105.89,8.39-215.82,59.42-259.73,162.43-.07.18-.11.37-.11.55,0,.77.66,1.42,1.42,1.42h.04c148.59-3.76,297.69-8.8,445.74-22.78,48.44-4.56,96.03-11.57,139.36-23,.62-.15,1.02-.69,1.02-1.35,0-.37-.15-.69-.4-.95v-.04Zm-145.78-74.86c-1.42,1.06-5.33,3.36-11.1,3.03-2.99-.18-4.85-.66-6.72-1.13-2.26-.58-4.6-1.2-9.05-1.2-10.33,0-21.54,7.63-21.9,21.75-.4,13.65,8.32,28.21,23.58,28.87,8.83.4,26.54-4.45,34.42-7.81l2.92-4.85c-7.41,2.23-10.51,3.07-21.9,3.94-1.35.11-2.63.15-3.87.15h0c-6.94,0-12.01-1.68-15.11-4.96-3.83-4.09-4.02-9.78-3.72-14.31.51-8.36,7.48-16.86,13.51-16.46,7.12.47,10.77,2.34,12.15,11.53l2.12.55c1.02-4.27,4.27-10.88,6.35-12.96-.15-.77-.91-3.47-1.64-6.1l-.04-.04Zm-69.35,64.17l-6.02,2.08v.33l1.02-.33v16.1h-1.06v.4h6.13v-.4h-1.13v-9.09l.15-.18c.69-.95,1.64-1.5,2.59-1.5,1.64,0,2.45.91,2.45,2.7v8.07h-1.1v.4h6.06v-.4h-1.02v-9.56h0c0-1.24-.44-3.32-3.21-3.32-1.93,0-3.1.88-4.78,2.3l-1.1.95v-7.63l1.06-.37v-.51l-.04-.04Zm32.27,5.18c-.69,0-1.2,1.68-1.46,2.45-.07.18-.11.37-.15.51l-.15.44h-1.17l-.07-.66v-2.52l-4.45,1.2v.26l.91-.37v11.61h-.99v.4h6.35v-.4h-1.42v-7.88l.11-.18c.77-1.2,1.9-1.39,2.48-1.39.69.04,1.35.22,1.93.44l1.28-3.58-.44-.15-.4.66-.55-.29c-.77-.4-1.13-.51-1.82-.51v-.04Zm23.54.11c-1.72,0-3.07,1.02-4.45,2.15l-1.1.84-.07-1.31v-1.46l-5,1.35v.29l1.02-.29v11.32h-1.02v.4h6.1v-.4h-1.13v-9.2l.22-.22c.69-.58,1.53-1.35,2.81-1.35s2.19.8,2.19,1.93v8.8h-1.1v.4h6.02v-.4h-.99v-9.45c0-2.3-1.13-3.43-3.5-3.43v.04Zm-38.87,0c3.03,0,5.11,1.68,6.24,5l-8.25,3.03.26.66c.8,1.93,2.26,2.96,4.27,2.96,1.39,0,2.59-.44,3.5-1.24l.22.26c-1.72,2.04-3.8,3.03-6.31,3.03-3.94,0-6.39-2.66-6.39-6.97,0-3.76,2.81-6.72,6.42-6.72h.04Zm-.88.84c-1.42,0-2.26,1.02-2.26,2.77,0,.91.18,1.61.37,2.23.04.18.11.4.15.58l.15.77,4.45-1.68.58-.29-.22-.62c-.44-1.31-1.24-3.76-3.25-3.76h.04Zm23.98-3.87c-.91,0-2.45.84-2.45,1.83,0,.73.44,1.13,1.28,1.13s3.07-.33,3.07-1.79c0-.37,0-1.13-1.9-1.13v-.04Zm-277.44-27.81c-.33,0-.8.11-1.13,1.02l-.04.11c-.51,1.28-1.39,3.43-3.36,8.21-.58,1.39-1.39,3.76-2.34,6.5-2.81,8.14-7.04,20.48-11.5,26.13-2.88,3.61-7.3,6.72-8.65,7.63l1.39,2.59c3.94-3.25,12.96-6.57,22.78-6.57,2.04,0,4.05.15,6.02.4v-2.01c-.58-.26-1.86-.91-3.54-2.41-5.33-4.78-1.68-13.91,1.28-21.24.58-1.46,1.13-2.81,1.57-4.01,1.53-4.34,3.32-8.21,4.27-10.33l.22-.51c.8-2.08.22-2.41-1.09-2.99l-4.6-2.12c-.51-.29-.95-.44-1.31-.44l.04.04Zm172.1,30.84c3.03,0,5.11,1.68,6.24,5l-8.25,3.03.26.66c.77,1.93,2.26,2.96,4.27,2.96,1.39,0,2.59-.44,3.5-1.24l.22.26c-1.68,2.01-3.8,3.03-6.31,3.03-3.94,0-6.39-2.66-6.39-6.97,0-3.76,2.85-6.72,6.42-6.72h.04Zm-.91.84c-1.42,0-2.26,1.02-2.26,2.77,0,.91.18,1.61.37,2.23.07.18.11.4.15.58l.18.77,4.45-1.68.58-.29-.18-.62c-.44-1.31-1.24-3.76-3.25-3.76h-.04Zm26.06-6.5c-6.1,0-10.84,4.56-10.84,10.4,0,5.4,3.36,8.87,8.61,8.87,2.34,0,4.53-.73,6.61-2.26l.58-.4,1.46,2.23h.51v-8.54c0-.84.22-1.31.66-1.72l-.18-.37c-.33.15-.66.26-1.06.26h-7.15v.91h3.43v7.59h-.66c-5.07,0-7.85-3.14-7.85-8.83s2.81-6.72,4.49-6.72c1.31,0,2.63.8,2.63,2.3,0,.4-.11.8-.26,1.09l.44.69,5.11-3.29-.47-.69-.88.58-.37-.26c-1.79-1.2-3.43-1.83-4.75-1.83l-.07-.04Zm12.15,5.07l.47.15-.51,1.57,1.39-.58c.91-.4,2.04-.62,3.25-.62,3.14,0,4.71,1.35,4.71,4.12v8.76h.91v.4h-4.6l-.44-1.9-.84.73c-.95.8-2.12,1.64-3.65,1.64-2.34,0-3.91-1.5-3.91-3.72,0-2.74,1.61-4.6,3.98-4.6h4.64v-1.39c0-1.57-.99-2.55-2.59-2.55-1.79,0-2.7,1.13-3.43,2.08l-.69-.26,1.39-3.8-.07-.04Zm3.83,6.31c-1.83,0-3.18,1.31-3.18,3.14,0,2.77,1.68,3.07,2.41,3.07,1.02,0,2.26-.47,2.26-2.77v-3.43h-1.53.04Zm12.96-8.98c-.95,1.9-2.74,3.39-4.89,4.12v.4h1.42v9.23c0,2.26.84,3.14,2.96,3.14,1.5,0,2.88-.77,4.05-1.61l-.11-.18c-.33.15-.73.26-1.13.26-.91,0-1.86-.62-1.86-1.83v-9.02h2.26l.18-.91h-2.45v-1.83c0-.51,0-1.13.07-1.72l-.55-.11.04.04Zm-225.53-61.69c-.99,1.28-2.37,3.03-3.07,3.98,1.9.33,6.31,1.2,8.29,2.48,2.26,1.42,1.86,3.72,1.06,6.83-1.06,4.2-3.83,11.24-3.94,11.53-.62,1.09-.8,1.75-.66,2.19s.69.77,1.57,1.2l4.56,2.15c.58.26,1.06.37,1.42.37.55,0,.99-.26,1.46-1.46l.11-.29c.55-1.31,1.5-3.5,2.55-4.64l.15-.15c.58-.62,1.24-1.35,2.34-1.35.55,0,1.17.18,1.83.58,2.48,1.39,13.4,11.79,21.13,37.63,5.77,19.24,4.85,25.95,4.42,27.63l4.2,2.34c2.08-3.69,10.44-13.07,17.19-14.67-1.09-5.26-3.36-11.21-5.04-15.59-.73-1.97-1.39-3.65-1.75-4.78-3.18-10.33,1.57-17.16,2.52-18.43,1.17-1.35,1.24-2.26.26-3.25l-3.18-3.58s-.66-.88-1.61-.88c-.55,0-1.13.26-1.68.8-1.09.84-2.52,1.93-5,4.71-.07.11-.22.18-.37.18s-.29-.07-.37-.15c-3.1-3.18-5.69-7.7-8.43-12.48-1.57-2.77-3.21-5.62-5-8.36-.99-1.53-1.93-2.88-2.77-4.12-2.85-4.2-4.82-7.08-5.11-9.67l-27.08-.73v-.04Zm108.04-1.97l-2.52,3.03c3.87,1.42,22.37,8.29,25.08,10.4.04.04.07.07.11.15,2.3,3.65,7.99,20.4,8.5,27.01.26,3.07-.58,4.64-1.09,5.29l2.19,2.55c1.93-1.64,5.07-2.52,9.05-2.52s8.54.91,12.78,2.55c.44-.58.88-1.2,1.09-1.5-7.77-11.42-12.7-24.05-16.46-42.12l-4.71-3.76c-2.59,1.06-6.46,1.61-11.5,1.61-9.05,0-19.42-1.79-22.45-2.63l-.07-.07Zm105.92,0c-1.42,1.02-5.22,3.29-10.88,2.96-2.88-.18-5.73-.73-8.69-1.35-3.8-.77-7.7-1.53-12.15-1.61h-.33c-4.75,0-20.22,1.57-20.77,21.94-.37,12.85,10.59,26.39,22.08,27.27,2.41.18,4.56-.37,7.15-1.06s5.55-1.46,9.64-1.79c3.5-.26,7.92,2.37,9.27,5.33l2.85.77c-.04-.4-.07-.84-.11-1.31-.51-5.47-1.53-16.79,10.18-18.91l-1.79-2.99c-.95-.26-3.03-.4-5.84-.4-5.99,0-14.67.69-17.34,1.61l-.69,1.9c4.01-.29,7.7,1.79,7.92,4.38.11,1.24-.47,4.23-8.21,5.55-6.13,1.06-10.91-.15-14.16-3.58-4.78-5.07-4.82-13.51-4.6-16.9.44-7.37,6.31-15.26,14.31-15.26.62,0,1.24.04,1.9.15,6.86,1.02,12.23,2.52,13.61,11.42l2.04.55c.99-4.16,4.16-10.66,6.21-12.7-.15-.77-.88-3.39-1.61-5.95Zm38.51-1.17c-5.91,1.39-14.27,1.86-19.75,1.86-3.14,0-5.73-.15-7.34-.4l-.95,1.83c9.78,3.76,9.27,14.53,8.98,20.33-.04.8-.07,1.53-.07,2.12,0,12.12-2.96,22.67-7.59,27.16l.88,1.93c3.07-3.87,11.02-6.9,18.36-6.9,2.92,0,5.51.47,7.52,1.42l1.17-1.35c-9.42-7.88-8.94-13.29-8.36-19.53.15-1.53.29-3.14.29-4.85,0-10.8.55-19.31,7.56-21.72l-.66-1.86-.04-.04Zm26.1,68.29l-4.96,1.42v.33l1.02-.22v11.13h-1.1v.4h5.99v-.4h-.95v-12.67Zm-124.17-5.51l-6.02,2.08v.33l1.02-.37v16.1h-1.06v.4h6.13v-.4h-1.13v-9.09l.15-.18c.69-.95,1.64-1.5,2.59-1.5,1.64,0,2.48.91,2.48,2.7v8.07h-1.09v.4h6.06v-.4h-1.02v-9.56h0c0-1.24-.4-3.32-3.21-3.32-1.93,0-3.1.88-4.78,2.3l-1.09.95v-7.63l1.06-.37v-.51h-.07Zm-21.39-.29l-.33,4.56h.8c.4-1.72,1.28-2.81,3.61-2.81h.66v16.17h-1.83v.91h8.54v-.91h-1.79v-16.17h.69c2.34,0,3.18,1.09,3.61,2.81h.8l-.29-4.56h-.91v.47h-12.67v-.47h-.91Zm-31.83-19.35c-2.92-6.42-5.84-12.34-7.45-15.18-5.26-9.05-7.15-18.76-4.89-24.93-.55-.33-1.86-1.02-3.1-1.68-3.03,1.24-7.3,1.53-10.37,1.53-5.55,0-11.5-.88-14.02-1.75l-2.26,3.5c1.79.88,7.7,3.83,9.16,5.18,2.08,1.9,2.7,3.94,1.75,5.69-3.83,7.34-6.53,9.86-7.59,10.8-.55.47-.8.99-.8,1.5,0,.84.73,1.53.73,1.53h0s.04.07.07.11c.4.4,1.24,1.31,3.25,3.47,1.02,1.06,1.42,1.02,2.96.04.84-.44,1.64-.66,2.37-.66,1.17,0,2.77.51,3.98,3.03.4.88.95,1.97,1.57,3.25,3.94,7.99,11.24,22.85,13.1,29.86,1.5,5.55-.88,8.58-10.33,16.61l2.77,2.99c4.45-3.32,11.83-5.11,20.88-5.11,7.19,0,14.93,1.2,21.83,3.39l1.09-2.59c-1.31-1.53-3.47-2.88-5.69-4.34-2.3-1.5-4.71-3.03-6.31-4.82-2.45-2.55-2.88-4.49-3.69-7.99-.11-.47-.22-.99-.37-1.57-.77-3.18-3.03-8.98-5.69-15.15h.44c.84,0,2.01-.11,3.32-.22,1.86-.18,4.2-.4,6.64-.4,1.72,0,3.21.11,4.67.33l.33-.84c2.37-5.99,3.8-9.6,7.23-10.84.95-.4,1.28-1.09,1.06-2.23-.37-2.26-.44-2.55-1.28-4.16-.33-.62-.91-.95-1.83-.95h-.29c-3.47.26-5.66,1.17-9.13,3.69-.18.11-.4.15-.58,0s-.26-.33-.22-.55c.44-1.64,1.2-3.18,2.04-4.82.95-1.86,1.93-3.8,2.34-5.84.51-1.42-.22-2.19-.69-2.48l-.04-.04c-.37-.26-3.14-1.86-4.01-2.04-.29-.07-.55-.07-.8,0-.77.15-1.35.66-1.53,1.17-1.28,3.69-3.5,8.98-6.86,13.21-2.74,3.47-4.01,6.86-3.8,10.29h.04Zm208.93,22.7h.26l-.26,1.2c-.18-.07-.37-.11-.58-.11-.69,0-1.2.55-1.2,1.31,0,.47.37.77.8,1.17.77.66,1.9,1.61,1.9,3.69,0,3.87-3.47,4.75-6.79,5.62l-.88.29v1.13l.58.07c2.15.22,6.61.73,6.61,3.36s-3.91,3.21-5.26,3.21c-2.96,0-4.45-.77-4.45-2.23,0-1.02,1.28-1.72,2.23-1.83l.58-.15v-1.2l-.99-.07c-.88-.07-1.61-.15-2.26-.15-.37,0-.69,0-1.02.04l-.77-.73c1.64-.37,3.18-.88,4.34-1.31l.44-.22v-1.06l-.58-.07c-2.04-.29-4.38-1.64-4.38-4.45,0-3.91,3.1-5.29,5.77-5.29,1.06,0,1.79.15,2.41.26.22.04.44.07.66.11l.55.07.51-1.64c.22-.69.4-1.02,1.79-1.02Zm-6.17,2.7c-2.19,0-2.19,1.97-2.19,2.63,0,1.68.91,6.61,3.72,6.61,2.19,0,2.19-1.97,2.19-2.59,0-1.68-.91-6.61-3.72-6.61v-.04Zm.62,13.1l-.37.55c-.4.66-.62,1.42-.62,2.34,0,1.09.66,2.19,1.86,2.19,1.1,0,1.79-.66,1.79-1.75,0-1.68-1.02-2.3-1.97-2.92l-.07-.04-.55-.37h-.07Zm230.35,35.22c2.41,0,2.55-.51.4-1.57-19.35-9.6-34.53-23.65-45.48-42.27-.4-.69-.99-.88-1.72-.51-35.08,17.16-75.41,24.38-114.32,29.71-51.25,7.01-102.67,12.01-154.32,14.97-.11,0-.22.07-.33.15s-.15.18-.11.18c105.34-.07,214.15-1.13,315.87-.66ZM352.55,47.16c-1.17.22-2.63.66-4.45,1.35-78.44,29.78-147.9,77.56-183.38,156.4-.07.15-.11.29-.11.47,0,.62.51,1.17,1.17,1.17h0l28.69-.69c1.17-.04,2.19-.8,2.56-1.9,24.97-72.05,84.53-126.44,155.31-155.42,1.35-.55,2.52-.99,3.58-1.24.37-.11.58-.44.58-.8,0-.47-.37-.84-.84-.84h-.11c-.84.15-1.46.4-1.86.8-.33.37-.73.58-1.2.66l.07.04Zm651.89,323.5c-161.4,3.83-322.84,7.99-484.06,15.91-85.59,4.23-171.59,10.4-256.41,23.03-.47.07-.84.51-.84.99,0,.22.07.47.22.66,109.87,128.44,316.6,160.34,466.65,91.18,1.82-.84,5.18-3.29,7.99-4.2.04,0,.11-.04.15-.04.29,0,.51.22.51.51,0,.18-.11.33-.26.44-61.9,37.92-141.58,59.53-205.02,63.4-22.05,1.35-66.32,0-66.32,0-107.71-7.45-211.85-48.91-284.01-130.82-.99-1.1-2.08-1.28-3.36-.47l-15.48,9.6c-.47.29-.84.22-1.13-.26-15.62-27.74-32.49-45.95-63.73-55.55-31.54-9.71-66.1-11.94-98.88-13.83-.33,0-.47-.15-.47-.37,0-.07,0-.11.04-.18.07-.18.07-.26.11-.26l1004.12-2.7c.04.99.11,1.97.18,2.96Zm-883.78,9.93h0c-.4,0-.77.33-.77.77,0,.29.15.55.4.66,19.6,9.6,34.93,23.76,45.99,42.52.37.62.91.8,1.57.47,17.67-8.29,36.65-14.56,56.9-18.8,65.63-13.72,131.29-19.71,197.21-24.38,7.59-.51,15.33-.37,23.07-.4.15,0,.26-.04.29-.11.07-.22.15-.47.22-.69.15-.4,0-.58-.44-.58l-324.49.55h.04Zm251.23,139.25c-51.76-23.8-99.02-58.87-134.1-103.99-.66-.84-1.5-1.13-2.52-.88l-28.25,6.72c-1.42.33-1.64,1.06-.62,2.12,48.8,51.79,110.23,84.72,178.74,102.78.07.04.15,0,.15-.07.07-.18.11-.33.15-.51.15-.47-.04-.8-.51-.99-4.45-1.5-8.8-3.25-13.07-5.18h.04Z"/>
  </g>
</svg>