<?xml version="1.0" encoding="UTF-8"?>
<svg id="Layer_2" data-name="Layer 2" xmlns="http://www.w3.org/2000/svg" viewBox="0 0 1010 478.55">
  <defs>
    <style>
      .cls-1 {
        stroke-width: 0px;
      }
    </style>
  </defs>
  <g id="Layer_1-2" data-name="Layer 1">
    <path class="cls-1" d="m853.99,6.3c.79-.69,2.78-2.87,2.11-2.37,6.16-4.55,12.22-4.51,16.89-3.06,5.08,1.55,10.26,5.18,12.53,12.91,1.29,4.45,2.53,8.93,3.66,13.42,1.1,4.29,1.04,7.07.47,9.85-.57,2.68-1.64,5.68-4.8,9.22-.6.66-1.14,1.48-1.67,2.37-2.84,4.96-5.08,10.01-6.66,15.18-.38,1.23-.82,3.13-1.48,4.67-.03.06-.06.13-.09.19-1.48,3.35-3.79,5.97-6.88,7.89l-.09.06s-.06.03-.09.06c-2.49,1.48-6.88,3.16-12.56,2.43-2.37-.28-5.74-1.26-7.64-1.83-2.65-.79-5.18-1.86-7.42-3.63l-.03-.03-.25-.19c-.19-.16-.35-.28-.54-.44-3.03-2.65-5.05-6.22-5.74-10.16h0l-.06-.41v-.19l-.03-.13v-.13c-.19-1.48-.38-3.16-.76-4.8-.19-.76-.16-1.61-.57-2.18-.38-.09-1.33-.32-1.86-.38-.73-.09-1.45-.13-2.15-.19l-.25.16c-2.56,1.86-4.39,4.92-5.62,7.45-1.07,2.24-1.8,4.48-2.05,6.76-.41,3.41-.63,7.13.03,10.54.41,2.05,1.1,4.01,2.81,5.4,5.46,4.36,13.92,3.54,20.55,3.16,12.91-.73,24.53-2.08,36.3-5.59,2.81-.85,5.65-1.67,8.46-2.53,3.6-1.07,10.95-.44,14.36,1.42,4.51,2.46,6.79,5.68,8.18,8.71,2.37,5.21,2.37,11.87-1.45,18.15-2.3,3.79-4.58,7.54-6.85,11.33h0c-2.75,4.58-6.69,7.2-11.81,9.15h0c-2.56.98-5.11,1.93-7.67,2.81,16.86,3.03,28.13,19.29,25.38,35.95,2.05,7.67,1.86,15.81-.41,23.39.66,2.87,1.01,5.93.95,9.22.92-.09,1.83-.13,2.81-.09h.06c21.24.35,43.02.98,65.34,1.93,10.67.44,18.25,4.29,23.52,9.56,5.59,5.62,9.28,13.48,9.09,24.27-.03,1.42-.19,2.84-.51,4.26l-13.54,59.69s-.03.06-.03.09c-2.24,9.66-9.79,17.3-19.44,19.6l-37.22,8.93-10.45,47.06s-.03.06-.03.09c-2.27,9.97-10.89,17.27-20.99,17.99,1.17,2.21,1.55,4.8.92,7.39l-17.52,69.95c-.73,2.84-2.59,5.24-5.15,6.63s-5.59,1.64-8.33.66c0,0-170.08-59-374.12-58.65-187.25.35-371.78,58.74-371.78,58.74-2.78.88-5.78.57-8.3-.88s-4.32-3.85-4.96-6.69l-16.1-69.95c-.44-1.89-.32-3.76.22-5.49-11.9,5.02-24.81,8.84-36.24,12.56-.06,0-.09.03-.16.06-.38.13-.73.22-1.1.32-12.44,3.25-25.19-4.32-28.41-16.57-.09-.35-.19-.73-.25-1.04,0,0-6.85-32.01-8.21-38.38-.03-.19-.09-.38-.09-.57v-.06c-1.8-6.6-1.33-12,.32-16.32-3.54-3.47-6.16-7.89-7.48-12.91.06.19.35,1.36,0-.06l-.03-.06L.64,242.47c-.79-3.16-.85-6.44-.16-9.6,2.11-9.6,5.43-16.16,8.68-20.2,5.4-6.72,11.87-9.6,18.56-10.16,16.32-1.39,42.49-3.95,61.21-1.36,7.86,1.07,14.68,3.19,20.2,5.97,1.29-1.42,2.71-2.78,4.23-4.07,2.02-1.7,4.32-3,6.79-3.82-.32-6.25,2.68-12.06,8.55-15.91h0c-.09.09-1.8,1.96-2.53,2.62-.19.16-.28.22-.32.19.03-.09.19-.32.51-.73.57-.69,1.2-1.29,1.93-1.83-.82.57-1.45,1.2-1.93,1.83-.38.47-.54.69-.51.73-.06.13.09.03.32-.19.85-.73,3.16-3.06,2.53-2.62,6.57-4.32,12.78-9.25,16.57-16.1,8.96-16.19,14.43-34.28,20.61-51.74,2.78-7.83,6.12-15.5,9.25-23.17,1.45-3.54,3.31-6.19,5.4-8.18-.09-2.02.09-4.17.63-6.5v-.03l.13.03-.13-.16v-.03s0-.06.03-.16l.03-.06c.06-.25.16-.54.22-.79.28-.92.82-2.37,1.64-4.36h0c2.21-5.3,4.17-10.67,5.87-16.13-1.14-.19-2.27-.38-3.35-.6.66.13,1.29.19,1.96.19l-1.99-.19c-7.07-1.39-11.46-5.81-13.64-10.39-2.49-5.21-3.31-12.06,1.93-19.26-.88,1.2-1.42,2.37-1.64,3.5-.06.22-.09.35-.09.44-.16,1.01.25.03.73-1.2.63-1.39,1.42-3.31,1.04-2.81,2.65-3.6,5.33-7.07,8.05-10.42,3.6-4.45,9.06-6.98,14.71-6.88,1.33.03,4.01.09,4.01.09,17.68.51,35.35.98,53.03,1.48,5.21.16,9.03,2.08,11.9,4.61,3.03,2.68,5.4,6.31,6.09,11.43v.06l.06.44v.06c.28,2.37,2.21,4.17,3.54,6.12,4.32,6.47,8.84,12.88,12.88,19.51,3.66,6.06,7.26,12.15,10.73,18.31l1.04,1.83c1.58-.85,3.16-1.55,4.77-2.02,1.36-3.22,3.5-6.25,6.34-9,1.58-1.52,2.97-3.16,4.23-4.92.73-1.01,1.42-2.02,2.08-3.03-2.94-1.58-5.9-3.13-8.9-4.58-5.27-2.56-8.14-6.41-9.63-10.13-1.89-4.73-2.53-10.54,1.77-17.23h0c1.89-2.97,3.82-5.93,5.75-8.9,4.51-6.91,13.13-9.97,20.93-7.48,1.58.51,3.22.95,4.89,1.23,7.83,1.42,15.75,1.93,23.74,1.52,3.19-.16,6.5-.51,9.47-1.74,3.38-1.36,8.46-2.46,14.87.54,1.8.85,4.61,2.34,8.46,4.48,5.3,3,7.58,6.79,8.81,10.51,1.1,3.31,1.64,7.32-.22,12.59h0c-3.41,9.6,1.48,21.46,5.9,30.18h0c1.8,3.6,4.83,8.81,7.07,13.23.57,1.14,1.14,2.27,1.7,3.41.73-1.07,1.52-2.15,2.37-3.28,4.61-6.16,7.95-12.97,10.57-20.23.88-2.46,1.89-4.67,3.06-6.6l-5.02-1.86c-7.04-2.59-9.79-7.13-11.24-11.21-1.42-4.01-1.48-8.49.22-12.94.79-2.08,2.18-4.26,3.5-5.9,2.02-2.49,4.04-4.96,6.12-7.35-.82.98-1.39,1.99-1.7,2.94-.13.32-.16.44-.16.51,0,.13.06.03.19-.19.6-.85,2.34-4.04,1.77-3.44,4.55-5.27,11.71-7.58,18.47-5.93h.03c11.4,2.78,23.39,4.2,35.07,4.83,5.18.28,10.35.19,15.53-.22h0c2.84-.22,5.84-.95,8.96-2.02,5.59-1.96,11.77-1.74,17.93,3.19l.03.03c3.03,2.43,6.09,4.89,9.09,7.29,4.51,3.63,6.53,6.03,7.8,12,1.36,6.41,2.84,12.78,4.51,19.07.35-1.36.73-2.75,1.14-4.1,7.32-23.86,26.55-38.79,51.2-41.16,14.71-1.42,29.26,1.89,43.59,4.58,3.63.66,7.29,1.33,10.83,1.04,2.97-.25,5.65-1.33,8.05-3.16.06-.03.09-.09.16-.13,2.84-2.11,6.31-3.35,9.91-3.5h.03s-5.43,1.23-2.21.32c-4.29,1.1,3.35-.35,2.21-.32,4.67-.16,8.4,1.2,11.33,3.19,1.8,1.2,3.41,2.71,4.73,4.58,3.66-4.64,8.93-7.2,16.41-6.25h.06c3,.38,6.03.6,9.06.66,9.6.19,19.16-.25,28.73-1.36,3.91-.44,7.8-1.1,11.62-1.96h.03c-.16.06-2.15.88-2.75,1.1-.09.03-.16.03-.09-.03.09-.06.28-.16.6-.32.54-.25,1.1-.47,1.7-.63-.66.16-1.23.38-1.7.63-.35.16-.54.25-.6.32-.16.09-.09.09.09.03.63-.16,3.57-1.26,2.75-1.1,8.93-1.96,18.47.38,22.6,11.68.47,1.26.92,2.56,1.36,3.85,10.61-9.06,24.12-14.62,38.83-15.37,5.81-.28,11.81.06,17.99,1.07,3.79.63,8.3,1.83,12.44,2.78h0c5.87,1.36,11.87,1.55,16.89-2.18h0c-.09.09-1.48,1.7-2.11,2.37-.22.19-.32.28-.28.19s.09-.16.19-.28c.54-.73,1.14-1.39,1.86-1.96-.79.63-1.42,1.29-1.86,1.96-.09.16-.16.25-.19.28-.13.22.03.09.28-.19l.03.06Zm7.35,204.45c-.16.03-.35.06-.51.09-3.19.76-6.03,2.37-8.08,5.15,0,0-.06-.09-.09-.09-4.39-5.33-10.39-7.95-18.21-7.13.03,0-19.13.16-19.13.16h-.13c-3.28.06-5.81,1.23-7.73,2.87-1.1.95-2.08,2.08-2.84,3.5-.57-1.52-1.42-2.78-2.4-3.82-1.96-2.11-4.8-3.79-9.03-3.79h-27.84c-3.66,0-6.44,1.26-8.59,3.06-1.36,1.17-2.53,2.62-3.31,4.45-.82-.79-1.74-1.52-2.81-2.15-.03,0-.03-.03-.06-.03-4.99-2.97-13.04-5.05-22.57-6-18.5-1.8-43.18,0-54.77.95h-.03c-5.68.47-9.91,2.59-13.04,5.65-.92.92-1.74,1.89-2.46,3-.03-.03-.06-.06-.06-.09-2.37-3.6-5.87-6.16-10.23-7.7-5.3-1.86-12.15-2.02-17.33-1.96-19.41.22-38.86-.13-58.33-.95h-.22c-3-.06-5.78.66-8.36,2.15l-1.83,1.04c-3.16,1.77-5.15,5.05-5.27,8.68l-1.67,44.89-7.13-45.36c-.51-3.35-2.05-5.78-4.04-7.54s-4.55-2.97-7.95-3.09h-.16l-39.8-.95c-3.22-.06-5.75.92-7.73,2.43-2.05,1.55-3.69,3.72-4.51,6.85v.06l-18.72,75.03-7.29-.13c-.69-21.18-1.83-42.39-3.41-63.67-.25-3.31-1.52-5.84-3.28-7.73s-4.2-3.41-7.51-3.91l-30.65-4.67c-2.94-.44-5.9.38-8.18,2.24-1.83-2.27-4.61-3.76-7.73-3.85-18.31-.6-23.14,4.51-35.04,9.72l-11.62-8.18c-1.7-1.2-3.76-1.86-5.84-1.89l-21.46-.28c-.44,0-.92,0-1.36.03-10.26.6-18.25,9.56-17.61,19.89v.06c-2.65-.92-6.25-1.1-10.35,1.61l-.03.03c-2.43,1.64-5.05.69-7.13-.82-3.09-2.24-5.56-5.84-5.84-9.38-.6-7.51-5.27-9.97-8.84-10.76-.09-.03-.19-.03-.32-.06-1.83-.35-4.61-.38-8.11,1.1-2.43,1.04-4.39,2.97-5.46,5.4l-.32.73c-.88-2.02-2.18-3.54-3.66-4.7-2.08-1.64-4.73-2.71-8.14-2.65.03,0-32.07.44-32.07.44-3.06.03-5.93,1.42-7.89,3.79-.63.76-1.14,1.58-1.52,2.46-7.07-5.56-18.37-7.83-34.22-4.61-7.04,1.33-14.46,5.33-21.53,8.21-1.7.69-3.38,1.29-4.99,1.64-1.04.22-2.02.44-2.94,0-1.61-.76-2.65-2.65-3.91-5.43-1.36-2.97-4.01-5.11-7.17-5.81s-6.5.09-8.96,2.18c-3.66,3.09-6.47,6.69-8.36,10.76-.44-.54-.92-1.01-1.42-1.48-4.89-4.42-12.91-7.51-22.79-8.87-18.02-2.49-43.21.09-58.93,1.42-4.1.35-8.02,2.21-11.33,6.31-2.56,3.16-4.99,8.4-6.63,15.91-.35,1.58-.32,3.22.09,4.8l20.39,79.55c1.61,6.19,6.41,10.95,12.34,12.66-.54.51-1.1,1.01-1.67,1.55h-.03c-3.19,2.97-5.49,7.8-3.5,15.09,0-.03,8.46,39.49,8.46,39.49.03.19.09.41.13.6,1.77,6.79,8.84,10.95,15.72,9.15.22-.06.41-.13.63-.19.03,0,.06,0,.06-.03,18.75-6.09,42.08-12.28,56.69-24.31h0c5.68-4.67,10.48-9.72,14.43-15.09l.54,2.46c1.14,5.52,6.12,9.56,11.84,9.56,1.17,0,2.34-.19,3.47-.51h0c23.14-6.94,46.78-12.94,70.9-18.02,3.98-.82,6.91-2.75,8.87-5.78,2.3,1.36,5.24,2.18,9,1.36l28.25-6.16c3.38-.73,6.06-3.06,7.32-6.06.51.51,1.01.95,1.58,1.33,2.46,1.8,5.71,2.94,10.04,2.18l28.03-4.86c2.43-.41,4.55-1.67,6.06-3.41,2.15,1.48,4.73,2.11,7.32,1.77,15.97-2.15,31.66-4.14,47-5.9h.03c6.44-.76,17.68-5.4,33.33-14.74,4.51,5.93,12.18,9.34,21.72,10.23,10.04.95,22.51-.76,32.77-1.64,2.02-.16,3.85-.66,5.46-1.52,1.89,1.04,4.07,1.61,6.38,1.64h.09l12.44-.06c5.46,0,9.47-2.46,11.9-7.58.03-.03.03-.06.06-.09l3.03-6.5,10.51-2.68.85,5.62v.03c.92,5.81,4.23,9.31,10.04,10.45.06,0,.09.03.16.03,12.25,2.27,22.6,1.1,31.09-2.94.13-.06.28-.13.41-.19,1.74,2.4,4.51,4.01,7.7,4.23l29.04,1.99h.03c4.04.28,7.83-1.42,10.35-4.32,2.08,3.6,5.49,5.65,10.2,6.03l31.53,2.78c1.74.16,3.44-.13,5.02-.79,1.26.88,2.78,1.48,4.39,1.74,12.12,1.8,24.34,3.41,36.65,4.86,16.19,1.89,29.64-1.2,45.3-4.36l-.09.63c-.88,5.52,2.75,10.73,8.24,11.84l28.57,5.71c3.91.79,6.94-.19,9.28-1.8.47-.32.92-.69,1.36-1.1.98,2.08,2.68,3.85,4.86,4.89,9.38,4.55,19.89,7.51,31.53,8.84h.03c2.94.32,5.37-.22,7.35-1.26l.38.66c1.52,2.4,3.88,4.51,7.7,5.46-.03,0,26.58,6.6,26.58,6.6.06.03.13.03.19.03.13.03.22.06.35.06,2.84.57,5.62.09,8.02-1.1,1.17,2.62,3.38,4.73,6.28,5.68l26.67,8.78c1.29.41,2.62.63,3.98.63,5.97,0,11.17-4.17,12.5-9.97v-.06l11.87-53.41,43.53-10.45c5.84-1.39,10.39-6,11.74-11.84v-.03l13.54-59.69c.16-.69.25-1.42.25-2.11.13-7.42-2.21-12.91-6.06-16.79-3.69-3.69-9.06-6.22-16.54-6.5-22.25-.92-43.94-1.58-65.09-1.93h-.03c-3.6-.06-6.38,1.1-8.55,2.81-.09.09-.19.16-.28.25-1.99-2.05-4.73-3.19-7.61-3.16l-25.19.35c1.17-.22,2.24-.51,3.13-.82,4.36-1.52,7.92-4.8,8.14-9.66.19-4.07-1.93-6.98-5.18-8.87-.28-.19-.6-.35-.92-.51.25-.13.47-.28.73-.44,6.85-4.36,8.21-13.6,3.82-20.01-.09-.13-.16-.22-.25-.35.16-.32.28-.66.35-1.04l1.23-5.71s.03-.09.03-.16c.35-1.96-1.01-3.88-3-4.23-.06,0-.13-.03-.19-.03-1.36-.16-2.68-.19-4.04-.13-3.54.22-5.27,2.05-6.44,4.86-.13-.03-.25-.03-.38-.06-6.5-.98-13.01.92-16.79,5.18-1.42,1.58-2.49,3.47-3.09,5.71-.25-5.11-2.59-9.28-7.92-10.67-4.2-1.1-7.8-.35-11.14,1.42-.63-1.1-1.83-1.89-3.19-1.89-.32,0-.63.03-.95.13h0l-12.66,3.44c-.88.22-1.48.73-1.96,1.29-.13.16-.25.35-.35.54v-1.86c0-.63-.16-1.2-.44-1.7.47-.82.76-1.7.85-2.68.22-2.21-.38-3.98-1.52-5.3-1.04-1.26-2.62-2.18-4.64-2.49-3.72-.6-6.85.25-9.38,2.4-2.15,1.83-3.31,4.67-2.97,7.17l-2.15-.73c-1.01-.35-2.08-.22-2.97.28-1.86-.54-3.63-.66-5.15-.16-.28.09-.6.22-.88.35-.69-.54-1.7-.95-3.09-.57h-.03l-11.58,3.13c-1.58.44-2.68,1.86-2.68,3.5v.32c-2.84-3.95-6.94-6.53-12.63-7.07-9.22-.85-16.04,4.99-18.56,12.59-.06-2.59-.32-4.42-.66-5.46-1.89-5.75-7.32-7.77-12.94-7.01-1.8.25-3.44.82-4.99,1.61v-2.46c1.42-.63,2.15-1.77,2.15-3.47v-3.63c0-1.55-.76-2.4-1.48-2.94s-1.8-.95-3.25-.44c.03,0-14.84,5.11-14.84,5.11h0c-1.67.57-2.53,1.77-2.49,3.57l.06,3.28v.19c-.25-.06-.51-.09-.76-.09h-1.55c.03-.95.13-1.93.28-2.87.16-1.14-.16-1.99-.63-2.65s-1.2-1.26-2.34-1.45c.03,0-3.19-.6-3.19-.6h-.03c-.92-.16-1.67.03-2.3.35s-1.23.88-1.61,1.74c-1.77,3.76-4.55,5.62-8.46,6.98h0c-1.29.44-2.21,1.58-2.4,2.9-1.45-2.08-3.5-3.47-5.87-4.32-3.31-1.2-7.32-1.2-10.89-.51-.32-.22-.66-.44-1.1-.57l-3.25-1.07c-1.89-.63-3.98.38-4.64,2.27,0-.03-3.66,9.97-3.66,9.97-.41,1.07-.25,2.02.09,2.75.09.22.25.47.41.69-1.29,1.26-2.34,2.78-3.06,4.45,0-1.14-.03-2.24-.03-3.38v-.73c0-.13.03-.35.06-.44,1.48-1.01,2.05-2.97,1.26-4.58v-.03l-1.33-2.78c-.51-1.01-1.23-1.55-2.02-1.8s-1.67-.35-2.68.09h-.03c-.57.25-1.07.54-1.74.54h-2.49l7.01-4.48c1.01-.66,1.42-1.48,1.61-2.34s.09-1.77-.54-2.75v-.03l-2.37-3.5-.03-.03c-1.1-1.58-3.28-2.02-4.92-1.01l-.22.16c-3.72-2.27-7.89-3.5-12.34-3.22-6.76.44-13.19,3.22-17.9,8.11-5.62,5.84-7.99,13.04-7.04,21.65,1.07,9.44,7.04,16.64,16.48,18.72,6.66,1.48,13.19.38,19-2.9l.6.92c.73,1.14,1.8,1.67,3.13,1.67h2.94c1.14,0,1.93-.44,2.53-1.01s1.04-1.36,1.07-2.49v-.03c0-.92.03-1.8.03-2.71,1.14,2.49,3.03,4.58,5.74,5.87,4.32,2.02,8.84,1.58,12.72-.47.03.03.06.06.09.09.57.47,1.33.79,2.27.79h11.68c1.14,0,1.96-.47,2.53-1.01s1.07-1.39,1.07-2.59v-.63c.51,1.04,1.14,1.93,1.96,2.65,1.45,1.33,3.54,2.24,6.5,2.49,3.69.28,7.35-1.04,10.54-2.97.19.38.41.69.66.98.6.6,1.42,1.1,2.59,1.1h15.12c.73,0,1.29-.19,1.77-.44.47.28,1.07.44,1.77.44h14.9c1.17,0,1.96-.47,2.56-1.04s1.04-1.39,1.04-2.56v-3.03c6.34,9.56,20.33,9.69,28.69,2.34.06-.06.13-.13.19-.16v.88c0,1.17.47,1.96,1.01,2.53s1.39,1.07,2.59,1.07l15.5.03c1.17,0,1.99-.47,2.59-1.04s1.04-1.39,1.04-2.59h0v-3.25c0-1.14-.47-1.96-1.04-2.56-.47-.47-1.07-.85-1.89-.98l.06-9.5c.25-.13.57-.13.85-.06.92.13,1.86.51,2.81.92,1.1.51,2.08.35,2.87,0s1.55-.95,1.96-2.11l.6-1.74v12.69c-1.29.54-2.21,1.83-2.21,3.28v3.38c0,1.96,1.61,3.57,3.57,3.57h14.8c.92,0,1.77-.35,2.4-.95.57.54,1.36.95,2.46.95h14.9c.76,0,1.36-.19,1.83-.47.54.32,1.17.51,1.83.51h14.9c1.14,0,1.96-.47,2.53-1.04.38-.38.73-.88.92-1.52l1.33,1.29c.47.44.98.76,1.58.95-.73,2.4-.28,5.05,1.48,7.26,1.7,2.11,4.48,3.44,7.67,3.91l-.06-.19Zm-115.09-25.47c2.43,6.34,10.16,6.31,14.46,2.02.09-.09.16-.09.25,0l2.02,2.21c.06.06.06.13,0,.22-1.07,1.36-2.08,2.43-3,3.25-7.45,6.53-20.33,6.16-24.72-3.85-4.58-10.48,2.24-23.74,14.39-22.6,7.26.66,11.3,5.65,13.23,12.31.03.09,0,.19-.09.22l-16.45,6.06c-.06.03-.09.09-.06.16h-.03Zm5.59-7.58c-.73-2.56-2.53-7.54-6.19-6.5-3.57,1.01-2.02,6.98-1.29,9.34.03.09.06.09.16.06l7.23-2.71c.09-.03.13-.13.09-.19Zm-4.92-1.67c-.03-.32,0-.73,0-1.04.16.22.32.44.44.69.03.06.06.09.09.16l-.54.19Zm17.58,10.04l-1.01-1.1h-.03c-.82-.88-1.74-1.14-2.56-1.17s-1.8.22-2.65,1.07c-1.61,1.61-4.07,2.37-6.06,1.8l11.77-4.32h.03c.19-.06.35-.16.47-.22v3.98l.03-.03Zm49.12-12.88l-1.17.35c-.09.03-.16,0-.16-.13v-3.22c0-.09.06-.16.16-.19l12.66-3.44h.06c.09,0,.19.09.19.19v4.29c0,.16.06.16.19.09,3.85-3.22,7.89-5.59,13.1-4.2,3.91,1.01,5.33,4.32,5.33,8.18v17.65c0,.09.06.16.16.16h1.7c.09,0,.13.03.13.13l.03,3.31c0,.06-.03.09-.09.09h-14.87c-.09,0-.16-.06-.16-.16v-3.28c0-.09.06-.16.16-.16h1.93c.09,0,.16-.06.16-.16v-16.67c0-.85-.57-1.58-1.33-1.93-2.37-1.14-4.73.28-6.41,1.93-.06.06-.09.13-.09.22l-.03,16.45c0,.13.06.19.19.19h1.89c.13,0,.22.09.22.22l-.03,3.22c0,.09-.03.13-.13.13h-14.9c-.09,0-.16-.06-.16-.16v-3.22c0-.13.06-.16.16-.16l1.64-.06c.13,0,.19-.06.19-.19v-19.41c0-.09-.06-.16-.16-.16h-.03l-.47.13v.03h-.03v-.06h-.03Zm-27.71-6.06c.35.13.73.28,1.07.44.09.03.16.03.22-.06l.47-.88c.06-.09.16-.13.25-.09l3,1.01c.09.03.13.09.09.19l-3.47,9.79c-.03.13-.13.16-.22.09-3-1.29-6.31-2.27-8.43.88-.03.03-.03.09-.03.16l-.09,14.02c0,.13.06.19.19.19l2.62.03c.09,0,.16.06.16.16v3.25c0,.13-.06.16-.16.16l-15.5-.03c-.09,0-.16-.06-.16-.16v-3.28c0-.09.06-.16.16-.16h1.77c.09,0,.13-.03.13-.13l-.03-19.89c0-.09-.06-.16-.16-.16h-.06l-1.45.63c-.13.06-.22.03-.22-.13v-3.35c0-.06.06-.16.13-.16l11.58-3.13c.13-.03.19,0,.19.16v6.57s.03.06.06.06.06-.03.06-.03c.47-1.36.95-2.68,1.45-4.01.95-2.4,2.49-2.97,4.29-2.68.06-.22.16-.44.25-.66,0,0,0-.03.03-.03l.51.85c.38.09.79.22,1.2.38l-1.2-1.96s.03-.03.06-.06l1.2,2.02h.03Zm-163.2,9.88h-6.66c-.16,0-.22-.06-.22-.22v-4.26c0-.09.06-.16.16-.16,5.18,0,10.32-.03,15.47-.06,1.2,0,2.08-.38,3.13-.85.09-.03.16,0,.19.06l1.33,2.75c.03.09,0,.19-.06.22-1.52.95-1.64,2.49-1.61,4.1.09,5.9.09,11.77,0,17.68,0,.09-.06.13-.13.13h-2.94c-.09,0-.19-.03-.22-.13l-2.37-3.57c-.03-.06-.13-.09-.19-.09s-.09,0-.16.03c-5.68,4.07-12.28,5.65-19.07,4.17-7.89-1.74-12.88-7.83-13.76-15.72-.85-7.51,1.17-13.79,6.06-18.88,4.1-4.26,9.75-6.69,15.63-7.07,4.39-.28,8.46,1.23,11.93,3.82.09.06.19.06.28,0l1.99-1.26c.09-.06.19-.03.25.06l2.37,3.5c.06.09.06.19-.06.25l-12.63,8.08c-.09.06-.16.03-.22-.06l-2.02-3.09c-.06-.09-.06-.16,0-.25,1.64-2.21.32-5.18-2.37-5.4-5.68-.41-7.89,4.04-8.43,8.84-1.2,10.48,2.34,19.82,14.3,20.11.09,0,.13-.03.13-.13v-12.5c0-.06-.03-.13-.13-.13l.03.03Zm86.84-5.71c2.56-2.24,5.33-4.2,8.78-4.67,3.91-.54,7.83.66,9.19,4.67.32.95.47,2.59.51,4.99.03,3.76.06,7.51.06,11.27,0,1.2-.16,3.41,0,5.18,0,.13.06.19.19.19h1.7c.09,0,.16.06.16.16v3.28c0,.09-.06.16-.16.16h-14.9c-.09,0-.16-.06-.16-.16v-3.28c0-.09.03-.13.13-.16l1.96-.03c.13,0,.16-.06.16-.19-.03-5.21-.06-10.42-.03-15.63,0-1.61-.88-2.97-2.53-3.25-2.08-.35-3.79.38-5.08,2.18-.06.06-.06.16-.09.25l-.09,16.48c0,.09.06.16.16.16h1.93c.16,0,.22.06.22.22v3.19c0,.09-.06.16-.16.16h-15.12c-.09,0-.13-.06-.13-.16l.09-3.25c0-.09.06-.16.16-.16l1.86-.03c.09,0,.16-.06.16-.16v-29.2c0-.09-.06-.16-.16-.16h-.06l-1.7.57c-.13.03-.19,0-.19-.16l-.03-3.28c0-.13.06-.19.16-.22l14.87-5.11c.09-.03.13,0,.13.09v3.63c0,.19-.09.32-.28.38l-1.7.54c-.09.03-.16.09-.16.19l-.03,11.24c0,.16.06.19.19.09h.03Zm104.1,1.96l.44,3.25-.47-3.25h.03Zm46.62,15.88c-4.7-.79-9.03-3.79-9.75-8.71-1.52-10.2,7.42-14.99,16.22-13.64,1.04.16,2.08.32,3.13.47.09,0,.19-.03.19-.13.73-2.71,1.33-4.92,4.23-5.11,1.14-.06,2.27-.03,3.41.09h0c.09.03.19.13.16.22h0l-1.23,5.71c-.06.25-.16.28-.32.06-.51-.79-1.23-1.14-2.15-1.04-.09,0-.19.06-.25.13-.66.63-.66,1.26,0,1.86,1.07.95,2.34,1.96,3.13,3.09,3.31,4.86,2.34,11.87-2.84,15.15-3.06,1.96-6.91,2.97-10.29,3.82-.73.19-.69.28.03.35,4.67.35,14.33,1.77,14.05,8.43-.13,3.38-2.78,5.49-5.81,6.53-4.04,1.39-12.72,2.18-15.85-1.74-1.64-2.08-1.26-4.77.76-6.47,1.04-.85,2.27-1.42,3.66-1.64.19-.03.19-.06,0-.09-2.49-.38-4.99-.44-7.48-.22-.09,0-.22-.03-.28-.09l-3.72-3.6c-.09-.09-.06-.16.06-.16,3.76-.66,7.39-1.7,10.95-3.06.19-.06.19-.13,0-.16v-.06Zm3.57,13.16c.38,3.22,4.92,3.25,4.48-.41-.25-2.08-1.7-3.13-3.41-4.1-.13-.06-.19-.03-.25.06-.73,1.45-.98,2.94-.82,4.45Zm.44-16.76c1.58,1.26,4.29.98,4.83-1.23.82-3.44-1.58-15.91-7.35-13.79-2.84,1.04-1.36,7.23-.69,9.34.69,2.3,1.52,4.26,3.25,5.68h-.03Zm-.76-11.24c.19.22.35.51.47.79,1.14,2.15,1.8,5.18,1.83,7.13-.76-.92-1.1-2.08-1.52-3.38-.25-.88-.73-2.62-.79-4.23v-.32Zm-412.16,125.92l12.91.25c1.33,3.06,1.26,5.65-.13,7.8-.66.95-1.55,1.45-2.71,1.55-16.1,1.36-38.1,5.24-45.45-4.67l-5.33-84.94,30.65,4.67c1.23.19,1.89.92,1.99,2.15,1.77,23.93,3,47.79,3.63,71.56.03,1.86,1.52,2.4,4.42,1.64h.03Zm-200.79-66.23l5.11,34.85c.22,1.48,1.04,2.02,2.49,1.52l12.06-3.95c1.2-.38,1.93-1.61,1.74-2.84l-6.47-41.64,1.33-3c.92-.38,1.64-.54,2.11-.44.41.09.66.57.73,1.45,1.01,12.72,16.29,26.64,29.14,18.02,1.17-.79,1.86-.47,2.05.95l11.49,84.72-28.03,4.86c-1.8.32-2.84-.44-3.09-2.24l-6.72-46.34c-.22-1.48-1.01-1.96-2.43-1.39l-12.09,4.89c-1.23.47-1.74,1.39-1.52,2.71l4.7,28.47,1.77,16.54-28.25,6.16c-1.26.28-2.02-.22-2.24-1.45l-21.15-116.83,32.1-.44c1.26-.03,2.02.57,2.27,1.8l2.9,13.67v-.06Zm555.28-41.13h1.67c.06,0,.09.03.09.09l.03,3.38c0,.06-.03.09-.09.09h-14.8c-.06,0-.09-.03-.09-.09v-3.38c0-.06.03-.09.09-.09h2.02c.06,0,.09-.03.09-.09v-19.48c0-.06-.03-.09-.09-.09h-.03l-1.89.35h-.03c-.06,0-.09-.03-.09-.09l-.03-3.19s.03-.09.06-.09l12.85-3.63h.03c.06,0,.09.03.09.09v26.17c0,.06.03.09.09.09l.03-.03Zm-42.46-21.5c.35-.54.85-.95,1.48-1.23,0,0,.03,0,.03-.03l.09.41c-.51.66-.79,1.48-.73,2.37-.28-.54-.57-1.04-.85-1.52h-.03Zm-87.28.66h-2.65c-.09,0-.16-.06-.16-.16v-3c0-.09.06-.16.13-.19,4.86-1.7,8.24-4.1,10.45-8.84.03-.09.09-.13.19-.09l3.22.6c.13.03.16.09.16.22-.32,2.21-.41,4.42-.28,6.63,0,.13.06.19.19.19h4.77c.09,0,.19.09.19.19v.03l-.82,4.26c-.03.09-.09.16-.19.16h-4.07c-.09,0-.16.06-.16.16v16.57c0,3.22,3,3.16,5.05,1.77h0c.06-.06.19-.03.22.06h0l1.36,2.3c.06.13.06.25-.06.32-3.06,2.34-6.98,4.45-10.92,4.14-5.05-.41-6.44-3.25-6.47-7.83-.06-5.78-.06-11.55-.09-17.33,0-.09-.06-.16-.16-.16h.13Zm37.53,5.15c0,4.17,0,8.33.03,12.5-.16.06-.28.13-.41.19-.13-.09-.28-.16-.44-.22l.09-12.22c.22-.16.47-.25.76-.25h-.03Zm-18.59,11.11c-1.07-1.23-2.9-1.61-4.42-.82v-11.93h.76c.98,0,1.74-.35,2.3-.82s1.07-1.17,1.26-2.11v-.03l.09-.44v16.19-.03Zm152.37-5.84c.66,2.4,1.96,4.45,3.69,6.03-.79.19-1.58.35-2.4.47-.54.09-.95.25-1.33.47v-7.01l.03.03Zm-255.24,129.74l-29.07-1.99,3.35-92.08,1.89-1.07c.92-.54,1.89-.79,2.94-.76,19.63.85,39.3,1.17,58.93.98,8.18-.09,21.78-.35,19.89,12.12-1.52,9.85-2.62,20.04-3.35,30.65-3.91,2.4-8.43,3.98-13.54,4.73-1.33.19-2.3,1.33-2.3,2.68,0,.28.03.54.13.79l13.45,48.42-31.57-2.78c-1.33-.13-2.21-.82-2.59-2.08l-11.36-35.83c-.16-.6-.69-1.04-1.33-1.04-.73,0-1.36.6-1.36,1.36v.03l-1.77,33.74v.03c-.09,1.2-1.14,2.15-2.34,2.05h-.03l.03.03Zm7.29-72.92l-1.93,20.27c-.22,1.36.35,2.02,1.74,1.93,11.55-.57,19.44,3.31,18.25-14.9.63-9.28-3.72-12.91-16.22-9.5-1.14.32-1.74,1.04-1.8,2.18l-.03.03Zm296.09-18.75c-11.87,46.37-21.84,91.95-29.92,136.71v.06c-.22,1.07-1.26,1.77-2.37,1.55h-.06l-26.61-6.63c-1.33-.32-1.83-1.17-1.55-2.49,8.4-41.6,16.73-83.18,24.97-124.69.47-2.3,1.52-3.66,3.19-4.04l32.36-.44v-.03ZM76.78,331.93l6.53,27.24c.28,1.33.98,1.55,2.02.66l10.92-9.15c1.01-1.42,1.7-3.06,1.29-4.89-3.25-14.17-6.31-28.06-9.28-41.6-.66-3.09-2.37-3.79-5.05-2.11l-31,19.19c-1.17.73-2.53,1.1-3.91,1.1-3.38,0-6.34-2.3-7.2-5.59l-20.36-79.51c1.99-9.06,4.89-13.76,8.68-14.11,21.59-1.83,61.68-6.31,73.9,4.83.44.41.76.92.85,1.48l6.57,29.58c.25,1.17-.16,1.99-1.2,2.53l-25.13,12.94c-.09.03-.16.09-.25.09-1.2.44-2.56-.19-3-1.42-.03-.09-.06-.19-.06-.25l-4.32-18.28c-.44-1.8-1.58-2.59-3.44-2.34l-11.68,1.58c-1.42.19-1.96.98-1.67,2.4l2.49,11.27,6,23.96c.28,1.2.98,1.52,2.08.95l13.1-6.88c8.52-6.19,17.05-10.16,25.57-11.9,1.17-.22,2.37.28,3.06,1.29,7.7,11.46,11.62,45.04,17.83,70.77-4.01,7.17-9.63,13.73-16.79,19.63-13.73,11.27-35.7,16.73-53.31,22.44-.03,0-.09.03-.13.03-1.33.35-2.68-.44-3.03-1.74,0-.03-.03-.09-.03-.13l-8.52-39.84c-.69-2.37-.54-4.01.47-4.96,4.86-4.51,23.77-18.78,23.77-18.78.22-.09.44-.16.66-.16.76,0,1.42.51,1.58,1.26l2.02,8.36-.03.03Zm470.96-44.98l2.11,20.2c-6.76,3.22-14.99,3.91-24.72,2.11-1.04-.22-1.64-.82-1.8-1.86l-2.21-14.62c-.16-1.04-1.07-1.83-2.15-1.83-.19,0-.38.03-.54.06l-22.54,5.78c-.92.22-1.7.85-2.11,1.7l-4.51,9.66c-.54,1.1-1.39,1.67-2.59,1.67l-12.44.06c-1.74,0-3.19-1.45-3.19-3.19,0-.25.03-.51.09-.76l22.06-88.38c.25-.98.92-1.48,1.93-1.45l39.8.95c1.23.03,1.93.66,2.11,1.86l10.7,68.06-.03-.03Zm-33.05-44.51c-.09-.51-.51-.88-1.04-.88-.44,0-.85.28-.98.69l-13.26,40.69c-.03.09-.06.22-.06.35,0,.57.47,1.04,1.04,1.04.09,0,.16,0,.22-.03l18.47-4.32c.51-.13.85-.63.79-1.14l-5.21-36.4h.03Zm143.15-48.64c-3.5,3.19-8.24,4.67-12.69,2.56-7.42-3.5-6.22-15.72,1.48-18.31,2.75-.92,7.61-.57,10.98-.6.09,0,.13-.03.13-.13.09-2.02,0-4.14-2.24-4.83-3.72-1.1-6.06,1.36-7.99,4.17-.06.09-.16.13-.25.09l-3.47-1.29c-.09-.03-.13-.09-.09-.19l3.66-10.01c.03-.13.16-.16.28-.13l3.25,1.07c.09.03.13.09.09.19l-.38,1.2c-.03.13,0,.16.13.13,5.84-2.11,15.34-2.18,17.46,5.08.28,1.04.44,2.81.44,5.37v14.49c0,.13.06.19.19.19h1.55c.13,0,.19.06.19.19l-.03,3.25c0,.09-.06.13-.13.13h-11.68c-.09,0-.16-.03-.16-.13l-.57-2.43c0-.06-.06-.09-.13-.09s-.06,0-.09.03h.06Zm-6-4.26c.95,1.93,4.14,1.99,5.3.25,1.1-1.58.63-6.44.66-8.46,0-.09-.03-.13-.13-.13-2.18-.19-4.39.13-5.65,1.93s-1.2,4.45-.22,6.44l.03-.03Zm2.97-1.86c.06.09.09.22.16.32-.06-.09-.09-.22-.16-.32Zm89.81,60.32l-31,7.8c-1.48.38-2.15-.22-2.02-1.74l1.07-10.57v-.22c.13-2.3-1.7-4.32-4.04-4.42h-11.17c-1.52,0-2.37.76-2.49,2.24l-2.37,22.32c-.16,1.64.57,2.34,2.21,2.08l46.59-7.23-8.46,60.01c-14.58,2.94-27.08,6.03-42.14,4.26-12.18-1.42-24.31-3.03-36.33-4.83l3.13-28.28,29.39-6.09c1.55-.32,2.27.32,2.18,1.86,0,0-2.05,18.47-2.05,22.79,0,1.48.73,2.11,2.18,1.83l13.04-2.49c1.23-.22,1.89-.98,2.05-2.21l3.66-29.92c.22-1.48-.41-2.15-1.93-1.99l-46.21,5.59,4.89-51.2c.54-5.68,3.63-8.78,9.31-9.25,16-1.33,57.77-4.39,71.15,3.6,1.07.66,1.55,1.58,1.42,2.81,0,0-2.05,23.26-2.05,23.26Zm-535.9,19.57l-27.71,13.1c-1.23.57-1.96.19-2.21-1.14l-5.78-31.63c-.32-1.58-1.26-2.3-2.87-2.15l-12.59,1.17c-1.33.13-1.89.82-1.64,2.15l17.36,87.56,43.56-8.52c1.2-.22,2.15.16,2.84,1.17,1.86,2.75,2.56,6.09,2.08,10.04-.47,1.26-1.42,2.05-2.81,2.34-24.43,5.15-48.36,11.24-71.78,18.25-.16.06-.32.06-.47.06-.79,0-1.48-.57-1.67-1.36l-25-116.42c-2.02-10.07.22-17.83,6.69-23.26,10.89,23.77,28.69,4.51,44.89,1.45,13.7-2.78,22.92-1.26,27.71,4.51,4.89,5.9,7.77,31.6,9.41,42.68Zm134.98-49.21l14.87,10.45c.85.6,1.93.76,2.9.38,13.19-5.08,16.54-11.08,34.53-10.48l6.66,83.87c-13.86,8.27-23.64,12.72-29.32,13.42-15.44,1.77-31.16,3.76-47.22,5.93l-12.31-94.32c-.03-.19-.03-.38-.06-.57-.28-4.61,3.28-8.62,7.86-8.9.19,0,.41-.03.6,0l21.46.28.03-.06Zm4.64,21.84l5.97,63.48c0,.06,0,.13.03.19.19,1.01,1.14,1.7,2.15,1.52.06,0,.13-.03.19-.03l13.1-3.76c1.23-.35,1.74-1.17,1.55-2.43l-6.12-60.48c-.13-1.29-.82-1.89-2.11-1.77l-13.07,1.26c-1.26.13-1.8.79-1.67,2.02Zm383.49-50.32l-.38-.19c0-.25.03-.51.03-.76.09.32.22.63.35.95Zm77.4-.06v-14.68c.28.51.66.88,1.01,1.14.19.13.35.25.57.35v13.13c-.32.16-.6.35-.82.57-.22-.22-.47-.41-.76-.54v.03Zm-192.55-20.93h-.69c-1.17,0-1.99.47-2.59,1.04s-1.04,1.39-1.04,2.59v4.26c0,1.2.47,2.02,1.07,2.62s1.42,1.07,2.62,1.07h3.31v5.4c-1.96-.47-3.5-1.39-4.67-2.62-2.87-3.09-3.44-7.99-2.84-13.19.32-2.87,1.23-5.9,4.51-5.81-.92,1.33-.95,2.68-.03,4.07l.38.57h-.03Zm56.22,21.43c-.22-.19-.47-.38-.73-.51v-11.65c0-1.1-.03-2.08-.09-2.94.22.09.47.16.73.22,0,4.7.03,9.41.06,14.11,0,.25,0,.54.03.79v-.03Zm316.32,44.95l-13.54,59.69c-.47,2.02-2.05,3.6-4.04,4.07l-46.34,11.11c-2.11.51-3.79,2.18-4.26,4.32l-12.5,56.25c-.25,1.1-1.23,1.89-2.37,1.89-.25,0-.51-.03-.76-.13l-26.64-8.78,29.99-140.75c.35-1.58,1.33-2.37,2.97-2.37,21.05.35,42.68.98,64.84,1.89,8.55.35,12.78,4.61,12.66,12.75v.03Zm-61.87,59c1.7.13,14.65-2.97,14.65-2.97,1.26-.22,2.05-.95,2.37-2.18l6.85-28.85c3.06-6.12-1.8-8.55-14.52-7.32-.98.09-1.55.6-1.77,1.55l-8.81,38.07c-.25,1.04.16,1.61,1.2,1.7h.03Zm-130.71-128.22c-3.09-1.36-2.43-4.77-.32-6.6,1.77-1.52,3.98-2.05,6.6-1.64,2.18.35,3.5,1.77,3.25,4.01-.41,3.79-6.82,5.4-9.56,4.2l.03.03Zm32.04,23.61v-12c.16-.13.35-.22.51-.32.13-.06.25-.13.41-.19v12.47c-.16.06-.32.16-.47.22-.16-.09-.28-.16-.47-.22l.03.03Zm-19.44-17.46c.38-.95,1.2-1.74,2.24-2.02h.06l.79,5.78c-.88-.6-1.48-1.61-1.48-2.75v3.38c-.73-.38-1.29-1.01-1.58-1.77v-2.59l-.03-.03Zm4.67,17.14c-.22,0-.41.03-.6.09-.35.09-.66.22-.95.38v-.41s1.55-.06,1.55-.06Zm-19.19,34.79l-8.14,47.66c-.22,1.33.32,2.11,1.67,2.27,2.05.28,12.47-1.8,14.68-3,1.1-.6,1.86-1.7,2.11-2.94l8.55-47.25c.19-1.01.79-1.55,1.83-1.55l19.7-.16c4.07-.51,7.26.6,9.53,3.35.79.98,1.04,2.08.79,3.28l-23.04,119.45c-.28,1.42-1.14,2.08-2.59,1.89-10.39-1.17-19.79-3.79-28.16-7.86,0,0,9.72-49.72,9.22-52.81-.22-1.29-.95-1.83-2.24-1.58l-12.41,2.37c-1.55.32-2.46,1.23-2.71,2.78l-7.86,45.08c-.22,1.17-.88,1.61-2.02,1.39l-28.57-5.71,17.65-110.35c.25-1.52,1.14-2.27,2.65-2.27h27.84c1.26,0,1.86.63,1.77,1.89l-.28,4.17.03-.09ZM187.57,55.51c.51,0,1.01-.03,1.52-.13l-1.52.13Zm228.63,89.3c-.76-2.05-3.6-9.31-4.01-10.35h0c-6.63-16.16-13.86-32.04-21.69-47.63l-6.34-11.71s0-.03-.03-.03c-4.17-8.08-7.1-16.6-8.78-25.54,0-.03,0-.06-.03-.09l-.6-4.73v-.09c-.38-5.33-.13-10.57,1.33-15.72l-3.98-2.11-3,1.01s-.09.03-.13.03c-2.21.57-4.48.98-6.82,1.23-3.09.38-6.19.6-9.25.66h-.03c-9.82.06-19.89-.79-29.64-3.13l-2.49,3.88c4.55,2.24,9,4.64,13.38,7.23.03,0,.03.03.06.03,3.95,2.49,6.94,5.21,8.49,9.75.03.06.03.13.06.19.54,2.43.35,4.51-.47,6.25-2.24,4.7-5.24,9.69-8.96,14.93-.92,1.26-1.86,2.49-2.84,3.69-1.58,1.89-2.68,3.09-3.28,3.6-.69.57-1.26,1.07-1.67,1.61-.22.32-.41.6-.41.92,0,.57.38,1.14,1.07,1.89,2.05,2.27,4.14,4.51,6.22,6.79.35.38.73.79,1.14,1.07.25.19.54.28.88.09,1.14-.63,2.3-1.36,3.41-1.8,2.53-.98,4.89-1.07,6.94-.47,3.06.88,5.56,3.22,7.23,6.6,1.7,3.47,3.44,6.98,5.15,10.45,7.61,15.44,15.12,30.97,21.46,46.97,1.86,4.67,4.42,11.27,4.67,16.79v.03c.13,5.87-2.62,10.73-6.41,15.03,0,0,0,.03-.03.03l-3.54,3.82-.06.06c-3.54,3.41-7.2,6.76-10.98,9.97l2.97,3.16c3.98-2.49,8.24-4.45,12.75-5.81,9.41-2.84,19.13-3.98,28.95-3.98,15.06,0,29.8,2.18,44.22,6.47.35-.76.66-1.55.98-2.3-3.98-3.54-8.55-6.31-12.94-9.25-4.8-3.19-9.41-6.6-13.04-11.3-3.22-4.17-4.36-8.62-5.59-13.64v-.06c-.98-4.64-2.43-9.47-4.29-14.49h-.03Zm-128.44,63.67l5.4,3.03c5.27-7.95,12.53-15.15,19.98-20.99,4.04-3.19,8.52-6,13.48-7.67-1.89-8.08-4.7-16.29-7.61-23.9v-.03l-1.67-4.51c-1.99-5.15-4.04-10.29-5.24-15.66-2.56-11.33-.95-23.04,5.15-32.95.03-.03.03-.06.06-.09.69-.98,1.58-1.96,2.24-2.97.38-.57.69-1.1.63-1.74-.03-.38-.25-.76-.63-1.17-3.63-4.14-6-6.79-7.1-7.92-1.17-1.2-2.27-.38-3.5.54-3.6,2.78-6.88,5.9-9.85,9.34-.66.76-1.39,1.1-2.08,1.2-.76.09-1.55-.13-2.34-.79-1.07-.92-2.43-2.43-4.07-4.55h0c-4.36-5.65-7.92-11.65-11.55-17.74,0-.03-.03-.03-.03-.06-3.85-7.04-7.92-13.92-12.25-20.68-4.39-6.85-9.25-13.29-13.29-20.36-1.36-2.4-2.34-4.8-2.94-7.2h-1.1c-13.29-.38-52.62-1.07-52.05-1.64-.57.57-3.09,4.83-3.09,4.83,1.07.22,6.94,1.67,7.61,1.86,5.71,1.64,11.17,4.14,11.21,11.24v.13c-.19,2.62-.66,5.24-1.42,7.8l-.95,3.5s-.03.06-.03.09l-3.98,11.74c-1.29,3.69-2.71,7.35-4.29,11.02-.09.19-.22.35-.13.51.06.09.16.16.32.22,1.7.95,5.08,2.56,10.16,4.86.6.25,1.42.73,2.24.95.16.03.35.09.51.09.09,0,.16.06.22,0,.32-.35.57-.57.63-.76,1.17-3.03,2.59-6.06,4.26-9.03.06-.09,3.66-4.32,3.66-4.32,2.02-1.89,4.39-2.46,7.1-1.74.06.03.13.03.19.06,2.65,1.07,5.11,2.75,7.39,5.02,12.97,13.01,22.1,29.74,29.26,46.5h0c4.64,11.05,8.52,22.32,11.71,33.87,3.06,10.67,5.59,21.53,7.17,32.51v.03c.76,5.97,1.2,11.46.44,17.27.03.06.09.16.13.22l.06.03Zm404.99-65.97c2.24,1.39,4.36,1.58,6.19,1.2s3.76-1.39,5.27-3.6c.98-1.42,2.18-2.62,3.63-3.57,10.39-6.98,27.49-10.7,39.33-5.49,2.05.92,3.76.98,5.3.66,1.42-.32,2.9-.98,4.32-2.56,1.01-1.14,2.87-3.03,3.91-4.51,1.42-1.99,1.89-3.95,1.93-5.18v-.06c.03-1.67-.47-3.22-1.48-4.55-.69-.95-1.39-1.61-1.96-2.11h0c-6.28-5.27-12.69-11.33-14.3-19.73-.51-2.65-.47-5.81-.25-8.59.47-5.62.88-10.45.92-15.88.03-5.49.25-10.95.66-16.45.38-4.96,1.17-11.9,4.83-15.72,1.48-1.58,3.28-2.21,5.24-3,3.88-1.55,5.97-5.9,4.67-9.88h0c-.66-2.05-1.36-4.14-2.11-6.19-1.93-5.24-6.47-6.03-10.61-5.11h0c-4.2.92-8.43,1.64-12.69,2.15-10.01,1.14-20.04,1.61-30.11,1.42-3.41-.06-6.82-.32-10.23-.76h0c-3.82-.47-6.34,1.1-7.95,3.82h0c-1.1,1.89-2.27,4.2-3.47,6.88h0c-.79,1.8-.85,3.85-.13,5.68.98,2.46,2.75,4.29,5.52,5.24h0c10.86,3.79,13.13,14.77,12.94,25.13-.22,12.03-.19,23.86-2.43,35.73-1.74,9.31-4.58,19.35-11.05,25.92-1.48,1.52-2.05,2.81-2.34,4.01-.32,1.39-.44,2.94.54,5.18s1.96,4.48,3,6.66c.6,1.29,1.58,2.4,2.81,3.19l.03.03c.22.16.09.06.03.03h.03Zm12.18-10.26c-3.25,2.27-7.01,9.38-9.44,5.87h0c-3.38-3.98-4.2-8.93-4.07-9.47.09-.47.38-.95.95-1.55,7.2-7.26,10.54-18.28,12.5-28.6,2.27-12.18,2.3-24.27,2.49-36.58.22-12.59-3.25-25.54-16.45-30.11-1.2-.44-2.02-1.2-2.43-2.27-.22-.54-.19-1.1.03-1.64,1.14-2.49,2.21-4.64,3.22-6.41.57-.95,1.45-1.45,2.81-1.29,3.57.47,7.17.73,10.8.79,10.29.22,20.58-.28,30.81-1.45,4.45-.51,8.87-1.26,13.23-2.21,1.74-.38,3.82-.38,4.61,1.8.73,1.99,1.42,3.98,2.05,5.97.44,1.39-.28,2.94-1.64,3.47-2.68,1.07-5.02,2.08-7.07,4.23-4.45,4.64-5.81,12.91-6.28,18.94-.44,5.59-.66,11.21-.69,16.82-.03,5.27-.44,9.97-.88,15.44-.28,3.22-.28,6.91.32,10.04,1.86,9.56,8.87,16.7,16.07,22.73.35.28.73.69,1.14,1.26.28.38.44.85.44,1.33h0c0,.57-.32,1.42-.98,2.34-.19.28-.41.57-.66.85.85,1.01,1.52,1.86,1.61,1.99l-1.77-1.83c-.92,1.07-2.02,2.24-2.71,3.03-.51.57-1.04.82-1.55.95-.63.13-1.29.03-2.11-.35-13.29-5.84-32.73-2.08-44.32,5.93Zm-8.59-104.96c15.85,7.7,17.87,24.91,17.17,40.81-.22,5.33-.22,11.33-.51,15.37-.47,6.79-1.42,13.48-2.84,20.11-1.96,8.96-5.24,18.21-11.08,25.44,6.88-5.81,16.1-9.09,24.94-10.64,8.49-1.58,17.87-1.58,25.79,1.48l.06-.09c-4.32-3.82-8.24-7.83-11.4-12.72-4.58-7.07-5.84-14.58-5.21-22.92.38-5.11.95-10.26.95-15.4-.03-4.83.09-9.66.41-14.49.38-6.12,1.2-12.12,3.41-17.93v-.03c.76-1.89,1.77-3.79,3.03-5.62,0,0,0-.03.03-.03,1.89-2.62,4.23-4.67,6.98-6.12l-.09-.54c-14.55,2.71-29.48,3.54-44.26,3.13-2.65-.06-5.11-.22-7.32-.47l-.03.66h-.03Zm-315.6,171.69c4.26-.85,9.31-1.26,15.91-1.04,3.09.09,6.03.88,8.62,2.18,2.75-.73,5.65-.92,8.52-.47l30.62,4.67c3.76.57,6.85,1.83,9.44,3.57,1.07-.13,1.99-.47,2.81-.88,1.48-.79,3-2.11,4.07-4.67h0c.92-2.18,1.8-4.36,2.68-6.57,1.14-2.9.79-5.71-1.48-8.33-4.29-4.92-9.88-8.43-15.4-11.96-4.23-2.68-8.43-5.33-11.36-9.44-1.64-2.3-2.34-4.48-2.97-7.32-1.58-7.04-3.66-13.95-6.31-20.68-.63-1.64-1.29-3.25-1.93-4.89.41.16.85.25,1.33.35,2.4.44,5.15.51,8.24.16,2.62-.32,6.25-.6,10.86-.88,4.89-.32,9.38-.19,14.11.54,5.02.79,7.95-2.53,9.25-5.78,1.86-4.73,3.13-7.83,3.76-9.28.88-2.05,2.08-4.92,3.69-7.23.51-.73.95-1.45,1.61-1.77,1.89-.85,3.98-1.86,5.4-3.19,4.2-3.95,4.48-8.21,3.54-13.98-.6-3.79-1.86-7.17-3.69-10.23-2.78-4.61-7.1-6.31-12.53-6.09-1.04.03-2.08.13-3.13.25.44-1.29.85-2.68,1.23-4.2.85-3.19.69-5.78.03-7.95-.98-3.16-3.19-5.81-7.04-8.08-1.96-1.17-4.45-2.65-6.91-3.63-2.49-.98-5.02-1.39-7.23-1.17h0c-6.47.66-9.63,4.14-11.74,10.04-2.97,8.27-6.79,15.97-12.03,22.98-3.69,4.92-6.12,8.81-7.95,14.11-1.04,3.03-1.64,6.09-1.83,9.12-3.79-8.36-7.77-16.67-11.9-24.91-2.24-4.42-5.27-9.63-7.07-13.23-5.56-11.02-10.7-26.2-6.41-38.32h0c.85-2.43.69-4.32.19-5.84-.57-1.7-1.64-3.38-4.07-4.77-3.5-1.99-6.09-3.35-7.73-4.1-2.84-1.33-5.08-.92-6.57-.32-4.04,1.64-8.49,2.24-12.82,2.46-8.78.44-17.49-.09-26.14-1.67-2.11-.38-4.17-.92-6.16-1.55-3.41-1.07-7.13.25-9.09,3.25-1.93,2.97-3.82,5.9-5.71,8.84-1.93,3.03-1.74,5.65-.88,7.77.69,1.74,2.08,3.47,4.55,4.64,5.02,2.43,9.94,5.05,14.77,7.83,1.01.6,2.59,1.61,3.57,2.87-1.99,3.88-4.51,7.95-7.54,12.25-1.64,2.3-3.47,4.42-5.49,6.38-3.35,3.25-5.27,6.98-4.73,11.27-4.51-1.01-8.52.82-12.69,4.2-1.26,1.01-2.46,2.05-3.66,3.16-2.56-3.57-4.86-7.39-7.32-11.77-3.44-6.06-6.94-12.09-10.57-18.02-3.95-6.5-8.4-12.82-12.66-19.13-2.21-3.31-4.77-6.76-5.21-10.8h0c-.28-2.37-1.33-4.07-2.71-5.3-1.29-1.14-3-1.96-5.33-2.05-17.68-.51-35.35-.98-53.03-1.48-1.33-.03-2.62-.06-3.91-.09-2.49-.06-4.86,1.07-6.44,3-2.62,3.25-5.21,6.6-7.77,10.07h0c-2.37,3.22-2.08,6.31-.95,8.65,1.01,2.08,3.03,4.04,6.25,4.67h0c4.67.92,9.94,1.64,14.11,3.54-.13,1.52-.69,3.09-1.04,4.42-2.21,7.8-4.86,15.47-7.99,22.95-.92,2.24-1.36,3.5-1.42,3.79v.06c-.85,3.69-.16,6.63,1.48,9-.63.16-1.23.35-1.83.6-2.4,1.04-4.7,3.03-6.22,6.72-3.06,7.54-6.34,15.06-9.06,22.73-6.38,17.99-12.06,36.62-21.31,53.31-4.61,8.3-11.96,14.49-19.95,19.76h0c-2.43,1.61-3.72,3.98-3.76,6.53.22.03.44.09.66.13,1.8.41,3.5,1.04,5.08,1.86l-.09-.16c-.76-1.52-.44-3.13.95-4.04,8.71-5.71,16.64-12.53,21.65-21.59,9.38-16.95,15.21-35.83,21.65-54.1,2.68-7.61,5.97-15.06,9-22.54.85-2.11,2.08-3.28,3.47-3.91,1.96-.85,4.36-.51,6.85.63,3.22,1.45,6.44,2.94,9.66,4.39,2.81,1.26,5.18,3.31,5.18,6.6,0,1.83-.35,3.5-1.04,5.02-3.54,7.77-6.6,15.15-9.19,22.16-2.4,6.53-5.11,12.91-7.45,19.48-2.4,6.76-4.86,15.06-2.71,22.13,1.42,4.67,6.06,8.08,10.42,9.91.82.35,1.39,1.14,1.42,2.02.13,2.15.16,4.29.06,6.53-.03,1.07-.38,1.77-.79,2.24-.47.54-1.07.82-1.8.92-.6.09-1.29,0-1.99-.09-13.64-1.83-27.15-.54-40.53,3.91-6.09,2.02-11.49,4.83-16.16,8.4t-.06.06c7.45-3.06,15.28-7.04,22.7-8.46,14.36-2.9,25.66-1.77,34.15,1.74,3.31-2.24,7.26-3.5,11.33-3.54-1.2.03-1.7-2.4-1.61-4.96.09-2.4.06-4.73-.09-7.01h0c-.16-2.87-1.96-5.4-4.61-6.5-3.03-1.26-6.47-3.38-7.45-6.63-1.83-6.03.6-13.1,2.65-18.88,2.34-6.53,5.05-12.91,7.42-19.41,2.53-6.88,5.52-14.14,9.03-21.78.98-2.15,1.52-4.55,1.52-7.17,0-2.27-.6-4.26-1.64-5.93.88-.19,1.74-.47,2.56-.85,2.46-1.17,4.73-3.25,6.28-6.88.92-2.15,1.89-4.26,2.94-6.34h0c.06-.13.16-.25.22-.41.95.85,1.8,1.77,2.34,2.34,7.29,7.8,13.19,16.95,18.12,26.39,10.8,20.68,18.02,43.15,22.98,65.91,1.36,6.22,2.46,12.63,2.84,19.03,1.77.6,3.6,1.45,5.3,2.65-.19-7.64-1.42-15.34-3.06-22.79-5.08-23.2-12.44-46.12-23.45-67.2-5.15-9.85-11.3-19.41-18.94-27.53-1.01-1.07-2.94-3.09-4.86-4.32-.54-.35-1.07-.63-1.61-.79-.32-.09-.57-.16-.85-.06-.44.16-.92.66-1.42,1.2-.98,1.1-1.86,2.49-2.27,3.28-1.1,2.18-2.15,4.42-3.09,6.69-.92,2.18-2.21,3.47-3.69,4.17-2.15,1.01-4.77.73-7.54-.57-2.05-.95-5.27-2.46-9.6-4.55-1.67-.79-3.19-1.8-4.17-3.13-.32.06-.63.09-.95.09l.66-.51c-.79-1.26-1.1-2.78-.66-4.67h0c.06-.22.44-1.23,1.17-3,3.19-7.67,5.9-15.53,8.18-23.52.51-1.8,1.2-4.04,1.26-6.09.06-1.55-.25-3-1.74-3.79-4.73-2.53-11.02-3.5-16.6-4.58-1.29-.25-2.18-.98-2.56-1.8-.44-.92-.44-2.08.47-3.31,2.53-3.41,5.05-6.69,7.64-9.88.57-.69,1.42-1.1,2.3-1.07,1.26.03,2.56.06,3.85.09,17.68.51,35.35.98,53.03,1.48.88.03,1.55.32,2.05.76s.88,1.1.98,1.99c.54,4.86,3.41,9.12,6.06,13.1,4.2,6.28,8.59,12.5,12.53,18.94,3.6,5.9,7.1,11.87,10.48,17.9,3.69,6.53,7.04,11.84,11.3,17.01,2.37-2.46,4.86-4.77,7.48-6.91,3.47-2.81,6.69-4.45,10.73-2.18.85.47,2.05,1.52,3.47,3.13,1.17,1.33,2.37,2.62,3.54,3.95,1.26,1.39,2.4,2.65,3.22,3.91.98,1.55,1.52,3.09,1.36,4.8-.13,1.39-.73,2.94-2.08,4.67-8.46,10.92-9,25.13-4.2,37.78,4.92,13.04,9.97,26.01,13.04,39.65.44,1.93-.22,3.72-2.3,4.17-4.83,1.04-9.15,3.66-13.01,6.6-1.7,1.29-3.38,2.65-4.99,4.07,2.34-.79,4.83-1.26,7.42-1.42.69-.03,1.39-.06,2.11-.06h.73c2.68-1.86,5.62-3.44,8.87-4.14,2.24-.47,3.82-1.64,4.89-3.09,1.45-1.93,2.02-4.55,1.39-7.32-3.13-13.86-8.24-27.08-13.26-40.34-4.17-10.98-3.91-23.3,3.44-32.77,2.11-2.71,2.94-5.18,3.16-7.35.09-.85.06-1.67-.03-2.49,1.2.22,2.43.28,3.76.13,1.93-.22,4.23-1.48,6.12-2.34.44.79.82,1.64,1.23,2.43,6.6,13.16,12.94,26.45,19.03,39.84,3.54,7.8,7.13,15.94,9.44,24.21,1.26,4.48-.19,7.32-3.16,10.7-4.45,5.05-9.69,9.53-14.84,13.89-3.16,2.65-3.91,5.18-3.79,7.48.03.69.16,1.52.51,2.43,2.02.63,3.98,1.58,5.71,2.84l6.72,4.73c.16-.09.35-.16.51-.25-.09-.09-.22-.16-.32-.28-1.36-1.36-3.57-3.76-6.66-7.17-.95-1.07-1.26-1.89-1.33-2.59-.06-1.04.51-2.02,1.93-3.22,5.33-4.48,10.76-9.15,15.4-14.43,4.29-4.86,6.09-9.06,4.26-15.53-2.4-8.49-6.06-16.92-9.72-24.94-6.12-13.45-12.5-26.8-19.13-40.03-.54-1.1-1.07-2.27-1.77-3.31-.54-.82-1.2-1.58-2.11-1.99-.98-.44-1.99-.41-3.03,0-1.64.66-3.85,2.18-5.68,2.4-2.71.35-4.83-.92-6.69-2.9s-3.69-3.98-5.52-5.97c-1.74-1.89-2.78-3.35-3.16-4.29-1.52-3.66-.09-6.63,2.56-9.19,2.24-2.18,4.29-4.55,6.09-7.13,3.5-4.96,6.38-9.66,8.55-14.11.57-1.17.16-2.37-.54-3.44-1.39-2.21-4.01-4.07-5.68-5.05-4.92-2.84-9.97-5.52-15.09-8.02-1.04-.51-1.67-1.2-1.99-1.93-.35-.82-.35-1.86.41-3.03,1.86-2.94,3.76-5.87,5.68-8.81.69-1.04,1.99-1.52,3.19-1.14,2.21.69,4.48,1.29,6.79,1.7,9.03,1.64,18.15,2.24,27.34,1.74,4.92-.25,9.91-.98,14.52-2.84.54-.22,1.39-.28,2.43.19,1.58.73,4.01,2.05,7.35,3.95.98.57,1.48,1.2,1.7,1.89.22.66.22,1.45-.16,2.46-4.73,13.38.54,30.24,6.66,42.39,1.8,3.6,4.86,8.81,7.07,13.23,9.09,18.06,17.33,36.52,24.72,55.37,2.53,6.47,4.55,13.1,6.06,19.92.79,3.6,1.74,6.28,3.82,9.22,3.31,4.64,8.02,7.73,12.78,10.8,5.11,3.25,10.32,6.44,14.3,10.98.82.95.98,1.96.57,3-.85,2.15-1.74,4.29-2.62,6.44-.47,1.1-1.04,1.74-1.7,2.08-.69.38-1.58.47-2.81.09-15.44-4.89-31.28-7.17-47.51-6.85-7.58.16-15.66,1.04-23.2,3.31l-.03-.13Zm76.36-114.99c3.98-1.89,8.14-2.94,12.56-3.09,3.38-.13,6.16.73,7.89,3.6,1.52,2.49,2.53,5.3,3.03,8.36.63,3.82.82,6.76-1.96,9.38-1.04.98-2.62,1.61-4.01,2.24-1.42.66-2.65,1.99-3.72,3.5-1.83,2.62-3.19,5.84-4.2,8.14-.63,1.48-1.93,4.64-3.82,9.44-.51,1.33-1.58,2.87-3.63,2.56-5.11-.79-9.94-.92-15.21-.57-4.73.28-8.46.6-11.14.92-2.49.28-4.7.25-6.66-.09-1.42-.25-2.56-1.23-3.35-2.59-4.8-8.05-6.31-17.24-3.25-26.11,1.64-4.8,3.91-8.24,7.23-12.69,5.52-7.42,9.6-15.56,12.75-24.34,1.36-3.82,3.22-6.19,7.39-6.63,1.48-.16,3.16.19,4.83.85,2.18.85,4.39,2.21,6.12,3.22,2.49,1.48,4.07,3.09,4.73,5.18.44,1.39.44,3.06-.09,5.08-.98,3.69-2.08,6.72-3.25,9.12-.73,1.48-1.48,2.97-2.21,4.42l-.03.09Zm-29.01,38.38c.22.03.73.13,1.07.13,1.1.03,2.27-.06,2.59-.09,9.28-1.01,17.23-1.7,26.01-.73,2.02-5.3,4.14-10.57,6.98-15.59,2.08-3.63,4.96-6.25,8.62-7.92.66-.32,1.1-.54,1.29-.92.13-.25.13-.57.09-.92-.03-.63-.16-1.36-.28-2.18-.32-2.02-.95-3.95-1.89-5.75-.41-.76-.85-1.33-1.74-1.33-7.35.09-12.53,2.97-18.4,7.1-1.29.92-2.46.82-3.35.35-1.23-.63-2.02-2.3-1.45-4.14,2.34-7.35,7.04-13.51,8.84-21.02.32-1.26.6-2.3-.51-3.03-2.08-1.39-4.39-2.65-6.91-3.72-.85-.38-1.55-.47-2.11-.19-.63.32-1.01,1.04-1.36,1.96-3.69,10.04-8.24,19.26-14.74,27.62l-1.58,2.24c-6.03,8.81-6.85,18.97-1.2,28.16l.03-.03Zm-240.85,45.77c0-.16.25-3.63.51-5.08h0l.69-3.88s.03-.09.03-.13c2.46-9.6,6.44-18.34,9.82-27.59,2.75-7.51,5.81-14.87,9.15-22.13.44-.98.79-1.99.98-3.06.09-.51-.25-.76-.63-.98s-.79-.38-1.23-.54c-.03,0-.06-.03-.09-.03-2.9-1.33-5.78-2.65-8.65-3.98-.6-.28-1.14-.57-1.67-.76-.19-.06-.47-.13-.57-.13-.03.03-.06.09-.09.13-.09.16-.19.35-.28.57-2.08,5.43-5.62,13.13-8.33,20.68-2.34,6.53-4.64,13.07-6.88,19.67v.03c-4.55,12.94-9.72,26.7-16.89,38.79-4.83,8.14-12.28,14.74-20.11,20.17l.82,1.55c3.44-2.37,7.13-4.2,11.05-5.75,9.28-3.69,18.91-5.84,28.88-6.44,5.4-.35,10.8-.22,16.19.38v-.44c-3.85-2.05-7.7-5.11-9.88-8.71-2.15-3.54-2.62-5.87-2.84-12.28l.03-.06Zm711.37,230.08c-260.51-86.24-519.83-86.59-786.09,0l16.1,69.95s186.11-58.87,374.91-59.22c205.94-.38,377.56,59.22,377.56,59.22l17.52-69.95Zm-217.3-2.43c8.33,1.17,16.67,2.34,25,3.47.41.06.79,0,1.2-.03.09,0,.19-.06.25-.09.44-.44.79-.95,1.01-1.55.03-.09.09-.13.19-.13l.88.09c.09,0,.16.09.13.19l-1.99,14.3c-.03.19-.22.35-.41.32h-.06l-.47-.16c-.09-.03-.16-.09-.19-.22-.32-1.23-.41-1.99-1.89-2.18-13.13-1.83-26.26-3.63-39.39-5.46-.09,0-.16-.06-.16-.16-.13-1.39.95-.98,1.61-1.36.82-.44.98-1.89,1.07-2.71,1.8-13.76,3.13-23.55,4.01-29.39.44-2.9,1.17-5.93.76-7.64-.03-.09-.09-.19-.19-.25l-1.36-.82c-.06-.03-.06-.09-.06-.13l.09-.82c0-.13.09-.16.19-.16,12.91,1.77,25.82,3.57,38.73,5.33.66.09,1.33.09,1.99.06.09,0,.16-.06.19-.13l1.07-1.58c.03-.06.09-.09.16-.06l.76.09c.09,0,.13.06.13.16l-1.99,14.49c-.03.16-.09.19-.22.16l-.85-.25c-.09-.03-.16-.13-.16-.22.06-1.67-.88-2.02-2.37-2.24l-24.53-3.41c-.09,0-.16.03-.16.13l-.88,6.25c0,.09.03.16.13.16,5.3.73,10.57,1.64,15.88,2.15.79.06,1.29-1.04,1.58-1.58.06-.09.13-.13.22-.13h.79c.16,0,.25.09.22.25l-1.74,12.72c-.03.16-.09.19-.25.16l-.92-.22c-.09-.03-.16-.09-.19-.22-.19-1.2-.35-1.99-1.64-2.15-5.08-.69-10.16-1.42-15.25-2.11-.09,0-.16.03-.16.13l-.95,6.82c0,.09.03.16.13.16l.06-.03Zm-457.17,24.65c3.54-.57,11.81-2.43,10.16-7.77-.85-2.75-4.01-2.9-6.34-2.71-3.28.28-6.53.6-9.79.98-4.89.57-10.76.54-15.15-1.89-4.92-2.71-6.19-9.22-3.6-13.92,5.11-9.38,20.8-11.46,30.3-10.32,2.08.25,4.14.47,6.22.69,1.36.13,2.4-.32,3.13-1.39.03-.06.13-.09.19-.06l.63.16c.16.03.22.16.19.32l-3.25,12.12h0c-.03.13-.16.19-.28.13h0l-.76-.28c-.09-.03-.16-.16-.13-.25.44-2.21-2.62-2.9-4.2-3.16-5.65-.88-11.17-.47-16.67,1.2-2.02.63-4.77,2.11-5.37,4.14-1.1,3.85,4.45,3.6,6.41,3.41,6.69-.73,13.64-1.89,20.23-.88,4.55.69,7.92,2.94,9.41,7.54,3.69,11.4-8.11,18.12-17.24,20.14-8.33,1.83-16.73,1.89-25.22.22-.22-.03-.44.06-.6.22l-.88,1.29c-.06.09-.16.09-.25.09l-.66-.22c-.16-.06-.19-.16-.16-.32l3.6-13.92c.03-.13.09-.16.22-.16l.73.03c.06,0,.16.06.16.13v.03c-.22,3.25,5.43,4.26,7.77,4.55,3.72.47,7.45.41,11.17-.19l.03.06Zm110.54-39.36c3.76-.54,7.51-1.1,11.3-1.61,1.45-.19,2.9-.44,4.36-.76,1.04-.22,1.14-1.07,1.29-1.96.03-.13.09-.22.22-.25l.54-.19s.06,0,.06-.03c.22-.03.44.13.47.35l1.83,12.44c.03.16-.03.25-.22.25l-.76.06c-.09,0-.19-.03-.25-.09-.76-1.04-.79-1.86-2.4-1.64-6.6.98-11.65,1.7-15.09,2.24-.09,0-.13.06-.13.16l.88,6.69c.03.19.13.25.32.22l25-3.69c1.2-.19,1.77-.92,1.7-2.18,0-.09.06-.19.16-.22l.85-.22h0c.13-.03.22.06.25.16h0l2.08,14.33c0,.09-.03.16-.13.22-1.01.47-1.42-.73-1.86-1.36-.06-.06-.13-.13-.22-.16-.47-.16-.98-.19-1.48-.09-13.1,1.93-26.17,3.85-39.27,5.81-.09,0-.16-.03-.16-.13h0l-.06-.92c0-.13.06-.22.19-.25,1.55-.38,1.61-1.36,1.39-2.78-1.8-12.12-3.6-24.27-5.37-36.43-.22-1.45-1.04-1.36-2.15-1.7-.09-.03-.16-.09-.16-.19l-.19-.73h0c-.03-.09.06-.22.16-.25h0c13.01-1.93,26.04-3.85,39.05-5.74,1.61-.22,2.05-.82,2.21-2.4,0-.09.06-.16.16-.19l.82-.13c.13-.03.19.03.19.16l2.08,14.08h0c.06.35-.19.63-.51.69-.25.03-.51-.09-.63-.32-.54-.95-.92-1.77-2.18-1.58-8.46,1.17-16.89,2.43-25.35,3.72-.13.03-.16.09-.16.22l.92,6.19c.03.09.06.13.16.13l.06.06Zm125.25-.54c-.13,0-.22.09-.22.22.09,3.98.19,7.95.32,11.93.03.66.09,1.29.25,1.89.03.06.06.16.16.19l1.7.69c.06.03.13.09.13.16l.03.82c0,.09-.03.16-.13.16l-16.35.38c-.13,0-.19-.06-.19-.19l.06-.85c0-.09.06-.16.16-.19.79-.22,1.86-.63,1.83-1.64-.28-12.66-.6-25.28-.92-37.94-.06-1.93-1.61-1.17-2.08-2.08-.13-.25-.13-.54,0-.79.03-.09.13-.13.22-.16,10.04-.25,20.11-.47,30.15-.73,7.32-.19,15.28,1.89,17.33,10.07s-2.34,14.84-10.26,17.08c-.19.06-.22.16-.13.32,2.3,3.54,4.61,6.98,6.94,10.35,1.52,2.24,2.37,3.41,4.8,4.45.09.03.13.09.16.19l.06.38v.03c.03.25-.16.51-.44.54h-.03l-16.95.41c-.09,0-.19-.06-.22-.16-.73-1.58,2.59-1.04.57-3.95-2.68-3.88-5.3-7.77-7.92-11.68-.06-.06-.13-.09-.22-.09l-8.74.16-.06.03Zm-.66-18.66l.25,9.66c0,.06.06.13.13.13l13.26-.38c3.91-.09,7.07-2.15,7.01-4.51l-.03-1.26c-.06-2.37-3.35-4.26-7.23-4.14l-13.26.38c-.06,0-.13.06-.13.13Zm113.32-9c0-.09.06-.16.16-.16l16.29.66c.09,0,.16.06.19.16l.06.69c0,.13-.06.22-.19.25-1.26.35-2.08.76-2.15,2.21-.54,12.56-1.07,25.13-1.55,37.69-.03.82,1.04,1.39,1.93,1.7.09.03.16.09.16.19l.06.51c.03.32-.09.47-.44.47l-15.94-.66c-.25,0-.38-.16-.38-.41l.06-.47c0-.13.06-.19.19-.22.69-.25,1.96-.63,1.99-1.55.41-10.42.85-20.83,1.29-31.25.16-3.5.22-6,.25-7.54,0-.13-.03-.22-.13-.28-.51-.44-1.07-.79-1.7-1.01-.13-.03-.19-.16-.19-.25l.06-.73h-.03Zm219.41,41.57c2.97-8.81,14.08-9,21.37-7.32,5.11,1.17,9.88,3.16,14.27,6,1.8,1.17,3.6,2.3,5.43,3.44,1.1.69,2.21.76,3.31.22.06-.03.16-.03.25-.03.63.22.69.6.25,1.1-2.37,2.71-4.77,5.43-7.13,8.14-.35.41-.66.73-.88.95-.09.09-.16.09-.25,0l-.6-.6c-.06-.06-.06-.19,0-.25,1.48-1.74-1.26-3.98-2.56-4.86-4.96-3.44-10.26-5.52-15.88-6.25-1.55-.19-4.92.09-6.09,1.61-2.24,2.94,2.02,4.89,4.2,5.71,2.9,1.07,5.78,2.15,8.68,3.22,5.15,1.89,13.04,5.37,14.77,11.17,1.58,5.3-1.2,11.11-5.87,13.86-5.05,3-12.18,2.87-17.8,1.48-8.3-2.02-15.81-5.59-22.57-10.73-.79-.6-1.36-.6-2.05.06l-.03.03c-.6.32-1.01.16-1.26-.41-.03-.09-.03-.19.03-.28l9.41-10.89c.06-.06.13-.09.22-.03l.6.32c.09.06.13.13.09.25-1.17,2.68,1.83,5.27,3.72,6.66,3.79,2.78,7.95,4.77,12.47,6,2.94.79,8.11,1.96,10.54-.66,1.67-1.8,1.17-4.48-.85-5.87-1.45-.98-3-1.74-4.67-2.34-7.77-2.71-25.09-7.7-21.05-19.7h-.06Zm-247.92-261.56c3.16,1.17,6.94.32,9.09-2.15,1.2-1.36,2.46-3.09,3.79-5.18,1.39-2.18,1.58-3.82,1.48-5.27-.09-1.33-.44-2.75-1.67-4.58-10.73-15.91-18.56-33.27-24.4-51.89-3.19-10.13-5.71-20.58-7.95-31.12-.66-3.03-1.8-4.2-4.14-6.03-3.03-2.43-6.06-4.86-9.09-7.32h0c-2.75-2.21-5.52-2.37-8.02-1.48-4.04,1.42-7.89,2.27-11.55,2.59-5.62.47-11.27.54-16.92.25-12.34-.66-24.97-2.18-37-5.11h0c-3-.73-6.16.28-8.14,2.62h0c-2.05,2.4-4.07,4.83-6.06,7.29-.69.88-1.45,2.02-1.89,3.13-.76,1.96-.76,3.95-.13,5.71s1.89,3.79,5.02,4.92c14.74,5.4,29.51,10.95,43.88,17.3.92.41,3.06,1.26,4.8,2.21.09.06.19.09.28.16,1.26,2.75,2.53,5.68,3.72,8.9,3.85,10.16,7.07,20.3,9.6,30.46.79,3.19,1.42,6.41,1.83,9.66.22,1.89.6,3.88-.66,5.37-.98,1.1-1.67,2.53-1.86,4.04-.32,2.43.32,4.61,1.83,6.47,1.89,2.37,3.85,4.67,5.87,6.91,1.93,2.18,4.14,2.97,6.19,3,1.67.03,3.57-.38,5.56-2.15,4.32-3.88,11.24-3.85,16.89-3.35,6.72.6,13.26,2.15,19.57,4.64h.03c.16.06.13.06.13.03l-.06-.03Zm3.41-4.67c-.54.06-1.1,0-1.61-.19h0c-6.79-2.71-13.79-4.39-21.05-5.02-6.98-.6-15.4-.16-20.8,4.64-.73.63-1.39.82-2.02.82-.79,0-1.61-.41-2.37-1.26-1.96-2.18-3.85-4.42-5.71-6.72-.6-.73-.85-1.58-.69-2.56.06-.44.25-.88.54-1.17,2.34-2.62,2.4-6.12,1.99-9.53-.44-3.47-1.07-6.88-1.93-10.26-2.59-10.35-5.87-20.68-9.79-31.03-1.45-3.79-2.9-7.26-4.45-10.42,0,0-.25-.25-.44-.41-.41-.32-.92-.6-1.48-.92-1.86-1.01-4.2-1.96-5.18-2.4-14.46-6.38-29.36-11.96-44.19-17.42-1.17-.44-1.67-1.1-1.93-1.8s-.19-1.36.09-2.08c.25-.63.69-1.26,1.07-1.74,1.96-2.43,3.95-4.83,5.97-7.17.73-.85,1.89-1.23,2.97-.95,12.34,3,25.28,4.58,37.97,5.24,5.87.32,11.74.22,17.61-.25,4.07-.35,8.33-1.29,12.85-2.84.95-.35,1.99-.22,3.06.63,3.03,2.43,6.06,4.86,9.09,7.32,1.2.98,1.96,1.48,2.3,3.06,2.27,10.7,4.86,21.31,8.08,31.57,6,19.1,14.02,36.9,25.06,53.22.54.79.76,1.39.79,1.99.03.63-.13,1.29-.69,2.21-.69,1.1-5.21,5.87-5.08,5.4l-.03.03Zm-112.94-98.17c14.68,5.4,29.45,10.98,43.66,17.55.98.44,3.19,1.45,4.64,2.46.88.6,1.52,1.26,1.8,1.83,1.67,3.25,3.28,6.88,4.83,10.89,3.85,10.04,7.07,19.98,9.66,29.77,1.14,4.32,2.05,8.71,2.68,13.13.63,4.29.44,8.9-1.52,12.72l2.21,2.62c4.83-3.09,10.54-4.26,16.57-4.32,9.31-.09,18.28,1.45,26.93,4.7l.47-.63c-9.03-13.67-16.22-28.13-21.65-43.4-4.8-13.51-8.49-27.56-11.4-41.57l-8.14-6.5c-9.66,3.09-20.49,3.35-30.43,2.81l-1.96-.09h-.03c-10.32-.6-20.52-1.83-30.59-3.72-1.77-.35-3.54-.73-5.27-1.14l-2.4,2.9h-.06Zm-213.45,167.99c8.08-.13,19.76-.28,23.04-.32h.88c4.7-.09,8.62,1.07,11.87,2.94.6-.32,1.2-.6,1.8-.88,2.68-1.14,5.11-1.74,7.29-1.99-.41-5.24-1.36-10.48-2.49-15.56-4.77-21.84-11.68-43.47-22.06-63.32-2.78-5.33-5.87-10.54-9.41-15.47l-.51.54-.76.73-.57.47v.66c0,4.2-.88,7.99-2.46,11.46-3.38,7.39-6.28,14.39-8.71,21.05h0c-2.37,6.47-5.08,12.82-7.39,19.32-1.26,3.54-3.38,7.7-2.68,11.49.47.28,1.26.76,1.74.95,6.28,2.65,10.54,8.65,10.95,15.44v.03c.16,2.62.19,5.27.09,7.99-.06,1.67-.28,3.16-.63,4.48ZM846.61,65.42c1.23.98,2.65,1.52,4.14,1.96s4.1,1.26,5.93,1.48c2.65.35,4.73-.35,5.9-1.04l.06-.03c1.29-.79,2.24-1.89,2.87-3.28,0-.03.03-.06.03-.09.51-1.2.79-2.68,1.07-3.63,1.8-5.9,4.32-11.68,7.58-17.33.92-1.58,1.89-2.97,2.94-4.14,1.55-1.7,2.08-3.16,2.37-4.45.32-1.45.22-2.9-.38-5.11-1.1-4.39-2.3-8.74-3.57-13.1-1.01-3.5-3.28-5.18-5.59-5.87-2.15-.66-4.86-.6-7.67,1.48h0c-7.58,5.62-16.54,6-25.41,3.95-3.91-.92-8.18-2.08-11.81-2.65-5.43-.88-10.67-1.2-15.75-.95-23.33,1.17-43.15,16.79-49.43,39.43-6.28,22.66,1.77,51.29,18.94,67.42,11.96,11.24,26.45,16.29,43.43,15.15,5.11-.35,10.2-.98,15.25-1.89,16.95-3.03,33.59-7.67,49.68-13.83,2.78-1.07,5.11-2.27,6.6-4.8,2.27-3.79,4.58-7.61,6.85-11.4,1.77-2.94,1.99-6.03.88-8.46-.63-1.36-1.67-2.78-3.69-3.88-1.52-.82-4.77-1.07-6.38-.6-2.84.85-5.68,1.7-8.52,2.53-12.53,3.72-24.91,5.21-38.64,6-9,.51-20.27.51-27.65-5.4s-7.7-16.32-6.66-25.25c.38-3.38,1.42-6.72,3-10.07,1.86-3.88,4.92-8.46,8.84-11.33,1.86-1.36,3.95-2.37,6.25-2.21,3.72.25,8.05.44,10.92,3.06,3.5,3.19,4.29,9.12,4.86,13.57v.06c.09.79.03.16,0,.03.25,1.8,1.17,3.44,2.59,4.61l3.31,1.2-3.28-1.17.03.03c.25.22.09.06.03.03l.06-.03Zm10.73-1.74c-.79-.09-6.85-1.83-7.48-2.34h0c-.41-.35-.66-.82-.76-1.33h0c-.73-5.52-2.15-12.78-6.53-16.76-3.72-3.38-9.22-4.04-14.05-4.39-3.54-.25-6.82,1.07-9.69,3.19-4.61,3.38-8.24,8.71-10.45,13.26-1.86,3.88-3.03,7.77-3.5,11.71-1.23,10.61-.25,22.82,8.59,29.89,8.36,6.69,21.02,7.13,31.19,6.53,14.17-.82,26.89-2.37,39.84-6.19,2.84-.85,5.68-1.7,8.52-2.56.6-.19,1.83-.13,2.4.16.79.44,1.23.95,1.45,1.48.47,1.04.19,2.34-.6,3.6-2.3,3.79-4.61,7.61-6.88,11.43-.88,1.48-2.37,1.99-4.01,2.62-15.78,6.06-32.1,10.57-48.74,13.57-4.86.88-9.75,1.48-14.68,1.8-15.47,1.04-28.63-3.54-39.52-13.76-15.88-14.9-23.3-41.32-17.49-62.25,5.65-20.42,23.61-34.53,44.67-35.61,4.73-.25,9.63.06,14.65.88,3.5.57,7.67,1.74,11.46,2.59,10.39,2.4,20.83,1.74,29.67-4.83,1.14-.82,2.21-.95,3.06-.69.88.28,1.74,1.01,2.11,2.37,1.26,4.29,2.43,8.62,3.54,12.94.32,1.2.47,1.96.32,2.75-.13.6-.44,1.26-1.14,2.05-1.29,1.42-2.46,3.09-3.57,5.02-3.44,6-6.12,12.12-8.05,18.4-.25.79-.44,2.08-.88,3.09v.03c-.19.41-.47.73-.85.98h0c-.19.13-1.36.38-1.36.38-.35.03-.76.03-1.2-.03h-.03Zm-2.46-7.01l.98.25c1.77-5.65,4.2-11.33,7.29-17.01,1.58-2.9,3.22-5.43,4.92-7.58l-2.34-8.59c-8.27,4.73-17.65,6-27.08,4.39h-.03c-2.21-.28-4.42-.73-6.66-1.36-3.31-.82-6.82-1.77-10.07-2.21-11.55-1.61-22.41-.38-32.51,5.87-16.79,10.45-22.51,29.14-19.26,48.07,1.86,11.05,6.69,22.03,14.39,30.27,10.26,11.02,23.2,15.56,38.16,14.33,6.06-.51,12.09-1.39,18.06-2.68h.03c14.14-2.84,28.22-6.88,42.24-12.12.85-.32,1.29-.47,1.8-1.29.82-1.36,1.64-2.71,2.49-4.1-7.73,2.27-14.68,3.85-22.41,4.86-3.76.47-7.51.88-11.3,1.2h-.03l-12.63.85h-.13l-3.98-.03h-.03c-13.48-.32-27.46-4.01-34.34-16.76-3.91-7.29-4.45-16.07-3.98-24.18.63-10.39,5.02-20.04,12.09-27.68,3.13-3.38,6.94-6.25,11.33-7.7,3.47-1.14,7.23-1.04,10.83-.44,2.56.25,5.05.79,7.51,1.64h.03c9.75,3.5,13.16,12.69,14.65,21.94l-.03.06Zm-373.46,95.9c-.57-.51-1.33-.92-2.4-.92h-4.29c-1.1,0-1.89.41-2.46.95s-1.07,1.33-1.14,2.43c0-.03-.82,11.77-.82,11.77-.09,1.23.38,2.11.95,2.75s1.42,1.14,2.65,1.14h3.95c.98,0,1.74-.35,2.34-.82.19-.16.38-.35.57-.57v18.94h-.16c-1.14.03-1.96.51-2.53,1.07s-1.04,1.39-1.04,2.53c0-.03-.03,4.48-.03,4.48-.03,1.89,1.55,3.57,3.5,3.6h20.04c1.17,0,1.99-.47,2.56-1.04s1.04-1.39,1.04-2.56h0v-4.42c0-1.2-.47-2.02-1.07-2.59s-1.39-1.04-2.53-1.04v-18.91c.16.19.32.38.51.51.6.51,1.36.85,2.37.85h3.98c.92,0,1.61-.28,2.15-.69v19.63c-.44.19-.82.47-1.14.76-.6.57-1.04,1.39-1.04,2.56v3.22c0,2.05,1.74,3.72,3.76,3.72l14.9-.09c.66,0,1.23-.16,1.7-.41.51.32,1.1.51,1.89.51h.03l14.93-.09h.03c1.17-.03,1.96-.51,2.53-1.07s1.04-1.39,1.04-2.56v-2.97c1.7,2.56,4.01,4.48,6.57,5.75,7.92,3.91,19,1.61,25.51-7.17h0c.6-.82.79-1.64.73-2.43s-.32-1.55-.98-2.3l-1.99-2.15c-.85-.92-1.8-1.2-2.65-1.2s-1.8.22-2.65,1.14l-.03.03c-1.58,1.67-3.95,2.34-5.87,1.7,4.83-1.77,11.68-4.29,11.68-4.29h.03c1.42-.54,2.37-1.93,2.37-3.44,0-.47-.09-.95-.28-1.42-.06-.13-.09-.28-.19-.51h0c-2.97-8.46-8.33-14.14-17.93-13.89-7.92.22-14.11,5.3-16.51,12.22v-1.04c-.06-4.17-1.74-7.1-4.2-8.93-2.34-1.77-5.52-2.56-9.09-2.18-1.89.22-3.69.82-5.37,1.67v-2.46c1.29-.57,2.15-1.86,2.15-3.31v-3.63c0-1.58-.76-2.49-1.55-3.03s-1.83-.98-3.35-.44h0l-14.33,4.96-.13-1.83v-.03c-.09-1.07-.57-1.83-1.14-2.37s-1.39-.95-2.46-.95h-4.29c-1.07,0-1.83.38-2.4.92h-18.53l.13-.03Zm18.06,3.44h2.56c.09,0,.16-.06.16-.16v-.6c0-.09.06-.16.16-.16h4.29c.09,0,.16.06.16.16l.82,11.84c0,.09-.03.13-.13.13h-3.98c-.13,0-.19-.06-.22-.19-.57-3.31-2.27-5.75-5.97-5.49-.13,0-.16.06-.16.19v29.89c0,.09.03.13.13.13l3.25-.06c.13,0,.19.06.19.19v4.42c0,.09-.06.16-.16.16h-19.98c-.06,0-.09-.03-.09-.09l.03-4.51c0-.09.06-.16.16-.16l3.38-.03c.09,0,.16-.06.16-.16v-29.86c0-.09-.06-.16-.16-.16-3.88,0-5.27,2.05-5.97,5.56-.03.13-.09.16-.22.16h-3.95c-.13,0-.16-.06-.16-.16l.82-11.81c0-.09.06-.16.16-.16h4.29c.09,0,.13.06.13.16v.66c0,.06.03.13.13.13h20.23l-.69-.69v-.03l.73.73h-.09Zm47.03,33.87c-.13-.06-.25-.16-.38-.22v-.88c.13.38.25.73.38,1.07v.03Zm-18.25-12.66c.03,4.17.06,8.3.09,12.41-.16.06-.32.13-.44.22-.16-.09-.32-.16-.47-.22v-12.09s.06-.03.09-.06c.19-.13.51-.22.73-.25Zm-4.14,15.59l2.05.06c.06,0,.09.03.09.13l-.03,3.25c0,.09-.06.16-.16.16l-14.9.09c-.16,0-.28-.13-.28-.28v-3.22c0-.09.06-.16.16-.16h1.83c.09,0,.19-.09.19-.19v-29.17c0-.09-.06-.16-.16-.16h-.06l-1.67.57c-.09.03-.13,0-.13-.09v-3.44c0-.06.03-.09.09-.13l14.68-5.05c.19-.06.28,0,.28.19v3.63c0,.06-.03.13-.09.16l-1.86.63c-.09.03-.16.09-.16.22v11.21c0,.06.06.13.13.13s.06,0,.09-.03c2.53-2.27,5.52-4.36,9.03-4.77,5.21-.57,9.34,1.96,9.44,7.73.06,2.65.06,8.78,0,18.4,0,.13.06.16.19.16h1.8c.13,0,.19.06.19.19v3.19c0,.13-.06.16-.16.16l-14.93.09c-.13,0-.19-.06-.19-.19v-3.28c0-.13.06-.19.19-.19h1.83c.16,0,.28-.13.28-.28-.03-5.11-.06-10.32-.09-15.53-.03-4.7-5.56-3.88-7.54-1.07-.28.41-.19,1.01-.19,1.48v15.18c0,.13.06.16.16.19l-.09.03Zm53.41-3.03c-9.03,12.15-28.5,9.82-29.04-7.54-.25-8.27,5.71-15.5,14.2-15.72,7.86-.22,12.12,4.61,14.55,11.55.09.28.19.54.25.69,0,.03.03.06.03.09,0,.09-.06.19-.16.22l-16.48,6.06c-.06.03-.09.09-.06.16,2.59,6.16,10.2,6.53,14.43,2.02.09-.09.16-.09.25,0l1.99,2.15c.09.13.09.22.03.35v-.03Zm-14.39-18.06c-1.17-.95-3.06-.85-4.1.22-1.89,1.99-.76,6.31-.03,8.59.03.09.09.13.16.09l7.2-2.71c.09-.03.13-.09.09-.22-.6-2.11-1.55-4.51-3.35-5.97h.03Zm-1.64,4.29c0-.06,0-.13-.03-.19-.03-.32-.03-.63-.03-.95.22.28.44.57.63.92,0,0-.57.22-.57.22Zm80.3-112.44c.57,2.81,2.65,5.05,5.4,5.81h0c1.96.54,3.95,1.07,5.97,1.64,2.68.73,4.86.25,6.5-.66,1.8-1.01,3.38-2.68,4.07-5.49,1.55-6.38,4.39-12.69,7.64-18.37.98-1.67,2.08-3.25,3.35-4.7h0c2.27-2.62,2.81-4.61,1.99-7.89h0c-1.2-4.8-2.49-9.56-3.91-14.3h0c-.63-2.08-1.83-3.54-3.31-4.55-1.36-.92-3.03-1.48-5.15-1.42h0c-1.48.06-2.94.57-4.1,1.45-.03,0-.03.03-.06.03-4.01,3.06-8.49,4.8-13.45,5.24-4.48.38-9.06-.32-13.64-1.17-13.38-2.49-26.96-5.78-40.69-4.45-20.33,1.96-36.21,14.2-42.27,33.87-2.53,8.18-3.54,16.51-3.06,25,1.48,26.7,23.71,55.84,51.2,59.79,8.18,1.2,15.91-.98,24.53-3.25,3.91-1.01,8.14-1.74,12.69-2.18,4.26-.41,9.19,2.11,11.08,6,.41.85.92,1.52,1.39,2.05,1.29,1.42,2.62,1.96,3.5,2.21,2.53.73,5.08,1.42,7.67,2.08,2.97.76,5.71.09,7.51-1.26,1.67-1.23,3.19-3.16,3.25-6.5.03-1.17-.06-3.03-.35-5.56-.54-5.08-.82-10.48.09-15.34,1.14-6.03,4.36-11.05,12.18-12.66,1.04-.22,2.78-.44,4.04-.98,2.37-1.01,3.95-2.71,4.7-4.8.66-1.77,1.01-4.2-.79-7.32-1.45-2.56-2.97-5.08-4.48-7.58-.63-1.01-1.58-2.08-3.09-2.9-1.07-.6-2.78-1.17-4.86-1.52-4.14-.66-10.54-.66-12.28-.63-10.95.06-21.88.85-32.7,2.49-.66.09-3.76.69-5.78,1.55-2.81,1.2-4.39,3.25-4.99,4.77h0c-.76,1.93-1.48,3.88-2.18,5.84-1.39,3.82-.22,6.69,1.42,8.55,1.55,1.77,4.1,3.16,7.64,2.71,1.14-.16,2.65-.13,4.14.16-5.4,1.89-11.46,2.78-17.11,1.89-12.06-1.89-15.34-13.07-16.38-23.74-.35-3.57-.35-6.88.03-9.91,1.14-9.22,7.29-18.78,16.89-20.93,4.39-.98,9.63.41,14.2,1.61,5.93,1.55,9.47,5.3,10.73,11.33.28,1.33.54,2.65.79,3.98v.03c.16.76.03.13,0,.03l.03-.06Zm12.78,2.43c-1.07-.28-5.52-1.52-5.97-1.64-.85-.22-1.52-.95-1.7-1.83h0c-.25-1.33-.54-2.68-.82-4.07-1.7-8.18-6.47-13.19-14.49-15.28-5.37-1.39-11.49-2.81-16.67-1.64-11.71,2.59-19.51,14.11-20.9,25.35-.41,3.38-.41,7.04-.03,11.05,1.26,13.01,6.06,26.04,20.77,28.38,6.79,1.07,14.14-.06,20.55-2.43,1.23-.44,2.94-1.26,4.2-2.4.88-.79,1.58-1.77,1.14-2.94-.63-1.58-2.08-2.65-3.76-3.38-2.9-1.26-6.5-1.48-9-1.2-1.42.16-2.46-.28-3.09-1.01s-.98-1.86-.44-3.38c.69-1.89,1.39-3.82,2.11-5.71.25-.63.98-1.36,2.15-1.86,1.58-.66,4.01-1.1,4.55-1.2,10.57-1.61,21.28-2.37,31.94-2.43,1.61,0,7.58-.03,11.43.57,1.36.22,2.49.54,3.19.95.57.32.95.69,1.17,1.07,1.52,2.46,2.97,4.96,4.42,7.45.73,1.26.69,2.24.44,2.94-.28.79-.92,1.39-1.83,1.8s-2.27.51-3.06.66c-17.33,3.54-17.87,19.7-16.41,33.65.22,2.24.32,3.85.32,4.89-.03,1.26-.54,1.99-1.17,2.46-.76.57-1.93.69-3.16.38-2.53-.63-5.05-1.33-7.54-2.05-.28-.09-.69-.28-1.14-.73-.19-.19-.35-.44-.51-.76-2.78-5.75-9.97-9.5-16.26-8.93-4.83.44-9.34,1.23-13.51,2.34-7.92,2.08-14.96,4.23-22.47,3.13-25.22-3.63-45.42-30.46-46.75-54.96-.44-7.89.51-15.63,2.84-23.2,5.4-17.58,19.63-28.47,37.78-30.24,13.26-1.29,26.33,1.99,39.27,4.36,5.05.95,10.1,1.67,15.03,1.23,5.97-.51,11.33-2.62,16.16-6.28h.03c.35-.25.79-.41,1.23-.44.82-.03,1.52.19,2.05.54.57.38,1.01.95,1.23,1.74,1.39,4.67,2.68,9.34,3.85,14.08.35,1.36.09,2.18-.85,3.25-1.48,1.74-2.81,3.57-3.95,5.56-3.5,6.09-6.53,12.88-8.21,19.73-.25,1.1-.82,1.77-1.55,2.18-.66.38-1.55.51-2.62.22v.06Zm1.64,61.65l2.05.57c-.92-9.47-1.17-20.17,3.72-28.57,3.47-5.97,9.41-9.79,15.94-11.49-.6-.98-1.17-1.96-1.74-2.94-3.03-.38-6.09-.57-9.15-.6-11.71-.03-23.74.6-35.23,2.9h-.03s-.03.09-.03.13c3.13.22,6.72,1.1,9.6,2.81,2.62,1.55,4.64,3.79,5.43,6.72.6,2.3.22,4.51-1.17,6.66-3.06,4.73-9.88,6.79-15.12,7.89-11.52,2.43-23.93,1.58-32.58-7.35-8.36-8.62-10.7-22.7-10.26-34.22.22-9.31,3.38-17.49,9.41-24.56,5.46-6.41,13.1-10.54,21.56-10.7,1.48-.03,3.38.13,5.68.47,4.1.6,8.14,1.39,12.09,2.81,9.79,3.47,14.43,11.08,16.22,20.77l.88.22c2.11-6.76,4.96-13.16,8.59-19.26,1.01-1.67,2.11-3.28,3.35-4.8l-2.27-8.3c-10.35,5.93-21.46,5.59-33.05,3.28-10.32-2.02-17.39-3.6-26.26-4.26-15.15-1.14-29.8,3.28-38.38,16.51-4.73,7.64-6.72,16.6-7.01,25.47-.51,15.88,6.79,31.25,18.15,42.11,7.7,7.35,18.72,13.29,29.61,12.22,1.26-.13,3.03-.47,5.37-1.04,7.95-1.96,15.53-3.95,23.74-4.61,8.27-.66,16.64,4.26,20.96,11.11l-.06.03Z"/>
  </g>
</svg>