<?xml version="1.0" encoding="UTF-8" standalone="no"?>
<svg xmlns="http://www.w3.org/2000/svg" width="390.53906pt" height="397.56754pt" viewBox="0 0 390.53906 397.56754" version="1.1">
   <path d="m 196.29493,0.00422868 c -23.52492,-0.105249 -47.05987,1.75136702 -70.23487,5.88574202 -21.29,3.6800017 -42.279594,9.6111363 -61.829591,18.9111293 0.28,3.460005 1.799822,6.62967 2.819822,9.909675 2.630002,7.999995 5.378887,15.949995 7.85889,24 38.729999,16.969995 77.529999,33.810075 116.249999,50.830075 1.75,0.61 3.631,2.19965 5.521,1.13964 39.57,-17.26999 79.07922,-34.679853 118.69921,-51.859855 3.89001,-11.109998 7.19994,-22.429515 11.18994,-33.499515 -10.51999,-5.64 -21.88029,-9.490118 -33.30029,-12.870113 C 269.04904,5.7210062 244.00918,1.9412987 218.90918,0.75129918 212.98918,-0.18870132 206.97,0.28110393 201,0.05110368 c -1.56812,-0.024375 -3.13675,-0.0398625 -4.70507,-0.046875 z M 0,14.19124 c 1.5100005,9.51 3.3995708,18.949687 5.0595705,28.429687 2.76,16.38 6.1997065,32.659335 8.6997075,49.069335 l 0.470215,0.7002 c 1.06,7.429995 2.480625,14.800408 3.890625,22.170408 1.38,8.81 3.400116,17.50935 4.620117,26.33935 17.83,13.58 35.909492,26.85035 53.979491,40.11035 26.730004,-0.06 53.449434,-0.0305 80.169434,-0.0205 -0.46,-9.58001 -2.85969,-18.95 -3.67969,-28.5 l -0.48925,-0.71924 c -1.97,-16.26 -4.85117,-32.40084 -7.20118,-48.61084 -26.80999,-12 -53.839702,-23.499413 -80.699704,-35.399415 C 59.409336,50.500607 53.41,33.421232 48,16.15123 43.05,15.721232 38.040371,16.240975 33.130372,15.390977 25.130371,14.81098 17.059609,15.431252 9.0996097,14.42125 6.0696097,14.24125 3.03,14.231267 0,14.19127 Z m 390.53906,0.03952 c -9.43999,-8e-6 -18.82002,1.110427 -28.27002,0.940425 -6.52,0.579997 -13.04961,0.86916 -19.59961,0.889162 -4.1,11.769998 -7.90956,23.65023 -11.80956,35.490233 -1.48001,4.599997 -3.05026,9.16953 -4.51026,13.769535 -0.51,0.99 -0.60054,2.469877 -1.81055,2.87988 -26.53,11.85 -53.34908,23.080582 -79.80908,35.100585 -3.52,25.94 -7.98973,51.74945 -11.46973,77.68945 26.94,-0.03 53.88008,0.0207 80.83008,-0.0293 17.7,-13.35 35.53942,-26.52943 53.39942,-39.66943 2.12,-11.93 4.48933,-23.82078 6.31933,-35.80079 l 0.45117,-0.66064 c 5.15,-30.239995 10.86881,-60.399115 16.27881,-90.59911 z M 197.37891,34.26689 c 1.58976,-0.0091 3.17699,-0.003 4.76074,0.0132 l 0.75,0.540525 c 13.3,0.03998 26.49021,3.909547 37.97022,10.539547 -13.17,10.89 -28.44054,18.860625 -44.04054,25.640625 -1.57999,0.740003 -3.20991,-0.0504 -4.66992,-0.650385 -14.75,-6.590002 -29.28906,-14.079457 -41.78906,-24.439455 0.04,-0.339997 0.10916,-1.010332 0.13916,-1.340332 4.64,-1.959998 9.09066,-4.390583 13.93067,-5.850585 10.59625,-3.561248 21.82037,-4.388865 32.94873,-4.453125 z m 155.34082,38.37305 c -0.82,5.109997 -1.76992,10.231192 -3.16992,15.22119 -28.47,12.76 -56.81053,25.78978 -85.29053,38.52979 1,-5.08 1.97119,-10.16043 3.22119,-15.19044 28.43,-12.79999 56.77925,-25.81054 85.23926,-38.56054 z m -315.259281,0.0806 c 28.740002,12.51 57.189279,25.740157 85.759281,38.66016 0.66,5.02 2.28009,9.8702 2.6001,14.95019 C 97.449823,113.4809 69.109476,100.56086 40.709473,87.790852 c -1.07,-5.029995 -2.219024,-10.04031 -3.249024,-15.070312 z m 7.549805,34.43993 c 27.92,13.14001 56.229276,25.47038 84.259276,38.38038 0.79,5 2.6201,9.84045 2.6001,14.96045 -28.37,-12.98 -56.910469,-25.62021 -85.23047,-38.72021 -0.139999,-1.11 -0.279199,-2.22081 -0.429199,-3.3208 -1.16,-3.68001 -1.360215,-7.5902 -2.720214,-11.20019 0.51,-0.03 1.010507,-0.0696 1.520507,-0.0996 z m 301.628906,0.32081 c -1.01,4.83 -2.03961,9.65998 -3.09961,14.47998 -28.43,12.87 -56.76982,25.95004 -85.31982,38.54004 0.53,-4.38 1.85068,-8.62024 2.45068,-12.99023 -0.07,-1.54001 1.40984,-2.3702 2.58984,-2.9502 26.35001,-11.96 52.7501,-23.86033 79.1001,-35.84034 1.39,-0.51999 2.81881,-0.92925 4.27881,-1.23925 z m -186.91992,2.02002 c 4.13,23.67 8.45019,47.2997 12.70019,70.94971 0.37,2.34999 0.90967,4.7001 0.90967,7.10009 -0.06,36.69 0.0202,73.37983 -0.0498,110.06983 14.48,0.24 28.95115,0.0296 43.43115,0.0996 0.84,-12.31999 0.24939,-24.66023 0.3794,-36.99023 -0.45,-6.39 0.62956,-12.76965 -0.19044,-19.13965 0.80001,-9.33 -0.68033,-18.67953 0.15967,-28.01953 -0.67,-6 0.64006,-11.99 0.0601,-18 -0.69,-5.67 0.0912,-11.36976 0.74121,-17.00976 2.10999,-9.54 3.30986,-19.26055 5.35986,-28.81055 1.89,-11.76 4.21934,-23.45969 6.31934,-35.17969 0.25,-1.65 0.18037,-3.33047 0.13037,-4.98047 -10.53,5.01001 -21.37047,9.34065 -31.98047,14.16066 -3.39,1.65 -6.59969,-1.06091 -9.67969,-2.1709 -9.46,-3.96 -18.71053,-8.4591 -28.29052,-12.0791 z M 25.620118,158.62044 c -0.09,3.27 0.01932,6.54955 0.549316,9.78955 2.62,35.68 5.190469,71.41008 7.980469,107.08008 1.26,21.79999 3.410312,43.54986 4.570312,65.35986 23.97,9.84 47.969433,19.62074 71.919435,29.51074 0.05,-42.6 0.28988,-85.22958 -0.12012,-127.82958 -15.359997,-8.34 -30.659239,-16.8705 -45.719237,-25.7505 -2.78,-12.15 -6.740332,-24.00036 -9.590332,-36.13037 -9.75,-7.48 -19.699844,-14.71978 -29.589843,-22.02978 z m 338.909182,0.65039 c -2.64001,1.05 -4.88985,2.7898 -7.08985,4.5498 -6.98,5.12001 -13.87038,10.35016 -20.90039,15.41016 -1.21999,0.73 -1.86937,2.01965 -2.10937,3.38965 -2.96,11.42 -6.31967,22.74996 -9.15967,34.20996 -15.11,8.82 -30.36026,17.43973 -45.76025,25.71973 -0.42,9.31 -0.0804,18.64093 -0.19044,27.96094 0.06,33.3 -0.10943,66.59916 0.0806,99.88915 23.95999,-9.94 48,-19.69908 72,-29.55908 0.72999,-16.83 2.57046,-33.58088 3.48046,-50.40088 2.61,-32.56999 4.76008,-65.16998 7.33008,-97.72998 0.6,-11.16 1.70885,-22.27945 2.31885,-33.43945 z m -203.91943,54.90966 c -12.40001,9.11001 -24.4903,18.64002 -37.0503,27.52002 -0.42,5.61 -0.11947,11.23011 -0.20947,16.8501 0.08,39.05001 -0.14988,78.10967 0.12012,117.15967 8.38999,2.94 16.3398,7.05077 24.7998,9.78077 3.12,-18.83001 6.47977,-37.62069 9.50977,-56.45069 24.87999,-0.12 49.7699,-0.0298 74.6499,-0.0498 2.05,10.83 3.71016,21.73985 5.66016,32.58985 1.23,7.93 3.06025,15.79078 3.76025,23.80078 8.54,-2.35 16.46929,-6.59014 24.77929,-9.64014 0.04,-44.72 0.1502,-89.44065 -0.0498,-134.16064 -9.58,-6.85001 -18.86912,-14.0991 -28.34912,-21.0791 -2.88,-2.04 -5.43022,-4.63026 -8.72022,-6.01026 -0.08,31.85 -7.5e-4,63.70908 -0.041,95.55909 -22.94001,0.05 -45.86932,0.0712 -68.79932,-0.009 -0.03,-31.95 0.0899,-63.91084 -0.0601,-95.86084 z m 7.81933,127.08985 c -3.59,18.64 -6.11006,37.49084 -9.81006,56.11084 24.35,0.35 48.73131,0.0996 73.09131,0.0996 -2.93,-16.67 -5.8303,-33.34078 -8.55029,-50.05078 -0.47,-2 -0.74069,-4.03885 -0.95069,-6.06885 -17.93,-0.13 -35.86027,0.0392 -53.78027,-0.0908 z"/>
</svg>
