<?xml version="1.0" encoding="UTF-8"?><svg id="Layer_1" xmlns="http://www.w3.org/2000/svg" width="47.4049" height="47.44456" viewBox="0 0 47.4049 47.44456"><path d="M45.78895,15.0048C39.542-1.41445,18.5008-4.99825,6.47498,7.44059c-13.90649,14.38422-3.98572,39.44366,16.20013,39.99438,17.17334.46851,29.23956-16.32947,23.11383-32.43018ZM18.44953,2.33109c6.47168-1.49402,22.03278.87933,19.53577,10.45612-.46002,1.76422-2.93604,3.3374-4.75189,3.25299-3.09192-.14374-2.41394-1.60126-2.84253-3.79669-.19965-1.02271-1.12775-2.0506-.28705-3.03864.88831-1.04395,3.36432-.90424,4.40375-.12225,1.4137,1.0636.80945,4.28955-1.03247,4.12421-1.67352-.15027-1.19788-2.73553.31927-1.38245.09131-2.35864-2.64758-1.62732-2.38074.57458.34418,2.8396,4.7099,2.63983,5.02191-.68188.49188-5.23639-4.48383-6.27179-7.9834-3.49255-2.3136-2.2774-5.11603-3.90546-8.39697-4.28253-1.79785-.2066-3.51086.07123-5.25732-.00372-.29053-.01245-.88715.18286-.83167-.23535,1.52124-.04944,3.09265-1.05072,4.48334-1.37183ZM11.58076,6.45347c5.24792-2.05475,13.69562-.9234,16.4519,4.56427,1.23151,2.4519,1.21582,5.78552-.57648,7.966-1.24359,1.51294-5.35846,2.40149-6.92572,1.20874-.84625-.64398-.86823-2.36981-1.18982-3.35004-.50983-1.55396-1.78448-2.21222-.22113-4.04474,1.31299-1.539,4.42352-1.6217,5.59991.09961,1.86896,2.73456-.71338,5.86176-2.65009,4.08228-1.44391-1.32672.02795-3.11987.97351-1.20868.6828.53406.91132-2.4455-1.25745-1.99304-.79779.16644-1.4267,1.03162-1.55585,1.81006-.53052,3.19745,4.32001,4.53278,6.02063,1.95087,1.36725-2.07574.97095-5.27222-1.07092-6.77386-2.20221-1.61957-5.63757-1.25494-7.54749.66376-.37732.37909-.54144,1.33575-1.14734,1.35431-.58563.01788-1.02441-.68677-1.50134-.90143-2.96295-1.33362-6.63635-1.29858-9.61871-.05841.91144-2.44501,3.85608-4.44556,6.21637-5.36969ZM3.03504,16.5449c.55371-1.41388,1.61371-2.16803,2.95435-2.78015,3.99268-1.82288,8.81372-1.06903,11.03937,3.00024.49579.90656,1.4397,3.76031,1.48364,4.7478.29388,6.60254-10.08148,9.53174-12.30109,2.7243-.7713-2.36566-.01642-4.68622,2.2832-5.81696,4.65802-2.29047,7.92175,5.26331,3.37823,6.02747-2.30786.38818-2.87561-3.45636-.91949-2.80811.70801.23462.07263,1.73523.73846,1.4129.84979-.41132.56927-2.15125-.16943-2.46765-2.42639-1.03925-4.0791,2.04309-2.57227,4.02203,2.1637,2.84155,6.5968.84998,6.93414-2.38477.31165-2.98798-2.37152-6.20178-5.38873-6.11151-8.03436.24042-8.7594,10.50684-1.63635,13.36401,4.84497,1.94336,11.31378-2.10437,11.32062-7.37579,3.87689,1.65125,9.23969-.72815,10.03644-5.01666,2.50531.68707,4.61261.92078,6.80017-.724,2.6283-1.97614,2.76807-4.55408,2.39441-7.63873,2.58533,2.6178,4.2002,5.74585,5.37164,9.19946-.46802.66669-1.3349-.04187-2.05127-.09503-6.3764-.47321-10.53046,2.66333-14.8241,6.74792-1.43494,1.36511-2.92346,3.49597-4.50427,4.69489-5.19592,3.94073-14.6405,6.01074-19.57568.70013-2.84845-3.06525-2.22833-9.75415-.79199-13.42181ZM40.13209,38.11094c-2.73303,3.13013-9.42438,7.40369-13.62286,7.40369h-3.9425l2.28217-.46558c3.3869-1.29456,6.37988-3.57013,8.83667-6.20978,2.54218-2.73132,4.82721-7.49664,9.29553-7.40131.30804.00659.91888.1051.85162.5636-.23846,1.62451-2.57465,4.81982-3.70062,6.10938ZM44.67878,29.75504c-.31415.44873-1.98761.15411-2.63483.23242-1.95709.23694-4.08899,1.11285-5.53461,2.46985-1.33942,1.25732-2.70026,3.48578-4.02325,4.93689-6.43719,7.06012-14.75891,9.47705-22.82092,3.22113,1.41394-.38617,3.07355.5929,4.41919.59808,3.96887.01538,8.83411-1.38293,12.04633-3.72327,5.10162-3.71686,8.73444-11.87695,15.91028-11.99597.46429-.00775,2.7019.29865,2.98718.54431.4469.38489-.11224,3.37793-.34937,3.71655ZM45.50367,24.0106c-1.63519-.24658-3.23895-.39355-4.88434-.22681-9.05432.9176-11.95929,12.62091-21.30469,14.77527-5.20813,1.20056-12.27277.77692-15.10919-4.43097-.11243-.20642-.9184-1.81604-.16034-1.51343.59137.23615,1.68896,1.20953,2.51306,1.55011,4.16132,1.72003,10.27179.9599,14.26111-1.03027,8.32501-4.15326,11.12439-14.38861,21.93372-13.42114.47552.04254,2.0033.30249,2.28235.5849.27271.276.60956,3.57056.46832,3.71234Z"/></svg>