<?xml version="1.0" encoding="utf-8"?>
<!-- Generator: Adobe Illustrator 28.0.0, SVG Export Plug-In . SVG Version: 6.00 Build 0)  -->
<svg version="1.1" id="Layer_2_00000041996696123004048280000015648922164564135345_"
	 xmlns="http://www.w3.org/2000/svg" xmlns:xlink="http://www.w3.org/1999/xlink" x="0px" y="0px" viewBox="0 0 1024 750.3"
	 style="enable-background:new 0 0 1024 750.3;" xml:space="preserve">
<g id="Layer_1-2">
	<path d="M665.5,245.6c0-51.6-66.8-67-106.3-63.8c-63.2,5.1-121,42.9-159.4,92.1c-0.3,0.4-0.7,0.6-1.2,0.6c-0.6,0-1.2-0.4-1.4-1
		c-23.5-66.9-72.9-122.5-140.6-145.4c-0.2-0.1-0.3-0.1-0.5-0.2c-1-0.6-1.2-1.9-0.6-2.8c0.1-0.1,0.2-0.3,0.3-0.4l33.9-32
		c32.4-26.1,68-45.9,107-59.2c26.6-9.2,54.3-15,82.2-17c56.1-3.9,112.6,7.6,161.1,38.3c37.5,23.7,65,57.7,73.2,101.9
		c0.2,1.1-0.2,1.9-1.1,2.5l-5.7,3.6l-1.3,1.5c-4.5,1-8,3.3-10.6,6.9c-0.6,0.8-0.7,1.7-0.5,2.7c3.5,12,3.1,23.8-1,35.5
		c0,0.1,0,0.2,0,0.3c0.1,0.2,0.2,0.4,0.5,0.6c0.5,0.3,0.9,0.1,1.2-0.4c4.5-9.7,5.7-19.9,3.4-30.6c-0.6-2.9-0.5-5.3,0.5-7.1
		c1.2-2.2,2.7-2.8,4.7-1.9c0.7,0.4,1.1,0.9,1.1,1.7v9.6c0,0.6,0.5,1.1,1.1,1.1c0.5,0,0.9-0.3,1-0.7c1.5-3.7,2.2-7.8,2.1-12.3
		c1.1-0.3,1.3-1.8,0.7-4.6c1.4-1.9,2.8-2.1,4.4-0.5l1.7,26.3c0,0.2,0.1,0.4,0.2,0.6c0.3,0.4,1,0.4,1.4,0.1c0.2-0.1,0.3-0.3,0.3-0.5
		c2.6-10.2,2.7-19.4,0.4-27.6c-3.4-16.4-5.9-26.8-7.7-30.9C673.3,44.8,580.7,9.8,490.8,11.1c-24.3,0.4-48.5,3.4-71.2,8.7
		c-0.9,0.2-1.7,0.1-2.4-0.4l-14.9-9.5c113.7-26.8,253.1-2.4,307.9,114l8.5,28.3c0.3,0.9,0.8,1.7,1.4,2.2
		c63.2,56.7,101,127.4,113.4,211.9c0.2,1.1-0.3,1.7-1.5,1.7c-10.9-0.5-22.2-1.5-33.8-2.9c-0.2,0-0.5-0.1-0.7-0.1l-1.6-6.9
		c0.2,0,0.3,0,0.5,0l8.7,1.3c0.9,0.1,1.3-0.3,1.3-1.2l-0.7-11.6c-0.1-0.8-0.5-1.6-1.2-2c1.3-0.3,2.5-0.8,3.6-1.4
		c2.3-1.4,4.3-3.6,5.4-7l0-0.1l2.1-7.2c1.1-3.8,0.3-6.8-1-9.2s-3.6-4.5-7.4-5.5l-95.9-24.2c-9.7-17.3-21.3-33.2-34.8-47.7
		c-12.4-13.4,1.1-43.3,9.1-55.8c0.4-0.6,1-1,1.7-1c1,0,1.9,0.8,2,1.8c1.8,13.6-2,25.1-11.5,34.7c-0.2,0.2-0.3,0.4-0.3,0.6
		c0,0.5,0.5,1,1,1c0.1,0,0.2,0,0.3,0c14.7-4.9,16-33.6,10.6-46.1l-2.6-8.1c-0.5-1.7-0.9-1.6-1,0.1c-0.2,2.4,0.5,5.1,2,8
		c-9.3,12.1-15.3,24.4-18.2,36.9c-0.8,3.4-1.6,6-2.5,7.7c-0.5,0.9-0.5,1.8-0.3,2.8c5.9,21-0.2,37.6-18.2,49.8l-30.6,26.6l-39.5,6.3
		c-0.2-4.2,0.3-6.2,3.5-9.4c5-5,7.1-11.1,13.7-15.9c2.1-1.5,3-3.3,2.4-5.8l1.9-0.9c0.9-0.5,1.4-1.1,1.6-2.2c0.3-1.8-0.6-2.8-2.7-2.9
		c-1.2-2.8-1.4-5.6-0.6-8.6c0.2-0.9,0.8-1.4,1.6-1.8c3.3-1.4,5.5-3.7,6.5-6.9c0.1-0.3,0.1-0.6,0.1-0.9c0-1.4-1.2-2.6-2.6-2.6
		c-1,0-1.9,0.5-2.3,1.3c-3,5.3-6,7.8-8.9,7.6c-1.2-0.1-1.5,0.4-0.9,1.4l0.5,0.8c0.3,0.6,0.3,1.2,0,1.8c-4.5,8.4-10.1,15.7-17,22.2
		c-0.5,0.5-1,1.1-1.2,1.9c-1.5,4.1-3.7,7.7-6.8,10.9c-0.4,0.4-0.9,0.6-1.4,0.6c-1.1,0-2-1.1-1.9-2.4c0-0.6,0.3-1.2,0.6-1.6
		c7.2-8.3,13.1-17.3,17.9-27.1c0,0,0-0.1,0.1-0.1c0.1-0.3-0.1-0.6-0.5-0.7h-0.1c-0.3,0-0.6,0-0.9,0c-0.6,0-1.2,0.3-1.6,0.9
		c-4.2,7.6-8.9,14.9-14.2,21.9c-0.1,0.1-0.9,0.7-2.5,1.9c-1.2,0.8-2.3,0.8-3.4,0c-0.3-0.3-0.8-0.4-1.2-0.4c-0.9,0-1.6,0.5-2,1.3
		c-0.9,2.3-2.7,3.7-5.3,4.2c-1.3,0.3-1.6-0.2-1-1.3l15.5-27.1c3.4,1.7,5.2,1.4,5.4-1c0.2-2-1.2-3.7-3.1-4.1
		c-1.4-0.2-2.4,0.3-2.9,1.4c-1.6,0.5-2.8,0.2-3.7-0.6c-0.6-0.5-0.7-1.4-0.3-2l16.8-31.9c0.4-0.8,0.6-1.6,0.6-2.5v-1.4
		c0-1.1-0.9-2-2-2c-0.9,0-1.7,0.6-2,1.5c-2,7.9-5.5,15.2-10.4,21.8c-3.2,4.3-5.6,8.4-7.1,12.4c-3,7.8-6.6,15.3-10.8,22.3
		c-0.5,0.8-1.2,1.2-2.1,1.2c-1.2,0-2.3-1-2.4-2.2l-1-11.3c-0.1-0.9-0.9-1.6-1.8-1.6c-0.5,0-0.9,0.2-1.2,0.5l-1.2,1.2
		c-0.3,0.3-0.7,0.5-1.1,0.5c-0.9,0-1.6-0.7-1.6-1.6c0-0.2,0-0.4,0.1-0.5l22.4-63.4c0.5-1.3,0-1.9-1.4-1.8c-1,0-1.9,0.3-2.7,0.8
		c-0.6,0.4-1.2,1.1-1.6,2.1c-7.2,18.7-13.7,38.7-19.5,60.1c-0.4,1.4-1.7,2.4-3.1,2.4c-0.9,0-1.8-0.4-2.4-1.1
		c-1.3-1.4-2.7-1.7-4.2-1.1c-1.2,0.5-1.7,0.2-1.4-1.1c2-9.3,6.6-17.6,5.4-27.1c-0.1-1.3-1.3-2.4-2.6-2.4c-1.2,0-2.4,0.9-2.6,2.1
		l-16.3,78.5c-0.3,1.3-1.3,2.3-2.6,2.6c-2.7,0.5-3.9-0.9-3.5-4.1c2.2-18.6,4.4-37.1,6.5-55.7c0.1-1.1,0.7-1.5,1.8-1.4
		c1.8,0.2,3.1-0.7,3.8-2.6c0.4-1.1,0.3-2.1-0.3-2.9c-0.6-1-1.6-1.5-3-1.6c-0.9-0.1-1.4-0.6-1.5-1.4c-0.1-0.9,0.2-1.5,1-2
		c0.9-0.6,1.2-1.4,1.1-2.4c-1-5.9-0.8-11.7,0.7-17.5c0.2-0.9,0.2-1.8,0-2.7c-0.7-2.3,0-4.2,2-5.4c20.8-13,53.2-25.2,77.9-14.3
		c25.7,11.3,48.2,26.9,67.8,46.8c0.3,0.4,0.8,0.5,1.3,0.5c1,0,1.8-0.7,1.9-1.7l1.3-9.6c-0.1-0.2-0.1-0.4,0.1-0.7
		c-4.9-18.1-17.1-30.6-36.6-37.8c-59.6-21.8-123.8,4-168.4,45.3c-0.2,0.2-0.5,0.3-0.7,0.3c-0.6,0-1.1-0.5-1.1-1.1c0-0.1,0-0.2,0-0.3
		c1.2-4.6,0.5-9-2.1-13.1c-0.6-1-0.5-1.8,0.4-2.5c25.9-20.8,55-34.5,87.5-41.1c38.3-7.8,93.2-3.1,117.6,32c3.6,5.1,5.4,11.5,5.5,19
		c0.2,2.7,1.3,4.5,3.2,5.4L665.5,245.6L665.5,245.6z M664.4,138.9c2.5-0.6,4.4,0.2,5.8,2.4c1.5,2.4,0.6,4.5,0.5,6.7
		c-0.3,4.4,0.9,4.9,3.6,1.4c12.1-15.6-36.3-32.5-14.8,11.8c0.3,0.5,0.3,1,0.3,1.6c0,1.9-1.5,3.5-3.4,3.6s-3.4-0.4-4.4-1.6
		c-0.7-0.8-1.1-1.7-1.3-2.8l-1.2-6.4c-0.1-0.6-0.7-1.1-1.3-1.1c-0.6,0-1.1,0.4-1.2,0.9l-2.8,8.1c-0.3,0.8-0.1,1.5,0.4,2.2
		c5.5,6.6,18.1,11.3,22.7,2.3c3.5-7-1.2-19.4-4.2-26.3c-0.1-0.3-0.2-0.5-0.2-0.8C662.9,139.9,663.5,139.1,664.4,138.9L664.4,138.9z
		 M424.9,229.5c8.5-2.1,13.6-11,11.5-19.8s-10.9-14.3-19.3-12.3s-13.6,11-11.5,19.8S416.4,231.5,424.9,229.5z M429.3,207.7
		c-4.2-6-11.3-8.3-15.8-5.1s-4.8,10.6-0.6,16.6s11.3,8.3,15.8,5.1S433.5,213.8,429.3,207.7z M628.8,184l-4.5-2.2
		c-1.6-0.8-2.1-0.4-1.3,1.3c2.6,6.2,11.9,4.9,11.9-1.4c0-3.3-2.6-6.9-3.4-10.6c0-0.1,0-0.1,0-0.2c0-0.6,0.5-1.2,1.2-1.2
		c0.3,0,0.6,0.1,0.8,0.3l3,2.8c0.7,0.7,1.3,0.6,1.8-0.2c0.2-0.4,0.3-0.9,0.3-1.3c-0.1-0.6-0.4-1.1-1.1-1.7c-2.4-1.9-4.8-2.4-7.3-1.5
		c-1.9,0.6-3.1,2.4-3.1,4.4c0,1,0.3,2,0.9,2.8c1.8,2.4,2.6,5.1,2.3,8.2C630.2,184.2,629.7,184.5,628.8,184L628.8,184L628.8,184z
		 M530.5,169.8l-1.1-6.9c-0.2-1.5,0.3-2,1.8-1.5c2.7,1,4.7,0.5,6-1.3c0-0.1,0.1-0.2,0.1-0.2c0.2-0.4-0.1-0.9-0.5-1.1
		c-0.1,0-0.2,0-0.3,0h-6.2c-1.1,0-1.7-0.5-1.9-1.6l-0.5-3.4c0-0.1,0-0.2,0-0.3c0-1.1,0.9-1.9,1.9-2l8.7-0.3c0.3,0,0.6-0.3,0.6-0.7
		s0-0.8,0-1.2v0c0-0.7-0.5-1.2-1.2-1.2h-0.1l-14.1,1.4c-1.5,0.2-2.1,1-1.8,2.5l4.2,21.9c0.2,0.9,0.7,1.3,1.6,1.1l13.9-2.5
		c0.8-0.1,1.4-0.8,1.4-1.6c0-0.9-0.7-1.7-1.7-1.7h-0.2c-2.4,0.2-5,0.9-7.8,2.1c-0.3,0.1-0.5,0.2-0.8,0.2
		C531.5,171.6,530.7,170.8,530.5,169.8L530.5,169.8L530.5,169.8z M639.5,111.3c-24.7-22.2-44.7,46.3-13.9,43.4c1-0.1,1.8,0.3,2.5,1
		c3,3.6,6.9,5.9,11.8,6.8c0.7,0.2,1.3-0.1,1.6-0.8c0.6-1.4,0.5-2.8-0.3-4.1c-0.5-0.9-0.6-1.9-0.3-2.9l19-54.3c0.4-1.2,0.2-2.2-0.8-3
		l-14.1-12.8c-0.3-0.3-0.7-0.5-1.1-0.5c-0.8,0-1.5,0.7-1.5,1.5c0,0.3,0.1,0.6,0.3,0.9l3.2,5.4c0.2,0.4,0.3,0.8,0.2,1.3l-4.5,17.5
		C641.3,112,640.6,112.2,639.5,111.3L639.5,111.3L639.5,111.3z M635.6,133.2c3-9.7,2.5-18.4-1-19.5s-8.8,5.9-11.7,15.6
		c-3,9.7-2.5,18.4,1,19.5S632.7,142.9,635.6,133.2z M599.7,101.6l1.3-7.9c0.2-1.1-0.5-2.2-1.6-2.4L581.7,87c-0.1,0-0.3,0-0.4,0
		c-1,0-1.9,0.8-1.9,1.9c0,0.5,0.2,1.1,0.6,1.4c2.8,2.3,3.8,4.9,3.5,8.8c-1,11.7-2.1,23.5-3.4,35.2c-0.4,3.7-2.4,5.4-6.1,5.3
		c-3.3-0.1-6-2.9-6-6.2V133c1.4-28,13.4-59.7-33.5-51.2c-0.9,0.2-1.7,0.9-1.9,1.8L530,94c0,0.1,0,0.2,0,0.3c0,0.7,0.6,1.3,1.3,1.3
		c0.3,0,0.7-0.2,1-0.4c5.4-5.4,11.7-6.7,18.7-4c0.4,0.2,0.8,0.4,1.2,0.6c2.3,1.7,2.8,4.9,1.1,7.2c-0.3,0.4-0.6,0.7-1,1
		c-10.5,8.3-22.6,8-25,23.5c-2.6,16.8,11.8,24.3,25.9,14.5c1-0.7,1.8-0.5,2.3,0.5l1.5,2.6c0.5,0.8,1.2,1.2,2.1,1.2
		c13.6-0.1,26.9,1.8,39.9,5.8c0.9,0.3,1.5,0,2-0.7l1-1.7c0.1-0.2,0.2-0.4,0.2-0.6c0-0.5-0.4-1-0.9-1.1c-2.6-0.5-4.5-1.8-5.9-3.7
		c-0.5-0.8-0.8-1.6-0.6-2.6c1.2-8.8-0.4-36.1,16.7-27.2c0.9,0.4,1.7,0.3,2.4-0.3l6.8-6.6c0.1-0.1,0.1-0.2,0.2-0.2
		c0.5-0.8,0.4-1.9-0.4-2.4c-0.1-0.1-0.2-0.1-0.3-0.2l-7.8-3.8c-0.8-0.3-1.7-0.3-2.4,0.2l-8.6,5.6
		C599.9,103.7,599.3,103.3,599.7,101.6L599.7,101.6L599.7,101.6z M540.3,129.8c2.8,4.3,10.3,4.9,12.1-0.6c1.5-4.6,1.9-11,1.3-19.4
		c-0.1-1-0.5-1.2-1.4-0.8C546.2,112.1,535.3,122.2,540.3,129.8z M482.5,160.2l-20.2,8.6c-1.4,0.6-1.7,1.5-0.9,2.8l0.5,0.9
		c0.5,0.7,1,0.8,1.5,0.2c2-2.3,4.1-3,6.1-1.9c1.1,0.6,2.1,1.9,2.9,3.9c2,5.4,4.2,10.8,6.5,16.1c0.4,0.8,1,1.2,1.9,1.1
		c2.8-0.3,3.7-1.6,2.8-4c-2.4-6.2-4.9-12.1-7.5-17.6c-0.6-1.4-0.2-3,1.1-3.8l6.6-4c0.4-0.2,0.6-0.6,0.6-1.1c0-0.7-0.5-1.2-1.2-1.2
		C482.9,160,482.7,160.1,482.5,160.2L482.5,160.2L482.5,160.2z M644.3,181.6c0.5-1,0.5-1.9-0.1-2.9l-1.4-2.4
		c-0.1-0.2-0.2-0.4-0.2-0.7c0-0.7,0.6-1.3,1.3-1.3c0.3,0,0.5,0.1,0.8,0.3l6.5,4.6c1.1,0.8,1.1,1.6,0,2.3c-4.2,2.9-7,6.9-8.5,11.9
		c0,0.1-0.1,0.2-0.1,0.3c-0.4,0.6-1.2,0.8-1.8,0.4c-0.1-0.1-0.2-0.1-0.3-0.2l-0.8-0.8c-0.6-0.6-0.7-1.5-0.3-2.2L644.3,181.6
		L644.3,181.6L644.3,181.6z M441.4,192.4c-1.9-1.3-2.9-3-3-5.4c-0.1-1.1,0.5-2.1,1.4-2.6c2.8-1.6,5.7-3,8.6-4.4
		c0.5-0.3,0.9-0.5,1-0.9c0.2-0.5,0.2-1,0-1.5c-0.6-1.3-1.5-1.6-2.7-0.9l-15.2,9.2c-0.8,0.5-1,1.1-0.5,1.9l14.9,22.6
		c0.4,0.5,1,0.9,1.6,0.9c0.5,0,1-0.2,1.4-0.6l1.2-1.1c0.6-0.6,0.7-1.4,0.2-2.1l-6.3-9.2l0,0c-0.5-0.8-0.3-1.9,0.5-2.4l0,0l5.8-3.8
		c0.5-0.3,0.7-0.8,0.7-1.4c0-0.4,0-0.7,0-1.1v0c0-0.5-0.4-0.9-0.9-0.9c-0.2,0-0.3,0-0.5,0.1l-6.1,3.6
		C442.8,192.9,442.1,192.9,441.4,192.4L441.4,192.4L441.4,192.4z M569.4,169.9c-0.8,0.4-1.6,0.5-2.4,0.5c-2.6,0-4.9-1.7-5.7-4.2
		c-2.2-7.2-0.2-12.4,6-15.3c0.8-0.4,1.6-0.3,2.3,0.1l5.1,3c1,0.6,1.7,0.4,2.1-0.7c0.2-0.4,0.2-0.7,0.1-1.1c-0.1-0.6-0.6-1.1-1.4-1.6
		c-6.1-3.5-11.4-3.3-15.9,0.8c-12.5,11.2,4.1,30.4,16.1,18.6c0.3-0.3,0.4-0.6,0.4-1c0-0.7-0.6-1.4-1.4-1.4c-0.2,0-0.4,0-0.6,0.1
		L569.4,169.9L569.4,169.9L569.4,169.9z M506.8,164.4l-7.4,1.5c-1,0.2-1.9-0.4-2.2-1.4l-1.8-6.7c-0.3-1.2-1.1-1.6-2.3-1.3l-2.2,0.6
		c-1.2,0.3-1.6,1.1-1.2,2.2l7.8,23c0.4,1.2,1.2,1.5,2.3,0.9l1.3-0.8c1-0.6,1.3-1.5,1-2.6l-2.9-9.1c-0.1-0.2-0.1-0.4-0.1-0.6
		c0-0.9,0.6-1.6,1.4-1.8l6.6-1.7c0,0,0.1,0,0.1,0c1-0.2,2,0.4,2.2,1.4c0,0,0,0.1,0,0.1c0.5,3.3,1.2,6.3,2,8.8
		c0.3,1.1,1.3,1.8,2.4,1.8c1.4,0,2.5-1.1,2.5-2.5c0-0.2,0-0.4-0.1-0.7l-4.9-21.9c-0.2-0.9-0.7-1.2-1.6-1.1l-2.7,0.3
		c-1.3,0.1-1.8,0.8-1.5,2.1l1.9,8.2c0.1,0.6-0.1,0.9-0.7,1L506.8,164.4L506.8,164.4z M602.8,163.6c0-6.4-5.2-11.6-11.6-11.6
		s-11.6,5.2-11.6,11.6s5.2,11.6,11.6,11.6S602.8,170,602.8,163.6z M597.4,165.1c1.2-5-0.6-9.6-4-10.4s-7.1,2.6-8.3,7.5
		s0.6,9.6,4,10.4S596.2,170.1,597.4,165.1z M406.6,68.2c0.5,0.2,0.9,0.3,1.4,0.3c0.7-0.1,1.2-0.7,1.2-1.4c0-0.5-0.3-1-0.7-1.2
		l-4.3-2.6c-0.2-0.1-0.5-0.2-0.7-0.2c-0.7,0-1.4,0.6-1.4,1.4c0,0.1,0,0.2,0,0.3c0.4,2.1,1.5,3.2,3.3,3.2
		C405.9,67.9,406.2,68,406.6,68.2L406.6,68.2z M614.3,165.8c0.3,0.1,0.5,0.3,0.7,0.6c0.2,0.4,0.2,0.9,0,1.5c-1.2,4-1.4,8.1-0.7,12.4
		c0.2,1.1,1.1,1.8,2.1,1.8c1.2,0,2.1-0.9,2.2-2.1l0.8-17.2v-0.2c0-1.9-1.5-3.4-3.4-3.4c-1.1,0-2.1,0.5-2.8,1.4l-10.4,15.1
		c-0.1,0.2-0.2,0.4-0.2,0.6c0,0.6,0.5,1.1,1.1,1.1c0.2,0,0.4-0.1,0.6-0.2c4.1-2.8,7.1-6.5,8.8-11
		C613.4,165.6,613.7,165.5,614.3,165.8L614.3,165.8L614.3,165.8z M442.5,55.7c3.5,0.6,4.1-1.1,2-5.3c-0.5-1-1.2-1.2-2-0.4l-1.8,1.6
		L432.4,33c-0.4-0.9-0.9-1-1.4-0.1c-0.4,0.6-0.4,1.3-0.2,2.2c3,12.1,5.9,24.3,8.5,36.6c0.2,1-0.2,1.4-1.2,1.3
		c-2.7-0.5-5.1-1.9-7.2-4.1c3.2-4.9,4-9.9,2.4-14.9c-0.3-1.1-1-1.4-2.1-1L413,59.5c-4.8-1.6-10-4.1-15.5-7.3c-0.5-0.3-1-0.3-1.4-0.1
		c-0.6,0.5-0.7,0.9,0,1.3l38.2,27.3c0.4,0.3,0.6,0.6,0.6,1.1c0,0.6-0.4,1.1-1,1.3l-3.5,0.8l-7.3-6.6c-1.5-1.3-1.9-1.1-1.1,0.7
		l3.5,8.4l-22.9,10.6l-19.9-24.7c-0.7-0.9-1.5-1-2.5-0.5l-9.5,5.1c-1.1,0.6-1.5,1.5-1.1,2.7l8.4,25.9c0.3,0.9,0,2-0.8,2.6
		c-1.5,1.2-3.1,2.1-4.9,2.7c-0.3,0.1-0.5,0.3-0.7,0.6l-0.5,0.8c0,0.1,0,0.1,0,0.2c0,0.2,0.2,0.4,0.4,0.4h0.1l9.2-2.7l55.7-17.9
		c1.1-0.3,1.5,0.1,1.3,1.2c-0.3,1.5-1.1,3.1-2.5,4.8c-3-0.7-5.4-0.4-7.4,1c-0.9,0.6-1.1,1.4-0.9,2.5l2.5,11c0.4,4-0.8,8.2-3.5,12.5
		l-16-20.3c-0.6-0.8-1.6-1.1-2.6-0.8l-25.7,7.2h0c-1.1,0.3-1.7,1.5-1.4,2.7v0l11.7,35.1c0.6,1.8,0.2,2.1-1.1,0.7
		c-13.9-13.4-27.2-27.3-40.2-41.7c-4.4-4.9-4.1-9.7,1.8-12.8c0.9-0.5,1.3-1.2,1-2.2l-0.8-3.4c-0.5-1.9-1.4-2.3-3-1.1l-39.3,28.8
		c-0.8,0.6-1.1,1.4-0.9,2.4c0.5,2.5,2.2,3.3,5.3,2.5c0.5-0.1,0.9-0.3,1.2-0.6c4.5-3.1,8.5-3,12,0.2c25.4,22.8,50,45,73.6,66.8
		c1.2,1.1,2.8,1.8,4.5,1.8c3.6,0,6.6-3,6.6-6.6c0-0.6-0.1-1.3-0.3-1.9l-17.4-59.4c-0.7-2.4-0.3-2.7,1.4-0.8l21,24.5
		c0.6,0.7,0.8,1.8,0.5,2.7l-2.5,6.9c-0.1,0.1-0.1,0.3-0.1,0.4c0,0.5,0.4,0.9,0.9,0.9c0.4,0,0.7-0.2,0.8-0.5l2.8-5.3
		c0.6-1.1,1.2-1.1,2-0.2l13.7,16.4c0.7,0.9,1.7,1.5,2.7,1.9c3.3,1.2,7.1-0.5,8.4-3.8c0.4-1.1,0.5-2.2,0.4-3.3l-6.7-42.7
		c-0.1-0.4-0.3-0.9-0.6-1.2c-0.9-0.9-2.3-0.9-3.2-0.1c-0.3,0.3-0.5,0.8-0.6,1.2c-1.5,8.7-5.1,15.4-10.5,20l20-42.5
		c0.6-1.3,1.2-1.3,1.8,0l21.3,47.9c-1-0.1-1.7-0.2-2.3-0.4c-1.2-0.4-1.9-0.6-1.9-0.7c-5.7-13.2-11.5-26.3-17.7-39.2
		c-0.2-0.3-0.3-0.5-0.5-0.6c-0.2,0-0.5,0-0.8,0.2c-0.7,0.4-0.9,1-0.6,1.7c6.6,18.6,11.6,32.1,15.1,40.5c2,5,1.2,8.7-2.6,11.2
		c-0.9,0.6-1,1.3-0.2,2.1l0.7,0.7c0.6,0.6,1.4,0.7,2.2,0.4c20.3-9.3,41.4-15.3,63.5-17.9c1.1-0.1,1.5-0.7,1.5-1.8l-0.4-16.6
		c0-0.1,0-0.1,0-0.2c-0.1-0.8-0.8-1.3-1.6-1.2c-0.1,0-0.1,0-0.2,0l-1,0.3c-1,0.3-1.7,1.2-1.7,2.2c-0.2,7.7-3.9,12.3-11,13.9
		c-0.1,0-0.2,0-0.3,0c-0.8,0-1.5-0.7-1.5-1.5c0-0.1,0-0.3,0.1-0.4l15.1-54.3c0-0.1,0.1-0.3,0.1-0.4c0.1-1.1-0.7-2-1.8-2.1
		c-0.1,0-0.3,0-0.4,0l-44.5,6.2c-1.6,0.2-2.1,1.1-1.7,2.6l2.9,9.9l-15.5-11.5c-1.5-1.1-1.4-1.9,0.5-2.3c20.5-4.7,40.2-9,58.9-13.1
		c0.5-0.1,0.8-0.3,1-0.6c0.3-0.5,0.2-0.8-0.5-0.7l-54.7,5.8h0c-0.3,0-0.5-0.3-0.5-0.5c0-0.2,0.1-0.3,0.3-0.4
		c84.1-50.4,192.9-26.4,231.4,69.1c0.3,0.9,0.9,1,1.5,0.3c0.5-0.5,0.6-1.1,0.3-1.9C662.1,47.3,547.1,16,460.7,67.7
		c-0.2,0.1-0.4,0.2-0.6,0.2c-0.6,0-1.2-0.5-1.2-1.2c0-0.1,0-0.3,0.1-0.3l13.1-37.6c0.1-0.3,0-0.5-0.3-0.6c-0.2-0.1-0.5-0.2-0.7-0.2
		s-0.4,0-0.5,0.2l-21.1,41.5c-0.7,1.4-1.3,1.3-1.8-0.1l-5.1-13.7L442.5,55.7L442.5,55.7z M498.1,116.2l6.8-24.4
		c0.3-1.1-0.1-1.7-1.3-1.8c-10-0.7-17.1,3.9-21.6,13.9L498.1,116.2L498.1,116.2z M497,120.2c0-0.9-0.4-1.6-1.1-2
		c-13.2-8.3-26.6-16.3-40.3-24.2c-1.1-0.6-1.6-0.3-1.7,0.9c-0.1,1.7,0.9,3.5,3.2,5.2c1,0,2.2,0.4,3.5,1.1c1,0.5,1.7,1.3,2.1,2.4
		l14.6,41.4c0.3,0.7,0.9,1.3,1.6,1.4l7.8,1.5c0.8,0.2,1.7-0.3,2-1.1L497,120.2L497,120.2L497,120.2z M300,521l-22.3,0.3
		c-1.2,0-1.6,0.6-1,1.7c84.4,158.6,299.8,182.1,413.1,40.3c1.5,1.5,3.5,2.6,6.1,3.1l0,0l0.5,0.1l-5.1,16.8c-0.3,1,0.1,1.6,1.1,1.8
		l80.9,19.4c1.2,0.3,1.5,1,0.7,2c-144,198.5-438.5,190.7-568.4-19.2c-0.1-0.1-0.1-0.2-0.1-0.3c-0.3-0.7,0.1-1.6,0.9-1.9
		c0.1,0,0.2-0.1,0.3-0.1l18.6-2.5c1.1-0.1,1.5-0.7,1.3-1.8l-2.3-15.4c-0.1-0.9-0.7-1.4-1.6-1.4h-12.4c0.3-2.4-4.5-18.1-6.5-20.1
		c-2-2-4.9-3.6-9.1-3.4l-12.9,0.5l-5.1-17.5c-0.4-1.5,0.1-2.4,1.7-2.7c88.7-15.6,184.6-10.2,274.1-4l39.6,3l-2.3,8.6l-98.3-6.2
		l-45.8,54.8c-0.9,1.1-1.8,1.1-2.7,0.1L315,546.4c-1-1.1-0.9-2,0.2-2.9c8.2-6.7,22.3-21.4,33.1-18.1c1,0.3,1.1,0.7,0.2,1.4
		c-2.6,2-5.1,3.9-7.6,5.7c-3.1,2.3-3.9,4.3-2.3,6.1l0,0c1,1,2.5,1,3.5,0.1l0,0l12.4-12.5c0.8-0.8,1.7-0.9,2.6-0.1l3.6,3
		c0.3,0.2,0.6,0.3,1,0.3c0.5,0,1-0.3,1.3-0.7l3-4.5c0.1-0.1,0.3-0.2,0.5-0.2c0.3,0,0.5,0.2,0.5,0.5l0.2,0.9c0.1,0.7-0.1,1.3-0.6,1.8
		c-8.2,7.6-17.6,19.4-26.5,25.4c-3,2-2.5,3.8,1.3,5.5c1.2,0.5,2.6,0.2,3.5-0.7l32.3-32.4c0.6-0.6,0.7-1.3,0.2-2.1l-0.6-0.9
		l-43.1-1.1c-3.1,3.7-6.6,7.1-10.5,10.2c-3.2,2.6-8.4,3.4-11.5,7.4c-0.6,0.8-1.2,0.7-1.7-0.1L300,521L300,521L300,521z M645.7,654.4
		l-7.1-11.1c-0.8-1.2-1.8-1.4-3-0.6l-3.9,2.5c-0.9,0.5-1.1,1.3-0.5,2.2l23.3,35.9c0.5,0.8,1.2,1,2.1,0.5l4.6-2.8
		c0.1,0,0.1-0.1,0.2-0.1c0.8-0.6,0.9-1.8,0.3-2.6c0-0.1-0.1-0.1-0.1-0.2c-3.7-3.8-6-8.3-6.6-13.5c0-0.1,0-0.2,0-0.2
		c0-0.8,0.7-1.5,1.5-1.5c0.3,0,0.7,0.1,0.9,0.3l12.8,9.6c0.9,0.7,2.1,0.7,3,0.1l5.2-3.5c0.7-0.5,0.8-1,0-1.5l-22.1-15.7
		c-1-0.7-1.5-1.6-1.5-2.8l-1-16.3c-0.1-1.2-0.6-1.4-1.6-0.8l-4.6,2.8c-0.9,0.5-1.3,1.4-1.2,2.4l1.4,16.4c0,0.2,0,0.4-0.1,0.6
		c-0.3,0.5-0.9,0.8-1.5,0.5C646,654.8,645.8,654.6,645.7,654.4L645.7,654.4L645.7,654.4z M342.4,659.8l-3.6,24
		c0,0.3-0.1,0.5-0.1,0.7c0,2.6,2.1,4.6,4.6,4.6c1.6,0,3.2-0.9,4-2.3l20.4-33.9c0.5-0.9,0.3-2.1-0.6-2.7l-3.8-2.4
		c-0.9-0.5-1.6-0.3-2.1,0.5l-11.9,20.6c-0.1,0.2-0.4,0.3-0.6,0.3c-0.4,0-0.7-0.3-0.7-0.7v-0.1l4.4-24.7c0.2-1,0-2-0.4-2.9
		c-1.1-2.5-4.1-3.5-6.5-2.4c-0.9,0.4-1.7,1.1-2.2,2l-20.3,33.9c-0.7,1.2-0.5,2.2,0.6,3l2.3,1.8c0.4,0.3,0.9,0.5,1.5,0.5
		c0.9,0,1.7-0.5,2.1-1.2l11.4-19.2C342.3,657.4,342.7,657.5,342.4,659.8L342.4,659.8L342.4,659.8z M607,689.7c6.6,3.2,11.7,17,20,9
		c0.6-0.6,0.7-1.2,0-1.8l-11.5-11.5c-0.7-0.7-0.8-1.9-0.3-2.7c6.3-9.6-0.6-21.7-11.8-22.4c-3.1-0.2-8.3,1.9-15.8,6.4
		c-0.9,0.5-1.1,1.2-0.7,2.1l16.2,38.8c0.3,0.8,0.9,1,1.7,0.7l5.2-2.2c0.6-0.3,1-0.9,1-1.6c0-0.3-0.1-0.5-0.2-0.7l-5.6-12.6
		C604.5,689.3,605.1,688.8,607,689.7L607,689.7L607,689.7z M598.4,672.7l2.7,7.8c0.4,1,1.5,1.6,2.6,1.2l0.8-0.3
		c3.4-1.2,5.4-4.6,4.4-7.5l-0.3-0.9c-1-2.9-4.7-4.4-8.2-3.2l-0.7,0.2c-0.8,0.3-1.4,1.1-1.4,1.9C598.3,672.2,598.3,672.5,598.4,672.7
		L598.4,672.7L598.4,672.7z M393.5,680.8c-0.9-0.9-1.3-2.1-1.3-3.4c0-2.7,2.2-5,5-5c1.1,0,2.1,0.3,2.9,1c2.9,2.1,6,2.9,9.1,2.6
		c1.1-0.1,1.8-0.8,2-1.9l0.5-2.7c0.2-1.2-0.2-1.9-1.3-2.3l-18.4-6.9c-0.2-0.1-0.4-0.1-0.6-0.1c-0.7,0-1.4,0.5-1.6,1.2l-14.7,39.6
		c-0.4,1-0.1,1.7,1,2.1l19.3,7.3c1.1,0.4,2.3-0.1,2.7-1.2l1.5-3.7c0.1-0.2,0.1-0.5,0.1-0.7c0-0.8-0.5-1.6-1.3-1.9l-11.4-4.2
		c-0.8-0.3-1.3-1-1.3-1.9c0-0.3,0-0.5,0.1-0.7l3.1-8.3c0.3-0.6,0.9-1.1,1.6-1.1c0.4,0,0.7,0.1,1,0.3c2.5,1.6,4.7,2.2,6.7,1.8
		c1.8-0.4,3-2,3-3.7c0-1.9-1.4-3.5-3.3-3.8C396.1,682.8,394.6,682,393.5,680.8L393.5,680.8L393.5,680.8z M301.6,621.4
		c-0.3-0.3-0.4-0.7-0.3-1.1l4.2-11.1c0-0.1,0.1-0.2,0.1-0.3c0-0.5-0.5-1-1-1c-0.2,0-0.4,0-0.5,0.1l-10.2,6c-0.4,0.2-0.8,0.2-1.1-0.1
		l-9.3-7.5c-0.2-0.1-0.4-0.2-0.6-0.2c-0.5,0-1,0.5-1,1c0,0.1,0,0.2,0,0.2l2.6,11.6c0.1,0.4-0.1,0.8-0.4,1l-10,6.5
		c-0.3,0.2-0.4,0.5-0.4,0.8c0,0.5,0.4,0.9,0.9,1l11.8,1.2c0.4,0,0.7,0.3,0.8,0.7l3.1,11.5c0.1,0.4,0.5,0.7,1,0.7
		c0.4,0,0.7-0.2,0.9-0.6l4.8-10.9c0.2-0.4,0.5-0.6,1-0.6l11.9,0.6h0.1c0.5,0,1-0.5,1-1c0-0.3-0.1-0.5-0.4-0.7L301.6,621.4
		L301.6,621.4L301.6,621.4z M450.5,686.9l5.4,1c0.9,0.2,1.7-0.3,2-1.2l1.4-4.5c0.4-1.3-0.1-2.1-1.4-2.3l-23.4-4.4
		c-1.1-0.2-1.8,0.2-2,1.3l-1.5,6.1c0,0.1,0,0.2,0,0.3c0,0.7,0.6,1.3,1.3,1.3c0.1,0,0.3,0,0.4-0.1c3.4-1.2,5.6-0.7,6.6,1.3
		c0.5,1.1,0.5,2.8,0,5.2c-1.9,9.7-3.7,19.5-5.4,29.3c-0.2,1.3,0.3,2,1.6,2.1l4.2,0.3c1.2,0.1,2.3-0.8,2.6-2l5.9-32.3
		C448.4,687.2,449.2,686.7,450.5,686.9L450.5,686.9L450.5,686.9z M711.8,617.7c-0.3-0.2-0.5-0.6-0.5-1l2-11.8v-0.2c0-0.5-0.5-1-1-1
		c-0.3,0-0.5,0.1-0.7,0.3l-8.8,8.2c-0.3,0.3-0.8,0.3-1.1,0.2l-10.6-5.6c-0.1-0.1-0.3-0.1-0.5-0.1c-0.5,0-1,0.5-1,1
		c0,0.1,0,0.3,0.1,0.4l5.1,10.9c0.2,0.4,0.1,0.8-0.2,1.1l-8.6,8.4c-0.2,0.2-0.3,0.4-0.3,0.7c0,0.5,0.5,1,1,1h0.1l11.9-1.4
		c0.4-0.1,0.8,0.2,1,0.5l5.3,10.8c0.2,0.3,0.5,0.5,0.9,0.5c0.5,0,0.9-0.3,1-0.8l2.3-11.8c0.1-0.4,0.4-0.7,0.8-0.8l11.9-1.7
		c0.5-0.1,0.8-0.5,0.8-1c0-0.3-0.2-0.7-0.5-0.8L711.8,617.7L711.8,617.7L711.8,617.7z M559.7,722.5c8.3-1.7,13.1-13.7,10.5-26.6
		s-11.5-22.1-19.9-20.5s-13.1,13.7-10.5,26.6S551.4,724.1,559.7,722.5z M561.4,697.7c-1.7-8.2-5.9-14.3-9.4-13.6s-5,8-3.3,16.2
		c1.7,8.2,5.9,14.3,9.4,13.6S563.1,705.9,561.4,697.7z M487.8,706.9l-2.5-22.1c-0.2-1.5-1-2.2-2.5-2.2h-4.2c-1.1,0-1.6,0.6-1.4,1.7
		l7.3,41.2c0.4,1.9,2,3.2,3.9,3.2s3.5-1.3,3.9-3.2l4.2-23.6c0.1-0.3,0.3-0.5,0.6-0.5s0.5,0.2,0.6,0.5c1.9,7.9,3.7,15.5,5.6,22.8
		c0.7,2.8,2.6,3.8,5.6,2.9c1-0.3,1.7-1.1,1.9-2.1l6.1-41.8c0.2-1.6-0.5-2.3-2-2l-4.5,0.8c-0.8,0.1-1.3,0.6-1.4,1.4l-2.3,23.9
		c-0.1,0.4-0.4,0.6-0.8,0.6s-0.7-0.3-0.8-0.6c-0.9-7.5-3-14.8-3.9-22.3c-0.3-2.3-1.7-3.5-4.3-3.7c-1.8-0.1-3.4,1.1-3.8,2.9
		l-4.2,22.2c-0.1,0.3-0.4,0.5-0.7,0.5S487.8,707.3,487.8,706.9L487.8,706.9L487.8,706.9z M384.7,287.6
		c-5.7-19.7-14.1-37.5-25.3-53.3c-0.4-0.6-1.1-1-1.9-1c-0.5,0-1,0.2-1.3,0.4c-9.8,7.2-18.6,15.5-26.4,24.8c-0.6,0.8-0.6,1.5,0.1,2.2
		l24.8,24.6C355,285.8,384.7,287.6,384.7,287.6L384.7,287.6L384.7,287.6z M345.4,285.2l-18.8-21.4c-0.7-0.8-1.4-0.7-2,0.1
		l-13.4,17.3c-0.6,0.8-0.8,1.7-0.4,2.7c1,2.3,2.8,3.6,5.3,3.8c0.9,0.1,1.7,0.5,2.4,1.1l2,2.1l0.2-5c0-1.2,0.6-1.8,1.8-1.7
		L345.4,285.2L345.4,285.2L345.4,285.2z M320.3,297.8l-11.5-9c-1.1-0.9-2-0.7-2.8,0.4l-2.2,3c-0.5,0.7-0.4,1.3,0.3,1.8l11,7.4
		c0.8,0.5,1.6,0.7,2.6,0.6l2-0.3C320.6,299.9,320.8,298.6,320.3,297.8L320.3,297.8z M309,305.1c2.9,0.5,3.3-0.2,1.1-2.2
		c-2.3-2.1-4.9-3.8-7.9-5.1c-1-0.4-1.7-0.2-2.2,0.7l-2.9,5c-0.2,0.3-0.2,0.5-0.2,0.8c0,0.9,0.7,1.6,1.6,1.6c0.2,0,0.4,0,0.5-0.1
		C302.3,304.7,305.6,304.5,309,305.1L309,305.1L309,305.1z M440.6,529.4c0.1-0.2,0.2-0.5,0.3-0.8s0.3-0.5,0.6-0.6
		c0.5-0.2,1.2,0.2,1.4,0.9c0.1,0.3,0.1,0.7,0,1L413,618.8c-0.4,1.2-1.2,1.5-2.4,1l-17.9-8.1c-1.1-0.5-1.4-1.3-0.9-2.5
		c10.8-23.4,21.8-46.6,32.9-69.6c1.6-3.4,2.9-8.3,6.5-11c0.3-0.2,0.7-0.3,1.1-0.3c1,0,1.8,0.8,1.8,1.8c0,0.2,0,0.4-0.1,0.6
		l-3.8,10.1c0,0.1,0,0.1-0.1,0.2c-0.1,0.6,0.3,1.3,0.9,1.4c0.1,0,0.1,0,0.2,0c1.8,0.1,3-0.8,3.5-2.7c1-3.7,2.8-6.8,5.4-9.4
		C440.3,529.9,440.4,529.7,440.6,529.4L440.6,529.4L440.6,529.4z M595.1,600.3l-28-49.2c-0.4-0.7-0.6-1.4-0.6-2.2
		c0-2.4,2-4.4,4.4-4.4c0.8,0,1.5,0.2,2.2,0.6l2,1.1c0.8,0.5,1.6,0.7,2.5,0.6c9-0.5,17.8,0.6,26.3,3.4c0.8,0.3,1.6,0.8,2.1,1.4
		c7,7.9,15.5-7.5,22.9,4.9c0,0.1,0.1,0.2,0.2,0.2c0.4,0.4,1.1,0.4,1.5,0c0.1-0.1,0.1-0.1,0.2-0.2c0.1-0.3,0.2-0.5,0.3-0.8
		c0.1-1.3,0.9-1.9,2.2-1.7l32.6,3.6c0.1,0,0.3,0,0.4,0.1c0.5,0.3,0.8,1,0.5,1.5c-0.1,0.1-0.1,0.2-0.2,0.3l-23.2,22.6
		c-0.8,0.7-1.7,1.2-2.8,1.4c-5.4,1-6.2,5.4-9.9,8.2c-9.3,7-18.9,13.2-29.1,18.6c-1.7,0.9-2.2,0.5-1.5-1.3c1.2-3.1,0.3-5.3-2.8-6.8
		C596.4,601.9,595.7,601.2,595.1,600.3L595.1,600.3L595.1,600.3z M626.6,572.6c1.4,1.3,2.6,1.2,3.7-0.3c0.6-0.8,0.7-1.8,0.2-2.7
		c-0.4-0.7-0.9-1.3-1.6-1.7c-0.6-0.3-1.3-0.5-2.1-0.4c-1.8,0.1-3.1,1.3-3,2.7c0,0.6,0.3,1.1,0.9,1.5c0.5,0.4,0.9,0.6,1.2,0.6
		C626.1,572.3,626.4,572.4,626.6,572.6L626.6,572.6L626.6,572.6z M471.9,581.3c-3.8,5.2-5,11.9-3.5,19.9c0,0.3,0.1,0.5,0.1,0.8
		c0,2.2-1.8,3.9-3.9,3.9c-0.6,0-1.2-0.1-1.7-0.4c-1.1-0.5-1.5-2.5-1-5.7c2.4-14.4,2.6-28.9,0.5-43.4c-0.1-1.1-0.7-1.7-1.8-1.8
		c-5.6-0.7-6.4,3.6-6.6,8.4c-0.1,6-1.7,11.5-4.8,16.5c-0.5,0.8-1.3,1.2-2.2,1.2c-1.4,0-2.6-1.2-2.6-2.6c0-0.2,0-0.3,0.1-0.5
		l6.5-28.2v-0.2c0-0.5-0.5-1-1-1c-0.4,0-0.7,0.2-0.9,0.6l-9.8,25.9c-0.2,0.5-0.6,0.7-1.1,0.6l-1-0.2c-0.4,0-0.6-0.3-0.6-0.7
		c0-0.1,0-0.2,0-0.2l4.6-15.7c0.1-0.3,0-0.6-0.4-0.7c-0.3-0.1-0.6-0.2-1-0.3c-0.3-0.1-0.4,0-0.5,0.3l-19.4,62.8
		c-0.4,1.3,0.3,2.7,1.6,3.1c39.6,13.5,80.1,16.3,121.5,8.6c11.3-2.1,22-5.6,32-10.5c0.8-0.4,1.1-1.3,0.7-2.1l-11-22.9
		c-0.3-0.6-1-1.1-1.7-1.1l-10.4-0.2c-5-0.1-6.7,2.2-5,6.9l6.2,17.2c0.4,1.1,0,1.9-1,2.4l-1.3,0.6h0c-0.5,0.2-1,0-1.2-0.5v0l-10-25.9
		c-0.4-1-1.3-1.7-2.3-1.7c-16-1.3-32-0.7-47.9,1.8c-1,0.1-1.5-0.3-1.6-1.2l-1.3-14.7l-3.8,0.2c1.2,16-0.3,31.5-4.4,46.7
		c-0.3,0.9-1.1,1.4-2,1.3c-1.5-0.1-2.3-1.1-2.2-2.8c0.2-14.5,0.1-29.1-0.4-43.7C473.6,582.1,472.7,581.9,471.9,581.3L471.9,581.3
		L471.9,581.3z M357.6,580.1c-0.5,0.6-1.1,0.8-1.8,0.6l-4.1-0.9c-0.1,0-0.2,0-0.3,0c-0.8,0-1.5,0.7-1.5,1.5c0,0.4,0.2,0.8,0.5,1.1
		c10.1,9.3,21.3,17.3,33.4,23.9c0.8,0.5,1.4,0.3,1.8-0.6l15.2-29.4c0.3-0.6,0.1-1-0.6-1.1l-1.3-0.1c-1-0.1-1.5,0.3-1.7,1.3
		c-0.5,2.3-1.7,3.8-3.7,4.5c-0.2,0.1-0.4,0.1-0.6,0.1c-0.9,0-1.6-0.7-1.6-1.6c0-0.3,0.1-0.5,0.2-0.8l13.2-24.5c0.7-1.3,0.3-2-1.2-2
		h-2.1c-0.9,0-1.5,0.5-1.7,1.3c-1.5,6.2-5.4,9.3-11.7,9.3c-1.1,0-1.9,0.5-2.4,1.4c-4.8,9.1-10.4,17.6-16.7,25.7
		c-0.3,0.4-0.6,0.6-0.9,0.7c-0.4,0.1-0.7,0.2-1,0.1c-1.4-0.3-1.8-1-1-2.2l18.5-29.1c0.2-0.3,0.3-0.6,0.3-0.9c0.3-3.1-1-5-3.8-5.7
		c-1-0.2-1.7,0-2.3,0.8l-9.3,11.3c-0.7,0.8-0.6,1.6,0.1,2.4l0.7,0.7c0.3,0.3,0.4,0.7,0.4,1.1c0,0.8-0.7,1.5-1.5,1.5h-3.5
		c-0.7,0-1.3,0.3-1.7,0.9C361.8,574.5,359.8,577.3,357.6,580.1L357.6,580.1L357.6,580.1z M569.6,578.8h-0.1c-0.5,0-0.8,0.3-0.9,0.7
		c-0.8,6.7,1,12.3,5.4,17c0.6,0.7,1.2,1.5,1.5,2.3l7.4,18.6c0.6,1.5,1.6,1.9,3,1.1l8.7-5c1.2-0.6,1.4-1.6,0.7-2.7l-16.8-29.5
		c-0.5-0.9-1.2-1.3-2.1-1.5L569.6,578.8L569.6,578.8L569.6,578.8z M238.1,392.6c-4.1-1.3-8.4-1.6-13.1-1
		c10.2-72.3-46.9-88.5-101.9-61.7c-0.8,0.4-1.2,1.1-1,2l9.8,72.2c3.7,25.8,8,52.7,12.8,80.8c3.7,21.8,8.6,43.2,14.6,64.3
		c0.5,1.9,2.3,3.2,4.3,3.1l31.7-1.3c1.1-0.1,1.7,0.5,1.6,1.6c-0.1,3.3,0.7,6.3,2.6,9c0.9,1.2,0.5,1.9-1,2.1
		c-44.2,5.4-88.2,12.4-131.9,20.8c-0.2,0-0.4,0.1-0.6,0.1c-1.6,0-3-1.2-3.1-2.8l-0.7-8c-0.1-1,0.5-1.9,1.5-2.2l19.7-5.9
		c1.8-0.5,2.9-2.2,2.8-4.1c-3.5-49.6-13.3-98.2-20.7-146.8c-4.6-29.4-8.7-62.3-18.2-89.4c-0.3-1-1-1.4-2-1.5l-22.3-0.9
		c-1.1,0-1.7-0.6-1.9-1.6l-1.5-8.4c-0.2-1.3,0.3-2,1.6-2.2c62.2-7.8,111.9-18.6,168-28.3c26.9-4.7,61.6-3.9,82.8,16.2
		c22.9,21.6,27.8,56.5,19.3,86.2c-17.1,55.7-78.8,74.4-131,74.5c-1.3,0-1.9-0.6-1.7-1.9l3.7-26.7c0.2-1.1,0.8-1.7,1.9-1.8l22.8-1.7
		c-1.4,3.2-2,5.8-1.8,7.7c0,0.1,0,0.2,0.1,0.3c0.2,0.5,0.9,0.8,1.4,0.6c0.1,0,0.2-0.1,0.3-0.2l17.8-14.3c0.7-0.6,1.7-0.6,2.4-0.2
		l18.9,11.1c0.2,0.1,0.4,0.2,0.6,0.2c0.6,0,1.2-0.5,1.2-1.2c0-0.1,0-0.3-0.1-0.4l-7.7-20.4c-0.4-1-0.2-1.8,0.6-2.4l17.4-15.5
		L238.1,392.6L238.1,392.6z M240.3,346.9l-6.6,0.3c-0.4,0-0.7,0.1-1,0.4c-0.8,0.6-0.9,1.7-0.3,2.5c0.2,0.3,0.5,0.5,0.9,0.6
		c3.2,1,5.9,4.6,5.9,4.6s0.1,4.9-2,8.1c-0.1,0.2-0.2,0.5-0.2,0.7c0,0.7,0.6,1.2,1.2,1.2c0.3,0,0.5-0.1,0.8-0.3l6.9-5.3
		c0.6-0.5,1.4-0.5,2-0.2l6.4,3.6c0.3,0.1,0.5,0.2,0.8,0.2c0.8-0.1,1.5-0.8,1.4-1.6c0-0.3-0.1-0.6-0.3-0.8c-2-2.8-2.3-7.2-2.3-7.2
		s2.6-4.3,6.3-5.7c0.5-0.2,0.8-0.6,0.8-1.1c0-0.7-0.5-1.2-1.2-1.2h-8.2c-1,0-1.8-0.5-2.2-1.4l-2.7-6c-0.2-0.5-0.8-0.8-1.3-0.8
		c-0.7,0-1.2,0.5-1.4,1.1l-1.7,6.8C242,346.2,241.2,346.8,240.3,346.9L240.3,346.9L240.3,346.9z M392.5,360.4l5.2-46.7
		c0.1-1.1,1-2,2.1-2.1l20.9-2.4c1-0.1,1.5-0.6,1.5-1.6l0.9-10.5c0.1-1.2-0.5-1.9-1.7-2l-93.8-5c-1.3-0.1-2,0.5-2,1.9v10.5
		c0,1.1,0.6,1.9,1.7,2.2c4,1.1,12.5,2.7,15,5.9c1.5,2,0.2,6.6,0.2,6.6l5.8,9.8l6.8-0.4c0,0,0.4-0.1,0.6-0.1c0.9,0,1.5,0.7,1.5,1.5
		c0,0.4-0.2,0.8-0.5,1.1l-5.7,4.8c-0.6,0.5-0.8,1.4-0.5,2.1l2.9,7.6c0.6,1.6,0.1,2.1-1.5,1.5l-9.9-3.7c1.9,4.2,2.2,9,1.2,14.5
		c-2,33.5-1.5,65.9-8.5,100.3c-0.2,0.9-1,1.7-1.9,1.8l-12.3,1.8c-1.8,0.3-3.2,1.8-3.2,3.6l-0.2,9.2c0,0.9,0.7,1.7,1.7,1.8l160.2,7.8
		c1.3,0.1,2.1-0.5,2.5-1.8l9.2-33.6c0.3-1.1-0.1-1.9-1-2.5l-4.8-2.7c-1.2-0.7-2.8-0.3-3.6,0.9l-5.8,8.9c-0.5,0.8-1.2,1.3-2.2,1.5
		c-27,5.3-54,5.7-81,1.4c-2.2-0.3-3.2-1.6-3.1-3.8l3.2-90.2L392.5,360.4L392.5,360.4z M766.7,390.3l17.8,19c1.3,1.4,1,2-0.9,1.8
		l-31.2-3.8c-0.9-0.1-1.6,0.2-2,1l-6.4,11.2c4.4,11.7,18,40.5,14.8,51.5c-7.5,26-16.3,51.5-26.4,76.8c-0.4,1-1.1,1.5-2.2,1.5
		c-7.4,0.2-14.8-0.7-22-2.6c-6.9-1.9-12.3,0.5-11.2,8.3c0.1,0.7,0.5,1.2,1.2,1.3c45.5,10,90.2,21.9,135.2,33.9
		c0.2,0,0.3,0.1,0.5,0.1c1,0,2-0.7,2.1-1.8l1.2-5.9c0.3-1.5-0.2-2.5-1.6-3l-26.1-10.5c-1-0.4-1.3-1.1-1.1-2.1
		c4.1-21.5,8.8-42.9,14-64.2c2.4-10,4.2-19.5,12.3-26.7c32.7-28.9,65.1-58,97.1-87.2c18.8-16.6,37.8-32.8,57.2-48.4
		c9.7-7.9,19.8-5.6,31.2-3.7c1.1,0.2,2.2-0.6,2.4-1.7l1.3-6.7c0.2-0.8-0.2-1.3-1-1.5l-85.8-21.7c-0.1,0-0.3-0.1-0.5-0.1
		c-0.8,0-1.5,0.5-1.7,1.3l-1.4,5.8c-0.3,1,0.3,2.1,1.2,2.6l15.2,7.8c0.1,0,0.2,0.1,0.2,0.1c0.8,0.6,1.1,1.8,0.5,2.6
		c-0.1,0.1-0.1,0.1-0.2,0.2l-46.5,48.8l-85.3,82.3c-0.5,0.4-1,0.7-1.6,0.7c-1,0-1.9-0.6-2.2-1.6l-22.8-67.3l-12.6-55.1
		c0-0.2,0-0.3,0-0.5c0-1.1,1-2.1,2.1-2.1c0.1,0,0.3,0,0.4,0l19.2,3.6c1.2,0.2,1.9-0.2,2.2-1.3l2.1-7.1c0.3-0.9-0.1-1.5-1-1.8
		l-119.2-30c-0.2,0-0.3-0.1-0.5-0.1c-0.9,0-1.7,0.6-1.9,1.5l-2.3,9.3c-0.2,0.8,0.2,1.7,1,2.1l19.7,8.7c0.8,0.4,1.4,1,1.8,1.8
		l13.4,27.1l26.2,22.4c0.8,0.7,1.9,0.8,2.8,0.4l28.5-13.6c0.2-0.1,0.3-0.1,0.5-0.1c0.6,0,1.2,0.5,1.2,1.2c0,0.2,0,0.4-0.1,0.5
		l-13.2,28.1c-0.5,1-0.4,2,0.2,3C763.6,387.7,764.9,389.1,766.7,390.3L766.7,390.3L766.7,390.3z M638.4,360.9
		c19.1,43.3,40.6,86.2,64.5,128.7c0.5,0.9,1.2,1.3,2.3,1.1c4-0.5,8.1-0.4,12.3,0.6c1,0.2,2,0.8,2.6,1.6c1.8,2,1.6,5.2-0.5,7
		c-0.8,0.7-1.8,1.1-2.8,1.2l-86.5,8.5c-0.2,0-0.3,0-0.5,0c-2.7,0-5-2.2-5-5c0-2.1,1.3-4,3.3-4.7l10.5-3.7c2.3-0.8,3.5-3.4,2.7-5.7
		l-7-19.8l7.8,3.6c0.2,0.1,0.3,0.1,0.5,0.1c0.6,0,1.2-0.5,1.2-1.1c0-0.2,0-0.3-0.1-0.4l-3.9-9.7c-0.4-1-0.2-1.8,0.6-2.5l7.7-6.9
		c1.3-1.1,1.1-1.7-0.6-1.7h-10.5c-1.1,0-1.9-0.5-2.3-1.5l-4.2-9.9c-0.2-0.5-0.6-0.7-1.1-0.7c-0.6,0-1.2,0.5-1.2,1.1
		c-0.1,2-2.8,8.9-2.8,8.9s-6.6-13.1-7.6-13.1l-65.9,6.5c-0.9,0.1-1.4,0.6-1.6,1.5l-22.5,111.6c-0.3,1.5,0.6,3.1,2.2,3.5l13.7,3.8
		c1.2,0.3,2.1,1.1,2.8,2c1.6,2.3,1.1,5.6-1.3,7.2c-1,0.7-2.2,1-3.4,0.9c-20.2-1.7-40.3-1.5-60.4,0.6c-0.3,0-0.5,0.1-0.7,0.1
		c-2.9,0-5.3-2.4-5.3-5.3c0-2.5,1.8-4.7,4.3-5.2c4.3-1,8.1-2.5,11.5-4.6c1-0.6,1.6-1.5,1.9-2.6l42-157.8l21.5-80
		c0.5-1.8,1.6-2.9,3.5-3.1l52.9-7.4c0.9-0.1,1.7,0.4,2.1,1.1L638.4,360.9L638.4,360.9L638.4,360.9z M560,398.8l-4.6,21.9
		c0,0.1,0,0.3,0,0.4c0,1.1,0.9,2,2,2h0.2l49-5.2c0.1,0,0.2,0,0.3,0c1-0.3,1.5-1.2,1.3-2.2c0-0.1-0.1-0.2-0.1-0.3L588.8,371
		l-11.2-26.3c-0.6-1.3-1.9-2.2-3.4-2.2c-1.8,0-3.3,1.2-3.6,3L560,398.8L560,398.8L560,398.8z M640,422.1c-1-0.5-1.8-0.4-2.6,0.2
		c-0.1,0.1-0.2,0.2-0.3,0.4c-0.5,0.7-0.3,1.7,0.5,2.1c0.1,0.1,0.3,0.2,0.4,0.2c4.7,1.3,5.9,4.2,3.4,8.6c-0.3,0.5-0.2,1,0.2,1.4
		l0.8,0.8c0.2,0.2,0.4,0.3,0.6,0.3c0.3,0,0.5-0.1,0.7-0.4c3-4.4,6.3-4.5,10-0.5c0.2,0.2,0.5,0.4,0.9,0.4c0.7,0,1.2-0.5,1.2-1.2
		c0-0.1,0-0.2,0-0.3l-1.7-5.4c-0.3-0.8,0-1.7,0.6-2.3l3.8-3.2c0.3-0.2,0.4-0.6,0.4-0.9c0-0.7-0.5-1.2-1.2-1.2c-0.1,0-0.2,0-0.3,0
		c-5.1,1.2-7.8-0.5-8.2-5.1c0-0.5-0.2-0.8-0.4-1c-0.3-0.3-0.8-0.5-1.3-0.5c-0.7,0-1.3,0.6-1.3,1.4c0.1,2.8-0.9,4.8-2.9,6.2
		C642.1,422.6,641.1,422.7,640,422.1L640,422.1L640,422.1z M42.9,346.5c-0.7-2.6-1.3-5.1-2.1-7.7l-34.3,8.5
		c-3.4,1.8-5.5,4.8-6.5,8.8c-0.2,1,0.2,1.4,1.1,1.1C1.2,357.2,42.9,346.5,42.9,346.5z M185.3,272.7c0.7-0.1,1.4-0.3,2.1-0.4
		c29.8-5.2,68.2-3.4,91.7,18.9c0.2,0.2,0.5,0.5,0.7,0.7c14.3-28.9,40.6-57,64.6-76.1c0.8-0.6,0.9-1.3,0.3-2.1
		c-18.9-25.1-43-43.6-72.1-55.4c-1.8-0.7-3.8-0.4-5.1,0.9C232.3,191.4,204.9,229.2,185.3,272.7L185.3,272.7L185.3,272.7z
		 M297.5,317.2c1.4,3.2,2.7,6.5,3.7,9.8c4-0.4,7.9-0.1,11.7,1l22.3,0.8h0.1c0.2,0,0.5,0,0.7-0.1c-1.4-2.4-2.6-5.4-3.5-9.1l-0.3-1.2
		L297.5,317.2L297.5,317.2L297.5,317.2z M407,324.4l-1.1,9.9l6.5,0.6l125.3,14.9l2.5-9.3L407,324.4L407,324.4L407,324.4z
		 M647.5,355.7c0,0,3,6.9,4.3,9.8l70.2,9.5c1,0.1-1.3-9.1-2.6-9.3L647.5,355.7L647.5,355.7z M799.5,373.7l2.3,10.1l74,3.4l9.4-9.1
		L799.5,373.7L799.5,373.7L799.5,373.7z M75,550.1c-0.3-3.3-0.6-6.6-1-9.9l-38.1,8c-3.5,2.8-6,6.6-7.6,11.5c-0.3,1,0,1.4,1.1,1.2
		L75,550.1L75,550.1L75,550.1z M628.5,470.7l1.5-1.4C629.5,469.6,628.9,470,628.5,470.7z M688.2,545c0.7-1.5,1.6-2.8,2.6-3.8
		c2.2-2.5,5.4-4.3,9.2-5.1l-131.8-10l-1.3,7.6c-0.2,1.2,0.3,1.8,1.5,1.9L688.2,545L688.2,545L688.2,545z M967.8,378.9l-13.2-0.1
		l-11.4,9.9l29.9-0.4L967.8,378.9L967.8,378.9z M853.8,544.6h-19.5l-2,9.9l27.3,0.4L853.8,544.6L853.8,544.6L853.8,544.6z"/>
</g>
</svg>
