<svg xmlns="http://www.w3.org/2000/svg" width="600" height="363.102"><radialGradient id="b" cx="0" cy="0" r="1" fx="0" fy="0" gradientTransform="translate(438.812 203.004)scale(137.11164)" gradientUnits="userSpaceOnUse" spreadMethod="pad"><stop offset="0" style="stop-color:#f6b91d"/><stop offset=".7" style="stop-color:#d3641c"/><stop offset="1" style="stop-color:#bf331c"/></radialGradient><radialGradient id="a" cx="0" cy="0" r="1" fx="0" fy="0" gradientTransform="translate(160.116 159.878)scale(137.10943)" gradientUnits="userSpaceOnUse" spreadMethod="pad"><stop offset="0" style="stop-color:#f6b91d"/><stop offset=".7" style="stop-color:#d3641c"/><stop offset="1" style="stop-color:#bf331c"/></radialGradient><path d="M172.57 0h-66.924s-3.277 35.917-4.357 47.603a36777 36777 0 0 1-32.206-25.385l-55.81 62.41s20.512 27.258 27.185 36.166c-.258.794-.544 1.588-.793 2.381C28.957 125.372 0 131.363 0 131.363v80.945s35.557 2.815 47.308 3.72c.074.175.147.323.249.498-5.77 8.982-21.924 34.256-21.924 34.256l65.197 60.941s21.342-21.489 29.244-29.427a25459 25459 0 0 1 12.184 37.643l85.819-1.043 1.006-16.514c.074-.905 1.015-16.726 1.486-28.699a25419 25419 0 0 0 35.437 18.176s22.283-24.49 32.418-35.631c3.213.221 25.819 2.021 37.57 2.926.073.175.184.36.258.535-5.77 8.945-21.923 34.219-21.923 34.219l65.225 60.941s21.314-21.452 29.206-29.427c3.498 10.744 12.194 37.68 12.194 37.68l85.809-1.043 1.015-16.551c.037-.868 1.007-16.726 1.44-28.662 9.776 4.976 35.484 18.167 35.484 18.167l53.649-59.022-26.677-33.102C572.058 239.788 600 231.462 600 231.462l-5.372-86.576s-30.72.536-41.391.72a106 106 0 0 0-1.699-3.212c6.453-9.59 24.813-36.923 24.813-36.923l-65.41-54.342s-22.68 23.225-30.756 31.45c-2.382-.794-4.8-1.514-7.293-2.17a21419 21419 0 0 0-6.812-37.246h-81.74s-3.286 35.88-4.366 47.594c-8.584-6.738-32.16-25.385-32.16-25.385s-22.43 25.062-32.603 36.388c-1.292.037-30 .499-40.67.683-.536-1.08-1.118-2.123-1.69-3.175 6.452-9.628 24.803-36.96 24.803-36.96l-65.41-54.296s-22.68 23.216-30.756 31.44a179 179 0 0 0-7.283-2.206A29669 29669 0 0 0 187.394 0z" style="fill:#fff"/><path d="M140.012 159.923c0 11.105 9.083 20.188 20.225 20.188s20.197-9.083 20.197-20.188c0-11.141-9.055-20.234-20.197-20.234s-20.225 9.093-20.225 20.234m20.225-54.452c30 0 54.452 24.415 54.452 54.452 0 30-24.452 54.406-54.452 54.406-30.037 0-54.443-24.406-54.443-54.406 0-30.037 24.406-54.452 54.443-54.452m0-17.816c-39.914 0-72.258 32.345-72.258 72.268 0 39.877 32.344 72.222 72.258 72.222 39.886 0 72.23-32.345 72.23-72.222 0-39.923-32.344-72.268-72.23-72.268m139.006 32.17 3.425 55.486-35.299 10.495c-1.375 5.631-3.138 11.068-5.335 16.302l24.194 30.037-34.219 37.643-33.249-17.022c-5.114 3.176-18.858 13.708-16.154 8.262 1.302-2.64-1.292 40.274-1.292 40.274l-56.142.683-11.797-36.453a113 113 0 0 1-16.153-5.658l-26.825 27.037-41.788-39.01 19.653-30.682a112 112 0 0 1-8.982-18.102l-41.465-3.286v-49.976l36.342-7.532a110 110 0 0 1 6.314-20.557l-24.157-32.16 34.901-39.018 28.92 22.79a106.3 106.3 0 0 1 17.917-9.812l3.822-41.75h50.695l6.277 34.255a108.3 108.3 0 0 1 27.185 8.188l27.48-28.053 40.385 33.563-22.145 33c4.588 6.702 8.41 13.985 11.4 21.702z" style="fill:#bf331c"/><path d="m126.525 22.902-3.387 37.099-.286 3.027-2.779 1.191a104.3 104.3 0 0 0-17.095 9.342l-3.102 2.095-2.88-2.308-25.172-19.837-28.948 32.382 21.628 28.81 1.772 2.307-1.117 2.668a105.2 105.2 0 0 0-6.027 19.652l-.647 3.314-3.286.655-32.307 6.702v41.141l36.821 2.926 3.166.25 1.163 2.99c2.271 5.88 5.114 11.723 8.539 17.234l1.661 2.705-1.735 2.704-17.335 27.12 35.077 32.779 23.372-23.548 2.483-2.455 3.175 1.412a111 111 0 0 0 15.397 5.372l2.705.684.83 2.667 10.634 32.88 47.668-.572c.508-8.982 1.55-28.052 1.376-33.572l.424-3.933 3.572-1.181c1.477-.471 6.527-3.97 9.231-5.843 1.911-1.339 3.711-2.53 4.976-3.286l2.455-1.514 2.52 1.301 29.788 15.25 28.698-31.588-21.49-26.64-1.91-2.345 1.19-2.815a110 110 0 0 0 5.124-15.508l.683-2.843 2.779-.794 31.403-9.378-2.89-46.625-31.218.545-3.535.073-1.302-3.323a103.4 103.4 0 0 0-10.818-20.658l-1.948-2.843 1.91-2.852 19.588-29.17-33.286-27.655-24.194 24.692-2.455 2.566-3.24-1.44a102.2 102.2 0 0 0-25.93-7.79l-3.535-.582-.646-3.535-5.52-30.102zM82.892 159.924c0-42.665 34.689-77.345 77.344-77.345 42.628 0 77.308 34.68 77.308 77.345 0 42.618-34.68 77.27-77.308 77.27-42.655 0-77.344-34.652-77.344-77.27m27.987 0a49.385 49.385 0 0 0 49.357 49.357 49.385 49.385 0 0 0 49.366-49.357 49.44 49.44 0 0 0-49.366-49.403 49.44 49.44 0 0 0-49.357 49.403m24.083 0a25.32 25.32 0 0 1 25.274-25.32 25.35 25.35 0 0 1 25.283 25.32 25.283 25.283 0 0 1-50.557 0" style="fill:url(#a);stroke-width:9.23077"/><path d="M418.736 203.04c0 11.142 9.055 20.197 20.197 20.197s20.187-9.055 20.187-20.197-9.046-20.188-20.187-20.188-20.197 9.047-20.197 20.188m20.197-54.443c30 0 54.443 24.406 54.443 54.443 0 30-24.443 54.452-54.443 54.452-30.037 0-54.453-24.452-54.453-54.452 0-30.037 24.416-54.443 54.453-54.443m0-17.778c-39.914 0-72.259 32.344-72.259 72.221 0 39.886 32.345 72.23 72.259 72.23 39.877 0 72.258-32.344 72.258-72.23 0-39.877-32.381-72.221-72.258-72.221m138.997 32.169 3.424 55.45-35.298 10.531c-1.366 5.585-3.139 11.031-5.336 16.265l24.194 30.037-34.218 37.68-33.24-17.022c-5.123 3.139-18.859 13.699-16.154 8.225 1.292-2.64-1.302 40.274-1.302 40.274l-56.141.683-11.788-36.452c-5.557-1.44-10.93-3.351-16.117-5.631l-26.87 27.046-41.751-39.046 19.652-30.692a105.6 105.6 0 0 1-8.982-18.102l-41.501-3.24v-49.975l36.35-7.542a109.7 109.7 0 0 1 6.305-20.585l-24.194-32.16 34.939-39.018 28.92 22.79c5.621-3.784 11.649-7.107 17.954-9.812l3.793-41.75h50.696l6.268 34.292a106.3 106.3 0 0 1 27.193 8.15l27.471-28.06 40.422 33.571-22.173 32.991a109.3 109.3 0 0 1 11.391 21.711z" style="fill:#bf331c"/><path d="m405.212 66.028-3.388 37.136-.286 2.99-2.779 1.228a101.5 101.5 0 0 0-17.123 9.342l-3.064 2.086-2.89-2.308-25.163-19.864-28.957 32.381 21.674 28.81 1.726 2.344-1.117 2.668a103.4 103.4 0 0 0-6.018 19.652l-.655 3.277-3.277.692-32.308 6.665v41.141l36.812 2.927 3.176.249 1.154 2.99a101.5 101.5 0 0 0 8.547 17.234l1.69 2.705-1.727 2.705-17.381 27.157 35.086 32.741 23.4-23.548 2.455-2.492 3.203 1.45a105 105 0 0 0 15.36 5.372l2.705.72.83 2.63 10.635 32.88 47.667-.572c.545-8.981 1.551-28.052 1.376-33.572l.434-3.896 3.563-1.227c1.486-.462 6.498-3.923 9.203-5.77 1.947-1.329 3.747-2.556 5.012-3.35l2.446-1.514 2.566 1.338 29.742 15.213 28.708-31.588-21.499-26.65-1.91-2.335 1.19-2.815a103.5 103.5 0 0 0 5.086-15.47l.683-2.844 2.816-.83 31.403-9.38-2.843-46.587-31.228.545-3.572.037-1.256-3.287a106 106 0 0 0-10.892-20.732l-1.874-2.815 1.874-2.843 19.579-29.17-33.287-27.627-24.157 24.701-2.483 2.53-3.249-1.45c-8.252-3.747-16.985-6.341-25.92-7.781l-3.535-.582-.656-3.535-5.51-30.102zm-43.625 137.013c0-42.619 34.726-77.336 77.345-77.336s77.307 34.717 77.307 77.336c0 42.627-34.689 77.307-77.307 77.307s-77.345-34.68-77.345-77.307m27.978 0a49.41 49.41 0 0 0 49.367 49.366 49.43 49.43 0 0 0 49.357-49.366 49.43 49.43 0 0 0-49.357-49.357 49.41 49.41 0 0 0-49.367 49.357m24.084 0a25.32 25.32 0 0 1 25.283-25.311 25.297 25.297 0 0 1 0 50.594 25.29 25.29 0 0 1-25.283-25.283" style="fill:url(#b);stroke-width:9.23077"/></svg>