<?xml version="1.0" encoding="UTF-8" standalone="no"?>
<svg
   id="Layer_2"
   data-name="Layer 2"
   viewBox="0 0 474.21 513.6336"
   version="1.1"
   width="474.20999"
   height="513.63361"
   xmlns:xlink="http://www.w3.org/1999/xlink"
   xmlns="http://www.w3.org/2000/svg"
   xmlns:svg="http://www.w3.org/2000/svg">
  <defs
     id="defs24">
    <style
       id="style1">
      .cls-1 {
        fill: url(#linear-gradient);
      }

      .cls-1, .cls-2, .cls-3, .cls-4, .cls-5, .cls-6, .cls-7, .cls-8 {
        stroke-width: 0px;
      }

      .cls-2 {
        fill: url(#linear-gradient-6);
      }

      .cls-4 {
        fill: url(#linear-gradient-5);
      }

      .cls-5 {
        fill: #fff;
      }

      .cls-6 {
        fill: url(#linear-gradient-2);
      }

      .cls-7 {
        fill: url(#linear-gradient-3);
      }

      .cls-8 {
        fill: url(#linear-gradient-4);
      }
    </style>
    <linearGradient
       id="linear-gradient"
       x1="237.55"
       y1="28.59"
       x2="237.55"
       y2="332.47"
       gradientTransform="matrix(1,0,0,-1,0,516)"
       gradientUnits="userSpaceOnUse">
      <stop
         offset="0"
         stop-color="#626e77"
         id="stop1" />
      <stop
         offset=".06"
         stop-color="#75848e"
         id="stop2" />
      <stop
         offset=".17"
         stop-color="#92a5b2"
         id="stop3" />
      <stop
         offset=".27"
         stop-color="#a9bfcd"
         id="stop4" />
      <stop
         offset=".38"
         stop-color="#bad2e1"
         id="stop5" />
      <stop
         offset=".49"
         stop-color="#c3dded"
         id="stop6" />
      <stop
         offset=".6"
         stop-color="#c7e1f1"
         id="stop7" />
    </linearGradient>
    <linearGradient
       id="linear-gradient-2"
       x1="237.44"
       y1="490.64001"
       x2="237.44"
       y2="411.39999"
       gradientTransform="matrix(1,0,0,-1,0,516)"
       gradientUnits="userSpaceOnUse">
      <stop
         offset="0"
         stop-color="#626e77"
         id="stop8" />
      <stop
         offset=".03"
         stop-color="#6e7c86"
         id="stop9" />
      <stop
         offset=".09"
         stop-color="#899ba7"
         id="stop10" />
      <stop
         offset=".17"
         stop-color="#a0b4c2"
         id="stop11" />
      <stop
         offset=".25"
         stop-color="#b1c8d6"
         id="stop12" />
      <stop
         offset=".33"
         stop-color="#bdd6e5"
         id="stop13" />
      <stop
         offset=".44"
         stop-color="#c4deee"
         id="stop14" />
      <stop
         offset=".6"
         stop-color="#c7e1f1"
         id="stop15" />
      <stop
         offset="1"
         stop-color="#c7e1f1"
         id="stop16" />
    </linearGradient>
    <linearGradient
       id="linear-gradient-3"
       x1="146.14999"
       y1="180.46001"
       x2="38.740002"
       y2="180.46001"
       gradientTransform="matrix(1,0,0,-1,0,516)"
       gradientUnits="userSpaceOnUse">
      <stop
         offset="0"
         stop-color="#626e77"
         id="stop17" />
      <stop
         offset=".24"
         stop-color="#8fa1ae"
         id="stop18" />
      <stop
         offset=".48"
         stop-color="#b7cfde"
         id="stop19" />
      <stop
         offset=".6"
         stop-color="#c7e1f1"
         id="stop20" />
    </linearGradient>
    <linearGradient
       id="linear-gradient-4"
       x1="328.94"
       y1="180.75"
       x2="436.25"
       y2="180.75"
       xlink:href="#linear-gradient-3" />
    <linearGradient
       id="linear-gradient-5"
       x1="135.25"
       y1="427.60001"
       x2="41.650002"
       y2="427.60001"
       gradientTransform="matrix(1,0,0,-1,0,516)"
       gradientUnits="userSpaceOnUse">
      <stop
         offset="0"
         stop-color="#626e77"
         id="stop21" />
      <stop
         offset=".6"
         stop-color="#c7e1f1"
         id="stop22" />
    </linearGradient>
    <linearGradient
       id="linear-gradient-6"
       x1="339.73999"
       y1="427.60999"
       x2="433.31"
       y2="427.60999"
       gradientTransform="matrix(1,0,0,-1,0,516)"
       gradientUnits="userSpaceOnUse">
      <stop
         offset="0"
         stop-color="#626e77"
         id="stop23" />
      <stop
         offset=".6"
         stop-color="#c7e1f1"
         id="stop24" />
    </linearGradient>
    <linearGradient
       xlink:href="#linear-gradient-3"
       id="linearGradient31"
       gradientUnits="userSpaceOnUse"
       gradientTransform="matrix(1,0,0,-1,0,516)"
       x1="146.14999"
       y1="180.46001"
       x2="38.740002"
       y2="180.46001" />
  </defs>
  <g
     id="Layer_2-2"
     data-name="Layer 2">
    <path
       class="cls-3"
       d="M 8.2,289.28 C 41.31,277.81 63.41,255.79 73.46,221.86 58.17,212.23 41.61,205.76 25.06,198.4 39.78,184.54 54.69,171.39 70.39,158.97 57.8,126.11 32.78,107.56 0,97.53 28.27,64.59 55.97,32.3 83.68,0 h 307.61 c 27.6,32.16 55.29,64.43 82.92,96.63 -0.23,1.28 -1.27,1.23 -2,1.53 -5.45,2.29 -10.95,4.45 -16.37,6.82 -24.23,10.59 -40.86,28.57 -50.92,52.86 -0.12,0.29 -0.12,0.62 -0.23,1.23 15.49,12.25 30.35,25.39 45.21,39.29 -16.44,7.4 -33.1,13.82 -48.4,23.5 9.98,33.81 32.04,55.87 65.36,67.45 -2.54,8.5 -4.74,16.69 -7.43,24.72 -27.65,82.3 -82.06,140.65 -159.57,178.15 -18.89,9.14 -38.52,16.36 -59.03,21.08 -4.06,0.93 -7.76,-0.04 -11.4,-1.12 C 118.44,479.23 43.04,409.93 10.35,297.05 9.66,294.68 9.03,292.29 8.2,289.28 Z"
       id="path24" />
    <path
       class="cls-5"
       d="m 318.81,268.73 c 3.49,6.32 6.82,12.33 10.2,18.46 -14.72,8.39 -21.77,20.82 -18.59,37.68 2.3,12.18 10.46,19.64 22.37,22.54 16.58,4.03 28.67,-2.98 37.94,-16.62 -0.1,7.55 -4.77,17.64 -11.2,24.52 -19.49,20.85 -55.69,19.91 -74.03,-1.96 -10.94,-13.05 -11.72,-27.8 -6.72,-43.31 3.23,-10.04 8.27,-19.18 14.67,-27.56 1.44,-1.88 2.89,-3.76 4.47,-5.82 -5.86,-3.61 -11.57,-7.14 -17.34,-10.69 25.24,-27.21 20.32,-65.89 -3.08,-86.67 -23.91,-21.23 -59.47,-20.34 -82.1,1.94 -21.9,21.56 -25.34,58.39 -0.91,84.72 -5.78,3.56 -11.49,7.07 -17.42,10.71 4.78,6.14 9.3,12.17 12.83,18.88 4.55,8.66 8.17,17.6 8.97,27.47 1.38,17.06 -5.62,29.99 -19.65,39.23 -21.78,14.33 -52.23,9.32 -67.1,-10.91 -4.33,-5.9 -7.01,-12.48 -7.83,-19.96 10.48,14.64 23.94,21.02 41.53,14.89 11.16,-3.89 17.61,-12.19 19.22,-23.88 1.66,-12.11 -3.3,-26.81 -19.14,-35.09 3.38,-6.1 6.76,-12.19 10.31,-18.59 -22.31,-34.59 -53.92,-58.26 -90.28,-76.93 3.78,-3.15 7.35,-6.18 10.98,-9.13 29.25,-23.8 59.61,-45.98 93.04,-63.65 12.3,-6.5 25.01,-12.02 38.24,-16.39 21.23,-7.02 42.14,-5.99 63.06,1.48 23.08,8.24 44.36,19.93 64.9,33.1 24.83,15.93 48.23,33.8 70.8,52.79 0.64,0.54 1.22,1.14 2.02,1.88 -36.2,18.58 -67.86,42.17 -90.14,76.9 z"
       id="path25" />
    <path
       class="cls-1"
       d="m 245.22,267.38 c 8.36,5.16 16.33,10.08 24.35,15.03 -2.2,4.64 -4.5,9.03 -6.39,13.59 -6.19,14.88 -9.15,30.28 -5.01,46.18 5.91,22.74 21.43,36.49 42.91,44.28 1.21,0.44 2.45,0.78 3.94,1.24 5.02,20.99 10.48,41.92 17.6,62.49 -2.62,2.28 -5.6,3.78 -8.46,5.45 -23.38,13.69 -48,24.45 -74.22,31.43 -1.74,0.46 -3.3,0.46 -5.04,0 -28.69,-7.58 -55.38,-19.73 -80.55,-35.34 -0.54,-0.34 -1.01,-0.78 -1.87,-1.44 6.63,-20.52 12.64,-41.3 17.42,-62.59 7.18,-2.06 14,-4.94 20.26,-9.04 23.98,-15.7 33.5,-41.64 25.84,-70.43 -2.12,-7.97 -5.28,-15.51 -9.2,-22.75 -0.51,-0.94 -0.97,-1.89 -1.53,-2.98 8.1,-4.99 16.08,-9.91 24.05,-14.82 0.03,-1.2 -0.99,-1.35 -1.63,-1.78 -4.56,-3.08 -9.25,-5.98 -13.72,-9.19 -14.33,-10.3 -20.33,-28.66 -14.89,-45.16 5.56,-16.88 21.41,-28.23 39.11,-28.02 16.8,0.2 32.35,11.71 37.61,27.85 5.36,16.42 -0.33,34.72 -14.14,44.83 -5.21,3.81 -10.68,7.27 -16.44,11.17 z"
       id="path26"
       style="fill:url(#linear-gradient)" />
    <path
       class="cls-6"
       d="M 361.08,25.37 C 344.07,50.4 330.57,76.65 319.83,104.55 310.43,99.46 301.07,94.91 291.46,90.88 276.01,84.41 260.19,79.29 243.35,78.12 228.36,77.08 214,80.27 199.8,84.7 c -13.86,4.33 -26.91,10.48 -39.7,17.24 -1.52,0.8 -3.03,1.62 -4.98,2.66 C 144.19,76.76 131.11,50.19 113.8,25.36 h 247.28 z"
       id="path27"
       style="fill:url(#linear-gradient-2)" />
    <path
       class="cls-7"
       d="m 146.13,390.02 c -4.01,15.87 -7.95,31.28 -13.28,46.84 C 87.18,402.28 56.18,357.91 38.74,303.6 66.79,287.77 85.8,264.51 96.23,234.22 c 5.56,1.59 32.58,27.76 36.59,35.92 -2.98,5.38 -6.07,10.93 -9.14,16.48 -3,5.43 -5.99,10.88 -9.17,16.65 5.95,0.34 11.62,0.57 17.27,1 4.47,0.34 8.42,2.08 11.16,5.73 3.99,5.32 3.61,12.29 -0.61,15.9 -4.88,4.18 -12.94,3.72 -17.61,-1.08 -6.6,-6.78 -9.74,-15.33 -12.06,-24.25 -1.18,-4.54 -2.35,-8.94 -6.94,-11.5 -6.84,-3.81 -15.92,-0.93 -18.08,6.56 -6.35,22.1 -6.19,43.75 6.36,63.98 5.81,9.36 13.68,16.64 23.47,21.91 4.93,2.66 9.92,5.18 15.31,6.57 4.21,1.09 8.65,1.28 13.37,1.93 z"
       id="path28"
       style="fill:url(#linearGradient31)" />
    <path
       class="cls-8"
       d="m 378.58,233.61 c 10.43,30.85 29.46,54.1 57.67,69.98 -17.45,54.31 -48.63,98.56 -94.17,133.3 -5.11,-15.58 -9.37,-30.91 -13.14,-46.67 5.76,-1.02 11.39,-1.68 16.74,-3.6 25.49,-9.15 40.87,-26.8 44.91,-53.83 1.8,-12.03 0.5,-23.9 -2.64,-35.59 -1.43,-5.31 -4.92,-8.57 -10.23,-9.66 -5.03,-1.03 -9.05,1.17 -12.44,4.67 -1.31,1.35 -1.51,3.3 -1.96,5.05 -2.02,7.73 -4.58,15.21 -8.67,22.15 -3.84,6.51 -10.55,10.38 -16.36,9.03 -7.72,-1.79 -10.88,-7.75 -8.05,-15.2 2.05,-5.41 6.91,-8.71 13.01,-8.99 5.55,-0.25 11.1,-0.63 17.19,-0.98 -6.26,-11.38 -12.27,-22.3 -18.41,-33.46 10.3,-13.79 22.63,-25.52 36.56,-36.2 z"
       id="path29"
       style="fill:url(#linear-gradient-4)" />
    <path
       class="cls-4"
       d="M 41.65,87.84 C 57.87,68.97 73.87,50.35 90.18,31.36 c 19.24,26.16 33.65,54.44 45.07,84.7 -14.63,9.14 -28.71,18.93 -42.8,29.39 C 87.15,133.24 80.35,122.31 71.76,112.59 63.14,102.83 53.29,94.5 41.66,87.84 v 0 z"
       id="path30"
       style="fill:url(#linear-gradient-5)" />
    <path
       class="cls-2"
       d="M 382.52,145.39 C 368.58,135 354.47,125.3 339.74,116.06 c 11.37,-30.13 25.73,-58.37 45.03,-84.68 16.24,18.86 32.29,37.5 48.54,56.38 -23.3,13.82 -40,32.98 -50.79,57.64 v 0 z"
       id="path31"
       style="fill:url(#linear-gradient-6)" />
  </g>
</svg>
