<?xml version="1.0" encoding="UTF-8" standalone="no"?>
<svg
   id="Layer_2"
   data-name="Layer 2"
   viewBox="0 0 397.51 462.055"
   version="1.1"
   width="397.51001"
   height="462.05499"
   xmlns="http://www.w3.org/2000/svg"
   xmlns:svg="http://www.w3.org/2000/svg">
  <defs
     id="defs1">
    <style
       id="style1">
      .cls-1 {
        stroke-width: 0px;
      }
    </style>
  </defs>
  <g
     id="Layer_2-2"
     data-name="Layer 2">
    <path
       class="cls-1"
       d="m 280.07,243.37 c 3.49,6.32 6.82,12.33 10.2,18.46 -14.72,8.39 -21.77,20.82 -18.59,37.68 2.3,12.18 10.46,19.64 22.37,22.54 16.58,4.03 28.67,-2.98 37.94,-16.62 -0.1,7.55 -4.77,17.64 -11.2,24.52 -19.49,20.85 -55.69,19.91 -74.03,-1.96 -10.94,-13.05 -11.72,-27.8 -6.72,-43.31 3.23,-10.04 8.27,-19.18 14.67,-27.56 1.44,-1.88 2.89,-3.76 4.47,-5.82 -5.86,-3.61 -11.57,-7.14 -17.34,-10.69 25.24,-27.21 20.32,-65.89 -3.08,-86.67 -23.91,-21.23 -59.47,-20.34 -82.1,1.94 -21.9,21.56 -25.34,58.39 -0.91,84.72 -5.78,3.56 -11.49,7.07 -17.42,10.71 4.78,6.14 9.3,12.17 12.83,18.88 4.55,8.66 8.17,17.6 8.97,27.47 1.38,17.06 -5.62,29.99 -19.65,39.23 -21.78,14.33 -52.23,9.32 -67.1,-10.91 -4.33,-5.9 -7.01,-12.48 -7.83,-19.96 10.48,14.64 23.94,21.02 41.53,14.89 11.16,-3.89 17.61,-12.19 19.22,-23.88 1.66,-12.11 -3.3,-26.81 -19.14,-35.09 3.38,-6.1 6.76,-12.19 10.31,-18.59 -22.31,-34.59 -53.92,-58.26 -90.28,-76.93 3.78,-3.15 7.35,-6.18 10.98,-9.13 29.25,-23.8 59.61,-45.98 93.04,-63.65 12.3,-6.5 25.01,-12.02 38.24,-16.39 21.23,-7.02 42.14,-5.99 63.06,1.48 23.08,8.24 44.36,19.93 64.9,33.1 24.83,15.93 48.23,33.8 70.8,52.79 0.64,0.54 1.22,1.14 2.02,1.88 -36.2,18.58 -67.86,42.17 -90.14,76.9 z"
       id="path1" />
    <path
       class="cls-1"
       d="m 206.48,242.02 c 8.36,5.16 16.33,10.08 24.35,15.03 -2.2,4.64 -4.5,9.03 -6.39,13.59 -6.19,14.88 -9.15,30.28 -5.01,46.18 5.91,22.74 21.43,36.49 42.91,44.28 1.21,0.44 2.45,0.78 3.94,1.24 5.02,20.99 10.48,41.92 17.6,62.49 -2.62,2.28 -5.6,3.78 -8.46,5.45 -23.38,13.69 -48,24.45 -74.22,31.43 -1.74,0.46 -3.3,0.46 -5.04,0 -28.69,-7.58 -55.38,-19.73 -80.55,-35.34 -0.54,-0.34 -1.01,-0.78 -1.87,-1.44 6.63,-20.52 12.64,-41.3 17.42,-62.59 7.18,-2.06 14,-4.94 20.26,-9.04 23.98,-15.7 33.5,-41.64 25.84,-70.43 -2.12,-7.97 -5.28,-15.51 -9.2,-22.75 -0.51,-0.94 -0.97,-1.89 -1.53,-2.98 8.1,-4.99 16.08,-9.91 24.05,-14.82 0.03,-1.2 -0.99,-1.35 -1.63,-1.78 -4.56,-3.08 -9.25,-5.98 -13.72,-9.19 -14.33,-10.3 -20.33,-28.66 -14.89,-45.16 5.56,-16.88 21.41,-28.23 39.11,-28.02 16.8,0.2 32.35,11.71 37.61,27.85 5.36,16.42 -0.33,34.72 -14.14,44.83 -5.21,3.81 -10.68,7.27 -16.44,11.17 z"
       id="path2" />
    <path
       class="cls-1"
       d="m 322.34,0 c -17.01,25.03 -30.51,51.28 -41.25,79.18 -9.4,-5.09 -18.76,-9.64 -28.37,-13.67 -15.45,-6.47 -31.27,-11.59 -48.11,-12.76 -14.99,-1.04 -29.35,2.15 -43.55,6.58 -13.86,4.33 -26.91,10.48 -39.7,17.24 -1.52,0.8 -3.03,1.62 -4.98,2.66 C 105.45,51.4 92.37,24.83 75.06,0 Z"
       id="path3" />
    <path
       class="cls-1"
       d="M 107.39,364.66 C 103.38,380.53 99.44,395.94 94.11,411.5 48.44,376.92 17.44,332.55 0,278.24 c 28.05,-15.83 47.06,-39.09 57.49,-69.38 5.56,1.59 32.58,27.76 36.59,35.92 -2.98,5.38 -6.07,10.93 -9.14,16.48 -3,5.43 -5.99,10.88 -9.17,16.65 5.95,0.34 11.62,0.57 17.27,1 4.47,0.34 8.42,2.08 11.16,5.73 3.99,5.32 3.61,12.29 -0.61,15.9 -4.88,4.18 -12.94,3.72 -17.61,-1.08 -6.6,-6.78 -9.74,-15.33 -12.06,-24.25 -1.18,-4.54 -2.35,-8.94 -6.94,-11.5 -6.84,-3.81 -15.92,-0.93 -18.08,6.56 -6.35,22.1 -6.19,43.75 6.36,63.98 5.81,9.36 13.68,16.64 23.47,21.91 4.93,2.66 9.92,5.18 15.31,6.57 4.21,1.09 8.65,1.28 13.37,1.93 z"
       id="path4" />
    <path
       class="cls-1"
       d="m 339.84,208.25 c 10.43,30.85 29.46,54.1 57.67,69.98 -17.45,54.31 -48.63,98.56 -94.17,133.3 -5.11,-15.58 -9.37,-30.91 -13.14,-46.67 5.76,-1.02 11.39,-1.68 16.74,-3.6 25.49,-9.15 40.87,-26.8 44.91,-53.83 1.8,-12.03 0.5,-23.9 -2.64,-35.59 -1.43,-5.31 -4.92,-8.57 -10.23,-9.66 -5.03,-1.03 -9.05,1.17 -12.44,4.67 -1.31,1.35 -1.51,3.3 -1.96,5.05 -2.02,7.73 -4.58,15.21 -8.67,22.15 -3.84,6.51 -10.55,10.38 -16.36,9.03 -7.72,-1.79 -10.88,-7.75 -8.05,-15.2 2.05,-5.41 6.91,-8.71 13.01,-8.99 5.55,-0.25 11.1,-0.63 17.19,-0.98 -6.26,-11.38 -12.27,-22.3 -18.41,-33.46 10.3,-13.79 22.63,-25.52 36.56,-36.2 z"
       id="path5" />
    <path
       class="cls-1"
       d="M 2.91,62.48 C 19.13,43.61 35.13,24.99 51.44,6 70.68,32.16 85.09,60.44 96.51,90.7 81.88,99.84 67.8,109.63 53.71,120.09 48.41,107.88 41.61,96.95 33.02,87.23 24.4,77.47 14.55,69.14 2.92,62.48 v 0 z"
       id="path6" />
    <path
       class="cls-1"
       d="M 343.78,120.03 C 329.84,109.64 315.73,99.94 301,90.7 312.37,60.57 326.73,32.33 346.03,6.02 c 16.24,18.86 32.29,37.5 48.54,56.38 -23.3,13.82 -40,32.98 -50.79,57.64 v 0 z"
       id="path7" />
  </g>
</svg>
