<svg xmlns="http://www.w3.org/2000/svg" xml:space="preserve" style="fill-rule:evenodd;clip-rule:evenodd;stroke-linejoin:round;stroke-miterlimit:2" viewBox="0 0 613 491"><path d="M18.646 0c4.403 47.376 13.305 80.261 21.52 96.006-15.928.43-31.043 3.034-40.166 4.437 5.119 28.932 29.215 68.488 38.51 81.25-5.113 1.654-9.879 3.408-14.01 5 15.5 32.25 34.375 49.625 55.25 61.875-7.5 5.125-25.031 18.297-33.156 35.172 18 12.625 43.719 24.922 71.594 30.047-10.625 8.875-21.657 32.047-21.657 32.047 31.75 8.125 46.094 5.922 61.469 3.422l-7.281 24.672c15.375-.125 46.344-6.703 55.594-11.203-.625 7.875 8.843 23.421 12.218 26.921-7.625 7.625-20.01 41.018-22.635 52.643 13.631 1.336 27.896 2.087 39.866.77-.969 16.173 3.292 25.866 8.115 35.517 11.557-2.557 20.127-6.11 28.635-9.683 6.408 13.337 19.572 21.8 33.988 21.8s27.58-8.463 33.988-21.8c8.508 3.573 17.078 7.126 28.635 9.683 4.823-9.651 9.084-19.344 8.115-35.517 11.971 1.317 26.235.566 39.866-.77-2.625-11.625-15.01-45.018-22.635-52.643 3.375-3.5 12.844-19.046 12.219-26.921 9.25 4.5 40.218 11.078 55.593 11.203L455 349.256c15.375 2.5 29.719 4.703 61.469-3.422 0 0-11.031-23.172-21.656-32.047 27.875-5.125 53.593-17.422 71.593-30.047-8.125-16.875-25.656-30.047-33.156-35.172 20.875-12.25 39.75-29.625 55.25-61.875-4.131-1.592-8.897-3.346-14.01-5 9.295-12.762 33.391-52.318 38.51-81.25-9.123-1.403-24.238-4.007-40.166-4.437 8.215-15.745 17.117-48.63 21.52-96.006 0 0-45.137 1.409-51.088 4.615-50.581 27.248-80.648 59.468-101.221 79.373-20.622 19.954-39.848 43.688-69.848 47.063 0 0 14.961 15.588 17.461 19.338 2.25 8.25-.295 38.127-2.045 57.877l-8.007 16.517-11.311-33.978 7.723-7.237c-7-8-44.018-34.033-69.518-34.033s-62.518 26.033-69.518 34.033l7.723 7.237-11.31 33.978-8.008-16.517c-1.75-19.75-4.295-49.627-2.045-57.877 2.5-3.75 17.461-19.338 17.461-19.338-30-3.375-49.226-27.109-69.848-47.063-20.573-19.905-50.64-52.125-101.221-79.373C63.783 1.409 18.646 0 18.646 0" style="fill-rule:nonzero"/><path d="M34.621 11.373a55 55 0 0 0-2.82.002c2.673 45.27 14.091 73.982 22.191 84.891 19.257 1.332 37.537 7.236 45.758 23.677-19.5-5.75-13.25-16.5-86.5-11.5 3.575 17.08 26.938 54.972 36.496 69.998 7.85-1.964 16.032-3.32 23.756-3.246 10.147.098 19.498 2.655 26.248 9.498-26.218-4.723-39.058-1.185-60.002 7.442 5.387 10.877 22.824 39.4 64.127 56.527l2.875 2.469c-23.069 1.414-45.227 26.721-44.625 28.969.664 2.477 38.317 22.764 76.324 23.736l1.957 2.131c-4.949 2.917-27.838 29.647-26.734 31.558 1.257 2.177 39.653 4.47 62.016-1.628l1.14.996c-3.182 2.828-11.965 22.453-10.859 23.558 1.177 1.178 35.392-2.935 48.65-14.426l1.432.811c-.619 4.773 1.916 25.784 4.879 26.953 2.889 1.141 31.912-20.597 35.978-35.182 1.9-.423 2.573-1.022 2.832-1.679.977 7.002 2.672 9.341 4.069 13.613-33.765 28.108-54.529 79.189-53.233 81.117 1.532 2.279 30.914.509 36.924-1.789l1.57 1.215c-3.535 1.237-2.326 31.542.862 33.92 2.666 1.989 19.447-6.902 29.328-14.385 1.498 18.606 10.814 27.836 27.24 27.836s25.742-9.23 27.24-27.836c9.881 7.483 26.662 16.374 29.328 14.385 3.188-2.378 4.397-32.683.862-33.92l1.57-1.215c6.01 2.298 35.392 4.068 36.924 1.789 1.296-1.928-19.468-53.009-53.233-81.117 1.397-4.272 3.092-6.611 4.069-13.613.259.657.932 1.256 2.832 1.679 4.066 14.585 33.089 36.322 35.978 35.182 2.963-1.169 5.498-22.18 4.879-26.953l1.432-.811c13.258 11.491 47.473 15.604 48.65 14.426 1.106-1.105-7.677-20.73-10.859-23.558l1.14-.997c22.363 6.099 60.759 3.806 62.016 1.629 1.103-1.911-21.785-28.641-26.734-31.558l1.957-2.131c38.007-.972 75.66-21.259 76.324-23.736.602-2.248-21.556-27.555-44.625-28.969l2.875-2.469c41.303-17.127 58.74-45.65 64.127-56.527-20.944-8.627-33.784-12.166-60.002-7.442 6.75-6.843 16.101-9.4 26.248-9.498 7.724-.074 15.906 1.282 23.756 3.246 9.558-15.027 32.921-52.918 36.496-69.998-73.25-5-67 5.75-86.5 11.5 8.221-16.441 26.501-22.345 45.758-23.677 8.1-10.909 19.518-39.621 22.191-84.891a55 55 0 0 0-2.82-.002c-8.027.154-25.175 1.385-30.315 2.762-5.561 1.49-64.291 39.205-97.767 78.086-15.782 18.33-45.643 42.095-57.047 44.847 0 0 6.768 8.856 8 14.125 1.495 6.393-2.614 58.091-3.537 61.535-.927 3.461-11.845 30.083-39.963 54.465l-3.037-1.357c.786-1.966 17.93-29.215 17.93-29.215-5.899-17.107-20.794-46.331-12.536-52.82 0 0-33.747-23.608-53.607-23.608s-53.607 23.608-53.607 23.608c8.258 6.489-6.637 35.713-12.536 52.82 0 0 17.144 27.249 17.93 29.215l-3.037 1.357c-28.118-24.382-39.036-51.004-39.963-54.465-.923-3.444-5.032-55.142-3.537-61.535 1.232-5.269 8-14.125 8-14.125-11.404-2.753-41.265-26.517-57.047-44.847-33.476-38.881-92.206-76.596-97.767-78.086-5.14-1.377-22.288-2.608-30.315-2.762m133.498 139.811c.595.036.948.682.914 2.197 0 0-1.792 55.487-1.262 57.467.48 1.788 8.563 20.598 20.493 35.468 7.95 9.91 23.337 26.935 22.199 28.18-1.574 1.722-14.198-2.045-18.219-6.316-10.337-10.981-32.325-46.725-33.92-48.133-3.799-3.355-14.859-14.188-14.859-14.188s14.949 6.781 14.949-5.519V164.4c0-2.042 7.128-13.373 9.705-13.216m276.762 0c2.577-.157 9.705 11.174 9.705 13.216v35.94c0 12.3 14.949 5.519 14.949 5.519s-11.06 10.833-14.859 14.188c-1.595 1.408-23.583 37.152-33.92 48.133-4.021 4.271-16.645 8.038-18.219 6.316-1.138-1.245 14.249-18.27 22.199-28.18 11.93-14.87 20.013-33.68 20.493-35.468.53-1.98-1.262-57.467-1.262-57.467-.033-1.515.319-2.161.914-2.197M306.5 226.199l9.547 15.906h8.131l-17.678 50.1-17.678-50.1h8.131z" style="fill:url(#a);fill-rule:nonzero"/><path d="M34.621 11.373a55 55 0 0 0-2.82.002c2.673 45.27 14.091 73.982 22.191 84.891 19.257 1.332 37.537 7.236 45.758 23.677-19.5-5.75-13.25-16.5-86.5-11.5 3.575 17.08 26.938 54.972 36.496 69.998 7.85-1.964 16.032-3.32 23.756-3.246 10.147.098 19.498 2.655 26.248 9.498-26.218-4.723-39.058-1.185-60.002 7.442 5.387 10.877 22.824 39.4 64.127 56.527l2.875 2.469c-23.069 1.414-45.227 26.721-44.625 28.969.664 2.477 38.317 22.764 76.324 23.736l1.957 2.131c-4.949 2.917-27.838 29.647-26.734 31.558 1.257 2.177 39.653 4.47 62.016-1.628l1.14.996c-3.182 2.828-11.965 22.453-10.859 23.558 1.177 1.178 35.392-2.935 48.65-14.426l1.432.811c-.619 4.773 1.916 25.784 4.879 26.953 2.889 1.141 31.912-20.597 35.978-35.182 1.9-.423 2.573-1.022 2.832-1.679.977 7.002 2.672 9.341 4.069 13.613-33.765 28.108-54.529 79.189-53.233 81.117 1.532 2.279 30.914.509 36.924-1.789l1.57 1.215c-3.535 1.237-2.326 31.542.862 33.92 2.666 1.989 19.447-6.902 29.328-14.385 1.498 18.606 10.814 27.836 27.24 27.836s25.742-9.23 27.24-27.836c9.881 7.483 26.662 16.374 29.328 14.385 3.188-2.378 4.397-32.683.862-33.92l1.57-1.215c6.01 2.298 35.392 4.068 36.924 1.789 1.296-1.928-19.468-53.009-53.233-81.117 1.397-4.272 3.092-6.611 4.069-13.613.259.657.932 1.256 2.832 1.679 4.066 14.585 33.089 36.322 35.978 35.182 2.963-1.169 5.498-22.18 4.879-26.953l1.432-.811c13.258 11.491 47.473 15.604 48.65 14.426 1.106-1.105-7.677-20.73-10.859-23.558l1.14-.997c22.363 6.099 60.759 3.806 62.016 1.629 1.103-1.911-21.785-28.641-26.734-31.558l1.957-2.131c38.007-.972 75.66-21.259 76.324-23.736.602-2.248-21.556-27.555-44.625-28.969l2.875-2.469c41.303-17.127 58.74-45.65 64.127-56.527-20.944-8.627-33.784-12.166-60.002-7.442 6.75-6.843 16.101-9.4 26.248-9.498 7.724-.074 15.906 1.282 23.756 3.246 9.558-15.027 32.921-52.918 36.496-69.998-73.25-5-67 5.75-86.5 11.5 8.221-16.441 26.501-22.345 45.758-23.677 8.1-10.909 19.518-39.621 22.191-84.891a55 55 0 0 0-2.82-.002c-8.027.154-25.175 1.385-30.315 2.762-5.561 1.49-64.291 39.205-97.767 78.086-15.782 18.33-45.643 42.095-57.047 44.847 0 0 6.768 8.856 8 14.125 1.495 6.393-2.614 58.091-3.537 61.535-.927 3.461-11.845 30.083-39.963 54.465l-3.037-1.357c.786-1.966 17.93-29.215 17.93-29.215-5.899-17.107-20.794-46.331-12.536-52.82 0 0-33.747-23.608-53.607-23.608s-53.607 23.608-53.607 23.608c8.258 6.489-6.637 35.713-12.536 52.82 0 0 17.144 27.249 17.93 29.215l-3.037 1.357c-28.118-24.382-39.036-51.004-39.963-54.465-.923-3.444-5.032-55.142-3.537-61.535 1.232-5.269 8-14.125 8-14.125-11.404-2.753-41.265-26.517-57.047-44.847-33.476-38.881-92.206-76.596-97.767-78.086-5.14-1.377-22.288-2.608-30.315-2.762m133.498 139.811c.595.036.948.682.914 2.197 0 0-1.792 55.487-1.262 57.467.48 1.788 8.563 20.598 20.493 35.468 7.95 9.91 23.337 26.935 22.199 28.18-1.574 1.722-14.198-2.045-18.219-6.316-10.337-10.981-32.325-46.725-33.92-48.133-3.799-3.355-14.859-14.188-14.859-14.188s14.949 6.781 14.949-5.519V164.4c0-2.042 7.128-13.373 9.705-13.216m276.762 0c2.577-.157 9.705 11.174 9.705 13.216v35.94c0 12.3 14.949 5.519 14.949 5.519s-11.06 10.833-14.859 14.188c-1.595 1.408-23.583 37.152-33.92 48.133-4.021 4.271-16.645 8.038-18.219 6.316-1.138-1.245 14.249-18.27 22.199-28.18 11.93-14.87 20.013-33.68 20.493-35.468.53-1.98-1.262-57.467-1.262-57.467-.033-1.515.319-2.161.914-2.197M306.5 226.199l9.547 15.906h8.131l-17.678 50.1-17.678-50.1h8.131z" style="fill:url(#b);fill-rule:nonzero"/><defs><radialGradient id="a" cx="0" cy="0" r="1" gradientTransform="matrix(-.00003 349.998 -348.892 -.0001 306.5 226.199)" gradientUnits="userSpaceOnUse"><stop offset="0" style="stop-color:#faa325;stop-opacity:1"/><stop offset=".5" style="stop-color:#e07e25;stop-opacity:1"/><stop offset="1" style="stop-color:#bb3426;stop-opacity:1"/></radialGradient><radialGradient id="b" cx="0" cy="0" r="1" gradientTransform="matrix(-.00003 349.998 -348.892 -.0001 306.5 226.199)" gradientUnits="userSpaceOnUse"><stop offset="0" style="stop-color:#612c75;stop-opacity:1"/><stop offset="0" style="stop-color:#bf99c3;stop-opacity:1"/><stop offset=".5" style="stop-color:#7b5190;stop-opacity:1"/><stop offset="1" style="stop-color:#612c75;stop-opacity:1"/></radialGradient></defs></svg>