<?xml version="1.0" encoding="UTF-8" standalone="no"?>
<svg
   width="162.86557"
   height="203.47"
   viewBox="0 0 162.86557 203.47"
   version="1.1"
   id="svg4"
   xmlns="http://www.w3.org/2000/svg"
   xmlns:svg="http://www.w3.org/2000/svg">
  <defs
     id="defs4" />
  <g
     id="g4"
     transform="translate(0,-0.56)">
    <linearGradient
       id="SVGID_6_"
       gradientUnits="userSpaceOnUse"
       x1="-242.10558"
       y1="54.026924"
       x2="-238.30231"
       y2="54.01527"
       gradientTransform="matrix(39.9277,0,0,-39.9277,9672.125,2190.2219)">
      <stop
         offset="0"
         style="stop-color:#8b723c"
         id="stop1" />
      <stop
         offset="0.5"
         style="stop-color:#ebd491"
         id="stop2" />
      <stop
         offset="1"
         style="stop-color:#8b723c"
         id="stop3" />
    </linearGradient>
    <path
       d="m 53.08,46.96 c 5.5,-15.41 10.64,-30.95 16.04,-46.4 1.7,21.77 5.38,43.64 2.9,65.5 -0.72,7.12 -3.06,14.07 -6.89,20.12 -7.37,12.19 -19.63,20.85 -25.84,33.78 1.97,1.62 4,3.17 6.23,4.4 12.11,7.16 25.46,12.64 35.79,22.45 12.25,-11.69 28.97,-16.71 42.28,-26.83 -5.82,-12.28 -17.23,-20.64 -24.6,-31.9 -4.51,-6.54 -7.36,-14.19 -8.13,-22.11 -2.45,-21.83 1.2,-43.66 2.91,-65.41 5.52,15.75 10.72,31.6 16.37,47.29 2.42,6.83 5.29,13.59 9.53,19.51 7.33,10.02 18.02,16.66 27.24,24.73 7.98,7.3 15.4,16.7 15.9,27.96 0.61,8.99 -3.87,17.5 -10.07,23.72 -16.63,16.86 -41.8,22.43 -56.9,41.11 -4.96,5.34 -7.08,12.41 -9.38,19.14 -3.36,0.01 -6.72,0.01 -10.07,0.01 -1.92,-5.34 -3.33,-10.99 -6.67,-15.67 -3.17,-4.47 -6.96,-8.49 -11.16,-12 C 44.4,164.64 26.4,158.58 12.7,146.24 6.05,140.31 0.67,132.33 0,123.23 v -3.47 C 0.55,111.82 4.53,104.56 9.64,98.61 18.03,88.53 29.93,82.3 38.75,72.66 45.78,65.58 49.82,56.24 53.08,46.96 M 66.01,26.54 C 61.7,38.38 58.28,50.59 52.84,61.98 47.63,73.31 38.11,81.79 28.42,89.27 c -6.44,4.86 -12.8,10.08 -17.46,16.75 -4.08,5.67 -6.61,12.92 -5.01,19.92 1.75,7.73 7.46,13.78 13.47,18.58 13.37,10.43 29.63,16.47 42.66,27.38 8.3,6.96 15.4,15.81 18.17,26.47 0.6,0 1.8,0 2.39,0 2.07,-7.34 5.82,-14.14 11.11,-19.66 12.94,-14.63 31.91,-21.23 47.44,-32.45 6.67,-4.94 13.2,-11.09 15.51,-19.33 2.15,-7.5 -0.66,-15.42 -5.17,-21.47 C 143.17,93.8 129.82,87.32 120.3,76.78 107.08,63.1 103.46,43.71 96.88,26.53 c -0.97,9.46 -1.67,18.97 -1.29,28.48 0.29,8.11 0.77,16.54 4.5,23.92 6.87,14.08 20.82,23.17 27.72,37.19 1.33,2.75 1.49,6.48 -1.14,8.53 -5.87,5.17 -13.19,8.24 -19.92,12.1 -9.2,5.1 -19.08,10.09 -25.48,18.74 -7.68,-10.43 -19.99,-15.67 -30.94,-21.87 -5.35,-3.1 -11.4,-5.62 -15.41,-10.5 -2.28,-4.39 1.06,-9.06 3.39,-12.69 C 47.26,97.57 61.22,87.65 65.42,71.9 68.53,57 67.47,41.59 66.01,26.54 Z"
       id="path3" />
    <path
       fill="url(#SVGID_6_)"
       d="m 66.01,26.54 c 1.46,15.05 2.52,30.46 -0.59,45.36 -4.2,15.75 -18.16,25.67 -27.11,38.53 -2.33,3.63 -5.67,8.3 -3.39,12.69 4.01,4.88 10.06,7.4 15.41,10.5 10.95,6.2 23.26,11.44 30.94,21.87 6.4,-8.65 16.28,-13.64 25.48,-18.74 6.73,-3.86 14.05,-6.93 19.92,-12.1 2.63,-2.05 2.47,-5.78 1.14,-8.53 -6.9,-14.02 -20.85,-23.11 -27.72,-37.19 -3.73,-7.38 -4.21,-15.81 -4.5,-23.92 -0.38,-9.51 0.32,-19.02 1.29,-28.48 6.58,17.18 10.2,36.57 23.42,50.25 9.52,10.54 22.87,17.02 31.23,28.68 4.51,6.05 7.32,13.97 5.17,21.47 -2.31,8.24 -8.84,14.39 -15.51,19.33 -15.53,11.22 -34.5,17.82 -47.44,32.45 -5.29,5.52 -9.04,12.32 -11.11,19.66 -0.59,0 -1.79,0 -2.39,0 C 77.48,187.71 70.38,178.86 62.08,171.9 49.05,160.99 32.79,154.95 19.42,144.52 13.41,139.72 7.7,133.67 5.95,125.94 c -1.6,-7 0.93,-14.25 5.01,-19.92 C 15.62,99.35 21.98,94.13 28.42,89.27 38.11,81.79 47.63,73.31 52.84,61.98 58.28,50.59 61.7,38.38 66.01,26.54 Z"
       id="path4"
       style="fill:url(#SVGID_6_)" />
  </g>
</svg>
