<svg xmlns="http://www.w3.org/2000/svg" width="600" height="599.979"><path d="m582.634 319.744-61.573-19.695 61.573-19.799c11.73-3.81 18.99-15.524 17.054-27.719-1.935-12.18-12.42-21.09-24.659-21.09h-.12l-64.693.24 52.499-37.798c10.02-7.2 13.244-20.624 7.62-31.634-4.336-8.564-13.065-13.664-22.2-13.664-2.64 0-5.28.42-7.86 1.29l-61.452 20.219 38.203-52.198c7.32-9.96 6.255-23.67-2.475-32.414a24.9 24.9 0 0 0-17.624-7.32 25.16 25.16 0 0 0-14.835 4.815l-46.048 33.749-.824-11.61 14.94-45.403c3.81-11.67-1.396-24.494-12.42-30.06-3.57-1.814-7.5-2.699-11.31-2.699-7.845 0-15.464 3.63-20.264 10.38L395.26 52.378c-8.085-.75-16.98-1.17-26.774-1.29l.06-26.009c.06-12.3-8.91-22.844-21.09-24.779-1.29-.18-2.579-.3-3.869-.3-10.725 0-20.444 6.915-23.85 17.4l-11.594 36.268c-5.16.644-10.32 1.47-15.48 2.46l-12.419-38.729C276.915 6.915 267.181 0 256.456 0c-1.29 0-2.565.12-3.915.3-12.194 1.935-21.104 12.48-21.104 24.78l.24 52.152c-2.16 1.17-4.275 2.4-6.39 3.63l-31.394-43.528a24.96 24.96 0 0 0-20.279-10.38c-3.87 0-7.74.886-11.37 2.7-10.95 5.565-16.229 18.39-12.359 30.059l20.22 61.513-52.214-38.249a24.94 24.94 0 0 0-14.76-4.815c-6.39 0-12.839 2.46-17.639 7.32a24.98 24.98 0 0 0-2.52 32.414l38.264 52.198-61.468-20.22c-2.64-.87-5.22-1.29-7.845-1.29-9.15 0-17.879 5.1-22.274 13.665-5.565 11.01-2.34 24.434 7.68 31.634l52.498 37.799-64.738-.24h-.06c-12.314 0-22.799 8.91-24.734 21.089-1.875 12.195 5.34 23.91 17.055 27.719l61.572 19.8-61.572 19.694C5.635 323.494-1.58 335.268.295 347.448c1.935 12.194 12.42 21.104 24.734 21.104h.06l64.678-.24-52.438 37.843c-10.02 7.215-13.245 20.625-7.68 31.59 4.395 8.549 13.125 13.649 22.274 13.649 2.625 0 5.265-.405 7.845-1.23l61.468-20.22-38.264 52.154c-7.26 9.96-6.21 23.729 2.52 32.459 4.8 4.86 11.25 7.32 17.64 7.32 5.16 0 10.364-1.576 14.76-4.86l28.363-20.745 2.64 23.79c.166 2.4.99 6.63 4.155 10.604l-3.165 9.615c-3.87 11.714 1.41 24.494 12.36 30.059 3.63 1.875 7.5 2.745 11.37 2.745 7.784 0 15.404-3.69 20.278-10.365l10.65-14.82c6.975.75 14.474 1.11 22.74 1.11 1.41 0 2.864-.06 4.274-.12l-.12 26.01c0 12.314 8.91 22.859 21.104 24.794 1.35.225 2.625.285 3.915.285 10.725 0 20.46-6.855 23.79-17.34l12.599-39.193c4.575-.764 9.09-1.41 13.59-2.355l13.304 41.549c3.405 10.484 13.124 17.34 23.849 17.34 1.29 0 2.58-.06 3.87-.286 12.18-1.935 21.15-12.48 21.09-24.795l-.18-55.243c1.65-.824 3.224-1.695 4.919-2.58l32.879 45.584c4.8 6.735 12.42 10.425 20.264 10.425 3.81 0 7.74-.87 11.31-2.745 11.024-5.565 16.23-18.345 12.42-30.06l-20.265-61.467 52.198 38.204c4.455 3.284 9.615 4.86 14.835 4.86 6.374 0 12.764-2.46 17.624-7.32 8.73-8.73 9.795-22.5 2.475-32.46l-38.204-52.152 61.453 20.219c2.58.825 5.22 1.23 7.86 1.23 9.134 0 17.864-5.1 22.199-13.65 5.625-10.964 2.4-24.374-7.62-31.589l-52.438-37.843 64.633.24h.12c12.24 0 22.724-8.91 24.659-21.104 1.935-12.18-5.325-23.955-17.055-27.704" style="fill:#fff"/><path d="M444.654 390.166c0 85.902-95.202 131.485-169.09 139.09-25.663 2.64-58.587 5.46-83.846-.226-8.43-1.874-16.11-4.214-23.084-6.914-2.115-.886-3.105-1.935-3.105-3.165l-10.2-92.112c0-2.04 1.065-3.105 3.165-3.105l15.18 8.145c2.114.646 11.654 56.023 56.952 66.793 29.354 7.034 62.218 0 89.817-9.66 32.984-11.67 66.148-35.624 66.148-74.232 0-35.4-23.55-64.108-70.723-86.202-58.992-27.48-142.015-56.833-142.015-135.04 0-84.373 83.368-122.351 156.31-125.096 26.429-.946 57.073-1.995 83.037 3.285 2.1.404 3.165 1.455 3.165 3.15l6.96 97.976c0 2.1-.99 3.165-3.105 3.165l-17.865-11.31c-2.115 0-14.94-36.733-20.564-47.113-24.434-44.938-93.627-26.369-126.505-1.47-30.284 22.98-31.29 69.553-9.78 97.332 46.288 59.818 138.985 54.073 182.273 119.05 10.785 16.17 16.875 38.144 16.875 57.658m52.213 106.692-40.439-55.243c-2.805 6.374-6.15 12.54-9.84 18.389zm-240.411 78.162 7.034-21.974c-2.28.18-4.62.42-6.974.524zm169.973-26.954-15.869-48.223a240 240 0 0 1-12.3 9.15zm-82.842 26.954-.18-38.309a426 426 0 0 1-10.95 3.69zM103.131 103.12l50.098 68.442c1.455-9.434 3.75-18.344 6.96-26.669zm310.474 95.396-5.445-3.465-14.534-9.254c-1.995-.765-3.69-1.815-5.28-3.225l-6.495 4.8 2.805-8.67c-4.395-5.79-8.025-14.94-13.185-27.884-1.815-4.575-3.974-9.96-5.85-14.534l-22.619 31.288.24-53.203c-3.644-.93-7.86-1.575-13.02-1.575-5.039 0-10.184.646-15.344 1.575L300 160.78l-12.135-37.799c-7.44 3.405-13.994 7.335-19.034 11.085-6.045 4.56-9.615 10.304-11.894 15.869l.06 17.64-3.345-4.575c-1.41 13.08 2.16 27.014 9.614 36.688 18.63 24.074 48.104 36.209 79.272 48.974 36.434 14.999 77.743 31.933 103.992 71.367 4.575 6.915 8.264 14.82 11.43 23.084l117.07.465-135.82-43.589 135.82-43.528-142.615.524 115.721-83.382-135.475 44.593 15.24-20.909c-2.4.75-4.98 1.23-7.74 1.23zm32.219-26.429v.765l51.043-69.733-53.203 38.969 2.115 29.174.048.825zM466.568 399.6l81.567 26.834-83.562-60.238c1.53 7.98 2.58 16.065 2.58 23.97 0 3.224-.404 6.27-.584 9.434m-270.05 28.89 21.689-15.885-12.48 37.963c5.085 9.615 11.94 18.105 21.554 23.024l29.714-41.188-.18 46.588c9.66-.06 20.384-1.53 31.754-4.17L300 439.214l9.54 29.639c1.184-.346 2.294-.645 3.464-1.05 7.38-2.64 19.514-7.86 30.119-15.945l-.12-19.454 8.61 11.895c7.274-7.785 12.48-17.52 12.48-29.52 0-9.554 0-38.728-57.764-65.802-5.46-2.58-11.19-5.16-17.054-7.8-55.138-24.899-129.43-58.588-137.17-134.575L51.923 173.603l115.721 83.382-142.615-.524 135.76 43.528-135.76 43.589 142.615-.585-115.72 83.442 135.46-44.593-16.695 22.86 12.885 6.974c8.204 3.915 11.13 11.474 12.944 16.814M426.43 51.914l-.584.824c.06.06.18.06.24.12zM343.588 25.02l-6.675 20.684c2.22-.06 4.335-.12 6.555-.224zM103.132 496.858l34.513-25.244-2.055-19.05zM256.456 25.02l.12 34.813c3.285-1.184 6.63-2.354 9.96-3.344zm-82.842 523.046.346-.464h-.165l-.18.464Zm27.6-457.829c-4.05 3.285-7.92 6.735-11.55 10.425l-16.05-48.748Z"/></svg>