<svg xmlns="http://www.w3.org/2000/svg" xmlns:xlink="http://www.w3.org/1999/xlink" width="600" height="600.018"><radialGradient id="a" cx="0" cy="0" r="1" fx="0" fy="0" gradientTransform="matrix(15.42172 0 0 -15.42172 481.185 372.092)" gradientUnits="userSpaceOnUse" spreadMethod="pad"><stop offset="0" style="stop-color:#f6b91d"/><stop offset=".7" style="stop-color:#d3641c"/><stop offset="1" style="stop-color:#bf331c"/></radialGradient><radialGradient xlink:href="#a" id="b" cx="0" cy="0" r="1" fx="0" fy="0" gradientTransform="translate(299.988 300.035)scale(231.33285)" gradientUnits="userSpaceOnUse" spreadMethod="pad"/><path d="m582.633 319.765-61.577-19.696 61.577-19.8c11.73-3.81 18.99-15.526 17.055-27.721-1.935-12.18-12.36-21.091-24.66-21.091h-.12l-64.697.24 52.501-37.801c10.02-7.2 13.246-20.626 7.68-31.636-4.335-8.565-13.125-13.665-22.32-13.665-2.58 0-5.16.42-7.74 1.29l-61.532 20.22 38.266-52.201c7.275-9.96 6.21-23.671-2.52-32.416-4.8-4.86-11.25-7.32-17.686-7.32-5.16 0-10.32 1.59-14.715 4.815l-46.112 33.75-.824-11.61 14.88-45.406c3.93-11.67-1.335-24.496-12.3-30.061-3.63-1.815-7.5-2.7-11.43-2.7-7.786 0-15.406 3.63-20.266 10.38l-10.785 15.046c-8.146-.75-17.056-1.17-26.836-1.29l.12-26.011c0-12.3-8.91-22.846-21.15-24.781-1.29-.18-2.58-.3-3.87-.3-10.726 0-20.447 6.915-23.792 17.4l-11.655 36.272c-5.16.644-10.32 1.47-15.42 2.46L280.285 17.4C276.833 6.915 267.158 0 256.432 0c-1.29 0-2.58.12-3.915.3-12.135 1.935-21.165 12.48-21.045 24.78l.18 52.157c-2.235 1.17-4.335 2.4-6.39 3.63l-31.411-43.53c-4.8-6.751-12.48-10.381-20.266-10.381-3.87 0-7.74.885-11.37 2.7-10.95 5.565-16.23 18.39-12.36 30.06l20.205 61.518-52.142-38.251a25.15 25.15 0 0 0-14.82-4.816c-6.39 0-12.78 2.46-17.64 7.32-8.731 8.746-9.796 22.456-2.52 32.417l38.205 52.201-61.412-20.22c-2.58-.87-5.28-1.29-7.845-1.29-9.15 0-17.88 5.1-22.215 13.665-5.626 11.01-2.4 24.436 7.62 31.636l52.501 37.801-64.757-.24h-.108c-12.255 0-22.68 8.91-24.615 21.09-1.935 12.196 5.28 23.911 16.995 27.722l61.637 19.8-61.637 19.696C5.593 323.515-1.622 335.29.313 347.47c1.935 12.195 12.36 21.105 24.615 21.105h.108l64.757-.24-52.501 37.846c-10.02 7.216-13.246 20.626-7.62 31.591 4.335 8.55 13.065 13.65 22.215 13.65 2.565 0 5.265-.404 7.845-1.23l61.412-20.22-38.206 52.157c-7.275 9.96-6.21 23.73 2.52 32.46a24.9 24.9 0 0 0 17.64 7.32c5.206 0 10.366-1.574 14.821-4.86l28.306-20.745 2.625 23.79c.18 2.4 1.005 6.631 4.11 10.606l-3.105 9.615c-3.87 11.716 1.41 24.496 12.36 30.061 3.63 1.875 7.5 2.745 11.37 2.745 7.786 0 15.466-3.69 20.267-10.365l10.665-14.82c6.975.75 14.475 1.11 22.74 1.11 1.41 0 2.806-.06 4.276-.12l-.06 26.01c-.12 12.316 8.91 22.861 21.045 24.796 1.335.225 2.625.285 3.915.285 10.726 0 20.401-6.856 23.851-17.34l12.54-39.197c4.516-.766 9.076-1.41 13.59-2.355l13.366 41.551c3.345 10.485 13.066 17.34 23.791 17.34 1.29 0 2.58-.06 3.87-.284 12.24-1.935 21.15-12.48 21.15-24.796l-.24-55.246c1.65-.826 3.286-1.695 4.861-2.58l32.881 45.586c4.86 6.735 12.48 10.425 20.266 10.425 3.93 0 7.8-.87 11.43-2.745 10.965-5.565 16.23-18.345 12.3-30.06l-20.205-61.472 52.261 38.206c4.395 3.285 9.556 4.86 14.716 4.86 6.435 0 12.885-2.46 17.685-7.32 8.73-8.73 9.796-22.501 2.52-32.461L478.8 429.973l61.532 20.22c2.58.825 5.16 1.23 7.74 1.23 9.196 0 17.926-5.1 22.321-13.65 5.565-10.965 2.34-24.375-7.68-31.59l-52.442-37.847 64.637.24h.12c12.3 0 22.726-8.91 24.66-21.105 1.936-12.18-5.324-23.956-17.055-27.706"/><path d="M444.644 390.192c0 85.907-95.268 131.494-169.1 139.1-25.606 2.64-58.652 5.46-83.853-.227-8.445-1.875-16.11-4.215-23.026-6.915-2.175-.885-3.165-1.935-3.165-3.165l-10.14-92.118c0-2.04.99-3.105 3.105-3.105l15.18 8.146c2.1.644 11.656 56.026 56.957 66.797 29.356 7.035 62.282 0 89.823-9.66 32.926-11.671 66.152-35.627 66.152-74.238 0-35.401-23.55-64.112-70.727-86.208-58.997-27.48-142.085-56.836-142.085-135.049 0-84.377 83.493-122.358 156.38-125.104 26.43-.945 57.137-1.995 83.028 3.286 2.115.404 3.165 1.455 3.165 3.15l6.975 97.983c0 2.1-.99 3.165-3.165 3.165l-17.746-11.31c-2.175 0-14.94-36.737-20.625-47.117-24.436-44.941-93.633-26.37-126.574-1.47-30.226 22.98-31.291 69.557-9.72 97.338 46.29 59.822 138.979 54.077 182.345 119.059 10.725 16.17 16.816 38.146 16.816 57.661M496.86 496.89l-40.501-55.246c-2.685 6.375-6.03 12.54-9.78 18.39zm-240.427 78.168 7.095-21.976c-2.34.18-4.695.42-7.035.526zM426.358 548.1l-15.81-48.226a194 194 0 0 1-12.376 9.15zm-82.788 26.956-.18-38.311a360 360 0 0 1-10.95 3.69zm-240.472-471.93 50.087 68.448c1.47-9.436 3.75-18.346 6.975-26.671zm310.555 95.403-5.506-3.465-14.535-9.255c-1.935-.766-3.63-1.815-5.28-3.225l-6.495 4.8 2.865-8.67c-4.455-5.79-8.086-14.94-13.246-27.886a1470 1470 0 0 0-5.85-14.535l-22.56 31.29.164-53.206c-3.63-.93-7.845-1.575-13.006-1.575-5.04 0-10.185.644-15.285 1.575l-14.94 46.411-12.076-37.8c-7.44 3.404-14.07 7.334-19.11 11.084-6.03 4.56-9.6 10.306-11.896 15.871l.06 17.64-3.33-4.575c-1.41 13.08 2.16 27.016 9.6 36.691 18.646 24.076 48.107 36.212 79.293 48.977 36.436 15 77.747 31.936 103.938 71.372 4.635 6.915 8.325 14.82 11.49 23.086l117.079.465-135.77-43.59 135.77-43.532-142.624.525 115.668-83.387-135.484 44.596 15.36-20.91c-2.46.75-5.04 1.23-7.8 1.23h-6.495Zm32.16-26.43v.765l51.047-69.737-53.146 38.971 2.04 29.176zM466.5 399.627l81.573 26.835-83.568-60.241c1.59 7.98 2.64 16.065 2.64 23.97 0 3.225-.344 6.27-.644 9.436m-270.008 28.89 21.675-15.885-12.525 37.966c5.145 9.615 12 18.106 21.676 23.026l29.64-41.191-.164 46.591c9.66-.06 20.326-1.53 31.816-4.17l11.37-35.611 9.54 29.64c1.17-.345 2.296-.645 3.466-1.05 7.38-2.64 19.515-7.86 30.12-15.945l-.06-19.455 8.55 11.895c7.261-7.785 12.541-17.52 12.541-29.521 0-9.555 0-38.731-57.841-65.807-5.506-2.58-11.25-5.16-17.041-7.8-55.142-24.901-129.439-58.592-137.18-134.584L51.889 173.615l115.653 83.387-142.549-.525 135.754 43.53L24.992 343.6l142.55-.585L51.887 426.46l135.469-44.596-16.756 22.86 13.006 6.976c8.145 3.915 11.13 11.475 12.885 16.815M426.36 51.915l-.525.825c.12.06.18.06.3.12zm-82.787-26.896-6.676 20.686c2.22-.06 4.336-.12 6.616-.226zm-240.473 471.87 34.501-25.246-2.04-19.051zm153.335-471.87.12 34.816c3.345-1.184 6.57-2.355 9.96-3.345zm-82.848 523.08.285-.464h-.108l-.18.465zm27.601-457.858c-4.05 3.285-7.92 6.735-11.61 10.425l-15.99-48.751Z" style="fill:#bf331c"/><path d="M330.385 74.477c-74.942 2.82-150.59 40.727-150.59 119.074 0 66.962 64.397 96.033 121.174 121.699 5.97 2.64 11.776 5.325 17.4 7.905 49.277 23.086 74.178 53.971 74.178 91.653 0 49.621-49.037 72.422-70.127 79.922-24.376 8.49-46.652 12.825-66.392 12.825-9.435 0-18.466-.99-26.776-2.925-40.606-9.735-54.737-52.036-59.357-65.927-.36-.93-.525-1.755-.765-2.46l-7.155-3.81 9.27 84.273c6.675 2.565 13.996 4.74 21.736 6.495 9.555 2.115 20.746 3.165 34.396 3.165 16.17 0 33.106-1.515 47.581-3.045 65.792-6.795 163.715-47.867 163.715-133.13 0-18.81-6.105-39.615-15.885-54.316-21.45-32.176-55.247-46.051-91.053-60.827-33.346-13.71-67.742-27.825-90.948-57.886-12.42-16.006-18.225-38.087-15.405-59.177 2.58-19.23 11.895-35.746 26.31-46.652 17.746-13.47 48.932-27.015 78.513-27.015 26.31 0 46.006 10.5 56.777 30.42 2.82 5.1 6.975 15.586 11.085 25.666 3.045 7.786 7.26 18.39 7.56 19.276l11.296 7.2-6.436-89.583c-12.9-2.46-27.945-3.645-47.236-3.645-11.25 0-22.38.42-32.866.825M319.48 119.72l-13.77 42.886-5.67 17.82-5.746-17.82-10.02-31.171c-4.455 2.34-8.506 4.92-11.836 7.44-4.11 3.105-7.275 7.155-9.555 12.3l.12 16.411.06 18.69-1.005-1.41c1.53 4.17 3.525 7.98 5.985 11.206 17.626 22.786 46.352 34.561 76.878 47.101 29.94 12.36 63.166 25.966 89.117 52.217l3.405-1.125 98.733-31.636-103.713.36-18.75.046 15.165-10.89 84.213-60.708-98.628 32.461-17.746 5.866 11.01-15.06 7.44-10.141h-3.329l-1.47-.99-5.446-3.406-13.485-8.73c-.99-.345-1.995-.885-3.045-1.41l-2.985 2.235-15.12 11.01 5.864-17.76 1.936-5.79c-4.11-6.39-7.56-15.121-12.256-26.731-.525-1.395-1.17-2.865-1.695-4.395l-16.23 22.5-10.966 15.18.06-18.69.12-48.286a52 52 0 0 0-6.915-.465c-3.285 0-6.855.3-10.725.885m130.444 25.245.75 11.086 18.345-25.081zm-299.89 12.076c.87-3.45 1.816-6.675 2.926-9.9l-22.036-16.111zm3.856 82.742c-3.45-8.85-5.97-18.405-7.38-28.71l-59.642-19.636Zm8.73 54.482 17.82 5.745-17.82 5.745-98.838 31.696 103.818-.405 18.69-.06-15.165 10.966-84.257 60.691 98.613-32.46 17.805-5.85-11.07 15.06-12.66 17.34 6.63 3.57c6.615 3.165 10.605 8.326 12.945 12.9l15.466-11.37 15.18-11.085-5.925 17.76-11.656 35.447c3.93 6.855 8.386 12.075 13.47 15.645l26.492-36.676 10.905-15.18-.06 18.75-.18 40.321c6.39-.465 13.47-1.47 21.09-3.045l10.381-32.356 5.745-17.865 5.67 17.865 7.62 23.851c6.046-2.28 15.241-6.39 23.731-12.36l-.06-16.41-.06-18.751 10.966 15.18 3.93 5.505c4.155-6.09 6.27-12.705 6.27-19.62 0-8.626 0-34.936-54.377-60.422-4.455-2.1-9.15-4.155-13.95-6.39l-2.985-1.335c-40.666-18.346-92.298-41.732-120.589-83.673l-102.423-.36Zm288.879 22.5c3.81 5.626 7.155 12.256 10.425 20.401l74.252.285-90.767-29.176c2.055 2.76 4.095 5.566 6.09 8.49m21.63 73.428c0 1.755-.06 3.45-.24 5.16l40.202 13.245-40.502-29.19c.36 3.75.54 7.335.54 10.785m-18.585 68.267 14.475 10.605-11.535-15.825c-.945 1.695-1.875 3.465-2.94 5.22" style="fill:url(#b)"/></svg>