<svg xmlns="http://www.w3.org/2000/svg" xmlns:xlink="http://www.w3.org/1999/xlink" width="600" height="599.976"><radialGradient id="a" cx="0" cy="0" r="1" fx="0" fy="0" gradientTransform="matrix(15.42071 0 0 -15.42071 397.938 372.092)" gradientUnits="userSpaceOnUse" spreadMethod="pad"><stop offset="0" style="stop-color:#bf99c3"/><stop offset=".663" style="stop-color:#7b5190"/><stop offset="1" style="stop-color:#612c75"/></radialGradient><radialGradient xlink:href="#a" id="b" cx="0" cy="0" r="1" fx="0" fy="0" gradientTransform="matrix(15.42071 0 0 -15.42071 397.938 372.092)" gradientUnits="userSpaceOnUse" spreadMethod="pad"/><path d="m582.634 319.742-61.572-19.694 61.572-19.8c11.715-3.81 18.99-15.524 17.055-27.718-1.935-12.18-12.42-21.09-24.72-21.09h-.06l-64.692.24 52.438-37.798c10.02-7.2 13.305-20.624 7.68-31.634-4.335-8.564-13.065-13.664-22.26-13.664-2.579 0-5.219.42-7.799 1.29l-61.467 20.22 38.203-52.199c7.335-9.96 6.27-23.669-2.46-32.413-4.86-4.86-11.25-7.32-17.7-7.32-5.144 0-10.304 1.59-14.758 4.815l-46.049 33.748-.824-11.61 14.88-45.402c3.87-11.67-1.396-24.494-12.36-30.06a25.3 25.3 0 0 0-11.37-2.7c-7.784 0-15.404 3.63-20.264 10.38l-10.844 15.045c-8.085-.75-16.995-1.17-26.774-1.29l.06-26.009c.06-12.3-8.91-22.844-21.09-24.779-1.29-.18-2.64-.3-3.87-.3-10.724 0-20.458 6.915-23.848 17.4l-11.655 36.268c-5.16.645-10.26 1.47-15.42 2.46l-12.419-38.729C276.857 6.915 267.183 0 256.458 0c-1.29 0-2.58.12-3.93.3-12.179 1.935-21.089 12.48-21.089 24.779l.24 52.153c-2.235 1.17-4.334 2.4-6.39 3.63l-31.408-43.529c-4.86-6.75-12.48-10.38-20.264-10.38-3.87 0-7.74.886-11.37 2.7-10.964 5.566-16.23 18.39-12.36 30.06l20.205 61.512-52.198-38.248c-4.395-3.225-9.615-4.815-14.774-4.815-6.435 0-12.825 2.46-17.625 7.32-8.73 8.744-9.794 22.454-2.52 32.413l38.204 52.198-61.408-20.22c-2.64-.87-5.22-1.289-7.86-1.289-9.134 0-17.864 5.1-22.258 13.664-5.565 11.01-2.34 24.434 7.68 31.634l52.497 37.799-64.752-.24h-.108c-12.255 0-22.74 8.91-24.674 21.089-1.875 12.194 5.325 23.909 17.054 27.719l61.573 19.799-61.573 19.694C5.62 323.492-1.58 335.266.296 347.446 2.23 359.64 12.716 368.55 24.97 368.55h.108l64.692-.24-52.438 37.843c-10.02 7.215-13.244 20.625-7.68 31.59 4.395 8.549 13.125 13.649 22.26 13.649 2.64 0 5.28-.405 7.86-1.23l61.407-20.22-38.204 52.153c-7.274 9.96-6.21 23.73 2.52 32.459 4.8 4.86 11.19 7.32 17.625 7.32 5.16 0 10.38-1.575 14.774-4.86l28.364-20.744 2.625 23.789c.18 2.4 1.005 6.63 4.11 10.604l-3.105 9.615c-3.87 11.715 1.395 24.494 12.36 30.059 3.629 1.875 7.499 2.745 11.369 2.745 7.784 0 15.404-3.69 20.264-10.365l10.664-14.82c6.975.75 14.475 1.11 22.74 1.11 1.41 0 2.864-.06 4.274-.12l-.12 26.01c0 12.314 8.91 22.859 21.09 24.794 1.35.225 2.64.285 3.93.285 10.724 0 20.398-6.855 23.788-17.34l12.6-39.193c4.515-.765 9.074-1.41 13.59-2.354l13.304 41.548c3.39 10.484 13.124 17.34 23.849 17.34 1.23 0 2.58-.06 3.87-.286 12.18-1.935 21.149-12.48 21.089-24.794l-.18-55.243c1.635-.826 3.225-1.695 4.86-2.58l32.878 45.583c4.86 6.735 12.48 10.425 20.264 10.425 3.87 0 7.74-.87 11.37-2.745 10.964-5.565 16.23-18.344 12.36-30.059l-20.205-61.467 52.198 38.203a24.75 24.75 0 0 0 14.76 4.86c6.45 0 12.839-2.46 17.699-7.32 8.73-8.73 9.794-22.499 2.46-32.459l-38.204-52.153 61.468 20.22c2.58.825 5.22 1.23 7.8 1.23 9.194 0 17.924-5.1 22.259-13.65 5.624-10.964 2.34-24.374-7.62-31.589l-52.498-37.843 64.692.24h.06c12.3 0 22.784-8.91 24.72-21.104 1.934-12.18-5.34-23.954-17.055-27.704" style="fill:#fff"/><path d="M444.655 390.164c0 85.902-95.276 131.485-169.088 139.09-25.664 2.64-58.663 5.46-83.847-.225-8.444-1.875-16.109-4.215-23.084-6.915-2.115-.884-3.105-1.935-3.105-3.165l-10.2-92.11c0-2.04 1.05-3.106 3.166-3.106l15.18 8.145c2.099.646 11.654 56.023 56.937 66.792 29.369 7.035 62.232 0 89.831-9.66 32.924-11.669 66.147-35.623 66.147-74.231 0-35.399-23.609-64.108-70.722-86.202-59.007-27.479-142.089-56.832-142.089-135.04 0-84.37 83.442-122.35 156.384-125.094 26.429-.945 57.072-1.995 83.021 3.285 2.115.404 3.165 1.455 3.165 3.15l6.975 97.976c0 2.1-1.05 3.164-3.165 3.164l-17.804-11.31c-2.115 0-14.94-36.733-20.564-47.112-24.494-44.938-93.642-26.37-126.505-1.47-30.344 22.979-31.349 69.552-9.78 97.33 46.288 59.818 138.97 54.074 182.273 119.051 10.784 16.17 16.874 38.144 16.874 57.658m52.198 106.69-40.483-55.242c-2.745 6.374-6.09 12.54-9.84 18.389zm-240.395 78.162 7.034-21.974c-2.28.18-4.634.42-6.974.524zm169.913-26.954-15.81-48.223c-3.99 3.165-8.084 6.225-12.374 9.15zm-82.842 26.954-.12-38.308a426 426 0 0 1-10.95 3.69zM103.12 103.121l50.098 68.443c1.47-9.435 3.75-18.345 6.975-26.67zm310.487 95.397-5.504-3.465-14.535-9.255a17.3 17.3 0 0 1-5.22-3.225l-6.494 4.8 2.805-8.67c-4.395-5.79-8.025-14.94-13.245-27.884a490 490 0 0 0-5.85-14.534l-22.559 31.289.225-53.203c-3.63-.93-7.845-1.575-13.005-1.575-5.04 0-10.2.644-15.344 1.575L300 160.779l-12.134-37.798c-7.44 3.404-14.01 7.334-19.05 11.084-6.03 4.56-9.599 10.305-11.894 15.87l.06 17.639-3.33-4.575c-1.41 13.08 2.16 27.014 9.6 36.688 18.63 24.074 48.103 36.209 79.272 48.973 36.448 15 77.756 31.934 103.945 71.368 4.635 6.914 8.265 14.819 11.43 23.084l117.07.464-135.76-43.588 135.76-43.528-142.554.525 115.66-83.381-135.474 44.593 15.3-20.91c-2.4.75-4.98 1.23-7.74 1.23zm32.219-26.43v.766l51.028-69.732-53.188 38.968 2.1 29.174.06.826zM466.509 399.6l81.567 26.834-83.562-60.237c1.53 7.98 2.64 16.064 2.64 23.969 0 3.225-.404 6.27-.645 9.434m-269.99 28.89 21.675-15.885-12.54 37.963c5.16 9.615 12.015 18.105 21.63 23.024l29.698-41.188-.164 46.588c9.66-.06 20.384-1.53 31.753-4.17l11.43-35.608 9.48 29.639c1.17-.346 2.294-.646 3.524-1.05 7.38-2.64 19.455-7.86 30.06-15.945l-.06-19.454 8.549 11.895c7.32-7.785 12.54-17.52 12.54-29.52 0-9.554 0-38.728-57.778-65.802-5.505-2.58-11.25-5.16-17.04-7.8-55.137-24.898-129.43-58.587-137.169-134.574L51.911 173.604l115.66 83.381-142.554-.525 135.76 43.528-135.76 43.588 142.554-.584-115.66 83.441 135.475-44.593-16.77 22.86 12.96 6.974c8.204 3.915 11.13 11.474 12.944 16.814M426.37 51.913l-.524.826c.06.06.18.06.24.12l.286-.946zM343.53 25.02l-6.63 20.684c2.174-.06 4.35-.12 6.57-.225zM103.118 496.855l34.514-25.244-2.04-19.049zM256.458 25.02l.12 34.813c3.285-1.184 6.554-2.355 9.96-3.345zm-82.842 523.043.286-.464h-.12l-.165.464zm27.599-457.826c-4.05 3.285-7.92 6.735-11.55 10.425l-16.049-48.749Z" style="fill:#612c75"/><path d="M399.965 387.129c-4.996-.188-10.039-2.715-10.039-7.938 0-4.464 4.293-6.402 8.078-8.113.398-.176.785-.355 1.16-.527 3.285-1.539 4.945-3.598 4.945-6.11 0-3.308-3.269-4.828-4.675-5.328-1.625-.566-3.114-.855-4.426-.855-.629 0-1.231.066-1.789.195-2.703.649-3.645 3.469-3.953 4.395l-.055.164-.473.254.614-5.618c.449-.171.937-.316 1.453-.433.636-.141 1.383-.211 2.289-.211 1.078 0 2.211.101 3.172.203 4.386.453 10.918 3.191 10.918 8.875 0 1.254-.407 2.641-1.059 3.621-1.43 2.145-3.687 3.07-6.074 4.055-2.219.914-4.512 1.855-6.067 3.859-.824 1.067-1.207 2.543-1.015 3.945.168 1.282.789 2.383 1.746 3.11 1.187.898 3.265 1.801 5.238 1.801 1.754 0 3.067-.7 3.785-2.028.184-.34.461-1.027.727-1.691.207-.527.492-1.242.512-1.305l.757-.48-.429 5.972c-.86.164-1.864.243-3.149.243-.75 0-1.492-.028-2.191-.055m-.727-3.016-.918-2.859-.382-1.188-.379 1.188-.668 2.078a5.5 5.5 0 0 1-.789-.496 2.03 2.03 0 0 1-.637-.82l.004-1.094.004-1.254-.055.082c.098-.27.227-.516.387-.727 1.175-1.515 3.09-2.304 5.129-3.14 1.996-.824 4.207-1.731 5.941-3.481l.223.075 6.586 2.109-6.918-.024-1.246-.003 1.011.726 5.614 4.047-6.575-2.164-1.183-.391.734 1.004.496.676h-.222l-.098.063-.367.23-.895.582a1.3 1.3 0 0 0-.199.094l-.207-.149-1.004-.734.391 1.184.125.386c-.27.426-.504 1.008-.813 1.782-.035.093-.078.191-.117.293l-1.082-1.5-.727-1.012.004 1.246.008 3.219a4 4 0 0 1-.461.031c-.223 0-.457-.02-.715-.059m8.692-1.683.054-.742 1.227 1.675zm-19.989-.805c.055.23.125.445.196.66l-1.465 1.074zm.258-5.516a8.2 8.2 0 0 0-.488 1.914l-3.981 1.309zm.578-3.632 1.188-.383-1.188-.383-6.586-2.113 6.918.027 1.25.004-1.011-.731-5.621-4.046 6.578 2.164 1.183.39-.734-1.004-.844-1.156.442-.238c.445-.211.703-.555.863-.86l1.031.758 1.008.739-.391-1.184-.777-2.363q.392-.686.894-1.043l1.766 2.445.727 1.012-.004-1.25-.008-2.688q.638.046 1.406.203l.692 2.157.379 1.191.382-1.191.508-1.59a7.5 7.5 0 0 1 1.582.824l-.004 1.094-.004 1.25.727-1.012.266-.367c.277.406.414.847.414 1.308 0 .575 0 2.329-3.621 4.028-.34.156-.696.316-1.133.515-2.711 1.227-6.153 2.782-8.035 5.578l-6.829.024zm19.262-1.5c.25-.375.477-.817.695-1.36l4.95-.019-6.051 1.945q.206-.275.406-.566m1.441-4.895q.002-.174-.015-.344l2.68-.883-2.704 1.946q.04-.374.039-.719m-1.242-4.551.973-.711-.773 1.059a11 11 0 0 0-.2-.348" style="fill:url(#b)" transform="matrix(14.99939 0 0 -14.99939 -5668.826 5881.17)"/></svg>