<svg xmlns="http://www.w3.org/2000/svg" width="550" height="549.999"><path d="M419.624 365.146c0 85.902-95.201 131.486-169.089 139.09-25.664 2.64-58.587 5.46-83.847-.225-8.43-1.875-16.109-4.215-23.084-6.915-2.115-.886-3.105-1.935-3.105-3.165l-10.2-92.112c0-2.04 1.065-3.104 3.166-3.104l15.18 8.144c2.114.646 11.654 56.023 56.952 66.793 29.354 7.035 62.218 0 89.817-9.66 32.984-11.67 66.147-35.624 66.147-74.232 0-35.399-23.549-64.108-70.722-86.202-58.993-27.48-142.015-56.833-142.015-135.04 0-84.372 83.367-122.35 156.31-125.096 26.429-.945 57.072-1.995 83.037 3.285 2.1.405 3.164 1.455 3.164 3.15l6.96 97.977c0 2.1-.99 3.164-3.105 3.164l-17.864-11.31c-2.115 0-14.94-36.733-20.564-47.113-24.434-44.938-93.627-26.369-126.506-1.47-30.284 22.98-31.289 69.553-9.78 97.332 46.289 59.818 138.986 54.073 182.274 119.05 10.785 16.17 16.874 38.144 16.874 57.659m52.214 106.69-40.439-55.242c-2.805 6.375-6.15 12.54-9.84 18.39zM231.426 550l7.035-21.974c-2.28.18-4.62.42-6.975.524zM401.4 523.045l-15.87-48.223a240 240 0 0 1-12.299 9.15zM318.558 550l-.18-38.308a426 426 0 0 1-10.95 3.69zM78.102 78.101l50.098 68.443c1.455-9.435 3.75-18.345 6.96-26.67zm310.474 95.397-5.445-3.465-14.535-9.255c-1.995-.764-3.69-1.815-5.28-3.225l-6.494 4.8 2.805-8.67c-4.395-5.79-8.025-14.94-13.185-27.884-1.815-4.575-3.975-9.96-5.85-14.534l-22.619 31.289.24-53.203c-3.645-.93-7.86-1.575-13.02-1.575-5.04 0-10.184.645-15.344 1.575l-14.88 46.408-12.134-37.799c-7.44 3.405-13.994 7.335-19.034 11.085-6.045 4.56-9.615 10.305-11.895 15.87l.06 17.639-3.345-4.575c-1.41 13.08 2.16 27.014 9.615 36.689 18.63 24.074 48.103 36.208 79.272 48.973 36.434 15 77.742 31.934 103.991 71.367 4.575 6.915 8.265 14.82 11.43 23.084l117.07.465-135.82-43.589L550 231.44l-142.614.524 115.72-83.382-135.474 44.594 15.239-20.91c-2.4.75-4.98 1.23-7.74 1.23h-6.554zm32.218-26.43v.765L471.838 78.1l-53.204 38.969 2.115 29.174.048.826zM441.54 374.58l81.567 26.834-83.562-60.237c1.53 7.98 2.58 16.064 2.58 23.969 0 3.225-.405 6.27-.585 9.434m-270.05 28.89 21.69-15.885-12.48 37.964c5.084 9.614 11.94 18.104 21.554 23.024l29.714-41.189-.18 46.589c9.66-.06 20.384-1.53 31.754-4.17l11.43-35.609 9.539 29.639c1.184-.346 2.295-.644 3.465-1.05 7.38-2.64 19.514-7.86 30.119-15.944l-.12-19.455 8.61 11.895c7.274-7.785 12.479-17.52 12.479-29.52 0-9.554 0-38.728-57.763-65.802-5.46-2.58-11.19-5.16-17.054-7.8-55.138-24.899-129.43-58.587-137.17-134.575L26.893 148.583l115.72 83.383L0 231.44l135.76 43.529L0 318.558l142.615-.584-115.721 83.442 135.46-44.594-16.694 22.86 12.884 6.974c8.205 3.915 11.13 11.475 12.945 16.815M401.4 26.894l-.585.824c.06.06.18.06.24.12zM318.559 0l-6.675 20.684c2.22-.06 4.335-.12 6.555-.224zM78.102 471.838l34.514-25.244-2.055-19.05ZM231.427 0l.12 34.814c3.285-1.185 6.63-2.355 9.96-3.345zm-82.842 523.046.345-.464h-.164zm27.599-457.828c-4.05 3.285-7.92 6.734-11.55 10.424l-16.05-48.748Z"/></svg>