<svg xmlns="http://www.w3.org/2000/svg" width="600" height="574.108"><linearGradient id="a" x1="0" x2="1" y1="0" y2="0" gradientTransform="scale(36.4961 -36.4961)rotate(10 65.157 67.68)" gradientUnits="userSpaceOnUse" spreadMethod="pad"><stop offset="0" style="stop-color:#bf331c"/><stop offset=".3" style="stop-color:#d3641c"/><stop offset=".5" style="stop-color:#f6b91d"/><stop offset=".7" style="stop-color:#d3641c"/><stop offset="1" style="stop-color:#bf331c"/></linearGradient><path d="M371.534 233.848c0-6.387 8.195-24.772 16.046-24.772 8.97 0 14.626 13.678 14.683 13.793 0 0 7.908 20.065 12.329 31.274-7.176 10.937-14.18 21.644-14.41 22.032h-.947c-18.329 0-27.701-35.15-27.701-42.327M401.2 36.671c-46.259 94.24-93.077 106.698-93.58 106.799l-21.801 5.382 3.473 22.433c.947 5.267 2.024 22.261-5.497 31.332-4.65 5.554-13.29 8.41-25.562 8.41-15.817 0-27.141-4.147-29.495-10.764-1.45-4.09.344-8.296 1.406-9.186l37.892-17.783-32.394-24.27c-3.76-2.526-92.46-61.329-192.815-1.737L0 172.692l46.747 17.424c.789.287 83.662 31.734 113.027 95.546l8.468 18.328 19.635-5.382c5.712-1.565 24.27-4.378 34.073 3.143 6.344 4.823 9.545 14.683 9.545 29.38 0 21.687-5.727 29.71-8.526 30.212-4.88.848-14.97-5.095-18.17-14.022l-14.855-41.092-26.467 34.705c-2.569 3.373-62.176 83.59-2.01 194.106l21.3 39.068 20.74-39.413c.402-.789 41.608-78.208 101.875-114.032l14.798-8.798-3.703-16.994c-1.277-5.669-3.129-24.17 4.55-33.7 4.377-5.44 12.673-8.18 24.73-8.18 24.04 0 36.269 10.147 37.718 20.236.618 4.091-.387 9.473-8.51 11.827l-49.963 14.812 43.848 28.088c3.76 2.412 92.675 58.086 188.939-2.813L600 398.46l-47.32-16.031c-.504-.173-48.599-16.822-82.916-58.258-19.29-23.266-26.567-43.446-26.625-43.675l-12.17-34.303c6.501-8.97 12.945-17.941 12.945-17.941 22.147-31.174 29.61-62.793 29.61-91.226 0-56.564-29.437-100.584-31.289-103.267L419.2 0Z"/><path d="M483.883 380.473s.949-4.743-3.793-4.743-4.27 4.067-2.508 4.61c0 0-5.488 3.726-11.652.066 0 0 6.437-2.371 8.808-7.519 0 0 5.149 1.492 5.149-3.864 0-5.351-4.199-4.132-5.082-1.691 0 0-3.727-4.879 0-11.723 0 0 3.05 5.829 7.722 8.606 0 0-1.148 4.945 3.661 4.945 4.808 0 5.488-4.605 2.507-5.488 0 0 5.489-3.524 11.379.203 0 0-3.777 1.258-6.523 4.57-1.582 1.91-2.145 3.559-2.145 3.559-.543-.945-1.492-.813-1.492-.813-2.641 0-3.59 3.59-3.59 4.61 0 1.015.949 3.387 2.778 3.387 1.828 0 2.574-2.032 2.574-2.032 3.996 5.621-.137 11.653-.137 11.653-3.727-7.59-7.656-8.336-7.656-8.336" style="fill:url(#a)" transform="matrix(14.3527 0 0 -14.3527 -6632.351 5627.605)"/></svg>