<svg xmlns="http://www.w3.org/2000/svg" width="600" height="574.108"><linearGradient id="a" x1="0" x2="1" y1="0" y2="0" gradientTransform="scale(36.4961 -36.4961)rotate(10 64.033 54.84)" gradientUnits="userSpaceOnUse" spreadMethod="pad"><stop offset="0" style="stop-color:#612c75"/><stop offset=".3" style="stop-color:#7b5190"/><stop offset=".5" style="stop-color:#bf99c3"/><stop offset=".7" style="stop-color:#7b5190"/><stop offset="1" style="stop-color:#612c75"/></linearGradient><path fill="#fff" d="M371.477 233.848c.057-6.387 8.253-24.772 16.104-24.772 8.97 0 14.625 13.678 14.683 13.793 0 0 7.908 20.065 12.328 31.274-7.176 10.937-14.18 21.644-14.453 22.032h-.904c-18.386 0-27.701-35.15-27.759-42.327m29.725-197.177c-46.259 94.24-93.135 106.698-93.58 106.799l-21.801 5.382 3.473 22.433c.947 5.267 2.024 22.261-5.497 31.332-4.708 5.554-13.29 8.41-25.562 8.41-15.817 0-27.141-4.147-29.495-10.764-1.45-4.09.344-8.296 1.406-9.186l37.892-17.783-32.394-24.27c-3.76-2.526-92.46-61.329-192.815-1.737L0 172.692l46.704 17.424c.832.287 83.705 31.734 113.07 95.546l8.468 18.328 19.635-5.382c5.712-1.565 24.27-4.378 34.073 3.143 6.344 4.823 9.545 14.683 9.545 29.38 0 21.687-5.727 29.71-8.526 30.212-4.88.848-14.97-5.095-18.17-14.022L190 306.229l-26.524 34.705c-2.569 3.373-62.176 83.59-2.01 194.106l21.3 39.068 20.74-39.413c.402-.789 41.608-78.208 101.875-114.032l14.798-8.798-3.703-16.994c-1.277-5.669-3.129-24.17 4.55-33.7 4.377-5.44 12.673-8.18 24.73-8.18 24.04 0 36.269 10.147 37.718 20.236.56 4.091-.387 9.473-8.51 11.827l-49.963 14.812 43.848 28.088c3.76 2.412 92.675 58.086 188.939-2.813L600 398.46l-47.32-16.031c-.504-.173-48.656-16.822-82.916-58.258-19.29-23.266-26.567-43.446-26.625-43.675l-12.17-34.303c6.501-8.97 12.945-17.941 12.945-17.941 22.147-31.174 29.61-62.793 29.61-91.226 0-56.564-29.437-100.584-31.289-103.267L419.2 0Z"/><path d="M401.883 380.473s.949-4.743-3.793-4.743-4.27 4.067-2.508 4.61c0 0-5.484 3.726-11.652.066 0 0 6.437-2.371 8.808-7.519 0 0 5.149 1.492 5.149-3.864 0-5.351-4.199-4.132-5.082-1.691 0 0-3.727-4.879 0-11.723 0 0 3.05 5.829 7.722 8.606 0 0-1.148 4.945 3.661 4.945 4.808 0 5.488-4.605 2.503-5.488 0 0 5.493-3.524 11.383.203 0 0-3.777 1.258-6.527 4.57-1.578 1.91-2.141 3.559-2.141 3.559-.547-.945-1.492-.813-1.492-.813-2.641 0-3.594 3.59-3.594 4.61 0 1.015.953 3.387 2.782 3.387 1.828 0 2.574-2.032 2.574-2.032 3.996 5.621-.137 11.653-.137 11.653-3.727-7.59-7.656-8.336-7.656-8.336" style="fill:url(#a)" transform="matrix(14.3527 0 0 -14.3527 -5455.43 5627.605)"/></svg>