<?xml version="1.0" encoding="UTF-8" standalone="no"?>
<svg
   version="1.1"
   id="Layer_1"
   x="0px"
   y="0px"
   width="188.30859"
   height="266.92773"
   viewBox="0 0 188.30859 266.92773"
   xmlns="http://www.w3.org/2000/svg"
   xmlns:svg="http://www.w3.org/2000/svg">
  <defs
     id="defs1" />
  <path
     d="M 109.06055,0 14.09961,50.77539 0,151.40625 79.173828,201.15235 174.17383,150.41407 188.3086,49.74414 Z m -6.07227,27.917968 c 19.582,-0.018 36.99256,7.618782 49.10156,21.550782 12.183,14.061 17.37233,32.685172 14.61133,52.45118 -5.483,39.329 -41.99697,71.29492 -81.417971,71.29492 -19.580996,0.037 -37.063605,-7.65414 -49.099605,-21.49414 -12.183,-14.061 -17.429391,-32.70417 -14.650391,-52.451174 5.503,-39.330005 42.035078,-71.370567 81.455077,-71.351568 z m 0,19.175782 c -30.217998,0.019 -58.19278,24.587531 -62.42578,54.76953 -2.006,14.189 1.621047,27.43958 10.123047,37.26758 8.392,9.607 20.647656,14.92468 34.597652,14.88868 30.183001,0.019 58.155791,-24.54943 62.425791,-54.732434 1.951,-14.226 -1.6551,-27.440419 -10.1211,-37.232419 -8.429,-9.607 -20.68561,-14.960937 -34.59961,-14.960937 z m 40.23047,135.76563 -64.597656,34.52539 -45.033203,-28.26953 c 0.387,15.312 1.528469,30.66122 4.730469,44.57422 l 57.529299,33.23828 52.119141,-39.90039 c -1.841,-6.994 -4.38005,-22.12097 -4.74805,-44.16797 z"
     id="path1" />
</svg>
