<?xml version="1.0" encoding="UTF-8" standalone="no"?>
<svg
   version="1.1"
   width="556.61688"
   height="466.86096"
   id="svg1"
   xmlns="http://www.w3.org/2000/svg"
   xmlns:svg="http://www.w3.org/2000/svg">
  <defs
     id="defs1" />
  <path
     d="m 158.98702,0 c 0,0 -29.35742,3.18994 -29.35742,33.59375 L 20.492879,63.996093 c 0,0 -27.2661441,10.513329 -18.8964841,46.199217 L 91.852249,446.95898 c 0,0 18.894631,25.21109 40.916021,18.88281 l 145.57617,-40.02343 145.53711,40.02343 c 22.02139,6.32828 40.91797,-18.88281 40.91797,-18.88281 L 555.00265,110.19531 C 563.42334,74.509422 536.15694,63.996093 536.15694,63.996093 L 427.02022,33.59375 C 427.02022,3.18994 397.61202,0 397.61202,0 Z m 0.94531,12.617187 h 236.73633 c 1.39069,0.24241 5.62595,1.187997 9.56836,3.841797 5.57553,3.72552 8.16602,9.160626 8.16602,17.134766 v 9.568359 c 0,0 115.83539,32.304893 117.51953,32.751953 2.99828,1.39069 12.12109,6.875332 12.12109,21.369142 0,2.947236 -0.40988,6.240226 -1.25195,9.978506 -0.1531,0.54862 -88.00841,328.48356 -89.46289,333.76563 -3.87862,4.38897 -15.24735,15.79436 -26.01563,12.75781 L 278.34444,412.76562 129.33663,453.78515 c -10.76828,3.03655 -22.18804,-8.36884 -26.01562,-12.75781 -1.4545,-5.28207 -89.309797,-333.2165 -89.462897,-333.76563 -0.84207,-3.73828 -1.25,-7.03127 -1.25,-9.978506 0,-14.49381 9.071784,-19.978452 12.121094,-21.369142 1.68414,-0.44655 117.466803,-32.751953 117.466803,-32.751953 V 33.59375 c 0,-7.97414 2.59024,-13.409246 8.21679,-17.134766 3.94242,-2.6538 8.17987,-3.598877 9.51953,-3.841797 z m 1.44141,15.744141 c 0,0 -4.92578,2.092514 -4.92578,6.277344 V 382.96289 c 0,0 9.4e-4,6.97851 4.92578,6.97851 h 234.29883 c 0,0 5.57617,-1.39024 5.57617,-6.97851 V 34.638672 c 0,0 -0.68961,-6.277344 -5.57617,-6.277344 z M 417.0046,59.8125 v 323.85156 c 0,0 -2.84558,20.97461 -19.59766,20.97461 h -90.94336 l 121.70508,33.59375 c 0,0 7.01806,3.4971 10.46289,-4.1836 l 89.55274,-332.27343 c 0,0 3.49492,-10.461716 -4.92578,-13.255856 z M 139.69601,60.513672 33.340535,89.220704 c -8.42069,2.78138 -4.886718,13.255856 -4.886718,13.255856 L 117.96749,434.75 c 3.53414,7.66793 10.51367,4.18359 10.51367,4.18359 l 121.70508,-33.54102 h -90.90625 c -16.84139,0 -19.58399,-21.03906 -19.58398,-21.03906 z"
     id="path1" />
</svg>
