<?xml version="1.0" encoding="UTF-8" standalone="no"?>
<svg
   version="1.1"
   width="600"
   height="509.12177"
   id="svg7"
   xmlns="http://www.w3.org/2000/svg"
   xmlns:svg="http://www.w3.org/2000/svg">
  <defs
     id="defs7" />
  <path
     d="M 147.55622,509.12176 H 100.08061 V 234.92151 l 22.61774,-63.38566 18.85023,-19.89394 H 97.000424 L 78.404752,127.33135 44.789987,103.619 0,0 h 600 l -44.8409,103.72083 -33.80568,23.86508 -19.04116,24.056 h -43.91175 l 18.95206,19.94485 22.56682,59.60543 v 94.62028 l -47.83199,24.85787 h -9.44421 l -41.81162,26.65252 -48.12474,25.06152 h -18.79932 l -42.40984,31.87102 -48.62113,25.30336 h -18.95206 l -42.44803,31.92193 z"
     style="fill:#808080"
     id="path1" />
  <path
     d="m 486.94951,122.3165 h -64.78574 c -2.29105,-4.97667 -3.93297,-8.60416 -3.93297,-8.60416 H 181.7692 c 0,0 -1.74374,3.78023 -3.93297,8.60416 H 113.1014 l -11.53161,-14.47179 22.82139,-23.36869 h 351.21764 l 22.82139,23.36869 z m -53.69962,45.3882 19.19389,20.23759 H 147.55622 l 19.14297,-20.23759 z m -47.43742,184.40391 v -84.71786 l 9.59695,-12.82987 H 424.493 l 9.59694,12.82987 0.0509,53.99236 -48.32839,30.7255 z M 275.79126,409.34662 V 267.39075 l 9.59695,-12.82987 h 29.08358 l 9.59694,12.82987 0.0509,105.65549 -48.32838,36.30038 z M 165.80823,466.57191 V 267.39075 l 9.59695,-12.82987 h 29.03266 l 9.64786,12.82987 0.0509,162.82986 -48.32838,36.3513 z M 31.514637,20.73398 l 29.987272,69.31693 31.463725,22.27407 14.268136,18.58295 h 66.68222 l -14.47178,31.92193 -18.83751,19.94485 -19.79211,52.1468 v 253.51718 h 21.67586 l 27.88715,-14.50997 46.63555,-35.05304 h 20.83581 l 42.56258,-22.17225 46.58464,-35.00212 h 20.63216 l 42.80441,-22.32499 46.19008,-29.38905 h 10.39881 l 32.16377,-16.75011 v -78.26474 l -19.7412,-52.1468 -18.88842,-19.94484 -14.47178,-31.97285 h 66.22401 L 507.03437,112.32498 538.49809,90.14 568.48536,20.73398 Z"
     id="path2" />
  <path
     d="m 424.493,254.56088 h -29.08358 l -9.59695,12.82987 v 84.71786 l 48.32839,-30.7255 -0.0509,-53.99236 -9.59694,-12.82987 z"
     style="fill:#808080"
     id="path3" />
  <path
     d="m 204.43784,254.56088 h -29.03266 l -9.59695,12.82987 v 199.18116 l 48.32838,-36.3513 -0.0509,-162.82986 -9.64786,-12.82987 z"
     style="fill:#808080"
     id="path4" />
  <path
     d="m 314.47179,254.56088 h -29.0454 l -9.63513,12.82987 v 141.95587 l 48.32838,-36.30038 -0.0509,-105.65549 -9.59694,-12.82987 z"
     style="fill:#808080"
     id="path5" />
  <path
     d="M 147.55622,187.94229 H 452.44378 L 433.24989,167.7047 h -266.5507 z"
     style="fill:#808080"
     id="path6" />
  <path
     d="m 124.39118,84.47602 -22.82139,23.36869 11.4807,14.47179 h 64.78574 c 2.18923,-4.82393 3.93297,-8.60416 3.93297,-8.60416 h 236.4616 c 0,0 1.64192,3.62749 3.93297,8.60416 h 64.78574 l 11.4807,-14.47179 -22.82139,-23.36869 z"
     style="fill:#808080"
     id="path7" />
</svg>
