<?xml version="1.0" encoding="UTF-8" standalone="no"?>
<svg
   version="1.1"
   width="536.9707"
   height="467.70471"
   id="svg1"
   xmlns="http://www.w3.org/2000/svg"
   xmlns:svg="http://www.w3.org/2000/svg">
  <defs
     id="defs1" />
  <path
     d="m 455.43487,101.58252 h -64.78574 c -2.29105,-4.97667 -3.93297,-8.60416 -3.93297,-8.60416 h -236.4616 c 0,0 -1.74374,3.78023 -3.93297,8.60416 H 81.586763 L 70.055153,87.11073 92.876543,63.74204 H 444.09418 l 22.82139,23.36869 z m -53.69962,45.3882 19.19389,20.23759 H 116.04158 l 19.14297,-20.23759 z m -47.43742,184.40391 v -84.71786 l 9.59695,-12.82987 h 29.08358 l 9.59694,12.82987 0.0509,53.99236 -48.32839,30.7255 z M 244.27662,388.61264 V 246.65677 l 9.59695,-12.82987 h 29.08358 l 9.59694,12.82987 0.0509,105.65549 -48.32838,36.30038 z M 134.29359,445.83793 V 246.65677 l 9.59695,-12.82987 h 29.03266 l 9.64786,12.82987 0.0509,162.82986 -48.32838,36.3513 z M 0,0 29.987272,69.31693 61.450997,91.591 75.719133,110.17395 h 66.682217 l -14.47178,31.92193 -18.83751,19.94485 -19.792107,52.1468 v 253.51718 h 21.675857 l 27.88715,-14.50997 46.63555,-35.05304 h 20.83581 l 42.56258,-22.17225 46.58464,-35.00212 h 20.63216 l 42.80441,-22.32499 46.19008,-29.38905 H 415.507 l 32.16377,-16.75011 v -78.26474 l -19.7412,-52.1468 -18.88842,-19.94484 -14.47178,-31.97285 h 66.22401 L 475.51973,91.591 506.98345,69.40602 536.97072,0 Z"
     id="path1" />
</svg>
