<?xml version="1.0" encoding="UTF-8" standalone="no"?>
<svg
   version="1.1"
   id="svg2"
   width="198.66344"
   height="250.4082"
   viewBox="0 0 198.66344 250.4082"
   xmlns="http://www.w3.org/2000/svg"
   xmlns:svg="http://www.w3.org/2000/svg">
  <defs
     id="defs1" />
  <path
     d="M 25.557305,0 80.381523,161.4082 H 118.29363 L 173.10613,0 Z M 21.799492,27.458984 C 13.403042,47.479248 7.3194899,68.971612 3.7545699,89.982422 l 56.6191411,65.914058 4.535156,-2.43945 z m 155.564448,0 -43.60937,125.998046 4.5332,2.43945 56.62109,-65.914058 C 191.34394,68.971612 185.76039,47.479248 177.36394,27.458984 Z M 1.7487106,101.72266 c -2.59048989,10.94417 -1.95122936,21.73422 -0.3496094,33.56836 l 39.9785158,38.0625 V 161.4082 h 8.447266 z m 195.1660094,0 -48.07617,59.68554 h 8.44531 v 11.94532 l 39.98047,-38.0625 c 1.60162,-11.83414 2.24088,-22.62419 -0.34961,-33.56836 z M 2.7252731,147.16016 c -1.1718,24.96532 8.6984019,42.82019 11.1445319,48.56054 0,0 27.662526,21.18993 57.480468,29.38868 1.844271,0.49161 3.709651,0.97589 5.650391,1.38281 0.11164,0.0239 0.224277,0.0527 0.335938,0.0762 -0.04911,0.58118 -0.07761,1.16286 -0.08008,1.74609 l -0.002,0.0176 c 4.5e-5,6.09669 2.473151,11.61624 6.46875,15.61133 1.747596,1.74737 3.785596,3.20416 6.03711,4.28906 0,0 0.002,0 0.002,0 0.642907,0.30972 1.302833,0.58854 1.978515,0.83594 0,0 0.002,0 0.002,0 0.337557,0.12356 0.678392,0.24033 1.023437,0.34766 0,0 0.002,0 0.002,0 0.345052,0.10729 0.692844,0.20628 1.044922,0.29687 0.0012,3.1e-4 0.0027,-3.1e-4 0.0039,0 0.351488,0.0904 0.706423,0.17478 1.064453,0.24805 0.0012,2.5e-4 0.0027,-2.6e-4 0.0039,0 0.358048,0.0732 0.719852,0.13772 1.083984,0.19336 0,0 0.002,0 0.002,0 0.364778,0.0557 0.73114,0.103 1.101563,0.14062 0.0013,1.3e-4 0.0026,-1.3e-4 0.0039,0 0.369802,0.0375 0.74222,0.065 1.117187,0.084 0.377558,0.0192 0.758294,0.0293 1.140625,0.0293 2.284642,-4.1e-4 4.487922,-0.34752 6.560542,-0.99218 0.69193,-0.21509 1.3684,-0.46272 2.0293,-0.74219 0,0 0.002,0 0.002,0 0.65976,-0.27906 1.30261,-0.59016 1.92774,-0.92969 0,0 0.002,0 0.002,0 0.62513,-0.33959 1.23155,-0.70909 1.81836,-1.10547 0.88124,-0.59535 1.71756,-1.25182 2.50195,-1.96484 4.44318,-4.03836 7.23433,-9.86461 7.23438,-16.3418 l -0.006,-0.0352 c -0.003,-0.57734 -0.0276,-1.15321 -0.0762,-1.72852 0.11167,-0.0235 0.22235,-0.0523 0.33399,-0.0762 1.94074,-0.40692 3.80807,-0.8912 5.65234,-1.38281 29.81794,-8.19875 57.48047,-29.38868 57.48047,-29.38868 2.44614,-5.74035 12.31438,-23.59522 11.14258,-48.56054 l -31.49219,30.20312 v 10.73438 c -14.72702,13.0845 -29.05015,25.32625 -44.06054,33.60156 -2.89459,-9.1898 -11.41691,-15.44136 -21.052735,-15.44336 h -0.002 c -9.635841,0.002 -18.15619,6.25356 -21.050781,15.44336 -15.0104,-8.27531 -29.333528,-20.51706 -44.060547,-33.60156 v -10.73438 z"
     id="path1" />
</svg>
