<?xml version="1.0" encoding="UTF-8"?>
<svg id="Layer_2" data-name="Layer 2" xmlns="http://www.w3.org/2000/svg" viewBox="0 0 717 424.86">
  <defs>
    <style>
      .cls-1 {
        stroke-width: 0px;
      }
    </style>
  </defs>
  <g id="Layer_1-2" data-name="Layer 1">
    <path class="cls-1" d="M261.94,0c-54.67,28.13-94.41,78.64-108.89,138.4,7.44,4.52,44.17,26.84,65.7,39.91,4.42,2.69,11.25,12.12,11.25,18.51v32.52l128.5,84.45,128.5-84.45v-32.52c0-6.39,6.83-15.82,11.25-18.51,21.52-13.08,58.26-35.39,65.7-39.91C549.47,78.64,509.73,28.13,455.06,0c.6,4.26.92,8.56.96,12.86,0,53.86-43.66,97.52-97.52,97.52s-97.52-43.66-97.52-97.52c.04-4.3.36-8.6.96-12.86h0Z"/>
    <path class="cls-1" d="M127.93,115.03C85.53,142.39,42.6,167.6,0,188.36c123.75,59.16,285.44,171.36,358.5,236.5,73.06-65.14,234.75-177.34,358.5-236.5-42.6-20.76-85.53-45.97-127.93-73.33,3.53,10.73,6.3,21.7,8.29,32.81.01,3.09-1.5,5.25-4.12,6.84l-76,46.17v44l-158.75,104.34-158.75-104.34v-44l-76-46.17c-2.62-1.59-4.13-3.75-4.12-6.84,2-11.12,4.77-22.08,8.29-32.81Z"/>
  </g>
</svg>