<?xml version="1.0" encoding="UTF-8" standalone="no"?>
<svg
   id="Layer_2"
   data-name="Layer 2"
   viewBox="0 0 717 424.86"
   version="1.1"
   width="717"
   height="424.85999"
   xmlns="http://www.w3.org/2000/svg"
   xmlns:svg="http://www.w3.org/2000/svg">
  <defs
     id="defs1">
    <style
       id="style1">
      .cls-1 {
        stroke-width: 0px;
      }
    </style>
  </defs>
  <g
     id="Layer_1-2"
     data-name="Layer 1">
    <path
       class="cls-1"
       d="m 261.94,0 c -54.67,28.13 -94.41,78.64 -108.89,138.4 7.44,4.52 44.17,26.84 65.7,39.91 4.42,2.69 11.25,12.12 11.25,18.51 v 32.52 L 358.5,313.79 487,229.34 v -32.52 c 0,-6.39 6.83,-15.82 11.25,-18.51 21.52,-13.08 58.26,-35.39 65.7,-39.91 C 549.47,78.64 509.73,28.13 455.06,0 c 0.6,4.26 0.92,8.56 0.96,12.86 0,53.86 -43.66,97.52 -97.52,97.52 -53.86,0 -97.52,-43.66 -97.52,-97.52 0.04,-4.3 0.36,-8.6 0.96,-12.86 z"
       id="path1" />
    <path
       class="cls-1"
       d="M 127.93,115.03 C 85.53,142.39 42.6,167.6 0,188.36 123.75,247.52 285.44,359.72 358.5,424.86 431.56,359.72 593.25,247.52 717,188.36 674.4,167.6 631.47,142.39 589.07,115.03 c 3.53,10.73 6.3,21.7 8.29,32.81 0.01,3.09 -1.5,5.25 -4.12,6.84 l -76,46.17 v 44 L 358.49,349.19 199.74,244.85 v -44 l -76,-46.17 c -2.62,-1.59 -4.13,-3.75 -4.12,-6.84 2,-11.12 4.77,-22.08 8.29,-32.81 z"
       id="path2" />
  </g>
</svg>
