<svg xmlns="http://www.w3.org/2000/svg" xml:space="preserve" width="82.657" height="89.731" style="clip-rule:evenodd;fill-rule:evenodd;stroke-linejoin:round;stroke-miterlimit:2" viewBox="0 0 82.657 89.731"><path d="M1.936 33.192c3.997-7.03 8.903-10.907 14.49-11.877 5.482-.952 11.806.914 18.872 6a2.65 2.65 0 0 1 1.095 2.32l-2.921 44.728a2.646 2.646 0 0 1-3.235 2.406c-5.831-1.345-11.545-5.529-16.302-11.342C7.074 57.042 2.182 45.296 1.594 34.645a2.64 2.64 0 0 1 .342-1.453m79.131 1.453c-.588 10.651-5.48 22.397-12.341 30.782-4.756 5.813-10.471 9.997-16.302 11.342a2.644 2.644 0 0 1-3.234-2.406l-2.922-44.728a2.65 2.65 0 0 1 1.095-2.32c7.066-5.086 13.391-6.952 18.872-6 5.587.97 10.493 4.847 14.49 11.877.251.441.37.946.342 1.453"/><path d="M4.236 34.499c7.033-12.369 16.843-14.158 29.517-5.037L30.831 74.19C17.509 71.118 5.168 51.373 4.236 34.499m74.189 0C77.493 51.373 65.152 71.118 51.83 74.19l-2.922-44.728c12.674-9.121 22.484-7.332 29.517 5.037" style="fill:url(#a)"/><path d="M53.074 6.317c4.328 0 11.606-3.383 14.65-5.174L69.665 0l1.438 1.734c3.697 4.457 6.22 7.517 7.733 11.895 1.867 5.405 3.307 14.032 3.208 20.277l-.093 5.847-4.331-3.93c-1.403-1.273-2.45-1.853-3.352-1.61-1.115.301-1.548 1.699-1.548 2.706 0 1.918 1.146 3.603 2.485 4.891 1.375 1.323 2.994 2.277 4.162 2.434l3.29.442-1.165 3.109c-1.908 5.09-4.64 10.137-8.749 15.112l-2.098 2.54-2.028-2.597s-3.509-4.474-8.25-1.211c-.395.271-.661.769-.846 1.336-.38 1.171-.318 2.66.424 4.059.96 1.812 2.822 2.286 5.675 2.372l5.164.156-3.144 4.099c-3.975 5.184-18.947 13.642-25.483 15.797l-.828.273-.829-.273c-6.535-2.155-21.508-10.613-25.483-15.797l-3.143-4.099 5.163-.156c2.853-.086 4.715-.56 5.675-2.372.742-1.399.805-2.888.424-4.059-.184-.567-.451-1.065-.845-1.336-4.742-3.263-8.251 1.211-8.251 1.211l-2.028 2.597-2.098-2.54c-4.109-4.975-6.841-10.022-8.749-15.112L0 44.686l3.291-.442c1.167-.157 2.786-1.111 4.162-2.434 1.339-1.288 2.485-2.973 2.485-4.891 0-1.007-.433-2.405-1.549-2.706-.902-.243-1.949.337-3.352 1.61l-4.331 3.93-.093-5.847c-.099-6.245 1.341-14.872 3.208-20.277 1.513-4.378 4.037-7.438 7.733-11.895L12.992 0l1.941 1.143c3.045 1.791 10.323 5.174 14.65 5.174z"/><path d="M53.074 8.964c4.714 0 12.676-3.589 15.992-5.541 3.451 4.161 5.857 6.984 7.269 11.071 1.784 5.162 3.158 13.404 3.063 19.37-5.871-5.327-9.324-.348-9.324 3.055 0 5.285 5.81 9.526 8.94 9.947-1.812 4.836-4.408 9.63-8.311 14.356 0 0-5.033-6.446-11.837-1.763-2.042 1.405-3.121 5.302-1.259 8.814 1.372 2.588 3.858 3.655 7.933 3.778-3.768 4.915-18.015 12.851-24.211 14.894-6.197-2.043-20.443-9.979-24.212-14.894 4.075-.123 6.562-1.19 7.933-3.778 1.862-3.512.783-7.409-1.259-8.814-6.804-4.683-11.837 1.763-11.837 1.763-3.903-4.726-6.499-9.52-8.311-14.356 3.13-.421 8.941-4.662 8.941-9.947 0-3.403-3.454-8.382-9.325-3.055-.094-5.966 1.28-14.208 3.063-19.37 1.412-4.087 3.819-6.91 7.269-11.071 3.316 1.952 11.278 5.541 15.992 5.541z" style="fill:url(#b)"/><path d="M41.329 16.427h.002c12.142.001 22.404 5.776 25.788 14.99v9.348c-1.88 8.476-11.793 15.393-25.788 15.393h-.002c-13.996 0-23.747-6.192-25.789-15.393v-9.348c3.385-9.214 13.647-14.989 25.789-14.99m0 26.104c6.509 0 12.124-2.134 16.896-5.779-4.959-2.816-10.562-4.207-16.896-4.207s-11.938 1.391-16.897 4.207c4.773 3.645 10.388 5.779 16.897 5.779"/><path d="M41.331 30.079c-9.014 0-18.748 2.907-23.369 11.45 0 0 0-5.999.002-8.741 0-.903.269-1.785.772-2.534 5.566-8.284 12.282-11.699 22.593-11.699zm0 0 .001-11.524c10.311 0 17.027 3.415 22.593 11.699.503.749.772 1.631.772 2.534.002 2.742.002 8.741.002 8.741-4.621-8.543-14.355-11.45-23.368-11.45m0 14.909c8.249 0 14.337-3.05 18.127-7.278 0 0 3.159 3.417 3.159 5.545 0 4.568-7.407 10.573-21.286 10.573zm-.002 0v8.84c-13.88 0-21.287-6.005-21.287-10.573 0-2.128 3.159-5.545 3.159-5.545 3.79 4.228 9.878 7.278 18.128 7.278" style="fill:#fff"/><defs><linearGradient id="a" x1="0" x2="1" y1="0" y2="0" gradientTransform="translate(37.299 48.955)scale(8.05908)" gradientUnits="userSpaceOnUse"><stop offset="0" style="stop-color:#8d742f;stop-opacity:1"/><stop offset=".07" style="stop-color:#967d38;stop-opacity:1"/><stop offset=".18" style="stop-color:#ae954f;stop-opacity:1"/><stop offset=".2" style="stop-color:#b39a54;stop-opacity:1"/><stop offset=".22" style="stop-color:#b9a059;stop-opacity:1"/><stop offset=".3" style="stop-color:#cab068;stop-opacity:1"/><stop offset=".39" style="stop-color:#d4ba71;stop-opacity:1"/><stop offset=".5" style="stop-color:#d7bd74;stop-opacity:1"/><stop offset=".61" style="stop-color:#d4ba71;stop-opacity:1"/><stop offset=".7" style="stop-color:#cab068;stop-opacity:1"/><stop offset=".78" style="stop-color:#b9a059;stop-opacity:1"/><stop offset=".8" style="stop-color:#b39a54;stop-opacity:1"/><stop offset=".86" style="stop-color:#a38a45;stop-opacity:1"/><stop offset=".94" style="stop-color:#937a35;stop-opacity:1"/><stop offset="1" style="stop-color:#8d742f;stop-opacity:1"/></linearGradient><linearGradient id="b" x1="0" x2="1" y1="0" y2="0" gradientTransform="matrix(76.1484 0 0 83.5219 3.254 45.184)" gradientUnits="userSpaceOnUse"><stop offset="0" style="stop-color:#8d742f;stop-opacity:1"/><stop offset=".07" style="stop-color:#967d38;stop-opacity:1"/><stop offset=".18" style="stop-color:#ae954f;stop-opacity:1"/><stop offset=".2" style="stop-color:#b39a54;stop-opacity:1"/><stop offset=".22" style="stop-color:#b9a059;stop-opacity:1"/><stop offset=".3" style="stop-color:#cab068;stop-opacity:1"/><stop offset=".39" style="stop-color:#d4ba71;stop-opacity:1"/><stop offset=".5" style="stop-color:#d7bd74;stop-opacity:1"/><stop offset=".61" style="stop-color:#d4ba71;stop-opacity:1"/><stop offset=".7" style="stop-color:#cab068;stop-opacity:1"/><stop offset=".78" style="stop-color:#b9a059;stop-opacity:1"/><stop offset=".8" style="stop-color:#b39a54;stop-opacity:1"/><stop offset=".86" style="stop-color:#a38a45;stop-opacity:1"/><stop offset=".94" style="stop-color:#937a35;stop-opacity:1"/><stop offset="1" style="stop-color:#8d742f;stop-opacity:1"/></linearGradient></defs></svg>