<svg xmlns="http://www.w3.org/2000/svg" xml:space="preserve" width="82.657" height="89.731" style="clip-rule:evenodd;fill-rule:evenodd;stroke-linejoin:round;stroke-miterlimit:2" viewBox="0 0 82.657 89.731"><path d="M1.936 33.192c3.996-7.03 8.903-10.907 14.49-11.877 5.481-.952 11.806.914 18.872 6a2.65 2.65 0 0 1 1.095 2.32l-2.922 44.728a2.646 2.646 0 0 1-3.235 2.406c-5.83-1.345-11.545-5.529-16.302-11.342-6.86-8.385-11.752-20.131-12.34-30.782a2.64 2.64 0 0 1 .342-1.453m79.13 1.453c-.587 10.651-5.479 22.397-12.34 30.782-4.757 5.813-10.471 9.997-16.302 11.342a2.646 2.646 0 0 1-3.235-2.406l-2.921-44.728a2.64 2.64 0 0 1 1.094-2.32c7.066-5.086 13.391-6.952 18.872-6 5.588.97 10.494 4.847 14.491 11.877.251.441.369.946.341 1.453"/><path d="M4.236 34.499c7.032-12.369 16.842-14.158 29.516-5.037L30.831 74.19C17.508 71.118 5.167 51.373 4.236 34.499m74.189 0C77.493 51.373 65.152 71.118 51.83 74.19l-2.922-44.728c12.674-9.121 22.484-7.332 29.517 5.037" style="fill:url(#a)"/><path d="M53.074 6.317c4.327 0 11.605-3.383 14.65-5.174L69.665 0l1.438 1.734c3.696 4.457 6.22 7.517 7.733 11.895 1.867 5.405 3.307 14.032 3.208 20.277l-.093 5.847-4.331-3.93c-1.403-1.273-2.45-1.853-3.352-1.61-1.116.301-1.549 1.699-1.549 2.706 0 1.918 1.146 3.603 2.485 4.891 1.376 1.323 2.995 2.277 4.162 2.434l3.291.442-1.165 3.109c-1.908 5.09-4.641 10.137-8.749 15.112l-2.098 2.54-2.028-2.597s-3.509-4.474-8.251-1.211c-.394.271-.661.769-.845 1.336-.381 1.171-.318 2.66.424 4.059.96 1.812 2.822 2.286 5.675 2.372l5.163.156-3.143 4.099c-3.975 5.184-18.948 13.642-25.483 15.797l-.829.273-.828-.273c-6.536-2.155-21.508-10.613-25.483-15.797l-3.144-4.099 5.164-.156c2.852-.086 4.715-.56 5.675-2.372.742-1.399.804-2.888.424-4.059-.185-.567-.451-1.065-.846-1.336-4.741-3.263-8.251 1.211-8.251 1.211l-2.027 2.597-2.098-2.54c-4.109-4.975-6.841-10.022-8.749-15.112L0 44.686l3.29-.442c1.168-.157 2.787-1.111 4.162-2.434 1.339-1.288 2.485-2.973 2.485-4.891 0-1.007-.433-2.405-1.548-2.706-.902-.243-1.949.337-3.352 1.61l-4.331 3.93-.093-5.847c-.099-6.245 1.341-14.872 3.208-20.277 1.513-4.378 4.036-7.438 7.733-11.895L12.992 0l1.941 1.143c3.044 1.791 10.322 5.174 14.65 5.174z"/><path d="M53.074 8.964c4.714 0 12.676-3.589 15.992-5.541 3.45 4.161 5.856 6.984 7.268 11.071 1.784 5.162 3.158 13.404 3.064 19.37-5.871-5.327-9.325-.348-9.325 3.055 0 5.285 5.811 9.526 8.941 9.947-1.812 4.836-4.408 9.63-8.311 14.356 0 0-5.033-6.446-11.837-1.763-2.042 1.405-3.121 5.302-1.259 8.814 1.371 2.588 3.858 3.655 7.933 3.778-3.769 4.915-18.015 12.851-24.212 14.894-6.196-2.043-20.443-9.979-24.211-14.894 4.075-.123 6.561-1.19 7.933-3.778 1.862-3.512.783-7.409-1.259-8.814-6.804-4.683-11.837 1.763-11.837 1.763-3.903-4.726-6.499-9.52-8.311-14.356 3.13-.421 8.94-4.662 8.94-9.947 0-3.403-3.453-8.382-9.324-3.055-.095-5.966 1.279-14.208 3.063-19.37 1.412-4.087 3.818-6.91 7.269-11.071 3.316 1.952 11.278 5.541 15.992 5.541z" style="fill:url(#b)"/><path d="M41.328 16.427h.002c12.142.001 22.404 5.776 25.789 14.99v9.348c-1.881 8.476-11.793 15.393-25.789 15.393h-.002c-13.995 0-23.747-6.192-25.788-15.393v-9.348c3.384-9.214 13.646-14.989 25.788-14.99m0 26.104c6.509 0 12.124-2.134 16.897-5.779-4.959-2.816-10.562-4.207-16.897-4.207s-11.937 1.391-16.896 4.207c4.772 3.645 10.387 5.779 16.896 5.779"/><path d="M41.33 30.079c-9.014 0-18.747 2.907-23.368 11.45 0 0 0-5.999.002-8.741 0-.903.268-1.785.772-2.534 5.566-8.284 12.282-11.699 22.592-11.699zm0 0 .002-11.524c10.31 0 17.027 3.415 22.593 11.699.503.749.772 1.631.772 2.534.002 2.742.002 8.741.002 8.741-4.621-8.543-14.355-11.45-23.369-11.45m0 14.909c8.25 0 14.338-3.05 18.128-7.278 0 0 3.159 3.417 3.159 5.545 0 4.568-7.407 10.573-21.287 10.573zm-.002 0v8.84c-13.88 0-21.287-6.005-21.287-10.573 0-2.128 3.16-5.545 3.16-5.545 3.79 4.228 9.878 7.278 18.127 7.278" style="fill:#fff"/><defs><linearGradient id="a" x1="0" x2="1" y1="0" y2="0" gradientTransform="translate(37.299 48.955)scale(8.05908)" gradientUnits="userSpaceOnUse"><stop offset="0" style="stop-color:#626e77;stop-opacity:1"/><stop offset=".04" style="stop-color:#697780;stop-opacity:1"/><stop offset=".11" style="stop-color:#7d8e98;stop-opacity:1"/><stop offset=".2" style="stop-color:#9eb4c0;stop-opacity:1"/><stop offset=".2" style="stop-color:#a0b6c2;stop-opacity:1"/><stop offset=".2" style="stop-color:#a1b7c3;stop-opacity:1"/><stop offset=".29" style="stop-color:#adc6d4;stop-opacity:1"/><stop offset=".38" style="stop-color:#b5cede;stop-opacity:1"/><stop offset=".5" style="stop-color:#b7d1e1;stop-opacity:1"/><stop offset=".62" style="stop-color:#b5cede;stop-opacity:1"/><stop offset=".71" style="stop-color:#adc6d4;stop-opacity:1"/><stop offset=".8" style="stop-color:#a1b7c3;stop-opacity:1"/><stop offset=".8" style="stop-color:#a0b6c2;stop-opacity:1"/><stop offset=".85" style="stop-color:#8b9da8;stop-opacity:1"/><stop offset=".91" style="stop-color:#74838d;stop-opacity:1"/><stop offset=".96" style="stop-color:#67747d;stop-opacity:1"/><stop offset="1" style="stop-color:#626e77;stop-opacity:1"/></linearGradient><linearGradient id="b" x1="0" x2="1" y1="0" y2="0" gradientTransform="matrix(76.1484 0 0 83.5219 3.254 45.184)" gradientUnits="userSpaceOnUse"><stop offset="0" style="stop-color:#626e77;stop-opacity:1"/><stop offset=".04" style="stop-color:#697780;stop-opacity:1"/><stop offset=".11" style="stop-color:#7d8e98;stop-opacity:1"/><stop offset=".2" style="stop-color:#9eb4c0;stop-opacity:1"/><stop offset=".2" style="stop-color:#a0b6c2;stop-opacity:1"/><stop offset=".2" style="stop-color:#a1b7c3;stop-opacity:1"/><stop offset=".29" style="stop-color:#adc6d4;stop-opacity:1"/><stop offset=".38" style="stop-color:#b5cede;stop-opacity:1"/><stop offset=".5" style="stop-color:#b7d1e1;stop-opacity:1"/><stop offset=".62" style="stop-color:#b5cede;stop-opacity:1"/><stop offset=".71" style="stop-color:#adc6d4;stop-opacity:1"/><stop offset=".8" style="stop-color:#a1b7c3;stop-opacity:1"/><stop offset=".8" style="stop-color:#a0b6c2;stop-opacity:1"/><stop offset=".85" style="stop-color:#8b9da8;stop-opacity:1"/><stop offset=".91" style="stop-color:#74838d;stop-opacity:1"/><stop offset=".96" style="stop-color:#67747d;stop-opacity:1"/><stop offset="1" style="stop-color:#626e77;stop-opacity:1"/></linearGradient></defs></svg>