<svg xmlns="http://www.w3.org/2000/svg" width="978.172" height="889.305"><path d="M283.699 0C263.349 236.445 1.073 239.125.002 374.445c-.877 110.82 370.499 269.08 489.069 514.86 118.57-245.78 489.9-404.04 489.1-514.86-1.1-135.32-263.38-138-283.73-374.445-127.242 188.675 150.188 306.825 150.928 368.715.73 61.89-320.17 235.23-356.3 287.52-36.13-52.29-357.03-225.63-356.3-287.52.74-61.89 278.17-180.04 150.93-368.715m205.37 0-141.37 356.295 141.37 139.46 141.37-139.46z" style="stroke-width:30.567"/></svg>