<svg xmlns="http://www.w3.org/2000/svg" xml:space="preserve" width="131.192" height="150" viewBox="0 0 131.192 150"><path fill="#fff" d="M123.772 2.186 108.19 27.378l-20.041 7.151 5.565-31.883-9.003 2.649-9.517 17.175h-12.81c-12.438 0-24.889 1.962-37.026 5.833l-.39-1.871H0l8.36 46.336.332.221 3.882 58.986L46.73 150h27.079l42.271-21.803 7.917-58.695.679-1.03L131.192 0Z"/><path d="M63.029 64.572v50.546h-4.262V80.277l-5.241-20.056Zm-5.815 65.561-4.277 16.117h10.094v-16.117zm-2.8-9.473V91.609l-11.248 9.473v41.624l5.882 2.735 4.519-19.057h9.464v-5.726zM125.608 8.295l-5.57 58.544-51.552 78.358V82.498l7.617-7.533c2.398-2.517 5.519-5.64 8.186-6.366l25.017-8.849.312-4.786-26.907 10.042 1.238-6.747 26.065-9.409.33-5.058-25.303 8.505 2.33-12.422 23.995-8.562zm-18.927 63.26L71.1 84.74l7.844 16.255ZM48.992 40.862s6.74-2.189 14.038-2.465v-11.13c-12.606-.07-25.091 1.899-37.456 5.986l2.047 11.02 35.408 16.454V48.734Zm62.689 84.233 6.595-48.88-46.142 69.262zM72.578 45.466 68.486 59.03v18.953l9.037-10.352 10.06-57.632L73.29 35.83h-4.804v9.636zM23.807 92.343l-1.202-10.53-8.907-5.453 3.466 52.649 21.969 11.688v-38.336Zm4.865-11.752L12.698 69.925 5.712 31.207h15.371l3.11 14.995 24.069 11.993 5.9 22.396zM17.861 53.783l25.558 10.691-.823-4.388L17.507 49.56Zm1.183 9.337L45.26 74.308l-.79-4.222-25.773-10.895Z"/></svg>