<svg xmlns="http://www.w3.org/2000/svg" xml:space="preserve" width="131.192" height="149.999" viewBox="0 0 131.192 149.999"><g transform="translate(-2.008 -2.081)"><path d="m125.779 4.266-15.582 25.192-20.041 7.151 5.565-31.883-9.003 2.649-9.517 17.175h-12.81c-12.438 0-24.889 1.962-37.026 5.833l-.39-1.871H2.008l8.36 46.336.332.221 3.882 58.985 34.156 18.026h27.079l42.271-21.803 7.917-58.695.679-1.03L133.2 2.081z"/><linearGradient id="a" x1="21.834" x2="121.762" y1="19.174" y2="119.102" gradientUnits="userSpaceOnUse"><stop offset="0" style="stop-color:#bb2c26"/><stop offset=".05" style="stop-color:#be3226"/><stop offset=".116" style="stop-color:#c64225"/><stop offset=".191" style="stop-color:#d35d24"/><stop offset=".25" style="stop-color:#e07823"/><stop offset=".257" style="stop-color:#e17a23"/><stop offset=".327" style="stop-color:#ee8b1f"/><stop offset=".404" style="stop-color:#f5951e"/><stop offset=".5" style="stop-color:#f7981d"/><stop offset=".596" style="stop-color:#f5951e"/><stop offset=".673" style="stop-color:#ee8b1f"/><stop offset=".743" style="stop-color:#e17a23"/><stop offset=".75" style="stop-color:#e07823"/><stop offset=".767" style="stop-color:#db6e23"/><stop offset=".827" style="stop-color:#cd5125"/><stop offset=".886" style="stop-color:#c33d25"/><stop offset=".944" style="stop-color:#bd3026"/><stop offset="1" style="stop-color:#bb2c26"/></linearGradient><path fill="url(#a)" d="M65.038 66.652v50.546h-4.263V82.357l-5.241-20.056Zm-5.816 65.561-4.277 16.117h10.094v-16.117zm-2.8-9.473V93.689l-11.248 9.473v41.624l5.882 2.735 4.519-19.056h9.464v-5.726zm71.192-112.365-5.57 58.544-51.55 78.358V84.578l7.617-7.533c2.398-2.517 5.518-5.64 8.185-6.366l25.017-8.849.312-4.786-26.906 10.042 1.238-6.747 26.066-9.409.33-5.058-25.303 8.505 2.33-12.422 23.996-8.562zm-18.926 63.26L73.107 86.82l7.844 16.255zM51 42.942s6.74-2.189 14.038-2.465v-11.13c-12.607-.07-25.092 1.899-37.456 5.986l2.047 11.02 35.409 16.454V50.814Zm62.688 84.233 6.595-48.88-46.142 69.261zM74.586 47.546 70.494 61.11v18.953l9.037-10.352 10.06-57.632L75.298 37.91h-4.804v9.636zM25.814 94.423l-1.202-10.531-8.907-5.453 3.466 52.65 21.969 11.688v-38.336Zm4.866-11.752L14.706 72.005 7.72 33.287h15.371l3.11 14.995L50.27 60.275l5.9 22.396zM19.869 55.863l25.558 10.691-.823-4.388L19.515 51.64Zm1.183 9.337 26.216 11.188-.79-4.221-25.773-10.896Z" style="fill:url(#a)"/></g></svg>