<svg xmlns="http://www.w3.org/2000/svg" xml:space="preserve" width="131.192" height="150" viewBox="0 0 131.192 150"><g transform="translate(-1.953 -2.08)"><path d="m125.725 4.266-15.582 25.192-20.041 7.151 5.565-31.883-9.003 2.649-9.517 17.175h-12.81c-12.438 0-24.889 1.962-37.026 5.833l-.39-1.871H1.953l8.36 46.336.332.221 3.882 58.985 34.156 18.026h27.079l42.271-21.803 7.917-58.695.679-1.03 6.516-68.472z"/><linearGradient id="a" x1="21.779" x2="121.708" y1="19.173" y2="119.102" gradientUnits="userSpaceOnUse"><stop offset="0" style="stop-color:#8d742f"/><stop offset=".077" style="stop-color:#937a35"/><stop offset=".179" style="stop-color:#a38a45"/><stop offset=".25" style="stop-color:#b39a54"/><stop offset=".268" style="stop-color:#b9a059"/><stop offset=".335" style="stop-color:#cab068"/><stop offset=".409" style="stop-color:#d4ba71"/><stop offset=".5" style="stop-color:#d7bd74"/><stop offset=".591" style="stop-color:#d4ba71"/><stop offset=".665" style="stop-color:#cab068"/><stop offset=".732" style="stop-color:#b9a059"/><stop offset=".75" style="stop-color:#b39a54"/><stop offset=".753" style="stop-color:#b29953"/><stop offset=".837" style="stop-color:#9e853f"/><stop offset=".92" style="stop-color:#917833"/><stop offset="1" style="stop-color:#8d742f"/></linearGradient><path fill="url(#a)" d="M64.983 66.652v50.546H60.72V82.357l-5.241-20.056Zm-5.816 65.561L54.89 148.33h10.094v-16.117zm-2.8-9.473V93.689l-11.248 9.473v41.624l5.882 2.735 4.519-19.056h9.464v-5.726zM127.56 10.375l-5.57 58.544-51.55 78.358V84.578l7.617-7.533c2.398-2.517 5.518-5.64 8.185-6.366l25.017-8.849.312-4.786-26.907 10.042 1.238-6.747 26.066-9.409.33-5.058-25.303 8.505 2.33-12.422 23.996-8.562zm-18.926 63.26L73.053 86.82l7.844 16.255zM50.945 42.942s6.74-2.189 14.038-2.465v-11.13c-12.607-.07-25.092 1.899-37.456 5.986l2.047 11.02 35.409 16.454V50.814Zm62.689 84.233 6.595-48.88-46.142 69.261zM74.531 47.546 70.439 61.11v18.953l9.037-10.352 10.06-57.632L75.243 37.91h-4.804v9.636zM25.76 94.423l-1.202-10.531-8.907-5.453 3.466 52.65 21.969 11.688v-38.336Zm4.865-11.752L14.651 72.005 7.665 33.287h15.371l3.11 14.995 24.069 11.993 5.9 22.396zM19.814 55.863l25.558 10.691-.823-4.388L19.46 51.64Zm1.183 9.337 26.216 11.188-.79-4.221L20.65 61.271Z" style="fill:url(#a)"/></g></svg>