<svg xmlns="http://www.w3.org/2000/svg" width="119.995" height="132.915" viewBox="0 0 119.995 132.915"><path d="M70.656 26.241c-2.41 2.37-5.305 3.89-8.728 4.225l-.014 2.865c4.974.159 9.982.695 14.887 1.551 2.118.37 7.253 1.929 8.927 1.747 4.447-.482 7.274-7.497 8.952-10.968 7.372 6.185 14.578 16.653 9.524 26.445 5.54 10.417 6.854 22.72 4.402 34.198 3.297 3.014 7.344 4.808 11.384 6.593.104.358-1.552 2.417-1.922 2.852-.764.9-1.724 1.643-2.506 2.53l-4.205 3.226 7.198 6.59c-13.49 3.867-23.686 14.308-36.317 19.935-12.458 5.55-25.963 6.502-38.99 2.183-15.128-5.015-26.383-17.31-41.572-22.118-.221-.305 1.035-1.415 1.313-1.681 1.703-1.626 3.724-3.021 5.391-4.682.198-.197.344-.214.254-.58-3.5-1.862-6.659-4.801-8.634-8.258 4.027-1.801 8.128-3.53 11.385-6.59-.339-2.273-.87-4.546-1.067-6.846-.788-9.234 1.185-19.142 5.462-27.363-5.044-9.827 2.436-20.113 9.477-26.621.24.324.202.293.389.577.73 1.105 1.334 3.394 2.148 4.804 1.255 2.173 3.78 5.483 6.47 5.774 1.673.181 6.808-1.377 8.926-1.747a107 107 0 0 1 14.887-1.55l-.013-2.866c-14.238-1.7-18.368-20.647-5.97-28.15C67.34-6.909 83.553 13.557 70.657 26.241M58.982 5.84C46.398 7.21 48.364 26.432 61.29 24.917 73.43 23.494 71.53 4.474 58.982 5.84m42.294 94.113c1.252-.36 9.376-4.498 9.355-5.156-2.955-2.016-6.016-3.964-8.342-6.739 3.641-12.136 1.79-25.625-4.775-36.395 0-.408 1.337-1.808 1.647-2.351 2.596-4.53.034-10.175-3.045-13.82-1.411 1.568-2.642 3.256-4.361 4.507-5.517 4.015-9.97 1.425-15.914.395-10.823-1.876-20.661-1.907-31.49-.039-7.24 1.25-11.743 4.18-17.93-1.897-.412-.405-2.35-2.966-2.545-2.966-3.102 3.71-5.684 9.359-2.957 13.97.343.582 1.63 1.768 1.524 2.34-6.567 10.671-8.354 24.189-4.722 36.237-2.33 2.783-5.398 4.738-8.36 6.758 2.749 2.348 6.205 3.585 9.353 5.272-1.902 1.86-4.254 3.528-6.124 5.386-.228.227-.805.577-.35.84 10.398 5.157 19.21 13.123 30.003 17.491 10.844 4.39 22.178 4.689 33.237.851 11.835-4.106 21.158-12.819 32.27-18.342.457-.263-.12-.613-.349-.84-1.897-1.885-4.307-3.504-6.125-5.502m-43.018-20.07c16.093-2.327 16.346 28.529 1.846 28.701-13.686.163-14.338-26.895-1.846-28.701m.714 3.59c-4.189.713-6.268 7.421-6.176 11.08.086 3.431 2.32 9.474 6.176 10.132 5.652.965 8.336-6.602 8.224-11.08-.108-4.274-2.987-11.024-8.224-10.132m-29.826 1.13c5.047-.327 11.024 1.657 15.37 4.06l1.8-2.983c.026-.317-.18-.403-.39-.56-.8-.599-3.623-1.623-4.705-2.01-5.615-2.007-11.652-3.012-17.46-1.123l.976 3.322c1.497.003 2.919-.608 4.41-.705m49.27-1.367c-1.005.371-3.612 1.33-4.351 1.885-.952.714.858 2.782 1.41 3.541 5.753-3.06 12.987-5.395 19.447-3.122l1.308-3.553c-5.91-1.915-12.125-.855-17.814 1.249"/></svg>