<svg xmlns="http://www.w3.org/2000/svg" xmlns:xlink="http://www.w3.org/1999/xlink" width="779.297" height="557.031"><path d="m0 0 47.656 149.219H97.07l30.664 43.36 74.414 250.194 187.5 114.258 187.5-114.258 74.414-250.195 30.665-43.36h49.414L779.297 0H552.93l-15.235 45.898H241.602L226.367 0Z" style="fill:#fff"/><path id="a" d="M663.672 51.563 627.93 159.18h183.593l34.57-107.617ZM495.117 97.656l81.64 174.414 58.009-174.414Zm-3.711 22.657V528.32l79.297-238.476Zm132.227 51.757-118.36 355.47 249.024-355.47Zm94.336 74.414-91.992 131.25 32.421 69.336zM617.383 390.04l-112.89 161.132 146.679-89.453Z" style="fill:#000" transform="translate(-95.313 -30.664)"/><use xlink:href="#a" transform="matrix(-1 0 0 1 779.367 0)"/></svg>