<?xml version="1.0" encoding="UTF-8" standalone="no"?>
<svg
   version="1.1"
   width="85.917969"
   height="55.841797"
   id="svg1"
   xmlns="http://www.w3.org/2000/svg"
   xmlns:svg="http://www.w3.org/2000/svg">
  <defs
     id="defs1" />
  <g
     id="g1"
     transform="translate(-3.09375,-4.1972656)">
    <path
       d="m 31.076172,4.1972656 c -3.04518,6.2356104 -2.552316,12.0197224 0.287109,16.2441404 3.184724,4.738145 8.894383,7.585938 14.689453,7.585938 5.795066,0 11.503248,-2.847763 14.6875,-7.585938 2.839005,-4.224445 3.332369,-10.00856 0.28711,-16.2441404 3.967009,1.1730821 8.129574,2.9306429 11.835937,5.75 0.208341,7.7709714 -2.141116,13.6140414 -6.617187,17.5898434 -4.573091,4.061979 -11.438255,6.234375 -20.19336,6.234375 -8.755104,0 -15.621755,-2.172372 -20.195312,-6.234375 -4.476528,-3.975825 -6.825509,-9.818909 -6.617188,-17.5898434 3.706372,-2.819358 7.868925,-4.576918 11.835938,-5.75 z M 10.947266,24.472656 c 1.025528,3.34351 3.171781,7.68813 7.601562,11.529297 5.381934,4.666802 14.007597,8.427735 27.503906,8.427735 13.4963,0 22.121973,-3.760933 27.503907,-8.427735 4.42978,-3.841167 6.576033,-8.185787 7.601562,-11.529297 4.720327,6.040029 7.4193,11.490242 7.853516,20.03125 C 76.0783,46.397267 68.009729,56.807084 65.039062,60.039062 H 27.064453 C 24.093986,56.807213 16.027099,46.397275 3.09375,44.503906 3.527966,35.962898 6.2269375,30.512685 10.947266,24.472656 Z"
       style="fill:#000000"
       id="path1" />
  </g>
</svg>
