<svg xmlns="http://www.w3.org/2000/svg" width="600.005" height="927.823"><path d="M222.436 927.823V714.516c-57.154-13.304-108.982-41.213-148.321-80.349C26.369 586.681 0 525.612 0 462.204c0-63.351 26.369-124.42 74.115-171.907 39.34-39.135 91.149-67.137 148.34-80.442v-76.378L377.587 0v209.855c57.154 13.305 109.075 41.307 148.396 80.442 47.764 47.486 74.022 108.556 74.022 171.907 0 63.408-26.258 124.477-74.022 171.963-39.321 39.136-91.242 67.045-148.396 80.35v79.94z" style="fill:gray;stroke-width:18.5565"/><path d="M343.135 580.08V344.39c59.798 15.493 103.29 62.441 103.29 117.81 0 55.437-43.492 102.384-103.29 117.88M153.58 462.2c0-55.369 43.492-102.317 103.29-117.81v235.69c-59.798-15.496-103.29-62.443-103.29-117.88m412 0c0-112.639-96.308-206.047-222.446-223.629V75.204l-86.264 74.11v89.257C130.849 256.153 34.518 349.561 34.518 462.2c0 112.707 96.33 206.116 222.353 223.698v166.8l86.264-74.11v-92.69C469.273 668.315 565.58 574.907 565.58 462.2"/></svg>