<?xml version="1.0" encoding="UTF-8"?><svg id="Layer_2" xmlns="http://www.w3.org/2000/svg" width="206.78046" height="249.86639" viewBox="0 0 206.78046 249.86639"><defs><style>.cls-1{fill:#fff;}</style></defs><g id="Layer_1_copy_6"><path class="cls-1" d="M0,28.42736c10.02435,78.62195,25.53656,138.47559,103.67682,221.43903,74.10974-76.15851,95.84149-143.54877,103.10364-221.43903C147.93292-9.80433,58.37195-9.14582,0,28.42736ZM103.65082,236.86639C34.53656,160.3999,18.50415,103.93334,9.39026,32.45214,75.21948.59503,129.36584,1.03405,197.39026,32.45214c-6.60266,70.81598-26.7561,131.89899-93.73944,204.41425ZM163.68683,64.47637c-8.03003-32.39001-35.29004-42.12-60.01001-41.75-26.32001.40002-41.46002,7.97003-62.5,23.12,6,12.73004,29.28998,61.80005,29.28998,61.80005,0,0,11.88-9.01001,19.60004-15.35004-8.88-17.40997,2.65997-31.46997,12.15997-31.46997,7.65002,0,14.52002,1.03998,15.29004,21.26996.94995,25.02002-37.54004,34.52002-42.08002,35.5,13.76001,25.73999,19.20001,36,19.20001,36l-24.26001,21.75,33.29999,35.32001,32.26001-35.04999-19.65002-21.92999s1.17999-1.57001,6.48004-11.5c16.25995-3.78998,51.17999-36.29999,40.91998-77.71002ZM109.61682,154.54638l19.03998,20.88-24.56,26.69-24.87-26.41998,22.76001-21.15002s-5.5-11.10999-16.94-33.06c8.17999-3.83997,40.34003-12.07001,38.47003-41.87-1.49005-23.84003-14.16003-24.64001-21.90002-24.37-10.97003.39001-24.20001,9.94-18.92999,35.22998-6.21002,5.10004-10.52002,8.31-10.52002,8.31,0,0-18.72998-40.45996-23.54999-50.70001,16.91998-12.17999,34.07001-19.82996,55.23999-19.82996,32.35999,0,54.20001,19.32001,55.23999,45.76996,1.65002,42.04004-29.41998,60.15002-41.38,65.01001-4.25995,7.98999-8.09998,15.51001-8.09998,15.51001Z"/><path class="cls-1" d="M117.7168,139.03637c-4.25995,7.98999-8.09998,15.51001-8.09998,15.51001l19.03998,20.88-24.56,26.69-24.87-26.41998,22.76001-21.15002s-5.5-11.10999-16.94-33.06c8.17999-3.83997,40.34003-12.07001,38.47003-41.87-1.49005-23.84003-14.16003-24.64001-21.90002-24.37-10.97003.39001-24.20001,9.94-18.92999,35.22998-6.21002,5.10004-10.52002,8.31-10.52002,8.31,0,0-18.72998-40.45996-23.54999-50.70001,16.91998-12.17999,34.07001-19.82996,55.23999-19.82996,32.35999,0,54.20001,19.32001,55.23999,45.76996,1.65002,42.04004-29.41998,60.15002-41.38,65.01001Z"/><path d="M9.38684,32.45642c9.12,71.47998,25.14996,127.94,94.25995,204.40997,66.99005-72.52002,87.14001-133.59998,93.74005-204.40997C129.36682,1.03637,75.2168.59637,9.38684,32.45642ZM135.93683,175.61639l-32.26001,35.04999-33.29999-35.32001,24.26001-21.75s-5.44-10.26001-19.20001-36c4.53998-.97998,43.02997-10.47998,42.08002-35.5-.77002-20.22998-7.64001-21.26996-15.29004-21.26996-9.5,0-21.03998,14.06-12.15997,31.46997-7.72003,6.34003-19.60004,15.35004-19.60004,15.35004,0,0-23.28998-49.07001-29.28998-61.80005,21.03998-15.14996,36.17999-22.71997,62.5-23.12,24.71997-.37,51.97998,9.35999,60.01001,41.75,10.26001,41.41003-24.66003,73.92004-40.91998,77.71002-5.30005,9.92999-6.48004,11.5-6.48004,11.5l19.65002,21.92999ZM163.68292,64.47308c-8.02948-32.38611-35.28204-42.11432-60.0061-41.74268-26.31885.39563-41.45886,7.96985-62.49542,23.11615,6,12.73175,29.28198,61.7973,29.28198,61.7973,0,0,11.88556-9.00598,19.60522-15.34302-8.88568-17.41003,2.66156-31.47253,12.15546-31.47253,7.65094,0,14.52441,1.04266,15.29272,21.2652.95074,25.02582-37.53662,34.51831-42.07776,35.50153,13.76068,25.74237,19.1936,36.00458,19.1936,36.00458l-24.26068,21.74542,33.30487,35.32318,32.25525-35.05359-19.64093-21.93268s1.17072-1.56403,6.47565-11.49695c16.26215-3.78662,51.18292-36.30182,40.91614-77.71191ZM109.61432,154.5509l19.03809,20.8772-24.55353,26.68372-24.86871-26.41461,22.7561-21.14636s-5.50232-11.11462-16.93903-33.06403c8.17682-3.84143,40.33539-12.07318,38.46954-41.87195-1.49274-23.83948-14.15857-24.64026-21.89636-24.36584-10.9693.38898-24.20123,9.93292-18.93292,35.23169-6.20764,5.09583-10.52515,8.3017-10.52515,8.3017,0,0-18.72174-40.45508-23.54651-50.69299,16.91614-12.17963,34.07532-19.83124,55.24152-19.83124,32.35449,0,54.20294,19.32275,55.23865,45.76825,1.64636,42.03662-29.41461,60.14636-41.37805,65.01221-4.26581,7.98737-8.10364,15.51227-8.10364,15.51227Z"/></g></svg>