<svg xmlns="http://www.w3.org/2000/svg" xmlns:xlink="http://www.w3.org/1999/xlink" width="247.976" height="268.156"><defs><linearGradient id="a"><stop offset="0" style="stop-color:#a72029;stop-opacity:1"/><stop offset=".1" style="stop-color:#c34f25;stop-opacity:1"/><stop offset=".5" style="stop-color:#f69932;stop-opacity:1"/><stop offset=".9" style="stop-color:#c34f25;stop-opacity:1"/><stop offset="1" style="stop-color:#a72029;stop-opacity:1"/></linearGradient><linearGradient xlink:href="#a" id="b" x1="-94.045" x2="45.041" y1="338.511" y2="564.333" gradientTransform="translate(123.988 -314.125)" gradientUnits="userSpaceOnUse"/></defs><path d="M80.675 0c13.58 17.684 8.123 32.14.5 35.25s-28.983-9.387-27-33.125C54.585-.511 25.5 14.059 10.925 47-3.648 79.941-.682 102.86 3.081 118.063l8.47-15.188c10.016 62.5 27.3 75.687 43.155 96.875-.872-8.426-1.32-16.855-1.25-25.281 16.09 55.491 47.662 79.838 68.938 93.687-31.654-73.058-8.64-98.343 1.594-98.343s33.247 25.285 1.593 98.343c21.276-13.85 52.848-38.196 68.938-93.687.07 8.426-.378 16.855-1.25 25.281 15.854-21.188 33.14-34.374 43.156-96.875l8.47 15.188c3.762-15.203 6.73-38.122-7.845-71.063C222.477 14.059 193.39-.511 193.8 2.125c1.983 23.738-19.377 36.235-27 33.125s-13.079-17.566.5-35.25c-13.826 1.828-27.646 3.548-43.312 23.313C108.322 3.547 94.502 1.828 80.675 0" style="fill:#000;fill-opacity:1;stroke:none"/><path d="M98.394 15.188c-.917.063-1.408.838-1.375 2.406v.093c.131.842.26 1.688.375 2.563a127.7 127.7 0 0 1 .97 21.531c.187.937.674 1.27 1.436.969.041-.016.082-.074.125-.094.484-.366 1-.707 1.5-1.062a52 52 0 0 1 13.75-6.969c.18-.055.36-.126.531-.187 1.188-.427 1.983-1.176-.218-4.72-4.61-5.775-9.363-10.335-13.813-13.187-.024-.015-.039-.047-.062-.062a13 13 0 0 0-1.22-.719c-.795-.406-1.464-.6-2-.562m50.75 0c-.45.057-.965.258-1.563.562-.375.191-.792.437-1.218.719-.024.015-.04.047-.063.062-4.45 2.852-9.202 7.412-13.812 13.188-2.2 3.543-1.406 4.292-.22 4.718.173.062.354.133.532.188a52 52 0 0 1 13.75 6.969c.502.355 1.017.696 1.5 1.062.043.02.084.078.125.094.762.302 1.25-.032 1.438-.969a127.7 127.7 0 0 1 .968-21.531c.115-.875.244-1.721.375-2.563v-.093c.033-1.568-.458-2.343-1.375-2.407a2.3 2.3 0 0 0-.437 0m-105 3.968c-.828.098-1.8.765-3.063 2.25C30.16 34.354 19.106 50.496 11.925 76.22c-.036.135-.064.247-.094.375-1.026 4.433 1.574 4.261 3.094 2.281v-.031c17.64-22.674 37.81-29.833 58.063-3.094 2.16 2.977 3.44 3.25 4.53-.281v-.031c3.87-11.722 8.744-17.867 13.595-24.688.005-.012.025-.02.03-.031.827-1.712 3.392-4.1-1.718-3.469-16.824 2.172-31.633-6.265-42.094-25.375-.007-.013-.023-.018-.03-.031-.873-1.501-1.788-2.85-3.157-2.688zm159.187 0c-1.104.17-1.893 1.374-2.656 2.688-.007.012-.024.018-.03.03-10.46 19.11-25.27 27.548-42.095 25.376-5.11-.631-2.544 1.757-1.719 3.469.006.012.026.019.032.03 4.85 6.822 9.724 12.967 13.593 24.688v.032c1.091 3.531 2.371 3.258 4.532.28 20.251-26.738 40.423-19.58 58.062 3.095v.03c1.52 1.981 4.12 2.153 3.094-2.28-.03-.128-.058-.24-.094-.375-7.18-25.722-18.233-41.865-29.156-54.813-1.263-1.485-2.234-2.152-3.063-2.25a2 2 0 0 0-.5 0M123.988 41.75c-20.71 0-37.5 23.729-37.5 53s16.79 53 37.5 53 37.5-23.729 37.5-53-16.79-53-37.5-53m0 43.375c15.67 0 28.375 7.947 28.375 17.75s-12.704 17.75-28.375 17.75-28.375-7.947-28.375-17.75 12.704-17.75 28.375-17.75m-48.313.719c-.276 0-.658.31-1.156.937-.17.26-.356.499-.53.75-.096.136-.186.273-.283.406-9.594 13.334-25.315 16.568-45.437 14.282-4.66-.617-5.12 1.576-5.5 6.781-.004.054.004.101 0 .156-.166 18.046 10.203 39.69 18.156 55.094.033.064.061.095.094.156 2.044 3.868 2.63 2.911 2.72.625.012-.332.003-.718 0-1.094-.027-27.975 7.8-50.838 31.561-51.093q.998-.01 2.031.031c.082 0 .24.002.313 0 1.263-.04 1.433-.352 1.156-1.344-.003-.009.003-.022 0-.031-.083-.238-.142-.48-.219-.719-.044-.128-.073-.232-.125-.375-2.202-7.14-1.753-14.56-2.03-21.969l-.032.032c-.008-.35-.007-.679-.03-.969-.086-1.016-.277-1.657-.689-1.656m96.625 0c-.412 0-.603.64-.687 1.656-.024.29-.024.619-.032.969l-.03-.031c-.278 7.408.17 14.829-2.032 21.968-.05.144-.08.247-.125.375-.077.24-.136.48-.219.719-.003.01.003.022 0 .031-.277.992-.107 1.304 1.157 1.344.074.002.23 0 .312 0q1.035-.042 2.031-.031c23.763.255 31.59 23.118 31.563 51.094-.004.375-.013.762 0 1.093.09 2.286.674 3.243 2.72-.625.031-.061.06-.092.092-.156 7.953-15.403 18.322-37.048 18.156-55.094-.004-.055.004-.102 0-.156-.38-5.205-.84-7.398-5.5-6.781-20.122 2.286-35.842-.948-45.437-14.281q-.142-.201-.28-.407c-.177-.251-.36-.49-.533-.75-.498-.627-.88-.937-1.156-.937m-48.312 6.281c-5.937 0-10.75 4.813-10.75 10.75s4.813 10.75 10.75 10.75 10.75-4.813 10.75-10.75-4.813-10.75-10.75-10.75m-43.22 29.094c-.514.087-1.065.72-1.624 2-.014.033-.017.06-.03.093-2.695 6.994-4.025 13.745-19.283 23.157-2.094 1.252-1.53 4.319-.875 6.843 11.306 41.167 28.178 69.829 44.532 91.032.093.11.19.243.28.343 2.87 3.176 4.493 1.304 3.095-2.812-11.913-35.368-24.4-80.066-11.25-91.656l-.032-.031c.137-.097.257-.186.375-.282.035-.027.06-.066.094-.093.055-.046.137-.08.188-.125 1.174-1.063 1.186-2.133-.157-3.72-.15-.161-.29-.334-.437-.5-5.233-5.837-9.402-13.446-12.969-22.062-.593-1.474-1.228-2.302-1.906-2.187m86.188 0c-.584.101-1.136.898-1.656 2.187-3.566 8.616-7.736 16.225-12.969 22.063-.148.165-.287.338-.437.5-1.343 1.586-1.33 2.656-.156 3.719.05.045.133.079.187.125.035.027.06.066.094.093.12.096.238.185.375.281l-.03.032c13.15 11.59.661 56.288-11.25 91.656-1.399 4.116.224 5.988 3.092 2.812.092-.1.188-.232.282-.343 16.353-21.203 33.226-49.865 44.53-91.032.656-2.524 1.22-5.591-.874-6.843-15.258-9.411-16.588-16.163-19.28-23.156-.016-.034-.018-.061-.033-.094-.559-1.28-1.11-1.913-1.625-2a.7.7 0 0 0-.25 0" style="fill:url(#b);fill-opacity:1;stroke:none"/></svg>