<?xml version="1.0" encoding="UTF-8"?>
<svg id="Layer_2" data-name="Layer 2" xmlns="http://www.w3.org/2000/svg" viewBox="0 0 942.31 491.09">
  <defs>
    <style>
      .cls-1, .cls-2 {
        stroke-width: 0px;
      }

      .cls-2 {
        fill: #fff;
      }
    </style>
  </defs>
  <g id="Layer_1-2" data-name="Layer 1">
    <g>
      <path class="cls-1" d="m767.01,478.09c-21.72,0-44.65-1.24-68.14-3.68-23.56-2.45-46.01-6.08-66.75-10.78l-10.12-2.3v-120.19h66.61l2.17,10.33c4.69,22.31,12.33,38.88,22.71,49.27,9.67,9.68,24.72,14.58,44.71,14.58,10.55,0,20.04-1.77,28.23-5.25,7.46-3.17,13.3-8.18,17.88-15.32,4.58-7.15,6.9-16.59,6.9-28.04s-1.96-20.27-5.83-27.92c-3.96-7.83-10.62-15.54-19.8-22.92-9.93-7.98-24.18-16.69-42.35-25.88-16.7-8.35-32.08-17.19-45.66-26.25-14.08-9.38-26.3-19.91-36.33-31.3-1.75-2.01-3.41-4-4.98-5.98-14.25,22.59-35.02,39.89-61.74,51.44-25.98,11.23-58.58,16.92-96.88,16.92-14.79,0-27.87-.21-39.09-.62v86.84c0,16.11.77,23.54,1.41,26.94.9,4.77,2.21,7.3,3.15,8.59,1.24,1.71,3.27,3.26,6.02,4.61,2.44,1.2,7.59,3.01,18.24,4.82l10.82,1.84v44.7H13v-36.2l1.09-2.49c9-20.57,22.11-43.16,38.99-67.14,16.6-23.6,37.05-49.71,60.78-77.6,21.96-25.82,38.87-47.29,50.25-63.82,11.05-16.04,19.39-31.31,24.79-45.38,5.2-13.54,7.83-27.74,7.83-42.21,0-19.68-4.18-34.99-12.44-45.52-7.71-9.84-17.68-14.42-31.36-14.42-12.89,0-23.23,4.38-31.6,13.38-9.14,9.84-16.04,26.34-20.51,49.06l-2.06,10.49H19.21V55.68l8.15-3.28c25.55-10.26,45.94-17.57,60.59-21.71,14.74-4.17,29.55-7.36,43.99-9.5,14.53-2.15,30.47-3.25,47.37-3.25,32.03,0,58.8,4.47,79.57,13.29,15.15,6.43,27.55,14.67,37.06,24.59V17.95h203.33c57.68,0,101.93,10.33,131.53,30.71,8.67,6.03,16.22,13.02,22.44,20.7,14.07-18.05,33.67-32,58.34-41.5,25.59-9.86,55.45-14.86,88.75-14.86,19.07,0,37.55,1.03,54.95,3.07,17.36,2.04,37.4,5.66,59.56,10.77l10.08,2.33v114.49h-66.3l-2.4-9.96c-3.63-15.08-8.2-27.03-13.58-35.52-4.94-7.78-10.8-13.3-17.94-16.87-7.36-3.68-17.14-5.54-29.08-5.54-10.06,0-19.07,1.74-26.78,5.17-7.17,3.19-12.65,7.76-16.74,13.97-4.06,6.17-6.03,13.65-6.03,22.87,0,9.96,1.87,18.54,5.56,25.5,3.81,7.2,10.58,14.54,20.13,21.84,10.45,7.98,26.08,17.35,46.46,27.84,26.62,13.85,47.94,27.7,63.42,41.21,16.09,14.04,28.18,29.67,35.94,46.46,7.78,16.84,11.73,36.5,11.73,58.41,0,28.14-6.7,53.05-19.92,74.03-13.28,21.09-32.76,37.46-57.89,48.64-24.41,10.86-52.83,16.37-84.49,16.37Zm-441-60.52c.42-.51.79-1.06,1.11-1.65,1.48-2.76,2.47-6.63,2.95-11.49.61-6.14.92-14.11.92-23.68v-40.68l-4.98,77.5Zm-99.52-47.04c15.11,0,22.7-1.31,26.41-2.41,4.02-1.19,7.02-3.1,9.16-5.82,1.84-2.34,4.57-7.2,7.08-17.06l2.5-9.78h59.36V110.08c0-9.45-.26-17.44-.78-23.75-.49-6.02-1.74-9.38-2.7-11.14-1.1-2.01-2.87-3.68-5.41-5.09-2.53-1.41-7.42-3.57-16.34-5.82l-3.35-.84c1.5,2,2.91,4.06,4.21,6.18,9.82,15.98,14.81,34.72,14.81,55.69,0,18.06-3.44,35.15-10.23,50.8-6.57,15.14-17.87,32.39-33.59,51.25-15.26,18.31-41.12,44.67-76.88,78.35-15.59,15.19-30.36,30.73-43.9,46.2-6.01,6.86-11.34,13.08-15.98,18.63h85.65Zm247.23-138.42c19.84,0,35.53-2.61,46.62-7.75,10.15-4.7,17.48-11.98,22.4-22.24,5.35-11.15,8.06-26.9,8.06-46.82s-2.71-35.28-8.04-46.31c-4.9-10.14-11.78-17.11-21.02-21.29-10.26-4.65-23.99-7-40.83-7-8.56,0-16.04.07-22.38.2v151.21h15.17Z"/>
      <path class="cls-2" d="m800.33,26c18.65,0,36.46,1,53.43,2.99,16.97,1.99,36.36,5.5,58.15,10.53v91.15h-43.06c-3.98-16.55-9.06-29.7-15.25-39.44-6.18-9.74-13.88-16.92-23.1-21.53-9.22-4.61-20.85-6.92-34.89-6.92-11.94,0-22.63,2.1-32.06,6.29-9.43,4.19-16.87,10.43-22.32,18.7-5.45,8.28-8.17,18.28-8.17,30.02s2.36,22.68,7.07,31.59c4.71,8.91,12.62,17.6,23.73,26.09,11.11,8.49,27.24,18.18,48.4,29.07,25.77,13.41,46.05,26.56,60.82,39.44,14.77,12.89,25.67,26.93,32.69,42.12,7.02,15.19,10.53,32.84,10.53,52.96,0,25.77-5.97,48.14-17.91,67.11-11.94,18.96-29.34,33.53-52.18,43.69-22.84,10.16-49.24,15.24-79.2,15.24-21.37,0-43.64-1.2-66.79-3.61-23.15-2.41-44.89-5.92-65.22-10.53v-96.81h43.06c5.24,24.94,13.99,43.53,26.24,55.79,12.26,12.26,30.22,18.39,53.9,18.39,12.36,0,23.47-2.1,33.32-6.29,9.85-4.19,17.76-10.95,23.73-20.27,5.97-9.32,8.96-21.01,8.96-35.05,0-12.99-2.41-24.25-7.23-33.79-4.82-9.53-12.57-18.6-23.26-27.19-10.69-8.59-25.56-17.71-44.63-27.34-16.34-8.17-31.12-16.66-44.32-25.46-13.2-8.8-24.46-18.49-33.79-29.07-6.27-7.18-11.94-14.97-16.29-23.47-6,13.87-2.79,7.6-9.33,18.96-12.89,20.51-31.56,36.06-56.02,46.63-24.46,10.57-55.03,15.86-91.72,15.86-21.18,0-38.55-.42-52.09-1.26v100.48c0,13.82.55,23.6,1.64,29.36,1.09,5.76,2.89,10.36,5.41,13.82,2.51,3.45,6.11,6.33,10.81,8.64,4.69,2.3,11.96,4.29,21.78,5.96v20.72H26s0-20.48,0-20.48c8.69-19.86,21.26-41.49,37.71-64.87,16.45-23.38,36.47-48.93,60.05-76.66,22.35-26.28,39.36-47.9,51.06-64.87,11.69-16.97,20.43-33,26.22-48.11,5.79-15.1,8.69-30.72,8.69-46.86,0-22.76-5.07-40.61-15.21-53.54-10.14-12.93-24-19.4-41.59-19.4-16.55,0-30.26,5.84-41.12,17.53-10.86,11.69-18.78,30.16-23.74,55.4h-55.87v-73.25c25.24-10.14,45-17.23,59.28-21.26,14.28-4.03,28.4-7.09,42.36-9.16,13.97-2.07,29.12-3.1,45.47-3.1,30.42,0,55.24,4.09,74.49,12.26,19.24,8.17,33.16,19.24,41.75,33.21,8.59,13.97,12.88,30.26,12.88,48.88,0,16.35-3.05,31.55-9.16,45.62-6.1,14.07-16.66,30.1-31.66,48.11-15,18-40.3,43.76-75.89,77.28-15.93,15.52-30.83,31.19-44.69,47.02-13.86,15.83-24.1,28.19-30.73,37.09v3.1h110.18c13.45,0,23.48-.98,30.1-2.95,6.62-1.96,11.85-5.38,15.67-10.24,3.83-4.86,6.98-12.16,9.47-21.88h35.69l-5.76,89.63c5.69-1.4,11.14-3.54,16.44-5.99,4.7-2.41,8.19-5.76,10.48-10.05,2.29-4.29,3.77-9.73,4.42-16.33.66-6.59.98-14.92.98-24.96V110.08c0-9.84-.27-18.11-.82-24.81-.55-6.7-1.97-12.14-4.26-16.33-2.29-4.19-5.79-7.59-10.48-10.21-4.69-2.62-11.19-4.97-19.49-7.07v-20.72h190.33c55.25,0,96.64,9.47,124.16,28.42,12.59,8.76,23.28,20.27,29.86,34.21,1.99-4.47,4.75-8.54,7.49-12.57,12.78-18.02,31.27-31.69,55.48-41.02,24.2-9.32,52.23-13.99,84.08-13.99m-354.78,219.1h28.17c21.84,0,39.2-2.98,52.09-8.95,12.89-5.97,22.44-15.44,28.66-28.42,6.22-12.98,9.34-30.46,9.34-52.44s-3.11-39.09-9.34-51.97c-6.22-12.87-15.34-22.03-27.35-27.48-12.01-5.44-27.41-8.16-46.19-8.16-15.29,0-27.08.21-35.38.63v176.78M26,459.56h0M800.33,0c-34.91,0-66.34,5.29-93.42,15.73-21.54,8.3-39.6,19.79-53.92,34.26-4.51-4.29-9.43-8.29-14.71-11.96l-.05-.04-.05-.04c-16.41-11.3-36.81-19.79-60.62-25.24-22.5-5.15-48.83-7.76-78.28-7.76h-216.33v24.04c-5.83-3.58-12.16-6.81-18.97-9.71-22.7-9.64-50.39-14.33-84.65-14.33-17.54,0-34.12,1.14-49.28,3.39-15,2.22-30.35,5.54-45.62,9.85-15.31,4.33-35.56,11.57-61.9,22.15l-16.31,6.55v116.82h103.25l4.13-20.98c4.98-25.29,12.14-37.19,17.28-42.72,5.93-6.39,12.74-9.23,22.07-9.23s15.94,2.82,21.13,9.44c6.41,8.18,9.67,20.8,9.67,37.5,0,12.87-2.34,25.5-6.97,37.55-5.03,13.12-12.89,27.47-23.36,42.67-11.14,16.17-27.78,37.29-49.45,62.78-23.99,28.2-44.69,54.62-61.51,78.54-17.37,24.69-30.92,48.04-40.26,69.41l-2.18,4.98v51.92h485.18s26,0,26,0v-68.67l-21.64-3.68c-10.5-1.79-14.09-3.38-14.7-3.68-.62-.3-1.01-.55-1.24-.71-.2-.48-.55-1.5-.88-3.25-.36-1.87-1.18-8.01-1.18-24.51v-73.47c8,.16,16.71.25,26.09.25,40.09,0,74.42-6.05,102.04-17.99,23.47-10.15,42.78-24.42,57.59-42.56,9.56,9.84,20.66,18.99,33.09,27.28,14.01,9.34,29.85,18.45,47.05,27.05,17.34,8.77,30.81,16.97,40.03,24.38,7.73,6.21,13.23,12.49,16.34,18.65,2.94,5.82,4.43,13.24,4.43,22.06s-1.63,16-4.85,21.03c-3.16,4.93-6.97,8.22-12.01,10.37-6.57,2.8-14.35,4.21-23.14,4.21-16.42,0-28.37-3.62-35.52-10.77-8.57-8.57-15.03-22.96-19.19-42.75l-4.34-20.65h-90.17v143.57l20.25,4.59c21.24,4.82,44.21,8.53,68.28,11.03,23.94,2.49,47.31,3.75,69.48,3.75,33.49,0,63.69-5.88,89.77-17.49,27.52-12.25,48.92-30.28,63.61-53.59,14.54-23.09,21.91-50.33,21.91-80.96,0-23.82-4.35-45.3-12.93-63.87-8.53-18.46-21.72-35.56-39.2-50.81-16.49-14.38-38.05-28.42-65.91-42.92l-.05-.03-.05-.03c-19.7-10.14-34.68-19.1-44.52-26.62-7.94-6.06-13.65-12.15-16.54-17.59-2.69-5.08-4.05-11.61-4.05-19.42,0-6.6,1.27-11.74,3.89-15.72,2.72-4.13,6.26-7.06,11.16-9.24,6.04-2.68,13.27-4.05,21.5-4.05,9.76,0,17.81,1.44,23.26,4.17,4.96,2.48,9.14,6.47,12.77,12.2,4.62,7.28,8.63,17.91,11.92,31.6l4.79,19.92h89.55V18.83l-20.15-4.65c-22.62-5.22-43.13-8.93-60.96-11.02-17.9-2.1-36.89-3.16-56.46-3.16h0Zm-328.78,93.72c2.96-.02,6.09-.03,9.38-.03,14.97,0,26.9,1.97,35.46,5.85,6.44,2.92,11.1,7.72,14.68,15.11,3.08,6.36,6.74,18.58,6.74,40.65s-3.69,34.74-6.78,41.19c-3.61,7.53-8.74,12.64-16.15,16.07-6.44,2.98-18.82,6.54-41.16,6.54h-2.17v-125.38h0Zm-261.83,221.37c36.6-34.48,62.08-60.46,77.87-79.41,13.22-15.86,23.24-30.29,30.4-43.78v130.56h-56.45l-5,19.57c-2.3,9-4.46,11.93-4.7,12.23-.15.2-.63.8-2.64,1.39-1.9.56-7.91,1.88-22.71,1.88h-57.31c12.59-14.22,26.21-28.48,40.53-42.44h0Z"/>
    </g>
  </g>
</svg>