<svg xmlns="http://www.w3.org/2000/svg" width="937.432" height="600.424" viewBox="0 0 937.432 600.424"><path d="M52.411 71.852c11.975 42.606 39.84 86.652 81.652 104.86 16.91 7.363 33.234 9.248 50.566 9.248 6.237 0 12.605-.245 19.179-.565 3.416-.167 4.31-.218 6.6-.402l28.061 123.152c-59.073 39.053-70.953 117.787-69.053 183.704-2.756-1.552-12.327-6.593-13.91-7.58C50.649 418.875 11.71 325.032 21.43 202.363c3.509-44.29 7.775-84.567 27.796-123.821.603-1.181 1.704-3.694 3.184-6.69m5.153-55.584L34.48 62.993a224 224 0 0 0-2.314 4.856c-.284.611-.638 1.372-.76 1.615-21.357 41.873-26.183 84.246-29.913 131.32-10.72 135.299 36.196 233.579 143.43 300.455 1.335.833 3.66 2.094 9.046 4.986 2.18 1.17 4.65 2.497 5.633 3.05l30.825 17.359-1.02-35.362c-1.634-56.727 7.464-131.652 60.091-166.443l11.546-7.633-3.075-13.494-28.061-123.152-3.845-16.873-17.25 1.38c-1.987.159-2.657.2-5.98.361-5.484.268-11.936.542-18.204.542-17.636 0-30.37-2.269-42.58-7.586-37.423-16.295-60.896-58.174-70.384-91.933zm606.073 347.886q.426 0 .805.104c8.49 2.354 20.08 20.421 23.838 28.236 13.557 28.19 14.431 54.434 13.137 85.362-5.822-1.864-12.42-3.432-18.791-4.707-8.475-1.696-17.11-2.482-25.76-2.482-14.683 0-29.408 2.264-43.439 6.183 2.484-30.56 10.27-66.931 27.993-92.497 3.074-4.434 16.079-20.199 22.217-20.199m0-20c-10.992 0-19.961 7.719-26.546 14.443-5.06 5.166-9.823 11.066-12.108 14.361-21.702 31.306-29.103 72.895-31.49 102.272l-2.324 28.601 27.638-7.719c12.938-3.613 25.742-5.445 38.058-5.445 7.551 0 14.898.704 21.836 2.093 6.502 1.301 12.094 2.695 16.62 4.144l24.98 7.995 1.098-26.207c1.237-29.548 1.09-61.213-15.095-94.866-2.25-4.68-6.66-12.299-12.285-19.651-8.263-10.8-15.963-16.897-24.233-19.19a23 23 0 0 0-6.15-.83m223.28-272.296c2.495 6.28 5.038 13.414 7 20 44.173 148.235 35.07 300.154-105.975 389.017-1.886 1.188-18.553 10.539-19.516 10.974 1.951-66.566-10.093-143.782-69.055-183.705l28.461-124.894c3.624.712 14.724 2.72 16.838 3.03 7.152 1.047 13.373 1.592 19.095 1.592 16.951 0 29.499-4.789 48.678-15.497 39.748-22.193 59.714-58.773 74.473-100.517m-1.093-56.905L868.06 65.192c-16.435 46.482-35.984 73.315-65.367 89.72-17.788 9.932-26.883 12.96-38.928 12.96-4.552 0-9.85-.452-16.197-1.381-1.556-.23-12.102-2.124-15.882-2.866l-19.042-3.739-4.312 18.92-28.46 124.895-3.04 13.336 11.326 7.668c42.395 28.705 62.675 84.743 60.277 166.558l-.937 31.98 29.16-13.167c2.784-1.257 20.268-11.223 21.945-12.28 70.486-44.408 114.677-106.652 131.346-185.004 14.006-65.837 8.332-142.092-16.864-226.646-1.993-6.687-4.685-14.384-7.583-21.674zM274.88 364.368c1.289 0 2.571.43 3.615 1.304 32.007 26.794 41.828 71.03 45.921 111.176-13.702-4.017-27.613-6.086-41.49-6.086a137.3 137.3 0 0 0-46.5 8.088c-.852-39.959.408-87.433 34.926-113.301a5.9 5.9 0 0 1 3.528-1.181m0-20a26.05 26.05 0 0 0-15.522 5.176c-19.212 14.398-32.08 35.588-38.245 62.98-4.902 21.78-5.147 44.954-4.682 66.753l.592 27.77 26.15-9.369a117.5 117.5 0 0 1 39.753-6.916c11.853 0 23.919 1.776 35.863 5.278l28.541 8.368-3.017-29.589c-2.673-26.214-6.983-46.97-13.564-65.318-8.9-24.815-22.162-44.72-39.416-59.165a25.67 25.67 0 0 0-16.453-5.968M468.434 45.86l19.255 38.725 112.482 59.097c34.573-2.88 48.055-36.041 48.26-66.83l25.835 38.66 2.215 3.708-42.051 185.895c-45.422 23.055-70.238 76.724-80.698 124.548-3.966 18.135-4.393 34.515-6.315 52.685-.469 4.425-1.472 18.235-2.748 21.252-1.294 3.06-12.985 8.925-16.564 11.437-22.089 15.5-42.14 32.788-59.184 53.785-15.373-18.673-31.86-35.718-52.185-48.784-4.289-2.757-23.572-13.752-23.742-16.258-.282-4.129-1.012-16.885-1.583-23.417-5.654-64.6-26.511-142.745-87.999-175.249l-40.96-186.717 26.96-41.544c1.153 26.634 7.198 51.265 33.338 63.171 4.915 2.238 8.181 3.707 11.988 3.707 2.356 0 4.92-.563 8.208-1.853l107.207-57.293zM467.967 0l-17.618 37.323-15.456 32.742-100.017 53.45c-1.049-.422-2.607-1.132-3.835-1.691-14.434-6.574-20.504-19.425-21.648-45.836l-2.707-62.495-34.051 52.474-26.959 41.544-4.549 7.01 1.791 8.163 40.96 186.717 1.988 9.06 8.2 4.336c55.01 29.08 72.466 102.685 77.422 159.31.391 4.469.89 12.49 1.22 17.8.138 2.208.253 4.06.333 5.233.76 11.141 9.535 16.966 15.943 21.219 4.29 2.847 9.357 5.904 13.057 8.136 1.583.956 3.22 1.943 3.881 2.368 15.84 10.183 30.508 23.96 47.56 44.672l15.55 18.889 15.419-18.997c14.366-17.7 32.404-34.06 55.144-50.018.501-.34 2.23-1.352 3.494-2.092 8.858-5.185 16.508-9.663 20.002-17.926 1.894-4.479 2.666-10.06 3.895-23.537.126-1.386.233-2.572.32-3.4.569-5.366 1.007-10.538 1.431-15.54 1.015-11.966 1.974-23.27 4.534-34.976 5.574-25.485 23.574-87.316 70.212-110.988l8.381-4.254 2.074-9.167 42.051-185.895 1.765-7.803-4.102-6.867-2.216-3.709-.26-.434-.28-.42-25.835-38.66-36.195-54.162-.433 65.142c-.088 13.122-3.02 25.02-8.26 33.505-4.222 6.838-9.548 10.957-16.517 12.695L502.717 69.889l-16.375-32.933zm36.798 371.43c-.07-2.49 0-5.348-.105-8.037-.36-9.213.232-50.755 1.285-56.8l111.75-143.739c-4.64 15.459-13.092 29.038-16.524 44.965-6.517 30.242-8.178 61.733-15.043 91.957l-78.415 69.585zm11.94-61.076v37.5l57.808-49.693 13.206-78.796-2.101.129zm-88.001 60.498-80.42-71.076c-6.83-30.234-8.526-61.708-15.044-91.957-3.446-15.992-11.525-29.08-16.541-44.45q0-.002.002-.001l27.963 34.028 84.041 108.957v64.498zm-11.998-24.001v-39.497a12100 12100 0 0 1-27.003-35.004c-11.688-15.192-26.97-38.588-40.019-51.975-.76-.78-1.994-2.648-2.993-1.007l13.207 78.793 56.806 48.69q.001.002.002 0"/></svg>