<svg xmlns="http://www.w3.org/2000/svg" width="600" height="600"><path d="M0 300.03c0 80.108 31.23 155.46 87.885 212.136C144.555 568.826 219.9 600 300 600c80.16 0 155.505-31.173 212.115-87.834C568.77 455.491 600 380.138 600 300.03s-31.23-155.4-87.945-212.121C455.325 31.233 380.04 0 300 0 134.595 0 0 134.548 0 300.03" style="fill:gray"/><path d="M166.695 267.627c-1.23 7.26-1.815 14.716-1.815 22.262 0 14.476 2.235 28.548 6.57 41.9l29.175-11.717a103.7 103.7 0 0 1-5.565-33.513c0-3.81.24-7.561.644-11.251zm29.655-64.402c-12.42 14.882-21.735 32.464-26.895 51.74l28.245 8.326a103 103 0 0 1 20.265-41.599zm29.175 10.141c13.95-13.891 31.815-23.792 51.855-27.947l-11.25-26.373c-23.37 6.03-44.295 18.227-60.99 34.683zM176.01 343.984c6.69 15.287 16.23 29.358 28.425 41.495a139 139 0 0 0 27.015 21.032l16.575-29.778a103.62 103.62 0 0 1-43.53-46.925zm67.92 69.022c17.4 7.921 36.39 12.077 56.07 12.077q3.69 0 7.38-.18l-4.455-35.149c-1.515.06-3.045.06-4.62.06-13.605 0-26.61-2.64-38.505-7.44zm75.405 10.726c26.25-3.75 50.685-15.061 70.665-32.928l-24.9-25.427c-14.175 12-31.65 20.207-50.805 23.252zm78.75-40.774c16.29-17.116 27.54-37.803 33.105-60.246l-34.395-5.04c-4.92 15.766-13.59 29.883-24.9 41.374zm35.28-70.792c1.17-7.276 1.815-14.716 1.815-22.277 0-19.502-4.17-38.089-11.67-54.905L395.685 252.1a103.3 103.3 0 0 1 5.91 34.459c0 7.725-.87 15.226-2.46 22.502zM417.3 222.862c-13.065-22.922-32.685-41.554-56.31-53.57l-14.415 25.968c19.35 10.2 34.995 26.372 44.595 45.994zm-66.33-58.13c-15.75-6.451-32.925-9.962-50.97-9.962-7.38 0-14.7.585-21.795 1.756l10.245 27.242c3.285-.285 6.57-.465 9.855-.465 14.295 0 27.885 2.865 40.245 8.146zM57.3 238.733a250 250 0 0 0-4.92 49.52c0 29.658 5.1 58.536 15 85.613l89.535-36.333c-4.695-14.642-7.215-30.123-7.215-45.935 0-9.436.944-18.692 2.64-27.723zm53.145-110.336c-22.665 27.063-39.72 59.06-49.275 94.044l94.275 28.248c6.105-21.212 16.755-40.429 30.885-56.6zm84.795 56.315c18.27-17.641 41.07-30.648 66.375-37.158L221.655 52.1c-38.25 12.946-72.3 34.984-99.72 63.517zM75.18 392.74c12.18 26.373 29.055 50.69 50.205 71.842 15.645 15.647 32.94 28.953 51.63 39.664l46.875-83.963a150 150 0 0 1-30.645-23.612c-13.485-13.487-24.03-29.133-31.41-46.19zm116.895 119.607c33.69 16.517 71.01 25.248 109.62 25.248 6.39 0 12.78-.225 19.11-.706l-11.73-97.03c-3.57.225-7.14.345-10.77.345-21.63 0-42.6-4.636-61.71-13.367zM335.1 535.434c50.265-6.751 97.035-28.548 134.88-63.172l-70.785-71.557c-21.855 20.282-48.87 33.288-77.985 37.744zm147.015-75.128c32.34-33.873 54.075-75.247 63.51-120.132l-102.36-15.707c-5.625 25.203-17.82 48.47-35.625 67.807zm66.555-137.414a260 260 0 0 0 2.34-34.638c0-41.6-10.245-80.873-28.29-115.317l-89.475 56.36c8.79 18.933 13.65 40.025 13.65 62.302 0 7.32-.524 14.582-1.53 21.677zm-35.325-166.306c-23.325-37.384-56.31-68.212-95.4-88.9l-51.33 91.945c24.915 12.946 45.765 32.748 59.955 56.96zM400.32 59.24c-30.24-13.126-63.585-20.387-98.625-20.387-22.26 0-43.83 2.925-64.335 8.446l36.855 97.614c7.86-1.29 15.885-1.935 24.09-1.935 20.385 0 39.84 4.17 57.54 11.611zM300 28.773c72.3 0 140.385 28.308 191.655 79.583S571.17 227.663 571.17 299.97c0 72.427-28.185 140.579-79.455 191.794-51.15 51.23-119.295 79.403-191.715 79.403s-140.505-28.173-191.715-79.403C57.075 440.49 28.89 372.397 28.89 299.97 28.89 150.435 150.465 28.773 300 28.773"/></svg>