<svg xmlns="http://www.w3.org/2000/svg" xmlns:xlink="http://www.w3.org/1999/xlink" width="600" height="600"><radialGradient id="a" cx="0" cy="0" r="1" fx="0" fy="0" gradientTransform="matrix(17.77637 0 0 -17.77637 219.249 259.304)" gradientUnits="userSpaceOnUse" spreadMethod="pad"><stop offset="0" style="stop-color:#ebd491"/><stop offset=".7" style="stop-color:#d2bb7b"/><stop offset="1" style="stop-color:#8b723c"/></radialGradient><radialGradient xlink:href="#a" id="b" cx="0" cy="0" r="1" fx="0" fy="0" gradientTransform="matrix(266.64551 0 0 266.67217 299.985 299.99)" gradientUnits="userSpaceOnUse" spreadMethod="pad"/><path d="M0 300.03c0 80.108 31.17 155.46 87.885 212.136C144.555 568.826 219.84 600 300 600s155.445-31.173 212.175-87.834C568.83 455.491 600 380.138 600 300.03s-31.23-155.4-87.945-212.121C455.325 31.233 380.04 0 300 0 134.595 0 0 134.548 0 300.03" style="fill:#fff"/><path d="M166.635 267.627c-1.17 7.26-1.755 14.716-1.755 22.262 0 14.476 2.175 28.548 6.51 41.9l29.235-11.717c-3.63-10.486-5.565-21.737-5.565-33.513 0-3.81.18-7.561.644-11.251zm29.715-64.402c-12.48 14.882-21.795 32.464-26.895 51.74l28.245 8.326a103 103 0 0 1 20.265-41.599zm29.175 10.141c13.95-13.891 31.815-23.792 51.855-27.947l-11.25-26.373c-23.37 6.03-44.295 18.227-60.99 34.683zM176.01 343.984c6.69 15.287 16.23 29.358 28.425 41.495a139 139 0 0 0 27.015 21.032l16.575-29.778a103.62 103.62 0 0 1-43.53-46.925zm67.92 69.022c17.4 7.921 36.39 12.077 56.07 12.077q3.69 0 7.38-.18l-4.455-35.149c-1.515.06-3.045.06-4.62.06a103.2 103.2 0 0 1-38.565-7.44zm75.405 10.726c26.25-3.75 50.685-15.061 70.665-32.928l-24.9-25.427c-14.175 12-31.65 20.207-50.805 23.252zm78.75-40.774c16.29-17.116 27.54-37.803 33.105-60.246l-34.395-5.04c-4.92 15.766-13.59 29.883-24.9 41.374zm35.22-70.792a133.6 133.6 0 0 0 1.875-22.277c0-19.502-4.23-38.089-11.73-54.906L395.685 252.1a103.3 103.3 0 0 1 5.91 34.459c0 7.725-.87 15.226-2.46 22.502zM417.3 222.862c-13.065-22.922-32.685-41.554-56.31-53.57l-14.415 25.968c19.29 10.2 34.995 26.372 44.595 45.994zm-66.375-58.13c-15.705-6.451-32.88-9.962-50.925-9.962-7.38 0-14.7.585-21.795 1.756l10.245 27.242c3.285-.285 6.57-.465 9.855-.465 14.295 0 27.885 2.865 40.185 8.146zM57.3 238.733c-3.27 16.006-4.92 32.523-4.92 49.52 0 29.658 5.1 58.536 15 85.613l89.535-36.333c-4.74-14.642-7.215-30.123-7.215-45.935 0-9.436.944-18.692 2.64-27.723zm53.145-110.336c-22.665 27.063-39.72 59.06-49.275 94.044l94.275 28.248c6.105-21.212 16.755-40.429 30.885-56.6zm84.735 56.315c18.27-17.641 41.13-30.648 66.435-37.158L221.595 52.1c-38.19 12.947-72.24 34.984-99.66 63.517zM75.12 392.74c12.24 26.373 29.115 50.69 50.265 71.842 15.585 15.647 32.94 28.953 51.63 39.664l46.875-83.963a150 150 0 0 1-30.645-23.612c-13.485-13.487-24.09-29.133-31.41-46.19zm116.955 119.607c33.69 16.517 71.01 25.248 109.56 25.248 6.45 0 12.84-.225 19.17-.706l-11.73-97.03c-3.57.225-7.14.345-10.77.345-21.63 0-42.6-4.636-61.755-13.366zM335.1 535.434c50.265-6.751 97.035-28.548 134.88-63.172l-70.785-71.557c-21.855 20.282-48.87 33.288-77.985 37.744zm147.015-75.128c32.34-33.873 54.075-75.247 63.51-120.132l-102.36-15.707c-5.625 25.203-17.82 48.47-35.625 67.807zm66.555-137.414a260 260 0 0 0 2.34-34.638c0-41.6-10.245-80.873-28.35-115.317l-89.415 56.36c8.73 18.933 13.65 40.025 13.65 62.302 0 7.32-.524 14.582-1.575 21.677zm-35.325-166.306c-23.325-37.384-56.31-68.212-95.46-88.9l-51.27 91.945c24.915 12.946 45.765 32.748 59.895 56.96zM400.32 59.24c-30.24-13.126-63.585-20.387-98.685-20.387-22.2 0-43.77 2.925-64.275 8.446l36.855 97.614c7.8-1.29 15.885-1.935 24.09-1.935 20.385 0 39.84 4.17 57.48 11.611zM300 28.773c72.3 0 140.385 28.308 191.655 79.583 51.21 51.275 79.515 119.307 79.515 191.614 0 72.427-28.185 140.58-79.455 191.794-51.15 51.23-119.295 79.403-191.715 79.403s-140.505-28.173-191.715-79.403C57.015 440.49 28.83 372.397 28.83 299.97 28.83 150.435 150.465 28.773 300 28.773" style="fill:#8b723c"/><path d="M33.345 299.97c0 71.257 27.765 138.239 78.105 188.644 50.325 50.33 117.3 78.053 188.55 78.053 71.31 0 138.225-27.723 188.55-78.053 50.34-50.405 78.105-117.327 78.105-188.644 0-71.137-27.765-138.059-78.165-188.449C438.045 61.116 371.13 33.348 300 33.348c-147.075 0-266.655 119.607-266.655 266.622M270 146.565l-36.855-97.69-1.755-4.636 4.8-1.29c21.27-5.67 43.365-8.55 65.445-8.55 34.875 0 68.685 6.975 100.5 20.687l4.215 1.815-1.935 4.275-44.535 95.29-1.815 3.93-3.99-1.71c-17.685-7.44-36.435-11.191-55.77-11.191-7.86 0-15.705.645-23.385 1.875l-3.63.645zm-77.925 41.419-73.245-69.082-3.285-3.165 3.105-3.226c28.185-29.358 63.345-51.74 101.49-64.686l3.975-1.35 1.65 3.87 40.02 95.515 2.04 4.8-5.025 1.29c-24.15 6.15-46.47 18.572-64.455 35.989l-3.105 2.985zm230.565 30.888a145.26 145.26 0 0 0-58.065-55.266l-4.17-2.1 2.295-4.05 51.33-91.944 2.1-3.856 3.93 2.04c39.66 21.047 73.305 52.34 97.095 90.49l2.28 3.69-3.51 2.4-86.85 60.006-3.915 2.745zm-268.485 36.093L59.88 226.719l-4.215-1.23 1.17-4.216c9.675-35.268 26.55-67.507 50.16-95.754l2.925-3.51 3.465 2.984 75.81 65.692 3.465 2.925-2.985 3.466c-13.77 15.766-24.15 34.743-29.895 54.845l-1.29 4.396zm130.08-69.606L273.99 158.1l-1.935-5.146 5.385-.885c7.44-1.17 15.06-1.815 22.56-1.815 18.225 0 35.97 3.45 52.68 10.306l4.335 1.77-1.935 4.276-11.895 25.547 13.89-25.022 2.1-3.75 3.87 1.935c24.435 12.42 44.595 31.518 58.185 55.31l2.055 3.585-3.405 2.34-26.13 18.392-4.275 3.046-2.34-4.74c-9.15-18.633-24.27-34.22-42.66-44.015l-3.81-1.98-3.87-1.71c-12.24-5.146-25.2-7.726-38.49-7.726-3.105 0-6.27.12-9.375.405l-3.465.405zm-61.815 31.233-20.445-19.577-3.345-3.226 3.345-3.225c17.58-17.342 39.375-29.703 63.045-35.854l3.75-1.005 1.53 3.586 11.25 26.357 2.1 5.1-5.385 1.11c-18.81 3.871-35.925 13.082-49.575 26.674l-3.105 3.105zm325.845 110.756L444.9 317.792l-4.68-.465.705-4.696c.99-6.855 1.455-13.951 1.455-21.032 0-21.152-4.455-41.494-13.245-60.426l-1.695-3.57 3.405-2.115 89.475-56.361 4.095-2.64 2.28 4.335c18.81 35.974 28.83 76.583 28.83 117.372 0 11.896-.825 23.732-2.46 35.283l-.525 4.276zM196.47 267.627l-28.305-8.386-4.215-1.23 1.11-4.216c5.265-19.682 14.64-37.623 27.825-53.435l2.94-3.525 3.45 3 21.63 18.452 3.27 2.865-2.685 3.345c-9.375 11.657-16.065 25.428-19.395 39.784l-1.065 4.696zm172.14 88.254c11.025-11.072 19.215-24.783 23.85-39.56l1.17-3.69h.06l1.05-4.575c1.59-7.08 2.355-14.357 2.355-21.497a99.3 99.3 0 0 0-5.625-32.989l-1.23-3.465 3.105-1.875 27.765-17.117 4.395-2.625 2.115 4.68c7.965 17.942 12.06 36.979 12.06 56.721 0 7.68-.69 15.362-1.92 23.042l-.645 4.156-4.23-.405-31.98-3 30.93 4.575 4.92.765-1.23 4.8c-5.745 23.148-17.58 44.72-34.155 62.182l-3.045 3.225-3.225-3-26.25-23.853-3.225-2.925 2.64 2.76 24.9 25.428 3.285 3.405-3.525 3.165c-20.505 18.332-45.75 30.108-73.005 33.979l-4.455.585-.585-4.456-5.04-35.088-.645-4.35 4.395-.75c17.94-2.7 34.695-10.442 48.585-22.218l3.15-2.685zM63.165 375.398c-10.2-27.843-15.3-57.201-15.3-87.204 0-16.937 1.71-33.874 4.98-50.33l1.005-4.696 4.575 1.23 95.025 25.143 4.11 1.11-.825 4.11c-1.635 8.851-2.52 17.867-2.52 26.838 0 15.167 2.355 30.168 6.975 44.525l1.35 3.99-3.93 1.59-89.535 36.319-4.335 1.77zm104.01-42.2a140 140 0 0 1-6.855-43.309c0-7.786.69-15.527 1.86-22.967l.825-4.92 4.815 1.29 28.995 7.62 3.75.99-.405 3.87c-.42 3.57-.585 7.156-.585 10.787 0 11.01 1.755 21.797 5.265 32.058l1.47 4.035-4.05 1.635-29.175 11.732-4.455 1.755zm311.94 130.438-74.52-68.031-3.345-3.106 3.045-3.27c17.175-18.587 29.13-41.314 34.635-65.752l.87-4.11 4.17.645 102.36 15.707 4.68.705-.99 4.695c-9.675 45.755-31.995 88.074-64.635 122.292l-3.045 3.226zm-249.96-53.255a142.2 142.2 0 0 1-27.945-21.692c-12.48-12.541-22.32-27.003-29.295-42.95l-1.695-3.93 3.81-1.875 28.53-14.176 4.095-2.056 1.935 4.23c8.67 18.798 23.505 34.744 41.61 44.885l3.915 2.22-2.16 3.93-16.59 29.704-2.22 4.05zm-54.435 97.795a253 253 0 0 1-52.5-40.43c-21.435-21.391-38.61-46.009-51.15-73.132l-1.875-4.05 3.99-1.875 86.655-42.244 4.275-2.056 1.815 4.336c7.275 16.712 17.52 31.758 30.54 44.78 8.79 8.85 18.81 16.516 29.7 22.847l3.81 2.28-2.16 3.81-46.935 84.039-2.235 3.99zm67.335-91.06-4.275-1.994 2.16-4.156 15.825-30.648 1.875-3.63 3.81 1.515c11.715 4.755 24.135 7.096 36.855 7.096 1.455 0 2.925 0 4.395-.06l4.215-.3.465 4.23 4.395 35.149.645 4.815-4.8.225c-2.52.24-5.04.24-7.62.24-20.28 0-39.78-4.215-57.945-12.481m88.53 118.902-13.83-96.925-.645-4.395 4.395-.646c28.365-4.395 54.555-17.056 75.645-36.633l3.225-2.985 3.045 3.105 70.725 71.557 3.285 3.285-3.465 3.21c-38.37 35.164-85.83 57.426-137.28 64.237l-4.455.645zM190.08 516.382l-4.155-2.055 2.1-4.036 44.595-85.493 1.935-3.81 3.915 1.814c18.75 8.551 38.91 12.887 59.835 12.887 3.51 0 7.02-.12 10.485-.345l4.215-.3.525 4.275 11.79 96.985.525 4.695-4.695.345c-6.45.465-12.945.765-19.515.765-39.255 0-76.815-8.67-111.555-25.727" style="fill:url(#b)"/></svg>