<svg xmlns="http://www.w3.org/2000/svg" xmlns:xlink="http://www.w3.org/1999/xlink" width="600" height="600"><radialGradient id="a" cx="0" cy="0" r="1" fx="0" fy="0" gradientTransform="matrix(17.77612 0 0 -17.77612 135.125 259.304)" gradientUnits="userSpaceOnUse" spreadMethod="pad"><stop offset="0" style="stop-color:#d9eaf3"/><stop offset=".663" style="stop-color:#99aebc"/><stop offset="1" style="stop-color:#536e78"/></radialGradient><radialGradient xlink:href="#a" id="b" cx="0" cy="0" r="1" fx="0" fy="0" gradientTransform="matrix(266.64185 0 0 266.66851 300.007 299.99)" gradientUnits="userSpaceOnUse" spreadMethod="pad"/><path d="M0 300.03c0 80.108 31.23 155.46 87.885 212.136C144.555 568.826 219.84 600 300 600s155.445-31.173 212.175-87.834C568.83 455.491 600 380.138 600 300.03s-31.23-155.4-87.945-212.121C455.325 31.233 380.04 0 300 0 134.595 0 0 134.548 0 300.03" style="fill:#fff"/><path d="M166.695 267.627c-1.23 7.26-1.815 14.716-1.815 22.262 0 14.476 2.235 28.548 6.57 41.9l29.175-11.717c-3.63-10.486-5.565-21.737-5.565-33.513 0-3.81.24-7.561.644-11.251zm29.655-64.402c-12.42 14.882-21.795 32.464-26.895 51.74l28.245 8.326a103 103 0 0 1 20.265-41.599zm29.175 10.141c13.95-13.891 31.815-23.792 51.855-27.947l-11.25-26.373c-23.37 6.03-44.295 18.227-60.99 34.683zM176.01 343.984c6.69 15.287 16.23 29.358 28.425 41.495a139 139 0 0 0 27.015 21.032l16.575-29.778a103.62 103.62 0 0 1-43.53-46.925zm67.92 69.022c17.4 7.921 36.375 12.077 56.07 12.077q3.69 0 7.38-.18l-4.455-35.149c-1.515.06-3.045.06-4.62.06-13.605 0-26.61-2.64-38.505-7.44zm75.405 10.726c26.25-3.75 50.685-15.061 70.665-32.928l-24.9-25.427c-14.175 12-31.65 20.207-50.805 23.252zm78.75-40.774c16.29-17.116 27.54-37.803 33.105-60.246l-34.395-5.04c-4.92 15.766-13.59 29.883-24.9 41.374zm35.28-70.792c1.17-7.276 1.815-14.716 1.815-22.277 0-19.502-4.17-38.089-11.67-54.905L395.685 252.1a103.3 103.3 0 0 1 5.91 34.459c0 7.725-.87 15.226-2.46 22.502zM417.3 222.862c-13.065-22.922-32.685-41.554-56.31-53.57l-14.415 25.968c19.35 10.2 34.98 26.372 44.595 45.994zm-66.33-58.13c-15.75-6.451-32.925-9.962-50.97-9.962-7.38 0-14.7.585-21.795 1.756l10.245 27.242c3.285-.285 6.57-.465 9.855-.465 14.295 0 27.885 2.865 40.245 8.146zM57.3 238.733c-3.27 16.006-4.92 32.523-4.92 49.52 0 29.658 5.1 58.536 15 85.613l89.535-36.333c-4.74-14.642-7.215-30.123-7.215-45.935 0-9.436.944-18.692 2.64-27.723zm53.145-110.336c-22.665 27.063-39.72 59.06-49.275 94.044l94.275 28.248c6.105-21.212 16.755-40.429 30.885-56.6zm84.735 56.315c18.33-17.641 41.13-30.648 66.435-37.158L221.655 52.1c-38.25 12.946-72.3 34.984-99.72 63.517zM75.12 392.74c12.24 26.373 29.115 50.69 50.265 71.842 15.585 15.647 32.94 28.953 51.63 39.664l46.875-83.963a149.5 149.5 0 0 1-30.645-23.612c-13.485-13.487-24.09-29.133-31.41-46.19zm116.955 119.607c33.69 16.517 71.01 25.248 109.62 25.248 6.39 0 12.78-.225 19.11-.706l-11.73-97.03c-3.57.225-7.14.345-10.77.345-21.63 0-42.6-4.636-61.71-13.367zM335.1 535.434c50.265-6.751 97.035-28.548 134.88-63.172l-70.785-71.557c-21.855 20.282-48.87 33.288-77.985 37.744zm147.015-75.128c32.34-33.873 54.075-75.247 63.51-120.132l-102.36-15.707c-5.625 25.203-17.82 48.47-35.625 67.807zm66.555-137.414a260 260 0 0 0 2.34-34.638c0-41.6-10.245-80.873-28.29-115.317l-89.475 56.36c8.79 18.933 13.65 40.025 13.65 62.302 0 7.32-.524 14.582-1.53 21.677zm-35.325-166.306c-23.325-37.384-56.31-68.212-95.4-88.9l-51.33 91.945c24.915 12.946 45.765 32.748 59.94 56.96zM400.305 59.24c-30.225-13.126-63.57-20.387-98.61-20.387-22.26 0-43.83 2.925-64.335 8.446l36.855 97.614c7.86-1.29 15.885-1.935 24.09-1.935 20.385 0 39.84 4.17 57.54 11.611zM300 28.773c72.3 0 140.385 28.308 191.655 79.583S571.17 227.663 571.17 299.97c0 72.427-28.185 140.579-79.455 191.794-51.15 51.23-119.295 79.403-191.715 79.403s-140.505-28.173-191.715-79.403C57.075 440.49 28.89 372.397 28.89 299.97 28.89 150.435 150.465 28.773 300 28.773" style="fill:#536e78"/><path d="M33.345 299.97c0 71.317 27.765 138.239 78.105 188.644 50.325 50.33 117.3 78.053 188.55 78.053s138.165-27.723 188.55-78.053c50.34-50.405 78.105-117.387 78.105-188.644 0-71.137-27.765-138.059-78.165-188.449C438.045 61.116 371.13 33.348 300 33.348c-147.015 0-266.655 119.607-266.655 266.622M270 146.565l-36.795-97.69-1.755-4.636 4.8-1.29a254.3 254.3 0 0 1 65.445-8.55c34.86 0 68.61 6.975 100.44 20.687l4.215 1.815-1.935 4.275-44.535 95.29-1.815 3.93-3.99-1.71c-17.685-7.44-36.435-11.191-55.77-11.191-7.86 0-15.705.645-23.385 1.875l-3.63.645zm-77.865 41.419-73.245-69.082-3.345-3.165 3.165-3.226c28.125-29.358 63.225-51.74 101.49-64.686l3.975-1.35 1.65 3.87 39.96 95.515 2.04 4.8-5.085 1.29c-24.09 6.15-46.35 18.572-64.395 35.989l-3.105 2.985zm230.505 30.888c-13.83-23.612-33.93-42.664-58.065-55.266l-4.11-2.1 2.235-4.05 51.33-91.944 2.1-3.856 3.93 2.04c39.72 21.047 73.305 52.34 97.095 90.49l2.28 3.69-3.51 2.4-86.85 60.006-3.915 2.745zm-268.485 36.093L59.82 226.719l-4.155-1.23 1.17-4.216c9.675-35.328 26.55-67.507 50.16-95.754l2.925-3.51 3.465 2.985 75.87 65.691 3.405 2.925-2.985 3.466c-13.77 15.766-24.09 34.743-29.895 54.845l-1.29 4.396zm130.08-69.606L273.99 158.1l-1.935-5.146 5.385-.885c7.44-1.17 15.06-1.815 22.56-1.815 18.225 0 35.97 3.45 52.68 10.306l4.395 1.815-1.995 4.23-12.075 25.893 14.07-25.367 2.1-3.75 3.87 1.935a139.5 139.5 0 0 1 58.125 55.31l2.055 3.585-3.345 2.34-26.13 18.392-4.335 3.046-2.28-4.74c-9.15-18.633-24.27-34.28-42.66-44.015l-3.93-2.1-3.81-1.59c-12.18-5.146-25.14-7.726-38.43-7.726-3.165 0-6.27.12-9.375.405l-3.465.36zm-61.875 31.233-20.385-19.577-3.345-3.226 3.345-3.225c17.58-17.342 39.375-29.703 63.045-35.854l3.75-1.005 1.53 3.586 11.19 26.357 2.16 5.1-5.385 1.111c-18.75 3.87-35.925 13.081-49.575 26.673l-3.105 3.105zm325.845 110.756-103.245-9.556-4.74-.465.705-4.696c.99-6.855 1.455-13.951 1.455-21.032 0-21.047-4.455-41.374-13.245-60.426l-1.695-3.57 3.405-2.115 89.46-56.361 4.11-2.64 2.28 4.335c18.81 36.034 28.83 76.643 28.83 117.372a255 255 0 0 1-2.46 35.283l-.525 4.276zM196.41 267.627l-28.245-8.386-4.215-1.23 1.11-4.276c5.265-19.622 14.64-37.563 27.825-53.375l2.94-3.525 3.45 3 21.63 18.452 3.27 2.865-2.685 3.345c-9.375 11.657-16.065 25.368-19.395 39.784l-1.125 4.696zm172.26 88.254c10.965-11.072 19.215-24.783 23.85-39.56l1.11-3.69h.06l1.05-4.575c1.59-7.02 2.355-14.297 2.355-21.497 0-11.251-1.875-22.383-5.625-32.989l-1.23-3.465 3.105-1.875 27.765-17.117 4.395-2.625 2.115 4.68c7.965 17.942 12.075 37.039 12.075 56.721 0 7.8-.645 15.542-1.89 23.042l-.69 4.156-4.23-.405-31.98-3 30.93 4.575 4.92.765-1.23 4.8c-5.745 23.148-17.58 44.72-34.155 62.182l-3.045 3.225-3.285-3-26.19-23.853-3.225-2.925 2.64 2.76 24.9 25.428 3.345 3.405-3.585 3.165c-20.505 18.332-45.75 30.108-72.945 33.979l-4.455.585-.645-4.456-5.04-35.088-.645-4.35 4.395-.75c17.94-2.7 34.695-10.442 48.585-22.218l3.15-2.685zM63.105 375.398c-10.14-27.843-15.24-57.201-15.24-87.204 0-16.757 1.65-33.754 4.98-50.33l.945-4.696 4.635 1.23 95.025 25.143 4.05 1.11-.765 4.11c-1.635 8.791-2.52 17.747-2.52 26.838 0 15.287 2.34 30.288 6.975 44.525l1.35 3.99-3.93 1.59-89.535 36.319-4.335 1.77zm104.01-42.2c-4.455-13.891-6.81-28.473-6.81-43.309 0-7.666.705-15.407 1.935-22.967l.825-4.92 4.74 1.29 29.01 7.62 3.69.99-.345 3.87c-.42 3.51-.585 7.096-.585 10.787a98.9 98.9 0 0 0 5.325 32.058l1.41 4.035-4.05 1.635-29.175 11.732-4.455 1.755zm312 130.438-74.52-68.031-3.345-3.106 3.105-3.27c17.115-18.647 29.115-41.314 34.575-65.752l.87-4.11 4.17.645 102.36 15.707 4.68.705-.99 4.695c-9.675 45.815-31.995 88.119-64.575 122.292l-3.105 3.226zm-249.96-53.255c-10.08-5.986-19.5-13.246-27.885-21.692-12.54-12.541-22.38-27.003-29.355-42.95l-1.695-3.93 3.81-1.875 28.47-14.176 4.155-2.056 1.935 4.23c8.73 18.798 23.505 34.744 41.67 44.885l3.855 2.22-2.16 3.93-16.53 29.704-2.22 4.05zm-54.435 97.795c-18.975-10.951-36.615-24.543-52.545-40.43-21.33-21.331-38.565-46.009-51.105-73.132l-1.875-4.05 3.99-1.875 86.655-42.244 4.275-2.056 1.83 4.336c7.26 16.712 17.505 31.758 30.465 44.78a144 144 0 0 0 29.76 22.847l3.81 2.28-2.115 3.81-46.92 84.039-2.295 3.99zm67.395-91.06-4.335-1.994 2.16-4.156 15.885-30.648 1.875-3.63 3.75 1.515c11.715 4.755 24.135 7.096 36.855 7.096 1.455 0 2.925 0 4.395-.06l4.215-.3.465 4.23 4.455 35.148.585 4.816-4.8.225c-2.52.24-5.04.24-7.62.24-20.325 0-39.78-4.215-57.885-12.481m88.53 118.902-13.89-96.925-.645-4.396 4.395-.645c28.425-4.395 54.555-17.056 75.645-36.633l3.165-2.986 3.105 3.106 70.725 71.557 3.285 3.285-3.465 3.21c-38.37 35.164-85.83 57.426-137.28 64.237l-4.395.645zM190.08 516.382l-4.11-2.056 2.115-4.035 44.535-85.494 1.935-3.81 3.915 1.815c18.75 8.551 38.91 12.887 59.835 12.887 3.51 0 6.975-.12 10.485-.345l4.215-.3.585 4.275 11.67 96.985.585 4.695-4.695.345c-6.45.465-12.885.765-19.455.765-39.315 0-76.875-8.67-111.615-25.727" style="fill:url(#b)"/></svg>