<svg xmlns="http://www.w3.org/2000/svg" width="179.19" height="182.221" viewBox="0 0 179.19 182.221"><path d="M110.908 134.256h-18.45V94.48h18.45zm-24.358 0H68.1V94.48h18.45Zm5.908-77.292h-5.934L86.55 90.1H68.1V57.042h-5.908V90.1h-13.37v4.38h13.37v39.776h-13.37v4.198h13.37v42.528H68.1v-42.528h18.45v42.528h5.908v-42.528h18.45v42.528h5.338v-42.528h12.057v-4.198h-12.057V94.48h12.057V90.1h-12.057V56.794h-5.338V90.1h-18.45zm47.655 125.257h39.077v-78.024h-39.077ZM0 182.221h39.103v-78.024H0Zm140.113-90.333h39.077c0-57.89-43.146-82.248-43.146-82.248l-13.682 36.563s17.75 13.682 17.75 45.685m-83.26-45.685L43.171 9.64S.026 33.998.026 91.888h39.077c0-32.003 17.75-45.685 17.75-45.685M52.293 0h74.63l-16.248 46.203H69.06Z"/></svg>