<?xml version="1.0" encoding="UTF-8" standalone="no"?>
<svg
   version="1.1"
   width="600"
   height="608"
   id="svg2"
   xmlns="http://www.w3.org/2000/svg"
   xmlns:svg="http://www.w3.org/2000/svg">
  <defs
     id="defs2" />
  <g
     transform="matrix(2,0,0,-2,0,608)"
     id="g2">
    <path
       d="m 121.8003,37.252 v 44.966 c -45.562,12.536 -78,54.614 -78,102.391 0,22.566 7.232,44.555 20.494,62.671 l -2.125,2.124 h -21.739 l -32.63,-32.628 v 79.425 h 77.728 l 44.672,-44.669 V 181.38 l -27.229,27.225 c -3.796,-7.382 -5.771,-15.536 -5.771,-23.996 0,-29.111 23.685,-52.796 52.8,-52.796 29.114,0 52.8,23.685 52.8,52.796 0,8.468 -1.975,16.623 -5.765,24.003 l -27.235,-27.233 v 70.153 l 44.672,44.669 h 77.728 v -79.425 l -32.63,32.628 h -21.74 l -2.112,-2.111 c 13.253,-18.118 20.482,-40.11 20.482,-62.684 0,-47.777 -32.439,-89.855 -78,-102.391 V 37.252 l -28.2,-26.539 z"
       id="path1" />
    <path
       d="m 300,304 h -15.6 -66.696 -6.462 l -4.569,-4.569 -40.104,-40.097 -4.569,-4.571 v -6.461 -48.091 -37.659 l 26.631,26.626 5.29,5.29 c 0.715,-3.203 1.079,-6.501 1.079,-9.859 0,-24.81 -20.187,-44.995 -45,-44.995 -24.813,0 -45,20.185 -45,44.995 0,3.356 0.365,6.654 1.081,9.857 l 5.289,-5.288 26.63,-26.625 v 37.658 48.091 6.461 l -4.569,4.571 L 93.328,299.431 88.759,304 H 82.297 15.601 0 v -15.599 -52.796 -37.658 l 26.63,26.631 17.032,17.026 h 7.633 C 41.344,224.38 36,204.709 36,184.609 36,158.311 45.174,132.648 61.833,112.353 75.521,95.677 93.724,83.213 114,76.447 v -35.825 -6.74 l 4.909,-4.618 20.4,-19.2 L 150,0 l 10.691,10.064 20.4,19.2 4.909,4.618 v 6.74 35.825 c 20.276,6.766 38.479,19.23 52.167,35.906 16.659,20.295 25.833,45.958 25.833,72.256 0,20.101 -5.338,39.771 -15.28,56.995 h 7.618 L 273.37,224.578 300,197.947 v 37.658 52.796 z m -15.6,-15.599 v -52.796 l -21.6,21.599 h -28.199 l -9.286,-9.283 c 14.403,-17.11 23.085,-39.196 23.085,-63.312 0,-47.342 -33.448,-86.865 -78,-96.26 V 40.622 L 150,21.424 129.6,40.622 v 47.727 c -44.553,9.395 -78,48.918 -78,96.26 0,24.118 8.692,46.193 23.098,63.298 l -9.299,9.297 H 37.2 L 15.601,235.605 v 52.796 H 82.297 L 122.4,248.302 v -48.091 l -20.809,20.806 C 93.95,210.88 89.4,198.284 89.4,184.609 c 0,-33.465 27.131,-60.593 60.6,-60.593 33.468,0 60.6,27.128 60.6,60.593 0,13.675 -4.541,26.28 -12.183,36.417 L 177.6,200.211 v 48.091 l 40.104,40.099 H 284.4"
       style="fill:#808080"
       id="path2" />
  </g>
</svg>
