<?xml version="1.0" encoding="UTF-8" standalone="no"?>
<svg
   version="1.1"
   width="600"
   height="608"
   id="svg6"
   xmlns:xlink="http://www.w3.org/1999/xlink"
   xmlns="http://www.w3.org/2000/svg"
   xmlns:svg="http://www.w3.org/2000/svg">
  <defs
     id="defs6" />
  <linearGradient
     x1="0"
     y1="0"
     x2="1"
     y2="0"
     id="linearGradient24"
     gradientUnits="userSpaceOnUse"
     gradientTransform="matrix(284.40039,0,0,-284.40039,7.7998047,153.45508)"
     spreadMethod="pad">
    <stop
       style="stop-color:#612c75"
       offset="0"
       id="stop1" />
    <stop
       style="stop-color:#7b5190"
       offset="0.3"
       id="stop2" />
    <stop
       style="stop-color:#bf99c3"
       offset="0.5"
       id="stop3" />
    <stop
       style="stop-color:#7b5190"
       offset="0.7"
       id="stop4" />
    <stop
       style="stop-color:#612c75"
       offset="1"
       id="stop5" />
  </linearGradient>
  <linearGradient
     x1="0"
     y1="0"
     x2="1"
     y2="0"
     id="linearGradient3056"
     xlink:href="#linearGradient24"
     gradientUnits="userSpaceOnUse"
     gradientTransform="matrix(284.40039,0,0,-284.40039,7.79981,153.45508)"
     spreadMethod="pad" />
  <g
     transform="matrix(2,0,0,-2,0,608)"
     id="g6">
    <path
       d="m 214.473,296.201 -44.674,-44.67 v -70.152 l 27.236,27.231 c 3.791,-7.377 5.765,-15.536 5.765,-24 v 0 c 0,-29.114 -23.686,-52.798 -52.8,-52.798 v 0 c -29.115,0 -52.8,23.684 -52.8,52.798 v 0 c 0,8.458 1.976,16.613 5.773,23.994 v 0 L 130.2,181.379 v 70.152 l -44.672,44.67 H 7.799 v -79.425 l 32.632,32.628 h 21.738 l 2.125,-2.125 C 51.032,229.163 43.799,207.174 43.799,184.607 v 0 c 0,-47.777 32.439,-89.854 78.001,-102.389 v 0 -44.969 L 150,10.71 178.2,37.249 v 44.969 c 45.562,12.535 78,54.612 78,102.389 v 0 c 0,22.574 -7.229,44.568 -20.481,62.685 v 0 l 2.112,2.112 h 21.738 L 292.2,216.776 v 79.425 z"
       style="fill:url(#linearGradient3056)"
       id="path5" />
    <path
       d="m 300,304 h -15.601 -66.695 -6.462 l -4.569,-4.568 -40.104,-40.101 -4.569,-4.569 v -6.461 -48.093 -37.657 l 26.631,26.626 5.291,5.29 c 0.715,-3.202 1.078,-6.5 1.078,-9.858 0,-24.812 -20.187,-44.997 -45,-44.997 -24.813,0 -45,20.185 -45,44.997 0,3.355 0.365,6.653 1.082,9.856 l 5.287,-5.287 L 138,162.549 v 37.659 48.093 6.461 l -4.569,4.569 L 93.328,299.432 88.759,304 H 82.297 15.6 0 v -15.6 -52.795 -37.659 l 26.631,26.629 17.031,17.029 h 7.633 C 41.345,224.379 36,204.705 36,184.607 36,158.309 45.175,132.646 61.834,112.35 75.521,95.674 93.724,83.209 114,76.443 V 40.619 33.879 L 118.908,29.26 139.309,10.062 150,0 160.691,10.062 181.092,29.26 186,33.879 v 6.74 35.824 c 20.275,6.766 38.479,19.231 52.166,35.907 16.659,20.296 25.834,45.959 25.834,72.257 0,20.1 -5.339,39.773 -15.28,56.997 h 7.618 L 273.369,224.575 300,197.946 V 235.605 288.4 Z M 284.399,288.4 V 235.605 L 262.8,257.203 h -28.2 l -9.285,-9.284 c 14.403,-17.111 23.085,-39.194 23.085,-63.312 0,-47.344 -33.448,-86.867 -78,-96.26 V 40.619 L 150,21.421 129.6,40.619 v 47.728 c -44.553,9.393 -78,48.916 -78,96.26 0,24.118 8.692,46.192 23.099,63.299 L 65.4,257.203 H 37.2 L 15.6,235.605 V 288.4 H 82.297 L 122.4,248.301 v -48.093 l -20.808,20.806 C 93.949,210.879 89.4,198.282 89.4,184.609 c 0,-33.466 27.131,-60.595 60.6,-60.595 33.469,0 60.6,27.129 60.6,60.595 0,13.673 -4.541,26.278 -12.183,36.413 L 177.6,200.208 v 48.093 l 40.104,40.099 h 66.695"
       fill="#ffffff"
       id="path6" />
  </g>
</svg>
