<?xml version="1.0" encoding="UTF-8" standalone="no"?>
<svg
   version="1.1"
   width="537.59961"
   height="533.95508"
   id="svg1"
   xmlns="http://www.w3.org/2000/svg"
   xmlns:svg="http://www.w3.org/2000/svg">
  <defs
     id="defs1" />
  <path
     d="M 0,0 V 105.59179 L 43.199219,62.394531 H 99.597658 L 118.19531,80.988284 C 89.383308,115.19828 71.998048,159.34798 71.998048,207.58398 c 0,94.684 66.894002,173.73148 156.000002,192.52148 v 95.45313 l 40.80078,38.39648 40.80078,-38.39648 v -95.45313 c 89.104,-18.79 156,-97.83748 156,-192.52148 0,-48.232 -17.36392,-92.40305 -46.16992,-126.623046 L 438,62.394531 h 56.39844 l 43.20117,43.197259 V 0 H 404.20703 L 323.99805,80.199214 V 176.38085 L 365.63281,134.75 c 15.284,20.274 24.36524,45.48398 24.36524,72.83398 0,66.93 -54.26322,121.1875 -121.19922,121.1875 -66.938,0 -121.19922,-54.2575 -121.19922,-121.1875 0,-27.35 9.09886,-52.54045 24.38086,-72.81445 l 41.61914,41.61132 V 80.199214 L 133.39258,0 Z"
     id="path1" />
</svg>
