<?xml version="1.0" encoding="UTF-8"?><svg id="Layer_2" xmlns="http://www.w3.org/2000/svg" width="247.18261" height="104.13323" xmlns:xlink="http://www.w3.org/1999/xlink" viewBox="0 0 247.18261 104.13323"><defs><style>.cls-1{fill:url(#linear-gradient-2);}.cls-2{fill:url(#radial-gradient);}.cls-3{fill:#4d6773;}.cls-4{fill:url(#linear-gradient);}</style><linearGradient id="linear-gradient" x1="-18.92895" y1="23.92396" x2="188.01552" y2="100.86996" gradientUnits="userSpaceOnUse"><stop offset=".03522" stop-color="#4d6773"/><stop offset=".26262" stop-color="#7a96a2"/><stop offset=".48995" stop-color="#a1bfcb"/><stop offset=".6691" stop-color="#bad8e4"/><stop offset=".77738" stop-color="#c3e2ee"/></linearGradient><linearGradient id="linear-gradient-2" x1="64.74153" y1="27.29611" x2="259.34793" y2="27.29611" gradientUnits="userSpaceOnUse"><stop offset=".06483" stop-color="#4d6773"/><stop offset=".09403" stop-color="#6c8894"/><stop offset=".12591" stop-color="#87a3af"/><stop offset=".16206" stop-color="#9dbac6"/><stop offset=".20355" stop-color="#aeccd8"/><stop offset=".25368" stop-color="#bad8e4"/><stop offset=".32131" stop-color="#c1dfeb"/><stop offset=".48218" stop-color="#c3e2ee"/><stop offset=".6074" stop-color="#c0dfeb"/><stop offset=".68124" stop-color="#b8d7e3"/><stop offset=".74173" stop-color="#abc9d5"/><stop offset=".79499" stop-color="#97b4c0"/><stop offset=".84351" stop-color="#7e9aa6"/><stop offset=".88798" stop-color="#607b87"/><stop offset=".91194" stop-color="#4d6773"/></linearGradient><radialGradient id="radial-gradient" cx="132.16911" cy="83.60527" fx="132.16911" fy="83.60527" r="11.00269" gradientUnits="userSpaceOnUse"><stop offset=".11492" stop-color="#c3e2ee"/><stop offset=".1921" stop-color="#bcdbe7"/><stop offset=".30388" stop-color="#a9c7d3"/><stop offset=".4367" stop-color="#8ba8b4"/><stop offset=".5845" stop-color="#617c88"/><stop offset=".65026" stop-color="#4d6773"/></radialGradient></defs><g id="SDS_Rarities"><g id="U"><path d="M76.13731,104.13323c-3.22637-4.98476-7.0404-5.80793-12.04573-6.05488,0-3.83232-.02744-7.68293-.02744-9.54878.77058-1.63162,6.5074-4.93233,6.5074-4.93233l-25.82241-35.45946s-29.0737,12.98531-32.13315,14.38013c-10.40168,5.76624-16.7401-8.50206-9.52592-12.50816.0846-.30183.01372-2.93598.01372-2.93598l10.07012-6.95579,4.41469,1.11492s28.02739-16.59053,34.75452-21.02193c10.31707-5.67988,15.40244-1.22104,17.54268,2.97713,2.1716,4.25968,1.96646,11.75762-4.56402,15.54421-4.16622,2.41571-9.12805,4.58232-9.12805,4.58232l25.3811,35.28659,17.68902-5.23171,5.04878-10.56402s-19.6029,7.64734-21.96265,6.60466c-11.27744-4.11585-7.43598-10.45427-2.86738-11.7622.30183-1.56402.73171-2.16869.73171-2.16869l10.53659-5.26829,4.82927,1.5s5.38491-2.78506,6.92149-3.49848c-23.46143-7.86895-27.07278-16.03725-29.43521-21.34199-3.01829-6.77744,1.09756-10.55488,6.90019-13.95197.76843-.44987,1.62509-.86745,2.54799-1.29956C122.52069-8.37491,236.77679-1.02125,246.25697,21.9122c1.93902,3.32927,1.2054,10.76977-5.82622,16.25305-12.04573,9.39329-28.2439,12-36.03659,13.06098-16.96953,2.31041-22.34999,2.62505-32.11509,2.8811-4.52881.11875-37.80183-.31098-37.80183-.31098l-8.17683,12.62195s16.48488.1292,16.7561,17.61585c.18293,11.79421-13.59146,20.02591-17.43265,20.02366-5.23628-.00307-40.59632.07542-49.48656.07542Z"/><path class="cls-4" d="M10.19905,59.08393c-6.01829,2.68902-8.625-3.56707-3.95122-6.64024.53963-1.94817.93293-3.12805.93293-3.12805l6.6311-4.77439,4.30189,1.48802s31.97474-19.3173,38.95116-23.16484c7.28049-4.01524,15.58537,6.44817,6.2561,12.12805-4.02208,2.44874-12.92378,6.32012-12.92378,6.32012l29.59756,41.41463,22.34451-6.90549,14.46494-31.89329s16.16159-2.64329,20.45351-2.18826c2.20491.23376-11.82851,18.39101-19.0907,29.08308,32.0122-4.20732,20.89024,29.45122,5.4878,29.45122-14.65244,0-43.49085-.2378-46.17988-.2378-2.65244-4.47256-6.53049-4.93902-9.65854-5.34146-.03659-2.12195,0-2.96341-.03659-4.93902,2.54268-2.08537,8.04878-5.04878,8.04878-5.04878l-29.83335-41.74453S12.66639,57.9815,10.19905,59.08393Z"/><path class="cls-1" d="M76.6896,21.19111C99.62862-3.17474,222.34509-.69151,243.12557,24.08593c.15247.1818.94433,1.39482.94207,1.6875-.0125,1.62321-2.80743,6.2383-3.4253,5.47409-.34756-.42988-.93628-1.15575-.98418-1.21916-17.44112-23.08724-136.5367-25.39165-159.68502-1.19547-.08854.09255-.45428.38537-.6186.56203-.75335.80992-3.48275-3.63661-3.75-5.5061-.22286-1.55898.7176-2.30738,1.08506-2.6977ZM111.65484,45.80802c.74313-1.9652,1.3734-3.8056,2.85366-4.54573.95122-.47561,25.30863-4.43368,26.53476-1.69617.95122,2.12372-1.62012,6.59861-3.08354,10.03764,41.11738,2.8628,77.39065-1.79605,95.15396-11.67988,6.91128-3.84556,8.17348-3.88215,2.14034-9.45256-17.56002-16.21321-118.20741-21.37061-151.09766-.85079-1.23058.76775-4.83248,3.10942-3.23201,4.61023,7.49085,7.02439,16.4942,10.87453,30.73048,13.57727Z"/><path d="M147.00771,46.05724c.00006,2.38806,2.02136,3.72253,3.35675,3.74084,1.91107.02618,3.02783,5.43292,9.20618,5.30487,4.75513-.09851,6.98553-5.2373,9.21454-5.30487,1.81097-.05487,3.00616-1.1684,3.01373-3.83234.01605-5.69812-24.7912-5.73474-24.7912.09149ZM168.87209,47.14568c-3.27441-3.36591-15.93298-3.36591-18.87805.18292-.88837,1.07037-1.7207-.19623-.45734-1.44513,3.46484-3.42529,14.49847-3.37781,19.20734-.56708,2.35974,1.40851,1.22119,2.953.12805,1.82928Z"/><path class="cls-3" d="M87.28898,66.80802c-5.41573,2.24955-10.42683-2.15854-9.65854-5.12195.26804-1.03389,2.38497-1.68231,3.40794-2.45226.54328-1.53555.79937-2.1575.79937-2.1575l9.43902-4.52287,3.47561,1.37652s5.83074-2.72413,7.71037-3.53049c5.29695-2.27239,6.12012-2.44617,6.95022-1.05593.78824,1.32015-3.56144,8.75859-4.89229,11.23581-1.41768.43902-14.01558,4.89277-17.23171,6.22866ZM166.95133,48.9292c0-3.67701-14.87195-3.69512-14.87195.07317,0,1.11585,4.0061,4.09756,7.53659,4.09756,3.4939,0,7.33537-3.05488,7.33537-4.17073Z"/><path d="M132.14726,92.73962c-11.32321,0-10.73784-18.54593.00911-18.54593,10.50915,0,11.02134,18.54593-.00911,18.54593Z"/><path class="cls-2" d="M132.38502,91.22417c-9.80488,0-9.60366-15.38415,0-15.38415,9.73171,0,9.40244,15.38415,0,15.38415Z"/></g></g></svg>