<?xml version="1.0" encoding="UTF-8"?><svg id="Layer_2" xmlns="http://www.w3.org/2000/svg" width="247.1826" height="104.13323" viewBox="0 0 247.1826 104.13323"><g id="Layer_2-2"><path d="M246.25695,21.91222C236.77678-1.02125,122.52068-8.37489,82.51464,11.61894c-.92291.43213-1.7796.84973-2.54803,1.29956-5.80261,3.39709-9.91846,7.17456-6.90015,13.95197,2.36243,5.30475,5.97375,13.47308,29.43518,21.34204-1.53656.71338-6.92151,3.49847-6.92151,3.49847l-4.82922-1.5-10.53662,5.26825s-.42987.60468-.73169,2.1687c-4.5686,1.30792-8.4101,7.64636,2.86737,11.76221,2.35974,1.04266,21.96265-6.60468,21.96265-6.60468l-5.04877,10.56403-17.68903,5.23175-25.3811-35.28662s4.96185-2.16663,9.12805-4.58234c6.53046-3.78656,6.7356-11.28448,4.56403-15.54419-2.14026-4.19818-7.22565-8.65698-17.54272-2.97711-6.72711,4.4314-34.75452,21.02191-34.75452,21.02191l-4.41467-1.11493-10.07013,6.95581s.07092,2.63416-.01373,2.93597c-7.21411,4.0061-.87573,18.27441,9.52594,12.50818,3.05945-1.39484,32.13318-14.38013,32.13318-14.38013l25.82239,35.45941s-5.73682,3.30072-6.50739,4.93237c0,1.86584.0274,5.71643.0274,9.54877,5.00537.24695,8.8194,1.07013,12.04578,6.05487,8.8902,0,44.25024-.07849,49.48657-.07544,3.84119.00226,17.61554-8.22943,17.43262-20.02362-.27124-17.48669-16.7561-17.61584-16.7561-17.61584l8.17682-12.62195s33.27307.42969,37.80188.31097c9.76508-.25604,15.14551-.57074,32.11505-2.8811,7.79272-1.06097,23.99084-3.66772,36.03662-13.06097,7.03162-5.48334,7.7652-12.92383,5.82617-16.25305ZM87.28899,66.80803c-5.41577,2.24951-10.42682-2.15857-9.65857-5.12195.26807-1.03394,2.38501-1.68231,3.40796-2.45227.54327-1.53558.79938-2.15753.79938-2.15753l9.43903-4.52283,3.47559,1.37653s5.83075-2.72418,7.71039-3.53052c5.29694-2.2724,6.12012-2.44617,6.9502-1.05591.78827,1.32013-3.56146,8.75854-4.89227,11.23578-1.41766.43903-14.01556,4.89276-17.23175,6.22864l.00006.00006ZM118.16704,70.82329c12.33368-1.62103,18.25983,2.38049,20.00983,7.91064,2.08112,3.03381,1.78918,7.71924-.75189,10.40625-2.39642,6.00415-7.75696,11.13428-13.77014,11.13428-14.6524,0-43.49084-.23779-46.17987-.23779-2.6524-4.47253-6.53046-4.93903-9.65851-5.34143-.03662-2.12195,0-2.96344-.03662-4.93903,2.54272-2.08539,8.04883-5.04877,8.04883-5.04877l-29.83337-41.74457S12.66637,57.98149,10.19903,59.08391c-6.01825,2.68903-8.625-3.56708-3.95123-6.6402.53967-1.94818.93298-3.12805.93298-3.12805l6.6311-4.77441,4.30188,1.48804s31.97473-19.31732,38.95117-23.16486c7.28046-4.01526,15.58533,6.44818,6.25604,12.12805-4.02203,2.44873-12.92377,6.32013-12.92377,6.32013l29.5976,41.41461,22.34448-6.90546,14.46497-31.89331s16.16162-2.64331,20.45349-2.18823c2.20496.2337-11.82849,18.39099-19.0907,29.08307ZM233.1137,37.92388c-13.59192,7.56281-38.0271,12.0614-67.17139,12.47699-1.37201,1.2627-3.93048,2.69904-6.32635,2.69904-2.50806,0-5.24872-1.50342-6.63007-2.77502-4.91736-.12817-9.93427-.36664-15.02618-.72113,1.46344-3.43903,4.03479-7.91394,3.08356-10.03766-1.22614-2.73749-25.58356,1.22058-26.53479,1.69617-1.48022.74017-2.11053,2.58057-2.85364,4.54578-14.23627-2.70276-23.23962-6.55286-30.73047-13.57727-1.60052-1.50079,2.0014-3.84247,3.23199-4.61023,32.89026-20.51984,133.53766-15.36243,151.09766.85077,6.03314,5.57043,4.77094,5.60699-2.14032,9.45258ZM240.64232,31.24748c-.34753-.42987-.93628-1.1557-.98419-1.21912-17.4411-23.08728-136.53668-25.39166-159.685-1.1955-.08856.09259-.45428.38538-.61859.56201-.75336.80994-3.48273-3.6366-3.75-5.50604-.22284-1.55902.71759-2.30743,1.08502-2.69775C99.62859-3.17476,222.34508-.69154,243.12554,24.08592c.15247.18182.94434,1.39484.94208,1.6875-.01251,1.62323-2.80743,6.23828-3.42529,5.47406ZM147.00768,46.05724c.00006,2.38806,2.02136,3.72253,3.35675,3.74084,1.91107.02618,3.02783,5.43292,9.20618,5.30487,4.75513-.09851,6.98553-5.2373,9.21454-5.30487,1.81097-.05487,3.00616-1.1684,3.01373-3.83234.01605-5.69812-24.7912-5.73474-24.7912.09149ZM159.61596,53.0999c-3.53046,0-7.53656-2.98169-7.53656-4.09753,0-3.76831,14.87195-3.75018,14.87195-.07318,0,1.11584-3.84149,4.17072-7.33539,4.17072ZM168.87206,47.14568c-3.27441-3.36591-15.93298-3.36591-18.87805.18292-.88837,1.07037-1.7207-.19623-.45734-1.44513,3.46484-3.42529,14.49847-3.37781,19.20734-.56708,2.35974,1.40851,1.22119,2.953.12805,1.82928ZM132.15636,74.19365c-10.74695,0-11.33234,18.54596-.00909,18.54596,11.03046,0,10.51825-18.54596.00909-18.54596ZM132.385,91.22417c-9.80487,0-9.60364-15.38416,0-15.38416,9.73175,0,9.40247,15.38416,0,15.38416Z"/></g></svg>