<svg xmlns="http://www.w3.org/2000/svg" xml:space="preserve" width="134.03" height="150" viewBox="0 0 134.03 150"><path fill="#5d5e61" d="M120.857 39.42c-.358 0-1.388-.03-2.733-.254-.63-1.19-1.004-2.779-1.004-4.897 0-6.466 4.344-10.405 4.344-10.405-3.869-3.14-8.047-6.029-11.958-8.519 2.086-2.931 4.359-4.721 4.359-4.721L93.711 0s-7.402 8.004-26.696 8.004S40.318 0 40.318 0L20.165 10.624s2.273 1.79 4.359 4.721c-3.911 2.489-8.089 5.379-11.958 8.519 0 0 4.343 3.939 4.343 10.405 0 2.118-.374 3.707-1.003 4.897a18 18 0 0 1-2.734.254C6.656 39.42 0 35.845 0 35.845l16.554 64.486 3.206.458c.52.074 1.086.208 1.686.384 1.806 7.787 2.77 12.327 2.77 12.327C47.92 124.006 67.014 150 67.014 150s19.094-25.994 42.798-36.5c0 0 .964-4.54 2.77-12.327.601-.176 1.167-.31 1.687-.384l3.207-.458 16.554-64.486s-6.657 3.575-13.173 3.575"/><path d="m59.333 104.177 3.738 19.938c-9.068-7.887-31.499-26.535-42.625-28.125L6.91 43.26s3.031 1.01 6.263 1.01c4.95 0 19.597-2.626 19.597-19.395 0-7.273-4.95-12.829-4.95-12.829l11.92-6.264s7.658 6.23 23.976 6.994l-4.303 18.641C42.55 34.936 29.84 49.912 29.84 67.807c.001 17.864 12.669 32.821 29.493 36.37m28.693-36.371c0-8.722-5.345-16.216-12.931-19.391v38.781c7.586-3.174 12.931-10.668 12.931-19.39m-42.023 0c0 8.723 5.345 16.217 12.93 19.391V48.415c-7.585 3.175-12.93 10.669-12.93 19.391m81.117-24.547s-3.03 1.01-6.263 1.01c-4.95 0-19.598-2.626-19.598-19.395 0-7.273 4.95-12.829 4.95-12.829l-11.92-6.264s-7.659 6.23-23.976 6.994l4.303 18.641c16.863 3.519 29.572 18.495 29.572 36.39 0 17.865-12.668 32.822-29.492 36.371l-3.738 19.938c9.068-7.887 31.499-26.535 42.625-28.125z"/><path fill="#fff" d="M100.957 67.806c0-17.096-12.649-31.198-29.094-33.557v-.385l-4.848-21.012-4.849 21.012v.385C45.722 36.607 33.073 50.71 33.073 67.806s12.649 31.198 29.093 33.557v.385l4.849 25.86 4.848-25.86v-.385c16.444-2.359 29.094-16.462 29.094-33.557m-58.186 0c0-11.708 8.342-21.502 19.396-23.755v47.51c-11.055-2.253-19.396-12.046-19.396-23.755m29.092 23.755v-47.51c11.055 2.253 19.396 12.047 19.396 23.755-.001 11.709-8.341 21.502-19.396 23.755"/></svg>