<svg xmlns="http://www.w3.org/2000/svg" xml:space="preserve" width="134.031" height="150" viewBox="0 0 134.031 150"><path d="M120.856 39.42c-.358 0-1.387-.03-2.734-.254-.629-1.19-1.004-2.779-1.004-4.897 0-6.466 4.344-10.405 4.344-10.405-3.868-3.14-8.046-6.029-11.957-8.519 2.086-2.931 4.359-4.721 4.359-4.721L93.711 0s-7.403 8.004-26.697 8.004S40.317 0 40.317 0L20.164 10.624s2.273 1.79 4.359 4.721c-3.911 2.489-8.089 5.379-11.958 8.519 0 0 4.344 3.939 4.344 10.405 0 2.118-.375 3.707-1.004 4.897a18 18 0 0 1-2.734.254C6.655 39.42 0 35.845 0 35.845l16.554 64.486 3.206.458c.519.074 1.086.208 1.686.384 1.806 7.787 2.77 12.327 2.77 12.327C47.92 124.006 67.014 150 67.014 150s19.094-25.994 42.798-36.5c0 0 .964-4.54 2.771-12.327.6-.176 1.166-.31 1.686-.384l3.207-.458 16.555-64.486c-.001 0-6.659 3.575-13.175 3.575M29.84 67.806c0 17.865 12.668 32.822 29.492 36.371l3.738 19.938c-9.068-7.887-31.498-26.535-42.625-28.125L6.909 43.259s3.031 1.01 6.263 1.01c4.95 0 19.597-2.626 19.597-19.395 0-7.273-4.95-12.829-4.95-12.829l11.92-6.264s7.658 6.23 23.976 6.994l-4.303 18.641C42.549 34.935 29.84 49.911 29.84 67.806m29.093-19.391v38.781c-7.585-3.174-12.93-10.668-12.93-19.391 0-8.721 5.344-16.215 12.93-19.39m54.649 47.574c-11.126 1.59-33.557 20.238-42.624 28.125l3.737-19.938c16.824-3.549 29.492-18.506 29.492-36.371 0-17.895-12.709-32.871-29.572-36.39l-4.303-18.641C86.629 12.01 94.288 5.78 94.288 5.78l11.92 6.264s-4.95 5.556-4.95 12.829c0 16.769 14.648 19.395 19.598 19.395 3.232 0 6.264-1.01 6.264-1.01zm-38.487-8.793V48.415c7.586 3.175 12.931 10.669 12.931 19.391s-5.345 16.216-12.931 19.39"/></svg>