<?xml version="1.0" encoding="UTF-8" standalone="no"?>
<svg
   version="1.1"
   width="600"
   height="713.81079"
   id="svg2"
   xmlns="http://www.w3.org/2000/svg"
   xmlns:svg="http://www.w3.org/2000/svg">
  <defs
     id="defs2" />
  <path
     d="m 283.85212,630.54296 c -15.89604,6.38663 -27.05752,21.87973 -27.05752,40.07253 0,23.83399 19.28075,43.19533 43.19533,43.19533 23.85413,0 43.13488,-19.36134 43.13488,-43.19533 0,-18.11221 -11.18162,-33.6859 -26.99708,-40.07253 v -38.94429 h 12.59192 L 600,0 H 513.972 0 l 267.73446,591.59867 h 16.11766 z"
     id="path1" />
  <path
     d="m 300.1511,359.58497 c 0,0 104.12008,-235.45885 104.20067,-235.62002 5.19794,-12.7531 15.35207,-26.67473 13.76045,-41.16048 C 416.62134,68.8627 402.29677,65.55858 390.40999,65.17578 V 55.34401 H 513.972 L 312.11846,498.0961 H 287.96212 L 85.927269,55.34401 H 209.65045 v 9.83177 c -8.50207,0.24177 -22.0409,1.4103 -26.13076,10.23472 -5.74191,12.10839 6.44707,36.82885 11.26222,48.55445 0,0.0806 105.36919,235.62002 105.36919,235.62002"
     style="fill:#ffffff"
     id="path2" />
</svg>
