<?xml version="1.0" encoding="UTF-8" standalone="no"?>
<svg
   version="1.1"
   width="528.19489"
   height="718.96429"
   id="svg1"
   xmlns="http://www.w3.org/2000/svg"
   xmlns:svg="http://www.w3.org/2000/svg">
  <defs
     id="defs1" />
  <path
     d="m 370.03377,156.48347 c 0,0 39.09529,74.99744 39.09529,123.99959 0,48.85887 -57.00543,130.4063 -57.00543,130.4063 -3.275,-26.13857 -26.0567,-88.09743 -37.49872,-117.44959 -11.44202,-29.27029 -34.22372,-76.594 -34.22372,-145.04145 C 280.40119,79.95087 327.66349,0 327.66349,0 159.75847,55.40886 122.25975,158.16191 122.25975,249.47293 c 0,91.22915 66.83042,213.5503 66.83042,213.5503 C 166.30846,436.88466 130.40631,397.78938 101.05414,358.67362 71.722439,319.57834 48.858868,239.70934 48.858868,239.70934 48.858868,239.70934 0,291.84321 0,386.34735 c 0,94.58602 74.997439,185.89705 96.182579,213.57077 21.185141,27.81701 21.185141,50.59871 37.498721,74.99745 16.23171,24.46013 39.09528,42.37027 63.57589,42.37027 0.88097,0 1.84219,0 2.70187,0.0819 L 127.13131,497.24698 267.3012,523.38556 180.94361,228.26735 392.81548,604.87158 233.15935,582.00801 l 66.19589,136.9563 h 0.55183 c 22.86358,0 55.40887,-3.275 86.43947,-30.94873 31.0306,-27.73513 63.55542,-110.8996 81.46556,-151.59144 17.99201,-40.85559 60.38276,-96.26446 60.38276,-189.17204 0,-149.99488 -158.1619,-190.76861 -158.1619,-190.76861"
     id="path1" />
</svg>
