<svg xmlns="http://www.w3.org/2000/svg" width="955.82" height="122.26" data-name="Layer 2" viewBox="0 0 955.82 122.26"><path d="M287.83 39.9C196.12 39.9 169.14 0 169.14 0S98.86 49.55 0 49.55v8.6h134.04c1.75-12.16 16.03-23.56 33.42-23.56 18.63 0 36.18 13.07 36.18 25.99S186.09 86.7 167.46 86.7c-16.87 0-30.77-10.78-33.21-22.49H0v8.52c98.86 0 169.14 49.53 169.14 49.53s26.98-39.88 118.7-39.88V39.9Zm23.09 20.89c0-36.63 17.25-41.18 17.25-41.18L844.88 32c29.31 0 110.94-3.03 110.94 25s-79.33 29.26-110.94 30.54l-516.71 15.14s-17.25-5.25-17.25-41.88z" data-name="Layer 1" style="stroke-width:0"/></svg>