<svg xmlns="http://www.w3.org/2000/svg" width="90.23" height="61.162"><linearGradient id="a" x1="19.222" x2="75.94" y1="13.922" y2="53.766" gradientTransform="translate(-.939 -.908)" gradientUnits="userSpaceOnUse"><stop offset=".1" style="stop-color:#612c75"/><stop offset=".4" style="stop-color:#bf99c3"/><stop offset=".7" style="stop-color:#612c75"/></linearGradient><path fill="#fff" d="m34.246 0-2.42.576c-4.92 1.169-10.436 3.407-15.189 7.145l-.367.288-.02.469c-.347 8.479 2.261 15.179 7.32 19.671 5.057 4.492 12.453 6.748 21.545 6.748 9.09 0 16.484-2.256 21.542-6.748s7.666-11.192 7.319-19.67l-.02-.469-.367-.289c-4.754-3.737-10.27-5.975-15.19-7.145L55.983 0l1.322 2.103c4.135 6.581 3.574 12.188.812 16.298s-7.88 6.687-13.002 6.687-10.239-2.578-13.002-6.687c-2.762-4.11-3.324-9.717.81-16.297zm-23.24 19.008-1.359 1.656C3.804 27.778.353 34.091.029 44.374l-.029.94.938.1c12.827 1.381 20.783 12.04 23.998 15.432l.3.316h39.756l.301-.316c3.215-3.392 11.173-14.05 24-15.432l.937-.1-.029-.94c-.325-10.283-3.775-16.596-9.619-23.71l-1.36-1.656-.421 2.102c-.609 3.036-2.532 8.13-7.514 12.449-4.982 4.32-13.05 7.931-26.172 7.931-13.12 0-21.19-3.612-26.172-7.931-4.981-4.32-6.905-9.413-7.513-12.45z"/><path d="M30.137 3.289c-3.045 6.236-2.552 12.02.287 16.244 3.185 4.739 8.895 7.586 14.69 7.586s11.503-2.847 14.687-7.586c2.84-4.224 3.333-10.008.287-16.244 3.967 1.173 8.13 2.93 11.836 5.75.209 7.771-2.14 13.614-6.617 17.59-4.573 4.062-11.438 6.234-20.193 6.234s-15.623-2.171-20.196-6.234c-4.476-3.976-6.825-9.819-6.617-17.59 3.707-2.82 7.87-4.577 11.836-5.75M10.008 23.565c1.026 3.343 3.172 7.688 7.602 11.529 5.382 4.667 14.007 8.428 27.504 8.428 13.496 0 22.122-3.761 27.504-8.428 4.43-3.841 6.576-8.186 7.601-11.53 4.72 6.04 7.42 11.49 7.854 20.032C75.139 45.489 67.071 55.899 64.1 59.131H26.125c-2.97-3.232-11.037-13.642-23.97-15.535.434-8.541 3.133-13.991 7.853-20.031" style="fill:url(#a)"/></svg>