<svg xmlns="http://www.w3.org/2000/svg" width="85.918" height="55.842"><path d="M27.982 0c-3.045 6.236-2.552 12.02.287 16.244 3.185 4.739 8.895 7.586 14.69 7.586s11.503-2.847 14.687-7.586c2.84-4.224 3.333-10.008.287-16.244 3.967 1.173 8.13 2.93 11.836 5.75.209 7.771-2.14 13.614-6.617 17.59-4.573 4.062-11.438 6.234-20.193 6.234s-15.623-2.171-20.196-6.234c-4.476-3.976-6.825-9.819-6.617-17.59 3.707-2.82 7.87-4.577 11.836-5.75M7.853 20.276c1.026 3.343 3.172 7.688 7.602 11.529 5.382 4.667 14.007 8.428 27.504 8.428 13.496 0 22.122-3.761 27.504-8.428 4.43-3.841 6.576-8.186 7.601-11.53 4.72 6.04 7.42 11.49 7.854 20.032C72.984 42.2 64.916 52.61 61.945 55.842H23.97C21 52.61 12.933 42.2 0 40.307c.434-8.541 3.133-13.991 7.853-20.031" style="fill:#000"/></svg>