<svg xmlns="http://www.w3.org/2000/svg" width="143pt" height="200pt" viewBox="0 0 143 200"><path fill="#fff" d="M134 190H10V9h124z"/><path d="M0 0h143v200H0Zm10 9v181h124V9Z"/><path d="M112.916 39.386q-2.52 1.8-8.274 2.61-5.755.81-6.025 1.979-.269 1.17-.268 3.688 0 8.091 4.135 29.945 4.136 21.855 5.399 24.73 1.62 11.872 5.214 30.217 3.596 18.344 6.384 20.234t8.724 1.891 5.218 6.29q-3.601.726-5.577.725-1.801 0-7.196-.81-5.396-.81-17.087-.809-10.791 0-14.117.897-3.327.898-3.689.541-1.795-1.8-1.795-3.057 0-1.8 6.924-3.33 6.924-1.528 8.363-4.047-2.34-16.006-4.767-32.283-2.43-16.278-4.048-16.997-1.62-.719-26.26 2.789t-26.62 6.021q-2.514 8.815-5.034 19.247T30 148.923q0 2.52.36 5.307.36 2.79 3.96 2.789l8.272-.725q1.8.543 1.8 2.341v2.88l-34.354 2.337q-.538-4.138-.538-5.22 0-.894.988-.716.987.18 2.607.54 1.8 0 3.507-1.259 1.707-1.26 6.475-19.156 4.766-17.897 7.286-27.069 0-.362-.272 1.079-.27 1.441-.271 1.616L47.45 48.02q-5.22-1.8-10.434-3.776-25.54-1.257-25.54-7.372 14.385.896 30.035 1.704 15.649.81 22.664.81 10.61 0 24.46-1.62 13.852-1.618 16.547-1.618 6.659 0 7.734 3.238M42.054 93.704q.538.544 5.753.544 8.814 0 20.416-.81t21.135-1.89q0-8.992-4.858-26.888t-5.758-18.706-2.698-.81H72.81a487 487 0 0 0-18.169.357 6577 6577 0 0 0-8.54 32.016q-4.227 16.007-4.046 16.187"/></svg>