<svg xmlns="http://www.w3.org/2000/svg" xml:space="preserve" width="1000" height="1000" style="clip-rule:evenodd;fill-rule:evenodd;stroke-linejoin:round;stroke-miterlimit:2"><path d="M.945-1.89h1000v1000H.945z" style="fill:none" transform="translate(-.945 1.89)"/><path d="M4.8 83.557h986.933s-27.938 19.585-72.723 164.088l-37.095.186v501.278h39.231s24.118 113.031 70.461 162.676H5.149s23.645-5.185 72.826-164.104h36.413V684.76H60.005V312.592h54.383v-63.841H77.502S36.135 107.049 4.8 83.557" style="fill:#fff"/><path d="M292.08 362.417v271.012H109.59V362.417Zm-117.668 151.07-23.868 68.482h103.041l-23.833-68.382c15.24-9.315 25.418-26.108 25.418-45.26 0-29.255-23.752-53.006-53.007-53.006s-53.006 23.75-53.006 53.006c0 19.084 10.107 35.825 25.255 45.16M169.274 244.71h82.2v70.806h-82.2zM169.274 681.752h82.2v67.957h-82.2zM359.431 244.71h82.966v504.999h-82.966zM552.877 244.71h82.966v504.999h-82.966zM744.191 244.71h82.966v504.999h-82.966zM115.108 197.77h765.816l18.407-64.423H96.702ZM115.108 798.887h765.816l18.407 64.424H96.702Z"/></svg>