<svg xmlns="http://www.w3.org/2000/svg" xml:space="preserve" style="fill-rule:evenodd;clip-rule:evenodd;stroke-linejoin:round;stroke-miterlimit:2" viewBox="0 0 1000 1000"><path d="M4832.33 0h1000v1000h-1000z" style="fill:none" transform="translate(-4832.333)"/><path d="M5.767 83.557H992.7s-27.938 19.585-72.723 164.088l-37.095.186v501.278h39.23s24.119 113.031 70.462 162.676H6.116S29.76 906.6 78.942 747.681h36.413V684.76H60.972V312.592h54.383v-63.841H78.469S37.102 107.049 5.767 83.557M252.44 681.752h-82.2v67.957h82.2zM828.123 244.71h-82.966v504.999h82.966zM293.046 362.417h-182.49v271.012h182.49zm-117.667 151.07c-15.148-9.335-25.255-26.076-25.255-45.16 0-29.255 23.75-53.006 53.006-53.006 29.255 0 53.007 23.751 53.007 53.006 0 19.152-10.18 35.945-25.418 45.26l23.833 68.382H151.51zm77.06-268.777h-82.198v70.806h82.199zm384.37 0h-82.965v504.999h82.966zM116.076 798.888l-18.406 64.423h802.629l-18.407-64.423zm0-601.117H881.89l18.407-64.424H97.668zm327.288 46.939h-82.965v504.999h82.965z"/></svg>