<svg xmlns="http://www.w3.org/2000/svg" xml:space="preserve" width="1000" height="1000" style="clip-rule:evenodd;fill-rule:evenodd;stroke-linejoin:round;stroke-miterlimit:2"><path d="M4832.33 0h1000v1000h-1000z" style="fill:none" transform="translate(-4832.33)"/><path d="M5.77 83.557h986.933s-27.938 19.585-72.723 164.088l-37.095.186v501.278h39.231s24.118 113.031 70.461 162.676H6.119s23.645-5.185 72.826-164.104h36.413V684.76H60.975V312.592h54.383v-63.841H78.472S37.105 107.049 5.77 83.557m246.673 598.195h-82.199v67.957h82.199zM828.126 244.71H745.16v504.999h82.966zM293.049 362.417H110.56v271.012h182.489zm-117.667 151.07c-15.148-9.335-25.255-26.076-25.255-45.16 0-29.255 23.751-53.006 53.006-53.006s53.007 23.751 53.007 53.006c0 19.152-10.179 35.945-25.418 45.26l23.833 68.382H151.514Zm77.061-268.777h-82.199v70.806h82.199zm384.37 0h-82.966v504.999h82.966zM116.078 798.888l-18.406 64.423h802.629l-18.407-64.423zm0-601.117h765.816l18.407-64.424H97.672Zm327.288 46.939h-82.965v504.999h82.965z"/></svg>