<?xml version="1.0" encoding="UTF-8" standalone="no"?>
<!-- Generator: Adobe Illustrator 15.1.0, SVG Export Plug-In . SVG Version: 6.00 Build 0)  -->

<svg
   version="1.1"
   id="Layer_1"
   x="0px"
   y="0px"
   width="149.99976"
   height="150"
   viewBox="0 0 149.99976 150"
   enable-background="new 0 0 155 155"
   xml:space="preserve"
   xmlns="http://www.w3.org/2000/svg"
   xmlns:svg="http://www.w3.org/2000/svg"><defs
   id="defs2" />
<g
   id="Layer_1_1_"
   transform="translate(-2.897625,-2.83375)">
</g>
<g
   id="Layer_3"
   display="none"
   transform="translate(-2.897625,-2.83375)">
</g>
<g
   id="g2"
   transform="translate(-2.897625,-2.83375)">
	
		<rect
   x="71.606003"
   y="71.542"
   transform="matrix(0.7071,0.7071,-0.7071,0.7071,77.846,-32.2846)"
   fill="none"
   width="12.582"
   height="12.584"
   id="rect1" />
	<path
   fill="#ffffff"
   d="M 39.513,90.492 17.429,122.219 C -1.946,95.892 -1.946,59.776 17.428,33.45 L 39.511,65.176 26.854,77.834 Z M 77.897,26.79 90.555,39.448 122.282,17.365 C 95.954,-2.01 59.839,-2.01 33.512,17.365 L 65.239,39.448 Z M 77.896,128.876 65.24,116.22 33.513,138.304 c 26.326,19.373 62.441,19.373 88.767,0 L 90.553,116.219 Z M 138.367,33.45 116.284,65.177 128.94,77.833 116.282,90.49 138.366,122.217 C 157.741,95.892 157.741,59.776 138.367,33.45 Z M 151.312,151.248 108.542,89.802 120.511,77.833 108.542,65.865 151.312,4.419 89.867,47.189 77.897,35.219 65.927,47.188 4.483,4.42 l 42.769,61.445 -11.97,11.969 11.971,11.97 -42.77,61.444 61.445,-42.769 11.968,11.967 11.97,-11.969 z M 77.896,86.73 l -8.897,-8.896 8.898,-8.897 8.896,8.896 z"
   id="path1" />
	<path
   d="M 31.771,91.18 17.632,111.492 C 6.001,90.647 6.001,65.022 17.632,44.178 L 31.77,64.488 18.425,77.834 Z m 106.392,-47.002 -14.139,20.311 13.345,13.345 -13.345,13.345 14.139,20.313 c 11.63,-20.846 11.63,-46.471 0,-67.314 z M 77.897,18.361 91.243,31.708 111.556,17.568 C 90.709,5.936 65.086,5.936 44.24,17.568 L 64.553,31.707 Z M 77.896,137.305 64.551,123.961 44.24,138.1 c 20.845,11.63 46.468,11.63 67.313,0 L 91.24,123.96 Z m 34.185,-59.472 -11.28,11.281 26.618,38.24 -38.242,-26.617 -11.28,11.28 -11.28,-11.279 -38.24,26.616 L 54.994,89.115 43.712,77.834 54.993,66.553 28.376,28.313 66.616,54.93 77.897,43.649 89.178,54.931 127.418,28.313 100.801,66.553 Z M 77.897,60.507 60.57,77.834 77.896,95.16 95.223,77.833 Z"
   id="path2" />
</g>
</svg>
