<?xml version="1.0" encoding="UTF-8" standalone="no"?>
<!-- Generator: Adobe Illustrator 15.1.0, SVG Export Plug-In . SVG Version: 6.00 Build 0)  -->

<svg
   version="1.1"
   id="Layer_1"
   x="0px"
   y="0px"
   width="150"
   height="127.134"
   viewBox="0 0 150 127.134"
   enable-background="new 0 0 160 132"
   xml:space="preserve"
   xmlns="http://www.w3.org/2000/svg"
   xmlns:svg="http://www.w3.org/2000/svg"><defs
   id="defs11" />
<g
   id="Layer_1_1_"
   transform="translate(-4.734,-2.296)">
</g>
<g
   id="Layer_3"
   display="none"
   transform="translate(-4.734,-2.296)">
</g>
<g
   id="g11"
   transform="translate(-4.734,-2.296)">
	<path
   d="m 60.814,112.452 c -1.678,-0.395 -3.335,-0.875 -4.962,-1.44 L 43.224,122.926 20.46,104.71 29.427,89.592 c -0.883,-1.46 -1.69,-2.965 -2.42,-4.506 L 9.56,84.579 6.344,55.601 23.818,51.138 c 0.474,-1.828 1.052,-3.63 1.729,-5.395 L 4.734,2.316 36.061,27.765 45.212,16.33 60.698,25.515 c 1.339,-0.834 2.718,-1.607 4.129,-2.313 L 65.341,5.51 94.32,2.296 98.656,19.271 c 1.678,0.395 3.334,0.875 4.961,1.441 l 12.629,-11.915 22.764,18.217 -8.967,15.117 c 0.883,1.46 1.691,2.965 2.42,4.505 l 17.447,0.508 3.216,28.978 -17.474,4.463 c -0.473,1.828 -1.051,3.632 -1.729,5.396 l 20.811,43.428 -31.326,-25.45 -9.15,11.436 -15.486,-9.185 c -1.34,0.835 -2.719,1.605 -4.129,2.312 l -0.515,17.693 -28.979,3.215 z"
   id="path1" />
	<linearGradient
   id="SVGID_1_"
   gradientUnits="userSpaceOnUse"
   x1="34.0732"
   y1="111.5244"
   x2="125.398"
   y2="20.199699">
		<stop
   offset="0"
   style="stop-color:#612C75"
   id="stop1" />
		<stop
   offset="0.1093"
   style="stop-color:#6E3E82"
   id="stop2" />
		<stop
   offset="0.2"
   style="stop-color:#7B5190"
   id="stop3" />
		<stop
   offset="0.3302"
   style="stop-color:#A078AB"
   id="stop4" />
		<stop
   offset="0.4354"
   style="stop-color:#B790BD"
   id="stop5" />
		<stop
   offset="0.5"
   style="stop-color:#BF99C3"
   id="stop6" />
		<stop
   offset="0.5646"
   style="stop-color:#B790BD"
   id="stop7" />
		<stop
   offset="0.6698"
   style="stop-color:#A078AB"
   id="stop8" />
		<stop
   offset="0.8"
   style="stop-color:#7B5190"
   id="stop9" />
		<stop
   offset="0.8907"
   style="stop-color:#6E3E82"
   id="stop10" />
		<stop
   offset="1"
   style="stop-color:#612C75"
   id="stop11" />
	</linearGradient>
	<path
   fill="url(#SVGID_1_)"
   d="M 80.963,63.792 69.926,54.826 c 3.97,-5.186 10.22,-8.532 17.254,-8.532 11.996,0 21.721,9.724 21.721,21.721 0,5.423 -1.992,10.379 -5.279,14.185 l -11.04,-8.97 c 1.307,-1.352 2.113,-3.188 2.113,-5.216 0,-4.152 -3.365,-7.516 -7.516,-7.516 -2.585,0.001 -4.865,1.306 -6.216,3.294 z m -8.672,7.433 c -4.15,0 -7.517,-3.364 -7.517,-7.516 0,-2.028 0.808,-3.865 2.113,-5.217 L 55.848,49.524 c -3.286,3.806 -5.278,8.762 -5.278,14.185 0,11.996 9.725,21.721 21.721,21.721 7.033,0 13.283,-3.348 17.254,-8.532 L 78.508,67.932 c -1.354,1.986 -3.632,3.293 -6.217,3.293 z m 56.809,14.9 c 1.258,-2.906 2.222,-5.967 2.855,-9.149 l 16.363,-4.179 -2.369,-21.355 -16.405,-0.477 c -1.247,-3.096 -2.823,-6.022 -4.687,-8.739 l 8.402,-14.164 -16.777,-13.425 -11.848,11.179 c -3.038,-1.257 -6.242,-2.198 -9.57,-2.777 L 90.996,7.103 69.641,9.473 69.159,26.055 c -2.947,1.268 -5.736,2.836 -8.326,4.669 L 46.261,22.08 39.705,30.273 63.775,49.829 C 69.2,42.858 77.663,38.37 87.18,38.37 c 16.372,0 29.645,13.271 29.645,29.645 0,7.317 -2.656,14.012 -7.051,19.182 l 32.49,26.396 z M 17.206,18.132 49.697,44.527 c -4.395,5.171 -7.051,11.864 -7.051,19.183 0,16.373 13.271,29.645 29.645,29.645 9.516,0 17.979,-4.489 23.403,-11.46 l 24.071,19.555 -6.557,8.193 L 98.639,101 c -2.59,1.832 -5.379,3.4 -8.327,4.669 l -0.482,16.582 -21.354,2.369 -4.07,-15.935 c -3.327,-0.58 -6.531,-1.52 -9.569,-2.779 L 42.988,117.086 26.213,103.662 34.614,89.497 C 32.752,86.781 31.175,83.854 29.927,80.759 L 13.522,80.281 11.153,58.927 27.517,54.747 c 0.633,-3.182 1.598,-6.242 2.854,-9.148 z"
   id="path11"
   style="fill:url(#SVGID_1_)" />
</g>
</svg>
