<?xml version="1.0" encoding="UTF-8" standalone="no"?>
<!-- Generator: Adobe Illustrator 15.1.0, SVG Export Plug-In . SVG Version: 6.00 Build 0)  -->

<svg
   version="1.1"
   id="Layer_1"
   x="0px"
   y="0px"
   width="150"
   height="128.513"
   viewBox="0 0 150 128.513"
   enable-background="new 0 0 160 132"
   xml:space="preserve"
   xmlns="http://www.w3.org/2000/svg"
   xmlns:svg="http://www.w3.org/2000/svg"><defs
   id="defs1" />
<g
   id="Layer_1_1_"
   transform="translate(-5.235,-1.605)">
</g>
<g
   id="Layer_3"
   display="none"
   transform="translate(-5.235,-1.605)">
</g>
<g
   id="g1"
   transform="translate(-5.235,-1.605)">
	<path
   d="m 81.578,63.599 -12.07,-9.805 c 4.341,-5.671 11.175,-9.331 18.868,-9.331 13.118,0 23.753,10.633 23.753,23.752 0,5.931 -2.179,11.351 -5.773,15.512 L 94.284,73.92 c 1.429,-1.479 2.311,-3.485 2.311,-5.704 0,-4.541 -3.68,-8.218 -8.219,-8.218 -2.828,0 -5.32,1.426 -6.798,3.601 z m -9.483,8.128 c -4.539,0 -8.22,-3.679 -8.22,-8.219 0,-2.218 0.883,-4.227 2.311,-5.705 L 54.114,47.996 c -3.593,4.162 -5.772,9.582 -5.772,15.512 0,13.118 10.634,23.753 23.753,23.753 7.691,0 14.525,-3.661 18.868,-9.331 l -12.07,-9.805 c -1.48,2.173 -3.972,3.602 -6.798,3.602 z m 62.123,16.294 c 1.376,-3.178 2.43,-6.524 3.123,-10.005 l 17.894,-4.57 -2.59,-23.353 -17.94,-0.521 c -1.364,-3.385 -3.088,-6.586 -5.125,-9.557 L 138.768,24.526 120.421,9.844 107.464,22.069 c -3.322,-1.375 -6.826,-2.404 -10.465,-3.037 L 92.55,1.605 69.196,4.197 68.668,22.33 c -3.223,1.386 -6.273,3.101 -9.105,5.105 l -15.935,-9.452 -7.169,8.96 26.322,21.385 c 5.932,-7.623 15.187,-12.531 25.594,-12.531 17.904,0 32.418,14.513 32.418,32.417 0,8.002 -2.904,15.323 -7.71,20.977 l 35.529,28.865 z M 11.856,13.667 47.387,42.53 c -4.806,5.655 -7.71,12.974 -7.71,20.978 0,17.904 14.513,32.418 32.418,32.418 10.405,0 19.66,-4.909 25.593,-12.532 l 26.323,21.384 -7.17,8.96 -15.934,-9.45 c -2.832,2.004 -5.882,3.719 -9.106,5.106 l -0.527,18.133 -23.353,2.591 -4.451,-17.425 c -3.639,-0.635 -7.143,-1.662 -10.465,-3.04 l -12.957,12.226 -18.345,-14.68 9.188,-15.49 c -2.037,-2.97 -3.761,-6.17 -5.125,-9.556 L 7.826,81.63 5.235,58.278 23.13,53.707 c 0.692,-3.479 1.748,-6.826 3.121,-10.004 z"
   id="path1" />
</g>
</svg>
