<svg xmlns="http://www.w3.org/2000/svg" width="143pt" height="200pt" viewBox="0 0 143 200"><path fill="url(#a)" d="M134 9v181H10V9Z" style="fill:url(#a)"/><radialGradient id="a" cx="0" cy="0" r="1" fx="0" fy="0" gradientTransform="matrix(71.5 0 0 -71.5 71.5 100)" gradientUnits="userSpaceOnUse" spreadMethod="pad"><stop offset="0" style="stop-color:#bf99c3"/><stop offset=".7" style="stop-color:#7b5190"/><stop offset="1" style="stop-color:#612c75"/></radialGradient><path d="M0 0h143v200H0Zm10 9c-.01 13.24.02 26.47-.02 39.71l1.78-.44c12.67 2.13 25.44 4.57 38.35 3.91 2.75-.56 4.7-2.76 6.87-4.36 7.95-6.49 18.76-8.39 28.76-7.23 9.38 1 18.87 5.23 24.52 13.01 6.55 8.48 7.33 20.2 4.63 30.25-3.32 10.17-13.57 14.94-21.71 20.65 6.65 12.61 15.44 23.85 24.1 35.1 2.6 3.14 4.11 7.25 7.5 9.67 2.86 1.37 6.14 1.34 9.22 1.92V9Zm54.52 42.7c-4.02 1.04-7.59 3.99-9.07 7.92-1.81 4.54-1.41 9.55-1.45 14.35.03 5.63-.5 11.63 2.21 16.8 2.59 5.09 8.26 7.74 13.73 8.34 7.41 1.17 15.75-.48 21.02-6.16 5.05-4.78 6.29-12.27 5.47-18.92-.59-7.45-4.16-14.84-10.36-19.18-6.27-4.18-14.36-4.66-21.55-3.15M10 52.87V190h124v-33.75h-21c-1.53-.1-3.27.33-4.53-.78-6.16-3.9-9.7-10.51-13.61-16.43-5.92-8.91-11.72-17.99-18.89-25.97-5.04-5.78-12.74-8.72-20.33-8.64-1.15 6.77-.82 13.68-.88 20.52.17 6.94-.83 13.92.1 20.83.29 2.55 1.93 4.99 4.55 5.54 6.97 1.79 14.24.43 21.34 1.01 2.33.82 1.57 4.11.45 5.7-6.42.16-12.77-.93-19.17-1.29-11.65.1-23.34-.51-34.92 1.04-3.67 0-7.65 1.62-11.13.1-.24-.78-.72-2.34-.96-3.11 5.37-3.95 12.57-1.48 18.62-3.2 3.13-3.66 2.68-8.96 3.27-13.46.23-15.05.02-30.1.09-45.14.19-10.21-.61-20.46-2.68-30.46-.62-2.3-1.08-5.36-3.77-6.11-6.66-2.19-13.95-1.08-20.55-3.53" style="fill:#fff;fill-opacity:1"/></svg>