<svg xmlns="http://www.w3.org/2000/svg" width="224.915" height="263.969"><linearGradient id="b" x1="376.063" x2="595.938" y1="227.969" y2="227.969" gradientTransform="translate(-373.542 -57.031)" gradientUnits="userSpaceOnUse"><stop offset="0" style="stop-color:#612c75"/><stop offset=".2" style="stop-color:#7b5190"/><stop offset=".5" style="stop-color:#bf99c3"/><stop offset=".8" style="stop-color:#7b5190"/><stop offset="1" style="stop-color:#612c75"/></linearGradient><linearGradient id="a" x1="376.063" x2="595.938" y1="154.262" y2="154.262" gradientTransform="translate(-373.542 -57.031)" gradientUnits="userSpaceOnUse"><stop offset="0" style="stop-color:#612c75"/><stop offset=".08" style="stop-color:#7b5190"/><stop offset=".18" style="stop-color:#bf99c3"/><stop offset=".82" style="stop-color:#bf99c3"/><stop offset=".92" style="stop-color:#7b5190"/><stop offset="1" style="stop-color:#612c75"/></linearGradient><path d="M112.458 0c-9.25 10.887-22.406 104.25-22.406 104.25S77.994 29.823 68.02 12.438c-9.377 17.973-18.72 95.03-18.72 95.03L24.897 45.282C12.238 72.64-6.906 155.777 2.52 183.031c13.818 39.95 89.115 22.288 102 80.938h15.875c12.884-58.65 88.181-40.988 102-80.938 9.426-27.254-9.717-110.391-22.375-137.75l-24.407 62.188s-9.342-77.058-18.718-95.031c-9.974 17.385-22.032 91.812-22.032 91.812S121.707 10.887 112.458 0" style="fill:#fff"/><path d="M24.958 67.094c-3.73 12.81-13.726 52.431-14.25 79.125 11.385-12.435 31.75-27.281 31.75-27.281.75-1.97.75-1.97 0-3.782zm175 0-17.5 48.062c-.75 1.813-.75 1.813 0 3.781 0 0 20.365 14.847 31.75 27.282-.524-26.694-10.519-66.316-14.25-79.125" style="fill:url(#a)"/><path d="M112.458 19.844 93.583 144.219s-12.425 3.031-18.625 10.75c14.086 5.365 31.488 22.377 37.5 41.875 6.012-19.498 23.414-36.51 37.5-41.875-6.2-7.719-18.625-10.75-18.625-10.75zM68.646 40.125 53.77 124.813s-44.313 23.87-44.313 46.125c0 41.379 78.265 27.71 103 85.03 24.735-57.32 103-43.651 103-85.03 0-22.255-44.312-46.125-44.312-46.125L156.27 40.125 140.49 135.5s36.062 16.143 36.062 31.125c0 19.232-37.844 12.216-64.094 44.063-26.25-31.847-64.094-24.83-64.094-44.063 0-14.982 36.063-31.125 36.063-31.125z" style="fill:url(#b)"/></svg>