<svg xmlns="http://www.w3.org/2000/svg" width="206" height="236.125"><path d="M15.5 47.25C11.769 60.06 1.774 99.682 1.25 126.375 12.635 113.94 33 99.094 33 99.094c.75-1.969.75-1.969 0-3.781zm175 0L173 95.313c-.75 1.812-.75 1.812 0 3.78 0 0 20.365 14.847 31.75 27.282-.524-26.693-10.519-66.315-14.25-79.125"/><path d="M103 0 84.125 124.375S71.7 127.406 65.5 135.125C79.586 140.49 96.988 157.502 103 177c6.012-19.498 23.414-36.51 37.5-41.875-6.2-7.719-18.625-10.75-18.625-10.75zM59.188 20.281 44.312 104.97S0 128.839 0 151.094c0 41.379 78.265 27.71 103 85.031 24.735-57.321 103-43.652 103-85.031 0-22.254-44.312-46.125-44.312-46.125L146.813 20.28l-15.782 95.375s36.063 16.143 36.063 31.125c0 19.233-37.844 12.216-64.094 44.063-26.25-31.847-64.094-24.83-64.094-44.063 0-14.982 36.063-31.125 36.063-31.125z"/></svg>