<?xml version="1.0" encoding="UTF-8" standalone="no"?>
<svg
   version="1.1"
   width="287.02148"
   height="286.86133"
   viewBox="0 0 269.08264 268.9325"
   id="svg1"
   xmlns="http://www.w3.org/2000/svg"
   xmlns:svg="http://www.w3.org/2000/svg">
  <defs
     id="defs1" />
  <path
     d="m 135.02747,0 c 0,0 -86.138856,99.497283 -87.172855,100.88928 3.111,2.042 87.791745,54.88769 87.791745,54.88769 0,0 82.30455,-50.58711 87.68555,-54.02709 C 222.34591,100.64487 135.02746,-9.9999996e-8 135.02747,0 Z m -6.9452,26.561279 v 55.215454 55.722657 c -1.728,-1.03602 -57.749776,-36.47933 -58.701776,-37.10633 0.833,-1.085997 58.488776,-73.847781 58.701776,-73.831781 z M 231.70716,139.4989 c -4.33102,2.541 -93.26858,55.93092 -96.63758,57.91992 -1.728,-0.938 -93.409954,-55.67791 -95.527955,-56.84693 -0.056,0.002 -0.09817,0.014 -0.128173,0.033 C 38.671452,141.09689 0,185.4291 0,185.4291 l 134.82238,83.50339 134.26026,-82.1466 c 0,0 -34.0695,-43.45699 -37.37548,-47.28699 z m -189.439093,19.50073 85.810553,51.50025 0.002,19.74975 c 10e-4,10.862 0.002,18.68884 0.002,19.81384 -1.00298,-0.6 -108.034051,-66.39587 -108.034051,-66.39587 z"
     id="path1" />
</svg>
