<?xml version="1.0" encoding="UTF-8" standalone="no"?>
<svg
   version="1.1"
   x="0px"
   y="0px"
   width="299.99789"
   height="286.01001"
   id="svg5"
   xmlns:xlink="http://www.w3.org/1999/xlink"
   xmlns="http://www.w3.org/2000/svg"
   xmlns:svg="http://www.w3.org/2000/svg">
  <defs
     id="defs5">
    <linearGradient
       xlink:href="#SVGID_3_"
       id="linearGradient5"
       gradientUnits="userSpaceOnUse"
       gradientTransform="matrix(10.2168,0,0,-10.2168,5230.1514,6270.6543)"
       x1="-512.27509"
       y1="599.63483"
       x2="-482.2428"
       y2="599.63489" />
    <linearGradient
       xlink:href="#SVGID_3_"
       id="linearGradient6"
       gradientUnits="userSpaceOnUse"
       gradientTransform="matrix(10.2168,0,0,-10.2168,5230.1514,6270.6543)"
       x1="-512.27509"
       y1="599.63483"
       x2="-482.2428"
       y2="599.63489" />
  </defs>
  <g
     id="Layer_1"
     transform="translate(3.7577918e-4)">
    <g
       id="g5">
      <path
         d="m 128.789,31.102 c -6.737,12.638 -11.129,25.241 -13.098,37.366 -9.787,-0.014 -14.938,0.657 -14.938,0.657 -1.766,0.076 -42.321,2.379 -73.405,39.29 -28.562,33.939 -27.69,67.988 -27.203,74.464 l 1.36,18.832 c 0,0 29.67,-26.949 63.715,-28.358 39.193,0.018 71.059,28.569 78.719,65.732 3.392,16.785 1.175,46.925 1.175,46.925 0,0 18.504,-11.792 27.427,-31.083 7.721,-16.587 9.954,-23.594 11.902,-35.372 11.182,1.2 14.822,-0.031 14.822,-0.031 1.646,-0.1 42.321,-2.379 73.383,-39.37 28.439,-33.765 27.639,-67.861 27.238,-74.332 L 298.541,87.043 283.613,98.528 C 269.431,109.417 252.535,115.249 234.722,115.23 193.523,115.239 160.638,83.729 155.241,43.69 153.219,28.413 155.445,0 155.445,0 c 0,0 -18.457,15.777 -26.656,31.102"
         id="path1" />
      <path
         style="fill:url(#linearGradient5)"
         id="SVGID_1_"
         d="m 35.063,114.93 c -26.264,31.196 -25.202,62.245 -24.86,67.228 15.182,-11.809 34.304,-18.861 55.032,-18.857 49.702,-0.019 90.032,40.328 90.038,90.09 0.009,4.053 -0.336,8.058 -0.82,12.072 l 0.027,-0.007 c 14.628,-21.387 31.837,-57.7 12.228,-92.994 -15.514,-28.055 -30.102,-18.475 -51.23,-46.529 -16.598,-21.838 -14.313,-46.751 -14.313,-46.751 0,0 -5.604,0.254 -14.175,2.55 -13.545,3.631 -34.426,12.374 -51.927,33.198 m 98.204,1.304 c 15.507,28.028 30.035,18.436 51.215,46.475 16.546,21.852 14.28,46.731 14.28,46.731 0,0 37.562,-1.728 66.209,-35.774 26.244,-31.163 25.188,-62.298 24.854,-67.142 -15.316,11.731 -34.371,18.822 -55.134,18.799 -49.589,0.016 -89.971,-40.316 -89.964,-90.026 0.004,-4.113 0.301,-8.191 0.825,-12.159 -14.68,21.402 -31.861,57.708 -12.285,93.096" />
      <linearGradient
         id="SVGID_3_"
         gradientUnits="userSpaceOnUse"
         x1="-512.27509"
         y1="599.63483"
         x2="-482.2428"
         y2="599.63489"
         gradientTransform="matrix(10.2168,0,0,-10.2168,5230.1514,6270.6543)">
        <stop
           style="stop-color:#536e78"
           offset="0"
           id="stop1" />
        <stop
           style="stop-color:#99aebc"
           offset="0.3"
           id="stop2" />
        <stop
           style="stop-color:#d9eaf3"
           offset="0.5"
           id="stop3" />
        <stop
           style="stop-color:#99aebc"
           offset="0.7"
           id="stop4" />
        <stop
           style="stop-color:#536e78"
           offset="1"
           id="stop5" />
      </linearGradient>
    </g>
  </g>
</svg>
