<?xml version="1.0" encoding="UTF-8" standalone="no"?>
<svg
   version="1.1"
   x="0px"
   y="0px"
   width="279.83691"
   height="242.325"
   id="svg1"
   xmlns="http://www.w3.org/2000/svg"
   xmlns:svg="http://www.w3.org/2000/svg">
  <defs
     id="defs1" />
  <path
     d="M 24.969027,91.792 C -1.2949735,122.988 -0.23297349,154.037 0.10902651,159.02 15.291027,147.211 34.413027,140.159 55.141027,140.163 c 49.702003,-0.019 90.032003,40.328 90.038003,90.09 0.009,4.053 -0.336,8.058 -0.82,12.072 l 0.027,-0.007 c 14.628,-21.387 31.837,-57.7 12.228,-92.994 -15.514,-28.055 -30.102,-18.475 -51.23,-46.529 C 88.786027,80.957 91.071027,56.044 91.071027,56.044 c 0,0 -5.604,0.254 -14.175,2.55 -13.545,3.631 -34.426,12.374 -51.927,33.198 m 98.204003,1.304 c 15.507,28.028 30.035,18.436 51.215,46.475 16.546,21.852 14.28,46.731 14.28,46.731 0,0 37.562,-1.728 66.209,-35.774 26.244,-31.163 25.188,-62.298 24.854,-67.142 -15.316,11.731 -34.371,18.822 -55.134,18.799 -49.589,0.016 -89.971,-40.316 -89.964,-90.026 0.004,-4.113 0.301,-8.191 0.825,-12.159 -14.68,21.402 -31.861,57.708 -12.285,93.096"
     id="path1" />
</svg>
