<?xml version="1.0" encoding="UTF-8" standalone="no"?>
<svg
   width="375.0097"
   height="340.33203"
   viewBox="0 0 375.0097 340.33203"
   version="1.1"
   xml:space="preserve"
   style="clip-rule:evenodd;fill-rule:evenodd;stroke-linecap:round;stroke-linejoin:round;stroke-miterlimit:1.5"
   id="svg13"
   xmlns="http://www.w3.org/2000/svg"
   xmlns:svg="http://www.w3.org/2000/svg"><defs
   id="defs13" />
    <path
   d="M 287.14996,1.8237039e-5 C 287.29796,-0.04098176 311.25496,69.063018 351.25096,68.605018 l -7.499,39.029002 c 0,0 -15.776,83.341 -53.373,164.342 0,0 -55.638,45.019 -103.253,68.356 0,0 -50.25,-25.225 -103.868996,-68.55 0,0 -22.298,-49.735 -40.866,-114.275 -18.568,-64.540002 -18.674,-88.387002 -18.822,-88.344002 -0.148,0.042 34.269,4.443 64.169,-68.77799976 l 8.098,-0.305 c 0,0 82.270996,40.73599976 181.908996,0.177 0,0 9.258,-0.216 9.405,-0.257000002961 z"
   style="fill:#ffffff"
   id="path1" />
    <g
   id="Ebene3"
   transform="translate(-311.57104,-299.78398)">
        <path
   d="m 398.054,343.796 9.67,66.195 h -45.541 l -6.09,-27 c 0,0 23.74,-8.213 41.961,-39.195 z"
   id="path2" />
        <g
   transform="matrix(-1,0,0,1,997.364,-0.0688685)"
   id="g3">
            <path
   d="m 398.054,343.796 9.67,66.195 h -45.541 l -6.09,-27 c 0,0 23.74,-8.213 41.961,-39.195 z"
   id="path3" />
        </g>
        <path
   d="m 580.244,322.625 c 0,0 -8.259,96.998 -8.267,97.03 -0.008,0.032 -16.822,-60.43 -16.822,-60.43 l -13.171,16.919 h -86.579 l -13.296,-16.919 -16.203,60.43 c 0,0 -8.914,-97.842 -8.65,-97.03 0.263,0.813 78.395,31.758 162.988,0 z"
   id="path4" />
        <path
   d="m 616.193,481.985 c 0,0 -28.484,76.81 -28.871,77.113 -0.387,0.303 -21.275,16.195 -21.275,16.195 l 7.331,-54.355 c 0,0 42.632,-38.919 42.815,-38.953 z"
   id="path5" />
        <g
   transform="matrix(-1,0,0,1,997.12,0)"
   id="g6">
            <path
   d="m 616.193,481.985 c 0,0 -28.484,76.81 -28.871,77.113 -0.387,0.303 -21.275,16.195 -21.275,16.195 l 7.331,-54.355 c 0,0 42.632,-38.919 42.815,-38.953 z"
   id="path6" />
        </g>
        <path
   d="m 442.365,535.784 c 0.072,-0.067 56.096,40.511 56.233,40.534 0.136,0.022 56.398,-40.342 56.583,-40.534 0.185,-0.192 -9.884,53.905 -9.986,54.106 -0.101,0.201 -46.597,28.811 -46.597,28.811 L 452.754,589.89 c 0,0 -10.443,-54.055 -10.389,-54.106 z"
   id="path7" />
    </g>
    <g
   transform="matrix(1.01935,0,0,1.01935,-321.22675,-309.38556)"
   id="g8">
        <path
   d="m 315.129,407.291 c 0,0 26.931,0.018 26.87,0.031 -0.06,0.013 20.167,2.57 20.132,2.647 -0.036,0.077 46.055,0.111 46.055,0.111 l 18.268,9.299 c 0,0 15.365,-61.027 15.389,-60.955 0.024,0.072 13.681,16.76 13.681,16.76 l 86.594,-0.073 13.409,-16.788 15.819,61.071 18.491,-9.039 46.174,-0.598 20.178,-2.545 26.831,0.318 c 0,0 -50.678,77.137 -184.392,169.584 0,0 -139.023,-94.686 -183.499,-169.823 z"
   id="path8" />
    </g>
    <g
   id="Ebene1"
   transform="translate(-311.57104,-299.78398)">
        <path
   d="m 527.356,417.318 15.98,40.797 21.392,-13.524 -13.799,-60.343 z"
   style="fill:#ffffff"
   id="path9" />
        <g
   transform="matrix(-1,0,0,1,997.491,0.0391583)"
   id="g10">
            <path
   d="m 527.356,417.318 15.98,40.797 21.392,-13.524 -13.799,-60.343 z"
   style="fill:#ffffff"
   id="path10" />
        </g>
        <path
   d="m 464.718,386.207 c 0,0 18.065,22.699 17.916,22.835 -0.15,0.137 32.69,0.316 32.69,0.316 l 17.587,-23.2 c 0,0 -68.238,0.205 -68.193,0.049 z"
   style="fill:#ffffff"
   id="path11" />
        <path
   d="m 482.907,421.242 31.547,-0.296 19.29,54.558 -35.125,22.277 -35.125,-21.638 z"
   style="fill:#ffffff"
   id="path12" />
        <path
   d="m 420.808,439.317 c 0,0 -3.264,12.351 -3.175,12.495 0.09,0.144 32.188,23.57 32.188,23.57 l -2.871,8.218 c 0,0 51.922,32.868 51.937,32.811 0.016,-0.056 51.256,-32.595 51.343,-32.599 0.086,-0.004 -3.065,-7.89 -3.065,-7.89 l 32.633,-23.332 -3.456,-13.779 c 0,0 16.27,0.503 20.103,-16.678 0,0 57.803,-0.043 57.775,-0.119 -0.028,-0.077 -69.888,79.879 -155.545,133.141 0,0 -91.373,-59.663 -155.645,-133.115 l 57.532,0.283 c 0,0 4.768,16.983 20.246,16.994 z"
   style="fill:#ffffff;stroke:#ffffff;stroke-width:1px"
   id="path13" />
    </g>
</svg>
