<?xml version="1.0" encoding="UTF-8" standalone="no"?>
<!DOCTYPE svg PUBLIC "-//W3C//DTD SVG 1.1//EN" "http://www.w3.org/Graphics/SVG/1.1/DTD/svg11.dtd">
<svg width="100%" height="100%" viewBox="0 0 1000 1000" version="1.1" xmlns="http://www.w3.org/2000/svg" xmlns:xlink="http://www.w3.org/1999/xlink" xml:space="preserve" xmlns:serif="http://www.serif.com/" style="fill-rule:evenodd;clip-rule:evenodd;stroke-linecap:round;stroke-linejoin:round;stroke-miterlimit:1.5;">
    <path d="M598.721,299.784C598.869,299.743 622.826,368.847 662.822,368.389L655.323,407.418C655.323,407.418 639.547,490.759 601.95,571.76C601.95,571.76 546.312,616.779 498.697,640.116C498.697,640.116 448.447,614.891 394.828,571.566C394.828,571.566 372.53,521.831 353.962,457.291C335.394,392.751 335.288,368.904 335.14,368.947C334.992,368.989 369.409,373.39 399.309,300.169L407.407,299.864C407.407,299.864 489.678,340.6 589.316,300.041C589.316,300.041 598.574,299.825 598.721,299.784Z"/>
    <g id="Ebene3">
        <path d="M398.054,343.796L407.724,409.991L362.183,409.991L356.093,382.991C356.093,382.991 379.833,374.778 398.054,343.796Z" style="fill:url(#_Linear1);"/>
        <g transform="matrix(-1,0,0,1,997.364,-0.0688685)">
            <path d="M398.054,343.796L407.724,409.991L362.183,409.991L356.093,382.991C356.093,382.991 379.833,374.778 398.054,343.796Z" style="fill:url(#_Linear2);"/>
        </g>
        <path d="M580.244,322.625C580.244,322.625 571.985,419.623 571.977,419.655C571.969,419.687 555.155,359.225 555.155,359.225L541.984,376.144L455.405,376.144L442.109,359.225L425.906,419.655C425.906,419.655 416.992,321.813 417.256,322.625C417.519,323.438 495.651,354.383 580.244,322.625Z" style="fill:url(#_Linear3);"/>
        <path d="M616.193,481.985C616.193,481.985 587.709,558.795 587.322,559.098C586.935,559.401 566.047,575.293 566.047,575.293L573.378,520.938C573.378,520.938 616.01,482.019 616.193,481.985Z" style="fill:url(#_Linear4);"/>
        <g transform="matrix(-1,0,0,1,997.12,0)">
            <path d="M616.193,481.985C616.193,481.985 587.709,558.795 587.322,559.098C586.935,559.401 566.047,575.293 566.047,575.293L573.378,520.938C573.378,520.938 616.01,482.019 616.193,481.985Z" style="fill:url(#_Linear5);"/>
        </g>
        <path d="M442.365,535.784C442.437,535.717 498.461,576.295 498.598,576.318C498.734,576.34 554.996,535.976 555.181,535.784C555.366,535.592 545.297,589.689 545.195,589.89C545.094,590.091 498.598,618.701 498.598,618.701L452.754,589.89C452.754,589.89 442.311,535.835 442.365,535.784Z" style="fill:url(#_Linear6);"/>
    </g>
    <path d="M315.129,407.291C315.129,407.291 342.06,407.309 341.999,407.322C341.939,407.335 362.166,409.892 362.131,409.969C362.095,410.046 408.186,410.08 408.186,410.08L426.454,419.379C426.454,419.379 441.819,358.352 441.843,358.424C441.867,358.496 455.524,375.184 455.524,375.184L542.118,375.111L555.527,358.323L571.346,419.394L589.837,410.355L636.011,409.757L656.189,407.212L683.02,407.53C683.02,407.53 632.342,484.667 498.628,577.114C498.628,577.114 359.605,482.428 315.129,407.291Z"/>
    <g id="Ebene1">
        <path d="M527.356,417.318L543.336,458.115L564.728,444.591L550.929,384.248L527.356,417.318Z" style="fill:white;"/>
        <g transform="matrix(-1,0,0,1,997.491,0.0391583)">
            <path d="M527.356,417.318L543.336,458.115L564.728,444.591L550.929,384.248L527.356,417.318Z" style="fill:white;"/>
        </g>
        <path d="M464.718,386.207C464.718,386.207 482.783,408.906 482.634,409.042C482.484,409.179 515.324,409.358 515.324,409.358L532.911,386.158C532.911,386.158 464.673,386.363 464.718,386.207Z" style="fill:white;"/>
        <path d="M482.907,421.242L514.454,420.946L533.744,475.504L498.619,497.781L463.494,476.143L482.907,421.242Z" style="fill:white;"/>
        <path d="M420.808,439.317C420.808,439.317 417.544,451.668 417.633,451.812C417.723,451.956 449.821,475.382 449.821,475.382L446.95,483.6C446.95,483.6 498.872,516.468 498.887,516.411C498.903,516.355 550.143,483.816 550.23,483.812C550.316,483.808 547.165,475.922 547.165,475.922L579.798,452.59L576.342,438.811C576.342,438.811 592.612,439.314 596.445,422.133C596.445,422.133 654.248,422.09 654.22,422.014C654.192,421.937 584.332,501.893 498.675,555.155C498.675,555.155 407.302,495.492 343.03,422.04L400.562,422.323C400.562,422.323 405.33,439.306 420.808,439.317Z" style="fill:white;stroke:white;stroke-width:1px;"/>
    </g>
    <defs>
        <linearGradient id="_Linear1" x1="0" y1="0" x2="1" y2="0" gradientUnits="userSpaceOnUse" gradientTransform="matrix(58.9952,81.8151,-81.8151,58.9952,374.147,362.95)"><stop offset="0" style="stop-color:rgb(141,116,47);stop-opacity:1"/><stop offset="0.07" style="stop-color:rgb(150,125,56);stop-opacity:1"/><stop offset="0.18" style="stop-color:rgb(174,149,79);stop-opacity:1"/><stop offset="0.2" style="stop-color:rgb(179,154,84);stop-opacity:1"/><stop offset="0.22" style="stop-color:rgb(185,160,89);stop-opacity:1"/><stop offset="0.3" style="stop-color:rgb(202,176,104);stop-opacity:1"/><stop offset="0.39" style="stop-color:rgb(212,186,113);stop-opacity:1"/><stop offset="0.5" style="stop-color:rgb(215,189,116);stop-opacity:1"/><stop offset="0.61" style="stop-color:rgb(212,186,113);stop-opacity:1"/><stop offset="0.7" style="stop-color:rgb(202,176,104);stop-opacity:1"/><stop offset="0.78" style="stop-color:rgb(185,160,89);stop-opacity:1"/><stop offset="0.8" style="stop-color:rgb(179,154,84);stop-opacity:1"/><stop offset="0.86" style="stop-color:rgb(163,138,69);stop-opacity:1"/><stop offset="0.94" style="stop-color:rgb(147,122,53);stop-opacity:1"/><stop offset="1" style="stop-color:rgb(141,116,47);stop-opacity:1"/></linearGradient>
        <linearGradient id="_Linear2" x1="0" y1="0" x2="1" y2="0" gradientUnits="userSpaceOnUse" gradientTransform="matrix(-227.05,360.67,360.67,227.05,560.592,84.7778)"><stop offset="0" style="stop-color:rgb(141,116,47);stop-opacity:1"/><stop offset="0.07" style="stop-color:rgb(150,125,56);stop-opacity:1"/><stop offset="0.18" style="stop-color:rgb(174,149,79);stop-opacity:1"/><stop offset="0.2" style="stop-color:rgb(179,154,84);stop-opacity:1"/><stop offset="0.22" style="stop-color:rgb(185,160,89);stop-opacity:1"/><stop offset="0.3" style="stop-color:rgb(202,176,104);stop-opacity:1"/><stop offset="0.39" style="stop-color:rgb(212,186,113);stop-opacity:1"/><stop offset="0.5" style="stop-color:rgb(215,189,116);stop-opacity:1"/><stop offset="0.61" style="stop-color:rgb(212,186,113);stop-opacity:1"/><stop offset="0.7" style="stop-color:rgb(202,176,104);stop-opacity:1"/><stop offset="0.78" style="stop-color:rgb(185,160,89);stop-opacity:1"/><stop offset="0.8" style="stop-color:rgb(179,154,84);stop-opacity:1"/><stop offset="0.86" style="stop-color:rgb(163,138,69);stop-opacity:1"/><stop offset="0.94" style="stop-color:rgb(147,122,53);stop-opacity:1"/><stop offset="1" style="stop-color:rgb(141,116,47);stop-opacity:1"/></linearGradient>
        <linearGradient id="_Linear3" x1="0" y1="0" x2="1" y2="0" gradientUnits="userSpaceOnUse" gradientTransform="matrix(160.465,117.229,-117.229,160.465,418.04,320.825)"><stop offset="0" style="stop-color:rgb(141,116,47);stop-opacity:1"/><stop offset="0.07" style="stop-color:rgb(150,125,56);stop-opacity:1"/><stop offset="0.18" style="stop-color:rgb(174,149,79);stop-opacity:1"/><stop offset="0.2" style="stop-color:rgb(179,154,84);stop-opacity:1"/><stop offset="0.22" style="stop-color:rgb(185,160,89);stop-opacity:1"/><stop offset="0.3" style="stop-color:rgb(202,176,104);stop-opacity:1"/><stop offset="0.39" style="stop-color:rgb(212,186,113);stop-opacity:1"/><stop offset="0.5" style="stop-color:rgb(215,189,116);stop-opacity:1"/><stop offset="0.61" style="stop-color:rgb(212,186,113);stop-opacity:1"/><stop offset="0.7" style="stop-color:rgb(202,176,104);stop-opacity:1"/><stop offset="0.78" style="stop-color:rgb(185,160,89);stop-opacity:1"/><stop offset="0.8" style="stop-color:rgb(179,154,84);stop-opacity:1"/><stop offset="0.86" style="stop-color:rgb(163,138,69);stop-opacity:1"/><stop offset="0.94" style="stop-color:rgb(147,122,53);stop-opacity:1"/><stop offset="1" style="stop-color:rgb(141,116,47);stop-opacity:1"/></linearGradient>
        <linearGradient id="_Linear4" x1="0" y1="0" x2="1" y2="0" gradientUnits="userSpaceOnUse" gradientTransform="matrix(-47.1827,-238.322,238.322,-47.1827,616.911,582.046)"><stop offset="0" style="stop-color:rgb(141,116,47);stop-opacity:1"/><stop offset="0.07" style="stop-color:rgb(150,125,56);stop-opacity:1"/><stop offset="0.18" style="stop-color:rgb(174,149,79);stop-opacity:1"/><stop offset="0.2" style="stop-color:rgb(179,154,84);stop-opacity:1"/><stop offset="0.22" style="stop-color:rgb(185,160,89);stop-opacity:1"/><stop offset="0.3" style="stop-color:rgb(202,176,104);stop-opacity:1"/><stop offset="0.39" style="stop-color:rgb(212,186,113);stop-opacity:1"/><stop offset="0.5" style="stop-color:rgb(215,189,116);stop-opacity:1"/><stop offset="0.61" style="stop-color:rgb(212,186,113);stop-opacity:1"/><stop offset="0.7" style="stop-color:rgb(202,176,104);stop-opacity:1"/><stop offset="0.78" style="stop-color:rgb(185,160,89);stop-opacity:1"/><stop offset="0.8" style="stop-color:rgb(179,154,84);stop-opacity:1"/><stop offset="0.86" style="stop-color:rgb(163,138,69);stop-opacity:1"/><stop offset="0.94" style="stop-color:rgb(147,122,53);stop-opacity:1"/><stop offset="1" style="stop-color:rgb(141,116,47);stop-opacity:1"/></linearGradient>
        <linearGradient id="_Linear5" x1="0" y1="0" x2="1" y2="0" gradientUnits="userSpaceOnUse" gradientTransform="matrix(-114.255,205.098,205.098,114.255,618.096,479.953)"><stop offset="0" style="stop-color:rgb(141,116,47);stop-opacity:1"/><stop offset="0.07" style="stop-color:rgb(150,125,56);stop-opacity:1"/><stop offset="0.18" style="stop-color:rgb(174,149,79);stop-opacity:1"/><stop offset="0.2" style="stop-color:rgb(179,154,84);stop-opacity:1"/><stop offset="0.22" style="stop-color:rgb(185,160,89);stop-opacity:1"/><stop offset="0.3" style="stop-color:rgb(202,176,104);stop-opacity:1"/><stop offset="0.39" style="stop-color:rgb(212,186,113);stop-opacity:1"/><stop offset="0.5" style="stop-color:rgb(215,189,116);stop-opacity:1"/><stop offset="0.61" style="stop-color:rgb(212,186,113);stop-opacity:1"/><stop offset="0.7" style="stop-color:rgb(202,176,104);stop-opacity:1"/><stop offset="0.78" style="stop-color:rgb(185,160,89);stop-opacity:1"/><stop offset="0.8" style="stop-color:rgb(179,154,84);stop-opacity:1"/><stop offset="0.86" style="stop-color:rgb(163,138,69);stop-opacity:1"/><stop offset="0.94" style="stop-color:rgb(147,122,53);stop-opacity:1"/><stop offset="1" style="stop-color:rgb(141,116,47);stop-opacity:1"/></linearGradient>
        <linearGradient id="_Linear6" x1="0" y1="0" x2="1" y2="0" gradientUnits="userSpaceOnUse" gradientTransform="matrix(89.9055,76.1093,-76.1093,89.9055,443.923,533.791)"><stop offset="0" style="stop-color:rgb(141,116,47);stop-opacity:1"/><stop offset="0.07" style="stop-color:rgb(150,125,56);stop-opacity:1"/><stop offset="0.18" style="stop-color:rgb(174,149,79);stop-opacity:1"/><stop offset="0.2" style="stop-color:rgb(179,154,84);stop-opacity:1"/><stop offset="0.22" style="stop-color:rgb(185,160,89);stop-opacity:1"/><stop offset="0.3" style="stop-color:rgb(202,176,104);stop-opacity:1"/><stop offset="0.39" style="stop-color:rgb(212,186,113);stop-opacity:1"/><stop offset="0.5" style="stop-color:rgb(215,189,116);stop-opacity:1"/><stop offset="0.61" style="stop-color:rgb(212,186,113);stop-opacity:1"/><stop offset="0.7" style="stop-color:rgb(202,176,104);stop-opacity:1"/><stop offset="0.78" style="stop-color:rgb(185,160,89);stop-opacity:1"/><stop offset="0.8" style="stop-color:rgb(179,154,84);stop-opacity:1"/><stop offset="0.86" style="stop-color:rgb(163,138,69);stop-opacity:1"/><stop offset="0.94" style="stop-color:rgb(147,122,53);stop-opacity:1"/><stop offset="1" style="stop-color:rgb(141,116,47);stop-opacity:1"/></linearGradient>
    </defs>
</svg>
