<?xml version="1.0" encoding="UTF-8"?>
<svg id="Layer_2" xmlns="http://www.w3.org/2000/svg" xmlns:xlink="http://www.w3.org/1999/xlink" viewBox="0 0 219 202.59">
  <defs>
    <style>
      .cls-1 {
        stroke: #fff;
        stroke-linecap: round;
        stroke-linejoin: round;
        stroke-width: .6px;
      }

      .cls-1, .cls-2 {
        fill: #fff;
      }

      .cls-1, .cls-2, .cls-3, .cls-4, .cls-5, .cls-6, .cls-7, .cls-8, .cls-9 {
        fill-rule: evenodd;
      }

      .cls-3 {
        fill: url(#linear-gradient-3);
      }

      .cls-4 {
        fill: url(#linear-gradient-5);
      }

      .cls-5 {
        fill: url(#linear-gradient-2);
      }

      .cls-6 {
        fill: url(#linear-gradient-6);
      }

      .cls-7 {
        fill: url(#linear-gradient-4);
      }

      .cls-9 {
        fill: url(#linear-gradient);
      }
    </style>
    <linearGradient id="linear-gradient" x1="-187.59" y1="540.1" x2="-186.59" y2="540.1" gradientTransform="translate(-19682.69 28142.1) rotate(54.21) scale(60.04 -60.04)" gradientUnits="userSpaceOnUse">
      <stop offset="0" stop-color="#626e77"/>
      <stop offset=".04" stop-color="#697780"/>
      <stop offset=".11" stop-color="#7d8e98"/>
      <stop offset=".2" stop-color="#9eb4c0"/>
      <stop offset=".2" stop-color="#a1b7c3"/>
      <stop offset=".29" stop-color="#adc6d4"/>
      <stop offset=".38" stop-color="#b5cede"/>
      <stop offset=".5" stop-color="#b7d1e1"/>
      <stop offset=".62" stop-color="#b5cede"/>
      <stop offset=".71" stop-color="#adc6d4"/>
      <stop offset=".8" stop-color="#a1b7c3"/>
      <stop offset=".8" stop-color="#a0b6c2"/>
      <stop offset=".85" stop-color="#8b9da8"/>
      <stop offset=".91" stop-color="#74838d"/>
      <stop offset=".96" stop-color="#67747d"/>
      <stop offset="1" stop-color="#626e77"/>
    </linearGradient>
    <linearGradient id="linear-gradient-2" y1="540.09" y2="540.09" gradientTransform="translate(-90538.18 113149.22) rotate(57.81) scale(253.7 -253.7)" xlink:href="#linear-gradient"/>
    <linearGradient id="linear-gradient-3" y1="540.18" y2="540.18" gradientTransform="translate(-19712.21 64696.69) rotate(36.15) scale(118.3 -118.3)" xlink:href="#linear-gradient"/>
    <linearGradient id="linear-gradient-4" y1="540.19" y2="540.19" gradientTransform="translate(71537.47 -41615.09) rotate(-101.2) scale(144.62 -144.62)" xlink:href="#linear-gradient"/>
    <linearGradient id="linear-gradient-5" y1="540.14" y2="540.14" gradientTransform="translate(-53147.68 59745.79) rotate(60.88) scale(139.76 -139.76)" xlink:href="#linear-gradient"/>
    <linearGradient id="linear-gradient-6" x1="-187.59" y1="540.27" x2="-186.59" y2="540.27" gradientTransform="translate(-14354.93 37545.09) rotate(40.25) scale(70.12 -70.12)" xlink:href="#linear-gradient"/>
  </defs>
  <g id="Layer_1-2" data-name="Layer_1">
    <path class="cls-8" d="M168.82,0c.09-.02,14.35,41.11,38.16,40.84l-4.46,23.23s-9.39,49.61-31.77,97.83c0,0-33.12,26.8-61.46,40.69,0,0-29.91-15.02-61.83-40.81,0,0-13.27-29.61-24.33-68.03-11.05-38.42-11.12-52.61-11.2-52.59-.09.03,20.4,2.64,38.2-40.94l4.82-.18s48.97,24.25,108.29.11C163.22.15,168.73.02,168.82,0Z"/>
    <g id="Ebene3">
      <path class="cls-9" d="M49.36,26.2l5.76,39.4h-27.11l-3.63-16.07s14.13-4.89,24.98-23.33Z"/>
      <path class="cls-5" d="M169.17,26.16l-5.76,39.4h27.11l3.63-16.07s-14.13-4.89-24.98-23.33Z"/>
      <path class="cls-3" d="M157.82,13.6s-4.92,57.74-4.92,57.76-10.01-35.97-10.01-35.97l-7.84,10.07h-51.54l-7.91-10.07-9.65,35.97s-5.31-58.24-5.15-57.76c.16.48,46.67,18.9,97.02,0Z"/>
      <path class="cls-7" d="M179.22,108.46s-16.96,45.72-17.19,45.9c-.23.18-12.66,9.64-12.66,9.64l4.36-32.36s25.38-23.17,25.49-23.19Z"/>
      <path class="cls-4" d="M39.17,108.46s16.96,45.72,17.19,45.9c.23.18,12.66,9.64,12.66,9.64l-4.36-32.36s-25.38-23.17-25.49-23.19Z"/>
      <path class="cls-6" d="M75.74,140.49s33.39,24.12,33.47,24.13c.08.01,33.57-24.01,33.68-24.13.11-.11-5.88,32.09-5.94,32.21-.06.12-27.74,17.15-27.74,17.15l-27.29-17.15s-6.22-32.18-6.18-32.21Z"/>
    </g>
    <path class="cls-8" d="M0,64s16.03.01,16,.02c-.04,0,12,1.53,11.98,1.58-.02.05,27.42.07,27.42.07l10.87,5.54s9.15-36.33,9.16-36.29c.01.04,8.14,9.98,8.14,9.98l51.55-.04,7.98-9.99,9.42,36.35,11.01-5.38,27.49-.36,12.01-1.51,15.97.19s-30.17,45.92-109.76,100.95c0,0-82.76-56.36-109.23-101.09Z"/>
    <g id="Ebene1">
      <path class="cls-2" d="M126.33,69.97l9.51,24.29,12.73-8.05-8.21-35.92-14.03,19.69Z"/>
      <path class="cls-2" d="M92.27,69.99l-9.51,24.29-12.73-8.05,8.21-35.92,14.03,19.69Z"/>
      <path class="cls-2" d="M89.05,51.45s10.75,13.51,10.66,13.59c-.09.08,19.46.19,19.46.19l10.47-13.81s-40.62.12-40.59.03Z"/>
      <path class="cls-2" d="M99.87,72.3l18.78-.18,11.48,32.48-20.91,13.26-20.91-12.88,11.56-32.68Z"/>
      <path class="cls-1" d="M62.91,83.06s-1.94,7.35-1.89,7.44c.05.09,19.16,14.03,19.16,14.03l-1.71,4.89s30.91,19.57,30.92,19.53c0-.03,30.51-19.4,30.56-19.41.05,0-1.82-4.7-1.82-4.7l19.43-13.89-2.06-8.2s9.69.3,11.97-9.93c0,0,34.41-.03,34.39-.07-.02-.05-41.6,47.55-92.59,79.26,0,0-54.39-35.52-92.65-79.24l34.25.17s2.84,10.11,12.05,10.12Z"/>
    </g>
  </g>
</svg>