<?xml version="1.0" encoding="UTF-8" standalone="no"?>
<svg
   width="311.189"
   height="296.08102"
   viewBox="0 0 311.189 296.08102"
   version="1.1"
   xml:space="preserve"
   style="clip-rule:evenodd;fill-rule:evenodd;stroke-linejoin:round;stroke-miterlimit:2"
   id="svg6"
   xmlns="http://www.w3.org/2000/svg"
   xmlns:svg="http://www.w3.org/2000/svg"><defs
   id="defs6" />
    <g
   id="Ebene3"
   transform="translate(-343.03,-322.61997)">
        <path
   d="m 398.054,343.796 9.67,66.195 h -45.541 l -6.09,-27 c 0,0 23.74,-8.213 41.961,-39.195 z"
   id="path1" />
        <g
   transform="matrix(-1,0,0,1,997.364,-0.0688685)"
   id="g2">
            <path
   d="m 398.054,343.796 9.67,66.195 h -45.541 l -6.09,-27 c 0,0 23.74,-8.213 41.961,-39.195 z"
   id="path2" />
        </g>
        <path
   d="m 580.244,322.625 c 0,0 -8.259,96.998 -8.267,97.03 -0.008,0.032 -16.822,-60.43 -16.822,-60.43 l -13.171,16.919 h -86.579 l -13.296,-16.919 -16.203,60.43 c 0,0 -8.914,-97.842 -8.65,-97.03 0.263,0.813 78.395,31.758 162.988,0 z"
   id="path3" />
        <path
   d="m 616.193,481.985 c 0,0 -28.484,76.81 -28.871,77.113 -0.387,0.303 -21.275,16.195 -21.275,16.195 l 7.331,-54.355 c 0,0 42.632,-38.919 42.815,-38.953 z"
   id="path4" />
        <g
   transform="matrix(-1,0,0,1,997.12,0)"
   id="g5">
            <path
   d="m 616.193,481.985 c 0,0 -28.484,76.81 -28.871,77.113 -0.387,0.303 -21.275,16.195 -21.275,16.195 l 7.331,-54.355 c 0,0 42.632,-38.919 42.815,-38.953 z"
   id="path5" />
        </g>
        <path
   d="m 442.365,535.784 c 0.072,-0.067 56.096,40.511 56.233,40.534 0.136,0.022 56.398,-40.342 56.583,-40.534 0.185,-0.192 -9.884,53.905 -9.986,54.106 -0.101,0.201 -46.597,28.811 -46.597,28.811 L 452.754,589.89 c 0,0 -10.443,-54.055 -10.389,-54.106 z"
   id="path6" />
    </g>
    <path
   id="Ebene1"
   d="m 121.689,63.588026 c 0.289,0.154 68.192,-0.05 68.192,-0.05 l -17.587,23.2 c 0,0 -32.84,-0.179 -32.69,-0.316 0.149,-0.135 -17.768,-22.649 -17.915,-22.834 z m 189.5,35.806 c -0.334,0.275 -70.076,79.996004 -155.544,133.141004 0,0 -91.373,-59.663 -155.645,-133.115004 l 57.532,0.283 c 0,0 4.768,16.983004 20.246,16.994004 0,0 -3.264,12.351 -3.175,12.495 0.09,0.144 32.188,23.57 32.188,23.57 l -2.871,8.218 c 0,0 51.922,32.868 51.937,32.811 0.016,-0.056 51.256,-32.595 51.343,-32.599 0.086,-0.004 -3.065,-7.89 -3.065,-7.89 l 32.633,-23.332 -3.456,-13.779 c 0,0 16.27,0.503 20.103,-16.678004 0,0 57.47,-0.043 57.774,-0.119 z m -126.863,-4.696 23.573,-33.07 13.799,60.343004 -21.392,13.524 z m -57.222,0.039 -15.98,40.797004 -21.391,-13.524 13.798,-60.343004 z m 12.773,3.885 31.547,-0.296 19.29,54.558004 -35.125,22.277 -35.125,-21.638 z" />
</svg>
