<?xml version="1.0" encoding="UTF-8"?>
<svg id="Layer_2" xmlns="http://www.w3.org/2000/svg" viewBox="0 0 185.24 176.25">
  <defs>
    <style>
      .cls-1 {
        fill-rule: evenodd;
      }
    </style>
  </defs>
  <g id="Layer_1-2" data-name="Layer_1">
    <g id="Ebene3">
      <path class="cls-1" d="M32.75,12.61l5.76,39.4H11.4l-3.63-16.07s14.13-4.89,24.98-23.33Z"/>
      <path class="cls-1" d="M152.56,12.56l-5.76,39.4h27.11l3.63-16.07s-14.13-4.89-24.98-23.33Z"/>
      <path class="cls-1" d="M141.21,0s-4.92,57.74-4.92,57.76-10.01-35.97-10.01-35.97l-7.84,10.07h-51.54l-7.91-10.07-9.65,35.97S44.03-.48,44.18,0c.16.48,46.67,18.9,97.02,0Z"/>
      <path class="cls-1" d="M162.61,94.87s-16.96,45.72-17.19,45.9c-.23.18-12.66,9.64-12.66,9.64l4.36-32.36s25.38-23.17,25.49-23.19Z"/>
      <path class="cls-1" d="M22.56,94.87s16.96,45.72,17.19,45.9c.23.18,12.66,9.64,12.66,9.64l-4.36-32.36s-25.38-23.17-25.49-23.19Z"/>
      <path class="cls-1" d="M59.13,126.89s33.39,24.12,33.47,24.13c.08.01,33.57-24.01,33.68-24.13.11-.11-5.88,32.09-5.94,32.21-.06.12-27.74,17.15-27.74,17.15l-27.29-17.15s-6.22-32.18-6.18-32.21Z"/>
    </g>
    <path id="Ebene1" class="cls-1" d="M72.44,37.85c.17.09,40.59-.03,40.59-.03l-10.47,13.81s-19.55-.11-19.46-.19c.09-.08-10.58-13.48-10.66-13.59ZM185.24,59.17c-.2.16-41.71,47.62-92.59,79.26,0,0-54.39-35.52-92.65-79.24l34.25.17s2.84,10.11,12.05,10.12c0,0-1.94,7.35-1.89,7.44.05.09,19.16,14.03,19.16,14.03l-1.71,4.89s30.91,19.57,30.92,19.53c0-.03,30.51-19.4,30.56-19.41.05,0-1.82-4.7-1.82-4.7l19.43-13.89-2.06-8.2s9.69.3,11.97-9.93c0,0,34.21-.03,34.39-.07ZM109.72,56.37l14.03-19.69,8.21,35.92-12.73,8.05-9.51-24.29ZM75.66,56.39l-9.51,24.29-12.73-8.05,8.21-35.92,14.03,19.69ZM83.27,58.71l18.78-.18,11.48,32.48-20.91,13.26-20.91-12.88,11.56-32.68Z"/>
  </g>
</svg>