<?xml version="1.0" encoding="UTF-8" standalone="no"?>
<!DOCTYPE svg PUBLIC "-//W3C//DTD SVG 1.1//EN" "http://www.w3.org/Graphics/SVG/1.1/DTD/svg11.dtd">
<svg width="100%" height="100%" viewBox="0 0 1000 1000" version="1.1" xmlns="http://www.w3.org/2000/svg" xmlns:xlink="http://www.w3.org/1999/xlink" xml:space="preserve" xmlns:serif="http://www.serif.com/" style="fill-rule:evenodd;clip-rule:evenodd;stroke-linejoin:round;stroke-miterlimit:2;">
    <g id="Ebene3">
        <path d="M398.054,343.796L407.724,409.991L362.183,409.991L356.093,382.991C356.093,382.991 379.833,374.778 398.054,343.796Z"/>
        <g transform="matrix(-1,0,0,1,997.364,-0.0688685)">
            <path d="M398.054,343.796L407.724,409.991L362.183,409.991L356.093,382.991C356.093,382.991 379.833,374.778 398.054,343.796Z"/>
        </g>
        <path d="M580.244,322.625C580.244,322.625 571.985,419.623 571.977,419.655C571.969,419.687 555.155,359.225 555.155,359.225L541.984,376.144L455.405,376.144L442.109,359.225L425.906,419.655C425.906,419.655 416.992,321.813 417.256,322.625C417.519,323.438 495.651,354.383 580.244,322.625Z"/>
        <path d="M616.193,481.985C616.193,481.985 587.709,558.795 587.322,559.098C586.935,559.401 566.047,575.293 566.047,575.293L573.378,520.938C573.378,520.938 616.01,482.019 616.193,481.985Z"/>
        <g transform="matrix(-1,0,0,1,997.12,0)">
            <path d="M616.193,481.985C616.193,481.985 587.709,558.795 587.322,559.098C586.935,559.401 566.047,575.293 566.047,575.293L573.378,520.938C573.378,520.938 616.01,482.019 616.193,481.985Z"/>
        </g>
        <path d="M442.365,535.784C442.437,535.717 498.461,576.295 498.598,576.318C498.734,576.34 554.996,535.976 555.181,535.784C555.366,535.592 545.297,589.689 545.195,589.89C545.094,590.091 498.598,618.701 498.598,618.701L452.754,589.89C452.754,589.89 442.311,535.835 442.365,535.784Z"/>
    </g>
    <path id="Ebene1" d="M464.719,386.208C465.008,386.362 532.911,386.158 532.911,386.158L515.324,409.358C515.324,409.358 482.484,409.179 482.634,409.042C482.783,408.907 464.866,386.393 464.719,386.208ZM654.219,422.014C653.885,422.289 584.143,502.01 498.675,555.155C498.675,555.155 407.302,495.492 343.03,422.04L400.562,422.323C400.562,422.323 405.33,439.306 420.808,439.317C420.808,439.317 417.544,451.668 417.633,451.812C417.723,451.956 449.821,475.382 449.821,475.382L446.95,483.6C446.95,483.6 498.872,516.468 498.887,516.411C498.903,516.355 550.143,483.816 550.23,483.812C550.316,483.808 547.165,475.922 547.165,475.922L579.798,452.59L576.342,438.811C576.342,438.811 592.612,439.314 596.445,422.133C596.445,422.133 653.915,422.09 654.219,422.014ZM527.356,417.318L550.929,384.248L564.728,444.591L543.336,458.115L527.356,417.318ZM470.134,417.357L454.154,458.154L432.763,444.63L446.561,384.287L470.134,417.357ZM482.907,421.242L514.454,420.946L533.744,475.504L498.619,497.781L463.494,476.143L482.907,421.242Z"/>
</svg>
