<?xml version="1.0" encoding="UTF-8" standalone="no"?>
<svg
   version="1.1"
   width="84.789062"
   height="96.199997"
   id="svg1"
   xmlns:xlink="http://www.w3.org/1999/xlink"
   xmlns="http://www.w3.org/2000/svg"
   xmlns:svg="http://www.w3.org/2000/svg">
  <defs
     id="defs1" />
  <path
     d="m 16.498047,0 h 51.792968 c 1.670106,2.1874709 6.943958,7.870457 16.498047,8.78125 -0.539797,12.202215 -5.759447,21.352114 -12.18164,27.355469 -5.134701,4.799829 -11.075279,7.437147 -15.539063,8.101562 1.461578,-2.460589 2.510168,-4.886544 2.716797,-7.193359 C 60.095653,33.578513 59.027594,30.43382 57.25,27.943359 53.694812,22.962438 47.619491,20.25 42.394531,20.25 c -5.22496,0 -11.300281,2.712438 -14.855469,7.693359 -1.777594,2.490461 -2.845653,5.635154 -2.535156,9.101563 0.206629,2.306815 1.255219,4.73277 2.716797,7.193359 C 23.256919,43.573866 17.316341,40.936548 12.18164,36.136719 5.7594472,30.133364 0.5397967,20.983465 0,8.78125 9.5540892,7.870457 14.827941,2.1874709 16.498047,0 Z"
     id="path3813" />
  <use
     transform="rotate(180,42.394532,48.1)"
     id="use4898"
     x="0"
     y="0"
     width="130"
     height="113"
     xlink:href="#path3813" />
</svg>
