<?xml version="1.0" encoding="UTF-8" standalone="no"?>
<svg
   id="Layer_2"
   data-name="Layer 2"
   viewBox="0 0 266 270.5"
   version="1.1"
   width="266"
   height="270.5"
   xmlns="http://www.w3.org/2000/svg"
   xmlns:svg="http://www.w3.org/2000/svg">
  <defs
     id="defs1">
    <style
       id="style1">
      .cls-1 {
        stroke-width: 0px;
      }
    </style>
  </defs>
  <g
     id="svg2">
    <g
       id="g1">
      <circle
         class="cls-1"
         cx="133"
         cy="67"
         r="16"
         id="circle1" />
      <path
         class="cls-1"
         d="M 256.5,18.5 V 4.5 C 234.49,-1.21 198.76,5.24 171.38,12.09 160.51,4.48 147.28,0 133,0 118.72,0 105.47,4.47 94.59,12.09 74.9,7.17 50.94,2.45 30.81,2.31 22.95,2.26 15.68,2.89 9.5,4.5 v 14 C 9.5,18.5 7.99,17 0,17 v 212 l 115,41.5 h 36 L 266,229 V 17 c -7.99,0 -9.5,1.5 -9.5,1.5 z M 250,222 c -96.41,2.41 -117,38 -117,38 0,0 -20.59,-35.59 -117,-38 V 9 C 19.76,8.72 23.57,8.59 27.38,8.59 50.8,8.62 74.2,13.6 88.13,17.21 74.53,29.47 66.01,47.24 66.01,66.99 c 0,24.59 13.25,46.1 33,57.75 v 19.5 c -8.93,9.59 -14.47,22.91 -14.47,37.66 0,20.14 10.34,37.64 25.53,46.56 -4.93,-7.06 -7.91,-16.41 -7.91,-26.66 0,-17.47 8.72,-32.32 20.84,-37.69 V 108.3 C 104.35,103.8 90.5,87.02 90.5,66.99 c 0,-23.47 19.03,-42.5 42.5,-42.5 23.47,0 42.5,19.03 42.5,42.5 0,20.03 -13.85,36.82 -32.5,41.31 v 55.81 c 12.12,5.37 20.84,20.21 20.84,37.69 0,10.25 -2.98,19.6 -7.91,26.66 15.19,-8.92 25.53,-26.42 25.53,-46.56 0,-14.75 -5.54,-28.07 -14.47,-37.66 v -19.5 c 19.75,-11.65 33,-33.16 33,-57.75 0,-19.76 -8.55,-37.52 -22.16,-49.78 16.19,-4.2 45.2,-10.25 72.16,-8.22 v 213 z"
         id="path1" />
    </g>
  </g>
</svg>
