<svg xmlns="http://www.w3.org/2000/svg" width="143.59" height="125.449" viewBox="0 0 143.59 125.449"><path d="M44.596 0C36.387.015 27.47 4.43 23.232 7.768 16.776 12.853 0 22.336 0 56.557c0 34.22 34.496 68.892 71.795 68.892s71.795-34.672 71.795-68.892-16.776-43.704-23.233-48.79C116.12 4.43 107.203.016 98.994 0c-4.3-.008-8.404 1.191-11.539 4.385-8.96 9.126-3.181 19.743 5.623 28.767.813 2.238-3.31 6.618-7.205 5.305-4.128-1.392-2.389-5.689-1.582-5.504-.183 1.745.501 2.967 2.647 2.803s3.137-4.888.47-7.012-6.205-2.37-9.02-.144-2.61 7.816-.742 10.566 4.964 6.497 10.31 6.715c4.218.172 8.392-4.154 10.661-6.893 6.256 7.075 9.855 13.884 5.658 22.088-5.24 10.244-10.61 6.147-11.466 3.862s.828-4.361 3.515-5.461c-.41 2.138-.678 4.088 1.733 4.177 2.41.09 5.562-5.665.297-10.279s-17.255 1.24-17.02 11.28c.222 9.494 8.124 19.812 22.562 12.533 10.766-5.428 13.202-21.003 9.256-32.56 1.853.147 4.098-.711 6.205-3.298 3.299-4.048.813-11.375-1.53-13.625-2.345-2.25-5.643-3.86-8.47-2.375-2.826 1.486-1.5 6.563.063 6.656 1.562.094 2.298-.767 2.5-2.343 1.889 1.86 2.375 4.125.094 5.625-1.65 1.085-2.712 1.258-4.463.058-.194-.189-.385-.382-.586-.56-10.833-9.606-17.723-21.772-3.477-22.362s27.066 19.236 26.48 34.983c-.584 15.747-8.27 27.763-21.144 37.478s-24.89 14.221-37.03 14.221c-12.138 0-24.155-4.506-37.028-14.22-12.874-9.716-20.56-21.732-21.145-37.48-.585-15.746 12.235-35.571 26.48-34.982 14.246.59 7.357 12.756-3.476 22.362-.201.178-.392.371-.586.56-1.751 1.2-2.813 1.027-4.463-.058-2.281-1.5-1.795-3.764.094-5.625.201 1.576.937 2.437 2.5 2.343s2.889-5.17.062-6.656-6.125.125-8.468 2.375-4.83 9.577-1.532 13.625c2.108 2.587 4.353 3.445 6.205 3.299-3.945 11.556-1.51 27.131 9.256 32.559 14.439 7.279 22.341-3.039 22.563-12.534.234-10.039-11.754-15.893-17.02-11.279-5.265 4.614-2.114 10.37.297 10.28s2.143-2.04 1.733-4.178c2.687 1.1 4.371 3.175 3.515 5.46s-6.226 6.383-11.467-3.86c-4.197-8.205-.597-15.014 5.659-22.089 2.268 2.739 6.443 7.065 10.662 6.893 5.345-.218 8.44-3.965 10.308-6.715s2.072-8.34-.742-10.566-6.353-1.98-9.02.144-1.674 6.848.471 7.012 2.83-1.058 2.647-2.803c.806-.185 2.546 4.112-1.582 5.504-3.894 1.313-8.018-3.067-7.205-5.305 8.804-9.024 14.582-19.64 5.623-28.767C53 1.19 48.895-.008 44.595 0"/></svg>