<?xml version="1.0" encoding="UTF-8"?>
<svg id="Layer_2" data-name="Layer 2" xmlns="http://www.w3.org/2000/svg" xmlns:xlink="http://www.w3.org/1999/xlink" viewBox="0 0 191.16 119.21">
  <defs>
    <style>
      .cls-1 {
        fill: url(#linear-gradient);
      }

      .cls-1, .cls-2, .cls-3, .cls-4 {
        stroke-width: 0px;
      }

      .cls-3 {
        fill: url(#linear-gradient-2);
      }

      .cls-4 {
        fill: url(#linear-gradient-3);
      }
    </style>
    <linearGradient id="linear-gradient" x1="95.65" y1="113.19" x2="95.65" y2="15.64" gradientTransform="translate(0 121.08) scale(1 -1)" gradientUnits="userSpaceOnUse">
      <stop offset="0" stop-color="#c03726"/>
      <stop offset=".2" stop-color="#f5951d"/>
      <stop offset=".8" stop-color="#f5951d"/>
      <stop offset="1" stop-color="#c03726"/>
    </linearGradient>
    <linearGradient id="linear-gradient-2" x1="54.09" y1="51.1" x2="17.87" y2="43.4" gradientTransform="translate(0 121.08) scale(1 -1)" gradientUnits="userSpaceOnUse">
      <stop offset="0" stop-color="#c03726"/>
      <stop offset=".1" stop-color="#c03726"/>
      <stop offset=".6" stop-color="#f5951d"/>
      <stop offset="1" stop-color="#f5951d"/>
    </linearGradient>
    <linearGradient id="linear-gradient-3" x1="137.16" y1="51.12" x2="173.24" y2="43.46" xlink:href="#linear-gradient-2"/>
  </defs>
  <g id="MH3">
    <path class="cls-2" d="M100.3,119.21c-.26-3.08-.25-5.98-.13-8.88.37-9.18,3.78-17.36,8.27-25.18.52-.9.51-1.44-.21-2.26-2.39-2.69-4.46-5.62-6.08-8.86-.45-.9-.44-1.35.47-1.99,7.48-5.23,7.83-16.39.63-21.54-4.47-3.2-9.34-3.42-14.09-.71-4.68,2.67-6.59,7-6.21,12.31.31,4.34,2.42,7.7,5.97,10.15.64.44.68.75.37,1.41-1.66,3.5-3.92,6.58-6.44,9.48-.54.62-.55,1.02-.14,1.74,3.39,5.94,6.27,12.08,7.61,18.86.95,4.82.91,9.69.78,14.57-.04,1.32-.7.55-1.12.32-6.47-3.61-12.94-7.24-19.41-10.86-23.12-12.95-46.25-25.9-69.37-38.86-.34-.19-.68-.4-1.2-.7,13.87-7.77,27.62-15.48,41.48-23.24-2.26-2.48-4.44-4.91-7.06-6.91-.94-.71-2.53-1.29-2.55-2.28,0-.81,1.42-1.67,2.25-2.48,8.16-7.98,16.71-15.48,26.35-21.65,7.12-4.55,14.64-8.21,22.9-10.19,11.1-2.66,21.92-1.61,32.5,2.49,9.46,3.67,17.83,9.18,25.73,15.46,6.11,4.85,11.82,10.16,17.38,15.63.71.7.58,1-.13,1.5-3.06,2.14-5.72,4.72-8.25,7.46-.85.93-.52,1.13.33,1.61,13.05,7.28,26.09,14.59,39.13,21.9.37.21.82.33,1.1.77-30.24,16.94-60.48,33.88-90.87,50.9v.03ZM108.68,105.4c.21,0,.26.03.29,0,6.45-3.6,12.9-7.2,19.36-10.79.45-.25.46-.53.38-.98-.99-5.67-.97-11.36-.37-17.08.95-9.15,3.45-17.81,7.96-25.86,1.78-3.18,3.83-6.18,6.05-9.05,1.45-1.88,3.11-3.58,4.79-5.25,1.11-1.1,1.16-1.19-.12-2.19-1.87-1.46-3.63-3.05-5.4-4.61-4.69-4.13-9.77-7.72-14.95-11.18-3.87-2.59-7.99-4.74-12.28-6.55-9.06-3.81-18.4-5.08-28.1-2.99-8.16,1.76-15.47,5.43-22.39,9.94-3.42,2.23-6.7,4.68-9.91,7.23-3.42,2.71-6.73,5.54-10.06,8.34-.75.63-.8,1-.05,1.73,5.76,5.65,10.23,12.21,13.5,19.58,5.33,11.97,7.2,24.44,5.24,37.43-.13.87.07,1.34.88,1.79,5.67,3.12,11.3,6.31,16.95,9.47.65.36,1.26.84,2.04,1,.03-.15.08-.27.07-.38-.04-.28-.1-.55-.16-.82-1.76-7.28-4.92-13.91-9.35-19.92-.58-.78-.52-1.19.12-1.87,2.11-2.24,4.12-4.57,6.03-6.99.57-.71.81-1.22.01-1.98-.8-.77-1.38-1.76-1.89-2.76-3.37-6.64-2.96-13.21.49-19.67,2.54-4.75,6.31-8.3,11.45-9.86,8.06-2.46,17.19-.27,22.74,7.39,5.43,7.51,5.98,18.07-.16,25.23-.46.54-.3.88.05,1.34,2,2.61,4.17,5.06,6.4,7.46.56.6.51.97.04,1.6-3.61,4.8-6.27,10.1-8.21,15.77-.6,1.77-1.17,3.55-1.43,5.45v.02ZM15.86,68.23c.56.32.9.53,1.25.72,5.01,2.81,10.02,5.62,15.04,8.42,7.37,4.12,14.76,8.23,22.12,12.37.74.42,1.04.49,1.13-.55.36-4.39.36-8.77-.22-13.15-1.13-8.59-3.95-16.58-8.42-24-.42-.69-.7-.71-1.36-.34-7.13,4.01-14.28,7.98-21.42,11.97-2.64,1.47-5.28,2.96-8.12,4.56ZM175.21,68.36c-.14-.45-.48-.52-.75-.67-6.14-3.43-12.27-6.88-18.42-10.28-3.37-1.87-6.7-3.82-10.15-5.55-.85-.43-1.09-.27-1.5.43-1.71,2.89-3.22,5.88-4.46,9-3.53,8.91-4.94,18.12-4.05,27.68.09.93.33,1.12,1.21.62,4.33-2.43,8.71-4.79,13.05-7.2,5.77-3.2,11.53-6.42,17.29-9.64,2.61-1.46,5.2-2.93,7.79-4.38h-.01Z"/>
    <path class="cls-1" d="M108.68,105.4c.26-1.91.83-3.69,1.43-5.45,1.94-5.67,4.6-10.97,8.21-15.77.47-.63.51-.99-.04-1.6-2.22-2.41-4.4-4.86-6.4-7.46-.35-.46-.51-.8-.05-1.34,6.14-7.16,5.59-17.72.16-25.23-5.55-7.67-14.67-9.85-22.74-7.39-5.13,1.56-8.91,5.11-11.45,9.86-3.46,6.46-3.86,13.03-.49,19.67.51,1,1.08,1.99,1.89,2.76.8.76.55,1.26-.01,1.98-1.92,2.41-3.93,4.74-6.03,6.99-.64.68-.69,1.08-.12,1.87,4.43,6.02,7.59,12.65,9.35,19.92.07.27.12.54.16.82.01.11-.04.23-.07.38-.78-.16-1.39-.63-2.04-1-5.65-3.15-11.28-6.34-16.95-9.47-.81-.45-1.01-.92-.88-1.79,1.97-12.99.1-25.46-5.24-37.43-3.28-7.37-7.75-13.93-13.5-19.58-.74-.73-.7-1.1.05-1.73,3.34-2.8,6.64-5.63,10.06-8.34,3.22-2.55,6.49-5,9.91-7.23,6.92-4.51,14.23-8.18,22.39-9.94,9.7-2.09,19.04-.83,28.1,2.99,4.29,1.81,8.41,3.96,12.28,6.55,5.17,3.46,10.26,7.05,14.95,11.18,1.77,1.56,3.53,3.15,5.4,4.61,1.27.99,1.22,1.09.12,2.19-1.68,1.67-3.34,3.38-4.79,5.25-2.22,2.88-4.27,5.87-6.05,9.05-4.51,8.05-7.01,16.71-7.96,25.86-.6,5.72-.61,11.4.37,17.08.08.45.06.73-.38.98-6.46,3.59-12.91,7.19-19.36,10.79-.03.02-.08,0-.29,0v-.02Z"/>
    <path class="cls-3" d="M15.86,68.23c2.84-1.59,5.47-3.08,8.12-4.56,7.14-3.99,14.29-7.96,21.42-11.97.67-.38.95-.35,1.36.34,4.47,7.42,7.29,15.4,8.42,24,.58,4.38.58,8.76.22,13.15-.09,1.04-.39.97-1.13.55-7.37-4.14-14.75-8.25-22.12-12.37-5.02-2.8-10.03-5.62-15.04-8.42-.35-.19-.69-.4-1.25-.72Z"/>
    <path class="cls-4" d="M175.21,68.36c-2.59,1.45-5.18,2.92-7.79,4.38-5.76,3.22-11.52,6.44-17.29,9.64-4.35,2.41-8.72,4.77-13.05,7.2-.88.49-1.12.3-1.21-.62-.89-9.56.52-18.77,4.05-27.68,1.24-3.12,2.75-6.11,4.46-9,.41-.7.65-.86,1.5-.43,3.45,1.73,6.77,3.69,10.15,5.55,6.15,3.4,12.29,6.85,18.42,10.28.27.15.61.22.75.67h.01Z"/>
  </g>
</svg>