<?xml version="1.0" encoding="UTF-8" standalone="no"?>
<svg
   id="Layer_2"
   data-name="Layer 2"
   viewBox="0 0 191.16 119.21234"
   version="1.1"
   width="191.16"
   height="119.21234"
   xmlns:xlink="http://www.w3.org/1999/xlink"
   xmlns="http://www.w3.org/2000/svg"
   xmlns:svg="http://www.w3.org/2000/svg">
  <defs
     id="defs17">
    <style
       id="style1">
      .cls-1 {
        fill: url(#linear-gradient);
      }

      .cls-1, .cls-2, .cls-3, .cls-4 {
        stroke-width: 0px;
      }

      .cls-2 {
        fill: #fff;
      }

      .cls-3 {
        fill: url(#linear-gradient-2);
      }

      .cls-4 {
        fill: url(#linear-gradient-3);
      }
    </style>
    <linearGradient
       id="linear-gradient"
       x1="95.650002"
       y1="966.82001"
       x2="95.650002"
       y2="1064.36"
       gradientTransform="translate(0,-958.92)"
       gradientUnits="userSpaceOnUse">
      <stop
         offset="0"
         stop-color="#612c75"
         id="stop1" />
      <stop
         offset=".04"
         stop-color="#6e3b7f"
         id="stop2" />
      <stop
         offset=".13"
         stop-color="#8b5c97"
         id="stop3" />
      <stop
         offset=".23"
         stop-color="#a177aa"
         id="stop4" />
      <stop
         offset=".33"
         stop-color="#b28ab8"
         id="stop5" />
      <stop
         offset=".43"
         stop-color="#bb95c0"
         id="stop6" />
      <stop
         offset=".54"
         stop-color="#bf99c3"
         id="stop7" />
      <stop
         offset=".66"
         stop-color="#bf99c3"
         id="stop8" />
      <stop
         offset=".71"
         stop-color="#b992be"
         id="stop9" />
      <stop
         offset=".79"
         stop-color="#a980b1"
         id="stop10" />
      <stop
         offset=".88"
         stop-color="#8f619b"
         id="stop11" />
      <stop
         offset=".97"
         stop-color="#6b387d"
         id="stop12" />
      <stop
         offset="1"
         stop-color="#612c75"
         id="stop13" />
    </linearGradient>
    <linearGradient
       id="linear-gradient-2"
       x1="54.09"
       y1="1028.9"
       x2="17.870001"
       y2="1036.6"
       gradientTransform="translate(0,-958.92)"
       gradientUnits="userSpaceOnUse">
      <stop
         offset=".05"
         stop-color="#612c75"
         id="stop14" />
      <stop
         offset=".24"
         stop-color="#855693"
         id="stop15" />
      <stop
         offset=".47"
         stop-color="#ae86b5"
         id="stop16" />
      <stop
         offset=".59"
         stop-color="#bf99c3"
         id="stop17" />
    </linearGradient>
    <linearGradient
       id="linear-gradient-3"
       x1="137.16"
       y1="1028.88"
       x2="173.24001"
       y2="1036.54"
       xlink:href="#linear-gradient-2" />
    <linearGradient
       xlink:href="#linear-gradient-2"
       id="linearGradient20"
       gradientUnits="userSpaceOnUse"
       gradientTransform="translate(0,-958.92)"
       x1="54.09"
       y1="1028.9"
       x2="17.870001"
       y2="1036.6" />
  </defs>
  <g
     id="Layer_2-2"
     data-name="Layer 2"
     transform="translate(0,0.00233929)">
    <g
       id="MH3">
      <path
         class="cls-2"
         d="m 100.3,119.21 c -0.26,-3.08 -0.25,-5.98 -0.13,-8.88 0.37,-9.18 3.78,-17.36 8.27,-25.18 0.52,-0.9 0.51,-1.44 -0.21,-2.26 -2.39,-2.69 -4.46,-5.62 -6.08,-8.86 -0.45,-0.9 -0.44,-1.35 0.47,-1.99 7.48,-5.23 7.83,-16.39 0.63,-21.54 -4.47,-3.2 -9.34,-3.42 -14.09,-0.71 -4.68,2.67 -6.59,7 -6.21,12.31 0.31,4.34 2.42,7.7 5.97,10.15 0.64,0.44 0.68,0.75 0.37,1.41 -1.66,3.5 -3.92,6.58 -6.44,9.48 -0.54,0.62 -0.55,1.02 -0.14,1.74 3.39,5.94 6.27,12.08 7.61,18.86 0.95,4.82 0.91,9.69 0.78,14.57 -0.04,1.32 -0.7,0.55 -1.12,0.32 C 83.51,115.02 77.04,111.39 70.57,107.77 47.45,94.82 24.32,81.87 1.2,68.91 0.86,68.72 0.52,68.51 0,68.21 13.87,60.44 27.62,52.73 41.48,44.97 c -2.26,-2.48 -4.44,-4.91 -7.06,-6.91 -0.94,-0.71 -2.53,-1.29 -2.55,-2.28 0,-0.81 1.42,-1.67 2.25,-2.48 8.16,-7.98 16.71,-15.48 26.35,-21.65 7.12,-4.55 14.64,-8.21 22.9,-10.19 11.1,-2.66 21.92,-1.61 32.5,2.49 9.46,3.67 17.83,9.18 25.73,15.46 6.11,4.85 11.82,10.16 17.38,15.63 0.71,0.7 0.58,1 -0.13,1.5 -3.06,2.14 -5.72,4.72 -8.25,7.46 -0.85,0.93 -0.52,1.13 0.33,1.61 13.05,7.28 26.09,14.59 39.13,21.9 0.37,0.21 0.82,0.33 1.1,0.77 -30.24,16.94 -60.48,33.88 -90.87,50.9 v 0.03 0 z m 8.38,-13.81 c 0.21,0 0.26,0.03 0.29,0 6.45,-3.6 12.9,-7.2 19.36,-10.79 0.45,-0.25 0.46,-0.53 0.38,-0.98 -0.99,-5.67 -0.97,-11.36 -0.37,-17.08 0.95,-9.15 3.45,-17.81 7.96,-25.86 1.78,-3.18 3.83,-6.18 6.05,-9.05 1.45,-1.88 3.11,-3.58 4.79,-5.25 1.11,-1.1 1.16,-1.19 -0.12,-2.19 -1.87,-1.46 -3.63,-3.05 -5.4,-4.61 -4.69,-4.13 -9.77,-7.72 -14.95,-11.18 -3.87,-2.59 -7.99,-4.74 -12.28,-6.55 -9.06,-3.81 -18.4,-5.08 -28.1,-2.99 -8.16,1.76 -15.47,5.43 -22.39,9.94 -3.42,2.23 -6.7,4.68 -9.91,7.23 -3.42,2.71 -6.73,5.54 -10.06,8.34 -0.75,0.63 -0.8,1 -0.05,1.73 5.76,5.65 10.23,12.21 13.5,19.58 5.33,11.97 7.2,24.44 5.24,37.43 -0.13,0.87 0.07,1.34 0.88,1.79 5.67,3.12 11.3,6.31 16.95,9.47 0.65,0.36 1.26,0.84 2.04,1 0.03,-0.15 0.08,-0.27 0.07,-0.38 -0.04,-0.28 -0.1,-0.55 -0.16,-0.82 -1.76,-7.28 -4.92,-13.91 -9.35,-19.92 -0.58,-0.78 -0.52,-1.19 0.12,-1.87 2.11,-2.24 4.12,-4.57 6.03,-6.99 0.57,-0.71 0.81,-1.22 0.01,-1.98 -0.8,-0.77 -1.38,-1.76 -1.89,-2.76 -3.37,-6.64 -2.96,-13.21 0.49,-19.67 2.54,-4.75 6.31,-8.3 11.45,-9.86 8.06,-2.46 17.19,-0.27 22.74,7.39 5.43,7.51 5.98,18.07 -0.16,25.23 -0.46,0.54 -0.3,0.88 0.05,1.34 2,2.61 4.17,5.06 6.4,7.46 0.56,0.6 0.51,0.97 0.04,1.6 -3.61,4.8 -6.27,10.1 -8.21,15.77 -0.6,1.77 -1.17,3.55 -1.43,5.45 v 0.02 h -0.01 z M 15.86,68.23 c 0.56,0.32 0.9,0.53 1.25,0.72 5.01,2.81 10.02,5.62 15.04,8.42 7.37,4.12 14.76,8.23 22.12,12.37 0.74,0.42 1.04,0.49 1.13,-0.55 0.36,-4.39 0.36,-8.77 -0.22,-13.15 -1.13,-8.59 -3.95,-16.58 -8.42,-24 -0.42,-0.69 -0.7,-0.71 -1.36,-0.34 -7.13,4.01 -14.28,7.98 -21.42,11.97 -2.64,1.47 -5.28,2.96 -8.12,4.56 z m 159.35,0.13 c -0.14,-0.45 -0.48,-0.52 -0.75,-0.67 -6.14,-3.43 -12.27,-6.88 -18.42,-10.28 -3.37,-1.87 -6.7,-3.82 -10.15,-5.55 -0.85,-0.43 -1.09,-0.27 -1.5,0.43 -1.71,2.89 -3.22,5.88 -4.46,9 -3.53,8.91 -4.94,18.12 -4.05,27.68 0.09,0.93 0.33,1.12 1.21,0.62 4.33,-2.43 8.71,-4.79 13.05,-7.2 5.77,-3.2 11.53,-6.42 17.29,-9.64 2.61,-1.46 5.2,-2.93 7.79,-4.38 h -0.01 z"
         id="path17" />
      <path
         class="cls-1"
         d="m 108.68,105.4 c 0.26,-1.91 0.83,-3.69 1.43,-5.45 1.94,-5.67 4.6,-10.97 8.21,-15.77 0.47,-0.63 0.51,-0.99 -0.04,-1.6 -2.22,-2.41 -4.4,-4.86 -6.4,-7.46 -0.35,-0.46 -0.51,-0.8 -0.05,-1.34 6.14,-7.16 5.59,-17.72 0.16,-25.23 -5.55,-7.67 -14.67,-9.85 -22.74,-7.39 -5.13,1.56 -8.91,5.11 -11.45,9.86 -3.46,6.46 -3.86,13.03 -0.49,19.67 0.51,1 1.08,1.99 1.89,2.76 0.8,0.76 0.55,1.26 -0.01,1.98 -1.92,2.41 -3.93,4.74 -6.03,6.99 -0.64,0.68 -0.69,1.08 -0.12,1.87 4.43,6.02 7.59,12.65 9.35,19.92 0.07,0.27 0.12,0.54 0.16,0.82 0.01,0.11 -0.04,0.23 -0.07,0.38 -0.78,-0.16 -1.39,-0.63 -2.04,-1 -5.65,-3.15 -11.28,-6.34 -16.95,-9.47 -0.81,-0.45 -1.01,-0.92 -0.88,-1.79 1.97,-12.99 0.1,-25.46 -5.24,-37.43 -3.28,-7.37 -7.75,-13.93 -13.5,-19.58 -0.74,-0.73 -0.7,-1.1 0.05,-1.73 3.34,-2.8 6.64,-5.63 10.06,-8.34 3.22,-2.55 6.49,-5 9.91,-7.23 6.92,-4.51 14.23,-8.18 22.39,-9.94 9.7,-2.09 19.04,-0.83 28.1,2.99 4.29,1.81 8.41,3.96 12.28,6.55 5.17,3.46 10.26,7.05 14.95,11.18 1.77,1.56 3.53,3.15 5.4,4.61 1.27,0.99 1.22,1.09 0.12,2.19 -1.68,1.67 -3.34,3.38 -4.79,5.25 -2.22,2.88 -4.27,5.87 -6.05,9.05 -4.51,8.05 -7.01,16.71 -7.96,25.86 -0.6,5.72 -0.61,11.4 0.37,17.08 0.08,0.45 0.06,0.73 -0.38,0.98 -6.46,3.59 -12.91,7.19 -19.36,10.79 -0.03,0.02 -0.08,0 -0.29,0 v -0.02 h 0.01 z"
         id="path18"
         style="fill:url(#linear-gradient)" />
      <path
         class="cls-3"
         d="m 15.86,68.23 c 2.84,-1.59 5.47,-3.08 8.12,-4.56 7.14,-3.99 14.29,-7.96 21.42,-11.97 0.67,-0.38 0.95,-0.35 1.36,0.34 4.47,7.42 7.29,15.4 8.42,24 0.58,4.38 0.58,8.76 0.22,13.15 -0.09,1.04 -0.39,0.97 -1.13,0.55 C 46.9,85.6 39.52,81.49 32.15,77.37 27.13,74.57 22.12,71.75 17.11,68.95 16.76,68.76 16.42,68.55 15.86,68.23 Z"
         id="path19"
         style="fill:url(#linearGradient20)" />
      <path
         class="cls-4"
         d="m 175.21,68.36 c -2.59,1.45 -5.18,2.92 -7.79,4.38 -5.76,3.22 -11.52,6.44 -17.29,9.64 -4.35,2.41 -8.72,4.77 -13.05,7.2 -0.88,0.49 -1.12,0.3 -1.21,-0.62 -0.89,-9.56 0.52,-18.77 4.05,-27.68 1.24,-3.12 2.75,-6.11 4.46,-9 0.41,-0.7 0.65,-0.86 1.5,-0.43 3.45,1.73 6.77,3.69 10.15,5.55 6.15,3.4 12.29,6.85 18.42,10.28 0.27,0.15 0.61,0.22 0.75,0.67 h 0.01 z"
         id="path20"
         style="fill:url(#linear-gradient-3)" />
    </g>
  </g>
</svg>
