<?xml version="1.0" encoding="UTF-8" standalone="no"?>
<svg
   id="Layer_2"
   data-name="Layer 2"
   viewBox="0 0 159.35 97.542228"
   version="1.1"
   width="159.35001"
   height="97.542229"
   xmlns="http://www.w3.org/2000/svg"
   xmlns:svg="http://www.w3.org/2000/svg">
  <defs
     id="defs1">
    <style
       id="style1">
      .cls-1 {
        stroke-width: 0px;
      }
    </style>
  </defs>
  <g
     id="MH3"
     transform="translate(0,0.00334196)">
    <path
       class="cls-1"
       d="m 92.82,97.5 c 0.26,-1.91 0.83,-3.69 1.43,-5.45 1.94,-5.67 4.6,-10.97 8.21,-15.77 0.47,-0.63 0.51,-0.99 -0.04,-1.6 -2.22,-2.41 -4.4,-4.86 -6.4,-7.46 -0.35,-0.46 -0.51,-0.8 -0.05,-1.34 6.14,-7.16 5.59,-17.72 0.16,-25.23 -5.55,-7.67 -14.67,-9.85 -22.74,-7.39 -5.13,1.56 -8.91,5.11 -11.45,9.86 -3.46,6.46 -3.86,13.03 -0.49,19.67 0.51,1 1.08,1.99 1.89,2.76 0.8,0.76 0.55,1.26 -0.01,1.98 -1.92,2.41 -3.93,4.74 -6.03,6.99 -0.64,0.68 -0.69,1.08 -0.12,1.87 4.43,6.02 7.59,12.65 9.35,19.92 0.07,0.27 0.12,0.54 0.16,0.82 0.01,0.11 -0.04,0.23 -0.07,0.38 -0.78,-0.16 -1.39,-0.63 -2.04,-1 C 58.93,93.36 53.3,90.17 47.63,87.04 46.82,86.59 46.62,86.12 46.75,85.25 48.72,72.26 46.85,59.79 41.51,47.82 38.23,40.45 33.76,33.89 28.01,28.24 c -0.74,-0.73 -0.7,-1.1 0.05,-1.73 3.34,-2.8 6.64,-5.63 10.06,-8.34 3.22,-2.55 6.49,-5 9.91,-7.23 C 54.95,6.43 62.26,2.76 70.42,1 c 9.7,-2.09 19.04,-0.83 28.1,2.99 4.29,1.81 8.41,3.96 12.28,6.55 5.17,3.46 10.26,7.05 14.95,11.18 1.77,1.56 3.53,3.15 5.4,4.61 1.27,0.99 1.22,1.09 0.12,2.19 -1.68,1.67 -3.34,3.38 -4.79,5.25 -2.22,2.88 -4.27,5.87 -6.05,9.05 -4.51,8.05 -7.01,16.71 -7.96,25.86 -0.6,5.72 -0.61,11.4 0.37,17.08 0.08,0.45 0.06,0.73 -0.38,0.98 -6.46,3.59 -12.91,7.19 -19.36,10.79 -0.03,0.02 -0.08,0 -0.29,0 v -0.02 z"
       id="path1" />
    <path
       class="cls-1"
       d="m 0,60.33 c 2.84,-1.59 5.47,-3.08 8.12,-4.56 7.14,-3.99 14.29,-7.96 21.42,-11.97 0.67,-0.38 0.95,-0.35 1.36,0.34 4.47,7.42 7.29,15.4 8.42,24 0.58,4.38 0.58,8.76 0.22,13.15 -0.09,1.04 -0.39,0.97 -1.13,0.55 C 31.04,77.7 23.66,73.59 16.29,69.47 11.27,66.67 6.26,63.85 1.25,61.05 0.9,60.86 0.56,60.65 0,60.33 Z"
       id="path2" />
    <path
       class="cls-1"
       d="m 159.35,60.46 c -2.59,1.45 -5.18,2.92 -7.79,4.38 -5.76,3.22 -11.52,6.44 -17.29,9.64 -4.35,2.41 -8.72,4.77 -13.05,7.2 -0.88,0.49 -1.12,0.3 -1.21,-0.62 -0.89,-9.56 0.52,-18.77 4.05,-27.68 1.24,-3.12 2.75,-6.11 4.46,-9 0.41,-0.7 0.65,-0.86 1.5,-0.43 3.45,1.73 6.77,3.69 10.15,5.55 6.15,3.4 12.29,6.85 18.42,10.28 0.27,0.15 0.61,0.22 0.75,0.67 h 0.01 z"
       id="path3" />
  </g>
</svg>
