<?xml version="1.0" encoding="UTF-8" standalone="no"?>
<svg
   width="90"
   height="90"
   viewBox="0 0 90 90"
   version="1.1"
   xml:space="preserve"
   style="clip-rule:evenodd;fill-rule:evenodd;stroke-linejoin:round;stroke-miterlimit:2"
   id="svg80"
   xmlns="http://www.w3.org/2000/svg"
   xmlns:svg="http://www.w3.org/2000/svg"><rect
     id="Rare"
     x="0"
     y="0"
     width="90"
     height="90"
     style="fill:none" /><path
     d="m 12.898,35.346 0.311,-0.908 c 0.979,-2.861 2.227,-5.739 3.378,-8.564 l 0.51,-1.251 11.577,-0.019 c 0.232,-0.267 0.453,-0.505 0.659,-0.711 4.307,-4.306 11.006,-5.262 15.212,-5.274 v 0.005 l 0.046,0.001 c 0.708,0.016 1.418,0.014 2.126,0.052 1.447,0.077 1.96,0.155 3.238,0.311 l 0.026,0.004 c 3.527,0.527 6.859,2.013 9.705,4.129 0.642,0.478 1.294,1.007 1.822,1.622 l 1.743,-0.061 c 2.692,-0.095 5.388,-0.072 8.081,-0.08 l 1.232,-0.004 0.565,1.097 c 0,0 2.963,5.825 3.502,9.068 l 0.105,0.631 h 4.787 l 0.581,1.01 c 0,0 2.954,5.154 4.005,7.887 l 0.277,0.722 -0.277,0.723 c -0.995,2.595 -2.603,4.982 -3.842,7.463 l -0.557,1.114 h -1.246 c -1.123,0 -2.237,-0.001 -3.346,-0.002 l -0.431,1.11 c -1.135,2.926 -2.124,6.263 -3.549,9.058 l -0.561,1.099 H 57.76 c 0.004,0.97 -0.031,1.938 -0.132,2.905 l -0.058,0.554 -0.334,0.446 c -0.626,0.834 -1.516,1.347 -2.506,1.582 -1.163,0.276 -2.464,0.139 -3.355,-0.131 -0.931,-0.282 -2.534,-1.235 -7.369,-0.947 -0.826,0.049 -1.962,0.306 -2.873,0.475 -0.959,0.177 -1.89,0.644 -2.896,0.788 -0.911,0.131 -2.483,0.22 -3.677,-0.22 -1.258,-0.464 -2.212,-1.371 -2.445,-2.949 L 32.099,67.972 32.095,67.861 C 32.067,67.1 32.062,66.339 32.072,65.578 h -14.77 l -0.515,-1.244 c -1.213,-2.932 -3.625,-8.803 -3.625,-8.803 l -0.507,-1.234 c -1.098,0 -2.202,0.001 -3.316,0.001 H 8.059 L 7.515,53.139 C 6.36,50.678 4.767,48.326 3.869,45.755 L 3.629,45.067 3.884,44.385 C 4.915,41.626 6.482,39.051 7.828,36.443 L 8.39,35.354 Z m 0.494,2.014 c -0.11,-0.078 -0.177,-0.09 -0.177,-0.004 0,0.002 0,0.003 0,0.004 z"
     style="fill-rule:nonzero"
     id="path1" /><path
     d="m 44.545,20.639 c 0.687,0.016 1.377,0.013 2.065,0.05 1.385,0.073 1.876,0.149 3.073,0.295 3.199,0.479 6.182,1.885 8.801,3.754 -1.344,2.2 -3.354,3.805 -5.4,5.297 2.679,-0.494 5.172,-1.651 7.386,-3.227 4.111,5.162 7.099,11.549 6.837,18.274 -0.042,2.076 -1.228,4.004 -2.875,5.209 -2.65,1.469 -5.883,1.367 -8.544,2.75 -0.102,0.269 -0.316,0.805 -0.418,1.079 -0.423,4.708 0.646,9.451 0.154,14.153 -0.841,1.122 -2.451,0.8 -3.664,1.093 -0.251,-2.541 0.026,-3.908 -0.316,-6.438 -0.257,-1.889 -1.814,-2.788 -2.06,-0.154 -0.149,1.605 -0.042,2.039 -0.078,3.644 -1.153,0.454 -2.308,0.883 -3.466,1.312 0.029,-2.107 0.319,-3.984 -0.018,-6.056 -0.275,-1.696 -1.665,-0.999 -1.788,-0.092 -0.309,2.259 -0.204,4.3 -0.348,6.574 -1.043,0.227 -2.083,0.455 -3.12,0.685 -0.633,-2.661 -0.131,-7.868 -1.532,-7.865 -2.533,0.008 -0.758,5.478 -1.283,8.28 -1.318,-0.097 -3.573,0.358 -3.842,-1.469 -0.155,-4.187 0.381,-8.364 0.412,-12.548 -0.06,-0.805 -0.005,-1.884 -0.768,-2.381 -2.977,-1.312 -6.73,-1.043 -9.213,-3.353 -2.642,-2.499 -2.149,-6.427 -1.563,-9.66 1.085,-5.471 3.92,-10.531 7.781,-14.527 0.512,2.01 0.81,4.153 1.934,5.943 1.892,1.14 4.242,0.912 6.367,1.043 -1.568,-0.912 -3.377,-1.521 -4.624,-2.883 -0.661,-2.01 -0.703,-4.158 -0.823,-6.252 3.382,-1.746 7.133,-2.524 10.933,-2.535 z m -0.829,25.254 c -2.362,3.282 -2.6,7.506 -2.213,11.4 2.232,-0.619 4.558,-0.65 6.795,-0.041 0.424,-3.824 0.246,-8.056 -2.185,-11.242 -0.269,2.972 -0.125,6.019 -1.051,8.897 -1.651,-2.702 -0.93,-6.019 -1.348,-9.014 z m 13.293,-8.95 c -0.535,-0.023 -1.053,0.087 -1.563,0.236 -3.423,1.037 -6.042,4.391 -6.241,7.958 -0.149,1.359 0.944,2.721 2.376,2.549 3.121,0.005 6.335,0.41 9.378,-0.424 2.101,-0.614 2.53,-3.27 1.85,-5.078 -0.852,-2.752 -2.823,-4.966 -5.8,-5.241 z m -24.304,0.05 c -0.915,0.089 -0.525,0.024 -1.176,0.154 -2.81,0.949 -4.671,3.902 -4.804,6.796 -0.102,1.641 1.032,3.269 2.708,3.497 2.953,0.543 6.001,0.298 8.985,0.227 1.927,0.097 2.512,-2.219 2.029,-3.716 -0.719,-3.069 -3.04,-6.067 -6.226,-6.801 -0.674,-0.154 -0.829,-0.128 -1.516,-0.154 z"
     style="fill:url(#_Linear1);fill-rule:nonzero"
     id="path2" /><path
     d="m 15.026,54.766 17.091,0.029 c -0.003,1.084 -0.005,2.169 -0.034,3.251 -0.018,0.64 -0.06,1.278 -0.084,1.919 -0.047,1.199 -0.039,2.399 -0.047,3.599 H 18.649 c -1.213,-2.93 -2.617,-5.785 -3.62,-8.798 z m 0.204,-17.407 5.876,0.008 c -0.534,2.872 -0.824,5.632 -0.589,8.392 0.228,2.669 2.337,4.506 3.793,6.516 -5.065,0 -9.911,0.008 -14.971,0.008 C 8.212,49.884 6.647,47.597 5.771,45.09 6.775,42.406 8.309,39.905 9.619,37.367 L 15.23,37.356 Z M 26.599,26.622 c -1.816,2.747 -3.238,5.674 -4.751,8.468 h -6.733 c 0.967,-2.825 2.201,-5.666 3.338,-8.455 z"
     style="fill:url(#_Linear2);fill-rule:nonzero"
     id="path3" /><path
     d="m 74.973,54.766 -17.091,0.029 c 0.002,1.084 0.005,2.169 0.034,3.251 0.018,0.64 0.06,1.278 0.083,1.919 0.047,1.199 0.04,2.399 0.047,3.599 H 71.35 c 1.213,-2.93 2.616,-5.785 3.62,-8.798 z m -0.204,-17.407 -5.876,0.008 c 0.533,2.872 0.823,5.632 0.588,8.392 -0.227,2.669 -2.336,4.506 -3.792,6.516 5.065,0 9.911,0.008 14.971,0.008 1.126,-2.399 2.692,-4.686 3.568,-7.193 C 83.224,42.406 81.69,39.905 80.38,37.367 L 74.769,37.356 Z M 63.399,26.622 c 1.817,2.747 3.239,5.674 4.752,8.468 h 6.733 c -0.967,-2.825 -2.201,-5.666 -3.338,-8.455 z"
     style="fill:url(#_Linear3);fill-rule:nonzero"
     id="path4" /><path
     d="m 15.23,37.359 5.876,0.008 c -0.534,2.872 -0.824,5.632 -0.589,8.392 0.228,2.669 2.337,4.506 3.793,6.516 -5.065,0 -9.911,0.008 -14.971,0.008 C 8.212,49.884 6.647,47.597 5.771,45.09 6.775,42.406 8.309,39.905 9.619,37.367 l 5.611,-0.011 z"
     style="fill:url(#_Linear4);fill-rule:nonzero"
     id="path5" /><path
     d="m 74.769,37.359 -5.876,0.008 c 0.533,2.872 0.823,5.632 0.588,8.392 -0.227,2.669 -2.336,4.506 -3.792,6.516 5.065,0 9.911,0.008 14.971,0.008 1.126,-2.399 2.692,-4.686 3.568,-7.193 -1.004,-2.684 -2.538,-5.185 -3.848,-7.723 l -5.611,-0.011 z"
     style="fill:url(#_Linear5);fill-rule:nonzero"
     id="path6" /><defs
     id="defs80"><linearGradient
       id="_Linear1"
       x1="0"
       y1="0"
       x2="1"
       y2="0"
       gradientUnits="userSpaceOnUse"
       gradientTransform="matrix(59.9437,0,0,59.9437,15.0262,54.7659)"><stop
         offset="0"
         style="stop-color:#8d742f;stop-opacity:1"
         id="stop6" /><stop
         offset="0.07"
         style="stop-color:#967d38;stop-opacity:1"
         id="stop7" /><stop
         offset="0.18"
         style="stop-color:#ae954f;stop-opacity:1"
         id="stop8" /><stop
         offset="0.2"
         style="stop-color:#b39a54;stop-opacity:1"
         id="stop9" /><stop
         offset="0.22"
         style="stop-color:#b9a059;stop-opacity:1"
         id="stop10" /><stop
         offset="0.3"
         style="stop-color:#cab068;stop-opacity:1"
         id="stop11" /><stop
         offset="0.39"
         style="stop-color:#d4ba71;stop-opacity:1"
         id="stop12" /><stop
         offset="0.5"
         style="stop-color:#d7bd74;stop-opacity:1"
         id="stop13" /><stop
         offset="0.61"
         style="stop-color:#d4ba71;stop-opacity:1"
         id="stop14" /><stop
         offset="0.7"
         style="stop-color:#cab068;stop-opacity:1"
         id="stop15" /><stop
         offset="0.78"
         style="stop-color:#b9a059;stop-opacity:1"
         id="stop16" /><stop
         offset="0.8"
         style="stop-color:#b39a54;stop-opacity:1"
         id="stop17" /><stop
         offset="0.86"
         style="stop-color:#a38a45;stop-opacity:1"
         id="stop18" /><stop
         offset="0.94"
         style="stop-color:#937a35;stop-opacity:1"
         id="stop19" /><stop
         offset="1"
         style="stop-color:#8d742f;stop-opacity:1"
         id="stop20" /></linearGradient><linearGradient
       id="_Linear2"
       x1="0"
       y1="0"
       x2="1"
       y2="0"
       gradientUnits="userSpaceOnUse"
       gradientTransform="matrix(50.8729,0,0,50.8729,-17.7514,67.9403)"><stop
         offset="0"
         style="stop-color:#8d742f;stop-opacity:1"
         id="stop21" /><stop
         offset="0.07"
         style="stop-color:#967d38;stop-opacity:1"
         id="stop22" /><stop
         offset="0.18"
         style="stop-color:#ae954f;stop-opacity:1"
         id="stop23" /><stop
         offset="0.2"
         style="stop-color:#b39a54;stop-opacity:1"
         id="stop24" /><stop
         offset="0.22"
         style="stop-color:#b9a059;stop-opacity:1"
         id="stop25" /><stop
         offset="0.3"
         style="stop-color:#cab068;stop-opacity:1"
         id="stop26" /><stop
         offset="0.39"
         style="stop-color:#d4ba71;stop-opacity:1"
         id="stop27" /><stop
         offset="0.5"
         style="stop-color:#d7bd74;stop-opacity:1"
         id="stop28" /><stop
         offset="0.61"
         style="stop-color:#d4ba71;stop-opacity:1"
         id="stop29" /><stop
         offset="0.7"
         style="stop-color:#cab068;stop-opacity:1"
         id="stop30" /><stop
         offset="0.78"
         style="stop-color:#b9a059;stop-opacity:1"
         id="stop31" /><stop
         offset="0.8"
         style="stop-color:#b39a54;stop-opacity:1"
         id="stop32" /><stop
         offset="0.86"
         style="stop-color:#a38a45;stop-opacity:1"
         id="stop33" /><stop
         offset="0.94"
         style="stop-color:#937a35;stop-opacity:1"
         id="stop34" /><stop
         offset="1"
         style="stop-color:#8d742f;stop-opacity:1"
         id="stop35" /></linearGradient><linearGradient
       id="_Linear3"
       x1="0"
       y1="0"
       x2="1"
       y2="0"
       gradientUnits="userSpaceOnUse"
       gradientTransform="matrix(-50.8729,0,0,50.8729,107.75,67.9403)"><stop
         offset="0"
         style="stop-color:#8d742f;stop-opacity:1"
         id="stop36" /><stop
         offset="0.07"
         style="stop-color:#967d38;stop-opacity:1"
         id="stop37" /><stop
         offset="0.18"
         style="stop-color:#ae954f;stop-opacity:1"
         id="stop38" /><stop
         offset="0.2"
         style="stop-color:#b39a54;stop-opacity:1"
         id="stop39" /><stop
         offset="0.22"
         style="stop-color:#b9a059;stop-opacity:1"
         id="stop40" /><stop
         offset="0.3"
         style="stop-color:#cab068;stop-opacity:1"
         id="stop41" /><stop
         offset="0.39"
         style="stop-color:#d4ba71;stop-opacity:1"
         id="stop42" /><stop
         offset="0.5"
         style="stop-color:#d7bd74;stop-opacity:1"
         id="stop43" /><stop
         offset="0.61"
         style="stop-color:#d4ba71;stop-opacity:1"
         id="stop44" /><stop
         offset="0.7"
         style="stop-color:#cab068;stop-opacity:1"
         id="stop45" /><stop
         offset="0.78"
         style="stop-color:#b9a059;stop-opacity:1"
         id="stop46" /><stop
         offset="0.8"
         style="stop-color:#b39a54;stop-opacity:1"
         id="stop47" /><stop
         offset="0.86"
         style="stop-color:#a38a45;stop-opacity:1"
         id="stop48" /><stop
         offset="0.94"
         style="stop-color:#937a35;stop-opacity:1"
         id="stop49" /><stop
         offset="1"
         style="stop-color:#8d742f;stop-opacity:1"
         id="stop50" /></linearGradient><linearGradient
       id="_Linear4"
       x1="0"
       y1="0"
       x2="1"
       y2="0"
       gradientUnits="userSpaceOnUse"
       gradientTransform="matrix(42.0613,0,0,42.0613,-17.7514,67.9403)"><stop
         offset="0"
         style="stop-color:#8d742f;stop-opacity:1"
         id="stop51" /><stop
         offset="0.07"
         style="stop-color:#967d38;stop-opacity:1"
         id="stop52" /><stop
         offset="0.18"
         style="stop-color:#ae954f;stop-opacity:1"
         id="stop53" /><stop
         offset="0.2"
         style="stop-color:#b39a54;stop-opacity:1"
         id="stop54" /><stop
         offset="0.22"
         style="stop-color:#b9a059;stop-opacity:1"
         id="stop55" /><stop
         offset="0.3"
         style="stop-color:#cab068;stop-opacity:1"
         id="stop56" /><stop
         offset="0.39"
         style="stop-color:#d4ba71;stop-opacity:1"
         id="stop57" /><stop
         offset="0.5"
         style="stop-color:#d7bd74;stop-opacity:1"
         id="stop58" /><stop
         offset="0.61"
         style="stop-color:#d4ba71;stop-opacity:1"
         id="stop59" /><stop
         offset="0.7"
         style="stop-color:#cab068;stop-opacity:1"
         id="stop60" /><stop
         offset="0.78"
         style="stop-color:#b9a059;stop-opacity:1"
         id="stop61" /><stop
         offset="0.8"
         style="stop-color:#b39a54;stop-opacity:1"
         id="stop62" /><stop
         offset="0.86"
         style="stop-color:#a38a45;stop-opacity:1"
         id="stop63" /><stop
         offset="0.94"
         style="stop-color:#937a35;stop-opacity:1"
         id="stop64" /><stop
         offset="1"
         style="stop-color:#8d742f;stop-opacity:1"
         id="stop65" /></linearGradient><linearGradient
       id="_Linear5"
       x1="0"
       y1="0"
       x2="1"
       y2="0"
       gradientUnits="userSpaceOnUse"
       gradientTransform="matrix(-42.0613,0.503693,0.503693,42.0613,107.75,67.9403)"><stop
         offset="0"
         style="stop-color:#8d742f;stop-opacity:1"
         id="stop66" /><stop
         offset="0.07"
         style="stop-color:#967d38;stop-opacity:1"
         id="stop67" /><stop
         offset="0.18"
         style="stop-color:#ae954f;stop-opacity:1"
         id="stop68" /><stop
         offset="0.2"
         style="stop-color:#b39a54;stop-opacity:1"
         id="stop69" /><stop
         offset="0.22"
         style="stop-color:#b9a059;stop-opacity:1"
         id="stop70" /><stop
         offset="0.3"
         style="stop-color:#cab068;stop-opacity:1"
         id="stop71" /><stop
         offset="0.39"
         style="stop-color:#d4ba71;stop-opacity:1"
         id="stop72" /><stop
         offset="0.5"
         style="stop-color:#d7bd74;stop-opacity:1"
         id="stop73" /><stop
         offset="0.61"
         style="stop-color:#d4ba71;stop-opacity:1"
         id="stop74" /><stop
         offset="0.7"
         style="stop-color:#cab068;stop-opacity:1"
         id="stop75" /><stop
         offset="0.78"
         style="stop-color:#b9a059;stop-opacity:1"
         id="stop76" /><stop
         offset="0.8"
         style="stop-color:#b39a54;stop-opacity:1"
         id="stop77" /><stop
         offset="0.86"
         style="stop-color:#a38a45;stop-opacity:1"
         id="stop78" /><stop
         offset="0.94"
         style="stop-color:#937a35;stop-opacity:1"
         id="stop79" /><stop
         offset="1"
         style="stop-color:#8d742f;stop-opacity:1"
         id="stop80" /></linearGradient></defs></svg>
