<?xml version="1.0" encoding="UTF-8" standalone="no"?>
<svg
   width="90"
   height="90"
   viewBox="0 0 90 90"
   version="1.1"
   xml:space="preserve"
   style="clip-rule:evenodd;fill-rule:evenodd;stroke-linejoin:round;stroke-miterlimit:2"
   id="svg90"
   xmlns="http://www.w3.org/2000/svg"
   xmlns:svg="http://www.w3.org/2000/svg"><rect
     id="Uncommon"
     x="0"
     y="0"
     width="90"
     height="90"
     style="fill:none" /><path
     d="m 12.899,35.346 0.311,-0.908 c 0.979,-2.861 2.226,-5.739 3.378,-8.564 l 0.51,-1.251 11.577,-0.019 c 0.232,-0.267 0.453,-0.505 0.659,-0.711 4.306,-4.306 11.005,-5.262 15.212,-5.274 v 0.005 l 0.045,0.001 c 0.708,0.016 1.419,0.014 2.126,0.052 1.447,0.077 1.961,0.155 3.238,0.311 l 0.027,0.004 c 3.526,0.527 6.858,2.013 9.704,4.129 0.643,0.478 1.295,1.007 1.822,1.622 l 1.743,-0.061 c 2.693,-0.095 5.388,-0.072 8.081,-0.08 l 1.233,-0.004 0.564,1.097 c 0,0 2.964,5.825 3.503,9.068 l 0.105,0.631 h 4.787 l 0.581,1.01 c 0,0 2.953,5.154 4.004,7.887 l 0.278,0.722 -0.277,0.723 c -0.995,2.595 -2.604,4.982 -3.842,7.463 l -0.557,1.114 h -1.246 c -1.123,0 -2.238,-0.001 -3.347,-0.002 l -0.43,1.11 c -1.135,2.926 -2.124,6.263 -3.55,9.058 l -0.56,1.099 H 57.761 c 0.004,0.97 -0.031,1.938 -0.132,2.905 l -0.058,0.554 -0.335,0.446 c -0.626,0.834 -1.515,1.347 -2.506,1.582 -1.162,0.276 -2.464,0.139 -3.354,-0.131 -0.931,-0.282 -2.535,-1.235 -7.369,-0.947 -0.826,0.049 -1.962,0.306 -2.874,0.475 -0.958,0.177 -1.89,0.644 -2.895,0.788 -0.912,0.131 -2.484,0.22 -3.677,-0.22 -1.258,-0.464 -2.213,-1.371 -2.445,-2.949 L 32.1,67.972 32.096,67.861 C 32.068,67.1 32.062,66.339 32.072,65.578 H 17.303 l -0.515,-1.244 c -1.214,-2.932 -3.625,-8.803 -3.625,-8.803 l -0.507,-1.234 c -1.098,0 -2.202,0.001 -3.316,0.001 H 8.06 L 7.516,53.139 C 6.36,50.678 4.768,48.326 3.87,45.755 L 3.63,45.067 3.885,44.385 C 4.916,41.626 6.483,39.051 7.829,36.443 L 8.39,35.354 Z m 0.494,2.014 c -0.11,-0.078 -0.177,-0.09 -0.177,-0.004 0,0.002 0,0.003 0,0.004 z M 42.78,20.693 c -0.152,-0.124 -0.249,-0.163 -0.249,-0.059 0,0.026 0,0.051 10e-4,0.076 0.083,-0.006 0.166,-0.012 0.248,-0.017 z"
     style="fill-rule:nonzero"
     id="path1" /><path
     d="m 15.027,54.766 17.091,0.029 c -0.003,1.084 -0.006,2.169 -0.034,3.251 -0.019,0.64 -0.061,1.278 -0.084,1.919 -0.047,1.199 -0.039,2.399 -0.047,3.599 H 18.649 c -1.212,-2.93 -2.616,-5.785 -3.62,-8.798 z m 0.204,-17.407 5.875,0.008 c -0.533,2.872 -0.823,5.632 -0.588,8.392 0.228,2.669 2.337,4.506 3.793,6.516 -5.066,0 -9.911,0.008 -14.971,0.008 C 8.213,49.884 6.647,47.597 5.772,45.09 6.776,42.406 8.31,39.905 9.619,37.367 l 5.612,-0.011 z M 26.6,26.622 c -1.816,2.747 -3.238,5.674 -4.751,8.468 h -6.733 c 0.967,-2.825 2.2,-5.666 3.337,-8.455 z"
     style="fill:url(#_Linear1);fill-rule:nonzero"
     id="path2" /><path
     d="m 74.973,54.766 -17.091,0.029 c 0.003,1.084 0.006,2.169 0.034,3.251 0.019,0.64 0.061,1.278 0.084,1.919 0.047,1.199 0.039,2.399 0.047,3.599 h 13.304 c 1.212,-2.93 2.616,-5.785 3.62,-8.798 z m -0.204,-17.407 -5.875,0.008 c 0.533,2.872 0.823,5.632 0.588,8.392 -0.227,2.669 -2.337,4.506 -3.793,6.516 5.066,0 9.911,0.008 14.972,0.008 1.126,-2.399 2.692,-4.686 3.567,-7.193 -1.003,-2.684 -2.538,-5.185 -3.847,-7.723 L 74.769,37.356 Z M 63.4,26.622 c 1.816,2.747 3.238,5.674 4.752,8.468 h 6.732 c -0.967,-2.825 -2.2,-5.666 -3.337,-8.455 z"
     style="fill:url(#_Linear2);fill-rule:nonzero"
     id="path3" /><path
     d="m 15.231,37.359 5.875,0.008 c -0.533,2.872 -0.823,5.632 -0.588,8.392 0.228,2.669 2.337,4.506 3.793,6.516 -5.066,0 -9.911,0.008 -14.971,0.008 C 8.213,49.884 6.647,47.597 5.772,45.09 6.776,42.406 8.31,39.905 9.619,37.367 l 5.612,-0.011 z"
     style="fill:url(#_Linear3);fill-rule:nonzero"
     id="path4" /><path
     d="m 74.769,37.359 -5.875,0.008 c 0.533,2.872 0.823,5.632 0.588,8.392 -0.227,2.669 -2.337,4.506 -3.793,6.516 5.066,0 9.911,0.008 14.972,0.008 1.126,-2.399 2.692,-4.686 3.567,-7.193 -1.003,-2.684 -2.538,-5.185 -3.847,-7.723 l -5.612,-0.011 z"
     style="fill:url(#_Linear4);fill-rule:nonzero"
     id="path5" /><path
     d="m 44.546,20.639 c 0.687,0.016 1.377,0.013 2.064,0.05 1.386,0.073 1.877,0.149 3.074,0.295 3.199,0.479 6.181,1.885 8.8,3.754 -1.343,2.2 -3.353,3.805 -5.4,5.297 2.679,-0.494 5.173,-1.651 7.387,-3.227 4.111,5.162 7.098,11.549 6.837,18.274 -0.042,2.076 -1.228,4.004 -2.875,5.209 -2.65,1.469 -5.883,1.367 -8.544,2.75 -0.102,0.269 -0.316,0.805 -0.418,1.079 -0.424,4.708 0.645,9.451 0.154,14.153 -0.842,1.122 -2.452,0.8 -3.664,1.093 -0.251,-2.541 0.026,-3.908 -0.317,-6.438 -0.256,-1.889 -1.814,-2.788 -2.059,-0.154 -0.149,1.605 -0.042,2.039 -0.079,3.644 -1.152,0.454 -2.308,0.883 -3.465,1.312 0.028,-2.107 0.318,-3.984 -0.019,-6.056 -0.274,-1.696 -1.665,-0.999 -1.787,-0.092 -0.309,2.259 -0.204,4.3 -0.348,6.574 -1.043,0.227 -2.083,0.455 -3.121,0.685 -0.632,-2.661 -0.13,-7.868 -1.531,-7.865 -2.533,0.008 -0.758,5.478 -1.284,8.28 -1.317,-0.097 -3.573,0.358 -3.842,-1.469 -0.154,-4.187 0.382,-8.364 0.413,-12.548 -0.06,-0.805 -0.005,-1.884 -0.768,-2.381 -2.977,-1.312 -6.73,-1.043 -9.213,-3.353 -2.643,-2.499 -2.149,-6.427 -1.563,-9.66 1.084,-5.471 3.92,-10.531 7.78,-14.527 0.513,2.01 0.811,4.153 1.935,5.943 1.892,1.14 4.242,0.912 6.366,1.043 -1.568,-0.912 -3.376,-1.521 -4.623,-2.883 -0.661,-2.01 -0.703,-4.158 -0.823,-6.252 3.382,-1.746 7.132,-2.524 10.933,-2.535 z m -0.829,25.254 c -2.363,3.282 -2.601,7.506 -2.214,11.4 2.232,-0.619 4.558,-0.65 6.796,-0.041 0.423,-3.824 0.245,-8.056 -2.185,-11.242 -0.269,2.972 -0.126,6.019 -1.051,8.897 -1.652,-2.702 -0.93,-6.019 -1.349,-9.014 z m 13.293,-8.95 c -0.536,-0.023 -1.053,0.087 -1.563,0.236 -3.424,1.037 -6.043,4.391 -6.241,7.958 -0.149,1.359 0.943,2.721 2.376,2.549 3.12,0.005 6.335,0.41 9.377,-0.424 2.102,-0.614 2.53,-3.27 1.851,-5.078 -0.852,-2.752 -2.823,-4.966 -5.8,-5.241 z m -24.304,0.05 c -0.915,0.089 -0.526,0.024 -1.176,0.154 -2.81,0.949 -4.671,3.902 -4.804,6.796 -0.102,1.641 1.032,3.269 2.707,3.497 2.954,0.543 6.001,0.298 8.986,0.227 1.926,0.097 2.512,-2.219 2.028,-3.716 -0.718,-3.069 -3.039,-6.067 -6.225,-6.801 -0.675,-0.154 -0.829,-0.128 -1.516,-0.154 z"
     style="fill:url(#_Linear5);fill-rule:nonzero"
     id="path6" /><defs
     id="defs90"><linearGradient
       id="_Linear1"
       x1="0"
       y1="0"
       x2="1"
       y2="0"
       gradientUnits="userSpaceOnUse"
       gradientTransform="matrix(50.8729,0,0,50.8729,-17.7508,67.9403)"><stop
         offset="0"
         style="stop-color:#626e77;stop-opacity:1"
         id="stop6" /><stop
         offset="0.04"
         style="stop-color:#697780;stop-opacity:1"
         id="stop7" /><stop
         offset="0.11"
         style="stop-color:#7d8e98;stop-opacity:1"
         id="stop8" /><stop
         offset="0.2"
         style="stop-color:#9eb4c0;stop-opacity:1"
         id="stop9" /><stop
         offset="0.2"
         style="stop-color:#a0b6c2;stop-opacity:1"
         id="stop10" /><stop
         offset="0.2"
         style="stop-color:#a1b7c3;stop-opacity:1"
         id="stop11" /><stop
         offset="0.29"
         style="stop-color:#adc6d4;stop-opacity:1"
         id="stop12" /><stop
         offset="0.38"
         style="stop-color:#b5cede;stop-opacity:1"
         id="stop13" /><stop
         offset="0.5"
         style="stop-color:#b7d1e1;stop-opacity:1"
         id="stop14" /><stop
         offset="0.62"
         style="stop-color:#b5cede;stop-opacity:1"
         id="stop15" /><stop
         offset="0.71"
         style="stop-color:#adc6d4;stop-opacity:1"
         id="stop16" /><stop
         offset="0.8"
         style="stop-color:#a1b7c3;stop-opacity:1"
         id="stop17" /><stop
         offset="0.8"
         style="stop-color:#a0b6c2;stop-opacity:1"
         id="stop18" /><stop
         offset="0.85"
         style="stop-color:#8b9da8;stop-opacity:1"
         id="stop19" /><stop
         offset="0.91"
         style="stop-color:#74838d;stop-opacity:1"
         id="stop20" /><stop
         offset="0.96"
         style="stop-color:#67747d;stop-opacity:1"
         id="stop21" /><stop
         offset="1"
         style="stop-color:#626e77;stop-opacity:1"
         id="stop22" /></linearGradient><linearGradient
       id="_Linear2"
       x1="0"
       y1="0"
       x2="1"
       y2="0"
       gradientUnits="userSpaceOnUse"
       gradientTransform="matrix(-50.8729,0,0,50.8729,107.751,67.9403)"><stop
         offset="0"
         style="stop-color:#626e77;stop-opacity:1"
         id="stop23" /><stop
         offset="0.04"
         style="stop-color:#697780;stop-opacity:1"
         id="stop24" /><stop
         offset="0.11"
         style="stop-color:#7d8e98;stop-opacity:1"
         id="stop25" /><stop
         offset="0.2"
         style="stop-color:#9eb4c0;stop-opacity:1"
         id="stop26" /><stop
         offset="0.2"
         style="stop-color:#a0b6c2;stop-opacity:1"
         id="stop27" /><stop
         offset="0.2"
         style="stop-color:#a1b7c3;stop-opacity:1"
         id="stop28" /><stop
         offset="0.29"
         style="stop-color:#adc6d4;stop-opacity:1"
         id="stop29" /><stop
         offset="0.38"
         style="stop-color:#b5cede;stop-opacity:1"
         id="stop30" /><stop
         offset="0.5"
         style="stop-color:#b7d1e1;stop-opacity:1"
         id="stop31" /><stop
         offset="0.62"
         style="stop-color:#b5cede;stop-opacity:1"
         id="stop32" /><stop
         offset="0.71"
         style="stop-color:#adc6d4;stop-opacity:1"
         id="stop33" /><stop
         offset="0.8"
         style="stop-color:#a1b7c3;stop-opacity:1"
         id="stop34" /><stop
         offset="0.8"
         style="stop-color:#a0b6c2;stop-opacity:1"
         id="stop35" /><stop
         offset="0.85"
         style="stop-color:#8b9da8;stop-opacity:1"
         id="stop36" /><stop
         offset="0.91"
         style="stop-color:#74838d;stop-opacity:1"
         id="stop37" /><stop
         offset="0.96"
         style="stop-color:#67747d;stop-opacity:1"
         id="stop38" /><stop
         offset="1"
         style="stop-color:#626e77;stop-opacity:1"
         id="stop39" /></linearGradient><linearGradient
       id="_Linear3"
       x1="0"
       y1="0"
       x2="1"
       y2="0"
       gradientUnits="userSpaceOnUse"
       gradientTransform="matrix(42.0613,0,0,42.0613,-17.7508,67.9403)"><stop
         offset="0"
         style="stop-color:#626e77;stop-opacity:1"
         id="stop40" /><stop
         offset="0.04"
         style="stop-color:#697780;stop-opacity:1"
         id="stop41" /><stop
         offset="0.11"
         style="stop-color:#7d8e98;stop-opacity:1"
         id="stop42" /><stop
         offset="0.2"
         style="stop-color:#9eb4c0;stop-opacity:1"
         id="stop43" /><stop
         offset="0.2"
         style="stop-color:#a0b6c2;stop-opacity:1"
         id="stop44" /><stop
         offset="0.2"
         style="stop-color:#a1b7c3;stop-opacity:1"
         id="stop45" /><stop
         offset="0.29"
         style="stop-color:#adc6d4;stop-opacity:1"
         id="stop46" /><stop
         offset="0.38"
         style="stop-color:#b5cede;stop-opacity:1"
         id="stop47" /><stop
         offset="0.5"
         style="stop-color:#b7d1e1;stop-opacity:1"
         id="stop48" /><stop
         offset="0.62"
         style="stop-color:#b5cede;stop-opacity:1"
         id="stop49" /><stop
         offset="0.71"
         style="stop-color:#adc6d4;stop-opacity:1"
         id="stop50" /><stop
         offset="0.8"
         style="stop-color:#a1b7c3;stop-opacity:1"
         id="stop51" /><stop
         offset="0.8"
         style="stop-color:#a0b6c2;stop-opacity:1"
         id="stop52" /><stop
         offset="0.85"
         style="stop-color:#8b9da8;stop-opacity:1"
         id="stop53" /><stop
         offset="0.91"
         style="stop-color:#74838d;stop-opacity:1"
         id="stop54" /><stop
         offset="0.96"
         style="stop-color:#67747d;stop-opacity:1"
         id="stop55" /><stop
         offset="1"
         style="stop-color:#626e77;stop-opacity:1"
         id="stop56" /></linearGradient><linearGradient
       id="_Linear4"
       x1="0"
       y1="0"
       x2="1"
       y2="0"
       gradientUnits="userSpaceOnUse"
       gradientTransform="matrix(-42.0613,0.503693,0.503693,42.0613,107.751,67.9403)"><stop
         offset="0"
         style="stop-color:#626e77;stop-opacity:1"
         id="stop57" /><stop
         offset="0.04"
         style="stop-color:#697780;stop-opacity:1"
         id="stop58" /><stop
         offset="0.11"
         style="stop-color:#7d8e98;stop-opacity:1"
         id="stop59" /><stop
         offset="0.2"
         style="stop-color:#9eb4c0;stop-opacity:1"
         id="stop60" /><stop
         offset="0.2"
         style="stop-color:#a0b6c2;stop-opacity:1"
         id="stop61" /><stop
         offset="0.2"
         style="stop-color:#a1b7c3;stop-opacity:1"
         id="stop62" /><stop
         offset="0.29"
         style="stop-color:#adc6d4;stop-opacity:1"
         id="stop63" /><stop
         offset="0.38"
         style="stop-color:#b5cede;stop-opacity:1"
         id="stop64" /><stop
         offset="0.5"
         style="stop-color:#b7d1e1;stop-opacity:1"
         id="stop65" /><stop
         offset="0.62"
         style="stop-color:#b5cede;stop-opacity:1"
         id="stop66" /><stop
         offset="0.71"
         style="stop-color:#adc6d4;stop-opacity:1"
         id="stop67" /><stop
         offset="0.8"
         style="stop-color:#a1b7c3;stop-opacity:1"
         id="stop68" /><stop
         offset="0.8"
         style="stop-color:#a0b6c2;stop-opacity:1"
         id="stop69" /><stop
         offset="0.85"
         style="stop-color:#8b9da8;stop-opacity:1"
         id="stop70" /><stop
         offset="0.91"
         style="stop-color:#74838d;stop-opacity:1"
         id="stop71" /><stop
         offset="0.96"
         style="stop-color:#67747d;stop-opacity:1"
         id="stop72" /><stop
         offset="1"
         style="stop-color:#626e77;stop-opacity:1"
         id="stop73" /></linearGradient><linearGradient
       id="_Linear5"
       x1="0"
       y1="0"
       x2="1"
       y2="0"
       gradientUnits="userSpaceOnUse"
       gradientTransform="matrix(59.9437,0,0,59.9437,15.0268,54.7659)"><stop
         offset="0"
         style="stop-color:#626e77;stop-opacity:1"
         id="stop74" /><stop
         offset="0.04"
         style="stop-color:#697780;stop-opacity:1"
         id="stop75" /><stop
         offset="0.11"
         style="stop-color:#7d8e98;stop-opacity:1"
         id="stop76" /><stop
         offset="0.2"
         style="stop-color:#9eb4c0;stop-opacity:1"
         id="stop77" /><stop
         offset="0.2"
         style="stop-color:#a0b6c2;stop-opacity:1"
         id="stop78" /><stop
         offset="0.2"
         style="stop-color:#a1b7c3;stop-opacity:1"
         id="stop79" /><stop
         offset="0.29"
         style="stop-color:#adc6d4;stop-opacity:1"
         id="stop80" /><stop
         offset="0.38"
         style="stop-color:#b5cede;stop-opacity:1"
         id="stop81" /><stop
         offset="0.5"
         style="stop-color:#b7d1e1;stop-opacity:1"
         id="stop82" /><stop
         offset="0.62"
         style="stop-color:#b5cede;stop-opacity:1"
         id="stop83" /><stop
         offset="0.71"
         style="stop-color:#adc6d4;stop-opacity:1"
         id="stop84" /><stop
         offset="0.8"
         style="stop-color:#a1b7c3;stop-opacity:1"
         id="stop85" /><stop
         offset="0.8"
         style="stop-color:#a0b6c2;stop-opacity:1"
         id="stop86" /><stop
         offset="0.85"
         style="stop-color:#8b9da8;stop-opacity:1"
         id="stop87" /><stop
         offset="0.91"
         style="stop-color:#74838d;stop-opacity:1"
         id="stop88" /><stop
         offset="0.96"
         style="stop-color:#67747d;stop-opacity:1"
         id="stop89" /><stop
         offset="1"
         style="stop-color:#626e77;stop-opacity:1"
         id="stop90" /></linearGradient></defs></svg>
