<?xml version="1.0" encoding="UTF-8" standalone="no"?>
<svg
   width="90"
   height="90"
   viewBox="0 0 90 90"
   version="1.1"
   xml:space="preserve"
   style="clip-rule:evenodd;fill-rule:evenodd;stroke-linejoin:round;stroke-miterlimit:2"
   id="svg3"
   xmlns="http://www.w3.org/2000/svg"
   xmlns:svg="http://www.w3.org/2000/svg"><defs
     id="defs3" /><rect
     id="WM"
     x="0"
     y="0"
     width="90"
     height="90"
     style="fill:none" /><path
     d="m 15.026,54.766 17.091,0.029 c -0.003,1.084 -0.005,2.169 -0.034,3.251 -0.018,0.64 -0.06,1.278 -0.084,1.919 -0.047,1.199 -0.039,2.399 -0.047,3.599 H 18.649 c -1.213,-2.93 -2.617,-5.785 -3.62,-8.798 z m 0.204,-17.407 5.876,0.008 c -0.534,2.872 -0.824,5.632 -0.588,8.392 0.227,2.669 2.336,4.506 3.792,6.516 -5.065,0 -9.911,0.008 -14.971,0.008 C 8.212,49.884 6.647,47.597 5.771,45.09 6.775,42.406 8.309,39.905 9.619,37.367 L 15.23,37.356 Z M 26.6,26.622 c -1.817,2.747 -3.239,5.674 -4.752,8.468 h -6.733 c 0.967,-2.825 2.201,-5.666 3.338,-8.455 z"
     style="fill-rule:nonzero"
     id="path1" /><path
     d="m 74.973,54.766 -17.091,0.029 c 0.002,1.084 0.005,2.169 0.034,3.251 0.018,0.64 0.06,1.278 0.083,1.919 0.047,1.199 0.04,2.399 0.047,3.599 H 71.35 c 1.213,-2.93 2.616,-5.785 3.62,-8.798 z m -0.204,-17.407 -5.876,0.008 c 0.533,2.872 0.823,5.632 0.588,8.392 -0.227,2.669 -2.336,4.506 -3.792,6.516 5.065,0 9.911,0.008 14.971,0.008 1.126,-2.399 2.692,-4.686 3.568,-7.193 C 83.224,42.406 81.69,39.905 80.38,37.367 L 74.769,37.356 Z M 63.399,26.622 c 1.817,2.747 3.239,5.674 4.752,8.468 h 6.733 c -0.967,-2.825 -2.201,-5.666 -3.338,-8.455 z"
     style="fill-rule:nonzero"
     id="path2" /><path
     d="m 44.545,20.639 c 0.687,0.016 1.377,0.013 2.065,0.05 1.385,0.073 1.876,0.149 3.073,0.295 3.199,0.479 6.182,1.885 8.801,3.754 -1.344,2.2 -3.354,3.805 -5.4,5.297 2.679,-0.494 5.172,-1.651 7.386,-3.227 4.111,5.162 7.099,11.549 6.837,18.274 -0.042,2.076 -1.228,4.004 -2.875,5.209 -2.65,1.469 -5.883,1.367 -8.544,2.75 -0.102,0.269 -0.316,0.805 -0.418,1.079 -0.423,4.708 0.646,9.451 0.154,14.153 -0.841,1.122 -2.451,0.8 -3.664,1.093 -0.251,-2.541 0.026,-3.908 -0.316,-6.438 -0.257,-1.889 -1.814,-2.788 -2.06,-0.154 -0.149,1.605 -0.042,2.039 -0.078,3.644 -1.153,0.454 -2.308,0.883 -3.466,1.312 0.029,-2.107 0.319,-3.984 -0.018,-6.056 -0.275,-1.696 -1.665,-0.999 -1.788,-0.092 -0.309,2.259 -0.204,4.3 -0.348,6.574 -1.043,0.227 -2.083,0.455 -3.12,0.685 -0.633,-2.661 -0.131,-7.868 -1.532,-7.865 -2.533,0.008 -0.758,5.478 -1.283,8.28 -1.318,-0.097 -3.573,0.358 -3.842,-1.469 -0.155,-4.187 0.381,-8.364 0.413,-12.548 -0.061,-0.805 -0.006,-1.884 -0.769,-2.381 -2.977,-1.312 -6.73,-1.043 -9.213,-3.353 -2.642,-2.499 -2.148,-6.427 -1.563,-9.66 1.085,-5.471 3.92,-10.531 7.781,-14.527 0.512,2.01 0.81,4.153 1.934,5.943 1.892,1.14 4.242,0.912 6.367,1.043 -1.568,-0.912 -3.377,-1.521 -4.624,-2.883 -0.661,-2.01 -0.703,-4.158 -0.823,-6.252 3.382,-1.746 7.133,-2.524 10.933,-2.535 z m -0.829,25.254 c -2.362,3.282 -2.6,7.506 -2.213,11.4 2.232,-0.619 4.558,-0.65 6.795,-0.041 0.424,-3.824 0.246,-8.056 -2.185,-11.242 -0.269,2.972 -0.125,6.019 -1.051,8.897 -1.651,-2.702 -0.93,-6.019 -1.348,-9.014 z m 13.293,-8.95 c -0.535,-0.023 -1.053,0.087 -1.563,0.236 -3.423,1.037 -6.042,4.391 -6.241,7.958 -0.149,1.359 0.944,2.721 2.376,2.549 3.121,0.005 6.335,0.41 9.378,-0.424 2.101,-0.614 2.53,-3.27 1.85,-5.078 -0.852,-2.752 -2.823,-4.966 -5.8,-5.241 z m -24.304,0.05 c -0.915,0.089 -0.525,0.024 -1.176,0.154 -2.81,0.949 -4.671,3.902 -4.804,6.796 -0.102,1.641 1.032,3.269 2.708,3.497 2.953,0.543 6.001,0.298 8.985,0.227 1.927,0.097 2.512,-2.219 2.029,-3.716 -0.719,-3.069 -3.04,-6.067 -6.226,-6.801 -0.674,-0.154 -0.829,-0.128 -1.516,-0.154 z"
     style="fill-rule:nonzero"
     id="path3" /></svg>
