<?xml version="1.0" encoding="UTF-8"?>
<svg id="Layer_2" data-name="Layer 2" xmlns="http://www.w3.org/2000/svg" viewBox="0 0 946.8 710.79">
  <defs>
    <style>
      .cls-1, .cls-2 {
        stroke-width: 0px;
      }

      .cls-2 {
        fill: #fff;
      }
    </style>
  </defs>
  <g id="Layer_1-2" data-name="Layer 1">
    <g>
      <path class="cls-1" d="m696.64,697.79c-4.66,0-9.47-.09-14.28-.28l-.33-.02c-32.16-2.04-62.32-11.31-89.64-27.55-24.56-14.59-46.97-34.89-66.62-60.34-27.32-35.38-45.49-75.23-57.52-111.17-.9,3.3-1.82,6.56-2.73,9.79l-.08.29c-12.94,41.99-29.73,75.9-49.89,100.77l-.38.47-.43.44c-24.26,24.77-51.05,43.71-79.63,56.31-28.72,12.66-65.79,19.08-110.16,19.08H13V24.42h206.26c50.94,0,88.72,5.63,115.48,17.2,30.79,11.62,57.68,31.36,79.91,58.66,21.94,26.95,39.33,62.16,51.69,104.66.57,1.95,1.13,3.92,1.67,5.89,13.74-41.66,33.14-79.56,56.62-110.04,19.86-25.78,42.52-46.19,67.35-60.69,27.68-16.16,58.08-24.95,90.35-26.14h.24s23.78,0,23.78,0l.77-.5,4.68.53c66.07,7.47,112.77,28.14,146.97,65.05,18.76,20.25,33.62,45.12,45.42,76.03,11.87,31.11,20.38,67.64,26,111.66l1.87,14.65h-142.71l-1.8-10.88c-9.25-55.82-25.96-107.87-85.05-110.69-.73-.03-1.46-.05-2.18-.05-29.56,0-47.43,31.44-57.22,57.81-13.32,35.9-20.66,85.75-20.66,140.37s8.04,102.57,22.62,138.68c10.37,25.68,28.99,56.62,58.76,58.26,1.23.07,2.47.1,3.67.1,21.09,0,37.17-10.14,50.58-31.92,12.36-20.06,19.39-45.3,25.05-65.59.58-2.09,1.15-4.12,1.7-6.08l2.68-9.46h141.31l-1.1,14.02c-6.17,78.77-28.65,139.23-66.8,179.7-38.87,41.23-94.13,62.14-164.24,62.14h-.02Zm-486.12-152.46c16.73-1.49,32.2-5.15,45.99-10.88,13.22-5.5,23.74-13.57,32.15-24.66l.92-1.21,1.17-.96c4.19-3.45,12.33-14.09,19.81-46.54,6.14-26.64,9.25-62.54,9.25-106.69s-3.16-82.05-9.39-108.06c-5.98-21.04-15.29-38.79-27.68-52.79-12.13-13.7-26.46-22.46-43.79-26.76l-7-1.74c-6.66-.53-21.11-1.14-52.35-1.14l-22.65-.4v381.32l53.58.51Z"/>
      <path class="cls-2" d="m710.32,26.9c116.48,13.17,184.93,68.92,206.95,241.47h-116.92c-7.54-45.53-22.81-118-97.26-121.55-.94-.04-1.87-.07-2.8-.07-63.91,0-90.88,106.38-90.88,211.18s31.63,206.51,93.67,209.92c1.48.08,2.95.12,4.38.12,61.27,0,78.46-72.78,89.84-113.05h117.41c-11.89,151.65-84.21,229.85-218.08,229.85-4.54,0-9.12-.09-13.8-.27-126.38-8.04-192.88-132.06-216.56-242.57-2.01,21.35-7.46,42.15-13.28,62.74-12.51,40.58-28.36,72.72-47.57,96.41-23.2,23.69-48.4,41.53-75.59,53.51-27.19,11.98-62.16,17.97-104.92,17.97H26V37.42h193.26c48.86,0,85.72,5.42,110.6,16.25,28.88,10.84,53.78,29.11,74.71,54.82,20.93,25.71,37.36,59.07,49.28,100.08,5.88,20.1,9.76,40.72,12.2,61.52,21.2-110.77,90.18-238.47,216.74-243.13h27.44l.09-.06M143.94,150.26v407.44l67.08.64c18.39-1.57,35.22-5.53,50.48-11.88,15.26-6.35,27.77-15.95,37.52-28.81,9.75-8.04,17.82-25.92,24.2-53.65,6.39-27.73,9.58-64.27,9.58-109.61s-3.27-84.21-9.82-111.35c-6.54-23.15-16.72-42.52-30.53-58.11-13.81-15.59-30.6-25.85-50.39-30.76.82-2.17-20.01-3.26-62.48-3.26l-35.65-.64v-.03l-.03.03h.03M703.8,0l-1.44.96h-20.04l-.48.02c-34.44,1.27-66.88,10.66-96.43,27.91-26.28,15.34-50.2,36.87-71.09,63.98-17.53,22.76-32.86,49.47-45.37,78.71-11.73-31.14-26.55-57.81-44.22-79.5-23.63-29.03-52.27-50.06-85.12-62.51-28.4-12.21-67.78-18.14-120.35-18.14H0v687.16h224.94c46.19,0,85.02-6.79,115.4-20.18,30.1-13.27,58.25-33.15,83.67-59.11l.85-.87.77-.95c16.97-20.93,31.6-47.73,43.65-79.92,12.92,30.12,28.45,57.02,46.19,80,20.65,26.75,44.3,48.14,70.27,63.57,29.11,17.3,61.23,27.17,95.46,29.35l.33.02h.33c4.98.2,9.96.3,14.8.3,73.84,0,132.28-22.28,173.7-66.22,20.46-21.7,36.78-48.88,48.51-80.76,11.31-30.73,18.64-66.68,21.78-106.84l2.2-28.03h-165.2l-5.35,18.93c-.56,1.97-1.13,4.01-1.71,6.12-12.93,46.37-27.48,88-63.11,88-.97,0-1.96-.03-2.96-.08-8.53-.47-16.38-4.34-23.97-11.83-8.79-8.67-16.68-21.56-23.45-38.32-13.98-34.6-21.68-82.12-21.68-133.81s7.05-101.36,19.85-135.85c8.35-22.51,22.94-49.34,45.03-49.33.51,0,1.04.01,1.56.04,47.1,2.25,63.19,41.53,72.85,99.83l3.6,21.75h168.49l-3.74-29.29c-5.75-45.06-14.5-82.56-26.75-114.65-12.4-32.49-28.11-58.74-48.03-80.23-36.44-39.32-85.71-61.29-155.05-69.13l-9.45-1.07h0ZM169.94,531.94V176.73l9.19.16h.23s.23,0,.23,0c30.21,0,44.09.58,50.32,1.03l5.9,1.46c14.69,3.65,26.86,11.09,37.19,22.76,11.04,12.46,19.39,28.43,24.83,47.46,5.95,25,8.97,60.24,8.97,104.77s-3,78.08-8.92,103.77c-7.51,32.62-15.09,39.17-15.41,39.43l-2.34,1.93-1.83,2.42c-6.98,9.21-15.74,15.92-26.79,20.51-12.39,5.15-26.35,8.48-41.52,9.88l-40.05-.38h0Z"/>
    </g>
  </g>
</svg>