<?xml version="1.0" encoding="UTF-8" standalone="no"?>
<svg
   id="Layer_2"
   data-name="Layer 2"
   viewBox="0 0 946.8 710.80001"
   version="1.1"
   width="946.79999"
   height="710.79999"
   xmlns="http://www.w3.org/2000/svg"
   xmlns:svg="http://www.w3.org/2000/svg">
  <defs
     id="defs1">
    <style
       id="style1">
      .cls-1, .cls-2 {
        stroke-width: 0px;
      }

      .cls-2 {
        fill: #fff;
      }
    </style>
  </defs>
  <g
     id="Layer_1-2"
     data-name="Layer 1">
    <g
       id="g2">
      <path
         class="cls-1"
         d="m 696.64,697.79 c -4.66,0 -9.47,-0.09 -14.28,-0.28 l -0.33,-0.02 c -32.16,-2.04 -62.32,-11.31 -89.64,-27.55 -24.56,-14.59 -46.97,-34.89 -66.62,-60.34 -27.32,-35.38 -45.49,-75.23 -57.52,-111.17 -0.9,3.3 -1.82,6.56 -2.73,9.79 l -0.08,0.29 c -12.94,41.99 -29.73,75.9 -49.89,100.77 l -0.38,0.47 -0.43,0.44 c -24.26,24.77 -51.05,43.71 -79.63,56.31 -28.72,12.66 -65.79,19.08 -110.16,19.08 H 13 V 24.42 h 206.26 c 50.94,0 88.72,5.63 115.48,17.2 30.79,11.62 57.68,31.36 79.91,58.66 21.94,26.95 39.33,62.16 51.69,104.66 0.57,1.95 1.13,3.92 1.67,5.89 13.74,-41.66 33.14,-79.56 56.62,-110.04 19.86,-25.78 42.52,-46.19 67.35,-60.69 27.68,-16.16 58.08,-24.95 90.35,-26.14 h 0.24 c 0,0 23.78,0 23.78,0 l 0.77,-0.5 4.68,0.53 c 66.07,7.47 112.77,28.14 146.97,65.05 18.76,20.25 33.62,45.12 45.42,76.03 11.87,31.11 20.38,67.64 26,111.66 l 1.87,14.65 H 789.35 l -1.8,-10.88 C 778.3,214.68 761.59,162.63 702.5,159.81 c -0.73,-0.03 -1.46,-0.05 -2.18,-0.05 -29.56,0 -47.43,31.44 -57.22,57.81 -13.32,35.9 -20.66,85.75 -20.66,140.37 0,54.62 8.04,102.57 22.62,138.68 10.37,25.68 28.99,56.62 58.76,58.26 1.23,0.07 2.47,0.1 3.67,0.1 21.09,0 37.17,-10.14 50.58,-31.92 12.36,-20.06 19.39,-45.3 25.05,-65.59 0.58,-2.09 1.15,-4.12 1.7,-6.08 l 2.68,-9.46 h 141.31 l -1.1,14.02 c -6.17,78.77 -28.65,139.23 -66.8,179.7 -38.87,41.23 -94.13,62.14 -164.24,62.14 h -0.02 z M 210.52,545.33 c 16.73,-1.49 32.2,-5.15 45.99,-10.88 13.22,-5.5 23.74,-13.57 32.15,-24.66 l 0.92,-1.21 1.17,-0.96 c 4.19,-3.45 12.33,-14.09 19.81,-46.54 6.14,-26.64 9.25,-62.54 9.25,-106.69 0,-44.15 -3.16,-82.05 -9.39,-108.06 -5.98,-21.04 -15.29,-38.79 -27.68,-52.79 -12.13,-13.7 -26.46,-22.46 -43.79,-26.76 l -7,-1.74 c -6.66,-0.53 -21.11,-1.14 -52.35,-1.14 l -22.65,-0.4 v 381.32 l 53.58,0.51 z"
         id="path1" />
      <path
         class="cls-2"
         d="M 710.32,26.9 C 826.8,40.07 895.25,95.82 917.27,268.37 H 800.35 c -7.54,-45.53 -22.81,-118 -97.26,-121.55 -0.94,-0.04 -1.87,-0.07 -2.8,-0.07 -63.91,0 -90.88,106.38 -90.88,211.18 0,104.8 31.63,206.51 93.67,209.92 1.48,0.08 2.95,0.12 4.38,0.12 61.27,0 78.46,-72.78 89.84,-113.05 h 117.41 c -11.89,151.65 -84.21,229.85 -218.08,229.85 -4.54,0 -9.12,-0.09 -13.8,-0.27 -126.38,-8.04 -192.88,-132.06 -216.56,-242.57 -2.01,21.35 -7.46,42.15 -13.28,62.74 -12.51,40.58 -28.36,72.72 -47.57,96.41 -23.2,23.69 -48.4,41.53 -75.59,53.51 -27.19,11.98 -62.16,17.97 -104.92,17.97 H 26 V 37.42 h 193.26 c 48.86,0 85.72,5.42 110.6,16.25 28.88,10.84 53.78,29.11 74.71,54.82 20.93,25.71 37.36,59.07 49.28,100.08 5.88,20.1 9.76,40.72 12.2,61.52 21.2,-110.77 90.18,-238.47 216.74,-243.13 h 27.44 l 0.09,-0.06 M 143.94,150.26 V 557.7 l 67.08,0.64 c 18.39,-1.57 35.22,-5.53 50.48,-11.88 15.26,-6.35 27.77,-15.95 37.52,-28.81 9.75,-8.04 17.82,-25.92 24.2,-53.65 6.39,-27.73 9.58,-64.27 9.58,-109.61 0,-45.34 -3.27,-84.21 -9.82,-111.35 -6.54,-23.15 -16.72,-42.52 -30.53,-58.11 -13.81,-15.59 -30.6,-25.85 -50.39,-30.76 0.82,-2.17 -20.01,-3.26 -62.48,-3.26 l -35.65,-0.64 v -0.03 l -0.03,0.03 h 0.03 M 703.8,0 702.36,0.96 h -20.04 l -0.48,0.02 c -34.44,1.27 -66.88,10.66 -96.43,27.91 -26.28,15.34 -50.2,36.87 -71.09,63.98 -17.53,22.76 -32.86,49.47 -45.37,78.71 C 457.22,140.44 442.4,113.77 424.73,92.08 401.1,63.05 372.46,42.02 339.61,29.57 311.21,17.36 271.83,11.43 219.26,11.43 H 0 v 687.16 h 224.94 c 46.19,0 85.02,-6.79 115.4,-20.18 30.1,-13.27 58.25,-33.15 83.67,-59.11 l 0.85,-0.87 0.77,-0.95 c 16.97,-20.93 31.6,-47.73 43.65,-79.92 12.92,30.12 28.45,57.02 46.19,80 20.65,26.75 44.3,48.14 70.27,63.57 29.11,17.3 61.23,27.17 95.46,29.35 l 0.33,0.02 h 0.33 c 4.98,0.2 9.96,0.3 14.8,0.3 73.84,0 132.28,-22.28 173.7,-66.22 20.46,-21.7 36.78,-48.88 48.51,-80.76 11.31,-30.73 18.64,-66.68 21.78,-106.84 l 2.2,-28.03 h -165.2 l -5.35,18.93 c -0.56,1.97 -1.13,4.01 -1.71,6.12 -12.93,46.37 -27.48,88 -63.11,88 -0.97,0 -1.96,-0.03 -2.96,-0.08 -8.53,-0.47 -16.38,-4.34 -23.97,-11.83 -8.79,-8.67 -16.68,-21.56 -23.45,-38.32 -13.98,-34.6 -21.68,-82.12 -21.68,-133.81 0,-51.69 7.05,-101.36 19.85,-135.85 8.35,-22.51 22.94,-49.34 45.03,-49.33 0.51,0 1.04,0.01 1.56,0.04 47.1,2.25 63.19,41.53 72.85,99.83 l 3.6,21.75 H 946.8 l -3.74,-29.29 C 937.31,220.05 928.56,182.55 916.31,150.46 903.91,117.97 888.2,91.72 868.28,70.23 831.84,30.91 782.57,8.94 713.23,1.1 l -9.45,-1.07 v 0 z M 169.94,531.94 V 176.73 l 9.19,0.16 h 0.23 c 0,0 0.23,0 0.23,0 30.21,0 44.09,0.58 50.32,1.03 l 5.9,1.46 c 14.69,3.65 26.86,11.09 37.19,22.76 11.04,12.46 19.39,28.43 24.83,47.46 5.95,25 8.97,60.24 8.97,104.77 0,44.53 -3,78.08 -8.92,103.77 -7.51,32.62 -15.09,39.17 -15.41,39.43 l -2.34,1.93 -1.83,2.42 c -6.98,9.21 -15.74,15.92 -26.79,20.51 -12.39,5.15 -26.35,8.48 -41.52,9.88 l -40.05,-0.38 v 0 z"
         id="path2" />
    </g>
  </g>
</svg>
