<?xml version="1.0" encoding="UTF-8" standalone="no"?>
<!-- Generator: Adobe Illustrator 28.0.0, SVG Export Plug-In . SVG Version: 6.00 Build 0)  -->

<svg
   version="1.1"
   id="Layer_2_00000156589563938372318750000008942601138294828718_"
   x="0px"
   y="0px"
   viewBox="0 0 946.70002 710.8"
   xml:space="preserve"
   width="946.70001"
   height="710.79999"
   xmlns="http://www.w3.org/2000/svg"
   xmlns:svg="http://www.w3.org/2000/svg"><defs
   id="defs4" />
<style
   type="text/css"
   id="style1">
	.st0{fill:url(#SVGID_1_);}
	.st1{fill:#FFFFFF;}
</style>
<g
   id="Layer_1-2">
	<g
   id="g4">
		
			<linearGradient
   id="SVGID_1_"
   gradientUnits="userSpaceOnUse"
   x1="45.548199"
   y1="720.12769"
   x2="775.16937"
   y2="-9.5033998"
   gradientTransform="matrix(1,0,0,-1,0,712)">
			<stop
   offset="0"
   style="stop-color:#BB2C26"
   id="stop1" />
			<stop
   offset="0.5"
   style="stop-color:#F7981D"
   id="stop2" />
			<stop
   offset="1"
   style="stop-color:#BB2C26"
   id="stop3" />
		</linearGradient>
		<path
   class="st0"
   d="m 696.6,697.8 c -4.7,0 -9.5,-0.1 -14.3,-0.3 H 682 c -32.2,-2 -62.3,-11.3 -89.6,-27.5 -24.6,-14.6 -47,-34.9 -66.6,-60.3 -27.3,-35.4 -45.5,-75.2 -57.5,-111.2 -0.9,3.3 -1.8,6.6 -2.7,9.8 l -0.1,0.3 c -12.9,42 -29.7,75.9 -49.9,100.8 l -0.4,0.5 -0.4,0.4 c -24.3,24.8 -51,43.7 -79.6,56.3 -28.7,12.7 -65.8,19.1 -110.2,19.1 H 13 V 24.4 h 206.3 c 50.9,0 88.7,5.6 115.5,17.2 30.8,11.6 57.7,31.4 79.9,58.7 21.9,26.9 39.3,62.2 51.7,104.7 0.6,1.9 1.1,3.9 1.7,5.9 13.7,-41.7 33.1,-79.6 56.6,-110 C 544.5,75 567.2,54.6 592,40.1 619.7,23.9 650.1,15.1 682.3,14 h 0.2 23.8 l 0.8,-0.5 4.7,0.5 c 66.1,7.5 112.8,28.1 147,65.1 18.8,20.2 33.6,45.1 45.4,76 11.9,31.1 20.4,67.6 26,111.7 l 1.9,14.6 H 789.3 l -1.8,-10.9 c -9.2,-55.8 -26,-107.9 -85,-110.7 -0.7,0 -1.5,-0.1 -2.2,-0.1 -29.6,0 -47.4,31.4 -57.2,57.8 -13.3,35.9 -20.7,85.8 -20.7,140.4 0,54.6 8,102.6 22.6,138.7 10.4,25.7 29,56.6 58.8,58.3 1.2,0.1 2.5,0.1 3.7,0.1 21.1,0 37.2,-10.1 50.6,-31.9 12.4,-20.1 19.4,-45.3 25,-65.6 0.6,-2.1 1.2,-4.1 1.7,-6.1 l 2.7,-9.5 h 141.3 l -1.1,14 C 921.5,534.7 899,595.1 860.9,635.6 822,676.9 766.8,697.8 696.6,697.8 Z M 210.5,545.3 c 16.7,-1.5 32.2,-5.2 46,-10.9 13.2,-5.5 23.7,-13.6 32.1,-24.7 l 0.9,-1.2 1.2,-1 c 4.2,-3.5 12.3,-14.1 19.8,-46.5 6.1,-26.6 9.2,-62.5 9.2,-106.7 0,-44.2 -3.2,-82 -9.4,-108.1 -6,-21 -15.3,-38.8 -27.7,-52.8 -12.1,-13.7 -26.5,-22.5 -43.8,-26.8 l -7,-1.7 c -6.6,-0.5 -21.1,-1.1 -52.3,-1.1 l -22.6,-0.4 v 381.3 z"
   id="path3"
   style="fill:url(#SVGID_1_)" />
		<path
   class="st1"
   d="m 710.3,26.9 c 116.5,13.2 184.9,68.9 207,241.5 H 800.4 c -7.5,-45.5 -22.8,-118 -97.3,-121.6 -0.9,0 -1.9,-0.1 -2.8,-0.1 -63.9,0 -90.9,106.4 -90.9,211.2 0,104.8 31.6,206.5 93.7,209.9 1.5,0.1 3,0.1 4.4,0.1 61.3,0 78.5,-72.8 89.8,-113 h 117.4 c -11.9,151.6 -84.2,229.9 -218.1,229.9 -4.5,0 -9.1,-0.1 -13.8,-0.3 -126.4,-8 -192.9,-132.1 -216.6,-242.6 -2,21.4 -7.5,42.1 -13.3,62.7 -12.5,40.6 -28.4,72.7 -47.6,96.4 -23.2,23.7 -48.4,41.5 -75.6,53.5 -27.2,12 -62.2,18 -104.9,18 H 26 V 37.4 h 193.3 c 48.9,0 85.7,5.4 110.6,16.2 28.9,10.8 53.8,29.1 74.7,54.8 20.9,25.7 37.4,59.1 49.3,100.1 5.9,20.1 9.8,40.7 12.2,61.5 C 487.2,159.3 556.2,31.6 682.8,27 l 27.5,-0.1 v 0 M 143.9,150.3 v 407.4 l 67.1,0.6 c 18.4,-1.6 35.2,-5.5 50.5,-11.9 15.3,-6.4 27.8,-16 37.5,-28.8 9.8,-8 17.8,-25.9 24.2,-53.6 6.4,-27.7 9.6,-64.3 9.6,-109.6 0,-45.3 -3.3,-84.2 -9.8,-111.4 -6.5,-23.1 -16.7,-42.5 -30.5,-58.1 -13.8,-15.6 -30.6,-25.9 -50.4,-30.8 0.8,-2.2 -20,-3.3 -62.5,-3.3 l -35.7,-0.5 v 0 0 0 M 703.8,0 702.4,1 h -20 -0.5 C 647.5,2.3 615,11.7 585.5,28.9 559.2,44.2 535.3,65.8 514.4,92.9 496.9,115.7 481.5,142.4 469,171.6 457.3,140.5 442.5,113.8 424.8,92.1 401.2,63.1 372.5,42 339.7,29.6 311.3,17.4 271.9,11.5 219.3,11.5 H 0 v 687.2 h 224.9 c 46.2,0 85,-6.8 115.4,-20.2 30.1,-13.3 58.2,-33.2 83.7,-59.1 l 0.9,-0.9 0.8,-1 c 17,-20.9 31.6,-47.7 43.6,-79.9 12.9,30.1 28.5,57 46.2,80 20.7,26.8 44.3,48.1 70.3,63.6 29.1,17.3 61.2,27.2 95.5,29.3 h 0.3 0.3 c 5,0.2 10,0.3 14.8,0.3 73.8,0 132.3,-22.3 173.7,-66.2 20.5,-21.7 36.8,-48.9 48.5,-80.8 11.3,-30.7 18.6,-66.7 21.8,-106.8 l 2.2,-28 H 777.7 l -5.3,18.9 c -0.6,2 -1.1,4 -1.7,6.1 -12.9,46.4 -27.5,88 -63.1,88 -1,0 -2,0 -3,-0.1 -8.5,-0.5 -16.4,-4.3 -24,-11.8 -8.8,-8.7 -16.7,-21.6 -23.5,-38.3 -14,-34.6 -21.7,-82.1 -21.7,-133.8 0,-51.7 7,-101.4 19.8,-135.9 8.3,-22.5 22.9,-49.3 45,-49.3 0.5,0 1,0 1.6,0 47.1,2.2 63.2,41.5 72.8,99.8 l 3.6,21.8 H 946.7 L 943,265.1 C 937.2,220 928.5,182.5 916.2,150.5 903.8,118 888.1,91.8 868.2,70.3 831.8,31 782.5,9 713.2,1.2 L 703.8,0 Z M 169.9,531.9 V 176.7 l 9.2,0.2 h 0.2 0.2 c 30.2,0 44.1,0.6 50.3,1 l 5.9,1.5 c 14.7,3.6 26.9,11.1 37.2,22.8 11,12.5 19.4,28.4 24.8,47.5 6,25 9,60.2 9,104.8 0,44.6 -3,78.1 -8.9,103.8 -7.5,32.6 -15.1,39.2 -15.4,39.4 l -2.3,1.9 -1.8,2.4 c -7,9.2 -15.8,15.9 -26.8,20.5 -12.4,5.2 -26.4,8.5 -41.5,9.9 l -40.1,-0.5 z"
   id="path4" />
	</g>
</g>
</svg>
