<?xml version="1.0" encoding="utf-8"?>
<!-- Generator: Adobe Illustrator 28.0.0, SVG Export Plug-In . SVG Version: 6.00 Build 0)  -->
<svg version="1.1" id="Layer_2_00000034811007788002291110000002460854858333462695_"
	 xmlns="http://www.w3.org/2000/svg" xmlns:xlink="http://www.w3.org/1999/xlink" x="0px" y="0px" viewBox="0 0 946.8 710.8"
	 style="enable-background:new 0 0 946.8 710.8;" xml:space="preserve">
<style type="text/css">
	.st0{fill:url(#SVGID_1_);}
	.st1{fill:#FFFFFF;}
</style>
<g id="Layer_1-2">
	<g>
		
			<linearGradient id="SVGID_1_" gradientUnits="userSpaceOnUse" x1="45.5453" y1="720.1253" x2="775.1622" y2="-9.4916" gradientTransform="matrix(1 0 0 -1 0 712)">
			<stop  offset="0" style="stop-color:#8D742F"/>
			<stop  offset="0.5" style="stop-color:#D7BD74"/>
			<stop  offset="1" style="stop-color:#8D742F"/>
		</linearGradient>
		<path class="st0" d="M696.6,697.8c-4.7,0-9.5-0.1-14.3-0.3l-0.3,0c-32.2-2-62.3-11.3-89.6-27.5c-24.6-14.6-47-34.9-66.6-60.3
			c-27.3-35.4-45.5-75.2-57.5-111.2c-0.9,3.3-1.8,6.6-2.7,9.8l-0.1,0.3c-12.9,42-29.7,75.9-49.9,100.8l-0.4,0.5l-0.4,0.4
			c-24.3,24.8-51,43.7-79.6,56.3c-28.7,12.7-65.8,19.1-110.2,19.1H13V24.4h206.3c50.9,0,88.7,5.6,115.5,17.2
			c30.8,11.6,57.7,31.4,79.9,58.7c21.9,26.9,39.3,62.2,51.7,104.7c0.6,1.9,1.1,3.9,1.7,5.9c13.7-41.7,33.1-79.6,56.6-110
			C544.5,75,567.2,54.6,592,40.1c27.7-16.2,58.1-25,90.3-26.1h0.2h23.8l0.8-0.5l4.7,0.5c66.1,7.5,112.8,28.1,147,65.1
			c18.8,20.2,33.6,45.1,45.4,76c11.9,31.1,20.4,67.6,26,111.7l1.9,14.6H789.3l-1.8-10.9c-9.2-55.8-26-107.9-85-110.7
			c-0.7,0-1.5-0.1-2.2-0.1c-29.6,0-47.4,31.4-57.2,57.8c-13.3,35.9-20.7,85.8-20.7,140.4s8,102.6,22.6,138.7
			c10.4,25.7,29,56.6,58.8,58.3c1.2,0.1,2.5,0.1,3.7,0.1c21.1,0,37.2-10.1,50.6-31.9c12.4-20.1,19.4-45.3,25-65.6
			c0.6-2.1,1.2-4.1,1.7-6.1l2.7-9.5h141.3l-1.1,14c-6.2,78.8-28.7,139.2-66.8,179.7C822,676.9,766.8,697.8,696.6,697.8L696.6,697.8
			L696.6,697.8z M210.5,545.3c16.7-1.5,32.2-5.2,46-10.9c13.2-5.5,23.7-13.6,32.1-24.7l0.9-1.2l1.2-1c4.2-3.5,12.3-14.1,19.8-46.5
			c6.1-26.6,9.2-62.5,9.2-106.7s-3.2-82-9.4-108.1c-6-21-15.3-38.8-27.7-52.8c-12.1-13.7-26.5-22.5-43.8-26.8l-7-1.7
			c-6.7-0.5-21.1-1.1-52.3-1.1l-22.6-0.4v381.3L210.5,545.3L210.5,545.3z"/>
		<path class="st1" d="M710.3,26.9c116.5,13.2,184.9,68.9,207,241.5H800.4c-7.5-45.5-22.8-118-97.3-121.6c-0.9,0-1.9-0.1-2.8-0.1
			c-63.9,0-90.9,106.4-90.9,211.2s31.6,206.5,93.7,209.9c1.5,0.1,3,0.1,4.4,0.1c61.3,0,78.5-72.8,89.8-113h117.4
			c-11.9,151.6-84.2,229.9-218.1,229.9c-4.5,0-9.1-0.1-13.8-0.3c-126.4-8-192.9-132.1-216.6-242.6c-2,21.4-7.5,42.1-13.3,62.7
			c-12.5,40.6-28.4,72.7-47.6,96.4c-23.2,23.7-48.4,41.5-75.6,53.5s-62.2,18-104.9,18H26V37.4h193.3c48.9,0,85.7,5.4,110.6,16.2
			c28.9,10.8,53.8,29.1,74.7,54.8s37.4,59.1,49.3,100.1c5.9,20.1,9.8,40.7,12.2,61.5C487.2,159.3,556.2,31.6,682.8,27L710.3,26.9
			L710.3,26.9 M143.9,150.3v407.4l67.1,0.6c18.4-1.6,35.2-5.5,50.5-11.9s27.8-16,37.5-28.8c9.8-8,17.8-25.9,24.2-53.6
			c6.4-27.7,9.6-64.3,9.6-109.6s-3.3-84.2-9.8-111.4c-6.5-23.1-16.7-42.5-30.5-58.1s-30.6-25.9-50.4-30.8c0.8-2.2-20-3.3-62.5-3.3
			L143.9,150.3L143.9,150.3L143.9,150.3L143.9,150.3 M703.8,0l-1.4,1h-20l-0.5,0c-34.4,1.3-66.9,10.7-96.4,27.9
			c-26.3,15.3-50.2,36.9-71.1,64c-17.5,22.8-32.9,49.5-45.4,78.7c-11.7-31.1-26.5-57.8-44.2-79.5c-23.6-29-52.3-50.1-85.1-62.5
			c-28.4-12.2-67.8-18.1-120.4-18.1H0v687.2h224.9c46.2,0,85-6.8,115.4-20.2c30.1-13.3,58.2-33.2,83.7-59.1l0.9-0.9l0.8-1
			c17-20.9,31.6-47.7,43.6-79.9c12.9,30.1,28.5,57,46.2,80c20.7,26.8,44.3,48.1,70.3,63.6c29.1,17.3,61.2,27.2,95.5,29.3l0.3,0h0.3
			c5,0.2,10,0.3,14.8,0.3c73.8,0,132.3-22.3,173.7-66.2c20.5-21.7,36.8-48.9,48.5-80.8c11.3-30.7,18.6-66.7,21.8-106.8l2.2-28H777.7
			l-5.3,18.9c-0.6,2-1.1,4-1.7,6.1c-12.9,46.4-27.5,88-63.1,88c-1,0-2,0-3-0.1c-8.5-0.5-16.4-4.3-24-11.8
			c-8.8-8.7-16.7-21.6-23.5-38.3c-14-34.6-21.7-82.1-21.7-133.8s7-101.4,19.8-135.9c8.3-22.5,22.9-49.3,45-49.3c0.5,0,1,0,1.6,0
			c47.1,2.2,63.2,41.5,72.8,99.8l3.6,21.8h168.5l-3.7-29.3c-5.8-45.1-14.5-82.6-26.8-114.6c-12.4-32.5-28.1-58.7-48-80.2
			c-36.4-39.3-85.7-61.3-155-69.1L703.8,0L703.8,0L703.8,0z M169.9,531.9V176.7l9.2,0.2h0.2h0.2c30.2,0,44.1,0.6,50.3,1l5.9,1.5
			c14.7,3.6,26.9,11.1,37.2,22.8c11,12.5,19.4,28.4,24.8,47.5c6,25,9,60.2,9,104.8s-3,78.1-8.9,103.8c-7.5,32.6-15.1,39.2-15.4,39.4
			l-2.3,1.9l-1.8,2.4c-7,9.2-15.8,15.9-26.8,20.5c-12.4,5.2-26.4,8.5-41.5,9.9L169.9,531.9L169.9,531.9L169.9,531.9z"/>
	</g>
</g>
</svg>
