<?xml version="1.0" encoding="UTF-8" standalone="no"?>
<svg
   id="Layer_2"
   data-name="Layer 2"
   viewBox="0 0 891.26999 657.87908"
   version="1.1"
   width="891.27002"
   height="657.87909"
   xmlns="http://www.w3.org/2000/svg"
   xmlns:svg="http://www.w3.org/2000/svg">
  <defs
     id="defs1">
    <style
       id="style1">
      .cls-1 {
        stroke-width: 0px;
      }
    </style>
  </defs>
  <g
     id="Layer_1-2"
     data-name="Layer 1">
    <path
       class="cls-1"
       d="M 684.32,0 C 800.8,13.17 869.25,68.92 891.27,241.47 H 774.35 c -7.54,-45.53 -22.81,-118 -97.26,-121.55 -65.92,-3.15 -93.67,104.8 -93.67,211.12 0,106.32 31.63,206.51 93.67,209.92 64.84,3.55 82.58,-71.71 94.23,-112.93 H 888.73 C 876.44,584.82 799.57,663.09 656.85,657.61 530.47,649.57 463.97,525.55 440.29,415.04 c -2.01,21.35 -7.46,42.15 -13.28,62.74 -12.51,40.58 -28.36,72.72 -47.57,96.41 -23.21,23.69 -48.4,41.53 -75.59,53.51 -27.19,11.98 -62.16,17.97 -104.92,17.97 H 0 V 10.52 h 193.26 c 48.86,0 85.72,5.42 110.6,16.25 28.88,10.84 53.78,29.11 74.71,54.82 20.93,25.71 37.36,59.07 49.28,100.08 5.88,20.1 9.76,40.72 12.2,61.52 C 461.26,132.41 530.24,4.72 656.8,0.06 h 27.44 L 684.33,0 Z M 117.94,123.33 V 530.8 l 67.08,0.64 c 18.39,-1.57 35.22,-5.53 50.48,-11.88 15.26,-6.35 27.77,-15.95 37.52,-28.81 9.75,-8.04 17.82,-25.92 24.21,-53.65 6.39,-27.73 9.58,-64.27 9.58,-109.61 0,-47.09 -3.27,-84.21 -9.82,-111.35 -6.54,-23.15 -16.72,-42.52 -30.53,-58.11 -13.81,-15.59 -30.6,-25.85 -50.39,-30.76 0.82,-2.17 -20.01,-3.26 -62.48,-3.26 l -35.68,-0.64 0.03,-0.03 z"
       id="path1" />
  </g>
</svg>
