<?xml version="1.0" encoding="UTF-8"?>
<svg id="Layer_2" data-name="Layer 2" xmlns="http://www.w3.org/2000/svg" viewBox="0 0 891.28 657.88">
  <defs>
    <style>
      .cls-1 {
        stroke-width: 0px;
      }
    </style>
  </defs>
  <g id="Layer_1-2" data-name="Layer 1">
    <path class="cls-1" d="m684.32,0c116.48,13.17,184.93,68.92,206.95,241.47h-116.92c-7.54-45.53-22.81-118-97.26-121.55-65.92-3.15-93.67,104.8-93.67,211.12s31.63,206.51,93.67,209.92c64.84,3.55,82.58-71.71,94.23-112.93h117.41c-12.29,156.79-89.16,235.06-231.88,229.58-126.38-8.04-192.88-132.06-216.56-242.57-2.01,21.35-7.46,42.15-13.28,62.74-12.51,40.58-28.36,72.72-47.57,96.41-23.21,23.69-48.4,41.53-75.59,53.51-27.19,11.98-62.16,17.97-104.92,17.97H0V10.52h193.26c48.86,0,85.72,5.42,110.6,16.25,28.88,10.84,53.78,29.11,74.71,54.82,20.93,25.71,37.36,59.07,49.28,100.08,5.88,20.1,9.76,40.72,12.2,61.52C461.26,132.41,530.24,4.72,656.8.06h27.44l.09-.06ZM117.94,123.33v407.47l67.08.64c18.39-1.57,35.22-5.53,50.48-11.88s27.77-15.95,37.52-28.81c9.75-8.04,17.82-25.92,24.21-53.65,6.39-27.73,9.58-64.27,9.58-109.61,0-47.09-3.27-84.21-9.82-111.35-6.54-23.15-16.72-42.52-30.53-58.11-13.81-15.59-30.6-25.85-50.39-30.76.82-2.17-20.01-3.26-62.48-3.26l-35.68-.64.03-.03Z"/>
  </g>
</svg>