<svg xmlns="http://www.w3.org/2000/svg" width="482.69" height="246"><path d="M30.736 0c-43.291 67.025-38.604 184.26 0 246h421c41.272-62.514 41.272-183.863 0-246zm10.207 14h399.625c36.226 52.853 36.226 165.146.002 218H40.943c-34.99-52.865-36.26-163.839 0-218m6.793 14.002c-24.91 49.924-26.221 140.517 0 190h385c23.182-45.642 26.182-134.551 0-182.002-12.573 0-25.875-.025-43.9-.025-94.021 5.197-161.514 39.629-216.952 72.363 25.667-.333 63.01-4.137 63.3-1.61.29 2.529-39.72 13.042-67.386 21.376 22.067 14.277 61.92 40.596 60.55 43.052-1.373 2.455-56.866-21.98-76.573-29.166 7.856 19.42 29.096 61.652 26.902 62.64-2.194.99-26.743-30.875-46.826-52.925-14.964 23.348-37.833 60.828-39.914 60.123s10.734-42.26 18.18-66.635c-25.2 6.453-70.298 27.609-71.81 25.243-1.51-2.366 42.898-31.485 63.265-45.538-19.07-11.908-63.5-33.45-62.903-35.804.598-2.352 47.062 11.891 71.448 17.646-5.564-20.033-23.1-60.508-21.06-61.556s26.978 36.348 41.355 53.011c12.88-19.908 30.465-59.172 32.994-58.527s-6.785 42.138-8.73 53.834c36.794-24.924 95.356-51.096 168.15-65.5zm257 27.756h5.334c0 22.68.025 83.166.025 118.004 0 9.698 13.27 17.236 19.688 17.236V195H258.32v-4c4.683 0 24.138-5.982 24.138-17.238V83h-23.896v-4c14.019 0 27.37-7.052 46.174-23.242m34.498.16h89.937l.19.67-44.967 136.82q-19.178 0-31.834 4.89l-.383-.573L408.556 76.53h-40.078q-21.095.001-28.477 25.602h-.767v-.002z"/></svg>