<svg xmlns="http://www.w3.org/2000/svg" xml:space="preserve" style="fill-rule:evenodd;clip-rule:evenodd;stroke-linejoin:round;stroke-miterlimit:2" viewBox="0 0 90 90"><path d="M0 0h90v90H0z" style="fill:none"/><path d="m12.898 35.346.311-.908c.98-2.861 2.227-5.739 3.378-8.564l.511-1.251 11.576-.019q.35-.401.66-.711c4.306-4.306 11.005-5.262 15.211-5.274v.005l.046.001c.708.016 1.418.014 2.126.052 1.447.077 1.961.155 3.238.311l.027.004c3.526.527 6.858 2.013 9.704 4.129.643.478 1.295 1.007 1.822 1.622l1.743-.061c2.693-.095 5.388-.072 8.081-.08l1.233-.004.564 1.097s2.964 5.825 3.503 9.068l.105.631h4.786l.581 1.01s2.954 5.154 4.005 7.887l.278.722-.277.723c-.996 2.595-2.604 4.982-3.843 7.463l-.556 1.114h-1.246l-3.347-.002-.431 1.11c-1.134 2.926-2.123 6.263-3.549 9.058l-.561 1.099H57.761a27 27 0 0 1-.133 2.905l-.058.554-.334.446c-.626.834-1.516 1.347-2.506 1.582-1.163.276-2.464.139-3.355-.131-.93-.282-2.534-1.235-7.368-.947-.827.049-1.963.306-2.874.475-.958.177-1.89.644-2.895.788-.912.131-2.484.22-3.678-.22-1.257-.464-2.212-1.371-2.444-2.949l-.016-.109-.005-.111a46 46 0 0 1-.023-2.283h-14.77l-.515-1.244c-1.213-2.932-3.624-8.803-3.624-8.803l-.507-1.234-3.317.001h-1.28l-.544-1.159c-1.155-2.461-2.747-4.813-3.646-7.384l-.24-.688.255-.682c1.032-2.759 2.599-5.334 3.944-7.942l.562-1.089zm.495 2.014c-.11-.078-.177-.09-.177-.004v.004z" style="fill-rule:nonzero"/><path d="m15.027 54.766 17.09.029a130 130 0 0 1-.034 3.251c-.018.64-.06 1.278-.083 1.919-.047 1.199-.04 2.399-.047 3.599H18.649c-1.213-2.93-2.616-5.785-3.62-8.798zm.203-17.407 5.876.008c-.533 2.872-.823 5.632-.588 8.392.227 2.669 2.336 4.506 3.792 6.516-5.065 0-9.911.008-14.971.008-1.126-2.399-2.692-4.686-3.567-7.193 1.003-2.684 2.537-5.185 3.847-7.723l5.611-.011zM26.6 26.622c-1.817 2.747-3.239 5.674-4.752 8.468h-6.733c.967-2.825 2.201-5.666 3.338-8.455z" style="fill:url(#a);fill-rule:nonzero"/><path d="m74.973 54.766-17.091.029c.003 1.084.005 2.169.034 3.251.018.64.06 1.278.084 1.919.047 1.199.039 2.399.047 3.599H71.35c1.213-2.93 2.617-5.785 3.62-8.798zm-.204-17.407-5.875.008c.533 2.872.823 5.632.588 8.392-.228 2.669-2.337 4.506-3.793 6.516 5.065 0 9.911.008 14.971.008 1.127-2.399 2.692-4.686 3.568-7.193-1.004-2.684-2.538-5.185-3.847-7.723l-5.612-.011zM63.4 26.622c1.816 2.747 3.238 5.674 4.751 8.468h6.733c-.967-2.825-2.201-5.666-3.338-8.455z" style="fill:url(#b);fill-rule:nonzero"/><path d="m15.23 37.359 5.876.008c-.533 2.872-.823 5.632-.588 8.392.227 2.669 2.336 4.506 3.792 6.516-5.065 0-9.911.008-14.971.008-1.126-2.399-2.692-4.686-3.567-7.193 1.003-2.684 2.537-5.185 3.847-7.723l5.611-.011z" style="fill:url(#c);fill-rule:nonzero"/><path d="m74.769 37.359-5.875.008c.533 2.872.823 5.632.588 8.392-.228 2.669-2.337 4.506-3.793 6.516 5.065 0 9.911.008 14.971.008 1.127-2.399 2.692-4.686 3.568-7.193-1.004-2.684-2.538-5.185-3.847-7.723l-5.612-.011z" style="fill:url(#d);fill-rule:nonzero"/><path d="M44.545 20.639c.688.016 1.378.013 2.065.05 1.385.073 1.877.149 3.074.295 3.199.479 6.181 1.885 8.8 3.754-1.344 2.2-3.353 3.805-5.4 5.297 2.679-.494 5.172-1.651 7.386-3.227 4.112 5.162 7.099 11.549 6.838 18.274-.042 2.076-1.229 4.004-2.875 5.209-2.651 1.469-5.884 1.367-8.544 2.75-.102.269-.317.805-.419 1.079-.423 4.708.646 9.451.155 14.153-.842 1.122-2.452.8-3.665 1.093-.251-2.541.026-3.908-.316-6.438-.256-1.889-1.814-2.788-2.06-.154-.149 1.605-.041 2.039-.078 3.644-1.153.454-2.308.883-3.466 1.312.029-2.107.319-3.984-.018-6.056-.274-1.696-1.665-.999-1.788-.092-.308 2.259-.204 4.3-.347 6.574q-1.565.34-3.121.685c-.633-2.661-.131-7.868-1.532-7.865-2.532.008-.758 5.478-1.283 8.28-1.317-.097-3.573.358-3.842-1.469-.154-4.187.381-8.364.413-12.548-.06-.805-.005-1.884-.769-2.381-2.977-1.312-6.73-1.043-9.213-3.353-2.642-2.499-2.148-6.427-1.563-9.66 1.085-5.471 3.921-10.531 7.781-14.527.512 2.01.81 4.153 1.934 5.943 1.893 1.14 4.242.912 6.367 1.043-1.568-.912-3.377-1.521-4.623-2.883-.662-2.01-.703-4.158-.824-6.252 3.382-1.746 7.133-2.524 10.933-2.535zm-.828 25.254c-2.363 3.282-2.601 7.506-2.214 11.4 2.232-.619 4.558-.65 6.795-.041.424-3.824.246-8.056-2.185-11.242-.269 2.972-.125 6.019-1.05 8.897-1.652-2.702-.931-6.019-1.349-9.014zm13.293-8.95c-.536-.023-1.054.087-1.563.236-3.424 1.037-6.043 4.391-6.242 7.958-.149 1.359.944 2.721 2.376 2.549 3.121.005 6.336.41 9.378-.424 2.101-.614 2.53-3.27 1.85-5.078-.852-2.752-2.822-4.966-5.799-5.241m-24.305.05c-.914.089-.525.024-1.176.154-2.809.949-4.67 3.902-4.804 6.796-.102 1.641 1.033 3.269 2.708 3.497 2.953.543 6.001.298 8.986.227 1.926.097 2.512-2.219 2.028-3.716-.719-3.069-3.04-6.067-6.226-6.801-.674-.154-.828-.128-1.516-.154z" style="fill:url(#e);fill-rule:nonzero"/><defs><linearGradient id="a" x1="0" x2="1" y1="0" y2="0" gradientTransform="translate(-17.751 67.94)scale(50.8729)" gradientUnits="userSpaceOnUse"><stop offset="0" style="stop-color:#612c75;stop-opacity:1"/><stop offset=".3" style="stop-color:#7b5190;stop-opacity:1"/><stop offset=".5" style="stop-color:#bf99c3;stop-opacity:1"/><stop offset=".7" style="stop-color:#7b5190;stop-opacity:1"/><stop offset="1" style="stop-color:#612c75;stop-opacity:1"/></linearGradient><linearGradient id="b" x1="0" x2="1" y1="0" y2="0" gradientTransform="rotate(180 53.875 33.97)scale(50.8729)" gradientUnits="userSpaceOnUse"><stop offset="0" style="stop-color:#612c75;stop-opacity:1"/><stop offset=".3" style="stop-color:#7b5190;stop-opacity:1"/><stop offset=".5" style="stop-color:#bf99c3;stop-opacity:1"/><stop offset=".7" style="stop-color:#7b5190;stop-opacity:1"/><stop offset="1" style="stop-color:#612c75;stop-opacity:1"/></linearGradient><linearGradient id="c" x1="0" x2="1" y1="0" y2="0" gradientTransform="translate(-17.751 67.94)scale(42.0613)" gradientUnits="userSpaceOnUse"><stop offset="0" style="stop-color:#612c75;stop-opacity:1"/><stop offset=".3" style="stop-color:#7b5190;stop-opacity:1"/><stop offset=".5" style="stop-color:#bf99c3;stop-opacity:1"/><stop offset=".7" style="stop-color:#7b5190;stop-opacity:1"/><stop offset="1" style="stop-color:#612c75;stop-opacity:1"/></linearGradient><linearGradient id="d" x1="0" x2="1" y1="0" y2="0" gradientTransform="matrix(-42.0613 .5037 -.5037 -42.0613 107.75 67.94)" gradientUnits="userSpaceOnUse"><stop offset="0" style="stop-color:#612c75;stop-opacity:1"/><stop offset=".3" style="stop-color:#7b5190;stop-opacity:1"/><stop offset=".5" style="stop-color:#bf99c3;stop-opacity:1"/><stop offset=".7" style="stop-color:#7b5190;stop-opacity:1"/><stop offset="1" style="stop-color:#612c75;stop-opacity:1"/></linearGradient><linearGradient id="e" x1="0" x2="1" y1="0" y2="0" gradientTransform="translate(15.027 54.766)scale(59.9437)" gradientUnits="userSpaceOnUse"><stop offset="0" style="stop-color:#612c75;stop-opacity:1"/><stop offset=".3" style="stop-color:#7b5190;stop-opacity:1"/><stop offset=".5" style="stop-color:#bf99c3;stop-opacity:1"/><stop offset=".7" style="stop-color:#7b5190;stop-opacity:1"/><stop offset="1" style="stop-color:#612c75;stop-opacity:1"/></linearGradient></defs></svg>