<svg xmlns="http://www.w3.org/2000/svg" xml:space="preserve" width="90" height="90" style="clip-rule:evenodd;fill-rule:evenodd;stroke-linejoin:round;stroke-miterlimit:2"><path d="M0 0h90v90H0z" style="fill:none"/><path d="m12.899 35.346.311-.908c.979-2.861 2.226-5.739 3.378-8.564l.51-1.251 11.577-.019q.349-.401.659-.711c4.306-4.306 11.005-5.262 15.212-5.274v.005l.045.001c.708.016 1.419.014 2.126.052 1.447.077 1.961.155 3.238.311l.027.004c3.526.527 6.858 2.013 9.704 4.129.643.478 1.295 1.007 1.822 1.622l1.743-.061c2.693-.095 5.388-.072 8.081-.08l1.233-.004.564 1.097s2.964 5.825 3.503 9.068l.105.631h4.787l.581 1.01s2.953 5.154 4.004 7.887l.278.722-.277.723c-.995 2.595-2.604 4.982-3.842 7.463l-.557 1.114h-1.246l-3.347-.002-.43 1.11c-1.135 2.926-2.124 6.263-3.55 9.058l-.56 1.099H57.761c.004.97-.031 1.938-.132 2.905l-.058.554-.335.446c-.626.834-1.515 1.347-2.506 1.582-1.162.276-2.464.139-3.354-.131-.931-.282-2.535-1.235-7.369-.947-.826.049-1.962.306-2.874.475-.958.177-1.89.644-2.895.788-.912.131-2.484.22-3.677-.22-1.258-.464-2.213-1.371-2.445-2.949l-.016-.109-.004-.111a46 46 0 0 1-.024-2.283H17.303l-.515-1.244c-1.214-2.932-3.625-8.803-3.625-8.803l-.507-1.234-3.316.001H8.06l-.544-1.159c-1.156-2.461-2.748-4.813-3.646-7.384l-.24-.688.255-.682c1.031-2.759 2.598-5.334 3.944-7.942l.561-1.089Zm.494 2.014c-.11-.078-.177-.09-.177-.004v.004zM42.78 20.693c-.152-.124-.249-.163-.249-.059l.001.076z" style="fill-rule:nonzero"/><path d="m15.027 54.766 17.091.029c-.003 1.084-.006 2.169-.034 3.251-.019.64-.061 1.278-.084 1.919-.047 1.199-.039 2.399-.047 3.599H18.649c-1.212-2.93-2.616-5.785-3.62-8.798zm.204-17.407 5.875.008c-.533 2.872-.823 5.632-.588 8.392.228 2.669 2.337 4.506 3.793 6.516-5.066 0-9.911.008-14.971.008-1.127-2.399-2.693-4.686-3.568-7.193 1.004-2.684 2.538-5.185 3.847-7.723l5.612-.011zM26.6 26.622c-1.816 2.747-3.238 5.674-4.751 8.468h-6.733c.967-2.825 2.2-5.666 3.337-8.455z" style="fill:url(#a);fill-rule:nonzero"/><path d="m74.973 54.766-17.091.029c.003 1.084.006 2.169.034 3.251.019.64.061 1.278.084 1.919.047 1.199.039 2.399.047 3.599h13.304c1.212-2.93 2.616-5.785 3.62-8.798zm-.204-17.407-5.875.008c.533 2.872.823 5.632.588 8.392-.227 2.669-2.337 4.506-3.793 6.516 5.066 0 9.911.008 14.972.008 1.126-2.399 2.692-4.686 3.567-7.193-1.003-2.684-2.538-5.185-3.847-7.723l-5.612-.011ZM63.4 26.622c1.816 2.747 3.238 5.674 4.752 8.468h6.732c-.967-2.825-2.2-5.666-3.337-8.455z" style="fill:url(#b);fill-rule:nonzero"/><path d="m15.231 37.359 5.875.008c-.533 2.872-.823 5.632-.588 8.392.228 2.669 2.337 4.506 3.793 6.516-5.066 0-9.911.008-14.971.008-1.127-2.399-2.693-4.686-3.568-7.193 1.004-2.684 2.538-5.185 3.847-7.723l5.612-.011z" style="fill:url(#c);fill-rule:nonzero"/><path d="m74.769 37.359-5.875.008c.533 2.872.823 5.632.588 8.392-.227 2.669-2.337 4.506-3.793 6.516 5.066 0 9.911.008 14.972.008 1.126-2.399 2.692-4.686 3.567-7.193-1.003-2.684-2.538-5.185-3.847-7.723l-5.612-.011z" style="fill:url(#d);fill-rule:nonzero"/><path d="M44.546 20.639c.687.016 1.377.013 2.064.05 1.386.073 1.877.149 3.074.295 3.199.479 6.181 1.885 8.8 3.754-1.343 2.2-3.353 3.805-5.4 5.297 2.679-.494 5.173-1.651 7.387-3.227 4.111 5.162 7.098 11.549 6.837 18.274-.042 2.076-1.228 4.004-2.875 5.209-2.65 1.469-5.883 1.367-8.544 2.75-.102.269-.316.805-.418 1.079-.424 4.708.645 9.451.154 14.153-.842 1.122-2.452.8-3.664 1.093-.251-2.541.026-3.908-.317-6.438-.256-1.889-1.814-2.788-2.059-.154-.149 1.605-.042 2.039-.079 3.644-1.152.454-2.308.883-3.465 1.312.028-2.107.318-3.984-.019-6.056-.274-1.696-1.665-.999-1.787-.092-.309 2.259-.204 4.3-.348 6.574q-1.564.34-3.121.685c-.632-2.661-.13-7.868-1.531-7.865-2.533.008-.758 5.478-1.284 8.28-1.317-.097-3.573.358-3.842-1.469-.154-4.187.382-8.364.413-12.548-.06-.805-.005-1.884-.768-2.381-2.977-1.312-6.73-1.043-9.213-3.353-2.643-2.499-2.149-6.427-1.563-9.66 1.084-5.471 3.92-10.531 7.78-14.527.513 2.01.811 4.153 1.935 5.943 1.892 1.14 4.242.912 6.366 1.043-1.568-.912-3.376-1.521-4.623-2.883-.661-2.01-.703-4.158-.823-6.252 3.382-1.746 7.132-2.524 10.933-2.535zm-.829 25.254c-2.363 3.282-2.601 7.506-2.214 11.4 2.232-.619 4.558-.65 6.796-.041.423-3.824.245-8.056-2.185-11.242-.269 2.972-.126 6.019-1.051 8.897-1.652-2.702-.93-6.019-1.349-9.014zm13.293-8.95c-.536-.023-1.053.087-1.563.236-3.424 1.037-6.043 4.391-6.241 7.958-.149 1.359.943 2.721 2.376 2.549 3.12.005 6.335.41 9.377-.424 2.102-.614 2.53-3.27 1.851-5.078-.852-2.752-2.823-4.966-5.8-5.241m-24.304.05c-.915.089-.526.024-1.176.154-2.81.949-4.671 3.902-4.804 6.796-.102 1.641 1.032 3.269 2.707 3.497 2.954.543 6.001.298 8.986.227 1.926.097 2.512-2.219 2.028-3.716-.718-3.069-3.039-6.067-6.225-6.801-.675-.154-.829-.128-1.516-.154z" style="fill:url(#e);fill-rule:nonzero"/><defs><linearGradient id="a" x1="0" x2="1" y1="0" y2="0" gradientTransform="translate(-17.75 67.94)scale(50.8729)" gradientUnits="userSpaceOnUse"><stop offset="0" style="stop-color:#626e77;stop-opacity:1"/><stop offset=".04" style="stop-color:#697780;stop-opacity:1"/><stop offset=".11" style="stop-color:#7d8e98;stop-opacity:1"/><stop offset=".2" style="stop-color:#9eb4c0;stop-opacity:1"/><stop offset=".2" style="stop-color:#a0b6c2;stop-opacity:1"/><stop offset=".2" style="stop-color:#a1b7c3;stop-opacity:1"/><stop offset=".29" style="stop-color:#adc6d4;stop-opacity:1"/><stop offset=".38" style="stop-color:#b5cede;stop-opacity:1"/><stop offset=".5" style="stop-color:#b7d1e1;stop-opacity:1"/><stop offset=".62" style="stop-color:#b5cede;stop-opacity:1"/><stop offset=".71" style="stop-color:#adc6d4;stop-opacity:1"/><stop offset=".8" style="stop-color:#a1b7c3;stop-opacity:1"/><stop offset=".8" style="stop-color:#a0b6c2;stop-opacity:1"/><stop offset=".85" style="stop-color:#8b9da8;stop-opacity:1"/><stop offset=".91" style="stop-color:#74838d;stop-opacity:1"/><stop offset=".96" style="stop-color:#67747d;stop-opacity:1"/><stop offset="1" style="stop-color:#626e77;stop-opacity:1"/></linearGradient><linearGradient id="b" x1="0" x2="1" y1="0" y2="0" gradientTransform="matrix(-50.8729 0 0 50.8729 107.751 67.94)" gradientUnits="userSpaceOnUse"><stop offset="0" style="stop-color:#626e77;stop-opacity:1"/><stop offset=".04" style="stop-color:#697780;stop-opacity:1"/><stop offset=".11" style="stop-color:#7d8e98;stop-opacity:1"/><stop offset=".2" style="stop-color:#9eb4c0;stop-opacity:1"/><stop offset=".2" style="stop-color:#a0b6c2;stop-opacity:1"/><stop offset=".2" style="stop-color:#a1b7c3;stop-opacity:1"/><stop offset=".29" style="stop-color:#adc6d4;stop-opacity:1"/><stop offset=".38" style="stop-color:#b5cede;stop-opacity:1"/><stop offset=".5" style="stop-color:#b7d1e1;stop-opacity:1"/><stop offset=".62" style="stop-color:#b5cede;stop-opacity:1"/><stop offset=".71" style="stop-color:#adc6d4;stop-opacity:1"/><stop offset=".8" style="stop-color:#a1b7c3;stop-opacity:1"/><stop offset=".8" style="stop-color:#a0b6c2;stop-opacity:1"/><stop offset=".85" style="stop-color:#8b9da8;stop-opacity:1"/><stop offset=".91" style="stop-color:#74838d;stop-opacity:1"/><stop offset=".96" style="stop-color:#67747d;stop-opacity:1"/><stop offset="1" style="stop-color:#626e77;stop-opacity:1"/></linearGradient><linearGradient id="c" x1="0" x2="1" y1="0" y2="0" gradientTransform="translate(-17.75 67.94)scale(42.0613)" gradientUnits="userSpaceOnUse"><stop offset="0" style="stop-color:#626e77;stop-opacity:1"/><stop offset=".04" style="stop-color:#697780;stop-opacity:1"/><stop offset=".11" style="stop-color:#7d8e98;stop-opacity:1"/><stop offset=".2" style="stop-color:#9eb4c0;stop-opacity:1"/><stop offset=".2" style="stop-color:#a0b6c2;stop-opacity:1"/><stop offset=".2" style="stop-color:#a1b7c3;stop-opacity:1"/><stop offset=".29" style="stop-color:#adc6d4;stop-opacity:1"/><stop offset=".38" style="stop-color:#b5cede;stop-opacity:1"/><stop offset=".5" style="stop-color:#b7d1e1;stop-opacity:1"/><stop offset=".62" style="stop-color:#b5cede;stop-opacity:1"/><stop offset=".71" style="stop-color:#adc6d4;stop-opacity:1"/><stop offset=".8" style="stop-color:#a1b7c3;stop-opacity:1"/><stop offset=".8" style="stop-color:#a0b6c2;stop-opacity:1"/><stop offset=".85" style="stop-color:#8b9da8;stop-opacity:1"/><stop offset=".91" style="stop-color:#74838d;stop-opacity:1"/><stop offset=".96" style="stop-color:#67747d;stop-opacity:1"/><stop offset="1" style="stop-color:#626e77;stop-opacity:1"/></linearGradient><linearGradient id="d" x1="0" x2="1" y1="0" y2="0" gradientTransform="matrix(-42.0613 .5037 .5037 42.0613 107.751 67.94)" gradientUnits="userSpaceOnUse"><stop offset="0" style="stop-color:#626e77;stop-opacity:1"/><stop offset=".04" style="stop-color:#697780;stop-opacity:1"/><stop offset=".11" style="stop-color:#7d8e98;stop-opacity:1"/><stop offset=".2" style="stop-color:#9eb4c0;stop-opacity:1"/><stop offset=".2" style="stop-color:#a0b6c2;stop-opacity:1"/><stop offset=".2" style="stop-color:#a1b7c3;stop-opacity:1"/><stop offset=".29" style="stop-color:#adc6d4;stop-opacity:1"/><stop offset=".38" style="stop-color:#b5cede;stop-opacity:1"/><stop offset=".5" style="stop-color:#b7d1e1;stop-opacity:1"/><stop offset=".62" style="stop-color:#b5cede;stop-opacity:1"/><stop offset=".71" style="stop-color:#adc6d4;stop-opacity:1"/><stop offset=".8" style="stop-color:#a1b7c3;stop-opacity:1"/><stop offset=".8" style="stop-color:#a0b6c2;stop-opacity:1"/><stop offset=".85" style="stop-color:#8b9da8;stop-opacity:1"/><stop offset=".91" style="stop-color:#74838d;stop-opacity:1"/><stop offset=".96" style="stop-color:#67747d;stop-opacity:1"/><stop offset="1" style="stop-color:#626e77;stop-opacity:1"/></linearGradient><linearGradient id="e" x1="0" x2="1" y1="0" y2="0" gradientTransform="translate(15.027 54.766)scale(59.9437)" gradientUnits="userSpaceOnUse"><stop offset="0" style="stop-color:#626e77;stop-opacity:1"/><stop offset=".04" style="stop-color:#697780;stop-opacity:1"/><stop offset=".11" style="stop-color:#7d8e98;stop-opacity:1"/><stop offset=".2" style="stop-color:#9eb4c0;stop-opacity:1"/><stop offset=".2" style="stop-color:#a0b6c2;stop-opacity:1"/><stop offset=".2" style="stop-color:#a1b7c3;stop-opacity:1"/><stop offset=".29" style="stop-color:#adc6d4;stop-opacity:1"/><stop offset=".38" style="stop-color:#b5cede;stop-opacity:1"/><stop offset=".5" style="stop-color:#b7d1e1;stop-opacity:1"/><stop offset=".62" style="stop-color:#b5cede;stop-opacity:1"/><stop offset=".71" style="stop-color:#adc6d4;stop-opacity:1"/><stop offset=".8" style="stop-color:#a1b7c3;stop-opacity:1"/><stop offset=".8" style="stop-color:#a0b6c2;stop-opacity:1"/><stop offset=".85" style="stop-color:#8b9da8;stop-opacity:1"/><stop offset=".91" style="stop-color:#74838d;stop-opacity:1"/><stop offset=".96" style="stop-color:#67747d;stop-opacity:1"/><stop offset="1" style="stop-color:#626e77;stop-opacity:1"/></linearGradient></defs></svg>