<svg xmlns="http://www.w3.org/2000/svg" width="499.979" height="538.917" viewBox="0 0 499.979 538.917"><path d="M375.757 20.393c10.436 61.765 61.487 110.22 124.222 115.785-2.464 33.688-8.597 67.973-16.671 100.808-28.737 116.87-89.29 228.108-198.297 286.703-7.357 3.955-24.675 13.312-32.01 14.991-5.77 1.321-13.836-3.205-19.37-5.654C113.064 479.67 45.084 356.284 15.67 232.986 8.134 201.401 2.287 168.542 0 136.178c61.867-5.424 113.754-53.548 123.663-114.79l1.06-1.232c27.427-6.724 54.713-14.562 82.89-17.866 57.692-6.764 112.903 2.102 168.144 18.103m-133.762-1.23a384 384 0 0 0-77.214 10.296c-4.461 1.065-21.056 4.68-23.759 6.241-2.114 1.221-4.682 13.416-6.015 16.985-1.778 4.767-3.965 10.283-6.16 14.84-3.807 7.906-10.78 15.976-14.097 22.901-.568 1.186-1.004 2.356-.722 3.695 7.285 2.204 14.112 6.093 21.516 7.992 36.515 9.366 76.501-8.48 94.617-41.274 6.495-11.759 12.749-28.22 11.834-41.677m143.952 74.956c.329-1.077-.082-1.948-.483-2.919-2.984-7.233-11.355-17.092-15.332-25.675-4.478-9.661-6.982-20.066-11.174-29.826-32.936-9.094-66.645-15.84-100.974-16.537.314 4.29-.55 9.068.238 13.272 1.16 6.178 8.34 22.508 11.596 28.405 22.725 41.161 74.8 55.02 116.129 33.28m-2.958 20.058c-44.421 17.176-95.907 2.711-122.814-36.695-4.063-5.949-6.733-12.857-11.175-18.314-19.086 51.473-81.573 75.204-132.01 55.01 17.842 45.483 2.403 97.225-38.472 124.018-2.569 1.683-15.24 7.647-15.535 8.482-.6 1.704.56 1.352 1.28 1.722 4.153 2.13 8.546 3.731 12.648 6.345 42.026 26.774 58.156 78.947 40.088 125.422 48.396-18.681 99.91-1.274 126.796 42.695 1.902 3.112 3.12 7.042 4.954 10.018.434.703-.213 1.773 1.73 1.294.897-.222 6.922-13.594 8.701-16.316 26.378-40.34 77.907-54.506 122.804-38.696-16.16-47.144-.935-98.217 41.697-124.803 2.338-1.458 13.076-5.996 13.314-6.702.604-1.788-.675-1.35-1.294-1.73-4.212-2.586-9.237-4.471-13.627-7.344-41.42-27.106-57.062-78.135-39.085-124.406m-285.008-2.01c-.797-.731-4.535 2.302-5.467 3.025-6.26 4.86-12.586 11.393-19.208 15.794-15.364 10.211-34.439 17.994-52.323 22.193l16.089 82.91c34.152-6.887 60.84-31.178 68.64-65.7 4.78-21.158.041-38.651-7.73-58.222m381.015 41.012c-18.52-4.574-36.864-12.14-52.75-22.769-7.127-4.768-13.955-12.46-20.323-16.675-1.205-.798-2.348-1.71-3.917-1.566-20.9 40.267-6.613 92.279 33.287 114.195 3.517 1.932 25.628 11.396 27.619 9.718zM79.636 278.52c-5.025-4.497-12.42-9.001-18.46-12.04-2.324-1.17-12.196-5.882-13.905-6.143-1.788-.273-2.194-.078-3.286 1.351 13.65 41.766 28.778 84.24 53.994 120.478 1.669-7.459 5.75-14.205 7.538-21.972 6.712-29.164-3.622-61.76-25.88-81.674m336.001 5.298c-.655.716-1.902.998-2.618 1.833-22.49 26.224-27.733 65.092-10.515 95.51 1.583.386 2.002-1.41 2.718-2.263 2.913-3.469 7.504-12.608 9.94-17.06 17.325-31.662 30.18-65.638 40.78-100.1-2.236-3.443-4.31-.66-6.696.031-12.274 3.556-24.467 12.058-33.609 22.049M241.99 514.167v-52.5c0-1.082-6.725-17.69-7.818-20.18-21.234-48.365-78.889-67.007-124.117-38.72 25.379 38.332 61.543 72.148 101.012 95.823 3.04 1.823 29.723 16.943 30.923 15.577m16 0c53.03-23.206 99.67-63.482 131.934-111.402-46.331-28.402-102.652-9.633-124.419 39.417-1.048 2.363-7.515 18.441-7.515 19.485zm-16.203-392.703c98.754-6.852 165.655 99.36 118.375 186.375-44.047 81.061-159.956 87.072-212.987 11.644-56.524-80.396-2.89-191.254 94.612-198.02m-77.378 59.12c-48.188 63.65-13.974 158.728 65.4 173.265 91.19 16.7 158.666-79.888 114.353-160.353-37.195-67.54-133.177-74.433-179.753-12.912m15.59 127.564.496-1.984c18.817-1.916 34.448-2.639 49.508-15.484 28.1-23.97 27.222-66.432-1.534-89.49-13.822-11.083-31.259-13.24-48.474-14.028l.474-2.016c35.807-32.431 88.726-40.055 126.994-6.952 65.72 56.85 21.08 164.581-67.011 158.012-24.277-1.81-41.372-14.851-60.454-28.058m41.999 7.007c55.333 20.914 111.429-27.684 98.121-85.616-8.202-35.705-43.035-59.955-79.507-56.25-2.964.301-16.557 3.13-17.617 5.383 53.373 24.041 59.68 97.708 10.305 130.305z"/><path d="M382.989 114.177c-17.977 46.271-2.336 97.3 39.085 124.406 4.39 2.873 9.415 4.758 13.627 7.343.619.38 1.898-.057 1.294 1.73-.238.707-10.976 5.245-13.314 6.703-42.632 26.586-57.857 77.66-41.697 124.803-44.897-15.81-96.426-1.643-122.804 38.696-1.78 2.722-7.804 16.094-8.701 16.316-1.943.48-1.296-.59-1.73-1.294-1.834-2.976-3.052-6.906-4.954-10.018-26.886-43.97-78.4-61.376-126.796-42.695 18.068-46.475 1.938-98.648-40.088-125.422-4.102-2.614-8.495-4.215-12.648-6.345-.72-.37-1.88-.018-1.28-1.722.294-.835 12.966-6.799 15.535-8.482 40.875-26.793 56.314-78.535 38.472-124.019 50.437 20.195 112.924-3.536 132.01-55.009 4.442 5.457 7.112 12.365 11.175 18.314 26.907 39.406 78.393 53.871 122.814 36.695m-141.203 7.287c-97.502 6.765-151.136 117.623-94.612 198.019 53.031 75.428 168.94 69.417 212.987-11.644 47.28-87.014-19.621-193.227-118.375-186.375m78.332 108.075c-8.202-35.705-43.035-59.955-79.507-56.25-2.964.301-16.557 3.13-17.617 5.383 53.373 24.041 59.68 97.708 10.305 130.305l-11.302 6.178c55.333 20.914 111.429-27.684 98.121-85.616" style="fill:#fff"/><path d="M241.99 514.167c-1.201 1.366-27.884-13.754-30.924-15.577-39.469-23.675-75.633-57.491-101.012-95.824 45.228-28.286 102.883-9.644 124.117 38.72 1.093 2.492 7.818 19.1 7.818 20.181zm147.933-111.402c-46.331-28.402-102.652-9.633-124.419 39.417-1.048 2.363-7.515 18.441-7.515 19.485v52.5c53.03-23.206 99.67-63.482 131.934-111.402M164.781 29.46c-4.461 1.065-21.056 4.68-23.759 6.241-2.114 1.221-4.682 13.416-6.015 16.985-1.778 4.767-3.965 10.283-6.16 14.84-3.807 7.906-10.78 15.976-14.097 22.901-.568 1.186-1.004 2.356-.722 3.695 7.285 2.204 14.112 6.093 21.516 7.992 36.515 9.366 76.501-8.48 94.617-41.274 6.495-11.759 12.749-28.22 11.834-41.677A384 384 0 0 0 164.78 29.46M385.464 91.2c-2.984-7.233-11.355-17.092-15.332-25.675-4.478-9.661-6.982-20.066-11.174-29.826-32.936-9.094-66.645-15.84-100.974-16.537.314 4.29-.55 9.068.238 13.272 1.16 6.178 8.34 22.508 11.596 28.405 22.725 41.161 74.8 55.02 116.129 33.28.329-1.077-.082-1.948-.483-2.919m40.782 39.21c-7.127-4.768-13.955-12.46-20.323-16.675-1.205-.798-2.348-1.71-3.917-1.566-20.9 40.267-6.613 92.279 33.287 114.195 3.517 1.932 25.628 11.396 27.619 9.718l16.084-82.903c-18.52-4.574-36.864-12.14-52.75-22.769M92.514 115.192c-6.26 4.86-12.586 11.393-19.208 15.794-15.364 10.211-34.439 17.994-52.323 22.193l16.089 82.91c34.152-6.887 60.841-31.178 68.64-65.7 4.78-21.158.041-38.651-7.73-58.222-.798-.731-4.536 2.302-5.468 3.025m320.505 170.46c-22.49 26.224-27.733 65.092-10.515 95.51 1.583.386 2.002-1.41 2.718-2.263 2.913-3.469 7.504-12.608 9.94-17.06 17.325-31.662 30.18-65.638 40.78-100.1-2.236-3.443-4.31-.66-6.696.031-12.274 3.556-24.467 12.058-33.609 22.049-.655.716-1.902.998-2.618 1.833M61.176 266.48c-2.324-1.17-12.196-5.882-13.905-6.143-1.788-.273-2.194-.078-3.286 1.351 13.65 41.766 28.778 84.24 53.994 120.478 1.669-7.459 5.75-14.205 7.538-21.972 6.712-29.164-3.622-61.76-25.88-81.674-5.026-4.497-12.422-9.001-18.461-12.04m168.632 87.368c91.19 16.7 158.666-79.888 114.353-160.353-37.195-67.54-133.177-74.433-179.753-12.912-48.188 63.65-13.974 158.728 65.4 173.265m-49.314-47.685c18.817-1.916 34.448-2.639 49.508-15.484 28.1-23.97 27.222-66.432-1.534-89.49-13.822-11.083-31.259-13.24-48.474-14.028l.474-2.015c35.807-32.432 88.726-40.056 126.994-6.953 65.72 56.85 21.08 164.581-67.011 158.012-24.277-1.81-41.372-14.851-60.454-28.058z" style="fill:#fc1313"/></svg>