<svg xmlns="http://www.w3.org/2000/svg" width="530.688" height="500"><defs><linearGradient id="a" x1="-756.91" x2="-721.214" y1="1239.737" y2="1204.042" gradientTransform="matrix(9.99968 0 0 9.99968 7655.746 -11986.852)" gradientUnits="userSpaceOnUse"><stop offset="0" style="stop-color:#536e78"/><stop offset=".4" style="stop-color:#99aebc"/><stop offset=".5" style="stop-color:#d9eaf3"/><stop offset=".6" style="stop-color:#99aebc"/><stop offset="1" style="stop-color:#536e78"/></linearGradient></defs><path d="m95.57 0-2.49 36.269-.03.53-.03.21c-3.31 41.068-10.199 75.737-20.039 100.347l-26.679-37.67-.57-.78-26.249-36.998-8.44 44.549-.16.88-.03.1c-28.229 146.235.9 250.551 60.858 314.6 50.879 54.348 122.236 78.407 193.504 77.957h.26c71.278.45 142.635-23.6 193.514-77.958 59.958-64.048 89.077-168.364 60.838-314.6v-.1l-.16-.88-8.44-44.548-26.249 36.999-.57.78-26.68 37.669c-9.839-24.61-16.739-59.279-20.039-100.347l-.04-.21-.02-.53L435.13 0 406.5 22.42l-.29.24-.29.21c-38.758 29.208-56.788 61.057-61.078 91.696-4.3 30.69 3.86 58.088 9.73 81.358 5.87 23.269 9.13 41.628 3.99 56.448-3.76 10.82-12.41 22.5-32.759 34.959V90.117l36.989-59.958.08-.11.06-.11.37-.64L380.852.1H149.857l17.52 29.2.4.639.06.11.05.11 37.029 60.008v197.164c-20.36-12.46-29.009-24.15-32.759-34.96-5.15-14.809-1.88-33.178 3.98-56.447 5.87-23.27 14.02-50.659 9.73-81.358-4.29-30.639-22.31-62.488-61.068-91.697l-.29-.21-.3-.24z" style="stroke-width:9.99968"/><path fill="url(#a)" d="m183.938 19.42.39.64 39.878 64.627V318.88c-43.278-18.86-62.928-38.95-70.287-60.168-7.39-21.31-2.43-43.859 3.53-67.488 5.96-23.63 12.91-48.339 9.33-73.958s-17.76-52.088-53.869-79.207l-.59-.46-.05.74c-4.76 59.118-15.54 107.276-37.189 135.385l-44.508-62.888-.57-.8-.19.95c-27.47 142.246.96 239.083 55.978 297.85 46.728 49.92 112.596 72.338 179.554 71.858 66.968.49 132.846-21.929 179.584-71.857 55.018-58.758 83.438-155.605 55.958-297.85l-.18-.95-.57.8-44.508 62.887c-21.66-28.109-32.42-76.257-37.189-135.385l-.04-.74-.61.46c-36.089 27.119-50.268 53.588-53.848 79.207-3.59 25.62 3.37 50.329 9.33 73.958s10.92 46.168 3.52 67.488c-7.35 21.219-27 41.298-70.278 60.168V84.687l39.878-64.628.39-.64H183.958z" style="fill:url(#a);stroke-width:9.99968"/></svg>