<svg xmlns="http://www.w3.org/2000/svg" width="533.626" height="500"><path d="m178.559 0 .422.694 43.226 70.052v253.85c-46.91-20.443-68.21-42.219-76.187-65.22-8.01-23.097-2.634-47.539 3.826-73.151 6.46-25.613 13.993-52.396 10.113-80.166s-19.25-56.46-58.39-85.855l-.64-.499-.053.802c-5.16 64.08-16.844 116.281-40.31 146.75L12.32 99.09l-.618-.867-.206 1.03c-29.774 154.184 1.041 259.149 60.677 322.85 50.65 54.108 122.047 78.409 194.625 77.888 72.589.532 143.996-23.77 194.657-77.888 59.636-63.69 90.452-168.666 60.666-322.85l-.195-1.03-.618.867-48.244 68.166c-23.477-30.468-35.151-82.658-40.31-146.749l-.055-.802-.65.499c-39.118 29.395-54.488 58.086-58.379 85.855s3.653 54.553 10.113 80.166c6.46 25.612 11.836 50.043 3.815 73.152-7.966 23-29.265 44.765-76.176 65.218V70.746L354.649.694l.423-.694H178.58z" style="stroke-width:10.839"/></svg>