<svg xmlns="http://www.w3.org/2000/svg" xml:space="preserve" width="146.113" height="150" viewBox="0 0 146.113 150"><path fill="#5d5e61" d="M13.202 92.837v-45.55L0 34.388 36.976 0h23.865l2.194 3.5c2.189 3.487 5.936 5.571 10.021 5.571s7.83-2.083 10.02-5.572L85.271 0h23.865l36.977 34.388-13.202 12.899v45.55L73.057 150Z"/><path d="M17.277 91.095V45.572L5.905 34.461 38.579 4.075h20.008l.998 1.591c2.94 4.685 7.977 7.48 13.472 7.48s10.531-2.796 13.471-7.48l.997-1.591h20.01l32.673 30.386-11.372 11.11v45.523l-55.779 53.271z"/><path fill="#5d5e61" d="M104.183 76.381a32 32 0 0 1-2.557 6.188l7.089 9.387-10.813 10.815-9.386-7.09a32.2 32.2 0 0 1-6.188 2.558l-1.625 11.657H65.411l-1.626-11.657a32.3 32.3 0 0 1-6.188-2.558l-9.387 7.09-10.814-10.815 7.092-9.388a32.2 32.2 0 0 1-2.559-6.187l-11.656-1.625v-15.29l11.656-1.625a32.3 32.3 0 0 1 2.559-6.187l-7.092-9.388L48.21 31.452l9.388 7.091a32.4 32.4 0 0 1 6.187-2.557l1.625-11.658h15.292l1.626 11.656c2.164.644 4.236 1.5 6.185 2.558l9.39-7.091 10.813 10.813-7.09 9.388a32.3 32.3 0 0 1 2.559 6.188l11.656 1.624v15.292ZM73.056 46.056c-11.627 0-21.057 9.426-21.057 21.057s9.43 21.056 21.057 21.056c11.63 0 21.057-9.425 21.057-21.056s-9.427-21.057-21.057-21.057m15.452 21.057c0 8.535-6.917 15.452-15.452 15.452-8.532 0-15.452-6.917-15.452-15.452s6.92-15.452 15.452-15.452c8.535 0 15.452 6.917 15.452 15.452M73.056 61.77a5.344 5.344 0 0 0 0 10.686 5.343 5.343 0 0 0 0-10.686"/></svg>