<svg xmlns="http://www.w3.org/2000/svg" xml:space="preserve" width="146.113" height="150" viewBox="0 0 146.113 150"><g transform="translate(-1.812 -5.157)"><path fill="#fff" d="M15.014 97.994v-45.55L1.812 39.545 38.788 5.157h23.865l2.194 3.5c2.189 3.487 5.936 5.571 10.021 5.571s7.83-2.083 10.02-5.572l2.195-3.499h23.865l36.977 34.388-13.202 12.899v45.55l-59.854 57.163z"/><path fill="#bb2c26" d="M19.089 96.252V50.729L7.717 39.618 40.391 9.231h20.008l.998 1.591c2.94 4.685 7.977 7.48 13.472 7.48s10.531-2.796 13.471-7.48l.997-1.591h20.01l32.674 30.387-11.372 11.11v45.523L74.87 149.522Z"/><linearGradient id="a" x1="12.637" x2="137.099" y1="78.727" y2="78.727" gradientUnits="userSpaceOnUse"><stop offset="0" style="stop-color:#bb2c26"/><stop offset=".041" style="stop-color:#bf3526"/><stop offset=".109" style="stop-color:#cb4d25"/><stop offset=".194" style="stop-color:#de7523"/><stop offset=".2" style="stop-color:#e07823"/><stop offset=".208" style="stop-color:#e17a23"/><stop offset=".292" style="stop-color:#ee8b1f"/><stop offset=".385" style="stop-color:#f5951e"/><stop offset=".5" style="stop-color:#f7981d"/><stop offset=".615" style="stop-color:#f5951e"/><stop offset=".708" style="stop-color:#ee8b1f"/><stop offset=".792" style="stop-color:#e17a23"/><stop offset=".8" style="stop-color:#e07823"/><stop offset=".848" style="stop-color:#d35d24"/><stop offset=".907" style="stop-color:#c64225"/><stop offset=".96" style="stop-color:#be3226"/><stop offset="1" style="stop-color:#bb2c26"/></linearGradient><path fill="url(#a)" d="m74.868 144.827 52.384-50.028v-45.5l9.847-9.62-29.087-27.052H91.215c-3.414 5.441-9.449 9.071-16.347 9.071s-12.933-3.63-16.348-9.071H41.725L12.637 39.679l9.848 9.62v45.5z" style="fill:url(#a)"/><path fill="#bb2c26" d="m64.268 118.448-1.743-12.494a35 35 0 0 1-2.75-1.137l-10.065 7.602-14.99-14.993 7.601-10.065a35 35 0 0 1-1.136-2.749L28.689 82.87V61.668l12.494-1.742q.512-1.404 1.136-2.749l-7.601-10.064 14.99-14.994 10.066 7.604a35 35 0 0 1 2.749-1.136l1.742-12.496h21.202l1.743 12.493q1.403.512 2.748 1.136l10.064-7.601 14.993 14.991-7.601 10.063q.624 1.347 1.136 2.752l12.494 1.741v21.202l-12.491 1.742a36 36 0 0 1-1.139 2.752l7.601 10.063-14.99 14.993-10.063-7.602q-1.347.625-2.752 1.137l-1.742 12.494z"/><path fill="#fff" d="M105.995 81.538a32 32 0 0 1-2.557 6.188l7.089 9.387-10.813 10.814-9.386-7.09a32.2 32.2 0 0 1-6.188 2.558l-1.625 11.657H67.223l-1.626-11.657a32.3 32.3 0 0 1-6.188-2.558l-9.387 7.09-10.814-10.814 7.092-9.388a32.2 32.2 0 0 1-2.559-6.187l-11.656-1.625v-15.29l11.656-1.625a32.3 32.3 0 0 1 2.559-6.187l-7.092-9.388 10.814-10.814L59.41 43.7a32.4 32.4 0 0 1 6.187-2.557l1.625-11.658h15.292l1.626 11.656c2.164.644 4.236 1.5 6.185 2.558l9.39-7.091 10.813 10.813-7.09 9.388a32.3 32.3 0 0 1 2.559 6.188l11.656 1.624v15.292ZM74.868 51.213c-11.627 0-21.057 9.426-21.057 21.057s9.43 21.056 21.057 21.056c11.63 0 21.057-9.425 21.057-21.056s-9.427-21.057-21.057-21.057M90.32 72.27c0 8.535-6.917 15.452-15.452 15.452-8.532 0-15.452-6.917-15.452-15.452s6.92-15.452 15.452-15.452c8.535-.001 15.452 6.916 15.452 15.452m-15.452-5.343a5.344 5.344 0 0 0 0 10.686 5.343 5.343 0 0 0 0-10.686"/></g></svg>