<svg xmlns="http://www.w3.org/2000/svg" xml:space="preserve" width="146.113" height="150" viewBox="0 0 146.113 150"><g transform="translate(-1.513 -5.157)"><path fill="#fff" d="M14.715 97.994v-45.55L1.513 39.545 38.489 5.157h23.865l2.194 3.5c2.189 3.487 5.936 5.571 10.021 5.571s7.83-2.083 10.02-5.572l2.195-3.499h23.865l36.977 34.388-13.202 12.899v45.55L74.57 155.157Z"/><path fill="#626e77" d="M18.79 96.252V50.729L7.418 39.618 40.092 9.231H60.1l.998 1.591c2.94 4.685 7.977 7.48 13.472 7.48s10.531-2.796 13.471-7.48l.997-1.591h20.01l32.674 30.387-11.372 11.11v45.523l-55.779 53.271z"/><linearGradient id="a" x1="12.338" x2="136.8" y1="78.727" y2="78.727" gradientUnits="userSpaceOnUse"><stop offset="0" style="stop-color:#626e77"/><stop offset=".042" style="stop-color:#697780"/><stop offset=".11" style="stop-color:#7d8e98"/><stop offset=".195" style="stop-color:#9eb4c0"/><stop offset=".2" style="stop-color:#a0b6c2"/><stop offset=".204" style="stop-color:#a1b7c3"/><stop offset=".29" style="stop-color:#adc6d4"/><stop offset=".383" style="stop-color:#b5cede"/><stop offset=".5" style="stop-color:#b7d1e1"/><stop offset=".617" style="stop-color:#b5cede"/><stop offset=".71" style="stop-color:#adc6d4"/><stop offset=".796" style="stop-color:#a1b7c3"/><stop offset=".8" style="stop-color:#a0b6c2"/><stop offset=".846" style="stop-color:#8b9da8"/><stop offset=".906" style="stop-color:#74838d"/><stop offset=".959" style="stop-color:#67747d"/><stop offset="1" style="stop-color:#626e77"/></linearGradient><path fill="url(#a)" d="m74.569 144.827 52.384-50.028v-45.5l9.847-9.62-29.087-27.052H90.916c-3.414 5.441-9.449 9.071-16.347 9.071s-12.933-3.63-16.348-9.071H41.426L12.338 39.679l9.848 9.62v45.5z" style="fill:url(#a)"/><path fill="#626e77" d="m63.969 118.448-1.743-12.494a35 35 0 0 1-2.75-1.137l-10.065 7.602L34.42 97.426l7.601-10.065a35 35 0 0 1-1.136-2.749L28.391 82.87V61.668l12.494-1.742q.512-1.404 1.136-2.749L34.42 47.112l14.99-14.994 10.066 7.604a35 35 0 0 1 2.749-1.136l1.742-12.496H85.17l1.743 12.493q1.403.512 2.748 1.136l10.064-7.601 14.993 14.991-7.601 10.063q.624 1.347 1.136 2.752l12.494 1.741v21.202l-12.491 1.742a36 36 0 0 1-1.139 2.752l7.601 10.063-14.99 14.993-10.063-7.602q-1.347.625-2.752 1.137l-1.742 12.494H63.969Z"/><path fill="#fff" d="M105.696 81.538a32 32 0 0 1-2.557 6.188l7.089 9.387-10.813 10.814-9.386-7.09a32.2 32.2 0 0 1-6.188 2.558l-1.625 11.657H66.924l-1.626-11.657a32.3 32.3 0 0 1-6.188-2.558l-9.387 7.09-10.814-10.814 7.092-9.388a32.2 32.2 0 0 1-2.559-6.187l-11.656-1.625v-15.29l11.656-1.625a32.3 32.3 0 0 1 2.559-6.187l-7.092-9.388 10.814-10.814 9.388 7.091a32.4 32.4 0 0 1 6.187-2.557l1.625-11.658h15.292l1.626 11.656c2.164.644 4.236 1.5 6.185 2.558l9.39-7.091 10.813 10.813-7.09 9.388a32.3 32.3 0 0 1 2.559 6.188l11.656 1.624v15.292ZM74.569 51.213c-11.627 0-21.057 9.426-21.057 21.057s9.43 21.056 21.057 21.056c11.63 0 21.057-9.425 21.057-21.056s-9.427-21.057-21.057-21.057M90.021 72.27c0 8.535-6.917 15.452-15.452 15.452-8.532 0-15.452-6.917-15.452-15.452s6.92-15.452 15.452-15.452c8.535-.001 15.452 6.916 15.452 15.452m-15.452-5.343a5.344 5.344 0 0 0 0 10.686 5.343 5.343 0 1 0 0-10.686"/></g></svg>