<svg xmlns="http://www.w3.org/2000/svg" xml:space="preserve" width="141.22" height="150.001" viewBox="0 0 141.22 150.001"><path d="M11.173 93.236V41.61L0 30.694 33.004 0h19.057c3.875 6.174 10.723 10.292 18.549 10.292S85.284 6.173 89.158 0h19.059l33.003 30.694-11.173 10.916v51.626L70.61 150.001Zm107.981-16.89V58.995l-13.226-1.843a36.6 36.6 0 0 0-2.903-7.021l8.044-10.652-12.267-12.268-10.654 8.045a36.5 36.5 0 0 0-7.018-2.902l-1.845-13.226h-17.35l-1.844 13.228a36.7 36.7 0 0 0-7.02 2.901l-10.652-8.045-12.27 12.27 8.046 10.652a36.6 36.6 0 0 0-2.903 7.02l-13.226 1.844v17.35l13.226 1.844a36.6 36.6 0 0 0 2.903 7.02l-8.046 10.651 12.271 12.271 10.65-8.044a36.7 36.7 0 0 0 7.021 2.901l1.845 13.227h17.351l1.844-13.227a36.6 36.6 0 0 0 7.022-2.901l10.649 8.044 12.27-12.271-8.044-10.65a36.5 36.5 0 0 0 2.901-7.021zm-24.652-8.673c0 13.197-10.695 23.891-23.892 23.891-13.192 0-23.892-10.694-23.892-23.891s10.7-23.892 23.892-23.892c13.197 0 23.892 10.695 23.892 23.892M70.61 50.14c-9.681 0-17.533 7.849-17.533 17.533s7.852 17.533 17.533 17.533c9.685 0 17.533-7.849 17.533-17.533S80.295 50.14 70.61 50.14m6.063 17.533a6.064 6.064 0 0 1-6.063 6.063 6.063 6.063 0 1 1 6.063-6.063"/></svg>