<?xml version="1.0" encoding="UTF-8" standalone="no"?>
<svg
   version="1.1"
   width="543.05103"
   height="500.03256"
   id="svg1"
   xmlns="http://www.w3.org/2000/svg"
   xmlns:svg="http://www.w3.org/2000/svg">
  <defs
     id="defs1" />
  <path
     d="m 316.2893,0.00325816 c -26.90551,-0.174234 -60.18577,6.60466604 -97.80664,28.74414084 0,0 88.70249,-14.376497 152.75,36.939453 0,0 -40.20096,70.759108 -152.46093,111.306648 C 106.55508,217.5266 28.461637,150.93939 79.777595,47.022789 c 0,0 -50.853045,47.360866 -72.4043011,130.693361 -21.5368219,83.28918 7.1593111,161.55357 46.6386721,218.10938 l 3.550781,4.44726 c 44.877993,52.38413 113.501733,99.75977 199.490233,99.75977 86.04624,0 144.63672,-37.44531 144.63672,-37.44531 -113.45806,23.73092 -158.33594,-68.56569 -91.01172,-167.12696 67.32422,-98.51797 145.92187,-119.70703 145.92187,-119.70703 33.66211,74.81592 -2.52539,157.13672 -2.52539,157.13672 82.32205,-82.32204 51.19922,-162.10351 51.19922,-162.10351 L 543.05102,21.356774 388.26587,19.899743 c 0,-1e-6 -27.13403,-19.60609484 -71.97657,-19.89648484 z M 377.4397,40.540367 514.57056,41.436852 483.89673,168.64975 468.56665,142.47983 160.02173,309.38998 407.21899,62.192711 Z"
     id="path1" />
</svg>
