<svg xmlns="http://www.w3.org/2000/svg" width="88.679" height="37.985" viewBox="0 0 88.679 37.985"><path d="M3.24 11.904c3.495-3.598 9.007-3.928 13.658-2.976.757-1.257 1.282-2.633 2.206-3.795 3.518-4.426 10.69-6.715 15.828-3.892.762.418 2.607 1.704 2.607 1.704s5.402-.295 7.425-.239c18.615.517 39.254 9.748 43.352 29.705.273 1.329.953 4.711-.776 5.227-2.6.774-3.298-2.527-4.328-4.195-7.637-12.362-36.954-10.708-47.342-1.639-.435.38-1.506 1.714-2.521 3.181-.983 1.42-2.14 3-2.14 3s-1.66-.162-2.99-.33c-7.657-.97-23.283-4.85-27.022-12.26-2.175-4.309-1.323-10.028 2.042-13.491M27.768 1.103c-2.847.385-6.188 2.512-7.947 4.749-1.065 1.354-1.538 2.862-2.452 4.265-6.151-1.7-13.934-.27-15.821 6.683-2.54 9.35 5.299 13.826 12.805 16.517 5.249 1.882 10.95 2.896 16.48 3.558.346-.054 3.134-5.207 3.502-5.97 2.579-5.335 5.935-14.016 5.463-19.92-.527-6.597-5.365-10.784-12.03-9.882m56.584 24.13C79.359 13.405 65.719 6.355 53.506 4.463c-3.621-.56-8.515-1.013-12.144-.785-.533.034-2.787.439-2.99.595l2.082 4.726c16.43-1.79 32.808 4.113 43.899 16.234M39.325 20.92c15.23-5.484 36.234-1.81 45.222 12.624.57.915 1.233 3.51 2.512 3.153 1.247-.347.358-3.609.101-4.568-2.584-9.643-16.369-17.919-25.377-20.612-6.818-2.039-14.174-2.789-21.263-2.092.776 3.965-.31 7.682-1.195 11.495m39.691 6.657c-7.277-7.056-24.02-9.551-33.473-7.741-1.236.236-6.321 1.761-6.321 1.761s-2.913 7.784-3.25 8.666c11.87-7.749 28.924-9.292 41.344-2.712.683.362 4.258 2.836 4.933 3.306-2.522-2.825-3.01-3.065-3.233-3.28" style="fill:#fff"/><path d="M27.769 1.103c6.665-.902 11.503 3.285 12.03 9.882.472 5.904-2.884 14.585-5.463 19.92-.368.763-3.156 5.916-3.503 5.97-5.53-.662-11.23-1.676-16.48-3.558C6.849 30.627-.99 26.15 1.55 16.8c1.887-6.952 9.67-8.383 15.821-6.683.914-1.403 1.387-2.911 2.452-4.265 1.759-2.237 5.1-4.364 7.947-4.749m56.778 32.441c.57.915 1.233 3.51 2.512 3.153 1.247-.347.358-3.609.101-4.568-2.584-9.643-16.369-17.919-25.377-20.612-6.818-2.039-14.174-2.789-21.263-2.092.776 3.965-.31 7.682-1.195 11.495 15.23-5.484 36.234-1.81 45.222 12.624m-31.04-29.08c-3.622-.56-8.516-1.014-12.145-.786-.533.034-2.726.416-2.99.595l2.082 4.726c16.43-1.79 32.808 4.113 43.899 16.234C79.36 13.405 65.72 6.355 53.507 4.463m-7.964 15.372c-1.236.236-6.321 1.761-6.321 1.761s-2.74 7.354-3.25 8.666c11.87-7.749 28.93-9.302 41.344-2.712.37.196 1.238.786 2.141 1.39.91.608 2.353 1.686 2.792 1.916-2.156-2.485-3.01-3.067-3.233-3.28-7.43-7.111-24.02-9.551-33.473-7.741"/></svg>