<svg xmlns="http://www.w3.org/2000/svg" width="88.679" height="37.985" viewBox="0 0 88.679 37.985"><defs><radialGradient id="a" cx="22.786" cy="18.428" r="37.571" fx="22.786" fy="18.428" gradientUnits="userSpaceOnUse"><stop offset="0" stop-color="#c3e2ee"/><stop offset=".156" stop-color="#bfdeea"/><stop offset=".306" stop-color="#b4d2de"/><stop offset=".455" stop-color="#a1bfcb"/><stop offset=".602" stop-color="#87a3af"/><stop offset=".747" stop-color="#65808c"/><stop offset=".838" stop-color="#4d6773"/></radialGradient><linearGradient id="b" x1="35.973" x2="87.708" y1="20.174" y2="20.174" gradientUnits="userSpaceOnUse"><stop offset="0" stop-color="#c3e2ee"/><stop offset=".167" stop-color="#a5c3cf"/><stop offset=".421" stop-color="#7f9ba7"/><stop offset=".653" stop-color="#637e8a"/><stop offset=".853" stop-color="#526d79"/><stop offset="1" stop-color="#4d6773"/></linearGradient></defs><path d="M3.24 11.904c3.495-3.598 9.007-3.928 13.658-2.976.757-1.257 1.282-2.633 2.206-3.795C22.622.707 29.794-1.582 34.932 1.24c.762.418 2.607 1.704 2.607 1.704s5.402-.295 7.425-.24c18.615.518 39.254 9.749 43.352 29.706.273 1.329.953 4.71-.776 5.227-2.6.774-3.298-2.527-4.328-4.195-7.637-12.362-36.954-10.708-47.342-1.64-.435.38-1.506 1.715-2.52 3.182-.984 1.42-2.14 3-2.14 3s-1.66-.162-2.99-.33c-7.658-.97-23.284-4.85-27.023-12.26-2.175-4.31-1.323-10.028 2.042-13.491M27.77 1.103c-2.848.385-6.189 2.512-7.948 4.749-1.065 1.354-1.538 2.862-2.452 4.265-6.15-1.7-13.934-.27-15.82 6.683-2.54 9.35 5.298 13.826 12.804 16.517 5.25 1.882 10.95 2.896 16.48 3.558.346-.054 3.134-5.207 3.502-5.97 2.58-5.335 5.935-14.016 5.463-19.92C39.271 4.388 34.433.2 27.768 1.103m56.584 24.13C79.36 13.405 65.72 6.355 53.506 4.463c-3.62-.56-8.515-1.013-12.144-.785-.533.034-2.787.439-2.99.595l2.082 4.726c16.43-1.79 32.808 4.113 43.9 16.234M39.324 20.92c15.23-5.484 36.234-1.81 45.222 12.624.57.915 1.233 3.51 2.512 3.153 1.247-.347.358-3.61.101-4.568-2.584-9.643-16.369-17.92-25.377-20.612-6.818-2.04-14.174-2.79-21.263-2.092.776 3.965-.31 7.682-1.195 11.495m39.691 6.657c-7.277-7.056-24.02-9.551-33.473-7.741-1.236.236-6.32 1.76-6.32 1.76s-2.914 7.785-3.25 8.667c11.87-7.75 28.923-9.292 41.343-2.712.683.362 4.258 2.836 4.933 3.306-2.522-2.825-3.01-3.065-3.233-3.28"/><path d="M27.77 1.103C34.433.2 39.271 4.388 39.8 10.985c.471 5.904-2.885 14.585-5.464 19.92-.368.763-3.156 5.916-3.503 5.97-5.53-.662-11.23-1.676-16.48-3.558C6.85 30.627-.99 26.15 1.55 16.8c1.887-6.952 9.67-8.383 15.821-6.683.914-1.403 1.387-2.911 2.452-4.265 1.76-2.237 5.1-4.364 7.947-4.75" style="fill:url(#a)"/><path d="M39.325 20.92c.886-3.813 1.971-7.53 1.195-11.495 7.09-.697 14.445.053 21.263 2.092C70.79 14.21 84.576 22.486 87.16 32.129c.257.96 1.146 4.22-.1 4.568-1.28.356-1.943-2.238-2.513-3.153C75.56 19.11 54.557 15.436 39.325 20.92M53.506 4.464c-3.62-.56-8.515-1.014-12.144-.786-.533.034-2.726.416-2.99.595l2.082 4.726c16.43-1.79 32.808 4.113 43.9 16.234-4.995-11.828-18.635-18.878-30.848-20.77m-7.963 15.372c-1.236.236-6.32 1.76-6.32 1.76s-2.74 7.355-3.25 8.667c11.87-7.75 28.93-9.302 41.343-2.712.37.196 1.238.786 2.141 1.39.91.608 2.353 1.686 2.792 1.916-2.156-2.485-3.01-3.067-3.233-3.28-7.43-7.111-24.02-9.551-33.473-7.741" style="fill:url(#b)"/></svg>