<svg xmlns="http://www.w3.org/2000/svg" xml:space="preserve" width="150" height="149.86"><g transform="translate(-2.75 -2.234)"><path d="M32.467 77.164c0-23.613 18.173-43.054 41.265-45.095.21-14.547.594-24.026 1.248-29.835C34.904 3.699 2.75 36.737 2.75 77.164s32.154 73.465 72.229 74.93c-.654-5.809-1.038-15.288-1.248-29.835-23.091-2.041-41.264-21.482-41.264-45.095M152.75 77.164c0-40.427-32.154-73.465-72.229-74.93.654 5.809 1.038 15.288 1.248 29.835 23.092 2.041 41.265 21.481 41.265 45.095s-18.173 43.054-41.265 45.095c-.21 14.547-.594 24.026-1.248 29.835 40.075-1.465 72.229-34.503 72.229-74.93"/><path d="M73.632 40.607c-18.354 2.056-32.675 17.661-32.675 36.557s14.32 34.501 32.675 36.557c-.093-10.083-.127-22.154-.127-36.557s.034-26.474.127-36.557M114.543 77.164c0-18.896-14.32-34.501-32.675-36.557.093 10.083.127 22.154.127 36.557s-.034 26.474-.127 36.557c18.355-2.056 32.675-17.661 32.675-36.557"/><linearGradient id="a" x1="8.41" x2="147.09" y1="77.164" y2="77.164" gradientUnits="userSpaceOnUse"><stop offset="0" style="stop-color:#bb2c26"/><stop offset=".05" style="stop-color:#be3226"/><stop offset=".116" style="stop-color:#c64225"/><stop offset=".191" style="stop-color:#d35d24"/><stop offset=".25" style="stop-color:#e07823"/><stop offset=".257" style="stop-color:#e17a23"/><stop offset=".327" style="stop-color:#ee8b1f"/><stop offset=".404" style="stop-color:#f5951e"/><stop offset=".5" style="stop-color:#f7981d"/><stop offset=".596" style="stop-color:#f5951e"/><stop offset=".673" style="stop-color:#ee8b1f"/><stop offset=".743" style="stop-color:#e17a23"/><stop offset=".75" style="stop-color:#e07823"/><stop offset=".767" style="stop-color:#db6e23"/><stop offset=".827" style="stop-color:#cd5125"/><stop offset=".886" style="stop-color:#c33d25"/><stop offset=".944" style="stop-color:#bd3026"/><stop offset="1" style="stop-color:#bb2c26"/></linearGradient><path fill="url(#a)" d="M68.647 143.239q.066 1.349.137 2.665C34.772 141.49 8.41 112.357 8.41 77.164s26.362-64.326 60.374-68.74q-.07 1.316-.137 2.665c-.212 4.272-.375 9.458-.498 16.051-23.515 4.505-41.343 25.216-41.343 50.024s17.828 45.52 41.343 50.024c.123 6.593.287 11.779.498 16.051m78.443-66.075c0-35.193-26.362-64.326-60.374-68.74q.07 1.316.137 2.665c.212 4.272.375 9.458.498 16.051 23.515 4.505 41.343 25.216 41.343 50.024s-17.828 45.52-41.343 50.024c-.123 6.593-.286 11.778-.498 16.051q-.066 1.349-.137 2.665c34.012-4.414 60.374-33.547 60.374-68.74m-38.208 0c0-13.757-8.927-25.422-21.301-29.539.051 8.293.074 18.017.074 29.539s-.023 21.246-.074 29.539c12.374-4.117 21.301-15.782 21.301-29.539M67.919 47.625c-12.374 4.117-21.301 15.782-21.301 29.539s8.927 25.422 21.301 29.539c-.051-8.293-.074-18.017-.074-29.539s.023-21.246.074-29.539" style="fill:url(#a)"/></g></svg>