<svg xmlns="http://www.w3.org/2000/svg" xmlns:xlink="http://www.w3.org/1999/xlink" width="600" height="140.069"><linearGradient id="a" x1="0" x2="1" y1="0" y2="0" gradientTransform="scale(10.79687 -10.79687)rotate(80 55.878 24.321)" gradientUnits="userSpaceOnUse" spreadMethod="pad"><stop offset="0" style="stop-color:#bf331c"/><stop offset=".3" style="stop-color:#d3641c"/><stop offset=".5" style="stop-color:#f7981d"/><stop offset=".7" style="stop-color:#d3641c"/><stop offset="1" style="stop-color:#bf331c"/></linearGradient><linearGradient xlink:href="#a" id="b" x1="0" x2="1" y1="0" y2="0" gradientTransform="scale(121.32454)rotate(80 1.164 1.436)" gradientUnits="userSpaceOnUse" spreadMethod="pad"/><path d="m128.214 140.07-6.978-5.406-3.854-2.989-9.878-7.585c-3.382-2.202-37.576-23.968-83.58-23.968H0V38.846h23.924c47.937 0 83.66-24.058 84.064-24.317l10.09-7.068 3.821-2.685L128.787 0l4.35 7.102 8.034 13.17c2.674 2.505 15.754 13 49.027 13h.696c6.372-7.427 13.395-10.056 16.384-10.888l1.708-.483 1.011-.224 1.618-.17 2.506.046 298.309 7.146 3.461-.045h7.292c23.048 0 76.817 0 76.817 38.453 0 13.563-7.338 31.127-42.274 37.712-14.484 2.72-30.677 3.337-41.352 3.73l-3.506.135-298.657 8.731-1.888.045-1.404.045-2.068-.392-2.326-.709c-2.9-.921-9.563-3.596-15.586-10.664h-.741c-34.33 0-47.364 11.45-49.252 13.339l-8.158 13.44z" style="fill:#fff"/><path d="m126.068 128.428-3.91-2.978-9.923-7.596c-.214-.135-37.565-25.587-88.311-25.587H7.82l.036-45.566h16.069c50.915 0 88.098-25.418 88.491-25.677l10.136-7.113 3.866-2.719 8.562 14.046c.213.135 13.698 15.89 55.219 15.89h4.562c5.574-8.125 12.473-10.586 14.62-11.148l1.629-.437.607-.18h.617l1.663.045 298.31 7.158 3.73-.045h3.607l3.73-.045c22.34 0 68.872 0 68.872 30.632 0 15.406-12.08 25.508-35.913 29.98-13.822 2.596-29.666 3.203-40.161 3.607l-3.473.124-298.612 8.743-1.933.045-.696.045-.709-.225-1.843-.574c-1.977-.617-8.596-3.112-14-11.012h-4.608c-41.442 0-55.005 15.754-55.522 16.417l-8.608 14.17z"/><path d="M120.663 84.233c10.765 0 20.9-7.552 20.9-15.058s-10.135-15.058-20.9-15.058c-10.046 0-18.294 6.585-19.305 13.608h-77.39v-.663h-.044v4.18h77.557c1.371 6.754 9.44 12.99 19.182 12.99" style="fill:#fff"/><path d="M23.924 62.815v4.91h77.434c1.011-6.978 9.26-13.608 19.305-13.608 10.765 0 20.9 7.552 20.9 15.058 0 7.551-10.135 15.103-20.9 15.103-9.743 0-17.81-6.282-19.182-13.035H23.924v4.955c57.106 0 97.705 28.576 97.705 28.576s15.586-23.047 68.569-23.047V57.23c-52.983 0-68.569-23.036-68.569-23.036s-40.554 28.62-97.705 28.62m179.612 6.496c0 21.114 9.967 24.182 9.967 24.182l298.489-8.776c18.26-.708 64.084-1.45 64.084-17.609 0-16.192-47.184-14.484-64.084-14.484L213.503 45.51s-9.967 2.64-9.967 23.8" style="fill:url(#b)"/></svg>