<svg xmlns="http://www.w3.org/2000/svg" xmlns:xlink="http://www.w3.org/1999/xlink" width="600" height="120.348"><linearGradient id="a" x1="0" x2="1" y1="0" y2="0" gradientTransform="scale(10.79687 -10.79687)rotate(80 52.797 20.652)" gradientUnits="userSpaceOnUse" spreadMethod="pad"><stop offset="0" style="stop-color:#8b723c"/><stop offset=".3" style="stop-color:#d2bb7b"/><stop offset=".5" style="stop-color:#ebd491"/><stop offset=".7" style="stop-color:#d2bb7b"/><stop offset="1" style="stop-color:#8b723c"/></linearGradient><linearGradient xlink:href="#a" id="b" x1="0" x2="1" y1="0" y2="0" gradientTransform="scale(124.57892)rotate(80 1.187 1.351)" gradientUnits="userSpaceOnUse" spreadMethod="pad"/><path d="m121.419 120.346-4.016-3.07-10.188-7.788c-.22-.138-38.573-26.238-90.68-26.238H0L.037 36.46h16.5c52.28 0 90.461-26.134 90.865-26.411l10.408-7.246L121.779 0l8.792 14.377c.22.184 14.065 16.361 56.7 16.361h4.685c5.723-8.33 12.807-10.903 15.011-11.492l1.673-.45.623-.173.634.037h1.708l306.31 7.35 3.831-.046h7.535c22.938 0 70.719 0 70.719 31.419 0 15.82-12.404 26.192-36.877 30.784-14.192 2.7-30.461 3.289-41.238 3.693l-3.566.138-306.622 8.966-1.984.092h-.716l-.727-.219-1.892-.589c-2.031-.588-8.827-3.161-14.377-11.273h-4.731c-42.554 0-56.48 16.142-57.011 16.858l-8.839 14.515z"/><path d="M115.869 75c11.054 0 21.461-7.754 21.461-15.496 0-7.708-10.407-15.416-21.461-15.416-10.315 0-18.785 6.762-19.823 13.973H16.58v-.727h-.046v4.327h79.638c1.407 6.946 9.692 13.338 19.696 13.338" style="fill:#fff"/><path d="M16.535 52.961v5.1h79.51c1.04-7.211 9.509-13.973 19.824-13.973 11.054 0 21.461 7.754 21.461 15.416C137.33 67.246 126.923 75 115.87 75c-10.004 0-18.289-6.393-19.696-13.339H16.535v5.054c58.638 0 100.326 29.377 100.326 29.377s16.004-23.654 70.408-23.654v-25.2c-54.404 0-70.408-23.665-70.408-23.665S75.22 52.961 16.535 52.961m184.43 6.67c0 21.68 10.234 24.842 10.234 24.842l306.496-8.977c18.75-.762 65.803-1.535 65.803-18.115 0-16.627-48.45-14.827-65.803-14.827l-306.496-7.35s-10.234 2.7-10.234 24.427" style="fill:url(#b)"/></svg>