<svg xmlns="http://www.w3.org/2000/svg" xmlns:xlink="http://www.w3.org/1999/xlink" width="600" height="120.348"><linearGradient id="a" x1="0" x2="1" y1="0" y2="0" gradientTransform="scale(10.79687 -10.79687)rotate(80 49.694 16.954)" gradientUnits="userSpaceOnUse" spreadMethod="pad"><stop offset="0" style="stop-color:#536e78"/><stop offset=".3" style="stop-color:#99aebc"/><stop offset=".5" style="stop-color:#d9eaf3"/><stop offset=".7" style="stop-color:#99aebc"/><stop offset="1" style="stop-color:#536e78"/></linearGradient><linearGradient xlink:href="#a" id="b" x1="0" x2="1" y1="0" y2="0" gradientTransform="rotate(80 147.886 168.299)scale(124.5794)" gradientUnits="userSpaceOnUse" spreadMethod="pad"/><path d="m121.385 120.346-4.016-3.069-10.188-7.788c-.173-.139-38.573-26.239-90.681-26.239H0V36.462h16.5c52.28 0 90.508-26.135 90.865-26.412l10.408-7.246L121.743 0l8.838 14.377c.173.185 14.02 16.361 56.654 16.361h4.684c5.723-8.33 12.808-10.903 15.012-11.492l1.673-.45.623-.173.68.037h1.662l306.312 7.35 3.83-.046h7.535c22.939 0 70.754 0 70.754 31.42 0 15.818-12.438 26.191-36.912 30.784-14.192 2.7-30.461 3.288-41.238 3.692l-3.565.139-306.624 8.965-1.984.092h-.716l-.726-.22-1.893-.588c-2.03-.588-8.826-3.162-14.376-11.273h-4.731c-42.554 0-56.481 16.142-57.012 16.857l-8.838 14.516z"/><path d="M115.835 75c11.007 0 21.461-7.754 21.461-15.496 0-7.708-10.454-15.416-21.461-15.416-10.316 0-18.785 6.762-19.823 13.974H16.546v-.727 4.327H96.14c1.442 6.946 9.692 13.339 19.696 13.339" style="fill:#fff"/><path d="M16.5 52.962v5.1h79.512c1.038-7.212 9.507-13.974 19.823-13.974 11.007 0 21.461 7.754 21.461 15.416 0 7.742-10.454 15.496-21.461 15.496-10.004 0-18.289-6.392-19.731-13.338H16.5v5.053c58.639 0 100.327 29.377 100.327 29.377s16.004-23.653 70.408-23.653v-25.2c-54.404 0-70.408-23.666-70.408-23.666S75.139 52.962 16.5 52.962m184.43 6.669c0 21.68 10.236 24.842 10.236 24.842l306.496-8.977c18.75-.761 65.758-1.534 65.758-18.115 0-16.627-48.37-14.827-65.758-14.827l-306.496-7.35s-10.235 2.7-10.235 24.427" style="fill:url(#b)"/></svg>