<svg xmlns="http://www.w3.org/2000/svg" width="82.19" height="65.053"><path d="M.186 0C.103 3.336-.31 6.756.45 10.041c.385 1.885 1.703 3.535 3.48 4.043v12.152h11.062L12.31 58.504c-.325.72-.762 1.383-1.078 2.113-.109 1.47-.001 2.948-.05 4.422l14.964.014c-.013-1.396.022-2.792-.004-4.188.117-.882-.912-1.376-.76-2.263l2.42-32.475 3.545-.006v3.928h19.498V26.12l3.545.006 2.42 32.475c.152.887-.877 1.38-.76 2.263-.026 1.396.01 2.792-.004 4.188l14.963-.014c-.048-1.474.06-2.952-.049-4.422-.316-.73-.753-1.392-1.078-2.113l-2.683-32.268H78.26V14.084c1.777-.508 3.095-2.158 3.48-4.043.76-3.285.347-6.705.264-10.041-1.413.42-2.783.997-4.183 1.469-8.86 2.957-18.156 4.118-27.41 4.326-6.405.003-12.491-.01-18.631 0-9.254-.208-18.55-1.369-27.41-4.326C2.97.997 1.598.42.185 0"/></svg>