<svg xmlns="http://www.w3.org/2000/svg" width="257.133" height="305.97" viewBox="21.934 -5.174 257.133 305.97"><path d="M148.729 294.489c-.224-.044-5.524-1.079-9.432-2.234-30.347-8.98-60.902-26.244-86.036-48.611L45 236.293l-.007-106.025L32.55 109.6h235.901l-12.445 20.667L256 236.451l-8.482 7.493c-23.223 20.516-51.057 36.78-78.376 45.797-10.343 3.415-17.947 4.721-18.266 4.774l-1.076.182z"/><path fill="gray" d="m257.834 115.6-3.914 6.5-3.914 6.5-.003 52.572-.003 52.573-6.455 5.702c-22.586 19.954-49.768 35.845-76.284 44.597-10.03 3.312-17.386 4.556-17.386 4.556s-5.198-1.011-8.875-2.099c-29.658-8.776-59.145-25.444-83.75-47.34L51 233.6l-.002-52.5-.003-52.5-3.915-6.5-3.914-6.5zm21.233-12H21.934l10.952 18.19 3.914 6.5 2.194 3.645.003 49.167.003 52.5v5.385l4.023 3.579 6.25 5.561c25.779 22.941 57.146 40.656 88.321 49.882 4.11 1.216 9.4 2.257 9.99 2.371l2.141.416 2.15-.363c.337-.057 8.377-1.437 19.146-4.992 28.073-9.266 56.65-25.957 80.468-46.999l6.454-5.702 4.056-3.582v-5.41l.003-52.572.003-49.239 2.194-3.644 3.914-6.5z"/><path d="M150.05 258.263c-3.223-1.02-14.766-4.753-21.102-7.883-12.605-6.229-28.982-18.162-37.282-27.168l-3.167-3.435V172.72l-6.857-16.553c-2.045-4.938-3.946-9.93-5.246-13.415H225.14a5746 5746 0 0 1-5.374 13.006l-7.267 17.52v47.098l-7.402 7.007c-13.656 12.926-28.995 22.448-45.592 28.302-3.502 1.235-7.686 2.196-9.455 2.578"/><path fill="gray" d="M219.912 146.253a5484 5484 0 0 1-3.378 8.165l-7 16.876-.534 1.287v46.288l-6.308 5.972c-13.298 12.587-28.22 21.854-44.352 27.543-2.827.998-6.158 1.813-8.126 2.259-4.014-1.286-14.076-4.614-19.715-7.4-12.279-6.067-28.206-17.665-36.26-26.403L92 218.411v-46.386l-.533-1.286-6.591-15.909a361 361 0 0 1-3.413-8.576h138.449m10.452-7.001h-159c.284.688 3.42 9.506 7.044 18.255L85 173.417v47.727l4.093 4.439c8.606 9.337 25.286 21.5 38.306 27.934 7.72 3.814 22.477 8.358 22.477 8.358s5.939-1.178 10.795-2.891c16.986-5.991 32.882-15.854 46.834-29.061l8.496-8.043v-47.906L223 157.1c3.85-9.282 7.364-17.847 7.364-17.847"/><path d="M149.083 252.405c-.196-.035-4.851-.878-8.821-2.539-14.52-6.076-27.498-14.29-38.573-24.413l-7.189-6.57v-45.677L84.319 147.94h132.41L206.5 173.788v44.941l-7.154 6.782c-10.46 9.914-24.616 18.943-37.869 24.153-4.46 1.753-10.656 2.717-10.918 2.758l-.739.113z"/><path fill="gray" d="M210.109 152.44 202 172.93v43.865l-5.75 5.451c-10.104 9.577-23.621 18.199-36.42 23.23-4.044 1.59-9.955 2.498-9.955 2.498s-4.317-.771-7.875-2.261c-14.123-5.91-26.52-13.753-37.275-23.583L99 216.899v-44.566l-8.016-19.893zm13.242-9H77.654l4.982 12.363L90 174.078v46.788l2.928 2.677 5.725 5.232c11.458 10.473 24.874 18.965 39.873 25.242 4.347 1.819 9.224 2.721 9.766 2.817l1.472.264 1.479-.228c.706-.108 7.042-1.115 11.881-3.018 13.968-5.491 28.299-14.63 39.318-25.074l5.751-5.452 2.808-2.662v-46.018l7.478-18.895z"/><path d="m63.277 109.1-3.02-7.226c-2.774-6.641-6.658-22.425-7.42-30.161l-1.727-17.52 14.521 7.071c5.749 2.8 19.529 6.707 30.091 8.531 3.15.544 5.984.809 8.666.809 5.262 0 9.991-1.043 14.883-3.283 8.288-3.794 14.104-11.53 14.104-14.277-.036-.691-1.328-3.152-4.308-5.085l-9.348-6.06L149.875 4.4l30.155 37.499-9.348 6.061c-2.979 1.933-4.271 4.394-4.308 5.095 0 2.737 5.816 10.473 14.104 14.267 4.892 2.24 9.621 3.283 14.884 3.283 2.681 0 5.516-.265 8.665-.809 10.562-1.824 24.341-5.731 30.091-8.531l14.521-7.071-1.727 17.52c-.762 7.734-4.646 23.519-7.42 30.16l-3.02 7.226z"/><path fill="gray" d="m149.875 13.975 21.314 26.505-3.771 2.445c-4.165 2.701-7.043 6.835-7.043 10.119 0 6.165 8.307 15.476 17.606 19.733 5.629 2.577 11.184 3.827 17.381 3.827 3.045 0 6.245-.302 9.687-.896 11.217-1.938 25.42-5.993 31.696-9.049l4.87-2.372-.674 6.838c-.703 7.133-4.439 22.341-6.985 28.436l-1.479 3.539H67.273l-1.479-3.539c-2.546-6.095-6.282-21.303-6.985-28.436l-.674-6.838 4.87 2.372c6.276 3.057 20.479 7.112 31.696 9.049 3.44.594 6.642.896 9.687.896 6.197 0 11.751-1.25 17.38-3.827 9.299-4.257 17.606-13.568 17.606-19.733 0-3.284-2.878-7.418-7.043-10.119l-3.772-2.445zm0-19.149-9.352 11.629-21.315 26.505-8.33 10.358 11.154 7.231 3.772 2.445c.334.216.627.445.876.665-1.63 2.413-5.424 6.154-9.907 8.207-4.136 1.893-7.956 2.738-12.385 2.738-2.335 0-4.835-.236-7.644-.721-10.988-1.898-23.831-5.747-28.485-8.013l-4.871-2.372-19.301-9.399 2.105 21.365.674 6.838c.821 8.323 4.858 24.712 7.855 31.885l1.479 3.54 3.082 7.373h181.185l3.081-7.372 1.479-3.539c2.998-7.178 7.036-23.567 7.856-31.887l.674-6.838 2.105-21.365-19.302 9.399-4.87 2.371c-4.655 2.268-17.498 6.116-28.485 8.014-2.809.485-5.309.721-7.644.721-4.43 0-8.25-.845-12.386-2.738-4.483-2.053-8.277-5.794-9.907-8.207.25-.221.543-.449.878-.667l3.771-2.444 11.152-7.231-8.329-10.358-21.313-26.505Z"/></svg>