<svg xmlns="http://www.w3.org/2000/svg" width="214.668" height="274.625"><path d="M106.709 0 85.393 26.506l3.771 2.445c4.165 2.701 7.043 6.835 7.043 10.12 0 6.164-8.306 15.475-17.605 19.732-5.63 2.577-11.184 3.826-17.381 3.826-3.045 0-6.246-.3-9.686-.895-11.217-1.937-25.421-5.993-31.697-9.05l-4.87-2.371.675 6.837c.703 7.133 4.438 22.34 6.984 28.436l1.48 3.539h165.204l1.478-3.54c2.546-6.094 6.283-21.302 6.986-28.435l.674-6.837-4.87 2.37c-6.277 3.057-20.48 7.113-31.696 9.051-3.442.594-6.643.895-9.688.895-6.197 0-11.752-1.25-17.38-3.826-9.3-4.257-17.606-13.568-17.606-19.733 0-3.284 2.878-7.418 7.043-10.119l3.771-2.445zM0 101.625l3.914 6.5 3.914 6.5.004 52.5.002 52.5 6.25 5.563c24.605 21.896 54.092 38.563 83.75 47.34 3.677 1.087 8.875 2.097 8.875 2.097s7.355-1.243 17.385-4.555c26.516-8.752 53.699-24.643 76.285-44.597l6.455-5.702.002-52.574.004-52.572 3.914-6.5 3.914-6.5zm28.197 23.652h159s-3.513 8.566-7.363 17.848l-7 16.875v47.904l-8.496 8.043c-13.952 13.207-29.848 23.072-46.834 29.063-4.856 1.713-10.795 2.89-10.795 2.89s-14.757-4.543-22.477-8.357c-13.02-6.434-29.7-18.599-38.306-27.936l-4.092-4.437V159.44l-6.592-15.908c-3.624-8.749-6.76-17.568-7.045-18.256m19.621 13.188 8.016 19.892v44.567l5.725 5.23c10.755 9.83 23.152 17.674 37.275 23.584 3.558 1.49 7.875 2.262 7.875 2.262s5.911-.908 9.955-2.498c12.8-5.031 26.316-13.654 36.42-23.23l5.75-5.452v-43.865l8.11-20.49z"/></svg>